<?xml version="1.0" encoding="utf-8"?>
<!-- Generator: Adobe Illustrator 18.1.0, SVG Export Plug-In . SVG Version: 6.00 Build 0)  -->
<svg version="1.1" id="Layer_1" xmlns="http://www.w3.org/2000/svg" xmlns:xlink="http://www.w3.org/1999/xlink" x="0px" y="0px"
	 width="270px" height="170px" viewBox="0 0 270 170" enable-background="new 0 0 270 170" xml:space="preserve">
<g>
	<rect x="6.7" y="9.8" fill="#ED2831" width="5.7" height="8.7"/>
	<rect x="13.7" y="5" fill="#ED2831" width="5.7" height="13.5"/>
	<rect x="20.9" y="13.4" fill="#ED2831" width="5.7" height="5.1"/>
	<line fill="none" stroke="#ED2831" stroke-width="0.9884" stroke-miterlimit="10" x1="5" y1="20.2" x2="28" y2="20.2"/>
</g>
<g>
	<path fill="#E81C33" d="M12.7,90.5c0.7,0.8,3.9,2,4.4,3.1c-1.6,0.2-3.7,0.6-6,0.7c-2.3,0.1-4.2-0.4-5.8-0.5c0.1-0.9,0.3-2.1,0.7-4
		c0.2-1.4,0.5-3,0.8-4.4c0.3-1.7,0.8-3,1.1-4c0.4,0.3,1.9,4.8,2.3,5.2c0.9-1.7,2.2-2.9,3.7-3.9c1.6-1,3.1-1.9,4.9-2.2
		c2-0.3,3.9-0.4,5.5,0.1c1.3,0.4,2.7,1.5,3.9,2.7c1.2,1.2,2.2,2.5,2.7,3.9c0.5,1.6,1.2,2.6,0.4,3.6c-1.1,1.4-4.6,3.6-6.3,2.4
		c-0.4-1.6-0.5-3.6-1.5-4.9c-1-1.3-2.6-2.1-4.5-2.1c-1.2,0-2.8,0.3-4,1.1C13.9,87.9,13.2,89.3,12.7,90.5"/>
</g>
<path fill="#ED2831" d="M27.9,54.7c0-0.2-0.1-0.3-0.3-0.4c1.3-0.9,2.3-2.2,2.4-3.9c0-0.3-0.3-0.6-0.6-0.5c-1.2,0.4-2.4,0.7-3.6,0.8
	C26,49.9,26,49,26,48.1c0-0.6-1-0.6-1,0c-0.4-0.6-0.8-1.2-1.3-1.8c-0.5-0.5-1.2,0.2-0.7,0.7c0.8,0.8,1.3,1.8,1.8,2.9
	c0,0.1,0.1,0.1,0.1,0.2c0,0.3-0.1,0.6-0.1,0.8c-1.4,0.1-2.7,0.1-4.2,0c0,0-0.1,0-0.1-0.1c0-0.5-0.1-1-0.2-1.5c0.6-2,2-3.5,4.1-4.4
	c0.6-0.2,0.3-1.2-0.3-1c-0.7,0.3-1.4,0.7-2,1.2c0-0.2-0.2-0.5-0.5-0.5h-2.4c-0.6,0-0.6,1,0,1h2.2c-0.6,0.6-1.2,1.2-1.6,2
	c-0.7-2.2-2.2-4.1-4.9-4.2c-0.3,0-0.5,0.2-0.5,0.5c-0.1,0.9,0.1,1.8,0.4,2.7c-0.7,0.5-1.5,0.8-2,1.5c0,0,0,0,0,0
	c-1-0.7-1.9-1.6-2.8-2.5c-0.2-0.2-0.7-0.2-0.8,0.1c-1.5,3.3,0.9,5.7,3.6,7.4c-0.1,0.5-0.2,1-0.2,1.5c-0.1,1,0.3,1.8,0.7,2.7
	c0.3,0.7,0.8,1.2,1.4,1.7c0.7,0.7,1.7,1.2,2.8,1.2c0.6,0,1.2-0.1,1.7-0.4c0.6-0.2,1.2-0.6,1.8-1c0,0,0.1,0,0.1,0
	c1.7,0,3.5-0.5,4.5-2c0.7,1.3,1.7,2.4,3.3,2.7c0.4,0.1,0.8-0.3,0.6-0.7C28.7,57.7,28,56.3,27.9,54.7z M13.4,52.4
	c-2-1.2-3.9-3-3.3-5.2c1.4,1.5,3,2.7,4.8,3.5C14.2,51.1,13.7,51.6,13.4,52.4z M16.3,50.1c-0.9-0.3-1.7-0.7-2.5-1.2
	c0,0,0.1,0,0.1-0.1c0.4-0.5,1-0.8,1.5-1.1c0.4,0.9,1,1.7,1.8,2.3C16.9,50,16.6,50,16.3,50.1z M19.1,50.5c0,0-0.1,0-0.1,0
	c-0.1-0.1-0.3-0.1-0.4-0.2c0.1-0.2,0-0.4-0.2-0.6c-1.7-1.2-2.8-3.1-2.8-5.2C18,45,19,47,19.4,49.3C19.3,49.7,19.2,50.1,19.1,50.5z
	 M28.9,51.2c-0.6,2.3-3.6,3.5-6.1,4c0-0.2,0-0.5,0-0.7c0-0.7-0.2-1.4-0.5-2c-0.1-0.2-0.2-0.3-0.4-0.5C24.4,52,26.6,51.8,28.9,51.2z
	 M25.1,56.1c-0.6,1.2-1.8,1.7-3.1,1.8c0.3-0.5,0.6-1.1,0.7-1.7c0.8-0.1,1.5-0.3,2.3-0.6c0,0.1,0,0.2,0,0.3
	C25.1,56,25.1,56,25.1,56.1C25.1,56.1,25.1,56.1,25.1,56.1z M26,55.4c0-0.1-0.1-0.1-0.1-0.1c0.4-0.2,0.7-0.3,1.1-0.5
	c0,1.2,0.4,2.3,0.9,3.4C27,57.5,26.5,56.4,26,55.4z"/>
<path fill="#ED2831" d="M29.3,44.6c-0.8,0.4-1.6,0.7-2.4,1c-0.1-0.3-0.1-0.7-0.1-1c0-0.5-0.7-0.7-0.9-0.3c-0.5,0.8-0.6,1.7-0.2,2.6
	c0.5,1,1.2,1.8,0.9,3c-0.1,0.6,0.8,0.9,1,0.3c0.2-0.9,0.1-1.8-0.3-2.6c-0.2-0.3-0.3-0.6-0.5-0.9c1.1-0.3,2.1-0.7,3.2-1.2
	C30.4,45.1,29.9,44.3,29.3,44.6z"/>
<path fill="#ED2831" d="M9.7,41.7c0-0.6-1-0.6-1,0c0,0.7-0.1,1.8-0.8,2.2c0-1.1,0.1-2.3,0.1-3.4c0-0.6-1-0.6-1,0
	c0,1.2-0.1,2.3-0.1,3.5c-1-0.3-1-1.9-0.8-2.7c0.1-0.6-0.8-0.9-1-0.3c-0.3,1.5,0,3.6,1.8,3.9c-0.1,5.1-0.1,10.1-0.1,15.2
	c0,0.6,1,0.6,1,0c0-5.1,0-10.1,0.1-15.2C9.2,44.7,9.7,43,9.7,41.7z"/>
<path fill="#ED2831" d="M34,41.9c-0.3-0.6-0.9-1.4-1.6-1.4c-0.9,0-1.3,1.2-1.6,2c-0.1,0.5,0.3,0.7,0.7,0.6c0,1.9-0.1,3.8,0.2,5.6
	c0.1,0.6,0.4,1.5,1.1,1.5c0,0,0.1,0,0.1,0c0.5,2.6,0.2,5.3,0.2,7.9c0,0.6,1,0.6,1,0c0-2.8,0.4-5.6-0.3-8.4c0,0,0,0,0,0
	c0.3-0.3,0.6-0.8,0.8-1.2C35.5,46.5,34.8,43.7,34,41.9z M33.4,48.5c-0.2,0.2-0.3,0.5-0.6,0.6c0.1-0.1,0-0.2-0.1-0.4
	c-0.2-0.7-0.2-1.4-0.3-2.1c-0.1-1.4,0-2.8,0-4.2c0-0.3-0.2-0.4-0.4-0.5c0.1-0.3,0.3-0.5,0.6-0.2c0.5,0.5,0.7,1.3,0.9,1.9
	C34,45.2,34.3,47.1,33.4,48.5z"/>
</svg>
