<?xml version="1.0" encoding="utf-8"?>
<!-- Generator: Adobe Illustrator 18.1.0, SVG Export Plug-In . SVG Version: 6.00 Build 0)  -->
<svg version="1.1" id="Layer_1" xmlns="http://www.w3.org/2000/svg" xmlns:xlink="http://www.w3.org/1999/xlink" x="0px" y="0px"
	 width="250px" height="100px" viewBox="-9 36 250 100" enable-background="new -9 36 250 100" xml:space="preserve">
<g>
	<g opacity="0.5">
		<path fill="#231F20" d="M0.7,82.1c-0.7,0-1.5-0.3-1.9-0.8c-0.5-0.5-0.7-1.2-0.7-1.9l1.4-34.1c0.1-1.5,1.5-2.7,3-2.7l214.6,0.7
			c1.6,0,2.8,1.2,2.8,2.7v33.3c0,1.5-1.3,2.7-2.8,2.7L0.7,82.1L0.7,82.1z"/>
		<path fill="#231F20" d="M2.5,41.4v2.3l214.6,0.7c0.8,0,1.7,0.7,1.7,1.6v33.3c0,0.8-0.7,1.5-1.6,1.5H0.7c-0.4,0-0.7-0.1-1-0.4
			c-0.3-0.3-0.4-0.6-0.4-1l1.5-34c0-0.9,0.8-1.6,1.8-1.6V41.4 M2.5,41.4c-2.2,0-4.1,1.7-4.2,3.9l-1.5,34c-0.1,2.1,1.7,3.9,3.9,3.9
			h216.4c2.2,0,4.1-1.7,4.1-3.9V46c0-2.1-1.8-3.9-4.1-3.9L2.5,41.4L2.5,41.4L2.5,41.4z"/>
	</g>
	<g>
		<path fill="#FFFDF0" d="M-4.9,76.6c-0.7,0-1.5-0.3-1.9-0.8c-0.5-0.5-0.7-1.2-0.7-1.9l1.4-34c0.1-1.5,1.4-2.7,3-2.7l214.6,0.7
			c1.6,0,2.8,1.2,2.8,2.7v33.3c0,1.5-1.3,2.7-2.8,2.7C211.5,76.6-4.9,76.6-4.9,76.6z"/>
		<path fill="#FFFFFF" d="M-3.2,36v2.3L211.4,39c0.8,0,1.7,0.7,1.7,1.6v33.3c0,0.8-0.7,1.5-1.6,1.5H-4.9c-0.4,0-0.7-0.1-1-0.4
			s-0.4-0.6-0.4-1l1.5-34c0-0.9,0.8-1.6,1.8-1.6L-3.2,36 M-3.2,36c-2.2,0-4.1,1.7-4.2,3.9l-1.5,34c-0.1,2.1,1.7,3.9,3.9,3.9h216.4
			c2.2,0,4.1-1.7,4.1-3.9V40.6c0-2.1-1.8-3.9-4.1-3.9L-3.2,36L-3.2,36L-3.2,36z"/>
	</g>
</g>
</svg>
