<?xml version="1.0" encoding="utf-8"?>
<!-- Generator: Adobe Illustrator 18.1.0, SVG Export Plug-In . SVG Version: 6.00 Build 0)  -->
<svg version="1.1" id="Layer_1" xmlns="http://www.w3.org/2000/svg" xmlns:xlink="http://www.w3.org/1999/xlink" x="0px" y="0px"
	 width="270px" height="170px" viewBox="0 0 270 170" enable-background="new 0 0 270 170" xml:space="preserve">
<g>
	<path fill="#529FBA" d="M142.5,51c0,3.3-4,5.9-8.2,5.9c-6.2,0-6.2-0.3-12.5-0.3c-6.2,0-6.2,0.9-12.5,0.9c-6.2,0-6.2-0.3-12.5-0.3
		c-6.2,0-6.2-0.2-12.5-0.2c-6.2,0-6.2,0.5-12.5,0.5c-6.2,0-6.2-1.1-12.5-1.1c-6.2,0-6.2,1.3-12.5,1.3c-6.2,0-6.2-1.1-12.5-1.1
		c-6.2,0-6.2,0.4-12.5,0.4s-6.2,0.7-12.5,0.7c-4.2,0-7.4-3.3-7.4-6.6c0-5.4-0.1-5.4-0.1-10.8c0-5.4,0.2-5.4,0.2-10.8
		c0-5.4,0.1-5.4,0.1-10.8S1.7,13.3,1.7,8c0-3.3,3.7-6.1,7.9-6.1c6.2,0,6.2-0.5,12.5-0.5c6.2,0,6.2,0.5,12.5,0.5
		c6.2,0,6.2,0.3,12.5,0.3c6.2,0,6.2-0.6,12.5-0.6c6.2,0,6.2,0.6,12.5,0.6c6.2,0,6.2-0.2,12.5-0.2c6.2,0,6.2,0.3,12.5,0.3
		c6.2,0,6.2,0.3,12.5,0.3c6.2,0,6.2-0.5,12.5-0.5s6.2,0.5,12.5,0.5c4.2,0,7.5,2.1,7.5,5.4c0,5.4-0.3,5.4-0.3,10.8
		c0,5.4,0.3,5.4,0.3,10.8c0,5.4,0.5,5.4,0.7,10.8C142.7,45.6,142.5,45.7,142.5,51z"/>
</g>
<g>
	<path fill="#529FBA" d="M232.7,119c0,3.3-6.3,5.8-13.2,5.8c-7.9,0-7.9-0.4-15.8-0.4c-7.9,0-7.9,1.1-15.8,1.1
		c-7.9,0-7.9-0.4-15.8-0.4c-7.9,0-7.9-0.2-15.8-0.2c-7.9,0-7.9,0.7-15.8,0.7c-7.9,0-7.9-1.4-15.8-1.4c-7.9,0-7.9,1.6-15.8,1.6
		c-7.9,0-7.9-1.4-15.8-1.4c-7.9,0-7.9,0.5-15.8,0.5c-7.9,0-7.9,0.8-15.8,0.8c-7.9,0-7.9-1.2-15.8-1.2c-7.9,0-7.9,0.2-15.8,0.2
		c-7.9,0-7.9-0.2-15.8-0.2c-6.9,0-12-2.3-12-5.6c0-7.2-0.9-7.2-0.9-14.4c0-7.2,0.2-7.2,0.2-14.4c0-7.2-0.6-7.2-0.6-14.4
		c0-3.3,6.4-6.1,13.3-6.1c7.9,0,7.9,0.4,15.8,0.4c7.9,0,7.9-0.8,15.8-0.8c7.9,0,7.9,0.8,15.8,0.8c7.9,0,7.9-0.3,15.8-0.3
		c7.9,0,7.9,0.3,15.8,0.3c7.9,0,7.9,0.3,15.8,0.3c7.9,0,7.9-0.7,15.8-0.7c7.9,0,7.9,0.7,15.8,0.7c7.9,0,7.9-0.5,15.8-0.5
		c7.9,0,7.9,0.3,15.8,0.3c7.9,0,7.9-0.3,15.8-0.3c7.9,0,7.9-0.9,15.8-0.9c7.9,0,7.9,0.2,15.8,0.2c6.9,0,12.5,3.2,12.5,6.5
		c0,7.2,0.2,7.2,0.2,14.4c0,7.2-0.1,7.2,0.2,14.4C232.5,111.9,232.7,111.9,232.7,119z"/>
</g>
</svg>
