<?xml version="1.0" encoding="utf-8"?>
<!-- Generator: Adobe Illustrator 16.0.3, SVG Export Plug-In . SVG Version: 6.00 Build 0)  -->
<!DOCTYPE svg PUBLIC "-//W3C//DTD SVG 1.1//EN" "http://www.w3.org/Graphics/SVG/1.1/DTD/svg11.dtd">
<svg version="1.1" id="Layer_1" xmlns="http://www.w3.org/2000/svg" xmlns:xlink="http://www.w3.org/1999/xlink" x="0px" y="0px"
	 width="450px" height="1700px" viewBox="0 0 450 1700" enable-background="new 0 0 450 1700" xml:space="preserve">
<g>
	<path fill="#6BA165" d="M247.539,48.392c-1.244-10.125-1.244-18.802-10.566-23.863c-5.594-3.616-20.679-9.26-26.87-9.716
		c-28.197-2.08-50.14,0.24-78.112,2.409c-26.728,2.169-46.935,3.146-74.057,7.107c-6.182,0.903-20.491,8.877-25.464,14.662
		c-4.972,5.785-3.109,15.909-3.109,23.863c0,0,1.731,13.609,4.351,18.079c10.395,17.734,19.893,23.863,37.919,24.586
		c33.637,1.327,64.233,1.713,97.87,1.521c8.22,0.914,9.988,6.897,9.213,15.638c0.441,7.139-9.688,19.911-7.633,26.423
		c1.9,6.018,17.083-35.54,22.593-42.228c1.629-1.978,3.476-2.552,4.67-2.941c8.761-2.851,15.127-2.503,23.71-2.028
		c9.323,0,15.54,2.169,22.375-7.231C251.268,83.102,248.779,62.131,247.539,48.392z"/>
</g>
<g>
	<path d="M65.042,35.141h2.92v19.817h-2.58V46h-3.601v8.959h-2.637V35.482h2.807v8.222l3.062-0.142L65.042,35.141z"/>
	<path d="M80.605,52.549v2.41h-8.562l0.425-12.899l0.142-0.085v-6.69h7.995v2.636h-5.273l-0.255,6.634l0.142,0.057h4.933v2.126
		H75.02l-0.113,1.701l0.057,0.17l-0.057,0.34v3.686L80.605,52.549z"/>
	<path d="M87.181,54.959h-2.778V35.482h8.137c2.211,0,2.807,1.729,2.807,3.09v5.272c0,1.134-1.049,2.297-1.928,2.297H92.2
		l3.572,8.817h-3.289l-3.204-8.817h-2.154L87.181,54.959z M92.511,38.373h-5.415v5.019h0.283l0.142,0.17h4.989L92.511,38.373
		L92.511,38.373z"/>
	<path d="M102.291,54.959h-2.778V35.482h8.137c2.211,0,2.807,1.729,2.807,3.09v5.272c0,1.134-1.049,2.297-1.928,2.297h-1.219
		l3.572,8.817h-3.289l-3.204-8.817h-2.154L102.291,54.959z M107.62,38.373h-5.415v5.019h0.283l0.142,0.17h4.989L107.62,38.373
		L107.62,38.373z"/>
	<path d="M123.155,35.822v17.095c0,0.907-0.51,2.042-1.587,2.042h-5.273c-1.474,0-2.069-1.843-2.069-1.843v-1.248h0.369l0.085-0.057
		h2.211l0.057,0.681h3.544v-16.67H123.155z"/>
	<path d="M135.459,52.549v2.41h-8.562l0.425-12.899l0.142-0.085v-6.69h7.995v2.636h-5.273l-0.255,6.634l0.142,0.057h4.933v2.126
		h-5.132l-0.113,1.701l0.057,0.17l-0.057,0.34v3.686L135.459,52.549z"/>
	<path d="M139.285,51.188h1.814l0.113,0.057l0.113-0.057l0.057,0.057h1.645v1.616l-0.652,1.673l-0.255,0.369l-0.907,0.936
		l-0.879,0.708l-0.794,0.114h-0.567l-0.113-0.284l0.057-0.34l0.227-0.425l0.255-0.765l-0.057-0.114l0.113-0.652l-0.17-0.482h0.057
		v-0.284l-0.057-0.057V51.188z"/>
	<path d="M163.523,52.549v2.41h-8.562l0.425-12.899l0.142-0.085v-6.69h7.995v2.636h-5.273l-0.255,6.634l0.142,0.057h4.933v2.126
		h-5.132l-0.113,1.701l0.057,0.17l-0.057,0.34v3.686L163.523,52.549z"/>
	<path d="M167.122,35.794l3.034-0.34V46l-0.17,0.085v8.732l-1.843,0.142h-1.219L167.122,35.794z"/>
	<path d="M176.136,54.987h-1.19l-0.057-0.057h-1.106V35.935l-0.227-0.17l0.255-0.17h2.126l0.113-0.113h1.475l3.657,10.376v-10.32
		l2.041-0.255h0.539l0.028,0.34c0,0.028,0,0.057-0.028,0.085h0.227v10.745l0.057,0.057l-0.057,0.057l0.057,0.029l-0.057,0.057
		l0.057,0.085v8.108h-1.361l-0.34-0.057l-0.17,0.057h-1.163l-4.876-13.722V54.987L176.136,54.987z"/>
	<path d="M61.188,69.216c-0.057,0.142-0.085,0.369-0.085,0.397l0.028,0.028L56.68,88.976h-2.523l-2.949-9.101l-0.057-0.057
		l-3.941,9.101l0.028,0.057h-2.722l-3.515-19.392h3.062l2.354,14.289l3.402-8.25h3.09l2.438,7.541l3.062-13.949L61.188,69.216
		L61.188,69.216z"/>
	<path d="M73.121,86.567v2.41h-8.562l0.425-12.899l0.142-0.085v-6.69h7.995v2.636h-5.273l-0.255,6.634l0.142,0.057h4.933v2.126
		h-5.132l-0.113,1.701l0.057,0.17l-0.057,0.34v3.686L73.121,86.567z"/>
	<path d="M79.385,86.283h6.549l-0.142,2.693h-9.271V69.103h2.835v16.16L79.385,86.283z"/>
	<path d="M94.977,88.977V72.165h-5.528v-2.07l-0.113-0.028v-0.312h11l0.113-0.34h1.446l0.709-0.057l0.085,0.51l0.085,0.964v1.361
		H98.04v16.642l-0.085,0.142h-0.936l-0.114-0.057l-0.113,0.057H94.977z"/>
	<path d="M106.543,69.613h2.693v14.686c0,0.851,0.85,1.446,1.36,1.446h3.147c0.454,0,0.766-0.652,0.851-1.304v-14.8h2.864v17.096
		c0,0.964-1.389,2.126-2.296,2.24h-6.294c-1.219,0-2.325-1.021-2.325-2.92v-4.564V69.613z"/>
	<path d="M123.438,89.005h-1.19l-0.057-0.057h-1.106V69.953l-0.227-0.17l0.255-0.17h2.126l0.113-0.113h1.474l3.658,10.376v-10.32
		l2.041-0.255h0.539l0.028,0.34c0,0.028,0,0.057-0.028,0.085h0.227v10.745l0.057,0.057l-0.057,0.057l0.057,0.028l-0.057,0.057
		l0.057,0.085v8.108h-1.361l-0.34-0.057l-0.17,0.057h-1.163l-4.876-13.721V89.005z"/>
	<path d="M140.391,88.977V72.165h-5.528v-2.07l-0.113-0.028v-0.312h11l0.113-0.34h1.446l0.709-0.057l0.085,0.51l0.085,0.964v1.361
		h-4.734v16.642l-0.085,0.142h-0.936l-0.114-0.057l-0.113,0.057H140.391z"/>
	<path d="M160.122,86.567v2.41h-8.562l0.425-12.899l0.142-0.085v-6.69h7.995v2.636h-5.273l-0.255,6.634l0.142,0.057h4.933v2.126
		h-5.132l-0.113,1.701l0.057,0.17l-0.057,0.34v3.686L160.122,86.567z"/>
	<path d="M166.698,88.977h-2.778V69.5h8.136c2.211,0,2.807,1.729,2.807,3.09v5.273c0,1.134-1.049,2.296-1.928,2.296h-1.219
		l3.572,8.817h-3.289l-3.203-8.817h-2.154L166.698,88.977z M172.027,72.391h-5.414v5.018h0.283l0.142,0.17h4.989V72.391z"/>
	<path d="M181.154,72.477v14.09h4.849v-4.99l-0.086-1.049l-0.651-0.708h-2.098v-2.353l0.057-0.284h3.742
		c0.51,0,1.673,0.425,1.673,1.588v7.286c0,1.729-1.616,2.636-2.042,2.863c-0.028,0.028-0.058,0.057-0.085,0.057h-5.727
		c-0.765,0-2.098-0.766-2.098-1.701v-4.819l-0.057-0.114l0.113-0.057V71.909c0-0.992,1.134-2.268,2.863-2.268h5.104
		c0.596,0,1.758,0.369,1.758,2.296v2.098h-2.438l-0.057-1.587L181.154,72.477z"/>
	<path d="M200.12,69.358l3.176,0.397v0.255l0.057,0.085l2.068,18.173l0.058,0.114l-0.368,0.595h-0.396l-0.057,0.057l-0.058-0.057
		l-0.283,0.057h-1.843l-1.078-8.817h-1.757l-0.17-0.114h-2.808l-0.113,0.114l-2.125,8.562l0.113,0.057h-2.693l-0.17,0.142h-0.766
		l5.301-19.42h3.147l0.085-0.227L200.12,69.358z M199.978,72.93l-0.058,0.057h-1.615l-0.085-0.057l-1.104,4.479v0.511h3.998
		l-0.511-3.289l-0.085-1.275l-0.057-0.028l0.057-0.057l-0.113-0.142V72.93H199.978z"/>
	<path d="M210.382,89.005h-1.19l-0.057-0.057h-1.106V69.953l-0.227-0.17l0.255-0.17h2.126l0.112-0.113h1.476l3.657,10.376v-10.32
		l2.041-0.255h0.539l0.027,0.34c0,0.028,0,0.057-0.027,0.085h0.227v10.745l0.057,0.057l-0.057,0.057l0.057,0.028l-0.057,0.057
		l0.057,0.085v8.108h-1.36l-0.34-0.057l-0.171,0.057h-1.162l-4.876-13.722V89.005z"/>
	<path d="M224.216,72.477v14.09h4.848v-4.99l-0.086-1.049l-0.652-0.708h-2.098v-2.353l0.057-0.284h3.742
		c0.51,0,1.674,0.425,1.674,1.588v7.286c0,1.729-1.617,2.636-2.043,2.863c-0.027,0.028-0.057,0.057-0.084,0.057h-5.727
		c-0.767,0-2.099-0.766-2.099-1.701v-4.819l-0.057-0.114l0.113-0.057V71.909c0-0.992,1.134-2.268,2.863-2.268h5.104
		c0.596,0,1.758,0.369,1.758,2.296v2.098h-2.438l-0.059-1.587L224.216,72.477z"/>
	<path d="M238.418,69.273v7.314l0.143,0.17v3.941l0.113,0.113l-0.057,0.17v2.296l-0.057-0.057v0.057l-0.113-0.057h-3.289
		l-0.057-0.113v-9.469l0.111-0.17v-4.196L238.418,69.273L238.418,69.273z M235.811,85.574h2.891v0.879l-0.027-0.028l0.086,0.652
		v1.786l-0.059,0.113h-3.6v-3.459L235.811,85.574z"/>
</g>
<path fill="#9C85AB" d="M230.18,219.014c0-1.987-2.914-3.599-6.508-3.599c0,0-27.007-0.771-35.785-1.152
	c-29.582-1.284-102.815,2.617-137.164,1.703c-6.408-0.17-10.207,3.985-10.207,5.974c0,0-3.89,8.546-3.89,13.654
	c0,5.803-0.78,6.568-2.051,10.922c-1.065,3.647-1.396,13.18-1.396,13.18c0,1.988,2.917,3.688,6.508,3.6
	c10.218-0.253,66.992,3.36,77.674,3.36c17.373,0,46.076,4.29,59.463,1.195c0.757-0.175,1.965-0.42,3.383-0.685
	c0.373,2.48,2.183,17.305-5.934,27.309c-8.883,10.948,3.184,0.833,3.184,0.833s13.43-16.325,13.671-29.66
	c0.4-0.018,0.771-0.028,1.074-0.017c2.949,0.122,7.216-0.756,9.459-0.756c6.207,0,15.779-1.306,22.01-1.58
	c3.583-0.158,6.509-1.612,6.509-3.6c0,0,2.604-6.691,2.859-8.962C233.938,242.808,230.18,219.014,230.18,219.014z"/>
<g>
	<path d="M47.467,231.949h2.335v15.85h-2.063v-7.165h-2.88v7.165h-2.108v-15.578h2.245v6.576l2.449-0.113L47.467,231.949z"/>
	<path d="M53.385,232.312h2.154v11.746c0,0.68,0.68,1.156,1.088,1.156h2.517c0.363,0,0.612-0.521,0.68-1.043v-11.836h2.29v13.672
		c0,0.771-1.111,1.701-1.836,1.792h-5.034c-0.975,0-1.859-0.816-1.859-2.335v-3.65V232.312z"/>
	<path d="M73.02,232.221v2.063l-4.036,0.272c-1.065,0-1.655,0.612-1.655,0.952v3.65l0.114,0.091v4.807
		c0,1.02,0.726,1.406,1.179,1.406h4.49v2.335h-5.578c-0.726,0-2.494-0.862-2.494-2.199v-3.106l-0.091-0.091l0.045-0.045
		l-0.045-0.068l0.045-0.023l-0.045-0.136v-5.805l-0.113-0.068h0.045l-0.045-0.09v-1.429c0-1.021,1.61-2.154,2.154-2.154l1.995-0.249
		h1.27l0.091-0.114L73.02,232.221L73.02,232.221z"/>
	<path d="M80.933,231.949h2.335v15.85h-2.063v-7.165h-2.88v7.165h-2.108v-15.578h2.245v6.576l2.449-0.113L80.933,231.949z"/>
	<path d="M86.896,244.783h1.451l0.091,0.045l0.09-0.045l0.045,0.045h1.315v1.292l-0.521,1.337l-0.204,0.295l-0.726,0.749
		l-0.703,0.567l-0.635,0.09h-0.454l-0.091-0.227l0.045-0.272l0.182-0.34l0.204-0.612l-0.045-0.09l0.09-0.522l-0.136-0.385h0.045
		v-0.227l-0.045-0.045v-1.655H86.896z"/>
	<path d="M106.281,245.871v1.927h-6.848l0.34-10.317l0.114-0.068v-5.352h6.394v2.109h-4.217l-0.204,5.306l0.113,0.045h3.945v1.701
		h-4.104l-0.091,1.36l0.045,0.136l-0.045,0.272v2.948L106.281,245.871z"/>
	<path d="M109.16,232.47l2.426-0.271v8.435l-0.136,0.068v6.984l-1.474,0.113h-0.975L109.16,232.47z"/>
	<path d="M116.371,247.821h-0.952l-0.045-0.045h-0.884v-15.192l-0.182-0.136l0.204-0.136h1.701l0.091-0.091h1.179l2.925,8.299
		v-8.254l1.632-0.204h0.431l0.022,0.272c0,0.022,0,0.045-0.022,0.068h0.181v8.594l0.045,0.045l-0.045,0.045l0.045,0.022
		l-0.045,0.045l0.045,0.068v6.485h-1.088l-0.272-0.045l-0.136,0.045h-0.93l-3.9-10.974V247.821z"/>
	<path d="M132.31,247.799l-0.045-0.771l0.045-0.045l-0.045-0.136l0.045-0.091v-8.503l-0.045-0.204l0.045-0.068v-3.719l-0.045-0.113
		l0.045-0.023v-1.383h4.331l0.09,0.045h1.248c1.224,0,2.517,2.063,2.517,2.948v9.75c0,0.839-1.36,2.313-2.358,2.313H132.31z
		 M134.758,235.282l-0.068,0.045h-0.317v1.474l0.091,0.091h-0.045v0.385l0.045,0.045l-0.045,0.021l0.113,0.114v5.668l0.045,0.091
		v2.086l0.113,0.136h2.268l0.045-0.045h0.521l0.839-0.318h0.113v-4.489h-0.045l0.045-0.045l-0.159-0.227v-4.127l-0.136-0.521
		l-0.793-0.385H134.758z"/>
	<path d="M150.041,245.871v1.927h-6.848l0.34-10.317l0.114-0.068v-5.352h6.394v2.109h-4.217l-0.204,5.306l0.113,0.045h3.945v1.701
		h-4.104l-0.091,1.36l0.045,0.136l-0.045,0.272v2.948L150.041,245.871z"/>
	<path d="M159.427,240.701c0-0.567-0.68-0.703-1.225-0.748h-3.061c-1.746,0-2.245-1.134-2.245-1.633v-3.265
		c0-2.086,2.449-3.061,2.449-3.061h5.737v2.131h-4.853c-0.431,0-0.975,0.386-0.975,1.406v2.381h3.991
		c1.247,0,2.222,0.953,2.222,1.859v6.054c0,0.68-0.476,1.973-2.063,1.973h-6.417v-2.109h5.351c0.227,0,1.134-0.294,1.134-0.839
		L159.427,240.701z"/>
	<path d="M170.991,232.108l2.54,0.317v0.204l0.045,0.068l1.655,14.534l0.045,0.091l-0.295,0.476h-0.317l-0.045,0.045l-0.045-0.045
		l-0.227,0.045h-1.474l-0.861-7.052h-1.406l-0.136-0.091h-2.245l-0.091,0.091l-1.701,6.848l0.091,0.045h-2.154l-0.136,0.113h-0.612
		l4.24-15.532h2.517l0.068-0.181L170.991,232.108z M170.877,234.965l-0.045,0.045h-1.292l-0.068-0.045l-0.884,3.583v0.408h3.197
		l-0.408-2.63l-0.068-1.021l-0.045-0.022l0.045-0.045l-0.091-0.114v-0.159H170.877z"/>
	<path d="M183.801,240.701c0-0.567-0.68-0.703-1.225-0.748h-3.061c-1.746,0-2.245-1.134-2.245-1.633v-3.265
		c0-2.086,2.449-3.061,2.449-3.061h5.737v2.131h-4.853c-0.431,0-0.975,0.386-0.975,1.406v2.381h3.991
		c1.247,0,2.222,0.953,2.222,1.859v6.054c0,0.68-0.476,1.973-2.063,1.973h-6.417v-2.109h5.351c0.227,0,1.134-0.294,1.134-0.839
		L183.801,240.701z"/>
	<path d="M193.415,247.799v-13.446h-4.42v-1.655l-0.092-0.023v-0.25h8.799l0.091-0.272h1.155l0.567-0.045l0.068,0.408l0.067,0.771
		v1.088h-3.787v13.31l-0.067,0.113h-0.748l-0.091-0.045l-0.092,0.045L193.415,247.799L193.415,247.799z"/>
	<path d="M209.196,245.871v1.927h-6.849l0.34-10.317l0.114-0.068v-5.352h6.395v2.109h-4.218l-0.204,5.306l0.113,0.045h3.945v1.701
		h-4.104l-0.091,1.36l0.045,0.136l-0.045,0.272v2.948L209.196,245.871z"/>
	<path d="M214.456,247.799h-2.223v-15.578h6.508c1.77,0,2.246,1.383,2.246,2.472v4.218c0,0.907-0.84,1.836-1.543,1.836h-0.975
		l2.857,7.052h-2.631l-2.562-7.052h-1.724L214.456,247.799z M218.718,234.534h-4.331v4.013h0.227l0.114,0.136h3.99V234.534z"/>
	<path d="M226.652,232.04v5.85l0.115,0.136v3.152l0.09,0.091l-0.045,0.136v1.836l-0.045-0.045v0.045l-0.092-0.045h-2.629
		l-0.045-0.091v-7.573l0.091-0.136v-3.356H226.652z M224.567,245.077h2.314v0.703l-0.023-0.022l0.068,0.521v1.428l-0.045,0.091H224
		v-2.766L224.567,245.077z"/>
</g>
<path fill="#33C4E5" d="M55.288,372.818c0.389-2.641,1.397-8.225,1.397-10.452c0-8.376-1.397-31.961-1.397-31.961
	c0-3.26,3.245-5.902,7.247-5.902c0,0,108.993-3.995,141.93-1.89c9.773,0.625,39.843,1.89,39.843,1.89
	c4.002,0,7.248,2.643,7.248,5.902c0,0,4.184,39.016,3.186,52.009c-0.285,3.723-3.186,14.695-3.186,14.695
	c0,3.261-3.256,5.644-7.248,5.902c-6.938,0.45-20.73,2.706-27.642,2.706c-2.498,0-5.471-0.121-8.754-0.322
	c0.131,4.026-0.733,10.174-3.658,14.03c-7.553,9.958-22.063,27.963-33.112,30.495c0,0-2.543-0.03,1.325-2.009
	c3.865-1.979,11.108-11.495,23.238-31.187c1.112-1.805,2.494-8.104,0.33-12.249c-15.724-1.3-47.995-3.952-67.335-3.952
	c-11.896,0-54.789,2.074-66.165,2.488c-3.998,0.146-7.247-2.642-7.247-5.902C55.288,397.109,54.405,378.848,55.288,372.818z"/>
<g>
	<path d="M96.373,347.062c0-0.673-0.808-0.835-1.454-0.889h-3.636c-2.074,0-2.667-1.347-2.667-1.939v-3.878
		c0-2.478,2.909-3.636,2.909-3.636h6.814v2.532h-5.764c-0.512,0-1.158,0.458-1.158,1.669v2.828h4.74
		c1.481,0,2.639,1.131,2.639,2.208v7.19c0,0.808-0.565,2.343-2.451,2.343h-7.622v-2.505h6.356c0.269,0,1.347-0.35,1.347-0.996
		L96.373,347.062z"/>
	<path d="M112.152,336.99v2.451l-4.794,0.323c-1.266,0-1.966,0.727-1.966,1.131v4.336l0.134,0.108v5.709
		c0,1.212,0.862,1.67,1.4,1.67h5.333v2.774h-6.625c-0.862,0-2.962-1.023-2.962-2.612v-3.69l-0.108-0.107l0.054-0.054l-0.054-0.081
		l0.054-0.027l-0.054-0.162v-6.895l-0.135-0.081h0.054l-0.054-0.107v-1.697c0-1.212,1.912-2.559,2.559-2.559l2.37-0.296h1.508
		l0.107-0.134H112.152L112.152,336.99z"/>
	<path d="M121.548,336.666h2.774v18.825h-2.451v-8.51h-3.42v8.51h-2.505V336.99h2.666v7.81l2.909-0.135L121.548,336.666z"/>
	<path d="M130.943,352.933h6.221l-0.135,2.559h-8.807v-18.879h2.693v15.352L130.943,352.933z"/>
	<path d="M140.581,337.285l2.882-0.323v10.019l-0.162,0.081v8.295l-1.75,0.135h-1.158L140.581,337.285z"/>
	<path d="M161.344,355.195h-0.889l-0.323-0.054l-0.377,0.054h-1.023v-7.891l-0.054-0.269v-5.252l-2.962,3.636l-0.027,0.107
		l-2.128,2.478l-4.013-6.275v13.843l-0.081-0.054l-0.107,0.054l-0.539-0.161l-0.081,0.107l-1.724-0.107l-0.162-0.054v-3.232
		l0.054-0.054l-0.054-0.081v-11.931l-0.162-0.35v-2.774h0.27l0.404-0.134h2.29l3.986,6.49l2.693-3.905h0.081l2.074-2.963h2.854
		V355.195L161.344,355.195z"/>
	<path d="M179.41,355.195h-0.889l-0.323-0.054l-0.377,0.054h-1.023v-7.891l-0.054-0.269v-5.252l-2.962,3.636l-0.027,0.107
		l-2.128,2.478l-4.013-6.275v13.843l-0.081-0.054l-0.107,0.054l-0.539-0.161l-0.081,0.107l-1.724-0.107l-0.162-0.054v-3.232
		l0.054-0.054l-0.054-0.081v-11.931l-0.162-0.35v-2.774h0.27l0.404-0.134h2.29l3.986,6.49l2.693-3.905h0.081l2.074-2.963h2.854
		V355.195z"/>
	<path d="M190.932,353.202v2.289h-8.133l0.404-12.254l0.134-0.081v-6.355h7.595v2.504h-5.009l-0.242,6.302l0.135,0.054h4.687v2.02
		h-4.875l-0.108,1.616l0.054,0.162l-0.054,0.323v3.501L190.932,353.202z"/>
	<path d="M197.177,355.491h-2.64V336.99h7.729c2.101,0,2.667,1.643,2.667,2.936v5.009c0,1.077-0.997,2.181-1.832,2.181h-1.158
		l3.393,8.376h-3.123l-3.043-8.376h-2.047L197.177,355.491z M202.241,339.737h-5.145v4.767h0.27l0.135,0.162h4.74V339.737
		L202.241,339.737z"/>
	<path d="M74.591,372.127v13.385h4.605v-4.74l-0.081-0.997l-0.62-0.673h-1.993v-2.235l0.054-0.27h3.555
		c0.485,0,1.589,0.404,1.589,1.508v6.921c0,1.643-1.535,2.504-1.939,2.72c-0.027,0.027-0.054,0.054-0.081,0.054h-5.44
		c-0.727,0-1.993-0.727-1.993-1.616v-4.579l-0.054-0.108l0.108-0.054v-9.857c0-0.943,1.077-2.155,2.72-2.155h4.848
		c0.565,0,1.67,0.35,1.67,2.182v1.993h-2.316l-0.054-1.508L74.591,372.127z"/>
	<path d="M93.035,385.512v2.289h-8.133l0.404-12.254l0.134-0.081v-6.355h7.595v2.504h-5.009l-0.242,6.302l0.135,0.054h4.686v2.02
		H87.73l-0.108,1.616l0.054,0.162l-0.054,0.323v3.501L93.035,385.512z"/>
	<path d="M102.324,368.976h2.774v18.825h-2.451v-8.51h-3.42v8.51h-2.505V369.3h2.667v7.81l2.908-0.135L102.324,368.976z"/>
	<path d="M114.359,387.802v-15.971h-5.251v-1.966L109,369.838v-0.296h10.45l0.108-0.323h1.374l0.673-0.054l0.081,0.485l0.081,0.916
		v1.292h-4.498v15.809l-0.081,0.135h-0.889l-0.108-0.054l-0.108,0.054H114.359L114.359,387.802z"/>
	<path d="M128.333,369.353c-0.62,2.262-1.778,5.144-2.532,6.383l-1.508,0.188c0.593-1.589,1.293-4.39,1.589-6.329L128.333,369.353z"
		/>
	<path d="M138.484,379.372c0-0.673-0.808-0.835-1.454-0.889h-3.636c-2.074,0-2.667-1.347-2.667-1.939v-3.878
		c0-2.478,2.909-3.636,2.909-3.636h6.814v2.532h-5.764c-0.512,0-1.158,0.458-1.158,1.669v2.828h4.74
		c1.481,0,2.639,1.131,2.639,2.208v7.19c0,0.808-0.565,2.343-2.451,2.343h-7.622v-2.505h6.356c0.269,0,1.347-0.35,1.347-0.996
		L138.484,379.372z"/>
	<path d="M155.122,387.828h-1.131l-0.054-0.054h-1.05V369.73l-0.216-0.162l0.243-0.162h2.02l0.107-0.107h1.4l3.474,9.857v-9.803
		l1.939-0.242h0.512l0.027,0.323c0,0.027,0,0.054-0.027,0.081h0.215v10.207l0.054,0.054l-0.054,0.054l0.054,0.027l-0.054,0.054
		l0.054,0.081v7.702h-1.292l-0.323-0.054l-0.162,0.054h-1.104l-4.632-13.035V387.828z"/>
	<path d="M166.052,369.595l2.882-0.323v10.019l-0.162,0.081v8.295l-1.75,0.135h-1.158L166.052,369.595z"/>
	<path d="M186.815,387.505h-0.889l-0.323-0.054l-0.377,0.054h-1.023v-7.891l-0.054-0.27v-5.252l-2.962,3.636l-0.027,0.107
		l-2.128,2.478l-4.013-6.275v13.843l-0.081-0.054l-0.107,0.054l-0.539-0.161l-0.081,0.107l-1.724-0.107l-0.162-0.054v-3.232
		l0.054-0.054l-0.054-0.081v-11.931l-0.162-0.35v-2.774h0.27l0.404-0.134h2.29l3.986,6.49l2.693-3.905h0.081l2.074-2.963h2.854
		V387.505z"/>
	<path d="M204.881,387.505h-0.889l-0.322-0.054l-0.377,0.054h-1.023v-7.891l-0.055-0.27v-5.252l-2.961,3.636l-0.027,0.107
		l-2.128,2.478l-4.013-6.275v13.843l-0.082-0.054l-0.106,0.054l-0.539-0.161l-0.081,0.107l-1.724-0.107l-0.162-0.054v-3.232
		l0.054-0.054l-0.054-0.081v-11.931l-0.162-0.35v-2.774h0.271l0.404-0.134h2.289l3.986,6.49l2.693-3.905h0.08l2.074-2.963h2.854
		V387.505z"/>
	<path d="M216.404,385.512v2.289h-8.133l0.404-12.254l0.134-0.081v-6.355h7.595v2.504h-5.01l-0.242,6.302l0.136,0.054h4.686v2.02
		h-4.875l-0.107,1.616l0.053,0.162l-0.053,0.323v3.501L216.404,385.512z"/>
	<path d="M222.649,387.802h-2.639V369.3h7.728c2.102,0,2.668,1.643,2.668,2.936v5.009c0,1.077-0.998,2.181-1.832,2.181h-1.158
		l3.393,8.376h-3.123l-3.043-8.376h-2.046L222.649,387.802z M227.711,372.047h-5.143v4.767h0.271l0.135,0.162h4.74v-4.929H227.711z"
		/>
	<path d="M237.135,369.084v6.949l0.133,0.162v3.743l0.107,0.108l-0.053,0.162v2.182l-0.055-0.054v0.054l-0.107-0.054h-3.123
		l-0.055-0.107v-8.996l0.109-0.161v-3.986h3.043V369.084z M234.656,384.57h2.746v0.835l-0.027-0.027l0.082,0.62v1.696l-0.055,0.108
		h-3.42v-3.286L234.656,384.57z"/>
</g>
<g>
	<path fill="#9E779F" d="M230.002,922.891c0-3.129-2.916-5.664-6.51-5.664c0,0-27.007-1.215-35.785-1.813
		c-29.582-2.021-102.815,4.118-137.164,2.68c-6.408-0.269-10.206,6.272-10.206,9.4c0,0-3.891,13.447-3.891,21.484
		c0,9.133-0.78,10.336-2.051,17.188c-1.063,5.74-1.394,20.74-1.394,20.74c0,3.128,2.918,5.804,6.508,5.664
		c10.219-0.397,66.992,5.288,77.675,5.288c17.372,0,46.076,6.75,59.463,1.881c0.757-0.276,1.966-0.662,3.384-1.078
		c0.372,3.903,2.183,27.23-5.934,42.976c-8.884,17.228,3.183,1.312,3.183,1.312s13.43-25.689,13.671-46.674
		c0.399-0.029,0.771-0.045,1.073-0.026c2.949,0.192,7.217-1.189,9.459-1.189c6.207,0,15.779-2.056,22.01-2.486
		c3.583-0.249,6.509-2.536,6.509-5.664c0,0,2.604-10.53,2.859-14.104C233.758,960.333,230.002,922.891,230.002,922.891z"/>
	<g>
		<path d="M47.187,930.396l3.051-0.342v10.605l-0.171,0.086v8.781l-1.854,0.142h-1.226L47.187,930.396z"/>
		<path d="M62.041,940.745c0-0.713-0.855-0.884-1.54-0.941h-3.849c-2.195,0-2.822-1.426-2.822-2.053v-4.104
			c0-2.622,3.079-3.85,3.079-3.85h7.213v2.682h-6.101c-0.542,0-1.226,0.483-1.226,1.767v2.994h5.018
			c1.568,0,2.794,1.197,2.794,2.337v7.612c0,0.854-0.599,2.479-2.594,2.479h-8.068v-2.651h6.728c0.285,0,1.426-0.369,1.426-1.054
			L62.041,940.745z"/>
		<path d="M74.128,949.668v-16.905h-5.559v-2.082l-0.114-0.026v-0.314h11.062l0.114-0.342h1.454l0.713-0.057l0.085,0.512l0.086,0.97
			v1.369h-4.761v16.735l-0.086,0.142h-0.94l-0.114-0.057l-0.114,0.057L74.128,949.668L74.128,949.668z"/>
		<path d="M102.582,947.245v2.423h-8.61l0.427-12.972l0.143-0.085v-6.729h8.04v2.651h-5.303l-0.256,6.671l0.142,0.057h4.961v2.14
			h-5.16l-0.114,1.711l0.057,0.171l-0.057,0.342v3.706L102.582,947.245z"/>
		<path d="M114.385,940.745c0-0.713-0.855-0.884-1.54-0.941h-3.849c-2.195,0-2.822-1.426-2.822-2.053v-4.104
			c0-2.622,3.079-3.85,3.079-3.85h7.213v2.682h-6.101c-0.542,0-1.226,0.483-1.226,1.767v2.994h5.018
			c1.568,0,2.794,1.197,2.794,2.337v7.612c0,0.854-0.599,2.479-2.594,2.479h-8.068v-2.651h6.728c0.285,0,1.426-0.369,1.426-1.054
			L114.385,940.745z"/>
		<path d="M129.466,949.668l-0.057-0.97l0.057-0.058l-0.057-0.171l0.057-0.113v-10.691l-0.057-0.256l0.057-0.085v-4.676
			l-0.057-0.145l0.057-0.026v-1.739h5.445l0.114,0.057h1.568c1.54,0,3.165,2.594,3.165,3.706v12.26c0,1.055-1.71,2.907-2.965,2.907
			H129.466z M132.545,933.931l-0.085,0.059h-0.399v1.853l0.114,0.115h-0.057v0.484l0.057,0.057l-0.057,0.028l0.143,0.144v7.126
			l0.057,0.114v2.623l0.143,0.171h2.851l0.057-0.057h0.655l1.055-0.4h0.142v-5.646h-0.057l0.057-0.057l-0.199-0.284v-5.188
			l-0.171-0.656l-0.998-0.484L132.545,933.931L132.545,933.931z"/>
		<path d="M151.76,947.245v2.423h-8.609l0.427-12.972l0.143-0.085v-6.729h8.039v2.651h-5.302l-0.257,6.671l0.143,0.057h4.96v2.14
			h-5.16l-0.114,1.711l0.057,0.171l-0.057,0.342v3.706L151.76,947.245z"/>
		<path d="M157.777,949.698h-1.197l-0.057-0.059h-1.112v-19.102l-0.229-0.171l0.257-0.171h2.138l0.114-0.114h1.482l3.678,10.435
			v-10.378l2.052-0.256h0.542l0.028,0.342c0,0.029,0,0.058-0.028,0.086h0.228v10.807l0.057,0.057l-0.057,0.058l0.057,0.027
			l-0.057,0.058l0.057,0.086v8.152h-1.369l-0.342-0.058l-0.171,0.058h-1.169l-4.903-13.798L157.777,949.698L157.777,949.698z"/>
		<path d="M171.747,949.698h-1.197l-0.057-0.059h-1.112v-19.102l-0.228-0.171l0.256-0.171h2.138l0.114-0.114h1.483l3.677,10.435
			v-10.378l2.052-0.256h0.542l0.028,0.342c0,0.029,0,0.058-0.028,0.086h0.228v10.807l0.057,0.057l-0.057,0.058l0.057,0.027
			l-0.057,0.058l0.057,0.086v8.152h-1.369l-0.342-0.058l-0.171,0.058h-1.169l-4.903-13.798L171.747,949.698L171.747,949.698z"/>
		<path d="M191.79,949.668l-0.057-0.97l0.057-0.058l-0.057-0.171l0.057-0.113v-10.691l-0.057-0.256l0.057-0.085v-4.676l-0.057-0.145
			l0.057-0.026v-1.739h5.445l0.113,0.057h1.568c1.539,0,3.164,2.594,3.164,3.706v12.26c0,1.055-1.71,2.907-2.964,2.907H191.79z
			 M194.868,933.931l-0.085,0.059h-0.399v1.853l0.114,0.115h-0.058v0.484l0.058,0.057l-0.058,0.028l0.144,0.144v7.126l0.058,0.114
			v2.623l0.143,0.171h2.851l0.058-0.057h0.656l1.055-0.4h0.143v-5.646h-0.057l0.057-0.057l-0.199-0.284v-5.188l-0.172-0.656
			l-0.998-0.484L194.868,933.931L194.868,933.931z"/>
		<path d="M205.702,930.396l3.05-0.342v10.605l-0.17,0.086v8.781l-1.854,0.142h-1.226L205.702,930.396z"/>
		<path d="M220.755,947.245v2.423h-8.61l0.429-12.972l0.143-0.085v-6.729h8.04v2.651h-5.303l-0.256,6.671l0.143,0.057h4.96v2.14
			h-5.159l-0.115,1.711l0.058,0.171l-0.058,0.342v3.706L220.755,947.245z"/>
		<path d="M71.106,983.568h-0.941l-0.342-0.058l-0.399,0.058h-1.083v-8.354l-0.057-0.284v-5.561l-3.136,3.849l-0.029,0.114
			l-2.252,2.623l-4.248-6.644v14.653l-0.086-0.057l-0.114,0.057l-0.57-0.171l-0.085,0.114l-1.825-0.114l-0.171-0.057v-3.421
			l0.057-0.058l-0.057-0.086v-12.63l-0.171-0.37v-2.937h0.286l0.427-0.145h2.423l4.219,6.872l2.851-4.135h0.085l2.195-3.136h3.022
			L71.106,983.568L71.106,983.568z"/>
		<path d="M87.871,979.177l-0.114,1.196c0,2.339-1.71,3.422-2.737,3.422h-3.221l-0.057,0.114l-0.057-0.059l-0.114,0.059h-4.647
			c-1.169,0-2.195-1.938-2.195-2.793v-12.63c0-2.795,1.654-3.792,2.595-3.792h0.542l0.969-0.229l0.057,0.057l2.68-0.429h1.54
			c1.71,0,4.134,1.197,4.134,3.878H87.3v0.74L87.871,979.177z M80.059,959.392v3.136h-2.851v-2.31l-0.228-0.229v-0.599
			L80.059,959.392L80.059,959.392z M84.393,967.602l-1.768-1.055l-0.228,0.171h-2.48l-0.114,0.059l-0.028-0.059l-0.057,0.059h-0.57
			v-0.059H79.09l-1.282,1.057v2.108l0.057,0.028l-0.057,0.057l0.142,0.229v4.903l0.057,0.027l-0.057,0.086l0.057,0.114l-0.057,0.057
			l0.2,0.713v4.676l0.057,0.058v0.286l0.143,0.313l0.599,0.456h0.77l0.143-0.086h2.594l-0.228-0.313l0.77-0.113l0.057,0.37h0.884
			l0.599-0.771l0.313-0.6L84.393,967.602z M84.792,959.392l0.2,2.252l-0.2,0.884H81.94v-2.31l-0.228-0.229v-0.599L84.792,959.392
			L84.792,959.392z"/>
		<path d="M93.972,967.288v14.169h4.875v-5.017l-0.085-1.057l-0.655-0.713h-2.11v-2.366l0.057-0.285h3.764
			c0.513,0,1.682,0.43,1.682,1.598v7.327c0,1.738-1.625,2.65-2.053,2.88c-0.028,0.026-0.057,0.057-0.085,0.057h-5.758
			c-0.77,0-2.11-0.77-2.11-1.711v-4.846l-0.057-0.114l0.114-0.057v-10.437c0-0.998,1.141-2.28,2.879-2.28h5.132
			c0.599,0,1.768,0.37,1.768,2.311v2.109h-2.452l-0.057-1.598L93.972,967.288z"/>
		<path d="M107.799,981.172h6.586l-0.143,2.709h-9.322v-19.985h2.851v16.252L107.799,981.172z"/>
		<path d="M118.006,964.609l3.051-0.344v10.606l-0.171,0.085v8.781l-1.854,0.143h-1.226L118.006,964.609z"/>
		<path d="M134.771,964.295v2.594l-5.075,0.345c-1.34,0-2.082,0.768-2.082,1.196v4.589l0.143,0.114v6.044
			c0,1.282,0.912,1.769,1.482,1.769h5.645v2.937h-7.013c-0.913,0-3.136-1.083-3.136-2.765v-3.906l-0.114-0.114l0.057-0.058
			l-0.057-0.085l0.057-0.028l-0.057-0.171v-7.298l-0.143-0.087h0.057l-0.057-0.114v-1.796c0-1.283,2.024-2.709,2.708-2.709
			l2.509-0.313h1.597l0.114-0.144H134.771z"/>
		<path d="M144.719,963.952h2.938v19.929h-2.595v-9.009h-3.621v9.009h-2.651v-19.586h2.822v8.269l3.079-0.144L144.719,963.952z"/>
		<path d="M154.584,964.609c0.085,0.142,0.342,0.398,0.342,0.428v6.586l6.899-6.671h3.792l-7.155,7.012l5.53,11.975h-3.364
			l-0.685-1.768l-3.022-6.558h-1.967v8.325h-3.022v-19.329H154.584z"/>
		<path d="M177.621,981.457v2.424h-8.61l0.427-12.972l0.143-0.086v-6.729h8.04v2.652h-5.303l-0.257,6.671l0.143,0.057h4.96v2.139
			h-5.16l-0.114,1.712l0.057,0.17l-0.057,0.342v3.707L177.621,981.457z"/>
		<path d="M181.242,964.609l3.051-0.344v10.606l-0.171,0.085v8.781l-1.854,0.143h-1.226L181.242,964.609z"/>
		<path d="M193.386,983.881v-16.906h-5.56v-2.081l-0.114-0.027v-0.313h11.062l0.115-0.343h1.453l0.713-0.057l0.086,0.513l0.086,0.97
			v1.369h-4.762v16.734l-0.086,0.143h-0.939l-0.114-0.057l-0.114,0.057L193.386,983.881L193.386,983.881z"/>
		<path d="M207.985,964.068v7.354l0.143,0.171v3.963l0.114,0.114l-0.058,0.171v2.311l-0.057-0.058v0.058l-0.113-0.058h-3.309
			l-0.057-0.113v-9.522l0.113-0.171v-4.219H207.985L207.985,964.068z M205.362,980.459h2.908v0.885l-0.029-0.028l0.086,0.655v1.796
			l-0.057,0.114h-3.621v-3.478L205.362,980.459z"/>
	</g>
</g>
<g>
	<path fill="#06C38D" d="M46.353,1116.754c0.348-2.847,1.253-8.863,1.253-11.262c0-9.024-1.253-34.438-1.253-34.438
		c0-3.511,2.909-6.357,6.498-6.357c0,0,118.407-4.306,147.938-2.035c8.761,0.673,35.719,2.035,35.719,2.035
		c3.588,0,6.498,2.848,6.498,6.357c0,0,3.752,42.037,2.855,56.037c-0.256,4.012-2.855,15.835-2.855,15.835
		c0,3.513-2.92,6.081-6.498,6.36c-6.219,0.484-18.585,2.915-24.783,2.915c-2.24,0-4.904-0.131-7.848-0.347
		c0.118,4.339-0.656,10.962-3.279,15.116c-6.771,10.729-19.78,30.13-29.687,32.857c0,0-2.28-0.031,1.188-2.165
		c3.465-2.133,9.959-12.386,20.833-33.604c0.998-1.943,2.238-8.73,0.297-13.197c-14.098-1.4-43.028-5.293-60.37-5.293
		c-10.665,0-69.812,3.27-80.01,3.717c-3.585,0.156-6.498-2.849-6.498-6.36C46.353,1142.927,45.561,1123.25,46.353,1116.754z"/>
	<g>
		<path d="M71.256,1090.182l-0.121,1.267c0,2.469-1.807,3.613-2.891,3.613h-3.403l-0.061,0.12l-0.06-0.061l-0.121,0.061h-4.908
			c-1.235,0-2.319-2.049-2.319-2.952v-13.34c0-2.951,1.747-4.005,2.74-4.005h0.572l1.024-0.241l0.06,0.062l2.831-0.452h1.626
			c1.807,0,4.367,1.266,4.367,4.096h0.06v0.783L71.256,1090.182z M67.583,1077.957l-1.867-1.115l-0.241,0.183h-2.62l-0.121,0.06
			l-0.03-0.06l-0.061,0.06h-0.602v-0.06h-0.06l-1.355,1.112v2.229l0.06,0.03l-0.06,0.06l0.151,0.241v5.18l0.06,0.03l-0.06,0.09
			l0.06,0.121l-0.06,0.061l0.211,0.754v4.938l0.06,0.063v0.3l0.15,0.332l0.632,0.48h0.813l0.151-0.09h2.74l-0.241-0.332l0.813-0.12
			l0.06,0.393h0.933l0.633-0.813l0.331-0.633L67.583,1077.957z"/>
		<path d="M81.796,1074.103h3.102v21.05h-2.74v-9.517h-3.825v9.517h-2.8v-20.688h2.981v8.733l3.252-0.15L81.796,1074.103z"/>
		<path d="M101.101,1095.182h-1.265l-0.061-0.061h-1.174v-20.176l-0.241-0.183l0.271-0.18h2.259l0.12-0.121h1.566l3.885,11.021
			v-10.962l2.168-0.271h0.572l0.03,0.362c0,0.028,0,0.06-0.03,0.09h0.241v11.413l0.06,0.061l-0.06,0.061l0.06,0.029l-0.06,0.061
			l0.06,0.091v8.613h-1.445l-0.361-0.062l-0.181,0.062h-1.234l-5.18-14.576V1095.182z"/>
		<path d="M122.181,1092.592v2.561h-9.094l0.452-13.702l0.151-0.09v-7.107h8.492v2.801h-5.601l-0.271,7.047l0.151,0.061h5.239v2.259
			h-5.45l-0.121,1.809l0.06,0.18l-0.06,0.361v3.915L122.181,1092.592z"/>
		<path d="M126.006,1074.794l3.222-0.36v11.202l-0.18,0.09v9.275l-1.958,0.15h-1.295L126.006,1074.794z"/>
		<path d="M135.583,1095.182h-1.265l-0.06-0.061h-1.175v-20.176l-0.241-0.183l0.271-0.18h2.258l0.121-0.121h1.565l3.885,11.021
			v-10.962l2.168-0.271h0.572l0.03,0.362c0,0.028,0,0.06-0.03,0.09h0.241v11.413l0.061,0.061l-0.061,0.061l0.061,0.029l-0.061,0.061
			l0.061,0.091v8.613h-1.445l-0.361-0.062l-0.181,0.062h-1.234l-5.18-14.576V1095.182z"/>
		<path d="M148.05,1091.147h1.927l0.12,0.06l0.121-0.06l0.06,0.06h1.747v1.717l-0.692,1.776l-0.271,0.392l-0.964,0.993l-0.933,0.754
			l-0.843,0.12h-0.603l-0.121-0.302l0.061-0.36l0.241-0.452l0.271-0.813l-0.06-0.121l0.12-0.692l-0.18-0.512h0.06v-0.302
			l-0.06-0.061L148.05,1091.147L148.05,1091.147z"/>
		<path d="M167.475,1095.182h-1.265l-0.061-0.061h-1.174v-20.176l-0.241-0.183l0.271-0.18h2.259l0.12-0.121h1.566l3.885,11.021
			v-10.962l2.168-0.271h0.572l0.03,0.362c0,0.028,0,0.06-0.03,0.09h0.241v11.413l0.06,0.061l-0.06,0.061l0.06,0.029l-0.06,0.061
			l0.06,0.091v8.613h-1.445l-0.361-0.062l-0.181,0.062h-1.234l-5.18-14.576V1095.182L167.475,1095.182z"/>
		<path d="M179.702,1074.794l3.222-0.36v11.202l-0.181,0.09v9.275l-1.957,0.15h-1.295L179.702,1074.794z"/>
		<path d="M197.409,1074.463v2.74l-5.36,0.362c-1.416,0-2.198,0.813-2.198,1.265v4.848l0.15,0.12v6.385
			c0,1.354,0.964,1.867,1.566,1.867h5.961v3.103h-7.407c-0.964,0-3.313-1.146-3.313-2.922v-4.124l-0.119-0.121l0.06-0.062
			l-0.06-0.09l0.06-0.03l-0.06-0.182v-7.709l-0.151-0.09h0.06l-0.06-0.12v-1.896c0-1.355,2.138-2.86,2.86-2.86l2.649-0.331h1.687
			l0.121-0.151L197.409,1074.463L197.409,1074.463z"/>
		<path d="M207.918,1074.103h3.102v21.05h-2.74v-9.517h-3.824v9.517h-2.801v-20.688h2.981v8.733l3.253-0.15L207.918,1074.103z"/>
		<path d="M221.38,1095.152v-17.857h-5.872v-2.198l-0.121-0.029v-0.332h11.683l0.121-0.361h1.537l0.752-0.061l0.09,0.542
			l0.092,1.024v1.443h-5.03v17.679l-0.091,0.149h-0.994l-0.12-0.061l-0.12,0.061L221.38,1095.152L221.38,1095.152z"/>
		<path d="M66.227,1121.865c0-0.754-0.903-0.936-1.626-0.995h-4.065c-2.318,0-2.981-1.505-2.981-2.168v-4.336
			c0-2.771,3.252-4.065,3.252-4.065h7.619v2.831H61.98c-0.572,0-1.295,0.512-1.295,1.866v3.162h5.3c1.656,0,2.951,1.266,2.951,2.47
			v8.04c0,0.904-0.632,2.62-2.74,2.62h-8.522v-2.801h7.107c0.301,0,1.506-0.393,1.506-1.114L66.227,1121.865z"/>
		<path d="M83.875,1110.603v2.739l-5.36,0.361c-1.416,0-2.199,0.813-2.199,1.266v4.85l0.151,0.12v6.384
			c0,1.354,0.964,1.866,1.566,1.866h5.962v3.103h-7.408c-0.964,0-3.313-1.146-3.313-2.921v-4.126l-0.12-0.12l0.06-0.061l-0.06-0.091
			l0.06-0.03l-0.06-0.181v-7.709l-0.151-0.09h0.06l-0.06-0.121v-1.896c0-1.354,2.138-2.86,2.86-2.86l2.65-0.332h1.688l0.12-0.15
			H83.875L83.875,1110.603z"/>
		<path d="M94.384,1110.24h3.102v21.05h-2.74v-9.517h-3.825v9.517h-2.8v-20.688h2.981v8.731l3.252-0.149L94.384,1110.24z"/>
		<path d="M115.736,1126.322l-0.12,1.265c0,2.47-1.807,3.613-2.891,3.613h-3.403l-0.06,0.121l-0.061-0.062l-0.121,0.062h-4.908
			c-1.235,0-2.319-2.048-2.319-2.951v-13.34c0-2.951,1.747-4.006,2.74-4.006h0.572l1.023-0.24l0.061,0.06l2.831-0.452h1.626
			c1.807,0,4.366,1.267,4.366,4.097h0.06v0.782L115.736,1126.322z M112.063,1114.095l-1.867-1.113l-0.241,0.181h-2.62l-0.121,0.061
			l-0.03-0.061l-0.06,0.061h-0.603v-0.061h-0.06l-1.355,1.115v2.228l0.061,0.03l-0.061,0.061l0.151,0.241v5.179l0.06,0.03
			l-0.06,0.09l0.06,0.121l-0.06,0.062l0.211,0.752v4.938l0.06,0.061v0.302l0.15,0.33l0.633,0.482h0.813l0.15-0.091h2.74
			l-0.241-0.331l0.813-0.12l0.06,0.392h0.934l0.633-0.813l0.331-0.633L112.063,1114.095z"/>
		<path d="M122.242,1131.321h-1.265l-0.061-0.062h-1.174v-20.176l-0.241-0.181l0.271-0.182h2.259l0.12-0.121h1.566l3.885,11.021
			v-10.961l2.168-0.271h0.572l0.03,0.361c0,0.031,0,0.061-0.03,0.091h0.241v11.413l0.06,0.061l-0.06,0.062l0.06,0.029l-0.06,0.061
			l0.06,0.09v8.613h-1.445l-0.361-0.062l-0.181,0.062h-1.234l-5.18-14.575V1131.321z"/>
		<path d="M164.221,1110.301c-0.06,0.15-0.09,0.393-0.09,0.422l0.03,0.029l-4.728,20.538h-2.681l-3.131-9.667l-0.061-0.06
			l-4.186,9.666l0.03,0.061h-2.891l-3.734-20.598h3.252l2.5,15.177l3.614-8.763h3.282l2.59,8.01l3.252-14.815H164.221
			L164.221,1110.301z"/>
		<path d="M168.047,1110.934l3.222-0.361v11.202l-0.18,0.092v9.272l-1.958,0.151h-1.295L168.047,1110.934z"/>
		<path d="M183.947,1128.731v2.56h-9.095l0.452-13.702l0.151-0.09v-7.107h8.492v2.802h-5.601l-0.271,7.047l0.151,0.061h5.24v2.259
			h-5.451l-0.121,1.807l0.061,0.182l-0.061,0.361v3.914L183.947,1128.731z"/>
		<path d="M187.622,1131.29l-0.061-1.024l0.061-0.06l-0.061-0.182l0.061-0.12v-11.292l-0.061-0.271l0.061-0.09v-4.938l-0.061-0.151
			l0.061-0.029v-1.837h5.751l0.121,0.061h1.655c1.627,0,3.344,2.739,3.344,3.914v12.949c0,1.113-1.807,3.071-3.133,3.071
			L187.622,1131.29L187.622,1131.29z M190.874,1114.668l-0.09,0.06h-0.422v1.959l0.119,0.119h-0.06v0.513l0.06,0.061l-0.06,0.029
			l0.151,0.151v7.527l0.06,0.12v2.771l0.151,0.182h3.011l0.06-0.062h0.693l1.114-0.422h0.149v-5.962h-0.06l0.06-0.061l-0.209-0.302
			v-5.48l-0.181-0.691l-1.054-0.512H190.874z"/>
		<path d="M211.171,1128.731v2.56h-9.094l0.452-13.702l0.15-0.09v-7.107h8.492v2.802h-5.602l-0.271,7.047l0.151,0.061h5.238v2.259
			h-5.449l-0.121,1.807l0.061,0.182l-0.061,0.361v3.914L211.171,1128.731z"/>
		<path d="M218.158,1131.29h-2.951v-20.688h8.644c2.349,0,2.98,1.838,2.98,3.282v5.602c0,1.204-1.113,2.438-2.047,2.438h-1.296
			l3.794,9.365h-3.493l-3.403-9.365h-2.289L218.158,1131.29z M223.819,1113.673h-5.75v5.331h0.301l0.15,0.181h5.301v-5.512H223.819z
			"/>
		<path d="M234.359,1110.362v7.77l0.152,0.181v4.187l0.119,0.12l-0.061,0.181v2.438l-0.059-0.061v0.061l-0.121-0.061h-3.494
			l-0.059-0.12v-10.059l0.119-0.181v-4.456H234.359z M231.59,1127.676h3.07v0.935l-0.029-0.03l0.09,0.692v1.897l-0.061,0.12h-3.824
			v-3.674L231.59,1127.676z"/>
	</g>
</g>
<g>
	<path fill="#9C85AB" d="M16.416,1417.602c0.413-2.823,1.48-8.789,1.48-11.17c0-8.952-1.48-27.757-1.48-27.757
		c0-3.482,3.438-6.309,7.678-6.309c0,0,143.582-4.27,178.478-2.02c10.354,0.668,42.212,2.02,42.212,2.02
		c4.24,0,7.68,2.825,7.68,6.309c0,0,4.432,35.297,3.375,49.182c-0.303,3.979-3.375,15.704-3.375,15.704
		c0,3.484-3.451,6.032-7.68,6.309c-7.349,0.48-21.962,2.893-29.284,2.893c-2.646,0-5.795-0.129-9.274-0.346
		c0.139,4.305-0.777,10.873-3.875,14.993c-8.004,10.644-18.746,29.884-30.452,32.591c0,0-2.694-0.031,1.404-2.147
		c4.095-2.116,7.138-12.284,19.988-33.328c1.181-1.929,2.644-8.661,0.349-13.092c-16.657-1.388-50.848-5.25-71.338-5.25
		c-12.604,0-86.154,3.245-98.207,3.688c-4.235,0.154-7.678-2.823-7.678-6.309C16.416,1443.561,15.48,1424.047,16.416,1417.602z"/>
	<g>
		<path d="M30.171,1386.146h2.637v17.897h-2.33v-8.092h-3.252v8.092h-2.381v-17.59h2.535v7.424l2.765-0.127L30.171,1386.146z"/>
		<path d="M39.387,1404.045h-2.509v-17.591h7.349c1.997,0,2.535,1.562,2.535,2.791v4.763c0,1.022-0.947,2.073-1.741,2.073h-1.101
			l3.226,7.964h-2.97l-2.893-7.964h-1.946L39.387,1404.045z M44.201,1389.065H39.31v4.531h0.256l0.128,0.153h4.507V1389.065z"/>
		<path d="M64.092,1403.764h-0.845l-0.307-0.053l-0.359,0.053h-0.973v-7.502l-0.051-0.258v-4.992l-2.816,3.457l-0.026,0.102
			l-2.022,2.355l-3.815-5.965v13.16l-0.077-0.052l-0.102,0.052l-0.512-0.154l-0.077,0.104l-1.639-0.104l-0.154-0.051v-3.072
			l0.051-0.051l-0.051-0.076v-11.345l-0.154-0.332v-2.639h0.256l0.384-0.127h2.176l3.79,6.17l2.561-3.713h0.077l1.972-2.816h2.714
			L64.092,1403.764L64.092,1403.764z"/>
		<path d="M70.516,1404.12h-2.791v-18.102h6.708c0.769,0,2.817,0.741,2.817,2.481l0.051,0.181l-0.179,4.991
			c-0.153,1.64-1.664,2.127-2.202,2.127h-2.151l-0.973-0.104v-0.051h-1.254L70.516,1404.12z M70.516,1393.571h3.226
			c0,0,0.871-0.18,0.871-0.998v-3.072c0-0.87-0.973-0.975-0.973-1.024h-3.124V1393.571z"/>
		<path d="M89.819,1387.633l-0.051,0.051h0.051v0.102l-0.051,0.078l-0.077,1.049h-6.273v4.226h5.224v2.073h-5.198l-0.154,0.052
			l-0.051,0.129l-0.051,0.024v8.654H80.78v-17.104h8.808L89.819,1387.633z"/>
		<path d="M96.679,1401.305l0.179,2.022l-0.179,0.793h-3.354v-2.073l-0.205-0.205v-0.537H96.679z"/>
		<path d="M125.404,1386.198c-0.051,0.127-0.077,0.332-0.077,0.357l0.026,0.024l-4.02,17.463h-2.279l-2.663-8.219l-0.051-0.053
			l-3.559,8.221l0.025,0.051h-2.458l-3.175-17.514h2.765l2.125,12.904l3.072-7.451h2.791l2.202,6.811l2.766-12.596L125.404,1386.198
			L125.404,1386.198z"/>
		<path d="M140.276,1399.819l-0.103,1.074c0,2.1-1.536,3.071-2.458,3.071h-2.893l-0.051,0.104l-0.051-0.051l-0.103,0.051h-4.173
			c-1.05,0-1.972-1.742-1.972-2.51v-11.343c0-2.51,1.485-3.405,2.33-3.405h0.486l0.871-0.205l0.051,0.051l2.407-0.383H136
			c1.536,0,3.712,1.074,3.712,3.481h0.051v0.666L140.276,1399.819z M137.153,1389.424l-1.588-0.947l-0.205,0.154h-2.228
			l-0.103,0.051l-0.025-0.051l-0.051,0.051h-0.512v-0.051h-0.051l-1.152,0.946v1.896l0.051,0.024l-0.051,0.052l0.128,0.205v4.403
			l0.051,0.025l-0.051,0.078l0.051,0.102l-0.051,0.052l0.179,0.641v4.199l0.051,0.051v0.256l0.128,0.281l0.538,0.41h0.691
			l0.128-0.076h2.33l-0.205-0.281l0.691-0.104l0.051,0.334h0.794l0.538-0.691l0.282-0.539L137.153,1389.424z"/>
		<path d="M158.733,1396.03c0-0.641-0.768-0.795-1.383-0.846h-3.457c-1.972,0-2.535-1.281-2.535-1.844v-3.688
			c0-2.354,2.765-3.455,2.765-3.455h6.478v2.406h-5.479c-0.486,0-1.101,0.436-1.101,1.588v2.688h4.506
			c1.408,0,2.509,1.075,2.509,2.1v6.836c0,0.771-0.538,2.229-2.33,2.229h-7.246v-2.381h6.042c0.256,0,1.28-0.334,1.28-0.947
			L158.733,1396.03z"/>
		<path d="M176.295,1399.819l-0.103,1.074c0,2.1-1.536,3.071-2.458,3.071h-2.893l-0.051,0.104l-0.051-0.051l-0.103,0.051h-4.173
			c-1.05,0-1.972-1.742-1.972-2.51v-11.343c0-2.51,1.485-3.405,2.33-3.405h0.486l0.871-0.205l0.051,0.051l2.407-0.383h1.383
			c1.536,0,3.712,1.074,3.712,3.481h0.051v0.666L176.295,1399.819z M173.171,1389.424l-1.588-0.947l-0.205,0.154h-2.228
			l-0.103,0.051l-0.025-0.051l-0.051,0.051h-0.512v-0.051h-0.051l-1.152,0.946v1.896l0.051,0.024l-0.051,0.052l0.128,0.205v4.403
			l0.051,0.025l-0.051,0.078l0.051,0.102l-0.051,0.052l0.179,0.641v4.199l0.051,0.051v0.256l0.128,0.281l0.538,0.41h0.691
			l0.128-0.076h2.33l-0.205-0.281l0.691-0.104l0.051,0.334h0.794l0.538-0.691l0.282-0.539L173.171,1389.424z"/>
		<path d="M182.079,1401.61h5.915l-0.128,2.434h-8.373v-17.948h2.561v14.594L182.079,1401.61z"/>
		<path d="M193.651,1401.61h5.914l-0.127,2.434h-8.373v-17.948h2.561v14.594L193.651,1401.61z"/>
		<path d="M210.417,1404.045l-0.051-0.871l0.051-0.052l-0.051-0.153l0.051-0.103v-9.602l-0.051-0.23l0.051-0.078v-4.198
			l-0.051-0.127l0.051-0.025v-1.563h4.892l0.102,0.052h1.408c1.383,0,2.842,2.33,2.842,3.33v11.01c0,0.947-1.537,2.61-2.664,2.61
			L210.417,1404.045L210.417,1404.045z M213.183,1389.909l-0.076,0.054h-0.359v1.663l0.104,0.103H212.8v0.436l0.051,0.052
			l-0.051,0.024l0.127,0.129v6.4l0.053,0.104v2.355l0.127,0.152h2.561l0.051-0.052h0.59l0.947-0.356h0.127v-5.07h-0.051l0.051-0.051
			l-0.178-0.256v-4.66l-0.154-0.59l-0.896-0.437H213.183z"/>
		<path d="M230.028,1386.325l2.869,0.359v0.229l0.051,0.076l1.869,16.412l0.051,0.103l-0.334,0.538h-0.357l-0.051,0.052
			l-0.051-0.052l-0.256,0.052h-1.666l-0.973-7.963h-1.588l-0.152-0.103h-2.535l-0.104,0.103l-1.92,7.731l0.104,0.051h-2.434
			l-0.152,0.13h-0.691l4.787-17.539h2.842l0.078-0.205L230.028,1386.325z M229.901,1389.553l-0.051,0.051h-1.459l-0.078-0.051
			l-0.998,4.045v0.461h3.609l-0.461-2.971l-0.076-1.152l-0.053-0.025l0.053-0.051l-0.104-0.127v-0.18H229.901L229.901,1389.553z"/>
		<path d="M244.492,1396.03c0-0.641-0.77-0.795-1.383-0.846h-3.455c-1.974,0-2.536-1.281-2.536-1.844v-3.688
			c0-2.354,2.765-3.455,2.765-3.455h6.477v2.406h-5.479c-0.484,0-1.1,0.436-1.1,1.588v2.688h4.506c1.406,0,2.508,1.075,2.508,2.1
			v6.836c0,0.771-0.537,2.229-2.33,2.229h-7.245v-2.381h6.042c0.256,0,1.279-0.334,1.279-0.947L244.492,1396.03z"/>
		<path d="M42.203,1434.79h-1.075l-0.051-0.051h-0.999v-17.156l-0.205-0.151l0.23-0.154h1.92l0.103-0.102h1.332l3.303,9.37v-9.319
			l1.843-0.23h0.487l0.025,0.308c0,0.024,0,0.051-0.025,0.075h0.205v9.705l0.051,0.052l-0.051,0.051l0.051,0.024l-0.051,0.054
			l0.051,0.076v7.321h-1.229l-0.307-0.051l-0.154,0.051h-1.05l-4.404-12.393V1434.79z"/>
		<path d="M64.219,1430.54l-0.103,1.074c0,2.101-1.536,3.072-2.458,3.072h-2.893l-0.051,0.104l-0.051-0.051l-0.103,0.051h-4.173
			c-1.05,0-1.972-1.741-1.972-2.51v-11.342c0-2.51,1.485-3.406,2.33-3.406h0.486l0.871-0.205l0.051,0.052l2.407-0.384h1.383
			c1.536,0,3.712,1.074,3.712,3.482h0.051v0.666L64.219,1430.54z M61.097,1420.144l-1.588-0.947l-0.205,0.154h-2.228l-0.103,0.051
			l-0.025-0.051l-0.051,0.051h-0.512v-0.051h-0.051l-1.152,0.947v1.895l0.051,0.025l-0.051,0.051l0.128,0.205v4.404l0.051,0.024
			l-0.051,0.078l0.051,0.103l-0.051,0.051l0.179,0.641v4.199l0.051,0.051v0.256l0.128,0.281l0.538,0.41h0.691l0.128-0.076h2.33
			l-0.205-0.281l0.691-0.104l0.051,0.334h0.794l0.538-0.691l0.282-0.539L61.097,1420.144z"/>
		<path d="M76.661,1417.176v2.33l-4.558,0.307c-1.203,0-1.869,0.691-1.869,1.074v4.123l0.128,0.104v5.428
			c0,1.152,0.819,1.586,1.331,1.586h5.07v2.64h-6.299c-0.819,0-2.816-0.974-2.816-2.484v-3.508l-0.103-0.103l0.051-0.051
			l-0.051-0.078l0.051-0.024l-0.051-0.154v-6.555l-0.128-0.076h0.051l-0.051-0.103v-1.613c0-1.151,1.818-2.434,2.433-2.434
			l2.253-0.281h1.434l0.103-0.127H76.661L76.661,1417.176z"/>
		<path d="M85.594,1416.866h2.637v17.898h-2.33v-8.093h-3.252v8.093h-2.381v-17.591h2.535v7.425l2.765-0.127L85.594,1416.866z"/>
		<path d="M105.434,1416.866h2.637v17.898h-2.33v-8.093h-3.252v8.093h-2.381v-17.591h2.535v7.425l2.765-0.127L105.434,1416.866z"/>
		<path d="M111.96,1417.456l2.74-0.307v9.522l-0.153,0.078v7.886l-1.665,0.129h-1.101L111.96,1417.456z"/>
		<path d="M120.102,1434.79h-1.075l-0.051-0.051h-0.999v-17.156l-0.205-0.151l0.23-0.154h1.92l0.103-0.102h1.332l3.303,9.37v-9.319
			l1.843-0.23h0.487l0.025,0.308c0,0.024,0,0.051-0.025,0.075h0.205v9.705l0.051,0.052l-0.051,0.051l0.051,0.024l-0.051,0.054
			l0.051,0.076v7.321h-1.229l-0.307-0.051l-0.154,0.051h-1.05l-4.404-12.393V1434.79L120.102,1434.79z"/>
		<path d="M139.764,1418.353l-0.051,0.051h0.051v0.103l-0.051,0.078l-0.077,1.049h-6.273v4.225h5.224v2.074h-5.198l-0.154,0.051
			l-0.051,0.129l-0.051,0.025v8.654h-2.407v-17.104h8.808L139.764,1418.353z"/>
		<path d="M143.167,1417.276h2.433v13.264c0,0.769,0.768,1.306,1.229,1.306h2.842c0.41,0,0.691-0.588,0.768-1.178v-13.365h2.586
			v15.438c0,0.871-1.254,1.92-2.074,2.023h-5.684c-1.101,0-2.1-0.922-2.1-2.64v-4.121V1417.276L143.167,1417.276z M147.264,1412.771
			v2.815h-2.561v-2.073l-0.205-0.205v-0.537H147.264L147.264,1412.771z M151.515,1412.771l0.179,2.021l-0.179,0.795h-2.561v-2.073
			l-0.205-0.205v-0.537H151.515L151.515,1412.771z"/>
		<path d="M161.856,1416.866h2.637v17.898h-2.33v-8.093h-3.252v8.093h-2.381v-17.591h2.535v7.425l2.765-0.127L161.856,1416.866z"/>
		<path d="M171.071,1434.766h-2.509v-17.59h7.349c1.997,0,2.535,1.561,2.535,2.791v4.762c0,1.022-0.947,2.074-1.741,2.074h-1.101
			l3.226,7.963h-2.97l-2.893-7.963h-1.946L171.071,1434.766z M175.885,1419.786h-4.891v4.531h0.256l0.128,0.154h4.507V1419.786z"/>
		<path d="M189.555,1432.588v2.178h-7.732l0.384-11.65l0.128-0.076v-6.043h7.221v2.381h-4.763l-0.23,5.992l0.128,0.051h4.455v1.92
			h-4.633l-0.103,1.537l0.051,0.152l-0.051,0.309v3.328L189.555,1432.588z"/>
		<path d="M194.956,1434.79h-1.075l-0.051-0.051h-0.999v-17.156l-0.205-0.151l0.23-0.154h1.92l0.103-0.102h1.332l3.304,9.37v-9.319
			l1.842-0.23h0.487l0.025,0.308c0,0.024,0,0.051-0.025,0.075h0.205v9.705l0.052,0.052l-0.052,0.051l0.052,0.024l-0.052,0.054
			l0.052,0.076v7.321h-1.229l-0.308-0.051l-0.153,0.051h-1.05l-4.404-12.393V1434.79L194.956,1434.79z"/>
	</g>
</g>
<g>
	<path fill="#AACC52" d="M254.387,1552.057c-1.355-9.731-1.355-18.071-11.527-22.938c-6.102-3.474-22.558-8.9-29.313-9.338
		c-30.758-2-54.697,0.229-85.211,2.313c-29.159,2.086-51.202,3.024-80.79,6.831c-6.745,0.868-22.354,8.533-27.78,14.093
		c-5.424,5.562-3.391,15.291-3.391,22.938c0,0,1.886,13.079,4.745,17.375c11.34,17.044,21.701,22.937,41.367,23.63
		c36.694,1.276,70.072,1.646,106.768,1.463c8.967,0.878,10.896,6.628,10.051,15.03c0.481,6.86-10.569,19.138-8.328,25.396
		c2.072,5.785,18.636-34.156,24.648-40.586c1.777-1.9,3.791-2.451,5.094-2.826c9.557-2.74,16.502-2.406,25.865-1.949
		c10.174,0,16.953,2.084,24.412-6.951C258.455,1585.416,255.742,1565.261,254.387,1552.057z"/>
</g>
<g>
	<path d="M36.52,1558.294l-0.047-0.802l0.047-0.047l-0.047-0.143l0.047-0.094v-8.841l-0.047-0.212l0.047-0.071v-3.866l-0.047-0.118
		l0.047-0.022v-1.438h4.503l0.094,0.047h1.297c1.273,0,2.617,2.146,2.617,3.064v10.138c0,0.872-1.415,2.404-2.452,2.404
		L36.52,1558.294L36.52,1558.294z M39.065,1545.281l-0.071,0.048h-0.33v1.532l0.094,0.094h-0.047v0.401l0.047,0.047l-0.047,0.022
		l0.118,0.118v5.895l0.047,0.095v2.169l0.118,0.141h2.357l0.047-0.047h0.542l0.873-0.33h0.118v-4.668h-0.047l0.047-0.047
		l-0.165-0.235v-4.291l-0.142-0.542l-0.825-0.4L39.065,1545.281L39.065,1545.281z"/>
	<path d="M54.581,1541.981l2.641,0.329v0.212l0.047,0.07l1.721,15.111l0.047,0.095l-0.306,0.495H58.4l-0.047,0.047l-0.047-0.047
		l-0.235,0.047h-1.533l-0.896-7.331h-1.462l-0.141-0.095h-2.334l-0.094,0.095l-1.768,7.119l0.094,0.047h-2.24l-0.142,0.118h-0.636
		l4.408-16.148h2.617l0.071-0.188L54.581,1541.981z M54.462,1544.95l-0.047,0.048h-1.344L53,1544.95l-0.919,3.726v0.424h3.324
		l-0.424-2.733l-0.071-1.062l-0.047-0.024l0.047-0.047l-0.094-0.117v-0.166H54.462L54.462,1544.95z"/>
	<path d="M67.903,1550.915c0-0.59-0.708-0.73-1.273-0.778h-3.183c-1.815,0-2.333-1.179-2.333-1.696v-3.396
		c0-2.169,2.546-3.183,2.546-3.183h5.964v2.216H64.58c-0.448,0-1.014,0.401-1.014,1.462v2.476h4.149c1.297,0,2.311,0.99,2.311,1.934
		v6.295c0,0.707-0.495,2.051-2.146,2.051h-6.671v-2.192h5.563c0.236,0,1.179-0.307,1.179-0.871L67.903,1550.915z"/>
	<path d="M93.157,1558.034h-0.778l-0.283-0.047l-0.33,0.047H90.87v-6.907l-0.047-0.235v-4.598l-2.593,3.184l-0.023,0.095
		l-1.862,2.169l-3.513-5.493v12.117l-0.071-0.048l-0.094,0.048l-0.472-0.142l-0.071,0.094l-1.509-0.094l-0.141-0.048v-2.829
		l0.047-0.047l-0.047-0.07v-10.443l-0.142-0.307v-2.429h0.236l0.354-0.118h2.004l3.489,5.683l2.358-3.418h0.07l1.815-2.595h2.499
		L93.157,1558.034L93.157,1558.034z"/>
	<path d="M102.873,1541.981l2.641,0.329v0.212l0.047,0.07l1.721,15.111l0.047,0.095l-0.306,0.495h-0.33l-0.047,0.047l-0.047-0.047
		l-0.235,0.047h-1.533l-0.896-7.331h-1.462l-0.141-0.095h-2.334l-0.094,0.095l-1.769,7.119l0.095,0.047h-2.24l-0.142,0.118h-0.636
		l4.408-16.148h2.617l0.071-0.188L102.873,1541.981z M102.755,1544.95l-0.047,0.048h-1.344l-0.071-0.048l-0.919,3.726v0.424h3.324
		l-0.424-2.733l-0.071-1.062l-0.047-0.024l0.047-0.047l-0.094-0.117v-0.166H102.755L102.755,1544.95z"/>
	<path d="M117.775,1542.098v2.146l-4.196,0.283c-1.108,0-1.721,0.637-1.721,0.989v3.795l0.118,0.096v4.998
		c0,1.061,0.754,1.462,1.226,1.462h4.668v2.428h-5.8c-0.754,0-2.593-0.896-2.593-2.287v-3.229l-0.094-0.095l0.047-0.048
		l-0.047-0.069l0.047-0.023l-0.047-0.142v-6.035l-0.118-0.071h0.047l-0.047-0.094v-1.485c0-1.061,1.674-2.238,2.24-2.238
		l2.074-0.261h1.32l0.094-0.117h2.782V1542.098z"/>
	<path d="M126.005,1541.816h2.428v16.479h-2.145v-7.449h-2.994v7.449h-2.192v-16.196h2.334v6.838l2.546-0.118L126.005,1541.816z"/>
	<path d="M136.545,1558.294v-13.979h-4.597v-1.723l-0.094-0.022v-0.26h9.147l0.094-0.282h1.202l0.589-0.047l0.071,0.424l0.071,0.802
		v1.132h-3.937v13.838l-0.071,0.118h-0.778l-0.094-0.047l-0.094,0.047L136.545,1558.294L136.545,1558.294z"/>
	<path d="M153.028,1558.294l-0.047-0.802l0.047-0.047l-0.047-0.143l0.047-0.094v-8.841l-0.047-0.212l0.047-0.071v-3.866
		l-0.047-0.118l0.047-0.022v-1.438h4.503l0.094,0.047h1.297c1.273,0,2.617,2.146,2.617,3.064v10.138
		c0,0.872-1.415,2.404-2.452,2.404L153.028,1558.294L153.028,1558.294z M155.575,1545.281l-0.071,0.048h-0.33v1.532l0.094,0.094
		h-0.047v0.401l0.047,0.047l-0.047,0.022l0.118,0.118v5.895l0.047,0.095v2.169l0.118,0.141h2.357l0.047-0.047h0.542l0.873-0.33
		h0.118v-4.668h-0.047l0.047-0.047l-0.165-0.235v-4.291l-0.142-0.542l-0.825-0.4L155.575,1545.281L155.575,1545.281z"/>
	<path d="M164.536,1542.358l2.522-0.283v8.771l-0.142,0.07v7.261l-1.532,0.118h-1.014L164.536,1542.358z"/>
	<path d="M176.984,1556.29v2.004h-7.12l0.354-10.727l0.118-0.07v-5.564h6.648v2.192H172.6l-0.212,5.517l0.118,0.049h4.102v1.768
		h-4.267l-0.094,1.415l0.047,0.142l-0.047,0.282v3.064L176.984,1556.29z"/>
	<path d="M203.274,1541.863c-0.047,0.118-0.07,0.307-0.07,0.33l0.023,0.022l-3.701,16.078h-2.099l-2.452-7.567l-0.047-0.047
		l-3.277,7.567l0.023,0.047h-2.263l-2.923-16.125h2.546l1.957,11.882l2.829-6.86h2.57l2.026,6.271l2.546-11.599H203.274
		L203.274,1541.863z"/>
	<path d="M213.204,1556.29v2.004h-7.12l0.354-10.727l0.117-0.07v-5.564h6.648v2.192h-4.385l-0.213,5.517l0.119,0.049h4.102v1.768
		h-4.268l-0.094,1.415l0.047,0.142l-0.047,0.282v3.064L213.204,1556.29z"/>
	<path d="M218.416,1556.055h5.446l-0.118,2.239h-7.709v-16.525h2.356v13.438L218.416,1556.055z"/>
	<path d="M231.385,1558.294v-13.979h-4.598v-1.723l-0.094-0.022v-0.26h9.146l0.094-0.282h1.203l0.59-0.047l0.07,0.424l0.07,0.802
		v1.132h-3.938v13.838l-0.07,0.118h-0.777l-0.096-0.047l-0.094,0.047L231.385,1558.294L231.385,1558.294z"/>
	<path d="M31.497,1586.614h-0.99l-0.047-0.047h-0.919v-15.795l-0.188-0.143l0.212-0.142h1.768l0.095-0.095h1.226l3.042,8.629v-8.581
		l1.697-0.214h0.448l0.023,0.283c0,0.023,0,0.047-0.023,0.071h0.188v8.935l0.047,0.048l-0.047,0.047l0.047,0.023l-0.047,0.048
		l0.047,0.069v6.742h-1.132l-0.283-0.047l-0.142,0.047h-0.966l-4.055-11.41L31.497,1586.614L31.497,1586.614z"/>
	<path d="M41.07,1570.654l2.522-0.283v8.771l-0.142,0.07v7.261l-1.532,0.118h-1.014L41.07,1570.654z"/>
	<path d="M54.934,1570.394v2.146l-4.196,0.283c-1.108,0-1.721,0.637-1.721,0.99v3.795l0.118,0.095v4.998
		c0,1.061,0.754,1.462,1.226,1.462h4.668v2.428h-5.8c-0.754,0-2.593-0.896-2.593-2.287v-3.229l-0.094-0.094l0.047-0.049
		l-0.047-0.069l0.047-0.023l-0.047-0.142v-6.035l-0.118-0.071h0.047l-0.047-0.094v-1.485c0-1.061,1.674-2.238,2.24-2.238l2.074-0.26
		h1.32l0.094-0.118h2.782V1570.394z"/>
	<path d="M63.164,1570.112h2.428v16.479h-2.145v-7.449h-2.994v7.449H58.26v-16.195h2.334v6.837l2.546-0.118L63.164,1570.112z"/>
	<path d="M73.704,1586.59v-13.979h-4.597v-1.723l-0.094-0.022v-0.26h9.147l0.094-0.282h1.202l0.589-0.047l0.071,0.424l0.071,0.802
		v1.132H76.25v13.838l-0.071,0.118H75.4l-0.094-0.047l-0.094,0.047L73.704,1586.59L73.704,1586.59z"/>
	<path d="M102.964,1586.33h-0.778l-0.283-0.047l-0.33,0.047h-0.896v-6.907l-0.047-0.234v-4.599l-2.593,3.183l-0.023,0.096
		l-1.862,2.169l-3.513-5.493v12.117l-0.071-0.047l-0.094,0.047l-0.472-0.142l-0.071,0.095l-1.509-0.095l-0.141-0.048v-2.829
		l0.047-0.047l-0.047-0.069v-10.444l-0.142-0.306v-2.43h0.236l0.354-0.118h2.004l3.489,5.683l2.358-3.418h0.07l1.815-2.594h2.499
		V1586.33z"/>
	<path d="M113.059,1584.586v2.004h-7.12l0.354-10.727l0.118-0.07v-5.563h6.648v2.191h-4.385l-0.212,5.518l0.118,0.048h4.102v1.768
		h-4.267l-0.094,1.415l0.047,0.141l-0.047,0.283v3.064L113.059,1584.586z"/>
	<path d="M121.193,1570.112h2.428v16.479h-2.145v-7.449h-2.994v7.449h-2.192v-16.195h2.334v6.837l2.546-0.118L121.193,1570.112z"/>
	<path d="M129.683,1586.59h-2.31v-16.196h6.766c1.838,0,2.333,1.438,2.333,2.57v4.385c0,0.942-0.872,1.909-1.603,1.909h-1.014
		l2.971,7.332h-2.735l-2.664-7.332h-1.792L129.683,1586.59z M134.116,1572.799h-4.502v4.173h0.235l0.118,0.142h4.149V1572.799z"/>
	<path d="M149.112,1584.351h5.446l-0.118,2.239h-7.709v-16.526h2.357v13.438L149.112,1584.351z"/>
	<path d="M164.108,1570.277l2.641,0.329v0.213l0.047,0.069l1.721,15.111l0.047,0.095l-0.306,0.495h-0.33l-0.047,0.047l-0.047-0.047
		l-0.235,0.047h-1.533l-0.896-7.331h-1.462l-0.141-0.095h-2.334l-0.094,0.095l-1.768,7.119l0.094,0.047h-2.24l-0.142,0.118h-0.636
		l4.408-16.147h2.617l0.071-0.188L164.108,1570.277z M163.991,1573.246l-0.047,0.048H162.6l-0.071-0.048l-0.919,3.726v0.424h3.324
		l-0.424-2.733l-0.071-1.062l-0.047-0.023l0.047-0.047l-0.094-0.118v-0.165L163.991,1573.246L163.991,1573.246z"/>
	<path d="M172.646,1586.614h-0.99l-0.047-0.047h-0.919v-15.795l-0.188-0.143l0.212-0.142h1.768l0.095-0.095h1.226l3.042,8.629
		v-8.581l1.697-0.214h0.448l0.023,0.283c0,0.023,0,0.047-0.023,0.071h0.188v8.935l0.047,0.048l-0.047,0.047l0.047,0.023
		l-0.047,0.048l0.047,0.069v6.742h-1.132l-0.283-0.047l-0.142,0.047h-0.967l-4.055-11.41V1586.614z"/>
	<path d="M184.153,1572.869v11.717h4.031v-4.149l-0.07-0.871l-0.543-0.59h-1.744v-1.957l0.047-0.234h3.111
		c0.425,0,1.392,0.354,1.392,1.318v6.061c0,1.438-1.344,2.192-1.696,2.381c-0.023,0.023-0.048,0.047-0.072,0.047h-4.761
		c-0.636,0-1.745-0.637-1.745-1.414v-4.008l-0.047-0.095l0.094-0.047v-8.629c0-0.825,0.943-1.887,2.381-1.887h4.245
		c0.494,0,1.461,0.308,1.461,1.909v1.745h-2.027l-0.047-1.319L184.153,1572.869z"/>
	<path d="M200.305,1584.586v2.004h-7.121l0.354-10.727l0.118-0.07v-5.563h6.648v2.191h-4.386l-0.212,5.518l0.118,0.048h4.102v1.768
		h-4.267l-0.094,1.415l0.047,0.141l-0.047,0.283v3.064L200.305,1584.586z"/>
	<path d="M223.082,1586.33h-0.778l-0.283-0.047l-0.33,0.047h-0.896v-6.907l-0.047-0.234v-4.599l-2.593,3.183l-0.023,0.096
		l-1.861,2.169l-3.514-5.493v12.117l-0.07-0.047l-0.095,0.047l-0.472-0.142l-0.071,0.095l-1.509-0.095l-0.141-0.048v-2.829
		l0.047-0.047l-0.047-0.069v-10.444l-0.143-0.306v-2.43h0.236l0.354-0.118h2.004l3.489,5.683l2.358-3.418h0.07l1.814-2.594h2.499
		V1586.33z"/>
	<path d="M226.244,1570.654l2.521-0.283v8.771l-0.143,0.07v7.261l-1.531,0.118h-1.014L226.244,1570.654z"/>
	<path d="M236.287,1586.59v-13.979h-4.598v-1.723l-0.094-0.022v-0.26h9.148l0.094-0.282h1.203l0.588-0.047l0.072,0.424l0.068,0.802
		v1.132h-3.936v13.838l-0.072,0.118h-0.777l-0.094-0.047l-0.094,0.047L236.287,1586.59L236.287,1586.59z"/>
	<path d="M248.361,1570.205v6.083l0.117,0.141v3.277l0.096,0.095l-0.049,0.142v1.909l-0.047-0.048v0.048l-0.094-0.048h-2.734
		l-0.049-0.094v-7.874l0.096-0.142v-3.489H248.361z M246.191,1583.761h2.404v0.73l-0.021-0.023l0.07,0.543v1.484l-0.049,0.095
		h-2.994v-2.876L246.191,1583.761z"/>
</g>
<g>
	<g>
		<path fill="#FDC872" d="M154.512,599.66c-16.471-30-15.995-50.314-8.125-55.771c18.423-12.769,119.702,5.649,127.548-20.129
			c12.329-35.863,2.179-47.387-30.326-55.231c-25.777-7.846-127.539-11.868-148.833,7.186
			c-21.294,20.173-23.537,54.111,8.966,61.957c14.569,3.362,7.143,0.012,19.471,4.495
			C137.782,547.771,135.156,582.455,154.512,599.66z"/>
	</g>
	<g>
		<path d="M125.516,478.531h8.76l-4.989,14.006h5.176v0.75l0.07,0.047v1.452h-7.8v-2.038l-0.141-0.07l4.802-12.272h-5.293
			l-0.07-0.094h-0.468l-0.047-0.772V478.531L125.516,478.531z"/>
		<path d="M137.648,478.695h2.226v12.133c0,0.703,0.702,1.195,1.124,1.195h2.6c0.375,0,0.633-0.539,0.703-1.078v-12.227h2.365
			v14.124c0,0.796-1.147,1.757-1.897,1.851h-5.2c-1.007,0-1.921-0.844-1.921-2.412v-3.771V478.695z"/>
		<path d="M162.219,494.435h-0.773l-0.281-0.046l-0.328,0.046h-0.89v-6.861l-0.046-0.234v-4.566l-2.577,3.161l-0.023,0.095
			l-1.851,2.154l-3.49-5.458v12.039l-0.07-0.047l-0.093,0.047l-0.469-0.141l-0.07,0.094l-1.499-0.094l-0.141-0.047v-2.812
			l0.047-0.047l-0.047-0.069v-10.376l-0.14-0.305v-2.413h0.234l0.351-0.116h1.991l3.466,5.645l2.342-3.396h0.07l1.803-2.575h2.483
			L162.219,494.435L162.219,494.435z"/>
		<path d="M97.27,522.799l-0.046-0.797l0.046-0.046l-0.046-0.141l0.046-0.095v-8.782l-0.046-0.211l0.046-0.07v-3.841l-0.046-0.117
			l0.046-0.024v-1.429h4.474l0.093,0.046h1.289c1.265,0,2.6,2.131,2.6,3.045v10.072c0,0.866-1.405,2.389-2.436,2.389L97.27,522.799
			L97.27,522.799z M99.8,509.87l-0.07,0.047h-0.328v1.522l0.094,0.094h-0.047v0.397l0.047,0.047l-0.047,0.023l0.117,0.118v5.855
			l0.047,0.094v2.154l0.117,0.142h2.342l0.047-0.047h0.539l0.867-0.328h0.117v-4.639h-0.047l0.047-0.047l-0.164-0.233v-4.264
			l-0.141-0.539l-0.82-0.397H99.8L99.8,509.87z"/>
		<path d="M119.333,518.934l-0.093,0.984c0,1.92-1.406,2.812-2.249,2.812h-2.647l-0.047,0.093l-0.047-0.045l-0.094,0.045h-3.818
			c-0.96,0-1.803-1.593-1.803-2.294v-10.376c0-2.295,1.358-3.115,2.131-3.115h0.445l0.796-0.188l0.047,0.047l2.202-0.352h1.265
			c1.405,0,3.396,0.984,3.396,3.186h0.047v0.608L119.333,518.934z M116.476,509.425l-1.452-0.866l-0.188,0.142h-2.038l-0.094,0.046
			l-0.023-0.046l-0.047,0.046h-0.468V508.7h-0.047l-1.054,0.866v1.732l0.046,0.024l-0.046,0.046l0.117,0.188v4.028l0.047,0.023
			l-0.047,0.069l0.047,0.093l-0.047,0.049l0.164,0.585v3.842l0.047,0.047v0.234l0.117,0.257l0.492,0.375h0.632l0.117-0.07h2.131
			l-0.188-0.257l0.632-0.094l0.047,0.305h0.726l0.492-0.633l0.258-0.492L116.476,509.425z"/>
		<path d="M124.393,522.822h-0.984l-0.046-0.045h-0.914v-15.694l-0.187-0.141l0.211-0.142h1.757l0.093-0.094h1.218l3.021,8.573
			v-8.525l1.687-0.211h0.445l0.024,0.281c0,0.022,0,0.046-0.024,0.07h0.188v8.876l0.047,0.048l-0.047,0.047l0.047,0.022
			l-0.047,0.046l0.047,0.07v6.7h-1.125l-0.281-0.048l-0.141,0.048h-0.96l-4.028-11.337L124.393,522.822L124.393,522.822z"/>
		<path d="M135.869,522.822h-0.984l-0.046-0.045h-0.914v-15.694l-0.187-0.141l0.211-0.142h1.757l0.093-0.094h1.218l3.021,8.573
			v-8.525l1.687-0.211h0.445l0.024,0.281c0,0.022,0,0.046-0.024,0.07h0.188v8.876l0.047,0.048l-0.047,0.047l0.047,0.022
			l-0.047,0.046l0.047,0.07v6.7h-1.125l-0.281-0.048l-0.141,0.048h-0.96l-4.029-11.337V522.822L135.869,522.822z"/>
		<path d="M152.265,520.808v1.991h-7.074l0.351-10.657l0.118-0.069v-5.527h6.605v2.178h-4.356l-0.211,5.481l0.117,0.047h4.076v1.756
			h-4.24l-0.094,1.406l0.047,0.141l-0.047,0.281v3.044L152.265,520.808z"/>
		<path d="M157.698,522.799h-2.295v-16.091h6.722c1.827,0,2.319,1.43,2.319,2.554v4.356c0,0.938-0.867,1.896-1.593,1.896h-1.007
			l2.951,7.284h-2.717l-2.646-7.284h-1.78L157.698,522.799z M162.102,509.097h-4.474v4.146h0.234l0.117,0.14h4.123V509.097z"/>
		<path d="M183.791,506.474c-0.047,0.117-0.07,0.305-0.07,0.328l0.023,0.024l-3.677,15.974h-2.084l-2.436-7.519l-0.047-0.047
			l-3.256,7.519l0.023,0.047h-2.249l-2.904-16.021h2.53l1.944,11.805l2.811-6.815h2.553l2.015,6.229l2.53-11.523L183.791,506.474
			L183.791,506.474z"/>
		<path d="M193.651,520.808v1.991h-7.074l0.352-10.657l0.117-0.069v-5.527h6.605v2.178h-4.356l-0.211,5.481l0.117,0.047h4.076v1.756
			h-4.24l-0.094,1.406l0.047,0.141l-0.047,0.281v3.044L193.651,520.808z"/>
		<path d="M201.122,522.799V508.91h-4.567v-1.71l-0.094-0.023v-0.258h9.088l0.093-0.281h1.195l0.585-0.046l0.07,0.421l0.07,0.796
			v1.124h-3.912v13.749l-0.07,0.117h-0.773l-0.094-0.047l-0.094,0.047H201.122L201.122,522.799z"/>
		<path d="M215.036,522.799V508.91h-4.568v-1.71l-0.094-0.023v-0.258h9.088l0.093-0.281h1.195l0.586-0.046l0.07,0.421l0.068,0.796
			v1.124h-3.91v13.749l-0.07,0.117h-0.771l-0.096-0.047l-0.093,0.047H215.036L215.036,522.799z"/>
		<path d="M231.338,520.808v1.991h-7.072l0.351-10.657l0.116-0.069v-5.527h6.605v2.178h-4.355l-0.211,5.481l0.117,0.047h4.074v1.756
			h-4.238l-0.095,1.406l0.047,0.141l-0.047,0.281v3.044L231.338,520.808z"/>
		<path d="M236.771,522.799h-2.295v-16.091h6.723c1.826,0,2.318,1.43,2.318,2.554v4.356c0,0.938-0.867,1.896-1.594,1.896h-1.007
			l2.951,7.284h-2.718l-2.646-7.284h-1.78L236.771,522.799z M241.176,509.097h-4.474v4.146h0.233l0.116,0.14h4.123L241.176,509.097
			L241.176,509.097z"/>
		<path d="M249.374,506.521v6.044l0.117,0.14v3.257l0.093,0.093l-0.047,0.142v1.896l-0.046-0.046v0.046l-0.095-0.046h-2.717
			l-0.047-0.095v-7.823l0.094-0.141v-3.467H249.374z M247.219,519.989h2.389v0.726l-0.022-0.021l0.069,0.538v1.477l-0.047,0.093
			h-2.974v-2.856L247.219,519.989z"/>
	</g>
</g>
<g>
	<g>
		<path fill="#F95F5F" d="M53.004,636.041c40.729-22.774,103.17-3.958,132.018,0.398c31.888,5.445,27.36,50.708,6.104,62.688
			c-16.703,8.713-44.447,12.66-62.666,9.394c-1.519,19.604,12.146,28.317,27.329,41.391c-22.774-7.625-37.957-25.053-44.031-42.479
			c-16.702,0-56.177-2.18-63.769-15.25C40.399,678.024,41.029,642.738,53.004,636.041z"/>
	</g>
	<g>
		<path d="M58.633,657.97h3.139v21.301h-2.773v-9.63h-3.87v9.63h-2.834v-20.937h3.017v8.838l3.291-0.151L58.633,657.97z"/>
		<path d="M75.365,676.682v2.589h-9.204l0.458-13.864l0.152-0.092v-7.192h8.594v2.834h-5.668l-0.274,7.132l0.152,0.062h5.303v2.284
			h-5.516l-0.122,1.829l0.061,0.184l-0.061,0.365v3.963L75.365,676.682z"/>
		<path d="M82.435,679.271h-2.986v-20.937h8.747c2.376,0,3.017,1.859,3.017,3.322v5.668c0,1.22-1.127,2.469-2.072,2.469H87.83
			l3.84,9.479h-3.535l-3.444-9.479h-2.316L82.435,679.271z M88.164,661.443h-5.821v5.395h0.305l0.153,0.183h5.363V661.443z"/>
		<path d="M98.679,679.271h-2.987v-20.937h8.747c2.377,0,3.017,1.859,3.017,3.322v5.668c0,1.22-1.127,2.469-2.072,2.469h-1.311
			l3.84,9.479h-3.535l-3.444-9.479h-2.316L98.679,679.271z M104.408,661.443h-5.82v5.395h0.305l0.152,0.183h5.363V661.443
			L104.408,661.443z"/>
		<path d="M121.109,658.701v18.376c0,0.975-0.548,2.192-1.707,2.192h-5.668c-1.585,0-2.225-1.98-2.225-1.98v-1.34h0.396l0.091-0.062
			h2.377l0.061,0.731h3.81V658.7L121.109,658.701L121.109,658.701z"/>
		<path d="M134.337,676.682v2.589h-9.204l0.457-13.864l0.152-0.092v-7.192h8.594v2.834h-5.668l-0.274,7.132l0.152,0.062h5.303v2.284
			h-5.516l-0.122,1.829l0.061,0.184l-0.061,0.365v3.963L134.337,676.682z"/>
		<path d="M154.573,678.936h-1.006l-0.366-0.062l-0.426,0.062h-1.158v-8.929l-0.061-0.305v-5.942l-3.352,4.113l-0.031,0.122
			l-2.408,2.805l-4.541-7.101v15.663l-0.091-0.061l-0.122,0.061l-0.609-0.184l-0.091,0.123l-1.951-0.123l-0.183-0.062v-3.656
			l0.061-0.061l-0.061-0.093v-13.5l-0.183-0.396v-3.14h0.304l0.458-0.152h2.59l4.511,7.345l3.047-4.419h0.092l2.347-3.353h3.23
			L154.573,678.936L154.573,678.936z"/>
		<path d="M158.657,658.67l3.26-0.365v11.336l-0.183,0.093v9.386l-1.98,0.151h-1.311L158.657,658.67z"/>
		<path d="M168.348,679.303h-1.28l-0.061-0.062h-1.188v-20.419l-0.244-0.184l0.274-0.183h2.286l0.122-0.123h1.584l3.932,11.154
			v-11.094l2.194-0.273h0.579l0.031,0.366c0,0.029,0,0.061-0.031,0.091h0.244v11.551l0.061,0.062l-0.061,0.062l0.061,0.029
			l-0.061,0.062l0.061,0.091v8.718h-1.462l-0.366-0.063l-0.183,0.063h-1.249l-5.242-14.75L168.348,679.303L168.348,679.303z"/>
		<path d="M189.682,676.682v2.589h-9.203l0.457-13.864l0.152-0.092v-7.192h8.594v2.834h-5.668l-0.274,7.132l0.153,0.062h5.303v2.284
			h-5.518l-0.121,1.829l0.062,0.184l-0.062,0.365v3.963L189.682,676.682z"/>
		<path d="M196.906,658.091v7.862l0.152,0.183v4.236l0.121,0.122l-0.062,0.183v2.469l-0.062-0.061v0.061l-0.121-0.061H193.4
			l-0.062-0.122v-10.179l0.121-0.184v-4.511L196.906,658.091L196.906,658.091z M194.102,675.614h3.108v0.944l-0.03-0.029l0.092,0.7
			v1.921l-0.062,0.12h-3.87v-3.718L194.102,675.614z"/>
	</g>
</g>
<g>
	<g>
		<path fill="#FE8DA5" d="M53.605,765.03c40.364-26.876,102.244-4.671,130.833,0.471c31.602,6.426,17.676,63.209-3.391,77.347
			c-16.553,10.282-34.609,11.567-52.664,7.714c-1.505,23.134,12.037,33.416,27.083,48.841
			c-22.569-8.998-37.616-29.563-43.635-50.128c-16.552,0-55.673-2.569-63.196-17.994C39.722,811.479,27.876,782.163,53.605,765.03z"
			/>
	</g>
	<g>
		<path d="M59.938,786.539l3.912,0.489v0.313l0.07,0.105l2.55,22.387l0.069,0.14l-0.454,0.733h-0.489l-0.069,0.07l-0.07-0.07
			l-0.349,0.07h-2.271l-1.327-10.861h-2.166l-0.209-0.141h-3.458l-0.14,0.141l-2.62,10.547l0.14,0.069h-3.318l-0.209,0.175h-0.943
			l6.531-23.924h3.876l0.105-0.279L59.938,786.539z M59.764,790.94l-0.07,0.069h-1.99l-0.105-0.069l-1.362,5.518v0.629h4.924
			l-0.628-4.05l-0.105-1.573l-0.07-0.034l0.07-0.069l-0.14-0.176v-0.243L59.764,790.94L59.764,790.94z"/>
		<path d="M69.855,786.853h3.318v18.093c0,1.048,1.048,1.78,1.677,1.78h3.876c0.559,0,0.943-0.803,1.048-1.604v-18.232h3.527v21.061
			c0,1.188-1.711,2.62-2.829,2.76h-7.754c-1.502,0-2.864-1.257-2.864-3.597v-5.623L69.855,786.853L69.855,786.853z"/>
		<path d="M98.107,786.365h8.312l1.188,0.28l0.559,0.277l1.117,1.677l0.175,0.07l0.978,4.714l-0.07,0.944
			c-0.279,0.663-0.664,1.5-1.606,2.233c1.397,0.489,2.096,1.468,2.689,2.341v8.802c0,0.803-0.804,2.898-2.934,2.898H98.456
			l-0.419-0.279h0.07v-2.479h0.07l-0.07-0.069v-0.14h0.07l-0.07-0.069l0.07-0.07h-0.07l0.07-0.314l-0.07-0.104l0.07-0.07
			l-0.07-0.035l0.07-0.35l-0.07-0.35l0.07-0.034L98.107,786.365z M101.53,800.405v5.099l-0.07,0.035v0.454l0.07,0.068l-0.07,0.352
			v0.664l0.21-0.176h5.623l0.14-0.07h0.733v-6.426h-1.223l-0.069,0.069l-0.35-0.069l-0.489,0.069l-0.245-0.069H101.53
			L101.53,800.405z M101.948,789.823v6.88h3.527c0,0,1.397-1.711,1.397-3.771c0-1.571-0.28-2.969-0.28-2.969l-0.314-0.07
			L101.948,789.823z"/>
		<path d="M125.592,786.539l3.911,0.489v0.313l0.07,0.105l2.549,22.387l0.07,0.14l-0.454,0.733h-0.489l-0.07,0.07l-0.07-0.07
			l-0.35,0.07h-2.27l-1.327-10.861h-2.166l-0.209-0.141h-3.458l-0.14,0.141l-2.62,10.547l0.14,0.069h-3.318l-0.209,0.175h-0.943
			l6.531-23.924h3.876l0.105-0.279L125.592,786.539z M125.417,790.94l-0.07,0.069h-1.991l-0.105-0.069l-1.362,5.518v0.629h4.924
			l-0.629-4.05l-0.105-1.573l-0.069-0.034l0.069-0.069l-0.14-0.176v-0.243L125.417,790.94L125.417,790.94z"/>
		<path d="M147.663,786.714v3.178l-6.217,0.42c-1.642,0-2.549,0.942-2.549,1.468v5.623l0.175,0.139v7.404
			c0,1.571,1.118,2.166,1.816,2.166h6.915v3.597h-8.591c-1.118,0-3.842-1.327-3.842-3.388v-4.784l-0.14-0.141l0.069-0.069
			l-0.069-0.105l0.069-0.035l-0.069-0.208v-8.939l-0.175-0.105h0.07l-0.07-0.14v-2.2c0-1.572,2.479-3.316,3.318-3.316l3.073-0.387
			h1.956l0.14-0.174h4.121V786.714z"/>
		<path d="M155.414,787.098c0.105,0.177,0.419,0.488,0.419,0.523v8.068l8.452-8.174h4.645l-8.766,8.593l6.775,14.669h-4.121
			l-0.838-2.166l-3.702-8.032h-2.409v10.198h-3.702v-23.681L155.414,787.098L155.414,787.098z"/>
		<path d="M183.634,807.74v2.968h-10.549l0.524-15.891l0.175-0.104v-8.242h9.85v3.248h-6.497l-0.313,8.172l0.175,0.07h6.078v2.619
			h-6.322l-0.14,2.096l0.069,0.209l-0.069,0.419v4.541L183.634,807.74z"/>
		<path d="M191.909,786.435v9.012l0.175,0.209v4.854l0.141,0.142l-0.07,0.209v2.828l-0.069-0.069v0.069l-0.14-0.069h-4.053
			l-0.068-0.141v-11.665l0.14-0.209v-5.169H191.909L191.909,786.435z M188.695,806.517h3.563v1.083l-0.034-0.034l0.104,0.804v2.199
			l-0.069,0.14h-4.436v-4.26L188.695,806.517z"/>
	</g>
</g>
<g>
	<g>
		<path d="M212.168,1427.715c0,0.453,0.755,0.697,0.943,0.697h4.456v1.756h-5.344c-1.32,0-1.717-1.076-1.717-1.644v-5.041
			c0-0.753,0.813-1.546,1.852-1.546h3.322v-1.982c0-0.85-0.455-1.17-0.812-1.17h-4.04v-1.774h4.775c0,0,2.04,0.812,2.04,2.548v2.719
			c0,0.416-0.416,1.36-1.87,1.36h-2.547c-0.455,0.035-1.02,0.149-1.02,0.621L212.168,1427.715z"/>
	</g>
	<g>
		<path d="M213.009,1432.308h1.941v0.588l-0.021-0.019l0.06,0.438v1.199l-0.039,0.073h-2.418v-2.32L213.009,1432.308z"/>
	</g>
</g>
<g>
	<g>
		<path fill="#20BAE0" d="M256.984,1242.154c-1.332-10.713-8.051-14.716-18.043-20.072c-5.994-3.826-78.262-2.706-109.838-3.383
			c-28.728-0.616-49.875-3.741-78.939,0.45c-6.625,0.955-22.135,7.224-27.464,13.345c-5.328,6.122-3.331,16.835-3.331,25.251
			c0,0,0.922,16.442,3.73,21.173c11.139,18.766,22.248,23.209,41.565,23.974c36.045,1.404,68.833,1.813,104.879,1.608
			c8.809,0.968,10.704,7.299,9.873,16.549c0.473,7.553-10.382,21.068-8.18,27.96c2.036,6.367,18.307-37.607,24.211-44.686
			c1.746-2.092,3.725-2.699,5.004-3.11c9.388-3.017,16.21-2.65,25.408-2.146c9.992,0,21.316,2.655,28.645-7.292
			C261.83,1279.53,258.314,1256.692,256.984,1242.154z"/>
	</g>
	<g>
		<path d="M45.039,1234.358h2.471v16.773h-2.184v-7.583h-3.048v7.583h-2.231v-16.485h2.376v6.96l2.592-0.121L45.039,1234.358z"/>
		<path d="M58.213,1249.093v2.039h-7.248l0.36-10.919l0.12-0.071v-5.664h6.768v2.231H53.75l-0.216,5.616l0.12,0.048h4.176v1.8
			h-4.344l-0.096,1.439l0.048,0.145l-0.048,0.288v3.12L58.213,1249.093z"/>
		<path d="M63.78,1251.132h-2.352v-16.486h6.888c1.872,0,2.375,1.465,2.375,2.616v4.463c0,0.96-0.888,1.944-1.631,1.944h-1.032
			l3.023,7.463h-2.784l-2.711-7.463h-1.824L63.78,1251.132z M68.292,1237.094h-4.583v4.247h0.24l0.12,0.145h4.224L68.292,1237.094
			L68.292,1237.094z"/>
		<path d="M76.57,1251.132h-2.352v-16.486h6.888c1.872,0,2.375,1.465,2.375,2.616v4.463c0,0.96-0.888,1.944-1.631,1.944h-1.032
			l3.023,7.463h-2.784l-2.711-7.463h-1.824L76.57,1251.132z M81.083,1237.094H76.5v4.247h0.24l0.12,0.145h4.224L81.083,1237.094
			L81.083,1237.094z"/>
		<path d="M94.232,1234.934v14.472c0,0.769-0.432,1.728-1.344,1.728h-4.463c-1.248,0-1.752-1.56-1.752-1.56v-1.057h0.312
			l0.072-0.048h1.872l0.048,0.575h3v-14.11H94.232L94.232,1234.934z"/>
		<path d="M104.647,1249.093v2.039H97.4l0.36-10.919l0.12-0.071v-5.664h6.768v2.231h-4.464l-0.216,5.616l0.12,0.048h4.176v1.8H99.92
			l-0.096,1.439l0.048,0.145l-0.048,0.288v3.12L104.647,1249.093z"/>
		<path d="M107.887,1247.941h1.536l0.096,0.048l0.096-0.048l0.048,0.048h1.392v1.368l-0.552,1.415l-0.216,0.313l-0.768,0.793
			l-0.744,0.6l-0.672,0.097h-0.48l-0.096-0.24l0.048-0.288l0.192-0.359l0.216-0.647l-0.048-0.097l0.096-0.551l-0.144-0.408h0.048
			v-0.24l-0.048-0.048V1247.941z"/>
		<path d="M126.581,1234.358h2.472v16.773h-2.184v-7.583h-3.047v7.583h-2.232v-16.485h2.375v6.96l2.592-0.121L126.581,1234.358z"/>
		<path d="M139.372,1234.527l2.688,0.335v0.217l0.048,0.071l1.752,15.383l0.048,0.096l-0.313,0.504h-0.336l-0.048,0.048
			l-0.048-0.048l-0.24,0.048h-1.56l-0.912-7.463h-1.488l-0.144-0.096h-2.375l-0.096,0.096l-1.8,7.247l0.096,0.048h-2.28l-0.144,0.12
			h-0.648l4.487-16.438h2.664l0.072-0.191L139.372,1234.527z M139.251,1237.549l-0.048,0.049h-1.367l-0.072-0.049l-0.936,3.792
			v0.432h3.384l-0.432-2.782l-0.072-1.08l-0.047-0.023l0.047-0.049l-0.096-0.119v-0.169L139.251,1237.549L139.251,1237.549z"/>
		<path d="M152.93,1243.621c0-0.601-0.72-0.744-1.296-0.792h-3.239c-1.848,0-2.376-1.2-2.376-1.729v-3.456
			c0-2.208,2.592-3.239,2.592-3.239h6.071v2.257h-5.135c-0.456,0-1.032,0.407-1.032,1.487v2.521h4.224
			c1.32,0,2.352,1.008,2.352,1.967v6.407c0,0.72-0.504,2.088-2.184,2.088h-6.791v-2.23h5.663c0.24,0,1.2-0.313,1.2-0.89
			L152.93,1243.621z"/>
		<path d="M163.104,1251.132v-14.229h-4.679v-1.752l-0.096-0.024v-0.264h9.311l0.096-0.287h1.224l0.6-0.048l0.073,0.432l0.072,0.815
			v1.15h-4.008v14.087l-0.072,0.12h-0.792l-0.096-0.048l-0.096,0.048H163.104z"/>
		<path d="M179.878,1251.132l-0.048-0.814l0.048-0.049l-0.048-0.145l0.048-0.096v-8.999l-0.048-0.216l0.048-0.072v-3.937
			l-0.048-0.12l0.048-0.022v-1.465h4.583l0.096,0.049h1.32c1.296,0,2.664,2.184,2.664,3.119v10.319c0,0.888-1.439,2.446-2.496,2.446
			L179.878,1251.132L179.878,1251.132z M182.469,1237.886l-0.072,0.048h-0.335v1.56l0.096,0.098h-0.048v0.406l0.048,0.049
			l-0.048,0.024l0.12,0.12v5.998l0.048,0.098v2.207l0.12,0.144h2.4l0.048-0.047h0.552l0.888-0.337h0.12v-4.751h-0.049l0.049-0.048
			l-0.168-0.24v-4.368l-0.145-0.552l-0.84-0.407L182.469,1237.886L182.469,1237.886z"/>
		<path d="M191.733,1234.742h2.279v12.431c0,0.72,0.721,1.225,1.151,1.225h2.664c0.384,0,0.647-0.554,0.72-1.104v-12.527h2.424
			v14.472c0,0.814-1.177,1.8-1.943,1.896H193.7c-1.032,0-1.967-0.864-1.967-2.471v-3.864V1234.742z"/>
		<path d="M34.576,1279.953h-1.008l-0.048-0.048h-0.936v-16.078l-0.192-0.146l0.216-0.144h1.8l0.096-0.098h1.248l3.095,8.783v-8.734
			l1.728-0.217h0.456l0.024,0.288c0,0.024,0,0.05-0.024,0.072h0.192v9.095l0.048,0.049l-0.048,0.049l0.048,0.022l-0.048,0.048
			l0.048,0.072v6.863h-1.152l-0.288-0.049l-0.144,0.049h-0.984l-4.127-11.615V1279.953z"/>
		<path d="M44.318,1263.706l2.568-0.288v8.928l-0.144,0.071v7.393l-1.561,0.119H44.15L44.318,1263.706z"/>
		<path d="M58.43,1263.443v2.184l-4.271,0.288c-1.128,0-1.752,0.647-1.752,1.008v3.863l0.12,0.097v5.088
			c0,1.079,0.768,1.488,1.248,1.488h4.751v2.471h-5.903c-0.768,0-2.64-0.911-2.64-2.327v-3.286l-0.096-0.099l0.048-0.047
			l-0.048-0.072l0.048-0.023l-0.048-0.146v-6.144l-0.12-0.071h0.047l-0.047-0.096v-1.513c0-1.078,1.704-2.278,2.279-2.278
			l2.112-0.266h1.344l0.096-0.12L58.43,1263.443L58.43,1263.443z"/>
		<path d="M66.804,1263.155h2.472v16.773h-2.184v-7.583h-3.048v7.583h-2.232v-16.485h2.376v6.96l2.592-0.121L66.804,1263.155z"/>
		<path d="M77.53,1279.929v-14.229h-4.679v-1.752l-0.096-0.024v-0.264h9.311l0.096-0.287h1.224l0.6-0.048l0.072,0.432l0.072,0.815
			v1.15h-4.008v14.087l-0.072,0.12h-0.792l-0.096-0.048l-0.096,0.048H77.53z"/>
		<path d="M94.064,1272.417c0-0.599-0.72-0.743-1.296-0.791h-3.239c-1.848,0-2.376-1.2-2.376-1.729v-3.455
			c0-2.209,2.592-3.24,2.592-3.24h6.071v2.257h-5.136c-0.456,0-1.032,0.407-1.032,1.487v2.52h4.224c1.32,0,2.352,1.008,2.352,1.968
			v6.407c0,0.72-0.504,2.088-2.184,2.088h-6.792v-2.23h5.664c0.24,0,1.2-0.313,1.2-0.89L94.064,1272.417z"/>
		<path d="M106.759,1279.929l-0.048-0.814l0.048-0.049l-0.048-0.145l0.048-0.096v-8.999l-0.048-0.216l0.048-0.072v-3.936
			l-0.048-0.12l0.048-0.023v-1.465h4.583l0.096,0.049h1.32c1.296,0,2.664,2.185,2.664,3.119v10.319c0,0.888-1.439,2.446-2.495,2.446
			L106.759,1279.929L106.759,1279.929z M109.351,1266.683l-0.072,0.049h-0.336v1.559l0.096,0.098h-0.048v0.406l0.048,0.049
			l-0.048,0.024l0.12,0.12v5.999l0.048,0.096v2.208l0.12,0.144h2.4l0.048-0.047h0.552l0.888-0.337h0.12v-4.751h-0.048l0.048-0.048
			l-0.168-0.24v-4.368l-0.144-0.552l-0.84-0.407L109.351,1266.683L109.351,1266.683z"/>
		<path d="M125.141,1263.323l2.688,0.335v0.217l0.048,0.071l1.752,15.383l0.048,0.096l-0.312,0.504h-0.336l-0.048,0.049
			l-0.048-0.049l-0.24,0.049h-1.56l-0.912-7.464h-1.488l-0.144-0.097h-2.375l-0.096,0.097l-1.8,7.247l0.096,0.048h-2.28l-0.144,0.12
			h-0.647l4.487-16.438h2.664l0.072-0.191L125.141,1263.323z M125.021,1266.346l-0.048,0.049h-1.368l-0.072-0.049l-0.936,3.792
			v0.433h3.384l-0.433-2.784l-0.072-1.079l-0.048-0.023l0.048-0.049l-0.096-0.119v-0.169L125.021,1266.346L125.021,1266.346z"/>
		<path d="M131.644,1263.371h8.975l-5.111,14.35h5.303v0.769l0.072,0.049v1.486h-7.991v-2.088l-0.145-0.071l4.92-12.574h-5.423
			l-0.072-0.096h-0.48l-0.048-0.792V1263.371z"/>
		<path d="M144.075,1263.539h2.28v12.431c0,0.721,0.72,1.225,1.151,1.225h2.664c0.384,0,0.648-0.554,0.721-1.104v-12.526h2.423
			v14.472c0,0.814-1.176,1.8-1.943,1.896h-5.328c-1.031,0-1.967-0.863-1.967-2.471v-3.864L144.075,1263.539L144.075,1263.539z"/>
		<path d="M165.576,1265.963v11.927h4.104v-4.225l-0.072-0.888l-0.552-0.601h-1.776v-1.991l0.048-0.24h3.168
			c0.432,0,1.416,0.36,1.416,1.344v6.169c0,1.463-1.368,2.231-1.728,2.423c-0.023,0.024-0.047,0.048-0.072,0.048h-4.847
			c-0.648,0-1.776-0.647-1.776-1.439v-4.079l-0.047-0.095l0.096-0.049v-8.783c0-0.841,0.96-1.92,2.424-1.92h4.319
			c0.504,0,1.488,0.313,1.488,1.942v1.775h-2.064l-0.047-1.343L165.576,1265.963z"/>
		<path d="M182.014,1277.89v2.039h-7.247l0.36-10.919l0.12-0.071v-5.663h6.767v2.23h-4.463l-0.216,5.616l0.12,0.048h4.175v1.8
			h-4.344l-0.096,1.439l0.048,0.145l-0.048,0.288v3.119L182.014,1277.89z"/>
		<path d="M187.317,1277.649h5.543l-0.12,2.279h-7.847v-16.82h2.399v13.678L187.317,1277.649z"/>
		<path d="M202.963,1277.89v2.039h-7.248l0.36-10.919l0.12-0.071v-5.663h6.768v2.23H198.5l-0.216,5.616l0.119,0.048h4.177v1.8
			h-4.345l-0.096,1.439l0.049,0.145l-0.049,0.288v3.119L202.963,1277.89z"/>
		<path d="M208.53,1279.929h-2.352v-16.485h6.889c1.871,0,2.375,1.464,2.375,2.615v4.464c0,0.959-0.889,1.943-1.631,1.943h-1.033
			l3.023,7.463h-2.783l-2.711-7.463h-1.824L208.53,1279.929z M213.042,1265.891h-4.583v4.247h0.24l0.12,0.145h4.224
			L213.042,1265.891L213.042,1265.891z"/>
		<path d="M220.817,1279.953h-1.008l-0.048-0.048h-0.936v-16.078l-0.191-0.146l0.216-0.144h1.799l0.098-0.098h1.248l3.095,8.783
			v-8.734l1.729-0.217h0.455l0.023,0.288c0,0.024,0,0.05-0.023,0.072h0.191v9.095l0.049,0.049l-0.049,0.049l0.049,0.022
			l-0.049,0.048l0.049,0.072v6.863h-1.152l-0.287-0.049l-0.145,0.049h-0.983l-4.128-11.615v11.737H220.817z"/>
		<path d="M235.166,1279.929v-14.229h-4.68v-1.752l-0.096-0.024v-0.264h9.313l0.096-0.287h1.223l0.602-0.048l0.07,0.432l0.072,0.815
			v1.15h-4.006v14.087l-0.072,0.12h-0.793l-0.096-0.048l-0.096,0.048H235.166z"/>
	</g>
	<g>
		<g>
			<path d="M246.43,1273.467c0,0.427,0.707,0.655,0.885,0.655h4.178v1.646h-5.012c-1.236,0-1.607-1.01-1.607-1.541v-4.726
				c0-0.706,0.76-1.449,1.734-1.449h3.113v-1.857c0-0.797-0.426-1.098-0.76-1.098h-3.787v-1.663h4.475c0,0,1.912,0.761,1.912,2.389
				v2.549c0,0.389-0.389,1.275-1.752,1.275h-2.389c-0.424,0.032-0.955,0.141-0.955,0.582L246.43,1273.467z"/>
		</g>
		<g>
			<path d="M247.219,1277.772h1.82v0.553l-0.02-0.019l0.055,0.411v1.124l-0.035,0.07h-2.268v-2.176L247.219,1277.772z"/>
		</g>
	</g>
</g>
</svg>
