<?xml version="1.0" encoding="utf-8"?>
<!-- Generator: Adobe Illustrator 16.0.3, SVG Export Plug-In . SVG Version: 6.00 Build 0)  -->
<!DOCTYPE svg PUBLIC "-//W3C//DTD SVG 1.1//EN" "http://www.w3.org/Graphics/SVG/1.1/DTD/svg11.dtd">
<svg version="1.1" id="Ebene_1" xmlns="http://www.w3.org/2000/svg" xmlns:xlink="http://www.w3.org/1999/xlink" x="0px" y="0px"
	 width="1024px" height="105.656px" viewBox="0 0 1024 105.656" enable-background="new 0 0 1024 105.656" xml:space="preserve">
<g>
	<g>
		<rect fill="#F7ECDF" width="1024" height="105.656"/>
		<g>
			<g>
				<g>
					<path fill="#BFA673" d="M18.767,17.652c3.755-1.339,7.732-0.72,11.622-0.673c0.349,0.004,1.034-0.52,0.382-0.527
						c-4.194-0.05-8.344-0.612-12.378,0.827C17.752,17.507,18.34,17.805,18.767,17.652L18.767,17.652z"/>
				</g>
			</g>
			<g>
				<g>
					<path fill="#BFA673" d="M31.289,25.328c4.25,0,8.5,0,12.749,0c0.559,0,0.736-0.725,0.081-0.725c-4.25,0-8.5,0-12.749,0
						C30.811,24.604,30.634,25.328,31.289,25.328L31.289,25.328z"/>
				</g>
			</g>
			<g>
				<g>
					<path fill="#BFA673" d="M72.629,22.466c2.181,0.441,4.342,0.96,6.5,1.5c0.337,0.084,1.143-0.42,0.582-0.561
						c-2.158-0.539-4.319-1.058-6.5-1.5C72.875,21.838,72.067,22.352,72.629,22.466L72.629,22.466z"/>
				</g>
			</g>
			<g>
				<g>
					<path fill="#BFA673" d="M128.477,18.396c0.594,1.086,1.792,1.134,2.898,1.135c0.546,0,0.746-0.691,0.09-0.691
						c-0.855-0.001-1.649-0.037-2.102-0.865C129.161,17.605,128.237,17.957,128.477,18.396L128.477,18.396z"/>
				</g>
			</g>
			<g>
				<g>
					<path fill="#BFA673" d="M161.139,23.503c2.059,0.476,4.132,0.523,6.235,0.524c0.543,0,0.748-0.684,0.092-0.684
						c-1.94-0.001-3.865-0.036-5.765-0.476C161.301,22.776,160.556,23.367,161.139,23.503L161.139,23.503z"/>
				</g>
			</g>
			<g>
				<g>
					<path fill="#BFA673" d="M189.432,21.727c-0.423,2.84,4.623,2.441,6.198,1.728c0.605-0.274,0.063-0.756-0.419-0.537
						c-1.196,0.543-5.115,0.823-4.802-1.272C190.478,21.173,189.494,21.313,189.432,21.727L189.432,21.727z"/>
				</g>
			</g>
			<g>
				<g>
					<path fill="#BFA673" d="M213.472,18.878c0.614,0.547,1.479,0.592,2.263,0.593c0.221,0,0.507-0.07,0.636-0.269
						c0.125-0.191-0.104-0.301-0.266-0.302c-0.588,0-1.273,0.007-1.737-0.407C214.103,18.258,213.196,18.632,213.472,18.878
						L213.472,18.878z"/>
				</g>
			</g>
			<g>
				<g>
					<path fill="#BFA673" d="M223.125,47.452c2.046,0.649,4.655,1.025,6.596-0.118c0.563-0.332-0.284-0.484-0.603-0.297
						c-1.532,0.902-3.804,0.389-5.404-0.118C223.402,46.819,222.58,47.279,223.125,47.452L223.125,47.452z"/>
				</g>
			</g>
			<g>
				<g>
					<path fill="#BFA673" d="M229.971,42.872c0.514,0.469,1.082,0.577,1.759,0.579c0.216,0.001,0.505-0.074,0.638-0.261
						c0.134-0.186-0.112-0.271-0.258-0.271c-0.498-0.001-0.86-0.074-1.241-0.421C230.624,42.275,229.719,42.643,229.971,42.872
						L229.971,42.872z"/>
				</g>
			</g>
			<g>
				<g>
					<path fill="#BFA673" d="M242.965,30.85c1.219,0.638,2.201,1.483,3.641,1.531c0.201,0.006,1.104-0.375,0.628-0.391
						c-1.319-0.043-2.247-0.887-3.359-1.469C243.627,30.392,242.853,30.791,242.965,30.85L242.965,30.85z"/>
				</g>
			</g>
			<g>
				<g>
					<path fill="#BFA673" d="M225.635,20.975c0.579-0.28,1.103-0.43,1.743-0.431c0.555-0.001,0.738-0.718,0.083-0.717
						c-0.81,0.001-1.529,0.216-2.257,0.569C224.611,20.685,225.141,21.215,225.635,20.975L225.635,20.975z"/>
				</g>
			</g>
			<g>
				<g>
					<path fill="#BFA673" d="M279.646,17.027c1.223,0.415,2.427,0.996,3.737,1.033c0.569,0.017,0.725-0.731,0.074-0.75
						c-1.118-0.032-2.221-0.612-3.263-0.967C279.754,16.194,279.059,16.828,279.646,17.027L279.646,17.027z"/>
				</g>
			</g>
			<g>
				<g>
					<path fill="#BFA673" d="M293.796,12.724c1.488-0.947,3.687-1.674,5.171-0.364c0.215,0.189,1.098-0.178,0.905-0.348
						c-1.89-1.665-4.979-0.541-6.829,0.636C292.62,12.918,293.597,12.85,293.796,12.724L293.796,12.724z"/>
				</g>
			</g>
			<g>
				<g>
					<path fill="#BFA673" d="M280.102,70.366c1.624,0.029,3.411,0.463,4.752-0.729c0.181-0.161-0.706-0.049-0.868,0.096
						c-0.818,0.728-2.244,0.29-3.248,0.271C280.555,70.002,279.643,70.357,280.102,70.366L280.102,70.366z"/>
				</g>
			</g>
			<g>
				<g>
					<path fill="#BFA673" d="M286.238,59.481c1.812-0.028,3.595-0.413,5.391-0.016c0.337,0.075,1.144-0.437,0.582-0.561
						c-1.89-0.418-3.706-0.046-5.609-0.016C286.214,58.896,285.585,59.492,286.238,59.481L286.238,59.481z"/>
				</g>
			</g>
			<g>
				<g>
					<path fill="#BFA673" d="M310.026,44.383c2.559,0.951,5.146,0.994,7.809,0.5c0.398-0.074,0.845-0.52,0.17-0.395
						c-2.473,0.458-4.822,0.381-7.191-0.5C310.585,43.903,309.71,44.266,310.026,44.383L310.026,44.383z"/>
				</g>
			</g>
			<g>
				<g>
					<path fill="#BFA673" d="M124.978,58.399c1.131,1.672,2.463,2.585,4.532,2.122c0.607-0.136,0.419-0.806-0.18-0.672
						c-1.649,0.369-2.607-0.606-3.468-1.878C125.612,57.604,124.693,57.979,124.978,58.399L124.978,58.399z"/>
				</g>
			</g>
			<g>
				<g>
					<path fill="#BFA673" d="M152.721,61.916c0.859,0.025,1.628,0.475,2.5,0.5c0.307,0.009,1.047-0.442,0.398-0.461
						c-0.859-0.025-1.628-0.475-2.5-0.5C152.813,61.446,152.072,61.897,152.721,61.916L152.721,61.916z"/>
				</g>
			</g>
			<g>
				<g>
					<path fill="#BFA673" d="M168.234,51.468c2.11-0.001,4.189-0.054,6.253-0.53c0.59-0.137,0.448-0.639-0.135-0.504
						c-1.894,0.438-3.813,0.469-5.747,0.47C168.233,50.903,167.581,51.469,168.234,51.468L168.234,51.468z"/>
				</g>
			</g>
			<g>
				<g>
					<path fill="#BFA673" d="M22.546,46.958c1.411,0.884,3.092,1.117,4.5,2c0.346,0.217,1.203-0.26,0.748-0.545
						c-1.411-0.884-3.092-1.117-4.5-2C22.948,46.196,22.091,46.673,22.546,46.958L22.546,46.958z"/>
				</g>
			</g>
			<g>
				<g>
					<path fill="#BFA673" d="M29.641,88.509c1.233,0.395,2.447,0.526,3.735,0.526c0.55,0.001,0.744-0.699,0.088-0.699
						c-1.128-0.001-2.185-0.128-3.265-0.474C29.79,87.731,29.06,88.322,29.641,88.509L29.641,88.509z"/>
				</g>
			</g>
			<g>
				<g>
					<path fill="#BFA673" d="M67.978,81.899c1.593-0.468,3.887-0.878,5.392,0.068c0.756,0.476,1.319,1.095,2.163,1.438
						c0.265,0.107,1.149-0.288,0.776-0.439c-1.338-0.543-2.152-1.699-3.617-1.993c-1.505-0.303-3.384,0.074-4.829,0.499
						C67.294,81.639,67.404,82.068,67.978,81.899L67.978,81.899z"/>
				</g>
			</g>
			<g>
				<g>
					<path fill="#BFA673" d="M81.22,90.416c1.847,0.029,3.652,0.47,5.5,0.5c0.306,0.005,1.047-0.45,0.399-0.461
						c-1.847-0.029-3.652-0.47-5.5-0.5C81.314,89.95,80.572,90.405,81.22,90.416L81.22,90.416z"/>
				</g>
			</g>
			<g>
				<g>
					<path fill="#BFA673" d="M186.135,87.488c1.86,0.472,3.677,0.988,5.61,1.021c0.428,0.007,1.004-0.636,0.35-0.646
						c-1.858-0.03-3.603-0.526-5.39-0.979C186.329,86.787,185.56,87.343,186.135,87.488L186.135,87.488z"/>
				</g>
			</g>
			<g>
				<g>
					<path fill="#BFA673" d="M223.716,103.4c1.264,0,2.72-0.175,3.936,0.177c0.838,0.243,1.556,0.869,2.314,1.279
						c0.259,0.14,1.065-0.256,0.906-0.342c-0.934-0.505-1.755-1.14-2.788-1.438c-1.213-0.351-2.718-0.105-3.961-0.105
						C223.839,102.971,223.071,103.4,223.716,103.4L223.716,103.4z"/>
				</g>
			</g>
			<g>
				<g>
					<path fill="#BFA673" d="M238.875,92.529c3.116-0.002,6.294,0.018,9.257-1.069c0.624-0.229,0.069-0.729-0.423-0.549
						c-2.769,1.015-5.835,0.93-8.743,0.931C238.421,91.843,238.218,92.529,238.875,92.529L238.875,92.529z"/>
				</g>
			</g>
			<g>
				<g>
					<path fill="#BFA673" d="M287.243,85.002c1.333,0,2.667,0,4,0c0.417,0,1.007-0.633,0.354-0.633c-1.333,0-2.667,0-4,0
						C287.18,84.369,286.59,85.002,287.243,85.002L287.243,85.002z"/>
				</g>
			</g>
			<g>
				<g>
					<path fill="#BFA673" d="M308.471,94.373c1.545,1.162,3.29,1.131,5.16,1.002c3.751-0.26,7.098-1.691,10.904-0.458
						c0.29,0.094,1.164-0.335,0.77-0.463c-1.88-0.609-3.722-0.659-5.682-0.536c-3.192,0.202-7.351,2.264-10.254,0.08
						C309.098,93.794,308.211,94.178,308.471,94.373L308.471,94.373z"/>
				</g>
			</g>
			<g>
				<g>
					<path fill="#BFA673" d="M360.109,96.891c1.167,0,2.333,0,3.5,0c0.234,0,0.485-0.053,0.683-0.183
						c0.147-0.098,0.132-0.228-0.061-0.228c-1.167,0-2.333,0-3.5,0c-0.234,0-0.485,0.053-0.683,0.183
						C359.9,96.761,359.916,96.891,360.109,96.891L360.109,96.891z"/>
				</g>
			</g>
			<g>
				<g>
					<path fill="#BFA673" d="M369.588,87.801c1.874-0.621,3.352-0.914,5.186-0.175c1.575,0.635,3.178,1.128,4.75,1.75
						c0.217,0.085,1.089-0.263,0.792-0.381c-1.35-0.534-2.725-0.907-4.071-1.476c-0.782-0.33-1.613-0.824-2.429-1.024
						c-1.333-0.325-3.346,0.672-4.564,1.075C368.597,87.787,369.217,87.924,369.588,87.801L369.588,87.801z"/>
				</g>
			</g>
			<g>
				<g>
					<path fill="#BFA673" d="M372.631,60.462c2.188-0.856,4.272-1.346,6.619-0.933c0.466,0.082,0.985-0.573,0.339-0.688
						c-2.605-0.458-4.955,0.118-7.381,1.067C371.59,60.151,372.14,60.654,372.631,60.462L372.631,60.462z"/>
				</g>
			</g>
			<g>
				<g>
					<path fill="#BFA673" d="M361.958,60.627c-0.25,0.751-0.563,1.551-0.442,2.354c0.132,0.886,1.139,1.047,1.863,1.064
						c0.558,0.013,0.735-0.703,0.083-0.719c-1.54-0.037-0.89-1.649-0.579-2.582C363.061,60.208,362.095,60.213,361.958,60.627
						L361.958,60.627z"/>
				</g>
			</g>
			<g>
				<g>
					<path fill="#BFA673" d="M401.722,66.921c1.463-0.001,2.848-0.092,4.251-0.538c0.558-0.178,0.462-0.575-0.105-0.395
						c-1.242,0.396-2.456,0.461-3.749,0.462C401.808,66.45,401.073,66.921,401.722,66.921L401.722,66.921z"/>
				</g>
			</g>
			<g>
				<g>
					<path fill="#BFA673" d="M360.811,20.777c0.5-0.5,1-1,1.5-1.5c0.407-0.407-0.542-0.423-0.781-0.184c-0.5,0.5-1,1-1.5,1.5
						C359.622,21.001,360.571,21.017,360.811,20.777L360.811,20.777z"/>
				</g>
			</g>
			<g>
				<g>
					<path fill="#BFA673" d="M399.243,37.5c2.5,0,5,0,7.5,0c0.414,0,1.008-0.629,0.354-0.629c-2.5,0-5,0-7.5,0
						C399.183,36.871,398.589,37.5,399.243,37.5L399.243,37.5z"/>
				</g>
			</g>
			<g>
				<g>
					<path fill="#BFA673" d="M341.48,12.411c1.351-0.423,2.829-0.454,4.126-1.043c0.615-0.278,0.047-0.556-0.373-0.365
						c-1.204,0.546-2.613,0.563-3.874,0.957C340.794,12.137,340.907,12.59,341.48,12.411L341.48,12.411z"/>
				</g>
			</g>
			<g>
				<g>
					<path fill="#BFA673" d="M325.712,64.385c1.687-0.029,3.459-0.406,4.987-1.13c0.578-0.274-0.327-0.249-0.56-0.139
						c-1.231,0.584-2.657,0.846-4.013,0.87C325.864,63.99,325.071,64.396,325.712,64.385L325.712,64.385z"/>
				</g>
			</g>
			<g>
				<g>
					<path fill="#BFA673" d="M340.496,55.467c3.888-0.876,7.165-2.464,11.246-2.473c0.406-0.001,1.011-0.618,0.357-0.617
						c-1.782,0.004-3.527,0.05-5.254,0.527c-2.19,0.604-4.277,1.499-6.5,2C339.748,55.038,339.907,55.6,340.496,55.467
						L340.496,55.467z"/>
				</g>
			</g>
			<g>
				<g>
					<path fill="#BFA673" d="M391.734,8.966c2.815-0.128,5.07-1.904,7.753-2.531c0.589-0.138,0.448-0.634-0.134-0.498
						c-2.476,0.578-4.673,2.352-7.247,2.469C391.743,8.422,391.084,8.995,391.734,8.966L391.734,8.966z"/>
				</g>
			</g>
			<g>
				<g>
					<path fill="#BFA673" d="M452.314,15.792c0.167-0.167,0.333-0.333,0.5-0.5c0.151-0.15,0.099-0.341-0.106-0.396
						c-0.227-0.062-0.517,0.017-0.683,0.183c-0.167,0.167-0.333,0.333-0.5,0.5c-0.151,0.15-0.099,0.341,0.106,0.396
						C451.858,16.036,452.148,15.958,452.314,15.792L452.314,15.792z"/>
				</g>
			</g>
			<g>
				<g>
					<path fill="#BFA673" d="M442.371,10.516c1.833-0.025,4.007-0.542,5.674,0.437c0.339,0.198,1.202-0.269,0.751-0.533
						c-1.892-1.11-4.249-0.591-6.326-0.563C441.936,9.863,441.712,10.524,442.371,10.516L442.371,10.516z"/>
				</g>
			</g>
			<g>
				<g>
					<path fill="#BFA673" d="M444.034,31.412c1.149,0.526,2.454,0.534,3.695,0.535c0.345,0,1.035-0.523,0.383-0.523
						c-1.113-0.001-2.274,0.008-3.305-0.465C444.534,30.834,443.646,31.234,444.034,31.412L444.034,31.412z"/>
				</g>
			</g>
			<g>
				<g>
					<path fill="#BFA673" d="M441.723,54.926c1.5,0,3,0,4.5,0c0.316,0,1.043-0.48,0.394-0.48c-1.5,0-3,0-4.5,0
						C441.801,54.445,441.073,54.926,441.723,54.926L441.723,54.926z"/>
				</g>
			</g>
			<g>
				<g>
					<path fill="#BFA673" d="M480.525,93.381c2.494,0.733,5.248,1.018,7.802,0.373c2.563-0.646,5.142-2.204,7.783-1.859
						c0.223,0.029,1.118-0.353,0.62-0.418c-1.35-0.176-2.789-0.436-4.053,0.287c-3.411,1.949-7.622,2.327-11.362,1.227
						C481.082,92.922,480.22,93.291,480.525,93.381L480.525,93.381z"/>
				</g>
			</g>
			<g>
				<g>
					<path fill="#BFA673" d="M469.013,83.531c1.44-0.477,2.839-0.908,4.368-0.978c0.868-0.04,1.269-0.247,2.144-0.162
						c0.582,0.058,1.146,0.133,1.732,0.158c0.483,0.021,0.98-0.7,0.327-0.729c-1.166-0.049-2.482-0.436-3.641-0.139
						c-1.717,0.439-3.406,0.592-5.115,1.157C468.244,83.033,468.419,83.728,469.013,83.531L469.013,83.531z"/>
				</g>
			</g>
			<g>
				<g>
					<path fill="#BFA673" d="M510.196,102.74c2.365-0.96,4.191-2.222,5.2-4.643c0.062-0.146-0.851-0.064-0.951,0.176
						c-0.945,2.269-2.573,3.452-4.8,4.357C509.057,102.869,509.977,102.83,510.196,102.74L510.196,102.74z"/>
				</g>
			</g>
			<g>
				<g>
					<path fill="#BFA673" d="M487.008,65.514c1.602-0.406,3.203-0.943,4.869-0.978c0.548-0.011,0.745-0.715,0.087-0.701
						c-1.754,0.035-3.444,0.595-5.131,1.022C486.232,65.01,486.411,65.665,487.008,65.514L487.008,65.514z"/>
				</g>
			</g>
			<g>
				<g>
					<path fill="#BFA673" d="M529.606,60.381c4.006-0.036,7.994-0.463,12-0.5c0.199-0.002,1.099-0.396,0.627-0.391
						c-4.006,0.036-7.994,0.463-12,0.5C530.034,59.992,529.135,60.386,529.606,60.381L529.606,60.381z"/>
				</g>
			</g>
			<g>
				<g>
					<path fill="#BFA673" d="M527.869,47.509c3.84-0.033,7.66-0.467,11.5-0.5c0.528-0.005,0.761-0.652,0.102-0.646
						c-3.84,0.033-7.66,0.467-11.5,0.5C527.442,46.867,527.21,47.515,527.869,47.509L527.869,47.509z"/>
				</g>
			</g>
			<g>
				<g>
					<path fill="#BFA673" d="M496.735,22.47c0.786,0,1.955-0.218,2.677,0.144c0.875,0.438,1.75,0.875,2.625,1.313
						c0.294,0.146,1.179-0.273,0.766-0.48c-1-0.5-2-1-3-1.5c-0.207-0.104-0.52-0.044-0.737-0.044c-0.653,0-1.307,0-1.96,0
						C496.73,21.901,496.082,22.47,496.735,22.47L496.735,22.47z"/>
				</g>
			</g>
			<g>
				<g>
					<path fill="#BFA673" d="M520.217,28.903c4.282,0.034,8.533,0.396,12.75-0.541c0.578-0.129,0.475-0.479-0.094-0.354
						c-4.036,0.896-8.156,0.492-12.25,0.459C520.334,28.466,519.571,28.898,520.217,28.903L520.217,28.903z"/>
				</g>
			</g>
			<g>
				<g>
					<path fill="#BFA673" d="M514.967,11.858c0.167,0.166,0.334,0.333,0.5,0.5c0.196,0.196,1.094-0.157,0.906-0.346
						c-0.167-0.166-0.334-0.333-0.5-0.5C515.677,11.316,514.779,11.67,514.967,11.858L514.967,11.858z"/>
				</g>
			</g>
			<g>
				<g>
					<path fill="#BFA673" d="M556.206,32.277c0.796-0.37,1.653-0.368,2.513-0.369c0.294,0,1.05-0.446,0.402-0.445
						c-1.223,0.001-2.366,0.109-3.487,0.631c-0.103,0.047-0.317,0.228-0.106,0.296C555.745,32.459,556.01,32.369,556.206,32.277
						L556.206,32.277z"/>
				</g>
			</g>
			<g>
				<g>
					<path fill="#BFA673" d="M565.313,39.789c0.139-0.151,0.263-0.306,0.379-0.475c0.05-0.079,0.099-0.157,0.147-0.236
						c0.106-0.11,0.114-0.142,0.022-0.092c0.499-0.049,0.78-0.665,0.115-0.602c-0.808,0.078-0.966,0.668-1.451,1.197
						C564.129,40.016,565.068,40.057,565.313,39.789L565.313,39.789z"/>
				</g>
			</g>
			<g>
				<g>
					<path fill="#BFA673" d="M568.826,65.337c0.843-0.86,1.503-1.885,2.686-2.308c0.575-0.206,0.405-0.898-0.184-0.688
						c-1.475,0.527-2.26,1.615-3.314,2.692c-0.164,0.167-0.071,0.411,0.13,0.485C568.387,65.61,568.653,65.515,568.826,65.337
						L568.826,65.337z"/>
				</g>
			</g>
			<g>
				<g>
					<path fill="#BFA673" d="M582.234,96.469c0.27,0.016,0.538,0.179,0.787,0.271c0.393,0.147,0.795,0.217,1.213,0.229
						c0.219,0.007,0.51-0.073,0.637-0.268c0.127-0.193-0.106-0.295-0.266-0.299c-0.718-0.021-1.299-0.461-2-0.5
						C582.225,95.881,581.58,96.433,582.234,96.469L582.234,96.469z"/>
				</g>
			</g>
			<g>
				<g>
					<path fill="#BFA673" d="M640.043,98.947c0.965,0.449,2.038,0.552,3,1c0.223,0.104,0.488,0.069,0.689-0.07
						c0.134-0.094,0.285-0.35,0.064-0.453c-0.965-0.449-2.038-0.552-3-1c-0.223-0.104-0.488-0.069-0.689,0.07
						C639.974,98.588,639.822,98.844,640.043,98.947L640.043,98.947z"/>
				</g>
			</g>
			<g>
				<g>
					<path fill="#BFA673" d="M638.737,75.98c0.422,0.037,0.666,0.456,0.699,0.834c0.031,0.354,1.001,0.138,0.967-0.258
						c-0.062-0.689-0.651-1.108-1.301-1.166C638.704,75.355,638.084,75.923,638.737,75.98L638.737,75.98z"/>
				</g>
			</g>
			<g>
				<g>
					<path fill="#BFA673" d="M590.758,2.555c2.436,0.553,4.561,1.947,7,2.5c0.498,0.113,0.962-0.594,0.324-0.738
						c-2.436-0.553-4.561-1.947-7-2.5C590.584,1.703,590.12,2.41,590.758,2.555L590.758,2.555z"/>
				</g>
			</g>
			<g>
				<g>
					<path fill="#BFA673" d="M606.232,21.96c1.166,0,2.333,0,3.5,0c0.361,0,1.028-0.549,0.375-0.549c-1.166,0-2.333,0-3.5,0
						C606.246,21.411,605.579,21.96,606.232,21.96L606.232,21.96z"/>
				</g>
			</g>
			<g>
				<g>
					<path fill="#BFA673" d="M602.715,59.31c0.866-0.446,1.633-1.054,2.5-1.5c0.124-0.063,0.299-0.26,0.093-0.347
						c-0.216-0.09-0.488-0.001-0.683,0.099c-0.866,0.446-1.633,1.054-2.5,1.5c-0.124,0.063-0.299,0.26-0.093,0.347
						C602.248,59.498,602.521,59.409,602.715,59.31L602.715,59.31z"/>
				</g>
			</g>
			<g>
				<g>
					<path fill="#BFA673" d="M689.026,93.885c2.705,0.5,5.448,0.516,8.19,0.516c0.284,0,1.052-0.43,0.406-0.43
						c-2.61-0.001-5.233-0.009-7.81-0.484C689.571,93.441,688.726,93.829,689.026,93.885L689.026,93.885z"/>
				</g>
			</g>
			<g>
				<g>
					<path fill="#BFA673" d="M641.217,4.318c3.205-1.73,7.252,0.459,10.513,0.631c0.352,0.018,1.033-0.492,0.381-0.527
						c-1.58-0.082-2.871-0.711-4.393-0.99c-0.79-0.145-1.695-0.082-2.498-0.117c-1.57-0.069-3.188-0.021-4.597,0.738
						C640.051,4.362,640.915,4.481,641.217,4.318L641.217,4.318z"/>
				</g>
			</g>
			<g>
				<g>
					<path fill="#BFA673" d="M641.467,42.857c0.576,0.514,1.428,0.489,2,1c0.21,0.188,1.092-0.178,0.906-0.344
						c-0.576-0.514-1.428-0.489-2-1C642.163,42.326,641.281,42.691,641.467,42.857L641.467,42.857z"/>
				</g>
			</g>
			<g>
				<g>
					<path fill="#BFA673" d="M652.031,32.401c1.188,0.349,2.408,0.486,3.628,0.68c2.02,0.319,3.406,1.388,4.81,2.784
						c0.216,0.215,1.122-0.141,0.902-0.359c-1.077-1.071-2.136-1.981-3.563-2.536c-1.577-0.613-3.377-0.524-5-1
						C652.545,31.892,651.674,32.297,652.031,32.401L652.031,32.401z"/>
				</g>
			</g>
			<g>
				<g>
					<path fill="#BFA673" d="M677.361,65.98c1.766-0.151,3.303-1.038,5.113-0.968c1.936,0.075,3.809,0.953,5.655,1.456
						c0.341,0.093,1.142-0.413,0.58-0.566c-1.709-0.465-3.394-1.209-5.165-1.408c-2.233-0.25-3.892,0.709-6.066,0.896
						C676.981,65.434,676.695,66.038,677.361,65.98L677.361,65.98z"/>
				</g>
			</g>
			<g>
				<g>
					<path fill="#BFA673" d="M671.718,7.906c2.952-0.003,5.855-0.166,8.487-1.631c0.564-0.314-0.317-0.32-0.57-0.18
						c-2.336,1.3-4.91,1.367-7.513,1.369C671.831,7.466,671.071,7.906,671.718,7.906L671.718,7.906z"/>
				</g>
			</g>
			<g>
				<g>
					<path fill="#BFA673" d="M693.103,21.367c0.833,0,1.667,0,2.5,0c0.229,0,0.485-0.069,0.683-0.183
						c0.157-0.09,0.132-0.181-0.048-0.181c-0.833,0-1.667,0-2.5,0c-0.229,0-0.485,0.069-0.683,0.183
						C692.897,21.276,692.923,21.367,693.103,21.367L693.103,21.367z"/>
				</g>
			</g>
			<g>
				<g>
					<path fill="#BFA673" d="M671.243,37.501c0.415,0,1.007-0.631,0.354-0.631C671.182,36.87,670.59,37.501,671.243,37.501
						L671.243,37.501z"/>
				</g>
			</g>
			<g>
				<g>
					<path fill="#BFA673" d="M719.604,50.357c1.61-0.723,2.922,0.02,4.429,0.548c0.268,0.095,1.146-0.31,0.775-0.439
						c-1.957-0.687-3.552-1.359-5.571-0.452C718.619,50.291,719.191,50.543,719.604,50.357L719.604,50.357z"/>
				</g>
			</g>
			<g>
				<g>
					<path fill="#BFA673" d="M727.244,50.505c0.421,0,1.005-0.639,0.352-0.639C727.175,49.866,726.591,50.505,727.244,50.505
						L727.244,50.505z"/>
				</g>
			</g>
			<g>
				<g>
					<path fill="#BFA673" d="M706.465,58.849c2.372,1.392,4.862,2.445,7.558,3.021c0.222,0.048,1.059-0.312,0.795-0.367
						c-2.654-0.566-5.106-1.609-7.442-2.979C707.139,58.384,706.35,58.781,706.465,58.849L706.465,58.849z"/>
				</g>
			</g>
			<g>
				<g>
					<path fill="#BFA673" d="M744.64,8.505c1.9,0.451,3.79,0.525,5.735,0.525c0.546,0.001,0.746-0.689,0.09-0.689
						c-1.783-0.001-3.521-0.061-5.265-0.475C744.796,7.771,744.056,8.366,744.64,8.505L744.64,8.505z"/>
				</g>
			</g>
			<g>
				<g>
					<path fill="#BFA673" d="M719.966,15.853c2.392,1.687,5.951,2.61,8.734,1.405c0.586-0.254-0.324-0.246-0.561-0.145
						c-2.191,0.949-5.45-0.315-7.266-1.595C720.647,15.358,719.813,15.745,719.966,15.853L719.966,15.853z"/>
				</g>
			</g>
			<g>
				<g>
					<path fill="#BFA673" d="M778.735,31.471c1.833,0,3.666,0,5.5,0c0.375,0,1.023-0.57,0.369-0.57c-1.833,0-3.666,0-5.5,0
						C778.729,30.9,778.081,31.471,778.735,31.471L778.735,31.471z"/>
				</g>
			</g>
			<g>
				<g>
					<path fill="#BFA673" d="M783.604,8.871c0.868,0.025,1.728,0.378,2.36,0.975c0.176,0.166,1.039-0.201,0.912-0.32
						c-0.709-0.67-1.677-0.998-2.64-1.025c-0.227-0.007-0.489,0.068-0.684,0.183C783.394,8.776,783.425,8.866,783.604,8.871
						L783.604,8.871z"/>
				</g>
			</g>
			<g>
				<g>
					<path fill="#BFA673" d="M751.53,27.898c2.416,0.616,5.459,1.498,7.334-0.723c0.244-0.289-0.713-0.188-0.889,0.02
						c-1.407,1.668-3.887,0.73-5.666,0.277C752.049,27.405,751.185,27.811,751.53,27.898L751.53,27.898z"/>
				</g>
			</g>
			<g>
				<g>
					<path fill="#BFA673" d="M757.036,56.923c0.632,0.307,1.415,0.463,1.936,0.954c0.254,0.238,1.164-0.13,0.896-0.383
						c-0.572-0.539-1.373-0.71-2.064-1.046C757.513,56.307,756.627,56.725,757.036,56.923L757.036,56.923z"/>
				</g>
			</g>
			<g>
				<g>
					<path fill="#BFA673" d="M752.237,79.479c1.594,0.042,3.792,0.528,5.295-0.264c2.069-1.092,3.787-2.532,5.692-3.866
						c0.538-0.377-0.283-0.557-0.609-0.328c-1.077,0.754-2.089,1.594-3.148,2.371c-0.968,0.709-2.183,1.427-3.359,1.601
						c-1.111,0.164-2.38-0.072-3.505-0.102C752.211,78.881,751.583,79.463,752.237,79.479L752.237,79.479z"/>
				</g>
			</g>
			<g>
				<g>
					<path fill="#BFA673" d="M769.213,70.886c2.036-0.058,4.221-0.654,6.104,0.37c1.292,0.703,2.266,1.672,3.707,2.12
						c0.225,0.07,1.085-0.29,0.791-0.381c-1.85-0.576-3.108-2.146-4.978-2.622c-1.646-0.418-3.546,0.065-5.211,0.112
						C769.364,70.492,768.571,70.904,769.213,70.886L769.213,70.886z"/>
				</g>
			</g>
			<g>
				<g>
					<path fill="#BFA673" d="M731.937,92.314c0.189,0.573,0.336,1.177,0.662,1.691c0.333,0.527,0.97,0.767,1.53,0.96
						c0.334,0.115,1.135-0.37,0.582-0.561c-0.479-0.165-0.922-0.366-1.22-0.79c-0.31-0.441-0.422-1.055-0.588-1.559
						C732.781,91.687,731.819,91.959,731.937,92.314L731.937,92.314z"/>
				</g>
			</g>
			<g>
				<g>
					<path fill="#BFA673" d="M764.042,96.944c0.713,0.346,1.407,0.558,2.201,0.558c0.229,0.001,0.512-0.063,0.633-0.281
						c0.11-0.197-0.093-0.352-0.279-0.352c-0.656-0.001-1.206-0.154-1.799-0.442c-0.219-0.106-0.491-0.063-0.689,0.072
						C763.973,96.593,763.824,96.839,764.042,96.944L764.042,96.944z"/>
				</g>
			</g>
			<g>
				<g>
					<path fill="#BFA673" d="M793.219,104.909c0.666,0,1.333,0,2,0c0.295,0,1.049-0.447,0.402-0.447c-0.666,0-1.333,0-2,0
						C793.326,104.462,792.572,104.909,793.219,104.909L793.219,104.909z"/>
				</g>
			</g>
			<g>
				<g>
					<path fill="#BFA673" d="M780.437,95.814c0.453,1.01-0.003,2.477,1.103,3.117c0.297,0.172,1.181-0.249,0.762-0.492
						c-0.893-0.517-0.521-2.045-0.897-2.883C781.241,95.195,780.291,95.49,780.437,95.814L780.437,95.814z"/>
				</g>
			</g>
			<g>
				<g>
					<path fill="#BFA673" d="M794.468,82.865c1.564-0.458,3.14-0.457,4.75-0.459c0.263-0.001,0.645-0.165,0.835-0.226
						c1.488-0.47,3.035-0.384,4.475,0.207c0.234,0.097,1.116-0.269,0.785-0.404c-1.548-0.636-3.099-0.765-4.729-0.329
						c-2.041,0.544-4.163,0.252-6.211,0.852C793.81,82.671,793.901,83.031,794.468,82.865L794.468,82.865z"/>
				</g>
			</g>
			<g>
				<g>
					<path fill="#BFA673" d="M812.881,67.053c0.666,0,1.333,0,2,0c0.562,0,0.732-0.734,0.078-0.734c-0.666,0-1.333,0-2,0
						C812.397,66.318,812.227,67.053,812.881,67.053L812.881,67.053z"/>
				</g>
			</g>
			<g>
				<g>
					<path fill="#BFA673" d="M795.937,56.314c0.628,1.027,2.418,1.313,3.522,1.018c1.652-0.442,1.82-1.886,2.438-3.232
						c0.068-0.149-0.841-0.073-0.953,0.172c-0.369,0.808-0.488,1.723-1.085,2.413c-0.681,0.787-2.479,0.151-2.955-0.628
						C796.758,55.818,795.861,56.19,795.937,56.314L795.937,56.314z"/>
				</g>
			</g>
			<g>
				<g>
					<path fill="#BFA673" d="M809.467,38.856c0.881,0.415,1.784,0.542,2.749,0.543c0.283,0,1.053-0.427,0.408-0.428
						c-0.781-0.001-1.539-0.121-2.251-0.457c-0.192-0.091-0.436-0.032-0.626,0.039C809.714,38.566,809.292,38.773,809.467,38.856
						L809.467,38.856z"/>
				</g>
			</g>
			<g>
				<g>
					<path fill="#BFA673" d="M865.534,13.913c1.656,0.513,3.289,0.515,4.947,0.001c0.566-0.175,0.451-0.635-0.123-0.457
						c-1.362,0.422-2.689,0.424-4.053,0.001C866.023,13.371,865.15,13.794,865.534,13.913L865.534,13.913z"/>
				</g>
			</g>
			<g>
				<g>
					<path fill="#BFA673" d="M908.139,14.5c1.702,0.533,3.467,0.523,5.234,0.524c0.541,0,0.75-0.678,0.094-0.678
						c-1.608,0-3.216,0.009-4.766-0.476C908.307,13.747,907.561,14.319,908.139,14.5L908.139,14.5z"/>
				</g>
			</g>
			<g>
				<g>
					<path fill="#BFA673" d="M844.104,35.369c3.192,0.082,6.181,1.354,9.352,0.447c0.556-0.159,0.488-0.421-0.07-0.262
						c-2.824,0.808-5.791-0.479-8.648-0.553C844.55,34.997,843.64,35.357,844.104,35.369L844.104,35.369z"/>
				</g>
			</g>
			<g>
				<g>
					<path fill="#BFA673" d="M847.725,47.43c0.824,0.024,1.646,0.37,2.244,0.936c0.224,0.211,1.125-0.149,0.902-0.359
						c-0.741-0.7-1.749-1.036-2.756-1.064C847.79,46.932,847.074,47.411,847.725,47.43L847.725,47.43z"/>
				</g>
			</g>
			<g>
				<g>
					<path fill="#BFA673" d="M868.512,43.529c1.271-0.314,2.317-0.839,3.39-1.579c0.743-0.514,1.437-1.033,2.235-1.467
						c1.517-0.824,2.981-0.445,4.507,0.037c0.431,0.136,1.139-0.484,0.553-0.67c-1.463-0.462-3.439-1.045-4.909-0.271
						c-2.014,1.061-3.718,2.706-5.959,3.262C867.725,42.991,867.912,43.679,868.512,43.529L868.512,43.529z"/>
				</g>
			</g>
			<g>
				<g>
					<path fill="#BFA673" d="M931.937,21.814c0.592,1.543,2.311,1.497,3.597,2.097c0.269,0.125,1.158-0.271,0.773-0.451
						c-1.178-0.548-2.862-0.493-3.403-1.903C932.78,21.236,931.826,21.526,931.937,21.814L931.937,21.814z"/>
				</g>
			</g>
			<g>
				<g>
					<path fill="#BFA673" d="M866.521,61.864c1.767,0.575,3.608,0.978,5.435,0.454c0.556-0.159,0.488-0.426-0.07-0.266
						c-1.487,0.427-3.144-0.082-4.565-0.546C867.111,61.439,866.261,61.779,866.521,61.864L866.521,61.864z"/>
				</g>
			</g>
			<g>
				<g>
					<path fill="#BFA673" d="M890.877,98.539c2.675-0.033,5.325-0.466,8-0.5c0.551-0.007,0.742-0.716,0.086-0.707
						c-2.675,0.033-5.325,0.466-8,0.5C890.412,97.839,890.221,98.548,890.877,98.539L890.877,98.539z"/>
				</g>
			</g>
			<g>
				<g>
					<path fill="#BFA673" d="M864.872,96.02c1.292-0.001,2.565-0.008,3.757-0.569c0.601-0.282,0.062-0.755-0.418-0.529
						c-1.015,0.478-2.146,0.431-3.243,0.431C864.431,95.352,864.215,96.02,864.872,96.02L864.872,96.02z"/>
				</g>
			</g>
			<g>
				<g>
					<path fill="#BFA673" d="M939.108,95.39c3.838,0.417,7.654,0.032,11.5,0c0.21-0.002,1.103-0.412,0.623-0.408
						c-3.842,0.032-7.667,0.417-11.5,0C939.516,94.958,938.617,95.336,939.108,95.39L939.108,95.39z"/>
				</g>
			</g>
			<g>
				<g>
					<path fill="#BFA673" d="M917.486,84.433c1.232-0.419,2.426-0.938,3.747-0.968c0.364-0.009,1.024-0.572,0.373-0.559
						c-1.512,0.034-2.84,0.552-4.253,1.032C916.793,84.129,916.911,84.628,917.486,84.433L917.486,84.433z"/>
				</g>
			</g>
			<g>
				<g>
					<path fill="#BFA673" d="M906.372,77.519c0.536,0,0.753-0.666,0.096-0.666C905.932,76.853,905.715,77.519,906.372,77.519
						L906.372,77.519z"/>
				</g>
			</g>
			<g>
				<g>
					<path fill="#BFA673" d="M920.109,71.392c0.666,0,1.333,0,2,0c0.234,0,0.484-0.052,0.683-0.183
						c0.147-0.098,0.133-0.229-0.062-0.229c-0.666,0-1.333,0-2,0c-0.234,0-0.484,0.052-0.683,0.183
						C919.9,71.26,919.915,71.392,920.109,71.392L920.109,71.392z"/>
				</g>
			</g>
			<g>
				<g>
					<path fill="#BFA673" d="M961.84,53.901c2.947-0.571,5.255-2.265,7.867-3.619c0.574-0.297-0.312-0.33-0.574-0.193
						c-2.356,1.221-4.468,2.864-7.133,3.381C961.589,53.55,961.168,54.031,961.84,53.901L961.84,53.901z"/>
				</g>
			</g>
			<g>
				<g>
					<path fill="#BFA673" d="M975.735,22.971c1.526,0,3.106,0.115,4.623-0.096c1.347-0.187,2.504-1.014,3.756-1.479
						c0.632-0.234,0.057-0.588-0.389-0.422c-1.263,0.469-2.361,1.219-3.722,1.407c-1.249,0.174-2.639,0.019-3.899,0.019
						C975.729,22.4,975.082,22.971,975.735,22.971L975.735,22.971z"/>
				</g>
			</g>
			<g>
				<g>
					<path fill="#BFA673" d="M961.104,11.875c1.167,0,2.334,0,3.5,0c0.193,0,1.098-0.379,0.631-0.379c-1.167,0-2.334,0-3.5,0
						C961.542,11.496,960.638,11.875,961.104,11.875L961.104,11.875z"/>
				</g>
			</g>
			<g>
				<g>
					<path fill="#BFA673" d="M948.873,41.524c2.503-0.093,5.877-2.022,8.173-0.567c0.343,0.217,1.2-0.256,0.748-0.543
						c-2.628-1.666-6.045,0.329-8.827,0.433C948.429,40.866,948.214,41.549,948.873,41.524L948.873,41.524z"/>
				</g>
			</g>
			<g>
				<g>
					<path fill="#BFA673" d="M928.718,51.905c1,0,2,0,3,0c0.29,0,1.051-0.439,0.404-0.439c-1,0-2,0-3,0
						C928.832,51.466,928.071,51.905,928.718,51.905L928.718,51.905z"/>
				</g>
			</g>
			<g>
				<g>
					<path fill="#BFA673" d="M1002.747,60.515c0.666,0,1.333,0,2,0c0.23,0,0.512-0.062,0.631-0.287
						c0.105-0.198-0.09-0.371-0.285-0.371c-0.666,0-1.333,0-2,0c-0.23,0-0.512,0.062-0.631,0.287
						C1002.356,60.342,1002.552,60.515,1002.747,60.515L1002.747,60.515z"/>
				</g>
			</g>
			<g>
				<g>
					<path fill="#BFA673" d="M1005.136,49.478c3.123-1.901,9.047-4.254,12.413-2.01c1.458,0.973,2.942-0.745,3.776-1.635
						c0.419-0.446-0.508-0.618-0.811-0.295c-0.956,1.019-5.823,0.319-7.649,0.599c-2.918,0.447-5.632,1.218-8.161,2.757
						C1004.146,49.232,1004.658,49.768,1005.136,49.478L1005.136,49.478z"/>
				</g>
			</g>
			<g>
				<g>
					<path fill="#BFA673" d="M998.72,87.915c3,0,6,0,9,0c0.303,0,1.048-0.459,0.4-0.459c-3,0-6,0-9,0
						C998.817,87.456,998.072,87.915,998.72,87.915L998.72,87.915z"/>
				</g>
			</g>
			<g>
				<g>
					<path fill="#BFA673" d="M977.628,93.462c1.92,0.552,3.771,1.925,5.729,2.286c1.853,0.342,3.359-0.3,5.134-0.802
						c0.579-0.164,0.442-0.687-0.141-0.521c-2.116,0.599-4.034,0.984-6.181,0.064c-1.323-0.567-2.568-1.181-3.957-1.58
						C977.883,92.814,977.072,93.302,977.628,93.462L977.628,93.462z"/>
				</g>
			</g>
			<g>
				<g>
					<path fill="#BFA673" d="M88.932,49.777c0.724,0.68,1.546,0.827,2.509,0.829c0.216,0,0.504-0.074,0.639-0.26
						s-0.113-0.269-0.258-0.27c-0.784-0.001-1.399-0.115-1.991-0.671C89.59,49.18,88.683,49.545,88.932,49.777L88.932,49.777z"/>
				</g>
			</g>
			<g>
				<g>
					<path fill="#BFA673" d="M109.572,93.389c1.644-0.075,3.265-0.328,4.804-0.943c2.742-1.098,4.871-3.312,7.945-3.557
						c0.5-0.04,0.781-0.65,0.115-0.598c-1.654,0.132-3.022,0.678-4.476,1.461c-2.818,1.517-4.959,2.889-8.273,3.039
						C109.182,92.814,108.908,93.419,109.572,93.389L109.572,93.389z"/>
				</g>
			</g>
			<g>
				<g>
					<path fill="#BFA673" d="M1004.888,16.082c1,0,2,0,3,0c0.313,0,1.044-0.477,0.395-0.477c-1,0-2,0-3,0
						C1004.969,15.605,1004.238,16.082,1004.888,16.082L1004.888,16.082z"/>
				</g>
			</g>
			<g>
				<g>
					<path fill="#BFA673" d="M884.903,77.616c1.5,0,3,0,4.5,0c0.362,0,1.028-0.551,0.375-0.551c-1.5,0-3,0-4.5,0
						C884.916,77.065,884.25,77.616,884.903,77.616L884.903,77.616z"/>
				</g>
			</g>
			<g>
				<g>
					<path fill="#BFA673" d="M962.146,70.103c2.526,0.039,4.979,0.7,7.5,0.75c0.348,0.007,1.035-0.511,0.383-0.523
						c-2.519-0.051-4.975-0.712-7.5-0.75C962.181,69.573,961.493,70.093,962.146,70.103L962.146,70.103z"/>
				</g>
			</g>
		</g>
	</g>
</g>
</svg>
