<?xml version="1.0" encoding="utf-8"?>
<!-- Generator: Adobe Illustrator 16.0.0, SVG Export Plug-In . SVG Version: 6.00 Build 0)  -->
<!DOCTYPE svg PUBLIC "-//W3C//DTD SVG 1.1//EN" "http://www.w3.org/Graphics/SVG/1.1/DTD/svg11.dtd">
<svg version="1.1" id="Ebene_1" xmlns="http://www.w3.org/2000/svg" xmlns:xlink="http://www.w3.org/1999/xlink" x="0px" y="0px"
	 width="1000px" height="105.656px" viewBox="24 0 1000 105.656" enable-background="new 24 0 1000 105.656" xml:space="preserve">
<g>
	<g>
		<rect x="9" y="0" fill="#F7ECDF" width="1024" height="105.656"/>
		<g>
			<g>
				<g>
					<path fill="#BFA673" d="M27.767,17.652c3.755-1.339,7.731-0.72,11.622-0.673c0.349,0.004,1.033-0.521,0.382-0.527
						c-4.194-0.05-8.344-0.612-12.378,0.827C26.752,17.507,27.34,17.805,27.767,17.652L27.767,17.652z"/>
				</g>
			</g>
			<g>
				<g>
					<path fill="#BFA673" d="M40.289,25.328c4.25,0,8.5,0,12.749,0c0.56,0,0.736-0.725,0.081-0.725c-4.25,0-8.5,0-12.749,0
						C39.811,24.604,39.634,25.328,40.289,25.328L40.289,25.328z"/>
				</g>
			</g>
			<g>
				<g>
					<path fill="#BFA673" d="M81.629,22.466c2.182,0.441,4.343,0.961,6.5,1.5c0.337,0.084,1.144-0.42,0.582-0.561
						c-2.157-0.539-4.318-1.058-6.5-1.5C81.875,21.838,81.067,22.352,81.629,22.466L81.629,22.466z"/>
				</g>
			</g>
			<g>
				<g>
					<path fill="#BFA673" d="M137.477,18.396c0.594,1.086,1.792,1.134,2.897,1.135c0.546,0,0.746-0.691,0.09-0.691
						c-0.854-0.001-1.648-0.036-2.102-0.864C138.161,17.605,137.237,17.957,137.477,18.396L137.477,18.396z"/>
				</g>
			</g>
			<g>
				<g>
					<path fill="#BFA673" d="M170.139,23.503c2.059,0.477,4.132,0.523,6.234,0.524c0.543,0,0.748-0.684,0.092-0.684
						c-1.939-0.002-3.864-0.036-5.765-0.477C170.301,22.776,169.556,23.367,170.139,23.503L170.139,23.503z"/>
				</g>
			</g>
			<g>
				<g>
					<path fill="#BFA673" d="M198.432,21.727c-0.424,2.84,4.623,2.44,6.197,1.728c0.605-0.273,0.063-0.756-0.419-0.537
						c-1.195,0.543-5.114,0.823-4.802-1.271C199.478,21.173,198.494,21.313,198.432,21.727L198.432,21.727z"/>
				</g>
			</g>
			<g>
				<g>
					<path fill="#BFA673" d="M222.472,18.878c0.613,0.547,1.479,0.593,2.263,0.594c0.221,0,0.507-0.07,0.636-0.27
						c0.125-0.19-0.104-0.301-0.266-0.302c-0.588,0-1.273,0.007-1.737-0.407C223.103,18.258,222.196,18.632,222.472,18.878
						L222.472,18.878z"/>
				</g>
			</g>
			<g>
				<g>
					<path fill="#BFA673" d="M232.125,47.452c2.046,0.649,4.655,1.025,6.597-0.118c0.563-0.332-0.284-0.483-0.604-0.297
						c-1.532,0.902-3.804,0.39-5.404-0.118C232.402,46.819,231.58,47.279,232.125,47.452L232.125,47.452z"/>
				</g>
			</g>
			<g>
				<g>
					<path fill="#BFA673" d="M238.971,42.872c0.514,0.469,1.082,0.577,1.759,0.579c0.216,0.001,0.505-0.074,0.638-0.261
						c0.134-0.187-0.112-0.271-0.258-0.271c-0.498-0.001-0.86-0.073-1.241-0.421C239.624,42.275,238.719,42.643,238.971,42.872
						L238.971,42.872z"/>
				</g>
			</g>
			<g>
				<g>
					<path fill="#BFA673" d="M251.965,30.85c1.22,0.638,2.201,1.482,3.642,1.53c0.201,0.007,1.104-0.375,0.628-0.391
						c-1.319-0.043-2.247-0.887-3.359-1.469C252.627,30.392,251.853,30.791,251.965,30.85L251.965,30.85z"/>
				</g>
			</g>
			<g>
				<g>
					<path fill="#BFA673" d="M234.635,20.975c0.579-0.28,1.104-0.431,1.743-0.432c0.556-0.001,0.738-0.718,0.083-0.717
						c-0.81,0.001-1.528,0.216-2.257,0.569C233.611,20.685,234.141,21.215,234.635,20.975L234.635,20.975z"/>
				</g>
			</g>
			<g>
				<g>
					<path fill="#BFA673" d="M288.646,17.027c1.223,0.415,2.427,0.996,3.736,1.033c0.569,0.017,0.726-0.731,0.074-0.75
						c-1.118-0.032-2.221-0.612-3.263-0.967C288.754,16.194,288.059,16.828,288.646,17.027L288.646,17.027z"/>
				</g>
			</g>
			<g>
				<g>
					<path fill="#BFA673" d="M302.796,12.724c1.488-0.947,3.688-1.675,5.172-0.364c0.215,0.188,1.098-0.178,0.904-0.348
						c-1.89-1.665-4.979-0.541-6.829,0.636C301.62,12.918,302.597,12.85,302.796,12.724L302.796,12.724z"/>
				</g>
			</g>
			<g>
				<g>
					<path fill="#BFA673" d="M289.102,70.366c1.624,0.029,3.411,0.463,4.752-0.729c0.181-0.161-0.706-0.05-0.868,0.096
						c-0.818,0.728-2.244,0.29-3.248,0.271C289.555,70.002,288.643,70.357,289.102,70.366L289.102,70.366z"/>
				</g>
			</g>
			<g>
				<g>
					<path fill="#BFA673" d="M295.238,59.481c1.812-0.028,3.595-0.413,5.391-0.017c0.337,0.075,1.145-0.437,0.582-0.561
						c-1.89-0.418-3.706-0.046-5.608-0.016C295.214,58.896,294.585,59.492,295.238,59.481L295.238,59.481z"/>
				</g>
			</g>
			<g>
				<g>
					<path fill="#BFA673" d="M319.026,44.383c2.56,0.951,5.146,0.994,7.81,0.5c0.397-0.073,0.845-0.52,0.17-0.395
						c-2.474,0.458-4.822,0.381-7.191-0.5C319.586,43.903,318.711,44.266,319.026,44.383L319.026,44.383z"/>
				</g>
			</g>
			<g>
				<g>
					<path fill="#BFA673" d="M133.978,58.399c1.131,1.672,2.463,2.585,4.531,2.122c0.607-0.136,0.42-0.807-0.18-0.672
						c-1.648,0.369-2.606-0.606-3.468-1.878C134.612,57.604,133.693,57.979,133.978,58.399L133.978,58.399z"/>
				</g>
			</g>
			<g>
				<g>
					<path fill="#BFA673" d="M161.721,61.916c0.858,0.025,1.628,0.476,2.5,0.5c0.307,0.009,1.047-0.441,0.397-0.461
						c-0.859-0.024-1.628-0.475-2.5-0.5C161.813,61.446,161.072,61.897,161.721,61.916L161.721,61.916z"/>
				</g>
			</g>
			<g>
				<g>
					<path fill="#BFA673" d="M177.234,51.469c2.11-0.002,4.188-0.055,6.253-0.53c0.59-0.137,0.448-0.64-0.135-0.504
						c-1.895,0.438-3.813,0.469-5.747,0.47C177.233,50.903,176.581,51.469,177.234,51.469L177.234,51.469z"/>
				</g>
			</g>
			<g>
				<g>
					<path fill="#BFA673" d="M31.546,46.958c1.411,0.884,3.093,1.117,4.5,2c0.347,0.217,1.203-0.26,0.748-0.545
						c-1.411-0.884-3.092-1.117-4.5-2C31.948,46.196,31.091,46.673,31.546,46.958L31.546,46.958z"/>
				</g>
			</g>
			<g>
				<g>
					<path fill="#BFA673" d="M38.641,88.51c1.232,0.395,2.446,0.525,3.734,0.525c0.55,0.001,0.744-0.699,0.088-0.699
						c-1.128-0.001-2.185-0.128-3.265-0.474C38.79,87.731,38.06,88.322,38.641,88.51L38.641,88.51z"/>
				</g>
			</g>
			<g>
				<g>
					<path fill="#BFA673" d="M76.978,81.899c1.593-0.468,3.887-0.878,5.392,0.067c0.756,0.477,1.319,1.096,2.163,1.438
						c0.265,0.107,1.149-0.288,0.776-0.439c-1.338-0.543-2.152-1.698-3.617-1.992c-1.505-0.304-3.384,0.073-4.829,0.499
						C76.294,81.639,76.404,82.068,76.978,81.899L76.978,81.899z"/>
				</g>
			</g>
			<g>
				<g>
					<path fill="#BFA673" d="M90.22,90.416c1.847,0.029,3.651,0.471,5.5,0.5c0.306,0.005,1.047-0.45,0.398-0.461
						c-1.847-0.028-3.652-0.47-5.5-0.5C90.314,89.95,89.572,90.405,90.22,90.416L90.22,90.416z"/>
				</g>
			</g>
			<g>
				<g>
					<path fill="#BFA673" d="M195.135,87.488c1.86,0.472,3.678,0.988,5.61,1.021c0.428,0.007,1.004-0.637,0.351-0.646
						c-1.858-0.03-3.604-0.526-5.391-0.979C195.329,86.787,194.56,87.344,195.135,87.488L195.135,87.488z"/>
				</g>
			</g>
			<g>
				<g>
					<path fill="#BFA673" d="M232.716,103.4c1.265,0,2.721-0.175,3.937,0.177c0.838,0.243,1.556,0.869,2.313,1.279
						c0.26,0.14,1.065-0.256,0.906-0.342c-0.934-0.505-1.755-1.141-2.788-1.438c-1.213-0.351-2.718-0.104-3.961-0.104
						C232.839,102.971,232.071,103.4,232.716,103.4L232.716,103.4z"/>
				</g>
			</g>
			<g>
				<g>
					<path fill="#BFA673" d="M247.875,92.529c3.116-0.002,6.294,0.018,9.257-1.069c0.624-0.229,0.069-0.729-0.423-0.549
						c-2.769,1.016-5.835,0.93-8.743,0.931C247.421,91.844,247.218,92.529,247.875,92.529L247.875,92.529z"/>
				</g>
			</g>
			<g>
				<g>
					<path fill="#BFA673" d="M296.243,85.002c1.333,0,2.667,0,4,0c0.417,0,1.007-0.633,0.354-0.633c-1.333,0-2.667,0-4,0
						C296.18,84.369,295.59,85.002,296.243,85.002L296.243,85.002z"/>
				</g>
			</g>
			<g>
				<g>
					<path fill="#BFA673" d="M317.471,94.373c1.545,1.162,3.29,1.131,5.16,1.002c3.751-0.26,7.098-1.69,10.903-0.458
						c0.29,0.095,1.164-0.335,0.771-0.463c-1.88-0.608-3.722-0.659-5.683-0.536c-3.191,0.202-7.351,2.265-10.254,0.08
						C318.098,93.794,317.212,94.178,317.471,94.373L317.471,94.373z"/>
				</g>
			</g>
			<g>
				<g>
					<path fill="#BFA673" d="M369.109,96.891c1.167,0,2.333,0,3.5,0c0.234,0,0.485-0.054,0.684-0.184
						c0.146-0.098,0.132-0.228-0.062-0.228c-1.167,0-2.333,0-3.5,0c-0.234,0-0.485,0.053-0.683,0.183
						C368.9,96.761,368.916,96.891,369.109,96.891L369.109,96.891z"/>
				</g>
			</g>
			<g>
				<g>
					<path fill="#BFA673" d="M378.589,87.802c1.874-0.621,3.352-0.914,5.186-0.176c1.575,0.636,3.178,1.128,4.75,1.75
						c0.217,0.085,1.089-0.263,0.792-0.381c-1.35-0.534-2.725-0.907-4.071-1.476c-0.781-0.33-1.612-0.824-2.429-1.024
						c-1.333-0.325-3.346,0.672-4.563,1.075C377.597,87.787,378.218,87.924,378.589,87.802L378.589,87.802z"/>
				</g>
			</g>
			<g>
				<g>
					<path fill="#BFA673" d="M381.632,60.462c2.188-0.855,4.271-1.346,6.618-0.933c0.467,0.082,0.985-0.573,0.34-0.688
						c-2.605-0.458-4.955,0.118-7.382,1.067C380.591,60.151,381.14,60.654,381.632,60.462L381.632,60.462z"/>
				</g>
			</g>
			<g>
				<g>
					<path fill="#BFA673" d="M370.959,60.627c-0.25,0.751-0.563,1.552-0.442,2.354c0.132,0.886,1.139,1.047,1.863,1.063
						c0.558,0.014,0.734-0.703,0.083-0.719c-1.54-0.037-0.891-1.648-0.579-2.582C372.061,60.208,371.095,60.213,370.959,60.627
						L370.959,60.627z"/>
				</g>
			</g>
			<g>
				<g>
					<path fill="#BFA673" d="M410.722,66.921c1.463-0.001,2.848-0.092,4.251-0.538c0.558-0.178,0.462-0.574-0.105-0.395
						c-1.241,0.396-2.456,0.461-3.749,0.462C410.808,66.45,410.073,66.921,410.722,66.921L410.722,66.921z"/>
				</g>
			</g>
			<g>
				<g>
					<path fill="#BFA673" d="M369.811,20.777c0.5-0.5,1-1,1.5-1.5c0.407-0.407-0.542-0.423-0.781-0.184c-0.5,0.5-1,1-1.5,1.5
						C368.622,21.001,369.571,21.017,369.811,20.777L369.811,20.777z"/>
				</g>
			</g>
			<g>
				<g>
					<path fill="#BFA673" d="M408.243,37.5c2.5,0,5,0,7.5,0c0.414,0,1.009-0.629,0.354-0.629c-2.5,0-5,0-7.5,0
						C408.183,36.871,407.59,37.5,408.243,37.5L408.243,37.5z"/>
				</g>
			</g>
			<g>
				<g>
					<path fill="#BFA673" d="M350.48,12.411c1.351-0.423,2.829-0.454,4.126-1.043c0.615-0.278,0.047-0.556-0.373-0.365
						c-1.204,0.546-2.613,0.563-3.874,0.957C349.795,12.137,349.907,12.59,350.48,12.411L350.48,12.411z"/>
				</g>
			</g>
			<g>
				<g>
					<path fill="#BFA673" d="M334.713,64.385c1.687-0.029,3.459-0.406,4.986-1.131c0.578-0.273-0.327-0.249-0.56-0.139
						c-1.231,0.584-2.657,0.846-4.013,0.87C334.864,63.99,334.071,64.396,334.713,64.385L334.713,64.385z"/>
				</g>
			</g>
			<g>
				<g>
					<path fill="#BFA673" d="M349.496,55.467c3.889-0.876,7.165-2.464,11.246-2.473c0.406-0.001,1.012-0.618,0.357-0.617
						c-1.782,0.004-3.527,0.051-5.254,0.527c-2.19,0.604-4.277,1.499-6.5,2C348.748,55.038,348.907,55.6,349.496,55.467
						L349.496,55.467z"/>
				</g>
			</g>
			<g>
				<g>
					<path fill="#BFA673" d="M400.734,8.966c2.815-0.128,5.07-1.903,7.753-2.53c0.589-0.139,0.448-0.634-0.134-0.498
						c-2.476,0.578-4.673,2.352-7.247,2.469C400.743,8.422,400.085,8.995,400.734,8.966L400.734,8.966z"/>
				</g>
			</g>
			<g>
				<g>
					<path fill="#BFA673" d="M461.314,15.792c0.167-0.167,0.333-0.333,0.5-0.5c0.151-0.149,0.099-0.341-0.105-0.396
						c-0.228-0.063-0.518,0.017-0.684,0.183c-0.167,0.167-0.333,0.333-0.5,0.5c-0.151,0.15-0.099,0.341,0.106,0.396
						C460.858,16.036,461.148,15.958,461.314,15.792L461.314,15.792z"/>
				</g>
			</g>
			<g>
				<g>
					<path fill="#BFA673" d="M451.371,10.516c1.833-0.025,4.008-0.542,5.675,0.437c0.339,0.198,1.201-0.269,0.751-0.533
						c-1.893-1.109-4.249-0.591-6.326-0.563C450.936,9.863,450.713,10.524,451.371,10.516L451.371,10.516z"/>
				</g>
			</g>
			<g>
				<g>
					<path fill="#BFA673" d="M453.034,31.412c1.149,0.526,2.454,0.534,3.695,0.535c0.345,0,1.035-0.523,0.383-0.523
						c-1.113-0.001-2.273,0.009-3.305-0.465C453.534,30.834,452.646,31.234,453.034,31.412L453.034,31.412z"/>
				</g>
			</g>
			<g>
				<g>
					<path fill="#BFA673" d="M450.723,54.927c1.5,0,3,0,4.5,0c0.315,0,1.043-0.48,0.394-0.48c-1.5,0-3,0-4.5,0
						C450.802,54.445,450.073,54.927,450.723,54.927L450.723,54.927z"/>
				</g>
			</g>
			<g>
				<g>
					<path fill="#BFA673" d="M489.525,93.381c2.494,0.733,5.248,1.019,7.802,0.373c2.563-0.646,5.143-2.204,7.783-1.858
						c0.223,0.028,1.118-0.354,0.62-0.418c-1.35-0.176-2.789-0.437-4.053,0.287c-3.411,1.948-7.622,2.326-11.362,1.227
						C490.082,92.922,489.22,93.291,489.525,93.381L489.525,93.381z"/>
				</g>
			</g>
			<g>
				<g>
					<path fill="#BFA673" d="M478.013,83.531c1.439-0.477,2.839-0.908,4.368-0.978c0.868-0.04,1.269-0.247,2.144-0.162
						c0.582,0.058,1.146,0.133,1.732,0.157c0.482,0.021,0.979-0.699,0.327-0.729c-1.166-0.049-2.482-0.436-3.642-0.139
						c-1.717,0.438-3.406,0.592-5.115,1.156C477.244,83.033,477.42,83.728,478.013,83.531L478.013,83.531z"/>
				</g>
			</g>
			<g>
				<g>
					<path fill="#BFA673" d="M519.196,102.74c2.365-0.96,4.191-2.222,5.2-4.643c0.063-0.146-0.851-0.064-0.951,0.176
						c-0.945,2.269-2.573,3.452-4.8,4.356C518.057,102.869,518.977,102.83,519.196,102.74L519.196,102.74z"/>
				</g>
			</g>
			<g>
				<g>
					<path fill="#BFA673" d="M496.009,65.514c1.602-0.406,3.203-0.943,4.869-0.979c0.548-0.011,0.744-0.715,0.087-0.701
						c-1.754,0.035-3.444,0.596-5.132,1.022C495.232,65.01,495.411,65.665,496.009,65.514L496.009,65.514z"/>
				</g>
			</g>
			<g>
				<g>
					<path fill="#BFA673" d="M538.606,60.381c4.006-0.035,7.994-0.463,12-0.5c0.199-0.002,1.099-0.396,0.627-0.391
						c-4.006,0.036-7.994,0.463-12,0.5C539.034,59.992,538.135,60.386,538.606,60.381L538.606,60.381z"/>
				</g>
			</g>
			<g>
				<g>
					<path fill="#BFA673" d="M536.869,47.509c3.841-0.032,7.66-0.467,11.5-0.5c0.528-0.005,0.762-0.651,0.103-0.646
						c-3.84,0.033-7.66,0.467-11.5,0.5C536.442,46.867,536.211,47.515,536.869,47.509L536.869,47.509z"/>
				</g>
			</g>
			<g>
				<g>
					<path fill="#BFA673" d="M505.735,22.47c0.786,0,1.955-0.219,2.677,0.144c0.875,0.438,1.75,0.875,2.625,1.313
						c0.294,0.146,1.18-0.273,0.767-0.48c-1-0.5-2-1-3-1.5c-0.207-0.104-0.521-0.044-0.737-0.044c-0.653,0-1.307,0-1.96,0
						C505.73,21.901,505.082,22.47,505.735,22.47L505.735,22.47z"/>
				</g>
			</g>
			<g>
				<g>
					<path fill="#BFA673" d="M529.218,28.903c4.281,0.034,8.532,0.396,12.75-0.541c0.578-0.129,0.475-0.479-0.095-0.354
						c-4.035,0.896-8.155,0.492-12.25,0.459C529.334,28.466,528.571,28.898,529.218,28.903L529.218,28.903z"/>
				</g>
			</g>
			<g>
				<g>
					<path fill="#BFA673" d="M523.968,11.858c0.167,0.166,0.334,0.333,0.5,0.5c0.195,0.196,1.094-0.157,0.905-0.346
						c-0.167-0.166-0.334-0.333-0.5-0.5C524.677,11.316,523.779,11.67,523.968,11.858L523.968,11.858z"/>
				</g>
			</g>
			<g>
				<g>
					<path fill="#BFA673" d="M565.206,32.277c0.797-0.37,1.653-0.368,2.514-0.369c0.294,0,1.05-0.446,0.401-0.445
						c-1.223,0.001-2.365,0.109-3.486,0.632c-0.104,0.047-0.317,0.228-0.106,0.296C564.745,32.459,565.01,32.369,565.206,32.277
						L565.206,32.277z"/>
				</g>
			</g>
			<g>
				<g>
					<path fill="#BFA673" d="M574.313,39.789c0.139-0.15,0.263-0.306,0.379-0.475c0.05-0.079,0.099-0.157,0.147-0.236
						c0.105-0.109,0.113-0.142,0.021-0.092c0.499-0.049,0.78-0.665,0.115-0.602c-0.809,0.077-0.966,0.668-1.451,1.196
						C573.13,40.016,574.068,40.057,574.313,39.789L574.313,39.789z"/>
				</g>
			</g>
			<g>
				<g>
					<path fill="#BFA673" d="M577.826,65.337c0.844-0.859,1.503-1.885,2.687-2.308c0.575-0.206,0.405-0.898-0.185-0.688
						c-1.475,0.527-2.26,1.615-3.313,2.692c-0.164,0.167-0.071,0.411,0.13,0.485C577.387,65.61,577.653,65.515,577.826,65.337
						L577.826,65.337z"/>
				</g>
			</g>
			<g>
				<g>
					<path fill="#BFA673" d="M591.234,96.469c0.271,0.016,0.538,0.179,0.787,0.271c0.393,0.147,0.795,0.217,1.213,0.229
						c0.219,0.007,0.51-0.073,0.637-0.269c0.127-0.193-0.105-0.295-0.266-0.299c-0.718-0.021-1.299-0.461-2-0.5
						C591.225,95.881,590.58,96.433,591.234,96.469L591.234,96.469z"/>
				</g>
			</g>
			<g>
				<g>
					<path fill="#BFA673" d="M649.044,98.947c0.965,0.449,2.038,0.552,3,1c0.223,0.104,0.487,0.069,0.688-0.07
						c0.134-0.094,0.285-0.35,0.064-0.453c-0.965-0.448-2.038-0.552-3-1c-0.224-0.104-0.488-0.068-0.689,0.07
						C648.974,98.588,648.822,98.844,649.044,98.947L649.044,98.947z"/>
				</g>
			</g>
			<g>
				<g>
					<path fill="#BFA673" d="M647.737,75.98c0.422,0.037,0.666,0.456,0.699,0.834c0.031,0.354,1.001,0.138,0.967-0.258
						c-0.062-0.689-0.651-1.108-1.301-1.166C647.704,75.355,647.084,75.923,647.737,75.98L647.737,75.98z"/>
				</g>
			</g>
			<g>
				<g>
					<path fill="#BFA673" d="M599.759,2.555c2.436,0.553,4.561,1.946,7,2.5c0.498,0.112,0.962-0.595,0.323-0.738
						c-2.436-0.553-4.561-1.947-7-2.5C599.584,1.703,599.12,2.41,599.759,2.555L599.759,2.555z"/>
				</g>
			</g>
			<g>
				<g>
					<path fill="#BFA673" d="M615.232,21.96c1.166,0,2.333,0,3.5,0c0.361,0,1.028-0.549,0.375-0.549c-1.166,0-2.333,0-3.5,0
						C615.246,21.411,614.579,21.96,615.232,21.96L615.232,21.96z"/>
				</g>
			</g>
			<g>
				<g>
					<path fill="#BFA673" d="M611.716,59.31c0.866-0.446,1.633-1.055,2.5-1.5c0.124-0.063,0.299-0.261,0.093-0.348
						c-0.216-0.09-0.488-0.001-0.683,0.1c-0.866,0.445-1.634,1.054-2.5,1.5c-0.124,0.063-0.3,0.26-0.094,0.347
						C611.248,59.498,611.521,59.409,611.716,59.31L611.716,59.31z"/>
				</g>
			</g>
			<g>
				<g>
					<path fill="#BFA673" d="M698.026,93.885c2.705,0.5,5.448,0.516,8.19,0.516c0.283,0,1.052-0.43,0.405-0.43
						c-2.609-0.001-5.232-0.01-7.81-0.484C698.571,93.441,697.726,93.829,698.026,93.885L698.026,93.885z"/>
				</g>
			</g>
			<g>
				<g>
					<path fill="#BFA673" d="M650.218,4.318c3.205-1.73,7.252,0.459,10.513,0.631c0.352,0.018,1.033-0.492,0.381-0.527
						c-1.58-0.082-2.871-0.711-4.393-0.989c-0.79-0.146-1.695-0.082-2.498-0.117c-1.57-0.069-3.188-0.021-4.598,0.738
						C649.052,4.362,649.915,4.481,650.218,4.318L650.218,4.318z"/>
				</g>
			</g>
			<g>
				<g>
					<path fill="#BFA673" d="M650.468,42.857c0.575,0.514,1.428,0.489,2,1c0.21,0.188,1.092-0.178,0.905-0.344
						c-0.575-0.515-1.428-0.489-2-1C651.163,42.326,650.281,42.691,650.468,42.857L650.468,42.857z"/>
				</g>
			</g>
			<g>
				<g>
					<path fill="#BFA673" d="M661.031,32.401c1.188,0.349,2.408,0.486,3.628,0.68c2.021,0.319,3.406,1.389,4.811,2.784
						c0.216,0.215,1.122-0.141,0.901-0.359c-1.076-1.07-2.136-1.98-3.563-2.535c-1.577-0.613-3.377-0.524-5-1
						C661.546,31.892,660.675,32.297,661.031,32.401L661.031,32.401z"/>
				</g>
			</g>
			<g>
				<g>
					<path fill="#BFA673" d="M686.361,65.98c1.767-0.151,3.303-1.038,5.113-0.968c1.936,0.074,3.809,0.952,5.655,1.456
						c0.341,0.093,1.142-0.413,0.58-0.566c-1.709-0.465-3.395-1.209-5.165-1.408c-2.233-0.25-3.893,0.709-6.066,0.896
						C685.981,65.434,685.695,66.038,686.361,65.98L686.361,65.98z"/>
				</g>
			</g>
			<g>
				<g>
					<path fill="#BFA673" d="M680.719,7.906c2.952-0.003,5.854-0.166,8.486-1.631c0.564-0.314-0.316-0.32-0.569-0.18
						c-2.336,1.3-4.91,1.366-7.514,1.368C680.831,7.466,680.071,7.906,680.719,7.906L680.719,7.906z"/>
				</g>
			</g>
			<g>
				<g>
					<path fill="#BFA673" d="M702.103,21.367c0.833,0,1.667,0,2.5,0c0.229,0,0.485-0.069,0.683-0.183
						c0.157-0.09,0.133-0.182-0.048-0.182c-0.833,0-1.667,0-2.5,0c-0.229,0-0.484,0.069-0.683,0.184
						C701.897,21.276,701.924,21.367,702.103,21.367L702.103,21.367z"/>
				</g>
			</g>
			<g>
				<g>
					<path fill="#BFA673" d="M680.243,37.501c0.415,0,1.007-0.631,0.354-0.631C680.182,36.87,679.591,37.501,680.243,37.501
						L680.243,37.501z"/>
				</g>
			</g>
			<g>
				<g>
					<path fill="#BFA673" d="M728.604,50.357c1.61-0.724,2.922,0.02,4.429,0.548c0.269,0.095,1.146-0.31,0.775-0.439
						c-1.957-0.687-3.552-1.358-5.571-0.451C727.619,50.291,728.191,50.543,728.604,50.357L728.604,50.357z"/>
				</g>
			</g>
			<g>
				<g>
					<path fill="#BFA673" d="M736.244,50.505c0.422,0,1.006-0.639,0.353-0.639C736.176,49.866,735.592,50.505,736.244,50.505
						L736.244,50.505z"/>
				</g>
			</g>
			<g>
				<g>
					<path fill="#BFA673" d="M715.466,58.849c2.372,1.392,4.861,2.444,7.558,3.021c0.222,0.048,1.059-0.312,0.795-0.367
						c-2.654-0.565-5.105-1.608-7.441-2.979C716.139,58.384,715.35,58.781,715.466,58.849L715.466,58.849z"/>
				</g>
			</g>
			<g>
				<g>
					<path fill="#BFA673" d="M753.64,8.505c1.9,0.451,3.79,0.525,5.734,0.525c0.547,0.001,0.746-0.689,0.091-0.689
						c-1.783-0.001-3.521-0.061-5.266-0.475C753.797,7.771,753.056,8.366,753.64,8.505L753.64,8.505z"/>
				</g>
			</g>
			<g>
				<g>
					<path fill="#BFA673" d="M728.967,15.853c2.392,1.687,5.951,2.609,8.733,1.404c0.586-0.254-0.323-0.245-0.561-0.145
						c-2.191,0.949-5.45-0.315-7.267-1.595C729.647,15.358,728.813,15.745,728.967,15.853L728.967,15.853z"/>
				</g>
			</g>
			<g>
				<g>
					<path fill="#BFA673" d="M787.735,31.471c1.833,0,3.666,0,5.5,0c0.375,0,1.023-0.57,0.369-0.57c-1.833,0-3.666,0-5.5,0
						C787.729,30.9,787.081,31.471,787.735,31.471L787.735,31.471z"/>
				</g>
			</g>
			<g>
				<g>
					<path fill="#BFA673" d="M792.604,8.871c0.868,0.025,1.728,0.378,2.36,0.976c0.176,0.166,1.039-0.201,0.912-0.32
						c-0.709-0.67-1.678-0.998-2.641-1.025c-0.227-0.007-0.489,0.068-0.684,0.184C792.394,8.776,792.426,8.866,792.604,8.871
						L792.604,8.871z"/>
				</g>
			</g>
			<g>
				<g>
					<path fill="#BFA673" d="M760.53,27.898c2.416,0.616,5.459,1.498,7.334-0.724c0.244-0.288-0.713-0.188-0.889,0.021
						c-1.407,1.668-3.887,0.729-5.666,0.277C761.05,27.405,760.185,27.811,760.53,27.898L760.53,27.898z"/>
				</g>
			</g>
			<g>
				<g>
					<path fill="#BFA673" d="M766.036,56.923c0.633,0.308,1.415,0.464,1.937,0.954c0.254,0.238,1.164-0.13,0.896-0.383
						c-0.571-0.539-1.373-0.71-2.063-1.046C766.513,56.307,765.628,56.725,766.036,56.923L766.036,56.923z"/>
				</g>
			</g>
			<g>
				<g>
					<path fill="#BFA673" d="M761.237,79.479c1.594,0.042,3.792,0.527,5.295-0.265c2.069-1.092,3.787-2.531,5.692-3.865
						c0.538-0.377-0.283-0.558-0.609-0.328c-1.077,0.754-2.089,1.594-3.147,2.371c-0.969,0.709-2.184,1.427-3.359,1.601
						c-1.111,0.164-2.38-0.072-3.505-0.102C761.212,78.881,760.584,79.463,761.237,79.479L761.237,79.479z"/>
				</g>
			</g>
			<g>
				<g>
					<path fill="#BFA673" d="M778.214,70.886c2.036-0.059,4.221-0.654,6.104,0.369c1.292,0.703,2.267,1.673,3.707,2.12
						c0.225,0.07,1.085-0.29,0.791-0.381c-1.85-0.576-3.108-2.146-4.978-2.622c-1.646-0.418-3.547,0.065-5.211,0.112
						C778.364,70.492,777.571,70.904,778.214,70.886L778.214,70.886z"/>
				</g>
			</g>
			<g>
				<g>
					<path fill="#BFA673" d="M740.937,92.314c0.189,0.573,0.336,1.177,0.662,1.69c0.333,0.527,0.97,0.768,1.53,0.96
						c0.334,0.115,1.135-0.369,0.582-0.561c-0.479-0.165-0.923-0.366-1.221-0.79c-0.31-0.441-0.422-1.055-0.588-1.559
						C741.781,91.687,740.819,91.959,740.937,92.314L740.937,92.314z"/>
				</g>
			</g>
			<g>
				<g>
					<path fill="#BFA673" d="M773.043,96.944c0.713,0.346,1.406,0.558,2.2,0.558c0.229,0.001,0.513-0.063,0.634-0.28
						c0.109-0.197-0.094-0.353-0.279-0.353c-0.656-0.001-1.206-0.154-1.799-0.441c-0.22-0.106-0.491-0.063-0.689,0.071
						C772.973,96.594,772.824,96.839,773.043,96.944L773.043,96.944z"/>
				</g>
			</g>
			<g>
				<g>
					<path fill="#BFA673" d="M802.219,104.909c0.666,0,1.333,0,2,0c0.295,0,1.049-0.447,0.401-0.447c-0.666,0-1.333,0-2,0
						C802.326,104.462,801.572,104.909,802.219,104.909L802.219,104.909z"/>
				</g>
			</g>
			<g>
				<g>
					<path fill="#BFA673" d="M789.437,95.814c0.453,1.01-0.003,2.477,1.104,3.117c0.297,0.172,1.181-0.249,0.762-0.492
						c-0.894-0.518-0.521-2.045-0.897-2.883C790.241,95.195,789.291,95.49,789.437,95.814L789.437,95.814z"/>
				</g>
			</g>
			<g>
				<g>
					<path fill="#BFA673" d="M803.469,82.865c1.563-0.458,3.14-0.457,4.75-0.459c0.263-0.001,0.645-0.165,0.835-0.226
						c1.487-0.471,3.035-0.385,4.475,0.207c0.234,0.097,1.116-0.27,0.785-0.404c-1.548-0.636-3.099-0.765-4.729-0.329
						c-2.041,0.544-4.162,0.252-6.211,0.852C802.81,82.671,802.901,83.031,803.469,82.865L803.469,82.865z"/>
				</g>
			</g>
			<g>
				<g>
					<path fill="#BFA673" d="M821.882,67.053c0.666,0,1.333,0,2,0c0.562,0,0.731-0.734,0.077-0.734c-0.666,0-1.332,0-2,0
						C821.397,66.318,821.227,67.053,821.882,67.053L821.882,67.053z"/>
				</g>
			</g>
			<g>
				<g>
					<path fill="#BFA673" d="M804.937,56.314c0.628,1.026,2.418,1.313,3.521,1.018c1.652-0.441,1.82-1.886,2.438-3.231
						c0.068-0.149-0.841-0.073-0.953,0.172c-0.369,0.808-0.488,1.723-1.085,2.413c-0.681,0.787-2.479,0.15-2.955-0.628
						C805.759,55.818,804.861,56.19,804.937,56.314L804.937,56.314z"/>
				</g>
			</g>
			<g>
				<g>
					<path fill="#BFA673" d="M818.468,38.856c0.881,0.415,1.784,0.542,2.749,0.543c0.283,0,1.053-0.427,0.408-0.428
						c-0.781-0.001-1.539-0.121-2.252-0.457c-0.191-0.092-0.436-0.032-0.625,0.039C818.715,38.566,818.293,38.773,818.468,38.856
						L818.468,38.856z"/>
				</g>
			</g>
			<g>
				<g>
					<path fill="#BFA673" d="M874.534,13.913c1.656,0.514,3.289,0.516,4.947,0.001c0.566-0.175,0.451-0.635-0.123-0.457
						c-1.362,0.422-2.688,0.424-4.053,0.001C875.023,13.371,874.15,13.794,874.534,13.913L874.534,13.913z"/>
				</g>
			</g>
			<g>
				<g>
					<path fill="#BFA673" d="M917.139,14.5c1.702,0.533,3.467,0.523,5.233,0.524c0.541,0,0.75-0.678,0.095-0.678
						c-1.608,0-3.216,0.009-4.767-0.477C917.307,13.747,916.561,14.319,917.139,14.5L917.139,14.5z"/>
				</g>
			</g>
			<g>
				<g>
					<path fill="#BFA673" d="M853.104,35.369c3.192,0.082,6.181,1.354,9.352,0.447c0.557-0.159,0.488-0.421-0.069-0.262
						c-2.824,0.808-5.791-0.479-8.648-0.554C853.551,34.997,852.64,35.357,853.104,35.369L853.104,35.369z"/>
				</g>
			</g>
			<g>
				<g>
					<path fill="#BFA673" d="M856.725,47.43c0.824,0.023,1.646,0.369,2.244,0.936c0.224,0.211,1.125-0.149,0.901-0.359
						c-0.74-0.699-1.749-1.035-2.756-1.063C856.79,46.932,856.074,47.411,856.725,47.43L856.725,47.43z"/>
				</g>
			</g>
			<g>
				<g>
					<path fill="#BFA673" d="M877.512,43.529c1.271-0.314,2.316-0.839,3.39-1.579c0.743-0.514,1.438-1.033,2.235-1.467
						c1.517-0.824,2.98-0.445,4.507,0.037c0.431,0.136,1.139-0.484,0.553-0.67c-1.463-0.462-3.438-1.045-4.909-0.271
						c-2.014,1.062-3.718,2.706-5.959,3.262C876.725,42.991,876.912,43.679,877.512,43.529L877.512,43.529z"/>
				</g>
			</g>
			<g>
				<g>
					<path fill="#BFA673" d="M940.937,21.814c0.592,1.543,2.311,1.497,3.597,2.097c0.27,0.125,1.158-0.271,0.773-0.451
						c-1.178-0.548-2.862-0.493-3.403-1.902C941.78,21.236,940.826,21.526,940.937,21.814L940.937,21.814z"/>
				</g>
			</g>
			<g>
				<g>
					<path fill="#BFA673" d="M875.521,61.864c1.767,0.575,3.608,0.978,5.435,0.454c0.557-0.159,0.488-0.426-0.069-0.266
						c-1.487,0.427-3.145-0.082-4.565-0.547C876.111,61.439,875.261,61.779,875.521,61.864L875.521,61.864z"/>
				</g>
			</g>
			<g>
				<g>
					<path fill="#BFA673" d="M899.878,98.539c2.675-0.033,5.324-0.466,8-0.5c0.551-0.007,0.741-0.716,0.086-0.707
						c-2.676,0.033-5.325,0.466-8,0.5C899.412,97.839,899.221,98.548,899.878,98.539L899.878,98.539z"/>
				</g>
			</g>
			<g>
				<g>
					<path fill="#BFA673" d="M873.872,96.02c1.292-0.001,2.565-0.008,3.758-0.569c0.601-0.282,0.062-0.755-0.418-0.529
						c-1.016,0.479-2.146,0.432-3.243,0.432C873.431,95.352,873.216,96.02,873.872,96.02L873.872,96.02z"/>
				</g>
			</g>
			<g>
				<g>
					<path fill="#BFA673" d="M948.108,95.39c3.838,0.417,7.654,0.031,11.5,0c0.21-0.002,1.104-0.412,0.623-0.408
						c-3.842,0.032-7.667,0.417-11.5,0C948.516,94.958,947.617,95.336,948.108,95.39L948.108,95.39z"/>
				</g>
			</g>
			<g>
				<g>
					<path fill="#BFA673" d="M926.486,84.433c1.232-0.419,2.426-0.938,3.747-0.969c0.364-0.009,1.024-0.571,0.373-0.559
						c-1.512,0.034-2.84,0.552-4.253,1.032C925.794,84.129,925.911,84.628,926.486,84.433L926.486,84.433z"/>
				</g>
			</g>
			<g>
				<g>
					<path fill="#BFA673" d="M915.372,77.519c0.536,0,0.753-0.666,0.097-0.666C914.932,76.853,914.716,77.519,915.372,77.519
						L915.372,77.519z"/>
				</g>
			</g>
			<g>
				<g>
					<path fill="#BFA673" d="M929.109,71.392c0.666,0,1.333,0,2,0c0.234,0,0.484-0.053,0.684-0.184
						c0.146-0.098,0.133-0.229-0.063-0.229c-0.666,0-1.333,0-2,0c-0.234,0-0.484,0.052-0.683,0.183
						C928.9,71.26,928.915,71.392,929.109,71.392L929.109,71.392z"/>
				</g>
			</g>
			<g>
				<g>
					<path fill="#BFA673" d="M970.841,53.901c2.946-0.571,5.255-2.265,7.866-3.619c0.574-0.297-0.312-0.33-0.573-0.193
						c-2.356,1.222-4.468,2.864-7.133,3.382C970.59,53.55,970.169,54.031,970.841,53.901L970.841,53.901z"/>
				</g>
			</g>
			<g>
				<g>
					<path fill="#BFA673" d="M984.735,22.971c1.526,0,3.106,0.114,4.623-0.097c1.347-0.187,2.504-1.014,3.756-1.479
						c0.632-0.234,0.058-0.588-0.389-0.422c-1.263,0.469-2.361,1.219-3.722,1.406c-1.249,0.175-2.64,0.02-3.899,0.02
						C984.729,22.4,984.082,22.971,984.735,22.971L984.735,22.971z"/>
				</g>
			</g>
			<g>
				<g>
					<path fill="#BFA673" d="M970.104,11.875c1.167,0,2.334,0,3.5,0c0.193,0,1.098-0.379,0.631-0.379c-1.167,0-2.334,0-3.5,0
						C970.543,11.496,969.638,11.875,970.104,11.875L970.104,11.875z"/>
				</g>
			</g>
			<g>
				<g>
					<path fill="#BFA673" d="M957.873,41.524c2.504-0.093,5.877-2.022,8.174-0.567c0.343,0.217,1.199-0.256,0.748-0.543
						c-2.629-1.666-6.046,0.329-8.827,0.434C957.429,40.866,957.215,41.549,957.873,41.524L957.873,41.524z"/>
				</g>
			</g>
			<g>
				<g>
					<path fill="#BFA673" d="M937.719,51.905c1,0,2,0,3,0c0.29,0,1.051-0.439,0.403-0.439c-1,0-2,0-3,0
						C937.832,51.466,937.071,51.905,937.719,51.905L937.719,51.905z"/>
				</g>
			</g>
			<g>
				<g>
					<path fill="#BFA673" d="M1011.747,60.515c0.666,0,1.333,0,2,0c0.23,0,0.513-0.063,0.632-0.287
						c0.104-0.198-0.091-0.371-0.285-0.371c-0.666,0-1.333,0-2,0c-0.23,0-0.513,0.062-0.631,0.287
						C1011.356,60.342,1011.552,60.515,1011.747,60.515L1011.747,60.515z"/>
				</g>
			</g>
			<g>
				<g>
					<path fill="#BFA673" d="M1014.136,49.478c3.123-1.901,9.047-4.254,12.413-2.01c1.458,0.973,2.941-0.745,3.775-1.636
						c0.419-0.445-0.508-0.618-0.811-0.295c-0.956,1.02-5.823,0.319-7.649,0.6c-2.918,0.446-5.632,1.218-8.161,2.757
						C1013.146,49.232,1013.658,49.768,1014.136,49.478L1014.136,49.478z"/>
				</g>
			</g>
			<g>
				<g>
					<path fill="#BFA673" d="M1007.72,87.915c3,0,6,0,9,0c0.303,0,1.048-0.459,0.399-0.459c-3,0-6,0-9,0
						C1007.817,87.456,1007.072,87.915,1007.72,87.915L1007.72,87.915z"/>
				</g>
			</g>
			<g>
				<g>
					<path fill="#BFA673" d="M986.629,93.462c1.92,0.553,3.771,1.926,5.729,2.286c1.854,0.342,3.359-0.3,5.134-0.802
						c0.579-0.164,0.442-0.687-0.141-0.521c-2.116,0.6-4.034,0.984-6.181,0.064c-1.323-0.567-2.568-1.181-3.957-1.58
						C986.884,92.814,986.072,93.302,986.629,93.462L986.629,93.462z"/>
				</g>
			</g>
			<g>
				<g>
					<path fill="#BFA673" d="M97.932,49.777c0.724,0.68,1.546,0.827,2.509,0.829c0.216,0,0.504-0.074,0.639-0.26
						c0.135-0.187-0.113-0.27-0.258-0.271c-0.784-0.001-1.399-0.115-1.991-0.671C98.59,49.18,97.683,49.545,97.932,49.777
						L97.932,49.777z"/>
				</g>
			</g>
			<g>
				<g>
					<path fill="#BFA673" d="M118.572,93.389c1.644-0.075,3.265-0.328,4.804-0.943c2.742-1.098,4.871-3.312,7.945-3.557
						c0.5-0.04,0.781-0.65,0.115-0.599c-1.654,0.132-3.022,0.679-4.477,1.461c-2.817,1.518-4.959,2.89-8.272,3.039
						C118.182,92.814,117.908,93.419,118.572,93.389L118.572,93.389z"/>
				</g>
			</g>
			<g>
				<g>
					<path fill="#BFA673" d="M1013.888,16.082c1,0,2,0,3,0c0.313,0,1.044-0.477,0.395-0.477c-1,0-2,0-3,0
						C1013.969,15.605,1013.238,16.082,1013.888,16.082L1013.888,16.082z"/>
				</g>
			</g>
			<g>
				<g>
					<path fill="#BFA673" d="M893.903,77.616c1.5,0,3,0,4.5,0c0.362,0,1.028-0.551,0.375-0.551c-1.5,0-3,0-4.5,0
						C893.916,77.065,893.25,77.616,893.903,77.616L893.903,77.616z"/>
				</g>
			</g>
			<g>
				<g>
					<path fill="#BFA673" d="M971.146,70.103c2.526,0.039,4.979,0.7,7.5,0.75c0.348,0.007,1.035-0.512,0.383-0.523
						c-2.519-0.051-4.975-0.712-7.5-0.75C971.181,69.573,970.493,70.094,971.146,70.103L971.146,70.103z"/>
				</g>
			</g>
		</g>
	</g>
</g>
</svg>
