<?xml version="1.0" encoding="utf-8"?>
<!-- Generator: Adobe Illustrator 16.0.3, SVG Export Plug-In . SVG Version: 6.00 Build 0)  -->
<!DOCTYPE svg PUBLIC "-//W3C//DTD SVG 1.1//EN" "http://www.w3.org/Graphics/SVG/1.1/DTD/svg11.dtd">
<svg version="1.1" id="Layer_1" xmlns="http://www.w3.org/2000/svg" xmlns:xlink="http://www.w3.org/1999/xlink" x="0px" y="0px"
	 width="1320px" height="400px" viewBox="0 0 1320 400" enable-background="new 0 0 1320 400" xml:space="preserve">
<path opacity="0.6" fill="#394747" d="M167.813,389.345L165.826,196.9l-0.762-37.541c0,0,14.01-5.711,18.119-17.413
	c5.287-15.055,5.557-120.744,5.557-120.744c-0.813-4.858-1.775-6-3.861-5.903c-2.916,0.135-3.369,2.508-3.369,2.508l-5.047,65.345
	c0,0-1.727,4.894-6.412,4.894c-4.865,0-5.473-3.345-5.473-3.345l-2.047-67.577c0,0-0.688-5.535-5.662-5.521
	c-2.777,0.008-3.678,3.382-3.678,3.382l-2.236,69.912c0,0-3.838,3.708-7.66,3.453c-3.82-0.255-6.041-4.366-6.041-4.366l-3.58-65.575
	c0,0-0.363-5.113-3.646-5.113c-2.984,0-4.521,6.23-4.521,6.23s-6.09,110.916,5.086,126.692
	c8.738,12.338,17.117,12.226,17.117,12.226s-20.271,215.024-11.037,232.034C147.43,410.294,167.813,389.345,167.813,389.345z"/>
<path fill="#C1C1C1" d="M164.813,385.345L162.826,192.9l-0.707-35.508c0,0,13.955-7.744,18.064-19.446
	c5.287-15.055,5.557-120.744,5.557-120.744c-0.813-4.858-1.775-6-3.861-5.903c-2.916,0.135-3.369,2.508-3.369,2.508l-5.047,65.345
	c0,0-0.617,8.847-5.301,8.847c-4.865,0-6.584-7.298-6.584-7.298l-2.047-67.577c0,0-0.688-5.535-5.662-5.521
	c-2.777,0.008-3.678,3.382-3.678,3.382l-2.236,69.912c0,0-3.326,7.247-7.146,6.992c-3.822-0.255-6.555-7.905-6.555-7.905
	l-3.58-65.575c0,0-0.363-5.113-3.646-5.113c-2.984,0-4.521,6.23-4.521,6.23s-3.971,109.61,5.086,126.692
	c7.195,13.575,16.146,16.452,16.146,16.452s-19.301,210.797-10.066,227.807C144.43,406.294,164.813,385.345,164.813,385.345z"/>
<g opacity="0.5">
	<path fill="#D6D6D6" d="M124.474,11.886c5.625-2.25,3.947,15.941,3.822,18.938c-0.375,9,0.247,21.842,1.372,30.092
		c0.75,4.875-0.037,10.005,0.713,15.255c0.75,4.125,1.912,8.745,5.662,10.995c9,4.875,10.875-7.875,12.375-13.875
		c2.25-10.125,0.471-23.627,1.596-34.127c0.75-8.625-0.516-15.881-0.141-24.505c0.375-7.125,5.993-4.776,6.743,1.224
		c0.75,5.249,0.868,11.603,0.868,16.853c0,10.875,0.348,22.484,0.348,33.359c0,7.125-1.152,21.72,8.586,22.197
		c7.92,0.39,6.773-8.664,8.963-20.807c3.822-21.197-0.614-55.361,5.386-53.861c2.625,0.75,4.17,25.934,4.17,30.058
		c0,12-1.884,23.617-2.259,35.617c-0.375,7.5-2.057,14.914-2.432,22.413c-0.375,8.625,0.797,17.33-4.453,25.58
		c-4.5,7.125-10.58,24.68-23.117,25.135c-4.695,0.171-7.293-0.91-10.941-4.33c-3.721-3.489-6.838-7.066-8.889-19.375
		c-0.791-4.737,4.697-28.056,0.947-30.68c-4.125-3.375-5.01-5.152-6.191-9.882c-3.648-14.594-2.46-21.249-2.954-32.316
		c-0.646-14.475-0.493-23.755-0.868-41.003"/>
</g>
<g>
	<g>
		<g>
			<path fill="#898989" d="M126.232,28.478c0.434,11.89,1.717,23.689,2.028,35.592c0.14,5.376,0.725,10.715,1.476,16.037
				c0.532,3.772,3.432,11.61,7.646,12.75c7.724,2.089,10.228-8.29,11.068-13.635c1.701-10.805,1.516-22.061,1.7-32.976
				c0.108-6.392-0.02-12.794,0.195-19.183c0.171-5.074-0.146-10.619,0.866-15.601c0.215-1.059,1.604,2.328,1.563,2.19
				c0.316,1.08,0.499,2.203,0.702,3.307c0.474,2.578,0.724,5.2,0.976,7.807c0.67,6.929,0.993,13.89,1.059,20.849
				c0.102,10.869,0.51,22.106,2.063,32.886c1.032,7.168,3.379,18.694,12.728,12.871c3.313-2.064,3.09-7.15,3.46-10.551
				c0.788-7.226,2.007-14.387,2.776-21.617c0.809-7.605,1.156-15.255,1.19-22.9c0.016-3.493,0.477-6.961,0.878-10.425
				c0.395-3.41,0.109-6.934,0.656-10.297c0.564-3.463,1.979,0.065,2.313,1.234c0.522,1.825,0.846,3.725,1.207,5.586
				c0.714,3.68,1.107,7.418,1.432,11.148c0.753,8.643,0.537,17.359,0.482,26.024c-0.101,15.96-1.379,31.732-3.001,47.602
				c-0.775,7.587-1.521,15.175-2.073,22.782c-0.588,8.098-4.218,14.132-9.718,19.958c-4.211,4.46-8.427,9.363-14.784,10.252
				c-8.815,1.233-16.699-3.808-22.073-10.395c-9.141-11.204-9.107-23.038-9.748-36.803c-0.385-8.286-0.402-16.488-0.178-24.777
				c0.23-8.503-0.442-16.911-0.441-25.395c0-6.36,0.695-12.688,0.556-19.055c-0.141-6.418-0.926-12.93-0.238-19.321
				c0.245-2.285,0.516-4.554,0.688-6.847c0.072-0.955,1.218-4.093,0.905-4.788C126.585,17.216,126.069,23.799,126.232,28.478
				c0.031,0.899,1.928,0.531,1.902-0.191c-0.044-1.252-0.396-20.254-4.198-17.12c-2.365,1.951-2.127,6.217-2.329,9.008
				c-0.536,7.417-0.485,14.361-0.292,21.816c0.199,7.653-0.537,15.264-0.538,22.912c-0.001,8.495,0.619,16.932,0.389,25.449
				c-0.37,13.671-0.612,27.978,1.357,41.549c2.625,18.082,25.248,40.261,42.705,24.59c4.106-3.686,8.048-7.752,11.295-12.216
				c4.117-5.658,4.765-11.547,5.289-18.327c1.223-15.812,3.313-31.542,4.293-47.375c0.931-15.048,1.1-30.484,0-45.527
				c-0.166-2.276-1.964-26.274-7.655-19.901c-2.583,2.893-1.371,9.438-1.746,12.927c-0.852,7.921-0.84,15.805-1.289,23.753
				c-0.431,7.623-1.328,15.216-2.515,22.757c-0.441,2.802-0.75,5.61-1.041,8.431c-0.102,0.988-0.228,1.972-0.359,2.957
				c-0.281,2.091-2.21,13.944-8.313,6.423c-3.089-3.807-3.612-10.589-4.081-15.335c-0.473-4.79-0.653-9.596-1.158-14.392
				c-1.41-13.404-0.462-26.949-2.026-40.383c-0.313-2.696-0.507-9.48-3.277-11.095c-1.815-1.058-2.911,1.136-3.334,2.467
				c-1.349,4.238-0.626,9.926-0.816,14.331c-0.294,6.809-0.144,13.639-0.245,20.453c-0.131,8.678-0.362,17.382-0.897,26.045
				c-0.244,3.956-0.941,7.871-1.589,11.775c-0.345,2.079-1.467,3.853-2.768,5.469c-3.597,4.468-7.079-0.351-8.813-3.042
				c-4.854-7.532-3.995-19.566-4.115-28.226c-0.14-10.093-1.563-20.091-1.931-30.172C128.103,27.387,126.206,27.756,126.232,28.478z
				"/>
		</g>
	</g>
	<g>
		<g>
			<path fill="#898989" d="M141.889,158.794c-0.676,12.164,0.416,24.23-1.247,36.341c-1.598,11.634-2.152,23.435-2.728,35.153
				c-1.293,26.365-2.373,52.683-4.17,79.024c-0.948,13.886-1.554,27.782-1.58,41.701c-0.021,10.728-1.966,21.965,2.239,32.194
				c2.896,7.044,10.045,11.433,17.265,7.958c8.664-4.171,11.13-16.425,11.041-24.961c-0.011-1.04-1.932-0.791-1.922,0.119
				c0.09,8.6-3.986,27.697-16.55,24.336c-11.313-3.028-10.803-20.459-10.506-29.356c0.802-23.956,1.646-47.785,3.321-71.707
				c1.563-22.321,1.938-44.686,3.181-67.022c0.553-9.933,1.205-19.899,2.64-29.749c1.646-11.298,0.307-22.786,0.938-34.151
				C143.868,157.641,141.939,157.879,141.889,158.794L141.889,158.794z"/>
		</g>
	</g>
</g>
<g>
	<path fill="#D6D6D6" d="M157.469,182.057c-3.74,16.616-5.4,45.696-5.4,52.343c0,6.645-5.035,36.706-5.816,52.342
		c-0.781,14.855-4.326,37.072-7.063,51.928c-1.563,9.381-0.855,20.111-1.246,29.494c0,4.692,0.221,12.684,3.738,16.201
		c3.91,4.692,9.361,3.942,12.098-1.531c3.518-6.646,5.023-15.961,5.766-23.393c1.246-12.463,0.416-19.109,0.832-32.817
		c0.371-12.271-1.246-65.222-0.832-80.177c0.176-6.301,1.197-39.441,0.416-45.696C159.18,193.322,159.613,172.52,157.469,182.057z"
		/>
</g>
<path fill="none" stroke="#232727" stroke-width="1.9487" stroke-linecap="round" stroke-miterlimit="10" d="M171,131.647
	c-2.131,11.782-10.197,18.35-18.723,18.362c-8.313,0.006-16.625-7.353-18.768-18.314"/>
<g>
	<path fill="#80808A" d="M139.993,107.777c-2.002-0.713-4.249-0.392-6.073,0.444c-1.668,0.758-3.168,2.206-4.032,4.055
		c-0.888,1.832-1.188,4.029-0.858,6.431c0.047,0.085,0.088,0.178,0.137,0.262c1.872-2.07,4.538-3.764,7.623-4.631
		c1.888-0.543,4.115-0.795,6.086-0.611c0.861,0.076,1.69,0.235,2.488,0.445C145.363,114.172,144.498,109.382,139.993,107.777z"/>
	<path fill="#FFFFFF" d="M141.229,109.121c-1.905-0.943-4.175-0.886-6.083-0.27c-1.746,0.558-3.406,1.821-4.479,3.556
		c-1.097,1.714-1.651,3.861-1.605,6.287c0.036,0.09,0.066,0.187,0.104,0.276c2.102-1.837,4.947-3.208,8.112-3.708
		c1.938-0.317,4.18-0.306,6.116,0.106c0.847,0.177,1.651,0.431,2.418,0.732C145.813,116.1,145.515,111.243,141.229,109.121z"/>
	<path d="M137.278,115.261c0.966-0.158,2.007-0.235,3.048-0.22c-0.025-0.203-0.068-0.407-0.134-0.61
		c-0.536-1.661-2.269-2.593-3.865-2.077c-1.504,0.486-2.337,2.08-1.983,3.651C135.281,115.678,136.262,115.422,137.278,115.261z"/>
	<circle fill="#FFFFFF" cx="135.115" cy="114.01" r="0.829"/>
</g>
<g>
	<path fill="#80808A" d="M165.418,107.21c1.967-0.806,4.228-0.589,6.088,0.162c1.701,0.68,3.268,2.058,4.215,3.864
		c0.973,1.788,1.375,3.969,1.156,6.385c-0.043,0.088-0.08,0.182-0.125,0.268c-1.966-1.981-4.707-3.55-7.828-4.274
		c-1.912-0.455-4.147-0.602-6.109-0.328c-0.856,0.116-1.677,0.312-2.463,0.56C160.352,113.847,160.992,109.022,165.418,107.21z"/>
	<path fill="#FFFFFF" d="M164.246,108.61c1.859-1.03,4.129-1.079,6.064-0.551c1.77,0.477,3.485,1.66,4.639,3.345
		c1.176,1.661,1.829,3.78,1.895,6.205c-0.031,0.092-0.057,0.189-0.092,0.28c-2.184-1.737-5.09-2.975-8.275-3.329
		c-1.951-0.227-4.189-0.112-6.104,0.389c-0.838,0.216-1.631,0.508-2.383,0.844C159.99,115.793,160.063,110.928,164.246,108.61z"/>
	<path d="M168.477,114.56c-0.973-0.113-2.016-0.141-3.055-0.078c0.016-0.204,0.05-0.41,0.105-0.616
		c0.459-1.685,2.146-2.695,3.766-2.253c1.525,0.416,2.43,1.969,2.15,3.554C170.492,114.885,169.5,114.674,168.477,114.56z"/>
	<circle fill="#FFFFFF" cx="166.618" cy="112.986" r="0.829"/>
</g>
<path opacity="0.6" fill="#394747" d="M53.309,389.345L51.32,196.899l-0.707-35.508c0,0,13.957-7.744,18.066-19.445
	c5.287-15.055,12.557-120.744,12.557-120.744c-0.813-4.857-1.777-6-3.861-5.902c-2.916,0.135-3.371,2.508-3.371,2.508L61.959,83.153
	c0,0-0.617,8.846-5.303,8.846c-4.865,0-6.582-7.297-6.582-7.297l-2.047-67.576c0,0-0.688-5.537-5.662-5.521
	c-2.777,0.008-3.678,3.381-3.678,3.381l-2.238,69.912c0,0-3.324,7.246-7.146,6.992c-3.82-0.256-6.555-7.906-6.555-7.906
	L13.17,18.409c0,0-0.365-5.113-3.648-5.113c-2.984,0-4.521,6.23-4.521,6.23s2.031,109.609,11.086,126.691
	c7.197,13.576,16.146,16.453,16.146,16.453S12.934,373.468,22.168,390.478C32.926,410.294,53.309,389.345,53.309,389.345z"/>
<path fill="#BFBFBF" d="M49.309,387.345L47.32,194.899l-0.707-35.508c0,0,13.957-7.744,18.066-19.445
	c5.287-15.055,12.557-120.744,12.557-120.744c-0.813-4.857-1.777-6-3.861-5.902c-2.916,0.135-3.371,2.508-3.371,2.508L57.959,81.153
	c0,0-0.617,8.846-5.303,8.846c-4.865,0-6.582-7.297-6.582-7.297l-2.047-67.576c0,0-0.688-5.537-5.662-5.521
	c-2.777,0.008-3.678,3.381-3.678,3.381l-2.238,69.912c0,0-3.324,7.246-7.146,6.992c-3.82-0.256-6.555-7.906-6.555-7.906L9.17,16.409
	c0,0-0.365-5.113-3.648-5.113c-2.984,0-4.521,6.23-4.521,6.23s2.031,109.609,11.086,126.691
	c7.197,13.576,16.146,16.453,16.146,16.453S8.934,371.468,18.168,388.478C28.926,408.294,49.309,387.345,49.309,387.345z"/>
<g>
	<path fill="#D4D4D4" d="M40.963,184.056c-3.738,16.617-5.4,45.697-5.4,52.344c0,6.645-5.033,36.705-5.816,52.342
		c-0.781,14.855-4.324,37.072-7.061,51.928c-1.564,9.381-0.855,20.111-1.246,29.494c0,4.691,0.219,12.684,3.738,16.201
		c3.908,4.691,9.359,3.941,12.096-1.531c3.52-6.646,5.023-15.961,5.768-23.393c1.246-12.463,0.416-19.109,0.83-32.818
		c0.371-12.27-1.246-65.221-0.83-80.176c0.174-6.301,1.197-39.441,0.414-45.697C42.674,195.321,43.109,174.521,40.963,184.056z"/>
</g>
<g opacity="0.5">
	<path fill="#D4D4D4" d="M5.539,14.1c5.625-2.25,4.579,18.282,4.454,21.28c-0.375,9,1.597,20.453,2.722,28.703
		c0.75,4.875,1.477,8.112,2.227,13.362c0.75,4.125,1.848,9.473,5.598,11.723c8.998,4.875,10.873-7.875,12.373-13.875
		c2.25-10.125,1.938-21,3.063-31.5c0.75-8.625,0.367-16.861,0.742-25.486c0.375-7.125,3.703-6,4.453,0
		c0.75,5.25,1.238,12.071,1.238,17.321c0,10.875,1.379,21.665,1.379,32.54c0,7.125-2.625,22.125,7.125,22.125
		c11.625,0,9.971-12.617,12-21c4.734-19.561,4.239-57.172,9.684-54.203c2.396,1.307-1.903,26.598-2.475,30.683
		c-1.732,12.372-1.98,20.538-4.584,35.52c-1.285,7.398-2.25,15-2.625,22.498c-0.375,8.625,0.582,26.274-4.668,34.524
		c-4.5,7.125-8.537,15.657-21.072,16.112c-4.695,0.17-7.295-0.91-10.941-4.33c-3.721-3.488-6.838-7.066-8.891-19.375
		c-0.789-4.738,4.699-28.057,0.949-30.68c-4.125-3.375-2.957-5.231-4.832-9.731c-3.375-9.75-2.826-21.547-4.701-31.672
		c-2.625-14.25-3.09-24.567-3.465-41.817"/>
</g>
<g>
	<g>
		<g>
			<path fill="#878787" d="M8.914,30.075c0.418,11.541,1.462,23.195,3.005,34.643c0.765,5.671,1.67,11.325,2.499,16.987
				c0.541,3.693,3.467,11.819,7.719,12.791c7.979,1.824,9.595-9.982,10.198-15.181c1.267-10.933,1.19-22.348,1.658-33.354
				c0.264-6.215,0.028-12.468,0.571-18.665c0.234-2.672,0.543-5.337,0.777-8.009c0.06-0.685,0.492-7.888,1.555-5.767
				c2.018,4.025,1.963,9.753,2.354,14.139c0.636,7.147,0.899,14.302,0.959,21.477c0.088,10.536,0.499,21.675,2.234,32.1
				c0.609,3.659,1.221,9.891,4.461,12.449c2.908,2.295,6.815,0.283,9.369-1.562c2.882-2.083,4.584-5.942,5.615-9.22
				c2.121-6.743,2.639-14.415,3.903-21.375c2.61-14.361,2.613-28.837,4.025-43.299c-0.003,0.025,1.781-5.25,3.073-2.392
				c0.822,1.817,0.359,4.297,0.379,6.26c0.035,3.55,0,7.1-0.066,10.65c-0.135,7.143-0.572,14.276-1.112,21.398
				c-1.223,16.129-2.772,32.234-4.02,48.362c-0.608,7.86-1.176,15.723-1.715,23.587c-0.248,3.618-0.273,7.298-1.006,10.856
				c-0.909,4.417-3.908,8.387-6.733,11.75c-3.775,4.496-8.855,10.329-14.51,12.321c-8.479,2.988-17.238-0.663-23.506-6.423
				c-10.712-9.843-12.099-22.973-12.499-36.62c-0.449-15.321-1.247-30.74-2.428-46.021c-0.589-7.621,0.111-15.151,0.281-22.77
				c0.151-6.767-0.748-13.529-0.539-20.284c0.14-4.519,0.605-9.501,1.65-13.913c0.361-1.523,0.533,0.515,0.617,0.856
				c0.259,1.048,0.372,2.141,0.512,3.209C8.674,22.7,8.786,26.41,8.914,30.075c0.031,0.899,1.928,0.531,1.902-0.191
				c-0.043-1.251-0.397-20.257-4.2-17.12c-2.366,1.952-2.127,6.218-2.328,9.009C3.754,29.19,3.803,36.134,3.998,43.589
				C4.197,51.242,3.46,58.853,3.459,66.5c0,7.858,1.008,15.787,1.376,23.642c0.672,14.327,0.309,29.152,2.369,43.356
				c1.671,11.523,9.349,21.804,19.446,27.345c7.146,3.921,17.599,3.2,23.861-2.161c4.222-3.614,8.519-7.678,11.79-12.188
				c4.351-5.997,5.335-11.328,5.824-18.623c1.099-16.41,2.38-32.807,3.76-49.195c1.248-14.803,2.749-29.588,3.18-44.444
				c0.062-2.103,2.224-24.814-4.237-20.188c-3.038,2.175-2.908,5.036-2.997,8.481c-0.194,7.535-1.085,15.265-1.637,22.793
				c-0.537,7.336-1.957,14.604-3.305,21.824c-1.213,6.499-1.436,13.904-4.51,19.854c-1.752,3.39-7.528,9.68-11.141,4.01
				c-1.665-2.612-2.057-6.06-2.672-9.032c-0.86-4.156-0.899-8.337-1.18-12.551c-0.91-13.661-1.099-27.356-2.144-41.014
				c-0.166-2.159-1.104-21.233-6.24-17.226c-2.184,1.704-1.464,7.145-1.675,9.555c-0.546,6.243-0.903,12.331-1.024,18.601
				c-0.185,9.562-1.098,19.083-1.386,28.636c-0.13,4.306-0.144,8.582-0.641,12.867c-0.438,3.774-3.083,17.703-9.578,10.09
				c-4.073-4.774-4.524-10.687-5.407-16.604c-0.611-4.09-1.235-8.178-1.769-12.279c-1.384-10.625-2.319-21.462-2.707-32.165
				C10.784,28.984,8.888,29.354,8.914,30.075z"/>
		</g>
	</g>
	<g>
		<g>
			<path fill="#878787" d="M26.57,160.391c-0.677,12.164,0.413,24.231-1.249,36.342c-1.596,11.634-2.151,23.434-2.727,35.153
				c-1.294,26.365-2.374,52.683-4.171,79.024c-0.948,13.886-1.553,27.782-1.58,41.701c-0.02,10.728-1.964,21.965,2.24,32.194
				c2.896,7.045,10.046,11.433,17.265,7.958c8.665-4.171,11.131-16.425,11.042-24.961c-0.011-1.04-1.932-0.791-1.922,0.119
				c0.09,8.601-3.987,27.697-16.551,24.336c-11.313-3.027-10.803-20.459-10.506-29.356c0.799-23.957,1.645-47.785,3.32-71.708
				c1.563-22.321,1.938-44.686,3.182-67.021c0.553-9.933,1.206-19.898,2.639-29.749c1.645-11.299,0.307-22.787,0.939-34.152
				C28.55,159.238,26.621,159.477,26.57,160.391L26.57,160.391z"/>
		</g>
	</g>
</g>
<path d="M13.922,128.416h45.034c0,0-5.896,26.19-24.101,26.19S13.922,128.416,13.922,128.416z"/>
<g>
	<g>
		<path fill="#82808C" d="M26.785,108.007c0.66,2.206,0.084,4.834-1.473,6.816c-1.551,1.998-4.072,3.303-6.787,3.277
			c-1.223-0.001-2.602-0.301-3.75-0.875c-1.164-0.575-2.186-1.404-2.959-2.4c-1.561-1.982-2.133-4.612-1.471-6.818
			c0.648,2.19,1.764,3.945,3.232,5.157c1.475,1.22,3.174,1.858,5.027,1.858c1.693,0.004,3.512-0.634,4.949-1.855
			C25.027,111.956,26.141,110.197,26.785,108.007z"/>
		<g>
			<ellipse fill="#FFFFFF" cx="18.565" cy="108.007" rx="8.22" ry="8.555"/>
			<ellipse cx="18.566" cy="108.007" rx="2.809" ry="2.925"/>
		</g>
	</g>
	<circle fill="#FFFFFF" cx="17.03" cy="106.193" r="0.767"/>
</g>
<g>
	<g>
		<path fill="#82808C" d="M62.871,108.007c0.66,2.206,0.084,4.834-1.473,6.816c-1.551,1.998-4.072,3.303-6.787,3.277
			c-1.225-0.001-2.602-0.301-3.75-0.875c-1.166-0.575-2.188-1.404-2.961-2.4c-1.559-1.982-2.131-4.612-1.469-6.818
			c0.648,2.19,1.764,3.945,3.232,5.157c1.475,1.22,3.174,1.858,5.027,1.858c1.693,0.004,3.512-0.634,4.949-1.855
			C61.113,111.956,62.227,110.197,62.871,108.007z"/>
		<g>
			<ellipse fill="#FFFFFF" cx="54.651" cy="108.007" rx="8.22" ry="8.555"/>
			<ellipse cx="54.652" cy="108.007" rx="2.809" ry="2.925"/>
		</g>
	</g>
	<circle fill="#FFFFFF" cx="53.116" cy="106.193" r="0.767"/>
</g>
<path opacity="0.6" fill="#394747" d="M287.566,389.346L285.578,196.9l-0.76-37.541c0,0,14.01-5.711,18.119-17.413
	c5.287-15.055,5.557-120.743,5.557-120.743c-0.813-4.858-1.777-6-3.861-5.903c-2.916,0.136-3.371,2.509-3.371,2.509l-5.045,65.345
	c0,0-1.729,4.894-6.412,4.894c-4.865,0-5.473-3.345-5.473-3.345l-2.047-67.576c0,0-0.688-5.536-5.662-5.521
	c-2.777,0.008-3.678,3.382-3.678,3.382l-2.238,69.911c0,0-3.838,3.708-7.658,3.453c-3.822-0.255-6.043-4.366-6.043-4.366
	l-3.578-65.575c0,0-0.365-5.113-3.648-5.113c-2.984,0-4.521,6.23-4.521,6.23s-6.09,110.915,5.086,126.692
	c8.74,12.338,17.119,12.226,17.119,12.226s-20.271,215.024-11.037,232.034C267.184,410.295,287.566,389.346,287.566,389.346z"/>
<path fill="#C1C1C1" d="M284.566,385.346L282.578,192.9l-0.707-35.508c0,0,13.957-7.744,18.066-19.446
	c5.287-15.055,5.557-120.743,5.557-120.743c-0.813-4.858-1.777-6-3.861-5.903c-2.916,0.136-3.371,2.509-3.371,2.509l-5.045,65.345
	c0,0-0.617,8.847-5.303,8.847c-4.865,0-6.582-7.298-6.582-7.298l-2.047-67.576c0,0-0.688-5.536-5.662-5.521
	c-2.777,0.008-3.678,3.382-3.678,3.382l-2.238,69.911c0,0-3.324,7.247-7.146,6.992c-3.82-0.255-6.555-7.905-6.555-7.905
	l-3.578-65.575c0,0-0.365-5.113-3.648-5.113c-2.984,0-4.521,6.23-4.521,6.23s-3.969,109.61,5.086,126.692
	c7.197,13.575,16.146,16.452,16.146,16.452s-19.299,210.798-10.064,227.808C264.184,406.295,284.566,385.346,284.566,385.346z"/>
<g>
	<path fill="#D6D6D6" d="M278.221,182.057c-3.738,16.616-5.4,45.697-5.4,52.343s-5.033,36.706-5.816,52.343
		c-0.781,14.855-4.324,37.071-7.061,51.927c-1.564,9.382-0.855,20.112-1.246,29.495c0,4.691,0.219,12.683,3.738,16.201
		c3.908,4.691,9.359,3.941,12.096-1.531c3.52-6.646,5.023-15.962,5.768-23.394c1.246-12.462,0.416-19.109,0.83-32.817
		c0.371-12.27-1.246-65.222-0.83-80.177c0.174-6.301,1.197-39.441,0.414-45.696C279.932,193.322,280.367,172.521,278.221,182.057z"
		/>
</g>
<g opacity="0.5">
	<path fill="#D6D6D6" d="M244.227,11.886c5.625-2.25,3.947,15.941,3.822,18.938c-0.375,9,0.248,21.843,1.373,30.093
		c0.75,4.875-0.038,10.004,0.712,15.254c0.75,4.125,1.913,8.746,5.663,10.996c8.998,4.875,10.873-7.875,12.373-13.875
		c2.25-10.125,0.473-23.628,1.598-34.128c0.75-8.625-0.516-15.882-0.141-24.506c0.375-7.125,5.992-4.775,6.742,1.225
		c0.75,5.249,0.869,11.603,0.869,16.853c0,10.875,0.348,22.484,0.348,33.359c0,7.125-1.154,21.719,8.584,22.198
		c7.922,0.39,6.773-8.664,8.964-20.808c3.822-21.197-0.614-55.36,5.386-53.86c2.625,0.75,4.17,25.933,4.17,30.058
		c0,12-1.884,23.617-2.259,35.617c-0.375,7.5-2.058,14.914-2.433,22.413c-0.375,8.625,0.797,17.329-4.453,25.579
		c-4.5,7.125-10.58,24.681-23.115,25.136c-4.695,0.171-7.295-0.91-10.941-4.33c-3.721-3.488-6.838-7.066-8.891-19.375
		c-0.789-4.737,4.699-28.056,0.949-30.68c-4.125-3.375-5.011-5.152-6.193-9.882c-3.648-14.594-2.459-21.249-2.953-32.316
		c-0.646-14.475-0.494-23.755-0.869-41.004"/>
</g>
<g>
	<g>
		<g>
			<path fill="#898989" d="M245.986,28.479c0.431,11.89,1.717,23.689,2.028,35.592c0.14,5.376,0.725,10.715,1.476,16.037
				c0.532,3.774,3.43,11.61,7.646,12.75c7.723,2.089,10.227-8.291,11.067-13.635c1.701-10.804,1.516-22.06,1.7-32.976
				c0.108-6.392-0.02-12.794,0.195-19.183c0.171-5.074-0.145-10.619,0.867-15.601c0.214-1.055,1.603,2.327,1.562,2.19
				c0.316,1.08,0.499,2.203,0.702,3.307c0.474,2.578,0.726,5.201,0.978,7.807c0.671,6.929,0.993,13.89,1.059,20.849
				c0.102,10.869,0.508,22.107,2.061,32.886c1.032,7.167,3.38,18.695,12.728,12.871c3.313-2.063,3.09-7.15,3.46-10.551
				c0.788-7.226,2.007-14.387,2.776-21.617c0.811-7.605,1.158-15.254,1.192-22.9c0.016-3.493,0.477-6.961,0.877-10.425
				c0.394-3.41,0.108-6.934,0.655-10.297c0.564-3.462,1.98,0.065,2.315,1.234c0.522,1.825,0.846,3.726,1.207,5.586
				c0.714,3.68,1.106,7.418,1.432,11.149c0.752,8.642,0.535,17.359,0.48,26.024c-0.101,15.96-1.378,31.732-2.999,47.602
				c-0.775,7.587-1.521,15.176-2.073,22.782c-0.588,8.098-4.219,14.132-9.719,19.959c-4.21,4.46-8.427,9.363-14.783,10.252
				c-8.817,1.233-16.699-3.808-22.074-10.395c-9.139-11.198-9.107-23.04-9.747-36.803c-0.385-8.286-0.402-16.488-0.178-24.778
				c0.23-8.503-0.442-16.91-0.441-25.394c0-6.361,0.695-12.688,0.556-19.055c-0.141-6.418-0.927-12.93-0.239-19.321
				c0.246-2.285,0.515-4.554,0.688-6.847c0.072-0.954,1.218-4.096,0.906-4.788C246.339,17.216,245.823,23.8,245.986,28.479
				c0.031,0.899,1.928,0.531,1.902-0.191c-0.043-1.252-0.396-20.257-4.2-17.12c-2.365,1.951-2.127,6.217-2.328,9.008
				c-0.534,7.417-0.484,14.361-0.291,21.816c0.199,7.653-0.537,15.264-0.538,22.911c-0.001,8.495,0.619,16.932,0.389,25.449
				c-0.37,13.675-0.612,27.975,1.356,41.549c2.623,18.083,25.248,40.26,42.705,24.59c4.106-3.686,8.048-7.752,11.296-12.216
				c4.117-5.658,4.765-11.547,5.289-18.328c1.223-15.812,3.312-31.542,4.291-47.375c0.931-15.048,1.1-30.484,0.002-45.527
				c-0.166-2.276-1.964-26.274-7.657-19.901c-2.584,2.892-1.371,9.438-1.745,12.926c-0.851,7.921-0.839,15.806-1.289,23.753
				c-0.431,7.624-1.329,15.217-2.516,22.757c-0.441,2.802-0.75,5.61-1.041,8.431c-0.102,0.988-0.228,1.972-0.359,2.957
				c-0.281,2.091-2.209,13.943-8.313,6.423c-3.09-3.806-3.612-10.589-4.081-15.336c-0.473-4.79-0.651-9.596-1.156-14.391
				c-1.41-13.404-0.462-26.949-2.027-40.383c-0.313-2.695-0.508-9.48-3.277-11.095c-1.814-1.058-2.91,1.136-3.334,2.467
				c-1.348,4.238-0.626,9.926-0.816,14.331c-0.294,6.808-0.144,13.639-0.245,20.453c-0.131,8.678-0.362,17.382-0.897,26.045
				c-0.244,3.956-0.941,7.871-1.589,11.775c-0.345,2.079-1.467,3.853-2.768,5.469c-3.596,4.467-7.079-0.351-8.814-3.042
				c-4.854-7.53-3.993-19.568-4.113-28.226c-0.14-10.093-1.565-20.091-1.931-30.172C247.856,27.387,245.96,27.757,245.986,28.479z"
				/>
		</g>
	</g>
	<g>
		<g>
			<path fill="#898989" d="M261.643,158.794c-0.677,12.164,0.413,24.23-1.249,36.341c-1.597,11.634-2.151,23.433-2.727,35.153
				c-1.294,26.365-2.374,52.683-4.171,79.025c-0.948,13.885-1.554,27.781-1.58,41.7c-0.021,10.728-1.964,21.965,2.24,32.194
				c2.896,7.046,10.045,11.433,17.265,7.958c8.665-4.171,11.131-16.425,11.042-24.961c-0.011-1.04-1.932-0.791-1.922,0.119
				c0.09,8.601-3.987,27.697-16.551,24.336c-11.313-3.026-10.803-20.459-10.506-29.355c0.8-23.957,1.645-47.786,3.32-71.708
				c1.563-22.321,1.938-44.687,3.182-67.022c0.553-9.932,1.205-19.898,2.639-29.749c1.645-11.298,0.307-22.786,0.939-34.151
				C263.622,157.641,261.693,157.88,261.643,158.794L261.643,158.794z"/>
		</g>
	</g>
</g>
<path fill="#80808A" d="M250.09,116.106c-0.66-2.205-0.084-4.834,1.473-6.816c1.551-1.998,4.072-3.303,6.787-3.277
	c1.225,0.002,2.602,0.301,3.75,0.875c1.166,0.576,2.188,1.404,2.961,2.4c1.559,1.982,2.131,4.613,1.469,6.818
	c-0.648-2.189-1.764-3.945-3.232-5.156c-1.475-1.221-3.174-1.857-5.027-1.857c-1.693-0.006-3.512,0.633-4.949,1.854
	C251.848,112.159,250.734,113.917,250.09,116.106z"/>
<path fill="#FFFFFF" d="M265.979,118.498c0.352-0.953,0.553-1.982,0.553-3.064c0-4.725-3.68-8.555-8.219-8.555
	c-4.541,0-8.221,3.83-8.221,8.555c0,1.082,0.201,2.111,0.553,3.064H265.979z"/>
<ellipse cx="258.313" cy="115.434" rx="2.809" ry="2.925"/>
<circle fill="#FFFFFF" cx="256.776" cy="113.62" r="0.767"/>
<path fill="#80808A" d="M280.756,116.106c-0.66-2.205-0.084-4.834,1.473-6.816c1.551-1.998,4.072-3.303,6.787-3.277
	c1.225,0.002,2.602,0.301,3.75,0.875c1.166,0.576,2.188,1.404,2.961,2.4c1.559,1.982,2.131,4.613,1.469,6.818
	c-0.648-2.189-1.764-3.945-3.232-5.156c-1.475-1.221-3.174-1.857-5.027-1.857c-1.693-0.006-3.512,0.633-4.949,1.854
	C282.514,112.159,281.4,113.917,280.756,116.106z"/>
<path fill="#FFFFFF" d="M296.645,118.498c0.352-0.953,0.553-1.982,0.553-3.064c0-4.725-3.68-8.555-8.219-8.555
	c-4.541,0-8.221,3.83-8.221,8.555c0,1.082,0.201,2.111,0.553,3.064H296.645z"/>
<ellipse cx="288.979" cy="115.434" rx="2.809" ry="2.925"/>
<circle fill="#FFFFFF" cx="287.442" cy="113.62" r="0.767"/>
<path fill="none" stroke="#232727" stroke-width="2" stroke-linecap="round" stroke-miterlimit="10" d="M285.195,139.532
	c-1.361,6.243-6.504,9.724-11.938,9.731c-5.299,0.004-10.598-3.895-11.961-9.701"/>
<path opacity="0.6" fill="#394747" d="M412.729,389.345l-1.988-192.445l-0.707-35.507c0,0,13.957-7.744,18.066-19.445
	c5.287-15.055,12.557-120.744,12.557-120.744c-0.813-4.858-1.777-6-3.861-5.903c-2.916,0.135-3.371,2.508-3.371,2.508
	l-12.045,65.346c0,0-0.617,8.845-5.303,8.845c-4.865,0-6.582-7.296-6.582-7.296l-2.047-67.577c0,0-0.688-5.537-5.662-5.521
	c-2.777,0.007-3.678,3.381-3.678,3.381l-2.238,69.912c0,0-3.324,7.246-7.146,6.992c-3.82-0.256-6.555-7.906-6.555-7.906
	L372.59,18.41c0,0-0.365-5.113-3.648-5.113c-2.984,0-4.521,6.23-4.521,6.23s2.031,109.61,11.086,126.691
	c7.197,13.576,16.146,16.454,16.146,16.454s-19.299,210.796-10.064,227.806C392.346,410.294,412.729,389.345,412.729,389.345z"/>
<path fill="#BFBFBF" d="M408.729,387.345l-1.988-192.445l-0.707-35.507c0,0,13.957-7.744,18.066-19.445
	c5.287-15.055,12.557-120.744,12.557-120.744c-0.813-4.858-1.777-6-3.861-5.903c-2.916,0.135-3.371,2.508-3.371,2.508
	l-12.045,65.346c0,0-0.617,8.845-5.303,8.845c-4.865,0-6.582-7.296-6.582-7.296l-2.047-67.577c0,0-0.688-5.537-5.662-5.521
	c-2.777,0.007-3.678,3.381-3.678,3.381l-2.238,69.912c0,0-3.324,7.246-7.146,6.992c-3.82-0.256-6.555-7.906-6.555-7.906
	L368.59,16.41c0,0-0.365-5.113-3.648-5.113c-2.984,0-4.521,6.23-4.521,6.23s2.031,109.61,11.086,126.691
	c7.197,13.576,16.146,16.454,16.146,16.454s-19.299,210.796-10.064,227.806C388.346,408.294,408.729,387.345,408.729,387.345z"/>
<g>
	<path fill="#D4D4D4" d="M402.383,184.056c-3.738,16.617-5.4,45.698-5.4,52.344c0,6.645-5.033,36.706-5.816,52.342
		c-0.781,14.855-4.324,37.072-7.061,51.929c-1.564,9.38-0.855,20.11-1.246,29.493c0,4.692,0.219,12.684,3.738,16.201
		c3.908,4.691,9.359,3.941,12.096-1.531c3.52-6.646,5.023-15.961,5.768-23.393c1.246-12.463,0.416-19.109,0.83-32.818
		c0.371-12.269-1.246-65.221-0.83-80.176c0.174-6.301,1.197-39.44,0.414-45.697C404.094,195.322,404.529,174.521,402.383,184.056z"
		/>
</g>
<g opacity="0.5">
	<path fill="#D4D4D4" d="M364.959,14.1c5.625-2.25,4.578,18.282,4.453,21.28c-0.375,9,1.598,20.453,2.723,28.703
		c0.75,4.875,1.477,8.112,2.227,13.362c0.75,4.125,1.848,9.473,5.598,11.723c8.998,4.875,10.873-7.875,12.373-13.875
		c2.25-10.125,1.937-21,3.062-31.5c0.75-8.625,0.367-16.861,0.742-25.486c0.375-7.125,3.704-6,4.454,0
		c0.75,5.25,1.237,12.071,1.237,17.321c0,10.875,1.38,21.665,1.38,32.54c0,7.125-2.625,22.125,7.125,22.125
		c11.625,0,9.971-12.617,12-21c4.734-19.561,4.238-57.171,9.683-54.203c2.396,1.308-1.903,26.598-2.475,30.683
		c-1.731,12.372-1.979,20.537-4.583,35.52c-1.286,7.398-2.25,15-2.625,22.498c-0.375,8.625,0.581,26.274-4.669,34.524
		c-4.5,7.125-8.536,15.658-21.071,16.113c-4.695,0.17-7.295-0.91-10.941-4.33c-3.721-3.488-6.838-7.066-8.891-19.375
		c-0.789-4.739,4.699-28.057,0.949-30.68c-4.125-3.375-2.957-5.231-4.832-9.731c-3.375-9.75-2.826-21.547-4.701-31.672
		c-2.625-14.25-3.09-24.567-3.465-41.817"/>
</g>
<g>
	<g>
		<g>
			<path fill="#878787" d="M368.333,30.076c0.418,11.541,1.462,23.195,3.005,34.643c0.765,5.672,1.67,11.325,2.499,16.988
				c0.541,3.693,3.468,11.818,7.719,12.79c7.98,1.824,9.596-9.982,10.198-15.181c1.267-10.933,1.19-22.347,1.658-33.354
				c0.264-6.215,0.028-12.468,0.57-18.665c0.234-2.672,0.544-5.337,0.778-8.009c0.06-0.684,0.492-7.887,1.555-5.767
				c2.018,4.025,1.963,9.753,2.354,14.139c0.636,7.147,0.899,14.302,0.959,21.477c0.087,10.536,0.499,21.675,2.234,32.1
				c0.609,3.659,1.221,9.891,4.461,12.449c2.908,2.295,6.816,0.283,9.369-1.562c2.882-2.082,4.584-5.943,5.615-9.22
				c2.122-6.743,2.639-14.415,3.903-21.375c2.61-14.361,2.613-28.838,4.025-43.299c-0.003,0.025,1.781-5.25,3.074-2.391
				c0.822,1.817,0.359,4.297,0.379,6.26c0.035,3.55,0,7.101-0.066,10.65c-0.135,7.143-0.572,14.276-1.113,21.398
				c-1.223,16.129-2.771,32.234-4.02,48.362c-0.608,7.859-1.176,15.722-1.715,23.587c-0.248,3.618-0.273,7.298-1.006,10.856
				c-0.909,4.417-3.908,8.388-6.733,11.751c-3.775,4.496-8.855,10.329-14.51,12.321c-8.479,2.988-17.237-0.663-23.506-6.423
				c-10.712-9.843-12.1-22.973-12.499-36.621c-0.449-15.32-1.247-30.739-2.429-46.021c-0.589-7.621,0.111-15.151,0.281-22.77
				c0.151-6.766-0.748-13.528-0.539-20.283c0.141-4.519,0.605-9.501,1.65-13.913c0.36-1.523,0.533,0.517,0.617,0.857
				c0.259,1.048,0.372,2.141,0.512,3.209C368.093,22.701,368.205,26.41,368.333,30.076c0.031,0.899,1.928,0.531,1.902-0.191
				c-0.044-1.252-0.396-20.255-4.2-17.12c-2.366,1.95-2.127,6.219-2.328,9.009c-0.534,7.417-0.484,14.36-0.291,21.815
				c0.199,7.653-0.537,15.264-0.538,22.911c-0.001,7.858,1.008,15.787,1.377,23.642c0.672,14.327,0.308,29.152,2.368,43.356
				c1.672,11.523,9.35,21.804,19.446,27.345c7.146,3.921,17.599,3.199,23.861-2.161c4.223-3.614,8.519-7.678,11.79-12.188
				c4.351-5.997,5.335-11.328,5.824-18.623c1.099-16.41,2.38-32.807,3.761-49.195c1.247-14.803,2.749-29.588,3.18-44.444
				c0.061-2.103,2.225-24.814-4.237-20.188c-3.039,2.175-2.909,5.036-2.998,8.482c-0.194,7.534-1.085,15.264-1.637,22.792
				c-0.537,7.336-1.957,14.604-3.305,21.824c-1.213,6.499-1.436,13.904-4.51,19.854c-1.752,3.39-7.528,9.68-11.141,4.01
				c-1.664-2.612-2.057-6.06-2.672-9.032c-0.86-4.156-0.899-8.337-1.18-12.551c-0.91-13.661-1.099-27.356-2.144-41.014
				c-0.166-2.16-1.104-21.234-6.24-17.226c-2.184,1.704-1.464,7.145-1.675,9.555c-0.547,6.243-0.903,12.331-1.025,18.601
				c-0.185,9.562-1.098,19.083-1.386,28.636c-0.13,4.306-0.144,8.582-0.641,12.867c-0.438,3.774-3.084,17.702-9.577,10.09
				c-4.073-4.773-4.524-10.687-5.408-16.603c-0.61-4.09-1.234-8.178-1.769-12.279c-1.384-10.625-2.319-21.462-2.707-32.165
				C370.203,28.984,368.307,29.354,368.333,30.076z"/>
		</g>
	</g>
	<g>
		<g>
			<path fill="#878787" d="M385.989,160.392c-0.677,12.164,0.413,24.23-1.249,36.341c-1.596,11.635-2.151,23.435-2.727,35.153
				c-1.294,26.365-2.374,52.683-4.172,79.025c-0.947,13.886-1.553,27.782-1.579,41.701c-0.021,10.728-1.964,21.964,2.24,32.193
				c2.896,7.045,10.046,11.433,17.265,7.958c8.665-4.171,11.131-16.425,11.042-24.961c-0.011-1.04-1.932-0.791-1.922,0.119
				c0.089,8.601-3.986,27.697-16.551,24.336c-11.313-3.027-10.803-20.459-10.506-29.355c0.8-23.957,1.645-47.786,3.32-71.708
				c1.563-22.321,1.938-44.686,3.182-67.022c0.553-9.933,1.205-19.898,2.639-29.748c1.645-11.299,0.307-22.787,0.939-34.152
				C387.969,159.238,386.04,159.477,385.989,160.392L385.989,160.392z"/>
		</g>
	</g>
</g>
<path fill="#80808A" d="M405.277,115.526c-0.66-2.205-0.084-4.834,1.473-6.816c1.551-1.998,4.072-3.303,6.787-3.277
	c1.225,0.002,2.602,0.301,3.75,0.875c1.166,0.576,2.188,1.404,2.961,2.4c1.559,1.982,2.131,4.613,1.469,6.818
	c-0.648-2.189-1.764-3.945-3.232-5.156c-1.475-1.221-3.174-1.857-5.027-1.857c-1.693-0.006-3.512,0.633-4.949,1.854
	C407.035,111.579,405.922,113.337,405.277,115.526z"/>
<path fill="#FFFFFF" d="M421.166,117.918c0.352-0.953,0.553-1.982,0.553-3.064c0-4.725-3.68-8.555-8.219-8.555
	c-4.541,0-8.221,3.83-8.221,8.555c0,1.082,0.201,2.111,0.553,3.064H421.166z"/>
<path fill="#80808A" d="M372.963,115.526c-0.66-2.205-0.084-4.834,1.473-6.816c1.551-1.998,4.072-3.303,6.787-3.277
	c1.225,0.002,2.602,0.301,3.75,0.875c1.166,0.576,2.188,1.404,2.961,2.4c1.559,1.982,2.131,4.613,1.469,6.818
	c-0.648-2.189-1.764-3.945-3.232-5.156c-1.475-1.221-3.174-1.857-5.027-1.857c-1.693-0.006-3.512,0.633-4.949,1.854
	C374.721,111.579,373.607,113.337,372.963,115.526z"/>
<path fill="#FFFFFF" d="M388.852,117.918c0.352-0.953,0.553-1.982,0.553-3.064c0-4.725-3.68-8.555-8.219-8.555
	c-4.541,0-8.221,3.83-8.221,8.555c0,1.082,0.201,2.111,0.553,3.064H388.852z"/>
<ellipse cx="413.5" cy="114.854" rx="2.809" ry="2.925"/>
<circle fill="#FFFFFF" cx="411.964" cy="113.04" r="0.767"/>
<ellipse cx="381.186" cy="114.854" rx="2.809" ry="2.925"/>
<circle fill="#FFFFFF" cx="379.649" cy="113.04" r="0.767"/>
<path d="M409.926,141.586c-1.36,6.242-6.503,9.723-11.938,9.73c-5.299,0.005-10.597-3.894-11.961-9.7"/>
<path opacity="0.6" fill="#394747" d="M532.309,389.345l-1.988-192.446l-0.707-35.508c0,0,13.957-7.744,18.066-19.445
	c5.287-15.055,12.557-120.744,12.557-120.744c-0.813-4.857-1.777-6-3.861-5.902c-2.916,0.135-3.371,2.508-3.371,2.508
	l-12.045,65.346c0,0-0.617,8.846-5.303,8.846c-4.865,0-6.582-7.297-6.582-7.297l-2.047-67.576c0,0-0.688-5.537-5.662-5.521
	c-2.777,0.008-3.678,3.381-3.678,3.381l-2.238,69.912c0,0-3.324,7.246-7.146,6.992c-3.82-0.256-6.555-7.906-6.555-7.906
	l-9.578-65.574c0,0-0.365-5.113-3.648-5.113c-2.984,0-4.521,6.23-4.521,6.23s2.031,109.609,11.086,126.691
	c7.197,13.576,16.146,16.453,16.146,16.453s-19.299,210.797-10.064,227.807C511.926,410.294,532.309,389.345,532.309,389.345z"/>
<path fill="#BFBFBF" d="M528.309,387.345l-1.988-192.446l-0.707-35.508c0,0,13.957-7.744,18.066-19.445
	c5.287-15.055,12.557-120.744,12.557-120.744c-0.813-4.857-1.777-6-3.861-5.902c-2.916,0.135-3.371,2.508-3.371,2.508
	l-12.045,65.346c0,0-0.617,8.846-5.303,8.846c-4.865,0-6.582-7.297-6.582-7.297l-2.047-67.576c0,0-0.688-5.537-5.662-5.521
	c-2.777,0.008-3.678,3.381-3.678,3.381l-2.238,69.912c0,0-3.324,7.246-7.146,6.992c-3.82-0.256-6.555-7.906-6.555-7.906
	l-9.578-65.574c0,0-0.365-5.113-3.648-5.113c-2.984,0-4.521,6.23-4.521,6.23s2.031,109.609,11.086,126.691
	c7.197,13.576,16.146,16.453,16.146,16.453s-19.299,210.797-10.064,227.807C507.926,408.294,528.309,387.345,528.309,387.345z"/>
<g>
	<path fill="#D4D4D4" d="M520.963,184.055c-3.738,16.617-5.4,45.698-5.4,52.344c0,6.645-5.033,36.705-5.816,52.342
		c-0.781,14.855-4.324,37.072-7.061,51.928c-1.564,9.381-0.855,20.111-1.246,29.494c0,4.691,0.219,12.684,3.738,16.201
		c3.908,4.691,9.359,3.941,12.096-1.531c3.52-6.646,5.023-15.961,5.768-23.393c1.246-12.463,0.416-19.109,0.83-32.818
		c0.371-12.27-1.246-65.221-0.83-80.176c0.174-6.301,1.197-39.441,0.414-45.698C522.674,195.321,523.109,174.52,520.963,184.055z"/>
</g>
<g opacity="0.5">
	<path fill="#D4D4D4" d="M484.539,15.099c5.625-2.25,4.579,18.282,4.454,21.28c-0.375,9,1.597,20.453,2.722,28.703
		c0.75,4.875,1.478,8.112,2.228,13.362c0.75,4.125,1.847,9.473,5.597,11.723c8.998,4.875,10.873-7.875,12.373-13.875
		c2.25-10.125,1.937-21,3.062-31.5c0.75-8.625,0.367-16.861,0.742-25.486c0.375-7.125,3.705-6,4.455,0
		c0.75,5.25,1.236,12.071,1.236,17.321c0,10.875,1.38,21.665,1.38,32.54c0,7.125-2.625,22.125,7.125,22.125
		c11.625,0,9.972-12.617,12-21c4.734-19.561,4.239-57.172,9.683-54.203c2.396,1.308-1.902,26.598-2.475,30.683
		c-1.731,12.372-1.979,20.537-4.583,35.52c-1.286,7.398-2.25,15-2.625,22.498c-0.375,8.625,0.581,26.274-4.669,34.524
		c-4.5,7.125-8.536,15.658-21.071,16.113c-4.695,0.17-7.295-0.91-10.941-4.33c-3.721-3.488-6.838-7.066-8.891-19.375
		c-0.789-4.738,4.699-28.057,0.949-30.68c-4.125-3.375-2.957-5.231-4.832-9.731c-3.375-9.75-2.826-21.547-4.701-31.672
		c-2.625-14.25-3.089-24.567-3.464-41.817"/>
</g>
<g>
	<g>
		<g>
			<path fill="#878787" d="M487.913,30.075c0.418,11.541,1.462,23.195,3.005,34.643c0.765,5.671,1.67,11.325,2.499,16.987
				c0.541,3.693,3.467,11.819,7.719,12.791c7.98,1.824,9.596-9.982,10.198-15.181c1.267-10.933,1.19-22.348,1.658-33.354
				c0.264-6.215,0.028-12.468,0.57-18.665c0.234-2.672,0.544-5.337,0.778-8.009c0.06-0.685,0.491-7.888,1.555-5.767
				c2.018,4.025,1.963,9.753,2.354,14.139c0.636,7.147,0.899,14.302,0.959,21.477c0.088,10.536,0.499,21.675,2.234,32.1
				c0.609,3.659,1.221,9.891,4.461,12.449c2.908,2.295,6.816,0.283,9.37-1.562c2.881-2.082,4.583-5.943,5.614-9.22
				c2.121-6.743,2.639-14.415,3.903-21.375c2.61-14.361,2.613-28.838,4.025-43.299c-0.003,0.024,1.782-5.25,3.075-2.392
				c0.822,1.817,0.359,4.297,0.379,6.26c0.035,3.55,0,7.1-0.066,10.65c-0.135,7.143-0.573,14.276-1.113,21.398
				c-1.225,16.129-2.771,32.234-4.021,48.362c-0.608,7.86-1.176,15.723-1.715,23.587c-0.248,3.618-0.273,7.298-1.006,10.856
				c-0.909,4.417-3.908,8.387-6.733,11.75c-3.775,4.495-8.855,10.329-14.51,12.321c-8.479,2.988-17.237-0.663-23.506-6.423
				c-10.713-9.843-12.1-22.973-12.499-36.62c-0.449-15.321-1.247-30.74-2.429-46.021c-0.589-7.621,0.111-15.151,0.281-22.77
				c0.151-6.767-0.748-13.529-0.539-20.284c0.141-4.519,0.605-9.501,1.65-13.913c0.36-1.523,0.533,0.515,0.617,0.856
				c0.259,1.048,0.372,2.141,0.512,3.209C487.673,22.7,487.785,26.409,487.913,30.075c0.031,0.899,1.928,0.531,1.902-0.191
				c-0.043-1.251-0.397-20.257-4.2-17.12c-2.365,1.952-2.127,6.218-2.328,9.009c-0.534,7.417-0.484,14.361-0.291,21.816
				c0.199,7.653-0.537,15.264-0.538,22.911c-0.001,7.858,1.008,15.787,1.377,23.642c0.672,14.327,0.308,29.152,2.368,43.356
				c1.672,11.523,9.349,21.804,19.446,27.345c7.146,3.921,17.599,3.199,23.861-2.161c4.223-3.614,8.519-7.678,11.79-12.188
				c4.351-5.997,5.335-11.328,5.824-18.623c1.099-16.41,2.381-32.807,3.761-49.195c1.247-14.803,2.749-29.588,3.181-44.444
				c0.061-2.104,2.226-24.814-4.238-20.188c-3.038,2.174-2.909,5.036-2.998,8.481c-0.194,7.535-1.085,15.265-1.637,22.793
				c-0.537,7.336-1.957,14.604-3.305,21.824c-1.213,6.499-1.437,13.904-4.51,19.854c-1.752,3.39-7.527,9.681-11.141,4.01
				c-1.665-2.612-2.056-6.06-2.672-9.032c-0.86-4.156-0.899-8.337-1.18-12.551c-0.91-13.661-1.099-27.356-2.144-41.014
				c-0.166-2.159-1.104-21.233-6.24-17.226c-2.184,1.704-1.464,7.145-1.675,9.555c-0.547,6.243-0.903,12.331-1.024,18.601
				c-0.186,9.562-1.099,19.083-1.387,28.636c-0.13,4.306-0.145,8.582-0.641,12.867c-0.438,3.774-3.084,17.703-9.577,10.09
				c-4.073-4.774-4.524-10.687-5.408-16.604c-0.61-4.09-1.234-8.178-1.769-12.279c-1.384-10.625-2.319-21.462-2.707-32.165
				C489.783,28.983,487.887,29.353,487.913,30.075z"/>
		</g>
	</g>
	<g>
		<g>
			<path fill="#878787" d="M505.569,160.39c-0.677,12.164,0.413,24.231-1.249,36.342c-1.596,11.634-2.151,23.435-2.727,35.154
				c-1.294,26.365-2.374,52.682-4.171,79.023c-0.948,13.887-1.554,27.783-1.58,41.701c-0.021,10.729-1.965,21.965,2.24,32.195
				c2.896,7.045,10.046,11.432,17.265,7.957c8.665-4.17,11.131-16.424,11.042-24.961c-0.011-1.039-1.932-0.791-1.922,0.119
				c0.09,8.602-3.987,27.697-16.551,24.336c-11.313-3.027-10.803-20.459-10.506-29.355c0.8-23.957,1.645-47.785,3.32-71.709
				c1.563-22.32,1.938-44.686,3.182-67.021c0.553-9.932,1.205-19.898,2.639-29.748c1.645-11.299,0.307-22.787,0.939-34.152
				C507.549,159.238,505.62,159.476,505.569,160.39L505.569,160.39z"/>
		</g>
	</g>
</g>
<g>
	<g>
		<g>
			<path fill="#80808A" d="M507.858,113.627c0.66,2.206,0.084,4.834-1.473,6.816c-1.551,1.998-4.072,3.303-6.787,3.278
				c-1.223-0.001-2.602-0.301-3.75-0.875c-1.164-0.575-2.186-1.404-2.959-2.4c-1.561-1.982-2.133-4.612-1.471-6.818
				c0.648,2.19,1.764,3.945,3.232,5.157c1.475,1.22,3.174,1.857,5.027,1.857c1.693,0.005,3.512-0.634,4.949-1.854
				C506.101,117.575,507.214,115.817,507.858,113.627z"/>
			<g>
				<ellipse fill="#FFFFFF" cx="499.639" cy="113.627" rx="8.22" ry="8.556"/>
				<ellipse cx="499.64" cy="113.627" rx="2.809" ry="2.925"/>
			</g>
		</g>
		<circle fill="#FFFFFF" cx="498.104" cy="111.813" r="0.767"/>
	</g>
	<g>
		<g>
			<path fill="#80808A" d="M543.944,113.627c0.66,2.206,0.084,4.834-1.473,6.816c-1.551,1.998-4.072,3.303-6.787,3.278
				c-1.225-0.001-2.602-0.301-3.75-0.875c-1.166-0.575-2.188-1.404-2.961-2.4c-1.559-1.982-2.131-4.612-1.469-6.818
				c0.648,2.19,1.764,3.945,3.232,5.157c1.475,1.22,3.174,1.857,5.027,1.857c1.693,0.005,3.512-0.634,4.949-1.854
				C542.187,117.575,543.3,115.817,543.944,113.627z"/>
			<g>
				<ellipse fill="#FFFFFF" cx="535.725" cy="113.627" rx="8.22" ry="8.556"/>
				<ellipse cx="535.726" cy="113.627" rx="2.809" ry="2.925"/>
			</g>
		</g>
		<circle fill="#FFFFFF" cx="534.189" cy="111.813" r="0.767"/>
	</g>
	<path fill="#80808A" d="M505.157,141.313l15.022,10.272C520.18,151.585,496.573,163.172,505.157,141.313z"/>
	<path d="M505.157,141.313l15.022,10.272C520.18,151.585,498.154,157.677,505.157,141.313z"/>
</g>
<path opacity="0.6" fill="#394747" d="M652.309,389.346L650.32,196.9l-0.707-35.508c0,0,13.957-7.744,18.066-19.445
	c5.287-15.055,12.557-120.744,12.557-120.744c-0.813-4.858-1.777-6-3.861-5.903c-2.916,0.135-3.371,2.508-3.371,2.508
	l-12.045,65.346c0,0-0.617,8.845-5.303,8.845c-4.865,0-6.582-7.296-6.582-7.296l-2.047-67.577c0,0-0.688-5.537-5.662-5.521
	c-2.777,0.007-3.678,3.381-3.678,3.381l-2.238,69.912c0,0-3.324,7.246-7.146,6.992c-3.82-0.256-6.555-7.906-6.555-7.906
	L612.17,18.41c0,0-0.365-5.113-3.648-5.113c-2.984,0-4.521,6.23-4.521,6.23s2.031,109.61,11.086,126.691
	c7.197,13.576,16.146,16.454,16.146,16.454s-19.299,210.796-10.064,227.806C631.926,410.295,652.309,389.346,652.309,389.346z"/>
<path fill="#BFBFBF" d="M648.309,387.346L646.32,194.9l-0.707-35.508c0,0,13.957-7.744,18.066-19.445
	c5.287-15.055,12.557-120.744,12.557-120.744c-0.813-4.858-1.777-6-3.861-5.903c-2.916,0.135-3.371,2.508-3.371,2.508
	l-12.045,65.346c0,0-0.617,8.845-5.303,8.845c-4.865,0-6.582-7.296-6.582-7.296l-2.047-67.577c0,0-0.688-5.537-5.662-5.521
	c-2.777,0.007-3.678,3.381-3.678,3.381l-2.238,69.912c0,0-3.324,7.246-7.146,6.992c-3.82-0.256-6.555-7.906-6.555-7.906
	L608.17,16.41c0,0-0.365-5.113-3.648-5.113c-2.984,0-4.521,6.23-4.521,6.23s2.031,109.61,11.086,126.691
	c7.197,13.576,16.146,16.454,16.146,16.454s-19.299,210.796-10.064,227.806C627.926,408.295,648.309,387.346,648.309,387.346z"/>
<g>
	<path fill="#D4D4D4" d="M640.963,184.057c-3.738,16.617-5.4,45.697-5.4,52.344c0,6.645-5.033,36.705-5.816,52.342
		c-0.781,14.855-4.324,37.072-7.061,51.928c-1.564,9.381-0.855,20.111-1.246,29.494c0,4.691,0.219,12.684,3.738,16.201
		c3.908,4.691,9.359,3.941,12.096-1.531c3.52-6.646,5.023-15.961,5.768-23.393c1.246-12.463,0.416-19.109,0.83-32.818
		c0.371-12.27-1.246-65.221-0.83-80.176c0.174-6.301,1.197-39.441,0.414-45.697C642.674,195.323,643.109,174.522,640.963,184.057z"
		/>
</g>
<g opacity="0.5">
	<path fill="#D4D4D4" d="M604.539,14.101c5.625-2.25,4.58,18.282,4.455,21.28c-0.375,9,1.596,20.453,2.721,28.703
		c0.75,4.875,1.478,8.112,2.228,13.362c0.75,4.125,1.847,9.473,5.597,11.723c8.998,4.875,10.873-7.875,12.373-13.875
		c2.25-10.125,1.938-21,3.063-31.5c0.75-8.625,0.367-16.861,0.742-25.486c0.375-7.125,3.704-6,4.454,0
		c0.75,5.25,1.237,12.071,1.237,17.321c0,10.875,1.379,21.665,1.379,32.54c0,7.125-2.625,22.125,7.125,22.125
		c11.625,0,9.972-12.617,12-21c4.734-19.561,4.24-57.171,9.684-54.203c2.396,1.308-1.902,26.598-2.475,30.683
		c-1.732,12.372-1.979,20.537-4.584,35.52c-1.285,7.398-2.25,15-2.625,22.498c-0.375,8.625,0.582,26.274-4.668,34.524
		c-4.5,7.125-8.537,15.658-21.072,16.113c-4.695,0.17-7.295-0.91-10.941-4.33c-3.721-3.488-6.838-7.066-8.891-19.375
		c-0.789-4.739,4.699-28.057,0.949-30.68c-4.125-3.375-2.957-5.231-4.832-9.731c-3.375-9.75-2.826-21.547-4.701-31.672
		c-2.625-14.25-3.089-24.567-3.464-41.817"/>
</g>
<g>
	<g>
		<g>
			<path fill="#878787" d="M608.719,30.479c0.418,11.541,1.463,23.195,3.005,34.643c0.765,5.672,1.67,11.325,2.499,16.988
				c0.541,3.693,3.468,11.818,7.719,12.79c7.98,1.825,9.596-9.982,10.198-15.181c1.267-10.933,1.19-22.348,1.658-33.354
				c0.264-6.215,0.028-12.468,0.571-18.665c0.233-2.672,0.543-5.337,0.777-8.009c0.06-0.684,0.491-7.888,1.555-5.766
				c2.018,4.025,1.963,9.753,2.354,14.139c0.636,7.147,0.899,14.302,0.959,21.477c0.088,10.536,0.499,21.675,2.234,32.1
				c0.609,3.659,1.221,9.891,4.461,12.449c2.908,2.295,6.816,0.284,9.369-1.562c2.882-2.082,4.584-5.943,5.615-9.22
				c2.121-6.743,2.639-14.415,3.903-21.375c2.61-14.361,2.613-28.838,4.025-43.299c-0.003,0.025,1.782-5.25,3.074-2.392
				c0.822,1.817,0.359,4.297,0.379,6.26c0.035,3.55,0,7.1-0.066,10.65c-0.135,7.143-0.573,14.275-1.113,21.398
				c-1.223,16.129-2.771,32.234-4.02,48.362c-0.608,7.86-1.176,15.723-1.715,23.587c-0.248,3.618-0.273,7.298-1.006,10.856
				c-0.909,4.417-3.908,8.387-6.733,11.751c-3.775,4.495-8.855,10.329-14.51,12.321c-8.479,2.988-17.237-0.663-23.506-6.423
				c-10.713-9.843-12.1-22.972-12.5-36.62c-0.448-15.321-1.246-30.74-2.428-46.021c-0.589-7.621,0.111-15.151,0.281-22.77
				c0.151-6.766-0.748-13.528-0.539-20.283c0.141-4.519,0.605-9.501,1.65-13.912c0.361-1.523,0.533,0.515,0.617,0.856
				c0.259,1.048,0.372,2.141,0.512,3.208C608.479,23.104,608.591,26.813,608.719,30.479c0.031,0.899,1.928,0.531,1.902-0.191
				c-0.043-1.251-0.397-20.256-4.2-17.12c-2.365,1.952-2.127,6.218-2.328,9.009c-0.534,7.417-0.484,14.361-0.291,21.816
				c0.199,7.653-0.537,15.264-0.538,22.911c0,7.858,1.008,15.787,1.377,23.642c0.672,14.327,0.308,29.152,2.368,43.356
				c1.672,11.523,9.35,21.804,19.446,27.345c7.146,3.921,17.599,3.199,23.861-2.161c4.223-3.614,8.519-7.678,11.79-12.188
				c4.351-5.997,5.335-11.329,5.824-18.624c1.099-16.41,2.38-32.807,3.761-49.195c1.247-14.803,2.749-29.588,3.18-44.445
				c0.061-2.103,2.225-24.813-4.237-20.188c-3.038,2.175-2.909,5.036-2.998,8.481c-0.194,7.535-1.085,15.265-1.637,22.793
				c-0.537,7.336-1.957,14.604-3.305,21.823c-1.213,6.499-1.436,13.904-4.51,19.854c-1.752,3.39-7.528,9.681-11.141,4.01
				c-1.665-2.612-2.056-6.06-2.672-9.032c-0.86-4.155-0.899-8.337-1.18-12.551c-0.91-13.661-1.099-27.356-2.144-41.014
				c-0.166-2.16-1.104-21.233-6.24-17.226c-2.184,1.704-1.465,7.145-1.676,9.554c-0.546,6.243-0.902,12.331-1.023,18.602
				c-0.186,9.562-1.099,19.083-1.387,28.636c-0.13,4.306-0.145,8.582-0.641,12.867c-0.438,3.774-3.083,17.702-9.578,10.09
				c-4.072-4.773-4.523-10.687-5.407-16.603c-0.61-4.09-1.234-8.178-1.769-12.279c-1.384-10.625-2.319-21.462-2.707-32.165
				C610.589,29.387,608.692,29.757,608.719,30.479z"/>
		</g>
	</g>
	<g>
		<g>
			<path fill="#878787" d="M626.375,160.794c-0.677,12.164,0.413,24.231-1.249,36.342c-1.597,11.634-2.151,23.434-2.727,35.152
				c-1.294,26.365-2.374,52.682-4.171,79.023c-0.948,13.887-1.554,27.783-1.58,41.703c-0.02,10.727-1.965,21.963,2.24,32.193
				c2.896,7.045,10.046,11.432,17.265,7.957c8.665-4.17,11.131-16.424,11.042-24.961c-0.011-1.039-1.932-0.791-1.922,0.119
				c0.09,8.602-3.986,27.697-16.551,24.336c-11.313-3.027-10.803-20.459-10.506-29.355c0.8-23.957,1.645-47.785,3.32-71.709
				c1.563-22.32,1.938-44.684,3.182-67.021c0.553-9.932,1.205-19.897,2.639-29.747c1.645-11.299,0.307-22.787,0.939-34.153
				C628.354,159.641,626.426,159.88,626.375,160.794L626.375,160.794z"/>
		</g>
	</g>
</g>
<g>
	<path fill="#80808A" d="M626.469,115.479c0.58,1.939,0.074,4.248-1.295,5.993c-1.363,1.755-3.58,2.902-5.965,2.88
		c-1.076,0-2.289-0.263-3.297-0.77c-1.023-0.506-1.922-1.234-2.604-2.109c-1.369-1.743-1.873-4.055-1.291-5.995
		c0.57,1.924,1.551,3.469,2.844,4.533c1.295,1.073,2.789,1.633,4.418,1.633c1.488,0.006,3.086-0.556,4.352-1.63
		C624.926,118.949,625.904,117.403,626.469,115.479z"/>
	<ellipse fill="#FFFFFF" cx="619.243" cy="115.479" rx="7.226" ry="7.52"/>
	<ellipse cx="621.953" cy="112.772" rx="2.469" ry="2.569"/>
	<circle fill="#FFFFFF" cx="620.603" cy="111.176" r="0.675"/>
	<path fill="#80808A" d="M659.449,115.479c0.578,1.939,0.074,4.248-1.295,5.993c-1.363,1.755-3.58,2.902-5.967,2.88
		c-1.076,0-2.287-0.263-3.295-0.77c-1.025-0.506-1.924-1.234-2.604-2.109c-1.371-1.743-1.875-4.055-1.293-5.995
		c0.572,1.924,1.553,3.469,2.842,4.533c1.297,1.073,2.791,1.633,4.422,1.633c1.486,0.006,3.086-0.556,4.35-1.63
		C657.904,118.949,658.881,117.403,659.449,115.479z"/>
	<ellipse fill="#FFFFFF" cx="652.223" cy="115.479" rx="7.227" ry="7.52"/>
	<ellipse cx="654.932" cy="112.772" rx="2.469" ry="2.569"/>
	<circle fill="#FFFFFF" cx="653.583" cy="111.176" r="0.675"/>
</g>
<g>
	<path fill="#80808A" d="M633.879,142.816c-11.365,0.989-10.736,6.924,1.264,7.543c6.63,0.371,10.734-1.484,10.734-4.08
		c0-2.722-4.735-3.34-10.734-3.463"/>
	<g>
		<path fill="#80808A" d="M633.956,142.165c-2.366,0.236-9.318,0.911-9.104,4.628c0.226,3.913,8.375,4.145,10.835,4.249
			c3.007,0.127,10.134-0.113,10.994-4.169c1.055-4.979-8.568-4.636-11.233-4.703c-0.856-0.021-1.807,1.263-0.611,1.293
			c2.458,0.062,8.71-0.415,10.029,2.332c1.661,3.458-6.401,3.936-7.975,3.961c-2.896,0.045-8.106-0.072-10.054-2.704
			c-1.861-2.518,6.058-3.493,6.964-3.583C634.792,143.369,635.162,142.044,633.956,142.165L633.956,142.165z"/>
	</g>
</g>
<g>
	<path fill="#121212" d="M633.814,143.101c-10.801,0.939-10.203,6.581,1.201,7.167c6.299,0.352,10.199-1.41,10.199-3.878
		c0-2.585-4.5-3.172-10.199-3.29"/>
</g>
<path opacity="0.6" fill="#394747" d="M767.518,389.345l-1.987-192.445l-0.707-35.508c0,0,13.116-8.074,18.065-19.446
	c15.396-35.37-3.443-120.743-3.443-120.743c-0.813-4.858-1.776-6-3.861-5.903c-2.916,0.136-3.37,2.509-3.37,2.509l3.954,65.345
	c0,0-0.617,8.847-5.302,8.847c-4.865,0-6.583-7.298-6.583-7.298l-2.047-67.576c0,0-0.688-5.536-5.662-5.521
	c-2.777,0.008-3.678,3.382-3.678,3.382l-2.237,69.911c0,0-3.376,7.663-7.146,6.992c-5.862-1.043-5.608-7.639-5.608-7.639
	l5.475-65.842c0,0-0.364-5.113-3.647-5.113c-2.984,0-4.521,6.23-4.521,6.23s-23.69,82.483-4.914,126.692
	c6.007,14.143,16.146,16.452,16.146,16.452s-19.3,210.798-10.065,227.808C747.135,410.294,767.518,389.345,767.518,389.345z"/>
<path fill="#C1C1C1" d="M765.17,386.058l-1.988-192.445l-0.707-35.508c0,0,13.116-8.074,18.066-19.446
	c15.395-35.37-3.443-120.743-3.443-120.743c-0.813-4.858-1.777-6-3.861-5.903c-2.916,0.136-3.371,2.509-3.371,2.509l3.955,65.345
	c0,0-0.617,8.847-5.303,8.847c-4.865,0-6.582-7.298-6.582-7.298l-2.047-67.576c0,0-0.688-5.536-5.662-5.521
	c-2.777,0.008-3.678,3.382-3.678,3.382l-2.238,69.911c0,0-3.375,7.663-7.146,6.992c-5.861-1.043-5.607-7.639-5.607-7.639
	l5.475-65.842c0,0-0.365-5.113-3.648-5.113c-2.984,0-4.521,6.23-4.521,6.23s-23.689,82.483-4.914,126.692
	c6.007,14.142,16.146,16.452,16.146,16.452s-19.299,210.798-10.064,227.808C744.787,407.007,765.17,386.058,765.17,386.058z"/>
<g>
	<path fill="#D6D6D6" d="M757.824,182.769c-3.738,16.616-5.4,45.697-5.4,52.343s-5.033,36.706-5.816,52.343
		c-0.781,14.855-4.324,37.071-7.061,51.927c-1.564,9.382-0.855,20.112-1.246,29.495c0,4.691,0.219,12.683,3.738,16.201
		c3.908,4.691,9.359,3.941,12.096-1.531c3.52-6.646,5.023-15.962,5.768-23.394c1.246-12.462,0.416-19.109,0.83-32.817
		c0.371-12.27-1.246-65.222-0.83-80.177c0.174-6.301,1.197-39.441,0.414-45.696C759.535,194.034,759.971,173.232,757.824,182.769z"
		/>
</g>
<g opacity="0.5">
	<path fill="#D6D6D6" d="M736.898,11.917c5.625-2.25,1.812,18.813,1.488,21.795c-1.908,17.577-4.26,23.362-3.135,31.612
		c0.75,4.875-1.699,12.612-0.949,17.862c0.75,4.125,0.348,4.232,4.383,5.917c8.658,3.617,11.322-5.068,12.822-11.068
		c2.25-10.125-1.079-24.174,0.046-34.674c0.75-8.625-0.269-20.677,0.106-29.301c0.375-7.125,3.283-3.346,4.033,2.654
		c0.75,5.249,1.168,11.842,1.168,17.092c0,10.875,0.956,21.612,0.956,32.487c0,7.125-0.794,22.395,8.956,22.395
		c11.625,0,12.365-12.383,12-21c-1.606-37.902-11.439-55.568-5.439-54.068c2.625,0.75,8.666,32.375,8.666,36.5
		c0,12,1.542,19,1.167,31c-0.375,7.5-4.019,13.568-4.394,21.067c-0.375,8.625,2.625,17.25-2.625,25.5
		c-4.5,7.125-10.58,24.681-23.115,25.136c-4.695,0.171-7.295-0.91-10.941-4.33c-3.721-3.488-6.838-7.066-8.891-19.375
		c-0.789-4.737,1.473-21.402,0.553-26.424c-0.96-5.243-0.755-8.212-2.63-12.712c-3.375-9.75-1.907-17.238-1.322-27.518
		c0.904-15.879,2.997-26.57,7.494-49.871"/>
</g>
<g>
	<g>
		<path fill="#80808A" d="M744.625,112.703c0.605,2.027,0.078,4.441-1.352,6.263c-1.428,1.836-3.744,3.035-6.238,3.013
			c-1.123-0.001-2.391-0.276-3.443-0.805c-1.072-0.528-2.012-1.291-2.723-2.206c-1.432-1.82-1.959-4.237-1.35-6.265
			c0.596,2.011,1.621,3.625,2.971,4.738c1.355,1.121,2.916,1.707,4.619,1.707c1.557,0.004,3.227-0.583,4.547-1.703
			C743.01,116.331,744.033,114.714,744.625,112.703z"/>
		<path fill="#FFFFFF" d="M729.52,112.703c0,4.342,3.381,7.86,7.553,7.86s7.553-3.519,7.553-7.86H729.52z"/>
		<path d="M734.609,112.682c0,1.483,1.156,2.686,2.582,2.686s2.58-1.202,2.58-2.686H734.609z"/>
		<path fill="#FFFFFF" d="M734.912,112.682c0,0.391,0.316,0.706,0.705,0.706s0.705-0.315,0.705-0.706H734.912z"/>
	</g>
	<g>
		<path fill="#80808A" d="M777.756,112.703c0.605,2.027,0.078,4.441-1.354,6.263c-1.426,1.836-3.744,3.035-6.238,3.013
			c-1.123-0.001-2.391-0.276-3.445-0.805c-1.07-0.528-2.01-1.291-2.721-2.206c-1.432-1.82-1.959-4.237-1.35-6.265
			c0.596,2.011,1.621,3.625,2.971,4.738c1.355,1.121,2.916,1.707,4.619,1.707c1.557,0.004,3.227-0.583,4.549-1.703
			C776.141,116.331,777.162,114.714,777.756,112.703z"/>
		<path fill="#FFFFFF" d="M762.648,112.703c0,4.342,3.383,7.86,7.555,7.86s7.553-3.519,7.553-7.86H762.648z"/>
		<path d="M767.738,112.682c0,1.483,1.154,2.686,2.58,2.686s2.582-1.202,2.582-2.686H767.738z"/>
		<path fill="#FFFFFF" d="M768.041,112.682c0,0.391,0.316,0.706,0.705,0.706s0.705-0.315,0.705-0.706H768.041z"/>
	</g>
	<path fill="#80808A" d="M741.025,144.35c0,0-0.826-0.146,0.59-0.663c2.283-0.832,8.475-2.16,12.094-2.301
		c2.672-0.104,4.785-0.282,5.664-0.044c1.135,0.311,0.428,1.356,0.428,1.356L741.025,144.35z"/>
	<path d="M741.092,143.887c0,0,5.813-2.527,12.896-2.802s5.867,0.844,5.867,0.844L741.092,143.887z"/>
</g>
<g>
	<g>
		<g>
			<path fill="#898989" d="M739.084,28.235c-1.823,10.457-1.894,21.054-3.438,31.541c-0.605,4.11-1.108,8.207-1.388,12.354
				c-0.329,4.902-1.861,12.649,0.609,17.236c4.205,7.809,10.412,3.063,12.745-3.31c1.635-4.467,1.513-10.186,1.621-14.906
				c0.131-5.75,0.467-11.47,0.812-17.211c0.738-12.31,0.977-24.578,1.893-36.873c0.041-0.561,0.353-6.825,1.469-4.598
				c0.93,1.854,1.135,4.258,1.461,6.273c0.866,5.356,1.073,10.794,1.505,16.195c0.608,7.622,0.241,15.306,0.596,22.943
				c0.257,5.513,1.046,10.983,1.316,16.502c0.248,5.073,1.068,20.372,8.878,18.934c10.367-1.91,9.274-13.672,8.807-21.547
				c-0.748-12.584-2.174-25.142-3.413-37.684c-0.586-5.927-2.021-12.404-1.541-18.363c0.362-4.5,3.692,3.595,3.095,2.064
				c0.605,1.55,0.873,3.318,1.255,4.932c0.952,4.027,1.746,8.092,2.5,12.16c2.706,14.606,4.258,29.398,5.879,44.154
				c1.504,13.698,2.17,27.218-0.153,40.865c-1.24,7.286-3.074,14.648-6.286,21.324c-3.058,6.356-8.099,11.494-13.292,16.155
				c-6.227,5.589-15.428,3.877-21.977-0.088c-6.374-3.86-11.197-10.565-14.37-17.209c-6.038-12.641-6.05-29.591-5.727-43.27
				c0.245-10.41,1.873-20.743,3.192-31.053c0.944-7.384,1.503-14.883,2.918-22.195c1.431-7.389,3.354-15.123,5.619-22.299
				c0.44-1.395,0.992-2.755,1.514-4.121c0.717-1.881,2.06-6.023,3.452-2.542C740.318,18.812,739.766,23.884,739.084,28.235
				c-0.134,0.853,1.786,0.552,1.902-0.191c0.187-1.189,1.43-19.83-3.86-16.332c-2.993,1.979-3.908,5.655-5.067,8.876
				c-1.883,5.232-2.781,10.849-4.21,16.22c-2.942,11.059-3.734,22.512-5.233,33.829c-1.993,15.04-3.003,29.622-1.955,44.771
				c0.928,13.407,3.571,24.911,11.834,35.699c6.466,8.44,16.832,12.929,27.24,10.097c3.439-0.936,6.082-3.545,8.544-5.965
				c4.722-4.642,8.611-9.324,11.499-15.326c5.659-11.765,7.301-26.269,7.373-39.179c0.073-13.263-1.939-26.598-3.488-39.742
				c-1.723-14.608-3.641-29.532-7.662-43.713c-1.625-5.733-7.207-5.021-6.875,0.818c0.729,12.782,2.391,25.578,3.662,38.317
				c0.586,5.881,1.048,11.775,1.398,17.675c0.245,4.123,0.137,8.193-0.47,12.276c-0.201,1.351-1.609,2.491-2.53,3.37
				c-1.777,1.883-4.047,2.284-6.81,1.202c-0.622-0.895-1.137-1.849-1.546-2.863c-1.857-4.158-2.378-9.664-2.655-14.199
				c-0.338-5.514-0.969-10.992-1.316-16.503c-0.823-13.081-0.227-26.113-2.101-39.137c-0.325-2.258-0.729-8.126-3.626-8.676
				c-2.392-0.453-2.798,3.295-2.976,4.761c-1.489,12.252-1.2,24.646-1.852,36.956c-0.305,5.757-0.775,11.504-0.917,17.269
				c-0.144,5.858-0.107,12.011-1.679,17.703c-1.02,3.695-4.885,8.175-8.399,3.632c-2.612-3.377-1.508-9.333-1.376-13.285
				c0.17-5.115,0.618-10.197,1.354-15.26c1.61-11.07,1.776-22.266,3.698-33.292C741.134,27.198,739.213,27.493,739.084,28.235z"/>
		</g>
	</g>
	<g>
		<g>
			<path fill="#898989" d="M742.246,159.506c-0.677,12.164,0.413,24.23-1.249,36.341c-1.597,11.634-2.151,23.434-2.727,35.153
				c-1.294,26.365-2.374,52.683-4.171,79.025c-0.948,13.885-1.554,27.781-1.58,41.7c-0.02,10.728-1.964,21.965,2.24,32.194
				c2.896,7.046,10.045,11.433,17.265,7.958c8.665-4.171,11.131-16.425,11.042-24.961c-0.011-1.04-1.932-0.791-1.922,0.119
				c0.09,8.601-3.987,27.697-16.551,24.336c-11.313-3.026-10.803-20.459-10.506-29.355c0.8-23.957,1.645-47.786,3.32-71.708
				c1.563-22.321,1.938-44.686,3.182-67.022c0.553-9.933,1.205-19.898,2.639-29.749c1.645-11.298,0.307-22.786,0.939-34.151
				C744.226,158.353,742.297,158.592,742.246,159.506L742.246,159.506z"/>
		</g>
	</g>
</g>
<path opacity="0.6" fill="#394747" d="M892.309,389.345L890.32,196.9l-0.707-35.508c0,0,13.957-7.744,18.066-19.445
	c5.287-15.055,12.557-120.744,12.557-120.744c-0.813-4.858-1.777-6-3.861-5.903c-2.916,0.135-3.371,2.508-3.371,2.508
	l-12.045,65.346c0,0-0.617,8.845-5.303,8.845c-4.865,0-6.582-7.296-6.582-7.296l-2.047-67.577c0,0-0.688-5.537-5.662-5.521
	c-2.777,0.007-3.678,3.381-3.678,3.381l-2.238,69.912c0,0-3.324,7.246-7.146,6.992c-3.82-0.256-6.555-7.906-6.555-7.906
	L852.17,18.41c0,0-0.365-5.113-3.648-5.113c-2.984,0-4.521,6.23-4.521,6.23s2.031,109.61,11.086,126.691
	c7.197,13.576,16.146,16.454,16.146,16.454s-19.299,210.796-10.064,227.806C871.926,410.294,892.309,389.345,892.309,389.345z"/>
<path fill="#BFBFBF" d="M888.309,387.345L886.32,194.9l-0.71-33.25c0,0,14.802-7.839,19.278-21.359
	c5.016-15.147,11.348-121.088,11.348-121.088c-0.813-4.858-1.777-6-3.861-5.903c-2.916,0.135-3.371,2.508-3.371,2.508
	l-12.045,65.346c0,0-0.617,8.845-5.303,8.845c-4.865,0-6.582-7.296-6.582-7.296l-2.047-67.577c0,0-0.688-5.537-5.662-5.521
	c-2.777,0.007-3.678,3.381-3.678,3.381l-2.238,69.912c0,0-3.324,7.246-7.146,6.992c-3.82-0.256-6.555-7.906-6.555-7.906
	L848.17,16.41c0,0-0.365-5.113-3.648-5.113c-2.984,0-4.521,6.23-4.521,6.23s2.031,109.61,11.086,126.691
	c7.197,13.576,16.146,16.454,16.146,16.454s-19.299,210.796-10.064,227.806C867.926,408.294,888.309,387.345,888.309,387.345z"/>
<g opacity="0.5">
	<path fill="#D4D4D4" d="M844.539,14.1c5.625-2.25,4.578,18.282,4.453,21.28c-0.375,9,1.598,20.453,2.723,28.703
		c0.75,4.875,1.477,8.112,2.227,13.362c0.75,4.125,1.848,9.473,5.598,11.723c8.998,4.875,10.873-7.875,12.373-13.875
		c2.25-10.125,1.937-21,3.062-31.5c0.75-8.625,0.367-16.861,0.742-25.486c0.375-7.125,3.704-6,4.454,0
		c0.75,5.25,1.237,12.071,1.237,17.321c0,10.875,1.38,21.665,1.38,32.54c0,7.125-2.625,22.125,7.125,22.125
		c11.625,0,9.971-12.617,12-21c4.734-19.561,4.238-57.171,9.683-54.203c2.396,1.308-1.903,26.598-2.475,30.683
		c-1.731,12.372-1.979,20.537-4.583,35.52c-1.286,7.398-2.25,15-2.625,22.498c-0.375,8.625,0.581,26.274-4.669,34.524
		c-4.5,7.125-8.536,15.658-21.071,16.113c-4.695,0.17-7.295-0.91-10.941-4.33c-3.721-3.488-6.838-7.066-8.891-19.375
		c-0.789-4.739,4.699-28.057,0.949-30.68c-4.125-3.375-2.957-5.231-4.832-9.731c-3.375-9.75-2.826-21.547-4.701-31.672
		c-2.625-14.25-3.09-24.567-3.465-41.817"/>
</g>
<g>
	<g>
		<g>
			<path fill="#878787" d="M848.718,30.478c0.418,11.541,1.462,23.195,3.005,34.643c0.765,5.672,1.67,11.325,2.499,16.988
				c0.541,3.693,3.468,11.818,7.719,12.79c7.98,1.825,9.596-9.982,10.198-15.181c1.267-10.933,1.19-22.348,1.658-33.354
				c0.264-6.215,0.028-12.468,0.57-18.665c0.234-2.672,0.544-5.337,0.778-8.009c0.06-0.684,0.491-7.888,1.555-5.766
				c2.018,4.025,1.963,9.753,2.354,14.139c0.636,7.147,0.899,14.302,0.959,21.477c0.087,10.536,0.499,21.675,2.234,32.1
				c0.609,3.659,1.221,9.891,4.461,12.449c2.908,2.295,6.816,0.284,9.369-1.562c2.882-2.082,4.584-5.943,5.615-9.22
				c2.122-6.743,2.639-14.415,3.903-21.375c2.61-14.361,2.613-28.838,4.025-43.299c-0.003,0.025,1.781-5.25,3.074-2.392
				c0.822,1.817,0.359,4.297,0.379,6.26c0.035,3.55,0,7.1-0.066,10.65c-0.135,7.143-0.572,14.275-1.113,21.398
				c-1.223,16.129-2.771,32.234-4.02,48.362c-0.608,7.86-1.176,15.723-1.715,23.587c-0.248,3.618-0.273,7.298-1.006,10.856
				c-0.909,4.417-3.908,8.387-6.733,11.751c-3.775,4.495-8.855,10.329-14.51,12.321c-8.479,2.988-17.237-0.663-23.506-6.423
				c-10.712-9.843-12.1-22.972-12.499-36.62c-0.449-15.321-1.247-30.74-2.429-46.021c-0.589-7.621,0.111-15.151,0.281-22.77
				c0.151-6.766-0.748-13.528-0.538-20.283c0.14-4.519,0.604-9.501,1.649-13.912c0.36-1.523,0.532,0.515,0.617,0.856
				c0.259,1.048,0.372,2.141,0.513,3.208C848.478,23.103,848.59,26.813,848.718,30.478c0.031,0.899,1.928,0.531,1.902-0.191
				c-0.044-1.251-0.397-20.256-4.2-17.12c-2.365,1.952-2.127,6.218-2.328,9.009c-0.534,7.417-0.484,14.361-0.291,21.816
				c0.199,7.653-0.537,15.264-0.538,22.911c-0.001,7.858,1.008,15.787,1.377,23.642c0.672,14.327,0.308,29.152,2.368,43.356
				c1.672,11.523,9.35,21.804,19.446,27.345c7.146,3.921,17.599,3.199,23.861-2.161c4.223-3.614,8.519-7.678,11.79-12.188
				c4.351-5.997,5.335-11.329,5.824-18.624c1.099-16.41,2.38-32.807,3.761-49.195c1.247-14.803,2.749-29.588,3.18-44.445
				c0.062-2.103,2.225-24.813-4.237-20.188c-3.039,2.175-2.909,5.036-2.998,8.481c-0.194,7.535-1.085,15.265-1.637,22.793
				c-0.537,7.336-1.957,14.604-3.305,21.823c-1.213,6.499-1.436,13.904-4.51,19.854c-1.752,3.39-7.527,9.681-11.141,4.01
				c-1.664-2.612-2.057-6.06-2.672-9.032c-0.86-4.155-0.899-8.337-1.18-12.551c-0.91-13.661-1.099-27.356-2.144-41.014
				c-0.166-2.16-1.104-21.233-6.24-17.226c-2.184,1.704-1.464,7.145-1.675,9.554c-0.547,6.243-0.904,12.331-1.025,18.602
				c-0.185,9.562-1.098,19.083-1.386,28.636c-0.13,4.306-0.144,8.582-0.641,12.867c-0.438,3.774-3.083,17.702-9.577,10.09
				c-4.073-4.773-4.524-10.687-5.408-16.603c-0.61-4.09-1.234-8.178-1.769-12.279c-1.384-10.625-2.319-21.462-2.707-32.165
				C850.588,29.387,848.691,29.756,848.718,30.478z"/>
		</g>
	</g>
	<g>
		<g>
			<path fill="#878787" d="M866.374,160.794c-0.677,12.164,0.413,24.231-1.249,36.342c-1.596,11.633-2.151,23.433-2.727,35.153
				c-1.294,26.365-2.374,52.682-4.172,79.023c-0.947,13.886-1.553,27.782-1.579,41.702c-0.021,10.728-1.964,21.964,2.24,32.193
				c2.896,7.045,10.046,11.433,17.265,7.958c8.665-4.171,11.131-16.425,11.042-24.961c-0.011-1.04-1.932-0.791-1.922,0.119
				c0.089,8.601-3.987,27.697-16.551,24.336c-11.313-3.027-10.803-20.459-10.506-29.355c0.8-23.957,1.645-47.786,3.32-71.709
				c1.563-22.32,1.938-44.685,3.182-67.021c0.553-9.932,1.205-19.898,2.639-29.748c1.645-11.299,0.307-22.787,0.939-34.153
				C868.354,159.641,866.425,159.879,866.374,160.794L866.374,160.794z"/>
		</g>
	</g>
</g>
<path fill="#878787" d="M886.281,147.75c0,4.988-4.043,9.031-9.03,9.031l0,0c-4.987,0-9.03-4.043-9.03-9.031v-7.489
	c0-4.987,4.043-9.031,9.03-9.031l0,0c4.987,0,9.03,4.044,9.03,9.031V147.75z"/>
<g>
	<path fill="#D4D4D4" d="M880.963,184.056c-3.738,16.618-5.4,45.698-5.4,52.344c0,6.645-5.033,36.705-5.816,52.341
		c-0.781,14.855-4.324,37.072-7.061,51.929c-1.564,9.38-0.855,20.11-1.246,29.493c0,4.692,0.219,12.684,3.738,16.201
		c3.908,4.691,9.359,3.941,12.096-1.531c3.52-6.646,5.023-15.961,5.768-23.393c1.246-12.463,0.416-19.109,0.83-32.818
		c0.371-12.269-1.246-65.221-0.83-80.175c0.174-6.301,1.197-39.441,0.414-45.697C882.674,195.322,883.109,174.521,880.963,184.056z"
		/>
</g>
<g>
	<path fill="#82808C" d="M868.159,110.402c0.66,2.206,0.084,4.834-1.473,6.816c-1.551,1.998-4.072,3.303-6.787,3.277
		c-1.223-0.001-2.602-0.301-3.75-0.875c-1.164-0.575-2.186-1.404-2.959-2.4c-1.561-1.982-2.133-4.612-1.471-6.818
		c0.648,2.19,1.764,3.945,3.232,5.157c1.475,1.22,3.174,1.858,5.027,1.858c1.693,0.004,3.512-0.634,4.949-1.855
		C866.401,114.351,867.515,112.592,868.159,110.402z"/>
	<path fill="#FFFFFF" d="M865.165,103.799l-11.996,1.757c-0.913,1.378-1.449,3.047-1.449,4.847c0,4.726,3.68,8.555,8.221,8.555
		c4.539,0,8.219-3.83,8.219-8.555C868.159,107.743,866.994,105.368,865.165,103.799z"/>
	<ellipse cx="859.94" cy="110.402" rx="2.809" ry="2.924"/>
	<circle fill="#FFFFFF" cx="858.404" cy="108.589" r="0.767"/>
</g>
<g>
	<path fill="#82808C" d="M901.245,110.402c0.66,2.206,0.084,4.834-1.473,6.816c-1.551,1.998-4.072,3.303-6.787,3.277
		c-1.225-0.001-2.602-0.301-3.75-0.875c-1.166-0.575-2.188-1.404-2.961-2.4c-1.559-1.982-2.131-4.612-1.469-6.818
		c0.648,2.19,1.764,3.945,3.232,5.157c1.475,1.22,3.174,1.858,5.027,1.858c1.693,0.004,3.512-0.634,4.949-1.855
		C899.487,114.351,900.601,112.592,901.245,110.402z"/>
	<path fill="#FFFFFF" d="M887.803,103.797c-1.83,1.569-2.997,3.945-2.997,6.605c0,4.726,3.68,8.555,8.221,8.555
		c4.539,0,8.219-3.83,8.219-8.555c0-1.63-0.446-3.147-1.206-4.443L887.803,103.797z"/>
	<ellipse cx="893.026" cy="110.402" rx="2.809" ry="2.924"/>
	<circle fill="#FFFFFF" cx="891.49" cy="108.589" r="0.767"/>
</g>
<path d="M885.061,147.243c0,4.313-3.496,7.81-7.81,7.81l0,0c-4.313,0-7.81-3.497-7.81-7.81v-6.476c0-4.312,3.496-7.81,7.81-7.81l0,0
	c4.313,0,7.81,3.498,7.81,7.81V147.243z"/>
<path opacity="0.6" fill="#394747" d="M1007.742,389.345l-1.987-192.445l-0.761-37.541c0,0,14.01-5.711,18.119-17.413
	c5.287-15.055,5.557-120.743,5.557-120.743c-0.813-4.858-1.776-6-3.861-5.903c-2.916,0.136-3.37,2.509-3.37,2.509l-5.046,65.345
	c0,0-1.728,4.894-6.412,4.894c-4.865,0-5.473-3.345-5.473-3.345l-2.047-67.576c0,0-0.688-5.536-5.662-5.521
	c-2.777,0.008-3.678,3.382-3.678,3.382l-2.237,69.911c0,0-3.838,3.708-7.659,3.453s-6.042-4.366-6.042-4.366l-3.579-65.575
	c0,0-0.364-5.113-3.647-5.113c-2.984,0-4.521,6.23-4.521,6.23s-6.09,110.915,5.086,126.692
	c8.739,12.338,17.118,12.226,17.118,12.226s-20.271,215.024-11.037,232.034C987.359,410.294,1007.742,389.345,1007.742,389.345z"/>
<path fill="#C1C1C1" d="M1004.742,385.345l-1.987-192.445l-0.707-35.508c0,0,13.956-7.744,18.065-19.446
	c5.287-15.055,5.557-120.743,5.557-120.743c-0.813-4.858-1.776-6-3.861-5.903c-2.916,0.136-3.37,2.509-3.37,2.509l-5.046,65.345
	c0,0-0.617,8.847-5.302,8.847c-4.865,0-6.583-7.298-6.583-7.298l-2.047-67.576c0,0-0.688-5.536-5.662-5.521
	c-2.777,0.008-3.678,3.382-3.678,3.382l-2.237,69.911c0,0-3.325,7.247-7.146,6.992s-6.555-7.905-6.555-7.905l-3.579-65.575
	c0,0-0.364-5.113-3.647-5.113c-2.984,0-4.521,6.23-4.521,6.23s-3.97,109.61,5.086,126.692c7.196,13.575,16.146,16.452,16.146,16.452
	s-19.3,210.798-10.065,227.808C984.359,406.294,1004.742,385.345,1004.742,385.345z"/>
<g>
	<path fill="#D6D6D6" d="M996.397,182.056c-3.739,16.616-5.4,45.697-5.4,52.343s-5.034,36.706-5.816,52.343
		c-0.781,14.855-4.325,37.071-7.062,51.927c-1.563,9.382-0.855,20.112-1.246,29.495c0,4.691,0.22,12.683,3.738,16.201
		c3.909,4.691,9.36,3.941,12.097-1.531c3.519-6.646,5.023-15.962,5.767-23.394c1.246-12.462,0.416-19.109,0.831-32.817
		c0.371-12.27-1.246-65.222-0.831-80.177c0.175-6.301,1.197-39.441,0.415-45.696C998.108,193.321,998.543,172.52,996.397,182.056z"
		/>
</g>
<g opacity="0.5">
	<path fill="#D6D6D6" d="M966.223,14.042c5.625-2.25,2.75,14.627,2.625,17.624c-0.375,9-0.375,21,0.75,29.25
		c0.75,4.875,2.25,9.75,3,15c0.75,4.125-0.375,9,3.375,11.25c8.999,4.875,10.874-7.875,12.374-13.875
		c2.25-10.125,4.5-19.875,5.625-30.375c0.75-8.625-0.75-16.875-0.375-25.499c0.375-7.125,3.75-5.625,4.5,0.375
		c0.75,5.249,0.375,10.874,0.375,16.124c0,10.875,0.75,21.375,0.75,32.25c0,7.125-2.625,22.125,7.125,22.125
		c11.625,0,12-12.375,12-21c0-2.25-1.5-54.374,4.5-52.874c2.625,0.75,0.75,25.124,0.75,29.249c0,12-2.25,23.625-2.625,35.625
		c-0.375,7.5-2.25,15-2.625,22.499c-0.375,8.625,2.625,17.25-2.625,25.5c-4.5,7.125-10.58,24.681-23.116,25.136
		c-4.695,0.171-7.294-0.91-10.941-4.33c-3.721-3.488-6.838-7.066-8.89-19.375c-0.79-4.737,4.698-28.056,0.948-30.68
		c-4.125-3.375,0.375-4.125-1.5-8.625c-3.375-9.75-4.875-22.875-6.75-33c-2.625-14.25,0-24.375-0.375-41.624"/>
</g>
<g>
	<g>
		<g>
			<path fill="#898989" d="M966.162,28.478c0.432,11.89,1.717,23.689,2.028,35.592c0.14,5.376,0.725,10.715,1.476,16.037
				c0.521,3.69,3.483,11.822,7.72,12.791c7.979,1.825,9.596-9.983,10.198-15.182c1.267-10.933,1.19-22.347,1.657-33.354
				c0.264-6.215,0.028-12.468,0.571-18.665c0.233-2.672,0.543-5.336,0.777-8.008c0.06-0.685,0.491-7.889,1.556-5.766
				c2.018,4.025,1.963,9.753,2.353,14.138c0.636,7.148,0.899,14.303,0.959,21.478c0.088,10.536,0.5,21.675,2.235,32.1
				c0.938,5.633,4.375,19.049,12.706,11.595c3.155-2.824,2.983-7.418,3.394-11.392c0.778-7.54,2.121-14.999,2.862-22.547
				c0.742-7.563,0.875-15.122,1.042-22.71c0.076-3.485,0.653-6.974,1.025-10.435c0.354-3.303-0.273-6.935,0.954-10.074
				c0.431-1.104,2.3,4.714,2.274,4.605c0.439,1.845,0.761,3.715,1.085,5.583c0.64,3.685,0.973,7.42,1.245,11.147
				c0.633,8.663,0.377,17.383,0.337,26.06c-0.072,15.949-1.567,31.745-3.184,47.598c-0.774,7.594-1.495,15.192-2.01,22.809
				c-0.518,7.655-5.503,13.916-10.683,19.147c-4.555,4.6-8.261,8.655-15.043,9.271c-8.835,0.803-16.503-5.011-21.603-11.668
				c-8.721-11.385-8.307-23.623-8.942-37.308c-0.39-8.387-0.263-16.698-0.053-25.087c0.213-8.466-0.624-16.887-0.451-25.334
				c0.13-6.38,0.558-12.71,0.499-19.098c-0.054-5.805-0.845-11.577-0.222-17.374c0.246-2.285,0.516-4.554,0.688-6.847
				c0.072-0.954,1.218-4.094,0.905-4.788C966.515,17.215,965.999,23.799,966.162,28.478c0.031,0.899,1.928,0.531,1.902-0.191
				c-0.043-1.252-0.396-20.256-4.199-17.12c-2.365,1.951-2.127,6.217-2.328,9.008c-0.536,7.417-0.485,14.361-0.292,21.816
				c0.199,7.653-0.537,15.264-0.538,22.911c-0.001,8.495,0.619,16.932,0.389,25.449c-0.37,13.671-0.612,27.979,1.357,41.549
				c2.623,18.083,25.247,40.261,42.705,24.59c4.106-3.686,8.047-7.752,11.295-12.216c4.117-5.658,4.765-11.547,5.289-18.328
				c1.223-15.812,3.313-31.542,4.292-47.375c0.931-15.048,1.1-30.484,0.001-45.527c-0.166-2.276-1.964-26.274-7.656-19.901
				c-2.584,2.892-1.371,9.438-1.746,12.926c-0.851,7.921-0.839,15.806-1.288,23.753c-0.431,7.624-1.329,15.217-2.516,22.757
				c-0.441,2.802-0.75,5.61-1.041,8.431c-0.102,0.988-0.228,1.972-0.359,2.957c-0.281,2.091-2.209,13.943-8.313,6.423
				c-3.09-3.806-3.612-10.589-4.081-15.336c-0.473-4.79-0.652-9.596-1.157-14.391c-1.41-13.404-0.462-26.949-2.026-40.383
				c-0.314-2.695-0.508-9.48-3.278-11.095c-1.814-1.058-2.91,1.136-3.334,2.467c-1.344,4.224-0.906,9.825-1.329,14.235
				c-0.643,6.712-0.353,13.529-0.639,20.268c-0.366,8.634-1.031,17.236-1.229,25.878c-0.094,4.078-0.596,8.084-1.244,12.108
				c-0.306,1.898-1.14,3.555-2.158,5.166c-2.99,4.732-6.735,0.16-8.53-2.624c-4.854-7.531-3.994-19.567-4.114-28.226
				c-0.14-10.093-1.563-20.091-1.931-30.172C968.032,27.386,966.136,27.756,966.162,28.478z"/>
		</g>
	</g>
	<g>
		<g>
			<path fill="#898989" d="M981.818,158.793c-0.676,12.164,0.414,24.23-1.248,36.341c-1.597,11.634-2.151,23.433-2.727,35.153
				c-1.294,26.365-2.374,52.683-4.172,79.025c-0.947,13.885-1.553,27.781-1.579,41.7c-0.021,10.728-1.965,21.965,2.239,32.194
				c2.896,7.045,10.046,11.433,17.265,7.958c8.665-4.171,11.131-16.425,11.042-24.961c-0.011-1.04-1.932-0.791-1.922,0.119
				c0.09,8.6-3.986,27.697-16.55,24.336c-11.313-3.026-10.804-20.459-10.506-29.356c0.8-23.956,1.645-47.785,3.32-71.707
				c1.563-22.321,1.938-44.687,3.181-67.022c0.553-9.932,1.206-19.898,2.64-29.749c1.645-11.298,0.307-22.786,0.938-34.151
				C983.798,157.64,981.869,157.879,981.818,158.793L981.818,158.793z"/>
		</g>
	</g>
</g>
<path d="M980.771,147.632c0,0,0.741-8.682,7.938-9.095c7.196-0.411,11.325,9.095,11.325,9.095s-5.228-1.487-11.171-1.487
	C982.92,146.145,980.771,147.632,980.771,147.632z"/>
<g>
	<path fill="#82808C" d="M965.514,113.065c0.666-1.879,1.678-3.421,2.992-4.506c1.475-1.22,3.174-1.858,5.027-1.858
		c1.693-0.004,3.512,0.635,4.949,1.855c1.473,1.211,2.586,2.97,3.23,5.16c0.66-2.206,0.084-4.834-1.473-6.816
		c-1.551-1.998-4.072-3.303-6.787-3.277c-1.225,0.001-2.602,0.301-3.75,0.875c-1.166,0.575-2.188,1.405-2.961,2.4
		c-1.389,1.766-1.988,4.045-1.635,6.082L965.514,113.065z"/>
	<path fill="#FFFFFF" d="M981.076,116.344c0.408-1.017,0.635-2.131,0.635-3.301c0-4.725-3.68-8.555-8.221-8.555
		c-4.529,0-8.202,3.815-8.217,8.526L981.076,116.344z"/>
	<path d="M975.427,115.153c0.536-0.532,0.872-1.278,0.872-2.11c0-1.613-1.256-2.924-2.809-2.924c-1.551,0-2.809,1.311-2.809,2.924
		c0,0.413,0.084,0.804,0.232,1.16L975.427,115.153z"/>
	<circle fill="#FFFFFF" cx="975.026" cy="111.229" r="0.767"/>
</g>
<g>
	<path fill="#82808C" d="M1017.132,113.065c-0.667-1.879-1.678-3.421-2.993-4.506c-1.475-1.22-3.174-1.858-5.027-1.858
		c-1.693-0.004-3.512,0.635-4.949,1.855c-1.473,1.211-2.586,2.97-3.23,5.16c-0.66-2.206-0.084-4.834,1.473-6.816
		c1.551-1.998,4.072-3.303,6.787-3.277c1.225,0.001,2.602,0.301,3.75,0.875c1.166,0.575,2.188,1.405,2.961,2.4
		c1.389,1.766,1.988,4.045,1.635,6.082L1017.132,113.065z"/>
	<path fill="#FFFFFF" d="M1001.569,116.344c-0.409-1.017-0.636-2.131-0.636-3.301c0-4.725,3.68-8.555,8.221-8.555
		c4.529,0,8.203,3.815,8.217,8.526L1001.569,116.344z"/>
	<path d="M1007.219,115.153c-0.536-0.532-0.873-1.278-0.873-2.11c0-1.613,1.256-2.924,2.809-2.924c1.551,0,2.809,1.311,2.809,2.924
		c0,0.413-0.084,0.804-0.232,1.16L1007.219,115.153z"/>
	<circle fill="#FFFFFF" cx="1007.618" cy="111.229" r="0.767"/>
</g>
<path opacity="0.6" fill="#394747" d="M1127.808,389.345L1125.82,196.9l-0.707-35.508c0,0,13.116-8.074,18.065-19.446
	c15.396-35.37-3.443-120.743-3.443-120.743c-0.813-4.858-1.776-6-3.861-5.903c-2.916,0.136-3.37,2.509-3.37,2.509l3.954,65.345
	c0,0-0.617,8.847-5.302,8.847c-4.865,0-6.583-7.298-6.583-7.298l-2.047-67.576c0,0-0.688-5.536-5.662-5.521
	c-2.777,0.008-3.678,3.382-3.678,3.382l-2.237,69.911c0,0-3.376,7.663-7.146,6.992c-5.862-1.043-5.608-7.639-5.608-7.639
	l5.475-65.842c0,0-0.364-5.113-3.647-5.113c-2.984,0-4.521,6.23-4.521,6.23s-23.69,82.483-4.914,126.692
	c6.007,14.142,16.146,16.452,16.146,16.452s-19.3,210.797-10.065,227.807C1107.425,410.294,1127.808,389.345,1127.808,389.345z"/>
<path fill="#C1C1C1" d="M1125.46,386.058l-1.988-192.445l-0.707-35.508c0,0,13.116-8.074,18.066-19.446
	c15.395-35.37-3.443-120.743-3.443-120.743c-0.813-4.858-1.777-6-3.861-5.903c-2.916,0.136-3.371,2.509-3.371,2.509l3.955,65.345
	c0,0-0.617,8.847-5.303,8.847c-4.865,0-6.582-7.298-6.582-7.298l-2.047-67.576c0,0-0.688-5.536-5.662-5.521
	c-2.777,0.008-3.678,3.382-3.678,3.382l-2.238,69.911c0,0-3.375,7.663-7.146,6.992c-5.861-1.043-5.607-7.639-5.607-7.639
	l5.475-65.842c0,0-0.365-5.113-3.648-5.113c-2.984,0-4.521,6.23-4.521,6.23s-23.689,82.483-4.914,126.692
	c6.007,14.142,16.146,16.452,16.146,16.452s-19.299,210.797-10.064,227.807C1105.077,407.007,1125.46,386.058,1125.46,386.058z"/>
<g>
	<path fill="#D6D6D6" d="M1118.114,182.769c-3.738,16.616-5.4,45.697-5.4,52.343c0,6.645-5.033,36.705-5.816,52.342
		c-0.781,14.855-4.324,37.072-7.061,51.928c-1.564,9.381-0.855,20.111-1.246,29.494c0,4.691,0.219,12.684,3.738,16.201
		c3.908,4.691,9.359,3.941,12.096-1.531c3.52-6.646,5.023-15.961,5.768-23.393c1.246-12.463,0.416-19.109,0.83-32.818
		c0.371-12.27-1.246-65.221-0.83-80.176c0.174-6.301,1.197-39.441,0.414-45.696C1119.825,194.035,1120.261,173.233,1118.114,182.769
		z"/>
</g>
<g opacity="0.5">
	<path fill="#D6D6D6" d="M1096.188,11.234c5.625-2.25,1.812,18.813,1.488,21.795c-1.908,17.577-4.26,23.362-3.135,31.612
		c0.75,4.875-1.699,12.613-0.949,17.863c0.75,4.125,0.348,4.231,4.383,5.917c8.658,3.617,11.322-5.068,12.822-11.068
		c2.25-10.125-1.079-24.174,0.046-34.674c0.75-8.625-0.269-20.678,0.106-29.302c0.375-7.125,3.283-3.346,4.033,2.654
		c0.75,5.249,1.168,11.842,1.168,17.092c0,10.875,0.956,21.611,0.956,32.486c0,7.125-0.794,22.395,8.956,22.395
		c11.625,0,12.365-12.383,12-21c-1.606-37.901-11.439-55.568-5.439-54.068c2.625,0.75,8.666,32.375,8.666,36.5
		c0,12,1.542,19,1.167,31c-0.375,7.5-4.019,13.568-4.394,21.067c-0.375,8.625,2.625,17.25-2.625,25.5
		c-4.5,7.125-10.58,24.681-23.115,25.136c-4.695,0.171-7.295-0.91-10.941-4.33c-3.721-3.488-6.838-7.066-8.891-19.375
		c-0.789-4.737,1.473-21.402,0.553-26.424c-0.96-5.243-0.755-8.212-2.63-12.712c-3.375-9.75-1.907-17.238-1.322-27.518
		c0.904-15.879,2.997-26.571,7.494-49.871"/>
</g>
<g>
	<g>
		<g>
			<path fill="#898989" d="M1099.374,28.236c-1.823,10.457-1.894,21.054-3.438,31.541c-0.605,4.11-1.108,8.207-1.388,12.354
				c-0.329,4.902-1.861,12.649,0.609,17.236c4.205,7.809,10.412,3.063,12.745-3.31c1.635-4.467,1.513-10.186,1.621-14.906
				c0.131-5.75,0.467-11.47,0.812-17.211c0.738-12.31,0.977-24.578,1.893-36.873c0.041-0.561,0.353-6.825,1.469-4.598
				c0.93,1.854,1.135,4.258,1.461,6.273c0.866,5.356,1.073,10.794,1.505,16.195c0.608,7.622,0.241,15.306,0.596,22.943
				c0.257,5.513,1.046,10.983,1.316,16.502c0.248,5.073,1.068,20.372,8.878,18.934c10.367-1.91,9.274-13.672,8.807-21.547
				c-0.748-12.584-2.174-25.142-3.413-37.684c-0.586-5.927-2.021-12.404-1.541-18.363c0.362-4.501,3.692,3.595,3.095,2.064
				c0.605,1.55,0.873,3.318,1.255,4.932c0.952,4.027,1.746,8.091,2.5,12.16c2.706,14.606,4.258,29.398,5.879,44.154
				c1.504,13.698,2.17,27.218-0.153,40.865c-1.24,7.286-3.074,14.648-6.286,21.324c-3.058,6.356-8.099,11.494-13.292,16.155
				c-6.227,5.589-15.428,3.877-21.977-0.088c-6.374-3.86-11.197-10.565-14.37-17.209c-6.037-12.641-6.05-29.591-5.727-43.27
				c0.245-10.41,1.873-20.744,3.192-31.054c0.944-7.384,1.503-14.883,2.918-22.195c1.431-7.389,3.354-15.123,5.619-22.299
				c0.44-1.395,0.992-2.755,1.514-4.121c0.717-1.88,2.06-6.023,3.452-2.541C1100.608,18.813,1100.056,23.885,1099.374,28.236
				c-0.134,0.853,1.786,0.552,1.902-0.191c0.187-1.19,1.43-19.829-3.86-16.332c-2.993,1.979-3.908,5.655-5.067,8.876
				c-1.883,5.233-2.781,10.849-4.21,16.22c-2.942,11.059-3.734,22.512-5.233,33.829c-1.993,15.04-3.003,29.622-1.955,44.772
				c0.928,13.406,3.571,24.911,11.834,35.698c6.466,8.44,16.832,12.929,27.24,10.097c3.439-0.936,6.082-3.545,8.544-5.965
				c4.722-4.642,8.611-9.324,11.499-15.327c5.659-11.765,7.301-26.268,7.373-39.178c0.073-13.263-1.939-26.597-3.488-39.741
				c-1.723-14.608-3.642-29.532-7.662-43.714c-1.625-5.733-7.207-5.021-6.875,0.819c0.729,12.782,2.391,25.578,3.662,38.316
				c0.586,5.881,1.048,11.775,1.398,17.676c0.245,4.123,0.137,8.193-0.47,12.276c-0.201,1.351-1.609,2.491-2.53,3.37
				c-1.777,1.883-4.047,2.284-6.81,1.202c-0.622-0.895-1.137-1.849-1.546-2.863c-1.857-4.158-2.378-9.664-2.655-14.199
				c-0.338-5.514-0.969-10.992-1.316-16.503c-0.823-13.081-0.227-26.113-2.101-39.137c-0.325-2.258-0.729-8.126-3.626-8.676
				c-2.392-0.453-2.798,3.295-2.976,4.761c-1.489,12.252-1.2,24.646-1.852,36.956c-0.305,5.757-0.775,11.504-0.917,17.269
				c-0.144,5.858-0.107,12.011-1.679,17.703c-1.02,3.695-4.885,8.175-8.399,3.632c-2.612-3.377-1.508-9.333-1.376-13.285
				c0.17-5.115,0.618-10.197,1.354-15.26c1.61-11.07,1.776-22.266,3.698-33.292C1101.424,27.199,1099.503,27.494,1099.374,28.236z"
				/>
		</g>
	</g>
	<g>
		<g>
			<path fill="#898989" d="M1102.536,159.507c-0.677,12.164,0.413,24.23-1.249,36.341c-1.597,11.634-2.151,23.434-2.727,35.153
				c-1.294,26.365-2.374,52.682-4.171,79.025c-0.948,13.885-1.554,27.781-1.58,41.699c-0.02,10.729-1.964,21.965,2.24,32.195
				c2.896,7.045,10.045,11.432,17.265,7.957c8.665-4.17,11.131-16.424,11.042-24.961c-0.011-1.039-1.932-0.791-1.922,0.119
				c0.09,8.602-3.987,27.697-16.551,24.336c-11.313-3.025-10.803-20.459-10.506-29.355c0.8-23.957,1.645-47.785,3.32-71.707
				c1.563-22.322,1.938-44.687,3.182-67.023c0.553-9.932,1.205-19.898,2.639-29.748c1.645-11.298,0.307-22.786,0.939-34.151
				C1104.516,158.354,1102.587,158.592,1102.536,159.507L1102.536,159.507z"/>
		</g>
	</g>
</g>
<path opacity="0.6" fill="#394747" d="M1254.056,389.051l-1.988-192.446l-0.707-35.508c0,0,13.957-7.744,18.066-19.445
	c5.287-15.055,12.557-120.744,12.557-120.744c-0.813-4.857-1.777-6-3.861-5.902c-2.916,0.135-3.371,2.508-3.371,2.508
	l-12.045,65.346c0,0-0.617,8.846-5.303,8.846c-4.865,0-6.582-7.297-6.582-7.297l-2.047-67.576c0,0-0.688-5.537-5.662-5.521
	c-2.777,0.008-3.678,3.381-3.678,3.381l-2.238,69.912c0,0-3.324,7.246-7.146,6.992c-3.82-0.256-6.555-7.906-6.555-7.906
	l-9.578-65.574c0,0-0.365-5.113-3.648-5.113c-2.984,0-4.521,6.23-4.521,6.23s2.031,109.609,11.086,126.691
	c7.197,13.576,16.146,16.453,16.146,16.453s-19.299,210.797-10.064,227.807C1233.673,410,1254.056,389.051,1254.056,389.051z"/>
<path fill="#BFBFBF" d="M1250.056,387.051l-1.988-192.446l-0.71-33.25c0,0,14.802-7.839,19.278-21.36
	c5.016-15.147,11.348-121.088,11.348-121.088c-0.813-4.857-1.777-6-3.861-5.902c-2.916,0.135-3.371,2.508-3.371,2.508
	l-12.045,65.346c0,0-0.617,8.846-5.303,8.846c-4.865,0-6.582-7.297-6.582-7.297l-2.047-67.576c0,0-0.688-5.537-5.662-5.521
	c-2.777,0.008-3.678,3.381-3.678,3.381l-2.238,69.912c0,0-3.324,7.246-7.146,6.992c-3.82-0.256-6.555-7.906-6.555-7.906
	l-9.578-65.574c0,0-0.365-5.113-3.648-5.113c-2.984,0-4.521,6.23-4.521,6.23s2.031,109.609,11.086,126.691
	c7.197,13.576,16.146,16.453,16.146,16.453s-19.299,210.797-10.064,227.807C1229.673,408,1250.056,387.051,1250.056,387.051z"/>
<g opacity="0.5">
	<path fill="#D4D4D4" d="M1206.286,13.805c5.625-2.25,4.578,18.282,4.453,21.28c-0.375,9,1.598,20.452,2.723,28.702
		c0.75,4.875,1.477,8.112,2.227,13.362c0.75,4.125,1.848,9.473,5.598,11.723c8.998,4.875,10.873-7.875,12.373-13.875
		c2.25-10.125,1.937-21,3.062-31.5c0.75-8.625,0.367-16.861,0.742-25.485c0.375-7.125,3.704-6,4.454,0
		c0.75,5.25,1.237,12.07,1.237,17.32c0,10.875,1.38,21.665,1.38,32.54c0,7.125-2.625,22.125,7.125,22.125
		c11.625,0,9.971-12.617,12-21c4.734-19.561,4.238-57.172,9.683-54.202c2.396,1.307-1.903,26.598-2.475,30.682
		c-1.731,12.372-1.979,20.537-4.583,35.52c-1.286,7.398-2.25,15-2.625,22.498c-0.375,8.625,0.581,26.274-4.669,34.524
		c-4.5,7.125-8.536,15.658-21.071,16.113c-4.695,0.17-7.295-0.91-10.941-4.33c-3.721-3.488-6.838-7.066-8.891-19.375
		c-0.789-4.738,4.699-28.057,0.949-30.68c-4.125-3.375-2.957-5.231-4.832-9.731c-3.375-9.75-2.826-21.547-4.701-31.672
		c-2.625-14.25-3.09-24.567-3.465-41.817"/>
</g>
<g>
	<g>
		<g>
			<path fill="#878787" d="M1210.465,30.183c0.418,11.541,1.462,23.195,3.005,34.643c0.765,5.671,1.67,11.325,2.499,16.987
				c0.541,3.693,3.468,11.819,7.719,12.791c7.98,1.824,9.596-9.982,10.198-15.181c1.267-10.933,1.19-22.348,1.658-33.354
				c0.264-6.215,0.028-12.468,0.57-18.665c0.234-2.672,0.544-5.337,0.778-8.009c0.06-0.685,0.491-7.888,1.555-5.767
				c2.018,4.025,1.963,9.753,2.354,14.139c0.636,7.147,0.899,14.302,0.959,21.477c0.087,10.536,0.499,21.675,2.234,32.1
				c0.609,3.659,1.221,9.891,4.461,12.449c2.908,2.295,6.816,0.283,9.369-1.562c2.882-2.082,4.584-5.943,5.615-9.22
				c2.122-6.743,2.639-14.415,3.903-21.375c2.61-14.361,2.613-28.837,4.025-43.299c-0.003,0.025,1.781-5.25,3.074-2.392
				c0.822,1.817,0.359,4.297,0.379,6.26c0.035,3.55,0,7.1-0.066,10.65c-0.135,7.143-0.572,14.276-1.113,21.398
				c-1.223,16.129-2.771,32.234-4.02,48.362c-0.608,7.86-1.176,15.723-1.715,23.587c-0.248,3.618-0.273,7.298-1.006,10.857
				c-0.909,4.416-3.908,8.387-6.733,11.75c-3.775,4.496-8.856,10.329-14.51,12.321c-8.479,2.988-17.237-0.663-23.506-6.423
				c-10.712-9.843-12.1-22.973-12.499-36.62c-0.449-15.321-1.247-30.74-2.429-46.021c-0.589-7.621,0.111-15.151,0.281-22.77
				c0.151-6.767-0.748-13.529-0.538-20.284c0.14-4.519,0.604-9.501,1.649-13.913c0.36-1.523,0.532,0.515,0.617,0.856
				c0.259,1.048,0.372,2.141,0.513,3.209C1210.225,22.808,1210.337,26.518,1210.465,30.183c0.031,0.899,1.928,0.531,1.902-0.191
				c-0.044-1.251-0.397-20.257-4.2-17.12c-2.365,1.952-2.127,6.218-2.328,9.009c-0.534,7.417-0.484,14.361-0.291,21.816
				c0.199,7.653-0.537,15.264-0.538,22.911c-0.001,7.858,1.008,15.787,1.377,23.642c0.672,14.327,0.308,29.152,2.368,43.356
				c1.672,11.523,9.35,21.804,19.446,27.345c7.146,3.921,17.599,3.2,23.861-2.161c4.222-3.614,8.519-7.678,11.79-12.188
				c4.351-5.997,5.336-11.328,5.824-18.623c1.099-16.41,2.38-32.807,3.761-49.195c1.247-14.803,2.749-29.588,3.18-44.444
				c0.062-2.103,2.225-24.814-4.237-20.188c-3.039,2.175-2.909,5.036-2.998,8.481c-0.194,7.535-1.085,15.265-1.637,22.793
				c-0.537,7.336-1.957,14.604-3.305,21.824c-1.213,6.499-1.436,13.904-4.51,19.854c-1.752,3.39-7.528,9.68-11.141,4.01
				c-1.664-2.612-2.057-6.06-2.672-9.032c-0.86-4.156-0.899-8.337-1.18-12.551c-0.91-13.661-1.099-27.356-2.144-41.014
				c-0.166-2.159-1.104-21.233-6.24-17.226c-2.184,1.704-1.464,7.145-1.675,9.555c-0.547,6.243-0.904,12.331-1.025,18.601
				c-0.185,9.562-1.098,19.083-1.386,28.636c-0.13,4.306-0.144,8.582-0.641,12.867c-0.438,3.774-3.083,17.703-9.577,10.09
				c-4.073-4.774-4.524-10.687-5.408-16.604c-0.61-4.09-1.234-8.178-1.769-12.279c-1.384-10.625-2.319-21.462-2.707-32.165
				C1212.335,29.092,1210.438,29.461,1210.465,30.183z"/>
		</g>
	</g>
	<g>
		<g>
			<path fill="#878787" d="M1228.121,160.499c-0.677,12.164,0.413,24.231-1.249,36.342c-1.596,11.634-2.151,23.434-2.727,35.153
				c-1.294,26.365-2.374,52.682-4.172,79.023c-0.947,13.887-1.553,27.783-1.579,41.701c-0.021,10.729-1.964,21.965,2.24,32.195
				c2.896,7.045,10.046,11.432,17.265,7.957c8.665-4.17,11.131-16.424,11.042-24.961c-0.011-1.039-1.932-0.791-1.922,0.119
				c0.089,8.602-3.987,27.697-16.551,24.336c-11.313-3.027-10.803-20.459-10.506-29.355c0.8-23.957,1.645-47.785,3.32-71.709
				c1.563-22.32,1.938-44.685,3.182-67.021c0.553-9.932,1.205-19.898,2.639-29.748c1.645-11.299,0.307-22.787,0.939-34.152
				C1230.101,159.346,1228.172,159.584,1228.121,160.499L1228.121,160.499z"/>
		</g>
	</g>
</g>
<g>
	<path fill="#D4D4D4" d="M1243.71,183.761c-3.738,16.618-5.4,45.698-5.4,52.344c0,6.645-5.033,36.705-5.816,52.342
		c-0.781,14.855-4.324,37.072-7.061,51.928c-1.564,9.381-0.855,20.111-1.246,29.494c0,4.691,0.219,12.684,3.738,16.201
		c3.908,4.691,9.359,3.941,12.096-1.531c3.52-6.646,5.023-15.961,5.768-23.393c1.246-12.463,0.416-19.109,0.83-32.818
		c0.371-12.27-1.246-65.221-0.83-80.176c0.174-6.301,1.197-39.441,0.414-45.697C1245.421,195.027,1245.856,174.226,1243.71,183.761z
		"/>
</g>
<g>
	<path fill="#82808C" d="M1100.606,141.486c0,0,1.081-6.482,8.451-5.596c11.082,1.332,11.998,5.625,11.998,5.625
		s-5.812-3.612-11.938-3.612S1100.606,141.486,1100.606,141.486z"/>
	<path d="M1100.813,140.666c0,0,0.764-4.983,8.184-5.22c7.418-0.236,11.674,5.22,11.674,5.22s-5.547-4.036-11.674-4.036
		S1100.813,140.666,1100.813,140.666z"/>
	<g>
		<path fill="#82808C" d="M1103.618,117.383c-0.406,2.083-1.996,3.981-4.113,4.931c-2.121,0.966-4.734,0.951-6.938-0.234
			c-0.996-0.526-1.993-1.362-2.683-2.322c-0.706-0.97-1.184-2.086-1.39-3.231c-0.424-2.286,0.231-4.68,1.715-6.196
			c-0.405,2.065-0.247,3.977,0.434,5.596c0.682,1.628,1.795,2.878,3.306,3.673c1.378,0.729,3.135,0.986,4.829,0.608
			C1100.497,119.853,1102.157,118.893,1103.618,117.383z"/>
		<path fill="#FFFFFF" d="M1090.21,110.332c-2.019,3.857-0.654,8.562,3.049,10.508c3.703,1.948,8.341,0.4,10.359-3.457
			L1090.21,110.332z"/>
		<path d="M1094.737,112.689c-0.689,1.318-0.223,2.925,1.043,3.591c1.264,0.666,2.85,0.137,3.539-1.182L1094.737,112.689z"/>
		<path fill="#FFFFFF" d="M1095.007,112.83c-0.182,0.346-0.047,0.774,0.297,0.956c0.346,0.182,0.773,0.049,0.953-0.297
			L1095.007,112.83z"/>
	</g>
	<g>
		<path fill="#82808C" d="M1120.952,117.165c1.57,1.396,3.299,2.227,5.039,2.454c1.719,0.25,3.449-0.141,4.77-0.971
			c1.447-0.907,2.463-2.236,3.021-3.911c0.556-1.667,0.569-3.585,0.009-5.614c1.594,1.399,2.429,3.738,2.178,6.049
			c-0.119,1.158-0.512,2.306-1.142,3.326c-0.615,1.009-1.546,1.918-2.501,2.518c-2.107,1.348-4.712,1.561-6.899,0.756
			C1123.243,120.984,1121.514,119.211,1120.952,117.165z"/>
		<path fill="#FFFFFF" d="M1133.79,109.123c2.305,3.693,1.297,8.488-2.247,10.709c-3.546,2.221-8.287,1.027-10.591-2.667
			L1133.79,109.123z"/>
		<path d="M1129.454,111.814c0.787,1.263,0.443,2.9-0.77,3.659c-1.211,0.76-2.831,0.351-3.618-0.91L1129.454,111.814z"/>
		<path fill="#FFFFFF" d="M1129.196,111.975c0.207,0.332,0.105,0.769-0.225,0.976c-0.33,0.207-0.768,0.107-0.973-0.223
			L1129.196,111.975z"/>
	</g>
</g>
<path d="M1216.595,127.574h45.395c0,0,0.949,24.138-24.147,24.138S1216.595,127.574,1216.595,127.574z"/>
<g>
	<g>
		<path fill="#82808C" d="M1230.128,105.92c0.934,2.104,0.698,4.783-0.594,6.947c-1.285,2.179-3.621,3.794-6.316,4.114
			c-1.213,0.154-2.619,0.032-3.829-0.392c-1.229-0.422-2.349-1.115-3.243-2.005c-1.798-1.768-2.701-4.304-2.323-6.575
			c0.921,2.088,2.25,3.688,3.862,4.703c1.617,1.022,3.384,1.439,5.223,1.204c1.679-0.211,3.4-1.075,4.673-2.468
			C1228.887,110.059,1229.767,108.173,1230.128,105.92z"/>
		<g>
			<path fill="#FFFFFF" d="M1215.834,101.214c-1.538,1.779-2.341,4.224-2.012,6.796c0.601,4.686,4.737,8.017,9.24,7.439
				c4.503-0.577,7.667-4.842,7.065-9.529L1215.834,101.214z"/>
			<ellipse transform="matrix(0.9919 -0.1272 0.1272 0.9919 -3.6809 156.279)" cx="1221.975" cy="106.965" rx="2.808" ry="2.923"/>
		</g>
	</g>
	<circle fill="#FFFFFF" cx="1220.221" cy="105.361" r="0.767"/>
</g>
<g>
	<path fill="#82808C" d="M1247.573,105.845c0.34,2.256,1.201,4.15,2.495,5.553c1.258,1.405,2.973,2.285,4.649,2.513
		c1.836,0.253,3.607-0.147,5.234-1.154c1.621-1,2.965-2.587,3.906-4.667c0.356,2.276-0.572,4.803-2.387,6.553
		c-0.902,0.881-2.028,1.563-3.261,1.974c-1.214,0.413-2.622,0.521-3.833,0.355c-2.692-0.345-5.012-1.983-6.276-4.174
		C1246.829,110.622,1246.619,107.94,1247.573,105.845z"/>
	<path fill="#FFFFFF" d="M1261.911,101.274c1.521,1.793,2.303,4.247,1.947,6.815c-0.645,4.681-4.813,7.971-9.311,7.351
		c-4.498-0.62-7.619-4.915-6.975-9.596L1261.911,101.274z"/>
	<g>
		<ellipse transform="matrix(0.9906 0.1366 -0.1366 0.9906 26.3962 -170.589)" cx="1255.715" cy="106.967" rx="2.809" ry="2.923"/>
		<circle fill="#FFFFFF" cx="1254.442" cy="104.96" r="0.767"/>
	</g>
</g>
</svg>
