<?xml version="1.0" encoding="utf-8"?>
<!-- Generator: Adobe Illustrator 16.0.0, SVG Export Plug-In . SVG Version: 6.00 Build 0)  -->
<!DOCTYPE svg PUBLIC "-//W3C//DTD SVG 1.1//EN" "http://www.w3.org/Graphics/SVG/1.1/DTD/svg11.dtd">
<svg version="1.1" id="Layer_1" xmlns="http://www.w3.org/2000/svg" xmlns:xlink="http://www.w3.org/1999/xlink" x="0px" y="0px"
	 width="100px" height="400px" viewBox="0 0 100 400" enable-background="new 0 0 100 400" xml:space="preserve">
<g>
	<path fill="#9AA7A0" d="M46.725,392.829l8.258-236.713c0,0,18.353-8.259,21.104-11.928c2.75-3.669,4.588-130.287,4.588-130.287
		l-9.176,0.05l-6.423,81.608l-11.01-1.835L51.313,7.262L42.14,6.829L40.305,91.89l-13.76-0.917l-1.837-80.256l-9.176-0.485
		l2.755,131.203l19.267,13.763l-26.609,234.88L46.725,392.829z"/>
	<path fill="#80808A" d="M45.876,143.833c-9.39,0-13.614-6.465-15.429-11.034h-1.42c0,0,2.115,16.675,16.229,16.675
		c14.117,0,18.688-16.675,18.688-16.675h-0.838C60.548,137.368,55.267,143.833,45.876,143.833z"/>
	<path d="M45.958,143.966c-9.326,0-13.705-6.884-15.507-11.137h-0.86c0,0,2.067,14.39,15.863,14.39
		c13.795,0,18.262-14.39,18.262-14.39h-0.832C60.34,137.082,55.282,143.966,45.958,143.966z"/>
	<g>
		<g>
			<path fill="#80808A" d="M39.037,112.203c0.61,2.041,0.077,4.471-1.362,6.305c-1.435,1.848-3.767,3.054-6.277,3.031
				c-1.131-0.001-2.406-0.279-3.468-0.809c-1.077-0.532-2.021-1.299-2.737-2.221c-1.443-1.833-1.973-4.265-1.36-6.306
				c0.6,2.025,1.631,3.649,2.989,4.77c1.364,1.128,2.936,1.719,4.65,1.719c1.566,0.004,3.248-0.586,4.577-1.715
				C37.411,115.854,38.44,114.228,39.037,112.203z"/>
			<g>
				<ellipse fill="#FFFFFF" cx="31.435" cy="112.203" rx="7.602" ry="7.913"/>
				<ellipse cx="31.436" cy="112.203" rx="2.597" ry="2.705"/>
			</g>
		</g>
		<circle fill="#FFFFFF" cx="30.015" cy="110.525" r="0.708"/>
	</g>
	<g>
		<g>
			<path fill="#80808A" d="M72.411,112.203c0.61,2.041,0.077,4.471-1.362,6.305c-1.435,1.848-3.767,3.054-6.278,3.031
				c-1.132-0.001-2.404-0.279-3.468-0.809c-1.077-0.532-2.022-1.299-2.737-2.221c-1.442-1.833-1.971-4.265-1.358-6.306
				c0.6,2.025,1.631,3.649,2.989,4.77c1.364,1.128,2.936,1.719,4.65,1.719c1.565,0.004,3.248-0.586,4.576-1.715
				C70.784,115.854,71.814,114.228,72.411,112.203z"/>
			<g>
				<ellipse fill="#FFFFFF" cx="64.809" cy="112.203" rx="7.602" ry="7.913"/>
				<ellipse cx="64.81" cy="112.203" rx="2.597" ry="2.705"/>
			</g>
		</g>
		<circle fill="#FFFFFF" cx="63.39" cy="110.525" r="0.709"/>
	</g>
	
		<rect x="25.276" y="117.095" transform="matrix(0.9894 -0.145 0.145 0.9894 -17.1354 6.2627)" fill="#9AA7A0" width="18.264" height="7.244"/>
	
		<rect x="53.871" y="116.842" transform="matrix(0.9848 0.1739 -0.1739 0.9848 21.8493 -9.1284)" fill="#9AA7A0" width="18.266" height="6.493"/>
</g>
</svg>
