<?xml version="1.0" encoding="utf-8"?>
<!-- Generator: Adobe Illustrator 16.0.0, SVG Export Plug-In . SVG Version: 6.00 Build 0)  -->
<!DOCTYPE svg PUBLIC "-//W3C//DTD SVG 1.1//EN" "http://www.w3.org/Graphics/SVG/1.1/DTD/svg11.dtd">
<svg version="1.1" id="Layer_1" xmlns="http://www.w3.org/2000/svg" xmlns:xlink="http://www.w3.org/1999/xlink" x="0px" y="0px"
	 width="1500px" height="400px" viewBox="0 0 1500 400" enable-background="new 0 0 1500 400" xml:space="preserve">
<g>
	<path opacity="0.6" fill="#394747" enable-background="new    " d="M178.055,387.044l-1.987-192.446l-0.762-37.541
		c0,0,14.01-5.711,18.118-17.413c5.287-15.055,5.558-120.744,5.558-120.744c-0.813-4.858-1.775-6-3.861-5.903
		c-2.916,0.135-3.369,2.508-3.369,2.508l-5.047,65.345c0,0-1.727,4.894-6.412,4.894c-4.863,0-5.473-3.345-5.473-3.345l-2.047-67.577
		c0,0-0.688-5.535-5.662-5.521c-2.777,0.008-3.678,3.382-3.678,3.382l-2.236,69.912c0,0-3.838,3.708-7.66,3.453
		c-3.819-0.255-6.041-4.366-6.041-4.366l-3.58-65.575c0,0-0.361-5.113-3.646-5.113c-2.984,0-4.521,6.23-4.521,6.23
		s-6.09,110.916,5.086,126.692c8.738,12.338,17.117,12.226,17.117,12.226s-20.271,215.024-11.037,232.036
		C157.672,407.992,178.055,387.044,178.055,387.044z"/>
	<path fill="#C1C1C1" d="M174.055,385.044l-1.987-192.446l-0.707-35.508c0,0,13.955-7.744,18.063-19.446
		c5.287-15.055,5.558-120.744,5.558-120.744c-0.813-4.858-1.775-6-3.861-5.903c-2.916,0.135-3.369,2.508-3.369,2.508l-5.047,65.345
		c0,0-0.616,8.847-5.301,8.847c-4.865,0-6.584-7.298-6.584-7.298l-2.047-67.577c0,0-0.688-5.535-5.662-5.521
		c-2.777,0.008-3.678,3.382-3.678,3.382l-2.236,69.912c0,0-3.326,7.247-7.146,6.992c-3.822-0.255-6.557-7.905-6.557-7.905
		l-3.58-65.575c0,0-0.361-5.113-3.646-5.113c-2.984,0-4.521,6.23-4.521,6.23s-3.971,109.61,5.087,126.692
		c7.194,13.575,16.146,16.452,16.146,16.452s-19.301,210.797-10.066,227.807C153.672,405.992,174.055,385.044,174.055,385.044z"/>
	<g opacity="0.5">
		<path fill="#D6D6D6" d="M133.716,11.583c5.625-2.25,3.946,15.941,3.821,18.938c-0.375,9,0.247,21.842,1.372,30.092
			c0.75,4.875-0.037,10.005,0.713,15.255c0.75,4.125,1.912,8.745,5.662,10.995c9,4.875,10.875-7.875,12.375-13.875
			c2.25-10.125,0.472-23.627,1.597-34.127c0.75-8.625-0.517-15.881-0.142-24.505c0.375-7.125,5.993-4.776,6.743,1.224
			c0.75,5.249,0.868,11.603,0.868,16.853c0,10.875,0.348,22.484,0.348,33.359c0,7.125-1.151,21.72,8.586,22.197
			c7.92,0.39,6.773-8.664,8.963-20.807c3.822-21.197-0.613-55.361,5.387-53.861c2.625,0.75,4.171,25.934,4.171,30.058
			c0,12-1.886,23.617-2.261,35.617c-0.375,7.5-2.057,14.914-2.432,22.413c-0.375,8.625,0.797,17.33-4.453,25.58
			c-4.5,7.125-10.58,24.68-23.117,25.135c-4.693,0.171-7.293-0.91-10.939-4.33c-3.722-3.489-6.838-7.066-8.89-19.375
			c-0.791-4.737,4.696-28.056,0.946-30.68c-4.125-3.375-5.01-5.152-6.19-9.882c-3.647-14.594-2.46-21.249-2.953-32.316
			c-0.646-14.475-0.493-23.755-0.868-41.003"/>
	</g>
	<g>
		<g>
			<g>
				<path fill="#898989" d="M135.474,28.176c0.434,11.89,1.717,23.688,2.026,35.592c0.142,5.376,0.727,10.715,1.478,16.037
					c0.531,3.772,3.432,11.61,7.646,12.75c7.726,2.089,10.229-8.29,11.068-13.635c1.701-10.805,1.516-22.061,1.7-32.976
					c0.106-6.392-0.021-12.794,0.194-19.183c0.171-5.074-0.146-10.619,0.865-15.601c0.215-1.059,1.604,2.328,1.563,2.19
					c0.314,1.08,0.499,2.203,0.701,3.307c0.475,2.578,0.725,5.2,0.977,7.807c0.67,6.929,0.993,13.89,1.059,20.849
					c0.104,10.869,0.512,22.106,2.063,32.886c1.032,7.168,3.379,18.694,12.728,12.871c3.313-2.064,3.091-7.15,3.461-10.551
					c0.787-7.226,2.008-14.387,2.775-21.617c0.81-7.605,1.156-15.255,1.19-22.9c0.016-3.493,0.477-6.961,0.878-10.425
					c0.395-3.41,0.107-6.934,0.655-10.297c0.563-3.463,1.979,0.065,2.313,1.234c0.521,1.825,0.846,3.725,1.207,5.586
					c0.714,3.68,1.106,7.418,1.432,11.148c0.753,8.643,0.537,17.359,0.482,26.024c-0.102,15.96-1.379,31.732-3.001,47.602
					c-0.775,7.587-1.521,15.175-2.073,22.782c-0.588,8.098-4.218,14.132-9.718,19.958c-4.211,4.46-8.428,9.363-14.784,10.252
					c-8.814,1.233-16.699-3.808-22.073-10.395c-9.141-11.204-9.105-23.038-9.748-36.803c-0.385-8.286-0.4-16.488-0.178-24.777
					c0.229-8.503-0.441-16.911-0.44-25.395c0-6.36,0.694-12.688,0.557-19.055c-0.142-6.418-0.926-12.93-0.238-19.321
					c0.245-2.285,0.517-4.554,0.688-6.847c0.07-0.955,1.218-4.093,0.903-4.788C135.826,16.914,135.311,23.497,135.474,28.176
					c0.03,0.899,1.928,0.531,1.9-0.191c-0.044-1.252-0.396-20.254-4.196-17.12c-2.365,1.951-2.128,6.217-2.329,9.008
					c-0.536,7.417-0.485,14.361-0.292,21.816c0.198,7.653-0.537,15.264-0.538,22.912c-0.001,8.495,0.619,16.932,0.389,25.449
					c-0.37,13.671-0.611,27.978,1.357,41.549c2.625,18.082,25.248,40.261,42.705,24.59c4.104-3.686,8.048-7.752,11.295-12.216
					c4.116-5.658,4.765-11.547,5.289-18.327c1.223-15.813,3.313-31.542,4.293-47.375c0.931-15.048,1.1-30.484,0-45.527
					c-0.166-2.276-1.965-26.274-7.655-19.901c-2.583,2.893-1.371,9.438-1.746,12.927c-0.852,7.921-0.84,15.805-1.289,23.753
					c-0.431,7.623-1.328,15.216-2.515,22.757c-0.441,2.802-0.75,5.61-1.041,8.431c-0.104,0.988-0.229,1.972-0.359,2.957
					c-0.281,2.091-2.21,13.944-8.313,6.423c-3.09-3.807-3.612-10.589-4.081-15.335c-0.475-4.79-0.653-9.596-1.158-14.392
					c-1.41-13.404-0.462-26.949-2.026-40.383c-0.313-2.696-0.507-9.48-3.275-11.095c-1.815-1.058-2.911,1.136-3.334,2.467
					c-1.351,4.238-0.626,9.926-0.816,14.331c-0.294,6.809-0.144,13.639-0.245,20.453c-0.131,8.678-0.361,17.382-0.896,26.045
					c-0.244,3.956-0.941,7.871-1.59,11.775c-0.346,2.079-1.468,3.853-2.769,5.469c-3.597,4.468-7.079-0.351-8.813-3.042
					c-4.854-7.532-3.994-19.566-4.114-28.226c-0.141-10.093-1.563-20.091-1.932-30.172
					C137.345,27.085,135.447,27.454,135.474,28.176z"/>
			</g>
		</g>
		<g>
			<g>
				<path fill="#898989" d="M151.131,158.492c-0.677,12.164,0.416,24.23-1.247,36.341c-1.599,11.636-2.151,23.437-2.729,35.153
					c-1.293,26.365-2.373,52.684-4.17,79.025c-0.948,13.885-1.554,27.78-1.58,41.7c-0.021,10.728-1.966,21.965,2.239,32.192
					c2.896,7.045,10.045,11.435,17.265,7.959c8.664-4.172,11.13-16.426,11.041-24.961c-0.011-1.041-1.932-0.791-1.922,0.119
					c0.09,8.6-3.986,27.695-16.55,24.336c-11.313-3.028-10.804-20.459-10.506-29.356c0.802-23.955,1.646-47.785,3.32-71.707
					c1.563-22.319,1.938-44.687,3.182-67.021c0.553-9.935,1.205-19.899,2.64-29.75c1.646-11.298,0.308-22.786,0.938-34.151
					C153.109,157.339,151.181,157.577,151.131,158.492L151.131,158.492z"/>
			</g>
		</g>
	</g>
	<g>
		<path fill="#D6D6D6" d="M166.71,181.755c-3.738,16.616-5.398,45.696-5.398,52.345c0,6.645-5.035,36.705-5.816,52.342
			c-0.78,14.854-4.326,37.072-7.063,51.928c-1.563,9.381-0.855,20.111-1.246,29.494c0,4.691,0.221,12.684,3.737,16.201
			c3.909,4.69,9.36,3.94,12.099-1.531c3.518-6.646,5.021-15.961,5.766-23.393c1.246-12.464,0.416-19.109,0.832-32.818
			c0.371-12.27-1.246-65.221-0.832-80.176c0.177-6.301,1.197-39.441,0.416-45.696C168.422,193.02,168.854,172.218,166.71,181.755z"
			/>
	</g>
	<path fill="none" stroke="#232727" stroke-width="1.9487" stroke-linecap="round" stroke-miterlimit="10" d="M180.241,131.345
		c-2.131,11.782-10.197,18.35-18.723,18.362c-8.313,0.006-16.625-7.353-18.77-18.314"/>
	<g>
		<path fill="#80808A" d="M149.234,107.475c-2.002-0.713-4.249-0.392-6.073,0.444c-1.668,0.758-3.168,2.206-4.031,4.055
			c-0.889,1.832-1.188,4.029-0.857,6.431c0.047,0.085,0.088,0.178,0.137,0.262c1.872-2.07,4.538-3.764,7.623-4.631
			c1.889-0.543,4.115-0.795,6.086-0.611c0.861,0.076,1.69,0.235,2.488,0.445C154.604,113.87,153.739,109.08,149.234,107.475z"/>
		<path fill="#FFFFFF" d="M150.471,108.819c-1.905-0.943-4.176-0.886-6.083-0.27c-1.746,0.558-3.406,1.821-4.479,3.556
			c-1.097,1.714-1.65,3.861-1.604,6.287c0.035,0.09,0.064,0.187,0.104,0.276c2.104-1.837,4.947-3.208,8.112-3.708
			c1.938-0.317,4.18-0.306,6.116,0.106c0.847,0.177,1.649,0.431,2.418,0.732C155.055,115.798,154.757,110.941,150.471,108.819z"/>
		<path d="M146.52,114.958c0.966-0.158,2.007-0.235,3.048-0.22c-0.025-0.203-0.068-0.407-0.134-0.61
			c-0.536-1.661-2.271-2.593-3.865-2.077c-1.504,0.486-2.337,2.08-1.983,3.651C144.522,115.375,145.504,115.12,146.52,114.958z"/>
		<circle fill="#FFFFFF" cx="144.356" cy="113.708" r="0.829"/>
	</g>
	<g>
		<path fill="#80808A" d="M174.659,106.908c1.967-0.806,4.229-0.589,6.088,0.162c1.701,0.68,3.27,2.058,4.216,3.864
			c0.974,1.788,1.375,3.969,1.155,6.385c-0.043,0.088-0.08,0.182-0.125,0.268c-1.966-1.981-4.707-3.55-7.828-4.274
			c-1.911-0.455-4.146-0.602-6.107-0.328c-0.856,0.116-1.678,0.312-2.463,0.56C169.594,113.545,170.233,108.72,174.659,106.908z"/>
		<path fill="#FFFFFF" d="M173.487,108.308c1.859-1.03,4.129-1.079,6.063-0.551c1.771,0.477,3.484,1.66,4.64,3.345
			c1.176,1.661,1.829,3.78,1.895,6.205c-0.029,0.092-0.057,0.189-0.092,0.28c-2.184-1.737-5.09-2.975-8.273-3.329
			c-1.951-0.227-4.189-0.112-6.104,0.389c-0.838,0.216-1.631,0.508-2.383,0.844C169.231,115.491,169.305,110.625,173.487,108.308z"
			/>
		<path d="M177.719,114.258c-0.975-0.113-2.018-0.141-3.057-0.078c0.018-0.204,0.051-0.41,0.105-0.616
			c0.459-1.685,2.146-2.695,3.766-2.253c1.525,0.416,2.431,1.969,2.15,3.554C179.733,114.583,178.741,114.372,177.719,114.258z"/>
		<circle fill="#FFFFFF" cx="175.859" cy="112.684" r="0.829"/>
	</g>
</g>
<g>
	<path opacity="0.6" fill="#394747" enable-background="new    " d="M58.19,387.043l-1.989-192.447l-0.707-35.508
		c0,0,13.957-7.744,18.066-19.445c5.287-15.055,12.557-120.744,12.557-120.744c-0.813-4.857-1.776-6-3.86-5.902
		c-2.916,0.135-3.37,2.508-3.37,2.508L66.841,80.85c0,0-0.616,8.846-5.303,8.846c-4.865,0-6.582-7.297-6.582-7.297l-2.048-67.576
		c0,0-0.688-5.537-5.661-5.521c-2.776,0.008-3.679,3.381-3.679,3.381l-2.237,69.912c0,0-3.324,7.246-7.146,6.992
		c-3.82-0.256-6.556-7.906-6.556-7.906l-9.577-65.575c0,0-0.365-5.113-3.648-5.113c-2.983,0-4.521,6.23-4.521,6.23
		s2.031,109.609,11.087,126.691c7.196,13.576,16.146,16.453,16.146,16.453s-19.3,210.798-10.065,227.809
		C37.808,407.991,58.19,387.043,58.19,387.043z"/>
	<path fill="#BFBFBF" d="M54.19,385.043l-1.989-192.447l-0.707-35.508c0,0,13.957-7.744,18.066-19.445
		c5.287-15.055,12.557-120.744,12.557-120.744c-0.813-4.857-1.776-6-3.86-5.902c-2.916,0.135-3.37,2.508-3.37,2.508L62.841,78.85
		c0,0-0.616,8.846-5.303,8.846c-4.865,0-6.582-7.297-6.582-7.297l-2.048-67.576c0,0-0.688-5.537-5.661-5.521
		c-2.776,0.008-3.679,3.381-3.679,3.381l-2.237,69.912c0,0-3.324,7.246-7.146,6.992c-3.82-0.256-6.556-7.906-6.556-7.906
		l-9.578-65.575c0,0-0.364-5.113-3.647-5.113c-2.983,0-4.521,6.23-4.521,6.23s2.031,109.609,11.087,126.691
		c7.196,13.576,16.146,16.453,16.146,16.453s-19.3,210.798-10.065,227.809C33.808,405.991,54.19,385.043,54.19,385.043z"/>
	<g>
		<path fill="#D4D4D4" d="M45.845,181.753c-3.738,16.617-5.4,45.697-5.4,52.345c0,6.646-5.033,36.705-5.815,52.342
			c-0.78,14.855-4.323,37.072-7.062,51.929c-1.563,9.381-0.854,20.11-1.246,29.493c0,4.691,0.22,12.685,3.738,16.201
			c3.907,4.691,9.358,3.941,12.096-1.531c3.521-6.645,5.023-15.961,5.769-23.393c1.246-12.463,0.416-19.109,0.83-32.818
			c0.371-12.27-1.246-65.221-0.83-80.176c0.175-6.301,1.196-39.44,0.414-45.698C47.556,193.018,47.99,172.218,45.845,181.753z"/>
	</g>
	<g opacity="0.5">
		<path fill="#D4D4D4" d="M10.421,11.797c5.625-2.25,4.579,18.282,4.454,21.28c-0.375,9,1.598,20.453,2.723,28.703
			c0.75,4.875,1.477,8.112,2.227,13.362c0.75,4.125,1.849,9.473,5.599,11.723C34.42,91.74,36.295,78.99,37.795,72.99
			c2.25-10.125,1.938-21,3.063-31.5c0.75-8.625,0.367-16.861,0.742-25.486c0.375-7.125,3.703-6,4.453,0
			c0.75,5.25,1.237,12.071,1.237,17.321c0,10.875,1.379,21.665,1.379,32.54c0,7.125-2.625,22.125,7.125,22.125
			c11.625,0,9.972-12.617,12-21c4.733-19.561,4.238-57.172,9.685-54.203c2.396,1.307-1.903,26.598-2.476,30.683
			c-1.731,12.372-1.979,20.538-4.584,35.52c-1.285,7.398-2.25,15-2.625,22.498c-0.375,8.625,0.582,26.274-4.668,34.524
			c-4.5,7.125-8.537,15.657-21.071,16.112c-4.695,0.17-7.296-0.91-10.941-4.33c-3.721-3.488-6.838-7.066-8.891-19.375
			c-0.789-4.738,4.698-28.057,0.948-30.68c-4.125-3.375-2.957-5.231-4.832-9.731c-3.375-9.75-2.825-21.547-4.7-31.672
			c-2.625-14.25-3.091-24.567-3.466-41.817"/>
	</g>
	<g>
		<g>
			<g>
				<path fill="#878787" d="M13.796,27.772c0.418,11.541,1.462,23.195,3.005,34.643c0.766,5.671,1.671,11.325,2.499,16.987
					c0.541,3.693,3.468,11.819,7.72,12.791c7.979,1.824,9.595-9.982,10.197-15.181c1.268-10.933,1.189-22.348,1.658-33.354
					c0.265-6.215,0.027-12.468,0.57-18.665c0.234-2.672,0.543-5.337,0.777-8.009c0.06-0.685,0.491-7.888,1.555-5.767
					c2.019,4.025,1.963,9.753,2.354,14.139c0.637,7.147,0.898,14.302,0.959,21.477c0.089,10.536,0.499,21.675,2.233,32.1
					c0.609,3.659,1.222,9.891,4.461,12.449c2.908,2.295,6.815,0.283,9.369-1.562c2.882-2.083,4.584-5.942,5.615-9.22
					c2.121-6.743,2.639-14.415,3.902-21.375c2.609-14.361,2.612-28.837,4.024-43.299c-0.003,0.025,1.781-5.25,3.073-2.392
					c0.821,1.817,0.358,4.297,0.379,6.26c0.035,3.55,0,7.1-0.065,10.65c-0.136,7.143-0.572,14.276-1.111,21.398
					c-1.224,16.129-2.772,32.234-4.021,48.362c-0.607,7.86-1.176,15.723-1.715,23.587c-0.248,3.618-0.272,7.298-1.006,10.856
					c-0.909,4.417-3.908,8.387-6.732,11.75c-3.774,4.496-8.854,10.329-14.511,12.321c-8.479,2.988-17.237-0.663-23.506-6.423
					c-10.712-9.843-12.1-22.973-12.499-36.62c-0.449-15.321-1.247-30.74-2.428-46.021c-0.59-7.621,0.11-15.151,0.28-22.77
					c0.15-6.767-0.748-13.529-0.539-20.284c0.141-4.519,0.604-9.501,1.649-13.913c0.361-1.523,0.533,0.515,0.617,0.856
					c0.259,1.048,0.372,2.141,0.512,3.209C13.556,20.397,13.668,24.107,13.796,27.772c0.03,0.899,1.929,0.531,1.901-0.191
					c-0.043-1.251-0.396-20.257-4.199-17.12C9.132,12.413,9.37,16.679,9.17,19.47c-0.533,7.417-0.484,14.361-0.29,21.816
					c0.198,7.653-0.538,15.264-0.539,22.911c0,7.858,1.009,15.787,1.376,23.642c0.673,14.327,0.31,29.152,2.369,43.356
					c1.671,11.523,9.35,21.804,19.445,27.345c7.146,3.921,17.6,3.2,23.861-2.161c4.222-3.614,8.519-7.678,11.79-12.188
					c4.351-5.997,5.335-11.328,5.823-18.623c1.1-16.41,2.381-32.807,3.761-49.195c1.248-14.803,2.749-29.588,3.18-44.444
					c0.063-2.103,2.225-24.814-4.236-20.188c-3.038,2.175-2.907,5.036-2.997,8.481c-0.193,7.535-1.085,15.265-1.638,22.793
					c-0.536,7.336-1.957,14.604-3.305,21.824c-1.213,6.499-1.437,13.904-4.511,19.854c-1.752,3.39-7.527,9.68-11.142,4.01
					c-1.664-2.612-2.057-6.06-2.672-9.032c-0.859-4.156-0.898-8.337-1.18-12.551c-0.91-13.661-1.1-27.356-2.145-41.014
					c-0.166-2.159-1.104-21.233-6.24-17.226c-2.185,1.704-1.464,7.145-1.675,9.555c-0.546,6.243-0.902,12.331-1.023,18.601
					C37,46.598,36.087,56.119,35.799,65.672c-0.13,4.306-0.145,8.582-0.642,12.867c-0.438,3.774-3.083,17.703-9.577,10.09
					c-4.073-4.774-4.523-10.687-5.407-16.604c-0.61-4.09-1.234-8.178-1.77-12.279c-1.384-10.625-2.318-21.462-2.707-32.165
					C15.666,26.681,13.77,27.051,13.796,27.772z"/>
			</g>
		</g>
		<g>
			<g>
				<path fill="#878787" d="M31.451,158.088c-0.677,12.164,0.413,24.231-1.249,36.342c-1.596,11.634-2.149,23.435-2.727,35.153
					c-1.294,26.364-2.374,52.683-4.171,79.024c-0.948,13.886-1.554,27.781-1.58,41.701c-0.021,10.728-1.965,21.965,2.239,32.192
					c2.896,7.045,10.046,11.435,17.266,7.959c8.665-4.172,11.131-16.426,11.042-24.962c-0.012-1.04-1.933-0.79-1.922,0.119
					c0.09,8.601-3.987,27.697-16.552,24.336c-11.313-3.026-10.804-20.459-10.506-29.355c0.799-23.957,1.646-47.785,3.319-71.707
					c1.563-22.322,1.938-44.688,3.183-67.021c0.554-9.934,1.206-19.898,2.64-29.75c1.645-11.299,0.307-22.787,0.938-34.152
					C33.432,156.935,31.503,157.174,31.451,158.088L31.451,158.088z"/>
			</g>
		</g>
	</g>
	<path d="M18.804,126.113h45.033c0,0-5.896,26.19-24.102,26.19S18.804,126.113,18.804,126.113z"/>
	<g>
		<g>
			<path fill="#82808C" d="M31.667,105.704c0.659,2.206,0.084,4.834-1.474,6.816c-1.551,1.998-4.071,3.303-6.787,3.277
				c-1.223-0.001-2.602-0.301-3.75-0.875c-1.164-0.575-2.186-1.404-2.959-2.4c-1.561-1.982-2.133-4.612-1.471-6.818
				c0.647,2.19,1.764,3.945,3.231,5.157c1.476,1.22,3.174,1.858,5.026,1.858c1.693,0.004,3.513-0.634,4.949-1.855
				C29.908,109.653,31.022,107.894,31.667,105.704z"/>
			<g>
				<ellipse fill="#FFFFFF" cx="23.446" cy="105.704" rx="8.221" ry="8.555"/>
				<ellipse cx="23.447" cy="105.704" rx="2.81" ry="2.925"/>
			</g>
		</g>
		<circle fill="#FFFFFF" cx="21.911" cy="103.89" r="0.767"/>
	</g>
	<g>
		<g>
			<path fill="#82808C" d="M67.753,105.704c0.66,2.206,0.084,4.834-1.474,6.816c-1.551,1.998-4.071,3.303-6.787,3.277
				c-1.225-0.001-2.602-0.301-3.75-0.875c-1.166-0.575-2.188-1.404-2.961-2.4c-1.559-1.982-2.131-4.612-1.469-6.818
				c0.647,2.19,1.764,3.945,3.231,5.157c1.476,1.22,3.174,1.858,5.026,1.858c1.693,0.004,3.513-0.634,4.949-1.855
				C65.994,109.653,67.108,107.894,67.753,105.704z"/>
			<g>
				<ellipse fill="#FFFFFF" cx="59.532" cy="105.704" rx="8.221" ry="8.555"/>
				<ellipse cx="59.533" cy="105.704" rx="2.81" ry="2.925"/>
			</g>
		</g>
		<circle fill="#FFFFFF" cx="57.998" cy="103.89" r="0.767"/>
	</g>
</g>
<g>
	<path opacity="0.6" fill="#394747" enable-background="new    " d="M297.99,387.042l-1.988-192.446l-0.76-37.541
		c0,0,14.011-5.711,18.119-17.413c5.287-15.055,5.559-120.743,5.559-120.743c-0.813-4.858-1.777-6-3.861-5.903
		c-2.916,0.136-3.371,2.509-3.371,2.509l-5.045,65.345c0,0-1.729,4.894-6.412,4.894c-4.865,0-5.474-3.345-5.474-3.345l-2.047-67.576
		c0,0-0.688-5.536-5.662-5.521c-2.776,0.008-3.678,3.382-3.678,3.382l-2.238,69.911c0,0-3.838,3.708-7.657,3.453
		c-3.822-0.255-6.043-4.366-6.043-4.366l-3.578-65.575c0,0-0.365-5.113-3.648-5.113c-2.983,0-4.521,6.23-4.521,6.23
		s-6.09,110.915,5.086,126.692c8.739,12.338,17.119,12.226,17.119,12.226s-20.271,215.025-11.037,232.036
		C277.608,407.991,297.99,387.042,297.99,387.042z"/>
	<path fill="#C1C1C1" d="M293.99,385.042l-1.988-192.446l-0.707-35.508c0,0,13.958-7.744,18.066-19.446
		c5.286-15.055,5.558-120.743,5.558-120.743c-0.813-4.858-1.777-6-3.861-5.903c-2.916,0.136-3.371,2.509-3.371,2.509l-5.045,65.345
		c0,0-0.617,8.847-5.304,8.847c-4.864,0-6.582-7.298-6.582-7.298l-2.047-67.576c0,0-0.688-5.536-5.662-5.521
		c-2.776,0.008-3.678,3.382-3.678,3.382l-2.238,69.911c0,0-3.323,7.247-7.146,6.992c-3.82-0.255-6.555-7.905-6.555-7.905
		l-3.578-65.575c0,0-0.365-5.113-3.648-5.113c-2.983,0-4.521,6.23-4.521,6.23s-3.97,109.61,5.086,126.692
		c7.196,13.575,16.146,16.452,16.146,16.452s-19.299,210.799-10.063,227.81C273.608,405.991,293.99,385.042,293.99,385.042z"/>
	<g>
		<path fill="#D6D6D6" d="M287.646,181.753c-3.738,16.616-5.4,45.697-5.4,52.345c0,6.646-5.033,36.705-5.815,52.342
			c-0.781,14.854-4.324,37.072-7.062,51.928c-1.563,9.382-0.854,20.111-1.246,29.494c0,4.691,0.219,12.684,3.738,16.201
			c3.908,4.69,9.359,3.94,12.096-1.531c3.521-6.645,5.023-15.961,5.769-23.393c1.246-12.464,0.416-19.109,0.83-32.818
			c0.37-12.271-1.246-65.221-0.83-80.176c0.174-6.302,1.196-39.441,0.414-45.697C289.356,193.018,289.792,172.217,287.646,181.753z"
			/>
	</g>
	<g opacity="0.5">
		<path fill="#D6D6D6" d="M253.651,11.582c5.625-2.25,3.947,15.941,3.822,18.938c-0.375,9,0.248,21.843,1.373,30.093
			c0.75,4.875-0.038,10.004,0.712,15.254c0.75,4.125,1.913,8.746,5.663,10.996c8.997,4.875,10.872-7.875,12.372-13.875
			c2.25-10.125,0.474-23.628,1.599-34.128c0.75-8.625-0.517-15.882-0.142-24.506c0.375-7.125,5.992-4.775,6.742,1.225
			c0.75,5.249,0.869,11.603,0.869,16.853c0,10.875,0.348,22.484,0.348,33.359c0,7.125-1.153,21.719,8.584,22.198
			c7.923,0.39,6.773-8.664,8.965-20.808c3.822-21.197-0.614-55.36,5.386-53.86c2.625,0.75,4.171,25.933,4.171,30.058
			c0,12-1.885,23.617-2.26,35.617c-0.375,7.5-2.059,14.914-2.434,22.413c-0.375,8.625,0.798,17.329-4.452,25.579
			c-4.5,7.125-10.581,24.681-23.115,25.136c-4.695,0.171-7.295-0.91-10.941-4.33c-3.721-3.488-6.838-7.066-8.891-19.375
			c-0.789-4.737,4.698-28.056,0.948-30.68c-4.125-3.375-5.011-5.152-6.192-9.882c-3.648-14.594-2.459-21.249-2.953-32.316
			c-0.646-14.475-0.494-23.755-0.869-41.004"/>
	</g>
	<g>
		<g>
			<g>
				<path fill="#898989" d="M255.41,28.175c0.431,11.89,1.717,23.689,2.028,35.592c0.14,5.376,0.725,10.715,1.476,16.037
					c0.532,3.774,3.431,11.61,7.646,12.75c7.723,2.089,10.227-8.291,11.066-13.635c1.701-10.804,1.517-22.06,1.7-32.976
					c0.108-6.392-0.02-12.794,0.195-19.183c0.171-5.074-0.146-10.619,0.867-15.601c0.214-1.055,1.603,2.327,1.562,2.19
					c0.316,1.08,0.499,2.203,0.702,3.307c0.474,2.578,0.726,5.201,0.978,7.807c0.672,6.929,0.993,13.89,1.06,20.849
					c0.102,10.869,0.508,22.107,2.061,32.886c1.032,7.167,3.38,18.695,12.729,12.871c3.313-2.063,3.09-7.15,3.46-10.551
					c0.788-7.226,2.007-14.387,2.776-21.617c0.811-7.605,1.157-15.254,1.191-22.9c0.017-3.493,0.478-6.961,0.877-10.425
					c0.395-3.41,0.107-6.934,0.654-10.297c0.564-3.462,1.98,0.065,2.315,1.234c0.521,1.825,0.846,3.726,1.207,5.586
					c0.714,3.68,1.104,7.418,1.432,11.149c0.752,8.642,0.535,17.359,0.479,26.024c-0.102,15.96-1.378,31.732-2.999,47.602
					c-0.774,7.587-1.521,15.176-2.072,22.782c-0.588,8.098-4.219,14.132-9.719,19.959c-4.211,4.46-8.428,9.363-14.784,10.252
					c-8.816,1.233-16.698-3.808-22.073-10.395c-9.14-11.198-9.107-23.04-9.747-36.803c-0.385-8.286-0.402-16.488-0.178-24.778
					c0.229-8.503-0.442-16.91-0.441-25.394c0-6.361,0.695-12.688,0.556-19.055c-0.141-6.418-0.927-12.93-0.238-19.321
					c0.245-2.285,0.515-4.554,0.688-6.847c0.072-0.954,1.218-4.096,0.906-4.788C255.763,16.912,255.248,23.496,255.41,28.175
					c0.031,0.899,1.928,0.531,1.902-0.191c-0.043-1.252-0.396-20.257-4.2-17.12c-2.365,1.951-2.127,6.217-2.328,9.008
					c-0.534,7.417-0.484,14.361-0.291,21.816c0.199,7.653-0.537,15.264-0.538,22.911c-0.001,8.495,0.619,16.932,0.39,25.449
					c-0.37,13.675-0.612,27.975,1.355,41.549c2.623,18.083,25.248,40.26,42.705,24.59c4.106-3.686,8.048-7.752,11.296-12.216
					c4.117-5.658,4.766-11.547,5.29-18.328c1.224-15.813,3.313-31.542,4.291-47.375c0.932-15.048,1.101-30.484,0.002-45.527
					c-0.166-2.276-1.965-26.274-7.656-19.901c-2.584,2.892-1.371,9.438-1.745,12.926c-0.852,7.921-0.839,15.806-1.289,23.753
					c-0.432,7.624-1.329,15.217-2.517,22.757c-0.44,2.802-0.75,5.61-1.041,8.431c-0.102,0.988-0.228,1.972-0.358,2.957
					c-0.281,2.091-2.209,13.943-8.313,6.423c-3.09-3.806-3.612-10.589-4.081-15.336c-0.473-4.79-0.651-9.596-1.156-14.391
					c-1.409-13.404-0.462-26.949-2.026-40.383c-0.313-2.695-0.508-9.48-3.277-11.095c-1.813-1.058-2.91,1.136-3.334,2.467
					c-1.348,4.238-0.626,9.926-0.816,14.331c-0.294,6.808-0.144,13.639-0.244,20.453c-0.132,8.678-0.362,17.382-0.897,26.045
					c-0.244,3.956-0.941,7.871-1.589,11.775c-0.345,2.079-1.467,3.853-2.769,5.469c-3.596,4.467-7.078-0.351-8.813-3.042
					c-4.854-7.53-3.993-19.568-4.113-28.226c-0.14-10.093-1.564-20.091-1.931-30.172C257.28,27.083,255.384,27.453,255.41,28.175z"
					/>
			</g>
		</g>
		<g>
			<g>
				<path fill="#898989" d="M271.067,158.49c-0.677,12.164,0.413,24.23-1.249,36.341c-1.597,11.635-2.151,23.435-2.728,35.153
					c-1.294,26.365-2.374,52.684-4.171,79.025c-0.947,13.885-1.554,27.78-1.58,41.7c-0.021,10.728-1.964,21.965,2.24,32.192
					c2.896,7.047,10.045,11.435,17.266,7.959c8.665-4.172,11.131-16.426,11.042-24.961c-0.012-1.041-1.933-0.791-1.923,0.119
					c0.091,8.601-3.986,27.695-16.551,24.336c-11.313-3.026-10.803-20.459-10.506-29.354c0.8-23.957,1.646-47.787,3.32-71.709
					c1.563-22.319,1.938-44.687,3.182-67.021c0.553-9.933,1.205-19.898,2.639-29.75c1.646-11.298,0.308-22.786,0.939-34.151
					C273.046,157.337,271.117,157.576,271.067,158.49L271.067,158.49z"/>
			</g>
		</g>
	</g>
	<path fill="#80808A" d="M259.514,115.802c-0.66-2.205-0.084-4.834,1.473-6.816c1.551-1.998,4.072-3.303,6.787-3.277
		c1.225,0.002,2.602,0.301,3.75,0.875c1.166,0.576,2.188,1.404,2.961,2.4c1.559,1.982,2.131,4.613,1.469,6.818
		c-0.647-2.189-1.764-3.945-3.231-5.156c-1.476-1.221-3.175-1.857-5.027-1.857c-1.693-0.006-3.512,0.633-4.949,1.854
		C261.272,111.855,260.158,113.613,259.514,115.802z"/>
	<path fill="#FFFFFF" d="M275.403,118.194c0.352-0.953,0.553-1.982,0.553-3.064c0-4.725-3.68-8.555-8.219-8.555
		c-4.541,0-8.221,3.83-8.221,8.555c0,1.082,0.2,2.111,0.553,3.064H275.403z"/>
	<ellipse cx="267.737" cy="115.13" rx="2.809" ry="2.925"/>
	<circle fill="#FFFFFF" cx="266.2" cy="113.316" r="0.767"/>
	<path fill="#80808A" d="M290.18,115.802c-0.66-2.205-0.084-4.834,1.473-6.816c1.551-1.998,4.072-3.303,6.787-3.277
		c1.225,0.002,2.602,0.301,3.75,0.875c1.166,0.576,2.188,1.404,2.961,2.4c1.56,1.982,2.131,4.613,1.469,6.818
		c-0.647-2.189-1.764-3.945-3.231-5.156c-1.476-1.221-3.174-1.857-5.027-1.857c-1.693-0.006-3.512,0.633-4.949,1.854
		C291.938,111.855,290.824,113.613,290.18,115.802z"/>
	<path fill="#FFFFFF" d="M306.069,118.194c0.353-0.953,0.553-1.982,0.553-3.064c0-4.725-3.68-8.555-8.219-8.555
		c-4.541,0-8.221,3.83-8.221,8.555c0,1.082,0.2,2.111,0.553,3.064H306.069z"/>
	<ellipse cx="298.403" cy="115.13" rx="2.81" ry="2.925"/>
	<circle fill="#FFFFFF" cx="296.866" cy="113.316" r="0.767"/>
	<path fill="none" stroke="#232727" stroke-width="2" stroke-linecap="round" stroke-miterlimit="10" d="M294.619,139.228
		c-1.361,6.243-6.504,9.724-11.938,9.731c-5.3,0.004-10.599-3.895-11.961-9.701"/>
</g>
<g>
	<path opacity="0.6" fill="#394747" enable-background="new    " d="M417.835,387.042l-1.987-192.446l-0.707-35.507
		c0,0,13.957-7.744,18.064-19.445C438.493,124.589,445.763,18.9,445.763,18.9c-0.813-4.858-1.777-6-3.861-5.903
		c-2.916,0.135-3.371,2.508-3.371,2.508l-12.045,65.346c0,0-0.617,8.845-5.303,8.845c-4.865,0-6.582-7.296-6.582-7.296
		l-2.047-67.577c0,0-0.688-5.537-5.662-5.521c-2.777,0.007-3.678,3.381-3.678,3.381l-2.238,69.912c0,0-3.324,7.246-7.146,6.992
		c-3.818-0.256-6.555-7.906-6.555-7.906l-9.579-65.575c0,0-0.365-5.113-3.646-5.113c-2.984,0-4.521,6.23-4.521,6.23
		s2.031,109.61,11.086,126.691c7.197,13.576,16.146,16.454,16.146,16.454s-19.3,210.796-10.064,227.807
		C397.452,407.99,417.835,387.042,417.835,387.042z"/>
	<path fill="#BFBFBF" d="M413.835,385.042l-1.987-192.446l-0.707-35.507c0,0,13.957-7.744,18.064-19.445
		C434.493,122.589,441.763,16.9,441.763,16.9c-0.813-4.858-1.777-6-3.861-5.903c-2.916,0.135-3.371,2.508-3.371,2.508
		l-12.045,65.346c0,0-0.617,8.845-5.303,8.845c-4.865,0-6.582-7.296-6.582-7.296l-2.047-67.577c0,0-0.688-5.537-5.662-5.521
		c-2.777,0.007-3.678,3.381-3.678,3.381l-2.238,69.912c0,0-3.324,7.246-7.146,6.992c-3.818-0.256-6.555-7.906-6.555-7.906
		l-9.579-65.575c0,0-0.365-5.113-3.646-5.113c-2.984,0-4.521,6.23-4.521,6.23s2.031,109.61,11.086,126.691
		c7.197,13.576,16.146,16.454,16.146,16.454s-19.3,210.796-10.064,227.807C393.452,405.99,413.835,385.042,413.835,385.042z"/>
	<g>
		<path fill="#D4D4D4" d="M407.489,181.752c-3.737,16.617-5.398,45.698-5.398,52.344s-5.033,36.705-5.816,52.342
			c-0.781,14.855-4.324,37.072-7.061,51.93c-1.564,9.38-0.855,20.109-1.246,29.492c0,4.691,0.219,12.685,3.736,16.201
			c3.908,4.691,9.359,3.941,12.098-1.531c3.52-6.646,5.021-15.961,5.768-23.393c1.246-12.463,0.416-19.109,0.83-32.818
			c0.371-12.27-1.246-65.221-0.83-80.176c0.174-6.301,1.197-39.439,0.414-45.697C409.2,193.019,409.635,172.217,407.489,181.752z"/>
	</g>
	<g opacity="0.5">
		<path fill="#D4D4D4" d="M370.065,11.796c5.625-2.25,4.578,18.282,4.453,21.28c-0.375,9,1.598,20.453,2.723,28.703
			c0.75,4.875,1.479,8.112,2.229,13.362c0.75,4.125,1.848,9.473,5.598,11.723c8.998,4.875,10.873-7.875,12.373-13.875
			c2.25-10.125,1.938-21,3.063-31.5c0.75-8.625,0.366-16.861,0.741-25.486c0.375-7.125,3.704-6,4.454,0
			c0.75,5.25,1.237,12.071,1.237,17.321c0,10.875,1.38,21.665,1.38,32.54c0,7.125-2.625,22.125,7.125,22.125
			c11.625,0,9.971-12.617,12-21c4.734-19.561,4.238-57.171,9.683-54.203c2.396,1.308-1.901,26.598-2.475,30.683
			c-1.729,12.372-1.979,20.537-4.583,35.52c-1.286,7.398-2.25,15-2.625,22.498c-0.375,8.625,0.581,26.274-4.669,34.524
			c-4.5,7.125-8.536,15.658-21.071,16.113c-4.693,0.17-7.295-0.91-10.939-4.33c-3.723-3.488-6.838-7.066-8.893-19.375
			c-0.789-4.739,4.699-28.057,0.949-30.68c-4.125-3.375-2.957-5.231-4.832-9.731c-3.375-9.75-2.826-21.547-4.701-31.672
			c-2.625-14.25-3.09-24.567-3.465-41.817"/>
	</g>
	<g>
		<g>
			<g>
				<path fill="#878787" d="M373.439,27.772c0.418,11.541,1.462,23.195,3.005,34.643c0.767,5.672,1.67,11.325,2.499,16.988
					c0.541,3.693,3.468,11.818,7.719,12.79c7.98,1.824,9.598-9.982,10.198-15.181c1.269-10.933,1.19-22.347,1.658-33.354
					c0.264-6.215,0.028-12.468,0.57-18.665c0.232-2.672,0.544-5.337,0.776-8.009c0.062-0.684,0.492-7.887,1.557-5.767
					c2.018,4.025,1.963,9.753,2.354,14.139c0.636,7.147,0.899,14.302,0.959,21.477c0.087,10.536,0.499,21.675,2.234,32.1
					c0.607,3.659,1.221,9.891,4.461,12.449c2.908,2.295,6.814,0.283,9.369-1.562c2.882-2.082,4.584-5.943,5.613-9.22
					c2.122-6.743,2.641-14.415,3.903-21.375c2.61-14.361,2.613-28.838,4.025-43.299c-0.003,0.025,1.779-5.25,3.072-2.391
					c0.822,1.817,0.359,4.297,0.38,6.26c0.034,3.55,0,7.101-0.065,10.65c-0.135,7.143-0.572,14.276-1.113,21.398
					c-1.223,16.129-2.771,32.234-4.02,48.362c-0.608,7.859-1.177,15.722-1.715,23.587c-0.248,3.618-0.273,7.298-1.008,10.856
					c-0.907,4.417-3.906,8.388-6.731,11.751c-3.775,4.496-8.855,10.329-14.51,12.321c-8.479,2.988-17.237-0.663-23.508-6.423
					c-10.712-9.843-12.1-22.973-12.498-36.621c-0.448-15.32-1.246-30.739-2.43-46.021c-0.589-7.621,0.111-15.151,0.281-22.77
					c0.151-6.766-0.748-13.528-0.539-20.283c0.141-4.519,0.605-9.501,1.65-13.913c0.358-1.523,0.531,0.517,0.615,0.857
					c0.261,1.048,0.372,2.141,0.514,3.209C373.199,20.397,373.311,24.106,373.439,27.772c0.031,0.899,1.928,0.531,1.902-0.191
					c-0.044-1.252-0.396-20.255-4.2-17.12c-2.366,1.95-2.127,6.219-2.328,9.009c-0.534,7.417-0.484,14.36-0.291,21.815
					c0.199,7.653-0.537,15.264-0.538,22.911c-0.001,7.858,1.008,15.787,1.377,23.642c0.672,14.327,0.31,29.152,2.368,43.356
					c1.672,11.523,9.35,21.804,19.446,27.345c7.146,3.921,17.599,3.199,23.859-2.161c4.225-3.614,8.521-7.678,11.79-12.188
					c4.353-5.997,5.335-11.328,5.824-18.623c1.099-16.41,2.38-32.807,3.761-49.195c1.247-14.803,2.749-29.588,3.182-44.444
					c0.061-2.103,2.225-24.814-4.237-20.188c-3.039,2.175-2.909,5.036-2.998,8.482c-0.194,7.534-1.085,15.264-1.637,22.792
					c-0.537,7.336-1.957,14.604-3.307,21.824c-1.213,6.499-1.436,13.904-4.51,19.854c-1.752,3.39-7.527,9.68-11.141,4.01
					c-1.664-2.612-2.059-6.06-2.672-9.032c-0.86-4.156-0.899-8.337-1.182-12.551c-0.908-13.661-1.099-27.356-2.144-41.014
					c-0.166-2.16-1.104-21.234-6.24-17.226c-2.184,1.704-1.464,7.145-1.675,9.555c-0.547,6.243-0.903,12.331-1.025,18.601
					c-0.185,9.562-1.098,19.083-1.386,28.636c-0.13,4.306-0.144,8.582-0.641,12.867c-0.438,3.774-3.084,17.702-9.577,10.09
					c-4.073-4.773-4.524-10.687-5.408-16.603c-0.608-4.09-1.233-8.178-1.769-12.279c-1.386-10.625-2.319-21.462-2.707-32.165
					C375.309,26.68,373.413,27.05,373.439,27.772z"/>
			</g>
		</g>
		<g>
			<g>
				<path fill="#878787" d="M391.095,158.088c-0.677,12.164,0.413,24.23-1.249,36.341c-1.597,11.635-2.151,23.434-2.729,35.153
					c-1.294,26.365-2.374,52.684-4.172,79.025c-0.946,13.886-1.553,27.781-1.579,41.699c-0.021,10.729-1.964,21.965,2.24,32.193
					c2.896,7.045,10.046,11.434,17.265,7.959c8.665-4.172,11.133-16.426,11.042-24.962c-0.011-1.04-1.932-0.79-1.922,0.119
					c0.089,8.601-3.984,27.696-16.551,24.336c-11.313-3.026-10.803-20.459-10.506-29.354c0.8-23.957,1.645-47.785,3.32-71.709
					c1.563-22.32,1.938-44.686,3.182-67.021c0.553-9.935,1.205-19.897,2.639-29.748c1.646-11.299,0.309-22.787,0.939-34.152
					C393.075,156.935,391.146,157.173,391.095,158.088L391.095,158.088z"/>
			</g>
		</g>
	</g>
	<path fill="#80808A" d="M410.384,113.222c-0.66-2.205-0.084-4.834,1.473-6.816c1.551-1.998,4.072-3.303,6.787-3.277
		c1.225,0.002,2.602,0.301,3.75,0.875c1.166,0.576,2.188,1.404,2.961,2.4c1.559,1.982,2.131,4.613,1.469,6.818
		c-0.646-2.189-1.764-3.945-3.23-5.156c-1.477-1.221-3.175-1.857-5.027-1.857c-1.693-0.006-3.512,0.633-4.949,1.854
		C412.141,109.275,411.028,111.033,410.384,113.222z"/>
	<path fill="#FFFFFF" d="M426.272,115.614c0.352-0.953,0.553-1.982,0.553-3.064c0-4.725-3.68-8.555-8.219-8.555
		c-4.541,0-8.221,3.83-8.221,8.555c0,1.082,0.201,2.111,0.553,3.064H426.272z"/>
	<path fill="#80808A" d="M378.069,113.222c-0.66-2.205-0.084-4.834,1.474-6.816c1.552-1.998,4.071-3.303,6.786-3.277
		c1.227,0.002,2.604,0.301,3.75,0.875c1.166,0.576,2.188,1.404,2.961,2.4c1.561,1.982,2.133,4.613,1.471,6.818
		c-0.648-2.189-1.766-3.945-3.232-5.156c-1.475-1.221-3.174-1.857-5.026-1.857c-1.692-0.006-3.513,0.633-4.948,1.854
		C379.827,109.275,378.714,111.033,378.069,113.222z"/>
	<path fill="#FFFFFF" d="M393.959,115.614c0.353-0.953,0.554-1.982,0.554-3.064c0-4.725-3.682-8.555-8.22-8.555
		c-4.541,0-8.222,3.83-8.222,8.555c0,1.082,0.201,2.111,0.553,3.064H393.959z"/>
	<ellipse cx="418.606" cy="112.55" rx="2.809" ry="2.925"/>
	<circle fill="#FFFFFF" cx="417.07" cy="110.736" r="0.767"/>
	<ellipse cx="386.293" cy="112.55" rx="2.81" ry="2.925"/>
	<circle fill="#FFFFFF" cx="384.756" cy="110.736" r="0.767"/>
	<path d="M415.032,139.282c-1.358,6.242-6.503,9.723-11.938,9.73c-5.299,0.005-10.599-3.894-11.961-9.7"/>
</g>
<g>
	<path opacity="0.6" fill="#394747" enable-background="new    " d="M537.564,387.042l-1.987-192.447l-0.707-35.508
		c0,0,13.957-7.744,18.065-19.445c5.287-15.055,12.558-120.744,12.558-120.744c-0.813-4.857-1.776-6-3.86-5.902
		c-2.916,0.135-3.371,2.508-3.371,2.508L546.217,80.85c0,0-0.617,8.846-5.304,8.846c-4.864,0-6.581-7.297-6.581-7.297l-2.048-67.576
		c0,0-0.688-5.537-5.661-5.521c-2.777,0.008-3.679,3.381-3.679,3.381l-2.237,69.912c0,0-3.324,7.246-7.146,6.992
		c-3.82-0.256-6.556-7.906-6.556-7.906l-9.578-65.574c0,0-0.364-5.113-3.647-5.113c-2.983,0-4.521,6.23-4.521,6.23
		s2.031,109.609,11.086,126.691c7.197,13.576,16.146,16.453,16.146,16.453s-19.299,210.797-10.063,227.807
		C517.182,407.99,537.564,387.042,537.564,387.042z"/>
	<path fill="#BFBFBF" d="M533.564,385.042l-1.987-192.447l-0.707-35.508c0,0,13.957-7.744,18.065-19.445
		c5.287-15.055,12.558-120.744,12.558-120.744c-0.813-4.857-1.776-6-3.86-5.902c-2.916,0.135-3.371,2.508-3.371,2.508L542.217,78.85
		c0,0-0.617,8.846-5.304,8.846c-4.864,0-6.581-7.297-6.581-7.297l-2.048-67.576c0,0-0.688-5.537-5.661-5.521
		c-2.777,0.008-3.679,3.381-3.679,3.381l-2.237,69.912c0,0-3.324,7.246-7.146,6.992c-3.82-0.256-6.556-7.906-6.556-7.906
		l-9.578-65.574c0,0-0.364-5.113-3.647-5.113c-2.983,0-4.521,6.23-4.521,6.23s2.031,109.609,11.086,126.691
		c7.197,13.576,16.146,16.453,16.146,16.453s-19.299,210.797-10.063,227.807C513.182,405.99,533.564,385.042,533.564,385.042z"/>
	<g>
		<path fill="#D4D4D4" d="M526.219,181.751c-3.738,16.617-5.4,45.698-5.4,52.343s-5.032,36.705-5.814,52.344
			c-0.781,14.854-4.324,37.07-7.063,51.928c-1.563,9.381-0.854,20.109-1.246,29.494c0,4.689,0.22,12.685,3.738,16.199
			c3.908,4.691,9.358,3.941,12.097-1.529c3.521-6.646,5.022-15.961,5.769-23.395c1.245-12.463,0.416-19.107,0.83-32.816
			c0.37-12.271-1.246-65.223-0.83-80.178c0.174-6.301,1.196-39.439,0.414-45.697C527.93,193.017,528.365,172.216,526.219,181.751z"
			/>
	</g>
	<g opacity="0.5">
		<path fill="#D4D4D4" d="M489.796,12.795c5.625-2.25,4.579,18.282,4.454,21.28c-0.375,9,1.597,20.453,2.722,28.703
			c0.75,4.875,1.479,8.112,2.229,13.362c0.75,4.125,1.848,9.473,5.598,11.723c8.998,4.875,10.873-7.875,12.373-13.875
			c2.25-10.125,1.937-21,3.062-31.5c0.75-8.625,0.367-16.861,0.742-25.486c0.375-7.125,3.705-6,4.455,0
			c0.75,5.25,1.236,12.071,1.236,17.321c0,10.875,1.38,21.665,1.38,32.54c0,7.125-2.625,22.125,7.125,22.125
			c11.625,0,9.972-12.617,12-21c4.733-19.561,4.238-57.172,9.683-54.203c2.396,1.308-1.901,26.598-2.475,30.683
			c-1.731,12.372-1.979,20.537-4.583,35.52c-1.286,7.398-2.25,15-2.625,22.498c-0.375,8.625,0.581,26.274-4.669,34.524
			c-4.5,7.125-8.536,15.658-21.071,16.113c-4.694,0.17-7.295-0.91-10.94-4.33c-3.722-3.488-6.838-7.066-8.892-19.375
			c-0.789-4.738,4.699-28.057,0.949-30.68c-4.125-3.375-2.957-5.231-4.832-9.731c-3.375-9.75-2.826-21.547-4.701-31.672
			c-2.625-14.25-3.089-24.567-3.464-41.817"/>
	</g>
	<g>
		<g>
			<g>
				<path fill="#878787" d="M493.17,27.771c0.418,11.541,1.462,23.195,3.005,34.643c0.765,5.671,1.67,11.325,2.499,16.987
					c0.541,3.693,3.467,11.819,7.719,12.791c7.979,1.824,9.597-9.982,10.198-15.181c1.267-10.933,1.189-22.348,1.657-33.354
					c0.265-6.215,0.027-12.468,0.57-18.665c0.233-2.672,0.544-5.337,0.777-8.009c0.061-0.685,0.491-7.888,1.555-5.767
					c2.02,4.025,1.964,9.753,2.354,14.139c0.636,7.147,0.898,14.302,0.959,21.477c0.088,10.536,0.499,21.675,2.233,32.1
					c0.608,3.659,1.222,9.891,4.461,12.449c2.907,2.295,6.815,0.283,9.37-1.562c2.881-2.082,4.583-5.943,5.613-9.22
					c2.121-6.743,2.64-14.415,3.903-21.375c2.609-14.361,2.612-28.838,4.024-43.299c-0.003,0.024,1.781-5.25,3.074-2.392
					c0.822,1.817,0.359,4.297,0.38,6.26c0.034,3.55,0,7.1-0.066,10.65c-0.135,7.143-0.572,14.276-1.112,21.398
					c-1.226,16.129-2.771,32.234-4.021,48.362c-0.607,7.86-1.176,15.723-1.715,23.587c-0.248,3.618-0.272,7.298-1.007,10.856
					c-0.908,4.417-3.907,8.387-6.732,11.75c-3.774,4.495-8.854,10.329-14.51,12.321c-8.479,2.988-17.237-0.663-23.506-6.423
					c-10.714-9.843-12.101-22.973-12.499-36.62c-0.449-15.321-1.247-30.74-2.43-46.021c-0.589-7.621,0.11-15.151,0.28-22.77
					c0.151-6.767-0.748-13.529-0.539-20.284c0.143-4.519,0.605-9.501,1.65-13.913c0.359-1.523,0.532,0.515,0.616,0.856
					c0.26,1.048,0.372,2.141,0.513,3.209C492.929,20.396,493.041,24.105,493.17,27.771c0.03,0.899,1.928,0.531,1.901-0.191
					c-0.044-1.251-0.396-20.257-4.2-17.12c-2.364,1.952-2.127,6.218-2.327,9.009c-0.534,7.417-0.484,14.361-0.291,21.816
					c0.198,7.653-0.537,15.264-0.538,22.911c-0.001,7.858,1.008,15.787,1.377,23.642c0.672,14.327,0.308,29.152,2.368,43.356
					c1.672,11.523,9.349,21.804,19.445,27.345c7.146,3.921,17.6,3.199,23.86-2.161c4.224-3.614,8.52-7.678,11.79-12.188
					c4.352-5.997,5.335-11.328,5.824-18.623c1.099-16.41,2.381-32.807,3.761-49.195c1.247-14.803,2.749-29.588,3.182-44.444
					c0.062-2.104,2.227-24.814-4.238-20.188c-3.037,2.174-2.908,5.036-2.997,8.481c-0.194,7.535-1.085,15.265-1.638,22.793
					c-0.537,7.336-1.957,14.604-3.306,21.824c-1.213,6.499-1.438,13.904-4.51,19.854c-1.752,3.39-7.526,9.681-11.142,4.01
					c-1.665-2.612-2.057-6.06-2.672-9.032c-0.859-4.156-0.898-8.337-1.181-12.551c-0.91-13.661-1.1-27.356-2.145-41.014
					c-0.166-2.159-1.104-21.233-6.239-17.226c-2.185,1.704-1.465,7.145-1.676,9.555c-0.547,6.243-0.902,12.331-1.023,18.601
					c-0.187,9.562-1.1,19.083-1.387,28.636c-0.131,4.306-0.146,8.582-0.642,12.867c-0.438,3.774-3.084,17.703-9.577,10.09
					c-4.072-4.774-4.523-10.687-5.408-16.604c-0.608-4.09-1.233-8.178-1.769-12.279c-1.385-10.625-2.319-21.462-2.707-32.165
					C495.039,26.679,493.143,27.049,493.17,27.771z"/>
			</g>
		</g>
		<g>
			<g>
				<path fill="#878787" d="M510.825,158.086c-0.678,12.164,0.413,24.231-1.249,36.342c-1.597,11.634-2.15,23.435-2.728,35.154
					c-1.294,26.365-2.374,52.684-4.171,79.023c-0.948,13.887-1.555,27.781-1.58,41.699c-0.021,10.729-1.965,21.967,2.24,32.195
					c2.896,7.045,10.046,11.432,17.265,7.957c8.665-4.17,11.132-16.424,11.042-24.961c-0.011-1.039-1.932-0.791-1.922,0.119
					c0.09,8.602-3.986,27.697-16.551,24.336c-11.313-3.027-10.804-20.459-10.507-29.355c0.801-23.957,1.646-47.783,3.32-71.709
					c1.563-22.318,1.938-44.686,3.183-67.021c0.553-9.933,1.204-19.897,2.639-29.748c1.646-11.299,0.308-22.787,0.938-34.152
					C512.805,156.935,510.877,157.172,510.825,158.086L510.825,158.086z"/>
			</g>
		</g>
	</g>
	<g>
		<g>
			<g>
				<path fill="#80808A" d="M513.114,111.323c0.659,2.206,0.084,4.834-1.474,6.816c-1.551,1.998-4.072,3.303-6.787,3.278
					c-1.223-0.001-2.602-0.301-3.75-0.875c-1.164-0.575-2.186-1.404-2.959-2.4c-1.561-1.982-2.133-4.612-1.471-6.818
					c0.647,2.19,1.764,3.945,3.231,5.157c1.476,1.22,3.174,1.857,5.026,1.857c1.692,0.005,3.513-0.634,4.949-1.854
					C511.356,115.271,512.47,113.513,513.114,111.323z"/>
				<g>
					<ellipse fill="#FFFFFF" cx="504.895" cy="111.323" rx="8.221" ry="8.556"/>
					<ellipse cx="504.896" cy="111.323" rx="2.81" ry="2.925"/>
				</g>
			</g>
			<circle fill="#FFFFFF" cx="503.359" cy="109.509" r="0.767"/>
		</g>
		<g>
			<g>
				<path fill="#80808A" d="M549.2,111.323c0.659,2.206,0.084,4.834-1.474,6.816c-1.551,1.998-4.072,3.303-6.787,3.278
					c-1.225-0.001-2.602-0.301-3.75-0.875c-1.166-0.575-2.188-1.404-2.961-2.4c-1.559-1.982-2.131-4.612-1.469-6.818
					c0.647,2.19,1.764,3.945,3.231,5.157c1.476,1.22,3.175,1.857,5.026,1.857c1.693,0.005,3.513-0.634,4.949-1.854
					C547.443,115.271,548.556,113.513,549.2,111.323z"/>
				<g>
					<ellipse fill="#FFFFFF" cx="540.98" cy="111.323" rx="8.221" ry="8.556"/>
					<ellipse cx="540.981" cy="111.323" rx="2.81" ry="2.925"/>
				</g>
			</g>
			<circle fill="#FFFFFF" cx="539.445" cy="109.509" r="0.767"/>
		</g>
		<path fill="#80808A" d="M510.413,139.009l15.021,10.272C525.436,149.281,501.829,160.868,510.413,139.009z"/>
		<path d="M510.413,139.009l15.021,10.272C525.436,149.281,503.41,155.373,510.413,139.009z"/>
	</g>
</g>
<g>
	<path opacity="0.6" fill="#394747" enable-background="new    " d="M657.791,387.043l-1.987-192.446l-0.707-35.508
		c0,0,13.956-7.744,18.064-19.445C678.447,124.589,685.718,18.9,685.718,18.9c-0.813-4.858-1.777-6-3.861-5.903
		c-2.916,0.135-3.371,2.508-3.371,2.508L666.44,80.851c0,0-0.617,8.845-5.303,8.845c-4.864,0-6.581-7.296-6.581-7.296l-2.047-67.577
		c0,0-0.688-5.537-5.662-5.521c-2.777,0.007-3.678,3.381-3.678,3.381l-2.238,69.912c0,0-3.324,7.246-7.146,6.992
		c-3.818-0.256-6.555-7.906-6.555-7.906l-9.578-65.574c0,0-0.365-5.113-3.647-5.113c-2.983,0-4.521,6.23-4.521,6.23
		s2.031,109.61,11.086,126.691c7.197,13.576,16.146,16.454,16.146,16.454s-19.3,210.796-10.064,227.807
		C637.408,407.992,657.791,387.043,657.791,387.043z"/>
	<path fill="#BFBFBF" d="M653.791,385.043l-1.987-192.446l-0.707-35.508c0,0,13.956-7.744,18.064-19.445
		C674.447,122.589,681.718,16.9,681.718,16.9c-0.813-4.858-1.777-6-3.861-5.903c-2.916,0.135-3.371,2.508-3.371,2.508L662.44,78.851
		c0,0-0.617,8.845-5.301,8.845c-4.865,0-6.582-7.296-6.582-7.296l-2.047-67.577c0,0-0.688-5.537-5.662-5.521
		c-2.777,0.007-3.678,3.381-3.678,3.381l-2.238,69.912c0,0-3.324,7.246-7.146,6.992c-3.818-0.256-6.555-7.906-6.555-7.906
		l-9.578-65.574c0,0-0.364-5.113-3.647-5.113c-2.983,0-4.521,6.23-4.521,6.23s2.031,109.61,11.086,126.691
		c7.197,13.576,16.146,16.454,16.146,16.454s-19.3,210.796-10.064,227.807C633.408,405.992,653.791,385.043,653.791,385.043z"/>
	<g>
		<path fill="#D4D4D4" d="M646.445,181.754c-3.738,16.617-5.399,45.697-5.399,52.344s-5.032,36.705-5.815,52.344
			c-0.781,14.854-4.324,37.07-7.063,51.928c-1.563,9.382-0.854,20.111-1.244,29.494c0,4.689,0.219,12.685,3.736,16.201
			c3.908,4.689,9.359,3.939,12.098-1.531c3.52-6.646,5.021-15.961,5.768-23.395c1.246-12.463,0.416-19.107,0.83-32.816
			c0.371-12.271-1.246-65.223-0.83-80.176c0.174-6.303,1.197-39.441,0.414-45.698C648.156,193.02,648.592,172.219,646.445,181.754z"
			/>
	</g>
	<g opacity="0.5">
		<path fill="#D4D4D4" d="M610.021,11.798c5.625-2.25,4.58,18.282,4.455,21.28c-0.375,9,1.596,20.453,2.721,28.703
			c0.75,4.875,1.479,8.112,2.229,13.362c0.75,4.125,1.847,9.473,5.597,11.723c8.998,4.875,10.873-7.875,12.373-13.875
			c2.25-10.125,1.938-21,3.063-31.5c0.75-8.625,0.367-16.861,0.742-25.486c0.375-7.125,3.704-6,4.454,0
			c0.75,5.25,1.237,12.071,1.237,17.321c0,10.875,1.379,21.665,1.379,32.54c0,7.125-2.625,22.125,7.125,22.125
			c11.625,0,9.97-12.617,12-21c4.734-19.561,4.24-57.171,9.684-54.203c2.396,1.308-1.901,26.598-2.475,30.683
			c-1.732,12.372-1.979,20.537-4.584,35.52c-1.285,7.398-2.25,15-2.625,22.498c-0.375,8.625,0.582,26.274-4.668,34.524
			c-4.5,7.125-8.537,15.658-21.072,16.113c-4.693,0.17-7.295-0.91-10.939-4.33c-3.723-3.488-6.838-7.066-8.893-19.375
			c-0.789-4.739,4.699-28.057,0.949-30.68c-4.125-3.375-2.957-5.231-4.832-9.731c-3.375-9.75-2.826-21.547-4.701-31.672
			c-2.625-14.25-3.089-24.567-3.464-41.817"/>
	</g>
	<g>
		<g>
			<g>
				<path fill="#878787" d="M614.201,28.176c0.418,11.541,1.463,23.195,3.005,34.643c0.767,5.672,1.671,11.325,2.499,16.988
					c0.541,3.693,3.47,11.818,7.721,12.79c7.979,1.825,9.596-9.982,10.196-15.181c1.269-10.933,1.19-22.348,1.658-33.354
					c0.266-6.215,0.028-12.468,0.571-18.665c0.232-2.672,0.543-5.337,0.777-8.009c0.06-0.684,0.489-7.888,1.555-5.766
					c2.018,4.025,1.963,9.753,2.354,14.139c0.638,7.147,0.899,14.302,0.959,21.477c0.088,10.536,0.499,21.675,2.234,32.1
					c0.609,3.659,1.221,9.891,4.461,12.449c2.908,2.295,6.816,0.284,9.368-1.562c2.883-2.082,4.584-5.943,5.615-9.22
					c2.12-6.743,2.639-14.415,3.901-21.375c2.611-14.361,2.613-28.838,4.025-43.299c-0.002,0.025,1.783-5.25,3.074-2.392
					c0.821,1.817,0.358,4.297,0.379,6.26c0.035,3.55,0,7.1-0.066,10.65c-0.135,7.143-0.572,14.275-1.111,21.398
					c-1.225,16.129-2.771,32.234-4.021,48.362c-0.607,7.86-1.176,15.723-1.715,23.587c-0.248,3.618-0.273,7.298-1.006,10.856
					c-0.908,4.417-3.908,8.387-6.732,11.751c-3.774,4.495-8.854,10.329-14.509,12.321c-8.479,2.988-17.237-0.663-23.506-6.423
					c-10.713-9.843-12.102-22.972-12.5-36.62c-0.448-15.321-1.246-30.74-2.428-46.021c-0.591-7.621,0.109-15.151,0.279-22.771
					c0.151-6.766-0.748-13.528-0.539-20.283c0.143-4.519,0.605-9.501,1.65-13.912c0.361-1.523,0.533,0.515,0.617,0.856
					c0.259,1.048,0.372,2.141,0.512,3.208C613.961,20.801,614.073,24.51,614.201,28.176c0.031,0.899,1.929,0.531,1.902-0.191
					c-0.043-1.251-0.397-20.256-4.2-17.12c-2.365,1.952-2.127,6.218-2.328,9.009c-0.534,7.417-0.482,14.361-0.291,21.816
					c0.199,7.653-0.537,15.264-0.538,22.911c0,7.858,1.008,15.787,1.377,23.642c0.672,14.327,0.31,29.152,2.368,43.356
					c1.672,11.523,9.352,21.804,19.446,27.345c7.146,3.921,17.599,3.199,23.861-2.161c4.223-3.614,8.518-7.678,11.787-12.188
					c4.353-5.997,5.337-11.329,5.824-18.624c1.101-16.41,2.381-32.807,3.763-49.195c1.245-14.803,2.747-29.588,3.18-44.445
					c0.061-2.103,2.225-24.813-4.236-20.188c-3.039,2.175-2.91,5.036-2.998,8.481c-0.194,7.535-1.086,15.265-1.637,22.793
					c-0.537,7.336-1.957,14.604-3.307,21.823c-1.214,6.499-1.437,13.904-4.511,19.854c-1.752,3.39-7.525,9.681-11.139,4.01
					c-1.665-2.612-2.057-6.06-2.672-9.032c-0.86-4.155-0.899-8.337-1.182-12.551c-0.908-13.661-1.099-27.356-2.144-41.014
					c-0.166-2.16-1.104-21.233-6.24-17.226c-2.184,1.704-1.465,7.146-1.676,9.554c-0.546,6.243-0.902,12.331-1.022,18.602
					c-0.187,9.562-1.1,19.083-1.388,28.636c-0.13,4.306-0.145,8.582-0.641,12.867c-0.438,3.774-3.083,17.702-9.578,10.09
					c-4.072-4.773-4.523-10.687-5.407-16.603c-0.609-4.09-1.232-8.178-1.769-12.279c-1.386-10.625-2.319-21.462-2.707-32.165
					C616.071,27.084,614.175,27.454,614.201,28.176z"/>
			</g>
		</g>
		<g>
			<g>
				<path fill="#878787" d="M631.857,158.491c-0.677,12.164,0.413,24.231-1.249,36.342c-1.597,11.634-2.151,23.435-2.727,35.153
					c-1.294,26.363-2.374,52.682-4.173,79.021c-0.946,13.889-1.554,27.783-1.578,41.703c-0.021,10.729-1.967,21.963,2.238,32.193
					c2.896,7.045,10.047,11.432,17.267,7.957c8.665-4.17,11.131-16.424,11.042-24.961c-0.013-1.039-1.934-0.791-1.922,0.119
					c0.09,8.602-3.986,27.696-16.553,24.336C622.89,387.328,623.4,369.896,623.697,361c0.8-23.957,1.646-47.785,3.32-71.709
					c1.563-22.32,1.938-44.684,3.182-67.021c0.554-9.933,1.205-19.896,2.641-29.748c1.645-11.299,0.307-22.787,0.938-34.153
					C633.836,157.338,631.908,157.577,631.857,158.491L631.857,158.491z"/>
			</g>
		</g>
	</g>
	<g>
		<path fill="#80808A" d="M631.951,113.176c0.58,1.938,0.074,4.248-1.295,5.993c-1.362,1.755-3.58,2.902-5.965,2.88
			c-1.076,0-2.289-0.263-3.297-0.77c-1.023-0.506-1.922-1.234-2.604-2.109c-1.367-1.743-1.872-4.055-1.291-5.995
			c0.57,1.924,1.553,3.469,2.846,4.533c1.295,1.073,2.789,1.633,4.418,1.633c1.486,0.006,3.086-0.556,4.352-1.63
			C630.408,116.646,631.386,115.1,631.951,113.176z"/>
		<ellipse fill="#FFFFFF" cx="624.725" cy="113.176" rx="7.226" ry="7.52"/>
		<ellipse cx="627.435" cy="110.469" rx="2.469" ry="2.569"/>
		<circle fill="#FFFFFF" cx="626.086" cy="108.873" r="0.675"/>
		<path fill="#80808A" d="M664.93,113.176c0.578,1.938,0.074,4.248-1.295,5.993c-1.363,1.755-3.579,2.902-5.965,2.88
			c-1.076,0-2.287-0.263-3.297-0.77c-1.023-0.506-1.924-1.234-2.604-2.109c-1.371-1.743-1.875-4.055-1.293-5.995
			c0.572,1.924,1.553,3.469,2.842,4.533c1.297,1.073,2.791,1.633,4.422,1.633c1.486,0.006,3.085-0.556,4.35-1.63
			C663.385,116.646,664.361,115.1,664.93,113.176z"/>
		<ellipse fill="#FFFFFF" cx="657.705" cy="113.176" rx="7.228" ry="7.52"/>
		<ellipse cx="660.413" cy="110.469" rx="2.471" ry="2.569"/>
		<circle fill="#FFFFFF" cx="659.065" cy="108.873" r="0.675"/>
	</g>
	<g>
		<path fill="#80808A" d="M639.361,140.513c-11.365,0.989-10.736,6.924,1.264,7.543c6.632,0.371,10.734-1.484,10.734-4.08
			c0-2.722-4.734-3.34-10.734-3.463"/>
		<g>
			<path fill="#80808A" d="M639.438,139.862c-2.366,0.236-9.318,0.911-9.104,4.628c0.228,3.913,8.375,4.146,10.837,4.249
				c3.007,0.127,10.134-0.113,10.992-4.169c1.057-4.979-8.566-4.636-11.231-4.703c-0.856-0.021-1.809,1.263-0.611,1.293
				c2.458,0.062,8.71-0.415,10.029,2.332c1.661,3.458-6.401,3.936-7.977,3.961c-2.896,0.045-8.104-0.072-10.054-2.704
				c-1.861-2.518,6.058-3.493,6.964-3.583C640.274,141.066,640.644,139.741,639.438,139.862L639.438,139.862z"/>
		</g>
	</g>
	<g>
		<path fill="#121212" d="M639.297,140.798c-10.803,0.939-10.203,6.581,1.199,7.167c6.301,0.352,10.199-1.41,10.199-3.878
			c0-2.585-4.5-3.172-10.199-3.29"/>
	</g>
</g>
<g>
	<path opacity="0.6" fill="#394747" enable-background="new    " d="M777.518,387.186l-1.986-192.447l-0.707-35.508
		c0,0,13.116-8.074,18.064-19.446c15.396-35.37-3.442-120.743-3.442-120.743c-0.813-4.858-1.775-6-3.86-5.903
		c-2.916,0.136-3.37,2.509-3.37,2.509l3.954,65.345c0,0-0.617,8.847-5.303,8.847c-4.864,0-6.583-7.298-6.583-7.298l-2.047-67.576
		c0,0-0.688-5.536-5.662-5.521c-2.776,0.008-3.678,3.382-3.678,3.382l-2.237,69.911c0,0-3.376,7.663-7.146,6.992
		c-5.861-1.043-5.607-7.639-5.607-7.639l5.476-65.842c0,0-0.364-5.113-3.646-5.113c-2.983,0-4.521,6.23-4.521,6.23
		s-23.689,82.483-4.914,126.692c6.007,14.143,16.146,16.452,16.146,16.452s-19.3,210.798-10.064,227.808
		C757.135,408.133,777.518,387.186,777.518,387.186z"/>
	<path fill="#C1C1C1" d="M774.171,384.898l-1.988-192.446l-0.707-35.508c0,0,13.116-8.074,18.065-19.446
		c15.396-35.37-3.442-120.743-3.442-120.743c-0.813-4.858-1.776-6-3.86-5.903c-2.916,0.136-3.371,2.509-3.371,2.509l3.955,65.345
		c0,0-0.617,8.847-5.304,8.847c-4.864,0-6.581-7.298-6.581-7.298l-2.048-67.576c0,0-0.688-5.536-5.661-5.521
		c-2.777,0.008-3.679,3.382-3.679,3.382l-2.237,69.911c0,0-3.375,7.663-7.146,6.992c-5.861-1.043-5.606-7.639-5.606-7.639
		l5.475-65.842c0,0-0.364-5.113-3.647-5.113c-2.983,0-4.521,6.23-4.521,6.23s-23.688,82.483-4.914,126.692
		c6.008,14.142,16.146,16.452,16.146,16.452S733.8,369.021,743.035,386.031C753.787,405.848,774.171,384.898,774.171,384.898z"/>
	<g>
		<path fill="#D6D6D6" d="M766.824,181.608c-3.737,16.616-5.399,45.697-5.399,52.343s-5.033,36.707-5.815,52.344
			c-0.781,14.855-4.324,37.07-7.062,51.928c-1.563,9.381-0.854,20.111-1.246,29.494c0,4.691,0.219,12.684,3.737,16.201
			c3.908,4.691,9.359,3.941,12.097-1.531c3.521-6.646,5.022-15.962,5.769-23.395c1.246-12.461,0.416-19.108,0.83-32.816
			c0.37-12.27-1.246-65.223-0.83-80.177c0.174-6.302,1.196-39.44,0.414-45.697C768.535,192.874,768.971,172.071,766.824,181.608z"/>
	</g>
	<g opacity="0.5">
		<path fill="#D6D6D6" d="M745.898,10.756c5.625-2.25,1.813,18.813,1.487,21.795c-1.908,17.577-4.261,23.362-3.136,31.612
			c0.75,4.875-1.698,12.612-0.948,17.862c0.75,4.125,0.349,4.232,4.383,5.917c8.658,3.617,11.322-5.068,12.822-11.068
			c2.25-10.125-1.079-24.174,0.046-34.674c0.75-8.625-0.27-20.677,0.105-29.301c0.375-7.125,3.283-3.346,4.033,2.654
			c0.75,5.249,1.168,11.842,1.168,17.092c0,10.875,0.956,21.612,0.956,32.487c0,7.125-0.794,22.395,8.956,22.395
			c11.625,0,12.364-12.383,12-21c-1.605-37.902-11.438-55.568-5.438-54.068c2.625,0.75,8.666,32.375,8.666,36.5
			c0,12,1.542,19,1.167,31c-0.375,7.5-4.02,13.568-4.395,21.067c-0.375,8.625,2.625,17.25-2.625,25.5
			c-4.5,7.125-10.58,24.681-23.115,25.136c-4.694,0.171-7.295-0.91-10.94-4.33c-3.722-3.488-6.838-7.066-8.892-19.375
			c-0.789-4.737,1.474-21.402,0.554-26.424c-0.96-5.243-0.755-8.212-2.63-12.712c-3.375-9.75-1.907-17.238-1.322-27.518
			c0.904-15.879,2.997-26.57,7.494-49.871"/>
	</g>
	<g>
		<g>
			<path fill="#80808A" d="M753.625,111.542c0.605,2.027,0.078,4.441-1.352,6.263c-1.429,1.836-3.744,3.035-6.238,3.013
				c-1.123-0.001-2.391-0.276-3.442-0.805c-1.072-0.528-2.013-1.291-2.724-2.206c-1.432-1.82-1.959-4.237-1.35-6.265
				c0.596,2.011,1.62,3.625,2.971,4.738c1.354,1.121,2.916,1.707,4.619,1.707c1.558,0.004,3.228-0.583,4.547-1.703
				C752.01,115.17,753.033,113.553,753.625,111.542z"/>
			<path fill="#FFFFFF" d="M738.52,111.542c0,4.342,3.382,7.86,7.554,7.86s7.554-3.519,7.554-7.86H738.52z"/>
			<path d="M743.609,111.521c0,1.483,1.155,2.686,2.582,2.686c1.426,0,2.58-1.202,2.58-2.686H743.609z"/>
			<path fill="#FFFFFF" d="M743.912,111.521c0,0.391,0.315,0.706,0.705,0.706s0.705-0.315,0.705-0.706H743.912z"/>
		</g>
		<g>
			<path fill="#80808A" d="M786.757,111.542c0.604,2.027,0.077,4.441-1.354,6.263c-1.427,1.836-3.744,3.035-6.238,3.013
				c-1.123-0.001-2.391-0.276-3.444-0.805c-1.069-0.528-2.011-1.291-2.722-2.206c-1.432-1.82-1.959-4.237-1.35-6.265
				c0.596,2.011,1.62,3.625,2.971,4.738c1.354,1.121,2.916,1.707,4.619,1.707c1.558,0.004,3.228-0.583,4.549-1.703
				C785.141,115.17,786.162,113.553,786.757,111.542z"/>
			<path fill="#FFFFFF" d="M771.648,111.542c0,4.342,3.383,7.86,7.555,7.86s7.554-3.519,7.554-7.86H771.648z"/>
			<path d="M776.738,111.521c0,1.483,1.153,2.686,2.58,2.686c1.426,0,2.582-1.202,2.582-2.686H776.738z"/>
			<path fill="#FFFFFF" d="M777.041,111.521c0,0.391,0.316,0.706,0.705,0.706c0.39,0,0.705-0.315,0.705-0.706H777.041z"/>
		</g>
		<path fill="#80808A" d="M750.025,143.189c0,0-0.826-0.146,0.59-0.663c2.283-0.832,8.476-2.16,12.095-2.301
			c2.672-0.104,4.784-0.282,5.663-0.044c1.136,0.311,0.429,1.356,0.429,1.356L750.025,143.189z"/>
		<path d="M750.093,142.726c0,0,5.813-2.527,12.896-2.802c7.083-0.275,5.867,0.844,5.867,0.844L750.093,142.726z"/>
	</g>
	<g>
		<g>
			<g>
				<path fill="#898989" d="M748.084,27.074c-1.822,10.457-1.894,21.054-3.438,31.541c-0.605,4.11-1.108,8.207-1.389,12.354
					c-0.329,4.902-1.861,12.649,0.608,17.236c4.205,7.809,10.412,3.063,12.745-3.31c1.635-4.467,1.514-10.186,1.621-14.906
					c0.131-5.75,0.467-11.47,0.813-17.211c0.737-12.31,0.977-24.578,1.893-36.873c0.041-0.561,0.354-6.825,1.47-4.598
					c0.931,1.854,1.136,4.258,1.461,6.273c0.866,5.356,1.073,10.794,1.505,16.195c0.607,7.622,0.241,15.306,0.597,22.943
					c0.257,5.513,1.046,10.983,1.315,16.502c0.248,5.073,1.067,20.372,8.878,18.934c10.367-1.91,9.273-13.672,8.808-21.547
					c-0.748-12.584-2.174-25.142-3.413-37.684c-0.586-5.927-2.021-12.404-1.541-18.363c0.362-4.5,3.691,3.595,3.096,2.064
					c0.604,1.55,0.873,3.318,1.255,4.932c0.952,4.027,1.746,8.092,2.5,12.16c2.706,14.606,4.258,29.398,5.879,44.154
					c1.504,13.698,2.17,27.218-0.152,40.865c-1.24,7.286-3.074,14.648-6.286,21.324c-3.059,6.356-8.1,11.494-13.292,16.155
					c-6.228,5.589-15.428,3.877-21.978-0.088c-6.374-3.86-11.196-10.565-14.37-17.209c-6.037-12.641-6.05-29.591-5.728-43.27
					c0.245-10.41,1.873-20.743,3.192-31.053c0.943-7.384,1.503-14.883,2.918-22.195c1.432-7.389,3.354-15.123,5.619-22.299
					c0.439-1.395,0.991-2.755,1.514-4.121c0.718-1.881,2.061-6.023,3.452-2.542C749.318,17.651,748.766,22.723,748.084,27.074
					c-0.134,0.854,1.786,0.552,1.902-0.191c0.188-1.189,1.43-19.83-3.859-16.332c-2.993,1.979-3.908,5.655-5.067,8.876
					c-1.883,5.232-2.78,10.849-4.21,16.22c-2.941,11.059-3.733,22.512-5.232,33.829c-1.993,15.04-3.003,29.622-1.955,44.771
					c0.929,13.407,3.571,24.911,11.834,35.699c6.467,8.44,16.832,12.929,27.24,10.097c3.438-0.936,6.081-3.545,8.544-5.965
					c4.722-4.642,8.61-9.324,11.499-15.326c5.658-11.765,7.301-26.269,7.373-39.179c0.072-13.263-1.939-26.598-3.488-39.742
					c-1.724-14.608-3.642-29.532-7.662-43.713c-1.625-5.733-7.206-5.021-6.875,0.818c0.729,12.782,2.392,25.578,3.662,38.317
					c0.586,5.881,1.049,11.775,1.397,17.675c0.245,4.123,0.138,8.193-0.47,12.276c-0.201,1.351-1.608,2.491-2.53,3.37
					c-1.776,1.883-4.047,2.284-6.811,1.202c-0.622-0.895-1.137-1.849-1.546-2.863c-1.856-4.158-2.378-9.664-2.654-14.199
					c-0.339-5.514-0.97-10.992-1.315-16.503c-0.823-13.081-0.228-26.113-2.102-39.137c-0.325-2.258-0.729-8.126-3.626-8.676
					c-2.393-0.453-2.799,3.295-2.977,4.761c-1.489,12.252-1.2,24.646-1.853,36.956c-0.306,5.757-0.774,11.504-0.917,17.27
					c-0.145,5.858-0.106,12.011-1.68,17.703c-1.021,3.695-4.885,8.175-8.398,3.632c-2.611-3.377-1.508-9.333-1.376-13.285
					c0.17-5.115,0.618-10.197,1.354-15.26c1.609-11.07,1.775-22.266,3.698-33.292C750.135,26.038,748.214,26.333,748.084,27.074z"/>
			</g>
		</g>
		<g>
			<g>
				<path fill="#898989" d="M751.246,158.345c-0.677,12.164,0.413,24.23-1.249,36.341c-1.597,11.634-2.15,23.435-2.728,35.153
					c-1.294,26.365-2.374,52.685-4.171,79.024c-0.947,13.886-1.555,27.781-1.58,41.699c-0.021,10.729-1.964,21.965,2.24,32.194
					c2.896,7.046,10.045,11.433,17.265,7.958c8.665-4.171,11.132-16.425,11.043-24.961c-0.012-1.04-1.933-0.791-1.923,0.119
					c0.091,8.602-3.986,27.697-16.551,24.336c-11.313-3.025-10.804-20.459-10.507-29.355c0.801-23.957,1.646-47.785,3.32-71.707
					c1.563-22.321,1.938-44.687,3.183-67.021c0.553-9.934,1.204-19.896,2.639-29.75c1.646-11.298,0.308-22.786,0.938-34.151
					C753.226,157.192,751.298,157.431,751.246,158.345L751.246,158.345z"/>
			</g>
		</g>
	</g>
</g>
<g>
	<path opacity="0.6" fill="#394747" enable-background="new    " d="M898.189,387.043l-1.988-192.446l-0.707-35.508
		c0,0,13.957-7.744,18.066-19.445C918.848,124.589,926.117,18.9,926.117,18.9c-0.813-4.858-1.776-6-3.86-5.903
		c-2.916,0.135-3.371,2.508-3.371,2.508l-12.045,65.346c0,0-0.617,8.845-5.304,8.845c-4.864,0-6.582-7.296-6.582-7.296
		l-2.047-67.577c0,0-0.688-5.537-5.662-5.521c-2.776,0.007-3.678,3.381-3.678,3.381l-2.237,69.912c0,0-3.324,7.246-7.146,6.992
		c-3.818-0.256-6.555-7.906-6.555-7.906l-9.578-65.574c0,0-0.365-5.113-3.648-5.113c-2.981,0-4.52,6.23-4.52,6.23
		s2.031,109.61,11.086,126.691c7.197,13.576,16.146,16.454,16.146,16.454s-19.301,210.796-10.063,227.807
		C877.807,407.991,898.189,387.043,898.189,387.043z"/>
	<path fill="#BFBFBF" d="M894.189,385.043l-1.988-192.446l-0.709-33.25c0,0,14.802-7.839,19.277-21.359
		C915.785,122.841,922.117,16.9,922.117,16.9c-0.813-4.858-1.776-6-3.86-5.903c-2.916,0.135-3.371,2.508-3.371,2.508l-12.045,65.346
		c0,0-0.617,8.845-5.304,8.845c-4.864,0-6.582-7.296-6.582-7.296l-2.047-67.577c0,0-0.688-5.537-5.662-5.521
		c-2.776,0.007-3.678,3.381-3.678,3.381l-2.237,69.912c0,0-3.324,7.246-7.146,6.992c-3.818-0.256-6.555-7.906-6.555-7.906
		l-9.578-65.574c0,0-0.365-5.113-3.648-5.113c-2.981,0-4.52,6.23-4.52,6.23s2.031,109.61,11.086,126.691
		c7.197,13.576,16.146,16.454,16.146,16.454s-19.301,210.796-10.063,227.807C873.807,405.991,894.189,385.043,894.189,385.043z"/>
	<g opacity="0.5">
		<path fill="#D4D4D4" d="M850.421,11.797c5.625-2.25,4.577,18.282,4.452,21.28c-0.375,9,1.599,20.453,2.724,28.703
			c0.75,4.875,1.479,8.112,2.229,13.362c0.75,4.125,1.849,9.473,5.599,11.723c8.998,4.875,10.873-7.875,12.373-13.875
			c2.25-10.125,1.936-21,3.061-31.5c0.75-8.625,0.367-16.861,0.742-25.486c0.375-7.125,3.705-6,4.455,0
			c0.75,5.25,1.236,12.071,1.236,17.321c0,10.875,1.381,21.665,1.381,32.54c0,7.125-2.625,22.125,7.125,22.125
			c11.625,0,9.971-12.617,12-21c4.733-19.561,4.237-57.171,9.682-54.203c2.396,1.308-1.902,26.598-2.475,30.683
			c-1.73,12.372-1.979,20.537-4.582,35.52c-1.287,7.398-2.25,15-2.625,22.498c-0.375,8.625,0.58,26.274-4.67,34.524
			c-4.5,7.125-8.535,15.658-21.07,16.113c-4.695,0.17-7.295-0.91-10.941-4.33c-3.721-3.488-6.838-7.066-8.891-19.375
			c-0.789-4.739,4.699-28.057,0.949-30.68c-4.125-3.375-2.957-5.23-4.832-9.73c-3.375-9.75-2.826-21.547-4.701-31.672
			c-2.625-14.25-3.09-24.567-3.465-41.817"/>
	</g>
	<g>
		<g>
			<g>
				<path fill="#878787" d="M854.6,28.175c0.418,11.541,1.461,23.195,3.004,34.643c0.766,5.672,1.67,11.325,2.5,16.988
					c0.541,3.693,3.469,11.818,7.719,12.79c7.98,1.825,9.597-9.982,10.197-15.181c1.268-10.933,1.191-22.348,1.658-33.354
					c0.264-6.215,0.028-12.468,0.569-18.665c0.234-2.672,0.546-5.337,0.779-8.009c0.06-0.684,0.49-7.888,1.555-5.766
					c2.019,4.025,1.964,9.753,2.354,14.139c0.637,7.146,0.898,14.302,0.959,21.477c0.086,10.536,0.498,21.675,2.234,32.1
					c0.608,3.659,1.221,9.891,4.461,12.449c2.907,2.295,6.815,0.284,9.369-1.562c2.881-2.082,4.584-5.943,5.614-9.22
					c2.121-6.743,2.64-14.415,3.902-21.375c2.609-14.361,2.613-28.838,4.025-43.299c-0.005,0.025,1.78-5.25,3.073-2.392
					c0.82,1.817,0.357,4.297,0.379,6.26c0.035,3.55,0,7.1-0.065,10.65c-0.135,7.143-0.572,14.275-1.113,21.398
					c-1.223,16.129-2.771,32.234-4.02,48.362c-0.607,7.86-1.177,15.723-1.715,23.587c-0.248,3.618-0.273,7.298-1.007,10.856
					c-0.909,4.417-3.907,8.387-6.733,11.751c-3.773,4.495-8.854,10.329-14.51,12.321c-8.479,2.988-17.236-0.663-23.507-6.423
					c-10.711-9.843-12.1-22.972-12.498-36.62c-0.448-15.321-1.247-30.74-2.43-46.021c-0.59-7.621,0.111-15.151,0.281-22.77
					c0.149-6.766-0.748-13.528-0.539-20.283c0.141-4.519,0.604-9.501,1.65-13.912c0.358-1.523,0.53,0.515,0.616,0.856
					c0.259,1.048,0.371,2.141,0.513,3.208C854.359,20.8,854.471,24.51,854.6,28.175c0.031,0.899,1.928,0.531,1.901-0.191
					c-0.045-1.251-0.397-20.256-4.2-17.12c-2.365,1.952-2.127,6.218-2.328,9.009c-0.533,7.417-0.482,14.361-0.291,21.816
					c0.199,7.653-0.537,15.264-0.537,22.911c-0.002,7.858,1.008,15.787,1.377,23.642c0.672,14.327,0.309,29.152,2.367,43.356
					c1.672,11.523,9.35,21.804,19.447,27.345c7.145,3.921,17.598,3.199,23.858-2.161c4.226-3.614,8.521-7.678,11.791-12.188
					c4.353-5.997,5.334-11.329,5.824-18.624c1.1-16.41,2.379-32.807,3.76-49.195c1.248-14.803,2.75-29.588,3.183-44.445
					c0.061-2.103,2.225-24.813-4.238-20.188c-3.039,2.175-2.908,5.036-2.998,8.481c-0.193,7.535-1.084,15.265-1.637,22.793
					c-0.537,7.336-1.957,14.604-3.306,21.823c-1.213,6.499-1.436,13.904-4.51,19.854c-1.752,3.39-7.527,9.681-11.141,4.01
					c-1.664-2.612-2.06-6.06-2.672-9.032c-0.861-4.155-0.9-8.337-1.183-12.551c-0.908-13.661-1.098-27.356-2.143-41.014
					c-0.166-2.16-1.105-21.233-6.24-17.226c-2.184,1.704-1.465,7.145-1.676,9.554c-0.547,6.243-0.904,12.331-1.025,18.602
					c-0.184,9.562-1.098,19.083-1.385,28.636c-0.131,4.306-0.146,8.582-0.642,12.867c-0.438,3.774-3.084,17.702-9.577,10.09
					c-4.072-4.773-4.523-10.687-5.408-16.603c-0.609-4.09-1.234-8.178-1.769-12.279c-1.385-10.625-2.319-21.462-2.707-32.165
					C856.469,27.084,854.572,27.453,854.6,28.175z"/>
			</g>
		</g>
		<g>
			<g>
				<path fill="#878787" d="M872.257,158.491c-0.679,12.164,0.411,24.231-1.25,36.342c-1.597,11.634-2.15,23.433-2.728,35.153
					c-1.295,26.365-2.373,52.683-4.172,79.023c-0.947,13.887-1.553,27.781-1.578,41.701c-0.021,10.729-1.965,21.965,2.238,32.193
					c2.896,7.045,10.047,11.434,17.266,7.957c8.666-4.17,11.131-16.424,11.043-24.961c-0.012-1.039-1.934-0.791-1.922,0.119
					c0.088,8.602-3.988,27.696-16.553,24.336c-11.313-3.026-10.803-20.459-10.506-29.354c0.801-23.957,1.646-47.787,3.32-71.71
					c1.563-22.319,1.938-44.685,3.182-67.021c0.553-9.933,1.205-19.898,2.641-29.75c1.646-11.299,0.308-22.787,0.938-34.153
					C874.234,157.338,872.307,157.576,872.257,158.491L872.257,158.491z"/>
			</g>
		</g>
	</g>
	<path fill="#878787" d="M892.162,145.447c0,4.988-4.043,9.031-9.028,9.031l0,0c-4.988,0-9.031-4.043-9.031-9.031v-7.489
		c0-4.987,4.043-9.031,9.031-9.031l0,0c4.985,0,9.028,4.044,9.028,9.031V145.447z"/>
	<g>
		<path fill="#D4D4D4" d="M886.844,181.753c-3.738,16.618-5.4,45.698-5.4,52.345c0,6.646-5.031,36.705-5.813,52.342
			c-0.781,14.854-4.324,37.07-7.063,51.929c-1.563,9.38-0.854,20.108-1.244,29.493c0,4.691,0.219,12.685,3.736,16.199
			c3.908,4.691,9.358,3.941,12.098-1.529c3.521-6.646,5.021-15.961,5.769-23.395c1.246-12.463,0.416-19.107,0.83-32.816
			c0.371-12.27-1.246-65.223-0.83-80.176c0.174-6.301,1.196-39.44,0.414-45.697C888.555,193.019,888.99,172.218,886.844,181.753z"/>
	</g>
	<g>
		<path fill="#82808C" d="M874.041,108.099c0.66,2.206,0.084,4.834-1.475,6.816c-1.551,1.998-4.07,3.303-6.785,3.277
			c-1.225-0.001-2.604-0.301-3.75-0.875c-1.164-0.575-2.188-1.404-2.959-2.4c-1.563-1.982-2.135-4.612-1.473-6.818
			c0.648,2.19,1.766,3.945,3.232,5.157c1.475,1.22,3.174,1.858,5.026,1.858c1.693,0.004,3.512-0.634,4.949-1.855
			C872.283,112.048,873.396,110.289,874.041,108.099z"/>
		<path fill="#FFFFFF" d="M871.048,101.496l-11.996,1.757c-0.914,1.378-1.449,3.047-1.449,4.847c0,4.726,3.68,8.555,8.221,8.555
			c4.539,0,8.22-3.83,8.22-8.555C874.041,105.44,872.875,103.065,871.048,101.496z"/>
		<ellipse cx="865.822" cy="108.099" rx="2.81" ry="2.924"/>
		<circle fill="#FFFFFF" cx="864.285" cy="106.286" r="0.767"/>
	</g>
	<g>
		<path fill="#82808C" d="M907.128,108.099c0.659,2.206,0.084,4.834-1.476,6.816c-1.551,1.998-4.07,3.303-6.785,3.277
			c-1.227-0.001-2.604-0.301-3.75-0.875c-1.166-0.575-2.188-1.404-2.961-2.4c-1.561-1.982-2.133-4.612-1.471-6.818
			c0.648,2.19,1.766,3.945,3.232,5.157c1.475,1.22,3.174,1.858,5.026,1.858c1.693,0.004,3.513-0.634,4.949-1.855
			C905.369,112.048,906.482,110.289,907.128,108.099z"/>
		<path fill="#FFFFFF" d="M893.684,101.494c-1.83,1.569-2.996,3.945-2.996,6.605c0,4.726,3.68,8.555,8.221,8.555
			c4.539,0,8.22-3.83,8.22-8.555c0-1.63-0.445-3.147-1.205-4.443L893.684,101.494z"/>
		<ellipse cx="898.908" cy="108.099" rx="2.81" ry="2.924"/>
		<circle fill="#FFFFFF" cx="897.371" cy="106.286" r="0.767"/>
	</g>
	<path d="M890.941,144.94c0,4.313-3.494,7.81-7.809,7.81l0,0c-4.314,0-7.812-3.497-7.812-7.81v-6.476c0-4.312,3.496-7.81,7.812-7.81
		l0,0c4.313,0,7.809,3.498,7.809,7.81V144.94z"/>
</g>
<g>
	<path opacity="0.6" fill="#394747" enable-background="new    " d="M1018.153,387.041l-1.987-192.446l-0.761-37.541
		c0,0,14.011-5.711,18.119-17.413c5.287-15.055,5.558-120.743,5.558-120.743c-0.813-4.858-1.775-6-3.861-5.903
		c-2.916,0.136-3.369,2.509-3.369,2.509l-5.047,65.345c0,0-1.729,4.894-6.411,4.894c-4.865,0-5.474-3.345-5.474-3.345l-2.047-67.576
		c0,0-0.688-5.536-5.662-5.521c-2.776,0.008-3.679,3.382-3.679,3.382l-2.236,69.911c0,0-3.838,3.708-7.659,3.453
		c-3.82-0.255-6.041-4.366-6.041-4.366l-3.579-65.575c0,0-0.364-5.113-3.647-5.113c-2.983,0-4.521,6.23-4.521,6.23
		s-6.091,110.915,5.086,126.692c8.739,12.338,17.118,12.226,17.118,12.226s-20.271,215.024-11.037,232.034
		C997.771,407.988,1018.153,387.041,1018.153,387.041z"/>
	<path fill="#C1C1C1" d="M1014.153,385.043l-1.987-192.446l-0.706-35.508c0,0,13.956-7.744,18.064-19.446
		c5.287-15.055,5.558-120.743,5.558-120.743c-0.813-4.858-1.775-6-3.861-5.903c-2.916,0.136-3.369,2.509-3.369,2.509l-5.047,65.345
		c0,0-0.616,8.847-5.302,8.847c-4.864,0-6.583-7.298-6.583-7.298l-2.047-67.576c0,0-0.688-5.536-5.662-5.521
		c-2.777,0.008-3.679,3.382-3.679,3.382l-2.236,69.911c0,0-3.325,7.247-7.146,6.992c-3.821-0.255-6.555-7.905-6.555-7.905
		l-3.58-65.575c0,0-0.363-5.113-3.646-5.113c-2.983,0-4.521,6.23-4.521,6.23s-3.97,109.61,5.087,126.692
		c7.195,13.575,16.146,16.452,16.146,16.452s-19.3,210.799-10.063,227.809C993.771,405.991,1014.153,385.043,1014.153,385.043z"/>
	<g>
		<path fill="#D6D6D6" d="M1005.808,181.753c-3.738,16.616-5.399,45.697-5.399,52.343s-5.034,36.707-5.815,52.344
			c-0.78,14.854-4.325,37.069-7.063,51.927c-1.563,9.382-0.854,20.112-1.246,29.495c0,4.691,0.221,12.684,3.738,16.201
			c3.908,4.69,9.359,3.94,12.097-1.531c3.52-6.646,5.022-15.963,5.768-23.395c1.246-12.462,0.416-19.109,0.831-32.816
			c0.371-12.271-1.245-65.223-0.831-80.178c0.176-6.302,1.197-39.44,0.415-45.696
			C1007.519,193.018,1007.954,172.217,1005.808,181.753z"/>
	</g>
	<g opacity="0.5">
		<path fill="#D6D6D6" d="M975.635,13.739c5.625-2.25,2.75,14.627,2.625,17.624c-0.375,9-0.375,21,0.75,29.25
			c0.75,4.875,2.25,9.75,3,15c0.75,4.125-0.375,9,3.375,11.25c8.999,4.875,10.874-7.875,12.374-13.875
			c2.25-10.125,4.5-19.875,5.625-30.375c0.75-8.625-0.75-16.875-0.375-25.499c0.375-7.125,3.75-5.625,4.5,0.375
			c0.75,5.249,0.375,10.874,0.375,16.124c0,10.875,0.75,21.375,0.75,32.25c0,7.125-2.625,22.125,7.125,22.125
			c11.625,0,12-12.375,12-21c0-2.25-1.5-54.374,4.5-52.874c2.625,0.75,0.75,25.124,0.75,29.249c0,12-2.25,23.625-2.625,35.625
			c-0.375,7.5-2.25,15-2.625,22.499c-0.375,8.625,2.625,17.25-2.625,25.5c-4.5,7.125-10.579,24.681-23.116,25.136
			c-4.694,0.171-7.293-0.91-10.94-4.33c-3.721-3.488-6.838-7.066-8.89-19.375c-0.79-4.737,4.697-28.056,0.947-30.68
			c-4.125-3.375,0.375-4.125-1.5-8.625c-3.375-9.75-4.875-22.875-6.75-33c-2.625-14.25,0-24.375-0.375-41.624"/>
	</g>
	<g>
		<g>
			<g>
				<path fill="#898989" d="M975.573,28.175c0.433,11.89,1.717,23.689,2.027,35.592c0.141,5.376,0.726,10.715,1.477,16.037
					c0.521,3.69,3.482,11.822,7.721,12.791c7.979,1.825,9.597-9.983,10.197-15.182c1.269-10.933,1.189-22.347,1.657-33.354
					c0.264-6.215,0.028-12.468,0.571-18.665c0.231-2.672,0.543-5.336,0.775-8.008c0.061-0.685,0.491-7.889,1.557-5.766
					c2.019,4.025,1.963,9.753,2.354,14.138c0.636,7.148,0.898,14.303,0.959,21.478c0.088,10.536,0.5,21.675,2.234,32.1
					c0.938,5.633,4.375,19.049,12.707,11.595c3.153-2.824,2.981-7.418,3.394-11.392c0.778-7.54,2.121-14.999,2.862-22.547
					c0.742-7.563,0.875-15.122,1.042-22.71c0.075-3.485,0.652-6.974,1.024-10.435c0.354-3.303-0.272-6.935,0.954-10.074
					c0.431-1.104,2.3,4.714,2.273,4.605c0.438,1.845,0.761,3.715,1.085,5.583c0.64,3.685,0.974,7.42,1.245,11.147
					c0.633,8.663,0.377,17.383,0.337,26.06c-0.072,15.949-1.567,31.745-3.185,47.598c-0.773,7.594-1.494,15.192-2.011,22.809
					c-0.518,7.655-5.503,13.916-10.683,19.147c-4.556,4.6-8.261,8.655-15.043,9.271c-8.835,0.803-16.503-5.011-21.604-11.668
					c-8.721-11.385-8.307-23.623-8.941-37.308c-0.391-8.387-0.263-16.698-0.053-25.087c0.213-8.466-0.624-16.887-0.451-25.334
					c0.131-6.38,0.559-12.71,0.5-19.098c-0.056-5.805-0.847-11.577-0.224-17.374c0.246-2.285,0.517-4.554,0.688-6.847
					c0.071-0.954,1.218-4.094,0.904-4.788C975.927,16.912,975.41,23.496,975.573,28.175c0.031,0.899,1.929,0.531,1.902-0.191
					c-0.043-1.252-0.396-20.256-4.199-17.12c-2.365,1.951-2.127,6.217-2.328,9.008c-0.536,7.417-0.484,14.361-0.292,21.816
					c0.199,7.653-0.537,15.264-0.538,22.911c-0.001,8.495,0.619,16.932,0.39,25.449c-0.37,13.671-0.611,27.979,1.356,41.549
					c2.623,18.083,25.247,40.261,42.705,24.59c4.105-3.687,8.047-7.752,11.295-12.216c4.117-5.658,4.766-11.547,5.289-18.328
					c1.224-15.812,3.313-31.542,4.292-47.375c0.932-15.048,1.1-30.484,0.001-45.527c-0.166-2.276-1.964-26.274-7.656-19.901
					c-2.584,2.892-1.37,9.438-1.745,12.926c-0.852,7.921-0.84,15.806-1.288,23.753c-0.432,7.624-1.329,15.217-2.517,22.757
					c-0.44,2.802-0.75,5.61-1.041,8.431c-0.103,0.988-0.229,1.972-0.358,2.957c-0.28,2.091-2.209,13.943-8.313,6.423
					c-3.091-3.806-3.612-10.589-4.081-15.336c-0.474-4.79-0.651-9.596-1.157-14.391c-1.409-13.404-0.462-26.949-2.025-40.383
					c-0.313-2.695-0.508-9.48-3.277-11.095c-1.813-1.058-2.91,1.136-3.334,2.467c-1.344,4.224-0.906,9.825-1.329,14.235
					c-0.644,6.712-0.354,13.529-0.64,20.268c-0.365,8.634-1.03,17.236-1.229,25.878c-0.094,4.078-0.596,8.084-1.243,12.108
					c-0.307,1.898-1.141,3.555-2.158,5.166c-2.99,4.732-6.734,0.16-8.529-2.624c-4.854-7.531-3.994-19.567-4.114-28.226
					c-0.14-10.093-1.563-20.091-1.931-30.172C977.443,27.083,975.548,27.453,975.573,28.175z"/>
			</g>
		</g>
		<g>
			<g>
				<path fill="#898989" d="M991.229,158.49c-0.677,12.164,0.414,24.23-1.248,36.341c-1.598,11.634-2.151,23.433-2.728,35.153
					c-1.295,26.365-2.374,52.683-4.173,79.024c-0.946,13.886-1.553,27.78-1.578,41.699c-0.021,10.729-1.966,21.965,2.238,32.194
					c2.896,7.045,10.046,11.433,17.266,7.957c8.665-4.17,11.131-16.424,11.042-24.961c-0.012-1.039-1.933-0.791-1.922,0.119
					c0.091,8.601-3.985,27.697-16.551,24.336c-11.313-3.025-10.804-20.459-10.506-29.354c0.8-23.957,1.646-47.785,3.32-71.707
					c1.563-22.321,1.938-44.688,3.181-67.022c0.554-9.933,1.206-19.897,2.641-29.749c1.646-11.298,0.308-22.786,0.938-34.151
					C993.209,157.337,991.28,157.576,991.229,158.49L991.229,158.49z"/>
			</g>
		</g>
	</g>
	<path d="M990.183,147.329c0,0,0.74-8.682,7.938-9.095c7.196-0.411,11.325,9.095,11.325,9.095s-5.229-1.487-11.171-1.487
		C992.331,145.842,990.183,147.329,990.183,147.329z"/>
	<g>
		<path fill="#82808C" d="M974.926,112.762c0.666-1.879,1.678-3.421,2.992-4.506c1.475-1.22,3.174-1.858,5.026-1.858
			c1.692-0.004,3.512,0.635,4.949,1.855c1.473,1.211,2.586,2.97,3.229,5.16c0.66-2.206,0.084-4.834-1.473-6.816
			c-1.552-1.998-4.072-3.303-6.787-3.277c-1.226,0.001-2.603,0.301-3.75,0.875c-1.166,0.575-2.188,1.405-2.961,2.4
			c-1.39,1.766-1.988,4.045-1.636,6.082L974.926,112.762z"/>
		<path fill="#FFFFFF" d="M990.487,116.041c0.408-1.017,0.635-2.131,0.635-3.301c0-4.725-3.68-8.555-8.221-8.555
			c-4.529,0-8.202,3.815-8.217,8.526L990.487,116.041z"/>
		<path d="M984.839,114.85c0.536-0.532,0.872-1.278,0.872-2.11c0-1.613-1.257-2.924-2.81-2.924c-1.551,0-2.81,1.311-2.81,2.924
			c0,0.413,0.084,0.804,0.231,1.16L984.839,114.85z"/>
		<circle fill="#FFFFFF" cx="984.438" cy="110.926" r="0.767"/>
	</g>
	<g>
		<path fill="#82808C" d="M1026.543,112.762c-0.666-1.879-1.678-3.421-2.992-4.506c-1.476-1.22-3.174-1.858-5.026-1.858
			c-1.693-0.004-3.513,0.635-4.949,1.855c-1.473,1.211-2.586,2.97-3.229,5.16c-0.66-2.206-0.084-4.834,1.473-6.816
			c1.551-1.998,4.072-3.303,6.787-3.277c1.225,0.001,2.603,0.301,3.75,0.875c1.166,0.575,2.188,1.405,2.961,2.4
			c1.39,1.766,1.988,4.045,1.635,6.082L1026.543,112.762z"/>
		<path fill="#FFFFFF" d="M1010.98,116.041c-0.409-1.017-0.637-2.131-0.637-3.301c0-4.725,3.681-8.555,8.222-8.555
			c4.528,0,8.203,3.815,8.217,8.526L1010.98,116.041z"/>
		<path d="M1016.631,114.85c-0.536-0.532-0.873-1.278-0.873-2.11c0-1.613,1.256-2.924,2.81-2.924c1.551,0,2.81,1.311,2.81,2.924
			c0,0.413-0.084,0.804-0.231,1.16L1016.631,114.85z"/>
		<circle fill="#FFFFFF" cx="1017.029" cy="110.926" r="0.767"/>
	</g>
</g>
<g>
	<path opacity="0.6" fill="#394747" enable-background="new    " d="M1137.928,386.686l-1.987-192.446l-0.707-35.508
		c0,0,13.115-8.074,18.064-19.446c15.396-35.37-3.443-120.743-3.443-120.743c-0.813-4.858-1.775-6-3.86-5.903
		c-2.916,0.136-3.37,2.509-3.37,2.509l3.954,65.345c0,0-0.616,8.847-5.302,8.847c-4.865,0-6.583-7.298-6.583-7.298l-2.048-67.576
		c0,0-0.688-5.536-5.661-5.521c-2.777,0.008-3.679,3.382-3.679,3.382l-2.236,69.911c0,0-3.376,7.663-7.146,6.992
		c-5.862-1.043-5.607-7.639-5.607-7.639l5.475-65.842c0,0-0.363-5.113-3.646-5.113c-2.983,0-4.521,6.23-4.521,6.23
		s-23.689,82.483-4.913,126.692c6.007,14.142,16.146,16.452,16.146,16.452s-19.301,210.797-10.065,227.807
		C1117.546,407.634,1137.928,386.686,1137.928,386.686z"/>
	<path fill="#C1C1C1" d="M1133.58,385.398l-1.987-192.445l-0.707-35.508c0,0,13.115-8.074,18.065-19.446
		c15.396-35.37-3.442-120.743-3.442-120.743c-0.813-4.858-1.776-6-3.86-5.903c-2.916,0.136-3.371,2.509-3.371,2.509l3.955,65.345
		c0,0-0.617,8.847-5.304,8.847c-4.864,0-6.582-7.298-6.582-7.298L1128.3,13.18c0,0-0.688-5.536-5.662-5.521
		c-2.776,0.008-3.679,3.382-3.679,3.382l-2.237,69.911c0,0-3.375,7.663-7.146,6.992c-5.86-1.043-5.606-7.639-5.606-7.639
		l5.476-65.842c0,0-0.365-5.113-3.647-5.113c-2.983,0-4.521,6.23-4.521,6.23s-23.689,82.483-4.914,126.692
		c6.007,14.142,16.146,16.452,16.146,16.452s-19.299,210.797-10.063,227.808C1113.197,406.348,1133.58,385.398,1133.58,385.398z"/>
	<g>
		<path fill="#D6D6D6" d="M1126.234,182.109c-3.738,16.616-5.4,45.698-5.4,52.342s-5.032,36.705-5.814,52.343
			c-0.781,14.854-4.324,37.071-7.063,51.929c-1.563,9.381-0.854,20.11-1.245,29.493c0,4.69,0.219,12.685,3.737,16.201
			c3.908,4.69,9.358,3.94,12.097-1.531c3.521-6.646,5.022-15.961,5.769-23.394c1.245-12.463,0.416-19.108,0.829-32.817
			c0.371-12.271-1.245-65.221-0.829-80.176c0.174-6.302,1.196-39.44,0.413-45.696
			C1127.945,193.375,1128.382,172.573,1126.234,182.109z"/>
	</g>
	<g opacity="0.5">
		<path fill="#D6D6D6" d="M1104.308,10.574c5.625-2.25,1.813,18.813,1.488,21.795c-1.908,17.577-4.261,23.362-3.136,31.612
			c0.75,4.875-1.698,12.613-0.948,17.863c0.75,4.125,0.349,4.231,4.383,5.917c8.658,3.617,11.322-5.068,12.822-11.068
			c2.25-10.125-1.079-24.174,0.046-34.674c0.75-8.625-0.27-20.678,0.105-29.302c0.375-7.125,3.283-3.346,4.033,2.654
			c0.75,5.249,1.168,11.842,1.168,17.092c0,10.875,0.956,21.611,0.956,32.486c0,7.125-0.794,22.396,8.956,22.396
			c11.625,0,12.364-12.383,12-21c-1.606-37.901-11.438-55.568-5.438-54.068c2.625,0.75,8.666,32.375,8.666,36.5
			c0,12,1.541,19,1.166,31c-0.375,7.5-4.019,13.568-4.394,21.067c-0.375,8.625,2.625,17.25-2.625,25.5
			c-4.5,7.125-10.58,24.681-23.115,25.136c-4.694,0.171-7.295-0.91-10.94-4.33c-3.722-3.488-6.838-7.066-8.892-19.375
			c-0.789-4.737,1.474-21.402,0.554-26.424c-0.961-5.243-0.756-8.212-2.631-12.712c-3.375-9.75-1.906-17.238-1.321-27.518
			c0.903-15.879,2.997-26.571,7.493-49.871"/>
	</g>
	<g>
		<g>
			<g>
				<path fill="#898989" d="M1107.494,27.576c-1.822,10.457-1.894,21.054-3.438,31.541c-0.604,4.11-1.107,8.207-1.388,12.354
					c-0.329,4.902-1.86,12.649,0.608,17.236c4.205,7.809,10.412,3.063,12.745-3.31c1.635-4.467,1.513-10.186,1.621-14.906
					c0.131-5.75,0.467-11.47,0.812-17.211c0.738-12.31,0.979-24.578,1.895-36.873c0.041-0.561,0.354-6.825,1.469-4.598
					c0.931,1.854,1.135,4.258,1.461,6.273c0.866,5.356,1.073,10.794,1.506,16.195c0.607,7.622,0.24,15.306,0.596,22.943
					c0.257,5.513,1.046,10.983,1.315,16.502c0.248,5.073,1.067,20.372,8.878,18.934c10.367-1.91,9.274-13.672,8.808-21.547
					c-0.748-12.584-2.174-25.142-3.412-37.684c-0.587-5.927-2.021-12.404-1.541-18.363c0.361-4.501,3.691,3.595,3.095,2.064
					c0.604,1.55,0.873,3.318,1.255,4.932c0.952,4.027,1.746,8.091,2.5,12.16c2.706,14.606,4.259,29.398,5.88,44.154
					c1.504,13.698,2.17,27.218-0.153,40.865c-1.239,7.286-3.073,14.648-6.286,21.324c-3.058,6.356-8.099,11.494-13.291,16.155
					c-6.229,5.589-15.429,3.877-21.979-0.088c-6.373-3.86-11.196-10.565-14.369-17.209c-6.037-12.641-6.051-29.591-5.728-43.27
					c0.244-10.41,1.873-20.744,3.191-31.054c0.943-7.384,1.503-14.883,2.918-22.195c1.432-7.389,3.354-15.123,5.619-22.299
					c0.439-1.395,0.991-2.755,1.514-4.121c0.718-1.88,2.062-6.023,3.452-2.541C1108.729,18.153,1108.177,23.225,1107.494,27.576
					c-0.134,0.853,1.786,0.552,1.902-0.191c0.188-1.19,1.43-19.829-3.86-16.332c-2.993,1.979-3.907,5.655-5.066,8.876
					c-1.884,5.233-2.78,10.849-4.21,16.22c-2.941,11.059-3.733,22.512-5.232,33.829c-1.993,15.04-3.003,29.622-1.955,44.772
					c0.928,13.406,3.571,24.911,11.834,35.698c6.466,8.44,16.832,12.929,27.24,10.097c3.438-0.936,6.082-3.545,8.544-5.965
					c4.722-4.642,8.61-9.324,11.499-15.327c5.658-11.765,7.301-26.268,7.373-39.178c0.072-13.263-1.939-26.597-3.488-39.741
					c-1.723-14.608-3.643-29.532-7.662-43.714c-1.625-5.733-7.207-5.021-6.875,0.819c0.729,12.782,2.392,25.578,3.662,38.316
					c0.586,5.881,1.048,11.775,1.397,17.676c0.245,4.123,0.138,8.193-0.47,12.276c-0.201,1.351-1.609,2.491-2.53,3.37
					c-1.776,1.883-4.047,2.284-6.811,1.202c-0.622-0.895-1.137-1.849-1.546-2.863c-1.857-4.158-2.378-9.664-2.655-14.199
					c-0.338-5.514-0.969-10.992-1.315-16.503c-0.822-13.081-0.228-26.113-2.102-39.137c-0.324-2.258-0.729-8.126-3.626-8.676
					c-2.392-0.453-2.798,3.295-2.976,4.761c-1.489,12.252-1.2,24.646-1.854,36.956c-0.305,5.757-0.774,11.504-0.916,17.269
					c-0.145,5.858-0.106,12.011-1.68,17.703c-1.021,3.695-4.885,8.175-8.398,3.632c-2.612-3.377-1.509-9.333-1.376-13.285
					c0.17-5.115,0.618-10.197,1.354-15.26c1.609-11.07,1.775-22.266,3.698-33.292C1109.545,26.539,1107.623,26.834,1107.494,27.576z
					"/>
			</g>
		</g>
		<g>
			<g>
				<path fill="#898989" d="M1110.656,158.847c-0.677,12.164,0.413,24.23-1.249,36.341c-1.598,11.634-2.15,23.434-2.728,35.153
					c-1.294,26.365-2.374,52.683-4.171,79.024c-0.947,13.886-1.555,27.781-1.58,41.699c-0.021,10.729-1.964,21.965,2.239,32.194
					c2.896,7.046,10.046,11.433,17.267,7.957c8.664-4.17,11.131-16.424,11.041-24.961c-0.011-1.039-1.933-0.791-1.922,0.119
					c0.09,8.603-3.986,27.696-16.552,24.336c-11.313-3.024-10.803-20.459-10.506-29.354c0.801-23.957,1.646-47.785,3.32-71.707
					c1.563-22.322,1.938-44.688,3.182-67.022c0.554-9.933,1.205-19.897,2.64-29.748c1.646-11.298,0.308-22.786,0.938-34.151
					C1112.636,157.694,1110.707,157.932,1110.656,158.847L1110.656,158.847z"/>
			</g>
		</g>
	</g>
	<g>
		<path fill="#82808C" d="M1108.726,140.826c0,0,1.082-6.482,8.451-5.596c11.082,1.332,11.998,5.625,11.998,5.625
			s-5.813-3.612-11.938-3.612S1108.726,140.826,1108.726,140.826z"/>
		<path d="M1108.933,140.006c0,0,0.765-4.983,8.185-5.22c7.418-0.236,11.675,5.22,11.675,5.22s-5.548-4.036-11.675-4.036
			S1108.933,140.006,1108.933,140.006z"/>
		<g>
			<path fill="#82808C" d="M1111.738,116.723c-0.406,2.083-1.996,3.981-4.113,4.931c-2.12,0.966-4.732,0.951-6.938-0.234
				c-0.996-0.526-1.993-1.362-2.684-2.322c-0.706-0.97-1.185-2.086-1.391-3.231c-0.424-2.286,0.23-4.68,1.715-6.196
				c-0.404,2.065-0.246,3.977,0.435,5.596c0.683,1.628,1.795,2.878,3.307,3.673c1.378,0.729,3.135,0.986,4.829,0.608
				C1108.617,119.193,1110.277,118.233,1111.738,116.723z"/>
			<path fill="#FFFFFF" d="M1098.33,109.672c-2.019,3.857-0.653,8.562,3.049,10.508c3.703,1.948,8.342,0.4,10.359-3.457
				L1098.33,109.672z"/>
			<path d="M1102.857,112.029c-0.688,1.318-0.224,2.925,1.043,3.591c1.264,0.666,2.85,0.137,3.539-1.182L1102.857,112.029z"/>
			<path fill="#FFFFFF" d="M1103.127,112.17c-0.182,0.346-0.047,0.774,0.298,0.956c0.347,0.182,0.772,0.049,0.952-0.297
				L1103.127,112.17z"/>
		</g>
		<g>
			<path fill="#82808C" d="M1129.072,116.505c1.569,1.396,3.299,2.227,5.039,2.454c1.719,0.25,3.448-0.141,4.771-0.971
				c1.446-0.907,2.463-2.236,3.021-3.911c0.557-1.667,0.568-3.585,0.009-5.614c1.595,1.399,2.43,3.738,2.179,6.049
				c-0.119,1.158-0.513,2.306-1.143,3.326c-0.615,1.009-1.546,1.918-2.501,2.518c-2.106,1.348-4.712,1.561-6.898,0.756
				C1131.363,120.324,1129.635,118.551,1129.072,116.505z"/>
			<path fill="#FFFFFF" d="M1141.91,108.463c2.306,3.693,1.297,8.488-2.246,10.709c-3.547,2.221-8.287,1.027-10.592-2.667
				L1141.91,108.463z"/>
			<path d="M1137.574,111.154c0.787,1.263,0.442,2.9-0.771,3.659c-1.211,0.76-2.831,0.351-3.617-0.91L1137.574,111.154z"/>
			<path fill="#FFFFFF" d="M1137.316,111.315c0.207,0.332,0.104,0.769-0.226,0.976s-0.769,0.107-0.974-0.223L1137.316,111.315z"/>
		</g>
	</g>
</g>
<g>
	<path opacity="0.6" fill="#394747" enable-background="new    " d="M1258.189,386.542l-1.988-192.446l-0.707-35.508
		c0,0,13.957-7.744,18.066-19.445c5.287-15.055,12.557-120.744,12.557-120.744c-0.813-4.857-1.776-6-3.86-5.902
		c-2.916,0.135-3.371,2.508-3.371,2.508l-12.045,65.346c0,0-0.617,8.846-5.304,8.846c-4.864,0-6.582-7.297-6.582-7.297
		l-2.047-67.576c0,0-0.688-5.537-5.662-5.521c-2.776,0.008-3.678,3.381-3.678,3.381l-2.238,69.912c0,0-3.323,7.246-7.146,6.992
		c-3.818-0.256-6.556-7.906-6.556-7.906l-9.577-65.574c0,0-0.365-5.113-3.648-5.113c-2.981,0-4.52,6.23-4.52,6.23
		s2.03,109.609,11.086,126.691c7.196,13.576,16.146,16.453,16.146,16.453s-19.301,210.797-10.063,227.809
		C1237.807,407.491,1258.189,386.542,1258.189,386.542z"/>
	<path fill="#BFBFBF" d="M1254.189,385.542l-1.988-192.446l-0.709-33.25c0,0,14.801-7.839,19.277-21.36
		c5.016-15.147,11.348-121.088,11.348-121.088c-0.813-4.857-1.776-6-3.86-5.902c-2.916,0.135-3.371,2.508-3.371,2.508
		l-12.045,65.346c0,0-0.617,8.846-5.304,8.846c-4.864,0-6.582-7.297-6.582-7.297l-2.047-67.576c0,0-0.688-5.537-5.662-5.521
		c-2.776,0.008-3.678,3.381-3.678,3.381l-2.238,69.912c0,0-3.323,7.246-7.146,6.992c-3.818-0.256-6.556-7.906-6.556-7.906
		l-9.577-65.574c0,0-0.365-5.113-3.648-5.113c-2.981,0-4.52,6.23-4.52,6.23s2.03,109.609,11.086,126.691
		c7.196,13.576,16.146,16.453,16.146,16.453s-19.301,210.797-10.063,227.807C1233.807,406.491,1254.189,385.542,1254.189,385.542z"
		/>
	<g opacity="0.5">
		<path fill="#D4D4D4" d="M1210.421,12.296c5.625-2.25,4.577,18.282,4.452,21.28c-0.375,9,1.599,20.452,2.724,28.702
			c0.75,4.875,1.477,8.112,2.227,13.362c0.75,4.125,1.849,9.473,5.599,11.723c8.998,4.875,10.873-7.875,12.373-13.875
			c2.25-10.125,1.938-21,3.063-31.5c0.75-8.625,0.367-16.861,0.742-25.485c0.375-7.125,3.703-6,4.453,0
			c0.75,5.25,1.238,12.07,1.238,17.32c0,10.875,1.379,21.665,1.379,32.54c0,7.125-2.625,22.125,7.125,22.125
			c11.625,0,9.971-12.617,12-21c4.733-19.561,4.238-57.172,9.684-54.202c2.396,1.307-1.902,26.598-2.475,30.682
			c-1.732,12.372-1.98,20.537-4.584,35.52c-1.285,7.398-2.25,15-2.625,22.498c-0.375,8.625,0.582,26.274-4.668,34.524
			c-4.5,7.125-8.537,15.658-21.072,16.113c-4.693,0.17-7.295-0.91-10.939-4.33c-3.723-3.488-6.84-7.066-8.893-19.375
			c-0.789-4.738,4.699-28.057,0.949-30.68c-4.125-3.375-2.957-5.231-4.832-9.731c-3.375-9.75-2.826-21.547-4.701-31.672
			c-2.625-14.25-3.09-24.567-3.465-41.817"/>
	</g>
	<g>
		<g>
			<g>
				<path fill="#878787" d="M1214.598,28.674c0.418,11.541,1.463,23.195,3.006,34.643c0.766,5.671,1.67,11.325,2.498,16.987
					c0.541,3.693,3.469,11.819,7.719,12.791c7.98,1.824,9.599-9.982,10.199-15.181c1.268-10.933,1.188-22.348,1.658-33.354
					c0.264-6.215,0.026-12.468,0.569-18.665c0.232-2.672,0.543-5.337,0.777-8.009c0.061-0.685,0.49-7.888,1.555-5.767
					c2.019,4.025,1.963,9.753,2.354,14.139c0.637,7.147,0.899,14.302,0.959,21.477c0.088,10.536,0.5,21.675,2.233,32.1
					c0.609,3.659,1.222,9.891,4.462,12.449c2.907,2.295,6.815,0.283,9.368-1.562c2.884-2.082,4.584-5.943,5.615-9.22
					c2.121-6.743,2.64-14.415,3.902-21.375c2.611-14.361,2.613-28.837,4.025-43.299c-0.002,0.025,1.78-5.25,3.073-2.392
					c0.822,1.817,0.359,4.297,0.379,6.26c0.035,3.55,0,7.1-0.065,10.65c-0.135,7.143-0.572,14.276-1.113,21.398
					c-1.223,16.129-2.77,32.234-4.02,48.362c-0.607,7.86-1.177,15.723-1.716,23.587c-0.248,3.618-0.272,7.298-1.006,10.857
					c-0.907,4.416-3.907,8.387-6.731,11.75c-3.775,4.496-8.857,10.329-14.511,12.321c-8.479,2.988-17.237-0.663-23.508-6.423
					c-10.711-9.843-12.1-22.973-12.498-36.62c-0.449-15.321-1.246-30.74-2.43-46.021c-0.588-7.621,0.11-15.151,0.28-22.77
					c0.152-6.767-0.748-13.529-0.536-20.284c0.139-4.519,0.604-9.501,1.647-13.913c0.359-1.523,0.531,0.515,0.617,0.856
					c0.26,1.048,0.371,2.141,0.514,3.209C1214.357,21.299,1214.471,25.009,1214.598,28.674c0.031,0.899,1.928,0.531,1.901-0.191
					c-0.043-1.251-0.396-20.257-4.198-17.12c-2.365,1.952-2.127,6.218-2.328,9.009c-0.535,7.417-0.484,14.361-0.291,21.816
					c0.199,7.653-0.537,15.264-0.539,22.911c0,7.858,1.008,15.787,1.377,23.642c0.672,14.327,0.309,29.152,2.369,43.356
					c1.672,11.523,9.35,21.804,19.444,27.345c7.146,3.921,17.601,3.2,23.861-2.161c4.223-3.614,8.521-7.678,11.789-12.188
					c4.352-5.997,5.338-11.328,5.824-18.623c1.1-16.41,2.381-32.807,3.762-49.195c1.246-14.803,2.748-29.588,3.18-44.444
					c0.063-2.103,2.226-24.814-4.235-20.188c-3.039,2.175-2.91,5.036-2.998,8.481c-0.195,7.535-1.086,15.265-1.638,22.793
					c-0.536,7.336-1.957,14.604-3.307,21.824c-1.213,6.499-1.436,13.904-4.51,19.854c-1.752,3.39-7.527,9.68-11.141,4.01
					c-1.664-2.612-2.058-6.06-2.673-9.032c-0.858-4.156-0.897-8.337-1.18-12.551c-0.91-13.661-1.1-27.356-2.146-41.014
					c-0.166-2.159-1.104-21.233-6.239-17.226c-2.185,1.704-1.463,7.146-1.674,9.555c-0.548,6.243-0.904,12.331-1.025,18.601
					c-0.187,9.562-1.098,19.083-1.387,28.636c-0.129,4.306-0.146,8.582-0.642,12.867c-0.438,3.774-3.082,17.703-9.576,10.09
					c-4.073-4.774-4.524-10.687-5.407-16.604c-0.611-4.09-1.234-8.178-1.771-12.279c-1.385-10.625-2.317-21.462-2.707-32.165
					C1216.469,27.583,1214.57,27.952,1214.598,28.674z"/>
			</g>
		</g>
		<g>
			<g>
				<path fill="#878787" d="M1232.255,158.99c-0.677,12.164,0.413,24.231-1.248,36.342c-1.597,11.634-2.152,23.436-2.729,35.154
					c-1.293,26.365-2.373,52.682-4.172,79.022c-0.947,13.888-1.553,27.782-1.578,41.7c-0.021,10.729-1.965,21.966,2.24,32.195
					c2.896,7.045,10.045,11.433,17.264,7.957c8.666-4.17,11.133-16.426,11.043-24.961c-0.012-1.039-1.932-0.791-1.922,0.117
					c0.088,8.604-3.986,27.697-16.551,24.336c-11.313-3.025-10.803-20.459-10.506-29.354c0.799-23.957,1.645-47.784,3.319-71.709
					c1.563-22.318,1.938-44.686,3.183-67.021c0.553-9.932,1.205-19.897,2.639-29.749c1.646-11.299,0.307-22.787,0.939-34.152
					C1234.234,157.837,1232.305,158.075,1232.255,158.99L1232.255,158.99z"/>
			</g>
		</g>
	</g>
	<g>
		<path fill="#D4D4D4" d="M1247.844,182.251c-3.738,16.618-5.4,45.699-5.4,52.345s-5.033,36.705-5.815,52.342
			c-0.781,14.854-4.324,37.072-7.062,51.929c-1.563,9.381-0.854,20.11-1.246,29.493c0,4.691,0.219,12.685,3.738,16.201
			c3.908,4.691,9.358,3.941,12.096-1.531c3.521-6.646,5.023-15.961,5.769-23.393c1.245-12.463,0.416-19.109,0.829-32.818
			c0.371-12.27-1.245-65.221-0.829-80.176c0.174-6.301,1.196-39.44,0.413-45.697
			C1249.555,193.518,1249.988,172.717,1247.844,182.251z"/>
	</g>
	<path d="M1220.729,126.065h45.396c0,0,0.948,24.138-24.146,24.138S1220.729,126.065,1220.729,126.065z"/>
	<g>
		<g>
			<path fill="#82808C" d="M1234.262,104.411c0.934,2.104,0.696,4.783-0.595,6.947c-1.284,2.179-3.62,3.794-6.315,4.114
				c-1.213,0.154-2.619,0.032-3.83-0.392c-1.229-0.422-2.348-1.115-3.242-2.005c-1.799-1.768-2.701-4.304-2.321-6.575
				c0.92,2.088,2.25,3.688,3.86,4.703c1.617,1.022,3.385,1.439,5.224,1.204c1.68-0.211,3.399-1.075,4.674-2.468
				C1233.02,108.55,1233.9,106.664,1234.262,104.411z"/>
			<g>
				<path fill="#FFFFFF" d="M1219.968,99.705c-1.537,1.779-2.34,4.224-2.013,6.796c0.603,4.686,4.736,8.017,9.24,7.439
					c4.504-0.577,7.666-4.842,7.064-9.529L1219.968,99.705z"/>
				
					<ellipse transform="matrix(-0.9919 0.1272 -0.1272 -0.9919 2455.6794 53.905)" cx="1226.118" cy="105.39" rx="2.807" ry="2.923"/>
			</g>
		</g>
		<circle fill="#FFFFFF" cx="1224.354" cy="103.852" r="0.767"/>
	</g>
	<g>
		<path fill="#82808C" d="M1251.707,104.335c0.341,2.256,1.201,4.15,2.494,5.553c1.259,1.405,2.974,2.285,4.648,2.513
			c1.836,0.253,3.607-0.147,5.234-1.154c1.62-1,2.965-2.587,3.905-4.667c0.355,2.276-0.571,4.803-2.387,6.553
			c-0.902,0.881-2.027,1.563-3.262,1.974c-1.213,0.413-2.621,0.521-3.832,0.355c-2.693-0.345-5.013-1.983-6.277-4.174
			C1250.964,109.113,1250.752,106.431,1251.707,104.335z"/>
		<path fill="#FFFFFF" d="M1266.046,99.765c1.52,1.793,2.303,4.247,1.946,6.815c-0.646,4.681-4.813,7.971-9.313,7.351
			s-7.619-4.915-6.975-9.596L1266.046,99.765z"/>
		<g>
			
				<ellipse transform="matrix(-0.9906 -0.1366 0.1366 -0.9906 2493.3164 381.955)" cx="1259.766" cy="105.414" rx="2.809" ry="2.923"/>
			<circle fill="#FFFFFF" cx="1258.576" cy="103.451" r="0.767"/>
		</g>
	</g>
</g>
<g>
	<path opacity="0.6" fill="#394747" d="M1377.807,388.029l-1.988-192.446l-0.707-35.507c0,0,13.116-8.074,18.066-19.446
		c15.395-35.371-3.443-120.743-3.443-120.743c-0.813-4.858-1.777-6-3.861-5.904c-2.916,0.136-3.371,2.509-3.371,2.509l3.955,65.345
		c0,0-0.617,8.847-5.303,8.847c-4.865,0-6.582-7.298-6.582-7.298l-2.047-67.576c0,0-0.688-5.536-5.662-5.521
		c-2.777,0.008-3.678,3.382-3.678,3.382l-2.238,69.911c0,0-3.375,7.663-7.146,6.992c-5.861-1.042-5.607-7.639-5.607-7.639
		l5.475-65.842c0,0-0.365-5.113-3.648-5.113c-2.984,0-4.521,6.23-4.521,6.23s-23.689,82.483-4.914,126.692
		c6.007,14.143,16.146,16.452,16.146,16.452s-19.299,210.798-10.064,227.808C1357.425,408.979,1377.807,388.029,1377.807,388.029z"
		/>
	<path fill="#C1C1C1" d="M1375.459,384.742l-1.987-192.446l-0.707-35.507c0,0,13.115-8.075,18.065-19.447
		c15.396-35.37-3.443-120.743-3.443-120.743c-0.813-4.858-1.776-6-3.861-5.903c-2.916,0.135-3.37,2.509-3.37,2.509l3.954,65.344
		c0,0-0.617,8.847-5.302,8.847c-4.865,0-6.583-7.298-6.583-7.298l-2.047-67.576c0,0-0.688-5.536-5.662-5.522
		c-2.777,0.008-3.678,3.382-3.678,3.382l-2.237,69.911c0,0-3.376,7.663-7.146,6.992c-5.862-1.043-5.608-7.638-5.608-7.638
		l5.475-65.842c0,0-0.364-5.113-3.647-5.113c-2.984,0-4.521,6.23-4.521,6.23s-23.69,82.484-4.914,126.692
		c6.006,14.142,16.146,16.452,16.146,16.452s-19.3,210.798-10.065,227.806C1355.076,405.691,1375.459,384.742,1375.459,384.742z"/>
	<g>
		<path fill="#D6D6D6" d="M1368.114,181.453c-3.739,16.616-5.4,45.697-5.4,52.342c0,6.646-5.034,36.707-5.816,52.344
			c-0.781,14.855-4.325,37.07-7.062,51.926c-1.563,9.383-0.855,20.113-1.246,29.496c0,4.691,0.22,12.682,3.738,16.201
			c3.909,4.691,9.36,3.941,12.097-1.531c3.519-6.646,5.023-15.963,5.767-23.395c1.246-12.463,0.416-19.109,0.831-32.816
			c0.371-12.271-1.246-65.223-0.831-80.178c0.175-6.301,1.197-39.441,0.415-45.696
			C1369.825,192.718,1370.26,171.916,1368.114,181.453z"/>
	</g>
	<g opacity="0.5">
		<path fill="#D6D6D6" d="M1347.188,10.917c5.625-2.25,1.811,18.813,1.487,21.795c-1.907,17.577-4.259,23.362-3.134,31.612
			c0.75,4.875-1.7,12.612-0.95,17.862c0.75,4.125,0.349,4.232,4.384,5.917c8.657,3.617,11.321-5.068,12.821-11.068
			c2.25-10.125-1.079-24.174,0.046-34.674c0.75-8.625-0.269-20.677,0.106-29.301c0.375-7.125,3.284-3.346,4.034,2.654
			c0.75,5.25,1.168,11.842,1.168,17.092c0,10.875,0.955,21.611,0.955,32.486c0,7.125-0.793,22.395,8.957,22.395
			c11.625,0,12.365-12.383,12-21c-1.607-37.902-11.439-55.568-5.439-54.068c2.625,0.75,8.666,32.375,8.666,36.5
			c0,12,1.541,19,1.166,31c-0.375,7.5-4.018,13.568-4.393,21.068c-0.375,8.625,2.625,17.25-2.625,25.5
			c-4.5,7.125-10.58,24.68-23.116,25.135c-4.695,0.171-7.294-0.91-10.941-4.33c-3.721-3.488-6.838-7.066-8.89-19.375
			c-0.79-4.737,1.472-21.402,0.553-26.424c-0.961-5.243-0.756-8.212-2.631-12.712c-3.375-9.75-1.907-17.238-1.322-27.519
			c0.904-15.879,2.998-26.57,7.494-49.871"/>
	</g>
	<g>
		<g>
			<g>
				<path fill="#898989" d="M1349.374,26.919c-1.824,10.457-1.893,21.054-3.438,31.541c-0.606,4.11-1.109,8.207-1.388,12.354
					c-0.33,4.903-1.861,12.648,0.608,17.236c4.204,7.81,10.414,3.062,12.746-3.31c1.635-4.467,1.514-10.186,1.621-14.906
					c0.131-5.75,0.467-11.47,0.811-17.21c0.738-12.311,0.977-24.579,1.893-36.874c0.041-0.561,0.353-6.827,1.47-4.598
					c0.93,1.854,1.135,4.259,1.461,6.273c0.866,5.356,1.072,10.794,1.504,16.194c0.609,7.622,0.241,15.307,0.596,22.943
					c0.257,5.513,1.047,10.983,1.317,16.502c0.248,5.073,1.068,20.373,8.877,18.934c10.367-1.91,9.274-13.672,8.807-21.547
					c-0.748-12.584-2.173-25.142-3.412-37.684c-0.586-5.927-2.021-12.404-1.541-18.363c0.362-4.5,3.692,3.595,3.095,2.064
					c0.605,1.55,0.873,3.318,1.255,4.932c0.952,4.027,1.746,8.092,2.5,12.16c2.705,14.606,4.258,29.398,5.878,44.154
					c1.504,13.698,2.17,27.218-0.153,40.865c-1.24,7.286-3.074,14.648-6.286,21.324c-3.058,6.356-8.099,11.494-13.292,16.155
					c-6.226,5.589-15.428,3.877-21.975-0.087c-6.375-3.859-11.198-10.566-14.371-17.21c-6.038-12.641-6.051-29.591-5.728-43.27
					c0.246-10.41,1.874-20.744,3.192-31.054c0.945-7.384,1.505-14.882,2.919-22.194c1.43-7.389,3.354-15.123,5.619-22.299
					c0.44-1.395,0.992-2.755,1.513-4.121c0.718-1.881,2.061-6.024,3.453-2.542C1350.607,17.496,1350.055,22.568,1349.374,26.919
					c-0.134,0.853,1.786,0.551,1.902-0.191c0.187-1.188,1.428-19.831-3.86-16.333c-2.993,1.98-3.908,5.655-5.067,8.877
					c-1.883,5.232-2.781,10.849-4.21,16.219c-2.942,11.06-3.734,22.512-5.233,33.829c-1.993,15.04-3.004,29.622-1.956,44.772
					c0.929,13.407,3.572,24.911,11.835,35.699c6.465,8.441,16.831,12.928,27.239,10.097c3.439-0.936,6.082-3.544,8.544-5.964
					c4.723-4.642,8.611-9.324,11.499-15.327c5.659-11.766,7.301-26.269,7.373-39.179c0.074-13.263-1.938-26.598-3.488-39.742
					c-1.722-14.607-3.639-29.533-7.661-43.713c-1.626-5.732-7.207-5.021-6.875,0.818c0.729,12.782,2.391,25.578,3.661,38.317
					c0.587,5.881,1.048,11.775,1.398,17.675c0.245,4.123,0.137,8.192-0.47,12.276c-0.201,1.351-1.609,2.491-2.53,3.37
					c-1.777,1.883-4.047,2.284-6.809,1.202c-0.622-0.895-1.137-1.849-1.546-2.863c-1.857-4.158-2.378-9.664-2.655-14.199
					c-0.338-5.514-0.97-10.992-1.317-16.503c-0.823-13.081-0.227-26.113-2.1-39.137c-0.325-2.258-0.729-8.126-3.627-8.675
					c-2.392-0.453-2.798,3.294-2.976,4.761c-1.49,12.253-1.2,24.646-1.852,36.956c-0.304,5.757-0.774,11.504-0.916,17.268
					c-0.144,5.859-0.107,12.011-1.679,17.703c-1.02,3.695-4.886,8.176-8.399,3.632c-2.612-3.377-1.509-9.333-1.377-13.285
					c0.17-5.115,0.618-10.197,1.355-15.26c1.61-11.07,1.775-22.265,3.698-33.292C1351.424,25.882,1349.503,26.177,1349.374,26.919z"
					/>
			</g>
		</g>
		<g>
			<g>
				<path fill="#898989" d="M1352.535,158.19c-0.676,12.164,0.414,24.23-1.248,36.341c-1.597,11.634-2.151,23.434-2.727,35.153
					c-1.294,26.365-2.374,52.683-4.172,79.024c-0.947,13.886-1.553,27.781-1.579,41.7c-0.021,10.729-1.965,21.965,2.239,32.195
					c2.896,7.045,10.046,11.433,17.265,7.957c8.665-4.171,11.131-16.424,11.042-24.961c-0.011-1.04-1.932-0.791-1.922,0.119
					c0.09,8.601-3.986,27.697-16.55,24.337c-11.313-3.026-10.804-20.461-10.506-29.356c0.8-23.957,1.645-47.785,3.32-71.707
					c1.563-22.321,1.938-44.687,3.181-67.023c0.553-9.932,1.206-19.898,2.64-29.748c1.645-11.298,0.307-22.786,0.938-34.151
					C1354.514,157.037,1352.586,157.276,1352.535,158.19L1352.535,158.19z"/>
			</g>
		</g>
	</g>
	<g>
		<g>
			<ellipse fill="#89878A" cx="1365.115" cy="144.029" rx="3.964" ry="4.125"/>
			<ellipse cx="1365.114" cy="144.168" rx="3.021" ry="3.146"/>
		</g>
		<g>
			<path fill="#89878A" d="M1379.617,117.807c-3.957,1.151-7.912-0.088-9.722-2.792l-0.277,0.081
				c1.11,3.814,4.283,6.819,10.654,4.963c6.045-1.76,7.435-6.092,6.324-9.906l-0.277,0.081
				C1386.243,113.485,1383.571,116.655,1379.617,117.807z"/>
			<path fill="none" stroke="#000000" stroke-width="1.0667" stroke-linecap="round" stroke-miterlimit="10" d="M1385.857,109.602
				c0.976,3.353-1.786,7.106-6.171,8.383c-4.384,1.276-8.729-0.408-9.705-3.761"/>
		</g>
		<g>
			<path fill="#89878A" d="M1347.862,117.807c3.957,1.151,7.912-0.088,9.723-2.792l0.277,0.081
				c-1.111,3.814-4.283,6.819-10.655,4.963c-6.045-1.76-7.435-6.092-6.323-9.906l0.277,0.081
				C1341.236,113.485,1343.908,116.655,1347.862,117.807z"/>
			<path fill="none" stroke="#000000" stroke-width="1.0667" stroke-linecap="round" stroke-miterlimit="10" d="M1341.622,109.602
				c-0.976,3.353,1.787,7.106,6.171,8.383s8.729-0.408,9.706-3.761"/>
		</g>
	</g>
</g>
</svg>
