<?xml version="1.0" encoding="utf-8"?>
<!-- Generator: Adobe Illustrator 16.0.3, SVG Export Plug-In . SVG Version: 6.00 Build 0)  -->
<!DOCTYPE svg PUBLIC "-//W3C//DTD SVG 1.1//EN" "http://www.w3.org/Graphics/SVG/1.1/DTD/svg11.dtd">
<svg version="1.1" id="Layer_2" xmlns="http://www.w3.org/2000/svg" xmlns:xlink="http://www.w3.org/1999/xlink" x="0px" y="0px"
	 width="450px" height="1000px" viewBox="0 0 450 1000" enable-background="new 0 0 450 1000" xml:space="preserve">
<g>
	<g>
		<path fill="#FDC872" d="M155.059,300.355c-17.901-26.935-17.383-45.173-8.831-50.071c20.021-11.464,144.631,5.073,153.159-18.071
			c13.397-32.2-12.181-49.306-47.504-56.35c-28.015-7.044-138.601-10.655-161.742,6.451c-23.142,18.113-25.578,55.344,9.744,62.386
			c15.833,3.019,7.763,0.011,21.16,4.035C136.879,253.767,134.025,284.908,155.059,300.355z"/>
	</g>
	<g>
		<path d="M96.543,189.398h2.318v15.735h-2.048v-7.114h-2.859v7.114h-2.093v-15.465h2.229v6.528l2.432-0.113L96.543,189.398z"/>
		<path d="M108.901,203.219v1.914h-6.798l0.337-10.243l0.113-0.067v-5.313h6.348v2.094h-4.187l-0.203,5.267l0.112,0.045h3.917v1.688
			h-4.075l-0.09,1.351l0.044,0.135l-0.044,0.27v2.927L108.901,203.219z"/>
		<path d="M113.605,189.758l2.656,5.47l2.904-5.47h0.315l1.913,0.225l-2.003,3.849l-1.981,3.174v8.126h-2.318v-8.06l-3.489-7.315
			L113.605,189.758L113.605,189.758z"/>
		<path d="M124.432,202.139h1.44l0.09,0.045l0.09-0.045l0.045,0.045h1.306v1.283l-0.518,1.328l-0.203,0.293l-0.721,0.743
			l-0.698,0.563l-0.63,0.09h-0.45l-0.09-0.225l0.045-0.27l0.18-0.338l0.203-0.608l-0.045-0.09l0.09-0.518l-0.135-0.382h0.045v-0.225
			l-0.045-0.045L124.432,202.139L124.432,202.139z"/>
		<path d="M136.948,205.133l-0.045-0.765l0.045-0.045l-0.045-0.135l0.045-0.091v-8.441l-0.045-0.203l0.045-0.067v-3.692
			l-0.045-0.112l0.045-0.023v-1.373h4.299l0.09,0.045h1.238c1.216,0,2.499,2.048,2.499,2.926v9.679c0,0.833-1.351,2.297-2.341,2.297
			H136.948z M139.378,192.707l-0.067,0.045h-0.315v1.463l0.09,0.09h-0.045v0.382l0.045,0.045l-0.045,0.023l0.113,0.112v5.627
			l0.044,0.091v2.07l0.113,0.135h2.25l0.045-0.045h0.518l0.833-0.315h0.113v-4.458h-0.045l0.045-0.044l-0.158-0.225v-4.097
			l-0.135-0.518l-0.788-0.383h-2.611V192.707z"/>
		<path d="M154.55,203.219v1.914h-6.798l0.337-10.243l0.113-0.067v-5.313h6.348v2.094h-4.187l-0.202,5.267l0.112,0.045h3.917v1.688
			h-4.074l-0.09,1.351l0.044,0.135l-0.044,0.27v2.927L154.55,203.219z"/>
		<path d="M157.408,189.916l2.408-0.271v8.374l-0.135,0.068v6.933l-1.463,0.113h-0.968L157.408,189.916z"/>
		<path d="M164.567,205.156h-0.946l-0.045-0.045h-0.878v-15.083l-0.18-0.135l0.203-0.135h1.688l0.09-0.09h1.17l2.904,8.239v-8.194
			l1.621-0.203h0.428l0.022,0.271c0,0.022,0,0.044-0.022,0.067h0.18v8.532l0.045,0.045l-0.045,0.045l0.045,0.022l-0.045,0.045
			l0.045,0.067v6.438h-1.081l-0.27-0.045l-0.135,0.045h-0.923l-3.872-10.895L164.567,205.156L164.567,205.156z"/>
		<path d="M187.121,203.219v1.914h-6.798l0.337-10.243l0.113-0.067v-5.313h6.348v2.094h-4.188l-0.202,5.267l0.112,0.045h3.917v1.688
			h-4.075l-0.09,1.351l0.045,0.135l-0.045,0.27v2.927L187.121,203.219z"/>
		<path d="M196.441,198.087c0-0.563-0.676-0.698-1.216-0.743h-3.039c-1.733,0-2.229-1.125-2.229-1.62v-3.242
			c0-2.071,2.431-3.039,2.431-3.039h5.695v2.115h-4.817c-0.427,0-0.967,0.383-0.967,1.396v2.364h3.962
			c1.238,0,2.206,0.945,2.206,1.846v6.01c0,0.676-0.473,1.959-2.048,1.959h-6.371v-2.094h5.313c0.225,0,1.125-0.292,1.125-0.833
			L196.441,198.087z"/>
		<path d="M208.123,198.087c0-0.563-0.675-0.698-1.216-0.743h-3.04c-1.733,0-2.228-1.125-2.228-1.62v-3.242
			c0-2.071,2.431-3.039,2.431-3.039h5.696v2.115h-4.817c-0.428,0-0.968,0.383-0.968,1.396v2.364h3.962
			c1.238,0,2.206,0.945,2.206,1.846v6.01c0,0.676-0.473,1.959-2.048,1.959h-6.371v-2.094h5.313c0.225,0,1.125-0.292,1.125-0.833
			L208.123,198.087z"/>
		<path d="M219.963,203.219v1.914h-6.798l0.338-10.243l0.112-0.067v-5.313h6.348v2.094h-4.187l-0.203,5.267l0.113,0.045h3.917v1.688
			h-4.074l-0.09,1.351l0.045,0.135l-0.045,0.27v2.927L219.963,203.219z"/>
		<path d="M224.713,205.156h-0.945l-0.045-0.045h-0.878v-15.083l-0.18-0.135l0.203-0.135h1.688l0.09-0.09h1.17l2.904,8.239v-8.194
			l1.621-0.203h0.428l0.022,0.271c0,0.022,0,0.044-0.022,0.067h0.181v8.532l0.046,0.045l-0.046,0.045l0.046,0.022l-0.046,0.045
			l0.046,0.067v6.438h-1.081l-0.271-0.045l-0.136,0.045h-0.923l-3.872-10.895L224.713,205.156L224.713,205.156z"/>
		<path d="M247.109,198.087c0-0.563-0.674-0.698-1.215-0.743h-3.039c-1.732,0-2.229-1.125-2.229-1.62v-3.242
			c0-2.071,2.432-3.039,2.432-3.039h5.695v2.115h-4.818c-0.428,0-0.968,0.383-0.968,1.396v2.364h3.962
			c1.238,0,2.207,0.945,2.207,1.846v6.01c0,0.676-0.473,1.959-2.05,1.959h-6.371v-2.094h5.313c0.225,0,1.125-0.292,1.125-0.833
			L247.109,198.087z"/>
		<path d="M262.553,201.418l-0.09,0.945c0,1.847-1.352,2.702-2.161,2.702h-2.544l-0.045,0.09l-0.045-0.045l-0.09,0.045h-3.67
			c-0.924,0-1.733-1.531-1.733-2.206v-9.973c0-2.206,1.306-2.994,2.05-2.994h0.428l0.765-0.18l0.045,0.045l2.117-0.338h1.216
			c1.352,0,3.264,0.946,3.264,3.063h0.045v0.585L262.553,201.418z M259.807,192.279l-1.396-0.833l-0.181,0.135h-1.959l-0.09,0.045
			l-0.022-0.045l-0.045,0.045h-0.45v-0.045h-0.046l-1.013,0.833v1.666l0.045,0.023l-0.045,0.045l0.112,0.18v3.872l0.046,0.022
			l-0.046,0.067l0.046,0.09l-0.046,0.045l0.157,0.563v3.691l0.045,0.045v0.226l0.113,0.247l0.472,0.36h0.608l0.111-0.067h2.049
			l-0.18-0.248l0.607-0.09l0.045,0.293h0.697l0.474-0.608l0.248-0.473L259.807,192.279z"/>
		<path d="M267.641,202.994h5.199l-0.111,2.139h-7.361v-15.78h2.251v12.831L267.641,202.994z"/>
		<path d="M277.816,202.994h5.199l-0.113,2.139h-7.36v-15.78h2.251v12.831L277.816,202.994z"/>
		<path d="M104.691,216.568l2.521,0.314v0.203l0.045,0.067l1.644,14.43l0.045,0.09l-0.293,0.472h-0.315l-0.045,0.045l-0.045-0.045
			l-0.225,0.045h-1.463l-0.855-7h-1.396l-0.135-0.09h-2.229l-0.09,0.09l-1.688,6.798l0.09,0.045h-2.138l-0.135,0.112h-0.608
			l4.209-15.42h2.499l0.067-0.18L104.691,216.568z M104.578,219.404l-0.045,0.045h-1.283l-0.067-0.045l-0.878,3.557v0.405h3.174
			l-0.406-2.611l-0.067-1.013l-0.045-0.022l0.045-0.045l-0.09-0.113v-0.158H104.578z"/>
		<path d="M111.084,216.77h2.139v11.661c0,0.675,0.676,1.148,1.081,1.148h2.499c0.36,0,0.607-0.518,0.675-1.036v-11.75h2.273v13.574
			c0,0.766-1.103,1.688-1.823,1.778h-4.998c-0.968,0-1.846-0.81-1.846-2.318v-3.624V216.77L111.084,216.77z"/>
		<path d="M130.577,216.68v2.048l-4.006,0.271c-1.059,0-1.644,0.608-1.644,0.945v3.625l0.112,0.09v4.772
			c0,1.013,0.721,1.396,1.171,1.396h4.457v2.318h-5.538c-0.72,0-2.476-0.855-2.476-2.183v-3.084l-0.09-0.09l0.045-0.045
			l-0.045-0.067l0.045-0.022l-0.045-0.135v-5.763l-0.112-0.067h0.045l-0.045-0.09v-1.418c0-1.013,1.599-2.139,2.139-2.139
			l1.981-0.247h1.261l0.09-0.113h2.655V216.68z"/>
		<path d="M138.433,216.41h2.319v15.735h-2.048v-7.113h-2.859v7.113h-2.093V216.68h2.229v6.528l2.431-0.112L138.433,216.41z"/>
		<path d="M157.431,225.099c0-0.563-0.675-0.698-1.215-0.743h-3.039c-1.733,0-2.229-1.126-2.229-1.621v-3.242
			c0-2.071,2.431-3.039,2.431-3.039h5.695v2.115h-4.817c-0.428,0-0.968,0.383-0.968,1.396v2.363h3.962
			c1.238,0,2.207,0.946,2.207,1.847v6.01c0,0.676-0.473,1.958-2.049,1.958h-6.37v-2.093h5.312c0.225,0,1.125-0.292,1.125-0.833
			L157.431,225.099z"/>
		<path d="M170.622,216.68v2.048l-4.007,0.271c-1.058,0-1.644,0.608-1.644,0.945v3.625l0.113,0.09v4.772
			c0,1.013,0.72,1.396,1.17,1.396h4.457v2.318h-5.538c-0.72,0-2.477-0.855-2.477-2.183v-3.084l-0.09-0.09l0.045-0.045l-0.045-0.067
			l0.045-0.022l-0.045-0.135v-5.763l-0.113-0.067h0.045l-0.045-0.09v-1.418c0-1.013,1.599-2.139,2.139-2.139l1.981-0.247h1.26
			l0.09-0.113h2.659V216.68z"/>
		<path d="M178.477,216.41h2.319v15.735h-2.049v-7.113h-2.859v7.113h-2.093V216.68h2.229v6.528l2.431-0.112L178.477,216.41z"/>
		<path d="M196.305,231.898h-0.743l-0.27-0.045l-0.315,0.045h-0.855v-6.596l-0.045-0.225v-4.39l-2.476,3.039l-0.022,0.09
			l-1.778,2.071l-3.354-5.245v11.57l-0.067-0.045l-0.09,0.045l-0.45-0.135l-0.068,0.09l-1.44-0.09l-0.135-0.045v-2.701l0.045-0.045
			l-0.045-0.067v-9.973l-0.135-0.292v-2.319h0.226l0.337-0.112h1.914l3.332,5.425l2.251-3.264h0.068l1.733-2.476h2.386v15.69
			H196.305z"/>
		<path d="M205.939,230.232v1.913h-6.798l0.338-10.242l0.113-0.067v-5.313h6.348v2.093h-4.187l-0.203,5.268l0.113,0.045h3.917v1.688
			h-4.074l-0.09,1.35l0.045,0.135l-0.045,0.27v2.927L205.939,230.232z"/>
		<path d="M216.766,216.68v2.048l-4.006,0.271c-1.058,0-1.644,0.608-1.644,0.945v3.625l0.113,0.09v4.772
			c0,1.013,0.72,1.396,1.17,1.396h4.457v2.318h-5.538c-0.72,0-2.477-0.855-2.477-2.183v-3.084l-0.09-0.09l0.045-0.045l-0.045-0.067
			l0.045-0.022l-0.045-0.135v-5.763l-0.112-0.067h0.045l-0.045-0.09v-1.418c0-1.013,1.599-2.139,2.139-2.139l1.981-0.247h1.26
			l0.09-0.113h2.657V216.68z"/>
		<path d="M221.763,216.927c0.067,0.112,0.27,0.315,0.27,0.338v5.2l5.447-5.268h2.994l-5.649,5.538l4.368,9.454h-2.657l-0.54-1.395
			l-2.386-5.178h-1.553v6.573h-2.387v-15.262H221.763z"/>
		<path d="M239.952,230.232v1.913h-6.8l0.339-10.242l0.112-0.067v-5.313h6.349v2.093h-4.188l-0.203,5.268l0.113,0.045h3.917v1.688
			h-4.075l-0.09,1.35l0.045,0.135l-0.045,0.27v2.927L239.952,230.232z"/>
		<path d="M244.702,232.167h-0.946l-0.045-0.045h-0.878V217.04l-0.181-0.135l0.203-0.135h1.688l0.09-0.09h1.172l2.903,8.239v-8.194
			l1.621-0.202h0.427l0.021,0.27c0,0.022,0,0.044-0.021,0.067h0.182v8.532l0.045,0.045l-0.045,0.044l0.045,0.022l-0.045,0.045
			l0.045,0.067v6.438h-1.08l-0.271-0.045l-0.135,0.045h-0.923l-3.872-10.895L244.702,232.167L244.702,232.167z"/>
		<path d="M256.316,216.5v5.808l0.111,0.135v3.129l0.092,0.09l-0.045,0.135v1.823l-0.047-0.045v0.045l-0.089-0.045h-2.61
			l-0.045-0.09v-7.519l0.09-0.135V216.5H256.316z M254.246,229.444h2.296v0.698l-0.022-0.022l0.067,0.518v1.418l-0.045,0.09h-2.858
			V229.4L254.246,229.444z"/>
	</g>
</g>
<g>
	<path fill="#06C38D" d="M10.404,384.198c0.401-2.037,1.441-6.344,1.441-8.061c0-6.462-1.441-24.655-1.441-24.655
		c0-2.514,3.345-4.551,7.472-4.551c0,0,136.169-3.082,170.128-1.458c10.078,0.482,41.082,1.458,41.082,1.458
		c4.125,0,7.473,2.037,7.473,4.551c0,0,4.313,30.096,3.283,40.119c-0.294,2.872-3.283,11.337-3.283,11.337
		c0,2.514-3.359,4.353-7.473,4.551c-7.154,0.348-21.375,2.088-28.501,2.088c-2.576,0-5.641-0.093-9.024-0.248
		c0.134,3.105,0.001,7.361-2.066,11.057c-4.495,8.03-7.213,27.056-18.606,29.008c0,0-2.621-0.023,1.367-1.55
		c3.985-1.527,4.551-14.337,8.436-29.659c0.443-1.749,0.854-6.369-1.377-9.565c-16.211-1.004-49.484-3.791-69.425-3.791
		c-12.265,0-80.283,2.342-92.012,2.66c-4.122,0.113-7.472-2.037-7.472-4.551C10.404,402.938,9.494,388.85,10.404,384.198z"/>
	<g>
		<path d="M28.954,363.452c0-0.504-0.604-0.625-1.088-0.666h-2.721c-1.552,0-1.996-1.008-1.996-1.451v-2.903
			c0-1.854,2.177-2.721,2.177-2.721h5.1v1.895h-4.313c-0.383,0-0.866,0.342-0.866,1.249v2.117h3.547
			c1.109,0,1.976,0.847,1.976,1.653v5.381c0,0.605-0.423,1.754-1.834,1.754h-5.704v-1.875h4.757c0.202,0,1.008-0.262,1.008-0.746
			L28.954,363.452z"/>
		<path d="M33.75,355.994h1.915v10.441c0,0.605,0.605,1.028,0.968,1.028h2.237c0.323,0,0.544-0.463,0.604-0.927v-10.521h2.036
			v12.154c0,0.686-0.988,1.512-1.633,1.592h-4.475c-0.867,0-1.653-0.726-1.653-2.076v-3.245L33.75,355.994L33.75,355.994z"/>
		<path d="M46.427,369.822H44.23v-14.25h5.281c0.604,0,2.217,0.585,2.217,1.955l0.04,0.141l-0.141,3.931
			c-0.121,1.29-1.31,1.673-1.733,1.673h-1.693l-0.766-0.081v-0.04h-0.988L46.427,369.822z M46.427,361.517h2.54
			c0,0,0.686-0.141,0.686-0.786v-2.419c0-0.685-0.766-0.766-0.766-0.806h-2.459v4.011H46.427z"/>
		<path d="M60.253,368.048v1.713h-6.087l0.303-9.171l0.101-0.061v-4.757h5.684v1.875h-3.749l-0.181,4.717l0.101,0.04h3.507v1.512
			h-3.648l-0.081,1.209l0.04,0.121l-0.04,0.242v2.62L60.253,368.048z"/>
		<path d="M64.929,369.761h-1.976v-13.847h5.785c1.573,0,1.996,1.229,1.996,2.197v3.749c0,0.806-0.746,1.632-1.371,1.632h-0.867
			l2.54,6.269h-2.338l-2.278-6.269h-1.532L64.929,369.761z M68.718,357.97h-3.85v3.567h0.202l0.101,0.121h3.547V357.97z"/>
		<path d="M73.716,367.08h1.29l0.08,0.041l0.081-0.041l0.04,0.041h1.169v1.148l-0.463,1.189l-0.182,0.262l-0.645,0.665l-0.625,0.504
			l-0.564,0.081h-0.403l-0.081-0.202l0.041-0.242l0.161-0.302l0.181-0.544l-0.04-0.081l0.081-0.464l-0.121-0.342h0.04v-0.202
			l-0.04-0.04V367.08z"/>
		<path d="M90.626,355.813l2.257,0.282v0.182l0.041,0.061l1.471,12.92l0.04,0.081l-0.262,0.423h-0.282l-0.04,0.04l-0.041-0.04
			l-0.202,0.04h-1.31l-0.766-6.268h-1.25l-0.121-0.081h-1.995l-0.081,0.081l-1.511,6.087l0.081,0.041H84.74l-0.121,0.101h-0.544
			l3.769-13.807h2.238l0.06-0.161L90.626,355.813z M90.525,358.353l-0.04,0.04h-1.149l-0.061-0.04l-0.786,3.185v0.363h2.842
			l-0.362-2.338l-0.061-0.907l-0.041-0.02l0.041-0.041l-0.081-0.101v-0.141H90.525z"/>
		<path d="M96.128,355.712h4.797l0.686,0.161l0.323,0.162l0.645,0.967l0.1,0.04l0.565,2.722l-0.041,0.544
			c-0.162,0.383-0.383,0.867-0.927,1.29c0.807,0.282,1.209,0.846,1.552,1.35v5.08c0,0.463-0.463,1.673-1.693,1.673H96.33
			l-0.242-0.162h0.041v-1.431h0.04l-0.04-0.04v-0.081h0.04l-0.04-0.04l0.04-0.04h-0.04l0.04-0.182l-0.04-0.061l0.04-0.041
			l-0.04-0.02l0.04-0.201l-0.04-0.202l0.04-0.021L96.128,355.712z M98.103,363.815v2.943l-0.04,0.02v0.262l0.04,0.04l-0.04,0.202
			v0.383l0.121-0.101h3.245l0.08-0.041h0.424v-3.708h-0.706l-0.04,0.04l-0.202-0.04l-0.282,0.04l-0.141-0.04H98.103L98.103,363.815z
			 M98.345,357.708v3.971h2.036c0,0,0.806-0.988,0.806-2.177c0-0.907-0.161-1.713-0.161-1.713l-0.182-0.04L98.345,357.708z"/>
		<path d="M112.312,368.048v1.713h-6.087l0.303-9.171l0.101-0.061v-4.757h5.684v1.875h-3.749l-0.181,4.717l0.101,0.04h3.507v1.512
			h-3.648l-0.081,1.209l0.04,0.121l-0.04,0.242v2.62L112.312,368.048z"/>
		<path d="M116.987,369.761h-1.975v-13.847h5.784c1.573,0,1.996,1.229,1.996,2.197v3.749c0,0.806-0.746,1.632-1.371,1.632h-0.866
			l2.539,6.269h-2.338l-2.278-6.269h-1.531L116.987,369.761z M120.776,357.97h-3.85v3.567h0.202l0.101,0.121h3.547V357.97z"/>
		<path d="M131.598,369.761l-0.041-0.685l0.041-0.041l-0.041-0.121l0.041-0.08v-7.559l-0.041-0.181l0.041-0.061v-3.306l-0.041-0.101
			l0.041-0.02v-1.23h3.85l0.08,0.041h1.109c1.088,0,2.237,1.834,2.237,2.62v8.667c0,0.746-1.209,2.056-2.096,2.056L131.598,369.761
			L131.598,369.761z M133.775,358.635l-0.061,0.04h-0.282v1.31l0.081,0.081h-0.041v0.342l0.041,0.041l-0.041,0.02l0.101,0.101v5.039
			l0.041,0.08v1.855l0.101,0.121h2.016l0.041-0.041h0.464l0.745-0.282h0.101v-3.991h-0.04l0.04-0.04l-0.141-0.202v-3.668
			l-0.121-0.464l-0.705-0.342H133.775z"/>
		<path d="M141.554,355.994h1.915v10.441c0,0.605,0.605,1.028,0.968,1.028h2.237c0.323,0,0.544-0.463,0.605-0.927v-10.521h2.036
			v12.154c0,0.686-0.988,1.512-1.633,1.592h-4.475c-0.867,0-1.653-0.726-1.653-2.076v-3.245V355.994L141.554,355.994z"/>
		<path d="M16.982,379.898h4.797l0.685,0.161l0.323,0.162l0.645,0.967l0.101,0.04l0.564,2.721l-0.04,0.544
			c-0.162,0.383-0.383,0.867-0.928,1.29c0.807,0.282,1.21,0.846,1.552,1.351v5.079c0,0.464-0.463,1.673-1.693,1.673h-5.805
			l-0.242-0.162h0.041v-1.431h0.04l-0.04-0.04v-0.081h0.04l-0.04-0.04l0.04-0.04h-0.04l0.04-0.182l-0.04-0.061l0.04-0.041
			l-0.04-0.02l0.04-0.201l-0.04-0.202l0.04-0.021L16.982,379.898z M18.957,388.001v2.943l-0.041,0.02v0.262l0.041,0.04l-0.041,0.202
			v0.383l0.121-0.101h3.245l0.081-0.041h0.423v-3.708H22.08l-0.04,0.04l-0.202-0.04l-0.282,0.04l-0.141-0.04H18.957L18.957,388.001z
			 M19.199,381.893v3.971h2.036c0,0,0.806-0.988,0.806-2.177c0-0.907-0.161-1.713-0.161-1.713l-0.182-0.04L19.199,381.893z"/>
		<path d="M29.357,393.947h-1.975V380.1h5.784c1.573,0,1.996,1.229,1.996,2.197v3.749c0,0.806-0.746,1.632-1.371,1.632h-0.866
			l2.539,6.269h-2.338l-2.278-6.269h-1.531L29.357,393.947z M33.146,382.156h-3.85v3.567h0.202l0.101,0.121h3.547V382.156z"/>
		<path d="M43.586,379.999l2.257,0.282v0.182l0.041,0.061l1.471,12.92l0.04,0.081l-0.262,0.423h-0.282l-0.041,0.04l-0.04-0.04
			l-0.202,0.04h-1.31l-0.766-6.268h-1.25l-0.121-0.081h-1.995l-0.081,0.081l-1.512,6.087l0.081,0.041H37.7l-0.121,0.101h-0.544
			l3.77-13.807h2.237l0.061-0.161L43.586,379.999z M43.485,382.538l-0.04,0.04h-1.149l-0.061-0.04l-0.786,3.185v0.363h2.842
			l-0.362-2.338l-0.061-0.907l-0.04-0.02l0.04-0.041l-0.081-0.101v-0.141H43.485z"/>
		<path d="M49.309,380.18h1.915v10.441c0,0.605,0.605,1.028,0.968,1.028h2.237c0.323,0,0.544-0.463,0.604-0.927V380.2h2.036v12.154
			c0,0.686-0.988,1.512-1.633,1.592h-4.475c-0.866,0-1.653-0.726-1.653-2.076v-3.245L49.309,380.18L49.309,380.18z"/>
		<path d="M66.763,380.099v1.834l-3.588,0.242c-0.947,0-1.471,0.544-1.471,0.846v3.245l0.1,0.081v4.273
			c0,0.907,0.645,1.25,1.048,1.25h3.991v2.076h-4.958c-0.645,0-2.217-0.766-2.217-1.955v-2.762l-0.081-0.08l0.04-0.041l-0.04-0.061
			l0.04-0.02l-0.04-0.121v-5.16l-0.101-0.061h0.041l-0.041-0.08v-1.27c0-0.907,1.431-1.915,1.915-1.915l1.774-0.222h1.129
			l0.08-0.101h2.379V380.099z"/>
		<path d="M73.797,379.858h2.076v14.089h-1.834v-6.369h-2.56v6.369h-1.875V380.1H71.6v5.845l2.176-0.101L73.797,379.858z"/>
		<path d="M84.72,387.638c0-0.504-0.604-0.625-1.088-0.665H80.91c-1.552,0-1.996-1.008-1.996-1.451v-2.903
			c0-1.854,2.177-2.721,2.177-2.721h5.1v1.895h-4.314c-0.383,0-0.866,0.342-0.866,1.249v2.117h3.547
			c1.109,0,1.975,0.847,1.975,1.653v5.381c0,0.605-0.423,1.754-1.834,1.754h-5.704v-1.875h4.757c0.201,0,1.008-0.262,1.008-0.746
			L84.72,387.638z"/>
		<path d="M93.265,393.947v-11.953h-3.931v-1.471l-0.081-0.02v-0.222h7.821l0.081-0.242h1.028l0.503-0.04l0.061,0.363l0.061,0.685
			v0.968h-3.366v11.832l-0.061,0.101h-0.665l-0.081-0.04l-0.081,0.04h-1.289V393.947z"/>
		<path d="M109.147,393.967H108.3l-0.041-0.04h-0.786v-13.505l-0.161-0.121l0.182-0.121h1.512l0.08-0.081h1.048l2.6,7.377v-7.337
			l1.452-0.182h0.383l0.02,0.242c0,0.021,0,0.041-0.02,0.061h0.161v7.639l0.04,0.04l-0.04,0.041l0.04,0.02l-0.04,0.04l0.04,0.061
			v5.765h-0.967l-0.242-0.041l-0.121,0.041h-0.827l-3.466-9.755V393.967z"/>
		<path d="M126.479,390.621l-0.08,0.847c0,1.653-1.209,2.419-1.935,2.419h-2.278l-0.04,0.08l-0.041-0.04l-0.081,0.04h-3.286
			c-0.826,0-1.552-1.37-1.552-1.975v-8.929c0-1.976,1.169-2.681,1.835-2.681h0.383l0.685-0.161l0.041,0.04l1.895-0.302h1.088
			c1.209,0,2.923,0.847,2.923,2.741h0.04v0.524L126.479,390.621z M124.02,382.438l-1.249-0.746l-0.162,0.121h-1.753l-0.081,0.04
			l-0.02-0.04l-0.04,0.04h-0.403v-0.04h-0.041l-0.907,0.746v1.492l0.041,0.02l-0.041,0.041l0.101,0.161v3.467l0.041,0.02
			l-0.041,0.061l0.041,0.081l-0.041,0.04l0.141,0.504v3.306l0.041,0.04v0.202l0.101,0.222l0.424,0.323h0.544l0.101-0.061h1.834
			l-0.162-0.222l0.544-0.081l0.041,0.262h0.625l0.423-0.544l0.222-0.423L124.02,382.438z"/>
		<path d="M136.275,380.099v1.834l-3.588,0.242c-0.947,0-1.471,0.544-1.471,0.846v3.245l0.101,0.081v4.273
			c0,0.907,0.645,1.25,1.048,1.25h3.991v2.076h-4.958c-0.645,0-2.217-0.766-2.217-1.955v-2.762l-0.081-0.08l0.04-0.041l-0.04-0.061
			l0.04-0.02l-0.04-0.121v-5.16l-0.101-0.061h0.041l-0.041-0.08v-1.27c0-0.907,1.431-1.915,1.915-1.915l1.774-0.222h1.129
			l0.08-0.101h2.378V380.099z"/>
		<path d="M143.308,379.858h2.076v14.089h-1.834v-6.369h-2.56v6.369h-1.875V380.1h1.996v5.845l2.176-0.101L143.308,379.858z"/>
		<path d="M158.725,391.73l3.467-11.167h2.257l-3.97,12.92l-0.162-0.02l-0.141,0.343h-1.31l-0.081,0.101h-0.524l-0.201,0.04h-0.867
			l-0.262,0.04l0.04-0.04l-2.58-13.484l0.303-0.081l0.04,0.04h1.512L158.725,391.73z"/>
		<path d="M167.008,380.321l2.157-0.242v7.499l-0.121,0.061v6.208l-1.31,0.101h-0.867L167.008,380.321z"/>
		<path d="M175.594,393.947v-11.953h-3.93v-1.471l-0.081-0.02v-0.222h7.821l0.081-0.242h1.028l0.504-0.04l0.061,0.363l0.06,0.685
			v0.968h-3.366v11.832l-0.06,0.101h-0.665l-0.081-0.04l-0.081,0.04h-1.291V393.947z"/>
		<path d="M189.299,379.999l2.257,0.282v0.182l0.041,0.061l1.471,12.92l0.04,0.081l-0.262,0.423h-0.282l-0.041,0.04l-0.04-0.04
			l-0.202,0.04h-1.31l-0.766-6.268h-1.25l-0.121-0.081h-1.996l-0.081,0.081l-1.511,6.087l0.08,0.041h-1.915l-0.121,0.101h-0.544
			l3.769-13.807h2.238l0.061-0.161L189.299,379.999z M189.198,382.538l-0.04,0.04h-1.149l-0.061-0.04l-0.786,3.185v0.363h2.842
			l-0.362-2.338l-0.061-0.907l-0.04-0.02l0.04-0.041l-0.081-0.101v-0.141H189.198z"/>
		<path d="M205.726,393.725h-0.666l-0.242-0.04l-0.282,0.04h-0.766v-5.906l-0.041-0.202v-3.931l-2.217,2.722l-0.02,0.08
			l-1.592,1.855l-3.003-4.697v10.36l-0.061-0.041l-0.08,0.041l-0.403-0.121l-0.061,0.08l-1.29-0.08l-0.121-0.041v-2.419l0.041-0.04
			l-0.041-0.061v-8.93l-0.121-0.262v-2.076h0.202l0.302-0.101h1.714l2.983,4.857l2.016-2.922h0.061l1.551-2.217h2.137V393.725
			L205.726,393.725z"/>
		<path d="M208.425,380.321l2.157-0.242v7.499l-0.121,0.061v6.208l-1.31,0.101h-0.868L208.425,380.321z"/>
		<path d="M214.834,393.967h-0.846l-0.041-0.04h-0.786v-13.505L213,380.301l0.181-0.121h1.512l0.081-0.081h1.048l2.6,7.377v-7.337
			l1.452-0.182h0.384l0.02,0.242c0,0.021,0,0.041-0.02,0.061h0.161v7.639l0.041,0.04l-0.041,0.041l0.041,0.02l-0.041,0.04
			l0.041,0.061v5.765h-0.967l-0.243-0.041l-0.12,0.041h-0.827l-3.467-9.755v9.856H214.834z"/>
		<path d="M228.941,392.234v1.713h-6.086l0.303-9.171l0.1-0.061v-4.757h5.684v1.875h-3.749l-0.182,4.717l0.102,0.04h3.507v1.512
			h-3.647l-0.082,1.209l0.041,0.121l-0.041,0.242v2.62L228.941,392.234z"/>
		<path d="M233.719,379.938v5.201l0.1,0.121v2.801l0.082,0.081l-0.041,0.121v1.633l-0.041-0.041v0.041l-0.079-0.041H231.4
			l-0.041-0.08v-6.733l0.082-0.121v-2.983H233.719z M231.864,391.528h2.056v0.625l-0.021-0.02l0.062,0.464v1.27l-0.04,0.081h-2.561
			v-2.459L231.864,391.528z"/>
	</g>
</g>
<g>
	<path fill="#33C4E5" d="M34.386,75.689c0.383-2.531,1.377-7.88,1.377-10.014c0-8.025-1.377-30.623-1.377-30.623
		c0-3.123,3.201-5.654,7.146-5.654c0,0,130.25-3.829,162.732-1.812c9.638,0.599,39.292,1.812,39.292,1.812
		c3.948,0,7.147,2.531,7.147,5.654c0,0,4.126,37.381,3.142,49.83c-0.281,3.567-3.142,14.081-3.142,14.081
		c0,3.123-3.212,5.407-7.147,5.655c-6.841,0.431-20.444,2.592-27.26,2.592c-2.464,0-5.395-0.116-8.634-0.309
		c0.13,3.858-0.724,9.747-3.607,13.442c-7.45,9.541-21.758,26.793-32.655,29.218c0,0-2.509-0.029,1.306-1.926
		c3.812-1.896,10.955-11.013,22.917-29.88c1.098-1.729,2.461-7.764,0.325-11.736c-15.505-1.245-47.332-4.707-66.406-4.707
		c-11.732,0-76.793,2.909-88.012,3.305c-3.942,0.139-7.146-2.532-7.146-5.655C34.386,98.963,33.516,81.466,34.386,75.689z"/>
	<g>
		<path d="M50.062,58.091l-0.051-0.877l0.051-0.051l-0.051-0.155l0.051-0.104V47.23l-0.051-0.232l0.051-0.078v-4.23l-0.051-0.129
			l0.051-0.026v-1.574h4.927l0.103,0.051h1.419c1.393,0,2.863,2.348,2.863,3.354v11.093c0,0.955-1.547,2.631-2.683,2.631
			L50.062,58.091L50.062,58.091z M52.848,43.85l-0.078,0.052h-0.361v1.677l0.103,0.104H52.46v0.438l0.052,0.051l-0.052,0.026
			l0.129,0.129v6.449l0.052,0.104v2.373l0.128,0.155h2.58l0.051-0.051h0.593l0.955-0.361h0.129v-5.108h-0.052l0.052-0.052
			l-0.181-0.258v-4.695l-0.155-0.594L55.84,43.85H52.848z"/>
		<path d="M69.822,40.239l2.889,0.361v0.232l0.052,0.077l1.883,16.536l0.052,0.104l-0.335,0.542h-0.361l-0.051,0.052l-0.052-0.052
			l-0.258,0.052h-1.676l-0.98-8.023h-1.599l-0.155-0.104h-2.554l-0.103,0.104l-1.935,7.791l0.104,0.051h-2.451l-0.154,0.129h-0.697
			l4.824-17.671h2.863l0.077-0.207L69.822,40.239z M69.693,43.489l-0.052,0.052h-1.47l-0.078-0.052l-1.006,4.076v0.464h3.638
			l-0.465-2.992l-0.077-1.161l-0.051-0.026l0.051-0.051L70.08,43.67v-0.181H69.693z"/>
		<path d="M79.702,58.091h-2.528V40.368h7.404c2.013,0,2.554,1.574,2.554,2.812v4.798c0,1.032-0.955,2.09-1.754,2.09h-1.109
			l3.25,8.023h-2.993l-2.915-8.023H79.65L79.702,58.091z M84.552,42.999h-4.927v4.566h0.258l0.128,0.155h4.541V42.999z"/>
		<path d="M100.081,41.555l-0.051,0.051h0.051v0.104l-0.051,0.077l-0.077,1.058h-6.32v4.257h5.262v2.089h-5.237l-0.155,0.052
			l-0.052,0.129L93.4,49.397v8.719h-2.425V40.884h8.874L100.081,41.555z"/>
		<path d="M110.761,50.016c0-0.645-0.774-0.799-1.393-0.851h-3.482c-1.987,0-2.554-1.29-2.554-1.857v-3.715
			c0-2.374,2.786-3.483,2.786-3.483h6.527v2.425h-5.521c-0.49,0-1.109,0.438-1.109,1.599v2.709h4.541
			c1.419,0,2.528,1.083,2.528,2.115v6.888c0,0.774-0.542,2.245-2.348,2.245h-7.301v-2.399h6.088c0.258,0,1.29-0.335,1.29-0.955
			L110.761,50.016z"/>
		<path d="M132.121,55.898v2.193h-7.791l0.387-11.738l0.129-0.077v-6.088h7.275v2.399h-4.798l-0.232,6.037l0.129,0.052h4.489v1.935
			h-4.67l-0.103,1.548l0.052,0.155l-0.052,0.31v3.354L132.121,55.898z"/>
		<path d="M135.397,40.652l2.76-0.31v9.596l-0.155,0.078v7.945l-1.677,0.129h-1.109L135.397,40.652z"/>
		<path d="M143.6,58.116h-1.083l-0.051-0.051h-1.006V40.781l-0.206-0.155l0.232-0.155h1.935l0.103-0.103h1.341l3.328,9.442v-9.39
			l1.857-0.232h0.49l0.026,0.31c0,0.025,0,0.051-0.026,0.077h0.207v9.777l0.052,0.052l-0.052,0.051l0.052,0.026l-0.052,0.051
			l0.052,0.077v7.378h-1.238l-0.31-0.052l-0.155,0.052h-1.058L143.6,45.501V58.116z"/>
		<path d="M179.56,40.11c-0.052,0.129-0.077,0.336-0.077,0.361l0.025,0.026l-4.05,17.593h-2.295l-2.683-8.281l-0.052-0.052
			l-3.586,8.281l0.026,0.052h-2.477l-3.199-17.645h2.786l2.142,13.001l3.095-7.507h2.812l2.219,6.862l2.786-12.693h2.528V40.11z"/>
		<path d="M190.421,55.898v2.193h-7.791l0.387-11.738l0.129-0.077v-6.088h7.275v2.399h-4.798l-0.232,6.037l0.129,0.052h4.489v1.935
			h-4.67l-0.103,1.548l0.052,0.155l-0.052,0.31v3.354L190.421,55.898z"/>
		<path d="M195.864,58.116h-1.084l-0.051-0.051h-1.006V40.781l-0.206-0.155l0.232-0.155h1.935l0.103-0.103h1.342l3.328,9.442v-9.39
			l1.857-0.232h0.49l0.026,0.31c0,0.025,0,0.051-0.026,0.077h0.207v9.777l0.052,0.052l-0.052,0.051l0.052,0.026l-0.052,0.051
			l0.052,0.077v7.378h-1.238l-0.31-0.052l-0.155,0.052h-1.058l-4.437-12.486L195.864,58.116L195.864,58.116z"/>
		<path d="M206.337,40.652l2.76-0.31v9.596l-0.155,0.078v7.945l-1.677,0.129h-1.109L206.337,40.652z"/>
		<path d="M214.488,43.076v12.821h4.412v-4.541l-0.078-0.954l-0.593-0.645h-1.909v-2.142l0.051-0.258h3.406
			c0.464,0,1.521,0.387,1.521,1.445v6.63c0,1.574-1.47,2.399-1.857,2.605c-0.025,0.026-0.051,0.052-0.077,0.052h-5.211
			c-0.697,0-1.909-0.697-1.909-1.548v-4.385l-0.051-0.104l0.103-0.052V42.56c0-0.903,1.032-2.063,2.605-2.063h4.644
			c0.542,0,1.599,0.335,1.599,2.089v1.909h-2.218l-0.052-1.444L214.488,43.076z"/>
		<path d="M49.572,71.195l2.889,0.361v0.232l0.052,0.078l1.883,16.536l0.052,0.104l-0.336,0.542h-0.361l-0.051,0.05l-0.052-0.052
			l-0.258,0.052h-1.677l-0.98-8.023h-1.6l-0.155-0.104h-2.554l-0.104,0.104l-1.935,7.791l0.103,0.051h-2.449l-0.155,0.129h-0.696
			l4.824-17.671h2.863l0.078-0.207L49.572,71.195z M49.443,74.445l-0.052,0.052h-1.47l-0.077-0.052l-1.006,4.076v0.464h3.638
			l-0.465-2.992l-0.078-1.161l-0.051-0.026l0.051-0.051l-0.103-0.129v-0.181H49.443z"/>
		<path d="M56.615,71.066h6.14l0.877,0.207l0.413,0.207l0.825,1.238l0.129,0.052l0.722,3.482l-0.052,0.697
			c-0.207,0.49-0.49,1.109-1.187,1.651c1.032,0.361,1.548,1.083,1.986,1.729v6.5c0,0.593-0.593,2.141-2.167,2.141h-7.429
			l-0.31-0.207h0.051v-1.831h0.052l-0.052-0.052v-0.103h0.052l-0.052-0.052l0.052-0.052h-0.052l0.052-0.232l-0.052-0.077
			l0.052-0.051l-0.052-0.026l0.052-0.258l-0.052-0.258l0.052-0.026L56.615,71.066z M59.143,81.437v3.766l-0.052,0.026v0.335
			l0.052,0.051l-0.052,0.258v0.49l0.155-0.128h4.153l0.103-0.052h0.542v-4.747h-0.903l-0.051,0.051l-0.258-0.051l-0.361,0.051
			l-0.181-0.051L59.143,81.437L59.143,81.437z M59.452,73.62v5.082h2.605c0,0,1.032-1.264,1.032-2.786
			c0-1.161-0.206-2.192-0.206-2.192l-0.232-0.052L59.452,73.62z"/>
		<path d="M87.442,71.066c-0.052,0.129-0.078,0.336-0.078,0.361l0.026,0.026l-4.05,17.593h-2.296l-2.683-8.281l-0.052-0.052
			l-3.586,8.281l0.026,0.052h-2.477l-3.199-17.645h2.786L74,84.402l3.096-7.507h2.812l2.219,6.862l2.786-12.693h2.529V71.066z"/>
		<path d="M98.302,86.854v2.193h-7.791l0.387-11.737l0.129-0.078v-6.088h7.275v2.399h-4.798l-0.232,6.037l0.129,0.051h4.489v1.935
			h-4.67l-0.103,1.548l0.052,0.155l-0.052,0.31v3.354L98.302,86.854z"/>
		<path d="M110.71,71.324v2.348l-4.592,0.31c-1.213,0-1.883,0.697-1.883,1.083v4.153l0.129,0.103v5.469c0,1.161,0.826,1.6,1.341,1.6
			h5.108v2.657h-6.346c-0.826,0-2.838-0.98-2.838-2.502V83.01l-0.104-0.103l0.052-0.052l-0.052-0.078l0.052-0.025l-0.052-0.155
			v-6.604l-0.128-0.078h0.051l-0.051-0.103v-1.625c0-1.161,1.832-2.451,2.45-2.451l2.271-0.283h1.445l0.103-0.129H110.71z"/>
		<path d="M119.713,71.014h2.657v18.032h-2.347v-8.152h-3.276v8.152h-2.399V71.324h2.554v7.481l2.787-0.129L119.713,71.014z"/>
		<path d="M133.695,80.972c0-0.645-0.774-0.799-1.393-0.851h-3.482c-1.986,0-2.554-1.29-2.554-1.857v-3.715
			c0-2.374,2.786-3.483,2.786-3.483h6.527v2.425h-5.521c-0.49,0-1.109,0.439-1.109,1.6v2.708h4.54c1.419,0,2.528,1.083,2.528,2.115
			v6.888c0,0.774-0.542,2.245-2.348,2.245h-7.3v-2.399h6.088c0.258,0,1.29-0.335,1.29-0.955L133.695,80.972z"/>
		<path d="M142.104,86.595h5.959l-0.129,2.451h-8.436V70.963h2.58v14.705L142.104,86.595z"/>
		<path d="M151.494,71.427h2.451V84.79c0,0.774,0.774,1.316,1.238,1.316h2.864c0.413,0,0.697-0.593,0.774-1.187V71.453h2.605v15.555
			c0,0.877-1.264,1.935-2.089,2.038h-5.727c-1.109,0-2.116-0.929-2.116-2.657v-4.153V71.427z"/>
		<path d="M166.869,89.072h-1.084l-0.051-0.051h-1.006V71.737l-0.206-0.155l0.232-0.155h1.935l0.104-0.103h1.341l3.328,9.442v-9.39
			l1.858-0.232h0.49l0.026,0.31c0,0.025,0,0.051-0.026,0.077h0.207v9.777l0.052,0.052l-0.052,0.051l0.052,0.026l-0.052,0.051
			l0.052,0.077v7.378h-1.239l-0.309-0.052l-0.155,0.052h-1.058l-4.437-12.486v12.615H166.869z"/>
		<path d="M179.458,74.033v12.821h4.411v-4.541l-0.077-0.954l-0.593-0.645h-1.909v-2.141l0.051-0.258h3.405
			c0.464,0,1.522,0.387,1.522,1.444v6.63c0,1.574-1.471,2.399-1.857,2.605c-0.026,0.026-0.051,0.052-0.078,0.052h-5.21
			c-0.697,0-1.91-0.696-1.91-1.548v-4.386l-0.051-0.103l0.103-0.051v-9.442c0-0.903,1.032-2.063,2.606-2.063h4.644
			c0.542,0,1.599,0.335,1.599,2.089v1.909h-2.219l-0.051-1.444L179.458,74.033z"/>
		<path d="M204.739,80.972c0-0.645-0.774-0.799-1.394-0.851h-3.482c-1.986,0-2.554-1.29-2.554-1.857v-3.715
			c0-2.374,2.786-3.483,2.786-3.483h6.526v2.425H201.1c-0.49,0-1.109,0.439-1.109,1.6v2.708h4.541c1.419,0,2.528,1.083,2.528,2.115
			v6.888c0,0.774-0.542,2.245-2.348,2.245h-7.3v-2.399h6.088c0.258,0,1.29-0.335,1.29-0.955L204.739,80.972z"/>
		<path d="M218.307,86.854v2.193h-7.791l0.387-11.737l0.129-0.078v-6.088h7.275v2.399h-4.798l-0.232,6.037l0.129,0.051h4.489v1.935
			h-4.67l-0.103,1.548l0.052,0.155l-0.052,0.31v3.354L218.307,86.854z"/>
		<path d="M221.583,71.608l2.76-0.31v9.596l-0.155,0.078v7.945l-1.677,0.129h-1.109L221.583,71.608z"/>
		<path d="M229.786,89.072h-1.083l-0.053-0.051h-1.006V71.737l-0.205-0.155l0.231-0.155h1.935l0.104-0.103h1.341l3.328,9.442v-9.39
			l1.857-0.232h0.49l0.025,0.31c0,0.025,0,0.051-0.025,0.077h0.207v9.777l0.051,0.052l-0.051,0.051l0.051,0.026l-0.051,0.051
			l0.051,0.077v7.378h-1.237l-0.31-0.052l-0.155,0.052h-1.058l-4.438-12.486L229.786,89.072L229.786,89.072z"/>
	</g>
	<g>
		<g>
			<path d="M241.927,82.379c0,0.457,0.761,0.705,0.952,0.705h4.489v1.769h-5.386c-1.332,0-1.729-1.085-1.729-1.655v-5.08
				c0-0.76,0.817-1.559,1.865-1.559h3.347v-1.997c0-0.856-0.457-1.179-0.816-1.179h-4.071v-1.788h4.812c0,0,2.055,0.817,2.055,2.567
				v2.74c0,0.418-0.418,1.371-1.883,1.371h-2.567c-0.458,0.037-1.027,0.151-1.027,0.627L241.927,82.379z"/>
		</g>
		<g>
			<path d="M242.773,87.007h1.957V87.6l-0.021-0.019l0.06,0.442v1.207l-0.039,0.078h-2.438v-2.341L242.773,87.007z"/>
		</g>
	</g>
</g>
</svg>
