<?xml version="1.0" encoding="utf-8"?>
<!-- Generator: Adobe Illustrator 16.0.0, SVG Export Plug-In . SVG Version: 6.00 Build 0)  -->
<!DOCTYPE svg PUBLIC "-//W3C//DTD SVG 1.1//EN" "http://www.w3.org/Graphics/SVG/1.1/DTD/svg11.dtd">
<svg version="1.1" xmlns="http://www.w3.org/2000/svg" xmlns:xlink="http://www.w3.org/1999/xlink" x="0px" y="0px" width="450px"
	 height="1000px" viewBox="0 0 450 1000" enable-background="new 0 0 450 1000" xml:space="preserve">
<g id="Layer_2">
</g>
<g id="Layer_3">
	<path fill="#AACC52" d="M1.421,40.967c0.418-2.078,1.503-6.469,1.503-8.22c0-6.588-1.503-25.137-1.503-25.137
		c0-2.563,3.491-4.642,7.797-4.642c0,0,142.089-3.142,177.526-1.486c10.515,0.492,42.865,1.486,42.865,1.486
		c4.307,0,7.797,2.079,7.797,4.642c0,0,4.503,30.685,3.428,40.904c-0.309,2.928-3.428,11.558-3.428,11.558
		c0,2.563-3.505,4.438-7.797,4.642c-7.464,0.353-22.305,2.128-29.74,2.128c-2.687,0-5.885-0.096-9.417-0.253
		c0.142,3.167-1.409,7.468-3.936,11.034c-5.913,8.346-12.768,28.629-24.656,30.62c0,0-2.736-0.024,1.426-1.58
		c4.157-1.558,8.05-14.78,14.031-31.164c0.637-1.745,2.686-6.373,0.355-9.633C160.757,64.842,126.038,62,105.23,62
		c-12.798,0-83.773,2.388-96.012,2.713c-4.3,0.114-7.797-2.079-7.797-4.642C1.421,60.071,0.472,45.709,1.421,40.967z"/>
	<g>
		<path d="M17.401,26.7h-0.86l-0.041-0.041H15.7v-13.73l-0.164-0.123l0.185-0.123h1.537l0.082-0.082h1.066l2.644,7.501v-7.46
			l1.475-0.184h0.39l0.021,0.245c0,0.021,0,0.041-0.021,0.062h0.164v7.767l0.041,0.041l-0.041,0.041l0.041,0.021l-0.041,0.041
			l0.041,0.062v5.861h-0.984l-0.246-0.041l-0.123,0.041h-0.84l-3.525-9.919V26.7z"/>
		<path d="M25.842,12.683h1.947v10.615c0,0.615,0.615,1.046,0.983,1.046h2.275c0.328,0,0.553-0.472,0.615-0.943V12.703h2.07v12.357
			c0,0.696-1.004,1.537-1.66,1.619h-4.549c-0.881,0-1.68-0.738-1.68-2.111V21.27V12.683z"/>
		<path d="M38.484,26.68h-2.008V12.601h5.881c1.598,0,2.029,1.251,2.029,2.234v3.812c0,0.819-0.758,1.66-1.394,1.66h-0.881
			l2.582,6.373h-2.377L40,20.307h-1.557L38.484,26.68z M42.337,14.692h-3.914v3.627h0.205l0.103,0.123h3.607V14.692z"/>
		<path d="M57.703,24.425l3.525-11.353h2.295l-4.037,13.136l-0.164-0.021l-0.144,0.349h-1.332l-0.082,0.103h-0.533l-0.205,0.041
			h-0.881l-0.267,0.041l0.041-0.041l-2.623-13.71l0.308-0.082l0.041,0.041h1.537L57.703,24.425z"/>
		<path d="M75.427,23.298l-0.082,0.861c0,1.68-1.229,2.459-1.967,2.459h-2.316L71.021,26.7l-0.041-0.041L70.899,26.7h-3.34
			c-0.84,0-1.578-1.394-1.578-2.009v-9.078c0-2.008,1.188-2.726,1.865-2.726h0.39l0.697-0.164l0.041,0.041l1.926-0.307h1.106
			c1.229,0,2.971,0.86,2.971,2.786h0.041v0.533L75.427,23.298z M72.927,14.979l-1.271-0.759l-0.164,0.123H69.71l-0.082,0.041
			l-0.021-0.041l-0.041,0.041h-0.41v-0.041h-0.041l-0.922,0.759v1.516l0.041,0.021l-0.041,0.041l0.103,0.164v3.525l0.041,0.021
			l-0.041,0.061l0.041,0.082l-0.041,0.041l0.143,0.513v3.36l0.041,0.041v0.205l0.103,0.226l0.431,0.328h0.553l0.102-0.062h1.865
			l-0.164-0.226l0.553-0.082l0.041,0.267h0.635l0.43-0.554l0.226-0.43L72.927,14.979z"/>
		<path d="M79.852,26.7h-0.86l-0.041-0.041h-0.799v-13.73l-0.164-0.123l0.185-0.123h1.537l0.082-0.082h1.066l2.644,7.501v-7.46
			l1.475-0.184h0.39l0.021,0.245c0,0.021,0,0.041-0.021,0.062h0.164v7.767l0.041,0.041l-0.041,0.041l0.041,0.021l-0.041,0.041
			l0.041,0.062v5.861h-0.984l-0.246-0.041l-0.123,0.041h-0.84l-3.525-9.919V26.7z"/>
		<path d="M96.038,14.753v10.185h3.504v-3.606l-0.062-0.759l-0.471-0.512h-1.517V18.36l0.041-0.205h2.705
			c0.369,0,1.209,0.308,1.209,1.147v5.267c0,1.25-1.168,1.906-1.476,2.07c-0.021,0.021-0.041,0.041-0.062,0.041h-4.139
			c-0.553,0-1.517-0.554-1.517-1.229v-3.484l-0.041-0.082l0.082-0.041v-7.5c0-0.717,0.82-1.64,2.07-1.64h3.688
			c0.431,0,1.271,0.267,1.271,1.66v1.517h-1.762l-0.041-1.147L96.038,14.753z"/>
		<path d="M110.074,24.938v1.742h-6.189l0.308-9.324l0.103-0.062v-4.836h5.779v1.905h-3.812l-0.185,4.795l0.103,0.041h3.565v1.537
			h-3.709l-0.082,1.229l0.041,0.123l-0.041,0.246v2.664L110.074,24.938z"/>
		<path d="M123.679,26.454h-0.676l-0.246-0.041l-0.287,0.041h-0.779v-6.005l-0.041-0.204v-3.996l-2.254,2.767l-0.021,0.082
			l-1.619,1.885l-3.053-4.774v10.533l-0.062-0.041l-0.082,0.041l-0.41-0.123l-0.062,0.082l-1.312-0.082l-0.123-0.041v-2.459
			l0.041-0.041l-0.041-0.062v-9.078l-0.123-0.267v-2.11h0.205l0.307-0.103h1.742l3.033,4.938l2.049-2.972h0.062l1.578-2.254h2.172
			V26.454z"/>
		<path d="M126.547,12.683h1.947v10.615c0,0.615,0.615,1.046,0.983,1.046h2.275c0.328,0,0.553-0.472,0.615-0.943V12.703h2.07v12.357
			c0,0.696-1.004,1.537-1.66,1.619h-4.549c-0.881,0-1.68-0.738-1.68-2.111V21.27V12.683z M129.825,9.076v2.254h-2.049V9.671
			l-0.164-0.164V9.076H129.825z M133.227,9.076l0.143,1.619l-0.143,0.635h-2.049V9.671l-0.164-0.164V9.076H133.227z"/>
		<path d="M142.918,20.266c0-0.513-0.615-0.636-1.106-0.677h-2.767c-1.578,0-2.029-1.024-2.029-1.476v-2.95
			c0-1.886,2.213-2.767,2.213-2.767h5.185v1.926h-4.386c-0.389,0-0.881,0.349-0.881,1.271v2.152h3.606
			c1.127,0,2.008,0.86,2.008,1.68v5.472c0,0.615-0.43,1.783-1.865,1.783h-5.799v-1.906h4.836c0.205,0,1.025-0.267,1.025-0.758
			L142.918,20.266z"/>
		<path d="M153.696,24.938v1.742h-6.189l0.308-9.324l0.103-0.062v-4.836h5.779v1.905h-3.812l-0.185,4.795l0.103,0.041h3.565v1.537
			h-3.709l-0.082,1.229l0.041,0.123l-0.041,0.246v2.664L153.696,24.938z"/>
		<path d="M176.542,12.397c-0.041,0.103-0.061,0.266-0.061,0.286l0.021,0.021l-3.218,13.977h-1.824l-2.131-6.578l-0.041-0.041
			l-2.849,6.578l0.021,0.041h-1.967l-2.541-14.018h2.213l1.701,10.329l2.459-5.964h2.234l1.762,5.451l2.213-10.082H176.542z"/>
		<path d="M179.142,12.826l2.193-0.246v7.624l-0.123,0.062v6.312l-1.332,0.103h-0.881L179.142,12.826z"/>
		<path d="M186.089,26.68h-2.008V12.601h5.881c1.598,0,2.029,1.251,2.029,2.234v3.812c0,0.819-0.758,1.66-1.394,1.66h-0.881
			l2.582,6.373h-2.377l-2.316-6.373h-1.557L186.089,26.68z M189.941,14.692h-3.914v3.627h0.205l0.103,0.123h3.607V14.692z"/>
		<path d="M200.739,20.266c0-0.513-0.615-0.636-1.106-0.677h-2.767c-1.578,0-2.029-1.024-2.029-1.476v-2.95
			c0-1.886,2.213-2.767,2.213-2.767h5.185v1.926h-4.386c-0.389,0-0.881,0.349-0.881,1.271v2.152h3.606
			c1.127,0,2.008,0.86,2.008,1.68v5.472c0,0.615-0.43,1.783-1.865,1.783h-5.799v-1.906h4.836c0.205,0,1.025-0.267,1.025-0.758
			L200.739,20.266z"/>
		<path d="M209.427,26.68V14.528h-3.996v-1.496l-0.082-0.021v-0.226h7.951l0.082-0.245h1.045l0.513-0.041L215,12.867l0.062,0.697
			v0.983h-3.422v12.029l-0.062,0.103h-0.676l-0.082-0.041l-0.082,0.041H209.427z"/>
		<path d="M9.389,51.267l-0.041-0.696l0.041-0.041l-0.041-0.123l0.041-0.082V42.64l-0.041-0.185l0.041-0.062v-3.36l-0.041-0.103
			l0.041-0.021v-1.25h3.914l0.082,0.041h1.127c1.107,0,2.275,1.864,2.275,2.664v8.812c0,0.758-1.229,2.09-2.131,2.09H9.389z
			 M11.603,39.955l-0.062,0.041h-0.287v1.332l0.082,0.082h-0.041v0.348l0.041,0.041l-0.041,0.021l0.103,0.103v5.123l0.041,0.082
			v1.886l0.103,0.123h2.049l0.041-0.041h0.471l0.758-0.287h0.103V44.75h-0.041l0.041-0.041l-0.144-0.205v-3.729l-0.123-0.471
			l-0.717-0.349H11.603z"/>
		<path d="M19.511,37.271h1.947v10.615c0,0.614,0.615,1.045,0.983,1.045h2.275c0.328,0,0.553-0.472,0.615-0.942V37.291h2.07v12.356
			c0,0.697-1.004,1.537-1.66,1.619h-4.549c-0.881,0-1.68-0.737-1.68-2.11v-3.3V37.271z"/>
		<path d="M41.886,37.086l2.295,0.287v0.185l0.041,0.062l1.496,13.136l0.041,0.082l-0.266,0.43h-0.287l-0.041,0.041l-0.041-0.041
			l-0.205,0.041h-1.332l-0.779-6.373h-1.271l-0.123-0.082h-2.029l-0.082,0.082l-1.537,6.188l0.082,0.041h-1.947l-0.123,0.103h-0.554
			l3.833-14.037h2.274l0.062-0.164L41.886,37.086z M41.783,39.668l-0.041,0.041h-1.168l-0.062-0.041l-0.799,3.238v0.368h2.889
			l-0.369-2.377l-0.062-0.922l-0.041-0.021l0.041-0.041l-0.082-0.103v-0.144H41.783z"/>
		<path d="M47.479,36.984h4.877l0.697,0.164l0.328,0.164l0.656,0.983l0.103,0.041l0.574,2.767l-0.041,0.554
			c-0.164,0.389-0.389,0.881-0.942,1.312c0.819,0.286,1.229,0.86,1.578,1.373v5.164c0,0.471-0.471,1.7-1.721,1.7h-5.902
			l-0.246-0.164h0.041v-1.454h0.041l-0.041-0.041v-0.082h0.041l-0.041-0.041l0.041-0.041h-0.041l0.041-0.185l-0.041-0.062
			l0.041-0.041l-0.041-0.021l0.041-0.205l-0.041-0.205l0.041-0.021L47.479,36.984z M49.487,45.222v2.992l-0.041,0.021V48.5
			l0.041,0.041l-0.041,0.205v0.39l0.123-0.103h3.299l0.082-0.041h0.43v-3.771h-0.717l-0.041,0.041l-0.205-0.041l-0.287,0.041
			l-0.144-0.041H49.487z M49.733,39.013v4.037h2.069c0,0,0.82-1.005,0.82-2.214c0-0.922-0.164-1.741-0.164-1.741l-0.184-0.041
			L49.733,39.013z"/>
		<path d="M63.933,49.526v1.741h-6.189l0.308-9.324l0.103-0.062v-4.836h5.779v1.906h-3.812l-0.185,4.795l0.103,0.041h3.565v1.537
			h-3.709l-0.082,1.229l0.041,0.123l-0.041,0.246v2.664L63.933,49.526z"/>
		<path d="M68.686,51.267h-2.008V37.189h5.881c1.598,0,2.029,1.25,2.029,2.233v3.812c0,0.82-0.758,1.66-1.394,1.66h-0.881
			l2.582,6.373h-2.377l-2.316-6.373h-1.557L68.686,51.267z M72.538,39.279h-3.914v3.628h0.205l0.103,0.123h3.607V39.279z"/>
		<path d="M89.339,37.086l2.295,0.287v0.185l0.041,0.062l1.496,13.136l0.041,0.082l-0.266,0.43h-0.287l-0.041,0.041l-0.041-0.041
			l-0.205,0.041H91.04l-0.779-6.373h-1.271l-0.123-0.082h-2.029l-0.082,0.082l-1.537,6.188l0.082,0.041h-1.947l-0.123,0.103h-0.554
			l3.833-14.037h2.274l0.062-0.164L89.339,37.086z M89.237,39.668l-0.041,0.041h-1.168l-0.062-0.041l-0.799,3.238v0.368h2.889
			l-0.369-2.377l-0.062-0.922l-0.041-0.021l0.041-0.041l-0.082-0.103v-0.144H89.237z"/>
		<path d="M95.157,37.271h1.947v10.615c0,0.614,0.615,1.045,0.983,1.045h2.275c0.328,0,0.553-0.472,0.615-0.942V37.291h2.07v12.356
			c0,0.697-1.004,1.537-1.66,1.619h-4.549c-0.881,0-1.68-0.737-1.68-2.11v-3.3V37.271z"/>
		<path d="M112.902,37.189v1.865l-3.648,0.245c-0.963,0-1.496,0.554-1.496,0.861v3.299l0.103,0.082v4.345
			c0,0.922,0.656,1.271,1.065,1.271h4.058v2.11h-5.042c-0.656,0-2.254-0.778-2.254-1.987v-2.808l-0.082-0.082l0.041-0.041
			l-0.041-0.062l0.041-0.021l-0.041-0.123v-5.246l-0.103-0.062h0.041l-0.041-0.082v-1.291c0-0.922,1.455-1.946,1.947-1.946
			l1.803-0.226h1.148l0.082-0.103H112.902z"/>
		<path d="M120.052,36.943h2.111v14.324h-1.865v-6.476h-2.603v6.476h-1.906V37.189h2.028v5.942l2.213-0.102L120.052,36.943z"/>
		<path d="M133.185,51.287h-0.86l-0.041-0.041h-0.799V37.517l-0.164-0.123l0.185-0.123h1.537l0.082-0.082h1.066l2.644,7.5V37.23
			l1.475-0.185h0.39l0.021,0.246c0,0.021,0,0.041-0.021,0.062h0.164v7.767l0.041,0.041l-0.041,0.041l0.041,0.021l-0.041,0.041
			l0.041,0.062v5.86h-0.984l-0.246-0.041l-0.123,0.041h-0.84l-3.525-9.918V51.287z"/>
		<path d="M141.503,37.414l2.193-0.246v7.623l-0.123,0.062v6.312l-1.332,0.103h-0.881L141.503,37.414z"/>
		<path d="M153.552,37.189v1.865l-3.648,0.245c-0.963,0-1.496,0.554-1.496,0.861v3.299l0.103,0.082v4.345
			c0,0.922,0.656,1.271,1.065,1.271h4.058v2.11h-5.042c-0.656,0-2.254-0.778-2.254-1.987v-2.808l-0.082-0.082l0.041-0.041
			l-0.041-0.062l0.041-0.021l-0.041-0.123v-5.246l-0.103-0.062h0.041l-0.041-0.082v-1.291c0-0.922,1.455-1.946,1.947-1.946
			l1.803-0.226h1.148l0.082-0.103H153.552z"/>
		<path d="M160.702,36.943h2.111v14.324h-1.865v-6.476h-2.603v6.476h-1.906V37.189h2.029v5.942l2.213-0.102L160.702,36.943z"/>
		<path d="M169.861,51.267V39.115h-3.996v-1.496l-0.082-0.021v-0.226h7.951l0.082-0.246h1.045l0.512-0.041l0.062,0.369l0.062,0.696
			v0.983h-3.422v12.029l-0.062,0.103h-0.676l-0.082-0.041l-0.082,0.041H169.861z"/>
		<path d="M190.166,44.853c0-0.512-0.615-0.635-1.106-0.676h-2.767c-1.578,0-2.029-1.025-2.029-1.476V39.75
			c0-1.886,2.213-2.767,2.213-2.767h5.185v1.927h-4.386c-0.389,0-0.881,0.348-0.881,1.271v2.151h3.606
			c1.127,0,2.008,0.86,2.008,1.681v5.472c0,0.614-0.43,1.782-1.865,1.782h-5.799v-1.905h4.836c0.205,0,1.025-0.267,1.025-0.759
			L190.166,44.853z"/>
		<path d="M200.615,37.086l2.295,0.287v0.185l0.041,0.062l1.496,13.136l0.041,0.082l-0.266,0.43h-0.287l-0.041,0.041l-0.041-0.041
			l-0.205,0.041h-1.332l-0.779-6.373h-1.271l-0.123-0.082h-2.029l-0.082,0.082l-1.537,6.188l0.082,0.041h-1.947l-0.123,0.103h-0.554
			l3.833-14.037h2.274l0.062-0.164L200.615,37.086z M200.513,39.668l-0.041,0.041h-1.168l-0.062-0.041l-0.799,3.238v0.368h2.889
			l-0.369-2.377l-0.062-0.922l-0.041-0.021l0.041-0.041l-0.082-0.103v-0.144H200.513z"/>
		<path d="M210.245,51.267V39.115h-3.996v-1.496l-0.082-0.021v-0.226h7.951l0.082-0.246h1.045l0.512-0.041l0.062,0.369l0.062,0.696
			v0.983h-3.422v12.029l-0.062,0.103h-0.676l-0.082-0.041l-0.082,0.041H210.245z"/>
		<path d="M222.416,51.267V39.115h-3.996v-1.496l-0.082-0.021v-0.226h7.951l0.082-0.246h1.046l0.512-0.041l0.062,0.369l0.062,0.696
			v0.983h-3.422v12.029l-0.062,0.103h-0.676l-0.082-0.041l-0.082,0.041H222.416z"/>
		<path d="M232.906,37.025v5.287l0.103,0.123v2.849l0.082,0.082l-0.041,0.123v1.659l-0.041-0.041v0.041l-0.082-0.041h-2.377
			l-0.041-0.082v-6.844l0.082-0.123v-3.033H232.906z M231.021,48.808h2.09v0.636l-0.021-0.021l0.062,0.471v1.291l-0.041,0.082
			h-2.603v-2.5L231.021,48.808z"/>
	</g>
	<g>
		<g>
			<path fill="#FE85AE" d="M153.059,272.91c-17.9-25.397-17.382-42.594-8.83-47.212c20.021-10.809,144.632,4.783,153.158-17.038
				c13.398-30.361-12.18-46.492-47.502-53.132c-28.015-6.641-138.603-10.046-161.744,6.083
				C65,178.689,62.563,213.793,97.886,220.434c15.833,2.847,7.763,0.01,21.159,3.805
				C134.879,228.983,132.026,258.346,153.059,272.91z"/>
		</g>
		<g>
			<path d="M103.216,179.774l3.725-11.998h2.425l-4.266,13.882l-0.173-0.022l-0.151,0.368h-1.408l-0.086,0.108h-0.563l-0.217,0.043
				h-0.931l-0.282,0.043l0.044-0.043l-2.772-14.488l0.325-0.087l0.044,0.043h1.624L103.216,179.774z"/>
			<path d="M118.481,180.316v1.841h-6.541l0.325-9.854l0.108-0.065v-5.111h6.108v2.014h-4.029l-0.194,5.067l0.108,0.043h3.768v1.624
				h-3.92l-0.086,1.299l0.043,0.13l-0.043,0.26v2.815L118.481,180.316z"/>
			<path d="M123.502,182.156h-2.122v-14.878h6.216c1.689,0,2.144,1.321,2.144,2.36v4.029c0,0.866-0.801,1.754-1.473,1.754h-0.931
				l2.729,6.735h-2.512l-2.447-6.735h-1.646L123.502,182.156z M127.573,169.487h-4.136v3.833h0.216l0.108,0.13h3.812V169.487z"/>
			<path d="M134.544,169.552v10.764h3.703v-3.812l-0.065-0.802l-0.498-0.541h-1.603v-1.797l0.043-0.217h2.859
				c0.39,0,1.277,0.325,1.277,1.213v5.565c0,1.321-1.234,2.014-1.559,2.188c-0.021,0.022-0.043,0.043-0.065,0.043h-4.375
				c-0.584,0-1.603-0.585-1.603-1.3v-3.682l-0.043-0.086l0.086-0.043v-7.926c0-0.758,0.866-1.733,2.187-1.733h3.898
				c0.455,0,1.343,0.282,1.343,1.754v1.603h-1.862l-0.043-1.213L134.544,169.552z"/>
			<path d="M143.009,167.516l2.317-0.26v8.056l-0.13,0.065v6.67l-1.408,0.108h-0.931L143.009,167.516z"/>
			<path d="M154.291,175.378c0-0.542-0.65-0.671-1.17-0.714h-2.924c-1.667,0-2.144-1.083-2.144-1.56v-3.119
				c0-1.992,2.339-2.923,2.339-2.923h5.479v2.036h-4.634c-0.412,0-0.931,0.368-0.931,1.343v2.274h3.811
				c1.191,0,2.123,0.909,2.123,1.775v5.783c0,0.65-0.455,1.884-1.971,1.884h-6.128v-2.014h5.11c0.217,0,1.083-0.282,1.083-0.802
				L154.291,175.378z"/>
			<path d="M165.528,175.378c0-0.542-0.65-0.671-1.17-0.714h-2.923c-1.667,0-2.144-1.083-2.144-1.56v-3.119
				c0-1.992,2.338-2.923,2.338-2.923h5.479v2.036h-4.635c-0.411,0-0.931,0.368-0.931,1.343v2.274h3.812
				c1.191,0,2.123,0.909,2.123,1.775v5.783c0,0.65-0.455,1.884-1.971,1.884h-6.128v-2.014h5.111c0.217,0,1.083-0.282,1.083-0.802
				L165.528,175.378z"/>
			<path d="M178.906,182.178h-0.909l-0.043-0.043h-0.845v-14.51l-0.173-0.13l0.195-0.13h1.624l0.087-0.086h1.125l2.794,7.926v-7.883
				l1.559-0.195h0.411l0.021,0.26c0,0.021,0,0.043-0.021,0.065h0.173v8.208l0.043,0.043l-0.043,0.044l0.043,0.021l-0.043,0.043
				l0.043,0.064v6.194h-1.04l-0.26-0.043l-0.13,0.043h-0.888l-3.725-10.481V182.178z"/>
			<path d="M187.697,167.516l2.317-0.26v8.056l-0.13,0.065v6.67l-1.408,0.108h-0.931L187.697,167.516z"/>
			<path d="M200.429,167.279v1.97l-3.855,0.26c-1.018,0-1.581,0.584-1.581,0.91v3.486l0.108,0.087v4.591
				c0,0.974,0.693,1.342,1.126,1.342h4.288v2.231h-5.328c-0.693,0-2.382-0.823-2.382-2.101v-2.967l-0.086-0.086l0.043-0.043
				l-0.043-0.065l0.043-0.022l-0.043-0.129v-5.544l-0.108-0.065h0.043l-0.043-0.086v-1.365c0-0.975,1.538-2.057,2.057-2.057
				l1.906-0.238h1.213l0.086-0.108H200.429z"/>
			<path d="M207.985,167.018h2.23v15.138h-1.97v-6.844h-2.75v6.844h-2.014v-14.878h2.144v6.28l2.339-0.108L207.985,167.018z"/>
			<path d="M217.662,182.156v-12.843h-4.223v-1.581l-0.086-0.022v-0.238h8.403l0.086-0.26h1.104l0.542-0.043l0.065,0.39l0.065,0.737
				v1.039h-3.617v12.713l-0.064,0.108h-0.715l-0.086-0.043l-0.087,0.043H217.662z"/>
			<path d="M226.538,179.276h1.387l0.087,0.043l0.086-0.043l0.044,0.043h1.256v1.234l-0.498,1.278l-0.195,0.281l-0.692,0.715
				l-0.671,0.542l-0.606,0.086h-0.434l-0.087-0.217l0.043-0.26l0.174-0.325l0.194-0.584l-0.043-0.086l0.087-0.499l-0.131-0.368
				h0.044v-0.216l-0.044-0.044V179.276z"/>
			<path d="M91.655,193.152l2.426,0.303v0.195l0.043,0.065l1.582,13.881l0.043,0.087l-0.281,0.455h-0.303l-0.043,0.043l-0.043-0.043
				l-0.216,0.043h-1.408l-0.823-6.735h-1.343l-0.129-0.086h-2.145l-0.086,0.086l-1.625,6.541l0.087,0.043h-2.058l-0.13,0.108h-0.584
				l4.049-14.835h2.404l0.065-0.173L91.655,193.152z M91.547,195.881l-0.043,0.043h-1.234l-0.065-0.043l-0.844,3.421v0.39h3.054
				l-0.39-2.512l-0.065-0.975l-0.043-0.021l0.043-0.043l-0.086-0.108v-0.151H91.547z"/>
			<path d="M97.802,193.346h2.057v11.218c0,0.65,0.65,1.104,1.04,1.104h2.404c0.346,0,0.585-0.499,0.649-0.996v-11.305h2.188v13.06
				c0,0.736-1.061,1.624-1.754,1.71h-4.808c-0.931,0-1.776-0.779-1.776-2.23v-3.487V193.346z"/>
			<path d="M116.553,193.26v1.971l-3.855,0.26c-1.018,0-1.581,0.584-1.581,0.91v3.487l0.108,0.086v4.591
				c0,0.975,0.693,1.343,1.126,1.343h4.288v2.23h-5.328c-0.693,0-2.382-0.823-2.382-2.101v-2.967l-0.086-0.086l0.043-0.043
				l-0.043-0.065l0.043-0.022l-0.043-0.13v-5.544l-0.108-0.065h0.043l-0.043-0.087v-1.364c0-0.975,1.538-2.058,2.058-2.058
				l1.905-0.238h1.213l0.087-0.108H116.553z"/>
			<path d="M124.109,193h2.231v15.138h-1.971v-6.843h-2.75v6.843h-2.014V193.26h2.144v6.28l2.339-0.108L124.109,193z"/>
			<path d="M142.383,201.36c0-0.542-0.65-0.671-1.17-0.715h-2.923c-1.667,0-2.144-1.083-2.144-1.56v-3.118
				c0-1.993,2.338-2.924,2.338-2.924h5.479v2.036h-4.634c-0.411,0-0.931,0.368-0.931,1.343v2.274h3.812
				c1.191,0,2.123,0.91,2.123,1.776v5.783c0,0.649-0.455,1.884-1.971,1.884h-6.128v-2.014h5.111c0.216,0,1.083-0.282,1.083-0.802
				L142.383,201.36z"/>
			<path d="M153.425,193.152l2.426,0.303v0.195l0.043,0.065l1.581,13.881l0.043,0.087l-0.281,0.455h-0.303l-0.044,0.043
				l-0.043-0.043l-0.216,0.043h-1.408l-0.823-6.735h-1.343l-0.13-0.086h-2.144l-0.086,0.086l-1.624,6.541l0.086,0.043h-2.058
				l-0.13,0.108h-0.584l4.049-14.835h2.404l0.065-0.173L153.425,193.152z M153.317,195.881l-0.043,0.043h-1.235l-0.065-0.043
				l-0.845,3.421v0.39h3.054l-0.39-2.512l-0.065-0.975l-0.043-0.021l0.043-0.043l-0.086-0.108v-0.151H153.317z"/>
			<path d="M163.6,208.138v-12.842h-4.223v-1.581l-0.086-0.022v-0.238h8.402l0.087-0.26h1.104l0.542-0.043l0.064,0.39l0.065,0.736
				v1.04h-3.617v12.713l-0.065,0.108h-0.714l-0.086-0.043l-0.087,0.043H163.6z"/>
			<path d="M176.461,208.138v-12.842h-4.223v-1.581l-0.087-0.022v-0.238h8.403l0.087-0.26h1.104l0.542-0.043l0.064,0.39l0.065,0.736
				v1.04H178.8v12.713l-0.065,0.108h-0.714l-0.086-0.043l-0.087,0.043H176.461z"/>
			<path d="M191.551,193.195h8.1l-4.613,12.951h4.786v0.693l0.065,0.043v1.343h-7.211v-1.884l-0.13-0.065l4.439-11.348h-4.894
				l-0.065-0.087h-0.434l-0.043-0.714V193.195z"/>
			<path d="M202.766,193.346h2.057v11.218c0,0.65,0.65,1.104,1.04,1.104h2.404c0.346,0,0.585-0.499,0.649-0.996v-11.305h2.188v13.06
				c0,0.736-1.061,1.624-1.754,1.71h-4.808c-0.931,0-1.776-0.779-1.776-2.23v-3.487V193.346z"/>
			<path d="M235.247,193.043c-0.044,0.108-0.065,0.282-0.065,0.303l0.021,0.021l-3.4,14.77h-1.927l-2.253-6.952l-0.043-0.043
				l-3.011,6.952l0.021,0.043h-2.079l-2.685-14.813h2.339l1.797,10.915l2.599-6.302h2.361l1.862,5.761l2.339-10.655H235.247z"/>
			<path d="M244.359,206.297v1.841h-6.54l0.325-9.854l0.107-0.065v-5.11h6.107v2.014h-4.028l-0.194,5.068l0.107,0.043h3.769v1.624
				h-3.92l-0.086,1.3l0.043,0.13l-0.043,0.26v2.815L244.359,206.297z"/>
			<path d="M249.381,208.138h-2.122V193.26h6.216c1.688,0,2.144,1.321,2.144,2.36v4.028c0,0.866-0.802,1.754-1.473,1.754h-0.931
				l2.729,6.735h-2.513l-2.447-6.735h-1.646L249.381,208.138z M253.452,195.469h-4.136v3.833h0.217l0.108,0.13h3.811V195.469z"/>
			<path d="M258.539,208.138l-0.043-0.736l0.043-0.043l-0.043-0.13l0.043-0.086v-8.121l-0.043-0.195l0.043-0.065v-3.552
				l-0.043-0.108l0.043-0.022v-1.321h4.136l0.087,0.043h1.191c1.17,0,2.404,1.97,2.404,2.815v9.313c0,0.802-1.301,2.209-2.253,2.209
				H258.539z M260.878,196.184l-0.065,0.043h-0.303v1.408l0.086,0.087h-0.043v0.368l0.043,0.043l-0.043,0.021l0.108,0.109v5.414
				l0.043,0.087v1.992l0.108,0.13h2.166l0.043-0.043h0.498l0.802-0.303h0.107v-4.288h-0.043l0.043-0.043l-0.151-0.216v-3.941
				l-0.13-0.498l-0.758-0.368H260.878z"/>
			<path d="M275.471,206.297v1.841h-6.54l0.324-9.854l0.108-0.065v-5.11h6.107v2.014h-4.028l-0.194,5.068l0.107,0.043h3.769v1.624
				h-3.92l-0.086,1.3l0.043,0.13l-0.043,0.26v2.815L275.471,206.297z"/>
			<path d="M280.038,208.159h-0.909l-0.043-0.043h-0.846v-14.51l-0.173-0.129l0.195-0.13h1.624l0.087-0.086h1.126l2.794,7.926
				v-7.883l1.559-0.194h0.412l0.021,0.259c0,0.021,0,0.043-0.021,0.065h0.173v8.208l0.043,0.043l-0.043,0.043l0.043,0.021
				l-0.043,0.043l0.043,0.064v6.194h-1.039l-0.26-0.043l-0.13,0.043h-0.888l-3.726-10.482V208.159z"/>
			<path d="M291.211,193.087v5.587l0.108,0.13v3.01l0.086,0.087l-0.043,0.13v1.754l-0.043-0.043v0.043l-0.087-0.043h-2.512
				l-0.044-0.087v-7.233l0.087-0.13v-3.205H291.211z M289.219,205.539h2.208v0.671l-0.021-0.021l0.065,0.498v1.365l-0.044,0.086
				h-2.75v-2.642L289.219,205.539z"/>
		</g>
	</g>
	<g>
		<g>
			<path fill="#FD9843" d="M149.491,441.967c-17.122-29.334-16.626-49.2-8.446-54.531c19.15-12.485,138.343,5.523,146.5-19.682
				c12.814-35.068-11.651-53.697-45.438-61.369c-26.797-7.67-132.577-11.604-154.711,7.026
				c-22.136,19.727-24.466,60.273,9.32,67.945c15.146,3.287,7.425,0.011,20.24,4.394
				C132.101,391.228,129.371,425.144,149.491,441.967z"/>
		</g>
		<g>
			<path d="M94.472,336.086v2.245h-7.974l0.396-12.014l0.132-0.079v-6.231h7.446v2.456h-4.911l-0.237,6.178l0.132,0.053h4.594v1.98
				h-4.779l-0.106,1.584l0.053,0.158l-0.053,0.317v3.433L94.472,336.086z"/>
			<path d="M97.824,320.481l2.825-0.316v9.822l-0.158,0.079v8.131l-1.716,0.133h-1.136L97.824,320.481z"/>
			<path d="M106.22,338.356h-1.109l-0.053-0.053h-1.03v-17.689l-0.211-0.159l0.238-0.159h1.98l0.106-0.106h1.373l3.406,9.664v-9.61
				l1.901-0.238h0.502l0.026,0.317c0,0.026,0,0.052-0.026,0.079h0.211v10.007l0.053,0.053l-0.053,0.052l0.053,0.026l-0.053,0.053
				l0.053,0.08v7.551h-1.267l-0.317-0.053l-0.159,0.053h-1.082l-4.542-12.78V338.356z"/>
			<path d="M132.489,330.066c0-0.66-0.792-0.819-1.426-0.872h-3.564c-2.033,0-2.614-1.32-2.614-1.901v-3.803
				c0-2.429,2.852-3.563,2.852-3.563h6.68v2.482h-5.65c-0.501,0-1.135,0.448-1.135,1.637v2.772h4.647
				c1.452,0,2.587,1.108,2.587,2.165v7.05c0,0.792-0.554,2.297-2.402,2.297h-7.473v-2.456h6.231c0.264,0,1.32-0.343,1.32-0.977
				L132.489,330.066z"/>
			<path d="M145.953,320.059l2.958,0.37v0.237l0.053,0.08l1.927,16.924l0.053,0.106l-0.343,0.555h-0.37l-0.053,0.052l-0.053-0.052
				l-0.264,0.052h-1.716l-1.003-8.211h-1.637l-0.159-0.105h-2.614l-0.105,0.105l-1.98,7.974l0.105,0.052h-2.508l-0.159,0.133h-0.712
				l4.937-18.086h2.931l0.08-0.211L145.953,320.059z M145.821,323.385l-0.053,0.053h-1.505l-0.079-0.053l-1.03,4.172v0.475h3.723
				l-0.476-3.063l-0.079-1.188l-0.053-0.026l0.053-0.052l-0.105-0.133v-0.185H145.821z"/>
			<path d="M158.362,338.33v-15.658h-5.149v-1.927l-0.105-0.026v-0.291h10.244l0.105-0.317h1.347l0.66-0.052l0.079,0.475l0.08,0.898
				v1.267h-4.41v15.499l-0.079,0.133h-0.871l-0.105-0.053l-0.106,0.053H158.362z"/>
			<path d="M174.044,338.33v-15.658h-5.149v-1.927l-0.105-0.026v-0.291h10.244l0.106-0.317h1.346l0.661-0.052l0.079,0.475
				l0.08,0.898v1.267h-4.41v15.499l-0.079,0.133h-0.871l-0.105-0.053l-0.105,0.053H174.044z"/>
			<path d="M198.835,338.04h-0.872l-0.316-0.053l-0.37,0.053h-1.004v-7.736l-0.053-0.264v-5.148l-2.904,3.563l-0.027,0.105
				l-2.086,2.43l-3.934-6.152v13.571l-0.079-0.053l-0.106,0.053l-0.528-0.159l-0.08,0.105l-1.689-0.105l-0.159-0.053v-3.167
				l0.053-0.053l-0.053-0.08v-11.696l-0.158-0.344v-2.719h0.264l0.396-0.132h2.244l3.908,6.363l2.64-3.828h0.08l2.033-2.904h2.798
				V338.04z"/>
			<path d="M209.711,320.059l2.957,0.37v0.237l0.053,0.08l1.928,16.924l0.053,0.106l-0.343,0.555h-0.37l-0.053,0.052l-0.053-0.052
				l-0.264,0.052h-1.716l-1.003-8.211h-1.637l-0.158-0.105h-2.614l-0.105,0.105l-1.979,7.974l0.105,0.052h-2.509l-0.158,0.133
				h-0.713l4.938-18.086h2.931l0.079-0.211L209.711,320.059z M209.579,323.385l-0.053,0.053h-1.505l-0.079-0.053l-1.03,4.172v0.475
				h3.723l-0.475-3.063l-0.079-1.188l-0.053-0.026l0.053-0.052l-0.105-0.133v-0.185H209.579z"/>
			<path d="M226.397,320.191v2.403l-4.7,0.317c-1.241,0-1.927,0.713-1.927,1.109v4.251l0.132,0.105v5.597
				c0,1.188,0.845,1.637,1.373,1.637h5.228v2.72h-6.496c-0.844,0-2.904-1.003-2.904-2.562v-3.617l-0.105-0.105l0.053-0.053
				l-0.053-0.08l0.053-0.026l-0.053-0.159v-6.759l-0.132-0.079h0.053l-0.053-0.106v-1.663c0-1.188,1.875-2.508,2.508-2.508
				l2.323-0.291h1.479l0.105-0.133H226.397z"/>
			<path d="M235.61,319.874h2.72v18.456h-2.402v-8.343h-3.354v8.343h-2.455v-18.14h2.613v7.657l2.852-0.132L235.61,319.874z"/>
			<path d="M250.105,336.086v2.245h-7.975l0.396-12.014l0.133-0.079v-6.231h7.446v2.456h-4.912l-0.237,6.178l0.132,0.053h4.594v1.98
				h-4.778l-0.105,1.584l0.053,0.158l-0.053,0.317v3.433L250.105,336.086z"/>
			<path d="M256.229,338.33h-2.588v-18.14h7.577c2.06,0,2.614,1.611,2.614,2.878v4.911c0,1.056-0.977,2.138-1.796,2.138h-1.135
				l3.326,8.212h-3.062l-2.983-8.212h-2.008L256.229,338.33z M261.193,322.884h-5.044v4.673h0.265l0.132,0.159h4.647V322.884z"/>
			<path d="M104.24,353.086l-0.053,0.053h0.053v0.105l-0.053,0.08l-0.08,1.083h-6.469v4.357h5.386v2.138h-5.359l-0.159,0.053
				l-0.053,0.131l-0.053,0.026v8.924H94.92v-17.637h9.083L104.24,353.086z"/>
			<path d="M115.355,367.767v2.245h-7.974l0.396-12.014l0.132-0.08v-6.231h7.446v2.456h-4.911l-0.237,6.178l0.132,0.053h4.594v1.98
				h-4.779l-0.106,1.584l0.053,0.158l-0.053,0.317v3.433L115.355,367.767z"/>
			<path d="M124.462,351.555h2.72v18.456h-2.402v-8.344h-3.354v8.344h-2.455v-18.14h2.614v7.657l2.852-0.131L124.462,351.555z"/>
			<path d="M133.677,367.503h6.099l-0.132,2.508h-8.634v-18.508h2.64v15.049L133.677,367.503z"/>
			<path d="M148.197,370.011v-15.658h-5.149v-1.927l-0.105-0.026v-0.291h10.244l0.106-0.317h1.346l0.661-0.052l0.079,0.475
				l0.08,0.898v1.267h-4.409v15.499l-0.08,0.133h-0.871l-0.105-0.053l-0.105,0.053H148.197z"/>
			<path d="M169,370.037h-1.108l-0.053-0.053h-1.03v-17.689l-0.211-0.159l0.238-0.159h1.98l0.106-0.105h1.373l3.406,9.664v-9.61
				l1.901-0.238h0.501l0.027,0.318c0,0.026,0,0.052-0.027,0.079h0.211v10.007l0.053,0.053l-0.053,0.052l0.053,0.026l-0.053,0.053
				l0.053,0.079v7.551h-1.267l-0.317-0.053l-0.159,0.053h-1.082L169,357.126V370.037z"/>
			<path d="M191.706,365.655l-0.105,1.109c0,2.165-1.584,3.168-2.535,3.168h-2.983l-0.053,0.105l-0.053-0.053l-0.106,0.053h-4.303
				c-1.083,0-2.033-1.795-2.033-2.587v-11.697c0-2.587,1.531-3.511,2.402-3.511h0.501l0.898-0.211l0.053,0.053l2.482-0.396h1.426
				c1.584,0,3.829,1.11,3.829,3.592h0.053v0.686L191.706,365.655z M188.485,354.935l-1.637-0.977l-0.211,0.159h-2.297l-0.106,0.052
				l-0.026-0.052l-0.053,0.052h-0.528v-0.052h-0.053l-1.188,0.977v1.953l0.053,0.027l-0.053,0.052l0.132,0.211v4.542l0.053,0.026
				l-0.053,0.08l0.053,0.105l-0.053,0.053l0.185,0.66v4.33l0.053,0.053v0.264l0.132,0.291l0.554,0.422h0.713l0.132-0.08h2.403
				l-0.211-0.291l0.713-0.105l0.053,0.344h0.818l0.555-0.713l0.29-0.555L188.485,354.935z"/>
			<path d="M204.536,351.872v2.403l-4.7,0.317c-1.241,0-1.928,0.713-1.928,1.109v4.251l0.132,0.105v5.597
				c0,1.188,0.845,1.637,1.373,1.637h5.228v2.72h-6.495c-0.845,0-2.904-1.003-2.904-2.562v-3.617l-0.105-0.105l0.053-0.054
				l-0.053-0.079l0.053-0.026l-0.053-0.159v-6.759l-0.132-0.078h0.053l-0.053-0.106v-1.663c0-1.188,1.875-2.508,2.508-2.508
				l2.324-0.291h1.479l0.105-0.133H204.536z"/>
			<path d="M213.75,351.555h2.719v18.456h-2.402v-8.344h-3.354v8.344h-2.455v-18.14h2.614v7.657l2.852-0.131L213.75,351.555z"/>
			<path d="M223.385,351.661v6.813l0.133,0.158v3.67l0.105,0.105l-0.053,0.159v2.138l-0.052-0.052v0.052l-0.105-0.052h-3.063
				l-0.053-0.106v-8.819l0.105-0.159v-3.907H223.385z M220.957,366.843h2.693v0.818l-0.026-0.026l0.079,0.607v1.664l-0.052,0.106
				h-3.354v-3.222L220.957,366.843z"/>
		</g>
	</g>
</g>
</svg>
