<?xml version="1.0" encoding="utf-8"?>
<!-- Generator: Adobe Illustrator 16.0.3, SVG Export Plug-In . SVG Version: 6.00 Build 0)  -->
<!DOCTYPE svg PUBLIC "-//W3C//DTD SVG 1.1//EN" "http://www.w3.org/Graphics/SVG/1.1/DTD/svg11.dtd">
<svg version="1.1" id="Ebene_1" xmlns="http://www.w3.org/2000/svg" xmlns:xlink="http://www.w3.org/1999/xlink" x="0px" y="0px"
	 width="450px" height="1000px" viewBox="0 0 450 1000" enable-background="new 0 0 450 1000" xml:space="preserve">
<g id="Layer_2">
</g>
<path fill="#AACC52" d="M10.421,81.967c0.418-2.078,1.503-6.469,1.503-8.22c0-6.588-1.503-25.137-1.503-25.137
	c0-2.563,3.491-4.642,7.797-4.642c0,0,142.089-3.142,177.526-1.486c10.515,0.492,42.865,1.486,42.865,1.486
	c4.307,0,7.797,2.079,7.797,4.642c0,0,4.503,30.685,3.428,40.904c-0.309,2.928-3.428,11.558-3.428,11.558
	c0,2.563-3.506,4.438-7.797,4.642c-7.465,0.353-22.305,2.128-29.74,2.128c-2.687,0-5.885-0.096-9.417-0.253
	c0.142,3.167-1.409,7.468-3.936,11.034c-5.913,8.346-12.768,28.629-24.656,30.62c0,0-2.736-0.024,1.426-1.58
	c4.157-1.558,8.05-14.78,14.031-31.164c0.637-1.745,2.686-6.373,0.355-9.633C169.757,105.842,135.038,103,114.23,103
	c-12.798,0-83.773,2.388-96.012,2.713c-4.3,0.114-7.797-2.079-7.797-4.642C10.421,101.071,9.472,86.709,10.421,81.967z"/>
<g>
	<path d="M26.401,67.7h-0.86L25.5,67.659h-0.8v-13.73l-0.164-0.123l0.185-0.123h1.537l0.082-0.082h1.066l2.644,7.501v-7.46
		l1.475-0.184h0.39l0.021,0.245c0,0.021,0,0.041-0.021,0.062h0.164v7.767l0.041,0.041l-0.041,0.041l0.041,0.021l-0.041,0.041
		l0.041,0.062v5.861h-0.984l-0.246-0.041l-0.123,0.041h-0.84l-3.525-9.919L26.401,67.7L26.401,67.7z"/>
	<path d="M34.842,53.683h1.947v10.615c0,0.615,0.615,1.046,0.983,1.046h2.275c0.328,0,0.553-0.472,0.615-0.943V53.703h2.07V66.06
		c0,0.696-1.004,1.537-1.66,1.619h-4.549c-0.881,0-1.68-0.738-1.68-2.111V62.27L34.842,53.683L34.842,53.683z"/>
	<path d="M47.484,67.68h-2.008V53.601h5.881c1.598,0,2.029,1.251,2.029,2.234v3.812c0,0.819-0.758,1.66-1.394,1.66h-0.881
		l2.582,6.373h-2.377L49,61.307h-1.557L47.484,67.68z M51.337,55.692h-3.914v3.627h0.205l0.103,0.123h3.607L51.337,55.692
		L51.337,55.692z"/>
	<path d="M66.703,65.425l3.525-11.353h2.295l-4.037,13.136l-0.164-0.021l-0.144,0.349h-1.332l-0.082,0.103h-0.533l-0.205,0.041
		h-0.881l-0.267,0.041l0.041-0.041l-2.623-13.71l0.308-0.082l0.041,0.041h1.537L66.703,65.425z"/>
	<path d="M84.427,64.298l-0.082,0.861c0,1.68-1.229,2.459-1.967,2.459h-2.316L80.021,67.7l-0.041-0.041L79.899,67.7h-3.34
		c-0.84,0-1.578-1.394-1.578-2.009v-9.078c0-2.008,1.188-2.726,1.865-2.726h0.39l0.697-0.164l0.041,0.041l1.926-0.307h1.106
		c1.229,0,2.971,0.86,2.971,2.786h0.041v0.533L84.427,64.298z M81.927,55.979l-1.271-0.759l-0.164,0.123H78.71l-0.082,0.041
		l-0.021-0.041l-0.041,0.041h-0.41v-0.041h-0.041l-0.922,0.759v1.516l0.041,0.021l-0.041,0.041l0.103,0.164v3.525l0.041,0.021
		l-0.041,0.061l0.041,0.082l-0.041,0.041l0.143,0.513v3.36l0.041,0.041v0.205l0.103,0.226l0.431,0.328h0.553l0.102-0.062h1.865
		l-0.164-0.226l0.553-0.082l0.041,0.267h0.635l0.43-0.554l0.226-0.43L81.927,55.979z"/>
	<path d="M88.852,67.7h-0.86l-0.041-0.041h-0.799v-13.73l-0.164-0.123l0.185-0.123h1.537l0.082-0.082h1.066l2.644,7.501v-7.46
		l1.475-0.184h0.39l0.021,0.245c0,0.021,0,0.041-0.021,0.062h0.164v7.767l0.041,0.041l-0.041,0.041l0.041,0.021l-0.041,0.041
		l0.041,0.062v5.861h-0.984l-0.246-0.041l-0.123,0.041h-0.84l-3.525-9.919V67.7H88.852z"/>
	<path d="M105.038,55.753v10.185h3.504v-3.606l-0.062-0.759l-0.471-0.512h-1.517V59.36l0.041-0.205h2.705
		c0.369,0,1.209,0.308,1.209,1.146v5.267c0,1.25-1.168,1.906-1.476,2.07c-0.021,0.021-0.041,0.041-0.062,0.041h-4.139
		c-0.553,0-1.517-0.554-1.517-1.229v-3.484l-0.041-0.082l0.082-0.041v-7.5c0-0.717,0.82-1.64,2.07-1.64h3.688
		c0.431,0,1.271,0.267,1.271,1.66v1.517h-1.762l-0.041-1.147L105.038,55.753z"/>
	<path d="M119.074,65.938v1.742h-6.189l0.308-9.324l0.103-0.062v-4.836h5.779v1.905h-3.812l-0.185,4.795l0.103,0.041h3.565v1.537
		h-3.709l-0.082,1.229l0.041,0.123l-0.041,0.246v2.664L119.074,65.938z"/>
	<path d="M132.679,67.454h-0.676l-0.246-0.041l-0.287,0.041h-0.779v-6.005l-0.041-0.204v-3.996l-2.254,2.767l-0.021,0.082
		l-1.619,1.885l-3.053-4.774v10.533l-0.062-0.041l-0.082,0.041l-0.41-0.123l-0.062,0.082l-1.312-0.082l-0.123-0.041v-2.459
		l0.041-0.041l-0.041-0.062v-9.078l-0.123-0.267v-2.11h0.205l0.307-0.103h1.742l3.033,4.938l2.049-2.972h0.062l1.578-2.254h2.172
		v14.284H132.679z"/>
	<path d="M135.547,53.683h1.947v10.615c0,0.615,0.615,1.046,0.983,1.046h2.275c0.328,0,0.553-0.472,0.615-0.943V53.703h2.07V66.06
		c0,0.696-1.004,1.537-1.66,1.619h-4.549c-0.881,0-1.68-0.738-1.68-2.111V62.27L135.547,53.683L135.547,53.683z M138.825,50.076
		v2.254h-2.049v-1.659l-0.164-0.164v-0.431H138.825z M142.227,50.076l0.143,1.619l-0.143,0.635h-2.049v-1.659l-0.164-0.164v-0.431
		H142.227z"/>
	<path d="M151.918,61.266c0-0.513-0.615-0.636-1.106-0.677h-2.767c-1.578,0-2.029-1.024-2.029-1.476v-2.95
		c0-1.886,2.213-2.767,2.213-2.767h5.185v1.926h-4.386c-0.389,0-0.881,0.349-0.881,1.271v2.152h3.606c1.127,0,2.008,0.86,2.008,1.68
		v5.472c0,0.615-0.43,1.783-1.865,1.783h-5.799v-1.906h4.836c0.205,0,1.025-0.267,1.025-0.758L151.918,61.266z"/>
	<path d="M162.696,65.938v1.742h-6.189l0.308-9.324l0.103-0.062v-4.836h5.779v1.905h-3.813l-0.185,4.795l0.103,0.041h3.565v1.537
		h-3.709l-0.082,1.229l0.041,0.123l-0.041,0.246v2.664L162.696,65.938z"/>
	<path d="M185.542,53.397c-0.041,0.103-0.061,0.266-0.061,0.286l0.021,0.021l-3.218,13.977h-1.824l-2.131-6.578l-0.041-0.041
		l-2.849,6.578l0.021,0.041h-1.967l-2.541-14.018h2.213l1.701,10.329l2.459-5.964h2.234l1.762,5.451l2.213-10.082H185.542z"/>
	<path d="M188.142,53.826l2.193-0.246v7.624l-0.123,0.062v6.312l-1.332,0.103h-0.881L188.142,53.826z"/>
	<path d="M195.089,67.68h-2.008V53.601h5.881c1.598,0,2.029,1.251,2.029,2.234v3.812c0,0.819-0.758,1.66-1.394,1.66h-0.881
		l2.582,6.373h-2.377l-2.316-6.373h-1.557L195.089,67.68z M198.941,55.692h-3.914v3.627h0.205l0.103,0.123h3.607L198.941,55.692
		L198.941,55.692z"/>
	<path d="M209.739,61.266c0-0.513-0.615-0.636-1.106-0.677h-2.767c-1.578,0-2.029-1.024-2.029-1.476v-2.95
		c0-1.886,2.213-2.767,2.213-2.767h5.185v1.926h-4.386c-0.389,0-0.881,0.349-0.881,1.271v2.152h3.606c1.127,0,2.008,0.86,2.008,1.68
		v5.472c0,0.615-0.43,1.783-1.865,1.783h-5.799v-1.906h4.836c0.205,0,1.025-0.267,1.025-0.758L209.739,61.266z"/>
	<path d="M218.427,67.68V55.528h-3.996v-1.496l-0.082-0.021v-0.226h7.951l0.082-0.245h1.045l0.513-0.041l0.06,0.368l0.062,0.697
		v0.983h-3.422v12.029l-0.062,0.103h-0.676l-0.082-0.041l-0.082,0.041L218.427,67.68L218.427,67.68z"/>
	<path d="M18.389,92.267l-0.041-0.696l0.041-0.041l-0.041-0.123l0.041-0.082V83.64l-0.041-0.185l0.041-0.062v-3.36l-0.041-0.103
		l0.041-0.021v-1.25h3.914l0.082,0.041h1.127c1.107,0,2.275,1.864,2.275,2.664v8.812c0,0.758-1.229,2.09-2.131,2.09L18.389,92.267
		L18.389,92.267z M20.603,80.955l-0.062,0.041h-0.287v1.332l0.082,0.082h-0.041v0.348l0.041,0.041l-0.041,0.021l0.103,0.103v5.123
		l0.041,0.082v1.886l0.103,0.123h2.049l0.041-0.041h0.471l0.758-0.287h0.103V85.75h-0.041l0.041-0.041l-0.144-0.205v-3.729
		l-0.123-0.471l-0.717-0.349H20.603z"/>
	<path d="M28.511,78.271h1.947v10.615c0,0.614,0.615,1.045,0.983,1.045h2.275c0.328,0,0.553-0.472,0.615-0.942V78.291h2.07v12.356
		c0,0.697-1.004,1.537-1.66,1.619h-4.549c-0.881,0-1.68-0.737-1.68-2.11v-3.3L28.511,78.271L28.511,78.271z"/>
	<path d="M50.886,78.086l2.295,0.287v0.185l0.041,0.062l1.496,13.136l0.041,0.082l-0.266,0.43h-0.287l-0.041,0.041l-0.041-0.041
		l-0.205,0.041h-1.332l-0.779-6.373h-1.271l-0.123-0.082h-2.029l-0.082,0.082l-1.537,6.188l0.082,0.041h-1.947l-0.123,0.103h-0.554
		l3.833-14.037h2.274l0.062-0.164L50.886,78.086z M50.783,80.668l-0.041,0.041h-1.168l-0.062-0.041l-0.799,3.238v0.368h2.889
		l-0.369-2.377l-0.062-0.922l-0.041-0.021l0.041-0.041l-0.082-0.103v-0.144h-0.306V80.668z"/>
	<path d="M56.479,77.984h4.877l0.697,0.164l0.328,0.164l0.656,0.983l0.103,0.041l0.574,2.767l-0.041,0.554
		c-0.164,0.389-0.389,0.881-0.942,1.312c0.819,0.286,1.229,0.86,1.578,1.373v5.164c0,0.471-0.471,1.7-1.721,1.7h-5.902l-0.246-0.164
		h0.041v-1.454h0.041l-0.041-0.041v-0.082h0.041l-0.041-0.041l0.041-0.041h-0.041l0.041-0.185l-0.041-0.063l0.041-0.041
		l-0.041-0.021l0.041-0.205l-0.041-0.205l0.041-0.021L56.479,77.984z M58.487,86.222v2.992l-0.041,0.021V89.5l0.041,0.041
		l-0.041,0.205v0.39l0.123-0.103h3.299l0.082-0.041h0.43v-3.771h-0.717l-0.041,0.041l-0.205-0.041l-0.287,0.041l-0.144-0.041
		L58.487,86.222L58.487,86.222z M58.733,80.013v4.037h2.069c0,0,0.82-1.005,0.82-2.214c0-0.922-0.164-1.741-0.164-1.741
		l-0.184-0.041L58.733,80.013z"/>
	<path d="M72.933,90.526v1.741h-6.189l0.308-9.324l0.103-0.062v-4.836h5.779v1.906h-3.812l-0.185,4.795l0.103,0.041h3.565v1.537
		h-3.709l-0.082,1.229l0.041,0.123l-0.041,0.246v2.664L72.933,90.526z"/>
	<path d="M77.686,92.267h-2.008V78.189h5.881c1.598,0,2.029,1.25,2.029,2.233v3.812c0,0.82-0.758,1.66-1.394,1.66h-0.881
		l2.582,6.373h-2.377l-2.316-6.373h-1.557L77.686,92.267z M81.538,80.279h-3.914v3.628h0.205l0.103,0.123h3.607L81.538,80.279
		L81.538,80.279z"/>
	<path d="M98.339,78.086l2.295,0.287v0.185l0.041,0.062l1.496,13.136l0.041,0.082l-0.266,0.43h-0.287l-0.041,0.041l-0.041-0.041
		l-0.205,0.041h-1.332l-0.779-6.373H97.99l-0.123-0.082h-2.029l-0.082,0.082l-1.537,6.188l0.082,0.041h-1.947l-0.123,0.103h-0.554
		l3.833-14.037h2.274l0.062-0.164L98.339,78.086z M98.237,80.668l-0.041,0.041h-1.168l-0.062-0.041l-0.799,3.238v0.368h2.889
		l-0.369-2.377l-0.062-0.922l-0.041-0.021l0.041-0.041l-0.082-0.103v-0.144h-0.306V80.668z"/>
	<path d="M104.157,78.271h1.947v10.615c0,0.614,0.615,1.045,0.983,1.045h2.275c0.328,0,0.553-0.472,0.615-0.942V78.291h2.07v12.356
		c0,0.697-1.004,1.537-1.66,1.619h-4.549c-0.881,0-1.68-0.737-1.68-2.11v-3.3L104.157,78.271L104.157,78.271z"/>
	<path d="M121.902,78.189v1.865l-3.648,0.245c-0.963,0-1.496,0.554-1.496,0.861v3.299l0.103,0.082v4.345
		c0,0.922,0.656,1.271,1.065,1.271h4.058v2.11h-5.042c-0.656,0-2.254-0.778-2.254-1.987v-2.808l-0.082-0.082l0.041-0.041
		l-0.041-0.062l0.041-0.021l-0.041-0.123v-5.246l-0.103-0.062h0.041l-0.041-0.082v-1.291c0-0.922,1.455-1.946,1.947-1.946
		l1.803-0.226h1.148l0.082-0.103h2.419V78.189z"/>
	<path d="M129.052,77.943h2.111v14.324h-1.865v-6.476h-2.603v6.476h-1.906V78.189h2.028v5.942l2.213-0.102L129.052,77.943z"/>
	<path d="M142.185,92.287h-0.86l-0.041-0.041h-0.799V78.517l-0.164-0.123l0.185-0.123h1.537l0.082-0.082h1.066l2.644,7.5V78.23
		l1.475-0.185h0.39l0.021,0.246c0,0.021,0,0.041-0.021,0.062h0.164v7.767l0.041,0.041l-0.041,0.041l0.041,0.021l-0.041,0.041
		l0.041,0.062v5.86h-0.984l-0.246-0.041l-0.123,0.041h-0.84l-3.525-9.918v10.019H142.185z"/>
	<path d="M150.503,78.414l2.193-0.246v7.623l-0.123,0.062v6.312l-1.332,0.103h-0.881L150.503,78.414z"/>
	<path d="M162.552,78.189v1.865l-3.648,0.245c-0.963,0-1.496,0.554-1.496,0.861v3.299l0.103,0.082v4.345
		c0,0.922,0.656,1.271,1.065,1.271h4.058v2.11h-5.042c-0.656,0-2.254-0.778-2.254-1.987v-2.808l-0.082-0.082l0.041-0.041
		l-0.041-0.062l0.041-0.021l-0.041-0.123v-5.246l-0.103-0.062h0.041l-0.041-0.082v-1.291c0-0.922,1.455-1.946,1.947-1.946
		l1.803-0.226h1.148l0.082-0.103h2.419V78.189z"/>
	<path d="M169.702,77.943h2.111v14.324h-1.865v-6.476h-2.604v6.476h-1.906V78.189h2.029v5.942l2.213-0.102L169.702,77.943z"/>
	<path d="M178.861,92.267V80.115h-3.996v-1.496l-0.082-0.021v-0.226h7.951l0.082-0.246h1.045l0.512-0.041l0.062,0.369l0.062,0.696
		v0.983h-3.422v12.029l-0.062,0.103h-0.676l-0.082-0.041l-0.082,0.041h-1.312V92.267z"/>
	<path d="M199.166,85.853c0-0.512-0.615-0.635-1.106-0.676h-2.767c-1.578,0-2.029-1.025-2.029-1.476V80.75
		c0-1.886,2.213-2.767,2.213-2.767h5.185v1.927h-4.386c-0.389,0-0.881,0.348-0.881,1.271v2.151h3.606
		c1.127,0,2.008,0.86,2.008,1.681v5.472c0,0.614-0.43,1.782-1.865,1.782h-5.799v-1.905h4.836c0.205,0,1.025-0.267,1.025-0.759
		L199.166,85.853z"/>
	<path d="M209.615,78.086l2.295,0.287v0.185l0.041,0.062l1.496,13.136l0.041,0.082l-0.266,0.43h-0.287l-0.041,0.041l-0.041-0.041
		l-0.205,0.041h-1.332l-0.779-6.373h-1.271l-0.123-0.082h-2.029l-0.082,0.082l-1.537,6.188l0.082,0.041h-1.947l-0.123,0.103h-0.554
		l3.833-14.037h2.274l0.062-0.164L209.615,78.086z M209.513,80.668l-0.041,0.041h-1.168l-0.062-0.041l-0.799,3.238v0.368h2.889
		l-0.369-2.377l-0.062-0.922l-0.041-0.021l0.041-0.041l-0.082-0.103v-0.144h-0.306V80.668z"/>
	<path d="M219.245,92.267V80.115h-3.996v-1.496l-0.082-0.021v-0.226h7.951l0.082-0.246h1.045l0.512-0.041l0.062,0.369l0.062,0.696
		v0.983h-3.422v12.029l-0.062,0.103h-0.676l-0.082-0.041l-0.082,0.041h-1.312V92.267z"/>
	<path d="M231.416,92.267V80.115h-3.996v-1.496l-0.082-0.021v-0.226h7.951l0.082-0.246h1.046l0.513-0.041l0.062,0.369l0.062,0.696
		v0.983h-3.422v12.029l-0.063,0.103h-0.676l-0.082-0.041l-0.082,0.041h-1.313V92.267z"/>
	<path d="M241.906,78.025v5.287l0.103,0.123v2.849l0.082,0.082l-0.041,0.123v1.659l-0.041-0.041v0.041l-0.082-0.041h-2.377
		l-0.041-0.082v-6.844l0.082-0.123v-3.033H241.906z M240.021,89.808h2.09v0.636l-0.021-0.021l0.063,0.471v1.291l-0.041,0.082h-2.604
		v-2.5L240.021,89.808z"/>
</g>
<g>
	<g>
		<path fill="#FE85AE" d="M155.059,299.91c-17.9-25.397-17.382-42.594-8.83-47.212c20.021-10.809,144.632,4.783,153.158-17.038
			c13.398-30.361-12.18-46.492-47.502-53.132c-28.015-6.641-138.603-10.046-161.744,6.083C67,205.689,64.563,240.793,99.886,247.434
			c15.833,2.847,7.763,0.01,21.159,3.805C136.879,255.983,134.026,285.346,155.059,299.91z"/>
	</g>
	<g>
		<path d="M105.216,206.774l3.725-11.998h2.425l-4.266,13.882l-0.173-0.022l-0.151,0.368h-1.408l-0.086,0.108h-0.563l-0.217,0.043
			h-0.931l-0.282,0.043l0.044-0.043l-2.772-14.488l0.325-0.087l0.044,0.043h1.624L105.216,206.774z"/>
		<path d="M120.481,207.316v1.841h-6.541l0.325-9.854l0.108-0.065v-5.111h6.108v2.014h-4.029l-0.194,5.067l0.108,0.043h3.768v1.624
			h-3.92l-0.086,1.299l0.043,0.13l-0.043,0.26v2.815L120.481,207.316z"/>
		<path d="M125.502,209.156h-2.122v-14.878h6.216c1.689,0,2.144,1.321,2.144,2.36v4.029c0,0.866-0.801,1.754-1.473,1.754h-0.931
			l2.729,6.735h-2.512l-2.447-6.735h-1.646L125.502,209.156z M129.573,196.487h-4.136v3.833h0.216l0.108,0.13h3.812V196.487z"/>
		<path d="M136.544,196.552v10.764h3.703v-3.812l-0.065-0.802l-0.498-0.541h-1.603v-1.797l0.043-0.217h2.859
			c0.39,0,1.277,0.325,1.277,1.213v5.565c0,1.321-1.234,2.014-1.559,2.188c-0.021,0.021-0.043,0.043-0.065,0.043h-4.375
			c-0.584,0-1.603-0.585-1.603-1.3v-3.682l-0.043-0.086l0.086-0.043v-7.926c0-0.758,0.866-1.733,2.187-1.733h3.898
			c0.455,0,1.343,0.282,1.343,1.754v1.603h-1.862l-0.043-1.213L136.544,196.552z"/>
		<path d="M145.009,194.516l2.317-0.26v8.056l-0.13,0.065v6.67l-1.408,0.108h-0.931L145.009,194.516z"/>
		<path d="M156.291,202.378c0-0.542-0.65-0.671-1.17-0.714h-2.924c-1.667,0-2.144-1.083-2.144-1.56v-3.119
			c0-1.992,2.339-2.923,2.339-2.923h5.479v2.036h-4.634c-0.412,0-0.931,0.368-0.931,1.343v2.274h3.811
			c1.191,0,2.123,0.909,2.123,1.775v5.783c0,0.65-0.455,1.884-1.971,1.884h-6.128v-2.014h5.11c0.217,0,1.083-0.282,1.083-0.802
			L156.291,202.378z"/>
		<path d="M167.528,202.378c0-0.542-0.65-0.671-1.17-0.714h-2.923c-1.667,0-2.144-1.083-2.144-1.56v-3.119
			c0-1.992,2.338-2.923,2.338-2.923h5.479v2.036h-4.635c-0.411,0-0.931,0.368-0.931,1.343v2.274h3.812
			c1.191,0,2.123,0.909,2.123,1.775v5.783c0,0.65-0.455,1.884-1.971,1.884h-6.128v-2.014h5.111c0.217,0,1.083-0.282,1.083-0.802
			L167.528,202.378z"/>
		<path d="M180.906,209.178h-0.909l-0.043-0.043h-0.845v-14.51l-0.173-0.13l0.195-0.13h1.624l0.087-0.086h1.125l2.794,7.926v-7.883
			l1.559-0.195h0.411l0.021,0.26c0,0.021,0,0.043-0.021,0.065h0.173v8.208l0.043,0.043l-0.043,0.044l0.043,0.021l-0.043,0.043
			l0.043,0.064v6.194h-1.04l-0.26-0.043l-0.13,0.043h-0.888l-3.725-10.481v10.59H180.906z"/>
		<path d="M189.697,194.516l2.317-0.26v8.056l-0.13,0.065v6.67l-1.408,0.108h-0.931L189.697,194.516z"/>
		<path d="M202.429,194.279v1.97l-3.855,0.26c-1.018,0-1.581,0.584-1.581,0.91v3.486l0.108,0.087v4.591
			c0,0.974,0.693,1.342,1.126,1.342h4.288v2.231h-5.328c-0.693,0-2.382-0.823-2.382-2.101v-2.967l-0.086-0.086l0.043-0.043
			l-0.043-0.065l0.043-0.022l-0.043-0.129v-5.544l-0.108-0.065h0.043l-0.043-0.086v-1.365c0-0.975,1.538-2.057,2.057-2.057
			l1.906-0.238h1.213l0.086-0.108L202.429,194.279L202.429,194.279z"/>
		<path d="M209.985,194.018h2.23v15.138h-1.97v-6.844h-2.75v6.844h-2.014v-14.878h2.144v6.28l2.339-0.108L209.985,194.018z"/>
		<path d="M219.662,209.156v-12.843h-4.223v-1.581l-0.086-0.022v-0.238h8.403l0.086-0.26h1.104l0.542-0.043l0.065,0.39l0.065,0.737
			v1.039h-3.617v12.713l-0.064,0.108h-0.715l-0.086-0.043l-0.087,0.043H219.662z"/>
		<path d="M228.538,206.276h1.387l0.087,0.043l0.086-0.043l0.045,0.043h1.256v1.234l-0.498,1.278l-0.195,0.281l-0.691,0.715
			l-0.672,0.542l-0.605,0.086h-0.435l-0.087-0.217l0.043-0.26l0.174-0.325l0.194-0.584l-0.043-0.086l0.087-0.499l-0.131-0.368h0.044
			V207.9l-0.044-0.044L228.538,206.276L228.538,206.276z"/>
		<path d="M93.655,220.152l2.426,0.303v0.195l0.043,0.065l1.582,13.881l0.043,0.087l-0.281,0.455h-0.303l-0.043,0.043l-0.043-0.043
			l-0.216,0.043h-1.408l-0.823-6.735h-1.343l-0.129-0.086h-2.145l-0.086,0.086l-1.625,6.541l0.087,0.043h-2.058l-0.13,0.108h-0.584
			l4.049-14.835h2.404l0.065-0.173L93.655,220.152z M93.547,222.881l-0.043,0.043H92.27l-0.065-0.043l-0.844,3.421v0.39h3.054
			l-0.39-2.512l-0.065-0.975l-0.043-0.021l0.043-0.043l-0.086-0.108v-0.151L93.547,222.881L93.547,222.881z"/>
		<path d="M99.802,220.346h2.057v11.218c0,0.65,0.65,1.104,1.04,1.104h2.404c0.346,0,0.585-0.499,0.649-0.996v-11.305h2.188v13.06
			c0,0.736-1.061,1.624-1.754,1.71h-4.808c-0.931,0-1.776-0.779-1.776-2.23v-3.487V220.346z"/>
		<path d="M118.553,220.26v1.971l-3.855,0.26c-1.018,0-1.581,0.584-1.581,0.91v3.487l0.108,0.086v4.591
			c0,0.975,0.693,1.343,1.126,1.343h4.288v2.23h-5.328c-0.693,0-2.382-0.823-2.382-2.101v-2.967l-0.086-0.086l0.043-0.043
			l-0.043-0.065l0.043-0.022l-0.043-0.13v-5.544l-0.108-0.065h0.043l-0.043-0.087v-1.364c0-0.975,1.538-2.058,2.058-2.058
			l1.905-0.238h1.213l0.087-0.108H118.553L118.553,220.26z"/>
		<path d="M126.109,220h2.231v15.138h-1.971v-6.843h-2.75v6.843h-2.014V220.26h2.144v6.28l2.339-0.108L126.109,220z"/>
		<path d="M144.383,228.36c0-0.542-0.65-0.671-1.17-0.715h-2.923c-1.667,0-2.144-1.083-2.144-1.56v-3.118
			c0-1.993,2.338-2.924,2.338-2.924h5.479v2.036h-4.634c-0.411,0-0.931,0.368-0.931,1.343v2.274h3.812
			c1.191,0,2.123,0.91,2.123,1.776v5.783c0,0.649-0.455,1.884-1.971,1.884h-6.128v-2.014h5.111c0.216,0,1.083-0.282,1.083-0.802
			L144.383,228.36z"/>
		<path d="M155.425,220.152l2.426,0.303v0.195l0.043,0.065l1.581,13.881l0.043,0.087l-0.281,0.455h-0.303l-0.044,0.043l-0.043-0.043
			l-0.216,0.043h-1.408l-0.823-6.735h-1.343l-0.13-0.086h-2.144l-0.086,0.086l-1.624,6.541l0.086,0.043h-2.058l-0.13,0.108h-0.584
			l4.049-14.835h2.404l0.065-0.173L155.425,220.152z M155.317,222.881l-0.043,0.043h-1.235l-0.065-0.043l-0.845,3.421v0.39h3.054
			l-0.39-2.512l-0.065-0.975l-0.043-0.021l0.043-0.043l-0.086-0.108v-0.151L155.317,222.881L155.317,222.881z"/>
		<path d="M165.6,235.138v-12.842h-4.223v-1.581l-0.086-0.022v-0.238h8.402l0.087-0.26h1.104l0.542-0.043l0.064,0.39l0.065,0.736
			v1.04h-3.617v12.713l-0.065,0.108h-0.714l-0.086-0.043l-0.087,0.043L165.6,235.138L165.6,235.138z"/>
		<path d="M178.461,235.138v-12.842h-4.223v-1.581l-0.087-0.022v-0.238h8.403l0.087-0.26h1.104l0.542-0.043l0.064,0.39l0.065,0.736
			v1.04H180.8v12.713l-0.065,0.108h-0.714l-0.086-0.043l-0.087,0.043L178.461,235.138L178.461,235.138z"/>
		<path d="M193.551,220.195h8.1l-4.613,12.951h4.786v0.693l0.065,0.043v1.343h-7.211v-1.884l-0.13-0.065l4.439-11.348h-4.894
			l-0.065-0.087h-0.434l-0.043-0.714V220.195L193.551,220.195z"/>
		<path d="M204.766,220.346h2.057v11.218c0,0.65,0.65,1.104,1.04,1.104h2.404c0.346,0,0.585-0.499,0.649-0.996v-11.305h2.188v13.06
			c0,0.736-1.061,1.624-1.754,1.71h-4.808c-0.931,0-1.776-0.779-1.776-2.23v-3.487V220.346L204.766,220.346z"/>
		<path d="M237.247,220.043c-0.044,0.108-0.065,0.282-0.065,0.303l0.021,0.021l-3.4,14.77h-1.927l-2.253-6.952l-0.043-0.043
			l-3.012,6.952l0.021,0.043h-2.079l-2.685-14.813h2.339l1.797,10.915l2.599-6.302h2.361l1.862,5.761l2.339-10.655H237.247z"/>
		<path d="M246.359,233.297v1.841h-6.541l0.326-9.854l0.106-0.065v-5.11h6.106v2.014h-4.027l-0.194,5.068l0.107,0.043h3.769v1.624
			h-3.92l-0.086,1.3l0.043,0.13l-0.043,0.26v2.815L246.359,233.297z"/>
		<path d="M251.381,235.138h-2.122V220.26h6.216c1.688,0,2.145,1.321,2.145,2.36v4.028c0,0.866-0.803,1.754-1.473,1.754h-0.932
			l2.729,6.735h-2.512l-2.447-6.735h-1.646L251.381,235.138z M255.452,222.469h-4.136v3.833h0.217l0.107,0.13h3.812V222.469z"/>
		<path d="M260.539,235.138l-0.043-0.736l0.043-0.043l-0.043-0.13l0.043-0.086v-8.121l-0.043-0.195l0.043-0.065v-3.552l-0.043-0.108
			l0.043-0.022v-1.321h4.136l0.087,0.043h1.191c1.17,0,2.404,1.97,2.404,2.815v9.313c0,0.802-1.301,2.209-2.254,2.209
			L260.539,235.138L260.539,235.138z M262.878,223.184l-0.065,0.043h-0.303v1.408l0.086,0.087h-0.043v0.368l0.043,0.043
			l-0.043,0.021l0.108,0.109v5.414l0.043,0.087v1.992l0.108,0.13h2.166l0.043-0.043h0.498l0.801-0.303h0.107v-4.288h-0.043
			l0.043-0.043l-0.15-0.216v-3.941l-0.131-0.498l-0.758-0.368h-2.511V223.184z"/>
		<path d="M277.471,233.297v1.841h-6.539l0.323-9.854l0.108-0.065v-5.11h6.107v2.014h-4.029l-0.193,5.068l0.107,0.043h3.769v1.624
			h-3.92l-0.086,1.3l0.043,0.13l-0.043,0.26v2.815L277.471,233.297z"/>
		<path d="M282.038,235.159h-0.909l-0.043-0.043h-0.846v-14.51l-0.174-0.129l0.195-0.13h1.624l0.087-0.086h1.127l2.793,7.926v-7.883
			l1.56-0.194h0.411l0.021,0.259c0,0.021,0,0.043-0.021,0.065h0.174v8.208l0.043,0.043l-0.043,0.043l0.043,0.021l-0.043,0.043
			l0.043,0.064v6.194h-1.039l-0.26-0.043l-0.131,0.043h-0.887l-3.727-10.482L282.038,235.159L282.038,235.159z"/>
		<path d="M293.211,220.087v5.587l0.107,0.13v3.01l0.086,0.087l-0.043,0.13v1.754l-0.043-0.043v0.043l-0.086-0.043h-2.512
			l-0.045-0.087v-7.233l0.088-0.13v-3.205H293.211z M291.219,232.539h2.208v0.671l-0.021-0.021l0.064,0.498v1.365l-0.044,0.086
			h-2.75v-2.642L291.219,232.539z"/>
	</g>
</g>
<g>
	<g>
		<path fill="#FD9843" d="M154.491,449.967c-17.122-29.334-16.626-49.2-8.446-54.531c19.15-12.485,138.344,5.523,146.5-19.682
			c12.814-35.068-11.65-53.697-45.438-61.369c-26.797-7.67-132.578-11.604-154.711,7.026c-22.136,19.727-24.466,60.273,9.32,67.945
			c15.146,3.287,7.425,0.011,20.24,4.394C137.101,399.228,134.371,433.144,154.491,449.967z"/>
	</g>
	<g>
		<path d="M99.472,344.086v2.245h-7.974l0.396-12.014l0.132-0.079v-6.231h7.446v2.456h-4.911l-0.237,6.178l0.132,0.053h4.594v1.98
			h-4.779l-0.106,1.584l0.053,0.158l-0.053,0.317v3.433L99.472,344.086z"/>
		<path d="M102.824,328.481l2.825-0.316v9.822l-0.158,0.079v8.131l-1.716,0.133h-1.136L102.824,328.481z"/>
		<path d="M111.22,346.356h-1.109l-0.053-0.053h-1.03v-17.689l-0.211-0.159l0.238-0.159h1.98l0.106-0.106h1.373l3.406,9.664v-9.61
			l1.901-0.238h0.502l0.026,0.317c0,0.026,0,0.052-0.026,0.079h0.211v10.007l0.053,0.053l-0.053,0.052l0.053,0.026l-0.053,0.053
			l0.053,0.08v7.551h-1.267l-0.317-0.053l-0.159,0.053h-1.082l-4.542-12.78V346.356z"/>
		<path d="M137.489,338.066c0-0.66-0.792-0.819-1.426-0.872h-3.564c-2.033,0-2.614-1.32-2.614-1.901v-3.803
			c0-2.429,2.852-3.563,2.852-3.563h6.68v2.482h-5.65c-0.501,0-1.135,0.448-1.135,1.637v2.772h4.647
			c1.452,0,2.587,1.108,2.587,2.165v7.05c0,0.792-0.554,2.297-2.402,2.297h-7.473v-2.456h6.231c0.264,0,1.32-0.343,1.32-0.977
			L137.489,338.066z"/>
		<path d="M150.953,328.059l2.958,0.37v0.237l0.053,0.08l1.927,16.924l0.053,0.106l-0.343,0.555h-0.37l-0.053,0.052l-0.053-0.052
			l-0.264,0.052h-1.716l-1.003-8.211h-1.637l-0.159-0.105h-2.614l-0.105,0.105l-1.98,7.974l0.105,0.052h-2.508l-0.159,0.133h-0.712
			l4.937-18.086h2.931l0.08-0.211L150.953,328.059z M150.821,331.385l-0.053,0.053h-1.505l-0.079-0.053l-1.03,4.172v0.475h3.723
			l-0.476-3.063l-0.079-1.188l-0.053-0.026l0.053-0.052l-0.105-0.133v-0.185L150.821,331.385L150.821,331.385z"/>
		<path d="M163.362,346.33v-15.658h-5.149v-1.927l-0.105-0.026v-0.291h10.244l0.105-0.317h1.347l0.66-0.052l0.079,0.475l0.08,0.898
			v1.267h-4.41v15.499l-0.079,0.133h-0.871l-0.105-0.053l-0.106,0.053L163.362,346.33L163.362,346.33z"/>
		<path d="M179.044,346.33v-15.658h-5.149v-1.927l-0.105-0.026v-0.291h10.244l0.106-0.317h1.346l0.661-0.052l0.079,0.475l0.08,0.898
			v1.267h-4.41v15.499l-0.079,0.133h-0.871l-0.105-0.053l-0.105,0.053L179.044,346.33L179.044,346.33z"/>
		<path d="M203.835,346.04h-0.872l-0.316-0.053l-0.37,0.053h-1.004v-7.736l-0.053-0.264v-5.148l-2.904,3.563l-0.027,0.105
			l-2.086,2.43l-3.934-6.152v13.571l-0.079-0.053l-0.106,0.053l-0.528-0.159l-0.08,0.105l-1.689-0.105l-0.159-0.053v-3.167
			l0.053-0.053l-0.053-0.08v-11.696l-0.158-0.344v-2.719h0.264l0.396-0.132h2.244l3.908,6.363l2.64-3.828h0.08l2.033-2.904h2.798
			v18.403H203.835z"/>
		<path d="M214.711,328.059l2.957,0.37v0.237l0.053,0.08l1.928,16.924l0.053,0.106l-0.343,0.555h-0.37l-0.053,0.052l-0.053-0.052
			l-0.264,0.052h-1.716l-1.003-8.211h-1.637l-0.158-0.105h-2.614l-0.105,0.105l-1.979,7.974l0.104,0.052h-2.509l-0.158,0.133h-0.713
			l4.938-18.086h2.931l0.079-0.211L214.711,328.059z M214.579,331.385l-0.053,0.053h-1.505l-0.079-0.053l-1.03,4.172v0.475h3.723
			l-0.475-3.063l-0.079-1.188l-0.053-0.026l0.053-0.052l-0.105-0.133v-0.185L214.579,331.385L214.579,331.385z"/>
		<path d="M231.396,328.191v2.403l-4.699,0.317c-1.241,0-1.927,0.713-1.927,1.109v4.251l0.132,0.105v5.597
			c0,1.188,0.845,1.637,1.374,1.637h5.228v2.72h-6.496c-0.844,0-2.904-1.003-2.904-2.562v-3.617l-0.105-0.105l0.053-0.053
			l-0.053-0.08l0.053-0.026l-0.053-0.159v-6.759l-0.132-0.079h0.053l-0.053-0.106v-1.663c0-1.188,1.875-2.508,2.508-2.508
			l2.323-0.291h1.479l0.105-0.133h3.115V328.191z"/>
		<path d="M240.609,327.874h2.721v18.456h-2.402v-8.343h-3.354v8.343h-2.455v-18.14h2.613v7.657l2.852-0.132L240.609,327.874z"/>
		<path d="M255.105,344.086v2.245h-7.976l0.396-12.014l0.134-0.079v-6.231h7.446v2.456h-4.912l-0.237,6.178l0.132,0.053h4.594v1.98
			h-4.777l-0.105,1.584l0.053,0.158l-0.053,0.317v3.433L255.105,344.086z"/>
		<path d="M261.229,346.33h-2.588v-18.14h7.577c2.06,0,2.614,1.611,2.614,2.878v4.911c0,1.056-0.977,2.138-1.796,2.138H265.9
			l3.326,8.212h-3.062l-2.983-8.212h-2.008L261.229,346.33z M266.193,330.884h-5.045v4.673h0.266l0.132,0.159h4.647V330.884z"/>
		<path d="M109.24,361.086l-0.053,0.053h0.053v0.105l-0.053,0.08l-0.08,1.083h-6.469v4.357h5.386v2.138h-5.359l-0.159,0.053
			l-0.053,0.131l-0.053,0.026v8.924h-2.48v-17.637h9.083L109.24,361.086z"/>
		<path d="M120.355,375.767v2.245h-7.974l0.396-12.014l0.132-0.08v-6.231h7.446v2.456h-4.911l-0.237,6.178l0.132,0.053h4.594v1.98
			h-4.779l-0.106,1.584l0.053,0.158l-0.053,0.317v3.433L120.355,375.767z"/>
		<path d="M129.462,359.555h2.72v18.456h-2.402v-8.344h-3.354v8.344h-2.455v-18.14h2.614v7.657l2.852-0.131L129.462,359.555z"/>
		<path d="M138.677,375.503h6.099l-0.132,2.508h-8.634v-18.508h2.64v15.049L138.677,375.503z"/>
		<path d="M153.197,378.011v-15.658h-5.149v-1.927l-0.105-0.026v-0.291h10.244l0.106-0.317h1.346l0.661-0.052l0.079,0.475
			l0.08,0.898v1.267h-4.409v15.499l-0.08,0.133h-0.871l-0.105-0.053l-0.105,0.053h-1.692V378.011z"/>
		<path d="M174,378.037h-1.108l-0.053-0.053h-1.03v-17.689l-0.211-0.159l0.238-0.159h1.98l0.106-0.105h1.373l3.406,9.664v-9.61
			l1.901-0.238h0.501l0.027,0.318c0,0.026,0,0.052-0.027,0.079h0.211v10.007l0.053,0.053l-0.053,0.052l0.053,0.026l-0.053,0.053
			l0.053,0.079v7.551H180.1l-0.317-0.053l-0.159,0.053h-1.082L174,365.126V378.037z"/>
		<path d="M196.706,373.655l-0.105,1.109c0,2.165-1.584,3.168-2.535,3.168h-2.983l-0.053,0.105l-0.053-0.053l-0.106,0.053h-4.303
			c-1.083,0-2.033-1.795-2.033-2.587v-11.697c0-2.587,1.531-3.511,2.402-3.511h0.501l0.898-0.211l0.053,0.053l2.482-0.396h1.426
			c1.584,0,3.829,1.11,3.829,3.592h0.053v0.686L196.706,373.655z M193.485,362.935l-1.637-0.977l-0.211,0.159h-2.297l-0.106,0.052
			l-0.026-0.052l-0.053,0.052h-0.528v-0.052h-0.053l-1.188,0.977v1.953l0.053,0.027l-0.053,0.052l0.132,0.211v4.542l0.053,0.026
			l-0.053,0.08l0.053,0.105l-0.053,0.053l0.185,0.66v4.33l0.053,0.053v0.264l0.132,0.291l0.554,0.422h0.713l0.132-0.08h2.403
			l-0.211-0.291l0.713-0.105l0.053,0.344h0.818l0.555-0.713l0.29-0.555L193.485,362.935z"/>
		<path d="M209.536,359.872v2.403l-4.7,0.317c-1.241,0-1.928,0.713-1.928,1.109v4.251l0.132,0.105v5.597
			c0,1.188,0.845,1.637,1.373,1.637h5.228v2.72h-6.495c-0.845,0-2.904-1.003-2.904-2.562v-3.617l-0.105-0.105l0.053-0.054
			l-0.053-0.079l0.053-0.026l-0.053-0.159v-6.759l-0.132-0.078h0.053l-0.053-0.106v-1.663c0-1.188,1.875-2.508,2.508-2.508
			l2.324-0.291h1.479l0.105-0.133L209.536,359.872L209.536,359.872z"/>
		<path d="M218.75,359.555h2.719v18.456h-2.402v-8.344h-3.354v8.344h-2.455v-18.14h2.614v7.657l2.852-0.131L218.75,359.555z"/>
		<path d="M228.385,359.661v6.813l0.133,0.158v3.67l0.105,0.105l-0.053,0.159v2.138l-0.053-0.052v0.052l-0.104-0.052h-3.063
			l-0.053-0.106v-8.819l0.105-0.159v-3.907H228.385z M225.957,374.843h2.693v0.818l-0.026-0.026l0.079,0.607v1.664l-0.053,0.106
			h-3.354v-3.222L225.957,374.843z"/>
	</g>
</g>
</svg>
