<?xml version="1.0" encoding="utf-8"?>
<!-- Generator: Adobe Illustrator 16.0.0, SVG Export Plug-In . SVG Version: 6.00 Build 0)  -->
<!DOCTYPE svg PUBLIC "-//W3C//DTD SVG 1.1//EN" "http://www.w3.org/Graphics/SVG/1.1/DTD/svg11.dtd">
<svg version="1.1" id="Layer_2" xmlns="http://www.w3.org/2000/svg" xmlns:xlink="http://www.w3.org/1999/xlink" x="0px" y="0px"
	 width="450px" height="1000px" viewBox="0 0 450 1000" enable-background="new 0 0 450 1000" xml:space="preserve">
<g>
	<g>
		<path fill="#FDC872" d="M153.059,280.355c-17.901-26.935-17.383-45.173-8.831-50.071c20.021-11.464,144.632,5.073,153.159-18.071
			c13.397-32.2-12.181-49.306-47.504-56.35c-28.015-7.044-138.601-10.655-161.742,6.451c-23.142,18.113-25.578,55.344,9.744,62.386
			c15.833,3.019,7.763,0.011,21.16,4.035C134.879,233.767,132.025,264.908,153.059,280.355z"/>
	</g>
	<g>
		<path d="M94.543,169.398h2.318v15.735h-2.048v-7.114h-2.859v7.114h-2.093v-15.465h2.229v6.528l2.432-0.113L94.543,169.398z"/>
		<path d="M106.901,183.219v1.914h-6.798l0.337-10.243l0.113-0.067v-5.313h6.348v2.094h-4.187l-0.203,5.267l0.112,0.045h3.917v1.688
			h-4.075l-0.09,1.351l0.044,0.135l-0.044,0.27v2.927L106.901,183.219z"/>
		<path d="M111.605,169.758l2.656,5.47l2.904-5.47h0.315l1.913,0.225l-2.003,3.849l-1.981,3.174v8.126h-2.318v-8.06l-3.489-7.315
			H111.605z"/>
		<path d="M122.432,182.139h1.44l0.09,0.045l0.09-0.045l0.045,0.045h1.306v1.283l-0.518,1.328l-0.203,0.293l-0.721,0.743
			l-0.698,0.563l-0.63,0.09h-0.45l-0.09-0.225l0.045-0.27l0.18-0.338l0.203-0.608l-0.045-0.09l0.09-0.518l-0.135-0.382h0.045v-0.225
			l-0.045-0.045V182.139z"/>
		<path d="M134.948,185.133l-0.045-0.765l0.045-0.045l-0.045-0.135l0.045-0.091v-8.441l-0.045-0.203l0.045-0.067v-3.692
			l-0.045-0.112l0.045-0.023v-1.373h4.299l0.09,0.045h1.238c1.216,0,2.499,2.048,2.499,2.926v9.679c0,0.833-1.351,2.297-2.341,2.297
			H134.948z M137.378,172.707l-0.067,0.045h-0.315v1.463l0.09,0.09h-0.045v0.382l0.045,0.045l-0.045,0.023l0.113,0.112v5.627
			l0.044,0.091v2.07l0.113,0.135h2.25l0.045-0.045h0.518l0.833-0.315h0.113v-4.458h-0.045l0.045-0.044l-0.158-0.225v-4.097
			l-0.135-0.518l-0.788-0.383H137.378z"/>
		<path d="M152.55,183.219v1.914h-6.798l0.337-10.243l0.113-0.067v-5.313h6.348v2.094h-4.187l-0.202,5.267l0.112,0.045h3.917v1.688
			h-4.074l-0.09,1.351l0.044,0.135l-0.044,0.27v2.927L152.55,183.219z"/>
		<path d="M155.408,169.916l2.408-0.271v8.374l-0.135,0.068v6.933l-1.463,0.113h-0.968L155.408,169.916z"/>
		<path d="M162.567,185.156h-0.946l-0.045-0.045h-0.878v-15.083l-0.18-0.135l0.203-0.135h1.688l0.09-0.09h1.17l2.904,8.239v-8.194
			l1.621-0.203h0.428l0.022,0.271c0,0.022,0,0.044-0.022,0.067h0.18v8.532l0.045,0.045l-0.045,0.045l0.045,0.022l-0.045,0.045
			l0.045,0.067v6.438h-1.081l-0.27-0.045l-0.135,0.045h-0.923l-3.872-10.895V185.156z"/>
		<path d="M185.121,183.219v1.914h-6.798l0.337-10.243l0.113-0.067v-5.313h6.348v2.094h-4.188l-0.202,5.267l0.112,0.045h3.917v1.688
			h-4.075l-0.09,1.351l0.045,0.135l-0.045,0.27v2.927L185.121,183.219z"/>
		<path d="M194.441,178.087c0-0.563-0.676-0.698-1.216-0.743h-3.039c-1.733,0-2.229-1.125-2.229-1.62v-3.242
			c0-2.071,2.431-3.039,2.431-3.039h5.695v2.115h-4.817c-0.427,0-0.967,0.383-0.967,1.396v2.364h3.962
			c1.238,0,2.206,0.945,2.206,1.846v6.01c0,0.676-0.473,1.959-2.048,1.959h-6.371v-2.094h5.313c0.225,0,1.125-0.292,1.125-0.833
			L194.441,178.087z"/>
		<path d="M206.123,178.087c0-0.563-0.675-0.698-1.216-0.743h-3.04c-1.733,0-2.228-1.125-2.228-1.62v-3.242
			c0-2.071,2.431-3.039,2.431-3.039h5.696v2.115h-4.817c-0.428,0-0.968,0.383-0.968,1.396v2.364h3.962
			c1.238,0,2.206,0.945,2.206,1.846v6.01c0,0.676-0.473,1.959-2.048,1.959h-6.371v-2.094h5.313c0.225,0,1.125-0.292,1.125-0.833
			L206.123,178.087z"/>
		<path d="M217.963,183.219v1.914h-6.798l0.338-10.243l0.112-0.067v-5.313h6.348v2.094h-4.187l-0.203,5.267l0.113,0.045h3.917v1.688
			h-4.074l-0.09,1.351l0.045,0.135l-0.045,0.27v2.927L217.963,183.219z"/>
		<path d="M222.713,185.156h-0.945l-0.045-0.045h-0.878v-15.083l-0.18-0.135l0.203-0.135h1.688l0.09-0.09h1.171l2.904,8.239v-8.194
			l1.621-0.203h0.428l0.022,0.271c0,0.022,0,0.044-0.022,0.067h0.18v8.532l0.046,0.045l-0.046,0.045l0.046,0.022l-0.046,0.045
			l0.046,0.067v6.438h-1.081l-0.271-0.045l-0.135,0.045h-0.923l-3.872-10.895V185.156z"/>
		<path d="M245.11,178.087c0-0.563-0.675-0.698-1.216-0.743h-3.038c-1.733,0-2.229-1.125-2.229-1.62v-3.242
			c0-2.071,2.431-3.039,2.431-3.039h5.696v2.115h-4.818c-0.428,0-0.968,0.383-0.968,1.396v2.364h3.962
			c1.238,0,2.207,0.945,2.207,1.846v6.01c0,0.676-0.473,1.959-2.05,1.959h-6.371v-2.094h5.313c0.225,0,1.125-0.292,1.125-0.833
			L245.11,178.087z"/>
		<path d="M260.553,181.418l-0.09,0.945c0,1.847-1.352,2.702-2.161,2.702h-2.544l-0.045,0.09l-0.045-0.045l-0.09,0.045h-3.67
			c-0.923,0-1.733-1.531-1.733-2.206v-9.973c0-2.206,1.306-2.994,2.049-2.994h0.428l0.765-0.18l0.045,0.045l2.117-0.338h1.216
			c1.351,0,3.264,0.946,3.264,3.062h0.045v0.585L260.553,181.418z M257.807,172.279l-1.396-0.833l-0.181,0.135h-1.959l-0.09,0.045
			l-0.022-0.045l-0.045,0.045h-0.45v-0.045h-0.046l-1.012,0.833v1.666l0.045,0.023l-0.045,0.045l0.112,0.18v3.872l0.045,0.022
			l-0.045,0.067l0.045,0.09l-0.045,0.045l0.157,0.563v3.691l0.045,0.045v0.226l0.113,0.247l0.472,0.36h0.608l0.112-0.067h2.049
			l-0.18-0.248l0.607-0.09l0.045,0.293h0.698l0.473-0.608l0.248-0.473L257.807,172.279z"/>
		<path d="M265.641,182.994h5.199l-0.112,2.139h-7.361v-15.78h2.251v12.831L265.641,182.994z"/>
		<path d="M275.816,182.994h5.199l-0.112,2.139h-7.361v-15.78h2.251v12.831L275.816,182.994z"/>
		<path d="M102.691,196.568l2.521,0.314v0.203l0.045,0.067l1.644,14.43l0.045,0.09l-0.293,0.472h-0.315l-0.045,0.045l-0.045-0.045
			l-0.225,0.045h-1.463l-0.855-7h-1.396l-0.135-0.09h-2.229l-0.09,0.09l-1.688,6.798l0.09,0.045h-2.138l-0.135,0.112h-0.608
			l4.209-15.42h2.499l0.067-0.18L102.691,196.568z M102.578,199.404l-0.045,0.045h-1.283l-0.067-0.045l-0.878,3.557v0.405h3.174
			l-0.406-2.611l-0.067-1.013l-0.045-0.022l0.045-0.045l-0.09-0.113v-0.158H102.578z"/>
		<path d="M109.084,196.77h2.139v11.661c0,0.675,0.676,1.148,1.081,1.148h2.499c0.36,0,0.607-0.518,0.675-1.036v-11.75h2.273v13.574
			c0,0.766-1.103,1.688-1.823,1.778h-4.998c-0.968,0-1.846-0.81-1.846-2.318v-3.624V196.77z"/>
		<path d="M128.577,196.68v2.048l-4.006,0.271c-1.059,0-1.644,0.608-1.644,0.945v3.625l0.112,0.09v4.772
			c0,1.013,0.721,1.396,1.171,1.396h4.457v2.318h-5.538c-0.72,0-2.476-0.855-2.476-2.183v-3.084l-0.09-0.09l0.045-0.045
			l-0.045-0.067l0.045-0.022l-0.045-0.135v-5.763l-0.112-0.067h0.045l-0.045-0.09v-1.418c0-1.013,1.599-2.139,2.139-2.139
			l1.981-0.247h1.261l0.09-0.113H128.577z"/>
		<path d="M136.433,196.41h2.319v15.735h-2.048v-7.113h-2.859v7.113h-2.093V196.68h2.229v6.528l2.431-0.112L136.433,196.41z"/>
		<path d="M155.431,205.099c0-0.563-0.675-0.698-1.215-0.743h-3.039c-1.733,0-2.229-1.126-2.229-1.621v-3.242
			c0-2.071,2.431-3.039,2.431-3.039h5.695v2.115h-4.817c-0.428,0-0.968,0.383-0.968,1.396v2.363h3.962
			c1.238,0,2.207,0.946,2.207,1.847v6.01c0,0.676-0.473,1.958-2.049,1.958h-6.37v-2.093h5.312c0.225,0,1.125-0.292,1.125-0.833
			L155.431,205.099z"/>
		<path d="M168.622,196.68v2.048l-4.007,0.271c-1.058,0-1.644,0.608-1.644,0.945v3.625l0.113,0.09v4.772
			c0,1.013,0.72,1.396,1.17,1.396h4.457v2.318h-5.538c-0.72,0-2.477-0.855-2.477-2.183v-3.084l-0.09-0.09l0.045-0.045l-0.045-0.067
			l0.045-0.022l-0.045-0.135v-5.763l-0.113-0.067h0.045l-0.045-0.09v-1.418c0-1.013,1.599-2.139,2.139-2.139l1.981-0.247h1.26
			l0.09-0.113H168.622z"/>
		<path d="M176.477,196.41h2.319v15.735h-2.049v-7.113h-2.859v7.113h-2.093V196.68h2.229v6.528l2.431-0.112L176.477,196.41z"/>
		<path d="M194.305,211.898h-0.743l-0.27-0.045l-0.315,0.045h-0.855v-6.596l-0.045-0.225v-4.39l-2.476,3.039l-0.022,0.09
			l-1.778,2.071l-3.354-5.245v11.57l-0.067-0.045l-0.09,0.045l-0.45-0.135l-0.068,0.09l-1.44-0.09l-0.135-0.045v-2.701l0.045-0.045
			l-0.045-0.067v-9.973l-0.135-0.292v-2.319h0.226l0.337-0.112h1.914l3.332,5.425l2.251-3.264h0.068l1.733-2.476h2.386V211.898z"/>
		<path d="M203.939,210.232v1.913h-6.798l0.338-10.242l0.113-0.067v-5.313h6.348v2.093h-4.187l-0.203,5.268l0.113,0.045h3.917v1.688
			h-4.074l-0.09,1.35l0.045,0.135l-0.045,0.27v2.927L203.939,210.232z"/>
		<path d="M214.766,196.68v2.048l-4.006,0.271c-1.058,0-1.644,0.608-1.644,0.945v3.625l0.113,0.09v4.772
			c0,1.013,0.72,1.396,1.17,1.396h4.457v2.318h-5.538c-0.72,0-2.477-0.855-2.477-2.183v-3.084l-0.09-0.09l0.045-0.045l-0.045-0.067
			l0.045-0.022l-0.045-0.135v-5.763l-0.112-0.067h0.045l-0.045-0.09v-1.418c0-1.013,1.599-2.139,2.139-2.139l1.981-0.247h1.26
			l0.09-0.113H214.766z"/>
		<path d="M219.763,196.927c0.067,0.112,0.27,0.315,0.27,0.338v5.2l5.448-5.268h2.994l-5.65,5.538l4.368,9.454h-2.657l-0.54-1.395
			l-2.386-5.178h-1.553v6.573h-2.387v-15.262H219.763z"/>
		<path d="M237.952,210.232v1.913h-6.799l0.338-10.242l0.112-0.067v-5.313h6.349v2.093h-4.188l-0.203,5.268l0.113,0.045h3.917v1.688
			h-4.075l-0.09,1.35l0.045,0.135l-0.045,0.27v2.927L237.952,210.232z"/>
		<path d="M242.702,212.167h-0.946l-0.045-0.045h-0.878V197.04l-0.18-0.135l0.202-0.135h1.688l0.09-0.09h1.171l2.904,8.239v-8.194
			l1.621-0.202h0.427l0.022,0.27c0,0.022,0,0.044-0.022,0.067h0.181v8.532l0.045,0.045l-0.045,0.044l0.045,0.022l-0.045,0.045
			l0.045,0.067v6.438h-1.08l-0.271-0.045l-0.135,0.045h-0.923l-3.872-10.895V212.167z"/>
		<path d="M254.316,196.5v5.808l0.112,0.135v3.129l0.091,0.09l-0.045,0.135v1.823l-0.046-0.045v0.045l-0.089-0.045h-2.611
			l-0.045-0.09v-7.519l0.09-0.135V196.5H254.316z M252.246,209.444h2.296v0.698l-0.022-0.022l0.067,0.518v1.418l-0.045,0.09h-2.858
			v-2.746L252.246,209.444z"/>
	</g>
</g>
<g>
	<path fill="#06C38D" d="M1.404,339.198c0.401-2.037,1.441-6.344,1.441-8.061c0-6.462-1.441-24.655-1.441-24.655
		c0-2.514,3.345-4.551,7.472-4.551c0,0,136.169-3.082,170.128-1.458c10.078,0.482,41.082,1.458,41.082,1.458
		c4.125,0,7.472,2.037,7.472,4.551c0,0,4.313,30.096,3.284,40.119c-0.294,2.872-3.284,11.337-3.284,11.337
		c0,2.514-3.359,4.353-7.472,4.551c-7.154,0.348-21.375,2.088-28.501,2.088c-2.576,0-5.641-0.093-9.024-0.248
		c0.134,3.105,0.001,7.361-2.066,11.057c-4.495,8.03-7.213,27.056-18.606,29.008c0,0-2.621-0.023,1.367-1.55
		c3.985-1.527,4.551-14.337,8.436-29.659c0.443-1.749,0.854-6.369-1.377-9.565c-16.211-1.004-49.484-3.791-69.425-3.791
		c-12.265,0-80.283,2.342-92.012,2.66c-4.122,0.113-7.472-2.037-7.472-4.551C1.404,357.938,0.494,343.85,1.404,339.198z"/>
	<g>
		<path d="M19.954,318.452c0-0.504-0.604-0.625-1.088-0.666h-2.721c-1.552,0-1.996-1.008-1.996-1.451v-2.903
			c0-1.854,2.177-2.721,2.177-2.721h5.1v1.895h-4.313c-0.383,0-0.866,0.342-0.866,1.249v2.117h3.547
			c1.109,0,1.976,0.847,1.976,1.653v5.381c0,0.605-0.423,1.754-1.834,1.754h-5.704v-1.875h4.757c0.202,0,1.008-0.262,1.008-0.746
			L19.954,318.452z"/>
		<path d="M24.75,310.994h1.915v10.441c0,0.605,0.605,1.028,0.968,1.028h2.237c0.323,0,0.544-0.463,0.604-0.927v-10.521h2.036
			v12.154c0,0.686-0.988,1.512-1.633,1.592h-4.475c-0.867,0-1.653-0.726-1.653-2.076v-3.245V310.994z"/>
		<path d="M37.427,324.822H35.23v-14.25h5.281c0.604,0,2.217,0.585,2.217,1.955l0.04,0.141l-0.141,3.931
			c-0.121,1.29-1.31,1.673-1.733,1.673h-1.693l-0.766-0.081v-0.04h-0.988L37.427,324.822z M37.427,316.517h2.54
			c0,0,0.686-0.141,0.686-0.786v-2.419c0-0.685-0.766-0.766-0.766-0.806h-2.459V316.517z"/>
		<path d="M51.253,323.048v1.713h-6.087l0.303-9.171l0.101-0.061v-4.757h5.684v1.875h-3.749l-0.181,4.717l0.101,0.04h3.507v1.512
			h-3.648l-0.081,1.209l0.04,0.121l-0.04,0.242v2.62L51.253,323.048z"/>
		<path d="M55.929,324.761h-1.976v-13.847h5.785c1.573,0,1.996,1.229,1.996,2.197v3.749c0,0.806-0.746,1.632-1.371,1.632h-0.867
			l2.54,6.269h-2.338l-2.278-6.269h-1.532L55.929,324.761z M59.718,312.97h-3.85v3.567h0.202l0.101,0.121h3.547V312.97z"/>
		<path d="M64.716,322.08h1.29l0.08,0.041l0.081-0.041l0.04,0.041h1.169v1.148l-0.463,1.189l-0.182,0.262l-0.645,0.665l-0.625,0.504
			l-0.564,0.081h-0.403l-0.081-0.202l0.041-0.242l0.161-0.302l0.181-0.544l-0.04-0.081l0.081-0.464l-0.121-0.342h0.04v-0.202
			l-0.04-0.04V322.08z"/>
		<path d="M81.626,310.813l2.257,0.282v0.182l0.041,0.061l1.471,12.92l0.04,0.081l-0.262,0.423h-0.282l-0.04,0.04l-0.041-0.04
			l-0.202,0.04h-1.31l-0.766-6.268h-1.25l-0.121-0.081h-1.995l-0.081,0.081l-1.511,6.087l0.081,0.041H75.74l-0.121,0.101h-0.544
			l3.769-13.807h2.238l0.06-0.161L81.626,310.813z M81.525,313.353l-0.04,0.04h-1.149l-0.061-0.04l-0.786,3.185v0.363h2.842
			l-0.362-2.338l-0.061-0.907l-0.041-0.02l0.041-0.041l-0.081-0.101v-0.141H81.525z"/>
		<path d="M87.128,310.712h4.797l0.686,0.161l0.323,0.162l0.645,0.967l0.1,0.04l0.565,2.722l-0.041,0.544
			c-0.162,0.383-0.383,0.867-0.927,1.29c0.807,0.282,1.209,0.846,1.552,1.35v5.08c0,0.463-0.463,1.673-1.693,1.673h-5.805
			l-0.242-0.162h0.041v-1.431h0.04l-0.04-0.04v-0.081h0.04l-0.04-0.04l0.04-0.04h-0.04l0.04-0.182l-0.04-0.061l0.04-0.041
			l-0.04-0.02l0.04-0.201l-0.04-0.202l0.04-0.021L87.128,310.712z M89.103,318.815v2.943l-0.04,0.02v0.262l0.04,0.04l-0.04,0.202
			v0.383l0.121-0.101h3.245l0.08-0.041h0.424v-3.708h-0.706l-0.04,0.04l-0.202-0.04l-0.282,0.04l-0.141-0.04H89.103z
			 M89.345,312.708v3.971h2.036c0,0,0.806-0.988,0.806-2.177c0-0.907-0.161-1.713-0.161-1.713l-0.182-0.04L89.345,312.708z"/>
		<path d="M103.312,323.048v1.713h-6.087l0.303-9.171l0.101-0.061v-4.757h5.684v1.875h-3.749l-0.181,4.717l0.101,0.04h3.507v1.512
			h-3.648l-0.081,1.209l0.04,0.121l-0.04,0.242v2.62L103.312,323.048z"/>
		<path d="M107.987,324.761h-1.975v-13.847h5.784c1.573,0,1.996,1.229,1.996,2.197v3.749c0,0.806-0.746,1.632-1.371,1.632h-0.866
			l2.539,6.269h-2.338l-2.278-6.269h-1.531L107.987,324.761z M111.776,312.97h-3.85v3.567h0.202l0.101,0.121h3.547V312.97z"/>
		<path d="M122.598,324.761l-0.041-0.685l0.041-0.041l-0.041-0.121l0.041-0.08v-7.559l-0.041-0.181l0.041-0.061v-3.306l-0.041-0.101
			l0.041-0.02v-1.23h3.85l0.08,0.041h1.109c1.088,0,2.237,1.834,2.237,2.62v8.667c0,0.746-1.209,2.056-2.096,2.056H122.598z
			 M124.775,313.635l-0.061,0.04h-0.282v1.31l0.081,0.081h-0.041v0.342l0.041,0.041l-0.041,0.02l0.101,0.101v5.039l0.041,0.08v1.855
			l0.101,0.121h2.016l0.041-0.041h0.464l0.745-0.282h0.101v-3.991h-0.04l0.04-0.04l-0.141-0.202v-3.668l-0.121-0.464l-0.705-0.342
			H124.775z"/>
		<path d="M132.554,310.994h1.915v10.441c0,0.605,0.605,1.028,0.968,1.028h2.237c0.323,0,0.544-0.463,0.605-0.927v-10.521h2.036
			v12.154c0,0.686-0.988,1.512-1.633,1.592h-4.475c-0.867,0-1.653-0.726-1.653-2.076v-3.245V310.994z"/>
		<path d="M7.982,334.898h4.797l0.685,0.161l0.323,0.162l0.645,0.967l0.101,0.04l0.564,2.721l-0.04,0.544
			c-0.162,0.383-0.383,0.867-0.928,1.29c0.807,0.282,1.21,0.846,1.552,1.351v5.079c0,0.464-0.463,1.673-1.693,1.673H8.183
			l-0.242-0.162h0.041v-1.431h0.04l-0.04-0.04v-0.081h0.04l-0.04-0.04l0.04-0.04h-0.04l0.04-0.182l-0.04-0.061l0.04-0.041
			l-0.04-0.02l0.04-0.201l-0.04-0.202l0.04-0.021L7.982,334.898z M9.957,343.001v2.943l-0.041,0.02v0.262l0.041,0.04l-0.041,0.202
			v0.383l0.121-0.101h3.245l0.081-0.041h0.423v-3.708h-0.706l-0.04,0.04l-0.202-0.04l-0.282,0.04l-0.141-0.04H9.957z
			 M10.199,336.893v3.971h2.036c0,0,0.806-0.988,0.806-2.177c0-0.907-0.161-1.713-0.161-1.713l-0.182-0.04L10.199,336.893z"/>
		<path d="M20.357,348.947h-1.975v-13.847h5.784c1.573,0,1.996,1.229,1.996,2.197v3.749c0,0.806-0.746,1.632-1.371,1.632h-0.866
			l2.539,6.269h-2.338l-2.278-6.269h-1.531L20.357,348.947z M24.146,337.156h-3.85v3.567h0.202l0.101,0.121h3.547V337.156z"/>
		<path d="M34.586,334.999l2.257,0.282v0.182l0.041,0.061l1.471,12.92l0.04,0.081l-0.262,0.423h-0.282l-0.041,0.04l-0.04-0.04
			l-0.202,0.04h-1.31l-0.766-6.268h-1.25l-0.121-0.081h-1.995l-0.081,0.081l-1.512,6.087l0.081,0.041H28.7l-0.121,0.101h-0.544
			l3.77-13.807h2.237l0.061-0.161L34.586,334.999z M34.485,337.538l-0.04,0.04h-1.149l-0.061-0.04l-0.786,3.185v0.363h2.842
			l-0.362-2.338l-0.061-0.907l-0.04-0.02l0.04-0.041l-0.081-0.101v-0.141H34.485z"/>
		<path d="M40.309,335.18h1.915v10.441c0,0.605,0.605,1.028,0.968,1.028h2.237c0.323,0,0.544-0.463,0.604-0.927V335.2h2.036v12.154
			c0,0.686-0.988,1.512-1.633,1.592h-4.475c-0.866,0-1.653-0.726-1.653-2.076v-3.245V335.18z"/>
		<path d="M57.763,335.099v1.834l-3.588,0.242c-0.947,0-1.471,0.544-1.471,0.846v3.245l0.1,0.081v4.273
			c0,0.907,0.645,1.25,1.048,1.25h3.991v2.076h-4.958c-0.645,0-2.217-0.766-2.217-1.955v-2.762l-0.081-0.08l0.04-0.041l-0.04-0.061
			l0.04-0.02l-0.04-0.121v-5.16l-0.101-0.061h0.041l-0.041-0.08v-1.27c0-0.907,1.431-1.915,1.915-1.915l1.774-0.222h1.129
			l0.08-0.101H57.763z"/>
		<path d="M64.797,334.858h2.076v14.089h-1.834v-6.369h-2.56v6.369h-1.875v-13.847H62.6v5.845l2.176-0.101L64.797,334.858z"/>
		<path d="M75.72,342.638c0-0.504-0.604-0.625-1.088-0.665H71.91c-1.552,0-1.996-1.008-1.996-1.451v-2.903
			c0-1.854,2.177-2.721,2.177-2.721h5.1v1.895h-4.314c-0.383,0-0.866,0.342-0.866,1.249v2.117h3.547
			c1.109,0,1.975,0.847,1.975,1.653v5.381c0,0.605-0.423,1.754-1.834,1.754h-5.704v-1.875h4.757c0.201,0,1.008-0.262,1.008-0.746
			L75.72,342.638z"/>
		<path d="M84.265,348.947v-11.953h-3.931v-1.471l-0.081-0.02v-0.222h7.821l0.081-0.242h1.028l0.503-0.04l0.061,0.363l0.061,0.685
			v0.968h-3.366v11.832l-0.061,0.101h-0.665l-0.081-0.04l-0.081,0.04H84.265z"/>
		<path d="M100.147,348.967H99.3l-0.041-0.04h-0.786v-13.505l-0.161-0.121l0.182-0.121h1.512l0.08-0.081h1.048l2.6,7.377v-7.337
			l1.452-0.182h0.383l0.02,0.242c0,0.021,0,0.041-0.02,0.061h0.161v7.639l0.04,0.04l-0.04,0.041l0.04,0.02l-0.04,0.04l0.04,0.061
			v5.765h-0.967l-0.242-0.041l-0.121,0.041h-0.827l-3.466-9.755V348.967z"/>
		<path d="M117.479,345.621l-0.08,0.847c0,1.653-1.209,2.419-1.935,2.419h-2.278l-0.04,0.08l-0.041-0.04l-0.081,0.04h-3.286
			c-0.826,0-1.552-1.37-1.552-1.975v-8.929c0-1.976,1.169-2.681,1.835-2.681h0.383l0.685-0.161l0.041,0.04l1.895-0.302h1.088
			c1.209,0,2.923,0.847,2.923,2.741h0.04v0.524L117.479,345.621z M115.02,337.438l-1.249-0.746l-0.162,0.121h-1.753l-0.081,0.04
			l-0.02-0.04l-0.04,0.04h-0.403v-0.04h-0.041l-0.907,0.746v1.492l0.041,0.02l-0.041,0.041l0.101,0.161v3.467l0.041,0.02
			l-0.041,0.061l0.041,0.081l-0.041,0.04l0.141,0.504v3.306l0.041,0.04v0.202l0.101,0.222l0.424,0.323h0.544l0.101-0.061h1.834
			l-0.162-0.222l0.544-0.081l0.041,0.262h0.625l0.423-0.544l0.222-0.423L115.02,337.438z"/>
		<path d="M127.275,335.099v1.834l-3.588,0.242c-0.947,0-1.471,0.544-1.471,0.846v3.245l0.101,0.081v4.273
			c0,0.907,0.645,1.25,1.048,1.25h3.991v2.076h-4.958c-0.645,0-2.217-0.766-2.217-1.955v-2.762l-0.081-0.08l0.04-0.041l-0.04-0.061
			l0.04-0.02l-0.04-0.121v-5.16l-0.101-0.061h0.041l-0.041-0.08v-1.27c0-0.907,1.431-1.915,1.915-1.915l1.774-0.222h1.129
			l0.08-0.101H127.275z"/>
		<path d="M134.308,334.858h2.076v14.089h-1.834v-6.369h-2.56v6.369h-1.875v-13.847h1.996v5.845l2.176-0.101L134.308,334.858z"/>
		<path d="M149.725,346.73l3.467-11.167h2.257l-3.97,12.92l-0.162-0.02l-0.141,0.343h-1.31l-0.081,0.101h-0.524l-0.201,0.04h-0.867
			l-0.262,0.04l0.04-0.04l-2.58-13.484l0.303-0.081l0.04,0.04h1.512L149.725,346.73z"/>
		<path d="M158.008,335.321l2.157-0.242v7.499l-0.121,0.061v6.208l-1.31,0.101h-0.867L158.008,335.321z"/>
		<path d="M166.594,348.947v-11.953h-3.93v-1.471l-0.081-0.02v-0.222h7.821l0.081-0.242h1.028l0.504-0.04l0.061,0.363l0.06,0.685
			v0.968h-3.366v11.832l-0.06,0.101h-0.665l-0.081-0.04l-0.081,0.04H166.594z"/>
		<path d="M180.299,334.999l2.257,0.282v0.182l0.041,0.061l1.471,12.92l0.04,0.081l-0.262,0.423h-0.282l-0.041,0.04l-0.04-0.04
			l-0.202,0.04h-1.31l-0.766-6.268h-1.25l-0.121-0.081h-1.996l-0.081,0.081l-1.511,6.087l0.08,0.041h-1.915l-0.121,0.101h-0.544
			l3.769-13.807h2.238l0.061-0.161L180.299,334.999z M180.198,337.538l-0.04,0.04h-1.149l-0.061-0.04l-0.786,3.185v0.363h2.842
			l-0.362-2.338l-0.061-0.907l-0.04-0.02l0.04-0.041l-0.081-0.101v-0.141H180.198z"/>
		<path d="M196.726,348.725h-0.666l-0.242-0.04l-0.282,0.04h-0.766v-5.906l-0.041-0.202v-3.931l-2.217,2.722l-0.02,0.08
			l-1.592,1.855l-3.003-4.697v10.36l-0.061-0.041l-0.08,0.041l-0.403-0.121l-0.061,0.08l-1.29-0.08l-0.121-0.041v-2.419l0.041-0.04
			l-0.041-0.061v-8.93l-0.121-0.262v-2.076h0.202l0.302-0.101h1.714l2.983,4.857l2.016-2.922h0.061l1.551-2.217h2.137V348.725z"/>
		<path d="M199.425,335.321l2.157-0.242v7.499l-0.121,0.061v6.208l-1.31,0.101h-0.868L199.425,335.321z"/>
		<path d="M205.834,348.967h-0.846l-0.041-0.04h-0.786v-13.505L204,335.301l0.181-0.121h1.512l0.081-0.081h1.048l2.6,7.377v-7.337
			l1.452-0.182h0.384l0.02,0.242c0,0.021,0,0.041-0.02,0.061h0.161v7.639l0.041,0.04l-0.041,0.041l0.041,0.02l-0.041,0.04
			l0.041,0.061v5.765h-0.967l-0.243-0.041l-0.12,0.041h-0.827l-3.467-9.755V348.967z"/>
		<path d="M219.942,347.234v1.713h-6.087l0.303-9.171l0.1-0.061v-4.757h5.684v1.875h-3.749l-0.182,4.717l0.102,0.04h3.507v1.512
			h-3.647l-0.082,1.209l0.041,0.121l-0.041,0.242v2.62L219.942,347.234z"/>
		<path d="M224.719,334.938v5.201l0.1,0.121v2.801l0.081,0.081l-0.04,0.121v1.633l-0.041-0.041v0.041l-0.08-0.041h-2.338
			l-0.041-0.08v-6.733l0.081-0.121v-2.983H224.719z M222.864,346.528h2.056v0.625l-0.021-0.02l0.061,0.464v1.27l-0.04,0.081h-2.56
			v-2.459L222.864,346.528z"/>
	</g>
</g>
<g>
	<path fill="#33C4E5" d="M1.386,49.689c0.383-2.531,1.377-7.88,1.377-10.014c0-8.025-1.377-30.623-1.377-30.623
		c0-3.123,3.201-5.654,7.146-5.654c0,0,130.25-3.829,162.732-1.812c9.638,0.599,39.293,1.812,39.293,1.812
		c3.948,0,7.147,2.531,7.147,5.654c0,0,4.126,37.381,3.142,49.83c-0.282,3.567-3.142,14.081-3.142,14.081
		c0,3.123-3.212,5.407-7.147,5.655c-6.841,0.431-20.444,2.592-27.26,2.592c-2.464,0-5.395-0.116-8.634-0.309
		c0.13,3.858-0.724,9.747-3.607,13.442c-7.45,9.541-21.758,26.793-32.655,29.218c0,0-2.509-0.029,1.306-1.926
		c3.812-1.896,10.955-11.013,22.917-29.88c1.098-1.729,2.461-7.764,0.325-11.736c-15.505-1.245-47.332-4.707-66.406-4.707
		c-11.732,0-76.793,2.909-88.012,3.305c-3.942,0.139-7.146-2.532-7.146-5.655C1.386,72.963,0.516,55.466,1.386,49.689z"/>
	<g>
		<path d="M17.062,32.091l-0.051-0.877l0.051-0.051l-0.051-0.155l0.051-0.104V21.23l-0.051-0.232l0.051-0.078v-4.23l-0.051-0.129
			l0.051-0.026v-1.574h4.927l0.103,0.051h1.419c1.393,0,2.863,2.348,2.863,3.354v11.093c0,0.955-1.547,2.631-2.683,2.631H17.062z
			 M19.848,17.85l-0.078,0.052h-0.361v1.677l0.103,0.104h-0.052v0.438l0.052,0.051l-0.052,0.026l0.129,0.129v6.449l0.052,0.104
			v2.373l0.128,0.155h2.58l0.051-0.051h0.593l0.955-0.361h0.129v-5.108h-0.052l0.052-0.052l-0.181-0.258v-4.695l-0.155-0.594
			L22.84,17.85H19.848z"/>
		<path d="M36.822,14.239l2.889,0.361v0.232l0.052,0.077l1.883,16.536l0.052,0.104l-0.335,0.542h-0.361l-0.051,0.052l-0.052-0.052
			l-0.258,0.052h-1.676l-0.98-8.023h-1.599l-0.155-0.104h-2.554l-0.103,0.104l-1.935,7.791l0.104,0.051h-2.451l-0.154,0.129h-0.697
			l4.824-17.671h2.863l0.077-0.207L36.822,14.239z M36.693,17.489l-0.052,0.052h-1.47l-0.078-0.052l-1.006,4.076v0.464h3.638
			l-0.465-2.992l-0.077-1.161l-0.051-0.026l0.051-0.051L37.08,17.67v-0.181H36.693z"/>
		<path d="M46.702,32.091h-2.528V14.368h7.404c2.013,0,2.554,1.574,2.554,2.812v4.798c0,1.032-0.955,2.09-1.754,2.09h-1.109
			l3.25,8.023h-2.993l-2.915-8.023H46.65L46.702,32.091z M51.552,16.999h-4.927v4.566h0.258l0.128,0.155h4.541V16.999z"/>
		<path d="M67.081,15.555l-0.051,0.051h0.051v0.104l-0.051,0.077l-0.077,1.058h-6.32v4.257h5.262v2.089h-5.237l-0.155,0.052
			l-0.052,0.129L60.4,23.397v8.719h-2.425V14.884h8.874L67.081,15.555z"/>
		<path d="M77.761,24.016c0-0.645-0.774-0.799-1.393-0.851h-3.482c-1.987,0-2.554-1.29-2.554-1.857v-3.715
			c0-2.374,2.786-3.483,2.786-3.483h6.527v2.425h-5.521c-0.49,0-1.109,0.438-1.109,1.599v2.709h4.541
			c1.419,0,2.528,1.083,2.528,2.115v6.888c0,0.774-0.542,2.245-2.348,2.245h-7.301v-2.399h6.088c0.258,0,1.29-0.335,1.29-0.955
			L77.761,24.016z"/>
		<path d="M99.121,29.898v2.193H91.33l0.387-11.738l0.129-0.077v-6.088h7.275v2.399h-4.798l-0.232,6.037l0.129,0.052h4.489v1.935
			h-4.67l-0.103,1.548l0.052,0.155l-0.052,0.31v3.354L99.121,29.898z"/>
		<path d="M102.397,14.652l2.76-0.31v9.596l-0.155,0.078v7.945l-1.677,0.129h-1.109L102.397,14.652z"/>
		<path d="M110.6,32.116h-1.083l-0.051-0.051h-1.006V14.781l-0.206-0.155l0.232-0.155h1.935l0.103-0.103h1.341l3.328,9.442v-9.39
			l1.857-0.232h0.49l0.026,0.31c0,0.025,0,0.051-0.026,0.077h0.207v9.777l0.052,0.052l-0.052,0.051l0.052,0.026l-0.052,0.051
			l0.052,0.077v7.378h-1.238l-0.31-0.052l-0.155,0.052h-1.058L110.6,19.501V32.116z"/>
		<path d="M146.56,14.11c-0.052,0.129-0.077,0.336-0.077,0.361l0.025,0.026l-4.05,17.593h-2.295l-2.683-8.281l-0.052-0.052
			l-3.586,8.281l0.026,0.052h-2.477l-3.199-17.645h2.786l2.142,13.001l3.095-7.507h2.812l2.219,6.862l2.786-12.693H146.56z"/>
		<path d="M157.421,29.898v2.193h-7.791l0.387-11.738l0.129-0.077v-6.088h7.275v2.399h-4.798l-0.232,6.037l0.129,0.052h4.489v1.935
			h-4.67l-0.103,1.548l0.052,0.155l-0.052,0.31v3.354L157.421,29.898z"/>
		<path d="M162.864,32.116h-1.084l-0.051-0.051h-1.006V14.781l-0.206-0.155l0.232-0.155h1.935l0.103-0.103h1.342l3.328,9.442v-9.39
			l1.857-0.232h0.49l0.026,0.31c0,0.025,0,0.051-0.026,0.077h0.207v9.777l0.052,0.052l-0.052,0.051l0.052,0.026l-0.052,0.051
			l0.052,0.077v7.378h-1.238l-0.31-0.052l-0.155,0.052h-1.058l-4.437-12.486V32.116z"/>
		<path d="M173.337,14.652l2.76-0.31v9.596l-0.155,0.078v7.945l-1.677,0.129h-1.109L173.337,14.652z"/>
		<path d="M181.488,17.076v12.821h4.412v-4.541l-0.078-0.954l-0.593-0.645h-1.909v-2.142l0.051-0.258h3.406
			c0.464,0,1.521,0.387,1.521,1.445v6.63c0,1.574-1.47,2.399-1.857,2.605c-0.025,0.026-0.051,0.052-0.077,0.052h-5.211
			c-0.697,0-1.909-0.697-1.909-1.548v-4.385l-0.051-0.103l0.103-0.052v-9.441c0-0.903,1.032-2.063,2.605-2.063h4.644
			c0.542,0,1.599,0.335,1.599,2.089v1.909h-2.218l-0.052-1.444L181.488,17.076z"/>
		<path d="M16.572,45.195l2.889,0.361v0.232l0.052,0.078l1.883,16.536l0.052,0.104l-0.336,0.542h-0.361L20.7,63.098l-0.052-0.052
			l-0.258,0.052h-1.677l-0.98-8.023h-1.6l-0.155-0.104h-2.554l-0.104,0.104l-1.935,7.791l0.103,0.051H9.039l-0.155,0.129H8.188
			l4.824-17.671h2.863l0.078-0.207L16.572,45.195z M16.443,48.445l-0.052,0.052h-1.47l-0.077-0.052l-1.006,4.076v0.464h3.638
			l-0.465-2.992l-0.078-1.161l-0.051-0.026l0.051-0.051l-0.103-0.129v-0.181H16.443z"/>
		<path d="M23.615,45.066h6.14l0.877,0.207l0.413,0.207l0.825,1.238l0.129,0.052l0.722,3.482l-0.052,0.697
			c-0.207,0.49-0.49,1.109-1.187,1.651c1.032,0.361,1.548,1.083,1.986,1.729v6.5c0,0.593-0.593,2.141-2.167,2.141h-7.429
			l-0.31-0.207h0.051v-1.831h0.052l-0.052-0.052v-0.103h0.052l-0.052-0.052l0.052-0.052h-0.052l0.052-0.232l-0.052-0.077
			l0.052-0.051l-0.052-0.026l0.052-0.258l-0.052-0.258l0.052-0.026L23.615,45.066z M26.143,55.437v3.766l-0.052,0.026v0.335
			l0.052,0.051l-0.052,0.258v0.49l0.155-0.128h4.153l0.103-0.052h0.542v-4.747h-0.903l-0.051,0.051l-0.258-0.051l-0.361,0.051
			l-0.181-0.051H26.143z M26.452,47.62v5.082h2.605c0,0,1.032-1.264,1.032-2.786c0-1.161-0.206-2.192-0.206-2.192l-0.232-0.052
			L26.452,47.62z"/>
		<path d="M54.442,45.066c-0.052,0.129-0.078,0.336-0.078,0.361l0.026,0.026l-4.05,17.593h-2.296l-2.683-8.281l-0.052-0.052
			l-3.586,8.281l0.026,0.052h-2.477l-3.199-17.645h2.786l2.141,13.001l3.096-7.507h2.812l2.219,6.862l2.786-12.693H54.442z"/>
		<path d="M65.302,60.854v2.193h-7.791l0.387-11.737l0.129-0.078v-6.088h7.275v2.399h-4.798l-0.232,6.037l0.129,0.051h4.489v1.935
			H60.22l-0.103,1.548l0.052,0.155l-0.052,0.31v3.354L65.302,60.854z"/>
		<path d="M77.71,45.324v2.348l-4.592,0.31c-1.213,0-1.883,0.697-1.883,1.083v4.153l0.129,0.103v5.469c0,1.161,0.826,1.6,1.341,1.6
			h5.108v2.657h-6.346c-0.826,0-2.838-0.98-2.838-2.502V57.01l-0.104-0.103l0.052-0.052l-0.052-0.078l0.052-0.025l-0.052-0.155
			v-6.604l-0.128-0.078h0.051l-0.051-0.103v-1.625c0-1.161,1.832-2.451,2.45-2.451l2.271-0.283h1.445l0.103-0.129H77.71z"/>
		<path d="M86.713,45.014h2.657v18.032h-2.347v-8.152h-3.276v8.152h-2.399V45.324h2.554v7.481l2.787-0.129L86.713,45.014z"/>
		<path d="M100.695,54.972c0-0.645-0.774-0.799-1.393-0.851h-3.482c-1.986,0-2.554-1.29-2.554-1.857v-3.715
			c0-2.374,2.786-3.483,2.786-3.483h6.527v2.425h-5.521c-0.49,0-1.109,0.439-1.109,1.6v2.708h4.54c1.419,0,2.528,1.083,2.528,2.115
			v6.888c0,0.774-0.542,2.245-2.348,2.245h-7.3v-2.399h6.088c0.258,0,1.29-0.335,1.29-0.955L100.695,54.972z"/>
		<path d="M109.104,60.595h5.959l-0.129,2.451h-8.436V44.963h2.58v14.705L109.104,60.595z"/>
		<path d="M118.494,45.427h2.451V58.79c0,0.774,0.774,1.316,1.238,1.316h2.864c0.413,0,0.697-0.593,0.774-1.187V45.453h2.605v15.555
			c0,0.877-1.264,1.935-2.089,2.038h-5.727c-1.109,0-2.116-0.929-2.116-2.657v-4.153V45.427z"/>
		<path d="M133.869,63.072h-1.084l-0.051-0.051h-1.006V45.737l-0.206-0.155l0.232-0.155h1.935l0.104-0.103h1.341l3.328,9.442v-9.39
			l1.858-0.232h0.49l0.026,0.31c0,0.025,0,0.051-0.026,0.077h0.207v9.777l0.052,0.052l-0.052,0.051l0.052,0.026l-0.052,0.051
			l0.052,0.077v7.378h-1.239l-0.309-0.052l-0.155,0.052h-1.058l-4.437-12.486V63.072z"/>
		<path d="M146.458,48.033v12.821h4.411v-4.541l-0.077-0.954l-0.593-0.645h-1.909v-2.141l0.051-0.258h3.405
			c0.464,0,1.522,0.387,1.522,1.444v6.63c0,1.574-1.471,2.399-1.857,2.605c-0.026,0.026-0.051,0.052-0.078,0.052h-5.21
			c-0.697,0-1.91-0.696-1.91-1.548v-4.386l-0.051-0.103l0.103-0.051v-9.442c0-0.903,1.032-2.063,2.606-2.063h4.644
			c0.542,0,1.599,0.335,1.599,2.089v1.909h-2.219l-0.051-1.444L146.458,48.033z"/>
		<path d="M171.739,54.972c0-0.645-0.774-0.799-1.394-0.851h-3.482c-1.986,0-2.554-1.29-2.554-1.857v-3.715
			c0-2.374,2.786-3.483,2.786-3.483h6.526v2.425h-5.521c-0.49,0-1.109,0.439-1.109,1.6v2.708h4.541c1.419,0,2.528,1.083,2.528,2.115
			v6.888c0,0.774-0.542,2.245-2.348,2.245h-7.3v-2.399h6.088c0.258,0,1.29-0.335,1.29-0.955L171.739,54.972z"/>
		<path d="M185.307,60.854v2.193h-7.791l0.387-11.737l0.129-0.078v-6.088h7.275v2.399h-4.798l-0.232,6.037l0.129,0.051h4.489v1.935
			h-4.67l-0.103,1.548l0.052,0.155l-0.052,0.31v3.354L185.307,60.854z"/>
		<path d="M188.583,45.608l2.76-0.31v9.596l-0.155,0.078v7.945l-1.677,0.129h-1.109L188.583,45.608z"/>
		<path d="M196.786,63.072h-1.083l-0.052-0.051h-1.006V45.737l-0.206-0.155l0.232-0.155h1.935l0.104-0.103h1.341l3.328,9.442v-9.39
			l1.857-0.232h0.49l0.026,0.31c0,0.025,0,0.051-0.026,0.077h0.207v9.777l0.052,0.052l-0.052,0.051l0.052,0.026l-0.052,0.051
			l0.052,0.077v7.378h-1.238l-0.31-0.052l-0.155,0.052h-1.058l-4.437-12.486V63.072z"/>
	</g>
	<g>
		<g>
			<path d="M208.927,56.379c0,0.457,0.761,0.705,0.952,0.705h4.489v1.769h-5.385c-1.332,0-1.73-1.085-1.73-1.655v-5.08
				c0-0.76,0.818-1.559,1.865-1.559h3.347v-1.997c0-0.856-0.457-1.179-0.817-1.179h-4.071v-1.788h4.812c0,0,2.054,0.817,2.054,2.567
				v2.74c0,0.418-0.417,1.371-1.883,1.371h-2.567c-0.458,0.037-1.027,0.151-1.027,0.627L208.927,56.379z"/>
		</g>
		<g>
			<path d="M209.774,61.007h1.956V61.6l-0.02-0.019l0.06,0.442v1.207l-0.04,0.078h-2.437v-2.341L209.774,61.007z"/>
		</g>
	</g>
</g>
</svg>
