<?xml version="1.0" encoding="utf-8"?>
<!-- Generator: Adobe Illustrator 16.0.0, SVG Export Plug-In . SVG Version: 6.00 Build 0)  -->
<!DOCTYPE svg PUBLIC "-//W3C//DTD SVG 1.1//EN" "http://www.w3.org/Graphics/SVG/1.1/DTD/svg11.dtd">
<svg version="1.1" id="Layer_1" xmlns="http://www.w3.org/2000/svg" xmlns:xlink="http://www.w3.org/1999/xlink" x="0px" y="0px"
	 width="841.889px" height="595.281px" viewBox="0 0 841.889 595.281" enable-background="new 0 0 841.889 595.281"
	 xml:space="preserve">
<g>
	<g>
		<line fill="none" stroke="#FFE75E" stroke-width="1.4538" stroke-miterlimit="10" x1="107.883" y1="4.334" x2="107.883" y2="0"/>
		
			<line fill="none" stroke="#FFE75E" stroke-width="1.4538" stroke-miterlimit="10" x1="98.866" y1="4.718" x2="98.495" y2="0.396"/>
		
			<line fill="none" stroke="#FFE75E" stroke-width="1.4538" stroke-miterlimit="10" x1="89.925" y1="5.884" x2="89.182" y2="1.616"/>
		
			<line fill="none" stroke="#FFE75E" stroke-width="1.4538" stroke-miterlimit="10" x1="81.128" y1="7.817" x2="80.003" y2="3.627"/>
		
			<line fill="none" stroke="#FFE75E" stroke-width="1.4538" stroke-miterlimit="10" x1="72.521" y1="10.521" x2="71.036" y2="6.442"/>
		
			<line fill="none" stroke="#FFE75E" stroke-width="1.4538" stroke-miterlimit="10" x1="64.174" y1="13.951" x2="62.348" y2="10.021"/>
		
			<line fill="none" stroke="#FFE75E" stroke-width="1.4538" stroke-miterlimit="10" x1="56.17" y1="18.103" x2="54.008" y2="14.348"/>
		
			<line fill="none" stroke="#FFE75E" stroke-width="1.4538" stroke-miterlimit="10" x1="48.554" y1="22.943" x2="46.068" y2="19.389"/>
		<line fill="none" stroke="#FFE75E" stroke-width="1.4538" stroke-miterlimit="10" x1="41.393" y1="28.421" x2="38.61" y2="25.1"/>
		
			<line fill="none" stroke="#FFE75E" stroke-width="1.4538" stroke-miterlimit="10" x1="34.734" y1="34.5" x2="31.671" y2="31.432"/>
		
			<line fill="none" stroke="#FFE75E" stroke-width="1.4538" stroke-miterlimit="10" x1="28.631" y1="41.134" x2="25.308" y2="38.349"/>
		
			<line fill="none" stroke="#FFE75E" stroke-width="1.4538" stroke-miterlimit="10" x1="23.136" y1="48.291" x2="19.578" y2="45.799"/>
		
			<line fill="none" stroke="#FFE75E" stroke-width="1.4538" stroke-miterlimit="10" x1="18.277" y1="55.887" x2="14.525" y2="53.71"/>
		
			<line fill="none" stroke="#FFE75E" stroke-width="1.4538" stroke-miterlimit="10" x1="14.094" y1="63.875" x2="10.161" y2="62.048"/>
		
			<line fill="none" stroke="#FFE75E" stroke-width="1.4538" stroke-miterlimit="10" x1="10.635" y1="72.202" x2="6.556" y2="70.724"/>
		
			<line fill="none" stroke="#FFE75E" stroke-width="1.4538" stroke-miterlimit="10" x1="7.902" y1="80.794" x2="3.717" y2="79.681"/>
		
			<line fill="none" stroke="#FFE75E" stroke-width="1.4538" stroke-miterlimit="10" x1="5.935" y1="89.592" x2="1.663" y2="88.846"/>
		
			<line fill="none" stroke="#FFE75E" stroke-width="1.4538" stroke-miterlimit="10" x1="4.743" y1="98.532" x2="0.432" y2="98.161"/>
		
			<line fill="none" stroke="#FFE75E" stroke-width="1.4538" stroke-miterlimit="10" x1="4.336" y1="107.547" x2="0.002" y2="107.547"/>
		
			<line fill="none" stroke="#FFE75E" stroke-width="1.4538" stroke-miterlimit="10" x1="4.722" y1="116.582" x2="0.398" y2="116.957"/>
		
			<line fill="none" stroke="#FFE75E" stroke-width="1.4538" stroke-miterlimit="10" x1="5.885" y1="125.491" x2="1.617" y2="126.235"/>
		
			<line fill="none" stroke="#FFE75E" stroke-width="1.4538" stroke-miterlimit="10" x1="7.819" y1="134.323" x2="3.627" y2="135.435"/>
		
			<line fill="none" stroke="#FFE75E" stroke-width="1.4538" stroke-miterlimit="10" x1="10.523" y1="142.931" x2="6.444" y2="144.416"/>
		
			<line fill="none" stroke="#FFE75E" stroke-width="1.4538" stroke-miterlimit="10" x1="13.953" y1="151.244" x2="10.023" y2="153.097"/>
		
			<line fill="none" stroke="#FFE75E" stroke-width="1.4538" stroke-miterlimit="10" x1="18.105" y1="159.255" x2="14.35" y2="161.414"/>
		
			<line fill="none" stroke="#FFE75E" stroke-width="1.4538" stroke-miterlimit="10" x1="22.945" y1="166.889" x2="19.39" y2="169.355"/>
		
			<line fill="none" stroke="#FFE75E" stroke-width="1.4538" stroke-miterlimit="10" x1="28.421" y1="174.029" x2="25.103" y2="176.844"/>
		
			<line fill="none" stroke="#FFE75E" stroke-width="1.4538" stroke-miterlimit="10" x1="34.502" y1="180.704" x2="31.432" y2="183.757"/>
		
			<line fill="none" stroke="#FFE75E" stroke-width="1.4538" stroke-miterlimit="10" x1="41.135" y1="186.796" x2="38.351" y2="190.128"/>
		
			<line fill="none" stroke="#FFE75E" stroke-width="1.4538" stroke-miterlimit="10" x1="48.293" y1="192.292" x2="45.803" y2="195.847"/>
		
			<line fill="none" stroke="#FFE75E" stroke-width="1.4538" stroke-miterlimit="10" x1="55.889" y1="197.177" x2="53.711" y2="200.905"/>
		
			<line fill="none" stroke="#FFE75E" stroke-width="1.4538" stroke-miterlimit="10" x1="63.877" y1="201.334" x2="62.049" y2="205.266"/>
		
			<line fill="none" stroke="#FFE75E" stroke-width="1.4538" stroke-miterlimit="10" x1="72.204" y1="204.818" x2="70.724" y2="208.884"/>
		
			<line fill="none" stroke="#FFE75E" stroke-width="1.4538" stroke-miterlimit="10" x1="80.796" y1="207.513" x2="79.683" y2="211.721"/>
		
			<line fill="none" stroke="#FFE75E" stroke-width="1.4538" stroke-miterlimit="10" x1="89.591" y1="209.496" x2="88.848" y2="213.755"/>
		
			<line fill="none" stroke="#FFE75E" stroke-width="1.4538" stroke-miterlimit="10" x1="98.533" y1="210.683" x2="98.162" y2="215.004"/>
		
			<line fill="none" stroke="#FFE75E" stroke-width="1.4538" stroke-miterlimit="10" x1="107.55" y1="211.079" x2="107.55" y2="215.432"/>
		
			<line fill="none" stroke="#FFE75E" stroke-width="1.4538" stroke-miterlimit="10" x1="116.569" y1="210.702" x2="116.94" y2="215.036"/>
		
			<line fill="none" stroke="#FFE75E" stroke-width="1.4538" stroke-miterlimit="10" x1="125.51" y1="209.564" x2="126.253" y2="213.816"/>
		
			<line fill="none" stroke="#FFE75E" stroke-width="1.4538" stroke-miterlimit="10" x1="134.307" y1="207.615" x2="135.431" y2="211.795"/>
		
			<line fill="none" stroke="#FFE75E" stroke-width="1.4538" stroke-miterlimit="10" x1="142.913" y1="204.909" x2="144.398" y2="208.986"/>
		
			<line fill="none" stroke="#FFE75E" stroke-width="1.4538" stroke-miterlimit="10" x1="151.26" y1="201.482" x2="153.089" y2="205.414"/>
		
			<line fill="none" stroke="#FFE75E" stroke-width="1.4538" stroke-miterlimit="10" x1="159.258" y1="197.327" x2="161.427" y2="201.089"/>
		
			<line fill="none" stroke="#FFE75E" stroke-width="1.4538" stroke-miterlimit="10" x1="166.881" y1="192.503" x2="169.364" y2="196.062"/>
		
			<line fill="none" stroke="#FFE75E" stroke-width="1.4538" stroke-miterlimit="10" x1="174.037" y1="187.01" x2="176.84" y2="190.35"/>
		
			<line fill="none" stroke="#FFE75E" stroke-width="1.4538" stroke-miterlimit="10" x1="180.701" y1="180.925" x2="183.76" y2="183.981"/>
		
			<line fill="none" stroke="#FFE75E" stroke-width="1.4538" stroke-miterlimit="10" x1="186.798" y1="174.3" x2="190.128" y2="177.075"/>
		
			<line fill="none" stroke="#FFE75E" stroke-width="1.4538" stroke-miterlimit="10" x1="192.295" y1="167.131" x2="195.853" y2="169.646"/>
		
			<line fill="none" stroke="#FFE75E" stroke-width="1.4538" stroke-miterlimit="10" x1="197.173" y1="159.552" x2="200.907" y2="161.706"/>
		
			<line fill="none" stroke="#FFE75E" stroke-width="1.4538" stroke-miterlimit="10" x1="201.336" y1="151.543" x2="205.266" y2="153.394"/>
		
			<line fill="none" stroke="#FFE75E" stroke-width="1.4538" stroke-miterlimit="10" x1="204.817" y1="143.228" x2="208.886" y2="144.713"/>
		
			<line fill="none" stroke="#FFE75E" stroke-width="1.4538" stroke-miterlimit="10" x1="207.515" y1="134.62" x2="211.721" y2="135.735"/>
		
			<line fill="none" stroke="#FFE75E" stroke-width="1.4538" stroke-miterlimit="10" x1="209.495" y1="125.841" x2="213.76" y2="126.604"/>
		
			<line fill="none" stroke="#FFE75E" stroke-width="1.4538" stroke-miterlimit="10" x1="210.685" y1="116.881" x2="215.005" y2="117.254"/>
		
			<line fill="none" stroke="#FFE75E" stroke-width="1.4538" stroke-miterlimit="10" x1="211.084" y1="107.883" x2="215.431" y2="107.883"/>
		
			<line fill="none" stroke="#FFE75E" stroke-width="1.4538" stroke-miterlimit="10" x1="210.705" y1="98.864" x2="215.038" y2="98.493"/>
		
			<line fill="none" stroke="#FFE75E" stroke-width="1.4538" stroke-miterlimit="10" x1="209.567" y1="89.922" x2="213.821" y2="89.179"/>
		
			<line fill="none" stroke="#FFE75E" stroke-width="1.4538" stroke-miterlimit="10" x1="207.617" y1="81.127" x2="211.796" y2="79.997"/>
		
			<line fill="none" stroke="#FFE75E" stroke-width="1.4538" stroke-miterlimit="10" x1="204.911" y1="72.518" x2="208.99" y2="71.034"/>
		
			<line fill="none" stroke="#FFE75E" stroke-width="1.4538" stroke-miterlimit="10" x1="201.482" y1="64.173" x2="205.414" y2="62.348"/>
		
			<line fill="none" stroke="#FFE75E" stroke-width="1.4538" stroke-miterlimit="10" x1="197.328" y1="56.173" x2="201.088" y2="54.005"/>
		
			<line fill="none" stroke="#FFE75E" stroke-width="1.4538" stroke-miterlimit="10" x1="192.503" y1="48.553" x2="196.062" y2="46.067"/>
		
			<line fill="none" stroke="#FFE75E" stroke-width="1.4538" stroke-miterlimit="10" x1="187.012" y1="41.392" x2="190.35" y2="38.608"/>
		
			<line fill="none" stroke="#FFE75E" stroke-width="1.4538" stroke-miterlimit="10" x1="180.925" y1="34.732" x2="183.989" y2="31.67"/>
		
			<line fill="none" stroke="#FFE75E" stroke-width="1.4538" stroke-miterlimit="10" x1="174.3" y1="28.629" x2="177.082" y2="25.307"/>
		
			<line fill="none" stroke="#FFE75E" stroke-width="1.4538" stroke-miterlimit="10" x1="167.141" y1="23.136" x2="169.642" y2="19.577"/>
		
			<line fill="none" stroke="#FFE75E" stroke-width="1.4538" stroke-miterlimit="10" x1="159.549" y1="18.275" x2="161.72" y2="14.521"/>
		
			<line fill="none" stroke="#FFE75E" stroke-width="1.4538" stroke-miterlimit="10" x1="151.557" y1="14.094" x2="153.387" y2="10.161"/>
		
			<line fill="none" stroke="#FFE75E" stroke-width="1.4538" stroke-miterlimit="10" x1="143.234" y1="10.634" x2="144.716" y2="6.555"/>
		
			<line fill="none" stroke="#FFE75E" stroke-width="1.4538" stroke-miterlimit="10" x1="134.638" y1="7.905" x2="135.752" y2="3.72"/>
		
			<line fill="none" stroke="#FFE75E" stroke-width="1.4538" stroke-miterlimit="10" x1="125.844" y1="5.939" x2="126.586" y2="1.663"/>
		<line fill="none" stroke="#FFE75E" stroke-width="1.4538" stroke-miterlimit="10" x1="116.9" y1="4.742" x2="117.271" y2="0.43"/>
	</g>
</g>
</svg>
