<?xml version="1.0" encoding="utf-8"?>
<!-- Generator: Adobe Illustrator 18.1.1, SVG Export Plug-In . SVG Version: 6.00 Build 0)  -->
<svg version="1.1" id="Layer_1" xmlns="http://www.w3.org/2000/svg" xmlns:xlink="http://www.w3.org/1999/xlink" x="0px" y="0px"
	 width="600px" height="600px" viewBox="0 0 600 600" enable-background="new 0 0 600 600" xml:space="preserve">
<g>
	<defs>
		<polygon id="SVGID_1_" points="166.8,95.2 447.3,94.1 448.8,39.6 166.3,39.5 		"/>
	</defs>
	<use xlink:href="#SVGID_1_"  overflow="visible" fill="#754C24"/>
	<clipPath id="SVGID_2_">
		<use xlink:href="#SVGID_1_"  overflow="visible"/>
	</clipPath>
	<g clip-path="url(#SVGID_2_)">
		<path fill="none" stroke="#876747" stroke-width="3.3435" stroke-miterlimit="10" d="M482.9,43.7c-6.4,2.3-24.6-1.3-32.8-1.3
			c-19.7,0-39.6,0-59.3,0c-16.3,0-31.3,1.4-47.2,2.1c-17.1,0.7-35.1-1.3-52.3-1.3c-29.6,0-58.8,0.1-88.5-0.5
			c-18.8-0.4-37.5-1.2-56.2-1.6c-11.3-0.2-25.6,1.5-35.5-0.4"/>
		<path fill="none" stroke="#876747" stroke-width="3.3435" stroke-miterlimit="10" d="M110.1,48.6c34.7-2.4,71.9,0.5,106.8,1.7
			c41.2,1.4,81.5,3.1,122.8,2.2c53.6-1.2,108.5-0.9,162-0.9"/>
		<path fill="none" stroke="#876747" stroke-width="3.3435" stroke-miterlimit="10" d="M131.6,66.5c16,0,39.2,1.3,57.2,0
			c11.5-0.8,66.9-0.5,83.4-2.7c-11.4-1.7-76.9-1.8-89.3-2.3c-11.8-0.5-23.4-0.6-35.3,0c-5.6,0.3-13.8,1.4-18.9,0.4"/>
		<path fill="none" stroke="#876747" stroke-width="3.3435" stroke-miterlimit="10" d="M103,69.8c17.6-0.6,36.1,0.8,54,0.8
			c17.3,0,34-0.8,51.3-0.8c23.6,0,46.1-0.8,69.3-1.6c27.7-1,57.8,0.6,86,0.9c39.4,0.4,79.6,0.5,119.1,1.3c6.3,0.1,14.9,0.1,20.7,0.9
			"/>
		<path fill="none" stroke="#876747" stroke-width="3.3435" stroke-miterlimit="10" d="M498.4,77.4c-12.6,1.7-28.5-0.4-41.7-0.4
			c-17.2,0-34-1.3-51-1.3c-18.2,0-37,1.3-55.2,1.7c-20.6,0.5-41.7-0.9-62.4-0.9c-57.3,0-114,0-171.3-0.1"/>
		<path fill="none" stroke="#876747" stroke-width="3.3435" stroke-miterlimit="10" d="M110.8,82.3c11.6,1.8,32,0,44.4,0
			c19.7,0,39.5,0,59.2,0c37.8,0,75.6,0,113.4,0c30.4,0,61.7-1.5,91.7-0.8c23.5,0.5,49.7,4.3,72.9,3.3"/>
		<path fill="none" stroke="#876747" stroke-width="3.3435" stroke-miterlimit="10" d="M493.3,90.7c-66.6-0.7-134.1,0-201.2-0.1
			c-31.7,0-62.8-2.1-94.6-2.1c-27.1,0-53.9-0.4-80.9-0.4"/>
		<path fill="none" stroke="#876747" stroke-width="3.3435" stroke-miterlimit="10" d="M484.7,58.2c-7.1,1-15,0.1-22.4,0.4
			c-13.5,0.5-26.9,0.9-40.7,0.8c-36,0-71.4,0.6-107.5,0c-72.6-1.3-145.2-4.2-217.9-4.2"/>
	</g>
</g>
<g>
	<g>
		<path fill="#FFFFFF" d="M194.4,58.3c1.1,0,2.1-0.1,2.9-0.2c0.1,0,0.1,0,0.2,0c0.5,0,0.8,0.4,1.1,1.1c0.3,0.8,0.4,1.8,0.4,3
			c0,0.6-0.1,1-0.2,1.2c-0.1,0.3-0.3,0.4-0.6,0.4c-0.2,0-0.3-0.1-0.5-0.2s-0.3-0.3-0.4-0.5c-0.1-0.2-0.3-0.5-0.4-1
			c-0.2-0.4-0.3-0.8-0.5-0.9c-0.3-0.4-0.6-0.6-0.9-0.8c-0.4-0.2-0.9-0.2-1.5-0.2l-0.6,0c-0.4,0-0.7,0-0.8,0.1s-0.3,0.3-0.3,0.5
			c0,0.5-0.1,1.2-0.1,2.3c0,1.1,0,2.3,0,3.7c0,2.9,0,5.2,0.1,6.8c0.1,1.6,0.1,2.4,0.3,2.6c0.1,0.1,0.4,0.3,0.9,0.5
			c0.5,0.2,0.8,0.5,0.8,0.9c0,0.4-0.3,0.7-0.8,0.9s-1.5,0.3-3,0.3s-2.5-0.1-3-0.2s-0.8-0.5-0.8-0.9c0-0.4,0.3-0.7,0.8-0.9
			c0.5-0.2,0.8-0.4,0.9-0.5c0.1-0.2,0.2-1,0.2-2.6c0.1-1.6,0.1-3.8,0.1-6.8c0-1.4,0-2.7-0.1-3.7c0-1.1-0.1-1.8-0.1-2.3
			c0-0.3-0.1-0.4-0.3-0.5s-0.4-0.1-0.8-0.1l-0.6,0c-0.6,0-1.2,0.1-1.5,0.2c-0.4,0.2-0.7,0.4-0.9,0.8c-0.1,0.2-0.3,0.5-0.4,0.9
			c-0.2,0.4-0.3,0.8-0.4,1c-0.1,0.2-0.2,0.3-0.4,0.4c-0.2,0.1-0.3,0.2-0.5,0.2c-0.3,0-0.5-0.1-0.6-0.4c-0.1-0.3-0.2-0.7-0.2-1.3
			c0-1.2,0.1-2.3,0.4-3c0.3-0.8,0.7-1.1,1.1-1.2c0,0,0.1,0,0.2,0c0.7,0.1,1.7,0.2,2.8,0.2L194.4,58.3z"/>
		<path fill="#FFFFFF" d="M204.8,78.7c-1.4,0-2.2-0.1-2.6-0.2c-0.3-0.1-0.5-0.4-0.5-0.7c0-0.4,0.3-0.8,0.9-1
			c0.3-0.1,0.5-0.2,0.6-0.3c0.2-0.1,0.3-0.8,0.4-2c0.1-1.2,0.1-3.2,0.1-6.1c0-2.1-0.1-3.8-0.1-5.2c-0.1-1.4-0.2-2.3-0.3-2.4
			c-0.1-0.1-0.4-0.3-0.9-0.5c-0.5-0.2-0.8-0.5-0.8-0.9c0-0.4,0.2-0.6,0.7-0.8c0.4-0.1,1.5-0.2,3.1-0.2l8.7,0c0.5,0,0.9-0.1,1.4-0.2
			c0.5-0.1,0.7-0.2,0.7-0.2c0.1,0,0.3,0,0.4,0.1c0.1,0.1,0.2,0.1,0.3,0.3c0.2,0.3,0.4,0.8,0.6,1.5c0.2,0.7,0.3,1.2,0.3,1.7
			c0,0.4-0.1,0.7-0.2,1c-0.2,0.2-0.4,0.3-0.7,0.4c-0.3,0-0.7-0.3-1.1-1c-0.2-0.3-0.3-0.5-0.4-0.7c-0.2-0.3-0.5-0.5-0.9-0.7
			c-0.4-0.2-1-0.2-1.6-0.2l-2,0c-0.9,0-1.6,0.1-2.1,0.2c-0.5,0.1-0.8,0.3-1,0.5c-0.2,0.2-0.3,0.6-0.3,1.2c-0.1,0.6-0.1,1.5-0.1,2.7
			l0,1.1c0,0.5,0,0.7,0.1,0.8c0.1,0.1,0.3,0.2,0.5,0.2l2.5,0c0.8,0,1.3-0.1,1.6-0.3c0.3-0.2,0.5-0.6,0.6-1.2c0-0.1,0-0.2,0.1-0.3
			c0.1-0.9,0.4-1.4,0.9-1.4c0.4,0,0.7,0.3,0.9,0.8c0.2,0.5,0.2,1.7,0.2,3.5c0,1.8-0.1,3-0.2,3.5c-0.2,0.5-0.4,0.8-0.9,0.8
			c-0.5,0-0.8-0.5-0.9-1.4c0-0.1,0-0.3-0.1-0.3c-0.1-0.6-0.3-1-0.6-1.2c-0.3-0.2-0.8-0.3-1.6-0.3l-2.5,0c-0.3,0-0.4,0.1-0.5,0.2
			c-0.1,0.2-0.1,0.5-0.1,1.1l0,1.3c0,1.2,0,2.2,0.1,2.8c0,0.6,0.1,1,0.2,1.3c0.1,0.3,0.4,0.5,0.9,0.7c0.5,0.1,1.2,0.2,2.3,0.2l1.8,0
			c1,0,1.8-0.1,2.3-0.4c0.5-0.3,1-0.7,1.4-1.4c0.1-0.2,0.3-0.5,0.4-0.9c0.3-0.7,0.6-1.1,0.9-1.1c0.2,0,0.4,0.1,0.6,0.3
			s0.2,0.6,0.2,1c0,0.5-0.1,1.1-0.2,1.8c-0.1,0.7-0.4,1.4-0.6,2.1c-0.1,0.3-0.3,0.6-0.5,0.8c-0.2,0.2-0.3,0.3-0.5,0.3
			c0,0-0.2,0-0.4-0.1c-0.6-0.2-1.3-0.3-1.9-0.3L204.8,78.7z"/>
		<path fill="#FFFFFF" d="M230.8,76.5c0.9,0,1.6-0.1,2.1-0.4c0.5-0.2,1-0.7,1.4-1.5c0.1-0.2,0.3-0.5,0.4-0.9
			c0.3-0.7,0.7-1.1,1.1-1.1c0.2,0,0.4,0.1,0.6,0.4c0.1,0.2,0.2,0.6,0.2,1c0,0.6-0.1,1.2-0.2,1.9c-0.1,0.7-0.3,1.3-0.5,1.9
			c-0.2,0.4-0.3,0.7-0.5,0.8c-0.2,0.2-0.4,0.2-0.6,0.2c-1-0.2-1.7-0.3-2.2-0.3l-8.4,0c-1.4,0-2.2-0.1-2.6-0.2
			c-0.3-0.1-0.5-0.4-0.5-0.7c0-0.4,0.3-0.8,0.9-1c0.3-0.1,0.5-0.2,0.6-0.3c0.2-0.1,0.3-0.8,0.4-1.8s0.1-3.2,0.1-6.3
			c0-2.2,0-4-0.1-5.4s-0.2-2.1-0.3-2.3c-0.1-0.1-0.4-0.3-0.9-0.5c-0.5-0.2-0.8-0.5-0.8-0.9c0-0.4,0.2-0.6,0.6-0.8
			c0.4-0.1,1.5-0.2,3.2-0.2c1.7,0,2.8,0.1,3.2,0.2c0.4,0.1,0.6,0.4,0.6,0.8c0,0.4-0.3,0.7-0.9,0.9c-0.3,0.1-0.5,0.2-0.6,0.3
			c-0.2,0.1-0.3,0.7-0.4,1.7s-0.1,2.4-0.1,4.4c0,2.4,0,4.4,0.1,6c0.1,1.6,0.1,2.5,0.2,2.9c0.1,0.5,0.4,0.8,0.8,1
			c0.4,0.2,1.3,0.3,2.5,0.3L230.8,76.5z"/>
		<path fill="#FFFFFF" d="M249.5,76.4c0.9,0,1.6-0.1,2.1-0.4c0.5-0.2,1-0.7,1.4-1.5c0.1-0.2,0.3-0.5,0.4-0.9
			c0.3-0.7,0.7-1.1,1.1-1.1c0.2,0,0.4,0.1,0.6,0.4c0.1,0.2,0.2,0.6,0.2,1c0,0.6-0.1,1.2-0.2,1.9s-0.3,1.3-0.5,1.9
			c-0.2,0.4-0.3,0.7-0.5,0.8c-0.2,0.2-0.4,0.2-0.6,0.2c-1-0.2-1.7-0.3-2.2-0.3l-8.4,0c-1.4,0-2.2-0.1-2.6-0.2
			c-0.3-0.1-0.5-0.4-0.5-0.7c0-0.4,0.3-0.8,0.9-1c0.3-0.1,0.5-0.2,0.6-0.3c0.2-0.1,0.3-0.8,0.4-1.8s0.1-3.2,0.1-6.3
			c0-2.2,0-4-0.1-5.4c-0.1-1.4-0.2-2.1-0.3-2.3c-0.1-0.1-0.4-0.3-0.9-0.5c-0.5-0.2-0.8-0.5-0.8-0.9c0-0.4,0.2-0.6,0.6-0.8
			c0.4-0.1,1.5-0.2,3.2-0.2c1.7,0,2.8,0.1,3.2,0.2c0.4,0.1,0.6,0.4,0.6,0.8c0,0.4-0.3,0.7-0.9,0.9c-0.3,0.1-0.5,0.2-0.6,0.3
			c-0.2,0.1-0.3,0.7-0.4,1.7s-0.1,2.4-0.1,4.4c0,2.4,0,4.4,0.1,6c0.1,1.6,0.1,2.5,0.2,2.9c0.1,0.5,0.4,0.8,0.8,1
			c0.4,0.2,1.3,0.3,2.5,0.3L249.5,76.4z"/>
		<path fill="#FFFFFF" d="M261.3,78.5c-1.4,0-2.2-0.1-2.6-0.2c-0.3-0.1-0.5-0.4-0.5-0.7c0-0.4,0.3-0.8,0.9-1
			c0.3-0.1,0.5-0.2,0.6-0.3c0.2-0.1,0.3-0.8,0.4-2c0.1-1.2,0.1-3.2,0.1-6.1c0-2.1-0.1-3.8-0.1-5.2c-0.1-1.4-0.2-2.3-0.3-2.4
			c-0.1-0.1-0.4-0.3-0.9-0.5c-0.5-0.2-0.8-0.5-0.8-0.9c0-0.4,0.2-0.6,0.7-0.8c0.4-0.1,1.5-0.2,3.1-0.2l8.7,0c0.5,0,0.9-0.1,1.4-0.2
			s0.7-0.2,0.7-0.2c0.1,0,0.3,0,0.4,0.1c0.1,0.1,0.2,0.1,0.3,0.3c0.2,0.3,0.4,0.8,0.6,1.5c0.2,0.7,0.3,1.2,0.3,1.7
			c0,0.4-0.1,0.7-0.2,1c-0.2,0.2-0.4,0.3-0.7,0.4c-0.3,0-0.7-0.3-1.1-1c-0.2-0.3-0.3-0.5-0.4-0.7c-0.2-0.3-0.5-0.5-0.9-0.7
			c-0.4-0.2-1-0.2-1.6-0.2l-2,0c-0.9,0-1.6,0.1-2.1,0.2s-0.8,0.3-1,0.5c-0.2,0.2-0.3,0.6-0.3,1.2c-0.1,0.6-0.1,1.5-0.1,2.7l0,1.1
			c0,0.5,0,0.7,0.1,0.8c0.1,0.1,0.3,0.2,0.5,0.2l2.5,0c0.8,0,1.3-0.1,1.6-0.3c0.3-0.2,0.5-0.6,0.6-1.2c0-0.1,0-0.2,0.1-0.3
			c0.1-0.9,0.4-1.4,0.9-1.4c0.4,0,0.7,0.3,0.9,0.8c0.2,0.5,0.2,1.7,0.2,3.5c0,1.8-0.1,3-0.2,3.5c-0.2,0.5-0.4,0.8-0.9,0.8
			c-0.5,0-0.8-0.5-0.9-1.4c0-0.1,0-0.3-0.1-0.3c-0.1-0.6-0.3-1-0.6-1.2c-0.3-0.2-0.8-0.3-1.6-0.3l-2.5,0c-0.3,0-0.4,0.1-0.5,0.2
			c-0.1,0.2-0.1,0.5-0.1,1.1l0,1.3c0,1.2,0,2.2,0.1,2.8c0,0.6,0.1,1,0.2,1.3c0.1,0.3,0.4,0.5,0.9,0.7s1.2,0.2,2.3,0.2l1.8,0
			c1,0,1.8-0.1,2.3-0.4c0.5-0.3,1-0.7,1.4-1.4c0.1-0.2,0.3-0.5,0.4-0.9c0.3-0.7,0.6-1.1,0.9-1.1c0.2,0,0.4,0.1,0.6,0.3
			s0.2,0.6,0.2,1c0,0.5-0.1,1.1-0.2,1.8c-0.1,0.7-0.4,1.4-0.6,2.1c-0.1,0.3-0.3,0.6-0.5,0.8c-0.2,0.2-0.3,0.3-0.5,0.3
			c0,0-0.2,0-0.4-0.1c-0.6-0.2-1.3-0.3-1.9-0.3L261.3,78.5z"/>
		<path fill="#FFFFFF" d="M289.7,68.3l0,0.2c1,0.2,1.8,0.6,2.4,1.2c0.6,0.6,1.1,1.7,1.6,3.2c0.1,0.3,0.2,0.8,0.4,1.4
			c0.4,1.5,0.8,2.2,1.4,2.2c0.1,0,0.2,0,0.4,0c0.2,0,0.4,0,0.5,0c0.2,0,0.3,0.1,0.5,0.2c0.1,0.1,0.2,0.3,0.2,0.5
			c0,0.4-0.3,0.8-0.8,1.1s-1.3,0.4-2.2,0.4c-1.9,0-3.3-1.4-4.1-4.3l0-0.1c-0.7-2.3-1.4-3.7-2-4.3c-0.7-0.6-1.7-0.9-3-0.9l-1.3,0
			c-0.2,0-0.4,0.1-0.5,0.2c-0.1,0.1-0.1,0.5-0.1,1l0,0.6c0,2.2,0,3.6,0.1,4.3c0.1,0.7,0.2,1.1,0.4,1.2c0.1,0.1,0.3,0.2,0.6,0.3
			c0.6,0.2,0.9,0.5,0.9,0.9c0,0.4-0.3,0.7-0.8,0.9c-0.5,0.2-1.5,0.2-3,0.3c-1.5,0-2.5-0.1-3-0.2s-0.8-0.5-0.8-0.9
			c0-0.4,0.3-0.7,0.9-0.9c0.3-0.1,0.5-0.2,0.6-0.3c0.2-0.2,0.3-0.8,0.4-1.9c0.1-1.1,0.1-3.2,0.1-6.2c0-2.2,0-4-0.1-5.4
			c-0.1-1.4-0.2-2.2-0.3-2.3c-0.1-0.1-0.4-0.3-0.9-0.5c-0.5-0.2-0.8-0.5-0.8-0.8c0-0.3,0.1-0.6,0.4-0.8c0.3-0.2,0.7-0.2,1.3-0.2
			l3.1,0c0.7,0,1.7,0,2.9-0.1s1.9-0.1,2.3-0.1c2.1,0,3.7,0.4,4.7,1.3c1.1,0.9,1.6,2.2,1.7,3.8c0,1.2-0.4,2.3-1.1,3.2
			C292,67.2,291,67.9,289.7,68.3z M283.1,67.1c0.4,0,0.8,0.1,1.1,0.1s0.7,0,1,0c1.6,0,2.8-0.3,3.5-0.9c0.8-0.6,1.1-1.6,1.1-2.9
			c0-1.2-0.4-2.2-1.2-2.8c-0.8-0.6-1.9-1-3.4-0.9c-0.7,0-1.2,0.1-1.5,0.1c-0.3,0.1-0.5,0.3-0.6,0.6c-0.1,0.2-0.1,0.7-0.1,1.3
			c0,0.6,0,1.5,0,2.9l0,1.8L283.1,67.1z"/>
		<path fill="#FFFFFF" d="M314.4,58.3c0.4-0.1,0.6-0.2,0.9-0.2c0.2-0.1,0.4-0.1,0.5-0.1c0.2,0,0.4,0.1,0.6,0.3
			c0.2,0.2,0.4,0.5,0.5,1c0.2,0.6,0.4,1.2,0.5,1.8c0.1,0.6,0.2,1.2,0.2,1.5c0,0.3-0.1,0.5-0.2,0.7c-0.2,0.2-0.4,0.3-0.6,0.3
			c-0.4,0-0.8-0.3-1.4-1c-0.1-0.2-0.2-0.3-0.3-0.3c-0.1-0.1-0.1-0.2-0.2-0.3c-0.6-0.7-1.2-1.3-1.6-1.6c-0.5-0.3-1.1-0.6-1.8-0.7
			c-0.7-0.2-1.4-0.2-2.2-0.2c-1.9,0-3.5,0.7-4.5,2c-1.1,1.3-1.6,3.2-1.6,5.6c0,2.8,0.7,5.2,2.1,7c1.4,1.8,3.2,2.7,5.3,2.7
			c1.2,0,2.2-0.4,2.9-1.1c0.7-0.7,1-1.7,1-3c0-0.5-0.1-0.8-0.2-1s-0.4-0.4-0.9-0.5c-0.2-0.1-0.4-0.1-0.7-0.2
			c-0.8-0.2-1.2-0.5-1.2-0.9c0-0.4,0.3-0.8,0.8-0.9c0.6-0.2,2.1-0.2,4.5-0.3c1.5,0,2.5,0.1,3,0.2c0.4,0.2,0.7,0.5,0.7,0.9
			c0,0.2-0.1,0.4-0.2,0.5c-0.1,0.1-0.4,0.3-0.8,0.4c0,0-0.1,0-0.2,0.1c-0.5,0.1-0.8,0.3-0.9,0.6c-0.1,0.2-0.2,0.6-0.4,1.2
			c0,0.2-0.1,0.3-0.1,0.4c-0.2,0.9-0.4,1.5-0.6,2s-0.4,0.9-0.7,1.2c-0.7,0.8-1.5,1.4-2.6,1.8c-1.1,0.4-2.4,0.6-3.8,0.6
			c-3.2,0-5.8-1-7.8-3c-2-2-3-4.7-3-8c0-3,0.9-5.5,2.8-7.4c1.9-1.9,4.3-2.9,7.3-2.9c0.7,0,1.5,0.1,2.3,0.2
			C312.7,57.9,313.5,58.1,314.4,58.3z"/>
		<path fill="#FFFFFF" d="M326.8,67.1c0.1-0.3,0.3-0.7,0.5-1.3c1.4-3.4,2.2-5.8,2.5-7.2c0.1-0.4,0.2-0.7,0.4-0.8
			c0.2-0.1,0.6-0.2,1.1-0.2c0.4,0,0.6,0.1,0.8,0.2c0.2,0.1,0.4,0.4,0.6,0.7c0.5,1.1,1.3,2.6,2.2,4.7c0.9,2.1,1.8,4.3,2.8,6.7
			c0.2,0.4,0.4,1,0.7,1.7c1.1,2.8,1.9,4.3,2.6,4.6c0.1,0.1,0.3,0.1,0.5,0.2c0.6,0.2,0.9,0.5,0.9,0.8c0,0.4-0.3,0.7-0.9,0.9
			c-0.6,0.2-1.7,0.3-3.4,0.3c-1.7,0-2.8-0.1-3.4-0.2s-0.8-0.5-0.8-0.9c0-0.3,0.3-0.6,1-0.9c0.1,0,0.2-0.1,0.2-0.1
			c0.3-0.1,0.4-0.2,0.6-0.3c0.1-0.1,0.2-0.3,0.2-0.5c0-0.3-0.1-0.7-0.2-1.2c-0.1-0.5-0.3-1-0.5-1.5c-0.1-0.2-0.2-0.4-0.3-0.4
			c-0.1-0.1-0.1-0.1-0.2-0.1c-0.2,0-0.6-0.1-1.1-0.1c-0.6,0-1.3,0-2.2,0l-0.7,0c-1.4,0-2.4,0-2.9,0.1c-0.5,0.1-0.8,0.2-0.9,0.3
			c-0.2,0.2-0.4,0.6-0.6,1.2c-0.2,0.6-0.3,1-0.3,1.3c0,0.3,0.1,0.5,0.2,0.7c0.1,0.2,0.4,0.4,0.7,0.5c0.1,0.1,0.3,0.1,0.5,0.2
			c0.6,0.2,0.9,0.5,0.9,0.9c0,0.4-0.2,0.7-0.7,0.9c-0.5,0.2-1.4,0.2-2.9,0.3c-1.4,0-2.4-0.1-2.9-0.2s-0.7-0.5-0.7-0.9
			c0-0.4,0.3-0.7,0.8-0.9c0.2-0.1,0.4-0.2,0.5-0.3c0.7-0.4,1.4-1.5,2-3.1c0.1-0.4,0.2-0.6,0.3-0.8L326.8,67.1z M334,70
			c-0.5-1.4-1-2.7-1.5-3.9c-0.5-1.2-1-2.3-1.5-3.3l-0.4,0c-0.5,1.2-1,2.4-1.5,3.6c-0.5,1.2-0.9,2.5-1.4,3.7c0.5,0,1-0.1,1.6-0.1
			c0.5,0,1,0,1.6,0c0.5,0,1,0,1.5,0C333,70,333.5,70,334,70z"/>
		<path fill="#FFFFFF" d="M354.1,76.2c0.9,0,1.6-0.1,2.1-0.4c0.5-0.2,1-0.7,1.4-1.5c0.1-0.2,0.3-0.5,0.4-0.9
			c0.3-0.7,0.7-1.1,1.1-1.1c0.2,0,0.4,0.1,0.6,0.4s0.2,0.6,0.2,1c0,0.6-0.1,1.2-0.2,1.9c-0.1,0.7-0.3,1.3-0.5,1.9
			c-0.2,0.4-0.3,0.7-0.5,0.8s-0.4,0.2-0.6,0.2c-1-0.2-1.7-0.3-2.2-0.3l-8.4,0c-1.4,0-2.2-0.1-2.6-0.2c-0.3-0.1-0.5-0.4-0.5-0.7
			c0-0.4,0.3-0.8,0.9-1c0.3-0.1,0.5-0.2,0.6-0.3c0.2-0.1,0.3-0.8,0.4-1.8c0.1-1.1,0.1-3.2,0.1-6.3c0-2.2,0-4-0.1-5.4
			c-0.1-1.4-0.2-2.1-0.3-2.3c-0.1-0.1-0.4-0.3-0.9-0.5c-0.5-0.2-0.8-0.5-0.8-0.9c0-0.4,0.2-0.6,0.6-0.8c0.4-0.1,1.5-0.2,3.2-0.2
			c1.7,0,2.8,0.1,3.2,0.2c0.4,0.1,0.6,0.4,0.6,0.8c0,0.4-0.3,0.7-0.9,0.9c-0.3,0.1-0.5,0.2-0.6,0.3c-0.2,0.1-0.3,0.7-0.4,1.7
			c-0.1,1-0.1,2.4-0.1,4.4c0,2.4,0,4.4,0.1,6c0.1,1.6,0.1,2.5,0.2,2.9c0.1,0.5,0.4,0.8,0.8,1c0.4,0.2,1.3,0.3,2.5,0.3L354.1,76.2z"
			/>
		<path fill="#FFFFFF" d="M365.9,78.2c-1.4,0-2.2-0.1-2.6-0.2c-0.3-0.1-0.5-0.4-0.5-0.7c0-0.4,0.3-0.8,0.9-1
			c0.3-0.1,0.5-0.2,0.6-0.3c0.2-0.1,0.3-0.8,0.4-2c0.1-1.2,0.1-3.2,0.1-6.1c0-2.1-0.1-3.8-0.1-5.2c-0.1-1.4-0.2-2.3-0.3-2.4
			c-0.1-0.1-0.4-0.3-0.9-0.5c-0.5-0.2-0.8-0.5-0.8-0.9c0-0.4,0.2-0.6,0.7-0.8c0.4-0.1,1.5-0.2,3.1-0.2l8.7,0c0.5,0,0.9-0.1,1.4-0.2
			c0.5-0.1,0.7-0.2,0.7-0.2c0.1,0,0.3,0,0.4,0.1c0.1,0.1,0.2,0.1,0.3,0.3c0.2,0.3,0.4,0.8,0.6,1.5c0.2,0.7,0.3,1.2,0.3,1.7
			c0,0.4-0.1,0.7-0.2,1c-0.2,0.2-0.4,0.3-0.7,0.4c-0.3,0-0.7-0.3-1.1-1c-0.2-0.3-0.3-0.5-0.4-0.7c-0.2-0.3-0.5-0.5-0.9-0.7
			c-0.4-0.2-1-0.2-1.6-0.2l-2,0c-0.9,0-1.6,0.1-2.1,0.2c-0.5,0.1-0.8,0.3-1,0.5c-0.2,0.2-0.3,0.6-0.3,1.2c-0.1,0.6-0.1,1.5-0.1,2.7
			l0,1.1c0,0.5,0,0.7,0.1,0.8c0.1,0.1,0.3,0.2,0.5,0.2l2.5,0c0.8,0,1.3-0.1,1.6-0.3c0.3-0.2,0.5-0.6,0.6-1.2c0-0.1,0-0.2,0.1-0.3
			c0.1-0.9,0.4-1.4,0.9-1.4c0.4,0,0.7,0.3,0.9,0.8c0.2,0.5,0.2,1.7,0.2,3.5c0,1.8-0.1,3-0.2,3.5c-0.2,0.5-0.4,0.8-0.9,0.8
			c-0.5,0-0.8-0.5-0.9-1.4c0-0.1,0-0.3-0.1-0.3c-0.1-0.6-0.3-1-0.6-1.2c-0.3-0.2-0.8-0.3-1.6-0.3l-2.5,0c-0.3,0-0.4,0.1-0.5,0.2
			c-0.1,0.2-0.1,0.5-0.1,1.1l0,1.3c0,1.2,0,2.2,0.1,2.8c0,0.6,0.1,1,0.2,1.3c0.1,0.3,0.4,0.5,0.9,0.7c0.5,0.1,1.2,0.2,2.3,0.2l1.8,0
			c1,0,1.8-0.1,2.3-0.4c0.5-0.3,1-0.7,1.4-1.4c0.1-0.2,0.3-0.5,0.4-0.9c0.3-0.7,0.6-1.1,0.9-1.1c0.2,0,0.4,0.1,0.6,0.3
			c0.1,0.2,0.2,0.6,0.2,1c0,0.5-0.1,1.1-0.2,1.8s-0.3,1.4-0.6,2.1c-0.1,0.3-0.3,0.6-0.5,0.8c-0.2,0.2-0.3,0.3-0.5,0.3
			c0,0-0.2,0-0.4-0.1c-0.6-0.2-1.3-0.3-1.9-0.3L365.9,78.2z"/>
		<path fill="#FFFFFF" d="M394.3,68l0,0.2c1,0.2,1.8,0.6,2.4,1.2s1.1,1.7,1.6,3.2c0.1,0.3,0.2,0.8,0.4,1.4c0.4,1.5,0.8,2.2,1.4,2.2
			c0.1,0,0.2,0,0.4,0c0.2,0,0.4,0,0.5,0c0.2,0,0.3,0.1,0.5,0.2c0.1,0.1,0.2,0.3,0.2,0.5c0,0.4-0.3,0.8-0.8,1.1s-1.3,0.4-2.2,0.4
			c-1.9,0-3.3-1.4-4.1-4.3l0-0.1c-0.7-2.3-1.4-3.7-2-4.3c-0.7-0.6-1.7-0.9-3-0.9l-1.3,0c-0.2,0-0.4,0.1-0.5,0.2
			c-0.1,0.1-0.1,0.5-0.1,1l0,0.6c0,2.2,0,3.6,0.1,4.3c0.1,0.7,0.2,1.1,0.4,1.2c0.1,0.1,0.3,0.2,0.6,0.3c0.6,0.2,0.9,0.5,0.9,0.9
			c0,0.4-0.3,0.7-0.8,0.9s-1.5,0.3-3,0.3c-1.5,0-2.5-0.1-3-0.2c-0.5-0.2-0.8-0.5-0.8-0.9c0-0.4,0.3-0.7,0.9-0.9
			c0.3-0.1,0.5-0.2,0.6-0.3c0.2-0.2,0.3-0.8,0.4-1.9c0.1-1.1,0.1-3.2,0.1-6.2c0-2.2,0-4-0.1-5.4c-0.1-1.4-0.2-2.2-0.3-2.3
			c-0.1-0.1-0.4-0.3-0.9-0.5c-0.5-0.2-0.8-0.5-0.8-0.8c0-0.3,0.1-0.6,0.4-0.8c0.3-0.2,0.7-0.2,1.3-0.2l3.1,0c0.7,0,1.7,0,2.9-0.1
			c1.2,0,1.9-0.1,2.3-0.1c2.1,0,3.7,0.4,4.7,1.3s1.6,2.2,1.7,3.8c0,1.2-0.4,2.3-1.1,3.2C396.7,66.9,395.7,67.6,394.3,68z
			 M387.8,66.9c0.4,0,0.8,0.1,1.1,0.1c0.4,0,0.7,0,1,0c1.6,0,2.8-0.3,3.5-0.9c0.8-0.6,1.1-1.6,1.1-2.9c0-1.2-0.4-2.2-1.2-2.8
			c-0.8-0.6-1.9-1-3.4-0.9c-0.7,0-1.2,0.1-1.5,0.1c-0.3,0.1-0.5,0.3-0.6,0.6c-0.1,0.2-0.1,0.7-0.1,1.3c0,0.6,0,1.5,0,2.9l0,1.8
			L387.8,66.9z"/>
		<path fill="#FFFFFF" d="M405.9,67.8c0-2.2,0-4-0.1-5.4c-0.1-1.4-0.2-2.2-0.3-2.3c-0.1-0.1-0.4-0.3-0.9-0.5
			c-0.5-0.2-0.8-0.5-0.8-0.9c0-0.4,0.2-0.6,0.6-0.8s1.5-0.2,3.2-0.2c1.7,0,2.8,0.1,3.2,0.2c0.4,0.1,0.6,0.4,0.6,0.8
			c0,0.4-0.3,0.7-0.9,0.9c-0.3,0.1-0.5,0.2-0.6,0.3c-0.2,0.1-0.3,0.7-0.4,1.6s-0.1,2.5-0.1,4.7c0,2.9,0,5.2,0.1,6.8
			c0.1,1.6,0.2,2.6,0.3,2.7c0.1,0.1,0.4,0.3,0.9,0.5c0.5,0.2,0.8,0.5,0.8,0.9c0,0.4-0.3,0.7-0.8,0.9c-0.5,0.2-1.5,0.2-3,0.3
			c-1.5,0-2.5-0.1-3-0.2s-0.8-0.5-0.8-0.9c0-0.4,0.3-0.7,0.9-0.9c0.3-0.1,0.5-0.2,0.6-0.3c0.2-0.2,0.3-0.8,0.4-1.9
			C405.9,72.9,406,70.8,405.9,67.8z"/>
		<path fill="#FFFFFF" d="M417.5,78.1c-1.4,0-2.2-0.1-2.6-0.2c-0.3-0.1-0.5-0.4-0.5-0.7c0-0.4,0.3-0.8,0.9-1
			c0.3-0.1,0.5-0.2,0.6-0.3c0.2-0.1,0.3-0.8,0.4-2c0.1-1.2,0.1-3.2,0.1-6.1c0-2.1-0.1-3.8-0.1-5.2c-0.1-1.4-0.2-2.3-0.3-2.4
			c-0.1-0.1-0.4-0.3-0.9-0.5c-0.5-0.2-0.8-0.5-0.8-0.9c0-0.4,0.2-0.6,0.7-0.8s1.5-0.2,3.1-0.2l8.7,0c0.5,0,0.9-0.1,1.4-0.2
			c0.5-0.1,0.7-0.2,0.7-0.2c0.1,0,0.3,0,0.4,0.1c0.1,0.1,0.2,0.1,0.3,0.3c0.2,0.3,0.4,0.8,0.6,1.5s0.3,1.2,0.3,1.7
			c0,0.4-0.1,0.7-0.2,1c-0.2,0.2-0.4,0.3-0.7,0.4c-0.3,0-0.7-0.3-1.1-1c-0.2-0.3-0.3-0.5-0.4-0.7c-0.2-0.3-0.5-0.5-0.9-0.7
			s-1-0.2-1.6-0.2l-2,0c-0.9,0-1.6,0.1-2.1,0.2c-0.5,0.1-0.8,0.3-1,0.5c-0.2,0.2-0.3,0.6-0.3,1.2s-0.1,1.5-0.1,2.7l0,1.1
			c0,0.5,0,0.7,0.1,0.8c0.1,0.1,0.3,0.2,0.5,0.2l2.5,0c0.8,0,1.3-0.1,1.6-0.3s0.5-0.6,0.6-1.2c0-0.1,0-0.2,0.1-0.3
			c0.1-0.9,0.4-1.4,0.9-1.4c0.4,0,0.7,0.3,0.9,0.8c0.2,0.5,0.2,1.7,0.2,3.5c0,1.8-0.1,3-0.2,3.5c-0.2,0.5-0.4,0.8-0.9,0.8
			c-0.5,0-0.8-0.5-0.9-1.4c0-0.1,0-0.3-0.1-0.3c-0.1-0.6-0.3-1-0.6-1.2c-0.3-0.2-0.8-0.3-1.6-0.3l-2.5,0c-0.3,0-0.4,0.1-0.5,0.2
			s-0.1,0.5-0.1,1.1l0,1.3c0,1.2,0,2.2,0.1,2.8c0,0.6,0.1,1,0.2,1.3c0.1,0.3,0.4,0.5,0.9,0.7c0.5,0.1,1.2,0.2,2.3,0.2l1.8,0
			c1,0,1.8-0.1,2.3-0.4c0.5-0.3,1-0.7,1.4-1.4c0.1-0.2,0.3-0.5,0.4-0.9c0.3-0.7,0.6-1.1,0.9-1.1c0.2,0,0.4,0.1,0.6,0.3
			c0.1,0.2,0.2,0.6,0.2,1c0,0.5-0.1,1.1-0.2,1.8c-0.2,0.7-0.4,1.4-0.6,2.1c-0.1,0.3-0.3,0.6-0.5,0.8c-0.2,0.2-0.3,0.3-0.5,0.3
			c0,0-0.2,0-0.4-0.1c-0.6-0.2-1.3-0.3-1.9-0.3L417.5,78.1z"/>
	</g>
</g>
<path fill="#534741" d="M187.7,35.8c-0.6,0.6-1.2,1.1-1.8,1.6c0-3.6-0.7-7.5-0.9-9.3C183.8,17.8,183.6,0,183.6,0l-3,0
	c0,0-0.2,14.6,0.8,23.3c0.2,1.5,1.8,12.4,1.3,16.8c-0.8,0.7-1.6,1.5-2.2,2.5c-0.6,0.9,0.2,2.3,1.3,2.3c2-0.1,3.1-1.4,3.7-3.3
	c1.5-1.2,3.1-2.3,4.4-3.6C191.1,36.5,189,34.4,187.7,35.8z"/>
<path fill="#534741" d="M433.1,35.1C433,35.1,433,35.1,433.1,35.1c0.2-4.2-0.3-8.8-0.5-11.7c-0.4-9-2.3-23.3-2.3-23.3h-3
	c0,0,1.5,12,2.1,19.9c0.3,4.7,0.5,9.4,0.3,14c-0.1,1.3-0.1,3-0.3,4.6c-1.9,1.5-3.5,3-2.4,6.2c0.4,1.1,1.6,1.4,2.5,0.7
	c1.6-1.4,2.5-3.4,3-5.7c1.3-1.1,2.7-2.2,3.2-3.1C436.7,34.9,434.1,33.4,433.1,35.1z"/>
</svg>
