<?xml version="1.0" encoding="utf-8"?>
<!-- Generator: Adobe Illustrator 18.1.0, SVG Export Plug-In . SVG Version: 6.00 Build 0)  -->
<svg version="1.0" id="Layer_1" xmlns="http://www.w3.org/2000/svg" xmlns:xlink="http://www.w3.org/1999/xlink" x="0px" y="0px"
	 viewBox="0 0 400 150" enable-background="new 0 0 400 150" xml:space="preserve">
<g>
	<g opacity="0.5">
		<path fill="#231F20" d="M25.8,88.5c-1.2,0-2.3-0.5-3.1-1.3c-0.8-0.8-1.2-2-1.1-3.2l4.2-58.1c0.2-2.6,2.5-4.7,5.1-4.7l345.5,1.2
			c2.5,0,4.6,2.1,4.6,4.6v56.8c0,2.5-2.1,4.6-4.6,4.6H25.8z"/>
		<path fill="#231F20" d="M30.9,19.3l0,4l345.5,1.2c1.4,0,2.7,1.2,2.7,2.7v56.8c0,1.4-1.2,2.6-2.6,2.6H25.8c-0.6,0-1.2-0.2-1.6-0.7
			c-0.4-0.4-0.6-1-0.6-1.7l4.2-58.1c0.1-1.5,1.6-2.9,3.1-2.9V19.3 M30.9,19.3c-3.6,0-6.8,2.9-7,6.6l-4.2,58.1
			c-0.3,3.6,2.5,6.6,6.1,6.6h350.6c3.6,0,6.6-3,6.6-6.6V27.1c0-3.6-3-6.6-6.6-6.6L30.9,19.3C31,19.3,31,19.3,30.9,19.3L30.9,19.3z"
			/>
	</g>
	<g>
		<path fill="#FFFDF0" d="M16.6,79.2c-1.2,0-2.3-0.5-3.1-1.3c-0.8-0.8-1.2-2-1.1-3.2l4.2-58.1c0.2-2.6,2.5-4.7,5.1-4.7l345.5,1.2
			c2.5,0,4.6,2.1,4.6,4.6v56.8c0,2.5-2.1,4.6-4.6,4.6H16.6z"/>
		<path fill="#FFFFFF" d="M21.7,10l0,4l345.5,1.2c1.4,0,2.7,1.2,2.7,2.7v56.8c0,1.4-1.2,2.6-2.6,2.6H16.6c-0.6,0-1.2-0.2-1.6-0.7
			c-0.4-0.4-0.6-1-0.6-1.7l4.2-58.1c0.1-1.5,1.6-2.9,3.1-2.9V10 M21.7,10c-3.6,0-6.8,2.9-7,6.6l-4.2,58.1c-0.3,3.6,2.5,6.6,6.1,6.6
			h350.6c3.6,0,6.6-3,6.6-6.6V17.8c0-3.6-3-6.6-6.6-6.6L21.7,10C21.7,10,21.7,10,21.7,10L21.7,10z"/>
	</g>
</g>
<g>
	<path fill="#3E4E59" d="M58.4,43.2c0,2.2-0.6,4.6-1.8,7.1c-0.9,2.1-2.1,4-3.5,5.8c-1.3,1.6-2.2,2.5-2.8,2.7c-0.3,0.1-0.6,0.2-1,0.2
		c-0.9,0-1.9-0.3-3-0.8c-1-0.5-1.8-1-2.2-1.5V35.1c0.1-0.5,0.4-0.8,0.9-0.9c0.1,0,0.6,0,1.5,0.2c0.2,0,0.8-0.2,1.8-0.6
		c1-0.4,1.9-0.7,2.6-0.7c0.9,0,1.7,0.2,2.5,0.7c0.5,0.3,1.1,0.8,2.1,1.6c1.3,1.2,2.2,2.4,2.6,3.7C58.3,39.9,58.4,41.3,58.4,43.2z
		 M53.5,37.4c-0.1-0.1-0.3-0.1-0.5-0.1c-1.1,0-2.3,0.5-3.8,1.4v13.5c1.4-0.8,2.5-2.7,3.5-5.7c0.8-2.6,1.2-5,1.2-7.1
		C53.9,38.2,53.7,37.5,53.5,37.4z"/>
	<path fill="#3E4E59" d="M74.2,54.4c-0.1,0.3-0.2,0.7-0.5,1.1c-0.3,0.4-0.5,0.6-0.8,0.7c-0.1,0-0.2,0-0.3-0.1
		C72.4,56,72.3,56,72.2,56c0,0-0.1,0-0.1,0c-0.6,0.2-1.2,0.4-1.9,0.7c-1.5,0.7-2.8,1.5-4.1,2.6c-2-0.8-3.1-1.3-3.3-1.3
		C61.6,57.4,61,57,61,56.8V34.2c0-0.1,0.2-0.3,0.7-0.6c0.5-0.3,0.8-0.4,1-0.4c0.2,0,0.7,0.2,1.4,0.5c0.7,0.3,1.3,0.4,1.8,0.4
		c0.6,0,1.4-0.3,2.3-0.8c0.9-0.5,1.4-0.7,1.7-0.7c0.5,0.2,1.2,0.7,2.1,1.6c0.9,0.9,1.5,1.5,1.5,1.9c0,0.2-0.1,0.5-0.6,0.9
		c-0.4,0.4-0.7,0.7-1,0.7c-0.2,0-0.4,0-0.5-0.1c-0.1-0.1-0.2-0.1-0.2-0.1c-0.7,0.2-1.4,0.4-2,0.6c-1.5,0.5-2.6,1.1-3.3,1.7v4.9
		c0.7-0.4,1.6-0.7,2.7-1.1c0.3,0,1,0.4,2,1.3c1,0.9,1.5,1.6,1.5,1.9c0,0.2-0.1,0.5-0.4,0.8c-0.3,0.3-0.6,0.5-0.8,0.6
		c-0.2,0-0.6,0-1.1,0.1c-0.8,0.1-2.1,0.8-4,1.9v3.1c0.6-0.4,1.4-0.8,2.4-1.3c1-0.5,1.7-0.7,1.9-0.7c0.3,0,1,0.4,2.1,1.3
		C73.7,53.6,74.2,54.2,74.2,54.4z"/>
	<path fill="#3E4E59" d="M82.1,34.6c0,0.1,0,0.3-0.1,0.6c-0.1,0.2-0.1,0.4-0.2,0.5c-0.1,0.4-0.2,1-0.4,1.9v18.4
		c0,0.2,0.1,0.5,0.2,0.6c0.1,0.2,0.2,0.3,0.2,0.5c0,1.3-0.2,2-0.7,2.1c-0.2,0-0.9-0.1-2.1-0.4c-1.3-0.3-2-0.6-2.2-0.8
		c-0.4-0.4-0.7-0.7-0.7-1c0-0.1,0-0.2,0.1-0.3c0.1-0.1,0.1-0.3,0.1-0.5V35c0-0.1,0-0.2-0.1-0.4c-0.1-0.1-0.1-0.3-0.1-0.4
		c0-0.5,0.4-0.8,1.1-1c0.2,0,0.7,0,1.4,0c0.9,0.1,1.6,0.2,2.2,0.3C81.7,33.8,82.1,34.2,82.1,34.6z"/>
	<path fill="#3E4E59" d="M101.7,34.6c0,0.2,0,0.4-0.1,0.6c-0.1,0.3-0.2,0.6-0.3,0.8v19.8c0-0.1,0,0.3,0.1,1.1c0.1,0.9,0,1.5-0.4,1.8
		c-0.4,0.3-1.2,0.4-2.4,0.2c-0.7-0.1-1.6-0.2-2.5-0.6c-1.2-0.4-1.9-0.8-2-1.2c0-0.3,0-0.7-0.1-1.3c-1.1-3-2.4-6.2-3.9-9.8v8.9
		c0,0.2,0.1,0.4,0.2,0.6c0.2,0.3,0.3,0.5,0.3,0.5c0.1,0.3,0.2,0.6,0.2,0.9c0,0.8-0.4,1.2-1.1,1.2c-0.7,0-1.7-0.2-3-0.6
		c-1.2-0.4-1.9-0.7-2-0.9c-0.2-0.3-0.2-0.7,0-1.2c0.2-0.5,0.4-0.8,0.4-0.9V35.8c0-0.1,0-0.3-0.1-0.5c-0.1-0.2-0.1-0.4,0-0.6
		c0.2-0.7,0.6-1.1,1.2-1.4c0.1,0,0.3-0.1,0.7-0.1c0.8,0,1.6,0.1,2.4,0.3c1.1,0.2,1.8,0.6,2.2,1c0.6,0.6,1.3,2.4,2.2,5.5
		c1.1,3.8,2,6.3,2.6,7.6V35.9c0-0.2,0-0.4-0.1-0.7c-0.1-0.3-0.1-0.5-0.1-0.7c0-0.1,0-0.2,0.1-0.3c0.1-0.3,0.5-0.6,1.1-0.8
		c0.5-0.1,1-0.2,1.5-0.1c0.5,0,1,0.1,1.7,0.3C101.2,34,101.7,34.3,101.7,34.6z"/>
	<path fill="#3E4E59" d="M117.8,54.4c-0.1,0.3-0.2,0.7-0.5,1.1c-0.3,0.4-0.5,0.6-0.8,0.7c-0.1,0-0.2,0-0.3-0.1
		c-0.2-0.1-0.3-0.1-0.4-0.1c0,0-0.1,0-0.1,0c-0.6,0.2-1.2,0.4-1.9,0.7c-1.5,0.7-2.8,1.5-4.1,2.6c-2-0.8-3.1-1.3-3.3-1.3
		c-1.2-0.5-1.9-0.9-1.9-1.2V34.2c0-0.1,0.2-0.3,0.7-0.6c0.5-0.3,0.8-0.4,1-0.4c0.2,0,0.7,0.2,1.4,0.5c0.7,0.3,1.3,0.4,1.8,0.4
		c0.6,0,1.4-0.3,2.3-0.8c0.9-0.5,1.4-0.7,1.7-0.7c0.5,0.2,1.2,0.7,2.1,1.6c0.9,0.9,1.5,1.5,1.5,1.9c0,0.2-0.1,0.5-0.6,0.9
		c-0.4,0.4-0.7,0.7-1,0.7c-0.2,0-0.4,0-0.5-0.1c-0.1-0.1-0.2-0.1-0.2-0.1c-0.7,0.2-1.4,0.4-2,0.6c-1.5,0.5-2.6,1.1-3.3,1.7v4.9
		c0.7-0.4,1.6-0.7,2.7-1.1c0.3,0,1,0.4,2,1.3c1,0.9,1.5,1.6,1.5,1.9c0,0.2-0.1,0.5-0.4,0.8c-0.3,0.3-0.6,0.5-0.8,0.6
		c-0.2,0-0.6,0-1.1,0.1c-0.8,0.1-2.1,0.8-4,1.9v3.1c0.6-0.4,1.4-0.8,2.4-1.3c1-0.5,1.7-0.7,1.9-0.7c0.3,0,1,0.4,2.1,1.3
		C117.3,53.6,117.8,54.2,117.8,54.4z"/>
	<path fill="#3E4E59" d="M139.7,54.2c-0.2,0.9-0.6,1.5-1.1,1.7c-0.2,0.1-0.4,0.1-0.6,0c-0.3,0-0.5,0-0.6,0l-4.4,1.9
		c-0.1,0.1-0.3,0.2-0.4,0.5c-0.1,0.3-0.3,0.4-0.4,0.5c-0.4,0.2-1.4,0-2.8-0.4c-1.4-0.5-2.3-0.9-2.6-1.3c-0.2-0.3-0.3-0.8-0.2-1.5
		c0-0.3,0.1-0.6,0.1-0.8V34.7c0-0.2-0.1-0.4-0.2-0.5c-0.1-0.1-0.2-0.3-0.2-0.4c0-0.4,0.4-0.7,1.1-0.8c0.4-0.1,1.3,0.1,2.7,0.5
		c1.6,0.5,2.4,1,2.4,1.6c0,0.2-0.1,0.4-0.3,0.7c-0.2,0.3-0.3,0.6-0.3,0.7v16.6l3.1-1.4c0.2-0.2,0.5-0.3,1-0.5c0.3,0,1,0.4,2.2,1.3
		C139.2,53.4,139.8,54,139.7,54.2z"/>
	<path fill="#3E4E59" d="M154.1,54.4c-0.1,0.3-0.2,0.7-0.5,1.1c-0.3,0.4-0.5,0.6-0.8,0.7c-0.1,0-0.2,0-0.3-0.1
		c-0.2-0.1-0.3-0.1-0.4-0.1c0,0-0.1,0-0.1,0c-0.6,0.2-1.2,0.4-1.9,0.7c-1.5,0.7-2.8,1.5-4.1,2.6c-2-0.8-3.1-1.3-3.3-1.3
		c-1.2-0.5-1.9-0.9-1.9-1.2V34.2c0-0.1,0.2-0.3,0.7-0.6c0.5-0.3,0.8-0.4,1-0.4c0.2,0,0.7,0.2,1.4,0.5c0.7,0.3,1.3,0.4,1.8,0.4
		c0.6,0,1.4-0.3,2.3-0.8c0.9-0.5,1.4-0.7,1.7-0.7c0.5,0.2,1.2,0.7,2.1,1.6c0.9,0.9,1.5,1.5,1.5,1.9c0,0.2-0.1,0.5-0.6,0.9
		c-0.4,0.4-0.7,0.7-1,0.7c-0.2,0-0.4,0-0.5-0.1c-0.1-0.1-0.2-0.1-0.2-0.1c-0.7,0.2-1.4,0.4-2,0.6c-1.5,0.5-2.6,1.1-3.3,1.7v4.9
		c0.7-0.4,1.6-0.7,2.7-1.1c0.3,0,1,0.4,2,1.3c1,0.9,1.5,1.6,1.5,1.9c0,0.2-0.1,0.5-0.4,0.8c-0.3,0.3-0.6,0.5-0.8,0.6
		c-0.2,0-0.6,0-1.1,0.1c-0.8,0.1-2.1,0.8-4,1.9v3.1c0.6-0.4,1.4-0.8,2.4-1.3c1-0.5,1.7-0.7,1.9-0.7c0.3,0,1,0.4,2.1,1.3
		C153.6,53.6,154.1,54.2,154.1,54.4z"/>
	<path fill="#3E4E59" d="M170.1,38.2c-0.2,0-0.4-0.1-0.7-0.2c-0.3-0.1-0.5-0.2-0.7-0.1l-3.1,0.8v15.8c0,0.6,0.1,1.2,0.4,1.9
		c0.1,0.2,0.1,0.6-0.1,1.1c-0.1,0.6-0.3,1-0.6,1.2c0,0-0.1,0-0.3,0c-0.7,0-1.6-0.1-2.8-0.4c-1.3-0.3-2.1-0.6-2.3-0.9
		c-0.3-0.4-0.3-0.8,0-1.4c0.3-0.5,0.4-0.9,0.4-1.1V40l-2.1,0.5c-0.1,0-0.3,0.1-0.5,0.3c-0.2,0.1-0.4,0.2-0.6,0.2
		c-0.5-0.1-1.1-0.7-1.9-1.8s-1.1-1.8-1-2.2c0.2-0.5,0.6-0.8,1.4-1c0.2-0.1,0.5-0.1,0.8,0c0.3,0,0.6,0,0.8,0l10.4-2.7
		c0.1,0,0.4-0.1,0.9-0.4c0.3-0.1,0.6-0.2,0.9-0.1c0.6,0.1,0.9,0.3,1.1,0.7c0.1,0.2,0.3,0.7,0.5,1.3c0.2,0.8,0.3,1.5,0.3,2
		c0,0.4-0.1,0.8-0.2,1C171,38.1,170.7,38.2,170.1,38.2z"/>
	<path fill="#3E4E59" d="M190.3,37.9c-0.2,0.2-0.6,0.5-1.4,1l-9.8,14.1l5.8-0.9c0.2-0.1,0.5-0.3,0.9-0.5c0.4-0.1,0.8-0.1,1.1,0.2
		c0.6,0.5,1.2,1.2,1.6,2.3c0.4,1,0.5,1.7,0.4,2.2c-0.1,0.4-0.4,0.7-0.8,1c-0.5,0.3-0.9,0.4-1.2,0.4c-0.4,0-1-0.1-1.8-0.3l-8.4,1.1
		c-0.3,0-0.7,0.2-1.3,0.5c-0.5,0.3-0.9,0.4-1.1,0.4c-0.1,0-0.1,0-0.2,0c-0.4-0.2-0.9-0.8-1.6-1.8c-0.8-1.2-1.2-2.1-1.2-2.8
		c0-0.1,0-0.2,0-0.4c0-0.1,0.2-0.3,0.5-0.6c0.5-0.4,0.8-0.6,0.9-0.7l10.3-14.5l-4.9,0.9c-0.2,0-0.5,0.2-1,0.4
		c-0.4,0.2-0.6,0.2-0.8,0.2c-0.4,0-1-0.6-1.8-1.8c-0.8-1.2-1.2-2-1.2-2.5c0-0.3,0.2-0.6,0.7-0.8c0.4-0.2,0.7-0.3,1-0.3
		c0.3,0,0.6,0.1,1.2,0.1l9.9-1.4c0.1,0,0.3-0.1,0.6-0.2c0.3-0.1,0.5-0.2,0.7-0.2c0.7,0,1.2,0.1,1.4,0.3c0.2,0.2,0.5,0.8,0.9,1.8
		c0.4,1.1,0.7,1.9,0.7,2.4C190.4,37.7,190.4,37.8,190.3,37.9z"/>
	<path fill="#3E4E59" d="M207.4,38.2c-0.2,0-0.4-0.1-0.7-0.2c-0.3-0.1-0.5-0.2-0.7-0.1l-3.1,0.8v15.8c0,0.6,0.1,1.2,0.4,1.9
		c0.1,0.2,0.1,0.6-0.1,1.1c-0.1,0.6-0.3,1-0.6,1.2c0,0-0.1,0-0.3,0c-0.7,0-1.6-0.1-2.8-0.4c-1.3-0.3-2.1-0.6-2.3-0.9
		c-0.3-0.4-0.3-0.8,0-1.4c0.3-0.5,0.4-0.9,0.4-1.1V40l-2.1,0.5c-0.1,0-0.3,0.1-0.5,0.3c-0.2,0.1-0.4,0.2-0.6,0.2
		c-0.5-0.1-1.1-0.7-1.9-1.8s-1.1-1.8-1-2.2c0.2-0.5,0.6-0.8,1.4-1c0.2-0.1,0.5-0.1,0.8,0c0.3,0,0.6,0,0.8,0l10.4-2.7
		c0.1,0,0.4-0.1,0.9-0.4c0.3-0.1,0.6-0.2,0.9-0.1c0.6,0.1,0.9,0.3,1.1,0.7c0.1,0.2,0.3,0.7,0.5,1.3c0.2,0.8,0.3,1.5,0.3,2
		c0,0.4-0.1,0.8-0.2,1C208.3,38.1,208,38.2,207.4,38.2z"/>
	<path fill="#3E4E59" d="M223.9,54.4c-0.1,0.3-0.2,0.7-0.5,1.1c-0.3,0.4-0.5,0.6-0.8,0.7c-0.1,0-0.2,0-0.3-0.1
		c-0.2-0.1-0.3-0.1-0.4-0.1c0,0-0.1,0-0.1,0c-0.6,0.2-1.2,0.4-1.9,0.7c-1.5,0.7-2.8,1.5-4.1,2.6c-2-0.8-3.1-1.3-3.3-1.3
		c-1.2-0.5-1.9-0.9-1.9-1.2V34.2c0-0.1,0.2-0.3,0.7-0.6c0.5-0.3,0.8-0.4,1-0.4c0.2,0,0.7,0.2,1.4,0.5c0.7,0.3,1.3,0.4,1.8,0.4
		c0.6,0,1.4-0.3,2.3-0.8c0.9-0.5,1.4-0.7,1.7-0.7c0.5,0.2,1.2,0.7,2.1,1.6c0.9,0.9,1.5,1.5,1.5,1.9c0,0.2-0.1,0.5-0.6,0.9
		c-0.4,0.4-0.7,0.7-1,0.7c-0.2,0-0.4,0-0.5-0.1c-0.1-0.1-0.2-0.1-0.2-0.1c-0.7,0.2-1.4,0.4-2,0.6c-1.5,0.5-2.6,1.1-3.3,1.7v4.9
		c0.7-0.4,1.6-0.7,2.7-1.1c0.3,0,1,0.4,2,1.3c1,0.9,1.5,1.6,1.5,1.9c0,0.2-0.1,0.5-0.4,0.8c-0.3,0.3-0.6,0.5-0.8,0.6
		c-0.2,0-0.6,0-1.1,0.1c-0.8,0.1-2.1,0.8-4,1.9v3.1c0.6-0.4,1.4-0.8,2.4-1.3c1-0.5,1.7-0.7,1.9-0.7c0.3,0,1,0.4,2.1,1.3
		C223.4,53.6,223.9,54.2,223.9,54.4z"/>
	<path fill="#3E4E59" d="M242.7,34.6c0,0.2,0,0.4-0.1,0.6c-0.1,0.3-0.2,0.6-0.3,0.8v19.8c0-0.1,0,0.3,0.1,1.1c0.1,0.9,0,1.5-0.4,1.8
		c-0.4,0.3-1.2,0.4-2.4,0.2c-0.7-0.1-1.6-0.2-2.5-0.6c-1.2-0.4-1.9-0.8-2-1.2c0-0.3,0-0.7-0.1-1.3c-1.1-3-2.4-6.2-3.9-9.8v8.9
		c0,0.2,0.1,0.4,0.2,0.6c0.2,0.3,0.3,0.5,0.3,0.5c0.1,0.3,0.2,0.6,0.2,0.9c0,0.8-0.4,1.2-1.1,1.2c-0.7,0-1.7-0.2-3-0.6
		c-1.2-0.4-1.9-0.7-2-0.9c-0.2-0.3-0.2-0.7,0-1.2c0.2-0.5,0.4-0.8,0.4-0.9V35.8c0-0.1,0-0.3-0.1-0.5c-0.1-0.2-0.1-0.4,0-0.6
		c0.2-0.7,0.6-1.1,1.2-1.4c0.1,0,0.3-0.1,0.7-0.1c0.8,0,1.6,0.1,2.4,0.3c1.1,0.2,1.8,0.6,2.2,1c0.6,0.6,1.3,2.4,2.2,5.5
		c1.1,3.8,2,6.3,2.6,7.6V35.9c0-0.2,0-0.4-0.1-0.7c-0.1-0.3-0.1-0.5-0.1-0.7c0-0.1,0-0.2,0.1-0.3c0.1-0.3,0.5-0.6,1.1-0.8
		c0.5-0.1,1-0.2,1.5-0.1c0.5,0,1,0.1,1.7,0.3C242.2,34,242.7,34.3,242.7,34.6z"/>
	<path fill="#3E4E59" d="M267,38.2c-0.2,0-0.4-0.1-0.7-0.2c-0.3-0.1-0.5-0.2-0.7-0.1l-3.1,0.8v15.8c0,0.6,0.1,1.2,0.4,1.9
		c0.1,0.2,0.1,0.6-0.1,1.1c-0.1,0.6-0.3,1-0.6,1.2c0,0-0.1,0-0.3,0c-0.7,0-1.6-0.1-2.8-0.4c-1.3-0.3-2.1-0.6-2.3-0.9
		c-0.3-0.4-0.3-0.8,0-1.4c0.3-0.5,0.4-0.9,0.4-1.1V40l-2.1,0.5c-0.1,0-0.3,0.1-0.5,0.3c-0.2,0.1-0.4,0.2-0.6,0.2
		c-0.5-0.1-1.1-0.7-1.9-1.8s-1.1-1.8-1-2.2c0.2-0.5,0.6-0.8,1.4-1c0.2-0.1,0.5-0.1,0.8,0c0.3,0,0.6,0,0.8,0l10.4-2.7
		c0.1,0,0.4-0.1,0.9-0.4c0.3-0.1,0.6-0.2,0.9-0.1c0.6,0.1,0.9,0.3,1.1,0.7c0.1,0.2,0.3,0.7,0.5,1.3c0.2,0.8,0.3,1.5,0.3,2
		c0,0.4-0.1,0.8-0.2,1C268,38.1,267.6,38.2,267,38.2z"/>
	<path fill="#3E4E59" d="M283.5,54.4c-0.1,0.3-0.2,0.7-0.5,1.1c-0.3,0.4-0.5,0.6-0.8,0.7c-0.1,0-0.2,0-0.3-0.1
		c-0.2-0.1-0.3-0.1-0.4-0.1c0,0-0.1,0-0.1,0c-0.6,0.2-1.2,0.4-1.9,0.7c-1.5,0.7-2.8,1.5-4.1,2.6c-2-0.8-3.1-1.3-3.3-1.3
		c-1.2-0.5-1.9-0.9-1.9-1.2V34.2c0-0.1,0.2-0.3,0.7-0.6c0.5-0.3,0.8-0.4,1-0.4c0.2,0,0.7,0.2,1.4,0.5c0.7,0.3,1.3,0.4,1.8,0.4
		c0.6,0,1.4-0.3,2.3-0.8c0.9-0.5,1.4-0.7,1.7-0.7c0.5,0.2,1.2,0.7,2.1,1.6c0.9,0.9,1.5,1.5,1.5,1.9c0,0.2-0.1,0.5-0.6,0.9
		c-0.4,0.4-0.7,0.7-1,0.7c-0.2,0-0.4,0-0.5-0.1c-0.1-0.1-0.2-0.1-0.2-0.1c-0.7,0.2-1.4,0.4-2,0.6c-1.5,0.5-2.6,1.1-3.3,1.7v4.9
		c0.7-0.4,1.6-0.7,2.7-1.1c0.3,0,1,0.4,2,1.3c1,0.9,1.5,1.6,1.5,1.9c0,0.2-0.1,0.5-0.4,0.8c-0.3,0.3-0.6,0.5-0.8,0.6
		c-0.2,0-0.6,0-1.1,0.1c-0.8,0.1-2.1,0.8-4,1.9v3.1c0.6-0.4,1.4-0.8,2.4-1.3c1-0.5,1.7-0.7,1.9-0.7c0.3,0,1,0.4,2.1,1.3
		C283,53.6,283.5,54.2,283.5,54.4z"/>
	<path fill="#3E4E59" d="M298.9,54.2c-0.2,0.9-0.6,1.5-1.1,1.7c-0.2,0.1-0.4,0.1-0.6,0c-0.3,0-0.5,0-0.6,0l-4.4,1.9
		c-0.1,0.1-0.3,0.2-0.4,0.5c-0.1,0.3-0.3,0.4-0.4,0.5c-0.4,0.2-1.4,0-2.8-0.4c-1.4-0.5-2.3-0.9-2.6-1.3c-0.2-0.3-0.3-0.8-0.2-1.5
		c0-0.3,0.1-0.6,0.1-0.8V34.7c0-0.2-0.1-0.4-0.2-0.5c-0.1-0.1-0.2-0.3-0.2-0.4c0-0.4,0.4-0.7,1.1-0.8c0.4-0.1,1.3,0.1,2.7,0.5
		c1.6,0.5,2.4,1,2.4,1.6c0,0.2-0.1,0.4-0.3,0.7c-0.2,0.3-0.3,0.6-0.3,0.7v16.6l3.1-1.4c0.2-0.2,0.5-0.3,1-0.5c0.3,0,1,0.4,2.2,1.3
		C298.4,53.4,299,54,298.9,54.2z"/>
	<path fill="#3E4E59" d="M313.3,54.2c-0.2,0.9-0.6,1.5-1.1,1.7c-0.2,0.1-0.4,0.1-0.6,0c-0.3,0-0.5,0-0.6,0l-4.4,1.9
		c-0.1,0.1-0.3,0.2-0.4,0.5c-0.1,0.3-0.3,0.4-0.4,0.5c-0.4,0.2-1.4,0-2.8-0.4c-1.4-0.5-2.3-0.9-2.6-1.3c-0.2-0.3-0.3-0.8-0.2-1.5
		c0-0.3,0.1-0.6,0.1-0.8V34.7c0-0.2-0.1-0.4-0.2-0.5c-0.1-0.1-0.2-0.3-0.2-0.4c0-0.4,0.4-0.7,1.1-0.8c0.4-0.1,1.3,0.1,2.7,0.5
		c1.6,0.5,2.4,1,2.4,1.6c0,0.2-0.1,0.4-0.3,0.7c-0.2,0.3-0.3,0.6-0.3,0.7v16.6l3.1-1.4c0.2-0.2,0.5-0.3,1-0.5c0.3,0,1,0.4,2.2,1.3
		C312.8,53.4,313.4,54,313.3,54.2z"/>
	<path fill="#3E4E59" d="M327.7,54.4c-0.1,0.3-0.2,0.7-0.5,1.1c-0.3,0.4-0.5,0.6-0.8,0.7c-0.1,0-0.2,0-0.3-0.1
		c-0.2-0.1-0.3-0.1-0.4-0.1c0,0-0.1,0-0.1,0c-0.6,0.2-1.2,0.4-1.9,0.7c-1.5,0.7-2.8,1.5-4.1,2.6c-2-0.8-3.1-1.3-3.3-1.3
		c-1.2-0.5-1.9-0.9-1.9-1.2V34.2c0-0.1,0.2-0.3,0.7-0.6c0.5-0.3,0.8-0.4,1-0.4c0.2,0,0.7,0.2,1.4,0.5c0.7,0.3,1.3,0.4,1.8,0.4
		c0.6,0,1.4-0.3,2.3-0.8c0.9-0.5,1.4-0.7,1.7-0.7c0.5,0.2,1.2,0.7,2.1,1.6c0.9,0.9,1.5,1.5,1.5,1.9c0,0.2-0.1,0.5-0.6,0.9
		c-0.4,0.4-0.7,0.7-1,0.7c-0.2,0-0.4,0-0.5-0.1c-0.1-0.1-0.2-0.1-0.2-0.1c-0.7,0.2-1.4,0.4-2,0.6c-1.5,0.5-2.6,1.1-3.3,1.7v4.9
		c0.7-0.4,1.6-0.7,2.7-1.1c0.3,0,1,0.4,2,1.3c1,0.9,1.5,1.6,1.5,1.9c0,0.2-0.1,0.5-0.4,0.8c-0.3,0.3-0.6,0.5-0.8,0.6
		c-0.2,0-0.6,0-1.1,0.1c-0.8,0.1-2.1,0.8-4,1.9v3.1c0.6-0.4,1.4-0.8,2.4-1.3c1-0.5,1.7-0.7,1.9-0.7c0.3,0,1,0.4,2.1,1.3
		C327.2,53.6,327.8,54.2,327.7,54.4z"/>
	<path fill="#3E4E59" d="M346.6,54.2c0.2,0.3-0.2,1.2-1.1,2.5c-0.9,1.3-1.6,2-2.2,2c-0.6,0-1.2-0.4-1.5-1c-0.1-0.2-0.2-0.5-0.5-0.9
		l-6.3-5.9v5.5c0,0.2,0.1,0.5,0.3,0.8c0.2,0.3,0.3,0.6,0.3,0.8c0,0.6-0.4,0.9-1.2,1c-0.6,0.1-1.5-0.1-2.7-0.3
		c-1.3-0.3-1.9-0.6-1.9-0.9c0-0.1,0-0.2,0.1-0.4c0-0.2,0.1-0.4,0.1-0.6V35.8c0-0.1,0-0.3-0.1-0.4c-0.1-0.1-0.1-0.2-0.1-0.3
		c0-0.5,0.4-0.9,1.2-1c0.2,0,0.8,0.1,1.6,0.3c0.8,0.2,1.5,0.3,1.8,0.3c0.3,0,1-0.3,2.1-0.8c1.1-0.5,2-0.8,2.7-0.8
		c0.3,0,0.6,0,0.9,0.1c0.6,0.1,1.1,0.4,1.5,0.8c0.5,0.4,0.9,0.8,1.3,1.2c1.1,1,1.7,1.6,1.7,1.6c0.5,0.6,0.8,1.3,0.8,2
		c0.1,2.3-1.9,5.3-5.9,8.9c0.8,0.8,2.7,2.6,5.5,5.6c0.2,0.1,0.4,0.2,0.8,0.4C346.1,53.8,346.3,54,346.6,54.2z M340,37.4
		c-0.9,0-2.6,1-5,2.9v4.6c0.9-0.3,2-1.4,3.4-3.1c1.4-1.7,2.1-3,2.1-3.8C340.5,37.6,340.3,37.4,340,37.4z"/>
</g>
</svg>
