<?xml version="1.0" encoding="utf-8"?>
<!-- Generator: Adobe Illustrator 18.1.0, SVG Export Plug-In . SVG Version: 6.00 Build 0)  -->
<svg version="1.0" id="Layer_1" xmlns="http://www.w3.org/2000/svg" xmlns:xlink="http://www.w3.org/1999/xlink" x="0px" y="0px"
	 viewBox="0 0 270 190" enable-background="new 0 0 270 190" xml:space="preserve">
<g>
	<g>
		<g>
			<g>
				<g>
					<g>
						<path fill="#D84642" d="M11.1,15.3c-0.2,0.1-0.5,0.5-0.2,0.6l0.7-0.4L11.1,15.3z"/>
						<path fill="#D84642" d="M11.8,17.9c0.6,0,1.4-0.2,1.7-0.9c-0.8,0.3-0.7,0-1.6,0.4c-0.3-0.2-0.3-0.6,0-0.8
							c-0.2,0.1-0.3-0.5-0.7-0.2c-0.1,0.8,0.3,1.2,1.1,1.2C12.1,17.8,11.9,17.8,11.8,17.9z"/>
						<path fill="#D84642" d="M35.3,41.6l-0.1-0.2C35.2,41.4,35.2,41.5,35.3,41.6z"/>
						<path fill="#D84642" d="M50.1,55.9c-0.1-0.1-0.2-0.1-0.3,0C50,56,50.1,56,50.1,55.9z"/>
						<path fill="#D84642" d="M52.1,59c0-0.1-0.1-0.1-0.1-0.2C52,58.9,52,59,52.1,59z"/>
						<path fill="#D84642" d="M35.3,41.6l0.2,0.6C35.7,42,35.4,41.8,35.3,41.6z"/>
						<path fill="#D84642" d="M16.4,19.6c-0.1-0.1-0.2-0.1-0.4,0C16.2,19.6,16.3,19.7,16.4,19.6C16.4,19.7,16.4,19.7,16.4,19.6z"/>
						<path fill="#D84642" d="M28.2,35.8L28,35.7c-0.1,0-0.2,0.1-0.3,0.1L28.2,35.8z"/>
						<path fill="#D84642" d="M23,31.2c0.1,0.1,0.6-0.3,0.9-0.5c-0.3,0.1-0.4,0.2-0.6,0.1C23.2,30.9,23.1,31,23,31.2z"/>
						<path fill="#D84642" d="M15.7,22.7l-0.2-0.1C15.5,22.7,15.6,22.7,15.7,22.7z"/>
						<path fill="#D84642" d="M31.7,39.4c-0.1,0.1-0.1,0.2-0.1,0.2C31.7,39.5,31.7,39.4,31.7,39.4z"/>
						<path fill="#D84642" d="M176.7,170.5C176.6,170.6,176.6,170.6,176.7,170.5C176.7,170.6,176.7,170.6,176.7,170.5z"/>
						<path fill="#D84642" d="M179.9,178.7l-0.1-0.1c-0.1,0.1-0.2,0.2-0.3,0.2L179.9,178.7z"/>
						<path fill="#D84642" d="M56.2,64C56.2,64,56.2,64,56.2,64C56,63.9,56.1,64,56.2,64z"/>
						<path fill="#D84642" d="M99.8,104.1c-0.1-0.9,1.3,0.2,1.1-1C100.7,103.3,99.5,103.2,99.8,104.1z"/>
						<path fill="#D84642" d="M16.5,19.8c0.1,0.1,0.1,0.1,0.2,0.2C16.7,19.9,16.6,19.9,16.5,19.8z"/>
						<path fill="#D84642" d="M100.9,103.1L100.9,103.1l0-0.1C100.8,103,100.8,103,100.9,103.1z"/>
						<path fill="#D84642" d="M67.4,73.8c0.1-0.1,0.1-0.2,0.1-0.3C67.4,73.6,67.4,73.7,67.4,73.8z"/>
						<path fill="#D84642" d="M59.9,65.6l0.1,0.3C60,65.7,60,65.6,59.9,65.6z"/>
						<path fill="#D84642" d="M72.2,77c0.1,0.1,0,0.2,0.3,0.3c0,0,0-0.1,0-0.1C72.4,77.3,72.3,77.2,72.2,77z"/>
						<path fill="#D84642" d="M76.6,81.1c0-0.1,0-0.1,0-0.2c-0.1,0-0.1-0.1-0.2-0.1L76.6,81.1z"/>
						<path fill="#D84642" d="M163.6,157.8c0,0.2-0.1,0.4-0.2,0.6C163.7,158,164.4,158.5,163.6,157.8z"/>
						<path fill="#D84642" d="M16.2,19.9c0.1-0.1,0.2-0.1,0.3-0.1c-0.1,0-0.1-0.1-0.2-0.1C16.3,19.8,16.2,19.8,16.2,19.9z"/>
						<path fill="#D84642" d="M76.1,73.3l0.6,0.7C76.6,73.8,76.4,73.5,76.1,73.3z"/>
						<path fill="#D84642" d="M132.9,127.8l0.2,0.1C133,127.8,132.9,127.8,132.9,127.8z"/>
						<path fill="#D84642" d="M78.9,75.8c0,0.3,0,0.5,0.1,0.7c0.1,0,0.1,0,0.2-0.1L78.9,75.8z"/>
						<path fill="#D84642" d="M163.4,158.4L163.4,158.4L163.4,158.4z"/>
						<path fill="#D84642" d="M169,161.7c-0.6-0.7-0.9,0.3-1.4,0.5c-0.9-0.6,0.1-0.8,0.2-1.4c-0.6-0.3-1.6-0.1-1.9-0.5
							c0.1-0.1,0-0.2,0.3-0.3c-1,0-1.5-1.5-2.7-1.4c0-0.1,0-0.2,0.1-0.2c-0.2,0.4-0.5,0.8-0.8,1c-0.3-0.3-0.9-0.1-0.6-0.7
							c0.2,0.2,0.3,0,0.6,0l-0.5-0.1c0.3-0.9,0.6,0.2,1.1-0.2c-0.8-0.4-2-0.6-2.2-1.2c0.5-0.7,1.3,0.9,1.2-0.3l0.5,0.9
							c0.4-1.5,0.4,0.5,0.9-1c-0.8-1.1-1.3-0.7-2.1-1.8c-0.5,0.1-0.4,0.6-0.9,0.7c-1.9-0.7,0.4-2.5-1.3-2.7
							c-0.6,0.1-1.5,0.8-1.8-0.3l0.9-0.4c-0.8-1-1.5,0.5-1.9-0.9c0.4-0.1,0.9,0.5,0.9,0.3c-0.1-1.1-0.8,0-1.3-0.5l0.5-0.7
							c-1-0.8-2.5-1.5-3.7-2.4c0.2-0.1,0.6-0.1,0.5-0.5c-1.6-1-2.8-2.9-3.7-4.5l-1,0c-0.1-0.1,0-0.4,0.2-0.4
							c-0.3-0.7-0.3,0.3-0.8,0.3c-0.3-0.2-0.1-0.7,0.2-0.6c-1.3-0.4-3.4-1.5-3.8-3l0.3,0c-0.5-0.9-1.8,0.2-2.1-0.9l0.2,0
							c-1.4-1.8-3.6-3-4-4.9c-0.9,0.5-1.2-1.8-2.4-0.9c-0.4-1.4,0-1.3-0.9-2.9c-0.3-0.4-1.1,0.2-1.7-0.1l0.5-0.6l-1.1,0l0.3-0.9
							l-0.5-0.2c0.1,0.2,0.1,0.6-0.1,0.7c-0.9-0.4-1.1-1.8-0.9-2.1l-1.9-0.9c0.2-0.2,0.6,0,0.9,0c-1.3-0.2,0.4-0.7-0.8-0.9
							c0,0.2-0.4,0.3-0.5,0.4c0-0.7-0.9-1.5-1.6-1.9l0.5-0.3c-1-1.1-2.5-2-3.7-3.2c0.3,0.6-0.5,1.1-0.9,0.9l0.4-0.7
							c-0.6,0.1,0.2,0.6-0.7,0.6c-0.4-0.5,0.3-0.9,0.8-0.9l-0.7-0.3c0.1-0.2,0.3-0.2,0.6-0.4c-0.6,0.1-0.4-1.5-1.3-1.2l0.1-0.2
							c-1.2-1.2-2-1.5-3-2.4c-0.5,0.5-0.8,0-1.5,0.1c-0.6-0.9-1-2-1.9-2.8c-0.9-0.3-0.6,0.2-1.1,0.3c0.4-0.5-0.5-1.3,0.2-1.2
							c-1.1-0.9-1.4-1.2-3.1-2.1c0,0.3,0.1,0.6-0.2,0.6c-0.3-0.2-0.4-0.7-0.1-0.9l0.1,0c-2.1-0.7-2.2-4.6-4.3-4.8l0.1,0l-1.7-0.7
							c-0.5-0.6,0.7,0,0.5-0.7c-2.1-0.5-2-2.1-3.6-2.7c0.4-2.1-3.1-2.8-3.5-4.7l-0.2,0.4c-0.6,0-0.2-0.5-0.3-0.8
							c-0.2,0.3,0.1,0.6-0.3,0.6c-2.9-2-4.8-5.4-7.1-8.1c-0.9-1-2.1,1.1-2.6-0.7l0.9-0.3c-2.6-1.1-3.9-3.7-6.3-4.9
							c0.2,0,0.4-0.2,0.6,0c0-0.8-1.5-1.4-1.8-1.1c-0.3-0.3,0.2-0.4,0.2-0.7c-0.2-0.6-1.5-0.4-1.3-1c0-0.1,0.2,0,0.3,0
							c-0.5,0-1.2-1.2-1.4-0.5c-0.5-0.9-1.6-1-1.8-1.9c-0.9,0.2-1-1.4-1.8-0.7c0.8-0.8-0.6-1.8-1.4-1.8c0.4-0.1-0.2-0.6,0.3-0.8
							c-0.5-0.5-1.1-0.8-1.4-0.3c0-1.8-2.6-1-2-2.7c-1.9-1-3.6-2-5.1-3.1c0.8-0.8,1.6,1.3,2.3,0.4c-1.6-0.9-3-0.9-4.1-2.3
							c-0.2-0.4,0.5-0.2,0.8-0.2c-1.6-0.9-2.4-2.4-4-3c0.1-0.1,0.3,0,0.4,0c-0.3-0.2-0.4-0.6-0.7-0.2l0.3,0.1
							c-0.1,0.9-1.9,0.3-2.2,0.5c1.4-0.7-0.9-1.3,1-2.1c-0.2-0.1-0.6-0.1-0.8,0.2c-0.2-0.3-0.1-0.5,0.4-0.6c-1-0.6-1.1,0.1-1.8-0.6
							c0.2-0.2,0.4-0.1,0.6-0.2c-0.7,0-1.4,0-1.9-0.7c0.1-0.1,0.2-0.3,0.4-0.1c-1.1-0.9-2.7-0.8-3.5-2.2c1.1-0.4-0.2-0.6,0.4-1.3
							l-0.8-0.4l0,0.6c-0.5-0.5-1.5-0.5-1.8-1.2l0.7,0.1l-1.2-0.8l0.4,0.8c-0.9-0.2-0.7,0.9-1.3,0c0.2,0.1-0.5-0.5-0.5-1.2l0,0
							c-0.5,0-1-0.1-1.2-0.6c0.1-0.3,0.8-0.7,0.8-0.9c-0.8,0.3-1.4-1-2.3-0.8c0.2,0,0.6-0.4,0.6-0.5l-0.6,0.2
							c-0.1-0.4-0.1-0.5,0.2-0.7c-0.7-0.8-0.5,1.1-1.1-0.1c0.1,0,0.1-0.1,0.3,0c-0.7-1-2-1.4-2.7-2.4c0.4-0.9,0.9,0.5,1.1-0.3
							c-1.3-1-3.3-1.5-4.3-2.8l0.2,0.3c-1,0.8-0.4-1.3-1.5-1.4c0.2,0.1,0.7-0.3,0.5-0.3c-0.7-0.9-1.9-1.3-3.4-2.1l0.4-0.1
							c-0.3-0.7-1.1-1.3-1.5-1.9c-0.4,0.1-0.6-0.2-0.8,0.3c-0.3-2.9-3.7-2.1-4-4.5c0.2,0.2,0.6,0.2,0.5,0l-1.4-0.9
							c-0.3,0.5-0.1,0.4-0.1,1c-0.4,0.1-0.9,0-1.2-0.3c0.8,0.2,0.6-0.7,0.6-1.1c-0.1,0.2-0.3,0.2-0.4,0.4c0.1-1.3-0.9,0.7-1.3-0.6
							l0.2-0.2c-0.4-0.2-1-0.2-1.3-0.6c0.3-0.6,0.5,0.1,0.9-0.3c-0.5-0.4-1.8,0-1.8-0.9c0.3,0.1,0.6,0.3,1,0.4c0-1-0.1-0.9-0.4-1.3
							l0,0l-0.6-1l0.1,0.3c-1.8,0.7-1.4-0.9-3-0.9c1.5,0,0.5-0.3,1.1-0.8c-0.1-0.3-0.2-0.8,0-0.9c-0.8,0.1-0.3-0.9-1.5-0.8
							c0.1-0.2-0.4-0.4,0.1-0.8c-0.6-0.3-0.2,0.4-0.4,0.6c-1.3-0.1-1.1-2.4-3-2.6c-1.3-0.6-2-0.1-3.1-0.7c0-0.6,0.8-0.4,0.8-0.4
							c-0.2-0.7-0.6-1-1.3-1.2c0.2-0.1,0.3-0.3,0.3-0.6c-0.4-0.3-0.8,0.4-1.1-0.3c0.3-0.1,0.7-0.3,1-0.4c-0.6-0.2-1.3-0.3-1.9-0.6
							c0.2-0.4,0.7-0.2,1-0.3c-0.6-0.3-1.6-0.9-2.2-0.6l0.2,0.5c-0.2-0.1,0.3-0.5,0.5-0.5c0.8,0,0.5,0.7,0.3,0.9l-0.4-0.2
							c-0.6,1.3,1.4,1,2,1.7l-1,0.5l1.2,0c0,0.3-0.3,0.8-0.8,0.6c0.1,0.8,0.7,0.1,0.7,0.9c0,0.1-0.1,0.1-0.1,0.1l0.7,0.2
							c-0.2,0.1-0.4,0.6-0.6,0.2c0.4,1.2,1.8,0.7,1.6,1.5l-0.1,0c1.3,0.8,0.6-0.4,2-0.3l-0.7,1.9l0.6-0.4c0.1,0.1,0.3,0.4,0,0.6
							c0.8,0,0.1-0.3,0.7-0.4c0.1,1,1.7,1.2,1.1,2.2c0.6-0.2-0.2-0.8,0.6-0.5c-0.7,1.1,0.8,0.5,0.9,1.4c-0.6,0.3-0.8-0.4-0.7,0.5
							c1.1-0.5,0.8,1.1,1.4,1.3c0.6-0.6,1.2,0.6,2.1,1c-0.2,0.2,1,1.6,1.5,2.5l-0.1,0.1c0.7-0.5,1.3,0.2,1.9,0.6
							c-0.4,0.4-0.6,0.4-1.1,0.4l0.5,0.4c0.3-0.1,0.6-0.1,0.9,0.1l-0.6,0.4c0.7,0.6,1.8,0.6,2.3,1.7c0.5-0.4,0.5-1.9,1.7-1.4
							c-0.2,0.3-0.6,0.7-0.9,0.6c0.1,0,0.5,0,0.5,0.3l-0.7,0.1c0.2,0.5,0.5-0.2,0.8,0.1c-0.3,0.3,0,0.5-0.3,0.7
							c-0.1,0-0.1-0.4-0.4-0.3c0.3,0.4,0.5,1,0.4,1.3c0.2-0.2,0.4-0.5,0.7-0.3c0.7,0.6-0.2,0.6,0,1.1c0.4-0.1,0.5,0.5,1,0
							c0.2,0.2,0,0.5-0.1,0.7c0.5,0.1,1.6,1.3,1.7,0.4l0-0.1c0,0,0,0,0.1,0l0,0l0,0c1.5,0.5,1.9,2.3,3.2,3.1l-0.2,0.2
							c0.8,0.4,1.5,1.2,2.3,1.2c0.2,0.2,0.1,0.7-0.1,0.9c0.6,0.3,0.8,0.2,1.3,1.1c-0.8-0.1-0.1,0.4-0.7-0.2c0.5,0.7,0.4,1.1,1.5,1.3
							c-0.6,0.2-0.1,1,0.4,1.1l-0.1-0.7c0.4,0.2,0.7,0.6,0.9,0.9l-0.7,0.4c0.6,1.9,3.4,0.9,3.3,3c0.7-0.1-0.4-0.9,0.3-1.1
							c0.5,0.6,0.3,2,0.5,2.2c0.5,1.1,1.6-0.2,2.2,0.8c0.1-0.3,0.5-1,1.3-0.6c0.5,0.6-0.1,1.6-0.6,1.4c-0.2-0.1-0.2-0.2-0.1-0.3
							c-0.3-0.1-0.6-0.2-0.6,0.2l0.3-0.1c0.1,0.5,0.9,1.2,0.4,1.4c0.6,0.2,0.5-0.2,0.3-0.6c0.5,1,1.2,1.1,1.8,2
							c0-0.2,0.1-0.6,0.2-0.5c0.9,1.3,0.9,0.1,1.7,0.7c0.1,0.7-0.9,0.6,0.2,1.1c0.3,0.7-0.4,0.7-0.8,0.7c1.1,0.2,1.1,1.5,1.4,1.9
							l-0.5-0.2c0.3,0.1,0.5,0.3,0.7,0.5l0.2-0.6c0.2,0.3,0.3,0.5,0.2,0.6c0.5-0.1,0.5-0.9,1.3-0.8c0.1,0.5,1.1,0.6,0.7,1.3
							c-0.7-1-0.4,0.7-1.3,0c0.2,0.1,0.4,0.2,0.5,0.5c0,0.1-0.1,0.1-0.2,0.1c0.4,1.3,1-0.3,1.9,0.6c-0.4,0.2-0.3,0.8-0.1,0.9
							c-0.4-0.3,0.3-0.7,0.9-0.6c0.4,0.8,0.8,0.4,1.1,0.7l-0.2-0.4c0.4-0.2,0.7,0.1,1.2,0.4c-0.2,0.3-0.5-0.2-0.5,0.1
							c1-0.1,0.5,1.5,1.5,1.7c0.1,0.5-0.5,0.6-0.4,1c1.1,0.2,0.4,1.1,1.4,1.5c0.2-0.6,0-0.6,1-0.5l-1.5-0.8l1.4,0.1
							c-0.4-0.3-1-0.5-1.2-0.7c0.7,0,0.6,0.1,0.7-0.4c-0.1,1.1,1.3,0.6,1.5,1.5l-1,1c0.4,1.3,2.1,0.9,2.9,2.2l-0.2-0.5
							c0.5-0.3,0.8,0.6,1.3,0.8c-0.4,0.3-0.3,0.7-0.3,1c0.2-0.3,0.8,0.8,1.6,0.2l0.1,0.9c0.7,1,2,0,2.8,0.9
							c-0.6,0.1-0.5,0.8-1.3,0.5c0.3,0.3,0.5,0.6,0.7,0.3c0,0.4,1.3,0.3,1.2,0.9c0.3,0,0.7-0.4,1,0c0,0.1-0.2,0.2-0.2,0.2
							c0.2-0.2,0.7,0.2,0.8-0.4c-0.1,1.9,2.6,2.3,2.5,4c0.8,0.5,1.6,1.1,2.2,1.6c-0.1,0.1-0.2,0.2-0.2,0c0.5,1.1,1.4-0.5,2,0.7
							c-0.1,1-0.8-0.1-0.7,0.3c-1,1.3,1.3,0.9,1.2,2.1L81,85.7c0.1,0.8,1.6,0.6,2.2,1.4c0,0-0.1,0.1-0.2,0.2
							c1.1-0.1,2.3,0.6,3.1,1.2c-0.7,0.2-0.6-0.1-0.9,0.5c0.4,0.2,0.6-0.8,1.4-0.3c0,0.4,0.3,1.1-0.1,1.7l-0.6-0.6
							c-0.3,0.9,0.8,0.7,1.1,1.2l-0.3,0.2c1,0.8,1.7,0.1,2.7,1.1l0.1-0.3c1.2-0.2,0.1,0.8,1.1,0.8l-0.5,0.9c0.5,0.2,1.9,0.5,2.7,1
							c-0.9,0.2-1.9-0.3-2.7-0.4c0.4,0.3,1.3,1.1,1.8,0.9c-0.2-0.1-0.6-0.1-0.6-0.3c1-0.1,1.8,0.2,2.5,0.9c-1.4,1.2,1.6,2.1,1.1,3.7
							c1.8,0.7,2.4,2.6,3.9,4c0.5-1.6,0.5,0.4,1.4-0.8c0.4,0.3,0.5,0.4,0.5,0.5l0.4,1.6c0,0.6-0.6-0.1-0.8,0.2
							c0.7,0.8-0.1,0.8,0.1,1.5c0.3-0.5,0.8-0.3,1.1,0.3l-0.1-1.1c1.6,0.4,0.1,1.8,1.7,2.2l-0.7,0c0.7,0.3,2,1.9,3.4,1.6
							c0,0.2-0.2,0.6-0.5,0.5c1.2,1.4,3.8,1.9,4.3,3.4l-0.4,0.2c0.3,0.2,0.9-0.1,1,0.5c-0.1,0.1-0.3,0.2-0.3,0.3
							c0.2,0,1.1,0.2,1.3,0.6l-0.6,0c1,1.6,2.7,1.1,3.9,2c-0.7,0.8,0,2,0.4,2.6l-0.1,0.1c1.4,1.5,3.1,1.8,4.8,2.8
							c0.1,1.7,2.6,3.1,3.5,4.9c-0.1-0.3,0.6-0.6,0.9-0.4c0.2,0.5,1.4,0.3,0.7,1l-0.1-0.1c-0.4,0.9,0.4,1.4,0.9,1.9l1-0.8
							c0.1,2.6,4,2.9,3.6,4.8c0.5,0.1,1,0.5,1.5,0.6l-0.5,0.5c0.8,1,1.2,1.5,2.4,2.5l-0.6,0.1c0.6,0.6,2.2-0.7,2.8-0.1l-0.5,0.9
							c1.1,1.1,1.6,2.8,3.3,3.2c-0.1,0.1-0.4,0.3-0.6,0.1c0.5,0.5,1.5,2.4,2.3,1.2c-0.6,0.7,1.1,1.2,1.9,1.5l-0.6,0.4
							c1.1-0.1,1.3-0.3,2.2,0.2c0.1,0.2-0.2,0.5-0.3,0.2c0.3,0.8,0.9,0,1.3,0.9l-0.6,0.1c0.5,0.6,0.6,0.4,1.3,0.3
							c0.5,0.2,1,1.2,0.6,1.7c0.3-0.2,1-0.2,1.2,0.2c-0.1,0.2-0.3,0.2-0.5,0.2c0.6,1.3,2,0.8,2.1,1.9c-0.1,0.2-0.2,0.3-0.2,0.4
							c-0.7-0.7-1.3-1.4-1.2-1.3c-0.4,0.4,0.1,1.1-1,1.3c0.8,0.1,2.4,0.2,2.7,1c0,0.1,0,0.1-0.1,0.2l-0.1,0c0.1,0.2,0.3,0.3,0.4,0.3
							c0.1,0.3,0.2,0.4,0.4,0.6c-0.3,0.4,0.5,0.9,0.8,1.2c0.5-0.5,0.8,0,0.8-0.8c0,0.1-0.1,0-0.3-0.2c-0.1,0-0.1-0.1-0.2-0.1
							c0,0,0,0,0.1,0c-0.2-0.2-0.5-0.4-0.8-0.7c0.5,0,0.9,0,1,0.6c0.5-0.2,1-0.3,1.2-0.4c-0.3,1.1,0.2,2.2-0.1,2.8
							c1.2,0.6,2.3,2,3.8,1.6c0.4,0.1,0,0.6,0,0.8c-0.2-0.1-0.4-0.2-0.6-0.2c0.8,0.3,1.6,1.4,2.4,0.9c0.4,0.9-1,0.2,0.1,1l-0.3,0.1
							c0.8,2.8,4.5,1.3,5.1,4.5c-0.1-0.2-0.1-0.3,0-0.5c1.6,2.8,5.1,4.1,6.4,7.2c0.4,0.8,0.9,0.5,1.6,0.6l-0.4,0.7l1.3,0.1
							c1.4,0.5,0.3,2.9,2.3,3.3l0.2-0.5c0.3,0.5,1.5,1.2,1,1.5c0.1,0,0.5-0.2,0.5,0.1l-0.3,0.3l1.5,0.6c0.6,1-1.2,0.9-0.1,2.2
							c0.5,0.3,2,0.5,2.1,0.1c-0.2-0.2-0.3-0.6,0-0.9l0.5,0.3c0.9-0.7,2-1.2,1.6-2.8l-1.2-0.2l0.2-0.6l0.6,0.6
							c0.1-0.7-0.5-0.6-0.9-0.6c0.2-0.3,0.2-0.5,0.2-0.7l-1.4,0.1c0.2-0.4,0.9-0.3,0.7-0.9c-0.7,0-0.4,1-1.2,0.7
							c0-0.7,0.4-0.9-0.3-1c0.2-0.3,0.4-0.3,0.6-0.2c-0.6-0.1-1-0.8-1.6-0.6c0.1-0.8-1.3-1.1-0.5-1.8c-0.3,0.1-1.2,0-1.5-0.3
							c1.5-0.3-1.1-1.2,0-2.1c-1.2,0.4-1.9-1.2-3.1-1.5c0.1,0,0.3-0.1,0.3,0c-0.4-0.5-0.2-0.9-0.3-1.3c-0.7,0.6-1.5,0.1-2.3,0.2
							c0.1-1.2,1.1-0.5,1.6-1.3c-0.5,0.6-1.4-0.4-1.7,0.3c0-0.8-0.1-0.5,0.2-1.3c-0.9,0.8-0.5-0.2-1.4,0c-0.2-1,0.6-0.9-0.2-1.3
							C168.1,161.5,169,161.7,169,161.7z M152.5,148.2C152.5,148.2,152.5,148.2,152.5,148.2c0.2,0.1,0.3,0.2,0.3,0.3
							C152.8,148.5,152.7,148.4,152.5,148.2z M151.2,147c0.1,0.2,0.3,0.4,0.5,0.6c-0.1,0.2-0.3,0.3-0.5,0.2
							C151.5,147.7,151.3,147.3,151.2,147z M150.6,153c-0.3-0.1-0.2-0.3-0.2-0.4c0.1,0.1,0.2,0.2,0.4,0.3c0,0,0.1,0,0.1,0
							C150.8,152.9,150.7,153,150.6,153z"/>
						<path fill="#D84642" d="M151.5,152.7c0,0,0.1,0,0.1,0c0-0.1,0-0.2,0-0.2c-0.1,0-0.2,0.1-0.2,0.1
							C151.5,152.7,151.5,152.7,151.5,152.7z"/>
						<path fill="#D84642" d="M35.2,41.3L35.2,41.3C35.2,41.3,35.2,41.3,35.2,41.3C35.2,41.3,35.2,41.3,35.2,41.3z"/>
						<polygon fill="#D84642" points="134.5,128.9 134.4,129.1 134.6,129.1 						"/>
						<path fill="#D84642" d="M29.6,32.9c0-0.1,0-0.1,0-0.2C29.6,32.7,29.6,32.8,29.6,32.9z"/>
						<path fill="#D84642" d="M26.6,29.9l-0.3-0.6C26.4,29.6,26.5,29.8,26.6,29.9z"/>
						<path fill="#D84642" d="M24.5,27.5c-0.1,0.1-0.2,0.1-0.2,0.2l0,0L24.5,27.5z"/>
						<path fill="#D84642" d="M62.9,62.1c0,0,0.1,0,0.1,0.1C63.3,62.2,63.1,62.1,62.9,62.1z"/>
						<path fill="#D84642" d="M50.5,52.8c0.2,0,0.4,0,0.6,0.1C50.9,52.6,50.8,52.5,50.5,52.8z"/>
						<path fill="#D84642" d="M76,73.2C76,73.2,76,73.2,76,73.2L76,73.2L76,73.2z"/>
						<path fill="#D84642" d="M51.6,53.4c-0.1-0.3-0.3-0.4-0.5-0.5C51.2,53.1,51.4,53.3,51.6,53.4z"/>
						<path fill="#D84642" d="M14.4,17.6l-0.1-0.1c0,0-0.1,0.1-0.1,0.1L14.4,17.6z"/>
						<path fill="#D84642" d="M14.2,17.6L14,17.5C14.1,17.5,14.1,17.6,14.2,17.6z"/>
						<path fill="#D84642" d="M13.6,17.4l0.4,0.1C13.9,17.4,13.8,17.3,13.6,17.4z"/>
						<path fill="#D84642" d="M17.3,20.8l0.2-0.1C17.5,20.7,17.4,20.7,17.3,20.8z"/>
						<path fill="#D84642" d="M18.3,21.6c-0.2-0.3-0.2-0.9-0.6-1.1l-0.2,0.1C17.9,20.5,17.8,21.7,18.3,21.6z"/>
						<path fill="#D84642" d="M20.2,27.6l-0.7-0.9c0,0.3-0.1,0.8-0.5,0.5C19.5,28.7,19.2,26.5,20.2,27.6z"/>
						<path fill="#D84642" d="M22.4,30.2c-0.5-0.3-0.3,0.3-0.4,0.4C22.5,30.6,22.6,30.7,22.4,30.2z"/>
						<path fill="#D84642" d="M40.4,46.9L40,47.3C40.4,47.6,40.1,47.2,40.4,46.9z"/>
						<polygon fill="#D84642" points="46.1,47.8 46,47.2 45.5,47.5 						"/>
						<polygon fill="#D84642" points="45.1,52.9 44.9,52.8 45.6,53.2 						"/>
						<path fill="#D84642" d="M75.4,80.8l0.4-0.7C75.5,80.1,74.9,80.7,75.4,80.8z"/>
						<path fill="#D84642" d="M89,92.4c-0.1,0.4,0.1,0.9,0.6,0.9C89.3,93,89.2,92.5,89,92.4z"/>
						<polygon fill="#D84642" points="126.8,130.1 126.4,130 127,130.3 						"/>
					</g>
				</g>
			</g>
		</g>
	</g>
	<g>
		<g>
			<g>
				<g>
					<g>
						<path fill="#D84642" d="M175,11.2c-0.1-0.2-0.4-0.5-0.6-0.2l0.4,0.7L175,11.2z"/>
						<path fill="#D84642" d="M172.4,11.7c0,0.6,0.2,1.4,0.9,1.7c-0.3-0.8,0-0.7-0.3-1.6c0.2-0.3,0.6-0.2,0.8,0
							c-0.1-0.2,0.5-0.2,0.3-0.7c-0.7-0.1-1.2,0.2-1.2,1C172.6,12,172.5,11.8,172.4,11.7z"/>
						<path fill="#D84642" d="M148.9,34.4l0.2-0.1C149,34.3,148.9,34.3,148.9,34.4z"/>
						<path fill="#D84642" d="M135,49.2c0.1-0.1,0.1-0.2,0-0.3C135,49,134.9,49.2,135,49.2z"/>
						<path fill="#D84642" d="M132.1,51.2c0.1,0,0.1-0.1,0.2-0.1C132.1,51.1,132,51.1,132.1,51.2z"/>
						<path fill="#D84642" d="M148.9,34.4l-0.6,0.2C148.5,34.8,148.7,34.5,148.9,34.4z"/>
						<path fill="#D84642" d="M170.6,16.3c0.1-0.1,0.1-0.2,0.1-0.4c0,0.1-0.1,0.2-0.1,0.3C170.6,16.2,170.6,16.2,170.6,16.3z"/>
						<path fill="#D84642" d="M154.5,27.4l0.1-0.1c0-0.1-0.1-0.2-0.1-0.3L154.5,27.4z"/>
						<path fill="#D84642" d="M159.1,22.3c-0.1,0.1,0.3,0.6,0.5,0.9c-0.1-0.3-0.2-0.4-0.1-0.6C159.4,22.5,159.3,22.4,159.1,22.3z"/>
						<path fill="#D84642" d="M167.6,15.4l0.1-0.2C167.6,15.2,167.6,15.3,167.6,15.4z"/>
						<path fill="#D84642" d="M151,30.9c-0.1-0.1-0.2-0.1-0.2-0.1C150.8,30.8,150.9,30.9,151,30.9z"/>
						<path fill="#D84642" d="M26.7,177C26.7,176.9,26.7,176.9,26.7,177C26.6,177,26.7,177,26.7,177z"/>
						<path fill="#D84642" d="M18.6,179.9l0.1-0.1c-0.1-0.1-0.2-0.2-0.2-0.3L18.6,179.9z"/>
						<path fill="#D84642" d="M127.2,55.4C127.3,55.4,127.3,55.4,127.2,55.4C127.3,55.2,127.3,55.3,127.2,55.4z"/>
						<path fill="#D84642" d="M90.1,100.1c0.9-0.1-0.1,1.3,1.1,1C90.9,101,90.9,99.7,90.1,100.1z"/>
						<path fill="#D84642" d="M170.4,16.3c-0.1,0.1-0.1,0.1-0.2,0.2C170.3,16.4,170.4,16.4,170.4,16.3z"/>
						<path fill="#D84642" d="M91.1,101.1L91.1,101.1l0.1,0C91.2,101.1,91.2,101.1,91.1,101.1z"/>
						<path fill="#D84642" d="M118.1,66.8c0.1,0.1,0.2,0.1,0.3,0.1C118.3,66.8,118.2,66.8,118.1,66.8z"/>
						<path fill="#D84642" d="M125.9,59.1l-0.2,0.1C125.7,59.2,125.8,59.2,125.9,59.1z"/>
						<path fill="#D84642" d="M115.1,71.7c-0.1,0.1-0.2,0.1-0.3,0.3c0,0,0.1,0,0.1,0C114.9,71.9,114.9,71.8,115.1,71.7z"/>
						<path fill="#D84642" d="M111.4,76.2c0.1,0,0.1,0,0.2,0c0-0.1,0.1-0.1,0.1-0.2L111.4,76.2z"/>
						<path fill="#D84642" d="M39.5,164.4c-0.2,0-0.4-0.1-0.6-0.2C39.2,164.4,38.7,165.1,39.5,164.4z"/>
						<path fill="#D84642" d="M170.3,16c0.1,0.1,0.1,0.2,0.1,0.3c0-0.1,0.1-0.1,0.1-0.2C170.5,16.1,170.4,16,170.3,16z"/>
						<path fill="#D84642" d="M119.1,75.4l-0.7,0.6C118.7,75.9,118.9,75.6,119.1,75.4z"/>
						<path fill="#D84642" d="M68.4,133.6l-0.1,0.2C68.4,133.8,68.5,133.7,68.4,133.6z"/>
						<path fill="#D84642" d="M116.7,78.2c-0.3,0-0.5,0-0.7,0.1c0,0.1,0,0.1,0.1,0.2L116.7,78.2z"/>
						<path fill="#D84642" d="M38.8,164.1L38.8,164.1L38.8,164.1z"/>
						<path fill="#D84642" d="M35.5,169.6c0.7-0.6-0.3-0.9-0.5-1.4c0.6-0.9,0.8,0.1,1.4,0.2c0.3-0.6,0.1-1.6,0.5-1.9
							c0.1,0.1,0.2,0.1,0.3,0.3c0-1,1.5-1.5,1.4-2.7c0.1,0,0.2,0,0.2,0.1c-0.4-0.2-0.7-0.5-1-0.8c0.3-0.3,0.1-0.9,0.7-0.6
							c-0.2,0.2,0,0.3,0,0.6l0.1-0.5c0.9,0.3-0.2,0.6,0.2,1.1c0.4-0.8,0.6-1.9,1.2-2.2c0.7,0.5-0.9,1.2,0.3,1.2l-0.9,0.5
							c1.5,0.4-0.5,0.3,1,0.9c1.1-0.7,0.7-1.3,1.8-2c-0.1-0.5-0.5-0.4-0.7-0.9c0.7-1.9,2.5,0.4,2.6-1.3c-0.2-0.6-0.8-1.5,0.2-1.8
							l0.4,0.9c0.9-0.8-0.5-1.4,0.9-1.9c0.1,0.4-0.5,0.9-0.2,0.9c1.1-0.1,0-0.8,0.5-1.3l0.7,0.5c0.8-1,1.4-2.5,2.3-3.6
							c0.1,0.2,0.1,0.6,0.6,0.5c1-1.6,2.8-2.7,4.4-3.7l-0.1-1c0.1-0.1,0.4,0,0.4,0.2c0.7-0.3-0.3-0.3-0.3-0.8
							c0.2-0.3,0.7-0.1,0.6,0.2c0.4-1.3,1.4-3.4,2.8-3.8l0,0.3c0.9-0.5-0.3-1.8,0.8-2l0,0.2c1.7-1.4,2.9-3.6,4.8-4.1
							c-0.6-0.9,1.8-1.3,0.8-2.4c1.4-0.4,1.3,0,2.8-1c0.4-0.3-0.2-1.1,0.1-1.6l0.6,0.5l-0.1-1.1l0.9,0.3l0.2-0.5
							c-0.2,0.1-0.6,0.1-0.7-0.1c0.3-0.9,1.8-1.2,2.1-0.9l0.9-1.9c0.2,0.2,0.1,0.6,0,0.9c0.1-1.3,0.7,0.4,0.8-0.8
							c-0.2,0-0.3-0.3-0.4-0.5c0.7-0.1,1.4-0.9,1.8-1.6l0.3,0.5c1.1-1,1.9-2.5,3-3.7c-0.6,0.3-1.2-0.4-0.9-0.8l0.7,0.4
							c-0.2-0.6-0.6,0.2-0.6-0.7c0.5-0.4,1,0.3,0.9,0.7l0.3-0.7c0.2,0.1,0.2,0.3,0.4,0.6c-0.2-0.6,1.5-0.5,1.1-1.4l0.2,0.1
							c1.1-1.2,1.4-2,2.2-3c-0.5-0.5,0-0.8-0.2-1.4c0.8-0.6,1.9-1.1,2.7-2c0.3-0.9-0.3-0.6-0.3-1.1c0.5,0.4,1.2-0.6,1.2,0.2
							c0.9-1.2,1.1-1.5,1.9-3.2c-0.3,0-0.6,0.1-0.6-0.1c0.1-0.3,0.7-0.4,0.9-0.2l0,0.1c0.6-2.2,4.4-2.4,4.5-4.5l0,0.1l0.6-1.7
							c0.6-0.5,0.1,0.7,0.7,0.5c0.4-2.1,2-2.1,2.4-3.7c2.2,0.3,2.5-3.2,4.5-3.6l-0.4-0.2c-0.1-0.6,0.5-0.2,0.8-0.4
							c-0.3-0.2-0.6,0.1-0.6-0.3c1.8-2.9,5-5,7.6-7.4c0.9-0.9-1.3-2,0.6-2.6l0.3,0.9c0.9-2.6,3.4-4,4.4-6.5c0,0.2,0.2,0.4,0.1,0.6
							c0.8,0,1.3-1.5,0.9-1.8c0.3-0.3,0.4,0.2,0.7,0.2c0.6-0.2,0.3-1.5,0.9-1.4c0.1,0,0,0.2,0,0.3c0-0.4,1.1-1.2,0.4-1.4
							c0.9-0.5,0.9-1.6,1.7-1.9c-0.3-0.9,1.3-1,0.6-1.8c0.8,0.8,1.7-0.7,1.7-1.5c0.1,0.4,0.6-0.2,0.8,0.3c0.4-0.5,0.7-1.1,0.2-1.4
							c1.8-0.1,0.8-2.6,2.6-2.1c0.9-1.9,1.8-3.6,2.8-5.2c0.8,0.8-1.2,1.6-0.3,2.3c0.8-1.6,0.7-3,2-4.1c0.4-0.2,0.2,0.5,0.2,0.7
							c0.8-1.6,2.3-2.5,2.8-4c0.1,0.1,0.1,0.3,0,0.4c0.2-0.3,0.6-0.4,0.2-0.7l-0.1,0.3c-0.9-0.1-0.4-1.9-0.6-2.2
							c0.7,1.3,1.3-0.9,2.1,0.9c0.1-0.2,0-0.6-0.2-0.7c0.3-0.2,0.5-0.1,0.6,0.4c0.5-1-0.2-1.1,0.5-1.8c0.2,0.2,0.1,0.4,0.3,0.6
							c0-0.7-0.1-1.4,0.6-1.9c0.1,0.1,0.3,0.2,0.1,0.4c0.9-1.1,0.6-2.7,2-3.6c0.5,1,0.6-0.2,1.4,0.4l0.3-0.8l-0.6,0
							c0.5-0.5,0.4-1.5,1.1-1.7l-0.1,0.7l0.8-1.1l-0.8,0.4c0.1-0.9-0.9-0.7-0.1-1.3c-0.1,0.2,0.5-0.5,1.2-0.5l0,0
							c0-0.5,0-0.9,0.6-1.2c0.3,0.1,0.7,0.8,0.9,0.8c-0.3-0.8,1-1.4,0.7-2.3c0,0.2,0.4,0.6,0.5,0.6l-0.3-0.6
							c0.4-0.1,0.5-0.1,0.7,0.2c0.8-0.7-1.1-0.5,0.1-1.1c0,0.1,0.1,0.1,0,0.3c1-0.7,1.3-2,2.3-2.7c0.9,0.4-0.5,0.9,0.3,1.1
							c0.9-1.3,1.4-3.3,2.6-4.3l-0.3,0.1c-0.8-1,1.3-0.4,1.3-1.4c-0.1,0.2,0.4,0.7,0.3,0.5c0.9-0.7,1.2-1.8,2.1-3.3l0.1,0.4
							c0.6-0.3,1.3-1.1,1.8-1.5c-0.1-0.4,0.2-0.6-0.3-0.8c2.8-0.3,2-3.7,4.4-4c-0.2,0.2-0.2,0.6,0,0.5l0.9-1.4
							c-0.5-0.3-0.4-0.1-0.9-0.1c-0.1-0.4,0-0.9,0.3-1.2c-0.2,0.8,0.7,0.6,1.1,0.6c-0.2-0.1-0.2-0.3-0.4-0.4
							c1.3,0.1-0.7-0.9,0.5-1.2l0.2,0.2c0.2-0.4,0.2-1,0.5-1.2c0.6,0.3-0.1,0.5,0.3,0.9c0.4-0.5,0-1.8,0.9-1.8
							c-0.1,0.3-0.3,0.6-0.4,0.9c1,0.1,0.9-0.1,1.3-0.4l0,0l1-0.6l-0.3,0.1c-0.7-1.8,0.9-1.4,0.9-3c0,1.5,0.3,0.5,0.8,1.1
							c0.3-0.1,0.8-0.2,0.9,0c-0.1-0.8,0.9-0.3,0.8-1.4c0.2,0.1,0.4-0.4,0.7,0.1c0.3-0.6-0.4-0.2-0.6-0.4c0.1-1.3,2.4-1,2.6-2.9
							c0.6-1.2,0.2-2,0.7-3.1c0.6,0,0.4,0.8,0.4,0.8c0.7-0.2,1-0.6,1.2-1.2c0.1,0.2,0.3,0.3,0.6,0.3c0.3-0.4-0.4-0.8,0.3-1.1
							c0.1,0.3,0.3,0.7,0.3,1c0.3-0.6,0.3-1.3,0.6-1.9c0.4,0.2,0.2,0.7,0.2,1c0.3-0.6,1-1.5,0.6-2.1l-0.5,0.1
							c0.2-0.2,0.5,0.3,0.4,0.5c0,0.8-0.7,0.4-0.9,0.3l0.2-0.4c-1.3-0.7-1,1.4-1.7,1.9l-0.5-1l0,1.2c-0.3-0.1-0.8-0.4-0.6-0.8
							c-0.8,0.1-0.1,0.6-0.9,0.6c-0.1,0-0.1-0.1-0.1-0.1l-0.2,0.6c-0.1-0.2-0.6-0.4-0.2-0.6c-1.2,0.4-0.7,1.8-1.5,1.5l0-0.1
							c-0.8,1.3,0.4,0.6,0.3,2l-1.8-0.8l0.4,0.6c-0.1,0.1-0.4,0.3-0.6,0c0,0.8,0.3,0.2,0.4,0.7c-1,0-1.2,1.7-2.2,1
							c0.2,0.6,0.8-0.2,0.5,0.6c-1.1-0.7-0.5,0.8-1.4,0.9c-0.3-0.6,0.4-0.8-0.5-0.7c0.5,1.1-1.1,0.8-1.3,1.4c0.6,0.6-0.6,1.2-1,2.1
							c-0.2-0.2-1.6,1-2.4,1.4l-0.1-0.1c0.5,0.7-0.2,1.3-0.6,1.9c-0.4-0.4-0.4-0.6-0.4-1l-0.4,0.5c0.1,0.3,0.1,0.6-0.1,0.9l-0.4-0.6
							c-0.5,0.6-0.6,1.8-1.7,2.2c0.4,0.5,1.9,0.6,1.4,1.7c-0.3-0.2-0.7-0.6-0.6-0.9c0,0.1,0,0.4-0.3,0.5l-0.1-0.7
							c-0.5,0.2,0.2,0.5-0.1,0.8c-0.3-0.3-0.4,0-0.7-0.3c0-0.1,0.4-0.1,0.3-0.4c-0.4,0.3-0.9,0.5-1.3,0.4c0.2,0.2,0.5,0.4,0.3,0.7
							c-0.5,0.6-0.6-0.2-1.1,0c0.1,0.4-0.5,0.5,0,1c-0.2,0.2-0.4,0-0.7-0.1c-0.1,0.5-1.3,1.6-0.4,1.7l0.1,0c0,0,0,0,0,0.1l0,0l0,0
							c-0.4,1.5-2.3,1.9-3,3.2l-0.2-0.2c-0.4,0.8-1.1,1.5-1.2,2.3c-0.2,0.2-0.7,0.1-0.9-0.1c-0.3,0.6-0.2,0.8-1.1,1.3
							c0.1-0.8-0.4-0.1,0.2-0.7c-0.7,0.5-1.1,0.4-1.2,1.5c-0.3-0.6-1,0-1.1,0.4l0.7-0.1c-0.2,0.4-0.5,0.7-0.8,0.9l-0.5-0.7
							c-1.9,0.6-0.8,3.4-2.9,3.3c0.1,0.7,0.9-0.4,1.1,0.3c-0.6,0.5-2,0.4-2.2,0.5c-1.1,0.5,0.2,1.5-0.8,2.2c0.3,0.1,1,0.5,0.6,1.3
							c-0.6,0.5-1.6-0.1-1.4-0.6c0.1-0.2,0.2-0.2,0.3-0.1c0.1-0.3,0.2-0.6-0.2-0.6l0.1,0.3c-0.5,0.1-1.2,0.9-1.4,0.4
							c-0.2,0.6,0.2,0.5,0.6,0.3c-1,0.5-1.1,1.2-2,1.8c0.2,0,0.6,0.1,0.5,0.2c-1.3,0.9,0,0.9-0.6,1.7c-0.7,0.2-0.7-0.9-1.1,0.2
							c-0.6,0.3-0.7-0.4-0.7-0.7c-0.2,1.1-1.4,1.1-1.9,1.4l0.2-0.5c-0.1,0.3-0.3,0.5-0.4,0.7l0.6,0.2c-0.3,0.2-0.4,0.3-0.6,0.2
							c0.1,0.5,0.9,0.5,0.9,1.2c-0.5,0.1-0.5,1.1-1.2,0.7c1-0.8-0.7-0.4-0.1-1.3c-0.1,0.2-0.2,0.4-0.5,0.6c-0.1,0-0.1-0.1-0.1-0.2
							c-1.3,0.4,0.3,1-0.5,1.9c-0.2-0.4-0.8-0.3-0.9-0.1c0.3-0.4,0.7,0.3,0.7,0.9c-0.8,0.4-0.4,0.8-0.7,1.1l0.4-0.3
							c0.2,0.4-0.1,0.7-0.3,1.2c-0.3-0.2,0.1-0.5-0.1-0.5c0.2,1-1.5,0.5-1.7,1.5c-0.5,0.1-0.6-0.5-1-0.4c-0.2,1.1-1.1,0.4-1.4,1.5
							c0.6,0.2,0.6,0,0.5,0.9l0.7-1.5l0,1.3c0.3-0.4,0.4-1,0.7-1.2c0,0.7,0,0.6,0.5,0.7c-1.1-0.1-0.5,1.4-1.4,1.6l-1.1-1
							c-1.2,0.5-0.8,2.1-2.1,3l0.5-0.2c0.3,0.5-0.5,0.8-0.7,1.3c-0.3-0.3-0.7-0.2-1-0.3c0.3,0.2-0.7,0.8-0.1,1.6l-0.9,0.1
							c-1,0.8,0.1,2-0.8,2.8c-0.2-0.6-0.8-0.4-0.5-1.3c-0.3,0.3-0.6,0.5-0.3,0.7c-0.4,0-0.2,1.3-0.8,1.2c0.1,0.3,0.4,0.6,0.1,0.9
							c-0.1,0-0.2-0.2-0.2-0.2c0.2,0.2-0.2,0.7,0.5,0.8c-1.9,0-2.1,2.7-3.8,2.6c-0.4,0.8-1,1.7-1.5,2.3c-0.1-0.1-0.2-0.2,0-0.2
							c-1,0.5,0.6,1.4-0.5,2c-1,0,0.1-0.8-0.4-0.7c-1.3-0.9-0.8,1.3-2,1.3l0.1-0.2c-0.8,0.1-0.5,1.6-1.3,2.3c0,0-0.1-0.1-0.2-0.2
							c0.2,1.1-0.5,2.3-1,3.2c-0.3-0.6,0-0.6-0.6-0.8c-0.2,0.4,0.9,0.6,0.4,1.3c-0.4,0-1.1,0.3-1.7-0.1l0.5-0.7
							c-0.9-0.2-0.7,0.8-1.1,1.1l-0.3-0.3c-0.7,1.1,0,1.7-1,2.7l0.3,0.1c0.2,1.2-0.8,0.1-0.8,1.2l-0.9-0.4c-0.1,0.5-0.4,1.9-0.8,2.7
							c-0.2-0.8,0.2-1.9,0.3-2.6c-0.3,0.4-1,1.3-0.8,1.8c0.1-0.2,0-0.6,0.3-0.6c0.2,1,0,1.8-0.7,2.5c-1.3-1.3-2,1.7-3.6,1.3
							c-0.6,1.8-2.5,2.4-3.7,4.1c1.6,0.4-0.4,0.5,0.9,1.3c-0.2,0.4-0.4,0.5-0.5,0.5l-1.6,0.5c-0.5,0,0-0.6-0.2-0.7
							c-0.8,0.7-0.8-0.1-1.5,0.2c0.5,0.2,0.4,0.8-0.2,1.1l1.1-0.2c-0.3,1.6-1.8,0.1-2.1,1.8l-0.1-0.7c-0.3,0.8-1.8,2.1-1.4,3.4
							c-0.2,0-0.6-0.1-0.5-0.5c-1.3,1.2-1.6,3.8-3.1,4.4l-0.2-0.3c-0.1,0.3,0.1,0.9-0.4,1c-0.1-0.1-0.2-0.3-0.3-0.2
							c0,0.2-0.1,1.1-0.5,1.3l-0.1-0.6c-1.5,1-1,2.7-1.7,3.9c-0.8-0.7-2,0.1-2.5,0.5l-0.1-0.1c-1.4,1.4-1.6,3.2-2.5,4.9
							c-1.6,0.1-3,2.6-4.7,3.6c0.3-0.1,0.6,0.6,0.5,0.9c-0.5,0.2-0.2,1.4-0.9,0.7l0.1-0.1c-0.9-0.4-1.3,0.5-1.8,1l0.9,0.9
							c-2.6,0.1-2.7,4-4.6,3.7c-0.1,0.5-0.4,1-0.5,1.5l-0.5-0.5c-1,0.8-1.4,1.2-2.3,2.4l-0.2-0.6c-0.6,0.6,0.7,2.1,0.2,2.8l-0.9-0.5
							c-1,1.1-2.7,1.6-3,3.3c-0.1-0.1-0.3-0.4-0.1-0.6c-0.5,0.5-2.4,1.5-1.2,2.3c-0.7-0.6-1.1,1.1-1.4,1.9l-0.4-0.6
							c0.2,1.1,0.3,1.3-0.1,2.1c-0.2,0.1-0.5-0.2-0.2-0.3c-0.8,0.3,0.1,0.9-0.8,1.3l-0.1-0.5c-0.6,0.5-0.4,0.6-0.3,1.3
							c-0.1,0.5-1.1,1-1.7,0.6c0.2,0.3,0.3,1-0.2,1.2c-0.2-0.1-0.2-0.3-0.2-0.4c-1.2,0.6-0.8,1.9-1.9,2.1c-0.2-0.1-0.3-0.2-0.4-0.2
							c0.7-0.7,1.3-1.3,1.3-1.2c-0.5-0.4-1.1,0.1-1.3-1c-0.1,0.8-0.2,2.3-1,2.7c-0.1,0-0.1,0-0.2-0.1l0-0.1
							c-0.2,0.1-0.2,0.3-0.3,0.4c-0.3,0.1-0.4,0.2-0.6,0.3c-0.4-0.3-0.9,0.5-1.2,0.8c0.5,0.5,0.1,0.8,0.8,0.8c-0.1,0,0-0.1,0.2-0.3
							c0-0.1,0.1-0.1,0.1-0.2c0,0,0,0,0,0.1c0.2-0.2,0.4-0.5,0.7-0.8c0,0.5,0,0.9-0.6,1c0.2,0.5,0.3,0.9,0.4,1.2
							c-1.1-0.3-2.2,0.2-2.7-0.1c-0.6,1.2-1.9,2.3-1.5,3.8c-0.1,0.4-0.6,0-0.8,0c0.1-0.2,0.2-0.4,0.2-0.6c-0.3,0.7-1.4,1.6-0.9,2.4
							c-0.9,0.4-0.2-0.9-1,0l-0.1-0.3c-2.8,0.7-1.2,4.4-4.5,5c0.2-0.1,0.3-0.1,0.5,0c-2.8,1.6-4,5-7.1,6.2c-0.8,0.4-0.5,0.9-0.6,1.6
							l-0.6-0.4l-0.1,1.2c-0.5,1.3-2.9,0.2-3.3,2.1l0.5,0.2c-0.5,0.3-1.2,1.5-1.5,1c0,0.1,0.2,0.5-0.1,0.5l-0.3-0.3l-0.6,1.5
							c-1,0.5-0.9-1.3-2.1-0.2c-0.3,0.5-0.5,2-0.2,2c0.2-0.2,0.6-0.2,0.9,0l-0.3,0.5c0.7,0.9,1.1,2.1,2.7,1.7l0.2-1.2l0.6,0.2
							l-0.6,0.6c0.7,0.1,0.6-0.5,0.6-0.9c0.3,0.2,0.5,0.2,0.7,0.2l0-1.4c0.4,0.3,0.3,0.9,0.9,0.7c0-0.7-1-0.5-0.7-1.2
							c0.7,0.1,0.9,0.5,1-0.2c0.3,0.2,0.3,0.4,0.2,0.6c0.1-0.6,0.8-1,0.6-1.6c0.8,0.1,1.1-1.2,1.8-0.4c-0.1-0.3,0-1.2,0.3-1.5
							c0.3,1.5,1.3-1.1,2,0.1c-0.4-1.2,1.2-1.8,1.5-3c0,0.1,0.1,0.3,0,0.3c0.5-0.3,0.9-0.2,1.3-0.3c-0.6-0.7-0.1-1.5-0.2-2.3
							c1.2,0.2,0.5,1.1,1.2,1.6c-0.6-0.5,0.4-1.4-0.3-1.7c0.8,0,0.5-0.1,1.3,0.2c-0.8-0.9,0.2-0.5,0-1.4c1-0.1,0.9,0.7,1.3-0.2
							C35.8,168.7,35.5,169.6,35.5,169.6z M48.8,153.4C48.8,153.4,48.8,153.4,48.8,153.4c-0.1,0.1-0.2,0.3-0.3,0.3
							C48.6,153.6,48.7,153.5,48.8,153.4z M50,152.1c-0.2,0.1-0.4,0.3-0.5,0.5c-0.2-0.1-0.3-0.3-0.2-0.5
							C49.3,152.4,49.7,152.2,50,152.1z M44,151.5c0.1-0.3,0.3-0.2,0.4-0.2c-0.1,0.1-0.2,0.2-0.3,0.4c0,0,0,0.1,0,0.1
							C44.1,151.7,44,151.6,44,151.5z"/>
						<path fill="#D84642" d="M44.3,152.4c0,0,0,0.1,0,0.1c0.1,0,0.2,0,0.2,0c0-0.1-0.1-0.2-0.1-0.2
							C44.4,152.4,44.4,152.4,44.3,152.4z"/>
						<path fill="#D84642" d="M149.1,34.3L149.1,34.3C149.1,34.3,149.2,34.3,149.1,34.3C149.2,34.3,149.2,34.3,149.1,34.3z"/>
						<polygon fill="#D84642" points="67.4,135.3 67.2,135.2 67.3,135.4 						"/>
						<path fill="#D84642" d="M157.4,28.9c0.1,0,0.1,0,0.2,0C157.6,28.9,157.5,28.9,157.4,28.9z"/>
						<path fill="#D84642" d="M160.3,26l0.6-0.3C160.6,25.8,160.5,25.9,160.3,26z"/>
						<path fill="#D84642" d="M162.8,23.9c-0.1-0.1-0.1-0.2-0.2-0.2l0,0L162.8,23.9z"/>
						<path fill="#D84642" d="M129.5,62c0,0,0,0.1-0.1,0.1C129.3,62.4,129.4,62.2,129.5,62z"/>
						<path fill="#D84642" d="M138.2,49.6c0,0.2,0,0.4-0.1,0.6C138.3,50,138.5,49.8,138.2,49.6z"/>
						<path fill="#D84642" d="M119.2,75.3C119.2,75.3,119.2,75.3,119.2,75.3L119.2,75.3L119.2,75.3z"/>
						<path fill="#D84642" d="M137.6,50.6c0.3-0.1,0.4-0.3,0.5-0.5C137.9,50.3,137.7,50.4,137.6,50.6z"/>
						<path fill="#D84642" d="M172.7,14.3l0.1-0.1c0,0-0.1-0.1-0.1-0.1L172.7,14.3z"/>
						<path fill="#D84642" d="M172.7,14.1l0.1-0.2C172.7,14,172.7,14,172.7,14.1z"/>
						<path fill="#D84642" d="M172.9,13.6l-0.1,0.4C172.9,13.8,173,13.8,172.9,13.6z"/>
						<path fill="#D84642" d="M169.5,17l0.1,0.2C169.6,17.2,169.5,17.1,169.5,17z"/>
						<path fill="#D84642" d="M168.6,18c0.3-0.2,0.9-0.2,1.1-0.6l-0.1-0.2C169.7,17.7,168.5,17.5,168.6,18z"/>
						<path fill="#D84642" d="M162.7,19.7l0.9-0.6c-0.3-0.1-0.8-0.1-0.5-0.5C161.6,18.9,163.7,18.7,162.7,19.7z"/>
						<path fill="#D84642" d="M160.1,21.8c0.3-0.5-0.3-0.3-0.4-0.4C159.6,21.9,159.6,22,160.1,21.8z"/>
						<path fill="#D84642" d="M143.6,39.5l-0.4-0.5C143,39.4,143.4,39.2,143.6,39.5z"/>
						<polygon fill="#D84642" points="143,45.1 143.5,45 143.3,44.5 						"/>
						<polygon fill="#D84642" points="137.8,44.2 137.9,43.9 137.6,44.7 						"/>
						<path fill="#D84642" d="M111.6,75l0.7,0.4C112.3,75.1,111.7,74.5,111.6,75z"/>
						<path fill="#D84642" d="M100.9,88.9c-0.4-0.1-0.9,0.1-0.8,0.6C100.4,89.2,100.9,89.1,100.9,88.9z"/>
						<polygon fill="#D84642" points="65.9,127.7 65.9,127.3 65.7,127.9 						"/>
					</g>
				</g>
			</g>
		</g>
	</g>
</g>
</svg>
