<?xml version="1.0" encoding="utf-8"?>
<!-- Generator: Adobe Illustrator 18.1.1, SVG Export Plug-In . SVG Version: 6.00 Build 0)  -->
<svg version="1.1" id="Layer_1" xmlns="http://www.w3.org/2000/svg" xmlns:xlink="http://www.w3.org/1999/xlink" x="0px" y="0px"
	 width="1000px" height="311.5px" viewBox="200 145.5 1000 311.5" enable-background="new 200 145.5 1000 311.5"
	 xml:space="preserve">
<g id="Ebene_1">
	<g id="Layer_3" display="none">
	</g>
	<g>
		<g>
			<path fill="#069475" d="M518.8,172.8c-2.3-4.6-1.4-12.7-17.5-16.8c-20.1-5-31.6,13.2-31.2,24.4c0.4,12.1,9.7,21.3,24.1,23.8
				C511.7,207.2,524,185,518.8,172.8z"/>
		</g>
		<path fill="#FFFFFF" d="M507.5,169.7c-1.2-1.1-2.2-2.2-3.1-0.9c-4,5.7-7,11.2-10.5,16.6c-2.9-1.6-5.5-3.3-8.4-5.2
			c-1.3-0.9-2-0.9-3.5,2.2c-0.8,1.6-0.6,1.5,1,2.6c2.6,1.8,6.4,4.1,9,6c0.6,0.5,1.6,1.3,2.3,1.3c0.8,0,1.2-0.8,1.8-1.5
			c4.7-5.8,8.3-11.9,12.6-18.2C509.7,171.3,508.7,170.7,507.5,169.7z"/>
	</g>
	<g>
		<g>
			<path fill="#F3282E" d="M598.8,172.8c-2.3-4.6-1.4-12.7-17.5-16.8c-20.1-5-31.6,13.2-31.3,24.4c0.4,12.1,9.7,21.3,24.1,23.8
				C591.7,207.2,604,185,598.8,172.8z"/>
		</g>
		<path fill="#FFFFFF" d="M566.6,194c2.5-3.7,5.3-7.2,8.2-10.6c2.5,3,5.8,6.9,8.4,9.9c0.8,0.9,5.1-1.9,4.3-2.8
			c-2.8-3.3-6.4-7.6-9.2-10.9c3.2-3.5,6.5-6.8,10-10c1-0.9-2.9-4.3-3.8-3.4c-3.3,3.1-6.5,6.3-9.5,9.6c-2.5-2.8-6.1-6.6-8.7-9.2
			c-1.2-1.2-4.6,2.6-3.4,3.8c2.7,2.7,6.3,6.4,8.7,9.3c-3.1,3.5-6,7.2-8.7,11.1C561.8,192,565.6,195.4,566.6,194z"/>
	</g>
</g>
<g>
	<g>
		<g>
			<rect x="355.2" y="152" fill="#80BBD5" width="29.6" height="29.8"/>
			<path fill="#FFFFFF" d="M383.2,153.6v26.5h-26.4v-26.5H383.2 M386.4,150.4h-32.9v33h32.9V150.4L386.4,150.4z"/>
		</g>
	</g>
	<rect x="368.5" y="164.5" fill="#FFFFFF" width="3" height="11.6"/>
	<rect x="367.9" y="164.5" fill="#FFFFFF" width="4.3" height="0.8"/>
	<rect x="367.9" y="175.3" fill="#FFFFFF" width="4.3" height="0.8"/>
	<circle fill="#FFFFFF" cx="370" cy="160.6" r="1.5"/>
</g>
<g>
	<path fill="none" stroke="#FFFFFF" stroke-width="2.5" d="M422.4,166.7c5.3-7.5,21.2-7.5,21.2,7.6"/>
	<polygon fill="#FFFFFF" stroke="#FFFFFF" stroke-width="1.6009" stroke-linejoin="round" points="428.2,168.4 418.8,167.6 
		422.8,159.5 	"/>
</g>
<g>
	<g>
		<g>
			
				<rect x="412.1" y="199.4" transform="matrix(0.9861 -0.1664 0.1664 0.9861 -29.0699 73.7995)" fill="#99C9DD" width="27.5" height="21.9"/>
			<path fill="#E6F1F7" d="M436.4,199.1l3.1,18.6l-24.1,4.1l-3.1-18.6L436.4,199.1 M438.9,195.5l-30.1,5.1l4.2,24.7l30.1-5.1
				L438.9,195.5L438.9,195.5z"/>
		</g>
	</g>
	<circle fill="#E6F1F7" cx="425.9" cy="210.4" r="5.6"/>
	<g>
		<g>
			<rect x="424.2" y="210" fill="#80BBD5" width="27.5" height="21.9"/>
			<path fill="#FFFFFF" d="M450.1,211.6v18.8h-24.4v-18.8H450.1 M453.2,208.5h-30.6v25h30.6V208.5L453.2,208.5z"/>
		</g>
	</g>
	<circle fill="#FFFFFF" cx="437.4" cy="221" r="5.6"/>
</g>
<g>
	<g>
		<rect x="679.5" y="163.8" fill="#80BBD5" stroke="#FFFFFF" stroke-width="2.5" width="6.8" height="10.7"/>
		<polygon fill="#80BBD5" stroke="#FFFFFF" stroke-width="2.5" stroke-linejoin="round" points="696.7,181.2 686.3,174.5 
			686.3,163.8 696.7,157.1 		"/>
	</g>
	<path fill="none" stroke="#FFFFFF" stroke-width="2.5009" d="M704.8,157.7c6.3,6.3,6.3,16.6,0,22.9"/>
	<path fill="none" stroke="#FFFFFF" stroke-width="2.5" d="M701.6,161.6c4.2,4.2,4.2,10.9,0,15.1"/>
</g>
<g>
	<g>
		<g>
			<path fill="#EF503A" d="M325.9,160.1c-4.5-5.9-9.5-10.2-20.8-11c-8.8-0.6-14.4,2.3-22.9,2.3c-7.7,0-31.5-2.7-31.5-2.7
				s-16.2-3.5-29-1.1c-12.2,2.3-14.9,9.7-17.3,15.3c-2.3,5.5-3.1,11.3-1.8,17.2c1.1,5.1,4.9,11.4,9,16.9c7.1,9.6,4,20.2,10.4,28.4
				c3,3.9,4.9,6.4,10.2,8.9c5.5,2.6,14.1,3.6,29-1.4c15.5-5.2,15.8-6.7,24.8-13.2c8.4-6,11.5-8,21.6-11.8c8.9-3.3,14-6.3,18.7-15
				C330.6,185.2,331.8,168,325.9,160.1z"/>
		</g>
	</g>
	<g>
		<g>
			<path fill="#FFFFFF" d="M270.6,215.1c-0.7-0.4-1.5-0.1-1.9,0.5c-2.8,5-11.3,7.2-17,4.4c-0.2-0.1-0.4-0.2-0.7-0.4
				c0.6-1,1.2-2.2,1.8-3.7c1-2.5,2-6.6,1.5-10.6c-0.6-4.9-3-8.6-7-10.7c-2.3-1.2-4.9-1.3-7.2-0.8c-1.1-2.9-3.1-6.8-7.1-7.5
				c-2.3-0.4-5.3,0.4-6.4,2.6c-0.4,0.7-0.1,1.5,0.6,1.9c0.7,0.4,1.5,0.1,1.9-0.6c0.5-0.9,2.1-1.3,3.4-1.1c2,0.3,3.5,2.1,4.9,5.6
				c-1.1,0.5-2.2,1.1-3,1.8c-2.7,2.1-4,4.9-3.3,7.5c0.7,2.9,2.3,3.6,3.3,3.8c1.7,0.3,3.6-0.6,4.9-2.4c1.8-2.6,2.4-5.5,1.7-8.8
				c1.7-0.3,3.5-0.2,5.1,0.6c3.2,1.6,5.1,4.5,5.5,8.5c0.4,3.5-0.4,7.1-1.3,9.2c-0.5,1.3-1,2.3-1.5,3.2c-0.5-0.4-0.9-0.7-1.4-1.1
				c-0.9-0.7-1.9-1.5-2.9-2.2c-1.2-0.8-3.7-1.8-5.8-1.1c-1.1,0.4-1.9,1.2-2.3,2.3c-0.2,0.7,0.1,1.5,0.9,1.8c0.7,0.2,1.5-0.2,1.8-0.9
				c0.1-0.3,0.3-0.5,0.6-0.6c0.9-0.3,2.4,0.1,3.3,0.7c0.9,0.6,1.8,1.3,2.7,2.1c0.5,0.4,1,0.8,1.5,1.2c-1.1,1.1-2.2,1.7-3.6,2.4
				c-2.3,1.2-5.2,1.2-7.3,0c-3.4-1.9-5.5-5-5.6-8.3c0-0.8-0.7-1.4-1.5-1.3c-0.8,0-1.4,0.7-1.3,1.5c0.2,4.3,2.8,8.3,7.1,10.6
				c1.5,0.8,3.2,1.2,5,1.2c1.7,0,3.4-0.4,5-1.2c1.6-0.8,3.1-1.6,4.6-3.3c0.4,0.2,0.7,0.4,1.1,0.6c2.1,1,4.5,1.5,6.9,1.5
				c5.6,0,11.3-2.6,13.8-7C271.5,216.4,271.2,215.5,270.6,215.1z M236.8,203.8c-0.7,1-1.5,1.4-2,1.3c-0.5-0.1-0.9-0.7-1.1-1.6
				c-0.5-2.2,1.5-4,2.3-4.7c0.6-0.5,1.3-0.9,2.1-1.3C238.6,199.8,238.1,201.9,236.8,203.8z"/>
			<path fill="#FFFFFF" d="M318.6,166.1c-0.4-0.7-1.2-1-1.9-0.6c-3.5,1.8-7.3,3.3-11.1,4.7l0.4-2.2c0.1-0.7,0.2-1.2,0.3-1.6
				c0.1-0.8-0.4-1.5-1.1-1.7c-0.8-0.1-1.5,0.4-1.7,1.1l-0.1,0.5c-0.2,0.8-0.5,2.6-1.1,5.1c-2.1,0.7-3.7,1.1-4.8,1.3
				c0.4-0.4,0.5-0.9,0.3-1.5c-0.3-0.7-1.1-1.1-1.8-0.9c-1.4,0.5-2.3,2.2-2.5,3.2c-0.1,0.3,0,0.6,0.1,0.9c0.4,0.9,1.4,1.2,2.7,1.2
				c1.5,0,3.5-0.5,5.2-1c-0.5,2.1-1,4.5-1.6,6.9c-1.5,5.9-2.7,9.9-3.7,12.5c-0.6-0.9-1.4-1.5-2-1.9c-0.3-0.2-0.6-0.4-0.8-0.6
				c-1.3-1.2-1.7-1.7-1.7-1.8c0-0.1,0.1-0.5,0.3-0.8c0.2-0.4,0.4-0.9,0.6-1.6c0.2-0.7-0.2-1.5-0.9-1.7c-0.7-0.2-1.5,0.1-1.8,0.8
				c-0.1,0.1-4.6,11.9-6.7,14.9c-1.4,2.1-4.1,4.1-5.7,3.8c1.7-2.4,3-4.8,3.4-5.7c1.9-3.7,1.1-5.8,0.5-6.7c-0.7-1.1-2-1.6-3.4-1.5
				c-1.8,0.2-3.4,1.4-4.2,3.2c-1.5,3.5-1.1,7.9-1,8.1c0,0,0,0,0,0.1c0.2,1.1,0.5,2.1,0.8,2.8c-1.9,2.3-3.6,3.4-4.5,2.9
				c-0.9-0.4-1.3-3.4-1.2-7c0.2-1.8,0.3-3.2,0.3-3.9c0-0.8-0.5-1.4-1.3-1.5c-0.7-0.1-1.4,0.5-1.5,1.2c-0.1,0.9-0.3,2.3-0.3,4
				c-0.6,4.8-1.8,10.1-3.5,11.1c-0.2,0.1-0.4,0.2-0.9,0c-0.8-0.8-1.1-6.2-0.5-11.5c0.1-0.8-0.5-1.5-1.2-1.6
				c-0.8-0.1-1.5,0.5-1.6,1.2c0,0.1-0.3,3.1-0.3,6.2c0,4.9,0.7,7.4,2.4,8.2c0.6,0.3,1.2,0.4,1.7,0.4c0.6,0,1.3-0.2,1.9-0.5
				c1.5-0.9,2.6-2.9,3.3-5.3c0.4,0.7,0.9,1.2,1.5,1.5c2.6,1.3,5.4-0.6,7.7-3.3c0.4,0.2,0.8,0.4,1.1,0.4c3.4,0.7,7.1-2.7,8.7-5
				c1.3-1.9,3.3-6.6,4.9-10.3c0.3,0.3,0.7,0.7,1.1,1.1c0.3,0.3,0.7,0.6,1,0.8c1,0.7,1.7,1.3,1.9,2.6c0.1,0.6,0,1.1-0.3,1.6
				c-0.1,0.2-0.3,0.3-0.4,0.4c0,0,0,0,0,0c0,0,0,0-0.1,0.1c-0.6,0.5-1.5,0.7-1.8,0.6c-0.5-0.4-1.3-0.4-1.8,0.1
				c-0.6,0.5-0.6,1.4-0.1,2c0.9,1.1,2.8,0.9,4.2,0.3c1.2-0.5,2.1-1.3,2.6-2.4c1.2-1.9,2.4-5,3.5-8.6c0.3,1.4,0.7,2.5,1.4,3.4
				c0.9,1.3,2.2,2.1,3.8,2.2c1.7,0.2,3.5-0.5,5.2-1.9c2.8-2.5,4.7-6.7,4.8-11c0-0.8-0.6-1.4-1.4-1.4c0,0,0,0,0,0
				c-0.8,0-1.4,0.6-1.4,1.4c-0.1,3.5-1.6,7-3.8,9c-1,0.9-2.1,1.3-3,1.2c-0.7-0.1-1.3-0.4-1.8-1c-2.1-2.9-0.9-10.4-0.3-13
				c0,0,0,0,0,0l1.2-6.3c4.3-1.6,8.8-3.3,13-5.4C318.7,167.7,319,166.8,318.6,166.1z M276,202.5c0-0.1-0.1-0.3-0.1-0.4
				c0-0.4-0.3-4,0.8-6.6c0.5-1.1,1.3-1.5,1.8-1.5c0.2,0,0.6,0,0.8,0.3c0.4,0.5,0.4,1.8-0.7,3.9C278.6,198.1,277.6,200.2,276,202.5z"
				/>
		</g>
		<g>
			<g>
				<path fill="#FFFFFF" d="M216.3,159.1c-0.2,1.4-1.1,13.9-1.2,15.1c0,0.7,0.2,2.2,0.6,2.7c1.2,1.5,4.9-0.4,6.3-1.6
					c1-0.8,1.5-1.8,2-2.9c1-1.9,1.6-4.3,1.6-6.6c0-2.2-0.5-4.2-2.1-6C222.3,158.6,216.8,155.7,216.3,159.1z M222.2,169.5
					c-0.3,1.2-0.9,2.2-1.7,3c-0.2,0.2-0.4,0.4-0.6,0.6c-0.4,0.3-1.3,1.2-1.7,0.8c-0.3-0.3-0.1-2.7,0-3.2c0.2-2.3,0.6-8.8,1.2-9.7
					c0.8-1.1,2.6,2.3,2.9,3.5C222.8,166.2,222.7,167.8,222.2,169.5z"/>
			</g>
			<g>
				<path fill="#FFFFFF" d="M231.5,158.5c-0.4-0.3-1.3-0.4-1.9-0.1c-0.8,0.3-1.1,1.7-1.1,3.1c0,2.4-0.3,11.3-0.5,13.3
					c-0.1,0.8-0.3,1.8-0.1,2.7c0.1,0.7,1.6,1,2.2,0.7c0.6-0.3,0.8-1.5,0.8-2.1c0.2-1.7,0.5-8.9,0.7-11.4
					C231.6,164.7,232.4,159,231.5,158.5z"/>
			</g>
			<g>
				<path fill="#FFFFFF" d="M258.8,160.7c-1.4,0.3-1,2.4-0.9,3.4c0.1,2-0.2,7.1-0.3,7.7c0,0.7-0.3,0.8-0.6,0.2
					c-0.3-0.5-1.8-4.1-2.3-5.4c-0.5-1-1.9-4-2.1-4.6c-0.2-0.4-0.5-1-0.8-1.4c-0.4-0.4-1.2-0.5-1.8-0.2c-0.1,0-0.1,0.1-0.2,0.1
					c-0.3,0.3-0.3,0.7-0.4,1.1c-0.1,0.9-0.1,13.5-0.1,15c0,0.8-0.2,1.6,0,2.5c0.2,1,1.1,1.2,1.9,1.1c0.6-0.1,0.6-0.4,0.7-1
					c0.4-2-0.2-11,0.2-11.2c0.4-0.2,5.1,11.6,5.4,12c0.2,0.3,0.5,0.4,0.9,0.5c0.6,0.1,1.4,0.2,1.5-0.5c0.2-1.9-0.1-3.7,0.1-5.6
					c0-0.4,0.4-8.8,0.5-9.9c0-1,0.2-2.6,0-3.1C260.3,161.1,259.3,160.6,258.8,160.7z"/>
			</g>
			<g>
				<path fill="#FFFFFF" d="M243.3,160c-0.2,0.8-0.1,6.1-0.1,6.1s0.1,4.3-0.5,4.6c-0.3,0.1-0.9-1-0.9-1c-0.6-1-0.7-1.3-1.1-2.1
					c-0.4-0.8-1.7-4.1-2.1-4.9c-0.2-0.4-1.3-3.8-2.5-3.3c-0.4,0.2-0.6,0.6-0.8,1.1c-0.3,1.1-0.3,2.7-0.4,3.4c-0.1,1.4,0,2.9-0.1,4.3
					c-0.1,1.5-0.3,8.1-0.3,8.8c0,0.6,0,1.5,0.6,1.6c0.3,0.1,0.9,0,1.2,0c0.8,0,0.8-1.6,0.8-1.6s0.1-5.3,0.1-5.8
					c0-0.4-0.1-2.1,0.1-2.6c0.1-0.2,0.3-0.5,0.5-0.2c0.2,0.2,0.3,0.5,0.4,0.7c0.1,0.3,4.8,9.5,5.1,9.7c0.6,0.6,1.8,0.6,1.9-0.3
					c0.2-1.4,0.1-3.4,0.3-5.2c0-0.4,0.7-10.8,0.2-12.9C245.6,158.7,243.6,158.9,243.3,160z"/>
			</g>
			<g>
				<path fill="#FFFFFF" d="M267.1,164.1c0.6,0,1.5,0.2,2,0.2c0,0,2.5,0.2,3.1,0c0.5-0.2,0.5-1,0.5-1.5c0-0.4-0.1-0.8-0.3-1.1
					c-0.4-0.5-2.8-0.6-3.4-0.7c-1.2-0.1-3.7-0.3-3.7-0.3c-0.5-0.1-1.2-0.1-1.6,0.2c-0.5,0.4-0.4,1.5-0.4,2.1c0,0.9,0,6.5-0.1,8.3
					c-0.1,1.7,0.2,7.4,0.2,7.9c0,0.5-0.1,0.6,0.2,1c0.3,0.3,8.2,0.6,8.7,0.2c0.5-0.4,0.3-1.3,0.2-1.9c-0.1-0.9-1.4-0.6-2.1-0.6
					c-1.1,0-3.1,0.3-3.9-0.6c-0.4-0.4-0.3-0.9-0.3-1.4c0-0.6-0.2-3.1,0.3-3.6c0.4-0.5,1.6-0.4,2.3-0.4c0.5,0,2.3,0.4,2.7-0.1
					c0.2-0.3,0.3-1.6-0.2-1.9c-0.4-0.2-2.7-0.4-3.3-0.4c-0.8-0.1-1.7-0.2-1.7-1.2C266.3,168,265.9,164,267.1,164.1z"/>
			</g>
			<g>
				<path fill="#FFFFFF" d="M282.7,173.6c-0.4-0.7-0.3-0.8,0.2-1.4c0.4-0.4,0.7-0.8,1-1.2c2.6-4.2,0.5-7.4-0.8-8.5
					c-1.3-1.1-3.1-1-3.1-1s-2.7-0.1-3.8,0.9c-0.8,0.7-0.9,2.4-0.9,3.5c0,1.6,0.2,14.4,0.4,14.7c0.3,0.5,2.7,0.4,3,0.1
					c0.3-0.4,0.2-2,0.2-2s-0.1-2.1-0.1-3.2c0-0.4-0.1-1.1,0.2-1.3c1-0.6,4,6.1,4,6.1c0.4,1.1,2.8,1.4,3.2,0.5
					C286.6,179.7,283.1,174.3,282.7,173.6z M280.3,170.4c-1.7,1.2-2.1-0.5-2.2-2c-0.1-0.9-0.1-1.6,0-2.5c0-1,0.4-1.7,1.1-1.8
					c0.2,0,1.4-0.2,2.5,1.2C283,167,281.9,169.2,280.3,170.4z"/>
			</g>
		</g>
	</g>
</g>
<g>
	<rect x="610.4" y="246.3" fill="#2C4077" width="125.3" height="39.7"/>
	<polyline fill="#161F3B" points="740,290.4 614.8,290.4 610.5,286 735.8,286 	"/>
	<g>
		<g enable-background="new    ">
			<path fill="#FFFFFF" d="M659.9,269c0-0.3,0.1-0.5,0.2-0.6c0.1-0.1,0.3-0.2,0.5-0.2c0.3,0,0.6,0.3,0.9,0.8
				c0.1,0.2,0.2,0.3,0.2,0.4c0.4,0.7,0.8,1.1,1.3,1.4c0.5,0.3,1,0.5,1.6,0.4c0.7,0,1.2-0.2,1.7-0.6c0.5-0.4,0.7-0.9,0.7-1.4
				c0-0.8-0.9-1.6-2.7-2.4c-0.1-0.1-0.2-0.1-0.3-0.1c-1.5-0.6-2.4-1.2-2.9-1.8c-0.5-0.5-0.7-1.2-0.7-2.1c0-1.1,0.4-2,1.2-2.7
				c0.8-0.7,1.8-1,3.1-1c0.3,0,0.7,0,1.1,0.1c0.4,0.1,0.8,0.2,1.2,0.3c0.1-0.1,0.3-0.2,0.4-0.2c0.1,0,0.2-0.1,0.3-0.1
				c0.1,0,0.3,0,0.4,0.1c0.1,0.1,0.2,0.2,0.4,0.5c0.2,0.4,0.4,0.7,0.5,1.1c0.1,0.4,0.2,0.7,0.2,1c0,0.2,0,0.4-0.1,0.5
				s-0.2,0.2-0.4,0.2c-0.3,0-0.6-0.2-0.9-0.6c-0.1-0.1-0.1-0.1-0.1-0.2c-0.3-0.4-0.7-0.8-1.1-1c-0.4-0.2-0.8-0.3-1.3-0.3
				c-0.7,0-1.2,0.2-1.6,0.5c-0.4,0.3-0.6,0.7-0.6,1.3c0,0.5,0.2,0.9,0.5,1.2c0.3,0.3,1.1,0.8,2.4,1.3c0.1,0,0.2,0.1,0.4,0.2
				c1.1,0.4,1.8,0.9,2.3,1.3c0.3,0.3,0.6,0.6,0.7,1.1c0.2,0.4,0.3,0.9,0.3,1.3c0,1.2-0.4,2.2-1.3,2.9c-0.9,0.7-2,1-3.6,1
				c-0.7,0-1.4-0.1-2.1-0.2c-0.7-0.1-1.2-0.3-1.6-0.6c-0.2-0.1-0.4-0.5-0.6-1C659.9,270.3,659.9,269.7,659.9,269z"/>
			<path fill="#FFFFFF" d="M670.3,271.7c0-0.2,0.2-0.4,0.6-0.6c0.2-0.1,0.3-0.1,0.4-0.2c0.1-0.1,0.2-0.5,0.3-1.3
				c0.1-0.8,0.1-2,0.1-3.8c0-1.3,0-2.4-0.1-3.3c-0.1-0.9-0.1-1.4-0.2-1.5c-0.1-0.1-0.2-0.2-0.6-0.3c-0.3-0.1-0.5-0.3-0.5-0.6
				c0-0.2,0.1-0.4,0.4-0.5c0.3-0.1,0.9-0.1,2-0.1c1,0,1.7,0,2,0.1c0.3,0.1,0.4,0.3,0.4,0.5c0,0.2-0.2,0.4-0.5,0.6
				c-0.2,0.1-0.3,0.1-0.4,0.2c-0.1,0.1-0.2,0.3-0.2,0.7c0,0.4-0.1,1.2-0.1,2.6c0,0.2,0.1,0.4,0.3,0.5c0.2,0.1,0.8,0.1,1.6,0.1l0.8,0
				c0.9,0,1.5,0,1.9-0.1c0.4,0,0.6-0.1,0.7-0.2c0,0,0.1-0.1,0.1-0.2c0-0.1,0-0.2,0-0.4l0-0.4c0-1.2,0-1.9-0.1-2.2
				c0-0.3-0.1-0.5-0.2-0.6c-0.1-0.1-0.2-0.1-0.4-0.2c-0.4-0.1-0.6-0.3-0.6-0.6c0-0.2,0.1-0.4,0.4-0.5c0.3-0.1,0.9-0.1,2-0.1
				c1.1,0,1.8,0,2,0.1c0.3,0.1,0.4,0.2,0.4,0.5c0,0.2-0.2,0.4-0.6,0.6c-0.2,0.1-0.3,0.1-0.4,0.2c-0.1,0.1-0.2,0.5-0.3,1.4
				c-0.1,0.8-0.1,2-0.1,3.6c0,1.4,0,2.6,0.1,3.5c0.1,0.9,0.1,1.4,0.2,1.5c0.1,0.1,0.2,0.2,0.6,0.3c0.3,0.1,0.5,0.3,0.5,0.5
				c0,0.3-0.2,0.4-0.5,0.6c-0.3,0.1-1,0.2-1.9,0.2c-1,0-1.6,0-1.9-0.1c-0.3-0.1-0.5-0.3-0.5-0.6c0-0.2,0.2-0.4,0.6-0.6
				c0.2-0.1,0.3-0.1,0.4-0.2c0.1-0.1,0.2-0.3,0.2-0.7c0-0.4,0.1-1.1,0.1-2.1c0-0.6,0-1.1,0-1.3c0-0.2,0-0.3-0.1-0.4
				c-0.1-0.1-0.2-0.2-0.5-0.2c-0.3,0-1-0.1-2.1-0.1c-1,0-1.6,0-1.9,0.1c-0.3,0-0.5,0.1-0.6,0.2c0,0-0.1,0.1-0.1,0.3
				c0,0.1,0,0.4,0,0.7l0,0.7c0,1,0,1.7,0.1,2.1c0,0.4,0.1,0.6,0.2,0.7c0.1,0.1,0.2,0.1,0.4,0.2c0.4,0.1,0.6,0.3,0.6,0.6
				c0,0.3-0.2,0.4-0.5,0.6c-0.3,0.1-1,0.2-1.9,0.2c-0.9,0-1.6,0-1.9-0.1C670.5,272.1,670.3,271.9,670.3,271.7z"/>
			<path fill="#FFFFFF" d="M683.3,271.6c0-0.2,0.2-0.4,0.5-0.6c0.2-0.1,0.3-0.1,0.3-0.2c0.5-0.3,0.9-0.9,1.3-2
				c0.1-0.2,0.2-0.4,0.2-0.5l1.3-3.3c0.1-0.2,0.2-0.4,0.3-0.8c0.9-2.1,1.4-3.7,1.6-4.6c0.1-0.3,0.1-0.5,0.3-0.5
				c0.1-0.1,0.4-0.1,0.7-0.1c0.2,0,0.4,0,0.5,0.1c0.1,0.1,0.3,0.2,0.4,0.5c0.3,0.7,0.8,1.7,1.4,3c0.6,1.3,1.2,2.7,1.8,4.3
				c0.1,0.3,0.2,0.6,0.4,1.1c0.7,1.7,1.2,2.7,1.6,2.9c0.1,0,0.2,0.1,0.3,0.1c0.4,0.1,0.6,0.3,0.6,0.5c0,0.3-0.2,0.5-0.5,0.6
				c-0.4,0.1-1.1,0.2-2.1,0.2c-1.1,0-1.8,0-2.1-0.1c-0.4-0.1-0.5-0.3-0.5-0.6c0-0.2,0.2-0.4,0.6-0.6c0.1,0,0.1,0,0.1-0.1
				c0.2-0.1,0.3-0.1,0.3-0.2c0.1-0.1,0.1-0.2,0.1-0.3c0-0.2,0-0.4-0.1-0.8c-0.1-0.3-0.2-0.7-0.3-0.9c-0.1-0.1-0.1-0.2-0.2-0.3
				c0,0-0.1-0.1-0.1-0.1c-0.1,0-0.4-0.1-0.7-0.1c-0.4,0-0.8,0-1.4,0l-0.4,0c-0.9,0-1.5,0-1.8,0.1c-0.3,0-0.5,0.1-0.6,0.2
				c-0.1,0.2-0.3,0.4-0.4,0.8c-0.1,0.3-0.2,0.6-0.2,0.9c0,0.2,0,0.3,0.1,0.5c0.1,0.1,0.2,0.2,0.4,0.3c0.1,0,0.2,0.1,0.3,0.1
				c0.4,0.1,0.6,0.3,0.6,0.5c0,0.3-0.2,0.5-0.5,0.6c-0.3,0.1-0.9,0.2-1.8,0.2c-0.9,0-1.5,0-1.8-0.1
				C683.4,272.1,683.3,271.9,683.3,271.6z M687.5,267c0.3,0,0.7,0,1-0.1c0.3,0,0.7,0,1,0c0.3,0,0.6,0,1,0c0.3,0,0.6,0,0.9,0
				c-0.3-0.9-0.6-1.7-0.9-2.5c-0.3-0.8-0.6-1.5-0.9-2.1l-0.2,0c-0.3,0.7-0.6,1.5-0.9,2.2C688.1,265.4,687.8,266.2,687.5,267z"/>
			<path fill="#FFFFFF" d="M697,271.6c0-0.2,0.2-0.4,0.6-0.6c0.2-0.1,0.3-0.1,0.4-0.2c0.1-0.1,0.2-0.5,0.3-1.2
				c0.1-0.7,0.1-2,0.1-3.9c0-1.4,0-2.5-0.1-3.4c-0.1-0.9-0.1-1.4-0.2-1.5c-0.1-0.1-0.3-0.2-0.6-0.3c-0.3-0.1-0.5-0.3-0.5-0.5
				c0-0.2,0.1-0.4,0.3-0.5c0.2-0.1,0.5-0.2,0.8-0.2l2,0c0.5,0,1.1,0,1.8,0c0.7,0,1.2,0,1.5,0c1.3,0,2.3,0.3,3,0.8
				c0.7,0.6,1,1.4,1,2.4c0,0.8-0.2,1.5-0.7,2c-0.5,0.6-1.1,1-1.9,1.2v0.1c0.6,0.1,1.1,0.4,1.5,0.8c0.4,0.4,0.7,1.1,1,2
				c0.1,0.2,0.1,0.5,0.2,0.9c0.2,0.9,0.5,1.4,0.9,1.4c0,0,0.1,0,0.3,0c0.1,0,0.2,0,0.3,0c0.1,0,0.2,0,0.3,0.1s0.1,0.2,0.1,0.3
				c0,0.3-0.2,0.5-0.5,0.7c-0.3,0.2-0.8,0.3-1.3,0.3c-1.2,0-2-1-2.6-3l0.1,0.2c-0.4-1.4-0.9-2.4-1.3-2.7c-0.4-0.4-1.1-0.6-1.9-0.6
				l-0.8,0c-0.1,0-0.2,0-0.3,0.1c0,0.1-0.1,0.3-0.1,0.6l0,0.4c0,1.4,0,2.3,0.1,2.7c0,0.4,0.1,0.7,0.2,0.8c0.1,0.1,0.2,0.1,0.4,0.2
				c0.4,0.1,0.6,0.3,0.6,0.6c0,0.3-0.2,0.4-0.5,0.5c-0.3,0.1-1,0.2-1.9,0.2c-0.9,0-1.6,0-1.9-0.1C697.1,272,697,271.9,697,271.6z
				 M700.5,265.1c0.2,0,0.5,0,0.7,0c0.2,0,0.4,0,0.6,0c1,0,1.8-0.2,2.2-0.6s0.7-1,0.7-1.8c0-0.8-0.2-1.4-0.7-1.8
				c-0.5-0.4-1.2-0.6-2.1-0.6c-0.5,0-0.8,0-1,0.1c-0.2,0.1-0.3,0.2-0.3,0.3c0,0.2-0.1,0.4-0.1,0.8c0,0.4,0,1,0,1.8l0,1.1
				L700.5,265.1z"/>
			<path fill="#FFFFFF" d="M709.8,271.6c0-0.3,0.2-0.5,0.6-0.6c0.2-0.1,0.3-0.1,0.4-0.2c0.1-0.1,0.2-0.5,0.3-1.3s0.1-2,0.1-3.8
				c0-1.3,0-2.4-0.1-3.3c-0.1-0.9-0.1-1.4-0.2-1.5c-0.1-0.1-0.2-0.2-0.6-0.3c-0.3-0.1-0.5-0.3-0.5-0.6c0-0.2,0.1-0.4,0.4-0.5
				c0.3-0.1,0.9-0.1,2-0.1l5.5,0c0.3,0,0.6,0,0.9-0.1c0.3-0.1,0.5-0.1,0.5-0.1c0.1,0,0.2,0,0.2,0.1c0.1,0,0.1,0.1,0.2,0.2
				c0.1,0.2,0.2,0.5,0.4,0.9c0.1,0.4,0.2,0.8,0.2,1.1c0,0.3,0,0.5-0.1,0.6c-0.1,0.1-0.2,0.2-0.4,0.2c-0.2,0-0.4-0.2-0.7-0.6
				c-0.1-0.2-0.2-0.3-0.3-0.4c-0.1-0.2-0.3-0.3-0.6-0.4c-0.3-0.1-0.6-0.1-1-0.1l-1.2,0c-0.6,0-1,0-1.3,0.1c-0.3,0.1-0.5,0.2-0.6,0.3
				c-0.1,0.1-0.2,0.4-0.2,0.8s-0.1,1-0.1,1.7l0,0.7c0,0.3,0,0.5,0.1,0.5c0,0.1,0.2,0.1,0.3,0.1l1.6,0c0.5,0,0.8-0.1,1-0.2
				c0.2-0.1,0.3-0.4,0.4-0.8c0,0,0-0.1,0-0.2c0.1-0.6,0.3-0.9,0.6-0.9c0.3,0,0.4,0.2,0.5,0.5c0.1,0.3,0.1,1.1,0.2,2.2
				c0,1.1,0,1.9-0.1,2.2c-0.1,0.3-0.3,0.5-0.5,0.5c-0.3,0-0.5-0.3-0.6-0.9c0-0.1,0-0.2,0-0.2c-0.1-0.4-0.2-0.6-0.4-0.8
				c-0.2-0.1-0.5-0.2-1-0.2l-1.6,0c-0.2,0-0.3,0.1-0.3,0.1c-0.1,0.1-0.1,0.3-0.1,0.7l0,0.8c0,0.8,0,1.4,0,1.7c0,0.4,0.1,0.6,0.2,0.8
				c0.1,0.2,0.3,0.3,0.6,0.4c0.3,0.1,0.8,0.1,1.4,0.1l1.2,0c0.6,0,1.1-0.1,1.4-0.2s0.6-0.5,0.9-0.9c0.1-0.1,0.2-0.3,0.3-0.6
				c0.2-0.4,0.4-0.7,0.6-0.7c0.1,0,0.3,0.1,0.4,0.2c0.1,0.1,0.1,0.4,0.1,0.6c0,0.3,0,0.7-0.1,1.1c-0.1,0.4-0.2,0.9-0.4,1.3
				c-0.1,0.2-0.2,0.4-0.3,0.5c-0.1,0.1-0.2,0.2-0.3,0.2c0,0-0.1,0-0.2-0.1c-0.4-0.1-0.8-0.2-1.2-0.2l-6.1,0c-0.9,0-1.4,0-1.6-0.1
				C710,272,709.8,271.8,709.8,271.6z"/>
		</g>
	</g>
	<path fill="#FFFFFF" d="M633.9,260.2h2v-3.5c-0.8,0-1.8-0.1-3.2-0.1c-4.9-0.1-4.7,4.9-4.7,4.9v2.9h-3.4v3.8h3.4v9.8h3.9v-9.8h3.3
		l0.5-3.8h-3.8v-2.5C631.9,260,633.9,260.2,633.9,260.2z"/>
	<rect x="648.7" y="246.3" fill="#1E2B50" width="1.3" height="39.7"/>
	<polygon fill="#1E2B50" points="740,290.7 735.7,286 735.7,246.3 740,251 	"/>
</g>
<g>
	<rect x="205.9" y="246.3" fill="#936844" width="186.4" height="39.7"/>
	<polygon fill="#4A3422" points="396.6,290.7 210.2,290.7 205.9,286 392.3,286 	"/>
	<polygon fill="#62452D" points="396.6,290.7 392.3,286 392.3,246.3 396.6,251 	"/>
</g>
<rect x="417.2" y="303.6" fill="#96D44F" width="182.1" height="39.7"/>
<polygon fill="#68961E" points="412.9,303.6 599.3,303.6 599.3,308.3 417.2,308.3 "/>
<polygon fill="#74AA27" points="412.9,303.6 417.2,308.3 417.2,343.4 412.9,343.4 "/>
<polygon fill="#4E7117" points="599.3,290.7 412.9,290.7 408.6,286 594.9,286 "/>
<polygon fill="#68961E" points="599.3,290.7 594.9,286 594.9,246.3 599.3,251 "/>
<rect x="408.6" y="246.3" fill="#74AA27" width="186.4" height="39.7"/>
<g>
	<rect x="214.5" y="303.6" fill="#D39363" width="182.1" height="39.7"/>
	<polygon fill="#62452D" points="210.2,303.6 214.6,308.3 214.6,343.4 210.2,343.4 	"/>
	<polygon fill="#4A3422" points="396.6,308.3 214.6,308.3 210.2,303.6 396.6,303.6 	"/>
</g>
<g>
	<rect x="614.7" y="303.6" fill="#5079D3" width="125.3" height="39.8"/>
	<g>
		<g enable-background="new    ">
			<path fill="#FFFFFF" d="M664.2,326.4c0-0.3,0.1-0.5,0.2-0.6c0.1-0.1,0.3-0.2,0.5-0.2c0.3,0,0.6,0.3,0.9,0.8
				c0.1,0.2,0.2,0.3,0.2,0.4c0.4,0.7,0.8,1.1,1.3,1.4c0.5,0.3,1,0.5,1.6,0.4c0.7,0,1.2-0.2,1.7-0.6c0.5-0.4,0.7-0.9,0.7-1.4
				c0-0.8-0.9-1.6-2.7-2.4c-0.1-0.1-0.2-0.1-0.3-0.1c-1.5-0.6-2.4-1.2-2.9-1.8c-0.5-0.5-0.7-1.2-0.7-2.1c0-1.1,0.4-2,1.2-2.7
				c0.8-0.7,1.8-1,3.1-1c0.3,0,0.7,0,1.1,0.1c0.4,0.1,0.8,0.2,1.2,0.3c0.1-0.1,0.3-0.2,0.4-0.2c0.1,0,0.2-0.1,0.3-0.1
				c0.1,0,0.3,0,0.4,0.1c0.1,0.1,0.2,0.2,0.4,0.5c0.2,0.4,0.4,0.7,0.5,1.1c0.1,0.4,0.2,0.7,0.2,1c0,0.2,0,0.4-0.1,0.5
				c-0.1,0.1-0.2,0.2-0.4,0.2c-0.3,0-0.6-0.2-0.9-0.6c-0.1-0.1-0.1-0.1-0.1-0.2c-0.3-0.4-0.7-0.8-1.1-1s-0.8-0.3-1.3-0.3
				c-0.7,0-1.2,0.2-1.6,0.5c-0.4,0.3-0.6,0.7-0.6,1.3c0,0.5,0.2,0.9,0.5,1.2c0.3,0.3,1.1,0.8,2.4,1.3c0.1,0,0.2,0.1,0.4,0.2
				c1.1,0.4,1.8,0.9,2.3,1.3c0.3,0.3,0.6,0.7,0.7,1.1c0.2,0.4,0.3,0.8,0.3,1.3c0,1.2-0.4,2.2-1.3,2.9c-0.9,0.7-2,1-3.6,1
				c-0.7,0-1.4-0.1-2.1-0.2c-0.7-0.1-1.2-0.3-1.6-0.6c-0.2-0.1-0.4-0.5-0.6-1C664.2,327.7,664.2,327.1,664.2,326.4z"/>
			<path fill="#FFFFFF" d="M674.6,329c0-0.2,0.2-0.4,0.6-0.6c0.2-0.1,0.3-0.1,0.4-0.2c0.1-0.1,0.2-0.5,0.3-1.3
				c0.1-0.8,0.1-2,0.1-3.8c0-1.3,0-2.4-0.1-3.3c-0.1-0.9-0.1-1.4-0.2-1.5c-0.1-0.1-0.2-0.2-0.6-0.3c-0.3-0.1-0.5-0.3-0.5-0.6
				c0-0.2,0.1-0.4,0.4-0.5c0.3-0.1,0.9-0.1,2-0.1c1,0,1.7,0,2,0.1c0.3,0.1,0.4,0.3,0.4,0.5c0,0.2-0.2,0.4-0.6,0.6
				c-0.2,0.1-0.3,0.1-0.4,0.2c-0.1,0.1-0.2,0.3-0.2,0.7c0,0.4-0.1,1.2-0.1,2.6c0,0.2,0.1,0.4,0.3,0.5c0.2,0.1,0.8,0.1,1.6,0.1l0.8,0
				c0.9,0,1.5,0,1.9-0.1c0.4,0,0.6-0.1,0.7-0.2c0,0,0.1-0.1,0.1-0.2c0-0.1,0-0.2,0-0.4l0-0.4c0-1.2,0-1.9-0.1-2.2
				c0-0.3-0.1-0.5-0.2-0.6c-0.1-0.1-0.2-0.1-0.4-0.2c-0.4-0.1-0.6-0.3-0.6-0.6c0-0.2,0.1-0.4,0.4-0.5c0.3-0.1,0.9-0.1,2-0.1
				c1.1,0,1.8,0,2,0.1c0.3,0.1,0.4,0.2,0.4,0.5c0,0.2-0.2,0.4-0.6,0.6c-0.2,0.1-0.3,0.1-0.4,0.2c-0.1,0.1-0.2,0.5-0.3,1.4
				c-0.1,0.8-0.1,2-0.1,3.6c0,1.4,0,2.6,0.1,3.5c0.1,0.9,0.1,1.4,0.2,1.5c0.1,0.1,0.2,0.2,0.6,0.3c0.3,0.1,0.5,0.3,0.5,0.5
				c0,0.3-0.2,0.4-0.5,0.6c-0.3,0.1-1,0.2-1.9,0.2c-1,0-1.6,0-1.9-0.1s-0.5-0.3-0.5-0.6c0-0.2,0.2-0.4,0.6-0.6
				c0.2-0.1,0.3-0.1,0.4-0.2c0.1-0.1,0.2-0.3,0.2-0.7c0-0.4,0.1-1.1,0.1-2.1c0-0.6,0-1.1,0-1.3c0-0.2,0-0.3-0.1-0.3
				c-0.1-0.1-0.2-0.2-0.5-0.2c-0.3,0-1-0.1-2.1-0.1c-1,0-1.6,0-1.9,0.1c-0.3,0-0.5,0.1-0.6,0.2c0,0-0.1,0.1-0.1,0.3
				c0,0.1,0,0.4,0,0.7l0,0.7c0,1,0,1.7,0.1,2.1c0,0.4,0.1,0.6,0.2,0.7c0.1,0.1,0.2,0.1,0.4,0.2c0.4,0.1,0.6,0.3,0.6,0.6
				c0,0.3-0.2,0.4-0.5,0.6s-1,0.2-1.9,0.2c-0.9,0-1.6,0-1.9-0.1C674.7,329.5,674.6,329.3,674.6,329z"/>
			<path fill="#FFFFFF" d="M687.5,329c0-0.2,0.2-0.4,0.5-0.6c0.2-0.1,0.3-0.1,0.3-0.2c0.5-0.3,0.9-0.9,1.3-2
				c0.1-0.2,0.2-0.4,0.2-0.5l1.3-3.3c0.1-0.2,0.2-0.5,0.3-0.8c0.9-2.1,1.4-3.7,1.6-4.6c0.1-0.3,0.1-0.5,0.3-0.5
				c0.1-0.1,0.4-0.1,0.7-0.1c0.2,0,0.4,0,0.5,0.1c0.1,0.1,0.3,0.2,0.4,0.5c0.3,0.7,0.8,1.7,1.4,3c0.6,1.3,1.2,2.7,1.8,4.3
				c0.1,0.3,0.2,0.6,0.4,1.1c0.7,1.7,1.2,2.7,1.6,2.9c0.1,0,0.2,0.1,0.3,0.1c0.4,0.1,0.6,0.3,0.6,0.5c0,0.3-0.2,0.5-0.5,0.6
				c-0.4,0.1-1.1,0.2-2.1,0.2c-1.1,0-1.8,0-2.1-0.1c-0.4-0.1-0.5-0.3-0.5-0.6c0-0.2,0.2-0.4,0.6-0.6c0.1,0,0.1,0,0.1-0.1
				c0.2-0.1,0.3-0.1,0.3-0.2c0.1-0.1,0.1-0.2,0.1-0.3c0-0.2,0-0.4-0.1-0.8c-0.1-0.3-0.2-0.7-0.3-0.9c-0.1-0.1-0.1-0.2-0.2-0.3
				c0,0-0.1-0.1-0.1-0.1c-0.1,0-0.4-0.1-0.7-0.1c-0.4,0-0.8,0-1.4,0l-0.4,0c-0.9,0-1.5,0-1.8,0.1s-0.5,0.1-0.6,0.2
				c-0.1,0.2-0.3,0.4-0.4,0.8c-0.1,0.3-0.2,0.6-0.2,0.8c0,0.2,0,0.3,0.1,0.5c0.1,0.1,0.2,0.2,0.4,0.3c0.1,0,0.2,0.1,0.3,0.1
				c0.4,0.1,0.6,0.3,0.6,0.5c0,0.3-0.2,0.5-0.5,0.6c-0.3,0.1-0.9,0.2-1.8,0.2c-0.9,0-1.5,0-1.8-0.1
				C687.7,329.4,687.5,329.2,687.5,329z M691.8,324.4c0.3,0,0.7,0,1-0.1c0.3,0,0.7,0,1,0c0.3,0,0.6,0,1,0s0.6,0,0.9,0
				c-0.3-0.9-0.6-1.7-0.9-2.5s-0.6-1.5-0.9-2.1l-0.2,0c-0.3,0.7-0.6,1.5-0.9,2.2C692.4,322.8,692.1,323.5,691.8,324.4z"/>
			<path fill="#FFFFFF" d="M701.2,328.9c0-0.2,0.2-0.4,0.6-0.6c0.2-0.1,0.3-0.1,0.4-0.2c0.1-0.1,0.2-0.5,0.3-1.2
				c0.1-0.7,0.1-2,0.1-3.9c0-1.4,0-2.5-0.1-3.4c-0.1-0.9-0.1-1.4-0.2-1.5c-0.1-0.1-0.3-0.2-0.6-0.3c-0.3-0.1-0.5-0.3-0.5-0.5
				c0-0.2,0.1-0.4,0.3-0.5c0.2-0.1,0.5-0.2,0.8-0.2l2,0c0.5,0,1.1,0,1.8,0c0.7,0,1.2,0,1.5,0c1.3,0,2.3,0.3,3,0.8
				c0.7,0.6,1,1.4,1,2.4c0,0.8-0.2,1.5-0.7,2c-0.5,0.6-1.1,1-1.9,1.2v0.1c0.6,0.1,1.2,0.4,1.5,0.8c0.4,0.4,0.7,1.1,1,2
				c0.1,0.2,0.1,0.5,0.2,0.9c0.2,0.9,0.5,1.4,0.9,1.4c0,0,0.1,0,0.3,0c0.1,0,0.2,0,0.3,0c0.1,0,0.2,0,0.3,0.1
				c0.1,0.1,0.1,0.2,0.1,0.3c0,0.3-0.2,0.5-0.5,0.7c-0.3,0.2-0.8,0.3-1.3,0.3c-1.2,0-2-1-2.6-3l0.1,0.2c-0.4-1.4-0.9-2.4-1.3-2.7
				c-0.4-0.4-1.1-0.6-1.9-0.6l-0.8,0c-0.1,0-0.2,0-0.3,0.1c0,0.1-0.1,0.3-0.1,0.6l0,0.4c0,1.4,0,2.3,0.1,2.7c0,0.4,0.1,0.7,0.2,0.8
				c0.1,0.1,0.2,0.1,0.4,0.2c0.4,0.1,0.6,0.3,0.6,0.6c0,0.3-0.2,0.4-0.5,0.5c-0.3,0.1-1,0.2-1.9,0.2c-0.9,0-1.6,0-1.9-0.1
				C701.4,329.4,701.3,329.2,701.2,328.9z M704.8,322.4c0.2,0,0.5,0,0.7,0c0.2,0,0.4,0,0.6,0c1,0,1.8-0.2,2.2-0.6
				c0.5-0.4,0.7-1,0.7-1.8c0-0.8-0.2-1.4-0.7-1.8c-0.5-0.4-1.2-0.6-2.1-0.6c-0.5,0-0.8,0-1,0.1c-0.2,0.1-0.3,0.2-0.3,0.4
				c0,0.2-0.1,0.4-0.1,0.8c0,0.4,0,1,0,1.8l0,1.1L704.8,322.4z"/>
			<path fill="#FFFFFF" d="M714.1,328.9c0-0.3,0.2-0.5,0.6-0.6c0.2-0.1,0.3-0.1,0.4-0.2c0.1-0.1,0.2-0.5,0.3-1.3
				c0.1-0.8,0.1-2,0.1-3.8c0-1.3,0-2.4-0.1-3.3c-0.1-0.9-0.1-1.4-0.2-1.5c-0.1-0.1-0.2-0.2-0.6-0.3s-0.5-0.3-0.5-0.6
				c0-0.2,0.1-0.4,0.4-0.5c0.3-0.1,0.9-0.1,2-0.1l5.5,0c0.3,0,0.6,0,0.9-0.1s0.5-0.1,0.5-0.1c0.1,0,0.2,0,0.2,0.1
				c0.1,0,0.1,0.1,0.2,0.2c0.1,0.2,0.2,0.5,0.4,0.9c0.1,0.4,0.2,0.8,0.2,1.1c0,0.3,0,0.5-0.1,0.6c-0.1,0.1-0.2,0.2-0.4,0.2
				c-0.2,0-0.4-0.2-0.7-0.6c-0.1-0.2-0.2-0.3-0.3-0.4c-0.1-0.2-0.3-0.3-0.6-0.4c-0.3-0.1-0.6-0.1-1-0.1l-1.2,0c-0.6,0-1,0-1.3,0.1
				c-0.3,0.1-0.5,0.2-0.6,0.3c-0.1,0.1-0.2,0.4-0.2,0.8c0,0.4-0.1,1-0.1,1.7l0,0.7c0,0.3,0,0.5,0.1,0.5c0,0.1,0.2,0.1,0.3,0.1l1.6,0
				c0.5,0,0.8-0.1,1-0.2c0.2-0.1,0.3-0.4,0.4-0.8c0,0,0-0.1,0-0.2c0.1-0.6,0.3-0.9,0.6-0.9c0.3,0,0.4,0.2,0.5,0.5
				c0.1,0.3,0.1,1.1,0.2,2.2c0,1.1,0,1.9-0.1,2.2c-0.1,0.3-0.3,0.5-0.5,0.5c-0.3,0-0.5-0.3-0.6-0.9c0-0.1,0-0.2,0-0.2
				c-0.1-0.4-0.2-0.6-0.4-0.8c-0.2-0.1-0.5-0.2-1-0.2l-1.6,0c-0.2,0-0.3,0.1-0.3,0.2c-0.1,0.1-0.1,0.3-0.1,0.7l0,0.8
				c0,0.8,0,1.4,0,1.7c0,0.4,0.1,0.6,0.2,0.8c0.1,0.2,0.3,0.3,0.6,0.4c0.3,0.1,0.8,0.1,1.4,0.1l1.2,0c0.6,0,1.1-0.1,1.4-0.2
				c0.3-0.2,0.6-0.5,0.9-0.9c0.1-0.1,0.2-0.3,0.3-0.6c0.2-0.4,0.4-0.7,0.6-0.7c0.1,0,0.3,0.1,0.4,0.2c0.1,0.1,0.1,0.4,0.1,0.6
				c0,0.3,0,0.7-0.1,1.1c-0.1,0.4-0.2,0.9-0.4,1.3c-0.1,0.2-0.2,0.4-0.3,0.5c-0.1,0.1-0.2,0.2-0.3,0.2c0,0-0.1,0-0.2-0.1
				c-0.4-0.1-0.8-0.2-1.2-0.2l-6.1,0c-0.9,0-1.4,0-1.6-0.1C714.2,329.3,714.1,329.2,714.1,328.9z"/>
		</g>
	</g>
	<path fill="#FFFFFF" d="M638.2,317.6h2V314c-0.8,0-1.8,0-3.2-0.1c-4.9-0.1-4.7,4.9-4.7,4.9v2.9H629v3.8h3.4v9.8h3.9v-9.8h3.3
		l0.5-3.8h-3.8v-2.5C636.2,317.4,638.2,317.6,638.2,317.6z"/>
	<rect x="652.9" y="303.6" fill="#1E2B50" width="1.3" height="39.7"/>
	<polygon fill="#1E2B50" points="619.1,343.4 614.8,343.4 614.8,303.6 619.1,308.3 	"/>
	<polygon fill="#0F1528" points="614.8,303.6 740.1,303.6 740.1,308.4 619.1,308.4 	"/>
</g>
<g>
	<g>
		<rect x="634.4" y="163.8" fill="#80BBD5" stroke="#FFFFFF" stroke-width="2.5" width="6.8" height="10.7"/>
		<polygon fill="#80BBD5" stroke="#FFFFFF" stroke-width="2.5" stroke-linejoin="round" points="651.6,181.2 641.2,174.5 
			641.2,163.8 651.6,157.1 		"/>
	</g>
	<path fill="none" stroke="#FFFFFF" stroke-width="2.5" d="M660.2,157.7c6.3,6.3,6.3,16.6,0,22.9"/>
	<path fill="none" stroke="#FFFFFF" stroke-width="2.5" d="M656.5,161.6c4.2,4.2,4.2,10.9,0,15.1"/>
</g>
<g>
	<path fill="#FFFFFF" d="M685.9,183c2.5-3.7,5.3-7.2,8.2-10.6c2.5,3,5.8,6.9,8.4,9.9c0.8,0.9,5.1-1.9,4.3-2.8
		c-2.8-3.3-6.4-7.6-9.2-10.9c3.2-3.5,6.5-6.8,10-10c1-0.9-2.9-4.3-3.8-3.4c-3.3,3.1-6.5,6.3-9.5,9.6c-2.5-2.8-6.1-6.6-8.7-9.2
		c-1.2-1.2-4.6,2.6-3.4,3.8c2.7,2.7,6.3,6.4,8.7,9.3c-3.1,3.5-6,7.2-8.7,11.1C681.1,181,684.9,184.4,685.9,183z"/>
</g>
<polygon fill="#AA8D6B" points="783.4,170.8 773.9,170.8 760.9,188.8 773.9,206.9 783.4,206.9 770.5,188.8 "/>
<g>
	<polygon fill="#966E53" points="817.9,170.8 808.3,170.8 821.2,188.8 807.1,205.3 808.3,206.9 817.9,206.9 830.8,188.8 	"/>
	<polygon fill="#AA8D6B" points="816.7,169.2 807.1,169.2 820,187.2 807.1,205.3 816.7,205.3 829.6,187.2 	"/>
</g>
<polygon fill="#BBA489" points="772.7,205.4 772.7,205.4 760.9,189 773.9,170.9 783.4,170.9 782.2,169.3 772.7,169.3 759.8,187.4 
	"/>
<polygon fill="#AA8D6B" points="783.4,170.8 773.9,170.8 760.9,188.8 773.9,206.9 783.4,206.9 770.5,188.8 "/>
<g>
	<rect x="869.1" y="253.2" opacity="0.5" fill="#B28E83" enable-background="new    " width="58.2" height="12"/>
	<g>
		<g>
			<circle fill="#302E2C" cx="883.5" cy="256" r="5.1"/>
			<circle fill="#514D4A" cx="883.5" cy="256" r="3.1"/>
			<polygon fill="#D3A853" points="878.6,249.1 878.6,252.5 882.5,257.3 884.3,257.3 884.3,249.9 881.5,249.9 881.5,249.1 			"/>
			<circle fill="#302E2C" cx="913.8" cy="256" r="5.1"/>
			<circle fill="#514D4A" cx="913.8" cy="256" r="3.1"/>
			<polygon fill="#D3A853" points="918.7,249.1 918.7,252.5 914.8,257.3 913,257.3 913,249.9 915.8,249.9 915.8,249.1 			"/>
		</g>
		<path fill="#302E2C" d="M924.6,243.3c0,2.1-1.6,5.9-4.9,5.9c-3.3,0-38,0-41.7,0c-3.7,0-4.9-3.5-4.9-5.9c0-2.3-1-38.4-1-38.4h53.5
			C925.6,204.8,924.6,241.2,924.6,243.3z"/>
		<path fill="#302E2C" d="M914.4,251"/>
		<rect x="870.3" y="196.5" fill="#514D4A" width="57.1" height="10.9"/>
		<path fill="#514D4A" d="M927.3,222.8c0,1.9-2.8,2.8-2.8,2.8v-20.3h2.8C927.3,205.3,927.3,221,927.3,222.8z"/>
		<path fill="#514D4A" d="M870.3,222.8c0,1.9,2.8,2.8,2.8,2.8v-20.3h-2.8C870.3,205.3,870.3,221,870.3,222.8z"/>
		<rect x="872.1" y="197.5" fill="#11100F" width="53.5" height="8.6"/>
		<g>
			<circle fill="#DC8E21" cx="898.8" cy="227" r="10.1"/>
			<circle fill="#AED326" cx="892.7" cy="225.6" r="2.8"/>
			
				<rect x="898.8" y="220.1" transform="matrix(-0.7072 0.707 -0.707 -0.7072 1695.1453 -256.2776)" fill="#C5CFD9" width="3.7" height="5.5"/>
			<rect x="897.4" y="227" fill="#11100F" width="8.4" height="2.6"/>
			<rect x="892.7" y="231.1" fill="#C5CFD9" width="13" height="0.8"/>
		</g>
	</g>
</g>
<g>
	<path fill="none" stroke="#3AAA35" stroke-width="13" stroke-linejoin="round" d="M900.9,206.1c0-18.4-3.8-31.8-20.3-37"/>
	<polygon fill="#3AAA35" stroke="#3AAA35" stroke-width="2.9523" stroke-linejoin="round" points="880.6,181.6 873.2,161.6 
		894.5,162 	"/>
</g>
<g>
	<rect x="205.9" y="353.6" fill="#D39367" width="186.4" height="39.7"/>
	<polygon fill="#4A3422" points="396.6,398 210.2,398 205.9,393.3 392.3,393.3 	"/>
	<polygon fill="#62452D" points="396.6,398 392.3,393.3 392.3,353.6 396.6,358.3 	"/>
</g>
<polygon fill="#4E7117" points="599.3,398 412.9,398 408.6,393.3 594.9,393.3 "/>
<polygon fill="#68961E" points="599.3,398 594.9,393.3 594.9,353.6 599.3,358.3 "/>
<rect x="408.6" y="353.6" fill="#95D333" width="186.4" height="39.7"/>
<g>
	<rect x="610.4" y="353.6" fill="#5079D3" width="125.3" height="39.8"/>
	<polyline fill="#161F3B" points="740,397.7 614.8,397.7 610.5,393.3 735.8,393.3 	"/>
	<g>
		<g enable-background="new    ">
			<path fill="#FFFFFF" d="M659.9,376.3c0-0.3,0.1-0.5,0.2-0.6c0.1-0.1,0.3-0.2,0.5-0.2c0.3,0,0.6,0.3,0.9,0.8
				c0.1,0.2,0.2,0.3,0.2,0.4c0.4,0.7,0.8,1.1,1.3,1.4c0.5,0.3,1,0.5,1.6,0.4c0.7,0,1.2-0.2,1.7-0.6c0.5-0.4,0.7-0.9,0.7-1.4
				c0-0.8-0.9-1.6-2.7-2.4c-0.1-0.1-0.2-0.1-0.3-0.1c-1.5-0.6-2.4-1.2-2.9-1.8c-0.5-0.5-0.7-1.2-0.7-2.1c0-1.1,0.4-2,1.2-2.7
				c0.8-0.7,1.8-1,3.1-1c0.3,0,0.7,0,1.1,0.1c0.4,0.1,0.8,0.2,1.2,0.3c0.1-0.1,0.3-0.2,0.4-0.2c0.1,0,0.2-0.1,0.3-0.1
				c0.1,0,0.3,0,0.4,0.1c0.1,0.1,0.2,0.2,0.4,0.5c0.2,0.4,0.4,0.7,0.5,1.1c0.1,0.4,0.2,0.7,0.2,1c0,0.2,0,0.4-0.1,0.5
				c-0.1,0.1-0.2,0.2-0.4,0.2c-0.3,0-0.6-0.2-0.9-0.6c-0.1-0.1-0.1-0.1-0.1-0.2c-0.3-0.4-0.7-0.8-1.1-1c-0.4-0.2-0.8-0.3-1.3-0.3
				c-0.7,0-1.2,0.2-1.6,0.5c-0.4,0.3-0.6,0.7-0.6,1.3c0,0.5,0.2,0.9,0.5,1.2c0.3,0.3,1.1,0.8,2.4,1.3c0.1,0,0.2,0.1,0.4,0.2
				c1.1,0.4,1.8,0.9,2.3,1.3c0.3,0.3,0.6,0.6,0.7,1.1c0.2,0.4,0.3,0.9,0.3,1.3c0,1.2-0.4,2.2-1.3,2.9c-0.9,0.7-2,1-3.6,1
				c-0.7,0-1.4-0.1-2.1-0.2c-0.7-0.1-1.2-0.3-1.6-0.6c-0.2-0.1-0.4-0.5-0.6-1C659.9,377.6,659.9,377,659.9,376.3z"/>
			<path fill="#FFFFFF" d="M670.3,378.9c0-0.2,0.2-0.4,0.6-0.6c0.2-0.1,0.3-0.1,0.4-0.2c0.1-0.1,0.2-0.5,0.3-1.3
				c0.1-0.8,0.1-2,0.1-3.8c0-1.3,0-2.4-0.1-3.3c-0.1-0.9-0.1-1.4-0.2-1.5c-0.1-0.1-0.2-0.2-0.6-0.3c-0.3-0.1-0.5-0.3-0.5-0.6
				c0-0.2,0.1-0.4,0.4-0.5c0.3-0.1,0.9-0.1,2-0.1c1,0,1.7,0,2,0.1c0.3,0.1,0.4,0.3,0.4,0.5c0,0.2-0.2,0.4-0.5,0.6
				c-0.2,0.1-0.3,0.1-0.4,0.2c-0.1,0.1-0.2,0.3-0.2,0.7c0,0.4-0.1,1.2-0.1,2.6c0,0.2,0.1,0.4,0.3,0.5c0.2,0.1,0.8,0.1,1.6,0.1l0.8,0
				c0.9,0,1.5,0,1.9-0.1c0.4,0,0.6-0.1,0.7-0.2c0,0,0.1-0.1,0.1-0.2c0-0.1,0-0.2,0-0.4l0-0.4c0-1.2,0-1.9-0.1-2.2
				c0-0.3-0.1-0.5-0.2-0.6c-0.1-0.1-0.2-0.1-0.4-0.2c-0.4-0.1-0.6-0.3-0.6-0.6c0-0.2,0.1-0.4,0.4-0.5c0.3-0.1,0.9-0.1,2-0.1
				c1.1,0,1.8,0,2,0.1c0.3,0.1,0.4,0.2,0.4,0.5c0,0.2-0.2,0.4-0.6,0.6c-0.2,0.1-0.3,0.1-0.4,0.2c-0.1,0.1-0.2,0.5-0.3,1.4
				c-0.1,0.8-0.1,2-0.1,3.6c0,1.4,0,2.6,0.1,3.5c0.1,0.9,0.1,1.4,0.2,1.5c0.1,0.1,0.2,0.2,0.6,0.3c0.3,0.1,0.5,0.3,0.5,0.5
				c0,0.3-0.2,0.4-0.5,0.6c-0.3,0.1-1,0.2-1.9,0.2c-1,0-1.6,0-1.9-0.1c-0.3-0.1-0.5-0.3-0.5-0.6c0-0.2,0.2-0.4,0.6-0.6
				c0.2-0.1,0.3-0.1,0.4-0.2c0.1-0.1,0.2-0.3,0.2-0.7c0-0.4,0.1-1.1,0.1-2.1c0-0.6,0-1.1,0-1.3c0-0.2,0-0.3-0.1-0.4
				c-0.1-0.1-0.2-0.2-0.5-0.2c-0.3,0-1-0.1-2.1-0.1c-1,0-1.6,0-1.9,0.1c-0.3,0-0.5,0.1-0.6,0.2c0,0-0.1,0.1-0.1,0.3
				c0,0.1,0,0.4,0,0.7l0,0.7c0,1,0,1.7,0.1,2.1c0,0.4,0.1,0.6,0.2,0.7c0.1,0.1,0.2,0.1,0.4,0.2c0.4,0.1,0.6,0.3,0.6,0.6
				c0,0.3-0.2,0.4-0.5,0.6c-0.3,0.1-1,0.2-1.9,0.2c-0.9,0-1.6,0-1.9-0.1C670.5,379.4,670.3,379.2,670.3,378.9z"/>
			<path fill="#FFFFFF" d="M683.3,378.9c0-0.2,0.2-0.4,0.5-0.6c0.2-0.1,0.3-0.1,0.3-0.2c0.5-0.3,0.9-0.9,1.3-2
				c0.1-0.2,0.2-0.4,0.2-0.5l1.3-3.3c0.1-0.2,0.2-0.4,0.3-0.8c0.9-2.1,1.4-3.7,1.6-4.6c0.1-0.3,0.1-0.5,0.3-0.5
				c0.1-0.1,0.4-0.1,0.7-0.1c0.2,0,0.4,0,0.5,0.1c0.1,0.1,0.3,0.2,0.4,0.5c0.3,0.7,0.8,1.7,1.4,3c0.6,1.3,1.2,2.7,1.8,4.3
				c0.1,0.3,0.2,0.6,0.4,1.1c0.7,1.7,1.2,2.7,1.6,2.9c0.1,0,0.2,0.1,0.3,0.1c0.4,0.1,0.6,0.3,0.6,0.5c0,0.3-0.2,0.5-0.5,0.6
				c-0.4,0.1-1.1,0.2-2.1,0.2c-1.1,0-1.8,0-2.1-0.1c-0.4-0.1-0.5-0.3-0.5-0.6c0-0.2,0.2-0.4,0.6-0.6c0.1,0,0.1,0,0.1-0.1
				c0.2-0.1,0.3-0.1,0.3-0.2c0.1-0.1,0.1-0.2,0.1-0.3c0-0.2,0-0.4-0.1-0.8c-0.1-0.3-0.2-0.7-0.3-0.9c-0.1-0.1-0.1-0.2-0.2-0.3
				c0,0-0.1-0.1-0.1-0.1c-0.1,0-0.4-0.1-0.7-0.1c-0.4,0-0.8,0-1.4,0l-0.4,0c-0.9,0-1.5,0-1.8,0.1c-0.3,0-0.5,0.1-0.6,0.2
				c-0.1,0.2-0.3,0.4-0.4,0.8c-0.1,0.3-0.2,0.6-0.2,0.8c0,0.2,0,0.3,0.1,0.5c0.1,0.1,0.2,0.2,0.4,0.3c0.1,0,0.2,0.1,0.3,0.1
				c0.4,0.1,0.6,0.3,0.6,0.5c0,0.3-0.2,0.5-0.5,0.6c-0.3,0.1-0.9,0.2-1.8,0.2c-0.9,0-1.5,0-1.8-0.1
				C683.4,379.3,683.3,379.2,683.3,378.9z M687.5,374.3c0.3,0,0.7,0,1-0.1c0.3,0,0.7,0,1,0c0.3,0,0.6,0,1,0s0.6,0,0.9,0
				c-0.3-0.9-0.6-1.7-0.9-2.5c-0.3-0.8-0.6-1.5-0.9-2.1l-0.2,0c-0.3,0.7-0.6,1.5-0.9,2.2C688.1,372.7,687.8,373.5,687.5,374.3z"/>
			<path fill="#FFFFFF" d="M697,378.9c0-0.2,0.2-0.4,0.6-0.6c0.2-0.1,0.3-0.1,0.4-0.2c0.1-0.1,0.2-0.5,0.3-1.2
				c0.1-0.7,0.1-2,0.1-3.9c0-1.4,0-2.5-0.1-3.4c-0.1-0.9-0.1-1.4-0.2-1.5c-0.1-0.1-0.3-0.2-0.6-0.3c-0.3-0.1-0.5-0.3-0.5-0.5
				c0-0.2,0.1-0.4,0.3-0.5c0.2-0.1,0.5-0.2,0.8-0.2l2,0c0.5,0,1.1,0,1.8,0c0.7,0,1.2,0,1.5,0c1.3,0,2.3,0.3,3,0.8
				c0.7,0.6,1,1.4,1,2.4c0,0.8-0.2,1.5-0.7,2c-0.5,0.6-1.1,1-1.9,1.2l0,0.1c0.6,0.1,1.1,0.4,1.5,0.8c0.4,0.4,0.7,1.1,1,2
				c0.1,0.2,0.1,0.5,0.2,0.9c0.2,0.9,0.5,1.4,0.9,1.4c0,0,0.1,0,0.3,0c0.1,0,0.2,0,0.3,0c0.1,0,0.2,0,0.3,0.1s0.1,0.2,0.1,0.3
				c0,0.3-0.2,0.5-0.5,0.7c-0.3,0.2-0.8,0.3-1.3,0.3c-1.2,0-2-1-2.6-3l0.1,0.2c-0.4-1.4-0.9-2.4-1.3-2.7c-0.4-0.4-1.1-0.6-1.9-0.6
				l-0.8,0c-0.1,0-0.2,0-0.3,0.1c0,0.1-0.1,0.3-0.1,0.6v0.4c0,1.4,0,2.3,0.1,2.7c0,0.4,0.1,0.7,0.2,0.8c0.1,0.1,0.2,0.1,0.4,0.2
				c0.4,0.1,0.6,0.3,0.6,0.6c0,0.3-0.2,0.4-0.5,0.5s-1,0.2-1.9,0.2c-0.9,0-1.6,0-1.9-0.1C697.1,379.3,697,379.1,697,378.9z
				 M700.5,372.3c0.2,0,0.5,0,0.7,0c0.2,0,0.4,0,0.6,0c1,0,1.8-0.2,2.2-0.6s0.7-1,0.7-1.8c0-0.8-0.2-1.4-0.7-1.8
				c-0.5-0.4-1.2-0.6-2.1-0.6c-0.5,0-0.8,0-1,0.1c-0.2,0.1-0.3,0.2-0.4,0.4c0,0.2-0.1,0.4-0.1,0.8c0,0.4,0,1,0,1.8l0,1.1
				L700.5,372.3z"/>
			<path fill="#FFFFFF" d="M709.8,378.9c0-0.3,0.2-0.5,0.6-0.6c0.2-0.1,0.3-0.1,0.4-0.2c0.1-0.1,0.2-0.5,0.3-1.3
				c0.1-0.8,0.1-2,0.1-3.8c0-1.3,0-2.4-0.1-3.3c-0.1-0.9-0.1-1.4-0.2-1.5c-0.1-0.1-0.2-0.2-0.6-0.3c-0.3-0.1-0.5-0.3-0.5-0.6
				c0-0.2,0.1-0.4,0.4-0.5c0.3-0.1,0.9-0.1,2-0.1l5.5,0c0.3,0,0.6,0,0.9-0.1c0.3-0.1,0.5-0.1,0.5-0.1c0.1,0,0.2,0,0.2,0.1
				c0.1,0,0.1,0.1,0.2,0.2c0.1,0.2,0.2,0.5,0.4,0.9c0.1,0.4,0.2,0.8,0.2,1.1c0,0.3,0,0.5-0.1,0.6c-0.1,0.1-0.2,0.2-0.4,0.2
				c-0.2,0-0.4-0.2-0.7-0.6c-0.1-0.2-0.2-0.3-0.3-0.4c-0.1-0.2-0.3-0.3-0.6-0.4c-0.3-0.1-0.6-0.1-1-0.1l-1.2,0c-0.6,0-1,0-1.3,0.1
				c-0.3,0.1-0.5,0.2-0.6,0.3c-0.1,0.1-0.2,0.4-0.2,0.8c0,0.4-0.1,1-0.1,1.7l0,0.7c0,0.3,0,0.5,0.1,0.5c0,0.1,0.2,0.1,0.3,0.1l1.6,0
				c0.5,0,0.8-0.1,1-0.2c0.2-0.1,0.3-0.4,0.4-0.8c0,0,0-0.1,0-0.2c0.1-0.6,0.3-0.9,0.6-0.9c0.3,0,0.4,0.2,0.5,0.5
				c0.1,0.3,0.2,1.1,0.2,2.2c0,1.1,0,1.9-0.1,2.2c-0.1,0.3-0.3,0.5-0.5,0.5c-0.3,0-0.5-0.3-0.6-0.9c0-0.1,0-0.2,0-0.2
				c-0.1-0.4-0.2-0.6-0.4-0.8c-0.2-0.1-0.5-0.2-1-0.2l-1.6,0c-0.2,0-0.3,0.1-0.3,0.1c-0.1,0.1-0.1,0.3-0.1,0.7l0,0.8
				c0,0.8,0,1.4,0,1.7c0,0.4,0.1,0.6,0.2,0.8c0.1,0.2,0.3,0.3,0.6,0.4c0.3,0.1,0.8,0.1,1.4,0.1l1.2,0c0.6,0,1.1-0.1,1.4-0.2
				c0.3-0.2,0.6-0.5,0.9-0.9c0.1-0.1,0.2-0.3,0.3-0.6c0.2-0.4,0.4-0.7,0.6-0.7c0.2,0,0.3,0.1,0.4,0.2c0.1,0.1,0.1,0.4,0.1,0.6
				c0,0.3,0,0.7-0.1,1.1c-0.1,0.4-0.2,0.9-0.4,1.3c-0.1,0.2-0.2,0.4-0.3,0.5c-0.1,0.1-0.2,0.2-0.3,0.2c0,0-0.1,0-0.2-0.1
				c-0.4-0.1-0.8-0.2-1.2-0.2l-6.1,0c-0.9,0-1.4,0-1.6-0.1C710,379.2,709.8,379.1,709.8,378.9z"/>
		</g>
	</g>
	<path fill="#FFFFFF" d="M633.9,367.5h2V364c-0.8,0-1.8-0.1-3.2-0.1c-4.9-0.1-4.7,4.9-4.7,4.9v2.9h-3.4v3.8h3.4v9.8h3.9v-9.8h3.3
		l0.5-3.8h-3.8v-2.5C631.9,367.3,633.9,367.5,633.9,367.5z"/>
	<rect x="648.7" y="353.6" fill="#1E2B50" width="1.3" height="39.7"/>
	<polygon fill="#1E2B50" points="740,398 735.7,393.3 735.7,353.6 740,358.3 	"/>
</g>
<rect x="759.7" y="387.6" fill="#96D44F" width="203.1" height="39.7"/>
<polygon fill="#68961E" points="755.4,387.6 962.8,387.6 962.8,392.3 759.7,392.3 "/>
<polygon fill="#74AA27" points="755.4,387.6 759.7,392.3 759.7,427.4 755.4,427.4 "/>
<polygon fill="#4E7117" points="962.8,325.7 755.4,325.7 751.1,321 958.4,321 "/>
<polygon fill="#68961E" points="962.8,325.7 958.4,321 958.4,281.3 962.8,286 "/>
<rect x="751.1" y="281.3" fill="#74AA27" width="207.4" height="39.7"/>
<rect x="992.3" y="387.6" fill="#F2AC3B" width="203.1" height="39.7"/>
<polygon fill="#BC710D" points="988,387.6 1195.4,387.6 1195.4,392.3 992.3,392.3 "/>
<polygon fill="#BC710D" points="988,387.6 992.3,392.3 992.3,427.4 988,427.4 "/>
<g enable-background="new    ">
	<path fill="#FFFFFF" d="M1019.1,408.8c0-1.9,0.6-3.5,1.8-4.7c1.2-1.2,2.7-1.8,4.6-1.8c0.5,0,0.9,0,1.4,0.1c0.5,0.1,1,0.2,1.6,0.3
		c0.2-0.1,0.4-0.1,0.6-0.1c0.1,0,0.2,0,0.3,0c0.1,0,0.3,0.1,0.4,0.2s0.2,0.3,0.3,0.6c0.1,0.4,0.3,0.7,0.3,1.2c0.1,0.4,0.1,0.7,0.1,1
		c0,0.2-0.1,0.4-0.1,0.5c-0.1,0.1-0.2,0.2-0.4,0.2c-0.2,0-0.5-0.2-0.9-0.6c-0.1-0.1-0.1-0.2-0.2-0.2c0,0-0.1-0.1-0.1-0.2
		c-0.4-0.5-0.7-0.8-1-1c-0.3-0.2-0.7-0.4-1.1-0.5c-0.4-0.1-0.9-0.2-1.4-0.2c-1.2,0-2.2,0.4-2.9,1.3c-0.7,0.8-1,2-1,3.5
		c0,1.8,0.4,3.3,1.3,4.4c0.9,1.1,2,1.7,3.4,1.7c0.8,0,1.4-0.2,1.8-0.7c0.4-0.5,0.6-1.1,0.6-1.9c0-0.3,0-0.5-0.1-0.6
		c-0.1-0.1-0.3-0.2-0.5-0.3c-0.1,0-0.3-0.1-0.5-0.1c-0.5-0.1-0.8-0.3-0.8-0.5c0-0.3,0.2-0.5,0.5-0.6c0.4-0.1,1.3-0.2,2.8-0.2
		c1,0,1.6,0.1,1.9,0.2c0.3,0.1,0.4,0.3,0.4,0.6c0,0.1,0,0.3-0.1,0.3c-0.1,0.1-0.2,0.2-0.5,0.2c0,0-0.1,0-0.1,0.1
		c-0.3,0.1-0.5,0.2-0.6,0.4c-0.1,0.1-0.1,0.4-0.2,0.8c0,0.1,0,0.2-0.1,0.2c-0.1,0.6-0.3,1-0.4,1.3c-0.1,0.3-0.3,0.5-0.5,0.8
		c-0.4,0.5-1,0.9-1.7,1.1c-0.7,0.3-1.5,0.4-2.4,0.4c-2,0-3.7-0.6-4.9-1.9C1019.7,412.6,1019.1,410.9,1019.1,408.8z"/>
	<path fill="#FFFFFF" d="M1033.1,414.9c0-0.3,0.2-0.5,0.6-0.6c0.2-0.1,0.3-0.1,0.4-0.2c0.1-0.1,0.2-0.5,0.3-1.1c0-0.7,0.1-2,0.1-4
		c0-1.4,0-2.5-0.1-3.4c0-0.9-0.1-1.3-0.2-1.4c-0.1-0.1-0.3-0.2-0.6-0.3c-0.3-0.1-0.5-0.3-0.5-0.6c0-0.2,0.1-0.4,0.4-0.5
		c0.3-0.1,0.9-0.1,2-0.1c1.1,0,1.8,0,2,0.1c0.3,0.1,0.4,0.3,0.4,0.5c0,0.2-0.2,0.4-0.6,0.6c-0.2,0.1-0.3,0.1-0.4,0.2
		c-0.1,0.1-0.2,0.4-0.2,1c-0.1,0.6-0.1,1.5-0.1,2.8c0,1.5,0,2.8,0,3.8c0,1,0.1,1.6,0.1,1.8c0.1,0.3,0.2,0.5,0.5,0.6
		c0.3,0.1,0.8,0.2,1.6,0.2h0.3c0.6,0,1-0.1,1.3-0.2c0.3-0.1,0.6-0.5,0.9-0.9c0.1-0.1,0.2-0.3,0.3-0.5c0.2-0.5,0.4-0.7,0.7-0.7
		c0.1,0,0.3,0.1,0.3,0.2c0.1,0.1,0.1,0.4,0.1,0.6c0,0.4,0,0.8-0.1,1.2c-0.1,0.4-0.2,0.8-0.3,1.2c-0.1,0.3-0.2,0.4-0.3,0.5
		c-0.1,0.1-0.2,0.2-0.4,0.2l-0.5-0.1c-0.3-0.1-0.6-0.1-1-0.1h-5.3c-0.9,0-1.4,0-1.6-0.1C1033.2,415.3,1033.1,415.1,1033.1,414.9z"/>
	<path fill="#FFFFFF" d="M1043.9,414.9c0-0.3,0.2-0.5,0.6-0.6c0.2-0.1,0.3-0.1,0.4-0.2c0.1-0.1,0.2-0.5,0.3-1.3
		c0.1-0.8,0.1-2,0.1-3.8c0-1.3,0-2.4-0.1-3.3c-0.1-0.9-0.1-1.4-0.2-1.5c-0.1-0.1-0.2-0.2-0.6-0.3c-0.3-0.1-0.5-0.3-0.5-0.6
		c0-0.2,0.1-0.4,0.4-0.5c0.3-0.1,0.9-0.1,2-0.1h5.5c0.3,0,0.6,0,0.9-0.1c0.3-0.1,0.5-0.1,0.5-0.1c0.1,0,0.2,0,0.2,0.1
		c0.1,0,0.1,0.1,0.2,0.2c0.1,0.2,0.2,0.5,0.4,0.9c0.1,0.4,0.2,0.8,0.2,1.1c0,0.3-0.1,0.5-0.2,0.6c-0.1,0.1-0.2,0.2-0.4,0.2
		c-0.2,0-0.4-0.2-0.7-0.6c-0.1-0.2-0.2-0.3-0.3-0.4c-0.1-0.2-0.3-0.3-0.6-0.4c-0.3-0.1-0.6-0.1-1-0.1h-1.2c-0.6,0-1,0-1.3,0.1
		c-0.3,0.1-0.5,0.2-0.6,0.3c-0.1,0.1-0.2,0.4-0.2,0.8c0,0.4-0.1,1-0.1,1.7v0.7c0,0.3,0,0.5,0.1,0.5c0,0.1,0.2,0.1,0.3,0.1h1.6
		c0.5,0,0.8-0.1,1-0.2c0.2-0.1,0.3-0.4,0.4-0.8c0,0,0-0.1,0-0.2c0.1-0.6,0.3-0.9,0.6-0.9c0.3,0,0.4,0.2,0.5,0.5
		c0.1,0.3,0.1,1.1,0.1,2.2c0,1.1,0,1.9-0.1,2.2s-0.3,0.5-0.5,0.5c-0.3,0-0.5-0.3-0.6-0.9c0-0.1,0-0.2,0-0.2
		c-0.1-0.4-0.2-0.6-0.4-0.8c-0.2-0.1-0.5-0.2-1-0.2h-1.6c-0.2,0-0.3,0.1-0.3,0.1c-0.1,0.1-0.1,0.3-0.1,0.7v0.8c0,0.8,0,1.4,0,1.7
		c0,0.4,0.1,0.6,0.2,0.8c0.1,0.2,0.3,0.3,0.6,0.4c0.3,0.1,0.8,0.1,1.4,0.1h1.2c0.6,0,1.1-0.1,1.4-0.2c0.3-0.2,0.6-0.5,0.9-0.9
		c0.1-0.1,0.2-0.3,0.3-0.6c0.2-0.4,0.4-0.7,0.6-0.7c0.1,0,0.3,0.1,0.4,0.2c0.1,0.1,0.1,0.4,0.1,0.6c0,0.3,0,0.7-0.1,1.1
		c-0.1,0.4-0.2,0.9-0.4,1.3c-0.1,0.2-0.2,0.4-0.3,0.5c-0.1,0.1-0.2,0.2-0.3,0.2c0,0-0.1,0-0.2-0.1c-0.4-0.1-0.8-0.2-1.2-0.2h-6.1
		c-0.9,0-1.4,0-1.6-0.1C1044,415.3,1043.9,415.1,1043.9,414.9z"/>
	<path fill="#FFFFFF" d="M1055.1,414.8c0-0.2,0.2-0.4,0.6-0.6c0.2-0.1,0.3-0.1,0.4-0.2c0.1-0.1,0.2-0.5,0.3-1.2
		c0.1-0.7,0.1-2,0.1-3.9c0-1.4,0-2.5-0.1-3.4c-0.1-0.9-0.1-1.4-0.2-1.5c-0.1-0.1-0.2-0.2-0.6-0.3c-0.3-0.1-0.5-0.3-0.5-0.6
		c0-0.2,0.1-0.4,0.4-0.5c0.3-0.1,0.9-0.1,2-0.1c1.1,0,1.7,0,2,0.1c0.3,0.1,0.4,0.2,0.4,0.5c0,0.2-0.2,0.4-0.5,0.6
		c-0.2,0.1-0.3,0.1-0.4,0.2c-0.1,0.1-0.2,0.4-0.2,1s-0.1,1.6-0.1,2.9c0,1.8,0,3.3,0.1,4.3c0,1,0.1,1.6,0.2,1.7
		c0.1,0.1,0.2,0.2,0.6,0.3c0.3,0.1,0.5,0.3,0.5,0.5c0,0.3-0.2,0.4-0.5,0.6c-0.3,0.1-1,0.2-1.9,0.2c-0.9,0-1.6-0.1-1.9-0.2
		C1055.3,415.3,1055.1,415.1,1055.1,414.8z"/>
	<path fill="#FFFFFF" d="M1061,408.9c0-0.8,0.1-1.6,0.4-2.3c0.2-0.7,0.6-1.4,1.1-1.9c0.6-0.7,1.3-1.3,2.1-1.7
		c0.8-0.4,1.8-0.6,2.8-0.6c0.3,0,0.7,0,1.1,0.1c0.4,0.1,1,0.2,1.7,0.4c0,0,0.1,0,0.2-0.1c0.4-0.1,0.6-0.2,0.7-0.2
		c0.1,0,0.2,0,0.3,0.1c0.1,0.1,0.2,0.1,0.2,0.3c0.2,0.3,0.3,0.7,0.5,1.2c0.1,0.5,0.2,0.9,0.2,1.2c0,0.3,0,0.4-0.1,0.6
		c-0.1,0.1-0.2,0.2-0.4,0.2c-0.3,0-0.6-0.3-1.1-0.8c-0.2-0.3-0.4-0.5-0.6-0.6c-0.3-0.3-0.7-0.6-1.2-0.8c-0.5-0.2-1-0.3-1.6-0.3
		c-1.2,0-2.1,0.4-2.8,1.2c-0.7,0.8-1,1.9-1,3.3c0,1.8,0.4,3.3,1.3,4.4c0.9,1.1,1.9,1.7,3.3,1.7c0.5,0,1-0.1,1.5-0.3
		c0.5-0.2,0.9-0.4,1.2-0.7c0.1-0.1,0.3-0.3,0.4-0.5c0.3-0.4,0.5-0.5,0.7-0.5c0.2,0,0.3,0.1,0.4,0.2c0.1,0.2,0.1,0.4,0.1,0.7
		c0,0.6-0.1,1-0.2,1.3c-0.2,0.3-0.4,0.5-0.6,0.5c0,0,0,0-0.1,0c0,0-0.1,0-0.1,0c-0.6,0.3-1.1,0.5-1.7,0.7c-0.6,0.1-1.1,0.2-1.8,0.2
		c-0.9,0-1.7-0.1-2.5-0.4c-0.8-0.3-1.5-0.7-2.1-1.3c-0.7-0.6-1.2-1.4-1.6-2.3C1061.2,410.9,1061,410,1061,408.9z"/>
	<path fill="#FFFFFF" d="M1073.2,414.8c0-0.2,0.2-0.4,0.6-0.6c0.2-0.1,0.3-0.1,0.4-0.2c0.1-0.1,0.2-0.5,0.3-1.3
		c0.1-0.8,0.1-2,0.1-3.8c0-1.3,0-2.4-0.1-3.3c-0.1-0.9-0.1-1.4-0.2-1.5c-0.1-0.1-0.2-0.2-0.6-0.3c-0.3-0.1-0.5-0.3-0.5-0.6
		c0-0.2,0.1-0.4,0.4-0.5c0.3-0.1,0.9-0.1,2-0.1c1,0,1.7,0,2,0.1c0.3,0.1,0.4,0.3,0.4,0.5c0,0.2-0.2,0.4-0.6,0.6
		c-0.2,0.1-0.3,0.1-0.4,0.2c-0.1,0.1-0.2,0.3-0.2,0.7c0,0.4-0.1,1.2-0.1,2.6c0,0.2,0.1,0.4,0.3,0.5c0.2,0.1,0.8,0.1,1.6,0.1h0.8
		c0.9,0,1.5,0,1.9-0.1c0.4,0,0.6-0.1,0.7-0.2c0,0,0.1-0.1,0.1-0.2c0-0.1,0-0.2,0-0.4v-0.4c0-1.2,0-1.9-0.1-2.2
		c0-0.3-0.1-0.5-0.2-0.6c-0.1-0.1-0.2-0.1-0.4-0.2c-0.4-0.1-0.6-0.3-0.6-0.6c0-0.2,0.1-0.4,0.4-0.5c0.3-0.1,0.9-0.1,2-0.1
		c1.1,0,1.8,0,2,0.1c0.3,0.1,0.4,0.2,0.4,0.5c0,0.2-0.2,0.4-0.6,0.6c-0.2,0.1-0.3,0.1-0.4,0.2c-0.1,0.1-0.2,0.5-0.3,1.4
		c-0.1,0.8-0.1,2-0.1,3.6c0,1.4,0,2.6,0.1,3.5c0,0.9,0.1,1.4,0.2,1.5c0.1,0.1,0.2,0.2,0.6,0.3c0.3,0.1,0.5,0.3,0.5,0.5
		c0,0.3-0.2,0.4-0.5,0.6c-0.3,0.1-1,0.2-1.9,0.2c-1,0-1.6-0.1-1.9-0.2s-0.5-0.3-0.5-0.6c0-0.2,0.2-0.4,0.6-0.6
		c0.2-0.1,0.3-0.1,0.4-0.2c0.1-0.1,0.2-0.3,0.2-0.7c0-0.4,0.1-1.1,0.1-2.1c0-0.6,0-1.1,0-1.3c0-0.2,0-0.3-0.1-0.4
		c-0.1-0.1-0.2-0.2-0.5-0.2c-0.3,0-1-0.1-2.1-0.1c-1,0-1.6,0-1.9,0.1c-0.3,0-0.5,0.1-0.6,0.2c0,0-0.1,0.1-0.1,0.3c0,0.1,0,0.4,0,0.7
		v0.7c0,1,0,1.7,0.1,2.1c0,0.4,0.1,0.6,0.2,0.7c0.1,0.1,0.2,0.1,0.4,0.2c0.4,0.1,0.6,0.3,0.6,0.6c0,0.3-0.2,0.4-0.5,0.6
		c-0.3,0.1-1,0.2-1.9,0.2c-0.9,0-1.6-0.1-1.9-0.2C1073.3,415.3,1073.2,415.1,1073.2,414.8z"/>
	<path fill="#FFFFFF" d="M1091.8,412.2c0-0.3,0.1-0.5,0.2-0.6c0.1-0.1,0.3-0.2,0.5-0.2c0.3,0,0.6,0.3,0.9,0.8
		c0.1,0.2,0.2,0.3,0.2,0.4c0.4,0.7,0.8,1.2,1.2,1.5c0.5,0.3,1,0.5,1.6,0.5c0.7,0,1.2-0.2,1.7-0.6c0.5-0.4,0.7-0.9,0.7-1.4
		c0-0.8-0.9-1.6-2.7-2.4c-0.1-0.1-0.2-0.1-0.3-0.1c-1.4-0.6-2.4-1.2-2.9-1.8c-0.5-0.5-0.7-1.2-0.7-2.1c0-1.1,0.4-2,1.2-2.7
		c0.8-0.7,1.8-1,3.1-1c0.3,0,0.7,0,1.1,0.1c0.4,0.1,0.8,0.2,1.2,0.3c0.1-0.1,0.3-0.2,0.4-0.2c0.1-0.1,0.2-0.1,0.3-0.1
		c0.1,0,0.3,0,0.4,0.1c0.1,0.1,0.2,0.2,0.4,0.5c0.2,0.4,0.4,0.7,0.5,1.1c0.1,0.4,0.2,0.7,0.2,1c0,0.2,0,0.4-0.1,0.5
		c-0.1,0.1-0.2,0.2-0.4,0.2c-0.3,0-0.6-0.2-0.9-0.6c-0.1-0.1-0.1-0.1-0.1-0.2c-0.3-0.4-0.7-0.8-1.1-1c-0.4-0.2-0.8-0.3-1.3-0.3
		c-0.7,0-1.2,0.2-1.6,0.5c-0.4,0.3-0.6,0.7-0.6,1.3c0,0.5,0.2,0.9,0.5,1.2c0.3,0.3,1.1,0.8,2.4,1.3c0.1,0,0.2,0.1,0.4,0.2
		c1.1,0.4,1.8,0.9,2.3,1.3c0.3,0.3,0.6,0.6,0.7,1.1c0.2,0.4,0.3,0.8,0.3,1.3c0,1.2-0.4,2.2-1.3,2.9c-0.9,0.7-2,1-3.6,1
		c-0.7,0-1.4-0.1-2.1-0.2c-0.7-0.1-1.2-0.3-1.6-0.6c-0.2-0.1-0.4-0.5-0.6-1S1091.8,412.9,1091.8,412.2z"/>
	<path fill="#FFFFFF" d="M1102.2,414.8c0-0.2,0.2-0.4,0.6-0.6c0.2-0.1,0.3-0.1,0.4-0.2c0.1-0.1,0.2-0.5,0.3-1.2s0.1-2,0.1-3.9
		c0-1.4,0-2.5-0.1-3.4c-0.1-0.9-0.1-1.4-0.2-1.5c-0.1-0.1-0.3-0.2-0.6-0.3c-0.3-0.1-0.5-0.3-0.5-0.5c0-0.2,0.1-0.4,0.3-0.5
		c0.2-0.1,0.5-0.2,0.8-0.2c0.2,0,0.5,0,0.9,0c0.4,0,0.8,0,1,0c0.5,0,1.1,0,1.8,0c0.7,0,1.2,0,1.5,0c1.3,0,2.4,0.3,3,0.9
		c0.7,0.6,1,1.4,1,2.6c0,1.2-0.4,2.2-1.2,2.9c-0.8,0.7-2,1-3.6,1c-0.3,0-0.6,0-0.9,0c-0.4,0-0.6,0-0.7,0c-0.1,0-0.2,0-0.3,0.1
		c0,0.1-0.1,0.3-0.1,0.7v0.2c0,1.3,0,2.1,0.1,2.6c0,0.5,0.1,0.7,0.2,0.8c0.1,0.1,0.2,0.1,0.4,0.2c0.4,0.1,0.6,0.3,0.6,0.6
		c0,0.3-0.2,0.5-0.5,0.6c-0.3,0.1-1,0.2-1.9,0.2c-0.9,0-1.6-0.1-1.9-0.2C1102.3,415.3,1102.2,415.1,1102.2,414.8z M1105.8,408.5
		c0.2,0,0.5,0,0.7,0c0.2,0,0.4,0,0.7,0c1,0,1.8-0.2,2.3-0.6c0.5-0.4,0.7-1,0.7-1.9c0-0.8-0.2-1.4-0.7-1.8c-0.5-0.4-1.2-0.6-2.2-0.6
		c-0.4,0-0.7,0-0.9,0.1c-0.2,0.1-0.3,0.2-0.4,0.4c0,0.2-0.1,0.4-0.1,0.8c0,0.4,0,1,0,1.9v1.2L1105.8,408.5L1105.8,408.5
		L1105.8,408.5z"/>
	<path fill="#FFFFFF" d="M1113,414.8c0-0.2,0.2-0.4,0.6-0.6c0.2-0.1,0.3-0.1,0.4-0.2c0.1-0.1,0.2-0.5,0.3-1.2c0.1-0.7,0.1-2,0.1-3.9
		c0-1.4,0-2.5-0.1-3.4c0-0.9-0.1-1.4-0.2-1.5c-0.1-0.1-0.2-0.2-0.6-0.3c-0.3-0.1-0.5-0.3-0.5-0.6c0-0.2,0.1-0.4,0.4-0.5
		c0.3-0.1,0.9-0.1,2-0.1c1.1,0,1.7,0,2,0.1c0.3,0.1,0.4,0.2,0.4,0.5c0,0.2-0.2,0.4-0.5,0.6c-0.2,0.1-0.3,0.1-0.4,0.2
		c-0.1,0.1-0.2,0.4-0.2,1s-0.1,1.6-0.1,2.9c0,1.8,0,3.3,0.1,4.3c0,1,0.1,1.6,0.2,1.7c0.1,0.1,0.2,0.2,0.6,0.3
		c0.3,0.1,0.5,0.3,0.5,0.5c0,0.3-0.2,0.4-0.5,0.6c-0.3,0.1-1,0.2-1.9,0.2c-0.9,0-1.6-0.1-1.9-0.2
		C1113.1,415.3,1113,415.1,1113,414.8z"/>
	<path fill="#FFFFFF" d="M1118.7,414.9c0-0.3,0.2-0.5,0.6-0.6c0.2-0.1,0.3-0.1,0.4-0.2c0.1-0.1,0.2-0.5,0.3-1.3
		c0.1-0.8,0.1-2,0.1-3.8c0-1.3,0-2.4-0.1-3.3c-0.1-0.9-0.1-1.4-0.2-1.5c-0.1-0.1-0.2-0.2-0.6-0.3c-0.3-0.1-0.5-0.3-0.5-0.6
		c0-0.2,0.1-0.4,0.4-0.5c0.3-0.1,0.9-0.1,2-0.1h5.5c0.3,0,0.6,0,0.9-0.1c0.3-0.1,0.5-0.1,0.5-0.1c0.1,0,0.2,0,0.2,0.1
		c0.1,0,0.1,0.1,0.2,0.2c0.1,0.2,0.2,0.5,0.4,0.9c0.1,0.4,0.2,0.8,0.2,1.1c0,0.3-0.1,0.5-0.2,0.6c-0.1,0.1-0.2,0.2-0.4,0.2
		c-0.2,0-0.4-0.2-0.7-0.6c-0.1-0.2-0.2-0.3-0.3-0.4c-0.1-0.2-0.3-0.3-0.6-0.4c-0.3-0.1-0.6-0.1-1-0.1h-1.2c-0.6,0-1,0-1.3,0.1
		c-0.3,0.1-0.5,0.2-0.6,0.3c-0.1,0.1-0.2,0.4-0.2,0.8c0,0.4-0.1,1-0.1,1.7v0.7c0,0.3,0,0.5,0.1,0.5c0,0.1,0.2,0.1,0.3,0.1h1.6
		c0.5,0,0.8-0.1,1-0.2c0.2-0.1,0.3-0.4,0.4-0.8c0,0,0-0.1,0-0.2c0.1-0.6,0.3-0.9,0.6-0.9c0.3,0,0.4,0.2,0.5,0.5
		c0.1,0.3,0.1,1.1,0.1,2.2c0,1.1,0,1.9-0.1,2.2c-0.1,0.3-0.3,0.5-0.5,0.5c-0.3,0-0.5-0.3-0.6-0.9c0-0.1,0-0.2,0-0.2
		c-0.1-0.4-0.2-0.6-0.4-0.8c-0.2-0.1-0.5-0.2-1-0.2h-1.6c-0.2,0-0.3,0.1-0.3,0.1c-0.1,0.1-0.1,0.3-0.1,0.7v0.8c0,0.8,0,1.4,0,1.7
		c0,0.4,0.1,0.6,0.2,0.8c0.1,0.2,0.3,0.3,0.6,0.4c0.3,0.1,0.8,0.1,1.4,0.1h1.2c0.6,0,1.1-0.1,1.4-0.2c0.3-0.2,0.6-0.5,0.9-0.9
		c0.1-0.1,0.2-0.3,0.3-0.6c0.2-0.4,0.4-0.7,0.6-0.7c0.1,0,0.3,0.1,0.4,0.2c0.1,0.1,0.1,0.4,0.1,0.6c0,0.3,0,0.7-0.1,1.1
		c-0.1,0.4-0.2,0.9-0.4,1.3c-0.1,0.2-0.2,0.4-0.3,0.5c-0.1,0.1-0.2,0.2-0.3,0.2c0,0-0.1,0-0.2-0.1c-0.4-0.1-0.8-0.2-1.2-0.2h-6.1
		c-0.9,0-1.4,0-1.6-0.1S1118.7,415.1,1118.7,414.9z"/>
	<path fill="#FFFFFF" d="M1130.1,414.9c0-0.3,0.2-0.5,0.6-0.6c0.2-0.1,0.3-0.1,0.4-0.2c0.1-0.1,0.2-0.5,0.3-1.1c0-0.7,0.1-2,0.1-4
		c0-1.4,0-2.5-0.1-3.4c0-0.9-0.1-1.3-0.2-1.4c-0.1-0.1-0.3-0.2-0.6-0.3c-0.3-0.1-0.5-0.3-0.5-0.6c0-0.2,0.1-0.4,0.4-0.5
		c0.3-0.1,0.9-0.1,2-0.1c1.1,0,1.8,0,2,0.1c0.3,0.1,0.4,0.3,0.4,0.5c0,0.2-0.2,0.4-0.6,0.6c-0.2,0.1-0.3,0.1-0.4,0.2
		c-0.1,0.1-0.2,0.4-0.2,1c-0.1,0.6-0.1,1.5-0.1,2.8c0,1.5,0,2.8,0,3.8c0,1,0.1,1.6,0.1,1.8c0.1,0.3,0.2,0.5,0.5,0.6
		c0.3,0.1,0.8,0.2,1.6,0.2h0.3c0.6,0,1-0.1,1.3-0.2c0.3-0.2,0.6-0.5,0.9-0.9c0.1-0.1,0.2-0.3,0.3-0.5c0.2-0.5,0.4-0.7,0.7-0.7
		c0.1,0,0.3,0.1,0.3,0.2c0.1,0.2,0.1,0.4,0.1,0.6c0,0.4,0,0.8-0.1,1.2c-0.1,0.4-0.2,0.8-0.3,1.2c-0.1,0.3-0.2,0.4-0.3,0.5
		c-0.1,0.1-0.2,0.2-0.4,0.2l-0.5-0.1c-0.3-0.1-0.6-0.1-1-0.1h-5.3c-0.9,0-1.4,0-1.6-0.1C1130.2,415.3,1130.1,415.1,1130.1,414.9z"/>
	<path fill="#FFFFFF" d="M1140.8,414.9c0-0.3,0.2-0.5,0.6-0.6c0.2-0.1,0.3-0.1,0.4-0.2c0.1-0.1,0.2-0.5,0.3-1.3
		c0.1-0.8,0.1-2,0.1-3.8c0-1.3,0-2.4-0.1-3.3c-0.1-0.9-0.1-1.4-0.2-1.5c-0.1-0.1-0.2-0.2-0.6-0.3c-0.3-0.1-0.5-0.3-0.5-0.6
		c0-0.2,0.1-0.4,0.4-0.5c0.3-0.1,0.9-0.1,2-0.1h5.5c0.3,0,0.6,0,0.9-0.1c0.3-0.1,0.5-0.1,0.5-0.1c0.1,0,0.2,0,0.2,0.1
		c0.1,0,0.1,0.1,0.2,0.2c0.1,0.2,0.2,0.5,0.4,0.9c0.1,0.4,0.2,0.8,0.2,1.1c0,0.3-0.1,0.5-0.2,0.6c-0.1,0.1-0.2,0.2-0.4,0.2
		c-0.2,0-0.4-0.2-0.7-0.6c-0.1-0.2-0.2-0.3-0.3-0.4c-0.1-0.2-0.3-0.3-0.6-0.4c-0.3-0.1-0.6-0.1-1-0.1h-1.2c-0.6,0-1,0-1.3,0.1
		c-0.3,0.1-0.5,0.2-0.6,0.3c-0.1,0.1-0.2,0.4-0.2,0.8c0,0.4-0.1,1-0.1,1.7v0.7c0,0.3,0,0.5,0.1,0.5c0,0.1,0.2,0.1,0.3,0.1h1.6
		c0.5,0,0.8-0.1,1-0.2c0.2-0.1,0.3-0.4,0.4-0.8c0,0,0-0.1,0-0.2c0.1-0.6,0.3-0.9,0.6-0.9c0.3,0,0.4,0.2,0.5,0.5
		c0.1,0.3,0.1,1.1,0.1,2.2c0,1.1,0,1.9-0.1,2.2c-0.1,0.3-0.3,0.5-0.5,0.5c-0.3,0-0.5-0.3-0.6-0.9c0-0.1,0-0.2,0-0.2
		c-0.1-0.4-0.2-0.6-0.4-0.8c-0.2-0.1-0.5-0.2-1-0.2h-1.6c-0.2,0-0.3,0.1-0.3,0.1c-0.1,0.1-0.1,0.3-0.1,0.7v0.8c0,0.8,0,1.4,0,1.7
		c0,0.4,0.1,0.6,0.1,0.8c0.1,0.2,0.3,0.3,0.6,0.4c0.3,0.1,0.8,0.1,1.4,0.1h1.2c0.6,0,1.1-0.1,1.4-0.2c0.3-0.2,0.6-0.5,0.9-0.9
		c0.1-0.1,0.2-0.3,0.3-0.6c0.2-0.4,0.4-0.7,0.6-0.7c0.1,0,0.3,0.1,0.4,0.2c0.1,0.1,0.1,0.4,0.1,0.6c0,0.3,0,0.7-0.1,1.1
		c-0.1,0.4-0.2,0.9-0.4,1.3c-0.1,0.2-0.2,0.4-0.3,0.5c-0.1,0.1-0.2,0.2-0.3,0.2c0,0-0.1,0-0.2-0.1c-0.4-0.1-0.8-0.2-1.2-0.2h-6.1
		c-0.9,0-1.4,0-1.6-0.1C1140.9,415.3,1140.8,415.1,1140.8,414.9z"/>
	<path fill="#FFFFFF" d="M1152.1,414.8c0-0.2,0.1-0.4,0.4-0.5c0.3-0.1,0.5-0.2,0.5-0.3c0.1-0.1,0.1-0.6,0.2-1.5c0-0.9,0.1-2,0.1-3.6
		c0-1.4,0-2.5-0.1-3.4c0-0.9-0.1-1.4-0.2-1.5c-0.1-0.1-0.2-0.2-0.5-0.3c-0.3-0.1-0.4-0.3-0.4-0.5c0-0.2,0.1-0.4,0.4-0.5
		s0.8-0.1,1.5-0.1c0.5,0,0.8,0,1,0c0.2,0,0.3,0.1,0.4,0.1c0.2,0.1,0.6,0.7,1.3,1.6c0.7,0.9,1.3,1.7,1.8,2.3l2,2.5
		c0.6,0.7,1,1.2,1.4,1.7c0.4,0.4,0.7,0.8,0.9,1.1c0-0.1,0-0.2,0-0.4c0-0.1,0-0.4,0-0.7c0-1.8,0-3.3-0.1-4.5c0-1.2-0.1-1.9-0.1-2.1
		c0-0.1-0.1-0.1-0.1-0.2c-0.1-0.1-0.1-0.1-0.2-0.1c-0.3-0.1-0.5-0.2-0.6-0.3c-0.1-0.1-0.1-0.2-0.1-0.3c0-0.2,0.1-0.4,0.4-0.5
		c0.2-0.1,0.8-0.1,1.6-0.1c0.7,0,1.2,0,1.4,0.1c0.2,0.1,0.4,0.3,0.4,0.5c0,0.1,0,0.2-0.1,0.3c-0.1,0.1-0.2,0.2-0.3,0.2
		c0,0-0.1,0-0.2,0.1c-0.2,0.1-0.4,0.2-0.4,0.4c-0.1,0.3-0.1,1-0.1,2.2c0,1.2,0,3,0,5.4c0,0.5,0,1.1,0,1.7c0,0.6,0,1,0,1.1
		c0,0.5,0,0.7-0.1,0.8c-0.1,0.1-0.2,0.2-0.4,0.2c-0.6,0-2-1.3-4.2-4l-0.3-0.4l-2-2.5c-0.9-1.1-1.5-1.9-1.8-2.3
		c-0.3-0.4-0.6-0.7-0.7-0.9c0,0.2,0,0.4,0,0.6c0,0.2,0,0.6,0,1.2v0.9c0,2.6,0,4.3,0.1,5c0.1,0.7,0.2,1,0.4,1c0.2,0,0.3,0.1,0.5,0.2
		c0.2,0.1,0.2,0.3,0.2,0.4c0,0.3-0.1,0.4-0.4,0.5c-0.3,0.1-0.8,0.2-1.5,0.2c-0.7,0-1.2-0.1-1.5-0.2
		C1152.3,415.3,1152.1,415.1,1152.1,414.8z"/>
</g>
<polygon fill="#B5680B" points="1195.4,325.7 988,325.7 983.7,321 1191.1,321 "/>
<polygon fill="#BC710D" points="1195.4,325.7 1191.1,321 1191.1,281.3 1195.4,286 "/>
<rect x="983.7" y="281.3" fill="#E08E22" width="207.4" height="39.7"/>
<g enable-background="new    ">
	<path fill="#FFFFFF" d="M1014.8,301.2c0-1.9,0.6-3.5,1.8-4.7c1.2-1.2,2.7-1.8,4.6-1.8c0.5,0,0.9,0,1.4,0.1c0.5,0.1,1,0.2,1.6,0.3
		c0.2-0.1,0.4-0.1,0.6-0.1c0.1,0,0.2,0,0.3,0c0.1,0,0.3,0.1,0.4,0.2c0.1,0.1,0.2,0.3,0.3,0.6c0.1,0.4,0.3,0.7,0.3,1.2
		c0.1,0.4,0.1,0.7,0.1,1c0,0.2-0.1,0.3-0.2,0.5c-0.1,0.1-0.2,0.2-0.4,0.2c-0.2,0-0.5-0.2-0.9-0.6c-0.1-0.1-0.1-0.2-0.2-0.2
		c0,0-0.1-0.1-0.1-0.2c-0.4-0.5-0.7-0.8-1-1c-0.3-0.2-0.7-0.4-1.1-0.5c-0.4-0.1-0.9-0.2-1.4-0.2c-1.2,0-2.2,0.4-2.9,1.3
		c-0.7,0.8-1,2-1,3.5c0,1.8,0.4,3.3,1.3,4.4c0.9,1.1,2,1.7,3.4,1.7c0.8,0,1.4-0.2,1.8-0.7c0.4-0.5,0.6-1.1,0.6-1.9
		c0-0.3,0-0.5-0.1-0.6s-0.3-0.2-0.5-0.3c-0.1,0-0.3-0.1-0.5-0.1c-0.5-0.1-0.8-0.3-0.8-0.5c0-0.3,0.2-0.5,0.5-0.6
		c0.4-0.1,1.3-0.1,2.9-0.1c1,0,1.6,0.1,1.9,0.1c0.3,0.1,0.4,0.3,0.4,0.6c0,0.1,0,0.3-0.1,0.3c-0.1,0.1-0.2,0.2-0.5,0.2
		c0,0-0.1,0-0.1,0.1c-0.3,0.1-0.5,0.2-0.6,0.4c-0.1,0.1-0.1,0.4-0.2,0.8c0,0.1,0,0.2-0.1,0.2c-0.1,0.6-0.3,1-0.4,1.3
		c-0.1,0.3-0.3,0.5-0.5,0.8c-0.4,0.5-1,0.9-1.7,1.1c-0.7,0.3-1.5,0.4-2.4,0.4c-2,0-3.7-0.6-4.9-1.9
		C1015.4,304.9,1014.8,303.3,1014.8,301.2z"/>
	<path fill="#FFFFFF" d="M1028.8,307.2c0-0.3,0.2-0.5,0.6-0.6c0.2-0.1,0.3-0.1,0.4-0.2c0.1-0.1,0.2-0.5,0.3-1.1c0-0.7,0.1-2,0.1-4
		c0-1.4,0-2.6-0.1-3.4c0-0.9-0.1-1.3-0.2-1.4c-0.1-0.1-0.3-0.2-0.6-0.3c-0.3-0.1-0.5-0.3-0.5-0.6c0-0.2,0.1-0.4,0.4-0.5
		c0.3-0.1,0.9-0.1,2-0.1c1.1,0,1.8,0,2,0.1c0.3,0.1,0.4,0.3,0.4,0.5c0,0.2-0.2,0.4-0.6,0.6c-0.2,0.1-0.3,0.1-0.4,0.2
		c-0.1,0.1-0.2,0.4-0.2,1c-0.1,0.6-0.1,1.5-0.1,2.8c0,1.5,0,2.8,0,3.8c0,1,0.1,1.6,0.1,1.8c0.1,0.3,0.2,0.5,0.5,0.6
		c0.3,0.1,0.8,0.2,1.6,0.2h0.3c0.6,0,1-0.1,1.3-0.2c0.3-0.2,0.6-0.5,0.9-0.9c0.1-0.1,0.2-0.3,0.3-0.5c0.2-0.5,0.4-0.7,0.7-0.7
		c0.1,0,0.3,0.1,0.3,0.2c0.1,0.2,0.1,0.4,0.1,0.6c0,0.4,0,0.8-0.1,1.2c-0.1,0.4-0.2,0.8-0.3,1.2c-0.1,0.3-0.2,0.4-0.3,0.5
		c-0.1,0.1-0.2,0.2-0.4,0.2l-0.5-0.1c-0.3-0.1-0.6-0.1-1-0.1h-5.3c-0.9,0-1.4,0-1.6-0.1C1028.9,307.6,1028.8,307.5,1028.8,307.2z"/>
	<path fill="#FFFFFF" d="M1039.5,307.2c0-0.3,0.2-0.5,0.6-0.6c0.2-0.1,0.3-0.1,0.4-0.2c0.1-0.1,0.2-0.5,0.3-1.3s0.1-2,0.1-3.8
		c0-1.3,0-2.4-0.1-3.3c-0.1-0.9-0.1-1.4-0.2-1.5c-0.1-0.1-0.2-0.2-0.6-0.3c-0.3-0.1-0.5-0.3-0.5-0.6c0-0.2,0.1-0.4,0.4-0.5
		c0.3-0.1,0.9-0.1,2-0.1h5.5c0.3,0,0.6,0,0.9-0.1c0.3-0.1,0.5-0.1,0.5-0.1c0.1,0,0.2,0,0.2,0.1c0.1,0,0.1,0.1,0.2,0.2
		c0.1,0.2,0.2,0.5,0.4,0.9c0.1,0.4,0.2,0.8,0.2,1.1c0,0.3-0.1,0.5-0.2,0.6c-0.1,0.1-0.2,0.2-0.4,0.2c-0.2,0-0.4-0.2-0.7-0.6
		c-0.1-0.2-0.2-0.3-0.3-0.4c-0.1-0.2-0.3-0.3-0.6-0.4c-0.3-0.1-0.6-0.1-1-0.1h-1.2c-0.6,0-1,0-1.3,0.1c-0.3,0.1-0.5,0.2-0.6,0.3
		c-0.1,0.1-0.2,0.4-0.2,0.8c0,0.4-0.1,1-0.1,1.7v0.7c0,0.3,0,0.5,0.1,0.5c0,0.1,0.2,0.1,0.3,0.1h1.6c0.5,0,0.8-0.1,1-0.2
		c0.2-0.1,0.3-0.4,0.4-0.8c0,0,0-0.1,0-0.2c0.1-0.6,0.3-0.9,0.6-0.9c0.3,0,0.4,0.2,0.5,0.5c0.1,0.3,0.1,1.1,0.1,2.2
		c0,1.1,0,1.9-0.1,2.2c-0.1,0.3-0.3,0.5-0.5,0.5c-0.3,0-0.5-0.3-0.6-0.9c0-0.1,0-0.2,0-0.2c-0.1-0.4-0.2-0.6-0.4-0.8
		c-0.2-0.1-0.5-0.2-1-0.2h-1.6c-0.2,0-0.3,0.1-0.3,0.1c-0.1,0.1-0.1,0.3-0.1,0.7v0.8c0,0.8,0,1.4,0,1.7c0,0.4,0.1,0.6,0.1,0.8
		c0.1,0.2,0.3,0.3,0.6,0.4c0.3,0.1,0.8,0.1,1.4,0.1h1.2c0.6,0,1.1-0.1,1.4-0.2c0.3-0.2,0.6-0.5,0.9-0.9c0.1-0.1,0.2-0.3,0.3-0.6
		c0.2-0.4,0.4-0.7,0.6-0.7c0.1,0,0.3,0.1,0.4,0.2c0.1,0.1,0.1,0.3,0.1,0.6c0,0.3,0,0.7-0.1,1.1c-0.1,0.4-0.2,0.9-0.4,1.3
		c-0.1,0.2-0.2,0.4-0.3,0.5s-0.2,0.2-0.3,0.2c0,0-0.1,0-0.2-0.1c-0.4-0.1-0.8-0.2-1.2-0.2h-6.1c-0.9,0-1.4,0-1.6-0.1
		C1039.7,307.6,1039.5,307.5,1039.5,307.2z"/>
	<path fill="#FFFFFF" d="M1050.8,307.2c0-0.2,0.2-0.4,0.6-0.6c0.2-0.1,0.3-0.1,0.4-0.2c0.1-0.1,0.2-0.5,0.3-1.2
		c0.1-0.7,0.1-2,0.1-3.9c0-1.4,0-2.5-0.1-3.4c0-0.9-0.1-1.4-0.2-1.5c-0.1-0.1-0.2-0.2-0.6-0.3c-0.3-0.1-0.5-0.3-0.5-0.6
		c0-0.2,0.1-0.4,0.4-0.5c0.3-0.1,0.9-0.1,2-0.1c1.1,0,1.7,0,2,0.1c0.3,0.1,0.4,0.2,0.4,0.5c0,0.2-0.2,0.4-0.5,0.6
		c-0.2,0.1-0.3,0.1-0.4,0.2c-0.1,0.1-0.2,0.4-0.2,1c0,0.6-0.1,1.6-0.1,2.9c0,1.8,0,3.3,0.1,4.3c0,1,0.1,1.6,0.2,1.7
		c0.1,0.1,0.2,0.2,0.6,0.3c0.3,0.1,0.5,0.3,0.5,0.5c0,0.3-0.2,0.4-0.5,0.6c-0.3,0.1-1,0.2-1.9,0.2c-0.9,0-1.6-0.1-1.9-0.2
		C1051,307.6,1050.8,307.5,1050.8,307.2z"/>
	<path fill="#FFFFFF" d="M1056.7,301.2c0-0.8,0.1-1.6,0.4-2.3c0.2-0.7,0.6-1.4,1.1-1.9c0.6-0.7,1.3-1.3,2.1-1.6
		c0.8-0.4,1.8-0.6,2.8-0.6c0.3,0,0.7,0,1.1,0.1c0.4,0.1,1,0.2,1.7,0.4c0,0,0.1,0,0.2-0.1c0.4-0.1,0.6-0.2,0.7-0.2
		c0.1,0,0.2,0,0.3,0.1c0.1,0.1,0.2,0.1,0.2,0.3c0.2,0.3,0.3,0.7,0.5,1.2c0.1,0.5,0.2,0.9,0.2,1.2c0,0.3,0,0.4-0.1,0.6
		c-0.1,0.1-0.2,0.2-0.4,0.2c-0.3,0-0.6-0.3-1.1-0.8c-0.2-0.3-0.4-0.5-0.6-0.6c-0.3-0.3-0.7-0.6-1.2-0.8c-0.5-0.2-1-0.3-1.6-0.3
		c-1.2,0-2.1,0.4-2.8,1.2c-0.7,0.8-1,1.9-1,3.3c0,1.8,0.4,3.3,1.3,4.4c0.9,1.1,1.9,1.7,3.3,1.7c0.5,0,1-0.1,1.5-0.3
		c0.5-0.2,0.9-0.4,1.2-0.7c0.1-0.1,0.3-0.3,0.4-0.5c0.3-0.4,0.5-0.5,0.7-0.5c0.2,0,0.3,0.1,0.4,0.2s0.1,0.4,0.1,0.7
		c0,0.6-0.1,1-0.2,1.3c-0.2,0.3-0.4,0.5-0.6,0.5c0,0,0,0-0.1,0c0,0-0.1,0-0.1,0c-0.6,0.3-1.1,0.5-1.7,0.7c-0.6,0.1-1.1,0.2-1.8,0.2
		c-0.9,0-1.7-0.1-2.5-0.4c-0.8-0.3-1.5-0.7-2.1-1.3c-0.7-0.6-1.2-1.4-1.6-2.3C1056.9,303.3,1056.7,302.3,1056.7,301.2z"/>
	<path fill="#FFFFFF" d="M1068.9,307.2c0-0.2,0.2-0.4,0.6-0.6c0.2-0.1,0.3-0.1,0.4-0.2c0.1-0.1,0.2-0.5,0.3-1.3
		c0.1-0.8,0.1-2,0.1-3.8c0-1.3,0-2.4-0.1-3.3c-0.1-0.9-0.1-1.4-0.2-1.5c-0.1-0.1-0.2-0.2-0.6-0.3c-0.3-0.1-0.5-0.3-0.5-0.6
		c0-0.2,0.1-0.4,0.4-0.5s0.9-0.1,2-0.1c1,0,1.7,0,2,0.1c0.3,0.1,0.4,0.3,0.4,0.5c0,0.2-0.2,0.4-0.6,0.6c-0.2,0.1-0.3,0.1-0.4,0.2
		c-0.1,0.1-0.2,0.3-0.2,0.7c0,0.4-0.1,1.2-0.1,2.6c0,0.2,0.1,0.4,0.3,0.5c0.2,0.1,0.8,0.1,1.6,0.1h0.8c0.9,0,1.5,0,1.9-0.1
		c0.4,0,0.6-0.1,0.7-0.2c0,0,0.1-0.1,0.1-0.2c0-0.1,0-0.2,0-0.4v-0.4c0-1.2,0-1.9-0.1-2.2c0-0.3-0.1-0.5-0.2-0.6
		c-0.1-0.1-0.2-0.1-0.4-0.2c-0.4-0.1-0.6-0.3-0.6-0.6c0-0.2,0.1-0.4,0.4-0.5c0.3-0.1,0.9-0.1,2-0.1c1.1,0,1.8,0,2,0.1
		c0.3,0.1,0.4,0.2,0.4,0.5c0,0.2-0.2,0.4-0.6,0.6c-0.2,0.1-0.3,0.1-0.4,0.2c-0.1,0.1-0.2,0.5-0.3,1.3c-0.1,0.8-0.1,2-0.1,3.6
		c0,1.4,0,2.6,0.1,3.5c0.1,0.9,0.1,1.4,0.2,1.5c0.1,0.1,0.2,0.2,0.6,0.3c0.3,0.1,0.5,0.3,0.5,0.5c0,0.3-0.2,0.4-0.5,0.6
		c-0.3,0.1-1,0.2-1.9,0.2c-1,0-1.6-0.1-1.9-0.2c-0.3-0.1-0.5-0.3-0.5-0.6c0-0.2,0.2-0.4,0.6-0.6c0.2-0.1,0.3-0.1,0.4-0.2
		c0.1-0.1,0.2-0.3,0.2-0.7c0-0.4,0.1-1.1,0.1-2.1c0-0.6,0-1.1,0-1.3c0-0.2,0-0.3-0.1-0.3c-0.1-0.1-0.2-0.2-0.5-0.2
		c-0.3,0-1-0.1-2.1-0.1c-1,0-1.6,0-1.9,0.1c-0.3,0-0.5,0.1-0.6,0.2c0,0-0.1,0.1-0.1,0.3c0,0.1,0,0.4,0,0.7v0.7c0,1,0,1.7,0.1,2.1
		c0,0.4,0.1,0.6,0.2,0.7c0.1,0.1,0.2,0.1,0.4,0.2c0.4,0.1,0.6,0.3,0.6,0.6c0,0.3-0.2,0.4-0.5,0.6s-1,0.2-1.9,0.2
		c-0.9,0-1.6-0.1-1.9-0.2C1069,307.6,1068.9,307.5,1068.9,307.2z"/>
	<path fill="#FFFFFF" d="M1087.4,304.5c0-0.3,0.1-0.5,0.2-0.6c0.1-0.1,0.3-0.2,0.5-0.2c0.3,0,0.6,0.3,0.9,0.8
		c0.1,0.2,0.2,0.3,0.2,0.4c0.4,0.7,0.8,1.1,1.2,1.5c0.5,0.3,1,0.5,1.6,0.5c0.7,0,1.2-0.2,1.7-0.6c0.5-0.4,0.7-0.9,0.7-1.4
		c0-0.8-0.9-1.6-2.7-2.4c-0.1-0.1-0.2-0.1-0.3-0.1c-1.4-0.6-2.4-1.2-2.9-1.8c-0.5-0.5-0.7-1.2-0.7-2.1c0-1.1,0.4-2,1.2-2.6
		c0.8-0.7,1.8-1,3.1-1c0.3,0,0.7,0,1.1,0.1c0.4,0.1,0.8,0.2,1.2,0.3c0.1-0.1,0.3-0.2,0.4-0.2c0.1,0,0.2-0.1,0.3-0.1
		c0.1,0,0.3,0,0.4,0.1c0.1,0.1,0.2,0.2,0.4,0.5c0.2,0.4,0.4,0.7,0.5,1.1c0.1,0.4,0.2,0.7,0.2,1c0,0.2,0,0.4-0.1,0.5
		c-0.1,0.1-0.2,0.2-0.4,0.2c-0.3,0-0.6-0.2-0.9-0.6c-0.1-0.1-0.1-0.1-0.1-0.2c-0.3-0.4-0.7-0.8-1.1-1c-0.4-0.2-0.8-0.3-1.3-0.3
		c-0.7,0-1.2,0.2-1.6,0.5c-0.4,0.3-0.6,0.7-0.6,1.3c0,0.5,0.2,0.9,0.5,1.2c0.3,0.3,1.1,0.8,2.4,1.3c0.1,0,0.2,0.1,0.4,0.2
		c1.1,0.4,1.8,0.9,2.3,1.3c0.3,0.3,0.6,0.7,0.7,1.1c0.2,0.4,0.3,0.9,0.3,1.3c0,1.2-0.4,2.2-1.3,2.9c-0.9,0.7-2,1-3.6,1
		c-0.7,0-1.4-0.1-2.1-0.2s-1.2-0.3-1.6-0.6c-0.2-0.1-0.4-0.5-0.6-1C1087.5,305.8,1087.4,305.2,1087.4,304.5z"/>
	<path fill="#FFFFFF" d="M1097.9,307.2c0-0.2,0.2-0.4,0.6-0.6c0.2-0.1,0.3-0.1,0.4-0.2c0.1-0.1,0.2-0.5,0.3-1.2
		c0.1-0.7,0.1-2,0.1-3.9c0-1.4,0-2.5-0.1-3.4c-0.1-0.9-0.1-1.4-0.2-1.5c-0.1-0.1-0.3-0.2-0.6-0.3c-0.3-0.1-0.5-0.3-0.5-0.5
		c0-0.2,0.1-0.4,0.3-0.5c0.2-0.1,0.5-0.2,0.8-0.2c0.2,0,0.5,0,0.9,0c0.4,0,0.8,0,1,0c0.5,0,1.1,0,1.8,0c0.7,0,1.2,0,1.5,0
		c1.3,0,2.4,0.3,3,0.9c0.7,0.6,1,1.4,1,2.6c0,1.2-0.4,2.2-1.2,2.9s-2,1-3.6,1c-0.3,0-0.6,0-0.9,0c-0.4,0-0.6,0-0.7,0
		c-0.1,0-0.2,0-0.3,0.1c0,0.1-0.1,0.3-0.1,0.7v0.2c0,1.3,0,2.1,0.1,2.6c0,0.5,0.1,0.7,0.2,0.8c0.1,0.1,0.2,0.1,0.4,0.2
		c0.4,0.1,0.6,0.3,0.6,0.6c0,0.3-0.2,0.5-0.5,0.6c-0.3,0.1-1,0.2-1.9,0.2c-0.9,0-1.6-0.1-1.9-0.2
		C1098,307.6,1097.9,307.5,1097.9,307.2z M1101.5,300.8c0.2,0,0.5,0,0.7,0c0.2,0,0.4,0,0.7,0c1,0,1.8-0.2,2.3-0.6
		c0.5-0.4,0.7-1,0.7-1.9c0-0.8-0.2-1.4-0.7-1.8c-0.5-0.4-1.2-0.6-2.2-0.6c-0.4,0-0.7,0-0.9,0.1c-0.2,0.1-0.3,0.2-0.4,0.4
		c0,0.2-0.1,0.4-0.1,0.8c0,0.4,0,1,0,1.9v1.2L1101.5,300.8L1101.5,300.8L1101.5,300.8z"/>
	<path fill="#FFFFFF" d="M1108.7,307.2c0-0.2,0.2-0.4,0.6-0.6c0.2-0.1,0.3-0.1,0.4-0.2c0.1-0.1,0.2-0.5,0.3-1.2
		c0.1-0.7,0.1-2,0.1-3.9c0-1.4,0-2.5-0.1-3.4c-0.1-0.9-0.1-1.4-0.2-1.5c-0.1-0.1-0.2-0.2-0.6-0.3c-0.3-0.1-0.5-0.3-0.5-0.6
		c0-0.2,0.1-0.4,0.4-0.5c0.3-0.1,0.9-0.1,2-0.1c1.1,0,1.7,0,2,0.1c0.3,0.1,0.4,0.2,0.4,0.5c0,0.2-0.2,0.4-0.5,0.6
		c-0.2,0.1-0.3,0.1-0.4,0.2c-0.1,0.1-0.2,0.4-0.2,1c0,0.6-0.1,1.6-0.1,2.9c0,1.8,0,3.3,0.1,4.3c0,1,0.1,1.6,0.2,1.7
		c0.1,0.1,0.2,0.2,0.6,0.3c0.3,0.1,0.5,0.3,0.5,0.5c0,0.3-0.2,0.4-0.5,0.6c-0.3,0.1-1,0.2-1.9,0.2c-0.9,0-1.6-0.1-1.9-0.2
		C1108.8,307.6,1108.7,307.5,1108.7,307.2z"/>
	<path fill="#FFFFFF" d="M1114.4,307.2c0-0.3,0.2-0.5,0.6-0.6c0.2-0.1,0.3-0.1,0.4-0.2c0.1-0.1,0.2-0.5,0.3-1.3
		c0.1-0.8,0.1-2,0.1-3.8c0-1.3,0-2.4-0.1-3.3c-0.1-0.9-0.1-1.4-0.2-1.5c-0.1-0.1-0.2-0.2-0.6-0.3c-0.3-0.1-0.5-0.3-0.5-0.6
		c0-0.2,0.1-0.4,0.4-0.5c0.3-0.1,0.9-0.1,2-0.1h5.5c0.3,0,0.6,0,0.9-0.1c0.3-0.1,0.5-0.1,0.5-0.1c0.1,0,0.2,0,0.2,0.1
		c0.1,0,0.1,0.1,0.2,0.2c0.1,0.2,0.2,0.5,0.4,0.9c0.1,0.4,0.2,0.8,0.2,1.1c0,0.3,0,0.5-0.1,0.6c-0.1,0.1-0.2,0.2-0.4,0.2
		c-0.2,0-0.4-0.2-0.7-0.6c-0.1-0.2-0.2-0.3-0.3-0.4c-0.1-0.2-0.3-0.3-0.6-0.4c-0.3-0.1-0.6-0.1-1-0.1h-1.2c-0.6,0-1,0-1.3,0.1
		c-0.3,0.1-0.5,0.2-0.6,0.3c-0.1,0.1-0.2,0.4-0.2,0.8c0,0.4-0.1,1-0.1,1.7v0.7c0,0.3,0,0.5,0.1,0.5c0,0.1,0.2,0.1,0.3,0.1h1.6
		c0.5,0,0.8-0.1,1-0.2c0.2-0.1,0.3-0.4,0.4-0.8c0,0,0-0.1,0-0.2c0.1-0.6,0.3-0.9,0.6-0.9c0.3,0,0.4,0.2,0.5,0.5
		c0.1,0.3,0.1,1.1,0.1,2.2c0,1.1,0,1.9-0.1,2.2c-0.1,0.3-0.3,0.5-0.5,0.5c-0.3,0-0.5-0.3-0.6-0.9c0-0.1,0-0.2,0-0.2
		c-0.1-0.4-0.2-0.6-0.4-0.8c-0.2-0.1-0.5-0.2-1-0.2h-1.6c-0.2,0-0.3,0.1-0.3,0.1c-0.1,0.1-0.1,0.3-0.1,0.7v0.8c0,0.8,0,1.4,0,1.7
		c0,0.4,0.1,0.6,0.2,0.8c0.1,0.2,0.3,0.3,0.6,0.4c0.3,0.1,0.8,0.1,1.4,0.1h1.2c0.6,0,1.1-0.1,1.4-0.2c0.3-0.2,0.6-0.5,0.9-0.9
		c0.1-0.1,0.2-0.3,0.3-0.6c0.2-0.4,0.4-0.7,0.6-0.7c0.1,0,0.3,0.1,0.4,0.2c0.1,0.1,0.1,0.3,0.1,0.6c0,0.3,0,0.7-0.1,1.1
		c-0.1,0.4-0.2,0.9-0.4,1.3c-0.1,0.2-0.2,0.4-0.3,0.5c-0.1,0.1-0.2,0.2-0.3,0.2c0,0-0.1,0-0.2-0.1c-0.4-0.1-0.8-0.2-1.2-0.2h-6.1
		c-0.9,0-1.4,0-1.6-0.1C1114.5,307.6,1114.4,307.5,1114.4,307.2z"/>
	<path fill="#FFFFFF" d="M1125.8,307.2c0-0.3,0.2-0.5,0.6-0.6c0.2-0.1,0.3-0.1,0.4-0.2c0.1-0.1,0.2-0.5,0.3-1.1c0-0.7,0.1-2,0.1-4
		c0-1.4,0-2.6-0.1-3.4c0-0.9-0.1-1.3-0.2-1.4c-0.1-0.1-0.3-0.2-0.6-0.3c-0.3-0.1-0.5-0.3-0.5-0.6c0-0.2,0.1-0.4,0.4-0.5
		c0.3-0.1,0.9-0.1,2-0.1c1.1,0,1.8,0,2,0.1c0.3,0.1,0.4,0.3,0.4,0.5c0,0.2-0.2,0.4-0.6,0.6c-0.2,0.1-0.3,0.1-0.4,0.2
		c-0.1,0.1-0.2,0.4-0.2,1c-0.1,0.6-0.1,1.5-0.1,2.8c0,1.5,0,2.8,0,3.8c0,1,0.1,1.6,0.1,1.8c0.1,0.3,0.2,0.5,0.5,0.6
		c0.3,0.1,0.8,0.2,1.6,0.2h0.3c0.6,0,1-0.1,1.3-0.2c0.3-0.2,0.6-0.5,0.9-0.9c0.1-0.1,0.2-0.3,0.3-0.5c0.2-0.5,0.4-0.7,0.7-0.7
		c0.1,0,0.3,0.1,0.4,0.2c0.1,0.2,0.1,0.4,0.1,0.6c0,0.4,0,0.8-0.1,1.2c-0.1,0.4-0.2,0.8-0.3,1.2c-0.1,0.3-0.2,0.4-0.3,0.5
		s-0.2,0.2-0.4,0.2l-0.5-0.1c-0.3-0.1-0.6-0.1-1-0.1h-5.3c-0.9,0-1.4,0-1.6-0.1S1125.8,307.5,1125.8,307.2z"/>
	<path fill="#FFFFFF" d="M1136.5,307.2c0-0.3,0.2-0.5,0.6-0.6c0.2-0.1,0.3-0.1,0.4-0.2c0.1-0.1,0.2-0.5,0.3-1.3
		c0.1-0.8,0.1-2,0.1-3.8c0-1.3,0-2.4-0.1-3.3c-0.1-0.9-0.1-1.4-0.2-1.5c-0.1-0.1-0.2-0.2-0.6-0.3c-0.3-0.1-0.5-0.3-0.5-0.6
		c0-0.2,0.1-0.4,0.4-0.5c0.3-0.1,0.9-0.1,2-0.1h5.5c0.3,0,0.6,0,0.9-0.1c0.3-0.1,0.5-0.1,0.5-0.1c0.1,0,0.2,0,0.2,0.1
		c0.1,0,0.1,0.1,0.2,0.2c0.1,0.2,0.2,0.5,0.4,0.9c0.1,0.4,0.2,0.8,0.2,1.1c0,0.3-0.1,0.5-0.1,0.6c-0.1,0.1-0.2,0.2-0.4,0.2
		c-0.2,0-0.4-0.2-0.7-0.6c-0.1-0.2-0.2-0.3-0.3-0.4c-0.1-0.2-0.3-0.3-0.6-0.4c-0.3-0.1-0.6-0.1-1-0.1h-1.2c-0.6,0-1,0-1.3,0.1
		c-0.3,0.1-0.5,0.2-0.6,0.3c-0.1,0.1-0.2,0.4-0.2,0.8c0,0.4-0.1,1-0.1,1.7v0.7c0,0.3,0,0.5,0.1,0.5c0,0.1,0.2,0.1,0.3,0.1h1.6
		c0.5,0,0.8-0.1,1-0.2c0.2-0.1,0.3-0.4,0.4-0.8c0,0,0-0.1,0-0.2c0.1-0.6,0.3-0.9,0.6-0.9c0.3,0,0.4,0.2,0.5,0.5
		c0.1,0.3,0.1,1.1,0.1,2.2c0,1.1,0,1.9-0.1,2.2c-0.1,0.3-0.3,0.5-0.5,0.5c-0.3,0-0.5-0.3-0.6-0.9c0-0.1,0-0.2,0-0.2
		c-0.1-0.4-0.2-0.6-0.4-0.8c-0.2-0.1-0.5-0.2-1-0.2h-1.6c-0.2,0-0.3,0.1-0.3,0.1c-0.1,0.1-0.1,0.3-0.1,0.7v0.8c0,0.8,0,1.4,0,1.7
		c0,0.4,0.1,0.6,0.2,0.8c0.1,0.2,0.3,0.3,0.6,0.4c0.3,0.1,0.8,0.1,1.4,0.1h1.2c0.6,0,1.1-0.1,1.4-0.2c0.3-0.2,0.6-0.5,0.9-0.9
		c0.1-0.1,0.2-0.3,0.3-0.6c0.2-0.4,0.4-0.7,0.6-0.7c0.1,0,0.3,0.1,0.4,0.2c0.1,0.1,0.1,0.3,0.1,0.6c0,0.3,0,0.7-0.1,1.1
		c-0.1,0.4-0.2,0.9-0.4,1.3c-0.1,0.2-0.2,0.4-0.3,0.5s-0.2,0.2-0.3,0.2c0,0-0.1,0-0.2-0.1c-0.4-0.1-0.8-0.2-1.2-0.2h-6.1
		c-0.9,0-1.4,0-1.6-0.1S1136.5,307.5,1136.5,307.2z"/>
	<path fill="#FFFFFF" d="M1147.8,307.2c0-0.2,0.1-0.4,0.4-0.5c0.3-0.1,0.5-0.2,0.5-0.3c0.1-0.1,0.1-0.6,0.2-1.5
		c0-0.9,0.1-2.1,0.1-3.6c0-1.4,0-2.5-0.1-3.4c0-0.9-0.1-1.4-0.2-1.5c-0.1-0.1-0.2-0.2-0.5-0.3c-0.3-0.1-0.4-0.3-0.4-0.5
		c0-0.2,0.1-0.4,0.4-0.5c0.3-0.1,0.8-0.1,1.5-0.1c0.5,0,0.8,0,1,0c0.2,0,0.3,0.1,0.3,0.1c0.2,0.1,0.6,0.7,1.3,1.6
		c0.7,0.9,1.3,1.7,1.8,2.3l2,2.5c0.6,0.7,1,1.2,1.4,1.7c0.4,0.4,0.7,0.8,0.9,1.1c0-0.1,0-0.2,0-0.4c0-0.1,0-0.4,0-0.7
		c0-1.8,0-3.3-0.1-4.5c0-1.2-0.1-1.9-0.1-2.1c0-0.1-0.1-0.1-0.1-0.2c-0.1-0.1-0.1-0.1-0.2-0.1c-0.3-0.1-0.5-0.2-0.6-0.3
		c-0.1-0.1-0.1-0.2-0.1-0.3c0-0.2,0.1-0.4,0.4-0.5c0.2-0.1,0.8-0.1,1.6-0.1c0.7,0,1.2,0,1.4,0.1c0.2,0.1,0.4,0.3,0.4,0.5
		c0,0.1,0,0.2-0.1,0.3c-0.1,0.1-0.2,0.2-0.3,0.2c0,0-0.1,0-0.2,0.1c-0.2,0.1-0.4,0.2-0.4,0.4c-0.1,0.3-0.1,1-0.1,2.1s0,3,0,5.4
		c0,0.5,0,1.1,0,1.7c0,0.6,0,1,0,1.1c0,0.5,0,0.7-0.1,0.8c-0.1,0.1-0.2,0.2-0.4,0.2c-0.6,0-2-1.3-4.2-4l-0.3-0.4l-2-2.5
		c-0.9-1.1-1.5-1.9-1.8-2.3c-0.3-0.4-0.6-0.7-0.7-0.9c0,0.2,0,0.4,0,0.6c0,0.2,0,0.6,0,1.2v0.9c0,2.6,0,4.3,0.1,5
		c0.1,0.7,0.2,1,0.4,1c0.2,0,0.3,0.1,0.5,0.2c0.2,0.1,0.2,0.3,0.2,0.4c0,0.3-0.1,0.4-0.4,0.5c-0.3,0.1-0.8,0.2-1.5,0.2
		c-0.7,0-1.2-0.1-1.5-0.2C1148,307.6,1147.8,307.4,1147.8,307.2z"/>
</g>
<polygon fill="#4E7117" points="962.8,380.3 755.4,380.3 751.1,375.6 958.4,375.6 "/>
<polygon fill="#68961E" points="962.8,380.3 958.4,375.6 958.4,335.9 962.8,340.6 "/>
<rect x="751.1" y="335.9" fill="#95D34E" width="207.4" height="39.7"/>
<polygon fill="#B5680B" points="1195.4,380.3 988,380.3 983.7,375.6 1191.1,375.6 "/>
<polygon fill="#BC710D" points="1195.4,380.3 1191.1,375.6 1191.1,335.9 1195.4,340.6 "/>
<rect x="983.7" y="335.9" fill="#F1AB3A" width="207.4" height="39.7"/>
<g enable-background="new    ">
	<path fill="#FFFFFF" d="M1014.8,355.8c0-1.9,0.6-3.5,1.8-4.7c1.2-1.2,2.7-1.8,4.6-1.8c0.5,0,0.9,0,1.4,0.1c0.5,0.1,1,0.2,1.6,0.3
		c0.2-0.1,0.4-0.1,0.6-0.1c0.1,0,0.2,0,0.3,0c0.1,0,0.3,0.1,0.4,0.2c0.1,0.1,0.2,0.3,0.3,0.6c0.1,0.4,0.3,0.7,0.3,1.2
		c0.1,0.4,0.1,0.7,0.1,1c0,0.2-0.1,0.3-0.2,0.5s-0.2,0.2-0.4,0.2c-0.2,0-0.5-0.2-0.9-0.6c-0.1-0.1-0.1-0.2-0.2-0.2
		c0,0-0.1-0.1-0.1-0.2c-0.4-0.5-0.7-0.8-1-1c-0.3-0.2-0.7-0.4-1.1-0.5c-0.4-0.1-0.9-0.2-1.4-0.2c-1.2,0-2.2,0.4-2.9,1.3
		c-0.7,0.8-1,2-1,3.5c0,1.8,0.4,3.3,1.3,4.4c0.9,1.1,2,1.7,3.4,1.7c0.8,0,1.4-0.2,1.8-0.7c0.4-0.4,0.6-1.1,0.6-1.9
		c0-0.3,0-0.5-0.1-0.6c-0.1-0.1-0.3-0.2-0.5-0.3c-0.1,0-0.3-0.1-0.5-0.1c-0.5-0.1-0.8-0.3-0.8-0.5c0-0.3,0.2-0.5,0.5-0.6
		c0.4-0.1,1.3-0.1,2.9-0.1c1,0,1.6,0.1,1.9,0.1c0.3,0.1,0.4,0.3,0.4,0.6c0,0.1,0,0.3-0.1,0.3c-0.1,0.1-0.2,0.2-0.5,0.2
		c0,0-0.1,0-0.1,0.1c-0.3,0.1-0.5,0.2-0.6,0.4c-0.1,0.1-0.1,0.4-0.2,0.8c0,0.1,0,0.2-0.1,0.2c-0.1,0.6-0.3,1-0.4,1.3
		c-0.1,0.3-0.3,0.5-0.5,0.8c-0.4,0.5-1,0.9-1.7,1.1c-0.7,0.3-1.5,0.4-2.4,0.4c-2,0-3.7-0.6-4.9-1.9
		C1015.4,359.5,1014.8,357.9,1014.8,355.8z"/>
	<path fill="#FFFFFF" d="M1028.8,361.8c0-0.3,0.2-0.5,0.6-0.6c0.2-0.1,0.3-0.1,0.4-0.2c0.1-0.1,0.2-0.5,0.3-1.1c0-0.7,0.1-2,0.1-4
		c0-1.4,0-2.6-0.1-3.4c0-0.9-0.1-1.3-0.2-1.4c-0.1-0.1-0.3-0.2-0.6-0.3c-0.3-0.1-0.5-0.3-0.5-0.6c0-0.2,0.1-0.4,0.4-0.5
		c0.3-0.1,0.9-0.1,2-0.1c1.1,0,1.8,0,2,0.1c0.3,0.1,0.4,0.3,0.4,0.5c0,0.2-0.2,0.4-0.6,0.6c-0.2,0.1-0.3,0.1-0.4,0.2
		c-0.1,0.1-0.2,0.4-0.2,1c-0.1,0.6-0.1,1.5-0.1,2.8c0,1.5,0,2.8,0,3.8c0,1,0.1,1.6,0.1,1.8c0.1,0.3,0.2,0.5,0.5,0.6
		c0.3,0.1,0.8,0.2,1.6,0.2h0.3c0.6,0,1-0.1,1.3-0.2c0.3-0.2,0.6-0.5,0.9-0.9c0.1-0.1,0.2-0.3,0.3-0.5c0.2-0.5,0.4-0.7,0.7-0.7
		c0.1,0,0.3,0.1,0.3,0.2c0.1,0.2,0.1,0.4,0.1,0.6c0,0.4,0,0.8-0.1,1.2c-0.1,0.4-0.2,0.8-0.3,1.2c-0.1,0.3-0.2,0.4-0.3,0.5
		c-0.1,0.1-0.2,0.2-0.4,0.2l-0.5-0.1c-0.3-0.1-0.6-0.1-1-0.1h-5.3c-0.9,0-1.4,0-1.6-0.1C1028.9,362.2,1028.8,362.1,1028.8,361.8z"/>
	<path fill="#FFFFFF" d="M1039.5,361.8c0-0.3,0.2-0.5,0.6-0.6c0.2-0.1,0.3-0.1,0.4-0.2c0.1-0.1,0.2-0.5,0.3-1.3
		c0.1-0.8,0.1-2,0.1-3.8c0-1.3,0-2.4-0.1-3.3c-0.1-0.9-0.1-1.4-0.2-1.5c-0.1-0.1-0.2-0.2-0.6-0.3c-0.3-0.1-0.5-0.3-0.5-0.6
		c0-0.2,0.1-0.4,0.4-0.5c0.3-0.1,0.9-0.1,2-0.1h5.5c0.3,0,0.6,0,0.9-0.1c0.3-0.1,0.5-0.1,0.5-0.1c0.1,0,0.2,0,0.2,0.1
		s0.1,0.1,0.2,0.2c0.1,0.2,0.2,0.5,0.4,0.9c0.1,0.4,0.2,0.8,0.2,1.1c0,0.3-0.1,0.5-0.2,0.6c-0.1,0.1-0.2,0.2-0.4,0.2
		c-0.2,0-0.4-0.2-0.7-0.6c-0.1-0.2-0.2-0.3-0.3-0.4c-0.1-0.2-0.3-0.3-0.6-0.4c-0.3-0.1-0.6-0.1-1-0.1h-1.2c-0.6,0-1,0-1.3,0.1
		c-0.3,0.1-0.5,0.2-0.6,0.3c-0.1,0.1-0.2,0.4-0.2,0.8c0,0.4-0.1,1-0.1,1.7v0.7c0,0.3,0,0.5,0.1,0.5s0.2,0.1,0.3,0.1h1.6
		c0.5,0,0.8-0.1,1-0.2c0.2-0.1,0.3-0.4,0.4-0.8c0,0,0-0.1,0-0.2c0.1-0.6,0.3-0.9,0.6-0.9c0.3,0,0.4,0.2,0.5,0.5
		c0.1,0.3,0.1,1.1,0.1,2.2c0,1.1,0,1.9-0.1,2.2c-0.1,0.3-0.3,0.5-0.5,0.5c-0.3,0-0.5-0.3-0.6-0.9c0-0.1,0-0.2,0-0.2
		c-0.1-0.4-0.2-0.6-0.4-0.8c-0.2-0.1-0.5-0.2-1-0.2h-1.6c-0.2,0-0.3,0.1-0.3,0.1c-0.1,0.1-0.1,0.3-0.1,0.7v0.8c0,0.8,0,1.4,0,1.7
		c0,0.4,0.1,0.6,0.1,0.8c0.1,0.2,0.3,0.3,0.6,0.4c0.3,0.1,0.8,0.1,1.4,0.1h1.2c0.6,0,1.1-0.1,1.4-0.2c0.3-0.2,0.6-0.5,0.9-0.9
		c0.1-0.1,0.2-0.3,0.3-0.6c0.2-0.4,0.4-0.7,0.6-0.7c0.1,0,0.3,0.1,0.4,0.2c0.1,0.1,0.1,0.4,0.1,0.6c0,0.3,0,0.7-0.1,1.1
		c-0.1,0.4-0.2,0.9-0.4,1.3c-0.1,0.2-0.2,0.4-0.3,0.5c-0.1,0.1-0.2,0.2-0.3,0.2c0,0-0.1,0-0.2-0.1c-0.4-0.1-0.8-0.2-1.2-0.2h-6.1
		c-0.9,0-1.4,0-1.6-0.1C1039.7,362.2,1039.5,362.1,1039.5,361.8z"/>
	<path fill="#FFFFFF" d="M1050.8,361.8c0-0.2,0.2-0.4,0.6-0.6c0.2-0.1,0.3-0.1,0.4-0.2c0.1-0.1,0.2-0.5,0.3-1.2
		c0.1-0.7,0.1-2,0.1-3.9c0-1.4,0-2.5-0.1-3.4c0-0.9-0.1-1.4-0.2-1.5c-0.1-0.1-0.2-0.2-0.6-0.3c-0.3-0.1-0.5-0.3-0.5-0.6
		c0-0.2,0.1-0.4,0.4-0.5c0.3-0.1,0.9-0.1,2-0.1c1.1,0,1.7,0,2,0.1c0.3,0.1,0.4,0.2,0.4,0.5c0,0.2-0.2,0.4-0.5,0.6
		c-0.2,0.1-0.3,0.1-0.4,0.2c-0.1,0.1-0.2,0.4-0.2,1c0,0.6-0.1,1.6-0.1,2.9c0,1.8,0,3.3,0.1,4.3c0,1,0.1,1.6,0.2,1.7
		c0.1,0.1,0.2,0.2,0.6,0.3c0.3,0.1,0.5,0.3,0.5,0.5c0,0.3-0.2,0.4-0.5,0.6c-0.3,0.1-1,0.2-1.9,0.2c-0.9,0-1.6-0.1-1.9-0.2
		C1051,362.2,1050.8,362.1,1050.8,361.8z"/>
	<path fill="#FFFFFF" d="M1056.7,355.8c0-0.8,0.1-1.6,0.4-2.3c0.2-0.7,0.6-1.4,1.1-1.9c0.6-0.7,1.3-1.3,2.1-1.6
		c0.8-0.4,1.8-0.6,2.8-0.6c0.3,0,0.7,0,1.1,0.1c0.4,0.1,1,0.2,1.7,0.4c0,0,0.1,0,0.2-0.1c0.4-0.1,0.6-0.2,0.7-0.2
		c0.1,0,0.2,0,0.3,0.1c0.1,0.1,0.2,0.1,0.2,0.3c0.2,0.3,0.3,0.7,0.5,1.2c0.1,0.5,0.2,0.9,0.2,1.2c0,0.3,0,0.4-0.1,0.6
		c-0.1,0.1-0.2,0.2-0.4,0.2c-0.3,0-0.6-0.3-1.1-0.8c-0.2-0.3-0.4-0.5-0.6-0.6c-0.3-0.3-0.7-0.6-1.2-0.8c-0.5-0.2-1-0.3-1.6-0.3
		c-1.2,0-2.1,0.4-2.8,1.2c-0.7,0.8-1,1.9-1,3.3c0,1.8,0.4,3.3,1.3,4.4c0.9,1.1,1.9,1.7,3.3,1.7c0.5,0,1-0.1,1.5-0.3
		c0.5-0.2,0.9-0.4,1.2-0.7c0.1-0.1,0.3-0.3,0.4-0.5c0.3-0.4,0.5-0.5,0.7-0.5c0.2,0,0.3,0.1,0.4,0.2s0.1,0.4,0.1,0.7
		c0,0.6-0.1,1-0.2,1.3c-0.2,0.3-0.4,0.5-0.6,0.5c0,0,0,0-0.1,0c0,0-0.1,0-0.1,0c-0.6,0.3-1.1,0.5-1.7,0.7c-0.6,0.1-1.1,0.2-1.8,0.2
		c-0.9,0-1.7-0.1-2.5-0.4c-0.8-0.3-1.5-0.7-2.1-1.3c-0.7-0.6-1.2-1.4-1.6-2.3C1056.9,357.9,1056.7,356.9,1056.7,355.8z"/>
	<path fill="#FFFFFF" d="M1068.9,361.8c0-0.2,0.2-0.4,0.6-0.6c0.2-0.1,0.3-0.1,0.4-0.2c0.1-0.1,0.2-0.5,0.3-1.3
		c0.1-0.8,0.1-2,0.1-3.8c0-1.3,0-2.4-0.1-3.3c-0.1-0.9-0.1-1.4-0.2-1.5c-0.1-0.1-0.2-0.2-0.6-0.3c-0.3-0.1-0.5-0.3-0.5-0.6
		c0-0.2,0.1-0.4,0.4-0.5c0.3-0.1,0.9-0.1,2-0.1c1,0,1.7,0,2,0.1c0.3,0.1,0.4,0.3,0.4,0.5c0,0.2-0.2,0.4-0.6,0.6
		c-0.2,0.1-0.3,0.1-0.4,0.2c-0.1,0.1-0.2,0.3-0.2,0.7c0,0.4-0.1,1.2-0.1,2.6c0,0.2,0.1,0.4,0.3,0.5c0.2,0.1,0.8,0.1,1.6,0.1h0.8
		c0.9,0,1.5,0,1.9-0.1c0.4,0,0.6-0.1,0.7-0.2c0,0,0.1-0.1,0.1-0.2c0-0.1,0-0.2,0-0.4v-0.4c0-1.2,0-1.9-0.1-2.2
		c0-0.3-0.1-0.5-0.2-0.6c-0.1-0.1-0.2-0.1-0.4-0.2c-0.4-0.1-0.6-0.3-0.6-0.6c0-0.2,0.1-0.4,0.4-0.5c0.3-0.1,0.9-0.1,2-0.1
		c1.1,0,1.8,0,2,0.1c0.3,0.1,0.4,0.2,0.4,0.5c0,0.2-0.2,0.4-0.6,0.6c-0.2,0.1-0.3,0.1-0.4,0.2c-0.1,0.1-0.2,0.5-0.3,1.4
		c-0.1,0.8-0.1,2-0.1,3.6c0,1.4,0,2.6,0.1,3.5c0.1,0.9,0.1,1.4,0.2,1.5c0.1,0.1,0.2,0.2,0.6,0.3c0.3,0.1,0.5,0.3,0.5,0.5
		c0,0.3-0.2,0.4-0.5,0.6c-0.3,0.1-1,0.2-1.9,0.2c-1,0-1.6-0.1-1.9-0.2c-0.3-0.1-0.5-0.3-0.5-0.6c0-0.2,0.2-0.4,0.6-0.6
		c0.2-0.1,0.3-0.1,0.4-0.2c0.1-0.1,0.2-0.3,0.2-0.7s0.1-1.1,0.1-2.1c0-0.6,0-1.1,0-1.3c0-0.2,0-0.3-0.1-0.4
		c-0.1-0.1-0.2-0.2-0.5-0.2c-0.3,0-1-0.1-2.1-0.1c-1,0-1.6,0-1.9,0.1c-0.3,0-0.5,0.1-0.6,0.2c0,0-0.1,0.1-0.1,0.3c0,0.1,0,0.4,0,0.7
		v0.7c0,1,0,1.7,0.1,2.1c0,0.4,0.1,0.6,0.2,0.7c0.1,0.1,0.2,0.1,0.4,0.2c0.4,0.1,0.6,0.3,0.6,0.6c0,0.3-0.2,0.4-0.5,0.6
		c-0.3,0.1-1,0.2-1.9,0.2c-0.9,0-1.6-0.1-1.9-0.2C1069,362.2,1068.9,362.1,1068.9,361.8z"/>
	<path fill="#FFFFFF" d="M1087.4,359.1c0-0.3,0.1-0.5,0.2-0.6c0.1-0.1,0.3-0.2,0.5-0.2c0.3,0,0.6,0.3,0.9,0.8
		c0.1,0.2,0.2,0.3,0.2,0.4c0.4,0.7,0.8,1.1,1.2,1.5c0.5,0.3,1,0.5,1.6,0.5c0.7,0,1.2-0.2,1.7-0.6c0.5-0.4,0.7-0.9,0.7-1.4
		c0-0.8-0.9-1.6-2.7-2.4c-0.1-0.1-0.2-0.1-0.3-0.1c-1.4-0.6-2.4-1.2-2.9-1.8c-0.5-0.5-0.7-1.2-0.7-2.1c0-1.1,0.4-2,1.2-2.6
		c0.8-0.7,1.8-1,3.1-1c0.3,0,0.7,0,1.1,0.1c0.4,0.1,0.8,0.2,1.2,0.3c0.1-0.1,0.3-0.2,0.4-0.2c0.1,0,0.2-0.1,0.3-0.1
		c0.1,0,0.3,0,0.4,0.1c0.1,0.1,0.2,0.2,0.4,0.5c0.2,0.4,0.4,0.7,0.5,1.1c0.1,0.4,0.2,0.7,0.2,1c0,0.2,0,0.4-0.1,0.5
		c-0.1,0.1-0.2,0.2-0.4,0.2c-0.3,0-0.6-0.2-0.9-0.6c-0.1-0.1-0.1-0.1-0.1-0.2c-0.3-0.4-0.7-0.8-1.1-1c-0.4-0.2-0.8-0.3-1.3-0.3
		c-0.7,0-1.2,0.2-1.6,0.5c-0.4,0.3-0.6,0.7-0.6,1.3c0,0.5,0.2,0.9,0.5,1.2c0.3,0.3,1.1,0.8,2.4,1.3c0.1,0,0.2,0.1,0.4,0.2
		c1.1,0.4,1.8,0.9,2.3,1.3c0.3,0.3,0.6,0.7,0.7,1.1c0.2,0.4,0.3,0.8,0.3,1.3c0,1.2-0.4,2.2-1.3,2.9c-0.9,0.7-2,1-3.6,1
		c-0.7,0-1.4-0.1-2.1-0.2c-0.7-0.1-1.2-0.3-1.6-0.6c-0.2-0.1-0.4-0.5-0.6-1C1087.5,360.4,1087.4,359.8,1087.4,359.1z"/>
	<path fill="#FFFFFF" d="M1097.9,361.8c0-0.2,0.2-0.4,0.6-0.6c0.2-0.1,0.3-0.1,0.4-0.2c0.1-0.1,0.2-0.5,0.3-1.2
		c0.1-0.7,0.1-2,0.1-3.9c0-1.4,0-2.5-0.1-3.4c-0.1-0.9-0.1-1.4-0.2-1.5c-0.1-0.1-0.3-0.2-0.6-0.3c-0.3-0.1-0.5-0.3-0.5-0.5
		c0-0.2,0.1-0.4,0.3-0.5c0.2-0.1,0.5-0.2,0.8-0.2c0.2,0,0.5,0,0.9,0c0.4,0,0.8,0,1,0c0.5,0,1.1,0,1.8,0c0.7,0,1.2,0,1.5,0
		c1.3,0,2.4,0.3,3,0.9c0.7,0.6,1,1.4,1,2.6c0,1.2-0.4,2.2-1.2,2.9s-2,1-3.6,1c-0.3,0-0.6,0-0.9,0c-0.4,0-0.6,0-0.7,0
		c-0.1,0-0.2,0-0.3,0.1c0,0.1-0.1,0.3-0.1,0.7v0.2c0,1.3,0,2.1,0.1,2.6c0,0.5,0.1,0.7,0.2,0.8c0.1,0.1,0.2,0.1,0.4,0.2
		c0.4,0.1,0.6,0.3,0.6,0.6c0,0.3-0.2,0.4-0.5,0.6c-0.3,0.1-1,0.2-1.9,0.2c-0.9,0-1.6-0.1-1.9-0.2
		C1098,362.2,1097.9,362.1,1097.9,361.8z M1101.5,355.4c0.2,0,0.5,0,0.7,0c0.2,0,0.4,0,0.7,0c1,0,1.8-0.2,2.3-0.6
		c0.5-0.4,0.7-1,0.7-1.9c0-0.8-0.2-1.4-0.7-1.8c-0.5-0.4-1.2-0.6-2.2-0.6c-0.4,0-0.7,0-0.9,0.1c-0.2,0.1-0.3,0.2-0.4,0.4
		c0,0.2-0.1,0.4-0.1,0.8c0,0.4,0,1,0,1.9v1.2L1101.5,355.4L1101.5,355.4L1101.5,355.4z"/>
	<path fill="#FFFFFF" d="M1108.7,361.8c0-0.2,0.2-0.4,0.6-0.6c0.2-0.1,0.3-0.1,0.4-0.2c0.1-0.1,0.2-0.5,0.3-1.2
		c0.1-0.7,0.1-2,0.1-3.9c0-1.4,0-2.5-0.1-3.4c-0.1-0.9-0.1-1.4-0.2-1.5c-0.1-0.1-0.2-0.2-0.6-0.3c-0.3-0.1-0.5-0.3-0.5-0.6
		c0-0.2,0.1-0.4,0.4-0.5c0.3-0.1,0.9-0.1,2-0.1c1.1,0,1.7,0,2,0.1c0.3,0.1,0.4,0.2,0.4,0.5c0,0.2-0.2,0.4-0.5,0.6
		c-0.2,0.1-0.3,0.1-0.4,0.2c-0.1,0.1-0.2,0.4-0.2,1c0,0.6-0.1,1.6-0.1,2.9c0,1.8,0,3.3,0.1,4.3c0,1,0.1,1.6,0.2,1.7
		c0.1,0.1,0.2,0.2,0.6,0.3c0.3,0.1,0.5,0.3,0.5,0.5c0,0.3-0.2,0.4-0.5,0.6c-0.3,0.1-1,0.2-1.9,0.2c-0.9,0-1.6-0.1-1.9-0.2
		C1108.8,362.2,1108.7,362.1,1108.7,361.8z"/>
	<path fill="#FFFFFF" d="M1114.4,361.8c0-0.3,0.2-0.5,0.6-0.6c0.2-0.1,0.3-0.1,0.4-0.2c0.1-0.1,0.2-0.5,0.3-1.3
		c0.1-0.8,0.1-2,0.1-3.8c0-1.3,0-2.4-0.1-3.3c-0.1-0.9-0.1-1.4-0.2-1.5c-0.1-0.1-0.2-0.2-0.6-0.3c-0.3-0.1-0.5-0.3-0.5-0.6
		c0-0.2,0.1-0.4,0.4-0.5c0.3-0.1,0.9-0.1,2-0.1h5.5c0.3,0,0.6,0,0.9-0.1c0.3-0.1,0.5-0.1,0.5-0.1c0.1,0,0.2,0,0.2,0.1
		c0.1,0,0.1,0.1,0.2,0.2c0.1,0.2,0.2,0.5,0.4,0.9c0.1,0.4,0.2,0.8,0.2,1.1c0,0.3,0,0.5-0.1,0.6c-0.1,0.1-0.2,0.2-0.4,0.2
		c-0.2,0-0.4-0.2-0.7-0.6c-0.1-0.2-0.2-0.3-0.3-0.4c-0.1-0.2-0.3-0.3-0.6-0.4c-0.3-0.1-0.6-0.1-1-0.1h-1.2c-0.6,0-1,0-1.3,0.1
		c-0.3,0.1-0.5,0.2-0.6,0.3c-0.1,0.1-0.2,0.4-0.2,0.8c0,0.4-0.1,1-0.1,1.7v0.7c0,0.3,0,0.5,0.1,0.5c0,0.1,0.2,0.1,0.3,0.1h1.6
		c0.5,0,0.8-0.1,1-0.2c0.2-0.1,0.3-0.4,0.4-0.8c0,0,0-0.1,0-0.2c0.1-0.6,0.3-0.9,0.6-0.9c0.3,0,0.4,0.2,0.5,0.5
		c0.1,0.3,0.1,1.1,0.1,2.2c0,1.1,0,1.9-0.1,2.2c-0.1,0.3-0.3,0.5-0.5,0.5c-0.3,0-0.5-0.3-0.6-0.9c0-0.1,0-0.2,0-0.2
		c-0.1-0.4-0.2-0.6-0.4-0.8c-0.2-0.1-0.5-0.2-1-0.2h-1.6c-0.2,0-0.3,0.1-0.3,0.1c-0.1,0.1-0.1,0.3-0.1,0.7v0.8c0,0.8,0,1.4,0,1.7
		c0,0.4,0.1,0.6,0.2,0.8c0.1,0.2,0.3,0.3,0.6,0.4c0.3,0.1,0.8,0.1,1.4,0.1h1.2c0.6,0,1.1-0.1,1.4-0.2s0.6-0.5,0.9-0.9
		c0.1-0.1,0.2-0.3,0.3-0.6c0.2-0.4,0.4-0.7,0.6-0.7c0.1,0,0.3,0.1,0.4,0.2c0.1,0.1,0.1,0.4,0.1,0.6c0,0.3,0,0.7-0.1,1.1
		c-0.1,0.4-0.2,0.9-0.4,1.3c-0.1,0.2-0.2,0.4-0.3,0.5c-0.1,0.1-0.2,0.2-0.3,0.2c0,0-0.1,0-0.2-0.1c-0.4-0.1-0.8-0.2-1.2-0.2h-6.1
		c-0.9,0-1.4,0-1.6-0.1C1114.5,362.2,1114.4,362.1,1114.4,361.8z"/>
	<path fill="#FFFFFF" d="M1125.8,361.8c0-0.3,0.2-0.5,0.6-0.6c0.2-0.1,0.3-0.1,0.4-0.2c0.1-0.1,0.2-0.5,0.3-1.1c0-0.7,0.1-2,0.1-4
		c0-1.4,0-2.6-0.1-3.4c0-0.9-0.1-1.3-0.2-1.4c-0.1-0.1-0.3-0.2-0.6-0.3c-0.3-0.1-0.5-0.3-0.5-0.6c0-0.2,0.1-0.4,0.4-0.5
		c0.3-0.1,0.9-0.1,2-0.1c1.1,0,1.8,0,2,0.1c0.3,0.1,0.4,0.3,0.4,0.5c0,0.2-0.2,0.4-0.6,0.6c-0.2,0.1-0.3,0.1-0.4,0.2
		c-0.1,0.1-0.2,0.4-0.2,1c-0.1,0.6-0.1,1.5-0.1,2.8c0,1.5,0,2.8,0,3.8c0,1,0.1,1.6,0.1,1.8c0.1,0.3,0.2,0.5,0.5,0.6
		c0.3,0.1,0.8,0.2,1.6,0.2h0.3c0.6,0,1-0.1,1.3-0.2c0.3-0.2,0.6-0.5,0.9-0.9c0.1-0.1,0.2-0.3,0.3-0.5c0.2-0.5,0.4-0.7,0.7-0.7
		c0.1,0,0.3,0.1,0.4,0.2c0.1,0.2,0.1,0.4,0.1,0.6c0,0.4,0,0.8-0.1,1.2c-0.1,0.4-0.2,0.8-0.3,1.2c-0.1,0.3-0.2,0.4-0.3,0.5
		c-0.1,0.1-0.2,0.2-0.4,0.2l-0.5-0.1c-0.3-0.1-0.6-0.1-1-0.1h-5.3c-0.9,0-1.4,0-1.6-0.1S1125.8,362.1,1125.8,361.8z"/>
	<path fill="#FFFFFF" d="M1136.5,361.8c0-0.3,0.2-0.5,0.6-0.6c0.2-0.1,0.3-0.1,0.4-0.2c0.1-0.1,0.2-0.5,0.3-1.3
		c0.1-0.8,0.1-2,0.1-3.8c0-1.3,0-2.4-0.1-3.3c-0.1-0.9-0.1-1.4-0.2-1.5c-0.1-0.1-0.2-0.2-0.6-0.3c-0.3-0.1-0.5-0.3-0.5-0.6
		c0-0.2,0.1-0.4,0.4-0.5c0.3-0.1,0.9-0.1,2-0.1h5.5c0.3,0,0.6,0,0.9-0.1c0.3-0.1,0.5-0.1,0.5-0.1c0.1,0,0.2,0,0.2,0.1
		s0.1,0.1,0.2,0.2c0.1,0.2,0.2,0.5,0.4,0.9c0.1,0.4,0.2,0.8,0.2,1.1c0,0.3-0.1,0.5-0.1,0.6c-0.1,0.1-0.2,0.2-0.4,0.2
		c-0.2,0-0.4-0.2-0.7-0.6c-0.1-0.2-0.2-0.3-0.3-0.4c-0.1-0.2-0.3-0.3-0.6-0.4c-0.3-0.1-0.6-0.1-1-0.1h-1.2c-0.6,0-1,0-1.3,0.1
		c-0.3,0.1-0.5,0.2-0.6,0.3c-0.1,0.1-0.2,0.4-0.2,0.8c0,0.4-0.1,1-0.1,1.7v0.7c0,0.3,0,0.5,0.1,0.5c0,0.1,0.2,0.1,0.3,0.1h1.6
		c0.5,0,0.8-0.1,1-0.2c0.2-0.1,0.3-0.4,0.4-0.8c0,0,0-0.1,0-0.2c0.1-0.6,0.3-0.9,0.6-0.9c0.3,0,0.4,0.2,0.5,0.5
		c0.1,0.3,0.1,1.1,0.1,2.2c0,1.1,0,1.9-0.1,2.2c-0.1,0.3-0.3,0.5-0.5,0.5c-0.3,0-0.5-0.3-0.6-0.9c0-0.1,0-0.2,0-0.2
		c-0.1-0.4-0.2-0.6-0.4-0.8c-0.2-0.1-0.5-0.2-1-0.2h-1.6c-0.2,0-0.3,0.1-0.3,0.1c-0.1,0.1-0.1,0.3-0.1,0.7v0.8c0,0.8,0,1.4,0,1.7
		c0,0.4,0.1,0.6,0.2,0.8c0.1,0.2,0.3,0.3,0.6,0.4c0.3,0.1,0.8,0.1,1.4,0.1h1.2c0.6,0,1.1-0.1,1.4-0.2c0.3-0.2,0.6-0.5,0.9-0.9
		c0.1-0.1,0.2-0.3,0.3-0.6c0.2-0.4,0.4-0.7,0.6-0.7c0.1,0,0.3,0.1,0.4,0.2c0.1,0.1,0.1,0.4,0.1,0.6c0,0.3,0,0.7-0.1,1.1
		c-0.1,0.4-0.2,0.9-0.4,1.3c-0.1,0.2-0.2,0.4-0.3,0.5c-0.1,0.1-0.2,0.2-0.3,0.2c0,0-0.1,0-0.2-0.1c-0.4-0.1-0.8-0.2-1.2-0.2h-6.1
		c-0.9,0-1.4,0-1.6-0.1C1136.6,362.2,1136.5,362.1,1136.5,361.8z"/>
	<path fill="#FFFFFF" d="M1147.8,361.8c0-0.2,0.1-0.4,0.4-0.5c0.3-0.1,0.5-0.2,0.5-0.3c0.1-0.1,0.1-0.6,0.2-1.5c0-0.9,0.1-2,0.1-3.6
		c0-1.4,0-2.5-0.1-3.4c0-0.9-0.1-1.4-0.2-1.5c-0.1-0.1-0.2-0.2-0.5-0.3c-0.3-0.1-0.4-0.3-0.4-0.5c0-0.2,0.1-0.4,0.4-0.5
		c0.3-0.1,0.8-0.1,1.5-0.1c0.5,0,0.8,0,1,0c0.2,0,0.3,0.1,0.3,0.1c0.2,0.1,0.6,0.7,1.3,1.6c0.7,0.9,1.3,1.7,1.8,2.3l2,2.5
		c0.6,0.7,1,1.2,1.4,1.7c0.4,0.4,0.7,0.8,0.9,1.1c0-0.1,0-0.2,0-0.4c0-0.1,0-0.4,0-0.7c0-1.8,0-3.3-0.1-4.5c0-1.2-0.1-1.9-0.1-2.1
		c0-0.1-0.1-0.1-0.1-0.2c-0.1-0.1-0.1-0.1-0.2-0.1c-0.3-0.1-0.5-0.2-0.6-0.3c-0.1-0.1-0.1-0.2-0.1-0.3c0-0.2,0.1-0.4,0.4-0.5
		c0.2-0.1,0.8-0.1,1.6-0.1c0.7,0,1.2,0,1.4,0.1c0.2,0.1,0.4,0.3,0.4,0.5c0,0.1,0,0.2-0.1,0.3c-0.1,0.1-0.2,0.2-0.3,0.2
		c0,0-0.1,0-0.2,0.1c-0.2,0.1-0.4,0.2-0.4,0.4c-0.1,0.3-0.1,1-0.1,2.1c0,1.2,0,3,0,5.4c0,0.5,0,1.1,0,1.7c0,0.6,0,1,0,1.1
		c0,0.5,0,0.7-0.1,0.8c-0.1,0.1-0.2,0.2-0.4,0.2c-0.6,0-2-1.3-4.2-4l-0.3-0.4l-2-2.5c-0.9-1.1-1.5-1.9-1.8-2.3
		c-0.3-0.4-0.6-0.7-0.7-0.9c0,0.2,0,0.4,0,0.6c0,0.2,0,0.6,0,1.2v0.9c0,2.6,0,4.3,0.1,5c0.1,0.7,0.2,1,0.4,1c0.2,0,0.3,0.1,0.5,0.2
		c0.2,0.1,0.2,0.3,0.2,0.4c0,0.3-0.1,0.4-0.4,0.5c-0.3,0.1-0.8,0.2-1.5,0.2c-0.7,0-1.2-0.1-1.5-0.2
		C1148,362.2,1147.8,362,1147.8,361.8z"/>
</g>
<text transform="matrix(1 0 0 1 821.3726 307.905)" fill="#FFFFFF" font-family="'CooperBT-Medium'" font-size="17.6622" letter-spacing="1">START</text>
<text transform="matrix(1 0 0 1 419.7654 272.1978)" fill="#FFFFFF" font-family="'CooperBT-Medium'" font-size="17.2">NOCHMAL SPIELEN</text>
<text transform="matrix(1 0 0 1 419.7654 330.8771)" fill="#FFFFFF" font-family="'CooperBT-Medium'" font-size="17.2">NOCHMAL SPIELEN</text>
<text transform="matrix(1 0 0 1 419.7651 379.3271)" fill="#FFFFFF" font-family="'CooperBT-Medium'" font-size="17.2">NOCHMAL SPIELEN</text>
<text transform="matrix(1 0 0 1 821.3723 362.354)" fill="#FFFFFF" font-family="'CooperBT-Medium'" font-size="17.6622" letter-spacing="1">START</text>
<text transform="matrix(1 0 0 1 821.3726 415.8075)" fill="#FFFFFF" font-family="'CooperBT-Medium'" font-size="17.6622" letter-spacing="1">START</text>
</svg>
