<?xml version="1.0" encoding="utf-8"?>
<!-- Generator: Adobe Illustrator 18.1.0, SVG Export Plug-In . SVG Version: 6.00 Build 0)  -->
<svg version="1.1" xmlns="http://www.w3.org/2000/svg" xmlns:xlink="http://www.w3.org/1999/xlink" x="0px" y="0px" width="1000px"
	 height="200px" viewBox="365 -15 1000 200" enable-background="new 365 -15 1000 200" xml:space="preserve">
<g id="Ebene_1">
	<g id="Layer_3" display="none">
	</g>
	<g>
		<g>
			<path fill="#069475" d="M683.8,12c-2.3-4.6-1.4-12.7-17.5-16.8c-20.1-5-31.6,13.2-31.2,24.4c0.4,12.1,9.7,21.3,24.1,23.8
				C676.7,46.4,689,24.2,683.8,12z"/>
		</g>
		<path fill="#FFFFFF" d="M672.5,8.9c-1.2-1.1-2.2-2.2-3.1-0.9c-4,5.7-7,11.2-10.5,16.6c-2.9-1.6-5.5-3.3-8.4-5.2
			c-1.3-0.9-2-0.9-3.5,2.2c-0.8,1.6-0.6,1.5,1,2.6c2.6,1.8,6.4,4.1,9,6c0.6,0.5,1.6,1.3,2.3,1.3c0.8,0,1.2-0.8,1.8-1.5
			c4.7-5.8,8.3-11.9,12.6-18.2C674.7,10.5,673.7,9.9,672.5,8.9z"/>
	</g>
	<g>
		<g>
			<path fill="#F3282E" d="M763.8,12c-2.3-4.6-1.4-12.7-17.5-16.8C726.2-9.8,714.7,8.4,715,19.6c0.4,12.1,9.7,21.3,24.1,23.8
				C756.7,46.4,769,24.2,763.8,12z"/>
		</g>
		<path fill="#FFFFFF" d="M731.6,33.2c2.5-3.7,5.3-7.2,8.2-10.6c2.5,3,5.8,6.9,8.4,9.9c0.8,0.9,5.1-1.9,4.3-2.8
			c-2.8-3.3-6.4-7.6-9.2-10.9c3.2-3.5,6.5-6.8,10-10c1-0.9-2.9-4.3-3.8-3.4c-3.3,3.1-6.5,6.3-9.5,9.6c-2.5-2.8-6.1-6.6-8.7-9.2
			c-1.2-1.2-4.6,2.6-3.4,3.8c2.7,2.7,6.3,6.4,8.7,9.3c-3.1,3.5-6,7.2-8.7,11.1C726.8,31.2,730.6,34.6,731.6,33.2z"/>
	</g>
</g>
<g id="Layer_2">
	<g>
		<g>
			<path fill="#D02B31" d="M473.9-11.6c-13.7-1.1-15.7-5-28.8-2.7c-9.4,1.3-10.3,0.7-27.3,9.8c-17,9.1-30,1.2-46.4,18.3
				c-7.6,7.8-8,12.9-3.5,24.9c4.4,11.3,6.2,19.6,17.4,23.9c18.8,6.8,26.8,24.5,49.1,18.7c18.7-4.9,37.3-21.9,48-37.8
				c5.3-8.3,13.7-10.7,14.5-20.9C498.1,7.3,487.6-10.6,473.9-11.6z"/>
		</g>
		<g>
			<path fill="#FFFFFF" d="M443.3,53.3c-0.8-0.3-1.7,0.1-2,0.9c-1.9,5.2-9.5,8.9-15.4,7.6c-0.1,0-0.3-0.1-0.4-0.1
				c0.4-1,0.7-2.1,1-3.5c0.6-2.5,0.8-6.6-0.3-10.2c-1.4-4.5-4.4-7.4-8.7-8.5c-2.3-0.6-4.8-0.2-7,0.7c-1.6-2.5-4.1-5.6-8.1-5.4
				c-2.3,0.1-5.1,1.5-5.8,3.8c-0.3,0.8,0.2,1.7,1,1.9c0.8,0.3,1.7-0.2,1.9-1c0.3-0.8,1.7-1.6,3-1.6c1.8-0.1,3.5,1.1,5.3,3.8
				c-1.1,0.7-2,1.6-2.7,2.5c-2.1,2.5-2.7,5.3-1.7,7.6c0.8,1.8,2.2,2.9,3.8,2.9c0,0,0,0,0.1,0c1.8,0,3.5-1.3,4.4-3.3
				c1.3-2.8,1.4-5.6,0.3-8.5c1.6-0.6,3.2-0.9,4.8-0.5c3.2,0.8,5.4,3,6.5,6.4c0.9,3.1,0.7,6.5,0.2,8.6c-0.3,1.2-0.6,2.2-0.9,3.1
				c-0.5-0.2-0.9-0.4-1.4-0.7c-1-0.5-2.1-1-3.2-1.4c-1.6-0.6-4.1-0.7-5.8,0.2c-1.1,0.6-1.7,1.6-1.9,2.7c-0.1,0.8,0.4,1.6,1.3,1.8
				c0.8,0.1,1.6-0.4,1.8-1.3c0-0.2,0.1-0.4,0.4-0.6c0.8-0.4,2.3-0.4,3.2,0c1,0.4,1.9,0.8,2.9,1.3c0.4,0.2,0.9,0.4,1.3,0.6
				c-0.8,1.1-1.8,1.9-2.8,2.7c-2,1.5-4.7,2.1-6.9,1.5c-3.4-1-5.9-3.3-6.5-6.2c-0.2-0.8-1-1.4-1.8-1.2c-0.8,0.2-1.4,1-1.2,1.8
				c0.9,4,4.2,7.2,8.7,8.5c0.8,0.2,1.7,0.3,2.6,0.3c2.4,0,5-0.9,7-2.4c1.4-1.1,2.7-2.1,3.9-4c0.4,0.1,0.7,0.2,1.1,0.3
				c1,0.2,2.1,0.3,3.2,0.3c6.7,0,13.8-4.2,15.8-9.9C444.5,54.4,444.1,53.5,443.3,53.3z M408.9,50c-0.5,1-1.2,1.5-1.7,1.5h0
				c-0.5,0-0.9-0.8-1-1.1c-0.7-1.7,0.6-3.6,1.3-4.4c0.5-0.6,1.1-1.2,1.8-1.7C409.9,46.3,409.8,48.2,408.9,50z"/>
			<path fill="#FFFFFF" d="M480-1.3c-0.4-0.6-1.1-1.1-2.5-0.4c-0.3,0.2-0.6,0.4-0.7,0.7c-0.2,0.2-0.6,0.4-1,0.7l-0.2,0.1
				c-2.9,2.3-6.1,4.4-9.3,6.4c0-1.8-0.1-3.1-0.1-3.2c-0.1-0.8-0.8-1.4-1.6-1.4c-0.8,0-1.5,0.7-1.5,1.6c0,0,0,2,0,5.1
				c-1.6,1-3,1.6-4,2.1c0.1-0.4,0-0.7-0.2-1.1c-0.4-0.7-1.4-1-2.1-0.5c-1.3,0.8-1.8,2.6-1.9,3.6c0,0.3,0.1,0.7,0.3,0.9
				c0.4,0.6,1,0.8,1.8,0.8c1.6,0,3.8-0.9,6-2.1c0,0.5,0,0.9,0,1.4c0,0.4,0,0.8,0,1.2c0,1-0.1,2.1-0.2,3.2c-0.4,7.2-1,12-1.7,15.2
				c-0.9-1-1.9-1.5-2.7-2l-0.2-0.1c-1.4-0.8-1.9-1.2-1.9-1.4c-0.1-0.1,0-0.7,0.1-1.2c0.1-0.4,0.1-0.8,0.2-1.2
				c0.1-0.8-0.4-1.5-1.2-1.7c-0.8-0.1-1.6,0.3-1.8,1.1c-0.3,1-0.5,2.4-0.8,3.9c-0.8,3.9-1.9,9.9-3.6,12.1c-0.6,0.8-1.3,1.2-1.9,1.2
				c-0.4,0-0.7-0.4-1-0.7c1.4-2.5,2.5-4.9,2.7-7.5c0.2-2.2-1-4.1-2.8-4.6c-1.2-0.3-3,0.1-3.9,2.4c-1.4,3.1-0.7,6.8,0.6,9.6
				c-0.2,0.3-0.3,0.6-0.5,0.9c-0.6,1-1.3,2.1-1.9,3.2l-0.1,0.3c-0.4,0.7-0.7,1.3-1,1.6c-0.3-0.4-0.6-1.1-0.7-1.4l-0.1-0.3
				c-0.3-0.7-0.4-2.4-0.4-4.1c0.1-1.7,0.1-3,0.1-3.7c0-0.8-0.6-1.5-1.5-1.6c-0.8,0-1.5,0.6-1.6,1.4c0,0.5-0.1,1.9-0.2,3.6
				c-0.3,4.5-1.3,9.6-2.8,10.7c-0.1,0.1-0.3,0.2-0.5,0.1c-0.6-0.9-0.5-5.1-0.5-6.7c0-1.7,0.1-2.7-0.1-3.3c-0.2-0.8-1-1.4-1.8-1.2
				c-0.8,0.2-1.4,1-1.2,1.8c0.1,0.4,0,1.6,0,2.7c-0.1,5.1,0,8.7,2.3,9.6c0.5,0.2,1,0.3,1.5,0.3c0.7,0,1.4-0.2,2.1-0.7
				c1.4-0.9,2.3-2.9,2.9-5.3c0.5,0.7,1.3,1.3,2.2,1.4c2,0.1,3.1-2.1,3.9-3.4l0.1-0.2c0.5-0.9,1.1-1.9,1.6-2.8c0.7,0.6,1.5,0.9,2.4,1
				c1.6,0.1,3.3-0.7,4.6-2.4c1.9-2.5,3-7.3,3.9-11.7c0.4,0.3,0.8,0.5,1.3,0.8l0.3,0.1c1.2,0.7,2.2,1.2,2.7,2.8
				c0.1,0.5,0.2,0.9,0,1.3c0,0,0,0,0,0c0,0.1-0.1,0.2-0.1,0.3c-0.1,0.1-0.1,0.3-0.3,0.4c-0.5,0.6-1.1,0.9-1.4,0.9
				c-0.6-0.3-1.5-0.2-1.9,0.4c-0.5,0.7-0.4,1.6,0.3,2.2c1.2,0.9,3,0.5,4.3-0.4c0.9-0.6,1.6-1.5,2.1-2.6c1-2,1.7-5,2.2-8.5
				c0.6,1.7,1.5,3.2,2.6,4.2c1.4,1.3,3.2,1.9,5.1,1.6c3.8-0.6,5.9-5.2,6.3-13.7l0-0.1c0-0.9-0.6-1.6-1.5-1.6c-0.9,0-1.6,0.6-1.6,1.5
				l0,0.1c-0.3,6.4-1.6,10.4-3.6,10.7c-1,0.1-1.8-0.1-2.5-0.8c-3-2.8-3.5-11.4-3.3-18c0-0.4,0-0.7,0-1.1c0-0.9,0.1-1.8,0.2-2.6
				c0-0.3,0-0.5,0.1-0.8c3.8-2.4,7.6-4.8,11.2-7.6l0.1-0.1c0.2-0.2,0.8-0.5,1.2-0.9C479.5,0.8,480.7,0,480-1.3z M445.7,35.3
				c-0.1,1.3-0.5,2.6-1.1,3.9c-0.4-1.6-0.4-3.3,0.2-4.7c0.2-0.4,0.4-0.6,0.4-0.6C445.4,33.9,445.8,34.4,445.7,35.3z"/>
		</g>
		<g>
			<g>
				<path fill="#FFFFFF" d="M390.3,15.1c-1.3-1-6.8-2.7-6.7,0.5c0.1,1.4,0.2,2.7,0.4,4c0,0.4,0.1,0.8,0.1,1.3
					c0.2,1.8,0.6,3.6,0.8,5.4c0.1,1.1,0.2,2.2,0.3,3.3c0.1,0.6,0.5,1.9,1,2.3c1.3,1.2,4.6-1.6,5.4-2.5c0.8-0.9,1-1.9,1.3-3
					c0.6-1.9,0.7-4.2,0.3-6.2C392.9,18.1,392.1,16.4,390.3,15.1z M390.9,23.9c-0.1,1.1-0.4,2.1-1,3.1c-0.1,0.2-0.3,0.4-0.5,0.6
					c-0.3,0.4-1,1.3-1.4,1.1c-0.3-0.2-0.5-2.5-0.6-2.9c-0.2-2.2-0.4-5-0.4-5c0.1-1.5-0.7-3.1-0.2-4c0.6-1.1,2.8,1.6,3.3,2.6
					C390.8,20.9,391,22.3,390.9,23.9z"/>
			</g>
			<g>
				<path fill="#FFFFFF" d="M398,24c-0.3-2.3-0.5-4.6-0.7-6.9c-0.1-1.2,0-3.6-1.2-4.4c-0.3-0.2-0.6-0.2-1.1,0
					c-1.3,0.5-1,2.1-0.7,3.1c0.6,2.2,1.2,4.3,1.4,6.5c0.2,1.9,0.2,3.8,0.4,5.7c0.1,0.8,0.1,1.7,0.4,2.4c0.2,0.6,1.7,0.6,2.1,0.3
					c0.5-0.4,0.4-1.5,0.4-2C398.9,27.1,398.2,25.6,398,24z"/>
			</g>
			<g>
				<path fill="#FFFFFF" d="M424.5,21c-0.1-0.8-0.3-1.6-0.4-2.4c-0.1-0.8-0.2-1.6-0.4-2.4c-0.2-1-0.2-2-0.4-3
					c-0.1-0.9,0.2-2.1-0.5-2.8c-0.3-0.3-1.3-0.6-1.7-0.4c-1.2,0.5-0.5,2.3-0.3,3.2c0.4,1.8,0.6,3.6,0.9,5.5c0.1,0.5,0.2,1,0.2,1.6
					c0.1,0.7-0.1,0.8-0.5,0.3c-0.3-0.4-0.5-0.9-0.8-1.3c-0.7-1.1-1.5-2.1-2.3-3.1c-0.6-0.8-1.1-1.7-1.8-2.5c-0.4-0.4-0.7-0.9-1-1.4
					c-0.2-0.4-0.6-0.9-0.9-1.1c-0.5-0.3-1.2-0.2-1.6,0.1c-0.1,0-0.1,0.1-0.2,0.2c-0.2,0.3-0.2,0.7-0.2,1.1c0.1,0.8,0.2,1.6,0.3,2.4
					c0.4,2.4,0.9,4.7,1.4,7.1c0.3,1.4,0.6,2.8,0.8,4.1c0.1,0.8,0.1,1.5,0.4,2.3c0.3,0.9,1.2,0.9,1.9,0.6c0.6-0.2,0.5-0.5,0.5-1.1
					c0-1.9-0.6-3.8-1.1-5.7c-0.3-1-0.4-2.1-0.7-3.1c-0.1-0.3-0.7-1.6,0-1.5c0.4,0.1,0.9,1.1,1.2,1.4c0.4,0.7,0.9,1.3,1.4,2
					c0.9,1.3,1.9,2.6,2.8,3.9c0.3,0.5,0.6,0.9,0.9,1.4c0.3,0.4,0.5,1,0.8,1.3c0.2,0.3,0.6,0.3,0.9,0.3c0.5,0,1.3-0.1,1.2-0.7
					c-0.1-1.7-0.7-3.4-0.9-5.1C424.6,21.8,424.6,21.4,424.5,21z"/>
			</g>
			<g>
				<path fill="#FFFFFF" d="M411.7,22.2c-0.1-0.8-0.3-1.6-0.4-2.4c-0.1-0.8-0.2-1.6-0.4-2.4c-0.4-1.8-0.2-3.8-1-5.6
					c-0.7-1.5-2.3-0.7-2.4,0.7c-0.1,1.6,0.6,3.1,0.8,4.7c0.1,0.9,0.4,1.7,0.6,2.6c0.1,0.4,0.5,2-0.3,1.9c-0.3-0.1-0.5-0.3-0.7-0.5
					c-0.6-0.6-1.1-1.4-1.7-2.1c-0.5-0.7-1.1-1.4-1.5-2.1c-0.4-0.7-0.8-1.3-1.2-1.9c-0.3-0.4-0.5-0.7-0.8-1.1
					c-0.4-0.7-1.1-2.2-2.1-1.5c-0.3,0.2-0.5,0.6-0.5,1.2c-0.1,1.1,0.2,2.5,0.3,3.2c0.1,1.3,0.5,2.6,0.7,3.9c0.2,1.4,0.4,2.8,0.7,4.1
					c0.1,0.7,0.2,1.4,0.3,2.1c0.1,0.6,0.1,1.3,0.3,1.9c0.1,0.5,0.2,1.3,0.9,1.4c0.3,0,0.9,0.1,1.1-0.2c0.1-0.1,0.2-0.3,0.2-0.4
					c0.1-0.4,0.1-0.8,0.1-1.2c0-0.7-0.2-1.3-0.3-2c0-0.2-0.1-0.4-0.1-0.6c0-0.4-0.1-0.9-0.2-1.3c-0.1-0.4-0.2-0.9-0.3-1.3
					c-0.1-0.3-0.1-0.6-0.2-1c-0.1-0.5-0.3-0.9-0.2-1.4c0-0.2,0.2-0.5,0.4-0.3c0.2,0.1,0.3,0.5,0.4,0.7c0.1,0.2,0.3,0.4,0.5,0.6
					c0.1,0.2,0.3,0.3,0.4,0.5c0.1,0.2,0.3,0.5,0.4,0.7c0.3,0.4,0.5,0.8,0.8,1.2c0.2,0.4,0.5,0.7,0.8,1.1c0.2,0.3,0.5,0.6,0.7,0.9
					c0.1,0.1,0.2,0.3,0.4,0.4c0.1,0.1,0.2,0.3,0.3,0.4c0.2,0.2,0.3,0.4,0.5,0.6c0.3,0.3,0.5,0.5,0.8,0.8c0.2,0.2,0.5,0.5,0.8,0.7
					c0.6,0.4,1.6,0.2,1.7-0.6c0.1-1.7-0.6-3.3-0.8-4.9C411.8,23,411.7,22.6,411.7,22.2z"/>
			</g>
			<g>
				<path fill="#FFFFFF" d="M435,24.7c-1,0.2-2.3,0.6-3.2-0.1c-0.4-0.3-0.4-0.8-0.5-1.2c-0.1-0.6-0.2-1.1-0.4-1.7
					c-0.1-0.5-0.3-0.9,0-1.4c0.3-0.6,1-0.6,1.6-0.7c0.4-0.1,2.2-0.1,2.4-0.6c0.1-0.3,0-0.7,0-1c0-0.3-0.1-0.6-0.4-0.7
					c-0.4-0.2-1,0-1.4,0c-0.5,0-1.1,0.1-1.6,0.2c-0.8,0.1-1.6,0.1-1.8-0.8c-0.1-0.4-0.2-0.9-0.3-1.4c-0.1-0.7-0.7-2.1,0.5-2.2
					c0.5-0.1,1-0.2,1.5-0.2c0.6-0.1,1.2-0.2,1.7-0.2c0.5-0.1,1.2,0,1.4-0.6c0.1-0.4,0-0.9-0.1-1.3c-0.1-0.3-0.1-0.8-0.4-1
					c-0.4-0.4-1-0.2-1.5-0.1c-0.6,0-1.2,0.1-1.8,0.1c-1.1,0.1-2.2,0.3-3.4,0.4c-0.5,0-1.1,0.1-1.4,0.5c-0.3,0.5-0.1,1.4,0,2
					c0.1,0.8,0.4,1.7,0.6,2.5c0.4,1.7,0.6,3.4,0.8,5.1c0.2,1.6,0.6,3.1,0.9,4.7c0.1,0.5,0.2,1.1,0.4,1.6c0.1,0.4,0.3,1.5,0.7,1.7
					c0.3,0.2,1.4,0,1.8,0c0.9-0.1,1.8-0.2,2.6-0.3c0.7-0.1,1.5-0.3,2.2-0.4c0.5-0.1,1-0.2,1.3-0.6c0.3-0.5,0.2-1.3-0.1-1.8
					C436.6,24.2,435.6,24.5,435,24.7z"/>
			</g>
			<g>
				<path fill="#FFFFFF" d="M448.2,22.3c-0.7-0.7-1.3-1.4-1.9-2.1c-0.4-0.5-0.9-1.1-1.3-1.7c-0.5-0.6-0.4-0.7,0-1.3
					c0.3-0.4,0.5-0.8,0.7-1.3c0.7-2.5,0.2-6-2.3-7.2c-0.7-0.3-1.5-0.6-2.2-0.7c-1.2-0.1-3.1,0.8-4.1,1.4c-1,0.8-0.4,2.4-0.2,3.4
					c0.3,1.5,0.6,3,0.8,4.4c0.2,1.3,0.5,2.5,0.7,3.7c0.2,1.3,0.3,2.5,0.9,3.8c0.1,0.3,0.2,0.5,0.4,0.8c0.5,0.8,2,1.1,2.4,0
					c0.2-0.5,0-1.1-0.1-1.6c-0.1-1-0.5-1.9-0.6-2.9c-0.1-0.4-0.3-1,0-1.2c0.8-0.7,1.7,0.8,2.1,1.3c0.5,0.5,0.9,1.1,1.4,1.6
					c0.6,0.6,1.1,1.3,1.6,1.9c0.3,0.4,0.4,0.6,0.8,0.7c0.7,0.2,1.8,0.3,2.3-0.4C450.2,23.9,448.7,22.9,448.2,22.3z M442.2,16
					c-1.3,1.4-2.1,0.1-2.5-1.3c-0.2-0.8-0.3-1.6-0.5-2.5c-0.1-0.9-0.3-1.6,0.8-2c0.2-0.1,0.4-0.1,0.6-0.1c0.7,0,1.5,0.4,1.9,0.9
					C444,12.6,443.4,14.7,442.2,16z"/>
			</g>
		</g>
	</g>
	<g>
		<path fill="#E81C33" d="M615.9,66.7c0,1-0.6,2-0.9,2.9c-0.4,0.9-0.9,1.8-1.6,2.5c-0.7,0.7-1.5,1.4-2.4,1.8c-0.9,0.4-1.9,0-3,0
			c-1.5,0-1.5,0.3-3,0.3c-1.5,0-1.5,0.5-3,0.5c-1.5,0-1.5-0.4-3-0.4c-1.5,0-1.5,0.4-3,0.4s-1.5-0.7-3-0.7c-1.5,0-1.5,0.6-3,0.6
			c-1.5,0-1.5-0.3-3-0.3c-1.5,0-1.5,0.3-3,0.3c-1,0-2-0.5-2.9-0.9c-0.9-0.4-1.8-0.9-2.5-1.6c-0.7-0.7-1.3-1.5-1.7-2.4
			c-0.4-0.9-0.2-1.9-0.2-2.9c0-1.5-0.5-1.5-0.5-3c0-1.5,0.1-1.5,0.1-3c0-1.5-0.2-1.5-0.2-3c0-1.5,0.5-1.5,0.5-3c0-1.5-0.1-1.5-0.1-3
			c0-1.5,0.1-1.5,0.1-3c0-1.5-0.6-1.5-0.6-3c0-1.5,0.2-1.5,0.2-3c0-1,0.5-1.9,0.9-2.8c0.4-0.9,0.7-1.9,1.3-2.6
			c0.7-0.7,1.7-1,2.6-1.4c0.9-0.4,1.8-0.5,2.8-0.5c1.5,0,1.5,0.1,3,0.1s1.5,0.1,3,0.1c1.5,0,1.5-0.3,3-0.3c1.5,0,1.5,0.3,3,0.3
			s1.5,0,3,0s1.5-0.4,3-0.4c1.5,0,1.5,0,3,0c1.5,0,1.5,0,3,0c1,0,1.9,0.6,2.8,0.9c0.9,0.4,1.6,1,2.3,1.7c0.7,0.7,1.3,1.3,1.7,2.3
			c0.4,0.9,1,1.8,1,2.8c0,1.5-0.2,1.5-0.2,3c0,1.5,0.3,1.5,0.3,3c0,1.5-0.2,1.5-0.2,3c0,1.5-0.4,1.5-0.4,3c0,1.5,0.1,1.5,0.1,3
			c0,1.5-0.2,1.5-0.2,3c0,1.5,0.5,1.5,0.6,3C616.1,65.2,615.9,65.2,615.9,66.7z"/>
		<g>
			<g>
				<path fill="#FFFFFF" d="M589.1,45.9c0,0.6-0.4,1.1-0.8,1.5c-0.4,0.4-0.9,0.7-1.5,0.7c-0.6,0-1.1,0.1-1.4,0.1
					c-0.5,0-0.9-0.3-1.4-0.3c-0.4,0-0.8,0.1-1.4,0.1c-0.6,0-1.2-0.1-1.6-0.4c-0.4-0.4-0.5-1-0.5-1.6c0-0.6-0.2-1.1-0.2-1.4
					c0-0.5,0.3-0.9,0.3-1.4c0-0.4-0.3-0.8-0.3-1.4c0-0.6,0.4-1.1,0.8-1.5c0.4-0.4,0.9-0.8,1.5-0.8c0.6,0,1.1,0.1,1.4,0.2
					c0.5,0,0.9,0,1.4,0c0.4,0,0.8,0,1.4,0c0.6,0,1,0.4,1.4,0.7c0.4,0.4,0.8,0.8,0.8,1.4c0,0.6-0.1,1.1-0.1,1.4
					c0,0.5,0.1,0.9,0.1,1.4C589.1,44.9,589.1,45.3,589.1,45.9z"/>
			</g>
			<g>
				<path fill="#FFFFFF" d="M600.1,45.9c0,0.6-0.1,1.1-0.5,1.5c-0.4,0.4-0.9,0.5-1.5,0.5c-0.6,0-1.1,0.1-1.4,0.1c-0.5,0-0.9,0-1.4,0
					c-0.4,0-0.8,0.1-1.4,0.1c-0.6,0-1-0.4-1.4-0.8c-0.4-0.4-0.7-0.8-0.7-1.4c0-0.6-0.1-1.1-0.1-1.4c0-0.5,0.2-0.9,0.2-1.4
					c0-0.4,0-0.8,0-1.4c0-0.6,0.2-1.2,0.5-1.6c0.4-0.4,1-0.4,1.6-0.4c0.6,0,1.1-0.1,1.4-0.1c0.5,0,0.9-0.2,1.4-0.2
					c0.4,0,0.8,0.2,1.4,0.2c0.6,0,1.2,0.1,1.6,0.5c0.4,0.4,0.4,1.1,0.4,1.6c0,0.6,0.3,1.1,0.3,1.4c0,0.5-0.2,0.9-0.2,1.4
					C600.2,44.9,600.1,45.3,600.1,45.9z"/>
			</g>
			<g>
				<path fill="#FFFFFF" d="M611.4,45.9c0,0.6-0.2,1.2-0.5,1.6c-0.4,0.4-1,0.6-1.6,0.6c-0.6,0-1.1-0.1-1.4-0.1c-0.5,0-0.9,0-1.4,0
					c-0.4,0-0.8,0.2-1.4,0.2c-0.6,0-1.2-0.2-1.6-0.6c-0.4-0.4-0.6-1-0.6-1.6c0-0.6,0.2-1.1,0.2-1.4c0-0.5-0.1-0.9-0.1-1.4
					c0-0.4,0.1-0.8,0.1-1.4c0-0.6,0.1-1.1,0.5-1.5c0.4-0.4,0.9-0.6,1.5-0.6c0.6,0,1.1-0.1,1.4-0.1c0.5,0,0.9,0.2,1.4,0.2
					c0.4,0,0.8-0.2,1.4-0.2c0.6,0,1.2,0.2,1.6,0.5c0.4,0.4,0.5,1,0.5,1.6c0,0.6,0,1.1,0,1.4c0,0.5,0.1,0.9,0.1,1.4
					C611.5,44.9,611.4,45.3,611.4,45.9z"/>
			</g>
			<g>
				<path fill="#FFFFFF" d="M589,56.8c0,0.6-0.2,1.2-0.6,1.6c-0.4,0.4-1,0.7-1.5,0.7c-0.6,0-1.1-0.2-1.4-0.2c-0.5,0-0.9,0-1.4,0
					c-0.4,0-0.8,0-1.4,0c-0.6,0-1.1-0.2-1.5-0.6c-0.4-0.4-0.7-0.9-0.7-1.5c0-0.6,0.1-1.1,0.1-1.4c0-0.5-0.2-0.9-0.2-1.4
					c0-0.4,0-0.8,0-1.4c0-0.6,0.3-1.1,0.7-1.5c0.4-0.4,0.9-0.6,1.5-0.6c0.6,0,1.1-0.2,1.4-0.2c0.5,0,0.9,0,1.4,0c0.4,0,0.8,0,1.4,0
					c0.6,0,1.1,0.4,1.5,0.8c0.4,0.4,0.8,0.8,0.8,1.4c0,0.6-0.1,1-0.2,1.4c0,0.5,0,0.9,0,1.4C588.9,55.8,589,56.2,589,56.8z"/>
			</g>
			<g>
				<path fill="#FFFFFF" d="M600.2,56.8c0,0.6-0.1,1.2-0.5,1.6c-0.4,0.4-1,0.6-1.6,0.6c-0.6,0-1-0.2-1.4-0.2c-0.5,0-0.9,0.2-1.4,0.1
					c-0.4,0-0.8-0.1-1.4-0.1c-0.6,0-1.1-0.3-1.5-0.6c-0.4-0.4-0.9-0.8-0.9-1.4c0-0.6,0.1-1.1,0.1-1.4c0-0.5,0-0.9,0-1.4
					c0-0.4,0-0.8,0-1.4c0-0.6,0.4-1.1,0.8-1.5c0.4-0.4,0.9-0.6,1.5-0.6c0.6,0,1.1,0,1.4,0c0.5,0,0.9-0.1,1.4-0.1
					c0.4,0,0.8-0.1,1.4-0.1c0.6,0,1.1,0.4,1.5,0.8c0.4,0.4,0.7,0.9,0.7,1.5c0,0.6,0,1.1,0,1.4c0,0.5-0.1,0.9,0,1.4
					C600.2,55.8,600.2,56.2,600.2,56.8z"/>
			</g>
			<g>
				<path fill="#FFFFFF" d="M611.4,56.8c0,0.6-0.2,1.2-0.6,1.6c-0.4,0.4-1,0.5-1.6,0.5c-0.6,0-1.1,0.2-1.4,0.1
					c-0.5,0-0.9-0.1-1.4-0.1c-0.4,0-0.8,0-1.4,0c-0.6,0-1.2-0.3-1.6-0.7c-0.4-0.4-0.5-0.9-0.5-1.5c0-0.6,0-1.1,0-1.4
					c0-0.5-0.1-0.9-0.1-1.4c0-0.4,0.1-0.8,0.1-1.4c0-0.6,0.4-1,0.7-1.4c0.4-0.4,0.8-0.8,1.4-0.8c0.6,0,1.1,0.1,1.4,0.1
					c0.5,0,0.9,0,1.4,0c0.4,0,0.8-0.2,1.4-0.2c0.6,0,1.2,0.4,1.6,0.8c0.4,0.4,0.7,1,0.7,1.6c0,0.6,0,1.1,0,1.4
					c0,0.5-0.2,0.9-0.2,1.4C611.3,55.8,611.4,56.2,611.4,56.8z"/>
			</g>
			<g>
				<path fill="#FFFFFF" d="M588.9,67.8c0,0.6,0,1.2-0.4,1.6c-0.4,0.4-1,0.4-1.6,0.4c-0.6,0-1.1,0.2-1.4,0.2c-0.5,0-0.9-0.2-1.4-0.2
					c-0.4,0-0.8,0.2-1.4,0.2c-0.6,0-1.2-0.2-1.6-0.6c-0.4-0.4-0.6-1-0.6-1.6c0-0.6,0-1.1,0-1.4c0-0.5-0.1-0.9-0.1-1.4
					c0-0.4,0.2-0.8,0.2-1.4c0-0.6,0.1-1.2,0.5-1.6c0.4-0.4,1-0.6,1.6-0.6c0.6,0,1-0.1,1.4-0.1c0.5,0,0.9,0.1,1.4,0
					c0.4,0,0.8,0.2,1.4,0.2c0.6,0,1.1,0.2,1.5,0.6c0.4,0.4,0.8,0.9,0.8,1.5c0,0.6-0.1,1.1-0.1,1.4c0,0.5-0.2,0.9-0.2,1.4
					C588.9,66.7,588.9,67.1,588.9,67.8z"/>
			</g>
			<g>
				<path fill="#FFFFFF" d="M600.2,67.8c0,0.6-0.2,1.1-0.6,1.5c-0.4,0.4-0.9,0.6-1.5,0.6c-0.6,0-1.1-0.1-1.4-0.1
					c-0.5,0-0.9,0.3-1.4,0.3c-0.4,0-0.8-0.3-1.4-0.3c-0.6,0-1.1-0.1-1.5-0.5c-0.4-0.4-0.7-1-0.7-1.5c0-0.6,0.2-1.1,0.2-1.4
					c0-0.5-0.3-0.9-0.3-1.4c0-0.4,0.3-0.8,0.3-1.4c0-0.6,0.1-1.2,0.5-1.5c0.4-0.4,1-0.5,1.6-0.5c0.6,0,1.1-0.2,1.4-0.2
					c0.5,0,0.9-0.1,1.4-0.1c0.4,0,0.8,0.1,1.4,0.1c0.6,0,1.2,0.3,1.6,0.7c0.4,0.4,0.7,1,0.7,1.6c0,0.6-0.2,1.1-0.2,1.4
					c0,0.5,0.2,0.9,0.2,1.4C600.3,66.7,600.2,67.1,600.2,67.8z"/>
			</g>
			<g>
				<path fill="#FFFFFF" d="M611.3,67.8c0,0.6-0.2,1-0.6,1.4c-0.4,0.4-0.8,0.8-1.4,0.8c-0.6,0-1.1-0.1-1.4-0.1
					c-0.5,0-0.9,0.1-1.4,0.1c-0.4,0-0.8-0.1-1.4-0.1c-0.6,0-1.1-0.2-1.5-0.5c-0.4-0.4-0.5-0.9-0.5-1.5c0-0.6-0.1-1.1-0.1-1.4
					c0-0.5,0-0.9,0-1.4c0-0.4,0-0.8,0-1.4c0-0.6,0.3-1.1,0.7-1.5c0.4-0.4,0.9-0.9,1.5-0.9c0.6,0,1.1,0.3,1.4,0.3
					c0.5,0,0.9-0.1,1.4-0.1c0.4,0,0.8,0,1.4,0c0.6,0,1,0.4,1.4,0.8c0.4,0.4,0.9,0.8,0.9,1.4c0,0.6-0.2,1.1-0.2,1.4
					c0,0.5,0.2,0.9,0.2,1.4C611.5,66.7,611.3,67.1,611.3,67.8z"/>
			</g>
		</g>
	</g>
	<g>
		<g>
			<path fill="#D02B31" d="M545.4,25.3c3.3-2.8,10.1-3.7,10.1-17.7c0-21-17.2-23.1-26.3-20.5c-9.8,2.8-15.7,12-14.5,24.5
				C515.7,22.2,536.5,32.1,545.4,25.3z"/>
		</g>
		<g>
			<g>
				<path fill="#FFFFFF" d="M538.4,6.9c0-1.6-5.6-1.3-5.8-0.3c-0.3,1.4,0.2,7.5,0.1,9.4c-0.1,1.9,5.7,1.3,5.6,0
					C538.3,15.2,538.3,9.8,538.4,6.9z"/>
			</g>
			<path fill="#FFFFFF" d="M535.2-4.4c-3.9,0-3.9,6.6,0,6.6c1.6,0,3-1,3.4-2.2C539.2-2.5,537.4-4.4,535.2-4.4z"/>
		</g>
	</g>
	<g>
		<g>
			<path fill="#D02B31" d="M616.3,19.5c0,1.7-0.7,3.5-1.8,4.7c-1.1,1.2-2.9,1.7-4.6,1.7c-2.8,0-2.8-0.1-5.6-0.1
				c-2.8,0-2.8,0.3-5.6,0.3c-2.8,0-2.8-0.2-5.6-0.2c-2.8,0-2.8,0.1-5.6,0.1c-2.8,0-2.8,0.3-5.6,0.3c-1.7,0-3.2-1.1-4.3-2.3
				c-1.1-1.2-1.6-2.7-1.6-4.5c0-2.7,0.2-2.7,0.2-5.4c0-2.7-0.2-2.7-0.2-5.4c0-2.7,0.2-2.7,0.2-5.4c0-2.7,0.1-2.7,0.1-5.4
				s-0.1-2.7-0.1-5.4c0-1.7,0.6-3.1,1.7-4.3c1.1-1.2,2.4-2.3,4.1-2.3c2.8,0,2.8,0.1,5.6,0.1c2.8,0,2.8,0.3,5.6,0.3
				c2.8,0,2.8,0.1,5.6,0.1c2.8,0,2.8-0.2,5.6-0.2c2.8,0,2.8-0.1,5.6-0.1c1.7,0,3.5,0.5,4.6,1.8c1.1,1.2,1.8,3,1.8,4.7
				c0,2.7-0.6,2.7-0.6,5.4c0,2.7,0.3,2.7,0.3,5.4c0,2.7,0.2,2.7,0.2,5.4c0,2.7-0.2,2.7-0.1,5.4C616.2,16.8,616.3,16.8,616.3,19.5z"
				/>
		</g>
		<g>
			<path fill="#F3F4F1" d="M588.9,9.3c0.8,0.9,5.2,2.3,5.7,3.5c-1.8,0.2-4.6,0.4-7.2,0.5c-2.6,0.1-5.6,0.5-7.4,0.4
				c0.1-1.1,1.3-3.4,1.7-5.6c0.3-1.6,0.4-3.4,0.7-5.1c0.4-2,0.3-4,0.7-5.2c0.5,0.4,1.8,5.2,2.3,5.6c1-1.9,3.1-2.8,4.9-4
				c1.8-1.1,3.9-1.5,5.9-1.8c2.3-0.4,4.2-0.2,6,0.4c1.5,0.5,3.4,1,4.8,2.3c1.4,1.3,2.4,3,2.9,4.6c0.6,1.8,1.7,3.2,0.8,4.3
				c-1.2,1.6-5,3.5-6.9,2.1c-0.5-1.8-1.2-3.6-2.3-5.1c-1.1-1.5-2.9-2.5-5.1-2.5c-1.4,0-2.8,0.9-4.2,1.8c-1.3,0.9-3,1.7-3.5,3.1"/>
		</g>
	</g>
</g>
</svg>
