<?xml version="1.0" encoding="utf-8"?>
<!-- Generator: Adobe Illustrator 16.0.3, SVG Export Plug-In . SVG Version: 6.00 Build 0)  -->
<!DOCTYPE svg PUBLIC "-//W3C//DTD SVG 1.1//EN" "http://www.w3.org/Graphics/SVG/1.1/DTD/svg11.dtd">
<svg version="1.1" id="Ebene_1" xmlns="http://www.w3.org/2000/svg" xmlns:xlink="http://www.w3.org/1999/xlink" x="0px" y="0px"
	 width="1000px" height="200px" viewBox="0 0 1000 200" enable-background="new 0 0 1000 200" xml:space="preserve">
<g id="Layer_3" display="none">
	
		<image display="inline" overflow="visible" enable-background="new    " width="1609" height="879" xlink:href="917A84B3.jpeg"  transform="matrix(0.9994 0 0 0.9989 -301.9971 -119.998)">
	</image>
</g>
<g>
	<g>
		<path fill="#F2282E" d="M108.986,4.356C95.378,3.31,93.374-0.576,80.449,1.707c-9.361,1.33-10.244,0.666-27.09,9.68
			c-16.849,9.017-29.707,1.219-46.04,18.118C-0.171,37.19-0.566,42.253,3.845,54.2c4.362,11.23,6.121,19.433,17.299,23.742
			c18.599,6.702,26.584,24.342,48.729,18.58c18.574-4.811,37.025-21.699,47.618-37.504c5.273-8.259,13.55-10.567,14.342-20.692
			C133.021,23.134,122.592,5.403,108.986,4.356z"/>
	</g>
	<g>
		<path fill="#FFFFFF" d="M78.635,68.681c-0.794-0.289-1.673,0.121-1.96,0.915c-1.87,5.137-9.458,8.866-15.318,7.528
			c-0.134-0.03-0.268-0.068-0.4-0.103c0.372-0.987,0.72-2.125,1.031-3.471c0.583-2.516,0.812-6.503-0.297-10.152
			c-1.355-4.459-4.325-7.373-8.59-8.425c-2.304-0.569-4.733-0.192-6.917,0.724c-1.588-2.451-4.112-5.543-8.072-5.332
			c-2.302,0.129-5.015,1.463-5.744,3.764c-0.255,0.806,0.19,1.666,0.996,1.92c0.804,0.255,1.665-0.19,1.92-0.996
			c0.252-0.795,1.653-1.559,2.996-1.633c1.793-0.106,3.451,1.098,5.214,3.752c-1.054,0.728-1.982,1.567-2.722,2.45
			c-2.096,2.505-2.718,5.248-1.707,7.525c0.813,1.832,2.194,2.895,3.787,2.919c0.02,0.001,0.037,0.001,0.055,0.001
			c1.757,0,3.442-1.246,4.408-3.265c1.309-2.733,1.403-5.546,0.291-8.391c1.546-0.607,3.217-0.85,4.761-0.469
			c3.207,0.791,5.359,2.925,6.396,6.345c0.935,3.071,0.739,6.441,0.245,8.571c-0.284,1.225-0.585,2.229-0.908,3.084
			c-0.465-0.211-0.931-0.436-1.406-0.664c-1.003-0.484-2.04-0.984-3.126-1.398c-1.601-0.61-4.097-0.722-5.764,0.246
			c-1.042,0.603-1.69,1.543-1.876,2.717c-0.133,0.834,0.437,1.618,1.271,1.75c0.836,0.131,1.617-0.438,1.75-1.271
			c0.034-0.214,0.113-0.39,0.389-0.55c0.754-0.438,2.26-0.369,3.141-0.034c0.964,0.368,1.898,0.817,2.887,1.293
			c0.436,0.211,0.876,0.423,1.323,0.63c-0.82,1.128-1.75,1.861-2.824,2.697c-1.97,1.535-4.649,2.13-6.823,1.521
			c-3.394-0.955-5.811-3.248-6.465-6.132c-0.188-0.824-1.006-1.34-1.83-1.153c-0.825,0.188-1.341,1.007-1.153,1.83
			c0.907,3.996,4.13,7.136,8.62,8.399c0.822,0.229,1.69,0.343,2.573,0.343c2.43,0,4.971-0.847,6.959-2.396
			c1.367-1.066,2.691-2.099,3.858-3.96c0.35,0.108,0.705,0.209,1.07,0.292c1.026,0.234,2.087,0.345,3.161,0.345
			c6.598,0,13.668-4.188,15.715-9.809C79.838,69.847,79.43,68.97,78.635,68.681z M44.555,65.483
			c-0.479,1.004-1.191,1.525-1.648,1.525c-0.003,0-0.005,0-0.008,0c-0.498-0.006-0.891-0.771-1.037-1.101
			c-0.738-1.665,0.632-3.575,1.256-4.32c0.489-0.585,1.095-1.152,1.78-1.664C45.539,61.834,45.424,63.669,44.555,65.483z"/>
		<path fill="#FFFFFF" d="M114.986,14.573c-0.349-0.578-1.065-1.113-2.498-0.374c-0.323,0.167-0.562,0.432-0.696,0.738
			c-0.24,0.172-0.549,0.394-0.957,0.678l-0.171,0.122c-2.911,2.257-6.067,4.317-9.208,6.298c-0.026-1.805-0.131-3.087-0.139-3.177
			c-0.07-0.821-0.77-1.427-1.596-1.4c-0.823,0.04-1.467,0.722-1.46,1.544c0.003,0.037,0.019,2.026-0.029,5.043
			c-1.597,0.965-2.925,1.624-3.933,2.044c0.067-0.357,0.01-0.739-0.191-1.074c-0.434-0.726-1.372-0.961-2.096-0.528
			c-1.28,0.766-1.824,2.568-1.867,3.525c-0.015,0.333,0.082,0.664,0.271,0.939c0.385,0.558,1.018,0.793,1.807,0.793
			c1.574,0,3.78-0.938,5.927-2.117c-0.015,0.463-0.028,0.933-0.044,1.417c-0.019,0.391-0.035,0.802-0.046,1.231
			c-0.041,1.037-0.091,2.109-0.152,3.197c-0.39,7.156-1.012,11.892-1.67,15.029c-0.85-0.959-1.851-1.523-2.668-1.982l-0.248-0.138
			c-1.425-0.803-1.836-1.18-1.933-1.354c-0.064-0.121,0.026-0.696,0.105-1.205c0.056-0.351,0.119-0.748,0.172-1.202
			c0.097-0.797-0.441-1.534-1.229-1.686c-0.789-0.146-1.559,0.333-1.767,1.109c-0.26,0.969-0.52,2.334-0.823,3.916
			c-0.748,3.893-1.875,9.777-3.6,12.016c-0.597,0.776-1.326,1.219-1.866,1.19c-0.403-0.031-0.73-0.35-0.966-0.692
			c1.378-2.437,2.484-4.837,2.66-7.416c0.15-2.201-1.032-4.115-2.812-4.551c-1.202-0.296-2.949,0.147-3.913,2.354
			c-1.346,3.082-0.668,6.739,0.571,9.531c-0.17,0.288-0.346,0.578-0.522,0.873c-0.615,1.025-1.251,2.086-1.87,3.207l-0.137,0.256
			c-0.398,0.74-0.724,1.265-0.972,1.569c-0.269-0.422-0.561-1.116-0.674-1.389l-0.117-0.274c-0.292-0.683-0.396-2.342-0.391-4.097
			c0.117-1.663,0.142-3.002,0.146-3.634c0.006-0.823-0.643-1.503-1.464-1.539c-0.804-0.027-1.525,0.587-1.59,1.407
			c-0.041,0.502-0.142,1.925-0.153,3.549c-0.337,4.492-1.251,9.562-2.77,10.599c-0.129,0.088-0.262,0.154-0.531,0.079
			c-0.585-0.934-0.494-5.054-0.459-6.632c0.037-1.665,0.052-2.638-0.071-3.299c-0.155-0.831-0.949-1.383-1.784-1.224
			c-0.83,0.154-1.377,0.953-1.224,1.782c0.07,0.383,0.044,1.6,0.021,2.674c-0.111,5.011-0.013,8.627,2.293,9.513
			c0.489,0.187,0.973,0.28,1.444,0.28c0.72,0,1.406-0.216,2.037-0.646c1.365-0.932,2.292-2.916,2.921-5.209
			c0.533,0.717,1.246,1.297,2.206,1.342c1.95,0.082,3.121-2.091,3.828-3.401l0.12-0.225c0.52-0.939,1.06-1.85,1.588-2.734
			c0.689,0.588,1.489,0.933,2.356,0.999c1.623,0.12,3.263-0.743,4.518-2.372c1.911-2.479,3.003-7.284,3.85-11.587
			c0.374,0.248,0.803,0.509,1.299,0.788l0.257,0.144c1.215,0.68,2.175,1.219,2.651,2.77c0.142,0.462,0.155,0.881,0.042,1.266
			c-0.002,0.001-0.002,0.002-0.002,0.004c-0.046,0.09-0.082,0.183-0.108,0.276c-0.065,0.138-0.147,0.271-0.25,0.401
			c-0.469,0.593-1.123,0.853-1.403,0.891c-0.64-0.339-1.448-0.184-1.913,0.404c-0.525,0.661-0.415,1.623,0.248,2.147
			c1.167,0.926,2.958,0.474,4.216-0.385c0.847-0.575,1.629-1.46,2.042-2.581c0.946-1.975,1.657-4.964,2.186-8.401
			c0.616,1.711,1.439,3.173,2.527,4.192c1.388,1.302,3.136,1.843,5.057,1.561c3.784-0.555,5.875-5.113,6.22-13.546l0.004-0.101
			c0.034-0.843-0.621-1.557-1.464-1.592c-0.848-0.044-1.556,0.621-1.591,1.466l-0.006,0.102c-0.26,6.372-1.608,10.352-3.607,10.646
			c-1.006,0.146-1.808-0.097-2.521-0.767c-2.928-2.745-3.469-11.309-3.273-17.809c0.015-0.364,0.028-0.723,0.04-1.077
			c0.041-0.921,0.095-1.788,0.159-2.574c0.02-0.265,0.038-0.528,0.052-0.791c3.748-2.339,7.583-4.77,11.13-7.516l0.076-0.053
			c0.226-0.158,0.745-0.521,1.199-0.855C114.565,16.693,115.744,15.827,114.986,14.573z M81.022,50.851
			c-0.086,1.28-0.498,2.559-1.107,3.881c-0.349-1.57-0.378-3.237,0.238-4.646c0.191-0.435,0.379-0.589,0.381-0.606
			C80.692,49.52,81.081,50.001,81.022,50.851z"/>
	</g>
	<g>
		<g>
			<path fill="#FFFFFF" d="M26.13,30.814c-1.325-1-6.764-2.677-6.598,0.491c0.07,1.339,0.24,2.627,0.367,3.954
				c0.04,0.416,0.087,0.835,0.143,1.255c0.233,1.787,0.569,3.606,0.75,5.371c0.112,1.089,0.153,2.18,0.316,3.252
				c0.092,0.609,0.522,1.922,0.996,2.33c1.333,1.148,4.604-1.594,5.397-2.509c0.763-0.878,1.008-1.874,1.32-2.944
				c0.558-1.917,0.662-4.182,0.255-6.182C28.665,33.812,27.856,32.115,26.13,30.814z M26.659,39.614
				c-0.109,1.122-0.412,2.113-0.992,3.024c-0.135,0.212-0.285,0.421-0.451,0.625c-0.298,0.367-0.982,1.315-1.364,1.044
				c-0.333-0.236-0.534-2.462-0.573-2.868c-0.213-2.146-0.374-4.994-0.374-4.994c0.055-1.443-0.646-3.061-0.197-3.939
				c0.568-1.112,2.79,1.613,3.234,2.616C26.599,36.607,26.817,37.986,26.659,39.614z"/>
		</g>
		<g>
			<path fill="#FFFFFF" d="M33.731,39.699c-0.252-2.29-0.456-4.595-0.706-6.875c-0.136-1.237-0.006-3.547-1.216-4.326
				c-0.281-0.18-0.631-0.215-1.071-0.039c-1.243,0.498-1.023,2.049-0.722,3.083c0.625,2.147,1.192,4.235,1.421,6.457
				c0.193,1.877,0.247,3.774,0.419,5.656c0.071,0.774,0.071,1.692,0.381,2.419c0.244,0.573,1.655,0.604,2.072,0.25
				c0.49-0.415,0.432-1.445,0.392-2.005C34.587,42.739,33.904,41.264,33.731,39.699z"/>
		</g>
		<g>
			<path fill="#FFFFFF" d="M60.028,36.68c-0.116-0.808-0.301-1.618-0.422-2.417c-0.12-0.795-0.171-1.565-0.358-2.342
				c-0.242-0.997-0.191-2.001-0.352-3c-0.138-0.864,0.178-2.071-0.532-2.767c-0.307-0.3-1.241-0.562-1.647-0.394
				c-1.204,0.495-0.454,2.302-0.26,3.188c0.389,1.773,0.581,3.616,0.861,5.414c0.08,0.512,0.155,1.024,0.232,1.538
				c0.097,0.653-0.105,0.782-0.537,0.262c-0.326-0.394-0.527-0.877-0.79-1.318c-0.662-1.108-1.498-2.058-2.244-3.117
				c-0.582-0.827-1.087-1.665-1.755-2.434c-0.387-0.444-0.667-0.854-0.974-1.341c-0.222-0.354-0.59-0.863-0.937-1.094
				c-0.457-0.303-1.178-0.208-1.615,0.109c-0.068,0.049-0.123,0.1-0.168,0.155c-0.235,0.29-0.183,0.664-0.153,1.092
				c0.054,0.811,0.189,1.618,0.325,2.419c0.397,2.348,0.893,4.68,1.37,7.015c0.279,1.364,0.558,2.729,0.819,4.096
				c0.143,0.745,0.147,1.513,0.41,2.234c0.319,0.875,1.161,0.91,1.933,0.628c0.548-0.2,0.461-0.516,0.463-1.071
				c0.008-1.872-0.6-3.799-1.047-5.604c-0.249-1.003-0.404-2.074-0.721-3.054c-0.082-0.25-0.711-1.55,0.022-1.461
				c0.424,0.051,0.941,1.057,1.152,1.368c0.443,0.658,0.896,1.311,1.353,1.96c0.91,1.296,1.836,2.581,2.742,3.878
				c0.313,0.448,0.632,0.893,0.934,1.349c0.269,0.405,0.481,0.985,0.811,1.334c0.241,0.257,0.558,0.314,0.912,0.32
				c0.542,0.01,1.283-0.049,1.234-0.726c-0.119-1.712-0.722-3.34-0.896-5.017C60.147,37.477,60.086,37.084,60.028,36.68z"/>
		</g>
		<g>
			<path fill="#FFFFFF" d="M47.29,37.9c-0.117-0.808-0.302-1.618-0.423-2.417c-0.119-0.795-0.171-1.565-0.358-2.342
				c-0.439-1.817-0.165-3.774-0.947-5.528c-0.661-1.48-2.282-0.657-2.33,0.647c-0.058,1.578,0.609,3.088,0.777,4.64
				c0.097,0.89,0.42,1.735,0.626,2.601c0.085,0.361,0.544,2.013-0.248,1.845c-0.278-0.059-0.476-0.25-0.669-0.452
				c-0.599-0.627-1.13-1.36-1.651-2.047c-0.508-0.672-1.053-1.392-1.471-2.125c-0.384-0.672-0.754-1.3-1.227-1.917
				c-0.267-0.348-0.544-0.672-0.753-1.05c-0.374-0.668-1.115-2.164-2.083-1.507c-0.308,0.208-0.453,0.636-0.504,1.15
				c-0.107,1.074,0.188,2.528,0.252,3.163c0.127,1.297,0.496,2.609,0.686,3.903c0.2,1.367,0.43,2.729,0.658,4.091
				c0.115,0.685,0.23,1.371,0.342,2.058c0.099,0.604,0.14,1.24,0.261,1.835c0.104,0.497,0.228,1.315,0.865,1.349
				c0.302,0.015,0.898,0.064,1.127-0.19c0.089-0.101,0.175-0.285,0.215-0.417c0.112-0.368,0.134-0.76,0.135-1.146
				c0.001-0.672-0.155-1.312-0.248-1.97c-0.031-0.213-0.066-0.424-0.09-0.639c-0.045-0.428-0.091-0.916-0.21-1.329
				c-0.122-0.424-0.171-0.883-0.257-1.316c-0.063-0.322-0.132-0.637-0.185-0.959c-0.076-0.466-0.286-0.938-0.229-1.419
				c0.024-0.196,0.18-0.458,0.407-0.304c0.189,0.128,0.313,0.493,0.443,0.683c0.146,0.211,0.324,0.381,0.471,0.589
				c0.128,0.18,0.279,0.331,0.389,0.522c0.136,0.237,0.26,0.465,0.421,0.688c0.276,0.38,0.528,0.776,0.788,1.165
				c0.24,0.362,0.537,0.682,0.78,1.042c0.22,0.326,0.464,0.635,0.712,0.94c0.119,0.146,0.244,0.269,0.373,0.396
				c0.13,0.129,0.208,0.3,0.332,0.432c0.176,0.183,0.343,0.376,0.521,0.556c0.258,0.263,0.537,0.515,0.792,0.792
				c0.215,0.235,0.48,0.504,0.752,0.677c0.616,0.394,1.617,0.183,1.688-0.628c0.146-1.653-0.6-3.235-0.769-4.858
				C47.41,38.698,47.349,38.305,47.29,37.9z"/>
		</g>
		<g>
			<path fill="#FFFFFF" d="M70.438,40.323c-0.977,0.185-2.265,0.559-3.128-0.147c-0.401-0.33-0.422-0.751-0.533-1.22
				c-0.134-0.561-0.241-1.139-0.39-1.693c-0.133-0.497-0.261-0.938-0.002-1.436c0.32-0.612,0.949-0.601,1.553-0.701
				c0.41-0.067,2.215-0.074,2.398-0.547c0.1-0.251-0.009-0.715-0.041-0.989c-0.034-0.28-0.138-0.558-0.424-0.665
				c-0.406-0.151-0.984-0.01-1.407,0.01c-0.536,0.024-1.052,0.137-1.593,0.19c-0.775,0.077-1.571,0.131-1.754-0.823
				c-0.084-0.446-0.192-0.904-0.288-1.344c-0.149-0.688-0.663-2.109,0.463-2.23c0.506-0.054,1.007-0.161,1.513-0.228
				c0.576-0.077,1.15-0.152,1.726-0.23c0.505-0.067,1.161-0.042,1.357-0.635c0.138-0.413-0.043-0.887-0.118-1.297
				c-0.063-0.344-0.106-0.769-0.384-1.015c-0.426-0.374-0.972-0.156-1.475-0.132c-0.592,0.028-1.163,0.07-1.744,0.126
				c-1.099,0.104-2.217,0.297-3.346,0.351c-0.452,0.02-1.113,0.074-1.394,0.477c-0.339,0.488-0.064,1.416,0.021,1.961
				c0.132,0.835,0.366,1.654,0.558,2.478c0.391,1.671,0.574,3.351,0.762,5.058c0.169,1.563,0.554,3.11,0.934,4.632
				c0.131,0.525,0.233,1.056,0.369,1.58c0.112,0.431,0.249,1.451,0.647,1.733c0.317,0.226,1.368,0.036,1.781,0.01
				c0.871-0.055,1.738-0.152,2.598-0.287c0.736-0.115,1.463-0.279,2.19-0.431c0.458-0.096,1.033-0.157,1.291-0.6
				c0.301-0.515,0.23-1.328-0.137-1.788C71.97,39.902,71.04,40.21,70.438,40.323z"/>
		</g>
		<g>
			<path fill="#FFFFFF" d="M83.482,37.991c-0.666-0.684-1.261-1.375-1.836-2.091c-0.441-0.545-0.87-1.104-1.316-1.684
				c-0.454-0.587-0.422-0.675-0.047-1.313c0.248-0.422,0.537-0.8,0.67-1.281c0.679-2.438,0.159-5.91-2.314-7.143
				c-0.677-0.338-1.438-0.641-2.203-0.679c-1.175-0.06-3.063,0.752-4.019,1.437c-1.042,0.745-0.388,2.344-0.188,3.328
				c0.299,1.465,0.615,2.929,0.822,4.412c0.175,1.247,0.505,2.464,0.729,3.701c0.232,1.283,0.349,2.521,0.875,3.735
				c0.111,0.251,0.21,0.521,0.368,0.747c0.528,0.767,2.029,1.051,2.366-0.006c0.162-0.504-0.041-1.098-0.096-1.611
				c-0.104-0.967-0.448-1.882-0.638-2.831c-0.073-0.355-0.282-0.995-0.023-1.234c0.781-0.722,1.685,0.815,2.059,1.244
				c0.464,0.534,0.88,1.065,1.388,1.549c0.584,0.557,1.118,1.259,1.604,1.899c0.264,0.348,0.426,0.592,0.838,0.695
				c0.742,0.185,1.767,0.336,2.286-0.357C85.526,39.548,84.038,38.562,83.482,37.991z M77.533,31.769
				c-1.277,1.399-2.071,0.052-2.438-1.258c-0.223-0.795-0.346-1.616-0.478-2.431c-0.149-0.915-0.343-1.561,0.753-1.95
				c0.165-0.059,0.355-0.079,0.553-0.068c0.696,0.034,1.523,0.432,1.927,0.846C79.288,28.375,78.778,30.405,77.533,31.769z"/>
		</g>
	</g>
</g>
<g>
	<g>
		<path fill="#F2282E" d="M180.625,39.46c3.295-2.789,10.193-3.681,10.037-17.622c-0.161-13.939-17.138-22.947-26.095-20.412
			c-9.772,2.769-15.624,11.895-14.409,24.384C151.188,36.368,171.766,46.179,180.625,39.46z"/>
	</g>
	<g>
		<g>
			<path fill="#FFFFFF" d="M171.068,28.168c0.115-1.533,0.3-3.056,0.411-4.582c0.065-0.828,0.712-2.199-0.809-3.232
				c-0.355-0.24-0.833-0.419-1.481-0.51c-1.826-0.258-1.836,0.805-1.627,1.582c0.431,1.615,0.798,3.166,0.667,4.646
				c-0.115,1.251-0.424,2.449-0.567,3.696c-0.055,0.512-0.243,1.081,0.041,1.672c0.223,0.466,2.178,1.126,2.827,1.096
				c0.766-0.036,0.892-0.699,0.949-1.064C171.642,30.44,170.991,29.217,171.068,28.168z"/>
		</g>
		<path fill="#FFFFFF" d="M169.289,10.403c-3.302,0-3.302,5.083,0,5.083C172.589,15.485,172.589,10.403,169.289,10.403z"/>
	</g>
</g>
<path fill="#F3282E" d="M210.029,38.8c3.459-5.014,7.209-9.783,11.162-14.381c3.408,4.012,7.914,9.413,11.342,13.41
	c1.09,1.268,6.949-2.52,5.818-3.838c-3.822-4.451-8.708-10.32-12.512-14.789c4.336-4.704,8.871-9.233,13.551-13.617
	c1.304-1.221-3.909-5.846-5.184-4.652c-4.462,4.18-8.791,8.49-12.942,12.957c-3.362-3.835-8.269-8.918-11.868-12.543
	c-1.648-1.658-6.282,3.541-4.65,5.184c3.603,3.625,8.498,8.716,11.855,12.555c-4.172,4.805-8.125,9.801-11.756,15.062
	C203.536,36.045,208.688,40.743,210.029,38.8z"/>
<g>
	<g>
		<path fill="#069475" d="M318.787,26.968c-2.279-4.63-1.367-12.686-17.535-16.752c-20.076-5.049-31.591,13.233-31.244,24.359
			c0.376,12.139,9.71,21.273,24.113,23.785C311.707,61.426,324.015,39.196,318.787,26.968z"/>
	</g>
	<path fill="#FFFFFF" d="M307.538,23.882c-1.25-1.122-2.177-2.226-3.089-0.923c-4.023,5.737-6.991,11.224-10.548,16.587
		c-2.91-1.618-5.528-3.317-8.356-5.174c-1.333-0.875-1.963-0.907-3.482,2.213c-0.763,1.567-0.644,1.509,1.026,2.634
		c2.599,1.751,6.395,4.102,9.028,6.045c0.613,0.453,1.648,1.29,2.338,1.286c0.781-0.005,1.238-0.833,1.781-1.506
		c4.656-5.775,8.3-11.853,12.554-18.186C309.674,25.539,308.651,24.881,307.538,23.882z"/>
</g>
<g>
	<g>
		<path fill="#F3282E" d="M398.787,26.968c-2.28-4.63-1.366-12.686-17.535-16.751c-20.076-5.05-31.591,13.232-31.244,24.358
			c0.376,12.139,9.71,21.273,24.113,23.785C391.708,61.426,404.015,39.196,398.787,26.968z"/>
	</g>
	<path fill="#FFFFFF" d="M366.619,48.187c2.55-3.696,5.314-7.212,8.228-10.601c2.513,2.957,5.834,6.938,8.361,9.884
		c0.803,0.935,5.123-1.856,4.289-2.828c-2.818-3.282-6.42-7.608-9.223-10.902c3.196-3.467,6.54-6.806,9.989-10.038
		c0.961-0.9-2.881-4.309-3.821-3.429c-3.289,3.082-6.48,6.259-9.541,9.551c-2.479-2.827-6.095-6.574-8.749-9.246
		c-1.215-1.223-4.631,2.611-3.428,3.821c2.656,2.673,6.265,6.425,8.739,9.255c-3.075,3.542-5.989,7.224-8.666,11.103
		C361.833,46.156,365.631,49.619,366.619,48.187z"/>
</g>
</svg>
