<?xml version="1.0" encoding="utf-8"?>
<!-- Generator: Adobe Illustrator 16.0.0, SVG Export Plug-In . SVG Version: 6.00 Build 0)  -->
<!DOCTYPE svg PUBLIC "-//W3C//DTD SVG 1.1//EN" "http://www.w3.org/Graphics/SVG/1.1/DTD/svg11.dtd">
<svg version="1.1" id="Layer_1" xmlns="http://www.w3.org/2000/svg" xmlns:xlink="http://www.w3.org/1999/xlink" x="0px" y="0px"
	 width="1000px" height="200px" viewBox="0 0 1000 200" enable-background="new 0 0 1000 200" xml:space="preserve">
<g id="Ebene_1">
	<g id="Layer_3" display="none">
	</g>
	<g>
		<g>
			<path fill="#069475" d="M318.807,27.282c-2.3-4.6-1.399-12.7-17.5-16.8c-20.101-5-31.601,13.2-31.2,24.4
				c0.4,12.1,9.7,21.3,24.101,23.8C311.706,61.682,324.007,39.482,318.807,27.282z"/>
		</g>
		<path fill="#FFFFFF" d="M307.507,24.182c-1.2-1.1-2.2-2.2-3.102-0.9c-4,5.7-7,11.2-10.5,16.6c-2.898-1.6-5.5-3.3-8.398-5.2
			c-1.301-0.9-2-0.9-3.5,2.2c-0.801,1.6-0.602,1.5,1,2.6c2.6,1.8,6.398,4.1,9,6c0.6,0.5,1.6,1.3,2.3,1.3c0.8,0,1.2-0.8,1.8-1.5
			c4.7-5.8,8.3-11.9,12.601-18.2C309.706,25.782,308.706,25.182,307.507,24.182z"/>
	</g>
	<g>
		<g>
			<path fill="#F3282E" d="M398.807,27.282c-2.3-4.6-1.4-12.7-17.5-16.8c-20.101-5-31.601,13.2-31.3,24.4
				c0.398,12.1,9.699,21.3,24.1,23.8C391.706,61.682,404.007,39.482,398.807,27.282z"/>
		</g>
		<path fill="#FFFFFF" d="M366.607,48.482c2.5-3.7,5.3-7.2,8.2-10.6c2.5,3,5.8,6.9,8.399,9.9c0.801,0.9,5.101-1.9,4.301-2.8
			c-2.801-3.3-6.4-7.6-9.2-10.9c3.2-3.5,6.5-6.8,10-10c1-0.9-2.9-4.3-3.8-3.4c-3.301,3.1-6.5,6.3-9.5,9.6
			c-2.5-2.8-6.102-6.6-8.7-9.2c-1.2-1.2-4.601,2.6-3.4,3.8c2.7,2.7,6.301,6.4,8.7,9.3c-3.1,3.5-6,7.2-8.7,11.1
			C361.807,46.482,365.607,49.882,366.607,48.482z"/>
	</g>
</g>
<g>
	<g>
		<g>
			<rect x="155.18" y="6.501" fill="#80BBD5" width="29.64" height="29.762"/>
			<path fill="#FFFFFF" d="M183.2,8.12v26.523h-26.4V8.12H183.2 M186.439,4.882h-32.878v33h32.878V4.882L186.439,4.882z"/>
		</g>
	</g>
	<rect x="168.476" y="18.964" fill="#FFFFFF" width="3.046" height="11.605"/>
	<rect x="167.864" y="18.962" fill="#FFFFFF" width="4.277" height="0.761"/>
	<rect x="167.864" y="29.807" fill="#FFFFFF" width="4.277" height="0.761"/>
	<circle fill="#FFFFFF" cx="170" cy="15.082" r="1.469"/>
</g>
<g>
	<path fill="none" stroke="#FFFFFF" stroke-width="2.5" d="M222.445,21.162c5.312-7.537,21.191-7.537,21.191,7.581"/>
	<polygon fill="#FFFFFF" stroke="#FFFFFF" stroke-width="1.6009" stroke-linejoin="round" points="228.157,22.865 218.779,22.093 
		222.775,14.021 	"/>
</g>
<g>
	<g>
		<g>
			
				<rect x="212.156" y="53.908" transform="matrix(0.9861 -0.1664 0.1664 0.9861 -7.6455 38.4939)" fill="#99C9DD" width="27.493" height="21.932"/>
			<path fill="#E6F1F7" d="M236.376,53.554l3.139,18.585l-24.071,4.064l-3.137-18.588L236.376,53.554 M238.903,50l-30.148,5.088
				l4.163,24.669l30.151-5.092L238.903,50L238.903,50z"/>
		</g>
	</g>
	<circle fill="#E6F1F7" cx="225.911" cy="64.878" r="5.609"/>
	<g>
		<g>
			<rect x="224.164" y="64.525" fill="#80BBD5" width="27.492" height="21.933"/>
			<path fill="#FFFFFF" d="M250.115,66.067v18.85h-24.409v-18.85H250.115 M253.199,62.983h-30.577V88h30.577V62.983L253.199,62.983z
				"/>
		</g>
	</g>
	<circle fill="#FFFFFF" cx="237.364" cy="75.492" r="5.611"/>
</g>
<g>
	<g>
		<rect x="479.502" y="18.318" fill="#80BBD5" stroke="#FFFFFF" stroke-width="2.5" width="6.774" height="10.704"/>
		<polygon fill="#80BBD5" stroke="#FFFFFF" stroke-width="2.5" stroke-linejoin="round" points="496.722,35.707 486.278,29.022 
			486.278,18.318 496.722,11.634 		"/>
	</g>
	<path fill="none" stroke="#FFFFFF" stroke-width="2.5009" d="M504.754,12.227c6.325,6.32,6.325,16.566,0,22.888"/>
	<path fill="none" stroke="#FFFFFF" stroke-width="2.5" d="M501.624,16.111c4.174,4.175,4.174,10.943,0,15.118"/>
</g>
<g>
	<g>
		<g>
			<path fill="#EF503A" d="M125.858,14.634c-4.457-5.932-9.543-10.158-20.824-10.975c-8.795-0.635-14.409,2.313-22.899,2.299
				c-7.685-0.015-31.451-2.727-31.451-2.727S34.47-0.224,21.736,2.141C9.52,4.414,6.807,11.839,4.483,17.406
				c-2.284,5.482-3.117,11.35-1.803,17.237c1.144,5.119,4.883,11.414,8.973,16.945c7.09,9.584,4.027,20.163,10.402,28.397
				c3.006,3.884,4.902,6.448,10.229,8.938c5.511,2.572,14.052,3.559,29.05-1.445c15.461-5.156,15.766-6.729,24.787-13.199
				c8.37-6.008,11.461-7.964,21.61-11.756c8.892-3.323,14.041-6.297,18.678-14.953C130.639,39.67,131.787,22.523,125.858,14.634z"/>
		</g>
	</g>
	<g>
		<g>
			<path fill="#FFFFFF" d="M70.559,69.629c-0.678-0.383-1.539-0.146-1.924,0.531c-2.848,5.023-11.277,7.184-17.021,4.369
				c-0.229-0.113-0.456-0.238-0.68-0.363c0.604-1.004,1.207-2.203,1.814-3.665c1.034-2.489,1.979-6.593,1.522-10.649
				c-0.552-4.906-2.979-8.594-7.021-10.666c-2.295-1.174-4.849-1.313-7.209-0.834c-1.125-2.916-3.084-6.844-7.107-7.549
				c-2.329-0.401-5.279,0.35-6.416,2.565c-0.354,0.692-0.082,1.544,0.611,1.9c0.693,0.354,1.545,0.08,1.899-0.614
				c0.47-0.914,2.148-1.288,3.419-1.069c1.962,0.341,3.52,2.124,4.893,5.606c-1.137,0.48-2.17,1.091-3.029,1.762
				c-2.701,2.107-3.951,4.931-3.342,7.548c0.662,2.858,2.344,3.595,3.289,3.781c1.713,0.337,3.572-0.585,4.854-2.4
				c1.822-2.579,2.402-5.533,1.738-8.81c1.738-0.304,3.549-0.171,5.111,0.628c3.203,1.64,5.055,4.489,5.502,8.468
				c0.395,3.52-0.422,7.086-1.322,9.25c-0.531,1.275-1.039,2.309-1.541,3.16c-0.475-0.365-0.947-0.743-1.43-1.131
				c-0.924-0.742-1.879-1.51-2.894-2.196c-1.2-0.812-3.735-1.765-5.791-1.068c-1.135,0.386-1.938,1.194-2.321,2.345
				c-0.248,0.739,0.151,1.54,0.891,1.788c0.738,0.245,1.539-0.151,1.787-0.892c0.102-0.306,0.261-0.471,0.551-0.568
				c0.871-0.295,2.439,0.15,3.303,0.734c0.917,0.619,1.787,1.318,2.705,2.057c0.498,0.402,1.002,0.805,1.519,1.202
				c-1.106,1.137-2.248,1.72-3.578,2.397c-2.297,1.166-5.16,1.158-7.291-0.021c-3.363-1.859-5.459-4.955-5.607-8.279
				c-0.033-0.778-0.709-1.391-1.473-1.347c-0.777,0.035-1.381,0.694-1.348,1.472c0.192,4.313,2.834,8.287,7.061,10.627
				c1.486,0.82,3.221,1.232,4.977,1.232c1.705,0,3.429-0.389,4.962-1.168c1.584-0.805,3.117-1.588,4.646-3.303
				c0.357,0.213,0.722,0.418,1.103,0.604c2.129,1.045,4.528,1.531,6.942,1.531c5.605,0,11.279-2.633,13.777-7.041
				C71.475,70.875,71.239,70.014,70.559,69.629z M36.809,58.252c-0.705,0.999-1.538,1.352-2.006,1.26
				c-0.469-0.092-0.861-0.691-1.084-1.648c-0.51-2.191,1.459-4.008,2.328-4.686c0.61-0.478,1.322-0.906,2.094-1.258
				C38.561,54.309,38.119,56.397,36.809,58.252z"/>
			<path fill="#FFFFFF" d="M118.615,20.64c-0.351-0.696-1.199-0.975-1.896-0.623c-3.549,1.789-7.332,3.285-11.071,4.701l0.433-2.189
				c0.131-0.656,0.235-1.205,0.317-1.617c0.147-0.766-0.351-1.506-1.115-1.654c-0.764-0.148-1.506,0.348-1.655,1.113l-0.095,0.477
				c-0.161,0.818-0.53,2.65-1.049,5.053c-2.063,0.73-3.682,1.113-4.801,1.285c0.373-0.371,0.521-0.938,0.334-1.465
				c-0.258-0.736-1.063-1.123-1.801-0.865c-1.398,0.492-2.252,2.211-2.461,3.178c-0.062,0.286-0.031,0.584,0.082,0.854
				c0.383,0.895,1.408,1.229,2.719,1.229c1.535,0,3.461-0.455,5.219-1c-0.485,2.146-1.043,4.522-1.647,6.931
				c-1.488,5.928-2.722,9.863-3.693,12.477c-0.602-0.881-1.371-1.454-2.008-1.932c-0.299-0.222-0.578-0.432-0.816-0.65
				c-1.336-1.219-1.666-1.668-1.705-1.82c-0.002-0.115,0.15-0.516,0.275-0.834c0.16-0.422,0.363-0.943,0.563-1.62
				c0.216-0.728-0.182-1.491-0.897-1.735c-0.715-0.245-1.494,0.12-1.771,0.824c-0.046,0.117-4.63,11.878-6.695,14.939
				c-1.392,2.061-4.082,4.111-5.652,3.836c1.701-2.389,2.967-4.789,3.439-5.725c1.897-3.719,1.143-5.806,0.524-6.72
				c-0.729-1.079-1.988-1.649-3.353-1.524c-1.764,0.16-3.357,1.393-4.156,3.215c-1.524,3.479-1.057,7.904-1.035,8.093
				c0.001,0.022,0.006,0.047,0.011,0.069c0.186,1.146,0.479,2.053,0.84,2.771c-1.918,2.287-3.574,3.354-4.537,2.879
				c-0.849-0.416-1.298-3.416-1.187-7.035c0.196-1.76,0.28-3.18,0.312-3.852c0.034-0.754-0.531-1.404-1.285-1.471
				c-0.744-0.063-1.426,0.471-1.524,1.221c-0.11,0.851-0.274,2.309-0.335,3.973c-0.572,4.82-1.782,10.063-3.521,11.111
				c-0.195,0.119-0.445,0.227-0.939,0.006c-0.836-0.832-1.055-6.197-0.469-11.542c0.084-0.776-0.476-1.474-1.25-1.558
				c-0.769-0.086-1.474,0.474-1.56,1.248c-0.012,0.123-0.329,3.055-0.335,6.188c-0.015,4.898,0.721,7.43,2.376,8.203
				c0.589,0.273,1.175,0.412,1.746,0.412c0.656,0,1.294-0.182,1.89-0.539c1.483-0.898,2.553-2.945,3.315-5.34
				c0.39,0.671,0.89,1.195,1.521,1.508c2.606,1.281,5.375-0.646,7.696-3.285c0.394,0.221,0.783,0.357,1.148,0.439
				c3.361,0.734,7.092-2.68,8.66-5.002c1.287-1.91,3.338-6.582,4.886-10.303c0.313,0.322,0.678,0.668,1.101,1.055
				c0.34,0.31,0.69,0.57,1.03,0.826c0.979,0.733,1.688,1.26,1.847,2.634c0.069,0.624-0.027,1.138-0.287,1.56
				c-0.144,0.197-0.262,0.334-0.356,0.428c-0.005,0.006-0.011,0.013-0.019,0.02c-0.024,0.021-0.047,0.043-0.066,0.06
				c-0.652,0.542-1.479,0.664-1.803,0.631c-0.521-0.398-1.267-0.394-1.78,0.051c-0.591,0.507-0.658,1.4-0.149,1.989
				c0.926,1.077,2.838,0.914,4.221,0.31c1.184-0.519,2.056-1.348,2.565-2.381c1.189-1.927,2.392-5.032,3.523-8.612
				c0.281,1.396,0.738,2.544,1.371,3.432c0.912,1.283,2.209,2.051,3.75,2.221c1.711,0.19,3.549-0.49,5.176-1.912
				c2.832-2.475,4.654-6.696,4.76-11.023c0.021-0.779-0.596-1.426-1.375-1.445c-0.012-0.002-0.022-0.002-0.034-0.002
				c-0.765,0-1.394,0.611-1.41,1.377c-0.086,3.508-1.576,7.027-3.797,8.969c-1.023,0.896-2.093,1.331-3.011,1.232
				c-0.748-0.084-1.307-0.416-1.756-1.049c-2.063-2.902-0.948-10.393-0.345-13.035c0.002-0.014,0.006-0.027,0.008-0.043l1.238-6.284
				c4.332-1.623,8.783-3.32,12.983-5.439C118.686,22.185,118.967,21.337,118.615,20.64z M76.03,56.961
				c-0.03-0.146-0.059-0.293-0.082-0.436c-0.037-0.379-0.34-3.974,0.818-6.617c0.463-1.055,1.271-1.486,1.826-1.537
				c0.238-0.022,0.567,0.013,0.76,0.296c0.35,0.516,0.348,1.799-0.706,3.858C78.635,52.552,77.567,54.657,76.03,56.961z"/>
		</g>
		<g>
			<g>
				<path fill="#FFFFFF" d="M16.321,13.591c-0.205,1.447-1.135,13.949-1.184,15.129c-0.027,0.672,0.162,2.166,0.584,2.699
					c1.188,1.505,4.945-0.436,6.297-1.564c0.971-0.811,1.465-1.797,2.018-2.877c0.997-1.936,1.578-4.338,1.558-6.563
					c-0.021-2.248-0.535-4.23-2.112-5.98C22.271,13.091,16.797,10.167,16.321,13.591z M22.221,23.962
					c-0.348,1.176-0.879,2.176-1.688,3.029c-0.188,0.201-0.391,0.393-0.612,0.576c-0.394,0.33-1.324,1.203-1.672,0.834
					c-0.312-0.32-0.064-2.746-0.021-3.188c0.215-2.34,0.578-8.83,1.242-9.676c0.836-1.074,2.647,2.301,2.918,3.469
					C22.781,20.73,22.729,22.251,22.221,23.962z"/>
			</g>
			<g>
				<path fill="#FFFFFF" d="M31.526,12.966c-0.408-0.254-1.278-0.418-1.86-0.152c-0.761,0.344-1.138,1.748-1.148,3.115
					c-0.021,2.438-0.338,11.293-0.543,13.342c-0.084,0.844-0.273,1.828-0.094,2.67c0.142,0.663,1.646,0.987,2.166,0.696
					c0.608-0.341,0.764-1.454,0.836-2.062c0.203-1.719,0.52-8.914,0.723-11.406C31.604,19.169,32.43,13.531,31.526,12.966z"/>
			</g>
			<g>
				<path fill="#FFFFFF" d="M58.799,15.23c-1.39,0.281-0.963,2.371-0.937,3.357c0.047,1.977-0.249,7.102-0.272,7.666
					c-0.031,0.719-0.276,0.813-0.629,0.166c-0.267-0.49-1.75-4.086-2.326-5.375c-0.451-1.006-1.91-4.018-2.141-4.605
					c-0.16-0.424-0.451-1.045-0.775-1.363c-0.424-0.42-1.217-0.467-1.75-0.221c-0.082,0.041-0.15,0.086-0.211,0.135
					c-0.312,0.26-0.334,0.672-0.392,1.135c-0.11,0.881-0.11,13.484-0.114,15.002c-0.002,0.826-0.158,1.649-0.023,2.475
					c0.16,1,1.051,1.215,1.938,1.071c0.627-0.1,0.598-0.454,0.717-1.049c0.395-1.999-0.232-10.956,0.229-11.19
					c0.378-0.191,5.15,11.591,5.431,12.035c0.205,0.323,0.532,0.449,0.909,0.528c0.578,0.123,1.382,0.213,1.472-0.52
					c0.226-1.857-0.08-3.724,0.082-5.554c0.037-0.443,0.438-8.756,0.475-9.859c0.029-0.953,0.189-2.648,0.004-3.07
					C60.291,15.566,59.27,15.134,58.799,15.23z"/>
			</g>
			<g>
				<path fill="#FFFFFF" d="M43.334,14.451c-0.172,0.834-0.111,6.111-0.111,6.111s0.074,4.287-0.534,4.557
					c-0.283,0.125-0.871-1.025-0.871-1.025c-0.563-1.01-0.68-1.287-1.092-2.131c-0.406-0.824-1.674-4.125-2.053-4.883
					c-0.213-0.428-1.332-3.826-2.504-3.322c-0.371,0.156-0.615,0.584-0.777,1.125c-0.338,1.125-0.322,2.742-0.387,3.436
					c-0.133,1.416-0.012,2.895-0.078,4.32c-0.068,1.504-0.307,8.145-0.303,8.805c0.01,0.555-0.029,1.452,0.646,1.623
					c0.323,0.079,0.874,0.04,1.247,0.033c0.803-0.024,0.789-1.607,0.789-1.607s0.141-5.303,0.139-5.785
					c-0.002-0.357-0.11-2.129,0.052-2.631c0.065-0.205,0.284-0.453,0.495-0.24c0.179,0.176,0.33,0.504,0.433,0.732
					c0.113,0.256,4.803,9.503,5.063,9.745c0.574,0.551,1.783,0.554,1.935-0.324c0.246-1.42,0.146-3.417,0.301-5.187
					c0.041-0.443,0.717-10.816,0.242-12.855C45.564,13.226,43.559,13.376,43.334,14.451z"/>
			</g>
			<g>
				<path fill="#FFFFFF" d="M67.105,18.628c0.558,0.047,1.459,0.193,2.012,0.225c0,0,2.488,0.234,3.078,0.043
					c0.541-0.176,0.459-0.996,0.465-1.453c0.005-0.379-0.055-0.76-0.303-1.08c-0.377-0.488-2.809-0.613-3.44-0.674
					c-1.195-0.117-3.652-0.32-3.652-0.32c-0.486-0.07-1.207-0.15-1.592,0.225c-0.465,0.451-0.359,1.5-0.383,2.104
					c-0.033,0.92,0,6.471-0.15,8.338c-0.145,1.707,0.16,7.353,0.197,7.942c0.026,0.484-0.125,0.576,0.242,0.963
					c0.291,0.307,8.243,0.577,8.682,0.229c0.531-0.419,0.332-1.311,0.225-1.941c-0.149-0.857-1.444-0.592-2.11-0.595
					c-1.086-0.007-3.07,0.292-3.849-0.643c-0.36-0.434-0.295-0.889-0.317-1.416c-0.025-0.627-0.16-3.15,0.252-3.602
					c0.426-0.465,1.647-0.439,2.315-0.42c0.453,0.014,2.318,0.373,2.683-0.09c0.215-0.273,0.272-1.639-0.154-1.863
					c-0.418-0.221-2.664-0.352-3.252-0.41c-0.846-0.078-1.709-0.184-1.707-1.242C66.346,22.453,65.879,18.525,67.105,18.628z"/>
			</g>
			<g>
				<path fill="#FFFFFF" d="M82.735,28.103c-0.36-0.723-0.311-0.811,0.226-1.414c0.354-0.4,0.703-0.766,0.983-1.232
					c2.562-4.244,0.537-7.43-0.823-8.529c-1.313-1.057-3.146-0.986-3.146-0.986s-2.719-0.078-3.846,0.916
					c-0.785,0.693-0.9,2.426-0.892,3.52c0.021,1.629,0.191,14.376,0.384,14.733c0.286,0.542,2.696,0.412,3.006,0.076
					c0.321-0.359,0.157-2.014,0.157-2.014s-0.09-2.106-0.098-3.159c-0.004-0.395-0.094-1.125,0.23-1.326
					c0.985-0.611,4.029,6.067,4.029,6.067c0.405,1.125,2.776,1.387,3.186,0.462C86.58,34.198,83.094,28.816,82.735,28.103z
					 M80.252,24.903c-1.656,1.231-2.129-0.548-2.25-2.026c-0.072-0.896-0.062-1.615-0.031-2.516c0.031-1.01,0.357-1.715,1.113-1.756
					c0.188-0.008,1.412-0.221,2.518,1.162C83,21.517,81.866,23.703,80.252,24.903z"/>
			</g>
		</g>
	</g>
</g>
<g>
	<rect x="410.429" y="100.771" fill="#2C4077" width="125.344" height="39.75"/>
	<polyline fill="#161F3B" points="540.048,144.928 414.769,144.928 410.46,140.52 535.773,140.52 	"/>
	<g>
		
			<text transform="matrix(1 -0.0027 0.0027 1 459.4138 126.8018)" fill="#FFFFFF" font-family="'CooperBT-Medium'" font-size="17.6622">share</text>
	</g>
	<path fill="#FFFFFF" d="M433.943,114.716h1.955v-3.528c-0.785-0.023-1.816-0.051-3.168-0.08c-4.883-0.107-4.703,4.918-4.703,4.918
		v2.891h-3.356v3.771h3.356v9.793h3.906v-9.793h3.283l0.469-3.771h-3.752v-2.534C431.933,114.545,433.943,114.716,433.943,114.716z"
		/>
	<rect x="448.658" y="100.771" fill="#1E2B50" width="1.263" height="39.748"/>
	<polygon fill="#1E2B50" points="540.048,145.229 535.74,140.52 535.74,100.771 540.048,105.475 	"/>
</g>
<g>
	<rect x="5.937" y="100.771" fill="#936844" width="186.39" height="39.746"/>
	<polygon fill="#4A3422" points="196.634,145.229 10.245,145.229 5.937,140.52 192.325,140.52 	"/>
	<polygon fill="#62452D" points="196.634,145.229 192.325,140.52 192.325,100.771 196.634,105.475 	"/>
</g>
<g>
	<rect x="217.171" y="158.125" fill="#96D44F" width="182.08" height="39.748"/>
	<polygon fill="#68961E" points="212.863,158.135 399.251,158.135 399.251,162.846 217.171,162.846 	"/>
	<polygon fill="#74AA27" points="212.863,158.135 217.171,162.846 217.171,197.873 212.863,197.873 	"/>
	<text transform="matrix(1 0 0 1 226.8757 185.2656)" fill="#FFFFFF" font-family="'CooperBT-Medium'" font-size="17.6622">WEITERSPIELEN</text>
</g>
<g>
	<polygon fill="#4E7117" points="399.251,145.229 212.863,145.229 208.554,140.52 394.943,140.52 	"/>
	<polygon fill="#68961E" points="399.251,145.229 394.943,140.52 394.943,100.771 399.251,105.475 	"/>
	<rect x="208.554" y="100.771" fill="#74AA27" width="186.389" height="39.746"/>
	<text transform="matrix(1 0 0 1 222.5671 126.6152)" fill="#FFFFFF" font-family="'CooperBT-Medium'" font-size="17.6622">WEITERSPIELEN</text>
</g>
<g>
	<rect x="14.537" y="158.125" fill="#936844" width="182.08" height="39.748"/>
	<polygon fill="#62452D" points="10.245,158.135 14.554,162.846 14.554,197.873 10.245,197.873 	"/>
	<polygon fill="#4A3422" points="196.634,162.846 14.554,162.846 10.245,158.135 196.634,158.135 	"/>
</g>
<g>
	<rect x="414.72" y="158.125" fill="#2C4077" width="125.344" height="39.75"/>
	<g>
		
			<text transform="matrix(1 -0.0027 0.0027 1 463.7048 184.1553)" fill="#FFFFFF" font-family="'CooperBT-Medium'" font-size="17.6622">share</text>
	</g>
	<path fill="#FFFFFF" d="M438.234,172.068h1.955v-3.529c-0.785-0.023-1.816-0.049-3.168-0.08c-4.883-0.107-4.703,4.918-4.703,4.918
		v2.891h-3.356v3.773h3.356v9.793h3.906v-9.793h3.283l0.469-3.773h-3.752v-2.533C436.224,171.898,438.234,172.068,438.234,172.068z"
		/>
	<rect x="452.949" y="158.125" fill="#1E2B50" width="1.263" height="39.748"/>
	<polygon fill="#1E2B50" points="419.076,197.873 414.769,197.873 414.769,158.135 419.076,162.838 	"/>
	<polygon fill="#0F1528" points="414.769,158.145 540.064,158.145 540.064,162.855 419.076,162.855 	"/>
</g>
<g>
	<g>
		<rect x="434.374" y="18.319" fill="#80BBD5" stroke="#FFFFFF" stroke-width="2.5" width="6.774" height="10.703"/>
		<polygon fill="#80BBD5" stroke="#FFFFFF" stroke-width="2.5" stroke-linejoin="round" points="451.594,35.707 441.15,29.022 
			441.15,18.319 451.594,11.634 		"/>
	</g>
	<path fill="none" stroke="#FFFFFF" stroke-width="2.5" d="M460.177,12.227c6.32,6.32,6.32,16.566,0,22.887"/>
	<path fill="none" stroke="#FFFFFF" stroke-width="2.5" d="M456.495,16.111c4.175,4.175,4.175,10.944,0,15.118"/>
</g>
<g>
	<path fill="#FFFFFF" d="M485.892,37.479c2.5-3.701,5.3-7.201,8.2-10.601c2.5,3,5.8,6.899,8.399,9.899
		c0.801,0.9,5.1-1.899,4.301-2.799c-2.801-3.301-6.4-7.601-9.2-10.9c3.2-3.5,6.499-6.801,9.999-10c1-0.9-2.9-4.3-3.799-3.4
		c-3.301,3.1-6.5,6.3-9.5,9.599c-2.5-2.799-6.102-6.599-8.7-9.199c-1.2-1.2-4.601,2.6-3.4,3.8c2.7,2.7,6.301,6.399,8.7,9.3
		c-3.1,3.5-6,7.2-8.7,11.1C481.092,35.479,484.892,38.879,485.892,37.479z"/>
</g>
</svg>
