<?xml version="1.0" encoding="utf-8"?>
<!-- Generator: Adobe Illustrator 16.0.0, SVG Export Plug-In . SVG Version: 6.00 Build 0)  -->
<!DOCTYPE svg PUBLIC "-//W3C//DTD SVG 1.1//EN" "http://www.w3.org/Graphics/SVG/1.1/DTD/svg11.dtd">
<svg version="1.1" id="Layer_1" xmlns="http://www.w3.org/2000/svg" xmlns:xlink="http://www.w3.org/1999/xlink" x="0px" y="0px"
	 width="1000px" height="311.5px" viewBox="0 0 1000 311.5" enable-background="new 0 0 1000 311.5" xml:space="preserve">
<g id="Ebene_1">
	<g id="Layer_3" display="none">
	</g>
	<g>
		<g>
			<path fill="#069475" d="M318.807,27.282c-2.3-4.6-1.396-12.7-17.5-16.8c-20.101-5-31.601,13.2-31.2,24.397
				c0.4,12.103,9.7,21.303,24.104,23.803C311.706,61.682,324.007,39.482,318.807,27.282z"/>
		</g>
		<path fill="#FFFFFF" d="M307.507,24.182c-1.2-1.103-2.2-2.2-3.104-0.9c-4,5.7-7,11.2-10.5,16.6c-2.896-1.6-5.5-3.3-8.396-5.197
			c-1.301-0.9-2-0.9-3.5,2.197c-0.801,1.603-0.604,1.5,1,2.603c2.6,1.8,6.396,4.1,9,6c0.6,0.5,1.6,1.3,2.3,1.3
			c0.8,0,1.2-0.8,1.8-1.5c4.7-5.8,8.3-11.9,12.604-18.2C309.706,25.782,308.706,25.182,307.507,24.182z"/>
	</g>
	<g>
		<g>
			<path fill="#F3282E" d="M398.807,27.282c-2.3-4.6-1.4-12.7-17.5-16.8c-20.101-5-31.601,13.2-31.3,24.397
				c0.396,12.103,9.699,21.303,24.1,23.803C391.706,61.682,404.007,39.482,398.807,27.282z"/>
		</g>
		<path fill="#FFFFFF" d="M366.607,48.482c2.5-3.7,5.3-7.2,8.2-10.603c2.5,3,5.8,6.9,8.399,9.9c0.801,0.9,5.101-1.9,4.301-2.8
			c-2.801-3.3-6.4-7.603-9.2-10.9c3.2-3.5,6.5-6.8,10-10c1-0.897-2.9-4.3-3.8-3.397c-3.301,3.1-6.5,6.3-9.5,9.6
			c-2.5-2.8-6.104-6.6-8.7-9.2c-1.2-1.2-4.601,2.603-3.4,3.8c2.7,2.7,6.308,6.4,8.7,9.303c-3.1,3.5-6,7.197-8.7,11.1
			C361.807,46.482,365.607,49.882,366.607,48.482z"/>
	</g>
</g>
<g>
	<g>
		<g>
			<rect x="155.18" y="6.501" fill="#80BBD5" width="29.64" height="29.765"/>
			<path fill="#FFFFFF" d="M183.2,8.12v26.523h-26.4V8.12H183.2 M186.439,4.882h-32.878v33h32.878V4.882L186.439,4.882z"/>
		</g>
	</g>
	<rect x="168.476" y="18.964" fill="#FFFFFF" width="3.046" height="11.605"/>
	<rect x="167.864" y="18.962" fill="#FFFFFF" width="4.277" height="0.764"/>
	<rect x="167.864" y="29.807" fill="#FFFFFF" width="4.277" height="0.761"/>
	<circle fill="#FFFFFF" cx="170" cy="15.082" r="1.469"/>
</g>
<g>
	<path fill="none" stroke="#FFFFFF" stroke-width="2.5" d="M222.445,21.162c5.313-7.537,21.191-7.537,21.191,7.581"/>
	<polygon fill="#FFFFFF" stroke="#FFFFFF" stroke-width="1.6009" stroke-linejoin="round" points="228.157,22.865 218.779,22.094 
		222.775,14.021 	"/>
</g>
<g>
	<g>
		<g>
			
				<rect x="212.157" y="53.919" transform="matrix(-0.9861 0.1664 -0.1664 -0.9861 459.4638 91.2829)" fill="#99C9DD" width="27.502" height="21.94"/>
			<path fill="#E6F1F7" d="M236.376,53.554l3.139,18.585l-24.071,4.063l-3.137-18.588L236.376,53.554 M238.903,50l-30.146,5.088
				l4.163,24.669l30.146-5.092L238.903,50L238.903,50z"/>
		</g>
	</g>
	<circle fill="#E6F1F7" cx="225.911" cy="64.878" r="5.609"/>
	<g>
		<g>
			<rect x="224.164" y="64.525" fill="#80BBD5" width="27.485" height="21.933"/>
			<path fill="#FFFFFF" d="M250.115,66.067v18.85H225.71v-18.85H250.115 M253.199,62.983h-30.577V88h30.577V62.983L253.199,62.983z"
				/>
		</g>
	</g>
	<circle fill="#FFFFFF" cx="237.364" cy="75.492" r="5.611"/>
</g>
<g>
	<g>
		<rect x="479.502" y="18.318" fill="#80BBD5" stroke="#FFFFFF" stroke-width="2.5" width="6.771" height="10.704"/>
		<polygon fill="#80BBD5" stroke="#FFFFFF" stroke-width="2.5" stroke-linejoin="round" points="496.722,35.707 486.278,29.022 
			486.278,18.318 496.722,11.634 		"/>
	</g>
	<path fill="none" stroke="#FFFFFF" stroke-width="2.5009" d="M504.754,12.227c6.318,6.317,6.318,16.563,0,22.888"/>
	<path fill="none" stroke="#FFFFFF" stroke-width="2.5" d="M501.617,16.111c4.181,4.175,4.181,10.943,0,15.118"/>
</g>
<g>
	<g>
		<g>
			<path fill="#EF503A" d="M125.858,14.634c-4.457-5.932-9.543-10.155-20.817-10.975c-8.802-0.635-14.41,2.313-22.9,2.299
				C74.45,5.943,50.684,3.231,50.684,3.231S34.47-0.224,21.736,2.141C9.52,4.414,6.807,11.839,4.483,17.406
				C2.2,22.888,1.367,28.756,2.68,34.643c1.146,5.119,4.883,11.414,8.973,16.942c7.097,9.584,4.027,20.163,10.402,28.397
				c3.006,3.884,4.902,6.448,10.229,8.938c5.511,2.572,14.052,3.562,29.05-1.442c15.461-5.156,15.766-6.729,24.787-13.199
				c8.37-6.008,11.461-7.964,21.604-11.756c8.896-3.323,14.041-6.297,18.685-14.953C130.639,39.67,131.787,22.523,125.858,14.634z"
				/>
		</g>
	</g>
	<g>
		<g>
			<path fill="#FFFFFF" d="M70.559,69.629c-0.678-0.383-1.539-0.146-1.924,0.531c-2.848,5.023-11.277,7.187-17.021,4.369
				c-0.229-0.113-0.449-0.238-0.68-0.363c0.604-1.004,1.207-2.203,1.814-3.665c1.034-2.486,1.979-6.593,1.521-10.646
				c-0.552-4.906-2.979-8.597-7.021-10.666c-2.295-1.174-4.854-1.313-7.209-0.834c-1.125-2.916-3.084-6.847-7.107-7.549
				c-2.329-0.401-5.279,0.35-6.416,2.563c-0.354,0.692-0.082,1.544,0.611,1.9c0.688,0.354,1.545,0.08,1.896-0.614
				c0.477-0.914,2.148-1.288,3.419-1.069c1.969,0.344,3.521,2.124,4.896,5.606c-1.137,0.479-2.17,1.091-3.029,1.762
				c-2.701,2.107-3.951,4.933-3.342,7.548c0.662,2.858,2.344,3.598,3.289,3.781c1.713,0.337,3.572-0.585,4.854-2.4
				c1.822-2.576,2.402-5.53,1.738-8.81c1.738-0.304,3.549-0.171,5.111,0.628c3.203,1.64,5.055,4.489,5.502,8.468
				c0.395,3.521-0.422,7.086-1.322,9.25c-0.531,1.275-1.039,2.312-1.541,3.16c-0.475-0.365-0.947-0.743-1.43-1.131
				c-0.924-0.742-1.879-1.51-2.896-2.196c-1.193-0.812-3.729-1.765-5.791-1.065c-1.135,0.386-1.938,1.191-2.314,2.345
				c-0.248,0.739,0.146,1.54,0.891,1.788c0.738,0.245,1.539-0.151,1.787-0.895c0.102-0.306,0.261-0.471,0.551-0.565
				c0.871-0.295,2.439,0.147,3.303,0.731c0.917,0.619,1.787,1.318,2.705,2.06c0.498,0.399,1.002,0.805,1.521,1.202
				c-1.106,1.137-2.248,1.72-3.578,2.396c-2.297,1.166-5.16,1.158-7.291-0.021c-3.363-1.859-5.459-4.955-5.607-8.279
				c-0.026-0.778-0.709-1.391-1.473-1.347c-0.777,0.035-1.381,0.691-1.348,1.472c0.188,4.313,2.834,8.287,7.061,10.627
				c1.486,0.82,3.224,1.232,4.979,1.232c1.705,0,3.429-0.392,4.962-1.168c1.584-0.808,3.11-1.591,4.646-3.306
				c0.357,0.213,0.728,0.418,1.104,0.604c2.129,1.045,4.521,1.531,6.938,1.531c5.605,0,11.279-2.636,13.777-7.041
				C71.475,70.875,71.239,70.014,70.559,69.629z M36.809,58.252c-0.705,0.999-1.538,1.354-2.006,1.263
				c-0.469-0.095-0.861-0.691-1.084-1.648c-0.51-2.191,1.459-4.008,2.328-4.686c0.61-0.479,1.322-0.906,2.094-1.261
				C38.561,54.309,38.119,56.397,36.809,58.252z"/>
			<path fill="#FFFFFF" d="M118.615,20.64c-0.351-0.696-1.192-0.978-1.896-0.623c-3.549,1.789-7.332,3.285-11.071,4.701l0.438-2.189
				c0.131-0.656,0.229-1.205,0.313-1.617c0.147-0.766-0.351-1.506-1.108-1.654c-0.771-0.146-1.513,0.351-1.655,1.113l-0.095,0.479
				c-0.161,0.815-0.53,2.647-1.056,5.053c-2.063,0.729-3.682,1.113-4.801,1.285c0.373-0.371,0.521-0.938,0.334-1.465
				c-0.258-0.736-1.063-1.123-1.801-0.865c-1.398,0.492-2.252,2.211-2.461,3.178c-0.063,0.286-0.031,0.584,0.082,0.854
				c0.383,0.895,1.408,1.229,2.719,1.229c1.535,0,3.461-0.455,5.219-1c-0.479,2.146-1.043,4.522-1.646,6.931
				c-1.488,5.931-2.729,9.863-3.693,12.479c-0.602-0.881-1.371-1.454-2.008-1.932c-0.299-0.225-0.578-0.435-0.816-0.65
				c-1.336-1.219-1.666-1.668-1.703-1.82c-0.004-0.113,0.148-0.516,0.273-0.834c0.16-0.422,0.363-0.94,0.563-1.62
				c0.216-0.728-0.188-1.488-0.897-1.732c-0.715-0.245-1.494,0.12-1.771,0.823c-0.053,0.115-4.637,11.879-6.695,14.938
				c-1.396,2.063-4.082,4.111-5.652,3.836c1.701-2.389,2.967-4.789,3.439-5.725c1.896-3.722,1.143-5.809,0.521-6.723
				c-0.729-1.076-1.981-1.646-3.353-1.521c-1.768,0.16-3.357,1.393-4.156,3.215c-1.521,3.479-1.057,7.904-1.035,8.093
				c0.001,0.022,0.006,0.047,0.018,0.069c0.186,1.146,0.479,2.053,0.84,2.771c-1.918,2.287-3.574,3.354-4.537,2.881
				c-0.854-0.416-1.298-3.416-1.188-7.034c0.196-1.763,0.28-3.183,0.313-3.854c0.034-0.754-0.531-1.402-1.285-1.471
				c-0.744-0.063-1.426,0.471-1.523,1.221c-0.104,0.854-0.271,2.312-0.336,3.976c-0.565,4.817-1.775,10.063-3.521,11.108
				c-0.195,0.119-0.445,0.229-0.939,0.006c-0.836-0.832-1.055-6.194-0.469-11.542c0.084-0.773-0.476-1.474-1.25-1.558
				c-0.769-0.086-1.474,0.474-1.56,1.248c-0.019,0.123-0.329,3.055-0.335,6.188c-0.021,4.897,0.721,7.432,2.376,8.202
				c0.589,0.273,1.175,0.412,1.746,0.412c0.649,0,1.294-0.182,1.89-0.539c1.479-0.896,2.553-2.942,3.313-5.34
				c0.396,0.671,0.896,1.195,1.521,1.508c2.604,1.281,5.375-0.646,7.696-3.284c0.394,0.223,0.776,0.356,1.146,0.438
				c3.361,0.734,7.092-2.68,8.66-5.002c1.287-1.91,3.338-6.582,4.886-10.303c0.313,0.319,0.685,0.668,1.104,1.055
				c0.34,0.31,0.688,0.57,1.023,0.826c0.979,0.73,1.688,1.26,1.854,2.634c0.063,0.624-0.027,1.138-0.287,1.561
				c-0.146,0.196-0.262,0.335-0.356,0.43c-0.005,0.006-0.011,0.013-0.019,0.02c-0.024,0.021-0.047,0.043-0.066,0.063
				c-0.646,0.542-1.479,0.664-1.803,0.631c-0.521-0.398-1.267-0.396-1.78,0.051c-0.591,0.507-0.651,1.4-0.146,1.989
				c0.926,1.077,2.838,0.914,4.221,0.31c1.188-0.519,2.058-1.348,2.565-2.381c1.188-1.927,2.392-5.032,3.521-8.611
				c0.281,1.396,0.738,2.544,1.371,3.434c0.912,1.283,2.209,2.051,3.75,2.221c1.711,0.19,3.549-0.49,5.176-1.912
				c2.832-2.475,4.654-6.694,4.767-11.021c0.021-0.779-0.603-1.428-1.375-1.445c-0.019-0.002-0.022-0.002-0.034-0.002
				c-0.771,0-1.396,0.611-1.41,1.377c-0.086,3.508-1.576,7.027-3.797,8.969c-1.023,0.896-2.096,1.331-3.015,1.232
				c-0.744-0.084-1.31-0.416-1.759-1.049c-2.063-2.902-0.941-10.396-0.345-13.035c0.002-0.016,0.006-0.027,0.008-0.043l1.238-6.284
				c4.332-1.623,8.783-3.32,12.983-5.438C118.686,22.185,118.967,21.337,118.615,20.64z M76.03,56.961
				c-0.023-0.146-0.059-0.293-0.082-0.436c-0.03-0.379-0.34-3.974,0.818-6.617c0.463-1.055,1.271-1.486,1.826-1.537
				c0.238-0.021,0.567,0.013,0.76,0.296c0.354,0.519,0.354,1.799-0.706,3.858C78.635,52.552,77.567,54.657,76.03,56.961z"/>
		</g>
		<g>
			<g>
				<path fill="#FFFFFF" d="M16.321,13.591c-0.198,1.447-1.135,13.949-1.184,15.132c-0.027,0.672,0.162,2.166,0.584,2.696
					c1.188,1.505,4.945-0.436,6.297-1.563c0.971-0.813,1.465-1.797,2.021-2.877c0.997-1.938,1.571-4.338,1.558-6.563
					c-0.021-2.248-0.535-4.229-2.112-5.979C22.271,13.091,16.797,10.167,16.321,13.591z M22.221,23.962
					c-0.348,1.179-0.879,2.179-1.688,3.029c-0.188,0.201-0.396,0.393-0.612,0.576c-0.396,0.33-1.324,1.203-1.672,0.834
					c-0.313-0.32-0.064-2.746-0.021-3.188c0.215-2.34,0.578-8.83,1.242-9.676c0.836-1.074,2.647,2.301,2.918,3.469
					C22.781,20.73,22.729,22.251,22.221,23.962z"/>
			</g>
			<g>
				<path fill="#FFFFFF" d="M31.526,12.966c-0.401-0.254-1.271-0.418-1.854-0.149c-0.768,0.344-1.145,1.748-1.148,3.115
					c-0.021,2.438-0.338,11.293-0.543,13.342c-0.084,0.844-0.271,1.828-0.094,2.67c0.142,0.663,1.646,0.987,2.166,0.696
					c0.604-0.344,0.764-1.454,0.836-2.063c0.203-1.719,0.521-8.914,0.723-11.406C31.604,19.169,32.43,13.531,31.526,12.966z"/>
			</g>
			<g>
				<path fill="#FFFFFF" d="M58.799,15.23c-1.39,0.281-0.963,2.371-0.938,3.354c0.054,1.979-0.249,7.104-0.271,7.666
					c-0.031,0.722-0.276,0.813-0.629,0.166c-0.271-0.487-1.75-4.086-2.326-5.375c-0.451-1.006-1.91-4.018-2.141-4.604
					c-0.16-0.424-0.451-1.045-0.775-1.363c-0.424-0.42-1.217-0.467-1.75-0.221c-0.082,0.041-0.15,0.086-0.211,0.135
					c-0.313,0.26-0.334,0.672-0.392,1.135c-0.11,0.881-0.11,13.484-0.114,15.002c-0.002,0.826-0.158,1.649-0.023,2.478
					c0.16,1,1.051,1.215,1.938,1.068c0.627-0.1,0.598-0.451,0.717-1.049c0.395-1.999-0.232-10.956,0.229-11.188
					c0.385-0.191,5.15,11.591,5.438,12.035c0.205,0.32,0.532,0.446,0.909,0.525c0.571,0.123,1.382,0.213,1.472-0.52
					c0.227-1.857-0.08-3.727,0.082-5.557c0.037-0.44,0.438-8.756,0.475-9.856c0.029-0.953,0.189-2.648,0.007-3.07
					C60.291,15.566,59.27,15.134,58.799,15.23z"/>
			</g>
			<g>
				<path fill="#FFFFFF" d="M43.334,14.451c-0.172,0.834-0.111,6.111-0.111,6.111s0.074,4.287-0.534,4.557
					c-0.283,0.125-0.871-1.022-0.871-1.022c-0.563-1.013-0.68-1.287-1.092-2.134c-0.406-0.821-1.674-4.125-2.053-4.883
					c-0.213-0.428-1.332-3.826-2.504-3.322c-0.371,0.156-0.615,0.584-0.777,1.125c-0.338,1.125-0.322,2.742-0.387,3.438
					c-0.133,1.416-0.012,2.895-0.078,4.32c-0.068,1.504-0.307,8.145-0.303,8.805c0.01,0.555-0.029,1.452,0.646,1.623
					c0.323,0.079,0.874,0.04,1.247,0.033c0.803-0.024,0.789-1.607,0.789-1.607s0.141-5.303,0.139-5.785
					c-0.002-0.354-0.104-2.129,0.059-2.631c0.063-0.205,0.277-0.453,0.495-0.24c0.179,0.179,0.323,0.505,0.433,0.732
					c0.113,0.256,4.803,9.503,5.063,9.745c0.569,0.551,1.778,0.554,1.937-0.324c0.246-1.42,0.146-3.417,0.301-5.187
					c0.041-0.443,0.718-10.816,0.242-12.855C45.564,13.226,43.559,13.376,43.334,14.451z"/>
			</g>
			<g>
				<path fill="#FFFFFF" d="M67.105,18.628c0.563,0.047,1.459,0.193,2.019,0.228c0,0,2.481,0.231,3.071,0.043
					c0.541-0.176,0.459-0.996,0.472-1.453c0.005-0.379-0.062-0.76-0.31-1.08c-0.377-0.488-2.809-0.613-3.438-0.674
					c-1.195-0.117-3.652-0.32-3.652-0.32c-0.486-0.069-1.207-0.147-1.592,0.228c-0.465,0.448-0.359,1.5-0.383,2.104
					c-0.033,0.92,0,6.471-0.15,8.338c-0.145,1.707,0.16,7.354,0.197,7.942c0.021,0.481-0.125,0.576,0.242,0.963
					c0.291,0.307,8.236,0.577,8.682,0.229c0.531-0.419,0.332-1.311,0.225-1.938c-0.146-0.857-1.438-0.592-2.104-0.595
					c-1.086-0.01-3.07,0.292-3.854-0.646c-0.354-0.434-0.295-0.889-0.313-1.416c-0.025-0.627-0.16-3.148,0.252-3.602
					c0.426-0.466,1.646-0.439,2.313-0.42c0.452,0.014,2.317,0.373,2.688-0.093c0.215-0.271,0.271-1.639-0.154-1.86
					c-0.418-0.224-2.664-0.354-3.252-0.41c-0.846-0.078-1.709-0.187-1.707-1.242C66.346,22.453,65.879,18.525,67.105,18.628z"/>
			</g>
			<g>
				<path fill="#FFFFFF" d="M82.735,28.103c-0.354-0.726-0.311-0.813,0.229-1.414c0.354-0.4,0.703-0.769,0.979-1.232
					c2.563-4.244,0.537-7.43-0.816-8.526c-1.313-1.06-3.146-0.986-3.146-0.986s-2.719-0.078-3.846,0.916
					c-0.785,0.693-0.9,2.426-0.896,3.52c0.021,1.629,0.191,14.376,0.391,14.733c0.286,0.542,2.689,0.412,3.006,0.076
					c0.321-0.359,0.157-2.017,0.157-2.017s-0.097-2.104-0.104-3.156c-0.004-0.396-0.094-1.125,0.23-1.326
					c0.979-0.611,4.022,6.064,4.022,6.064c0.405,1.125,2.776,1.39,3.188,0.462C86.58,34.198,83.094,28.816,82.735,28.103z
					 M80.252,24.903c-1.656,1.229-2.129-0.548-2.25-2.026c-0.072-0.896-0.063-1.612-0.031-2.516c0.031-1.01,0.357-1.715,1.113-1.756
					c0.188-0.008,1.412-0.224,2.518,1.162C83,21.517,81.866,23.703,80.252,24.903z"/>
			</g>
		</g>
	</g>
</g>
<g>
	<rect x="410.429" y="100.771" fill="#2C4077" width="125.344" height="39.75"/>
	<polyline fill="#161F3B" points="540.048,144.928 414.769,144.928 410.46,140.52 535.773,140.52 	"/>
	<g>
		
			<text transform="matrix(1 -0.0027 0.0027 1 459.4124 126.8025)" fill="#FFFFFF" font-family="'CooperBT-Medium'" font-size="17.6622">SHARE</text>
	</g>
	<path fill="#FFFFFF" d="M433.943,114.716h1.955v-3.525c-0.785-0.021-1.816-0.051-3.168-0.08c-4.883-0.104-4.703,4.918-4.703,4.918
		v2.895h-3.354v3.771h3.354v9.793h3.906v-9.793h3.283l0.469-3.771h-3.752v-2.53C431.933,114.545,433.943,114.716,433.943,114.716z"
		/>
	<rect x="448.656" y="100.771" fill="#1E2B50" width="1.27" height="39.748"/>
	<polygon fill="#1E2B50" points="540.048,145.229 535.74,140.52 535.74,100.771 540.048,105.475 	"/>
</g>
<g>
	<rect x="5.937" y="100.771" fill="#936844" width="186.396" height="39.746"/>
	<polygon fill="#4A3422" points="196.634,145.229 10.245,145.229 5.937,140.52 192.325,140.52 	"/>
	<polygon fill="#62452D" points="196.634,145.229 192.325,140.52 192.325,100.771 196.634,105.475 	"/>
</g>
<g>
	<rect x="217.171" y="158.125" fill="#96D44F" width="182.08" height="39.748"/>
	<polygon fill="#68961E" points="212.863,158.135 399.251,158.135 399.251,162.846 217.171,162.846 	"/>
	<polygon fill="#74AA27" points="212.863,158.135 217.171,162.846 217.171,197.873 212.863,197.873 	"/>
	<text transform="matrix(1 0 0 1 238.241 185.2654)" fill="#FFFFFF" font-family="'CooperBT-Medium'" font-size="17.6622">WEITERSPIELEN</text>
</g>
<g>
	<polygon fill="#4E7117" points="399.251,145.229 212.863,145.229 208.554,140.52 394.943,140.52 	"/>
	<polygon fill="#68961E" points="399.251,145.229 394.943,140.52 394.943,100.771 399.251,105.475 	"/>
	<rect x="208.554" y="100.771" fill="#74AA27" width="186.389" height="39.746"/>
	<text transform="matrix(1 0 0 1 233.2405 126.615)" fill="#FFFFFF" font-family="'CooperBT-Medium'" font-size="17.6622">WEITERSPIELEN</text>
</g>
<g>
	<rect x="14.537" y="158.125" fill="#D39363" width="182.08" height="39.748"/>
	<polygon fill="#62452D" points="10.245,158.135 14.554,162.846 14.554,197.873 10.245,197.873 	"/>
	<polygon fill="#4A3422" points="196.634,162.846 14.554,162.846 10.245,158.135 196.634,158.135 	"/>
</g>
<g>
	<rect x="414.72" y="158.125" fill="#5079D3" width="125.344" height="39.75"/>
	<g>
		
			<text transform="matrix(1 -0.0027 0.0027 1 463.7039 184.157)" fill="#FFFFFF" font-family="'CooperBT-Medium'" font-size="17.6622">SHARE</text>
	</g>
	<path fill="#FFFFFF" d="M438.234,172.068h1.955v-3.529c-0.785-0.021-1.816-0.049-3.168-0.08c-4.883-0.104-4.703,4.918-4.703,4.918
		v2.894h-3.354v3.771h3.354v9.793h3.906v-9.793h3.283l0.469-3.771h-3.752v-2.533C436.224,171.898,438.234,172.068,438.234,172.068z"
		/>
	<rect x="452.948" y="158.125" fill="#1E2B50" width="1.27" height="39.748"/>
	<polygon fill="#1E2B50" points="419.073,197.873 414.769,197.873 414.769,158.135 419.073,162.838 	"/>
	<polygon fill="#0F1528" points="414.769,158.145 540.064,158.145 540.064,162.855 419.073,162.855 	"/>
</g>
<g>
	<g>
		<rect x="434.367" y="18.319" fill="#80BBD5" stroke="#FFFFFF" stroke-width="2.5" width="6.774" height="10.703"/>
		<polygon fill="#80BBD5" stroke="#FFFFFF" stroke-width="2.5" stroke-linejoin="round" points="451.594,35.707 441.15,29.022 
			441.15,18.319 451.594,11.634 		"/>
	</g>
	<path fill="none" stroke="#FFFFFF" stroke-width="2.5" d="M460.177,12.227c6.313,6.317,6.313,16.563,0,22.887"/>
	<path fill="none" stroke="#FFFFFF" stroke-width="2.5" d="M456.49,16.111c4.182,4.175,4.182,10.944,0,15.118"/>
</g>
<g>
	<path fill="#FFFFFF" d="M485.892,37.479c2.5-3.701,5.3-7.201,8.2-10.604c2.5,3,5.8,6.899,8.396,9.899
		c0.804,0.899,5.104-1.899,4.304-2.799c-2.804-3.302-6.396-7.604-9.196-10.9c3.196-3.5,6.499-6.801,9.999-10
		c1-0.897-2.9-4.3-3.803-3.397c-3.304,3.1-6.5,6.3-9.5,9.599c-2.5-2.799-6.104-6.599-8.696-9.199c-1.2-1.2-4.604,2.603-3.4,3.8
		c2.7,2.7,6.301,6.399,8.7,9.303c-3.104,3.5-6,7.197-8.7,11.1C481.092,35.479,484.892,38.879,485.892,37.479z"/>
</g>
<polygon fill="#AA8D6B" points="583.432,25.285 573.865,25.285 560.946,43.333 573.865,61.379 583.432,61.379 570.508,43.333 "/>
<g>
	<polygon fill="#966E53" points="617.865,25.285 608.307,25.285 621.231,43.332 607.115,59.754 608.307,61.379 617.865,61.379 
		630.793,43.332 	"/>
	<polygon fill="#AA8D6B" points="616.682,23.66 607.115,23.66 620.043,41.707 607.115,59.754 616.682,59.754 629.606,41.707 	"/>
</g>
<polygon fill="#BBA489" points="572.682,59.912 572.7,59.912 560.946,43.49 573.865,25.442 583.432,25.442 582.24,23.817 
	572.682,23.817 559.758,41.865 "/>
<polygon fill="#AA8D6B" points="583.432,25.285 573.865,25.285 560.946,43.333 573.865,61.379 583.432,61.379 570.508,43.333 "/>
<g>
	<rect x="669.1" y="107.721" opacity="0.5" fill="#B28E83" enable-background="new    " width="58.243" height="12.021"/>
	<g>
		<g>
			<circle fill="#302E2C" cx="683.494" cy="110.547" r="5.066"/>
			<circle fill="#514D4A" cx="683.494" cy="110.547" r="3.063"/>
			<polygon fill="#D3A853" points="678.638,103.631 678.638,107.016 682.536,111.811 684.341,111.811 684.341,104.408 
				681.49,104.408 681.49,103.631 			"/>
			<circle fill="#302E2C" cx="713.816" cy="110.547" r="5.066"/>
			<circle fill="#514D4A" cx="713.816" cy="110.547" r="3.063"/>
			<polygon fill="#D3A853" points="718.676,103.631 718.676,107.016 714.774,111.811 712.973,111.811 712.973,104.408 
				715.823,104.408 715.823,103.631 			"/>
		</g>
		<path fill="#302E2C" d="M724.57,97.753c0,2.082-1.565,5.877-4.903,5.877c-3.334,0-38,0-41.666,0c-3.668,0-4.944-3.544-4.944-5.877
			c0-2.334-1-38.416-1-38.416h53.518C725.57,59.337,724.57,95.669,724.57,97.753z"/>
		<path fill="#302E2C" d="M714.43,105.479"/>
		<rect x="670.279" y="50.969" fill="#514D4A" width="57.064" height="10.855"/>
		<path fill="#514D4A" d="M727.32,77.335c0,1.875-2.75,2.75-2.75,2.75V59.833h2.75C727.32,59.833,727.32,75.46,727.32,77.335z"/>
		<path fill="#514D4A" d="M670.302,77.335c0,1.875,2.75,2.75,2.75,2.75V59.833h-2.75C670.302,59.833,670.302,75.46,670.302,77.335z"
			/>
		<rect x="672.052" y="51.96" fill="#11100F" width="53.518" height="8.627"/>
		<g>
			<circle fill="#DC8E21" cx="698.811" cy="81.484" r="10.114"/>
			<circle fill="#AED326" cx="692.744" cy="80.085" r="2.75"/>
			
				<rect x="698.788" y="74.637" transform="matrix(0.7072 -0.707 0.707 0.7072 150.4175 518.0085)" fill="#C5CFD9" width="3.75" height="5.499"/>
			<rect x="697.353" y="81.484" fill="#11100F" width="8.396" height="2.602"/>
			<rect x="692.744" y="85.585" fill="#C5CFD9" width="13" height="0.75"/>
		</g>
	</g>
</g>
<g>
	<path fill="none" stroke="#3AAA35" stroke-width="13" stroke-linejoin="round" d="M700.865,60.587
		c0-18.356-3.78-31.833-20.35-37.015"/>
	<polygon fill="#3AAA35" stroke="#3AAA35" stroke-width="2.9523" stroke-linejoin="round" points="680.57,36.082 673.244,16.111 
		694.503,16.462 	"/>
</g>
<g>
	<rect x="5.937" y="207.771" fill="#D39367" width="186.396" height="39.746"/>
	<polygon fill="#4A3422" points="196.634,252.229 10.245,252.229 5.937,247.52 192.325,247.52 	"/>
	<polygon fill="#62452D" points="196.634,252.229 192.325,247.52 192.325,207.771 196.634,212.475 	"/>
</g>
<g>
	<polygon fill="#4E7117" points="399.251,252.229 212.862,252.229 208.553,247.52 394.942,247.52 	"/>
	<polygon fill="#68961E" points="399.251,252.229 394.942,247.52 394.942,207.771 399.251,212.475 	"/>
	<rect x="208.553" y="207.771" fill="#95D333" width="186.389" height="39.746"/>
	<text transform="matrix(1 0 0 1 233.241 233.615)" fill="#FFFFFF" font-family="'CooperBT-Medium'" font-size="17.6622">WEITERSPIELEN</text>
</g>
<g>
	<rect x="410.428" y="207.771" fill="#5079D3" width="125.344" height="39.75"/>
	<polyline fill="#161F3B" points="540.048,251.928 414.768,251.928 410.46,247.52 535.773,247.52 	"/>
	<g>
		
			<text transform="matrix(1 -0.0027 0.0027 1 459.4119 233.8025)" fill="#FFFFFF" font-family="'CooperBT-Medium'" font-size="17.6622">SHARE</text>
	</g>
	<path fill="#FFFFFF" d="M433.942,221.716h1.955v-3.525c-0.785-0.021-1.816-0.051-3.168-0.08c-4.883-0.104-4.703,4.918-4.703,4.918
		v2.895h-3.354v3.771h3.354v9.793h3.906v-9.793h3.283l0.469-3.771h-3.752v-2.53C431.932,221.545,433.942,221.716,433.942,221.716z"
		/>
	<rect x="448.655" y="207.771" fill="#1E2B50" width="1.27" height="39.748"/>
	<polygon fill="#1E2B50" points="540.048,252.229 535.74,247.52 535.74,207.771 540.048,212.475 	"/>
</g>
<rect x="559.679" y="242.126" fill="#96D44F" width="203.08" height="39.748"/>
<polygon fill="#68961E" points="555.368,242.135 762.759,242.135 762.759,246.846 559.679,246.846 "/>
<polygon fill="#74AA27" points="555.368,242.135 559.679,246.846 559.679,281.874 555.368,281.874 "/>
<text transform="matrix(1 0 0 1 576.1799 269.2683)" fill="#FFFFFF" font-family="'CooperBT-Medium'" font-size="17.6622">KENNENLERNEN</text>
<polygon fill="#4E7117" points="762.759,180.228 555.368,180.228 551.062,175.518 758.448,175.518 "/>
<polygon fill="#68961E" points="762.759,180.228 758.448,175.518 758.448,135.771 762.759,140.473 "/>
<rect x="551.062" y="135.771" fill="#74AA27" width="207.389" height="39.747"/>
<text transform="matrix(1 0 0 1 571.8713 161.614)" fill="#FFFFFF" font-family="'CooperBT-Medium'" font-size="17.6622">KENNENLERNEN</text>
<rect x="792.286" y="242.126" fill="#F2AC3B" width="203.08" height="39.748"/>
<polygon fill="#BC710D" points="787.98,242.135 995.366,242.135 995.366,246.846 792.286,246.846 "/>
<polygon fill="#BC710D" points="787.98,242.135 792.286,246.846 792.286,281.874 787.98,281.874 "/>
<text transform="matrix(1 0 0 1 809.5413 269.2683)" fill="#FFFFFF" font-family="'CooperBT-Medium'" font-size="17.6622">GLEICH SPIELEN</text>
<polygon fill="#B5680B" points="995.366,180.228 787.98,180.228 783.671,175.518 991.06,175.518 "/>
<polygon fill="#BC710D" points="995.366,180.228 991.06,175.518 991.06,135.771 995.366,140.473 "/>
<rect x="783.671" y="135.771" fill="#E08E22" width="207.389" height="39.747"/>
<text transform="matrix(1 0 0 1 805.2327 161.614)" fill="#FFFFFF" font-family="'CooperBT-Medium'" font-size="17.6622">GLEICH SPIELEN</text>
<polygon fill="#4E7117" points="762.759,235.228 555.368,235.228 551.062,230.518 758.448,230.518 "/>
<polygon fill="#68961E" points="762.759,235.228 758.448,230.518 758.448,190.771 762.759,195.473 "/>
<rect x="551.062" y="190.771" fill="#95D34E" width="207.389" height="39.747"/>
<text transform="matrix(1 0 0 1 571.8713 216.614)" fill="#FFFFFF" font-family="'CooperBT-Medium'" font-size="17.6622">KENNENLERNEN</text>
<polygon fill="#B5680B" points="995.366,235.228 787.98,235.228 783.671,230.518 991.06,230.518 "/>
<polygon fill="#BC710D" points="995.366,235.228 991.06,230.518 991.06,190.771 995.366,195.473 "/>
<rect x="783.671" y="190.771" fill="#F1AB3A" width="207.389" height="39.747"/>
<text transform="matrix(1 0 0 1 805.2327 216.614)" fill="#FFFFFF" font-family="'CooperBT-Medium'" font-size="17.6622">GLEICH SPIELEN</text>
</svg>
