<?xml version="1.0" encoding="utf-8"?>
<!-- Generator: Adobe Illustrator 16.0.0, SVG Export Plug-In . SVG Version: 6.00 Build 0)  -->
<!DOCTYPE svg PUBLIC "-//W3C//DTD SVG 1.1//EN" "http://www.w3.org/Graphics/SVG/1.1/DTD/svg11.dtd">
<svg version="1.1" id="Layer_1" xmlns="http://www.w3.org/2000/svg" xmlns:xlink="http://www.w3.org/1999/xlink" x="0px" y="0px"
	 width="494.167px" height="100px" viewBox="0 0 494.167 100" enable-background="new 0 0 494.167 100" xml:space="preserve">
<polygon fill="#878773" points="136.835,41.483 136.835,77.104 141.196,77.104 141.196,41.308 "/>
<g>
	<g opacity="0.2">
		<g>
			<defs>
				<polygon id="SVGID_1_" points="98.868,53.061 192.758,51.479 190.785,25.24 97.635,27.232 				"/>
			</defs>
			<clipPath id="SVGID_2_">
				<use xlink:href="#SVGID_1_"  overflow="visible"/>
			</clipPath>
		</g>
		<g>
			<defs>
				<polygon id="SVGID_3_" points="306.412,49.354 202.399,48.73 202.065,22.414 308.727,23.375 				"/>
			</defs>
			<clipPath id="SVGID_4_">
				<use xlink:href="#SVGID_3_"  overflow="visible"/>
			</clipPath>
		</g>
		<g>
			<defs>
				<polygon id="SVGID_5_" points="384.254,48.652 482.266,49.49 482.964,23.668 384.297,22.271 				"/>
			</defs>
			<clipPath id="SVGID_6_">
				<use xlink:href="#SVGID_5_"  overflow="visible"/>
			</clipPath>
		</g>
		<g>
			<defs>
				<polygon id="SVGID_7_" points="317.77,46.408 373.713,48.354 375.211,23.23 318.174,21.693 				"/>
			</defs>
			<clipPath id="SVGID_8_">
				<use xlink:href="#SVGID_7_"  overflow="visible"/>
			</clipPath>
		</g>
		<polygon points="140.163,51.677 140.163,80.919 144.516,80.919 144.516,51.503 		"/>
		<g>
			<defs>
				<polygon id="SVGID_9_" points="98.868,53.061 192.758,51.479 190.785,25.24 97.635,27.232 				"/>
			</defs>
			<use xlink:href="#SVGID_9_"  overflow="visible"/>
			<clipPath id="SVGID_10_">
				<use xlink:href="#SVGID_9_"  overflow="visible"/>
			</clipPath>
			<path clip-path="url(#SVGID_10_)" fill="none" stroke="#000000" stroke-width="1.3988" stroke-miterlimit="10" d="
				M198.819,24.207c-1.952,1.318-7.525-0.719-10.013-0.721c-6.016-0.008-12.088,0.002-18.115,0.004
				c-4.979,0.002-9.538,0.799-14.398,1.199c-5.211,0.428-10.717-0.721-15.984-0.721c-9.028,0-17.944,0.047-27.014-0.293
				c-5.73-0.213-11.454-0.68-17.179-0.912c-3.46-0.141-7.815,0.846-10.825-0.227"/>
			<path clip-path="url(#SVGID_10_)" fill="none" stroke="#000000" stroke-width="1.3988" stroke-miterlimit="10" d="M84.989,27.068
				c10.601-1.357,21.951,0.256,32.606,0.945c12.567,0.816,24.904,1.771,37.492,1.254c16.352-0.674,33.132-0.531,49.453-0.531"/>
			<path clip-path="url(#SVGID_10_)" fill="none" stroke="#000000" stroke-width="1.3988" stroke-miterlimit="10" d="M91.614,37.322
				c4.897,0,11.974,0.73,17.473-0.006c3.515-0.471,20.438-0.287,25.466-1.559c-3.475-0.975-23.475-0.998-27.276-1.291
				c-3.623-0.277-7.164-0.318-10.783,0c-1.721,0.15-4.211,0.814-5.782,0.232"/>
			<path clip-path="url(#SVGID_10_)" fill="none" stroke="#000000" stroke-width="1.3988" stroke-miterlimit="10" d="M82.882,39.23
				c5.385-0.32,11.032,0.477,16.488,0.477c5.282,0,10.396-0.48,15.658-0.477c7.21,0.004,14.089-0.467,21.153-0.955
				c8.447-0.584,17.643,0.338,26.269,0.477c12.021,0.197,24.312,0.271,36.386,0.705c1.932,0.068,4.555,0.043,6.307,0.488"/>
			<path clip-path="url(#SVGID_10_)" fill="none" stroke="#000000" stroke-width="1.3988" stroke-miterlimit="10" d="
				M203.639,43.523c-3.856,0.994-8.718-0.248-12.725-0.24c-5.26,0.01-10.377-0.734-15.574-0.721
				c-5.55,0.016-11.291,0.729-16.867,0.965c-6.282,0.266-12.725-0.482-19.06-0.482c-17.506,0-34.81,0-52.315,0"/>
			<path clip-path="url(#SVGID_10_)" fill="none" stroke="#000000" stroke-width="1.3988" stroke-miterlimit="10" d="M85.291,46.382
				c3.534,1.029,9.757,0,13.549,0c6.024,0,12.048,0,18.072,0c11.543,0,23.086,0,34.629,0c9.278,0,18.832-0.854,28.005-0.475
				c7.185,0.297,15.182,2.436,22.285,1.906"/>
			<path clip-path="url(#SVGID_10_)" fill="none" stroke="#000000" stroke-width="1.3988" stroke-miterlimit="10" d="
				M202.131,51.152c-20.344-0.404-40.935,0-61.428,0c-9.69,0-19.182-1.192-28.898-1.192c-8.266,0-16.456-0.238-24.707-0.238"/>
			<path clip-path="url(#SVGID_10_)" fill="none" stroke="#000000" stroke-width="1.3988" stroke-miterlimit="10" d="
				M199.423,32.552c-2.161,0.566-4.593,0.066-6.853,0.227c-4.125,0.291-8.203,0.496-12.429,0.488
				c-10.991-0.018-21.813,0.355-32.817-0.004c-22.162-0.727-44.357-2.387-66.551-2.379"/>
		</g>
		<text transform="matrix(0.9996 -0.0283 0.0283 0.9996 113.0081 44.7246)" font-family="'CooperBT-Medium'" font-size="14">Beilagen</text>
		
			<rect x="232.593" y="61.303" transform="matrix(0.0277 -0.9996 0.9996 0.0277 180.1462 310.9716)" width="34.673" height="3.156"/>
		<g>
			<defs>
				<polygon id="SVGID_11_" points="306.412,49.354 202.399,48.73 202.065,22.414 308.727,23.375 				"/>
			</defs>
			<use xlink:href="#SVGID_11_"  overflow="visible"/>
			<clipPath id="SVGID_12_">
				<use xlink:href="#SVGID_11_"  overflow="visible"/>
			</clipPath>
			<path clip-path="url(#SVGID_12_)" fill="none" stroke="#000000" stroke-width="1.3735" stroke-miterlimit="10" d="
				M194.132,24.414c2.232,1.111,8.609-0.605,11.455-0.607c6.881-0.006,13.828,0.002,20.725,0.002
				c5.695,0.002,10.914,0.674,16.475,1.012c5.961,0.361,12.262-0.607,18.287-0.607c10.329,0,20.531,0.041,30.906-0.246
				c6.555-0.18,13.104-0.574,19.654-0.77c3.959-0.119,8.943,0.713,12.387-0.191"/>
			<path clip-path="url(#SVGID_12_)" fill="none" stroke="#000000" stroke-width="1.3735" stroke-miterlimit="10" d="
				M324.364,26.824c-12.129-1.145-25.115,0.217-37.305,0.799c-14.382,0.686-28.492,1.49-42.895,1.055
				c-18.707-0.564-37.906-0.445-56.58-0.445"/>
			<path clip-path="url(#SVGID_12_)" fill="none" stroke="#000000" stroke-width="1.3735" stroke-miterlimit="10" d="
				M316.783,35.467c-5.602,0-13.697,0.615-19.99-0.004c-4.021-0.396-23.381-0.244-29.135-1.316
				c3.977-0.82,26.857-0.842,31.209-1.086c4.143-0.234,8.193-0.268,12.334-0.002c1.971,0.129,4.82,0.688,6.617,0.197"/>
			<path clip-path="url(#SVGID_12_)" fill="none" stroke="#000000" stroke-width="1.3735" stroke-miterlimit="10" d="
				M326.774,37.076c-6.16-0.271-12.623,0.4-18.863,0.4c-6.043,0-11.893-0.404-17.914-0.4c-8.25,0.002-16.119-0.395-24.201-0.805
				c-9.666-0.492-20.186,0.283-30.055,0.4c-13.752,0.164-27.814,0.227-41.628,0.594c-2.211,0.059-5.209,0.037-7.217,0.412"/>
			<path clip-path="url(#SVGID_12_)" fill="none" stroke="#000000" stroke-width="1.3735" stroke-miterlimit="10" d="
				M188.618,40.693c4.412,0.836,9.973-0.209,14.556-0.203c6.019,0.01,11.875-0.619,17.82-0.607
				c6.35,0.014,12.918,0.613,19.295,0.814c7.191,0.223,14.563-0.406,21.809-0.406c20.027,0,39.826,0,59.854,0"/>
			<path clip-path="url(#SVGID_12_)" fill="none" stroke="#000000" stroke-width="1.3735" stroke-miterlimit="10" d="M324.02,43.104
				c-4.047,0.865-11.164,0-15.502,0c-6.893,0-13.785,0-20.678,0c-13.205,0-26.413,0-39.617,0c-10.617,0-21.546-0.723-32.041-0.4
				c-8.219,0.25-17.369,2.051-25.496,1.605"/>
			<path clip-path="url(#SVGID_12_)" fill="none" stroke="#000000" stroke-width="1.3735" stroke-miterlimit="10" d="
				M190.341,47.123c23.277-0.342,46.835,0,70.279,0c11.09,0,21.948-1.006,33.064-1.006c9.459,0,18.828-0.201,28.268-0.201"/>
			<path clip-path="url(#SVGID_12_)" fill="none" stroke="#000000" stroke-width="1.3735" stroke-miterlimit="10" d="
				M193.442,31.447c2.473,0.477,5.252,0.057,7.839,0.191c4.719,0.244,9.383,0.418,14.219,0.41
				c12.574-0.014,24.957,0.301,37.545-0.004c25.356-0.611,50.748-2.008,76.143-2.004"/>
		</g>
		<text transform="matrix(0.9999 0.0153 -0.0153 0.9999 216.9661 40.4717)" font-family="'CooperBT-Medium'" font-size="14">Tierisches</text>
		
			<rect x="415.176" y="62.378" transform="matrix(-0.0136 -0.9999 0.9999 -0.0136 374.4578 497.3016)" width="34.673" height="3.158"/>
		<g>
			<defs>
				<polygon id="SVGID_13_" points="384.254,48.652 482.266,49.49 482.964,23.668 384.297,22.271 				"/>
			</defs>
			<use xlink:href="#SVGID_13_"  overflow="visible"/>
			<clipPath id="SVGID_14_">
				<use xlink:href="#SVGID_13_"  overflow="visible"/>
			</clipPath>
			<path clip-path="url(#SVGID_14_)" fill="none" stroke="#000000" stroke-width="1.3608" stroke-miterlimit="10" d="M494.869,25.75
				c-2.248,1.059-8.601-0.717-11.446-0.758c-6.88-0.104-13.827-0.193-20.722-0.287c-5.695-0.08-10.924,0.506-16.488,0.76
				c-5.965,0.27-12.252-0.77-18.275-0.855c-10.33-0.145-20.531-0.248-30.9-0.676c-6.552-0.268-13.094-0.746-19.643-1.031
				c-3.956-0.174-8.951,0.572-12.383-0.361"/>
			<path clip-path="url(#SVGID_14_)" fill="none" stroke="#000000" stroke-width="1.3608" stroke-miterlimit="10" d="
				M364.615,26.283c12.145-0.953,25.111,0.564,37.291,1.307c14.369,0.877,28.469,1.865,42.875,1.641
				c18.713-0.291,37.908,0.098,56.58,0.359"/>
			<path clip-path="url(#SVGID_14_)" fill="none" stroke="#000000" stroke-width="1.3608" stroke-miterlimit="10" d="
				M372.076,34.871c5.602,0.078,13.688,0.799,19.988,0.277c4.027-0.332,23.381,0.09,29.15-0.881
				c-3.965-0.861-26.844-1.203-31.191-1.506c-4.139-0.287-8.189-0.377-12.332-0.174c-1.973,0.1-4.83,0.605-6.621,0.102"/>
			<path clip-path="url(#SVGID_14_)" fill="none" stroke="#000000" stroke-width="1.3608" stroke-miterlimit="10" d="
				M362.065,36.311c6.164-0.18,12.617,0.57,18.855,0.658c6.043,0.086,11.896-0.23,17.918-0.141c8.25,0.119,16.123-0.16,24.21-0.451
				c9.671-0.348,20.18,0.563,30.046,0.818c13.748,0.354,27.809,0.615,41.617,1.168c2.209,0.09,5.207,0.109,7.211,0.506"/>
			<path clip-path="url(#SVGID_14_)" fill="none" stroke="#000000" stroke-width="1.3608" stroke-miterlimit="10" d="
				M500.156,41.805c-4.422,0.758-9.969-0.346-14.551-0.404c-6.02-0.074-11.866-0.773-17.811-0.846
				c-6.35-0.076-12.926,0.42-19.305,0.527c-7.193,0.117-14.555-0.604-21.801-0.705c-20.025-0.283-39.822-0.561-59.848-0.844"/>
			<path clip-path="url(#SVGID_14_)" fill="none" stroke="#000000" stroke-width="1.3608" stroke-miterlimit="10" d="
				M364.735,42.264c4.035,0.906,11.164,0.158,15.5,0.219c6.893,0.098,13.785,0.193,20.676,0.291
				c13.205,0.186,26.41,0.371,39.613,0.559c10.617,0.148,21.554-0.404,32.045,0.059c8.213,0.359,17.338,2.256,25.471,1.934"/>
			<path clip-path="url(#SVGID_14_)" fill="none" stroke="#000000" stroke-width="1.3608" stroke-miterlimit="10" d="M498.346,48.09
				c-23.27-0.66-46.832-0.658-70.271-0.988c-11.09-0.156-21.934-1.295-33.048-1.451c-9.458-0.133-18.823-0.461-28.263-0.594"/>
			<path clip-path="url(#SVGID_14_)" fill="none" stroke="#000000" stroke-width="1.3608" stroke-miterlimit="10" d="
				M495.461,32.662c-2.479,0.434-5.252-0.02-7.842,0.078c-4.722,0.172-9.387,0.277-14.223,0.203
				c-12.574-0.191-24.959-0.059-37.541-0.533c-25.346-0.957-50.716-2.686-76.107-3.039"/>
		</g>
		<text transform="matrix(0.9999 0.0153 -0.0153 0.9999 396.3323 40.4648)" font-family="'CooperBT-Medium'" font-size="14">Fast Food</text>
		
			<rect x="328.321" y="60.632" transform="matrix(0.0277 -0.9996 0.9996 0.0277 273.8894 406.0104)" width="34.672" height="3.157"/>
		<g>
			<defs>
				<polygon id="SVGID_15_" points="317.77,46.408 373.713,48.354 375.211,23.23 318.174,21.693 				"/>
			</defs>
			<use xlink:href="#SVGID_15_"  overflow="visible"/>
			<clipPath id="SVGID_16_">
				<use xlink:href="#SVGID_15_"  overflow="visible"/>
			</clipPath>
			<path clip-path="url(#SVGID_16_)" fill="none" stroke="#000000" stroke-width="1.0501" stroke-miterlimit="10" d="M379.62,26.533
				c-1.189,1.219-4.591-0.664-6.108-0.666c-3.67-0.008-7.373,0.002-11.053,0.004c-3.035,0.002-5.817,0.738-8.784,1.107
				c-3.178,0.396-6.538-0.666-9.751-0.666c-5.509,0-10.947,0.045-16.48-0.27c-3.496-0.197-6.988-0.629-10.481-0.842
				c-2.11-0.131-4.769,0.781-6.604-0.211"/>
			<path clip-path="url(#SVGID_16_)" fill="none" stroke="#000000" stroke-width="1.0501" stroke-miterlimit="10" d="
				M310.172,29.176c6.469-1.254,13.395,0.236,19.895,0.875c7.668,0.752,15.194,1.635,22.874,1.156
				c9.976-0.621,20.214-0.488,30.171-0.488"/>
			<path clip-path="url(#SVGID_16_)" fill="none" stroke="#000000" stroke-width="1.0501" stroke-miterlimit="10" d="
				M314.217,38.646c2.986,0,7.303,0.676,10.66-0.004c2.144-0.436,12.467-0.268,15.535-1.439c-2.119-0.9-14.322-0.922-16.642-1.191
				c-2.21-0.258-4.369-0.295-6.577-0.002c-1.052,0.139-2.571,0.752-3.529,0.215"/>
			<path clip-path="url(#SVGID_16_)" fill="none" stroke="#000000" stroke-width="1.0501" stroke-miterlimit="10" d="M308.887,40.41
				c3.287-0.295,6.732,0.439,10.061,0.439c3.223,0,6.343-0.443,9.553-0.439c4.4,0.004,8.596-0.432,12.905-0.881
				c5.155-0.541,10.765,0.311,16.027,0.439c7.333,0.18,14.833,0.25,22.198,0.65c1.179,0.063,2.777,0.039,3.848,0.451"/>
			<path clip-path="url(#SVGID_16_)" fill="none" stroke="#000000" stroke-width="1.0501" stroke-miterlimit="10" d="
				M382.561,44.375c-2.353,0.918-5.318-0.229-7.764-0.223c-3.209,0.01-6.331-0.676-9.502-0.664
				c-3.385,0.014-6.888,0.672-10.289,0.891c-3.834,0.246-7.765-0.445-11.629-0.445c-10.68,0-21.236,0-31.917,0"/>
			<path clip-path="url(#SVGID_16_)" fill="none" stroke="#000000" stroke-width="1.0501" stroke-miterlimit="10" d="
				M310.358,47.018c2.158,0.949,5.953,0,8.267,0c3.676,0,7.35,0,11.025,0c7.043,0,14.085,0,21.127,0
				c5.66,0,11.488-0.789,17.087-0.439c4.382,0.273,9.261,2.248,13.595,1.76"/>
			<path clip-path="url(#SVGID_16_)" fill="none" stroke="#000000" stroke-width="1.0501" stroke-miterlimit="10" d="
				M381.643,51.422c-12.414-0.373-24.977,0-37.478,0c-5.913,0-11.704-1.102-17.632-1.102c-5.043,0-10.039-0.219-15.073-0.219"/>
			<path clip-path="url(#SVGID_16_)" fill="none" stroke="#000000" stroke-width="1.0501" stroke-miterlimit="10" d="
				M379.989,34.242c-1.318,0.521-2.8,0.061-4.182,0.209c-2.516,0.27-5.003,0.457-7.581,0.451
				c-6.705-0.016-13.309,0.328-20.021-0.006c-13.521-0.67-27.062-2.201-40.603-2.197"/>
		</g>
		<text transform="matrix(0.9999 0.0153 -0.0153 0.9999 329.3264 39.7715)" font-family="'CooperBT-Medium'" font-size="14">Obst</text>
		<g>
			<defs>
				<polygon id="SVGID_17_" points="98.868,53.061 192.758,51.479 190.785,25.24 97.635,27.232 				"/>
			</defs>
			<clipPath id="SVGID_18_">
				<use xlink:href="#SVGID_17_"  overflow="visible"/>
			</clipPath>
		</g>
		<g>
			<defs>
				<polygon id="SVGID_19_" points="306.412,49.354 202.399,48.73 202.065,22.414 308.727,23.375 				"/>
			</defs>
			<clipPath id="SVGID_20_">
				<use xlink:href="#SVGID_19_"  overflow="visible"/>
			</clipPath>
		</g>
		<g>
			<defs>
				<polygon id="SVGID_21_" points="384.254,48.652 482.266,49.49 482.964,23.668 384.297,22.271 				"/>
			</defs>
			<clipPath id="SVGID_22_">
				<use xlink:href="#SVGID_21_"  overflow="visible"/>
			</clipPath>
		</g>
		<g>
			<defs>
				<polygon id="SVGID_23_" points="317.77,46.408 373.713,48.354 375.211,23.23 318.174,21.693 				"/>
			</defs>
			<clipPath id="SVGID_24_">
				<use xlink:href="#SVGID_23_"  overflow="visible"/>
			</clipPath>
		</g>
	</g>
	<g>
		<g>
			<g>
				<defs>
					<polygon id="SVGID_25_" points="94.868,49.06 188.758,47.478 186.785,21.24 93.635,23.232 					"/>
				</defs>
				<clipPath id="SVGID_26_">
					<use xlink:href="#SVGID_25_"  overflow="visible"/>
				</clipPath>
			</g>
			<g>
				<g>
					<defs>
						<polygon id="SVGID_27_" points="302.412,45.354 198.399,44.73 198.065,18.414 304.727,19.375 						"/>
					</defs>
					<clipPath id="SVGID_28_">
						<use xlink:href="#SVGID_27_"  overflow="visible"/>
					</clipPath>
				</g>
			</g>
			<g>
				<g>
					<defs>
						<polygon id="SVGID_29_" points="380.254,44.652 478.266,45.49 478.964,19.668 380.297,18.271 						"/>
					</defs>
					<clipPath id="SVGID_30_">
						<use xlink:href="#SVGID_29_"  overflow="visible"/>
					</clipPath>
				</g>
			</g>
			<g>
				<g>
					<defs>
						<polygon id="SVGID_31_" points="313.77,42.408 369.713,44.354 371.211,19.23 314.174,17.693 						"/>
					</defs>
					<clipPath id="SVGID_32_">
						<use xlink:href="#SVGID_31_"  overflow="visible"/>
					</clipPath>
				</g>
			</g>
		</g>
		<g>
			<polygon fill="#534741" points="136.163,47.677 136.163,76.919 140.516,76.919 140.516,47.503 			"/>
			<g>
				<defs>
					<polygon id="SVGID_33_" points="94.868,49.06 188.758,47.478 186.785,21.24 93.635,23.232 					"/>
				</defs>
				<use xlink:href="#SVGID_33_"  overflow="visible" fill="#754C24"/>
				<clipPath id="SVGID_34_">
					<use xlink:href="#SVGID_33_"  overflow="visible"/>
				</clipPath>
				<g clip-path="url(#SVGID_34_)">
					<path fill="none" stroke="#876747" stroke-width="1.3988" stroke-miterlimit="10" d="M194.819,20.207
						c-1.952,1.318-7.525-0.719-10.013-0.721c-6.016-0.008-12.088,0.002-18.115,0.004c-4.979,0.002-9.538,0.799-14.398,1.199
						c-5.211,0.428-10.717-0.721-15.984-0.721c-9.028,0-17.944,0.047-27.014-0.293c-5.73-0.213-11.454-0.68-17.179-0.912
						c-3.46-0.141-7.815,0.846-10.825-0.227"/>
					<path fill="none" stroke="#876747" stroke-width="1.3988" stroke-miterlimit="10" d="M80.989,23.068
						c10.601-1.357,21.951,0.256,32.606,0.945c12.567,0.816,24.904,1.771,37.492,1.254c16.352-0.674,33.132-0.531,49.453-0.531"/>
					<path fill="none" stroke="#876747" stroke-width="1.3988" stroke-miterlimit="10" d="M87.614,33.322
						c4.897,0,11.974,0.73,17.473-0.006c3.515-0.471,20.438-0.287,25.466-1.559c-3.475-0.975-23.475-0.998-27.276-1.291
						c-3.623-0.277-7.164-0.318-10.783,0c-1.721,0.15-4.211,0.814-5.782,0.232"/>
					<path fill="none" stroke="#876747" stroke-width="1.3988" stroke-miterlimit="10" d="M78.882,35.23
						c5.385-0.32,11.032,0.477,16.488,0.477c5.282,0,10.396-0.48,15.658-0.477c7.21,0.004,14.089-0.467,21.153-0.955
						c8.447-0.584,17.643,0.338,26.269,0.477c12.021,0.197,24.312,0.271,36.386,0.705c1.933,0.068,4.555,0.043,6.307,0.488"/>
					<path fill="none" stroke="#876747" stroke-width="1.3988" stroke-miterlimit="10" d="M199.638,39.523
						c-3.855,0.994-8.718-0.248-12.725-0.24c-5.26,0.01-10.377-0.734-15.574-0.721c-5.55,0.016-11.291,0.729-16.867,0.965
						c-6.282,0.266-12.725-0.482-19.06-0.482c-17.506,0-34.81,0-52.315,0"/>
					<path fill="none" stroke="#876747" stroke-width="1.3988" stroke-miterlimit="10" d="M81.291,42.382
						c3.534,1.029,9.757,0,13.549,0c6.024,0,12.048,0,18.072,0c11.543,0,23.086,0,34.629,0c9.278,0,18.832-0.854,28.005-0.475
						c7.185,0.297,15.182,2.436,22.284,1.906"/>
					<path fill="none" stroke="#876747" stroke-width="1.3988" stroke-miterlimit="10" d="M198.131,47.152
						c-20.344-0.404-40.935,0-61.428,0c-9.69,0-19.182-1.191-28.898-1.191c-8.266,0-16.456-0.238-24.707-0.238"/>
					<path fill="none" stroke="#876747" stroke-width="1.3988" stroke-miterlimit="10" d="M195.423,28.552
						c-2.161,0.566-4.593,0.066-6.853,0.227c-4.125,0.291-8.203,0.496-12.429,0.488c-10.991-0.018-21.813,0.355-32.817-0.004
						c-22.162-0.727-44.357-2.387-66.551-2.379"/>
				</g>
			</g>
			<g>
				
					<text transform="matrix(0.9996 -0.0283 0.0283 0.9996 109.0081 40.7246)" fill="#FFFFFF" font-family="'CooperBT-Medium'" font-size="14">Beilagen</text>
			</g>
			<g>
				
					<rect x="228.593" y="57.303" transform="matrix(0.0277 -0.9996 0.9996 0.0277 180.2555 303.084)" fill="#534741" width="34.673" height="3.156"/>
				<g>
					<defs>
						<polygon id="SVGID_35_" points="302.412,45.354 198.399,44.73 198.065,18.414 304.727,19.375 						"/>
					</defs>
					<use xlink:href="#SVGID_35_"  overflow="visible" fill="#754C24"/>
					<clipPath id="SVGID_36_">
						<use xlink:href="#SVGID_35_"  overflow="visible"/>
					</clipPath>
					<g clip-path="url(#SVGID_36_)">
						<path fill="none" stroke="#876747" stroke-width="1.3735" stroke-miterlimit="10" d="M190.132,20.414
							c2.232,1.111,8.609-0.605,11.455-0.607c6.881-0.006,13.828,0.002,20.725,0.002c5.695,0.002,10.914,0.674,16.475,1.012
							c5.961,0.361,12.262-0.607,18.287-0.607c10.329,0,20.531,0.041,30.906-0.246c6.555-0.18,13.104-0.574,19.654-0.77
							c3.959-0.119,8.943,0.713,12.387-0.191"/>
						<path fill="none" stroke="#876747" stroke-width="1.3735" stroke-miterlimit="10" d="M320.364,22.824
							c-12.129-1.145-25.115,0.217-37.305,0.799c-14.382,0.686-28.492,1.49-42.895,1.055c-18.707-0.564-37.906-0.445-56.58-0.445"/>
						<path fill="none" stroke="#876747" stroke-width="1.3735" stroke-miterlimit="10" d="M312.783,31.467
							c-5.602,0-13.697,0.615-19.99-0.004c-4.021-0.396-23.381-0.244-29.135-1.316c3.977-0.82,26.857-0.842,31.209-1.086
							c4.143-0.234,8.193-0.268,12.334-0.002c1.971,0.129,4.82,0.688,6.617,0.197"/>
						<path fill="none" stroke="#876747" stroke-width="1.3735" stroke-miterlimit="10" d="M322.774,33.076
							c-6.16-0.271-12.623,0.4-18.863,0.4c-6.043,0-11.893-0.404-17.914-0.4c-8.25,0.002-16.119-0.395-24.201-0.805
							c-9.666-0.492-20.186,0.283-30.055,0.4c-13.752,0.164-27.814,0.227-41.628,0.594c-2.211,0.059-5.209,0.037-7.217,0.412"/>
						<path fill="none" stroke="#876747" stroke-width="1.3735" stroke-miterlimit="10" d="M184.618,36.693
							c4.412,0.836,9.973-0.209,14.557-0.203c6.018,0.01,11.875-0.619,17.82-0.607c6.35,0.014,12.918,0.613,19.295,0.814
							c7.191,0.223,14.563-0.406,21.809-0.406c20.027,0,39.826,0,59.854,0"/>
						<path fill="none" stroke="#876747" stroke-width="1.3735" stroke-miterlimit="10" d="M320.02,39.104
							c-4.047,0.865-11.164,0-15.502,0c-6.893,0-13.785,0-20.678,0c-13.205,0-26.413,0-39.617,0c-10.617,0-21.546-0.723-32.041-0.4
							c-8.219,0.25-17.369,2.051-25.496,1.605"/>
						<path fill="none" stroke="#876747" stroke-width="1.3735" stroke-miterlimit="10" d="M186.341,43.123
							c23.277-0.342,46.835,0,70.279,0c11.09,0,21.948-1.006,33.064-1.006c9.459,0,18.828-0.201,28.268-0.201"/>
						<path fill="none" stroke="#876747" stroke-width="1.3735" stroke-miterlimit="10" d="M189.442,27.447
							c2.473,0.477,5.252,0.057,7.84,0.191c4.718,0.244,9.382,0.418,14.218,0.41c12.574-0.014,24.957,0.301,37.545-0.004
							c25.356-0.611,50.748-2.008,76.143-2.004"/>
					</g>
				</g>
				<g>
					
						<text transform="matrix(0.9999 0.0153 -0.0153 0.9999 212.9661 36.4717)" fill="#FFFFFF" font-family="'CooperBT-Medium'" font-size="14">Tierisches</text>
				</g>
			</g>
			<g>
				
					<rect x="411.176" y="58.378" transform="matrix(-0.0136 -0.9999 0.9999 -0.0136 374.4029 489.2475)" fill="#534741" width="34.673" height="3.158"/>
				<g>
					<defs>
						<polygon id="SVGID_37_" points="380.254,44.652 478.266,45.49 478.964,19.668 380.297,18.271 						"/>
					</defs>
					<use xlink:href="#SVGID_37_"  overflow="visible" fill="#754C24"/>
					<clipPath id="SVGID_38_">
						<use xlink:href="#SVGID_37_"  overflow="visible"/>
					</clipPath>
					<g clip-path="url(#SVGID_38_)">
						<path fill="none" stroke="#876747" stroke-width="1.3608" stroke-miterlimit="10" d="M490.869,21.75
							c-2.248,1.059-8.601-0.717-11.446-0.758c-6.88-0.104-13.827-0.193-20.722-0.287c-5.695-0.08-10.924,0.506-16.488,0.76
							c-5.965,0.27-12.252-0.77-18.275-0.855c-10.33-0.145-20.531-0.248-30.9-0.676c-6.552-0.268-13.094-0.746-19.643-1.031
							c-3.956-0.174-8.951,0.572-12.383-0.361"/>
						<path fill="none" stroke="#876747" stroke-width="1.3608" stroke-miterlimit="10" d="M360.615,22.283
							c12.145-0.953,25.111,0.564,37.291,1.307c14.369,0.877,28.469,1.865,42.875,1.641c18.713-0.291,37.908,0.098,56.58,0.359"/>
						<path fill="none" stroke="#876747" stroke-width="1.3608" stroke-miterlimit="10" d="M368.076,30.871
							c5.602,0.078,13.688,0.799,19.988,0.277c4.027-0.332,23.381,0.09,29.15-0.881c-3.965-0.861-26.844-1.203-31.191-1.506
							c-4.139-0.287-8.189-0.377-12.332-0.174c-1.973,0.1-4.83,0.605-6.621,0.102"/>
						<path fill="none" stroke="#876747" stroke-width="1.3608" stroke-miterlimit="10" d="M358.065,32.311
							c6.164-0.18,12.617,0.57,18.855,0.658c6.043,0.086,11.896-0.23,17.918-0.141c8.25,0.119,16.123-0.16,24.21-0.451
							c9.671-0.348,20.18,0.563,30.046,0.818c13.748,0.354,27.809,0.615,41.617,1.168c2.209,0.09,5.207,0.109,7.211,0.506"/>
						<path fill="none" stroke="#876747" stroke-width="1.3608" stroke-miterlimit="10" d="M496.156,37.805
							c-4.422,0.758-9.969-0.346-14.551-0.404c-6.02-0.074-11.866-0.773-17.811-0.846c-6.35-0.076-12.926,0.42-19.305,0.527
							c-7.193,0.117-14.555-0.604-21.801-0.705c-20.025-0.283-39.822-0.561-59.848-0.844"/>
						<path fill="none" stroke="#876747" stroke-width="1.3608" stroke-miterlimit="10" d="M360.735,38.264
							c4.035,0.906,11.164,0.158,15.5,0.219c6.893,0.098,13.785,0.193,20.676,0.291c13.205,0.186,26.41,0.371,39.613,0.559
							c10.617,0.148,21.554-0.404,32.045,0.059c8.213,0.359,17.338,2.256,25.471,1.934"/>
						<path fill="none" stroke="#876747" stroke-width="1.3608" stroke-miterlimit="10" d="M494.346,44.09
							c-23.27-0.66-46.832-0.658-70.271-0.988c-11.09-0.156-21.934-1.295-33.048-1.451c-9.458-0.133-18.823-0.461-28.263-0.594"/>
						<path fill="none" stroke="#876747" stroke-width="1.3608" stroke-miterlimit="10" d="M491.461,28.662
							c-2.479,0.434-5.252-0.02-7.842,0.078c-4.722,0.172-9.387,0.277-14.223,0.203c-12.574-0.191-24.959-0.059-37.541-0.533
							c-25.346-0.957-50.716-2.686-76.107-3.039"/>
					</g>
				</g>
				<g>
					
						<text transform="matrix(0.9999 0.0153 -0.0153 0.9999 392.3323 36.4648)" fill="#FFFFFF" font-family="'CooperBT-Medium'" font-size="14">Fast Food</text>
				</g>
			</g>
			<g>
				
					<rect x="324.321" y="56.632" transform="matrix(0.0277 -0.9996 0.9996 0.0277 273.9988 398.1228)" fill="#534741" width="34.672" height="3.157"/>
				<g>
					<defs>
						<polygon id="SVGID_39_" points="313.77,42.408 369.713,44.354 371.211,19.23 314.174,17.693 						"/>
					</defs>
					<use xlink:href="#SVGID_39_"  overflow="visible" fill="#754C24"/>
					<clipPath id="SVGID_40_">
						<use xlink:href="#SVGID_39_"  overflow="visible"/>
					</clipPath>
					<g clip-path="url(#SVGID_40_)">
						<path fill="none" stroke="#876747" stroke-width="1.0501" stroke-miterlimit="10" d="M375.62,22.533
							c-1.189,1.219-4.591-0.664-6.108-0.666c-3.67-0.008-7.373,0.002-11.053,0.004c-3.035,0.002-5.817,0.738-8.784,1.107
							c-3.178,0.396-6.538-0.666-9.751-0.666c-5.509,0-10.947,0.045-16.48-0.27c-3.496-0.197-6.988-0.629-10.481-0.842
							c-2.11-0.131-4.769,0.781-6.604-0.211"/>
						<path fill="none" stroke="#876747" stroke-width="1.0501" stroke-miterlimit="10" d="M306.172,25.176
							c6.469-1.254,13.395,0.236,19.895,0.875c7.668,0.752,15.194,1.635,22.874,1.156c9.976-0.621,20.214-0.488,30.171-0.488"/>
						<path fill="none" stroke="#876747" stroke-width="1.0501" stroke-miterlimit="10" d="M310.217,34.646
							c2.986,0,7.303,0.676,10.66-0.004c2.144-0.436,12.467-0.268,15.535-1.439c-2.119-0.9-14.322-0.922-16.642-1.191
							c-2.21-0.258-4.369-0.295-6.577-0.002c-1.052,0.139-2.571,0.752-3.529,0.215"/>
						<path fill="none" stroke="#876747" stroke-width="1.0501" stroke-miterlimit="10" d="M304.887,36.41
							c3.287-0.295,6.732,0.439,10.061,0.439c3.223,0,6.343-0.443,9.553-0.439c4.4,0.004,8.596-0.432,12.905-0.881
							c5.155-0.541,10.765,0.311,16.027,0.439c7.333,0.18,14.833,0.25,22.198,0.65c1.179,0.063,2.777,0.039,3.848,0.451"/>
						<path fill="none" stroke="#876747" stroke-width="1.0501" stroke-miterlimit="10" d="M378.561,40.375
							c-2.353,0.918-5.318-0.229-7.764-0.223c-3.209,0.01-6.331-0.676-9.502-0.664c-3.385,0.014-6.888,0.672-10.289,0.891
							c-3.834,0.246-7.765-0.445-11.629-0.445c-10.68,0-21.236,0-31.917,0"/>
						<path fill="none" stroke="#876747" stroke-width="1.0501" stroke-miterlimit="10" d="M306.358,43.018
							c2.158,0.949,5.953,0,8.267,0c3.676,0,7.35,0,11.025,0c7.043,0,14.085,0,21.127,0c5.66,0,11.488-0.789,17.087-0.439
							c4.382,0.273,9.261,2.248,13.595,1.76"/>
						<path fill="none" stroke="#876747" stroke-width="1.0501" stroke-miterlimit="10" d="M377.643,47.422
							c-12.414-0.373-24.977,0-37.478,0c-5.913,0-11.704-1.102-17.632-1.102c-5.043,0-10.039-0.219-15.073-0.219"/>
						<path fill="none" stroke="#876747" stroke-width="1.0501" stroke-miterlimit="10" d="M375.989,30.242
							c-1.318,0.521-2.8,0.061-4.182,0.209c-2.516,0.27-5.003,0.457-7.581,0.451c-6.705-0.016-13.309,0.328-20.021-0.006
							c-13.521-0.67-27.062-2.201-40.603-2.197"/>
					</g>
				</g>
				<g>
					
						<text transform="matrix(0.9999 0.0153 -0.0153 0.9999 325.3264 35.7715)" fill="#FFFFFF" font-family="'CooperBT-Medium'" font-size="14">Obst</text>
				</g>
			</g>
		</g>
		<g>
			<g>
				<defs>
					<polygon id="SVGID_41_" points="94.868,49.06 188.758,47.478 186.785,21.24 93.635,23.232 					"/>
				</defs>
				<clipPath id="SVGID_42_">
					<use xlink:href="#SVGID_41_"  overflow="visible"/>
				</clipPath>
			</g>
			<g>
				<g>
					<defs>
						<polygon id="SVGID_43_" points="302.412,45.354 198.399,44.73 198.065,18.414 304.727,19.375 						"/>
					</defs>
					<clipPath id="SVGID_44_">
						<use xlink:href="#SVGID_43_"  overflow="visible"/>
					</clipPath>
				</g>
			</g>
			<g>
				<g>
					<defs>
						<polygon id="SVGID_45_" points="380.254,44.652 478.266,45.49 478.964,19.668 380.297,18.271 						"/>
					</defs>
					<clipPath id="SVGID_46_">
						<use xlink:href="#SVGID_45_"  overflow="visible"/>
					</clipPath>
				</g>
			</g>
			<g>
				<g>
					<defs>
						<polygon id="SVGID_47_" points="313.77,42.408 369.713,44.354 371.211,19.23 314.174,17.693 						"/>
					</defs>
					<clipPath id="SVGID_48_">
						<use xlink:href="#SVGID_47_"  overflow="visible"/>
					</clipPath>
				</g>
			</g>
		</g>
	</g>
</g>
<g>
	<g opacity="0.2">
		<g>
			<defs>
				<polygon id="SVGID_49_" points="92.1,51.46 11.188,53.806 7.942,24.644 87.645,22.415 				"/>
			</defs>
			<clipPath id="SVGID_50_">
				<use xlink:href="#SVGID_49_"  overflow="visible"/>
			</clipPath>
		</g>
		<polygon points="49.319,51.462 53.254,51.212 57.787,88.268 53.465,88.094 		"/>
		<g>
			<defs>
				<polygon id="SVGID_51_" points="92.1,51.46 11.188,53.806 7.942,24.644 87.645,22.415 				"/>
			</defs>
			<use xlink:href="#SVGID_51_"  overflow="visible"/>
			<clipPath id="SVGID_52_">
				<use xlink:href="#SVGID_51_"  overflow="visible"/>
			</clipPath>
			<path clip-path="url(#SVGID_52_)" fill="none" stroke="#000000" stroke-width="1.4461" stroke-miterlimit="10" d="M4.539,20.284
				c1.795,1.531,6.924-0.836,9.211-0.838c5.533-0.01,11.119,0.002,16.666,0.004c4.58,0.002,8.775,0.928,13.246,1.393
				c4.793,0.498,9.859-0.836,14.705-0.836c8.307,0,16.508,0.055,24.852-0.34c5.271-0.248,10.537-0.791,15.805-1.061
				c3.182-0.164,7.189,0.982,9.959-0.264"/>
			<path clip-path="url(#SVGID_52_)" fill="none" stroke="#000000" stroke-width="1.4461" stroke-miterlimit="10" d="M109.26,23.606
				c-9.754-1.576-20.195,0.299-29.998,1.1c-11.563,0.947-22.91,2.057-34.49,1.455c-15.043-0.781-30.48-0.615-45.496-0.615"/>
			<path clip-path="url(#SVGID_52_)" fill="none" stroke="#000000" stroke-width="1.4461" stroke-miterlimit="10" d="
				M103.164,35.521c-4.504,0-11.014,0.85-16.074-0.008c-3.232-0.547-18.801-0.334-23.428-1.811
				c3.197-1.133,21.596-1.16,25.094-1.498c3.334-0.324,6.59-0.371,9.92-0.002c1.584,0.176,3.875,0.947,5.32,0.27"/>
			<path clip-path="url(#SVGID_52_)" fill="none" stroke="#000000" stroke-width="1.4461" stroke-miterlimit="10" d="
				M111.198,37.737c-4.953-0.373-10.148,0.553-15.168,0.553c-4.859,0-9.563-0.559-14.404-0.553
				c-6.635,0.004-12.963-0.543-19.461-1.109c-7.771-0.68-16.23,0.391-24.166,0.553c-11.059,0.229-22.367,0.314-33.473,0.818
				c-1.779,0.08-4.191,0.051-5.805,0.568"/>
			<path clip-path="url(#SVGID_52_)" fill="none" stroke="#000000" stroke-width="1.4461" stroke-miterlimit="10" d="M0.108,42.724
				c3.547,1.154,8.018-0.287,11.703-0.279c4.842,0.012,9.549-0.852,14.33-0.836c5.105,0.018,10.387,0.846,15.516,1.121
				c5.781,0.309,11.707-0.561,17.535-0.561c16.105,0,32.023,0,48.129,0"/>
			<path clip-path="url(#SVGID_52_)" fill="none" stroke="#000000" stroke-width="1.4461" stroke-miterlimit="10" d="
				M108.983,46.046c-3.252,1.195-8.977,0-12.465,0c-5.543,0-11.084,0-16.627,0c-10.619,0-21.238,0-31.857,0
				c-8.535,0-17.324-0.99-25.764-0.551c-6.609,0.344-13.965,2.828-20.5,2.215"/>
			<path clip-path="url(#SVGID_52_)" fill="none" stroke="#000000" stroke-width="1.4461" stroke-miterlimit="10" d="M1.492,51.587
				c18.717-0.471,37.66,0,56.51,0c8.918,0,17.65-1.383,26.588-1.383c7.605,0,15.139-0.277,22.73-0.277"/>
			<path clip-path="url(#SVGID_52_)" fill="none" stroke="#000000" stroke-width="1.4461" stroke-miterlimit="10" d="M3.985,29.979
				c1.988,0.658,4.225,0.076,6.305,0.262c3.795,0.34,7.545,0.576,11.434,0.568c10.111-0.021,20.068,0.412,30.189-0.004
				c20.389-0.846,40.807-2.773,61.227-2.766"/>
		</g>
		<text transform="matrix(0.9978 -0.0668 0.0668 0.9978 22.196 46.6011)" font-family="'CooperBT-Medium'" font-size="14">Gemüse</text>
		<g>
			<defs>
				<polygon id="SVGID_53_" points="92.1,51.46 11.188,53.806 7.942,24.644 87.645,22.415 				"/>
			</defs>
			<clipPath id="SVGID_54_">
				<use xlink:href="#SVGID_53_"  overflow="visible"/>
			</clipPath>
		</g>
	</g>
	<g>
		<g>
			<g>
				<defs>
					<polygon id="SVGID_55_" points="88.1,47.46 7.188,49.806 3.942,20.644 83.645,18.415 					"/>
				</defs>
				<clipPath id="SVGID_56_">
					<use xlink:href="#SVGID_55_"  overflow="visible"/>
				</clipPath>
			</g>
		</g>
		<g>
			<polygon fill="#534741" points="45.319,47.462 49.254,47.212 53.787,84.268 49.465,84.094 			"/>
			<g>
				<defs>
					<polygon id="SVGID_57_" points="88.1,47.46 7.188,49.806 3.942,20.644 83.645,18.415 					"/>
				</defs>
				<use xlink:href="#SVGID_57_"  overflow="visible" fill="#754C24"/>
				<clipPath id="SVGID_58_">
					<use xlink:href="#SVGID_57_"  overflow="visible"/>
				</clipPath>
				<g clip-path="url(#SVGID_58_)">
					<path fill="none" stroke="#876747" stroke-width="1.4461" stroke-miterlimit="10" d="M0.539,16.284
						c1.795,1.531,6.924-0.836,9.211-0.838c5.533-0.01,11.119,0.002,16.666,0.004c4.58,0.002,8.775,0.928,13.246,1.393
						c4.793,0.498,9.859-0.836,14.705-0.836c8.307,0,16.508,0.055,24.852-0.34c5.271-0.248,10.537-0.791,15.805-1.061
						c3.182-0.164,7.189,0.982,9.959-0.264"/>
					<path fill="none" stroke="#876747" stroke-width="1.4461" stroke-miterlimit="10" d="M105.26,19.606
						c-9.754-1.576-20.195,0.299-29.998,1.1c-11.563,0.947-22.91,2.057-34.49,1.455c-15.043-0.781-30.48-0.615-45.496-0.615"/>
					<path fill="none" stroke="#876747" stroke-width="1.4461" stroke-miterlimit="10" d="M99.164,31.521
						c-4.504,0-11.014,0.85-16.074-0.008c-3.232-0.547-18.801-0.334-23.428-1.811c3.197-1.133,21.596-1.16,25.094-1.498
						c3.334-0.324,6.59-0.371,9.92-0.002c1.584,0.176,3.875,0.947,5.32,0.27"/>
					<path fill="none" stroke="#876747" stroke-width="1.4461" stroke-miterlimit="10" d="M107.198,33.737
						c-4.953-0.373-10.148,0.553-15.168,0.553c-4.859,0-9.563-0.559-14.404-0.553c-6.635,0.004-12.963-0.543-19.461-1.109
						c-7.771-0.68-16.23,0.391-24.166,0.553c-11.059,0.229-22.367,0.314-33.473,0.818c-1.779,0.08-4.191,0.051-5.805,0.568"/>
					<path fill="none" stroke="#876747" stroke-width="1.4461" stroke-miterlimit="10" d="M-3.892,38.724
						c3.547,1.154,8.018-0.287,11.703-0.279c4.842,0.012,9.549-0.852,14.33-0.836c5.105,0.018,10.387,0.846,15.516,1.121
						c5.781,0.309,11.707-0.561,17.535-0.561c16.105,0,32.023,0,48.129,0"/>
					<path fill="none" stroke="#876747" stroke-width="1.4461" stroke-miterlimit="10" d="M104.983,42.046
						c-3.252,1.195-8.977,0-12.465,0c-5.543,0-11.084,0-16.627,0c-10.619,0-21.238,0-31.857,0c-8.535,0-17.324-0.99-25.764-0.551
						c-6.609,0.344-13.965,2.828-20.5,2.215"/>
					<path fill="none" stroke="#876747" stroke-width="1.4461" stroke-miterlimit="10" d="M-2.508,47.587
						c18.717-0.471,37.66,0,56.51,0c8.918,0,17.65-1.383,26.588-1.383c7.605,0,15.139-0.277,22.73-0.277"/>
					<path fill="none" stroke="#876747" stroke-width="1.4461" stroke-miterlimit="10" d="M-0.015,25.979
						c1.988,0.658,4.225,0.076,6.305,0.262c3.795,0.34,7.545,0.576,11.434,0.568c10.111-0.021,20.068,0.412,30.189-0.004
						c20.389-0.846,40.807-2.773,61.227-2.766"/>
				</g>
			</g>
			<g>
				
					<text transform="matrix(0.9978 -0.0668 0.0668 0.9978 18.196 42.6011)" fill="#FFFFFF" font-family="'CooperBT-Medium'" font-size="14">Gemüse</text>
			</g>
		</g>
		<g>
			<g>
				<defs>
					<polygon id="SVGID_59_" points="88.1,47.46 7.188,49.806 3.942,20.644 83.645,18.415 					"/>
				</defs>
				<clipPath id="SVGID_60_">
					<use xlink:href="#SVGID_59_"  overflow="visible"/>
				</clipPath>
			</g>
		</g>
	</g>
</g>
</svg>
