<?xml version="1.0" encoding="utf-8"?>
<!-- Generator: Adobe Illustrator 16.0.0, SVG Export Plug-In . SVG Version: 6.00 Build 0)  -->
<!DOCTYPE svg PUBLIC "-//W3C//DTD SVG 1.1//EN" "http://www.w3.org/Graphics/SVG/1.1/DTD/svg11.dtd">
<svg version="1.1" id="Layer_1" xmlns="http://www.w3.org/2000/svg" xmlns:xlink="http://www.w3.org/1999/xlink" x="0px" y="0px"
	 width="400px" height="100px" viewBox="0 0 400 100" enable-background="new 0 0 400 100" xml:space="preserve">
<g>
	
		<rect x="226.734" y="57.436" transform="matrix(-0.0277 0.9996 -0.9996 -0.0277 309.8598 -183.3516)" fill="#878773" width="34.728" height="3.16"/>
	<g>
		<polygon fill="#FFFFEF" points="197.675,8.74 311,9.566 308.682,46.462 197.05,45.151 		"/>
		<g>
			<path fill="#324B57" d="M209.025,34.225l0.203-13.246l-4.354-0.066l0.024-1.631l-0.09-0.023l0.004-0.246l8.666,0.133l0.096-0.268
				l1.138,0.018l0.56-0.036l0.062,0.403l0.056,0.761l-0.018,1.072l-3.729-0.057l-0.201,13.111l-0.068,0.111l-0.736-0.011
				l-0.089-0.046l-0.09,0.043L209.025,34.225z"/>
			<path fill="#324B57" d="M218.238,19.263l2.394-0.231l-0.127,8.309l-0.135,0.065l-0.104,6.88l-1.455,0.089l-0.959-0.015
				L218.238,19.263z"/>
			<path fill="#324B57" d="M229.83,32.644l-0.029,1.899l-6.746-0.104l0.49-10.158l0.112-0.066l0.081-5.271l6.3,0.097l-0.032,2.077
				l-4.154-0.064l-0.281,5.224l0.111,0.046l3.887,0.059l-0.024,1.675l-4.043-0.062l-0.11,1.339l0.043,0.134l-0.05,0.268
				l-0.044,2.903L229.83,32.644z"/>
			<path fill="#324B57" d="M234.982,34.622l-2.188-0.034l0.235-15.345l6.41,0.099c1.742,0.026,2.189,1.396,2.174,2.468l-0.063,4.155
				c-0.014,0.894-0.854,1.796-1.547,1.786l-0.961-0.015l2.709,6.99l-2.592-0.04l-2.417-6.985l-1.697-0.026L234.982,34.622z
				 M239.382,21.62l-4.266-0.065l-0.062,3.954l0.225,0.003l0.109,0.136l3.93,0.06L239.382,21.62z"/>
			<path fill="#324B57" d="M244.775,19.669l2.394-0.231l-0.127,8.309l-0.135,0.065l-0.104,6.88l-1.455,0.089l-0.961-0.015
				L244.775,19.669z"/>
			<path fill="#324B57" d="M256.288,27.955c0.008-0.559-0.661-0.703-1.194-0.756l-3.017-0.046c-1.72-0.026-2.193-1.15-2.187-1.642
				l0.049-3.216c0.031-2.055,2.459-2.979,2.459-2.979l5.65,0.086l-0.031,2.1l-4.781-0.073c-0.424-0.006-0.965,0.365-0.98,1.37
				l-0.035,2.345l3.932,0.06c1.229,0.019,2.175,0.972,2.16,1.865l-0.092,5.964c-0.01,0.67-0.498,1.936-2.063,1.912l-6.321-0.097
				l0.032-2.078l5.271,0.081c0.225,0.003,1.119-0.273,1.127-0.81L256.288,27.955z"/>
			<path fill="#324B57" d="M269.506,19.802l-0.031,2.033l-3.979,0.208c-1.05-0.016-1.64,0.578-1.644,0.914l-0.057,3.596l0.109,0.091
				l-0.071,4.735c-0.017,1.005,0.692,1.396,1.14,1.402l4.424,0.068l-0.035,2.301l-5.495-0.084c-0.714-0.011-2.444-0.886-2.425-2.205
				l0.047-3.06l-0.088-0.09l0.047-0.044l-0.045-0.067l0.045-0.022l-0.043-0.135l0.089-5.718l-0.111-0.069l0.046,0.001l-0.044-0.09
				l0.021-1.407c0.016-1.005,1.619-2.098,2.156-2.089l1.969-0.216l1.25,0.019l0.092-0.11L269.506,19.802z"/>
			<path fill="#324B57" d="M277.307,19.653l2.301,0.035l-0.239,15.613l-2.032-0.031l0.107-7.059l-2.836-0.043l-0.108,7.059
				l-2.078-0.032l0.235-15.345l2.212,0.034l-0.101,6.478l2.416-0.075L277.307,19.653z"/>
			<path fill="#324B57" d="M289.357,33.555l-0.028,1.899l-6.745-0.103l0.49-10.158l0.111-0.065l0.082-5.271l6.299,0.096
				l-0.032,2.077l-4.154-0.063l-0.28,5.224l0.111,0.046l3.887,0.06l-0.025,1.675l-4.043-0.062l-0.11,1.34l0.043,0.134l-0.049,0.268
				l-0.044,2.903H289.357z"/>
			<path fill="#324B57" d="M298.686,28.604c0.008-0.559-0.66-0.703-1.197-0.755l-3.014-0.046c-1.721-0.026-2.193-1.15-2.188-1.642
				l0.05-3.216c0.031-2.055,2.458-2.979,2.458-2.979l5.65,0.086l-0.031,2.1l-4.78-0.073c-0.424-0.007-0.966,0.364-0.981,1.37
				l-0.034,2.345l3.931,0.061c1.229,0.019,2.174,0.971,2.16,1.865l-0.092,5.964c-0.01,0.67-0.498,1.937-2.063,1.913l-6.32-0.097
				l0.031-2.078l5.271,0.081c0.223,0.003,1.121-0.273,1.129-0.81L298.686,28.604z"/>
		</g>
	</g>
</g>
<g>
	<polygon fill="#878773" points="43.817,40.559 47.747,40.149 53.779,77.057 49.445,77.057 	"/>
	<g>
		<polygon fill="#FFFFEF" points="1,7.38 5.834,44.93 86.634,38.83 80.68,1.934 		"/>
		<g>
			<path fill="#324B57" d="M13.108,20.953l1.028,11.055l3.803-0.354l-0.364-3.915l-0.143-0.817l-0.564-0.509l-1.646,0.153
				L15.05,24.72l0.023-0.227l2.937-0.273c0.4-0.037,1.343,0.212,1.428,1.124l0.532,5.716c0.126,1.356-1.076,2.187-1.393,2.396
				c-0.021,0.024-0.041,0.048-0.062,0.05l-4.494,0.418c-0.6,0.056-1.702-0.447-1.77-1.181l-0.352-3.781l-0.053-0.086l0.085-0.051
				l-0.758-8.142c-0.072-0.778,0.725-1.863,2.081-1.989l4.004-0.372c0.467-0.043,1.406,0.162,1.546,1.673l0.153,1.646l-1.913,0.178
				l-0.161-1.241L13.108,20.953z"/>
			<path fill="#324B57" d="M29.374,30.59l0.176,1.89l-6.717,0.625l-0.608-10.151l0.105-0.078l-0.488-5.248l6.272-0.583l0.192,2.067
				l-4.137,0.385l0.284,5.224l0.115,0.034l3.871-0.36l0.155,1.668l-4.025,0.375l0.035,1.343l0.056,0.129l-0.02,0.27l0.269,2.892
				L29.374,30.59z"/>
			<path fill="#324B57" d="M44.297,30.861l-0.734,0.068l-0.271-0.019l-0.307,0.072l-0.845,0.079l-0.606-6.517l-0.065-0.219
				l-0.403-4.337l-2.167,3.23l-0.014,0.091l-1.567,2.21l-3.796-4.874l1.063,11.433l-0.071-0.039l-0.085,0.053L33.972,32
				l-0.058,0.095L32.48,32.14l-0.138-0.032l-0.248-2.669l0.041-0.049l-0.051-0.063l-0.917-9.853l-0.16-0.277l-0.213-2.291
				l0.223-0.021l0.323-0.141l1.89-0.176l3.791,5.054l1.924-3.433l0.067-0.006l1.484-2.606l2.358-0.219L44.297,30.861z"/>
			<path fill="#324B57" d="M46.021,15.625l2.113-0.196l1.072,11.522c0.062,0.667,0.773,1.072,1.173,1.034l2.469-0.229
				c0.356-0.033,0.553-0.567,0.573-1.085l-1.08-11.611l2.246-0.209l1.248,13.413c0.07,0.757-0.935,1.769-1.638,1.924l-4.938,0.459
				c-0.957,0.089-1.898-0.631-2.037-2.122l-0.333-3.581L46.021,15.625z M49.216,11.378l0.228,2.447l-2.225,0.207l-0.168-1.802
				l-0.194-0.161l-0.043-0.468L49.216,11.378z M52.908,11.035l0.32,1.743l-0.092,0.704l-2.224,0.207l-0.168-1.802l-0.194-0.162
				l-0.044-0.468L52.908,11.035z"/>
			<path fill="#324B57" d="M64.559,22.201c-0.052-0.556-0.731-0.627-1.27-0.623l-3.002,0.279c-1.713,0.16-2.305-0.906-2.351-1.396
				l-0.298-3.202c-0.19-2.046,2.123-3.227,2.123-3.227l5.627-0.523l0.194,2.091l-4.76,0.443c-0.423,0.039-0.922,0.467-0.829,1.469
				l0.217,2.334l3.915-0.364c1.224-0.114,2.267,0.732,2.35,1.622l0.553,5.939c0.062,0.667-0.287,1.978-1.844,2.123L58.89,29.75
				l-0.192-2.068l5.249-0.488c0.223-0.021,1.085-0.393,1.036-0.927L64.559,22.201z"/>
			<path fill="#324B57" d="M76.731,26.185l0.176,1.89L70.189,28.7l-0.607-10.151l0.105-0.078l-0.488-5.248l6.272-0.583l0.192,2.067
				l-4.137,0.385l0.284,5.224l0.115,0.035l3.871-0.36l0.155,1.668l-4.026,0.375l0.036,1.343l0.057,0.129l-0.02,0.271l0.269,2.892
				L76.731,26.185z"/>
		</g>
	</g>
</g>
<polygon fill="#878773" points="135.82,41.483 135.82,77.104 140.181,77.104 140.181,41.308 "/>
<g>
	<polygon fill="#FFFFEF" points="91.302,11.536 188.53,9.221 189.948,44.873 91.887,47.804 	"/>
	<g>
		<path fill="#324B57" d="M102.034,21.34l5.314-0.15l0.765,0.157l0.362,0.168l0.745,1.051l0.112,0.042l0.71,2.997l-0.027,0.605
			c-0.166,0.428-0.397,0.971-0.987,1.458c0.902,0.287,1.366,0.899,1.762,1.446l0.159,5.628c0.015,0.514-0.461,1.867-1.823,1.906
			l-6.431,0.182l-0.273-0.171l0.045-0.001l-0.045-1.585l0.044-0.001l-0.046-0.044l-0.002-0.089l0.044-0.001l-0.046-0.044
			l0.043-0.045l-0.044,0.001l0.039-0.202l-0.046-0.066l0.043-0.046l-0.045-0.021l0.038-0.224l-0.051-0.223l0.044-0.023
			L102.034,21.34z M104.477,30.255l0.092,3.261l-0.044,0.023l0.008,0.29l0.045,0.043l-0.038,0.224l0.012,0.425l0.131-0.115
			l3.595-0.102l0.088-0.048l0.469-0.013l-0.116-4.108l-0.782,0.022l-0.043,0.046l-0.225-0.039l-0.311,0.054l-0.158-0.041
			L104.477,30.255z M104.553,23.482l0.125,4.398l2.255-0.064c0,0,0.862-1.12,0.825-2.437c-0.028-1.006-0.232-1.893-0.232-1.893
			l-0.202-0.04L104.553,23.482z"/>
		<path fill="#324B57" d="M120.353,34.499l0.054,1.897l-6.744,0.191l0.046-10.169l0.11-0.071l-0.149-5.269l6.297-0.178l0.059,2.076
			l-4.153,0.118l-0.053,5.231l0.113,0.042l3.885-0.11l0.047,1.674l-4.042,0.114l-0.051,1.342l0.048,0.133l-0.037,0.269l0.083,2.903
			L120.353,34.499z"/>
		<path fill="#324B57" d="M122.815,21.22l2.382-0.334l0.235,8.307l-0.132,0.07l0.195,6.878l-1.448,0.153l-0.96,0.027L122.815,21.22z
			"/>
		<path fill="#324B57" d="M130.508,33.987l5.158-0.146l-0.052,2.125l-7.302,0.207l-0.443-15.652l2.233-0.063l0.36,12.727
			L130.508,33.987z"/>
		<path fill="#324B57" d="M144.332,20.253l2.51,0.242l0.006,0.201l0.046,0.065l2.036,14.267l0.048,0.088l-0.277,0.477l-0.313,0.009
			l-0.043,0.046l-0.046-0.043l-0.222,0.051l-1.451,0.041l-1.045-6.92l-1.385,0.039l-0.136-0.086l-2.211,0.063l-0.087,0.093
			l-1.483,6.791l0.09,0.042l-2.122,0.06l-0.13,0.115l-0.603,0.017l3.742-15.413l2.479-0.07l0.062-0.181L144.332,20.253z
			 M144.3,23.07l-0.044,0.045l-1.272,0.036l-0.068-0.042l-0.771,3.553l0.012,0.402l3.148-0.089l-0.476-2.58l-0.095-1.003
			l-0.045-0.021l0.043-0.046l-0.092-0.109l-0.004-0.156L144.3,23.07z"/>
		<path fill="#324B57" d="M152.442,22.483l0.314,11.098l3.818-0.108l-0.111-3.93l-0.09-0.825l-0.529-0.544l-1.653,0.047
			l-0.052-1.853l0.039-0.225l2.947-0.083c0.402-0.011,1.327,0.298,1.353,1.214l0.163,5.738c0.039,1.362-1.214,2.112-1.544,2.3
			c-0.021,0.023-0.043,0.046-0.066,0.047l-4.51,0.128c-0.603,0.017-1.669-0.556-1.69-1.292l-0.107-3.797l-0.047-0.088l0.088-0.046
			l-0.231-8.173c-0.022-0.781,0.842-1.812,2.205-1.85l4.02-0.114c0.469-0.013,1.393,0.251,1.436,1.77l0.047,1.652l-1.92,0.054
			l-0.081-1.249L152.442,22.483z"/>
		<path fill="#324B57" d="M168.053,33.147l0.054,1.897l-6.744,0.191l0.047-10.17l0.109-0.07l-0.149-5.269l6.297-0.179l0.059,2.076
			l-4.154,0.118l-0.053,5.231l0.113,0.042l3.886-0.11l0.047,1.674l-4.042,0.114l-0.051,1.343l0.049,0.132l-0.038,0.269l0.083,2.903
			L168.053,33.147z"/>
		<path fill="#324B57" d="M172.819,34.934l-0.938,0.026l-0.046-0.043l-0.87,0.024l-0.424-14.961l-0.182-0.128l0.197-0.14
			l1.674-0.047l0.087-0.091l1.161-0.033l3.112,8.09l-0.23-8.127l1.602-0.247l0.424-0.012l0.03,0.267
			c0,0.022,0.001,0.044-0.021,0.067l0.179-0.005l0.24,8.464l0.046,0.042l-0.043,0.046l0.045,0.021l-0.043,0.046l0.046,0.065
			l0.181,6.386l-1.072,0.031l-0.269-0.037l-0.133,0.048l-0.916,0.026l-4.147-10.698L172.819,34.934z"/>
	</g>
</g>
</svg>
