<?xml version="1.0" encoding="utf-8"?>
<!-- Generator: Adobe Illustrator 16.0.0, SVG Export Plug-In . SVG Version: 6.00 Build 0)  -->
<!DOCTYPE svg PUBLIC "-//W3C//DTD SVG 1.1//EN" "http://www.w3.org/Graphics/SVG/1.1/DTD/svg11.dtd">
<svg version="1.1" id="Layer_1" xmlns="http://www.w3.org/2000/svg" xmlns:xlink="http://www.w3.org/1999/xlink" x="0px" y="0px"
	 width="542.833px" height="123.833px" viewBox="0 0 542.833 123.833" enable-background="new 0 0 542.833 123.833"
	 xml:space="preserve">
<g>
	<g display="none">
		<polygon display="inline" fill="#764E24" points="215.275,221.974 320.411,222.798 318.097,252.636 214.65,251.323 		"/>
		<polygon display="inline" fill="#764E24" points="20.772,202.954 24.083,232.604 104.93,229.771 100.475,200.726 		"/>
		<polygon display="inline" fill="#764E24" points="110.436,222.376 207.503,220.063 209.56,250.544 111.659,253.47 		"/>
		<polygon display="inline" fill="#764E24" points="326.794,221.974 414.931,223.798 412.616,253.636 326.169,251.323 		"/>
	</g>
	<g>
		<g>
			<g opacity="0.3">
				<g>
					<defs>
						<polygon id="SVGID_1_" points="96.834,43.618 13.228,46.827 10.866,17.895 97.719,14.561 						"/>
					</defs>
					<clipPath id="SVGID_2_">
						<use xlink:href="#SVGID_1_"  overflow="visible"/>
					</clipPath>
				</g>
				<rect x="51.936" y="41.085" fill="#262624" width="4.583" height="64"/>
				<rect x="51.936" y="42.137" fill="#262624" width="4.583" height="11.614"/>
				<polygon fill="#262624" points="98.925,45.946 15.319,49.155 13.228,46.827 38.774,27.989 97.719,14.561 99.811,16.89 				"/>
				<polygon fill="#262624" points="96.834,43.618 13.228,46.827 10.866,17.895 97.719,14.561 				"/>
				<g>
					<defs>
						<polygon id="SVGID_3_" points="96.834,43.618 13.228,46.827 10.866,17.895 97.719,14.561 						"/>
					</defs>
					<clipPath id="SVGID_4_">
						<use xlink:href="#SVGID_3_"  overflow="visible"/>
					</clipPath>
					<path clip-path="url(#SVGID_4_)" fill="none" stroke="#262624" stroke-miterlimit="10" d="M1.246,21.389
						c2.832,0.113,6.248-0.684,9.094-1.055c4.916-0.643,9.897-0.921,14.85-1.357c10.608-0.935,21.389-1.965,32.038-2.349
						c12.544-0.452,25.13-1.355,37.649-1.218c3.041,0.033,8.1-1.105,10.805-0.082c-3.028,1.988-7.452,1.859-10.99,2.287
						c-4.483,0.54-8.799,0.531-13.348,0.927c-12.855,1.118-25.703,1.089-38.582,1.999c-8.053,0.568-16.063,0.803-24.155,1.113
						c-2.354,0.09-18.631,0.237-18.712,2.552c5.86,2.829,14.374,0.122,20.516-0.393c8.326-0.696,16.28,0.316,24.581-0.001
						c10.085-0.385,20.071-1.89,30.156-2.277c6.667-0.256,13.363-0.729,20.033-0.769c3.072-0.019,6.139-0.049,9.226-0.167
						c1.947-0.075,5.122-0.703,6.841-0.117c-3.396,0.875-6.992,2.017-10.546,2.693c-4.575,0.872-9.598,0.498-14.259,0.912
						c-10.353,0.918-21.032,1.031-31.325,2.32c-3.565,0.446-6.442,0.15-9.793,1.354c-3.275,1.177-6.336,2.409-9.939,2.387
						c-3.846-0.023-7.503-1.026-11.271-1.245c-4.151-0.24-8.474,0.482-12.513,1.04c-4.203,0.579-9.022,0.313-12.884,1.81
						c3.489-0.193,6.744,0.471,10.215,0.344c3.48-0.127,6.697-0.764,10.229-0.766c6.385-0.002,12.159,2.254,18.753,1.291
						c3.799-0.555,7.418-1.765,11.259-2.256c5.612-0.719,11.415-0.213,17.06-0.655c9.424-0.74,18.886-0.725,28.331-1.087
						c1.604-0.062,9.076-1.584,9.916,0.543c1.189,3.012-12.188,2.915-13.489,2.951c-6.375,0.179-12.781-0.256-19.173-0.01
						c-5.639,0.217-11.047,0.449-16.516,1.752c-5.6,1.334-10.765,3.668-16.64,3.629c-4.897-0.033-9.718-1.405-14.527-1.867
						c-5.166-0.496-10.932,1.383-16.059,2.107c-1.799,0.255-12.866,1.908-12.376,3.605c0.411,1.426,7.378,0.679,8.233,0.654
						c3.915-0.113,7.753-0.498,11.651-0.635c4.607-0.16,9.15-0.975,13.779-0.715c4.936,0.276,10.367,0.084,15.277-0.592
						c9.14-1.256,18.104-4.906,27.512-4.418c7.104,0.367,14.41,1.532,21.489,0.673c3.808-0.462,7.617-1.446,11.463-1.556
						c2.27-0.064,5.668-0.15,7.606,0.865c-3.216,3.688-11.18,3.473-15.597,3.919c-5.129,0.519-10.517,0.821-15.665,0.425
						c-4.998-0.385-10.251-2.756-15.268-2.045c-4.021,0.568-7.701,2.949-11.537,4.225c-9.492,3.153-20.128,1.09-29.969,1.859
						C22.777,44.144,1.956,42.954,4.68,47.94c0.924,1.69,6.634,0.895,8.416,0.932c4.707,0.098,9.639-0.338,14.355-0.698
						c4.277-0.326,8.419-0.48,12.688-1.045c3.145-0.418,6.253-0.072,9.416-0.362c7.548-0.691,14.475-4.959,22.272-3.984
						c7.252,0.906,14.319,2.538,21.711,1.923c4.165-0.346,8.347-0.315,12.516-0.48c2.783-0.109,7.896-0.685,9.754,1.688
						c-4.332,3.038-10.059,2.477-15.289,2.251c-4.023-0.173-8.091,0.183-12.116-0.084c-4.03-0.268-7.869-0.647-11.914-0.481
						c-4.803,0.198-9.543-1.153-14.182,0.125c-6.683,1.842-13.852,4.702-20.837,4.95c-11.117,0.396-22.238,0.668-33.387,1.096"/>
				</g>
				
					<text transform="matrix(0.9999 -0.0132 0.0132 0.9999 22.1833 35.9282)" fill="#262624" font-family="'CooperBT-Medium'" font-size="14">Gemüse</text>
				<g>
					<defs>
						<polygon id="SVGID_5_" points="96.834,43.618 13.228,46.827 10.866,17.895 97.719,14.561 						"/>
					</defs>
					<clipPath id="SVGID_6_">
						<use xlink:href="#SVGID_5_"  overflow="visible"/>
					</clipPath>
				</g>
			</g>
			<g>
				<g>
					<g>
						<g>
							<g>
								<defs>
									<polygon id="SVGID_7_" points="88.33,40.783 4.724,43.992 2.363,15.06 89.216,11.726 									"/>
								</defs>
								<clipPath id="SVGID_8_">
									<use xlink:href="#SVGID_7_"  overflow="visible"/>
								</clipPath>
							</g>
						</g>
					</g>
				</g>
				<g>
					<g>
						<rect x="43.432" y="38.25" fill="#966E53" width="4.583" height="64"/>
						<rect x="43.432" y="39.302" fill="#604029" width="4.583" height="11.613"/>
					</g>
					<g>
						<g>
							<polygon fill="#77543D" points="90.421,43.111 6.815,46.32 4.724,43.992 30.27,25.154 89.216,11.726 91.306,14.055 							
								"/>
							<polygon fill="#966E53" points="88.33,40.783 4.724,43.992 2.363,15.06 89.216,11.726 							"/>
							<g>
								<defs>
									<polygon id="SVGID_9_" points="88.33,40.783 4.724,43.992 2.363,15.06 89.216,11.726 									"/>
								</defs>
								<clipPath id="SVGID_10_">
									<use xlink:href="#SVGID_9_"  overflow="visible"/>
								</clipPath>
								<path clip-path="url(#SVGID_10_)" fill="none" stroke="#77543D" stroke-miterlimit="10" d="M-7.258,18.554
									c2.832,0.113,6.248-0.684,9.094-1.055c4.916-0.643,9.897-0.921,14.85-1.357c10.608-0.935,21.389-1.965,32.038-2.349
									c12.544-0.452,25.13-1.355,37.649-1.218c3.041,0.033,8.1-1.105,10.805-0.082c-3.028,1.988-7.452,1.859-10.99,2.287
									c-4.483,0.54-8.799,0.531-13.348,0.927c-12.855,1.118-25.703,1.089-38.582,1.999c-8.053,0.568-16.063,0.803-24.155,1.113
									c-2.354,0.09-18.632,0.237-18.712,2.552c5.86,2.829,14.374,0.122,20.516-0.393c8.326-0.696,16.28,0.316,24.581-0.001
									c10.085-0.385,20.071-1.89,30.156-2.277c6.667-0.256,13.363-0.729,20.033-0.769c3.072-0.019,6.139-0.049,9.226-0.167
									c1.947-0.075,5.122-0.703,6.841-0.117c-3.396,0.875-6.992,2.017-10.546,2.693c-4.575,0.872-9.598,0.498-14.259,0.912
									c-10.353,0.918-21.032,1.031-31.325,2.32c-3.565,0.446-6.442,0.15-9.793,1.354c-3.275,1.177-6.336,2.409-9.939,2.387
									c-3.846-0.023-7.503-1.026-11.271-1.245c-4.151-0.24-8.474,0.482-12.513,1.04c-4.203,0.579-9.022,0.313-12.884,1.81
									c3.489-0.193,6.744,0.471,10.216,0.344c3.48-0.127,6.696-0.764,10.229-0.766c6.385-0.002,12.159,2.254,18.753,1.291
									c3.799-0.555,7.418-1.765,11.259-2.256c5.612-0.719,11.415-0.213,17.06-0.655c9.424-0.74,18.886-0.725,28.331-1.087
									c1.604-0.062,9.076-1.584,9.916,0.543c1.189,3.012-12.188,2.915-13.489,2.951c-6.375,0.179-12.781-0.256-19.173-0.01
									c-5.639,0.217-11.047,0.449-16.516,1.752c-5.6,1.334-10.765,3.668-16.64,3.629c-4.897-0.033-9.718-1.405-14.527-1.867
									c-5.166-0.496-10.932,1.383-16.059,2.107c-1.799,0.255-12.866,1.908-12.376,3.605c0.411,1.426,7.378,0.679,8.233,0.654
									c3.916-0.113,7.753-0.498,11.651-0.635c4.607-0.16,9.15-0.975,13.779-0.715c4.936,0.276,10.367,0.084,15.278-0.592
									c9.14-1.256,18.103-4.906,27.511-4.418c7.104,0.367,14.41,1.532,21.489,0.673c3.808-0.462,7.617-1.446,11.463-1.556
									c2.27-0.064,5.668-0.15,7.606,0.865c-3.216,3.688-11.18,3.473-15.597,3.919c-5.129,0.519-10.517,0.821-15.665,0.425
									c-4.998-0.385-10.251-2.756-15.268-2.045c-4.021,0.568-7.701,2.949-11.538,4.225c-9.491,3.153-20.128,1.09-29.968,1.859
									c-1.897,0.147-22.718-1.043-19.993,3.943C-2.9,46.794,2.81,46,4.593,46.037c4.707,0.098,9.639-0.338,14.354-0.697
									c4.277-0.326,8.419-0.48,12.688-1.045c3.144-0.418,6.252-0.072,9.416-0.362c7.547-0.691,14.474-4.959,22.272-3.984
									c7.252,0.906,14.319,2.538,21.711,1.923c4.165-0.346,8.347-0.315,12.516-0.48c2.783-0.109,7.896-0.685,9.754,1.688
									c-4.332,3.037-10.059,2.477-15.289,2.251c-4.023-0.173-8.091,0.183-12.116-0.084c-4.03-0.268-7.869-0.647-11.914-0.481
									c-4.803,0.198-9.543-1.153-14.182,0.125c-6.683,1.843-13.852,4.701-20.836,4.951C21.85,50.233,10.73,50.505-0.42,50.933"/>
							</g>
						</g>
						<g>
							
								<text transform="matrix(0.9999 -0.0132 0.0132 0.9999 13.6794 33.0942)" fill="#FFFFFF" font-family="'CooperBT-Medium'" font-size="14">Gemüse</text>
						</g>
					</g>
				</g>
				<g>
					<g>
						<g>
							<g>
								<defs>
									<polygon id="SVGID_11_" points="88.33,40.783 4.724,43.992 2.363,15.06 89.216,11.726 									"/>
								</defs>
								<clipPath id="SVGID_12_">
									<use xlink:href="#SVGID_11_"  overflow="visible"/>
								</clipPath>
							</g>
						</g>
					</g>
				</g>
			</g>
		</g>
	</g>
	<g>
		<g>
			<g opacity="0.3">
				<g>
					<defs>
						<polygon id="SVGID_13_" points="208.847,47.54 113.477,44.301 113.796,16.45 209.921,19.561 						"/>
					</defs>
					<clipPath id="SVGID_14_">
						<use xlink:href="#SVGID_13_"  overflow="visible"/>
					</clipPath>
				</g>
				<rect x="159.645" y="42.858" fill="#262624" width="4.583" height="64"/>
				<rect x="159.645" y="43.766" fill="#262624" width="4.583" height="11.614"/>
				<polygon fill="#262624" points="210.753,50.022 115.383,46.784 113.477,44.301 144.118,27.391 209.921,19.561 211.827,22.042 
									"/>
				<polygon fill="#262624" points="208.847,47.54 113.477,44.301 113.796,16.45 209.921,19.561 				"/>
				<g>
					<defs>
						<polygon id="SVGID_15_" points="208.847,47.54 113.477,44.301 113.796,16.45 209.921,19.561 						"/>
					</defs>
					<clipPath id="SVGID_16_">
						<use xlink:href="#SVGID_15_"  overflow="visible"/>
					</clipPath>
					<path clip-path="url(#SVGID_16_)" fill="none" stroke="#262624" stroke-miterlimit="10" d="M221.562,49.317
						c-2.98-0.32-6.646,0.223-9.679,0.385c-5.235,0.279-10.517,0.191-15.777,0.266c-11.269,0.156-22.726,0.393-33.998-0.004
						c-13.277-0.465-26.631-0.484-39.839-1.535c-3.208-0.256-8.633,0.508-11.414-0.708c3.343-1.757,8.004-1.307,11.771-1.473
						c4.773-0.21,9.329,0.113,14.161,0.053c13.655-0.175,27.216,0.793,40.88,0.828c8.544,0.021,17.018,0.373,25.584,0.655
						c2.492,0.082,19.688,1.123,19.943-1.173c-5.979-3.242-15.129-2.17-21.65-2.106c-8.841,0.087-17.204-0.503-25.991-0.794
						c-10.676-0.353-21.329,0.414-32.006,0.064c-7.057-0.232-14.162-0.251-21.207-0.698c-3.245-0.205-6.485-0.399-9.753-0.507
						c-2.061-0.068-5.46,0.325-7.232-0.383c3.65-0.623,7.53-1.495,11.333-1.91c4.894-0.533,10.209-0.793,15.16-0.864
						c10.997-0.159,22.242,1.509,33.204,0.978c3.797-0.184,6.775,1.318,10.401,0.367c3.544-0.932,6.828-0.935,10.63-0.65
						c4.059,0.305,7.923-0.429,11.886,0.063c4.365,0.542,8.944,1.137,13.25,0.878c4.479-0.27,9.587-0.652,13.774-1.859
						c-3.697-0.063-7.086-0.961-10.761-1.088c-3.683-0.127-7.126,0.271-10.856,0.016c-6.741-0.464-10.711-2.053-17.745-1.577
						c-4.052,0.274-9.922,0.138-14.013,0.347c-5.978,0.305-12.067-0.622-18.059-0.594c-10.004,0.048-19.994-0.658-29.991-0.986
						c-1.697-0.057-9.698,0.912-10.429-1.264c-1.035-3.084,13.082-2.011,14.459-1.951c6.744,0.287,13.475,1.188,20.242,1.409
						c5.97,0.196,11.696,0.358,17.566-0.538c6.01-0.918,11.558-0.864,17.758-0.395c5.167,0.39,10.233,0.106,15.277,0.918
						c5.417,0.87,11.643-0.578,17.109-0.926c1.918-0.121,13.725-0.957,13.332-2.681c-0.33-1.448-7.74-1.214-8.645-1.252
						c-4.143-0.173-8.262,0.929-12.387,0.779c-4.875-0.176-9.731,0.302-14.6-0.294c-5.191-0.636-10.939-0.84-16.174-0.527
						c-9.742,0.582-19.435,2.56-29.332,1.389c-7.473-0.887-15.102-2.577-22.639-2.238c-4.053,0.182-8.147,0.882-12.216,0.709
						c-2.4-0.101-5.996-0.264-7.967-1.414c3.666-3.434,12.059-2.639,16.754-2.761c5.455-0.142,11.165-0.049,16.571,0.722
						c5.248,0.746,10.62,3.488,15.969,3.148c4.287-0.272,8.347-2.372,12.491-3.359c10.252-2.445,21.332,0.385,31.777,0.338
						c2.013-0.009,23.909,2.694,21.397-2.463c-0.851-1.749-6.938-1.375-8.816-1.541c-4.963-0.441-10.202-0.369-15.207-0.355
						c-4.54,0.012-8.925-0.137-13.473,0.114c-3.35,0.186-6.606-0.386-9.968-0.327c-8.019,0.137-13.048,4.188-21.21,2.649
						c-7.591-1.431-17.528-3.882-25.377-3.81c-4.423,0.04-8.835-0.295-13.25-0.436c-2.946-0.094-8.386,0.104-10.174-2.391
						c4.796-2.705,10.803-1.729,16.308-1.123c4.235,0.467,8.555,0.408,12.785,0.969c4.236,0.56,8.261,1.219,12.543,1.347
						c5.085,0.154,9.991,1.845,14.982,0.911c7.191-1.344,16.688-2.705,24.08-2.443c11.767,0.417,21.81,0.001,33.613,0.389"/>
				</g>
				
					<text transform="matrix(0.9999 0.016 -0.016 0.9999 124.3562 36.6704)" fill="#262624" font-family="'CooperBT-Medium'" font-size="14">Beilagen</text>
				<g>
					<defs>
						<polygon id="SVGID_17_" points="208.847,47.54 113.477,44.301 113.796,16.45 209.921,19.561 						"/>
					</defs>
					<clipPath id="SVGID_18_">
						<use xlink:href="#SVGID_17_"  overflow="visible"/>
					</clipPath>
				</g>
			</g>
			<polygon fill="#77543D" points="202.249,47.187 106.879,43.949 104.973,41.466 135.614,24.556 201.417,16.726 203.323,19.208 			
				"/>
			<g>
				<g>
					<g>
						<g>
							<g>
								<defs>
									<polygon id="SVGID_19_" points="200.343,44.705 104.973,41.466 105.292,13.615 201.417,16.726 									"/>
								</defs>
								<clipPath id="SVGID_20_">
									<use xlink:href="#SVGID_19_"  overflow="visible"/>
								</clipPath>
							</g>
						</g>
					</g>
				</g>
				<g>
					<rect x="151.141" y="40.023" fill="#966E53" width="4.583" height="64"/>
					<rect x="151.141" y="40.931" fill="#604029" width="4.583" height="11.615"/>
				</g>
				<g>
					<g>
						<polygon fill="#966E53" points="200.343,44.705 104.973,41.466 105.292,13.615 201.417,16.726 						"/>
						<g>
							<defs>
								<polygon id="SVGID_21_" points="200.343,44.705 104.973,41.466 105.292,13.615 201.417,16.726 								"/>
							</defs>
							<clipPath id="SVGID_22_">
								<use xlink:href="#SVGID_21_"  overflow="visible"/>
							</clipPath>
							<path clip-path="url(#SVGID_22_)" fill="none" stroke="#77543D" stroke-miterlimit="10" d="M213.058,46.482
								c-2.98-0.32-6.646,0.223-9.679,0.385c-5.236,0.279-10.516,0.192-15.777,0.266c-11.269,0.156-22.726,0.393-33.998-0.003
								c-13.277-0.466-26.631-0.485-39.839-1.536c-3.208-0.256-8.633,0.509-11.414-0.707c3.343-1.757,8.004-1.307,11.771-1.473
								c4.773-0.21,9.329,0.113,14.161,0.053c13.655-0.175,27.216,0.793,40.88,0.828c8.544,0.021,17.018,0.373,25.584,0.655
								c2.492,0.082,19.688,1.123,19.943-1.173c-5.979-3.242-15.129-2.17-21.65-2.106c-8.841,0.087-17.204-0.503-25.991-0.794
								c-10.676-0.353-21.329,0.414-32.006,0.064c-7.057-0.232-14.162-0.251-21.207-0.698c-3.245-0.205-6.485-0.399-9.753-0.507
								c-2.061-0.068-5.46,0.325-7.232-0.383c3.65-0.623,7.53-1.495,11.333-1.91c4.894-0.533,10.209-0.793,15.16-0.864
								c10.997-0.159,22.242,1.509,33.204,0.978c3.797-0.184,6.775,1.318,10.401,0.367c3.544-0.932,6.828-0.935,10.63-0.65
								c4.059,0.305,7.923-0.429,11.886,0.063c4.365,0.542,8.943,1.137,13.25,0.878c4.479-0.27,9.587-0.652,13.774-1.859
								c-3.697-0.063-7.086-0.961-10.761-1.088c-3.683-0.127-7.126,0.271-10.856,0.016c-6.741-0.464-10.711-2.053-17.745-1.577
								c-4.052,0.274-9.922,0.138-14.013,0.347c-5.978,0.305-12.067-0.622-18.06-0.594c-10.004,0.048-19.993-0.658-29.991-0.986
								c-1.697-0.057-9.698,0.912-10.429-1.264c-1.036-3.084,13.082-2.011,14.458-1.951c6.744,0.287,13.475,1.188,20.242,1.409
								c5.97,0.196,11.696,0.358,17.566-0.538c6.01-0.918,11.558-0.864,17.758-0.395c5.167,0.39,10.233,0.106,15.277,0.918
								c5.418,0.87,11.643-0.578,17.109-0.926c1.918-0.121,13.724-0.957,13.332-2.681c-0.33-1.448-7.74-1.214-8.645-1.252
								c-4.143-0.173-8.262,0.929-12.387,0.779c-4.875-0.176-9.731,0.302-14.6-0.294c-5.191-0.636-10.939-0.84-16.174-0.527
								c-9.742,0.582-19.435,2.56-29.332,1.389c-7.473-0.887-15.103-2.577-22.639-2.238c-4.053,0.182-8.147,0.882-12.216,0.709
								c-2.4-0.101-5.996-0.264-7.967-1.414c3.666-3.434,12.059-2.639,16.754-2.761c5.455-0.142,11.165-0.049,16.571,0.722
								c5.248,0.746,10.62,3.488,15.969,3.148c4.287-0.272,8.347-2.372,12.491-3.359c10.252-2.445,21.332,0.385,31.777,0.338
								c2.013-0.009,23.909,2.694,21.397-2.463c-0.851-1.749-6.938-1.375-8.816-1.541c-4.962-0.441-10.202-0.369-15.207-0.355
								c-4.54,0.012-8.925-0.137-13.473,0.114c-3.35,0.186-6.606-0.386-9.968-0.327c-8.019,0.137-13.048,4.188-21.21,2.649
								c-7.591-1.431-17.528-3.882-25.377-3.81c-4.423,0.04-8.835-0.295-13.25-0.436c-2.946-0.094-8.386,0.104-10.174-2.391
								c4.796-2.705,10.803-1.729,16.308-1.123c4.235,0.467,8.555,0.408,12.785,0.969c4.236,0.56,8.261,1.219,12.543,1.347
								c5.085,0.154,9.991,1.845,14.982,0.911c7.191-1.344,16.688-2.705,24.08-2.443c11.767,0.417,21.811,0.001,33.613,0.389"/>
						</g>
					</g>
					<g>
						
							<text transform="matrix(0.9999 0.016 -0.016 0.9999 115.8523 33.8364)" fill="#FBF9F8" font-family="'CooperBT-Medium'" font-size="14">Beilagen</text>
					</g>
				</g>
				<g>
					<g>
						<g>
							<g>
								<defs>
									<polygon id="SVGID_23_" points="200.343,44.705 104.973,41.466 105.292,13.615 201.417,16.726 									"/>
								</defs>
								<clipPath id="SVGID_24_">
									<use xlink:href="#SVGID_23_"  overflow="visible"/>
								</clipPath>
							</g>
						</g>
					</g>
				</g>
			</g>
		</g>
	</g>
	<g>
		<g>
			<g opacity="0.3">
				<g>
					<defs>
						<polygon id="SVGID_25_" points="332.671,46.401 228.072,47.539 227.988,16.694 333.345,16.391 						"/>
					</defs>
					<clipPath id="SVGID_26_">
						<use xlink:href="#SVGID_25_"  overflow="visible"/>
					</clipPath>
				</g>
				<g>
					<defs>
						<polygon id="SVGID_27_" points="332.671,46.401 228.072,47.539 227.988,16.694 333.345,16.391 						"/>
					</defs>
					<clipPath id="SVGID_28_">
						<use xlink:href="#SVGID_27_"  overflow="visible"/>
					</clipPath>
				</g>
				<rect x="278.374" y="43.861" fill="#262624" width="4.584" height="64"/>
				<rect x="278.374" y="44.625" fill="#262624" width="4.584" height="11.614"/>
				<polygon fill="#262624" points="334.698,48.786 230.099,49.923 228.072,47.539 251.841,28.436 333.345,16.391 335.372,18.776 
									"/>
				<polygon fill="#262624" points="332.671,46.401 228.072,47.539 227.988,16.694 333.345,16.391 				"/>
				<g>
					<defs>
						<polygon id="SVGID_29_" points="332.671,46.401 228.072,47.539 227.988,16.694 333.345,16.391 						"/>
					</defs>
					<clipPath id="SVGID_30_">
						<use xlink:href="#SVGID_29_"  overflow="visible"/>
					</clipPath>
				</g>
				<g>
					<defs>
						<polygon id="SVGID_31_" points="332.671,46.401 228.072,47.539 227.988,16.694 333.345,16.391 						"/>
					</defs>
					<clipPath id="SVGID_32_">
						<use xlink:href="#SVGID_31_"  overflow="visible"/>
					</clipPath>
					<path clip-path="url(#SVGID_32_)" fill="none" stroke="#262624" stroke-miterlimit="10" d="M217.767,16.073
						c3.258,0.172,7.217-0.568,10.506-0.889c5.682-0.554,11.43-0.735,17.146-1.08c12.248-0.736,24.697-1.564,36.977-1.74
						c14.465-0.207,28.99-0.871,43.41-0.48c3.504,0.096,9.363-0.961,12.453,0.134c-3.545,1.958-8.639,1.739-12.727,2.101
						c-5.18,0.459-10.152,0.363-15.404,0.674c-14.842,0.878-29.652-0.411-44.516,0.254c-9.295,0.417-18.541-0.506-27.873-0.354
						c-2.715,0.045-21.45,1.866-21.606,4.216c6.673,2.991,25.075,1.715,32.165,1.316c9.611-0.541,13.279-0.715,22.852-0.869
						c11.631-0.188,20.139-0.455,31.77-0.646c7.688-0.125,15.426,0.529,23.111,0.622c3.541,0.042,14.053-2.003,17.613-2.061
						c2.244-0.036,3.23,2.981,5.195,3.611c-3.936,0.821-7.285-0.456-11.4,0.161c-5.295,0.793-16.197,0.176-21.578,0.502
						c-11.951,0.726-24.27-0.393-36.164,0.71c-4.121,0.382-7.428,0.005-11.32,1.159c-3.807,1.129-8.389,0.312-12.539,0.217
						c-4.432-0.102-9.596,0.854-13.932,0.557c-4.775-0.326-14.785-0.643-19.455-0.16c-4.859,0.505-3.393,1.08-7.886,2.522
						c4.025-0.126,7.757,0.614,11.763,0.556c4.012-0.061,7.734-0.643,11.807-0.572c7.355,0.125,11.756,1.537,19.381,0.693
						c4.393-0.486,10.785-0.649,15.223-1.071c6.486-0.616,13.158,0.014,19.674-0.322c10.877-0.562,21.779-0.356,32.67-0.534
						c1.85-0.031,18.387-0.543,19.295,1.632c1.289,3.083-22.008,1.834-23.51,1.845c-7.35,0.053-14.717-0.518-22.09-0.396
						c-6.502,0.106-12.738,0.235-19.076,1.448c-6.488,1.241-12.525,1.472-19.293,1.313c-5.641-0.132-11.135,0.416-16.664-0.15
						c-5.938-0.607-12.633,1.186-18.559,1.818c-2.08,0.222-14.879,1.678-14.361,3.411c0.436,1.456,8.484,0.839,9.469,0.831
						c4.514-0.037,8.936-1.369,13.432-1.43c5.311-0.07,10.568-0.807,15.895-0.449c5.68,0.381,11.941,0.293,17.619-0.293
						c10.564-1.092,21.004-3.601,31.828-2.917c8.176,0.518,16.561,1.847,24.74,1.116c4.4-0.393,13.324-0.536,17.76-0.57
						c2.615-0.02,3.941,1.066,6.145,2.137c-3.807,3.68-14.881,2.418-19.98,2.783c-5.926,0.424-12.141,0.621-18.063,0.115
						c-5.746-0.49-11.711-1.004-17.51-0.385c-4.648,0.498-8.988-0.158-13.443,1.06c-11.021,3.012-23.221,0.702-34.578,1.286
						c-2.189,0.111-26.146-1.516-23.145,3.603c1.018,1.735,7.619,1.042,9.672,1.115c5.42,0.194,8.104-1.116,13.547-1.386
						c4.936-0.246,12.723,0.648,17.658,0.159c3.633-0.36,10.205,0.021,13.857-0.21c8.715-0.551,18.953-2.6,27.953-1.838
						c9.309,0.789,11.246,1.137,19.779,0.661c4.809-0.269,9.625-0.152,14.434-0.236c3.207-0.056,9.115-0.536,11.191,1.909
						c-5.074,2.998-11.658,2.313-17.68,1.979c-4.631-0.256-9.326,0.023-13.955-0.328c-4.637-0.354-9.049-0.816-13.713-0.729
						c-5.539,0.104-10.953-0.363-16.332,0.842c-7.75,1.737-18.041,0.609-26.094,0.721c-12.82,0.18-23.701,3.118-36.559,3.329"/>
				</g>
				
					<text transform="matrix(0.9999 0.0153 -0.0153 0.9999 236.8499 36.6099)" fill="#262624" font-family="'CooperBT-Medium'" font-size="14">Tierisches</text>
				<g>
					<defs>
						<polygon id="SVGID_33_" points="332.671,46.401 228.072,47.539 227.988,16.694 333.345,16.391 						"/>
					</defs>
					<clipPath id="SVGID_34_">
						<use xlink:href="#SVGID_33_"  overflow="visible"/>
					</clipPath>
				</g>
				<g>
					<defs>
						<polygon id="SVGID_35_" points="332.671,46.401 228.072,47.539 227.988,16.694 333.345,16.391 						"/>
					</defs>
					<clipPath id="SVGID_36_">
						<use xlink:href="#SVGID_35_"  overflow="visible"/>
					</clipPath>
				</g>
			</g>
			<g>
				<g>
					<g>
						<g>
							<g>
								<defs>
									<polygon id="SVGID_37_" points="324.167,43.566 219.568,44.704 219.483,13.859 324.841,13.556 									"/>
								</defs>
								<clipPath id="SVGID_38_">
									<use xlink:href="#SVGID_37_"  overflow="visible"/>
								</clipPath>
							</g>
							<g>
								<defs>
									<polygon id="SVGID_39_" points="324.167,43.566 219.568,44.704 219.483,13.859 324.841,13.556 									"/>
								</defs>
								<clipPath id="SVGID_40_">
									<use xlink:href="#SVGID_39_"  overflow="visible"/>
								</clipPath>
							</g>
						</g>
					</g>
				</g>
				<g>
					<g>
						<rect x="269.87" y="41.026" fill="#966E53" width="4.584" height="64"/>
						<rect x="269.87" y="41.791" fill="#604029" width="4.584" height="11.613"/>
					</g>
					<g>
						<g>
							<polygon fill="#77543D" points="326.195,45.951 221.595,47.088 219.568,44.704 243.337,25.601 324.841,13.556 
								326.868,15.941 							"/>
							<polygon fill="#966E53" points="324.167,43.566 219.568,44.704 219.483,13.859 324.841,13.556 							"/>
							<g>
								<defs>
									<polygon id="SVGID_41_" points="324.167,43.566 219.568,44.704 219.483,13.859 324.841,13.556 									"/>
								</defs>
								<clipPath id="SVGID_42_">
									<use xlink:href="#SVGID_41_"  overflow="visible"/>
								</clipPath>
							</g>
							<g>
								<defs>
									<polygon id="SVGID_43_" points="324.167,43.566 219.568,44.704 219.483,13.859 324.841,13.556 									"/>
								</defs>
								<clipPath id="SVGID_44_">
									<use xlink:href="#SVGID_43_"  overflow="visible"/>
								</clipPath>
								<path clip-path="url(#SVGID_44_)" fill="none" stroke="#77543D" stroke-miterlimit="10" d="M209.263,13.238
									c3.258,0.172,7.217-0.568,10.506-0.889c5.682-0.554,11.43-0.735,17.146-1.08c12.248-0.736,24.697-1.564,36.977-1.74
									c14.465-0.207,28.99-0.871,43.41-0.48c3.504,0.096,9.363-0.961,12.453,0.134c-3.545,1.958-8.639,1.739-12.727,2.101
									c-5.18,0.459-10.152,0.363-15.404,0.674c-14.842,0.878-29.652-0.411-44.516,0.254c-9.295,0.417-18.541-0.506-27.873-0.354
									c-2.715,0.045-21.45,1.866-21.606,4.216c6.673,2.991,25.075,1.715,32.165,1.316c9.611-0.541,13.279-0.715,22.852-0.869
									c11.631-0.188,20.139-0.455,31.77-0.646c7.688-0.125,15.426,0.529,23.111,0.622c3.541,0.042,14.053-2.003,17.613-2.061
									c2.244-0.036,3.23,2.981,5.195,3.611c-3.936,0.821-7.285-0.456-11.4,0.161c-5.295,0.793-16.197,0.176-21.578,0.502
									c-11.951,0.726-24.27-0.393-36.164,0.71c-4.121,0.382-7.428,0.005-11.32,1.159c-3.807,1.129-8.389,0.312-12.539,0.217
									c-4.432-0.102-9.596,0.854-13.932,0.557c-4.775-0.326-14.785-0.643-19.455-0.16c-4.859,0.505-3.393,1.08-7.886,2.522
									c4.025-0.126,7.757,0.614,11.762,0.556c4.013-0.061,7.735-0.643,11.808-0.572c7.355,0.125,11.756,1.537,19.381,0.693
									c4.393-0.486,10.785-0.649,15.223-1.071c6.486-0.616,13.158,0.014,19.674-0.322c10.877-0.562,21.779-0.356,32.67-0.534
									c1.85-0.031,18.387-0.543,19.295,1.632c1.289,3.083-22.008,1.834-23.51,1.845c-7.35,0.053-14.717-0.518-22.09-0.396
									c-6.502,0.106-12.738,0.235-19.076,1.448c-6.488,1.241-12.525,1.472-19.293,1.313c-5.641-0.132-11.135,0.416-16.664-0.15
									c-5.938-0.607-12.633,1.186-18.559,1.818c-2.08,0.222-14.878,1.678-14.361,3.411c0.436,1.456,8.484,0.839,9.469,0.831
									c4.514-0.037,8.936-1.369,13.432-1.43c5.311-0.07,10.568-0.807,15.895-0.449c5.68,0.381,11.941,0.293,17.619-0.293
									c10.564-1.092,21.004-3.601,31.828-2.917c8.176,0.518,16.561,1.847,24.74,1.116c4.4-0.393,13.324-0.536,17.76-0.57
									c2.615-0.02,3.941,1.066,6.145,2.137c-3.807,3.68-14.881,2.418-19.98,2.783c-5.926,0.424-12.141,0.621-18.063,0.115
									c-5.746-0.49-11.711-1.004-17.51-0.385c-4.648,0.498-8.988-0.158-13.443,1.06c-11.021,3.012-23.221,0.702-34.578,1.286
									c-2.189,0.111-26.146-1.516-23.145,3.603c1.018,1.735,7.618,1.042,9.671,1.115c5.421,0.194,8.104-1.116,13.548-1.386
									c4.936-0.246,12.723,0.648,17.658,0.159c3.633-0.36,10.205,0.021,13.857-0.21c8.715-0.551,18.953-2.6,27.953-1.838
									c9.309,0.789,11.246,1.137,19.779,0.661c4.809-0.269,9.625-0.152,14.434-0.236c3.207-0.056,9.115-0.536,11.191,1.909
									c-5.074,2.998-11.658,2.313-17.68,1.979c-4.631-0.256-9.326,0.023-13.955-0.328c-4.637-0.354-9.049-0.816-13.713-0.729
									c-5.539,0.104-10.953-0.363-16.332,0.842c-7.75,1.737-18.041,0.609-26.094,0.721c-12.82,0.18-23.701,3.118-36.559,3.328"/>
							</g>
						</g>
						<g>
							
								<text transform="matrix(0.9999 0.0153 -0.0153 0.9999 228.3459 33.7759)" fill="#FFFFFF" font-family="'CooperBT-Medium'" font-size="14">Tierisches</text>
						</g>
					</g>
				</g>
				<g>
					<g>
						<g>
							<g>
								<defs>
									<polygon id="SVGID_45_" points="324.167,43.566 219.568,44.704 219.483,13.859 324.841,13.556 									"/>
								</defs>
								<clipPath id="SVGID_46_">
									<use xlink:href="#SVGID_45_"  overflow="visible"/>
								</clipPath>
							</g>
							<g>
								<defs>
									<polygon id="SVGID_47_" points="324.167,43.566 219.568,44.704 219.483,13.859 324.841,13.556 									"/>
								</defs>
								<clipPath id="SVGID_48_">
									<use xlink:href="#SVGID_47_"  overflow="visible"/>
								</clipPath>
							</g>
						</g>
					</g>
				</g>
			</g>
		</g>
	</g>
	<g>
		<g>
			<g opacity="0.3">
				<g>
					<defs>
						<polygon id="SVGID_49_" points="410.187,45.641 347.06,48.37 345.978,17.544 409.89,15.625 						"/>
					</defs>
					<clipPath id="SVGID_50_">
						<use xlink:href="#SVGID_49_"  overflow="visible"/>
					</clipPath>
				</g>
				<g>
					<defs>
						<polygon id="SVGID_51_" points="410.187,45.641 347.06,48.37 345.978,17.544 409.89,15.625 						"/>
					</defs>
					<clipPath id="SVGID_52_">
						<use xlink:href="#SVGID_51_"  overflow="visible"/>
					</clipPath>
				</g>
				<g>
					<defs>
						<polygon id="SVGID_53_" points="410.187,45.641 347.06,48.37 345.978,17.544 409.89,15.625 						"/>
					</defs>
					<clipPath id="SVGID_54_">
						<use xlink:href="#SVGID_53_"  overflow="visible"/>
					</clipPath>
				</g>
				<g>
					<defs>
						<polygon id="SVGID_55_" points="410.187,45.641 347.06,48.37 345.978,17.544 409.89,15.625 						"/>
					</defs>
					<clipPath id="SVGID_56_">
						<use xlink:href="#SVGID_55_"  overflow="visible"/>
					</clipPath>
				</g>
				<rect x="377.382" y="43.471" fill="#262624" width="4.584" height="64"/>
				<rect x="377.382" y="44.292" fill="#262624" width="4.584" height="11.614"/>
				<polygon fill="#262624" points="412.288,47.959 349.161,50.688 347.06,48.37 370.198,28.508 409.89,15.625 411.991,17.944 				
					"/>
				<polygon fill="#262624" points="410.187,45.641 347.06,48.37 345.978,17.544 409.89,15.625 				"/>
				<g>
					<defs>
						<polygon id="SVGID_57_" points="410.187,45.641 347.06,48.37 345.978,17.544 409.89,15.625 						"/>
					</defs>
					<clipPath id="SVGID_58_">
						<use xlink:href="#SVGID_57_"  overflow="visible"/>
					</clipPath>
				</g>
				<g>
					<defs>
						<polygon id="SVGID_59_" points="410.187,45.641 347.06,48.37 345.978,17.544 409.89,15.625 						"/>
					</defs>
					<clipPath id="SVGID_60_">
						<use xlink:href="#SVGID_59_"  overflow="visible"/>
					</clipPath>
				</g>
				<g>
					<defs>
						<polygon id="SVGID_61_" points="410.187,45.641 347.06,48.37 345.978,17.544 409.89,15.625 						"/>
					</defs>
					<clipPath id="SVGID_62_">
						<use xlink:href="#SVGID_61_"  overflow="visible"/>
					</clipPath>
				</g>
				<g>
					<defs>
						<polygon id="SVGID_63_" points="410.187,45.641 347.06,48.37 345.978,17.544 409.89,15.625 						"/>
					</defs>
					<clipPath id="SVGID_64_">
						<use xlink:href="#SVGID_63_"  overflow="visible"/>
					</clipPath>
					<path clip-path="url(#SVGID_64_)" fill="none" stroke="#262624" stroke-miterlimit="10" d="M339.874,20.561
						c2.377,0.929,7.795-0.234,10.434-0.451c4.002-0.327,8.021-0.805,12.035-1.021c7.264-0.392,14.516-0.771,21.719-0.94
						c7.029-0.164,14.262-0.338,21.309-0.669c1.244-0.06,14.363-1.786,13.285,1.696c-0.016,0.063-0.033,0.127-0.049,0.189
						c-4.367,1.643-9.34,0.993-13.924,1.146c-7.258,0.243-14.494,0.377-21.715,0.688c-9.855,0.426-19.701,0.255-29.5,1.263
						c-2.189,0.225-17.627,0.004-17.725,2.53c-0.111,0.137-0.154,0.288-0.125,0.456c2.113,1.903,6.246,1.643,8.896,1.43
						c3.881-0.313,7.664-0.845,11.604-1.015c7.613-0.329,15.189-1.17,22.738-0.733c5.27,0.305,9.734-1.21,14.945-1.646
						c5.375-0.45,10.061,0.831,15.301,0.846c6.188,0.018,12.43-0.201,18.604-0.572c-4.811,2.546-11.371,3.012-16.738,3.238
						c-5.045,0.213-9.998-1.146-14.838-0.415c-4.551,0.688-9.031,1.947-13.604,2.396c-5.023,0.492-9.766-0.579-14.785-0.361
						c-5.879,0.254-11.439,0.689-17.219,1.244c-2.721,0.262-10.445,0.746-11.574,3.991c-1.047,2.999,3.449,1.868,5.07,1.559
						c3.135-0.598,6.033-0.778,9.209-0.899c6.467-0.246,13.01-1.33,19.486-1.3c8.58,0.04,16.453-2.771,24.912-2.384
						c4.461,0.204,8.709,1.258,13.086,1.692c5.092,0.506,10.406-0.013,15.396-0.87c-7.227,5.393-19.938,3.896-28.318,3.119
						c-5.016-0.467-9.088,0.627-13.955,1.604c-5.607,1.124-11.518,1.812-17.375,1.808c-5.125-0.003-9.918,0.429-15.051,0.651
						c-1.58,0.068-12.643,1.043-9.324,3.904c2.4,2.07,4.707-0.535,9.514-0.98c4.482-0.415,11.07,1.57,15.553,0.461
						c4.127-1.021,8.15-1.537,12.354-2.097c4.523-0.602,9.236-0.682,13.721-1.095c4.693-0.432,8.854,0.433,13.428,0.867
						c5.613,0.532,12.852-2.627,18.064-0.684c-0.104,4.881-26.16,4.002-30.566,3.975c-4.725-0.029-9.443,0.488-14.236,0.922
						c-4.17,0.377-8.129,0.492-12.205,1.027c-4.967,0.652-9.865,1.307-14.705,1.331c-2.496,0.013-5.531,0.346-8.164,0.715
						c-1.293,0.181-6.373,1.257-5.996,1.705"/>
				</g>
				
					<text transform="matrix(0.9994 -0.0347 0.0347 0.9994 357.7346 37.9624)" fill="#262624" font-family="'CooperBT-Medium'" font-size="14">Obst</text>
				<g>
					<defs>
						<polygon id="SVGID_65_" points="410.187,45.641 347.06,48.37 345.978,17.544 409.89,15.625 						"/>
					</defs>
					<clipPath id="SVGID_66_">
						<use xlink:href="#SVGID_65_"  overflow="visible"/>
					</clipPath>
				</g>
				<g>
					<defs>
						<polygon id="SVGID_67_" points="410.187,45.641 347.06,48.37 345.978,17.544 409.89,15.625 						"/>
					</defs>
					<clipPath id="SVGID_68_">
						<use xlink:href="#SVGID_67_"  overflow="visible"/>
					</clipPath>
				</g>
				<g>
					<defs>
						<polygon id="SVGID_69_" points="410.187,45.641 347.06,48.37 345.978,17.544 409.89,15.625 						"/>
					</defs>
					<clipPath id="SVGID_70_">
						<use xlink:href="#SVGID_69_"  overflow="visible"/>
					</clipPath>
				</g>
				<g>
					<defs>
						<polygon id="SVGID_71_" points="410.187,45.641 347.06,48.37 345.978,17.544 409.89,15.625 						"/>
					</defs>
					<clipPath id="SVGID_72_">
						<use xlink:href="#SVGID_71_"  overflow="visible"/>
					</clipPath>
				</g>
			</g>
			<g>
				<g>
					<g>
						<g>
							<g>
								<defs>
									<polygon id="SVGID_73_" points="401.683,42.806 338.556,45.535 337.474,14.709 401.386,12.791 									"/>
								</defs>
								<clipPath id="SVGID_74_">
									<use xlink:href="#SVGID_73_"  overflow="visible"/>
								</clipPath>
							</g>
							<g>
								<defs>
									<polygon id="SVGID_75_" points="401.683,42.806 338.556,45.535 337.474,14.709 401.386,12.791 									"/>
								</defs>
								<clipPath id="SVGID_76_">
									<use xlink:href="#SVGID_75_"  overflow="visible"/>
								</clipPath>
							</g>
							<g>
								<defs>
									<polygon id="SVGID_77_" points="401.683,42.806 338.556,45.535 337.474,14.709 401.386,12.791 									"/>
								</defs>
								<clipPath id="SVGID_78_">
									<use xlink:href="#SVGID_77_"  overflow="visible"/>
								</clipPath>
							</g>
							<g>
								<defs>
									<polygon id="SVGID_79_" points="401.683,42.806 338.556,45.535 337.474,14.709 401.386,12.791 									"/>
								</defs>
								<clipPath id="SVGID_80_">
									<use xlink:href="#SVGID_79_"  overflow="visible"/>
								</clipPath>
							</g>
						</g>
					</g>
				</g>
				<g>
					<g>
						<rect x="368.878" y="40.636" fill="#966E53" width="4.584" height="64"/>
						<rect x="368.878" y="41.457" fill="#604029" width="4.584" height="11.613"/>
					</g>
					<g>
						<g>
							<polygon fill="#77543D" points="403.784,45.125 340.657,47.853 338.556,45.535 361.695,25.673 401.386,12.791 
								403.488,15.109 							"/>
							<polygon fill="#966E53" points="401.683,42.806 338.556,45.535 337.474,14.709 401.386,12.791 							"/>
							<g>
								<defs>
									<polygon id="SVGID_81_" points="401.683,42.806 338.556,45.535 337.474,14.709 401.386,12.791 									"/>
								</defs>
								<clipPath id="SVGID_82_">
									<use xlink:href="#SVGID_81_"  overflow="visible"/>
								</clipPath>
							</g>
							<g>
								<defs>
									<polygon id="SVGID_83_" points="401.683,42.806 338.556,45.535 337.474,14.709 401.386,12.791 									"/>
								</defs>
								<clipPath id="SVGID_84_">
									<use xlink:href="#SVGID_83_"  overflow="visible"/>
								</clipPath>
							</g>
							<g>
								<defs>
									<polygon id="SVGID_85_" points="401.683,42.806 338.556,45.535 337.474,14.709 401.386,12.791 									"/>
								</defs>
								<clipPath id="SVGID_86_">
									<use xlink:href="#SVGID_85_"  overflow="visible"/>
								</clipPath>
							</g>
							<g>
								<defs>
									<polygon id="SVGID_87_" points="401.683,42.806 338.556,45.535 337.474,14.709 401.386,12.791 									"/>
								</defs>
								<clipPath id="SVGID_88_">
									<use xlink:href="#SVGID_87_"  overflow="visible"/>
								</clipPath>
								<path clip-path="url(#SVGID_88_)" fill="none" stroke="#77543D" stroke-miterlimit="10" d="M331.37,17.726
									c2.377,0.929,7.795-0.234,10.434-0.451c4.002-0.327,8.021-0.805,12.035-1.021c7.264-0.392,14.516-0.771,21.719-0.94
									c7.029-0.164,14.262-0.338,21.309-0.669c1.244-0.06,14.363-1.786,13.285,1.696c-0.016,0.063-0.033,0.127-0.049,0.189
									c-4.367,1.643-9.34,0.993-13.924,1.146c-7.258,0.243-14.494,0.377-21.715,0.688c-9.855,0.426-19.701,0.255-29.5,1.263
									c-2.189,0.225-17.627,0.004-17.725,2.53c-0.111,0.137-0.154,0.288-0.125,0.456c2.113,1.903,6.246,1.643,8.896,1.43
									c3.881-0.313,7.664-0.845,11.604-1.015c7.613-0.329,15.189-1.17,22.738-0.733c5.27,0.305,9.734-1.21,14.945-1.646
									c5.375-0.45,10.061,0.831,15.301,0.846c6.188,0.018,12.43-0.201,18.604-0.572c-4.811,2.546-11.371,3.012-16.738,3.238
									c-5.045,0.213-9.998-1.146-14.838-0.415c-4.551,0.688-9.031,1.947-13.604,2.396c-5.023,0.492-9.766-0.579-14.785-0.361
									c-5.879,0.254-11.439,0.689-17.219,1.244c-2.721,0.262-10.445,0.746-11.574,3.991c-1.047,2.999,3.449,1.868,5.07,1.559
									c3.135-0.598,6.033-0.778,9.209-0.899c6.467-0.246,13.01-1.33,19.486-1.3c8.58,0.04,16.453-2.771,24.912-2.384
									c4.461,0.204,8.709,1.258,13.086,1.692c5.092,0.506,10.406-0.013,15.396-0.87c-7.227,5.393-19.938,3.896-28.318,3.119
									c-5.016-0.467-9.088,0.627-13.955,1.604c-5.607,1.124-11.518,1.812-17.375,1.808c-5.125-0.003-9.918,0.429-15.051,0.651
									c-1.58,0.068-12.643,1.043-9.324,3.904c2.4,2.07,4.707-0.535,9.514-0.98c4.482-0.415,11.07,1.57,15.553,0.461
									c4.127-1.021,8.15-1.537,12.354-2.097c4.523-0.602,9.236-0.682,13.721-1.095c4.693-0.432,8.854,0.433,13.428,0.867
									c5.613,0.532,12.852-2.627,18.064-0.684c-0.104,4.881-26.16,4.002-30.566,3.975c-4.725-0.029-9.443,0.488-14.236,0.922
									c-4.17,0.377-8.129,0.492-12.205,1.027c-4.967,0.652-9.865,1.307-14.705,1.331c-2.496,0.013-5.531,0.346-8.164,0.715
									c-1.293,0.181-6.373,1.258-5.996,1.704"/>
							</g>
						</g>
						<g>
							
								<text transform="matrix(0.9994 -0.0347 0.0347 0.9994 349.2307 35.1274)" fill="#FFFFFF" font-family="'CooperBT-Medium'" font-size="14">Obst</text>
						</g>
					</g>
				</g>
				<g>
					<g>
						<g>
							<g>
								<defs>
									<polygon id="SVGID_89_" points="401.683,42.806 338.556,45.535 337.474,14.709 401.386,12.791 									"/>
								</defs>
								<clipPath id="SVGID_90_">
									<use xlink:href="#SVGID_89_"  overflow="visible"/>
								</clipPath>
							</g>
							<g>
								<defs>
									<polygon id="SVGID_91_" points="401.683,42.806 338.556,45.535 337.474,14.709 401.386,12.791 									"/>
								</defs>
								<clipPath id="SVGID_92_">
									<use xlink:href="#SVGID_91_"  overflow="visible"/>
								</clipPath>
							</g>
							<g>
								<defs>
									<polygon id="SVGID_93_" points="401.683,42.806 338.556,45.535 337.474,14.709 401.386,12.791 									"/>
								</defs>
								<clipPath id="SVGID_94_">
									<use xlink:href="#SVGID_93_"  overflow="visible"/>
								</clipPath>
							</g>
							<g>
								<defs>
									<polygon id="SVGID_95_" points="401.683,42.806 338.556,45.535 337.474,14.709 401.386,12.791 									"/>
								</defs>
								<clipPath id="SVGID_96_">
									<use xlink:href="#SVGID_95_"  overflow="visible"/>
								</clipPath>
							</g>
						</g>
					</g>
				</g>
			</g>
		</g>
	</g>
	<g>
		<g>
			<g opacity="0.3">
				<g>
					<defs>
						<polygon id="SVGID_97_" points="526.861,48.593 423.761,44.236 424.948,15.417 527.87,17.609 						"/>
					</defs>
					<clipPath id="SVGID_98_">
						<use xlink:href="#SVGID_97_"  overflow="visible"/>
					</clipPath>
				</g>
				<g>
					<defs>
						<polygon id="SVGID_99_" points="526.861,48.593 423.761,44.236 424.948,15.417 527.87,17.609 						"/>
					</defs>
					<clipPath id="SVGID_100_">
						<use xlink:href="#SVGID_99_"  overflow="visible"/>
					</clipPath>
				</g>
				<g>
					<defs>
						<polygon id="SVGID_101_" points="526.861,48.593 423.761,44.236 424.948,15.417 527.87,17.609 						"/>
					</defs>
					<clipPath id="SVGID_102_">
						<use xlink:href="#SVGID_101_"  overflow="visible"/>
					</clipPath>
				</g>
				<g>
					<defs>
						<polygon id="SVGID_103_" points="526.861,48.593 423.761,44.236 424.948,15.417 527.87,17.609 						"/>
					</defs>
					<clipPath id="SVGID_104_">
						<use xlink:href="#SVGID_103_"  overflow="visible"/>
					</clipPath>
				</g>
				<g>
					<defs>
						<polygon id="SVGID_105_" points="526.861,48.593 423.761,44.236 424.948,15.417 527.87,17.609 						"/>
					</defs>
					<clipPath id="SVGID_106_">
						<use xlink:href="#SVGID_105_"  overflow="visible"/>
					</clipPath>
				</g>
				<rect x="471.232" y="43.471" fill="#262624" width="4.584" height="64"/>
				<rect x="471.232" y="44.292" fill="#262624" width="4.584" height="11.614"/>
				<polygon fill="#262624" points="528.782,51.063 425.681,46.707 423.761,44.236 447.304,27.149 527.87,17.609 529.79,20.08 				
					"/>
				<polygon fill="#262624" points="526.861,48.593 423.761,44.236 424.948,15.417 527.87,17.609 				"/>
				<g>
					<defs>
						<polygon id="SVGID_107_" points="526.861,48.593 423.761,44.236 424.948,15.417 527.87,17.609 						"/>
					</defs>
					<clipPath id="SVGID_108_">
						<use xlink:href="#SVGID_107_"  overflow="visible"/>
					</clipPath>
				</g>
				<g>
					<defs>
						<polygon id="SVGID_109_" points="526.861,48.593 423.761,44.236 424.948,15.417 527.87,17.609 						"/>
					</defs>
					<clipPath id="SVGID_110_">
						<use xlink:href="#SVGID_109_"  overflow="visible"/>
					</clipPath>
				</g>
				<g>
					<defs>
						<polygon id="SVGID_111_" points="526.861,48.593 423.761,44.236 424.948,15.417 527.87,17.609 						"/>
					</defs>
					<clipPath id="SVGID_112_">
						<use xlink:href="#SVGID_111_"  overflow="visible"/>
					</clipPath>
				</g>
				<g>
					<defs>
						<polygon id="SVGID_113_" points="526.861,48.593 423.761,44.236 424.948,15.417 527.87,17.609 						"/>
					</defs>
					<clipPath id="SVGID_114_">
						<use xlink:href="#SVGID_113_"  overflow="visible"/>
					</clipPath>
				</g>
				<g>
					<defs>
						<polygon id="SVGID_115_" points="526.861,48.593 423.761,44.236 424.948,15.417 527.87,17.609 						"/>
					</defs>
					<clipPath id="SVGID_116_">
						<use xlink:href="#SVGID_115_"  overflow="visible"/>
					</clipPath>
					<path clip-path="url(#SVGID_116_)" fill="none" stroke="#262624" stroke-miterlimit="10" d="M416.546,13.892
						c27.555,6.399,40.311,5.669,69.834,5.274c6.051-0.08,33.373,1.057,39.422,1.527c2.877,0.225,5.793,0.441,8.725,0.541
						c2.369,0.08,5.365-0.669,7.529,0.307c-3.391,2.631-11.822,1.626-16.031,1.667c-5.488,0.054-11.213-0.112-16.691-0.543
						c-5.188-0.407-10.455-0.563-15.523-1.243c-5.434-0.729-10.658,0.078-16.09,0.408c-4.705,0.285-9.24,1.281-13.953,0.658
						c-5.1-0.675-10.199-1.389-15.422-1.559c-4.91-0.16-9.777-0.35-14.514-0.735c-3.992-0.325-9.361-1.599-13.238-0.931
						c-1.703,0.293-5.193,2.591-4.158,4.578c0.984,1.889,4.713,0.422,6.25,0.268c4.553-0.457,9.391-0.207,14.01-0.057
						c4.9,0.159,9.924,0.096,14.734,0.735c4.463,0.593,8.818,1.409,13.193,1.979c4.637,0.605,9.109-0.186,13.6-1.162
						c4.725-1.026,8.664-0.64,13.461-0.264c9.635,0.756,19.76,1.537,29.406,1.458c3.199-0.026,6.393-0.042,9.625,0.063
						c1.764,0.057,5.781-0.525,7.162,0.484c4.418,3.226-7.621,2.752-9.08,2.705c-9.727-0.315-19.508-0.886-29.225-1.202
						c-4.115-0.134-8.514-1.12-12.477-0.912c-4.234,0.223-8.506,2.155-12.602,2.841c-9.191,1.536-16.465-3.245-25.648-3.08
						c-5.34,0.096-10.932-0.398-16.301-0.78c-3.402-0.241-10.77-1.794-13.449,0.125c-2.164,1.55-2.258,2.946,0.131,3.443
						c2.428,0.505,5.357,0.253,7.809,0.448c5.328,0.427,10.633,0.152,15.924,0.324c4.988,0.162,9.561,0.437,14.217,1.451
						c4.072,0.887,8.471,1.477,12.689,1.62c4.482,0.153,8.832-1.04,13.123-1.462c5.258-0.518,10.525,0.271,15.711,0.705
						c7.535,0.63,15.461,0.848,23.025,0.75c3.34-0.043,6.58-0.286,9.943-0.177c2.443,0.079,6.479-0.494,8.729,0.535
						c2.584,1.182,0.322,2.492-1.59,2.937c-2.162,0.502-4.572,0.363-6.83,0.291c-4.775-0.154-9.52-0.573-14.16-0.906
						c-9.736-0.697-19.895-0.728-29.732-1.023c-4.793-0.145-8.855,1.193-13.5,1.756c-5.398,0.654-12.086,0.237-17.361-0.947
						c-10.109-2.27-21.43-3.328-31.889-2.613c-1.453,0.098-12.066,2.656-7.141,5.031c1.18,0.568,4.777-0.094,6.254-0.045
						c2.227,0.072,4.395-0.002,6.506-0.039c8.59-0.15,16.992,0.209,25.494,0.58c10.523,0.459,21.486,2.016,31.949,1.291
						c5.451-0.378,11.311-0.146,16.781,0.045c6.875,0.241,13.678-0.304,20.533-0.082c3.008,0.098,8.314-0.543,10.949,1.108
						c3.094,1.938-0.211,2.774-2.332,2.937c-4.982,0.385-7.861,1.118-12.809,1.188c-5.787,0.08-13.898-1.354-19.719-1.271
						c-5.094,0.073-8.93-0.518-13.896,0.413c-9.234,1.729-15.098-1.094-24.832-1.661c-6.863-0.399-18.408-0.547-25.229-1.071
						c-7.293-0.561-14.832,0.014-22.162-0.777c0.242-0.252,0.41-0.084,0.682-0.172"/>
				</g>
				
					<text transform="matrix(0.9988 0.0498 -0.0498 0.9988 433.7229 34.1499)" fill="#262624" font-family="'CooperBT-Medium'" font-size="14">Fast Food</text>
				<g>
					<defs>
						<polygon id="SVGID_117_" points="526.861,48.593 423.761,44.236 424.948,15.417 527.87,17.609 						"/>
					</defs>
					<clipPath id="SVGID_118_">
						<use xlink:href="#SVGID_117_"  overflow="visible"/>
					</clipPath>
				</g>
				<g>
					<defs>
						<polygon id="SVGID_119_" points="526.861,48.593 423.761,44.236 424.948,15.417 527.87,17.609 						"/>
					</defs>
					<clipPath id="SVGID_120_">
						<use xlink:href="#SVGID_119_"  overflow="visible"/>
					</clipPath>
				</g>
				<g>
					<defs>
						<polygon id="SVGID_121_" points="526.861,48.593 423.761,44.236 424.948,15.417 527.87,17.609 						"/>
					</defs>
					<clipPath id="SVGID_122_">
						<use xlink:href="#SVGID_121_"  overflow="visible"/>
					</clipPath>
				</g>
				<g>
					<defs>
						<polygon id="SVGID_123_" points="526.861,48.593 423.761,44.236 424.948,15.417 527.87,17.609 						"/>
					</defs>
					<clipPath id="SVGID_124_">
						<use xlink:href="#SVGID_123_"  overflow="visible"/>
					</clipPath>
				</g>
				<g>
					<defs>
						<polygon id="SVGID_125_" points="526.861,48.593 423.761,44.236 424.948,15.417 527.87,17.609 						"/>
					</defs>
					<clipPath id="SVGID_126_">
						<use xlink:href="#SVGID_125_"  overflow="visible"/>
					</clipPath>
				</g>
			</g>
			<g>
				<g>
					<g>
						<g>
							<g>
								<defs>
									<polygon id="SVGID_127_" points="518.357,45.757 415.257,41.401 416.445,12.582 519.366,14.774 									"/>
								</defs>
								<clipPath id="SVGID_128_">
									<use xlink:href="#SVGID_127_"  overflow="visible"/>
								</clipPath>
							</g>
							<g>
								<defs>
									<polygon id="SVGID_129_" points="518.357,45.757 415.257,41.401 416.445,12.582 519.366,14.774 									"/>
								</defs>
								<clipPath id="SVGID_130_">
									<use xlink:href="#SVGID_129_"  overflow="visible"/>
								</clipPath>
							</g>
							<g>
								<defs>
									<polygon id="SVGID_131_" points="518.357,45.757 415.257,41.401 416.445,12.582 519.366,14.774 									"/>
								</defs>
								<clipPath id="SVGID_132_">
									<use xlink:href="#SVGID_131_"  overflow="visible"/>
								</clipPath>
							</g>
							<g>
								<defs>
									<polygon id="SVGID_133_" points="518.357,45.757 415.257,41.401 416.445,12.582 519.366,14.774 									"/>
								</defs>
								<clipPath id="SVGID_134_">
									<use xlink:href="#SVGID_133_"  overflow="visible"/>
								</clipPath>
							</g>
							<g>
								<defs>
									<polygon id="SVGID_135_" points="518.357,45.757 415.257,41.401 416.445,12.582 519.366,14.774 									"/>
								</defs>
								<clipPath id="SVGID_136_">
									<use xlink:href="#SVGID_135_"  overflow="visible"/>
								</clipPath>
							</g>
						</g>
					</g>
				</g>
				<g>
					<g>
						<rect x="462.728" y="40.636" fill="#966E53" width="4.584" height="64"/>
						<rect x="462.728" y="41.457" fill="#604029" width="4.584" height="11.613"/>
					</g>
					<g>
						<g>
							<polygon fill="#77543D" points="520.279,48.228 417.177,43.872 415.257,41.401 438.8,24.314 519.366,14.774 521.286,17.245 
															"/>
							<polygon fill="#966E53" points="518.357,45.757 415.257,41.401 416.445,12.582 519.366,14.774 							"/>
							<g>
								<defs>
									<polygon id="SVGID_137_" points="518.357,45.757 415.257,41.401 416.445,12.582 519.366,14.774 									"/>
								</defs>
								<clipPath id="SVGID_138_">
									<use xlink:href="#SVGID_137_"  overflow="visible"/>
								</clipPath>
							</g>
							<g>
								<defs>
									<polygon id="SVGID_139_" points="518.357,45.757 415.257,41.401 416.445,12.582 519.366,14.774 									"/>
								</defs>
								<clipPath id="SVGID_140_">
									<use xlink:href="#SVGID_139_"  overflow="visible"/>
								</clipPath>
							</g>
							<g>
								<defs>
									<polygon id="SVGID_141_" points="518.357,45.757 415.257,41.401 416.445,12.582 519.366,14.774 									"/>
								</defs>
								<clipPath id="SVGID_142_">
									<use xlink:href="#SVGID_141_"  overflow="visible"/>
								</clipPath>
							</g>
							<g>
								<defs>
									<polygon id="SVGID_143_" points="518.357,45.757 415.257,41.401 416.445,12.582 519.366,14.774 									"/>
								</defs>
								<clipPath id="SVGID_144_">
									<use xlink:href="#SVGID_143_"  overflow="visible"/>
								</clipPath>
							</g>
							<g>
								<defs>
									<polygon id="SVGID_145_" points="518.357,45.757 415.257,41.401 416.445,12.582 519.366,14.774 									"/>
								</defs>
								<clipPath id="SVGID_146_">
									<use xlink:href="#SVGID_145_"  overflow="visible"/>
								</clipPath>
								<path clip-path="url(#SVGID_146_)" fill="none" stroke="#77543D" stroke-miterlimit="10" d="M408.042,11.057
									c27.555,6.399,40.311,5.669,69.834,5.274c6.051-0.08,33.373,1.057,39.422,1.527c2.877,0.225,5.793,0.441,8.725,0.541
									c2.369,0.08,5.365-0.669,7.529,0.307c-3.391,2.631-11.822,1.626-16.031,1.667c-5.488,0.054-11.213-0.112-16.691-0.543
									c-5.188-0.407-10.455-0.563-15.523-1.243c-5.434-0.729-10.658,0.078-16.09,0.408c-4.705,0.285-9.24,1.281-13.953,0.658
									c-5.1-0.675-10.199-1.389-15.422-1.559c-4.91-0.16-9.777-0.35-14.514-0.735c-3.992-0.325-9.361-1.599-13.238-0.931
									c-1.703,0.293-5.193,2.591-4.158,4.578c0.984,1.889,4.713,0.422,6.25,0.268c4.553-0.457,9.391-0.207,14.01-0.057
									c4.9,0.159,9.924,0.096,14.734,0.735c4.463,0.593,8.818,1.409,13.193,1.979c4.637,0.605,9.109-0.186,13.6-1.162
									c4.725-1.026,8.664-0.64,13.461-0.264c9.635,0.756,19.76,1.537,29.406,1.458c3.199-0.026,6.393-0.042,9.625,0.063
									c1.764,0.057,5.781-0.525,7.162,0.484c4.418,3.226-7.621,2.752-9.08,2.705c-9.727-0.315-19.508-0.886-29.225-1.202
									c-4.115-0.134-8.514-1.12-12.477-0.912c-4.234,0.223-8.506,2.155-12.602,2.841c-9.191,1.536-16.465-3.245-25.648-3.08
									c-5.34,0.096-10.932-0.398-16.301-0.78c-3.402-0.241-10.77-1.794-13.449,0.125c-2.164,1.55-2.258,2.946,0.131,3.443
									c2.428,0.505,5.357,0.253,7.809,0.448c5.328,0.427,10.633,0.152,15.924,0.324c4.988,0.162,9.561,0.437,14.217,1.451
									c4.072,0.887,8.471,1.477,12.689,1.62c4.482,0.153,8.832-1.04,13.123-1.462c5.258-0.518,10.525,0.271,15.711,0.705
									c7.535,0.63,15.461,0.848,23.025,0.75c3.34-0.043,6.58-0.286,9.943-0.177c2.443,0.079,6.479-0.494,8.729,0.535
									c2.584,1.182,0.322,2.492-1.59,2.937c-2.162,0.502-4.572,0.363-6.83,0.291c-4.775-0.154-9.52-0.573-14.16-0.906
									c-9.736-0.697-19.895-0.728-29.732-1.023c-4.793-0.145-8.855,1.193-13.5,1.756c-5.398,0.654-12.086,0.237-17.361-0.947
									c-10.109-2.27-21.43-3.328-31.889-2.613c-1.453,0.098-12.066,2.656-7.141,5.031c1.18,0.568,4.777-0.094,6.254-0.045
									c2.227,0.072,4.395-0.002,6.506-0.039c8.59-0.15,16.992,0.209,25.494,0.58c10.523,0.459,21.486,2.016,31.949,1.291
									c5.451-0.378,11.311-0.146,16.781,0.045c6.875,0.241,13.678-0.304,20.533-0.082c3.008,0.098,8.314-0.543,10.949,1.108
									c3.094,1.938-0.211,2.774-2.332,2.937c-4.982,0.385-7.861,1.118-12.809,1.188c-5.787,0.08-13.898-1.354-19.719-1.271
									c-5.094,0.073-8.93-0.518-13.896,0.413c-9.234,1.729-15.098-1.094-24.832-1.661c-6.863-0.399-18.408-0.547-25.229-1.071
									c-7.293-0.561-14.832,0.014-22.162-0.777c0.242-0.252,0.41-0.084,0.682-0.172"/>
							</g>
						</g>
						<g>
							
								<text transform="matrix(0.9988 0.0498 -0.0498 0.9988 425.219 31.3159)" fill="#FFFFFF" font-family="'CooperBT-Medium'" font-size="14">Fast Food</text>
						</g>
					</g>
				</g>
				<g>
					<g>
						<g>
							<g>
								<defs>
									<polygon id="SVGID_147_" points="518.357,45.757 415.257,41.401 416.445,12.582 519.366,14.774 									"/>
								</defs>
								<clipPath id="SVGID_148_">
									<use xlink:href="#SVGID_147_"  overflow="visible"/>
								</clipPath>
							</g>
							<g>
								<defs>
									<polygon id="SVGID_149_" points="518.357,45.757 415.257,41.401 416.445,12.582 519.366,14.774 									"/>
								</defs>
								<clipPath id="SVGID_150_">
									<use xlink:href="#SVGID_149_"  overflow="visible"/>
								</clipPath>
							</g>
							<g>
								<defs>
									<polygon id="SVGID_151_" points="518.357,45.757 415.257,41.401 416.445,12.582 519.366,14.774 									"/>
								</defs>
								<clipPath id="SVGID_152_">
									<use xlink:href="#SVGID_151_"  overflow="visible"/>
								</clipPath>
							</g>
							<g>
								<defs>
									<polygon id="SVGID_153_" points="518.357,45.757 415.257,41.401 416.445,12.582 519.366,14.774 									"/>
								</defs>
								<clipPath id="SVGID_154_">
									<use xlink:href="#SVGID_153_"  overflow="visible"/>
								</clipPath>
							</g>
							<g>
								<defs>
									<polygon id="SVGID_155_" points="518.357,45.757 415.257,41.401 416.445,12.582 519.366,14.774 									"/>
								</defs>
								<clipPath id="SVGID_156_">
									<use xlink:href="#SVGID_155_"  overflow="visible"/>
								</clipPath>
							</g>
						</g>
					</g>
				</g>
			</g>
		</g>
	</g>
</g>
</svg>
