<?xml version="1.0" encoding="utf-8"?>
<!-- Generator: Adobe Illustrator 16.0.3, SVG Export Plug-In . SVG Version: 6.00 Build 0)  -->
<!DOCTYPE svg PUBLIC "-//W3C//DTD SVG 1.1//EN" "http://www.w3.org/Graphics/SVG/1.1/DTD/svg11.dtd">
<svg version="1.1" id="Ebene_1" xmlns="http://www.w3.org/2000/svg" xmlns:xlink="http://www.w3.org/1999/xlink" x="0px" y="0px"
	 width="282.6px" height="70.398px" viewBox="0 0 282.6 70.398" enable-background="new 0 0 282.6 70.398" xml:space="preserve">
<g>
	<polygon fill="#FFFFF0" points="0.666,0.623 281.632,0 282.6,68.631 0,70.398 	"/>
	<g>
		<path fill="#F3282E" d="M21.705,50.134L21.628,21.43l4.046-0.011l9.238,14.497c2.139,3.359,3.808,6.378,5.179,9.313l0.085-0.042
			c-0.352-3.832-0.445-7.324-0.458-11.796l-0.032-12.009l3.492-0.009l0.077,28.704l-3.748,0.01l-9.152-14.541
			c-2.01-3.188-3.935-6.462-5.392-9.567l-0.128,0.043c0.223,3.619,0.317,7.069,0.33,11.838l0.032,12.265L21.705,50.134z"/>
		<path fill="#F3282E" d="M64.553,36.562l-11.158,0.03l0.028,10.349l12.436-0.033l0.008,3.109l-16.141,0.043l-0.077-28.704
			l15.502-0.042l0.009,3.109l-11.797,0.032l0.024,9.071l11.158-0.03L64.553,36.562z"/>
		<path fill="#F3282E" d="M74.305,21.289l0.046,16.992c0.018,6.431,2.878,9.148,6.711,9.138c4.259-0.011,6.978-2.83,6.96-9.175
			l-0.046-16.992l3.748-0.01l0.045,16.737c0.024,8.815-4.608,12.448-10.826,12.464c-5.877,0.016-10.315-3.336-10.339-12.237
			l-0.046-16.907L74.305,21.289z"/>
		<path fill="#F3282E" d="M113.056,36.432l-11.158,0.03l0.028,10.349l12.436-0.033l0.008,3.109l-16.141,0.043l-0.077-28.704
			l15.502-0.042l0.009,3.109l-11.797,0.032l0.024,9.071l11.158-0.03L113.056,36.432z"/>
		<path fill="#F3282E" d="M119.104,21.552c1.872-0.388,4.556-0.609,7.11-0.616c3.961-0.011,6.518,0.707,8.311,2.32
			c1.452,1.274,2.266,3.23,2.271,5.445c0.011,3.791-2.367,6.31-5.389,7.34l0.001,0.128c2.216,0.761,3.541,2.801,4.231,5.781
			c0.948,4,1.636,6.767,2.235,7.873l-3.833,0.01c-0.471-0.808-1.116-3.276-1.935-6.852c-0.862-3.958-2.4-5.445-5.765-5.563
			l-3.492,0.009l0.033,12.436l-3.705,0.01L119.104,21.552z M122.844,34.617l3.791-0.01c3.96-0.011,6.467-2.189,6.458-5.469
			c-0.01-3.705-2.696-5.316-6.614-5.348c-1.789,0.005-3.066,0.179-3.662,0.351L122.844,34.617z"/>
		<path fill="#F3282E" d="M154.755,24.225l-8.73,0.023l-0.009-3.151l21.251-0.057l0.009,3.151l-8.772,0.023l0.068,25.552
			l-3.748,0.01L154.755,24.225z"/>
		<path fill="#F3282E" d="M185.364,36.238l-11.158,0.03l0.028,10.349l12.436-0.033l0.008,3.109l-16.141,0.043l-0.077-28.704
			l15.502-0.042l0.009,3.109l-11.797,0.032l0.024,9.071l11.158-0.03L185.364,36.238z"/>
		<path fill="#F3282E" d="M191.411,20.975l3.705-0.01l0.069,25.595l12.266-0.033l0.008,3.109l-15.971,0.042L191.411,20.975z"/>
		<path fill="#F3282E" d="M211.51,20.921l3.705-0.01l0.069,25.595l12.266-0.033l0.008,3.109l-15.971,0.043L211.51,20.921z"/>
		<path fill="#F3282E" d="M246.514,36.074l-11.158,0.03l0.028,10.349l12.436-0.033l0.008,3.109l-16.141,0.043l-0.077-28.704
			l15.502-0.042l0.009,3.109l-11.797,0.031l0.024,9.071l11.158-0.03L246.514,36.074z"/>
		<path fill="#F3282E" d="M252.563,21.195c1.872-0.389,4.556-0.609,7.11-0.616c3.961-0.011,6.518,0.707,8.311,2.32
			c1.452,1.274,2.266,3.231,2.271,5.445c0.011,3.791-2.367,6.31-5.389,7.339l0.001,0.128c2.217,0.761,3.541,2.801,4.231,5.781
			c0.948,4,1.636,6.767,2.235,7.873l-3.833,0.01c-0.471-0.808-1.116-3.276-1.935-6.851c-0.862-3.959-2.4-5.445-5.765-5.564
			l-3.492,0.009l0.033,12.436l-3.705,0.01L252.563,21.195z M256.302,34.259l3.791-0.01c3.96-0.011,6.467-2.189,6.458-5.469
			c-0.01-3.705-2.696-5.316-6.614-5.349c-1.789,0.005-3.066,0.179-3.662,0.351L256.302,34.259z"/>
	</g>
</g>
</svg>
