<?xml version="1.0" encoding="utf-8"?>
<!-- Generator: Adobe Illustrator 16.0.3, SVG Export Plug-In . SVG Version: 6.00 Build 0)  -->
<!DOCTYPE svg PUBLIC "-//W3C//DTD SVG 1.1//EN" "http://www.w3.org/Graphics/SVG/1.1/DTD/svg11.dtd">
<svg version="1.1" id="Ebene_1" xmlns="http://www.w3.org/2000/svg" xmlns:xlink="http://www.w3.org/1999/xlink" x="0px" y="0px"
	 width="282.6px" height="68.631px" viewBox="0 0 282.6 68.631" enable-background="new 0 0 282.6 68.631" xml:space="preserve">
<g>
	<polygon fill="#FFFFF0" points="0.666,0.623 281.632,0 282.6,68.631 0,70.398 	"/>
	<g>
		<path fill="#F3282E" d="M24.899,50.168l-1.789,0.004l-0.085-0.084l-1.661,0.004l-0.076-28.534l-0.341-0.254l0.382-0.256
			l3.194-0.009l0.17-0.171l2.215-0.006l5.535,15.572l-0.042-15.502l3.065-0.392l0.81-0.002l0.045,0.511c0,0.042,0,0.085-0.043,0.127
			l0.341-0.001l0.043,16.141l0.085,0.085l-0.084,0.085l0.085,0.042l-0.085,0.086l0.085,0.127l0.033,12.18l-2.044,0.006l-0.512-0.084
			l-0.255,0.086l-1.746,0.004l-7.381-20.592L24.899,50.168z"/>
		<path fill="#F3282E" d="M54.699,46.425l0.01,3.62L41.848,50.08l0.587-19.379l0.213-0.128L42.62,20.522l12.01-0.032l0.011,3.961
			l-7.921,0.021l-0.357,9.967l0.214,0.084l7.41-0.02l0.008,3.194l-7.708,0.021l-0.163,2.556l0.086,0.255l-0.084,0.511l0.016,5.536
			L54.699,46.425z"/>
		<path fill="#F3282E" d="M60.293,20.943l4.046-0.011l0.06,22.06c0.003,1.277,1.284,2.168,2.051,2.167l4.727-0.013
			c0.682-0.002,1.147-0.983,1.273-1.962l-0.06-22.23l4.301-0.012l0.068,25.68c0.004,1.448-2.078,3.199-3.44,3.374l-9.455,0.025
			c-1.831,0.005-3.496-1.524-3.504-4.377l-0.019-6.856L60.293,20.943z"/>
		<path fill="#F3282E" d="M94.686,46.318l0.01,3.62l-12.861,0.034l0.587-19.379l0.213-0.128l-0.027-10.051l12.01-0.032l0.011,3.961
			l-7.921,0.021l-0.357,9.966l0.214,0.084l7.41-0.02l0.008,3.194l-7.708,0.021l-0.163,2.556l0.086,0.255l-0.084,0.512l0.016,5.536
			L94.686,46.318z"/>
		<path fill="#F3282E" d="M104.574,49.912l-4.174,0.011l-0.078-29.257l12.223-0.033c3.322-0.009,4.223,2.586,4.229,4.631
			l0.021,7.921c0.005,1.704-1.565,3.454-2.886,3.458l-1.831,0.005l5.4,13.23l-4.939,0.013l-4.848-13.232l-3.236,0.009
			L104.574,49.912z M112.514,24.977l-8.134,0.022l0.021,7.538l0.426-0.001l0.213,0.255l7.495-0.021L112.514,24.977z"/>
		<path fill="#F3282E" d="M143.836,49.807l-0.067-25.254l-8.305,0.022l-0.009-3.109l-0.17-0.042l-0.001-0.468l16.523-0.044
			l0.169-0.512l2.173-0.006l1.063-0.088l0.13,0.766l0.131,1.448l0.006,2.044l-7.111,0.019l0.067,24.999l-0.128,0.213l-1.405,0.004
			l-0.171-0.084l-0.17,0.085L143.836,49.807z"/>
		<path fill="#F3282E" d="M173.466,46.107l0.01,3.62l-12.861,0.035l0.587-19.379l0.213-0.128l-0.027-10.051l12.01-0.032l0.011,3.961
			l-7.921,0.021l-0.357,9.966l0.214,0.084l7.41-0.02l0.008,3.194l-7.708,0.021l-0.164,2.556l0.087,0.255l-0.085,0.511l0.016,5.536
			L173.466,46.107z"/>
		<path fill="#F3282E" d="M182.875,45.656l9.838-0.026l-0.202,4.046l-13.926,0.037l-0.08-29.854l4.258-0.011l0.065,24.274
			L182.875,45.656z"/>
		<path fill="#F3282E" d="M202.123,45.604l9.838-0.026l-0.202,4.046l-13.926,0.037l-0.08-29.854l4.258-0.011l0.065,24.274
			L202.123,45.604z"/>
		<path fill="#F3282E" d="M229.89,45.956l0.01,3.62l-12.861,0.035l0.587-19.379l0.213-0.128l-0.027-10.051l12.01-0.032l0.011,3.961
			l-7.921,0.021l-0.357,9.966l0.214,0.084l7.41-0.02l0.008,3.194l-7.708,0.021l-0.164,2.555l0.087,0.255l-0.085,0.511l0.016,5.536
			L229.89,45.956z"/>
		<path fill="#F3282E" d="M239.778,49.549l-4.174,0.011l-0.078-29.257l12.223-0.033c3.322-0.009,4.223,2.586,4.229,4.631
			l0.021,7.921c0.005,1.704-1.565,3.454-2.886,3.458l-1.831,0.005l5.4,13.23l-4.939,0.014l-4.848-13.232l-3.236,0.009
			L239.778,49.549z M247.718,24.614l-8.134,0.022l0.021,7.538l0.426-0.001l0.213,0.254l7.495-0.02L247.718,24.614z"/>
	</g>
</g>
</svg>
