<?xml version="1.0" encoding="utf-8"?>
<!-- Generator: Adobe Illustrator 16.0.0, SVG Export Plug-In . SVG Version: 6.00 Build 0)  -->
<!DOCTYPE svg PUBLIC "-//W3C//DTD SVG 1.1//EN" "http://www.w3.org/Graphics/SVG/1.1/DTD/svg11.dtd">
<svg version="1.1" id="Layer_1" xmlns="http://www.w3.org/2000/svg" xmlns:xlink="http://www.w3.org/1999/xlink" x="0px" y="0px"
	 width="450px" height="450px" viewBox="0 0 450 450" enable-background="new 0 0 450 450" xml:space="preserve">
<g>
	<g>
		<path fill="#F95F5F" d="M122.409,234.943c10.933,0.064,27.832-3.389,39.355-3.531c19.2-0.76,32.009-0.395,43.441-7.864
			c8.907-4.821,12.676-10.628,13.883-16.4c2.438-9.976,3.553-23.601-2.973-33.467c-3.937-7.803-9.098-10.88-28.33-12.735
			c-20.51-1.842-44.665-9.659-65.165-10.453c-32.039-2.222-78.322,3.227-98.092,13.363c-6.311,3.234-14.494,17.084-18.263,22.889
			c-3.764,6.328-6.249,12.64-4.889,18.905c2.742,14.624,25.051,22.729,58.367,24.413c19.225,1.332,27.796,3.961,34.288,11.209
			c0,0,23.743,42.598,41.047,46.113c0,0-23.002-32.245-22.504-39.506C112.872,243.509,114.563,234.898,122.409,234.943z"/>
	</g>
	<g>
		<path d="M29.904,176.825h2.379v16.142h-2.102v-7.297h-2.933v7.297h-2.147v-15.864h2.286v6.696l2.495-0.115L29.904,176.825z"/>
		<path d="M46.278,189.157l-0.092,0.97c0,1.894-1.386,2.771-2.217,2.771H41.36l-0.046,0.092l-0.046-0.047l-0.092,0.047h-3.764
			c-0.947,0-1.778-1.57-1.778-2.264v-10.229c0-2.263,1.339-3.071,2.102-3.071h0.438l0.785-0.185l0.046,0.046l2.171-0.347h1.247
			c1.386,0,3.348,0.97,3.348,3.142h0.046v0.6L46.278,189.157z M43.461,179.781l-1.432-0.854l-0.185,0.139h-2.009l-0.092,0.046
			l-0.023-0.046l-0.046,0.046h-0.462v-0.046h-0.046l-1.039,0.854v1.709l0.046,0.023l-0.046,0.045l0.116,0.186v3.972l0.046,0.023
			l-0.046,0.069l0.046,0.092l-0.046,0.047l0.162,0.577v3.786l0.046,0.047v0.23l0.116,0.255l0.485,0.368h0.624l0.115-0.068h2.102
			l-0.185-0.254l0.624-0.093l0.046,0.3h0.716l0.485-0.623l0.254-0.484L43.461,179.781z"/>
		<path d="M57.688,178.164l-0.046,0.047h0.046v0.092l-0.046,0.07l-0.069,0.945h-5.658v3.812h4.711V185h-4.688l-0.139,0.047
			l-0.046,0.115l-0.046,0.023v7.805h-2.171v-15.426h7.944L57.688,178.164z"/>
		<path d="M68.981,178.164l-0.046,0.047h0.046v0.092l-0.046,0.07l-0.069,0.945h-5.658v3.812h4.711V185h-4.688l-0.139,0.047
			l-0.046,0.115L63,185.186v7.805h-2.17v-15.426h7.944L68.981,178.164z"/>
		<path d="M78.704,191.005v1.962H71.73l0.346-10.507l0.116-0.069v-5.45h6.512v2.147h-4.295l-0.208,5.404l0.115,0.046h4.018v1.731
			h-4.18l-0.092,1.387l0.046,0.139l-0.046,0.276v3.003L78.704,191.005z"/>
		<path d="M83.578,192.99h-0.97l-0.046-0.047h-0.901v-15.471l-0.185-0.139l0.208-0.139h1.732l0.092-0.093h1.201l2.979,8.451v-8.405
			l1.663-0.208h0.439l0.023,0.277c0,0.023,0,0.046-0.023,0.069h0.185v8.752l0.046,0.047l-0.046,0.045l0.046,0.023l-0.046,0.047
			l0.046,0.068v6.605h-1.108l-0.277-0.047l-0.139,0.047H87.55l-3.972-11.178V192.99z"/>
		<path d="M97.389,192.967v-13.693h-4.503v-1.686l-0.092-0.023v-0.254h8.96l0.092-0.277h1.178l0.577-0.047l0.069,0.416l0.069,0.785
			v1.109h-3.856v13.555l-0.069,0.115h-0.762l-0.093-0.045l-0.092,0.045H97.389z"/>
		<path d="M108.844,190.773h5.334l-0.116,2.193h-7.551v-16.188h2.309v13.162L108.844,190.773z"/>
		<path d="M117.112,177.357l2.471-0.278v8.591l-0.139,0.069v7.112l-1.501,0.115h-0.993L117.112,177.357z"/>
		<path d="M130.69,177.103v2.101l-4.109,0.277c-1.086,0-1.687,0.623-1.687,0.971v3.718l0.115,0.093v4.896
			c0,1.039,0.74,1.431,1.202,1.431h4.572v2.379h-5.681c-0.739,0-2.541-0.877-2.541-2.24v-3.163l-0.092-0.093l0.046-0.046
			l-0.046-0.069l0.046-0.023l-0.046-0.139v-5.911l-0.115-0.069h0.045l-0.045-0.093v-1.454c0-1.04,1.639-2.193,2.194-2.193
			l2.032-0.255h1.292l0.092-0.115H130.69z"/>
		<path d="M138.75,176.825h2.378v16.142h-2.101v-7.297h-2.934v7.297h-2.147v-15.864h2.286v6.696l2.494-0.115L138.75,176.825z"/>
		<path d="M153.508,179.527v11.478h3.949v-4.065l-0.069-0.854l-0.532-0.578h-1.709v-1.916l0.046-0.23h3.048
			c0.415,0,1.362,0.346,1.362,1.292v5.935c0,1.41-1.316,2.148-1.662,2.334c-0.023,0.021-0.047,0.045-0.07,0.045h-4.665
			c-0.623,0-1.709-0.623-1.709-1.386v-3.925l-0.045-0.093l0.092-0.046v-8.452c0-0.808,0.924-1.848,2.332-1.848h4.157
			c0.485,0,1.432,0.3,1.432,1.87v1.709h-1.985l-0.047-1.293L153.508,179.527z"/>
		<path d="M169.328,191.005v1.962h-6.975l0.347-10.507l0.115-0.069v-5.45h6.513v2.147h-4.296l-0.208,5.404l0.116,0.046h4.018v1.731
			h-4.179l-0.093,1.387l0.046,0.139l-0.046,0.276v3.003L169.328,191.005z"/>
		<path d="M177.295,176.825h2.378v16.142h-2.101v-7.297h-2.934v7.297h-2.147v-15.864h2.286v6.696l2.494-0.115L177.295,176.825z"/>
		<path d="M187.618,192.967v-13.693h-4.502v-1.686l-0.092-0.023v-0.254h8.96l0.092-0.277h1.178l0.578-0.047l0.069,0.416l0.07,0.785
			v1.109h-3.857v13.555l-0.069,0.115h-0.762l-0.092-0.045l-0.093,0.045H187.618z"/>
		<path d="M199.605,177.148c-0.532,1.939-1.524,4.411-2.17,5.473l-1.294,0.162c0.509-1.362,1.108-3.764,1.363-5.426L199.605,177.148
			z"/>
		<path d="M208.312,185.739c0-0.577-0.693-0.716-1.247-0.762h-3.118c-1.778,0-2.285-1.155-2.285-1.663v-3.326
			c0-2.124,2.494-3.117,2.494-3.117h5.842v2.172h-4.941c-0.439,0-0.994,0.392-0.994,1.431v2.425h4.065
			c1.27,0,2.263,0.97,2.263,1.894v6.166c0,0.692-0.485,2.009-2.102,2.009h-6.535v-2.147h5.45c0.231,0,1.155-0.3,1.155-0.854
			L208.312,185.739z"/>
		<path d="M38.704,220.681l-0.046-0.785l0.046-0.046l-0.046-0.139l0.046-0.092v-8.66l-0.046-0.207l0.046-0.07v-3.787l-0.046-0.115
			l0.046-0.023v-1.408h4.411l0.093,0.046h1.27c1.247,0,2.563,2.101,2.563,3.002v9.931c0,0.854-1.385,2.354-2.402,2.354H38.704z
			 M41.198,207.934l-0.069,0.047h-0.323v1.5l0.092,0.093h-0.046v0.394l0.046,0.045l-0.046,0.023l0.116,0.115v5.773l0.046,0.092
			v2.125l0.116,0.139h2.31l0.046-0.046h0.531l0.854-0.323h0.116v-4.572h-0.046l0.046-0.047l-0.162-0.23v-4.203l-0.139-0.531
			l-0.808-0.393H41.198z"/>
		<path d="M49.974,205.07l2.471-0.277v8.59l-0.139,0.07v7.112l-1.501,0.115h-0.993L49.974,205.07z"/>
		<path d="M62.167,218.719v1.962h-6.974l0.346-10.507l0.116-0.07v-5.449h6.512v2.147h-4.295l-0.208,5.404l0.115,0.046h4.018v1.732
			h-4.18l-0.092,1.385l0.046,0.139l-0.046,0.277v3.002L62.167,218.719z"/>
		<path d="M71.729,213.453c0-0.578-0.693-0.717-1.247-0.762h-3.117c-1.778,0-2.286-1.154-2.286-1.664v-3.324
			c0-2.125,2.494-3.117,2.494-3.117h5.843v2.17h-4.942c-0.439,0-0.993,0.393-0.993,1.432v2.426h4.064
			c1.27,0,2.263,0.969,2.263,1.893v6.166c0,0.693-0.485,2.009-2.101,2.009H65.17v-2.147h5.45c0.231,0,1.154-0.3,1.154-0.854
			L71.729,213.453z"/>
		<path d="M89.489,220.427h-0.762l-0.277-0.046l-0.323,0.046h-0.877v-6.767l-0.046-0.23v-4.502l-2.54,3.116l-0.023,0.093
			l-1.825,2.125l-3.44-5.381v11.869l-0.069-0.046l-0.093,0.046l-0.461-0.139l-0.069,0.093l-1.478-0.093l-0.139-0.046v-2.771
			l0.046-0.047l-0.046-0.068v-10.23l-0.138-0.301v-2.379h0.231l0.346-0.115h1.963l3.417,5.565l2.309-3.349h0.069l1.778-2.54h2.448
			V220.427z"/>
		<path d="M99.004,204.701l2.586,0.322v0.209l0.047,0.069l1.686,14.802l0.046,0.093l-0.3,0.484h-0.323l-0.046,0.047l-0.046-0.047
			l-0.231,0.047h-1.501l-0.877-7.183h-1.432l-0.139-0.092h-2.286l-0.092,0.092l-1.732,6.975l0.093,0.046h-2.194l-0.139,0.115h-0.624
			l4.318-15.819h2.563l0.069-0.184L99.004,204.701z M98.889,207.61l-0.046,0.046h-1.316l-0.069-0.046l-0.9,3.648v0.415h3.256
			l-0.416-2.678l-0.069-1.039l-0.046-0.023l0.046-0.046l-0.092-0.115v-0.162H98.889z"/>
		<path d="M107.596,218.488h5.334l-0.115,2.192h-7.551v-16.188h2.309v13.163L107.596,218.488z"/>
		<path d="M124.732,207.24v11.479h3.949v-4.065l-0.069-0.854l-0.532-0.576h-1.708v-1.917l0.046-0.231h3.048
			c0.416,0,1.363,0.347,1.363,1.293v5.936c0,1.408-1.316,2.146-1.663,2.332c-0.023,0.023-0.046,0.046-0.07,0.046h-4.665
			c-0.623,0-1.709-0.623-1.709-1.386v-3.926l-0.045-0.092l0.092-0.047v-8.451c0-0.809,0.924-1.848,2.332-1.848h4.157
			c0.485,0,1.432,0.301,1.432,1.87v1.709h-1.986l-0.046-1.292L124.732,207.24z"/>
		<path d="M133.9,204.908h2.194v11.963c0,0.693,0.693,1.177,1.108,1.177h2.564c0.369,0,0.623-0.53,0.692-1.062v-12.055h2.333v13.925
			c0,0.785-1.131,1.731-1.871,1.824h-5.126c-0.994,0-1.894-0.831-1.894-2.378v-3.719V204.908z"/>
		<path d="M150.159,220.681v-13.693h-4.503v-1.686l-0.092-0.023v-0.255h8.96l0.092-0.277h1.178l0.577-0.045l0.069,0.415l0.07,0.785
			v1.108h-3.857v13.556l-0.069,0.115h-0.762l-0.092-0.046l-0.093,0.046H150.159z"/>
		<path d="M161.984,204.631v5.959l0.116,0.139v3.21l0.092,0.092l-0.045,0.14v1.869l-0.046-0.047v0.047l-0.092-0.047h-2.679
			l-0.046-0.092v-7.713l0.092-0.139v-3.418H161.984z M159.859,217.91h2.355v0.715l-0.023-0.021l0.07,0.53v1.454l-0.046,0.093h-2.933
			v-2.817L159.859,217.91z"/>
	</g>
</g>
<g>
	<path fill="#43B1D8" d="M239.386,35.18c-1.356-10.063-1.356-18.686-11.528-23.718c-6.103-3.592-22.558-9.201-29.313-9.656
		c-30.76-2.065-54.697,0.24-85.212,2.396c-29.158,2.157-51.2,3.126-80.789,7.063c-6.745,0.896-22.354,8.822-27.78,14.571
		c-5.424,5.75-3.39,15.811-3.39,23.717c0,0,1.888,13.524,4.745,17.968c11.34,17.625,21.702,23.715,41.366,24.434
		c36.695,1.318,70.073,1.702,106.767,1.512c8.967,0.907,10.896,6.854,10.051,15.541c0.482,7.095-10.568,19.789-8.326,26.261
		c2.072,5.982,18.636-35.319,24.647-41.968c1.777-1.965,3.791-2.535,5.094-2.922c9.557-2.834,16.502-2.489,25.866-2.017
		c10.171,0,16.951,2.155,24.41-7.187C243.453,69.676,240.74,48.834,239.386,35.18z"/>
</g>
<g>
	<path d="M48.438,39.149h5.583L53.9,41.445h-7.903V24.502h2.417v13.777L48.438,39.149z"/>
	<path d="M64.199,39.391v2.055h-7.3l0.363-10.997l0.121-0.073v-5.703h6.816v2.247h-4.496l-0.217,5.656l0.121,0.048h4.206v1.813
		h-4.375l-0.097,1.451l0.048,0.145l-0.048,0.29v3.142L64.199,39.391z"/>
	<path d="M69.252,27.379v12.012h4.133v-4.254l-0.072-0.895l-0.556-0.604h-1.789v-2.006l0.048-0.242h3.19
		c0.435,0,1.426,0.362,1.426,1.354v6.212c0,1.474-1.378,2.247-1.74,2.44c-0.024,0.024-0.049,0.049-0.073,0.049h-4.882
		c-0.652,0-1.789-0.652-1.789-1.45v-4.108l-0.048-0.098l0.097-0.048v-8.847c0-0.846,0.967-1.934,2.441-1.934h4.351
		c0.507,0,1.498,0.314,1.498,1.958v1.789h-2.078l-0.049-1.354L69.252,27.379z"/>
	<path d="M88.276,39.149h5.583l-0.121,2.296h-7.903V24.502h2.417v13.777L88.276,39.149z"/>
	<path d="M107.904,37.457l-0.097,1.016c0,1.981-1.45,2.9-2.32,2.9h-2.731l-0.048,0.097l-0.048-0.049l-0.097,0.049h-3.939
		c-0.991,0-1.861-1.644-1.861-2.369V28.394c0-2.368,1.402-3.215,2.199-3.215h0.459l0.822-0.193l0.048,0.049l2.272-0.362h1.305
		c1.45,0,3.504,1.015,3.504,3.287h0.049v0.628L107.904,37.457z M104.955,27.645l-1.498-0.895l-0.193,0.145h-2.103l-0.097,0.049
		l-0.024-0.049l-0.049,0.049h-0.483v-0.049h-0.048l-1.088,0.895v1.789l0.048,0.023l-0.048,0.049l0.121,0.193v4.157l0.048,0.024
		l-0.048,0.072l0.048,0.097l-0.048,0.048l0.169,0.604v3.964l0.048,0.049v0.241l0.121,0.267l0.508,0.387h0.652l0.121-0.073h2.199
		l-0.193-0.266l0.653-0.097l0.048,0.314h0.749l0.508-0.652l0.266-0.508L104.955,27.645z"/>
	<path d="M118.034,33.88c0-0.604-0.725-0.749-1.305-0.798h-3.263c-1.861,0-2.393-1.208-2.393-1.74v-3.48
		c0-2.223,2.61-3.263,2.61-3.263h6.115v2.272h-5.172c-0.459,0-1.04,0.41-1.04,1.498v2.538h4.254c1.33,0,2.369,1.015,2.369,1.981
		v6.454c0,0.725-0.508,2.103-2.199,2.103h-6.84v-2.248h5.704c0.242,0,1.208-0.314,1.208-0.895L118.034,33.88z"/>
	<path d="M126.302,24.647v6.235l0.121,0.146v3.359l0.097,0.097l-0.048,0.145v1.958l-0.048-0.048v0.048l-0.097-0.048h-2.804
		l-0.048-0.097v-8.073l0.097-0.145v-3.577H126.302z M124.078,38.545h2.466v0.749l-0.024-0.024l0.072,0.557v1.522l-0.048,0.097h-3.07
		v-2.949L124.078,38.545z"/>
	<path d="M143.899,33.88c0-0.604-0.725-0.749-1.305-0.798h-3.263c-1.861,0-2.393-1.208-2.393-1.74v-3.48
		c0-2.223,2.61-3.263,2.61-3.263h6.115v2.272h-5.173c-0.459,0-1.039,0.41-1.039,1.498v2.538h4.254c1.329,0,2.368,1.015,2.368,1.981
		v6.454c0,0.725-0.507,2.103-2.199,2.103h-6.84v-2.248h5.704c0.242,0,1.208-0.314,1.208-0.895L143.899,33.88z"/>
	<path d="M149.509,25.106l2.587-0.29v8.991l-0.146,0.072v7.444l-1.571,0.121h-1.039L149.509,25.106z"/>
	<path d="M162.272,39.391v2.055h-7.3l0.363-10.997l0.12-0.073v-5.703h6.816v2.247h-4.496l-0.218,5.656l0.121,0.048h4.206v1.813
		h-4.375l-0.097,1.451l0.049,0.145l-0.049,0.29v3.142L162.272,39.391z"/>
	<path d="M170.612,24.551h2.489v16.895h-2.199v-7.638h-3.07v7.638h-2.247V24.841h2.393v7.009l2.61-0.121L170.612,24.551z"/>
	<path d="M183.907,24.768h9.04l-5.148,14.454h5.342v0.773l0.072,0.048v1.499h-8.049v-2.103l-0.145-0.072l4.954-12.666h-5.462
		l-0.072-0.096h-0.484l-0.048-0.798V24.768z"/>
	<path d="M196.43,24.938h2.296v12.52c0,0.726,0.726,1.232,1.16,1.232h2.683c0.387,0,0.652-0.556,0.726-1.111V24.961h2.44v14.575
		c0,0.821-1.184,1.813-1.957,1.909h-5.366c-1.039,0-1.981-0.87-1.981-2.489v-3.892V24.938z"/>
	<path d="M208.999,38.23h1.547l0.097,0.049l0.097-0.049l0.049,0.049h1.401v1.377l-0.556,1.427l-0.218,0.313l-0.773,0.798
		l-0.749,0.604l-0.677,0.097h-0.483l-0.097-0.241l0.049-0.291l0.193-0.362l0.217-0.652l-0.048-0.097l0.097-0.556l-0.146-0.411h0.049
		v-0.242l-0.049-0.048V38.23z"/>
	<path d="M14.965,70.454l-0.048-0.821l0.048-0.049l-0.048-0.145l0.048-0.098v-9.063l-0.048-0.218l0.048-0.072v-3.964l-0.048-0.12
		l0.048-0.024v-1.475h4.616l0.097,0.048h1.33c1.305,0,2.683,2.2,2.683,3.143v10.393c0,0.895-1.45,2.466-2.514,2.466H14.965z
		 M17.575,57.112l-0.072,0.048h-0.339v1.571l0.097,0.097h-0.048v0.411l0.048,0.048l-0.048,0.024l0.121,0.121v6.042l0.048,0.098
		v2.223l0.121,0.146h2.417l0.048-0.048h0.556l0.894-0.339h0.121v-4.786h-0.048l0.048-0.048l-0.169-0.241v-4.399l-0.146-0.556
		l-0.846-0.411H17.575z"/>
	<path d="M33.48,53.729l2.707,0.338v0.218l0.049,0.073L38,69.85l0.048,0.097l-0.314,0.508h-0.338l-0.049,0.048L37.3,70.454
		l-0.242,0.048h-1.571l-0.918-7.517H33.07l-0.145-0.097h-2.393l-0.097,0.097l-1.813,7.3l0.097,0.048h-2.296l-0.145,0.121h-0.653
		l4.52-16.557h2.683l0.072-0.193L33.48,53.729z M33.36,56.773l-0.048,0.049h-1.378l-0.072-0.049l-0.942,3.819v0.435h3.408
		l-0.435-2.803l-0.072-1.088l-0.049-0.024l0.049-0.048l-0.097-0.121v-0.17H33.36z"/>
	<path d="M47.139,62.889c0-0.604-0.725-0.749-1.305-0.797h-3.263c-1.861,0-2.393-1.209-2.393-1.74v-3.48
		c0-2.225,2.61-3.264,2.61-3.264h6.115v2.272h-5.172c-0.459,0-1.04,0.411-1.04,1.498v2.538h4.254c1.33,0,2.369,1.016,2.369,1.982
		v6.453c0,0.725-0.508,2.103-2.199,2.103h-6.84v-2.248h5.704c0.242,0,1.208-0.313,1.208-0.894L47.139,62.889z"/>
	<path d="M59.686,62.889c0-0.604-0.725-0.749-1.305-0.797h-3.263c-1.861,0-2.393-1.209-2.393-1.74v-3.48
		c0-2.225,2.61-3.264,2.61-3.264h6.115v2.272h-5.173c-0.459,0-1.039,0.411-1.039,1.498v2.538h4.254c1.329,0,2.369,1.016,2.369,1.982
		v6.453c0,0.725-0.507,2.103-2.2,2.103h-6.84v-2.248h5.704c0.242,0,1.208-0.313,1.208-0.894L59.686,62.889z"/>
	<path d="M72.475,70.454l-0.048-0.821l0.048-0.049l-0.048-0.145l0.048-0.098v-9.063l-0.048-0.218l0.048-0.072v-3.964l-0.048-0.12
		l0.048-0.024v-1.475h4.616l0.097,0.048h1.33c1.305,0,2.683,2.2,2.683,3.143v10.393c0,0.895-1.45,2.466-2.514,2.466H72.475z
		 M75.085,57.112l-0.072,0.048h-0.339v1.571l0.097,0.097h-0.048v0.411l0.048,0.048l-0.048,0.024l0.121,0.121v6.042l0.048,0.098
		v2.223l0.121,0.146h2.417l0.048-0.048h0.556l0.894-0.339h0.121v-4.786H79l0.048-0.048l-0.169-0.241v-4.399l-0.146-0.556
		l-0.846-0.411H75.085z"/>
	<path d="M84.416,53.946h2.296v12.52c0,0.726,0.725,1.233,1.16,1.233h2.683c0.387,0,0.652-0.557,0.725-1.112V53.971h2.441v14.574
		c0,0.821-1.185,1.813-1.958,1.909h-5.365c-1.04,0-1.982-0.87-1.982-2.489v-3.892V53.946z"/>
	<path d="M111.03,62.889c0-0.604-0.725-0.749-1.305-0.797h-3.263c-1.861,0-2.393-1.209-2.393-1.74v-3.48
		c0-2.225,2.61-3.264,2.61-3.264h6.115v2.272h-5.173c-0.459,0-1.039,0.411-1.039,1.498v2.538h4.254c1.329,0,2.369,1.016,2.369,1.982
		v6.453c0,0.725-0.507,2.103-2.2,2.103h-6.84v-2.248h5.704c0.242,0,1.208-0.313,1.208-0.894L111.03,62.889z"/>
	<path d="M123.359,53.729l2.707,0.338v0.218l0.048,0.073l1.765,15.492l0.048,0.097l-0.314,0.508h-0.339l-0.048,0.048l-0.049-0.048
		l-0.241,0.048h-1.571l-0.918-7.517h-1.499l-0.145-0.097h-2.393l-0.097,0.097l-1.813,7.3l0.097,0.048h-2.296l-0.146,0.121h-0.652
		l4.52-16.557h2.683l0.073-0.193L123.359,53.729z M123.238,56.773l-0.048,0.049h-1.377l-0.073-0.049l-0.943,3.819v0.435h3.408
		l-0.435-2.803l-0.073-1.088l-0.048-0.024l0.048-0.048l-0.097-0.121v-0.17H123.238z"/>
	<path d="M134.722,70.454V56.121h-4.713v-1.764l-0.097-0.024v-0.267h9.378l0.097-0.289h1.233l0.604-0.049l0.073,0.436l0.072,0.821
		v1.16h-4.036v14.188l-0.073,0.121h-0.797l-0.097-0.048l-0.097,0.048H134.722z"/>
	<path d="M149.081,70.454V56.121h-4.713v-1.764l-0.097-0.024v-0.267h9.377l0.098-0.289h1.232l0.604-0.049l0.073,0.436l0.072,0.821
		v1.16h-4.036v14.188l-0.072,0.121h-0.798l-0.097-0.048l-0.097,0.048H149.081z"/>
	<path d="M182.68,53.607c-0.049,0.121-0.072,0.314-0.072,0.339l0.023,0.024l-3.795,16.483h-2.15l-2.514-7.759l-0.049-0.048
		l-3.359,7.759l0.024,0.048h-2.32l-2.997-16.532h2.61l2.006,12.182l2.9-7.033h2.635l2.078,6.429l2.61-11.892H182.68z"/>
	<path d="M185.752,54.115l2.586-0.29v8.991l-0.145,0.072v7.444l-1.571,0.121h-1.039L185.752,54.115z"/>
	<path d="M193.946,70.454h-2.368V53.85h6.937c1.885,0,2.393,1.475,2.393,2.635v4.495c0,0.967-0.895,1.958-1.644,1.958h-1.039
		l3.045,7.517h-2.804l-2.731-7.517h-1.836L193.946,70.454z M198.49,56.314h-4.616v4.278h0.241l0.121,0.146h4.254V56.314z"/>
	<path d="M211.23,62.889c0-0.604-0.726-0.749-1.306-0.797h-3.263c-1.861,0-2.393-1.209-2.393-1.74v-3.48
		c0-2.225,2.609-3.264,2.609-3.264h6.115v2.272h-5.172c-0.459,0-1.039,0.411-1.039,1.498v2.538h4.254
		c1.329,0,2.368,1.016,2.368,1.982v6.453c0,0.725-0.508,2.103-2.199,2.103h-6.841v-2.248h5.705c0.241,0,1.208-0.313,1.208-0.894
		L211.23,62.889z"/>
	<path d="M221.479,70.454V56.121h-4.713v-1.764l-0.097-0.024v-0.267h9.378l0.097-0.289h1.232l0.604-0.049l0.072,0.436l0.073,0.821
		v1.16h-4.037v14.188l-0.072,0.121h-0.798l-0.097-0.048l-0.097,0.048H221.479z"/>
	<path d="M233.857,53.656v6.235l0.121,0.146v3.359l0.096,0.097l-0.048,0.146v1.957l-0.048-0.048v0.048l-0.098-0.048h-2.803
		l-0.049-0.097v-8.073l0.097-0.145v-3.577H233.857z M231.634,67.554h2.465v0.749l-0.024-0.023l0.073,0.556v1.522l-0.049,0.097
		h-3.069v-2.948L231.634,67.554z"/>
</g>
</svg>
