<?xml version="1.0" encoding="utf-8"?>
<!-- Generator: Adobe Illustrator 16.0.3, SVG Export Plug-In . SVG Version: 6.00 Build 0)  -->
<!DOCTYPE svg PUBLIC "-//W3C//DTD SVG 1.1//EN" "http://www.w3.org/Graphics/SVG/1.1/DTD/svg11.dtd">
<svg version="1.1" id="Layer_1" xmlns="http://www.w3.org/2000/svg" xmlns:xlink="http://www.w3.org/1999/xlink" x="0px" y="0px"
	 width="450px" height="1000px" viewBox="0 0 450 1000" enable-background="new 0 0 450 1000" xml:space="preserve">
<g>
	<g>
		<path fill="#F95F5F" d="M142.411,696.942c10.933,0.063,27.832-3.39,39.355-3.53c19.199-0.761,32.009-0.396,43.44-7.864
			c8.907-4.821,12.676-10.628,13.883-16.4c2.438-9.976,3.554-23.601-2.973-33.467c-3.937-7.803-9.099-10.88-28.33-12.734
			c-20.51-1.842-44.665-9.658-65.165-10.452c-32.039-2.224-78.322,3.227-98.092,13.362c-6.312,3.233-14.494,17.084-18.263,22.89
			c-3.765,6.327-6.249,12.64-4.89,18.904c2.742,14.624,25.051,22.729,58.367,24.413c19.225,1.331,27.796,3.961,34.288,11.209
			c0,0,23.743,42.599,41.047,46.112c0,0-23.002-32.245-22.504-39.506C132.874,705.508,134.566,696.897,142.411,696.942z"/>
	</g>
	<g>
		<path d="M49.906,638.824h2.379v16.142h-2.102v-7.297H47.25v7.297h-2.146v-15.864h2.286v6.696l2.494-0.115L49.906,638.824z"/>
		<path d="M66.28,651.156l-0.092,0.971c0,1.894-1.387,2.771-2.217,2.771h-2.609l-0.046,0.092l-0.046-0.047l-0.093,0.047h-3.764
			c-0.947,0-1.778-1.569-1.778-2.265v-10.229c0-2.264,1.34-3.071,2.103-3.071h0.438l0.785-0.186l0.046,0.047l2.171-0.348h1.247
			c1.387,0,3.349,0.971,3.349,3.143h0.046v0.6L66.28,651.156z M63.463,641.78l-1.432-0.854l-0.185,0.14h-2.01l-0.092,0.046
			l-0.022-0.046l-0.047,0.046h-0.462v-0.046h-0.046l-1.039,0.854v1.709l0.046,0.022l-0.046,0.045l0.116,0.187v3.972l0.046,0.023
			l-0.046,0.068l0.046,0.093l-0.046,0.047l0.162,0.577v3.785l0.046,0.048v0.229l0.116,0.255l0.484,0.368h0.624l0.115-0.067h2.103
			l-0.186-0.255l0.624-0.093l0.046,0.3h0.717l0.484-0.623l0.254-0.482L63.463,641.78z"/>
		<path d="M77.691,640.163l-0.046,0.047h0.046v0.092l-0.046,0.07l-0.069,0.944h-5.658v3.813h4.711v1.87h-4.688l-0.14,0.047
			l-0.046,0.115l-0.046,0.021v7.806h-2.171v-15.427h7.944L77.691,640.163z"/>
		<path d="M88.984,640.163l-0.046,0.047h0.046v0.092l-0.046,0.07l-0.069,0.944H83.21v3.813h4.711v1.87h-4.688l-0.14,0.047
			l-0.046,0.115l-0.046,0.022v7.807h-2.17v-15.427h7.944L88.984,640.163z"/>
		<path d="M98.706,653.004v1.962h-6.974l0.346-10.507l0.116-0.069v-5.449h6.512v2.146h-4.295l-0.208,5.404l0.115,0.046h4.018v1.729
			h-4.18l-0.092,1.388l0.046,0.14l-0.046,0.275v3.004L98.706,653.004z"/>
		<path d="M103.58,654.989h-0.97l-0.046-0.047h-0.901v-15.472l-0.185-0.139l0.208-0.14h1.731l0.092-0.094h1.201l2.979,8.451v-8.405
			l1.663-0.208h0.438l0.023,0.277c0,0.022,0,0.046-0.023,0.069h0.186v8.752l0.046,0.047l-0.046,0.045l0.046,0.021l-0.046,0.048
			l0.046,0.067v6.605h-1.108l-0.276-0.047l-0.14,0.047h-0.947l-3.972-11.18L103.58,654.989L103.58,654.989z"/>
		<path d="M117.392,654.966v-13.692h-4.503v-1.687l-0.093-0.022v-0.255h8.96l0.093-0.275h1.178l0.577-0.048l0.068,0.416l0.069,0.784
			v1.109h-3.856v13.555l-0.068,0.115h-0.762l-0.094-0.045l-0.092,0.045H117.392L117.392,654.966z"/>
		<path d="M128.847,652.772h5.334l-0.116,2.192h-7.551v-16.188h2.309v13.161L128.847,652.772z"/>
		<path d="M137.114,639.356l2.471-0.277v8.591l-0.139,0.068v7.111l-1.501,0.115h-0.993L137.114,639.356z"/>
		<path d="M150.693,639.102v2.103l-4.109,0.275c-1.086,0-1.687,0.623-1.687,0.973v3.718l0.114,0.093v4.896
			c0,1.038,0.74,1.431,1.202,1.431h4.572v2.379h-5.681c-0.739,0-2.541-0.877-2.541-2.239v-3.163l-0.092-0.094l0.046-0.046
			l-0.046-0.068l0.046-0.022l-0.046-0.14v-5.91l-0.115-0.069h0.045l-0.045-0.093v-1.454c0-1.04,1.639-2.192,2.193-2.192l2.032-0.256
			h1.292l0.092-0.114h2.727L150.693,639.102L150.693,639.102z"/>
		<path d="M158.752,638.824h2.378v16.142h-2.101v-7.297h-2.935v7.297h-2.146v-15.864h2.286v6.696l2.494-0.115L158.752,638.824z"/>
		<path d="M173.51,641.526v11.479h3.949v-4.064l-0.068-0.854l-0.532-0.578h-1.709v-1.916l0.046-0.229h3.048
			c0.415,0,1.362,0.347,1.362,1.292v5.936c0,1.41-1.316,2.147-1.662,2.334c-0.023,0.021-0.047,0.045-0.07,0.045h-4.665
			c-0.623,0-1.709-0.623-1.709-1.386v-3.926l-0.045-0.094l0.092-0.046v-8.452c0-0.808,0.924-1.848,2.332-1.848h4.157
			c0.485,0,1.432,0.3,1.432,1.87v1.709h-1.984l-0.047-1.293L173.51,641.526z"/>
		<path d="M189.33,653.004v1.962h-6.975l0.347-10.507l0.115-0.069v-5.449h6.513v2.146h-4.296l-0.208,5.404l0.116,0.046h4.018v1.729
			h-4.179l-0.093,1.388l0.046,0.14l-0.046,0.275v3.004L189.33,653.004z"/>
		<path d="M197.297,638.824h2.378v16.142h-2.101v-7.297h-2.934v7.297h-2.147v-15.864h2.286v6.696l2.494-0.115L197.297,638.824z"/>
		<path d="M207.62,654.966v-13.692h-4.502v-1.687l-0.092-0.022v-0.255h8.96l0.092-0.275h1.178l0.578-0.048l0.069,0.416l0.07,0.784
			v1.109h-3.857v13.555l-0.069,0.115h-0.762l-0.092-0.045l-0.093,0.045H207.62L207.62,654.966z"/>
		<path d="M219.608,639.147c-0.532,1.938-1.524,4.41-2.17,5.474l-1.294,0.162c0.509-1.362,1.107-3.766,1.362-5.427L219.608,639.147z
			"/>
		<path d="M228.314,647.738c0-0.576-0.692-0.716-1.246-0.763h-3.118c-1.778,0-2.285-1.154-2.285-1.663v-3.325
			c0-2.124,2.494-3.116,2.494-3.116h5.842v2.172h-4.94c-0.438,0-0.994,0.392-0.994,1.431v2.426h4.064
			c1.271,0,2.264,0.971,2.264,1.895v6.166c0,0.691-0.484,2.009-2.103,2.009h-6.535v-2.146h5.45c0.23,0,1.154-0.3,1.154-0.854
			L228.314,647.738z"/>
		<path d="M58.706,682.68l-0.046-0.784l0.046-0.047l-0.046-0.139l0.046-0.092v-8.66l-0.046-0.207l0.046-0.07v-3.786l-0.046-0.115
			l0.046-0.022v-1.408h4.411l0.093,0.047h1.271c1.247,0,2.563,2.102,2.563,3.002v9.932c0,0.854-1.385,2.354-2.401,2.354
			L58.706,682.68L58.706,682.68z M61.2,669.933l-0.069,0.047h-0.322v1.5l0.092,0.095h-0.046v0.394l0.046,0.045l-0.046,0.023
			l0.115,0.114v5.772l0.047,0.092v2.125l0.115,0.14h2.311l0.046-0.046h0.531l0.854-0.322h0.116v-4.572h-0.046l0.046-0.047
			l-0.162-0.23v-4.203l-0.139-0.529l-0.809-0.395L61.2,669.933L61.2,669.933z"/>
		<path d="M69.977,667.069l2.471-0.276v8.59l-0.139,0.07v7.111l-1.501,0.114h-0.993L69.977,667.069z"/>
		<path d="M82.169,680.718v1.962h-6.974l0.346-10.507l0.116-0.07v-5.448h6.512v2.146h-4.295l-0.208,5.404l0.115,0.046h4.018v1.731
			h-4.18l-0.092,1.386l0.046,0.139l-0.046,0.277v3.002L82.169,680.718z"/>
		<path d="M91.732,675.452c0-0.578-0.693-0.718-1.247-0.763h-3.117c-1.778,0-2.286-1.153-2.286-1.664v-3.323
			c0-2.125,2.494-3.117,2.494-3.117h5.843v2.17h-4.941c-0.439,0-0.993,0.394-0.993,1.432v2.427h4.063
			c1.271,0,2.264,0.97,2.264,1.894v6.166c0,0.693-0.485,2.009-2.102,2.009h-6.537v-2.146h5.45c0.231,0,1.154-0.301,1.154-0.854
			L91.732,675.452z"/>
		<path d="M109.491,682.426h-0.761l-0.277-0.046l-0.323,0.046h-0.877v-6.767l-0.046-0.23v-4.502l-2.54,3.116l-0.022,0.093
			l-1.825,2.125l-3.44-5.381v11.869l-0.068-0.046l-0.094,0.046l-0.461-0.14l-0.068,0.094l-1.479-0.094l-0.139-0.046v-2.771
			l0.046-0.047l-0.046-0.068v-10.229l-0.138-0.302v-2.38h0.23l0.346-0.114h1.964l3.417,5.564l2.309-3.349h0.069l1.777-2.54h2.448
			L109.491,682.426L109.491,682.426z"/>
		<path d="M119.006,666.7l2.586,0.32v0.209l0.048,0.069l1.686,14.802l0.046,0.094l-0.3,0.483h-0.323l-0.046,0.047l-0.046-0.047
			l-0.231,0.047h-1.501l-0.877-7.183h-1.432l-0.139-0.092h-2.286l-0.092,0.092l-1.732,6.975l0.093,0.047h-2.193l-0.14,0.114h-0.624
			l4.318-15.818h2.563l0.069-0.185L119.006,666.7z M118.892,669.609l-0.047,0.046h-1.315l-0.069-0.046l-0.899,3.647v0.415h3.256
			l-0.416-2.678l-0.069-1.039l-0.046-0.023l0.046-0.046l-0.092-0.115v-0.161H118.892z"/>
		<path d="M127.599,680.487h5.334l-0.115,2.191h-7.551v-16.188h2.309v13.162L127.599,680.487z"/>
		<path d="M144.735,669.239v11.479h3.949v-4.064l-0.069-0.854l-0.532-0.576h-1.708v-1.917l0.046-0.229h3.048
			c0.416,0,1.363,0.347,1.363,1.293v5.936c0,1.408-1.315,2.146-1.663,2.332c-0.022,0.023-0.046,0.046-0.069,0.046h-4.665
			c-0.623,0-1.709-0.623-1.709-1.386v-3.926l-0.045-0.093l0.092-0.047v-8.451c0-0.81,0.924-1.849,2.332-1.849h4.156
			c0.485,0,1.433,0.302,1.433,1.87v1.709h-1.986l-0.046-1.292L144.735,669.239z"/>
		<path d="M153.903,666.907h2.194v11.963c0,0.691,0.692,1.177,1.107,1.177h2.564c0.368,0,0.623-0.53,0.691-1.063V666.93h2.333
			v13.925c0,0.785-1.131,1.731-1.871,1.824h-5.126c-0.994,0-1.894-0.831-1.894-2.378v-3.719v-9.675H153.903z"/>
		<path d="M170.161,682.68v-13.692h-4.503v-1.687l-0.092-0.022v-0.255h8.96l0.092-0.276h1.178l0.577-0.045l0.069,0.415l0.069,0.784
			v1.107h-3.856v13.557l-0.069,0.114h-0.762l-0.092-0.046l-0.093,0.046H170.161L170.161,682.68z"/>
		<path d="M181.987,666.63v5.959l0.116,0.139v3.211l0.092,0.092l-0.045,0.141v1.869l-0.046-0.047v0.047l-0.093-0.047h-2.679
			l-0.046-0.093v-7.714l0.092-0.139v-3.418H181.987L181.987,666.63z M179.862,679.909h2.354v0.715l-0.022-0.021l0.07,0.53v1.454
			l-0.047,0.093h-2.933v-2.816L179.862,679.909z"/>
	</g>
</g>
<g>
	<path fill="#43B1D8" d="M253.386,49.18c-1.356-10.063-1.356-18.686-11.528-23.718c-6.104-3.592-22.559-9.201-29.313-9.656
		c-30.76-2.064-54.696,0.24-85.212,2.396c-29.158,2.156-51.2,3.126-80.789,7.063c-6.745,0.896-22.354,8.822-27.779,14.571
		c-5.425,5.75-3.391,15.811-3.391,23.717c0,0,1.889,13.524,4.745,17.968c11.34,17.625,21.702,23.715,41.366,24.435
		c36.695,1.317,70.073,1.701,106.767,1.512c8.968,0.907,10.896,6.854,10.052,15.541c0.481,7.095-10.568,19.789-8.326,26.261
		c2.071,5.982,18.636-35.318,24.646-41.968c1.777-1.965,3.791-2.535,5.094-2.922c9.558-2.834,16.503-2.489,25.866-2.018
		c10.171,0,16.951,2.155,24.41-7.187C257.453,83.676,254.74,62.834,253.386,49.18z"/>
</g>
<g>
	<path d="M62.438,53.149h5.583L67.9,55.445h-7.903V38.502h2.417v13.776L62.438,53.149z"/>
	<path d="M78.199,53.391v2.055h-7.3l0.363-10.997l0.12-0.072v-5.703h6.816v2.247h-4.496l-0.217,5.656l0.121,0.048h4.206v1.813
		h-4.375l-0.098,1.451l0.049,0.146l-0.049,0.289v3.143L78.199,53.391z"/>
	<path d="M83.252,41.379v12.012h4.133v-4.254l-0.071-0.895l-0.557-0.604h-1.789v-2.006l0.049-0.242h3.189
		c0.436,0,1.426,0.362,1.426,1.354v6.212c0,1.474-1.378,2.247-1.739,2.439c-0.024,0.024-0.05,0.049-0.073,0.049h-4.882
		c-0.652,0-1.789-0.651-1.789-1.449v-4.108L81.1,49.789l0.097-0.049v-8.847c0-0.846,0.967-1.934,2.441-1.934h4.351
		c0.507,0,1.498,0.313,1.498,1.958v1.789h-2.078l-0.049-1.354L83.252,41.379z"/>
	<path d="M102.276,53.149h5.583l-0.121,2.296h-7.903V38.502h2.417v13.776L102.276,53.149z"/>
	<path d="M121.904,51.457l-0.097,1.016c0,1.981-1.45,2.9-2.32,2.9h-2.731l-0.048,0.097l-0.048-0.049l-0.097,0.049h-3.939
		c-0.991,0-1.86-1.644-1.86-2.369V42.394c0-2.368,1.401-3.215,2.198-3.215h0.459l0.822-0.193l0.048,0.05l2.272-0.362h1.305
		c1.45,0,3.504,1.015,3.504,3.287h0.049v0.628L121.904,51.457z M118.955,41.645l-1.498-0.895l-0.192,0.145h-2.104l-0.097,0.049
		l-0.024-0.049l-0.049,0.049h-0.483v-0.049h-0.048l-1.088,0.896v1.789l0.048,0.022l-0.048,0.049l0.121,0.193v4.157l0.048,0.023
		l-0.048,0.072l0.048,0.097l-0.048,0.049l0.169,0.604v3.964l0.048,0.049V53.1l0.121,0.268l0.508,0.387h0.652l0.121-0.073h2.199
		l-0.193-0.266l0.653-0.098l0.048,0.314h0.749l0.508-0.652l0.266-0.508L118.955,41.645z"/>
	<path d="M132.034,47.88c0-0.604-0.725-0.749-1.305-0.798h-3.264c-1.86,0-2.393-1.208-2.393-1.74v-3.48
		c0-2.223,2.61-3.263,2.61-3.263h6.114v2.272h-5.172c-0.459,0-1.04,0.409-1.04,1.498v2.537h4.254c1.33,0,2.369,1.016,2.369,1.981
		v6.454c0,0.725-0.508,2.103-2.199,2.103h-6.84v-2.248h5.704c0.242,0,1.208-0.313,1.208-0.895L132.034,47.88z"/>
	<path d="M140.302,38.647v6.235l0.12,0.146v3.359l0.098,0.097l-0.048,0.146v1.958l-0.049-0.048v0.048l-0.097-0.048h-2.804
		l-0.048-0.098V42.37l0.097-0.146v-3.577H140.302z M138.078,52.545h2.466v0.749l-0.023-0.024l0.071,0.558v1.521l-0.048,0.097h-3.069
		v-2.948L138.078,52.545z"/>
	<path d="M157.899,47.88c0-0.604-0.726-0.749-1.305-0.798h-3.264c-1.86,0-2.393-1.208-2.393-1.74v-3.48
		c0-2.223,2.609-3.263,2.609-3.263h6.115v2.272h-5.173c-0.459,0-1.039,0.409-1.039,1.498v2.537h4.254
		c1.329,0,2.368,1.016,2.368,1.981v6.454c0,0.725-0.507,2.103-2.199,2.103h-6.84v-2.248h5.704c0.242,0,1.208-0.313,1.208-0.895
		L157.899,47.88z"/>
	<path d="M163.509,39.106l2.588-0.29v8.991l-0.146,0.072v7.443l-1.571,0.121h-1.039L163.509,39.106z"/>
	<path d="M176.272,53.391v2.055h-7.3l0.362-10.997l0.12-0.072v-5.703h6.816v2.247h-4.496l-0.218,5.656l0.121,0.048h4.205v1.813
		h-4.375l-0.097,1.451l0.049,0.146l-0.049,0.289v3.143L176.272,53.391z"/>
	<path d="M184.612,38.551h2.489v16.895h-2.199v-7.638h-3.07v7.638h-2.247V38.841h2.394v7.009l2.609-0.121L184.612,38.551z"/>
	<path d="M197.907,38.768h9.04l-5.148,14.454h5.343v0.773l0.071,0.048v1.499h-8.049v-2.104l-0.145-0.071l4.954-12.666h-5.462
		l-0.072-0.097h-0.484l-0.048-0.798V38.768L197.907,38.768z"/>
	<path d="M210.43,38.938h2.296v12.521c0,0.726,0.726,1.231,1.16,1.231h2.683c0.387,0,0.652-0.556,0.726-1.11V38.961h2.44v14.575
		c0,0.82-1.185,1.813-1.957,1.908h-5.366c-1.039,0-1.98-0.869-1.98-2.488v-3.893L210.43,38.938L210.43,38.938z"/>
	<path d="M222.999,52.23h1.547l0.098,0.049l0.097-0.049l0.049,0.049h1.401v1.377l-0.558,1.428l-0.218,0.313l-0.772,0.798
		l-0.749,0.604l-0.678,0.097h-0.482l-0.097-0.241l0.049-0.291l0.192-0.361l0.218-0.652l-0.049-0.097l0.098-0.557L223,54.287h0.049
		v-0.242L223,53.997L222.999,52.23L222.999,52.23z"/>
	<path d="M28.965,84.454l-0.048-0.821l0.048-0.049l-0.048-0.146l0.048-0.098v-9.063l-0.048-0.218l0.048-0.072v-3.964l-0.048-0.12
		l0.048-0.023v-1.476h4.616l0.098,0.049h1.329c1.306,0,2.684,2.199,2.684,3.143v10.393c0,0.896-1.45,2.467-2.514,2.467
		L28.965,84.454L28.965,84.454z M31.575,71.112l-0.072,0.049h-0.339v1.57l0.098,0.098h-0.049v0.41l0.049,0.049l-0.049,0.023
		l0.121,0.121v6.042l0.048,0.098v2.224l0.121,0.146h2.417l0.048-0.048h0.557l0.894-0.339h0.121v-4.786h-0.048l0.048-0.048
		l-0.169-0.241v-4.4l-0.146-0.557l-0.847-0.411H31.575L31.575,71.112z"/>
	<path d="M47.48,67.729l2.707,0.338v0.219l0.049,0.072L52,83.85l0.048,0.097l-0.313,0.509h-0.338l-0.049,0.048l-0.048-0.05
		l-0.241,0.048h-1.571l-0.918-7.518h-1.5l-0.146-0.097h-2.393l-0.097,0.097l-1.813,7.301l0.098,0.048h-2.297l-0.145,0.121h-0.653
		l4.521-16.558h2.683l0.072-0.192L47.48,67.729z M47.36,70.773l-0.048,0.049h-1.378l-0.072-0.049l-0.942,3.819v0.435h3.408
		l-0.435-2.803l-0.072-1.088l-0.049-0.024l0.049-0.048l-0.097-0.121v-0.17H47.36z"/>
	<path d="M61.139,76.889c0-0.604-0.726-0.749-1.306-0.797H56.57c-1.861,0-2.393-1.209-2.393-1.74v-3.479
		c0-2.226,2.609-3.265,2.609-3.265h6.115v2.272h-5.172c-0.459,0-1.04,0.411-1.04,1.498v2.538h4.254c1.33,0,2.369,1.016,2.369,1.981
		v6.453c0,0.726-0.508,2.104-2.199,2.104h-6.84v-2.248h5.704c0.242,0,1.208-0.313,1.208-0.895L61.139,76.889z"/>
	<path d="M73.686,76.889c0-0.604-0.726-0.749-1.306-0.797h-3.263c-1.861,0-2.393-1.209-2.393-1.74v-3.479
		c0-2.226,2.609-3.265,2.609-3.265h6.115v2.272h-5.173c-0.459,0-1.039,0.411-1.039,1.498v2.538h4.254
		c1.329,0,2.369,1.016,2.369,1.981v6.453c0,0.726-0.507,2.104-2.2,2.104h-6.84v-2.248h5.704c0.242,0,1.208-0.313,1.208-0.895
		L73.686,76.889z"/>
	<path d="M86.475,84.454l-0.048-0.821l0.048-0.049l-0.048-0.146l0.048-0.098v-9.063l-0.048-0.218l0.048-0.072v-3.964l-0.048-0.12
		l0.048-0.023v-1.476h4.615l0.098,0.049h1.33c1.305,0,2.683,2.199,2.683,3.143v10.393c0,0.896-1.45,2.467-2.514,2.467L86.475,84.454
		L86.475,84.454z M89.085,71.112l-0.071,0.049h-0.34v1.57l0.098,0.098h-0.048v0.41l0.048,0.049l-0.048,0.023l0.121,0.121v6.042
		l0.048,0.098v2.224l0.121,0.146h2.417l0.048-0.048h0.556l0.895-0.339h0.12v-4.786H93l0.048-0.048l-0.169-0.241v-4.4l-0.146-0.557
		l-0.846-0.411H89.085L89.085,71.112z"/>
	<path d="M98.416,67.946h2.296v12.521c0,0.726,0.726,1.232,1.16,1.232h2.684c0.387,0,0.651-0.557,0.725-1.111V67.971h2.441v14.574
		c0,0.82-1.186,1.813-1.958,1.909h-5.365c-1.04,0-1.982-0.87-1.982-2.489v-3.893L98.416,67.946L98.416,67.946z"/>
	<path d="M125.03,76.889c0-0.604-0.725-0.749-1.305-0.797h-3.264c-1.86,0-2.393-1.209-2.393-1.74v-3.479
		c0-2.226,2.61-3.265,2.61-3.265h6.114v2.272h-5.173c-0.459,0-1.039,0.411-1.039,1.498v2.538h4.254c1.329,0,2.369,1.016,2.369,1.981
		v6.453c0,0.726-0.507,2.104-2.2,2.104h-6.84v-2.248h5.704c0.242,0,1.208-0.313,1.208-0.895L125.03,76.889z"/>
	<path d="M137.359,67.729l2.707,0.338v0.219l0.048,0.072l1.765,15.492l0.048,0.097l-0.313,0.509h-0.339l-0.048,0.048l-0.05-0.048
		l-0.24,0.048h-1.571l-0.918-7.518h-1.499l-0.145-0.097h-2.394l-0.097,0.097l-1.813,7.301l0.098,0.048h-2.297l-0.146,0.121h-0.652
		l4.521-16.558h2.683l0.073-0.192L137.359,67.729z M137.238,70.773l-0.048,0.049h-1.377l-0.073-0.049l-0.943,3.819v0.435h3.408
		l-0.435-2.803l-0.073-1.088l-0.048-0.024l0.048-0.048l-0.097-0.121v-0.17H137.238z"/>
	<path d="M148.722,84.454V70.121h-4.714v-1.765l-0.097-0.023v-0.268h9.378l0.098-0.289h1.232l0.604-0.049l0.072,0.437l0.072,0.82
		v1.16h-4.036v14.188l-0.072,0.121h-0.798l-0.097-0.049l-0.097,0.049L148.722,84.454L148.722,84.454z"/>
	<path d="M163.081,84.454V70.121h-4.713v-1.765l-0.097-0.023v-0.268h9.377l0.098-0.289h1.232l0.604-0.049l0.073,0.437l0.072,0.82
		v1.16h-4.036v14.188l-0.072,0.121h-0.798l-0.097-0.049l-0.098,0.049L163.081,84.454L163.081,84.454z"/>
	<path d="M196.68,67.607c-0.05,0.121-0.072,0.314-0.072,0.339l0.022,0.024l-3.795,16.483h-2.149l-2.515-7.76l-0.049-0.048
		l-3.358,7.759l0.023,0.049h-2.32l-2.996-16.532h2.609l2.006,12.182l2.9-7.033h2.635l2.078,6.43l2.61-11.893H196.68z"/>
	<path d="M199.752,68.115l2.586-0.289v8.99l-0.145,0.072v7.444l-1.571,0.121h-1.039L199.752,68.115z"/>
	<path d="M207.946,84.454h-2.368V67.85h6.938c1.885,0,2.393,1.476,2.393,2.635v4.495c0,0.967-0.895,1.958-1.644,1.958h-1.039
		l3.045,7.518h-2.805l-2.73-7.518H207.9L207.946,84.454z M212.49,70.314h-4.616v4.278h0.241l0.121,0.146h4.254V70.314z"/>
	<path d="M225.23,76.889c0-0.604-0.727-0.749-1.307-0.797h-3.263c-1.861,0-2.393-1.209-2.393-1.74v-3.479
		c0-2.226,2.608-3.265,2.608-3.265h6.115v2.272h-5.172c-0.459,0-1.039,0.411-1.039,1.498v2.538h4.254
		c1.328,0,2.367,1.016,2.367,1.981v6.453c0,0.726-0.508,2.104-2.198,2.104h-6.841v-2.248h5.705c0.241,0,1.208-0.313,1.208-0.895
		L225.23,76.889z"/>
	<path d="M235.479,84.454V70.121h-4.713v-1.765l-0.098-0.023v-0.268h9.378l0.099-0.289h1.23l0.604-0.049l0.072,0.437l0.072,0.82
		v1.16h-4.037v14.188l-0.07,0.121h-0.8l-0.097-0.049l-0.098,0.049L235.479,84.454L235.479,84.454z"/>
	<path d="M247.857,67.656v6.235l0.121,0.146v3.358l0.096,0.098l-0.049,0.146v1.957l-0.047-0.048v0.048l-0.1-0.048h-2.803
		l-0.049-0.097v-8.073l0.097-0.146v-3.577L247.857,67.656L247.857,67.656z M245.634,81.554h2.466v0.749l-0.023-0.022l0.072,0.557
		v1.521l-0.049,0.098h-3.068v-2.948L245.634,81.554z"/>
</g>
<g>
	<path fill="#9C85AB" d="M228.949,196.445c0-2.555-2.916-4.626-6.51-4.626c0,0-27.006-0.992-35.785-1.482
		c-29.582-1.65-102.814,3.363-137.162,2.188c-6.409-0.219-10.207,5.124-10.207,7.679c0,0-3.89,10.983-3.89,17.55
		c0,7.459-0.781,8.442-2.051,14.04c-1.065,4.687-1.396,16.94-1.396,16.94c0,2.556,2.917,4.74,6.508,4.627
		c10.217-0.325,66.991,4.32,77.674,4.32c17.372,0,46.075,5.512,59.463,1.536c0.756-0.225,1.964-0.542,3.383-0.881
		c0.372,3.189,2.183,22.243-5.934,35.104c-8.883,14.071,3.183,1.069,3.183,1.069s13.431-20.983,13.671-38.123
		c0.4-0.025,0.771-0.036,1.074-0.021c2.949,0.156,7.216-0.972,9.459-0.972c6.207,0,15.78-1.679,22.009-2.032
		c3.583-0.203,6.51-2.071,6.51-4.627c0,0,2.604-8.6,2.86-11.52C232.706,227.029,228.949,196.445,228.949,196.445z"/>
	<g>
		<path d="M51.881,211.895l3.454,0.432v0.278l0.062,0.092l2.251,19.767l0.062,0.124l-0.401,0.647h-0.432l-0.061,0.062l-0.062-0.062
			l-0.308,0.062h-2.004l-1.172-9.59h-1.912l-0.185-0.124H48.12l-0.124,0.124l-2.313,9.313l0.123,0.062h-2.929l-0.185,0.154h-0.833
			l5.767-21.124h3.422l0.093-0.247L51.881,211.895z M51.727,215.781l-0.062,0.062h-1.758l-0.093-0.062l-1.202,4.872v0.555h4.348
			l-0.555-3.577l-0.092-1.388l-0.062-0.031l0.062-0.062l-0.124-0.154v-0.216h-0.462V215.781z"/>
		<path d="M60.638,212.173h2.929v15.973c0,0.925,0.925,1.573,1.481,1.573h3.422c0.494,0,0.833-0.709,0.925-1.418v-16.097h3.114
			v18.595c0,1.048-1.511,2.313-2.498,2.436h-6.846c-1.326,0-2.528-1.11-2.528-3.176v-4.965L60.638,212.173L60.638,212.173z"/>
		<path d="M87.589,213.468l-0.062,0.063h0.062v0.124l-0.062,0.092l-0.093,1.265H79.88v5.088h6.291v2.497h-6.26l-0.185,0.063
			l-0.062,0.153l-0.062,0.032v10.422h-2.898v-20.599h10.608L87.589,213.468z"/>
		<path d="M109.883,230.613v2.621h-9.313l0.463-14.031l0.154-0.092v-7.278h8.696v2.868h-5.735l-0.278,7.216l0.154,0.061h5.366v2.313
			h-5.582l-0.124,1.85l0.062,0.185l-0.062,0.37v4.009L109.883,230.613z"/>
		<path d="M113.799,212.388l3.299-0.37v11.472l-0.185,0.092v9.498l-2.004,0.154h-1.326L113.799,212.388z"/>
		<path d="M123.604,233.265h-1.295l-0.062-0.062h-1.202v-20.661l-0.247-0.185l0.277-0.184h2.313l0.123-0.124h1.604l3.978,11.286
			V212.11l2.22-0.277h0.586l0.031,0.37c0,0.031,0,0.062-0.031,0.092h0.247v11.687l0.061,0.063l-0.061,0.062l0.061,0.03l-0.061,0.063
			l0.061,0.093v8.819h-1.48l-0.37-0.062l-0.185,0.062h-1.265l-5.304-14.925L123.604,233.265L123.604,233.265z"/>
		<path d="M148.026,233.265h-1.295l-0.062-0.062h-1.203v-20.661l-0.247-0.185l0.278-0.184h2.313l0.123-0.124h1.604l3.979,11.286
			V212.11l2.22-0.277h0.586l0.031,0.37c0,0.031,0,0.062-0.031,0.092h0.247v11.687l0.062,0.063l-0.062,0.062l0.062,0.03l-0.062,0.063
			l0.062,0.093v8.819h-1.48l-0.37-0.062l-0.185,0.062h-1.264l-5.304-14.925v15.079H148.026z"/>
		<path d="M169.611,230.613v2.621h-9.313l0.463-14.031l0.154-0.092v-7.278h8.696v2.868h-5.735l-0.278,7.216l0.154,0.061h5.366v2.313
			h-5.582l-0.123,1.85l0.062,0.185l-0.062,0.37v4.009L169.611,230.613z"/>
		<path d="M173.711,212.173h2.93v15.973c0,0.925,0.925,1.573,1.48,1.573h3.423c0.494,0,0.833-0.709,0.926-1.418v-16.097h3.114
			v18.595c0,1.048-1.511,2.313-2.498,2.436h-6.846c-1.326,0-2.528-1.11-2.528-3.176v-4.965L173.711,212.173L173.711,212.173z"/>
		<path d="M198.565,230.613v2.621h-9.313l0.463-14.031l0.154-0.092v-7.278h8.696v2.868h-5.735l-0.278,7.216l0.154,0.061h5.366v2.313
			h-5.582l-0.123,1.85l0.062,0.185l-0.062,0.37v4.009L198.565,230.613z"/>
		<path d="M211.331,223.582c0-0.771-0.925-0.956-1.665-1.018h-4.163c-2.375,0-3.053-1.542-3.053-2.22v-4.441
			c0-2.837,3.33-4.163,3.33-4.163h7.802v2.899h-6.599c-0.586,0-1.326,0.524-1.326,1.912v3.238h5.427
			c1.696,0,3.022,1.295,3.022,2.529v8.234c0,0.924-0.648,2.682-2.807,2.682h-8.727v-2.868h7.278c0.308,0,1.542-0.4,1.542-1.141
			L211.331,223.582z"/>
		<path d="M221.877,211.802v7.956l0.154,0.185v4.287l0.124,0.123l-0.062,0.185v2.499l-0.062-0.062v0.062l-0.123-0.062h-3.578
			l-0.061-0.124v-10.299l0.123-0.185v-4.564L221.877,211.802L221.877,211.802z M219.04,229.533h3.145v0.956l-0.031-0.031
			l0.092,0.709v1.943l-0.062,0.123h-3.916v-3.762L219.04,229.533z"/>
	</g>
</g>
<g>
	<g>
		<path fill="#FD9843" d="M155.711,900.567c-18.158-31.111-17.633-52.181-8.957-57.835c20.311-13.241,146.718,5.857,155.369-20.874
			c13.592-37.191-12.355-56.949-48.188-65.086c-28.418-8.137-140.605-12.308-164.081,7.45
			c-23.477,20.921-25.949,63.925,9.885,72.062c16.063,3.485,7.875,0.01,21.465,4.66
			C137.268,846.754,134.374,882.725,155.711,900.567z"/>
	</g>
	<g>
		<path d="M94.587,789.5l4.128-13.298h2.688l-4.728,15.386l-0.192-0.023l-0.168,0.407h-1.56l-0.096,0.121h-0.624l-0.24,0.047h-1.032
			l-0.312,0.05l0.048-0.05l-3.072-16.057l0.36-0.096l0.048,0.047h1.8L94.587,789.5z"/>
		<path d="M115.347,788.18l-0.096,1.009c0,1.969-1.44,2.881-2.304,2.881h-2.712l-0.048,0.096l-0.048-0.048l-0.096,0.048h-3.913
			c-0.984,0-1.848-1.632-1.848-2.354v-10.633c0-2.352,1.392-3.19,2.185-3.19h0.456l0.816-0.192l0.048,0.048l2.256-0.358h1.296
			c1.44,0,3.48,1.008,3.48,3.264h0.048v0.624L115.347,788.18z M112.418,778.435l-1.488-0.888l-0.192,0.145h-2.088l-0.096,0.049
			l-0.024-0.049l-0.048,0.049h-0.48v-0.049h-0.048l-1.08,0.889v1.774l0.048,0.024l-0.048,0.048l0.12,0.192v4.128l0.048,0.023
			l-0.048,0.071l0.048,0.097l-0.048,0.049l0.168,0.6v3.938l0.048,0.048v0.239l0.12,0.266l0.504,0.384h0.648l0.12-0.072h2.184
			l-0.192-0.264l0.648-0.097l0.048,0.313h0.744l0.504-0.646l0.264-0.505L112.418,778.435z"/>
		<path d="M121.034,792.14h-2.352v-16.487h6.888c1.873,0,2.376,1.463,2.376,2.614v4.466c0,0.96-0.888,1.942-1.632,1.942h-1.032
			l3.024,7.465h-2.784l-2.712-7.465h-1.824L121.034,792.14z M125.546,778.099h-4.584v4.248h0.24l0.12,0.146h4.224V778.099z"/>
		<path d="M138.194,784.628c0-0.601-0.72-0.744-1.296-0.793h-3.24c-1.848,0-2.376-1.199-2.376-1.729v-3.455
			c0-2.209,2.592-3.24,2.592-3.24h6.073v2.256h-5.137c-0.456,0-1.032,0.408-1.032,1.488v2.52h4.224c1.32,0,2.352,1.008,2.352,1.969
			v6.408c0,0.721-0.504,2.088-2.184,2.088h-6.792v-2.231h5.665c0.24,0,1.2-0.313,1.2-0.888L138.194,784.628z"/>
		<path d="M143.761,775.915l2.568-0.289v8.93l-0.144,0.072v7.393l-1.56,0.119h-1.032L143.761,775.915z"/>
		<path d="M157.874,775.652v2.184l-4.272,0.288c-1.128,0-1.752,0.646-1.752,1.008v3.864l0.12,0.096v5.089
			c0,1.08,0.768,1.488,1.248,1.488h4.752v2.472h-5.904c-0.768,0-2.64-0.911-2.64-2.327v-3.288l-0.096-0.097l0.048-0.048
			l-0.048-0.072l0.048-0.022l-0.048-0.146v-6.145l-0.12-0.072h0.048l-0.048-0.096v-1.513c0-1.08,1.704-2.28,2.28-2.28l2.112-0.265
			h1.344l0.096-0.119L157.874,775.652L157.874,775.652z"/>
		<path d="M166.25,775.363h2.472v16.776h-2.185v-7.584h-3.048v7.584h-2.232v-16.487h2.376v6.96l2.592-0.12L166.25,775.363z"/>
		<path d="M176.977,792.14v-14.231h-4.68v-1.752l-0.096-0.024v-0.265h9.313l0.096-0.287h1.224l0.6-0.049l0.072,0.433l0.072,0.815
			v1.151h-4.008v14.09l-0.072,0.119h-0.792l-0.096-0.047l-0.096,0.047H176.977z"/>
		<path d="M189.265,775.458v6.193l0.12,0.145v3.336l0.096,0.096l-0.048,0.146v1.943l-0.048-0.048v0.048l-0.096-0.048h-2.784
			l-0.048-0.097v-8.017l0.096-0.146v-3.553L189.265,775.458L189.265,775.458z M187.057,789.26h2.448v0.744l-0.024-0.023l0.072,0.553
			v1.512l-0.048,0.096h-3.048v-2.928L187.057,789.26z"/>
		<path d="M199.728,792.14l-0.048-0.814l0.048-0.048l-0.048-0.146l0.048-0.096v-9.001l-0.048-0.216l0.048-0.072v-3.936l-0.048-0.121
			l0.048-0.023v-1.465h4.584l0.096,0.049h1.32c1.296,0,2.664,2.184,2.664,3.12v10.321c0,0.888-1.44,2.446-2.496,2.446
			L199.728,792.14L199.728,792.14z M202.32,778.892l-0.072,0.048h-0.336v1.561l0.096,0.096h-0.048v0.408l0.048,0.049l-0.048,0.023
			l0.12,0.12v6.001l0.048,0.096v2.208l0.12,0.145h2.4l0.048-0.049h0.552l0.888-0.336h0.12v-4.753h-0.048l0.048-0.047l-0.168-0.24
			v-4.368l-0.144-0.553l-0.84-0.406h-2.784V778.892z"/>
		<path d="M211.439,775.915l2.568-0.289v8.93l-0.144,0.072v7.393l-1.56,0.119h-1.032L211.439,775.915z"/>
		<path d="M224.112,790.101v2.039h-7.249l0.36-10.92l0.12-0.071v-5.664h6.769v2.23h-4.464l-0.216,5.616l0.12,0.049h4.176v1.8h-4.344
			l-0.096,1.44l0.048,0.144l-0.048,0.288v3.12L224.112,790.101z"/>
		<path d="M250.872,775.411c-0.048,0.119-0.071,0.312-0.071,0.336l0.023,0.023l-3.768,16.368h-2.137l-2.496-7.704l-0.048-0.048
			l-3.336,7.705l0.024,0.047h-2.305l-2.977-16.417h2.592l1.992,12.098l2.88-6.984h2.616l2.064,6.385l2.592-11.809H250.872
			L250.872,775.411z"/>
		<path d="M260.975,790.101v2.039h-7.248l0.359-10.92l0.12-0.071v-5.664h6.769v2.23h-4.463l-0.217,5.616l0.12,0.049h4.177v1.8
			h-4.345l-0.096,1.44l0.048,0.144l-0.048,0.288v3.12L260.975,790.101z"/>
		<path d="M266.278,789.861h5.544l-0.12,2.278h-7.849v-16.824h2.4v13.682L266.278,789.861z"/>
		<path d="M279.479,792.14v-14.231h-4.68v-1.752l-0.097-0.024v-0.265h9.313l0.096-0.287h1.224l0.601-0.049l0.072,0.433l0.071,0.815
			v1.151h-4.008v14.09l-0.072,0.119h-0.792l-0.096-0.047l-0.096,0.047H279.479z"/>
		<path d="M110.978,813.428c0-0.601-0.72-0.744-1.296-0.792h-3.24c-1.848,0-2.376-1.2-2.376-1.729v-3.456
			c0-2.208,2.592-3.24,2.592-3.24h6.073v2.257h-5.137c-0.456,0-1.032,0.407-1.032,1.487v2.521h4.224c1.32,0,2.352,1.009,2.352,1.97
			v6.407c0,0.721-0.504,2.089-2.184,2.089h-6.792v-2.232h5.665c0.24,0,1.2-0.313,1.2-0.888L110.978,813.428z"/>
		<path d="M121.154,820.941v-14.233h-4.68v-1.752l-0.096-0.024v-0.264h9.313l0.096-0.288h1.224l0.6-0.048l0.072,0.432l0.072,0.816
			v1.152h-4.008v14.089l-0.072,0.12h-0.792l-0.096-0.049l-0.096,0.049H121.154z"/>
		<path d="M137.858,818.901v2.04h-7.249l0.36-10.922l0.12-0.071v-5.664h6.769v2.23h-4.464l-0.216,5.617l0.12,0.048h4.176v1.8h-4.344
			l-0.096,1.44l0.048,0.144l-0.048,0.289v3.119L137.858,818.901z"/>
		<path d="M146.138,804.163h2.472v16.777h-2.185v-7.584h-3.048v7.584h-2.232v-16.489h2.376v6.96l2.592-0.119L146.138,804.163z"/>
		<path d="M156.865,820.941v-14.233h-4.68v-1.752l-0.096-0.024v-0.264h9.313l0.096-0.288h1.224l0.6-0.048l0.072,0.432l0.072,0.816
			v1.152h-4.008v14.089l-0.072,0.12h-0.792l-0.096-0.049l-0.096,0.049H156.865z"/>
		<path d="M180.433,804.331l2.688,0.336v0.216l0.048,0.072l1.752,15.386l0.048,0.096l-0.312,0.505h-0.336l-0.048,0.048l-0.048-0.048
			l-0.24,0.048h-1.56l-0.912-7.464h-1.488l-0.144-0.098h-2.376l-0.096,0.098l-1.8,7.248l0.096,0.048h-2.28l-0.144,0.12h-0.648
			l4.488-16.441h2.665l0.072-0.191L180.433,804.331z M180.313,807.356l-0.048,0.048h-1.368l-0.072-0.048l-0.936,3.792v0.432h3.384
			l-0.432-2.783l-0.072-1.08l-0.048-0.023l0.048-0.048l-0.096-0.12v-0.168L180.313,807.356L180.313,807.356z"/>
		<path d="M199.993,820.677h-0.792l-0.288-0.049l-0.336,0.049h-0.912v-7.033l-0.048-0.239v-4.681l-2.64,3.24l-0.024,0.096
			l-1.896,2.209l-3.576-5.594v12.338l-0.072-0.049l-0.096,0.049l-0.48-0.145l-0.072,0.096l-1.536-0.096l-0.144-0.048v-2.88
			l0.048-0.05l-0.048-0.07v-10.634l-0.144-0.313v-2.472h0.24l0.36-0.12h2.041l3.552,5.784l2.4-3.48h0.072l1.848-2.641h2.544
			L199.993,820.677L199.993,820.677z"/>
		<path d="M217.344,813.428c0-0.601-0.72-0.744-1.296-0.792h-3.24c-1.848,0-2.376-1.2-2.376-1.729v-3.456
			c0-2.208,2.592-3.24,2.592-3.24h6.073v2.257h-5.137c-0.456,0-1.032,0.407-1.032,1.487v2.521h4.224c1.32,0,2.352,1.009,2.352,1.97
			v6.407c0,0.721-0.504,2.089-2.184,2.089h-6.792v-2.232h5.665c0.24,0,1.2-0.313,1.2-0.888L217.344,813.428z"/>
		<path d="M225.721,821.013h-2.617v-16.97h6.289c0.721,0,2.641,0.696,2.641,2.328l0.048,0.168l-0.168,4.681
			c-0.144,1.536-1.56,1.992-2.063,1.992h-2.017l-0.911-0.096v-0.049h-1.177L225.721,821.013z M225.721,811.124h3.023
			c0,0,0.816-0.168,0.816-0.938v-2.88c0-0.815-0.912-0.911-0.912-0.961h-2.928V811.124z"/>
		<path d="M235.127,804.715l2.568-0.288v8.931l-0.145,0.07v7.394l-1.56,0.12h-1.032L235.127,804.715z"/>
		<path d="M247.799,818.901v2.04h-7.248l0.359-10.922l0.12-0.071v-5.664h6.769v2.23h-4.464l-0.216,5.617l0.12,0.048h4.176v1.8
			h-4.344l-0.097,1.44l0.049,0.144l-0.049,0.289v3.119L247.799,818.901z"/>
		<path d="M253.104,818.66h5.544l-0.12,2.28h-7.85v-16.826h2.4v13.682L253.104,818.66z"/>
		<path d="M264.335,804.259v6.193l0.12,0.144v3.336l0.096,0.098l-0.048,0.144v1.944l-0.048-0.05v0.05l-0.096-0.05h-2.784
			l-0.048-0.096v-8.017l0.096-0.145v-3.553L264.335,804.259L264.335,804.259z M262.126,818.06h2.448v0.744l-0.023-0.022l0.071,0.553
			v1.512l-0.048,0.097h-3.048v-2.929L262.126,818.06z"/>
	</g>
</g>
<g>
	<path fill="#33C4E5" d="M235.549,502.098c0-2.417-3.351-4.377-7.484-4.377c0,0-31.058-0.938-41.153-1.4
		c-34.018-1.563-118.237,3.182-157.738,2.069c-7.368-0.208-11.737,4.848-11.737,7.266c0,0-4.474,10.393-4.474,16.604
		c0,7.057-0.897,7.986-2.358,13.281C9.38,539.976,9,551.567,9,551.567c0,2.418,3.355,4.484,7.484,4.378
		c11.751-0.308,77.04,4.087,89.326,4.087c19.978,0,52.986,5.216,68.382,1.452c0.871-0.214,2.26-0.513,3.891-0.833
		c0.428,3.017,5.049,21.045-4.286,33.212c-10.216,13.313,3.661,1.013,3.661,1.013s12.907-19.854,13.183-36.069
		c0.461-0.021,0.887-0.032,1.236-0.02c3.39,0.146,8.297-0.921,10.877-0.921c7.139,0,18.146-1.588,25.311-1.921
		c4.119-0.192,7.484-1.96,7.484-4.378c0,0,2.994-8.138,3.29-10.898C239.87,531.033,235.549,502.098,235.549,502.098z"/>
	<g>
		<path d="M36.389,519c-0.049,0.122-0.073,0.318-0.073,0.344l0.024,0.023l-3.854,16.741h-2.185l-2.553-7.879l-0.049-0.051
			l-3.412,7.88l0.024,0.05h-2.357l-3.043-16.79h2.651l2.037,12.372l2.946-7.145h2.676l2.111,6.53L33.984,519H36.389z"/>
		<path d="M46.326,519.122l2.75,0.344v0.221l0.049,0.073l1.792,15.735l0.049,0.098l-0.319,0.517h-0.344l-0.049,0.049l-0.049-0.049
			l-0.246,0.049h-1.595l-0.933-7.634h-1.522l-0.147-0.099h-2.43l-0.098,0.099l-1.841,7.412l0.098,0.05h-2.332l-0.147,0.123h-0.663
			l4.59-16.814h2.725l0.073-0.196L46.326,519.122z M44.681,514.68l0.172,1.938l-0.172,0.761h-2.455v-1.988l-0.196-0.194v-0.517
			H44.681L44.681,514.68z M46.203,522.215l-0.049,0.049h-1.399l-0.074-0.049l-0.958,3.879v0.441h3.461l-0.441-2.849l-0.074-1.104
			l-0.049-0.024l0.049-0.049l-0.098-0.123v-0.172H46.203L46.203,522.215z M48.756,514.68l0.172,1.938l-0.172,0.761h-2.455v-1.988
			l-0.197-0.194v-0.517H48.756L48.756,514.68z"/>
		<path d="M58.498,518.95h2.528v17.158h-2.234v-7.758h-3.118v7.758h-2.283v-16.864h2.43v7.119l2.651-0.122L58.498,518.95z"/>
		<path d="M67.061,533.777h5.67l-0.123,2.332h-8.027v-17.208h2.455v13.992L67.061,533.777z"/>
		<path d="M83.063,534.023v2.086H75.65l0.368-11.168l0.123-0.075v-5.793h6.922v2.283h-4.566l-0.221,5.744l0.123,0.05h4.271v1.84
			h-4.443l-0.099,1.474l0.049,0.147l-0.049,0.295v3.189L83.063,534.023z"/>
		<path d="M106.771,535.839h-0.81l-0.294-0.05l-0.344,0.05h-0.933v-7.191l-0.049-0.245v-4.787l-2.7,3.313l-0.024,0.098l-1.939,2.259
			l-3.658-5.72v12.617l-0.073-0.05l-0.098,0.05l-0.491-0.146l-0.074,0.098l-1.571-0.098l-0.147-0.05v-2.945l0.049-0.049
			l-0.049-0.074v-10.874l-0.147-0.319v-2.527h0.245l0.369-0.123h2.086l3.633,5.917l2.455-3.561h0.074l1.89-2.7h2.602v17.108H106.771
			z"/>
		<path d="M110.056,519.515l2.627-0.294v9.131l-0.147,0.074v7.561l-1.596,0.123h-1.056L110.056,519.515z"/>
		<path d="M120.511,536.109v-14.558h-4.787v-1.792l-0.099-0.023v-0.271h9.524l0.099-0.294h1.251l0.614-0.05l0.074,0.441l0.074,0.835
			v1.178h-4.1v14.409l-0.074,0.123h-0.81l-0.098-0.05l-0.098,0.05L120.511,536.109L120.511,536.109z"/>
		<path d="M137.664,519h5.842l0.834,0.195l0.393,0.195l0.786,1.18l0.123,0.049l0.688,3.313l-0.049,0.663
			c-0.196,0.466-0.467,1.056-1.129,1.569c0.982,0.344,1.473,1.032,1.89,1.646v6.187c0,0.563-0.564,2.038-2.062,2.038h-7.069
			l-0.295-0.196h0.049v-1.743h0.049l-0.049-0.049v-0.099h0.049l-0.049-0.049l0.049-0.05h-0.049l0.049-0.222l-0.049-0.073
			l0.049-0.049l-0.049-0.024l0.049-0.245l-0.049-0.245l0.049-0.025L137.664,519z M140.069,528.867v3.583l-0.049,0.024v0.318
			l0.049,0.05l-0.049,0.245v0.467l0.147-0.123h3.952l0.098-0.049h0.515v-4.517h-0.859l-0.049,0.05l-0.246-0.05l-0.344,0.05
			l-0.171-0.05L140.069,528.867L140.069,528.867z M140.364,521.43v4.836h2.479c0,0,0.982-1.202,0.982-2.65
			c0-1.104-0.196-2.087-0.196-2.087l-0.221-0.049L140.364,521.43z"/>
		<path d="M157.372,534.023v2.086h-7.413l0.368-11.168l0.123-0.075v-5.793h6.922v2.283h-4.566l-0.221,5.744l0.123,0.05h4.271v1.84
			h-4.442l-0.099,1.474l0.049,0.147l-0.049,0.295v3.189L157.372,534.023z"/>
		<path d="M160.363,536.109l-0.049-0.835l0.049-0.05l-0.049-0.146l0.049-0.098v-9.205l-0.049-0.223l0.049-0.072v-4.025l-0.049-0.123
			l0.049-0.023v-1.497h4.688l0.098,0.049h1.35c1.326,0,2.725,2.232,2.725,3.189v10.557c0,0.907-1.473,2.504-2.553,2.504
			L160.363,536.109L160.363,536.109z M163.014,522.559l-0.073,0.05h-0.344v1.596l0.098,0.099h-0.049v0.417l0.049,0.05l-0.049,0.024
			l0.123,0.122v6.137l0.049,0.099v2.259l0.123,0.146h2.454l0.049-0.049h0.565l0.908-0.344h0.123v-4.86h-0.049l0.049-0.049
			l-0.172-0.246v-4.468l-0.147-0.563l-0.859-0.418L163.014,522.559L163.014,522.559z"/>
		<path d="M179.163,519.122l2.75,0.344v0.221l0.049,0.073l1.792,15.735l0.049,0.098l-0.319,0.517h-0.344l-0.049,0.049l-0.049-0.049
			l-0.246,0.049h-1.595l-0.933-7.634h-1.521l-0.147-0.099h-2.43l-0.099,0.099l-1.841,7.412l0.099,0.05h-2.332l-0.147,0.123h-0.663
			l4.59-16.814h2.725l0.074-0.196L179.163,519.122z M179.04,522.215l-0.049,0.049h-1.399l-0.074-0.049l-0.958,3.879v0.441h3.461
			l-0.442-2.849l-0.074-1.104l-0.049-0.024l0.049-0.049l-0.098-0.123v-0.172H179.04L179.04,522.215z"/>
		<path d="M194.674,519.244v2.234l-4.37,0.295c-1.153,0-1.792,0.661-1.792,1.03v3.952l0.123,0.097v5.205
			c0,1.104,0.785,1.521,1.276,1.521h4.86v2.528h-6.039c-0.786,0-2.7-0.934-2.7-2.382v-3.362l-0.099-0.099l0.049-0.049l-0.049-0.074
			l0.049-0.023l-0.049-0.148v-6.283l-0.123-0.072h0.049l-0.049-0.099v-1.547c0-1.104,1.743-2.332,2.332-2.332l2.16-0.271h1.375
			l0.098-0.123L194.674,519.244L194.674,519.244z"/>
		<path d="M203.238,518.95h2.528v17.158h-2.234v-7.758h-3.117v7.758h-2.283v-16.864h2.43v7.119l2.651-0.122L203.238,518.95z"/>
		<path d="M214.206,536.109v-14.558h-4.787v-1.792l-0.098-0.023v-0.271h9.524l0.098-0.294h1.251l0.614-0.05l0.074,0.441l0.074,0.835
			v1.178h-4.1v14.409l-0.074,0.123h-0.81l-0.098-0.05l-0.099,0.05L214.206,536.109L214.206,536.109z"/>
		<path d="M226.77,519.049v6.332l0.123,0.147v3.412l0.098,0.099l-0.049,0.146v1.988l-0.049-0.049v0.049l-0.098-0.049h-2.848
			l-0.049-0.099v-8.199l0.099-0.146v-3.633L226.77,519.049L226.77,519.049z M224.513,533.163h2.504v0.761l-0.024-0.023l0.074,0.563
			v1.547l-0.05,0.099h-3.118v-2.995L224.513,533.163z"/>
	</g>
</g>
<g>
	<path fill="#AACC52" d="M20.715,384.953c0.4-2.233,1.441-6.952,1.441-8.834c0-7.08-1.441-27.015-1.441-27.015
		c0-2.757,3.346-4.989,7.473-4.989c0,0,136.168-3.376,170.127-1.598c10.077,0.529,41.08,1.598,41.08,1.598
		c4.127,0,7.473,2.232,7.473,4.989c0,0,4.314,32.976,3.283,43.958c-0.295,3.146-3.283,12.421-3.283,12.421
		c0,2.755-3.357,4.771-7.473,4.988c-7.153,0.38-21.375,2.288-28.499,2.288c-2.578,0-5.641-0.103-9.025-0.271
		c0.135,3.403-0.757,8.598-3.772,11.856c-7.788,8.417-12.908,23.286-27.199,25.774c0,0-2.622-0.024,1.365-1.697
		c3.985-1.674,8.825-8.995,17.019-26.36c0.814-1.727,2.572-6.85,0.339-10.354c-16.209-1.099-49.483-4.151-69.424-4.151
		c-12.265,0-80.281,2.565-92.01,2.915c-4.123,0.123-7.473-2.233-7.473-4.988C20.715,405.484,19.805,390.05,20.715,384.953z"/>
	<g>
		<path d="M41.382,367.876c-0.039,0.099-0.06,0.257-0.06,0.277l0.021,0.02l-3.114,13.523h-1.765l-2.062-6.365l-0.04-0.04
			l-2.756,6.365l0.02,0.04h-1.904l-2.459-13.563h2.142l1.645,9.994l2.38-5.771h2.161l1.706,5.274l2.142-9.755L41.382,367.876
			L41.382,367.876z"/>
		<path d="M49.413,367.975l2.221,0.278v0.178l0.039,0.06l1.448,12.711l0.04,0.079l-0.258,0.416h-0.278l-0.039,0.039l-0.04-0.039
			l-0.198,0.039h-1.289l-0.753-6.167h-1.229l-0.119-0.078h-1.963l-0.08,0.078l-1.487,5.988l0.079,0.041h-1.883l-0.12,0.099h-0.536
			l3.708-13.583h2.201l0.06-0.159L49.413,367.975z M49.313,370.474l-0.039,0.039h-1.13l-0.06-0.039l-0.773,3.132v0.357h2.796
			l-0.357-2.3l-0.06-0.893l-0.04-0.02l0.04-0.04l-0.079-0.099v-0.139h-0.298V370.474z"/>
		<path d="M60.616,375.49c0-0.496-0.595-0.615-1.071-0.654h-2.676c-1.527,0-1.963-0.992-1.963-1.428v-2.856
			c0-1.823,2.141-2.676,2.141-2.676h5.017v1.863h-4.243c-0.377,0-0.853,0.337-0.853,1.229v2.082h3.49
			c1.09,0,1.943,0.832,1.943,1.627v5.293c0,0.596-0.417,1.726-1.805,1.726h-5.611v-1.844h4.68c0.198,0,0.991-0.259,0.991-0.733
			L60.616,375.49z"/>
		<path d="M71.105,381.697l-0.04-0.674l0.04-0.041l-0.04-0.118l0.04-0.079v-7.436l-0.04-0.179l0.04-0.06v-3.252l-0.04-0.099
			l0.04-0.021v-1.21h3.787l0.08,0.041h1.091c1.07,0,2.201,1.804,2.201,2.577v8.526c0,0.733-1.19,2.022-2.062,2.022h-5.097V381.697z
			 M73.246,370.751l-0.059,0.04h-0.278v1.288l0.079,0.079h-0.04v0.338l0.04,0.039l-0.04,0.02l0.1,0.101v4.956l0.04,0.079v1.825
			l0.099,0.118h1.983l0.04-0.04h0.456l0.734-0.277h0.099v-3.926h-0.04l0.04-0.039l-0.138-0.199v-3.608l-0.119-0.456l-0.694-0.337
			L73.246,370.751L73.246,370.751z"/>
		<path d="M86.294,367.975l2.221,0.278v0.178l0.039,0.06l1.448,12.711l0.04,0.079l-0.258,0.416h-0.278l-0.039,0.039l-0.04-0.039
			l-0.198,0.039H87.94l-0.753-6.167h-1.23l-0.118-0.078h-1.963l-0.08,0.078l-1.487,5.988l0.079,0.041h-1.883l-0.119,0.099H79.85
			l3.709-13.583h2.2l0.06-0.159L86.294,367.975z M86.195,370.474l-0.039,0.039h-1.13l-0.06-0.039l-0.773,3.132v0.357h2.796
			l-0.357-2.3l-0.06-0.893l-0.04-0.02l0.04-0.04l-0.079-0.099v-0.139h-0.298V370.474z"/>
		<path d="M93.889,381.697h-1.944v-13.622h5.691c1.546,0,1.963,1.209,1.963,2.161v3.688c0,0.793-0.733,1.606-1.349,1.606h-0.853
			l2.498,6.166h-2.3l-2.24-6.166h-1.507L93.889,381.697z M97.616,370.097h-3.787v3.509h0.198l0.1,0.119h3.489V370.097z"/>
		<path d="M109.553,368.986l-0.04,0.041h0.04v0.078l-0.04,0.06l-0.059,0.813h-4.858v3.271h4.045v1.607h-4.026l-0.119,0.038
			l-0.04,0.1l-0.04,0.021v6.702h-1.864V368.47h6.82L109.553,368.986z"/>
		<path d="M113.479,368.114l-0.337,4.759h-1.071l-0.317-4.759H113.479z"/>
		<path d="M121.49,375.49c0-0.496-0.595-0.615-1.071-0.654h-2.677c-1.527,0-1.963-0.992-1.963-1.428v-2.856
			c0-1.823,2.141-2.676,2.141-2.676h5.017v1.863h-4.243c-0.377,0-0.853,0.337-0.853,1.229v2.082h3.49
			c1.09,0,1.943,0.832,1.943,1.627v5.293c0,0.596-0.417,1.726-1.805,1.726h-5.611v-1.844h4.68c0.199,0,0.991-0.259,0.991-0.733
			L121.49,375.49z"/>
		<path d="M131.979,381.697l-0.04-0.674l0.04-0.041l-0.04-0.118l0.04-0.079v-7.436l-0.04-0.179l0.04-0.06v-3.252l-0.04-0.099
			l0.04-0.021v-1.21h3.787l0.079,0.041h1.091c1.07,0,2.201,1.804,2.201,2.577v8.526c0,0.733-1.19,2.022-2.062,2.022h-5.096V381.697z
			 M134.12,370.751l-0.06,0.04h-0.277v1.288l0.079,0.079h-0.04v0.338l0.04,0.039l-0.04,0.02l0.1,0.101v4.956l0.04,0.079v1.825
			l0.099,0.118h1.983l0.04-0.04h0.456l0.734-0.277h0.099v-3.926h-0.039l0.039-0.039l-0.138-0.199v-3.608l-0.12-0.456l-0.694-0.337
			L134.12,370.751L134.12,370.751z"/>
		<path d="M141.655,368.291l2.122-0.237v7.377l-0.119,0.06v6.107l-1.289,0.099h-0.853L141.655,368.291z"/>
		<path d="M152.125,380.011v1.686h-5.989l0.298-9.022l0.1-0.06v-4.679h5.592v1.845h-3.688l-0.179,4.639l0.099,0.039h3.45v1.488
			h-3.589l-0.079,1.189l0.04,0.118l-0.04,0.238v2.578L152.125,380.011z"/>
		<path d="M160.334,375.49c0-0.496-0.595-0.615-1.071-0.654h-2.677c-1.527,0-1.963-0.992-1.963-1.428v-2.856
			c0-1.823,2.141-2.676,2.141-2.676h5.016v1.863h-4.242c-0.377,0-0.853,0.337-0.853,1.229v2.082h3.489
			c1.091,0,1.943,0.832,1.943,1.627v5.293c0,0.596-0.417,1.726-1.804,1.726h-5.611v-1.844h4.68c0.198,0,0.991-0.259,0.991-0.733
			L160.334,375.49z"/>
		<path d="M175.582,381.479h-0.654l-0.238-0.04l-0.278,0.04h-0.753v-5.811l-0.04-0.198v-3.866l-2.182,2.677l-0.02,0.079
			l-1.566,1.825l-2.955-4.62v10.191l-0.059-0.039l-0.079,0.039l-0.397-0.119l-0.06,0.08l-1.269-0.08l-0.119-0.039v-2.38l0.04-0.039
			l-0.04-0.06v-8.785l-0.119-0.258v-2.042h0.198l0.298-0.099h1.686l2.934,4.778l1.983-2.875h0.06l1.527-2.182h2.102V381.479
			L175.582,381.479z"/>
		<path d="M183.751,367.975l2.22,0.278v0.178l0.04,0.06l1.447,12.711l0.04,0.079l-0.258,0.416h-0.277l-0.04,0.039l-0.04-0.039
			l-0.198,0.039h-1.289l-0.753-6.167h-1.229l-0.119-0.078h-1.963l-0.08,0.078l-1.487,5.988l0.079,0.041h-1.883l-0.119,0.099h-0.536
			l3.708-13.583h2.201l0.059-0.159L183.751,367.975z M183.652,370.474l-0.04,0.039h-1.13l-0.06-0.039l-0.773,3.132v0.357h2.796
			l-0.357-2.3l-0.06-0.893l-0.039-0.02l0.039-0.04l-0.079-0.099v-0.139h-0.297V370.474z"/>
		<path d="M191.127,379.813h4.58l-0.099,1.884h-6.484v-13.9h1.983V379.1L191.127,379.813z"/>
		<path d="M209.905,375.49c0-0.496-0.595-0.615-1.071-0.654h-2.677c-1.527,0-1.963-0.992-1.963-1.428v-2.856
			c0-1.823,2.141-2.676,2.141-2.676h5.016v1.863h-4.243c-0.376,0-0.853,0.337-0.853,1.229v2.082h3.49
			c1.091,0,1.944,0.832,1.944,1.627v5.293c0,0.596-0.417,1.726-1.805,1.726h-5.611v-1.844h4.68c0.198,0,0.991-0.259,0.991-0.733
			L209.905,375.49z"/>
		<path d="M220.335,380.011v1.686h-5.988l0.297-9.022l0.099-0.06v-4.679h5.592v1.845h-3.688l-0.178,4.639l0.099,0.039h3.451v1.488
			h-3.59l-0.079,1.189l0.04,0.118l-0.04,0.238v2.578L220.335,380.011z"/>
		<path d="M222.853,368.291l2.122-0.237v7.377l-0.119,0.06v6.107l-1.289,0.099h-0.852L222.853,368.291z"/>
		<path d="M229.158,381.717h-0.833l-0.04-0.041h-0.771v-13.284l-0.16-0.119l0.18-0.119h1.486l0.08-0.079h1.031l2.557,7.257v-7.218
			l1.43-0.178h0.376l0.021,0.237c0,0.02,0,0.04-0.021,0.06h0.157v7.515l0.041,0.04l-0.041,0.04l0.041,0.02l-0.041,0.04l0.041,0.06
			v5.671h-0.951l-0.238-0.04l-0.119,0.04h-0.813l-3.411-9.598L229.158,381.717L229.158,381.717z"/>
	</g>
	<g>
		<g>
			<path d="M238.611,376.279c0,0.35,0.584,0.539,0.729,0.539h3.438v1.354h-4.121c-1.021,0-1.325-0.83-1.325-1.267v-3.891
				c0-0.581,0.625-1.193,1.428-1.193h2.563v-1.529c0-0.656-0.352-0.902-0.627-0.902h-3.115v-1.37h3.686c0,0,1.571,0.627,1.571,1.967
				v2.098c0,0.318-0.319,1.049-1.442,1.049h-1.965c-0.353,0.029-0.787,0.116-0.787,0.479L238.611,376.279z"/>
		</g>
		<g>
			<path d="M239.26,379.823h1.499v0.453l-0.016-0.015l0.045,0.34v0.923l-0.029,0.062h-1.866v-1.795L239.26,379.823z"/>
		</g>
	</g>
</g>
</svg>
