<?xml version="1.0" encoding="utf-8"?>
<!-- Generator: Adobe Illustrator 16.0.0, SVG Export Plug-In . SVG Version: 6.00 Build 0)  -->
<!DOCTYPE svg PUBLIC "-//W3C//DTD SVG 1.1//EN" "http://www.w3.org/Graphics/SVG/1.1/DTD/svg11.dtd">
<svg version="1.1" id="Layer_1" xmlns="http://www.w3.org/2000/svg" xmlns:xlink="http://www.w3.org/1999/xlink" x="0px" y="0px"
	 width="1200px" height="400px" viewBox="0 0 1200 400" enable-background="new 0 0 1200 400" xml:space="preserve">
<g>
	<path opacity="0.6" fill="#394747" enable-background="new    " d="M402.449,173.266c0,0-29.971-2.89-35.454-41.72
		c-5.48-38.831,7.059-81.729,21.944-102.935c14.885-21.208,39.093-31.768,59.44,22.104c20.352,53.872,12.208,91.225,2.51,102.336
		c-9.696,11.11-25.828,19.849-25.828,19.849l6.644,217.207c0,0-22.74,18.33-32.557,0.93
		C388.921,372.896,402.449,173.266,402.449,173.266z"/>
	<path fill="#C1C1C1" d="M397.765,171.928c0,0-29.971-2.891-35.454-41.721c-5.481-38.831,7.059-81.728,21.943-102.935
		c14.885-21.208,39.093-31.768,59.44,22.104c20.352,53.872,12.208,91.226,2.51,102.336c-9.696,11.11-25.828,19.849-25.828,19.849
		l5.155,216.193c0,0-21.251,19.342-31.065,1.941C384.236,371.558,397.765,171.928,397.765,171.928z"/>
	<g>
		<g>
			<path fill="#898989" d="M407.969,11.868c-18.53,6.581-29.898,23.478-36.888,41.052c-7.537,18.944-10.896,40.417-9.275,60.742
				c1.55,19.464,8.814,40.826,25.58,52.29c13.97,9.551,36.137,9.401,48.955-2.104c9.932-8.917,13.425-23.282,15.04-35.988
				c1.768-13.912,1.109-28.187-0.625-42.069c-1.964-15.743-6.421-31.279-13.24-45.609c-5.908-12.411-15.062-26.391-29.355-29.698
				c-0.808-0.187-2.249,1.005-1.098,1.271c20.057,4.64,29.979,29.465,35.638,46.877c5.594,17.227,7.822,35.386,7.736,53.459
				c-0.084,17.695-2.335,39.98-16.818,52.173c-8.367,7.044-21.021,8.109-31.376,6.173c-10.62-1.986-19.307-9.01-25.469-17.6
				c-15.407-21.478-15.395-50.977-10.685-75.868c4.675-24.691,16.507-54.678,42.229-63.812
				C409.441,12.758,409.123,11.458,407.969,11.868L407.969,11.868z"/>
		</g>
	</g>
	<g>
		<g>
			<path fill="#898989" d="M415.836,380.553c-2.297,3.002-3.217,6.679-5.174,9.876c-4.719,7.709-11.692,0.627-13.775-4.1
				c-3.781-8.577-3.816-19.525-4.137-28.659c-0.45-12.819,0.386-25.688,1.552-38.449c0.613-6.734,1.518-13.427,1.811-20.188
				c0.297-6.84,0.358-13.505,1.186-20.326c0.701-5.803-0.079-11.648,0.942-17.424c0.708-4.01,0.91-8.044,1.069-12.11
				c0.342-8.608,0.565-17.183,1.235-25.773c0.726-9.253,1.161-18.438,1.103-27.722c-0.054-8.619-0.926-17.511-0.193-26.099
				c0.016-0.186-1.849-0.014-1.893,0.507c-0.805,9.433,0.173,19.221,0.208,28.694c0.036,9.618-0.627,19.163-1.401,28.746
				c-0.802,9.893-0.57,19.836-1.378,29.726c-0.455,5.569-1.256,10.855-1.24,16.495c0.021,7.423-1.658,14.716-1.483,22.178
				c0.343,14.522-2.578,29.224-3.242,43.745c-0.598,13.025-0.44,26.245,1.788,39.119c1.152,6.654,3.557,15.19,11.604,15.397
				c8.502,0.219,9.225-8.694,13.281-13.988C417.771,380.1,416.167,380.122,415.836,380.553L415.836,380.553z"/>
		</g>
	</g>
	<g opacity="0.5">
		<path fill="#D6D6D6" d="M387.787,73.614c-2.133,7.657-2.02,29.528-1.594,36.849c0.639,10.757,5.104,19.695,10.92,28.64
			c6.257,9.632,14.776,16.525,25.783,19.307c4.936,1.161,11.002,1.64,15.508-1.323c6.079-3.641,7.235-12.56,8.83-18.963
			c2.051-9.373,2.988-20.126,0.769-29.516c-0.882-4.35-8.845-43.735-10.4-47.862c-1.337-3.662-2.222-8.013-4.237-11.225
			c-2.904-4.355-6.938-7.346-9.396-12.158c-2.455-4.585-4.688-9.397-10.306-10.332C401.083,24.928,390.969,62.183,387.787,73.614z"
			/>
	</g>
	<g>
		<path fill="#89878A" d="M429.26,82.429c-4.137,0-7.6-3.136-8.586-7.374h-0.29c0,5.426,2.213,10.579,8.876,10.579
			c6.322,0,8.879-5.152,8.879-10.579h-0.291C436.861,79.293,433.395,82.429,429.26,82.429z"/>
		<ellipse fill="#89878A" cx="403.679" cy="146.795" rx="5.124" ry="5.332"/>
		<ellipse cx="403.679" cy="146.795" rx="2.835" ry="2.95"/>
		<path fill="none" stroke="#000000" stroke-width="1.2491" stroke-linecap="round" stroke-miterlimit="10" d="M437.577,74.051
			c0,4.77-3.716,8.638-8.3,8.638c-4.585,0-8.302-3.868-8.302-8.638"/>
		<path fill="#89878A" d="M382.947,82.429c-4.138,0-7.603-3.136-8.589-7.374h-0.29c0,5.426,2.216,10.579,8.879,10.579
			c6.319,0,8.875-5.152,8.875-10.579h-0.29C390.548,79.293,387.082,82.429,382.947,82.429z"/>
		<path fill="none" stroke="#000000" stroke-width="1.2491" stroke-linecap="round" stroke-miterlimit="10" d="M391.264,74.051
			c0,4.77-3.715,8.638-8.3,8.638c-4.585,0-8.302-3.868-8.302-8.638"/>
	</g>
	<g opacity="0.5">
		<path fill="#D6D6D6" d="M413.413,378.334c14.209-36.203,5.74-89.424,5.74-127.574c0-19.074,4.016-45.177-1.004-63.248
			c-6.024-19.075-8.032,0-9.036,11.043c-1.004,10.039-1.004,21.082-1.004,31.122c0,28.11,0,55.217-1.004,82.323
			c0,20.078-18.891,53.979-2.828,69.038c1.004-1.004,3.226-1.958,4.229-2.963"/>
	</g>
</g>
<g>
	<path opacity="0.6" fill="#394747" enable-background="new    " d="M642.448,173.267c0,0-29.972-2.89-35.453-41.721
		c-5.48-38.831,7.06-81.728,21.944-102.935c14.885-21.208,39.093-31.768,59.441,22.104c20.352,53.872,12.206,91.226,2.508,102.336
		c-9.695,11.111-25.826,19.849-25.826,19.849l6.641,217.208c0,0-22.739,18.33-32.555,0.93
		C628.919,372.898,642.448,173.267,642.448,173.267z"/>
	<path fill="#C1C1C1" d="M637.763,171.929c0,0-29.972-2.89-35.452-41.721c-5.481-38.831,7.059-81.728,21.944-102.935
		c14.885-21.208,39.092-31.768,59.44,22.104c20.352,53.872,12.206,91.226,2.508,102.336c-9.695,11.111-25.826,19.85-25.826,19.85
		l5.155,216.194c0,0-21.254,19.344-31.066,1.943C624.235,371.561,637.763,171.929,637.763,171.929z"/>
	<g>
		<g>
			<path fill="#898989" d="M647.816,12.3c-18.47,6.558-29.797,23.374-36.766,40.894c-7.644,19.223-11.026,41.206-9.122,61.819
				c1.813,19.62,9.566,41.266,27.223,51.918c13.658,8.241,34.349,7.46,46.695-2.935c10.362-8.723,13.893-23.498,15.522-36.316
				c1.761-13.854,1.11-28.065-0.611-41.889c-1.964-15.742-6.423-31.279-13.242-45.609c-5.857-12.312-14.962-26.152-29.123-29.429
				c-0.441-0.103-2.1,0.608-1.562,0.733c19.8,4.581,29.726,28.718,35.474,45.934c5.662,16.957,8.003,34.787,8.146,52.62
				c0.145,17.775-1.741,39.411-14.896,52.78c-8.601,8.742-22.551,10.186-34.03,7.682c-10.274-2.241-18.663-9.121-24.673-17.502
				c-15.453-21.542-15.516-51.152-10.788-76.125c4.698-24.808,16.573-54.975,42.406-64.149
				C649.748,12.273,648.535,12.045,647.816,12.3L647.816,12.3z"/>
		</g>
	</g>
	<g>
		<g>
			<path fill="#898989" d="M655.837,380.555c-2.299,3.002-3.219,6.678-5.176,9.877c-4.719,7.71-11.691,0.626-13.774-4.1
				c-3.781-8.579-3.817-19.526-4.137-28.66c-0.45-12.818,0.384-25.689,1.55-38.451c0.614-6.733,1.52-13.426,1.813-20.188
				c0.298-6.839,0.36-13.504,1.186-20.326c0.702-5.802-0.078-11.648,0.942-17.424c0.709-4.01,0.911-8.043,1.069-12.11
				c0.342-8.605,0.566-17.183,1.235-25.773c0.725-9.253,1.16-18.438,1.104-27.722c-0.055-8.619-0.928-17.511-0.194-26.099
				c0.017-0.186-1.849-0.014-1.894,0.507c-0.804,9.433,0.174,19.221,0.208,28.694c0.036,9.618-0.627,19.164-1.401,28.745
				c-0.801,9.894-0.569,19.837-1.376,29.726c-0.455,5.569-1.257,10.856-1.24,16.497c0.021,7.423-1.658,14.714-1.483,22.178
				c0.342,14.522-2.576,29.224-3.242,43.746c-0.598,13.024-0.442,26.244,1.787,39.118c1.152,6.653,3.558,15.191,11.606,15.396
				c8.5,0.221,9.224-8.693,13.28-13.986C657.771,380.103,656.168,380.123,655.837,380.555L655.837,380.555z"/>
		</g>
	</g>
	<g opacity="0.5">
		<path fill="#D6D6D6" d="M627.788,73.614c-2.134,7.657-2.023,29.528-1.596,36.849c0.641,10.757,5.104,19.696,10.918,28.64
			c6.261,9.632,14.778,16.525,25.786,19.307c4.934,1.161,11.003,1.641,15.509-1.323c6.078-3.642,7.233-12.559,8.827-18.963
			c2.054-9.373,2.988-20.126,0.771-29.516c-0.884-4.35-8.845-43.735-10.401-47.862c-1.337-3.663-2.221-8.014-4.236-11.226
			c-2.903-4.355-6.938-7.346-9.396-12.158c-2.454-4.585-4.688-9.396-10.306-10.332C641.082,24.93,630.97,62.183,627.788,73.614z"/>
	</g>
	<g opacity="0.5">
		<path fill="#D6D6D6" d="M653.411,378.336c14.21-36.202,5.742-89.425,5.742-127.574c0-19.075,4.016-45.178-1.004-63.249
			c-6.023-19.075-8.031,0-9.035,11.043c-1.004,10.039-1.004,21.082-1.004,31.122c0,28.11,0,55.217-1.004,82.323
			c0,20.079-18.892,53.982-2.829,69.041c1.004-1.004,3.228-1.961,4.231-2.965"/>
	</g>
	<g>
		<ellipse fill="#89878A" cx="647.269" cy="153.138" rx="4.449" ry="7.4"/>
		<ellipse cx="647.958" cy="151.042" rx="3.76" ry="6.386"/>
		<g>
			<g>
				<path fill="#89878A" d="M622.871,72.778c0.667,2.228,0.086,4.878-1.484,6.882c-1.568,2.018-4.115,3.335-6.854,3.308
					c-1.236,0-2.627-0.303-3.785-0.882c-1.178-0.581-2.208-1.418-2.991-2.424c-1.571-2.002-2.153-4.657-1.483-6.884
					c0.654,2.209,1.779,3.983,3.263,5.207c1.489,1.232,3.205,1.876,5.078,1.876c1.71,0.004,3.544-0.642,4.998-1.872
					C621.097,76.763,622.22,74.986,622.871,72.778z"/>
				<g>
					<ellipse fill="#FFFFFF" cx="614.573" cy="72.777" rx="8.299" ry="8.638"/>
					<ellipse cx="614.666" cy="72.735" rx="1.632" ry="1.698"/>
				</g>
			</g>
			<circle fill="#FFFFFF" cx="613.771" cy="71.679" r="0.446"/>
		</g>
		<g>
			<g>
				<path fill="#89878A" d="M688.965,72.778c0.665,2.228,0.09,4.878-1.484,6.882c-1.568,2.018-4.114,3.335-6.854,3.308
					c-1.234,0-2.628-0.303-3.786-0.882c-1.177-0.581-2.209-1.418-2.991-2.424c-1.574-2.002-2.153-4.657-1.485-6.884
					c0.655,2.209,1.781,3.983,3.267,5.207c1.487,1.232,3.204,1.876,5.077,1.876c1.709,0.004,3.544-0.642,4.998-1.872
					C687.191,76.763,688.315,74.986,688.965,72.778z"/>
				<g>
					<ellipse fill="#FFFFFF" cx="680.666" cy="72.777" rx="8.3" ry="8.638"/>
					<ellipse cx="680.92" cy="72.684" rx="1.809" ry="1.882"/>
				</g>
			</g>
			<circle fill="#FFFFFF" cx="679.929" cy="71.515" r="0.494"/>
		</g>
	</g>
</g>
<g>
	<path opacity="0.6" fill="#394747" enable-background="new    " d="M522.449,173.267c0,0-29.972-2.89-35.453-41.721
		c-5.48-38.83,7.059-81.728,21.945-102.934c14.884-21.208,39.092-31.768,59.439,22.104c20.352,53.871,12.208,91.225,2.51,102.335
		c-9.698,11.111-25.829,19.849-25.829,19.849l6.643,217.208c0,0-22.741,18.329-32.555,0.929
		C508.919,372.896,522.449,173.267,522.449,173.267z"/>
	<path fill="#C1C1C1" d="M517.764,171.928c0,0-29.971-2.89-35.453-41.721c-5.481-38.83,7.059-81.728,21.944-102.934
		c14.884-21.208,39.092-31.768,59.44,22.104c20.351,53.871,12.207,91.225,2.51,102.336s-25.829,19.849-25.829,19.849l5.155,216.194
		c0,0-21.252,19.343-31.064,1.942C504.235,371.56,517.764,171.928,517.764,171.928z"/>
	<g>
		<g>
			<path fill="#898989" d="M527.964,11.845c-18.531,6.581-29.897,23.491-36.885,41.063c-7.538,18.947-10.892,40.429-9.273,60.754
				c1.55,19.465,8.818,40.838,25.584,52.302c13.976,9.557,36.13,9.417,48.956-2.096c9.932-8.917,13.422-23.294,15.038-36
				c1.77-13.915,1.108-28.189-0.627-42.075c-1.963-15.732-6.339-31.517-13.323-45.778c-6.113-12.486-15.041-26.253-29.498-29.599
				c-0.95-0.22-1.902,1.12-0.649,1.41c20.286,4.692,30.245,30.458,35.796,48.02c5.438,17.207,7.545,35.359,7.339,53.367
				c-0.201,17.643-2.685,39.907-17.572,51.637c-8.795,6.929-22.221,7.702-32.708,5.082c-10.15-2.537-18.246-9.621-24.042-18.082
				c-14.709-21.461-14.659-50.293-10.005-74.873c4.675-24.695,16.512-54.662,42.23-63.794
				C529.452,12.779,529.12,11.435,527.964,11.845L527.964,11.845z"/>
		</g>
	</g>
	<g>
		<g>
			<path fill="#898989" d="M535.836,380.554c-2.299,3-3.218,6.678-5.174,9.875c-4.72,7.71-11.692,0.625-13.775-4.101
				c-3.783-8.576-3.818-19.523-4.137-28.657c-0.449-12.82,0.386-25.688,1.551-38.45c0.614-6.735,1.519-13.428,1.812-20.188
				c0.296-6.839,0.36-13.504,1.184-20.326c0.702-5.802-0.077-11.649,0.943-17.425c0.709-4.01,0.912-8.042,1.071-12.109
				c0.34-8.607,0.563-17.183,1.234-25.772c0.724-9.255,1.161-18.438,1.102-27.723c-0.055-8.619-0.927-17.511-0.193-26.099
				c0.016-0.185-1.848-0.014-1.893,0.507c-0.805,9.433,0.174,19.222,0.208,28.694c0.034,9.618-0.627,19.165-1.403,28.746
				c-0.801,9.893-0.568,19.838-1.376,29.727c-0.455,5.568-1.256,10.855-1.239,16.495c0.021,7.423-1.659,14.716-1.484,22.178
				c0.343,14.524-2.576,29.223-3.242,43.746c-0.597,13.026-0.44,26.244,1.787,39.118c1.153,6.655,3.557,15.19,11.606,15.398
				c8.501,0.219,9.224-8.693,13.279-13.988C537.771,380.099,536.166,380.122,535.836,380.554L535.836,380.554z"/>
		</g>
	</g>
	<g opacity="0.5">
		<path fill="#D6D6D6" d="M507.788,73.613c-2.134,7.657-2.022,29.528-1.594,36.849c0.639,10.757,5.104,19.695,10.918,28.64
			c6.26,9.632,14.778,16.525,25.784,19.307c4.936,1.161,11.002,1.641,15.508-1.323c6.079-3.642,7.235-12.559,8.83-18.963
			c2.051-9.373,2.989-20.126,0.77-29.516c-0.883-4.35-8.846-43.735-10.401-47.863c-1.337-3.662-2.221-8.013-4.236-11.225
			c-2.905-4.355-6.938-7.346-9.397-12.158c-2.455-4.585-4.688-9.396-10.305-10.332C521.083,24.929,510.97,62.182,507.788,73.613z"/>
	</g>
	<g opacity="0.5">
		<path fill="#D6D6D6" d="M533.413,378.334c14.209-36.201,5.74-89.424,5.74-127.573c0-19.075,4.016-45.178-1.004-63.248
			c-6.023-19.075-8.032,0-9.035,11.043c-1.004,10.039-1.004,21.083-1.004,31.122c0,28.11,0,55.217-1.004,82.323
			c0,20.079-18.893,53.981-2.83,69.041c1.004-1.004,3.228-1.96,4.231-2.964"/>
	</g>
	<path fill="#89878A" d="M516.211,158.937c0,0-1.903-1.685,1.11-2.489c2.486-0.663,9.542-0.455,13.061-0.59
		c4.012-0.155,9.653,0.049,11.668,0.882c1.896,0.784,0.285,2.197,0.285,2.197H516.211z"/>
	<path d="M516.211,156.862c0,0,6.387-2.778,14.17-3.078c7.782-0.302,11.953,3.078,11.953,3.078H516.211z"/>
	<path fill="#89878A" d="M508.686,75.818c0.664,2.227,0.084,4.878-1.487,6.881c-1.568,2.019-4.115,3.335-6.853,3.309
		c-1.236,0-2.627-0.303-3.787-0.882c-1.176-0.581-2.207-1.418-2.99-2.424c-1.571-2.002-2.153-4.658-1.482-6.884
		c0.653,2.209,1.779,3.982,3.265,5.207c1.486,1.232,3.202,1.876,5.076,1.876c1.708,0.004,3.543-0.641,4.998-1.872
		C506.911,79.804,508.034,78.028,508.686,75.818z"/>
	<ellipse fill="#FFFFFF" cx="500.385" cy="75.818" rx="8.301" ry="8.638"/>
	<ellipse cx="500.385" cy="70.631" rx="2.835" ry="2.951"/>
	<circle fill="#FFFFFF" cx="498.835" cy="68.8" r="0.774"/>
	<g>
		<path fill="#89878A" d="M563.085,75.818c0.665,2.227,0.084,4.878-1.488,6.881c-1.567,2.019-4.112,3.335-6.852,3.309
			c-1.234,0-2.627-0.303-3.786-0.882c-1.178-0.581-2.21-1.418-2.991-2.424c-1.574-2.002-2.154-4.658-1.484-6.884
			c0.655,2.209,1.78,3.982,3.265,5.207c1.488,1.232,3.204,1.876,5.078,1.876c1.707,0.004,3.544-0.641,4.997-1.872
			C561.309,79.804,562.433,78.028,563.085,75.818z"/>
		<ellipse fill="#FFFFFF" cx="554.784" cy="75.818" rx="8.301" ry="8.638"/>
		<ellipse cx="554.784" cy="70.631" rx="2.834" ry="2.951"/>
		<circle fill="#FFFFFF" cx="553.233" cy="68.8" r="0.774"/>
	</g>
</g>
<g>
	<path opacity="0.6" fill="#394747" enable-background="new    " d="M282.45,173.264c0,0-29.972-2.89-35.455-41.721
		c-5.48-38.83,7.058-81.727,21.944-102.933c14.885-21.208,39.092-31.768,59.44,22.104c20.351,53.871,12.208,91.224,2.51,102.335
		c-9.697,11.11-25.829,19.849-25.829,19.849l6.643,217.205c0,0-22.738,18.33-32.556,0.93
		C268.92,372.893,282.45,173.264,282.45,173.264z"/>
	<path fill="#C1C1C1" d="M277.766,171.926c0,0-29.972-2.89-35.455-41.72c-5.48-38.83,7.058-81.727,21.945-102.933
		c14.884-21.208,39.091-31.768,59.44,22.104c20.351,53.871,12.208,91.224,2.51,102.335c-9.697,11.11-25.829,19.849-25.829,19.849
		l5.156,216.192c0,0-21.251,19.341-31.067,1.94C264.235,371.555,277.766,171.926,277.766,171.926z"/>
	<g>
		<g>
			<path fill="#898989" d="M287.97,11.868c-18.53,6.581-29.899,23.478-36.889,41.052c-7.536,18.943-10.896,40.417-9.276,60.741
				c1.55,19.464,8.815,40.826,25.581,52.289c13.97,9.552,36.137,9.402,48.954-2.104c9.931-8.917,13.424-23.281,15.039-35.988
				c1.769-13.912,1.109-28.186-0.625-42.069c-1.964-15.743-6.421-31.279-13.24-45.609c-5.907-12.41-15.062-26.391-29.355-29.697
				c-0.809-0.187-2.248,1.005-1.099,1.272c20.059,4.64,29.98,29.465,35.639,46.876c5.595,17.227,7.821,35.386,7.736,53.458
				c-0.085,17.694-2.335,39.98-16.819,52.173c-8.366,7.043-21.02,8.108-31.374,6.173c-10.622-1.986-19.307-9.009-25.471-17.6
				c-15.405-21.477-15.395-50.976-10.683-75.867c4.673-24.69,16.505-54.677,42.227-63.811
				C289.441,12.758,289.122,11.458,287.97,11.868L287.97,11.868z"/>
		</g>
	</g>
	<g>
		<g>
			<path fill="#898989" d="M295.837,380.55c-2.298,3-3.218,6.679-5.176,9.875c-4.718,7.709-11.691,0.627-13.773-4.1
				c-3.781-8.577-3.816-19.524-4.137-28.658c-0.45-12.82,0.384-25.688,1.551-38.449c0.615-6.735,1.519-13.428,1.812-20.188
				c0.297-6.84,0.359-13.506,1.186-20.326c0.7-5.802-0.078-11.649,0.942-17.426c0.708-4.01,0.91-8.041,1.07-12.107
				c0.341-8.608,0.564-17.183,1.234-25.773c0.727-9.253,1.16-18.438,1.104-27.722c-0.055-8.619-0.927-17.511-0.195-26.098
				c0.017-0.186-1.847-0.015-1.892,0.507c-0.806,9.433,0.173,19.221,0.208,28.693c0.036,9.618-0.627,19.163-1.402,28.746
				c-0.803,9.892-0.569,19.835-1.377,29.724c-0.455,5.57-1.256,10.855-1.239,16.496c0.021,7.423-1.66,14.716-1.484,22.177
				c0.343,14.523-2.577,29.224-3.242,43.746c-0.599,13.025-0.442,26.244,1.787,39.118c1.151,6.654,3.557,15.191,11.605,15.397
				c8.5,0.219,9.225-8.693,13.28-13.988C297.77,380.096,296.168,380.118,295.837,380.55L295.837,380.55z"/>
		</g>
	</g>
	<g opacity="0.5">
		<path fill="#D6D6D6" d="M267.786,73.613c-2.133,7.657-2.021,29.527-1.594,36.848c0.639,10.757,5.104,19.695,10.92,28.64
			c6.258,9.631,14.776,16.525,25.784,19.307c4.934,1.16,11.002,1.64,15.507-1.324c6.08-3.641,7.235-12.559,8.83-18.963
			c2.051-9.373,2.989-20.125,0.77-29.516c-0.882-4.35-8.846-43.734-10.401-47.862c-1.337-3.662-2.222-8.013-4.235-11.225
			c-2.906-4.355-6.939-7.346-9.398-12.158c-2.455-4.585-4.688-9.397-10.305-10.332C281.084,24.929,270.969,62.182,267.786,73.613z"
			/>
	</g>
	<g opacity="0.5">
		<path fill="#D6D6D6" d="M293.413,378.33c14.21-36.202,5.74-89.423,5.74-127.572c0-19.075,4.016-45.177-1.004-63.248
			c-6.024-19.075-8.032,0-9.036,11.043c-1.004,10.04-1.004,21.083-1.004,31.122c0,28.11,0,55.217-1.004,82.323
			c0,20.078-18.891,53.979-2.828,69.038c1.004-1.004,3.227-1.961,4.23-2.965"/>
	</g>
	<g>
		<path fill="none" stroke="#232727" stroke-width="2.4602" stroke-linecap="round" stroke-miterlimit="10" d="M312.958,127.414
			c-2.747,13.594-13.141,21.176-24.12,21.189c-10.71,0.01-21.418-8.482-24.176-21.127"/>
	</g>
	<g>
		<g>
			<path fill="#808088" d="M273.083,87.646c0.071-0.188,0.147-0.38,0.204-0.576c0.714-2.427,0.272-5.091-1.165-6.903
				c0.213,2.281-0.169,4.336-1.092,6.013c-0.51,0.964-1.212,1.789-2.016,2.44L273.083,87.646z"/>
			<path fill="#808088" d="M262.677,90.136c-0.314-0.064-0.631-0.141-0.948-0.242c-1.82-0.584-3.514-1.806-4.933-3.606
				c0.152,1.724,1.039,3.411,2.395,4.683L262.677,90.136z"/>
		</g>
		<path fill="#FFFFFF" d="M272.127,87.877c1.037-2.109,1.206-4.672,0.245-7.079c-1.759-4.405-6.616-6.607-10.85-4.916
			c-4.233,1.69-6.237,6.631-4.479,11.036c0.642,1.605,1.695,2.913,2.981,3.852L272.127,87.877z M263.619,81.131
			c1.446-0.579,3.105,0.176,3.705,1.682c0.603,1.502-0.082,3.192-1.528,3.771c-1.444,0.577-3.107-0.177-3.706-1.68
			C261.487,83.398,262.172,81.708,263.619,81.131z"/>
		<ellipse transform="matrix(0.9288 -0.3707 0.3707 0.9288 -12.2343 104.1071)" cx="264.738" cy="83.883" rx="2.82" ry="2.935"/>
		<circle fill="#FFFFFF" cx="266.532" cy="85.034" r="0.77"/>
	</g>
	<g>
		<g>
			<path fill="#808088" d="M303.948,87.269c-0.058-0.195-0.122-0.389-0.165-0.587c-0.556-2.468,0.056-5.099,1.607-6.814
				c-0.36,2.262-0.109,4.337,0.702,6.07c0.446,0.997,1.096,1.863,1.857,2.564L303.948,87.269z"/>
			<path fill="#808088" d="M314.173,90.421c0.319-0.043,0.639-0.1,0.963-0.18c1.853-0.465,3.623-1.576,5.155-3.281
				c-0.263,1.71-1.255,3.336-2.688,4.518L314.173,90.421z"/>
		</g>
		<path fill="#FFFFFF" d="M316.779,91.225c1.344-0.854,2.481-2.091,3.224-3.654c2.037-4.282,0.356-9.343-3.758-11.301
			c-4.117-1.96-9.103-0.076-11.145,4.208c-1.113,2.34-1.109,4.909-0.211,7.08L316.779,91.225z M315.099,85.237
			c-0.695,1.462-2.403,2.108-3.808,1.438c-1.407-0.669-1.98-2.4-1.283-3.863c0.695-1.462,2.401-2.108,3.808-1.438
			C315.22,82.045,315.797,83.773,315.099,85.237z"/>
		<ellipse transform="matrix(-0.9031 -0.4295 0.4295 -0.9031 558.6857 294.2025)" cx="312.544" cy="84.052" rx="2.819" ry="2.935"/>
		<circle fill="#FFFFFF" cx="310.656" cy="85.083" r="0.77"/>
	</g>
</g>
<g>
	<path opacity="0.6" fill="#394747" enable-background="new    " d="M162.449,173.266c0,0-29.971-2.891-35.454-41.721
		c-5.48-38.831,7.057-81.728,21.944-102.934c14.884-21.208,39.093-31.768,59.44,22.104c20.351,53.872,12.208,91.226,2.51,102.336
		c-9.698,11.111-25.828,19.849-25.828,19.849l6.643,217.206c0,0-22.739,18.33-32.557,0.931
		C148.921,372.896,162.449,173.266,162.449,173.266z"/>
	<path fill="#C1C1C1" d="M157.765,171.928c0,0-29.971-2.891-35.454-41.721c-5.481-38.831,7.057-81.729,21.943-102.935
		c14.885-21.208,39.093-31.768,59.44,22.104c20.352,53.872,12.208,91.225,2.51,102.335c-9.698,11.111-25.828,19.849-25.828,19.849
		l5.155,216.194c0,0-21.251,19.341-31.067,1.94C144.237,371.558,157.765,171.928,157.765,171.928z"/>
	<g>
		<g>
			<path fill="#898989" d="M167.969,11.868c-18.53,6.581-29.9,23.478-36.889,41.052c-7.536,18.943-10.895,40.417-9.277,60.742
				c1.552,19.464,8.816,40.826,25.582,52.289c13.97,9.552,36.137,9.402,48.953-2.104c9.934-8.917,13.426-23.281,15.042-35.988
				c1.768-13.912,1.108-28.187-0.625-42.07c-1.964-15.742-6.423-31.278-13.242-45.608c-5.906-12.411-15.062-26.391-29.354-29.698
				c-0.81-0.187-2.249,1.005-1.1,1.271c20.06,4.64,29.981,29.465,35.638,46.877c5.596,17.227,7.822,35.386,7.736,53.459
				c-0.084,17.694-2.335,39.979-16.818,52.172c-8.366,7.044-21.019,8.109-31.374,6.173c-10.622-1.986-19.307-9.009-25.471-17.6
				c-15.405-21.477-15.395-50.976-10.683-75.868c4.674-24.69,16.505-54.677,42.227-63.811
				C169.44,12.758,169.123,11.458,167.969,11.868L167.969,11.868z"/>
		</g>
	</g>
	<g>
		<g>
			<path fill="#898989" d="M175.836,380.553c-2.298,3.001-3.218,6.679-5.176,9.876c-4.718,7.708-11.691,0.626-13.773-4.1
				c-3.781-8.578-3.816-19.526-4.138-28.659c-0.451-12.82,0.384-25.689,1.551-38.45c0.615-6.734,1.52-13.427,1.813-20.188
				c0.297-6.84,0.358-13.504,1.186-20.326c0.701-5.802-0.079-11.648,0.942-17.424c0.708-4.01,0.91-8.043,1.071-12.109
				c0.341-8.608,0.565-17.184,1.235-25.773c0.726-9.253,1.159-18.438,1.103-27.723c-0.054-8.619-0.927-17.511-0.195-26.099
				c0.018-0.186-1.847-0.014-1.891,0.507c-0.805,9.434,0.172,19.222,0.208,28.694c0.036,9.619-0.627,19.165-1.401,28.746
				c-0.804,9.893-0.569,19.836-1.377,29.727c-0.455,5.568-1.256,10.855-1.24,16.495c0.022,7.423-1.66,14.716-1.483,22.177
				c0.343,14.523-2.578,29.224-3.243,43.745c-0.598,13.026-0.441,26.245,1.789,39.12c1.15,6.653,3.557,15.19,11.604,15.397
				c8.5,0.219,9.225-8.694,13.281-13.989C177.769,380.1,176.168,380.121,175.836,380.553L175.836,380.553z"/>
		</g>
	</g>
	<g opacity="0.5">
		<path fill="#D6D6D6" d="M147.787,73.612c-2.133,7.657-2.021,29.528-1.594,36.849c0.639,10.757,5.104,19.695,10.919,28.639
			c6.257,9.632,14.777,16.525,25.783,19.307c4.935,1.161,11.002,1.641,15.508-1.323c6.079-3.642,7.236-12.56,8.83-18.964
			c2.051-9.373,2.988-20.126,0.769-29.516c-0.883-4.35-8.846-43.735-10.402-47.862c-1.335-3.662-2.222-8.013-4.235-11.225
			c-2.904-4.355-6.939-7.346-9.396-12.158c-2.455-4.585-4.69-9.397-10.306-10.332C161.084,24.928,150.97,62.183,147.787,73.612z"/>
	</g>
	<g opacity="0.5">
		<path fill="#D6D6D6" d="M173.412,378.333c14.21-36.203,5.74-89.424,5.74-127.573c0-19.075,4.016-45.177-1.004-63.248
			c-6.024-19.075-8.032,0-9.036,11.043c-1.004,10.039-1.004,21.083-1.004,31.122c0,28.11,0,55.217-1.004,82.323
			c0,20.079-18.889,53.981-2.826,69.041c1.004-1.004,3.226-1.961,4.229-2.965"/>
	</g>
	<path d="M149.51,136.958h39.119c0,0-0.745,15.591-19.56,15.591C150.256,152.549,149.51,136.958,149.51,136.958z"/>
	<g>
		<g>
			<path fill="#8A898C" d="M156.325,81.512c0.667,2.227,0.086,4.879-1.486,6.881c-1.567,2.018-4.114,3.335-6.853,3.31
				c-1.235-0.002-2.625-0.304-3.785-0.883c-1.177-0.582-2.208-1.418-2.992-2.424c-1.57-2.003-2.153-4.658-1.482-6.885
				c0.655,2.209,1.778,3.983,3.263,5.206c1.49,1.234,3.206,1.877,5.077,1.877c1.709,0.004,3.545-0.64,4.999-1.872
				C154.55,85.497,155.673,83.721,156.325,81.512z"/>
			<g>
				<ellipse fill="#FFFFFF" cx="148.025" cy="81.512" rx="8.301" ry="8.638"/>
				<ellipse cx="148.025" cy="81.512" rx="2.836" ry="2.952"/>
			</g>
		</g>
		<circle fill="#FFFFFF" cx="146.475" cy="79.68" r="0.774"/>
	</g>
	<g>
		<g>
			<path fill="#8A898C" d="M201.939,81.512c0.665,2.227,0.084,4.879-1.486,6.881c-1.569,2.018-4.114,3.335-6.853,3.31
				c-1.235-0.002-2.627-0.304-3.787-0.883c-1.176-0.582-2.207-1.418-2.988-2.424c-1.574-2.003-2.155-4.658-1.485-6.885
				c0.655,2.209,1.781,3.983,3.265,5.206c1.488,1.234,3.204,1.877,5.078,1.877c1.708,0.004,3.544-0.64,4.997-1.872
				C200.165,85.497,201.287,83.721,201.939,81.512z"/>
			<g>
				<ellipse fill="#FFFFFF" cx="193.639" cy="81.512" rx="8.3" ry="8.638"/>
				<ellipse cx="193.639" cy="81.512" rx="2.835" ry="2.952"/>
			</g>
		</g>
		<circle fill="#FFFFFF" cx="192.089" cy="79.68" r="0.774"/>
	</g>
</g>
<g>
	<path opacity="0.6" fill="#394747" enable-background="new    " d="M42.449,173.268c0,0-29.972-2.891-35.453-41.721
		C1.513,92.717,14.052,49.819,28.94,28.611C43.824,7.403,68.032-3.157,88.381,50.715c20.352,53.872,12.206,91.226,2.508,102.337
		c-9.696,11.111-25.826,19.849-25.826,19.849l6.642,217.206c0,0-22.739,18.332-32.556,0.93
		C28.919,372.896,42.449,173.268,42.449,173.268z"/>
	<path fill="#C1C1C1" d="M37.764,171.93c0,0-29.971-2.89-35.453-41.721C-3.169,91.378,9.368,48.48,24.255,27.274
		C39.14,6.064,63.347-4.495,83.696,49.377c20.352,53.872,12.207,91.226,2.508,102.336c-9.697,11.111-25.827,19.849-25.827,19.849
		l5.155,216.194c0,0-21.252,19.343-31.068,1.942C24.235,371.561,37.764,171.93,37.764,171.93z"/>
	<g>
		<g>
			<path fill="#898989" d="M47.969,11.867C29.44,18.448,18.069,35.346,11.079,52.921C3.544,71.864,0.185,93.338,1.803,113.662
				c1.55,19.465,8.814,40.827,25.581,52.29c13.97,9.552,36.138,9.402,48.952-2.104c9.934-8.917,13.427-23.281,15.042-35.989
				c1.769-13.912,1.108-28.186-0.624-42.068c-1.965-15.743-6.424-31.279-13.243-45.61C71.607,27.77,62.45,13.79,48.159,10.483
				c-0.811-0.187-2.25,1.005-1.1,1.272c20.06,4.642,29.98,29.465,35.637,46.878c5.597,17.227,7.824,35.386,7.738,53.459
				c-0.084,17.693-2.335,39.98-16.818,52.173c-8.366,7.043-21.018,8.108-31.374,6.173c-10.623-1.986-19.307-9.01-25.471-17.601
				C1.365,131.36,1.375,101.861,6.088,76.97c4.675-24.691,16.507-54.678,42.227-63.813C49.439,12.759,49.124,11.459,47.969,11.867
				L47.969,11.867z"/>
		</g>
	</g>
	<g>
		<g>
			<path fill="#898989" d="M55.837,380.556c-2.3,3-3.22,6.677-5.177,9.875c-4.719,7.709-11.69,0.626-13.774-4.1
				c-3.78-8.577-3.816-19.525-4.137-28.658c-0.449-12.82,0.384-25.689,1.55-38.45c0.616-6.735,1.52-13.428,1.813-20.188
				c0.296-6.84,0.359-13.506,1.184-20.326c0.702-5.803-0.078-11.649,0.941-17.427c0.709-4.01,0.912-8.043,1.073-12.108
				c0.34-8.607,0.563-17.185,1.235-25.772c0.724-9.256,1.159-18.439,1.102-27.724c-0.054-8.618-0.927-17.51-0.195-26.097
				c0.018-0.186-1.847-0.014-1.891,0.507c-0.804,9.433,0.172,19.221,0.208,28.693c0.037,9.619-0.627,19.165-1.402,28.747
				c-0.803,9.893-0.569,19.834-1.377,29.724c-0.455,5.572-1.256,10.856-1.24,16.498c0.021,7.423-1.66,14.713-1.485,22.177
				c0.345,14.523-2.575,29.225-3.241,43.746c-0.597,13.026-0.442,26.244,1.788,39.119c1.15,6.653,3.557,15.19,11.604,15.396
				c8.5,0.219,9.225-8.692,13.282-13.986C57.77,380.102,56.167,380.124,55.837,380.556L55.837,380.556z"/>
		</g>
	</g>
	<g opacity="0.5">
		<path fill="#D6D6D6" d="M27.787,73.613c-2.133,7.657-2.022,29.528-1.594,36.849c0.639,10.757,5.104,19.696,10.919,28.64
			c6.258,9.631,14.776,16.524,25.784,19.308c4.934,1.16,11.002,1.64,15.508-1.324c6.079-3.641,7.233-12.559,8.828-18.962
			c2.053-9.373,2.988-20.126,0.771-29.516c-0.884-4.35-8.845-43.736-10.402-47.862c-1.335-3.663-2.222-8.015-4.235-11.225
			c-2.904-4.354-6.939-7.346-9.396-12.158c-2.455-4.584-4.69-9.396-10.306-10.332C41.081,24.929,30.969,62.183,27.787,73.613z"/>
	</g>
	<g opacity="0.5">
		<path fill="#D6D6D6" d="M53.411,378.336c14.21-36.203,5.742-89.425,5.742-127.575c0-19.075,4.016-45.178-1.004-63.249
			c-6.023-19.075-8.031,0-9.035,11.043c-1.004,10.039-1.004,21.083-1.004,31.122c0,28.11,0,55.218-1.004,82.324
			c0,20.079-18.891,53.98-2.828,69.04c1.004-1.004,3.227-1.961,4.23-2.965"/>
	</g>
	<g>
		<g>
			<path fill="#808088" d="M33.082,87.648c0.07-0.191,0.147-0.38,0.203-0.576c0.714-2.428,0.272-5.092-1.165-6.903
				c0.213,2.281-0.169,4.336-1.091,6.015c-0.51,0.964-1.213,1.788-2.017,2.439L33.082,87.648z"/>
			<path fill="#808088" d="M22.676,90.137c-0.315-0.064-0.632-0.14-0.947-0.242c-1.821-0.584-3.515-1.806-4.935-3.606
				c0.154,1.724,1.04,3.411,2.395,4.682L22.676,90.137z"/>
		</g>
		<path fill="#FFFFFF" d="M32.125,87.877c1.036-2.109,1.206-4.671,0.244-7.079c-1.759-4.405-6.616-6.607-10.85-4.916
			c-4.232,1.691-6.237,6.631-4.478,11.037c0.64,1.605,1.694,2.913,2.98,3.852L32.125,87.877z M23.617,81.133
			c1.447-0.578,3.106,0.176,3.707,1.682c0.601,1.503-0.083,3.192-1.529,3.771c-1.446,0.577-3.107-0.177-3.707-1.68
			C21.486,83.399,22.17,81.71,23.617,81.133z"/>
		<ellipse transform="matrix(0.9287 -0.3709 0.3709 0.9287 -29.3534 15.1575)" cx="24.738" cy="83.908" rx="2.82" ry="2.935"/>
		<circle fill="#FFFFFF" cx="26.532" cy="85.035" r="0.77"/>
	</g>
	<g>
		<g>
			<path fill="#808088" d="M63.948,87.27c-0.059-0.195-0.122-0.389-0.165-0.588c-0.555-2.469,0.057-5.099,1.608-6.814
				c-0.361,2.262-0.11,4.338,0.7,6.071c0.447,0.996,1.098,1.862,1.856,2.565L63.948,87.27z"/>
			<path fill="#808088" d="M74.176,90.422c0.317-0.043,0.639-0.101,0.96-0.181c1.855-0.465,3.622-1.575,5.157-3.281
				c-0.265,1.71-1.257,3.337-2.69,4.519L74.176,90.422z"/>
		</g>
		<path fill="#FFFFFF" d="M76.781,91.226c1.341-0.854,2.479-2.091,3.224-3.652c2.037-4.283,0.354-9.343-3.761-11.302
			c-4.116-1.959-9.104-0.075-11.141,4.208c-1.116,2.341-1.112,4.909-0.214,7.081L76.781,91.226z M75.101,85.239
			c-0.698,1.462-2.404,2.108-3.808,1.439c-1.408-0.67-1.982-2.4-1.284-3.863s2.398-2.108,3.806-1.439
			C75.22,82.045,75.796,83.775,75.101,85.239z"/>
		<ellipse transform="matrix(-0.9029 -0.4298 0.4298 -0.9029 101.8649 191.157)" cx="72.522" cy="84.073" rx="2.819" ry="2.935"/>
		<circle fill="#FFFFFF" cx="70.654" cy="85.083" r="0.77"/>
	</g>
	<path fill="#191C1C" d="M16.413,110.5h68.806c0,0-1.312,50.047-34.404,50.047C17.723,160.546,16.413,110.5,16.413,110.5z"/>
</g>
<g>
	<path opacity="0.6" fill="#394747" enable-background="new    " d="M762.449,173.268c0,0-29.972-2.89-35.453-41.722
		c-5.48-38.831,7.06-81.729,21.945-102.935c14.884-21.208,39.092-31.768,59.44,22.104c20.351,53.872,12.206,91.226,2.509,102.337
		c-9.697,11.111-25.828,19.85-25.828,19.85l6.642,217.208c0,0-22.74,18.331-32.555,0.931
		C748.919,372.902,762.449,173.268,762.449,173.268z"/>
	<path fill="#C1C1C1" d="M757.764,171.93c0,0-29.972-2.89-35.453-41.721c-5.48-38.831,7.06-81.729,21.945-102.936
		c14.885-21.208,39.092-31.768,59.44,22.104c20.351,53.872,12.206,91.226,2.509,102.336c-9.696,11.111-25.828,19.85-25.828,19.85
		l5.155,216.198c0,0-21.254,19.342-31.066,1.94C744.234,371.563,757.764,171.93,757.764,171.93z"/>
	<g>
		<g>
			<path fill="#898989" d="M767.817,12.299c-18.471,6.558-29.797,23.374-36.765,40.894c-7.646,19.223-11.027,41.207-9.123,61.82
				c1.813,19.62,9.567,41.267,27.223,51.918c13.658,8.241,34.349,7.46,46.696-2.935c10.362-8.723,13.892-23.498,15.521-36.317
				c1.762-13.853,1.113-28.065-0.611-41.889c-1.963-15.742-6.422-31.279-13.24-45.61c-5.859-12.312-14.966-26.152-29.126-29.429
				c-0.441-0.103-2.098,0.608-1.562,0.733c19.801,4.581,29.728,28.718,35.476,45.934c5.661,16.957,8.001,34.787,8.146,52.62
				c0.145,17.775-1.74,39.411-14.896,52.78c-8.601,8.742-22.551,10.186-34.031,7.683c-10.274-2.241-18.663-9.121-24.674-17.502
				c-15.453-21.542-15.515-51.152-10.787-76.126c4.697-24.808,16.572-54.975,42.406-64.149
				C769.748,12.273,768.535,12.044,767.817,12.299L767.817,12.299z"/>
		</g>
	</g>
	<g>
		<g>
			<path fill="#898989" d="M775.838,380.558c-2.298,3.001-3.22,6.677-5.176,9.876c-4.72,7.708-11.692,0.626-13.774-4.1
				c-3.782-8.579-3.818-19.526-4.137-28.66c-0.45-12.819,0.385-25.689,1.55-38.451c0.613-6.733,1.519-13.426,1.813-20.188
				c0.297-6.841,0.36-13.505,1.186-20.326c0.701-5.803-0.079-11.648,0.942-17.426c0.709-4.009,0.911-8.044,1.069-12.108
				c0.341-8.607,0.565-17.184,1.234-25.773c0.725-9.255,1.161-18.44,1.104-27.724c-0.056-8.619-0.929-17.511-0.194-26.099
				c0.016-0.185-1.848-0.014-1.893,0.507c-0.806,9.433,0.173,19.222,0.207,28.694c0.035,9.62-0.627,19.165-1.401,28.746
				c-0.801,9.894-0.57,19.836-1.377,29.726c-0.455,5.569-1.257,10.856-1.239,16.497c0.021,7.424-1.658,14.714-1.484,22.178
				c0.342,14.523-2.576,29.224-3.242,43.746c-0.598,13.025-0.442,26.246,1.786,39.119c1.153,6.653,3.559,15.192,11.606,15.397
				c8.501,0.22,9.225-8.694,13.281-13.988C777.772,380.104,776.168,380.126,775.838,380.558L775.838,380.558z"/>
		</g>
	</g>
	<g opacity="0.5">
		<path fill="#D6D6D6" d="M747.787,73.613c-2.134,7.657-2.021,29.528-1.594,36.849c0.639,10.757,5.104,19.696,10.918,28.64
			c6.26,9.632,14.776,16.525,25.785,19.307c4.934,1.161,11.002,1.64,15.508-1.324c6.079-3.641,7.233-12.559,8.828-18.963
			c2.053-9.374,2.989-20.127,0.771-29.517c-0.885-4.35-8.847-43.735-10.401-47.863c-1.337-3.662-2.222-8.013-4.236-11.225
			c-2.905-4.355-6.938-7.346-9.397-12.158c-2.455-4.585-4.688-9.397-10.306-10.332C761.084,24.929,750.969,62.183,747.787,73.613z"
			/>
	</g>
	<g opacity="0.5">
		<path fill="#D6D6D6" d="M773.412,378.34c14.21-36.204,5.742-89.425,5.742-127.575c0-19.075,4.017-45.18-1.004-63.25
			c-6.023-19.075-8.031,0-9.035,11.043c-1.004,10.039-1.004,21.083-1.004,31.124c0,28.11,0,55.218-1.004,82.324
			c0,20.079-18.893,53.98-2.83,69.039c1.005-1.004,3.229-1.96,4.232-2.964"/>
	</g>
	<path fill="#8A898C" d="M746.018,144.079c0.516-0.903,1.531-1.61,2.248-2.393c0.72-0.78,1.242-0.626,2.279-1.165
		c0.521-0.257,1.459,0.035,2.126,0c0.661-0.042,0.961,0.713,1.561,1.067c0.659,0.41,0.916,0.693,1.335,0.98
		c0.393,0.289,0.791,0.563,1.197,0.816c0.815,0.505,1.654,0.939,2.483,1.26c0.824,0.312,1.675,0.472,2.291,0.358
		c0.153-0.023,0.287-0.074,0.412-0.118c0.056-0.017,0.133-0.058,0.161-0.071c0.122-0.064,0.225-0.121,0.281-0.158
		c0.339-0.204,0.725-0.484,1.132-0.787c0.825-0.583,1.763-1.392,3.271-1.734c0.742-0.158,1.583-0.094,2.291,0.141
		c0.692,0.214,1.355,0.66,1.694,0.879c0.729,0.468,1.598,0.875,2.462,1.221c0.865,0.346,1.789,0.637,2.656,0.794
		c0.212,0.04,0.422,0.066,0.583,0.075c0.072,0.006,0.152,0.002,0.119,0.01c-0.01,0.009-0.078,0.01-0.237,0.108
		c-0.18,0.122,0.015-0.012-0.086,0.058c-0.045,0.031-0.128,0.117-0.118,0.109c-0.021,0.027-0.021,0.03-0.021,0.034
		c0.056-0.045,0.218-0.292,0.35-0.493l0.447-0.673c0.318-0.459,0.67-0.925,1.116-1.365c0.444-0.432,1.004-0.872,1.748-1.074
		c0.741-0.217,1.496-0.791,2.089-0.479c0.605,0.309,1.597,1.144,1.976,1.569c1.316,1.719,1.995,1.551,3.13,3.317
		c-1.613-1.267-3.169-0.656-4.653-1.928c-0.354-0.282-0.731-0.509-1.069-0.605c-0.346-0.097-0.595-0.063-0.826,0.059
		c-0.479,0.236-1.023,0.949-1.441,1.774l-0.328,0.653c-0.126,0.241-0.206,0.445-0.452,0.816c-0.039,0.055-0.079,0.107-0.147,0.182
		c-0.01,0.017-0.115,0.124-0.187,0.177c-0.123,0.092,0.046-0.023-0.162,0.116c-0.272,0.159-0.463,0.2-0.6,0.231
		c-0.283,0.059-0.463,0.064-0.646,0.071c-0.354,0.007-0.653-0.014-0.947-0.043c-1.163-0.126-2.224-0.388-3.284-0.723
		c-1.062-0.347-2.069-0.789-3.091-1.383c-0.523-0.328-0.726-0.449-1.018-0.544c-0.271-0.078-0.481-0.089-0.739-0.036
		c-0.523,0.073-1.274,0.553-2.102,1.146c-0.422,0.297-0.869,0.616-1.414,0.928c-0.163,0.091-0.29,0.155-0.395,0.208
		c-0.201,0.097-0.358,0.166-0.547,0.228c-0.354,0.125-0.728,0.193-1.078,0.224c-1.438,0.11-2.628-0.301-3.681-0.772
		c-1.061-0.481-1.984-1.111-2.831-1.797c-0.426-0.342-0.834-0.699-1.228-1.067c-0.389-0.346-0.826-0.827-1.015-0.998
		c-0.478-0.441-1.234-0.527-2.107-0.275C749.252,143.516,747.573,142.753,746.018,144.079z"/>
	<path d="M746.018,144.079c0.516-0.903,1.146-1.742,1.86-2.525c0.718-0.779,1.538-1.495,2.575-2.032
		c0.521-0.258,1.114-0.453,1.782-0.488c0.663-0.04,1.396,0.126,1.994,0.481c0.659,0.41,0.916,0.692,1.335,0.98
		c0.393,0.289,0.791,0.562,1.197,0.816c0.815,0.505,1.654,0.939,2.483,1.26c0.824,0.313,1.675,0.472,2.29,0.357
		c0.153-0.023,0.288-0.073,0.413-0.116c0.056-0.018,0.133-0.059,0.16-0.071c0.123-0.065,0.226-0.121,0.282-0.158
		c0.339-0.204,0.725-0.483,1.132-0.786c0.825-0.583,1.763-1.392,3.271-1.735c0.743-0.159,1.584-0.094,2.292,0.141
		c0.692,0.213,1.356,0.659,1.694,0.878c0.729,0.468,1.598,0.875,2.462,1.221c0.865,0.347,1.789,0.639,2.656,0.794
		c0.212,0.038,0.422,0.066,0.583,0.075c0.072,0.006,0.152,0.003,0.119,0.01c-0.01,0.009-0.078,0.01-0.237,0.108
		c-0.18,0.122,0.016-0.012-0.086,0.058c-0.045,0.031-0.128,0.118-0.118,0.11c-0.021,0.027-0.021,0.03-0.021,0.034
		c0.056-0.044,0.218-0.292,0.35-0.493l0.447-0.673c0.317-0.458,0.67-0.926,1.117-1.366c0.443-0.431,1.004-0.871,1.747-1.073
		c0.741-0.218,1.578-0.082,2.169,0.231c0.605,0.309,1.053,0.719,1.432,1.146c1.318,1.719,2.459,3.34,3.594,5.105
		c-1.613-1.267-3.169-2.732-4.653-4.001c-0.354-0.283-0.731-0.509-1.068-0.605c-0.347-0.097-0.596-0.063-0.827,0.06
		c-0.479,0.235-1.023,0.948-1.441,1.773l-0.329,0.653c-0.126,0.241-0.204,0.445-0.451,0.815c-0.039,0.055-0.079,0.107-0.147,0.183
		c-0.01,0.017-0.115,0.124-0.187,0.177c-0.123,0.092,0.046-0.023-0.162,0.117c-0.272,0.158-0.463,0.2-0.599,0.231
		c-0.284,0.061-0.464,0.063-0.646,0.071c-0.354,0.008-0.651-0.014-0.946-0.043c-1.164-0.126-2.225-0.389-3.285-0.724
		c-1.062-0.348-2.068-0.79-3.091-1.383c-0.525-0.328-0.726-0.449-1.018-0.544c-0.271-0.078-0.481-0.089-0.739-0.035
		c-0.525,0.072-1.274,0.552-2.102,1.146c-0.422,0.296-0.869,0.616-1.414,0.926c-0.163,0.092-0.29,0.157-0.395,0.209
		c-0.201,0.097-0.358,0.166-0.546,0.228c-0.355,0.125-0.729,0.194-1.079,0.225c-1.438,0.109-2.628-0.302-3.681-0.773
		c-1.061-0.481-1.984-1.11-2.831-1.796c-0.426-0.343-0.834-0.7-1.228-1.068c-0.389-0.346-0.826-0.827-1.015-0.998
		c-0.478-0.44-1.234-0.528-2.107-0.275C749.252,141.441,747.573,142.753,746.018,144.079z"/>
	<g>
		<g>
			<g>
				<path fill="#8A898C" d="M790.759,70.022c0.661,3.002,0.087,6.58-1.473,9.279c-1.551,2.723-4.072,4.499-6.788,4.466
					c-1.225-0.002-2.604-0.411-3.749-1.192c-1.165-0.783-2.188-1.913-2.96-3.271c-1.56-2.697-2.134-6.279-1.472-9.282
					c0.649,2.979,1.766,5.371,3.236,7.021c1.476,1.662,3.173,2.531,5.028,2.531c1.692,0.005,3.512-0.864,4.949-2.525
					C789.002,75.399,790.117,73.003,790.759,70.022z"/>
				<g>
					<ellipse fill="#FFFFFF" cx="782.54" cy="70.022" rx="8.22" ry="11.648"/>
					<ellipse cx="782.542" cy="70.022" rx="2.81" ry="3.981"/>
				</g>
			</g>
			<circle fill="#FFFFFF" cx="781.004" cy="67.279" r="0.769"/>
		</g>
	</g>
	<g>
		<g>
			<g>
				<path fill="#8A898C" d="M758.464,70.022c0.659,3.002,0.084,6.58-1.473,9.279c-1.551,2.723-4.075,4.499-6.788,4.466
					c-1.228-0.002-2.605-0.411-3.749-1.192c-1.167-0.783-2.188-1.913-2.963-3.271c-1.56-2.697-2.134-6.279-1.469-9.282
					c0.648,2.979,1.763,5.371,3.234,7.021c1.476,1.662,3.174,2.531,5.028,2.531c1.692,0.005,3.511-0.864,4.951-2.525
					C756.707,75.399,757.82,73.003,758.464,70.022z"/>
				<g>
					<ellipse fill="#FFFFFF" cx="750.245" cy="70.022" rx="8.22" ry="11.648"/>
					<ellipse cx="750.246" cy="70.022" rx="2.81" ry="3.981"/>
				</g>
			</g>
			<circle fill="#FFFFFF" cx="748.708" cy="67.279" r="0.768"/>
		</g>
	</g>
</g>
<g>
	<path opacity="0.6" fill="#394747" enable-background="new    " d="M882.449,173.267c0,0-29.972-2.891-35.453-41.721
		c-5.48-38.83,7.06-81.728,21.944-102.934c14.885-21.208,39.093-31.768,59.441,22.104c20.35,53.871,12.206,91.225,2.508,102.335
		c-9.695,11.111-25.826,19.85-25.826,19.85l6.64,217.206c0,0-22.738,18.33-32.553,0.93
		C868.919,372.896,882.449,173.267,882.449,173.267z"/>
	<path fill="#C1C1C1" d="M877.764,171.928c0,0-29.972-2.89-35.453-41.721c-5.48-38.83,7.06-81.728,21.945-102.934
		c14.884-21.208,39.092-31.768,59.44,22.104c20.351,53.871,12.206,91.225,2.508,102.335c-9.695,11.111-25.826,19.85-25.826,19.85
		l5.155,216.194c0,0-21.254,19.344-31.066,1.943C864.234,371.56,877.764,171.928,877.764,171.928z"/>
	<g>
		<g>
			<path fill="#898989" d="M887.815,12.3c-18.469,6.558-29.796,23.374-36.765,40.894c-7.644,19.222-11.025,41.206-9.122,61.819
				c1.813,19.62,9.567,41.266,27.223,51.918c13.658,8.241,34.349,7.46,46.695-2.935c10.362-8.723,13.893-23.498,15.521-36.316
				c1.762-13.854,1.112-28.065-0.611-41.889c-1.964-15.742-6.423-31.279-13.241-45.609c-5.859-12.313-14.964-26.152-29.125-29.429
				c-0.44-0.103-2.099,0.608-1.562,0.733c19.801,4.581,29.727,28.718,35.475,45.934c5.662,16.957,8.001,34.786,8.146,52.62
				c0.144,17.775-1.741,39.411-14.896,52.779c-8.601,8.742-22.551,10.186-34.03,7.683c-10.274-2.241-18.663-9.121-24.673-17.502
				c-15.453-21.542-15.516-51.152-10.788-76.125c4.697-24.808,16.572-54.975,42.406-64.149
				C889.747,12.273,888.534,12.045,887.815,12.3L887.815,12.3z"/>
		</g>
	</g>
	<g>
		<g>
			<path fill="#898989" d="M895.838,380.554c-2.3,3.001-3.22,6.678-5.177,9.877c-4.72,7.71-11.691,0.625-13.775-4.101
				c-3.78-8.578-3.816-19.525-4.136-28.659c-0.45-12.819,0.384-25.69,1.55-38.451c0.613-6.733,1.519-13.426,1.813-20.188
				c0.298-6.84,0.36-13.504,1.186-20.326c0.701-5.802-0.078-11.648,0.942-17.424c0.709-4.01,0.91-8.043,1.069-12.11
				c0.341-8.605,0.565-17.183,1.235-25.772c0.725-9.254,1.16-18.439,1.104-27.723c-0.056-8.619-0.928-17.511-0.194-26.098
				c0.017-0.186-1.848-0.014-1.894,0.507c-0.804,9.433,0.174,19.222,0.208,28.694c0.036,9.62-0.628,19.166-1.402,28.746
				c-0.8,9.893-0.568,19.836-1.375,29.727c-0.455,5.568-1.257,10.854-1.24,16.496c0.021,7.422-1.658,14.714-1.484,22.177
				c0.343,14.524-2.575,29.225-3.242,43.746c-0.598,13.026-0.442,26.244,1.787,39.119c1.152,6.652,3.558,15.19,11.606,15.396
				c8.5,0.22,9.224-8.692,13.28-13.987C897.77,380.101,896.168,380.121,895.838,380.554L895.838,380.554z"/>
		</g>
	</g>
	<g opacity="0.5">
		<path fill="#D6D6D6" d="M867.788,73.614c-2.134,7.657-2.022,29.528-1.596,36.849c0.641,10.757,5.104,19.696,10.918,28.64
			c6.261,9.631,14.778,16.525,25.786,19.307c4.934,1.161,11.002,1.64,15.508-1.323c6.079-3.642,7.233-12.56,8.828-18.963
			c2.053-9.373,2.988-20.126,0.771-29.516c-0.884-4.35-8.847-43.735-10.401-47.862c-1.337-3.662-2.222-8.013-4.235-11.225
			c-2.905-4.355-6.939-7.346-9.398-12.158c-2.454-4.585-4.688-9.396-10.304-10.332C881.081,24.93,870.97,62.183,867.788,73.614z"/>
	</g>
	<g opacity="0.5">
		<path fill="#D6D6D6" d="M893.412,378.334c14.209-36.202,5.741-89.424,5.741-127.573c0-19.075,4.016-45.178-1.004-63.249
			c-6.023-19.075-8.031,0-9.035,11.043c-1.004,10.039-1.004,21.082-1.004,31.122c0,28.11,0,55.217-1.005,82.323
			c0,20.079-18.891,53.981-2.828,69.041c1.004-1.004,3.228-1.961,4.231-2.965"/>
	</g>
	<ellipse cx="908" cy="66.69" rx="1.55" ry="2.028"/>
	<path fill="#8A898C" d="M879.554,158.097h22.005c0,0,0.361-2.01-0.028-4.692c-0.754-5.151-4.027-12.598-10.975-12.598
		c-6.293,0-9.524,6.287-10.682,11.243C879.088,155.429,879.554,158.097,879.554,158.097z"/>
	<path d="M879.554,153.946h22.005c0,0-0.418-17.29-11.003-17.29C879.974,136.658,879.554,153.946,879.554,153.946z"/>
	<g>
		<g>
			<path fill="#8A898C" d="M869.689,69.655c0.605,2.758,0.077,6.045-1.353,8.525c-1.429,2.5-3.744,4.132-6.238,4.1
				c-1.123-0.002-2.391-0.376-3.445-1.096c-1.069-0.718-2.011-1.757-2.72-3.002c-1.435-2.479-1.959-5.77-1.352-8.528
				c0.596,2.737,1.618,4.935,2.971,6.451c1.355,1.525,2.914,2.323,4.62,2.323c1.555,0.006,3.226-0.793,4.546-2.321
				C868.073,74.593,869.097,72.392,869.689,69.655z"/>
			<g>
				<ellipse fill="#FFFFFF" cx="862.135" cy="69.656" rx="7.552" ry="10.7"/>
				<ellipse cx="862.135" cy="69.656" rx="2.579" ry="3.654"/>
			</g>
		</g>
		<circle fill="#FFFFFF" cx="860.725" cy="67.133" r="0.705"/>
	</g>
	<g>
		<g>
			<path fill="#8A898C" d="M921.005,69.655c0.606,2.758,0.078,6.045-1.354,8.525c-1.425,2.5-3.742,4.132-6.235,4.1
				c-1.125-0.002-2.393-0.376-3.446-1.096c-1.069-0.718-2.01-1.757-2.721-3.002c-1.433-2.479-1.959-5.77-1.351-8.528
				c0.597,2.737,1.62,4.935,2.971,6.451c1.356,1.525,2.918,2.323,4.621,2.323c1.556,0.006,3.227-0.793,4.547-2.321
				C919.39,74.593,920.414,72.392,921.005,69.655z"/>
			<g>
				<ellipse fill="#FFFFFF" cx="913.453" cy="69.656" rx="7.551" ry="10.7"/>
				<ellipse cx="913.453" cy="69.656" rx="2.58" ry="3.654"/>
			</g>
		</g>
		<circle fill="#FFFFFF" cx="912.042" cy="67.133" r="0.705"/>
	</g>
</g>
<g>
	<path opacity="0.6" fill="#394747" enable-background="new    " d="M1002.449,173.266c0,0-29.972-2.89-35.453-41.721
		c-5.48-38.83,7.059-81.728,21.944-102.934c14.885-21.208,39.092-31.767,59.44,22.104c20.352,53.871,12.206,91.225,2.508,102.335
		c-9.695,11.111-25.826,19.848-25.826,19.848l6.642,217.205c0,0-22.739,18.331-32.556,0.932
		C988.919,372.896,1002.449,173.266,1002.449,173.266z"/>
	<path fill="#C1C1C1" d="M997.764,171.927c0,0-29.972-2.889-35.453-41.721c-5.48-38.83,7.06-81.728,21.944-102.934
		c14.885-21.208,39.092-31.768,59.44,22.103c20.352,53.872,12.206,91.225,2.508,102.335c-9.695,11.112-25.825,19.849-25.825,19.849
		l5.154,216.194c0,0-21.253,19.342-31.066,1.942C984.234,371.56,997.764,171.927,997.764,171.927z"/>
	<g>
		<g>
			<path fill="#898989" d="M1007.815,12.3c-18.469,6.559-29.797,23.374-36.765,40.894c-7.644,19.223-11.025,41.206-9.122,61.819
				c1.813,19.62,9.566,41.266,27.223,51.917c13.658,8.241,34.348,7.46,46.695-2.935c10.361-8.723,13.892-23.497,15.521-36.315
				c1.761-13.854,1.111-28.065-0.61-41.889c-1.964-15.742-6.423-31.279-13.242-45.609c-5.857-12.311-14.963-26.153-29.123-29.429
				c-0.441-0.103-2.099,0.608-1.562,0.733c19.801,4.581,29.727,28.718,35.474,45.933c5.662,16.957,8.003,34.787,8.146,52.621
				c0.146,17.775-1.74,39.41-14.895,52.779c-8.601,8.742-22.551,10.186-34.03,7.682C991.25,168.261,982.86,161.38,976.85,153
				c-15.453-21.542-15.515-51.152-10.787-76.125c4.697-24.807,16.572-54.974,42.406-64.148
				C1009.747,12.273,1008.535,12.044,1007.815,12.3L1007.815,12.3z"/>
		</g>
	</g>
	<g>
		<g>
			<path fill="#898989" d="M1015.836,380.554c-2.299,2.999-3.219,6.677-5.175,9.874c-4.72,7.708-11.691,0.626-13.775-4.1
				c-3.78-8.576-3.816-19.523-4.136-28.657c-0.45-12.822,0.384-25.691,1.55-38.453c0.613-6.733,1.519-13.426,1.813-20.186
				c0.297-6.84,0.36-13.506,1.186-20.325c0.702-5.805-0.079-11.65,0.942-17.427c0.709-4.009,0.91-8.043,1.069-12.109
				c0.341-8.606,0.565-17.183,1.235-25.773c0.725-9.254,1.16-18.438,1.103-27.723c-0.056-8.619-0.927-17.511-0.193-26.097
				c0.017-0.185-1.849-0.014-1.894,0.507c-0.804,9.433,0.174,19.222,0.208,28.693c0.036,9.62-0.628,19.163-1.401,28.746
				c-0.801,9.894-0.569,19.837-1.376,29.725c-0.455,5.57-1.257,10.855-1.24,16.497c0.021,7.424-1.658,14.714-1.483,22.176
				c0.342,14.524-2.577,29.225-3.242,43.747c-0.598,13.025-0.442,26.245,1.787,39.117c1.151,6.654,3.558,15.193,11.605,15.398
				c8.502,0.218,9.225-8.693,13.281-13.988C1017.77,380.099,1016.168,380.121,1015.836,380.554L1015.836,380.554z"/>
		</g>
	</g>
	<g opacity="0.5">
		<path fill="#D6D6D6" d="M987.788,73.613c-2.134,7.657-2.024,29.528-1.596,36.849c0.641,10.756,5.104,19.696,10.918,28.641
			c6.26,9.631,14.777,16.525,25.786,19.307c4.934,1.16,11.002,1.64,15.508-1.324c6.078-3.641,7.232-12.559,8.828-18.963
			c2.053-9.373,2.988-20.125,0.771-29.516c-0.885-4.35-8.847-43.735-10.401-47.862c-1.338-3.663-2.223-8.014-4.236-11.224
			c-2.904-4.355-6.939-7.347-9.397-12.158c-2.454-4.586-4.688-9.398-10.305-10.333C1001.082,24.929,990.969,62.183,987.788,73.613z"
			/>
	</g>
	<g opacity="0.5">
		<path fill="#D6D6D6" d="M1013.411,378.334c14.21-36.203,5.742-89.423,5.742-127.573c0-19.074,4.016-45.179-1.004-63.25
			c-6.024-19.075-8.032,0-9.036,11.043c-1.004,10.039-1.004,21.082-1.004,31.124c0,28.11,0,55.216-1.004,82.322
			c0,20.079-18.892,53.979-2.828,69.039c1.004-1.004,3.228-1.961,4.231-2.965"/>
	</g>
	<g>
		<path fill="none" stroke="#000000" stroke-width="2.0079" stroke-linecap="round" stroke-miterlimit="10" d="M983.777,148.917
			c2.756-9.057,13.151-14.11,24.131-14.124c10.709-0.011,21.416,5.642,24.168,14.063"/>
		<g>
			<path fill="#8A898C" d="M992.787,71.696c0.664,2.227,0.084,4.879-1.487,6.882c-1.568,2.018-4.114,3.335-6.853,3.31
				c-1.236-0.001-2.627-0.303-3.785-0.883c-1.178-0.581-2.208-1.418-2.991-2.424c-1.571-2.002-2.154-4.658-1.483-6.885
				c0.654,2.209,1.778,3.983,3.265,5.207c1.487,1.232,3.203,1.876,5.077,1.876c1.707,0.005,3.543-0.64,4.998-1.873
				C991.013,75.683,992.134,73.907,992.787,71.696z"/>
			<path fill="#FFFFFF" d="M988.597,64.198l-10.134,1.568c-1.407,1.547-2.277,3.631-2.277,5.932c0,4.77,3.715,8.638,8.301,8.638
				c4.585,0,8.301-3.867,8.301-8.638C992.787,68.483,991.099,65.685,988.597,64.198z"/>
			<path d="M981.946,65.227c-0.183,0.39-0.294,0.822-0.294,1.284c0,1.629,1.269,2.952,2.835,2.952s2.835-1.322,2.835-2.952
				c0-0.774-0.292-1.472-0.759-1.998L981.946,65.227z"/>
			<circle fill="#FFFFFF" cx="985.718" cy="65.775" r="0.774"/>
		</g>
		<g>
			<path fill="#8A898C" d="M1024.373,71.696c-0.665,2.227-0.085,4.879,1.487,6.882c1.567,2.018,4.114,3.335,6.852,3.31
				c1.237-0.001,2.628-0.303,3.785-0.883c1.178-0.581,2.208-1.418,2.991-2.424c1.573-2.002,2.154-4.658,1.483-6.885
				c-0.653,2.209-1.778,3.983-3.265,5.207c-1.487,1.232-3.203,1.876-5.076,1.876c-1.708,0.005-3.543-0.64-4.997-1.873
				C1026.147,75.683,1025.025,73.907,1024.373,71.696z"/>
			<path fill="#FFFFFF" d="M1028.562,64.198l10.135,1.568c1.407,1.547,2.276,3.631,2.276,5.932c0,4.77-3.716,8.638-8.3,8.638
				c-4.586,0-8.302-3.867-8.302-8.638C1024.373,68.483,1026.062,65.685,1028.562,64.198z"/>
			<path d="M1035.216,65.227c0.184,0.39,0.292,0.822,0.292,1.284c0,1.629-1.27,2.952-2.834,2.952c-1.567,0-2.835-1.322-2.835-2.952
				c0-0.774,0.292-1.472,0.762-1.998L1035.216,65.227z"/>
			<circle fill="#FFFFFF" cx="1031.443" cy="65.775" r="0.774"/>
		</g>
	</g>
</g>
</svg>
