<?xml version="1.0" encoding="utf-8"?>
<!-- Generator: Adobe Illustrator 16.0.0, SVG Export Plug-In . SVG Version: 6.00 Build 0)  -->
<!DOCTYPE svg PUBLIC "-//W3C//DTD SVG 1.1//EN" "http://www.w3.org/Graphics/SVG/1.1/DTD/svg11.dtd">
<svg version="1.1" id="Layer_1" xmlns="http://www.w3.org/2000/svg" xmlns:xlink="http://www.w3.org/1999/xlink" x="0px" y="0px"
	 width="1200px" height="400px" viewBox="0 0 1200 400" enable-background="new 0 0 1200 400" xml:space="preserve">
<g>
	<path opacity="0.6" fill="#394747" enable-background="new    " d="M401.288,169.197c0,0-29.854-2.879-35.315-41.557
		c-5.459-38.678,7.031-81.407,21.858-102.53c14.826-21.125,38.939-31.643,59.207,22.017c20.271,53.66,12.16,90.867,2.5,101.934
		c-9.659,11.067-25.727,19.771-25.727,19.771l6.617,216.354c0,0-22.65,18.258-32.429,0.926
		C387.812,368.043,401.288,169.197,401.288,169.197z"/>
	<path fill="#C1C1C1" d="M396.622,167.864c0,0-29.854-2.879-35.315-41.557c-5.459-38.678,7.031-81.407,21.858-102.53
		c14.826-21.125,38.939-31.643,59.207,22.017c20.271,53.66,12.16,90.867,2.5,101.934c-9.659,11.067-25.727,19.771-25.727,19.771
		l5.135,215.345c0,0-21.168,19.266-30.944,1.934C383.146,366.71,396.622,167.864,396.622,167.864z"/>
	<g>
		<g>
			<path fill="#898989" d="M406.786,8.433c-18.457,6.555-29.781,23.386-36.744,40.891c-7.506,18.869-10.852,40.258-9.239,60.503
				c1.544,19.388,8.78,40.666,25.48,52.084c13.915,9.514,35.995,9.365,48.762-2.096c9.893-8.882,13.372-23.19,14.981-35.847
				c1.761-13.857,1.104-28.076-0.623-41.904c-1.956-15.681-6.396-31.156-13.188-45.43c-5.884-12.362-15.003-26.287-29.24-29.581
				c-0.805-0.186-2.24,1.001-1.094,1.267c19.979,4.622,29.862,29.349,35.498,46.693c5.573,17.159,7.791,35.247,7.706,53.249
				c-0.084,17.625-2.326,39.823-16.752,51.968c-8.334,7.016-20.938,8.077-31.252,6.149c-10.579-1.978-19.231-8.974-25.37-17.531
				c-15.346-21.393-15.334-50.776-10.642-75.57c4.656-24.594,16.442-54.463,42.063-63.561C408.251,9.32,407.935,8.025,406.786,8.433
				L406.786,8.433z"/>
		</g>
	</g>
	<g>
		<g>
			<path fill="#898989" d="M414.622,375.67c-2.289,2.989-3.205,6.652-5.154,9.837c-4.701,7.679-11.646,0.624-13.721-4.084
				c-3.766-8.543-3.801-19.448-4.121-28.546c-0.448-12.77,0.384-25.588,1.546-38.299c0.611-6.708,1.512-13.374,1.804-20.109
				c0.296-6.813,0.357-13.451,1.181-20.246c0.698-5.779-0.078-11.603,0.938-17.356c0.706-3.994,0.906-8.011,1.066-12.062
				c0.34-8.574,0.562-17.115,1.23-25.672c0.723-9.217,1.156-18.365,1.099-27.614c-0.054-8.585-0.923-17.442-0.193-25.996
				c0.016-0.185-1.841-0.014-1.885,0.505c-0.802,9.396,0.172,19.146,0.207,28.581c0.036,9.581-0.625,19.088-1.396,28.633
				c-0.799,9.854-0.567,19.758-1.372,29.609c-0.453,5.547-1.251,10.813-1.235,16.43c0.021,7.394-1.652,14.658-1.478,22.091
				c0.342,14.466-2.567,29.108-3.229,43.573c-0.596,12.975-0.439,26.142,1.781,38.966c1.147,6.628,3.543,15.131,11.559,15.337
				c8.468,0.218,9.188-8.66,13.228-13.934C416.549,375.218,414.952,375.24,414.622,375.67L414.622,375.67z"/>
		</g>
	</g>
	<g opacity="0.5">
		<path fill="#D6D6D6" d="M386.683,69.936c-2.125,7.627-2.012,29.412-1.588,36.704c0.637,10.715,5.084,19.618,10.877,28.527
			c6.233,9.594,14.719,16.46,25.682,19.231c4.916,1.156,10.959,1.634,15.447-1.318c6.055-3.627,7.207-12.51,8.795-18.889
			c2.043-9.336,2.977-20.047,0.766-29.4c-0.879-4.333-8.811-43.563-10.36-47.674c-1.332-3.648-2.213-7.982-4.22-11.181
			c-2.893-4.338-6.911-7.317-9.36-12.11c-2.445-4.567-4.67-9.36-10.265-10.291C399.927,21.442,389.853,58.55,386.683,69.936z"/>
	</g>
	<g>
		<path fill="#89878A" d="M427.993,78.717c-4.121,0-7.571-3.124-8.553-7.345h-0.289c0,5.405,2.205,10.537,8.842,10.537
			c6.297,0,8.843-5.132,8.843-10.537h-0.289C435.564,75.593,432.112,78.717,427.993,78.717z"/>
		<ellipse fill="#89878A" cx="402.513" cy="142.83" rx="5.104" ry="5.311"/>
		<ellipse cx="402.513" cy="142.83" rx="2.824" ry="2.939"/>
		<path fill="none" stroke="#000000" stroke-width="1.2442" stroke-linecap="round" stroke-miterlimit="10" d="M436.278,70.372
			c0,4.751-3.701,8.604-8.268,8.604c-4.567,0-8.269-3.853-8.269-8.604"/>
		<path fill="#89878A" d="M381.862,78.717c-4.121,0-7.572-3.124-8.555-7.345h-0.289c0,5.405,2.207,10.537,8.844,10.537
			c6.295,0,8.84-5.132,8.84-10.537h-0.289C389.433,75.593,385.981,78.717,381.862,78.717z"/>
		<path fill="none" stroke="#000000" stroke-width="1.2442" stroke-linecap="round" stroke-miterlimit="10" d="M390.147,70.372
			c0,4.751-3.701,8.604-8.268,8.604c-4.567,0-8.269-3.853-8.269-8.604"/>
	</g>
	<g opacity="0.5">
		<path fill="#D6D6D6" d="M412.208,373.459c14.154-36.061,5.718-89.072,5.718-127.072c0-19,4-45-1-63c-6-19-8,0-9,11
			c-1,10-1,21-1,31c0,28,0,55-1,82c0,20-18.816,53.768-2.816,68.768c1-1,3.213-1.952,4.213-2.952"/>
	</g>
</g>
<g>
	<path opacity="0.6" fill="#394747" enable-background="new    " d="M641.286,170.625c0,0-29.854-2.879-35.314-41.557
		c-5.459-38.678,7.031-81.407,21.859-102.53c14.826-21.125,38.938-31.643,59.207,22.017c20.271,53.66,12.158,90.867,2.498,101.934
		c-9.658,11.067-25.725,19.771-25.725,19.771l6.614,216.353c0,0-22.649,18.258-32.426,0.926
		C627.81,369.471,641.286,170.625,641.286,170.625z"/>
	<path fill="#C1C1C1" d="M636.62,169.292c0,0-29.854-2.879-35.313-41.557c-5.459-38.678,7.03-81.407,21.858-102.53
		c14.826-21.125,38.938-31.643,59.207,22.017c20.271,53.66,12.158,90.867,2.498,101.934c-9.658,11.067-25.725,19.771-25.725,19.771
		l5.135,215.345c0,0-21.17,19.267-30.945,1.935C623.144,368.138,636.62,169.292,636.62,169.292z"/>
	<g>
		<g>
			<path fill="#898989" d="M646.632,10.291c-18.396,6.533-29.679,23.282-36.62,40.733c-7.614,19.147-10.982,41.044-9.087,61.576
				c1.807,19.543,9.53,41.104,27.116,51.714c13.605,8.209,34.213,7.431,46.512-2.923c10.321-8.689,13.838-23.405,15.461-36.174
				c1.754-13.799,1.107-27.955-0.609-41.724c-1.956-15.68-6.398-31.156-13.19-45.43c-5.835-12.263-14.903-26.049-29.009-29.313
				c-0.439-0.102-2.09,0.606-1.555,0.73c19.722,4.563,29.609,28.605,35.335,45.753c5.639,16.89,7.97,34.65,8.114,52.413
				c0.144,17.705-1.734,39.256-14.837,52.572c-8.567,8.708-22.462,10.146-33.896,7.652c-10.235-2.232-18.59-9.085-24.577-17.433
				c-15.392-21.457-15.454-50.951-10.745-75.826c4.68-24.71,16.508-54.759,42.24-63.897
				C648.557,10.264,647.349,10.037,646.632,10.291L646.632,10.291z"/>
		</g>
	</g>
	<g>
		<g>
			<path fill="#898989" d="M654.622,377.098c-2.29,2.989-3.207,6.651-5.156,9.837c-4.7,7.68-11.645,0.623-13.72-4.084
				c-3.766-8.544-3.802-19.448-4.121-28.546c-0.448-12.769,0.383-25.589,1.544-38.3c0.612-6.707,1.514-13.373,1.806-20.108
				c0.296-6.813,0.358-13.452,1.181-20.246c0.699-5.78-0.079-11.603,0.938-17.356c0.706-3.994,0.907-8.012,1.066-12.062
				c0.339-8.573,0.563-17.116,1.23-25.672c0.722-9.218,1.155-18.366,1.099-27.614c-0.055-8.585-0.924-17.442-0.194-25.996
				c0.017-0.185-1.84-0.014-1.885,0.505c-0.801,9.396,0.172,19.146,0.207,28.581c0.036,9.58-0.625,19.089-1.396,28.632
				c-0.798,9.854-0.567,19.758-1.371,29.609c-0.453,5.547-1.252,10.813-1.235,16.432c0.021,7.393-1.652,14.656-1.478,22.09
				c0.341,14.466-2.566,29.109-3.229,43.574c-0.595,12.974-0.441,26.141,1.78,38.965c1.147,6.627,3.544,15.131,11.56,15.336
				c8.467,0.219,9.188-8.659,13.229-13.932C656.548,376.646,654.952,376.667,654.622,377.098L654.622,377.098z"/>
		</g>
	</g>
	<g opacity="0.5">
		<path fill="#D6D6D6" d="M626.683,71.364c-2.125,7.627-2.015,29.412-1.589,36.704c0.638,10.715,5.084,19.618,10.875,28.527
			c6.236,9.594,14.72,16.46,25.685,19.231c4.914,1.156,10.959,1.634,15.447-1.318c6.055-3.627,7.205-12.51,8.793-18.889
			c2.045-9.336,2.977-20.047,0.768-29.4c-0.881-4.333-8.811-43.563-10.361-47.674c-1.332-3.648-2.213-7.982-4.219-11.181
			c-2.893-4.338-6.912-7.317-9.361-12.11c-2.444-4.567-4.67-9.36-10.264-10.291C639.925,22.871,629.853,59.978,626.683,71.364z"/>
	</g>
	<g opacity="0.5">
		<path fill="#D6D6D6" d="M652.206,374.887c14.154-36.06,5.719-89.072,5.719-127.072c0-19,4-45-1-63c-6-19-8,0-9,11c-1,10-1,21-1,31
			c0,28,0,55-1,82c0,20-18.817,53.769-2.817,68.769c1-1,3.215-1.953,4.215-2.953"/>
	</g>
	<g>
		<ellipse fill="#89878A" cx="646.088" cy="150.575" rx="4.432" ry="7.371"/>
		<ellipse cx="646.774" cy="148.487" rx="3.745" ry="6.361"/>
		<g>
			<g>
				<path fill="#89878A" d="M621.786,70.531c0.664,2.219,0.086,4.859-1.479,6.855c-1.562,2.01-4.099,3.322-6.826,3.295
					c-1.232,0-2.617-0.301-3.771-0.879c-1.172-0.578-2.199-1.412-2.979-2.414c-1.566-1.994-2.146-4.639-1.478-6.857
					c0.652,2.201,1.773,3.967,3.25,5.186c1.484,1.227,3.193,1.869,5.058,1.869c1.703,0.004,3.53-0.639,4.979-1.865
					C620.019,74.5,621.138,72.731,621.786,70.531z"/>
				<g>
					<ellipse fill="#FFFFFF" cx="613.52" cy="70.53" rx="8.267" ry="8.604"/>
					<ellipse cx="613.613" cy="70.488" rx="1.625" ry="1.691"/>
				</g>
			</g>
			<circle fill="#FFFFFF" cx="612.722" cy="69.437" r="0.444"/>
		</g>
		<g>
			<g>
				<path fill="#89878A" d="M687.62,70.531c0.662,2.219,0.088,4.859-1.479,6.855c-1.562,2.01-4.099,3.322-6.828,3.295
					c-1.229,0-2.617-0.301-3.771-0.879c-1.172-0.578-2.201-1.412-2.979-2.414c-1.568-1.994-2.146-4.639-1.479-6.857
					c0.652,2.201,1.773,3.967,3.252,5.186c1.482,1.227,3.193,1.869,5.058,1.869c1.702,0.004,3.53-0.639,4.979-1.865
					C685.853,74.5,686.972,72.731,687.62,70.531z"/>
				<g>
					<ellipse fill="#FFFFFF" cx="679.353" cy="70.53" rx="8.268" ry="8.604"/>
					<ellipse cx="679.606" cy="70.437" rx="1.802" ry="1.875"/>
				</g>
			</g>
			<circle fill="#FFFFFF" cx="678.62" cy="69.273" r="0.492"/>
		</g>
	</g>
</g>
<g>
	<path opacity="0.6" fill="#394747" enable-background="new    " d="M521.286,170.625c0,0-29.854-2.879-35.314-41.557
		c-5.459-38.678,7.031-81.407,21.859-102.53c14.825-21.125,38.938-31.643,59.206,22.017c20.271,53.66,12.159,90.867,2.5,101.934
		c-9.66,11.067-25.728,19.771-25.728,19.771l6.617,216.353c0,0-22.651,18.258-32.427,0.926
		C507.809,369.471,521.286,170.625,521.286,170.625z"/>
	<path fill="#C1C1C1" d="M516.62,169.292c0,0-29.854-2.879-35.314-41.557c-5.459-38.678,7.031-81.407,21.859-102.53
		C517.99,4.08,542.103-6.438,562.371,47.222c20.271,53.66,12.159,90.867,2.5,101.934c-9.66,11.067-25.728,19.771-25.728,19.771
		l5.135,215.344c0,0-21.169,19.267-30.943,1.935C503.143,368.139,516.62,169.292,516.62,169.292z"/>
	<g>
		<g>
			<path fill="#898989" d="M526.779,9.838c-18.458,6.555-29.779,23.399-36.74,40.902c-7.508,18.872-10.85,40.269-9.237,60.515
				c1.544,19.388,8.783,40.677,25.484,52.096c13.921,9.519,35.988,9.38,48.763-2.088c9.893-8.882,13.369-23.203,14.979-35.859
				c1.763-13.86,1.104-28.079-0.624-41.91c-1.956-15.67-6.315-31.393-13.271-45.598c-6.089-12.437-14.981-26.15-29.382-29.482
				c-0.946-0.219-1.894,1.116-0.646,1.404c20.206,4.674,30.126,30.338,35.655,47.831c5.417,17.139,7.516,35.22,7.311,53.157
				c-0.2,17.574-2.674,39.75-17.503,51.434c-8.761,6.902-22.134,7.672-32.58,5.062c-10.111-2.527-18.174-9.583-23.948-18.011
				c-14.652-21.377-14.602-50.095-9.966-74.578c4.656-24.598,16.447-54.447,42.064-63.544
				C528.261,10.768,527.931,9.429,526.779,9.838L526.779,9.838z"/>
		</g>
	</g>
	<g>
		<g>
			<path fill="#898989" d="M534.621,377.098c-2.29,2.988-3.206,6.651-5.155,9.836c-4.701,7.68-11.646,0.623-13.72-4.084
				c-3.768-8.543-3.803-19.447-4.121-28.545c-0.448-12.77,0.384-25.588,1.544-38.299c0.612-6.709,1.513-13.375,1.805-20.109
				c0.295-6.813,0.359-13.452,1.18-20.246c0.699-5.78-0.077-11.604,0.939-17.357c0.706-3.994,0.908-8.011,1.068-12.061
				c0.339-8.574,0.56-17.116,1.229-25.672c0.721-9.218,1.156-18.366,1.098-27.614c-0.055-8.585-0.924-17.442-0.193-25.996
				c0.016-0.185-1.84-0.014-1.884,0.505c-0.802,9.396,0.172,19.146,0.207,28.581c0.034,9.58-0.625,19.089-1.398,28.633
				c-0.798,9.854-0.565,19.759-1.371,29.609c-0.453,5.547-1.251,10.813-1.234,16.431c0.021,7.393-1.653,14.657-1.479,22.09
				c0.342,14.467-2.565,29.109-3.229,43.574c-0.595,12.975-0.439,26.141,1.78,38.965c1.148,6.629,3.543,15.131,11.561,15.338
				c8.467,0.217,9.187-8.66,13.227-13.934C536.547,376.645,534.949,376.668,534.621,377.098L534.621,377.098z"/>
		</g>
	</g>
	<g opacity="0.5">
		<path fill="#D6D6D6" d="M506.682,71.363c-2.125,7.627-2.014,29.412-1.588,36.704c0.637,10.715,5.084,19.618,10.875,28.527
			c6.236,9.594,14.72,16.46,25.683,19.231c4.916,1.156,10.959,1.634,15.447-1.318c6.055-3.627,7.207-12.51,8.795-18.889
			c2.043-9.336,2.978-20.047,0.767-29.4c-0.88-4.333-8.812-43.563-10.361-47.674c-1.332-3.648-2.213-7.982-4.219-11.181
			c-2.894-4.338-6.912-7.317-9.361-12.11c-2.445-4.567-4.67-9.36-10.264-10.291C519.925,22.87,509.852,59.977,506.682,71.363z"/>
	</g>
	<g opacity="0.5">
		<path fill="#D6D6D6" d="M532.207,374.887c14.153-36.06,5.717-89.072,5.717-127.072c0-19,4-45-1-63c-6-19-8,0-8.999,11
			c-1,10-1,21-1,31c0,28,0,55-1,82c0,20-18.818,53.769-2.818,68.769c1-1,3.215-1.952,4.215-2.952"/>
	</g>
	<path fill="#89878A" d="M515.073,156.351c0,0-1.896-1.678,1.105-2.479c2.477-0.66,9.504-0.453,13.009-0.588
		c3.996-0.154,9.615,0.049,11.623,0.879c1.889,0.781,0.283,2.188,0.283,2.188H515.073z"/>
	<path d="M515.073,154.285c0,0,6.361-2.767,14.114-3.066c7.752-0.301,11.906,3.066,11.906,3.066H515.073z"/>
	<path fill="#89878A" d="M507.577,73.559c0.661,2.218,0.084,4.859-1.482,6.854c-1.561,2.011-4.098,3.322-6.826,3.296
		c-1.231,0-2.617-0.301-3.771-0.879c-1.172-0.578-2.199-1.412-2.979-2.414c-1.565-1.994-2.145-4.64-1.477-6.857
		c0.651,2.201,1.772,3.967,3.252,5.186c1.481,1.227,3.19,1.869,5.057,1.869c1.701,0.004,3.529-0.639,4.978-1.865
		C505.809,77.53,506.927,75.761,507.577,73.559z"/>
	<ellipse fill="#FFFFFF" cx="499.309" cy="73.559" rx="8.269" ry="8.604"/>
	<ellipse cx="499.309" cy="68.393" rx="2.824" ry="2.939"/>
	<circle fill="#FFFFFF" cx="497.764" cy="66.569" r="0.771"/>
	<g>
		<path fill="#89878A" d="M561.762,73.559c0.662,2.218,0.084,4.859-1.482,6.854c-1.561,2.011-4.096,3.322-6.825,3.296
			c-1.23,0-2.617-0.301-3.771-0.879c-1.174-0.578-2.201-1.412-2.979-2.414c-1.568-1.994-2.146-4.64-1.479-6.857
			c0.652,2.201,1.773,3.967,3.252,5.186c1.482,1.227,3.191,1.869,5.058,1.869c1.7,0.004,3.53-0.639,4.977-1.865
			C559.994,77.53,561.113,75.761,561.762,73.559z"/>
		<ellipse fill="#FFFFFF" cx="553.494" cy="73.559" rx="8.268" ry="8.604"/>
		<ellipse cx="553.494" cy="68.393" rx="2.823" ry="2.939"/>
		<circle fill="#FFFFFF" cx="551.949" cy="66.569" r="0.771"/>
	</g>
</g>
<g>
	<path opacity="0.6" fill="#394747" enable-background="new    " d="M281.289,169.648c0,0-29.855-2.879-35.316-41.557
		c-5.459-38.678,7.031-81.407,21.859-102.53c14.826-21.125,38.938-31.643,59.207,22.017c20.271,53.66,12.16,90.867,2.5,101.934
		c-9.66,11.067-25.728,19.771-25.728,19.771l6.617,216.354c0,0-22.649,18.258-32.428,0.926
		C267.811,368.494,281.289,169.648,281.289,169.648z"/>
	<path fill="#C1C1C1" d="M276.623,168.315c0,0-29.855-2.879-35.316-41.557c-5.459-38.678,7.031-81.407,21.859-102.53
		c14.826-21.125,38.938-31.643,59.207,22.017c20.271,53.66,12.16,90.867,2.5,101.934c-9.66,11.067-25.728,19.771-25.728,19.771
		l5.136,215.345c0,0-21.168,19.266-30.945,1.934C263.145,367.161,276.623,168.315,276.623,168.315z"/>
	<g>
		<g>
			<path fill="#898989" d="M286.787,8.884c-18.457,6.555-29.782,23.386-36.744,40.891c-7.506,18.869-10.853,40.258-9.24,60.503
				c1.544,19.388,8.781,40.666,25.481,52.084c13.915,9.514,35.995,9.365,48.761-2.096c9.893-8.882,13.373-23.19,14.981-35.847
				c1.762-13.857,1.104-28.076-0.622-41.904c-1.956-15.681-6.397-31.156-13.189-45.43c-5.883-12.362-15.003-26.287-29.24-29.581
				c-0.805-0.186-2.239,1.001-1.094,1.267c19.98,4.622,29.863,29.349,35.498,46.693c5.574,17.159,7.791,35.247,7.706,53.249
				c-0.084,17.625-2.326,39.823-16.752,51.968c-8.333,7.016-20.938,8.077-31.251,6.149c-10.58-1.978-19.232-8.974-25.371-17.531
				c-15.345-21.393-15.334-50.776-10.641-75.57c4.655-24.594,16.441-54.463,42.062-63.561
				C288.252,9.771,287.934,8.476,286.787,8.884L286.787,8.884z"/>
		</g>
	</g>
	<g>
		<g>
			<path fill="#898989" d="M294.623,376.121c-2.289,2.988-3.205,6.652-5.155,9.837c-4.701,7.679-11.646,0.624-13.72-4.084
				c-3.767-8.543-3.801-19.448-4.121-28.546c-0.449-12.77,0.383-25.588,1.545-38.299c0.612-6.709,1.512-13.375,1.804-20.109
				c0.296-6.813,0.358-13.452,1.182-20.246c0.697-5.779-0.078-11.604,0.938-17.357c0.706-3.994,0.907-8.01,1.067-12.061
				c0.34-8.574,0.561-17.115,1.229-25.672c0.724-9.217,1.156-18.366,1.1-27.614c-0.055-8.585-0.924-17.442-0.194-25.996
				c0.016-0.185-1.84-0.014-1.884,0.505c-0.803,9.396,0.172,19.146,0.207,28.581c0.036,9.581-0.625,19.088-1.397,28.633
				c-0.799,9.854-0.566,19.758-1.372,29.608c-0.453,5.548-1.251,10.813-1.234,16.431c0.021,7.394-1.653,14.658-1.479,22.09
				c0.342,14.467-2.566,29.109-3.229,43.574c-0.597,12.975-0.44,26.142,1.78,38.965c1.147,6.629,3.543,15.132,11.56,15.338
				c8.467,0.218,9.188-8.66,13.227-13.934C296.549,375.669,294.953,375.691,294.623,376.121L294.623,376.121z"/>
		</g>
	</g>
	<g opacity="0.5">
		<path fill="#D6D6D6" d="M266.682,70.387c-2.125,7.627-2.012,29.412-1.588,36.704c0.637,10.715,5.084,19.618,10.877,28.527
			c6.234,9.594,14.719,16.46,25.683,19.231c4.915,1.156,10.959,1.634,15.446-1.318c6.056-3.627,7.207-12.51,8.795-18.889
			c2.043-9.336,2.978-20.047,0.767-29.4c-0.879-4.333-8.812-43.563-10.361-47.674c-1.332-3.648-2.213-7.982-4.219-11.181
			c-2.894-4.338-6.912-7.317-9.361-12.11c-2.445-4.567-4.67-9.36-10.264-10.291C279.927,21.894,269.852,59.001,266.682,70.387z"/>
	</g>
	<g opacity="0.5">
		<path fill="#D6D6D6" d="M292.209,373.91c14.154-36.061,5.717-89.072,5.717-127.072c0-19,4-45-1-63c-6-19-8,0-9,11c-1,10-1,21-1,31
			c0,28,0,55-1,82c0,20-18.816,53.768-2.816,68.768c1-1,3.214-1.953,4.214-2.953"/>
	</g>
	<g>
		<path fill="none" stroke="#232727" stroke-width="2.4506" stroke-linecap="round" stroke-miterlimit="10" d="M311.677,123.977
			c-2.736,13.541-13.09,21.093-24.025,21.106c-10.668,0.01-21.334-8.449-24.081-21.045"/>
	</g>
	<g>
		<g>
			<path fill="#808088" d="M271.959,84.366c0.07-0.188,0.146-0.379,0.203-0.574c0.711-2.418,0.271-5.072-1.16-6.876
				c0.213,2.272-0.168,4.319-1.088,5.99c-0.508,0.96-1.207,1.781-2.008,2.43L271.959,84.366z"/>
			<path fill="#808088" d="M261.593,86.845c-0.313-0.064-0.629-0.14-0.945-0.241c-1.813-0.582-3.5-1.799-4.914-3.592
				c0.152,1.717,1.035,3.397,2.386,4.664L261.593,86.845z"/>
		</g>
		<path fill="#FFFFFF" d="M271.006,84.595c1.033-2.101,1.201-4.653,0.244-7.051c-1.752-4.388-6.59-6.581-10.808-4.897
			c-4.217,1.684-6.213,6.605-4.461,10.993c0.64,1.599,1.689,2.901,2.97,3.837L271.006,84.595z M262.531,77.876
			c1.44-0.576,3.094,0.175,3.69,1.675c0.601,1.497-0.082,3.18-1.522,3.756c-1.439,0.575-3.095-0.176-3.691-1.673
			C260.408,80.134,261.09,78.451,262.531,77.876z"/>
		<ellipse transform="matrix(0.3707 0.9287 -0.9287 0.3707 240.7925 -194.1242)" cx="263.65" cy="80.631" rx="2.924" ry="2.809"/>
		<circle fill="#FFFFFF" cx="265.433" cy="81.764" r="0.767"/>
	</g>
	<g>
		<g>
			<path fill="#808088" d="M302.703,83.99c-0.058-0.194-0.121-0.388-0.164-0.585c-0.554-2.459,0.055-5.079,1.6-6.788
				c-0.358,2.253-0.108,4.321,0.699,6.047c0.445,0.993,1.092,1.856,1.85,2.554L302.703,83.99z"/>
			<path fill="#808088" d="M312.887,87.13c0.318-0.043,0.637-0.1,0.959-0.18c1.846-0.463,3.609-1.569,5.135-3.268
				c-0.262,1.704-1.25,3.324-2.678,4.5L312.887,87.13z"/>
		</g>
		<path fill="#FFFFFF" d="M315.483,87.93c1.339-0.851,2.472-2.083,3.211-3.639c2.029-4.265,0.354-9.306-3.743-11.257
			c-4.101-1.952-9.068-0.075-11.101,4.191c-1.108,2.331-1.104,4.89-0.211,7.053L315.483,87.93z M313.809,81.966
			c-0.692,1.457-2.393,2.1-3.793,1.433c-1.401-0.667-1.973-2.391-1.278-3.848c0.692-1.457,2.391-2.1,3.793-1.432
			C313.93,78.786,314.504,80.508,313.809,81.966z"/>
		<ellipse transform="matrix(0.4295 -0.9031 0.9031 0.4295 104.6123 327.1833)" cx="311.26" cy="80.795" rx="2.924" ry="2.808"/>
		<circle fill="#FFFFFF" cx="309.383" cy="81.812" r="0.767"/>
	</g>
</g>
<path opacity="0.6" fill="#394747" enable-background="new    " d="M45.288,172.894c0,0-29.854-2.879-35.314-41.556
	C4.513,92.66,17.003,49.931,31.832,28.807C46.658,7.682,70.77-2.836,91.039,50.824c20.271,53.66,12.158,90.867,2.498,101.934
	c-9.658,11.067-25.725,19.771-25.725,19.771l6.615,216.352c0,0-22.649,18.26-32.427,0.926
	C31.811,371.738,45.288,172.894,45.288,172.894z"/>
<path fill="#C1C1C1" d="M40.622,171.562c0,0-29.854-2.879-35.314-41.557c-5.459-38.678,7.03-81.407,21.858-102.53
	C41.992,6.349,66.104-4.169,86.373,49.491c20.271,53.66,12.158,90.867,2.498,101.934c-9.658,11.067-25.725,19.771-25.725,19.771
	l5.135,215.344c0,0-21.169,19.267-30.946,1.935C27.145,370.407,40.622,171.562,40.622,171.562z"/>
<g>
	<g>
		<path fill="#898989" d="M50.786,12.129C32.33,18.684,21.004,35.515,14.042,53.021C6.536,71.89,3.19,93.279,4.802,113.523
			c1.544,19.388,8.78,40.666,25.48,52.084c13.915,9.514,35.996,9.365,48.76-2.096c9.894-8.882,13.374-23.189,14.982-35.847
			c1.762-13.857,1.104-28.075-0.621-41.903c-1.957-15.681-6.398-31.156-13.191-45.43C74.331,27.969,65.211,14.044,50.975,10.75
			c-0.807-0.186-2.241,1.001-1.095,1.267C69.86,16.64,79.742,41.366,85.377,58.711c5.575,17.159,7.793,35.247,7.707,53.249
			c-0.084,17.624-2.326,39.823-16.752,51.968c-8.333,7.016-20.936,8.077-31.25,6.149c-10.581-1.978-19.232-8.974-25.371-17.531
			C4.365,131.152,4.376,101.769,9.07,76.975c4.656-24.594,16.442-54.463,42.061-63.561C52.251,13.017,51.936,11.722,50.786,12.129
			L50.786,12.129z"/>
	</g>
</g>
<g>
	<g>
		<path fill="#898989" d="M58.623,379.367c-2.291,2.988-3.207,6.65-5.156,9.836c-4.701,7.679-11.645,0.624-13.72-4.083
			c-3.766-8.544-3.801-19.449-4.121-28.546c-0.448-12.77,0.383-25.588,1.544-38.299c0.613-6.709,1.513-13.375,1.805-20.109
			c0.295-6.813,0.358-13.452,1.18-20.246c0.699-5.779-0.078-11.604,0.938-17.357c0.706-3.994,0.908-8.012,1.068-12.062
			c0.339-8.573,0.561-17.116,1.23-25.671c0.722-9.219,1.155-18.366,1.098-27.615c-0.054-8.584-0.923-17.441-0.194-25.995
			c0.017-0.185-1.84-0.014-1.884,0.505c-0.801,9.396,0.172,19.145,0.207,28.58c0.036,9.582-0.625,19.089-1.397,28.634
			c-0.799,9.854-0.567,19.756-1.372,29.607c-0.453,5.549-1.251,10.813-1.235,16.432c0.021,7.394-1.653,14.656-1.479,22.09
			c0.343,14.466-2.565,29.109-3.229,43.574c-0.595,12.975-0.44,26.141,1.781,38.965c1.146,6.627,3.543,15.131,11.559,15.336
			c8.467,0.218,9.188-8.658,13.229-13.932C60.549,378.915,58.952,378.938,58.623,379.367L58.623,379.367z"/>
	</g>
</g>
<g opacity="0.5">
	<path fill="#D6D6D6" d="M30.683,73.632c-2.125,7.627-2.014,29.412-1.588,36.704c0.637,10.715,5.084,19.619,10.876,28.528
		c6.234,9.593,14.718,16.459,25.683,19.231c4.914,1.156,10.959,1.634,15.447-1.318c6.055-3.627,7.205-12.51,8.793-18.888
		c2.045-9.336,2.977-20.047,0.768-29.4c-0.881-4.333-8.811-43.564-10.361-47.674c-1.331-3.648-2.213-7.983-4.219-11.181
		c-2.893-4.337-6.912-7.317-9.36-12.11c-2.445-4.567-4.671-9.36-10.265-10.291C43.926,25.139,33.853,62.247,30.683,73.632z"/>
</g>
<g opacity="0.5">
	<path fill="#D6D6D6" d="M56.207,377.156c14.154-36.061,5.719-89.073,5.719-127.073c0-19,4-45-1-63c-6-19-8,0-9,11c-1,10-1,21-1,31
		c0,28,0,55-1,82c0,20-18.817,53.769-2.817,68.769c1-1,3.214-1.953,4.214-2.953"/>
</g>
<g>
	<g>
		<path fill="#808088" d="M35.958,87.612c0.07-0.19,0.146-0.379,0.202-0.574c0.711-2.418,0.271-5.072-1.16-6.876
			c0.213,2.272-0.168,4.319-1.087,5.991c-0.508,0.96-1.208,1.781-2.009,2.429L35.958,87.612z"/>
		<path fill="#808088" d="M25.593,90.091c-0.314-0.064-0.63-0.14-0.944-0.241c-1.813-0.582-3.501-1.799-4.915-3.592
			c0.153,1.717,1.035,3.398,2.385,4.664L25.593,90.091z"/>
	</g>
	<path fill="#FFFFFF" d="M35.005,87.84c1.032-2.101,1.201-4.653,0.243-7.051c-1.752-4.388-6.59-6.581-10.807-4.897
		c-4.216,1.684-6.213,6.605-4.46,10.993c0.638,1.599,1.688,2.902,2.969,3.837L35.005,87.84z M26.53,81.122
		c1.441-0.576,3.094,0.175,3.692,1.675c0.599,1.497-0.082,3.18-1.523,3.756c-1.44,0.575-3.095-0.176-3.692-1.673
		C24.407,83.38,25.089,81.697,26.53,81.122z"/>
	<ellipse transform="matrix(0.3709 0.9287 -0.9287 0.3709 95.2943 27.0969)" cx="27.648" cy="83.883" rx="2.924" ry="2.809"/>
	<circle fill="#FFFFFF" cx="29.433" cy="85.009" r="0.767"/>
</g>
<g>
	<g>
		<path fill="#808088" d="M66.703,87.235c-0.059-0.194-0.121-0.388-0.164-0.586c-0.553-2.459,0.056-5.079,1.601-6.787
			c-0.359,2.253-0.109,4.321,0.698,6.047c0.445,0.992,1.093,1.855,1.849,2.555L66.703,87.235z"/>
		<path fill="#808088" d="M76.889,90.375c0.317-0.043,0.637-0.1,0.957-0.18c1.848-0.463,3.608-1.569,5.137-3.268
			c-0.264,1.704-1.252,3.324-2.68,4.501L76.889,90.375z"/>
	</g>
	<path fill="#FFFFFF" d="M79.484,91.175c1.336-0.851,2.469-2.083,3.211-3.638c2.029-4.266,0.354-9.306-3.746-11.257
		c-4.1-1.952-9.068-0.075-11.098,4.191c-1.111,2.332-1.107,4.89-0.213,7.053L79.484,91.175z M77.811,85.212
		c-0.695,1.456-2.394,2.1-3.793,1.433c-1.402-0.667-1.974-2.391-1.279-3.848s2.389-2.1,3.791-1.433
		C77.93,82.031,78.504,83.754,77.811,85.212z"/>
	<ellipse transform="matrix(0.4298 -0.9029 0.9029 0.4298 -32.9852 115.8655)" cx="75.245" cy="84.049" rx="2.924" ry="2.808"/>
	<circle fill="#FFFFFF" cx="73.382" cy="85.057" r="0.767"/>
</g>
<g>
	<path opacity="0.6" fill="#394747" enable-background="new    " d="M161.288,168.117c0,0-29.854-2.879-35.315-41.557
		c-5.459-38.678,7.03-81.407,21.858-102.53c14.826-21.125,38.939-31.643,59.207,22.017c20.271,53.66,12.16,90.867,2.5,101.934
		s-25.727,19.771-25.727,19.771l6.617,216.354c0,0-22.65,18.258-32.429,0.926C147.812,366.963,161.288,168.117,161.288,168.117z"/>
	<path fill="#C1C1C1" d="M156.622,166.784c0,0-29.854-2.879-35.315-41.557c-5.459-38.678,7.03-81.407,21.858-102.53
		c14.826-21.125,38.939-31.643,59.207,22.017c20.271,53.66,12.16,90.867,2.5,101.934s-25.727,19.771-25.727,19.771l5.135,215.345
		c0,0-21.168,19.266-30.945,1.934C143.146,365.63,156.622,166.784,156.622,166.784z"/>
	<g>
		<g>
			<path fill="#898989" d="M166.786,7.353c-18.457,6.555-29.782,23.386-36.744,40.891c-7.506,18.869-10.852,40.258-9.24,60.503
				c1.545,19.388,8.781,40.666,25.481,52.084c13.915,9.514,35.995,9.365,48.761-2.096c9.894-8.882,13.373-23.19,14.982-35.847
				c1.761-13.857,1.104-28.076-0.623-41.904c-1.956-15.681-6.397-31.156-13.189-45.43c-5.883-12.362-15.003-26.287-29.239-29.581
				c-0.806-0.186-2.24,1.001-1.095,1.267c19.98,4.622,29.863,29.349,35.498,46.693c5.574,17.159,7.791,35.247,7.706,53.249
				c-0.084,17.625-2.326,39.823-16.752,51.968c-8.333,7.016-20.937,8.077-31.251,6.149c-10.58-1.978-19.231-8.974-25.371-17.531
				c-15.345-21.393-15.334-50.776-10.641-75.57c4.656-24.594,16.441-54.463,42.062-63.561C168.251,8.24,167.935,6.945,166.786,7.353
				L166.786,7.353z"/>
		</g>
	</g>
	<g>
		<g>
			<path fill="#898989" d="M174.622,374.59c-2.289,2.989-3.205,6.652-5.155,9.838c-4.7,7.678-11.646,0.623-13.72-4.085
				c-3.766-8.543-3.801-19.448-4.121-28.546c-0.449-12.77,0.383-25.588,1.545-38.299c0.612-6.708,1.513-13.374,1.805-20.109
				c0.296-6.813,0.357-13.451,1.181-20.246c0.698-5.779-0.078-11.603,0.938-17.356c0.706-3.994,0.907-8.011,1.067-12.062
				c0.34-8.574,0.562-17.115,1.23-25.672c0.723-9.217,1.155-18.366,1.099-27.614c-0.054-8.585-0.923-17.442-0.194-25.996
				c0.017-0.185-1.84-0.014-1.884,0.505c-0.802,9.396,0.172,19.146,0.207,28.581c0.036,9.581-0.625,19.089-1.396,28.633
				c-0.8,9.854-0.567,19.758-1.372,29.609c-0.453,5.547-1.251,10.813-1.235,16.431c0.021,7.394-1.653,14.657-1.478,22.09
				c0.342,14.466-2.567,29.108-3.229,43.573c-0.596,12.975-0.44,26.142,1.781,38.966c1.146,6.628,3.543,15.131,11.559,15.337
				c8.467,0.218,9.188-8.66,13.228-13.934C176.548,374.139,174.952,374.16,174.622,374.59L174.622,374.59z"/>
		</g>
	</g>
	<g opacity="0.5">
		<path fill="#D6D6D6" d="M146.683,68.855c-2.125,7.627-2.013,29.412-1.588,36.704c0.637,10.715,5.084,19.618,10.877,28.527
			c6.233,9.594,14.719,16.46,25.682,19.231c4.916,1.156,10.959,1.634,15.447-1.318c6.055-3.627,7.207-12.51,8.795-18.889
			c2.043-9.336,2.977-20.047,0.766-29.4c-0.879-4.333-8.811-43.563-10.361-47.674c-1.331-3.648-2.213-7.982-4.219-11.181
			c-2.893-4.338-6.912-7.317-9.36-12.11c-2.445-4.567-4.671-9.36-10.265-10.291C159.927,20.362,149.853,57.47,146.683,68.855z"/>
	</g>
	<g opacity="0.5">
		<path fill="#D6D6D6" d="M172.208,372.379c14.154-36.061,5.717-89.072,5.717-127.072c0-19,4-45-1-63c-6-19-8,0-9,11
			c-1,10-1,21-1,31c0,28,0,55-1,82c0,20-18.815,53.769-2.815,68.769c1-1,3.213-1.953,4.213-2.953"/>
	</g>
	<path d="M148.399,131.952h38.965c0,0-0.742,15.53-19.482,15.53C149.142,147.482,148.399,131.952,148.399,131.952z"/>
	<g>
		<g>
			<path fill="#8A898C" d="M155.187,76.723c0.664,2.218,0.086,4.86-1.48,6.854c-1.561,2.01-4.098,3.322-6.826,3.297
				c-1.231-0.002-2.616-0.303-3.771-0.88c-1.172-0.579-2.199-1.412-2.979-2.414c-1.565-1.995-2.145-4.64-1.477-6.858
				c0.652,2.201,1.772,3.968,3.25,5.186c1.484,1.229,3.193,1.87,5.057,1.87c1.703,0.004,3.531-0.638,4.979-1.865
				C153.419,80.693,154.538,78.924,155.187,76.723z"/>
			<g>
				<ellipse fill="#FFFFFF" cx="146.92" cy="76.723" rx="8.268" ry="8.604"/>
				<ellipse cx="146.92" cy="76.723" rx="2.825" ry="2.94"/>
			</g>
		</g>
		<circle fill="#FFFFFF" cx="145.376" cy="74.899" r="0.771"/>
	</g>
	<g>
		<g>
			<path fill="#8A898C" d="M200.622,76.723c0.662,2.218,0.084,4.86-1.481,6.854c-1.562,2.01-4.097,3.322-6.826,3.297
				c-1.23-0.002-2.617-0.303-3.771-0.88c-1.172-0.579-2.199-1.412-2.977-2.414c-1.568-1.995-2.146-4.64-1.479-6.858
				c0.652,2.201,1.773,3.968,3.252,5.186c1.482,1.229,3.191,1.87,5.058,1.87c1.701,0.004,3.53-0.638,4.977-1.865
				C198.855,80.693,199.972,78.924,200.622,76.723z"/>
			<g>
				<ellipse fill="#FFFFFF" cx="192.355" cy="76.723" rx="8.268" ry="8.604"/>
				<ellipse cx="192.355" cy="76.723" rx="2.824" ry="2.94"/>
			</g>
		</g>
		<circle fill="#FFFFFF" cx="190.81" cy="74.899" r="0.771"/>
	</g>
</g>
<path fill="#191C1C" d="M19.354,110.373h68.535c0,0-1.306,49.85-34.268,49.85C20.659,160.223,19.354,110.373,19.354,110.373z"/>
<g>
	<path opacity="0.6" fill="#394747" enable-background="new    " d="M761.287,167.625c0,0-29.854-2.879-35.314-41.557
		c-5.459-38.678,7.031-81.407,21.859-102.53c14.825-21.125,38.938-31.643,59.207,22.017s12.157,90.867,2.498,101.934
		c-9.658,11.067-25.726,19.771-25.726,19.771l6.615,216.354c0,0-22.65,18.258-32.426,0.926
		C747.809,366.472,761.287,167.625,761.287,167.625z"/>
	<path fill="#C1C1C1" d="M756.621,166.292c0,0-29.854-2.879-35.314-41.557c-5.459-38.678,7.031-81.407,21.859-102.53
		c14.826-21.125,38.938-31.643,59.207,22.017s12.157,90.867,2.498,101.934c-9.658,11.067-25.726,19.771-25.726,19.771l5.135,215.346
		c0,0-21.17,19.266-30.944,1.934C743.143,365.138,756.621,166.292,756.621,166.292z"/>
	<g>
		<g>
			<path fill="#898989" d="M766.633,7.29c-18.397,6.533-29.679,23.282-36.62,40.733c-7.615,19.147-10.983,41.044-9.087,61.576
				c1.806,19.543,9.53,41.104,27.116,51.714c13.604,8.209,34.213,7.431,46.512-2.923c10.321-8.689,13.837-23.405,15.46-36.174
				c1.754-13.799,1.108-27.955-0.609-41.724c-1.955-15.68-6.397-31.156-13.189-45.43C790.38,22.799,781.31,9.013,767.206,5.749
				c-0.44-0.102-2.09,0.606-1.556,0.73c19.723,4.563,29.61,28.605,35.336,45.753c5.639,16.89,7.97,34.65,8.113,52.413
				c0.145,17.705-1.733,39.256-14.837,52.572c-8.566,8.708-22.462,10.146-33.896,7.652c-10.235-2.232-18.59-9.085-24.577-17.433
				c-15.393-21.457-15.454-50.951-10.745-75.826c4.679-24.71,16.507-54.759,42.24-63.897C768.556,7.264,767.348,7.036,766.633,7.29
				L766.633,7.29z"/>
		</g>
	</g>
	<g>
		<g>
			<path fill="#898989" d="M774.623,374.097c-2.29,2.99-3.207,6.652-5.156,9.838c-4.701,7.679-11.646,0.623-13.72-4.084
				c-3.767-8.545-3.803-19.448-4.121-28.547c-0.448-12.769,0.383-25.588,1.544-38.299c0.611-6.707,1.513-13.373,1.805-20.109
				c0.296-6.813,0.359-13.451,1.182-20.246c0.698-5.779-0.079-11.602,0.938-17.356c0.706-3.993,0.907-8.012,1.066-12.062
				c0.339-8.573,0.562-17.115,1.229-25.672c0.722-9.217,1.156-18.366,1.1-27.614c-0.056-8.585-0.925-17.442-0.194-25.996
				c0.016-0.185-1.84-0.014-1.885,0.505c-0.802,9.396,0.172,19.146,0.207,28.581c0.035,9.582-0.625,19.089-1.397,28.633
				c-0.797,9.854-0.567,19.758-1.371,29.609c-0.453,5.547-1.252,10.813-1.234,16.431c0.021,7.394-1.652,14.657-1.479,22.091
				c0.341,14.465-2.566,29.108-3.229,43.573c-0.596,12.974-0.441,26.142,1.779,38.966c1.148,6.627,3.544,15.131,11.561,15.336
				c8.467,0.219,9.188-8.66,13.228-13.933C776.549,373.646,774.952,373.668,774.623,374.097L774.623,374.097z"/>
		</g>
	</g>
	<g opacity="0.5">
		<path fill="#D6D6D6" d="M746.682,68.363c-2.125,7.627-2.014,29.412-1.588,36.704c0.637,10.715,5.084,19.618,10.875,28.527
			c6.236,9.594,14.719,16.46,25.684,19.231c4.914,1.156,10.959,1.634,15.447-1.318c6.055-3.627,7.205-12.51,8.793-18.889
			c2.045-9.336,2.978-20.047,0.769-29.4c-0.881-4.333-8.812-43.563-10.361-47.674c-1.332-3.648-2.213-7.982-4.219-11.181
			c-2.894-4.338-6.912-7.317-9.361-12.11c-2.445-4.567-4.67-9.36-10.264-10.291C759.926,19.87,749.852,56.977,746.682,68.363z"/>
	</g>
	<g opacity="0.5">
		<path fill="#D6D6D6" d="M772.207,371.888c14.153-36.061,5.719-89.072,5.719-127.072c0-19,4-45.001-1-63.001c-6-19-8,0-9,11
			c-1,10-1,21-1,31.001c0,28,0,55-1,82c0,20-18.818,53.768-2.818,68.768c1-1,3.215-1.953,4.215-2.953"/>
	</g>
	<path fill="#8A898C" d="M744.92,138.551c0.514-0.899,1.526-1.604,2.24-2.383c0.717-0.777,1.237-0.624,2.27-1.16
		c0.52-0.256,1.453,0.035,2.117,0c0.66-0.041,0.957,0.71,1.555,1.063c0.656,0.408,0.912,0.69,1.33,0.976
		c0.391,0.287,0.787,0.56,1.193,0.813c0.811,0.503,1.647,0.935,2.473,1.255c0.82,0.31,1.668,0.47,2.281,0.356
		c0.154-0.023,0.287-0.073,0.412-0.117c0.055-0.017,0.131-0.058,0.16-0.071c0.122-0.064,0.223-0.12,0.28-0.157
		c0.338-0.203,0.722-0.482,1.127-0.784c0.822-0.581,1.756-1.387,3.259-1.727c0.739-0.158,1.577-0.094,2.282,0.14
		c0.689,0.213,1.351,0.657,1.687,0.876c0.727,0.466,1.592,0.872,2.453,1.216c0.862,0.345,1.782,0.635,2.646,0.791
		c0.211,0.039,0.42,0.066,0.58,0.075c0.072,0.006,0.152,0.002,0.119,0.01c-0.01,0.009-0.078,0.01-0.236,0.108
		c-0.18,0.121,0.015-0.012-0.086,0.058c-0.045,0.031-0.127,0.117-0.117,0.109c-0.022,0.027-0.022,0.03-0.022,0.034
		c0.055-0.045,0.217-0.291,0.348-0.491l0.445-0.67c0.318-0.457,0.668-0.922,1.113-1.36c0.442-0.43,1-0.868,1.741-1.069
		c0.738-0.217,1.49-0.788,2.08-0.477c0.603,0.308,1.591,1.139,1.968,1.563c1.311,1.712,1.987,1.545,3.118,3.304
		c-1.608-1.262-3.157-0.654-4.635-1.92c-0.354-0.281-0.729-0.507-1.065-0.603c-0.345-0.096-0.593-0.062-0.824,0.059
		c-0.476,0.235-1.019,0.945-1.435,1.767l-0.327,0.65c-0.125,0.24-0.205,0.444-0.451,0.813c-0.039,0.055-0.078,0.107-0.146,0.181
		c-0.01,0.017-0.115,0.123-0.186,0.176c-0.123,0.092,0.045-0.023-0.162,0.116c-0.271,0.158-0.461,0.199-0.596,0.23
		c-0.283,0.059-0.462,0.064-0.644,0.071c-0.352,0.007-0.65-0.014-0.943-0.043c-1.159-0.126-2.215-0.386-3.272-0.72
		c-1.057-0.346-2.06-0.786-3.078-1.378c-0.522-0.327-0.723-0.448-1.014-0.542c-0.269-0.077-0.479-0.089-0.736-0.035
		c-0.522,0.072-1.27,0.55-2.094,1.141c-0.42,0.296-0.865,0.613-1.408,0.924c-0.162,0.091-0.289,0.155-0.393,0.208
		c-0.201,0.096-0.357,0.165-0.544,0.227c-0.354,0.125-0.725,0.192-1.075,0.223c-1.431,0.11-2.617-0.3-3.666-0.769
		c-1.056-0.479-1.976-1.107-2.82-1.79c-0.424-0.341-0.83-0.696-1.223-1.063c-0.386-0.345-0.822-0.824-1.009-0.994
		c-0.477-0.439-1.231-0.525-2.1-0.274C748.141,137.99,746.469,137.23,744.92,138.551z"/>
	<path d="M744.92,138.551c0.514-0.899,1.141-1.735,1.854-2.515c0.715-0.776,1.531-1.489,2.564-2.024
		c0.52-0.257,1.111-0.451,1.776-0.486c0.66-0.04,1.39,0.126,1.986,0.479c0.656,0.408,0.912,0.69,1.33,0.976
		c0.391,0.288,0.787,0.56,1.193,0.813c0.811,0.503,1.647,0.935,2.473,1.255c0.82,0.311,1.668,0.47,2.281,0.356
		c0.153-0.023,0.287-0.073,0.412-0.116c0.055-0.018,0.131-0.059,0.159-0.071c0.123-0.064,0.224-0.12,0.281-0.157
		c0.338-0.203,0.722-0.482,1.127-0.783c0.822-0.581,1.756-1.387,3.258-1.728c0.74-0.159,1.578-0.094,2.283,0.14
		c0.689,0.212,1.351,0.656,1.687,0.875c0.727,0.466,1.592,0.872,2.453,1.216c0.862,0.345,1.782,0.636,2.646,0.791
		c0.211,0.038,0.42,0.066,0.58,0.075c0.072,0.006,0.152,0.003,0.119,0.01c-0.01,0.009-0.078,0.01-0.236,0.108
		c-0.18,0.121,0.015-0.012-0.086,0.058c-0.045,0.031-0.127,0.117-0.117,0.109c-0.022,0.027-0.022,0.03-0.022,0.034
		c0.055-0.044,0.217-0.291,0.348-0.491l0.445-0.67c0.317-0.457,0.668-0.922,1.113-1.36c0.442-0.43,1-0.868,1.741-1.069
		c0.738-0.217,1.572-0.081,2.16,0.23c0.603,0.308,1.049,0.717,1.426,1.142c1.313,1.712,2.449,3.327,3.58,5.085
		c-1.608-1.262-3.157-2.721-4.635-3.986c-0.354-0.281-0.729-0.507-1.065-0.603c-0.345-0.096-0.593-0.062-0.824,0.06
		c-0.476,0.234-1.019,0.944-1.435,1.766l-0.328,0.65c-0.125,0.24-0.204,0.444-0.45,0.812c-0.039,0.055-0.078,0.107-0.146,0.182
		c-0.01,0.017-0.115,0.123-0.186,0.176c-0.123,0.092,0.045-0.023-0.162,0.117c-0.271,0.157-0.461,0.199-0.596,0.23
		c-0.283,0.06-0.461,0.063-0.644,0.07c-0.352,0.008-0.649-0.014-0.942-0.043c-1.16-0.126-2.216-0.387-3.273-0.721
		c-1.057-0.346-2.059-0.786-3.078-1.377c-0.523-0.327-0.723-0.448-1.014-0.542c-0.269-0.077-0.479-0.089-0.736-0.035
		c-0.523,0.072-1.27,0.55-2.094,1.142c-0.42,0.295-0.865,0.613-1.408,0.923c-0.162,0.091-0.289,0.156-0.393,0.208
		c-0.201,0.096-0.357,0.165-0.543,0.227c-0.355,0.125-0.726,0.193-1.076,0.224c-1.431,0.109-2.617-0.301-3.666-0.77
		c-1.056-0.479-1.976-1.106-2.82-1.789c-0.424-0.342-0.83-0.697-1.223-1.064c-0.386-0.345-0.822-0.824-1.009-0.994
		c-0.477-0.439-1.231-0.526-2.1-0.274C748.141,135.924,746.469,137.23,744.92,138.551z"/>
	<g>
		<g>
			<g>
				<path fill="#8A898C" d="M789.485,64.786c0.658,2.991,0.086,6.554-1.467,9.243c-1.545,2.712-4.057,4.481-6.762,4.448
					c-1.219-0.002-2.592-0.409-3.734-1.187c-1.16-0.78-2.18-1.906-2.948-3.258c-1.554-2.687-2.125-6.254-1.466-9.246
					c0.646,2.968,1.759,5.35,3.224,6.993c1.469,1.655,3.16,2.521,5.008,2.521c1.686,0.005,3.498-0.861,4.93-2.516
					C787.735,70.141,788.845,67.755,789.485,64.786z"/>
				<g>
					<ellipse fill="#FFFFFF" cx="781.298" cy="64.786" rx="8.188" ry="11.602"/>
					<ellipse cx="781.3" cy="64.786" rx="2.798" ry="3.965"/>
				</g>
			</g>
			<circle fill="#FFFFFF" cx="779.768" cy="62.053" r="0.766"/>
		</g>
	</g>
	<g>
		<g>
			<g>
				<path fill="#8A898C" d="M757.317,64.786c0.656,2.991,0.084,6.554-1.467,9.243c-1.545,2.712-4.059,4.481-6.762,4.448
					c-1.222-0.002-2.594-0.409-3.734-1.187c-1.162-0.78-2.18-1.906-2.951-3.258c-1.553-2.687-2.125-6.254-1.463-9.246
					c0.646,2.968,1.756,5.35,3.222,6.993c1.469,1.655,3.161,2.521,5.008,2.521c1.686,0.005,3.498-0.861,4.932-2.516
					C755.567,70.141,756.676,67.755,757.317,64.786z"/>
				<g>
					<ellipse fill="#FFFFFF" cx="749.13" cy="64.786" rx="8.188" ry="11.602"/>
					<ellipse cx="749.131" cy="64.786" rx="2.799" ry="3.965"/>
				</g>
			</g>
			<circle fill="#FFFFFF" cx="747.599" cy="62.053" r="0.765"/>
		</g>
	</g>
</g>
<g>
	<path opacity="0.6" fill="#394747" enable-background="new    " d="M881.498,167.625c0,0-29.854-2.879-35.314-41.557
		c-5.459-38.678,7.031-81.407,21.859-102.53c14.826-21.125,38.938-31.643,59.207,22.017c20.27,53.66,12.158,90.867,2.498,101.934
		c-9.658,11.067-25.725,19.771-25.725,19.771l6.614,216.353c0,0-22.649,18.258-32.426,0.926
		C868.021,366.471,881.498,167.625,881.498,167.625z"/>
	<path fill="#C1C1C1" d="M876.832,166.292c0,0-29.854-2.879-35.314-41.557c-5.459-38.678,7.031-81.407,21.859-102.53
		c14.826-21.125,38.938-31.643,59.207,22.017c20.27,53.66,12.158,90.867,2.498,101.934c-9.658,11.067-25.725,19.771-25.725,19.771
		l5.135,215.345c0,0-21.17,19.267-30.945,1.935C863.355,365.138,876.832,166.292,876.832,166.292z"/>
	<g>
		<g>
			<path fill="#898989" d="M886.843,7.291c-18.396,6.533-29.679,23.282-36.62,40.733c-7.614,19.147-10.982,41.044-9.087,61.576
				c1.807,19.543,9.53,41.104,27.116,51.714c13.605,8.209,34.213,7.431,46.512-2.923c10.321-8.689,13.838-23.405,15.46-36.174
				c1.755-13.799,1.108-27.955-0.608-41.724c-1.956-15.68-6.398-31.156-13.19-45.43C910.59,22.799,901.521,9.014,887.416,5.75
				c-0.439-0.102-2.09,0.606-1.555,0.73c19.722,4.563,29.609,28.605,35.335,45.753c5.639,16.89,7.97,34.65,8.114,52.413
				c0.144,17.705-1.734,39.256-14.838,52.572c-8.566,8.708-22.462,10.146-33.896,7.652c-10.235-2.232-18.59-9.085-24.577-17.433
				c-15.392-21.457-15.454-50.951-10.745-75.826c4.679-24.71,16.507-54.759,42.24-63.897C888.767,7.264,887.559,7.037,886.843,7.291
				L886.843,7.291z"/>
		</g>
	</g>
	<g>
		<g>
			<path fill="#898989" d="M894.833,374.098c-2.29,2.989-3.207,6.651-5.156,9.837c-4.701,7.68-11.645,0.623-13.72-4.084
				c-3.766-8.544-3.802-19.448-4.121-28.546c-0.448-12.769,0.383-25.589,1.544-38.3c0.612-6.707,1.513-13.373,1.806-20.108
				c0.296-6.813,0.358-13.452,1.181-20.246c0.698-5.78-0.079-11.603,0.938-17.356c0.706-3.994,0.907-8.012,1.066-12.062
				c0.339-8.573,0.563-17.116,1.23-25.672c0.722-9.218,1.155-18.366,1.099-27.614c-0.055-8.585-0.924-17.442-0.194-25.996
				c0.017-0.185-1.84-0.014-1.885,0.505c-0.801,9.396,0.172,19.146,0.207,28.581c0.036,9.582-0.625,19.09-1.397,28.633
				c-0.797,9.854-0.566,19.758-1.37,29.609c-0.453,5.547-1.252,10.813-1.235,16.432c0.021,7.393-1.652,14.656-1.479,22.09
				c0.342,14.466-2.565,29.109-3.229,43.574c-0.595,12.974-0.441,26.141,1.78,38.965c1.147,6.627,3.544,15.131,11.56,15.336
				c8.467,0.219,9.188-8.659,13.229-13.932C896.759,373.646,895.163,373.667,894.833,374.098L894.833,374.098z"/>
		</g>
	</g>
	<g opacity="0.5">
		<path fill="#D6D6D6" d="M866.894,68.364c-2.125,7.627-2.015,29.412-1.589,36.704c0.638,10.715,5.084,19.618,10.875,28.527
			c6.236,9.594,14.72,16.46,25.685,19.231c4.914,1.156,10.959,1.634,15.447-1.318c6.055-3.627,7.204-12.51,8.793-18.889
			c2.045-9.336,2.977-20.047,0.768-29.4c-0.881-4.333-8.812-43.563-10.361-47.674c-1.332-3.648-2.213-7.982-4.219-11.181
			c-2.893-4.338-6.912-7.317-9.361-12.11c-2.444-4.567-4.67-9.36-10.264-10.291C880.135,19.871,870.064,56.978,866.894,68.364z"/>
	</g>
	<g opacity="0.5">
		<path fill="#D6D6D6" d="M892.417,371.887c14.154-36.06,5.719-89.072,5.719-127.072c0-19,4-45-1-63c-6-19-8,0-9,11c-1,10-1,21-1,31
			c0,28,0,55-1,82c0,20-18.817,53.769-2.817,68.769c1-1,3.215-1.953,4.215-2.953"/>
	</g>
	<ellipse cx="906.948" cy="61.468" rx="1.544" ry="2.02"/>
	<path fill="#8A898C" d="M878.615,152.515h21.918c0,0,0.36-2.002-0.029-4.673c-0.75-5.131-4.01-12.549-10.93-12.549
		c-6.269,0-9.488,6.262-10.64,11.199C878.15,149.858,878.615,152.515,878.615,152.515z"/>
	<path d="M878.615,148.381h21.918c0,0-0.416-17.222-10.959-17.222C879.033,131.16,878.615,148.381,878.615,148.381z"/>
	<g>
		<g>
			<path fill="#8A898C" d="M868.789,64.421c0.602,2.747,0.076,6.021-1.348,8.491c-1.423,2.49-3.73,4.116-6.214,4.084
				c-1.118-0.002-2.381-0.375-3.432-1.091c-1.065-0.715-2.002-1.75-2.709-2.991c-1.428-2.469-1.951-5.747-1.346-8.494
				c0.594,2.726,1.612,4.915,2.959,6.425c1.35,1.52,2.903,2.314,4.602,2.314c1.549,0.006,3.213-0.79,4.529-2.312
				C867.178,69.339,868.199,67.147,868.789,64.421z"/>
			<g>
				<ellipse fill="#FFFFFF" cx="861.264" cy="64.422" rx="7.523" ry="10.658"/>
				<ellipse cx="861.264" cy="64.422" rx="2.57" ry="3.64"/>
			</g>
		</g>
		<circle fill="#FFFFFF" cx="859.86" cy="61.909" r="0.702"/>
	</g>
	<g>
		<g>
			<path fill="#8A898C" d="M919.902,64.421c0.604,2.747,0.078,6.021-1.349,8.491c-1.42,2.49-3.727,4.116-6.211,4.084
				c-1.121-0.002-2.383-0.375-3.432-1.091c-1.066-0.715-2.002-1.75-2.711-2.991c-1.427-2.469-1.951-5.747-1.345-8.494
				c0.595,2.726,1.613,4.915,2.959,6.425c1.351,1.52,2.906,2.314,4.603,2.314c1.549,0.006,3.213-0.79,4.529-2.312
				C918.294,69.339,919.314,67.147,919.902,64.421z"/>
			<g>
				<ellipse fill="#FFFFFF" cx="912.379" cy="64.422" rx="7.522" ry="10.658"/>
				<ellipse cx="912.38" cy="64.422" rx="2.57" ry="3.64"/>
			</g>
		</g>
		<circle fill="#FFFFFF" cx="910.974" cy="61.909" r="0.702"/>
	</g>
</g>
<g>
	<path opacity="0.6" fill="#394747" enable-background="new    " d="M1001.287,172.625c0,0-29.854-2.879-35.314-41.557
		c-5.459-38.678,7.031-81.407,21.859-102.53c14.826-21.125,38.938-31.642,59.207,22.017c20.271,53.66,12.158,90.867,2.498,101.934
		c-9.658,11.067-25.725,19.77-25.725,19.77l6.615,216.353c0,0-22.65,18.258-32.427,0.927
		C987.81,371.472,1001.287,172.625,1001.287,172.625z"/>
	<path fill="#C1C1C1" d="M996.621,171.292c0,0-29.854-2.878-35.314-41.557c-5.459-38.678,7.031-81.407,21.859-102.53
		c14.826-21.125,38.938-31.643,59.207,22.016c20.271,53.661,12.158,90.867,2.498,101.934c-9.658,11.068-25.725,19.771-25.725,19.771
		l5.135,215.345c0,0-21.17,19.267-30.945,1.935C983.144,370.14,996.621,171.292,996.621,171.292z"/>
	<g>
		<g>
			<path fill="#898989" d="M1006.632,12.291c-18.396,6.533-29.679,23.282-36.62,40.733c-7.614,19.147-10.982,41.044-9.087,61.576
				c1.807,19.543,9.53,41.104,27.116,51.714c13.605,8.209,34.213,7.431,46.512-2.923c10.321-8.689,13.837-23.405,15.46-36.173
				c1.754-13.799,1.108-27.955-0.608-41.724c-1.956-15.68-6.398-31.156-13.19-45.43c-5.835-12.263-14.904-26.05-29.009-29.313
				c-0.44-0.102-2.09,0.606-1.555,0.73c19.722,4.563,29.609,28.605,35.334,45.753c5.64,16.89,7.971,34.65,8.114,52.414
				c0.145,17.705-1.733,39.255-14.837,52.572c-8.566,8.708-22.462,10.146-33.896,7.652c-10.235-2.232-18.591-9.086-24.577-17.433
				c-15.393-21.457-15.454-50.951-10.745-75.826c4.679-24.71,16.507-54.759,42.24-63.897
				C1008.556,12.264,1007.349,12.036,1006.632,12.291L1006.632,12.291z"/>
		</g>
	</g>
	<g>
		<g>
			<path fill="#898989" d="M1014.622,379.099c-2.29,2.988-3.207,6.651-5.156,9.836c-4.701,7.678-11.645,0.623-13.72-4.084
				c-3.766-8.543-3.802-19.447-4.121-28.545c-0.448-12.771,0.383-25.59,1.544-38.301c0.612-6.707,1.513-13.373,1.806-20.107
				c0.296-6.813,0.358-13.452,1.181-20.246c0.699-5.781-0.079-11.604,0.938-17.358c0.706-3.993,0.907-8.011,1.066-12.062
				c0.339-8.572,0.563-17.115,1.23-25.672c0.722-9.217,1.155-18.365,1.099-27.614c-0.056-8.585-0.924-17.442-0.194-25.995
				c0.017-0.184-1.84-0.014-1.885,0.505c-0.801,9.396,0.172,19.146,0.207,28.58c0.036,9.582-0.625,19.088-1.396,28.633
				c-0.798,9.854-0.567,19.758-1.371,29.608c-0.453,5.548-1.252,10.813-1.235,16.432c0.021,7.394-1.652,14.656-1.478,22.089
				c0.341,14.467-2.566,29.11-3.229,43.575c-0.595,12.974-0.441,26.142,1.78,38.964c1.147,6.629,3.544,15.133,11.56,15.338
				c8.468,0.217,9.188-8.66,13.229-13.933C1016.548,378.646,1014.952,378.669,1014.622,379.099L1014.622,379.099z"/>
		</g>
	</g>
	<g opacity="0.5">
		<path fill="#D6D6D6" d="M986.683,73.364c-2.125,7.627-2.015,29.412-1.589,36.704c0.638,10.714,5.084,19.618,10.875,28.528
			c6.236,9.593,14.72,16.46,25.685,19.231c4.914,1.156,10.959,1.634,15.447-1.318c6.055-3.627,7.204-12.51,8.793-18.889
			c2.045-9.336,2.977-20.046,0.768-29.4c-0.881-4.333-8.812-43.563-10.361-47.674c-1.332-3.648-2.213-7.982-4.219-11.18
			c-2.893-4.338-6.912-7.318-9.361-12.11c-2.444-4.568-4.67-9.361-10.264-10.292C999.925,24.87,989.853,61.978,986.683,73.364z"/>
	</g>
	<g opacity="0.5">
		<path fill="#D6D6D6" d="M1012.206,376.888c14.154-36.06,5.719-89.072,5.719-127.072c0-19,4-45.001-1-63.001c-6-19-8,0-9,11
			c-1,10-1,21-1,31.001c0,28,0,55-1,82c0,20-18.817,53.768-2.817,68.768c1-1,3.215-1.953,4.215-2.953"/>
	</g>
	<g>
		<path fill="none" stroke="#000000" stroke-width="2" stroke-linecap="round" stroke-miterlimit="10" d="M982.689,148.372
			c2.744-9.021,13.1-14.055,24.035-14.069c10.668-0.011,21.332,5.62,24.073,14.008"/>
		<g>
			<path fill="#8A898C" d="M991.663,71.454c0.662,2.218,0.084,4.86-1.482,6.855c-1.561,2.01-4.098,3.322-6.825,3.297
				c-1.232-0.001-2.617-0.302-3.771-0.88c-1.172-0.578-2.199-1.412-2.979-2.414c-1.566-1.994-2.146-4.64-1.478-6.858
				c0.652,2.201,1.772,3.968,3.252,5.186c1.482,1.227,3.191,1.869,5.057,1.869c1.701,0.005,3.529-0.637,4.978-1.865
				C989.896,75.425,991.012,73.656,991.663,71.454z"/>
			<path fill="#FFFFFF" d="M987.49,63.985l-10.094,1.562c-1.402,1.541-2.269,3.617-2.269,5.908c0,4.751,3.701,8.604,8.269,8.604
				c4.566,0,8.268-3.852,8.268-8.604C991.663,68.254,989.982,65.467,987.49,63.985z"/>
			<path d="M980.865,65.01c-0.182,0.389-0.293,0.819-0.293,1.279c0,1.623,1.264,2.94,2.824,2.94c1.56,0,2.823-1.317,2.823-2.94
				c0-0.771-0.291-1.466-0.756-1.99L980.865,65.01z"/>
			<circle fill="#FFFFFF" cx="984.622" cy="65.556" r="0.771"/>
		</g>
		<g>
			<path fill="#8A898C" d="M1023.124,71.454c-0.662,2.218-0.084,4.86,1.482,6.855c1.561,2.01,4.098,3.322,6.825,3.297
				c1.232-0.001,2.617-0.302,3.771-0.88c1.172-0.578,2.199-1.412,2.979-2.414c1.566-1.994,2.146-4.64,1.478-6.858
				c-0.652,2.201-1.772,3.968-3.252,5.186c-1.482,1.227-3.191,1.869-5.057,1.869c-1.701,0.005-3.529-0.637-4.978-1.865
				C1024.892,75.425,1023.775,73.656,1023.124,71.454z"/>
			<path fill="#FFFFFF" d="M1027.298,63.985l10.095,1.562c1.401,1.541,2.268,3.617,2.268,5.908c0,4.751-3.701,8.604-8.268,8.604
				c-4.567,0-8.269-3.852-8.269-8.604C1023.124,68.254,1024.808,65.467,1027.298,63.985z"/>
			<path d="M1033.925,65.01c0.183,0.389,0.291,0.819,0.291,1.279c0,1.623-1.264,2.94-2.823,2.94c-1.561,0-2.824-1.317-2.824-2.94
				c0-0.771,0.291-1.466,0.758-1.99L1033.925,65.01z"/>
			<circle fill="#FFFFFF" cx="1030.167" cy="65.556" r="0.771"/>
		</g>
	</g>
</g>
</svg>
