<?xml version="1.0" encoding="utf-8"?>
<!-- Generator: Adobe Illustrator 16.0.0, SVG Export Plug-In . SVG Version: 6.00 Build 0)  -->
<!DOCTYPE svg PUBLIC "-//W3C//DTD SVG 1.1//EN" "http://www.w3.org/Graphics/SVG/1.1/DTD/svg11.dtd">
<svg version="1.1" id="Layer_2" xmlns="http://www.w3.org/2000/svg" xmlns:xlink="http://www.w3.org/1999/xlink" x="0px" y="0px"
	 width="100px" height="400px" viewBox="0 0 100 400" enable-background="new 0 0 100 400" xml:space="preserve">
<g>
	<path fill="#9AA7A0" d="M37.171,163.621c0,0-28.587-3.465-32.918-40.716c-4.33-37.25,8.664-77.968,23.393-97.893
		C42.374,5.085,65.763-4.442,83.955,47.536c18.19,51.979,9.53,87.499,0,97.892c-9.532,10.395-30.319,19.061-30.319,19.061
		l3.463,212.243H25.912L37.171,163.621z"/>
	<g>
		<g>
			<path fill="#80808A" d="M31.286,73.229c0.583,1.947,0.075,4.264-1.299,6.014c-1.368,1.762-3.592,2.913-5.986,2.891
				c-1.081,0-2.296-0.265-3.308-0.771c-1.028-0.507-1.929-1.24-2.612-2.119c-1.374-1.748-1.879-4.067-1.296-6.014
				c0.573,1.932,1.557,3.48,2.853,4.55c1.299,1.076,2.798,1.64,4.433,1.64c1.494,0.003,3.099-0.56,4.366-1.637
				C29.736,76.713,30.717,75.16,31.286,73.229z"/>
			<g>
				<ellipse fill="#FFFFFF" cx="24.033" cy="73.823" rx="7.25" ry="7.545"/>
				<ellipse cx="24.033" cy="73.823" rx="2.478" ry="2.578"/>
			</g>
		</g>
		<circle fill="#FFFFFF" cx="25.388" cy="75.423" r="0.676"/>
	</g>
	<g>
		<path fill="#80808A" d="M42.813,148.411c-8.838,0.008-17.685-4.042-21.141-12.8l-0.979-0.011
			c2.402,10.959,12.277,15.96,22.12,15.952c10.093-0.014,17.806-4.461,21.962-15.431l-1.384-0.017
			C59.018,144.789,51.879,148.398,42.813,148.411z"/>
		<path fill="none" stroke="#000000" stroke-width="0.9601" stroke-linecap="round" stroke-miterlimit="10" d="M64.001,135.546
			c-2.42,7.955-11.554,12.397-21.2,12.41c-9.411,0.009-18.817-4.957-21.236-12.356"/>
	</g>
	
		<rect x="11.601" y="78.535" transform="matrix(-0.9895 -0.1447 0.1447 -0.9895 31.202 168.1866)" fill="#9AA7A0" width="20.237" height="8.846"/>
	<g>
		<g>
			<path fill="#80808A" d="M74.325,73.229c0.582,1.947,0.074,4.264-1.298,6.014c-1.368,1.762-3.594,2.913-5.986,2.891
				c-1.082,0-2.296-0.265-3.309-0.771c-1.03-0.507-1.93-1.24-2.612-2.119c-1.375-1.748-1.879-4.067-1.295-6.014
				c0.571,1.932,1.556,3.48,2.85,4.55c1.302,1.076,2.801,1.64,4.437,1.64c1.492,0.003,3.098-0.56,4.365-1.637
				C72.774,76.713,73.757,75.16,74.325,73.229z"/>
			<g>
				<ellipse fill="#FFFFFF" cx="67.074" cy="73.823" rx="7.25" ry="7.545"/>
				<ellipse cx="67.073" cy="73.823" rx="2.478" ry="2.578"/>
			</g>
		</g>
		<circle fill="#FFFFFF" cx="68.427" cy="75.423" r="0.676"/>
	</g>
	
		<rect x="59.432" y="78.535" transform="matrix(-0.989 0.1478 -0.1478 -0.989 150.5952 154.7285)" fill="#9AA7A0" width="20.237" height="8.846"/>
</g>
</svg>
