<?xml version="1.0" encoding="utf-8"?>
<!-- Generator: Adobe Illustrator 16.0.3, SVG Export Plug-In . SVG Version: 6.00 Build 0)  -->
<!DOCTYPE svg PUBLIC "-//W3C//DTD SVG 1.1//EN" "http://www.w3.org/Graphics/SVG/1.1/DTD/svg11.dtd">
<svg version="1.1" id="Layer_2" xmlns="http://www.w3.org/2000/svg" xmlns:xlink="http://www.w3.org/1999/xlink" x="0px" y="0px"
	 width="450px" height="1000px" viewBox="0 0 450 1000" enable-background="new 0 0 450 1000" xml:space="preserve">
<g>
	<path fill="#F95F5F" d="M726.67,604.544c15.973,0.08,40.662-4.749,57.498-4.957c28.051-1.078,46.766-0.577,63.473-11.006
		c13.017-6.732,18.525-14.835,20.295-22.889c3.57-13.918,5.209-32.924-4.315-46.681c-5.744-10.882-13.283-15.17-41.379-17.741
		c-29.963-2.554-65.244-13.438-95.191-14.527c-46.807-3.074-114.428,4.563-143.317,18.721c-9.224,4.519-21.191,23.841-26.701,31.941
		c-5.504,8.83-9.14,17.637-7.158,26.375c3.994,20.396,36.578,31.688,85.25,34.006c28.086,1.844,40.604,5.503,50.084,15.607
		c0,0,34.652,59.399,59.93,64.289c0,0-33.578-44.959-32.846-55.087C712.73,616.501,715.207,604.488,726.67,604.544z"/>
</g>
<path fill="#06C38D" d="M3.421,231.905c0.419-2.126,1.504-6.62,1.504-8.413c0-6.742-1.504-25.726-1.504-25.726
	c0-2.624,3.492-4.75,7.797-4.75c0,0,142.09-3.216,177.527-1.521c10.515,0.503,42.866,1.521,42.866,1.521
	c4.306,0,7.797,2.126,7.797,4.75c0,0,4.501,31.404,3.427,41.863c-0.308,2.998-3.427,11.829-3.427,11.829
	c0,2.624-3.506,4.542-7.797,4.75c-7.464,0.362-22.305,2.178-29.739,2.178c-2.689,0-5.886-0.097-9.417-0.259
	c0.14,3.241,0.001,7.681-2.157,11.537c-4.691,8.38-7.527,28.233-19.416,30.271c0,0-2.735-0.025,1.426-1.618
	c4.159-1.593,4.75-14.96,8.804-30.949c0.462-1.824,0.892-6.645-1.438-9.981c-16.917-1.046-51.636-3.955-72.444-3.955
	c-12.798,0-83.774,2.443-96.013,2.776c-4.301,0.117-7.797-2.127-7.797-4.75C3.421,251.457,2.472,236.758,3.421,231.905z"/>
<g>
	<path fill="#AACC52" d="M854.508,174.261c-1.563-11.109-1.563-20.629-13.299-26.184c-7.039-3.967-26.023-10.16-33.816-10.662
		c-35.483-2.281-63.102,0.265-98.307,2.645c-33.639,2.381-59.068,3.451-93.201,7.798c-7.781,0.991-25.789,9.741-32.049,16.087
		c-6.258,6.349-3.912,17.457-3.912,26.186c0,0,0.484,15.936,3.781,20.84c13.082,19.459,17.1,25.998,39.787,26.791
		c42.334,1.455,90.469,1.063,132.801,0.851c10.346,1.003,12.57,7.567,11.596,17.159c0.556,7.834-12.192,21.848-9.604,28.993
		c2.393,6.604,21.5-38.995,28.434-46.335c2.052-2.17,4.375-2.799,5.879-3.227c11.025-3.129,19.037-2.747,29.839-2.227
		c11.735,0,24.146,3.264,32.75-7.05C863.789,213.23,856.072,189.335,854.508,174.261z"/>
</g>
<g>
	<path fill="#6BA165" d="M3.422,79.208c0.419-2.193,1.503-6.831,1.503-8.681c0-6.957-1.503-26.546-1.503-26.546
		c0-2.707,3.49-4.901,7.795-4.901c0,0,142.09-3.319,177.527-1.571c10.515,0.52,42.867,1.571,42.867,1.571
		c4.306,0,7.797,2.194,7.797,4.901c0,0,4.5,32.405,3.426,43.197c-0.307,3.092-3.426,12.206-3.426,12.206
		c0,2.708-3.506,4.687-7.797,4.901c-7.465,0.374-22.305,2.248-29.74,2.248c-2.688,0-5.886-0.101-9.418-0.268
		c0.142,3.344,0.002,7.926-2.156,11.905c-4.689,8.647-7.525,29.132-19.414,31.234c0,0-2.735-0.024,1.427-1.668
		c4.157-1.644,4.749-15.437,8.802-31.935c0.463-1.882,0.892-6.857-1.438-10.3c-16.915-1.081-51.635-4.081-72.444-4.081
		c-12.798,0-83.773,2.521-96.013,2.864c-4.3,0.121-7.795-2.194-7.795-4.901C3.422,99.384,2.472,84.216,3.422,79.208z"/>
	<g>
		<path d="M29.666,48.862c-0.049,0.122-0.073,0.317-0.073,0.342l0.024,0.024l-3.832,16.646h-2.172l-2.538-7.834l-0.049-0.049
			l-3.393,7.834l0.024,0.049h-2.343L12.288,49.18h2.636l2.025,12.301l2.929-7.102h2.66l2.099,6.492l2.636-12.008L29.666,48.862
			L29.666,48.862z"/>
		<path d="M39.555,48.984l2.734,0.342v0.22l0.048,0.073l1.782,15.645l0.048,0.098l-0.317,0.513h-0.34l-0.049,0.049l-0.049-0.049
			l-0.244,0.049h-1.586l-0.927-7.59H39.14l-0.146-0.098h-2.417l-0.098,0.098l-1.831,7.371l0.098,0.049h-2.319l-0.146,0.122h-0.659
			l4.564-16.719h2.709l0.073-0.195L39.555,48.984z M39.433,52.059l-0.049,0.048h-1.391l-0.073-0.048l-0.952,3.856v0.439h3.442
			l-0.439-2.831l-0.073-1.099L39.849,52.4l0.049-0.049L39.8,52.23v-0.17L39.433,52.059L39.433,52.059z"/>
		<path d="M51.665,48.813h2.514v17.061h-2.221v-7.712h-3.1v7.712h-2.27V49.106h2.417v7.078l2.636-0.122L51.665,48.813z"/>
		<path d="M59.942,65.898h-1.025l-0.049-0.049h-0.952V49.496l-0.195-0.146l0.22-0.146h1.831l0.097-0.098h1.269l3.149,8.933v-8.884
			l1.757-0.22h0.463l0.024,0.293c0,0.024,0,0.049-0.024,0.073h0.195v9.25l0.049,0.048l-0.049,0.049l0.049,0.024l-0.049,0.049
			l0.049,0.073v6.98H65.58l-0.292-0.049l-0.146,0.049h-1l-4.198-11.813v11.937H59.942z"/>
		<path d="M76.86,58.234c0-0.61-0.732-0.757-1.318-0.806h-3.295c-1.879,0-2.416-1.22-2.416-1.757v-3.515
			c0-2.245,2.636-3.295,2.636-3.295h6.175v2.294h-5.223c-0.464,0-1.05,0.415-1.05,1.513v2.563h4.295
			c1.343,0,2.392,1.025,2.392,2.001v6.517c0,0.732-0.513,2.123-2.221,2.123h-6.907v-2.27h5.76c0.244,0,1.22-0.318,1.22-0.903
			L76.86,58.234z"/>
		<path d="M82.525,49.374l2.611-0.292v9.079l-0.146,0.073v7.518l-1.586,0.122h-1.049L82.525,49.374z"/>
		<path d="M90.287,65.898h-1.024l-0.049-0.049h-0.952V49.496l-0.195-0.146l0.219-0.146h1.831l0.098-0.098h1.269l3.148,8.933v-8.884
			l1.757-0.22h0.464l0.024,0.293c0,0.024,0,0.049-0.024,0.073h0.195v9.25l0.049,0.048l-0.049,0.049l0.049,0.024l-0.049,0.049
			l0.049,0.073v6.98h-1.172l-0.293-0.049l-0.146,0.049h-1l-4.198-11.813L90.287,65.898L90.287,65.898z"/>
		<path d="M102.25,65.898h-1.025l-0.049-0.049h-0.952V49.496l-0.195-0.146l0.22-0.146h1.831l0.098-0.098h1.269l3.149,8.933v-8.884
			l1.757-0.22h0.464l0.024,0.293c0,0.024,0,0.049-0.024,0.073h0.195v9.25l0.049,0.048l-0.049,0.049l0.049,0.024l-0.049,0.049
			l0.049,0.073v6.98h-1.172l-0.292-0.049l-0.147,0.049h-1l-4.198-11.813v11.937H102.25z"/>
		<path d="M114.847,48.911v6.296l0.122,0.147v3.392l0.098,0.098l-0.049,0.146v1.977l-0.049-0.049v0.049l-0.098-0.049h-2.832
			l-0.048-0.098v-8.152l0.098-0.146V48.91L114.847,48.911L114.847,48.911z M112.601,62.945h2.49v0.756l-0.024-0.024l0.073,0.561
			v1.538l-0.049,0.098h-3.1v-2.978L112.601,62.945z"/>
		<path d="M132.618,58.234c0-0.61-0.732-0.757-1.318-0.806h-3.295c-1.879,0-2.416-1.22-2.416-1.757v-3.515
			c0-2.245,2.636-3.295,2.636-3.295h6.175v2.294h-5.223c-0.464,0-1.049,0.415-1.049,1.513v2.563h4.295
			c1.342,0,2.392,1.025,2.392,2.001v6.517c0,0.732-0.513,2.123-2.222,2.123h-6.907v-2.27h5.76c0.244,0,1.221-0.318,1.221-0.903
			L132.618,58.234z"/>
		<path d="M145.069,48.984l2.733,0.342v0.22l0.049,0.073l1.782,15.645l0.049,0.098l-0.317,0.513h-0.342l-0.049,0.049l-0.049-0.049
			l-0.244,0.049h-1.587l-0.927-7.59h-1.513l-0.146-0.098h-2.416l-0.098,0.098l-1.831,7.371l0.098,0.049h-2.319l-0.146,0.122h-0.659
			l4.563-16.719h2.709l0.073-0.195L145.069,48.984z M144.947,52.059l-0.049,0.048h-1.391l-0.074-0.048l-0.952,3.856v0.439h3.441
			l-0.439-2.831l-0.074-1.099L145.36,52.4l0.049-0.049l-0.097-0.122v-0.17H144.947z"/>
		<path d="M156.544,65.873V51.4h-4.76v-1.782l-0.097-0.025v-0.268h9.47l0.098-0.293h1.245l0.61-0.049l0.073,0.439l0.073,0.83v1.171
			h-4.076v14.328l-0.073,0.122h-0.806l-0.097-0.049l-0.098,0.049H156.544z"/>
		<path d="M171.046,65.873V51.4h-4.759v-1.782l-0.098-0.025v-0.268h9.47l0.098-0.293h1.245l0.61-0.049l0.073,0.439l0.073,0.83v1.171
			h-4.076v14.328l-0.073,0.122h-0.805l-0.098-0.049l-0.098,0.049H171.046z"/>
		<path d="M199.315,61.846l-0.098,1.025c0,2.001-1.464,2.929-2.343,2.929h-2.758l-0.049,0.098l-0.049-0.049l-0.098,0.049h-3.978
			c-1.001,0-1.879-1.66-1.879-2.392V52.694c0-2.392,1.416-3.246,2.221-3.246h0.464l0.83-0.195l0.049,0.049l2.294-0.366h1.318
			c1.464,0,3.539,1.025,3.539,3.319h0.049v0.635L199.315,61.846z M196.337,51.937l-1.513-0.903l-0.195,0.146h-2.124l-0.098,0.049
			l-0.024-0.049l-0.049,0.049h-0.488V51.18h-0.049l-1.098,0.903v1.806l0.049,0.024l-0.049,0.049l0.122,0.195v4.198l0.049,0.025
			l-0.049,0.073l0.049,0.098l-0.049,0.048l0.171,0.61v4.002l0.049,0.049v0.244l0.122,0.269l0.513,0.39h0.659l0.122-0.073h2.222
			l-0.195-0.269l0.659-0.098l0.049,0.317h0.757l0.513-0.659l0.269-0.512L196.337,51.937z"/>
		<path d="M207.861,48.813h2.514v17.061h-2.221v-7.712h-3.1v7.712h-2.27V49.106h2.417v7.078l2.636-0.122L207.861,48.813z"/>
		<path d="M216.137,65.898h-1.024l-0.049-0.049h-0.952V49.496l-0.194-0.146l0.219-0.146h1.832l0.097-0.098h1.269l3.148,8.933v-8.884
			l1.757-0.22h0.463l0.025,0.293c0,0.024,0,0.049-0.025,0.073h0.195v9.25l0.049,0.048l-0.049,0.049l0.049,0.024l-0.049,0.049
			l0.049,0.073v6.98h-1.171l-0.293-0.049l-0.146,0.049h-1l-4.199-11.813L216.137,65.898L216.137,65.898z"/>
		<path d="M233.227,63.799v2.075h-7.371l0.365-11.105l0.122-0.073v-5.76h6.884v2.27h-4.541l-0.22,5.711l0.122,0.048h4.246v1.831
			h-4.417l-0.099,1.464l0.05,0.146l-0.05,0.293v3.173L233.227,63.799z"/>
		<path d="M37.038,78.158c-0.049,0.122-0.073,0.317-0.073,0.341l0.024,0.024l-3.832,16.646h-2.172l-2.539-7.834l-0.049-0.049
			l-3.393,7.834l0.024,0.049h-2.343l-3.026-16.694h2.636l2.025,12.301l2.929-7.102h2.661l2.099,6.492l2.636-12.008H37.038z"/>
		<path d="M47.319,93.095v2.074h-7.371l0.366-11.105l0.122-0.073v-5.76h6.883v2.27h-4.54l-0.22,5.711l0.122,0.048h4.247v1.831H42.51
			l-0.098,1.464l0.049,0.147l-0.049,0.292v3.173L47.319,93.095z"/>
		<path d="M52.715,92.851h5.638l-0.122,2.318H50.25V78.06h2.44v13.912L52.715,92.851z"/>
		<path d="M66.142,95.169V80.696h-4.759v-1.782l-0.098-0.024v-0.269h9.47l0.098-0.292h1.245l0.611-0.049l0.073,0.438l0.073,0.83
			v1.172h-4.076v14.327l-0.073,0.122h-0.805l-0.098-0.049l-0.098,0.049L66.142,95.169L66.142,95.169z"/>
		<path d="M76.104,78.499h2.318v12.643c0,0.732,0.732,1.245,1.171,1.245h2.709c0.39,0,0.659-0.562,0.732-1.123v-12.74H85.5v14.718
			c0,0.83-1.196,1.831-1.977,1.928h-5.418c-1.05,0-2.001-0.878-2.001-2.514v-3.93V78.499z"/>
		<path d="M90.653,95.194h-1.025l-0.049-0.048h-0.952V78.792l-0.195-0.146l0.219-0.147h1.831l0.098-0.097h1.269l3.149,8.933V78.45
			l1.757-0.219h0.463l0.024,0.292c0,0.024,0,0.049-0.024,0.073h0.195v9.25l0.049,0.049l-0.049,0.049l0.049,0.024l-0.049,0.049
			l0.049,0.073v6.981H96.29l-0.292-0.049l-0.146,0.049h-1l-4.198-11.813L90.653,95.194L90.653,95.194z"/>
		<path d="M105.252,95.169V80.696h-4.759v-1.782l-0.098-0.024v-0.269h9.47l0.098-0.292h1.245l0.61-0.049l0.073,0.438l0.073,0.83
			v1.172h-4.076v14.327l-0.073,0.122h-0.805l-0.098-0.049l-0.098,0.049L105.252,95.169L105.252,95.169z"/>
		<path d="M122.243,93.095v2.074h-7.371l0.366-11.105l0.122-0.073v-5.76h6.883v2.27h-4.54l-0.219,5.711l0.122,0.048h4.247v1.831
			h-4.417l-0.098,1.464l0.049,0.147l-0.049,0.292v3.173L122.243,93.095z"/>
		<path d="M127.907,95.169h-2.392V78.402h7.005c1.903,0,2.416,1.489,2.416,2.66v4.54c0,0.977-0.903,1.977-1.66,1.977h-1.049
			l3.076,7.59h-2.832l-2.758-7.59h-1.854L127.907,95.169z M132.496,80.891h-4.662v4.32h0.244l0.123,0.146h4.295V80.891z"/>
		<path d="M140.359,80.965v12.13h4.173V88.8l-0.073-0.903l-0.561-0.61h-1.806V85.26l0.048-0.245h3.222
			c0.439,0,1.44,0.366,1.44,1.367v6.272c0,1.489-1.392,2.27-1.757,2.465c-0.024,0.025-0.049,0.049-0.073,0.049h-4.93
			c-0.659,0-1.807-0.659-1.807-1.464v-4.149l-0.048-0.097l0.098-0.049v-8.933c0-0.854,0.976-1.953,2.465-1.953h4.394
			c0.513,0,1.513,0.317,1.513,1.977v1.806h-2.099l-0.049-1.367L140.359,80.965z"/>
		<path d="M156.69,78.28l2.734,0.342v0.22l0.048,0.073l1.782,15.645l0.048,0.098l-0.317,0.512h-0.342l-0.049,0.049l-0.049-0.049
			l-0.244,0.049h-1.586l-0.927-7.591h-1.514l-0.146-0.098h-2.417l-0.098,0.098l-1.831,7.371l0.098,0.049h-2.318l-0.147,0.122h-0.659
			l4.564-16.719h2.709l0.073-0.195L156.69,78.28z M156.568,81.355l-0.049,0.048h-1.391l-0.073-0.048l-0.952,3.856v0.439h3.442
			l-0.439-2.831l-0.073-1.099l-0.049-0.024l0.049-0.049l-0.098-0.122v-0.171L156.568,81.355L156.568,81.355z"/>
		<path d="M165.529,95.194h-1.024l-0.049-0.048h-0.952V78.792l-0.195-0.146l0.219-0.147h1.831l0.098-0.097h1.269l3.148,8.933V78.45
			l1.757-0.219h0.464l0.024,0.292c0,0.024,0,0.049-0.024,0.073h0.195v9.25l0.049,0.049l-0.049,0.049l0.049,0.024l-0.049,0.049
			l0.049,0.073v6.981h-1.172l-0.293-0.049l-0.146,0.049h-1l-4.198-11.813v11.936H165.529z"/>
		<path d="M177.443,80.965v12.13h4.174V88.8l-0.074-0.903l-0.561-0.61h-1.806V85.26l0.049-0.245h3.222
			c0.439,0,1.44,0.366,1.44,1.367v6.272c0,1.489-1.391,2.27-1.757,2.465c-0.024,0.025-0.049,0.049-0.073,0.049h-4.93
			c-0.659,0-1.806-0.659-1.806-1.464v-4.149l-0.049-0.097l0.098-0.049v-8.933c0-0.854,0.976-1.953,2.465-1.953h4.394
			c0.513,0,1.513,0.317,1.513,1.977v1.806h-2.099l-0.048-1.367L177.443,80.965z"/>
		<path d="M189.674,78.207v6.297l0.122,0.146v3.393l0.098,0.098l-0.049,0.146v1.977l-0.049-0.049v0.049l-0.098-0.049h-2.832
			l-0.048-0.097v-8.152l0.098-0.146v-3.612L189.674,78.207L189.674,78.207z M187.428,92.24h2.49v0.757l-0.024-0.024l0.073,0.561
			v1.538l-0.049,0.097h-3.1v-2.978L187.428,92.24z"/>
	</g>
</g>
<g>
	<path d="M27.401,201.359c-0.049,0.123-0.073,0.319-0.073,0.343l0.024,0.024L23.5,218.461h-2.184l-2.552-7.876l-0.049-0.049
		l-3.411,7.876l0.024,0.049h-2.355l-3.042-16.783h2.65l2.037,12.366l2.944-7.14h2.674l2.11,6.527l2.65-12.072H27.401z"/>
	<path d="M37.73,216.375v2.085h-7.41l0.368-11.164l0.123-0.074v-5.79h6.919v2.282h-4.563l-0.221,5.741l0.123,0.049h4.269v1.84
		h-4.441l-0.098,1.473l0.049,0.147l-0.049,0.294v3.189L37.73,216.375z"/>
	<path d="M43.152,216.13h5.668l-0.123,2.331h-8.023v-17.2h2.454v13.985L43.152,216.13z"/>
	<path d="M56.647,218.461v-14.55h-4.785v-1.792l-0.098-0.024v-0.27h9.521l0.098-0.295h1.251l0.613-0.049l0.074,0.441l0.074,0.834
		v1.178h-4.098v14.403l-0.074,0.123h-0.81l-0.098-0.049l-0.098,0.049L56.647,218.461L56.647,218.461z"/>
	<path d="M68.743,201.874c0.073,0.123,0.294,0.344,0.294,0.368v5.668l5.938-5.742h3.263l-6.158,6.036l4.76,10.306h-2.896
		l-0.589-1.521l-2.601-5.645h-1.693v7.165H66.46v-16.636H68.743L68.743,201.874z"/>
	<path d="M83.661,216.13h5.668l-0.123,2.331h-8.023v-17.2h2.454v13.985L83.661,216.13z"/>
	<path d="M99.266,201.482l2.748,0.344v0.221l0.049,0.073l1.791,15.728l0.049,0.098l-0.319,0.515h-0.343l-0.049,0.049l-0.049-0.049
		l-0.246,0.049h-1.595l-0.932-7.631h-1.521l-0.147-0.098h-2.429l-0.098,0.098l-1.84,7.41l0.098,0.049h-2.331l-0.147,0.123h-0.663
		l4.588-16.807h2.724l0.073-0.196L99.266,201.482z M99.143,204.573l-0.049,0.049h-1.398l-0.073-0.049l-0.957,3.876v0.442h3.459
		l-0.442-2.847l-0.073-1.104l-0.049-0.024l0.049-0.049l-0.098-0.123v-0.171H99.143z"/>
	<path d="M113.129,210.781c0-0.614-0.736-0.761-1.325-0.81h-3.313c-1.889,0-2.429-1.227-2.429-1.767v-3.533
		c0-2.257,2.649-3.312,2.649-3.312h6.208v2.306h-5.251c-0.466,0-1.055,0.417-1.055,1.521v2.576h4.318
		c1.349,0,2.404,1.03,2.404,2.012v6.551c0,0.736-0.515,2.135-2.233,2.135h-6.944v-2.282h5.791c0.245,0,1.227-0.319,1.227-0.908
		L113.129,210.781z"/>
	<path d="M125.863,210.781c0-0.614-0.736-0.761-1.325-0.81h-3.313c-1.889,0-2.429-1.227-2.429-1.767v-3.533
		c0-2.257,2.65-3.312,2.65-3.312h6.208v2.306h-5.251c-0.466,0-1.055,0.417-1.055,1.521v2.576h4.318c1.35,0,2.405,1.03,2.405,2.012
		v6.551c0,0.736-0.515,2.135-2.233,2.135h-6.943v-2.282h5.79c0.246,0,1.227-0.319,1.227-0.908L125.863,210.781z"/>
	<path d="M138.768,216.375v2.085h-7.41l0.368-11.164l0.123-0.074v-5.79h6.919v2.282h-4.563l-0.221,5.741l0.123,0.049h4.269v1.84
		h-4.441l-0.098,1.473l0.049,0.147l-0.049,0.294v3.189L138.768,216.375z"/>
	<path d="M144.583,201.408v6.331l0.123,0.146v3.411l0.099,0.098l-0.049,0.147v1.988l-0.049-0.049v0.049l-0.098-0.049h-2.847
		l-0.049-0.098v-8.195l0.098-0.147v-3.631h2.772V201.408z M142.325,215.516h2.503v0.761l-0.024-0.025l0.073,0.564v1.546
		l-0.049,0.098h-3.116v-2.994L142.325,215.516z"/>
	<path d="M155.281,218.461l-0.049-0.834l0.049-0.049l-0.049-0.147l0.049-0.098v-9.201l-0.049-0.221l0.049-0.074v-4.024l-0.049-0.123
		l0.049-0.024v-1.497h4.686l0.098,0.049h1.35c1.325,0,2.724,2.232,2.724,3.189v10.551c0,0.908-1.472,2.502-2.552,2.502
		L155.281,218.461L155.281,218.461z M157.93,204.917l-0.073,0.049h-0.344v1.595l0.098,0.098h-0.049v0.417l0.049,0.049l-0.049,0.024
		l0.123,0.123v6.134l0.049,0.098v2.258l0.123,0.147h2.454l0.049-0.049h0.564l0.908-0.343h0.123v-4.858h-0.049l0.049-0.049
		l-0.172-0.246v-4.465l-0.147-0.564l-0.858-0.417L157.93,204.917L157.93,204.917z"/>
	<path d="M167.401,201.702h2.331v12.71c0,0.736,0.736,1.251,1.178,1.251h2.724c0.393,0,0.662-0.564,0.736-1.128v-12.808h2.478
		v14.795c0,0.834-1.202,1.84-1.987,1.938h-5.447c-1.055,0-2.012-0.883-2.012-2.527v-3.95L167.401,201.702L167.401,201.702z"/>
	<path d="M187.251,201.359h5.839l0.834,0.196l0.393,0.196l0.785,1.178l0.123,0.049l0.687,3.313l-0.049,0.663
		c-0.196,0.466-0.466,1.055-1.128,1.57c0.981,0.343,1.472,1.03,1.889,1.644v6.184c0,0.564-0.564,2.036-2.061,2.036h-7.066
		l-0.294-0.196h0.049v-1.742h0.049l-0.049-0.049v-0.098h0.049l-0.049-0.049l0.049-0.049h-0.049l0.049-0.221l-0.049-0.074
		l0.049-0.049l-0.049-0.024l0.049-0.245l-0.049-0.246l0.049-0.024L187.251,201.359z M189.655,211.222v3.583l-0.049,0.024v0.319
		l0.049,0.049l-0.049,0.245v0.466l0.147-0.123h3.95l0.098-0.049h0.516v-4.515h-0.859l-0.049,0.049l-0.245-0.049l-0.344,0.049
		l-0.172-0.049L189.655,211.222L189.655,211.222z M189.949,203.788v4.833h2.478c0,0,0.981-1.203,0.981-2.65
		c0-1.104-0.196-2.086-0.196-2.086l-0.221-0.049L189.949,203.788z"/>
	<path d="M199.74,201.874l2.625-0.294v9.127l-0.147,0.074v7.557l-1.595,0.123h-1.055L199.74,201.874z"/>
	<path d="M212.522,210.781c0-0.614-0.736-0.761-1.325-0.81h-3.313c-1.889,0-2.429-1.227-2.429-1.767v-3.533
		c0-2.257,2.65-3.312,2.65-3.312h6.208v2.306h-5.251c-0.466,0-1.055,0.417-1.055,1.521v2.576h4.318c1.35,0,2.405,1.03,2.405,2.012
		v6.551c0,0.736-0.515,2.135-2.233,2.135h-6.943v-2.282h5.79c0.246,0,1.227-0.319,1.227-0.908L212.522,210.781z"/>
	<path d="M222.926,218.461v-14.55h-4.785v-1.792l-0.098-0.024v-0.27h9.521l0.098-0.295h1.251l0.614-0.049l0.072,0.441l0.073,0.834
		v1.178h-4.097v14.403l-0.074,0.123h-0.81l-0.098-0.049l-0.098,0.049L222.926,218.461L222.926,218.461z"/>
	<path d="M32.43,240.224c0-0.613-0.736-0.761-1.325-0.81h-3.313c-1.889,0-2.429-1.227-2.429-1.767v-3.533
		c0-2.258,2.65-3.313,2.65-3.313h6.208v2.306H28.97c-0.466,0-1.055,0.417-1.055,1.521v2.576h4.318c1.35,0,2.405,1.031,2.405,2.012
		v6.551c0,0.736-0.515,2.135-2.233,2.135h-6.943v-2.282h5.79c0.246,0,1.227-0.319,1.227-0.908L32.43,240.224z"/>
	<path d="M44.944,230.925l2.748,0.343v0.221l0.049,0.074l1.791,15.728l0.049,0.098l-0.319,0.515h-0.343l-0.049,0.049l-0.049-0.049
		l-0.246,0.049H46.98l-0.933-7.63h-1.521l-0.147-0.098H41.95l-0.098,0.098l-1.84,7.41l0.098,0.049h-2.331l-0.147,0.123h-0.663
		l4.588-16.807h2.723l0.074-0.196L44.944,230.925z M44.821,234.016l-0.049,0.049h-1.399l-0.074-0.049l-0.957,3.877v0.441h3.459
		l-0.441-2.846l-0.074-1.104l-0.049-0.024l0.049-0.049l-0.098-0.123v-0.172H44.821z"/>
	<path d="M56.476,247.904v-14.55h-4.785v-1.791l-0.098-0.025v-0.27h9.521l0.098-0.294h1.251l0.613-0.049l0.074,0.442l0.074,0.834
		v1.178h-4.098v14.403l-0.074,0.123h-0.81l-0.098-0.049l-0.098,0.049h-1.57V247.904z"/>
	<path d="M71.051,247.904v-14.55h-4.785v-1.791l-0.098-0.025v-0.27h9.52l0.098-0.294h1.251l0.613-0.049l0.074,0.442l0.074,0.834
		v1.178H73.7v14.403l-0.074,0.123h-0.81l-0.098-0.049l-0.098,0.049h-1.569V247.904z"/>
	<path d="M90.335,233.623v12.195h4.196V241.5l-0.074-0.908l-0.564-0.614h-1.815v-2.037l0.049-0.245h3.239
		c0.441,0,1.447,0.368,1.447,1.374v6.306c0,1.497-1.398,2.282-1.767,2.479c-0.024,0.024-0.049,0.049-0.073,0.049h-4.957
		c-0.663,0-1.816-0.663-1.816-1.472v-4.171l-0.049-0.098l0.098-0.049v-8.98c0-0.859,0.981-1.963,2.478-1.963h4.417
		c0.515,0,1.521,0.319,1.521,1.987v1.815h-2.11l-0.049-1.374L90.335,233.623z"/>
	<path d="M107.142,245.818v2.085h-7.41l0.368-11.164l0.123-0.073v-5.791h6.919v2.282h-4.563l-0.221,5.741l0.123,0.049h4.269v1.84
		h-4.441l-0.098,1.472l0.049,0.147l-0.049,0.294v3.19L107.142,245.818z"/>
	<path d="M127.09,230.802c-0.049,0.123-0.074,0.319-0.074,0.343l0.025,0.025l-3.852,16.733h-2.184l-2.552-7.876l-0.049-0.049
		l-3.411,7.876l0.024,0.049h-2.355l-3.042-16.783h2.65l2.037,12.366l2.944-7.14h2.674l2.11,6.527l2.65-12.072L127.09,230.802
		L127.09,230.802z"/>
	<path d="M141.344,243.855l-0.098,1.03c0,2.012-1.472,2.944-2.355,2.944h-2.772l-0.049,0.098l-0.049-0.049l-0.098,0.049h-4
		c-1.006,0-1.889-1.668-1.889-2.404v-10.87c0-2.405,1.423-3.263,2.233-3.263h0.466l0.834-0.196l0.049,0.049l2.307-0.368h1.325
		c1.472,0,3.558,1.031,3.558,3.337h0.049v0.638L141.344,243.855z M138.351,233.893l-1.521-0.908l-0.196,0.147H134.5l-0.099,0.049
		l-0.024-0.049l-0.049,0.049h-0.491v-0.049h-0.049l-1.104,0.908v1.815l0.049,0.025l-0.049,0.049l0.123,0.196v4.22l0.049,0.024
		l-0.049,0.074l0.049,0.098l-0.049,0.049l0.172,0.613v4.024l0.049,0.049v0.246l0.123,0.27l0.515,0.393h0.663l0.123-0.073h2.233
		l-0.196-0.271l0.662-0.098l0.049,0.319h0.761l0.515-0.663l0.27-0.515L138.351,233.893z"/>
	<path d="M147.159,247.904h-2.404v-16.856h7.042c1.914,0,2.429,1.497,2.429,2.675v4.563c0,0.981-0.908,1.987-1.668,1.987h-1.055
		l3.092,7.631h-2.846l-2.773-7.631h-1.864L147.159,247.904z M151.772,233.55h-4.687v4.343h0.246l0.123,0.147h4.318V233.55z"/>
	<path d="M157.537,247.904l-0.049-0.834l0.049-0.049l-0.049-0.147l0.049-0.099v-9.201l-0.049-0.221l0.049-0.073v-4.024l-0.049-0.123
		l0.049-0.025v-1.497h4.687l0.098,0.049h1.35c1.325,0,2.724,2.233,2.724,3.19v10.55c0,0.908-1.472,2.503-2.552,2.503
		L157.537,247.904L157.537,247.904z M160.188,234.36l-0.074,0.049h-0.344v1.595l0.098,0.098h-0.049v0.417l0.049,0.049l-0.049,0.025
		l0.123,0.123v6.134l0.049,0.099v2.257l0.123,0.147h2.454l0.049-0.049h0.564l0.908-0.344h0.123v-4.858h-0.049l0.049-0.049
		l-0.171-0.245v-4.466l-0.147-0.564l-0.859-0.417L160.188,234.36L160.188,234.36z"/>
	<path d="M176.725,245.818v2.085h-7.41l0.368-11.164l0.123-0.073v-5.791h6.919v2.282h-4.563l-0.221,5.741l0.123,0.049h4.269v1.84
		h-4.441l-0.098,1.472l0.049,0.147l-0.049,0.294v3.19L176.725,245.818z"/>
	<path d="M181.902,247.928h-1.031l-0.049-0.049h-0.957V231.44l-0.196-0.147l0.221-0.147h1.84l0.098-0.098h1.276l3.165,8.98v-8.931
		l1.767-0.221h0.466l0.024,0.295c0,0.024,0,0.049-0.024,0.073h0.196v9.299l0.049,0.049l-0.049,0.049l0.049,0.024l-0.049,0.049
		l0.049,0.074v7.017h-1.178l-0.294-0.049l-0.147,0.049h-1.006l-4.22-11.875V247.928z"/>
	<path d="M194.562,230.851v6.331l0.123,0.147v3.411l0.099,0.098l-0.049,0.147v1.987l-0.049-0.049v0.049l-0.098-0.049h-2.847
		l-0.049-0.098v-8.195l0.098-0.147v-3.631L194.562,230.851L194.562,230.851z M192.304,244.959h2.503v0.761l-0.024-0.024l0.073,0.564
		v1.546l-0.049,0.098h-3.116v-2.993L192.304,244.959z"/>
</g>
<g>
	<g>
		<path fill="#FD9843" d="M155.058,449.877c-17.9-28.283-17.383-47.434-8.83-52.576c20.021-12.038,144.629,5.325,153.157-18.976
			c13.398-33.811-12.181-51.772-47.502-59.169c-28.015-7.396-138.602-11.188-161.743,6.774
			c-23.143,19.019-25.579,58.113,9.744,65.508c15.833,3.17,7.763,0.009,21.161,4.236
			C136.878,400.958,134.024,433.656,155.058,449.877z"/>
	</g>
	<g>
		<path d="M83.914,354.021l-0.046-0.774l0.046-0.046l-0.046-0.137l0.046-0.091v-8.543l-0.046-0.205l0.046-0.068v-3.736l-0.046-0.114
			l0.046-0.022v-1.39h4.352l0.091,0.046h1.253c1.23,0,2.529,2.073,2.529,2.961v9.796c0,0.843-1.367,2.324-2.369,2.324
			L83.914,354.021L83.914,354.021z M86.374,341.446l-0.068,0.045h-0.319v1.481l0.091,0.091h-0.046v0.387l0.046,0.046l-0.046,0.023
			l0.114,0.114v5.695l0.045,0.091v2.096l0.114,0.137h2.278l0.045-0.046h0.524l0.843-0.319h0.114v-4.511h-0.045l0.045-0.045
			l-0.159-0.228v-4.146l-0.137-0.524l-0.797-0.387L86.374,341.446L86.374,341.446z"/>
		<path d="M101.363,338.257l2.551,0.319v0.205l0.046,0.068l1.663,14.603l0.045,0.091l-0.296,0.478h-0.319l-0.045,0.045l-0.045-0.045
			l-0.228,0.045h-1.48l-0.866-7.084h-1.413l-0.137-0.091h-2.255l-0.091,0.091l-1.708,6.88l0.091,0.045h-2.165l-0.137,0.114h-0.615
			l4.26-15.605h2.529l0.068-0.182L101.363,338.257z M101.249,341.127l-0.045,0.045h-1.299l-0.068-0.045l-0.889,3.599v0.41h3.212
			l-0.41-2.643l-0.069-1.025l-0.045-0.023l0.045-0.046l-0.091-0.113v-0.16L101.249,341.127L101.249,341.127z"/>
		<path d="M114.233,346.891c0-0.57-0.683-0.707-1.23-0.752h-3.076c-1.754,0-2.255-1.139-2.255-1.64v-3.281
			c0-2.096,2.46-3.075,2.46-3.075h5.764v2.142h-4.875c-0.433,0-0.979,0.387-0.979,1.412v2.392h4.009
			c1.253,0,2.232,0.957,2.232,1.868v6.083c0,0.684-0.479,1.982-2.073,1.982h-6.447v-2.119h5.376c0.228,0,1.139-0.296,1.139-0.843
			L114.233,346.891z"/>
		<path d="M142.024,338.143c-0.045,0.114-0.068,0.296-0.068,0.319l0.023,0.022l-3.577,15.537h-2.028l-2.369-7.313l-0.046-0.045
			l-3.167,7.313l0.023,0.045h-2.187l-2.825-15.583h2.46l1.891,11.482l2.734-6.629h2.483l1.959,6.06l2.46-11.208H142.024
			L142.024,338.143z"/>
		<path d="M151.249,338.257l2.551,0.319v0.205l0.046,0.068l1.663,14.603l0.045,0.091l-0.296,0.478h-0.319l-0.045,0.045l-0.045-0.045
			l-0.228,0.045h-1.481l-0.865-7.084h-1.413l-0.136-0.091h-2.255l-0.091,0.091l-1.708,6.88l0.091,0.045h-2.165l-0.137,0.114h-0.615
			l4.26-15.605h2.529l0.068-0.182L151.249,338.257z M151.135,341.127l-0.046,0.045h-1.298l-0.068-0.045l-0.889,3.599v0.41h3.212
			l-0.41-2.643l-0.069-1.025l-0.045-0.023l0.045-0.046l-0.091-0.113v-0.16L151.135,341.127L151.135,341.127z"/>
		<path d="M159.973,354.021h-2.232v-15.65h6.538c1.777,0,2.255,1.389,2.255,2.483v4.237c0,0.911-0.843,1.845-1.549,1.845h-0.979
			l2.87,7.085h-2.643l-2.575-7.085h-1.731L159.973,354.021z M164.256,340.695h-4.351v4.032h0.228l0.114,0.137h4.009V340.695z"/>
		<path d="M183.299,352.085v1.936h-6.879l0.342-10.365l0.113-0.069v-5.376h6.424v2.119h-4.237l-0.205,5.331l0.114,0.045h3.964v1.708
			h-4.123l-0.091,1.367l0.045,0.137l-0.045,0.273v2.961L183.299,352.085z"/>
		<path d="M186.191,338.621l2.438-0.273v8.475l-0.137,0.068v7.017l-1.48,0.114h-0.98L186.191,338.621z"/>
		<path d="M193.435,354.044h-0.957l-0.045-0.045h-0.889v-15.264l-0.183-0.137l0.206-0.137h1.708l0.091-0.091h1.185l2.939,8.338
			v-8.292l1.641-0.205h0.433l0.023,0.273c0,0.023,0,0.046-0.023,0.069h0.182v8.634l0.045,0.045l-0.045,0.046l0.045,0.023
			l-0.045,0.045l0.045,0.068v6.515h-1.093l-0.273-0.045l-0.137,0.045h-0.934l-3.918-11.026L193.435,354.044L193.435,354.044z"/>
		<path d="M209.381,352.085v1.936h-6.88l0.342-10.365l0.114-0.069v-5.376h6.424v2.119h-4.237l-0.205,5.331l0.114,0.045h3.964v1.708
			h-4.124l-0.091,1.367l0.045,0.137l-0.045,0.273v2.961L209.381,352.085z"/>
		<path d="M234.779,338.143c-0.045,0.114-0.068,0.296-0.068,0.319l0.023,0.022l-3.577,15.537h-2.027l-2.369-7.313l-0.046-0.045
			l-3.166,7.313l0.022,0.045h-2.187l-2.825-15.583h2.46l1.891,11.482l2.734-6.629h2.482l1.959,6.06l2.46-11.208H234.779
			L234.779,338.143z"/>
		<path d="M237.809,338.462h2.164v11.801c0,0.684,0.684,1.162,1.094,1.162h2.527c0.365,0,0.615-0.523,0.684-1.048v-11.892h2.302
			v13.738c0,0.774-1.117,1.708-1.847,1.799h-5.057c-0.98,0-1.867-0.82-1.867-2.346v-3.668V338.462z"/>
		<path d="M257.536,338.371v2.073l-4.056,0.273c-1.07,0-1.664,0.615-1.664,0.957v3.668l0.113,0.091v4.83
			c0,1.025,0.729,1.413,1.187,1.413h4.511v2.346h-5.604c-0.729,0-2.506-0.866-2.506-2.209v-3.122l-0.093-0.091l0.046-0.045
			l-0.046-0.068l0.046-0.023l-0.046-0.137v-5.832l-0.112-0.068h0.045l-0.045-0.091V340.9c0-1.025,1.617-2.164,2.164-2.164
			l2.004-0.251h1.275l0.092-0.113L257.536,338.371L257.536,338.371z"/>
		<path d="M265.484,338.097h2.348v15.924h-2.073v-7.199h-2.894v7.199h-2.118v-15.65h2.255v6.606l2.46-0.114L265.484,338.097z"/>
		<path d="M275.668,354.021v-13.509h-4.441v-1.663l-0.092-0.022v-0.251h8.84l0.092-0.273h1.162l0.568-0.045l0.068,0.41l0.068,0.774
			v1.093h-3.806v13.373l-0.067,0.114h-0.752l-0.093-0.045l-0.091,0.045L275.668,354.021L275.668,354.021z"/>
		<path d="M287.331,338.188v5.878l0.112,0.137v3.166l0.094,0.091l-0.046,0.137v1.846l-0.048-0.046v0.046l-0.09-0.046h-2.643
			l-0.046-0.091v-7.609l0.091-0.136v-3.372L287.331,338.188L287.331,338.188z M285.234,351.287h2.324v0.707l-0.021-0.023
			l0.068,0.524v1.435l-0.047,0.091h-2.894v-2.779L285.234,351.287z"/>
		<path d="M93.299,381.357h-2.232v-15.65h6.538c1.777,0,2.255,1.389,2.255,2.483v4.237c0,0.911-0.843,1.845-1.549,1.845h-0.979
			l2.87,7.085h-2.643l-2.575-7.085h-1.731L93.299,381.357z M97.581,368.03H93.23v4.032h0.228l0.114,0.137h4.009V368.03z"/>
		<path d="M103.184,365.797h2.165v11.8c0,0.684,0.684,1.162,1.094,1.162h2.528c0.365,0,0.615-0.524,0.684-1.048V365.82h2.301v13.737
			c0,0.774-1.117,1.708-1.846,1.8h-5.057c-0.979,0-1.869-0.82-1.869-2.347v-3.667V365.797z"/>
		<path d="M116.76,381.379h-0.957l-0.045-0.045h-0.888v-15.263l-0.183-0.137l0.205-0.137h1.708l0.091-0.091h1.185l2.938,8.337
			v-8.292l1.641-0.205h0.433l0.022,0.273c0,0.023,0,0.046-0.022,0.069h0.182v8.634l0.045,0.045l-0.045,0.046l0.045,0.022
			l-0.045,0.046l0.045,0.068v6.515h-1.093l-0.273-0.045l-0.137,0.045h-0.935l-3.917-11.024V381.379z"/>
		<path d="M125.895,381.357l-0.046-0.774l0.046-0.046l-0.046-0.137l0.046-0.091v-8.543l-0.046-0.205l0.046-0.068v-3.736
			l-0.046-0.114l0.046-0.022v-1.39h4.351l0.091,0.046h1.253c1.23,0,2.528,2.073,2.528,2.961v9.796c0,0.843-1.367,2.324-2.369,2.324
			L125.895,381.357L125.895,381.357z M128.355,368.781l-0.069,0.045h-0.319v1.481l0.091,0.091h-0.046v0.387l0.046,0.045
			l-0.046,0.022l0.114,0.114v5.695l0.045,0.091v2.096l0.114,0.137h2.278l0.045-0.046h0.524l0.842-0.319h0.114v-4.511h-0.045
			l0.045-0.045l-0.16-0.228v-4.146l-0.137-0.524l-0.797-0.387h-2.639V368.781z"/>
		<path d="M137.147,365.797h2.164v11.8c0,0.684,0.684,1.162,1.094,1.162h2.529c0.365,0,0.615-0.524,0.684-1.048V365.82h2.301v13.737
			c0,0.774-1.116,1.708-1.845,1.8h-5.058c-0.979,0-1.868-0.82-1.868-2.347v-3.667L137.147,365.797L137.147,365.797z"/>
		<path d="M161.043,381.106h-0.752l-0.273-0.045l-0.318,0.045h-0.866v-6.675l-0.045-0.228v-4.442l-2.506,3.076l-0.023,0.091
			l-1.8,2.096l-3.395-5.308v11.709l-0.068-0.046l-0.091,0.046l-0.456-0.137l-0.069,0.091l-1.458-0.091l-0.137-0.046v-2.734
			l0.046-0.045l-0.046-0.068v-10.092l-0.137-0.296v-2.346h0.228l0.342-0.114h1.937l3.372,5.49l2.278-3.303h0.068l1.754-2.506h2.415
			V381.106z"/>
		<path d="M177.511,374.226c0-0.569-0.684-0.706-1.229-0.751h-3.076c-1.754,0-2.255-1.139-2.255-1.64v-3.281
			c0-2.096,2.46-3.075,2.46-3.075h5.764v2.142h-4.875c-0.433,0-0.979,0.387-0.979,1.412v2.392h4.009
			c1.253,0,2.232,0.957,2.232,1.868v6.082c0,0.684-0.478,1.982-2.073,1.982h-6.447v-2.119h5.376c0.228,0,1.139-0.296,1.139-0.842
			L177.511,374.226z"/>
		<path d="M189.129,365.592l2.551,0.319v0.205l0.046,0.068l1.663,14.603l0.045,0.091l-0.296,0.479h-0.319l-0.045,0.045l-0.045-0.045
			l-0.228,0.045h-1.48l-0.866-7.084h-1.413l-0.137-0.092h-2.255l-0.092,0.092l-1.708,6.879l0.091,0.045h-2.165l-0.136,0.114h-0.615
			l4.26-15.605h2.529l0.068-0.182L189.129,365.592z M189.015,368.463l-0.045,0.045h-1.299l-0.068-0.045l-0.889,3.599v0.41h3.212
			l-0.41-2.643l-0.069-1.025l-0.045-0.023l0.045-0.046l-0.091-0.113v-0.16L189.015,368.463L189.015,368.463z"/>
		<path d="M199.835,381.357v-13.509h-4.442v-1.663l-0.091-0.023v-0.25h8.839l0.091-0.273h1.162l0.569-0.045l0.068,0.41l0.068,0.774
			v1.094h-3.805v13.372l-0.068,0.114h-0.752l-0.091-0.045l-0.091,0.045L199.835,381.357L199.835,381.357z"/>
		<path d="M213.365,381.357v-13.509h-4.442v-1.663l-0.091-0.023v-0.25h8.839l0.091-0.273h1.162l0.569-0.045l0.068,0.41l0.068,0.774
			v1.094h-3.805v13.372l-0.068,0.114h-0.752l-0.091-0.045l-0.091,0.045L213.365,381.357L213.365,381.357z"/>
		<path d="M225.029,365.524v5.878l0.114,0.136v3.167l0.091,0.091l-0.045,0.137v1.845l-0.046-0.046v0.046l-0.091-0.046h-2.643
			l-0.046-0.091v-7.609l0.091-0.136v-3.372H225.029L225.029,365.524z M222.932,378.623h2.324v0.707l-0.022-0.023l0.068,0.524v1.435
			l-0.046,0.091h-2.893v-2.779L222.932,378.623z"/>
	</g>
</g>
<g>
	<g>
		<path fill="#FE85AE" d="M155.193,599.278c-19.456-24.232-18.893-40.644-9.598-45.048c21.763-10.313,157.208,4.563,166.475-16.26
			c14.563-28.97-13.238-44.359-51.631-50.696c-30.451-6.336-150.656-9.585-175.809,5.804
			c-25.154,16.295-27.803,49.792,10.591,56.129c17.21,2.716,8.438,0.009,23,3.63C135.432,557.363,132.33,585.381,155.193,599.278z"
			/>
	</g>
	<g>
		<path d="M123.267,495.412l2.438,5.019l2.665-5.019h0.289l1.755,0.207l-1.838,3.532l-1.818,2.913v7.456h-2.127v-7.395l-3.201-6.712
			h1.837V495.412z"/>
		<path d="M133.163,495.412h1.962v10.699c0,0.62,0.62,1.053,0.991,1.053h2.293c0.33,0,0.557-0.475,0.619-0.95v-10.782h2.086v12.455
			c0,0.702-1.012,1.549-1.673,1.632h-4.585c-0.889,0-1.694-0.743-1.694-2.128v-3.324L133.163,495.412L133.163,495.412z"/>
		<path d="M154.832,509.292h-0.682l-0.248-0.041l-0.289,0.041h-0.785v-6.052l-0.042-0.207v-4.028l-2.272,2.789l-0.021,0.083
			l-1.632,1.9l-3.078-4.813v10.616l-0.062-0.041l-0.083,0.041l-0.413-0.124l-0.062,0.083l-1.322-0.083l-0.124-0.042v-2.479
			l0.041-0.042l-0.041-0.062v-9.15l-0.124-0.269v-2.127h0.207l0.31-0.104h1.755l3.057,4.979l2.065-2.995h0.062l1.591-2.272h2.189
			v14.399H154.832z"/>
		<path d="M168.694,509.292h-0.682l-0.249-0.041l-0.289,0.041h-0.785v-6.052l-0.042-0.207v-4.028l-2.272,2.789l-0.021,0.083
			l-1.631,1.9l-3.078-4.813v10.616l-0.063-0.041l-0.083,0.041l-0.413-0.124l-0.062,0.083l-1.322-0.083l-0.124-0.042v-2.479
			l0.042-0.042l-0.042-0.062v-9.15l-0.124-0.269v-2.127h0.207l0.31-0.104h1.756l3.057,4.979l2.065-2.995h0.062l1.591-2.272h2.189
			v14.399H168.694z"/>
		<path d="M173.158,495.412l2.437,5.019l2.665-5.019h0.289l1.755,0.207l-1.838,3.532l-1.817,2.913v7.456h-2.128v-7.395l-3.201-6.712
			h1.838V495.412z"/>
		<path d="M185.202,495.164v5.329l0.103,0.124v2.871l0.083,0.083l-0.041,0.124v1.673l-0.042-0.042v0.042l-0.083-0.042h-2.396
			l-0.041-0.082v-6.899l0.083-0.124v-3.057H185.202L185.202,495.164z M183.302,507.041h2.107v0.64l-0.021-0.021l0.063,0.475v1.301
			l-0.042,0.083h-2.623V507L183.302,507.041z"/>
		<path d="M77.901,520.348l2.21-0.249v7.685l-0.124,0.063v6.362l-1.342,0.103h-0.888L77.901,520.348z"/>
		<path d="M90.668,522.289v10.267H94.2v-3.635l-0.062-0.765l-0.475-0.517h-1.529v-1.715l0.042-0.207h2.726
			c0.372,0,1.219,0.311,1.219,1.156v5.309c0,1.261-1.177,1.921-1.487,2.086c-0.021,0.021-0.042,0.041-0.062,0.041H90.4
			c-0.558,0-1.528-0.558-1.528-1.238v-3.513l-0.042-0.083l0.083-0.041v-7.56c0-0.723,0.826-1.652,2.086-1.652h3.718
			c0.434,0,1.281,0.269,1.281,1.673v1.529H94.22l-0.041-1.157L90.668,522.289z"/>
		<path d="M108.123,530.903l-0.083,0.867c0,1.693-1.239,2.479-1.983,2.479h-2.334l-0.041,0.083l-0.042-0.041l-0.082,0.041h-3.367
			c-0.847,0-1.59-1.404-1.59-2.024v-9.149c0-2.024,1.198-2.747,1.879-2.747h0.393l0.702-0.165l0.041,0.041l1.942-0.311h1.115
			c1.239,0,2.995,0.868,2.995,2.81h0.041v0.537L108.123,530.903z M105.603,522.517l-1.28-0.764l-0.165,0.124h-1.797l-0.083,0.042
			l-0.021-0.042l-0.042,0.042h-0.413v-0.042h-0.041l-0.93,0.764v1.528l0.042,0.021l-0.042,0.042l0.103,0.165v3.552l0.042,0.021
			l-0.042,0.063l0.042,0.083l-0.042,0.041l0.145,0.516v3.388l0.041,0.042v0.206l0.104,0.228l0.434,0.33h0.558l0.103-0.063h1.88
			l-0.166-0.228l0.558-0.082l0.041,0.269h0.641l0.434-0.558l0.227-0.435L105.603,522.517z"/>
		<path d="M114.818,534.311v-12.249h-4.028v-1.507l-0.083-0.021v-0.229h8.014l0.083-0.248h1.054l0.516-0.041l0.062,0.372
			l0.062,0.702v0.992h-3.45v12.125l-0.062,0.104h-0.682l-0.083-0.041l-0.083,0.041L114.818,534.311L114.818,534.311z"/>
		<path d="M131.304,532.348h4.771l-0.104,1.962h-6.753v-14.479h2.065v11.773L131.304,532.348z"/>
		<path d="M148.077,530.903l-0.083,0.867c0,1.693-1.239,2.479-1.983,2.479h-2.334l-0.041,0.083l-0.042-0.041l-0.082,0.041h-3.367
			c-0.847,0-1.59-1.404-1.59-2.024v-9.149c0-2.024,1.198-2.747,1.879-2.747h0.393l0.702-0.165l0.041,0.041l1.942-0.311h1.115
			c1.239,0,2.995,0.868,2.995,2.81h0.041v0.537L148.077,530.903z M145.557,522.517l-1.28-0.764l-0.165,0.124h-1.797l-0.083,0.042
			l-0.021-0.042l-0.042,0.042h-0.413v-0.042h-0.041l-0.93,0.764v1.528l0.042,0.021l-0.042,0.042l0.103,0.165v3.552l0.042,0.021
			l-0.042,0.063l0.042,0.083l-0.042,0.041l0.145,0.516v3.388l0.041,0.042v0.206l0.104,0.228l0.434,0.33h0.558l0.103-0.063h1.88
			l-0.166-0.228l0.558-0.082l0.041,0.269h0.641l0.434-0.558l0.227-0.435L145.557,522.517z"/>
		<path d="M155.103,532.039l3.553-11.443h2.313l-4.069,13.24l-0.165-0.021l-0.145,0.352h-1.343l-0.083,0.104h-0.537l-0.207,0.041
			h-0.888l-0.269,0.041l0.042-0.041l-2.644-13.817l0.31-0.083l0.041,0.042h1.549L155.103,532.039z"/>
		<path d="M169.667,532.556v1.755h-6.238l0.31-9.397l0.103-0.063v-4.875h5.825v1.922h-3.842l-0.186,4.832l0.103,0.041h3.594v1.55
			h-3.738l-0.083,1.238l0.042,0.124l-0.042,0.248v2.686L169.667,532.556z"/>
		<path d="M178.531,520.348l2.21-0.249v7.685l-0.124,0.063v6.362l-1.343,0.103h-0.888L178.531,520.348z"/>
		<path d="M185.1,534.331h-0.868l-0.041-0.041h-0.806v-13.839l-0.165-0.124l0.186-0.125h1.549l0.083-0.082h1.074l2.665,7.559v-7.518
			l1.487-0.187h0.392l0.021,0.248c0,0.021,0,0.041-0.021,0.063h0.166v7.829l0.042,0.041l-0.042,0.042l0.042,0.02l-0.042,0.042
			l0.042,0.063v5.907h-0.991l-0.248-0.042l-0.124,0.042h-0.847l-3.552-9.997v10.1H185.1z"/>
		<path d="M210.819,534.083h-0.682l-0.248-0.041l-0.289,0.041h-0.785v-6.052l-0.042-0.205v-4.029l-2.271,2.789l-0.021,0.083
			l-1.631,1.9l-3.078-4.813v10.617l-0.062-0.042l-0.083,0.042l-0.413-0.125l-0.062,0.083l-1.322-0.083l-0.125-0.04v-2.479
			l0.042-0.042l-0.042-0.063v-9.15l-0.124-0.268v-2.128h0.207l0.31-0.104h1.756l3.057,4.979l2.065-2.995h0.062l1.591-2.271h2.189
			L210.819,534.083L210.819,534.083z"/>
		<path d="M215.282,520.203l2.438,5.02l2.664-5.02h0.289l1.756,0.207l-1.838,3.532l-1.817,2.912v7.456h-2.127v-7.395l-3.201-6.713
			H215.282z"/>
		<path d="M235.259,534.311v-12.249h-4.028v-1.507l-0.082-0.021v-0.229h8.014l0.083-0.248h1.053l0.517-0.041l0.063,0.372
			l0.062,0.702v0.992h-3.449v12.125l-0.063,0.104h-0.682l-0.083-0.041l-0.083,0.041L235.259,534.311L235.259,534.311z"/>
		<path d="M243.689,520.203h1.961v10.7c0,0.619,0.621,1.052,0.992,1.052h2.293c0.33,0,0.558-0.474,0.619-0.949v-10.782h2.086v12.455
			c0,0.703-1.012,1.55-1.673,1.632h-4.585c-0.889,0-1.693-0.742-1.693-2.127v-3.326V520.203L243.689,520.203z"/>
		<path d="M265.359,534.083h-0.683l-0.247-0.041l-0.289,0.041h-0.785v-6.052l-0.041-0.205v-4.029l-2.272,2.789l-0.021,0.083
			l-1.633,1.9l-3.076-4.813v10.617l-0.063-0.042l-0.083,0.042l-0.413-0.125l-0.062,0.083l-1.322-0.083l-0.124-0.04v-2.479
			l0.042-0.042l-0.042-0.063v-9.15l-0.123-0.268v-2.128h0.206l0.311-0.104h1.756l3.057,4.979l2.066-2.995h0.062l1.591-2.271h2.189
			V534.083L265.359,534.083z"/>
		<path d="M279.221,534.083h-0.681l-0.249-0.041l-0.289,0.041h-0.785v-6.052l-0.041-0.205v-4.029l-2.271,2.789l-0.021,0.083
			l-1.632,1.9l-3.078-4.813v10.617l-0.063-0.042l-0.082,0.042l-0.413-0.125l-0.063,0.083l-1.32-0.083l-0.125-0.04v-2.479
			l0.041-0.042l-0.041-0.063v-9.15l-0.123-0.268v-2.128h0.205l0.312-0.104h1.755l3.059,4.979l2.064-2.995h0.063l1.591-2.271h2.188
			V534.083L279.221,534.083z"/>
		<path d="M283.686,520.203l2.438,5.02l2.664-5.02h0.289l1.756,0.207l-1.838,3.532l-1.818,2.912v7.456h-2.127v-7.395l-3.2-6.713
			H283.686z"/>
		<path d="M296.371,532.101l0.145,1.632l-0.145,0.641h-2.706v-1.674l-0.166-0.165v-0.434H296.371L296.371,532.101z"/>
	</g>
</g>
<g>
	<g>
		<path fill="#FDEBA0" d="M155.49,750.573c-17.121-30.906-16.626-51.834-8.445-57.453c19.15-13.154,138.344,5.82,146.5-20.736
			c12.815-36.947-11.65-56.574-45.438-64.658c-26.796-8.08-132.578-12.226-154.711,7.403c-22.136,20.782-24.466,63.503,9.321,71.586
			c15.144,3.463,7.425,0.01,20.238,4.628C138.101,697.116,135.372,732.85,155.49,750.573z"/>
	</g>
	<g>
		<path d="M123.981,641.403h-2.695v-17.485h6.479c0.742,0,2.72,0.717,2.72,2.398l0.049,0.174l-0.173,4.821
			c-0.148,1.582-1.607,2.054-2.127,2.054h-2.077l-0.94-0.101v-0.048h-1.212L123.981,641.403z M123.981,631.212h3.116
			c0,0,0.841-0.173,0.841-0.964v-2.969c0-0.841-0.94-0.939-0.94-0.988h-3.017V631.212z"/>
		<path d="M133.827,624.437h2.35v12.812c0,0.742,0.741,1.261,1.187,1.261h2.745c0.396,0,0.667-0.567,0.742-1.138v-12.909h2.498
			v14.913c0,0.84-1.212,1.854-2.003,1.953h-5.49c-1.063,0-2.028-0.892-2.028-2.547V634.8L133.827,624.437L133.827,624.437z"/>
		<path d="M159.773,641.055h-0.816l-0.297-0.048l-0.346,0.048h-0.94v-7.245l-0.049-0.246v-4.823l-2.72,3.339l-0.025,0.099
			l-1.954,2.275l-3.685-5.762v12.712l-0.074-0.051l-0.099,0.051l-0.495-0.149l-0.074,0.1l-1.583-0.1l-0.148-0.049v-2.968l0.05-0.051
			l-0.05-0.073v-10.956l-0.148-0.321v-2.547h0.247l0.371-0.124h2.103l3.66,5.96l2.473-3.586h0.075l1.904-2.72h2.622v17.235H159.773z
			"/>
		<path d="M165.984,641.403h-2.695v-17.485h6.479c0.742,0,2.72,0.717,2.72,2.398l0.049,0.174l-0.173,4.821
			c-0.148,1.582-1.607,2.054-2.127,2.054h-2.077l-0.94-0.101v-0.048h-1.212L165.984,641.403z M165.984,631.212h3.116
			c0,0,0.841-0.173,0.841-0.964v-2.969c0-0.841-0.94-0.939-0.94-0.988h-3.017V631.212z"/>
		<path d="M182.953,639.225v2.104h-7.47l0.371-11.252l0.124-0.075v-5.836h6.975v2.3h-4.601l-0.223,5.787l0.124,0.05h4.303v1.854
			h-4.476l-0.099,1.483l0.049,0.148l-0.049,0.296v3.216L182.953,639.225z"/>
		<path d="M188.693,641.327h-2.423v-16.99h7.097c1.929,0,2.448,1.509,2.448,2.696v4.601c0,0.988-0.915,2.002-1.682,2.002h-1.063
			l3.116,7.691h-2.869l-2.794-7.691h-1.879L188.693,641.327z M193.343,626.861h-4.723v4.377h0.247l0.123,0.147h4.353V626.861
			L193.343,626.861z"/>
		<path d="M201.606,638.978h5.713l-0.124,2.351h-8.087v-17.336h2.474v14.097L201.606,638.978z"/>
		<path d="M212.49,626.934v12.291h4.229v-4.352l-0.074-0.916l-0.568-0.618h-1.83v-2.052l0.05-0.248h3.264
			c0.445,0,1.459,0.371,1.459,1.385v6.356c0,1.509-1.409,2.3-1.78,2.498c-0.024,0.023-0.049,0.049-0.074,0.049h-4.995
			c-0.668,0-1.831-0.667-1.831-1.484v-4.203l-0.05-0.1l0.1-0.049v-9.053c0-0.864,0.989-1.979,2.498-1.979h4.452
			c0.519,0,1.532,0.321,1.532,2.003v1.83h-2.126l-0.05-1.385L212.49,626.934z"/>
		<path d="M229.26,633.586c0-0.617-0.742-0.766-1.336-0.815h-3.338c-1.904,0-2.449-1.235-2.449-1.779v-3.563
			c0-2.273,2.672-3.338,2.672-3.338h6.257v2.324h-5.293c-0.471,0-1.063,0.421-1.063,1.534v2.597h4.354
			c1.358,0,2.422,1.038,2.422,2.027v6.604c0,0.741-0.52,2.15-2.25,2.15h-6.999v-2.3h5.836c0.248,0,1.236-0.321,1.236-0.915
			L229.26,633.586z"/>
		<path d="M235.148,624.437h2.351v12.812c0,0.742,0.742,1.261,1.187,1.261h2.746c0.396,0,0.668-0.567,0.742-1.138v-12.909h2.498
			v14.913c0,0.84-1.212,1.854-2.003,1.953h-5.491c-1.063,0-2.027-0.892-2.027-2.547V634.8v-10.363H235.148z"/>
		<path d="M249.893,641.353h-1.039l-0.049-0.05h-0.966v-16.569l-0.198-0.148l0.225-0.146h1.854l0.1-0.101h1.285l3.191,9.052v-9.002
			l1.78-0.223h0.47l0.023,0.297c0,0.023,0,0.049-0.023,0.074h0.197v9.373l0.05,0.049l-0.05,0.05l0.05,0.025l-0.05,0.049l0.05,0.074
			v7.073h-1.187l-0.297-0.051l-0.148,0.051h-1.014l-4.256-11.971v12.094H249.893z"/>
		<path d="M259.813,641.327l-0.049-0.841l0.049-0.05l-0.049-0.147l0.049-0.1v-9.273l-0.049-0.224l0.049-0.073v-4.057l-0.049-0.124
			l0.049-0.024v-1.508h4.725l0.1,0.049h1.359c1.336,0,2.745,2.251,2.745,3.215v10.636c0,0.914-1.483,2.521-2.572,2.521H259.813
			L259.813,641.327z M262.484,627.676l-0.074,0.05h-0.346v1.607l0.098,0.1h-0.049v0.419l0.049,0.052l-0.049,0.023l0.123,0.124v6.184
			l0.05,0.099v2.274l0.124,0.147h2.473l0.051-0.049h0.568l0.915-0.347h0.123v-4.896h-0.05l0.05-0.05l-0.173-0.247v-4.501
			l-0.148-0.568l-0.865-0.421H262.484z"/>
		<path d="M98.825,654.121h2.35v12.811c0,0.742,0.742,1.262,1.187,1.262h2.746c0.396,0,0.667-0.568,0.742-1.139v-12.909h2.498
			v14.913c0,0.841-1.212,1.854-2.003,1.953h-5.491c-1.063,0-2.028-0.891-2.028-2.547v-3.98L98.825,654.121L98.825,654.121z"/>
		<path d="M113.567,671.037h-1.039l-0.049-0.05h-0.964v-16.57l-0.198-0.146l0.223-0.148h1.854l0.099-0.1h1.286l3.191,9.052v-9.002
			l1.78-0.224h0.47l0.024,0.297c0,0.024,0,0.05-0.024,0.074h0.197v9.373l0.05,0.05l-0.05,0.05l0.05,0.024l-0.05,0.049l0.05,0.074
			v7.073h-1.187l-0.297-0.05l-0.148,0.05h-1.014l-4.254-11.97V671.037L113.567,671.037z"/>
		<path d="M123.488,671.012l-0.05-0.84l0.05-0.051l-0.05-0.147l0.05-0.1v-9.273l-0.05-0.224l0.05-0.073v-4.057l-0.05-0.124
			l0.05-0.023v-1.509h4.723l0.099,0.049h1.36c1.336,0,2.745,2.251,2.745,3.217v10.635c0,0.914-1.483,2.521-2.572,2.521H123.488z
			 M126.158,657.361l-0.075,0.05h-0.346v1.606l0.099,0.101h-0.049v0.419l0.049,0.051l-0.049,0.024l0.124,0.124v6.183l0.049,0.099
			v2.274l0.124,0.148h2.473l0.049-0.05h0.569l0.915-0.347h0.124v-4.896h-0.05l0.05-0.051l-0.173-0.247v-4.501l-0.148-0.567
			l-0.865-0.421H126.158z"/>
		<path d="M145.923,671.087h-2.696v-17.485h6.479c0.742,0,2.721,0.718,2.721,2.398l0.049,0.174l-0.173,4.821
			c-0.148,1.583-1.607,2.054-2.127,2.054h-2.078l-0.939-0.1v-0.048h-1.212L145.923,671.087z M145.923,660.897h3.116
			c0,0,0.841-0.174,0.841-0.965v-2.969c0-0.841-0.94-0.938-0.94-0.988h-3.017V660.897z"/>
		<path d="M162.495,653.899l2.77,0.347v0.222l0.049,0.074l1.805,15.853l0.049,0.1l-0.321,0.52h-0.346l-0.049,0.05l-0.05-0.05
			l-0.248,0.05h-1.607l-0.939-7.689h-1.534l-0.148-0.1h-2.448l-0.099,0.1l-1.855,7.468l0.099,0.05h-2.35l-0.148,0.123h-0.667
			l4.625-16.939h2.745l0.074-0.197L162.495,653.899z M162.372,657.015l-0.05,0.05h-1.41l-0.074-0.05l-0.964,3.907v0.444h3.487
			l-0.445-2.868l-0.075-1.112l-0.049-0.024l0.049-0.051l-0.098-0.122v-0.174H162.372z"/>
		<path d="M172.267,671.087h-2.695v-17.485h6.479c0.742,0,2.721,0.718,2.721,2.398l0.049,0.174l-0.173,4.821
			c-0.148,1.583-1.607,2.054-2.126,2.054h-2.078l-0.94-0.1v-0.048h-1.211L172.267,671.087z M172.267,660.897h3.116
			c0,0,0.841-0.174,0.841-0.965v-2.969c0-0.841-0.939-0.938-0.939-0.988h-3.018V660.897z"/>
		<path d="M184.858,671.087h-2.695v-17.485h6.479c0.742,0,2.721,0.718,2.721,2.398l0.05,0.174l-0.173,4.821
			c-0.148,1.583-1.608,2.054-2.127,2.054h-2.078l-0.939-0.1v-0.048h-1.212L184.858,671.087z M184.858,660.897h3.117
			c0,0,0.84-0.174,0.84-0.965v-2.969c0-0.841-0.939-0.938-0.939-0.988h-3.018V660.897z"/>
		<path d="M201.654,663.272c0-0.618-0.742-0.768-1.335-0.817h-3.339c-1.904,0-2.448-1.235-2.448-1.779v-3.562
			c0-2.275,2.671-3.339,2.671-3.339h6.257v2.324h-5.292c-0.471,0-1.063,0.42-1.063,1.533v2.597h4.353
			c1.36,0,2.423,1.038,2.423,2.028v6.604c0,0.74-0.52,2.149-2.251,2.149h-6.999v-2.3h5.837c0.247,0,1.237-0.321,1.237-0.915
			L201.654,663.272z"/>
		<path d="M214.269,653.899l2.771,0.347v0.222l0.049,0.074l1.806,15.853l0.05,0.1l-0.321,0.52h-0.347l-0.05,0.05l-0.05-0.05
			l-0.247,0.05h-1.607l-0.939-7.689h-1.533l-0.148-0.1h-2.449l-0.099,0.1l-1.854,7.468l0.099,0.05h-2.35l-0.148,0.123h-0.668
			l4.625-16.939h2.746l0.073-0.197L214.269,653.899z M214.146,657.015l-0.05,0.05h-1.409l-0.074-0.05l-0.965,3.907v0.444h3.487
			l-0.445-2.868l-0.074-1.112l-0.05-0.024l0.05-0.051l-0.099-0.122v-0.174H214.146z"/>
		<path d="M225.896,671.012v-14.665h-4.822v-1.806l-0.099-0.024v-0.271h9.595l0.1-0.298h1.26l0.619-0.049l0.074,0.444l0.074,0.841
			v1.188h-4.131v14.518l-0.073,0.123h-0.816l-0.099-0.049l-0.1,0.049L225.896,671.012L225.896,671.012z"/>
		<path d="M240.591,671.012v-14.665h-4.823v-1.806l-0.099-0.024v-0.271h9.597l0.1-0.298h1.261l0.618-0.049l0.074,0.444l0.074,0.841
			v1.188h-4.131v14.518l-0.074,0.123h-0.815l-0.099-0.049l-0.1,0.049L240.591,671.012L240.591,671.012z"/>
		<path d="M254.023,668.366l0.172,1.954l-0.172,0.767h-3.24v-2.004l-0.198-0.198v-0.519H254.023z"/>
	</g>
</g>
<rect x="581.836" y="514.07" fill="none" width="282.941" height="93.563"/>
<text transform="matrix(1 0 0 1 581.834 529.3408)" font-family="'CA12c13c'" font-size="23"> besser du isst das soya </text>
<text transform="matrix(1 0 0 1 581.834 556.9424)" font-family="'CA12c13c'" font-size="23">gleich selbst, als über den</text>
<text transform="matrix(1 0 0 1 581.834 584.541)" font-family="'CA12c13c'" font-size="23">  umweg durch die kuh.</text>
<g>
	<path fill="#FDC872" d="M692.845,941.146c-15.973,0.08-37.133-1.524-53.969-1.733c-28.051-1.076-46.764-0.576-63.473-11.006
		c-13.017-6.732-18.525-14.834-20.293-22.889c-3.572-13.917-5.211-32.925,4.315-46.681c5.742-10.881,13.281-15.17,41.377-17.742
		c29.963-2.553,65.244-13.436,95.193-14.526c46.805-3.072,127.209-0.474,147.367,24.6c28.444,35.377-71.34,72.396-80.82,82.5
		c0,0-44.422,44.589-69.699,49.479c0,0,18.203-16.691,17.472-26.819C709.875,950.232,704.308,941.088,692.845,941.146z"/>
</g>
<rect x="565.545" y="853.896" fill="none" width="302.215" height="93.563"/>
<text transform="matrix(1 0 0 1 565.5449 869.166)" font-family="'CA12c13c'" font-size="23">  Kartoffeln machen satt    </text>
<text transform="matrix(1 0 0 1 565.5449 896.7666)" font-family="'CA12c13c'" font-size="23">   und das ohne Schaden</text>
<text transform="matrix(1 0 0 1 565.5449 924.3662)" font-family="'CA12c13c'" font-size="23">       anzurichten.</text>
<rect x="588.965" y="168.5" fill="none" width="263.31" height="78.206"/>
<text transform="matrix(1 0 0 1 588.9648 179.7881)" font-family="'CA12c13c'" font-size="17">wenn sich alle menschenpflanzlich</text>
<text transform="matrix(1 0 0 1 588.9648 200.1885)" font-family="'CA12c13c'" font-size="17"> ernähren, sparen wir fast 40</text>
<text transform="matrix(1 0 0 1 818.4297 200.1885)" font-family="'MyriadPro-Regular'" font-size="17">% </text>
<text transform="matrix(1 0 0 1 588.9648 220.5879)" font-family="'MyriadPro-Regular'" font-size="17">  </text>
<text transform="matrix(1 0 0 1 596.1738 220.5879)" font-family="'CA12c13c'" font-size="17">CO</text>
<text transform="matrix(1 0 0 1 614.3789 226.248)" font-family="'CA12c13c'" font-size="9.911">2</text>
<text transform="matrix(1 0 0 1 619.5732 220.5879)" font-family="'CA12c13c'" font-size="17">-emissionen!</text>
<text transform="matrix(1 0 0 1 709.0762 220.5879)" font-family="'MyriadPro-Regular'" font-size="17"> </text>
</svg>
