<?xml version="1.0" encoding="utf-8"?>
<!-- Generator: Adobe Illustrator 18.1.1, SVG Export Plug-In . SVG Version: 6.00 Build 0)  -->
<svg version="1.0" id="Layer_1" xmlns="http://www.w3.org/2000/svg" xmlns:xlink="http://www.w3.org/1999/xlink" x="0px" y="0px"
	 width="600px" height="600px" viewBox="0 0 600 600" enable-background="new 0 0 600 600" xml:space="preserve">
<g>
	<g>
		<line fill="none" stroke="#FFE75E" stroke-width="4" stroke-miterlimit="10" x1="301.8" y1="16.9" x2="301.8" y2="5"/>
		<line fill="none" stroke="#FFE75E" stroke-width="4" stroke-miterlimit="10" x1="277" y1="18" x2="276" y2="6.1"/>
		<line fill="none" stroke="#FFE75E" stroke-width="4" stroke-miterlimit="10" x1="252.4" y1="21.2" x2="250.4" y2="9.4"/>
		<line fill="none" stroke="#FFE75E" stroke-width="4" stroke-miterlimit="10" x1="228.2" y1="26.5" x2="225.1" y2="15"/>
		<line fill="none" stroke="#FFE75E" stroke-width="4" stroke-miterlimit="10" x1="204.5" y1="33.9" x2="200.4" y2="22.7"/>
		<line fill="none" stroke="#FFE75E" stroke-width="4" stroke-miterlimit="10" x1="181.6" y1="43.4" x2="176.5" y2="32.6"/>
		<line fill="none" stroke="#FFE75E" stroke-width="4" stroke-miterlimit="10" x1="159.5" y1="54.8" x2="153.6" y2="44.5"/>
		<line fill="none" stroke="#FFE75E" stroke-width="4" stroke-miterlimit="10" x1="138.6" y1="68.1" x2="131.8" y2="58.3"/>
		<line fill="none" stroke="#FFE75E" stroke-width="4" stroke-miterlimit="10" x1="118.9" y1="83.2" x2="111.2" y2="74"/>
		<line fill="none" stroke="#FFE75E" stroke-width="4" stroke-miterlimit="10" x1="100.6" y1="99.9" x2="92.1" y2="91.5"/>
		<line fill="none" stroke="#FFE75E" stroke-width="4" stroke-miterlimit="10" x1="83.8" y1="118.2" x2="74.6" y2="110.5"/>
		<line fill="none" stroke="#FFE75E" stroke-width="4" stroke-miterlimit="10" x1="68.6" y1="137.8" x2="58.9" y2="131"/>
		<line fill="none" stroke="#FFE75E" stroke-width="4" stroke-miterlimit="10" x1="55.3" y1="158.8" x2="44.9" y2="152.8"/>
		<line fill="none" stroke="#FFE75E" stroke-width="4" stroke-miterlimit="10" x1="43.8" y1="180.7" x2="33" y2="175.7"/>
		<line fill="none" stroke="#FFE75E" stroke-width="4" stroke-miterlimit="10" x1="34.2" y1="203.7" x2="23" y2="199.6"/>
		<line fill="none" stroke="#FFE75E" stroke-width="4" stroke-miterlimit="10" x1="26.7" y1="227.3" x2="15.2" y2="224.2"/>
		<line fill="none" stroke="#FFE75E" stroke-width="4" stroke-miterlimit="10" x1="21.3" y1="251.5" x2="9.6" y2="249.5"/>
		<line fill="none" stroke="#FFE75E" stroke-width="4" stroke-miterlimit="10" x1="18.1" y1="276.1" x2="6.2" y2="275.1"/>
		<line fill="none" stroke="#FFE75E" stroke-width="4" stroke-miterlimit="10" x1="16.9" y1="300.9" x2="5" y2="300.9"/>
		<line fill="none" stroke="#FFE75E" stroke-width="4" stroke-miterlimit="10" x1="18" y1="325.7" x2="6.1" y2="326.7"/>
		<line fill="none" stroke="#FFE75E" stroke-width="4" stroke-miterlimit="10" x1="21.2" y1="350.3" x2="9.4" y2="352.4"/>
		<line fill="none" stroke="#FFE75E" stroke-width="4" stroke-miterlimit="10" x1="26.5" y1="374.5" x2="15" y2="377.6"/>
		<line fill="none" stroke="#FFE75E" stroke-width="4" stroke-miterlimit="10" x1="33.9" y1="398.2" x2="22.7" y2="402.3"/>
		<line fill="none" stroke="#FFE75E" stroke-width="4" stroke-miterlimit="10" x1="43.4" y1="421.2" x2="32.6" y2="426.2"/>
		<line fill="none" stroke="#FFE75E" stroke-width="4" stroke-miterlimit="10" x1="54.8" y1="443.2" x2="44.5" y2="449.2"/>
		<line fill="none" stroke="#FFE75E" stroke-width="4" stroke-miterlimit="10" x1="68.1" y1="464.1" x2="58.3" y2="471"/>
		<line fill="none" stroke="#FFE75E" stroke-width="4" stroke-miterlimit="10" x1="83.2" y1="483.8" x2="74" y2="491.5"/>
		<line fill="none" stroke="#FFE75E" stroke-width="4" stroke-miterlimit="10" x1="99.9" y1="502.2" x2="91.5" y2="510.6"/>
		<line fill="none" stroke="#FFE75E" stroke-width="4" stroke-miterlimit="10" x1="118.2" y1="519" x2="110.5" y2="528.1"/>
		<line fill="none" stroke="#FFE75E" stroke-width="4" stroke-miterlimit="10" x1="137.8" y1="534.1" x2="131" y2="543.9"/>
		<line fill="none" stroke="#FFE75E" stroke-width="4" stroke-miterlimit="10" x1="158.8" y1="547.5" x2="152.8" y2="557.8"/>
		<line fill="none" stroke="#FFE75E" stroke-width="4" stroke-miterlimit="10" x1="180.7" y1="559" x2="175.7" y2="569.8"/>
		<line fill="none" stroke="#FFE75E" stroke-width="4" stroke-miterlimit="10" x1="203.7" y1="568.5" x2="199.6" y2="579.7"/>
		<line fill="none" stroke="#FFE75E" stroke-width="4" stroke-miterlimit="10" x1="227.3" y1="576" x2="224.2" y2="587.5"/>
		<line fill="none" stroke="#FFE75E" stroke-width="4" stroke-miterlimit="10" x1="251.5" y1="581.4" x2="249.5" y2="593.2"/>
		<line fill="none" stroke="#FFE75E" stroke-width="4" stroke-miterlimit="10" x1="276.1" y1="584.7" x2="275.1" y2="596.6"/>
		<line fill="none" stroke="#FFE75E" stroke-width="4" stroke-miterlimit="10" x1="300.9" y1="585.8" x2="300.9" y2="597.7"/>
		<line fill="none" stroke="#FFE75E" stroke-width="4" stroke-miterlimit="10" x1="325.7" y1="584.8" x2="326.7" y2="596.6"/>
		<line fill="none" stroke="#FFE75E" stroke-width="4" stroke-miterlimit="10" x1="350.3" y1="581.6" x2="352.4" y2="593.3"/>
		<line fill="none" stroke="#FFE75E" stroke-width="4" stroke-miterlimit="10" x1="374.5" y1="576.2" x2="377.6" y2="587.8"/>
		<line fill="none" stroke="#FFE75E" stroke-width="4" stroke-miterlimit="10" x1="398.2" y1="568.8" x2="402.3" y2="580"/>
		<line fill="none" stroke="#FFE75E" stroke-width="4" stroke-miterlimit="10" x1="421.2" y1="559.3" x2="426.2" y2="570.2"/>
		<line fill="none" stroke="#FFE75E" stroke-width="4" stroke-miterlimit="10" x1="443.2" y1="547.9" x2="449.2" y2="558.3"/>
		<line fill="none" stroke="#FFE75E" stroke-width="4" stroke-miterlimit="10" x1="464.1" y1="534.6" x2="471" y2="544.4"/>
		<line fill="none" stroke="#FFE75E" stroke-width="4" stroke-miterlimit="10" x1="483.8" y1="519.5" x2="491.5" y2="528.7"/>
		<line fill="none" stroke="#FFE75E" stroke-width="4" stroke-miterlimit="10" x1="502.2" y1="502.8" x2="510.6" y2="511.2"/>
		<line fill="none" stroke="#FFE75E" stroke-width="4" stroke-miterlimit="10" x1="519" y1="484.5" x2="528.1" y2="492.2"/>
		<line fill="none" stroke="#FFE75E" stroke-width="4" stroke-miterlimit="10" x1="534.1" y1="464.9" x2="543.9" y2="471.7"/>
		<line fill="none" stroke="#FFE75E" stroke-width="4" stroke-miterlimit="10" x1="547.5" y1="444" x2="557.8" y2="449.9"/>
		<line fill="none" stroke="#FFE75E" stroke-width="4" stroke-miterlimit="10" x1="559" y1="422" x2="569.8" y2="427"/>
		<line fill="none" stroke="#FFE75E" stroke-width="4" stroke-miterlimit="10" x1="568.5" y1="399.1" x2="579.7" y2="403.2"/>
		<line fill="none" stroke="#FFE75E" stroke-width="4" stroke-miterlimit="10" x1="576" y1="375.4" x2="587.5" y2="378.5"/>
		<line fill="none" stroke="#FFE75E" stroke-width="4" stroke-miterlimit="10" x1="581.4" y1="351.2" x2="593.2" y2="353.3"/>
		<line fill="none" stroke="#FFE75E" stroke-width="4" stroke-miterlimit="10" x1="584.7" y1="326.6" x2="596.6" y2="327.7"/>
		<line fill="none" stroke="#FFE75E" stroke-width="4" stroke-miterlimit="10" x1="585.8" y1="301.8" x2="597.7" y2="301.8"/>
		<line fill="none" stroke="#FFE75E" stroke-width="4" stroke-miterlimit="10" x1="584.8" y1="277" x2="596.6" y2="276"/>
		<line fill="none" stroke="#FFE75E" stroke-width="4" stroke-miterlimit="10" x1="581.6" y1="252.4" x2="593.3" y2="250.4"/>
		<line fill="none" stroke="#FFE75E" stroke-width="4" stroke-miterlimit="10" x1="576.2" y1="228.2" x2="587.8" y2="225.1"/>
		<line fill="none" stroke="#FFE75E" stroke-width="4" stroke-miterlimit="10" x1="568.8" y1="204.5" x2="580" y2="200.4"/>
		<line fill="none" stroke="#FFE75E" stroke-width="4" stroke-miterlimit="10" x1="559.3" y1="181.6" x2="570.2" y2="176.5"/>
		<line fill="none" stroke="#FFE75E" stroke-width="4" stroke-miterlimit="10" x1="547.9" y1="159.5" x2="558.3" y2="153.6"/>
		<line fill="none" stroke="#FFE75E" stroke-width="4" stroke-miterlimit="10" x1="534.6" y1="138.6" x2="544.4" y2="131.8"/>
		<line fill="none" stroke="#FFE75E" stroke-width="4" stroke-miterlimit="10" x1="519.5" y1="118.9" x2="528.7" y2="111.2"/>
		<line fill="none" stroke="#FFE75E" stroke-width="4" stroke-miterlimit="10" x1="502.8" y1="100.6" x2="511.3" y2="92.1"/>
		<line fill="none" stroke="#FFE75E" stroke-width="4" stroke-miterlimit="10" x1="484.5" y1="83.8" x2="492.2" y2="74.6"/>
		<line fill="none" stroke="#FFE75E" stroke-width="4" stroke-miterlimit="10" x1="464.9" y1="68.6" x2="471.7" y2="58.9"/>
		<line fill="none" stroke="#FFE75E" stroke-width="4" stroke-miterlimit="10" x1="444" y1="55.3" x2="449.9" y2="44.9"/>
		<line fill="none" stroke="#FFE75E" stroke-width="4" stroke-miterlimit="10" x1="422" y1="43.8" x2="427" y2="33"/>
		<line fill="none" stroke="#FFE75E" stroke-width="4" stroke-miterlimit="10" x1="399.1" y1="34.2" x2="403.2" y2="23"/>
		<line fill="none" stroke="#FFE75E" stroke-width="4" stroke-miterlimit="10" x1="375.4" y1="26.7" x2="378.5" y2="15.2"/>
		<line fill="none" stroke="#FFE75E" stroke-width="4" stroke-miterlimit="10" x1="351.2" y1="21.3" x2="353.3" y2="9.6"/>
		<line fill="none" stroke="#FFE75E" stroke-width="4" stroke-miterlimit="10" x1="326.6" y1="18.1" x2="327.7" y2="6.2"/>
	</g>
</g>
</svg>
