<?xml version="1.0" encoding="utf-8"?>
<!-- Generator: Adobe Illustrator 16.0.0, SVG Export Plug-In . SVG Version: 6.00 Build 0)  -->
<!DOCTYPE svg PUBLIC "-//W3C//DTD SVG 1.1//EN" "http://www.w3.org/Graphics/SVG/1.1/DTD/svg11.dtd">
<svg version="1.1" id="Ebene_1" xmlns="http://www.w3.org/2000/svg" xmlns:xlink="http://www.w3.org/1999/xlink" x="0px" y="0px"
	 width="450px" height="450px" viewBox="0 0 450 450" enable-background="new 0 0 450 450" xml:space="preserve">
<g>
	<g opacity="0.3">
		<g>
			<defs>
				<path id="SVGID_1_" d="M150.969,148.763l67.041-10.31c7.537,0.053,11.908,8.371,13.68,11.578
					c5.754,10.417,13.938,31.479,26.24,55.012c7.033,13.445,7.033,13.445,13.828,27.624c7.051,14.707,10.174,31.506,15.85,46.841
					c2.01,5.435,11.863,20.628,5.076,29.338l-66.08,16.548c-18.17-31.064-26.471-47.326-38.756-72.571
					c-8.408-17.281-13.396-31.646-22.891-48.343c-5.117-8.995-12.049-23.025-13.016-31.343
					C150.59,165.938,147.326,149.325,150.969,148.763z"/>
			</defs>
			<clipPath id="SVGID_2_">
				<use xlink:href="#SVGID_1_"  overflow="visible"/>
			</clipPath>
		</g>
		<g>
			<defs>
				<path id="SVGID_3_" d="M151.942,173.137c-1.352-7.199-4.615-23.813-0.973-24.374c7.482-1.149,11.91,8.373,13.682,11.578
					c5.752,10.418,13.936,31.479,26.24,55.013c7.033,13.444,7.033,13.444,13.828,27.625c7.051,14.705,10.176,31.505,15.85,46.84
					c2.008,5.434,12.822,26.863,6.035,35.575c-18.17-31.064-26.471-47.326-38.756-72.571c-8.408-17.281-13.396-31.646-22.891-48.343
					C159.84,195.485,152.908,181.455,151.942,173.137z"/>
			</defs>
			<clipPath id="SVGID_4_">
				<use xlink:href="#SVGID_3_"  overflow="visible"/>
			</clipPath>
			<g clip-path="url(#SVGID_4_)">
				<defs>
					<path id="SVGID_5_" d="M150.969,148.763l67.041-10.31c7.537,0.053,11.908,8.371,13.68,11.578
						c5.754,10.417,13.938,31.479,26.24,55.012c7.033,13.445,7.033,13.445,13.828,27.624c7.051,14.707,10.174,31.506,15.85,46.841
						c2.01,5.435,11.863,20.628,5.076,29.338l-66.08,16.548c-18.17-31.064-26.471-47.326-38.756-72.571
						c-8.408-17.281-13.396-31.646-22.891-48.343c-5.117-8.995-12.049-23.025-13.016-31.343
						C150.59,165.938,147.326,149.325,150.969,148.763z"/>
				</defs>
				<clipPath id="SVGID_6_">
					<use xlink:href="#SVGID_5_"  overflow="visible"/>
				</clipPath>
			</g>
		</g>
		<g>
			<defs>
				<path id="SVGID_7_" d="M150.969,148.763l67.041-10.31c7.537,0.053,11.908,8.371,13.68,11.578
					c5.754,10.417,13.938,31.479,26.24,55.012c7.033,13.445,7.033,13.445,13.828,27.624c7.051,14.707,10.174,31.506,15.85,46.841
					c2.01,5.435,11.863,20.628,5.076,29.338l-66.08,16.548c-18.17-31.064-26.471-47.326-38.756-72.571
					c-8.408-17.281-13.396-31.646-22.891-48.343c-5.117-8.995-12.049-23.025-13.016-31.343
					C150.59,165.938,147.326,149.325,150.969,148.763z"/>
			</defs>
			<clipPath id="SVGID_8_">
				<use xlink:href="#SVGID_7_"  overflow="visible"/>
			</clipPath>
		</g>
		<g>
			<defs>
				<path id="SVGID_9_" d="M151.942,173.137c-1.352-7.199-4.615-23.813-0.973-24.374c7.482-1.149,11.91,8.373,13.682,11.578
					c5.752,10.418,13.936,31.479,26.24,55.013c7.033,13.444,7.033,13.444,13.828,27.625c7.051,14.705,10.176,31.505,15.85,46.84
					c2.008,5.434,12.822,26.863,6.035,35.575c-18.17-31.064-26.471-47.326-38.756-72.571c-8.408-17.281-13.396-31.646-22.891-48.343
					C159.84,195.485,152.908,181.455,151.942,173.137z"/>
			</defs>
			<clipPath id="SVGID_10_">
				<use xlink:href="#SVGID_9_"  overflow="visible"/>
			</clipPath>
			<g clip-path="url(#SVGID_10_)">
				<defs>
					<path id="SVGID_11_" d="M150.969,148.763l67.041-10.31c7.537,0.053,11.908,8.371,13.68,11.578
						c5.754,10.417,13.938,31.479,26.24,55.012c7.033,13.445,7.033,13.445,13.828,27.624c7.051,14.707,10.174,31.506,15.85,46.841
						c2.01,5.435,11.863,20.628,5.076,29.338l-66.08,16.548c-18.17-31.064-26.471-47.326-38.756-72.571
						c-8.408-17.281-13.396-31.646-22.891-48.343c-5.117-8.995-12.049-23.025-13.016-31.343
						C150.59,165.938,147.326,149.325,150.969,148.763z"/>
				</defs>
				<clipPath id="SVGID_12_">
					<use xlink:href="#SVGID_11_"  overflow="visible"/>
				</clipPath>
			</g>
		</g>
		<g>
			<defs>
				<path id="SVGID_13_" d="M150.969,148.763l67.041-10.31c7.537,0.053,11.908,8.371,13.68,11.578
					c5.754,10.417,13.938,31.479,26.24,55.012c7.033,13.445,7.033,13.445,13.828,27.624c7.051,14.707,10.174,31.506,15.85,46.841
					c2.01,5.435,11.863,20.628,5.076,29.338l-66.08,16.548c-18.17-31.064-26.471-47.326-38.756-72.571
					c-8.408-17.281-13.396-31.646-22.891-48.343c-5.117-8.995-12.049-23.025-13.016-31.343
					C150.59,165.938,147.326,149.325,150.969,148.763z"/>
			</defs>
			<clipPath id="SVGID_14_">
				<use xlink:href="#SVGID_13_"  overflow="visible"/>
			</clipPath>
		</g>
		<g>
			<defs>
				<path id="SVGID_15_" d="M151.942,173.137c-1.352-7.199-4.615-23.813-0.973-24.374c7.482-1.149,11.91,8.373,13.682,11.578
					c5.752,10.418,13.936,31.479,26.24,55.013c7.033,13.444,7.033,13.444,13.828,27.625c7.051,14.705,10.176,31.505,15.85,46.84
					c2.008,5.434,12.822,26.863,6.035,35.575c-18.17-31.064-26.471-47.326-38.756-72.571c-8.408-17.281-13.396-31.646-22.891-48.343
					C159.84,195.485,152.908,181.455,151.942,173.137z"/>
			</defs>
			<clipPath id="SVGID_16_">
				<use xlink:href="#SVGID_15_"  overflow="visible"/>
			</clipPath>
			<g clip-path="url(#SVGID_16_)">
				<defs>
					<path id="SVGID_17_" d="M150.969,148.763l67.041-10.31c7.537,0.053,11.908,8.371,13.68,11.578
						c5.754,10.417,13.938,31.479,26.24,55.012c7.033,13.445,7.033,13.445,13.828,27.624c7.051,14.707,10.174,31.506,15.85,46.841
						c2.01,5.435,11.863,20.628,5.076,29.338l-66.08,16.548c-18.17-31.064-26.471-47.326-38.756-72.571
						c-8.408-17.281-13.396-31.646-22.891-48.343c-5.117-8.995-12.049-23.025-13.016-31.343
						C150.59,165.938,147.326,149.325,150.969,148.763z"/>
				</defs>
				<clipPath id="SVGID_18_">
					<use xlink:href="#SVGID_17_"  overflow="visible"/>
				</clipPath>
			</g>
		</g>
		<g>
			<defs>
				<path id="SVGID_19_" d="M150.969,148.763l67.041-10.31c7.537,0.053,11.908,8.371,13.68,11.578
					c5.754,10.417,13.938,31.479,26.24,55.012c7.033,13.445,7.033,13.445,13.828,27.624c7.051,14.707,10.174,31.506,15.85,46.841
					c2.01,5.435,11.863,20.628,5.076,29.338l-66.08,16.548c-18.17-31.064-26.471-47.326-38.756-72.571
					c-8.408-17.281-13.396-31.646-22.891-48.343c-5.117-8.995-12.049-23.025-13.016-31.343
					C150.59,165.938,147.326,149.325,150.969,148.763z"/>
			</defs>
			<clipPath id="SVGID_20_">
				<use xlink:href="#SVGID_19_"  overflow="visible"/>
			</clipPath>
		</g>
		<g>
			<defs>
				<path id="SVGID_21_" d="M151.942,173.137c-1.352-7.199-4.615-23.813-0.973-24.374c7.482-1.149,11.91,8.373,13.682,11.578
					c5.752,10.418,13.936,31.479,26.24,55.013c7.033,13.444,7.033,13.444,13.828,27.625c7.051,14.705,10.176,31.505,15.85,46.84
					c2.008,5.434,12.822,26.863,6.035,35.575c-18.17-31.064-26.471-47.326-38.756-72.571c-8.408-17.281-13.396-31.646-22.891-48.343
					C159.84,195.485,152.908,181.455,151.942,173.137z"/>
			</defs>
			<clipPath id="SVGID_22_">
				<use xlink:href="#SVGID_21_"  overflow="visible"/>
			</clipPath>
			<g clip-path="url(#SVGID_22_)">
				<defs>
					<path id="SVGID_23_" d="M150.969,148.763l67.041-10.31c7.537,0.053,11.908,8.371,13.68,11.578
						c5.754,10.417,13.938,31.479,26.24,55.012c7.033,13.445,7.033,13.445,13.828,27.624c7.051,14.707,10.174,31.506,15.85,46.841
						c2.01,5.435,11.863,20.628,5.076,29.338l-66.08,16.548c-18.17-31.064-26.471-47.326-38.756-72.571
						c-8.408-17.281-13.396-31.646-22.891-48.343c-5.117-8.995-12.049-23.025-13.016-31.343
						C150.59,165.938,147.326,149.325,150.969,148.763z"/>
				</defs>
				<clipPath id="SVGID_24_">
					<use xlink:href="#SVGID_23_"  overflow="visible"/>
				</clipPath>
			</g>
		</g>
		<path d="M292.684,308.846l-2.008,3.181l-65.295,16.427c0,0-32.256-54.085-41.818-77.349
			c-9.563-23.265-12.707-28.155-18.449-39.546c-5.742-11.392-10.318-19.42-12.432-25.197c-3.832-10.507-2.354-32.68-2.354-32.68
			L292.684,308.846z"/>
		<path d="M218.01,138.454c7.537,0.053,11.908,8.371,13.68,11.578c5.754,10.417,13.938,31.479,26.24,55.012
			c7.033,13.445,7.033,13.445,13.828,27.624c7.051,14.707,10.174,31.506,15.85,46.841c2.01,5.435,11.863,20.628,5.076,29.338
			l-66.08,16.548l-75.635-176.631L218.01,138.454z"/>
		<path d="M283.168,265.915c1.371,4.595,2.797,9.156,4.439,13.594c2.01,5.435,11.863,20.628,5.076,29.338l-66.08,16.548
			l-36.777-85.888L283.168,265.915z"/>
		<path d="M151.942,173.137c-1.352-7.199-4.615-23.813-0.973-24.374c7.482-1.149,11.91,8.373,13.682,11.578
			c5.752,10.418,13.936,31.479,26.24,55.013c7.033,13.444,7.033,13.444,13.828,27.625c7.051,14.705,10.176,31.505,15.85,46.84
			c2.008,5.434,12.822,26.863,6.035,35.575c-18.17-31.064-26.471-47.326-38.756-72.571c-8.408-17.281-13.396-31.646-22.891-48.343
			C159.84,195.485,152.908,181.455,151.942,173.137z"/>
		<g>
			<defs>
				<path id="SVGID_25_" d="M150.969,148.763l67.041-10.31c7.537,0.053,11.908,8.371,13.68,11.578
					c5.754,10.417,13.938,31.479,26.24,55.012c7.033,13.445,7.033,13.445,13.828,27.624c7.051,14.707,10.174,31.506,15.85,46.841
					c2.01,5.435,11.863,20.628,5.076,29.338l-66.08,16.548c-18.17-31.064-26.471-47.326-38.756-72.571
					c-8.408-17.281-13.396-31.646-22.891-48.343c-5.117-8.995-12.049-23.025-13.016-31.343
					C150.59,165.938,147.326,149.325,150.969,148.763z"/>
			</defs>
			<clipPath id="SVGID_26_">
				<use xlink:href="#SVGID_25_"  overflow="visible"/>
			</clipPath>
			<path clip-path="url(#SVGID_26_)" fill="none" stroke="#000000" stroke-width="3.1546" stroke-miterlimit="10" d="
				M205.108,107.985c-2.105,2.459-6.604,13.289-16.441,18.458c-10.832,5.69-9.482,7.715-10.58,11.231
				c-1.615,5.178-3.154,4.847-8.314,8.196c-3.07,1.993-8.08,8.949-8.08,8.949s-1.361,26.554-9.334,27.777"/>
			<path clip-path="url(#SVGID_26_)" fill="none" stroke="#000000" stroke-width="3.1546" stroke-miterlimit="10" d="
				M214.414,122.22c-2.289,2.548-6.744,13.462-15.879,18.61c-9.928,5.596-9.229,7.825-10.463,11.316
				c-1.102,5.518-4.441,6.293-9.418,9.814c-3.076,2.177-9.104,7.085-9.477,7.272c0,0-2.529,26.484-9.596,28.466"/>
			<path clip-path="url(#SVGID_26_)" fill="none" stroke="#000000" stroke-width="3.1546" stroke-miterlimit="10" d="
				M223.717,136.46c-2.471,2.631-6.883,13.621-15.313,18.757c-9.02,5.494-8.979,7.936-10.344,11.402
				c-0.586,5.859-5.727,7.75-10.523,11.435c-3.082,2.366-8.836,8.471-9.584,8.848c0,0-4.986,23.161-11.148,25.9"/>
			<path clip-path="url(#SVGID_26_)" fill="none" stroke="#000000" stroke-width="3.1546" stroke-miterlimit="10" d="
				M233.02,150.697c-2.652,2.718-7.018,13.78-14.746,18.907c-8.115,5.383-8.729,8.046-10.225,11.488
				c-0.074,6.2-7.006,9.215-11.631,13.052c-3.082,2.56-9.994,8.352-11.111,8.915c0,0-6.023,21.349-11.275,24.84"/>
			<path clip-path="url(#SVGID_26_)" fill="none" stroke="#000000" stroke-width="3.1546" stroke-miterlimit="10" d="
				M242.324,164.934c-2.836,2.803-7.154,13.932-14.184,19.06c-7.209,5.26-8.475,8.153-10.105,11.571
				c0.441,6.543-8.283,10.689-12.734,14.672c-3.086,2.758-11.227,7.72-12.713,8.473c0,0-6.988,20.043-11.332,24.29"/>
			<path clip-path="url(#SVGID_26_)" fill="none" stroke="#000000" stroke-width="3.1546" stroke-miterlimit="10" d="
				M251.629,179.172c-3.018,2.891-7.291,14.067-13.619,19.208c-6.305,5.127-8.225,8.268-9.988,11.658
				c0.953,6.884-9.553,12.168-13.838,16.29c-3.084,2.964-11.684,7.221-13.545,8.162c0,0-8.719,18.608-12.158,23.609"/>
			<path clip-path="url(#SVGID_26_)" fill="none" stroke="#000000" stroke-width="3.1546" stroke-miterlimit="10" d="
				M260.932,193.408c-3.197,2.978-7.43,14.192-13.053,19.359c-5.412,4.976-7.975,8.378-9.869,11.743
				c1.467,7.225-10.816,13.652-14.941,17.908c-3.078,3.168-12.775,7.253-15.006,8.383c0,0-9.826,16.643-12.357,22.397"/>
			<path clip-path="url(#SVGID_26_)" fill="none" stroke="#000000" stroke-width="3.1546" stroke-miterlimit="10" d="
				M270.235,207.646c-3.377,3.062-7.574,14.296-12.486,19.507c-4.525,4.805-7.723,8.491-9.752,11.826
				c1.982,7.569-12.076,15.146-16.047,19.528c-3.07,3.382-16.188,8.114-18.793,9.432c0,0-8.602,13.849-10.229,20.358"/>
			<path clip-path="url(#SVGID_26_)" fill="none" stroke="#000000" stroke-width="3.1546" stroke-miterlimit="10" d="
				M279.541,221.881c-3.563,3.15-7.742,14.386-11.924,19.662c-3.66,4.614-7.473,8.598-9.633,11.91
				c2.492,7.91-13.332,16.641-17.152,21.147c-3.051,3.595-18.764,9.26-21.738,10.766c0,0-4.148,16.525-4.861,23.789"/>
			<path clip-path="url(#SVGID_26_)" fill="none" stroke="#000000" stroke-width="3.1546" stroke-miterlimit="10" d="
				M288.846,236.122c-3.744,3.233-7.939,14.446-11.363,19.808c-2.813,4.406-7.215,8.71-9.512,11.997
				c3.008,8.251-14.578,18.135-18.26,22.764c-3.031,3.814-20.293,9.328-23.637,11.022c0,0-5.049,12.964-4.859,20.984"/>
			<path clip-path="url(#SVGID_26_)" fill="none" stroke="#000000" stroke-width="3.1546" stroke-miterlimit="10" d="
				M298.149,250.356c-3.926,3.324-8.18,14.497-10.797,19.959c-2.004,4.19-6.963,8.82-9.393,12.085
				c3.521,8.592-15.824,19.632-19.365,24.382c-3.002,4.033-26.762,11.731-32.01,21.714c0,0-9.252-4.724-8.154,4.049"/>
			<path clip-path="url(#SVGID_26_)" fill="none" stroke="#000000" stroke-width="3.1546" stroke-miterlimit="10" d="
				M307.451,264.596c-4.105,3.405-8.496,14.545-10.23,20.107c-1.238,3.981-6.711,8.932-9.273,12.168
				c4.033,8.935-17.063,21.133-20.471,26.001c-2.977,4.254-24.912,9.706-29.002,11.775c0,0-8.654,4.522-6.645,14.052"/>
		</g>
		<g>
			<defs>
				<path id="SVGID_27_" d="M151.942,173.137c-1.352-7.199-4.615-23.813-0.973-24.374c7.482-1.149,11.91,8.373,13.682,11.578
					c5.752,10.418,13.936,31.479,26.24,55.013c7.033,13.444,7.033,13.444,13.828,27.625c7.051,14.705,10.176,31.505,15.85,46.84
					c2.008,5.434,12.822,26.863,6.035,35.575c-18.17-31.064-26.471-47.326-38.756-72.571c-8.408-17.281-13.396-31.646-22.891-48.343
					C159.84,195.485,152.908,181.455,151.942,173.137z"/>
			</defs>
			<clipPath id="SVGID_28_">
				<use xlink:href="#SVGID_27_"  overflow="visible"/>
			</clipPath>
			<g clip-path="url(#SVGID_28_)">
				<defs>
					<path id="SVGID_29_" d="M150.969,148.763l67.041-10.31c7.537,0.053,11.908,8.371,13.68,11.578
						c5.754,10.417,13.938,31.479,26.24,55.012c7.033,13.445,7.033,13.445,13.828,27.624c7.051,14.707,10.174,31.506,15.85,46.841
						c2.01,5.435,11.863,20.628,5.076,29.338l-66.08,16.548c-18.17-31.064-26.471-47.326-38.756-72.571
						c-8.408-17.281-13.396-31.646-22.891-48.343c-5.117-8.995-12.049-23.025-13.016-31.343
						C150.59,165.938,147.326,149.325,150.969,148.763z"/>
				</defs>
				<clipPath id="SVGID_30_">
					<use xlink:href="#SVGID_29_"  overflow="visible"/>
				</clipPath>
				<path clip-path="url(#SVGID_30_)" fill="none" stroke="#000000" stroke-width="3.1546" stroke-miterlimit="10" d="
					M205.108,107.985c-2.105,2.459-6.604,13.289-16.441,18.458c-10.832,5.69-9.482,7.715-10.58,11.231
					c-1.615,5.178-3.154,4.847-8.314,8.196c-3.07,1.993-8.08,8.949-8.08,8.949s-1.361,26.554-9.334,27.777"/>
				<path clip-path="url(#SVGID_30_)" fill="none" stroke="#000000" stroke-width="3.1546" stroke-miterlimit="10" d="
					M214.414,122.22c-2.289,2.548-6.744,13.462-15.879,18.61c-9.928,5.596-9.229,7.825-10.463,11.316
					c-1.102,5.518-4.441,6.293-9.418,9.814c-3.076,2.177-9.104,7.085-9.477,7.272c0,0-2.529,26.484-9.596,28.466"/>
				<path clip-path="url(#SVGID_30_)" fill="none" stroke="#000000" stroke-width="3.1546" stroke-miterlimit="10" d="
					M223.717,136.46c-2.471,2.631-6.883,13.621-15.313,18.757c-9.02,5.494-8.979,7.936-10.344,11.402
					c-0.586,5.859-5.727,7.75-10.523,11.435c-3.082,2.366-8.836,8.471-9.584,8.848c0,0-4.986,23.161-11.148,25.9"/>
				<path clip-path="url(#SVGID_30_)" fill="none" stroke="#000000" stroke-width="3.1546" stroke-miterlimit="10" d="
					M233.02,150.697c-2.652,2.718-7.018,13.78-14.746,18.907c-8.115,5.383-8.729,8.046-10.225,11.488
					c-0.074,6.2-7.006,9.215-11.631,13.052c-3.082,2.56-9.994,8.352-11.111,8.915c0,0-6.023,21.349-11.275,24.84"/>
				<path clip-path="url(#SVGID_30_)" fill="none" stroke="#000000" stroke-width="3.1546" stroke-miterlimit="10" d="
					M242.324,164.934c-2.836,2.803-7.154,13.932-14.184,19.06c-7.209,5.26-8.475,8.153-10.105,11.571
					c0.441,6.543-8.283,10.689-12.734,14.672c-3.086,2.758-11.227,7.72-12.713,8.473c0,0-6.988,20.043-11.332,24.29"/>
				<path clip-path="url(#SVGID_30_)" fill="none" stroke="#000000" stroke-width="3.1546" stroke-miterlimit="10" d="
					M251.629,179.172c-3.018,2.891-7.291,14.067-13.619,19.208c-6.305,5.127-8.225,8.268-9.988,11.658
					c0.953,6.884-9.553,12.168-13.838,16.29c-3.084,2.964-11.684,7.221-13.545,8.162c0,0-8.719,18.608-12.158,23.609"/>
				<path clip-path="url(#SVGID_30_)" fill="none" stroke="#000000" stroke-width="3.1546" stroke-miterlimit="10" d="
					M260.932,193.408c-3.197,2.978-7.43,14.192-13.053,19.359c-5.412,4.976-7.975,8.378-9.869,11.743
					c1.467,7.225-10.816,13.652-14.941,17.908c-3.078,3.168-12.775,7.253-15.006,8.383c0,0-9.826,16.643-12.357,22.397"/>
				<path clip-path="url(#SVGID_30_)" fill="none" stroke="#000000" stroke-width="3.1546" stroke-miterlimit="10" d="
					M270.235,207.646c-3.377,3.062-7.574,14.296-12.486,19.507c-4.525,4.805-7.723,8.491-9.752,11.826
					c1.982,7.569-12.076,15.146-16.047,19.528c-3.07,3.382-16.188,8.114-18.793,9.432c0,0-8.602,13.849-10.229,20.358"/>
				<path clip-path="url(#SVGID_30_)" fill="none" stroke="#000000" stroke-width="3.1546" stroke-miterlimit="10" d="
					M279.541,221.881c-3.563,3.15-7.742,14.386-11.924,19.662c-3.66,4.614-7.473,8.598-9.633,11.91
					c2.492,7.91-13.332,16.641-17.152,21.147c-3.051,3.595-18.764,9.26-21.738,10.766c0,0-4.148,16.525-4.861,23.789"/>
				<path clip-path="url(#SVGID_30_)" fill="none" stroke="#000000" stroke-width="3.1546" stroke-miterlimit="10" d="
					M288.846,236.122c-3.744,3.233-7.939,14.446-11.363,19.808c-2.813,4.406-7.215,8.71-9.512,11.997
					c3.008,8.251-14.578,18.135-18.26,22.764c-3.031,3.814-20.293,9.328-23.637,11.022c0,0-5.049,12.964-4.859,20.984"/>
				<path clip-path="url(#SVGID_30_)" fill="none" stroke="#000000" stroke-width="3.1546" stroke-miterlimit="10" d="
					M298.149,250.356c-3.926,3.324-8.18,14.497-10.797,19.959c-2.004,4.19-6.963,8.82-9.393,12.085
					c3.521,8.592-15.824,19.632-19.365,24.382c-3.002,4.033-26.762,11.731-32.01,21.714c0,0-9.252-4.724-8.154,4.049"/>
				<path clip-path="url(#SVGID_30_)" fill="none" stroke="#000000" stroke-width="3.1546" stroke-miterlimit="10" d="
					M307.451,264.596c-4.105,3.405-8.496,14.545-10.23,20.107c-1.238,3.981-6.711,8.932-9.273,12.168
					c4.033,8.935-17.063,21.133-20.471,26.001c-2.977,4.254-24.912,9.706-29.002,11.775c0,0-8.654,4.522-6.645,14.052"/>
			</g>
		</g>
		<g>
			<defs>
				<path id="SVGID_31_" d="M150.969,148.763l67.041-10.31c7.537,0.053,11.908,8.371,13.68,11.578
					c5.754,10.417,13.938,31.479,26.24,55.012c7.033,13.445,7.033,13.445,13.828,27.624c7.051,14.707,10.174,31.506,15.85,46.841
					c2.01,5.435,11.863,20.628,5.076,29.338l-66.08,16.548c-18.17-31.064-26.471-47.326-38.756-72.571
					c-8.408-17.281-13.396-31.646-22.891-48.343c-5.117-8.995-12.049-23.025-13.016-31.343
					C150.59,165.938,147.326,149.325,150.969,148.763z"/>
			</defs>
			<clipPath id="SVGID_32_">
				<use xlink:href="#SVGID_31_"  overflow="visible"/>
			</clipPath>
		</g>
		<g>
			<defs>
				<path id="SVGID_33_" d="M151.942,173.137c-1.352-7.199-4.615-23.813-0.973-24.374c7.482-1.149,11.91,8.373,13.682,11.578
					c5.752,10.418,13.936,31.479,26.24,55.013c7.033,13.444,7.033,13.444,13.828,27.625c7.051,14.705,10.176,31.505,15.85,46.84
					c2.008,5.434,12.822,26.863,6.035,35.575c-18.17-31.064-26.471-47.326-38.756-72.571c-8.408-17.281-13.396-31.646-22.891-48.343
					C159.84,195.485,152.908,181.455,151.942,173.137z"/>
			</defs>
			<clipPath id="SVGID_34_">
				<use xlink:href="#SVGID_33_"  overflow="visible"/>
			</clipPath>
			<g clip-path="url(#SVGID_34_)">
				<defs>
					<path id="SVGID_35_" d="M150.969,148.763l67.041-10.31c7.537,0.053,11.908,8.371,13.68,11.578
						c5.754,10.417,13.938,31.479,26.24,55.012c7.033,13.445,7.033,13.445,13.828,27.624c7.051,14.707,10.174,31.506,15.85,46.841
						c2.01,5.435,11.863,20.628,5.076,29.338l-66.08,16.548c-18.17-31.064-26.471-47.326-38.756-72.571
						c-8.408-17.281-13.396-31.646-22.891-48.343c-5.117-8.995-12.049-23.025-13.016-31.343
						C150.59,165.938,147.326,149.325,150.969,148.763z"/>
				</defs>
				<clipPath id="SVGID_36_">
					<use xlink:href="#SVGID_35_"  overflow="visible"/>
				</clipPath>
			</g>
		</g>
		<g>
			<defs>
				<path id="SVGID_37_" d="M150.969,148.763l67.041-10.31c7.537,0.053,11.908,8.371,13.68,11.578
					c5.754,10.417,13.938,31.479,26.24,55.012c7.033,13.445,7.033,13.445,13.828,27.624c7.051,14.707,10.174,31.506,15.85,46.841
					c2.01,5.435,11.863,20.628,5.076,29.338l-66.08,16.548c-18.17-31.064-26.471-47.326-38.756-72.571
					c-8.408-17.281-13.396-31.646-22.891-48.343c-5.117-8.995-12.049-23.025-13.016-31.343
					C150.59,165.938,147.326,149.325,150.969,148.763z"/>
			</defs>
			<clipPath id="SVGID_38_">
				<use xlink:href="#SVGID_37_"  overflow="visible"/>
			</clipPath>
		</g>
		<g>
			<defs>
				<path id="SVGID_39_" d="M151.942,173.137c-1.352-7.199-4.615-23.813-0.973-24.374c7.482-1.149,11.91,8.373,13.682,11.578
					c5.752,10.418,13.936,31.479,26.24,55.013c7.033,13.444,7.033,13.444,13.828,27.625c7.051,14.705,10.176,31.505,15.85,46.84
					c2.008,5.434,12.822,26.863,6.035,35.575c-18.17-31.064-26.471-47.326-38.756-72.571c-8.408-17.281-13.396-31.646-22.891-48.343
					C159.84,195.485,152.908,181.455,151.942,173.137z"/>
			</defs>
			<clipPath id="SVGID_40_">
				<use xlink:href="#SVGID_39_"  overflow="visible"/>
			</clipPath>
			<g clip-path="url(#SVGID_40_)">
				<defs>
					<path id="SVGID_41_" d="M150.969,148.763l67.041-10.31c7.537,0.053,11.908,8.371,13.68,11.578
						c5.754,10.417,13.938,31.479,26.24,55.012c7.033,13.445,7.033,13.445,13.828,27.624c7.051,14.707,10.174,31.506,15.85,46.841
						c2.01,5.435,11.863,20.628,5.076,29.338l-66.08,16.548c-18.17-31.064-26.471-47.326-38.756-72.571
						c-8.408-17.281-13.396-31.646-22.891-48.343c-5.117-8.995-12.049-23.025-13.016-31.343
						C150.59,165.938,147.326,149.325,150.969,148.763z"/>
				</defs>
				<clipPath id="SVGID_42_">
					<use xlink:href="#SVGID_41_"  overflow="visible"/>
				</clipPath>
			</g>
		</g>
		<g>
			<defs>
				<path id="SVGID_43_" d="M150.969,148.763l67.041-10.31c7.537,0.053,11.908,8.371,13.68,11.578
					c5.754,10.417,13.938,31.479,26.24,55.012c7.033,13.445,7.033,13.445,13.828,27.624c7.051,14.707,10.174,31.506,15.85,46.841
					c2.01,5.435,11.863,20.628,5.076,29.338l-66.08,16.548c-18.17-31.064-26.471-47.326-38.756-72.571
					c-8.408-17.281-13.396-31.646-22.891-48.343c-5.117-8.995-12.049-23.025-13.016-31.343
					C150.59,165.938,147.326,149.325,150.969,148.763z"/>
			</defs>
			<clipPath id="SVGID_44_">
				<use xlink:href="#SVGID_43_"  overflow="visible"/>
			</clipPath>
		</g>
		<g>
			<defs>
				<path id="SVGID_45_" d="M151.942,173.137c-1.352-7.199-4.615-23.813-0.973-24.374c7.482-1.149,11.91,8.373,13.682,11.578
					c5.752,10.418,13.936,31.479,26.24,55.013c7.033,13.444,7.033,13.444,13.828,27.625c7.051,14.705,10.176,31.505,15.85,46.84
					c2.008,5.434,12.822,26.863,6.035,35.575c-18.17-31.064-26.471-47.326-38.756-72.571c-8.408-17.281-13.396-31.646-22.891-48.343
					C159.84,195.485,152.908,181.455,151.942,173.137z"/>
			</defs>
			<clipPath id="SVGID_46_">
				<use xlink:href="#SVGID_45_"  overflow="visible"/>
			</clipPath>
			<g clip-path="url(#SVGID_46_)">
				<defs>
					<path id="SVGID_47_" d="M150.969,148.763l67.041-10.31c7.537,0.053,11.908,8.371,13.68,11.578
						c5.754,10.417,13.938,31.479,26.24,55.012c7.033,13.445,7.033,13.445,13.828,27.624c7.051,14.707,10.174,31.506,15.85,46.841
						c2.01,5.435,11.863,20.628,5.076,29.338l-66.08,16.548c-18.17-31.064-26.471-47.326-38.756-72.571
						c-8.408-17.281-13.396-31.646-22.891-48.343c-5.117-8.995-12.049-23.025-13.016-31.343
						C150.59,165.938,147.326,149.325,150.969,148.763z"/>
				</defs>
				<clipPath id="SVGID_48_">
					<use xlink:href="#SVGID_47_"  overflow="visible"/>
				</clipPath>
			</g>
		</g>
		<g>
			<defs>
				<path id="SVGID_49_" d="M150.969,148.763l67.041-10.31c7.537,0.053,11.908,8.371,13.68,11.578
					c5.754,10.417,13.938,31.479,26.24,55.012c7.033,13.445,7.033,13.445,13.828,27.624c7.051,14.707,10.174,31.506,15.85,46.841
					c2.01,5.435,11.863,20.628,5.076,29.338l-66.08,16.548c-18.17-31.064-26.471-47.326-38.756-72.571
					c-8.408-17.281-13.396-31.646-22.891-48.343c-5.117-8.995-12.049-23.025-13.016-31.343
					C150.59,165.938,147.326,149.325,150.969,148.763z"/>
			</defs>
			<clipPath id="SVGID_50_">
				<use xlink:href="#SVGID_49_"  overflow="visible"/>
			</clipPath>
		</g>
		<g>
			<defs>
				<path id="SVGID_51_" d="M151.942,173.137c-1.352-7.199-4.615-23.813-0.973-24.374c7.482-1.149,11.91,8.373,13.682,11.578
					c5.752,10.418,13.936,31.479,26.24,55.013c7.033,13.444,7.033,13.444,13.828,27.625c7.051,14.705,10.176,31.505,15.85,46.84
					c2.008,5.434,12.822,26.863,6.035,35.575c-18.17-31.064-26.471-47.326-38.756-72.571c-8.408-17.281-13.396-31.646-22.891-48.343
					C159.84,195.485,152.908,181.455,151.942,173.137z"/>
			</defs>
			<clipPath id="SVGID_52_">
				<use xlink:href="#SVGID_51_"  overflow="visible"/>
			</clipPath>
			<g clip-path="url(#SVGID_52_)">
				<defs>
					<path id="SVGID_53_" d="M150.969,148.763l67.041-10.31c7.537,0.053,11.908,8.371,13.68,11.578
						c5.754,10.417,13.938,31.479,26.24,55.012c7.033,13.445,7.033,13.445,13.828,27.624c7.051,14.707,10.174,31.506,15.85,46.841
						c2.01,5.435,11.863,20.628,5.076,29.338l-66.08,16.548c-18.17-31.064-26.471-47.326-38.756-72.571
						c-8.408-17.281-13.396-31.646-22.891-48.343c-5.117-8.995-12.049-23.025-13.016-31.343
						C150.59,165.938,147.326,149.325,150.969,148.763z"/>
				</defs>
				<clipPath id="SVGID_54_">
					<use xlink:href="#SVGID_53_"  overflow="visible"/>
				</clipPath>
			</g>
		</g>
	</g>
	<g>
		<g>
			<g>
				<g>
					<defs>
						<path id="SVGID_55_" d="M145.3,143.094l67.04-10.31c7.537,0.053,11.908,8.371,13.681,11.578
							c5.753,10.417,13.937,31.479,26.24,55.012c7.033,13.445,7.033,13.445,13.828,27.624c7.051,14.707,10.173,31.506,15.849,46.841
							c2.01,5.435,11.863,20.628,5.076,29.338l-66.08,16.548c-18.17-31.064-26.47-47.326-38.756-72.571
							c-8.408-17.281-13.396-31.646-22.891-48.343c-5.117-8.995-12.049-23.025-13.016-31.343
							C144.92,160.269,141.656,143.656,145.3,143.094z"/>
					</defs>
					<clipPath id="SVGID_56_">
						<use xlink:href="#SVGID_55_"  overflow="visible"/>
					</clipPath>
				</g>
				<g>
					<defs>
						<path id="SVGID_57_" d="M146.272,167.469c-1.352-7.199-4.615-23.813-0.972-24.374c7.481-1.149,11.909,8.373,13.681,11.578
							c5.752,10.418,13.936,31.479,26.24,55.013c7.033,13.444,7.033,13.444,13.829,27.625c7.051,14.705,10.175,31.505,15.849,46.84
							c2.009,5.434,12.822,26.863,6.035,35.575c-18.17-31.064-26.47-47.326-38.756-72.571
							c-8.408-17.281-13.396-31.646-22.891-48.343C154.17,189.816,147.239,175.786,146.272,167.469z"/>
					</defs>
					<clipPath id="SVGID_58_">
						<use xlink:href="#SVGID_57_"  overflow="visible"/>
					</clipPath>
					<g clip-path="url(#SVGID_58_)">
						<defs>
							<path id="SVGID_59_" d="M145.3,143.094l67.04-10.31c7.537,0.053,11.908,8.371,13.681,11.578
								c5.753,10.417,13.937,31.479,26.24,55.012c7.033,13.445,7.033,13.445,13.828,27.624
								c7.051,14.707,10.173,31.506,15.849,46.841c2.01,5.435,11.863,20.628,5.076,29.338l-66.08,16.548
								c-18.17-31.064-26.47-47.326-38.756-72.571c-8.408-17.281-13.396-31.646-22.891-48.343
								c-5.117-8.995-12.049-23.025-13.016-31.343C144.92,160.269,141.656,143.656,145.3,143.094z"/>
						</defs>
						<clipPath id="SVGID_60_">
							<use xlink:href="#SVGID_59_"  overflow="visible"/>
						</clipPath>
					</g>
				</g>
			</g>
			<g>
				<g>
					<defs>
						<path id="SVGID_61_" d="M145.3,143.094l67.04-10.31c7.537,0.053,11.908,8.371,13.681,11.578
							c5.753,10.417,13.937,31.479,26.24,55.012c7.033,13.445,7.033,13.445,13.828,27.624c7.051,14.707,10.173,31.506,15.849,46.841
							c2.01,5.435,11.863,20.628,5.076,29.338l-66.08,16.548c-18.17-31.064-26.47-47.326-38.756-72.571
							c-8.408-17.281-13.396-31.646-22.891-48.343c-5.117-8.995-12.049-23.025-13.016-31.343
							C144.92,160.269,141.656,143.656,145.3,143.094z"/>
					</defs>
					<clipPath id="SVGID_62_">
						<use xlink:href="#SVGID_61_"  overflow="visible"/>
					</clipPath>
				</g>
				<g>
					<defs>
						<path id="SVGID_63_" d="M146.272,167.469c-1.352-7.199-4.615-23.813-0.972-24.374c7.481-1.149,11.909,8.373,13.681,11.578
							c5.752,10.418,13.936,31.479,26.24,55.013c7.033,13.444,7.033,13.444,13.829,27.625c7.051,14.705,10.175,31.505,15.849,46.84
							c2.009,5.434,12.822,26.863,6.035,35.575c-18.17-31.064-26.47-47.326-38.756-72.571
							c-8.408-17.281-13.396-31.646-22.891-48.343C154.17,189.816,147.239,175.786,146.272,167.469z"/>
					</defs>
					<clipPath id="SVGID_64_">
						<use xlink:href="#SVGID_63_"  overflow="visible"/>
					</clipPath>
					<g clip-path="url(#SVGID_64_)">
						<defs>
							<path id="SVGID_65_" d="M145.3,143.094l67.04-10.31c7.537,0.053,11.908,8.371,13.681,11.578
								c5.753,10.417,13.937,31.479,26.24,55.012c7.033,13.445,7.033,13.445,13.828,27.624
								c7.051,14.707,10.173,31.506,15.849,46.841c2.01,5.435,11.863,20.628,5.076,29.338l-66.08,16.548
								c-18.17-31.064-26.47-47.326-38.756-72.571c-8.408-17.281-13.396-31.646-22.891-48.343
								c-5.117-8.995-12.049-23.025-13.016-31.343C144.92,160.269,141.656,143.656,145.3,143.094z"/>
						</defs>
						<clipPath id="SVGID_66_">
							<use xlink:href="#SVGID_65_"  overflow="visible"/>
						</clipPath>
					</g>
				</g>
			</g>
			<g>
				<g>
					<defs>
						<path id="SVGID_67_" d="M145.3,143.094l67.04-10.31c7.537,0.053,11.908,8.371,13.681,11.578
							c5.753,10.417,13.937,31.479,26.24,55.012c7.033,13.445,7.033,13.445,13.828,27.624c7.051,14.707,10.173,31.506,15.849,46.841
							c2.01,5.435,11.863,20.628,5.076,29.338l-66.08,16.548c-18.17-31.064-26.47-47.326-38.756-72.571
							c-8.408-17.281-13.396-31.646-22.891-48.343c-5.117-8.995-12.049-23.025-13.016-31.343
							C144.92,160.269,141.656,143.656,145.3,143.094z"/>
					</defs>
					<clipPath id="SVGID_68_">
						<use xlink:href="#SVGID_67_"  overflow="visible"/>
					</clipPath>
				</g>
				<g>
					<defs>
						<path id="SVGID_69_" d="M146.272,167.469c-1.352-7.199-4.615-23.813-0.972-24.374c7.481-1.149,11.909,8.373,13.681,11.578
							c5.752,10.418,13.936,31.479,26.24,55.013c7.033,13.444,7.033,13.444,13.829,27.625c7.051,14.705,10.175,31.505,15.849,46.84
							c2.009,5.434,12.822,26.863,6.035,35.575c-18.17-31.064-26.47-47.326-38.756-72.571
							c-8.408-17.281-13.396-31.646-22.891-48.343C154.17,189.816,147.239,175.786,146.272,167.469z"/>
					</defs>
					<clipPath id="SVGID_70_">
						<use xlink:href="#SVGID_69_"  overflow="visible"/>
					</clipPath>
					<g clip-path="url(#SVGID_70_)">
						<defs>
							<path id="SVGID_71_" d="M145.3,143.094l67.04-10.31c7.537,0.053,11.908,8.371,13.681,11.578
								c5.753,10.417,13.937,31.479,26.24,55.012c7.033,13.445,7.033,13.445,13.828,27.624
								c7.051,14.707,10.173,31.506,15.849,46.841c2.01,5.435,11.863,20.628,5.076,29.338l-66.08,16.548
								c-18.17-31.064-26.47-47.326-38.756-72.571c-8.408-17.281-13.396-31.646-22.891-48.343
								c-5.117-8.995-12.049-23.025-13.016-31.343C144.92,160.269,141.656,143.656,145.3,143.094z"/>
						</defs>
						<clipPath id="SVGID_72_">
							<use xlink:href="#SVGID_71_"  overflow="visible"/>
						</clipPath>
					</g>
				</g>
			</g>
		</g>
		<g>
			<g>
				<g>
					<defs>
						<path id="SVGID_73_" d="M145.3,143.094l67.04-10.31c7.537,0.053,11.908,8.371,13.681,11.578
							c5.753,10.417,13.937,31.479,26.24,55.012c7.033,13.445,7.033,13.445,13.828,27.624c7.051,14.707,10.173,31.506,15.849,46.841
							c2.01,5.435,11.863,20.628,5.076,29.338l-66.08,16.548c-18.17-31.064-26.47-47.326-38.756-72.571
							c-8.408-17.281-13.396-31.646-22.891-48.343c-5.117-8.995-12.049-23.025-13.016-31.343
							C144.92,160.269,141.656,143.656,145.3,143.094z"/>
					</defs>
					<clipPath id="SVGID_74_">
						<use xlink:href="#SVGID_73_"  overflow="visible"/>
					</clipPath>
				</g>
				<g>
					<defs>
						<path id="SVGID_75_" d="M146.272,167.469c-1.352-7.199-4.615-23.813-0.972-24.374c7.481-1.149,11.909,8.373,13.681,11.578
							c5.752,10.418,13.936,31.479,26.24,55.013c7.033,13.444,7.033,13.444,13.829,27.625c7.051,14.705,10.175,31.505,15.849,46.84
							c2.009,5.434,12.822,26.863,6.035,35.575c-18.17-31.064-26.47-47.326-38.756-72.571
							c-8.408-17.281-13.396-31.646-22.891-48.343C154.17,189.816,147.239,175.786,146.272,167.469z"/>
					</defs>
					<clipPath id="SVGID_76_">
						<use xlink:href="#SVGID_75_"  overflow="visible"/>
					</clipPath>
					<g clip-path="url(#SVGID_76_)">
						<defs>
							<path id="SVGID_77_" d="M145.3,143.094l67.04-10.31c7.537,0.053,11.908,8.371,13.681,11.578
								c5.753,10.417,13.937,31.479,26.24,55.012c7.033,13.445,7.033,13.445,13.828,27.624
								c7.051,14.707,10.173,31.506,15.849,46.841c2.01,5.435,11.863,20.628,5.076,29.338l-66.08,16.548
								c-18.17-31.064-26.47-47.326-38.756-72.571c-8.408-17.281-13.396-31.646-22.891-48.343
								c-5.117-8.995-12.049-23.025-13.016-31.343C144.92,160.269,141.656,143.656,145.3,143.094z"/>
						</defs>
						<clipPath id="SVGID_78_">
							<use xlink:href="#SVGID_77_"  overflow="visible"/>
						</clipPath>
					</g>
				</g>
			</g>
			<g>
				<path fill="#8E5949" d="M287.014,303.177l-2.008,3.181l-65.295,16.427c0,0-32.256-54.085-41.818-77.349
					c-9.563-23.265-12.707-28.155-18.448-39.546c-5.743-11.392-10.319-19.42-12.432-25.197c-3.833-10.507-2.354-32.68-2.354-32.68
					L287.014,303.177z"/>
				<path fill="#D96812" d="M212.34,132.785c7.537,0.053,11.908,8.371,13.681,11.578c5.753,10.417,13.937,31.479,26.24,55.012
					c7.033,13.445,7.033,13.445,13.828,27.624c7.051,14.707,10.173,31.506,15.849,46.841c2.01,5.435,11.863,20.628,5.076,29.338
					l-66.08,16.548L145.3,143.094L212.34,132.785z"/>
				<path fill="#C05C18" d="M277.498,260.246c1.371,4.595,2.798,9.156,4.439,13.594c2.01,5.435,11.863,20.628,5.076,29.338
					l-66.08,16.548l-36.777-85.888L277.498,260.246z"/>
				<path fill="#DD925B" d="M146.272,167.469c-1.352-7.199-4.615-23.813-0.972-24.374c7.481-1.149,11.909,8.373,13.681,11.578
					c5.752,10.418,13.936,31.479,26.24,55.013c7.033,13.444,7.033,13.444,13.829,27.625c7.051,14.705,10.175,31.505,15.849,46.84
					c2.009,5.434,12.822,26.863,6.035,35.575c-18.17-31.064-26.47-47.326-38.756-72.571c-8.408-17.281-13.396-31.646-22.891-48.343
					C154.17,189.816,147.239,175.786,146.272,167.469z"/>
				<g>
					<defs>
						<path id="SVGID_79_" d="M145.3,143.094l67.04-10.31c7.537,0.053,11.908,8.371,13.681,11.578
							c5.753,10.417,13.937,31.479,26.24,55.012c7.033,13.445,7.033,13.445,13.828,27.624c7.051,14.707,10.173,31.506,15.849,46.841
							c2.01,5.435,11.863,20.628,5.076,29.338l-66.08,16.548c-18.17-31.064-26.47-47.326-38.756-72.571
							c-8.408-17.281-13.396-31.646-22.891-48.343c-5.117-8.995-12.049-23.025-13.016-31.343
							C144.92,160.269,141.656,143.656,145.3,143.094z"/>
					</defs>
					<clipPath id="SVGID_80_">
						<use xlink:href="#SVGID_79_"  overflow="visible"/>
					</clipPath>
					<g clip-path="url(#SVGID_80_)">
						<path fill="none" stroke="#E0B391" stroke-width="3.1546" stroke-miterlimit="10" d="M199.438,102.316
							c-2.104,2.459-6.603,13.289-16.441,18.458c-10.832,5.69-9.482,7.715-10.579,11.231c-1.616,5.178-3.154,4.847-8.315,8.196
							c-3.07,1.993-8.08,8.949-8.08,8.949s-1.361,26.554-9.334,27.777"/>
						<path fill="none" stroke="#E0B391" stroke-width="3.1546" stroke-miterlimit="10" d="M208.744,116.552
							c-2.289,2.548-6.743,13.462-15.879,18.61c-9.928,5.596-9.229,7.825-10.463,11.316c-1.102,5.518-4.441,6.293-9.418,9.814
							c-3.076,2.177-9.103,7.085-9.477,7.272c0,0-2.529,26.484-9.596,28.466"/>
						<path fill="none" stroke="#E0B391" stroke-width="3.1546" stroke-miterlimit="10" d="M218.047,130.791
							c-2.471,2.631-6.883,13.621-15.313,18.757c-9.019,5.494-8.979,7.936-10.344,11.402c-0.586,5.859-5.726,7.75-10.523,11.435
							c-3.082,2.366-8.836,8.471-9.584,8.848c0,0-4.985,23.161-11.148,25.9"/>
						<path fill="none" stroke="#E0B391" stroke-width="3.1546" stroke-miterlimit="10" d="M227.35,145.028
							c-2.652,2.718-7.018,13.78-14.746,18.907c-8.115,5.383-8.729,8.046-10.225,11.488c-0.074,6.2-7.006,9.215-11.631,13.052
							c-3.082,2.56-9.994,8.352-11.111,8.915c0,0-6.023,21.349-11.274,24.84"/>
						<path fill="none" stroke="#E0B391" stroke-width="3.1546" stroke-miterlimit="10" d="M236.655,159.265
							c-2.836,2.803-7.154,13.932-14.184,19.06c-7.209,5.26-8.475,8.153-10.105,11.571c0.442,6.543-8.282,10.689-12.734,14.672
							c-3.086,2.758-11.227,7.72-12.713,8.473c0,0-6.987,20.043-11.332,24.29"/>
						<path fill="none" stroke="#E0B391" stroke-width="3.1546" stroke-miterlimit="10" d="M245.959,173.503
							c-3.018,2.891-7.291,14.067-13.619,19.208c-6.305,5.127-8.224,8.268-9.988,11.658c0.953,6.884-9.553,12.168-13.838,16.29
							c-3.084,2.964-11.684,7.221-13.545,8.162c0,0-8.719,18.608-12.158,23.609"/>
						<path fill="none" stroke="#E0B391" stroke-width="3.1546" stroke-miterlimit="10" d="M255.262,187.739
							c-3.197,2.978-7.429,14.192-13.053,19.359c-5.411,4.976-7.975,8.378-9.868,11.743c1.467,7.225-10.817,13.652-14.942,17.908
							c-3.078,3.168-12.774,7.253-15.006,8.383c0,0-9.826,16.643-12.357,22.397"/>
						<path fill="none" stroke="#E0B391" stroke-width="3.1546" stroke-miterlimit="10" d="M264.566,201.977
							c-3.378,3.062-7.575,14.296-12.487,19.507c-4.525,4.805-7.722,8.491-9.752,11.826c1.982,7.569-12.075,15.146-16.047,19.528
							c-3.069,3.382-16.188,8.114-18.793,9.432c0,0-8.602,13.849-10.229,20.358"/>
						<path fill="none" stroke="#E0B391" stroke-width="3.1546" stroke-miterlimit="10" d="M273.871,216.212
							c-3.562,3.15-7.742,14.386-11.924,19.662c-3.66,4.614-7.472,8.598-9.633,11.91c2.492,7.91-13.331,16.641-17.152,21.147
							c-3.051,3.595-18.763,9.26-21.738,10.766c0,0-4.148,16.525-4.86,23.789"/>
						<path fill="none" stroke="#E0B391" stroke-width="3.1546" stroke-miterlimit="10" d="M283.176,230.453
							c-3.744,3.233-7.938,14.446-11.362,19.808c-2.813,4.406-7.216,8.71-9.513,11.997c3.008,8.251-14.577,18.135-18.26,22.764
							c-3.03,3.814-20.293,9.328-23.637,11.022c0,0-5.049,12.964-4.858,20.984"/>
						<path fill="none" stroke="#E0B391" stroke-width="3.1546" stroke-miterlimit="10" d="M292.479,244.687
							c-3.926,3.324-8.18,14.497-10.796,19.959c-2.005,4.19-6.963,8.82-9.394,12.085c3.521,8.592-15.823,19.632-19.365,24.382
							c-3.002,4.033-26.762,11.731-32.009,21.714c0,0-9.253-4.724-8.154,4.049"/>
						<path fill="none" stroke="#E0B391" stroke-width="3.1546" stroke-miterlimit="10" d="M301.781,258.927
							c-4.105,3.405-8.496,14.545-10.229,20.107c-1.239,3.981-6.712,8.932-9.274,12.168c4.033,8.935-17.062,21.133-20.471,26.001
							c-2.976,4.254-24.911,9.706-29.001,11.775c0,0-8.655,4.522-6.646,14.052"/>
					</g>
				</g>
				<g>
					<defs>
						<path id="SVGID_81_" d="M146.272,167.469c-1.352-7.199-4.615-23.813-0.972-24.374c7.481-1.149,11.909,8.373,13.681,11.578
							c5.752,10.418,13.936,31.479,26.24,55.013c7.033,13.444,7.033,13.444,13.829,27.625c7.051,14.705,10.175,31.505,15.849,46.84
							c2.009,5.434,12.822,26.863,6.035,35.575c-18.17-31.064-26.47-47.326-38.756-72.571
							c-8.408-17.281-13.396-31.646-22.891-48.343C154.17,189.816,147.239,175.786,146.272,167.469z"/>
					</defs>
					<clipPath id="SVGID_82_">
						<use xlink:href="#SVGID_81_"  overflow="visible"/>
					</clipPath>
					<g clip-path="url(#SVGID_82_)">
						<defs>
							<path id="SVGID_83_" d="M145.3,143.094l67.04-10.31c7.537,0.053,11.908,8.371,13.681,11.578
								c5.753,10.417,13.937,31.479,26.24,55.012c7.033,13.445,7.033,13.445,13.828,27.624
								c7.051,14.707,10.173,31.506,15.849,46.841c2.01,5.435,11.863,20.628,5.076,29.338l-66.08,16.548
								c-18.17-31.064-26.47-47.326-38.756-72.571c-8.408-17.281-13.396-31.646-22.891-48.343
								c-5.117-8.995-12.049-23.025-13.016-31.343C144.92,160.269,141.656,143.656,145.3,143.094z"/>
						</defs>
						<clipPath id="SVGID_84_">
							<use xlink:href="#SVGID_83_"  overflow="visible"/>
						</clipPath>
						<g clip-path="url(#SVGID_84_)">
							<path fill="none" stroke="#B37D5B" stroke-width="3.1546" stroke-miterlimit="10" d="M199.438,102.316
								c-2.104,2.459-6.603,13.289-16.441,18.458c-10.832,5.69-9.482,7.715-10.579,11.231c-1.616,5.178-3.154,4.847-8.315,8.196
								c-3.07,1.993-8.08,8.949-8.08,8.949s-1.361,26.554-9.334,27.777"/>
							<path fill="none" stroke="#B37D5B" stroke-width="3.1546" stroke-miterlimit="10" d="M208.744,116.552
								c-2.289,2.548-6.743,13.462-15.879,18.61c-9.928,5.596-9.229,7.825-10.463,11.316c-1.102,5.518-4.441,6.293-9.418,9.814
								c-3.076,2.177-9.103,7.085-9.477,7.272c0,0-2.529,26.484-9.596,28.466"/>
							<path fill="none" stroke="#B37D5B" stroke-width="3.1546" stroke-miterlimit="10" d="M218.047,130.791
								c-2.471,2.631-6.883,13.621-15.313,18.757c-9.019,5.494-8.979,7.936-10.344,11.402c-0.586,5.859-5.726,7.75-10.523,11.435
								c-3.082,2.366-8.836,8.471-9.584,8.848c0,0-4.985,23.161-11.148,25.9"/>
							<path fill="none" stroke="#B37D5B" stroke-width="3.1546" stroke-miterlimit="10" d="M227.35,145.028
								c-2.652,2.718-7.018,13.78-14.746,18.907c-8.115,5.383-8.729,8.046-10.225,11.488c-0.074,6.2-7.006,9.215-11.631,13.052
								c-3.082,2.56-9.994,8.352-11.111,8.915c0,0-6.023,21.349-11.274,24.84"/>
							<path fill="none" stroke="#B37D5B" stroke-width="3.1546" stroke-miterlimit="10" d="M236.655,159.265
								c-2.836,2.803-7.154,13.932-14.184,19.06c-7.209,5.26-8.475,8.153-10.105,11.571c0.442,6.543-8.282,10.689-12.734,14.672
								c-3.086,2.758-11.227,7.72-12.713,8.473c0,0-6.987,20.043-11.332,24.29"/>
							<path fill="none" stroke="#B37D5B" stroke-width="3.1546" stroke-miterlimit="10" d="M245.959,173.503
								c-3.018,2.891-7.291,14.067-13.619,19.208c-6.305,5.127-8.224,8.268-9.988,11.658c0.953,6.884-9.553,12.168-13.838,16.29
								c-3.084,2.964-11.684,7.221-13.545,8.162c0,0-8.719,18.608-12.158,23.609"/>
							<path fill="none" stroke="#B37D5B" stroke-width="3.1546" stroke-miterlimit="10" d="M255.262,187.739
								c-3.197,2.978-7.429,14.192-13.053,19.359c-5.411,4.976-7.975,8.378-9.868,11.743c1.467,7.225-10.817,13.652-14.942,17.908
								c-3.078,3.168-12.774,7.253-15.006,8.383c0,0-9.826,16.643-12.357,22.397"/>
							<path fill="none" stroke="#B37D5B" stroke-width="3.1546" stroke-miterlimit="10" d="M264.566,201.977
								c-3.378,3.062-7.575,14.296-12.487,19.507c-4.525,4.805-7.722,8.491-9.752,11.826c1.982,7.569-12.075,15.146-16.047,19.528
								c-3.069,3.382-16.188,8.114-18.793,9.432c0,0-8.602,13.849-10.229,20.358"/>
							<path fill="none" stroke="#B37D5B" stroke-width="3.1546" stroke-miterlimit="10" d="M273.871,216.212
								c-3.562,3.15-7.742,14.386-11.924,19.662c-3.66,4.614-7.472,8.598-9.633,11.91c2.492,7.91-13.331,16.641-17.152,21.147
								c-3.051,3.595-18.763,9.26-21.738,10.766c0,0-4.148,16.525-4.86,23.789"/>
							<path fill="none" stroke="#B37D5B" stroke-width="3.1546" stroke-miterlimit="10" d="M283.176,230.453
								c-3.744,3.233-7.938,14.446-11.362,19.808c-2.813,4.406-7.216,8.71-9.513,11.997c3.008,8.251-14.577,18.135-18.26,22.764
								c-3.03,3.814-20.293,9.328-23.637,11.022c0,0-5.049,12.964-4.858,20.984"/>
							<path fill="none" stroke="#B37D5B" stroke-width="3.1546" stroke-miterlimit="10" d="M292.479,244.687
								c-3.926,3.324-8.18,14.497-10.796,19.959c-2.005,4.19-6.963,8.82-9.394,12.085c3.521,8.592-15.823,19.632-19.365,24.382
								c-3.002,4.033-26.762,11.731-32.009,21.714c0,0-9.253-4.724-8.154,4.049"/>
							<path fill="none" stroke="#B37D5B" stroke-width="3.1546" stroke-miterlimit="10" d="M301.781,258.927
								c-4.105,3.405-8.496,14.545-10.229,20.107c-1.239,3.981-6.712,8.932-9.274,12.168c4.033,8.935-17.062,21.133-20.471,26.001
								c-2.976,4.254-24.911,9.706-29.001,11.775c0,0-8.655,4.522-6.646,14.052"/>
						</g>
					</g>
				</g>
			</g>
			<g>
				<g>
					<defs>
						<path id="SVGID_85_" d="M145.3,143.094l67.04-10.31c7.537,0.053,11.908,8.371,13.681,11.578
							c5.753,10.417,13.937,31.479,26.24,55.012c7.033,13.445,7.033,13.445,13.828,27.624c7.051,14.707,10.173,31.506,15.849,46.841
							c2.01,5.435,11.863,20.628,5.076,29.338l-66.08,16.548c-18.17-31.064-26.47-47.326-38.756-72.571
							c-8.408-17.281-13.396-31.646-22.891-48.343c-5.117-8.995-12.049-23.025-13.016-31.343
							C144.92,160.269,141.656,143.656,145.3,143.094z"/>
					</defs>
					<clipPath id="SVGID_86_">
						<use xlink:href="#SVGID_85_"  overflow="visible"/>
					</clipPath>
				</g>
				<g>
					<defs>
						<path id="SVGID_87_" d="M146.272,167.469c-1.352-7.199-4.615-23.813-0.972-24.374c7.481-1.149,11.909,8.373,13.681,11.578
							c5.752,10.418,13.936,31.479,26.24,55.013c7.033,13.444,7.033,13.444,13.829,27.625c7.051,14.705,10.175,31.505,15.849,46.84
							c2.009,5.434,12.822,26.863,6.035,35.575c-18.17-31.064-26.47-47.326-38.756-72.571
							c-8.408-17.281-13.396-31.646-22.891-48.343C154.17,189.816,147.239,175.786,146.272,167.469z"/>
					</defs>
					<clipPath id="SVGID_88_">
						<use xlink:href="#SVGID_87_"  overflow="visible"/>
					</clipPath>
					<g clip-path="url(#SVGID_88_)">
						<defs>
							<path id="SVGID_89_" d="M145.3,143.094l67.04-10.31c7.537,0.053,11.908,8.371,13.681,11.578
								c5.753,10.417,13.937,31.479,26.24,55.012c7.033,13.445,7.033,13.445,13.828,27.624
								c7.051,14.707,10.173,31.506,15.849,46.841c2.01,5.435,11.863,20.628,5.076,29.338l-66.08,16.548
								c-18.17-31.064-26.47-47.326-38.756-72.571c-8.408-17.281-13.396-31.646-22.891-48.343
								c-5.117-8.995-12.049-23.025-13.016-31.343C144.92,160.269,141.656,143.656,145.3,143.094z"/>
						</defs>
						<clipPath id="SVGID_90_">
							<use xlink:href="#SVGID_89_"  overflow="visible"/>
						</clipPath>
					</g>
				</g>
			</g>
		</g>
		<g>
			<g>
				<g>
					<defs>
						<path id="SVGID_91_" d="M145.3,143.094l67.04-10.31c7.537,0.053,11.908,8.371,13.681,11.578
							c5.753,10.417,13.937,31.479,26.24,55.012c7.033,13.445,7.033,13.445,13.828,27.624c7.051,14.707,10.173,31.506,15.849,46.841
							c2.01,5.435,11.863,20.628,5.076,29.338l-66.08,16.548c-18.17-31.064-26.47-47.326-38.756-72.571
							c-8.408-17.281-13.396-31.646-22.891-48.343c-5.117-8.995-12.049-23.025-13.016-31.343
							C144.92,160.269,141.656,143.656,145.3,143.094z"/>
					</defs>
					<clipPath id="SVGID_92_">
						<use xlink:href="#SVGID_91_"  overflow="visible"/>
					</clipPath>
				</g>
				<g>
					<defs>
						<path id="SVGID_93_" d="M146.272,167.469c-1.352-7.199-4.615-23.813-0.972-24.374c7.481-1.149,11.909,8.373,13.681,11.578
							c5.752,10.418,13.936,31.479,26.24,55.013c7.033,13.444,7.033,13.444,13.829,27.625c7.051,14.705,10.175,31.505,15.849,46.84
							c2.009,5.434,12.822,26.863,6.035,35.575c-18.17-31.064-26.47-47.326-38.756-72.571
							c-8.408-17.281-13.396-31.646-22.891-48.343C154.17,189.816,147.239,175.786,146.272,167.469z"/>
					</defs>
					<clipPath id="SVGID_94_">
						<use xlink:href="#SVGID_93_"  overflow="visible"/>
					</clipPath>
					<g clip-path="url(#SVGID_94_)">
						<defs>
							<path id="SVGID_95_" d="M145.3,143.094l67.04-10.31c7.537,0.053,11.908,8.371,13.681,11.578
								c5.753,10.417,13.937,31.479,26.24,55.012c7.033,13.445,7.033,13.445,13.828,27.624
								c7.051,14.707,10.173,31.506,15.849,46.841c2.01,5.435,11.863,20.628,5.076,29.338l-66.08,16.548
								c-18.17-31.064-26.47-47.326-38.756-72.571c-8.408-17.281-13.396-31.646-22.891-48.343
								c-5.117-8.995-12.049-23.025-13.016-31.343C144.92,160.269,141.656,143.656,145.3,143.094z"/>
						</defs>
						<clipPath id="SVGID_96_">
							<use xlink:href="#SVGID_95_"  overflow="visible"/>
						</clipPath>
					</g>
				</g>
			</g>
			<g>
				<g>
					<defs>
						<path id="SVGID_97_" d="M145.3,143.094l67.04-10.31c7.537,0.053,11.908,8.371,13.681,11.578
							c5.753,10.417,13.937,31.479,26.24,55.012c7.033,13.445,7.033,13.445,13.828,27.624c7.051,14.707,10.173,31.506,15.849,46.841
							c2.01,5.435,11.863,20.628,5.076,29.338l-66.08,16.548c-18.17-31.064-26.47-47.326-38.756-72.571
							c-8.408-17.281-13.396-31.646-22.891-48.343c-5.117-8.995-12.049-23.025-13.016-31.343
							C144.92,160.269,141.656,143.656,145.3,143.094z"/>
					</defs>
					<clipPath id="SVGID_98_">
						<use xlink:href="#SVGID_97_"  overflow="visible"/>
					</clipPath>
				</g>
				<g>
					<defs>
						<path id="SVGID_99_" d="M146.272,167.469c-1.352-7.199-4.615-23.813-0.972-24.374c7.481-1.149,11.909,8.373,13.681,11.578
							c5.752,10.418,13.936,31.479,26.24,55.013c7.033,13.444,7.033,13.444,13.829,27.625c7.051,14.705,10.175,31.505,15.849,46.84
							c2.009,5.434,12.822,26.863,6.035,35.575c-18.17-31.064-26.47-47.326-38.756-72.571
							c-8.408-17.281-13.396-31.646-22.891-48.343C154.17,189.816,147.239,175.786,146.272,167.469z"/>
					</defs>
					<clipPath id="SVGID_100_">
						<use xlink:href="#SVGID_99_"  overflow="visible"/>
					</clipPath>
					<g clip-path="url(#SVGID_100_)">
						<defs>
							<path id="SVGID_101_" d="M145.3,143.094l67.04-10.31c7.537,0.053,11.908,8.371,13.681,11.578
								c5.753,10.417,13.937,31.479,26.24,55.012c7.033,13.445,7.033,13.445,13.828,27.624
								c7.051,14.707,10.173,31.506,15.849,46.841c2.01,5.435,11.863,20.628,5.076,29.338l-66.08,16.548
								c-18.17-31.064-26.47-47.326-38.756-72.571c-8.408-17.281-13.396-31.646-22.891-48.343
								c-5.117-8.995-12.049-23.025-13.016-31.343C144.92,160.269,141.656,143.656,145.3,143.094z"/>
						</defs>
						<clipPath id="SVGID_102_">
							<use xlink:href="#SVGID_101_"  overflow="visible"/>
						</clipPath>
					</g>
				</g>
			</g>
			<g>
				<g>
					<defs>
						<path id="SVGID_103_" d="M145.3,143.094l67.04-10.31c7.537,0.053,11.908,8.371,13.681,11.578
							c5.753,10.417,13.937,31.479,26.24,55.012c7.033,13.445,7.033,13.445,13.828,27.624c7.051,14.707,10.173,31.506,15.849,46.841
							c2.01,5.435,11.863,20.628,5.076,29.338l-66.08,16.548c-18.17-31.064-26.47-47.326-38.756-72.571
							c-8.408-17.281-13.396-31.646-22.891-48.343c-5.117-8.995-12.049-23.025-13.016-31.343
							C144.92,160.269,141.656,143.656,145.3,143.094z"/>
					</defs>
					<clipPath id="SVGID_104_">
						<use xlink:href="#SVGID_103_"  overflow="visible"/>
					</clipPath>
				</g>
				<g>
					<defs>
						<path id="SVGID_105_" d="M146.272,167.469c-1.352-7.199-4.615-23.813-0.972-24.374c7.481-1.149,11.909,8.373,13.681,11.578
							c5.752,10.418,13.936,31.479,26.24,55.013c7.033,13.444,7.033,13.444,13.829,27.625c7.051,14.705,10.175,31.505,15.849,46.84
							c2.009,5.434,12.822,26.863,6.035,35.575c-18.17-31.064-26.47-47.326-38.756-72.571
							c-8.408-17.281-13.396-31.646-22.891-48.343C154.17,189.816,147.239,175.786,146.272,167.469z"/>
					</defs>
					<clipPath id="SVGID_106_">
						<use xlink:href="#SVGID_105_"  overflow="visible"/>
					</clipPath>
					<g clip-path="url(#SVGID_106_)">
						<defs>
							<path id="SVGID_107_" d="M145.3,143.094l67.04-10.31c7.537,0.053,11.908,8.371,13.681,11.578
								c5.753,10.417,13.937,31.479,26.24,55.012c7.033,13.445,7.033,13.445,13.828,27.624
								c7.051,14.707,10.173,31.506,15.849,46.841c2.01,5.435,11.863,20.628,5.076,29.338l-66.08,16.548
								c-18.17-31.064-26.47-47.326-38.756-72.571c-8.408-17.281-13.396-31.646-22.891-48.343
								c-5.117-8.995-12.049-23.025-13.016-31.343C144.92,160.269,141.656,143.656,145.3,143.094z"/>
						</defs>
						<clipPath id="SVGID_108_">
							<use xlink:href="#SVGID_107_"  overflow="visible"/>
						</clipPath>
					</g>
				</g>
			</g>
		</g>
	</g>
</g>
</svg>
