<?xml version="1.0" encoding="utf-8"?>
<!-- Generator: Adobe Illustrator 16.0.0, SVG Export Plug-In . SVG Version: 6.00 Build 0)  -->
<!DOCTYPE svg PUBLIC "-//W3C//DTD SVG 1.1//EN" "http://www.w3.org/Graphics/SVG/1.1/DTD/svg11.dtd">
<svg version="1.1" id="Ebene_1" xmlns="http://www.w3.org/2000/svg" xmlns:xlink="http://www.w3.org/1999/xlink" x="0px" y="0px"
	 width="450px" height="450px" viewBox="0 0 450 450" enable-background="new 0 0 450 450" xml:space="preserve">
<g>
	<path fill="#8F5949" d="M304.625,323.713l-2.461,3.898l-80.045,20.138c0,0-39.541-66.302-51.264-94.82
		c-11.723-28.52-15.578-34.515-22.616-48.479c-7.04-13.965-12.651-23.806-15.239-30.89c-4.699-12.88-2.887-40.06-2.887-40.06
		L304.625,323.713z"/>
	<path fill="#DA6812" d="M213.082,114.831c9.241,0.064,14.6,10.263,16.771,14.193c7.054,12.771,17.084,38.589,32.168,67.438
		c8.621,16.483,8.621,16.483,16.952,33.864c8.643,18.029,12.471,38.623,19.427,57.422c2.466,6.662,14.545,25.287,6.225,35.965
		l-81.006,20.285L130.901,127.47L213.082,114.831z"/>
	<path fill="#C15C18" d="M292.959,271.084c1.681,5.633,3.43,11.224,5.441,16.664c2.466,6.662,14.545,25.287,6.225,35.965
		l-81.006,20.285l-45.086-105.287L292.959,271.084z"/>
	<path fill="#DE935B" d="M132.092,157.349c-1.658-8.826-5.658-29.191-1.191-29.879c9.17-1.41,14.6,10.264,16.77,14.193
		c7.053,12.771,17.084,38.59,32.168,67.438c8.621,16.481,8.621,16.481,16.953,33.864c8.643,18.028,12.473,38.621,19.43,57.421
		c2.462,6.661,15.719,32.932,7.398,43.61c-22.274-38.081-32.449-58.016-47.51-88.963c-10.309-21.185-16.424-38.795-28.063-59.263
		C141.774,184.744,133.277,167.545,132.092,157.349z"/>
	<g>
		<defs>
			<path id="SVGID_1_" d="M130.901,127.47l82.182-12.64c9.241,0.064,14.6,10.263,16.771,14.193
				c7.054,12.771,17.084,38.589,32.168,67.438c8.621,16.483,8.621,16.483,16.952,33.864c8.643,18.029,12.471,38.623,19.427,57.422
				c2.466,6.662,14.545,25.287,6.225,35.965l-81.006,20.285c-22.274-38.081-32.449-58.016-47.51-88.963
				c-10.309-21.185-16.424-38.795-28.063-59.263c-6.273-11.028-14.771-28.228-15.955-38.423
				C130.434,148.523,126.434,128.158,130.901,127.47z"/>
		</defs>
		<clipPath id="SVGID_2_">
			<use xlink:href="#SVGID_1_"  overflow="visible"/>
		</clipPath>
		<g clip-path="url(#SVGID_2_)">
			<path fill="none" stroke="#E1B492" stroke-width="3.8671" stroke-miterlimit="10" d="M197.268,77.48
				c-2.582,3.014-8.096,16.29-20.155,22.628c-13.28,6.976-11.626,9.457-12.97,13.769c-1.981,6.347-3.867,5.941-10.193,10.047
				c-3.766,2.443-9.906,10.972-9.906,10.972s-1.668,32.551-11.441,34.052"/>
			<path fill="none" stroke="#E1B492" stroke-width="3.8671" stroke-miterlimit="10" d="M208.675,94.931
				c-2.806,3.123-8.267,16.502-19.466,22.814c-12.168,6.859-11.313,9.592-12.825,13.871c-1.351,6.765-5.444,7.716-11.546,12.033
				c-3.771,2.668-11.159,8.685-11.617,8.915c0,0-3.102,32.466-11.764,34.895"/>
			<path fill="none" stroke="#E1B492" stroke-width="3.8671" stroke-miterlimit="10" d="M220.08,112.385
				c-3.029,3.228-8.438,16.7-18.771,22.995c-11.057,6.734-11.008,9.729-12.681,13.979c-0.719,7.183-7.019,9.5-12.899,14.018
				c-3.779,2.9-10.834,10.383-11.749,10.846c0,0-6.112,28.392-13.667,31.75"/>
			<path fill="none" stroke="#E1B492" stroke-width="3.8671" stroke-miterlimit="10" d="M231.485,129.84
				c-3.252,3.332-8.605,16.894-18.078,23.179c-9.949,6.6-10.699,9.863-12.534,14.083c-0.091,7.601-8.587,11.297-14.257,16
				c-3.779,3.138-12.254,10.238-13.623,10.93c0,0-7.384,26.171-13.82,30.449"/>
			<path fill="none" stroke="#E1B492" stroke-width="3.8671" stroke-miterlimit="10" d="M242.89,147.293
				c-3.475,3.437-8.771,17.078-17.387,23.365c-8.838,6.448-10.39,9.996-12.388,14.185c0.541,8.021-10.154,13.104-15.611,17.986
				c-3.783,3.381-13.762,9.464-15.586,10.387c0,0-8.565,24.571-13.891,29.777"/>
			<path fill="none" stroke="#E1B492" stroke-width="3.8671" stroke-miterlimit="10" d="M254.295,164.746
				c-3.697,3.544-8.938,17.245-16.694,23.548c-7.729,6.284-10.081,10.135-12.243,14.291c1.166,8.439-11.711,14.916-16.965,19.97
				c-3.781,3.634-14.322,8.853-16.603,10.006c0,0-10.69,22.812-14.907,28.942"/>
			<path fill="none" stroke="#E1B492" stroke-width="3.8671" stroke-miterlimit="10" d="M265.701,182.199
				c-3.92,3.649-9.107,17.398-16.001,23.732c-6.635,6.099-9.776,10.271-12.099,14.395c1.799,8.857-13.26,16.737-18.318,21.953
				c-3.771,3.885-15.658,8.893-18.395,10.278c0,0-12.045,20.401-15.148,27.456"/>
			<path fill="none" stroke="#E1B492" stroke-width="3.8671" stroke-miterlimit="10" d="M277.106,199.653
				c-4.141,3.754-9.287,17.524-15.309,23.913c-5.548,5.891-9.465,10.409-11.954,14.497c2.431,9.28-14.804,18.569-19.671,23.94
				c-3.763,4.146-19.845,9.946-23.037,11.562c0,0-10.547,16.977-12.539,24.957"/>
			<path fill="none" stroke="#E1B492" stroke-width="3.8671" stroke-miterlimit="10" d="M288.513,217.103
				c-4.366,3.862-9.491,17.634-14.618,24.103c-4.484,5.657-9.158,10.54-11.807,14.6c3.055,9.698-16.343,20.4-21.027,25.925
				c-3.74,4.407-23,11.353-26.649,13.197c0,0-5.084,20.259-5.958,29.163"/>
			<path fill="none" stroke="#E1B492" stroke-width="3.8671" stroke-miterlimit="10" d="M299.919,234.56
				c-4.589,3.965-9.731,17.71-13.929,24.282c-3.447,5.4-8.845,10.677-11.661,14.708c3.688,10.114-17.87,22.229-22.384,27.905
				c-3.715,4.676-24.876,11.436-28.977,13.512c0,0-6.189,15.892-5.955,25.724"/>
			<path fill="none" stroke="#E1B492" stroke-width="3.8671" stroke-miterlimit="10" d="M311.323,252.011
				c-4.813,4.074-10.026,17.771-13.234,24.467c-2.457,5.137-8.536,10.812-11.516,14.814c4.317,10.532-19.397,24.065-23.738,29.889
				c-3.683,4.944-32.808,14.383-39.24,26.619c0,0-11.343-5.791-9.996,4.964"/>
			<path fill="none" stroke="#E1B492" stroke-width="3.8671" stroke-miterlimit="10" d="M322.728,269.467
				c-5.033,4.175-10.415,17.83-12.54,24.65c-1.52,4.881-8.229,10.948-11.37,14.915c4.944,10.954-20.915,25.907-25.093,31.875
				c-3.648,5.215-30.539,11.898-35.553,14.436c0,0-10.609,5.544-8.146,17.226"/>
		</g>
	</g>
	<g>
		<defs>
			<path id="SVGID_3_" d="M132.092,157.349c-1.658-8.826-5.658-29.191-1.191-29.879c9.17-1.41,14.6,10.264,16.77,14.193
				c7.053,12.771,17.084,38.59,32.168,67.438c8.621,16.481,8.621,16.481,16.953,33.864c8.643,18.028,12.473,38.621,19.43,57.421
				c2.462,6.661,15.719,32.932,7.398,43.61c-22.274-38.081-32.449-58.016-47.51-88.963c-10.309-21.185-16.424-38.795-28.063-59.263
				C141.774,184.744,133.277,167.545,132.092,157.349z"/>
		</defs>
		<clipPath id="SVGID_4_">
			<use xlink:href="#SVGID_3_"  overflow="visible"/>
		</clipPath>
		<g clip-path="url(#SVGID_4_)">
			<defs>
				<path id="SVGID_5_" d="M130.901,127.47l82.182-12.64c9.241,0.064,14.6,10.263,16.771,14.193
					c7.054,12.771,17.084,38.589,32.168,67.438c8.621,16.483,8.621,16.483,16.952,33.864c8.643,18.029,12.471,38.623,19.427,57.422
					c2.466,6.662,14.545,25.287,6.225,35.965l-81.006,20.285c-22.274-38.081-32.449-58.016-47.51-88.963
					c-10.309-21.185-16.424-38.795-28.063-59.263c-6.273-11.028-14.771-28.228-15.955-38.423
					C130.434,148.523,126.434,128.158,130.901,127.47z"/>
			</defs>
			<clipPath id="SVGID_6_">
				<use xlink:href="#SVGID_5_"  overflow="visible"/>
			</clipPath>
			<g clip-path="url(#SVGID_6_)">
				<path fill="none" stroke="#B47D5B" stroke-width="3.8671" stroke-miterlimit="10" d="M197.268,77.48
					c-2.582,3.014-8.096,16.29-20.155,22.628c-13.28,6.976-11.626,9.457-12.97,13.769c-1.981,6.347-3.867,5.941-10.193,10.047
					c-3.766,2.443-9.906,10.972-9.906,10.972s-1.668,32.551-11.441,34.052"/>
				<path fill="none" stroke="#B47D5B" stroke-width="3.8671" stroke-miterlimit="10" d="M208.675,94.931
					c-2.806,3.123-8.267,16.502-19.466,22.814c-12.168,6.859-11.313,9.592-12.825,13.871c-1.351,6.765-5.444,7.716-11.546,12.033
					c-3.771,2.668-11.159,8.685-11.617,8.915c0,0-3.102,32.466-11.764,34.895"/>
				<path fill="none" stroke="#B47D5B" stroke-width="3.8671" stroke-miterlimit="10" d="M220.08,112.385
					c-3.029,3.228-8.438,16.7-18.771,22.995c-11.057,6.734-11.008,9.729-12.681,13.979c-0.719,7.183-7.019,9.5-12.899,14.018
					c-3.779,2.9-10.834,10.383-11.749,10.846c0,0-6.112,28.392-13.667,31.75"/>
				<path fill="none" stroke="#B47D5B" stroke-width="3.8671" stroke-miterlimit="10" d="M231.485,129.84
					c-3.252,3.332-8.605,16.894-18.078,23.179c-9.949,6.6-10.699,9.863-12.534,14.083c-0.091,7.601-8.587,11.297-14.257,16
					c-3.779,3.138-12.254,10.238-13.623,10.93c0,0-7.384,26.171-13.82,30.449"/>
				<path fill="none" stroke="#B47D5B" stroke-width="3.8671" stroke-miterlimit="10" d="M242.89,147.293
					c-3.475,3.437-8.771,17.078-17.387,23.365c-8.838,6.448-10.39,9.996-12.388,14.185c0.541,8.021-10.154,13.104-15.611,17.986
					c-3.783,3.381-13.762,9.464-15.586,10.387c0,0-8.565,24.571-13.891,29.777"/>
				<path fill="none" stroke="#B47D5B" stroke-width="3.8671" stroke-miterlimit="10" d="M254.295,164.746
					c-3.697,3.544-8.938,17.245-16.694,23.548c-7.729,6.284-10.081,10.135-12.243,14.291c1.166,8.439-11.711,14.916-16.965,19.97
					c-3.781,3.634-14.322,8.853-16.603,10.006c0,0-10.69,22.812-14.907,28.942"/>
				<path fill="none" stroke="#B47D5B" stroke-width="3.8671" stroke-miterlimit="10" d="M265.701,182.199
					c-3.92,3.649-9.107,17.398-16.001,23.732c-6.635,6.099-9.776,10.271-12.099,14.395c1.799,8.857-13.26,16.737-18.318,21.953
					c-3.771,3.885-15.658,8.893-18.395,10.278c0,0-12.045,20.401-15.148,27.456"/>
				<path fill="none" stroke="#B47D5B" stroke-width="3.8671" stroke-miterlimit="10" d="M277.106,199.653
					c-4.141,3.754-9.287,17.524-15.309,23.913c-5.548,5.891-9.465,10.409-11.954,14.497c2.431,9.28-14.804,18.569-19.671,23.94
					c-3.763,4.146-19.845,9.946-23.037,11.562c0,0-10.547,16.977-12.539,24.957"/>
				<path fill="none" stroke="#B47D5B" stroke-width="3.8671" stroke-miterlimit="10" d="M288.513,217.103
					c-4.366,3.862-9.491,17.634-14.618,24.103c-4.484,5.657-9.158,10.54-11.807,14.6c3.055,9.698-16.343,20.4-21.027,25.925
					c-3.74,4.407-23,11.353-26.649,13.197c0,0-5.084,20.259-5.958,29.163"/>
				<path fill="none" stroke="#B47D5B" stroke-width="3.8671" stroke-miterlimit="10" d="M299.919,234.56
					c-4.589,3.965-9.731,17.71-13.929,24.282c-3.447,5.4-8.845,10.677-11.661,14.708c3.688,10.114-17.87,22.229-22.384,27.905
					c-3.715,4.676-24.876,11.436-28.977,13.512c0,0-6.189,15.892-5.955,25.724"/>
				<path fill="none" stroke="#B47D5B" stroke-width="3.8671" stroke-miterlimit="10" d="M311.323,252.011
					c-4.813,4.074-10.026,17.771-13.234,24.467c-2.457,5.137-8.536,10.812-11.516,14.814c4.317,10.532-19.397,24.065-23.738,29.889
					c-3.683,4.944-32.808,14.383-39.24,26.619c0,0-11.343-5.791-9.996,4.964"/>
				<path fill="none" stroke="#B47D5B" stroke-width="3.8671" stroke-miterlimit="10" d="M322.728,269.467
					c-5.033,4.175-10.415,17.83-12.54,24.65c-1.52,4.881-8.229,10.948-11.37,14.915c4.944,10.954-20.915,25.907-25.093,31.875
					c-3.648,5.215-30.539,11.898-35.553,14.436c0,0-10.609,5.544-8.146,17.226"/>
			</g>
		</g>
	</g>
</g>
</svg>
