<?xml version="1.0" encoding="utf-8"?>
<!-- Generator: Adobe Illustrator 16.0.3, SVG Export Plug-In . SVG Version: 6.00 Build 0)  -->
<!DOCTYPE svg PUBLIC "-//W3C//DTD SVG 1.1//EN" "http://www.w3.org/Graphics/SVG/1.1/DTD/svg11.dtd">
<svg version="1.1" id="Ebene_1" xmlns="http://www.w3.org/2000/svg" xmlns:xlink="http://www.w3.org/1999/xlink" x="0px" y="0px"
	 width="450px" height="450px" viewBox="0 0 450 450" enable-background="new 0 0 450 450" xml:space="preserve">
<g id="lachs">
	<g>
		<g>
			<g>
				<path fill="#7B7878" d="M249.043,211.016c-4.848,13.685-28.168,22.939-39.122,30.156c-14.742,8.031-28.788,15.76-45.036,20.301
					c-9.674,2.523-54.668,2.172-27.217,17.422c9.44,5.246,34.841,0.84,49.299-2.1c32.014-6.385,62.508-19.438,89.996-36.289
					c13.348-7.428,33.046-18.434,42.585-30.839c6.563-7.803,18.629-22.283,12.017-31.84"/>
			</g>
			<g>
				<path fill="#C68980" d="M331.165,178.825c-7.918-10.649-12.739-21.813-25.637-28.656c-16.19-8.729-35.042-6.375-52.896-3.626
					c-16.458,2.145-31.709,7.085-47.358,13.021c-18.039,6.143-28.297,13.06-41.722,27.97
					c-17.102,19.812-65.999,39.485-39.146,77.241c12.763-3.032,11.616-10.698,17.968-20.896
					c6.452-11.894,18.309-17.019,30.865-22.447c23.717-10.254,50.277-4.349,75.803-10.416"/>
			</g>
			<g>
				<path fill="#E9936B" d="M330.303,170.519c-7.917-10.652-12.74-21.813-25.635-28.657c-16.191-8.729-35.044-6.375-52.896-3.626
					c-16.459,2.146-31.71,7.085-47.359,13.022c-18.039,6.142-28.295,13.059-41.721,27.969
					c-17.102,19.812-57.219,49.574-40.558,80.455c12.763-3.031,13.028-13.912,19.38-24.108
					c6.451-11.893,18.309-17.018,30.865-22.447c23.717-10.254,50.277-4.347,75.804-10.416
					c-4.849,13.685-28.168,22.938-39.123,30.156c-14.741,8.028-28.787,15.76-45.037,20.301c-9.674,2.522-46.376,7.627-27.677,20.24
					c12.797,8.541,35.233,2.981,49.692,0.045c32.013-6.386,64.096-20.256,91.585-37.106c13.347-7.431,30.089-14.665,39.628-27.068
					c6.564-7.805,20.064-30.2,13.45-39.757"/>
			</g>
			<g>
				<path fill="#DDC3BC" d="M241.792,201.331c0.661-11.876,13.235-11.516,21.319-10.047c6.996,2.773,13.066-2.333,19.344-5.049
					c-6.768,5.411-39.801,36.245-40.965,14.397"/>
			</g>
			<g opacity="0.5">
				<path fill="#7B7878" d="M241.918,202.795c0.66-11.875,13.234-11.518,21.321-10.045c6.993,2.772,13.063-2.334,19.343-5.051
					c-6.77,5.412-39.8,36.248-40.966,14.4"/>
			</g>
			<g>
				<g>
					<path fill="#DDC3BC" d="M281.475,190.167c0.281,6.076,0.305,12.376-1.578,18.225c-1.543,4.793-5.226,8.052-10.508,5.395
						c-3.74-1.881-6.496-6.179-7.263-10.191c-0.31-1.617-3.854-0.709-3.539,0.949c1.71,8.95,12.054,16.708,20.431,10.668
						c7.092-5.113,6.393-17.722,6.039-25.326C284.973,188.042,281.402,188.618,281.475,190.167L281.475,190.167z"/>
				</g>
			</g>
			<g>
				<g>
					<path fill="#DDC3BC" d="M253.781,205.97c-2.854,8.388,2.464,15.957,9.859,19.706c6.808,3.451,13.879,1.957,19.034-3.417
						c8.552-8.913,15.58-31.214-0.991-35.624c-0.078,0.753-0.154,1.505-0.231,2.258c0.465-0.201,0.931-0.402,1.396-0.604
						c-0.717-0.009-1.433-0.019-2.148-0.027c13.917,10.047,21.852,31.969,4.086,42.623c-15.881,9.525-40.254-4.438-36.09-23.613
						c-1.188,0.202-2.377,0.404-3.563,0.606c5.593,12.329-8.63,11.241-16.231,14.189c-2.264,0.878-0.26,2.822,1.574,2.111
						c4.834-1.875,10.129-1.618,14.832-4.121c5.34-2.843,5.678-8.03,3.364-13.129c-0.677-1.491-3.244-0.862-3.563,0.606
						c-5.014,23.093,25.531,36.039,42.845,24.503c9.342-6.225,12.82-16.169,9.657-26.902c-1.564-5.312-4.797-10.097-8.549-14.096
						c-2.742-2.922-5.196-5.982-9.182-4.26c-0.908,0.393-1.563,1.903-0.232,2.258c13.183,3.508,8.319,19.642,3.215,28.029
						c-3.635,5.973-8.687,9.404-15.781,6.835c-6.906-2.499-12.406-10.173-9.91-17.516
						C257.832,204.438,254.293,204.465,253.781,205.97L253.781,205.97z"/>
				</g>
			</g>
			<g>
				<g>
					<path fill="#DDC3BC" d="M247.863,224.019c-5.908,7.417-13.236,7.256-21.74,5.391c-2.426-0.531-6.583-2.926-9.05-1.549
						c-0.479,0.268-1.246,0.875-0.979,1.543c0.192,0.479,0.319,0.639,0.716,1.025c1.165,1.139,4.508-0.33,3.236-1.572
						c-0.138-0.135-0.275-0.269-0.413-0.402c-0.326,0.514-0.652,1.027-0.979,1.541c-1.304,0.729,0.251,0.373,1.244,0.656
						c1.284,0.365,2.556,0.768,3.847,1.111c3.041,0.809,6.274,1.643,9.427,1.719c7.02,0.17,13.295-2.898,17.663-8.383
						C252.243,223.331,248.889,222.733,247.863,224.019L247.863,224.019z"/>
				</g>
			</g>
			<g>
				<g>
					<path fill="#DDC3BC" d="M252.279,226.094c-1.766,4.359,0.145,8.93-0.631,13.438c-1.438,8.375-11.847,10.063-18.676,9.61
						c-10.662-0.709-22.104-4.928-31.124-10.621c-0.981-0.621-4.11,0.813-3.303,1.322c11.087,6.998,25.574,12.025,38.797,11.086
						c6.03-0.43,11.359-2.889,15.495-7.303c4.913-5.242,0.585-12.168,2.963-18.04C256.197,224.613,252.712,225.026,252.279,226.094
						L252.279,226.094z"/>
				</g>
			</g>
			<g>
				<g>
					<path fill="#DDC3BC" d="M256.08,231.293c0.636,3.518,2.494,6.832,2.303,10.465c-0.201,3.838-3.771,6.09-6.742,7.732
						c-5.396,2.982-11.755,4.752-17.785,5.912c-15.945,3.065-31.076-2.974-44.492-10.906c-0.908-0.537-4.197,0.818-2.842,1.621
						c15.009,8.877,31.309,14.313,48.91,10.646c6.995-1.457,14.156-3.8,20.297-7.494c1.959-1.179,4.312-2.888,5.223-5.078
						c2.1-5.045-0.426-8.834-1.331-13.849C259.422,229.252,255.864,230.1,256.08,231.293L256.08,231.293z"/>
				</g>
			</g>
			<g>
				<g>
					<path fill="#DDC3BC" d="M175.108,248.908c2.725,6.826,11.816,10.354,18.104,12.85c6.947,2.756,15.698,5.564,23.245,3.992
						c2.225-0.463,1.555-2.811-0.631-2.355c-6.589,1.373-14.5-1.68-20.558-3.973c-5.458-2.066-14.249-5.516-16.622-11.463
						C178.026,246.402,174.513,247.414,175.108,248.908L175.108,248.908z"/>
				</g>
			</g>
			<g>
				<g>
					<path fill="#DDC3BC" d="M161.441,249.852c0.863,7.431,8.744,12.316,14.664,15.592c6.239,3.451,13.627,6.636,20.822,7.203
						c1.777,0.142,3.599-2.461,1.205-2.649c-6.697-0.529-13.446-3.537-19.312-6.642c-5.582-2.955-13.04-7.563-13.841-14.453
						C164.784,247.215,161.237,248.098,161.441,249.852L161.441,249.852z"/>
				</g>
			</g>
			<g>
				<g>
					<path fill="#DDC3BC" d="M146.886,254.486c1.953,13.233,19.779,20.686,31.43,22.424c1.045,0.156,4.162-1.535,2.191-1.83
						c-11.21-1.672-28.21-8.865-30.082-21.543C150.261,252.428,146.702,253.24,146.886,254.486L146.886,254.486z"/>
				</g>
			</g>
			<g>
				<g>
					<path fill="#DDC3BC" d="M133.032,258.818c2.38,10.779,18.071,17.838,27.826,19.817c0.879,0.181,3.983-1.225,2.887-1.446
						c-9.444-1.918-24.857-8.828-27.174-19.32C136.378,256.994,132.824,257.875,133.032,258.818L133.032,258.818z"/>
				</g>
			</g>
			<g>
				<g>
					<path fill="#DDC3BC" d="M291.393,196.156c0.957,6.718,5.765,12.515,12.243,14.557c3.725,1.174,9.629-0.271,11.358-4.066
						c1.67-3.664-1.982-8.273-4.03-10.961c-3.319-4.354-7.434-7.991-11.114-12.019c-1.009,0.547-2.018,1.095-3.025,1.642
						c5.792,3.888,10.962,9.59,17.958,11.236c6.047,1.423,10.619-2.988,13.448-7.752c2.359-3.975,4.781-10.029,0.011-13.292
						c-4.708-3.22-10.956-3.602-16.331-5.067c-1.271-0.347-4.188,1.53-2.121,2.094c6.218,1.696,19.609,2.01,17.27,11.442
						c-0.726,2.925-2.789,6.031-4.692,8.286c-3.005,3.559-7.016,2.063-10.361,0.195c-4.447-2.482-8.177-6.146-12.396-8.977
						c-0.855-0.574-4.088,0.48-3.026,1.642c4.561,4.99,9.684,9.454,13.35,15.201c2.585,4.052,2.673,9.545-4.173,8.302
						c-5.883-1.069-10.057-8.016-10.826-13.412C294.736,193.843,291.184,194.69,291.393,196.156L291.393,196.156z"/>
				</g>
			</g>
			<g>
				<g>
					<path fill="#DDC3BC" d="M283.184,186.638c4.012,4.923,8.352,11.143,14.824,12.815c2.426,0.627,5.986,1.738,8.131-0.336
						c2.821-2.729-11.793-13.779-13.742-15.412c-0.35,0.347-0.697,0.693-1.047,1.039c4.578-1.817,9.268-2.663,13.601-5.088
						c1.383-0.773,2.518-2.619,3.484-3.83c2.134-2.672,4.18-5.041,7.321-6.597c2.104-1.042-1.195-0.94-2.053-0.516
						c-3.57,1.768-6.021,4.248-8.48,7.35c-3.938,4.967-9.568,5.621-15.111,7.823c-0.219,0.086-1.555,0.612-1.045,1.039
						c4.488,3.762,9.435,7.506,12.962,12.229c0.41,0.55,1.036,1.419,0.899,2.159c0.386-0.168,0.771-0.335,1.155-0.503
						c-0.714-0.093-1.417-0.239-2.108-0.44c-1.471-0.373-2.738-0.795-4.104-1.516c-4.656-2.462-8.105-7.448-11.357-11.438
						C285.953,184.729,282.607,185.933,283.184,186.638L283.184,186.638z"/>
				</g>
			</g>
			<g>
				<g>
					<path fill="#DDC3BC" d="M308.128,177.425c3.012-2.064,8.864,0.891,11.244,2.778c3.447,2.734,2.851,9.952-2.856,9.256
						c-6.348-0.773-11.205-5.574-16.839-8.065c-0.954-0.421-3.704,1.04-3.336,1.203c7.591,3.354,19.427,13.964,27.294,5.17
						c8.038-8.985-11.841-14.806-18.214-10.438C303.962,178.331,307.51,177.849,308.128,177.425L308.128,177.425z"/>
				</g>
			</g>
			<g>
				<g>
					<path fill="#DDC3BC" d="M281.926,184.272c-0.891-3.565-1.262-7.229-2.58-10.681c-1.177-3.074-3.628-4.633-6.311-6.262
						c-3.592-2.181-8.557-3.177-12.114-0.365c-6.647,5.251-5.206,17.814-4.364,25.21c0.139,1.222,3.694,0.423,3.539-0.949
						c-0.755-6.632-1.173-14.024,1.271-20.362c1.937-5.024,6.05-3.498,9.784-1.23c5.808,3.525,5.744,9.618,7.235,15.589
						C278.704,186.493,282.248,185.561,281.926,184.272L281.926,184.272z"/>
				</g>
			</g>
			<g>
				<g>
					<path fill="#DDC3BC" d="M252.479,190.905c-7.541-9.255-0.105-28.339,11.756-29.997c13.304-1.86,23.504,17.249,17.768,28.032
						c-0.748,1.407,1.734,1.19,2.387,0.908c0.104-0.044,0.205-0.089,0.31-0.134c2.256-0.976,0.209-2.361-1.448-1.644
						c-0.104,0.045-0.207,0.09-0.311,0.135c0.795,0.303,1.59,0.605,2.386,0.908c4.54-10.271,4.108-22.34-3.464-31.069
						c-8.236-9.495-22.563-8.721-33.48-5.324c-10.057,3.128-19.25,10.355-22.218,20.753c-3.469,12.15,5.288,22.875,14.535,29.462
						c1.036,0.738,4.274-0.753,2.791-1.811c-8.289-5.904-15.306-14.385-14.32-25.127c0.906-9.894,9.231-17.047,17.851-20.623
						c10.717-4.447,24.266-4.313,32.287,4.934c6.774,7.811,6.685,19.613,2.696,28.632c-0.63,1.426,1.656,1.225,2.386,0.908
						c0.104-0.044,0.206-0.089,0.311-0.134c-0.482-0.548-0.967-1.096-1.448-1.644c-0.104,0.045-0.207,0.09-0.312,0.135
						c0.795,0.303,1.592,0.605,2.387,0.908c7.266-13.66-5.912-31.228-20.657-30.354c-14.089,0.833-24.468,22.527-15.462,33.582
						C250.047,193.376,253.445,192.094,252.479,190.905L252.479,190.905z"/>
				</g>
			</g>
			<g>
				<g>
					<path fill="#DDC3BC" d="M244.861,200.444c-11.977-8.251-22.915,2.412-35.111,3.66c-1.918,0.196-2.777,2.689-0.354,2.441
						c10.977-1.124,22.163-11.408,32.715-4.137C243.32,203.241,246.477,201.555,244.861,200.444L244.861,200.444z"/>
				</g>
			</g>
			<g>
				<g>
					<path fill="#DDC3BC" d="M235.348,193.443c-4.054-2.443-7.666-6.46-12.784-6.16c-4.213,0.247-7.527,1.397-11.072,3.59
						c-1.654,1.023-18.285,13.094-15.154,15.114c0.899,0.579,3.952-0.849,3.322-1.256c-1.708-1.102,9.604-10.131,10.478-10.787
						c2.259-1.7,4.675-3.5,7.314-4.559c5.857-2.348,10.116,2.625,14.573,5.313C232.945,195.253,235.962,193.815,235.348,193.443
						L235.348,193.443z"/>
				</g>
			</g>
			<g>
				<g>
					<path fill="#DDC3BC" d="M229.88,183.082c-5.328-2.776-11.542-4.839-17.57-3.105c-5.395,1.552-10.061,4.643-14.452,8.063
						c-4.269,3.325-8.21,7.129-11.725,11.239c-1.929,2.256-5.362,6.203-4.364,9.493c0.356,1.174,3.885,0.189,3.539-0.949
						c-1.617-5.332,8.386-13.229,11.603-16.122c2.712-2.439,5.603-4.712,8.681-6.671c7.417-4.72,13.983-4.188,21.457-0.292
						C228.018,185.243,231.288,183.816,229.88,183.082L229.88,183.082z"/>
				</g>
			</g>
			<g>
				<g>
					<path fill="#DDC3BC" d="M225.994,173.861c1.73-14.046-17.761-9.105-24.967-5.361c-8.629,4.483-17.221,10.424-22.989,18.359
						c-5.17,7.112-2.437,16.358-4.229,24.345c-0.22,0.979,3.288,0.407,3.506-0.566c1.235-5.504,0.481-11.342,1.334-16.921
						c1.247-8.168,8.252-13.848,14.552-18.438c5.525-4.025,11.57-7.729,18.382-8.927c6.126-1.078,11.766,1.091,10.905,8.075
						C222.356,175.495,225.878,174.802,225.994,173.861L225.994,173.861z"/>
				</g>
			</g>
			<g>
				<g>
					<path fill="#DDC3BC" d="M232.541,164.665c3.842-4.834-12.583-6.462-14.449-6.679c-8.343-0.971-19.058-2.296-26.946,1.371
						c-11.213,5.213-20.993,18.839-23.869,30.718c-1.227,5.064-2.041,10.253-2.879,15.393c-0.225,1.376-2.197,8.173-0.617,9.114
						c0.955,0.569,4.234-0.835,2.826-1.674c0.055,0.032,1.156-6.851,1.324-7.904c0.66-4.14,1.405-8.268,2.229-12.377
						c2.184-10.909,8.814-21.3,17.24-28.476c7.152-6.091,16.01-5.256,24.827-4.638c1.539,0.107,19.396,2.139,17.029,5.116
						C228.298,165.834,231.854,165.53,232.541,164.665L232.541,164.665z"/>
				</g>
			</g>
			<g>
				<g>
					<path fill="#DDC3BC" d="M167.41,173.421c-3.868,7.546-7.044,15.342-9.416,23.487c-1.169,4.017-2.007,8.121-2.684,12.247
						c-0.479,2.919,0.096,7.971-1.925,10.17c1.119-0.137,2.238-0.273,3.357-0.411c0.013-0.082,0.025-0.165,0.039-0.248
						c0.146-0.931-3.357-0.291-3.498,0.6c-0.013,0.083-0.025,0.166-0.038,0.249c-0.171,1.085,2.963,0.017,3.356-0.411
						c1.183-1.287,1.292-1.894,1.409-3.674c0.35-5.281,1.337-10.502,2.56-15.643c2.232-9.39,5.943-18.397,10.337-26.966
						C171.21,172.233,167.884,172.499,167.41,173.421L167.41,173.421z"/>
				</g>
			</g>
			<g>
				<g>
					<path fill="#DDC3BC" d="M146.873,192.891c-2.305,11.82-3.668,23.819-4.373,35.837c-0.104,1.785,3.488,1.229,3.578-0.299
						c0.704-12.019,2.067-24.018,4.373-35.838C150.782,190.893,147.169,191.375,146.873,192.891L146.873,192.891z"/>
				</g>
			</g>
			<g>
				<g>
					<path fill="#DDC3BC" d="M133.866,207.127c2.45,10.081,1.902,20.898,5.787,30.617c0.663,1.658,4.184,0.664,3.539-0.949
						c-3.884-9.719-3.337-20.535-5.787-30.617C136.988,204.46,133.446,205.399,133.866,207.127L133.866,207.127z"/>
				</g>
			</g>
			<g>
				<g>
					<path fill="#DDC3BC" d="M124.627,220.229c3.028,7.451,3.252,17.849,10.053,23.138c0.753,0.586,3.814-0.818,3.34-1.189
						c-6.654-5.174-6.886-15.596-9.854-22.897C127.834,218.462,124.376,219.612,124.627,220.229L124.627,220.229z"/>
				</g>
			</g>
			<g>
				<g>
					<path fill="#DDC3BC" d="M118.97,230.125c1.3,8.633,6.06,16.158,9.556,24.018c0.595,1.336,4.077,0.26,3.539-0.949
						c-3.496-7.858-8.256-15.385-9.556-24.018C122.308,227.84,118.754,228.689,118.97,230.125L118.97,230.125z"/>
				</g>
			</g>
			<g>
				<g>
					<path fill="#DDC3BC" d="M227.727,159.267c5.491-8.215,15.866-12.311,25.024-14.829c8.985-2.47,18.576-2.975,26.655,2.287
						c13.781,8.975,15.292,28.838,5.408,41.1c1.135-0.083,2.268-0.166,3.4-0.249c1.203-5.813,2.01-11.694,4.01-17.312
						c1.498-4.214,5.76-9.357,10.23-5.093c2.029,1.936,3.443,4.608,5.048,6.884c0.632,0.896,4.062-0.259,3.299-1.34
						c-4.525-6.42-8.522-12.398-16.678-7.46c-7.546,4.57-7.854,17.163-9.437,24.809c-0.291,1.406,2.961,0.295,3.399-0.249
						c11.817-14.663,7.356-37.523-10.394-45.13c-8.762-3.755-19.269-1.683-28.036,0.91c-9.235,2.73-19.675,7.408-25.206,15.682
						C223.597,160.558,227.135,160.152,227.727,159.267L227.727,159.267z"/>
				</g>
			</g>
			<g>
				<g>
					<path fill="#DDC3BC" d="M307.546,176.508c-1.078-4.888-5.169-7.323-9.884-5.239c-4.873,2.155-5.678,7.688-3.518,12.107
						c0.597,1.219,4.046,0.086,3.539-0.949c-1.418-2.901-2.061-7.26,0.979-9.456c2.792-2.017,4.88,2.389,5.343,4.486
						C304.276,178.68,307.826,177.779,307.546,176.508L307.546,176.508z"/>
				</g>
			</g>
			<g>
				<g>
					<path fill="#DDC3BC" d="M311.916,165.83c0.655-6.487-2.319-12.632-8.619-14.964c-6.578-2.436-12.561,2.422-15.221,8.06
						c-0.822,1.744,2.748,1.574,3.354,0.291c2.248-4.766,6.206-8.214,11.459-5.358c4.362,2.371,5.927,7.673,5.457,12.302
						C308.175,167.857,311.769,167.287,311.916,165.83L311.916,165.83z"/>
				</g>
			</g>
			<g>
				<g>
					<path fill="#DDC3BC" d="M221.65,157.909c-3.242-4.303,3.072-12.198,6.103-15.03c1.495-1.397-2.009-1.307-2.828-0.541
						c-3.58,3.346-10.381,11.879-6.565,16.94C219.066,160.217,222.483,159.014,221.65,157.909L221.65,157.909z"/>
				</g>
			</g>
			<g>
				<g>
					<path fill="#DDC3BC" d="M283.548,137.716c2.979,4.671,5.646,9.477,7.906,14.535c0.478,1.066,2.978,0.371,3.412-0.457
						c4.084-7.766,12.493-3.196,18.097-0.047c0.97,0.545,4.244-0.877,2.826-1.674c-7.737-4.349-19.007-8.206-24.208,1.686
						c1.138-0.152,2.274-0.305,3.412-0.457c-2.326-5.204-5.091-10.146-8.152-14.951C286.232,135.398,282.79,136.527,283.548,137.716
						L283.548,137.716z"/>
				</g>
			</g>
			<g>
				<g>
					<path fill="#DDC3BC" d="M310.347,151.843c2.957,2.622,5.046,6.296,6.526,9.911c0.717,1.75,1.241,3.66,1.224,5.562
						c-0.029,3.365-2.839,3.302-5.488,2.813c-0.11,0.631-0.221,1.261-0.33,1.892c4.904-2.616,11.865-2.813,16.298,0.919
						c1.051,0.885,4.367-0.524,3.27-1.449c-5.675-4.778-14.708-4.529-21.027-1.159c-0.683,0.364-1.77,1.627-0.33,1.892
						c4.738,0.873,11.53,0.192,11.164-6.156c-0.323-5.575-3.885-11.993-8.034-15.673
						C312.588,149.482,309.257,150.877,310.347,151.843L310.347,151.843z"/>
				</g>
			</g>
			<g>
				<g>
					<path fill="#7B7878" d="M130.633,262.746c-3.133-1.926-4.236-6.43-5.205-9.729c-1.277-4.349-2.051-8.927-2.322-13.447
						c-0.302-5.027,2.479-10.459,4.591-14.875c3.202-6.698,7.564-12.832,12.164-18.628c8.028-10.117,17.744-18.479,26.558-27.85
						c4.08-4.338,8.137-8.731,12.832-12.42c5.634-4.427,12.325-6.746,18.816-9.586c6.615-2.895,13.157-5.936,19.89-8.553
						c7.051-2.741,14.048-3.94,21.439-5.26c6.472-1.155,12.848-2.764,19.328-3.869c7.77-1.326,15.965-1.215,23.816-1.136
						c13.561,0.136,25.561,10.435,33.622,20.453c8.105,10.075,11.767,22.473,7.902,35.061c-2.52,8.203-8.521,13.586-14.757,19.051
						c-7.164,6.276-14.877,11.862-22.953,16.903c-16.578,10.352-34.584,19.373-52.34,27.527
						c-18.017,8.271-37.312,13.864-56.739,17.709c-11.715,2.315-36.147,6.008-42.818-7.705c-1.365-2.808-11.589,0.848-10.617,2.846
						c4.288,8.813,15.078,10.576,23.91,11.215c12.854,0.934,25.629-1.439,38.087-4.367c14.315-3.367,28.496-7.326,42.175-12.756
						c13.271-5.27,26.006-11.785,38.604-18.479c12.833-6.818,25.76-13.486,37.652-21.882c9.814-6.927,21.102-15.028,27.418-25.423
						c13.8-22.702-4.754-48.872-24.826-59.893c-10.314-5.663-21.545-5.119-32.943-4.623c-12.814,0.558-24.954,4.021-37.564,5.915
						c-12.815,1.925-24.643,6.753-36.427,11.975c-11.101,4.919-22.39,8.913-31.855,16.72c-8.686,7.163-16.325,16.123-24.318,24.052
						c-8.475,8.406-16.249,17.585-22.615,27.698c-5.025,7.984-9.462,17.005-8.319,26.605c0.721,6.055,2.042,16.896,7.835,20.459
						c1.875,1.154,5.013,0.211,6.871-0.48C128.011,265.795,132.395,263.83,130.633,262.746L130.633,262.746z"/>
				</g>
			</g>
		</g>
		<g>
			<g>
				<path fill="#F5CD2C" d="M237.395,234.52c-20.082,4.261-31.563,25.595-29.855,40.949c3.412,22.18,29.855,37.535,50.331,39.242
					c50.333,5.117,49.479-84.457-1.707-85.311C249.337,229.4,241.661,231.959,237.395,234.52"/>
			</g>
			<g>
				<path fill="#F5E6A7" d="M242.561,233.586c-5.662,3.139-11.64,3.836-16.672,8.721c-6.291,6.631-13.839,14.678-13.524,24.099
					c0.313,8.725,5.162,22.93,11.452,28.86c5.034,4.885,14.454,6.418,20.749,8.859c6.287,2.443,11.521,4.83,18.441,5.18
					c7.862,0.35,16.139-10.646,20.229-17.625c8.492-15.004,7.968-32.828-2.728-45.391
					C273.586,237.916,252.626,226.955,242.561,233.586"/>
			</g>
			<g>
				<g>
					<path fill="#F5CD2C" d="M252.51,247.352c-2.847,5.474,0,8.756,1.971,13.791c1.97-4.379,1.97-10.508-2.407-13.791"/>
					<g>
						<path fill="#F6CD2C" d="M250.971,247.291c-2.527,5.363-0.201,9.234,1.861,14.293c0.518,1.268,2.911,0.285,3.298-0.635
							c2.046-4.865,1.78-10.725-2.53-14.256c-0.941-0.771-4.013,0.531-3.054,1.315c4.097,3.354,4.215,8.73,2.283,13.326
							c1.099-0.213,2.198-0.424,3.298-0.635c-1.848-4.529-4.388-8.386-2.077-13.289C254.754,245.92,251.452,246.266,250.971,247.291
							L250.971,247.291z"/>
					</g>
				</g>
				<g>
					<path fill="#F5CD2C" d="M259.656,265.57c0-4.498,1.668-9.996,6.332-11.662c1.166,3.5-3.332,10.662-6.498,11.828"/>
					<g>
						<path fill="#F6CD2C" d="M261.305,265.129c0.063-3.871,1.227-9.172,5.266-10.803c-0.742,0.008-1.485,0.016-2.229,0.023
							c0.968,3.653-2.417,9.668-5.812,11.129c-0.309,0.133-1.111,0.725-0.387,0.918c0.752,0.201,1.625-0.111,2.308-0.404
							c4.02-1.73,8.368-8.049,7.186-12.525c-0.169-0.637-1.899-0.109-2.229,0.023c-5.265,2.125-7.312,7.094-7.398,12.521
							C258,266.607,261.287,266.133,261.305,265.129L261.305,265.129z"/>
					</g>
				</g>
				<g>
					<path fill="#F5CD2C" d="M250.16,275.734c-1.835,0.5-3.832,4.83-4.167,6.664c-0.498,2.332,0,5.498,0.835,7.664
						c0.834-2.166,1.999-4.166,2.665-6.33c1-2.834,0.834-5.666,1.501-8.498"/>
					<g>
						<path fill="#F6CD2C" d="M249.217,275.539c-5.482,2.326-5.675,10.285-4.035,14.965c0.26,0.738,3.032-0.16,3.271-0.738
							c0.866-2.123,1.923-4.156,2.665-6.33c0.936-2.742,0.93-5.678,1.501-8.498c0.143-0.705-3.087-0.188-3.246,0.595
							c-0.499,2.465-0.625,4.979-1.177,7.436c-0.579,2.587-1.994,4.957-2.989,7.394c1.09-0.246,2.181-0.492,3.271-0.738
							c-0.894-2.551-1.363-5.314-0.754-7.984c0.389-1.701,1.672-4.981,3.383-5.709C253.1,275.082,249.973,275.219,249.217,275.539
							L249.217,275.539z"/>
					</g>
				</g>
				<g>
					<path fill="#F5CD2C" d="M243.162,271.234c-5.165,1.002-9.83,1.002-14.164-2.498c2.332,0,4.668-1.332,7-0.998
						c2.831,0.33,4.665,1.83,6.832,3.496c0.332-0.166,0-0.166,0.165-0.498"/>
					<g>
						<path fill="#F6CD2C" d="M242.865,270.125c-4.62,0.846-8.745,0.586-12.596-2.328c-0.475,0.709-0.949,1.418-1.424,2.127
							c2.209-0.145,4.361-1.141,6.576-1.006c2.357,0.143,4.355,1.887,6.135,3.256c0.721,0.555,2.121,0.209,2.647-0.469
							c0.284-0.365,0.428-0.633,0.457-1.1c0.108-1.693-3.24-1.203-3.334,0.262c0.042-0.035,0.085-0.07,0.127-0.105
							c0.883-0.156,1.765-0.313,2.647-0.469c-1.982-1.523-4.082-3.156-6.621-3.582c-2.961-0.496-5.422,0.65-8.332,0.84
							c-0.918,0.059-2.635,1.211-1.424,2.127c4.746,3.592,10.082,3.699,15.732,2.664C245.546,271.961,244.9,269.752,242.865,270.125
							L242.865,270.125z"/>
					</g>
				</g>
				<g>
					<path fill="#F5CD2C" d="M246.661,263.736c-1.166,0.334-3-1.164-3.999-1.998c-2.333-1.666-3.666-4.164-2.833-7.166
						c2.333,1.168,4.665,4.166,5.832,6.334c0.499,0.998,0.499,2.332,1.167,2.998"/>
					<g>
						<path fill="#F6CD2C" d="M246.959,263.096c-0.445,0.06-1.703-1.096-2.061-1.367c-0.651-0.496-1.295-1.014-1.887-1.582
							c-1.601-1.541-2.052-3.752-1.557-5.854c-1.059,0.283-2.118,0.567-3.178,0.853c1.762,0.965,3.136,2.422,4.336,4.01
							c0.522,0.693,0.977,1.438,1.398,2.195c0.539,0.963,0.494,2.086,1.168,2.998c0.613,0.832,3.579-0.496,3.295-0.884
							c-0.55-0.741-0.697-1.604-0.955-2.477c-0.289-0.98-1.026-1.896-1.612-2.718c-1.21-1.692-2.692-3.26-4.529-4.266
							c-0.63-0.346-2.978,0.002-3.177,0.85c-0.626,2.658,0.134,4.912,2.085,6.791c1.69,1.629,3.661,3.045,6.075,2.732
							C247.727,264.201,249.277,262.797,246.959,263.096L246.959,263.096z"/>
					</g>
				</g>
				<g>
					<path fill="#F5CD2C" d="M260.489,276.9"/>
					<g>
						<path fill="#F6CD2C" d="M259.843,277.813c1.201,0,3.519-1.823,1.293-1.823C259.936,275.988,257.617,277.813,259.843,277.813
							L259.843,277.813z"/>
					</g>
				</g>
				<g>
					<path fill="#F5CD2C" d="M260.656,278.732c0.166,3,0.668,5.164,2.333,7.498c1.331,1.832,2.999,2.166,4.665,3.166l0,0
						c-0.668-4.998-3.834-8.33-6.832-11.33"/>
					<g>
						<path fill="#F6CD2C" d="M259.009,279.174c0.154,2.297,0.513,4.566,1.72,6.572c1.426,2.373,3.309,3.197,5.631,4.502
							c0.832,0.467,3.146-0.025,2.942-1.293c-0.765-4.756-3.655-8.246-6.958-11.563c-0.898-0.902-4.025,0.358-3.043,1.348
							c3.188,3.201,5.967,6.496,6.706,11.098c0.981-0.432,1.964-0.863,2.943-1.293c-1.882-1.057-3.57-1.705-4.832-3.568
							c-1.329-1.967-1.66-4.375-1.813-6.686C262.223,277.063,258.917,277.791,259.009,279.174L259.009,279.174z"/>
					</g>
				</g>
				<g>
					<path fill="#F5CD2C" d="M264.154,271.902c4.498,3.664,10.996,2.832,15.994,1.832c-5.664-1.832-9.664-3.998-15.66-1.832"/>
					<g>
						<path fill="#F6CD2C" d="M262.621,272.531c5.068,3.764,11.412,3.199,17.288,2.059c0.327-0.064,2.932-1.166,1.559-1.623
							c-5.911-1.965-10.997-3.814-17.184-1.83c-1.918,0.615-1.543,2.156,0.409,1.529c5.063-1.623,9.361,0.248,14.138,1.836
							c0.521-0.541,1.039-1.082,1.56-1.621c-5,0.971-10.354,1.619-14.701-1.607C264.792,270.607,261.788,271.912,262.621,272.531
							L262.621,272.531z"/>
					</g>
				</g>
				<g>
					<path fill="#F5CD2C" d="M241.661,237.58c3.5,5.832,5.667,13.162,8.166,19.494c1.499,3.664,3.563,11.33-1.435,11.33
						c-4.498-0.168-10.063-5.832-13.896-7.998c-4.665-2.5-8.331-4.666-13.329-6.334l0,0c4.5-0.164,9.831,4.834,13.162,7.332
						c3.666,2.666,10.33,4.416,12.497,8.414c1.333,2.334-0.999,3.248-3.001,4.582c-1.999,1.334-3.664,2.668-5.497,4.498
						c-3.666,3.5-7.497,6.998-10.996,10.664c1.833-1.5,2.999-3.166,4.998-4.666c2.166-1.332,3.499-2.998,5.165-4.664
						c1.832-2,4.499-2.998,6.496-4.666c2.167-1.666,4.332-3.164,6.666-4.498c2.333-1.166,3.833-2.332,4.333,1.002
						c0.331,1.998,0.331,4.33,0.499,6.496c0.333,5.832,0.333,11.662,1.498,17.328c0.335,1.998,0.837,3.998,0.837,6.164
						c0.165-4.166-1.669-8.664-2.002-12.828c-0.333-3.834-0.666-7.666-0.666-11.498c0-4.498,1.333-7.996,5.997-4.498
						c3.668,3,7.496,5.998,10.996,8.998c1.332,1.332,2.668,2.498,4.166,3.332c-3.498-1.5-7.164-5.332-10.164-7.832
						c-1.164-1.166-4.998-3.332-5.498-4.998c-0.666-1.998,2.334-3.332,3.998-3.998c4.5-1.998,9.998-3.166,14.83-4.166
						c3.666-0.834,7.164-1.666,10.996-1.666c-1.666-0.5-3.832,0.5-5.496,0.666c-2.168,0.334-4.334,0.334-6.5,0.668
						c-3.664,0.668-7.164,1.834-10.664,2.832c-2.166,0.832-9.164,2.666-10.662,0.668c-2.499-2.832,2.166-10.832,3.332-13.498
						c1.832-4.496,2.998-9.33,5.164-13.828c-1.998,4.498-3.498,9.496-6.164,13.496c-1.832,2.832-2.332,5.498-3.165,8.496
						c-0.167,0.834-1.166,4.166-2.165,4.498c-1.667,0.668-1.833-2.166-2.167-3.332c-1.165-2.998-2.999-6.162-3.667-9.162"/>
					<g>
						<path fill="#F6CD2C" d="M240.014,238.021c2.721,4.754,4.596,9.852,6.469,14.981c1.39,3.804,3.102,7.467,3.418,11.551
							c0.516,6.644-10.9-2.801-12.871-4.151c-4.354-2.986-9.576-5.312-14.533-7.068c-0.785,0.518-1.571,1.033-2.356,1.551
							c4.984,0.311,8.889,4.227,12.654,7.133c3.08,2.377,6.972,3.525,10.146,5.789c5.133,3.658-3.401,8.494-5.906,10.904
							c-3.756,3.613-7.585,7.135-11.215,10.877c-0.907,0.934,2.254,0.672,2.815,0.162c7.464-6.746,14.916-14.137,23.97-18.781
							c0.549-0.281,1.473,12.82,1.521,13.863c0.271,5.963,1.747,11.746,2.058,17.668c0.047,0.902,3.313,0.242,3.295-0.883
							c-0.063-3.846-1.137-7.488-1.813-11.252c-0.765-4.238-0.796-8.777-0.854-13.074c-0.018-1.27-0.269-5.445,2.813-3.443
							c1.957,1.271,3.744,3.031,5.562,4.5c3.185,2.57,6.131,5.662,9.602,7.83c0.955-0.451,1.91-0.9,2.863-1.352
							c-3.352-1.689-6.021-4.242-8.797-6.715c-2.062-1.834-5.207-3.351-6.543-5.818c-2.111-3.896,25.308-8.479,27.508-8.555
							c0.685-0.023,3.517-1.467,1.697-1.646c-4.142-0.407-8.641,0.843-12.771,1.347c-5.361,0.651-10.36,3.121-15.644,4.133
							c-8.352,1.602-3.871-7.527-2.096-11.225c2.514-5.23,3.902-10.886,6.292-16.173c-1.093,0.158-2.185,0.316-3.276,0.476
							c-1.313,3.059-2.479,6.176-3.826,9.219c-1.524,3.447-3.621,6.229-4.721,9.867c-0.35,1.154-0.643,2.334-0.933,3.506
							c-0.298,1.193-0.233,2.779-0.704,0.746c-0.801-3.467-2.896-6.568-3.859-10.021c-0.283-1.008-3.572-0.113-3.295,0.883
							c0.746,2.67,1.898,5.129,3.037,7.65c0.494,1.096,0.678,3.6,1.52,4.467c1.343,1.385,3.33,0.828,4.719-0.268
							c2.424-1.912,2.756-7.576,3.727-10.234c0.883-2.42,2.655-4.732,3.789-7.07c1.446-2.99,2.516-6.168,3.824-9.219
							c0.38-0.887-2.846-0.48-3.277,0.475c-2.703,5.982-4.513,12.277-7.268,18.246c-0.907,1.968-3.945,8.699-0.38,10.033
							c3.44,1.287,7.567,0.135,10.938-0.904c3.609-1.112,7.215-2.229,10.922-2.987c3.078-0.631,8.076-1.629,11.221-1.32
							c0.564-0.549,1.132-1.098,1.697-1.645c-5.724,0.196-11.278,1.614-16.846,2.87c-4.063,0.918-10.641,2.063-13.818,5.105
							c-2.692,2.576-0.924,4.393,1.639,6.365c4.281,3.297,8.005,7.436,12.871,9.889c0.755,0.379,3.658-0.854,2.863-1.352
							c-4.918-3.072-9.262-7.553-13.779-11.205c-2.307-1.863-5.053-3.787-8.041-2.123c-3.389,1.887-2.544,7.246-2.426,10.383
							c0.263,6.926,2.461,13.639,2.568,20.494c1.1-0.295,2.196-0.59,3.295-0.883c-0.177-3.363-0.979-6.637-1.457-9.965
							c-0.642-4.463-0.646-9.031-0.877-13.527c-0.147-2.83,0.808-9.654-3.697-9c-4.827,0.701-9.139,5.369-13.064,7.84
							c-5.316,3.348-9.693,8.209-14.342,12.41c0.939,0.055,1.878,0.109,2.816,0.164c4.736-4.883,9.646-10.061,15.109-14.146
							c3.391-2.535,6.723-3.896,2.98-8.014c-3.109-3.42-8.415-4.535-12.029-7.326c-3.832-2.957-7.658-6.479-12.714-6.791
							c-0.514-0.033-3.778,1.045-2.356,1.549c7.259,2.572,13.604,6.486,19.815,10.957c3.229,2.326,7.546,4.771,11.462,2.588
							c3.423-1.905,1.895-7.071,1.009-9.94c-2.218-7.19-5.082-14.742-8.819-21.274C242.732,236.133,239.591,237.281,240.014,238.021
							L240.014,238.021z"/>
					</g>
				</g>
			</g>
		</g>
	</g>
</g>
</svg>
