<?xml version="1.0" encoding="utf-8"?>
<!-- Generator: Adobe Illustrator 16.0.0, SVG Export Plug-In . SVG Version: 6.00 Build 0)  -->
<!DOCTYPE svg PUBLIC "-//W3C//DTD SVG 1.1//EN" "http://www.w3.org/Graphics/SVG/1.1/DTD/svg11.dtd">
<svg version="1.1" id="Ebene_1" xmlns="http://www.w3.org/2000/svg" xmlns:xlink="http://www.w3.org/1999/xlink" x="0px" y="0px"
	 width="450px" height="450px" viewBox="0 0 450 450" enable-background="new 0 0 450 450" xml:space="preserve">
<g>
	<g>
		<g>
			<g opacity="0.3">
				<path d="M303.944,154.948c0.129-8.415-6.538-15.884-8.314-20.764c-1.734-4.771-3.711-8.761-8.723-11.72
					c-8.961-5.291-23.807-5.66-33.641-2.557c-10.15,3.201-21.131,6.781-31.494,10.225c-8.004,2.659-28.365,5.017-29.842,18.334
					c-4.314,1.881-10.457,6.116-14.584,8.92c-6.869,4.66-5.721,7.086-8.557,14.275c-1.673,4.234-4.869,11.209-8.697,14.302
					c-5.405,4.371-17.671-0.101-23.689,3.204c-8.82,4.842-17.965,7.565-17.922,22.22c0.01,3.121,1.314,5.906,1.652,8.194
					c0.627,4.24-1.191,5.954-1.973,9.864c-1.536,7.672-5.096,10.05-11.91,14.981c-9.311,6.732-13.943,13.921-20.846,23.57
					c-10.621,14.852,7.897,18.609,9.551,31.532c0.957,7.492-0.522,11.429,5.98,17.024c6.32,5.438,9.645,1.536,16.785,4.309
					c5.777,2.242,7.941,9.244,13.389,12.118c8.945,4.72,11-3.032,18.979-3.848c6.189-0.634,13.387,5.897,19.766,6.856
					c6.931,1.042,14.064-0.204,20.898,1.231c6.143,1.29,11.307,4.755,18.064,3.43c6.834-1.343,11.71-6.38,18.555-8.543
					c25.285-7.991,57.039-2.293,76.539-22.521c15.324-15.896,43.105-12.141,47.041-38.183c1.617-10.685-3.502-20.718,1.703-30.679
					c2.996-5.737,19.711-16.421,7.563-24.944c8.054-4.504,2.405-18.674,0.284-25.345c-2.945-9.25-10.711-24.524-19.761-28.978
					C325.647,154.032,317.215,164.575,303.944,154.948z"/>
			</g>
			<g>
				<g>
					<g>
						<path fill="#D47123" d="M297.237,146.899c0.13-8.415-6.537-15.883-8.314-20.764c-1.734-4.771-3.711-8.761-8.723-11.719
							c-8.959-5.292-23.806-5.661-33.64-2.558c-10.151,3.202-21.131,6.781-31.494,10.225c-8.005,2.659-28.366,5.017-29.843,18.334
							c-4.314,1.881-10.457,6.116-14.584,8.92c-6.869,4.66-5.719,7.086-8.557,14.275c-1.672,4.234-4.868,11.209-8.697,14.302
							c-5.404,4.371-17.67-0.101-23.689,3.204c-8.82,4.843-17.965,7.566-17.922,22.221c0.011,3.121,1.314,5.905,1.653,8.193
							c0.627,4.24-1.19,5.955-1.974,9.864c-1.535,7.672-5.094,10.051-11.909,14.981c-9.312,6.732-13.942,13.921-20.846,23.57
							c-10.622,14.852,7.897,18.609,9.55,31.532c0.958,7.493-0.521,11.43,5.981,17.024c6.32,5.438,9.645,1.536,16.785,4.309
							c5.778,2.243,7.941,9.245,13.389,12.119c8.944,4.719,10.999-3.032,18.979-3.848c6.188-0.635,13.386,5.896,19.766,6.856
							c6.931,1.042,14.063-0.205,20.897,1.231c6.143,1.29,11.309,4.754,18.065,3.429c6.833-1.342,11.71-6.379,18.555-8.543
							c25.284-7.99,57.04-2.292,76.539-22.521c15.325-15.896,43.104-12.142,47.042-38.184c1.615-10.685-3.503-20.717,1.702-30.679
							c2.996-5.737,19.711-16.42,7.563-24.944c8.053-4.504,2.406-18.673,0.283-25.345c-2.945-9.25-10.711-24.524-19.76-28.978
							C318.941,145.983,310.508,156.527,297.237,146.899z"/>
						<path fill="#CB6024" d="M353.512,207.732c8.053-4.504,2.406-18.673,0.283-25.345c-2.945-9.25-10.711-24.524-19.76-28.978
							c-15.095-7.427-23.527,3.117-36.799-6.511c0.033-2.107-0.362-4.154-0.999-6.118L147.229,321.478
							c5.209,1.386,10.825,5.698,15.919,6.464c6.931,1.042,14.063-0.205,20.897,1.231c6.143,1.29,11.309,4.754,18.065,3.429
							c6.833-1.342,11.71-6.379,18.555-8.543c25.284-7.99,57.04-2.292,76.539-22.521c15.325-15.896,43.104-12.142,47.042-38.184
							c1.615-10.685-3.503-20.717,1.702-30.679C348.945,226.939,365.659,216.257,353.512,207.732z"/>
						<path fill="#BC5D19" d="M214.964,136.106c2.465,2.259,4.943,4.496,7.53,6.578c6.365,5.117,13.753,9.935,20.947,4.181
							c4.248-3.396,9.686-3.927,13.779-1.616c5.644-3.053,12.383,0.881,15.15,6.534c4.563-2.168,9.614-3.532,14.902-4.202
							c3.345-0.424,6.697-0.582,10.053-0.619c-0.031-0.023-0.06-0.04-0.09-0.063c0.03-1.946-0.314-3.838-0.865-5.664
							c-10.268-2.114-20.887-3.738-31.197-5.213c-7.6-1.088-15.779,4.229-23.354,5.057c-8.338,0.914-15.934-2.171-23.199-5.901
							C217.522,135.703,216.299,136.035,214.964,136.106z"/>
						<path fill="#BC5D19" d="M186.102,146.325c-0.622-0.998-1.018-2.07-1.253-3.173c-3.862,2.747-7.004,8.435-4.896,11.335
							c2.465,3.389,10.468,6.326,14.663,8.283c2.79,1.303,4.546,2.289,7.399,3.081c0.173,0.042,0.32,0.078,0.445,0.11
							c0.635,0,1.269-0.021,1.901-0.087c1.078-0.143,2.539-0.659,3.585-0.986c0.492-0.152,0.982-0.313,1.473-0.474
							c-3.417,0.432-6.977-0.833-9.911-3.211C194.287,156.97,189.658,152.058,186.102,146.325z"/>
						<path fill="#BC5D19" d="M129.875,237.181c2.293-1.737,4.893-2.875,7.5-3.117c-1.603-1.463-2.784-3.365-3.354-5.483
							c-0.779-2.908-0.367-6.043,1.141-8.651c0.61-1.058,1.314-1.896,2.107-2.597c-3.182-3.036-7.193-5.599-11.139-8.025
							c-5.001-3.077-10.646-6.542-13.785-11.693c-0.32,1.477-0.514,3.112-0.555,4.946c0.075,0.146,0.157,0.28,0.227,0.433
							c1.934,4.155,7.779,5.79,10.33,10.432c2.973,5.406,4.023,11.767,1.959,17.697c-1.523,4.377-4.285,7.909-7.539,11.07
							c2.601-0.611,5.303-1.346,7.381-2.264c1.559-0.688,3.125-1.384,4.6-2.242C128.996,237.543,132.073,235.515,129.875,237.181z"
							/>
						<path fill="#AB4F18" d="M278.178,244.917c-5.151,6.259-14.259,9.966-23.383,10.104c-2.521,3.475-6.718,5.523-11.586,4.001
							c-10.584-3.312-20.941-7.249-31.112-11.654c0.58,3.684,1.396,7.28,2.527,10.748c10.067,3.721,20.558,6.496,30.754,10.131
							c2.657,0.947,4.78,2.854,6.218,5.164c3.679-0.338,8.408-0.051,10.901-1.379c4.433-2.359,7.489-6.012,10.94-9.567
							c6.272-6.46,13.584-9.623,20.742-8.435C288.299,252.027,282.735,248.904,278.178,244.917z"/>
						<path fill="#AB4F18" d="M347.644,230.293c-4.22,2.156-9.476,1.929-13.107-2.022c-5.88-6.4-8.384-14.137-10.054-22.501
							c-0.516-2.568-0.938-5.197-1.646-7.655c-1.617-0.092-3.212-0.435-4.656-1.061c-2.021-0.878-4.144-1.881-6.343-2.915
							c-4.212,2.728-8.862,4.312-13.714,5.249l0.015,0.004c2.946,1.075,5.568,3.459,7.154,6.308c2.878,1.801,5.535,4.058,7.841,6.61
							c4.361,4.827,8.561,12.004,8.566,18.741c9.374,7.553,15.787,16.5,11.43,29.644c-1.883,5.68-6.68,8.087-11.382,8
							c-0.962,1.726-2.056,3.395-3.336,4.983c-7.083,8.806-18.286,10.204-28.7,7.7c-0.756-0.182-1.45-0.417-2.096-0.689
							c-0.166,0.176-0.33,0.35-0.494,0.524c-3.477,3.682-7.467,7.51-11.969,9.907c-8.828,4.701-18.031,2.9-27.087,5.989
							c-5.874,2.005-11.353,4.963-16.811,7.888c-3.998,2.144-9.171,3.913-12.685,6.796c-0.97,0.797-1.92,1.623-2.865,2.464
							c-0.949,3.528-3.507,6.511-7.806,7.338c-0.167,0.032-0.317,0.076-0.48,0.112c-4.606,3.926-9.532,7.344-15.616,8.832
							c-0.709,0.172-1.408,0.268-2.095,0.306c3.938,1.341,7.803,2.66,12.402,1.758c6.833-1.342,11.71-6.379,18.555-8.543
							c25.284-7.99,57.04-2.292,76.539-22.521c15.325-15.896,43.104-12.142,47.042-38.184c1.615-10.685-3.503-20.717,1.702-30.679
							C346.327,231.954,346.918,231.156,347.644,230.293z"/>
						<path fill="#BC5D19" d="M117.726,318.505c0.368-0.271,0.732-0.564,1.104-0.824c-0.005-0.007-0.01-0.011-0.012-0.014
							c0.082-0.044,0.156-0.095,0.236-0.138c0.803-0.557,1.614-1.089,2.434-1.605c5.34-4.188,8.368-10.837,16.257-12.041
							c3.017-0.46,6.208-0.309,9.083,0.772c0.201-0.133,0.393-0.278,0.605-0.401c2.297-1.307,3.646-1.234,5.455-2.245
							c0.053-0.061,0.283-0.245,0.552-0.46c0.067-0.588,0.489-1.718,0.505-0.41c0.004-0.002,0.004-0.004,0.004-0.004
							c0.018-0.675,0.011-1.348-0.037-2.018c-0.029-0.15-0.061-0.329-0.104-0.56c-0.314-1.381-0.662-2.752-1.111-4.097
							c-1.315-3.953-1.671-4.634-3.02-7.808c-0.382-0.901-0.768-1.83-1.15-2.776c-2.553,5.223-8.736,8.197-14.208,9.366
							c-4.995,8.961-14.829,14.46-23.796,10.177c-0.02,0.064-0.037,0.132-0.057,0.196c-0.764,2.496-2.146,4.439-3.867,5.833
							c0.098,0.776,0.158,1.559,0.188,2.342c1.274,0.135,2.656,0.412,4.228,1.023C113.851,313.915,115.816,316.163,117.726,318.505z
							"/>
						<path fill="#AB4F18" d="M352.427,188.355c-4.864-6.575-9.158-13.25-15.16-18.276c-1.176-0.595-2.345-1.232-3.509-1.935
							c-2.16-1.305-4.85-0.539-7.543,0.342c0.525,0.214,1.051,0.468,1.578,0.771c5.105,2.938,9.132,6.922,12.134,11.64
							c0.425,0.296,0.851,0.594,1.28,0.877c5.506,3.627,6.324,9.507,4.389,14.188c0.617,3.499,1.125,7.378,2.207,10.729
							c2.264,0.688,4.61,1.328,6.947,2.012c-0.378-0.327-0.781-0.651-1.238-0.971c4.959-2.773,4.722-9.214,3.312-15.311
							C355.153,191.408,353.649,190.008,352.427,188.355z"/>
					</g>
					<g>
						<circle fill="#DC8046" cx="238.638" cy="168.274" r="6.128"/>
						<circle fill="#DC8046" cx="228.196" cy="201.423" r="6.036"/>
						<path fill="#DC8046" d="M207.496,220.775c0,2.594-2.1,4.695-4.695,4.695c-2.592,0-4.694-2.102-4.694-4.695
							s2.103-4.694,4.694-4.694C205.397,216.081,207.496,218.181,207.496,220.775z"/>
						<circle fill="#DC8046" cx="164.171" cy="274.345" r="6.615"/>
						<circle fill="#DC8046" cx="183.648" cy="252.295" r="2.485"/>
						<circle fill="#DC8046" cx="189.709" cy="201.76" r="6.063"/>
						<ellipse fill="#DC8046" cx="264.504" cy="159.506" rx="0" ry="1.006"/>
						<circle fill="#DC8046" cx="209.419" cy="151.783" r="1.675"/>
						<circle fill="#DC8046" cx="167.189" cy="224.686" r="3.018"/>
						<circle fill="#DC8046" cx="144.453" cy="257.081" r="2.775"/>
						<circle fill="#DC8046" cx="140.915" cy="310.927" r="3.54"/>
						<circle fill="#DC8046" cx="265.936" cy="165.962" r="3.216"/>
						<path fill="#DC8046" d="M256.145,122.509c0,1.977-1.602,3.58-3.578,3.58c-1.979,0-3.579-1.604-3.579-3.58
							c0-1.974,1.601-3.578,3.579-3.578C254.543,118.93,256.145,120.535,256.145,122.509z"/>
						<circle fill="#DC8046" cx="175.214" cy="171.58" r="4.123"/>
						<circle fill="#DC8046" cx="146.802" cy="203.77" r="2.347"/>
						<circle fill="#DC8046" cx="107.621" cy="270.176" r="4.17"/>
					</g>
					<g>
						<circle fill="#D47123" cx="204.588" cy="294.383" r="3.957"/>
						<circle fill="#D47123" cx="235.908" cy="237.642" r="4.362"/>
						<circle fill="#D47123" cx="266.591" cy="228.323" r="2.087"/>
						<circle fill="#D47123" cx="281.37" cy="207.316" r="3.544"/>
						<circle fill="#D47123" cx="308.677" cy="252.295" r="2.682"/>
						<circle fill="#D47123" cx="235.07" cy="289.075" r="5.2"/>
						<circle fill="#D47123" cx="293.701" cy="162.973" r="4.474"/>
						<circle fill="#D47123" cx="323.957" cy="182.5" r="3.879"/>
						<circle fill="#D47123" cx="302.085" cy="224.686" r="3.91"/>
						<circle fill="#D47123" cx="264.505" cy="206.119" r="4.358"/>
						<circle fill="#D47123" cx="205.987" cy="270.176" r="5.593"/>
						<circle fill="#D47123" cx="180.578" cy="312.754" r="5.365"/>
						<circle fill="#D47123" cx="269.192" cy="286.475" r="2.599"/>
					</g>
				</g>
			</g>
		</g>
	</g>
	<g>
		<g>
			<g opacity="0.3">
				<path d="M259.352,200.994c0.002,33.974,27.54,61.515,61.515,61.515s61.517-27.541,61.517-61.515H259.352z"/>
				<path d="M266.157,200.994c0.002,30.216,24.499,54.714,54.715,54.714c30.222,0,54.718-24.498,54.718-54.714H266.157z"/>
				<path d="M269.746,200.994c0.002,28.232,22.888,51.12,51.12,51.12c28.233,0,51.12-22.888,51.12-51.12H269.746z"/>
				<path d="M310.332,201.392c-6.223-0.564-9.63-0.179-15.791-0.312c-5.094-0.107-12.042-0.755-15.047,4.118
					c-2.71,4.398-1.59,10.493,1.445,14.182c3.326,4.048,8.301,3.132,12.872,1.61c4.385-1.458,8.079-5.054,11.313-8.215
					c3.151-3.085,7.345-5.337,9.619-9.062C315.351,201.308,311.387,201.178,310.332,201.392z"/>
				<path d="M330.165,201.392c6.223-0.564,9.631-0.179,15.793-0.312c5.093-0.107,12.041-0.755,15.044,4.118
					c2.713,4.398,1.591,10.493-1.443,14.182c-3.328,4.048-8.299,3.132-12.871,1.61c-4.386-1.458-8.079-5.054-11.313-8.215
					c-3.153-3.085-7.345-5.337-9.619-9.062C325.149,201.308,329.11,201.178,330.165,201.392z"/>
				<path d="M327.317,209.718c4.509,4.324,6.455,7.153,10.597,11.715c3.423,3.772,8.469,8.591,6.763,14.055
					c-1.539,4.931-6.878,8.087-11.649,8.216c-5.241,0.145-7.81-4.211-9.661-8.657c-1.775-4.266-1.485-9.412-1.221-13.928
					c0.26-4.403-0.793-9.045,0.525-13.205C324.09,205.875,326.787,208.78,327.317,209.718z"/>
				<path d="M313.181,209.718c-4.509,4.324-6.453,7.153-10.596,11.715c-3.424,3.772-8.471,8.591-6.762,14.055
					c1.539,4.931,6.875,8.087,11.649,8.216c5.24,0.145,7.809-4.211,9.66-8.657c1.776-4.266,1.484-9.412,1.219-13.928
					c-0.258-4.403,0.794-9.045-0.524-13.205C316.408,205.875,313.711,208.78,313.181,209.718z"/>
			</g>
			<g>
				<g>
					<path fill="#EDBE5C" d="M253.078,193.464c0.001,33.975,27.539,61.515,61.514,61.515c33.976,0,61.516-27.54,61.516-61.515
						H253.078z"/>
					<path fill="#F1DDBA" d="M259.883,193.464c0.002,30.218,24.498,54.715,54.716,54.715c30.222,0,54.718-24.497,54.718-54.715
						H259.883z"/>
					<path fill="#FFFCF4" d="M263.473,193.464c0,28.233,22.888,51.121,51.119,51.121c28.234,0,51.121-22.888,51.121-51.121H263.473z
						"/>
					<g>
						<path fill="#E7DC9D" d="M304.058,193.863c-6.222-0.564-9.629-0.178-15.79-0.312c-5.094-0.107-12.043-0.756-15.047,4.118
							c-2.71,4.399-1.59,10.494,1.443,14.183c3.328,4.046,8.301,3.132,12.873,1.608c4.386-1.458,8.08-5.054,11.313-8.215
							c3.149-3.085,7.345-5.335,9.619-9.062C309.077,193.78,305.114,193.648,304.058,193.863z"/>
						<path fill="#E7DC9D" d="M323.892,193.863c6.222-0.564,9.631-0.178,15.793-0.312c5.091-0.107,12.041-0.756,15.044,4.118
							c2.713,4.399,1.591,10.494-1.443,14.183c-3.328,4.046-8.299,3.132-12.872,1.608c-4.386-1.458-8.078-5.054-11.312-8.215
							c-3.154-3.085-7.346-5.335-9.619-9.062C318.875,193.78,322.836,193.648,323.892,193.863z"/>
						<path fill="#E7DC9D" d="M321.043,202.187c4.508,4.326,6.455,7.153,10.596,11.716c3.424,3.772,8.47,8.591,6.763,14.055
							c-1.539,4.931-6.877,8.087-11.648,8.216c-5.241,0.145-7.812-4.211-9.662-8.657c-1.774-4.267-1.485-9.412-1.22-13.929
							c0.26-4.402-0.794-9.043,0.525-13.203C317.817,198.345,320.514,201.251,321.043,202.187z"/>
						<path fill="#E7DC9D" d="M306.906,202.187c-4.508,4.326-6.452,7.153-10.594,11.716c-3.425,3.772-8.471,8.591-6.764,14.055
							c1.54,4.931,6.875,8.087,11.65,8.216c5.239,0.145,7.809-4.211,9.66-8.657c1.775-4.267,1.483-9.412,1.22-13.929
							c-0.26-4.402,0.793-9.043-0.526-13.203C310.133,198.345,307.439,201.251,306.906,202.187z"/>
					</g>
				</g>
			</g>
		</g>
	</g>
</g>
</svg>
