<?xml version="1.0" encoding="utf-8"?>
<!-- Generator: Adobe Illustrator 16.0.0, SVG Export Plug-In . SVG Version: 6.00 Build 0)  -->
<!DOCTYPE svg PUBLIC "-//W3C//DTD SVG 1.1//EN" "http://www.w3.org/Graphics/SVG/1.1/DTD/svg11.dtd">
<svg version="1.1" id="Ebene_1" xmlns="http://www.w3.org/2000/svg" xmlns:xlink="http://www.w3.org/1999/xlink" x="0px" y="0px"
	 width="450px" height="450px" viewBox="0 0 450 450" enable-background="new 0 0 450 450" xml:space="preserve">
<g>
	<g>
		<g opacity="0.3">
			<path fill="#1D1D1B" d="M314.338,139.632c0.15-10.063-7.605-18.997-9.673-24.833c-2.018-5.707-4.316-10.479-10.146-14.016
				c-10.424-6.329-27.695-6.771-39.137-3.059c-11.809,3.829-24.584,8.11-36.638,12.229c-9.312,3.18-33,6-34.716,21.929
				c-5.019,2.248-12.167,7.314-16.966,10.667c-7.993,5.574-6.655,8.476-9.955,17.074c-1.946,5.063-5.664,13.406-10.119,17.106
				c-6.287,5.226-20.557-0.121-27.559,3.832c-10.261,5.791-20.9,9.047-20.85,26.575c0.012,3.733,1.529,7.062,1.923,9.8
				c0.729,5.072-1.385,7.123-2.295,11.798c-1.787,9.176-5.929,12.02-13.856,17.918c-10.831,8.053-16.22,16.649-24.25,28.19
				c-12.357,17.765,9.187,22.257,11.109,37.714c1.115,8.961-0.606,13.669,6.958,20.362c7.353,6.505,11.221,1.837,19.528,5.154
				c6.721,2.682,9.238,11.056,15.574,14.493c10.407,5.646,12.797-3.624,22.08-4.602c7.198-0.758,15.572,7.052,22.995,8.2
				c8.061,1.246,16.362-0.243,24.312,1.473c7.145,1.544,13.156,5.688,21.015,4.103c7.951-1.608,13.624-7.632,21.587-10.22
				c29.415-9.557,66.357-2.741,89.043-26.937c17.828-19.011,50.146-14.52,54.726-45.667c1.88-12.777-4.075-24.778,1.979-36.691
				c3.485-6.865,22.933-19.641,8.8-29.835c9.369-5.388,2.799-22.333,0.331-30.314c-3.427-11.061-12.461-29.331-22.99-34.657
				C339.588,138.538,329.779,151.148,314.338,139.632z"/>
			<path fill="#1D1D1B" d="M379.807,212.391c9.369-5.388,2.799-22.333,0.331-30.314c-3.428-11.061-12.462-29.331-22.99-34.655
				c-17.56-8.883-27.369,3.727-42.81-7.79c0.038-2.52-0.422-4.969-1.163-7.318l-173.352,216.12
				c6.059,1.658,12.593,6.815,18.52,7.731c8.062,1.246,16.362-0.245,24.312,1.473c7.145,1.544,13.156,5.688,21.015,4.103
				c7.949-1.608,13.624-7.632,21.588-10.22c29.412-9.557,66.357-2.742,89.043-26.937c17.826-19.011,50.145-14.52,54.725-45.667
				c1.881-12.777-4.074-24.778,1.98-36.693C374.492,235.365,393.94,222.586,379.807,212.391z"/>
			<path fill="#1D1D1B" d="M218.625,126.723c2.867,2.701,5.751,5.378,8.762,7.87c7.403,6.12,15.999,11.88,24.369,5
				c4.941-4.063,11.267-4.696,16.027-1.933c6.565-3.652,14.406,1.054,17.627,7.814c5.307-2.593,11.185-4.224,17.337-5.026
				c3.892-0.505,7.793-0.696,11.695-0.739c-0.036-0.029-0.069-0.048-0.104-0.076c0.034-2.328-0.366-4.59-1.007-6.774
				c-11.944-2.527-24.297-4.47-36.291-6.234c-8.843-1.301-18.359,5.057-27.171,6.047c-9.699,1.093-18.536-2.598-26.99-7.057
				C221.599,126.241,220.176,126.639,218.625,126.723z"/>
			<path fill="#1D1D1B" d="M185.046,138.947c-0.722-1.195-1.182-2.477-1.458-3.796c-4.495,3.285-8.148,10.087-5.694,13.556
				c2.866,4.053,12.177,7.568,17.057,9.906c3.246,1.56,5.288,2.74,8.607,3.686c0.202,0.05,0.373,0.092,0.518,0.132
				c0.738,0,1.476-0.025,2.212-0.104c1.254-0.168,2.952-0.788,4.171-1.179c0.569-0.182,1.141-0.375,1.71-0.565
				c-3.974,0.517-8.113-0.996-11.529-3.84C194.569,151.678,189.184,145.802,185.046,138.947z"/>
			<path fill="#1D1D1B" d="M119.634,247.613c2.669-2.078,5.693-3.438,8.728-3.729c-1.866-1.75-3.24-4.023-3.902-6.559
				c-0.906-3.479-0.429-7.228,1.327-10.347c0.71-1.266,1.527-2.269,2.451-3.106c-3.699-3.632-8.369-6.696-12.958-9.598
				c-5.819-3.682-12.385-7.825-16.037-13.988c-0.375,1.767-0.598,3.724-0.646,5.918c0.087,0.174,0.184,0.332,0.264,0.517
				c2.25,4.97,9.05,6.925,12.017,12.475c3.458,6.467,4.68,14.074,2.278,21.167c-1.772,5.233-4.984,9.462-8.771,13.241
				c3.027-0.731,6.169-1.61,8.586-2.709c1.815-0.822,3.638-1.653,5.353-2.681C118.612,248.045,122.192,245.621,119.634,247.613z"/>
			<path fill="#1D1D1B" d="M292.166,256.865c-5.993,7.483-16.591,11.92-27.205,12.085c-2.932,4.155-7.816,6.606-13.479,4.787
				c-12.314-3.962-24.364-8.673-36.194-13.941c0.674,4.407,1.623,8.709,2.939,12.854c11.711,4.452,23.916,7.771,35.777,12.117
				c3.093,1.134,5.562,3.412,7.232,6.177c4.282-0.404,9.784-0.061,12.685-1.65c5.156-2.82,8.713-7.19,12.728-11.442
				c7.298-7.727,15.803-11.51,24.13-10.089C303.94,265.37,297.466,261.633,292.166,256.865z"/>
			<path fill="#1D1D1B" d="M372.98,239.374c-4.908,2.576-11.024,2.307-15.249-2.42c-6.84-7.654-9.753-16.908-11.696-26.912
				c-0.599-3.073-1.092-6.218-1.916-9.157c-1.881-0.109-3.735-0.519-5.417-1.269c-2.352-1.05-4.821-2.249-7.377-3.487
				c-4.902,3.264-10.311,5.158-15.957,6.277c0,0,0.012,0.003,0.019,0.004c3.427,1.287,6.479,4.14,8.323,7.545
				c3.35,2.154,6.439,4.854,9.122,7.907c5.073,5.773,9.96,14.357,9.966,22.415c10.906,9.032,18.364,19.733,13.297,35.455
				c-2.19,6.793-7.771,9.672-13.242,9.568c-1.119,2.063-2.391,4.06-3.88,5.959c-8.24,10.533-21.273,12.207-33.39,9.211
				c-0.88-0.217-1.688-0.499-2.438-0.825c-0.194,0.211-0.385,0.419-0.575,0.628c-4.044,4.401-8.687,8.982-13.925,11.85
				c-10.271,5.622-20.977,3.469-31.51,7.161c-6.836,2.397-13.211,5.937-19.559,9.434c-4.649,2.566-10.67,4.683-14.754,8.129
				c-1.129,0.953-2.234,1.941-3.335,2.947c-1.104,4.22-4.08,7.789-9.08,8.776c-0.196,0.038-0.372,0.092-0.56,0.135
				c-5.36,4.695-11.09,8.783-18.167,10.563c-0.825,0.206-1.638,0.321-2.438,0.367c4.582,1.604,9.079,3.182,14.428,2.104
				c7.949-1.607,13.624-7.632,21.588-10.22c29.412-9.557,66.357-2.742,89.043-26.937c17.826-19.011,50.145-14.52,54.725-45.667
				c1.881-12.777-4.074-24.778,1.98-36.693C371.448,241.36,372.137,240.406,372.98,239.374z"/>
			<path fill="#1D1D1B" d="M105.501,344.88c0.428-0.325,0.852-0.678,1.285-0.986c-0.005-0.009-0.011-0.012-0.014-0.018
				c0.096-0.052,0.182-0.112,0.274-0.165c0.934-0.665,1.879-1.302,2.832-1.919c6.214-5.009,9.735-12.962,18.914-14.4
				c3.508-0.553,7.221-0.371,10.565,0.921c0.237-0.157,0.458-0.331,0.707-0.479c2.67-1.563,4.242-1.479,6.346-2.686
				c0.062-0.07,0.329-0.293,0.642-0.55c0.078-0.704,0.57-2.054,0.587-0.491c0.004-0.002,0.004-0.006,0.004-0.006
				c0.022-0.806,0.013-1.611-0.043-2.411c-0.033-0.18-0.07-0.395-0.12-0.671c-0.365-1.65-0.771-3.291-1.291-4.898
				c-1.53-4.73-1.945-5.543-3.515-9.341c-0.442-1.076-0.891-2.188-1.337-3.321c-2.971,6.247-10.165,9.806-16.53,11.203
				c-5.813,10.718-17.251,17.294-27.685,12.171c-0.022,0.079-0.043,0.158-0.064,0.235c-0.89,2.986-2.498,5.308-4.5,6.979
				c0.113,0.925,0.183,1.86,0.217,2.799c1.482,0.16,3.09,0.494,4.918,1.224C100.992,339.389,103.277,342.076,105.501,344.88z"/>
			<path fill="#1D1D1B" d="M378.545,189.216c-5.658-7.865-10.655-15.848-17.637-21.859c-1.367-0.711-2.728-1.474-4.083-2.315
				c-2.511-1.561-5.641-0.644-8.776,0.41c0.613,0.257,1.226,0.561,1.836,0.922c5.941,3.513,10.625,8.279,14.118,13.921
				c0.494,0.354,0.99,0.709,1.489,1.048c6.404,4.338,7.356,11.371,5.106,16.971c0.717,4.185,1.307,8.823,2.566,12.831
				c2.634,0.823,5.363,1.589,8.081,2.405c-0.438-0.391-0.908-0.779-1.439-1.16c5.771-3.319,5.494-11.021,3.853-18.312
				C381.713,192.866,379.965,191.191,378.545,189.216z"/>
			<ellipse fill="#1D1D1B" cx="246.166" cy="165.196" rx="7.131" ry="7.33"/>
			<ellipse fill="#1D1D1B" cx="234.016" cy="204.844" rx="7.022" ry="7.219"/>
			<ellipse fill="#1D1D1B" cx="204.475" cy="227.991" rx="5.461" ry="5.615"/>
			<ellipse fill="#1D1D1B" cx="159.533" cy="292.063" rx="7.696" ry="7.911"/>
			<ellipse fill="#1D1D1B" cx="182.193" cy="265.689" rx="2.892" ry="2.973"/>
			<ellipse fill="#1D1D1B" cx="189.242" cy="205.247" rx="7.055" ry="7.251"/>
			<ellipse fill="#1D1D1B" cx="276.258" cy="154.71" rx="0.001" ry="1.204"/>
			<ellipse fill="#1D1D1B" cx="212.175" cy="145.473" rx="1.948" ry="2.003"/>
			<ellipse fill="#1D1D1B" cx="163.046" cy="232.668" rx="3.511" ry="3.61"/>
			<ellipse fill="#1D1D1B" cx="136.595" cy="271.414" rx="3.229" ry="3.318"/>
			<ellipse fill="#1D1D1B" cx="132.477" cy="335.815" rx="4.118" ry="4.233"/>
			<ellipse fill="#1D1D1B" cx="277.922" cy="162.43" rx="3.742" ry="3.846"/>
			<ellipse fill="#1D1D1B" cx="262.369" cy="110.461" rx="4.16" ry="4.279"/>
			<ellipse fill="#1D1D1B" cx="172.379" cy="169.15" rx="4.796" ry="4.93"/>
			<ellipse fill="#1D1D1B" cx="139.326" cy="207.651" rx="2.729" ry="2.806"/>
			<ellipse fill="#1D1D1B" cx="93.746" cy="287.073" rx="4.85" ry="4.987"/>
			<ellipse fill="#1D1D1B" cx="206.552" cy="316.028" rx="4.604" ry="4.732"/>
			<ellipse fill="#1D1D1B" cx="242.99" cy="248.163" rx="5.074" ry="5.218"/>
			<ellipse fill="#1D1D1B" cx="278.687" cy="237.018" rx="2.427" ry="2.496"/>
			<ellipse fill="#1D1D1B" cx="295.88" cy="211.892" rx="4.123" ry="4.24"/>
			<ellipse fill="#1D1D1B" cx="327.647" cy="265.687" rx="3.121" ry="3.208"/>
			<ellipse fill="#1D1D1B" cx="242.016" cy="309.679" rx="6.048" ry="6.219"/>
			<path fill="#1D1D1B" d="M310.225,153.506c2.873,0,5.204,2.396,5.204,5.352c0,2.955-2.331,5.351-5.204,5.351
				c-2.877,0-5.207-2.396-5.207-5.351C305.018,155.902,307.348,153.506,310.225,153.506z"/>
			<ellipse fill="#1D1D1B" cx="345.423" cy="182.212" rx="4.513" ry="4.64"/>
			<ellipse fill="#1D1D1B" cx="319.978" cy="232.667" rx="4.549" ry="4.677"/>
			<ellipse fill="#1D1D1B" cx="276.258" cy="210.46" rx="5.072" ry="5.212"/>
			<ellipse fill="#1D1D1B" cx="208.181" cy="287.073" rx="6.507" ry="6.69"/>
			<ellipse fill="#1D1D1B" cx="178.622" cy="337.999" rx="6.241" ry="6.417"/>
			<ellipse fill="#1D1D1B" cx="281.711" cy="306.568" rx="3.024" ry="3.108"/>
		</g>
		<g>
			<g>
				<g>
					<path fill="#D57123" d="M306.535,130.007c0.151-10.063-7.604-18.996-9.67-24.833c-2.021-5.707-4.319-10.479-10.149-14.017
						c-10.423-6.328-27.694-6.77-39.135-3.058c-11.81,3.829-24.583,8.11-36.64,12.23c-9.312,3.18-33,5.998-34.717,21.928
						c-5.018,2.249-12.166,7.315-16.965,10.668c-7.993,5.573-6.656,8.474-9.955,17.072c-1.946,5.065-5.664,13.408-10.119,17.106
						c-6.287,5.228-20.556-0.121-27.559,3.832c-10.261,5.792-20.899,9.049-20.85,26.576c0.012,3.734,1.529,7.064,1.922,9.802
						c0.729,5.071-1.386,7.12-2.295,11.798c-1.788,9.173-5.928,12.019-13.855,17.917c-10.832,8.052-16.22,16.65-24.251,28.19
						c-12.357,17.764,9.188,22.256,11.111,37.713c1.113,8.962-0.607,13.67,6.957,20.361c7.354,6.506,11.221,1.838,19.529,5.154
						c6.721,2.682,9.238,11.058,15.573,14.495c10.408,5.645,12.798-3.626,22.08-4.602c7.2-0.759,15.574,7.051,22.996,8.201
						c8.062,1.245,16.362-0.246,24.312,1.474c7.146,1.542,13.156,5.685,21.016,4.098c7.95-1.604,13.623-7.63,21.586-10.217
						c29.417-9.558,66.358-2.74,89.044-26.936c17.828-19.012,50.146-14.521,54.726-45.667c1.88-12.78-4.073-24.779,1.98-36.694
						c3.483-6.862,22.932-19.64,8.8-29.835c9.37-5.387,2.798-22.332,0.331-30.313c-3.427-11.063-12.462-29.33-22.989-34.657
						C331.785,128.913,321.976,141.522,306.535,130.007z"/>
					<path fill="#CC6024" d="M372.004,202.764c9.371-5.387,2.799-22.332,0.332-30.313c-3.428-11.061-12.462-29.33-22.989-34.657
						c-17.562-8.881-27.371,3.728-42.812-7.788c0.038-2.521-0.422-4.969-1.163-7.317L132.021,338.807
						c6.06,1.659,12.594,6.814,18.52,7.732c8.062,1.246,16.363-0.245,24.312,1.473c7.145,1.542,13.157,5.687,21.017,4.1
						c7.95-1.604,13.623-7.63,21.586-10.217c29.416-9.558,66.358-2.74,89.044-26.937c17.828-19.012,50.146-14.522,54.726-45.668
						c1.88-12.778-4.073-24.777,1.98-36.692C366.69,225.737,386.137,212.96,372.004,202.764z"/>
					<path fill="#BD5D19" d="M210.822,117.099c2.868,2.7,5.751,5.377,8.762,7.869c7.403,6.118,15.999,11.88,24.369,4.998
						c4.941-4.062,11.267-4.694,16.029-1.932c6.565-3.651,14.406,1.053,17.625,7.814c5.307-2.593,11.187-4.223,17.337-5.025
						c3.893-0.508,7.793-0.697,11.695-0.741c-0.034-0.027-0.067-0.047-0.104-0.075c0.036-2.327-0.366-4.59-1.007-6.775
						c-11.944-2.527-24.297-4.47-36.291-6.234c-8.844-1.301-18.36,5.058-27.171,6.048c-9.698,1.093-18.536-2.597-26.99-7.058
						C213.797,116.616,212.376,117.013,210.822,117.099z"/>
					<path fill="#BD5D19" d="M177.243,129.321c-0.721-1.194-1.181-2.478-1.457-3.795c-4.495,3.286-8.148,10.088-5.697,13.557
						c2.867,4.053,12.18,7.566,17.058,9.907c3.247,1.559,5.29,2.739,8.608,3.686c0.202,0.048,0.374,0.091,0.519,0.13
						c0.738,0,1.475-0.026,2.211-0.103c1.254-0.171,2.953-0.789,4.17-1.181c0.571-0.182,1.142-0.374,1.711-0.564
						c-3.975,0.515-8.113-0.997-11.529-3.843C186.767,142.052,181.383,136.177,177.243,129.321z"/>
					<path fill="#BD5D19" d="M111.832,237.986c2.668-2.078,5.693-3.438,8.727-3.728c-1.864-1.749-3.24-4.026-3.903-6.56
						c-0.904-3.479-0.427-7.227,1.328-10.347c0.711-1.267,1.528-2.27,2.452-3.105c-3.699-3.63-8.369-6.695-12.958-9.599
						c-5.819-3.68-12.386-7.823-16.037-13.986c-0.374,1.767-0.598,3.723-0.646,5.918c0.088,0.173,0.184,0.333,0.263,0.516
						c2.249,4.972,9.051,6.926,12.017,12.476c3.459,6.467,4.681,14.073,2.278,21.167c-1.772,5.235-4.983,9.46-8.771,13.239
						c3.026-0.73,6.169-1.609,8.586-2.706c1.814-0.824,3.638-1.656,5.351-2.683C110.809,238.419,114.387,235.995,111.832,237.986z"
						/>
					<path fill="#AC4F18" d="M284.364,247.239c-5.993,7.484-16.591,11.918-27.205,12.085c-2.932,4.157-7.814,6.606-13.479,4.785
						c-12.313-3.961-24.363-8.67-36.194-13.938c0.672,4.404,1.622,8.705,2.939,12.854c11.713,4.449,23.918,7.77,35.777,12.115
						c3.093,1.135,5.563,3.413,7.234,6.178c4.28-0.407,9.784-0.063,12.683-1.651c5.156-2.822,8.713-7.189,12.729-11.442
						c7.298-7.728,15.801-11.509,24.131-10.087C296.137,255.744,289.663,252.008,284.364,247.239z"/>
					<path fill="#AC4F18" d="M365.179,229.748c-4.909,2.579-11.026,2.307-15.251-2.419c-6.838-7.655-9.753-16.909-11.696-26.91
						c-0.599-3.073-1.089-6.219-1.915-9.159c-1.881-0.109-3.736-0.52-5.417-1.267c-2.351-1.049-4.821-2.249-7.379-3.487
						c-4.899,3.264-10.31,5.157-15.954,6.277c0,0,0.012,0.004,0.017,0.005c3.427,1.286,6.479,4.137,8.324,7.544
						c3.349,2.154,6.44,4.854,9.121,7.907c5.073,5.772,9.96,14.355,9.968,22.416c10.904,9.034,18.365,19.733,13.295,35.455
						c-2.19,6.791-7.771,9.671-13.24,9.568c-1.12,2.065-2.393,4.061-3.88,5.96c-8.242,10.531-21.275,12.205-33.39,9.211
						c-0.882-0.216-1.689-0.5-2.438-0.825c-0.193,0.209-0.386,0.418-0.575,0.627c-4.045,4.401-8.688,8.983-13.924,11.849
						c-10.27,5.623-20.979,3.469-31.51,7.163c-6.837,2.397-13.211,5.936-19.562,9.434c-4.648,2.564-10.668,4.68-14.754,8.129
						c-1.128,0.952-2.234,1.94-3.334,2.947c-1.105,4.221-4.08,7.786-9.081,8.776c-0.194,0.038-0.371,0.09-0.559,0.133
						c-5.36,4.697-11.09,8.785-18.168,10.564c-0.825,0.206-1.638,0.321-2.438,0.367c4.581,1.603,9.079,3.18,14.428,2.103
						c7.95-1.606,13.624-7.633,21.587-10.22c29.416-9.558,66.358-2.74,89.044-26.936c17.828-19.012,50.146-14.521,54.726-45.667
						c1.88-12.78-4.075-24.779,1.979-36.694C363.647,231.734,364.334,230.779,365.179,229.748z"/>
					<path fill="#BD5D19" d="M97.698,335.251c0.427-0.322,0.852-0.675,1.285-0.986c-0.006-0.008-0.011-0.011-0.014-0.016
						c0.096-0.053,0.182-0.114,0.274-0.164c0.934-0.667,1.879-1.304,2.833-1.92c6.213-5.01,9.735-12.96,18.912-14.402
						c3.51-0.55,7.221-0.369,10.566,0.924c0.236-0.159,0.457-0.331,0.707-0.479c2.67-1.561,4.243-1.477,6.346-2.687
						c0.06-0.071,0.329-0.292,0.642-0.549c0.078-0.703,0.568-2.055,0.587-0.491c0.004-0.002,0.004-0.004,0.004-0.004
						c0.022-0.808,0.014-1.613-0.043-2.412c-0.033-0.182-0.069-0.395-0.119-0.672c-0.365-1.651-0.771-3.29-1.293-4.898
						c-1.529-4.729-1.943-5.543-3.514-9.339c-0.443-1.078-0.891-2.19-1.337-3.321c-2.971,6.246-10.164,9.804-16.53,11.201
						c-5.813,10.718-17.251,17.295-27.684,12.172c-0.023,0.077-0.043,0.156-0.064,0.234c-0.89,2.985-2.498,5.31-4.501,6.977
						c0.113,0.93,0.182,1.863,0.218,2.801c1.482,0.161,3.09,0.493,4.917,1.224C93.19,329.761,95.475,332.45,97.698,335.251z"/>
					<path fill="#AC4F18" d="M370.742,179.59c-5.658-7.865-10.654-15.849-17.635-21.859c-1.369-0.71-2.729-1.473-4.085-2.314
						c-2.511-1.56-5.641-0.644-8.774,0.409c0.611,0.255,1.224,0.562,1.836,0.924c5.939,3.511,10.626,8.276,14.118,13.92
						c0.491,0.354,0.989,0.71,1.486,1.049c6.407,4.337,7.359,11.37,5.107,16.97c0.718,4.185,1.31,8.822,2.566,12.83
						c2.636,0.823,5.363,1.589,8.082,2.406c-0.437-0.392-0.908-0.779-1.44-1.161c5.771-3.317,5.494-11.021,3.853-18.31
						C373.913,183.24,372.162,181.565,370.742,179.59z"/>
				</g>
				<g>
					<ellipse fill="#DD8046" cx="238.364" cy="155.571" rx="7.131" ry="7.331"/>
					<ellipse fill="#DD8046" cx="226.215" cy="195.219" rx="7.022" ry="7.219"/>
					<ellipse fill="#DD8046" cx="196.672" cy="218.364" rx="5.461" ry="5.614"/>
					<ellipse fill="#DD8046" cx="151.73" cy="282.436" rx="7.694" ry="7.91"/>
					<ellipse fill="#DD8046" cx="174.389" cy="256.061" rx="2.893" ry="2.974"/>
					<ellipse fill="#DD8046" cx="181.441" cy="195.62" rx="7.053" ry="7.251"/>
					<ellipse fill="#DD8046" cx="268.456" cy="145.084" rx="0.001" ry="1.204"/>
					<ellipse fill="#DD8046" cx="204.372" cy="135.848" rx="1.948" ry="2.003"/>
					<ellipse fill="#DD8046" cx="155.242" cy="223.042" rx="3.513" ry="3.611"/>
					<ellipse fill="#DD8046" cx="128.792" cy="261.786" rx="3.227" ry="3.319"/>
					<ellipse fill="#DD8046" cx="124.675" cy="326.19" rx="4.118" ry="4.231"/>
					<ellipse fill="#DD8046" cx="270.121" cy="152.806" rx="3.74" ry="3.846"/>
					<ellipse fill="#DD8046" cx="254.567" cy="100.837" rx="4.161" ry="4.279"/>
					<ellipse fill="#DD8046" cx="164.577" cy="159.525" rx="4.796" ry="4.93"/>
					<ellipse fill="#DD8046" cx="131.524" cy="198.026" rx="2.729" ry="2.807"/>
					<ellipse fill="#DD8046" cx="85.942" cy="277.45" rx="4.851" ry="4.987"/>
				</g>
				<g>
					<ellipse fill="#D57123" cx="198.75" cy="306.4" rx="4.604" ry="4.733"/>
					<path fill="#D57123" d="M235.187,233.322c2.805,0,5.075,2.335,5.075,5.215c0,2.884-2.271,5.218-5.075,5.218
						c-2.802,0-5.074-2.334-5.074-5.218C230.113,235.657,232.385,233.322,235.187,233.322z"/>
					<ellipse fill="#D57123" cx="270.883" cy="227.393" rx="2.427" ry="2.496"/>
					<ellipse fill="#D57123" cx="288.077" cy="202.267" rx="4.123" ry="4.24"/>
					<ellipse fill="#D57123" cx="319.845" cy="256.062" rx="3.122" ry="3.209"/>
					<ellipse fill="#D57123" cx="234.213" cy="300.052" rx="6.049" ry="6.219"/>
					<ellipse fill="#D57123" cx="302.422" cy="149.232" rx="5.204" ry="5.352"/>
					<ellipse fill="#D57123" cx="337.621" cy="172.586" rx="4.514" ry="4.64"/>
					<path fill="#D57123" d="M312.177,218.366c2.511,0,4.548,2.094,4.548,4.676c0,2.583-2.037,4.678-4.548,4.678
						c-2.515,0-4.552-2.095-4.552-4.678C307.625,220.46,309.662,218.366,312.177,218.366z"/>
					<ellipse fill="#D57123" cx="268.456" cy="200.833" rx="5.071" ry="5.213"/>
					<ellipse fill="#D57123" cx="200.38" cy="277.449" rx="6.506" ry="6.69"/>
					<ellipse fill="#D57123" cx="170.819" cy="328.375" rx="6.242" ry="6.417"/>
					<ellipse fill="#D57123" cx="273.908" cy="296.944" rx="3.024" ry="3.107"/>
				</g>
			</g>
		</g>
	</g>
	<g>
		<g opacity="0.3">
			<path fill="#1D1D1B" d="M257.778,192.48c0.005,43.436,34.25,78.645,76.5,78.645s76.5-35.21,76.5-78.645H257.778z"/>
			<path fill="#1D1D1B" d="M266.241,192.48c0.004,38.631,30.468,69.952,68.043,69.952c37.585,0,68.046-31.32,68.046-69.952H266.241z
				"/>
			<path fill="#1D1D1B" d="M270.706,192.48c0.001,36.094,28.463,65.358,63.571,65.358c35.11,0,63.572-29.264,63.572-65.358H270.706z
				"/>
			<path fill="#1D1D1B" d="M321.178,192.989c-7.738-0.723-11.976-0.228-19.637-0.398c-6.336-0.139-14.977-0.967-18.713,5.265
				c-3.371,5.625-1.979,13.415,1.797,18.132c4.137,5.174,10.321,4.003,16.009,2.057c5.452-1.863,10.046-6.461,14.067-10.503
				c3.92-3.943,9.134-6.82,11.962-11.584C327.417,192.883,322.488,192.715,321.178,192.989z"/>
			<path fill="#1D1D1B" d="M345.842,192.989c7.735-0.723,11.977-0.228,19.638-0.398c6.335-0.139,14.976-0.967,18.71,5.265
				c3.371,5.625,1.978,13.415-1.796,18.132c-4.141,5.174-10.321,4.003-16.008,2.057c-5.452-1.863-10.046-6.461-14.065-10.503
				c-3.924-3.943-9.138-6.82-11.963-11.584C339.603,192.883,344.529,192.715,345.842,192.989z"/>
			<path fill="#1D1D1B" d="M342.298,203.631c5.607,5.53,8.028,9.146,13.178,14.978c4.258,4.823,10.533,10.984,8.409,17.971
				c-1.915,6.304-8.553,10.339-14.486,10.504c-6.516,0.185-9.713-5.386-12.013-11.068c-2.208-5.454-1.849-12.034-1.52-17.808
				c0.322-5.628-0.986-11.562,0.655-16.881C338.286,198.719,341.641,202.434,342.298,203.631z"/>
			<path fill="#1D1D1B" d="M324.719,203.631c-5.604,5.53-8.025,9.146-13.173,14.978c-4.261,4.823-10.534,10.984-8.411,17.971
				c1.914,6.304,8.55,10.339,14.487,10.504c6.516,0.185,9.712-5.386,12.013-11.068c2.209-5.454,1.846-12.034,1.518-17.808
				c-0.322-5.628,0.986-11.562-0.654-16.881C328.733,198.719,325.38,202.434,324.719,203.631z"/>
		</g>
		<g>
			<g>
				<path fill="#EEBF5C" d="M249.977,182.853c0.003,43.436,34.25,78.645,76.498,78.645c42.25,0,76.5-35.209,76.5-78.645H249.977z"/>
				<path fill="#F2DEBB" d="M258.44,182.853c0.004,38.632,30.467,69.951,68.044,69.951c37.583,0,68.044-31.32,68.044-69.951H258.44z
					"/>
				<path fill="#FFFDF5" d="M262.905,182.853c0.001,36.096,28.464,65.356,63.57,65.356c35.111,0,63.572-29.262,63.572-65.356
					H262.905z"/>
				<g>
					<path fill="#E8DD9E" d="M313.375,183.363c-7.738-0.722-11.975-0.229-19.637-0.397c-6.336-0.14-14.977-0.967-18.713,5.266
						c-3.369,5.624-1.978,13.414,1.797,18.13c4.137,5.174,10.324,4.004,16.009,2.057c5.453-1.862,10.047-6.46,14.067-10.502
						c3.92-3.944,9.136-6.822,11.962-11.583C319.616,183.256,314.688,183.089,313.375,183.363z"/>
					<path fill="#E8DD9E" d="M338.039,183.363c7.737-0.722,11.977-0.229,19.639-0.397c6.333-0.14,14.976-0.967,18.711,5.266
						c3.369,5.624,1.976,13.414-1.797,18.13c-4.14,5.174-10.321,4.004-16.008,2.057c-5.453-1.862-10.045-6.46-14.066-10.502
						c-3.924-3.944-9.138-6.822-11.963-11.583C331.802,183.256,336.726,183.089,338.039,183.363z"/>
					<path fill="#E8DD9E" d="M334.495,194.006c5.609,5.53,8.03,9.146,13.178,14.978c4.258,4.823,10.532,10.983,8.409,17.969
						c-1.913,6.304-8.553,10.34-14.484,10.503c-6.518,0.186-9.715-5.384-12.015-11.068c-2.206-5.453-1.849-12.033-1.518-17.806
						c0.321-5.627-0.988-11.563,0.653-16.881C330.486,189.094,333.838,192.807,334.495,194.006z"/>
					<path fill="#E8DD9E" d="M316.918,194.006c-5.604,5.53-8.025,9.146-13.174,14.978c-4.26,4.823-10.535,10.983-8.412,17.969
						c1.915,6.304,8.552,10.34,14.489,10.503c6.515,0.186,9.71-5.384,12.012-11.068c2.208-5.453,1.845-12.033,1.516-17.806
						c-0.321-5.627,0.988-11.563-0.652-16.881C320.93,189.094,317.577,192.807,316.918,194.006z"/>
				</g>
			</g>
		</g>
	</g>
</g>
</svg>
