<?xml version="1.0" encoding="utf-8"?>
<!-- Generator: Adobe Illustrator 16.0.0, SVG Export Plug-In . SVG Version: 6.00 Build 0)  -->
<!DOCTYPE svg PUBLIC "-//W3C//DTD SVG 1.1//EN" "http://www.w3.org/Graphics/SVG/1.1/DTD/svg11.dtd">
<svg version="1.1" id="Ebene_1" xmlns="http://www.w3.org/2000/svg" xmlns:xlink="http://www.w3.org/1999/xlink" x="0px" y="0px"
	 width="450px" height="450px" viewBox="0 0 450 450" enable-background="new 0 0 450 450" xml:space="preserve">
<g>
	<g>
		<g opacity="0.3">
			<path opacity="0.3" d="M227.002,172.872c1.188-0.162,0.051,0.188,0.174,2.12c0.041,0.625,0.531,1.4,0.521,2.381
				c-0.006,0.696-0.01,1.501-0.055,2.408c-0.035,0.725-0.361,1.508-0.428,2.384c-0.057,0.74-0.365,1.514-0.447,2.371
				c-0.07,0.749-0.162,1.54-0.256,2.384c-0.084,0.756,0.375,1.616,0.273,2.453c-0.043,0.351-0.855,1.04-1.285,2.114
				c-0.26,0.646-0.066,1.604-0.418,2.393c-0.307,0.69-0.699,1.399-1.051,2.134c-0.338,0.712-0.811,1.378-1.168,2.077
				c-0.373,0.731-0.846,1.392-1.213,2.048c-0.43,0.765-0.627,1.606-1.012,2.181c-0.678,1.014-1.49,1.378-1.857,1.378
				c-0.293,0-1.105-0.098-2.16-0.618c-0.594-0.293-1.283-0.655-2.031-1.058c-0.631-0.339-1.23-0.847-1.928-1.237
				c-0.648-0.362-1.201-0.942-1.877-1.328c-0.66-0.377-1.379-0.665-2.037-1.046c-0.674-0.391-1.426-0.63-2.064-1.006
				c-0.693-0.407-1.221-1.027-1.838-1.394c-0.732-0.435-1.613-0.467-2.18-0.807c-1.203-0.72-1.326-0.296-2.037-1.188
				c-0.764-0.955-0.641-1.072-1.279-2.114c-0.639-1.042-0.273-1.266-0.912-2.308c-0.639-1.043-0.713-0.999-1.352-2.041
				c-0.641-1.044-0.818-0.936-1.459-1.98c-0.639-1.044-1.68-0.98-1.262-2.131c0.42-1.149,1.143-0.531,2.303-0.917
				c1.162-0.387,1.145-0.444,2.307-0.83c1.162-0.386,1.211-0.235,2.373-0.621s1.084-0.625,2.246-1.012
				c1.162-0.386,1.213-0.235,2.375-0.622c1.164-0.386,1.27-0.068,2.432-0.455c1.164-0.387,1.111-0.543,2.275-0.93
				c1.16-0.386,1.244-0.132,2.406-0.518c1.162-0.386,1.168-0.369,2.33-0.755c1.164-0.387,1.119-0.523,2.283-0.91
				s1.047-0.739,2.211-1.126c1.164-0.387,1.186-0.323,2.35-0.709c1.166-0.388,1.271-0.065,2.439-0.449
				C225.852,173.21,225.785,173.039,227.002,172.872z"/>
			<path opacity="0.3" d="M218.985,202.951c-0.104,0.44,0.162,0.586-0.24,0.795c-1.014,0.527-0.809-0.133-2.189-0.456
				c-0.637-0.149-1.334-0.555-2.168-0.752c-0.691-0.164-1.5-0.091-2.287-0.279c-0.713-0.171-1.49-0.209-2.254-0.395
				c-0.729-0.177-1.48-0.333-2.232-0.518c-0.738-0.183-1.416-0.636-2.156-0.821c-0.75-0.188-1.518-0.285-2.244-0.472
				c-0.764-0.196-1.484-0.48-2.195-0.669c-0.783-0.208-1.563-0.28-2.248-0.472c-0.828-0.232-1.559-0.494-2.184-0.69
				c-1.217-0.381-1.781-0.813-1.887-0.985c-0.145-0.237-0.396-1.018-0.484-2.269c-0.051-0.716-0.371-1.533-0.404-2.416
				c-0.029-0.784-0.004-1.614-0.02-2.44c-0.018-0.827,0.287-1.657,0.283-2.441c-0.006-0.889-0.301-1.723-0.291-2.441
				c0.018-1.388,0.127-2.407,0.195-2.48c0.049-0.053,0.967-0.292,2.326-0.38c0.654-0.042,1.441,0.147,2.293,0.1
				c0.711-0.039,1.471-0.192,2.275-0.233c0.734-0.038,1.518,0.281,2.299,0.244c0.752-0.036,1.504-0.364,2.27-0.399
				c0.766-0.035,1.545,0.185,2.297,0.151c0.783-0.035,1.541-0.291,2.277-0.323c0.805-0.035,1.578,0.036,2.291,0.006
				c0.854-0.037,1.631,0.076,2.287,0.048c1.406-0.059,1.316-0.981,2.152-0.204c-0.037,0.813,0.031,1.483,0.051,2.265
				c0.021,0.812,0.176,1.602,0.242,2.384c0.07,0.806-0.055,1.625,0.053,2.404c0.109,0.801,0.373,1.571,0.506,2.349
				c0.135,0.796,0.438,1.551,0.578,2.327c0.146,0.793,0.232,1.589,0.367,2.366c0.137,0.793,0.344,1.571,0.451,2.353
				c0.107,0.795,0.082,1.604,0.139,2.394C219.19,201.396,219,202.155,218.985,202.951z"/>
			<path opacity="0.3" d="M194.006,183.538c-0.064,0.207,0.527,0.31,1.766,0.909c0.602,0.29,1.131,1.019,1.939,1.364
				c0.666,0.285,1.439,0.477,2.207,0.784c0.695,0.278,1.475,0.433,2.225,0.718c0.715,0.272,1.313,0.916,2.055,1.186
				c0.732,0.267,1.555,0.3,2.289,0.556c0.748,0.26,1.438,0.673,2.168,0.914c0.766,0.254,1.518,0.493,2.234,0.715
				c0.793,0.246,1.697-0.043,2.396,0.151c0.852,0.236,1.596,0.435,2.248,0.57c1.32,0.276,2.35,0.706,2.436,0.416
				c0.201-0.675,0.119-1.515,0.43-2.278c0.275-0.677,0.951-1.219,1.291-1.943c0.316-0.675,0.168-1.604,0.521-2.303
				c0.346-0.676,1.143-1.129,1.508-1.811c0.361-0.679,0.439-1.513,0.809-2.181c0.377-0.684,1.006-1.218,1.373-1.875
				c0.387-0.694,0.781-1.36,1.139-2.005c0.398-0.714,0.277-1.661,0.615-2.29c0.408-0.764,1.285-1.192,1.564-1.788
				c0.518-1.107,0.531-1.976,0.371-2.263c-0.137-0.243-0.941-0.362-2.064-0.77c-0.609-0.221-1.219-0.793-2.023-1.042
				c-0.672-0.207-1.488-0.108-2.252-0.326c-0.699-0.198-1.383-0.56-2.129-0.76c-0.717-0.193-1.379-0.665-2.111-0.853
				c-0.734-0.188-1.592,0.12-2.314-0.058c-0.75-0.185-1.352-0.925-2.061-1.092c-0.775-0.182-1.547-0.225-2.234-0.378
				c-0.822-0.183-1.646,0.033-2.285-0.096c-1.189-0.24-1.967-0.686-2.186-0.665c-0.238,0.023-1.072,0.617-1.887,1.694
				c-0.426,0.564-0.625,1.453-1.146,2.203c-0.439,0.63-1.109,1.173-1.588,1.888c-0.441,0.661-0.822,1.4-1.277,2.099
				c-0.445,0.684-0.592,1.57-1.031,2.258c-0.449,0.703-1.35,1.109-1.771,1.784c-0.455,0.728-0.473,1.689-0.875,2.345
				c-0.477,0.777-1.115,1.361-1.479,1.972C194.205,182.425,194.076,183.323,194.006,183.538z"/>
			<path opacity="0.3" d="M194.406,212.562c-1.148,0.474-0.105,1.254-0.068,2.755c0.02,0.727,0.592,1.56,0.617,2.476
				c0.021,0.789,0.066,1.627,0.092,2.483c0.025,0.827-0.275,1.678-0.248,2.504c0.027,0.857-0.225,1.709-0.195,2.5
				c0.035,0.915,0.057,1.764,0.092,2.491c0.066,1.347,0.768,2.152,0.83,2.343c0.051,0.153,0.236,1.06,1.363,1.89
				c0.564,0.416,1.613,0.372,2.361,0.9c0.621,0.439,1.252,0.967,1.965,1.459c0.645,0.446,1.234,1.034,1.928,1.508
				c0.664,0.451,1.271,1.015,1.957,1.477c0.678,0.455,1.531,0.654,2.211,1.105c0.689,0.459,1.113,1.305,1.785,1.746
				c0.705,0.463,1.541,0.688,2.203,1.115c0.727,0.473,1.418,0.92,2.063,1.328c0.775,0.493,1.381,1.087,1.982,1.452
				c1.182,0.72,1.982,1.436,2.152,1.44c0.207,0.008,0.826-1.09,1.371-2.425c0.273-0.672,0.389-1.544,0.709-2.417
				c0.27-0.74,0.848-1.436,1.135-2.261c0.27-0.774,0.072-1.736,0.342-2.537s0.486-1.618,0.744-2.399
				c0.273-0.83,0.553-1.629,0.795-2.381c0.287-0.885,1.025-1.543,1.246-2.236c0.463-1.453,0.049-1.287,0.645-2.39
				c0.553-1.023,0.424-1.095,1.059-2.07c0.635-0.977,0.66-0.96,1.297-1.937c0.637-0.978,0.508-1.061,1.145-2.039
				c0.635-0.978,0.576-1.016,1.213-1.994c0.637-0.978,0.793-0.876,1.428-1.854c0.639-0.979,0.393-1.14,1.029-2.119
				c0.639-0.979,2.018-0.652,1.428-1.661c-0.611-1.043-1.049-0.297-2.258-0.294c-1.209,0.003-1.209,0.196-2.418,0.199
				c-1.207,0.003-1.209-0.31-2.416-0.306c-1.211,0.003-1.211-0.018-2.42-0.015c-1.211,0.003-1.209,0.171-2.418,0.175
				c-1.211,0.003-1.209,0.439-2.42,0.442c-1.209,0.003-1.209-0.076-2.42-0.072c-1.209,0.003-1.211-0.4-2.42-0.396
				c-1.211,0.003-1.211,0.042-2.422,0.046c-1.209,0.003-1.207,0.264-2.416,0.267c-1.209,0.003-1.209-0.017-2.418-0.014
				c-1.211,0.003-1.211-0.056-2.422-0.053c-1.211,0.003-1.211-0.305-2.422-0.301c-1.213,0.003-1.211,0.251-2.422,0.254
				c-1.215,0.003-1.221,0.222-2.414,0C195.668,212.51,195.53,212.099,194.406,212.562z"/>
			<path opacity="0.3" d="M217.401,244.982c0.082,0.081,1.031-0.422,2.117-1.347c0.521-0.442,0.947-1.181,1.609-1.769
				c0.555-0.492,1.279-0.881,1.896-1.439c0.568-0.517,0.947-1.283,1.541-1.83c0.58-0.533,1.346-0.88,1.922-1.418
				c0.59-0.549,1.057-1.22,1.617-1.748c0.604-0.57,1.264-1.035,1.803-1.549c0.637-0.609,1.104-1.283,1.596-1.762
				c0.951-0.93,1.756-1.412,1.83-1.547c0.078-0.144,0.174-1.018,0.279-2.25c0.055-0.646,0.023-1.409,0.078-2.234
				c0.047-0.702,0.273-1.443,0.314-2.219c0.041-0.73-0.051-1.49-0.018-2.242c0.035-0.752-0.043-1.51-0.018-2.241
				c0.027-0.779-0.197-1.538-0.184-2.242c0.018-0.829,0.271-1.582,0.266-2.229c-0.01-1.307-0.021-2.14-0.156-2.18
				c-0.287-0.086-1.143-0.062-2.326-0.085c-0.686-0.014-1.48-0.35-2.34-0.348c-0.744,0.001-1.533,0.249-2.338,0.258
				c-0.777,0.009-1.57-0.095-2.346-0.081c-0.809,0.014-1.596,0.331-2.342,0.347c-0.863,0.019-1.664-0.144-2.348-0.125
				c-1.412,0.036-1.4-0.638-2.348,0.047c0,0.64-0.184,1.428-0.189,2.307c-0.002,0.701,0.447,1.471,0.441,2.292
				c-0.006,0.726-0.318,1.491-0.324,2.289c-0.006,0.74,0.285,1.51,0.277,2.297c-0.008,0.749-0.547,1.51-0.555,2.287
				c-0.008,0.757,0.152,1.527,0.146,2.297c-0.008,0.766,0.26,1.536,0.254,2.303c-0.008,0.771,0.033,1.539,0.027,2.299
				c-0.006,0.779-0.393,1.545-0.396,2.297c-0.006,0.787-0.129,1.555-0.131,2.297c-0.004,0.799,0.137,1.57,0.135,2.301
				c0,0.819,0.449,1.588,0.453,2.295c0.004,0.869-0.373,1.646-0.361,2.299C217.311,243.974,217.332,244.914,217.401,244.982z"/>
			<path opacity="0.3" d="M233.793,212.722c0,0.169-0.621,0.616-1.529,1.516c-0.459,0.456-0.709,1.291-1.324,1.867
				c-0.512,0.48-1.389,0.645-1.975,1.179c-0.535,0.489-0.867,1.248-1.439,1.762c-0.555,0.496-0.988,1.146-1.557,1.646
				c-0.566,0.501-1.066,1.085-1.627,1.572c-0.582,0.507-1.346,0.783-1.898,1.256c-0.604,0.517-1.307,0.86-1.846,1.312
				c-0.648,0.542-1.16,1.121-1.666,1.526c-1.006,0.808-1.678,1.461-1.813,1.461c-0.129,0-0.838-0.758-2.066-1.485
				c-0.607-0.359-1.271-0.862-2.057-1.343c-0.652-0.399-1.51-0.586-2.248-1.047c-0.67-0.417-1.41-0.787-2.125-1.239
				c-0.682-0.431-1.193-1.165-1.895-1.613c-0.689-0.442-1.619-0.525-2.309-0.972c-0.699-0.453-1.227-1.157-1.902-1.601
				c-0.709-0.466-1.328-1.03-1.984-1.471c-0.725-0.486-1.404-0.956-2.035-1.391c-0.762-0.527-1.771-0.549-2.342-0.968
				c-1.141-0.839-2.002-1.684-2.002-1.862s0.775-0.989,1.734-1.918c0.482-0.468,1.422-0.626,2.072-1.219
				c0.539-0.491,1.113-1.026,1.736-1.577c0.564-0.499,0.814-1.408,1.424-1.936c0.582-0.504,1.525-0.612,2.129-1.126
				c0.596-0.507,1.016-1.23,1.615-1.732c0.609-0.51,1.172-1.07,1.768-1.559c0.625-0.514,1.51-0.674,2.102-1.146
				c0.648-0.521,1.037-1.302,1.613-1.749c0.697-0.541,1.225-1.17,1.771-1.564c1.039-0.749,1.877-0.667,2.113-0.667
				c0.234,0,0.824,0.259,1.859,1.006c0.545,0.392,1.16,0.874,1.852,1.41c0.574,0.445,1.404,0.659,2.051,1.176
				c0.584,0.469,1.207,0.946,1.828,1.456c0.592,0.486,1.035,1.18,1.643,1.686c0.598,0.5,1.293,0.891,1.887,1.396
				c0.604,0.512,1.375,0.82,1.957,1.321c0.609,0.527,0.883,1.412,1.447,1.909c0.621,0.548,1.43,0.827,1.969,1.315
				c0.65,0.59,1.367,0.992,1.852,1.456C233.543,211.689,233.793,212.559,233.793,212.722z"/>
			<path opacity="0.3" d="M232.727,190.924c-1.188-0.162-0.504,0.493-0.627,2.424c-0.039,0.626,0.297,1.422,0.307,2.404
				c0.008,0.695-0.367,1.503-0.322,2.41c0.035,0.725,0.369,1.506,0.436,2.381c0.057,0.74,0.291,1.521,0.373,2.377
				c0.07,0.75,0.244,1.531,0.338,2.375c0.084,0.756-0.064,1.578,0.039,2.414c0.043,0.351,0.17,1.212,0.6,2.286
				c0.26,0.646,0.67,1.349,1.02,2.139c0.307,0.689,0.764,1.359,1.113,2.094c0.338,0.711,0.436,1.558,0.791,2.257
				c0.375,0.731,0.689,1.481,1.059,2.138c0.428,0.765,1.059,1.337,1.441,1.911c0.68,1.014,1.242,1.579,1.609,1.579
				c0.293,0,1.146-0.049,2.201-0.569c0.594-0.293,1.115-0.976,1.863-1.378c0.631-0.339,1.426-0.489,2.125-0.878
				c0.646-0.362,1.371-0.647,2.045-1.033c0.66-0.377,1.33-0.757,1.986-1.139c0.674-0.391,1.1-1.189,1.74-1.565
				c0.691-0.407,1.338-0.827,1.953-1.192c0.732-0.435,1.449-0.743,2.016-1.082c1.201-0.72,1.535,0.035,2.248-0.857
				c0.764-0.955,0.645-1.074,1.283-2.116s0.268-1.271,0.906-2.313c0.639-1.043,1.02-0.809,1.66-1.852
				c0.641-1.044,0.438-1.168,1.078-2.213s1.643-0.917,1.223-2.068c-0.42-1.15-1.008-0.695-2.17-1.081
				c-1.162-0.386-1.262-0.09-2.424-0.476c-1.162-0.386-1.213-0.237-2.373-0.624c-1.164-0.386-1.014-0.837-2.178-1.224
				c-1.162-0.386-1.201-0.27-2.363-0.656s-1.158-0.397-2.322-0.784c-1.162-0.386-1.256-0.109-2.418-0.496
				c-1.162-0.386-1.168-0.368-2.328-0.754c-1.162-0.386-1.096-0.586-2.258-0.972c-1.164-0.387-1.203-0.269-2.367-0.655
				s-1.236-0.173-2.398-0.56c-1.166-0.387-1.035-0.776-2.201-1.163c-1.166-0.388-1.299-0.032-2.43-0.516
				C233.856,191.405,233.946,191.091,232.727,190.924z"/>
			<path opacity="0.3" d="M240.658,221.344c0.105,0.439-0.176,0.684,0.225,0.892c1.016,0.526,0.846-0.327,2.227-0.65
				c0.637-0.149,1.371-0.401,2.205-0.598c0.691-0.164,1.469-0.212,2.256-0.4c0.713-0.171,1.432-0.455,2.195-0.64
				c0.729-0.177,1.482-0.318,2.232-0.502c0.74-0.183,1.512-0.255,2.252-0.44c0.75-0.188,1.488-0.397,2.217-0.584
				c0.764-0.196,1.547-0.24,2.258-0.429c0.783-0.208,1.482-0.576,2.168-0.769c0.828-0.232,1.52-0.61,2.146-0.807
				c1.215-0.381,2.076-0.48,2.182-0.653c0.145-0.236,0.387-1.146,0.475-2.397c0.051-0.716,0.074-1.551,0.107-2.434
				c0.031-0.784,0.014-1.613,0.031-2.438c0.016-0.827-0.08-1.655-0.074-2.438c0.004-0.889,0.15-1.724,0.143-2.442
				c-0.02-1.387-0.146-2.393-0.213-2.465c-0.049-0.053-0.973-0.008-2.33-0.097c-0.654-0.042-1.424-0.112-2.275-0.159
				c-0.711-0.039-1.475-0.132-2.277-0.173c-0.734-0.037-1.51,0.139-2.291,0.101c-0.75-0.036-1.5-0.432-2.266-0.467
				c-0.766-0.035-1.549,0.289-2.303,0.255c-0.783-0.035-1.535-0.386-2.271-0.418c-0.807-0.035-1.588,0.257-2.301,0.226
				c-0.854-0.036-1.617-0.309-2.273-0.336c-1.406-0.059-1.6-1.009-2.436-0.232c0.035,0.813,0,1.771-0.02,2.554
				c-0.021,0.812,0.072,1.608,0.004,2.391c-0.07,0.807-0.039,1.613-0.145,2.392c-0.109,0.802-0.146,1.607-0.279,2.384
				c-0.135,0.796-0.293,1.58-0.434,2.356c-0.146,0.793-0.604,1.521-0.738,2.298c-0.137,0.793-0.256,1.586-0.361,2.368
				c-0.109,0.795,0.074,1.616,0.018,2.405C240.655,219.79,240.643,220.548,240.658,221.344z"/>
			<path opacity="0.3" d="M265.906,201.848c0.066,0.207-0.504,0.897-1.744,1.497c-0.6,0.291-1.357,0.556-2.164,0.901
				c-0.668,0.285-1.477,0.393-2.244,0.7c-0.695,0.278-1.512,0.333-2.264,0.618c-0.715,0.272-1.27,1.029-2.012,1.3
				c-0.73,0.267-1.516,0.409-2.25,0.665c-0.748,0.261-1.443,0.667-2.17,0.907c-0.766,0.254-1.6,0.241-2.316,0.463
				c-0.793,0.246-1.613,0.237-2.313,0.431c-0.852,0.236-1.545,0.717-2.197,0.853c-1.32,0.276-2.455,0.318-2.543,0.028
				c-0.201-0.675,0.096-1.6-0.215-2.363c-0.275-0.677-0.992-1.211-1.332-1.935c-0.316-0.675-0.584-1.397-0.939-2.096
				c-0.346-0.676-0.941-1.23-1.305-1.912c-0.363-0.678-0.404-1.532-0.773-2.2c-0.377-0.684-0.709-1.382-1.076-2.039
				c-0.387-0.694-0.621-1.448-0.979-2.093c-0.398-0.714-0.818-1.363-1.154-1.992c-0.41-0.765-0.881-1.39-1.16-1.985
				c-0.518-1.107-0.893-1.88-0.732-2.167c0.135-0.243,1.018-0.307,2.141-0.714c0.609-0.221,1.32-0.46,2.125-0.708
				c0.672-0.207,1.273-0.842,2.037-1.059c0.699-0.199,1.406-0.497,2.152-0.697c0.717-0.193,1.451-0.385,2.186-0.573
				c0.734-0.188,1.557-0.031,2.277-0.209c0.752-0.185,1.406-0.707,2.115-0.874c0.773-0.182,1.574-0.089,2.262-0.242
				c0.822-0.183,1.547-0.45,2.186-0.579c1.188-0.24,2.016-0.188,2.232-0.167c0.24,0.022,0.816,0.648,1.629,1.725
				c0.426,0.564,0.92,1.231,1.443,1.981c0.438,0.63,0.721,1.433,1.199,2.147c0.441,0.661,1.068,1.232,1.525,1.932
				c0.445,0.683,1.004,1.304,1.441,1.992c0.449,0.703,0.588,1.589,1.012,2.264c0.455,0.728,1.199,1.238,1.602,1.894
				c0.477,0.777,0.969,1.454,1.33,2.064C265.59,200.742,265.838,201.632,265.906,201.848z"/>
			<path opacity="0.3" d="M211.877,240.856c1.369-0.093,0.541,0.349,0.531,2.563c-0.004,0.721-0.629,1.594-0.717,2.717
				c-0.061,0.795,0.529,1.766,0.408,2.796c-0.098,0.825-0.666,1.675-0.811,2.669c-0.121,0.841-0.059,1.775-0.219,2.748
				c-0.141,0.85-0.236,1.762-0.408,2.719c-0.154,0.856-0.619,1.701-0.803,2.648c-0.076,0.398-0.186,1.396-0.762,2.59
				c-0.346,0.718-0.59,1.637-1.053,2.512c-0.404,0.764-1.041,1.468-1.5,2.281c-0.441,0.787-1.15,1.434-1.613,2.205
				c-0.482,0.806-0.563,1.844-1.033,2.564c-0.549,0.84-1.344,1.424-1.826,2.05c-0.854,1.104-1.568,2.019-1.988,1.989
				c-0.334-0.022-1.039-0.885-2.207-1.563c-0.656-0.381-1.676-0.406-2.5-0.924c-0.693-0.437-1.283-1.151-2.051-1.65
				c-0.713-0.464-1.266-1.22-2.006-1.713c-0.727-0.481-1.818-0.432-2.539-0.918c-0.738-0.498-1.512-0.931-2.213-1.41
				c-0.76-0.518-1.17-1.48-1.846-1.945c-0.803-0.555-1.619-0.934-2.24-1.364c-1.314-0.915-1.297-0.478-2.041-1.552
				c-0.799-1.15-1.107-0.979-1.758-2.219c-0.648-1.24-0.064-1.546-0.713-2.785c-0.648-1.241-0.947-1.086-1.596-2.326
				c-0.65-1.242-0.635-1.25-1.285-2.493c-0.648-1.242-2.049-1.319-1.48-2.601s1.611-0.115,2.967-0.465
				c1.357-0.352,1.395-0.211,2.752-0.563c1.357-0.35,1.285-0.633,2.641-0.982c1.357-0.352,1.293-0.606,2.65-0.957
				c1.357-0.352,1.369-0.309,2.727-0.66s1.414-0.129,2.773-0.48c1.357-0.352,1.35-0.384,2.709-0.734
				c1.359-0.352,1.457,0.03,2.816-0.321c1.357-0.351,1.281-0.646,2.639-0.996c1.359-0.351,1.404-0.179,2.762-0.53
				c1.359-0.352,1.236-0.824,2.596-1.176s1.365-0.334,2.725-0.685c1.361-0.353,1.412-0.154,2.764-0.542
				C210.475,240.969,210.475,240.952,211.877,240.856z"/>
			<path opacity="0.3" d="M200.655,274.799c-0.152,0.494-0.043,0.772-0.518,0.979c-1.199,0.523-1.035-0.236-2.586-0.712
				c-0.717-0.22-1.564-0.472-2.502-0.763c-0.777-0.24-1.646-0.408-2.529-0.684c-0.803-0.25-1.553-0.791-2.41-1.063
				c-0.818-0.258-1.641-0.564-2.484-0.834c-0.83-0.266-1.775-0.197-2.605-0.467c-0.842-0.273-1.518-1.035-2.332-1.305
				c-0.857-0.284-1.684-0.58-2.482-0.852c-0.879-0.299-1.781-0.383-2.549-0.655c-0.928-0.329-1.746-0.665-2.445-0.938
				c-1.359-0.53-2.158-0.911-2.266-1.116c-0.148-0.282-0.395-1.275-0.398-2.711c-0.002-0.822,0.053-1.774,0.084-2.785
				c0.027-0.898,0.205-1.838,0.25-2.782c0.045-0.945-0.039-1.897,0.016-2.792c0.063-1.016-0.057-1.984,0.01-2.804
				c0.129-1.583,0.432-2.714,0.514-2.792c0.061-0.057,1.109-0.162,2.668-0.158c0.75,0.002,1.633,0.189,2.609,0.202
				c0.814,0.011,1.693,0.056,2.615,0.071c0.842,0.015,1.721-0.162,2.615-0.145c0.861,0.018,1.736,0.284,2.613,0.303
				c0.879,0.02,1.76-0.027,2.621-0.008c0.896,0.02,1.779-0.047,2.623-0.027c0.922,0.022,1.807-0.064,2.621-0.044
				c0.979,0.024,1.855,0.28,2.607,0.302c1.611,0.041,1.537-0.797,2.432,0.154c-0.104,0.926,0.053,1.664,0.016,2.559
				c-0.039,0.93,0.064,1.838,0.082,2.736c0.02,0.927-0.309,1.855-0.248,2.754c0.063,0.924,0.461,1.81,0.553,2.707
				c0.092,0.92-0.021,1.851,0.08,2.748c0.104,0.916,0.156,1.827,0.25,2.725c0.096,0.917,0.377,1.805,0.439,2.707
				c0.061,0.916-0.191,1.828-0.188,2.734C200.434,272.959,200.735,273.889,200.655,274.799z"/>
			<path opacity="0.3" d="M173.344,250.599c-0.092,0.23,0.363,0.825,1.732,1.605c0.662,0.379,1.533,0.674,2.43,1.131
				c0.74,0.377,1.482,0.906,2.336,1.316c0.775,0.372,1.678,0.561,2.516,0.946c0.795,0.366,1.582,0.802,2.408,1.167
				c0.814,0.361,1.486,1.078,2.305,1.428c0.834,0.355,1.77,0.453,2.582,0.785c0.855,0.349,1.852,0.273,2.652,0.582
				c0.887,0.342,1.699,0.725,2.482,1c0.951,0.335,1.666,1.086,2.398,1.291c1.486,0.418,2.305,0.217,2.428-0.107
				c0.281-0.755,0.701-1.558,1.115-2.405c0.367-0.753,0.604-1.641,1.049-2.441c0.414-0.747,1.18-1.33,1.639-2.1
				c0.445-0.745,0.758-1.591,1.227-2.342c0.469-0.747,1.416-1.19,1.889-1.925c0.482-0.752,0.578-1.74,1.049-2.462
				c0.496-0.763,1.318-1.284,1.777-1.993c0.51-0.785,0.695-1.721,1.129-2.412c0.525-0.842,1.129-1.524,1.494-2.183
				c0.678-1.225,1.236-2.321,1.076-2.662c-0.137-0.288-1.178-0.835-2.43-1.387c-0.68-0.3-1.572-0.444-2.473-0.79
				c-0.75-0.289-1.623-0.433-2.479-0.74c-0.783-0.28-1.488-0.893-2.322-1.179c-0.807-0.276-1.699-0.343-2.523-0.614
				s-1.727-0.295-2.539-0.555c-0.842-0.269-1.641-0.617-2.438-0.863c-0.869-0.268-1.736-0.396-2.51-0.625
				c-0.926-0.272-1.713-0.687-2.432-0.883c-1.338-0.366-2.225-0.412-2.477-0.404c-0.273,0.008-1.193,0.334-2.205,1.502
				c-0.529,0.611-1.252,1.264-1.906,2.08c-0.551,0.686-1.018,1.527-1.619,2.307c-0.555,0.721-1.16,1.449-1.736,2.213
				c-0.561,0.744-0.758,1.773-1.313,2.525c-0.568,0.768-1.545,1.223-2.08,1.961c-0.578,0.797-0.598,1.945-1.107,2.664
				c-0.605,0.85-1.283,1.533-1.742,2.203C173.869,249.478,173.442,250.357,173.344,250.599z"/>
			<path opacity="0.3" d="M303.551,202.601c1.188-0.163,0.576,0.569,0.699,2.5c0.041,0.626,0.064,1.43,0.055,2.411
				c-0.008,0.696-0.373,1.483-0.418,2.39c-0.035,0.725,0.26,1.546,0.193,2.421c-0.057,0.74-0.387,1.517-0.471,2.374
				c-0.07,0.749-0.047,1.556-0.139,2.4c-0.084,0.756-0.359,1.531-0.463,2.367c-0.043,0.351-0.289,1.16-0.719,2.234
				c-0.26,0.646-0.563,1.39-0.914,2.18c-0.307,0.69-0.832,1.326-1.182,2.061c-0.34,0.712-0.51,1.517-0.867,2.216
				c-0.373,0.73-0.635,1.502-1.004,2.16c-0.426,0.764-1.135,1.271-1.52,1.845c-0.68,1.015-1.047,1.896-1.416,1.896
				c-0.293,0-1.131-0.265-2.186-0.786c-0.596-0.293-1.285-0.658-2.033-1.061c-0.629-0.338-1.197-0.903-1.896-1.293
				c-0.648-0.362-1.406-0.583-2.082-0.969c-0.66-0.377-1.377-0.674-2.035-1.056c-0.674-0.391-1.25-0.931-1.891-1.308
				c-0.691-0.406-1.428-0.678-2.043-1.044c-0.734-0.435-1.371-0.88-1.938-1.219c-1.203-0.72-1.164-0.413-1.877-1.306
				c-0.764-0.955-0.66-1.027-1.299-2.069c-0.639-1.042-0.467-1.148-1.105-2.19c-0.639-1.043-0.83-0.926-1.469-1.968
				c-0.641-1.044-0.828-0.929-1.469-1.973c-0.641-1.044-1.443-1.059-1.025-2.21c0.42-1.149,1.188-0.209,2.35-0.595
				c1.162-0.386,1.154-0.409,2.318-0.795c1.16-0.386,1.145-0.435,2.307-0.82c1.162-0.387,1.119-0.519,2.281-0.906
				c1.164-0.386,1.225-0.2,2.387-0.586c1.164-0.386,1.139-0.459,2.303-0.845c1.162-0.387,1.102-0.569,2.266-0.956
				c1.162-0.386,1.172-0.356,2.332-0.742c1.164-0.386,1.186-0.32,2.348-0.706c1.164-0.387,1.076-0.653,2.24-1.04
				c1.164-0.387,1.313,0.06,2.477-0.327c1.164-0.387,1.016-0.833,2.18-1.22c1.166-0.387,1.357,0.122,2.479-0.386
				C302.449,203.162,302.334,202.768,303.551,202.601z"/>
			<path opacity="0.3" d="M295.68,233.112c-0.104,0.44,0.117,0.651-0.283,0.86c-1.016,0.527-0.902-0.025-2.281-0.349
				c-0.639-0.149-1.318-0.63-2.15-0.828c-0.691-0.163-1.49-0.136-2.277-0.323c-0.713-0.172-1.486-0.232-2.25-0.417
				c-0.729-0.177-1.395-0.679-2.145-0.864c-0.74-0.182-1.475-0.403-2.215-0.588c-0.75-0.189-1.547-0.17-2.273-0.356
				c-0.764-0.196-1.469-0.54-2.18-0.729c-0.783-0.208-1.59-0.179-2.275-0.37c-0.828-0.232-1.514-0.649-2.141-0.846
				c-1.215-0.381-2.072-0.587-2.178-0.76c-0.145-0.236-0.182-1.181-0.27-2.432c-0.049-0.716-0.217-1.541-0.25-2.424
				c-0.029-0.784,0.139-1.615,0.121-2.44c-0.016-0.827-0.041-1.652-0.045-2.436c-0.004-0.889-0.068-1.722-0.059-2.439
				c0.02-1.388,0.168-2.243,0.234-2.316c0.049-0.053,0.807-0.184,2.166-0.272c0.654-0.042,1.418-0.172,2.27-0.219
				c0.711-0.039,1.469-0.272,2.271-0.313c0.734-0.037,1.51,0.118,2.291,0.08c0.752-0.036,1.52-0.043,2.285-0.079
				c0.766-0.035,1.529-0.127,2.283-0.161c0.781-0.035,1.561,0.189,2.297,0.157c0.805-0.035,1.566-0.257,2.279-0.288
				c0.854-0.036,1.631,0.021,2.287-0.006c1.406-0.059,1.539-1.067,2.375-0.29c-0.037,0.813-0.137,1.716-0.117,2.498
				c0.021,0.812,0.053,1.609,0.121,2.392c0.07,0.806,0.027,1.617,0.135,2.396c0.109,0.801,0.584,1.535,0.715,2.312
				c0.135,0.796,0.045,1.621,0.186,2.396c0.146,0.793,0.518,1.537,0.652,2.313c0.137,0.793-0.146,1.643-0.041,2.425
				c0.109,0.795,0.324,1.563,0.383,2.353C295.658,231.545,295.696,232.316,295.68,233.112z"/>
			<path opacity="0.3" d="M270.123,213.522c-0.064,0.207,0.789,0.933,2.027,1.532c0.6,0.29,1.475,0.278,2.281,0.624
				c0.668,0.285,1.303,0.806,2.07,1.113c0.695,0.278,1.383,0.675,2.133,0.96c0.715,0.272,1.58,0.2,2.32,0.47
				c0.732,0.267,1.334,0.915,2.068,1.171c0.748,0.26,1.586,0.236,2.314,0.477c0.766,0.254,1.564,0.333,2.281,0.555
				c0.793,0.246,1.568,0.374,2.268,0.567c0.852,0.236,1.549,0.667,2.199,0.804c1.32,0.276,2.252,0.41,2.338,0.12
				c0.201-0.675,0.365-1.432,0.676-2.195c0.275-0.677,0.461-1.442,0.801-2.166c0.316-0.675,0.922-1.236,1.277-1.934
				c0.344-0.676,0.766-1.32,1.131-2.002c0.363-0.678,0.512-1.474,0.881-2.143c0.377-0.684,0.691-1.392,1.059-2.049
				c0.389-0.694,1.025-1.224,1.385-1.869c0.396-0.714,0.441-1.572,0.779-2.201c0.408-0.764,0.994-1.338,1.273-1.934
				c0.518-1.107,0.863-2.02,0.703-2.307c-0.135-0.243-0.977-0.689-2.1-1.096c-0.611-0.221-1.488,0.003-2.293-0.245
				c-0.672-0.208-1.402-0.387-2.166-0.604c-0.699-0.198-1.398-0.5-2.143-0.701c-0.719-0.192-1.338-0.822-2.07-1.01
				c-0.734-0.188-1.475-0.36-2.195-0.538c-0.75-0.185-1.594,0.074-2.301-0.093c-0.773-0.182-1.412-0.799-2.1-0.952
				c-0.822-0.183-1.621-0.105-2.258-0.234c-1.189-0.24-1.994-0.31-2.211-0.289c-0.24,0.023-1.094,0.447-1.908,1.523
				c-0.426,0.564-0.654,1.433-1.178,2.183c-0.438,0.63-0.77,1.401-1.246,2.116c-0.443,0.661-1.305,1.081-1.76,1.78
				c-0.445,0.683-0.787,1.446-1.227,2.135c-0.449,0.702-0.9,1.394-1.324,2.069c-0.455,0.728-0.637,1.589-1.039,2.244
				c-0.475,0.777-0.887,1.497-1.248,2.108C270.951,212.647,270.194,213.306,270.123,213.522z"/>
			<path opacity="0.3" d="M223.227,233.385c-0.74,0.887,0.188,0.774,0.24,2.17c0.025,0.674,0.059,1.457,0.096,2.307
				c0.033,0.731-0.332,1.529-0.289,2.323c0.041,0.767,0.494,1.521,0.545,2.287c0.053,0.794-0.201,1.593-0.139,2.325
				c0.072,0.845,0.273,1.611,0.359,2.285c0.143,1.126,0.1,2.008,0.279,2.305c0.152,0.252,0.813,0.773,1.732,1.477
				c0.518,0.395,1.141,0.835,1.824,1.322c0.572,0.409,1.053,1.049,1.707,1.5c0.598,0.413,1.359,0.643,1.998,1.074
				c0.615,0.416,1.33,0.709,1.961,1.126c0.633,0.418,1.043,1.175,1.666,1.581c0.648,0.42,1.512,0.48,2.127,0.872
				c0.672,0.428,1.355,0.763,1.955,1.133c0.717,0.444,1.363,0.843,1.924,1.173c1.08,0.635,1.713,1.252,1.891,1.252
				c0.193,0,0.684-0.818,1.523-1.863c0.436-0.542,0.834-1.256,1.367-1.965c0.455-0.604,1.1-1.129,1.592-1.804
				c0.463-0.634,0.801-1.384,1.273-2.041c0.471-0.657,0.99-1.276,1.443-1.917c0.482-0.683,1.096-1.242,1.529-1.862
				c0.51-0.728,0.951-1.414,1.348-1.985c0.83-1.198,0.996-0.803,1.57-1.854c0.551-1.011,0.109-0.954,0.652-2.247
				c0.256-0.615,0.32-1.436,0.65-2.221c0.281-0.668,0.902-1.248,1.215-1.985c0.295-0.694,0.771-1.332,1.076-2.045
				c0.305-0.714,0.584-1.437,0.883-2.128c0.318-0.736,0.572-1.473,0.865-2.136c0.344-0.78,0.512-1.56,0.789-2.165
				c0.605-1.32,0.83-2.045,0.875-1.921c0.029,0.081-0.613,0.02-2.049,0.19c-0.646,0.078-1.391,0.387-2.26,0.478
				c-0.701,0.073-1.473,0.112-2.291,0.192c-0.725,0.07-1.496,0.062-2.295,0.136c-0.736,0.069-1.471,0.468-2.258,0.538
				c-0.746,0.068-1.561-0.416-2.34-0.348c-0.752,0.066-1.471,0.686-2.242,0.752c-0.758,0.066-1.566-0.355-2.334-0.291
				c-0.764,0.065-1.488,0.631-2.252,0.695c-0.77,0.064-1.566-0.24-2.326-0.178c-0.775,0.064-1.566-0.176-2.322-0.114
				c-0.779,0.064-1.541,0.178-2.289,0.239c-0.787,0.063-1.535,0.343-2.273,0.402c-0.801,0.064-1.553,0.316-2.279,0.375
				c-0.818,0.065-1.576,0.264-2.279,0.318c-0.867,0.069-1.641,0.107-2.289,0.158C223.936,233.414,223.963,232.505,223.227,233.385z"
				/>
			<path opacity="0.3" d="M242.33,231.304c-0.809,0.908,0.057,1.084,0.057,2.597c0,0.694,0.049,1.515,0.049,2.427
				c0,0.754,0.355,1.57,0.355,2.433c0,0.777-0.465,1.593-0.465,2.433c0,0.792-0.07,1.605-0.07,2.432
				c0,0.803,0.344,1.617,0.344,2.432s0.072,1.629,0.072,2.436c0,0.825-0.418,1.641-0.418,2.438c0,0.838,0.156,1.653,0.156,2.434
				c0,0.859,0.182,1.678,0.182,2.436c0,0.904,0.016,1.725,0.014,2.434c0,1.137,0.02,1.986,0.02,2.432
				c0,3.473-0.354,1.301,0.381,0.959c0.432-0.202,1.045-0.656,1.889-1.252c0.557-0.395,1.371-0.598,2.051-1.113
				c0.578-0.438,1.004-1.158,1.641-1.658c0.59-0.463,1.24-0.891,1.855-1.386c0.598-0.479,1.332-0.808,1.936-1.298
				c0.605-0.492,1.361-0.799,1.953-1.284c0.615-0.506,0.895-1.394,1.471-1.871c0.631-0.522,1.313-0.925,1.867-1.39
				c0.666-0.557,1.166-1.182,1.676-1.611c1.094-0.922,1.406-0.255,1.93-1.288c0.502-0.991,0.289-0.841,0.371-2.194
				c0.041-0.645-0.207-1.417-0.158-2.241c0.039-0.7-0.115-1.461-0.072-2.235c0.039-0.729,0.66-1.447,0.699-2.198
				c0.037-0.75-0.359-1.521-0.326-2.251c0.033-0.775,0.139-1.523,0.164-2.227c0.027-0.824-0.221-1.582-0.213-2.23
				c0.012-1.17,0.348-2,0.264-2.228c-0.092-0.245-1.053-0.388-2.436-0.335c-0.709,0.027-1.559-0.076-2.467,0.003
				c-0.768,0.067-1.59,0.204-2.439,0.296c-0.799,0.088-1.605,0.314-2.428,0.414c-0.82,0.102-1.625,0.34-2.422,0.445
				c-0.848,0.112-1.713-0.1-2.48,0.008c-0.9,0.126-1.725,0.249-2.43,0.352C243.424,231.066,243.143,230.388,242.33,231.304z"/>
			<path opacity="0.3" d="M261.692,229.674c-0.006,0.165-0.504,0.688-1.455,1.703c-0.477,0.509-0.74,1.393-1.381,2.042
				c-0.529,0.538-1.303,0.923-1.914,1.528c-0.555,0.549-1.232,1.02-1.832,1.602c-0.572,0.557-0.863,1.428-1.459,1.996
				c-0.584,0.56-1.5,0.782-2.09,1.338c-0.598,0.564-0.965,1.367-1.551,1.91c-0.615,0.569-1.088,1.266-1.668,1.791
				c-0.641,0.579-1.184,1.211-1.752,1.709c-0.689,0.602-1.506,0.922-2.049,1.364c-1.035,0.845-1.803,1.177-2.039,1.177
				c-0.248,0-1.025-0.316-2.133-1.039c-0.59-0.385-1.363-0.719-2.109-1.243c-0.625-0.437-1.096-1.19-1.793-1.696
				c-0.637-0.463-1.244-1.017-1.916-1.516c-0.646-0.48-1.475-0.742-2.127-1.238c-0.654-0.496-1.355-0.933-1.994-1.426
				c-0.662-0.514-1.098-1.287-1.717-1.777c-0.678-0.536-1.59-0.718-2.178-1.201c-0.709-0.578-1.152-1.338-1.684-1.799
				c-1.016-0.883-1.498-1.487-1.553-1.701c-0.055-0.207,0.443-0.68,1.393-1.685c0.477-0.504,0.656-1.478,1.307-2.114
				c0.539-0.525,1.105-1.121,1.73-1.71c0.564-0.532,1.244-0.999,1.857-1.563c0.586-0.537,1.535-0.7,2.145-1.248
				c0.602-0.541,1.195-1.092,1.801-1.627c0.615-0.543,0.889-1.466,1.49-1.988c0.631-0.548,1.592-0.68,2.188-1.186
				c0.654-0.557,1.1-1.294,1.682-1.774c0.703-0.579,1.299-1.15,1.848-1.577c1.072-0.831,1.848-0.915,2.051-0.915
				c0.211,0,0.98,0.069,2.09,0.788c0.578,0.375,1.355,0.675,2.092,1.182c0.613,0.423,0.951,1.343,1.639,1.831
				c0.629,0.447,1.365,0.796,2.027,1.277c0.639,0.464,1.277,0.949,1.924,1.427s1.498,0.683,2.129,1.159
				c0.656,0.494,1.311,0.965,1.924,1.437c0.67,0.516,1.152,1.208,1.738,1.672c0.703,0.559,1.424,0.957,1.951,1.402
				C261.348,228.869,261.698,229.498,261.692,229.674z"/>
			<path opacity="0.3" d="M151.569,205.418c-0.742,0.887,0.186,0.774,0.238,2.169c0.027,0.674,0.059,1.458,0.098,2.307
				c0.033,0.732-0.332,1.529-0.289,2.324c0.041,0.766,0.494,1.521,0.543,2.287c0.053,0.794-0.199,1.593-0.137,2.326
				c0.07,0.844,0.271,1.611,0.357,2.285c0.143,1.125,0.102,2.007,0.281,2.304c0.152,0.252,0.811,0.773,1.732,1.476
				c0.518,0.395,1.141,0.835,1.822,1.323c0.574,0.409,1.055,1.049,1.707,1.5c0.598,0.412,1.359,0.643,1.998,1.073
				c0.617,0.416,1.332,0.709,1.963,1.126c0.631,0.418,1.041,1.176,1.664,1.581c0.648,0.421,1.514,0.481,2.127,0.872
				c0.672,0.428,1.357,0.763,1.957,1.133c0.717,0.445,1.363,0.844,1.924,1.173c1.08,0.636,1.713,1.253,1.889,1.253
				c0.195,0,0.686-0.818,1.525-1.864c0.434-0.542,0.832-1.255,1.367-1.965c0.453-0.603,1.098-1.129,1.59-1.804
				c0.463-0.633,0.803-1.384,1.273-2.041c0.471-0.656,0.99-1.276,1.445-1.917c0.482-0.682,1.094-1.242,1.529-1.861
				c0.51-0.728,0.949-1.414,1.346-1.985c0.832-1.198,0.996-0.803,1.57-1.854c0.551-1.01,0.111-0.954,0.652-2.247
				c0.258-0.616,0.32-1.437,0.65-2.221c0.281-0.668,0.904-1.248,1.217-1.985c0.293-0.694,0.771-1.332,1.076-2.044
				c0.305-0.713,0.584-1.436,0.883-2.127c0.318-0.737,0.572-1.473,0.865-2.137c0.344-0.781,0.512-1.56,0.789-2.165
				c0.605-1.319,0.83-2.045,0.875-1.921c0.029,0.081-0.613,0.02-2.049,0.191c-0.646,0.077-1.391,0.386-2.26,0.477
				c-0.701,0.073-1.473,0.113-2.291,0.192c-0.725,0.07-1.498,0.062-2.297,0.136c-0.736,0.069-1.471,0.467-2.26,0.539
				c-0.744,0.067-1.559-0.417-2.338-0.348c-0.752,0.066-1.469,0.685-2.242,0.752c-0.758,0.065-1.566-0.356-2.334-0.291
				c-0.764,0.065-1.488,0.63-2.252,0.694c-0.77,0.065-1.566-0.239-2.326-0.176c-0.773,0.064-1.564-0.177-2.32-0.115
				c-0.779,0.064-1.543,0.178-2.291,0.239c-0.787,0.064-1.535,0.343-2.271,0.403c-0.801,0.065-1.553,0.316-2.279,0.375
				c-0.82,0.066-1.578,0.264-2.281,0.319c-0.867,0.069-1.639,0.107-2.287,0.158C152.276,205.447,152.303,204.537,151.569,205.418z"
				/>
			<path opacity="0.3" d="M170.67,203.337c-0.807,0.909,0.059,1.083,0.059,2.597c0,0.694,0.049,1.514,0.049,2.427
				c0,0.753,0.355,1.569,0.355,2.432c0,0.777-0.465,1.593-0.465,2.433c0,0.792-0.068,1.606-0.068,2.431
				c0,0.803,0.342,1.618,0.342,2.433c0,0.814,0.072,1.629,0.072,2.435c0,0.826-0.418,1.642-0.418,2.438
				c0,0.838,0.156,1.654,0.156,2.435c-0.002,0.859,0.18,1.677,0.18,2.435c0,0.905,0.018,1.726,0.018,2.435
				c-0.002,1.137,0.016,1.986,0.016,2.432c0,3.473-0.354,1.3,0.381,0.958c0.432-0.202,1.045-0.655,1.889-1.252
				c0.557-0.394,1.371-0.598,2.053-1.112c0.578-0.439,1.002-1.158,1.639-1.658c0.59-0.463,1.24-0.893,1.857-1.387
				c0.598-0.479,1.332-0.808,1.934-1.298c0.605-0.492,1.363-0.799,1.953-1.284c0.615-0.505,0.895-1.393,1.473-1.871
				c0.629-0.523,1.311-0.925,1.865-1.39c0.666-0.557,1.166-1.181,1.676-1.611c1.094-0.922,1.406-0.254,1.93-1.288
				c0.504-0.992,0.289-0.841,0.373-2.194c0.039-0.645-0.209-1.417-0.16-2.242c0.041-0.7-0.115-1.461-0.072-2.235
				c0.039-0.728,0.662-1.447,0.701-2.198c0.035-0.75-0.359-1.521-0.326-2.251c0.033-0.776,0.141-1.524,0.162-2.228
				c0.027-0.824-0.219-1.582-0.213-2.231c0.014-1.168,0.348-1.999,0.264-2.227c-0.092-0.245-1.051-0.388-2.434-0.334
				c-0.709,0.027-1.559-0.077-2.467,0.002c-0.768,0.067-1.59,0.204-2.439,0.296c-0.799,0.087-1.605,0.313-2.428,0.414
				c-0.82,0.101-1.623,0.34-2.42,0.445c-0.848,0.112-1.715-0.1-2.482,0.007c-0.9,0.125-1.725,0.249-2.43,0.352
				C171.766,203.098,171.485,202.421,170.67,203.337z"/>
			<path opacity="0.3" d="M190.584,201.727c-0.008,0.166-0.971,0.744-1.926,1.76c-0.475,0.508-0.939,1.2-1.578,1.85
				c-0.531,0.538-1.209,1.015-1.82,1.62c-0.553,0.549-0.988,1.269-1.588,1.852c-0.572,0.556-1.207,1.071-1.803,1.64
				c-0.586,0.56-1.441,0.844-2.031,1.4c-0.6,0.564-1.014,1.315-1.6,1.857c-0.615,0.57-0.928,1.44-1.508,1.965
				c-0.641,0.579-1.305,1.071-1.875,1.57c-0.688,0.602-1.629,0.766-2.17,1.207c-1.037,0.844-1.605,1.755-1.842,1.755
				c-0.25,0-1.111-0.521-2.221-1.244c-0.59-0.384-1.391-0.688-2.139-1.212c-0.623-0.437-1.084-1.212-1.779-1.717
				c-0.639-0.462-1.402-0.809-2.072-1.308c-0.646-0.481-0.973-1.412-1.625-1.908c-0.654-0.497-1.578-0.639-2.217-1.132
				c-0.662-0.513-1.064-1.33-1.684-1.82c-0.676-0.536-1.531-0.783-2.123-1.266c-0.707-0.579-1.236-1.232-1.768-1.694
				c-1.014-0.882-1.391-1.492-1.447-1.706c-0.053-0.208,0.336-0.625,1.287-1.63c0.477-0.504,0.906-1.219,1.557-1.855
				c0.537-0.526,1.014-1.208,1.637-1.797c0.566-0.533,1.391-0.837,2.004-1.401c0.586-0.538,1.039-1.243,1.648-1.792
				c0.602-0.541,1.041-1.271,1.646-1.806c0.615-0.543,1.287-1.012,1.889-1.533c0.631-0.548,1.172-1.176,1.766-1.682
				c0.654-0.556,1.396-0.946,1.98-1.425c0.703-0.579,1.242-1.224,1.795-1.65c1.07-0.831,1.949-0.915,2.15-0.915
				c0.211,0,0.777,0.515,1.887,1.233c0.578,0.375,1.326,0.697,2.063,1.205c0.615,0.423,1.25,0.916,1.938,1.404
				c0.629,0.447,1.543,0.552,2.205,1.033c0.639,0.464,0.986,1.349,1.635,1.827c0.646,0.479,1.674,0.447,2.305,0.922
				c0.656,0.494,1.201,1.111,1.814,1.583c0.67,0.516,1.271,1.061,1.855,1.525c0.703,0.559,1.354,1.053,1.877,1.498
				C189.754,200.823,190.59,201.551,190.584,201.727z"/>
			<path opacity="0.3" d="M300.59,240.633c0.742,0.887-0.336,0.899-0.389,2.295c-0.025,0.674,0.191,1.469,0.152,2.317
				c-0.033,0.731-0.078,1.509-0.121,2.304c-0.041,0.766,0.305,1.572,0.254,2.338c-0.053,0.794-0.088,1.58-0.15,2.313
				c-0.072,0.845-0.66,1.578-0.744,2.252c-0.143,1.125-0.164,1.951-0.344,2.248c-0.16,0.267-0.646,0.992-1.531,1.828
				c-0.504,0.477-1.406,0.691-2.064,1.285c-0.557,0.5-0.969,1.242-1.598,1.794c-0.584,0.511-1.316,0.892-1.932,1.42
				c-0.604,0.519-1.211,1.04-1.818,1.552c-0.621,0.525-0.848,1.51-1.445,2.004c-0.646,0.535-1.283,1.038-1.867,1.508
				c-0.693,0.558-1.738,0.536-2.289,0.953c-1.061,0.807-1.609,1.658-1.797,1.658c-0.184,0-0.563-0.975-1.465-1.994
				c-0.461-0.521-1.467-0.734-2.045-1.424c-0.482-0.578-0.561-1.566-1.096-2.221c-0.494-0.607-1.297-1-1.811-1.64
				c-0.502-0.626-0.748-1.465-1.248-2.093c-0.51-0.643-0.996-1.292-1.48-1.907c-0.523-0.665-1.531-0.908-1.998-1.504
				c-0.553-0.708-0.527-1.765-0.955-2.314c-0.906-1.167-1.109-0.681-1.715-1.722c-0.578-0.994-0.594-0.73-1.135-2.023
				c-0.258-0.615-0.186-1.492-0.516-2.277c-0.281-0.668-0.926-1.236-1.238-1.975c-0.295-0.693-0.42-1.481-0.725-2.194
				s-0.307-1.558-0.605-2.249c-0.318-0.736-1.162-1.217-1.453-1.881c-0.346-0.78-0.059-1.766-0.336-2.371
				c-0.605-1.318-1.516-2.049-1.561-1.925c-0.031,0.081,1.014,0.043,2.449,0.214c0.646,0.078,1.373,0.525,2.242,0.615
				c0.701,0.073,1.445,0.379,2.266,0.459c0.723,0.07,1.527-0.264,2.326-0.189c0.736,0.068,1.477,0.423,2.262,0.494
				c0.746,0.066,1.521,0.031,2.301,0.101c0.752,0.066,1.553-0.275,2.324-0.208c0.76,0.064,1.471,0.752,2.238,0.818
				c0.764,0.064,1.58-0.432,2.344-0.368c0.77,0.065,1.512,0.409,2.271,0.472c0.773,0.064,1.523,0.332,2.277,0.395
				c0.781,0.064,1.561-0.012,2.309,0.049c0.787,0.064,1.561,0.018,2.299,0.078c0.801,0.064,1.541,0.488,2.268,0.546
				c0.818,0.065,1.617-0.269,2.32-0.214c0.869,0.07,1.656-0.092,2.305-0.041C299.768,240.32,299.856,239.752,300.59,240.633z"/>
			<path opacity="0.3" d="M277.391,249.168c0.746,0.978,0.199,0.98,0.818,2.332c0.299,0.651,0.631,1.415,0.998,2.242
				c0.318,0.715,1.172,1.252,1.506,2.035c0.318,0.75,0.117,1.733,0.424,2.496c0.314,0.783,1.141,1.361,1.41,2.104
				c0.307,0.838,0.52,1.669,0.729,2.381c0.293,1,0.348,1.909,0.348,2.475c0,0.885,0.09,1.568,0.324,2.131
				c0.393,0.933,1.146,1.595,1.002,2.108c-0.109,0.392-0.908,0.554-2.086,1.001c-0.471,0.178-1.266,0.165-2.266-0.349
				c-0.607-0.312-1.303-0.739-2.043-1.236c-0.611-0.411-1.17-1.008-1.844-1.514c-0.609-0.457-1.088-1.132-1.727-1.643
				c-0.609-0.487-1.291-0.902-1.91-1.419c-0.605-0.508-1.326-0.891-1.926-1.41c-0.607-0.525-1.027-1.254-1.611-1.773
				c-0.613-0.543-1.498-0.756-2.066-1.271c-0.623-0.565-1.246-1.074-1.789-1.576c-0.656-0.606-1.232-1.17-1.729-1.638
				c-1.072-1.011-0.863-0.812-1.369-1.888c-0.475-1.006-0.123-0.774-0.207-2.127c-0.039-0.645-0.295-1.388-0.344-2.211
				c-0.039-0.701-0.057-1.452-0.1-2.227c-0.039-0.729-0.211-1.472-0.248-2.223c-0.037-0.75-0.133-1.498-0.166-2.228
				c-0.033-0.776,0.1-1.536,0.076-2.239c-0.027-0.824-0.303-1.58-0.309-2.229c-0.014-1.168,0.186-2.046,0.271-2.273
				c0.096-0.26,0.973,0.397,2.199,1.26c0.588,0.414,1.365,0.783,2.1,1.35c0.621,0.479,1.109,1.213,1.789,1.757
				c0.635,0.511,1.273,1.054,1.924,1.589c0.648,0.533,1.387,0.957,2.014,1.48c0.666,0.559,1.557,0.813,2.156,1.321
				c0.705,0.598,1.307,1.201,1.855,1.673C276.748,248.417,276.635,248.177,277.391,249.168z"/>
			<path opacity="0.3" d="M262.037,237.043c0.008,0.166,0.125,0.988,1.078,2.004c0.477,0.509,1.008,1.143,1.646,1.793
				c0.529,0.538,1.342,0.885,1.953,1.49c0.555,0.548,0.971,1.288,1.57,1.871c0.572,0.555,1.418,0.854,2.012,1.422
				c0.586,0.561,0.957,1.354,1.547,1.91c0.6,0.564,1.338,0.971,1.924,1.514c0.615,0.568,1.123,1.225,1.703,1.749
				c0.641,0.579,1.379,0.979,1.949,1.479c0.688,0.603,1.127,1.358,1.668,1.8c1.037,0.845,1.84,1.359,2.076,1.359
				c0.25,0,1.027-0.539,2.135-1.262c0.59-0.385,1.398-0.671,2.145-1.195c0.625-0.437,1.205-1.043,1.9-1.548
				c0.639-0.463,1.223-1.054,1.893-1.552c0.646-0.48,1.121-1.209,1.777-1.705c0.652-0.497,1.482-0.76,2.121-1.254
				c0.662-0.513,1.336-0.984,1.955-1.475c0.676-0.535,1.262-1.119,1.854-1.603c0.709-0.579,1.602-0.808,2.133-1.27
				c1.016-0.882,1.463-1.729,1.518-1.942c0.055-0.207-0.395-1-1.344-2.004c-0.477-0.504-1.309-0.83-1.959-1.467
				c-0.539-0.525-0.975-1.246-1.6-1.834c-0.564-0.533-1.143-1.104-1.756-1.668c-0.586-0.537-1.047-1.24-1.654-1.789
				c-0.602-0.539-1.574-0.673-2.178-1.208c-0.615-0.544-0.986-1.354-1.586-1.876c-0.633-0.549-1.484-0.808-2.078-1.313
				c-0.656-0.557-0.869-1.572-1.453-2.053c-0.701-0.579-1.473-0.941-2.021-1.368c-1.07-0.83-1.883-1.026-2.086-1.026
				c-0.211,0-0.836,0.451-1.945,1.169c-0.578,0.375-1.504,0.444-2.24,0.952c-0.617,0.423-1.359,0.771-2.047,1.259
				c-0.629,0.447-1.186,1.055-1.848,1.535c-0.641,0.465-0.969,1.375-1.615,1.854s-1.57,0.586-2.201,1.061
				c-0.656,0.494-1.41,0.836-2.023,1.309c-0.67,0.515-1.279,1.052-1.863,1.517c-0.703,0.559-0.982,1.499-1.508,1.944
				C262.543,236.506,262.031,236.867,262.037,237.043z"/>
			<path opacity="0.3" d="M223.403,258.703c-1.188-0.162-0.504,0.492-0.629,2.424c-0.039,0.627,0.299,1.423,0.309,2.404
				c0.006,0.695-0.369,1.504-0.324,2.41c0.035,0.725,0.371,1.506,0.438,2.381c0.057,0.74,0.289,1.521,0.371,2.377
				c0.072,0.75,0.246,1.531,0.34,2.375c0.084,0.757-0.066,1.578,0.039,2.414c0.043,0.352,0.168,1.213,0.6,2.286
				c0.26,0.646,0.67,1.349,1.02,2.139c0.307,0.689,0.762,1.358,1.113,2.094c0.338,0.712,0.434,1.558,0.791,2.258
				c0.373,0.73,0.689,1.48,1.057,2.138c0.43,0.764,1.059,1.337,1.443,1.911c0.678,1.014,1.24,1.578,1.607,1.578
				c0.295,0,1.146-0.049,2.201-0.569c0.596-0.293,1.115-0.975,1.863-1.377c0.631-0.34,1.426-0.489,2.125-0.879
				c0.646-0.361,1.369-0.647,2.045-1.033c0.66-0.377,1.33-0.757,1.988-1.139c0.672-0.391,1.098-1.189,1.738-1.565
				c0.691-0.407,1.338-0.827,1.953-1.192c0.732-0.436,1.449-0.742,2.016-1.082c1.203-0.721,1.535,0.035,2.248-0.857
				c0.764-0.955,0.646-1.072,1.285-2.115s0.268-1.271,0.906-2.313s1.02-0.81,1.66-1.853c0.639-1.044,0.438-1.168,1.076-2.213
				c0.641-1.044,1.643-0.917,1.223-2.068c-0.418-1.15-1.008-0.695-2.17-1.08c-1.162-0.387-1.26-0.09-2.422-0.477
				s-1.213-0.237-2.375-0.623c-1.162-0.387-1.014-0.838-2.176-1.225s-1.201-0.27-2.363-0.656s-1.158-0.397-2.322-0.784
				c-1.164-0.386-1.256-0.109-2.42-0.496c-1.16-0.386-1.166-0.368-2.328-0.754s-1.096-0.586-2.258-0.973
				c-1.164-0.386-1.203-0.269-2.367-0.655s-1.234-0.172-2.398-0.559s-1.035-0.775-2.199-1.163c-1.166-0.388-1.299-0.032-2.43-0.516
				C224.531,259.183,224.619,258.869,223.403,258.703z"/>
			<path opacity="0.3" d="M231.334,289.123c0.104,0.439-0.176,0.684,0.225,0.892c1.016,0.526,0.846-0.327,2.225-0.649
				c0.639-0.149,1.373-0.401,2.205-0.599c0.691-0.163,1.471-0.212,2.256-0.399c0.713-0.172,1.432-0.455,2.195-0.641
				c0.729-0.177,1.484-0.318,2.234-0.502c0.74-0.183,1.512-0.256,2.25-0.441c0.752-0.188,1.492-0.396,2.219-0.584
				c0.762-0.195,1.545-0.239,2.256-0.428c0.785-0.209,1.482-0.576,2.168-0.77c0.828-0.232,1.521-0.61,2.148-0.807
				c1.215-0.382,2.076-0.48,2.182-0.653c0.145-0.236,0.387-1.146,0.475-2.397c0.051-0.716,0.074-1.551,0.107-2.434
				c0.029-0.784,0.014-1.613,0.029-2.438c0.018-0.827-0.078-1.655-0.074-2.438c0.006-0.889,0.152-1.725,0.143-2.441
				c-0.018-1.388-0.145-2.393-0.211-2.466c-0.051-0.054-0.973-0.009-2.33-0.097c-0.656-0.043-1.424-0.111-2.275-0.159
				c-0.711-0.039-1.475-0.132-2.277-0.173c-0.736-0.037-1.51,0.139-2.291,0.101c-0.752-0.036-1.5-0.432-2.266-0.468
				c-0.768-0.035-1.551,0.289-2.305,0.256c-0.781-0.035-1.535-0.387-2.271-0.419c-0.807-0.035-1.59,0.257-2.301,0.226
				c-0.854-0.035-1.617-0.309-2.273-0.336c-1.406-0.059-1.6-1.008-2.436-0.231c0.035,0.813,0.002,1.771-0.02,2.554
				c-0.02,0.813,0.072,1.608,0.004,2.391c-0.07,0.807-0.039,1.613-0.145,2.392c-0.109,0.802-0.146,1.606-0.277,2.384
				c-0.135,0.797-0.293,1.58-0.436,2.356c-0.145,0.793-0.604,1.521-0.736,2.298c-0.137,0.793-0.256,1.586-0.363,2.368
				c-0.107,0.795,0.076,1.616,0.02,2.405C231.33,287.569,231.317,288.326,231.334,289.123z"/>
			<path opacity="0.3" d="M256.582,269.627c0.064,0.207-0.506,0.897-1.746,1.497c-0.6,0.29-1.357,0.556-2.164,0.901
				c-0.666,0.285-1.475,0.393-2.246,0.699c-0.693,0.277-1.51,0.332-2.26,0.618c-0.717,0.272-1.271,1.029-2.014,1.3
				c-0.73,0.268-1.516,0.409-2.25,0.666c-0.748,0.26-1.443,0.666-2.17,0.906c-0.766,0.254-1.598,0.241-2.316,0.463
				c-0.793,0.246-1.613,0.238-2.313,0.432c-0.852,0.235-1.545,0.717-2.195,0.853c-1.32,0.276-2.457,0.318-2.543,0.028
				c-0.203-0.675,0.094-1.6-0.217-2.363c-0.275-0.678-0.992-1.211-1.332-1.936c-0.316-0.674-0.584-1.396-0.939-2.096
				c-0.344-0.676-0.939-1.229-1.305-1.911c-0.363-0.679-0.404-1.531-0.773-2.2c-0.377-0.684-0.709-1.382-1.076-2.039
				c-0.389-0.693-0.621-1.447-0.98-2.092c-0.396-0.715-0.816-1.363-1.152-1.993c-0.41-0.765-0.881-1.39-1.158-1.984
				c-0.52-1.107-0.895-1.88-0.734-2.167c0.137-0.244,1.018-0.309,2.141-0.715c0.611-0.221,1.32-0.461,2.127-0.709
				c0.67-0.207,1.273-0.842,2.037-1.059c0.699-0.199,1.404-0.497,2.15-0.697c0.719-0.192,1.453-0.385,2.186-0.572
				c0.734-0.188,1.555-0.032,2.279-0.21c0.75-0.185,1.406-0.706,2.115-0.873c0.773-0.183,1.574-0.089,2.262-0.242
				c0.822-0.183,1.547-0.45,2.184-0.579c1.188-0.239,2.016-0.188,2.234-0.166c0.238,0.021,0.814,0.647,1.627,1.725
				c0.426,0.564,0.92,1.231,1.443,1.981c0.438,0.63,0.721,1.433,1.199,2.147c0.441,0.66,1.068,1.232,1.523,1.931
				c0.445,0.683,1.006,1.304,1.445,1.992c0.447,0.702,0.588,1.59,1.01,2.265c0.457,0.729,1.199,1.238,1.604,1.895
				c0.475,0.776,0.965,1.453,1.328,2.063C256.264,268.521,256.512,269.41,256.582,269.627z"/>
			<path fill="none" stroke="#000000" stroke-width="2" stroke-miterlimit="10" d="M163.033,204.271
				c0.154,1.342-0.801,3.417,0.418,4.604c1.531,1.493,1.596-0.151,2.805-0.959c3.008-2.011,2.732,2.388,1.867,4.355
				c0.582-0.114,1.508-0.607,1.67-0.817"/>
			<path fill="none" stroke="#000000" stroke-width="2" stroke-miterlimit="10" d="M167.682,196.241
				c2.98-2.53,1.355,1.063,3.102,2.387c2.211,1.676,2.938-1.328,2.814-2.599"/>
			<path fill="none" stroke="#000000" stroke-width="2" stroke-miterlimit="10" d="M174.865,204.271
				c0.924-0.412,1.871-0.895,2.916-0.829c0.027,0.603,0.467,1.243,0.502,1.853c0.785,0.072,1.529-0.01,2.287-0.179"/>
			<path fill="none" stroke="#000000" stroke-width="2" stroke-miterlimit="10" d="M206.977,211.234
				c-1.588,2.212,0,3.419,2.295,3.412c-0.043,1.001,0.652,1.683,1.49,2.081c0.057,0.448-0.207,0.231-0.404,0.423"/>
			<path fill="none" stroke="#000000" stroke-width="2" stroke-miterlimit="10" d="M211.836,205.107
				c1.141-0.101,2.715-1.488,3.813-1.081c0.842,0.311,1.326,2.138,2.104,2.771"/>
			<path fill="none" stroke="#000000" stroke-width="2" stroke-miterlimit="10" d="M218.598,214.193
				c-0.461,1.884,0.086,4.86-2.324,5.494"/>
			<path fill="none" stroke="#000000" stroke-width="2" stroke-miterlimit="10" d="M226.627,212.079
				c0.322,0.793,1.016,1.239,1.9,1.268"/>
			<path fill="none" stroke="#000000" stroke-width="2" stroke-miterlimit="10" d="M179.084,250.324
				c1.033,0.215,2.225,0.357,3.133,0.982c0.854,0.588,0.875,1.677,1.729,1.553"/>
			<path fill="none" stroke="#000000" stroke-width="2" stroke-miterlimit="10" d="M185.635,243.14
				c1.447-0.596,5.531-1.246,5.072-3.17"/>
			<path fill="none" stroke="#000000" stroke-width="2" stroke-miterlimit="10" d="M197.045,247.154
				c1.541,0.533,1.857,3.492,0.846,4.648"/>
			<path fill="none" stroke="#000000" stroke-width="2" stroke-miterlimit="10" d="M202.75,240.181
				c0.539,0.834,1.488,1.13,2.324,0.635"/>
			<path fill="none" stroke="#000000" stroke-width="2" stroke-miterlimit="10" d="M201.694,181.864
				c0.879,0.388,1.797,0.907,1.902,1.902"/>
			<path fill="none" stroke="#000000" stroke-width="2" stroke-miterlimit="10" d="M208.033,171.51
				c1.787,0.133,4.766-2.032,5.705-1.69"/>
			<path fill="none" stroke="#000000" stroke-width="2" stroke-miterlimit="10" d="M211.836,177.427
				c0.348-0.088,0.879-0.006,1.234,0.021c0.041,1.512,0.102,4.185,2.355,3.101c1.627-0.782,0.691-3.943,2.928-3.723
				c0.039,0.371,0.105,0.858,0.033,1.235"/>
			<path fill="none" stroke="#000000" stroke-width="2" stroke-miterlimit="10" d="M242.897,199.402
				c-0.205,1.374-0.762,4.013,1.174,4.51c1.002,0.257,1.896-0.322,1.996-1.34"/>
			<path fill="none" stroke="#000000" stroke-width="2" stroke-miterlimit="10" d="M241.629,192.64
				c1.033-0.283,2.322-1.174,3.395-0.648c0.969,0.476,0.701,2.168,1.676,2.127"/>
			<path fill="none" stroke="#000000" stroke-width="2" stroke-miterlimit="10" d="M252.826,191.372
				c1.371,0.456,5.121,4.479,2.113,5.071"/>
			<path fill="none" stroke="#000000" stroke-width="2" stroke-miterlimit="10" d="M231.065,232.575
				c1.016,1.468,1.561,3.136,3.592,1.901"/>
			<path fill="none" stroke="#000000" stroke-width="2" stroke-miterlimit="10" d="M237.403,228.56
				c1.367-0.203,5.533-1.692,4.227,1.057"/>
			<path fill="none" stroke="#000000" stroke-width="2" stroke-miterlimit="10" d="M242.262,238.28
				c1.434,1.444,3.234-0.034,4.227-1.268"/>
			<path fill="none" stroke="#000000" stroke-width="2" stroke-miterlimit="10" d="M247.543,224.335
				c1.586,1.161,3.693,3.613,2.748,5.705"/>
			<path fill="none" stroke="#000000" stroke-width="2" stroke-miterlimit="10" d="M230.641,258.987
				c-0.547,0.657-1.746,1.888-1.516,2.874c0.242,1.031,1.768,1.063,2.316,1.763c0.906,1.15,0.867,2.466,0.256,3.815"/>
			<path fill="none" stroke="#000000" stroke-width="2" stroke-miterlimit="10" d="M237.19,262.156
				c-0.25-1.175,0.633-2.172,1.844-2.297c2.564-0.264,1.154,1.23,1.693,2.344c1.326,2.734,2.383-2.039,1.959-3.216"/>
			<path fill="none" stroke="#000000" stroke-width="2" stroke-miterlimit="10" d="M240.149,271.031
				c1.605-0.578,3.166-0.674,4.859-0.634"/>
			<path fill="none" stroke="#000000" stroke-width="2" stroke-miterlimit="10" d="M275.858,237.857
				c-1.855,1.502-1.393,5.468,1.48,5.071"/>
			<path fill="none" stroke="#000000" stroke-width="2" stroke-miterlimit="10" d="M282.619,245.465
				c0.057,1.197-0.584,3.176-1.268,3.381"/>
			<path fill="none" stroke="#000000" stroke-width="2" stroke-miterlimit="10" d="M286.424,234.688
				c0.672,0.62,1.244,1.323,1.689,2.112"/>
			<path fill="none" stroke="#000000" stroke-width="2" stroke-miterlimit="10" d="M280.508,230.251
				c0.164,0.195,0.385,0.269,0.633,0.212"/>
			<path fill="none" stroke="#000000" stroke-width="2" stroke-miterlimit="10" d="M277.549,210.389
				c3.238-2.986,3.043,4.625,6.127,2.113"/>
			<path fill="none" stroke="#000000" stroke-width="2" stroke-miterlimit="10" d="M283.465,202.36
				c1.057-0.514,2.059-1.062,1.902-2.324"/>
			<path fill="none" stroke="#000000" stroke-width="2" stroke-miterlimit="10" d="M291.283,206.586
				c1.867-0.696,2.357,0.116,3.883,0.434c0.615,0.128,1.26,1.043,1.611-0.645"/>
		</g>
		<g>
			<g>
				<g>
					<path fill="#E6DCCE" d="M221.333,167.203c1.188-0.162,0.051,0.188,0.174,2.12c0.041,0.625,0.53,1.4,0.521,2.381
						c-0.006,0.696-0.011,1.501-0.055,2.408c-0.036,0.725-0.361,1.508-0.428,2.384c-0.057,0.74-0.365,1.514-0.447,2.371
						c-0.07,0.749-0.163,1.54-0.256,2.384c-0.084,0.756,0.374,1.616,0.273,2.453c-0.043,0.351-0.855,1.04-1.285,2.114
						c-0.261,0.646-0.066,1.604-0.418,2.393c-0.307,0.69-0.699,1.399-1.051,2.134c-0.338,0.712-0.811,1.378-1.168,2.077
						c-0.373,0.731-0.846,1.392-1.213,2.048c-0.43,0.765-0.628,1.606-1.013,2.181c-0.677,1.014-1.489,1.378-1.856,1.378
						c-0.294,0-1.105-0.098-2.161-0.618c-0.593-0.293-1.283-0.655-2.031-1.058c-0.63-0.339-1.229-0.847-1.928-1.237
						c-0.648-0.362-1.2-0.942-1.876-1.328c-0.66-0.377-1.38-0.665-2.037-1.046c-0.675-0.391-1.426-0.63-2.064-1.006
						c-0.693-0.407-1.221-1.027-1.838-1.394c-0.732-0.435-1.614-0.467-2.181-0.807c-1.202-0.72-1.324-0.296-2.037-1.188
						c-0.763-0.955-0.641-1.072-1.278-2.114c-0.639-1.042-0.273-1.266-0.912-2.308c-0.64-1.043-0.713-0.999-1.352-2.041
						c-0.641-1.044-0.818-0.936-1.459-1.98c-0.64-1.044-1.681-0.98-1.262-2.131c0.42-1.149,1.142-0.531,2.303-0.917
						c1.162-0.387,1.144-0.444,2.307-0.83c1.161-0.386,1.211-0.235,2.373-0.621s1.084-0.625,2.246-1.012
						c1.162-0.386,1.212-0.235,2.375-0.622s1.27-0.068,2.432-0.455c1.164-0.387,1.111-0.543,2.275-0.93
						c1.16-0.386,1.244-0.132,2.405-0.518c1.163-0.386,1.168-0.369,2.331-0.755c1.164-0.387,1.119-0.523,2.283-0.91
						s1.047-0.739,2.211-1.126c1.164-0.387,1.185-0.323,2.349-0.709c1.167-0.388,1.272-0.065,2.44-0.449
						C220.182,167.54,220.115,167.369,221.333,167.203z"/>
				</g>
				<g>
					<path fill="#ECE5E0" d="M213.316,197.282c-0.104,0.44,0.162,0.586-0.24,0.795c-1.015,0.527-0.81-0.133-2.19-0.456
						c-0.637-0.149-1.333-0.555-2.168-0.752c-0.69-0.164-1.5-0.091-2.286-0.279c-0.714-0.171-1.49-0.209-2.254-0.395
						c-0.729-0.177-1.48-0.333-2.232-0.518c-0.738-0.183-1.417-0.636-2.157-0.821c-0.75-0.188-1.518-0.285-2.244-0.472
						c-0.764-0.196-1.483-0.48-2.194-0.669c-0.783-0.208-1.563-0.28-2.249-0.472c-0.827-0.232-1.558-0.494-2.183-0.69
						c-1.217-0.381-1.782-0.813-1.888-0.985c-0.145-0.237-0.396-1.018-0.484-2.269c-0.05-0.716-0.37-1.533-0.403-2.416
						c-0.029-0.784-0.005-1.614-0.021-2.44c-0.017-0.827,0.288-1.657,0.283-2.441c-0.005-0.889-0.3-1.723-0.29-2.441
						c0.018-1.388,0.127-2.407,0.195-2.48c0.049-0.053,0.967-0.292,2.326-0.38c0.654-0.042,1.441,0.147,2.293,0.1
						c0.71-0.039,1.471-0.192,2.274-0.233c0.734-0.038,1.518,0.281,2.299,0.244c0.752-0.036,1.505-0.364,2.271-0.399
						c0.765-0.035,1.545,0.185,2.297,0.151c0.783-0.035,1.541-0.291,2.277-0.323c0.804-0.035,1.578,0.036,2.29,0.006
						c0.854-0.037,1.632,0.076,2.288,0.048c1.406-0.059,1.315-0.981,2.151-0.204c-0.036,0.813,0.032,1.483,0.052,2.265
						c0.021,0.812,0.175,1.602,0.242,2.384c0.07,0.806-0.055,1.625,0.053,2.404c0.109,0.801,0.373,1.571,0.505,2.349
						c0.135,0.796,0.438,1.551,0.579,2.327c0.146,0.793,0.232,1.589,0.366,2.366c0.138,0.793,0.344,1.571,0.452,2.353
						c0.107,0.795,0.082,1.604,0.139,2.394C213.521,195.727,213.331,196.486,213.316,197.282z"/>
				</g>
				<g>
					<path fill="#F4EFEE" d="M188.337,177.869c-0.064,0.207,0.526,0.31,1.765,0.909c0.602,0.29,1.132,1.019,1.94,1.364
						c0.666,0.285,1.439,0.477,2.207,0.784c0.695,0.278,1.475,0.433,2.225,0.718c0.714,0.272,1.313,0.916,2.055,1.186
						c0.732,0.267,1.555,0.3,2.289,0.556c0.748,0.26,1.437,0.673,2.167,0.914c0.766,0.254,1.519,0.493,2.235,0.715
						c0.793,0.246,1.697-0.043,2.396,0.151c0.852,0.236,1.596,0.435,2.248,0.57c1.32,0.276,2.35,0.706,2.436,0.416
						c0.201-0.675,0.119-1.515,0.43-2.278c0.274-0.677,0.95-1.219,1.29-1.943c0.317-0.675,0.168-1.604,0.522-2.303
						c0.346-0.676,1.142-1.129,1.507-1.811c0.362-0.679,0.44-1.513,0.81-2.181c0.376-0.684,1.006-1.218,1.373-1.875
						c0.387-0.694,0.781-1.36,1.139-2.005c0.398-0.714,0.277-1.661,0.615-2.29c0.408-0.764,1.284-1.192,1.563-1.788
						c0.518-1.107,0.531-1.976,0.371-2.263c-0.137-0.243-0.94-0.362-2.063-0.77c-0.609-0.221-1.22-0.793-2.024-1.042
						c-0.671-0.207-1.488-0.108-2.252-0.326c-0.699-0.198-1.382-0.56-2.129-0.76c-0.717-0.193-1.378-0.665-2.11-0.853
						c-0.734-0.188-1.592,0.12-2.314-0.058c-0.75-0.185-1.353-0.925-2.062-1.092c-0.774-0.182-1.546-0.225-2.233-0.378
						c-0.822-0.183-1.647,0.033-2.285-0.096c-1.189-0.24-1.967-0.686-2.186-0.665c-0.238,0.023-1.073,0.617-1.887,1.694
						c-0.427,0.564-0.625,1.453-1.146,2.203c-0.44,0.63-1.11,1.173-1.588,1.888c-0.442,0.661-0.822,1.4-1.277,2.099
						c-0.445,0.684-0.593,1.57-1.031,2.258c-0.449,0.703-1.35,1.109-1.772,1.784c-0.455,0.728-0.472,1.689-0.874,2.345
						c-0.477,0.777-1.116,1.361-1.479,1.972C188.535,176.755,188.407,177.653,188.337,177.869z"/>
				</g>
			</g>
			<g>
				<g>
					<path fill="#ECE5E0" d="M188.738,206.892c-1.148,0.474-0.105,1.254-0.068,2.755c0.019,0.727,0.592,1.56,0.616,2.476
						c0.021,0.789,0.067,1.627,0.093,2.483c0.024,0.827-0.276,1.678-0.248,2.504c0.027,0.857-0.226,1.709-0.196,2.5
						c0.035,0.914,0.058,1.764,0.093,2.491c0.066,1.346,0.768,2.152,0.83,2.342c0.051,0.154,0.236,1.059,1.362,1.89
						c0.564,0.415,1.613,0.372,2.362,0.9c0.621,0.438,1.252,0.967,1.965,1.459c0.645,0.446,1.233,1.034,1.928,1.507
						c0.663,0.451,1.271,1.016,1.957,1.477c0.678,0.455,1.531,0.654,2.211,1.106c0.688,0.458,1.112,1.305,1.785,1.746
						c0.705,0.463,1.541,0.687,2.202,1.114c0.728,0.473,1.419,0.92,2.063,1.328c0.775,0.494,1.381,1.088,1.981,1.453
						c1.182,0.719,1.983,1.436,2.153,1.44c0.206,0.007,0.826-1.091,1.371-2.425c0.272-0.672,0.389-1.544,0.709-2.418
						c0.27-0.74,0.847-1.436,1.134-2.26c0.271-0.775,0.073-1.736,0.343-2.537s0.485-1.619,0.743-2.399
						c0.273-0.83,0.553-1.629,0.796-2.382c0.287-0.884,1.025-1.542,1.246-2.235c0.463-1.454,0.048-1.288,0.645-2.39
						c0.553-1.023,0.424-1.095,1.058-2.07c0.636-0.977,0.661-0.96,1.297-1.937c0.637-0.978,0.508-1.061,1.145-2.039
						c0.636-0.978,0.577-1.016,1.214-1.994c0.637-0.978,0.792-0.876,1.428-1.854c0.639-0.979,0.393-1.14,1.029-2.119
						c0.638-0.979,2.017-0.652,1.427-1.661c-0.61-1.043-1.048-0.297-2.257-0.294c-1.209,0.003-1.209,0.196-2.419,0.199
						c-1.207,0.003-1.208-0.31-2.416-0.306c-1.21,0.003-1.21-0.018-2.42-0.015c-1.211,0.003-1.208,0.171-2.417,0.175
						c-1.212,0.003-1.209,0.439-2.42,0.442c-1.209,0.003-1.209-0.076-2.42-0.072c-1.209,0.003-1.211-0.4-2.421-0.396
						c-1.21,0.003-1.21,0.042-2.421,0.046c-1.209,0.003-1.208,0.264-2.416,0.267c-1.209,0.003-1.209-0.017-2.419-0.014
						c-1.211,0.003-1.211-0.056-2.421-0.053c-1.211,0.003-1.212-0.305-2.423-0.301c-1.212,0.003-1.21,0.251-2.422,0.254
						c-1.214,0.003-1.221,0.222-2.413,0C189.998,206.84,189.86,206.43,188.738,206.892z"/>
				</g>
				<g>
					<path fill="#E6DCCE" d="M211.732,239.313c0.082,0.081,1.031-0.423,2.117-1.347c0.521-0.443,0.947-1.181,1.608-1.77
						c0.555-0.492,1.28-0.88,1.896-1.439c0.568-0.516,0.947-1.283,1.542-1.829c0.58-0.534,1.346-0.88,1.922-1.418
						c0.59-0.55,1.056-1.22,1.616-1.748c0.604-0.57,1.265-1.036,1.804-1.55c0.637-0.609,1.104-1.282,1.595-1.762
						c0.951-0.93,1.757-1.412,1.831-1.546c0.078-0.144,0.174-1.018,0.279-2.25c0.055-0.646,0.023-1.409,0.078-2.234
						c0.046-0.702,0.272-1.444,0.314-2.22c0.041-0.73-0.052-1.49-0.018-2.242c0.034-0.752-0.043-1.51-0.018-2.241
						c0.027-0.779-0.198-1.538-0.184-2.242c0.017-0.829,0.271-1.582,0.266-2.229c-0.011-1.307-0.022-2.14-0.156-2.18
						c-0.288-0.086-1.143-0.062-2.326-0.085c-0.687-0.014-1.48-0.35-2.34-0.348c-0.744,0.001-1.533,0.249-2.339,0.258
						c-0.776,0.009-1.57-0.095-2.345-0.081c-0.81,0.014-1.597,0.331-2.342,0.347c-0.862,0.019-1.664-0.144-2.349-0.125
						c-1.411,0.036-1.399-0.638-2.347,0.047c0,0.64-0.185,1.428-0.189,2.307c-0.002,0.701,0.447,1.471,0.441,2.292
						c-0.006,0.726-0.318,1.491-0.324,2.289c-0.007,0.74,0.285,1.51,0.277,2.297c-0.009,0.749-0.547,1.51-0.555,2.287
						c-0.008,0.757,0.152,1.527,0.146,2.297c-0.007,0.765,0.261,1.536,0.255,2.302c-0.008,0.771,0.033,1.54,0.027,2.3
						c-0.006,0.778-0.394,1.545-0.397,2.297c-0.006,0.786-0.128,1.554-0.13,2.296c-0.005,0.8,0.136,1.57,0.135,2.301
						c-0.001,0.82,0.449,1.588,0.453,2.295c0.004,0.869-0.374,1.646-0.362,2.299C211.642,238.304,211.663,239.244,211.732,239.313z"
						/>
				</g>
				<g>
					<path fill="#F4EFEE" d="M228.124,207.052c0,0.169-0.621,0.616-1.529,1.516c-0.459,0.456-0.71,1.291-1.325,1.867
						c-0.511,0.48-1.388,0.645-1.974,1.179c-0.536,0.489-0.867,1.248-1.44,1.762c-0.555,0.496-0.988,1.146-1.557,1.646
						c-0.566,0.501-1.065,1.085-1.626,1.572c-0.582,0.507-1.346,0.783-1.898,1.256c-0.603,0.517-1.307,0.86-1.846,1.312
						c-0.648,0.542-1.16,1.121-1.666,1.526c-1.006,0.807-1.679,1.46-1.813,1.46c-0.128,0-0.837-0.757-2.065-1.485
						c-0.607-0.359-1.271-0.862-2.057-1.343c-0.652-0.399-1.51-0.586-2.248-1.047c-0.67-0.417-1.411-0.787-2.126-1.239
						c-0.682-0.431-1.192-1.165-1.894-1.613c-0.689-0.442-1.62-0.525-2.309-0.972c-0.699-0.453-1.228-1.157-1.903-1.601
						c-0.709-0.466-1.327-1.03-1.984-1.471c-0.725-0.486-1.403-0.956-2.034-1.391c-0.763-0.527-1.772-0.549-2.343-0.968
						c-1.14-0.839-2.002-1.684-2.002-1.862s0.775-0.989,1.735-1.918c0.482-0.468,1.422-0.626,2.072-1.219
						c0.539-0.491,1.112-1.026,1.736-1.577c0.563-0.499,0.813-1.408,1.423-1.936c0.582-0.504,1.526-0.612,2.13-1.126
						c0.596-0.507,1.016-1.23,1.615-1.732c0.609-0.51,1.171-1.07,1.767-1.559c0.626-0.514,1.511-0.674,2.102-1.146
						c0.649-0.521,1.037-1.302,1.614-1.749c0.697-0.541,1.224-1.17,1.771-1.564c1.039-0.749,1.878-0.667,2.113-0.667
						s0.825,0.259,1.86,1.006c0.544,0.392,1.159,0.874,1.852,1.41c0.574,0.445,1.404,0.659,2.051,1.176
						c0.584,0.469,1.207,0.946,1.828,1.456c0.592,0.486,1.034,1.18,1.643,1.686c0.598,0.5,1.293,0.891,1.887,1.396
						c0.604,0.512,1.375,0.82,1.957,1.321c0.609,0.527,0.883,1.412,1.447,1.909c0.621,0.548,1.429,0.827,1.969,1.315
						c0.65,0.59,1.367,0.992,1.852,1.456C227.874,206.019,228.124,206.89,228.124,207.052z"/>
				</g>
			</g>
			<g>
				<g>
					<path fill="#ECE5E0" d="M227.058,185.255c-1.188-0.162-0.505,0.493-0.627,2.424c-0.039,0.626,0.297,1.422,0.307,2.404
						c0.007,0.695-0.367,1.503-0.323,2.41c0.036,0.725,0.369,1.506,0.436,2.381c0.058,0.74,0.292,1.521,0.373,2.377
						c0.07,0.75,0.245,1.531,0.339,2.375c0.084,0.756-0.064,1.578,0.039,2.414c0.043,0.351,0.169,1.212,0.6,2.286
						c0.26,0.646,0.669,1.349,1.02,2.139c0.307,0.689,0.764,1.359,1.113,2.094c0.339,0.711,0.435,1.558,0.791,2.257
						c0.374,0.731,0.689,1.481,1.059,2.138c0.428,0.765,1.059,1.337,1.441,1.911c0.68,1.014,1.242,1.579,1.609,1.579
						c0.293,0,1.146-0.049,2.2-0.569c0.595-0.293,1.116-0.976,1.864-1.378c0.631-0.339,1.426-0.489,2.125-0.878
						c0.646-0.362,1.37-0.647,2.045-1.033c0.66-0.377,1.33-0.757,1.986-1.139c0.674-0.391,1.099-1.189,1.74-1.565
						c0.69-0.407,1.337-0.827,1.952-1.192c0.732-0.435,1.45-0.743,2.017-1.082c1.201-0.72,1.534,0.035,2.247-0.857
						c0.764-0.955,0.646-1.074,1.284-2.116s0.267-1.271,0.906-2.313c0.639-1.043,1.019-0.809,1.66-1.852
						c0.64-1.044,0.438-1.168,1.078-2.213c0.64-1.044,1.642-0.917,1.223-2.068c-0.42-1.15-1.009-0.695-2.17-1.081
						c-1.163-0.386-1.262-0.09-2.425-0.476c-1.161-0.386-1.213-0.237-2.372-0.624c-1.164-0.386-1.014-0.837-2.178-1.224
						c-1.163-0.386-1.201-0.27-2.364-0.656c-1.161-0.386-1.157-0.397-2.321-0.784c-1.163-0.386-1.256-0.109-2.419-0.496
						c-1.162-0.386-1.167-0.368-2.327-0.754c-1.162-0.386-1.096-0.586-2.258-0.972c-1.164-0.387-1.203-0.269-2.367-0.655
						s-1.236-0.173-2.399-0.56c-1.165-0.387-1.035-0.776-2.2-1.163c-1.166-0.388-1.299-0.032-2.43-0.516
						C228.186,185.735,228.276,185.421,227.058,185.255z"/>
				</g>
				<g>
					<path fill="#E6DCCE" d="M234.99,215.675c0.104,0.439-0.176,0.684,0.225,0.892c1.016,0.526,0.846-0.327,2.227-0.65
						c0.637-0.149,1.37-0.401,2.204-0.598c0.691-0.164,1.47-0.212,2.256-0.4c0.713-0.171,1.433-0.455,2.196-0.64
						c0.728-0.177,1.482-0.318,2.232-0.502c0.74-0.183,1.512-0.255,2.252-0.44c0.75-0.188,1.488-0.397,2.216-0.584
						c0.764-0.196,1.548-0.24,2.259-0.429c0.783-0.208,1.481-0.576,2.168-0.769c0.828-0.232,1.52-0.61,2.146-0.807
						c1.215-0.381,2.076-0.48,2.182-0.653c0.145-0.236,0.386-1.146,0.475-2.397c0.051-0.716,0.074-1.551,0.107-2.434
						c0.03-0.784,0.014-1.613,0.031-2.438c0.016-0.827-0.08-1.655-0.075-2.438c0.005-0.889,0.151-1.724,0.143-2.442
						c-0.019-1.387-0.146-2.393-0.212-2.465c-0.05-0.053-0.973-0.008-2.33-0.097c-0.655-0.042-1.424-0.112-2.275-0.159
						c-0.712-0.039-1.475-0.132-2.278-0.173c-0.734-0.037-1.509,0.139-2.29,0.101c-0.751-0.036-1.5-0.432-2.266-0.467
						c-0.766-0.035-1.549,0.289-2.303,0.255c-0.783-0.035-1.536-0.386-2.272-0.418c-0.806-0.035-1.588,0.257-2.301,0.226
						c-0.854-0.036-1.616-0.309-2.273-0.336c-1.406-0.059-1.6-1.009-2.436-0.232c0.036,0.813,0.001,1.771-0.019,2.554
						c-0.021,0.812,0.072,1.608,0.004,2.391c-0.07,0.807-0.039,1.613-0.145,2.392c-0.109,0.802-0.146,1.607-0.279,2.384
						c-0.135,0.796-0.293,1.58-0.434,2.356c-0.146,0.793-0.604,1.521-0.739,2.298c-0.136,0.793-0.255,1.586-0.361,2.368
						c-0.109,0.795,0.075,1.616,0.019,2.405C234.986,214.121,234.974,214.878,234.99,215.675z"/>
				</g>
				<g>
					<path fill="#F4EFEE" d="M260.238,196.178c0.066,0.207-0.504,0.897-1.744,1.497c-0.6,0.291-1.358,0.556-2.165,0.901
						c-0.667,0.285-1.476,0.393-2.244,0.7c-0.694,0.278-1.512,0.333-2.263,0.618c-0.715,0.272-1.27,1.029-2.012,1.3
						c-0.73,0.267-1.516,0.409-2.251,0.665c-0.747,0.261-1.442,0.667-2.169,0.907c-0.766,0.254-1.6,0.241-2.316,0.463
						c-0.793,0.246-1.613,0.237-2.313,0.431c-0.852,0.236-1.545,0.717-2.197,0.853c-1.32,0.276-2.455,0.318-2.543,0.028
						c-0.202-0.675,0.096-1.6-0.215-2.363c-0.275-0.677-0.992-1.211-1.332-1.935c-0.316-0.675-0.585-1.397-0.939-2.096
						c-0.347-0.676-0.941-1.23-1.306-1.912c-0.362-0.678-0.403-1.532-0.772-2.2c-0.377-0.684-0.71-1.382-1.076-2.039
						c-0.388-0.694-0.621-1.448-0.979-2.093c-0.397-0.714-0.817-1.363-1.153-1.992c-0.41-0.765-0.882-1.39-1.161-1.985
						c-0.518-1.107-0.893-1.88-0.732-2.167c0.136-0.243,1.018-0.307,2.142-0.714c0.609-0.221,1.32-0.46,2.124-0.708
						c0.673-0.207,1.274-0.842,2.038-1.059c0.699-0.199,1.405-0.497,2.151-0.697c0.717-0.193,1.452-0.385,2.187-0.573
						c0.733-0.188,1.556-0.031,2.277-0.209c0.751-0.185,1.405-0.707,2.114-0.874c0.773-0.182,1.575-0.089,2.263-0.242
						c0.821-0.183,1.547-0.45,2.186-0.579c1.188-0.24,2.015-0.188,2.231-0.167c0.24,0.022,0.817,0.648,1.63,1.725
						c0.425,0.564,0.92,1.231,1.442,1.981c0.438,0.63,0.722,1.433,1.2,2.147c0.441,0.661,1.068,1.232,1.524,1.932
						c0.445,0.683,1.004,1.304,1.442,1.992c0.448,0.703,0.588,1.589,1.012,2.264c0.455,0.728,1.198,1.238,1.601,1.894
						c0.477,0.777,0.969,1.454,1.33,2.064C259.92,195.073,260.168,195.962,260.238,196.178z"/>
				</g>
			</g>
			<g>
				<g>
					<path fill="#E6DCCE" d="M206.208,235.187c1.369-0.094,0.541,0.348,0.531,2.563c-0.005,0.72-0.629,1.594-0.717,2.717
						c-0.061,0.794,0.529,1.765,0.408,2.796c-0.098,0.824-0.666,1.675-0.812,2.668c-0.12,0.842-0.058,1.776-0.218,2.748
						c-0.141,0.85-0.236,1.763-0.408,2.719c-0.154,0.857-0.62,1.702-0.803,2.649c-0.077,0.397-0.187,1.396-0.762,2.589
						c-0.346,0.719-0.59,1.637-1.053,2.512c-0.405,0.765-1.042,1.469-1.5,2.281c-0.442,0.787-1.15,1.435-1.613,2.205
						c-0.482,0.807-0.563,1.844-1.033,2.565c-0.549,0.84-1.345,1.424-1.827,2.05c-0.854,1.104-1.567,2.018-1.987,1.989
						c-0.335-0.022-1.039-0.886-2.207-1.563c-0.656-0.381-1.676-0.406-2.5-0.924c-0.693-0.436-1.283-1.15-2.051-1.65
						c-0.713-0.463-1.266-1.219-2.007-1.712c-0.726-0.481-1.818-0.432-2.539-0.919c-0.738-0.498-1.511-0.93-2.212-1.41
						c-0.76-0.518-1.17-1.479-1.847-1.945c-0.802-0.554-1.619-0.933-2.239-1.363c-1.314-0.916-1.297-0.479-2.041-1.553
						c-0.799-1.149-1.108-0.979-1.758-2.219c-0.648-1.24-0.064-1.545-0.714-2.785c-0.647-1.24-0.947-1.085-1.596-2.325
						c-0.65-1.242-0.635-1.251-1.283-2.493c-0.65-1.242-2.05-1.319-1.481-2.602c0.568-1.28,1.61-0.114,2.967-0.465
						c1.357-0.352,1.394-0.211,2.752-0.562c1.357-0.351,1.284-0.633,2.641-0.983c1.357-0.352,1.293-0.605,2.65-0.957
						s1.368-0.309,2.727-0.66c1.357-0.352,1.414-0.129,2.772-0.48c1.358-0.351,1.351-0.383,2.71-0.734
						c1.358-0.352,1.457,0.031,2.816-0.32c1.357-0.352,1.281-0.646,2.639-0.996c1.359-0.352,1.403-0.18,2.762-0.531
						s1.236-0.824,2.595-1.176c1.36-0.352,1.365-0.333,2.725-0.684c1.362-0.354,1.412-0.154,2.765-0.542
						C204.806,235.299,204.806,235.283,206.208,235.187z"/>
				</g>
				<g>
					<path fill="#ECE5E0" d="M194.985,269.129c-0.152,0.494-0.042,0.773-0.517,0.979c-1.2,0.523-1.035-0.237-2.586-0.712
						c-0.717-0.221-1.564-0.473-2.502-0.763c-0.778-0.241-1.647-0.408-2.53-0.685c-0.802-0.25-1.552-0.791-2.409-1.063
						c-0.819-0.258-1.641-0.564-2.484-0.834c-0.83-0.265-1.775-0.197-2.606-0.466c-0.841-0.273-1.517-1.036-2.332-1.306
						c-0.856-0.283-1.683-0.58-2.482-0.852c-0.878-0.299-1.781-0.382-2.549-0.654c-0.927-0.33-1.746-0.665-2.445-0.938
						c-1.359-0.53-2.157-0.912-2.265-1.117c-0.148-0.281-0.395-1.274-0.398-2.711c-0.002-0.821,0.053-1.773,0.084-2.785
						c0.027-0.897,0.205-1.838,0.25-2.781c0.045-0.945-0.039-1.897,0.016-2.793c0.063-1.016-0.056-1.984,0.01-2.803
						c0.129-1.584,0.431-2.715,0.514-2.793c0.061-0.057,1.109-0.162,2.668-0.158c0.75,0.002,1.633,0.19,2.609,0.203
						c0.814,0.01,1.692,0.055,2.614,0.07c0.842,0.016,1.722-0.162,2.616-0.145c0.86,0.018,1.736,0.285,2.613,0.304
						c0.879,0.019,1.759-0.028,2.621-0.009c0.896,0.021,1.778-0.047,2.622-0.026c0.922,0.022,1.807-0.065,2.622-0.044
						c0.979,0.023,1.855,0.28,2.607,0.301c1.611,0.042,1.536-0.797,2.432,0.154c-0.104,0.926,0.053,1.665,0.016,2.56
						c-0.039,0.929,0.064,1.837,0.082,2.736c0.019,0.927-0.309,1.855-0.248,2.754c0.062,0.924,0.461,1.81,0.553,2.707
						c0.091,0.92-0.021,1.851,0.08,2.747c0.104,0.917,0.156,1.828,0.25,2.726c0.096,0.917,0.376,1.805,0.438,2.706
						c0.062,0.916-0.19,1.829-0.188,2.735C194.764,267.289,195.065,268.22,194.985,269.129z"/>
				</g>
				<g>
					<path fill="#F4EFEE" d="M167.675,244.929c-0.092,0.23,0.362,0.826,1.732,1.606c0.662,0.378,1.533,0.673,2.43,1.13
						c0.739,0.377,1.481,0.906,2.336,1.316c0.774,0.373,1.677,0.562,2.515,0.947c0.796,0.365,1.582,0.801,2.409,1.167
						c0.814,0.36,1.485,1.078,2.305,1.428c0.833,0.355,1.771,0.452,2.582,0.784c0.855,0.35,1.852,0.273,2.652,0.582
						c0.887,0.342,1.698,0.725,2.481,1c0.952,0.336,1.666,1.086,2.399,1.291c1.485,0.418,2.305,0.218,2.427-0.106
						c0.282-0.755,0.701-1.558,1.115-2.405c0.367-0.753,0.604-1.641,1.05-2.441c0.414-0.747,1.179-1.33,1.639-2.1
						c0.445-0.746,0.757-1.592,1.227-2.342c0.469-0.747,1.416-1.19,1.889-1.926c0.482-0.751,0.578-1.74,1.049-2.461
						c0.496-0.763,1.317-1.285,1.776-1.993c0.51-0.785,0.696-1.721,1.13-2.413c0.525-0.842,1.129-1.523,1.494-2.182
						c0.678-1.225,1.236-2.322,1.076-2.662c-0.137-0.289-1.178-0.835-2.43-1.387c-0.68-0.3-1.573-0.445-2.474-0.791
						c-0.75-0.289-1.622-0.432-2.478-0.739c-0.783-0.28-1.489-0.894-2.323-1.179c-0.806-0.276-1.698-0.344-2.522-0.615
						s-1.728-0.295-2.54-0.554c-0.841-0.269-1.64-0.618-2.437-0.863c-0.869-0.269-1.736-0.396-2.51-0.625
						c-0.926-0.272-1.713-0.687-2.432-0.884c-1.339-0.366-2.226-0.411-2.477-0.404c-0.274,0.008-1.193,0.335-2.205,1.502
						c-0.53,0.611-1.252,1.264-1.907,2.08c-0.55,0.686-1.018,1.528-1.619,2.308c-0.555,0.721-1.159,1.448-1.735,2.212
						c-0.561,0.745-0.759,1.774-1.313,2.525c-0.567,0.768-1.544,1.224-2.079,1.961c-0.578,0.797-0.598,1.946-1.107,2.664
						c-0.605,0.851-1.283,1.533-1.742,2.203C168.2,243.809,167.773,244.688,167.675,244.929z"/>
				</g>
			</g>
			<g>
				<g>
					<path fill="#E6DCCE" d="M297.882,196.932c1.188-0.163,0.576,0.569,0.699,2.5c0.04,0.626,0.063,1.43,0.054,2.411
						c-0.007,0.696-0.372,1.483-0.418,2.39c-0.034,0.725,0.26,1.546,0.193,2.421c-0.057,0.74-0.387,1.517-0.47,2.374
						c-0.07,0.749-0.047,1.556-0.14,2.4c-0.084,0.756-0.358,1.531-0.462,2.367c-0.043,0.351-0.289,1.16-0.72,2.234
						c-0.259,0.646-0.562,1.39-0.913,2.18c-0.307,0.69-0.832,1.326-1.183,2.061c-0.339,0.712-0.509,1.517-0.866,2.216
						c-0.374,0.731-0.635,1.502-1.004,2.16c-0.427,0.764-1.136,1.271-1.52,1.846c-0.68,1.014-1.048,1.896-1.417,1.896
						c-0.292,0-1.13-0.266-2.185-0.786c-0.596-0.294-1.285-0.658-2.033-1.061c-0.629-0.339-1.198-0.903-1.897-1.293
						c-0.647-0.362-1.405-0.583-2.081-0.969c-0.66-0.377-1.377-0.674-2.035-1.056c-0.674-0.391-1.251-0.931-1.891-1.307
						c-0.692-0.407-1.428-0.679-2.043-1.044c-0.734-0.435-1.371-0.88-1.938-1.219c-1.203-0.72-1.164-0.413-1.877-1.306
						c-0.764-0.955-0.66-1.027-1.3-2.069c-0.639-1.042-0.467-1.148-1.104-2.19c-0.639-1.043-0.83-0.926-1.469-1.968
						c-0.641-1.044-0.829-0.929-1.469-1.973c-0.642-1.044-1.444-1.059-1.025-2.21c0.42-1.149,1.188-0.209,2.35-0.595
						c1.162-0.386,1.154-0.409,2.317-0.795c1.161-0.386,1.146-0.435,2.308-0.82c1.162-0.387,1.119-0.519,2.281-0.906
						c1.163-0.386,1.224-0.2,2.387-0.586s1.138-0.459,2.302-0.845c1.163-0.387,1.103-0.569,2.267-0.956
						c1.161-0.386,1.171-0.356,2.332-0.742c1.163-0.386,1.186-0.32,2.348-0.706c1.164-0.387,1.076-0.653,2.239-1.04
						c1.164-0.387,1.313,0.06,2.477-0.327c1.165-0.387,1.016-0.833,2.18-1.22c1.167-0.387,1.358,0.122,2.479-0.386
						C296.781,197.492,296.665,197.098,297.882,196.932z"/>
				</g>
				<g>
					<path fill="#ECE5E0" d="M290.011,227.443c-0.104,0.439,0.117,0.651-0.284,0.859c-1.015,0.527-0.901-0.025-2.28-0.348
						c-0.639-0.15-1.318-0.631-2.151-0.828c-0.691-0.164-1.489-0.136-2.277-0.324c-0.712-0.171-1.485-0.231-2.249-0.416
						c-0.729-0.178-1.395-0.68-2.145-0.864c-0.74-0.183-1.475-0.404-2.215-0.589c-0.75-0.188-1.547-0.169-2.273-0.356
						c-0.765-0.196-1.469-0.54-2.18-0.729c-0.783-0.208-1.59-0.178-2.275-0.37c-0.828-0.232-1.514-0.649-2.141-0.846
						c-1.215-0.381-2.072-0.587-2.179-0.759c-0.145-0.237-0.181-1.181-0.269-2.432c-0.049-0.716-0.217-1.541-0.25-2.424
						c-0.029-0.784,0.139-1.615,0.121-2.44c-0.016-0.827-0.041-1.652-0.045-2.436c-0.005-0.889-0.069-1.722-0.059-2.439
						c0.019-1.388,0.167-2.243,0.234-2.316c0.049-0.053,0.806-0.184,2.165-0.272c0.654-0.042,1.419-0.172,2.271-0.219
						c0.711-0.039,1.469-0.272,2.271-0.313c0.734-0.037,1.511,0.118,2.292,0.08c0.752-0.036,1.52-0.043,2.285-0.079
						c0.766-0.035,1.529-0.127,2.282-0.161c0.782-0.035,1.561,0.189,2.298,0.157c0.805-0.035,1.566-0.257,2.279-0.288
						c0.854-0.036,1.63,0.021,2.287-0.006c1.406-0.059,1.539-1.067,2.375-0.29c-0.037,0.813-0.137,1.716-0.117,2.498
						c0.021,0.812,0.052,1.609,0.12,2.392c0.07,0.806,0.027,1.617,0.135,2.396c0.109,0.801,0.584,1.535,0.716,2.312
						c0.135,0.796,0.044,1.621,0.185,2.396c0.146,0.793,0.519,1.537,0.652,2.314c0.138,0.793-0.146,1.643-0.04,2.424
						c0.109,0.795,0.324,1.563,0.382,2.352C289.99,225.876,290.027,226.646,290.011,227.443z"/>
				</g>
				<g>
					<path fill="#F4EFEE" d="M264.454,207.853c-0.064,0.207,0.789,0.933,2.027,1.532c0.6,0.29,1.475,0.278,2.281,0.624
						c0.668,0.285,1.302,0.806,2.069,1.113c0.695,0.278,1.384,0.675,2.134,0.96c0.715,0.272,1.58,0.2,2.32,0.47
						c0.731,0.267,1.333,0.915,2.067,1.171c0.748,0.26,1.587,0.236,2.315,0.477c0.765,0.254,1.564,0.333,2.281,0.555
						c0.793,0.246,1.567,0.374,2.267,0.567c0.853,0.236,1.55,0.667,2.2,0.804c1.32,0.276,2.251,0.41,2.337,0.12
						c0.202-0.675,0.365-1.432,0.676-2.195c0.275-0.677,0.462-1.442,0.802-2.166c0.316-0.675,0.922-1.236,1.277-1.934
						c0.344-0.676,0.766-1.32,1.131-2.002c0.363-0.678,0.511-1.474,0.881-2.143c0.377-0.684,0.691-1.392,1.059-2.049
						c0.388-0.694,1.025-1.224,1.385-1.869c0.396-0.714,0.44-1.572,0.779-2.201c0.407-0.764,0.994-1.338,1.273-1.934
						c0.518-1.107,0.863-2.02,0.703-2.307c-0.136-0.243-0.978-0.689-2.101-1.096c-0.61-0.221-1.487,0.003-2.292-0.245
						c-0.673-0.208-1.402-0.387-2.167-0.604c-0.699-0.198-1.397-0.5-2.143-0.701c-0.718-0.192-1.337-0.822-2.069-1.01
						c-0.734-0.188-1.475-0.36-2.196-0.538c-0.75-0.185-1.593,0.074-2.301-0.093c-0.772-0.182-1.411-0.799-2.099-0.952
						c-0.822-0.183-1.621-0.105-2.258-0.234c-1.19-0.24-1.994-0.31-2.212-0.289c-0.239,0.023-1.093,0.447-1.907,1.523
						c-0.426,0.564-0.654,1.433-1.178,2.183c-0.438,0.63-0.77,1.401-1.246,2.116c-0.443,0.661-1.305,1.081-1.76,1.78
						c-0.445,0.683-0.788,1.446-1.227,2.135c-0.449,0.702-0.9,1.394-1.324,2.069c-0.455,0.728-0.637,1.589-1.039,2.244
						c-0.475,0.777-0.887,1.497-1.249,2.108C265.281,206.977,264.525,207.636,264.454,207.853z"/>
				</g>
			</g>
			<g>
				<g>
					<path fill="#ECE5E0" d="M217.558,227.716c-0.741,0.887,0.188,0.774,0.24,2.169c0.025,0.674,0.059,1.457,0.096,2.307
						c0.033,0.732-0.332,1.529-0.289,2.324c0.041,0.766,0.493,1.52,0.544,2.287c0.053,0.793-0.2,1.593-0.138,2.325
						c0.071,0.845,0.272,1.61,0.358,2.285c0.143,1.126,0.1,2.007,0.28,2.304c0.151,0.253,0.813,0.773,1.732,1.477
						c0.518,0.395,1.141,0.836,1.824,1.323c0.572,0.409,1.053,1.049,1.707,1.499c0.598,0.414,1.358,0.644,1.998,1.074
						c0.615,0.416,1.33,0.709,1.96,1.127c0.633,0.418,1.044,1.175,1.666,1.58c0.648,0.421,1.513,0.481,2.127,0.873
						c0.672,0.428,1.356,0.762,1.955,1.133c0.718,0.444,1.364,0.843,1.925,1.172c1.08,0.635,1.713,1.252,1.89,1.252
						c0.194,0,0.685-0.817,1.524-1.863c0.436-0.541,0.834-1.255,1.367-1.965c0.455-0.604,1.1-1.129,1.592-1.803
						c0.463-0.635,0.8-1.385,1.273-2.041c0.471-0.657,0.99-1.277,1.443-1.918c0.482-0.682,1.096-1.242,1.529-1.861
						c0.51-0.729,0.95-1.414,1.347-1.986c0.831-1.197,0.997-0.803,1.57-1.854c0.551-1.011,0.11-0.954,0.652-2.247
						c0.257-0.616,0.32-1.437,0.65-2.222c0.281-0.668,0.903-1.248,1.216-1.984c0.294-0.694,0.771-1.332,1.076-2.045
						c0.305-0.714,0.584-1.437,0.883-2.128c0.318-0.737,0.572-1.473,0.865-2.136c0.344-0.781,0.511-1.561,0.789-2.166
						c0.605-1.319,0.83-2.045,0.875-1.92c0.029,0.081-0.613,0.02-2.05,0.191c-0.646,0.077-1.39,0.386-2.259,0.477
						c-0.701,0.073-1.473,0.113-2.292,0.192c-0.724,0.07-1.495,0.062-2.294,0.136c-0.736,0.069-1.472,0.467-2.259,0.539
						c-0.746,0.067-1.56-0.417-2.339-0.348c-0.752,0.066-1.471,0.685-2.242,0.752c-0.758,0.065-1.566-0.356-2.335-0.291
						c-0.764,0.065-1.487,0.63-2.252,0.694c-0.769,0.064-1.565-0.24-2.325-0.177c-0.775,0.064-1.566-0.177-2.322-0.114
						c-0.779,0.064-1.542,0.178-2.29,0.238c-0.787,0.064-1.534,0.344-2.272,0.402c-0.802,0.065-1.553,0.316-2.279,0.375
						c-0.819,0.066-1.576,0.264-2.279,0.319c-0.868,0.069-1.641,0.106-2.289,0.158C218.267,227.745,218.293,226.836,217.558,227.716
						z"/>
				</g>
				<g>
					<path fill="#E6DCCE" d="M236.661,225.635c-0.809,0.909,0.056,1.084,0.056,2.598c0,0.693,0.05,1.514,0.05,2.427
						c0,0.753,0.354,1.569,0.354,2.433c0,0.777-0.465,1.592-0.465,2.432c0,0.793-0.069,1.606-0.069,2.432
						c0,0.804,0.344,1.617,0.344,2.433c0,0.814,0.072,1.629,0.072,2.435c0,0.826-0.418,1.642-0.418,2.438
						c0,0.838,0.155,1.654,0.155,2.435c0,0.859,0.183,1.677,0.183,2.435c0,0.904,0.015,1.726,0.014,2.434
						c0,1.138,0.02,1.987,0.02,2.433c0,3.473-0.354,1.3,0.38,0.958c0.433-0.201,1.046-0.655,1.89-1.252
						c0.557-0.395,1.371-0.598,2.05-1.112c0.578-0.438,1.004-1.159,1.642-1.658c0.59-0.463,1.239-0.892,1.855-1.386
						c0.598-0.479,1.332-0.809,1.936-1.299c0.605-0.492,1.361-0.799,1.952-1.283c0.615-0.506,0.895-1.394,1.472-1.871
						c0.63-0.523,1.313-0.926,1.867-1.39c0.666-0.558,1.166-1.182,1.676-1.612c1.093-0.922,1.405-0.254,1.93-1.287
						c0.502-0.992,0.288-0.842,0.371-2.194c0.04-0.646-0.207-1.417-0.158-2.241c0.039-0.701-0.115-1.461-0.073-2.236
						c0.039-0.728,0.66-1.447,0.699-2.197c0.037-0.75-0.358-1.521-0.326-2.251c0.033-0.776,0.14-1.524,0.164-2.228
						c0.027-0.824-0.22-1.582-0.213-2.23c0.012-1.169,0.349-1.999,0.264-2.227c-0.092-0.245-1.052-0.388-2.435-0.334
						c-0.71,0.027-1.559-0.077-2.467,0.002c-0.769,0.067-1.59,0.204-2.439,0.296c-0.799,0.087-1.606,0.313-2.429,0.414
						c-0.82,0.101-1.625,0.34-2.421,0.445c-0.848,0.112-1.713-0.1-2.48,0.007c-0.9,0.126-1.725,0.249-2.43,0.352
						C237.754,225.396,237.474,224.719,236.661,225.635z"/>
				</g>
				<g>
					<path fill="#F4EFEE" d="M256.023,224.004c-0.006,0.166-0.505,0.688-1.456,1.704c-0.476,0.509-0.739,1.392-1.381,2.042
						c-0.528,0.537-1.302,0.922-1.913,1.527c-0.556,0.549-1.232,1.02-1.832,1.603c-0.573,0.556-0.864,1.427-1.459,1.995
						c-0.585,0.561-1.5,0.783-2.09,1.338c-0.599,0.564-0.965,1.368-1.551,1.91c-0.615,0.57-1.088,1.267-1.668,1.792
						c-0.641,0.579-1.184,1.21-1.751,1.708c-0.69,0.603-1.507,0.923-2.051,1.365c-1.035,0.844-1.802,1.177-2.038,1.177
						c-0.249,0-1.025-0.316-2.133-1.04c-0.59-0.384-1.363-0.719-2.109-1.242c-0.625-0.438-1.097-1.191-1.793-1.697
						c-0.638-0.463-1.245-1.016-1.916-1.515c-0.647-0.481-1.475-0.742-2.128-1.238c-0.653-0.497-1.354-0.933-1.993-1.427
						c-0.662-0.514-1.099-1.287-1.718-1.777c-0.677-0.535-1.589-0.717-2.178-1.201c-0.709-0.578-1.152-1.338-1.684-1.799
						c-1.015-0.882-1.497-1.486-1.552-1.7c-0.055-0.208,0.443-0.681,1.393-1.685c0.477-0.504,0.656-1.478,1.307-2.114
						c0.538-0.526,1.104-1.122,1.729-1.71c0.565-0.533,1.245-1,1.858-1.563c0.586-0.537,1.534-0.7,2.145-1.249
						c0.602-0.541,1.195-1.092,1.801-1.627c0.615-0.543,0.888-1.466,1.489-1.988c0.631-0.548,1.593-0.68,2.188-1.186
						c0.654-0.557,1.1-1.294,1.681-1.774c0.704-0.579,1.3-1.15,1.849-1.577c1.072-0.831,1.848-0.915,2.05-0.915
						c0.212,0,0.981,0.069,2.091,0.788c0.577,0.375,1.354,0.675,2.091,1.182c0.614,0.423,0.952,1.343,1.64,1.831
						c0.629,0.447,1.364,0.796,2.026,1.277c0.64,0.464,1.278,0.949,1.925,1.427c0.646,0.478,1.497,0.683,2.129,1.159
						c0.655,0.494,1.311,0.965,1.924,1.437c0.67,0.516,1.152,1.208,1.738,1.672c0.702,0.559,1.424,0.958,1.95,1.403
						C255.678,223.2,256.029,223.828,256.023,224.004z"/>
				</g>
			</g>
			<g>
				<g>
					<path fill="#ECE5E0" d="M145.899,199.748c-0.741,0.887,0.187,0.774,0.238,2.169c0.028,0.674,0.06,1.458,0.098,2.307
						c0.034,0.732-0.332,1.529-0.288,2.324c0.04,0.766,0.493,1.521,0.543,2.287c0.053,0.794-0.199,1.593-0.138,2.326
						c0.071,0.844,0.272,1.611,0.358,2.285c0.142,1.125,0.102,2.007,0.281,2.304c0.152,0.252,0.81,0.773,1.732,1.476
						c0.518,0.395,1.141,0.835,1.822,1.323c0.573,0.409,1.054,1.049,1.706,1.5c0.598,0.413,1.359,0.643,1.999,1.074
						c0.616,0.416,1.332,0.709,1.963,1.126c0.631,0.418,1.04,1.175,1.664,1.581c0.648,0.421,1.514,0.481,2.126,0.873
						c0.673,0.428,1.358,0.762,1.958,1.133c0.717,0.444,1.363,0.844,1.923,1.173c1.081,0.635,1.714,1.252,1.89,1.252
						c0.194,0,0.686-0.818,1.525-1.863c0.434-0.542,0.832-1.255,1.367-1.965c0.452-0.603,1.098-1.129,1.59-1.803
						c0.463-0.634,0.803-1.384,1.273-2.041s0.99-1.277,1.445-1.918c0.482-0.682,1.094-1.242,1.528-1.861
						c0.511-0.728,0.949-1.414,1.346-1.985c0.832-1.198,0.997-0.803,1.572-1.854c0.549-1.01,0.11-0.954,0.651-2.247
						c0.258-0.616,0.32-1.437,0.65-2.221c0.28-0.668,0.903-1.248,1.216-1.985c0.293-0.694,0.771-1.332,1.076-2.044
						c0.305-0.713,0.584-1.436,0.883-2.127c0.318-0.737,0.572-1.473,0.866-2.137c0.344-0.781,0.512-1.56,0.788-2.165
						c0.606-1.319,0.831-2.045,0.876-1.921c0.029,0.081-0.614,0.02-2.05,0.191c-0.646,0.077-1.391,0.386-2.26,0.477
						c-0.701,0.073-1.472,0.113-2.29,0.192c-0.725,0.07-1.498,0.062-2.297,0.136c-0.736,0.069-1.472,0.467-2.26,0.539
						c-0.745,0.067-1.559-0.417-2.339-0.348c-0.751,0.066-1.468,0.685-2.241,0.752c-0.759,0.065-1.566-0.356-2.334-0.291
						c-0.764,0.065-1.488,0.63-2.252,0.694c-0.77,0.065-1.566-0.239-2.326-0.176c-0.773,0.064-1.565-0.177-2.32-0.115
						c-0.78,0.064-1.544,0.178-2.292,0.239c-0.786,0.064-1.534,0.343-2.271,0.403c-0.801,0.065-1.554,0.316-2.28,0.375
						c-0.82,0.066-1.577,0.264-2.28,0.319c-0.868,0.069-1.639,0.107-2.288,0.158C146.607,199.778,146.634,198.867,145.899,199.748z"
						/>
				</g>
				<g>
					<path fill="#E6DCCE" d="M165.001,197.668c-0.807,0.909,0.058,1.083,0.058,2.597c0,0.694,0.05,1.514,0.05,2.427
						c0,0.753,0.355,1.569,0.355,2.432c0,0.777-0.466,1.593-0.466,2.433c0,0.792-0.068,1.606-0.068,2.431
						c0,0.803,0.343,1.618,0.343,2.433c0,0.814,0.072,1.629,0.072,2.435c0,0.826-0.418,1.642-0.418,2.438
						c0,0.838,0.155,1.654,0.155,2.435c-0.001,0.859,0.181,1.677,0.181,2.435c0,0.905,0.017,1.726,0.017,2.435
						c-0.001,1.136,0.017,1.986,0.017,2.431c0,3.473-0.354,1.301,0.381,0.959c0.432-0.202,1.044-0.656,1.889-1.252
						c0.557-0.395,1.371-0.598,2.052-1.113c0.578-0.439,1.002-1.158,1.64-1.658c0.59-0.463,1.239-0.892,1.857-1.386
						c0.598-0.479,1.331-0.808,1.934-1.298c0.605-0.492,1.362-0.799,1.953-1.284c0.615-0.505,0.895-1.393,1.472-1.871
						c0.629-0.523,1.311-0.925,1.866-1.39c0.665-0.557,1.165-1.181,1.676-1.611c1.094-0.922,1.407-0.254,1.93-1.288
						c0.504-0.992,0.289-0.841,0.372-2.194c0.039-0.645-0.208-1.417-0.159-2.242c0.041-0.7-0.115-1.461-0.072-2.235
						c0.039-0.728,0.662-1.447,0.7-2.198c0.036-0.75-0.358-1.521-0.326-2.251c0.034-0.776,0.141-1.524,0.162-2.228
						c0.028-0.824-0.219-1.582-0.212-2.231c0.013-1.168,0.348-1.999,0.264-2.227c-0.092-0.245-1.052-0.388-2.434-0.334
						c-0.709,0.027-1.559-0.077-2.467,0.002c-0.769,0.067-1.59,0.204-2.439,0.296c-0.799,0.087-1.606,0.313-2.429,0.414
						c-0.819,0.101-1.622,0.34-2.419,0.445c-0.849,0.112-1.716-0.1-2.482,0.007c-0.901,0.125-1.725,0.249-2.43,0.352
						C166.097,197.429,165.816,196.752,165.001,197.668z"/>
				</g>
				<g>
					<path fill="#F4EFEE" d="M184.915,196.057c-0.008,0.166-0.972,0.744-1.926,1.76c-0.476,0.508-0.939,1.2-1.578,1.85
						c-0.531,0.538-1.209,1.015-1.82,1.62c-0.554,0.549-0.989,1.269-1.588,1.852c-0.572,0.556-1.208,1.071-1.803,1.64
						c-0.586,0.56-1.441,0.844-2.031,1.4c-0.6,0.564-1.015,1.315-1.6,1.857c-0.615,0.57-0.928,1.44-1.508,1.965
						c-0.64,0.579-1.305,1.071-1.876,1.57c-0.688,0.602-1.628,0.766-2.169,1.207c-1.037,0.844-1.605,1.755-1.843,1.755
						c-0.249,0-1.11-0.521-2.22-1.244c-0.59-0.384-1.391-0.688-2.139-1.212c-0.623-0.437-1.084-1.212-1.78-1.717
						c-0.638-0.462-1.401-0.809-2.071-1.308c-0.646-0.481-0.973-1.412-1.625-1.908c-0.654-0.497-1.578-0.639-2.217-1.132
						c-0.662-0.513-1.064-1.33-1.685-1.82c-0.675-0.536-1.53-0.783-2.122-1.266c-0.707-0.579-1.236-1.232-1.768-1.694
						c-1.014-0.882-1.392-1.492-1.447-1.706c-0.054-0.208,0.336-0.625,1.286-1.63c0.477-0.504,0.907-1.219,1.558-1.855
						c0.537-0.526,1.013-1.208,1.637-1.797c0.565-0.533,1.39-0.837,2.004-1.401c0.585-0.538,1.039-1.243,1.648-1.792
						c0.601-0.541,1.041-1.271,1.646-1.806c0.615-0.543,1.287-1.012,1.889-1.533c0.631-0.548,1.171-1.176,1.766-1.682
						c0.653-0.556,1.396-0.946,1.98-1.425c0.702-0.579,1.242-1.224,1.794-1.65c1.07-0.831,1.95-0.915,2.151-0.915
						c0.212,0,0.777,0.515,1.887,1.233c0.578,0.375,1.326,0.697,2.063,1.205c0.615,0.423,1.25,0.916,1.938,1.404
						c0.629,0.447,1.542,0.552,2.204,1.033c0.64,0.464,0.986,1.349,1.635,1.827c0.646,0.479,1.675,0.447,2.306,0.922
						c0.656,0.494,1.201,1.111,1.814,1.583c0.67,0.516,1.271,1.061,1.855,1.525c0.703,0.559,1.353,1.053,1.876,1.498
						C184.084,195.154,184.922,195.882,184.915,196.057z"/>
				</g>
			</g>
			<g>
				<g>
					<path fill="#E6DCCE" d="M294.922,234.963c0.74,0.887-0.337,0.9-0.391,2.295c-0.025,0.674,0.192,1.469,0.153,2.318
						c-0.034,0.73-0.078,1.509-0.121,2.303c-0.041,0.767,0.304,1.572,0.254,2.339c-0.053,0.794-0.089,1.579-0.151,2.313
						c-0.071,0.845-0.659,1.577-0.743,2.251c-0.143,1.126-0.164,1.951-0.344,2.248c-0.16,0.268-0.647,0.993-1.531,1.828
						c-0.505,0.478-1.406,0.691-2.064,1.285c-0.557,0.501-0.97,1.243-1.599,1.795c-0.584,0.511-1.315,0.891-1.931,1.42
						c-0.604,0.518-1.211,1.039-1.818,1.552c-0.621,0.524-0.849,1.51-1.445,2.004c-0.646,0.534-1.283,1.038-1.867,1.507
						c-0.693,0.559-1.739,0.537-2.289,0.954c-1.061,0.806-1.609,1.658-1.798,1.658c-0.184,0-0.563-0.975-1.465-1.995
						c-0.461-0.521-1.466-0.734-2.044-1.424c-0.482-0.578-0.561-1.566-1.096-2.221c-0.495-0.606-1.297-1-1.811-1.639
						c-0.503-0.626-0.749-1.465-1.248-2.094c-0.51-0.643-0.996-1.291-1.48-1.906c-0.523-0.666-1.531-0.908-1.998-1.504
						c-0.553-0.709-0.528-1.765-0.955-2.314c-0.906-1.167-1.109-0.682-1.715-1.723c-0.579-0.994-0.594-0.729-1.135-2.022
						c-0.258-0.616-0.186-1.493-0.516-2.277c-0.281-0.668-0.927-1.237-1.239-1.975c-0.294-0.694-0.42-1.481-0.725-2.194
						s-0.307-1.558-0.604-2.249c-0.318-0.737-1.162-1.218-1.453-1.881c-0.346-0.78-0.06-1.766-0.337-2.371
						c-0.605-1.319-1.515-2.05-1.56-1.925c-0.031,0.08,1.014,0.043,2.449,0.214c0.646,0.077,1.373,0.524,2.242,0.615
						c0.701,0.073,1.445,0.379,2.265,0.458c0.723,0.07,1.528-0.264,2.327-0.189c0.736,0.068,1.476,0.424,2.262,0.494
						c0.746,0.067,1.521,0.032,2.3,0.102c0.752,0.066,1.553-0.275,2.325-0.209c0.759,0.065,1.471,0.753,2.238,0.818
						c0.764,0.065,1.58-0.432,2.344-0.367c0.77,0.064,1.511,0.408,2.271,0.471c0.773,0.064,1.522,0.332,2.277,0.395
						c0.78,0.064,1.56-0.012,2.309,0.05c0.786,0.063,1.561,0.018,2.299,0.077c0.801,0.064,1.54,0.488,2.267,0.547
						c0.818,0.065,1.618-0.27,2.321-0.214c0.868,0.069,1.656-0.093,2.305-0.042C294.099,234.65,294.186,234.082,294.922,234.963z"/>
				</g>
				<g>
					<path fill="#ECE5E0" d="M271.721,243.499c0.747,0.978,0.199,0.979,0.819,2.331c0.299,0.652,0.632,1.416,0.997,2.243
						c0.318,0.714,1.173,1.251,1.506,2.035c0.318,0.749,0.118,1.733,0.425,2.495c0.314,0.784,1.141,1.361,1.41,2.104
						c0.307,0.837,0.52,1.669,0.729,2.38c0.293,1,0.348,1.91,0.348,2.475c0,0.885,0.09,1.568,0.324,2.131
						c0.394,0.934,1.146,1.596,1.002,2.109c-0.108,0.391-0.909,0.554-2.087,1c-0.47,0.178-1.265,0.166-2.265-0.348
						c-0.607-0.313-1.303-0.739-2.044-1.236c-0.61-0.412-1.17-1.008-1.844-1.514c-0.608-0.457-1.087-1.132-1.726-1.643
						c-0.609-0.487-1.292-0.902-1.911-1.42c-0.605-0.508-1.325-0.891-1.925-1.409c-0.608-0.526-1.028-1.255-1.612-1.773
						c-0.613-0.544-1.497-0.757-2.066-1.271c-0.622-0.565-1.245-1.074-1.788-1.577c-0.656-0.605-1.233-1.169-1.729-1.637
						c-1.071-1.011-0.861-0.813-1.369-1.888c-0.474-1.007-0.122-0.774-0.206-2.128c-0.039-0.645-0.295-1.387-0.344-2.211
						c-0.039-0.7-0.057-1.451-0.1-2.227c-0.039-0.728-0.212-1.471-0.248-2.222c-0.037-0.75-0.134-1.499-0.167-2.228
						c-0.033-0.776,0.1-1.537,0.076-2.24c-0.027-0.823-0.302-1.579-0.308-2.229c-0.014-1.168,0.186-2.045,0.271-2.273
						c0.096-0.26,0.973,0.398,2.199,1.261c0.588,0.413,1.364,0.782,2.099,1.349c0.621,0.479,1.11,1.213,1.79,1.758
						c0.635,0.51,1.273,1.053,1.924,1.588c0.648,0.533,1.386,0.957,2.014,1.481c0.666,0.558,1.556,0.812,2.155,1.321
						c0.706,0.598,1.307,1.201,1.856,1.672C271.078,242.748,270.966,242.508,271.721,243.499z"/>
				</g>
				<g>
					<path fill="#F4EFEE" d="M256.367,231.373c0.009,0.166,0.125,0.988,1.078,2.005c0.477,0.509,1.009,1.143,1.647,1.792
						c0.528,0.539,1.341,0.885,1.953,1.49c0.555,0.549,0.971,1.289,1.57,1.871c0.571,0.556,1.418,0.854,2.012,1.423
						c0.586,0.56,0.957,1.354,1.547,1.909c0.6,0.564,1.338,0.972,1.924,1.514c0.615,0.569,1.122,1.225,1.702,1.75
						c0.642,0.578,1.38,0.979,1.95,1.479c0.687,0.602,1.126,1.357,1.668,1.799c1.037,0.846,1.84,1.36,2.076,1.36
						c0.249,0,1.027-0.54,2.135-1.263c0.59-0.384,1.398-0.67,2.145-1.194c0.624-0.437,1.205-1.043,1.9-1.548
						c0.639-0.463,1.222-1.054,1.892-1.553c0.647-0.48,1.121-1.209,1.777-1.705c0.653-0.496,1.483-0.76,2.121-1.253
						c0.663-0.513,1.336-0.985,1.957-1.476c0.675-0.535,1.261-1.119,1.853-1.602c0.709-0.58,1.602-0.809,2.133-1.27
						c1.016-0.883,1.463-1.729,1.518-1.942c0.055-0.208-0.395-1-1.344-2.005c-0.477-0.504-1.31-0.83-1.96-1.466
						c-0.538-0.526-0.974-1.246-1.599-1.835c-0.564-0.532-1.143-1.104-1.756-1.668c-0.586-0.537-1.047-1.24-1.655-1.788
						c-0.601-0.54-1.574-0.673-2.178-1.208c-0.615-0.543-0.985-1.354-1.586-1.876c-0.632-0.548-1.483-0.808-2.078-1.313
						c-0.655-0.557-0.868-1.572-1.452-2.052c-0.701-0.579-1.473-0.941-2.021-1.368c-1.07-0.83-1.884-1.026-2.086-1.026
						c-0.211,0-0.837,0.451-1.946,1.169c-0.578,0.375-1.504,0.444-2.24,0.952c-0.616,0.423-1.358,0.771-2.046,1.259
						c-0.629,0.447-1.186,1.054-1.849,1.535c-0.64,0.464-0.968,1.375-1.614,1.853c-0.647,0.479-1.57,0.586-2.201,1.062
						c-0.656,0.494-1.411,0.835-2.024,1.308c-0.67,0.516-1.278,1.053-1.862,1.518c-0.703,0.559-0.982,1.498-1.508,1.943
						C256.874,230.836,256.363,231.197,256.367,231.373z"/>
				</g>
			</g>
			<g>
				<g>
					<path fill="#ECE5E0" d="M217.734,253.033c-1.188-0.162-0.505,0.493-0.629,2.425c-0.039,0.626,0.298,1.423,0.308,2.403
						c0.007,0.695-0.368,1.504-0.323,2.41c0.035,0.725,0.371,1.507,0.438,2.382c0.057,0.74,0.289,1.521,0.37,2.377
						c0.072,0.749,0.247,1.531,0.341,2.375c0.083,0.757-0.065,1.577,0.038,2.414c0.043,0.351,0.169,1.212,0.601,2.286
						c0.26,0.646,0.669,1.349,1.019,2.139c0.307,0.689,0.763,1.358,1.114,2.094c0.338,0.711,0.434,1.558,0.791,2.258
						c0.373,0.73,0.689,1.48,1.057,2.137c0.43,0.765,1.059,1.338,1.443,1.912c0.678,1.014,1.24,1.578,1.607,1.578
						c0.295,0,1.146-0.049,2.201-0.569c0.595-0.294,1.115-0.976,1.862-1.378c0.631-0.34,1.427-0.488,2.126-0.879
						c0.646-0.361,1.369-0.646,2.045-1.033c0.659-0.377,1.329-0.756,1.988-1.139c0.671-0.391,1.098-1.189,1.737-1.564
						c0.692-0.407,1.338-0.827,1.954-1.193c0.731-0.435,1.448-0.742,2.016-1.082c1.203-0.72,1.534,0.035,2.248-0.856
						c0.764-0.955,0.646-1.073,1.285-2.116c0.639-1.042,0.267-1.27,0.906-2.313c0.639-1.043,1.02-0.81,1.659-1.853
						c0.64-1.044,0.438-1.169,1.077-2.213c0.641-1.044,1.642-0.917,1.222-2.068c-0.418-1.15-1.007-0.695-2.169-1.081
						c-1.163-0.387-1.261-0.09-2.423-0.477c-1.162-0.386-1.212-0.236-2.374-0.623s-1.015-0.838-2.176-1.225
						c-1.162-0.386-1.201-0.27-2.363-0.656c-1.163-0.386-1.159-0.396-2.322-0.783c-1.164-0.387-1.257-0.109-2.421-0.496
						c-1.16-0.387-1.166-0.369-2.327-0.754c-1.162-0.387-1.096-0.586-2.259-0.973s-1.202-0.27-2.366-0.655
						c-1.164-0.387-1.235-0.173-2.399-0.56s-1.034-0.775-2.198-1.162c-1.167-0.388-1.3-0.032-2.43-0.516
						C218.863,253.513,218.95,253.2,217.734,253.033z"/>
				</g>
				<g>
					<path fill="#E6DCCE" d="M225.665,283.453c0.104,0.439-0.177,0.684,0.225,0.893c1.015,0.525,0.845-0.327,2.225-0.65
						c0.639-0.148,1.372-0.4,2.204-0.598c0.692-0.164,1.471-0.213,2.257-0.4c0.712-0.171,1.432-0.455,2.194-0.641
						c0.729-0.176,1.484-0.317,2.234-0.502c0.741-0.182,1.513-0.255,2.25-0.44c0.752-0.188,1.492-0.397,2.219-0.584
						c0.762-0.196,1.545-0.239,2.257-0.429c0.784-0.209,1.482-0.576,2.168-0.769c0.828-0.232,1.521-0.61,2.147-0.808
						c1.216-0.381,2.076-0.48,2.182-0.652c0.145-0.236,0.388-1.146,0.476-2.397c0.051-0.716,0.074-1.552,0.107-2.435
						c0.029-0.783,0.014-1.612,0.029-2.438c0.018-0.827-0.079-1.655-0.075-2.439c0.006-0.889,0.153-1.724,0.144-2.441
						c-0.019-1.387-0.145-2.393-0.212-2.465c-0.05-0.054-0.972-0.009-2.329-0.098c-0.656-0.042-1.424-0.111-2.275-0.158
						c-0.711-0.039-1.475-0.133-2.277-0.174c-0.736-0.037-1.511,0.139-2.291,0.102c-0.753-0.037-1.5-0.432-2.266-0.468
						c-0.768-0.035-1.551,0.288-2.306,0.255c-0.779-0.035-1.534-0.387-2.271-0.418c-0.806-0.035-1.589,0.256-2.301,0.226
						c-0.854-0.036-1.616-0.309-2.272-0.336c-1.406-0.06-1.6-1.009-2.435-0.231c0.034,0.813,0.001,1.771-0.021,2.553
						c-0.019,0.813,0.073,1.609,0.004,2.391c-0.069,0.807-0.038,1.613-0.144,2.393c-0.109,0.801-0.146,1.606-0.278,2.384
						c-0.135,0.796-0.292,1.58-0.435,2.356c-0.145,0.793-0.604,1.521-0.736,2.297c-0.137,0.794-0.257,1.587-0.363,2.369
						c-0.108,0.795,0.076,1.615,0.019,2.404C225.661,281.9,225.648,282.657,225.665,283.453z"/>
				</g>
				<g>
					<path fill="#F4EFEE" d="M250.912,263.957c0.065,0.207-0.505,0.898-1.745,1.498c-0.601,0.29-1.357,0.555-2.165,0.9
						c-0.666,0.285-1.475,0.393-2.245,0.699c-0.694,0.278-1.511,0.333-2.261,0.619c-0.716,0.271-1.271,1.029-2.013,1.299
						c-0.73,0.268-1.516,0.41-2.251,0.666c-0.747,0.26-1.442,0.666-2.169,0.907c-0.766,0.253-1.599,0.241-2.316,0.463
						c-0.793,0.245-1.613,0.237-2.313,0.431c-0.851,0.236-1.544,0.717-2.194,0.854c-1.32,0.275-2.457,0.318-2.543,0.027
						c-0.203-0.674,0.094-1.6-0.217-2.363c-0.276-0.677-0.993-1.211-1.332-1.935c-0.316-0.675-0.584-1.397-0.939-2.096
						c-0.344-0.676-0.94-1.229-1.306-1.911c-0.362-0.679-0.403-1.531-0.772-2.2c-0.377-0.684-0.71-1.382-1.077-2.039
						c-0.388-0.694-0.621-1.448-0.979-2.093c-0.396-0.715-0.816-1.363-1.151-1.992c-0.411-0.765-0.882-1.39-1.16-1.984
						c-0.519-1.107-0.895-1.881-0.733-2.168c0.136-0.243,1.018-0.308,2.141-0.715c0.611-0.221,1.32-0.46,2.127-0.709
						c0.67-0.207,1.272-0.842,2.036-1.059c0.699-0.198,1.405-0.496,2.15-0.697c0.719-0.191,1.454-0.385,2.187-0.572
						c0.733-0.188,1.555-0.031,2.278-0.209c0.75-0.185,1.406-0.707,2.115-0.873c0.773-0.184,1.574-0.09,2.263-0.242
						c0.822-0.184,1.546-0.45,2.184-0.579c1.188-0.239,2.016-0.188,2.233-0.167c0.238,0.022,0.815,0.648,1.628,1.725
						c0.426,0.564,0.92,1.232,1.442,1.982c0.438,0.629,0.722,1.432,1.199,2.146c0.442,0.66,1.069,1.232,1.523,1.932
						c0.446,0.683,1.007,1.304,1.446,1.992c0.447,0.702,0.588,1.59,1.01,2.264c0.457,0.729,1.199,1.238,1.603,1.895
						c0.476,0.777,0.966,1.453,1.329,2.064C250.595,262.851,250.843,263.741,250.912,263.957z"/>
				</g>
			</g>
			<path fill="none" stroke="#ECE5E0" stroke-width="2" stroke-miterlimit="10" d="M157.364,198.601
				c0.154,1.342-0.801,3.417,0.418,4.604c1.531,1.493,1.596-0.151,2.805-0.959c3.008-2.011,2.732,2.388,1.868,4.355
				c0.581-0.114,1.507-0.607,1.67-0.817"/>
			<path fill="none" stroke="#ECE5E0" stroke-width="2" stroke-miterlimit="10" d="M162.012,190.572
				c2.98-2.53,1.355,1.063,3.102,2.387c2.211,1.676,2.938-1.328,2.814-2.599"/>
			<path fill="none" stroke="#ECE5E0" stroke-width="2" stroke-miterlimit="10" d="M169.197,198.601
				c0.923-0.412,1.87-0.895,2.915-0.829c0.028,0.603,0.468,1.243,0.502,1.853c0.785,0.072,1.529-0.01,2.288-0.179"/>
			<path fill="none" stroke="#ECE5E0" stroke-width="2" stroke-miterlimit="10" d="M201.307,205.565
				c-1.588,2.212,0.001,3.419,2.295,3.412c-0.043,1.001,0.652,1.683,1.491,2.081c0.057,0.448-0.208,0.231-0.405,0.423"/>
			<path fill="none" stroke="#ECE5E0" stroke-width="2" stroke-miterlimit="10" d="M206.166,199.437
				c1.141-0.101,2.715-1.488,3.813-1.081c0.842,0.311,1.326,2.138,2.104,2.771"/>
			<path fill="none" stroke="#ECE5E0" stroke-width="2" stroke-miterlimit="10" d="M212.928,208.523
				c-0.461,1.884,0.087,4.86-2.324,5.494"/>
			<path fill="none" stroke="#ECE5E0" stroke-width="2" stroke-miterlimit="10" d="M220.957,206.41
				c0.323,0.793,1.016,1.239,1.901,1.268"/>
			<path fill="none" stroke="#ECE5E0" stroke-width="2" stroke-miterlimit="10" d="M173.415,244.654
				c1.033,0.216,2.225,0.357,3.132,0.983c0.854,0.588,0.876,1.677,1.729,1.553"/>
			<path fill="none" stroke="#ECE5E0" stroke-width="2" stroke-miterlimit="10" d="M179.966,237.47
				c1.447-0.596,5.53-1.246,5.071-3.17"/>
			<path fill="none" stroke="#ECE5E0" stroke-width="2" stroke-miterlimit="10" d="M191.376,241.485
				c1.541,0.532,1.857,3.491,0.845,4.648"/>
			<path fill="none" stroke="#ECE5E0" stroke-width="2" stroke-miterlimit="10" d="M197.08,234.512
				c0.539,0.833,1.489,1.13,2.324,0.634"/>
			<path fill="none" stroke="#ECE5E0" stroke-width="2" stroke-miterlimit="10" d="M196.025,176.195
				c0.878,0.388,1.797,0.907,1.901,1.902"/>
			<path fill="none" stroke="#ECE5E0" stroke-width="2" stroke-miterlimit="10" d="M202.364,165.841
				c1.787,0.133,4.767-2.032,5.705-1.69"/>
			<path fill="none" stroke="#ECE5E0" stroke-width="2" stroke-miterlimit="10" d="M206.166,171.758
				c0.349-0.088,0.88-0.006,1.235,0.021c0.041,1.512,0.102,4.185,2.355,3.101c1.627-0.782,0.691-3.943,2.928-3.723
				c0.038,0.371,0.105,0.858,0.032,1.235"/>
			<path fill="none" stroke="#ECE5E0" stroke-width="2" stroke-miterlimit="10" d="M237.227,193.732
				c-0.204,1.374-0.761,4.013,1.174,4.51c1.002,0.257,1.896-0.322,1.996-1.34"/>
			<path fill="none" stroke="#ECE5E0" stroke-width="2" stroke-miterlimit="10" d="M235.959,186.971
				c1.034-0.283,2.323-1.174,3.395-0.648c0.97,0.476,0.702,2.168,1.677,2.127"/>
			<path fill="none" stroke="#ECE5E0" stroke-width="2" stroke-miterlimit="10" d="M247.157,185.703
				c1.371,0.456,5.121,4.479,2.112,5.071"/>
			<path fill="none" stroke="#ECE5E0" stroke-width="2" stroke-miterlimit="10" d="M225.395,226.906
				c1.017,1.468,1.562,3.135,3.592,1.901"/>
			<path fill="none" stroke="#ECE5E0" stroke-width="2" stroke-miterlimit="10" d="M231.734,222.891
				c1.367-0.204,5.533-1.692,4.226,1.057"/>
			<path fill="none" stroke="#ECE5E0" stroke-width="2" stroke-miterlimit="10" d="M236.593,232.611
				c1.433,1.444,3.234-0.035,4.226-1.268"/>
			<path fill="none" stroke="#ECE5E0" stroke-width="2" stroke-miterlimit="10" d="M241.874,218.665
				c1.586,1.161,3.692,3.613,2.747,5.705"/>
			<path fill="none" stroke="#ECE5E0" stroke-width="2" stroke-miterlimit="10" d="M224.971,253.318
				c-0.546,0.656-1.745,1.887-1.515,2.873c0.242,1.031,1.767,1.063,2.316,1.764c0.906,1.15,0.867,2.466,0.256,3.814"/>
			<path fill="none" stroke="#ECE5E0" stroke-width="2" stroke-miterlimit="10" d="M231.521,256.487
				c-0.251-1.175,0.633-2.173,1.843-2.298c2.564-0.264,1.154,1.231,1.694,2.345c1.326,2.733,2.383-2.04,1.958-3.216"/>
			<path fill="none" stroke="#ECE5E0" stroke-width="2" stroke-miterlimit="10" d="M234.48,265.361
				c1.605-0.577,3.166-0.673,4.859-0.633"/>
			<path fill="none" stroke="#ECE5E0" stroke-width="2" stroke-miterlimit="10" d="M270.188,232.188
				c-1.854,1.502-1.392,5.468,1.48,5.071"/>
			<path fill="none" stroke="#ECE5E0" stroke-width="2" stroke-miterlimit="10" d="M276.95,239.795
				c0.057,1.197-0.584,3.176-1.268,3.381"/>
			<path fill="none" stroke="#ECE5E0" stroke-width="2" stroke-miterlimit="10" d="M280.754,229.019
				c0.672,0.619,1.245,1.322,1.69,2.112"/>
			<path fill="none" stroke="#ECE5E0" stroke-width="2" stroke-miterlimit="10" d="M274.838,224.581
				c0.165,0.195,0.386,0.269,0.633,0.211"/>
			<path fill="none" stroke="#ECE5E0" stroke-width="2" stroke-miterlimit="10" d="M271.879,204.719
				c3.239-2.986,3.044,4.625,6.128,2.113"/>
			<path fill="none" stroke="#ECE5E0" stroke-width="2" stroke-miterlimit="10" d="M277.796,196.69
				c1.057-0.514,2.058-1.062,1.901-2.324"/>
			<path fill="none" stroke="#ECE5E0" stroke-width="2" stroke-miterlimit="10" d="M285.614,200.916
				c1.868-0.696,2.357,0.116,3.883,0.434c0.616,0.128,1.261,1.043,1.611-0.645"/>
		</g>
	</g>
</g>
</svg>
