<?xml version="1.0" encoding="utf-8"?>
<!-- Generator: Adobe Illustrator 16.0.0, SVG Export Plug-In . SVG Version: 6.00 Build 0)  -->
<!DOCTYPE svg PUBLIC "-//W3C//DTD SVG 1.1//EN" "http://www.w3.org/Graphics/SVG/1.1/DTD/svg11.dtd">
<svg version="1.1" id="Ebene_1" xmlns="http://www.w3.org/2000/svg" xmlns:xlink="http://www.w3.org/1999/xlink" x="0px" y="0px"
	 width="450px" height="450px" viewBox="0 0 450 450" enable-background="new 0 0 450 450" xml:space="preserve">
<g>
	<g>
		<g>
			<g opacity="0.3">
				<polyline fill="#1D1D1B" points="156.941,174.668 152.138,176.676 147.092,178.37 146.061,183.267 149.405,187.672 
					154.719,189.542 159.608,188.934 161.13,183.046 160.809,177.921 157.474,175.267 				"/>
				<path fill="#1D1D1B" d="M160.82,183.401c-0.002,0.002-0.004,0.003-0.007,0.005c-0.407,0.448-0.903,0.849-1.492,1.184
					c-0.405,0.23-0.811,0.4-1.212,0.526c-3.371,1.415-7.357,0.773-9.533-2.709c-0.199-0.319-0.36-0.649-0.504-0.982
					c-0.487-0.261-0.974-0.524-1.458-0.792l-0.553,2.635l3.344,4.404l5.314,1.87l4.889-0.607l1.509-5.84
					C161.019,183.197,160.926,183.305,160.82,183.401z"/>
			</g>
			<g>
				<g>
					<polyline fill="#F5F2ED" points="153.365,170.376 148.562,172.384 143.515,174.078 142.485,178.975 145.828,183.38 
						151.143,185.25 156.031,184.642 157.553,178.754 157.233,173.629 153.898,170.975 					"/>
					<path fill="#EAE2D4" d="M157.243,179.109c-0.002,0.002-0.004,0.003-0.007,0.005c-0.407,0.448-0.903,0.849-1.492,1.184
						c-0.405,0.23-0.811,0.4-1.212,0.526c-3.371,1.415-7.357,0.773-9.533-2.709c-0.199-0.319-0.36-0.649-0.504-0.982
						c-0.487-0.261-0.974-0.524-1.458-0.792l-0.553,2.635l3.344,4.404l5.314,1.87l4.889-0.607l1.509-5.84
						C157.443,178.905,157.349,179.013,157.243,179.109z"/>
				</g>
			</g>
		</g>
		<g>
			<g opacity="0.3">
				<polyline fill="#1D1D1B" points="267.67,153.677 266.415,158.384 265.884,163.181 270.316,165.766 275.177,166.454 
					278.381,163.309 277.638,159.466 276.15,155.741 272.667,154.004 268.609,153.639 				"/>
				<path fill="#1D1D1B" d="M277.638,159.466l-0.762-1.906c-0.104,0.271-0.222,0.535-0.366,0.785
					c-1.304,2.258-3.906,3.381-6.428,2.921c-0.011,0.001-0.021,0.004-0.031,0.005c0.019,0.004,0.041,0.009,0.059,0.013
					c0.363,0.028,0.581,0.127,0,0c-0.034-0.003-0.07-0.004-0.107-0.005c-0.405,0.051-0.814,0.09-1.213,0.108
					c-0.943,0.042-1.838-0.177-2.643-0.573l-0.263,2.368l4.432,2.585l4.861,0.688l3.204-3.145L277.638,159.466z"/>
			</g>
			<g>
				<g>
					<polyline fill="#F5F2ED" points="264.094,149.385 262.839,154.092 262.308,158.889 266.74,161.474 271.601,162.162 
						274.805,159.017 274.062,155.174 272.573,151.449 269.091,149.712 265.032,149.347 					"/>
					<path fill="#EAE2D4" d="M274.062,155.174l-0.762-1.906c-0.104,0.271-0.222,0.535-0.366,0.785
						c-1.304,2.258-3.906,3.381-6.428,2.921c-0.011,0.001-0.021,0.004-0.031,0.005c0.019,0.004,0.041,0.009,0.059,0.013
						c0.363,0.028,0.581,0.127,0,0c-0.034-0.003-0.07-0.004-0.107-0.005c-0.405,0.051-0.814,0.09-1.213,0.108
						c-0.943,0.042-1.838-0.177-2.643-0.573l-0.263,2.368l4.432,2.585l4.861,0.688l3.204-3.145L274.062,155.174z"/>
				</g>
			</g>
		</g>
		<g>
			<g opacity="0.3">
				<path fill="#1D1D1B" d="M214.104,177.076l-4.116-4.738l-6.929-5.09l-1.072-2.44l-4.398-4.761l-5.576,3.457l-3.233,5.489
					l-6.349,0.537l-5.595,1.865l-3.187,5.691l-5.139,2.702l-1.823,4.497c2.466,3.738,4.412,8.022,6.024,10.634
					c2.959,4.789,6.379,9.428,9.568,14.192l2.217-0.073l5.386,0.903l5.506,0.167l5-2l3.979-3.21l5.068-0.91l2.251-5.186
					l-1.774-5.382l1.145-5.211l-1.373-5.029l2.417,1.265L214.104,177.076z"/>
				<path fill="#1D1D1B" d="M210.003,193.012c-1.348-0.201-2.674-0.493-3.989-0.825c-0.795-0.003-1.58-0.171-2.328-0.478
					c-1.2,0.565-2.578,0.734-3.955,0.3c-0.99-0.314-1.916-0.535-2.974-0.371c-0.422,0.065-0.84,0.084-1.253,0.079
					c-0.989,0.902-2.114,1.688-3.383,2.348c-1.241,3.398-4.94,5.899-8.563,3.404c-6.23-4.294-11.294-9.793-15.835-15.739
					l-1.036,2.556c2.466,3.738,4.412,8.022,6.024,10.634c2.959,4.789,6.379,9.428,9.568,14.192l2.217-0.073l5.386,0.903l5.506,0.167
					l5-2l3.979-3.21l5.068-0.91l2.251-5.186l-1.774-5.382L210.003,193.012z"/>
			</g>
			<g>
				<g>
					<path fill="#F5F2ED" d="M210.528,172.784l-4.116-4.738l-6.929-5.09l-1.072-2.44l-4.398-4.761l-5.576,3.457l-3.233,5.489
						l-6.349,0.537l-5.595,1.865l-3.187,5.691l-5.139,2.702l-1.823,4.497c2.466,3.738,4.412,8.022,6.024,10.634
						c2.959,4.789,6.379,9.428,9.568,14.192l2.217-0.073l5.386,0.903l5.506,0.167l5-2l3.979-3.21l5.068-0.91l2.251-5.186
						l-1.774-5.382l1.145-5.211l-1.373-5.029l2.417,1.265L210.528,172.784z"/>
					<path fill="#EAE2D4" d="M206.426,188.72c-1.348-0.201-2.674-0.493-3.989-0.825c-0.795-0.003-1.58-0.171-2.328-0.478
						c-1.2,0.565-2.578,0.734-3.955,0.3c-0.99-0.314-1.916-0.535-2.974-0.371c-0.422,0.065-0.84,0.084-1.253,0.079
						c-0.989,0.902-2.114,1.688-3.383,2.348c-1.241,3.398-4.94,5.899-8.563,3.404c-6.23-4.294-11.294-9.793-15.835-15.739
						l-1.036,2.556c2.466,3.738,4.412,8.022,6.024,10.634c2.959,4.789,6.379,9.428,9.568,14.192l2.217-0.073l5.386,0.903
						l5.506,0.167l5-2l3.979-3.21l5.068-0.91l2.251-5.186l-1.774-5.382L206.426,188.72z"/>
				</g>
			</g>
		</g>
		<g>
			<g opacity="0.3">
				<path fill="#1D1D1B" d="M256.328,178.116l0.771-7.434l-6.887-3.681l-3.078-4.042l-4.621-4.219l-5.569-2.478
					c-2.293,0.722-4.584,1.454-6.864,2.212c-3.463,1.15-6.858,2.768-10.294,4.186c-2.818,4.787-5.606,9.852-7.984,15.014
					l-0.114,0.58l0.174,5.431l2.294,5.267l4.004,2.972l5.503,1.769l1.534,5.056l2.863,4.054l5.165-1.809l5.298,0.636l3.952-6.204
					l7.65,1.206l5.353-5.295l5.397-3.999l-0.379-5.362L256.328,178.116z"/>
				<path fill="#1D1D1B" d="M260.494,181.974l-4.166-3.858l0.771-7.434l-0.333-0.179c0.014,0.18,0.034,0.356,0.034,0.543v0.357
					c0,2.398-1.385,4.428-3.378,5.436c-5.905,5.526-11.747,12.494-20.086,13.704c-4.258,0.619-7.642-2.438-7.614-5.985
					c-3.264,1.445-7.054,1.757-10.915,0.544c-0.971-0.305-1.913-0.681-2.817-1.118l2.164,4.968l4.004,2.972l5.503,1.769l1.534,5.056
					l2.863,4.054l5.165-1.809l5.298,0.636l3.952-6.204l7.65,1.206l5.353-5.295l5.397-3.999L260.494,181.974z"/>
			</g>
			<g>
				<g>
					<path fill="#F5F2ED" d="M252.752,173.824l0.771-7.434l-6.887-3.681l-3.078-4.042l-4.621-4.219l-5.569-2.478
						c-2.293,0.722-4.584,1.454-6.864,2.212c-3.463,1.15-6.858,2.768-10.295,4.186c-2.818,4.787-5.606,9.852-7.984,15.014
						l-0.114,0.58l0.174,5.431l2.294,5.267l4.004,2.972l5.503,1.769l1.534,5.056l2.863,4.054l5.165-1.809l5.298,0.636l3.952-6.204
						l7.65,1.206l5.353-5.295l5.397-3.999l-0.379-5.362L252.752,173.824z"/>
					<path fill="#EAE2D4" d="M256.918,177.682l-4.166-3.858l0.771-7.434l-0.333-0.179c0.014,0.18,0.034,0.356,0.034,0.543v0.357
						c0,2.398-1.385,4.428-3.378,5.436c-5.905,5.526-11.747,12.494-20.086,13.704c-4.258,0.619-7.642-2.438-7.614-5.985
						c-3.265,1.445-7.055,1.757-10.915,0.544c-0.971-0.305-1.913-0.681-2.817-1.118l2.164,4.968l4.004,2.972l5.503,1.769
						l1.534,5.056l2.863,4.054l5.165-1.809l5.298,0.636l3.952-6.204l7.65,1.206l5.353-5.295l5.397-3.999L256.918,177.682z"/>
				</g>
			</g>
		</g>
		<g>
			<g opacity="0.3">
				<path fill="#1D1D1B" d="M276.341,176.41c-3.895,0.098-7.939-0.137-11.873,0.216l-2.326,2.912l-1.58,4.123l-3.126,3.969
					l-2.877,4.657l-0.32,5.232l-1.119,4.669l0.163,5.157l-0.813,5.664l3.866-4.913l6.864-1.563l-1.738,5.438l8.025-6.952
					l2.373,4.303l4.869,3.604l7.752,1.483l3.987-2.109l3.602-3.212l3.256-4.336l2.313-4.882l3.518-4.326l0.734-5.492l-1.9-5.154
					l0.611-5.862l-5.117-2.963l-3.771-2.28C286.629,174.946,281.55,176.28,276.341,176.41z"/>
				<path fill="#1D1D1B" d="M289.093,174.394c-0.04,0.241-0.086,0.48-0.149,0.705c0.129,0.748,0.128,1.526-0.006,2.292
					c4.388,3.1,6.089,7.709,5.533,12.198c0.204,1.338-0.107,2.763-1.149,4.075c-1.18,2.636-3.168,5.029-5.864,6.795
					c-1.118,1.343-2.283,2.646-3.615,3.804c-1.058,0.921-6.506-3.313-7.81-2.728c-1.949,2.661-1.492,8.888-4.517,5.805
					c-0.268-0.273-0.553-0.531-0.845-0.782c-0.053,0.102-0.111,0.201-0.171,0.298l1.359,2.466l4.869,3.604l7.752,1.483l3.987-2.109
					l3.602-3.212l3.256-4.336l2.313-4.882l3.518-4.326l0.734-5.492l-1.9-5.154l0.611-5.862l-5.117-2.963l-3.771-2.28
					C290.84,173.99,289.968,174.193,289.093,174.394z"/>
			</g>
			<g>
				<g>
					<path fill="#F5F2ED" d="M272.765,172.118c-3.895,0.098-7.939-0.137-11.873,0.216l-2.326,2.912l-1.58,4.123l-3.126,3.969
						l-2.877,4.657l-0.32,5.232l-1.119,4.669l0.163,5.157l-0.813,5.664l3.866-4.913l6.864-1.563l-1.738,5.438l8.025-6.952
						l2.373,4.303l4.869,3.604l7.752,1.483l3.987-2.109l3.602-3.212l3.256-4.336l2.313-4.882l3.518-4.326l0.734-5.492l-1.9-5.154
						l0.611-5.862l-5.117-2.963l-3.771-2.28C283.053,170.654,277.974,171.988,272.765,172.118z"/>
					<path fill="#EAE2D4" d="M285.517,170.102c-0.04,0.241-0.086,0.48-0.149,0.705c0.129,0.748,0.128,1.526-0.006,2.292
						c4.388,3.1,6.089,7.709,5.533,12.198c0.204,1.338-0.107,2.763-1.149,4.075c-1.18,2.636-3.168,5.029-5.864,6.795
						c-1.118,1.343-2.283,2.646-3.615,3.804c-1.058,0.921-6.506-3.313-7.81-2.728c-1.949,2.661-1.492,8.888-4.517,5.805
						c-0.268-0.273-0.553-0.531-0.845-0.782c-0.053,0.102-0.111,0.201-0.171,0.298l1.359,2.466l4.869,3.604l7.752,1.483l3.987-2.109
						l3.602-3.212l3.256-4.336l2.313-4.882l3.518-4.326l0.734-5.492l-1.9-5.154l0.611-5.862l-5.117-2.963l-3.771-2.28
						C287.264,169.698,286.392,169.901,285.517,170.102z"/>
				</g>
			</g>
		</g>
		<g>
			<g opacity="0.3">
				<path fill="#1D1D1B" d="M247.596,212.933l-1.588-4.994l-4.433-3.645l-2.935-3.444l-0.247-0.64
					c-4.355-0.416-8.765-1.437-12.97-2.119c-3.009-0.488-6.318-1.054-8.876-1.308c-1.002-0.099-2.015-0.196-3.026-0.219
					l-0.264,0.349l-4.352,4.069l-0.105,6.575l-0.647,6.248l-2.487,6.616l3.815,5.87l3.301,7.637l7.894,1.125l5.546,0.116l5.43,2.804
					l5.407-2.342l5.715-0.7l4.641-3.646l1.147-6.474l2.738-6.074L247.596,212.933z"/>
				<path fill="#1D1D1B" d="M247.822,213.287c-0.199,2.159-0.868,4.22-1.906,6.226c-1.643,3.178-4.588,3.676-7.039,2.63
					c-0.734,0.427-1.499,0.814-2.293,1.158c-1.069,1.053-2.46,1.771-3.892,1.892c-1.672,2.403-4.682,3.687-7.6,1.554
					c-6.178-4.516-11.615-9.869-16.665-15.583l-0.273,2.644l-2.487,6.616l3.815,5.87l3.301,7.637l7.894,1.125l5.546,0.116
					l5.43,2.804l5.407-2.342l5.715-0.7l4.641-3.646l1.147-6.474l2.738-6.074L247.822,213.287z"/>
			</g>
			<g>
				<g>
					<path fill="#F5F2ED" d="M244.02,208.641l-1.588-4.994l-4.433-3.645l-2.935-3.444l-0.247-0.64
						c-4.355-0.416-8.765-1.437-12.971-2.119c-3.009-0.488-6.318-1.054-8.876-1.308c-1.002-0.099-2.015-0.196-3.026-0.219
						l-0.264,0.349l-4.352,4.069l-0.105,6.575l-0.647,6.248l-2.487,6.616l3.815,5.87l3.301,7.637l7.894,1.125l5.547,0.116
						l5.43,2.804l5.407-2.342l5.715-0.7l4.641-3.646l1.147-6.474l2.738-6.074L244.02,208.641z"/>
					<path fill="#EAE2D4" d="M244.245,208.995c-0.199,2.159-0.868,4.22-1.906,6.226c-1.643,3.178-4.588,3.676-7.039,2.63
						c-0.734,0.427-1.499,0.814-2.293,1.158c-1.069,1.053-2.46,1.771-3.892,1.892c-1.672,2.403-4.682,3.687-7.601,1.554
						c-6.178-4.516-11.615-9.869-16.665-15.583l-0.273,2.644l-2.487,6.616l3.815,5.87l3.301,7.637l7.894,1.125l5.547,0.116
						l5.43,2.804l5.407-2.342l5.715-0.7l4.641-3.646l1.147-6.474l2.738-6.074L244.245,208.995z"/>
				</g>
			</g>
		</g>
		<g>
			<g opacity="0.3">
				<path fill="#1D1D1B" d="M305.937,236.979c0.492-2.313,1.365-5.148,2.026-8.066l-0.498-1.354l-0.801-6.965l-5.928-3.077
					l-6.082-2.679l-6.997,0.98l-7.271,1.525l-4.822-3.299l-4.765-1.798l-8.073-2.139l-2.249,6.335l-2.747,5.257l-1.546,5.551
					l-1.547,5.768l3.488,5.813l4.339,5.039l4.622,3.536l5.618,1.708l3.987,5.526l6.317-3.513l6.105,2.17l5.519-3.128l5.692-1.737
					l4.53-1.016C305.059,243.9,305.231,240.292,305.937,236.979z"/>
				<path fill="#1D1D1B" d="M305.017,230.034c-1.595,4.637-3.678,9.951-8.092,12.358c-4.367,2.382-10.744,1.069-15.114-1.357
					c-0.852,0.317-1.738,0.569-2.686,0.712c-4.729,0.708-9.254-1.385-12.906-4.428c-4.078-2.286-7.949-5.015-10.281-9.146
					l-1.3,4.846l3.488,5.813l4.339,5.039l4.622,3.536l5.618,1.708l3.987,5.526l6.317-3.513l6.105,2.17l5.519-3.128l5.692-1.737
					l4.53-1.016c0.202-3.518,0.374-7.126,1.08-10.438c0.492-2.313,1.365-5.148,2.026-8.066l-0.294-0.801
					C306.853,228.823,305.96,229.463,305.017,230.034z"/>
			</g>
			<g>
				<g>
					<path fill="#F5F2ED" d="M302.361,232.687c0.492-2.313,1.365-5.148,2.026-8.066l-0.498-1.354l-0.801-6.965l-5.928-3.077
						l-6.082-2.679l-6.997,0.98l-7.271,1.525l-4.822-3.299l-4.765-1.798l-8.073-2.139l-2.249,6.335l-2.747,5.257l-1.546,5.551
						l-1.547,5.768l3.488,5.813l4.339,5.039l4.622,3.536l5.618,1.708l3.987,5.526l6.317-3.513l6.105,2.17l5.519-3.128l5.692-1.737
						l4.53-1.016C301.483,239.608,301.655,236,302.361,232.687z"/>
					<path fill="#EAE2D4" d="M301.441,225.742c-1.595,4.637-3.678,9.951-8.092,12.358c-4.367,2.382-10.744,1.069-15.114-1.357
						c-0.852,0.317-1.738,0.569-2.686,0.712c-4.729,0.708-9.254-1.385-12.906-4.428c-4.078-2.286-7.949-5.015-10.281-9.146
						l-1.3,4.846l3.488,5.813l4.339,5.039l4.622,3.536l5.618,1.708l3.987,5.526l6.317-3.513l6.105,2.17l5.519-3.128l5.692-1.737
						l4.53-1.016c0.202-3.518,0.374-7.126,1.08-10.438c0.492-2.313,1.365-5.148,2.026-8.066l-0.294-0.801
						C303.277,224.531,302.384,225.171,301.441,225.742z"/>
				</g>
			</g>
		</g>
		<g>
			<g opacity="0.3">
				<path fill="#1D1D1B" d="M150.998,229.037l1.17-7.359l3.91-6.712l2.239-5.776l3.974-2.176l5.986-3.251l3.745,2.771l8.226-0.896
					l5.579,0.793c2.762,5.561,5.196,11.302,8.758,16.411c0.278,0.398,0.58,0.748,0.897,1.06l-0.347,0.597l-2.508,5.893l-2.95,7.176
					l-3.3,7.195l-7.587,2.475l-7.295-1.617l-5.944-4.702l-6.4-0.885l-6.732,0.272l-2.505-5.801L150.998,229.037z"/>
				<path fill="#1D1D1B" d="M194.585,222.842c-1.037-1.488-1.972-3.033-2.854-4.608c-0.898,1.257-1.913,2.439-2.917,3.604
					c-1.048,1.214-2.986,2.785-2.875,4.337c0.141,1.961-1.104,4.231-2.847,5.469c-0.012,0.194-0.021,0.362-0.023,0.432
					c-0.006,0.515-0.008,1.029-0.009,1.543c-0.002,3.316-2.722,6.093-6.048,6.114c-3.299,0.021-6.116-2.739-6.114-6.048
					c0.001-0.629,0.021-1.242,0.052-1.848c-0.124,0.009-0.247,0.026-0.376,0.026h-1.814c-1.153,0.166-1.795,0.22-2.94,0h-0.252
					c-0.824,0-1.622-0.171-2.356-0.479c-0.77,0.518-1.566,0.928-2.392,1.143c-1.927,0.502-4.259,0.175-6.258,0.357
					c-1.477,0.135-2.893,0.086-4.315-0.055l-0.332,1.674l2.505,5.801l6.732-0.272l6.4,0.885l5.944,4.702l7.295,1.617l7.587-2.475
					l3.3-7.195l2.95-7.176l2.508-5.893l0.347-0.597C195.165,223.59,194.863,223.24,194.585,222.842z"/>
			</g>
			<g>
				<g>
					<path fill="#F5F2ED" d="M147.116,224.38l1.17-7.359l3.91-6.712l2.239-5.776l3.974-2.176l5.986-3.251l3.745,2.771l8.226-0.896
						l5.579,0.793c2.762,5.561,5.196,11.302,8.758,16.411c0.278,0.398,0.58,0.748,0.897,1.06l-0.347,0.597l-2.508,5.894l-2.95,7.176
						l-3.3,7.195l-7.587,2.475l-7.295-1.617l-5.944-4.702l-6.4-0.885l-6.732,0.272l-2.505-5.801L147.116,224.38z"/>
					<path fill="#EAE2D4" d="M190.703,218.184c-1.037-1.488-1.972-3.033-2.854-4.608c-0.898,1.257-1.913,2.439-2.917,3.604
						c-1.048,1.214-2.986,2.785-2.875,4.338c0.141,1.961-1.104,4.231-2.847,5.469c-0.012,0.194-0.021,0.362-0.023,0.432
						c-0.006,0.515-0.008,1.029-0.009,1.543c-0.002,3.316-2.722,6.093-6.048,6.114c-3.299,0.021-6.116-2.739-6.114-6.048
						c0.001-0.629,0.021-1.242,0.052-1.848c-0.124,0.009-0.247,0.026-0.376,0.026h-1.814c-1.153,0.166-1.795,0.22-2.94,0h-0.252
						c-0.824,0-1.622-0.171-2.356-0.479c-0.77,0.518-1.566,0.928-2.392,1.143c-1.927,0.502-4.259,0.175-6.258,0.357
						c-1.477,0.135-2.893,0.086-4.315-0.055l-0.332,1.674l2.505,5.801l6.732-0.272l6.4,0.885l5.944,4.702l7.295,1.617l7.587-2.475
						l3.3-7.195l2.95-7.176l2.508-5.894l0.347-0.597C191.283,218.932,190.982,218.583,190.703,218.184z"/>
				</g>
			</g>
		</g>
		<g>
			<g opacity="0.3">
				<polyline fill="#1D1D1B" points="257.044,285.94 255.119,289.697 254.282,293.442 256.711,297.292 260.153,300.302 
					263.663,297.56 267.464,293.469 266.395,288.061 263.66,284.687 258.888,285.538 				"/>
				<path fill="#1D1D1B" d="M261.82,294.719c-2.708,0.837-5.917-0.711-7.094-3.263l-0.443,1.985l2.429,3.85l3.441,3.01l3.511-2.741
					l3.801-4.092l-0.465-2.352C265.645,292.803,264.013,294.042,261.82,294.719z"/>
			</g>
			<g>
				<g>
					<polyline fill="#F5F2ED" points="253.468,281.648 251.543,285.405 250.706,289.15 253.135,293 256.576,296.01 260.087,293.268 
						263.888,289.177 262.819,283.769 260.084,280.395 255.312,281.246 					"/>
					<path fill="#EAE2D4" d="M258.243,290.427c-2.708,0.837-5.917-0.711-7.094-3.263l-0.443,1.985l2.429,3.85l3.441,3.01
						l3.511-2.741l3.801-4.092l-0.465-2.352C262.069,288.511,260.437,289.75,258.243,290.427z"/>
				</g>
			</g>
		</g>
		<g>
			<g opacity="0.3">
				<polyline fill="#1D1D1B" points="282.413,241.454 278.39,244.446 274.5,247.544 270.273,250.484 270.365,255.537 
					272.567,259.317 277.284,259.916 281.291,265.459 285.141,264.455 287.36,261.279 288.918,257.191 292.329,254.557 
					291.279,248.803 287.671,244.446 282.204,242.828 				"/>
				<path fill="#1D1D1B" d="M290.404,247.746c-0.658,1.26-1.394,2.462-2.214,3.635c-0.085,0.574-0.209,1.146-0.401,1.711
					c-1.575,4.627-6.758,5.778-10.043,2.775c-2.721-0.356-5.172-1.937-7.448-3.968l0.068,3.638l2.201,3.78l4.718,0.599l4.007,5.543
					l3.85-1.004l2.219-3.176l1.559-4.088l3.411-2.634l-1.051-5.754L290.404,247.746z"/>
			</g>
			<g>
				<g>
					<polyline fill="#F5F2ED" points="278.837,237.162 274.814,240.154 270.924,243.252 266.697,246.192 266.789,251.245 
						268.99,255.025 273.708,255.624 277.715,261.167 281.565,260.163 283.783,256.987 285.342,252.899 288.753,250.265 
						287.702,244.511 284.095,240.154 278.628,238.536 					"/>
					<path fill="#EAE2D4" d="M286.827,243.454c-0.658,1.26-1.394,2.462-2.214,3.635c-0.085,0.574-0.209,1.146-0.401,1.711
						c-1.575,4.627-6.758,5.778-10.043,2.775c-2.721-0.356-5.172-1.937-7.448-3.968l0.068,3.638l2.201,3.78l4.718,0.599l4.007,5.543
						l3.85-1.004l2.219-3.176l1.559-4.088l3.411-2.634l-1.051-5.754L286.827,243.454z"/>
				</g>
			</g>
		</g>
		<g>
			<g opacity="0.3">
				<path fill="#1D1D1B" d="M264.885,265.572l-1.078-6.781l-3.603-6.186l-2.064-5.323l-3.662-2.005l-5.517-2.995l-3.451,2.553
					l-7.58-0.825l-5.141,0.73c-2.545,5.124-4.788,10.415-8.07,15.123c-0.258,0.368-0.535,0.689-0.827,0.977l0.32,0.55l2.31,5.431
					l2.719,6.613l3.04,6.63l6.992,2.28l6.722-1.49l5.479-4.333l5.897-0.814l6.204,0.251l2.309-5.346L264.885,265.572z"/>
				<path fill="#1D1D1B" d="M261.601,269.119c-1.842-0.169-3.99,0.134-5.768-0.329c-2.773-0.724-5.217-3.801-7.344-5.633
					c-0.121-0.104-0.244-0.206-0.364-0.31c0.047,0.986-0.197,1.952-0.651,2.829c-0.726,3.657-5.854,5.626-8.886,3.565
					c-0.393-0.265-0.418-0.318-1.353-0.452c-2.514-0.361-4.728-3.379-4.549-5.854c0.102-1.431-1.686-2.878-2.649-3.997
					c-0.926-1.074-1.86-2.163-2.688-3.322c-0.813,1.452-1.674,2.876-2.629,4.247c-0.258,0.368-0.535,0.689-0.827,0.977l0.32,0.55
					l2.31,5.431l2.719,6.613l3.04,6.63l6.992,2.28l6.722-1.49l5.479-4.333l5.897-0.814l6.204,0.251l2.309-5.346l-0.307-1.542
					C264.266,269.198,262.961,269.244,261.601,269.119z"/>
			</g>
			<g>
				<g>
					<path fill="#F5F2ED" d="M261.309,261.28l-1.078-6.781l-3.603-6.186l-2.064-5.323l-3.662-2.005l-5.517-2.995l-3.451,2.553
						l-7.58-0.825l-5.141,0.73c-2.545,5.124-4.788,10.415-8.07,15.123c-0.258,0.368-0.535,0.689-0.827,0.977l0.32,0.55l2.311,5.431
						l2.719,6.613l3.04,6.63l6.992,2.28l6.722-1.49l5.479-4.333l5.897-0.814l6.204,0.251l2.309-5.346L261.309,261.28z"/>
					<path fill="#EAE2D4" d="M258.025,264.827c-1.842-0.169-3.99,0.134-5.768-0.329c-2.773-0.724-5.217-3.801-7.344-5.633
						c-0.121-0.104-0.244-0.206-0.364-0.31c0.047,0.986-0.197,1.952-0.651,2.829c-0.726,3.657-5.854,5.626-8.886,3.565
						c-0.393-0.265-0.418-0.318-1.353-0.452c-2.514-0.361-4.728-3.379-4.549-5.854c0.102-1.431-1.686-2.878-2.649-3.997
						c-0.926-1.074-1.86-2.163-2.688-3.322c-0.813,1.452-1.674,2.876-2.63,4.247c-0.258,0.368-0.535,0.689-0.827,0.977l0.32,0.55
						l2.311,5.431l2.719,6.613l3.04,6.63l6.992,2.28l6.722-1.49l5.479-4.333l5.897-0.814l6.204,0.251l2.309-5.346l-0.307-1.542
						C260.69,264.906,259.385,264.952,258.025,264.827z"/>
				</g>
			</g>
		</g>
		<g>
			<g opacity="0.3">
				<path fill="#1D1D1B" d="M216.973,257.806l0.508-7.457l-7.011-3.437l-3.219-3.93l-4.766-4.055l-5.652-2.28
					c-2.267,0.802-4.53,1.613-6.783,2.45c-3.421,1.272-6.757,3.009-10.142,4.545c-2.647,4.884-5.255,10.044-7.452,15.286
					l-0.094,0.583l0.364,5.422l2.478,5.183l4.106,2.828l5.562,1.575l1.711,4.998l3.004,3.951l5.098-1.989l5.318,0.45l3.731-6.34
					l7.688,0.937l5.163-5.479l5.253-4.187l-0.566-5.346L216.973,257.806z"/>
				<path fill="#1D1D1B" d="M221.273,261.515l-4.3-3.709l0.508-7.457l-0.338-0.166c0.021,0.179,0.047,0.355,0.053,0.542l0.013,0.356
					c0.084,2.396-1.228,4.474-3.184,5.55c-5.709,5.73-11.303,12.899-19.593,14.401c-4.234,0.769-7.723-2.168-7.82-5.714
					c-3.212,1.56-6.987,2.004-10.89,0.928c-0.979-0.271-1.935-0.612-2.854-1.019l2.337,4.889l4.106,2.828l5.562,1.575l1.711,4.998
					l3.004,3.951l5.098-1.989l5.318,0.45l3.731-6.34l7.688,0.937l5.163-5.479l5.253-4.187L221.273,261.515z"/>
			</g>
			<g>
				<g>
					<path fill="#F5F2ED" d="M213.397,253.514l0.508-7.457l-7.011-3.437l-3.219-3.93l-4.766-4.055l-5.652-2.28
						c-2.267,0.802-4.53,1.613-6.783,2.45c-3.421,1.272-6.757,3.009-10.142,4.545c-2.647,4.884-5.255,10.044-7.452,15.286
						l-0.094,0.583l0.364,5.422l2.478,5.183l4.106,2.828l5.562,1.575l1.711,4.998l3.004,3.951l5.098-1.989l5.318,0.45l3.731-6.34
						l7.688,0.937l5.163-5.479l5.253-4.187l-0.566-5.346L213.397,253.514z"/>
					<path fill="#EAE2D4" d="M217.697,257.223l-4.3-3.709l0.508-7.457l-0.338-0.166c0.021,0.179,0.047,0.355,0.053,0.542
						l0.013,0.356c0.084,2.396-1.228,4.474-3.184,5.55c-5.709,5.73-11.303,12.899-19.593,14.401
						c-4.234,0.769-7.723-2.168-7.82-5.714c-3.212,1.56-6.987,2.004-10.89,0.928c-0.979-0.271-1.935-0.612-2.854-1.019l2.337,4.889
						l4.106,2.828l5.562,1.575l1.711,4.998l3.004,3.951l5.098-1.989l5.318,0.45l3.731-6.34l7.688,0.937l5.163-5.479l5.253-4.187
						L217.697,257.223z"/>
				</g>
			</g>
		</g>
		<g>
			<g opacity="0.3">
				<polyline fill="#1D1D1B" points="219.447,232.765 215.74,236.418 211.686,239.872 212.557,244.8 217.301,247.64 
					222.929,247.395 227.239,245.01 226.456,238.978 224.25,234.342 220.166,233.123 				"/>
				<path fill="#1D1D1B" d="M226.301,239.423c-0.001,0.003-0.004,0.005-0.004,0.008c-0.212,0.567-0.522,1.123-0.944,1.654
					c-0.29,0.365-0.602,0.674-0.928,0.939c-2.602,2.57-6.54,3.46-9.855,1.04c-0.306-0.223-0.577-0.469-0.834-0.724
					c-0.55-0.061-1.099-0.124-1.647-0.192l0.469,2.651l4.743,2.841l5.629-0.245l4.309-2.386l-0.777-5.981
					C226.409,239.16,226.363,239.295,226.301,239.423z"/>
			</g>
			<g>
				<g>
					<polyline fill="#F5F2ED" points="215.87,228.473 212.163,232.126 208.11,235.58 208.981,240.508 213.724,243.348 
						219.353,243.103 223.662,240.718 222.88,234.686 220.673,230.05 216.589,228.831 					"/>
					<path fill="#EAE2D4" d="M222.725,235.131c-0.001,0.003-0.004,0.005-0.004,0.008c-0.212,0.567-0.522,1.123-0.944,1.654
						c-0.29,0.365-0.602,0.674-0.928,0.939c-2.602,2.57-6.54,3.46-9.855,1.04c-0.306-0.223-0.577-0.469-0.834-0.724
						c-0.55-0.061-1.099-0.124-1.647-0.192l0.469,2.651l4.743,2.841l5.629-0.245l4.31-2.386l-0.777-5.981
						C222.833,234.868,222.786,235.003,222.725,235.131z"/>
				</g>
			</g>
		</g>
	</g>
	<g>
		<path fill="none" stroke="#EAE2D4" stroke-width="2.8613" stroke-linecap="round" stroke-miterlimit="10" d="M178.706,171.745
			c-2.223,4.949,1.969,7.488,6.904,7.188"/>
		<path fill="none" stroke="#EAE2D4" stroke-width="2.8613" stroke-linecap="round" stroke-miterlimit="10" d="M196.279,174.141
			c1.951,1.652,4.584,4.529,1.997,6.79"/>
		<path fill="none" stroke="#EAE2D4" stroke-width="2.8613" stroke-linecap="round" stroke-miterlimit="10" d="M155.542,216.875
			c0.321,2.909,2.237,4.157,3.195,5.991"/>
		<path fill="none" stroke="#EAE2D4" stroke-width="2.8613" stroke-linecap="round" stroke-miterlimit="10" d="M175.909,219.671
			c2.594,2.727,6.013,4.796,4.394,9.186"/>
		<path fill="none" stroke="#EAE2D4" stroke-width="2.8613" stroke-linecap="round" stroke-miterlimit="10" d="M218.243,210.086
			c-4.643,2.661-3.864,9.2,0,11.98"/>
		<path fill="none" stroke="#EAE2D4" stroke-width="2.8613" stroke-linecap="round" stroke-miterlimit="10" d="M229.427,203.695
			c2.925-0.998,4.451,3.658,4.792,5.991"/>
		<path fill="none" stroke="#EAE2D4" stroke-width="2.8613" stroke-linecap="round" stroke-miterlimit="10" d="M168.323,208.089
			c1.495-0.778,3.351-1.425,5.191-1.198"/>
		<path fill="none" stroke="#EAE2D4" stroke-width="2.8613" stroke-linecap="round" stroke-miterlimit="10" d="M219.443,172.545
			c-1.94,4.529,5.382,8.768,8.786,7.188"/>
		<path fill="none" stroke="#EAE2D4" stroke-width="2.8613" stroke-linecap="round" stroke-miterlimit="10" d="M230.226,162.16
			c1.568,0.74,2.719,2.18,3.593,3.595"/>
		<path fill="none" stroke="#EAE2D4" stroke-width="2.8613" stroke-linecap="round" stroke-miterlimit="10" d="M264.571,186.522
			c0.267,2.044,0.877,4.178,2.797,5.192"/>
		<path fill="none" stroke="#EAE2D4" stroke-width="2.8613" stroke-linecap="round" stroke-miterlimit="10" d="M282.943,180.532
			c1.811,1.735,2.03,5.21,1.198,7.588"/>
		<path fill="none" stroke="#EAE2D4" stroke-width="2.8613" stroke-linecap="round" stroke-miterlimit="10" d="M269.365,225.261
			c-0.781,1.964,0.01,3.945,1.598,5.192"/>
		<path fill="none" stroke="#EAE2D4" stroke-width="2.8613" stroke-linecap="round" stroke-miterlimit="10" d="M263.373,213.281
			c-1,1.625-1.71,3.27-1.598,5.191"/>
		<path fill="none" stroke="#EAE2D4" stroke-width="2.8613" stroke-linecap="round" stroke-miterlimit="10" d="M292.927,220.07
			c3.076,2.416,7.57,12.79,4.394,15.975"/>
		<path fill="none" stroke="#EAE2D4" stroke-width="2.8613" stroke-linecap="round" stroke-miterlimit="10" d="M247.798,250.023
			c2.212,1.549,4.687,3.6,5.192,6.39"/>
		<path fill="none" stroke="#EAE2D4" stroke-width="2.8613" stroke-linecap="round" stroke-miterlimit="10" d="M235.018,257.611
			c-0.355,4.098,0.549,9.543,4.793,11.183"/>
		<path fill="none" stroke="#EAE2D4" stroke-width="2.8613" stroke-linecap="round" stroke-miterlimit="10" d="M234.618,247.227
			c0.857-0.181,1.633-0.439,2.396-0.799"/>
		<path fill="none" stroke="#EAE2D4" stroke-width="2.8613" stroke-linecap="round" stroke-miterlimit="10" d="M180.303,256.013
			c1.046,2.941,4.606,4.789,7.589,4.793"/>
		<path fill="none" stroke="#EAE2D4" stroke-width="2.8613" stroke-linecap="round" stroke-miterlimit="10" d="M194.281,243.233
			c0.814,1.152,1.756,2.351,2.796,3.195"/>
		<path fill="none" stroke="#EAE2D4" stroke-width="2.8613" stroke-linecap="round" stroke-miterlimit="10" d="M183.099,242.835
			c1.152,0.59,2.063,1.375,2.796,2.396"/>
		<path fill="none" stroke="#EAE2D4" stroke-width="2.8613" stroke-linecap="round" stroke-miterlimit="10" d="M276.154,246.029
			c1.186,0.943,2.548,2.087,2.796,3.595"/>
		<path fill="none" stroke="#EAE2D4" stroke-width="2.8613" stroke-linecap="round" stroke-miterlimit="10" d="M151.948,176.138
			c-0.099,1.903-0.857,4.038,0,5.991"/>
		<path fill="none" stroke="#EAE2D4" stroke-width="2.8613" stroke-linecap="round" stroke-miterlimit="10" d="M280.547,224.464
			c1.612,0.722,3.217,1.312,4.792,1.996"/>
	</g>
</g>
</svg>
