<?xml version="1.0" encoding="utf-8"?>
<!-- Generator: Adobe Illustrator 16.0.0, SVG Export Plug-In . SVG Version: 6.00 Build 0)  -->
<!DOCTYPE svg PUBLIC "-//W3C//DTD SVG 1.1//EN" "http://www.w3.org/Graphics/SVG/1.1/DTD/svg11.dtd">
<svg version="1.1" id="Ebene_1" xmlns="http://www.w3.org/2000/svg" xmlns:xlink="http://www.w3.org/1999/xlink" x="0px" y="0px"
	 width="450px" height="450px" viewBox="0 0 450 450" enable-background="new 0 0 450 450" xml:space="preserve">
<g>
	<g opacity="0.3">
		<path d="M256.161,146.107c-14.226,2.73-28.425,3.683-41.687,9.781c-15.518,7.135-28.531,16.686-40.645,27.953
			c-23.085,21.479-38.502,57.785-28.304,87.701c7.827,22.953,38.313,47.807,64.662,52.281c25.825,4.388,51.385,0.044,75.598-8.516
			c13.511-4.778,24.963-9.934,35.374-19.18c10.614-9.423,16.975-21.145,25.223-32.208c7.274-9.751,12.403-25.166,10.909-37.139
			c-0.764-6.094-4.139-11.906-5.278-18.01c-1.058-5.662-0.661-10.81-2.887-16.251c-3.388-8.283-4.76-18.135-12.137-23.774
			c-7.54-5.768-16.692-10.61-25.518-14.317C294.23,147.181,277.842,145.002,256.161,146.107z"/>
		<path d="M352.014,208.772c-1.058-5.662-0.661-10.81-2.887-16.251c-3.227-7.891-4.637-17.191-11.137-22.934l-18.795,105.623
			l-24.258,36.634c9.657-3.952,18.247-8.632,26.223-15.716c10.614-9.423,16.975-21.145,25.223-32.208
			c7.274-9.751,12.403-25.166,10.909-37.139C356.529,220.688,353.154,214.876,352.014,208.772z"/>
		<path stroke="#000000" stroke-width="1.2219" stroke-miterlimit="10" d="M169.506,281.725c1.351,3.453,5.869,8.267,10.29,8.267"/>
		<path stroke="#000000" stroke-width="1.2219" stroke-miterlimit="10" d="M162.686,247.006c1.185,5.817,3.337,9.196,7.353,13.444"
			/>
		<path stroke="#000000" stroke-width="1.2219" stroke-miterlimit="10" d="M184.094,268.42c0.922,3.376,4.237,10.473,8.544,11.081"
			/>
		<path stroke="#000000" stroke-width="1.2219" stroke-miterlimit="10" d="M181.496,234.881c1.646,4.282,2.252,7.952,6.409,10.973"
			/>
		<path stroke="#000000" stroke-width="1.2219" stroke-miterlimit="10" d="M187.687,207.591c1.317,5.88,1.214,10.93,7.281,14.894"/>
		<path stroke="#000000" stroke-width="1.2219" stroke-miterlimit="10" d="M208.244,245.906c1.257,4.79,4.033,6.73,6.969,10.52"/>
		<path stroke="#000000" stroke-width="1.2219" stroke-miterlimit="10" d="M218.804,238.208c2.133,4.095,4.491,8.69,8.52,11.564"/>
		<path stroke="#000000" stroke-width="1.2219" stroke-miterlimit="10" d="M209.024,209.148c2,4.859,3.945,9.115,8.469,12.531"/>
		<path stroke="#000000" stroke-width="1.2219" stroke-miterlimit="10" d="M218.465,191.709c-0.625,5.354,2.037,10.975,6.773,14.381
			"/>
		<path stroke="#000000" stroke-width="1.2219" stroke-miterlimit="10" d="M237.033,269.628c1.201,6.374,6.142,10.118,11.601,14.14"
			/>
		<path stroke="#000000" stroke-width="1.2219" stroke-miterlimit="10" d="M215.574,291.79c0.802,4.84,5.021,8.8,9.612,11.137"/>
		<path stroke="#000000" stroke-width="1.2219" stroke-miterlimit="10" d="M215.504,271.935c-0.805,5.112,5.642,9.615,10.119,11.646
			"/>
		<path stroke="#000000" stroke-width="1.2219" stroke-miterlimit="10" d="M197.347,302.979c1.01,2.72,2.471,5.427,5.558,6.572"/>
		<path stroke="#000000" stroke-width="1.2219" stroke-miterlimit="10" d="M233.441,181.323c0.062,4.797,2.172,7.63,5.876,10.948"/>
		<path stroke="#000000" stroke-width="1.2219" stroke-miterlimit="10" d="M256.016,211.511c1.144,1.6,5.887,10.302,9.562,12.1"/>
		<path stroke="#000000" stroke-width="1.2219" stroke-miterlimit="10" d="M256.305,258.976c0.914,6.347,5.902,10.951,10.463,15.535
			"/>
		<path stroke="#000000" stroke-width="1.2219" stroke-miterlimit="10" d="M281.112,276.687c2.613,4.102,4.942,6.853,9.151,9.657"/>
		<path stroke="#000000" stroke-width="1.2219" stroke-miterlimit="10" d="M266.063,299.17c-0.177,3.684,3.907,7.911,7.574,9.096"/>
		<path stroke="#000000" stroke-width="1.2219" stroke-miterlimit="10" d="M280.822,250.525c1.022,4.982,4.435,8.818,9.053,11.59"/>
		<path stroke="#000000" stroke-width="1.2219" stroke-miterlimit="10" d="M316.211,260.05c1.045,4.146,7.157,8.232,11.285,9.768"/>
		<path stroke="#000000" stroke-width="1.2219" stroke-miterlimit="10" d="M296.648,233.89c1.251,4.637,5.097,8.365,9.636,10.651"/>
		<path stroke="#000000" stroke-width="1.2219" stroke-miterlimit="10" d="M264.972,182.426c1.683,4.498,4.514,10.229,7.864,13.952"
			/>
		<path stroke="#000000" stroke-width="1.2219" stroke-miterlimit="10" d="M292.425,190.1c1.457,6.401,6.192,13.104,11.989,17.063"
			/>
		<path stroke="#000000" stroke-width="1.2219" stroke-miterlimit="10" d="M314.657,195.092c1.675,4.481,5.122,7.31,8.011,11.055"/>
		<path stroke="#000000" stroke-width="1.2219" stroke-miterlimit="10" d="M288.638,169.574c0.909,5.377,5.188,9.502,9.514,13.065"
			/>
		<path stroke="#000000" stroke-width="1.2219" stroke-miterlimit="10" d="M252.18,159.992c2.857,2.65,3.028,8.063,7.477,11.029"/>
		<path stroke="#000000" stroke-width="1.2219" stroke-miterlimit="10" d="M217.42,169.867c0.928,3.937,3.91,6.811,7.016,9.55"/>
		<path stroke="#000000" stroke-width="1.2219" stroke-miterlimit="10" d="M196.402,183.334c0.705,4.129,2.684,8.639,6.941,11.004"
			/>
		<path stroke="#000000" stroke-width="1.2219" stroke-miterlimit="10" d="M148.073,260.798c2.073,4.916,3.678,10.592,8.957,13.525"
			/>
		<path stroke="#000000" stroke-width="1.2219" stroke-miterlimit="10" d="M332.474,213.417c1.058,5.209,5.286,9.484,11.265,10.249"
			/>
		<path stroke="#000000" stroke-width="1.2219" stroke-miterlimit="10" d="M236.788,306.415c0.389,3.444,0.913,8.102,5.438,8.989"/>
		<path stroke="#000000" stroke-width="1.2219" stroke-miterlimit="10" d="M241.135,219.961c1.273,6.42,5.801,13.057,12.017,16.583"
			/>
		<path stroke="#000000" stroke-width="1.2219" stroke-miterlimit="10" d="M160.864,219.316c-1.217,5.755,3.085,11.344,7.817,14.919
			"/>
		<path stroke="#000000" stroke-width="1.2219" stroke-miterlimit="10" d="M276.452,209.632c2.737,4.194,4.841,9.365,9.565,12.103"
			/>
		<path stroke="#000000" stroke-width="1.2219" stroke-miterlimit="10" d="M302.179,272.902c1.904,4.445,5.374,7.896,9.057,11.592"
			/>
		<path stroke="#000000" stroke-width="1.2219" stroke-miterlimit="10" d="M321.6,227.395c4.048,4.506,7.123,8.867,12.207,12.72"/>
		<path stroke="#000000" stroke-width="1.2219" stroke-miterlimit="10" d="M321.89,178.99c1.138,3.015,4.68,5.84,7.088,8.104"/>
	</g>
	<g>
		<g>
			<path fill="#A98148" d="M246.394,133.212c-14.113,2.709-28.198,3.654-41.354,9.702c-15.393,7.078-28.302,16.554-40.318,27.73
				c-22.902,21.305-38.198,57.323-28.078,87.002c7.765,22.768,38.006,47.422,64.145,51.861c25.619,4.353,50.977,0.047,74.996-8.448
				c13.402-4.737,24.762-9.852,35.092-19.024c10.526-9.348,16.837-20.976,25.02-31.949c7.215-9.675,12.305-24.966,10.819-36.845
				c-0.753-6.044-4.103-11.812-5.231-17.865c-1.049-5.617-0.659-10.722-2.867-16.121c-3.357-8.218-4.718-17.989-12.037-23.585
				c-7.481-5.721-16.561-10.524-25.316-14.206C284.156,134.276,267.9,132.118,246.394,133.212z"/>
			<path fill="#BE7979" d="M250.081,140.028c-14.226,2.729-28.424,3.683-41.686,9.781c-15.518,7.134-28.531,16.686-40.645,27.953
				c-23.085,21.479-38.503,57.785-28.304,87.701c7.827,22.953,38.313,47.806,64.662,52.28c25.825,4.389,51.385,0.044,75.598-8.516
				c13.51-4.777,24.963-9.934,35.374-19.179c10.614-9.423,16.975-21.146,25.223-32.208c7.274-9.752,12.403-25.166,10.909-37.139
				c-0.764-6.094-4.139-11.907-5.279-18.01c-1.057-5.662-0.661-10.81-2.887-16.251c-3.387-8.283-4.759-18.135-12.136-23.774
				c-7.54-5.769-16.692-10.61-25.518-14.318C288.15,141.102,271.763,138.923,250.081,140.028z"/>
			<path fill="#AC6060" d="M345.934,202.693c-1.057-5.662-0.661-10.81-2.887-16.251c-3.227-7.891-4.637-17.191-11.136-22.934
				l-18.795,105.623l-24.258,36.634c9.656-3.952,18.247-8.632,26.223-15.716c10.614-9.423,16.975-21.146,25.223-32.208
				c7.274-9.752,12.403-25.166,10.909-37.139C350.449,214.609,347.074,208.796,345.934,202.693z"/>
			<path fill="#E1A5A5" d="M247.854,136.407c-14.225,2.729-28.424,3.683-41.688,9.782c-15.514,7.133-28.529,16.686-40.643,27.952
				c-23.084,21.478-38.503,57.784-28.303,87.7c7.827,22.955,38.313,47.806,64.66,52.282c25.826,4.388,51.387,0.045,75.599-8.517
				c13.511-4.777,24.962-9.932,35.376-19.179c10.613-9.422,16.973-21.146,25.222-32.209c7.272-9.75,12.403-25.165,10.908-37.137
				c-0.761-6.094-4.138-11.909-5.276-18.009c-1.06-5.664-0.665-10.812-2.889-16.251c-3.389-8.286-4.759-18.136-12.136-23.777
				c-7.541-5.767-16.692-10.607-25.52-14.317C285.921,137.481,269.535,135.302,247.854,136.407z"/>
			<path fill="#EEC6C6" d="M166.537,187.76c11.868-11.314,24.607-20.916,39.773-28.12c12.962-6.154,26.81-7.175,40.692-9.968
				c21.139-1.21,37.101,0.887,53.868,8.045c8.583,3.662,17.478,8.456,24.797,14.179c7.157,5.602,8.439,15.435,11.692,23.693
				c2.141,5.424,1.728,10.568,2.726,16.221c1.076,6.088,4.336,11.879,5.045,17.961c0.479,4.119,0.173,8.651-0.707,13.221
				c3.589-8.364,5.561-17.903,4.562-25.908c-0.761-6.094-4.138-11.909-5.276-18.009c-1.06-5.664-0.665-10.812-2.889-16.251
				c-3.389-8.286-4.759-18.136-12.136-23.777c-7.541-5.767-16.692-10.607-25.52-14.317c-17.244-7.247-33.63-9.427-55.312-8.321
				c-14.225,2.729-28.424,3.683-41.688,9.782c-15.514,7.133-28.529,16.686-40.643,27.952c-21.448,19.956-36.27,52.715-30.077,81.255
				C135.634,230.603,148.817,204.649,166.537,187.76z"/>
			<path opacity="0.3" fill="#C07A7A" d="M348.986,217.083c-0.761-6.094-4.138-11.909-5.276-18.009
				c-1.06-5.664-0.665-10.812-2.889-16.251c-3.389-8.286-4.759-18.136-12.136-23.777c-2.642-2.019-5.489-3.911-8.444-5.69
				L177.547,305.06c7.995,4.475,16.354,7.706,24.334,9.063c25.826,4.388,51.387,0.045,75.599-8.517
				c13.511-4.777,24.962-9.932,35.376-19.179c10.613-9.422,16.973-21.146,25.222-32.209
				C345.35,244.469,350.481,229.054,348.986,217.083z"/>
			<g>
				<path fill="#E7B2B2" stroke="#E7B2B2" stroke-width="1.2219" stroke-miterlimit="10" d="M163.427,275.646
					c1.351,3.453,5.868,8.267,10.29,8.267"/>
				<path fill="#E7B2B2" stroke="#E7B2B2" stroke-width="1.2219" stroke-miterlimit="10" d="M156.606,240.927
					c1.186,5.817,3.338,9.196,7.354,13.443"/>
				<path fill="#E7B2B2" stroke="#E7B2B2" stroke-width="1.2219" stroke-miterlimit="10" d="M178.014,262.34
					c0.922,3.377,4.238,10.474,8.545,11.082"/>
				<path fill="#E7B2B2" stroke="#E7B2B2" stroke-width="1.2219" stroke-miterlimit="10" d="M175.417,228.802
					c1.646,4.282,2.251,7.951,6.409,10.973"/>
				<path fill="#E7B2B2" stroke="#E7B2B2" stroke-width="1.2219" stroke-miterlimit="10" d="M181.607,201.511
					c1.318,5.879,1.215,10.93,7.281,14.894"/>
				<path fill="#E7B2B2" stroke="#E7B2B2" stroke-width="1.2219" stroke-miterlimit="10" d="M202.165,239.827
					c1.257,4.79,4.032,6.73,6.969,10.519"/>
				<path fill="#E7B2B2" stroke="#E7B2B2" stroke-width="1.2219" stroke-miterlimit="10" d="M212.725,232.129
					c2.133,4.095,4.491,8.69,8.52,11.564"/>
				<path fill="#E7B2B2" stroke="#E7B2B2" stroke-width="1.2219" stroke-miterlimit="10" d="M202.944,203.069
					c2,4.859,3.946,9.115,8.469,12.53"/>
				<path fill="#E7B2B2" stroke="#E7B2B2" stroke-width="1.2219" stroke-miterlimit="10" d="M212.386,185.629
					c-0.625,5.354,2.036,10.976,6.772,14.382"/>
				<path fill="#E7B2B2" stroke="#E7B2B2" stroke-width="1.2219" stroke-miterlimit="10" d="M230.953,263.549
					c1.201,6.373,6.143,10.117,11.602,14.14"/>
				<path fill="#E7B2B2" stroke="#E7B2B2" stroke-width="1.2219" stroke-miterlimit="10" d="M209.495,285.711
					c0.801,4.84,5.021,8.799,9.612,11.136"/>
				<path fill="#E7B2B2" stroke="#E7B2B2" stroke-width="1.2219" stroke-miterlimit="10" d="M209.424,265.856
					c-0.805,5.112,5.643,9.615,10.12,11.646"/>
				<path fill="#E7B2B2" stroke="#E7B2B2" stroke-width="1.2219" stroke-miterlimit="10" d="M191.268,296.9
					c1.01,2.719,2.471,5.426,5.558,6.572"/>
				<path fill="#E7B2B2" stroke="#E7B2B2" stroke-width="1.2219" stroke-miterlimit="10" d="M227.362,175.244
					c0.061,4.797,2.172,7.63,5.875,10.947"/>
				<path fill="#E7B2B2" stroke="#E7B2B2" stroke-width="1.2219" stroke-miterlimit="10" d="M249.937,205.432
					c1.144,1.6,5.887,10.302,9.562,12.1"/>
				<path fill="#E7B2B2" stroke="#E7B2B2" stroke-width="1.2219" stroke-miterlimit="10" d="M250.225,252.897
					c0.914,6.346,5.902,10.95,10.464,15.535"/>
				<path fill="#E7B2B2" stroke="#E7B2B2" stroke-width="1.2219" stroke-miterlimit="10" d="M275.032,270.607
					c2.612,4.102,4.942,6.854,9.151,9.658"/>
				<path fill="#E7B2B2" stroke="#E7B2B2" stroke-width="1.2219" stroke-miterlimit="10" d="M259.984,293.091
					c-0.177,3.683,3.907,7.91,7.573,9.096"/>
				<path fill="#E7B2B2" stroke="#E7B2B2" stroke-width="1.2219" stroke-miterlimit="10" d="M274.742,244.446
					c1.022,4.981,4.434,8.818,9.053,11.59"/>
				<path fill="#E7B2B2" stroke="#E7B2B2" stroke-width="1.2219" stroke-miterlimit="10" d="M310.131,253.97
					c1.045,4.145,7.157,8.231,11.286,9.767"/>
				<path fill="#E7B2B2" stroke="#E7B2B2" stroke-width="1.2219" stroke-miterlimit="10" d="M290.569,227.81
					c1.251,4.638,5.097,8.366,9.635,10.652"/>
				<path fill="#E7B2B2" stroke="#E7B2B2" stroke-width="1.2219" stroke-miterlimit="10" d="M258.893,176.345
					c1.683,4.499,4.513,10.23,7.863,13.953"/>
				<path fill="#E7B2B2" stroke="#E7B2B2" stroke-width="1.2219" stroke-miterlimit="10" d="M286.346,184.021
					c1.457,6.401,6.192,13.104,11.989,17.063"/>
				<path fill="#E7B2B2" stroke="#E7B2B2" stroke-width="1.2219" stroke-miterlimit="10" d="M308.578,189.011
					c1.675,4.482,5.122,7.311,8.011,11.055"/>
				<path fill="#E7B2B2" stroke="#E7B2B2" stroke-width="1.2219" stroke-miterlimit="10" d="M282.559,163.495
					c0.909,5.376,5.188,9.501,9.514,13.064"/>
				<path fill="#E7B2B2" stroke="#E7B2B2" stroke-width="1.2219" stroke-miterlimit="10" d="M246.101,153.912
					c2.857,2.651,3.028,8.063,7.477,11.03"/>
				<path fill="#E7B2B2" stroke="#E7B2B2" stroke-width="1.2219" stroke-miterlimit="10" d="M211.34,163.787
					c0.928,3.938,3.91,6.812,7.016,9.551"/>
				<path fill="#E7B2B2" stroke="#E7B2B2" stroke-width="1.2219" stroke-miterlimit="10" d="M190.323,177.255
					c0.705,4.129,2.684,8.638,6.941,11.004"/>
				<path fill="#E7B2B2" stroke="#E7B2B2" stroke-width="1.2219" stroke-miterlimit="10" d="M141.993,254.719
					c2.073,4.916,3.678,10.592,8.956,13.524"/>
				<path fill="#E7B2B2" stroke="#E7B2B2" stroke-width="1.2219" stroke-miterlimit="10" d="M326.395,207.338
					c1.058,5.209,5.285,9.484,11.265,10.248"/>
				<path fill="#E7B2B2" stroke="#E7B2B2" stroke-width="1.2219" stroke-miterlimit="10" d="M230.709,300.336
					c0.388,3.443,0.912,8.101,5.438,8.988"/>
				<path fill="#E7B2B2" stroke="#E7B2B2" stroke-width="1.2219" stroke-miterlimit="10" d="M235.056,213.882
					c1.273,6.419,5.8,13.057,12.017,16.583"/>
				<path fill="#E7B2B2" stroke="#E7B2B2" stroke-width="1.2219" stroke-miterlimit="10" d="M154.784,213.237
					c-1.217,5.754,3.085,11.344,7.817,14.919"/>
				<path fill="#E7B2B2" stroke="#E7B2B2" stroke-width="1.2219" stroke-miterlimit="10" d="M270.373,203.552
					c2.737,4.194,4.841,9.365,9.564,12.102"/>
				<path fill="#E7B2B2" stroke="#E7B2B2" stroke-width="1.2219" stroke-miterlimit="10" d="M296.1,266.822
					c1.904,4.445,5.374,7.896,9.057,11.593"/>
				<path fill="#E7B2B2" stroke="#E7B2B2" stroke-width="1.2219" stroke-miterlimit="10" d="M315.521,221.315
					c4.048,4.507,7.122,8.868,12.207,12.72"/>
				<path fill="#E7B2B2" stroke="#E7B2B2" stroke-width="1.2219" stroke-miterlimit="10" d="M315.81,172.91
					c1.138,3.015,4.681,5.841,7.089,8.105"/>
			</g>
		</g>
	</g>
</g>
<g>
	<g>
		<g>
			<path fill="#A98148" d="M211.904,123.805c-14.115,2.709-28.199,3.655-41.354,9.704c-15.394,7.077-28.304,16.551-40.318,27.728
				c-22.903,21.308-38.2,57.324-28.08,87.002c7.766,22.77,38.008,47.424,64.146,51.862c25.617,4.352,50.974,0.046,74.994-8.448
				c13.401-4.738,24.762-9.853,35.093-19.024c10.527-9.348,16.836-20.976,25.021-31.95c7.214-9.675,12.303-24.965,10.817-36.845
				c-0.754-6.044-4.103-11.811-5.23-17.863c-1.05-5.617-0.661-10.723-2.867-16.123c-3.357-8.216-4.72-17.988-12.037-23.582
				c-7.482-5.724-16.562-10.526-25.315-14.207C249.667,124.871,233.41,122.711,211.904,123.805z"/>
			<path fill="#BE7979" d="M215.591,130.622c-14.228,2.729-28.426,3.683-41.688,9.781c-15.516,7.134-28.529,16.686-40.642,27.953
				c-23.087,21.478-38.506,57.785-28.304,87.701c7.826,22.953,38.31,47.805,64.658,52.28c25.826,4.389,51.387,0.045,75.6-8.517
				c13.511-4.776,24.963-9.933,35.374-19.178c10.612-9.421,16.974-21.146,25.224-32.208c7.271-9.752,12.399-25.166,10.907-37.14
				c-0.763-6.093-4.139-11.907-5.277-18.008c-1.059-5.663-0.664-10.812-2.889-16.252c-3.386-8.282-4.759-18.134-12.135-23.775
				c-7.54-5.769-16.692-10.608-25.519-14.318C253.658,131.697,237.271,129.515,215.591,130.622z"/>
			<path fill="#AC6060" d="M311.444,193.288c-1.059-5.663-0.664-10.812-2.889-16.252c-3.225-7.891-4.636-17.19-11.134-22.932
				l-18.797,105.62l-24.257,36.634c9.658-3.95,18.245-8.63,26.223-15.715c10.612-9.421,16.974-21.146,25.224-32.208
				c7.271-9.752,12.399-25.166,10.907-37.14C315.958,205.203,312.582,199.388,311.444,193.288z"/>
			<path fill="#E1A5A5" d="M213.363,127.002c-14.225,2.729-28.424,3.682-41.686,9.78c-15.517,7.134-28.529,16.686-40.645,27.952
				c-23.085,21.478-38.504,57.786-28.303,87.701c7.826,22.954,38.311,47.807,64.66,52.281c25.826,4.389,51.387,0.046,75.598-8.516
				c13.514-4.775,24.962-9.932,35.377-19.178c10.612-9.424,16.973-21.145,25.222-32.208c7.272-9.753,12.402-25.166,10.907-37.14
				c-0.762-6.093-4.138-11.908-5.275-18.008c-1.06-5.664-0.665-10.812-2.889-16.251c-3.388-8.285-4.758-18.136-12.135-23.775
				c-7.542-5.768-16.693-10.611-25.521-14.319C251.431,128.074,235.044,125.896,213.363,127.002z"/>
			<path fill="#EEC6C6" d="M132.045,178.353c13.498-14.848,24.69-7.043,24.69-7.043s-9.619-7.377,15.084-21.077
				c12.549-6.957,26.81-7.173,40.691-9.968c21.141-1.208,37.102,0.888,53.87,8.044c8.581,3.664,17.475,8.456,24.796,14.179
				c7.159,5.602,8.439,15.435,11.694,23.692c2.138,5.428,1.728,10.569,2.725,16.223c1.076,6.087,4.335,11.88,5.043,17.961
				c0.479,4.12,0.174,8.65-0.704,13.221c3.586-8.364,5.559-17.903,4.559-25.909c-0.762-6.093-4.138-11.908-5.275-18.008
				c-1.06-5.664-0.665-10.812-2.889-16.251c-3.388-8.285-4.758-18.136-12.135-23.775c-7.542-5.768-16.693-10.611-25.521-14.319
				c-17.243-7.248-33.63-9.426-55.312-8.32c-14.225,2.729-28.424,3.682-41.686,9.78c-15.517,7.134-28.529,16.686-40.645,27.952
				c-21.449,19.958-36.269,52.715-30.076,81.256C101.143,221.196,115.577,196.467,132.045,178.353z"/>
			<path opacity="0.3" fill="#C07A7A" d="M314.493,207.676c-0.762-6.093-4.138-11.908-5.275-18.008
				c-1.06-5.664-0.665-10.812-2.889-16.251c-3.388-8.285-4.758-18.136-12.135-23.775c-2.643-2.022-5.49-3.913-8.444-5.692
				L143.056,295.652c7.994,4.478,16.353,7.709,24.334,9.064c25.826,4.389,51.387,0.046,75.598-8.516
				c13.514-4.775,24.962-9.932,35.377-19.178c10.612-9.424,16.973-21.145,25.222-32.208
				C310.859,235.062,315.989,219.649,314.493,207.676z"/>
			<g>
				<path fill="#E7B2B2" stroke="#E7B2B2" stroke-width="1.2219" stroke-miterlimit="10" d="M128.934,266.242
					c1.351,3.451,5.868,8.264,10.292,8.266"/>
				<path fill="#E7B2B2" stroke="#E7B2B2" stroke-width="1.2219" stroke-miterlimit="10" d="M122.115,231.52
					c1.186,5.816,3.337,9.196,7.353,13.443"/>
				<path fill="#E7B2B2" stroke="#E7B2B2" stroke-width="1.2219" stroke-miterlimit="10" d="M143.524,252.932
					c0.921,3.377,4.237,10.475,8.544,11.084"/>
				<path fill="#E7B2B2" stroke="#E7B2B2" stroke-width="1.2219" stroke-miterlimit="10" d="M140.927,219.394
					c1.645,4.283,2.25,7.952,6.406,10.976"/>
				<path fill="#E7B2B2" stroke="#E7B2B2" stroke-width="1.2219" stroke-miterlimit="10" d="M147.116,192.105
					c1.318,5.878,1.213,10.932,7.28,14.892"/>
				<path fill="#E7B2B2" stroke="#E7B2B2" stroke-width="1.2219" stroke-miterlimit="10" d="M167.674,230.422
					c1.257,4.789,4.033,6.729,6.968,10.519"/>
				<path fill="#E7B2B2" stroke="#E7B2B2" stroke-width="1.2219" stroke-miterlimit="10" d="M178.232,222.721
					c2.132,4.098,4.492,8.692,8.521,11.565"/>
				<path fill="#E7B2B2" stroke="#E7B2B2" stroke-width="1.2219" stroke-miterlimit="10" d="M168.451,193.663
					c2,4.861,3.948,9.115,8.472,12.529"/>
				<path fill="#E7B2B2" stroke="#E7B2B2" stroke-width="1.2219" stroke-miterlimit="10" d="M177.894,176.222
					c-0.624,5.354,2.037,10.976,6.772,14.382"/>
				<path fill="#E7B2B2" stroke="#E7B2B2" stroke-width="1.2219" stroke-miterlimit="10" d="M196.463,254.141
					c1.2,6.376,6.142,10.117,11.599,14.143"/>
				<path fill="#E7B2B2" stroke="#E7B2B2" stroke-width="1.2219" stroke-miterlimit="10" d="M175.005,276.306
					c0.8,4.838,5.018,8.796,9.609,11.134"/>
				<path fill="#E7B2B2" stroke="#E7B2B2" stroke-width="1.2219" stroke-miterlimit="10" d="M174.934,256.45
					c-0.807,5.112,5.64,9.616,10.118,11.646"/>
				<path fill="#E7B2B2" stroke="#E7B2B2" stroke-width="1.2219" stroke-miterlimit="10" d="M156.775,287.494
					c1.011,2.719,2.473,5.427,5.561,6.574"/>
				<path fill="#E7B2B2" stroke="#E7B2B2" stroke-width="1.2219" stroke-miterlimit="10" d="M192.869,165.838
					c0.061,4.799,2.173,7.63,5.874,10.947"/>
				<path fill="#E7B2B2" stroke="#E7B2B2" stroke-width="1.2219" stroke-miterlimit="10" d="M215.445,196.025
					c1.145,1.6,5.887,10.303,9.563,12.101"/>
				<path fill="#E7B2B2" stroke="#E7B2B2" stroke-width="1.2219" stroke-miterlimit="10" d="M215.735,243.491
					c0.916,6.346,5.901,10.95,10.462,15.536"/>
				<path fill="#E7B2B2" stroke="#E7B2B2" stroke-width="1.2219" stroke-miterlimit="10" d="M240.54,261.201
					c2.611,4.104,4.943,6.854,9.154,9.657"/>
				<path fill="#E7B2B2" stroke="#E7B2B2" stroke-width="1.2219" stroke-miterlimit="10" d="M225.492,283.685
					c-0.179,3.684,3.907,7.909,7.572,9.095"/>
				<path fill="#E7B2B2" stroke="#E7B2B2" stroke-width="1.2219" stroke-miterlimit="10" d="M240.248,235.039
					c1.025,4.982,4.438,8.819,9.056,11.592"/>
				<path fill="#E7B2B2" stroke="#E7B2B2" stroke-width="1.2219" stroke-miterlimit="10" d="M275.638,244.565
					c1.049,4.146,7.16,8.231,11.288,9.766"/>
				<path fill="#E7B2B2" stroke="#E7B2B2" stroke-width="1.2219" stroke-miterlimit="10" d="M256.076,218.405
					c1.249,4.637,5.099,8.365,9.637,10.651"/>
				<path fill="#E7B2B2" stroke="#E7B2B2" stroke-width="1.2219" stroke-miterlimit="10" d="M224.402,166.939
					c1.686,4.501,4.513,10.23,7.863,13.952"/>
				<path fill="#E7B2B2" stroke="#E7B2B2" stroke-width="1.2219" stroke-miterlimit="10" d="M251.854,174.615
					c1.458,6.401,6.192,13.104,11.989,17.063"/>
				<path fill="#E7B2B2" stroke="#E7B2B2" stroke-width="1.2219" stroke-miterlimit="10" d="M274.087,179.605
					c1.676,4.482,5.122,7.311,8.009,11.054"/>
				<path fill="#E7B2B2" stroke="#E7B2B2" stroke-width="1.2219" stroke-miterlimit="10" d="M248.069,154.088
					c0.909,5.378,5.187,9.502,9.514,13.065"/>
				<path fill="#E7B2B2" stroke="#E7B2B2" stroke-width="1.2219" stroke-miterlimit="10" d="M211.611,144.507
					c2.855,2.65,3.026,8.063,7.475,11.028"/>
				<path fill="#E7B2B2" stroke="#E7B2B2" stroke-width="1.2219" stroke-miterlimit="10" d="M176.85,154.382
					c0.928,3.937,3.91,6.811,7.015,9.552"/>
				<path fill="#E7B2B2" stroke="#E7B2B2" stroke-width="1.2219" stroke-miterlimit="10" d="M155.832,167.85
					c0.703,4.127,2.683,8.638,6.939,11.001"/>
				<path fill="#E7B2B2" stroke="#E7B2B2" stroke-width="1.2219" stroke-miterlimit="10" d="M107.502,245.312
					c2.073,4.915,3.677,10.591,8.958,13.524"/>
				<path fill="#E7B2B2" stroke="#E7B2B2" stroke-width="1.2219" stroke-miterlimit="10" d="M291.904,197.931
					c1.057,5.209,5.285,9.485,11.264,10.25"/>
				<path fill="#E7B2B2" stroke="#E7B2B2" stroke-width="1.2219" stroke-miterlimit="10" d="M196.22,290.928
					c0.388,3.444,0.908,8.103,5.436,8.989"/>
				<path fill="#E7B2B2" stroke="#E7B2B2" stroke-width="1.2219" stroke-miterlimit="10" d="M200.565,204.475
					c1.272,6.418,5.801,13.057,12.015,16.583"/>
				<path fill="#E7B2B2" stroke="#E7B2B2" stroke-width="1.2219" stroke-miterlimit="10" d="M120.294,203.83
					c-1.22,5.757,3.084,11.344,7.814,14.921"/>
				<path fill="#E7B2B2" stroke="#E7B2B2" stroke-width="1.2219" stroke-miterlimit="10" d="M235.881,194.145
					c2.738,4.195,4.843,9.365,9.563,12.103"/>
				<path fill="#E7B2B2" stroke="#E7B2B2" stroke-width="1.2219" stroke-miterlimit="10" d="M261.609,257.416
					c1.903,4.445,5.375,7.896,9.057,11.592"/>
				<path fill="#E7B2B2" stroke="#E7B2B2" stroke-width="1.2219" stroke-miterlimit="10" d="M281.029,211.909
					c4.048,4.508,7.124,8.868,12.209,12.72"/>
				<path fill="#E7B2B2" stroke="#E7B2B2" stroke-width="1.2219" stroke-miterlimit="10" d="M281.321,163.506
					c1.137,3.012,4.681,5.84,7.087,8.104"/>
			</g>
		</g>
	</g>
</g>
</svg>
