<?xml version="1.0" encoding="utf-8"?>
<!-- Generator: Adobe Illustrator 16.0.0, SVG Export Plug-In . SVG Version: 6.00 Build 0)  -->
<!DOCTYPE svg PUBLIC "-//W3C//DTD SVG 1.1//EN" "http://www.w3.org/Graphics/SVG/1.1/DTD/svg11.dtd">
<svg version="1.1" id="Ebene_1" xmlns="http://www.w3.org/2000/svg" xmlns:xlink="http://www.w3.org/1999/xlink" x="0px" y="0px"
	 width="450px" height="450px" viewBox="0 0 450 450" enable-background="new 0 0 450 450" xml:space="preserve">
<g>
	<g>
		<path fill="#E8877F" d="M134.57,227.385c9.787-19.212,6.323-45.73,23.033-61.39c15.288-14.208,34.251-26.524,50.956-38.635
			c13.867-10.659,32.001-12.117,48.713-6.483c20.995,7.942,29.355,24.235,45.254,39.265c25.073,22.759,39.747,62.863,26.498,96.479
			c-12.641,32.16-30.782,59.942-66.859,59.942c-25.072,0-57.283-22.769-78.073-34.25l0,0c-6.925-2.925-15.286-6.479-23.028-8.565
			c-10.396-3.551-23.034-4.385-29.964-14.199c-6.319-7.936,0-26.527,4.284-33.624L134.57,227.385z"/>
	</g>
	<g>
		<g>
			<path fill="#E8BEB7" d="M304.158,162.437c-16.096-15.039-24.459-31.538-45.252-39.261c-16.702-5.641-34.855-4.395-48.707,6.473
				c-16.713,12.113-35.467,24.23-50.959,38.638c-16.306,15.453-13.461,40.936-22.422,60.144c-4.289,7.31-10.4,25.687-4.075,33.411
				c6.923,10.027,19.565,10.659,29.961,14.203c7.745,2.088,16.097,5.636,23.03,8.564c20.999,11.48,53.001,34.244,78.067,34.244
				c36.285,0,54.426-27.774,66.86-59.929C343.906,225.297,329.23,185.406,304.158,162.437z M318.017,235.953
				c-6.317,27.143-18.748,77.061-55.844,72.259c-8.969-1.467-14.674-7.948-22.218-12.123v-0.614
				c-17.529-12.956-40.359-23.608-59.922-32.168c-7.75-3.553-18.751-6.474-24.463-12.946c-5.494-6.894-1.633-16.073-1.423-23.801
				c-0.21,0.628-0.407,1.04-0.614,1.671l0.614-2.09c0,0.211,0,0.419,0,0.627c4.078-10.027,2.849-25.479,4.888-36.963
				c5.501-22.138,20.178-25.687,37.707-36.33c14.679-8.567,26.499-25.062,44.637-25.693c10.396,0,13.252,7.942,21.607,13.576
				c7.748,6.479,16.714,10.027,24.462,16.493c11.823,9.189,20.178,22.142,28.534,34.251
				C324.343,204.624,321.486,221.748,318.017,235.953z"/>
		</g>
	</g>
	<g>
		<g>
			<g>
				<path fill="#D86557" d="M177.785,237.826c0.408,0.834-0.206,1.463,1.229,1.674C179.621,237.409,178.801,237.826,177.785,237.826
					L177.785,237.826z"/>
			</g>
			<g>
				<path fill="#D86557" d="M178.194,227.595c0.406,0.83,0.607,1.46,1.629,1.873c0.607-2.084-0.203-1.67-1.43-1.248L178.194,227.595
					z"/>
			</g>
			<g>
				<path fill="#D86557" d="M182.469,224.463c0.613,0.414,0.408,1.25,1.631,0.831c0-1.669-0.609-1.461-1.83-1.461L182.469,224.463z"
					/>
			</g>
			<g>
				<path fill="#D86557" d="M186.955,231.977c0,1.671,1.231,4.175,2.445,2.088c1.225-1.464-1.429-1.258-1.629-0.834L186.955,231.977
					z"/>
			</g>
			<g>
				<path fill="#D86557" d="M189.813,241.998c0.407,0.22,0.407,0.84,0.81,1.048c-0.203-0.627-0.405-0.828-0.405-1.257
					c-0.406-0.203-0.814,0.419-0.406,0.63v-0.421H189.813z"/>
			</g>
			<g>
				<path fill="#D86557" d="M197.149,237.826c0.212-0.208,0.605,0,1.018,0.211c0.211-1.042-0.412-0.834-0.806-1.042L197.149,237.826
					z"/>
			</g>
			<g>
				<path fill="#D86557" d="M195.315,225.92c0.609,0.416,0.404,1.261,1.424,0.835c0.41-1.669-0.206-1.25-1.02-1.669L195.315,225.92z
					"/>
			</g>
			<g>
				<path fill="#D86557" d="M192.053,218.818c0.209,0.208,0,1.048,1.427,0.835c0.204-2.09-0.208-1.675-1.224-1.675L192.053,218.818z
					"/>
			</g>
			<g>
				<path fill="#D86557" d="M195.719,249.525c-0.201-0.218-0.201,0.207,0.406,0.83c1.023-1.872,0.613-2.087-0.809-2.507
					c-0.404,0.635,0,0.635-0.208,1.255L195.719,249.525z"/>
			</g>
			<g>
				<path fill="#D86557" d="M185.733,253.069c0.615,0.835,1.023,1.675,2.041,1.675c-0.409-0.833-0.409-0.833-1.018-1.675
					c-0.613,0.214,0,0.835-0.408,0.835L185.733,253.069z"/>
			</g>
			<g>
				<path fill="#D86557" d="M195.109,261.214c1.229,0.626,1.63-1.045-0.808-0.416L195.109,261.214z"/>
			</g>
			<g>
				<path fill="#D86557" d="M203.67,249.309c0.412,0.838-0.208,1.461,1.018,1.674c0.201-1.255,0.201-1.457-0.605-2.498
					c-0.412-0.217-0.412,0.621-0.412,0.621V249.309L203.67,249.309z"/>
			</g>
			<g>
				<path fill="#D86557" d="M202.852,240.125c0.21-0.216,0.21,0.629,0.813,0.416c0.209-1.458-0.609-0.831-1.425-0.831
					L202.852,240.125z"/>
			</g>
			<g>
				<path fill="#D86557" d="M201.83,231.772c0.617,0.417,0.412,1.251,1.635,0.832C203.059,231.558,202.243,231.977,201.83,231.772
					L201.83,231.772z"/>
			</g>
			<g>
				<path fill="#D86557" d="M177.369,247.013c0.215,0.625-1.221,1.467,0.82,1.044c-0.82-1.461-0.409-0.84-1.629-0.84
					c-0.213,0.421,0.201,0.634,0.201,0.634L177.369,247.013z"/>
			</g>
			<g>
				<path fill="#D86557" d="M180.029,257.249c1.017,0.625,0.612,1.456,1.83,1.042C181.045,257.249,181.252,257.457,180.029,257.249
					c-0.405,0.827,0,1.042,0.208,1.674L180.029,257.249z"/>
			</g>
			<g>
				<path fill="#D86557" d="M168.406,244.927c0.203-0.213,0.612,0.415,0.812,0.415c-0.206-1.676-0.614-0.834-1.225-0.628
					L168.406,244.927z"/>
			</g>
			<g>
				<path fill="#D86557" d="M165.551,235.953c0.411,0.208,0.411,0.822,1.631,0.412l-0.203-0.21l0,0c-0.815-0.419-1.019,0-1.631,0
					L165.551,235.953z"/>
			</g>
			<g>
				<path fill="#D86557" d="M169.021,226.128c0.206,1.257,0,2.093,1.429,0.836c0.205-0.213,0-0.632,0.205-0.415
					c-1.223-0.217-1.631,0.208-1.223,0.208L169.021,226.128z"/>
			</g>
			<g>
				<path fill="#D86557" d="M172.487,217.57c-0.214,0.415-1.021,0-0.41,0.833l0.203-0.206c0.41-0.629,0,0,0,0L172.487,217.57z"/>
			</g>
			<g>
				<path fill="#D86557" d="M178.194,212.14c0.607,0.418,0.607,1.46,1.629,0l0,0c-0.203-0.211-0.611,0-0.817-0.421
					c-0.204,0.421,0.212,0.633,0.212,0.633L178.194,212.14z"/>
			</g>
			<g>
				<path fill="#D86557" d="M190.426,207.128c0.201,0.212-1.023,0.827,0.404,0.827v-1.042c-1.018,0-0.61,0-0.404-0.208V207.128z"/>
			</g>
		</g>
		<g>
			<g>
				<path fill="#D86557" d="M165.761,204.408c0.402,0.84-0.212,1.467,1.225,1.673C167.797,203.996,166.776,204.408,165.761,204.408
					L165.761,204.408z"/>
			</g>
			<g>
				<path fill="#D86557" d="M166.163,194.183c0.407,0.829,0.612,1.457,1.634,1.871c0.611-2.09-0.208-1.668-1.426-1.25
					L166.163,194.183z"/>
			</g>
			<g>
				<path fill="#D86557" d="M170.445,191.052c0.614,0.415,0.409,1.25,1.632,0.823c0-1.669-0.611-1.458-1.838-1.458L170.445,191.052z
					"/>
			</g>
			<g>
				<path fill="#D86557" d="M174.932,198.362c0,1.669,1.227,4.171,2.439,2.088c1.233-1.468-1.421-1.264-1.627-0.838L174.932,198.362
					z"/>
			</g>
			<g>
				<path fill="#D86557" d="M177.99,208.378c0.402,0.208,0.402,0.835,0.809,1.048c-0.203-0.63-0.406-0.84-0.406-1.263
					c-0.404-0.213-0.809,0.417-0.404,0.633v-0.418H177.99z"/>
			</g>
			<g>
				<path fill="#D86557" d="M185.328,204.204c0.199-0.212,0.606,0,1.223,0.204c0.212-1.04-0.411-0.825-0.812-1.04L185.328,204.204z"
					/>
			</g>
			<g>
				<path fill="#D86557" d="M183.29,192.508c0.606,0.415,0.407,1.255,1.426,0.836c0.405-1.674-0.212-1.259-1.019-1.674
					L183.29,192.508z"/>
			</g>
			<g>
				<path fill="#D86557" d="M180.029,185.198c0.208,0.213,0,1.046,1.425,0.833c0.213-2.09-0.205-1.669-1.227-1.669L180.029,185.198z
					"/>
			</g>
			<g>
				<path fill="#D86557" d="M183.698,216.114c-0.21-0.22-0.21,0.208,0.402,0.822c1.021-1.873,0.616-2.083-0.807-2.498
					c-0.411,0.625,0,0.625-0.211,1.042L183.698,216.114z"/>
			</g>
			<g>
				<path fill="#D86557" d="M173.705,219.448c0.611,0.837,1.023,1.668,2.039,1.668c-0.41-0.829-0.41-0.829-1.016-1.668
					c-0.613,0.212,0,0.837-0.412,0.837L173.705,219.448z"/>
			</g>
			<g>
				<path fill="#D86557" d="M183.29,227.799c1.221,0.629,1.63-1.042-0.819-0.414L183.29,227.799z"/>
			</g>
			<g>
				<path fill="#D86557" d="M191.851,215.688c0.407,0.835-0.214,1.462,1.015,1.671c0.204-1.252,0.204-1.462-0.607-2.507
					C191.851,214.646,191.851,215.48,191.851,215.688L191.851,215.688z"/>
			</g>
			<g>
				<path fill="#D86557" d="M190.83,206.711c0.205-0.217,0.205,0.629,0.809,0.417c0.215-1.459-0.611-0.836-1.422-0.836
					L190.83,206.711z"/>
			</g>
			<g>
				<path fill="#D86557" d="M189.813,198.362c0.613,0.415,0.407,1.25,1.63,0.825C191.237,198.147,190.22,198.566,189.813,198.362
					L189.813,198.362z"/>
			</g>
			<g>
				<path fill="#D86557" d="M165.352,213.598c0.203,0.629-1.229,1.461,0.809,1.048c-0.809-1.465-0.402-0.84-1.631-0.84
					c-0.201,0.421,0.208,0.634,0.208,0.634L165.352,213.598z"/>
			</g>
			<g>
				<path fill="#D86557" d="M168.199,223.833c1.023,0.63,0.616,1.461,1.834,1.044C169.223,223.627,169.223,224.037,168.199,223.833
					c-0.402,0.832,0,1.044,0.211,1.674L168.199,223.833z"/>
			</g>
			<g>
				<path fill="#D86557" d="M156.381,211.51c0.211-0.208,0.611,0.419,0.817,0.419c-0.212-1.673-0.617-0.833-1.231-0.627
					L156.381,211.51z"/>
			</g>
			<g>
				<path fill="#D86557" d="M153.53,202.533c0.404,0.208,0.404,0.832,1.635,0.415l-0.212-0.213l0,0c-0.809-0.412-1.019,0-1.631,0
					L153.53,202.533z"/>
			</g>
			<g>
				<path fill="#D86557" d="M157.199,192.717c0.205,1.248,0,2.087,1.424,0.831c0.208-0.208,0-0.629,0.208-0.412
					c-1.229-0.219-1.629,0.208-1.229,0.208L157.199,192.717z"/>
			</g>
			<g>
				<path fill="#D86557" d="M160.459,183.946c-0.204,0.421-1.02,0-0.41,0.833l0.213-0.213c0.408-0.626,0,0,0,0L160.459,183.946z"/>
			</g>
			<g>
				<path fill="#D86557" d="M166.371,178.726c0.612,0.419,0.612,1.462,1.631,0l0,0c-0.205-0.208-0.815,0-0.815-0.419
					c-0.203,0.419,0.212,0.629,0.212,0.629L166.371,178.726z"/>
			</g>
			<g>
				<path fill="#D86557" d="M178.393,173.715c0.21,0.208-1.023,0.831,0.406,0.831v-1.042c-1.017,0-0.809,0-0.406-0.208V173.715z"/>
			</g>
		</g>
		<g>
			<g>
				<path fill="#D86557" d="M207.749,215.48c0.405,0.835-0.208,1.456,1.223,1.673C209.584,215.063,208.559,215.48,207.749,215.48
					L207.749,215.48z"/>
			</g>
			<g>
				<path fill="#D86557" d="M207.951,205.038c0.402,0.835,0.607,1.458,1.633,1.877c0.609-2.09-0.209-1.669-1.43-1.25
					L207.951,205.038z"/>
			</g>
			<g>
				<path fill="#D86557" d="M212.235,202.116c0.611,0.415,0.404,1.25,1.629,0.827c0-1.673-0.61-1.456-1.837-1.456L212.235,202.116z"
					/>
			</g>
			<g>
				<path fill="#D86557" d="M216.719,209.427c0,1.669,1.225,4.171,2.439,2.082c1.229-1.463-1.423-1.255-1.631-0.834L216.719,209.427
					z"/>
			</g>
			<g>
				<path fill="#D86557" d="M219.776,219.448c0.404,0.212,0.404,0.837,0.807,1.041c-0.203-0.623-0.403-0.829-0.403-1.25
					c-0.405-0.22-0.81,0.418-0.405,0.627v-0.418H219.776z"/>
			</g>
			<g>
				<path fill="#D86557" d="M227.114,215.269c0.197-0.21,0.606,0,1.224,0.213c0.211-1.042-0.412-0.829-0.812-1.042L227.114,215.269z
					"/>
			</g>
			<g>
				<path fill="#D86557" d="M225.076,203.366c0.607,0.419,0.408,1.259,1.431,0.838c0.403-1.673-0.217-1.257-1.022-1.673
					L225.076,203.366z"/>
			</g>
			<g>
				<path fill="#D86557" d="M221.817,196.272c0.201,0.208,0,1.042,1.421,0.827c0.214-2.086-0.204-1.669-1.222-1.669L221.817,196.272
					z"/>
			</g>
			<g>
				<path fill="#D86557" d="M225.484,227.177c-0.211-0.214-0.211,0.207,0.401,0.827c1.023-1.877,0.619-2.087-0.809-2.5
					c-0.409,0.623,0,0.623-0.207,1.044L225.484,227.177z"/>
			</g>
			<g>
				<path fill="#D86557" d="M215.489,230.518c0.614,0.831,1.023,1.673,2.039,1.673c-0.408-0.835-0.408-0.835-1.016-1.673
					c-0.61,0.215,0,0.831-0.409,0.831L215.489,230.518z"/>
			</g>
			<g>
				<path fill="#D86557" d="M225.076,238.868c1.223,0.634,1.631-1.04-0.818-0.414L225.076,238.868z"/>
			</g>
			<g>
				<path fill="#D86557" d="M233.639,226.757c0.404,0.833-0.214,1.464,1.015,1.671c0.205-1.25,0.205-1.458-0.61-2.506
					c-0.404-0.213-0.404,0.633-0.404,0.633V226.757z"/>
			</g>
			<g>
				<path fill="#D86557" d="M232.614,217.778c0.205-0.213,0.205,0.627,0.812,0.421c0.214-1.465-0.613-0.84-1.424-0.84
					L232.614,217.778z"/>
			</g>
			<g>
				<path fill="#D86557" d="M231.8,209.427c0.614,0.412,0.413,1.25,1.629,0.829C233.02,209.218,232.213,209.427,231.8,209.427
					L231.8,209.427z"/>
			</g>
			<g>
				<path fill="#D86557" d="M207.34,224.669c0.213,0.629-1.22,1.461,0.814,1.04c-0.814-1.461-0.405-0.829-1.637-0.829
					c-0.202,0.417,0.208,0.63,0.208,0.63L207.34,224.669z"/>
			</g>
			<g>
				<path fill="#D86557" d="M209.985,234.903c1.023,0.629,0.615,1.46,1.834,1.048C211.008,234.692,211.008,235.109,209.985,234.903
					c-0.4,0.83,0,1.048,0.212,1.671L209.985,234.903z"/>
			</g>
			<g>
				<path fill="#D86557" d="M198.371,222.579c0.208-0.208,0.619,0.419,0.813,0.419c-0.202-1.669-0.612-0.84-1.229-0.627
					L198.371,222.579z"/>
			</g>
			<g>
				<path fill="#D86557" d="M195.315,213.389c0.404,0.213,0.404,0.835,1.636,0.415l-0.214-0.208l0,0
					C195.923,213.181,195.719,213.598,195.315,213.389L195.315,213.389z"/>
			</g>
			<g>
				<path fill="#D86557" d="M198.989,203.785c0.201,1.254,0,2.088,1.421,0.833c0.208-0.217,0-0.833,0.208-0.415
					c-1.229-0.208-1.627,0.204-1.229,0.204L198.989,203.785z"/>
			</g>
			<g>
				<path fill="#D86557" d="M202.243,195.015c-0.202,0.415-1.021,0-0.41,0.831l0.214-0.208c0.409-0.63,0,0,0,0L202.243,195.015z"/>
			</g>
			<g>
				<path fill="#D86557" d="M208.155,189.793c0.612,0.415,0.612,1.462,1.633,0l0,0c-0.205-0.207-0.609,0-0.815-0.415
					c-0.205,0.415,0.212,0.625,0.212,0.625L208.155,189.793z"/>
			</g>
			<g>
				<path fill="#D86557" d="M220.381,184.781c0.207,0.208-1.014,0.831,0.41,0.831v-1.044c-1.018,0-0.811,0-0.41-0.206V184.781z"/>
			</g>
		</g>
		<g>
			<g>
				<path fill="#D86557" d="M228.542,259.965c0.406,0.83-0.214,1.46,1.22,1.671C230.581,259.543,229.559,259.965,228.542,259.965
					L228.542,259.965z"/>
			</g>
			<g>
				<path fill="#D86557" d="M228.948,249.728c0.403,0.836,0.612,1.461,1.633,1.882c0.608-2.09-0.209-1.671-1.431-1.259
					L228.948,249.728z"/>
			</g>
			<g>
				<path fill="#D86557" d="M233.226,246.598c0.614,0.415,0.413,1.255,1.631,0.834c0-1.671-0.614-1.463-1.837-1.463L233.226,246.598
					z"/>
			</g>
			<g>
				<path fill="#D86557" d="M237.71,253.906c0,1.672,1.228,4.174,2.447,2.086c1.225-1.463-1.424-1.252-1.634-0.831L237.71,253.906z"
					/>
			</g>
			<g>
				<path fill="#D86557" d="M240.772,263.927c0.402,0.218,0.402,0.838,0.803,1.043c-0.204-0.62-0.402-0.825-0.402-1.251
					c-0.403-0.209-0.811,0.42-0.403,0.631v-0.423H240.772z"/>
			</g>
			<g>
				<path fill="#D86557" d="M248.105,259.752c0.211-0.206,0.816,0,1.234,0.215c0.202-1.257-0.412-0.831-0.821-1.04L248.105,259.752z
					"/>
			</g>
			<g>
				<path fill="#D86557" d="M246.07,248.057c0.604,0.421,0.404,1.252,1.427,0.831c0.412-1.676-0.208-1.257-1.022-1.676
					L246.07,248.057z"/>
			</g>
			<g>
				<path fill="#D86557" d="M242.807,240.747c0.201,0.209,0,1.042,1.429,0.836c0.208-2.088-0.21-1.676-1.231-1.676L242.807,240.747z
					"/>
			</g>
			<g>
				<path fill="#D86557" d="M246.474,271.658c-0.2-0.207-0.2,0.211,0.411,0.834c1.026-1.882,0.612-2.088-0.812-2.505
					c-0.41,0.623,0,0.623-0.205,1.044L246.474,271.658z"/>
			</g>
			<g>
				<path fill="#D86557" d="M236.484,274.997c0.618,0.831,1.023,1.678,2.04,1.678c-0.407-0.841-0.407-0.841-1.017-1.678
					c-0.614,0.212,0,0.831-0.405,0.831L236.484,274.997z"/>
			</g>
			<g>
				<path fill="#D86557" d="M246.07,283.35c1.229,0.634,1.626-1.04-0.812-0.412L246.07,283.35z"/>
			</g>
			<g>
				<path fill="#D86557" d="M254.631,271.24c0.407,0.835-0.208,1.46,1.016,1.673c0.206-1.255,0.206-1.453-0.608-2.502
					c-0.407-0.214-0.407,0.625-0.407,0.625V271.24z"/>
			</g>
			<g>
				<path fill="#D86557" d="M253.608,262.259c0.205-0.209,0.205,0.63,0.815,0.421c0.208-1.466-0.619-0.84-1.423-0.84
					L253.608,262.259z"/>
			</g>
			<g>
				<path fill="#D86557" d="M252.59,253.906c0.612,0.417,0.413,1.255,1.632,0.834C254.02,253.703,253.003,254.115,252.59,253.906
					L252.59,253.906z"/>
			</g>
			<g>
				<path fill="#D86557" d="M228.332,269.151c0.211,0.63-1.223,1.46,0.812,1.045c-0.812-1.461-0.402-0.825-1.63-0.825
					c-0.207,0.412,0.204,0.62,0.204,0.62L228.332,269.151z"/>
			</g>
			<g>
				<path fill="#D86557" d="M230.982,279.383c1.023,0.623,0.619,1.461,1.833,1.046C232.004,279.173,232.004,279.591,230.982,279.383
					c-0.4,0.831,0,1.046,0.21,1.667L230.982,279.383z"/>
			</g>
			<g>
				<path fill="#D86557" d="M219.367,267.06c0.205-0.205,0.612,0.42,0.809,0.42c-0.203-1.669-0.61-0.834-1.227-0.625L219.367,267.06
					z"/>
			</g>
			<g>
				<path fill="#D86557" d="M216.311,258.08c0.406,0.215,0.406,0.841,1.629,0.421l-0.208-0.208l0,0c-0.815-0.421-1.017,0-1.634,0
					L216.311,258.08z"/>
			</g>
			<g>
				<path fill="#D86557" d="M219.981,248.268c0.205,1.257,0,2.087,1.43,0.831c0.205-0.209,0-0.621,0.205-0.415
					c-1.026-0.206-1.632,0.209-1.231,0.209L219.981,248.268z"/>
			</g>
			<g>
				<path fill="#D86557" d="M223.235,239.5c-0.202,0.409-1.023,0-0.406,0.829l0.211-0.211c0.41-0.621,0,0,0,0L223.235,239.5z"/>
			</g>
			<g>
				<path fill="#D86557" d="M229.148,234.28c0.612,0.41,0.612,1.456,1.629,0l0,0c-0.196-0.215-0.813,0-0.813-0.417
					c-0.203,0.417,0.217,0.623,0.217,0.623L229.148,234.28z"/>
			</g>
			<g>
				<path fill="#D86557" d="M241.379,229.26c0.204,0.209-1.017,0.834,0.409,0.834v-1.043c-1.015,0-0.611,0-0.409-0.213V229.26z"/>
			</g>
		</g>
		<g>
			<g>
				<path fill="#D86557" d="M257.48,284.813c0.409,0.838-0.208,1.461,1.226,1.673C259.52,284.605,258.5,284.813,257.48,284.813
					L257.48,284.813z"/>
			</g>
			<g>
				<path fill="#D86557" d="M257.889,274.587c0.41,0.828,0.611,1.453,1.631,1.873c0.614-2.09-0.208-1.675-1.422-1.252
					L257.889,274.587z"/>
			</g>
			<g>
				<path fill="#D86557" d="M262.172,271.658c0.611,0.417,0.406,1.255,1.63,0.834c0-1.669-0.609-1.461-1.834-1.461L262.172,271.658z
					"/>
			</g>
			<g>
				<path fill="#D86557" d="M266.656,278.966c0,1.672,1.225,4.174,2.442,2.086c1.232-1.458-1.426-1.252-1.631-0.831L266.656,278.966
					z"/>
			</g>
			<g>
				<path fill="#D86557" d="M269.713,288.988c0.404,0.218,0.404,0.834,0.816,1.04c-0.207-0.62-0.414-0.822-0.414-1.249
					c-0.404-0.206-0.809,0.418-0.404,0.629v-0.42H269.713z"/>
			</g>
			<g>
				<path fill="#D86557" d="M277.051,284.813c0.205-0.208,0.81,0,1.223,0.215c0.213-1.04-0.41-0.834-0.808-1.04L277.051,284.813z"/>
			</g>
			<g>
				<path fill="#D86557" d="M275.013,272.909c0.614,0.418,0.414,1.253,1.429,0.833c0.407-1.671-0.213-1.253-1.015-1.671
					L275.013,272.909z"/>
			</g>
			<g>
				<path fill="#D86557" d="M271.753,265.811c0.207,0.208,0,1.042,1.421,0.831c0.213-2.086-0.205-1.676-1.22-1.676L271.753,265.811z
					"/>
			</g>
			<g>
				<path fill="#D86557" d="M275.425,296.507c-0.217-0.217-0.217,0.206,0.403,0.827c1.018-1.861,0.611-2.081-0.815-2.5
					c-0.409,0.636,0,0.636-0.208,1.044L275.425,296.507z"/>
			</g>
			<g>
				<path fill="#D86557" d="M265.43,300.054c0.61,0.83,1.019,1.682,2.035,1.682c-0.403-0.838-0.403-0.838-1.017-1.682
					c-0.612,0.209,0,0.629-0.408,0.83L265.43,300.054z"/>
			</g>
			<g>
				<path fill="#D86557" d="M275.013,308.203c1.225,0.632,1.632-1.047-0.815-0.417L275.013,308.203z"/>
			</g>
			<g>
				<path fill="#D86557" d="M283.574,296.296c0.406,0.837-0.211,1.464,1.021,1.676c0.201-1.05,0.201-1.462-0.611-2.497
					c-0.409-0.217-0.409,0.615-0.409,0.615V296.296L283.574,296.296z"/>
			</g>
			<g>
				<path fill="#D86557" d="M282.56,287.113c0.201-0.217,0.201,0.626,0.804,0.415c0.211-1.459-0.607-0.836-1.425-0.836
					L282.56,287.113z"/>
			</g>
			<g>
				<path fill="#D86557" d="M281.536,278.764c0.611,0.408,0.404,1.247,1.629,0.826C282.96,278.764,281.941,278.966,281.536,278.764
					L281.536,278.764z"/>
			</g>
			<g>
				<path fill="#D86557" d="M257.075,294.209c0.202,0.632-1.229,1.467,0.811,1.051c-0.811-1.466-0.409-0.829-1.629-0.829
					c-0.205,0.412,0.208,0.622,0.208,0.622L257.075,294.209z"/>
			</g>
			<g>
				<path fill="#D86557" d="M259.928,304.229c1.015,0.637,0.607,1.472,1.835,1.051C260.943,304.229,260.943,304.444,259.928,304.229
					c-0.408,0.835,0,1.051,0.207,1.685L259.928,304.229z"/>
			</g>
			<g>
				<path fill="#D86557" d="M248.105,291.915c0.211-0.211,0.608,0.416,0.816,0.416c-0.214-1.676-0.617-0.838-1.231-0.627
					L248.105,291.915z"/>
			</g>
			<g>
				<path fill="#D86557" d="M245.251,282.938c0.407,0.206,0.407,0.829,1.634,0.412l-0.214-0.215l0,0c-0.803-0.415-1.015,0-1.629,0
					L245.251,282.938z"/>
			</g>
			<g>
				<path fill="#D86557" d="M248.923,273.121c0.205,1.253,0,2.088,1.422,0.832c0.21-0.211,0-0.63,0.21-0.415
					c-1.225-0.217-1.629,0.209-1.225,0.209L248.923,273.121z"/>
			</g>
			<g>
				<path fill="#D86557" d="M252.181,264.558c-0.204,0.411-1.017,0-0.41,0.829l0.214-0.206c0.408-0.62,0,0,0,0L252.181,264.558z"/>
			</g>
			<g>
				<path fill="#D86557" d="M258.098,259.129c0.607,0.417,0.607,1.463,1.631,0l0,0c-0.211-0.208-0.819,0-0.819-0.419
					c-0.204,0.419,0.212,0.632,0.212,0.632L258.098,259.129z"/>
			</g>
			<g>
				<path fill="#D86557" d="M270.117,254.115c0.214,0.213-1.019,0.831,0.413,0.831v-1.042c-1.023,0-0.614,0-0.413-0.206V254.115z"/>
			</g>
		</g>
		<g>
			<g>
				<path fill="#D86557" d="M273.173,180.395c0.41,0.833-0.207,1.461,1.23,1.676C275.211,180.186,274.191,180.395,273.173,180.395
					L273.173,180.395z"/>
			</g>
			<g>
				<path fill="#D86557" d="M273.585,170.168c0.409,0.825,0.608,1.458,1.627,1.873c0.619-2.088-0.203-1.671-1.416-1.257
					L273.585,170.168z"/>
			</g>
			<g>
				<path fill="#D86557" d="M277.865,167.236c0.616,0.419,0.406,1.259,1.636,0.84c0-1.671-0.612-1.465-1.835-1.465L277.865,167.236z
					"/>
			</g>
			<g>
				<path fill="#D86557" d="M282.35,174.548c0,1.669,1.227,4.178,2.444,2.087c1.23-1.46-1.428-1.25-1.629-0.835L282.35,174.548z"/>
			</g>
			<g>
				<path fill="#D86557" d="M285.405,184.573c0.409,0.213,0.409,0.836,0.816,1.044c-0.209-0.629-0.41-0.831-0.41-1.25
					c-0.409-0.206-0.813,0.415-0.409,0.621v-0.415H285.405z"/>
			</g>
			<g>
				<path fill="#D86557" d="M292.747,180.395c0.205-0.208,0.609,0,1.017,0.217c0.205-1.046-0.407-0.839-0.812-1.046L292.747,180.395
					z"/>
			</g>
			<g>
				<path fill="#D86557" d="M290.706,168.493c0.614,0.412,0.409,1.256,1.427,0.831c0.403-1.671-0.211-1.25-1.018-1.671
					L290.706,168.493z"/>
			</g>
			<g>
				<path fill="#D86557" d="M287.444,161.393c0.213,0.207,0,1.044,1.427,0.832c0.21-2.088-0.204-1.674-1.22-1.674L287.444,161.393z"
					/>
			</g>
			<g>
				<path fill="#D86557" d="M291.118,192.094c-0.208-0.217-0.208,0.208,0.401,0.829c1.02-1.871,0.614-2.09-0.81-2.504
					c-0.408,0.633,0,0.633-0.212,1.048L291.118,192.094z"/>
			</g>
			<g>
				<path fill="#D86557" d="M281.127,195.638c0.61,0.835,1.021,1.676,2.038,1.676c-0.407-0.833-0.407-0.833-1.018-1.676
					c-0.611,0.212,0,0.835-0.41,0.835L281.127,195.638z"/>
			</g>
			<g>
				<path fill="#D86557" d="M290.706,203.785c1.225,0.621,1.632-1.048-0.815-0.419L290.706,203.785z"/>
			</g>
			<g>
				<path fill="#D86557" d="M299.269,191.879c0.405,0.84-0.208,1.467,1.02,1.673c0.205-1.254,0.205-1.456-0.614-2.498
					c-0.405-0.219-0.405,0.621-0.405,0.621V191.879z"/>
			</g>
			<g>
				<path fill="#D86557" d="M298.25,182.696c0.205-0.213,0.205,0.625,0.811,0.412c0.208-1.458-0.609-0.829-1.43-0.829
					L298.25,182.696z"/>
			</g>
			<g>
				<path fill="#D86557" d="M297.23,174.342c0.615,0.415,0.404,1.254,1.635,0.831C298.651,174.342,297.631,174.548,297.23,174.342
					L297.23,174.342z"/>
			</g>
			<g>
				<path fill="#D86557" d="M272.974,189.793c0.205,0.627-1.223,1.462,0.815,1.042c-0.815-1.457-0.405-0.832-1.634-0.832
					c-0.204,0.417,0.21,0.629,0.21,0.629L272.974,189.793z"/>
			</g>
			<g>
				<path fill="#D86557" d="M275.626,199.818c1.016,0.632,0.608,1.458,1.834,1.04C276.642,199.818,276.642,200.027,275.626,199.818
					c-0.414,0.833,0,1.04,0.208,1.675L275.626,199.818z"/>
			</g>
			<g>
				<path fill="#D86557" d="M263.802,187.496c0.202-0.212,0.608,0.419,0.814,0.419c-0.213-1.673-0.619-0.838-1.228-0.629
					L263.802,187.496z"/>
			</g>
			<g>
				<path fill="#D86557" d="M260.943,178.52c0.411,0.208,0.411,0.827,1.636,0.415l-0.21-0.212l0,0c-0.807-0.419-1.017,0-1.629,0
					L260.943,178.52z"/>
			</g>
			<g>
				<path fill="#D86557" d="M264.618,168.699c0.207,1.252,0,2.085,1.422,0.833c0.212-0.213,0-0.833,0.212-0.414
					c-1.018-0.219-1.632,0.208-1.229,0.208L264.618,168.699z"/>
			</g>
			<g>
				<path fill="#D86557" d="M267.878,160.139c-0.208,0.415-1.015,0-0.41,0.833l0.205-0.208c0.409-0.627,0,0,0,0L267.878,160.139z"/>
			</g>
			<g>
				<path fill="#D86557" d="M273.791,154.706c0.612,0.422,0.612,1.465,1.636,0l0,0c-0.216-0.206-0.619,0-0.82-0.414
					c-0.203,0.414,0.205,0.627,0.205,0.627L273.791,154.706z"/>
			</g>
			<g>
				<path fill="#D86557" d="M285.814,149.697c0.211,0.213-1.02,0.833,0.41,0.833v-1.046c-1.021,0-0.818,0-0.41-0.206V149.697z"/>
			</g>
		</g>
		<g>
			<g>
				<path fill="#D86557" d="M201.83,170.578c0.412,0.835-0.202,1.458,1.231,1.674C203.67,170.168,202.852,170.37,201.83,170.578
					L201.83,170.578z"/>
			</g>
			<g>
				<path fill="#D86557" d="M202.043,160.139c0.404,0.833,0.609,1.458,1.627,1.875c0.613-2.088-0.208-1.669-1.427-1.25
					L202.043,160.139z"/>
			</g>
			<g>
				<path fill="#D86557" d="M206.524,157.215c0.617,0.419,0.406,1.25,1.633,0.832c0-1.676-0.609-1.461-1.834-1.461L206.524,157.215z
					"/>
			</g>
			<g>
				<path fill="#D86557" d="M210.807,164.525c0,1.671,1.22,4.174,2.445,2.088c1.223-1.462-1.431-1.259-1.637-0.837L210.807,164.525z
					"/>
			</g>
			<g>
				<path fill="#D86557" d="M213.864,174.548c0.409,0.213,0.409,0.838,0.815,1.044c-0.21-0.627-0.409-0.833-0.409-1.254
					c-0.408-0.215-0.819,0.419-0.408,0.627v-0.417H213.864z"/>
			</g>
			<g>
				<path fill="#D86557" d="M221.198,170.37c0.213-0.206,0.619,0,1.017,0.21c0.212-1.254-0.397-0.829-0.804-1.042L221.198,170.37z"
					/>
			</g>
			<g>
				<path fill="#D86557" d="M219.158,158.466c0.617,0.418,0.412,1.261,1.427,0.84c0.411-1.671-0.201-1.254-1.015-1.671
					L219.158,158.466z"/>
			</g>
			<g>
				<path fill="#D86557" d="M215.905,151.372c0.202,0.208,0,1.044,1.424,0.829c0.205-2.088-0.211-1.671-1.229-1.671L215.905,151.372
					z"/>
			</g>
			<g>
				<path fill="#D86557" d="M219.776,182.069c-0.21-0.215-0.406,0.213,0.404,0.829c1.018-1.877,0.613-2.086-0.809-2.504
					c-0.411,0.627,0,0.833-0.213,1.259L219.776,182.069z"/>
			</g>
			<g>
				<path fill="#D86557" d="M209.584,185.615c0.609,0.835,1.016,1.675,2.033,1.675c-0.4-0.835-0.4-0.835-1.018-1.675
					c-0.615,0.217,0,0.632-0.406,0.835L209.584,185.615z"/>
			</g>
			<g>
				<path fill="#D86557" d="M219.158,193.759c1.229,0.629,1.635-1.04-0.804-0.413L219.158,193.759z"/>
			</g>
			<g>
				<path fill="#D86557" d="M227.72,181.856c0.411,0.838-0.204,1.463,1.025,1.669c0.203-1.248,0.203-1.457-0.614-2.503
					c-0.411-0.21-0.411,0.63-0.411,0.63V181.856z"/>
			</g>
			<g>
				<path fill="#D86557" d="M226.91,172.667c0.206-0.211,0.206,0.633,0.808,0.416c0.21-1.458-0.605-0.831-1.428-0.831
					L226.91,172.667z"/>
			</g>
			<g>
				<path fill="#D86557" d="M225.887,164.317c0.62,0.415,0.404,1.254,1.635,0.832C227.114,164.317,226.29,164.525,225.887,164.317
					L225.887,164.317z"/>
			</g>
			<g>
				<path fill="#D86557" d="M201.426,179.766c0.209,0.629-1.225,1.462,0.816,1.046c-0.816-1.465-0.412-0.836-1.629-0.836
					c-0.211,0.417,0.205,0.634,0.205,0.634L201.426,179.766z"/>
			</g>
			<g>
				<path fill="#D86557" d="M204.082,189.793c1.016,0.627,0.605,1.462,1.824,1.042C205.098,189.793,205.098,190.208,204.082,189.793
					c-0.412,0.833,0,1.042,0.204,1.675L204.082,189.793z"/>
			</g>
			<g>
				<path fill="#D86557" d="M192.459,177.476c0.203-0.213,0.61,0.413,0.815,0.413c-0.21-1.673-0.619-0.827-1.226-0.625
					L192.459,177.476z"/>
			</g>
			<g>
				<path fill="#D86557" d="M189.403,168.493c0.41,0.21,0.41,0.831,1.629,0.412l-0.204-0.206l0,0
					C190.012,168.284,189.813,168.699,189.403,168.493L189.403,168.493z"/>
			</g>
			<g>
				<path fill="#D86557" d="M193.07,158.884c0.214,1.257,0,2.088,1.427,0.836c0.205-0.213,0-0.836,0.205-0.415
					c-1.018-0.207-1.631,0.206-1.222,0.206L193.07,158.884z"/>
			</g>
			<g>
				<path fill="#D86557" d="M196.33,150.116c-0.207,0.417-1.016,0-0.406,0.832l0.207-0.207c0.408-0.632,0,0,0,0L196.33,150.116z"/>
			</g>
			<g>
				<path fill="#D86557" d="M202.243,144.685c0.608,0.421,0.608,1.463,1.63,0l0,0c-0.206-0.213-0.613,0-0.809-0.419
					c-0.213,0.419,0.202,0.625,0.202,0.625L202.243,144.685z"/>
			</g>
			<g>
				<path fill="#D86557" d="M214.474,139.672c0.214,0.217-1.023,0.833,0.411,0.833v-1.042c-1.023,0-0.615,0-0.411-0.206V139.672z"/>
			</g>
		</g>
		<g>
			<g>
				<path fill="#D86557" d="M235.268,158.466c0.409,0.84-0.21,1.46,1.22,1.675C237.102,158.051,236.285,158.257,235.268,158.466
					L235.268,158.466z"/>
			</g>
			<g>
				<path fill="#D86557" d="M235.467,148.026c0.411,0.835,0.607,1.46,1.635,1.879c0.608-2.088-0.211-1.667-1.425-1.25
					L235.467,148.026z"/>
			</g>
			<g>
				<path fill="#D86557" d="M239.949,145.107c0.611,0.412,0.412,1.252,1.629,0.825c0-1.669-0.604-1.456-1.828-1.456L239.949,145.107
					z"/>
			</g>
			<g>
				<path fill="#D86557" d="M244.237,152.417c0,1.671,1.223,4.176,2.437,2.293c1.238-1.456-1.422-1.25-1.627-0.824L244.237,152.417z
					"/>
			</g>
			<g>
				<path fill="#D86557" d="M247.292,162.437c0.403,0.208,0.403,0.831,0.813,1.042c-0.202-0.623-0.41-0.833-0.41-1.254
					c-0.405-0.215-0.81,0.414-0.405,0.631v-0.419H247.292z"/>
			</g>
			<g>
				<path fill="#D86557" d="M254.631,158.257c0.206-0.21,0.606,0,1.222,0.209c0.212-1.25-0.411-0.827-0.81-1.042L254.631,158.257z"
					/>
			</g>
			<g>
				<path fill="#D86557" d="M252.59,146.357c0.612,0.417,0.413,1.252,1.43,0.836c0.404-1.671-0.216-1.264-1.017-1.671
					L252.59,146.357z"/>
			</g>
			<g>
				<path fill="#D86557" d="M249.332,139.258c0.208,0.21,0,1.042,1.422,0.831c0.214-2.086-0.204-1.671-1.222-1.671L249.332,139.258z
					"/>
			</g>
			<g>
				<path fill="#D86557" d="M253.204,169.953c-0.204-0.207-0.204,0.217,0.403,0.833c1.023-1.882,0.614-2.085-0.81-2.502
					c-0.405,0.621,0,0.833-0.208,1.254L253.204,169.953z"/>
			</g>
			<g>
				<path fill="#D86557" d="M243.212,173.506c0.618,0.833,1.024,1.671,2.039,1.671c-0.403-0.831-0.403-0.831-1.015-1.671
					c-0.618,0.21,0,0.623-0.406,0.833L243.212,173.506z"/>
			</g>
			<g>
				<path fill="#D86557" d="M252.59,181.856c1.223,0.629,1.632-1.042-0.815-0.419L252.59,181.856z"/>
			</g>
			<g>
				<path fill="#D86557" d="M261.156,169.745c0.406,0.831-0.215,1.463,1.017,1.671c0.203-1.252,0.203-1.465-0.61-2.511
					C261.156,168.699,261.156,169.536,261.156,169.745L261.156,169.745z"/>
			</g>
			<g>
				<path fill="#D86557" d="M260.335,160.771c0.209-0.217,0.209,0.625,0.817,0.417c0.204-1.463-0.618-0.835-1.425-0.835
					L260.335,160.771z"/>
			</g>
			<g>
				<path fill="#D86557" d="M259.316,152.417c0.614,0.412,0.413,1.252,1.629,0.829C260.535,152.204,259.729,152.417,259.316,152.417
					L259.316,152.417z"/>
			</g>
			<g>
				<path fill="#D86557" d="M234.857,167.655c0.212,0.629-1.22,1.463,0.817,1.044c-0.817-1.463-0.408-0.836-1.632-0.836
					c-0.208,0.421,0.2,0.63,0.2,0.63L234.857,167.655z"/>
			</g>
			<g>
				<path fill="#D86557" d="M237.507,177.677c1.017,0.63,0.608,1.468,1.837,1.049C238.524,177.677,238.734,178.096,237.507,177.677
					c-0.405,0.84,0,1.049,0.205,1.671L237.507,177.677z"/>
			</g>
			<g>
				<path fill="#D86557" d="M225.887,165.567c0.208-0.213,0.62,0.418,0.816,0.418c-0.204-1.673-0.614-0.835-1.22-0.631
					L225.887,165.567z"/>
			</g>
			<g>
				<path fill="#D86557" d="M222.831,156.377c0.406,0.215,0.406,0.838,1.635,0.417l-0.214-0.208l0,0c-0.803-0.417-1.018,0-1.629,0
					L222.831,156.377z"/>
			</g>
			<g>
				<path fill="#D86557" d="M226.504,146.774c0.203,1.252,0,2.087,1.421,0.829c0.208-0.211,0-0.627,0.208-0.41
					c-1.225-0.217-1.626,0.206-1.225,0.206L226.504,146.774z"/>
			</g>
			<g>
				<path fill="#D86557" d="M229.76,138.003c-0.203,0.415-1.015,0-0.411,0.832l0.214-0.215c0.409-0.623,0,0,0,0L229.76,138.003z"/>
			</g>
			<g>
				<path fill="#D86557" d="M235.677,132.577c0.608,0.414,0.608,1.458,1.632,0l0,0c-0.211-0.215-0.821,0-0.821-0.419
					c-0.202,0.419,0.213,0.625,0.213,0.625L235.677,132.577z"/>
			</g>
			<g>
				<path fill="#D86557" d="M247.908,127.559c0.199,0.21-1.023,0.835,0.398,0.835v-1.044c-1.018,0-0.612,0-0.398-0.215V127.559z"/>
			</g>
		</g>
		<g>
			<g>
				<path fill="#D86557" d="M203.466,268.73c0.407,0.835-0.208,1.461,1.228,1.678C205.301,268.32,204.489,268.73,203.466,268.73
					L203.466,268.73z"/>
			</g>
			<g>
				<path fill="#D86557" d="M203.67,258.499c0.412,0.836,0.613,1.461,1.631,1.877c0.611-2.09-0.206-1.673-1.428-1.254
					L203.67,258.499z"/>
			</g>
			<g>
				<path fill="#D86557" d="M208.155,255.37c0.612,0.419,0.404,1.25,1.633,0.826c0-1.674-0.609-1.456-1.832-1.456L208.155,255.37z"
					/>
			</g>
			<g>
				<path fill="#D86557" d="M212.434,262.885c0,1.676,1.23,4.172,2.449,2.084c1.22-1.46-1.433-1.251-1.631-0.825L212.434,262.885z"
					/>
			</g>
			<g>
				<path fill="#D86557" d="M215.489,272.909c0.413,0.212,0.413,0.833,0.819,1.041c-0.212-0.623-0.409-0.831-0.409-1.257
					c-0.412-0.206-0.816,0.422-0.412,0.632v-0.416H215.489z"/>
			</g>
			<g>
				<path fill="#D86557" d="M222.831,268.73c0.209-0.213,0.618,0,1.016,0.211c0.208-1.255-0.399-0.834-0.807-1.04L222.831,268.73z"
					/>
			</g>
			<g>
				<path fill="#D86557" d="M220.793,256.833c0.617,0.416,0.404,1.25,1.421,0.828c0.411-1.673-0.198-1.254-1.017-1.673
					L220.793,256.833z"/>
			</g>
			<g>
				<path fill="#D86557" d="M217.528,249.728c0.215,0.213,0,1.042,1.429,0.836c0.203-2.086-0.208-1.674-1.225-1.674L217.528,249.728
					z"/>
			</g>
			<g>
				<path fill="#D86557" d="M221.405,280.428c-0.211-0.215-0.211,0.209,0.409,0.829c1.015-1.875,0.608-2.088-0.815-2.499
					c-0.41,0.621,0,0.621-0.207,1.247L221.405,280.428z"/>
			</g>
			<g>
				<path fill="#D86557" d="M211.416,283.984c0.607,0.827,1.018,1.67,2.034,1.67c-0.405-0.841-0.405-0.841-1.017-1.67
					c-0.612,0.206,0,0.623-0.41,0.827L211.416,283.984z"/>
			</g>
			<g>
				<path fill="#D86557" d="M220.793,292.124c1.225,0.624,1.633-1.045-0.81-0.417L220.793,292.124z"/>
			</g>
			<g>
				<path fill="#D86557" d="M229.349,280.218c0.409,0.832-0.205,1.461,1.023,1.678c0.209-1.046,0.209-1.462-0.614-2.508
					c-0.409-0.214-0.409,0.627-0.409,0.627V280.218z"/>
			</g>
			<g>
				<path fill="#D86557" d="M228.542,271.031c0.205-0.212,0.205,0.627,0.802,0.42c0.215-1.464-0.603-0.841-1.421-0.841
					L228.542,271.031z"/>
			</g>
			<g>
				<path fill="#D86557" d="M227.519,262.679c0.612,0.415,0.406,1.25,1.629,0.829C228.745,262.471,227.928,262.885,227.519,262.679
					L227.519,262.679z"/>
			</g>
			<g>
				<path fill="#D86557" d="M203.059,278.128c0.204,0.637-1.23,1.463,0.81,1.045c-0.81-1.457-0.406-0.829-1.629-0.829
					c-0.204,0.421,0.208,0.624,0.208,0.624L203.059,278.128z"/>
			</g>
			<g>
				<path fill="#D86557" d="M205.71,288.156c1.016,0.624,0.609,1.458,1.831,1.049C206.729,288.156,206.729,288.359,205.71,288.156
					c-0.409,0.831,0,1.049,0.205,1.669L205.71,288.156z"/>
			</g>
			<g>
				<path fill="#D86557" d="M194.09,275.832c0.211-0.209,0.608,0.419,0.813,0.419c-0.212-1.669-0.614-0.834-1.229-0.628
					L194.09,275.832z"/>
			</g>
			<g>
				<path fill="#D86557" d="M191.03,266.853c0.41,0.206,0.41,0.833,1.629,0.416l-0.202-0.217l0,0c-0.815-0.41-1.019,0-1.631,0
					L191.03,266.853z"/>
			</g>
			<g>
				<path fill="#D86557" d="M194.698,257.038c0.212,1.257,0,2.091,1.427,0.834c0.208-0.213,0-0.621,0.208-0.415
					c-1.225-0.21-1.632,0.206-1.225,0.206L194.698,257.038z"/>
			</g>
			<g>
				<path fill="#D86557" d="M197.962,248.483c-0.209,0.407-1.017,0-0.406,0.824l0.201-0.208c0.411-0.621,0,0,0,0L197.962,248.483z"
					/>
			</g>
			<g>
				<path fill="#D86557" d="M203.873,243.046c0.615,0.417,0.615,1.463,1.631,0l0,0c-0.208-0.208-0.618,0-0.813-0.415
					c-0.202,0.415,0.204,0.63,0.204,0.63L203.873,243.046z"/>
			</g>
			<g>
				<path fill="#D86557" d="M216.103,238.037c0.212,0.208-1.021,0.829,0.409,0.829v-1.04c-1.023,0-0.61,0-0.409-0.208V238.037z"/>
			</g>
		</g>
		<g>
			<g>
				<path fill="#D86557" d="M257.889,242.215c0.408,0.829-0.204,1.456,1.229,1.669C259.928,241.789,258.906,242.215,257.889,242.215
					L257.889,242.215z"/>
			</g>
			<g>
				<path fill="#D86557" d="M258.299,231.977c0.406,0.833,0.607,1.462,1.631,1.881c0.612-2.09-0.202-1.669-1.425-1.259
					L258.299,231.977z"/>
			</g>
			<g>
				<path fill="#D86557" d="M262.578,228.847c0.614,0.414,0.404,1.254,1.632,0.834c0-1.672-0.61-1.461-1.835-1.461L262.578,228.847z
					"/>
			</g>
			<g>
				<path fill="#D86557" d="M267.063,236.363c0,1.672,1.23,4.176,2.444,2.086c1.228-1.459-1.43-1.257-1.63-0.829L267.063,236.363z"
					/>
			</g>
			<g>
				<path fill="#D86557" d="M270.117,246.394c0.413,0.209,0.413,0.823,0.813,1.04c-0.205-0.627-0.401-0.833-0.401-1.262
					c-0.414-0.207-0.816,0.422-0.414,0.632v-0.41H270.117z"/>
			</g>
			<g>
				<path fill="#D86557" d="M277.463,242.215c0.201-0.219,0.605,0,1.22,0.209c0.205-1.251-0.412-0.834-0.818-1.042L277.463,242.215z
					"/>
			</g>
			<g>
				<path fill="#D86557" d="M275.425,230.307c0.605,0.419,0.403,1.251,1.421,0.829c0.404-1.676-0.208-1.256-1.018-1.676
					L275.425,230.307z"/>
			</g>
			<g>
				<path fill="#D86557" d="M272.156,223.208c0.21,0.217,0,1.04,1.428,0.829c0.208-2.083-0.205-1.667-1.223-1.667L272.156,223.208z"
					/>
			</g>
			<g>
				<path fill="#D86557" d="M275.828,253.906c-0.205-0.206-0.205,0.209,0.406,0.834c1.021-1.882,0.614-1.882-0.806-2.502
					c-0.413,0.62,0,0.831-0.217,1.249L275.828,253.906z"/>
			</g>
			<g>
				<path fill="#D86557" d="M265.839,257.457c0.611,0.827,1.024,1.67,2.039,1.67c-0.41-0.834-0.41-0.834-1.015-1.67
					c-0.614,0.206,0,0.621-0.413,0.827L265.839,257.457z"/>
			</g>
			<g>
				<path fill="#D86557" d="M275.425,265.598c1.22,0.632,1.626-1.042-0.821-0.417L275.425,265.598z"/>
			</g>
			<g>
				<path fill="#D86557" d="M283.981,253.487c0.406,0.834-0.208,1.461,1.018,1.674c0.209-1.046,0.209-1.456-0.611-2.504
					c-0.406-0.216-0.406,0.626-0.406,0.626V253.487z"/>
			</g>
			<g>
				<path fill="#D86557" d="M282.96,244.509c0.207-0.208,0.207,0.625,0.813,0.419c0.208-1.465-0.611-0.84-1.426-0.84L282.96,244.509
					z"/>
			</g>
			<g>
				<path fill="#D86557" d="M281.941,236.155c0.616,0.416,0.409,1.259,1.634,0.835C283.366,235.953,282.35,236.363,281.941,236.155
					L281.941,236.155z"/>
			</g>
			<g>
				<path fill="#D86557" d="M257.48,251.399c0.21,0.632-1.223,1.461,0.815,1.042c-0.815-1.46-0.409-0.826-1.628-0.826
					c-0.211,0.414,0.2,0.625,0.2,0.625L257.48,251.399z"/>
			</g>
			<g>
				<path fill="#D86557" d="M260.335,261.631c1.021,0.625,0.609,1.464,1.835,1.047C261.354,261.631,261.354,261.84,260.335,261.631
					c-0.405,0.836,0,1.047,0.209,1.672L260.335,261.631z"/>
			</g>
			<g>
				<path fill="#D86557" d="M248.514,249.309c0.204-0.21,0.614,0.419,0.816,0.419c-0.208-1.671-0.62-0.835-1.228-0.629
					L248.514,249.309z"/>
			</g>
			<g>
				<path fill="#D86557" d="M245.658,240.329c0.411,0.212,0.411,0.838,1.634,0.418l-0.208-0.208l0,0c-0.811-0.421-1.018,0-1.631,0
					L245.658,240.329z"/>
			</g>
			<g>
				<path fill="#D86557" d="M249.332,230.518c0.208,1.257,0,2.086,1.422,0.831c0.214-0.21,0-0.621,0.214-0.414
					c-1.231-0.207-1.634,0.206-1.231,0.206L249.332,230.518z"/>
			</g>
			<g>
				<path fill="#D86557" d="M252.59,221.954c-0.208,0.417-1.02,0-0.409,0.832l0.204-0.213c0.413-0.621,0,0,0,0L252.59,221.954z"/>
			</g>
			<g>
				<path fill="#D86557" d="M258.5,216.528c0.614,0.408,0.614,1.456,1.634,0l0,0c-0.208-0.213-0.614,0-0.815-0.414
					c-0.204,0.414,0.205,0.62,0.205,0.62L258.5,216.528z"/>
			</g>
			<g>
				<path fill="#D86557" d="M270.53,211.51c0.207,0.208-1.023,0.836,0.404,0.836v-1.042c-1.018,0-0.813,0-0.404-0.213V211.51z"/>
			</g>
		</g>
		<g>
			<g>
				<path fill="#D86557" d="M243.618,199.189c0.411,0.838-0.203,1.465,1.229,1.671C245.658,198.98,244.64,199.189,243.618,199.189
					L243.618,199.189z"/>
			</g>
			<g>
				<path fill="#D86557" d="M244.03,188.962c0.411,0.832,0.607,1.459,1.629,1.874c0.616-2.088-0.205-1.667-1.416-1.249
					L244.03,188.962z"/>
			</g>
			<g>
				<path fill="#D86557" d="M248.309,185.83c0.614,0.415,0.404,1.252,1.633,0.825c0-1.669-0.609-1.457-1.834-1.457L248.309,185.83z"
					/>
			</g>
			<g>
				<path fill="#D86557" d="M252.791,193.346c0,1.669,1.231,4.171,2.445,2.083c1.23-1.465-1.429-1.25-1.632-0.829L252.791,193.346z"
					/>
			</g>
			<g>
				<path fill="#D86557" d="M255.848,203.366c0.412,0.217,0.412,0.838,0.819,1.04c-0.211-0.621-0.41-0.825-0.41-1.25
					c-0.411-0.21-0.815,0.419-0.411,0.627v-0.417H255.848z"/>
			</g>
			<g>
				<path fill="#D86557" d="M263.193,199.189c0.208-0.208,0.609,0,1.22,0.217c0.208-1.04-0.408-0.834-0.811-1.04L263.193,199.189z"
					/>
			</g>
			<g>
				<path fill="#D86557" d="M261.156,187.288c0.611,0.415,0.406,1.253,1.423,0.834c0.404-1.671-0.21-1.257-1.017-1.671
					L261.156,187.288z"/>
			</g>
			<g>
				<path fill="#D86557" d="M257.889,180.186c0.211,0.208,0,1.042,1.425,0.832c0.21-2.085-0.203-1.673-1.22-1.673L257.889,180.186z"
					/>
			</g>
			<g>
				<path fill="#D86557" d="M261.562,210.891c-0.21-0.217-0.21,0.211,0.404,0.825c1.017-1.873,0.612-2.083-0.809-2.496
					c-0.411,0.623,0,0.827-0.215,1.04L261.562,210.891z"/>
			</g>
			<g>
				<path fill="#D86557" d="M251.571,214.438c0.61,0.829,1.02,1.676,2.037,1.676c-0.405-0.84-0.405-0.84-1.018-1.676
					c-0.61,0.213,0,0.625-0.409,0.829L251.571,214.438z"/>
			</g>
			<g>
				<path fill="#D86557" d="M261.156,222.579c1.22,0.629,1.628-1.04-0.818-0.421L261.156,222.579z"/>
			</g>
			<g>
				<path fill="#D86557" d="M269.713,210.677c0.404,0.833-0.207,1.463,1.019,1.675c0.205-1.256,0.205-1.458-0.614-2.506
					c-0.404-0.213-0.404,0.627-0.404,0.627V210.677z"/>
			</g>
			<g>
				<path fill="#D86557" d="M268.697,201.493c0.204-0.217,0.204,0.629,0.81,0.415c0.207-1.458-0.608-0.833-1.43-0.833
					L268.697,201.493z"/>
			</g>
			<g>
				<path fill="#D86557" d="M267.673,193.142c0.617,0.41,0.404,1.25,1.634,0.822C269.099,192.925,268.077,193.346,267.673,193.142
					L267.673,193.142z"/>
			</g>
			<g>
				<path fill="#D86557" d="M243.212,208.587c0.209,0.633-1.225,1.46,0.815,1.046c-0.815-1.46-0.411-0.829-1.63-0.829
					c-0.209,0.417,0.204,0.627,0.204,0.627L243.212,208.587z"/>
			</g>
			<g>
				<path fill="#D86557" d="M246.07,218.61c1.018,0.633,0.604,1.464,1.837,1.048C247.087,218.61,247.087,218.818,246.07,218.61
					c-0.411,0.835,0,1.048,0.208,1.675L246.07,218.61z"/>
			</g>
			<g>
				<path fill="#D86557" d="M234.242,206.288c0.206-0.21,0.614,0.419,0.815,0.419c-0.208-1.674-0.617-0.833-1.224-0.629
					L234.242,206.288z"/>
			</g>
			<g>
				<path fill="#D86557" d="M231.388,197.314c0.409,0.208,0.409,0.831,1.632,0.415l-0.208-0.213l0,0c-0.808-0.417-1.016,0-1.629,0
					L231.388,197.314z"/>
			</g>
			<g>
				<path fill="#D86557" d="M235.061,187.496c0.21,1.25,0,2.09,1.423,0.829c0.212-0.208,0-0.627,0.212-0.412
					c-1.229-0.215-1.633,0.208-1.229,0.208L235.061,187.496z"/>
			</g>
			<g>
				<path fill="#D86557" d="M238.323,178.937c-0.208,0.412-1.015,0-0.412,0.829l0.204-0.208c0.413-0.623,0,0,0,0L238.323,178.937z"
					/>
			</g>
			<g>
				<path fill="#D86557" d="M244.237,173.506c0.611,0.415,0.611,1.461,1.634,0l0,0c-0.214-0.208-0.619,0-0.819-0.419
					c-0.203,0.419,0.205,0.629,0.205,0.629L244.237,173.506z"/>
			</g>
			<g>
				<path fill="#D86557" d="M256.261,168.493c0.213,0.21-1.023,0.831,0.406,0.831v-1.042c-1.021,0-0.814,0-0.406-0.208V168.493z"/>
			</g>
		</g>
		<g>
			<g>
				<path fill="#D86557" d="M293.967,226.128c0.411,0.836-0.205,1.462,1.23,1.671C295.803,225.709,294.988,226.128,293.967,226.128
					L293.967,226.128z"/>
			</g>
			<g>
				<path fill="#D86557" d="M294.379,215.897c0.412,0.837,0.611,1.462,1.629,1.881c0.611-2.09-0.205-1.671-1.427-1.25
					L294.379,215.897z"/>
			</g>
			<g>
				<path fill="#D86557" d="M298.651,212.766c0.617,0.417,0.41,1.257,1.635,0.832c0-1.669-0.613-1.463-1.832-1.463L298.651,212.766z
					"/>
			</g>
			<g>
				<path fill="#D86557" d="M303.142,220.076c0,1.674,1.229,4.174,2.444,2.082c1.227-1.457-1.428-1.248-1.627-0.822L303.142,220.076
					z"/>
			</g>
			<g>
				<path fill="#D86557" d="M305.997,230.099c0.405,0.215,0.405,0.834,0.81,1.04c-0.206-0.624-0.407-0.827-0.407-1.255
					c-0.405-0.208-0.813,0.421-0.405,0.63v-0.415H305.997z"/>
			</g>
			<g>
				<path fill="#D86557" d="M313.329,225.92c0.216-0.213,0.614,0,1.232,0.213c0.204-1.255-0.41-0.832-0.815-1.04L313.329,225.92z"/>
			</g>
			<g>
				<path fill="#D86557" d="M311.496,214.227c0.617,0.419,0.407,1.255,1.424,0.832c0.409-1.669-0.201-1.259-1.017-1.669
					L311.496,214.227z"/>
			</g>
			<g>
				<path fill="#D86557" d="M308.237,206.917c0.211,0.215,0,1.04,1.43,0.838c0.204-2.086-0.21-1.673-1.229-1.673L308.237,206.917z"
					/>
			</g>
			<g>
				<path fill="#D86557" d="M311.904,237.826c-0.204-0.208-0.204,0.211,0.409,0.834c1.017-1.882,0.607-2.091-0.813-2.508
					c-0.406,0.623,0,0.836-0.209,1.26L311.904,237.826z"/>
			</g>
			<g>
				<path fill="#D86557" d="M301.921,241.173c0.608,0.823,1.02,1.67,2.037,1.67c-0.408-0.841-0.408-0.841-1.018-1.67
					c-0.617,0.209,0,0.823-0.411,0.823L301.921,241.173z"/>
			</g>
			<g>
				<path fill="#D86557" d="M311.496,249.525c1.229,0.627,1.633-1.04-0.812-0.422L311.496,249.525z"/>
			</g>
			<g>
				<path fill="#D86557" d="M320.058,237.409c0.408,0.832-0.206,1.457,1.019,1.671c0.211-1.045,0.211-1.46-0.61-2.506
					c-0.408-0.211-0.408,0.629-0.408,0.629V237.409z"/>
			</g>
			<g>
				<path fill="#D86557" d="M319.038,228.427c0.211-0.207,0.211,0.628,0.813,0.42c0.206-1.463-0.608-0.836-1.428-0.836
					L319.038,228.427z"/>
			</g>
			<g>
				<path fill="#D86557" d="M318.017,220.076c0.617,0.415,0.411,1.259,1.636,0.833C319.448,219.866,318.428,220.285,318.017,220.076
					L318.017,220.076z"/>
			</g>
			<g>
				<path fill="#D86557" d="M293.558,235.319c0.21,0.632-1.223,1.456,0.818,1.044c-0.818-1.46-0.412-0.831-1.632-0.831
					c-0.211,0.419,0.205,0.625,0.205,0.625L293.558,235.319z"/>
			</g>
			<g>
				<path fill="#D86557" d="M296.212,245.551c1.018,0.627,0.612,1.463,1.833,1.048C297.23,245.346,297.435,245.759,296.212,245.551
					c-0.403,0.84,0,1.048,0.208,1.669L296.212,245.551z"/>
			</g>
			<g>
				<path fill="#D86557" d="M284.595,233.231c0.201-0.215,0.61,0.415,0.807,0.415c-0.202-1.671-0.61-0.832-1.22-0.63
					L284.595,233.231z"/>
			</g>
			<g>
				<path fill="#D86557" d="M281.738,224.248c0.41,0.217,0.41,0.838,1.629,0.419l-0.201-0.208l0,0c-0.813-0.421-1.019,0-1.632,0
					L281.738,224.248z"/>
			</g>
			<g>
				<path fill="#D86557" d="M285.205,214.438c0.203,1.254,0,2.09,1.425,0.829c0.204-0.21,0-0.829,0.204-0.417
					c-1.017-0.206-1.627,0.213-1.22,0.213L285.205,214.438z"/>
			</g>
			<g>
				<path fill="#D86557" d="M288.671,205.672c-0.213,0.41-1.018,0-0.409,0.825l0.204-0.208c0.41-0.621,0,0,0,0L288.671,205.672z"/>
			</g>
			<g>
				<path fill="#D86557" d="M294.578,200.45c0.613,0.408,0.613,1.458,1.634,0l0,0c-0.207-0.215-0.813,0-0.813-0.419
					c-0.208,0.419,0.201,0.623,0.201,0.623L294.578,200.45z"/>
			</g>
			<g>
				<path fill="#D86557" d="M306.608,195.429c0.205,0.21-1.021,0.838,0.41,0.838v-1.042c-1.021,0-0.615,0-0.41-0.217V195.429z"/>
			</g>
		</g>
	</g>
	<g>
		<g>
			<path fill="#4A0D01" d="M127.645,252.858c2.646,9.819,7.336,15.042,16.506,18.593c15.088,5.844,30.376,8.978,44.84,16.487
				c24.46,12.742,47.496,30.283,76.24,30.915c44.631,0.831,69.706-48.866,69.914-88.754c0-14.411-4.286-29.652-10.802-42.399
				c-6.932-13.159-17.124-22.555-26.908-33.2c-16.304-17.967-31.186-36.334-57.072-37.589
				c-21.813-1.044-40.157,15.447-56.464,27.774c-10.191,7.727-21.4,14.62-30.369,23.599c-7.341,7.308-10.592,17.331-12.434,27.355
				c-2.04,11.074-3.463,21.717-7.746,32.157c-3.668,8.979-6.932,17.129-7.339,26.73c0,0.632,2.245-0.206,2.442-0.206
				c7.137-5.012,13.461-12.944,22.422-14.615c1.021-0.206,2.446-1.465,0.408-1.046c-10.191,1.881-16.712,9.608-25.069,15.452
				c0.812,0,1.632-0.21,2.447-0.21c0.402-11.909,5.495-21.711,9.572-32.578c3.871-10.861,4.286-22.763,7.138-34.04
				c2.849-11.488,10.191-19.842,19.359-26.525c11.213-8.354,22.424-16.706,33.635-24.854c13.047-9.606,26.095-18.168,43.012-17.333
				c12.23,0.627,23.444,7.31,32.816,14.826c9.79,7.943,16.717,18.589,25.48,27.568c10.191,10.441,18.961,21.101,25.276,34.67
				c21.604,45.948-4.688,123.629-61.357,122.58c-27.521-0.411-51.774-20.049-75.421-32.366c-10.595-5.429-22.42-8.763-33.836-12.315
				c-12.231-3.757-20.793-7.728-24.254-20.888C130.29,251.399,127.645,252.238,127.645,252.858L127.645,252.858z"/>
		</g>
	</g>
	<g>
		<g>
			<g>
				<path fill="#D86557" d="M218.142,274.371c2.853,0.417,5.31-0.21,7.135-2.505c1.836-2.298,2.651-5.43,4.286-7.939
					c0.404-0.624-1.017-0.624-1.23-0.208c-2.65,3.973-3.462,10.651-9.577,9.608C217.942,273.332,217.119,274.162,218.142,274.371
					L218.142,274.371z"/>
			</g>
		</g>
		<g>
			<g>
				<path fill="#D86557" d="M157.603,228.22c0.614-1.672,2.444-2.924,3.868-4.183c1.43-1.252,2.857-2.708,3.875-4.384
					c0.404-0.634-1.018-0.414-1.229,0c-1.019,1.877-2.849,3.343-4.282,4.806c-1.226,1.046-2.646,2.298-3.266,3.762
					C155.971,228.847,157.402,228.64,157.603,228.22L157.603,228.22z"/>
			</g>
		</g>
		<g>
			<g>
				<path fill="#D86557" d="M218.957,208.378c1.834,5.639,2.245,11.488,0,17.126c-0.207,0.41,1.229,0.204,1.427-0.215
					c2.245-5.637,1.827-11.49,0-17.126C220.18,207.547,218.957,207.957,218.957,208.378L218.957,208.378z"/>
			</g>
		</g>
		<g>
			<g>
				<path fill="#D86557" d="M217.736,211.716c-1.423,2.09-3.463,3.349-5.305,4.814c-0.813,0.408,0.411,0.625,0.818,0.408
					c2.237-1.456,4.278-2.914,5.702-5.219C219.367,211.304,217.942,211.304,217.736,211.716L217.736,211.716z"/>
			</g>
		</g>
		<g>
			<g>
				<path fill="#D86557" d="M239.949,197.314c-1.018-0.627-1.018-1.88-0.605-2.716c-0.412,0.213-0.818,0.213-1.023,0.415
					c1.428,0,2.652-0.208,3.669-1.048c1.229-0.822,1.629-2.499,2.254-3.546c0-0.213-1.024,0-1.432,0.213
					c-1.02,1.671-1.429,3.759-3.87,3.967c-0.203,0-1.023,0-1.023,0.415c-0.203,1.04-0.404,2.301,0.82,2.922
					C238.932,197.937,239.949,197.314,239.949,197.314L239.949,197.314z"/>
			</g>
		</g>
		<g>
			<g>
				<path fill="#D86557" d="M251.164,201.493c-2.038,2.915-3.06,6.262-1.428,9.609c0.208,0.618,1.638,0.206,1.428-0.421
					c-1.428-3.129-0.612-6.268,1.229-8.981C252.791,201.277,251.571,201.068,251.164,201.493L251.164,201.493z"/>
			</g>
		</g>
		<g>
			<g>
				<path fill="#D86557" d="M166.371,236.363c-4.692,2.086-9.787,0.412-14.675,1.878c-2.855,0.835-5.304,2.715-7.135,5.016
					c-4.077,5.22-1.427,11.9,2.647,15.867c0.41,0.417,1.63-0.208,1.225-0.627c-4.887-4.801-6.516-11.902-1.022-16.914
					c5.503-5.016,13.251-1.88,19.364-4.597C167.797,236.778,167.182,235.953,166.371,236.363L166.371,236.363z"/>
			</g>
		</g>
	</g>
</g>
</svg>
