<?xml version="1.0" encoding="utf-8"?>
<!-- Generator: Adobe Illustrator 16.0.0, SVG Export Plug-In . SVG Version: 6.00 Build 0)  -->
<!DOCTYPE svg PUBLIC "-//W3C//DTD SVG 1.1//EN" "http://www.w3.org/Graphics/SVG/1.1/DTD/svg11.dtd">
<svg version="1.1" id="Ebene_1" xmlns="http://www.w3.org/2000/svg" xmlns:xlink="http://www.w3.org/1999/xlink" x="0px" y="0px"
	 width="450px" height="450px" viewBox="0 0 450 450" enable-background="new 0 0 450 450" xml:space="preserve">
<g>
	<g>
		<g>
			<g opacity="0.3">
				<path fill="#231F20" d="M295.611,197.372c0.461,2.566-2.301,4.304-3.682,6.287c-1.379,1.983-2.513,2.588-5.078,3.049
					c-3.299,0.591-3.104,1.678-6.402,2.271c-3.301,0.591-3.134,1.519-6.432,2.11c-3.301,0.591-3.182,1.25-6.48,1.84
					c-3.299,0.592-3.383,0.128-6.682,0.721c-3.3,0.591-3.09,1.762-6.391,2.354c-3.298,0.59-3.626-1.238-6.924-0.647
					c-3.301,0.592-2.989,2.327-6.289,2.918c-3.301,0.592-3.313,0.534-6.613,1.125c-3.298,0.591-3.82-2.326-7.121-1.734
					c-3.301,0.593-2.801,3.37-6.103,3.962c-3.302,0.592-3.665-1.435-6.968-0.843c-3.299,0.592-3.293,0.624-6.595,1.215
					c-3.298,0.592-3.292,0.633-6.592,1.226c-3.301,0.591-2.974,2.42-6.274,3.012c-3.303,0.593-3.397,0.058-6.698,0.65
					c-3.3,0.592-3.716-1.727-7.015-1.135c-3.302,0.593-3.08,1.824-6.381,2.416c-3.3,0.592-2.965,2.465-6.266,3.057
					c-3.302,0.592-3.725-1.774-7.025-1.184c-3.301,0.592-2.843,3.145-6.145,3.736c-3.301,0.592-3.555-0.819-6.854-0.229
					c-3.302,0.593-3.131,1.553-6.433,2.145c-3.304,0.592-3.332,0.437-6.638,1.029s-3.731-1.772-7.035-1.181
					c-2.566,0.46-4.56,0.78-6.541-0.601c-1.984-1.379-5.465-2.804-5.926-5.371c-0.635-3.541,0.432-3.732-0.203-7.275
					c-0.637-3.541-1.877-3.318-2.513-6.859c-0.635-3.543-0.604-3.549-1.238-7.092c-0.634-3.544-0.791-3.516-1.427-7.06
					c-0.459-2.566-0.845-14.325,0.538-16.308c1.38-1.983,6.49,5.003,9.058,4.543c3.297-0.592,3.459,0.311,6.758-0.28
					c3.299-0.592,3.123-1.574,6.423-2.167c3.3-0.591,3.407,0.003,6.704-0.587c3.299-0.592,3.428,0.118,6.729-0.473
					c3.298-0.591,2.865-3.001,6.164-3.592c3.301-0.592,3.824,2.335,7.123,1.744c3.301-0.591,2.979-2.387,6.279-2.979
					c3.301-0.592,3.516,0.608,6.815,0.016s2.99-2.317,6.288-2.908c3.303-0.593,3.402-0.031,6.702-0.623
					c3.3-0.592,3.569,0.906,6.87,0.313s3.061-1.939,6.359-2.531c3.301-0.592,3.256-0.854,6.555-1.446
					c3.303-0.592,3.287-0.672,6.59-1.263c3.299-0.593,3.574,0.933,6.877,0.341c3.298-0.592,2.842-3.149,6.139-3.741
					c3.302-0.592,3.557,0.833,6.857,0.24c3.301-0.591,3.6,1.078,6.9,0.487c3.301-0.593,3.064-1.915,6.365-2.507
					c3.301-0.592,3.186-1.235,6.488-1.827c3.301-0.592,3.283-0.687,6.582-1.277c3.304-0.593,3.325-0.468,6.627-1.061
					c3.305-0.593,3.172-1.335,6.477-1.927c3.306-0.592,3.582,0.957,6.887,0.364c2.567-0.46,0.33,0.815,2.313,2.196
					c1.981,1.38,4.612,1.653,5.071,4.22c0.635,3.542,1.003,5.591,1.639,9.133c0.635,3.542,3.813,2.413,4.447,5.954
					c0.635,3.543-0.225,3.754,0.682,7.239C293.87,194.099,294.978,193.829,295.611,197.372z"/>
				<path fill="#231F20" d="M291.282,176.209c-0.636-3.542-8.639-3.664-9.275-7.206c-0.461-2.566,1.092-3.589-0.89-4.969
					c-1.983-1.381,0.254-2.656-2.313-2.196c-3.305,0.593-3.581-0.957-6.887-0.364c-3.305,0.592-3.172,1.334-6.477,1.927
					c-3.302,0.593-3.323,0.468-6.627,1.061c-3.299,0.591-3.281,0.686-6.582,1.277c-3.303,0.592-3.188,1.235-6.488,1.827
					c-3.301,0.592-3.064,1.915-6.365,2.507c-3.301,0.591-3.6-1.078-6.9-0.487c-1.891,0.339-2.785,0.018-3.821-0.208l-39.975,57.443
					c2.911-0.48,3.142-0.017,6.304-0.584c3.301-0.592,2.974-2.42,6.274-3.012c3.3-0.592,3.294-0.633,6.592-1.226
					c3.302-0.592,3.296-0.623,6.595-1.215c3.303-0.592,3.666,1.435,6.968,0.843c3.302-0.592,2.802-3.37,6.103-3.962
					c3.301-0.591,3.823,2.326,7.121,1.734c3.301-0.592,3.313-0.533,6.613-1.125c3.3-0.591,2.988-2.326,6.289-2.918
					c3.298-0.591,3.626,1.237,6.924,0.647c3.301-0.592,3.091-1.763,6.391-2.354c3.299-0.593,3.383-0.129,6.682-0.721
					c3.299-0.591,3.18-1.249,6.48-1.84c3.298-0.591,3.131-1.519,6.432-2.11c3.299-0.592,3.27-0.75,6.568-1.342
					c2.566-0.46,3.866-0.137,5.246-2.12c1.379-1.983,3.381-2.625,2.92-5.192c-0.636-3.543-1.313-6.227-2.227-9.746
					c-0.906-3.484-0.047-3.695-0.682-7.239C291.64,179.8,291.917,179.75,291.282,176.209z"/>
				<path fill="#231F20" d="M292.464,181.724c0.461,2.566-0.279,5.421-1.662,7.404c-1.379,1.983-4.195,1.443-6.762,1.903
					c-3.3,0.591-3.127,1.552-6.427,2.144c-3.3,0.591-3.257,0.82-6.556,1.413c-3.301,0.591-2.902,2.808-6.2,3.4
					c-3.3,0.591-3.347,0.332-6.647,0.924c-3.298,0.592-3.658-1.425-6.959-0.833c-3.299,0.591-3.195,1.169-6.495,1.761
					c-3.3,0.591-3.395,0.058-6.694,0.651c-3.301,0.591-3.502-0.532-6.803,0.059c-3.299,0.592-3.016,2.182-6.313,2.774
					c-3.301,0.591-3.039,2.052-6.34,2.644c-3.303,0.592-3.704-1.646-7.005-1.054c-3.301,0.591-3.286,0.671-6.585,1.262
					c-3.303,0.592-3.422-0.085-6.725,0.506c-3.299,0.592-2.721,3.822-6.023,4.415c-3.299,0.591-3.529-0.689-6.83-0.098
					c-3.3,0.593-3.381,0.143-6.681,0.734c-3.301,0.592-3.079,1.821-6.38,2.414c-3.301,0.591-3.269,0.774-6.57,1.366
					c-3.3,0.591-3.292,0.634-6.592,1.226c-3.302,0.592-3.74-1.86-7.042-1.269c-3.302,0.592-2.826,3.242-6.127,3.833
					c-3.301,0.593-3.849-2.454-7.149-1.862c-3.305,0.593-3.363,0.27-6.668,0.863c-3.307,0.593-2.871,3.025-6.176,3.618
					c-2.565,0.46-4.6-1.783-6.58-3.163c-1.984-1.38-4-2.649-4.461-5.216c-0.635-3.542-2.014-3.294-2.648-6.836
					c-0.635-3.542,2.068-4.026,1.434-7.567c-0.635-3.543-2.921-3.134-3.557-6.677c-0.636-3.543,1.582-3.941,0.946-7.484
					c-0.462-2.566-1.526-5.108-0.147-7.091c1.381-1.984,3.867-3.359,6.433-3.82c3.3-0.591,3.395-0.059,6.692-0.651
					c3.299-0.591,3.25-0.869,6.551-1.461c3.299-0.592,3.448,0.249,6.746-0.341c3.301-0.593,2.976-2.401,6.277-2.992
					c3.297-0.592,3.352-0.295,6.65-0.886c3.299-0.592,3.499,0.528,6.799-0.063c3.299-0.592,3.172-1.303,6.473-1.895
					c3.301-0.593,3.504,0.544,6.805-0.047c3.299-0.592,3.07-1.874,6.368-2.464c3.301-0.593,3.496,0.496,6.798-0.095
					c3.299-0.592,3.141-1.466,6.443-2.058c3.301-0.592,3.263-0.805,6.563-1.397c3.301-0.592,3.112-1.636,6.413-2.228
					c3.301-0.592,3.281-0.714,6.581-1.306c3.302-0.591,3.343-0.356,6.646-0.949c3.298-0.592,3.242-0.907,6.542-1.498
					c3.301-0.592,3.298-0.602,6.599-1.194c3.302-0.591,3.45,0.23,6.751-0.362c3.301-0.591,3.468,0.354,6.77-0.237
					c3.303-0.592,2.967-2.467,6.268-3.059s3.533,0.713,6.834,0.122c3.303-0.592,3.207-1.122,6.508-1.714
					c3.305-0.592,3.678,1.48,6.982,0.888c3.307-0.592,2.953-2.558,6.258-3.15c2.566-0.46,4.305,2.302,6.285,3.682
					c1.984,1.38,2.59,2.513,3.051,5.08c0.635,3.542,1.723,3.347,2.357,6.888s1.563,3.375,2.199,6.916
					c0.635,3.544,1.121,3.418,1.919,6.928C292.402,178.045,291.831,178.181,292.464,181.724z"/>
				<circle fill="#231F20" cx="126.528" cy="207.432" r="4.526"/>
				<circle fill="#231F20" cx="118.199" cy="194.382" r="1.369"/>
				<circle fill="#231F20" cx="122.07" cy="182.565" r="4.526"/>
				<circle fill="#231F20" cx="130.713" cy="190.212" r="2.632"/>
				<circle fill="#231F20" cx="137.01" cy="178.817" r="2.001"/>
				<circle fill="#231F20" cx="153.012" cy="176.804" r="0.842"/>
				<circle fill="#231F20" cx="147.495" cy="191.374" r="3.578"/>
				<circle fill="#231F20" cx="142.487" cy="204.754" r="2.813"/>
				<circle fill="#231F20" cx="160.602" cy="207.204" r="1.263"/>
				<circle fill="#231F20" cx="166.135" cy="199.084" r="1.406"/>
				<circle fill="#231F20" cx="161.798" cy="190.807" r="2.808"/>
				<circle fill="#231F20" cx="168.911" cy="178.192" r="5.014"/>
				<circle fill="#231F20" cx="179.845" cy="191.759" r="2.51"/>
				<circle fill="#231F20" cx="174.937" cy="204.252" r="2.421"/>
				<circle fill="#231F20" cx="190.78" cy="205.535" r="2.422"/>
				<circle fill="#231F20" cx="150.752" cy="210.727" r="2.106"/>
				<circle fill="#231F20" cx="186.232" cy="170.632" r="2.631"/>
				<circle fill="#231F20" cx="182.693" cy="179.144" r="1.645"/>
				<circle fill="#231F20" cx="206.276" cy="182.224" r="2.21"/>
				<circle fill="#231F20" cx="192.888" cy="186.327" r="3.044"/>
				<circle fill="#231F20" cx="199.147" cy="169.653" r="1.316"/>
				<circle fill="#231F20" cx="208.158" cy="167.664" r="0.948"/>
				<circle fill="#231F20" cx="226.953" cy="168.41" r="4.999"/>
				<circle fill="#231F20" cx="221.612" cy="185.989" r="1.692"/>
				<circle fill="#231F20" cx="205.467" cy="193.988" r="1.927"/>
				<circle fill="#231F20" cx="213.936" cy="199.886" r="2.21"/>
				<circle fill="#231F20" cx="224.169" cy="195.531" r="2.527"/>
				<circle fill="#231F20" cx="214.78" cy="173.133" r="2.499"/>
				<circle fill="#231F20" cx="234.631" cy="183.094" r="3.651"/>
				<circle fill="#231F20" cx="243.967" cy="192.492" r="1.496"/>
				<circle fill="#231F20" cx="257.711" cy="188.767" r="1.789"/>
				<circle fill="#231F20" cx="244.174" cy="177.021" r="2.936"/>
				<circle fill="#231F20" cx="241.1" cy="166.96" r="1.686"/>
				<circle fill="#231F20" cx="242.963" cy="161.951" r="1.467"/>
				<circle fill="#231F20" cx="217.421" cy="160.236" r="1.272"/>
				<circle fill="#231F20" cx="253.339" cy="169.15" r="2.632"/>
				<circle fill="#231F20" cx="252.04" cy="157.138" r="1.789"/>
				<circle fill="#231F20" cx="262.432" cy="153.663" r="1.473"/>
				<path fill="#231F20" d="M264.13,163.135c0.133,0.744-0.361,1.455-1.106,1.588c-0.743,0.133-1.452-0.361-1.586-1.104
					c-0.136-0.745,0.36-1.455,1.104-1.589C263.286,161.896,263.996,162.39,264.13,163.135z"/>
				<circle fill="#231F20" cx="275.493" cy="168.548" r="1.597"/>
				<circle fill="#231F20" cx="266.99" cy="179.075" r="4.21"/>
				<circle fill="#231F20" cx="281.068" cy="186.031" r="1.685"/>
				<circle fill="#231F20" cx="285.605" cy="178.124" r="1.861"/>
				<circle fill="#231F20" cx="276.356" cy="153.189" r="2.843"/>
				<circle fill="#231F20" cx="126.73" cy="227.533" r="2.546"/>
				<circle fill="#231F20" cx="141.988" cy="228.03" r="3.182"/>
				<path fill="#231F20" d="M138.287,219.626c0.108,0.616-0.299,1.204-0.913,1.314c-0.616,0.111-1.206-0.298-1.316-0.915
					c-0.111-0.615,0.301-1.203,0.916-1.313C137.587,218.601,138.176,219.011,138.287,219.626z"/>
				<circle fill="#231F20" cx="156.007" cy="222.607" r="2.864"/>
				<circle fill="#231F20" cx="173.012" cy="222.984" r="1.145"/>
				<circle fill="#231F20" cx="184.906" cy="217.509" r="2.947"/>
				<circle fill="#231F20" cx="201.858" cy="218.588" r="1.91"/>
				<circle fill="#231F20" cx="209.547" cy="210.987" r="2.941"/>
				<circle fill="#231F20" cx="224.152" cy="214.59" r="1.91"/>
				<circle fill="#231F20" cx="232.388" cy="207.59" r="1.566"/>
				<circle fill="#231F20" cx="244.385" cy="205.821" r="1.94"/>
				<circle fill="#231F20" cx="239.97" cy="213.307" r="1.145"/>
				<path fill="#231F20" d="M260.154,204.061c0.392,2.18-1.061,4.265-3.238,4.655c-2.181,0.391-4.266-1.059-4.656-3.239
					c-0.389-2.179,1.061-4.263,3.239-4.654C257.679,200.43,259.765,201.882,260.154,204.061z"/>
				<circle fill="#231F20" cx="270.124" cy="208.486" r="2.105"/>
				<circle fill="#231F20" cx="274.335" cy="200.488" r="1.977"/>
				<circle fill="#231F20" cx="287.898" cy="198.44" r="3.373"/>
			</g>
			<g>
				<g>
					<path fill="#CD5D28" d="M289.947,192.652c0.461,2.567-2.301,4.304-3.682,6.288c-1.379,1.983-2.513,2.588-5.078,3.049
						c-3.299,0.591-3.104,1.678-6.402,2.271c-3.301,0.591-3.134,1.519-6.432,2.11c-3.3,0.591-3.182,1.249-6.48,1.84
						c-3.299,0.592-3.383,0.128-6.682,0.721c-3.3,0.591-3.09,1.762-6.391,2.353c-3.298,0.591-3.626-1.238-6.924-0.646
						c-3.301,0.592-2.989,2.327-6.289,2.918c-3.301,0.592-3.313,0.534-6.613,1.125c-3.298,0.591-3.82-2.326-7.121-1.734
						c-3.301,0.593-2.801,3.37-6.103,3.962c-3.302,0.592-3.665-1.435-6.968-0.843c-3.299,0.592-3.293,0.624-6.595,1.215
						c-3.298,0.592-3.292,0.633-6.592,1.226c-3.301,0.591-2.974,2.42-6.274,3.012c-3.303,0.592-3.397,0.057-6.698,0.65
						c-3.3,0.591-3.716-1.727-7.015-1.134c-3.302,0.592-3.08,1.823-6.381,2.416c-3.3,0.591-2.965,2.464-6.266,3.057
						c-3.302,0.592-3.725-1.775-7.025-1.184c-3.301,0.592-2.843,3.144-6.145,3.735c-3.301,0.592-3.555-0.818-6.854-0.229
						c-3.302,0.594-3.131,1.553-6.433,2.145c-3.304,0.593-3.332,0.438-6.638,1.029c-3.306,0.593-3.731-1.771-7.035-1.18
						c-2.566,0.459-4.56,0.78-6.541-0.601c-1.984-1.38-5.465-2.804-5.926-5.371c-0.635-3.542,0.432-3.733-0.203-7.275
						c-0.637-3.541-1.877-3.318-2.513-6.86c-0.635-3.543-0.604-3.548-1.238-7.092c-0.634-3.544-0.791-3.516-1.427-7.06
						c-0.459-2.566-0.845-14.325,0.538-16.308c1.38-1.983,6.49,5.003,9.058,4.543c3.297-0.592,3.459,0.311,6.758-0.28
						c3.299-0.592,3.123-1.574,6.423-2.167c3.3-0.591,3.407,0.003,6.704-0.587c3.299-0.592,3.428,0.118,6.729-0.473
						c3.298-0.591,2.865-3.001,6.164-3.592c3.301-0.592,3.824,2.335,7.123,1.744c3.301-0.591,2.979-2.387,6.279-2.979
						c3.301-0.592,3.516,0.608,6.815,0.016s2.99-2.317,6.288-2.908c3.303-0.593,3.402-0.031,6.702-0.623
						c3.3-0.592,3.569,0.906,6.87,0.313s3.061-1.939,6.359-2.531c3.301-0.592,3.256-0.854,6.555-1.446
						c3.303-0.592,3.287-0.672,6.59-1.263c3.299-0.593,3.574,0.933,6.877,0.341c3.298-0.592,2.842-3.149,6.139-3.741
						c3.302-0.592,3.557,0.833,6.857,0.24c3.301-0.591,3.6,1.078,6.9,0.487c3.301-0.593,3.064-1.915,6.365-2.507
						c3.301-0.592,3.186-1.235,6.488-1.827c3.301-0.592,3.283-0.687,6.582-1.278c3.304-0.592,3.325-0.468,6.627-1.061
						c3.305-0.593,3.172-1.335,6.477-1.927c3.306-0.592,3.582,0.957,6.887,0.364c2.567-0.46,0.33,0.815,2.313,2.196
						c1.981,1.38,4.612,1.653,5.071,4.22c0.635,3.542,1.004,5.591,1.639,9.133c0.635,3.542,3.813,2.413,4.447,5.954
						c0.635,3.543-0.225,3.754,0.682,7.239C288.206,189.379,289.314,189.109,289.947,192.652z"/>
					<path fill="#BC4E27" d="M285.618,171.489c-0.636-3.542-8.639-3.664-9.275-7.206c-0.461-2.566,1.092-3.589-0.89-4.969
						c-1.983-1.381,0.254-2.656-2.313-2.196c-3.305,0.593-3.581-0.957-6.887-0.364c-3.305,0.592-3.172,1.334-6.477,1.927
						c-3.302,0.593-3.323,0.468-6.627,1.061c-3.299,0.591-3.281,0.686-6.582,1.278c-3.303,0.592-3.188,1.235-6.488,1.827
						c-3.301,0.592-3.064,1.915-6.365,2.507c-3.301,0.591-3.6-1.078-6.9-0.487c-1.891,0.339-2.785,0.018-3.821-0.208l-39.975,57.443
						c2.911-0.48,3.142-0.017,6.304-0.583c3.301-0.592,2.974-2.421,6.274-3.012c3.3-0.592,3.294-0.633,6.592-1.226
						c3.302-0.592,3.296-0.623,6.595-1.215c3.303-0.592,3.666,1.435,6.968,0.843c3.302-0.592,2.802-3.37,6.103-3.962
						c3.301-0.591,3.823,2.326,7.121,1.734c3.301-0.592,3.313-0.533,6.613-1.125c3.3-0.591,2.988-2.326,6.289-2.918
						c3.298-0.591,3.626,1.237,6.924,0.646c3.301-0.591,3.091-1.762,6.391-2.353c3.299-0.593,3.383-0.129,6.682-0.721
						c3.299-0.591,3.181-1.249,6.48-1.84c3.298-0.591,3.131-1.519,6.432-2.11c3.299-0.592,3.27-0.75,6.568-1.342
						c2.566-0.46,3.866-0.137,5.246-2.12c1.379-1.983,3.381-2.625,2.92-5.192c-0.636-3.543-1.313-6.227-2.227-9.746
						c-0.906-3.484-0.047-3.695-0.682-7.239C285.976,175.08,286.253,175.03,285.618,171.489z"/>
					<path fill="#D3712A" d="M286.8,177.004c0.461,2.566-0.279,5.421-1.662,7.404c-1.379,1.983-4.195,1.443-6.762,1.903
						c-3.3,0.591-3.127,1.552-6.426,2.144c-3.301,0.591-3.258,0.82-6.557,1.413c-3.301,0.591-2.902,2.808-6.2,3.399
						c-3.3,0.592-3.347,0.333-6.647,0.925c-3.297,0.592-3.658-1.425-6.959-0.833c-3.299,0.591-3.195,1.169-6.495,1.76
						c-3.3,0.592-3.395,0.059-6.694,0.651c-3.301,0.591-3.502-0.532-6.803,0.059c-3.299,0.592-3.016,2.182-6.313,2.774
						c-3.301,0.591-3.039,2.052-6.34,2.644c-3.303,0.592-3.704-1.646-7.005-1.054c-3.301,0.591-3.286,0.671-6.585,1.262
						c-3.303,0.592-3.422-0.085-6.725,0.506c-3.299,0.591-2.721,3.822-6.023,4.415c-3.299,0.591-3.529-0.689-6.83-0.098
						c-3.3,0.593-3.381,0.143-6.681,0.734c-3.301,0.592-3.079,1.821-6.38,2.414c-3.301,0.591-3.268,0.774-6.57,1.366
						c-3.299,0.591-3.292,0.634-6.592,1.226c-3.302,0.592-3.74-1.86-7.042-1.269c-3.302,0.592-2.826,3.242-6.127,3.833
						c-3.301,0.593-3.849-2.454-7.149-1.862c-3.305,0.593-3.363,0.27-6.668,0.863c-3.307,0.593-2.871,3.025-6.176,3.618
						c-2.565,0.46-4.6-1.783-6.58-3.163c-1.984-1.381-4-2.649-4.461-5.216c-0.635-3.542-2.014-3.294-2.648-6.836
						c-0.635-3.542,2.068-4.026,1.434-7.567c-0.635-3.543-2.92-3.134-3.557-6.677c-0.636-3.543,1.582-3.941,0.946-7.484
						c-0.462-2.566-1.526-5.108-0.147-7.091c1.381-1.984,3.867-3.359,6.433-3.82c3.3-0.591,3.395-0.059,6.692-0.651
						c3.299-0.591,3.25-0.869,6.551-1.461c3.299-0.592,3.448,0.249,6.746-0.341c3.301-0.593,2.977-2.401,6.277-2.993
						c3.297-0.591,3.352-0.294,6.65-0.886c3.299-0.592,3.499,0.528,6.799-0.063c3.299-0.592,3.172-1.303,6.473-1.895
						c3.301-0.593,3.504,0.544,6.805-0.047c3.299-0.592,3.07-1.874,6.368-2.465c3.301-0.592,3.496,0.497,6.798-0.095
						c3.299-0.592,3.141-1.467,6.443-2.058c3.301-0.592,3.263-0.805,6.563-1.397c3.301-0.592,3.112-1.636,6.413-2.228
						c3.301-0.592,3.281-0.714,6.581-1.306c3.302-0.591,3.343-0.356,6.646-0.949c3.298-0.592,3.242-0.907,6.542-1.498
						c3.301-0.592,3.298-0.602,6.599-1.194c3.302-0.591,3.45,0.23,6.751-0.362c3.301-0.591,3.469,0.354,6.77-0.237
						c3.303-0.592,2.967-2.467,6.268-3.059s3.533,0.713,6.834,0.122c3.303-0.592,3.207-1.122,6.508-1.714
						c3.305-0.592,3.678,1.48,6.982,0.888c3.307-0.592,2.953-2.558,6.258-3.15c2.566-0.46,4.305,2.302,6.285,3.682
						c1.984,1.38,2.59,2.513,3.051,5.08c0.635,3.542,1.723,3.347,2.357,6.888c0.635,3.542,1.563,3.375,2.199,6.916
						c0.635,3.544,1.121,3.418,1.919,6.928C286.738,173.324,286.167,173.461,286.8,177.004z"/>
					<g>
						<circle fill="#CD5D28" cx="120.864" cy="202.712" r="4.526"/>
						<circle fill="#CD5D28" cx="112.535" cy="189.661" r="1.369"/>
						<circle fill="#CD5D28" cx="116.406" cy="177.845" r="4.526"/>
						<circle fill="#CD5D28" cx="125.049" cy="185.492" r="2.632"/>
						<circle fill="#CD5D28" cx="131.346" cy="174.097" r="2.001"/>
						<circle fill="#CD5D28" cx="147.348" cy="172.083" r="0.842"/>
						<circle fill="#CD5D28" cx="141.831" cy="186.653" r="3.578"/>
						<circle fill="#CD5D28" cx="136.823" cy="200.033" r="2.813"/>
						<circle fill="#CD5D28" cx="154.938" cy="202.483" r="1.263"/>
						<circle fill="#CD5D28" cx="160.47" cy="194.364" r="1.406"/>
						<circle fill="#CD5D28" cx="156.134" cy="186.087" r="2.808"/>
						<circle fill="#CD5D28" cx="163.247" cy="173.471" r="5.014"/>
						<circle fill="#CD5D28" cx="174.181" cy="187.039" r="2.51"/>
						<circle fill="#CD5D28" cx="169.273" cy="199.531" r="2.421"/>
						<circle fill="#CD5D28" cx="185.115" cy="200.815" r="2.422"/>
						<circle fill="#CD5D28" cx="145.088" cy="206.007" r="2.106"/>
						<circle fill="#CD5D28" cx="180.568" cy="165.912" r="2.631"/>
						<circle fill="#CD5D28" cx="177.029" cy="174.424" r="1.645"/>
						<circle fill="#CD5D28" cx="200.612" cy="177.503" r="2.21"/>
						<circle fill="#CD5D28" cx="187.224" cy="181.607" r="3.044"/>
						<circle fill="#CD5D28" cx="193.483" cy="164.933" r="1.316"/>
						<circle fill="#CD5D28" cx="202.494" cy="162.944" r="0.948"/>
						<circle fill="#CD5D28" cx="221.289" cy="163.69" r="4.999"/>
						<circle fill="#CD5D28" cx="215.948" cy="181.268" r="1.692"/>
						<circle fill="#CD5D28" cx="199.802" cy="189.268" r="1.927"/>
						<circle fill="#CD5D28" cx="208.272" cy="195.166" r="2.21"/>
						<circle fill="#CD5D28" cx="218.505" cy="190.81" r="2.527"/>
						<circle fill="#CD5D28" cx="209.115" cy="168.413" r="2.499"/>
						<circle fill="#CD5D28" cx="228.967" cy="178.374" r="3.651"/>
						<circle fill="#CD5D28" cx="238.302" cy="187.772" r="1.496"/>
						<circle fill="#CD5D28" cx="252.047" cy="184.047" r="1.789"/>
						<circle fill="#CD5D28" cx="238.51" cy="172.301" r="2.935"/>
						<circle fill="#CD5D28" cx="235.436" cy="162.24" r="1.686"/>
						<circle fill="#CD5D28" cx="237.3" cy="157.231" r="1.468"/>
						<circle fill="#CD5D28" cx="211.757" cy="155.516" r="1.272"/>
						<circle fill="#CD5D28" cx="247.675" cy="164.429" r="2.632"/>
						<circle fill="#CD5D28" cx="246.376" cy="152.418" r="1.789"/>
						<circle fill="#CD5D28" cx="256.768" cy="148.943" r="1.473"/>
						<path fill="#CD5D28" d="M258.466,158.414c0.133,0.744-0.361,1.455-1.106,1.588c-0.743,0.133-1.452-0.361-1.586-1.104
							c-0.136-0.745,0.36-1.455,1.104-1.589C257.622,157.176,258.332,157.67,258.466,158.414z"/>
						<circle fill="#CD5D28" cx="269.829" cy="163.827" r="1.597"/>
						<circle fill="#CD5D28" cx="261.326" cy="174.355" r="4.21"/>
						<circle fill="#CD5D28" cx="275.405" cy="181.31" r="1.686"/>
						<circle fill="#CD5D28" cx="279.941" cy="173.404" r="1.861"/>
						<circle fill="#CD5D28" cx="270.692" cy="148.469" r="2.843"/>
						<circle fill="#BC4E27" cx="121.066" cy="222.813" r="2.546"/>
						<circle fill="#BC4E27" cx="136.324" cy="223.31" r="3.182"/>
						<path fill="#BC4E27" d="M132.623,214.906c0.108,0.616-0.299,1.204-0.913,1.314c-0.616,0.111-1.206-0.298-1.316-0.915
							c-0.111-0.615,0.301-1.203,0.916-1.313C131.923,213.881,132.512,214.291,132.623,214.906z"/>
						<circle fill="#BC4E27" cx="150.343" cy="217.886" r="2.863"/>
						<circle fill="#BC4E27" cx="167.348" cy="218.264" r="1.145"/>
						<circle fill="#BC4E27" cx="179.242" cy="212.788" r="2.947"/>
						<circle fill="#CD5D28" cx="196.194" cy="213.867" r="1.91"/>
						<circle fill="#CD5D28" cx="203.883" cy="206.267" r="2.941"/>
						<circle fill="#CD5D28" cx="218.488" cy="209.87" r="1.91"/>
						<circle fill="#CD5D28" cx="226.724" cy="202.87" r="1.566"/>
						<circle fill="#CD5D28" cx="238.721" cy="201.1" r="1.94"/>
						<circle fill="#CD5D28" cx="234.306" cy="208.586" r="1.145"/>
						<path fill="#CD5D28" d="M254.49,199.341c0.392,2.18-1.061,4.265-3.238,4.655c-2.18,0.391-4.266-1.059-4.656-3.239
							c-0.389-2.179,1.061-4.263,3.239-4.654C252.015,195.71,254.101,197.161,254.49,199.341z"/>
						<circle fill="#CD5D28" cx="264.46" cy="203.766" r="2.105"/>
						<circle fill="#CD5D28" cx="268.671" cy="195.767" r="1.977"/>
						<circle fill="#CD5D28" cx="282.234" cy="193.719" r="3.373"/>
					</g>
				</g>
			</g>
		</g>
	</g>
	<g>
		<g>
			<g opacity="0.3">
				<path fill="#231F20" d="M241.406,282.277c1.479-7.475-2.291-12.793-4.906-19.415c-1.548-3.923-2.525-6.374-3.333-10.366
					c-1.411-0.914-1.493-4.132-1.662-6.105c-0.039-0.443-0.673-0.16-0.698-0.602c-1.082-0.452-1.725-0.887-2.236-1.987
					c-1.252,0.785-1.359,0.606-3.662,1.288c-3.215,0.949-3.647-0.508-6.861,0.441c-3.215,0.95-3.377,0.403-6.594,1.354
					c-3.214,0.95-2.717,2.63-5.932,3.58s-3.561-0.219-6.776,0.731c-3.216,0.951-2.698,2.699-5.913,3.649
					c-3.216,0.95-4.057-1.901-7.273-0.952c-3.213,0.949-2.52,3.298-5.732,4.248c-3.217,0.949-3.421,0.258-6.635,1.208
					c-3.213,0.949-3.385,0.37-6.6,1.319c-3.215,0.951-2.933,1.908-6.146,2.857c-3.215,0.951-3.475,0.07-6.688,1.021
					c-2.5,0.738-8.348-5.645-9.5-3.522c-1.156,2.122,0.516,13.769,1.254,16.269c1.021,3.453,1.173,3.407,2.193,6.859
					c1.019,3.453,0.988,3.463,2.008,6.914c1.021,3.45,2.23,3.094,3.252,6.543c1.019,3.451-0.021,3.758,1,7.209
					c0.738,2.501,4.354,3.535,6.479,4.689c2.122,1.154,4.066,0.617,6.568-0.122c3.219-0.951,3.9,1.353,7.121,0.401
					s3.266-0.799,6.484-1.752c3.217-0.949,2.941-1.885,6.158-2.836c3.215-0.949,3.621,0.426,6.838-0.525s2.48-3.437,5.697-4.387
					c3.216-0.951,3.896,1.355,7.113,0.406c3.216-0.952,2.678-2.777,5.893-3.727c3.214-0.951,2.859-2.15,6.076-3.102
					c3.215-0.951,3.883,1.308,7.097,0.357c3.217-0.951,3.37-0.43,6.587-1.381s2.69-2.732,5.906-3.683
					c2.675-0.791,1.895-1.577,3.695-0.832C240.932,285.906,241.04,284.113,241.406,282.277z"/>
				<path fill="#231F20" d="M241.406,282.277c0.973-4.911-0.326-8.891-2.069-12.922l-13.462,24.76
					c2.841-0.797,3.121-0.359,6.201-1.271c3.217-0.951,2.69-2.732,5.906-3.683c2.675-0.791,1.832-0.253,3.758-0.832
					C242.124,285.739,241.04,284.113,241.406,282.277z"/>
				<path fill="#231F20" d="M236.499,262.862c-1.548-3.923,0.229-5.015-1.719-8.255c-1.033-1.604-2.377-4.857-2.545-6.831
					c-0.039-0.442,0.061-1.677-0.807-2.71c-1.741-1.637-2.48-1.623-2.828-3.261c-0.574-2.716-1.956-4.809-3.24-7.05
					c-0.48-0.369-0.897-0.807-1.208-1.316c-1.028-1.685-1.92-3.437-2.815-5.187c-0.369,0.118-0.785,0.247-1.289,0.396
					c-3.217,0.95-2.964,1.802-6.178,2.752c-3.217,0.95-3.53-0.11-6.746,0.84c-3.215,0.95-2.846,2.198-6.059,3.149
					c-3.217,0.949-3.543-0.158-6.759,0.793c-3.216,0.95-3.011,1.643-6.225,2.593c-3.218,0.95-3.538-0.142-6.752,0.81
					c-3.214,0.949-3.301,0.66-6.513,1.61c-3.217,0.95-2.695,2.712-5.91,3.663c-3.214,0.948-3.457,0.129-6.67,1.079
					c-3.215,0.95-3.135,1.221-6.35,2.171c-3.215,0.951-3.367,0.433-6.582,1.382c-2.498,0.739-4.818,2.38-5.975,4.503
					c-1.153,2.123,0.185,4.532,0.926,7.032c1.02,3.452-1.139,4.091-0.12,7.543c1.021,3.452,3.248,2.794,4.267,6.247
					c1.021,3.45-1.613,4.229-0.594,7.678c1.02,3.453,2.365,3.055,3.385,6.506c0.738,2.501,2.881,3.541,5.004,4.695
					c2.121,1.154,4.389,3.159,6.889,2.42c3.221-0.951,2.52-3.32,5.74-4.271c3.221-0.953,3.314-0.637,6.533-1.59
					c3.217-0.949,4.095,2.017,7.312,1.066c3.216-0.949,2.452-3.531,5.669-4.482c3.217-0.949,3.922,1.439,7.139,0.488
					c3.215-0.949,3.203-0.991,6.418-1.942c3.217-0.948,3.165-1.126,6.379-2.078c3.218-0.95,2.862-2.147,6.079-3.098
					c3.214-0.95,3.345-0.513,6.56-1.463c3.217-0.95,3.584,0.298,6.8-0.653c3.217-0.951,2.287-4.098,5.503-5.049
					c3.215-0.95,3.41-0.289,6.627-1.24c0.152-0.045,0.291-0.086,0.429-0.128C239.2,268.787,237.726,265.967,236.499,262.862z"/>
				<path fill="#231F20" d="M166.308,280.379c0.711,2.397-0.66,4.914-3.058,5.623c-2.396,0.709-4.914-0.66-5.622-3.057
					c-0.709-2.398,0.66-4.916,3.058-5.625C163.083,276.613,165.601,277.981,166.308,280.379z"/>
				<circle fill="#231F20" cx="152.258" cy="269.604" r="1.367"/>
				<circle fill="#231F20" cx="154.808" cy="257.435" r="4.527"/>
				<circle fill="#231F20" cx="164.238" cy="264.086" r="2.632"/>
				<circle fill="#231F20" cx="169.247" cy="252.07" r="2.001"/>
				<circle fill="#231F20" cx="184.931" cy="248.312" r="0.843"/>
				<circle fill="#231F20" cx="181.047" cy="263.4" r="3.58"/>
				<circle fill="#231F20" cx="177.536" cy="277.249" r="2.813"/>
				<circle fill="#231F20" cx="195.811" cy="277.696" r="1.263"/>
				<circle fill="#231F20" cx="200.42" cy="269.019" r="1.406"/>
				<circle fill="#231F20" cx="195.2" cy="261.267" r="2.808"/>
				<circle fill="#231F20" cx="200.887" cy="247.948" r="5.015"/>
				<circle fill="#231F20" cx="213.242" cy="260.233" r="2.51"/>
				<circle fill="#231F20" cx="209.736" cy="273.189" r="2.421"/>
				<circle fill="#231F20" cx="225.624" cy="272.727" r="2.421"/>
				<circle fill="#231F20" cx="186.407" cy="282.278" r="2.106"/>
				<circle fill="#231F20" cx="217.274" cy="238.533" r="2.632"/>
				<circle fill="#231F20" cx="214.69" cy="247.382" r="1.646"/>
				<circle fill="#231F20" cx="225.612" cy="253.404" r="3.044"/>
				<circle fill="#231F20" cx="164.375" cy="301.619" r="2.546"/>
				<circle fill="#231F20" cx="179.595" cy="300.439" r="3.183"/>
				<circle fill="#231F20" cx="173.908" cy="292.813" r="1.132"/>
				<circle fill="#231F20" cx="192.934" cy="293.51" r="2.864"/>
				<circle fill="#231F20" cx="209.878" cy="292.02" r="1.147"/>
				<circle fill="#231F20" cx="221.1" cy="285.272" r="2.947"/>
				<circle fill="#231F20" cx="238.067" cy="284.485" r="1.909"/>
				<path fill="#231F20" d="M339.511,200.404c-2.328-2.745,2.47-4.386-0.089-6.969c-2.532-2.558,4.116-5.033,1.786-7.778
					c-2.326-2.744-4.508-0.171-6.834-2.915c-2.328-2.744-3.676-4.332-6.005-7.076c-1.685-1.988-4.095-0.904-6.504-1.102
					s-1.114-2.425-3.103-0.738c-2.561,2.172-3.579,0.971-6.139,3.144c-2.561,2.171-2.072,2.747-4.634,4.918
					c-2.558,2.17-2.64,2.074-5.197,4.245c-2.558,2.168-2.496,2.241-5.052,4.411c-2.561,2.17-2.136,2.668-4.693,4.838
					c-2.557,2.168-1.688,3.194-4.245,5.364c-2.558,2.168-3.653,0.875-6.212,3.044c-2.557,2.169-3.492,1.066-6.051,3.236
					c-2.555,2.167-0.875,4.149-3.432,6.317c-2.557,2.169-3.561,0.989-6.117,3.158c-2.559,2.169-2.506,2.231-5.063,4.4
					c-2.558,2.17-16.986-5.937-19.545-3.768c-0.633,0.536-0.758,5.647,0.343,11.077c0.323,3.164,0.43,5.974,5.485,9.876
					c3.186,2.461,7.586,7.352,10.76,9.049c4.678,2.5,2.232,1.668,7.371,5.642c0.838,0.786,6.906,5.068,7.609,5.974
					c2.057,2.646,4.3,4.919,6.539,5.836c2.88,1.182,3.41-0.994,5.02-1.492c0.862-0.523,1.005-0.57,1.469-1.07
					c0.194-0.166,0.4-0.342,0.635-0.541c2.559-2.171,2.537-2.195,5.092-4.363c2.558-2.17,3.893-0.6,6.449-2.77
					c2.559-2.17,0.731-4.321,3.289-6.491c2.555-2.168,4.475,0.092,7.027-2.077c2.558-2.168,2.598-2.124,5.155-4.293
					c2.556-2.168,1.415-3.512,3.973-5.681c2.556-2.168,3.757-0.751,6.313-2.919c2.558-2.168,1.787-3.075,4.345-5.243
					c2.554-2.168,2.859-1.81,5.415-3.979c2.558-2.168,2.125-2.677,4.68-4.845c2.557-2.167,1.947-2.887,4.503-5.054
					c2.556-2.168-4.722-3.572-2.165-5.738c1.986-1.688,0,0,0.197-2.408C342.085,203.212,341.197,202.393,339.511,200.404z"/>
				<path fill="#231F20" d="M345.046,201.653c-0.83-3.504,0.622-4.59-0.48-8.691c-0.937-3.476-1.027-4.56-3.357-7.306
					c-2.326-2.744-2.113-2.926-4.439-5.669c-2.328-2.744-9.311,1.17-11.639-1.574c-1.686-1.988-0.855-3.652-3.265-3.85
					s-1.114-2.425-3.103-0.738c-2.561,2.172-3.579,0.971-6.139,3.144c-2.561,2.171-2.072,2.747-4.634,4.918
					c-2.558,2.17-2.64,2.074-5.197,4.245c-2.558,2.168-2.496,2.241-5.052,4.411c-2.561,2.17-2.136,2.668-4.693,4.838
					c-2.557,2.168-1.688,3.194-4.245,5.364c-2.558,2.168-3.653,0.875-6.212,3.044c-1.465,1.243-2.398,1.414-3.409,1.738
					l-0.17,38.061c0.484,0.797-0.911,2.406-0.532,3.247c0.835,0.789,0.826,2.977,1.039,4.104c1.521,8.056-0.354,9.157,0.853,11.47
					c0.101,0.194-0.845,4.214,4.163,1.728c0.977-1.043,2.246-1.355,2.445-2.113c0.194-0.166,0.4-0.342,0.635-0.541
					c2.559-2.171,2.537-2.195,5.092-4.363c2.558-2.17,3.893-0.6,6.449-2.77c2.559-2.17,0.731-4.321,3.289-6.491
					c2.555-2.168,4.475,0.092,7.027-2.077c2.558-2.168,2.598-2.124,5.155-4.293c2.556-2.168,1.415-3.512,3.973-5.681
					c2.556-2.168,3.757-0.751,6.313-2.919c2.558-2.168,1.787-3.075,4.345-5.243c2.554-2.168,2.859-1.81,5.415-3.979
					c2.558-2.168,2.125-2.677,4.68-4.845c2.557-2.167,1.118-0.412,3.092-3.12c1.411-1.935,2.06-1.161,3.258-2.856
					c0.91-1.289-0.563-3.536-0.365-5.943C345.534,204.494,345.673,204.3,345.046,201.653z"/>
				<path fill="#231F20" d="M340.562,184.163c-2.328-2.746-1.902-3.151-4.363-5.795c-2.451-2.636-2.81-2.281-5.138-5.028
					c-2.328-2.743-3.048-2.133-5.376-4.876c-2.327-2.745-3.168-2.03-5.496-4.774c-1.688-1.989-2.781-2.665-5.189-2.861
					c-2.408-0.198-5.298-1.714-7.285-0.028c-2.559,2.172-1.268,3.695-3.83,5.866c-2.558,2.172-3.922,0.567-6.483,2.738
					c-2.556,2.17-2.209,2.582-4.768,4.751c-2.556,2.168-3.413,1.156-5.97,3.325c-2.56,2.17-1.325,3.623-3.884,5.793
					c-2.56,2.169-3.179,1.436-5.737,3.605c-2.559,2.168-3.098,1.532-5.656,3.701c-2.556,2.17-2.551,2.178-5.106,4.347
					s-2.35,2.413-4.905,4.58c-2.559,2.172-2.711,1.989-5.271,4.159c-2.556,2.169-2.476,2.265-5.034,4.434
					c-2.558,2.17-1.87,2.979-4.429,5.148c-2.288,1.94-2.421,2.281-4.256,3.884c0.402,0.36,0.783,0.741,1.135,1.149
					c2.22,2.592,3.875,4.057,6.988,5.585c3.711,1.818,7.01,3.949,9.474,7.32c2.224,3.043,3.106,3.98,6.278,5.678
					c4.68,2.5,7.001,6.6,12.696,10.621c0.154,0.145-0.179-0.352-0.027-0.205c2.146-1.83,0.938-0.414,3.351-2.459
					c2.557-2.17,4.027-0.436,6.584-2.605c2.559-2.17,1.599-3.301,4.156-5.471c2.556-2.167,1.511-3.4,4.066-5.568
					c2.558-2.169,3.296-1.299,5.854-3.468c2.555-2.169,2.906-1.757,5.461-3.924c2.557-2.169,2.178-2.616,4.734-4.785
					c2.556-2.168,3.881-0.606,6.436-2.774c2.558-2.17,2.729-1.97,5.285-4.138c2.555-2.167,1.097-3.885,3.654-6.052
					c2.555-2.168,2.405-2.346,4.96-4.514c2.556-2.168,1.923-2.913,4.481-5.08c1.987-1.688,5.979-2.736,6.176-5.143
					C344.325,188.89,342.247,186.152,340.562,184.163z"/>
				<circle fill="#231F20" cx="266.279" cy="227.875" r="2.21"/>
				<circle fill="#231F20" cx="253.801" cy="220.583" r="1.316"/>
				<path fill="#231F20" d="M261.316,213.726c0.338,0.398,0.291,0.996-0.108,1.335s-0.997,0.289-1.337-0.109
					c-0.336-0.399-0.289-0.999,0.11-1.336C260.38,213.276,260.978,213.326,261.316,213.726z"/>
				<path fill="#231F20" d="M281.036,202.311c1.787,2.106,1.525,5.261-0.58,7.048c-2.104,1.786-5.26,1.527-7.045-0.579
					c-1.789-2.106-1.528-5.261,0.577-7.047C276.095,199.948,279.249,200.205,281.036,202.311z"/>
				<circle fill="#231F20" cx="281.43" cy="223.429" r="1.692"/>
				<path fill="#231F20" d="M271.204,240.351c0.529,0.078,1.088-0.055,1.529-0.43c0.811-0.687,0.91-1.902,0.223-2.714
					c-0.689-0.812-1.902-0.911-2.715-0.223c-0.621,0.526-0.822,1.358-0.578,2.084C270.193,239.475,270.706,239.904,271.204,240.351z
					"/>
				<path fill="#231F20" d="M283.456,237.873c0.791,0.93,0.676,2.326-0.256,3.115c-0.93,0.79-2.326,0.676-3.115-0.256
					c-0.789-0.931-0.676-2.326,0.258-3.116C281.27,236.827,282.667,236.942,283.456,237.873z"/>
				<circle fill="#231F20" cx="288.433" cy="230.397" r="2.527"/>
				<circle fill="#231F20" cx="269.067" cy="215.743" r="2.5"/>
				<circle fill="#231F20" cx="291.236" cy="214.388" r="3.65"/>
				<circle fill="#231F20" cx="304.029" cy="217.828" r="1.496"/>
				<circle fill="#231F20" cx="314.043" cy="207.705" r="1.789"/>
				<circle fill="#231F20" cx="296.44" cy="204.344" r="2.936"/>
				<circle fill="#231F20" cx="288.727" cy="197.188" r="1.685"/>
				<circle fill="#231F20" cx="287.826" cy="191.92" r="1.468"/>
				<circle fill="#231F20" cx="264.875" cy="203.263" r="1.271"/>
				<circle fill="#231F20" cx="300.411" cy="192.936" r="2.631"/>
				<circle fill="#231F20" cx="293.257" cy="183.2" r="1.79"/>
				<circle fill="#231F20" cx="300.498" cy="174.977" r="1.474"/>
				<circle fill="#231F20" cx="305.68" cy="183.2" r="1.367"/>
				<circle fill="#231F20" cx="319.268" cy="181.291" r="1.597"/>
				<circle fill="#231F20" cx="317.202" cy="194.665" r="4.21"/>
				<circle fill="#231F20" cx="332.868" cy="193.61" r="1.684"/>
				<circle fill="#231F20" cx="332.822" cy="184.494" r="1.861"/>
				<circle fill="#231F20" cx="312.302" cy="167.575" r="2.843"/>
				<circle fill="#231F20" cx="283.549" cy="251.106" r="2.941"/>
				<path fill="#231F20" d="M299.447,245.652c0.684,0.805,0.582,2.01-0.221,2.691c-0.804,0.682-2.009,0.584-2.693-0.221
					c-0.68-0.804-0.582-2.009,0.221-2.691C297.56,244.748,298.764,244.847,299.447,245.652z"/>
				<circle fill="#231F20" cx="301.596" cy="236.698" r="1.566"/>
				<circle fill="#231F20" cx="311.083" cy="229.144" r="1.94"/>
				<circle fill="#231F20" cx="311.024" cy="237.835" r="1.145"/>
				<circle fill="#231F20" cx="320.778" cy="222.298" r="4.01"/>
				<circle fill="#231F20" cx="334.679" cy="218.524" r="2.105"/>
				<path fill="#231F20" d="M335.812,208.214c0.707,0.834,0.606,2.081-0.229,2.788c-0.832,0.707-2.079,0.604-2.785-0.229
					c-0.709-0.833-0.605-2.08,0.229-2.787C333.857,207.28,335.108,207.381,335.812,208.214z"/>
				<path fill="#231F20" d="M343.138,202.263c1.207,1.419,1.035,3.548-0.387,4.754c-1.422,1.205-3.552,1.031-4.758-0.39
					c-1.202-1.422-1.031-3.55,0.393-4.756C339.806,200.666,341.936,200.843,343.138,202.263z"/>
				<path fill="#231F20" d="M256.339,230.566c3.308,3.596,6.287,5.838,10.232,8.8c2.77,2.077,10.02,8.152,10.709,8.957
					c1.006,1.173,0.502,7.204,1.34,13.401c-3.962,1.365-3.873,1.874-6.199,0.503c-2.871-1.692-9.419-7.383-15.746-13.736
					c-3.518-3.532-6.374-4.493-10.219-7.706c-1.584-1.322-4.094-2.753-4.355-5.025c-0.223-1.941-1.887-6.387-1.676-8.712
					c0.368-4.079,0.211-2.692,3.184-5.025C243.609,222.022,252.855,226.776,256.339,230.566z"/>
			</g>
			<g>
				<g>
					<g>
						<g>
							<g>
								<g>
									<path fill="#CD5D28" d="M236.279,277.15c1.479-7.475-2.291-12.793-4.906-19.415c-1.548-3.923-2.525-6.374-3.333-10.366
										c-1.411-0.914-1.493-4.132-1.662-6.105c-0.039-0.443-0.673-0.16-0.698-0.602c-1.082-0.452-1.725-0.887-2.236-1.987
										c-1.252,0.785-1.359,0.606-3.662,1.288c-3.215,0.949-3.647-0.508-6.861,0.441c-3.215,0.95-3.377,0.403-6.594,1.354
										c-3.214,0.95-2.717,2.63-5.932,3.58s-3.561-0.219-6.776,0.731c-3.216,0.951-2.698,2.699-5.913,3.649
										c-3.216,0.95-4.057-1.901-7.273-0.952c-3.213,0.949-2.52,3.298-5.732,4.248c-3.217,0.949-3.421,0.258-6.635,1.208
										c-3.213,0.949-3.385,0.37-6.6,1.319c-3.215,0.951-2.933,1.908-6.146,2.857c-3.215,0.951-3.475,0.07-6.688,1.021
										c-2.5,0.738-8.348-5.645-9.5-3.522c-1.156,2.122,0.516,13.769,1.254,16.269c1.021,3.453,1.173,3.407,2.193,6.859
										c1.019,3.453,0.988,3.463,2.008,6.914c1.021,3.45,2.23,3.094,3.252,6.543c1.019,3.451-0.021,3.758,1,7.209
										c0.738,2.501,4.354,3.535,6.479,4.689c2.122,1.154,4.066,0.617,6.568-0.122c3.219-0.951,3.9,1.353,7.121,0.401
										s3.266-0.799,6.484-1.752c3.217-0.949,2.941-1.885,6.158-2.836c3.215-0.949,3.621,0.426,6.838-0.525
										s2.48-3.437,5.697-4.387c3.216-0.951,3.896,1.355,7.113,0.406c3.216-0.952,2.678-2.777,5.893-3.727
										c3.214-0.951,2.859-2.15,6.076-3.102c3.215-0.951,3.883,1.308,7.097,0.357c3.217-0.951,3.37-0.43,6.587-1.381
										s2.69-2.732,5.906-3.683c2.675-0.791,1.895-1.577,3.695-0.832C235.805,280.779,235.913,278.986,236.279,277.15z"/>
									<path fill="#BC4E27" d="M236.279,277.15c0.973-4.911-0.326-8.891-2.069-12.922l-13.462,24.76
										c2.841-0.797,3.121-0.359,6.201-1.271c3.217-0.951,2.69-2.732,5.906-3.683c2.675-0.791,1.832-0.253,3.758-0.832
										C236.997,280.612,235.913,278.986,236.279,277.15z"/>
									<path fill="#D3712A" d="M231.372,257.735c-1.548-3.923,0.229-5.015-1.719-8.255c-1.033-1.604-2.377-4.857-2.545-6.831
										c-0.039-0.442,0.061-1.677-0.807-2.71c-1.741-1.637-2.48-1.623-2.828-3.261c-0.574-2.716-1.956-4.809-3.24-7.05
										c-0.48-0.369-0.897-0.807-1.208-1.316c-1.028-1.685-1.92-3.437-2.815-5.187c-0.369,0.118-0.785,0.247-1.289,0.396
										c-3.217,0.95-2.964,1.802-6.178,2.752c-3.217,0.95-3.53-0.11-6.746,0.84c-3.215,0.95-2.846,2.198-6.059,3.149
										c-3.217,0.949-3.543-0.158-6.759,0.793c-3.216,0.95-3.011,1.643-6.225,2.593c-3.218,0.95-3.538-0.142-6.752,0.81
										c-3.214,0.949-3.301,0.66-6.513,1.61c-3.217,0.95-2.695,2.712-5.91,3.663c-3.214,0.948-3.457,0.129-6.67,1.079
										c-3.215,0.95-3.135,1.221-6.35,2.171c-3.215,0.951-3.367,0.433-6.582,1.382c-2.498,0.739-4.818,2.38-5.975,4.503
										c-1.153,2.123,0.185,4.532,0.926,7.032c1.02,3.452-1.139,4.091-0.12,7.543c1.021,3.452,3.248,2.794,4.267,6.247
										c1.021,3.45-1.613,4.229-0.594,7.678c1.02,3.453,2.365,3.055,3.385,6.506c0.738,2.501,2.881,3.541,5.004,4.695
										c2.121,1.154,4.389,3.159,6.889,2.42c3.221-0.951,2.52-3.32,5.74-4.271c3.221-0.953,3.314-0.637,6.533-1.59
										c3.217-0.949,4.095,2.017,7.312,1.066c3.216-0.949,2.452-3.531,5.669-4.482c3.217-0.949,3.922,1.439,7.139,0.488
										c3.215-0.949,3.203-0.991,6.418-1.942c3.217-0.948,3.165-1.126,6.379-2.078c3.218-0.95,2.862-2.147,6.079-3.098
										c3.214-0.95,3.345-0.513,6.56-1.463c3.217-0.95,3.584,0.298,6.8-0.653c3.217-0.951,2.287-4.098,5.503-5.049
										c3.215-0.95,3.41-0.289,6.627-1.24c0.152-0.045,0.291-0.086,0.429-0.128C234.073,263.66,232.599,260.84,231.372,257.735z"
										/>
									<g>
										<path fill="#CD5D28" d="M161.181,275.252c0.711,2.397-0.66,4.914-3.058,5.623c-2.396,0.709-4.914-0.66-5.622-3.057
											c-0.709-2.398,0.66-4.916,3.058-5.625C157.956,271.486,160.474,272.854,161.181,275.252z"/>
										<circle fill="#CD5D28" cx="147.131" cy="264.477" r="1.367"/>
										<circle fill="#CD5D28" cx="149.681" cy="252.308" r="4.527"/>
										<circle fill="#CD5D28" cx="159.111" cy="258.959" r="2.632"/>
										<circle fill="#CD5D28" cx="164.12" cy="246.943" r="2.001"/>
										<circle fill="#CD5D28" cx="179.804" cy="243.185" r="0.843"/>
										<circle fill="#CD5D28" cx="175.92" cy="258.273" r="3.58"/>
										<circle fill="#CD5D28" cx="172.409" cy="272.122" r="2.813"/>
										<circle fill="#CD5D28" cx="190.684" cy="272.569" r="1.263"/>
										<circle fill="#CD5D28" cx="195.293" cy="263.892" r="1.406"/>
										<circle fill="#CD5D28" cx="190.073" cy="256.14" r="2.808"/>
										<circle fill="#CD5D28" cx="195.76" cy="242.821" r="5.015"/>
										<circle fill="#CD5D28" cx="208.115" cy="255.106" r="2.51"/>
										<circle fill="#CD5D28" cx="204.609" cy="268.062" r="2.421"/>
										<circle fill="#CD5D28" cx="220.497" cy="267.6" r="2.421"/>
										<circle fill="#CD5D28" cx="181.281" cy="277.151" r="2.106"/>
										<circle fill="#CD5D28" cx="212.147" cy="233.406" r="2.632"/>
										<circle fill="#CD5D28" cx="209.563" cy="242.255" r="1.646"/>
										<circle fill="#CD5D28" cx="220.485" cy="248.277" r="3.044"/>
										<circle fill="#BC4E27" cx="159.248" cy="296.492" r="2.546"/>
										<circle fill="#BC4E27" cx="174.468" cy="295.312" r="3.183"/>
										<circle fill="#BC4E27" cx="168.781" cy="287.686" r="1.132"/>
										<circle fill="#BC4E27" cx="187.807" cy="288.384" r="2.864"/>
										<circle fill="#BC4E27" cx="204.751" cy="286.893" r="1.147"/>
										<circle fill="#BC4E27" cx="215.973" cy="280.145" r="2.947"/>
										<circle fill="#CD5D28" cx="232.94" cy="279.358" r="1.909"/>
									</g>
								</g>
							</g>
						</g>
					</g>
					<g>
						<g>
							<g>
								<g>
									<path fill="#CD5D28" d="M334.384,195.277c-2.328-2.745,2.47-4.386-0.089-6.969c-2.532-2.558,4.116-5.033,1.786-7.778
										c-2.326-2.744-4.508-0.171-6.834-2.915c-2.328-2.744-3.676-4.332-6.005-7.076c-1.685-1.988-4.095-0.904-6.504-1.102
										s-1.114-2.425-3.103-0.738c-2.561,2.172-3.579,0.971-6.139,3.144c-2.561,2.171-2.072,2.747-4.634,4.918
										c-2.558,2.17-2.64,2.074-5.197,4.245c-2.558,2.168-2.496,2.241-5.052,4.411c-2.561,2.17-2.136,2.668-4.693,4.838
										c-2.557,2.168-1.688,3.194-4.245,5.364c-2.558,2.168-3.653,0.875-6.212,3.044c-2.557,2.169-3.492,1.066-6.051,3.236
										c-2.555,2.167-0.875,4.149-3.432,6.317c-2.557,2.169-3.561,0.989-6.117,3.158c-2.559,2.169-2.506,2.231-5.063,4.4
										c-2.558,2.17-16.986-5.937-19.545-3.768c-0.633,0.536-0.758,5.647,0.343,11.076c0.323,3.165,0.43,5.974,5.485,9.876
										c3.186,2.461,7.586,7.352,10.76,9.049c4.678,2.5,2.232,1.668,7.371,5.642c0.838,0.786,6.906,5.068,7.609,5.974
										c2.057,2.646,4.3,4.919,6.539,5.836c2.88,1.182,3.41-0.994,5.02-1.492c0.862-0.523,1.005-0.57,1.469-1.07
										c0.194-0.166,0.4-0.342,0.635-0.541c2.559-2.171,2.537-2.195,5.092-4.363c2.558-2.17,3.893-0.6,6.449-2.77
										c2.559-2.17,0.731-4.321,3.289-6.491c2.555-2.168,4.475,0.092,7.027-2.077c2.558-2.168,2.598-2.124,5.155-4.293
										c2.556-2.168,1.415-3.512,3.973-5.681c2.556-2.168,3.757-0.751,6.313-2.919c2.558-2.168,1.787-3.075,4.345-5.243
										c2.554-2.168,2.859-1.81,5.415-3.979c2.558-2.168,2.125-2.677,4.68-4.845c2.557-2.167,1.947-2.887,4.503-5.054
										c2.556-2.168-4.722-3.572-2.165-5.738c1.986-1.688,0,0,0.197-2.408C336.958,198.085,336.07,197.266,334.384,195.277z"/>
									<path fill="#BC4E27" d="M339.919,196.526c-0.83-3.504,0.622-4.59-0.48-8.691c-0.937-3.476-1.027-4.56-3.357-7.306
										c-2.326-2.744-2.113-2.926-4.439-5.669c-2.328-2.744-9.311,1.17-11.639-1.574c-1.686-1.988-0.855-3.652-3.265-3.85
										s-1.114-2.425-3.103-0.738c-2.561,2.172-3.579,0.971-6.139,3.144c-2.561,2.171-2.072,2.747-4.634,4.918
										c-2.558,2.17-2.64,2.074-5.197,4.245c-2.558,2.168-2.496,2.241-5.052,4.411c-2.561,2.17-2.136,2.668-4.693,4.838
										c-2.557,2.168-1.688,3.194-4.245,5.364c-2.558,2.168-3.653,0.875-6.212,3.044c-1.465,1.243-2.398,1.414-3.409,1.738
										l-0.17,38.061c0.484,0.797-0.911,2.406-0.532,3.247c0.835,0.789,0.826,2.977,1.039,4.104
										c1.521,8.056-0.354,9.157,0.853,11.47c0.101,0.194-0.845,4.214,4.163,1.728c0.977-1.043,2.246-1.355,2.445-2.113
										c0.194-0.166,0.4-0.342,0.635-0.541c2.559-2.171,2.537-2.195,5.092-4.363c2.558-2.17,3.893-0.6,6.449-2.77
										c2.559-2.17,0.731-4.321,3.289-6.491c2.555-2.168,4.475,0.092,7.027-2.077c2.558-2.168,2.598-2.124,5.155-4.293
										c2.556-2.168,1.415-3.512,3.973-5.681c2.556-2.168,3.757-0.751,6.313-2.919c2.558-2.168,1.787-3.075,4.345-5.243
										c2.554-2.168,2.859-1.81,5.415-3.979c2.558-2.168,2.125-2.677,4.68-4.845c2.557-2.167,1.118-0.412,3.092-3.12
										c1.411-1.935,2.06-1.161,3.258-2.856c0.91-1.289-0.563-3.536-0.365-5.943C340.407,199.367,340.546,199.173,339.919,196.526
										z"/>
									<path fill="#D3712A" d="M335.435,179.036c-2.328-2.746-1.902-3.151-4.363-5.795c-2.451-2.636-2.81-2.281-5.138-5.028
										c-2.328-2.743-3.048-2.133-5.376-4.876c-2.327-2.745-3.168-2.03-5.496-4.774c-1.688-1.989-2.781-2.665-5.189-2.861
										c-2.408-0.198-5.298-1.714-7.285-0.028c-2.559,2.172-1.268,3.695-3.83,5.866c-2.558,2.172-3.922,0.567-6.483,2.738
										c-2.556,2.17-2.209,2.582-4.768,4.751c-2.556,2.168-3.413,1.156-5.97,3.325c-2.56,2.17-1.325,3.623-3.884,5.793
										c-2.56,2.169-3.179,1.436-5.737,3.605c-2.559,2.168-3.098,1.532-5.656,3.701c-2.556,2.17-2.551,2.178-5.106,4.347
										s-2.35,2.413-4.905,4.58c-2.559,2.172-2.711,1.989-5.271,4.159c-2.556,2.169-2.476,2.265-5.034,4.434
										c-2.558,2.17-1.87,2.979-4.429,5.148c-2.288,1.94-2.421,2.281-4.256,3.884c0.402,0.36,0.783,0.741,1.135,1.149
										c2.22,2.592,3.875,4.057,6.988,5.585c3.711,1.818,7.01,3.949,9.474,7.32c2.224,3.043,3.106,3.98,6.278,5.678
										c4.68,2.5,7.001,6.6,12.696,10.621c0.154,0.145-0.179-0.352-0.027-0.205c2.146-1.83,0.938-0.414,3.351-2.459
										c2.557-2.17,4.027-0.436,6.584-2.605c2.559-2.17,1.599-3.301,4.156-5.471c2.556-2.167,1.511-3.4,4.066-5.568
										c2.558-2.169,3.296-1.299,5.854-3.468c2.555-2.169,2.906-1.757,5.461-3.924c2.557-2.169,2.178-2.616,4.734-4.785
										c2.556-2.168,3.881-0.606,6.436-2.774c2.558-2.17,2.729-1.97,5.285-4.138c2.555-2.167,1.097-3.885,3.654-6.052
										c2.555-2.168,2.405-2.346,4.96-4.514c2.556-2.168,1.923-2.913,4.481-5.08c1.987-1.688,5.979-2.736,6.176-5.143
										C339.198,183.763,337.12,181.025,335.435,179.036z"/>
									<g>
										<circle fill="#CD5D28" cx="261.152" cy="222.747" r="2.21"/>
										<circle fill="#CD5D28" cx="248.674" cy="215.456" r="1.316"/>
										<path fill="#CD5D28" d="M256.189,208.599c0.338,0.398,0.291,0.996-0.108,1.335s-0.997,0.289-1.337-0.109
											c-0.336-0.399-0.289-0.999,0.11-1.336C255.253,208.149,255.851,208.199,256.189,208.599z"/>
										<path fill="#CD5D28" d="M275.909,197.184c1.787,2.106,1.525,5.261-0.58,7.048c-2.104,1.786-5.26,1.527-7.045-0.579
											c-1.789-2.106-1.528-5.261,0.577-7.047C270.968,194.821,274.122,195.078,275.909,197.184z"/>
										<circle fill="#CD5D28" cx="276.303" cy="218.302" r="1.692"/>
										<path fill="#CD5D28" d="M266.077,235.224c0.529,0.078,1.088-0.055,1.529-0.43c0.811-0.687,0.91-1.902,0.223-2.714
											c-0.689-0.812-1.902-0.911-2.715-0.223c-0.621,0.526-0.822,1.358-0.578,2.084
											C265.066,234.348,265.579,234.777,266.077,235.224z"/>
										<path fill="#CD5D28" d="M278.329,232.746c0.791,0.93,0.676,2.326-0.256,3.115c-0.93,0.79-2.326,0.676-3.115-0.256
											c-0.789-0.931-0.676-2.326,0.258-3.116C276.143,231.7,277.54,231.815,278.329,232.746z"/>
										<circle fill="#CD5D28" cx="283.306" cy="225.27" r="2.527"/>
										<circle fill="#CD5D28" cx="263.94" cy="210.616" r="2.5"/>
										<circle fill="#CD5D28" cx="286.109" cy="209.261" r="3.65"/>
										<circle fill="#CD5D28" cx="298.902" cy="212.701" r="1.496"/>
										<circle fill="#CD5D28" cx="308.916" cy="202.578" r="1.789"/>
										<circle fill="#CD5D28" cx="291.313" cy="199.217" r="2.936"/>
										<circle fill="#CD5D28" cx="283.6" cy="192.061" r="1.685"/>
										<circle fill="#CD5D28" cx="282.699" cy="186.793" r="1.468"/>
										<circle fill="#CD5D28" cx="259.748" cy="198.136" r="1.271"/>
										<circle fill="#CD5D28" cx="295.284" cy="187.809" r="2.631"/>
										<circle fill="#CD5D28" cx="288.13" cy="178.073" r="1.79"/>
										<circle fill="#CD5D28" cx="295.371" cy="169.85" r="1.474"/>
										<circle fill="#CD5D28" cx="300.553" cy="178.073" r="1.367"/>
										<circle fill="#CD5D28" cx="314.141" cy="176.164" r="1.597"/>
										<circle fill="#CD5D28" cx="312.075" cy="189.538" r="4.21"/>
										<circle fill="#CD5D28" cx="327.741" cy="188.483" r="1.684"/>
										<circle fill="#CD5D28" cx="327.695" cy="179.367" r="1.861"/>
										<circle fill="#CD5D28" cx="307.175" cy="162.448" r="2.843"/>
										<circle fill="#CD5D28" cx="278.422" cy="245.979" r="2.941"/>
										<path fill="#CD5D28" d="M294.32,240.525c0.684,0.805,0.582,2.01-0.221,2.691c-0.804,0.682-2.009,0.584-2.693-0.221
											c-0.68-0.804-0.582-2.009,0.221-2.691C292.433,239.621,293.637,239.72,294.32,240.525z"/>
										<circle fill="#CD5D28" cx="296.469" cy="231.572" r="1.566"/>
										<circle fill="#CD5D28" cx="305.956" cy="224.017" r="1.94"/>
										<circle fill="#CD5D28" cx="305.897" cy="232.708" r="1.145"/>
										<circle fill="#CD5D28" cx="315.651" cy="217.171" r="4.01"/>
										<circle fill="#CD5D28" cx="329.552" cy="213.397" r="2.105"/>
										<path fill="#CD5D28" d="M330.685,203.087c0.707,0.834,0.606,2.081-0.229,2.788c-0.832,0.707-2.079,0.604-2.785-0.229
											c-0.709-0.833-0.605-2.08,0.229-2.787C328.73,202.153,329.981,202.254,330.685,203.087z"/>
										<path fill="#CD5D28" d="M338.011,197.136c1.207,1.419,1.035,3.548-0.387,4.754c-1.422,1.205-3.552,1.031-4.758-0.39
											c-1.202-1.422-1.031-3.55,0.393-4.756C334.679,195.539,336.809,195.716,338.011,197.136z"/>
									</g>
								</g>
							</g>
						</g>
					</g>
					<path fill="#EFE3DB" d="M251.212,225.439c3.308,3.596,6.287,5.838,10.232,8.8c2.77,2.077,10.02,8.152,10.709,8.957
						c1.006,1.173,0.502,7.204,1.34,13.401c-3.962,1.365-3.873,1.874-6.199,0.503c-2.871-1.692-9.419-7.383-15.746-13.736
						c-3.518-3.532-6.374-4.493-10.219-7.706c-1.584-1.322-4.094-2.753-4.355-5.025c-0.223-1.941-1.887-6.387-1.676-8.712
						c0.368-4.079,0.211-2.692,3.184-5.025C238.482,216.895,247.728,221.649,251.212,225.439z"/>
				</g>
			</g>
		</g>
		<path fill="#C1AFA7" d="M266.662,245.416c-1.847,1.244-1.21,3.046-1.21,5.299c0,1.627-0.039,3.364-0.02,5.117
			c0.721,0.535,1.352,0.967,1.861,1.269c2.326,1.371,2.237,0.862,6.199-0.503c-0.83-6.139-0.346-12.108-1.313-13.359
			C270.443,244.09,268.283,244.322,266.662,245.416z"/>
		<path fill="#D2C4BD" d="M268.277,257.556c-0.115-0.936-0.252-1.87-0.307-2.801c-0.154-2.588-0.135-5.692-0.676-8.209
			c-0.588-2.74-3.818-3.762-5.854-5.361c-3.729-2.928-7.063-6.266-10.77-9.256c-2.779-2.242-5.629-4.375-8.505-6.488
			c-1.808-1.326-5.202-3.32-6.664-5.493c-0.067,0.464-0.124,1.084-0.204,1.972c-0.211,2.325,1.453,6.771,1.676,8.712
			c0.262,2.272,2.771,3.703,4.355,5.025c3.845,3.213,6.701,4.174,10.219,7.706c6.327,6.354,12.875,12.044,15.746,13.736
			C267.669,257.321,267.987,257.465,268.277,257.556z"/>
		<g>
			<path fill="#C1AFA7" d="M251.548,243.364c0.322,0.324,0.646,0.646,0.97,0.966c-0.032-0.977-0.032-1.934-0.036-2.806
				c-0.01-2.615,0.137-5.415-0.027-8.091c-0.59-0.505-1.176-1.015-1.783-1.504c-0.304-0.244-0.615-0.477-0.92-0.72
				c-0.154,2.653,0.275,5.552,0.365,8.105c0.021,0.645,0.123,1.706,0.105,2.808C250.657,242.502,251.096,242.911,251.548,243.364z"
				/>
			<path fill="#C1AFA7" d="M244.124,237.769c0.019-2.572,0.221-5.133,0.241-7.715c0.003-0.26,0.046-1.566-0.026-2.994
				c-0.725-0.539-1.444-1.084-2.173-1.619c-0.192-0.142-0.411-0.294-0.638-0.451c-0.078,1.008,0.014,2.07,0.011,2.447
				c-0.021,2.363,0.516,5.844,0.198,8.544C242.57,236.656,243.365,237.245,244.124,237.769z"/>
			<path fill="#C1AFA7" d="M261.329,245.187c-0.037-0.883,0.098-2.381,0.143-3.979c-0.01-0.007-0.021-0.015-0.031-0.022
				c-1.254-0.984-2.459-2.021-3.652-3.07c0.033,0.543,0.074,1.027,0.07,1.338c-0.023,2.359,0.314,4.664,0.408,7.01
				c0.037,0.9,0.209,2.262,0.195,3.51c1.094,0.992,2.145,1.92,3.133,2.764C261.466,250.226,261.435,247.703,261.329,245.187z"/>
		</g>
	</g>
</g>
</svg>
