<?xml version="1.0" encoding="utf-8"?>
<!-- Generator: Adobe Illustrator 16.0.0, SVG Export Plug-In . SVG Version: 6.00 Build 0)  -->
<!DOCTYPE svg PUBLIC "-//W3C//DTD SVG 1.1//EN" "http://www.w3.org/Graphics/SVG/1.1/DTD/svg11.dtd">
<svg version="1.1" id="Ebene_1" xmlns="http://www.w3.org/2000/svg" xmlns:xlink="http://www.w3.org/1999/xlink" x="0px" y="0px"
	 width="450px" height="450px" viewBox="0 0 450 450" enable-background="new 0 0 450 450" xml:space="preserve">
<g>
	<g>
		<g opacity="0.3">
			<path d="M186.717,143.966c-28.32,15.154-60.594,44.159-67.104,78.319c-3.341,17.542-1.565,34.078-1.598,51.715
				c-0.026,14.91,10.092,42.033,24.346,48.04c26.676,11.24,58.383,15.895,86.426-1c12.848-7.74,18.342-20.24,23.934-33.41
				c5.646-13.298,13.792-19.06,25.611-26.729c9.37-6.081,17.479-4.081,25.075-12.326c5.827-6.322,10.65-16.621,13.114-25.014
				c4.964-16.906,19.84-22.692,7.916-45.719c-6.807-13.143-15.394-26.763-27.6-34.843c-8.453-5.598-14.725-10.474-24.501-12.75
				C250.297,125.117,212.895,127.42,186.717,143.966z"/>
			<path d="M268.583,267.601c2.935-2.232,6.171-4.38,9.748-6.7c9.369-6.081,17.478-4.081,25.075-12.326
				c5.826-6.322,10.65-16.621,13.114-25.014c4.963-16.906,19.842-22.692,7.915-45.719c-2.075-4.008-4.319-8.058-6.778-11.983
				c-17.911,18.901-44.653,47.292-44.779,48.452C272.767,215.352,270.438,244.397,268.583,267.601z"/>
			<path opacity="0.2" d="M306.754,220.083l-175.563,77.34c2.021,3.516,4.298,6.512,6.816,8.646
				c24.828,21.062,48.791,19.446,76.493,11.035c13.624-4.138,27.879-15.279,29.951-31.153c1.938-14.869,18.77-28.341,29.988-35.618
				c8.892-5.771,16.031-4.385,23.243-12.21C300.942,234.585,303.767,226.948,306.754,220.083z"/>
		</g>
		<g>
			<g>
				<path fill="#F4F1EC" d="M184.105,141.352c-28.321,15.154-60.595,44.159-67.104,78.319c-3.341,17.542-1.566,34.078-1.598,51.715
					c-0.026,14.91,10.092,42.033,24.346,48.04c26.676,11.24,58.383,15.895,86.427-1c12.847-7.74,18.341-20.24,23.934-33.41
					c5.646-13.298,13.791-19.06,25.61-26.729c9.37-6.081,17.479-4.081,25.075-12.326c5.827-6.322,10.65-16.621,13.114-25.014
					c4.963-16.906,19.84-22.692,7.916-45.719c-6.807-13.143-15.394-26.763-27.6-34.843c-8.453-5.598-14.725-10.474-24.501-12.75
					C247.684,122.504,210.281,124.806,184.105,141.352z"/>
				<path fill="#E6E0D7" d="M265.969,264.988c2.936-2.232,6.172-4.38,9.748-6.7c9.37-6.081,17.479-4.081,25.076-12.326
					c5.826-6.322,10.65-16.621,13.114-25.014c4.963-16.906,19.842-22.692,7.915-45.719c-2.075-4.008-4.319-8.058-6.778-11.983
					c-17.911,18.901-44.652,47.292-44.779,48.452C270.154,212.739,267.825,241.784,265.969,264.988z"/>
				<path fill="#FFFFFF" d="M175.265,146.316c-26.882,14.384-34.122,20.557-51.148,48.831c-9.271,15.39-6.36,41.486-6.392,58.222
					c-0.025,14.15,6.472,40.59,17.669,50.087c24.827,21.062,48.791,19.446,76.493,11.035c13.624-4.138,27.879-15.279,29.951-31.153
					c1.938-14.869,18.771-28.341,29.988-35.618c8.891-5.771,16.032-4.385,23.243-12.21c5.529-6.003,9.813-23.814,15.749-29.617
					c11.627-11.372,12.913-22.031,6.506-37.875c-5.267-13.021-10.67-24.146-22.255-31.816c-8.022-5.312-19.957-9.29-28.937-12.482
					C234.261,112.389,200.104,130.612,175.265,146.316z"/>
				<path opacity="0.2" fill="#F7F4EF" d="M304.141,217.469l-175.563,77.34c2.021,3.516,4.298,6.512,6.816,8.646
					c24.827,21.062,48.791,19.446,76.493,11.035c13.624-4.138,27.879-15.279,29.951-31.153
					c1.938-14.869,18.771-28.341,29.988-35.618c8.891-5.771,16.032-4.385,23.243-12.21
					C298.328,231.971,301.154,224.335,304.141,217.469z"/>
				<circle fill="#F4F1EC" cx="213.493" cy="205.372" r="43.285"/>
				<g>
					<path fill="#F2BF3F" d="M208.849,240.832c-22.117,0-40.111-17.992-40.111-40.107c0-22.116,17.994-40.108,40.111-40.108
						c22.114,0,40.105,17.992,40.105,40.108C248.954,222.84,230.963,240.832,208.849,240.832z"/>
					<path fill="#FFFFFF" d="M208.849,161.923c21.43,0,38.799,17.373,38.799,38.802c0,21.43-17.369,38.801-38.799,38.801
						c-21.433,0-38.805-17.371-38.805-38.801C170.044,179.296,187.416,161.923,208.849,161.923 M208.849,159.309
						c-22.838,0-41.418,18.578-41.418,41.415c0,22.836,18.58,41.414,41.418,41.414c22.835,0,41.412-18.578,41.412-41.414
						C250.261,177.887,231.684,159.309,208.849,159.309L208.849,159.309z"/>
				</g>
				<path fill="#E8A81F" d="M208.849,239.525c21.43,0,38.799-17.371,38.799-38.801c0-12.089-5.528-22.884-14.196-30.001
					c-13.213,17.715-32.85,44.024-46.393,62.109C193.27,237.056,200.77,239.525,208.849,239.525z"/>
				<circle fill="#FFFFFF" cx="196.809" cy="181.065" r="6.556"/>
			</g>
		</g>
	</g>
</g>
</svg>
