<?xml version="1.0" encoding="utf-8"?>
<!-- Generator: Adobe Illustrator 16.0.0, SVG Export Plug-In . SVG Version: 6.00 Build 0)  -->
<!DOCTYPE svg PUBLIC "-//W3C//DTD SVG 1.1//EN" "http://www.w3.org/Graphics/SVG/1.1/DTD/svg11.dtd">
<svg version="1.1" id="Ebene_1" xmlns="http://www.w3.org/2000/svg" xmlns:xlink="http://www.w3.org/1999/xlink" x="0px" y="0px"
	 width="450px" height="450px" viewBox="0 0 450 450" enable-background="new 0 0 450 450" xml:space="preserve">
<g>
	<g opacity="0.3">
		<path fill="#1D1D1B" d="M195.249,140.506c-28.321,15.154-60.595,44.159-67.104,78.319c-3.341,17.542-1.566,34.079-1.598,51.715
			c-0.026,14.91,10.092,42.033,24.346,48.039c26.676,11.24,58.383,15.895,86.427-1c12.847-7.74,18.341-20.24,23.934-33.41
			c5.646-13.297,13.791-19.059,25.61-26.729c9.37-6.08,17.479-4.08,25.075-12.326c5.827-6.322,10.65-16.621,13.114-25.013
			c4.963-16.906,19.84-22.692,7.916-45.719c-6.807-13.143-15.394-26.763-27.6-34.843c-8.453-5.598-14.725-10.474-24.501-12.75
			C258.828,121.657,221.426,123.96,195.249,140.506z"/>
		<path fill="#1D1D1B" d="M277.114,264.142c2.936-2.232,6.172-4.381,9.748-6.701c9.37-6.08,17.479-4.08,25.076-12.326
			c5.826-6.322,10.65-16.621,13.114-25.013c4.963-16.906,19.842-22.692,7.915-45.719c-2.075-4.008-4.319-8.058-6.778-11.983
			c-17.911,18.901-44.652,47.292-44.779,48.452C281.298,211.893,278.97,240.937,277.114,264.142z"/>
		<path fill="#1D1D1B" d="M186.409,145.47c-26.882,14.384-34.122,20.557-51.148,48.831c-9.271,15.39-6.36,41.486-6.392,58.222
			c-0.025,14.15,6.472,40.59,17.669,50.086c24.827,21.063,48.791,19.447,76.493,11.035c13.624-4.137,27.879-15.279,29.951-31.152
			c1.938-14.869,18.771-28.342,29.988-35.619c8.891-5.771,16.032-4.385,23.243-12.209c5.529-6.004,9.813-23.815,15.749-29.618
			c11.627-11.372,12.913-22.031,6.506-37.875c-5.267-13.021-10.67-24.146-22.255-31.816c-8.022-5.312-19.957-9.29-28.937-12.482
			C245.406,111.543,211.248,129.766,186.409,145.47z"/>
		<path opacity="0.2" fill="#1D1D1B" d="M315.285,216.623l-175.563,77.339c2.021,3.516,4.298,6.512,6.816,8.646
			c24.827,21.063,48.791,19.447,76.493,11.035c13.624-4.137,27.879-15.279,29.951-31.152c1.938-14.869,18.771-28.342,29.988-35.619
			c8.891-5.771,16.032-4.385,23.243-12.209C309.473,231.125,312.298,223.489,315.285,216.623z"/>
		<circle fill="#1D1D1B" cx="224.637" cy="204.526" r="43.285"/>
		<path fill="#1D1D1B" d="M219.993,239.986c-22.117,0-40.111-17.993-40.111-40.108c0-22.116,17.994-40.108,40.111-40.108
			c22.114,0,40.105,17.992,40.105,40.108C260.099,221.993,242.108,239.986,219.993,239.986z"/>
		<path fill="#1D1D1B" d="M219.993,161.076c21.43,0,38.799,17.373,38.799,38.802c0,21.43-17.369,38.801-38.799,38.801
			c-21.433,0-38.805-17.372-38.805-38.801C181.189,178.449,198.561,161.076,219.993,161.076 M219.993,158.463
			c-22.838,0-41.418,18.579-41.418,41.415s18.58,41.415,41.418,41.415c22.835,0,41.412-18.579,41.412-41.415
			S242.828,158.463,219.993,158.463L219.993,158.463z"/>
		<path fill="#1D1D1B" d="M219.993,238.679c21.43,0,38.799-17.372,38.799-38.801c0-12.089-5.528-22.884-14.196-30.001
			c-13.213,17.715-32.85,44.024-46.393,62.109C204.414,236.211,211.914,238.679,219.993,238.679z"/>
		<circle fill="#1D1D1B" cx="207.954" cy="180.219" r="6.556"/>
	</g>
	<g>
		<g>
			<path fill="#F5F2ED" d="M192.636,137.893c-28.321,15.154-60.595,44.159-67.104,78.319c-3.341,17.542-1.566,34.079-1.598,51.715
				c-0.026,14.91,10.092,42.033,24.346,48.039c26.676,11.24,58.383,15.895,86.427-1c12.847-7.74,18.341-20.24,23.934-33.41
				c5.646-13.297,13.791-19.059,25.61-26.729c9.37-6.08,17.479-4.08,25.075-12.326c5.827-6.322,10.65-16.621,13.114-25.013
				c4.963-16.906,19.84-22.692,7.916-45.719c-6.807-13.143-15.394-26.763-27.6-34.843c-8.453-5.598-14.725-10.474-24.501-12.75
				C256.215,119.044,218.813,121.347,192.636,137.893z"/>
			<path fill="#E7E1D8" d="M274.5,261.529c2.936-2.232,6.172-4.381,9.748-6.701c9.37-6.08,17.479-4.08,25.076-12.326
				c5.826-6.322,10.65-16.621,13.114-25.013c4.963-16.906,19.842-22.692,7.915-45.719c-2.075-4.008-4.319-8.058-6.778-11.983
				c-17.911,18.901-44.652,47.292-44.779,48.452C278.685,209.28,276.357,238.324,274.5,261.529z"/>
			<path fill="#FFFFFF" d="M183.796,142.857c-26.882,14.384-34.122,20.557-51.148,48.831c-9.271,15.39-6.36,41.486-6.392,58.222
				c-0.025,14.15,6.472,40.59,17.669,50.086c24.827,21.063,48.791,19.447,76.493,11.035c13.624-4.137,27.879-15.279,29.951-31.152
				c1.938-14.869,18.771-28.342,29.988-35.619c8.891-5.771,16.032-4.385,23.243-12.209c5.529-6.004,9.813-23.815,15.749-29.618
				c11.627-11.372,12.913-22.031,6.506-37.875c-5.267-13.021-10.67-24.146-22.255-31.816c-8.022-5.312-19.957-9.29-28.937-12.482
				C242.792,108.93,208.635,127.153,183.796,142.857z"/>
			<path opacity="0.2" fill="#F8F5F0" d="M312.672,214.01l-175.563,77.339c2.021,3.516,4.298,6.512,6.816,8.646
				c24.827,21.063,48.791,19.447,76.493,11.035c13.624-4.137,27.879-15.279,29.951-31.152c1.938-14.869,18.771-28.342,29.988-35.619
				c8.891-5.771,16.032-4.385,23.243-12.209C306.86,228.511,309.685,220.875,312.672,214.01z"/>
			<circle fill="#F5F2ED" cx="222.024" cy="201.912" r="43.285"/>
			<g>
				<path fill="#F3C03F" d="M217.38,237.373c-22.117,0-40.111-17.993-40.111-40.108c0-22.116,17.994-40.108,40.111-40.108
					c22.114,0,40.105,17.992,40.105,40.108C257.486,219.38,239.494,237.373,217.38,237.373z"/>
				<path fill="#FFFFFF" d="M217.38,158.463c21.43,0,38.799,17.373,38.799,38.802c0,21.43-17.369,38.801-38.799,38.801
					c-21.433,0-38.805-17.372-38.805-38.801C178.575,175.836,195.948,158.463,217.38,158.463 M217.38,155.85
					c-22.838,0-41.418,18.579-41.418,41.415s18.58,41.415,41.418,41.415c22.835,0,41.412-18.579,41.412-41.415
					S240.215,155.85,217.38,155.85L217.38,155.85z"/>
			</g>
			<path fill="#E9A91F" d="M217.38,236.066c21.43,0,38.799-17.372,38.799-38.801c0-12.089-5.528-22.884-14.196-30.001
				c-13.213,17.715-32.85,44.024-46.393,62.109C201.801,233.597,209.301,236.066,217.38,236.066z"/>
			<circle fill="#FFFFFF" cx="205.341" cy="177.606" r="6.556"/>
		</g>
	</g>
</g>
</svg>
