<?xml version="1.0" encoding="utf-8"?>
<!-- Generator: Adobe Illustrator 16.0.0, SVG Export Plug-In . SVG Version: 6.00 Build 0)  -->
<!DOCTYPE svg PUBLIC "-//W3C//DTD SVG 1.1//EN" "http://www.w3.org/Graphics/SVG/1.1/DTD/svg11.dtd">
<svg version="1.1" id="Ebene_1" xmlns="http://www.w3.org/2000/svg" xmlns:xlink="http://www.w3.org/1999/xlink" x="0px" y="0px"
	 width="450px" height="450px" viewBox="0 0 450 450" enable-background="new 0 0 450 450" xml:space="preserve">
<g id="egg">
	<g>
		<path fill="#FDD323" d="M271.934,275.959c12.301-0.641,27.858-10.219,34.92-20.846c16.066-25.33-1.136-49.021-15.234-68.724
			c-15.165-22.719-31.104-33.312-58.01-36.633c-28.492-2.077-40.772,10.063-60.833,26.991
			c-15.288,13.206-33.133,29.692-35.756,50.93c-3.59,23.276-11.7,42.399,11.418,58.909c22.498,15.719,40.441,4.274,64.317-2.84
			c19.283-4.812,40.076-4.396,60.598-7.615"/>
	</g>
	<g>
		<path fill="#FAF7EB" d="M267.188,270.67c11.623-0.817,26.481-10.057,33.337-20.121c15.625-23.973-0.188-45.813-13.146-63.986
			c-13.907-20.968-28.768-30.587-54.104-33.21c-26.862-1.432-38.674,10.141-57.916,26.332
			c-14.668,12.625-31.813,28.359-34.671,48.264c-3.808,21.829-11.808,39.856,9.722,54.881c20.959,14.291,38.103,3.271,60.771-3.813
			c18.291-4.846,37.914-4.832,57.345-8.209"/>
	</g>
	<g>
		<path fill="#FDD323" d="M238.076,235.842c9.895-10.278,1.903-27.077-3.949-37.862c-14.374-23.333-31.889-21.188-53.631-8.058
			c-17.149,10.818-24.099,37.992-8.854,54.25c16.657,16.433,39.918,8.521,57.687-1.506
			C232.334,241.602,234.896,238.322,238.076,235.842"/>
	</g>
	<g opacity="0.4">
		<path fill="#FBE99F" d="M230.16,239.105c9.257-9.617,1.78-25.333-3.697-35.425c-13.447-21.833-29.834-19.823-50.177-7.539
			c-16.048,10.124-22.548,35.548-8.286,50.759c15.589,15.375,37.35,7.973,53.974-1.405
			C224.787,244.495,227.188,241.43,230.16,239.105"/>
	</g>
</g>
</svg>
