<?xml version="1.0" encoding="utf-8"?>
<!-- Generator: Adobe Illustrator 16.0.3, SVG Export Plug-In . SVG Version: 6.00 Build 0)  -->
<!DOCTYPE svg PUBLIC "-//W3C//DTD SVG 1.1//EN" "http://www.w3.org/Graphics/SVG/1.1/DTD/svg11.dtd">
<svg version="1.1" id="Ebene_1" xmlns="http://www.w3.org/2000/svg" xmlns:xlink="http://www.w3.org/1999/xlink" x="0px" y="0px"
	 width="450px" height="450px" viewBox="0 0 450 450" enable-background="new 0 0 450 450" xml:space="preserve">
<g id="prok">
	<g>
		<path fill="#E8877F" d="M151.269,231.932c7.424-14.314,4.771-33.93,17.496-45.594c11.663-10.604,25.977-19.617,38.701-28.628
			c10.603-7.951,24.388-9.011,37.11-4.771c15.904,5.832,22.266,18.025,34.462,29.156c19.083,16.968,30.218,46.653,20.143,71.573
			c-9.54,23.855-23.323,44.532-50.893,44.532c-19.086,0-43.477-16.966-59.378-25.447l0,0c-5.3-2.121-11.662-4.771-17.497-6.364
			c-7.949-2.649-17.492-3.178-22.794-10.602c-4.773-5.83,0-19.614,3.181-24.914"/>
	</g>
	<g>
		<g>
			<path fill="#E8BEB7" d="M280.1,183.686c-12.193-11.134-18.559-23.325-34.465-29.156c-12.722-4.242-26.503-3.182-37.109,4.771
				c-12.724,9.013-27.038,18.026-38.7,28.627c-12.444,11.405-10.188,30.414-17.024,44.637c-3.181,5.367-7.863,19.018-3.124,24.815
				c5.301,7.423,14.849,7.952,22.8,10.603c5.828,1.594,12.193,4.242,17.493,6.36c15.907,8.483,40.292,25.449,59.375,25.449
				c27.57,0,41.354-20.676,50.897-44.533C310.316,230.339,299.181,200.653,280.1,183.686z M290.699,238.293
				c-4.77,20.146-14.314,57.258-42.411,53.545c-6.892-1.061-11.134-5.833-16.963-9.013v-0.53
				c-13.257-9.542-30.752-17.493-45.598-23.855c-5.827-2.651-14.314-4.771-18.554-9.543c-4.141-5.176-1.203-11.873-1.063-17.613
				c-0.168,0.4-0.337,0.798-0.525,1.178l0.529-1.587c0,0.135-0.004,0.271-0.004,0.409c3.071-7.486,2.205-18.897,3.715-27.45
				c4.239-16.433,15.375-19.082,28.629-27.037c11.13-6.361,20.145-18.555,33.927-19.085c7.955,0,10.075,5.831,16.438,10.074
				c5.832,4.768,12.723,7.419,18.556,12.189c9.011,6.893,15.378,16.436,21.735,25.449
				C295.473,214.966,293.352,227.688,290.699,238.293z"/>
		</g>
	</g>
	<g>
		<g>
			<g>
				<path fill="#D86557" d="M184.064,239.646c0.253,0.688-0.115,1.084,0.964,1.201C185.515,239.368,184.831,239.621,184.064,239.646
					"/>
			</g>
			<g>
				<path fill="#D86557" d="M184.322,232.03c0.257,0.684,0.428,1.137,1.281,1.335c0.482-1.479-0.199-1.221-1.109-0.883"/>
			</g>
			<g>
				<path fill="#D86557" d="M187.625,229.759c0.4,0.37,0.341,0.908,1.251,0.566c0.028-1.306-0.428-1.136-1.422-1.024"/>
			</g>
			<g>
				<path fill="#D86557" d="M190.979,235.247c-0.033,1.312,0.879,3.044,1.902,1.621c0.883-1.108-1.107-0.882-1.249-0.568"/>
			</g>
			<g>
				<path fill="#D86557" d="M193.247,242.7c0.314,0.14,0.258,0.682,0.571,0.825c-0.172-0.455-0.257-0.687-0.346-0.91
					c-0.313-0.146-0.68,0.255-0.369,0.395"/>
			</g>
			<g>
				<path fill="#D86557" d="M198.825,239.575c0.227-0.086,0.541,0.056,0.85,0.2c0.199-0.854-0.253-0.687-0.569-0.827"/>
			</g>
			<g>
				<path fill="#D86557" d="M197.348,230.788c0.4,0.364,0.341,0.91,1.026,0.655c0.339-1.172-0.114-1.002-0.737-1.281"/>
			</g>
			<g>
				<path fill="#D86557" d="M194.852,225.495c0.083,0.228,0.025,0.769,1.026,0.655c0.171-1.62-0.204-1.221-0.973-1.198"/>
			</g>
			<g>
				<path fill="#D86557" d="M197.68,248.305c-0.086-0.227-0.228,0.086,0.256,0.685c0.797-1.337,0.484-1.479-0.68-1.823
					c-0.371,0.396-0.059,0.543-0.201,0.854"/>
			</g>
			<g>
				<path fill="#D86557" d="M190.086,250.889c0.482,0.598,0.738,1.279,1.507,1.252c-0.257-0.683-0.257-0.683-0.742-1.281
					c-0.454,0.174-0.057,0.541-0.282,0.627"/>
			</g>
			<g>
				<path fill="#D86557" d="M197.307,257.008c0.938,0.428,1.278-0.74-0.629-0.287"/>
			</g>
			<g>
				<path fill="#D86557" d="M203.823,248.081c0.255,0.683-0.115,1.081,0.74,1.278c0.197-0.851,0.112-1.078-0.456-1.904
					c-0.312-0.145-0.37,0.396-0.37,0.396"/>
			</g>
			<g>
				<path fill="#D86557" d="M203.115,241.341c0.228-0.086,0.173,0.456,0.625,0.282c0.116-1.075-0.479-0.596-1.02-0.653"/>
			</g>
			<g>
				<path fill="#D86557" d="M202.353,235.141c0.396,0.369,0.342,0.91,1.249,0.57C203.348,235.027,202.664,235.283,202.353,235.141"
					/>
			</g>
			<g>
				<path fill="#D86557" d="M183.775,246.503c0.17,0.456-0.885,1.108,0.569,0.829c-0.656-1.055-0.259-0.686-1.251-0.573
					c-0.146,0.312,0.166,0.456,0.166,0.456"/>
			</g>
			<g>
				<path fill="#D86557" d="M185.818,254.043c0.711,0.514,0.425,1.137,1.333,0.796C186.585,254.011,186.672,254.242,185.818,254.043
					c-0.283,0.626,0.027,0.766,0.195,1.223"/>
			</g>
			<g>
				<path fill="#D86557" d="M176.948,244.907c0.232-0.084,0.399,0.368,0.628,0.286c-0.201-1.225-0.482-0.6-0.938-0.43"/>
			</g>
			<g>
				<path fill="#D86557" d="M174.708,238.225c0.313,0.14,0.257,0.683,1.166,0.34l-0.087-0.226l0,0
					c-0.624-0.287-0.767,0.024-1.305-0.03"/>
			</g>
			<g>
				<path fill="#D86557" d="M177.445,230.973c0.111,0.996,0.053,1.537,1.021,0.655c0.23-0.086,0.059-0.538,0.144-0.312
					c-0.855-0.2-1.224,0.194-0.996,0.109"/>
			</g>
			<g>
				<path fill="#D86557" d="M179.979,224.574c-0.145,0.316-0.768,0.032-0.284,0.627l0.225-0.085c0.37-0.398,0,0,0,0"/>
			</g>
			<g>
				<path fill="#D86557" d="M184.444,220.568c0.397,0.369,0.428,1.138,1.309,0.029l0,0c-0.084-0.227-0.541-0.056-0.627-0.285
					c-0.142,0.313,0.172,0.457,0.172,0.457"/>
			</g>
			<g>
				<path fill="#D86557" d="M193.688,216.85c0.09,0.228-0.822,0.566,0.258,0.682l-0.027-0.769c-0.767,0.028-0.541-0.054-0.315-0.139
					"/>
			</g>
		</g>
		<g>
			<g>
				<path fill="#D86557" d="M174.978,214.787c0.252,0.687-0.115,1.082,0.967,1.194C176.429,214.501,175.745,214.762,174.978,214.787
					"/>
			</g>
			<g>
				<path fill="#D86557" d="M175.235,207.168c0.258,0.68,0.428,1.138,1.281,1.337c0.48-1.482-0.2-1.225-1.109-0.886"/>
			</g>
			<g>
				<path fill="#D86557" d="M178.537,204.897c0.397,0.366,0.341,0.905,1.251,0.563c0.03-1.309-0.426-1.135-1.424-1.022"/>
			</g>
			<g>
				<path fill="#D86557" d="M181.889,210.384c-0.027,1.308,0.882,3.045,1.906,1.621c0.882-1.108-1.11-0.882-1.254-0.568"/>
			</g>
			<g>
				<path fill="#D86557" d="M184.159,217.835c0.315,0.144,0.257,0.685,0.567,0.826c-0.167-0.455-0.252-0.683-0.341-0.915
					c-0.312-0.137-0.68,0.259-0.368,0.401"/>
			</g>
			<g>
				<path fill="#D86557" d="M189.736,214.712c0.224-0.088,0.54,0.056,0.855,0.196c0.195-0.851-0.26-0.68-0.568-0.822"/>
			</g>
			<g>
				<path fill="#D86557" d="M188.265,205.924c0.396,0.37,0.341,0.91,1.021,0.653c0.341-1.163-0.111-0.995-0.736-1.28"/>
			</g>
			<g>
				<path fill="#D86557" d="M185.764,200.632c0.085,0.226,0.026,0.766,1.025,0.655c0.169-1.621-0.202-1.227-0.971-1.198"/>
			</g>
			<g>
				<path fill="#D86557" d="M188.593,223.44c-0.086-0.226-0.23,0.087,0.256,0.684c0.797-1.337,0.482-1.48-0.678-1.82
					c-0.373,0.398-0.06,0.54-0.205,0.852"/>
			</g>
			<g>
				<path fill="#D86557" d="M180.999,226.023c0.482,0.597,0.738,1.281,1.507,1.252c-0.256-0.683-0.256-0.683-0.738-1.278
					c-0.458,0.172-0.059,0.541-0.286,0.623"/>
			</g>
			<g>
				<path fill="#D86557" d="M188.217,232.141c0.94,0.428,1.281-0.734-0.626-0.279"/>
			</g>
			<g>
				<path fill="#D86557" d="M194.735,223.217c0.257,0.684-0.114,1.08,0.737,1.28c0.201-0.854,0.113-1.078-0.452-1.903
					c-0.312-0.142-0.371,0.397-0.371,0.397"/>
			</g>
			<g>
				<path fill="#D86557" d="M194.03,216.477c0.227-0.086,0.166,0.453,0.623,0.286c0.116-1.083-0.482-0.597-1.02-0.656"/>
			</g>
			<g>
				<path fill="#D86557" d="M193.264,210.278c0.397,0.369,0.339,0.908,1.256,0.568C194.263,210.164,193.577,210.42,193.264,210.278"
					/>
			</g>
			<g>
				<path fill="#D86557" d="M174.688,221.64c0.172,0.455-0.884,1.109,0.566,0.826c-0.652-1.052-0.255-0.682-1.248-0.57
					c-0.146,0.313,0.17,0.455,0.17,0.455"/>
			</g>
			<g>
				<path fill="#D86557" d="M176.729,229.18c0.712,0.508,0.427,1.137,1.337,0.795C177.498,229.15,177.582,229.375,176.729,229.18
					c-0.28,0.621,0.029,0.766,0.199,1.221"/>
			</g>
			<g>
				<path fill="#D86557" d="M167.861,220.045c0.232-0.087,0.401,0.369,0.628,0.284c-0.2-1.224-0.482-0.599-0.938-0.43"/>
			</g>
			<g>
				<path fill="#D86557" d="M165.621,213.358c0.314,0.142,0.253,0.685,1.165,0.343l-0.086-0.229l0,0
					c-0.625-0.283-0.765,0.028-1.308-0.025"/>
			</g>
			<g>
				<path fill="#D86557" d="M168.354,206.107c0.117,0.996,0.058,1.536,1.024,0.656c0.23-0.086,0.056-0.539,0.145-0.313
					c-0.853-0.198-1.225,0.197-0.998,0.115"/>
			</g>
			<g>
				<path fill="#D86557" d="M170.892,199.711c-0.144,0.312-0.771,0.028-0.285,0.628l0.227-0.086c0.37-0.398,0,0,0,0"/>
			</g>
			<g>
				<path fill="#D86557" d="M175.358,195.705c0.397,0.37,0.422,1.137,1.309,0.029l0,0c-0.084-0.229-0.541-0.058-0.627-0.284
					c-0.145,0.314,0.169,0.454,0.169,0.454"/>
			</g>
			<g>
				<path fill="#D86557" d="M184.603,191.985c0.088,0.224-0.824,0.568,0.257,0.684l-0.028-0.767
					c-0.767,0.024-0.541-0.061-0.315-0.143"/>
			</g>
		</g>
		<g>
			<g>
				<path fill="#D86557" d="M206.773,222.994c0.255,0.679-0.113,1.081,0.967,1.194C208.224,222.709,207.541,222.964,206.773,222.994
					"/>
			</g>
			<g>
				<path fill="#D86557" d="M207.034,215.37c0.256,0.683,0.427,1.139,1.28,1.341c0.482-1.481-0.199-1.225-1.109-0.884"/>
			</g>
			<g>
				<path fill="#D86557" d="M210.336,213.099c0.399,0.37,0.338,0.91,1.25,0.568c0.027-1.307-0.427-1.137-1.419-1.024"/>
			</g>
			<g>
				<path fill="#D86557" d="M213.688,218.59c-0.026,1.308,0.878,3.047,1.908,1.621c0.877-1.109-1.111-0.882-1.253-0.567"/>
			</g>
			<g>
				<path fill="#D86557" d="M215.958,226.041c0.312,0.145,0.256,0.682,0.568,0.827c-0.171-0.456-0.257-0.685-0.343-0.912
					c-0.312-0.142-0.682,0.257-0.367,0.397"/>
			</g>
			<g>
				<path fill="#D86557" d="M221.532,222.917c0.23-0.085,0.539,0.057,0.854,0.196c0.201-0.851-0.254-0.679-0.567-0.823"/>
			</g>
			<g>
				<path fill="#D86557" d="M220.06,214.128c0.4,0.371,0.339,0.91,1.023,0.655c0.341-1.164-0.11-0.994-0.737-1.278"/>
			</g>
			<g>
				<path fill="#D86557" d="M217.563,208.84c0.083,0.225,0.026,0.765,1.022,0.65c0.17-1.619-0.199-1.221-0.969-1.193"/>
			</g>
			<g>
				<path fill="#D86557" d="M220.391,231.648c-0.086-0.229-0.229,0.082,0.256,0.682c0.797-1.338,0.484-1.479-0.684-1.819
					c-0.365,0.396-0.054,0.538-0.198,0.851"/>
			</g>
			<g>
				<path fill="#D86557" d="M212.795,234.229c0.485,0.598,0.737,1.28,1.509,1.254c-0.256-0.686-0.256-0.686-0.739-1.281
					c-0.456,0.171-0.058,0.538-0.284,0.625"/>
			</g>
			<g>
				<path fill="#D86557" d="M220.014,240.35c0.938,0.428,1.283-0.738-0.624-0.283"/>
			</g>
			<g>
				<path fill="#D86557" d="M226.531,231.425c0.259,0.681-0.115,1.079,0.74,1.279c0.197-0.854,0.11-1.082-0.457-1.907
					c-0.308-0.143-0.369,0.396-0.369,0.396"/>
			</g>
			<g>
				<path fill="#D86557" d="M225.829,224.685c0.228-0.085,0.17,0.452,0.623,0.286c0.114-1.083-0.481-0.599-1.024-0.656"/>
			</g>
			<g>
				<path fill="#D86557" d="M225.063,218.482c0.397,0.373,0.343,0.911,1.251,0.567C226.059,218.369,225.375,218.628,225.063,218.482
					"/>
			</g>
			<g>
				<path fill="#D86557" d="M206.483,229.85c0.171,0.448-0.882,1.107,0.567,0.82c-0.649-1.052-0.252-0.684-1.247-0.568
					c-0.144,0.314,0.172,0.457,0.172,0.457"/>
			</g>
			<g>
				<path fill="#D86557" d="M208.527,237.384c0.714,0.513,0.423,1.138,1.336,0.796C209.296,237.355,209.381,237.583,208.527,237.384
					c-0.284,0.625,0.026,0.767,0.197,1.224"/>
			</g>
			<g>
				<path fill="#D86557" d="M199.662,228.251c0.227-0.088,0.396,0.369,0.627,0.282c-0.202-1.221-0.487-0.596-0.939-0.428"/>
			</g>
			<g>
				<path fill="#D86557" d="M197.417,221.564c0.314,0.142,0.255,0.684,1.168,0.34l-0.087-0.225l0,0
					c-0.625-0.284-0.767,0.026-1.308-0.028"/>
			</g>
			<g>
				<path fill="#D86557" d="M200.153,214.314c0.112,0.994,0.056,1.534,1.023,0.657c0.226-0.084,0.057-0.542,0.143-0.314
					c-0.854-0.2-1.226,0.197-1,0.115"/>
			</g>
			<g>
				<path fill="#D86557" d="M202.688,207.919c-0.146,0.312-0.769,0.028-0.284,0.623l0.228-0.085c0.372-0.396,0,0,0,0"/>
			</g>
			<g>
				<path fill="#D86557" d="M207.154,203.912c0.399,0.371,0.427,1.137,1.313,0.03l0,0c-0.089-0.231-0.543-0.06-0.628-0.286
					c-0.141,0.312,0.167,0.455,0.167,0.455"/>
			</g>
			<g>
				<path fill="#D86557" d="M216.399,200.19c0.084,0.229-0.825,0.567,0.253,0.685l-0.023-0.77c-0.77,0.03-0.544-0.056-0.313-0.145"
					/>
			</g>
		</g>
		<g>
			<g>
				<path fill="#D86557" d="M222.72,256.009c0.258,0.685-0.113,1.081,0.969,1.196C224.17,255.727,223.488,255.98,222.72,256.009"/>
			</g>
			<g>
				<path fill="#D86557" d="M222.98,248.386c0.256,0.687,0.426,1.14,1.275,1.339c0.485-1.479-0.192-1.22-1.105-0.882"/>
			</g>
			<g>
				<path fill="#D86557" d="M226.282,246.115c0.396,0.369,0.341,0.91,1.251,0.572c0.027-1.313-0.426-1.143-1.422-1.029"/>
			</g>
			<g>
				<path fill="#D86557" d="M229.632,251.605c-0.028,1.306,0.884,3.045,1.907,1.623c0.883-1.109-1.109-0.885-1.252-0.569"/>
			</g>
			<g>
				<path fill="#D86557" d="M231.907,259.059c0.311,0.144,0.252,0.684,0.565,0.827c-0.172-0.458-0.256-0.685-0.341-0.911
					c-0.317-0.144-0.682,0.254-0.371,0.397"/>
			</g>
			<g>
				<path fill="#D86557" d="M237.479,255.934c0.229-0.084,0.541,0.059,0.854,0.201c0.198-0.854-0.255-0.685-0.565-0.826"/>
			</g>
			<g>
				<path fill="#D86557" d="M236.003,247.146c0.401,0.369,0.347,0.908,1.024,0.652c0.345-1.163-0.11-0.994-0.737-1.277"/>
			</g>
			<g>
				<path fill="#D86557" d="M233.507,241.855c0.087,0.228,0.031,0.767,1.022,0.652c0.176-1.622-0.199-1.225-0.967-1.193"/>
			</g>
			<g>
				<path fill="#D86557" d="M236.337,264.662c-0.085-0.227-0.229,0.089,0.255,0.684c0.799-1.335,0.487-1.478-0.682-1.816
					c-0.373,0.394-0.057,0.537-0.2,0.85"/>
			</g>
			<g>
				<path fill="#D86557" d="M228.742,267.245c0.486,0.597,0.738,1.278,1.506,1.254c-0.256-0.683-0.256-0.683-0.737-1.28
					c-0.456,0.17-0.059,0.541-0.282,0.623"/>
			</g>
			<g>
				<path fill="#D86557" d="M235.962,273.365c0.937,0.428,1.28-0.736-0.627-0.285"/>
			</g>
			<g>
				<path fill="#D86557" d="M242.479,264.439c0.258,0.683-0.114,1.084,0.742,1.279c0.198-0.854,0.112-1.08-0.455-1.906
					c-0.313-0.142-0.371,0.399-0.371,0.399"/>
			</g>
			<g>
				<path fill="#D86557" d="M241.773,257.7c0.226-0.087,0.166,0.456,0.623,0.284c0.115-1.082-0.479-0.599-1.021-0.655"/>
			</g>
			<g>
				<path fill="#D86557" d="M241.009,251.5c0.397,0.371,0.341,0.909,1.249,0.573C242.002,251.389,241.322,251.639,241.009,251.5"/>
			</g>
			<g>
				<path fill="#D86557" d="M222.433,262.861c0.171,0.459-0.883,1.109,0.567,0.828c-0.653-1.056-0.257-0.685-1.25-0.571
					c-0.146,0.315,0.169,0.456,0.169,0.456"/>
			</g>
			<g>
				<path fill="#D86557" d="M224.478,270.398c0.709,0.516,0.422,1.139,1.333,0.799C225.24,270.371,225.329,270.6,224.478,270.398
					c-0.286,0.627,0.024,0.77,0.196,1.226"/>
			</g>
			<g>
				<path fill="#D86557" d="M215.606,261.268c0.229-0.086,0.401,0.367,0.626,0.284c-0.196-1.224-0.48-0.601-0.938-0.43"/>
			</g>
			<g>
				<path fill="#D86557" d="M213.364,254.583c0.313,0.142,0.257,0.683,1.166,0.344l-0.087-0.229l0,0
					c-0.623-0.285-0.767,0.027-1.306-0.027"/>
			</g>
			<g>
				<path fill="#D86557" d="M216.098,247.332c0.116,0.997,0.058,1.535,1.026,0.654c0.229-0.086,0.054-0.539,0.139-0.313
					c-0.849-0.199-1.22,0.195-0.993,0.112"/>
			</g>
			<g>
				<path fill="#D86557" d="M218.636,240.938c-0.143,0.313-0.769,0.024-0.283,0.625l0.224-0.086c0.371-0.397,0,0,0,0"/>
			</g>
			<g>
				<path fill="#D86557" d="M223.103,236.927c0.396,0.372,0.425,1.14,1.309,0.029l0,0c-0.087-0.226-0.542-0.058-0.627-0.285
					c-0.141,0.313,0.169,0.453,0.169,0.453"/>
			</g>
			<g>
				<path fill="#D86557" d="M232.346,233.209c0.084,0.229-0.824,0.566,0.26,0.684l-0.029-0.769c-0.77,0.026-0.541-0.06-0.314-0.146"
					/>
			</g>
		</g>
		<g>
			<g>
				<path fill="#D86557" d="M244.717,274.54c0.254,0.683-0.117,1.082,0.967,1.199C246.165,274.259,245.486,274.514,244.717,274.54"
					/>
			</g>
			<g>
				<path fill="#D86557" d="M244.979,266.92c0.252,0.684,0.422,1.141,1.273,1.339c0.487-1.481-0.195-1.222-1.105-0.883"/>
			</g>
			<g>
				<path fill="#D86557" d="M248.277,264.648c0.396,0.369,0.342,0.906,1.25,0.568c0.029-1.31-0.428-1.138-1.424-1.023"/>
			</g>
			<g>
				<path fill="#D86557" d="M251.629,270.141c-0.029,1.306,0.878,3.039,1.906,1.62c0.878-1.108-1.109-0.882-1.254-0.569"/>
			</g>
			<g>
				<path fill="#D86557" d="M253.898,277.593c0.313,0.14,0.256,0.679,0.566,0.823c-0.169-0.454-0.255-0.684-0.341-0.909
					c-0.313-0.144-0.683,0.255-0.369,0.396"/>
			</g>
			<g>
				<path fill="#D86557" d="M259.477,274.465c0.226-0.084,0.539,0.059,0.852,0.2c0.197-0.853-0.254-0.683-0.566-0.824"/>
			</g>
			<g>
				<path fill="#D86557" d="M258,265.677c0.396,0.37,0.342,0.91,1.023,0.654c0.342-1.163-0.11-0.995-0.738-1.279"/>
			</g>
			<g>
				<path fill="#D86557" d="M255.504,260.389c0.082,0.228,0.025,0.768,1.021,0.652c0.172-1.619-0.198-1.22-0.963-1.195"/>
			</g>
			<g>
				<path fill="#D86557" d="M258.328,283.198c-0.08-0.232-0.223,0.079,0.26,0.682c0.795-1.335,0.482-1.479-0.682-1.821
					c-0.371,0.397-0.061,0.539-0.199,0.854"/>
			</g>
			<g>
				<path fill="#D86557" d="M250.736,285.779c0.479,0.599,0.74,1.281,1.505,1.252c-0.252-0.686-0.252-0.686-0.736-1.28
					c-0.453,0.172-0.06,0.541-0.288,0.627"/>
			</g>
			<g>
				<path fill="#D86557" d="M257.959,291.898c0.936,0.426,1.277-0.738-0.628-0.282"/>
			</g>
			<g>
				<path fill="#D86557" d="M264.477,282.971c0.256,0.688-0.115,1.081,0.737,1.282c0.197-0.854,0.115-1.081-0.456-1.905
					c-0.313-0.142-0.371,0.398-0.371,0.398"/>
			</g>
			<g>
				<path fill="#D86557" d="M263.766,276.23c0.229-0.082,0.172,0.453,0.629,0.285c0.113-1.078-0.482-0.598-1.025-0.652"/>
			</g>
			<g>
				<path fill="#D86557" d="M263.006,270.032c0.396,0.37,0.342,0.907,1.249,0.569C263.998,269.921,263.318,270.177,263.006,270.032"
					/>
			</g>
			<g>
				<path fill="#D86557" d="M244.43,281.395c0.168,0.457-0.885,1.111,0.563,0.825c-0.653-1.051-0.251-0.683-1.25-0.567
					c-0.142,0.312,0.172,0.457,0.172,0.457"/>
			</g>
			<g>
				<path fill="#D86557" d="M246.466,288.932c0.714,0.519,0.431,1.142,1.339,0.799C247.236,288.902,247.323,289.132,246.466,288.932
					c-0.28,0.629,0.029,0.771,0.199,1.226"/>
			</g>
			<g>
				<path fill="#D86557" d="M237.602,279.799c0.229-0.085,0.398,0.37,0.627,0.284c-0.198-1.224-0.479-0.597-0.94-0.424"/>
			</g>
			<g>
				<path fill="#D86557" d="M235.357,273.117c0.314,0.141,0.257,0.682,1.168,0.338l-0.09-0.229l0,0
					c-0.621-0.283-0.764,0.03-1.305-0.027"/>
			</g>
			<g>
				<path fill="#D86557" d="M238.096,265.864c0.111,0.993,0.055,1.534,1.024,0.653c0.224-0.082,0.055-0.539,0.141-0.313
					c-0.854-0.199-1.225,0.201-0.995,0.114"/>
			</g>
			<g>
				<path fill="#D86557" d="M240.629,259.467c-0.141,0.313-0.77,0.027-0.281,0.628l0.227-0.088c0.367-0.397,0,0,0,0"/>
			</g>
			<g>
				<path fill="#D86557" d="M245.1,255.458c0.396,0.371,0.422,1.14,1.305,0.032l0,0c-0.081-0.229-0.54-0.062-0.623-0.286
					c-0.146,0.313,0.171,0.458,0.171,0.458"/>
			</g>
			<g>
				<path fill="#D86557" d="M254.342,251.74c0.085,0.228-0.824,0.566,0.252,0.685l-0.025-0.771
					c-0.768,0.029-0.541-0.055-0.313-0.141"/>
			</g>
		</g>
		<g>
			<g>
				<path fill="#D86557" d="M256.648,197.063c0.26,0.683-0.109,1.081,0.97,1.194C258.1,196.78,257.417,197.034,256.648,197.063"/>
			</g>
			<g>
				<path fill="#D86557" d="M256.912,189.443c0.256,0.682,0.422,1.135,1.277,1.335c0.482-1.478-0.198-1.223-1.107-0.882"/>
			</g>
			<g>
				<path fill="#D86557" d="M260.209,187.168c0.4,0.368,0.342,0.91,1.254,0.572c0.03-1.313-0.428-1.142-1.425-1.025"/>
			</g>
			<g>
				<path fill="#D86557" d="M263.563,192.655c-0.028,1.311,0.881,3.047,1.904,1.625c0.881-1.105-1.107-0.884-1.252-0.569"/>
			</g>
			<g>
				<path fill="#D86557" d="M265.834,200.111c0.311,0.142,0.256,0.68,0.566,0.824c-0.17-0.456-0.256-0.683-0.34-0.909
					c-0.313-0.142-0.684,0.256-0.367,0.395"/>
			</g>
			<g>
				<path fill="#D86557" d="M271.412,196.986c0.223-0.088,0.537,0.057,0.852,0.198c0.199-0.853-0.257-0.68-0.568-0.825"/>
			</g>
			<g>
				<path fill="#D86557" d="M269.938,188.197c0.397,0.371,0.338,0.914,1.021,0.654c0.342-1.164-0.115-0.995-0.738-1.278"/>
			</g>
			<g>
				<path fill="#D86557" d="M267.438,182.906c0.086,0.229,0.026,0.768,1.025,0.656c0.17-1.62-0.199-1.224-0.964-1.198"/>
			</g>
			<g>
				<path fill="#D86557" d="M270.264,205.718c-0.082-0.229-0.222,0.085,0.26,0.682c0.8-1.335,0.482-1.479-0.684-1.821
					c-0.369,0.398-0.057,0.538-0.199,0.851"/>
			</g>
			<g>
				<path fill="#D86557" d="M262.671,208.305c0.485,0.591,0.741,1.276,1.505,1.249c-0.253-0.687-0.253-0.687-0.732-1.281
					c-0.457,0.172-0.064,0.539-0.286,0.623"/>
			</g>
			<g>
				<path fill="#D86557" d="M269.891,214.418c0.938,0.431,1.282-0.737-0.623-0.283"/>
			</g>
			<g>
				<path fill="#D86557" d="M276.408,205.492c0.259,0.684-0.111,1.083,0.74,1.28c0.199-0.853,0.11-1.078-0.455-1.905
					c-0.313-0.143-0.369,0.399-0.369,0.399"/>
			</g>
			<g>
				<path fill="#D86557" d="M275.703,198.754c0.229-0.087,0.169,0.452,0.625,0.282c0.115-1.079-0.486-0.596-1.023-0.653"/>
			</g>
			<g>
				<path fill="#D86557" d="M274.939,192.554c0.396,0.367,0.338,0.91,1.25,0.566C275.936,192.438,275.254,192.695,274.939,192.554"
					/>
			</g>
			<g>
				<path fill="#D86557" d="M256.363,203.915c0.172,0.457-0.887,1.109,0.566,0.826c-0.652-1.052-0.257-0.682-1.253-0.571
					c-0.142,0.315,0.169,0.458,0.169,0.458"/>
			</g>
			<g>
				<path fill="#D86557" d="M258.404,211.453c0.712,0.514,0.429,1.138,1.335,0.799C259.172,211.426,259.257,211.655,258.404,211.453
					c-0.285,0.63,0.027,0.768,0.197,1.225"/>
			</g>
			<g>
				<path fill="#D86557" d="M249.534,202.319c0.229-0.084,0.399,0.371,0.627,0.283c-0.197-1.222-0.479-0.597-0.937-0.428"/>
			</g>
			<g>
				<path fill="#D86557" d="M247.296,195.636c0.313,0.14,0.254,0.683,1.163,0.342l-0.083-0.23l0,0
					c-0.626-0.282-0.769,0.028-1.312-0.025"/>
			</g>
			<g>
				<path fill="#D86557" d="M250.033,188.384c0.107,0.993,0.052,1.536,1.021,0.655c0.223-0.087,0.057-0.541,0.141-0.31
					c-0.85-0.202-1.221,0.196-0.994,0.11"/>
			</g>
			<g>
				<path fill="#D86557" d="M252.566,181.987c-0.146,0.312-0.771,0.027-0.289,0.627l0.228-0.085c0.37-0.399,0,0,0,0"/>
			</g>
			<g>
				<path fill="#D86557" d="M257.033,177.98c0.396,0.372,0.422,1.139,1.306,0.029l0,0c-0.087-0.229-0.537-0.057-0.624-0.283
					c-0.145,0.309,0.168,0.454,0.168,0.454"/>
			</g>
			<g>
				<path fill="#D86557" d="M266.277,174.261c0.084,0.229-0.828,0.568,0.256,0.684l-0.03-0.771c-0.769,0.027-0.54-0.055-0.312-0.142
					"/>
			</g>
		</g>
		<g>
			<g>
				<path fill="#D86557" d="M202.296,189.649c0.257,0.684-0.114,1.081,0.97,1.194C203.746,189.367,203.065,189.623,202.296,189.649"
					/>
			</g>
			<g>
				<path fill="#D86557" d="M202.56,182.03c0.252,0.684,0.428,1.137,1.276,1.335c0.485-1.478-0.197-1.223-1.11-0.882"/>
			</g>
			<g>
				<path fill="#D86557" d="M205.857,179.758c0.397,0.369,0.342,0.909,1.25,0.57c0.029-1.312-0.428-1.14-1.421-1.028"/>
			</g>
			<g>
				<path fill="#D86557" d="M209.208,185.245c-0.026,1.311,0.882,3.047,1.906,1.621c0.882-1.105-1.108-0.879-1.254-0.564"/>
			</g>
			<g>
				<path fill="#D86557" d="M211.481,192.699c0.311,0.143,0.252,0.681,0.564,0.824c-0.168-0.454-0.254-0.682-0.337-0.908
					c-0.314-0.142-0.684,0.255-0.368,0.399"/>
			</g>
			<g>
				<path fill="#D86557" d="M217.057,189.573c0.227-0.08,0.539,0.057,0.853,0.2c0.198-0.853-0.258-0.682-0.57-0.827"/>
			</g>
			<g>
				<path fill="#D86557" d="M215.585,180.786c0.396,0.368,0.341,0.912,1.018,0.655c0.346-1.165-0.11-0.998-0.737-1.28"/>
			</g>
			<g>
				<path fill="#D86557" d="M213.082,175.496c0.087,0.226,0.026,0.769,1.024,0.651c0.171-1.619-0.2-1.219-0.969-1.192"/>
			</g>
			<g>
				<path fill="#D86557" d="M215.914,198.304c-0.084-0.228-0.231,0.084,0.252,0.683c0.799-1.336,0.486-1.479-0.682-1.821
					c-0.366,0.4-0.056,0.541-0.196,0.854"/>
			</g>
			<g>
				<path fill="#D86557" d="M208.314,200.888c0.486,0.597,0.741,1.281,1.509,1.254c-0.253-0.683-0.253-0.683-0.737-1.284
					c-0.457,0.174-0.058,0.54-0.285,0.627"/>
			</g>
			<g>
				<path fill="#D86557" d="M215.537,207.006c0.936,0.427,1.28-0.739-0.625-0.283"/>
			</g>
			<g>
				<path fill="#D86557" d="M222.056,198.081c0.255,0.681-0.116,1.081,0.738,1.283c0.199-0.854,0.112-1.084-0.454-1.91
					c-0.312-0.143-0.37,0.401-0.37,0.401"/>
			</g>
			<g>
				<path fill="#D86557" d="M221.351,191.341c0.225-0.087,0.166,0.453,0.627,0.284c0.109-1.079-0.488-0.597-1.025-0.655"/>
			</g>
			<g>
				<path fill="#D86557" d="M220.585,185.139c0.4,0.373,0.341,0.91,1.251,0.573C221.578,185.025,220.896,185.282,220.585,185.139"/>
			</g>
			<g>
				<path fill="#D86557" d="M202.007,196.505c0.172,0.457-0.882,1.108,0.571,0.825c-0.655-1.051-0.26-0.685-1.254-0.569
					c-0.143,0.313,0.171,0.454,0.171,0.454"/>
			</g>
			<g>
				<path fill="#D86557" d="M204.049,204.041c0.712,0.514,0.427,1.139,1.334,0.796C204.816,204.014,204.904,204.24,204.049,204.041
					c-0.282,0.628,0.029,0.77,0.2,1.223"/>
			</g>
			<g>
				<path fill="#D86557" d="M195.186,194.906c0.226-0.084,0.397,0.372,0.623,0.284c-0.195-1.224-0.482-0.596-0.938-0.427"/>
			</g>
			<g>
				<path fill="#D86557" d="M192.939,188.226c0.316,0.139,0.258,0.684,1.167,0.341l-0.082-0.229l0,0
					c-0.628-0.283-0.769,0.027-1.313-0.03"/>
			</g>
			<g>
				<path fill="#D86557" d="M195.674,180.975c0.115,0.993,0.057,1.535,1.024,0.656c0.226-0.087,0.056-0.543,0.142-0.316
					c-0.852-0.2-1.222,0.197-0.994,0.113"/>
			</g>
			<g>
				<path fill="#D86557" d="M198.212,174.575c-0.144,0.313-0.772,0.028-0.287,0.625l0.229-0.083c0.369-0.398,0,0,0,0"/>
			</g>
			<g>
				<path fill="#D86557" d="M202.677,170.57c0.399,0.367,0.427,1.135,1.31,0.027l0,0c-0.085-0.228-0.541-0.058-0.628-0.286
					c-0.139,0.314,0.172,0.456,0.172,0.456"/>
			</g>
			<g>
				<path fill="#D86557" d="M211.923,166.85c0.084,0.228-0.825,0.566,0.254,0.684l-0.026-0.77c-0.771,0.027-0.541-0.057-0.314-0.142
					"/>
			</g>
		</g>
		<g>
			<g>
				<path fill="#D86557" d="M227.732,180.675c0.254,0.686-0.115,1.08,0.963,1.193C229.184,180.394,228.5,180.649,227.732,180.675"/>
			</g>
			<g>
				<path fill="#D86557" d="M227.995,173.054c0.252,0.68,0.423,1.139,1.274,1.339c0.486-1.482-0.195-1.225-1.107-0.883"/>
			</g>
			<g>
				<path fill="#D86557" d="M231.293,170.78c0.398,0.372,0.341,0.912,1.252,0.571c0.025-1.309-0.425-1.139-1.424-1.026"/>
			</g>
			<g>
				<path fill="#D86557" d="M234.646,176.27c-0.032,1.308,0.879,3.047,1.905,1.625c0.882-1.109-1.108-0.883-1.253-0.568"/>
			</g>
			<g>
				<path fill="#D86557" d="M236.913,183.726c0.315,0.143,0.261,0.682,0.575,0.824c-0.176-0.455-0.26-0.682-0.346-0.912
					c-0.313-0.141-0.684,0.259-0.371,0.4"/>
			</g>
			<g>
				<path fill="#D86557" d="M242.492,180.6c0.229-0.086,0.54,0.059,0.854,0.2c0.198-0.854-0.256-0.683-0.568-0.826"/>
			</g>
			<g>
				<path fill="#D86557" d="M241.02,171.812c0.397,0.37,0.342,0.911,1.023,0.653c0.34-1.165-0.113-0.996-0.738-1.276"/>
			</g>
			<g>
				<path fill="#D86557" d="M238.521,166.521c0.082,0.227,0.025,0.769,1.021,0.653c0.172-1.619-0.199-1.225-0.966-1.193"/>
			</g>
			<g>
				<path fill="#D86557" d="M241.348,189.33c-0.086-0.228-0.227,0.083,0.254,0.682c0.801-1.336,0.486-1.476-0.68-1.819
					c-0.367,0.397-0.057,0.54-0.199,0.854"/>
			</g>
			<g>
				<path fill="#D86557" d="M233.754,191.914c0.482,0.593,0.738,1.276,1.506,1.252c-0.257-0.684-0.257-0.684-0.738-1.282
					c-0.457,0.169-0.06,0.541-0.285,0.623"/>
			</g>
			<g>
				<path fill="#D86557" d="M240.973,198.031c0.939,0.428,1.285-0.736-0.625-0.282"/>
			</g>
			<g>
				<path fill="#D86557" d="M247.493,189.106c0.257,0.683-0.115,1.077,0.739,1.277c0.195-0.853,0.11-1.077-0.459-1.904
					c-0.311-0.137-0.369,0.399-0.369,0.399"/>
			</g>
			<g>
				<path fill="#D86557" d="M246.783,182.364c0.229-0.083,0.172,0.455,0.628,0.286c0.114-1.081-0.481-0.598-1.024-0.656"/>
			</g>
			<g>
				<path fill="#D86557" d="M246.02,176.167c0.401,0.368,0.344,0.909,1.252,0.57C247.018,176.054,246.335,176.307,246.02,176.167"/>
			</g>
			<g>
				<path fill="#D86557" d="M227.441,187.528c0.172,0.454-0.877,1.109,0.568,0.826c-0.652-1.054-0.252-0.683-1.251-0.569
					c-0.141,0.314,0.173,0.453,0.173,0.453"/>
			</g>
			<g>
				<path fill="#D86557" d="M229.488,195.067c0.709,0.513,0.426,1.139,1.336,0.797C230.255,195.037,230.341,195.268,229.488,195.067
					c-0.286,0.626,0.025,0.769,0.193,1.223"/>
			</g>
			<g>
				<path fill="#D86557" d="M220.616,185.933c0.23-0.086,0.401,0.372,0.628,0.285c-0.2-1.225-0.483-0.598-0.935-0.428"/>
			</g>
			<g>
				<path fill="#D86557" d="M218.376,179.247c0.315,0.141,0.255,0.683,1.166,0.343l-0.082-0.229l0,0
					c-0.628-0.285-0.769,0.026-1.312-0.029"/>
			</g>
			<g>
				<path fill="#D86557" d="M221.11,171.999c0.118,0.994,0.06,1.534,1.025,0.652c0.229-0.083,0.057-0.539,0.143-0.312
					c-0.854-0.198-1.221,0.198-0.994,0.117"/>
			</g>
			<g>
				<path fill="#D86557" d="M223.65,165.599c-0.145,0.314-0.771,0.029-0.285,0.628l0.221-0.083c0.371-0.401,0,0,0,0"/>
			</g>
			<g>
				<path fill="#D86557" d="M228.117,161.593c0.395,0.37,0.422,1.139,1.305,0.031l0,0c-0.082-0.227-0.541-0.059-0.623-0.287
					c-0.146,0.314,0.17,0.459,0.17,0.459"/>
			</g>
			<g>
				<path fill="#D86557" d="M237.359,157.875c0.086,0.226-0.825,0.568,0.257,0.682l-0.03-0.768c-0.766,0.025-0.538-0.06-0.314-0.144
					"/>
			</g>
		</g>
		<g>
			<g>
				<path fill="#D86557" d="M203.54,262.604c0.256,0.68-0.114,1.076,0.968,1.194C204.99,262.316,204.309,262.575,203.54,262.604"/>
			</g>
			<g>
				<path fill="#D86557" d="M203.803,254.98c0.253,0.682,0.427,1.137,1.276,1.338c0.487-1.479-0.199-1.225-1.105-0.883"/>
			</g>
			<g>
				<path fill="#D86557" d="M207.104,252.709c0.394,0.367,0.338,0.908,1.246,0.566c0.033-1.308-0.426-1.14-1.42-1.021"/>
			</g>
			<g>
				<path fill="#D86557" d="M210.455,258.196c-0.03,1.313,0.88,3.047,1.901,1.625c0.884-1.108-1.108-0.884-1.249-0.571"/>
			</g>
			<g>
				<path fill="#D86557" d="M212.725,265.65c0.313,0.143,0.257,0.681,0.568,0.826c-0.17-0.459-0.256-0.685-0.342-0.91
					c-0.313-0.146-0.686,0.255-0.37,0.396"/>
			</g>
			<g>
				<path fill="#D86557" d="M218.302,262.525c0.225-0.084,0.537,0.059,0.852,0.201c0.201-0.854-0.256-0.684-0.567-0.828"/>
			</g>
			<g>
				<path fill="#D86557" d="M216.827,253.74c0.396,0.369,0.339,0.906,1.023,0.652c0.341-1.168-0.113-0.996-0.74-1.283"/>
			</g>
			<g>
				<path fill="#D86557" d="M214.328,248.445c0.084,0.229,0.029,0.767,1.022,0.656c0.173-1.623-0.197-1.228-0.966-1.194"/>
			</g>
			<g>
				<path fill="#D86557" d="M217.159,271.257c-0.085-0.229-0.229,0.082,0.252,0.683c0.798-1.338,0.485-1.48-0.68-1.821
					c-0.37,0.397-0.06,0.543-0.199,0.854"/>
			</g>
			<g>
				<path fill="#D86557" d="M209.561,273.838c0.482,0.598,0.74,1.28,1.511,1.255c-0.256-0.684-0.256-0.684-0.739-1.278
					c-0.457,0.164-0.059,0.537-0.289,0.621"/>
			</g>
			<g>
				<path fill="#D86557" d="M216.782,279.955c0.938,0.43,1.278-0.735-0.626-0.284"/>
			</g>
			<g>
				<path fill="#D86557" d="M223.299,271.033c0.255,0.68-0.112,1.081,0.74,1.275c0.198-0.85,0.111-1.076-0.454-1.902
					c-0.312-0.146-0.369,0.395-0.369,0.395"/>
			</g>
			<g>
				<path fill="#D86557" d="M222.592,264.292c0.23-0.085,0.172,0.453,0.628,0.286c0.114-1.082-0.485-0.598-1.022-0.656"/>
			</g>
			<g>
				<path fill="#D86557" d="M221.828,258.091c0.399,0.369,0.341,0.912,1.253,0.569C222.822,257.979,222.141,258.23,221.828,258.091"
					/>
			</g>
			<g>
				<path fill="#D86557" d="M203.252,269.454c0.17,0.457-0.883,1.108,0.568,0.827c-0.65-1.053-0.254-0.686-1.252-0.572
					c-0.14,0.314,0.171,0.457,0.171,0.457"/>
			</g>
			<g>
				<path fill="#D86557" d="M205.296,276.993c0.707,0.514,0.427,1.137,1.334,0.796C206.063,276.964,206.148,277.191,205.296,276.993
					c-0.286,0.623,0.028,0.766,0.196,1.224"/>
			</g>
			<g>
				<path fill="#D86557" d="M196.429,267.859c0.227-0.086,0.397,0.367,0.624,0.281c-0.195-1.222-0.482-0.597-0.938-0.426"/>
			</g>
			<g>
				<path fill="#D86557" d="M194.185,261.175c0.312,0.14,0.257,0.683,1.166,0.343l-0.084-0.227l0,0
					c-0.626-0.287-0.771,0.023-1.309-0.033"/>
			</g>
			<g>
				<path fill="#D86557" d="M196.921,253.927c0.112,0.993,0.054,1.531,1.02,0.651c0.228-0.084,0.059-0.538,0.146-0.313
					c-0.854-0.199-1.223,0.198-0.998,0.111"/>
			</g>
			<g>
				<path fill="#D86557" d="M199.455,247.525c-0.141,0.313-0.768,0.026-0.287,0.623l0.231-0.082c0.37-0.397,0,0,0,0"/>
			</g>
			<g>
				<path fill="#D86557" d="M203.921,243.518c0.4,0.373,0.427,1.142,1.309,0.031l0,0c-0.084-0.229-0.538-0.055-0.627-0.283
					c-0.14,0.313,0.172,0.454,0.172,0.454"/>
			</g>
			<g>
				<path fill="#D86557" d="M213.169,239.8c0.082,0.228-0.827,0.567,0.254,0.683l-0.026-0.768c-0.77,0.028-0.544-0.059-0.314-0.144"
					/>
			</g>
		</g>
		<g>
			<g>
				<path fill="#D86557" d="M245.016,242.895c0.256,0.682-0.113,1.08,0.967,1.192C246.466,242.607,245.784,242.867,245.016,242.895"
					/>
			</g>
			<g>
				<path fill="#D86557" d="M245.273,235.27c0.258,0.685,0.428,1.138,1.281,1.338c0.484-1.479-0.197-1.223-1.106-0.881"/>
			</g>
			<g>
				<path fill="#D86557" d="M248.576,232.998c0.398,0.371,0.341,0.912,1.25,0.568c0.031-1.309-0.424-1.139-1.422-1.023"/>
			</g>
			<g>
				<path fill="#D86557" d="M251.932,238.488c-0.031,1.307,0.879,3.041,1.902,1.621c0.883-1.108-1.109-0.883-1.251-0.566"/>
			</g>
			<g>
				<path fill="#D86557" d="M254.201,245.941c0.308,0.141,0.252,0.681,0.563,0.822c-0.164-0.451-0.255-0.683-0.337-0.908
					c-0.312-0.144-0.686,0.254-0.368,0.396"/>
			</g>
			<g>
				<path fill="#D86557" d="M259.777,242.814c0.225-0.082,0.537,0.062,0.852,0.201c0.2-0.854-0.256-0.684-0.568-0.826"/>
			</g>
			<g>
				<path fill="#D86557" d="M258.305,234.029c0.396,0.367,0.34,0.91,1.021,0.652c0.342-1.166-0.115-0.998-0.738-1.281"/>
			</g>
			<g>
				<path fill="#D86557" d="M255.802,228.736c0.085,0.229,0.029,0.767,1.024,0.654c0.171-1.623-0.2-1.224-0.967-1.197"/>
			</g>
			<g>
				<path fill="#D86557" d="M258.63,251.548c-0.085-0.229-0.226,0.083,0.257,0.681c0.799-1.336,0.481-1.475-0.678-1.821
					c-0.372,0.401-0.061,0.544-0.201,0.853"/>
			</g>
			<g>
				<path fill="#D86557" d="M251.037,254.129c0.486,0.6,0.738,1.283,1.506,1.253c-0.254-0.682-0.254-0.682-0.738-1.28
					c-0.453,0.17-0.055,0.539-0.279,0.627"/>
			</g>
			<g>
				<path fill="#D86557" d="M258.258,260.245c0.938,0.429,1.279-0.736-0.625-0.285"/>
			</g>
			<g>
				<path fill="#D86557" d="M264.775,251.32c0.254,0.684-0.115,1.082,0.738,1.279c0.198-0.851,0.113-1.076-0.455-1.902
					c-0.313-0.146-0.371,0.396-0.371,0.396"/>
			</g>
			<g>
				<path fill="#D86557" d="M264.066,244.582c0.229-0.083,0.172,0.456,0.629,0.284c0.113-1.081-0.482-0.599-1.027-0.653"/>
			</g>
			<g>
				<path fill="#D86557" d="M263.305,238.382c0.398,0.37,0.34,0.91,1.25,0.567C264.302,238.271,263.616,238.521,263.305,238.382"/>
			</g>
			<g>
				<path fill="#D86557" d="M244.729,249.745c0.17,0.455-0.885,1.108,0.568,0.825c-0.654-1.053-0.256-0.682-1.253-0.568
					c-0.14,0.314,0.172,0.451,0.172,0.451"/>
			</g>
			<g>
				<path fill="#D86557" d="M246.77,257.283c0.711,0.515,0.424,1.138,1.334,0.797C247.539,257.256,247.621,257.484,246.77,257.283
					c-0.283,0.625,0.028,0.769,0.198,1.224"/>
			</g>
			<g>
				<path fill="#D86557" d="M237.902,248.148c0.229-0.086,0.398,0.371,0.627,0.283c-0.201-1.223-0.483-0.597-0.939-0.428"/>
			</g>
			<g>
				<path fill="#D86557" d="M235.66,241.467c0.313,0.139,0.256,0.682,1.166,0.336l-0.084-0.225l0,0
					c-0.626-0.283-0.771,0.025-1.309-0.029"/>
			</g>
			<g>
				<path fill="#D86557" d="M238.396,234.214c0.112,0.994,0.055,1.535,1.021,0.653c0.227-0.082,0.057-0.536,0.141-0.313
					c-0.851-0.197-1.221,0.196-0.994,0.114"/>
			</g>
			<g>
				<path fill="#D86557" d="M240.93,227.814c-0.141,0.313-0.768,0.029-0.285,0.625l0.228-0.082c0.37-0.399,0,0,0,0"/>
			</g>
			<g>
				<path fill="#D86557" d="M245.396,223.811c0.397,0.368,0.428,1.134,1.309,0.026l0,0c-0.084-0.228-0.54-0.055-0.623-0.284
					c-0.145,0.313,0.168,0.458,0.168,0.458"/>
			</g>
			<g>
				<path fill="#D86557" d="M254.645,220.089c0.084,0.228-0.826,0.57,0.254,0.686l-0.026-0.772c-0.771,0.033-0.543-0.056-0.313-0.14
					"/>
			</g>
		</g>
		<g>
			<g>
				<path fill="#D86557" d="M234.169,211.007c0.256,0.682-0.114,1.078,0.972,1.193C235.621,210.723,234.939,210.978,234.169,211.007
					"/>
			</g>
			<g>
				<path fill="#D86557" d="M234.434,203.383c0.252,0.683,0.424,1.141,1.276,1.34c0.483-1.48-0.196-1.226-1.11-0.885"/>
			</g>
			<g>
				<path fill="#D86557" d="M237.73,201.111c0.399,0.369,0.342,0.909,1.254,0.569c0.029-1.309-0.428-1.136-1.424-1.025"/>
			</g>
			<g>
				<path fill="#D86557" d="M241.084,206.603c-0.029,1.308,0.88,3.045,1.902,1.622c0.884-1.107-1.106-0.881-1.25-0.568"/>
			</g>
			<g>
				<path fill="#D86557" d="M243.352,214.054c0.314,0.141,0.26,0.684,0.57,0.828c-0.17-0.456-0.256-0.688-0.344-0.913
					c-0.313-0.143-0.682,0.257-0.368,0.398"/>
			</g>
			<g>
				<path fill="#D86557" d="M248.932,210.931c0.226-0.084,0.539,0.058,0.853,0.198c0.196-0.851-0.255-0.681-0.566-0.826"/>
			</g>
			<g>
				<path fill="#D86557" d="M247.456,202.144c0.397,0.366,0.343,0.908,1.024,0.652c0.346-1.168-0.114-0.994-0.737-1.278"/>
			</g>
			<g>
				<path fill="#D86557" d="M244.956,196.85c0.085,0.229,0.03,0.769,1.024,0.656c0.174-1.623-0.196-1.225-0.965-1.194"/>
			</g>
			<g>
				<path fill="#D86557" d="M247.789,219.66c-0.085-0.228-0.227,0.085,0.251,0.683c0.804-1.333,0.485-1.478-0.679-1.819
					c-0.37,0.397-0.055,0.538-0.2,0.849"/>
			</g>
			<g>
				<path fill="#D86557" d="M240.195,222.242c0.48,0.598,0.734,1.28,1.505,1.252c-0.259-0.682-0.259-0.682-0.736-1.278
					c-0.456,0.17-0.06,0.541-0.287,0.624"/>
			</g>
			<g>
				<path fill="#D86557" d="M247.411,228.359c0.938,0.43,1.28-0.739-0.628-0.282"/>
			</g>
			<g>
				<path fill="#D86557" d="M253.932,219.436c0.254,0.684-0.113,1.081,0.738,1.28c0.201-0.854,0.116-1.081-0.456-1.906
					c-0.312-0.143-0.37,0.399-0.37,0.399"/>
			</g>
			<g>
				<path fill="#D86557" d="M253.225,212.697c0.227-0.085,0.17,0.453,0.625,0.284c0.115-1.081-0.482-0.597-1.022-0.655"/>
			</g>
			<g>
				<path fill="#D86557" d="M252.458,206.495c0.397,0.372,0.341,0.911,1.25,0.57C253.457,206.383,252.771,206.639,252.458,206.495"
					/>
			</g>
			<g>
				<path fill="#D86557" d="M233.881,217.857c0.174,0.455-0.882,1.108,0.568,0.829c-0.653-1.053-0.254-0.687-1.251-0.572
					c-0.142,0.313,0.171,0.455,0.171,0.455"/>
			</g>
			<g>
				<path fill="#D86557" d="M235.926,225.396c0.708,0.513,0.424,1.139,1.336,0.801C236.693,225.37,236.777,225.596,235.926,225.396
					c-0.283,0.627,0.023,0.771,0.197,1.224"/>
			</g>
			<g>
				<path fill="#D86557" d="M227.059,216.262c0.228-0.083,0.398,0.373,0.625,0.283c-0.197-1.219-0.482-0.596-0.937-0.425"/>
			</g>
			<g>
				<path fill="#D86557" d="M224.813,209.577c0.316,0.144,0.258,0.685,1.166,0.344l-0.086-0.227l0,0
					c-0.623-0.288-0.764,0.026-1.306-0.03"/>
			</g>
			<g>
				<path fill="#D86557" d="M227.553,202.327c0.11,0.997,0.053,1.537,1.022,0.652c0.226-0.084,0.054-0.537,0.141-0.311
					c-0.854-0.197-1.221,0.201-0.999,0.116"/>
			</g>
			<g>
				<path fill="#D86557" d="M230.085,195.932c-0.144,0.311-0.769,0.028-0.28,0.623l0.225-0.082c0.369-0.401,0,0,0,0"/>
			</g>
			<g>
				<path fill="#D86557" d="M234.557,191.925c0.393,0.369,0.42,1.137,1.305,0.028l0,0c-0.086-0.229-0.539-0.059-0.623-0.286
					c-0.146,0.313,0.168,0.457,0.168,0.457"/>
			</g>
			<g>
				<path fill="#D86557" d="M243.798,188.206c0.085,0.226-0.825,0.567,0.257,0.682l-0.029-0.77
					c-0.765,0.029-0.541-0.056-0.313-0.142"/>
			</g>
		</g>
		<g>
			<g>
				<path fill="#D86557" d="M272.412,230.905c0.253,0.685-0.113,1.079,0.971,1.194C273.864,230.622,273.182,230.878,272.412,230.905
					"/>
			</g>
			<g>
				<path fill="#D86557" d="M272.673,223.286c0.257,0.68,0.427,1.137,1.284,1.335c0.482-1.479-0.201-1.225-1.113-0.882"/>
			</g>
			<g>
				<path fill="#D86557" d="M275.975,221.009c0.397,0.374,0.342,0.914,1.25,0.571c0.03-1.311-0.428-1.137-1.422-1.024"/>
			</g>
			<g>
				<path fill="#D86557" d="M279.328,226.503c-0.029,1.31,0.878,3.039,1.904,1.62c0.881-1.105-1.109-0.881-1.256-0.572"/>
			</g>
			<g>
				<path fill="#D86557" d="M281.598,233.953c0.313,0.143,0.254,0.682,0.566,0.827c-0.172-0.454-0.253-0.686-0.338-0.912
					c-0.316-0.142-0.684,0.257-0.373,0.397"/>
			</g>
			<g>
				<path fill="#D86557" d="M287.172,230.83c0.229-0.089,0.54,0.056,0.852,0.199c0.203-0.854-0.254-0.682-0.563-0.826"/>
			</g>
			<g>
				<path fill="#D86557" d="M285.697,222.042c0.398,0.37,0.346,0.909,1.025,0.651c0.342-1.163-0.113-0.992-0.742-1.279"/>
			</g>
			<g>
				<path fill="#D86557" d="M283.2,216.749c0.084,0.227,0.03,0.768,1.022,0.654c0.172-1.622-0.199-1.223-0.97-1.196"/>
			</g>
			<g>
				<path fill="#D86557" d="M286.033,239.561c-0.092-0.228-0.23,0.084,0.252,0.682c0.797-1.335,0.482-1.479-0.68-1.821
					c-0.371,0.401-0.061,0.542-0.201,0.854"/>
			</g>
			<g>
				<path fill="#D86557" d="M278.438,242.145c0.48,0.594,0.732,1.279,1.506,1.25c-0.256-0.681-0.256-0.681-0.742-1.28
					c-0.452,0.173-0.057,0.541-0.282,0.624"/>
			</g>
			<g>
				<path fill="#D86557" d="M285.656,248.262c0.937,0.43,1.277-0.738-0.627-0.285"/>
			</g>
			<g>
				<path fill="#D86557" d="M292.172,239.337c0.256,0.681-0.115,1.079,0.737,1.279c0.2-0.854,0.116-1.079-0.452-1.904
					c-0.311-0.144-0.371,0.396-0.371,0.396"/>
			</g>
			<g>
				<path fill="#D86557" d="M291.467,232.596c0.227-0.086,0.172,0.452,0.621,0.284c0.117-1.082-0.479-0.596-1.02-0.655"/>
			</g>
			<g>
				<path fill="#D86557" d="M290.701,226.395c0.396,0.369,0.341,0.912,1.253,0.569C291.698,226.282,291.014,226.538,290.701,226.395
					"/>
			</g>
			<g>
				<path fill="#D86557" d="M272.123,237.758c0.172,0.457-0.881,1.108,0.57,0.824c-0.654-1.051-0.256-0.68-1.25-0.568
					c-0.147,0.314,0.17,0.455,0.17,0.455"/>
			</g>
			<g>
				<path fill="#D86557" d="M274.166,245.296c0.712,0.511,0.428,1.138,1.336,0.797C274.936,245.27,275.02,245.496,274.166,245.296
					c-0.282,0.628,0.027,0.771,0.197,1.226"/>
			</g>
			<g>
				<path fill="#D86557" d="M265.301,236.161c0.229-0.085,0.395,0.368,0.626,0.284c-0.196-1.223-0.483-0.596-0.938-0.426"/>
			</g>
			<g>
				<path fill="#D86557" d="M263.061,229.479c0.313,0.142,0.254,0.685,1.166,0.34l-0.09-0.229l0,0
					c-0.625-0.282-0.764,0.031-1.309-0.026"/>
			</g>
			<g>
				<path fill="#D86557" d="M265.791,222.229c0.111,0.992,0.057,1.533,1.023,0.654c0.229-0.09,0.058-0.543,0.143-0.313
					c-0.85-0.198-1.223,0.198-0.994,0.115"/>
			</g>
			<g>
				<path fill="#D86557" d="M268.328,215.829c-0.145,0.315-0.771,0.03-0.286,0.628l0.229-0.088c0.369-0.396,0,0,0,0"/>
			</g>
			<g>
				<path fill="#D86557" d="M272.794,211.823c0.399,0.372,0.429,1.137,1.31,0.029l0,0c-0.088-0.228-0.541-0.055-0.627-0.285
					c-0.142,0.312,0.172,0.453,0.172,0.453"/>
			</g>
			<g>
				<path fill="#D86557" d="M282.04,208.102c0.084,0.229-0.825,0.571,0.255,0.686l-0.027-0.768c-0.771,0.027-0.541-0.06-0.313-0.144
					"/>
			</g>
		</g>
	</g>
	<g>
		<g>
			<path fill="#4A0D01" d="M145.097,251.006c1.319,5.021,3.182,8.6,7.534,11.596c4.896,3.371,11.911,4.453,17.485,6.123
				c7.479,2.239,14.787,4.844,21.747,8.409c6.943,3.558,13.466,7.951,20.436,11.503c11.407,5.813,24.563,11.717,37.624,11.467
				c11.168-0.215,21.795-4.065,30.604-10.901c17.313-13.431,25.873-39.638,23.887-60.925c-1.338-14.339-7.314-26.966-16.122-38.167
				c-4.153-5.284-9.579-9.405-13.835-14.611c-4.674-5.718-9.52-11.065-15.314-15.68c-10.461-8.328-23.408-12.252-36.589-9.376
				c-15.687,3.423-28.847,15.907-41.429,25.128c-6.053,4.436-12.629,8.296-17.667,13.939c-4.101,4.594-6.207,10.36-7.556,16.273
				c-1.867,8.184-2.54,16.412-5.521,24.336c-2.776,7.378-6.123,13.884-6.344,21.945c-0.025,0.903,3.118-0.229,3.419-0.433
				c5.118-3.45,9.783-9.578,16.189-10.468c1.596-0.223,3.416-1.885,0.697-1.506c-8.215,1.141-13.317,7.393-19.861,11.804
				c1.14-0.146,2.279-0.288,3.419-0.433c0.188-6.868,2.524-12.739,5.21-18.946c2.803-6.476,4.21-13.169,5.37-20.097
				c1.998-11.93,5.281-21.364,15.273-28.9c12.185-9.19,24.66-18.632,37.636-26.676c13.18-8.17,27.892-6.016,40.409,2.071
				c5.432,3.509,10.135,8.083,14.455,12.854c5.064,5.592,9.912,11.148,15.229,16.523c10.664,10.781,16.727,24.922,18.867,39.764
				c1.857,12.87-1.358,26.346-6.203,38.255c-4.48,11.02-11.838,20.686-22.053,26.918c-22.895,13.973-50.048-1.471-70.302-13.266
				c-9.727-5.662-19.452-9.633-30.237-12.862c-5.14-1.539-10.581-2.752-15.289-5.406c-4.312-2.43-6.116-6.765-7.306-11.292
				C148.718,249.049,144.852,250.075,145.097,251.006L145.097,251.006z"/>
		</g>
	</g>
	<g>
		<g>
			<g>
				<path fill="#D86557" d="M214.694,266.826c2.049,0.351,3.847-0.078,5.281-1.626c1.57-1.694,2.118-4.128,3.35-6.046
					c0.399-0.622-0.669-0.84-0.971-0.37c-1.931,3.007-2.672,7.956-7.273,7.167C214.49,265.852,213.925,266.693,214.694,266.826
					L214.694,266.826z"/>
			</g>
		</g>
		<g>
			<g>
				<path fill="#D86557" d="M168.784,232.525c0.53-1.321,2.03-2.317,3.053-3.239c1.031-0.931,2.105-1.89,2.777-3.123
					c0.311-0.57-0.857-0.575-1.1-0.131c-0.793,1.456-2.23,2.541-3.443,3.631c-0.866,0.778-1.939,1.619-2.387,2.731
					C167.438,233.009,168.594,232.999,168.784,232.525L168.784,232.525z"/>
			</g>
		</g>
		<g>
			<g>
				<path fill="#D86557" d="M215.374,217.771c1.424,4.103,1.638,8.444,0.032,12.529c-0.226,0.575,0.924,0.486,1.084,0.078
					c1.661-4.226,1.511-8.658,0.032-12.916C216.361,216.997,215.219,217.322,215.374,217.771L215.374,217.771z"/>
			</g>
		</g>
		<g>
			<g>
				<path fill="#D86557" d="M214.345,220.225c-1.046,1.51-2.562,2.526-4.066,3.53c-0.649,0.434,0.318,0.725,0.74,0.443
					c1.653-1.104,3.266-2.234,4.412-3.89C215.766,219.824,214.596,219.863,214.345,220.225L214.345,220.225z"/>
			</g>
		</g>
		<g>
			<g>
				<path fill="#D86557" d="M231.245,209.38c-0.681-0.371-0.578-1.292-0.408-1.908c-0.267,0.136-0.53,0.271-0.796,0.405
					c1.061-0.03,2.037-0.218,2.859-0.922c0.762-0.65,1.084-1.751,1.608-2.574c0.296-0.462-0.862-0.362-1.071-0.035
					c-0.838,1.309-1.119,2.808-2.955,2.859c-0.269,0.008-0.711,0.096-0.797,0.405c-0.229,0.835-0.215,1.867,0.646,2.338
					C230.674,210.134,231.73,209.646,231.245,209.38L231.245,209.38z"/>
			</g>
		</g>
		<g>
			<g>
				<path fill="#D86557" d="M239.813,212.876c-1.479,2.084-2.205,4.59-1.108,7.017c0.139,0.309,1.255-0.073,1.147-0.309
					c-1.045-2.317-0.418-4.762,1.008-6.771C241.102,212.475,239.98,212.64,239.813,212.876L239.813,212.876z"/>
			</g>
		</g>
		<g>
			<g>
				<path fill="#D86557" d="M175.401,238.48c-3.598,1.481-7.489,0.384-11.182,1.457c-2.17,0.631-4.059,1.973-5.452,3.728
					c-3.072,3.867-1.067,8.796,2.05,11.849c0.376,0.367,1.462-0.107,1.051-0.511c-3.651-3.573-4.93-8.729-0.738-12.479
					c4.176-3.735,10.002-1.383,14.783-3.354C176.642,238.868,175.996,238.234,175.401,238.48L175.401,238.48z"/>
			</g>
		</g>
	</g>
</g>
</svg>
