<?xml version="1.0" encoding="utf-8"?>
<!-- Generator: Adobe Illustrator 16.0.0, SVG Export Plug-In . SVG Version: 6.00 Build 0)  -->
<!DOCTYPE svg PUBLIC "-//W3C//DTD SVG 1.1//EN" "http://www.w3.org/Graphics/SVG/1.1/DTD/svg11.dtd">
<svg version="1.1" id="Ebene_1" xmlns="http://www.w3.org/2000/svg" xmlns:xlink="http://www.w3.org/1999/xlink" x="0px" y="0px"
	 width="450px" height="450px" viewBox="0 0 450 450" enable-background="new 0 0 450 450" xml:space="preserve">
<g>
	<path fill="#694839" d="M213.606,184.598c-18.259-0.059-49.148-23.548-66.523-13.343c-5.601,3.289-0.072,23.828-1.728,32.322
		c-2.244,11.5,5.903,16.9,10.621,24.835c5.807,9.757,8.436,18.518,16.102,26.529c7.194,7.521,13.178,16.458,19.817,24.785
		c9.797,12.292,14.96,19.051,24.012,32.415c3.301,4.871,11.892,12.067,16.345,14.943c7.124,4.598,18.881,3.281,26.675,3.271
		c13.948-0.02,30.818-3.476,42.011-15.511c16.688-17.944,19.172-56.555,8.234-78.94c-4.399-9.001-16.302,4.823-21.116-4.122
		c-4.907-9.116-2.621-15.266-4.289-25.042c-2.492-14.591-18.415-24.014-28.439-26.232
		C244.296,178.067,222.325,173.717,213.606,184.598"/>
	<path fill="#925949" d="M213.606,179.261c-18.259-0.057-44.652-23.444-62.027-13.238c-5.601,3.288-4.568,23.725-6.224,32.219
		c-2.244,11.501,5.903,16.901,10.621,24.835c5.807,9.756,8.436,18.517,16.102,26.529c7.194,7.521,13.178,16.458,19.817,24.786
		c9.797,12.292,17.941,22.257,26.993,35.619c3.301,4.873,8.91,8.863,13.363,11.738c7.124,4.598,18.881,3.281,26.675,3.27
		c13.948-0.019,30.818-3.475,42.011-15.511c16.688-17.942,19.172-56.554,8.234-78.939c-4.399-9.001-16.302,4.822-21.116-4.123
		c-4.907-9.116-2.621-15.264-4.289-25.041c-2.492-14.591-18.415-24.014-28.439-26.232
		C244.296,172.73,222.325,168.382,213.606,179.261"/>
	<path fill="#7A4A40" d="M309.171,230.569c-0.479-0.98-1.052-1.677-1.689-2.175c-19.41,26.343-51.539,69.37-70.941,95.313
		c6.977,2.2,16.006,1.323,22.386,1.313c13.948-0.019,30.818-3.475,42.011-15.511C317.625,291.566,320.109,252.955,309.171,230.569z"
		/>
	<path fill="#694839" d="M213.606,160.784c-18.259-0.059-9.447,9.462-26.821,19.668c-5.6,3.29-39.774-9.182-41.43-0.688
		c-2.244,11.501,5.903,16.901,10.621,24.836c5.807,9.756,8.436,18.518,16.102,26.529c7.194,7.521,13.178,16.457,19.817,24.785
		c9.797,12.291,15.422,17.957,24.473,31.319c3.301,4.874,11.17,13.338,15.623,16.213c7.124,4.598,19.142,3.106,26.936,3.097
		c13.948-0.021,30.818-3.477,42.011-15.512c16.688-17.944,11.099-48.228,0.16-70.613c-4.398-9.002-8.228-3.503-13.042-12.449
		c-4.907-9.117-17.56-7.067-19.228-16.844c-2.493-14.591-3.477-32.212-13.501-34.43
		C244.296,154.254,222.325,149.902,213.606,160.784"/>
	<path fill="#775441" d="M213.606,151.915c-18.259-0.059-37.276-6.896-54.65,3.309c-5.6,3.287-11.945,7.175-13.601,15.67
		c-2.244,11.502,5.903,16.903,10.621,24.835c5.807,9.759,8.436,18.517,16.102,26.531c7.194,7.521,13.178,16.455,19.817,24.786
		c9.797,12.29,19.016,24.676,28.067,38.039c3.301,4.873,7.836,12.034,12.289,14.907c7.124,4.598,18.881,3.281,26.675,3.271
		c13.948-0.019,30.818-3.477,42.011-15.512c16.688-17.94,15.327-43.937,4.39-66.323c-4.398-9.001-12.457-13.384-17.271-22.33
		c-4.907-9.115-2.621-15.265-4.289-25.04c-2.492-14.592-18.415-24.015-28.439-26.233
		C244.296,145.383,222.325,141.033,213.606,151.915"/>
	<path fill="#694839" d="M220.743,164.236c-14.206-0.043-29.003-5.116-42.523,2.454c-4.356,2.438-9.295,5.322-10.584,11.624
		c-1.746,8.53,4.594,12.536,8.267,18.421c4.518,7.235,6.563,13.734,12.527,19.678c5.599,5.578,10.255,12.206,15.421,18.384
		c7.624,9.117,14.797,18.305,21.841,28.217c2.568,3.613,6.098,8.926,9.563,11.057c5.544,3.41,14.691,2.436,20.755,2.428
		c10.854-0.015,23.981-2.579,32.692-11.506c12.984-13.308,11.925-32.59,3.413-49.195c-3.421-6.676-9.691-9.928-13.439-16.563
		c-3.818-6.762-2.037-11.323-3.336-18.574c-1.941-10.822-14.328-17.812-22.131-19.457
		C244.627,159.391,227.53,156.165,220.743,164.236"/>
	<g>
		<defs>
			<path id="SVGID_1_" d="M212.959,150.234c-6.59,3.509-36.63-5.216-54.004,4.989c-5.6,3.287-11.945,7.175-13.601,15.67
				c-2.244,11.502,5.903,16.903,10.621,24.835c5.807,9.759,8.436,18.517,16.102,26.531c7.194,7.521,13.178,16.455,19.817,24.786
				c9.797,12.29,19.016,24.676,28.067,38.039c3.301,4.873,7.836,12.034,12.289,14.907c7.124,4.598,18.881,3.281,26.675,3.271
				c13.948-0.019,30.818-3.477,42.011-15.512c16.688-17.94,15.327-43.937,4.39-66.323c-4.398-9.001-12.457-13.384-17.271-22.33
				c-4.907-9.115-2.621-15.265-4.289-25.04c-2.492-14.592-18.415-24.015-28.439-26.233
				C244.296,145.383,223.441,141.579,212.959,150.234"/>
		</defs>
		<clipPath id="SVGID_2_">
			<use xlink:href="#SVGID_1_"  overflow="visible"/>
		</clipPath>
		<g clip-path="url(#SVGID_2_)">
			
				<line fill="none" stroke="#563A30" stroke-width="10.0616" stroke-miterlimit="10" x1="107.086" y1="191.401" x2="279.638" y2="120.223"/>
			
				<line fill="none" stroke="#563A30" stroke-width="10.0616" stroke-miterlimit="10" x1="117.606" y1="214.322" x2="290.158" y2="143.145"/>
			
				<line fill="none" stroke="#563A30" stroke-width="10.0616" stroke-miterlimit="10" x1="128.126" y1="237.244" x2="300.678" y2="166.066"/>
			
				<line fill="none" stroke="#563A30" stroke-width="10.0616" stroke-miterlimit="10" x1="138.646" y1="260.168" x2="311.198" y2="188.99"/>
			
				<line fill="none" stroke="#563A30" stroke-width="10.0616" stroke-miterlimit="10" x1="149.166" y1="283.089" x2="321.719" y2="211.911"/>
			
				<line fill="none" stroke="#563A30" stroke-width="10.0616" stroke-miterlimit="10" x1="159.686" y1="306.01" x2="332.239" y2="234.833"/>
			
				<line fill="none" stroke="#563A30" stroke-width="10.0616" stroke-miterlimit="10" x1="170.206" y1="328.932" x2="342.759" y2="257.756"/>
		</g>
	</g>
</g>
</svg>
