<?xml version="1.0" encoding="utf-8"?>
<!-- Generator: Adobe Illustrator 18.1.1, SVG Export Plug-In . SVG Version: 6.00 Build 0)  -->
<svg version="1.1" id="Layer_2" xmlns="http://www.w3.org/2000/svg" xmlns:xlink="http://www.w3.org/1999/xlink" x="0px" y="0px"
	 width="450px" height="450px" viewBox="-74 76 450 450" enable-background="new -74 76 450 450" xml:space="preserve">
<g>
	<g opacity="0.3">
		<path fill="#1D1D1B" d="M204.887,270.515c3.689-2.854,6.133-7.738,10.254-10.647c3.645-2.576,4.167-2.478,7.963-5.037
			c9.158-6.175,22.947-14.697,22.947-14.697s3.281-15.347,10.995-19.76c7.26-4.154,18.292-2.009,20.018,6.825
			c0.902,4.592-0.459,7.619-2.797,11.432c-1.39,2.262-5.511,6.879-4.327,9.462c1.413,3.096,8.237,2.766,11.042,3.679
			c3.93,1.278,6.908,3.496,9.535,6.815c4.797,6.073,5.805,14.284-0.766,20.172c-6.832,6.118-17.688,8.291-23.859,2.749
			c-4.072-3.654-5.596-14.142-11.206-11.317c-4.607,2.32-13.456,7.168-17.575,10.212c-4.205,3.109-8.088,5.567-13.298,6.923
			c-4.731,1.23-9.401,4.722-14.077,5.562"/>
		<path fill="#1D1D1B" d="M245.803,262.422c-12.574,6.917-14.191,7.963-22.124,11.802c0.303,3.737,10.2,4.392,10.709,8.109
			c0.903-0.612,1.806-1.252,2.724-1.932c4.119-3.044,12.969-7.892,17.575-10.212c0.755-0.379,1.433-0.509,2.053-0.454
			C253.381,268.668,249.981,267.923,245.803,262.422z"/>
		<path fill="#1D1D1B" d="M270.648,249.046c-0.297-0.279-0.546-0.59-0.708-0.954c-1.184-2.583,2.938-7.2,4.327-9.462
			c2.338-3.812,3.699-6.84,2.797-11.432c-0.539-2.772-2-4.886-3.974-6.352c1.19,7.426-3.151,19.939-16.352,21.81
			c3.571-0.391,10.304,3.508,11.099,11.028C267.838,253.685,269.263,248.84,270.648,249.046z"/>
		<path fill="#1D1D1B" d="M260.273,272.461c1.853,2.794,3.335,6.995,5.619,9.046c6.172,5.542,17.027,3.369,23.859-2.749
			c5.67-5.08,5.69-11.885,2.512-17.559C290.52,270.385,275.551,280.66,260.273,272.461z"/>
		<path fill="#1D1D1B" d="M245.803,262.422c0,0,13.375,9.083,19.986-2.884c3.42-6.191,0.461-10.839,0.461-10.839
			s3.637-1.683,5.152,1.603c0.772,1.678,1.336,4.79,1.096,7.983c-0.273,3.612-1.576,7.371-4.404,9.636
			c-1.965,1.573-4.748,2.414-6.613,2.641C249.39,272.026,245.803,262.422,245.803,262.422z"/>
		<path fill="#1D1D1B" d="M232.262,248.655c-2.652-5.041-13.055,3.664-26.988,8.702c-12.928,4.642-28.839,6.985-41.233,6.727
			c-16.145-0.337-32.276-3.399-48.378-2.896c-18.26,0.57-39.557,6.986-56.482,13.92c-7.872,3.223-12.059,9.785-19.676,19.2
			c-5.52,6.823-16.799,12.01-20.25,17.178c-15.367,23.008-4.853,57.312,10.895,69.893c9.422,7.527,31.863,12.839,44.065,15.076
			c12.681,2.324,29.642-1.544,41.745-4.922c23.72-6.614,34.696-19.521,54.184-36.441c15.298-13.282,21.535-23.954,35.344-41.23
			c10.82-13.54,33.439-25.721,36.611-36.717C212.201,278.861,236.438,256.59,232.262,248.655z"/>
		<path fill="#1D1D1B" d="M30.148,381.379c9.422,7.527,31.863,12.839,44.065,15.076c12.681,2.324,29.642-1.544,41.745-4.922
			c23.72-6.614,34.696-19.521,54.184-36.441c15.298-13.282,21.535-23.954,35.344-41.23c10.82-13.54,33.439-25.721,36.611-36.717
			c-3.488,0.2-6.234,0.07-8.378-0.321L21.701,371.792C24.217,375.646,27.081,378.929,30.148,381.379z"/>
		<path fill="#1D1D1B" d="M13.405,351.965c2.872,12.368,9.198,23.388,16.743,29.414c9.422,7.527,31.863,12.839,44.065,15.076
			c12.681,2.324,29.642-1.544,41.745-4.922c20.072-5.598,31.02-15.702,45.723-28.933L13.405,351.965z"/>
	</g>
	<g>
		<g>
			<path fill="#E8C7A3" d="M199.929,264.565c3.69-2.855,6.134-7.739,10.253-10.648c3.645-2.576,4.166-2.478,7.963-5.037
				c9.16-6.175,22.949-14.697,22.949-14.697s3.281-15.346,10.995-19.76c7.259-4.154,18.291-2.008,20.019,6.825
				c0.902,4.593-0.461,7.62-2.799,11.432c-1.389,2.262-5.51,6.879-4.326,9.462c1.414,3.097,8.237,2.766,11.041,3.679
				c3.932,1.28,6.91,3.495,9.537,6.815c4.797,6.072,5.805,14.284-0.766,20.172c-6.832,6.118-17.69,8.291-23.861,2.749
				c-4.07-3.653-5.595-14.142-11.204-11.317c-4.607,2.32-13.457,7.168-17.577,10.212c-4.204,3.109-8.087,5.567-13.297,6.924
				c-4.731,1.23-9.404,4.722-14.078,5.561"/>
			<g>
				<path fill="#C49A74" d="M240.844,256.472c-12.572,6.917-14.191,7.963-22.123,11.802c0.303,3.737,10.199,4.392,10.709,8.109
					c0.902-0.611,1.805-1.251,2.723-1.932c4.12-3.044,12.971-7.892,17.577-10.212c0.753-0.379,1.433-0.509,2.053-0.454
					C248.422,262.718,245.021,261.974,240.844,256.472z"/>
				<path fill="#C49A74" d="M265.691,243.096c-0.298-0.278-0.547-0.591-0.709-0.954c-1.184-2.583,2.938-7.2,4.326-9.462
					c2.338-3.812,3.701-6.839,2.799-11.432c-0.54-2.772-2.002-4.886-3.974-6.353c1.19,7.428-3.154,19.94-16.352,21.811
					c3.571-0.391,10.303,3.508,11.099,11.029C262.881,247.735,264.305,242.89,265.691,243.096z"/>
				<path fill="#C49A74" d="M255.314,266.511c1.854,2.794,3.336,6.996,5.619,9.046c6.172,5.542,17.029,3.369,23.861-2.749
					c5.668-5.08,5.689-11.885,2.51-17.559C285.563,264.435,270.593,274.71,255.314,266.511z"/>
				<path fill="#C49A74" d="M240.844,256.472c0,0,13.377,9.084,19.986-2.884c3.421-6.189,0.463-10.839,0.463-10.839
					s3.636-1.684,5.15,1.603c0.773,1.678,1.338,4.79,1.097,7.983c-0.272,3.612-1.576,7.373-4.405,9.636
					c-1.967,1.573-4.748,2.415-6.611,2.641C244.433,266.076,240.844,256.472,240.844,256.472z"/>
			</g>
			<path fill="#CC6E2F" d="M227.305,242.705c-2.652-5.041-13.057,3.664-26.991,8.702c-12.927,4.642-28.836,6.984-41.23,6.729
				c-16.148-0.338-32.277-3.4-48.38-2.897c-18.258,0.571-39.556,6.987-56.482,13.92c-7.871,3.223-12.058,9.786-19.674,19.2
				c-5.519,6.824-16.799,12.012-20.252,17.179c-15.366,23.007-4.852,57.311,10.895,69.892c9.424,7.528,31.863,12.839,44.066,15.076
				c12.682,2.325,29.641-1.544,41.744-4.921c23.72-6.615,34.695-19.52,54.184-36.442c15.299-13.282,21.535-23.953,35.344-41.23
				c10.822-13.539,33.441-25.721,36.611-36.717C207.243,272.911,231.479,250.64,227.305,242.705z"/>
			<path fill="#A55926" d="M25.189,375.429c9.424,7.528,31.863,12.839,44.066,15.076c12.682,2.325,29.641-1.544,41.744-4.921
				c23.72-6.615,34.695-19.52,54.184-36.442c15.299-13.282,21.535-23.953,35.344-41.23c10.822-13.539,33.441-25.721,36.611-36.717
				c-3.489,0.2-6.232,0.07-8.379-0.321L16.742,365.842C19.26,369.696,22.123,372.978,25.189,375.429z"/>
			<path fill="#8C4B1F" d="M8.447,346.015c2.871,12.367,9.198,23.387,16.742,29.414c9.424,7.528,31.863,12.839,44.066,15.076
				c12.682,2.325,29.641-1.544,41.744-4.921c20.074-5.599,31.021-15.703,45.725-28.933L8.447,346.015z"/>
		</g>
	</g>
	<path fill="#A55926" d="M87.584,283.436c-1.953-0.148-3.904-0.47-5.827-0.963c-10.247-1.208-19.864-6.029-25.285-14.219
		c-0.759,0.3-1.511,0.601-2.251,0.903c-7.871,3.223-12.058,9.786-19.674,19.2c-4.869,6.021-14.219,10.768-18.725,15.353
		c21.104-5.649,71.877-19.304,72.076-19.959C87.912,283.705,87.796,283.595,87.584,283.436z"/>
	<circle fill="#EFD7BF" cx="275.585" cy="255.249" r="6.261"/>
	<circle fill="#EFD7BF" cx="251.782" cy="245.927" r="4.741"/>
	<g>
		<defs>
			<path id="SVGID_1_" d="M227.305,242.705c-2.652-5.041-13.057,3.664-26.991,8.702c-12.927,4.642-28.836,6.984-41.23,6.729
				c-16.148-0.338-32.277-3.4-48.38-2.897c-18.258,0.571-39.556,6.987-56.482,13.92c-7.871,3.223-12.058,9.786-19.674,19.2
				c-5.519,6.824-16.799,12.012-20.252,17.179c-15.366,23.007-4.852,57.311,10.895,69.892c9.424,7.528,31.863,12.839,44.066,15.076
				c12.682,2.325,29.641-1.544,41.744-4.921c23.72-6.615,34.695-19.52,54.184-36.442c15.299-13.282,21.535-23.953,35.344-41.23
				c10.822-13.539,33.441-25.721,36.611-36.717C207.243,272.911,231.479,250.64,227.305,242.705z"/>
		</defs>
		<clipPath id="SVGID_2_">
			<use xlink:href="#SVGID_1_"  overflow="visible"/>
		</clipPath>
		<g opacity="0.2" clip-path="url(#SVGID_2_)">
			<g>
				<circle cx="-57.533" cy="313.68" r="2.366"/>
				<path d="M-42.266,306.784c0.538,1.191,0.009,2.595-1.183,3.133c-1.19,0.539-2.593,0.007-3.131-1.185
					c-0.538-1.189-0.009-2.592,1.183-3.131C-44.205,305.065-42.803,305.594-42.266,306.784z"/>
				<path d="M-29.154,300.863c0.538,1.191,0.009,2.596-1.183,3.134c-1.194,0.539-2.595,0.007-3.132-1.184
					c-0.538-1.191-0.012-2.594,1.183-3.131C-31.095,299.145-29.691,299.673-29.154,300.863z"/>
				<circle cx="-18.202" cy="295.918" r="2.367"/>
				<circle cx="-5.091" cy="289.997" r="2.367"/>
				<circle cx="8.019" cy="284.078" r="2.366"/>
				<path d="M23.287,277.184c0.537,1.189,0.01,2.593-1.184,3.132c-1.191,0.538-2.592,0.006-3.131-1.185
					c-0.537-1.191-0.01-2.592,1.182-3.131C21.348,275.462,22.749,275.992,23.287,277.184z"/>
				<circle cx="34.24" cy="272.236" r="2.368"/>
				<path d="M49.508,265.341c0.538,1.191,0.009,2.595-1.182,3.133c-1.192,0.537-2.596,0.007-3.133-1.185
					c-0.538-1.19-0.009-2.593,1.186-3.131C47.566,263.621,48.971,264.15,49.508,265.341z"/>
				<path d="M62.619,259.42c0.537,1.191,0.008,2.595-1.184,3.134c-1.191,0.538-2.592,0.006-3.13-1.186s-0.011-2.592,1.181-3.129
					C60.678,257.7,62.081,258.23,62.619,259.42z"/>
				<circle cx="73.571" cy="254.475" r="2.367"/>
				<circle cx="86.682" cy="248.554" r="2.366"/>
				<circle cx="99.792" cy="242.633" r="2.367"/>
				<path d="M115.061,235.739c0.537,1.19,0.008,2.594-1.182,3.132c-1.194,0.539-2.595,0.007-3.133-1.185
					c-0.537-1.191-0.01-2.593,1.184-3.131C113.119,234.019,114.521,234.548,115.061,235.739z"/>
				<path d="M-44.523,319.262c0.537,1.192,0.007,2.593-1.184,3.131c-1.19,0.538-2.592,0.01-3.131-1.183
					c-0.539-1.192-0.008-2.593,1.185-3.132C-46.465,317.541-45.062,318.069-44.523,319.262z"/>
				<circle cx="-33.569" cy="314.315" r="2.367"/>
				<circle cx="-20.459" cy="308.395" r="2.366"/>
				<circle cx="-7.348" cy="302.474" r="2.366"/>
				<circle cx="5.761" cy="296.554" r="2.367"/>
				<circle cx="18.872" cy="290.633" r="2.367"/>
				<path d="M34.139,283.738c0.539,1.192,0.01,2.593-1.184,3.132c-1.191,0.538-2.589,0.008-3.128-1.185
					c-0.539-1.191-0.011-2.591,1.179-3.129C32.199,282.018,33.601,282.547,34.139,283.738z"/>
				<circle cx="45.093" cy="278.792" r="2.367"/>
				<circle cx="58.203" cy="272.872" r="2.366"/>
				<circle cx="71.313" cy="266.951" r="2.367"/>
				<circle cx="84.424" cy="261.03" r="2.368"/>
				<circle cx="97.534" cy="255.11" r="2.366"/>
				<circle cx="110.644" cy="249.189" r="2.366"/>
				<path d="M125.912,242.295c0.537,1.192,0.008,2.593-1.185,3.131c-1.188,0.538-2.591,0.009-3.13-1.183
					c-0.537-1.192-0.008-2.595,1.184-3.131C123.972,240.574,125.373,241.102,125.912,242.295z"/>
				<circle cx="-48.552" cy="333.189" r="2.367"/>
				<circle cx="-35.441" cy="327.269" r="2.367"/>
				<path d="M-20.176,320.374c0.539,1.191,0.013,2.593-1.18,3.132c-1.191,0.538-2.594,0.007-3.131-1.184
					c-0.538-1.191-0.01-2.593,1.182-3.131C-22.111,318.652-20.713,319.183-20.176,320.374z"/>
				<circle cx="-9.221" cy="315.428" r="2.368"/>
				<circle cx="3.89" cy="309.507" r="2.365"/>
				<path d="M19.159,302.611c0.538,1.19,0.007,2.595-1.183,3.133c-1.192,0.538-2.596,0.008-3.133-1.184
					c-0.538-1.191-0.009-2.593,1.185-3.132C17.217,300.892,18.621,301.42,19.159,302.611z"/>
				<circle cx="30.111" cy="297.666" r="2.366"/>
				<circle cx="43.222" cy="291.746" r="2.367"/>
				<circle cx="56.332" cy="285.825" r="2.366"/>
				<circle cx="69.442" cy="279.904" r="2.367"/>
				<circle cx="82.554" cy="273.984" r="2.367"/>
				<circle cx="95.664" cy="268.063" r="2.366"/>
				<circle cx="108.773" cy="262.143" r="2.366"/>
				<circle cx="121.884" cy="256.222" r="2.367"/>
				<circle cx="-37.698" cy="339.745" r="2.367"/>
				<circle cx="-24.589" cy="333.824" r="2.367"/>
				<circle cx="-11.478" cy="327.904" r="2.366"/>
				<circle cx="1.631" cy="321.983" r="2.367"/>
				<circle cx="14.743" cy="316.063" r="2.367"/>
				<circle cx="27.853" cy="310.143" r="2.366"/>
				<circle cx="40.964" cy="304.221" r="2.367"/>
				<path d="M56.23,297.327c0.538,1.191,0.009,2.594-1.18,3.13c-1.193,0.539-2.598,0.01-3.135-1.182
					c-0.538-1.19-0.008-2.593,1.185-3.132C54.291,295.605,55.693,296.137,56.23,297.327z"/>
				<circle cx="67.184" cy="292.38" r="2.367"/>
				<circle cx="80.293" cy="286.46" r="2.368"/>
				<circle cx="93.406" cy="280.539" r="2.365"/>
				<circle cx="106.516" cy="274.619" r="2.366"/>
				<circle cx="119.626" cy="268.698" r="2.367"/>
				<circle cx="132.736" cy="262.777" r="2.368"/>
				<circle cx="-39.569" cy="352.698" r="2.367"/>
				<circle cx="-26.46" cy="346.778" r="2.367"/>
				<path d="M-11.191,339.883c0.537,1.19,0.01,2.592-1.184,3.131c-1.191,0.538-2.594,0.009-3.131-1.183
					c-0.539-1.192-0.009-2.593,1.182-3.131C-13.13,338.161-11.73,338.69-11.191,339.883z"/>
				<circle cx="-0.238" cy="334.936" r="2.366"/>
				<path d="M15.029,328.041c0.538,1.191,0.009,2.593-1.183,3.131c-1.192,0.539-2.595,0.009-3.132-1.182
					c-0.538-1.192-0.009-2.593,1.186-3.132C13.09,326.32,14.49,326.85,15.029,328.041z"/>
				<circle cx="25.983" cy="323.095" r="2.366"/>
				<circle cx="39.092" cy="317.175" r="2.368"/>
				<circle cx="52.203" cy="311.254" r="2.367"/>
				<circle cx="65.313" cy="305.333" r="2.367"/>
				<circle cx="78.423" cy="299.414" r="2.366"/>
				<circle cx="91.535" cy="293.493" r="2.367"/>
				<path d="M106.803,286.598c0.537,1.191,0.008,2.593-1.183,3.131c-1.194,0.539-2.595,0.009-3.132-1.183
					c-0.539-1.191-0.01-2.592,1.184-3.131C104.861,284.877,106.264,285.405,106.803,286.598z"/>
				<circle cx="117.755" cy="281.651" r="2.365"/>
				<circle cx="130.864" cy="275.731" r="2.367"/>
				<circle cx="-28.718" cy="359.254" r="2.368"/>
				<circle cx="-15.607" cy="353.332" r="2.366"/>
				<circle cx="-2.497" cy="347.411" r="2.368"/>
				<path d="M12.769,340.519c0.538,1.191,0.013,2.592-1.181,3.131c-1.191,0.537-2.594,0.008-3.131-1.185
					c-0.539-1.189-0.008-2.593,1.182-3.131C10.832,338.796,12.23,339.327,12.769,340.519z"/>
				<circle cx="23.723" cy="335.572" r="2.366"/>
				<circle cx="36.833" cy="329.65" r="2.367"/>
				<circle cx="49.945" cy="323.729" r="2.366"/>
				<path d="M65.213,316.834c0.538,1.192,0.006,2.597-1.182,3.134c-1.193,0.538-2.596,0.009-3.134-1.184
					c-0.538-1.191-0.009-2.594,1.184-3.133C63.27,315.115,64.676,315.644,65.213,316.834z"/>
				<circle cx="76.164" cy="311.889" r="2.366"/>
				<path d="M91.434,304.995c0.537,1.191,0.008,2.594-1.185,3.132c-1.19,0.538-2.592,0.007-3.131-1.186
					c-0.538-1.189-0.007-2.593,1.183-3.13C89.492,303.272,90.896,303.804,91.434,304.995z"/>
				<path d="M104.545,299.073c0.539,1.191,0.007,2.595-1.185,3.133c-1.19,0.537-2.592,0.007-3.13-1.186
					c-0.537-1.189-0.01-2.592,1.182-3.13C102.604,297.353,104.006,297.883,104.545,299.073z"/>
				<circle cx="115.496" cy="294.127" r="2.368"/>
				<circle cx="128.607" cy="288.207" r="2.365"/>
				<circle cx="141.717" cy="282.286" r="2.367"/>
				<path d="M-28.432,371.231c0.539,1.194,0.006,2.594-1.183,3.131c-1.192,0.538-2.593,0.012-3.131-1.183
					c-0.538-1.19-0.01-2.592,1.183-3.129C-30.372,369.513-28.969,370.041-28.432,371.231z"/>
				<path d="M-15.321,365.31c0.539,1.194,0.009,2.594-1.182,3.131c-1.194,0.539-2.595,0.013-3.134-1.181
					c-0.537-1.191-0.007-2.592,1.188-3.131C-17.262,363.592-15.859,364.121-15.321,365.31z"/>
				<circle cx="-4.368" cy="360.365" r="2.367"/>
				<path d="M10.9,353.47c0.537,1.194,0.008,2.594-1.185,3.133c-1.191,0.537-2.592,0.01-3.131-1.185
					c-0.538-1.191-0.007-2.591,1.183-3.128C8.961,351.751,10.361,352.278,10.9,353.47z"/>
				<circle cx="21.853" cy="348.524" r="2.367"/>
				<path d="M37.121,341.629c0.539,1.192,0.008,2.594-1.186,3.133c-1.191,0.537-2.591,0.01-3.129-1.185
					c-0.539-1.191-0.01-2.592,1.182-3.129C35.182,339.91,36.583,340.439,37.121,341.629z"/>
				<circle cx="48.074" cy="336.684" r="2.366"/>
				<path d="M63.341,329.788c0.538,1.194,0.009,2.594-1.183,3.131c-1.193,0.539-2.591,0.01-3.13-1.183
					c-0.538-1.19-0.01-2.592,1.182-3.13C61.402,328.068,62.803,328.598,63.341,329.788z"/>
				<circle cx="74.295" cy="324.841" r="2.366"/>
				<circle cx="87.405" cy="318.922" r="2.366"/>
				<path d="M102.672,312.026c0.539,1.194,0.01,2.594-1.184,3.131c-1.189,0.538-2.592,0.012-3.131-1.183
					c-0.537-1.189-0.006-2.592,1.184-3.13C100.733,310.308,102.134,310.835,102.672,312.026z"/>
				<path d="M115.783,306.105c0.539,1.194,0.008,2.593-1.184,3.131c-1.191,0.538-2.59,0.01-3.129-1.183
					c-0.538-1.191-0.009-2.592,1.182-3.13C113.844,304.387,115.245,304.914,115.783,306.105z"/>
				<path d="M128.895,300.185c0.537,1.192,0.004,2.595-1.184,3.131c-1.192,0.538-2.594,0.012-3.133-1.183
					c-0.538-1.191-0.008-2.592,1.185-3.131C126.951,298.467,128.355,298.995,128.895,300.185z"/>
				<circle cx="139.847" cy="295.24" r="2.365"/>
				<circle cx="-19.737" cy="378.762" r="2.367"/>
				<path d="M-4.47,371.868c0.539,1.191,0.01,2.592-1.182,3.13c-1.194,0.539-2.595,0.01-3.132-1.182
					c-0.539-1.192-0.009-2.591,1.185-3.13C-6.408,370.149-5.008,370.676-4.47,371.868z"/>
				<circle cx="6.483" cy="366.921" r="2.367"/>
				<circle cx="19.594" cy="361" r="2.367"/>
				<circle cx="32.707" cy="355.08" r="2.366"/>
				<circle cx="45.816" cy="349.16" r="2.367"/>
				<circle cx="58.925" cy="343.239" r="2.366"/>
				<circle cx="72.037" cy="337.318" r="2.366"/>
				<circle cx="85.145" cy="331.398" r="2.367"/>
				<circle cx="98.257" cy="325.478" r="2.366"/>
				<circle cx="111.368" cy="319.557" r="2.367"/>
				<circle cx="124.478" cy="313.637" r="2.366"/>
				<circle cx="137.589" cy="307.715" r="2.367"/>
				<circle cx="150.698" cy="301.796" r="2.365"/>
				<circle cx="-21.607" cy="391.716" r="2.367"/>
				<circle cx="-8.497" cy="385.796" r="2.367"/>
				<path d="M6.77,378.901c0.538,1.191,0.01,2.592-1.184,3.131c-1.191,0.538-2.591,0.009-3.13-1.183
					c-0.538-1.191-0.009-2.593,1.182-3.131C4.832,377.18,6.232,377.712,6.77,378.901z"/>
				<path d="M19.881,372.98c0.538,1.191,0.008,2.593-1.182,3.13c-1.192,0.539-2.594,0.01-3.132-1.182
					c-0.538-1.19-0.009-2.593,1.185-3.131C17.939,371.26,19.344,371.79,19.881,372.98z"/>
				<path d="M32.99,367.06c0.539,1.192,0.01,2.592-1.182,3.13s-2.592,0.009-3.13-1.183c-0.538-1.19-0.01-2.592,1.181-3.13
					C31.053,365.339,32.453,365.869,32.99,367.06z"/>
				<circle cx="43.945" cy="362.114" r="2.366"/>
				<circle cx="57.054" cy="356.194" r="2.367"/>
				<circle cx="70.165" cy="350.273" r="2.367"/>
				<circle cx="83.276" cy="344.352" r="2.367"/>
				<circle cx="96.388" cy="338.431" r="2.366"/>
				<circle cx="109.496" cy="332.511" r="2.366"/>
				<circle cx="122.607" cy="326.591" r="2.366"/>
				<circle cx="135.717" cy="320.67" r="2.368"/>
				<circle cx="148.828" cy="314.75" r="2.368"/>
				<path d="M-8.599,397.297c0.539,1.192,0.009,2.594-1.184,3.133c-1.188,0.536-2.592,0.008-3.131-1.185
					c-0.537-1.189-0.006-2.593,1.184-3.131C-10.538,395.577-9.137,396.106-8.599,397.297z"/>
				<circle cx="2.354" cy="392.352" r="2.367"/>
				<circle cx="15.465" cy="386.43" r="2.366"/>
				<circle cx="28.575" cy="380.51" r="2.366"/>
				<path d="M43.844,373.615c0.537,1.191,0.008,2.594-1.184,3.13c-1.19,0.539-2.592,0.01-3.131-1.182
					c-0.538-1.191-0.008-2.593,1.184-3.132C41.902,371.896,43.306,372.425,43.844,373.615z"/>
				<circle cx="54.796" cy="368.669" r="2.367"/>
				<circle cx="67.907" cy="362.748" r="2.367"/>
				<path d="M83.174,355.853c0.539,1.192,0.01,2.594-1.181,3.131c-1.194,0.538-2.595,0.01-3.134-1.183
					c-0.537-1.191-0.008-2.593,1.185-3.132C81.234,354.132,82.636,354.663,83.174,355.853z"/>
				<circle cx="94.128" cy="350.907" r="2.367"/>
				<circle cx="107.238" cy="344.986" r="2.367"/>
				<circle cx="120.349" cy="339.066" r="2.367"/>
				<circle cx="133.459" cy="333.146" r="2.368"/>
				<circle cx="146.569" cy="327.225" r="2.366"/>
				<circle cx="159.681" cy="321.304" r="2.367"/>
				<circle cx="-12.626" cy="411.224" r="2.367"/>
				<circle cx="0.484" cy="405.304" r="2.366"/>
				<circle cx="13.595" cy="399.383" r="2.366"/>
				<circle cx="26.706" cy="393.463" r="2.366"/>
				<circle cx="39.815" cy="387.542" r="2.367"/>
				<circle cx="52.927" cy="381.622" r="2.367"/>
				<circle cx="66.038" cy="375.701" r="2.367"/>
				<circle cx="79.147" cy="369.781" r="2.367"/>
				<circle cx="92.257" cy="363.86" r="2.367"/>
				<path d="M107.525,356.965c0.539,1.192,0.008,2.596-1.182,3.132c-1.195,0.54-2.594,0.009-3.132-1.184
					c-0.538-1.191-0.013-2.591,1.183-3.131C105.584,355.245,106.988,355.773,107.525,356.965z"/>
				<path d="M120.637,351.045c0.537,1.192,0.008,2.595-1.186,3.134c-1.189,0.536-2.593,0.007-3.132-1.185
					c-0.538-1.192-0.007-2.594,1.183-3.132C118.695,349.324,120.098,349.853,120.637,351.045z"/>
				<circle cx="131.588" cy="346.099" r="2.367"/>
				<circle cx="144.7" cy="340.178" r="2.367"/>
				<path d="M159.967,333.284c0.537,1.191,0.007,2.594-1.182,3.131c-1.193,0.539-2.594,0.009-3.133-1.184
					c-0.537-1.192-0.008-2.593,1.185-3.131C158.025,331.562,159.428,332.092,159.967,333.284z"/>
				<circle cx="-1.775" cy="417.781" r="2.366"/>
				<path d="M13.494,410.886c0.537,1.191,0.008,2.595-1.184,3.133c-1.19,0.538-2.594,0.006-3.131-1.186
					c-0.539-1.189-0.008-2.593,1.182-3.131C11.553,409.165,12.956,409.694,13.494,410.886z"/>
				<circle cx="24.447" cy="405.94" r="2.367"/>
				<circle cx="37.557" cy="400.019" r="2.367"/>
				<path d="M52.824,393.125c0.537,1.191,0.01,2.593-1.181,3.131c-1.194,0.539-2.596,0.009-3.134-1.183
					c-0.537-1.191-0.008-2.594,1.184-3.133C50.885,391.403,52.285,391.934,52.824,393.125z"/>
				<circle cx="63.777" cy="388.178" r="2.366"/>
				<path d="M79.045,381.284c0.537,1.189,0.01,2.593-1.182,3.132c-1.191,0.538-2.594,0.006-3.131-1.185
					c-0.538-1.19-0.01-2.592,1.182-3.131C77.106,379.562,78.507,380.093,79.045,381.284z"/>
				<circle cx="89.999" cy="376.337" r="2.367"/>
				<circle cx="103.11" cy="370.416" r="2.367"/>
				<circle cx="116.219" cy="364.497" r="2.366"/>
				<circle cx="129.33" cy="358.576" r="2.366"/>
				<circle cx="142.44" cy="352.654" r="2.367"/>
				<circle cx="155.551" cy="346.733" r="2.368"/>
				<circle cx="168.661" cy="340.813" r="2.367"/>
				<circle cx="-3.645" cy="430.733" r="2.366"/>
				<path d="M11.623,423.84c0.536,1.189,0.007,2.592-1.185,3.129c-1.191,0.538-2.593,0.009-3.131-1.181
					c-0.538-1.193-0.007-2.594,1.183-3.131C9.682,422.119,11.084,422.647,11.623,423.84z"/>
				<circle cx="22.576" cy="418.893" r="2.366"/>
				<circle cx="35.687" cy="412.972" r="2.367"/>
				<path d="M50.955,406.078c0.536,1.19,0.008,2.592-1.184,3.129c-1.191,0.538-2.595,0.009-3.132-1.181
					c-0.538-1.193-0.006-2.594,1.184-3.131C49.016,404.356,50.416,404.886,50.955,406.078z"/>
				<circle cx="61.907" cy="401.131" r="2.367"/>
				<circle cx="75.017" cy="395.211" r="2.367"/>
				<circle cx="88.128" cy="389.291" r="2.367"/>
				<circle cx="101.238" cy="383.37" r="2.368"/>
				<circle cx="114.35" cy="377.449" r="2.366"/>
				<circle cx="127.46" cy="371.528" r="2.367"/>
				<path d="M142.726,364.635c0.536,1.189,0.009,2.592-1.181,3.128c-1.193,0.539-2.594,0.009-3.132-1.182
					c-0.538-1.191-0.009-2.592,1.185-3.131C140.785,362.914,142.187,363.442,142.726,364.635z"/>
				<circle cx="153.681" cy="359.688" r="2.367"/>
				<circle cx="166.791" cy="353.766" r="2.366"/>
				<circle cx="7.208" cy="437.29" r="2.367"/>
				<circle cx="20.318" cy="431.371" r="2.366"/>
				<circle cx="33.43" cy="425.45" r="2.366"/>
				<circle cx="46.539" cy="419.529" r="2.367"/>
				<circle cx="59.65" cy="413.608" r="2.366"/>
				<circle cx="72.761" cy="407.688" r="2.367"/>
				<circle cx="85.869" cy="401.768" r="2.366"/>
				<circle cx="98.981" cy="395.847" r="2.367"/>
				<circle cx="112.091" cy="389.927" r="2.366"/>
				<circle cx="125.202" cy="384.006" r="2.367"/>
				<path d="M140.469,377.111c0.537,1.19,0.007,2.595-1.181,3.131c-1.194,0.539-2.593,0.006-3.131-1.184
					c-0.538-1.191-0.011-2.593,1.181-3.131C138.527,375.39,139.93,375.919,140.469,377.111z"/>
				<path d="M153.579,371.19c0.536,1.19,0.011,2.593-1.181,3.131c-1.193,0.539-2.595,0.008-3.131-1.183
					c-0.539-1.192-0.01-2.595,1.181-3.132C151.641,369.469,153.04,369.999,153.579,371.19z"/>
				<circle cx="164.533" cy="366.245" r="2.367"/>
				<circle cx="177.645" cy="360.324" r="2.367"/>
			</g>
			<g>
				<circle cx="125.604" cy="230.977" r="2.367"/>
				<circle cx="138.715" cy="225.057" r="2.367"/>
				<circle cx="151.825" cy="219.136" r="2.367"/>
				<path d="M167.092,212.242c0.538,1.19,0.012,2.593-1.18,3.131c-1.195,0.539-2.598,0.009-3.135-1.183
					c-0.538-1.191-0.009-2.594,1.186-3.133C165.154,210.52,166.555,211.051,167.092,212.242z"/>
				<circle cx="178.046" cy="207.295" r="2.366"/>
				<circle cx="191.155" cy="201.375" r="2.367"/>
				<circle cx="204.267" cy="195.454" r="2.367"/>
				<circle cx="217.377" cy="189.533" r="2.368"/>
				<circle cx="230.486" cy="183.613" r="2.366"/>
				<path d="M245.754,176.719c0.538,1.191,0.01,2.594-1.182,3.132c-1.193,0.539-2.592,0.006-3.129-1.186
					c-0.539-1.191-0.013-2.592,1.18-3.129C243.814,174.998,245.217,175.527,245.754,176.719z"/>
				<circle cx="256.708" cy="171.772" r="2.367"/>
				<circle cx="269.818" cy="165.852" r="2.366"/>
				<circle cx="282.929" cy="159.931" r="2.367"/>
				<circle cx="296.04" cy="154.01" r="2.366"/>
				<circle cx="136.456" cy="237.533" r="2.367"/>
				<circle cx="149.567" cy="231.613" r="2.367"/>
				<circle cx="162.678" cy="225.692" r="2.366"/>
				<circle cx="175.788" cy="219.771" r="2.365"/>
				<path d="M191.056,212.877c0.538,1.191,0.007,2.594-1.183,3.131c-1.193,0.538-2.594,0.009-3.132-1.183
					c-0.539-1.192-0.01-2.593,1.184-3.132C189.113,211.157,190.518,211.685,191.056,212.877z"/>
				<circle cx="202.009" cy="207.93" r="2.367"/>
				<path d="M217.275,201.035c0.539,1.192,0.01,2.593-1.185,3.132c-1.19,0.538-2.59,0.009-3.128-1.184
					c-0.539-1.191-0.01-2.592,1.181-3.13C215.338,199.314,216.738,199.844,217.275,201.035z"/>
				<circle cx="228.229" cy="196.089" r="2.366"/>
				<circle cx="241.34" cy="190.168" r="2.367"/>
				<circle cx="254.449" cy="184.249" r="2.366"/>
				<circle cx="267.561" cy="178.328" r="2.368"/>
				<circle cx="280.671" cy="172.407" r="2.367"/>
				<circle cx="293.78" cy="166.487" r="2.367"/>
				<circle cx="306.892" cy="160.566" r="2.366"/>
				<circle cx="134.585" cy="250.486" r="2.366"/>
				<circle cx="147.696" cy="244.565" r="2.365"/>
				<circle cx="160.807" cy="238.645" r="2.366"/>
				<circle cx="173.916" cy="232.725" r="2.368"/>
				<circle cx="187.026" cy="226.804" r="2.367"/>
				<circle cx="200.138" cy="220.883" r="2.367"/>
				<path d="M215.404,213.989c0.537,1.19,0.01,2.595-1.18,3.131c-1.195,0.539-2.596,0.009-3.134-1.183s-0.01-2.593,1.185-3.132
					C213.465,212.269,214.867,212.798,215.404,213.989z"/>
				<circle cx="226.358" cy="209.043" r="2.367"/>
				<circle cx="239.469" cy="203.122" r="2.366"/>
				<circle cx="252.58" cy="197.201" r="2.368"/>
				<circle cx="265.691" cy="191.281" r="2.367"/>
				<circle cx="278.801" cy="185.36" r="2.366"/>
				<circle cx="291.91" cy="179.44" r="2.366"/>
				<circle cx="305.02" cy="173.52" r="2.367"/>
				<circle cx="145.437" cy="257.043" r="2.367"/>
				<circle cx="158.548" cy="251.123" r="2.367"/>
				<circle cx="171.659" cy="245.201" r="2.367"/>
				<circle cx="184.769" cy="239.281" r="2.367"/>
				<circle cx="197.878" cy="233.361" r="2.367"/>
				<circle cx="210.99" cy="227.439" r="2.366"/>
				<circle cx="224.101" cy="221.519" r="2.365"/>
				<path d="M239.367,214.625c0.537,1.19,0.008,2.593-1.18,3.129c-1.194,0.541-2.596,0.01-3.135-1.181
					c-0.537-1.191-0.008-2.594,1.186-3.133C237.428,212.904,238.829,213.435,239.367,214.625z"/>
				<circle cx="250.321" cy="209.678" r="2.367"/>
				<circle cx="263.432" cy="203.757" r="2.368"/>
				<circle cx="276.541" cy="197.837" r="2.365"/>
				<circle cx="289.652" cy="191.917" r="2.366"/>
				<circle cx="302.763" cy="185.996" r="2.366"/>
				<circle cx="315.873" cy="180.075" r="2.368"/>
				<circle cx="143.567" cy="269.995" r="2.367"/>
				<circle cx="156.677" cy="264.076" r="2.367"/>
				<circle cx="169.787" cy="258.155" r="2.366"/>
				<circle cx="182.898" cy="252.234" r="2.366"/>
				<circle cx="196.009" cy="246.313" r="2.367"/>
				<path d="M211.275,239.418c0.538,1.191,0.01,2.594-1.183,3.133c-1.19,0.537-2.591,0.007-3.128-1.185
					c-0.539-1.192-0.012-2.593,1.18-3.131C209.338,237.698,210.736,238.227,211.275,239.418z"/>
				<circle cx="222.229" cy="234.473" r="2.366"/>
				<circle cx="235.339" cy="228.551" r="2.367"/>
				<circle cx="248.45" cy="222.631" r="2.367"/>
				<circle cx="261.56" cy="216.711" r="2.367"/>
				<circle cx="274.671" cy="210.79" r="2.367"/>
				<circle cx="287.782" cy="204.87" r="2.367"/>
				<path d="M303.047,197.977c0.539,1.189,0.012,2.592-1.18,3.129c-1.193,0.539-2.594,0.009-3.132-1.183
					c-0.539-1.192-0.01-2.593,1.184-3.132C301.11,196.253,302.51,196.784,303.047,197.977z"/>
				<circle cx="314.002" cy="193.029" r="2.366"/>
				<circle cx="154.418" cy="276.551" r="2.366"/>
				<path d="M169.686,269.656c0.539,1.191,0.01,2.594-1.182,3.132c-1.191,0.538-2.592,0.008-3.131-1.186
					c-0.538-1.189-0.009-2.592,1.182-3.129C167.746,267.935,169.148,268.465,169.686,269.656z"/>
				<circle cx="180.641" cy="264.71" r="2.368"/>
				<circle cx="193.749" cy="258.79" r="2.367"/>
				<path d="M209.016,251.895c0.539,1.192,0.012,2.593-1.182,3.132c-1.191,0.538-2.592,0.009-3.131-1.184
					c-0.537-1.191-0.01-2.594,1.182-3.131C207.079,250.173,208.479,250.703,209.016,251.895z"/>
				<circle cx="219.971" cy="246.947" r="2.367"/>
				<circle cx="233.082" cy="241.027" r="2.368"/>
				<circle cx="246.191" cy="235.107" r="2.368"/>
				<path d="M261.458,228.212c0.539,1.192,0.013,2.594-1.181,3.133c-1.193,0.538-2.594,0.008-3.133-1.184
					c-0.537-1.191-0.008-2.594,1.183-3.133C259.521,226.491,260.92,227.021,261.458,228.212z"/>
				<circle cx="272.412" cy="223.266" r="2.366"/>
				<circle cx="285.524" cy="217.345" r="2.366"/>
				<circle cx="298.633" cy="211.425" r="2.367"/>
				<circle cx="311.743" cy="205.504" r="2.367"/>
				<circle cx="324.853" cy="199.583" r="2.366"/>
				<path d="M154.705,288.528c0.537,1.194,0.008,2.595-1.184,3.133c-1.19,0.537-2.592,0.01-3.131-1.183
					c-0.539-1.191-0.008-2.594,1.184-3.131C152.766,286.81,154.167,287.339,154.705,288.528z"/>
				<circle cx="165.658" cy="283.583" r="2.367"/>
				<circle cx="178.769" cy="277.662" r="2.366"/>
				<circle cx="191.879" cy="271.743" r="2.366"/>
				<path d="M207.146,264.848c0.539,1.193,0.01,2.593-1.182,3.131c-1.194,0.539-2.595,0.011-3.133-1.183
					c-0.537-1.191-0.008-2.591,1.186-3.131C205.207,263.127,206.607,263.657,207.146,264.848z"/>
				<circle cx="218.1" cy="259.901" r="2.368"/>
				<path d="M233.367,253.007c0.537,1.193,0.008,2.593-1.181,3.129c-1.192,0.539-2.595,0.013-3.134-1.182
					c-0.539-1.19-0.007-2.592,1.186-3.131C231.429,251.287,232.829,251.815,233.367,253.007z"/>
				<path d="M246.479,247.085c0.539,1.194,0.008,2.594-1.184,3.131c-1.193,0.539-2.593,0.012-3.131-1.183
					c-0.537-1.19-0.01-2.59,1.184-3.129C244.539,245.366,245.939,245.895,246.479,247.085z"/>
				<circle cx="257.432" cy="242.139" r="2.366"/>
				<circle cx="270.541" cy="236.219" r="2.366"/>
				<path d="M285.809,229.323c0.539,1.194,0.009,2.595-1.182,3.133c-1.191,0.537-2.592,0.01-3.131-1.185
					c-0.539-1.19-0.01-2.592,1.182-3.129C283.869,227.605,285.271,228.134,285.809,229.323z"/>
				<path d="M298.92,223.402c0.539,1.194,0.008,2.595-1.183,3.133c-1.192,0.537-2.593,0.009-3.132-1.183
					c-0.538-1.191-0.008-2.592,1.184-3.131C296.98,221.685,298.383,222.213,298.92,223.402z"/>
				<path d="M312.031,217.483c0.538,1.193,0.005,2.594-1.184,3.131c-1.191,0.537-2.595,0.011-3.134-1.182
					c-0.538-1.191-0.006-2.594,1.187-3.131C310.09,215.764,311.494,216.292,312.031,217.483z"/>
				<circle cx="322.983" cy="212.537" r="2.367"/>
				<circle cx="163.401" cy="296.059" r="2.367"/>
				<circle cx="176.509" cy="290.139" r="2.367"/>
				<circle cx="189.62" cy="284.219" r="2.366"/>
				<circle cx="202.731" cy="278.298" r="2.367"/>
				<circle cx="215.843" cy="272.377" r="2.367"/>
				<circle cx="228.952" cy="266.457" r="2.367"/>
				<circle cx="242.063" cy="260.537" r="2.367"/>
				<circle cx="255.174" cy="254.616" r="2.366"/>
				<circle cx="268.283" cy="248.696" r="2.367"/>
				<circle cx="281.394" cy="242.775" r="2.367"/>
				<circle cx="294.505" cy="236.854" r="2.367"/>
				<circle cx="307.615" cy="230.934" r="2.367"/>
				<circle cx="320.725" cy="225.014" r="2.366"/>
				<circle cx="333.834" cy="219.093" r="2.366"/>
				<circle cx="161.53" cy="309.013" r="2.366"/>
				<circle cx="174.64" cy="303.093" r="2.366"/>
				<circle cx="187.749" cy="297.173" r="2.367"/>
				<circle cx="200.86" cy="291.252" r="2.367"/>
				<circle cx="213.972" cy="285.332" r="2.367"/>
				<circle cx="227.082" cy="279.411" r="2.367"/>
				<circle cx="240.191" cy="273.491" r="2.366"/>
				<circle cx="253.302" cy="267.57" r="2.366"/>
				<circle cx="266.414" cy="261.649" r="2.368"/>
				<circle cx="279.524" cy="255.729" r="2.367"/>
				<path d="M294.791,248.834c0.537,1.191,0.008,2.593-1.182,3.13c-1.194,0.539-2.595,0.01-3.133-1.182
					c-0.537-1.191-0.01-2.592,1.184-3.131C292.851,247.113,294.252,247.644,294.791,248.834z"/>
				<circle cx="305.743" cy="243.888" r="2.365"/>
				<circle cx="318.854" cy="237.968" r="2.367"/>
				<circle cx="331.965" cy="232.047" r="2.368"/>
				<path d="M174.539,314.595c0.539,1.191,0.008,2.593-1.186,3.132c-1.188,0.536-2.592,0.008-3.131-1.183
					c-0.537-1.191-0.006-2.595,1.184-3.131C172.598,312.874,174.001,313.403,174.539,314.595z"/>
				<circle cx="185.491" cy="309.648" r="2.367"/>
				<path d="M200.759,302.753c0.538,1.193,0.01,2.594-1.183,3.131c-1.191,0.538-2.594,0.01-3.133-1.181
					c-0.537-1.191-0.007-2.595,1.185-3.133C198.82,301.033,200.221,301.564,200.759,302.753z"/>
				<circle cx="211.713" cy="297.807" r="2.366"/>
				<circle cx="224.823" cy="291.887" r="2.367"/>
				<circle cx="237.934" cy="285.965" r="2.367"/>
				<circle cx="251.044" cy="280.045" r="2.367"/>
				<path d="M266.311,273.15c0.539,1.192,0.008,2.595-1.183,3.131c-1.19,0.539-2.593,0.01-3.132-1.183
					c-0.538-1.191-0.008-2.593,1.186-3.131C264.37,271.431,265.773,271.96,266.311,273.15z"/>
				<circle cx="277.265" cy="268.204" r="2.366"/>
				<circle cx="290.375" cy="262.284" r="2.366"/>
				<circle cx="303.485" cy="256.363" r="2.367"/>
				<circle cx="316.596" cy="250.442" r="2.368"/>
				<circle cx="329.707" cy="244.522" r="2.366"/>
				<circle cx="342.816" cy="238.602" r="2.367"/>
				<circle cx="170.511" cy="328.521" r="2.367"/>
				<circle cx="183.622" cy="322.601" r="2.367"/>
				<circle cx="196.731" cy="316.681" r="2.365"/>
				<circle cx="209.842" cy="310.76" r="2.366"/>
				<circle cx="222.952" cy="304.839" r="2.367"/>
				<path d="M238.221,297.944c0.538,1.192,0.008,2.596-1.183,3.133c-1.194,0.539-2.595,0.008-3.132-1.184
					c-0.539-1.192-0.01-2.593,1.184-3.132C236.279,296.224,237.682,296.752,238.221,297.944z"/>
				<circle cx="249.174" cy="292.999" r="2.366"/>
				<circle cx="262.284" cy="287.078" r="2.368"/>
				<circle cx="275.395" cy="281.157" r="2.366"/>
				<circle cx="288.505" cy="275.237" r="2.367"/>
				<circle cx="301.614" cy="269.317" r="2.367"/>
				<circle cx="314.726" cy="263.396" r="2.367"/>
				<circle cx="327.836" cy="257.475" r="2.366"/>
				<path d="M343.104,250.581c0.538,1.191,0.008,2.595-1.182,3.131c-1.193,0.539-2.596,0.009-3.133-1.184
					c-0.538-1.191-0.01-2.592,1.186-3.131C341.163,248.86,342.564,249.389,343.104,250.581z"/>
				<circle cx="181.363" cy="335.078" r="2.366"/>
				<circle cx="194.474" cy="329.158" r="2.367"/>
				<circle cx="207.583" cy="323.237" r="2.367"/>
				<path d="M222.852,316.343c0.537,1.19,0.01,2.593-1.184,3.132c-1.188,0.537-2.593,0.007-3.131-1.185
					c-0.537-1.19-0.007-2.594,1.184-3.131C220.912,314.621,222.313,315.151,222.852,316.343z"/>
				<path d="M235.961,310.422c0.538,1.191,0.009,2.594-1.182,3.132c-1.192,0.538-2.596,0.008-3.133-1.184
					c-0.538-1.191-0.008-2.594,1.186-3.131C234.021,308.701,235.424,309.23,235.961,310.422z"/>
				<circle cx="246.915" cy="305.476" r="2.365"/>
				<circle cx="260.025" cy="299.555" r="2.366"/>
				<circle cx="273.136" cy="293.634" r="2.367"/>
				<path d="M288.404,286.739c0.538,1.191,0.01,2.594-1.186,3.133c-1.189,0.537-2.592,0.008-3.131-1.186
					c-0.537-1.189-0.006-2.593,1.183-3.129C286.465,285.017,287.867,285.548,288.404,286.739z"/>
				<circle cx="299.356" cy="281.793" r="2.367"/>
				<circle cx="312.466" cy="275.873" r="2.367"/>
				<circle cx="325.578" cy="269.953" r="2.367"/>
				<circle cx="338.689" cy="264.031" r="2.368"/>
				<circle cx="351.798" cy="258.112" r="2.367"/>
				<circle cx="179.492" cy="348.031" r="2.366"/>
				<path d="M194.759,341.137c0.536,1.19,0.009,2.592-1.183,3.13c-1.191,0.537-2.594,0.008-3.131-1.182
					c-0.538-1.193-0.008-2.594,1.183-3.131C192.818,339.416,194.22,339.945,194.759,341.137z"/>
				<circle cx="205.712" cy="336.191" r="2.367"/>
				<circle cx="218.823" cy="330.269" r="2.367"/>
				<circle cx="231.934" cy="324.35" r="2.368"/>
				<circle cx="245.044" cy="318.428" r="2.367"/>
				<circle cx="258.154" cy="312.508" r="2.367"/>
				<circle cx="271.264" cy="306.588" r="2.365"/>
				<circle cx="284.375" cy="300.667" r="2.368"/>
				<circle cx="297.486" cy="294.746" r="2.366"/>
				<path d="M312.753,287.851c0.538,1.19,0.01,2.592-1.182,3.13c-1.194,0.539-2.595,0.009-3.132-1.182
					c-0.538-1.19-0.01-2.592,1.184-3.131C310.814,286.131,312.215,286.66,312.753,287.851z"/>
				<path d="M325.863,281.932c0.536,1.189,0.008,2.592-1.182,3.129c-1.193,0.538-2.595,0.009-3.133-1.181
					c-0.537-1.193-0.008-2.594,1.186-3.133C323.924,280.211,325.324,280.739,325.863,281.932z"/>
				<circle cx="336.817" cy="276.984" r="2.367"/>
				<circle cx="349.928" cy="271.064" r="2.367"/>
				<path d="M192.502,353.615c0.536,1.189,0.008,2.592-1.184,3.131c-1.191,0.537-2.593,0.006-3.129-1.185
					c-0.539-1.191-0.012-2.593,1.18-3.131C190.563,351.892,191.963,352.423,192.502,353.615z"/>
				<path d="M205.613,347.694c0.536,1.189,0.008,2.593-1.184,3.131c-1.191,0.537-2.594,0.007-3.131-1.184
					c-0.539-1.192-0.01-2.594,1.182-3.132C203.672,345.972,205.074,346.501,205.613,347.694z"/>
				<circle cx="216.566" cy="342.747" r="2.367"/>
				<circle cx="229.677" cy="336.826" r="2.367"/>
				<circle cx="242.787" cy="330.906" r="2.366"/>
				<circle cx="255.897" cy="324.985" r="2.367"/>
				<circle cx="269.007" cy="319.065" r="2.367"/>
				<circle cx="282.118" cy="313.144" r="2.367"/>
				<circle cx="295.228" cy="307.224" r="2.366"/>
				<circle cx="308.339" cy="301.303" r="2.367"/>
				<circle cx="321.449" cy="295.382" r="2.366"/>
				<path d="M336.715,288.489c0.539,1.189,0.013,2.592-1.182,3.131c-1.19,0.537-2.595,0.007-3.131-1.184
					c-0.539-1.192-0.009-2.594,1.182-3.132C334.778,286.766,336.178,287.296,336.715,288.489z"/>
				<circle cx="347.669" cy="283.542" r="2.367"/>
				<circle cx="360.781" cy="277.621" r="2.367"/>
			</g>
		</g>
	</g>
	<g>
		<defs>
			<path id="SVGID_3_" d="M171.076,264.211c-2.328-0.829-12.9,2.694-19.533,5.428c-6.158,2.527-11.092,4.172-17.833,5.538
				c-8.779,1.779-33.708-0.757-42.315,1.206c-9.763,2.226-7.994,13.442-15.906,16.945c-3.68,1.63-4.488,0.668-6.932,3.662
				c-1.77,2.167-10.033,1.624-10.981,3.183c-4.216,6.939,7.24,17.343,17.819,19.451c29.699,5.919,29.633-12.484,36.66-11.975
				c12.426,0.903,13.756-9.242,20.07-9.429c11.391-0.336,13.975-5.241,21.497-11.284c5.906-4.746,10.409,3.042,14.802-2.431
				c3.441-4.289,6.762-11.811,6.523-14.647C174.74,265.517,174.74,265.517,171.076,264.211z"/>
		</defs>
		<clipPath id="SVGID_4_">
			<use xlink:href="#SVGID_3_"  overflow="visible"/>
		</clipPath>
	</g>
	<g>
		<circle fill="#E89862" cx="88.892" cy="277.67" r="1.853"/>
		<circle fill="#E89862" cx="114.226" cy="298.722" r="2.354"/>
		<circle fill="#E89862" cx="121.961" cy="276.384" r="1.564"/>
		<circle fill="#E89862" cx="134.85" cy="288.206" r="2.158"/>
		<circle fill="#E89862" cx="131.778" cy="279.776" r="3.071"/>
		<circle fill="#E89862" cx="102.463" cy="300.941" r="5.291"/>
		<circle fill="#E89862" cx="126.941" cy="300.388" r="4.079"/>
		<circle fill="#E89862" cx="97.173" cy="285.775" r="4.49"/>
		<circle fill="#E89862" cx="106.32" cy="270.949" r="2.695"/>
		<circle fill="#E89862" cx="115.708" cy="268.189" r="1.761"/>
		<circle fill="#E89862" cx="147.683" cy="282.894" r="4.874"/>
		<circle fill="#E89862" cx="161.682" cy="271.537" r="3.302"/>
		<circle fill="#E89862" cx="89.027" cy="300.346" r="3.466"/>
		<circle fill="#E89862" cx="74.268" cy="297.745" r="2.643"/>
		<circle fill="#E89862" cx="67.647" cy="314.363" r="2.429"/>
		<circle fill="#E89862" cx="92.683" cy="314.363" r="2.156"/>
		<circle fill="#E89862" cx="129.822" cy="268.617" r="2.189"/>
		<circle fill="#E89862" cx="111.87" cy="285.693" r="4.407"/>
	</g>
</g>
</svg>
