<?xml version="1.0" encoding="utf-8"?>
<!-- Generator: Adobe Illustrator 16.0.0, SVG Export Plug-In . SVG Version: 6.00 Build 0)  -->
<!DOCTYPE svg PUBLIC "-//W3C//DTD SVG 1.1//EN" "http://www.w3.org/Graphics/SVG/1.1/DTD/svg11.dtd">
<svg version="1.1" id="Layer_2" xmlns="http://www.w3.org/2000/svg" xmlns:xlink="http://www.w3.org/1999/xlink" x="0px" y="0px"
	 width="450px" height="450px" viewBox="0 0 450 450" enable-background="new 0 0 450 450" xml:space="preserve">
<g>
	<g opacity="0.3">
		<path d="M271.79,202.992c3.208-2.481,5.331-6.727,8.914-9.256c3.168-2.239,3.622-2.153,6.922-4.379
			c7.961-5.367,19.948-12.776,19.948-12.776s2.853-13.341,9.558-17.177c6.312-3.611,15.901-1.746,17.402,5.933
			c0.784,3.992-0.399,6.624-2.432,9.938c-1.208,1.967-4.79,5.98-3.761,8.226c1.228,2.691,7.16,2.404,9.598,3.198
			c3.417,1.111,6.006,3.039,8.289,5.925c4.17,5.279,5.047,12.417-0.665,17.535c-5.939,5.318-15.376,7.207-20.741,2.39
			c-3.54-3.177-4.864-12.294-9.741-9.839c-4.005,2.018-11.697,6.231-15.278,8.878c-3.655,2.703-7.03,4.84-11.56,6.018
			c-4.113,1.069-8.173,4.104-12.237,4.835"/>
		<path d="M307.359,195.957c-10.931,6.013-12.337,6.922-19.232,10.26c0.263,3.248,8.867,3.817,9.31,7.049
			c0.785-0.532,1.569-1.088,2.367-1.679c3.581-2.646,11.273-6.86,15.278-8.878c0.656-0.329,1.245-0.441,1.784-0.395
			C313.947,201.386,310.991,200.739,307.359,195.957z"/>
		<path d="M328.957,184.329c-0.258-0.242-0.475-0.513-0.615-0.829c-1.029-2.245,2.553-6.259,3.761-8.226
			c2.032-3.313,3.216-5.945,2.432-9.938c-0.469-2.41-1.738-4.247-3.454-5.521c1.035,6.456-2.74,17.333-14.215,18.96
			c3.104-0.34,8.957,3.049,9.648,9.586C326.514,188.361,327.752,184.15,328.957,184.329z"/>
		<path d="M319.938,204.683c1.61,2.43,2.899,6.081,4.885,7.864c5.365,4.817,14.802,2.929,20.741-2.39
			c4.929-4.416,4.946-10.332,2.184-15.264C346.231,202.879,333.219,211.811,319.938,204.683z"/>
		<path d="M307.359,195.957c0,0,11.627,7.896,17.374-2.507c2.973-5.382,0.4-9.422,0.4-9.422s3.162-1.463,4.479,1.393
			c0.671,1.459,1.161,4.164,0.952,6.94c-0.236,3.14-1.37,6.407-3.828,8.376c-1.709,1.368-4.128,2.099-5.749,2.296
			C310.477,204.306,307.359,195.957,307.359,195.957z"/>
		<path d="M295.587,183.99c-2.306-4.383-11.349,3.185-23.46,7.564c-11.238,4.035-25.07,6.072-35.845,5.848
			c-14.034-0.293-28.058-2.955-42.055-2.518c-15.873,0.496-34.387,6.073-49.101,12.101c-6.843,2.802-10.482,8.507-17.104,16.69
			c-4.799,5.932-14.604,10.44-17.604,14.933c-13.358,20.001-4.219,49.821,9.471,60.758c8.19,6.544,27.699,11.161,38.306,13.105
			c11.023,2.021,25.768-1.342,36.289-4.278c20.62-5.75,30.161-16.969,47.102-31.679c13.299-11.546,18.721-20.823,30.725-35.841
			c9.406-11.771,29.069-22.359,31.826-31.918C278.149,210.248,299.217,190.887,295.587,183.99z"/>
		<path d="M119.891,299.366c8.19,6.544,27.699,11.161,38.306,13.105c11.023,2.021,25.768-1.342,36.289-4.278
			c20.62-5.75,30.161-16.969,47.102-31.679c13.299-11.546,18.721-20.823,30.725-35.841c9.406-11.771,29.069-22.359,31.826-31.918
			c-3.032,0.174-5.42,0.061-7.283-0.279l-184.308,82.556C114.735,294.382,117.225,297.236,119.891,299.366z"/>
		<path d="M105.336,273.797c2.496,10.752,7.996,20.33,14.555,25.569c8.19,6.544,27.699,11.161,38.306,13.105
			c11.023,2.021,25.768-1.342,36.289-4.278c17.449-4.866,26.966-13.65,39.747-25.151L105.336,273.797z"/>
	</g>
	<g>
		<g>
			<path fill="#E7C6A2" d="M267.481,197.82c3.208-2.482,5.332-6.728,8.912-9.257c3.17-2.239,3.622-2.153,6.923-4.378
				c7.963-5.368,19.949-12.776,19.949-12.776s2.853-13.341,9.559-17.178c6.31-3.611,15.9-1.745,17.401,5.934
				c0.785,3.992-0.4,6.624-2.433,9.938c-1.207,1.966-4.79,5.979-3.761,8.225c1.229,2.692,7.16,2.404,9.598,3.198
				c3.418,1.113,6.008,3.038,8.291,5.925c4.17,5.278,5.046,12.417-0.666,17.535c-5.938,5.318-15.377,7.207-20.742,2.39
				c-3.538-3.176-4.863-12.293-9.74-9.838c-4.004,2.017-11.697,6.23-15.279,8.877c-3.654,2.703-7.03,4.84-11.559,6.019
				c-4.113,1.07-8.176,4.104-12.238,4.835"/>
			<g>
				<path fill="#C39974" d="M303.048,190.784c-10.929,6.014-12.337,6.923-19.231,10.26c0.263,3.249,8.865,3.817,9.309,7.05
					c0.785-0.532,1.569-1.088,2.367-1.68c3.582-2.646,11.275-6.86,15.279-8.877c0.655-0.329,1.246-0.442,1.785-0.395
					C309.635,196.215,306.68,195.567,303.048,190.784z"/>
				<path fill="#C39974" d="M324.648,179.157c-0.259-0.242-0.476-0.514-0.616-0.83c-1.029-2.245,2.554-6.259,3.761-8.225
					c2.032-3.313,3.218-5.945,2.433-9.938c-0.469-2.41-1.74-4.247-3.454-5.522c1.035,6.457-2.741,17.333-14.214,18.96
					c3.104-0.34,8.956,3.049,9.647,9.588C322.204,183.19,323.443,178.977,324.648,179.157z"/>
				<path fill="#C39974" d="M315.627,199.511c1.611,2.429,2.9,6.082,4.885,7.863c5.365,4.817,14.804,2.929,20.742-2.39
					c4.928-4.416,4.946-10.331,2.182-15.264C341.922,197.707,328.908,206.638,315.627,199.511z"/>
				<path fill="#C39974" d="M303.048,190.784c0,0,11.628,7.897,17.374-2.507c2.974-5.38,0.402-9.422,0.402-9.422
					s3.16-1.464,4.477,1.394c0.673,1.458,1.164,4.163,0.954,6.939c-0.237,3.141-1.37,6.409-3.83,8.376
					c-1.71,1.368-4.127,2.1-5.747,2.296C306.168,199.134,303.048,190.784,303.048,190.784z"/>
			</g>
			<path fill="#CB6E2F" d="M291.279,178.817c-2.306-4.382-11.351,3.186-23.464,7.564c-11.237,4.035-25.066,6.071-35.842,5.85
				c-14.036-0.294-28.059-2.956-42.057-2.519c-15.871,0.496-34.385,6.073-49.1,12.1c-6.842,2.802-10.481,8.508-17.103,16.691
				c-4.798,5.932-14.603,10.441-17.604,14.934c-13.358,19.999-4.218,49.819,9.471,60.756c8.191,6.545,27.698,11.161,38.307,13.106
				c11.023,2.021,25.767-1.343,36.288-4.278c20.619-5.75,30.16-16.968,47.102-31.679c13.3-11.547,18.721-20.823,30.725-35.842
				c9.407-11.77,29.07-22.359,31.825-31.918C273.839,205.075,294.906,185.715,291.279,178.817z"/>
			<path fill="#A45926" d="M115.58,294.193c8.191,6.545,27.698,11.161,38.307,13.106c11.023,2.021,25.767-1.343,36.288-4.278
				c20.619-5.75,30.16-16.968,47.102-31.679c13.3-11.547,18.721-20.823,30.725-35.842c9.407-11.77,29.07-22.359,31.825-31.918
				c-3.033,0.174-5.417,0.062-7.283-0.279l-184.307,82.556C110.425,289.211,112.914,292.062,115.58,294.193z"/>
			<path fill="#8B4B1F" d="M101.026,268.624c2.496,10.751,7.996,20.33,14.555,25.569c8.191,6.545,27.698,11.161,38.307,13.106
				c11.023,2.021,25.767-1.343,36.288-4.278c17.45-4.867,26.967-13.65,39.748-25.15L101.026,268.624z"/>
		</g>
	</g>
	<path fill="#A45926" d="M169.82,214.224c-1.698-0.129-3.394-0.408-5.065-0.837c-8.908-1.05-17.269-5.241-21.98-12.36
		c-0.66,0.261-1.313,0.522-1.957,0.785c-6.842,2.802-10.481,8.508-17.103,16.691c-4.232,5.233-12.36,9.36-16.277,13.346
		c18.346-4.911,62.483-16.78,62.656-17.351C170.105,214.459,170.004,214.362,169.82,214.224z"/>
	<circle fill="#EED6BE" cx="333.248" cy="189.721" r="5.442"/>
	<circle fill="#EED6BE" cx="312.556" cy="181.618" r="4.122"/>
	<g>
		<defs>
			<path id="SVGID_1_" d="M291.279,178.817c-2.306-4.382-11.351,3.186-23.464,7.564c-11.237,4.035-25.066,6.071-35.842,5.85
				c-14.036-0.294-28.059-2.956-42.057-2.519c-15.871,0.496-34.385,6.073-49.1,12.1c-6.842,2.802-10.481,8.508-17.103,16.691
				c-4.798,5.932-14.603,10.441-17.604,14.934c-13.358,19.999-4.218,49.819,9.471,60.756c8.191,6.545,27.698,11.161,38.307,13.106
				c11.023,2.021,25.767-1.343,36.288-4.278c20.619-5.75,30.16-16.968,47.102-31.679c13.3-11.547,18.721-20.823,30.725-35.842
				c9.407-11.77,29.07-22.359,31.825-31.918C273.839,205.075,294.906,185.715,291.279,178.817z"/>
		</defs>
		<clipPath id="SVGID_2_">
			<use xlink:href="#SVGID_1_"  overflow="visible"/>
		</clipPath>
		<g opacity="0.3" clip-path="url(#SVGID_2_)">
			<g>
				<circle fill="#332811" cx="43.669" cy="240.515" r="2.056"/>
				<circle fill="#332811" cx="55.067" cy="235.368" r="2.057"/>
				<circle fill="#332811" cx="66.464" cy="230.221" r="2.058"/>
				<circle fill="#332811" cx="77.86" cy="225.075" r="2.057"/>
				<circle fill="#332811" cx="89.258" cy="219.927" r="2.058"/>
				<circle fill="#332811" cx="100.654" cy="214.782" r="2.057"/>
				<circle fill="#332811" cx="112.051" cy="209.635" r="2.057"/>
				<circle fill="#332811" cx="123.448" cy="204.489" r="2.058"/>
				<path fill="#332811" d="M136.72,198.494c0.468,1.036,0.008,2.256-1.027,2.724c-1.036,0.467-2.257,0.006-2.724-1.029
					s-0.008-2.254,1.031-2.722C135.032,197,136.253,197.46,136.72,198.494z"/>
				<circle fill="#332811" cx="146.242" cy="194.194" r="2.057"/>
				<circle fill="#332811" cx="157.638" cy="189.048" r="2.058"/>
				<circle fill="#332811" cx="169.035" cy="183.902" r="2.057"/>
				<circle fill="#332811" cx="180.432" cy="178.755" r="2.057"/>
				<path fill="#332811" d="M193.705,172.761c0.467,1.035,0.006,2.255-1.027,2.723c-1.039,0.469-2.256,0.006-2.724-1.029
					c-0.467-1.036-0.009-2.254,1.028-2.722C192.017,171.266,193.237,171.726,193.705,172.761z"/>
				<circle fill="#332811" cx="53.104" cy="246.215" r="2.057"/>
				<circle fill="#332811" cx="64.501" cy="241.067" r="2.058"/>
				<circle fill="#332811" cx="75.897" cy="235.921" r="2.057"/>
				<circle fill="#332811" cx="87.295" cy="230.774" r="2.057"/>
				<circle fill="#332811" cx="98.691" cy="225.627" r="2.058"/>
				<circle fill="#332811" cx="110.088" cy="220.481" r="2.057"/>
				<path fill="#332811" d="M123.36,214.487c0.469,1.037,0.008,2.254-1.029,2.723c-1.035,0.468-2.25,0.007-2.719-1.03
					c-0.469-1.035-0.01-2.252,1.024-2.72C121.674,212.991,122.892,213.452,123.36,214.487z"/>
				<circle fill="#332811" cx="132.882" cy="210.188" r="2.058"/>
				<path fill="#332811" d="M146.153,204.194c0.469,1.036,0.009,2.254-1.026,2.722c-1.038,0.469-2.255,0.009-2.723-1.028
					c-0.469-1.036-0.009-2.254,1.029-2.722C144.468,202.698,145.686,203.158,146.153,204.194z"/>
				<circle fill="#332811" cx="155.676" cy="199.894" r="2.058"/>
				<circle fill="#332811" cx="167.073" cy="194.747" r="2.058"/>
				<circle fill="#332811" cx="178.469" cy="189.6" r="2.057"/>
				<circle fill="#332811" cx="189.866" cy="184.454" r="2.057"/>
				<path fill="#332811" d="M203.138,178.461c0.467,1.036,0.007,2.254-1.03,2.722c-1.031,0.468-2.252,0.008-2.721-1.028
					c-0.467-1.036-0.006-2.256,1.029-2.722C201.451,176.965,202.669,177.424,203.138,178.461z"/>
				<circle fill="#332811" cx="51.477" cy="257.474" r="2.057"/>
				<circle fill="#332811" cx="62.874" cy="252.328" r="2.058"/>
				<circle fill="#332811" cx="74.27" cy="247.181" r="2.056"/>
				<circle fill="#332811" cx="85.667" cy="242.034" r="2.058"/>
				<circle fill="#332811" cx="97.065" cy="236.888" r="2.056"/>
				<path fill="#332811" d="M110.338,230.893c0.468,1.035,0.006,2.256-1.028,2.724c-1.036,0.468-2.257,0.007-2.724-1.029
					c-0.468-1.035-0.008-2.254,1.03-2.723C108.65,229.398,109.87,229.858,110.338,230.893z"/>
				<circle fill="#332811" cx="119.859" cy="226.594" r="2.056"/>
				<circle fill="#332811" cx="131.256" cy="221.448" r="2.058"/>
				<circle fill="#332811" cx="142.652" cy="216.302" r="2.057"/>
				<circle fill="#332811" cx="154.049" cy="211.154" r="2.057"/>
				<circle fill="#332811" cx="165.447" cy="206.008" r="2.057"/>
				<circle fill="#332811" cx="176.844" cy="200.861" r="2.057"/>
				<path fill="#332811" d="M190.114,194.868c0.468,1.035,0.011,2.254-1.027,2.723c-1.035,0.468-2.254,0.007-2.721-1.029
					c-0.469-1.036-0.009-2.254,1.026-2.722C188.43,193.371,189.647,193.832,190.114,194.868z"/>
				<circle fill="#332811" cx="199.637" cy="190.567" r="2.057"/>
				<circle fill="#332811" cx="60.912" cy="263.174" r="2.058"/>
				<circle fill="#332811" cx="72.308" cy="258.026" r="2.057"/>
				<circle fill="#332811" cx="83.705" cy="252.881" r="2.057"/>
				<circle fill="#332811" cx="95.101" cy="247.733" r="2.058"/>
				<circle fill="#332811" cx="106.499" cy="242.587" r="2.058"/>
				<circle fill="#332811" cx="117.895" cy="237.44" r="2.057"/>
				<circle fill="#332811" cx="129.293" cy="232.293" r="2.058"/>
				<circle fill="#332811" cx="140.688" cy="227.147" r="2.058"/>
				<circle fill="#332811" cx="152.086" cy="222" r="2.057"/>
				<circle fill="#332811" cx="163.482" cy="216.853" r="2.058"/>
				<circle fill="#332811" cx="174.88" cy="211.706" r="2.056"/>
				<circle fill="#332811" cx="186.277" cy="206.559" r="2.056"/>
				<circle fill="#332811" cx="197.674" cy="201.413" r="2.058"/>
				<circle fill="#332811" cx="209.07" cy="196.266" r="2.059"/>
				<circle fill="#332811" cx="59.285" cy="274.433" r="2.057"/>
				<circle fill="#332811" cx="70.681" cy="269.287" r="2.058"/>
				<circle fill="#332811" cx="82.079" cy="264.14" r="2.058"/>
				<circle fill="#332811" cx="93.476" cy="258.993" r="2.056"/>
				<circle fill="#332811" cx="104.873" cy="253.847" r="2.058"/>
				<circle fill="#332811" cx="116.27" cy="248.7" r="2.057"/>
				<circle fill="#332811" cx="127.666" cy="243.553" r="2.058"/>
				<circle fill="#332811" cx="139.063" cy="238.407" r="2.057"/>
				<circle fill="#332811" cx="150.46" cy="233.26" r="2.058"/>
				<circle fill="#332811" cx="161.856" cy="228.114" r="2.057"/>
				<circle fill="#332811" cx="173.254" cy="222.967" r="2.057"/>
				<circle fill="#332811" cx="184.651" cy="217.82" r="2.058"/>
				<circle fill="#332811" cx="196.047" cy="212.673" r="2.056"/>
				<circle fill="#332811" cx="207.443" cy="207.526" r="2.058"/>
				<circle fill="#332811" cx="68.718" cy="280.133" r="2.058"/>
				<circle fill="#332811" cx="80.115" cy="274.985" r="2.057"/>
				<circle fill="#332811" cx="91.512" cy="269.838" r="2.058"/>
				<circle fill="#332811" cx="102.908" cy="264.692" r="2.056"/>
				<circle fill="#332811" cx="114.305" cy="259.546" r="2.057"/>
				<circle fill="#332811" cx="125.702" cy="254.399" r="2.058"/>
				<circle fill="#332811" cx="137.1" cy="249.251" r="2.057"/>
				<circle fill="#332811" cx="148.497" cy="244.105" r="2.058"/>
				<circle fill="#332811" cx="159.892" cy="238.959" r="2.056"/>
				<circle fill="#332811" cx="171.29" cy="233.812" r="2.058"/>
				<circle fill="#332811" cx="182.688" cy="228.664" r="2.058"/>
				<circle fill="#332811" cx="194.083" cy="223.518" r="2.059"/>
				<circle fill="#332811" cx="205.481" cy="218.371" r="2.056"/>
				<circle fill="#332811" cx="216.877" cy="213.224" r="2.057"/>
				<circle fill="#332811" cx="67.092" cy="291.391" r="2.057"/>
				<path fill="#332811" d="M80.364,285.398c0.469,1.038,0.008,2.254-1.026,2.721c-1.038,0.469-2.256,0.012-2.725-1.025
					c-0.467-1.036-0.006-2.254,1.032-2.722C78.677,283.904,79.897,284.364,80.364,285.398z"/>
				<circle fill="#332811" cx="89.885" cy="281.099" r="2.058"/>
				<circle fill="#332811" cx="101.283" cy="275.951" r="2.058"/>
				<circle fill="#332811" cx="112.679" cy="270.805" r="2.058"/>
				<circle fill="#332811" cx="124.077" cy="265.658" r="2.058"/>
				<circle fill="#332811" cx="135.473" cy="260.512" r="2.057"/>
				<circle fill="#332811" cx="146.87" cy="255.365" r="2.056"/>
				<path fill="#332811" d="M160.142,249.371c0.469,1.039,0.009,2.255-1.029,2.724c-1.035,0.467-2.251,0.008-2.72-1.029
					c-0.469-1.036-0.009-2.253,1.027-2.721C158.455,247.877,159.673,248.338,160.142,249.371z"/>
				<circle fill="#332811" cx="169.664" cy="245.073" r="2.057"/>
				<path fill="#332811" d="M182.936,239.078c0.468,1.038,0.008,2.255-1.029,2.722c-1.034,0.468-2.253,0.011-2.722-1.028
					c-0.467-1.033-0.005-2.253,1.028-2.721C181.25,237.584,182.467,238.043,182.936,239.078z"/>
				<path fill="#332811" d="M194.333,233.931c0.468,1.038,0.007,2.254-1.029,2.721c-1.036,0.469-2.251,0.009-2.72-1.027
					c-0.468-1.036-0.008-2.253,1.027-2.721C192.647,232.437,193.865,232.895,194.333,233.931z"/>
				<path fill="#332811" d="M205.731,228.785c0.467,1.036,0.003,2.256-1.029,2.722c-1.036,0.468-2.254,0.01-2.723-1.028
					c-0.469-1.035-0.007-2.253,1.03-2.722C204.041,227.291,205.262,227.75,205.731,228.785z"/>
				<circle fill="#332811" cx="215.251" cy="224.486" r="2.056"/>
				<circle fill="#332811" cx="76.526" cy="297.092" r="2.057"/>
				<circle fill="#332811" cx="87.922" cy="291.945" r="2.057"/>
				<circle fill="#332811" cx="99.319" cy="286.798" r="2.058"/>
				<circle fill="#332811" cx="110.716" cy="281.651" r="2.058"/>
				<circle fill="#332811" cx="122.115" cy="276.504" r="2.058"/>
				<circle fill="#332811" cx="133.51" cy="271.358" r="2.058"/>
				<circle fill="#332811" cx="144.906" cy="266.211" r="2.057"/>
				<circle fill="#332811" cx="156.304" cy="261.064" r="2.057"/>
				<circle fill="#332811" cx="167.699" cy="255.918" r="2.058"/>
				<circle fill="#332811" cx="179.097" cy="250.771" r="2.057"/>
				<circle fill="#332811" cx="190.494" cy="245.625" r="2.057"/>
				<circle fill="#332811" cx="201.892" cy="240.478" r="2.056"/>
				<circle fill="#332811" cx="213.289" cy="235.33" r="2.058"/>
				<circle fill="#332811" cx="224.684" cy="230.185" r="2.056"/>
				<circle fill="#332811" cx="74.9" cy="308.352" r="2.057"/>
				<circle fill="#332811" cx="86.297" cy="303.206" r="2.058"/>
				<circle fill="#332811" cx="97.693" cy="298.059" r="2.057"/>
				<path fill="#332811" d="M110.965,292.065c0.468,1.036,0.007,2.254-1.027,2.721c-1.036,0.469-2.254,0.009-2.723-1.027
					c-0.467-1.034-0.007-2.254,1.03-2.722C109.278,290.569,110.498,291.03,110.965,292.065z"/>
				<circle fill="#332811" cx="120.488" cy="287.765" r="2.056"/>
				<circle fill="#332811" cx="131.885" cy="282.619" r="2.057"/>
				<circle fill="#332811" cx="143.28" cy="277.472" r="2.058"/>
				<circle fill="#332811" cx="154.677" cy="272.325" r="2.058"/>
				<circle fill="#332811" cx="166.075" cy="267.178" r="2.058"/>
				<circle fill="#332811" cx="177.473" cy="262.032" r="2.056"/>
				<circle fill="#332811" cx="188.868" cy="256.885" r="2.057"/>
				<circle fill="#332811" cx="200.265" cy="251.739" r="2.057"/>
				<circle fill="#332811" cx="211.661" cy="246.593" r="2.058"/>
				<circle fill="#332811" cx="223.059" cy="241.446" r="2.058"/>
				<path fill="#332811" d="M86.208,313.203c0.469,1.037,0.008,2.256-1.03,2.724c-1.032,0.466-2.253,0.007-2.721-1.029
					c-0.468-1.034-0.006-2.254,1.028-2.722C84.522,311.709,85.74,312.169,86.208,313.203z"/>
				<circle fill="#332811" cx="95.729" cy="308.905" r="2.058"/>
				<circle fill="#332811" cx="107.126" cy="303.757" r="2.056"/>
				<circle fill="#332811" cx="118.523" cy="298.611" r="2.057"/>
				<circle fill="#332811" cx="129.921" cy="293.464" r="2.058"/>
				<circle fill="#332811" cx="141.317" cy="288.318" r="2.058"/>
				<circle fill="#332811" cx="152.715" cy="283.17" r="2.058"/>
				<circle fill="#332811" cx="164.11" cy="278.024" r="2.058"/>
				<circle fill="#332811" cx="175.508" cy="272.877" r="2.057"/>
				<circle fill="#332811" cx="186.905" cy="267.73" r="2.058"/>
				<circle fill="#332811" cx="198.302" cy="262.583" r="2.058"/>
				<circle fill="#332811" cx="209.698" cy="257.437" r="2.058"/>
				<circle fill="#332811" cx="221.095" cy="252.29" r="2.057"/>
				<circle fill="#332811" cx="232.493" cy="247.143" r="2.058"/>
				<circle fill="#332811" cx="82.707" cy="325.31" r="2.057"/>
				<path fill="#332811" d="M95.979,319.317c0.469,1.036,0.008,2.255-1.027,2.723c-1.036,0.468-2.254,0.007-2.722-1.029
					c-0.469-1.036-0.009-2.253,1.026-2.722C94.294,317.821,95.51,318.281,95.979,319.317z"/>
				<circle fill="#332811" cx="105.501" cy="315.017" r="2.057"/>
				<circle fill="#332811" cx="116.898" cy="309.87" r="2.057"/>
				<circle fill="#332811" cx="128.295" cy="304.724" r="2.058"/>
				<circle fill="#332811" cx="139.692" cy="299.577" r="2.057"/>
				<circle fill="#332811" cx="151.089" cy="294.43" r="2.058"/>
				<circle fill="#332811" cx="162.486" cy="289.284" r="2.057"/>
				<circle fill="#332811" cx="173.882" cy="284.136" r="2.057"/>
				<path fill="#332811" d="M187.155,278.142c0.469,1.037,0.007,2.257-1.027,2.723c-1.039,0.47-2.255,0.008-2.723-1.028
					s-0.011-2.253,1.028-2.722C185.467,276.648,186.688,277.107,187.155,278.142z"/>
				<circle fill="#332811" cx="196.676" cy="273.844" r="2.059"/>
				<circle fill="#332811" cx="208.073" cy="268.698" r="2.058"/>
				<circle fill="#332811" cx="219.47" cy="263.551" r="2.057"/>
				<circle fill="#332811" cx="230.866" cy="258.404" r="2.057"/>
				<circle fill="#332811" cx="92.14" cy="331.01" r="2.056"/>
				<path fill="#332811" d="M105.413,325.016c0.467,1.035,0.007,2.255-1.029,2.724c-1.034,0.467-2.255,0.005-2.722-1.031
					c-0.469-1.033-0.006-2.254,1.027-2.722C103.726,323.52,104.946,323.98,105.413,325.016z"/>
				<circle fill="#332811" cx="114.934" cy="320.717" r="2.057"/>
				<circle fill="#332811" cx="126.331" cy="315.57" r="2.057"/>
				<circle fill="#332811" cx="137.727" cy="310.424" r="2.058"/>
				<circle fill="#332811" cx="149.124" cy="305.277" r="2.056"/>
				<circle fill="#332811" cx="160.522" cy="300.13" r="2.056"/>
				<circle fill="#332811" cx="171.919" cy="294.983" r="2.058"/>
				<circle fill="#332811" cx="183.317" cy="289.836" r="2.057"/>
				<circle fill="#332811" cx="194.712" cy="284.69" r="2.057"/>
				<circle fill="#332811" cx="206.109" cy="279.543" r="2.057"/>
				<circle fill="#332811" cx="217.506" cy="274.396" r="2.057"/>
				<circle fill="#332811" cx="228.903" cy="269.248" r="2.059"/>
				<circle fill="#332811" cx="240.3" cy="264.102" r="2.058"/>
				<circle fill="#332811" cx="90.514" cy="342.269" r="2.057"/>
				<circle fill="#332811" cx="101.911" cy="337.124" r="2.058"/>
				<circle fill="#332811" cx="113.308" cy="331.977" r="2.057"/>
				<circle fill="#332811" cx="124.705" cy="326.83" r="2.058"/>
				<path fill="#332811" d="M137.978,320.837c0.466,1.034,0.007,2.253-1.029,2.72c-1.035,0.469-2.256,0.008-2.723-1.025
					c-0.468-1.038-0.005-2.255,1.028-2.723C136.292,319.341,137.509,319.801,137.978,320.837z"/>
				<circle fill="#332811" cx="147.499" cy="316.536" r="2.058"/>
				<circle fill="#332811" cx="158.895" cy="311.39" r="2.057"/>
				<circle fill="#332811" cx="170.292" cy="306.243" r="2.057"/>
				<circle fill="#332811" cx="181.689" cy="301.096" r="2.059"/>
				<circle fill="#332811" cx="193.087" cy="295.949" r="2.057"/>
				<circle fill="#332811" cx="204.483" cy="290.802" r="2.058"/>
				<path fill="#332811" d="M217.754,284.81c0.466,1.034,0.008,2.253-1.026,2.719c-1.038,0.469-2.255,0.008-2.723-1.027
					s-0.008-2.252,1.03-2.721C216.067,283.314,217.285,283.774,217.754,284.81z"/>
				<circle fill="#332811" cx="227.277" cy="280.51" r="2.058"/>
				<path fill="#332811" d="M240.548,274.515c0.468,1.035,0.008,2.255-1.026,2.722c-1.038,0.468-2.256,0.007-2.723-1.028
					c-0.469-1.036-0.008-2.253,1.027-2.722C238.863,273.019,240.081,273.48,240.548,274.515z"/>
				<circle fill="#332811" cx="99.949" cy="347.969" r="2.057"/>
				<circle fill="#332811" cx="111.345" cy="342.824" r="2.057"/>
				<circle fill="#332811" cx="122.743" cy="337.677" r="2.056"/>
				<circle fill="#332811" cx="134.138" cy="332.53" r="2.058"/>
				<circle fill="#332811" cx="145.537" cy="327.383" r="2.057"/>
				<circle fill="#332811" cx="156.934" cy="322.237" r="2.058"/>
				<circle fill="#332811" cx="168.329" cy="317.091" r="2.057"/>
				<circle fill="#332811" cx="179.727" cy="311.943" r="2.058"/>
				<circle fill="#332811" cx="191.123" cy="306.797" r="2.057"/>
				<circle fill="#332811" cx="202.52" cy="301.65" r="2.057"/>
				<path fill="#332811" d="M215.792,295.656c0.467,1.035,0.006,2.256-1.026,2.722c-1.038,0.469-2.254,0.005-2.722-1.028
					c-0.468-1.036-0.01-2.254,1.026-2.722C214.105,294.16,215.323,294.62,215.792,295.656z"/>
				<circle fill="#332811" cx="225.315" cy="291.356" r="2.056"/>
				<circle fill="#332811" cx="236.711" cy="286.21" r="2.058"/>
				<circle fill="#332811" cx="248.11" cy="281.063" r="2.058"/>
			</g>
			<g>
				<circle fill="#332811" cx="202.871" cy="168.622" r="2.058"/>
				<circle fill="#332811" cx="214.268" cy="163.475" r="2.058"/>
				<circle fill="#332811" cx="225.664" cy="158.329" r="2.057"/>
				<path fill="#332811" d="M238.936,152.336c0.467,1.035,0.01,2.254-1.025,2.722c-1.039,0.469-2.259,0.008-2.726-1.028
					c-0.468-1.035-0.008-2.254,1.03-2.723C237.251,150.84,238.469,151.301,238.936,152.336z"/>
				<circle fill="#332811" cx="248.458" cy="148.036" r="2.057"/>
				<circle fill="#332811" cx="259.854" cy="142.889" r="2.058"/>
				<circle fill="#332811" cx="271.252" cy="137.742" r="2.058"/>
				<circle fill="#332811" cx="282.648" cy="132.594" r="2.059"/>
				<circle fill="#332811" cx="294.044" cy="127.448" r="2.056"/>
				<circle fill="#332811" cx="305.443" cy="122.301" r="2.056"/>
				<circle fill="#332811" cx="316.839" cy="117.156" r="2.058"/>
				<circle fill="#332811" cx="328.236" cy="112.009" r="2.056"/>
				<circle fill="#332811" cx="339.633" cy="106.862" r="2.058"/>
				<circle fill="#332811" cx="351.03" cy="101.715" r="2.057"/>
				<circle fill="#332811" cx="212.303" cy="174.321" r="2.057"/>
				<circle fill="#332811" cx="223.701" cy="169.175" r="2.057"/>
				<circle fill="#332811" cx="235.098" cy="164.028" r="2.057"/>
				<circle fill="#332811" cx="246.495" cy="158.881" r="2.056"/>
				<circle fill="#332811" cx="257.892" cy="153.734" r="2.057"/>
				<circle fill="#332811" cx="269.289" cy="148.588" r="2.058"/>
				<path fill="#332811" d="M282.56,142.594c0.469,1.036,0.009,2.254-1.029,2.723c-1.035,0.468-2.252,0.008-2.72-1.029
					c-0.469-1.035-0.008-2.253,1.026-2.721C280.875,141.097,282.093,141.558,282.56,142.594z"/>
				<circle fill="#332811" cx="292.082" cy="138.294" r="2.058"/>
				<circle fill="#332811" cx="303.479" cy="133.147" r="2.057"/>
				<circle fill="#332811" cx="314.875" cy="128.001" r="2.057"/>
				<circle fill="#332811" cx="326.273" cy="122.855" r="2.058"/>
				<circle fill="#332811" cx="337.67" cy="117.707" r="2.058"/>
				<circle fill="#332811" cx="349.065" cy="112.561" r="2.058"/>
				<circle fill="#332811" cx="360.463" cy="107.414" r="2.057"/>
				<circle fill="#332811" cx="210.677" cy="185.581" r="2.057"/>
				<circle fill="#332811" cx="222.074" cy="180.434" r="2.056"/>
				<path fill="#332811" d="M235.346,174.441c0.467,1.035,0.009,2.255-1.027,2.723c-1.035,0.468-2.254,0.006-2.721-1.029
					c-0.469-1.036-0.009-2.254,1.026-2.722C233.662,172.944,234.877,173.407,235.346,174.441z"/>
				<circle fill="#332811" cx="244.868" cy="170.141" r="2.059"/>
				<circle fill="#332811" cx="256.264" cy="164.995" r="2.058"/>
				<circle fill="#332811" cx="267.662" cy="159.847" r="2.057"/>
				<path fill="#332811" d="M280.934,153.854c0.467,1.035,0.008,2.256-1.025,2.722c-1.039,0.469-2.257,0.008-2.725-1.027
					c-0.468-1.036-0.009-2.254,1.029-2.723C279.247,152.359,280.467,152.819,280.934,153.854z"/>
				<circle fill="#332811" cx="290.456" cy="149.554" r="2.058"/>
				<circle fill="#332811" cx="301.852" cy="144.407" r="2.057"/>
				<circle fill="#332811" cx="313.25" cy="139.261" r="2.058"/>
				<circle fill="#332811" cx="324.647" cy="134.114" r="2.057"/>
				<path fill="#332811" d="M337.918,128.12c0.469,1.036,0.009,2.257-1.029,2.724c-1.033,0.468-2.253,0.006-2.72-1.029
					c-0.469-1.035-0.009-2.254,1.025-2.721C336.233,126.625,337.451,127.085,337.918,128.12z"/>
				<circle fill="#332811" cx="347.44" cy="123.821" r="2.057"/>
				<circle fill="#332811" cx="358.837" cy="118.674" r="2.058"/>
				<circle fill="#332811" cx="220.111" cy="191.281" r="2.057"/>
				<circle fill="#332811" cx="231.509" cy="186.135" r="2.057"/>
				<circle fill="#332811" cx="242.906" cy="180.987" r="2.058"/>
				<circle fill="#332811" cx="254.302" cy="175.841" r="2.058"/>
				<circle fill="#332811" cx="265.698" cy="170.694" r="2.058"/>
				<circle fill="#332811" cx="277.096" cy="165.547" r="2.057"/>
				<path fill="#332811" d="M290.367,159.554c0.468,1.033,0.008,2.253-1.029,2.722c-1.034,0.467-2.252,0.006-2.719-1.03
					c-0.469-1.034-0.01-2.253,1.025-2.72C288.682,158.057,289.9,158.518,290.367,159.554z"/>
				<path fill="#332811" d="M301.764,154.407c0.467,1.035,0.007,2.254-1.025,2.72c-1.038,0.471-2.256,0.009-2.725-1.026
					c-0.467-1.035-0.007-2.254,1.03-2.723C300.078,152.911,301.296,153.373,301.764,154.407z"/>
				<circle fill="#332811" cx="311.287" cy="150.107" r="2.058"/>
				<circle fill="#332811" cx="322.683" cy="144.959" r="2.059"/>
				<circle fill="#332811" cx="334.079" cy="139.814" r="2.056"/>
				<circle fill="#332811" cx="345.477" cy="134.667" r="2.056"/>
				<circle fill="#332811" cx="356.874" cy="129.52" r="2.057"/>
				<circle fill="#332811" cx="368.27" cy="124.373" r="2.058"/>
				<circle fill="#332811" cx="218.486" cy="202.54" r="2.057"/>
				<circle fill="#332811" cx="229.882" cy="197.394" r="2.058"/>
				<path fill="#332811" d="M243.153,191.401c0.468,1.034,0.011,2.254-1.027,2.722c-1.035,0.467-2.254,0.006-2.721-1.029
					c-0.469-1.036-0.008-2.254,1.026-2.722C241.469,189.905,242.686,190.365,243.153,191.401z"/>
				<circle fill="#332811" cx="252.676" cy="187.101" r="2.057"/>
				<circle fill="#332811" cx="264.073" cy="181.953" r="2.058"/>
				<path fill="#332811" d="M277.344,175.96c0.468,1.035,0.009,2.255-1.027,2.724c-1.035,0.467-2.253,0.006-2.72-1.03
					c-0.469-1.036-0.011-2.254,1.025-2.722C275.66,174.465,276.875,174.925,277.344,175.96z"/>
				<circle fill="#332811" cx="286.866" cy="171.661" r="2.057"/>
				<circle fill="#332811" cx="298.262" cy="166.513" r="2.058"/>
				<circle fill="#332811" cx="309.66" cy="161.366" r="2.058"/>
				<circle fill="#332811" cx="321.056" cy="156.22" r="2.058"/>
				<circle fill="#332811" cx="332.454" cy="151.073" r="2.058"/>
				<circle fill="#332811" cx="343.851" cy="145.927" r="2.058"/>
				<path fill="#332811" d="M357.121,139.934c0.469,1.034,0.01,2.253-1.025,2.721c-1.038,0.468-2.256,0.007-2.723-1.028
					c-0.469-1.037-0.009-2.254,1.028-2.723C355.438,138.436,356.655,138.898,357.121,139.934z"/>
				<circle fill="#332811" cx="366.644" cy="135.634" r="2.056"/>
				<circle fill="#332811" cx="227.918" cy="208.239" r="2.057"/>
				<path fill="#332811" d="M241.19,202.246c0.469,1.035,0.009,2.255-1.027,2.723c-1.034,0.468-2.252,0.007-2.721-1.031
					c-0.468-1.033-0.008-2.253,1.027-2.72C239.504,200.749,240.723,201.21,241.19,202.246z"/>
				<circle fill="#332811" cx="250.714" cy="197.946" r="2.059"/>
				<circle fill="#332811" cx="262.108" cy="192.8" r="2.058"/>
				<path fill="#332811" d="M275.379,186.805c0.469,1.036,0.011,2.254-1.026,2.723c-1.036,0.468-2.253,0.008-2.722-1.029
					c-0.467-1.035-0.009-2.255,1.027-2.722C273.697,185.308,274.912,185.769,275.379,186.805z"/>
				<circle fill="#332811" cx="284.904" cy="182.505" r="2.058"/>
				<circle fill="#332811" cx="296.301" cy="177.359" r="2.059"/>
				<circle fill="#332811" cx="307.697" cy="172.212" r="2.058"/>
				<circle fill="#332811" cx="319.093" cy="167.066" r="2.058"/>
				<circle fill="#332811" cx="330.49" cy="161.919" r="2.057"/>
				<circle fill="#332811" cx="341.888" cy="156.772" r="2.057"/>
				<circle fill="#332811" cx="353.284" cy="151.626" r="2.058"/>
				<circle fill="#332811" cx="364.68" cy="146.478" r="2.058"/>
				<circle fill="#332811" cx="376.077" cy="141.332" r="2.056"/>
				<circle fill="#332811" cx="226.293" cy="219.499" r="2.058"/>
				<circle fill="#332811" cx="237.689" cy="214.352" r="2.057"/>
				<circle fill="#332811" cx="249.086" cy="209.205" r="2.057"/>
				<path fill="#332811" d="M262.358,203.213c0.469,1.036,0.008,2.253-1.027,2.722c-1.036,0.467-2.255,0.009-2.722-1.028
					c-0.468-1.035-0.008-2.255,1.026-2.722C260.673,201.717,261.891,202.177,262.358,203.213z"/>
				<path fill="#332811" d="M273.755,198.065c0.468,1.038,0.009,2.254-1.027,2.722c-1.038,0.469-2.256,0.01-2.724-1.027
					c-0.467-1.036-0.007-2.253,1.031-2.722C272.069,196.57,273.286,197.031,273.755,198.065z"/>
				<circle fill="#332811" cx="283.277" cy="193.766" r="2.058"/>
				<path fill="#332811" d="M296.549,187.772c0.467,1.038,0.006,2.254-1.027,2.72c-1.036,0.469-2.255,0.012-2.724-1.026
					c-0.469-1.035-0.006-2.254,1.03-2.722C294.864,186.277,296.08,186.737,296.549,187.772z"/>
				<circle fill="#332811" cx="306.071" cy="183.471" r="2.057"/>
				<circle fill="#332811" cx="317.468" cy="178.325" r="2.056"/>
				<path fill="#332811" d="M330.739,172.332c0.468,1.038,0.008,2.254-1.029,2.723c-1.034,0.468-2.252,0.009-2.72-1.029
					c-0.468-1.035-0.008-2.253,1.026-2.72C329.054,170.838,330.272,171.298,330.739,172.332z"/>
				<circle fill="#332811" cx="340.261" cy="168.031" r="2.057"/>
				<path fill="#332811" d="M353.533,162.037c0.469,1.039,0.007,2.256-1.028,2.724c-1.036,0.467-2.254,0.008-2.723-1.028
					c-0.468-1.035-0.007-2.253,1.029-2.722C351.846,160.544,353.067,161.004,353.533,162.037z"/>
				<circle fill="#332811" cx="363.054" cy="157.74" r="2.059"/>
				<path fill="#332811" d="M376.326,151.746c0.469,1.036,0.008,2.254-1.028,2.722c-1.036,0.467-2.253,0.009-2.722-1.03
					c-0.467-1.033-0.006-2.253,1.029-2.721C374.64,150.25,375.859,150.71,376.326,151.746z"/>
				<circle fill="#332811" cx="235.727" cy="225.198" r="2.057"/>
				<circle fill="#332811" cx="247.122" cy="220.052" r="2.057"/>
				<circle fill="#332811" cx="258.519" cy="214.905" r="2.057"/>
				<circle fill="#332811" cx="269.917" cy="209.758" r="2.058"/>
				<circle fill="#332811" cx="281.315" cy="204.611" r="2.057"/>
				<circle fill="#332811" cx="292.711" cy="199.465" r="2.058"/>
				<circle fill="#332811" cx="304.108" cy="194.318" r="2.057"/>
				<circle fill="#332811" cx="315.505" cy="189.171" r="2.056"/>
				<circle fill="#332811" cx="326.901" cy="184.025" r="2.057"/>
				<circle fill="#332811" cx="338.298" cy="178.878" r="2.058"/>
				<circle fill="#332811" cx="349.696" cy="173.731" r="2.058"/>
				<circle fill="#332811" cx="361.092" cy="168.584" r="2.058"/>
				<circle fill="#332811" cx="372.488" cy="163.438" r="2.057"/>
				<circle fill="#332811" cx="383.884" cy="158.291" r="2.056"/>
				<path fill="#332811" d="M235.975,235.612c0.468,1.035,0.008,2.253-1.027,2.722c-1.036,0.468-2.254,0.008-2.721-1.028
					c-0.469-1.036-0.009-2.254,1.025-2.722C234.29,234.116,235.508,234.577,235.975,235.612z"/>
				<circle fill="#332811" cx="245.497" cy="231.312" r="2.056"/>
				<circle fill="#332811" cx="256.893" cy="226.166" r="2.057"/>
				<circle fill="#332811" cx="268.29" cy="221.019" r="2.057"/>
				<circle fill="#332811" cx="279.688" cy="215.872" r="2.057"/>
				<circle fill="#332811" cx="291.085" cy="210.725" r="2.057"/>
				<circle fill="#332811" cx="302.481" cy="205.579" r="2.057"/>
				<circle fill="#332811" cx="313.878" cy="200.432" r="2.057"/>
				<circle fill="#332811" cx="325.276" cy="195.285" r="2.059"/>
				<circle fill="#332811" cx="336.673" cy="190.139" r="2.058"/>
				<circle fill="#332811" cx="348.069" cy="184.992" r="2.057"/>
				<circle fill="#332811" cx="359.465" cy="179.845" r="2.056"/>
				<circle fill="#332811" cx="370.862" cy="174.699" r="2.058"/>
				<circle fill="#332811" cx="382.26" cy="169.552" r="2.058"/>
				<path fill="#332811" d="M245.409,241.31c0.469,1.036,0.007,2.254-1.03,2.723c-1.033,0.466-2.254,0.007-2.723-1.028
					c-0.467-1.035-0.005-2.255,1.029-2.722C243.722,239.815,244.942,240.275,245.409,241.31z"/>
				<circle fill="#332811" cx="254.93" cy="237.011" r="2.057"/>
				<path fill="#332811" d="M268.202,231.016c0.468,1.038,0.008,2.255-1.028,2.722c-1.035,0.468-2.255,0.009-2.724-1.026
					c-0.467-1.035-0.006-2.255,1.03-2.724C266.517,229.521,267.735,229.982,268.202,231.016z"/>
				<circle fill="#332811" cx="277.724" cy="226.717" r="2.057"/>
				<circle fill="#332811" cx="289.121" cy="221.571" r="2.057"/>
				<circle fill="#332811" cx="300.518" cy="216.423" r="2.058"/>
				<circle fill="#332811" cx="311.915" cy="211.277" r="2.058"/>
				<circle fill="#332811" cx="323.311" cy="206.13" r="2.057"/>
				<circle fill="#332811" cx="334.709" cy="200.983" r="2.057"/>
				<circle fill="#332811" cx="346.105" cy="195.837" r="2.057"/>
				<circle fill="#332811" cx="357.502" cy="190.69" r="2.058"/>
				<circle fill="#332811" cx="368.899" cy="185.543" r="2.058"/>
				<circle fill="#332811" cx="380.297" cy="180.396" r="2.057"/>
				<circle fill="#332811" cx="391.692" cy="175.251" r="2.057"/>
				<circle fill="#332811" cx="241.907" cy="253.417" r="2.057"/>
				<circle fill="#332811" cx="253.304" cy="248.27" r="2.058"/>
				<circle fill="#332811" cx="264.701" cy="243.124" r="2.056"/>
				<circle fill="#332811" cx="276.098" cy="237.977" r="2.057"/>
				<circle fill="#332811" cx="287.494" cy="232.83" r="2.058"/>
				<circle fill="#332811" cx="298.892" cy="227.684" r="2.058"/>
				<circle fill="#332811" cx="310.289" cy="222.537" r="2.057"/>
				<circle fill="#332811" cx="321.685" cy="217.391" r="2.058"/>
				<circle fill="#332811" cx="333.083" cy="212.243" r="2.057"/>
				<circle fill="#332811" cx="344.479" cy="207.097" r="2.058"/>
				<circle fill="#332811" cx="355.875" cy="201.951" r="2.057"/>
				<circle fill="#332811" cx="367.273" cy="196.803" r="2.058"/>
				<circle fill="#332811" cx="378.67" cy="191.657" r="2.057"/>
				<path fill="#332811" d="M391.942,185.664c0.469,1.035,0.007,2.256-1.027,2.722c-1.037,0.469-2.256,0.008-2.723-1.029
					c-0.468-1.035-0.009-2.253,1.03-2.722C390.255,184.168,391.473,184.627,391.942,185.664z"/>
				<circle fill="#332811" cx="251.342" cy="259.116" r="2.057"/>
				<circle fill="#332811" cx="262.739" cy="253.97" r="2.057"/>
				<circle fill="#332811" cx="274.135" cy="248.823" r="2.058"/>
				<circle fill="#332811" cx="285.532" cy="243.677" r="2.058"/>
				<circle fill="#332811" cx="296.928" cy="238.53" r="2.057"/>
				<circle fill="#332811" cx="308.325" cy="233.384" r="2.056"/>
				<circle fill="#332811" cx="319.722" cy="228.237" r="2.057"/>
				<circle fill="#332811" cx="331.119" cy="223.09" r="2.057"/>
				<path fill="#332811" d="M344.392,217.095c0.468,1.036,0.009,2.255-1.03,2.724c-1.033,0.467-2.253,0.007-2.722-1.03
					c-0.467-1.034-0.005-2.254,1.028-2.72C342.706,215.598,343.925,216.06,344.392,217.095z"/>
				<circle fill="#332811" cx="353.913" cy="212.797" r="2.058"/>
				<circle fill="#332811" cx="365.309" cy="207.65" r="2.058"/>
				<circle fill="#332811" cx="376.707" cy="202.504" r="2.057"/>
				<circle fill="#332811" cx="388.105" cy="197.355" r="2.059"/>
				<circle fill="#332811" cx="399.5" cy="192.21" r="2.058"/>
				<path fill="#332811" d="M251.589,269.531c0.468,1.033,0.008,2.252-1.027,2.721c-1.037,0.467-2.253,0.006-2.722-1.028
					c-0.467-1.037-0.009-2.253,1.027-2.722C249.906,268.034,251.122,268.494,251.589,269.531z"/>
				<circle fill="#332811" cx="261.112" cy="265.23" r="2.057"/>
				<circle fill="#332811" cx="272.508" cy="260.084" r="2.058"/>
				<circle fill="#332811" cx="283.906" cy="254.936" r="2.058"/>
				<circle fill="#332811" cx="295.302" cy="249.79" r="2.058"/>
				<circle fill="#332811" cx="306.699" cy="244.643" r="2.058"/>
				<circle fill="#332811" cx="318.095" cy="239.497" r="2.057"/>
				<path fill="#332811" d="M331.366,233.504c0.467,1.034,0.009,2.253-1.027,2.721c-1.036,0.467-2.253,0.006-2.721-1.027
					c-0.468-1.038-0.008-2.255,1.027-2.722C329.68,232.008,330.899,232.468,331.366,233.504z"/>
				<circle fill="#332811" cx="340.89" cy="229.203" r="2.058"/>
				<circle fill="#332811" cx="352.287" cy="224.056" r="2.057"/>
				<path fill="#332811" d="M365.559,218.062c0.467,1.034,0.008,2.253-1.027,2.721c-1.039,0.469-2.256,0.008-2.723-1.027
					c-0.468-1.035-0.009-2.253,1.029-2.722C363.873,216.567,365.09,217.027,365.559,218.062z"/>
				<circle fill="#332811" cx="375.08" cy="213.763" r="2.058"/>
				<circle fill="#332811" cx="386.477" cy="208.616" r="2.058"/>
				<circle fill="#332811" cx="397.874" cy="203.469" r="2.058"/>
				<path fill="#332811" d="M261.025,275.231c0.466,1.033,0.007,2.253-1.029,2.722c-1.036,0.467-2.254,0.005-2.72-1.03
					c-0.469-1.035-0.01-2.254,1.025-2.722C259.338,273.732,260.556,274.195,261.025,275.231z"/>
				<circle fill="#332811" cx="270.547" cy="270.93" r="2.057"/>
				<circle fill="#332811" cx="281.944" cy="265.783" r="2.057"/>
				<circle fill="#332811" cx="293.34" cy="260.635" r="2.057"/>
				<circle fill="#332811" cx="304.737" cy="255.49" r="2.057"/>
				<circle fill="#332811" cx="316.134" cy="250.343" r="2.057"/>
				<circle fill="#332811" cx="327.53" cy="245.197" r="2.058"/>
				<circle fill="#332811" cx="338.927" cy="240.05" r="2.057"/>
				<circle fill="#332811" cx="350.324" cy="234.904" r="2.057"/>
				<circle fill="#332811" cx="361.721" cy="229.757" r="2.057"/>
				<circle fill="#332811" cx="373.118" cy="224.609" r="2.057"/>
				<path fill="#332811" d="M386.389,218.617c0.468,1.034,0.011,2.253-1.027,2.722c-1.035,0.467-2.256,0.006-2.722-1.028
					c-0.469-1.037-0.008-2.255,1.026-2.723C384.705,217.119,385.921,217.58,386.389,218.617z"/>
				<circle fill="#332811" cx="395.911" cy="214.316" r="2.058"/>
				<circle fill="#332811" cx="407.309" cy="209.169" r="2.058"/>
			</g>
		</g>
	</g>
	<g>
		<defs>
			<path id="SVGID_3_" d="M242.399,197.512c-2.023-0.721-11.214,2.342-16.979,4.718c-5.354,2.197-9.643,3.627-15.503,4.814
				c-7.631,1.547-29.302-0.658-36.784,1.049c-8.487,1.935-6.949,11.685-13.827,14.73c-3.199,1.416-3.902,0.58-6.025,3.184
				c-1.539,1.883-8.723,1.411-9.547,2.767c-3.664,6.032,6.294,15.075,15.49,16.908c25.817,5.146,25.76-10.853,31.869-10.409
				c10.802,0.785,11.958-8.034,17.447-8.196c9.901-0.292,12.147-4.557,18.688-9.81c5.134-4.126,9.048,2.645,12.866-2.113
				c2.992-3.729,5.878-10.267,5.671-12.732C245.584,198.647,245.584,198.647,242.399,197.512z"/>
		</defs>
		<clipPath id="SVGID_4_">
			<use xlink:href="#SVGID_3_"  overflow="visible"/>
		</clipPath>
	</g>
	<g>
		<circle fill="#E79762" cx="170.956" cy="209.212" r="1.61"/>
		<circle fill="#E79762" cx="192.979" cy="227.512" r="2.047"/>
		<circle fill="#E79762" cx="199.703" cy="208.094" r="1.36"/>
		<circle fill="#E79762" cx="210.907" cy="218.371" r="1.876"/>
		<circle fill="#E79762" cx="208.238" cy="211.043" r="2.67"/>
		<circle fill="#E79762" cx="182.754" cy="229.442" r="4.599"/>
		<circle fill="#E79762" cx="204.032" cy="228.961" r="3.546"/>
		<circle fill="#E79762" cx="178.156" cy="216.258" r="3.903"/>
		<circle fill="#E79762" cx="186.107" cy="203.37" r="2.343"/>
		<circle fill="#E79762" cx="194.267" cy="200.969" r="1.531"/>
		<circle fill="#E79762" cx="222.063" cy="213.753" r="4.237"/>
		<circle fill="#E79762" cx="234.233" cy="203.881" r="2.871"/>
		<circle fill="#E79762" cx="171.074" cy="228.924" r="3.013"/>
		<circle fill="#E79762" cx="158.244" cy="226.663" r="2.297"/>
		<circle fill="#E79762" cx="152.489" cy="241.109" r="2.111"/>
		<circle fill="#E79762" cx="174.252" cy="241.109" r="1.875"/>
		<circle fill="#E79762" cx="206.537" cy="201.343" r="1.903"/>
		<circle fill="#E79762" cx="190.931" cy="216.186" r="3.831"/>
	</g>
</g>
</svg>
