<?xml version="1.0" encoding="utf-8"?>
<!-- Generator: Adobe Illustrator 16.0.0, SVG Export Plug-In . SVG Version: 6.00 Build 0)  -->
<!DOCTYPE svg PUBLIC "-//W3C//DTD SVG 1.1//EN" "http://www.w3.org/Graphics/SVG/1.1/DTD/svg11.dtd">
<svg version="1.1" id="Ebene_1" xmlns="http://www.w3.org/2000/svg" xmlns:xlink="http://www.w3.org/1999/xlink" x="0px" y="0px"
	 width="450px" height="450px" viewBox="0 0 450 450" enable-background="new 0 0 450 450" xml:space="preserve">
<g>
	<g opacity="0.3">
		<path fill="#1D1D1B" d="M279.962,193.368c3.451-2.67,5.734-7.237,9.591-9.959c3.405-2.408,3.896-2.316,7.443-4.709
			c8.569-5.776,21.464-13.746,21.464-13.746s3.07-14.353,10.281-18.48c6.791-3.885,17.108-1.878,18.723,6.384
			c0.845,4.295-0.431,7.125-2.616,10.691c-1.302,2.114-5.156,6.432-4.048,8.848c1.322,2.896,7.703,2.587,10.328,3.439
			c3.675,1.198,6.463,3.27,8.917,6.375c4.486,5.68,5.43,13.358-0.715,18.865c-6.391,5.721-16.543,7.755-22.314,2.571
			c-3.807-3.417-5.232-13.226-10.479-10.584c-4.31,2.171-12.587,6.704-16.438,9.552c-3.934,2.908-7.565,5.206-12.436,6.474
			c-4.425,1.15-8.796,4.416-13.167,5.2"/>
		<path fill="#1D1D1B" d="M321.559,185.996c-11.663,8.176-17.182,11.088-24.023,10.84c0.283,3.495,9.539,4.108,10.015,7.584
			c0.847-0.572,1.691-1.169,2.549-1.806c3.852-2.848,12.129-7.381,16.438-9.552c0.703-0.354,1.337-0.475,1.917-0.424
			C325.315,191.641,322.648,189.103,321.559,185.996z"/>
		<path fill="#1D1D1B" d="M305.566,172.924c-2.481-4.714-12.21,3.427-25.242,8.14c-12.089,4.339-26.969,6.531-38.562,6.29
			c-15.1-0.315-30.185-3.178-45.245-2.709c-17.076,0.536-36.993,6.536-52.823,13.02c-7.362,3.014-11.277,9.151-18.401,17.956
			c-5.16,6.382-15.71,11.232-18.938,16.065c-14.371,21.518-4.538,53.599,10.189,65.365c8.812,7.041,29.8,12.007,41.211,14.099
			c11.859,2.174,27.721-1.445,39.041-4.602c22.183-6.188,32.447-18.255,50.672-34.08c14.309-12.424,20.139-22.404,33.053-38.559
			c10.124-12.665,31.274-24.057,34.24-34.341C286.801,201.175,309.468,180.346,305.566,172.924z"/>
		<path fill="none" stroke="#1D1D1B" stroke-width="4.2011" stroke-linecap="round" stroke-miterlimit="10" d="M324.528,174.463
			c9.405-9.903,25.595,5.757,17.584,13.811"/>
		<path fill="#1D1D1B" d="M341.465,173.29c-0.28-0.26-0.514-0.551-0.665-0.893c-1.108-2.416,2.746-6.734,4.048-8.848
			c2.186-3.566,3.461-6.396,2.616-10.691c-0.506-2.593-1.871-4.57-3.716-5.941c-3.259,6.996-9.514,16.715-13.803,23.229
			c3.34-0.366,5.489,0.76,7.758,2.187C338.92,172.773,340.166,173.096,341.465,173.29z"/>
		<path fill="#1D1D1B" d="M331.759,195.186c1.733,2.614,3.12,6.543,5.257,8.461c5.771,5.184,15.924,3.15,22.314-2.571
			c5.303-4.751,5.318-11.114,2.348-16.42C351.742,188.276,341.756,191.744,331.759,195.186z"/>
		<path fill="#1D1D1B" d="M296.513,200.393c-6.124,2.154-10.403,4.162-16.551,6.235c-9.866,3.328-17.979,8.942-31.286,18.661
			c-9.804,6.315-28.68,21.124-45.663,30.815c-64.716,36.923-95.184,30.703-95.184,30.703c2.542,4.16,5.511,7.682,8.714,10.242
			c8.812,7.041,29.8,12.007,41.211,14.099c11.859,2.174,27.721-1.445,39.041-4.602c22.183-6.188,32.447-18.255,50.672-34.08
			c14.309-12.424,20.139-22.404,33.053-38.559c8.978-11.231,26.613-21.459,32.565-30.802
			C307.435,202.844,301.858,202.02,296.513,200.393z"/>
		<path fill="#1D1D1B" d="M136.955,206.702c-0.446-1.75-0.043-3.596,0.808-5.44c-4.1,3.389-7.507,8.223-12.47,14.357
			c-5.16,6.382-15.71,11.232-18.938,16.065c-0.01,0.015-0.018,0.03-0.027,0.045c4.762-2.228,9.64-4.255,14.798-5.996
			c8.987-3.028,17.838-6.454,26.86-9.323c2.908-0.925,8.63-1.941,9.953-4.909C154.4,210.177,137.793,210.016,136.955,206.702z"/>
		<path fill="#1D1D1B" d="M285.233,186.097c-5.78,2.177-22.493,6.511-32.069,8.24c-9.644,1.742-18.174-0.75-28.678-0.014
			c-9.637,0.677-18.29,0.13-27.836,0c-5.173-0.069-24.066,0.253-27.345,3.718c-2.716,2.875,12.208,5.654,12.52,8.588
			c0.342,3.211-10.151,9.564-13.335,10.658c-10.282,3.534-20.635,7.668-30.251,11.895c-7.1,3.119-15.71,8.746-6.901,14.185
			c9.462,5.835,25.738,0.696,35.573-2.944c7.866-2.914,15.447-6.585,23.01-9.912c6.708-2.944,12.263-7.18,18.99-10.201
			c11.49-5.157,24.557-8.726,36.458-13.34c9.837-3.815,19.588-7.654,29.372-11.332c3.382-1.27,13.483-5.623,13.057-8.75
			C285.714,186.744,286.061,185.912,285.233,186.097"/>
		<path fill="#1D1D1B" d="M296.513,200.393c-6.124,2.154-10.403,4.162-16.551,6.235c-9.866,3.328-17.979,8.942-31.286,18.661
			c-9.804,6.315-28.68,21.124-45.663,30.815c-64.716,36.923-95.184,30.703-95.184,30.703c2.542,4.16,5.511,7.682,8.714,10.242
			c8.812,7.041,29.8,12.007,41.211,14.099c11.859,2.174,27.721-1.445,39.041-4.602c22.183-6.188,32.447-18.255,50.672-34.08
			c14.309-12.424,20.139-22.404,33.053-38.559c8.978-11.231,26.613-21.459,32.565-30.802
			C307.435,202.844,301.858,202.02,296.513,200.393z"/>
		<path fill="#1D1D1B" d="M196.796,306.547c22.183-6.188,32.447-18.255,50.672-34.08c14.309-12.424,20.139-22.404,33.053-38.559
			c8.978-11.231,26.613-21.459,32.565-30.802c-5.651-0.263-11.229-1.086-16.573-2.713c-6.124,2.154-10.403,4.162-16.551,6.235
			c-6.64,2.241-12.49,5.522-19.661,10.387l-87.125,94.372C181.451,310.524,189.952,308.455,196.796,306.547z"/>
		<path fill="#1D1D1B" d="M176.94,245.223c0,2.403-1.946,4.347-4.344,4.347c-2.399,0-4.344-1.943-4.344-4.347
			c0-2.396,1.945-4.339,4.344-4.339C174.994,240.885,176.94,242.827,176.94,245.223z"/>
		<circle fill="#1D1D1B" cx="197.52" cy="231.729" r="2.396"/>
		<circle fill="#1D1D1B" cx="182.93" cy="195.643" r="2.396"/>
		<circle fill="#1D1D1B" cx="162.562" cy="229.331" r="2.397"/>
		<path fill="#1D1D1B" d="M214.084,232.319c0,1.003-0.812,1.814-1.812,1.814c-1.004,0-1.815-0.812-1.815-1.814
			c0-0.999,0.811-1.812,1.815-1.812C213.272,230.508,214.084,231.32,214.084,232.319z"/>
		<circle fill="#1D1D1B" cx="193.311" cy="204.42" r="1.813"/>
		<circle fill="#1D1D1B" cx="172.596" cy="207.267" r="2.847"/>
		<circle fill="#1D1D1B" cx="136.545" cy="230.508" r="3.252"/>
		<circle fill="#1D1D1B" cx="120.285" cy="247.204" r="2.439"/>
		<circle fill="#1D1D1B" cx="152.228" cy="255.027" r="2.846"/>
		<path fill="#1D1D1B" d="M188.621,221.52c0,1.573-1.272,2.848-2.845,2.848c-1.571,0-2.845-1.275-2.845-2.848
			c0-1.57,1.274-2.845,2.845-2.845C187.349,218.676,188.621,219.95,188.621,221.52z"/>
		<path fill="#1D1D1B" d="M231.757,221.52c0,1.159-0.94,2.098-2.099,2.098c-1.159,0-2.096-0.939-2.096-2.098
			c0-1.156,0.937-2.096,2.096-2.096C230.817,219.424,231.757,220.365,231.757,221.52z"/>
		<circle fill="#1D1D1B" cx="249.727" cy="200.554" r="2.096"/>
		<circle fill="#1D1D1B" cx="253.023" cy="211.312" r="1.2"/>
		<circle fill="#1D1D1B" cx="231.756" cy="204.42" r="2.996"/>
		<circle fill="#1D1D1B" cx="214.082" cy="200.394" r="2.462"/>
		<circle fill="#1D1D1B" cx="196.651" cy="190.013" r="1.738"/>
		<path fill="#1D1D1B" d="M268.598,198.757c0,0.992-0.805,1.797-1.799,1.797c-0.988,0-1.793-0.805-1.793-1.797
			c0-0.993,0.805-1.797,1.793-1.797C267.793,196.96,268.598,197.764,268.598,198.757z"/>
		<circle fill="#1D1D1B" cx="211.463" cy="212.619" r="4.088"/>
		<circle fill="#1D1D1B" cx="188.622" cy="247.204" r="1.198"/>
		<path fill="#1D1D1B" d="M149.383,239.683c0,0.663-0.537,1.201-1.198,1.201s-1.197-0.538-1.197-1.201
			c0-0.66,0.536-1.197,1.197-1.197S149.383,239.023,149.383,239.683z"/>
		<circle fill="#1D1D1B" cx="204.546" cy="242.789" r="0.87"/>
		<circle fill="#1D1D1B" cx="134.081" cy="260.338" r="2.463"/>
		<path fill="#1D1D1B" d="M243.438,190.968c0,0.828-0.67,1.498-1.496,1.498c-0.83,0-1.498-0.67-1.498-1.498
			c0-0.826,0.668-1.497,1.498-1.497C242.768,189.47,243.438,190.142,243.438,190.968z"/>
		<circle fill="#1D1D1B" cx="156.871" cy="202.051" r="3.294"/>
		<path fill="#1D1D1B" d="M173.945,262.437c0,1.156-0.939,2.093-2.098,2.093c-1.157,0-2.098-0.937-2.098-2.093
			c0-1.158,0.941-2.1,2.098-2.1C173.006,260.338,173.945,261.279,173.945,262.437z"/>
	</g>
	<g>
		<g>
			<g>
				<g>
					<path fill="#D4AB8C" d="M275.325,187.804c3.451-2.67,5.734-7.237,9.591-9.959c3.405-2.408,3.896-2.316,7.443-4.709
						c8.569-5.776,21.464-13.746,21.464-13.746s3.07-14.353,10.281-18.48c6.791-3.885,17.108-1.878,18.723,6.384
						c0.845,4.295-0.431,7.125-2.616,10.691c-1.302,2.114-5.156,6.432-4.048,8.848c1.322,2.896,7.703,2.587,10.328,3.439
						c3.675,1.198,6.463,3.27,8.917,6.375c4.486,5.68,5.43,13.358-0.715,18.865c-6.391,5.721-16.543,7.755-22.314,2.571
						c-3.807-3.417-5.232-13.226-10.479-10.584c-4.31,2.171-12.587,6.704-16.438,9.552c-3.934,2.908-7.565,5.206-12.436,6.474
						c-4.425,1.15-8.796,4.416-13.167,5.2"/>
					<path fill="#A9876E" d="M316.922,180.432c-11.663,8.176-17.182,11.088-24.023,10.84c0.283,3.495,9.539,4.108,10.015,7.584
						c0.847-0.572,1.691-1.169,2.549-1.806c3.852-2.848,12.129-7.381,16.438-9.552c0.703-0.354,1.337-0.475,1.917-0.424
						C320.678,186.077,318.011,183.539,316.922,180.432z"/>
					<path fill="#D2813D" d="M300.929,167.359c-2.481-4.714-12.21,3.427-25.242,8.14c-12.089,4.339-26.969,6.531-38.562,6.29
						c-15.1-0.315-30.185-3.178-45.245-2.709c-17.076,0.536-36.993,6.536-52.823,13.02c-7.362,3.014-11.277,9.151-18.401,17.956
						c-5.16,6.382-15.71,11.232-18.938,16.065c-14.371,21.518-4.538,53.599,10.189,65.365c8.812,7.041,29.8,12.007,41.211,14.099
						c11.859,2.174,27.721-1.445,39.041-4.602c22.183-6.188,32.446-18.255,50.672-34.08c14.309-12.424,20.139-22.404,33.053-38.559
						c10.124-12.665,31.274-24.057,34.24-34.341C282.164,195.61,304.831,174.781,300.929,167.359z"/>
					<path fill="none" stroke="#A9876E" stroke-width="4.2011" stroke-linecap="round" stroke-miterlimit="10" d="M319.891,168.898
						c9.405-9.903,25.595,5.757,17.584,13.811"/>
					<path fill="#A9876E" d="M336.828,167.725c-0.28-0.26-0.514-0.551-0.665-0.893c-1.108-2.416,2.746-6.734,4.048-8.848
						c2.186-3.566,3.461-6.396,2.616-10.691c-0.506-2.593-1.871-4.57-3.716-5.941c-3.259,6.996-9.514,16.715-13.803,23.229
						c3.34-0.366,5.489,0.76,7.758,2.187C334.283,167.208,335.53,167.532,336.828,167.725z"/>
					<path fill="#A9876E" d="M327.122,189.622c1.733,2.614,3.12,6.543,5.257,8.461c5.771,5.184,15.924,3.15,22.314-2.571
						c5.303-4.751,5.318-11.114,2.348-16.42C347.106,182.712,337.119,186.18,327.122,189.622z"/>
					<path fill="#A15E2C" d="M291.876,194.829c-6.124,2.154-10.403,4.162-16.551,6.235c-9.866,3.328-17.979,8.942-31.286,18.661
						c-9.804,6.315-28.68,21.124-45.663,30.815c-64.716,36.923-95.184,30.703-95.184,30.703c2.542,4.16,5.511,7.682,8.714,10.242
						c8.812,7.041,29.8,12.007,41.211,14.099c11.859,2.174,27.721-1.445,39.041-4.602c22.183-6.188,32.446-18.255,50.672-34.08
						c14.309-12.424,20.139-22.404,33.053-38.559c8.978-11.231,26.613-21.459,32.565-30.802
						C302.798,197.279,297.221,196.456,291.876,194.829z"/>
					<path fill="#C0702A" d="M132.319,201.138c-0.446-1.75-0.043-3.596,0.808-5.44c-4.1,3.389-7.507,8.223-12.47,14.357
						c-5.16,6.382-15.71,11.232-18.938,16.065c-0.01,0.015-0.018,0.03-0.027,0.045c4.762-2.228,9.64-4.255,14.798-5.996
						c8.987-3.028,17.838-6.454,26.86-9.323c2.908-0.925,8.63-1.941,9.953-4.909C149.763,204.612,133.156,204.452,132.319,201.138z"
						/>
					<path fill="#E5914D" d="M280.596,180.532c-5.78,2.177-22.493,6.511-32.069,8.24c-9.644,1.742-18.174-0.75-28.678-0.014
						c-9.637,0.677-18.29,0.13-27.836,0c-5.173-0.069-24.066,0.253-27.345,3.718c-2.716,2.875,12.208,5.654,12.52,8.588
						c0.342,3.211-10.151,9.564-13.335,10.658c-10.282,3.534-20.635,7.668-30.251,11.895c-7.1,3.119-15.71,8.746-6.901,14.185
						c9.462,5.835,25.738,0.696,35.573-2.944c7.866-2.914,15.447-6.585,23.01-9.912c6.708-2.944,12.263-7.18,18.99-10.202
						c11.49-5.157,24.557-8.726,36.458-13.34c9.837-3.815,19.588-7.654,29.372-11.332c3.382-1.27,13.483-5.623,13.057-8.75
						C281.077,181.179,281.424,180.347,280.596,180.532"/>
				</g>
				<path fill="#C0702A" d="M291.876,194.829c-6.124,2.154-10.403,4.162-16.551,6.235c-9.866,3.328-17.979,8.942-31.286,18.661
					c-9.804,6.315-28.68,21.124-45.663,30.815c-64.716,36.923-95.184,30.703-95.184,30.703c2.542,4.16,5.511,7.682,8.714,10.242
					c8.812,7.041,29.8,12.007,41.211,14.099c11.859,2.174,27.721-1.445,39.041-4.602c22.183-6.188,32.446-18.255,50.672-34.08
					c14.309-12.424,20.139-22.404,33.053-38.559c8.978-11.231,26.613-21.459,32.565-30.802
					C302.798,197.279,297.221,196.456,291.876,194.829z"/>
				<path fill="#B16524" d="M192.159,300.982c22.183-6.188,32.446-18.255,50.672-34.08c14.309-12.424,20.139-22.404,33.053-38.559
					c8.978-11.231,26.613-21.459,32.565-30.802c-5.651-0.263-11.229-1.086-16.573-2.713c-6.124,2.154-10.403,4.162-16.551,6.235
					c-6.64,2.241-12.49,5.522-19.661,10.387l-87.125,94.372C176.814,304.96,185.315,302.89,192.159,300.982z"/>
			</g>
			<path fill="#C0702A" d="M172.303,239.659c0,2.403-1.946,4.347-4.344,4.347c-2.399,0-4.344-1.943-4.344-4.347
				c0-2.396,1.945-4.339,4.344-4.339C170.358,235.32,172.303,237.262,172.303,239.659z"/>
			<circle fill="#C0702A" cx="192.883" cy="226.165" r="2.396"/>
			<circle fill="#C0702A" cx="178.294" cy="190.078" r="2.396"/>
			<circle fill="#C0702A" cx="157.926" cy="223.766" r="2.397"/>
			<path fill="#C0702A" d="M209.447,226.755c0,1.003-0.812,1.814-1.812,1.814c-1.004,0-1.815-0.812-1.815-1.814
				c0-0.999,0.811-1.812,1.815-1.812C208.635,224.943,209.447,225.756,209.447,226.755z"/>
			<circle fill="#C0702A" cx="188.674" cy="198.856" r="1.813"/>
			<circle fill="#C0702A" cx="167.959" cy="201.702" r="2.847"/>
			<circle fill="#C0702A" cx="131.908" cy="224.943" r="3.252"/>
			<circle fill="#C0702A" cx="115.648" cy="241.639" r="2.439"/>
			<circle fill="#C0702A" cx="147.592" cy="249.463" r="2.846"/>
			<path fill="#C0702A" d="M183.985,215.956c0,1.573-1.272,2.848-2.845,2.848c-1.571,0-2.845-1.275-2.845-2.848
				c0-1.57,1.274-2.845,2.845-2.845C182.712,213.111,183.985,214.386,183.985,215.956z"/>
			<path fill="#C0702A" d="M227.12,215.956c0,1.159-0.94,2.098-2.099,2.098c-1.159,0-2.096-0.939-2.096-2.098
				c0-1.156,0.937-2.096,2.096-2.096C226.18,213.86,227.12,214.8,227.12,215.956z"/>
			<circle fill="#C0702A" cx="245.091" cy="194.99" r="2.096"/>
			<circle fill="#C0702A" cx="248.386" cy="205.747" r="1.2"/>
			<circle fill="#C0702A" cx="227.119" cy="198.856" r="2.996"/>
			<circle fill="#C0702A" cx="209.446" cy="194.83" r="2.462"/>
			<circle fill="#C0702A" cx="192.014" cy="184.449" r="1.738"/>
			<path fill="#C0702A" d="M263.961,193.193c0,0.992-0.805,1.797-1.799,1.797c-0.988,0-1.793-0.805-1.793-1.797
				c0-0.993,0.805-1.797,1.793-1.797C263.156,191.395,263.961,192.2,263.961,193.193z"/>
			<circle fill="#C0702A" cx="206.827" cy="207.054" r="4.088"/>
			<circle fill="#C0702A" cx="183.985" cy="241.639" r="1.198"/>
			<path fill="#C0702A" d="M144.746,234.119c0,0.663-0.537,1.201-1.198,1.201s-1.197-0.538-1.197-1.201
				c0-0.66,0.536-1.197,1.197-1.197S144.746,233.459,144.746,234.119z"/>
			<circle fill="#C0702A" cx="199.909" cy="237.224" r="0.87"/>
			<circle fill="#C0702A" cx="129.444" cy="254.773" r="2.463"/>
			<path fill="#C0702A" d="M238.801,185.403c0,0.828-0.67,1.498-1.496,1.498c-0.83,0-1.498-0.67-1.498-1.498
				c0-0.826,0.668-1.497,1.498-1.497C238.131,183.906,238.801,184.577,238.801,185.403z"/>
			<circle fill="#C0702A" cx="152.234" cy="196.486" r="3.294"/>
			<path fill="#C0702A" d="M169.308,256.873c0,1.156-0.939,2.093-2.098,2.093c-1.157,0-2.098-0.937-2.098-2.093
				c0-1.158,0.941-2.1,2.098-2.1C168.369,254.773,169.308,255.715,169.308,256.873z"/>
		</g>
	</g>
</g>
</svg>
