<?xml version="1.0" encoding="utf-8"?>
<!-- Generator: Adobe Illustrator 16.0.3, SVG Export Plug-In . SVG Version: 6.00 Build 0)  -->
<!DOCTYPE svg PUBLIC "-//W3C//DTD SVG 1.1//EN" "http://www.w3.org/Graphics/SVG/1.1/DTD/svg11.dtd">
<svg version="1.1" id="Ebene_1" xmlns="http://www.w3.org/2000/svg" xmlns:xlink="http://www.w3.org/1999/xlink" x="0px" y="0px"
	 width="450px" height="450px" viewBox="0 0 450 450" enable-background="new 0 0 450 450" xml:space="preserve">
<g id="dip">
	<g>
		<g>
			<path fill="#B8B24E" d="M195.022,220.796c-1.294-3.442-1.584-6.874-0.052-10.4c2.042-5.04,7.087-4.008,11.625-3.48
				c0.731-4.44,2.774-9.984,6.626-13.094c5.671-4.213,8.492-1.78,12.104,3.086l0,0c6.276-3.908,19.524-8.59,18.856,3.722l0,0
				c-1.09-3.842,12.235-3.676,13.012,3.798l0,0l0,0l-0.104-0.306l0,0c3.438-0.284,7.164,1.35,8.762,4.688
				c2.2,4.655-0.24,8.481-0.262,13.023l0,0l0,0l-0.304,0.099l0,0c4.022,3.552,8.239,8.214,7.712,13.767
				c-0.434,5.35-3.283,10.988-6.535,14.912l0,0c0.281,4.951,1.977,9.096-1.576,13.623c-1.727,2.412-4.563,4.521-7.498,5.315
				c-3.641,1.193-5.051,0.985-7.39,4.104c-6.302,8.957-19.431,9.904-28.599,5.52c-4.229-2.139-9.07-3.574-12.484-6.822
				c-1.813-1.422-3.013-3.547-4.824-4.971c-1.911-1.223-4.133-1.33-6.25-2.15c-5.641-2.348-8.854-5.998-10.347-11.557
				c-0.891-3.74-3.291-8.496-2.563-12.432c0.106-1.211,1.324-2.619,1.127-3.73c0.109-1.211-1.199-2.631-1.496-4.047
				c-0.89-3.738-0.167-7.674,2.17-10.79c1.932-2.316,5.676-4.72,8.188-1.68"/>
		</g>
		<g>
			<path fill="#CFCDA4" d="M194.132,217.423c-1.294-3.442-1.581-6.874-0.049-10.4c2.041-5.04,7.084-4.008,11.624-3.481
				c0.729-4.438,2.772-9.982,6.629-13.093c5.667-4.214,8.487-1.78,12.099,3.086l0,0c6.278-3.909,19.524-8.591,18.859,3.721l0,0
				c-1.091-3.842,12.235-3.676,13.013,3.799l0,0l0,0l-0.104-0.306l0,0c3.437-0.284,7.166,1.349,8.761,4.688
				c2.2,4.655-0.24,8.479-0.262,13.021l0,0l0,0l-0.303,0.101l0,0c4.021,3.551,8.24,8.214,7.711,13.767
				c-0.434,5.35-3.284,10.988-6.534,14.913l0,0c0.28,4.948,1.976,9.095-1.577,13.624c-1.729,2.41-4.564,4.519-7.498,5.313
				c-3.639,1.194-5.053,0.987-7.391,4.104c-6.299,8.957-19.432,9.906-28.597,5.521c-4.229-2.141-9.07-3.576-12.485-6.822
				c-1.812-1.422-3.014-3.547-4.825-4.971c-1.911-1.221-4.132-1.332-6.248-2.15c-5.643-2.348-8.857-5.998-10.348-11.559
				c-0.892-3.738-3.291-8.496-2.563-12.43c0.105-1.213,1.324-2.62,1.125-3.73c0.109-1.213-1.198-2.631-1.494-4.048
				c-0.89-3.737-0.168-7.672,2.168-10.79c1.932-2.314,5.677-4.72,8.185-1.68"/>
		</g>
		<g>
			<g>
				<g>
					<path fill="#FAF8DC" d="M204.048,204.309c-0.828,2.554-0.363,5.028-0.842,7.67c-0.708,3.905-4.572,5.518-7.995,6.123
						c-0.436,0.077-2.394,0.569-1.845,1.338c4.941,6.927-0.057,15.21,1.006,22.873c0.968,6.98,8.056,11.935,13.705,15.031
						c5.689,3.119,12.149,4.631,18.606,4.639c8.764,0.012,17.445-4.299,25.955-5.99c1.409-0.28,2.883-1.936,0.557-1.473
						c-7.639,1.521-14.967,4.336-22.631,5.705c-8.319,1.485-17.725-2.455-24.333-7.213c-5.921-4.262-9.405-9.74-8.557-17.172
						c0.711-6.23,2.796-12.033-1.177-17.604c-0.615,0.446-1.23,0.892-1.845,1.338c3.303-0.584,6.403-1.397,9.01-3.598
						c3.981-3.36,2.302-7.879,3.699-12.191C207.644,202.917,204.355,203.36,204.048,204.309L204.048,204.309z"/>
				</g>
			</g>
			<g>
				<g>
					<path fill="#FAF8DC" d="M193.266,219.635c9.869,10.152,24.453,4.639,36.1,2.09c5.45-1.193,10.563-3.227,14.157-7.665
						c3.586-4.427,4.517-12.778,2.861-18.052c-0.285-0.91-3.611,0.042-3.344,0.896c1.41,4.495,0.57,9.193-0.768,13.623
						c-2.031,6.726-8.492,8.917-14.686,10.272c-10.4,2.276-22.538,6.542-31.188-2.357
						C195.734,217.755,192.616,218.967,193.266,219.635L193.266,219.635z"/>
				</g>
			</g>
			<g>
				<g>
					<path fill="#FAF8DC" d="M195.063,220.37c9.19-0.28,18.669-4.711,25.428-10.892c3.842-3.514,6.702-8.295,10.862-11.427
						c0.967-0.729,8.314-4.141,8.271-4.393c0.247,1.423,3.6,0.584,3.342-0.896c-0.738-4.25-11.843,2.7-13.342,3.638
						c-4.268,2.67-7.202,7.62-10.714,11.152c-5.989,6.022-15.042,10.304-23.5,10.563C193.583,218.171,192.776,220.44,195.063,220.37
						L195.063,220.37z"/>
				</g>
			</g>
			<g>
				<g>
					<path fill="#FAF8DC" d="M196.021,223.445c5.103,2.922,6.292,6.868,9.03,11.641c2.427,4.229,5.909,6.676,10.259,8.771
						c6.947,3.347,14.917,3.219,21.818,0.01c7.216-3.354,12.821-10.905,16.192-17.877c1.856-3.842,2.561-8.105,3.828-12.149
						c0.916-2.922,2.637-6.852,1.414-9.899c-0.513-1.278-3.818-0.29-3.343,0.896c1.007,2.509-0.329,5.755-1.063,8.198
						c-0.875,2.917-1.63,5.858-2.483,8.78c-2.176,7.445-7.492,14.76-13.807,19.243c-7.918,5.62-17.49,3.031-24.962-1.814
						c-3.95-2.563-5.206-6.896-7.241-10.862c-1.504-2.932-4.213-5.05-7.009-6.651C197.609,221.131,194.558,222.607,196.021,223.445
						L196.021,223.445z"/>
				</g>
			</g>
			<g>
				<g>
					<path fill="#FAF8DC" d="M192.653,222.31c-1.023,3.329-3.928,5.368-5.771,8.213c-1.837,2.836-2.537,6.254-3.199,9.515
						c-0.222,1.094,3.12,0.522,3.325-0.485c0.724-3.566,1.566-6.941,3.568-10.033c1.776-2.742,4.402-4.444,5.401-7.693
						C196.285,220.826,192.964,221.297,192.653,222.31L192.653,222.31z"/>
				</g>
			</g>
		</g>
		<g>
			<g>
				<g>
					<path fill="#495524" d="M235.229,224.098c0.277-0.19,0.554-0.264,0.888-0.274c0.342-0.01,0.868-0.249,0.933-0.63
						c0.067-0.416-0.47-0.478-0.751-0.469c-0.764,0.023-1.521,0.289-2.146,0.722c-0.262,0.181-0.465,0.563-0.113,0.776
						C234.389,224.434,234.91,224.318,235.229,224.098L235.229,224.098z"/>
				</g>
			</g>
			<g>
				<g>
					<path fill="#495524" d="M244.936,215.344c-0.433,0.882-0.69,1.836-1.123,2.718c-0.422,0.86,1.271,0.868,1.6,0.197
						c0.434-0.882,0.691-1.836,1.124-2.718C246.957,214.681,245.266,214.673,244.936,215.344L244.936,215.344z"/>
				</g>
			</g>
			<g>
				<g>
					<path fill="#495524" d="M231.158,212.111c-0.811-0.347-1.59-0.167-2.299,0.329c-0.244,0.17-0.483,0.533-0.125,0.734
						c0.35,0.196,0.879,0.083,1.188-0.135c0.222-0.124,0.193-0.144-0.077-0.059c0.385,0.165,0.84,0.096,1.188-0.135
						C231.254,212.7,231.544,212.275,231.158,212.111L231.158,212.111z"/>
				</g>
			</g>
			<g>
				<g>
					<path fill="#495524" d="M212.077,231.037c1.082-0.131,2.135-0.313,3.175-0.646c0.052-0.017,0.75-0.296,0.511-0.427
						c-0.285-0.157-0.794,0.033-1.069,0.121c-0.608,0.194-1.243,0.269-1.875,0.345c-0.371,0.045-0.825,0.144-1.123,0.385
						C211.405,231.055,211.958,231.051,212.077,231.037L212.077,231.037z"/>
				</g>
			</g>
			<g>
				<g>
					<path fill="#495524" d="M221.87,228.723c0.959,0.43,2.076,0.215,2.976-0.26c0.294-0.154,0.651-0.521,0.393-0.869
						c-0.247-0.33-0.809-0.301-1.137-0.129c-0.433,0.229-0.811,0.326-1.269,0.121C222.126,227.27,220.896,228.285,221.87,228.723
						L221.87,228.723z"/>
				</g>
			</g>
			<g>
				<g>
					<path fill="#495524" d="M220.748,223.602c0.959-0.327,1.872-0.774,2.832-1.099c0.083-0.028,0.751-0.311,0.495-0.486
						c-0.276-0.189-0.804-0.005-1.078,0.088c-0.96,0.325-1.872,0.772-2.832,1.099c-0.083,0.029-0.751,0.311-0.495,0.486
						C219.945,223.878,220.475,223.694,220.748,223.602L220.748,223.602z"/>
				</g>
			</g>
			<g>
				<g>
					<path fill="#495524" d="M206.028,252.01c0.88,0.426,1.829,0.653,2.777,0.871c0.387,0.088,0.888-0.056,1.182-0.316
						c0.268-0.238,0.182-0.516-0.159-0.594c-0.847-0.193-1.684-0.391-2.47-0.771c-0.357-0.173-0.865-0.038-1.184,0.155
						C205.948,251.494,205.668,251.836,206.028,252.01L206.028,252.01z"/>
				</g>
			</g>
			<g>
				<g>
					<path fill="#495524" d="M210.959,255.264c0.884,0.433,1.838,0.689,2.721,1.125c0.355,0.176,0.867,0.039,1.184-0.154
						c0.229-0.141,0.503-0.479,0.146-0.656c-0.883-0.436-1.837-0.694-2.721-1.125c-0.356-0.174-0.866-0.04-1.184,0.154
						C210.877,254.746,210.601,255.089,210.959,255.264L210.959,255.264z"/>
				</g>
			</g>
			<g>
				<g>
					<path fill="#495524" d="M224.812,257.549c1.364-0.771,2.729-1.541,4.151-2.203c1.037-0.479,0.115-1.418-0.748-1.018
						c-1.422,0.661-2.788,1.432-4.152,2.203C223.076,257.09,223.971,258.025,224.812,257.549L224.812,257.549z"/>
				</g>
			</g>
			<g>
				<g>
					<path fill="#495524" d="M257.217,235.273c0.639-0.683,0.867-1.726,0.782-2.635c-0.046-0.48-1.726-0.133-1.672,0.448
						c0.071,0.752-0.126,1.638-0.653,2.201c-0.277,0.297,0.236,0.426,0.436,0.424C256.507,235.709,256.941,235.568,257.217,235.273
						L257.217,235.273z"/>
				</g>
			</g>
			<g>
				<g>
					<path fill="#495524" d="M259.648,215.446c-0.398,0.848-0.424,1.795-0.322,2.712c0.045,0.392,1.729,0.05,1.672-0.448
						c-0.098-0.868-0.072-1.731,0.307-2.534c0.144-0.304-0.582-0.234-0.684-0.217C260.318,215.007,259.797,215.132,259.648,215.446
						L259.648,215.446z"/>
				</g>
			</g>
			<g>
				<g>
					<path fill="#495524" d="M258.002,222.716c-0.102,0.62-0.333,1.155-0.615,1.711c-0.142,0.28,0.592,0.189,0.674,0.175
						c0.289-0.05,0.826-0.166,0.978-0.463c0.282-0.556,0.515-1.092,0.614-1.711C259.721,222.008,258.07,222.304,258.002,222.716
						L258.002,222.716z"/>
				</g>
			</g>
			<g>
				<g>
					<path fill="#495524" d="M248.82,208.583c0.664,0.594,1.21,1.291,1.658,2.061c0.26,0.444,1.832-0.172,1.672-0.448
						c-0.477-0.815-1.055-1.568-1.76-2.198C250.039,207.683,248.521,208.317,248.82,208.583L248.82,208.583z"/>
				</g>
			</g>
			<g>
				<g>
					<path fill="#495524" d="M249.239,215.805c0.349,0.017,0.669,0.199,0.976,0.352c0.342,0.171,0.875,0.009,1.18-0.168
						c0.226-0.131,0.506-0.434,0.158-0.607c-0.535-0.268-1.045-0.438-1.648-0.467c-0.363-0.018-0.879,0.141-1.105,0.444
						C248.555,215.683,249.004,215.793,249.239,215.805L249.239,215.805z"/>
				</g>
			</g>
			<g>
				<g>
					<path fill="#495524" d="M223.732,209.648c1.02-0.344,1.973-0.832,2.7-1.642c0.24-0.267-0.213-0.26-0.387-0.243
						c-0.329,0.032-0.884,0.127-1.12,0.391c-0.497,0.554-1.056,0.919-1.759,1.156c-0.061,0.021-0.752,0.3-0.506,0.447
						C222.939,209.925,223.46,209.739,223.732,209.648L223.732,209.648z"/>
				</g>
			</g>
			<g>
				<g>
					<path fill="#495524" d="M214.949,205.158c-0.211,0.922-0.425,1.842-0.676,2.754c-0.265,0.961,1.397,0.995,1.608,0.229
						c0.283-1.024,0.53-2.056,0.767-3.091C216.845,204.19,215.129,204.374,214.949,205.158L214.949,205.158z"/>
				</g>
			</g>
			<g>
				<g>
					<path fill="#495524" d="M227.293,194.714c0.629,0.624,1.273,1.219,1.811,1.926c0.422,0.553,2.023-0.071,1.539-0.709
						c-0.539-0.707-1.184-1.302-1.811-1.926C228.336,193.513,226.751,194.174,227.293,194.714L227.293,194.714z"/>
				</g>
			</g>
			<g>
				<g>
					<path fill="#495524" d="M233.408,190.372c0.199,0.653,0.279,1.327,0.195,2.007c-0.076,0.637,1.604,0.319,1.668-0.222
						c0.093-0.752,0.028-1.508-0.191-2.234C234.91,189.363,233.244,189.829,233.408,190.372L233.408,190.372z"/>
				</g>
			</g>
			<g>
				<g>
					<path fill="#495524" d="M199.377,211.469c0.035,1.307,0.968,2.063,2.248,2.104c0.394,0.013,0.89-0.116,1.094-0.491
						c0.191-0.35-0.163-0.613-0.488-0.624c-0.681-0.022-1.149-0.441-1.168-1.148C201.041,210.493,199.359,210.801,199.377,211.469
						L199.377,211.469z"/>
				</g>
			</g>
			<g>
				<g>
					<path fill="#495524" d="M264.492,235.445c0.471,0.973,0.8,1.973,0.997,3.033c0.085,0.457,1.767,0.061,1.672-0.447
						c-0.197-1.063-0.526-2.063-0.997-3.033C265.926,234.508,264.309,235.066,264.492,235.445L264.492,235.445z"/>
				</g>
			</g>
			<g>
				<g>
					<path fill="#495524" d="M260.994,245.861c-0.488,0.365-0.951,0.74-1.26,1.275c-0.209,0.362,0.18,0.62,0.494,0.651
						c0.405,0.039,0.883-0.134,1.094-0.498c0.181-0.313,0.479-0.521,0.764-0.731c0.264-0.197,0.457-0.586,0.104-0.813
						C261.844,245.525,261.307,245.627,260.994,245.861L260.994,245.861z"/>
				</g>
			</g>
			<g>
				<g>
					<path fill="#495524" d="M259.582,249.659c0.033,0.159-0.133,0.282-0.239,0.368c-0.288,0.233-0.421,0.664-0.075,0.918
						c0.344,0.253,0.885,0.17,1.202-0.088c0.505-0.409,0.929-0.963,0.784-1.646C261.078,248.387,259.404,248.824,259.582,249.659
						L259.582,249.659z"/>
				</g>
			</g>
			<g>
				<g>
					<path fill="#495524" d="M264.346,244.08c-0.035,0.566-0.313,1.064-0.566,1.561c-0.414,0.821,1.277,0.771,1.589,0.154
						c0.295-0.583,0.625-1.199,0.665-1.861C266.084,243.104,264.389,243.373,264.346,244.08L264.346,244.08z"/>
				</g>
			</g>
			<g>
				<g>
					<path fill="#495524" d="M253.619,251.045c-0.365,0.254-0.79,0.387-1.211,0.523c-0.254,0.084-0.814,0.305-0.715,0.679
						c0.096,0.354,0.703,0.312,0.957,0.229c0.699-0.229,1.414-0.451,2.022-0.875c0.229-0.16,0.497-0.51,0.134-0.701
						C254.461,250.719,253.928,250.831,253.619,251.045L253.619,251.045z"/>
				</g>
			</g>
			<g>
				<g>
					<path fill="#495524" d="M256.672,247.342c-0.061-0.017-0.119-0.002-0.176,0.044c-0.096,0.031-0.75,0.317-0.491,0.503
						c0.276,0.199,0.804,0.014,1.081-0.078c0.473-0.154,0.941-0.338,1.238-0.752c0.188-0.262-0.625-0.199-0.678-0.188
						C257.305,246.928,256.885,247.045,256.672,247.342L256.672,247.342z"/>
				</g>
			</g>
			<g>
				<g>
					<path fill="#495524" d="M238.575,250.672c0.063,0.331-0.067,0.668-0.002,1.01c0.134,0.705,1.81,0.281,1.672-0.447
						c-0.063-0.332,0.067-0.668,0.002-1.01C240.109,249.52,238.434,249.945,238.575,250.672L238.575,250.672z"/>
				</g>
			</g>
			<g>
				<g>
					<path fill="#495524" d="M235.744,256.85c-0.57,0.226-0.861,0.545-1.135,1.082c-0.156,0.308,0.59,0.248,0.688,0.232
						c0.319-0.051,0.807-0.18,0.969-0.497c0.061-0.118,0.332-0.422,0.088-0.325c0.117-0.047,0.744-0.331,0.479-0.547
						C236.566,256.581,236.016,256.743,235.744,256.85L235.744,256.85z"/>
				</g>
			</g>
			<g>
				<g>
					<path fill="#495524" d="M251.311,265.014c-0.418,0.312-0.818,0.629-1.086,1.086c-0.148,0.258,0.604,0.16,0.666,0.149
						c0.293-0.054,0.814-0.162,0.982-0.45c0.229-0.395,0.588-0.652,0.947-0.922c0.315-0.236-0.279-0.27-0.391-0.26
						C252.035,264.652,251.628,264.775,251.311,265.014L251.311,265.014z"/>
				</g>
			</g>
			<g>
				<g>
					<path fill="#495524" d="M240.314,259.989c0.207,0.296,0.319,0.585,0.328,0.948c0.018,0.797,1.694,0.476,1.682-0.168
						c-0.012-0.572-0.137-1.004-0.469-1.477C241.479,258.754,239.867,259.352,240.314,259.989L240.314,259.989z"/>
				</g>
			</g>
			<g>
				<g>
					<path fill="#495524" d="M232.936,269.059c0.601,0.088,1.213,0.185,1.768,0.441c0.333,0.156,0.755,0.053,1.083-0.07
						c0.055-0.021,0.787-0.377,0.487-0.518c-0.726-0.338-1.481-0.471-2.268-0.585c-0.378-0.056-0.873,0.104-1.182,0.315
						C232.539,268.838,232.626,269.014,232.936,269.059L232.936,269.059z"/>
				</g>
			</g>
			<g>
				<g>
					<path fill="#495524" d="M240.596,267.467c1.644-0.381,3.086-1.378,3.887-2.878c0.44-0.825-1.256-0.812-1.594-0.178
						c-0.549,1.026-1.469,1.679-2.593,1.938c-0.321,0.073-0.791,0.389-0.687,0.781C239.721,267.541,240.273,267.541,240.596,267.467
						L240.596,267.467z"/>
				</g>
			</g>
			<g>
				<g>
					<path fill="#495524" d="M207.83,267.329c2.066,0.412,4.867-0.909,6.651,0.353c0.469,0.33,2.007-0.352,1.323-0.834
						c-2.064-1.46-4.701-0.011-6.959-0.461C208.285,266.275,206.867,267.137,207.83,267.329L207.83,267.329z"/>
				</g>
			</g>
			<g>
				<g>
					<path fill="#495524" d="M236.538,273.574c0.467-0.342,0.938-0.651,1.53-0.662c0.377-0.007,0.871-0.123,1.104-0.451
						c0.229-0.318-0.19-0.475-0.446-0.47c-1.35,0.024-2.453,0.546-3.522,1.331c-0.292,0.214-0.169,0.509,0.151,0.568
						C235.771,273.97,236.207,273.816,236.538,273.574L236.538,273.574z"/>
				</g>
			</g>
			<g>
				<g>
					<path fill="#495524" d="M197.467,253.081c0.383,0.218,0.625,0.54,0.883,0.89c0.487,0.657,2.067-0.027,1.523-0.761
						c-0.32-0.433-0.656-0.869-1.13-1.14c-0.383-0.219-0.85-0.195-1.203,0.085C197.278,252.363,197.089,252.865,197.467,253.081
						L197.467,253.081z"/>
				</g>
			</g>
			<g>
				<g>
					<path fill="#495524" d="M199.264,257.002c0.75,0.648,1.533,1.271,2.415,1.729c0.386,0.201,0.846,0.166,1.199-0.1
						c0.25-0.188,0.471-0.669,0.089-0.867c-0.882-0.457-1.666-1.08-2.415-1.729C199.987,255.549,198.53,256.369,199.264,257.002
						L199.264,257.002z"/>
				</g>
			</g>
			<g>
				<g>
					<path fill="#495524" d="M206.465,257.732c0.306-0.303,0.665-0.711,1.078-0.865c0.338-0.128,0.789-0.398,0.671-0.84
						c-0.105-0.392-0.662-0.518-1-0.389c-0.878,0.329-1.504,0.892-2.164,1.543c-0.294,0.289-0.109,0.733,0.233,0.867
						C205.714,258.218,206.155,258.039,206.465,257.732L206.465,257.732z"/>
				</g>
			</g>
			<g>
				<g>
					<path fill="#495524" d="M251.145,240.33c0.17,0.595,0.084,1.158-0.344,1.619c-0.271,0.291,0.23,0.378,0.42,0.371
						c0.379-0.014,0.846-0.139,1.111-0.426c0.52-0.56,0.695-1.277,0.482-2.014C252.678,239.406,251.01,239.866,251.145,240.33
						L251.145,240.33z"/>
				</g>
			</g>
			<g>
				<g>
					<path fill="#495524" d="M259.689,205.438c0.504,0.98,1.332,1.681,2.153,2.39c0.332,0.286,1.808-0.362,1.577-0.561
						c-0.786-0.678-1.576-1.338-2.061-2.277C261.156,204.593,259.566,205.198,259.689,205.438L259.689,205.438z"/>
				</g>
			</g>
		</g>
		<g>
			<path fill="#89A428" d="M195.298,217.181c-1.822,1.101-5.255,1.388-7.278,1.885c-4.042,0.989-9.708,3.688-13.737,1.145
				c0.812-0.602,1.924-0.798,2.835-1.098c-1.209-0.106-2.627-0.312-3.837-0.925c0.508,0.002,1.011,0.003,1.316-0.095
				c-0.803-0.913-2.619-1.326-3.928-1.734c1.516-0.501,5.051-0.986,6.053,0.534c0.004-1.011,0.516-2.018,1.327-2.62
				c1.003,1.014,1.909,1.725,3.014,2.538c-0.193-1.11,0.016-2.524,1.229-2.922c1.102,1.823,3.726,1.634,5.44,2.245
				c2.114,0.819,3.221,1.634,5.546,1.036c-4.028-1.53-6.539-4.572-11.082-4.594c-2.523-0.013-4.853,1.088-7.173,0.674
				c-2.117-0.315-3.828-1.434-6.053-1.543c0.205,0.101,0.205,0.101,0.404,0.201c-1.408-0.711-2.818-1.424-4.233-1.632
				c0.911-0.301,2.329-0.596,3.337-1.097c-0.805-0.406-1.711-0.612-2.52-1.021c2.933-0.792,0.921-2.318-0.893-2.73
				c0.706,0.104,1.415-0.296,2.021-0.497c-1.409-1.218-3.326-1.428-4.532-2.543c0.41-0.807,1.016-1.511,1.425-2.318
				c-1.007-0.508-2.421-0.716-3.022-1.526c0.607-0.199,1.012-0.502,1.62-0.7c-1.211-0.612-1.911-1.726-1.504-3.035
				c1.314,0.409,2.521,1.02,3.934,1.733c-0.099-0.808,0.208-1.413,0.008-2.018c0.804,0.912,1.202,2.124,2.104,2.836
				c-0.497-1.012-0.794-1.924-0.79-2.933c2.52,0.517,3.321,1.934,3.413,4.257c0.917-1.813-0.084-3.837,0.53-5.551
				c1.206,1.116,2.517,1.525,4.233,1.635c-0.507-0.001-0.91,0.3-1.517,0.499c0.808-0.098,1.412,0.208,2.322-0.09
				c0.399,1.216,0.593,2.831,1.193,4.146c-0.296-1.415-0.794-2.929,0.223-4.44c1.105,0.813,2.014,1.018,2.41,2.231
				c0.815-1.108,1.323-2.113,1.833-3.121c2.011,1.524,2.399,5.261,2.083,7.886c0.305-0.604,0.813-1.105,1.122-1.712
				c1.6,2.331-0.736,4.944,0.165,7.17c1.224-2.418,0.936-5.852-0.062-8.38c1.417-0.298,2.623,0.819,2.716,2.134
				c-0.402-0.711-0.197-1.112-0.294-1.922c0,0,0,0,0.103-0.2c1.41,0.711,1.404,2.226,1.803,3.44c0.506-1.009,0.815-2.12,1.325-3.125
				c1.108,0.812,2.208,3.141,2.503,4.556c0.913-0.803,1.824-1.104,2.834-1.097c0.085,2.826-1.944,5.34-2.768,7.96
				c-0.305,1.111-1.123,3.227-0.824,4.137c0.497,1.515,2.213,1.627,3.114,2.841"/>
		</g>
	</g>
</g>
</svg>
