<?xml version="1.0" encoding="utf-8"?>
<!-- Generator: Adobe Illustrator 16.0.0, SVG Export Plug-In . SVG Version: 6.00 Build 0)  -->
<!DOCTYPE svg PUBLIC "-//W3C//DTD SVG 1.1//EN" "http://www.w3.org/Graphics/SVG/1.1/DTD/svg11.dtd">
<svg version="1.1" id="Ebene_1" xmlns="http://www.w3.org/2000/svg" xmlns:xlink="http://www.w3.org/1999/xlink" x="0px" y="0px"
	 width="450px" height="450px" viewBox="0 0 450 450" enable-background="new 0 0 450 450" xml:space="preserve">
<g>
	<g>
		<g>
			<g>
				<g>
					<g>
						<g>
							<path fill="#B4734B" d="M73.784,179.76c8.854-8.778,24.23-7.688,35.245,0.819c65.293,50.775,166.855,50.775,232.148,0
								c11.01-8.507,26.393-9.598,35.246-0.819l0,0c8.842,8.729,5.921,25.928-7.615,36.434c-81.51,63.385-205.898,63.385-287.409,0
								C67.862,205.686,64.947,188.49,73.784,179.76"/>
							<path fill="none" stroke="#DCA184" stroke-width="6.4896" stroke-linecap="round" stroke-miterlimit="10" d="M82.746,183.58
								c0,0,9.992-6.045,26.283,6.677c31.979,24.869,72.658,36.141,113.516,36.648c42.564,0.53,85.318-10.742,118.633-36.648
								c15.398-11.473,25.637-7.46,25.637-7.46"/>
							<path fill="none" stroke="#50392C" stroke-width="4.2497" stroke-linecap="round" stroke-miterlimit="10" d="M73.784,179.76"
								/>
							<path fill="none" stroke="#50392C" stroke-width="4.2497" stroke-linecap="round" stroke-miterlimit="10" d="M376.424,179.76
								"/>
							<path fill="#93583B" d="M368.809,200.493c-40.732,31.676-92.173,49.685-143.619,49.701
								c-51.504,0.017-103.013-17.992-143.79-49.701c-5.569-4.323-9.338-9.78-11.231-15.313c-3.83,9.257,0.118,22.387,11.231,31.014
								c81.511,63.385,205.899,63.385,287.409,0c11.111-8.625,15.063-21.757,11.233-31.014
								C378.147,190.713,374.379,196.17,368.809,200.493z"/>
						</g>
					</g>
					<g>
						<defs>
							<path id="SVGID_1_" d="M73.784,179.76c8.854-8.778,24.23-7.688,35.245,0.819c65.293,50.775,166.855,50.775,232.148,0
								c11.01-8.507,26.393-9.598,35.246-0.819l0,0c8.842,8.729,5.921,25.928-7.615,36.434c-81.51,63.385-205.898,63.385-287.409,0
								C67.862,205.686,64.947,188.49,73.784,179.76"/>
						</defs>
						<clipPath id="SVGID_2_">
							<use xlink:href="#SVGID_1_"  overflow="visible"/>
						</clipPath>
					</g>
				</g>
				<g>
					
						<line fill="none" stroke="#673C2B" stroke-width="6.4896" stroke-linecap="round" stroke-miterlimit="10" x1="119.498" y1="195.745" x2="119.498" y2="214.861"/>
					
						<line fill="none" stroke="#673C2B" stroke-width="6.4896" stroke-linecap="round" stroke-miterlimit="10" x1="332.438" y1="195.745" x2="332.438" y2="214.861"/>
					
						<line fill="none" stroke="#673C2B" stroke-width="6.4896" stroke-linecap="round" stroke-miterlimit="10" x1="143.35" y1="207.92" x2="143.35" y2="227.036"/>
					
						<line fill="none" stroke="#673C2B" stroke-width="6.4896" stroke-linecap="round" stroke-miterlimit="10" x1="95.648" y1="183.567" x2="95.648" y2="202.684"/>
					
						<line fill="none" stroke="#673C2B" stroke-width="6.4896" stroke-linecap="round" stroke-miterlimit="10" x1="167.2" y1="217.054" x2="167.2" y2="236.172"/>
					
						<line fill="none" stroke="#673C2B" stroke-width="6.4896" stroke-linecap="round" stroke-miterlimit="10" x1="191.053" y1="222.325" x2="191.053" y2="241.442"/>
					
						<line fill="none" stroke="#673C2B" stroke-width="6.4896" stroke-linecap="round" stroke-miterlimit="10" x1="214.905" y1="224.306" x2="214.905" y2="243.425"/>
					
						<line fill="none" stroke="#673C2B" stroke-width="6.4896" stroke-linecap="round" stroke-miterlimit="10" x1="238.757" y1="224.308" x2="238.757" y2="243.425"/>
					
						<line fill="none" stroke="#673C2B" stroke-width="6.4896" stroke-linecap="round" stroke-miterlimit="10" x1="262.608" y1="222.325" x2="262.608" y2="241.442"/>
					
						<line fill="none" stroke="#673C2B" stroke-width="6.4896" stroke-linecap="round" stroke-miterlimit="10" x1="286.46" y1="217.054" x2="286.46" y2="236.172"/>
					
						<line fill="none" stroke="#673C2B" stroke-width="6.4896" stroke-linecap="round" stroke-miterlimit="10" x1="310.313" y1="207.92" x2="310.313" y2="227.036"/>
					
						<line fill="none" stroke="#673C2B" stroke-width="6.4896" stroke-linecap="round" stroke-miterlimit="10" x1="354.563" y1="183.567" x2="354.563" y2="202.684"/>
				</g>
			</g>
		</g>
	</g>
</g>
</svg>
