<?xml version="1.0" encoding="utf-8"?>
<!-- Generator: Adobe Illustrator 16.0.0, SVG Export Plug-In . SVG Version: 6.00 Build 0)  -->
<!DOCTYPE svg PUBLIC "-//W3C//DTD SVG 1.1//EN" "http://www.w3.org/Graphics/SVG/1.1/DTD/svg11.dtd">
<svg version="1.1" id="Ebene_1" xmlns="http://www.w3.org/2000/svg" xmlns:xlink="http://www.w3.org/1999/xlink" x="0px" y="0px"
	 width="450px" height="450px" viewBox="0 0 450 450" enable-background="new 0 0 450 450" xml:space="preserve">
<g id="beef">
	<g>
		<path fill="#FB9642" d="M162.026,335.84c19.423-27.367,34.43-57.383,60.032-79.453c19.421-17.658,43.258-27.369,67.094-36.197
			c20.305-7.063,43.259-10.593,64.447-11.479c9.711,0,26.483,4.416,35.312,0c12.359-5.295,9.877-21.287,4.416-30.014
			c-10.36-16.553-50.462-23.118-79.595-16.939c-26.485,6.181-52.604,13.925-80.453,25.527c-41.759,17.4-65.956,52.326-90.675,87.639
			c-10.593,16.773-23.836,39.727-19.42,60.033c3.53,12.357,11.476,20.303,23.835,15.008c10.594-4.414,12.226-11.674,16.639-16.086"
			/>
	</g>
	<g>
		<path fill="#FBAE71" d="M159.863,332.811c19.423-27.367,34.431-57.381,60.032-79.455c19.422-17.656,43.258-27.367,67.096-36.193
			c20.305-7.064,43.259-10.595,64.444-11.478c9.712,0,26.483,4.414,35.313,0c12.359-5.298,9.878-21.289,4.414-30.016
			c-10.358-16.552-50.461-23.119-79.595-16.939c-26.485,6.18-52.604,13.926-80.45,25.528c-41.76,17.4-65.958,52.327-90.676,87.64
			c-10.594,16.773-23.835,39.725-19.423,60.031c3.531,12.359,11.478,20.305,23.836,15.01c10.594-4.414,12.225-11.672,16.641-16.088"
			/>
	</g>
	<g>
		<g>
			<path fill="#FBC672" d="M147.892,313.982c0.941-11.268,8.034-22.637,13.595-32.238c5.963-10.299,13.744-19.424,21.885-28.049
				c7.711-8.168,15.536-16.299,23.975-23.725c9.187-8.082,19.706-14.348,30.24-20.492c21.831-12.734,45.506-23.12,69.973-29.592
				c12.016-3.178,24.674-5.08,37.035-6.234c2.948-0.275,5.966-0.028,8.927,0.075c1.702,0.059,3.402,0.135,5.104,0.222
				c0.712,0.037,3.563,0.713,2.494-0.026c2.789,1.933,12.88-2.755,10.998-4.06c-1.697-1.176-4.964-0.841-6.912-0.941
				c-3.61-0.186-7.227-0.289-10.841-0.362c-12.368-0.252-25.176,2.728-37.271,5.018c-27.515,5.21-54.646,16.723-79.142,30.062
				c-12.145,6.614-24.378,13.601-35.282,22.144c-9.985,7.824-18.739,17.023-27.519,26.141c-9.025,9.369-17.452,19.227-24.323,30.307
				c-6.346,10.232-13.612,22.701-14.63,34.885C136.044,318.967,147.588,317.627,147.892,313.982L147.892,313.982z"/>
		</g>
	</g>
	<g>
		<path fill="#FB9642" d="M129.93,338.482c1.731,5.191-5.191,3.896-6.057,6.49c-0.867,3.461,3.46,3.895,5.192,2.164
			c2.162,4.326,4.76,7.354,4.76,0c0-2.164-1.3-5.191-0.434-6.492"/>
	</g>
	<g>
		<path fill="#FB9642" d="M394.733,190.077c2.065,1.793,5.293,0.788,8.023,0.981c-0.664,1.601-1.563,2.634-3.256,3.336
			c1.271,1.462,1.807,3.555,1.541,5.322c-4.023,0.675-5.4-5.047-9.264-4.771"/>
	</g>
</g>
</svg>
