<?xml version="1.0" encoding="utf-8"?>
<!-- Generator: Adobe Illustrator 16.0.0, SVG Export Plug-In . SVG Version: 6.00 Build 0)  -->
<!DOCTYPE svg PUBLIC "-//W3C//DTD SVG 1.1//EN" "http://www.w3.org/Graphics/SVG/1.1/DTD/svg11.dtd">
<svg version="1.1" id="Layer_2" xmlns="http://www.w3.org/2000/svg" xmlns:xlink="http://www.w3.org/1999/xlink" x="0px" y="0px"
	 width="450px" height="450px" viewBox="0 0 450 450" enable-background="new 0 0 450 450" xml:space="preserve">
<g>
	<g>
		<g>
			<g opacity="0.3">
				<path d="M195.281,278.154c0,0,8.168,10.206,17.205,13.705c17.377,6.728,66.484-6.707,72.605-17.495
					c5.918-10.426,6.414-18.518,6.414-18.518L195.281,278.154z"/>
				<path d="M236.395,224.793l-72.605,18.37c0,0,4.518,28.72,23.182,38.054c10.303,5.149,45.465,5.787,73.086-2.598l24.209-74.45
					C266.106,209.018,236.395,224.793,236.395,224.793z"/>
				<path d="M297.631,204.674c-1.426-2.612-6.6-2.312-13.365-0.505l-24.209,74.45c9.91-3.009,18.857-7.168,25.326-12.712
					C309.877,244.911,302.877,214.296,297.631,204.674z"/>
				<path d="M166.703,251.328c8.547,19.942,79.316,26.826,114.307-1.167s20.994-72.314-26.828-71.148
					C206.362,180.178,145.709,202.34,166.703,251.328z"/>
				<path d="M291.506,217.795c-0.873-8.748-2.625-20.121-21.869-27.118c-19.244-6.998-69.107,4.375-80.48,13.121
					c-11.371,8.748-21.867,25.368-19.244,34.99c2.625,9.625,10.936,17.496,10.936,17.496L291.506,217.795z"/>
				<path d="M183.908,218.669c-18.369,11.373-11.729,27.969-3.936,37.178c1.732,2.045,6.809,3.352,13.281,4.109l33.449-52.701
					C214.446,209.425,199.184,209.213,183.908,218.669z"/>
				<path d="M230.272,259.784c14.871-1.749,34.115-6.561,45.928-15.309c14.551-10.779,15.307-26.681,15.307-26.681
					c0-22.743-27.992-35.866-35.867-30.618c-7.871,5.25-8.746,13.998-21.867,18.371c-2.211,0.737-4.582,1.267-7.068,1.707
					l-33.449,52.701C204.78,261.303,220.752,260.905,230.272,259.784z"/>
				<path d="M228.961,199.862c5.664,3.967,16.182-8.313,17.494-13.997c1.313-5.687-0.875-8.311-6.559-10.06
					c-5.688-1.75-7.875,8.747-10.936,13.996C225.899,195.052,224.586,196.8,228.961,199.862z"/>
				<path d="M249.953,183.24c1.313,3.063,4.813,2.187,5.686-2.187C256.516,176.68,248.643,180.178,249.953,183.24z"/>
				<path d="M246.893,175.805c-0.873,7.435,12.412-0.93,13.998-8.311C262.475,160.114,247.768,168.369,246.893,175.805z"/>
				<path d="M259.698,186.048c2.879,0.068,5.611,0.887,8.035,3.561c2.127,2.344,4.172,5.4,5.48,8.272
					c0.846,1.859,1.146,3.767,1.104,5.803c-0.002,0.551-0.043,1.099-0.105,1.643c6.033,3.363,8.381,8.785,7.006,15.965
					c-1.121,5.85-3.875,10.667-9.092,13.824c-0.635,0.384-1.275,0.756-1.922,1.121c-1.844,2.633-3.584,5.403-6.186,7.419
					c-5.004,3.878-11.473,5.552-17.547,6.934c-4.975,3.501-10.311,6.388-16.381,7.813c-2.779,0.652-5.547,1.36-8.311,2.087
					c3.135-0.175,6.031-0.414,8.492-0.704c14.871-1.749,34.115-6.561,45.928-15.309c14.551-10.779,15.307-26.681,15.307-26.681
					C291.506,198.049,270.412,185.563,259.698,186.048z"/>
				<path d="M259.698,186.048c1.945,0.046,3.818,0.451,5.58,1.522c10.721,3.872,23.518,14.845,23.518,30.225
					c0,0-0.756,15.901-15.309,26.681c-11.811,8.748-31.057,13.56-45.928,15.309c-1.463,0.173-3.096,0.324-4.828,0.458
					c-0.316,0.083-0.635,0.163-0.951,0.246c3.135-0.175,6.031-0.414,8.492-0.704c14.871-1.749,34.115-6.561,45.928-15.309
					c14.551-10.779,15.307-26.681,15.307-26.681C291.506,198.049,270.412,185.563,259.698,186.048z"/>
			</g>
			<g>
				<g>
					<g>
						<path fill="#ACAAA2" d="M183.943,269.65c0,0,8.168,10.206,17.205,13.705c17.378,6.728,66.484-6.707,72.606-17.495
							c5.918-10.426,6.414-18.518,6.414-18.518L183.943,269.65z"/>
						<g>
							<path fill="#D9D8D4" d="M225.056,216.289l-72.605,18.37c0,0,4.519,28.72,23.182,38.054
								c10.304,5.149,45.465,5.787,73.085-2.598l24.21-74.45C254.767,200.514,225.056,216.289,225.056,216.289z"/>
							<path fill="#CFCDC4" d="M286.292,196.17c-1.425-2.612-6.6-2.312-13.365-0.505l-24.21,74.45
								c9.912-3.009,18.859-7.168,25.327-12.712C298.537,236.407,291.537,205.792,286.292,196.17z"/>
						</g>
						<path fill="#ECEAEB" d="M155.365,242.824c8.547,19.942,79.315,26.826,114.307-1.167c34.99-27.993,20.993-72.314-26.829-71.148
							C195.023,171.675,134.371,193.836,155.365,242.824z"/>
						<path fill="#D9D8D4" d="M280.168,209.291c-0.874-8.748-2.625-20.121-21.87-27.118c-19.245-6.998-69.106,4.375-80.479,13.121
							c-11.371,8.748-21.867,25.368-19.245,34.99c2.625,9.625,10.936,17.496,10.936,17.496L280.168,209.291z"/>
						<path fill="#CFCDC4" d="M169.509,247.911l1.523-0.53c2.458-5.576,4.944-11.14,7.444-16.698
							c5.232-13.011,10.377-26.059,15.957-38.914c0.469-1.38,0.946-2.757,1.424-4.134c-8.137,2.474-14.727,5.242-18.039,7.79
							c-11.371,8.748-21.867,25.368-19.245,34.99C161.198,240.04,169.509,247.911,169.509,247.911z"/>
						<g>
							<path fill="#F6F6F6" d="M172.57,210.165c-18.369,11.373-11.729,27.969-3.936,37.178c1.732,2.045,6.809,3.352,13.281,4.109
								l33.45-52.701C203.108,200.921,187.846,200.709,172.57,210.165z"/>
							<path fill="#EBF1F3" d="M218.933,251.28c14.871-1.749,34.116-6.561,45.928-15.309c14.552-10.779,15.308-26.681,15.308-26.681
								c0-22.743-27.993-35.866-35.867-30.618c-7.872,5.25-8.746,13.998-21.867,18.371c-2.213,0.737-4.584,1.267-7.068,1.707
								l-33.45,52.701C193.442,252.8,209.414,252.401,218.933,251.28z"/>
							<path fill="#EBF1F3" d="M217.622,191.358c5.665,3.967,16.182-8.313,17.494-13.997c1.313-5.687-0.874-8.311-6.559-10.06
								c-5.688-1.75-7.875,8.747-10.936,13.996C214.56,186.548,213.247,188.296,217.622,191.358z"/>
							<path fill="#EBF1F3" d="M238.615,174.736c1.313,3.063,4.812,2.187,5.686-2.187
								C245.177,168.177,237.304,171.675,238.615,174.736z"/>
							<path fill="#EBF1F3" d="M235.555,167.302c-0.874,7.435,12.411-0.93,13.997-8.311
								C251.137,151.61,236.429,159.865,235.555,167.302z"/>
							<path fill="#CBDFE2" d="M248.36,177.544c2.879,0.068,5.611,0.887,8.035,3.561c2.127,2.344,4.171,5.4,5.479,8.272
								c0.847,1.859,1.147,3.767,1.104,5.803c-0.002,0.551-0.043,1.099-0.105,1.643c6.033,3.363,8.381,8.785,7.006,15.965
								c-1.121,5.85-3.875,10.667-9.092,13.824c-0.635,0.384-1.275,0.756-1.922,1.121c-1.844,2.633-3.584,5.403-6.186,7.419
								c-5.004,3.878-11.473,5.552-17.547,6.934c-4.975,3.501-10.311,6.388-16.381,7.813c-2.781,0.652-5.547,1.36-8.311,2.087
								c3.135-0.175,6.031-0.414,8.491-0.704c14.871-1.749,34.116-6.561,45.928-15.309c14.552-10.779,15.308-26.681,15.308-26.681
								C280.168,189.545,259.074,177.059,248.36,177.544z"/>
							<path fill="#9ECAD8" d="M248.36,177.544c1.944,0.046,3.818,0.451,5.578,1.522c10.723,3.872,23.519,14.845,23.519,30.225
								c0,0-0.756,15.901-15.308,26.681c-11.812,8.748-31.057,13.56-45.928,15.309c-1.464,0.173-3.096,0.324-4.828,0.458
								c-0.316,0.083-0.635,0.163-0.951,0.246c3.135-0.175,6.031-0.414,8.491-0.704c14.871-1.749,34.116-6.561,45.928-15.309
								c14.552-10.779,15.308-26.681,15.308-26.681C280.168,189.545,259.074,177.059,248.36,177.544z"/>
						</g>
					</g>
				</g>
			</g>
		</g>
	</g>
	<path fill="#CBDFE2" d="M228.558,167.302c-0.65-0.2-1.253-0.233-1.818-0.14c0.318,0.131,0.636,0.271,0.951,0.434
		c4.007,2.058,6.122,7.333,3.897,11.455c-1.597,2.958-4.474,4.592-6.439,6.608c-0.815,0.837-0.212,2.085-1.197,2.726
		c-0.261,0.17-2.753,1.664-2.872,1.741c-0.604,1.303-0.376,0.795-1.348,1.892c-0.025,0.029-0.053,0.053-0.079,0.08
		c5.841,0.594,14.296-9.678,15.464-14.736C236.429,171.675,234.242,169.051,228.558,167.302z"/>
	<path fill="#CBDFE2" d="M240.721,174.385c1.313,3.063,2.706,2.538,3.58-1.835C245.177,168.177,239.41,171.323,240.721,174.385z"/>
	<path fill="#CBDFE2" d="M243.217,157.747c0.139,1.235,0.113,2.474-0.255,3.718c-0.411,1.386-0.929,3.067-2.032,4.096
		c-1.494,1.395-1.517,1.444-3.35,2.283c-0.637,0.291-1.359,0.319-2.045,0.441c0.447,5.611,12.51-2.28,14.017-9.294
		C250.364,155.213,246.903,155.537,243.217,157.747z"/>
	
		<ellipse transform="matrix(-0.7909 -0.612 0.612 -0.7909 299.9205 495.801)" fill="#CBDFE2" cx="234.67" cy="196.658" rx="5.45" ry="10.598"/>
	<ellipse fill="#CBDFE2" cx="246.554" cy="182.198" rx="2.163" ry="2.17"/>
</g>
</svg>
