<?xml version="1.0" encoding="utf-8"?>
<!-- Generator: Adobe Illustrator 18.1.1, SVG Export Plug-In . SVG Version: 6.00 Build 0)  -->
<svg version="1.1" id="Layer_2" xmlns="http://www.w3.org/2000/svg" xmlns:xlink="http://www.w3.org/1999/xlink" x="0px" y="0px"
	 width="450px" height="450px" viewBox="-74 76 450 450" enable-background="new -74 76 450 450" xml:space="preserve">
<g>
	<g>
		<g>
			<g opacity="0.3">
				<path fill="#1D1D1B" d="M121.281,354.82c0,0,8.168,10.206,17.205,13.705c17.377,6.728,66.484-6.707,72.605-17.495
					c5.918-10.426,6.414-18.518,6.414-18.518L121.281,354.82z"/>
				<path fill="#1D1D1B" d="M162.395,301.459l-72.605,18.37c0,0,4.518,28.72,23.182,38.054c10.303,5.149,45.465,5.787,73.086-2.598
					l24.209-74.45C192.105,285.685,162.395,301.459,162.395,301.459z"/>
				<path fill="#1D1D1B" d="M223.631,281.34c-1.426-2.612-6.6-2.312-13.365-0.505l-24.209,74.45
					c9.91-3.009,18.857-7.168,25.326-12.712C235.877,321.577,228.877,290.962,223.631,281.34z"/>
				<path fill="#1D1D1B" d="M92.703,327.994c8.547,19.942,79.316,26.826,114.307-1.167c34.99-27.993,20.994-72.314-26.828-71.148
					C132.361,256.845,71.709,279.006,92.703,327.994z"/>
				<path fill="#1D1D1B" d="M217.506,294.461c-0.873-8.748-2.625-20.121-21.869-27.118c-19.244-6.998-69.107,4.375-80.48,13.121
					c-11.371,8.748-21.867,25.368-19.244,34.99c2.625,9.625,10.936,17.496,10.936,17.496L217.506,294.461z"/>
				<path fill="#1D1D1B" d="M109.908,295.335c-18.369,11.373-11.729,27.969-3.936,37.178c1.732,2.045,6.809,3.352,13.281,4.109
					l33.449-52.701C140.445,286.091,125.184,285.879,109.908,295.335z"/>
				<path fill="#1D1D1B" d="M156.271,336.45c14.871-1.749,34.115-6.561,45.928-15.309c14.551-10.779,15.307-26.681,15.307-26.681
					c0-22.743-27.992-35.866-35.867-30.618c-7.871,5.25-8.746,13.998-21.867,18.371c-2.211,0.737-4.582,1.267-7.068,1.707
					l-33.449,52.701C130.779,337.97,146.752,337.571,156.271,336.45z"/>
				<path fill="#1D1D1B" d="M154.961,276.528c5.664,3.967,16.182-8.312,17.494-13.997c1.312-5.687-0.875-8.311-6.559-10.06
					c-5.688-1.75-7.875,8.747-10.936,13.996C151.898,271.718,150.586,273.466,154.961,276.528z"/>
				<path fill="#1D1D1B" d="M175.953,259.906c1.312,3.063,4.812,2.186,5.686-2.187C182.516,253.347,174.643,256.845,175.953,259.906
					z"/>
				<path fill="#1D1D1B" d="M172.893,252.472c-0.873,7.435,12.412-0.93,13.998-8.311
					C188.475,236.78,173.768,245.035,172.893,252.472z"/>
				<path fill="#1D1D1B" d="M185.697,262.714c2.879,0.068,5.611,0.887,8.035,3.561c2.127,2.344,4.172,5.4,5.48,8.272
					c0.846,1.859,1.146,3.767,1.104,5.803c-0.002,0.551-0.043,1.099-0.105,1.643c6.033,3.363,8.381,8.785,7.006,15.965
					c-1.121,5.85-3.875,10.667-9.092,13.824c-0.635,0.384-1.275,0.756-1.922,1.121c-1.844,2.633-3.584,5.403-6.186,7.419
					c-5.004,3.878-11.473,5.552-17.547,6.934c-4.975,3.501-10.311,6.388-16.381,7.812c-2.779,0.652-5.547,1.36-8.311,2.087
					c3.135-0.175,6.031-0.414,8.492-0.704c14.871-1.749,34.115-6.561,45.928-15.309c14.551-10.779,15.307-26.681,15.307-26.681
					C217.506,274.715,196.412,262.229,185.697,262.714z"/>
				<path fill="#1D1D1B" d="M185.697,262.714c1.945,0.046,3.818,0.451,5.58,1.522c10.721,3.872,23.518,14.845,23.518,30.225
					c0,0-0.756,15.901-15.309,26.681c-11.811,8.748-31.057,13.56-45.928,15.309c-1.463,0.173-3.096,0.324-4.828,0.458
					c-0.316,0.083-0.635,0.163-0.951,0.246c3.135-0.175,6.031-0.414,8.492-0.704c14.871-1.749,34.115-6.561,45.928-15.309
					c14.551-10.779,15.307-26.681,15.307-26.681C217.506,274.715,196.412,262.229,185.697,262.714z"/>
			</g>
			<g>
				<g>
					<g>
						<path fill="#ADABA3" d="M109.942,346.316c0,0,8.168,10.206,17.205,13.705c17.378,6.727,66.484-6.707,72.606-17.495
							c5.918-10.426,6.414-18.518,6.414-18.518L109.942,346.316z"/>
						<g>
							<path fill="#DAD9D5" d="M151.056,292.955l-72.605,18.37c0,0,4.518,28.72,23.182,38.054
								c10.304,5.149,45.465,5.787,73.085-2.598l24.21-74.45C180.767,277.181,151.056,292.955,151.056,292.955z"/>
							<path fill="#D0CEC5" d="M212.292,272.836c-1.425-2.612-6.6-2.311-13.365-0.505l-24.21,74.45
								c9.912-3.009,18.859-7.168,25.327-12.712C224.537,313.073,217.537,282.458,212.292,272.836z"/>
						</g>
						<path fill="#EDEBEC" d="M81.365,319.49c8.547,19.942,79.315,26.826,114.307-1.167c34.99-27.993,20.993-72.314-26.829-71.148
							C121.022,248.341,60.371,270.502,81.365,319.49z"/>
						<path fill="#DAD9D5" d="M206.168,285.957c-0.874-8.748-2.625-20.121-21.87-27.118c-19.245-6.998-69.106,4.375-80.479,13.121
							c-11.371,8.748-21.867,25.368-19.245,34.99c2.625,9.625,10.936,17.496,10.936,17.496L206.168,285.957z"/>
						<path fill="#D0CEC5" d="M95.509,324.577l1.523-0.53c2.458-5.576,4.944-11.14,7.444-16.698
							c5.232-13.011,10.377-26.059,15.957-38.914c0.469-1.38,0.946-2.757,1.424-4.134c-8.137,2.474-14.727,5.242-18.039,7.79
							c-11.371,8.748-21.867,25.368-19.245,34.99C87.198,316.706,95.509,324.577,95.509,324.577z"/>
						<g>
							<path fill="#F7F7F7" d="M98.569,286.831C80.2,298.204,86.841,314.8,94.634,324.009c1.732,2.045,6.809,3.352,13.281,4.109
								l33.45-52.701C129.107,277.587,113.846,277.375,98.569,286.831z"/>
							<path fill="#ECF2F4" d="M144.933,327.946c14.871-1.749,34.116-6.561,45.928-15.309
								c14.552-10.779,15.308-26.681,15.308-26.681c0-22.743-27.993-35.866-35.867-30.618c-7.872,5.25-8.746,13.998-21.867,18.371
								c-2.213,0.737-4.584,1.267-7.068,1.707l-33.45,52.701C119.441,329.466,135.414,329.067,144.933,327.946z"/>
							<path fill="#ECF2F4" d="M143.622,268.024c5.665,3.967,16.182-8.312,17.494-13.997c1.312-5.686-0.874-8.311-6.559-10.059
								c-5.688-1.75-7.875,8.747-10.936,13.996C140.56,263.214,139.247,264.962,143.622,268.024z"/>
							<path fill="#ECF2F4" d="M164.615,251.402c1.312,3.064,4.812,2.187,5.686-2.186
								C171.177,244.843,163.304,248.341,164.615,251.402z"/>
							<path fill="#ECF2F4" d="M161.555,243.968c-0.874,7.434,12.411-0.93,13.997-8.311
								C177.137,228.276,162.429,236.531,161.555,243.968z"/>
							<path fill="#CCE0E3" d="M174.359,254.21c2.879,0.068,5.611,0.887,8.035,3.561c2.127,2.344,4.171,5.4,5.48,8.272
								c0.847,1.859,1.147,3.767,1.104,5.803c-0.002,0.551-0.043,1.099-0.105,1.643c6.033,3.363,8.381,8.785,7.006,15.965
								c-1.121,5.85-3.875,10.667-9.092,13.824c-0.635,0.384-1.275,0.756-1.922,1.121c-1.844,2.633-3.584,5.403-6.186,7.419
								c-5.004,3.878-11.473,5.552-17.547,6.934c-4.975,3.501-10.311,6.388-16.381,7.812c-2.781,0.652-5.547,1.36-8.311,2.087
								c3.135-0.175,6.031-0.414,8.491-0.704c14.871-1.749,34.116-6.561,45.928-15.309c14.552-10.779,15.308-26.681,15.308-26.681
								C206.168,266.211,185.074,253.726,174.359,254.21z"/>
							<path fill="#9FCBD9" d="M174.359,254.21c1.944,0.046,3.818,0.451,5.578,1.522c10.723,3.872,23.519,14.845,23.519,30.225
								c0,0-0.756,15.901-15.308,26.681c-11.811,8.748-31.057,13.56-45.928,15.309c-1.464,0.173-3.096,0.324-4.828,0.458
								c-0.316,0.083-0.635,0.163-0.951,0.246c3.135-0.175,6.031-0.414,8.491-0.704c14.871-1.749,34.116-6.561,45.928-15.309
								c14.552-10.779,15.308-26.681,15.308-26.681C206.168,266.211,185.074,253.726,174.359,254.21z"/>
						</g>
					</g>
				</g>
			</g>
		</g>
	</g>
	<path fill="#CCE0E3" d="M154.558,243.968c-0.65-0.2-1.253-0.233-1.818-0.14c0.318,0.131,0.636,0.271,0.951,0.434
		c4.007,2.058,6.122,7.333,3.897,11.455c-1.597,2.958-4.474,4.592-6.439,6.608c-0.815,0.837-0.212,2.085-1.197,2.726
		c-0.261,0.17-2.753,1.664-2.872,1.741c-0.604,1.303-0.376,0.795-1.348,1.892c-0.025,0.029-0.053,0.053-0.079,0.08
		c5.841,0.594,14.296-9.678,15.464-14.736C162.429,248.341,160.242,245.717,154.558,243.968z"/>
	<path fill="#CCE0E3" d="M166.721,251.051c1.313,3.064,2.706,2.538,3.58-1.835C171.177,244.843,165.41,247.989,166.721,251.051z"/>
	<path fill="#CCE0E3" d="M169.217,234.413c0.139,1.235,0.113,2.474-0.255,3.718c-0.411,1.386-0.929,3.067-2.032,4.096
		c-1.494,1.395-1.517,1.444-3.35,2.283c-0.637,0.291-1.359,0.319-2.045,0.441c0.447,5.611,12.51-2.28,14.017-9.294
		C176.363,231.879,172.902,232.203,169.217,234.413z"/>
	
		<ellipse transform="matrix(-0.7909 -0.612 0.612 -0.7909 120.4795 587.8168)" fill="#CCE0E3" cx="160.669" cy="273.324" rx="5.45" ry="10.598"/>
	<ellipse fill="#CCE0E3" cx="172.554" cy="258.864" rx="2.163" ry="2.17"/>
</g>
</svg>
