<?xml version="1.0" encoding="utf-8"?>
<!-- Generator: Adobe Illustrator 16.0.3, SVG Export Plug-In . SVG Version: 6.00 Build 0)  -->
<!DOCTYPE svg PUBLIC "-//W3C//DTD SVG 1.1//EN" "http://www.w3.org/Graphics/SVG/1.1/DTD/svg11.dtd">
<svg version="1.1" id="Ebene_1" xmlns="http://www.w3.org/2000/svg" xmlns:xlink="http://www.w3.org/1999/xlink" x="0px" y="0px"
	 width="450px" height="450px" viewBox="0 0 450 450" enable-background="new 0 0 450 450" xml:space="preserve">
<g id="parmesan">
	<g>
		<g>
			<path fill="#FBC27F" d="M179.327,230.301c-7.897-5.153-10.938-18.226-13.972-26.806c-1.775-4.908-3.691-9.972-5.449-15.177
				c-0.121-0.456-1.437-3.238-1.276-3.377c0.058-0.893,1.647-2.288,2.021-3.459c0.376-1.174-0.062-1.354,1.07-2.626
				c0.336-0.576,2.142-3.003,2.756-3.263l0.16-0.139c1.95,2.223,2.604,1.367,4.85,1.363c2.563-0.281,4.535,1.644,6.94,1.5
				c2.721-0.42,2.92-1.156,5.543-0.088c0.577,0.337,0.997,0.813,1.413,1.29l0,0c0.934-0.537,1.728-1.233,2.819-1.911
				c2.344-1.495,0.896,0.058,3.438,0.074c0.896,0.057,2.164-1.057,3.219-1.138c1.667-0.34,3.734,0.094,5.504,0.508
				c2.962,0.493,5.567,1.86,8.65,2.809c0.734,0.198,1.947-0.023,2.662,0.474c0.438,0.177,0.698,0.794,0.838,0.952
				c0.297,0.02,1.61,0.554,1.472,0.395c1.571,1.151,3.642,3.831,5.253,4.384c1.629,0.256,5.165-1.16,6.972-1.341
				c2.108-0.163,5.782-1.42,7.69-0.845c1.453,0.692,2.944,3.034,3.922,4.146c0.976,1.112,1.496,2.343,2.945,3.038
				c1.313,0.534,2.842,0.034,4.274,1.026c2.885,1.686,0.681,3.338-1.383,5.149c-1.906,1.672-3.571,4.259-5.597,5.474
				c-1.887,1.374-4.17,1.973-5.916,3.506c-5.063,4.161-9.31,7.327-15.567,9.166c-4.589,1.496-9.434,4.624-13.504,7.353
				c-5.46,3.387-15.819,13.042-22.308,6.929"/>
		</g>
		<g>
			<path fill="#FBDE7D" d="M178.398,227.611c-7.896-5.156-10.936-18.228-13.971-26.809c-1.775-4.907-3.693-9.971-5.448-15.174
				c-0.12-0.457-1.436-3.238-1.278-3.377c0.059-0.896,1.646-2.29,2.023-3.46c0.375-1.173-0.062-1.353,1.069-2.626
				c0.336-0.577,2.141-3.003,2.756-3.263l0.159-0.14c1.951,2.223,2.605,1.368,4.852,1.364c2.563-0.282,4.534,1.643,6.938,1.5
				c2.723-0.421,2.921-1.158,5.546-0.088c0.575,0.335,0.994,0.813,1.411,1.289l0,0c0.934-0.537,1.727-1.235,2.818-1.911
				c2.344-1.494,0.897,0.058,3.438,0.073c0.896,0.059,2.167-1.057,3.221-1.137c1.666-0.34,3.735,0.094,5.504,0.509
				c2.961,0.493,5.566,1.859,8.649,2.808c0.735,0.198,1.948-0.022,2.664,0.474c0.438,0.178,0.696,0.792,0.836,0.953
				c0.299,0.018,1.61,0.553,1.47,0.394c1.573,1.15,3.644,3.83,5.255,4.385c1.629,0.255,5.165-1.162,6.974-1.342
				c2.106-0.163,5.78-1.42,7.688-0.848c1.452,0.694,2.946,3.037,3.922,4.149c0.976,1.11,1.494,2.342,2.946,3.034
				c1.312,0.536,2.841,0.037,4.272,1.028c2.886,1.686,0.682,3.337-1.383,5.15c-1.905,1.672-3.569,4.257-5.598,5.473
				c-1.884,1.375-4.17,1.975-5.915,3.507c-5.062,4.162-9.31,7.328-15.568,9.166c-4.589,1.498-9.432,4.625-13.503,7.354
				c-5.46,3.388-15.819,13.042-22.307,6.932"/>
		</g>
		<g opacity="0.7">
			<path fill="#FBC27F" d="M177.313,219.009c3.971-3.484,8.597-5.578,12.967-8.287c2.659-1.773,4.843-3.129,6.914-0.449
				c0.159-0.139,0.317-0.278,0.476-0.418c1.674,1.907,1.798,4.608,3.45,6.813c0.158-0.141,0.179-0.438,0.336-0.577
				c0.695,0.793,1.711,1.309,2.884,1.685c0.175-2.684-0.107-5.246-0.528-7.969c-0.08-1.054-0.161-2.105-0.699-3.039
				c-0.658-1.39-1.313-0.536-1.354-2.184c-0.044-1.65,2.219-4.197,3.21-5.63c1.487-2.147,2.998-2.35,4.643-4.637
				c6.704,2.832-0.86,8.626-2.743,12.246c-0.533,1.312-1.541,5.289,0.069,5.842c3.08,0.949,3.451-4.715,5.019-5.812
				c1.41-0.955,1.949-0.021,3.458-0.223c1.353-0.061,2.481-1.334,3.714-1.854c1.391-0.657,2.582-0.581,3.813-1.098
				c1.37-0.359,2.344-1.494,3.692-1.557c2.724-0.42,4.535,1.644,6.777-0.605c2.224-1.952,3.173-5.033,5.396-6.984
				c1.905-1.672,1.834-5.712,3.664-3.946c0.838,0.953,0.199,0.492,0.579,1.565c-1.784,2.129-3.723,4.664-5.927,6.316
				c-3.385,2.567-7.322,5.365-13.916,10.461c-15.917,6.006-18.11,8.407-29.194,15.745c-3.538,1.798-10.065,7.214-13.768,4.279
				c-1.273-1.131-4.259-2.578-4.917-3.969c-0.76-2.146,1.276-1.72,1.413-3.807c-0.101-0.755-0.239-0.915,0.257-1.631"/>
		</g>
		<g>
			<g>
				<path fill="#FBC27F" d="M180.687,205.681c-1.273-0.113-1.35,1.994-1.069,3.076c1.567,0.217,2.381-2.127,3.08-3.197
					c-0.682-0.399-1.323,0.033-1.969,0.466"/>
			</g>
			<g>
				<path fill="#FBC27F" d="M181.119,202.549c0.141,0.542,1.151,1.878,1.699,1.248c0.496-0.484-1.383-3.107-1.669-3.697
					c-0.451,0.827-0.759,1.705-0.179,2.4"/>
			</g>
			<g>
				<path fill="#FBC27F" d="M175.057,201.1c0.383,0.788,1.312,0.948,2.146,0.91c1.814-0.027,1.482-0.962,2.622-1.879
					c-1.839-1.789-3.609,2.357-5.157,0.668"/>
			</g>
			<g>
				<path fill="#FBC27F" d="M170.012,189.169c0.095,0.197,0.044,0.345-0.058,0.638c1.45,1.489,2.604-0.409,4.019,0.246
					c-0.862-1.776-3.154-2.736-4.21-0.642"/>
			</g>
			<g>
				<path fill="#FBC27F" d="M168.348,196.211c0.895,0.985,1.644,0.123,2.585,0c0.333,0.004,1.437,0.387,1.642,0.123
					c0.274-0.467-0.692-0.916-0.959-1.12c-1.133-0.62-4.156-0.323-3.472,1.263"/>
			</g>
			<g>
				<path fill="#FBC27F" d="M195.749,189.111c0.628,0.781,2.597,1.578,2.383-0.069c-0.279-1.781-2.405-0.837-2.558,0.571"/>
			</g>
			<g>
				<path fill="#FBC27F" d="M199.058,184.759c-0.251,1.372,1.365,0.922,1.966,1.132c0.702,0.243,2.379,2.848,2.606,0.905
					c0.15-1.407-3.975-4.076-4.401-2.202"/>
			</g>
			<g>
				<path fill="#FBC27F" d="M204.292,200.728c-0.21,0.603-1.291,1.125-1.299,1.796c-0.08,0.871,1.023,1.253,1.599,0.892l0.553-1.268
					c0.04-0.435,0.711-0.427-0.155-0.841c-0.503-0.174-1.243,0.017-1.418,0.519"/>
			</g>
			<g>
				<path fill="#FBC27F" d="M200.894,209.207c0.725,1.15,1.993,1.704,1.747-0.18c-0.06-0.469-0.449-1.615-1.085-1.724
					c-1.104-0.048-0.827,1.734-0.735,2.44"/>
			</g>
			<g>
				<path fill="#FBC27F" d="M184.242,192.146c0.843,1.113,2.181,1.99,4.026,1.399C187.186,191.938,185.722,191.428,184.242,192.146"
					/>
			</g>
			<g>
				<path fill="#FBC27F" d="M177.285,189.728c0.985-0.478,1.72-0.223,2.102-1.321c-2.069-1.13-2.818-0.16-2.596,1.559"/>
			</g>
			<g>
				<path fill="#FBC27F" d="M173.67,184.778c1.576,1.37,3.295,1.146,4.536-0.065c-1.32-2.101-3.166-1.511-3.931,0.687"/>
			</g>
			<g>
				<path fill="#FBC27F" d="M179.399,177.742c-0.876,1.337-0.893,2.563-0.176,4.043c1.847-0.589,2.483-2.419,0.541-3.916
					c-0.747,0.971-0.874,1.337-0.891,2.563"/>
			</g>
			<g>
				<path fill="#FBC27F" d="M214.134,193.507c0.731,0.253,1.958,0.27,2.691,0.522c0.651-3.055-2.406-3.708-4.506-2.385
					c0.111,0.859,0.843,1.114,1.574,1.368"/>
			</g>
		</g>
		<g>
			<g>
				<g>
					<path fill="#FBE99F" d="M160.313,181.215c2.299-5.239,11.433-1.815,15.822-1.218c5.642,0.768,10.2-3.295,15.791-0.028
						c2.496,1.459,4.32,2.06,7.166,1.052c6.097-2.158,6.553,4.862,11.326,5.75c2.422,0.45,4.187-2.049,6.236-1.814
						c1.232,0.141,2.578,0.208,3.808-0.006c3.885-0.675,3.832,0.106,6.423,2.181c1.354,1.084,3.545,0.926,5.059,2.162
						c1.951,1.591,2.149,3.393,3.213,5.45c0.879,1.702,4.185-0.011,5.213-0.596c1.539-0.877-2.178-0.39-2.807-0.031
						c3.593-2.047-3.53-7.249-5.344-7.772c-2.191-0.633-2.93-2.23-4.729-3.141c-1.135-0.574-3.266,0.01-4.352,0.162
						c-2.936,0.41-6.297-0.549-9.042,0.99c-1.751,0.982-1.646,0.504-3.41-1.101c-1.47-1.337-3.515-3.92-5.609-4.184
						c-1.376-0.173-2.678-0.204-4.034,0.194c-3.436,1.008-5.24-0.528-8.274-1.894c-1.705-0.768-3.646-0.596-5.435-0.383
						c-4.038,0.48-6.879,1.897-11.225,1.166c-6.26-1.055-16.107-3.83-19.43,3.74C156.455,182.405,159.914,182.124,160.313,181.215
						L160.313,181.215z"/>
				</g>
			</g>
			<g>
				<g>
					<path fill="#FBE99F" d="M177.188,217.251c4.928-1.936,9.565-4.44,14.294-6.804c3.436-1.718,3.932-2.327,5.699,1.412
						c0.901,1.905,1.811,3.698,2.983,5.452c0.595,0.888,2.663,0.244,3.205-0.379c-0.036-0.026-0.072-0.053-0.109-0.079
						c2.328-1.068,0.209-2.477-1.504-1.69c-0.589,0.27-0.954,0.546-1.381,1.036c1.068-0.126,2.137-0.253,3.205-0.379
						c-2.132-3.188-3.313-10.18-8.317-9.264c-2.928,0.536-5.789,2.442-8.408,3.778c-3.674,1.874-7.329,3.717-11.171,5.227
						C173.291,216.5,175.46,217.93,177.188,217.251L177.188,217.251z"/>
				</g>
			</g>
			<g>
				<g>
					<path fill="#FBE99F" d="M210.098,214.69c-0.815-1.571-1.679-3.083-2.819-4.45c-2.348-2.813,1.533-4.021,3.479-5.177
						c2.618-1.554,2.769-3.497,1.561-6.098c-1.121-2.415-0.449-3.192,2.308-4.106c1.154-0.382,2.439-0.936,3.35-1.763
						c0.908-0.824,1.446-1.654,2.078-2.724c1.2-2.033,3.535-3.033,5.252-4.54c0.843-0.741-2.668-0.375-3.355,0.229
						c-1.151,1.011-2.66,1.657-3.748,2.728c-1.71,1.681-2.449,4.198-4.878,5.138c-2.083,0.807-5.492,1.424-5.644,4.189
						c-0.06,1.08,1.547,3.089,1.876,4.22c0.577,1.984-3.94,3.801-5.242,4.711c-3.937,2.752,0.589,5.738,2.092,8.631
						C206.907,216.645,210.433,215.335,210.098,214.69L210.098,214.69z"/>
				</g>
			</g>
			<g>
				<g>
					<path fill="#FBE99F" d="M218.726,204.3c1.229-1.655,3.358-2.567,4.335-4.42c1.17-2.219,1.402-4.692,3.121-6.622
						c0.875-0.981-2.729-0.561-3.373,0.162c-1.539,1.727-2.057,3.708-2.833,5.833c-0.855,2.342-3.202,3.294-4.623,5.209
						C214.531,205.568,218.15,205.075,218.726,204.3L218.726,204.3z"/>
				</g>
			</g>
			<g>
				<g>
					<path fill="#FBE99F" d="M169.769,207.502c3.094-0.554,7.472-2.919,8.925-5.806c0.132-0.263,0.04-0.961,0.027-1.213
						c-0.092-1.741,0.186-3.316,0.564-4.998c0.737-3.269-0.584-6.735-0.202-10.119c0.154-1.369-3.55-0.65-3.68,0.506
						c-0.478,4.23,0.599,8.148-0.28,12.336c-0.284,1.352,0.05,2.652-0.11,3.994c-0.089,0.744-3.994,3.285-4.699,3.411
						C168.633,205.914,167.212,207.96,169.769,207.502L169.769,207.502z"/>
				</g>
			</g>
			<g>
				<g>
					<path fill="#FBE99F" d="M185.278,209.714c0.804-2.613,0.844-5.084,3.143-6.956c0.685-0.557,1.907-1.227,2.113-2.206
						c0.404-1.927-0.035-3.768-0.381-5.687c-0.707-3.925,1.617-5.85,2.68-9.211c0.356-1.128-3.316-0.614-3.676,0.522
						c-0.745,2.358-2.354,3.865-2.892,6.295c-0.445,2.012,0.416,4.534,0.718,6.521c0.387,2.547-1.973,3.604-3.366,5.134
						c-1.42,1.558-1.428,4.203-2.015,6.109C181.253,211.375,184.928,210.853,185.278,209.714L185.278,209.714z"/>
				</g>
			</g>
		</g>
	</g>
	<g>
		<g>
			<path fill="#FBC27F" d="M212.326,234.188c7.499-1.666,4.998-15.832,9.165-21.664c3.332-6.666,6.666-4.999,14.163-7.499
				c5.834-2.5,10.834-4.166,12.498-10c14.998,4.168,16.664-12.497,26.662-16.663c14.164-4.999,17.498,9.999,17.498,19.998
				c-0.834,19.996-9.166,43.326-16.664,61.654c-10.832-6.662-64.988-1.664-64.988-14.164"/>
		</g>
		<g>
			<path fill="#FBE99F" d="M207.528,233.389c7.501-1.668,5.001-15.831,9.167-21.664c3.333-6.666,6.664-5,14.163-7.499
				c5.832-2.5,10.832-4.166,12.498-9.998c14.998,4.165,16.666-12.498,26.662-16.665c14.166-4.999,17.496,9.999,17.496,19.998
				c-0.832,19.996-9.164,43.325-16.664,61.655c-10.828-6.664-64.988-1.666-64.988-14.164"/>
		</g>
		<g opacity="0.7">
			<g>
				<g>
					<path fill="#F8F8F8" d="M226.881,253.189c0.551-6.239-1.587-11.9-3.342-17.795c-0.844,0.553-1.688,1.104-2.532,1.657
						c11.819,0.193,23.772,3.519,34.351-3.397c9.441-6.174,15.35-18.329,28.141-17.433c1.563,0.11,3.876-2.152,1.373-2.327
						c-9.962-0.698-17.016,4.729-23.803,11.349c-4.272,4.168-8.467,8.282-14.354,9.978c-7.587,2.185-16.583-0.369-24.335-0.496
						c-0.744-0.013-2.887,0.469-2.532,1.657c1.688,5.675,3.854,11.171,3.322,17.197C223.022,255.254,226.757,254.6,226.881,253.189
						L226.881,253.189z"/>
				</g>
			</g>
			<g>
				<g>
					<path fill="#F8F8F8" d="M282.555,180.97c-3.533-6.268-8.834-7.255-14.238-2.518c-5.349,4.689-8.551,17.007-17.19,15.506
						c-0.781-0.136-2.959,0.098-2.959,1.298c0,1.666,0,3.332,0,4.999c0.985-0.433,1.974-0.865,2.959-1.298
						c-2.536-0.455-5.625,0.354-7.987-0.695c-1.013-0.45-2.58-0.146-3.188,0.854c-1.775,2.93-2.369,5.545-1.773,8.938
						c0.256,1.457,3.961,0.542,3.691-0.989c-0.54-3.075-0.046-5.078,1.559-7.726c-1.063,0.285-2.125,0.569-3.188,0.854
						c3.013,1.337,5.474,0.397,8.681,0.972c0.781,0.14,2.959-0.101,2.959-1.298c0-1.666,0-3.332,0-4.999
						c-0.985,0.433-1.973,0.865-2.959,1.298c6.549,1.138,10.688-1.38,14.313-6.397c2.246-3.109,4.283-6.353,6.836-9.231
						c1-1.129,2.587-2.926,4.246-2.944c2.238-0.024,3.933,3.303,4.83,4.897C279.829,183.703,283.4,182.473,282.555,180.97
						L282.555,180.97z"/>
				</g>
			</g>
			<g>
				<g>
					<path fill="#F8F8F8" d="M244.854,211.165c-0.258,2.664-1.201,7.018-3.258,8.917c-2.679,2.476-6.144,4.147-9.137,6.225
						c-1.704,1.184-6.398,2-7.466,3.787c-1.188,1.989-1.068,4.09-3.231,5.45c-4.945,3.113-18.959,4.039-17.746,12.504
						c0.148,1.039,3.863,0.213,3.691-0.989c-1.249-8.719,15.609-6.839,19.025-12.875c1.672-2.957,1.64-3.979,5.102-5.388
						c3.111-1.267,5.773-3.617,8.602-5.404c5.057-3.198,7.491-6.621,8.088-12.77C248.648,209.345,244.958,210.095,244.854,211.165
						L244.854,211.165z"/>
				</g>
			</g>
			<g>
				<g>
					<path fill="#F8F8F8" d="M211.202,231.328c4.173-1.479,6.135-4.255,8.275-7.97c3.171-5.501,9.748-4.187,13.759-8.583
						c1.576-1.726-1.965-2.334-3.092-1.101c-2.838,3.11-8.061,2.508-11.292,5.398c-3.238,2.896-3.919,8.146-8.332,9.71
						C208.328,229.561,208.956,232.125,211.202,231.328L211.202,231.328z"/>
				</g>
			</g>
			<g>
				<g>
					<path fill="#F8F8F8" d="M216.045,214.009c2.154-5.475,7.522-6.27,12.656-7.269c3.589-0.698,6.221-2.274,9.146-4.417
						c2.021-1.48-1.113-2.073-2.315-1.192c-1.323,0.969-4.14,1.239-5.023,2.863c-0.679,1.246-6.307,1.592-7.826,1.99
						c-4.753,1.243-8.512,3.818-10.337,8.458C211.842,215.722,215.546,215.276,216.045,214.009L216.045,214.009z"/>
				</g>
			</g>
		</g>
		<g>
			<g>
				<path fill="#FBC27F" d="M247.881,219.5c-0.311-1.241-2.324-0.62-3.255,0c0.31,1.55,2.791,1.55,4.028,1.859
					c0.158-0.775-0.463-1.24-1.084-1.704"/>
			</g>
			<g>
				<path fill="#FBC27F" d="M250.982,218.88c-0.465,0.309-1.396,1.705-0.621,2.015c0.621,0.311,2.48-2.326,2.947-2.791
					c-0.932-0.155-1.861-0.155-2.326,0.62"/>
			</g>
			<g>
				<path fill="#FBC27F" d="M250.361,212.678c-0.619,0.621-0.465,1.551-0.153,2.326c0.619,1.705,1.394,1.085,2.635,1.86
					c1.087-2.325-3.409-2.635-2.323-4.651"/>
			</g>
			<g>
				<path fill="#FBC27F" d="M259.975,203.997c-0.154,0.155-0.31,0.155-0.619,0.155c-0.931,1.86,1.24,2.325,1.086,3.876
					c1.394-1.397,1.55-3.876-0.775-4.187"/>
			</g>
			<g>
				<path fill="#FBC27F" d="M251.602,194.384c-1.55-1.085-1.394,3.1-0.773,3.876c0.773,1.396,1.086,0.93,2.636,0.775
					c0.931,0,1.861,0.776,1.861-0.62c0-1.24-0.931-1.396-1.706-1.705c-1.24-0.464-1.24-0.31-2.018-1.24
					c-0.463-0.465,0.313-0.93-0.617-1.085"/>
			</g>
			<g>
				<path fill="#FBC27F" d="M226.796,221.671c-0.155,1.239,0.312,2.635,1.705,2.945c1.552-2.171-1.394-4.031-2.17-2.636"/>
			</g>
			<g>
				<path fill="#FBC27F" d="M216.874,227.252c0.155,0.932,0.931,1.551,1.86,2.016c2.015-2.635-2.945-2.791-1.55-1.084"/>
			</g>
			<g>
				<path fill="#FBC27F" d="M245.247,231.128c-0.933-0.466-4.808,0.31-4.343,1.706c0.466,1.705,4.807-0.467,4.031-1.861
					c-0.156,0-0.311,0-0.465,0.155"/>
			</g>
			<g>
				<path fill="#FBC27F" d="M252.777,204.737c-0.637,1.167,0.424,1.592,0.85,2.44c0.105,0.319,0.105,1.485,0.424,1.592
					c0.53,0.105,0.637-0.955,0.742-1.273c0.213-1.273-1.061-4.032-2.334-2.865"/>
			</g>
			<g>
				<path fill="#FBC27F" d="M268.479,228.288c-0.53,0.849-0.638,2.97,0.85,2.228c1.591-0.848,0-2.545-1.38-2.228"/>
			</g>
			<g>
				<path fill="#FBC27F" d="M273.676,229.986c-1.379,0.212-0.424,1.59-0.424,2.228c0,0.741-1.909,3.183,0,2.759
					c1.379-0.32,2.545-5.094,0.637-4.88"/>
			</g>
			<g>
				<path fill="#FBC27F" d="M260.311,240.17c-0.637,0-1.486-0.85-2.123-0.635c-0.849,0.211-0.849,1.377-0.318,1.803l1.38,0.105
					c0.426-0.105,0.636,0.529,0.742-0.424c0-0.53-0.423-1.168-0.953-1.168"/>
			</g>
			<g>
				<path fill="#FBC27F" d="M251.188,239.746c-0.851,1.061-0.955,2.441,0.74,1.592c0.426-0.213,1.381-0.954,1.273-1.592
					c-0.317-1.061-1.909-0.211-2.547,0.105"/>
			</g>
			<g>
				<path fill="#FBC27F" d="M247.152,243.671c-0.316,0-0.848-0.212-1.164-0.212c-0.744,0.212-0.852,0.85,0.104,1.166
					c1.698,0.425,2.864-1.908,0-1.271"/>
			</g>
			<g>
				<path fill="#FBC27F" d="M241.852,245.793c0.316,0.954,2.228,1.486,2.332,0.105c0.107-1.062-1.379-1.062-2.121-0.638"/>
			</g>
			<g>
				<path fill="#FBC27F" d="M211.446,234.307c0,0.775,0,1.938,0,2.713c0.389,0,0.776,0,1.164,0c0.774-1.162,0.387-1.549,0.387-2.713
					c-0.774,0-1.162,0.387-1.551,0.387"/>
			</g>
			<g>
				<path fill="#FBC27F" d="M219.588,234.307c-0.775,0.775-1.552,1.551-1.552,2.713c1.552,0.388,2.326,0,3.489-1.549
					c-0.776-0.777-1.551-0.777-2.713-0.777"/>
			</g>
			<g>
				<path fill="#FBC27F" d="M261.834,218.414c-0.773,1.164-1.162,2.713,0,4.264C262.999,221.127,262.999,219.578,261.834,218.414"/>
			</g>
			<g>
				<path fill="#FBC27F" d="M264.161,196.709c0.387,6.201,5.039-3.102,0.387,0.388"/>
			</g>
			<g>
				<path fill="#FBC27F" d="M261.448,192.833c-0.388,1.55,0,2.712,1.163,3.487c1.162-1.937,0.388-1.937-1.163-2.713"/>
			</g>
			<g>
				<path fill="#FBC27F" d="M256.796,195.546c-0.388,1.551,0,3.101,1.938,1.551c-0.774-0.776-1.164-0.776-2.326-0.776"/>
			</g>
			<g>
				<path fill="#FBC27F" d="M261.834,211.05c0.777,0.776,0.777,1.551,1.939,1.551c0.388-2.326-0.774-2.713-2.325-1.938"/>
			</g>
			<g>
				<path fill="#FBC27F" d="M265.324,206.012c-0.776,1.938,0,3.488,1.55,4.263c1.55-1.938,0.388-3.489-1.938-3.489"/>
			</g>
			<g>
				<path fill="#FBC27F" d="M273.852,209.112c-1.552-0.388-2.713,0-3.877,1.163c1.164,1.551,3.103,1.551,3.877-0.775
					c-1.162-0.388-1.552-0.388-2.713,0"/>
			</g>
			<g>
				<path fill="#FBC27F" d="M270.363,247.098c0,0.774,0.387,1.938,0.387,2.713c3.102-0.389,2.713-3.49,0.775-5.039
					c-0.775,0.388-0.775,1.162-0.775,1.938"/>
			</g>
		</g>
		<g>
			<g>
				<path fill="#F8F8F8" d="M259.877,223.896c1.042,0.743,2.17-1.039,2.475-2.116c-1.242-0.976-3.127,0.636-4.271,1.206
					c0.386,0.689,1.159,0.641,1.934,0.592"/>
			</g>
			<g>
				<path fill="#F8F8F8" d="M257.922,226.381c0.152-0.537-0.047-2.202-0.838-1.935c-0.672,0.168-0.375,3.38-0.426,4.037
					c0.808-0.486,1.516-1.092,1.365-1.982"/>
			</g>
			<g>
				<path fill="#F8F8F8" d="M262.424,230.693c0.068-0.875-0.654-1.48-1.393-1.869c-1.58-0.893-1.768,0.082-3.215,0.299
					c0.687,2.473,4.307-0.213,4.791,2.023"/>
			</g>
			<g>
				<path fill="#F8F8F8" d="M260.757,243.539c0.019-0.221,0.136-0.318,0.371-0.521c-0.503-2.019-2.454-0.961-3.343-2.24
					c-0.154,1.968,1.339,3.953,3.308,2.678"/>
			</g>
			<g>
				<path fill="#F8F8F8" d="M273.366,245.406c1.884-0.184-0.954-3.266-1.931-3.451c-1.494-0.557-1.428,0-2.506,1.125
					c-0.707,0.604-1.918,0.619-1.012,1.678c0.807,0.945,1.614,0.458,2.404,0.189c1.244-0.453,1.145-0.57,2.34-0.366
					c0.654,0.052,0.367,0.909,1.176,0.421"/>
			</g>
			<g>
				<path fill="#F8F8F8" d="M274.493,208.545c-0.688-1.042-1.948-1.802-3.209-1.13c0.229,2.657,3.68,2.158,3.362,0.593"/>
			</g>
			<g>
				<path fill="#F8F8F8" d="M278.41,197.855c-0.721-0.606-1.715-0.573-2.725-0.322c0.182,3.313,4.053,0.207,1.885-0.183"/>
			</g>
			<g>
				<path fill="#F8F8F8" d="M254.325,213.344c1.008-0.251,3.45-3.359,2.19-4.117c-1.459-0.994-3.351,3.476-1.854,4.034
					c0.116-0.103,0.235-0.202,0.253-0.421"/>
			</g>
			<g>
				<path fill="#F8F8F8" d="M265.747,238.298c-0.274-1.3-1.354-0.933-2.229-1.302c-0.289-0.174-1.045-1.061-1.357-0.936
					c-0.473,0.266,0.137,1.139,0.265,1.45c0.665,1.105,3.425,2.375,3.636,0.66"/>
			</g>
			<g>
				<path fill="#F8F8F8" d="M238.51,230.598c-0.146-0.99-1.445-2.672-2.094-1.143c-0.657,1.678,1.654,1.936,2.497,0.798"/>
			</g>
			<g>
				<path fill="#F8F8F8" d="M233.455,232.686c0.912-1.059-0.711-1.485-1.124-1.97c-0.481-0.565-0.616-3.659-1.793-2.097
					c-0.841,1.137,1.375,5.525,2.688,4.121"/>
			</g>
			<g>
				<path fill="#F8F8F8" d="M237,216.257c0.482-0.413,1.68-0.32,2.025-0.895c0.508-0.712-0.25-1.6-0.93-1.577l-1.119,0.814
					c-0.252,0.357-0.826,0.011-0.287,0.806c0.346,0.402,1.08,0.613,1.483,0.267"/>
			</g>
			<g>
				<path fill="#F8F8F8" d="M244.21,210.653c-0.044-1.357-0.858-2.475-1.599-0.728c-0.186,0.438-0.43,1.622,0.065,2.037
					c0.933,0.6,1.589-1.079,1.866-1.734"/>
			</g>
			<g>
				<path fill="#F8F8F8" d="M244.725,205.049c0.242-0.207,0.782-0.39,1.025-0.597c0.425-0.644,0.093-1.197-0.84-0.818
					c-1.566,0.78-0.938,3.313,0.826,0.967"/>
			</g>
			<g>
				<path fill="#F8F8F8" d="M247.378,199.99c-0.862-0.519-2.659,0.319-1.843,1.436c0.607,0.875,1.736-0.089,2.025-0.894"/>
			</g>
			<g>
				<path fill="#F8F8F8" d="M277.952,188.967c-0.503-0.589-1.261-1.472-1.763-2.062c-0.295,0.252-0.59,0.503-0.885,0.756
					c0.166,1.387,0.713,1.43,1.469,2.314c0.59-0.504,0.631-1.05,0.927-1.303"/>
			</g>
			<g>
				<path fill="#F8F8F8" d="M271.766,194.256c0.086-1.092,0.172-2.185-0.586-3.069c-1.429,0.713-1.767,1.511-1.643,3.445
					c1.093,0.085,1.682-0.417,2.564-1.174"/>
			</g>
			<g>
				<path fill="#F8F8F8" d="M249.975,233.787c-0.166-1.389-0.879-2.818-2.771-3.241C247.327,232.48,248.336,233.658,249.975,233.787
					"/>
			</g>
			<g>
				<path fill="#F8F8F8" d="M262.311,251.798c-4.324-4.462-1.813,5.632-0.547-0.043"/>
			</g>
			<g>
				<path fill="#F8F8F8" d="M266.893,252.98c-0.716-1.431-1.765-2.063-3.151-1.896c0.375,2.229,0.965,1.727,2.646,1.309"/>
			</g>
			<g>
				<path fill="#F8F8F8" d="M268.663,247.896c-0.712-1.432-2.015-2.357-2.479,0.08c1.092,0.086,1.387-0.166,2.271-0.92"/>
			</g>
			<g>
				<path fill="#F8F8F8" d="M254.76,239.386c-1.093-0.087-1.597-0.675-2.48,0.081c1.217,2.018,2.354,1.557,3.027-0.037"/>
			</g>
			<g>
				<path fill="#F8F8F8" d="M255.382,245.482c-0.67-1.979-2.266-2.652-3.948-2.234c0.08,2.479,1.973,2.904,3.74,1.395"/>
			</g>
			<g>
				<path fill="#F8F8F8" d="M246.886,248.666c1.429-0.715,2.063-1.764,2.19-3.404c-1.891-0.422-3.365,0.838-2.442,3.109
					c1.136-0.461,1.431-0.714,2.063-1.764"/>
			</g>
			<g>
				<path fill="#F8F8F8" d="M224.857,217.525c-0.506-0.589-1.555-1.221-2.058-1.812c-2.106,2.311,0.203,4.416,2.683,4.335
					c0.338-0.799-0.165-1.388-0.668-1.977"/>
			</g>
		</g>
	</g>
	<g>
		<g>
			<path fill="#FBC27F" d="M164.142,241.191c-2.327,6.589,1.162,20.931,6.976,24.42c3.101,1.938,9.303,3.875,12.792,5.037
				c2.326,0.389,4.65,0,6.976,0.774c2.714,1.164,3.489,3.877,5.428,5.813c0-10.854,12.016-16.279,3.875-26.355
				c-2.714-3.102-8.141-10.466-12.016-11.628c-3.102-1.162-3.102,0.774-5.427,0.388c-2.325-0.388-4.263-2.713-6.976-3.101
				c0.774,0.774,0.387,2.323,1.163,3.101c-4.265,0.774-9.304-2.713-12.405,2.326"/>
		</g>
		<g>
			<path fill="#FBE99F" d="M164.787,239.254c-2.326,6.59,1.163,20.93,6.977,24.418c3.101,1.939,9.302,3.877,12.792,5.039
				c2.324,0.389,4.649,0,6.977,0.775c2.712,1.162,3.487,3.875,5.426,5.813c0-10.853,12.016-16.278,3.876-26.356
				c-2.713-3.101-8.141-10.467-12.016-11.629c-3.102-1.162-3.102,0.776-5.427,0.389c-2.326-0.389-4.265-2.714-6.977-3.102
				c0.775,0.776,0.389,2.326,1.163,3.102c-4.265,0.773-9.304-2.714-12.403,2.324"/>
		</g>
		<g opacity="0.7">
			<path fill="none" stroke="#F8F8F8" stroke-width="1.911" stroke-miterlimit="10" d="M165.309,246.76
				c0.914-3.506-1.067-7.775,4.573-7.623c3.201,0.153,7.165,3.355,9.146,5.945c-0.608,0.915-0.914,1.831-1.677,2.744
				c-0.608,0.764-1.677,1.068-1.677,2.287c0,2.896,3.354,0.763,5.183,1.373c1.067,0.457,2.44,2.744,3.355,3.811
				c1.371,1.83,2.286,3.508,2.744,5.641c3.658-0.762,4.877,3.203,5.945,5.947c1.068,2.742,3.201,5.029,3.811,7.926"/>
			<path fill="none" stroke="#F8F8F8" stroke-width="1.911" stroke-miterlimit="10" d="M176.437,235.326
				c1.524,0.609,3.201,0.914,4.727,1.371l0,0c0,1.677-0.762,2.593-1.371,3.964c3.353,0.916,0.456,2.287,0.456,4.116
				c0,2.438,1.22,3.203,3.201,3.965c2.439,0.762,2.592,2.439,2.439,4.878c-0.152,1.981,0.152,3.507,0.306,5.185"/>
			<path fill="none" stroke="#F8F8F8" stroke-width="1.911" stroke-miterlimit="10" d="M184.67,237.613
				c1.371,0.761,2.744-0.459,4.116-0.152c1.524,0.305,1.981,1.676,2.896,2.896c1.829,2.287,5.488,3.812,6.1,6.707"/>
		</g>
		<g opacity="0.7">
			<path fill="#FBC27F" d="M169.881,257.253c-0.722,0-1.683-0.961-2.283-1.442c0.479-1.801,0.119-3.725,0.119-5.646
				c0.36,0,2.284,0.239,2.524-0.121c0.6-0.721-0.722-1.683-1.202-2.042c-1.322-0.961-3.724-2.163-2.402-4.326
				c1.201,0.602,2.763,0,4.204,0.48c1.322,0.479,2.163,2.285,3.725,1.562c0.241,1.804-0.72,3.125,0,5.048
				c0.842,2.041,2.644,3.123,4.687,2.283c0,2.043,2.282,2.521,3.003,4.324c0.603,1.322,1.563,2.884,2.042,4.324
				c-1.2,0.479-7.809-2.281-5.406,1.201c-0.36,0.24-5.646-0.722-6.247-1.201c-0.72-0.719-0.48-2.281-0.962-3.002
				c-0.48-0.723-1.681-0.963-1.801-1.563"/>
		</g>
		<g opacity="0.7">
			<path fill="#FBC27F" d="M201.781,259.723c-1.321,0.961-3.003,2.162-4.805,1.32c-1.683-0.842-1.322-4.445-2.043-6.127
				c-1.921-4.564-8.049-7.932-7.688-13.217c0.84,0.48,2.042,0.361,3.004,0.602c1.682,0.359,2.883,1.08,3.964,2.281
				c0.721,0.842,1.441,1.803,2.403,2.402c1.441,0.842,2.764,0.723,3.844,2.285c0.722,0.84,0.962,1.922,1.442,2.883
				c0.36,0.842,1.202,1.683,1.321,2.522c0.36,1.082-0.24,5.287-1.442,5.406"/>
		</g>
		<g>
			<g>
				<path fill="#FBC27F" d="M188.431,256.825c-0.13,0.388-0.13,0.903-0.13,1.42c1.293,0,0.774-1.032,0-1.29"/>
			</g>
			<g>
				<path fill="#FBC27F" d="M189.205,251.916c0,0.646,0.389,1.162,0.905,1.291l0.129-0.387c-0.517-0.26-0.646-0.519-0.775-0.646"/>
			</g>
			<g>
				<path fill="#FBC27F" d="M192.048,257.471c0.259,0.26,0.388,0.519,0.776,0.646c0.129-0.389,0.129-0.518-0.131-1.033
					c-0.129,0.129-0.258,0.258-0.387,0.387"/>
			</g>
			<g>
				<path fill="#FBC27F" d="M186.751,248.168c-0.258-0.128-0.646-0.258-0.904-0.388c0.13-0.646,0.389-1.163,1.034-1.291
					c-0.13,0.258-0.259,0.646-0.388,0.903"/>
			</g>
			<g>
				<path fill="#FBC27F" d="M185.459,265.223c-0.646,1.551,1.68,1.293,0.646,0.129c0.13-0.129,0.13-0.258,0-0.645
					c-0.259,0.129-0.775,0.129-1.033,0.387"/>
			</g>
			<g>
				<path fill="#FBC27F" d="M181.454,263.156c-0.518,1.033,0.904,1.421,0.904,0.258c-0.388,0-1.035-0.258-1.163-0.389"/>
			</g>
			<g>
				<path fill="#FBC27F" d="M170.859,242.482c-0.517-0.258-0.517-0.904,0-1.291c0.775,0.775,0,1.551-0.389,1.291"/>
			</g>
		</g>
	</g>
</g>
</svg>
