<?xml version="1.0" encoding="utf-8"?>
<!-- Generator: Adobe Illustrator 16.0.0, SVG Export Plug-In . SVG Version: 6.00 Build 0)  -->
<!DOCTYPE svg PUBLIC "-//W3C//DTD SVG 1.1//EN" "http://www.w3.org/Graphics/SVG/1.1/DTD/svg11.dtd">
<svg version="1.1" id="Ebene_1" xmlns="http://www.w3.org/2000/svg" xmlns:xlink="http://www.w3.org/1999/xlink" x="0px" y="0px"
	 width="450px" height="450px" viewBox="0 0 450 450" enable-background="new 0 0 450 450" xml:space="preserve">
<g>
	<g opacity="0.3">
		<path d="M194.969,273.305c0,0,8.168,10.206,17.205,13.705c17.377,6.728,66.484-6.707,72.605-17.495
			c5.918-10.426,6.414-18.518,6.414-18.518L194.969,273.305z"/>
		<path d="M236.082,219.944l-72.605,18.37c0,0,4.518,28.72,23.182,38.054c10.303,5.149,45.465,5.787,73.086-2.598l24.209-74.45
			C265.793,204.17,236.082,219.944,236.082,219.944z"/>
		<path d="M297.319,199.825c-1.426-2.612-6.6-2.312-13.365-0.505l-24.209,74.45c9.91-3.009,18.857-7.168,25.326-12.712
			C309.565,240.062,302.565,209.447,297.319,199.825z"/>
		<path d="M166.391,246.479c8.547,19.942,79.316,26.826,114.307-1.167s20.994-72.314-26.828-71.148
			C206.049,175.33,145.397,197.491,166.391,246.479z"/>
		<path d="M291.194,212.946c-0.873-8.748-2.625-20.121-21.869-27.118c-19.244-6.998-69.107,4.375-80.48,13.121
			c-11.371,8.748-21.867,25.368-19.244,34.99c2.625,9.625,10.936,17.496,10.936,17.496L291.194,212.946z"/>
		<path d="M183.596,213.82c-18.369,11.373-11.729,27.969-3.936,37.178c1.732,2.045,6.809,3.352,13.281,4.109l33.449-52.701
			C214.133,204.576,198.871,204.364,183.596,213.82z"/>
		<path d="M229.959,254.935c14.871-1.749,34.115-6.561,45.928-15.309c14.551-10.779,15.307-26.681,15.307-26.681
			c0-22.743-27.992-35.866-35.867-30.618c-7.871,5.25-8.746,13.998-21.867,18.371c-2.211,0.737-4.582,1.267-7.068,1.707
			l-33.449,52.701C204.467,256.455,220.44,256.056,229.959,254.935z"/>
		<path d="M228.649,195.013c5.664,3.967,16.182-8.313,17.494-13.997c1.313-5.687-0.875-8.311-6.559-10.06
			c-5.688-1.75-7.875,8.747-10.936,13.996C225.586,190.203,224.274,191.951,228.649,195.013z"/>
		<path d="M249.641,178.391c1.313,3.063,4.813,2.187,5.686-2.187C256.203,171.832,248.33,175.33,249.641,178.391z"/>
		<path d="M259.385,181.199c2.879,0.068,5.611,0.887,8.035,3.561c2.127,2.344,4.172,5.4,5.48,8.272
			c0.846,1.859,1.146,3.767,1.104,5.803c-0.002,0.551-0.043,1.099-0.105,1.643c6.033,3.363,8.381,8.785,7.006,15.965
			c-1.121,5.85-3.875,10.667-9.092,13.824c-0.635,0.384-1.275,0.756-1.922,1.121c-1.844,2.633-3.584,5.403-6.186,7.419
			c-5.004,3.878-11.473,5.552-17.547,6.934c-4.975,3.501-10.311,6.388-16.381,7.813c-2.779,0.652-5.547,1.36-8.311,2.087
			c3.135-0.175,6.031-0.414,8.492-0.704c14.871-1.749,34.115-6.561,45.928-15.309c14.551-10.779,15.307-26.681,15.307-26.681
			C291.194,193.2,270.1,180.715,259.385,181.199z"/>
		<path d="M259.385,181.199c1.945,0.046,3.818,0.451,5.58,1.522c10.721,3.872,23.518,14.845,23.518,30.225
			c0,0-0.756,15.901-15.309,26.681c-11.811,8.748-31.057,13.56-45.928,15.309c-1.463,0.173-3.096,0.324-4.828,0.458
			c-0.316,0.083-0.635,0.163-0.951,0.246c3.135-0.175,6.031-0.414,8.492-0.704c14.871-1.749,34.115-6.561,45.928-15.309
			c14.551-10.779,15.307-26.681,15.307-26.681C291.194,193.2,270.1,180.715,259.385,181.199z"/>
	</g>
	<path fill="#ACAAA2" d="M183.63,264.802c0,0,8.168,10.206,17.205,13.705c17.378,6.728,66.483-6.707,72.606-17.495
		c5.918-10.426,6.414-18.518,6.414-18.518L183.63,264.802z"/>
	<g>
		<path fill="#D9D8D4" d="M224.743,211.44l-72.606,18.37c0,0,4.52,28.72,23.182,38.054c10.305,5.149,45.465,5.787,73.086-2.598
			l24.21-74.45C254.454,195.666,224.743,211.44,224.743,211.44z"/>
		<path fill="#CFCDC4" d="M285.98,191.321c-1.425-2.612-6.6-2.312-13.365-0.505l-24.21,74.45
			c9.912-3.009,18.859-7.168,25.327-12.712C298.225,231.558,291.225,200.943,285.98,191.321z"/>
	</g>
	<path fill="#ECEAEB" d="M155.053,237.975c8.547,19.942,79.314,26.826,114.307-1.167c34.99-27.993,20.993-72.314-26.829-71.148
		C194.71,166.826,134.059,188.987,155.053,237.975z"/>
	<path fill="#D9D8D4" d="M279.856,204.442c-0.874-8.748-2.625-20.121-21.87-27.118c-19.245-6.998-69.106,4.375-80.479,13.121
		c-11.371,8.748-21.867,25.368-19.245,34.99c2.624,9.625,10.936,17.496,10.936,17.496L279.856,204.442z"/>
	<path fill="#CFCDC4" d="M169.197,243.062l1.523-0.53c2.458-5.576,4.944-11.14,7.444-16.698
		c5.232-13.011,10.377-26.059,15.957-38.914c0.469-1.38,0.945-2.757,1.424-4.134c-8.137,2.474-14.727,5.242-18.039,7.79
		c-11.371,8.748-21.867,25.368-19.245,34.99C160.885,235.191,169.197,243.062,169.197,243.062z"/>
	<path fill="#FFE9B3" d="M173.231,222.982c-6.893,2.729-12.702,10.303-4.909,19.512c1.731,2.045,6.809,3.352,13.28,4.109
		l18.874-31.404C188.217,217.369,179.979,220.31,173.231,222.982z"/>
	<path fill="#FFE092" d="M218.619,246.431c14.872-1.749,34.117-6.561,45.929-15.309c14.552-10.779,15.308-26.681,15.308-26.681
		c0-22.743-18.958-26.037-26.832-20.789c-7.873,5.25-11.918,18.753-42.895,29.454c-2.205,0.762-7.169,1.651-9.653,2.092
		l-18.874,31.404C193.129,247.951,209.102,247.552,218.619,246.431z"/>
	<path fill="#FFE092" d="M228.462,196.844c5.665,3.967,16.182-8.313,17.494-13.997c1.313-5.687-0.874-8.311-6.559-10.06
		c-5.688-1.75-7.875,8.747-10.936,13.996C225.4,192.033,224.086,193.781,228.462,196.844z"/>
	<path fill="#FFE092" d="M249.455,180.221c1.313,3.063,4.812,2.187,5.686-2.187C256.017,173.662,248.144,177.16,249.455,180.221z"/>
	<path fill="#FFE092" d="M246.395,172.787c-0.875,7.435,12.411-0.93,13.997-8.311C261.977,157.095,247.269,165.35,246.395,172.787z"
		/>
	<path opacity="0.5" fill="#E8BD67" d="M265.636,181.59c0.505,0.868,0.935,1.859,1.267,3.002c1.043,3.584,1.21,7.643,0.614,11.646
		c2.251,3.102,2.945,7.026,2.05,11.701c-1.121,5.85-3.875,10.667-9.092,13.824c-0.635,0.384-1.275,0.756-1.922,1.121
		c-1.844,2.633-3.584,5.403-6.186,7.419c-5.004,3.878-11.473,5.552-17.547,6.934c-4.975,3.501-10.311,6.388-16.381,7.813
		c-2.781,0.652-5.547,1.36-8.311,2.087c3.135-0.175,6.031-0.414,8.49-0.704c14.872-1.749,34.117-6.561,45.929-15.309
		c14.552-10.779,15.308-26.681,15.308-26.681c0-7.425-2.986-13.816-7.277-18.884C270.27,184.228,267.948,182.918,265.636,181.59z"/>
	<path opacity="0.5" fill="#D8A955" d="M270.11,182.918c-1.43-0.535-2.872-1.031-4.324-1.484
		c6.363,5.512,11.358,13.399,11.358,23.009c0,0-0.756,15.901-15.308,26.681c-11.812,8.748-31.057,13.56-45.928,15.309
		c-1.464,0.173-3.096,0.324-4.828,0.458c-0.316,0.083-0.635,0.163-0.951,0.246c3.135-0.175,6.031-0.414,8.49-0.704
		c14.872-1.749,34.117-6.561,45.929-15.309c14.552-10.779,15.308-26.681,15.308-26.681
		C279.856,195.664,275.683,188.325,270.11,182.918z"/>
	<path opacity="0.5" fill="#E8BD67" d="M239.398,172.787c-0.65-0.2-1.253-0.233-1.818-0.14c0.318,0.131,0.636,0.271,0.951,0.434
		c4.007,2.058,6.122,7.333,3.897,11.455c-1.597,2.958-4.475,4.592-6.439,6.608c-0.815,0.837-0.212,2.085-1.197,2.726
		c-0.261,0.17-2.754,1.664-2.872,1.741c-0.604,1.303-0.376,0.795-1.349,1.892c-0.024,0.029-0.053,0.053-0.078,0.08
		c5.841,0.594,14.295-9.678,15.464-14.736C247.269,177.16,245.082,174.536,239.398,172.787z"/>
	<path opacity="0.5" fill="#E8BD67" d="M251.561,179.87c1.313,3.063,2.706,2.538,3.58-1.835
		C256.017,173.662,250.25,176.808,251.561,179.87z"/>
	<path opacity="0.5" fill="#E8BD67" d="M254.057,163.232c0.139,1.235,0.113,2.474-0.256,3.718c-0.41,1.386-0.928,3.067-2.031,4.096
		c-1.494,1.395-1.517,1.444-3.35,2.283c-0.637,0.291-1.359,0.319-2.045,0.441c0.447,5.611,12.51-2.28,14.017-9.294
		C261.203,160.698,257.742,161.022,254.057,163.232z"/>
	
		<ellipse transform="matrix(-0.7909 -0.612 0.612 -0.7909 313.1451 517.4662)" opacity="0.5" fill="#E8BD67" cx="244.991" cy="205.226" rx="5.449" ry="10.598"/>
	<ellipse opacity="0.5" fill="#E8BD67" cx="256.33" cy="190.816" rx="2.163" ry="2.17"/>
</g>
</svg>
