<?xml version="1.0" encoding="utf-8"?>
<!-- Generator: Adobe Illustrator 16.0.3, SVG Export Plug-In . SVG Version: 6.00 Build 0)  -->
<!DOCTYPE svg PUBLIC "-//W3C//DTD SVG 1.1//EN" "http://www.w3.org/Graphics/SVG/1.1/DTD/svg11.dtd">
<svg version="1.1" id="Ebene_1" xmlns="http://www.w3.org/2000/svg" xmlns:xlink="http://www.w3.org/1999/xlink" x="0px" y="0px"
	 width="450px" height="450px" viewBox="0 0 450 450" enable-background="new 0 0 450 450" xml:space="preserve">
<g id="sheep_cheese">
	<g>
		<path fill="#FBE99F" d="M212.003,255.617c0.589,0.443,2.995,2.793,5.632,4.226c3.139,1.702,7.979,2.814,11.264,4.222
			c3.754,1.408,7.512,3.754,11.265,4.227c4.692,0.938,6.103-0.939,10.796-2.816c7.04-2.815,14.547-5.162,19.242-11.265
			c1.408-3.756,0.939-7.51,0.939-11.733c2.815-0.47,5.162,1.407,7.979,1.407c2.348-7.979,4.691-11.264,3.754-19.713
			c-0.938-5.63,0.47-14.549-1.876-19.71c-2.815-6.572-12.672-3.756-18.308-4.693c-7.506-0.47-14.078-0.47-21.117,0.468
			c0-0.468,0,0,0,0l0,0c-6.102-6.102-12.674-9.855-20.182-14.081c-3.755-1.876-6.103-4.693-10.328-4.693
			c-1.407,0-9.386,0.938-10.324,1.407c-5.163,2.347-8.919,13.143-12.202,18.304c-1.878,2.347-5.162,5.634-5.162,8.918
			c0,4.693,2.815,4.693,6.1,7.51c-4.695,1.878-19.711,2.814-22.057,7.508c-2.349,5.163,4.223,20.182,6.568,24.874
			c2.349,4.695,4.695,7.514,8.917,10.328c5.164,3.283,5.634,2.348,10.327,0C198.86,257.495,208.715,259.372,212.003,255.617"/>
	</g>
	<g opacity="0.5">
		<path fill="#D5D5CB" d="M212.884,253.229c0.568,0.43,2.885,2.691,5.425,4.072c3.03,1.643,7.69,2.715,10.856,4.07
			c3.618,1.357,7.235,3.617,10.854,4.072c4.523,0.9,5.879-0.907,10.403-2.715c6.783-2.715,14.021-4.978,18.545-10.855
			c1.355-3.619,0.901-7.237,0.901-11.309c2.715-0.451,4.977,1.356,7.689,1.356c2.262-7.688,4.522-10.854,3.617-18.996
			c-0.902-5.428,0.453-14.021-1.808-18.998c-2.714-6.331-12.212-3.617-17.64-4.521c-7.235-0.452-13.568-0.452-20.353,0.452
			c0-0.452,0,0,0,0l0,0c-5.883-5.879-12.214-9.498-19.45-13.568c-3.62-1.809-5.88-4.523-9.951-4.523
			c-1.357,0-9.045,0.905-9.949,1.357c-4.974,2.262-8.596,12.665-11.76,17.64c-1.809,2.262-4.975,5.427-4.975,8.594
			c0,4.521,2.714,4.521,5.878,7.236c-4.524,1.81-18.995,2.713-21.258,7.236c-2.261,4.978,4.07,19.448,6.334,23.972
			c2.263,4.522,4.522,7.238,8.593,9.95c4.977,3.166,5.428,2.263,9.95,0C200.22,255.04,209.718,256.848,212.884,253.229"/>
	</g>
	<g>
		<path fill="#FAFAE9" d="M280.896,222.909c-0.899-5.397,0.449-13.945-1.801-18.894c-2.697-6.299-12.146-3.6-17.545-4.499
			c-7.197-0.45-13.496-0.45-20.242,0.45c-5.85-5.848-12.146-9.448-19.346-13.496c-3.599-1.799-5.849-4.499-9.896-4.499
			c-1.35,0-8.998,0.899-9.898,1.35c-4.948,2.25-8.547,12.596-11.695,17.544c-1.8,2.25-4.95,5.399-4.95,8.548
			c0,4.498,2.7,4.498,5.85,7.198c-4.499,1.799-18.895,2.7-21.142,7.198c-2.251,4.948,4.047,19.343,6.296,23.843
			c2.249,4.498,4.5,7.195,8.549,9.896c4.948,3.148,5.397,2.249,9.896,0c4.772-2.385,12.707-1.259,16.661-3.45
			c-2.503-0.761-4.529-0.209-7.169,0.348c-2.189,0.471-11.893,4.537-12.831,0.938c-4.538,3.285-6.415-3.6-7.51-6.26
			c-1.879-4.067-5.946-7.822-6.572-12.205c-0.156-1.096-0.47-4.694-0.156-5.633c0.625-1.722,4.223-2.035,5.944-2.504
			c3.444-1.252,6.572-3.442,10.015-4.538c1.722-0.47,3.131-0.625,4.851-1.252c1.879-0.938,3.813-1.989,5.165-0.469l0.157,1.564
			c2.504,0.626,5.005,1.722,7.666,1.722c2.347-1.564,3.757-3.913,5.633-5.79c2.035-2.034,3.756-3.911,5.165-6.415
			c2.034-3.912,3.91-9.233,7.354-12.205c-0.468-0.47-1.251-0.783-1.877-1.096c0.626-0.782,3.912-0.313,5.008-0.313
			c1.564,0,3.129,0,4.539,0c1.719,0,3.282-0.625,4.223,0.626c0.625,0.783,0.469,2.348-0.156,2.973
			c1.096,2.504,1.723,4.851,4.225,6.573c1.096,0.938,2.192,1.564,3.131,2.816c0.938-2.191,7.98-1.41,10.014-1.41
			c1.41,0,4.854-0.312,5.636,0.94c0.313,0.47,0,1.879,0.157,2.349c0.154,0.782,0.781,1.251,0.781,2.19v-0.156
			c0.781,0.313,3.752,1.408,3.285,2.659c-0.471,1.252-5.791,0.157-6.887,0.157c-4.851-0.157-9.701-0.313-14.553,0.156
			c-7.823,0.626-14.395,5.79-22.219,6.728c-1.721,0.314-1.564,0.157-2.191,1.565c-0.468,1.095-0.781,2.504-0.781,3.757
			c0,2.813,0.625,5.476,0.468,8.293c-0.154,5.788-1.25,11.733-2.659,17.211c-0.102,0.039-0.204,0.065-0.309,0.087
			c2.986,1.411,7.104,2.409,9.985,3.645c3.601,1.352,7.196,3.598,10.798,4.049c4.497,0.898,5.848-0.9,10.348-2.697
			c6.748-2.702,13.943-4.951,18.444-10.8c1.349-3.599,0.897-7.197,0.897-11.245c2.699-0.451,4.949,1.348,7.647,1.348
			C279.546,234.156,281.795,231.008,280.896,222.909z"/>
	</g>
	<g>
		<g>
			<path fill="#FBE99F" d="M207.291,210.944c-0.974,0.711-1.795,0.425-1.452,1.948C208.456,212.75,207.712,211.965,207.291,210.944"
				/>
		</g>
		<g>
			<path fill="#FBE99F" d="M219.692,207.202c-0.974,0.711-1.623,1.186-1.526,2.446c2.617-0.14,1.87-0.925,0.877-1.972"/>
		</g>
		<g>
			<path fill="#FBE99F" d="M224.97,210.44c-0.4,0.737-1.3,0.949-0.306,1.996c2.124-0.664,1.625-1.188,0.956-2.471"/>
		</g>
		<g>
			<path fill="#FBE99F" d="M217.766,217.92c-2.118,0.663-4.471,2.824-1.68,3.444c2.219,0.598,0.88-1.971,0.305-1.996"/>
		</g>
		<g>
			<path fill="#FBE99F" d="M206.876,224.99c-0.078,0.499-0.977,0.713-1.051,1.211c0.649-0.475,0.973-0.712,1.297-0.949
				c0.079-0.498-0.745-0.786-0.82-0.286"/>
		</g>
		<g>
			<path fill="#FBE99F" d="M214.639,230.848c0.246,0.262,0.171,0.762,0.094,1.26c1.472-0.188,0.975-0.711,1.052-1.211"/>
		</g>
		<g>
			<path fill="#FBE99F" d="M228.07,224.136c-0.401,0.737-1.299,0.949-0.555,1.733c2.045-0.164,1.549-0.688,1.701-1.686"/>
		</g>
		<g>
			<path fill="#FBE99F" d="M235.369,217.916c-0.325,0.238-1.225,0.449-0.555,1.736c2.696-0.64,1.873-0.926,1.453-1.947"/>
		</g>
		<g>
			<path fill="#FBE99F" d="M200.017,233.991c0.324-0.236-0.248-0.261-0.975,0.713c2.542,0.358,2.618-0.14,2.599-1.899
				c-0.823-0.285-0.898,0.213-1.472,0.189"/>
		</g>
		<g>
			<path fill="#FBE99F" d="M192.138,225.117c-0.724,0.973-1.697,1.685-1.277,2.708c0.974-0.71,0.974-0.71,1.698-1.687
				c-0.496-0.522-0.897,0.213-1.145-0.05"/>
		</g>
		<g>
			<path fill="#FBE99F" d="M185.815,238.158c-0.228,1.498,1.818,1.334,0.152-0.998"/>
		</g>
		<g>
			<path fill="#FBE99F" d="M203.382,242.172c-0.974,0.713-1.796,0.428-1.698,1.688c1.469-0.188,1.796-0.426,2.847-1.639
				c0.076-0.498-0.823-0.287-0.823-0.287"/>
		</g>
		<g>
			<path fill="#FBE99F" d="M213.895,237.596c0.247,0.264-0.65,0.478-0.155,0.998c1.798-0.424,0.727-0.972,0.555-1.732"/>
		</g>
		<g>
			<path fill="#FBE99F" d="M223.505,233.234c-0.399,0.735-1.299,0.949-0.305,1.998C224.174,234.52,223.429,233.732,223.505,233.234"
				/>
		</g>
		<g>
			<path fill="#FBE99F" d="M196.111,214.234c-0.65,0.476-2.218-0.596-1.052,1.212c1.377-1.448,0.977-0.712,0.306-1.997
				c-0.574-0.024-0.65,0.475-0.65,0.475"/>
		</g>
		<g>
			<path fill="#FBE99F" d="M184.971,221.043c-0.479,1.236-1.624,1.187-0.63,2.233C185.394,222.067,185.066,222.304,184.971,221.043
				c-1.147-0.048-1.224,0.451-1.874,0.925"/>
		</g>
		<g>
			<path fill="#FBE99F" d="M195.345,204.155c0.248,0.262-0.403,0.736-0.153,0.999c1.872-0.925,0.725-0.973,0.229-1.497"/>
		</g>
		<g>
			<path fill="#FBE99F" d="M205.011,197.534c-0.074,0.5-0.974,0.711,0.021,1.76l0.323-0.239l0,0
				c0.154-0.997-0.419-1.021-0.592-1.783"/>
		</g>
		<g>
			<path fill="#FBE99F" d="M218.028,197.336c-1.549,0.686-2.446,0.898-0.554,1.734c0.246,0.262,0.898-0.213,0.574,0.024
				c-0.096-1.259-0.919-1.546-0.671-1.284"/>
		</g>
		<g>
			<path fill="#FBE99F" d="M229.57,197.325c-0.57-0.024-0.42-1.024-1.146-0.05l0.249,0.263c0.821,0.287,0,0,0,0"/>
		</g>
		<g>
			<path fill="#FBE99F" d="M238.213,201.209c-0.402,0.736-1.626,1.186,0.592,1.784l0,0c0.325-0.239-0.171-0.762,0.153-1
				c-0.573-0.023-0.651,0.475-0.651,0.475"/>
		</g>
		<g>
			<path fill="#FBE99F" d="M248.727,211.705c-0.324,0.236-1.318-0.811-0.976,0.71l1.226-0.45c-0.42-1.022-0.172-0.76,0.076-0.5"/>
		</g>
	</g>
	<g>
		<g>
			<path fill="#E8CEAA" d="M257.557,229.004c-0.137-1.041,0.633-1.523-1.086-1.943C255.072,229.066,256.29,228.863,257.557,229.004"
				/>
		</g>
		<g>
			<path fill="#E8CEAA" d="M253.991,239.878c-0.138-1.041-0.228-1.733-1.536-2.223c-1.398,2.007-0.18,1.802,1.445,1.528"/>
		</g>
		<g>
			<path fill="#E8CEAA" d="M247.67,242.355c-0.499-0.625-0.184-1.388-1.809-1.113c-0.586,1.871,0.228,1.734,1.896,1.807"/>
		</g>
		<g>
			<path fill="#E8CEAA" d="M244.459,233.684c0.585-1.869-0.184-4.576-2.439-2.777c-1.896,1.382,1.446,1.527,1.806,1.113"/>
		</g>
		<g>
			<path fill="#E8CEAA" d="M243.82,222.453c-0.45-0.277-0.135-1.039-0.588-1.317c0.091,0.693,0.138,1.04,0.183,1.385
				c0.451,0.279,1.22-0.204,0.769-0.482"/>
		</g>
		<g>
			<path fill="#E8CEAA" d="M233.434,225.614c-0.406,0.069-0.857-0.209-1.311-0.488c-0.678,1.176,0.137,1.04,0.589,1.319"/>
		</g>
		<g>
			<path fill="#E8CEAA" d="M232.221,238.573c-0.496-0.625-0.182-1.388-1.4-1.183c-1.04,1.592-0.225,1.454,0.679,2.012"/>
		</g>
		<g>
			<path fill="#E8CEAA" d="M234.12,246.757c-0.046-0.347,0.271-1.108-1.399-1.182c-0.947,2.284-0.182,1.801,1.084,1.944"/>
		</g>
		<g>
			<path fill="#E8CEAA" d="M238.895,213.361c0.045,0.346,0.405-0.069-0.136-1.04c-1.851,1.728-1.399,2.006,0.362,2.772
				c0.766-0.481,0.314-0.76,0.675-1.176"/>
		</g>
		<g>
			<path fill="#E8CEAA" d="M252.354,211.455c-0.543-0.971-0.679-2.01-1.941-2.152c0.136,1.04,0.136,1.04,0.68,2.011
				c0.811-0.136,0.314-0.761,0.721-0.83"/>
		</g>
		<g>
			<path fill="#E8CEAA" d="M243.091,200.964c-1.356-0.833-2.396,0.757,0.902,0.558"/>
		</g>
		<g>
			<path fill="#E8CEAA" d="M228.775,212.227c-0.135-1.04,0.631-1.522-0.678-2.012c-0.681,1.177-0.634,1.524-0.046,2.841
				c0.451,0.28,0.769-0.483,0.769-0.483"/>
		</g>
		<g>
			<path fill="#E8CEAA" d="M227.152,222.063c-0.406,0.07-0.088-0.692-0.902-0.556c-0.633,1.524,0.542,0.973,1.4,1.182"/>
		</g>
		<g>
			<path fill="#E8CEAA" d="M225.848,231.141c-0.496-0.625-0.18-1.387-1.808-1.113C224.175,231.066,225.396,230.863,225.848,231.141"
				/>
		</g>
		<g>
			<path fill="#E8CEAA" d="M260.85,219.241c-0.092-0.694,1.896-1.382-0.59-1.319c0.635,1.666,0.139,1.041,1.811,1.113
				c0.359-0.416-0.092-0.692-0.092-0.692"/>
		</g>
		<g>
			<path fill="#E8CEAA" d="M260.618,207.942c-0.948-0.903-0.226-1.735-1.853-1.459C259.354,207.8,259.309,207.452,260.618,207.942
				c0.723-0.83,0.271-1.107,0.18-1.802"/>
		</g>
		<g>
			<path fill="#E8CEAA" d="M271.331,223.15c-0.407,0.067-0.497-0.625-0.905-0.558c-0.179,1.801,0.545,0.972,1.356,0.836"/>
		</g>
		<g>
			<path fill="#E8CEAA" d="M272.239,233.271c-0.454-0.278-0.136-1.039-1.765-0.768l0.045,0.348l0,0
				c0.904,0.556,1.266,0.142,2.127,0.353"/>
		</g>
		<g>
			<path fill="#E8CEAA" d="M264.788,243.023c0.226-1.455,0.543-2.215-1.399-1.183c-0.406,0.068-0.314,0.761-0.361,0.415
				c1.311,0.49,2.078,0.005,1.672,0.073"/>
		</g>
		<g>
			<path fill="#E8CEAA" d="M258.018,251.602c0.359-0.414,1.266,0.144,0.723-0.83l-0.406,0.066c-0.77,0.484,0,0,0,0"/>
		</g>
		<g>
			<path fill="#E8CEAA" d="M249.077,256.293c-0.499-0.628-0.229-1.734-2.124-0.354l0,0c0.045,0.346,0.857,0.209,0.902,0.556
				c0.358-0.415-0.09-0.693-0.09-0.693"/>
		</g>
		<g>
			<path fill="#E8CEAA" d="M232.454,259.438c-0.044-0.348,1.581-0.621-0.136-1.041l-0.271,1.109
				c1.268,0.141,0.859,0.209,0.454,0.277"/>
		</g>
	</g>
	<g>
		<g>
			<g>
				<path fill="#F7E9DF" d="M219.581,224.89c3.202-3.183,4.981-7.263,7.442-10.99c2.862-4.336,6.313-7.965,8.401-12.796
					c-0.735,0.443-1.471,0.886-2.206,1.329c0.932-0.072,7.633-1.597,6.564,1.041c-1.012,2.5-3.272,4.683-4.889,6.817
					c-4.897,6.467-8.861,11.936-17.629,13.054c0.618,0.621,1.236,1.241,1.854,1.861c0.031-0.107,0.063-0.215,0.094-0.322
					c2.225-1.824-1.155-3.388-2.83-2.014c-0.705,0.578-1.032,0.93-1.324,1.804c-0.402,1.202,0.697,2.01,1.854,1.861
					c5.146-0.656,9.604-2.529,13.782-5.59c4.271-3.13,6.531-7.811,9.724-11.867c1.897-2.412,5.317-6.032,3.321-9.185
					c-1.836-2.899-7.674-0.843-10.172-0.65c-0.844,0.065-1.849,0.501-2.205,1.329c-1.938,4.478-5.016,8.135-7.903,12.013
					c-2.674,3.593-4.214,7.78-7.443,10.99C214.125,225.457,218.203,226.259,219.581,224.89L219.581,224.89z"/>
			</g>
		</g>
		<g>
			<g>
				<path fill="#F7E9DF" d="M213.318,229.18c2.487,1.206,4.935,1.352,7.667,1.394c4.889,0.073,9.837,1.59,14.57,2.733
					c5.246,1.271,10.945,4.656,16.219,1.484c6.15-3.699,9.375-10.772,15.371-14.743c0.711-0.471,0.965,10.56,0.953,11.53
					c-0.053,3.811,0,7.625,1.105,11.299c0.254,0.846,4.469-0.354,4.234-1.135c-2.27-7.54-0.469-15.67-1.418-23.396
					c-0.029-0.246-0.604-0.225-0.726-0.229c-7.533-0.253-12.558,6.149-17.063,11.297c-2.373,2.711-4.436,5.816-8.56,4.18
					c-2.653-1.054-5.553-1.574-8.315-2.242c-3.435-0.832-6.894-1.554-10.36-2.222c-3.329-0.641-6.431,0.231-9.674-1.341
					C216.242,227.266,212.999,229.025,213.318,229.18L213.318,229.18z"/>
			</g>
		</g>
		<g>
			<g>
				<path fill="#F7E9DF" d="M244.048,237.113c-3.396,2.029-4.817,4.836-3.198,8.598c0.485,1.125,2.08,1.191,3.049,0.652
					c1.857-1.033,1.188,6.354,1.047,7.572c-0.203,1.78-0.481,3.549-0.666,5.332c-0.141,1.356,1.397,6.963,0.818,7.602
					c-1.791,1.979,2.278,2.595,3.533,1.209c1.954-2.156-0.146-6.588-0.066-9.146c0.102-3.18,0.895-6.295,0.959-9.492
					c0.102-4.948-2.551-8.264-7.486-5.518c1.018,0.219,2.031,0.436,3.048,0.654c-0.954-2.215-0.347-4.32,1.759-5.58
					C249.3,237.527,245.766,236.086,244.048,237.113L244.048,237.113z"/>
			</g>
		</g>
		<g>
			<g>
				<path fill="#F7E9DF" d="M247.708,213.265c4.342,1.856,8.839,1.388,13.374,0.388c4.016-0.885,11.096-3.417,15.021-1.709
					c2.272,0.989,1.274,11.24,1.377,13.345c0.319,6.555-0.648,12.836-0.834,19.359c-0.021,0.718,4.199,0.142,4.234-1.135
					c0.186-6.522,1.227-12.804,0.834-19.36c-0.169-2.818,1.098-11.44-1.313-13.416c-2.256-1.849-6.787-0.752-9.365-0.425
					c-5.977,0.759-13.464,4.002-19.346,1.488C250.525,211.303,247.2,213.048,247.708,213.265L247.708,213.265z"/>
			</g>
		</g>
		<g>
			<g>
				<path fill="#F7E9DF" d="M175.984,233.305c3.805,10.094,7.329,20.266,14.338,28.655c1.044,1.249,5.104-0.306,3.912-1.731
					c-6.863-8.217-10.292-18.181-14.016-28.059C179.598,230.523,175.399,231.754,175.984,233.305L175.984,233.305z"/>
			</g>
		</g>
		<g>
			<g>
				<path fill="#F7E9DF" d="M167.195,227.361c2.952,1.41,5.46,3.555,8.542,4.685c2.362,0.866,5.188,0.37,7.603,0.121
					c6.841-0.706,13.375-3.187,19.46-6.276c2.538-1.291-1.266-1.874-2.609-1.19c-5.17,2.627-10.506,4.393-16.253,5.196
					c-5.895,0.826-8.58-2.26-13.361-4.543C169.368,224.775,165.474,226.539,167.195,227.361L167.195,227.361z"/>
			</g>
		</g>
		<g>
			<g>
				<path fill="#F7E9DF" d="M208.759,184.706c2.836,3.145,4.228,6.345,7.895,8.618c4.729,2.931,9.442,5.89,13.727,9.458
					c1.307,1.088,5.277-0.62,3.902-1.765c-3.277-2.73-6.743-5.151-10.331-7.456c-2.277-1.462-5.488-2.791-7.161-4.975
					c-1.434-1.872-2.538-3.882-4.129-5.646C211.52,181.675,207.479,183.287,208.759,184.706L208.759,184.706z"/>
			</g>
		</g>
		<g>
			<g>
				<path fill="#F7E9DF" d="M201.858,184.036c0.297,1.162,0.245,2.721,0.868,3.765c0.785,1.315,2.617,2.25,3.809,3.146
					c3.198,2.403,7.579,3.22,10.711,0.197c0.713-0.688-0.62-0.815-1.025-0.789c-0.947,0.06-2.122,0.356-2.826,1.036
					c0.293-0.025,0.586-0.05,0.879-0.075c-0.562-0.087-1.097-0.258-1.606-0.513c-0.577-0.262-1.111-0.627-1.64-0.974
					c-1.128-0.74-2.188-1.627-3.265-2.44c-1.444-1.091-1.251-2.85-1.67-4.487C205.826,181.86,201.587,182.973,201.858,184.036
					L201.858,184.036z"/>
			</g>
		</g>
		<g>
			<g>
				<path fill="#F7E9DF" d="M211.074,231.178c2.059,8.379,0.134,17.031,0,25.521c-0.017,1.059,4.211,0.353,4.234-1.135
					c0.133-8.482,2.06-17.141,0-25.521C214.996,228.773,210.755,229.877,211.074,231.178L211.074,231.178z"/>
			</g>
		</g>
		<g>
			<g>
				<path fill="#F7E9DF" d="M189.452,218.773c3.277,5.311,11.212,8.499,16.831,10.665c1.894,0.729,4.22,0.5,6.077-0.22
					c2.235-0.864,3.371-3.102,5.508-3.983c2.764-1.139,0.179-2.017-1.555-1.302c-1.359,0.56-2.417,1.129-3.529,2.118
					c-2.143,1.905-3.436,1.514-5.853,0.371c-4.522-2.136-10.517-4.362-13.245-8.784C192.939,216.428,188.96,217.976,189.452,218.773
					L189.452,218.773z"/>
			</g>
		</g>
		<g>
			<g>
				<path fill="#F7E9DF" d="M239.548,213.703c7.517,5.65,17.539,3.254,25.521,7.443c1.521,0.798,5.299-1.287,3.291-2.34
					c-7.965-4.181-18.145-1.899-25.521-7.443C241.445,210.317,237.669,212.291,239.548,213.703L239.548,213.703z"/>
			</g>
		</g>
	</g>
</g>
</svg>
