<?xml version="1.0" encoding="utf-8"?>
<!-- Generator: Adobe Illustrator 16.0.0, SVG Export Plug-In . SVG Version: 6.00 Build 0)  -->
<!DOCTYPE svg PUBLIC "-//W3C//DTD SVG 1.1//EN" "http://www.w3.org/Graphics/SVG/1.1/DTD/svg11.dtd">
<svg version="1.1" id="Ebene_1" xmlns="http://www.w3.org/2000/svg" xmlns:xlink="http://www.w3.org/1999/xlink" x="0px" y="0px"
	 width="450px" height="450px" viewBox="0 0 450 450" enable-background="new 0 0 450 450" xml:space="preserve">
<g>
	<g opacity="0.3">
		<polygon fill="#1D1D1B" points="294.399,183.96 290.207,179.892 285.145,176.934 279.871,174.674 273.942,173.114 268.52,179.232 
			264.076,181.454 258.289,187.661 252.393,188.323 248.971,193.551 253.804,196.805 259.932,196.985 265.896,197.532 
			273.211,198.728 279.67,201.886 286.727,203.759 295.688,201.609 296.977,194.951 296.838,188.748 		"/>
		<path fill="#1D1D1B" d="M296.838,188.748l-2.273-4.462c0.057,0.928,0.103,1.805,0.016,2.5c-0.375,3.003-1.703,5.711-1.531,8.776
			c-4.703-1.903-8.033-6.515-12.698-8.427c0.544,0.563,0.997,1.66,1.464,2.23c-2.701-0.907-7.602-0.833-10.293,0.415
			c0.111,0.109,1.438,4.091,1.453,4.241c-6.061-2.993-14.501-4.248-20.99-5.074l-3.014,4.603l4.833,3.255l6.128,0.18l5.964,0.547
			l7.315,1.196l6.459,3.158l7.057,1.872l8.961-2.149l1.289-6.658L296.838,188.748z"/>
		<polygon fill="#1D1D1B" points="224.391,176.703 215.223,179.125 208.288,170.76 198.092,172.327 189.696,167.997 
			181.326,163.066 172.612,163.62 164.215,164.127 156.652,161.703 156.717,172.479 152.073,179.787 158.922,184.406 
			164.061,193.917 173.276,199.022 182.943,200.925 190.78,208.173 181.877,208.707 189.165,216.912 197.256,221.568 
			206.594,222.251 213.449,227.277 220.145,232.743 227.905,235.864 236.887,236.381 242.164,243.255 249.258,247.846 
			259.6,247.242 266.115,239.219 268.312,232.208 273.862,227.638 279.019,219.712 281.395,209.684 273.856,199.448 
			263.573,195.735 256.893,189.262 253.108,180.409 244.962,175.435 238.926,167.42 228.237,169.916 		"/>
		<path fill="#1D1D1B" d="M278.328,218.515c-1.752,0.848-6.1,2.802-7.854,1.832c-0.349,3.506-15.11,0.727-18.177-0.259
			c-4.359-1.403-5.959-1.799-2.742,3.243c1.821,2.853,16.313,4.831,5.498,9.981c-3.683,0.317-8.657-6.182-9.352-9.185
			c-0.184,0.195-0.298,0.497-0.491,0.709c-1.496-0.677-3.138-2.29-4.961-2.522c-2.143-0.272-3.999,0.587-6.32,0.31
			c-5.179-0.619-13.661-3.344-17.671-6.708c0.768,0.162,1.713,0.188,2.443,0.398c-1.36-0.769-3.438-1.639-4.664-2.835
			c0.503-0.177,0.726-0.587,1.541-0.712c-1.059-2.949-9.165-4.636-8.596-8.652c1.19,0.363,2.523,0.824,3.834,0.974
			c-4.68-3.229-9.33-6.601-14.066-9.817c-5.077-3.446-10.58-8.019-15.846-10.862c-0.001,0.005,0.158,0.573,0.137,0.731
			c-2.76-0.59-4.125-3.375-6.654-4.45c-0.375,2.233,1.338,3.953,2.494,5.642c-4.58-1.232-9-5.856-12.736-8.899
			c-1.887-1.539-4.775-3.522-7.432-5.696l0.004,0.742l-4.645,7.308l6.85,4.619l5.139,9.511l9.215,5.105l9.667,1.902l7.837,7.248
			l-8.902,0.534l7.288,8.205l8.091,4.656l9.338,0.683l6.855,5.026l6.695,5.466l7.76,3.121l8.982,0.517l5.277,6.874l7.094,4.592
			l10.342-0.604l6.516-8.023l2.196-7.011l5.55-4.569l5.157-7.927l0.451-1.906C279.103,218.075,278.725,218.322,278.328,218.515z"/>
		<polygon fill="#1D1D1B" points="216.512,224.222 210.485,221.125 203.723,212.82 195.135,206.167 186.59,207.034 179.735,212.156 
			176.198,220.049 168.043,224.54 166.74,233.127 162.608,243.469 166.823,251.904 176.321,250.591 185.004,248.02 194.406,248.33 
			202.906,250.429 211.748,253.406 219.545,254.3 228.291,252.068 222.453,244.371 218.405,237.011 212.87,231.206 		"/>
		<path fill="#1D1D1B" d="M222.453,244.371l-1.359-2.471c-2.738,0.99-7.717-2.72-9.898-3.261c1.006,1.11,2.031,2.223,2.938,3.395
			c-2.057-0.245-4.319-0.832-6.551-1.14c0.828,0.308,1.646,0.638,2.441,1.03c-1.575-0.809-3.471-1.039-5.229-1.227
			c0.91-0.02,1.846,0.065,2.787,0.196c-9.135-3.383-20.111-1.886-29.553-1.094c-1.828-4.31,5.766-4.582,7.045-7.141
			c-2.508-1.795-6.285-1.29-8.515-3.3c4.975-3.766,11.255-2.031,16.229-3.163c-2.482-3.185-9.772-1.495-12.036-4.831
			c-3.599-5.307,2.226-10.594,6.832-14.433l-0.995,0.101l-6.855,5.122l-3.536,7.893l-8.155,4.491l-1.304,8.587l-4.132,10.342
			l4.215,8.436l9.498-1.313l8.684-2.57l9.402,0.31l8.499,2.1l8.843,2.977l7.797,0.894l8.746-2.231L222.453,244.371z"/>
		<polygon fill="#1D1D1B" points="244.559,244.653 238.459,248.485 230.045,246.973 220.276,247.759 212.916,251.258 
			216.102,259.029 207.281,267.314 208.831,275.769 218.061,278.976 224.364,285.264 233.124,289.707 242.508,291.868 
			252.885,295.191 262.604,292.032 269.026,284.144 278.655,282.759 290.235,281.562 297.922,271.355 298.195,259.566 
			291.59,249.802 284.231,245.66 277.934,239.627 269.545,238.8 262.293,241.708 252.964,240.28 		"/>
		<path fill="#1D1D1B" d="M291.59,249.802l-4.621-2.601c-0.093,1.598-0.147,3.317,0.517,5.353c0.804-0.205,1.68,0.235,2.265,0.163
			c-0.357,1.619-1.216,3.283-2.333,4.635c-1.407,1.7-5.009,2.654-6.019,4.188c-2.383,3.613,5.895,1.581,8.406,1.684
			c-3.545,3.889-3.842,6.817-8.703,8.507c-4.536,1.575-11.43,1.171-16.008,2.682c-3.406,1.123-6.738,3.513-10.313,3.954
			c5.327-2.263,10.085-5.251,14.929-8.344c-3.006,0.789-5.976,0.565-8.994,1.38c-3.946,1.062-3.563,1.954-7.609,2.569
			c0.139-0.201-3.266-0.131-3.156-0.234c-0.676-0.388-7.273,4.345-7.914,4.327c0.868,5.363-23.307-12.433-26.689-12.595
			c4.408-0.635,8.396-2.009,12.654-2.799c-5.13-2.547-9.711-7.615-14.199-11.834l-0.885,0.421l3.186,7.771l-8.82,8.285l1.55,8.455
			l9.229,3.207l6.303,6.288l8.761,4.442l9.384,2.161l10.377,3.323l9.719-3.159l6.422-7.888l9.629-1.386l11.58-1.196l7.688-10.207
			l0.272-11.789L291.59,249.802z"/>
		<polygon fill="#1D1D1B" points="281.858,221.45 279.543,230.342 281.248,239.151 285.04,247.458 292.653,252.197 301.534,254.785 
			310.07,250.417 319.28,248.939 327.11,243.701 322.405,233.872 315.098,223.044 306.53,221.551 298.442,219.38 289.864,217.259 		
			"/>
		<path fill="#1D1D1B" d="M315.24,235.273c6.095,3.858,0.422,3.443-2.136,5.536c0.074,0.093,0.27,0.264,0.41,0.375
			c0.031,0.007,0.061,0.016,0.094,0.022c0.135,0.142,0.047,0.088-0.094-0.022c-2.998-0.678-5.963-1.69-8.974-2.335
			c-2.689-0.575-5.636-2.888-7.995-3.022c-1.037,3.318,0.459,11.905-4.325,7.619c-3.337-2.988-5.377-10.945-7.673-14.964
			c-1.027-1.797-2.139-3.609-3.092-5.486l-1.912,7.346l1.705,8.81l3.792,8.307l7.612,4.739l8.882,2.588l8.535-4.368l9.21-1.478
			l7.83-5.238l-4.285-8.952C319.836,235.017,316.858,234.994,315.24,235.273z"/>
		<polyline fill="#1D1D1B" points="184.937,252.415 177.82,257.164 177.444,265.454 180.648,272.563 187.604,276.479 
			191.001,270.879 191.682,263.553 194.414,256.561 189.725,251.809 		"/>
		<path fill="#1D1D1B" d="M193.721,256.423c-0.762,2.061-2.98,2.02-4.359,0.906c-0.256,0.472-0.5,0.95-0.74,1.43
			c-0.033,1.192-0.049,2.387-0.049,3.587c-0.002,1.953-1.588,2.988-3.102,2.996c-1.244,1.87-4.967,1.468-5.425-1.457
			c-0.099-0.632-0.198-1.253-0.288-1.869c-0.678-1.644-1.273-3.285-1.752-4.977l-0.187,0.125l-0.376,8.29l3.204,7.109l6.956,3.916
			l3.397-5.601l0.681-7.325l2.732-6.992l-0.549-0.556C193.817,256.144,193.772,256.285,193.721,256.423z"/>
		<polyline fill="#1D1D1B" points="133.875,203.135 128.427,208.134 133.875,213.488 138.774,216.483 145.414,216.793 
			144.412,205.311 142.69,201.217 136.707,200.654 		"/>
		<path fill="#1D1D1B" d="M144.854,210.383c-1.412,0.256-2.828,0.222-4.244-0.14c-0.194-0.08-0.388-0.159-0.582-0.24
			c-1.006,0.773-2.396,0.949-3.475-0.143c-0.852-0.864-1.645-1.765-2.354-2.719c-0.629-0.325-1.254-0.654-1.864-1.013
			c-0.348-0.204-0.678-0.431-0.991-0.671l-2.917,2.676l5.448,5.354l4.898,2.995l6.641,0.31L144.854,210.383z"/>
		<polyline fill="#1D1D1B" points="312.718,198.92 303.319,203.051 310.006,208.97 317.086,214.617 325.911,216.036 326.08,207.451 
			323.187,199.695 316.338,198.652 		"/>
		<path fill="#1D1D1B" d="M326.039,208.294c-0.332,0.434-0.65,0.883-0.959,1.346c-0.262,0.398-0.523,0.798-0.789,1.197
			c-1.668,2.511-5.779,0.109-5.124-2.449c-0.31,0.043-0.649,0.021-1.011-0.061c-0.172,0.026-0.353,0.037-0.543,0.027
			c-3.594-0.167-6.779-0.965-9.986-2.609c-0.939-0.482-1.425-1.273-1.55-2.109c-0.624-0.31-1.239-0.641-1.85-0.985l-0.909,0.4
			l6.688,5.92l7.08,5.646l8.825,1.419l0.152-7.765C326.055,208.278,326.047,208.285,326.039,208.294z"/>
		<polyline fill="#1D1D1B" points="309.406,258.562 305.66,269.727 317.09,269.344 320.24,263.439 312.66,260.466 		"/>
		<path fill="#1D1D1B" d="M316.543,266.143c-1.236,1.423-2.941,1.194-4.037,0.248c-0.55,0.111-1.153,0.039-1.764-0.295
			c-0.548-0.299-1.117-0.544-1.688-0.782c-0.342-0.038-0.688-0.159-1.029-0.382c-0.064-0.042-0.124-0.089-0.189-0.131
			c-0.152-0.065-0.299-0.146-0.451-0.213l-1.725,5.139l11.43-0.383l3.15-5.905l-0.971-0.381
			C318.383,264.092,317.453,265.094,316.543,266.143z"/>
		<path fill="#1D1D1B" d="M194.442,180.799c6.777,4.839,12.785,11.107,19.852,15.398c-2.879-5.671-6.704-12.098-10.646-17.18
			c-1.653-2.131-1.509-1.618-4.158-0.817c-1.751,0.529-4.166,0.508-4.455,2.599"/>
		<path fill="#1D1D1B" d="M229.063,182.581c7.408,6.939,17.874,11.443,26.638,16.377c-4.586-3.947-9.763-7.181-14.252-11.351
			c-2.013-1.871-6.474-4.667-7.634-6.511"/>
		<path fill="#1D1D1B" d="M225.201,198.618c8.121,4.977,16.329,12.255,25.436,15.175c-3.094-3.877-9.457-5.897-13.197-9.465
			c-2.496-2.38-7.996-6.269-9.27-8.085"/>
		<path fill="#1D1D1B" d="M252.227,205.449c6.188,2.341,11.932,5.707,17.773,8.566c-3.463-4.632-10.508-7.095-14.803-10.942"/>
		<path fill="#1D1D1B" d="M170.258,166.84c4.346,3.578,9.457,6.4,13.617,10.052c-2.164-3.396-7.427-7.876-10.943-9.457"/>
		<path fill="#1D1D1B" d="M186.593,225.94c3.507,4.138,9.651,6.034,13.987,9.096c-1.543-3.345-6.988-5.609-9.829-7.907"/>
		<path fill="#1D1D1B" d="M187.781,217.625c4.977,1.738,11.84,0.715,15.711,4.944c-2.097-3.863-7.139-5.096-10.96-6.132"/>
		<path fill="#1D1D1B" d="M227.28,263.955c3.302,1.813,8.57-0.347,11.881-1.179c3.819-0.961,8.176-0.684,11.789-1.797
			c-2.066,0.029-4.037-0.397-6.148-0.289c-3.551,0.181-7.019,2.416-10.393,2.375"/>
		<path fill="#1D1D1B" d="M252.524,253.858c4.896,0.324,9.146-4.137,13.661-5.345c3.267-0.874,6.742-1.403,9.993-2.081
			c-6.693-2.561-14.383-0.351-19.792,3.862"/>
		<path fill="#1D1D1B" d="M256.979,267.221c4.684-1.679,9.554-2.48,14.344-3.859c2.591-0.746,8.237-1.645,9.979-3.786
			c-6.096-2.074-11.322-0.667-16.303,3.191"/>
		<path fill="#1D1D1B" d="M234.408,273.46c3.092,1.048,7.135-0.15,9.547-2.088c-2.047-1.615-6.396-0.534-8.656,0.602"/>
		<path fill="#1D1D1B" d="M270.046,182.284c3.079,2.104,7.187,2.316,10.632,3.565c2.336,0.846,4.579,2.601,6.795,3.227
			c-2.918-3.618-10.233-6.537-14.456-7.979"/>
		<path fill="#1D1D1B" d="M280.44,179.017c2.738,1.103,5.328,2.553,8.063,3.616c-0.443-2.137-5.305-4.313-7.467-3.32"/>
		<path fill="#1D1D1B" d="M290.539,230.99c3.116,2.468,7.85,3.709,11.795,3.578c-3.355-1.88-6.277-4.968-9.717-6.549"/>
		<path fill="#1D1D1B" d="M303.608,225.346c3.348,2.576,7.462,5.326,11.245,7.098c-1.387-2.729-4.727-5.549-7.386-7.098"/>
		<path fill="#1D1D1B" d="M294.102,221.487c0.33,1.729,2.229,3.833,4.129,3.503c-0.879-1.344-2.764-2.092-3.236-3.503"/>
		<path fill="#1D1D1B" d="M313.703,202.478c2.031,1.922,5.873,3.883,8.518,4.795c-1.363-2.079-3.06-4.905-5.844-5.091"/>
		<path fill="#1D1D1B" d="M183.92,255.936c-0.272,1.547-0.715,3.235,0.883,4.193c0.759-0.597,1.074-1.608,0.898-2.708"/>
		<path fill="#1D1D1B" d="M214.807,205.746c4.977,1.094,11.154,5.229,14.553,8.91"/>
	</g>
	<g>
		<g>
			<g>
				<polygon fill="#F4DEAB" points="288.578,176.975 284.387,172.908 279.324,169.95 274.051,167.689 268.121,166.13 
					262.699,172.248 258.256,174.469 252.469,180.677 246.573,181.339 243.151,186.566 247.984,189.821 254.112,190.001 
					260.075,190.548 267.391,191.744 273.85,194.902 280.906,196.774 289.867,194.625 291.156,187.967 291.018,181.763 				"/>
				<path fill="#EBC887" d="M291.018,181.763l-2.273-4.462c0.057,0.928,0.103,1.805,0.016,2.5c-0.375,3.003-1.703,5.711-1.531,8.776
					c-4.703-1.903-8.033-6.515-12.698-8.427c0.544,0.563,0.997,1.66,1.464,2.23c-2.701-0.907-7.602-0.833-10.293,0.415
					c0.111,0.109,1.438,4.091,1.453,4.241c-6.061-2.993-14.501-4.248-20.99-5.074l-3.014,4.603l4.833,3.255l6.128,0.18l5.964,0.547
					l7.315,1.196l6.459,3.158l7.057,1.872l8.961-2.149l1.289-6.658L291.018,181.763z"/>
			</g>
			<g>
				<polygon fill="#F4DEAB" points="218.571,169.719 209.403,172.14 202.468,163.775 192.272,165.343 183.875,161.012 
					175.506,156.082 166.791,156.635 158.395,157.142 150.831,154.719 150.897,165.495 146.252,172.802 153.102,177.422 
					158.24,186.932 167.455,192.038 177.122,193.94 184.959,201.188 176.057,201.722 183.345,209.927 191.436,214.584 
					200.774,215.266 207.629,220.293 214.324,225.759 222.084,228.88 231.067,229.396 236.344,236.27 243.438,240.862 
					253.78,240.258 260.295,232.234 262.491,225.223 268.041,220.654 273.198,212.727 275.574,202.7 268.035,192.464 
					257.753,188.751 251.073,182.278 247.287,173.425 239.142,168.451 233.106,160.435 222.416,162.931 				"/>
				<path fill="#EBC887" d="M272.508,211.531c-1.752,0.848-6.1,2.802-7.854,1.832c-0.349,3.506-15.11,0.727-18.177-0.259
					c-4.359-1.403-5.959-1.799-2.742,3.243c1.821,2.853,16.313,4.831,5.498,9.981c-3.683,0.317-8.657-6.182-9.352-9.185
					c-0.184,0.195-0.298,0.497-0.491,0.709c-1.496-0.677-3.138-2.29-4.961-2.522c-2.143-0.272-3.999,0.587-6.32,0.31
					c-5.179-0.619-13.661-3.344-17.671-6.708c0.768,0.162,1.713,0.188,2.443,0.398c-1.36-0.769-3.438-1.639-4.664-2.835
					c0.503-0.177,0.726-0.587,1.541-0.712c-1.059-2.949-9.165-4.636-8.596-8.652c1.19,0.363,2.523,0.824,3.834,0.974
					c-4.68-3.229-9.33-6.601-14.066-9.817c-5.077-3.446-10.58-8.019-15.846-10.862c-0.001,0.005,0.158,0.573,0.137,0.731
					c-2.76-0.59-4.125-3.375-6.654-4.45c-0.375,2.233,1.338,3.953,2.494,5.642c-4.58-1.232-9-5.856-12.736-8.899
					c-1.887-1.539-4.775-3.522-7.432-5.696l0.004,0.742l-4.645,7.308l6.85,4.619l5.139,9.511l9.215,5.105l9.667,1.902l7.837,7.248
					l-8.902,0.534l7.288,8.205l8.091,4.656l9.338,0.683l6.855,5.026l6.695,5.466l7.76,3.121l8.982,0.517l5.277,6.874l7.094,4.592
					l10.342-0.604l6.516-8.023l2.196-7.011l5.55-4.569l5.157-7.927l0.451-1.906C273.282,211.091,272.905,211.338,272.508,211.531z"
					/>
			</g>
			<g>
				<polygon fill="#F4DEAB" points="210.692,217.238 204.664,214.14 197.903,205.836 189.315,199.182 180.77,200.05 
					173.914,205.172 170.378,213.064 162.223,217.555 160.919,226.142 156.787,236.484 161.002,244.92 170.5,243.606 
					179.184,241.036 188.586,241.345 197.085,243.445 205.928,246.422 213.725,247.315 222.471,245.084 216.633,237.386 
					212.584,230.027 207.05,224.221 				"/>
				<path fill="#EBC887" d="M216.633,237.386l-1.359-2.471c-2.738,0.99-7.717-2.72-9.898-3.261c1.006,1.11,2.031,2.223,2.938,3.395
					c-2.057-0.245-4.319-0.832-6.551-1.14c0.828,0.308,1.646,0.638,2.441,1.03c-1.575-0.809-3.471-1.039-5.229-1.227
					c0.91-0.02,1.846,0.065,2.787,0.196c-9.135-3.383-20.111-1.886-29.553-1.094c-1.828-4.31,5.766-4.582,7.045-7.141
					c-2.508-1.795-6.285-1.29-8.515-3.3c4.975-3.766,11.255-2.031,16.229-3.163c-2.482-3.185-9.772-1.495-12.036-4.831
					c-3.599-5.307,2.226-10.594,6.832-14.433l-0.995,0.101l-6.855,5.122l-3.536,7.893l-8.155,4.491l-1.304,8.587l-4.132,10.342
					l4.215,8.436l9.498-1.313l8.684-2.57l9.402,0.31l8.499,2.1l8.843,2.977l7.797,0.894l8.746-2.231L216.633,237.386z"/>
			</g>
			<g>
				<polygon fill="#F4DEAB" points="238.739,237.669 232.639,241.501 224.225,239.989 214.455,240.774 207.096,244.273 
					210.281,252.045 201.461,260.33 203.011,268.785 212.24,271.992 218.543,278.28 227.304,282.722 236.688,284.884 
					247.065,288.207 256.783,285.048 263.205,277.16 272.834,275.774 284.414,274.578 292.102,264.371 292.374,252.582 
					285.77,242.817 278.41,238.676 272.114,232.642 263.725,231.815 256.473,234.723 247.144,233.296 				"/>
				<path fill="#EBC887" d="M285.77,242.817l-4.621-2.601c-0.093,1.598-0.147,3.317,0.517,5.353c0.804-0.205,1.68,0.235,2.265,0.163
					c-0.357,1.619-1.216,3.283-2.333,4.635c-1.407,1.7-5.009,2.654-6.019,4.188c-2.383,3.613,5.895,1.581,8.406,1.684
					c-3.545,3.889-3.842,6.817-8.703,8.507c-4.536,1.575-11.43,1.171-16.008,2.682c-3.406,1.123-6.738,3.513-10.313,3.954
					c5.327-2.263,10.085-5.251,14.929-8.344c-3.006,0.789-5.976,0.565-8.994,1.38c-3.946,1.062-3.563,1.954-7.609,2.569
					c0.139-0.201-3.266-0.131-3.156-0.234c-0.676-0.388-7.273,4.345-7.914,4.327c0.868,5.363-23.307-12.433-26.689-12.595
					c4.408-0.635,8.396-2.009,12.654-2.799c-5.13-2.547-9.711-7.615-14.199-11.834l-0.885,0.421l3.186,7.771l-8.82,8.285l1.55,8.455
					l9.229,3.207l6.303,6.288l8.761,4.442l9.384,2.161l10.377,3.323l9.719-3.159l6.422-7.888l9.629-1.386l11.58-1.196l7.688-10.207
					l0.272-11.789L285.77,242.817z"/>
			</g>
			<g>
				<polygon fill="#F4DEAB" points="276.037,214.466 273.723,223.357 275.428,232.167 279.22,240.473 286.832,245.213 
					295.714,247.801 304.249,243.432 313.459,241.955 321.289,236.717 316.584,226.887 309.278,216.059 300.709,214.566 
					292.621,212.395 284.043,210.274 				"/>
				<path fill="#EBC887" d="M309.419,228.289c6.095,3.858,0.422,3.443-2.136,5.536c0.074,0.093,0.27,0.264,0.41,0.375
					c0.031,0.007,0.061,0.016,0.094,0.022c0.135,0.142,0.047,0.088-0.094-0.022c-2.998-0.678-5.963-1.69-8.974-2.335
					c-2.689-0.575-5.636-2.888-7.995-3.022c-1.037,3.318,0.459,11.905-4.325,7.619c-3.337-2.988-5.377-10.945-7.673-14.964
					c-1.027-1.797-2.139-3.609-3.092-5.486l-1.912,7.346l1.705,8.81l3.792,8.307l7.612,4.739l8.882,2.588l8.535-4.368l9.21-1.478
					l7.83-5.238l-4.285-8.952C314.016,228.033,311.037,228.01,309.419,228.289z"/>
			</g>
			<g>
				<polyline fill="#F4DEAB" points="179.116,245.43 171.999,250.179 171.623,258.469 174.827,265.579 181.783,269.495 
					185.181,263.894 185.862,256.569 188.594,249.577 183.905,244.825 				"/>
				<path fill="#EBC887" d="M187.901,249.438c-0.762,2.061-2.98,2.02-4.359,0.906c-0.256,0.472-0.5,0.95-0.74,1.43
					c-0.033,1.192-0.049,2.387-0.049,3.587c-0.002,1.953-1.588,2.988-3.102,2.996c-1.244,1.87-4.967,1.468-5.425-1.457
					c-0.099-0.632-0.198-1.253-0.288-1.869c-0.678-1.644-1.273-3.285-1.752-4.977l-0.187,0.125l-0.376,8.29l3.204,7.109l6.956,3.916
					l3.397-5.601l0.681-7.325l2.732-6.992l-0.549-0.556C187.996,249.16,187.951,249.301,187.901,249.438z"/>
			</g>
			<g>
				<polyline fill="#F4DEAB" points="128.055,196.15 122.607,201.149 128.055,206.504 132.953,209.499 139.594,209.808 
					138.592,198.327 136.869,194.232 130.887,193.67 				"/>
				<path fill="#EBC887" d="M139.033,203.398c-1.412,0.256-2.828,0.222-4.244-0.14c-0.194-0.08-0.388-0.159-0.582-0.24
					c-1.006,0.773-2.396,0.949-3.475-0.143c-0.852-0.864-1.645-1.765-2.354-2.719c-0.629-0.325-1.254-0.654-1.864-1.013
					c-0.348-0.204-0.678-0.431-0.991-0.671l-2.917,2.676l5.448,5.354l4.898,2.995l6.641,0.31L139.033,203.398z"/>
			</g>
			<g>
				<polyline fill="#F4DEAB" points="306.898,191.935 297.498,196.066 304.186,201.986 311.266,207.633 320.091,209.052 
					320.26,200.467 317.366,192.711 310.518,191.668 				"/>
				<path fill="#EBC887" d="M320.219,201.309c-0.332,0.434-0.65,0.883-0.959,1.346c-0.262,0.398-0.523,0.798-0.789,1.197
					c-1.668,2.511-5.779,0.109-5.124-2.449c-0.31,0.043-0.649,0.021-1.011-0.061c-0.172,0.026-0.353,0.037-0.543,0.027
					c-3.594-0.167-6.779-0.965-9.986-2.609c-0.939-0.482-1.425-1.273-1.55-2.109c-0.624-0.31-1.239-0.641-1.85-0.985l-0.909,0.4
					l6.688,5.92l7.08,5.646l8.825,1.419l0.152-7.765C320.235,201.294,320.227,201.301,320.219,201.309z"/>
			</g>
			<g>
				<polyline fill="#F4DEAB" points="303.586,251.578 299.84,262.743 311.27,262.36 314.42,256.455 306.84,253.481 				"/>
				<path fill="#EBC887" d="M310.723,259.159c-1.236,1.423-2.941,1.194-4.037,0.248c-0.55,0.111-1.153,0.039-1.764-0.295
					c-0.548-0.299-1.117-0.544-1.688-0.782c-0.342-0.038-0.688-0.159-1.029-0.382c-0.064-0.042-0.124-0.089-0.189-0.131
					c-0.152-0.065-0.299-0.146-0.451-0.213l-1.725,5.139l11.43-0.383l3.15-5.905l-0.971-0.381
					C312.563,257.107,311.633,258.11,310.723,259.159z"/>
			</g>
			<g opacity="0.5">
				<path fill="#FFFFFF" d="M188.621,173.814c6.777,4.839,12.785,11.107,19.852,15.398c-2.879-5.671-6.704-12.098-10.646-17.18
					c-1.653-2.131-1.509-1.618-4.158-0.817c-1.751,0.529-4.166,0.508-4.455,2.599"/>
				<path fill="#FFFFFF" d="M223.242,175.596c7.408,6.939,17.874,11.443,26.638,16.377c-4.586-3.947-9.763-7.181-14.252-11.351
					c-2.013-1.871-6.474-4.667-7.634-6.511"/>
				<path fill="#FFFFFF" d="M219.381,191.634c8.121,4.977,16.329,12.255,25.436,15.175c-3.094-3.877-9.457-5.897-13.197-9.465
					c-2.496-2.38-7.996-6.269-9.27-8.085"/>
				<path fill="#FFFFFF" d="M246.406,198.465c6.188,2.341,11.932,5.707,17.773,8.566c-3.463-4.632-10.508-7.095-14.803-10.942"/>
				<path fill="#FFFFFF" d="M164.438,159.855c4.346,3.578,9.457,6.4,13.617,10.052c-2.164-3.396-7.427-7.876-10.943-9.457"/>
				<path fill="#FFFFFF" d="M180.773,218.956c3.507,4.138,9.651,6.034,13.987,9.096c-1.543-3.345-6.988-5.609-9.829-7.907"/>
				<path fill="#FFFFFF" d="M181.961,210.64c4.977,1.738,11.84,0.715,15.711,4.944c-2.097-3.863-7.139-5.096-10.96-6.132"/>
				<path fill="#FFFFFF" d="M221.459,256.97c3.302,1.813,8.57-0.347,11.881-1.179c3.819-0.961,8.176-0.684,11.789-1.797
					c-2.066,0.029-4.037-0.397-6.148-0.289c-3.551,0.181-7.019,2.416-10.393,2.375"/>
				<path fill="#FFFFFF" d="M246.703,246.874c4.896,0.324,9.146-4.137,13.661-5.345c3.267-0.874,6.742-1.403,9.993-2.081
					c-6.693-2.561-14.383-0.351-19.792,3.862"/>
				<path fill="#FFFFFF" d="M251.158,260.237c4.684-1.679,9.554-2.48,14.344-3.859c2.591-0.746,8.237-1.645,9.979-3.786
					c-6.096-2.074-11.322-0.667-16.303,3.191"/>
				<path fill="#FFFFFF" d="M228.588,266.475c3.092,1.048,7.135-0.15,9.547-2.088c-2.047-1.615-6.396-0.534-8.656,0.602"/>
				<path fill="#FFFFFF" d="M264.226,175.3c3.079,2.104,7.187,2.316,10.632,3.565c2.336,0.846,4.579,2.601,6.795,3.227
					c-2.918-3.618-10.233-6.537-14.456-7.979"/>
				<path fill="#FFFFFF" d="M274.619,172.033c2.738,1.103,5.328,2.553,8.063,3.616c-0.443-2.137-5.305-4.313-7.467-3.32"/>
				<path fill="#FFFFFF" d="M284.719,224.006c3.116,2.468,7.85,3.709,11.795,3.578c-3.355-1.88-6.277-4.968-9.717-6.549"/>
				<path fill="#FFFFFF" d="M297.787,218.362c3.348,2.576,7.462,5.326,11.245,7.098c-1.387-2.729-4.727-5.549-7.386-7.098"/>
				<path fill="#FFFFFF" d="M288.281,214.503c0.33,1.729,2.229,3.833,4.129,3.503c-0.879-1.344-2.764-2.092-3.236-3.503"/>
				<path fill="#FFFFFF" d="M307.883,195.494c2.031,1.922,5.873,3.883,8.518,4.795c-1.363-2.079-3.06-4.905-5.844-5.091"/>
				<path fill="#FFFFFF" d="M178.1,248.952c-0.272,1.547-0.715,3.235,0.883,4.193c0.759-0.597,1.074-1.608,0.898-2.708"/>
				<path fill="#FFFFFF" d="M208.987,198.761c4.977,1.094,11.154,5.229,14.553,8.91"/>
			</g>
		</g>
	</g>
</g>
</svg>
