<?xml version="1.0" encoding="utf-8"?>
<!-- Generator: Adobe Illustrator 16.0.0, SVG Export Plug-In . SVG Version: 6.00 Build 0)  -->
<!DOCTYPE svg PUBLIC "-//W3C//DTD SVG 1.1//EN" "http://www.w3.org/Graphics/SVG/1.1/DTD/svg11.dtd">
<svg version="1.1" id="Ebene_1" xmlns="http://www.w3.org/2000/svg" xmlns:xlink="http://www.w3.org/1999/xlink" x="0px" y="0px"
	 width="450px" height="450px" viewBox="0 0 450 450" enable-background="new 0 0 450 450" xml:space="preserve">
<g>
	<g>
		<g opacity="0.3">
			<polygon points="279.645,192.642 276.342,189.437 272.353,187.106 268.198,185.324 263.526,184.096 259.253,188.917 
				255.752,190.668 251.193,195.558 246.545,196.08 243.85,200.199 247.658,202.764 252.487,202.906 257.186,203.337 262.95,204.28 
				268.039,206.768 273.6,208.243 280.66,206.549 281.676,201.302 281.567,196.415 			"/>
			<path d="M281.567,196.415l-1.791-3.516c0.043,0.731,0.081,1.422,0.012,1.97c-0.295,2.366-1.341,4.5-1.205,6.916
				c-3.707-1.5-6.33-5.133-10.006-6.64c0.428,0.443,0.785,1.308,1.152,1.758c-2.128-0.715-5.99-0.657-8.11,0.327
				c0.089,0.086,1.134,3.224,1.146,3.342c-4.775-2.358-11.426-3.347-16.54-3.999l-2.374,3.627l3.809,2.564l4.828,0.142l4.699,0.431
				l5.765,0.943l5.089,2.488l5.561,1.475l7.061-1.694l1.016-5.247L281.567,196.415z"/>
			<polygon points="224.481,186.924 217.256,188.832 211.793,182.241 203.758,183.475 197.143,180.064 190.547,176.178 
				183.682,176.615 177.065,177.014 171.106,175.104 171.156,183.596 167.496,189.354 172.894,192.994 176.944,200.488 
				184.203,204.511 191.823,206.01 197.996,211.721 190.983,212.142 196.725,218.607 203.1,222.276 210.458,222.814 215.86,226.775 
				221.135,231.082 227.25,233.542 234.327,233.948 238.487,239.365 244.075,242.983 252.225,242.507 257.358,236.184 
				259.09,230.66 263.463,227.059 267.528,220.813 269.399,212.912 263.459,204.846 255.356,201.921 250.092,196.821 
				247.112,189.844 240.692,185.925 235.934,179.609 227.512,181.576 			"/>
			<path d="M266.982,219.871c-1.38,0.668-4.806,2.208-6.188,1.443c-0.275,2.763-11.906,0.573-14.322-0.204
				c-3.436-1.105-4.695-1.417-2.162,2.556c1.436,2.248,12.856,3.807,4.334,7.865c-2.901,0.25-6.821-4.871-7.37-7.237
				c-0.145,0.154-0.233,0.392-0.386,0.559c-1.179-0.533-2.473-1.804-3.909-1.988c-1.688-0.214-3.152,0.463-4.98,0.244
				c-4.081-0.488-10.765-2.634-13.923-5.286c0.604,0.128,1.348,0.149,1.924,0.314c-1.071-0.605-2.709-1.291-3.676-2.234
				c0.398-0.139,0.572-0.462,1.215-0.561c-0.834-2.324-7.221-3.652-6.773-6.817c0.938,0.286,1.988,0.649,3.021,0.767
				c-3.688-2.545-7.352-5.201-11.084-7.736c-4-2.716-8.335-6.318-12.486-8.559c0,0.004,0.125,0.452,0.109,0.577
				c-2.176-0.465-3.252-2.66-5.244-3.507c-0.297,1.76,1.054,3.116,1.964,4.446c-3.608-0.971-7.091-4.615-10.035-7.013
				c-1.487-1.212-3.763-2.775-5.856-4.488l0.004,0.585l-3.66,5.758l5.397,3.64l4.05,7.494l7.26,4.023l7.619,1.499l6.174,5.711
				l-7.014,0.421l5.742,6.465l6.375,3.669l7.358,0.538l5.401,3.961l5.275,4.307l6.115,2.46l7.077,0.406l4.159,5.417l5.589,3.618
				l8.149-0.477l5.133-6.322l1.732-5.524l4.373-3.601l4.064-6.246l0.354-1.502C267.593,219.524,267.294,219.718,266.982,219.871z"/>
			<polygon points="218.274,224.367 213.524,221.927 208.197,215.383 201.428,210.141 194.696,210.823 189.293,214.86 
				186.508,221.079 180.08,224.618 179.053,231.385 175.797,239.534 179.119,246.18 186.604,245.145 193.446,243.121 
				200.854,243.364 207.551,245.018 214.52,247.364 220.662,248.068 227.553,246.31 222.955,240.245 219.764,234.445 
				215.405,229.871 			"/>
			<path d="M222.955,240.245l-1.072-1.947c-2.158,0.78-6.08-2.143-7.799-2.569c0.792,0.875,1.6,1.752,2.314,2.675
				c-1.621-0.192-3.403-0.656-5.162-0.898c0.652,0.242,1.297,0.503,1.924,0.813c-1.24-0.638-2.734-0.819-4.12-0.967
				c0.718-0.015,1.454,0.052,2.196,0.154c-7.199-2.665-15.848-1.485-23.287-0.861c-1.439-3.396,4.543-3.61,5.553-5.627
				c-1.978-1.414-4.953-1.017-6.709-2.601c3.918-2.967,8.867-1.6,12.787-2.492c-1.955-2.51-7.7-1.178-9.484-3.807
				c-2.836-4.182,1.754-8.348,5.385-11.373l-0.785,0.079l-5.402,4.036l-2.785,6.219l-6.428,3.539l-1.027,6.767l-3.256,8.149
				l3.322,6.646l7.484-1.035l6.842-2.024l7.408,0.243l6.697,1.654l6.969,2.346l6.143,0.704l6.891-1.758L222.955,240.245z"/>
			<polygon points="240.373,240.468 235.567,243.486 228.937,242.296 221.239,242.914 215.44,245.671 217.949,251.795 
				210.999,258.323 212.221,264.985 219.493,267.512 224.46,272.467 231.364,275.968 238.757,277.671 246.934,280.289 
				254.592,277.8 259.653,271.585 267.239,270.492 276.364,269.551 282.422,261.508 282.637,252.218 277.432,244.523 
				271.633,241.26 266.672,236.507 260.061,235.854 254.347,238.146 246.996,237.02 			"/>
			<path d="M277.432,244.523l-3.642-2.049c-0.073,1.259-0.114,2.614,0.407,4.218c0.635-0.161,1.324,0.185,1.784,0.128
				c-0.281,1.276-0.957,2.588-1.838,3.652c-1.108,1.34-3.946,2.092-4.743,3.301c-1.877,2.847,4.645,1.245,6.625,1.326
				c-2.794,3.064-3.027,5.372-6.858,6.703c-3.573,1.241-9.007,0.923-12.614,2.113c-2.684,0.885-5.309,2.768-8.125,3.116
				c4.197-1.783,7.945-4.139,11.762-6.575c-2.367,0.622-4.707,0.445-7.086,1.088c-3.109,0.836-2.808,1.539-5.996,2.023
				c0.109-0.157-2.574-0.103-2.488-0.185c-0.531-0.306-5.73,3.424-6.235,3.41c0.685,4.226-18.364-9.797-21.03-9.925
				c3.475-0.499,6.615-1.582,9.971-2.205c-4.041-2.006-7.649-6-11.188-9.324l-0.697,0.331l2.51,6.124l-6.95,6.528l1.222,6.662
				l7.272,2.527l4.967,4.954l6.903,3.501l7.394,1.703l8.177,2.618l7.658-2.489l5.061-6.215l7.586-1.093l9.125-0.941l6.059-8.043
				l0.215-9.29L277.432,244.523z"/>
			<polygon points="269.763,222.183 267.94,229.189 269.283,236.132 272.272,242.677 278.27,246.411 285.268,248.45 
				291.993,245.008 299.25,243.844 305.42,239.717 301.713,231.971 295.955,223.439 289.203,222.262 282.83,220.552 276.071,218.88 
							"/>
			<path d="M296.067,233.076c4.803,3.04,0.333,2.713-1.683,4.362c0.059,0.073,0.212,0.208,0.323,0.295
				c0.023,0.006,0.049,0.013,0.074,0.018c0.105,0.112,0.037,0.069-0.074-0.018c-2.363-0.533-4.699-1.331-7.07-1.839
				c-2.119-0.454-4.441-2.275-6.301-2.383c-0.816,2.615,0.361,9.382-3.408,6.005c-2.629-2.355-4.236-8.626-6.045-11.792
				c-0.811-1.416-1.686-2.844-2.437-4.323l-1.507,5.788l1.344,6.942l2.988,6.545l5.998,3.734l6.998,2.039l6.726-3.442l7.257-1.163
				l6.17-4.128l-3.377-7.054C299.688,232.875,297.342,232.855,296.067,233.076z"/>
			<polyline points="193.394,246.583 187.785,250.325 187.489,256.857 190.014,262.46 195.494,265.545 198.172,261.132 
				198.707,255.36 200.861,249.85 197.165,246.106 			"/>
			<path d="M200.315,249.741c-0.602,1.623-2.35,1.592-3.436,0.714c-0.202,0.372-0.395,0.749-0.584,1.126
				c-0.025,0.94-0.037,1.882-0.037,2.827c-0.002,1.538-1.252,2.354-2.445,2.36c-0.979,1.474-3.913,1.156-4.273-1.147
				c-0.078-0.498-0.156-0.987-0.227-1.473c-0.535-1.296-1.004-2.589-1.379-3.922l-0.148,0.099l-0.297,6.532l2.525,5.603l5.48,3.085
				l2.678-4.413l0.535-5.771l2.153-5.51l-0.433-0.438C200.389,249.522,200.356,249.633,200.315,249.741z"/>
			<polyline points="153.158,207.751 148.865,211.691 153.158,215.909 157.018,218.27 162.25,218.513 161.461,209.467 
				160.104,206.24 155.39,205.797 			"/>
			<path d="M161.808,213.463c-1.112,0.201-2.228,0.174-3.344-0.11c-0.151-0.063-0.306-0.125-0.458-0.189
				c-0.793,0.609-1.889,0.748-2.738-0.112c-0.67-0.681-1.297-1.391-1.854-2.143c-0.495-0.256-0.987-0.516-1.468-0.798
				c-0.273-0.161-0.535-0.339-0.781-0.529l-2.299,2.109l4.293,4.219l3.859,2.36l5.232,0.244L161.808,213.463z"/>
			<polyline points="294.08,204.43 286.673,207.685 291.944,212.35 297.522,216.799 304.477,217.917 304.609,211.152 
				302.33,205.041 296.932,204.219 			"/>
			<path d="M304.576,211.816c-0.262,0.342-0.512,0.696-0.756,1.061c-0.205,0.314-0.412,0.629-0.621,0.943
				c-1.314,1.979-4.555,0.086-4.037-1.93c-0.244,0.034-0.512,0.017-0.797-0.048c-0.136,0.021-0.277,0.029-0.428,0.021
				c-2.832-0.131-5.342-0.76-7.869-2.056c-0.738-0.38-1.121-1.003-1.221-1.662c-0.492-0.244-0.977-0.505-1.457-0.776l-0.718,0.315
				l5.271,4.665l5.578,4.449l6.955,1.118l0.12-6.118C304.59,211.804,304.582,211.81,304.576,211.816z"/>
			<polyline points="291.469,251.427 288.518,260.224 297.524,259.923 300.008,255.27 294.033,252.927 			"/>
			<path d="M297.094,257.401c-0.975,1.12-2.317,0.94-3.182,0.194c-0.432,0.088-0.908,0.031-1.389-0.231
				c-0.432-0.236-0.881-0.429-1.33-0.616c-0.27-0.031-0.543-0.126-0.811-0.302c-0.052-0.033-0.098-0.07-0.15-0.104
				c-0.119-0.051-0.234-0.114-0.355-0.167l-1.359,4.049l9.006-0.302l2.484-4.652l-0.766-0.301
				C298.543,255.783,297.811,256.574,297.094,257.401z"/>
			<path d="M200.882,190.151c5.341,3.813,10.074,8.752,15.643,12.133c-2.269-4.468-5.282-9.532-8.388-13.537
				c-1.304-1.679-1.189-1.275-3.276-0.644c-1.381,0.417-3.282,0.4-3.511,2.047"/>
			<path d="M228.162,191.555c5.838,5.468,14.085,9.017,20.99,12.904c-3.613-3.11-7.693-5.658-11.23-8.943
				c-1.586-1.475-5.101-3.678-6.016-5.13"/>
			<path d="M225.119,204.192c6.398,3.921,12.867,9.656,20.043,11.958c-2.438-3.055-7.452-4.647-10.399-7.458
				c-1.967-1.875-6.3-4.939-7.303-6.371"/>
			<path d="M246.414,209.575c4.877,1.845,9.402,4.497,14.006,6.75c-2.729-3.65-8.28-5.59-11.664-8.622"/>
			<path d="M181.826,179.152c3.425,2.819,7.451,5.043,10.729,7.92c-1.704-2.676-5.851-6.206-8.622-7.452"/>
			<path d="M194.698,225.72c2.762,3.262,7.604,4.756,11.021,7.168c-1.215-2.636-5.506-4.42-7.744-6.23"/>
			<path d="M195.634,219.169c3.922,1.37,9.329,0.563,12.38,3.896c-1.652-3.044-5.625-4.016-8.635-4.832"/>
			<path d="M226.758,255.676c2.602,1.429,6.752-0.272,9.361-0.928c3.01-0.758,6.441-0.539,9.289-1.416
				c-1.628,0.022-3.181-0.314-4.845-0.229c-2.798,0.143-5.53,1.904-8.189,1.872"/>
			<path d="M246.649,247.719c3.859,0.256,7.207-3.259,10.766-4.211c2.572-0.688,5.313-1.105,7.873-1.64
				c-5.274-2.018-11.333-0.276-15.595,3.044"/>
			<path d="M250.159,258.25c3.69-1.322,7.528-1.954,11.302-3.041c2.043-0.588,6.492-1.296,7.863-2.983
				c-4.803-1.635-8.922-0.525-12.846,2.515"/>
			<path d="M232.374,263.166c2.437,0.826,5.622-0.119,7.522-1.646c-1.613-1.272-5.038-0.421-6.82,0.474"/>
			<path d="M260.457,191.322c2.424,1.657,5.661,1.825,8.377,2.81c1.84,0.667,3.607,2.049,5.354,2.542
				c-2.298-2.851-8.063-5.151-11.391-6.288"/>
			<path d="M268.647,188.748c2.156,0.869,4.197,2.011,6.352,2.849c-0.35-1.684-4.18-3.398-5.883-2.616"/>
			<path d="M276.604,229.701c2.456,1.944,6.186,2.923,9.295,2.819c-2.646-1.481-4.947-3.915-7.657-5.161"/>
			<path d="M286.902,225.253c2.638,2.03,5.881,4.198,8.861,5.592c-1.093-2.15-3.726-4.371-5.82-5.592"/>
			<path d="M279.411,222.212c0.261,1.362,1.756,3.021,3.253,2.76c-0.693-1.059-2.178-1.648-2.551-2.76"/>
			<path d="M294.856,207.234c1.602,1.515,4.629,3.06,6.711,3.778c-1.072-1.638-2.409-3.865-4.604-4.011"/>
			<path d="M192.592,249.357c-0.215,1.219-0.563,2.55,0.695,3.304c0.598-0.469,0.846-1.267,0.708-2.133"/>
			<path d="M216.93,209.809c3.92,0.862,8.789,4.121,11.467,7.021"/>
		</g>
		<g>
			<g>
				<g>
					<polygon fill="#F3DDAA" points="275.067,187.147 271.764,183.942 267.774,181.612 263.619,179.83 258.948,178.601 
						254.674,183.422 251.174,185.173 246.614,190.064 241.967,190.586 239.272,194.704 243.078,197.27 247.907,197.411 
						252.607,197.842 258.371,198.784 263.461,201.273 269.022,202.748 276.082,201.054 277.098,195.808 276.989,190.92 					"/>
					<path fill="#EAC786" d="M276.989,190.92l-1.791-3.516c0.045,0.731,0.08,1.422,0.012,1.97c-0.295,2.366-1.342,4.5-1.206,6.916
						c-3.706-1.5-6.33-5.134-10.006-6.641c0.429,0.444,0.785,1.309,1.153,1.758c-2.128-0.715-5.99-0.656-8.111,0.327
						c0.089,0.086,1.134,3.223,1.146,3.342c-4.775-2.359-11.427-3.348-16.54-3.999l-2.373,3.626l3.807,2.565l4.829,0.141
						l4.699,0.431l5.765,0.943l5.09,2.489l5.561,1.475l7.061-1.694l1.016-5.247L276.989,190.92z"/>
				</g>
				<g>
					<polygon fill="#F3DDAA" points="219.903,181.429 212.678,183.338 207.213,176.746 199.18,177.981 192.565,174.57 
						185.969,170.684 179.102,171.12 172.486,171.519 166.526,169.61 166.578,178.101 162.918,183.859 168.315,187.499 
						172.364,194.993 179.625,199.016 187.242,200.515 193.418,206.226 186.403,206.647 192.146,213.113 198.522,216.781 
						205.879,217.319 211.281,221.28 216.557,225.588 222.67,228.047 229.748,228.453 233.906,233.87 239.498,237.488 
						247.646,237.011 252.78,230.689 254.511,225.165 258.883,221.565 262.948,215.319 264.819,207.417 258.879,199.352 
						250.777,196.426 245.513,191.325 242.531,184.349 236.112,180.43 231.356,174.114 222.932,176.081 					"/>
					<path fill="#EAC786" d="M262.403,214.376c-1.38,0.668-4.805,2.208-6.188,1.443c-0.275,2.763-11.906,0.573-14.323-0.204
						c-3.436-1.106-4.696-1.417-2.161,2.555c1.436,2.248,12.854,3.807,4.332,7.866c-2.901,0.25-6.821-4.872-7.367-7.238
						c-0.146,0.154-0.236,0.392-0.389,0.559c-1.178-0.533-2.473-1.804-3.908-1.987c-1.688-0.215-3.15,0.462-4.98,0.244
						c-4.081-0.488-10.765-2.635-13.924-5.286c0.604,0.128,1.35,0.148,1.925,0.314c-1.071-0.606-2.708-1.292-3.675-2.234
						c0.396-0.139,0.572-0.462,1.214-0.561c-0.833-2.324-7.222-3.653-6.772-6.817c0.938,0.286,1.988,0.649,3.021,0.767
						c-3.687-2.545-7.353-5.201-11.083-7.736c-4.001-2.715-8.338-6.318-12.486-8.559c-0.002,0.004,0.125,0.452,0.107,0.576
						c-2.174-0.465-3.25-2.659-5.244-3.506c-0.295,1.76,1.055,3.115,1.967,4.445c-3.609-0.971-7.092-4.615-10.036-7.013
						c-1.487-1.212-3.763-2.775-5.856-4.488l0.004,0.584l-3.66,5.758l5.396,3.64l4.049,7.494l7.262,4.023l7.617,1.499l6.176,5.711
						l-7.016,0.421l5.743,6.465l6.376,3.669l7.357,0.538l5.402,3.961l5.275,4.308l6.113,2.459l7.078,0.406l4.158,5.417l5.592,3.618
						l8.147-0.477l5.134-6.322l1.731-5.524l4.372-3.6l4.064-6.246l0.355-1.502C263.014,214.029,262.715,214.224,262.403,214.376z"/>
				</g>
				<g>
					<polygon fill="#F3DDAA" points="213.694,218.873 208.945,216.432 203.617,209.888 196.85,204.646 190.117,205.329 
						184.715,209.365 181.928,215.584 175.502,219.123 174.475,225.889 171.22,234.038 174.54,240.685 182.025,239.65 
						188.867,237.625 196.276,237.869 202.973,239.523 209.94,241.869 216.084,242.573 222.977,240.814 218.376,234.75 
						215.186,228.951 210.824,224.376 					"/>
					<path fill="#EAC786" d="M218.376,234.75l-1.071-1.947c-2.158,0.78-6.08-2.143-7.801-2.569c0.793,0.875,1.602,1.751,2.314,2.675
						c-1.619-0.193-3.402-0.655-5.16-0.898c0.652,0.243,1.297,0.503,1.924,0.813c-1.242-0.637-2.735-0.819-4.121-0.967
						c0.717-0.016,1.455,0.052,2.197,0.154c-7.198-2.665-15.848-1.485-23.287-0.861c-1.44-3.396,4.543-3.61,5.551-5.627
						c-1.977-1.414-4.953-1.016-6.709-2.6c3.92-2.967,8.868-1.6,12.788-2.492c-1.956-2.509-7.7-1.178-9.483-3.807
						c-2.836-4.182,1.752-8.347,5.383-11.372l-0.783,0.079l-5.402,4.037l-2.787,6.219l-6.426,3.539l-1.027,6.766l-3.255,8.148
						l3.32,6.647l7.484-1.035l6.843-2.025l7.408,0.244l6.697,1.654l6.967,2.346l6.145,0.704l6.893-1.759L218.376,234.75z"/>
				</g>
				<g>
					<polygon fill="#F3DDAA" points="235.795,234.971 230.987,237.991 224.358,236.8 216.66,237.419 210.862,240.176 213.371,246.3 
						206.422,252.828 207.643,259.491 214.914,262.017 219.881,266.972 226.783,270.472 234.178,272.176 242.354,274.795 
						250.013,272.304 255.073,266.09 262.66,264.998 271.785,264.054 277.843,256.012 278.057,246.723 272.854,239.029 
						267.053,235.765 262.093,231.011 255.483,230.359 249.769,232.65 242.417,231.525 					"/>
					<path fill="#EAC786" d="M272.854,239.029l-3.641-2.049c-0.074,1.258-0.117,2.613,0.406,4.217
						c0.633-0.162,1.323,0.186,1.783,0.129c-0.281,1.275-0.957,2.587-1.838,3.651c-1.108,1.34-3.946,2.092-4.742,3.301
						c-1.878,2.848,4.645,1.246,6.624,1.326c-2.792,3.064-3.027,5.372-6.857,6.703c-3.575,1.242-9.007,0.923-12.613,2.113
						c-2.685,0.886-5.31,2.769-8.128,3.116c4.199-1.783,7.947-4.138,11.764-6.575c-2.368,0.622-4.709,0.445-7.086,1.088
						c-3.11,0.836-2.809,1.539-5.997,2.024c0.108-0.159-2.573-0.104-2.487-0.186c-0.531-0.305-5.73,3.424-6.235,3.41
						c0.685,4.226-18.365-9.796-21.03-9.925c3.473-0.5,6.615-1.582,9.971-2.204c-4.043-2.008-7.652-6.001-11.188-9.325l-0.696,0.331
						l2.51,6.124l-6.949,6.528l1.221,6.663l7.271,2.526l4.967,4.955l6.902,3.5l7.395,1.703l8.176,2.619l7.659-2.49l5.061-6.215
						l7.587-1.092l9.125-0.943l6.058-8.042l0.214-9.289L272.854,239.029z"/>
				</g>
				<g>
					<polygon fill="#F3DDAA" points="265.185,216.689 263.361,223.695 264.703,230.636 267.693,237.182 273.69,240.917 
						280.69,242.955 287.414,239.513 294.672,238.349 300.841,234.221 297.133,226.476 291.376,217.944 284.625,216.768 
						278.252,215.057 271.492,213.386 					"/>
					<path fill="#EAC786" d="M291.489,227.581c4.802,3.04,0.332,2.713-1.684,4.362c0.059,0.073,0.213,0.207,0.323,0.295
						c0.024,0.006,0.048,0.013,0.074,0.018c0.106,0.112,0.037,0.07-0.074-0.018c-2.362-0.533-4.698-1.332-7.071-1.84
						c-2.119-0.453-4.439-2.275-6.3-2.381c-0.816,2.614,0.362,9.381-3.407,6.003c-2.631-2.354-4.237-8.624-6.047-11.791
						c-0.809-1.416-1.685-2.844-2.436-4.322l-1.507,5.788l1.343,6.942l2.989,6.546l5.997,3.734l7,2.038l6.725-3.441l7.258-1.164
						l6.169-4.128l-3.376-7.054C295.11,227.379,292.764,227.361,291.489,227.581z"/>
				</g>
				<g>
					<polyline fill="#F3DDAA" points="188.815,241.088 183.206,244.83 182.908,251.362 185.434,256.964 190.916,260.051 
						193.592,255.636 194.129,249.864 196.281,244.354 192.586,240.611 					"/>
					<path fill="#EAC786" d="M195.737,244.246c-0.602,1.623-2.35,1.591-3.436,0.714c-0.201,0.372-0.395,0.749-0.584,1.127
						c-0.025,0.939-0.038,1.881-0.038,2.826c-0.002,1.539-1.251,2.354-2.444,2.361c-0.98,1.474-3.914,1.156-4.274-1.149
						c-0.078-0.497-0.156-0.986-0.227-1.473c-0.534-1.294-1.004-2.588-1.381-3.921l-0.146,0.099l-0.298,6.532l2.525,5.602
						l5.482,3.087l2.676-4.414l0.537-5.772l2.152-5.51l-0.432-0.437C195.811,244.026,195.776,244.137,195.737,244.246z"/>
				</g>
				<g>
					<polyline fill="#F3DDAA" points="148.579,202.257 144.286,206.196 148.579,210.415 152.438,212.775 157.672,213.019 
						156.882,203.972 155.526,200.745 150.811,200.302 					"/>
					<path fill="#EAC786" d="M157.231,207.968c-1.113,0.202-2.229,0.175-3.346-0.11c-0.152-0.063-0.305-0.125-0.458-0.189
						c-0.792,0.609-1.888,0.748-2.737-0.112c-0.672-0.682-1.297-1.391-1.855-2.143c-0.496-0.256-0.987-0.516-1.468-0.798
						c-0.274-0.161-0.534-0.339-0.782-0.529l-2.298,2.108l4.293,4.219l3.858,2.36l5.234,0.244L157.231,207.968z"/>
				</g>
				<g>
					<polyline fill="#F3DDAA" points="289.5,198.935 282.096,202.19 287.365,206.855 292.944,211.304 299.897,212.422 
						300.03,205.658 297.75,199.547 292.354,198.725 					"/>
					<path fill="#EAC786" d="M299.998,206.322c-0.262,0.341-0.514,0.695-0.756,1.06c-0.207,0.314-0.412,0.629-0.623,0.943
						c-1.313,1.979-4.553,0.086-4.037-1.93c-0.242,0.034-0.512,0.017-0.796-0.048c-0.136,0.021-0.277,0.029-0.428,0.022
						c-2.831-0.132-5.342-0.761-7.868-2.057c-0.741-0.38-1.123-1.003-1.222-1.662c-0.492-0.244-0.977-0.505-1.457-0.776
						l-0.716,0.315l5.269,4.665l5.579,4.449l6.953,1.118l0.12-6.118C300.01,206.309,300.004,206.315,299.998,206.322z"/>
				</g>
				<g>
					<polyline fill="#F3DDAA" points="286.893,245.931 283.94,254.729 292.947,254.427 295.429,249.774 289.456,247.431 					"/>
					<path fill="#EAC786" d="M292.515,251.905c-0.974,1.122-2.317,0.942-3.181,0.196c-0.434,0.088-0.908,0.03-1.39-0.232
						c-0.432-0.235-0.881-0.429-1.33-0.617c-0.269-0.029-0.542-0.125-0.812-0.301c-0.049-0.032-0.097-0.069-0.148-0.103
						c-0.12-0.052-0.235-0.114-0.355-0.168l-1.359,4.049l9.007-0.302l2.482-4.653l-0.765-0.3
						C293.965,250.289,293.233,251.079,292.515,251.905z"/>
				</g>
				<g opacity="0.5">
					<path fill="#FFFFFF" d="M196.304,184.656c5.34,3.813,10.073,8.752,15.642,12.134c-2.268-4.469-5.282-9.533-8.389-13.538
						c-1.303-1.679-1.188-1.275-3.275-0.644c-1.38,0.417-3.283,0.401-3.512,2.048"/>
					<path fill="#FFFFFF" d="M223.584,186.061c5.838,5.468,14.084,9.017,20.99,12.904c-3.614-3.11-7.693-5.658-11.231-8.944
						c-1.585-1.474-5.101-3.677-6.015-5.13"/>
					<path fill="#FFFFFF" d="M220.541,198.698c6.399,3.921,12.867,9.656,20.042,11.957c-2.437-3.055-7.452-4.647-10.399-7.458
						c-1.967-1.875-6.301-4.939-7.303-6.371"/>
					<path fill="#FFFFFF" d="M241.836,204.08c4.876,1.844,9.402,4.497,14.006,6.75c-2.729-3.649-8.281-5.59-11.666-8.623"/>
					<path fill="#FFFFFF" d="M177.248,173.657c3.424,2.82,7.451,5.043,10.729,7.921c-1.706-2.676-5.853-6.206-8.624-7.452"/>
					<path fill="#FFFFFF" d="M190.119,220.227c2.764,3.26,7.604,4.755,11.021,7.167c-1.216-2.636-5.507-4.42-7.745-6.231"/>
					<path fill="#FFFFFF" d="M191.055,213.675c3.922,1.37,9.33,0.563,12.379,3.896c-1.65-3.044-5.623-4.015-8.635-4.832"/>
					<path fill="#FFFFFF" d="M222.179,250.18c2.601,1.43,6.753-0.272,9.362-0.929c3.008-0.757,6.441-0.538,9.289-1.415
						c-1.629,0.023-3.182-0.313-4.846-0.229c-2.797,0.144-5.529,1.904-8.188,1.872"/>
					<path fill="#FFFFFF" d="M242.071,242.225c3.857,0.256,7.207-3.26,10.765-4.212c2.574-0.688,5.312-1.106,7.874-1.64
						c-5.273-2.018-11.334-0.276-15.596,3.043"/>
					<path fill="#FFFFFF" d="M245.58,252.755c3.691-1.323,7.528-1.954,11.303-3.041c2.041-0.588,6.49-1.295,7.863-2.983
						c-4.804-1.634-8.922-0.525-12.847,2.515"/>
					<path fill="#FFFFFF" d="M227.796,257.671c2.437,0.825,5.622-0.119,7.522-1.646c-1.613-1.273-5.04-0.421-6.82,0.475"/>
					<path fill="#FFFFFF" d="M255.877,185.827c2.427,1.657,5.662,1.825,8.377,2.809c1.842,0.667,3.609,2.049,5.354,2.542
						c-2.298-2.851-8.063-5.151-11.39-6.288"/>
					<path fill="#FFFFFF" d="M264.067,183.253c2.158,0.869,4.199,2.012,6.354,2.85c-0.35-1.684-4.18-3.398-5.885-2.616"/>
					<path fill="#FFFFFF" d="M272.026,224.206c2.455,1.944,6.186,2.923,9.293,2.819c-2.643-1.481-4.945-3.915-7.655-5.16"/>
					<path fill="#FFFFFF" d="M282.323,219.759c2.639,2.03,5.88,4.197,8.861,5.593c-1.093-2.151-3.725-4.373-5.82-5.593"/>
					<path fill="#FFFFFF" d="M274.832,216.718c0.26,1.362,1.756,3.021,3.254,2.76c-0.693-1.059-2.178-1.648-2.551-2.76"/>
					<path fill="#FFFFFF" d="M290.278,201.74c1.601,1.514,4.627,3.06,6.713,3.778c-1.075-1.639-2.412-3.865-4.605-4.011"/>
					<path fill="#FFFFFF" d="M188.014,243.863c-0.216,1.219-0.564,2.549,0.694,3.304c0.599-0.47,0.847-1.267,0.708-2.134"/>
					<path fill="#FFFFFF" d="M212.35,204.314c3.922,0.862,8.789,4.121,11.468,7.021"/>
				</g>
			</g>
		</g>
	</g>
</g>
</svg>
