<?xml version="1.0" encoding="utf-8"?>
<!-- Generator: Adobe Illustrator 16.0.0, SVG Export Plug-In . SVG Version: 6.00 Build 0)  -->
<!DOCTYPE svg PUBLIC "-//W3C//DTD SVG 1.1//EN" "http://www.w3.org/Graphics/SVG/1.1/DTD/svg11.dtd">
<svg version="1.1" xmlns="http://www.w3.org/2000/svg" xmlns:xlink="http://www.w3.org/1999/xlink" x="0px" y="0px" width="450px"
	 height="450px" viewBox="0 0 450 450" enable-background="new 0 0 450 450" xml:space="preserve">
<g id="fussili" display="none">
	<g display="inline">
		<g>
			<path fill="#F5CD2C" d="M449.21,272.955c-1.054-24.204-12.627-31.572-34.729-39.992c12.627-11.577,24.207-23.157,21.049-42.095
				c-3.159-14.732-19.996-36.835-29.47-47.359c37.888,1.053,8.421-66.303-28.412-48.411c-7.37-19.995-42.1-32.625-54.728-12.63
				c-3.154-13.683-4.206-22.098-21.045-24.205c-11.578-1.054-27.365,2.107-37.887,6.315c-6.316-21.049-11.578-36.835-35.781-39.99
				c-16.842-2.105-35.784,1.053-45.258,15.785V39.32c-19.994-4.207-41.039-5.262-42.094,19.997
				c-21.047-14.733-37.887,18.943-28.413,35.78c-12.63,0-34.73,5.262-41.042,17.892c-6.316,13.684,1.049,26.309,4.208,38.939
				c-1.641-0.347-3.223-0.692-4.757-1.03l0.548-0.023c-3.734-0.935-8.038-1.812-12.625-2.484c-4.023-0.703-7.855-1.147-11.749-1.131
				c-13.044-0.565-26.419,1.356-34.566,8.879c-17.891,14.731-16.84,42.094,5.266,49.462c-2.107,17.89-4.215,36.833-2.107,55.778
				c3.157,26.31,13.681,25.259,31.571,39.989c6.317,3.158-1.054,38.938,5.258,50.517c12.633,22.102,43.154,26.313,64.202,11.576
				c13.682,21.05,18.943,43.149,44.198,55.78c19.997,8.418,53.676,10.522,73.671,4.209c24.203-7.367,32.626-33.68,63.143-31.572
				c18.943,1.051,56.829,12.628,64.199-14.734c3.158-11.577-3.154-18.942-13.68-14.733c1.054-5.262,3.154-10.525,5.258-15.785
				c17.892,6.314,30.523,18.942,48.414,3.155c12.627-12.627,12.627-27.361,13.681-44.199c10.523,0,22.101,2.105,30.519-6.315
				C452.369,291.898,449.21,281.373,449.21,272.955z M61.778,278.615l-19.27-19.283c-13.184-19.283,4.058-44.717,4.058-44.717
				l20.282,33.531L61.778,278.615z M44.031,176.115c-5.578-0.947-20.79-1.97-22.816,6.656c0,0,4.265-18.755,16.33-18.755
				c12.063,0,24.235,5.069,24.235,5.069l5.068,13.688C66.847,182.771,49.608,177.061,44.031,176.115z M73.948,349.679
				c-3.042-8.189,0-28.478,0-28.478L99.3,351.644C99.3,351.644,76.989,357.869,73.948,349.679z M110.455,116.351
				c0,0-7.099,1.125-11.155,9.185c-4.056,8.059-1.352,28.34-13.354,14.145c0,0-1.857-12.171,13.354-23.327
				C114.514,105.194,110.455,116.351,110.455,116.351z M213.901,401.291c-6.087,3.007-31.438,7.131-44.625,3.209
				c-13.185-3.924-17.239-29.518-17.239-29.518l12.168,2.043c0,0,12.17,16.187,15.211,17.158c3.047,0.971,24.343-6.847,24.343-6.847
				S219.984,398.281,213.901,401.291z M222.52,52.008c-1.522-1.577-22.818-3.606-22.818-3.606s23.325-20.281,38.536,0l7.1,16.226
				C245.338,64.629,224.041,53.586,222.52,52.008z M405.572,120.407c4.055,11.157-6.727,9.126-12.491,12.168
				c-5.766,3.044-12.489-25.354-12.489-25.354S401.516,109.25,405.572,120.407z M393.526,338.445
				c-4.944,4.056-27.505-9.178-27.505-9.178c8.113-0.048,27.505-22.275,27.505-22.275l12.937,6.069
				C406.463,313.062,398.471,334.391,393.526,338.445z M406.463,186.275c-1.136-7.148-5.962-22.26-5.962-22.26
				s13.184,13.184,17.239,21.404c4.059,8.226-11.277,36.467-11.277,36.467v-8.198C406.463,213.686,407.599,193.425,406.463,186.275z
				 M418.424,288.755c-3.374-6.087-11.838-17.239-7.564-18.267c4.271-1.023,0.795-17.227,7.564-15.16
				c6.768,2.068,13.514,8.073,15.578,15.16C436.063,277.575,418.424,288.755,418.424,288.755z"/>
		</g>
		<g>
			<g>
				<path fill="#FBE99F" d="M176.253,60.553c-15.686,20.354-4.593,49.256,14.29,63.325c9.968,7.425,22.528,9.429,33.013,15.816
					c6.606,4.027,11.222,10.812,12.622,18.381c1.828,9.879-5.249,18.699-12.895,23.838c-1.369,0.92,0.748,1.219,1.508,0.707
					c10.991-7.392,17.453-19.239,11.621-32.117c-5.559-12.271-19.078-15.933-30.493-20.508
					c-25.52-10.232-46.832-44.188-27.398-69.405C179.183,59.732,176.729,59.935,176.253,60.553L176.253,60.553z"/>
				<path fill="#FBE99F" d="M192.803,63.045c-21.723,16.989,1.395,38.903,17.217,49.702c5.979,4.081,12.095,7.35,17.627,12.15
					c6.798,5.894,12.605,12.952,17.656,20.375c4.822,7.091,9.532,14.14,8.812,23.096c-0.284,3.558-2.335,6.144-4.505,8.763
					c-0.611,0.739-5.848,6.183-6.2,5.611c-0.591-0.949-2.911-0.016-2.229,1.08c3.114,5.014,13.31-9.478,14.447-11.549
					c3.395-6.17-0.057-14.829-3.074-20.322c-4.224-7.688-9.885-14.902-15.773-21.367c-10.43-11.452-24.281-17.635-35.8-27.668
					c-11.931-10.392-22.182-26.517-6.555-38.737C195.731,63.159,193.769,62.292,192.803,63.045L192.803,63.045z"/>
				<path fill="#FBE99F" d="M196.878,73.671c-0.306-5.367,10.229-6.005,13.875-6.093c6.75-0.159,12.082,1.045,17.286,5.451
					c8.26,6.993,13.492,16.928,21.936,23.895c7.257,5.991,16.596,9.268,25.995,9.261c4.921-0.003,9.669-0.599,14.536-1.251
					c4.994-0.668,12.252-1.96,15.58,2.834c0.654,0.943,2.968-0.02,2.225-1.088c-5.51-7.94-19.529-2.959-27.246-2.437
					c-16.715,1.131-29.066-6.766-39.48-19.135c-7.688-9.13-13.719-18.637-26.661-19.441c-5.112-0.316-20.969,0.167-20.517,8.173
					C194.48,75.152,196.941,74.794,196.878,73.671L196.878,73.671z"/>
				<path fill="#FBE99F" d="M195.734,83.813c7.223-6.895,15.376-9.927,24.063-4.441c4.646,2.932,8.31,7.445,11.722,11.666
					c7.771,9.617,14.658,19.422,24.104,27.567c9.614,8.287,20.63,13.587,33.207,15.256c11.873,1.583,24.826-0.051,32.36,11.213
					c0.412,0.616,2.644-0.344,2.438-0.655c-7.938-11.863-21.939-10.069-34.452-11.733c-17.063-2.271-30.976-13.146-42.138-25.632
					c-8.833-9.883-15.359-23.288-27.312-29.92c-9.434-5.236-19.272,0.234-26.205,6.848
					C192.991,84.492,195.305,84.221,195.734,83.813L195.734,83.813z"/>
				<path fill="#FBE99F" d="M189.076,141.231c-8.975,0.448-16.603,7.029-22.157,13.562c-3.987,4.687-7.475,9.722-10.093,15.303
					c-3.125,6.664-2.095,14.808-0.536,21.731c3.633,16.165,11.031,29.94,9.405,47.045c-1.467,15.463-8.534,29.803-10.822,45.138
					c-0.035,0.25,2.329,0.07,2.437-0.654c1.92-12.867,6.873-24.966,9.62-37.643c2.839-13.097,1.094-25.563-3.011-38.181
					c-4.033-12.39-10.137-26.271-4.134-39.064c4.745-10.118,15.993-25.682,28.227-26.294
					C188.628,142.142,190.682,141.15,189.076,141.231L189.076,141.231z"/>
				<path fill="#FBE99F" d="M131.497,299.264c8.459-5.547,12.082-19.785,15.345-28.688c2.317-6.325,4.963-12.687,6.145-19.333
					c1.295-7.286-0.615-14.418-3.404-21.107c-3.358-8.051-7.087-15.22-8.838-23.866c-1.863-9.19-1.882-18.743-0.226-27.956
					c1.637-9.109,5.919-17.656,12.454-24.196c6.121-6.127,14.033-10.215,21.115-15.087c1.36-0.938-0.741-1.269-1.516-0.736
					c-11.858,8.163-24.419,14.697-30.653,28.433c-6.94,15.298-6.182,33.254-1.38,49.058c2.385,7.849,7.101,14.749,9.325,22.704
					c2.375,8.493,0.239,16.625-2.68,24.639c-2.104,5.782-4.134,11.584-6.443,17.29c-2.324,5.747-5.258,14.505-10.762,18.114
					C128.6,299.434,130.714,299.777,131.497,299.264L131.497,299.264z"/>
				<path fill="#FBE99F" d="M169.071,179.553c2.109,10.099,5.57,19.657,13.021,27.041c7.28,7.215,17.438,11.148,26.788,14.833
					c5.584,2.202,11.464,3.8,17.409,4.604c7.101,0.954,13.771-0.887,20.763-1.645c14.672-1.594,27.092-0.507,38.395,9.796
					c19.316,17.613,25.139,49.625,21.783,74.471c-1.207,8.93-8.044,25.266-18.082,14.254c-5.763-6.318-7.016-17.133-1.242-23.765
					c0.969-1.112-1.395-1.169-1.98-0.495c-7.643,8.781-3.485,31.976,11.277,29.602c8.364-1.346,11.408-13.046,12.473-19.867
					c2.092-13.418,0.57-27.477-2.842-40.534c-6.203-23.745-22.484-46.655-49.242-45.694c-7.492,0.269-14.671,1.8-22.098,2.516
					c-9.551,0.921-19.057-2.219-27.797-5.719c-10.619-4.254-21.173-9.322-28.042-18.824c-4.479-6.197-6.606-13.849-8.147-21.226
					C171.313,177.97,168.869,178.589,169.071,179.553L169.071,179.553z"/>
				<path fill="#FBE99F" d="M271.945,307.604c-6.514,4.533-1.645,13.527,1.475,18.695c4.516,7.487,11.625,15.976,20.399,18.346
					c20.682,5.589,33.244-10.793,35.79-29.49c1.642-12.075-0.6-24.279-5.392-35.388c-3.319-7.696-7.313-14.878-9.694-22.963
					c-2.604-8.823-4.172-17.807-8.133-26.185c-11.133-23.533-38.756-18.331-59.833-16.893c-13.526,0.924-26.54-2.115-36.604-11.668
					c-5.499-5.221-9.834-22.962-1.644-27.339c1.478-0.79,0.119-1.724-0.998-1.128c-8.508,4.548-5.959,16.116-3.04,23.454
					c4.234,10.654,17.18,16.384,27.901,17.886c24.615,3.445,56.967-11.78,71.78,16.345c3.919,7.444,5.438,16.037,7.556,24.1
					c2.329,8.863,6.518,16.748,10.271,25.043c5.336,11.786,7.027,24.799,5.008,37.559c-1.742,11.006-7.346,22.744-18.969,25.736
					c-12.994,3.346-22.836-5.523-29.928-15.102c-3.059-4.131-10.806-15.715-4.404-20.169
					C274.846,307.494,272.776,307.027,271.945,307.604L271.945,307.604z"/>
				<path fill="#FBE99F" d="M185.687,182.046c4.535-10.542,17.012-20.215,27.028-10.067c6.305,6.389,6.824,16.648,10.641,24.395
					c3.159,6.415,11.4,9.358,18.143,9.7c15.146,0.763,29.867-2.848,44.881-4.069c0.609-0.05,2.67-1.067,1.068-0.936
					c-17.211,1.398-36.508,8.007-53.326,1.853c-9.564-3.5-10.513-14.051-13.773-22.339c-3.411-8.668-9.158-15.353-19.091-13.819
					c-8.336,1.284-14.792,8.339-17.97,15.724C183.13,182.853,185.426,182.655,185.687,182.046L185.687,182.046z"/>
				<path fill="#FBE99F" d="M176.577,173.829c-3.275-15.75,20.032-21.784,31.237-18.114c11.396,3.733,16.753,16.365,20.604,26.616
					c3.917,10.43,10.711,14.968,21.581,16.997c11.52,2.15,23.843-0.738,34.994-3.488c1.433-0.354,1.218-1.129-0.208-0.777
					c-15.125,3.729-39.727,9.124-50.481-6.164c-3.173-4.508-4.448-10.327-6.644-15.328c-2.352-5.358-5.84-10.308-10.156-14.251
					c-7.449-6.812-17.901-7.093-27.044-4.213c-8.35,2.629-18.39,9.425-16.318,19.376
					C174.252,175.022,176.703,174.432,176.577,173.829L176.577,173.829z"/>
				<path fill="#FBE99F" d="M202.698,270.931c-23.946-13.542-40.372,19.993-36.777,39.715c3.103,17.015,21.1,19.158,35.15,22.152
					c11.205,2.384,19.671,8.139,25.002,18.423c1.198,2.305,1.883,4.811,2.594,7.293c0.566,1.974,2.164,5.397,1.786,7.486
					c0.782-0.211,1.564-0.418,2.349-0.629c-0.21-0.26-0.359-0.555-0.447-0.881c-0.354-0.835-2.75-0.085-2.436,0.654
					c0.145,0.345,0.299,0.91,0.617,1.172c0.535,0.438,2.207,0.162,2.349-0.63c0.558-3.083-1.78-7.926-2.671-10.834
					c-1.924-6.276-5.879-11.836-10.825-16.083c-12.621-10.84-31.755-6.371-44.669-16.851c-18.74-15.205,0.803-64.091,26.033-49.819
					C201.431,272.478,203.683,271.488,202.698,270.931L202.698,270.931z"/>
				<path fill="#FBE99F" d="M241.484,367.712c3.553-11.783,2.23-26.727-4.539-37.139c-6.744-10.374-21.36-11.344-31.943-15.185
					c-10.783-3.914-20.42-12.733-14.656-24.779c4.267-8.916,16.578-14.963,23.436-5.428c0.5,0.695,2.854-0.137,2.259-0.967
					c-11.272-15.67-34.88,4.517-28.829,19.955c5.003,12.768,23.817,14.293,34.834,18.262c17.849,6.433,21.981,29.048,16.999,45.573
					C238.774,368.9,241.229,368.557,241.484,367.712L241.484,367.712z"/>
				<path fill="#FBE99F" d="M76.93,241.218c9.297-7.511,15.198-21.626,16.472-33.239c1.572-14.361-11.381-23.377-19.334-33.259
					c-0.454-0.564-2.789,0.26-2.275,0.901c8.083,10.047,20.052,18.359,19.187,32.719c-0.671,11.14-7.252,25.584-15.964,32.622
					C73.976,241.799,76.415,241.639,76.93,241.218L76.93,241.218z"/>
				<path fill="#FBE99F" d="M84.899,164.339c1.64,8.974,9.939,13.646,13.843,21.471c4.753,9.526,8.562,21.378,8.13,32.079
					c-0.444,11.026-6.309,19.893-14.42,26.813c-3.575,3.048-11.84,7.592-12.624,12.776c-0.14,0.909,2.312,0.467,2.429-0.325
					c0.454-2.996,4.151-5.41,6.298-7.246c3.079-2.628,6.252-5.137,9.257-7.854c6.988-6.326,10.612-15.198,11.491-24.491
					c0.972-10.26-3.372-21.419-7.334-30.686c-3.68-8.605-12.917-13.783-14.637-23.188C87.189,162.896,84.741,163.485,84.899,164.339
					L84.899,164.339z"/>
				<path fill="#FBE99F" d="M74.753,291.109c0.597,10.553,8.53,18.266,16.132,24.722c9.229,7.837,19.941,14.794,26.561,25.163
					c0.546,0.853,2.887-0.026,2.241-1.037c-5.549-8.692-14.125-15.032-22.03-21.448c-8.906-7.228-19.764-15.616-20.466-28.054
					C77.135,289.446,74.691,290.002,74.753,291.109L74.753,291.109z"/>
				<path fill="#FBE99F" d="M113.058,344.343c19.889,0.624,37.687-17.214,42.06-35.581c3.296-13.85,3.54-47.5,24.875-44.537
					c1.12,0.155,2.517-1.423,0.875-1.651c-17.8-2.472-22.537,16.661-25.177,30.37c-1.674,8.688-2.559,17.736-6.338,25.844
					c-5.811,12.455-21.362,24.346-35.418,23.904C112.838,342.656,111.407,344.29,113.058,344.343L113.058,344.343z"/>
				<path fill="#FBE99F" d="M123.5,356.09c1.842,1.729,7.335-2.498,8.55-3.288c7.016-4.563,13.548-9.506,20.858-13.623
					c8.173-4.599,14.323-10.217,17.564-19.214c2.27-6.302,3.647-13.697,4.076-20.384c0.018-0.276-2.392-0.022-2.437,0.653
					c-0.821,12.818-4.106,26.721-14.675,34.879c-5.166,3.988-11.314,6.488-16.65,10.237c-1.595,1.122-13.876,10.975-14.985,9.936
					C125.359,354.868,123.191,355.798,123.5,356.09L123.5,356.09z"/>
				<path fill="#FBE99F" d="M152.136,367.322c-2.763-3.98-2.549-8.736-2.93-13.367c-0.333-4.015-1.233-7.455-3.154-10.975
					c-0.521-0.955-2.843-0.053-2.232,1.072c4.146,7.594,1.149,17.229,6.085,24.342C150.534,369.3,152.858,368.36,152.136,367.322
					L152.136,367.322z"/>
				<path fill="#FBE99F" d="M143.004,331.813c-7.802-14.151-17.903-26.241-14.521-43.483c2.909-14.828,18.848-21.789,29.439-30.42
					c1.285-1.045-0.655-1.987-1.636-1.189c-10.701,8.721-26.136,15.592-29.871,30.184c-4.634,18.094,6.151,31.117,14.364,46.005
					C141.336,333.92,143.646,332.976,143.004,331.813L143.004,331.813z"/>
				<path fill="#FBE99F" d="M148.785,249.443c-15.537,4.605-31.747,14.084-36.189,30.723c-5.676,21.266,11.265,41.378,16.924,60.637
					c0.311,1.055,2.744,0.393,2.438-0.654c-4.956-16.863-15.861-31.285-17.512-49.176c-1.978-21.447,16.25-34.496,34.753-39.982
					C150.675,250.553,150.274,249,148.785,249.443L148.785,249.443z"/>
				<path fill="#FBE99F" d="M221.81,395.405c-0.015,0.286-0.069,0.561-0.212,0.813c-0.081,0.14-0.187,0.269-0.306,0.377
					c-0.162,0.151-0.131,0.047,0.191,0.03c-0.551,0.03-1.255,0.174-1.615,0.646c-0.341,0.449,0.288,0.656,0.641,0.638
					c1.579-0.086,3.629-1.018,3.727-2.839C224.289,394.146,221.851,394.662,221.81,395.405L221.81,395.405z"/>
				<path fill="#FBE99F" d="M217.729,400.793c10.98-7.744,24.67-7.804,36.936-12.288c8.021-2.935,18.199-6.881,23.169-14.339
					c5.459-8.191,4.558-18.632,1.178-27.466c-4.26-11.149-13.04-19.93-10.134-32.709c0.249-1.097-2.229-0.758-2.457,0.229
					c-2.207,9.708,2.066,17.556,6.608,25.841c5.425,9.892,9.269,22.382,3.181,32.888c-5.336,9.203-19.574,13.692-29.146,16.176
					c-10.669,2.771-21.693,4.196-30.912,10.7C214.795,400.778,216.828,401.429,217.729,400.793L217.729,400.793z"/>
				<path fill="#FBE99F" d="M249.188,325.589c2.401,5.374,3.057,11.239,5.258,16.675c1.729,4.269,5.076,7.817,7.808,11.435
					c7.345,9.711,1.997,22.464-8.835,26.687c-14.106,5.497-30.478-2.403-44.313,4.423c-1.462,0.723,0.76,0.931,1.474,0.578
					c14.837-7.321,33.785,3.274,48.33-6.4c6.738-4.483,11.424-13.21,8.566-21.222c-1.771-4.972-6.295-8.838-9.047-13.25
					c-3.71-5.954-3.973-13.243-6.805-19.58C251.286,324.176,248.904,324.956,249.188,325.589L249.188,325.589z"/>
				<path fill="#FBE99F" d="M191.809,369.4c-9.809,8.062-23.94-29.863-28.513-35.526c-0.632-0.783-2.966,0.134-2.244,1.03
					c5.645,6.99,18.369,46.938,32.333,35.468C194.666,369.319,192.675,368.691,191.809,369.4L191.809,369.4z"/>
				<path fill="#FBE99F" d="M191.382,371.462c11.048-7.512,24.174-12.568,37.622-12.846c1.395-0.029,1.869-1.834,0.212-1.8
					c-14.1,0.289-27.879,5.648-39.456,13.517C188.394,371.265,190.39,372.139,191.382,371.462L191.382,371.462z"/>
				<path fill="#FBE99F" d="M185.406,367.776c7.908,0.156,10.473-8.363,11.826-14.711c2.046-9.584,0.515-20.399,3.638-29.67
					c0.463-1.37-1.975-1.407-2.341-0.323c-2.165,6.423-1.758,13.927-2.406,20.608c-0.617,6.337-1.427,22.407-10.522,22.228
					C184.173,365.881,183.76,367.744,185.406,367.776L185.406,367.776z"/>
				<path fill="#FBE99F" d="M203.892,316.222c4.671-9.73,11.357-16.095,21.715-19.406c6.277-2.009,11.363-3.499,16.543-7.875
					c8.908-7.53,19.631-22.614,6.166-31.26c-0.787-0.507-2.992,0.599-1.906,1.298c15.395,9.883-2.514,28.423-12.992,33.809
					c-5.787,2.974-12.376,3.545-18.136,6.889c-6.359,3.692-10.576,9.893-13.688,16.376
					C201.029,317.223,203.485,317.068,203.892,316.222L203.892,316.222z"/>
				<path fill="#FBE99F" d="M259.418,255.768c21.846,25.024-18.277,56.345-40.616,61.774c-1.476,0.36-1.132,1.599,0.333,1.243
					c23.131-5.623,65.309-37.899,42.545-63.979C261.115,254.16,258.783,255.039,259.418,255.768L259.418,255.768z"/>
				<path fill="#FBE99F" d="M207.608,341.815c0.997,6.903,0.385,14.963-3.03,21.163c-0.251,0.455,2.052,0.267,2.413-0.389
					c3.432-6.229,4.056-14.485,3.052-21.429C209.958,340.558,207.502,341.093,207.608,341.815L207.608,341.815z"/>
				<path fill="#FBE99F" d="M113.522,111.796c10.086,3.155,20.832,3.788,29.856,9.724c6.208,4.08,10.523,10.296,15.625,15.552
					c0.495,0.51,2.774-0.371,2.282-0.877c-5.583-5.751-10.258-12.023-17.048-16.487c-8.458-5.562-19.286-5.989-28.745-8.945
					C114.876,110.569,112.682,111.534,113.522,111.796L113.522,111.796z"/>
				<path fill="#FBE99F" d="M117.79,97.621c20.704,0.218,57.905,11.92,51.293,39.211c-0.156,0.637,2.252,0.26,2.411-0.399
					c6.732-27.785-31.024-39.668-52.148-39.892C118.783,96.537,116.549,97.606,117.79,97.621L117.79,97.621z"/>
				<path fill="#FBE99F" d="M319.91,87.487c-4.555,2.221-8.156,12.163-9.359,16.737c-2.785,10.59,0.285,20.549,6.268,29.369
					c6.6,9.729,14.727,17.364,17.537,29.22c1.578,6.653,1.26,13.772,0.1,20.457c-0.648,3.726-4.951,12.024-4.742,13.882
					c-0.084-0.76-2.535-0.224-2.434,0.655c0.1,0.895,0.004,0.75,0.442,1.332c0.18,0.24,0.714,0.219,0.958,0.173
					c5.861-1.079,7.782-13.937,8.543-18.31c1.924-11.062-0.131-22.39-5.869-31.986c-6.134-10.265-15.534-17.893-18.656-29.868
					c-1.506-5.775-1.037-12.798,1.266-18.303c1.088-2.602,4.015-11.024,6.891-12.423C322.379,87.677,320.967,86.973,319.91,87.487
					L319.91,87.487z"/>
				<path fill="#FBE99F" d="M345.871,202.641c7.012-17.155,8.249-39.752,1.033-57.067c-6.304-15.126-28.295-37.503-12.399-53.662
					c6.378-6.48,17.265,0.121,22.843,4.37c6.199,4.72,10.973,11.244,13.534,18.581c2.624,7.503,3.303,15.555,5.657,23.146
					c1.887,6.086,6.568,14.786,13.525,16.128c-0.924-0.179-2.889,1.223-1.443,1.502c0.912,0.176,1.408,0.242,2.314,0.197
					c0.537-0.026,1.217-0.357,1.361-0.919c0.099-0.387,0.199-0.774,0.299-1.161c0.053-0.201-0.092-0.452-0.275-0.535
					c-18.271-8.37-13.506-31.557-22.422-46.437c-6.067-10.125-20.306-22.49-33.064-18.127c-6.461,2.208-9.328,9.524-10.056,15.737
					c-1.119,9.542,4.802,18.997,9.429,26.841c6.048,10.256,10.803,19.469,12.247,31.424c1.591,13.173,0.149,27.483-4.89,39.803
					C343.066,203.685,345.51,203.522,345.871,202.641L345.871,202.641z"/>
				<path fill="#FBE99F" d="M364.3,108.076c-10.383,4.392-11.946,16.848-10.737,26.815c1.918,15.8,9.4,30.075,9.203,46.34
					c0.813-0.218,1.623-0.436,2.437-0.653c-0.272-1-0.45-1.797-1.009-2.692c-0.377-0.605-2.635,0.335-2.438,0.652
					c0.559,0.899,0.738,1.691,1.01,2.693c0.146,0.548,2.426-0.058,2.437-0.653c0.171-14.249-4.847-27.563-8.108-41.231
					c-2.431-10.192-2.986-26.044,8.613-30.951C367.184,107.772,364.877,107.831,364.3,108.076L364.3,108.076z"/>
				<path fill="#FBE99F" d="M363.074,97.166c-13.412,0.782-17.291,19.822-19.037,30.277c-3.594,21.523,10.168,39.888,10.605,60.995
					c0.025,1.321,2.498,0.98,2.472-0.166c-0.378-18.396-11.143-34.535-11.366-52.914c-0.125-10.235,3.936-35.564,17.129-36.333
					C364.282,98.944,364.732,97.069,363.074,97.166L363.074,97.166z"/>
				<path fill="#FBE99F" d="M400.359,225.781c-5.893,10.801-15.408,17.158-27.843,13.877c-11.312-2.98-20.747-11.825-27.999-20.591
					c-14.422-17.433-28.084-48.42-11.979-68.949c0.938-1.194-1.39-1.392-2.007-0.602c-31.242,39.828,43.679,128.617,72.135,76.461
					C403.292,224.829,400.822,224.93,400.359,225.781L400.359,225.781z"/>
				<path fill="#FBE99F" d="M317.219,148.77c-15.951,24.991-6.764,62.559,12.998,82.645c12.357,12.555,28.132,22.711,46.229,22.826
					c14.614,0.094,24.484-9.328,34.161-19.025c1.014-1.018-1.382-1-1.96-0.421c-4.667,4.679-9.248,9.465-14.771,13.151
					c-7.67,5.121-17.001,5.652-25.838,4.029c-15.849-2.908-30.089-14.729-40.333-26.62c-16.497-19.148-22.136-54.709-8.216-76.521
					C320.109,147.864,317.654,148.085,317.219,148.77L317.219,148.77z"/>
				<path fill="#FBE99F" d="M360.443,326.733c-10.477,0.712-20.658-4.925-29.943-9.08c-0.581-0.259-2.816,0.647-1.98,1.021
					c9.666,4.33,19.988,9.913,30.904,9.173C360.137,327.797,362.063,326.625,360.443,326.733L360.443,326.733z"/>
				<path fill="#FBE99F" d="M308.727,307.48c-9.874,0.448-16.104-20.793-17.818-27.951c-3.05-12.723,2.077-25.269,7.354-36.611
					c0.226-0.484-2.104-0.26-2.411,0.4c-6.161,13.236-10.552,26.188-6.364,40.707c2.182,7.564,8.049,25,18.212,24.539
					C308.404,308.531,310.35,307.406,308.727,307.48L308.727,307.48z"/>
				<path fill="#FBE99F" d="M284.686,233.141c-6.58,28.416-20.989,82.927,20.744,90.726c0.725,0.134,2.869-1.011,1.507-1.265
					c-40.907-7.645-26.231-62.105-19.821-89.788C287.313,231.961,284.869,232.354,284.686,233.141L284.686,233.141z"/>
				<path fill="#FBE99F" d="M325.938,338.938c7.179-0.713,19.542,0.13,24.733,6.008c0.406,0.455,2.674-0.404,2.295-0.832
					c-5.461-6.186-18.394-6.911-25.973-6.16C326.365,338.019,324.338,339.098,325.938,338.938L325.938,338.938z"/>
				<path fill="#FBE99F" d="M184.285,209.978c3.593,7.138,4.249,12.875,1.538,20.412c-2.292,6.378-4.087,12.587-3.731,19.428
					c0.721,13.911,10.849,26.615,23.708,31.307c9.27,3.382,20.785,2.628,28.917-3.027c13.123-9.123,14.928-29.231,34.169-28.38
					c0.538,0.023,2.8-0.976,1.573-1.03c-9.891-0.437-16.623,2.872-22.637,10.707c-4.005,5.216-7.354,11.011-11.843,15.829
					c-7.157,7.68-16.936,7.402-26.407,5.358c-14.725-3.182-24.39-18.767-25.129-33.022c-0.367-7.064,2.469-13.604,4.674-20.137
					c2.167-6.421,0.574-12.195-2.399-18.099C186.404,208.698,184.069,209.552,184.285,209.978L184.285,209.978z"/>
				<path fill="#FBE99F" d="M202.538,221.133c2.196,7.309-0.907,14.021-3.458,20.785c-2.363,6.259-3.391,12.162-1.745,18.718
					c2.625,10.476,13.025,15.21,22.817,11.935c10.915-3.652,15.065-14.844,20.663-23.738c4.346-6.904,10.852-10.237,18.906-10.449
					c4.832-0.127,15.186,0.703,15.838,7.09c0.083,0.808,2.531,0.271,2.436-0.652c-0.82-8.049-14.686-8.05-20.385-7.676
					c-10.625,0.701-17.018,7.687-21.901,16.469c-3.287,5.913-6.414,11.663-12.067,15.68c-9.307,6.613-19.415,1.752-23.364-7.781
					c-5.97-14.404,8.963-26.85,4.698-41.032C204.716,219.624,202.288,220.298,202.538,221.133L202.538,221.133z"/>
				<path fill="#FBE99F" d="M330.404,303.422c14.705,14.016,40.99,15.695,55.206-0.195c6.321-7.067,8.872-19.914,3.69-28.182
					c-5.328-8.502-17.428-10.53-18.009-22.113c-0.038-0.758-2.483-0.267-2.436,0.654c0.362,7.234,5.431,11.367,10.817,15.481
					c7.995,6.104,11.252,12.619,9.116,22.925c-5.37,25.913-40.208,25.653-56.125,10.488
					C332.058,301.898,329.766,302.816,330.404,303.422L330.404,303.422z"/>
				<path fill="#FBE99F" d="M373.32,236.705c-3.311-8.135,2.584-13.276,8.145-18.365c4.93-4.513,8.811-9.223,8.842-16.231
					c0.056-12.722-16.533-18.147-25.346-23.473c-0.684-0.413-2.934,0.579-1.939,1.18c10.521,6.362,28.317,12.289,24.092,27.957
					c-3.053,11.312-21.863,15.734-16.227,29.586C371.233,238.215,373.634,237.479,373.32,236.705L373.32,236.705z"/>
				<path fill="#FBE99F" d="M368.51,171.546c13.18-5.36,23.87,6.152,28.742,17.134c4.555,10.265,5.213,19.539-1.469,29.089
					c-3.867,5.528-24.453,19.139-15.688,26.82c0.598,0.523,2.855-0.402,2.27-0.919c-6.938-6.083,6.447-16.186,10.467-20.035
					c6.188-5.929,10.578-13.107,10.688-21.85c0.124-10.096-6.612-21.419-14.051-27.855c-6.296-5.448-14.362-6.313-21.885-3.252
					C365.996,171.325,367.465,171.972,368.51,171.546L368.51,171.546z"/>
				<path fill="#FBE99F" d="M334.348,201.971c6.729-1.127,13.181-3.612,20.084-3.496c6.291,0.105,9.467,4.796,11.459,10.065
					c2.649,7.007,4.638,21.079-1.986,26.563c-0.506,0.418,1.76,0.165,2.201-0.199c7.793-6.451,4.523-22.719,0.777-30.367
					c-6.055-12.364-22.102-5.104-32.073-3.437C333.848,201.265,332.631,202.26,334.348,201.971L334.348,201.971z"/>
				<path fill="#FBE99F" d="M339.518,209.054c3.717,3.088,8.365,4.283,12.463,6.712c5.988,3.548,5.147,10.556,3.71,16.406
					c-0.136,0.556,2.251,0.196,2.405-0.422c1.378-5.603,2.275-11.951-2.659-16.02c-4.024-3.318-9.554-4.132-13.623-7.511
					C341.293,207.789,339.133,208.734,339.518,209.054L339.518,209.054z"/>
				<path fill="#FBE99F" d="M351.615,247.5c2.824,8.281-1.231,12.404-6.97,17.692c-4.184,3.854-6.538,7.822-6.557,13.597
					c-0.028,8.75,6.028,24.191,16.333,24.978c1.1,0.083,2.533-1.507,0.881-1.634c-11.37-0.867-17.313-21.728-13.484-30.522
					c2.087-4.792,7.613-7.816,10.858-11.765c3.196-3.889,2.917-8.487,1.375-13C353.703,245.824,351.277,246.507,351.615,247.5
					L351.615,247.5z"/>
				<path fill="#FBE99F" d="M372.796,304.125c-12.099-4.41-24.579-16.662-19.235-30.402c3.623-9.32,13.131-16.105,13.692-26.627
					c0.071-1.32-2.411-1.006-2.474,0.16c-0.682,12.775-14.572,20.441-15.213,33.466c-0.574,11.707,12.039,21.542,21.841,25.113
					C372.506,306.233,374.266,304.658,372.796,304.125L372.796,304.125z"/>
				<path fill="#FBE99F" d="M294.823,134.93c1.063,11.5-4.387,21.938-8.33,32.396c-4.154,11.01-5.525,23.53-4.597,35.24
					c0.387,4.898,8.881,34.641,17.955,27.765c1.316-0.997-0.739-1.396-1.533-0.796c-2.844,2.156-10.129-13.438-10.82-15.062
					c-3.671-8.627-3.723-17.934-2.855-27.121c0.916-9.711,3.378-18.184,6.998-27.218c3.342-8.351,6.466-16.725,5.625-25.858
					C297.181,133.41,294.734,133.953,294.823,134.93L294.823,134.93z"/>
				<path fill="#FBE99F" d="M312.473,224.537c-16.91-28.499,2.34-59.003-2.029-89.246c-0.097-0.672-2.547-0.128-2.436,0.655
					c4.373,30.282-14.926,60.672,2.029,89.245C310.465,225.912,312.773,225.042,312.473,224.537L312.473,224.537z"/>
				<path fill="#FBE99F" d="M304.342,99.906c5.542-10.232,6.69-23.149-4.359-30.012c-9.465-5.879-22.504,2.867-31.424,5.519
					c-0.279,0.086-1.125,0.284-1.118,0.697c0.149,8.782,1.126,20.854,6.087,28.397c0.392,0.597,2.625-0.366,2.437-0.654
					c-4.96-7.541-5.937-19.611-6.085-28.396c-0.375,0.231-0.747,0.462-1.119,0.695c10.313-3.07,21.841-11.334,31.831-3.377
					c8.567,6.823,5.841,19.27,1.349,27.564C301.762,100.662,304.01,100.517,304.342,99.906L304.342,99.906z"/>
				<path fill="#FBE99F" d="M246.145,66.982c2.463,5.616,2.245,12.583,2.865,18.587c0.322,3.128,0.224,9.718,3.727,11.281
					c0.956,0.426,2.826-0.945,1.424-1.57c-3.113-1.389-2.854-11.661-3.111-14.366c-0.455-4.776-0.512-10.125-2.467-14.584
					C248.129,65.3,245.721,66.014,246.145,66.982L246.145,66.982z"/>
				<path fill="#FBE99F" d="M269.879,78.5c-2.527-5.447-2.952-11.637-5.07-17.243c-0.316-0.83-2.725-0.106-2.438,0.654
					c2.12,5.603,2.545,11.793,5.069,17.242C267.824,79.979,270.204,79.206,269.879,78.5L269.879,78.5z"/>
				<path fill="#FBE99F" d="M138.636,61.696c0.008,9.554,0.342,18.65,4.068,27.598c1.498,3.597,5.24,6.851,7.822,9.688
					c3.494,3.841,6.553,7.708,8.404,12.623c0.388,1.032,2.81,0.338,2.436-0.653c-2.745-7.281-8.287-12.387-13.204-18.214
					c-7.252-8.596-7.059-20.64-7.067-31.265C141.094,60.264,138.634,60.69,138.636,61.696L138.636,61.696z"/>
				<path fill="#FBE99F" d="M171.278,53.973c-17.432-5.33-19.482,27.343-14.53,37.279c4.055,8.134,35.713,46.9,19.181,53.14
					c-1.615,0.61-0.1,1.083,0.885,0.711c16.487-6.223-4.488-33.755-9.602-41.637c-4.042-6.227-8.946-12.171-9.849-19.735
					c-0.798-6.691-0.281-32.466,11.935-28.728C169.916,55.192,172.104,54.226,171.278,53.973L171.278,53.973z"/>
				<path fill="#FBE99F" d="M139.986,127.046c-13.334-16.549-26.887,14.418-28.533,24.693c-1.458,9.093,13.101,50.164-6.327,46.14
					c-0.703-0.147-2.862,0.958-1.513,1.238c18.36,3.804,14.116-20.716,12.286-31.379c-1.349-7.87-2.966-14.389-0.627-22.226
					c2.489-8.347,12.326-30.104,22.446-17.543C138.198,128.566,140.538,127.729,139.986,127.046L139.986,127.046z"/>
			</g>
			<path fill="#FBE99F" d="M280.213,132.24c-13.249,0.01-14.566,15.284-15.023,25.453c-0.324,7.271-0.029,14.384-2.903,21.25
				c-3.394,8.111-12.38,11.696-19.888,14.931c-1.57,0.677-0.115,1.319,0.926,0.871c12.311-5.304,21.889-11.089,23.795-25.481
				c1.217-9.185-2.5-35.75,12.114-35.758C280.066,133.504,281.854,132.24,280.213,132.24L280.213,132.24z"/>
			<path fill="#FBE99F" d="M261.078,198.217c12.604-2.037,15.996-12.315,16.811-23.824c0.835-11.809-2.941-36.376,14.286-37.576
				c0.685-0.048,2.651-1.173,1.036-1.061c-33.244,2.317-2.178,56.695-31.705,61.47C260.494,197.391,259.369,198.494,261.078,198.217
				L261.078,198.217z"/>
			<path fill="#FBE99F" d="M82.196,257.828c4.554,4.199,7.52,9.457,12.345,13.467c5.44,4.525,12.205,7.66,18.612,10.551
				c1.059,0.479,2.818-1.049,1.393-1.691c-6.372-2.873-12.554-6.066-18.138-10.297c-5.006-3.795-7.798-9.277-12.345-13.469
				C83.235,255.624,81.14,256.854,82.196,257.828L82.196,257.828z"/>
			<path fill="#FBE99F" d="M92.393,246.75c6.336,3.322,11.889,7.678,17.413,12.179c3.502,2.852,8.881,9.048,13.424,9.831
				c0.434,0.073,2.457-0.314,1.89-1.092c-0.351-0.545-0.773-1.035-1.265-1.466c-0.559-0.579-2.862,0.313-2.267,0.927
				c0.489,0.432,0.908,0.92,1.262,1.467c0.63-0.365,1.26-0.727,1.89-1.092c-2.632-0.453-6.019-4.152-8.064-5.77
				c-2.581-2.039-5.106-4.152-7.668-6.22c-4.614-3.726-9.404-7.136-14.661-9.893C93.69,245.277,91.435,246.25,92.393,246.75
				L92.393,246.75z"/>
			<path fill="#FBE99F" d="M108.628,253.828c26.332,3.861,1.63-60.798,29.755-49.88c0.931,0.362,2.852-0.979,1.437-1.527
				c-32.687-12.688-8.732,52.944-30.312,49.778C108.406,252.035,106.989,253.585,108.628,253.828L108.628,253.828z"/>
			<path fill="#FBE99F" d="M142.998,219.579c-25.938-2.315-5.334,35.208-19.661,44.016c-1.405,0.862,0.742,1.144,1.5,0.68
				c13.453-8.269-3.308-45.188,17.202-43.355C142.94,220.999,144.64,219.727,142.998,219.579L142.998,219.579z"/>
			<path fill="#FBE99F" d="M97.28,272.879c-10.758,0.428-14.25,11.271-14.934,20.451c-0.485,6.511,0.086,23.849,9.58,24.445
				c0.658,0.042,2.837-1.114,1.526-1.194c-7.167-0.45-8.372-13.126-8.703-18.308c-0.493-7.743,1.015-23.752,11.538-24.172
				C97.085,274.073,98.914,272.813,97.28,272.879L97.28,272.879z"/>
			<path fill="#FBE99F" d="M98.606,317.416c-7.251-10.48-2.81-39.172,13.792-37.205c0.633,0.074,2.843-0.998,1.538-1.154
				c-18.762-2.221-26.625,26.221-17.609,39.248C96.712,318.861,99.07,318.09,98.606,317.416L98.606,317.416z"/>
			<path fill="#FBE99F" d="M93.167,172.591c1.683-4.72,3.93-9.299,4.302-14.356c0.375-5.117-1.076-10.079-0.136-15.221
				c0.218-1.188-2.272-0.858-2.464,0.201c-0.822,4.495-0.159,8.822,0.119,13.339c0.344,5.583-2.313,10.657-4.145,15.787
				C90.378,173.648,92.813,173.575,93.167,172.591L93.167,172.591z"/>
			<path fill="#FBE99F" d="M221.945,227.219c4.577,0.824,5.841,11.119,5.891,14.688c0.132,9.005-9.651,9.68-16.313,10.165
				c-3.221,0.232-17.381,2.738-12.104,8.284c0.709,0.747,3.025-0.21,2.242-1.034c-4.22-4.438,12.735-5.802,15.06-6.034
				c4.496-0.446,8.664-1.841,11.516-5.479c4.08-5.203,2.095-20.896-5.418-22.244C221.694,225.36,220.317,226.927,221.945,227.219
				L221.945,227.219z"/>
			<path fill="#FBE99F" d="M207.647,267.501c8.58-7.866,21.319-4.835,29.105-14.28c6.616-8.025,8.144-23.324,2.466-32.067
				c-0.397-0.615-2.768,0.156-2.271,0.917c6.098,9.389,3.238,24.274-3.578,32.541c-4.277,5.186-11.52,5.455-17.538,6.998
				c-3.86,0.992-7.189,2.906-10.112,5.584C204.703,268.125,207.12,267.982,207.647,267.501L207.647,267.501z"/>
			<path fill="#FBE99F" d="M120.536,145.725c-0.092-4.75,9.491,1.72,11.131,2.833c5.391,3.657,9.404,10.551,10.998,16.722
				c0.261,1.015,2.7,0.368,2.436-0.652c-2.128-8.257-7.896-15.734-15.283-19.981c-2.823-1.623-11.854-4.765-11.734,1.313
				C118.104,147.143,120.555,146.691,120.536,145.725L120.536,145.725z"/>
			<path fill="#FBE99F" d="M122.64,129.369c6.483,0.885,13.033,2.079,18.485,5.917c5.75,4.051,7.931,11.111,9.05,17.71
				c0.118,0.69,2.568,0.122,2.438-0.655c-1.188-6.983-3.507-13.455-9.21-17.955c-5.318-4.195-12.729-5.31-19.23-6.197
				C123.516,128.102,121.319,129.189,122.64,129.369L122.64,129.369z"/>
			<path fill="#FBE99F" d="M234.846,89.909c-12.622,2.085-16.465,16.501-14.363,27.591c0.15,0.796,2.6,0.201,2.438-0.653
				c-1.71-9.016,0.532-23.827,11.575-25.651C235.629,91.01,236.533,89.63,234.846,89.909L234.846,89.909z"/>
			<path fill="#FBE99F" d="M213.734,134.685c2.482,3.419,1.46,8.726,0.7,12.533c-0.688,3.45-2.339,10.527-6.154,11.889
				c-1.623,0.582-0.111,1.141,0.901,0.779c4.275-1.53,5.975-6.901,7.127-10.818c1.296-4.415,2.644-11.224-0.294-15.275
				C215.606,133.233,213.254,134.023,213.734,134.685L213.734,134.685z"/>
			<path fill="#FBE99F" d="M242.728,105.067c-9.142,1.978-9.847,12.179-11.313,19.797c-0.15,0.776,2.281,0.354,2.421-0.363
				c1.175-6.108,1.588-16.792,9.161-18.429C244.467,105.754,244.171,104.756,242.728,105.067L242.728,105.067z"/>
			<path fill="#FBE99F" d="M229.355,148.899c4.26,5.867-4.592,15.967-8.751,19.578c-0.482,0.42,1.772,0.148,2.195-0.22
				c4.304-3.739,13.378-13.97,8.993-20.01C231.38,147.681,229.203,148.69,229.355,148.899L229.355,148.899z"/>
			<path fill="#FBE99F" d="M290.826,279.541c6.721-0.251,13.461-4.777,16.043-11.012c0.25-0.607-2.127-0.336-2.42,0.368
				c-2.035,4.91-7.168,9.263-12.623,9.468C291.061,278.393,289.193,279.602,290.826,279.541L290.826,279.541z"/>
			<path fill="#FBE99F" d="M319.158,252.141c2.263-7.415,5.556-18.564,13.164-22.099c1.473-0.684-0.788-0.776-1.444-0.472
				c-8.214,3.813-11.702,14.985-14.138,22.953C316.547,253.165,318.947,252.828,319.158,252.141L319.158,252.141z"/>
			<path fill="#FBE99F" d="M342.334,240.026c-7.432,2.083-11.729,7.828-14.293,14.877c-2.885,7.931-3.547,18.935-9.724,25.149
				c-1.042,1.049,1.343,1.179,1.987,0.529c10.596-10.658,5.231-34.34,22.402-39.156C344.18,241.014,343.811,239.61,342.334,240.026
				L342.334,240.026z"/>
			<path fill="#FBE99F" d="M307.979,289.986c-3.808,3.703-8.172,6.377-13.328,7.746c-1.412,0.375-1.233,1.036,0.18,0.66
				c5.854-1.557,10.99-4.407,15.343-8.635C310.64,289.303,308.375,289.604,307.979,289.986L307.979,289.986z"/>
			<path fill="#FBE99F" d="M280.703,305.705c-8.088-3.805-16.406,7.664-20.6,12.814c-7.578,9.307-17.5,22.379-13,35.161
				c0.27,0.769,2.684,0.052,2.436-0.653c-3.495-9.93,2.518-21.271,8.353-29.037c3.544-4.717,13.889-20.459,20.85-17.184
				C279.391,307.111,281.635,306.145,280.703,305.705L280.703,305.705z"/>
			<path fill="#FBE99F" d="M239.984,327.772c-2.941-8.968,2.814-17.956,8.411-24.528c6.612-7.766,17.709-16.756,28.503-16.235
				c0.583,0.028,2.813-1.036,1.555-1.096c-10.23-0.493-19.75,5.777-27.125,12.228c-7.947,6.953-17.484,18.992-13.783,30.284
				C237.766,329.086,240.184,328.382,239.984,327.772L239.984,327.772z"/>
			<path fill="#FBE99F" d="M341.396,362.236c-7.813,11.234-26.208,7.303-37.441,5.141c-5.143-0.988-10.347-2.112-15.584-2.47
				c-2.368-0.16-5.642-0.498-7.564,1.26c-1.02,0.933,1.398,0.802,1.93,0.316c2.719-2.483,13.741,1.007,16.964,1.608
				c5.544,1.037,11.086,2.328,16.706,2.876c8.752,0.854,21.843-0.978,27.242-8.743C344.246,361.364,341.811,361.639,341.396,362.236
				L341.396,362.236z"/>
			<path fill="#FBE99F" d="M329.163,338.456c-5.909-2.101-9.143,3.886-11.438,8.38c-2.678,5.24-5.102,10.283-9.598,14.241
				c-6.197,5.452-12.869,3.51-20.155,3.94c-0.522,0.029-2.628,0.889-1.241,1.277c0.244,0.166,0.488,0.329,0.734,0.496
				c0.57,0.572,2.869-0.328,2.268-0.93c-0.598-0.598-0.684-0.593-1.493-0.821c-0.411,0.426-0.825,0.853-1.239,1.278
				c7.934-0.467,15.047,1.276,21.963-4.059c3.84-2.962,6.502-6.67,8.748-10.947c1.442-2.748,4.995-13.327,9.502-11.725
				C327.907,339.834,330.122,338.797,329.163,338.456L329.163,338.456z"/>
			<path fill="#FBE99F" d="M314.393,368.454c7.616-1.101,14.031-4.799,19.565-10.057c5.177-4.919,4.625-14.958,11.798-18.104
				c1.547-0.679,0.15-1.687-1.01-1.18c-4.514,1.979-6.526,6.453-8.48,10.718c-4.221,9.21-11.077,15.576-21.588,17.096
				C313.438,367.106,312.721,368.695,314.393,368.454L314.393,368.454z"/>
			<path fill="#FBE99F" d="M362.844,295.318c10.514-5.116,12.826-18.309,14.358-28.76c0.171-1.176-2.31-0.815-2.462,0.216
				c-1.393,9.522-3.299,22.52-12.948,27.214C360.288,294.72,361.643,295.901,362.844,295.318L362.844,295.318z"/>
			<path fill="#FBE99F" d="M384.412,275.394c8.388,12.236-9.301,25.438-19.781,27.587c-6.822,1.397-19.34,1.613-23.274,8.596
				c-0.676,1.195,1.804,1.213,2.329,0.281c2.797-4.962,12.428-5.519,17.412-6.451c4.834-0.9,9.865-1.563,14.039-4.363
				c8.036-5.385,18.302-16.805,11.502-26.725C386.017,273.406,383.693,274.346,384.412,275.394L384.412,275.394z"/>
			<path fill="#FBE99F" d="M163.827,202.146c5.152,9.27,19.875,7.955,23.209,18.431c0.186,0.585,2.607-0.119,2.436-0.653
				c-3.367-10.585-18.053-9.155-23.21-18.429C165.917,200.872,163.614,201.767,163.827,202.146L163.827,202.146z"/>
			<path fill="#FBE99F" d="M168.268,224.246c6.573-1.069,11.404,3.781,13.988,9.295c0.351,0.752,2.722-0.045,2.434-0.651
				c-3.032-6.478-8.63-11.023-16.042-9.816C167.559,223.251,166.571,224.523,168.268,224.246L168.268,224.246z"/>
			<path fill="#FBE99F" d="M119.493,175.805c4.555-0.123,9.371,6.699,13.13,8.812c3.777,2.121,7.447,2.491,11.309,0.415
				c1.439-0.775-0.768-0.934-1.468-0.558c-8.682,4.667-14.007-10.1-21.98-9.885C119.692,174.609,117.858,175.848,119.493,175.805
				L119.493,175.805z"/>
			<path fill="#FBE99F" d="M115.167,198.437c6.745,2.244,18.479,6.779,24.246,0.221c0.979-1.112-1.384-1.183-1.979-0.506
				c-4.595,5.225-15.337,0.674-20.803-1.145C115.774,196.723,113.764,197.968,115.167,198.437L115.167,198.437z"/>
			<path fill="#FBE99F" d="M247.493,140.229c1.634-8.841,10.864-15.872,19.878-13.52c0.779,0.204,2.873-0.967,1.493-1.327
				c-10.229-2.666-21.888,4.778-23.81,15.151C244.883,141.478,247.34,141.064,247.493,140.229L247.493,140.229z"/>
			<path fill="#FBE99F" d="M254.318,155.755c-2.876-10.812,12.123-16.297,19.74-19.657c1.555-0.688,0.125-1.471-0.96-0.993
				c-8.144,3.593-24.311,9.673-21.219,21.303C252.108,157.257,254.543,156.604,254.318,155.755L254.318,155.755z"/>
			<path fill="#FBE99F" d="M270.141,80.436c4.096,1.095,8.389,1.341,12.4,2.729c3.682,1.275,5.982,4.096,8.207,7.064
				c1.9,2.529,3.6,5.21,5.22,7.925c0.837,1.406,1.605,2.852,2.303,4.334c0.212,0.466,0.405,0.942,0.577,1.425
				c0.631,1.672-0.199,0.535,1.095,0.789c-1.175-0.23-2.475,1.417-0.852,1.736c6.085,1.188-1.419-10.232-2.116-11.371
				c-2.166-3.524-4.568-7.471-7.672-10.263c-5.018-4.521-11.588-4.333-17.75-5.982C270.533,78.551,268.67,80.041,270.141,80.436
				L270.141,80.436z"/>
			<path fill="#FBE99F" d="M272.377,93.127c7.325-0.412,11.568,6.424,12.955,12.769c0.126,0.587,2.573-0.015,2.434-0.653
				c-1.563-7.183-6.406-13.616-14.354-13.17C272.729,92.11,270.758,93.218,272.377,93.127L272.377,93.127z"/>
			<path fill="#FBE99F" d="M205.465,75.18c4.061,10.383-4.643,15.875-9.536,23.792c-0.127,0.209,2.038,0.125,2.396-0.458
				c4.957-8.02,13.659-13.545,9.577-23.99C207.695,74.002,205.31,74.783,205.465,75.18L205.465,75.18z"/>
			<path fill="#FBE99F" d="M204.588,104.246c11.521,2.69,17.288-18.028,18.339-26.11c0.141-1.084-2.327-0.673-2.449,0.259
				c-0.764,5.867-5.979,26.375-14.432,24.401C205.167,102.591,203.16,103.912,204.588,104.246L204.588,104.246z"/>
			<path fill="#FBE99F" d="M197.552,130.844c-0.12-0.104,0.172,2.416,0.223,3.061c0.226,2.783,0.34,5.576,0.464,8.365
				c0.167,3.721,0.349,7.452,0.384,11.177c0.013,1.274,2.48,0.897,2.469-0.188c-0.043-4.351-0.27-8.708-0.472-13.052
				c-0.098-2.151,0.63-9.172-1.188-10.762C198.625,128.738,196.493,129.917,197.552,130.844L197.552,130.844z"/>
			<path fill="#FBE99F" d="M187.774,124.557c-2.805,5.876-1.479,14.054-0.548,20.235c0.458,3.031,1.52,12.726,6.374,12.157
				c1.332-0.156,1.893-1.929,0.23-1.733c-2.938,0.346-4.297-11.879-4.529-13.633c-0.665-5.044-1.494-11.977,0.795-16.772
				C190.686,123.572,188.223,123.617,187.774,124.557L187.774,124.557z"/>
		</g>
	</g>
</g>
<g id="tomatoes">
	<g>
		<g>
			<g opacity="0.9">
				<path fill="#FA2222" d="M208.329,217.573c-8.997,13.735-11.447,24.864-1.534,39.058c10.163,15.556,26.109,18.245,44.277,17.72
					c36.211-0.19,63.699-41.767,41.885-74.849c-12.764-19.011-33.537-25.031-55.271-14.857c-7.04,2.979-12.215,11.519-17.888,17.334
					c-4.688,5.077-8.509,10.275-11.96,15.965"/>
			</g>
			<g>
				<path fill="#F75F5F" d="M208.632,250.963c-18.013-9.448,15.007-49.096,24.103-55.942c10.698-8.055,23.818-19.577,36.503-9.407
					c5.81,5.489,9.479,12.589,14.751,18.477c5.273,5.892,9.105,8.758,9.704,17.347c0.662,17.576-10.509,35.027-24.677,44.048
					c-8.813,4.992-14.927,4.666-24.48,1.996c-8.086-2.948-18.06-2.835-26.151-5.785c-4.901-2.062-9.918-6.499-11.079-11.382"/>
			</g>
			<g>
				<path fill="#FA2222" d="M242.328,202.708c-0.462,8.463,7.396,14.932,14.974,16.489c0.876-6.214-7.811-17.184-14.43-16.9"/>
			</g>
			<g>
				<path fill="#FA2222" d="M230.891,218.151c5.27,7.564,11.143,10.829,20.006,6.72c-4.784-4.085-14.9-13.554-20.756-6.583"/>
			</g>
			<g>
				<path fill="#FA2222" d="M219.866,234.139c3.631,8.797,17.283,10.478,23.961,4.597c-5.604-5.176-18.725-14.093-24.234-4.391"/>
			</g>
			<g>
				<path fill="#FA2222" d="M254.217,239.026c-2.116,8.526,9.746,15.069,16.902,13.948l0,0l0,0
					c-1.711-5.111-8.984-20.441-15.963-14.121"/>
			</g>
			<g>
				<path fill="#FA2222" d="M260.854,230.553c4.712,6.999,11.293,16.475,20.955,15.305l0,0c-2.403-5.404-3.038-12.144-8.981-14.883
					c-2.664-1.324-10.203-1.754-11.352-0.334"/>
			</g>
			<g>
				<path fill="#FA2222" d="M266.958,219.745c7.411,4.74,13.542,6.289,20.978,0.601l0,0c-6.803-1.979-13.76-5.952-20.426-0.723"/>
			</g>
			<g>
				<g>
					<path fill="#FBA955" d="M232.188,226.487c-7.824,3.381-2.396-8.917,0.836-0.404"/>
				</g>
				<g>
					<path fill="#FBA955" d="M236.156,219.732c-8.632,1.537,0.082-6.748,0.555-0.081"/>
				</g>
				<g>
					<path fill="#FBA955" d="M239.838,213.866c-7.234,1.051,0.947-9.403,0.277,0.239"/>
				</g>
				<g>
					<path fill="#FBA955" d="M243.521,207.995c-5.513-3.689,5.636-6.433,0.837-0.401"/>
				</g>
				<g>
					<path fill="#FBA955" d="M234.35,231.225c-1.387-0.08-5.842,0.567-5.318,3.299c1.07,3.216,5.566-0.809,5.862-2.254"/>
				</g>
				<g>
					<path fill="#FBA955" d="M237.334,237.248c-1.69,1.93-3.678,5.309-5.607,4.184c1.42-2.731,3.66-4.182,5.896-5.069"/>
				</g>
				<g>
					<path fill="#FBA955" d="M251.06,204.936C257.785,200.027,248.68,194.894,251.06,204.936"/>
				</g>
				<g>
					<path fill="#FBA955" d="M258.537,206.936c1.966-1.69,2.824-3.78,1.174-5.222c-2.514,1.206-1.441,4.419-1.739,5.868"/>
				</g>
				<g>
					<path fill="#FBA955" d="M255.305,244.461c0.809,1.848,1.902,3.374,3.849,3.371c-0.257-1.93-1.638-2.572-3.3-2.891"/>
				</g>
				<g>
					<path fill="#FBA955" d="M260.36,239.795c1.657,0.883,3.554,4.818,5.521,3.127c3.076-1.848-2.172-4.175-4.693-2.403"/>
				</g>
				<g>
					<path fill="#FBA955" d="M266.559,232.72c7.449,4.25,7.264-3.305-0.283,0.32"/>
				</g>
				<g>
					<path fill="#FBA955" d="M270.813,225.644C277.696,230.538,276.412,222.024,270.813,225.644"/>
				</g>
				<g>
					<path fill="#FBA955" d="M273.105,219.695c6.625,3.529,7.58-6.434-0.558,0.08"/>
				</g>
				<g>
					<path fill="#FBA955" d="M269.84,213.995c2.221,0.238,5.008-0.729,6.152-3.142c2.273-4.259-3.616,0.247-4.754,2.66"/>
				</g>
				<g>
					<path fill="#FBA955" d="M251.951,246.07c0.801,2.408-0.619,5.143-2.857,6.592c-1.367-1.768,0.336-4.82,2.301-6.511"/>
				</g>
			</g>
		</g>
		<path opacity="0.9" fill="#FA2222" enable-background="new    " d="M231.688,250.084c-3.817,3.447-9.016-1.736-10.156-5.022
			c-0.97-2.792-0.814-5.997-0.854-8.906c-0.035-2.517-0.373-5.058-0.325-7.569c0.065-3.429,2.112-6.575,3.983-9.288
			c3.38-4.906,6.466-10.09,10.464-14.524c3.031-3.361,6.845-6.078,11.119-7.58c4.666-1.642,9.884-0.189,14.39,1.21
			c7.673,2.388,1.389,8.743-1.889,11.857c-3.271,3.109-6.156,6.028-8.699,9.798c-4.033,5.976-6.769,12.729-11.459,18.267
			c-2.881,3.4-6.199,7.055-6.667,11.67c-0.081,0.816,1.575,0.575,1.647-0.135c0.447-4.408,3.627-7.837,6.373-11.083
			c2.863-3.382,5.043-7.18,7.219-11.032c2.389-4.229,4.776-8.421,7.893-12.176c1.947-2.345,4.471-4.263,6.645-6.395
			c2.578-2.532,6.297-6.634,3.084-10.049c-1.937-2.059-5.895-2.764-8.479-3.218c-4.214-0.74-7.948-0.633-11.996,0.792
			c-6.413,2.255-11.798,8.319-15.404,13.825c-3.93,6-9.753,12.074-9.897,19.619c-0.106,5.601-0.424,13.757,2.804,18.587
			c2.339,3.498,8.449,4.615,11.56,1.806C233.789,249.863,232.199,249.622,231.688,250.084L231.688,250.084z"/>
		<path opacity="0.9" fill="#FA2222" enable-background="new    " d="M246.051,252.169c8.786-4.997,11.593-15.41,16.033-23.815
			c3.189-6.04,5.245-12.67,8.621-18.586c5.59-9.787,9.127,2.399,9.942,6.333c2.603,12.561,1.062,23.596-7.437,33.686
			c-4.695,5.575-10.229,8.191-17.268,6.878c-1.355-0.252-12.104-2.437-9.361-5.244c0.438-0.448-1.176-0.311-1.5,0.021
			c-3.803,3.893,13.791,7.223,16.504,6.634c15.656-3.4,23.807-22.159,21.612-36.703c-0.896-5.937-3.272-21.878-12.241-13.861
			c-2.373,2.123-3.706,5.914-4.803,8.794c-1.756,4.607-3.971,9.028-6.27,13.379c-4.119,7.799-6.65,17.453-14.815,22.099
			C244.115,252.327,245.578,252.438,246.051,252.169L246.051,252.169z"/>
		<g>
			<g opacity="0.9">
				<path fill="#FA2222" d="M146.824,227.863c-7.735,11.807-9.84,21.371-1.32,33.574c8.736,13.367,22.445,15.68,38.06,15.229
					c31.128-0.164,54.754-35.901,36.004-64.34c-10.973-16.339-28.83-21.512-47.511-12.769c-6.051,2.561-10.5,9.9-15.378,14.902
					c-4.029,4.364-7.314,8.831-10.279,13.724"/>
			</g>
			<g>
				<path fill="#F75F5F" d="M143.04,245.845c2.102,8.339,8.381,14.182,15.905,17.796c9.565,4.662,18.792,7.209,29.274,6.437
					c8.397-0.499,17.192-5.177,22.789-11.333c5.332-5.955,7.746-12.733,8.043-20.937c0.25-6.878-0.801-14.933-3.142-21.369
					c-2.768-7.836-12.689-11.586-19.869-13.083c-3.897-0.735-7.156-1.734-11.019-0.766c-3.969,0.831-8.071,1.761-11.654,3.38
					c-8.306,3.664-15.044,10.247-20.836,16.979c-3.508,3.936-5.046,8.548-7.432,13.146c-0.948,1.793-1.126,3.221-1.6,5.086
					c-0.311,1.53-1.657,3.624-0.622,5"/>
			</g>
			<path opacity="0.9" fill="#FA2222" enable-background="new    " d="M151.295,251.101c4.08,3.85,11.035,9.182,16.829,9.731
				c3.77,0.357,7.414,1.076,11.206,0.901c4.328-0.198,8.281-2.437,12.747-2.567c4.933-0.144,8.94-1.449,12.102-5.348
				c2.959-3.646,7.012-12.135,5.16-16.908c-1.03-2.654-6.341-1.14-8.128-0.679c-1.725,0.445-3.4,1.108-5.054,1.766
				c-6.448,2.558-12.789,3.347-19.625,3.72c-3.702,0.203-29.294,1.519-25.269,9.342c0.144,0.281,1.196-0.109,1.102-0.295
				c-3.816-7.418,25.292-8.668,29.402-8.854c3.959-0.179,7.622-1.169,11.358-2.419c3.947-1.319,10.857-5.355,14.694-2.798
				c3.132,2.087-1.278,10.839-2.39,13.332c-2.367,5.313-6.656,8.344-12.882,8.684c-1.681,0.092-3.622-0.078-5.272,0.399
				c-7.232,2.093-15.464,3.013-22.627-0.063c-4.25-1.821-8.972-5.165-12.316-8.324C152.116,250.517,151.116,250.93,151.295,251.101
				L151.295,251.101z"/>
			<path opacity="0.9" fill="#FA2222" enable-background="new    " d="M155.585,237.732c2.226,0.777,4.083,0.46,6.314-0.229
				c4.656-1.436,8.227-3.99,13.208-4.841c7.87-1.343,15.986-0.646,23.892-1.665c4.989-0.643,9.577-2.635,11.931-7.275
				c1.75-3.45-0.038-6.64-3.409-8.036c-9.533-3.949-22.503-2.709-31.772,1.036c-6.184,2.499-11.838,6.802-16.358,11.666
				c-1.531,1.646-6.98,7.356-3.359,9.262c0.411,0.216,1.384-0.342,0.854-0.622c-3.341-1.758,3.494-8.481,4.944-9.909
				c5.264-5.181,11.626-9.088,18.666-11.304c7.562-2.381,18.08-2.381,25.632,0.282c5.134,1.809,5.196,6.329,1.991,10.203
				c-3.883,4.691-12.117,4.32-17.634,4.504c-5.648,0.19-11.401,0.419-16.975,1.37c-5.394,0.922-11.806,6.744-17.281,4.837
				C155.773,236.852,154.932,237.504,155.585,237.732L155.585,237.732z"/>
			<g>
				<g>
					<path fill="#FBA955" d="M167.048,224.708c-7.792-3.093,4.892-7.194,0.866,0.306"/>
				</g>
				<g>
					<path fill="#FBA955" d="M174.689,223.118c-6.995-4.796,4.994-4.185,0.438,0.32"/>
				</g>
				<g>
					<path fill="#FBA955" d="M181.486,221.89c-5.691-4.166,7.519-5.27,0.013,0.335"/>
				</g>
				<g>
					<path fill="#FBA955" d="M188.282,220.66c-1.049-5.991,8.54-0.277,0.866,0.306"/>
				</g>
				<g>
					<path fill="#FBA955" d="M165.057,229.126c-0.887-0.974-4.39-3.54-6.03-1.476c-1.622,2.732,4.377,3.206,5.637,2.493"/>
				</g>
				<g>
					<path fill="#FBA955" d="M162.684,234.896c-2.563,0.086-6.382,0.881-6.875-1.111c2.966-0.769,5.55-0.184,7.716,0.748"/>
				</g>
				<g>
					<path fill="#FBA955" d="M195.652,223.769C203.818,225.175,201.375,215.879,195.652,223.769"/>
				</g>
				<g>
					<path fill="#FBA955" d="M199.274,230.012c2.573,0.25,4.686-0.488,4.62-2.494c-2.596-0.921-4.214,1.812-5.476,2.523"/>
				</g>
				<g>
					<path fill="#FBA955" d="M169.637,251.414c-0.8,1.698-1.172,3.385,0.155,4.681c1.233-1.38,0.764-2.703-0.135-4.015"/>
				</g>
				<g>
					<path fill="#FBA955" d="M176.488,251.857c0.483,1.658-1.104,5.395,1.468,5.645c3.447,0.891,1.577-4.071-1.435-4.641"/>
				</g>
				<g>
					<path fill="#FBA955" d="M185.879,251.549c1.958,7.64,7.357,2.771-0.428,0.014"/>
				</g>
				<g>
					<path fill="#FBA955" d="M193.948,249.945C195.053,257.613,200.404,251.405,193.948,249.945"/>
				</g>
				<g>
					<path fill="#FBA955" d="M199.856,247.742c1.93,6.634,9.863,1.014-0.436-0.321"/>
				</g>
				<g>
					<path fill="#FBA955" d="M201.804,241.985c1.335,1.631,3.943,2.883,6.481,2.131c4.663-1.159-2.64-2.257-5.179-1.503"/>
				</g>
				<g>
					<path fill="#FBA955" d="M166.176,250.188c-1.214,2.05-4.179,2.816-6.764,2.232c0.363-2.023,3.755-2.805,6.328-2.553"/>
				</g>
			</g>
			<g opacity="0.9">
				<path fill="#FA2222" d="M165.605,244.994c1.202,4.443,10.38,4.313,13.972,4.821c6.613,0.729,12.423-1.507,16.802-6.586
					c-8.101-4.603-23.999-1.553-31.401,1.88"/>
			</g>
			<g opacity="0.9">
				<path fill="#FA2222" d="M168.658,231.993c3.708,1.133,7.181-0.412,10.543-1.159c4.898-1.549,10.201-1.613,14.47-4.472
					c-9.245-6.596-18.301-2.988-24.557,5.286"/>
			</g>
		</g>
	</g>
</g>
</svg>
