<?xml version="1.0" encoding="utf-8"?>
<!-- Generator: Adobe Illustrator 16.0.0, SVG Export Plug-In . SVG Version: 6.00 Build 0)  -->
<!DOCTYPE svg PUBLIC "-//W3C//DTD SVG 1.1//EN" "http://www.w3.org/Graphics/SVG/1.1/DTD/svg11.dtd">
<svg version="1.1" id="Ebene_1" xmlns="http://www.w3.org/2000/svg" xmlns:xlink="http://www.w3.org/1999/xlink" x="0px" y="0px"
	 width="450px" height="450px" viewBox="0 0 450 450" enable-background="new 0 0 450 450" xml:space="preserve">
<g>
	<g>
		<g>
			<path fill="#F69333" d="M217.907,218.604c-4.032-1.308-7.949-2.396-11.633-3.198l-19.54-8.215l-5.29,12.806
				c0,0,0.119,0.073,0.331,0.202c-1.096,6.267,7.916,15.233,19.337,21.488l26.486-18.655
				C224.613,221.26,221.352,219.723,217.907,218.604z"/>
			<path fill="#F16122" d="M244.602,243.517l3.792-10.408l-15.588-6.552c-1.613-1.239-3.358-2.428-5.207-3.525l-26.486,18.655
				c2.705,1.482,5.543,2.816,8.42,3.923C226.336,252.073,243.23,249.127,244.602,243.517z"/>
		</g>
		<path fill="#F3B231" d="M186.735,207.191c-5.913,7.405,9.784,21.548,26.588,28.011c16.803,6.464,33.699,3.518,35.071-2.093
			c1.373-5.609-10.705-19.718-26.695-24.912S191.466,201.269,186.735,207.191z"/>
		<path fill="#EDA01E" d="M202.964,215.371c0.577-1.578,9.314-1.751,13.427-0.394c4.114,1.358,14.604,6.787,13.228,9.815
			c-1.383,3.028-8.036,3.828-12.846,1.834C211.962,224.634,201.816,218.516,202.964,215.371z"/>
	</g>
	<g>
		<g>
			<path fill="#F69333" d="M228.138,266.741c-4.056,1.231-7.893,2.577-11.374,4.023l-20.729,4.427l2.978,13.531
				c0,0,0.14-0.008,0.388-0.023c2.682,5.769,15.201,7.977,28.148,6.583l11.073-30.446
				C235.157,265.089,231.604,265.691,228.138,266.741z"/>
			<path fill="#F16122" d="M264.281,271.929l-2.837-10.708l-16.536,3.532c-2.031-0.096-4.143-0.073-6.287,0.082l-11.073,30.446
				c3.066-0.33,6.158-0.857,9.151-1.594C254.182,289.389,266.361,277.317,264.281,271.929z"/>
		</g>
		<path fill="#F3B231" d="M196.034,275.191c-0.62,9.456,20.344,12.09,37.826,7.79c17.482-4.298,29.664-16.372,27.584-21.76
			c-2.079-5.388-20.053-10.063-36.144-5.187C209.211,260.91,196.533,267.628,196.034,275.191z"/>
		<path fill="#EDA01E" d="M214.028,272.628c-0.429-1.625,6.643-6.76,10.793-7.996c4.152-1.236,15.863-2.776,16.464,0.495
			c0.597,3.275-4.406,7.734-9.493,8.847C226.705,275.087,214.883,275.866,214.028,272.628z"/>
	</g>
	<g>
		<path fill="#F69333" d="M254.719,179.189l-4.44-8.094l-12.472,6.114c-4.29,0.849-8.84,2.434-12.972,4.915
			c-2.986,1.791-5.771,3.637-8.255,5.493l-15.632,7.664l5.126,10.349c0,0,0.109-0.035,0.302-0.096
			c4.101,5.113,19.096,2.859,30.766-3.32C250.211,195.293,257.471,183.135,254.719,179.189z"/>
		<path fill="#F3B231" d="M200.948,195.282c1.428,7.764,18.684,5.76,31.755-1.162c13.069-6.921,20.329-19.079,17.575-23.024
			c-2.752-3.944-18.039-4.179-29.883,2.935C208.556,181.143,199.807,189.07,200.948,195.282z"/>
		<path fill="#EDA01E" d="M214.779,189.663c-0.673-1.229,3.925-6.772,6.983-8.591s12.089-5.371,13.23-2.844
			c1.144,2.528-1.942,7.118-5.773,9.021C225.388,189.15,216.118,192.111,214.779,189.663z"/>
	</g>
	<g>
		<path fill="#F69333" d="M201.356,204.715l-4.44-8.094l-12.472,6.114c-4.29,0.849-8.84,2.434-12.972,4.915
			c-2.986,1.791-5.771,3.637-8.255,5.493l-15.632,7.664l5.126,10.349c0,0,0.109-0.035,0.302-0.096
			c4.101,5.113,19.096,2.859,30.766-3.32C196.848,220.818,204.108,208.661,201.356,204.715z"/>
		<path fill="#F3B231" d="M147.585,220.807c1.428,7.764,18.684,5.76,31.755-1.162c13.069-6.921,20.329-19.079,17.575-23.024
			c-2.752-3.944-18.039-4.179-29.883,2.935C155.193,206.669,146.444,214.595,147.585,220.807z"/>
		<path fill="#EDA01E" d="M161.415,215.188c-0.673-1.229,3.925-6.772,6.983-8.591s12.089-5.371,13.23-2.844
			c1.144,2.528-1.942,7.118-5.773,9.021C172.025,214.676,162.755,217.636,161.415,215.188z"/>
	</g>
	<g>
		<path fill="#F19154" d="M216.183,167.103l3.005-9.854l-3.819,0.268c-5.523-1.066-11.714-1.382-17.837-0.425
			c-4.427,0.691-8.638,1.541-12.495,2.55l-22.337,1.564l1.096,14.811c0,0,0.148,0.012,0.409,0.034
			c1.468,4.929,9.105,8.55,18.674,10.235l32.07-15.068L216.183,167.103z"/>
		<path fill="#EE7C32" d="M202.468,186.988c18.925-1.92,33.462-12.891,32.091-18.924l-1.371-11.794l-14,0.979l-3.005,9.854
			l-1.234,4.115l-32.07,15.068C188.988,187.365,195.883,187.656,202.468,186.988z"/>
		<path fill="#F3B231" d="M162.699,161.207c-2.057,9.942,19.473,15.907,38.398,13.987c18.924-1.919,33.461-12.89,32.09-18.924
			s-19.474-13.713-37.027-10.971S164.346,153.253,162.699,161.207z"/>
		<path fill="#EDA01E" d="M181.898,161.207c-0.206-1.791,7.955-6.171,12.48-6.856s17.002-0.548,17.141,3.017
			c0.139,3.566-5.76,7.542-11.244,7.954C194.789,165.732,182.31,164.772,181.898,161.207z"/>
	</g>
	<g>
		<path fill="#F19154" d="M215.046,313.788l6.81-6.227l-3.066-1.535c-3.772-3.341-8.401-6.406-13.558-8.461
			c-3.729-1.486-7.363-2.752-10.796-3.733l-17.935-8.98l-5.909,11.918c0,0,0.109,0.077,0.299,0.213
			c-1.116,4.471,3.122,10.744,9.729,16.408l31.597,3.008L215.046,313.788z"/>
		<path fill="#EE7C32" d="M195.404,322.864c15.466,7.149,31.677,5.321,33.371,0.045l4.322-9.719l-11.241-5.629l-6.81,6.227
			l-2.829,2.61l-31.597-3.008C184.84,317.008,190.023,320.376,195.404,322.864z"/>
		<path fill="#F3B231" d="M176.501,284.851c-6.12,6.728,7.759,21.145,23.225,28.295c15.465,7.15,31.675,5.322,33.371,0.044
			c1.693-5.277-8.761-19.453-23.544-25.343C194.77,281.956,181.398,279.47,176.501,284.851z"/>
		<path fill="#EDA01E" d="M191.302,293.606c0.658-1.474,8.947-1.129,12.749,0.406c3.801,1.535,13.358,7.331,11.839,10.143
			c-1.52,2.813-7.88,3.188-12.296,1.004C199.177,302.974,189.994,296.544,191.302,293.606z"/>
	</g>
	<g>
		<path fill="#F69333" d="M198.644,267.036l3.326-11.397l-16.899-5.782c-4.675-3.133-10.253-5.831-16.267-7.332
			c-4.346-1.085-8.558-1.94-12.504-2.512l-21.187-7.249l-4.751,14.071c0,0,0.133,0.068,0.363,0.189
			c-0.924,8.378,14.762,19.967,30.994,24.961C179.902,277.58,197.56,273.128,198.644,267.036z"/>
		<path fill="#F3B231" d="M135.114,232.763c-5.763,8.359,11.75,22.229,29.933,27.824c18.179,5.594,35.841,1.143,36.924-4.949
			s-12.604-20.208-29.843-24.511S139.725,226.076,135.114,232.763z"/>
		<path fill="#EDA01E" d="M152.8,240.233c0.509-1.73,9.729-2.591,14.165-1.461c4.435,1.129,15.878,6.109,14.618,9.447
			c-1.262,3.338-8.241,4.707-13.455,2.952C162.915,249.418,151.791,243.677,152.8,240.233z"/>
	</g>
	<g>
		<path fill="#F69333" d="M193.735,162.757l-5.381-9.682l-15.16,7.486c-5.215,1.066-10.745,3.021-15.769,6.05
			c-3.629,2.188-7.017,4.437-10.037,6.694l-19.005,9.386l6.211,12.383c0,0,0.133-0.042,0.369-0.116
			c4.971,6.101,23.195,3.227,37.382-4.331C188.235,182.163,197.074,167.469,193.735,162.757z"/>
		<path fill="#F3B231" d="M128.383,182.691c1.723,9.318,22.691,6.719,38.581-1.745c15.892-8.465,24.729-23.159,21.39-27.871
			c-3.338-4.713-21.91-4.826-36.309,3.855C137.646,165.61,127.007,175.236,128.383,182.691z"/>
		<path fill="#EDA01E" d="M145.196,175.784c-0.816-1.471,4.776-8.186,8.495-10.404c3.722-2.219,14.694-6.59,16.081-3.564
			c1.383,3.028-2.37,8.579-7.027,10.907C158.087,175.052,146.819,178.712,145.196,175.784z"/>
	</g>
	<g>
		<path fill="#F69333" d="M316.749,288.04l-5.758-12.397l-15.065,6.89c-5.233,0.554-10.756,2.132-15.728,5.072
			c-3.596,2.125-6.944,4.357-9.919,6.652l-18.887,8.632l6.686,15.765c0,0,0.132-0.033,0.371-0.093
			c5.224,8.034,23.537,7.122,37.619,0.014C311.839,310.614,320.281,294.175,316.749,288.04z"/>
		<path fill="#F3B231" d="M251.902,304.319c3.074,14.33,24.784,15.861,40.356,7.345c15.577-8.519,22.887-28.137,18.733-36.021
			c-4.152-7.88-23.708-12.836-37.684-3.611C259.334,281.255,249.442,292.857,251.902,304.319z"/>
		<path fill="#EDA01E" d="M268.657,298.362c-1.062-2.403,3.916-10.967,7.529-13.315c3.612-2.349,14.568-6.032,16.434-1.165
			c1.868,4.866-1.33,12.173-5.915,14.44C282.119,300.593,270.761,303.143,268.657,298.362z"/>
	</g>
	<path fill="#F3B231" d="M226.673,239.923c3.908-12.959,13.782-31.678,25.714-37.644c11.931-5.966,22.627-6.994,31.884-3.085
		c9.256,3.907,18.087,18.655,12.548,38.261c-2.674,9.462-5.966,17.072-9.874,23.655s-24.396,9.79-36.82,4.938
		C236.958,260.904,222.765,252.883,226.673,239.923z"/>
	<path fill="#F69333" d="M295.378,210.302c-0.961,1.161-3.076,1.657-6.582,3.086c-5.555,2.263-3.496,0.616-3.496,0.616
		l-45.05,47.313c19.335,13.37,42.974,6.131,46.106,0.854c3.908-6.582,7.788-15.254,10.462-24.716
		C299.675,227.346,298.249,217.006,295.378,210.302z"/>
	<path fill="#8BA532" d="M284.065,214.142c1.944,0.314,5.144,1.166,7.679-0.139c2.536-1.303,12.48-12.479,19.611-27.838
		c7.129-15.359,8.775-21.941,10.421-27.427c1.646-5.485-6.582-6.035-7.131-2.194c-0.547,3.84-11.521,34.009-17.003,39.495
		c-5.487,5.485-12.069,14.262-12.069,14.262S282.12,213.826,284.065,214.142z"/>
	<path fill="#E0E33C" d="M273.23,205.297c1.646-3.84,10.149-11.999,10.149-32.296s-1.099-40.044-1.099-40.044s0-4.388,3.842-4.388
		c3.839,0,3.84,2.194,4.387,5.485c0.549,3.292,4.391,22.491,1.646,39.495c-2.741,17.004-4.868,36.341-8.706,39.632
		c-1.598,1.369-7.078-0.271-8.572-0.754C272.777,211.75,271.584,209.135,273.23,205.297z"/>
	<path fill="#BBCC30" d="M279.47,213.73c0,0,18.72-22.078,22.011-46.763c3.29-24.685,4.937-33.462,4.937-40.044
		s9.874-7.131,9.874,5.485s-2.193,34.559-8.776,49.369s-21.051,32.706-21.051,32.706L279.47,213.73z"/>
	<path fill="#A7B93A" d="M281.185,213.868c-3.484-0.403-6.446-1.372-6.446-1.372c2.779-4.632,13.578-22.49,15.771-40.044
		c2.195-17.553,4.937-27.428,5.487-32.912c0.547-5.485,8.773-3.841,8.228,2.194c-0.55,6.034-1.646,34.559-6.582,46.626
		c-4.938,12.067-8.229,17.553-12.069,21.941C284.37,211.677,283.139,214.094,281.185,213.868z"/>
	<path fill="#BBCC30" d="M286.865,131.186l0.492,2.388c0,0,3.137,37.601,2.467,44.638c-0.41,4.319-2.262,7.405-2.262,7.405
		s-1.234-48.957-2.057-52.455C284.682,129.666,286.865,131.186,286.865,131.186z"/>
	<path fill="#8BA532" d="M308.626,128.341c-0.745-0.569-0.906-1.554-0.494-2.789c0.411-1.234,2.263-2.263,3.085-1.851
		c0.824,0.411,3.317,1.837,2.881,3.291c-0.255,0.836-2.057,1.646-2.057,1.646s-1.284,29.949-2.881,38.056
		c-2.674,13.576-9.667,25.507-9.667,25.507s9.667-17.484,10.285-43.403C310.099,135.218,308.626,128.341,308.626,128.341z"/>
	<path fill="#D24F1D" d="M251.77,214.621c0,0,1.302,3.635,5.553,6.789c4.521,3.354,8.502,4.389,8.502,4.389l-0.272,0.959
		c0,0-5.898-0.686-9.668-3.496c-4.041-3.012-5.76-7.817-5.76-7.817L251.77,214.621z"/>
	<path fill="#EE7C32" d="M252.523,230.598c0,0,5.623,5.622,16.319,6.582s13.577-0.274,13.577-0.274v1.234
		c0,0-5.709,1.089-13.852,0.274c-9.599-0.96-16.593-6.583-16.593-6.583L252.523,230.598z"/>
	<path fill="#EE7C32" d="M239.494,239.511c0,0,2.058,2.469,4.114,3.565s3.566,1.646,3.566,1.646l-1.098,1.098
		c0,0-3.976-1.235-5.21-2.605c-1.235-1.371-2.196-2.605-2.196-2.605L239.494,239.511z"/>
	<path fill="#F3B231" d="M285.573,249.385c0,0-2.604,0.686-4.663,0.548c-2.057-0.137-3.016-0.685-3.016-0.685l-0.412,0.822
		c0,0,1.646,0.96,3.565,1.097c1.921,0.139,4.114-0.822,4.114-0.822L285.573,249.385z"/>
</g>
</svg>
