<?xml version="1.0" encoding="utf-8"?>
<!-- Generator: Adobe Illustrator 16.0.0, SVG Export Plug-In . SVG Version: 6.00 Build 0)  -->
<!DOCTYPE svg PUBLIC "-//W3C//DTD SVG 1.1//EN" "http://www.w3.org/Graphics/SVG/1.1/DTD/svg11.dtd">
<svg version="1.1" id="Ebene_1" xmlns="http://www.w3.org/2000/svg" xmlns:xlink="http://www.w3.org/1999/xlink" x="0px" y="0px"
	 width="450px" height="450px" viewBox="0 0 450 450" enable-background="new 0 0 450 450" xml:space="preserve">
<g>
	<g opacity="0.3">
		<path d="M247.72,229.679c-0.192-5.665,1.96-10.191,6.208-13.791c-0.035-0.334-0.061-0.655-0.063-0.687
			c-0.392-4.121,1.054-7.299,3.829-9.308c-1.713-16.757-13.758-30.188-40.188-29.552c-28.086,0.677-39.929,14.585-40.393,32.733
			l-0.021-0.002v9.92c0,0.835,0.036,1.652,0.092,2.461c0.012,0.172,0.021,0.346,0.034,0.514c0.065,0.792,0.153,1.569,0.271,2.337
			c0.018,0.117,0.039,0.229,0.059,0.344c0.119,0.712,0.26,1.414,0.422,2.107c0.026,0.11,0.048,0.222,0.076,0.335
			c0.184,0.748,0.4,1.481,0.639,2.205c0.041,0.129,0.086,0.255,0.13,0.381c0.513,1.483,1.141,2.909,1.879,4.274
			c0.052,0.098,0.104,0.194,0.158,0.292c0.384,0.687,0.792,1.36,1.233,2.019c0.017,0.022,0.033,0.044,0.049,0.066
			c0.449,0.665,0.932,1.317,1.444,1.946c0.023,0.029,0.046,0.059,0.069,0.091c0.52,0.639,1.076,1.259,1.657,1.861
			c0.035,0.036,0.072,0.074,0.109,0.109c1.188,1.219,2.5,2.358,3.938,3.421c0.028,0.018,0.056,0.038,0.078,0.058
			c3.693,2.709,8.203,4.885,13.515,6.45c0.004,0,0.005,0.002,0.005,0.002v0.002c4.327,1.273,9.173,2.15,14.556,2.568
			c17.877,1.395,29.969-5.936,35.983-16.564C250.446,235.48,247.837,233.137,247.72,229.679z"/>
		<path d="M175.573,214.487c0,18.271,13.502,31.059,39.502,33.082c25.997,2.025,39.502-14.811,39.502-33.082v-8.606l-79.004-1.088
			V214.487z"/>
		<path d="M175.573,205.125v9.362c0,14.575,8.6,25.653,25.275,30.57c4.637-3.498,9.268-7.003,14.423-9.708
			c4.313-2.261,5.06-6.39,3.709-9.877c0.937-0.966,1.859-1.944,2.758-2.946c5.353-5.97,0.295-17.416-8.376-14.387
			c-2.89,1.01-5.613,2.246-8.229,3.652c-0.621-0.673-1.363-1.239-2.208-1.668c0.135-1.738-0.203-3.468-0.928-4.966l-26.146-0.361
			C175.758,204.905,175.659,205.013,175.573,205.125z"/>
		<path d="M254.577,205.881c0,18.271-13.505,35.107-39.502,33.081c-26-2.024-39.502-14.811-39.502-33.081
			c0-18.271,11.49-32.409,39.502-33.083S254.577,187.609,254.577,205.881z"/>
		<path d="M233.675,205.919c0,8.603-6.358,16.53-18.6,15.577c-12.242-0.953-18.603-6.975-18.603-15.577s5.413-15.26,18.603-15.577
			C228.265,190.022,233.675,197.316,233.675,205.919z"/>
		<path d="M168.903,200.96c-4.531,0.108-8.646,0.558-12.362,1.309c-2.261,0.61-4.519,1.233-6.776,1.854
			c-15.297,5.388-21.883,17.103-21.883,31.19v12.516c0,6.311,3.12,14.992,10.585,21.475c12.477,2.971,26.206,2.392,38.368,0.929
			c4.602-0.554,7.484,2.396,8.313,5.892c0.063-0.016,0.127-0.031,0.19-0.047c0.265-0.07,0.53-0.138,0.791-0.209
			c0.399-0.11,0.791-0.228,1.18-0.345c0.263-0.08,0.524-0.157,0.782-0.241c0.376-0.119,0.748-0.245,1.115-0.375
			c0.255-0.089,0.512-0.177,0.763-0.268c0.355-0.133,0.706-0.268,1.053-0.404c0.25-0.1,0.498-0.198,0.742-0.3
			c0.335-0.142,0.665-0.286,0.99-0.433c0.244-0.109,0.485-0.217,0.723-0.331c0.314-0.147,0.626-0.302,0.932-0.458
			c0.234-0.118,0.471-0.239,0.699-0.362c0.295-0.159,0.588-0.317,0.873-0.481c0.227-0.131,0.453-0.262,0.673-0.396
			c0.278-0.167,0.552-0.337,0.817-0.51c0.219-0.138,0.432-0.279,0.647-0.425c0.257-0.172,0.512-0.351,0.76-0.531
			c0.21-0.151,0.416-0.302,0.617-0.458c0.241-0.182,0.478-0.367,0.71-0.553c0.198-0.163,0.391-0.325,0.585-0.49
			c0.223-0.189,0.443-0.382,0.657-0.577c0.188-0.17,0.372-0.344,0.552-0.52c0.205-0.196,0.409-0.396,0.607-0.6
			c0.177-0.181,0.348-0.367,0.519-0.551c0.189-0.204,0.377-0.409,0.555-0.617c0.168-0.194,0.327-0.392,0.487-0.588
			c0.171-0.211,0.341-0.42,0.504-0.634c0.153-0.205,0.303-0.414,0.449-0.621c0.157-0.217,0.31-0.434,0.457-0.651
			c0.143-0.217,0.277-0.434,0.412-0.652c0.139-0.224,0.277-0.444,0.408-0.672c0.131-0.225,0.252-0.455,0.375-0.686
			c0.124-0.228,0.246-0.455,0.362-0.684c0.118-0.24,0.226-0.479,0.334-0.723c0.107-0.232,0.215-0.462,0.315-0.697
			c0.105-0.249,0.201-0.506,0.298-0.759c0.091-0.234,0.182-0.468,0.267-0.707c0.093-0.262,0.175-0.533,0.258-0.8
			c0.076-0.237,0.153-0.473,0.222-0.712c0.079-0.278,0.145-0.563,0.215-0.843c0.061-0.241,0.125-0.477,0.178-0.717
			c0.065-0.296,0.118-0.598,0.173-0.896c0.044-0.238,0.097-0.468,0.134-0.707c0.052-0.321,0.091-0.647,0.131-0.973
			c0.028-0.226,0.063-0.447,0.086-0.675c0.04-0.371,0.063-0.752,0.09-1.13c0.014-0.187,0.035-0.37,0.044-0.559
			c0.028-0.571,0.045-1.149,0.045-1.731v-12.516C209.923,216.339,197.99,200.258,168.903,200.96z"/>
		<path d="M125.627,246.09c0,10.889,9.625,29.104,35.701,29.333c28.463,0.257,43.302-11.063,43.302-29.333v-12.051h-79.003V246.09z"
			/>
		<path d="M204.63,246.09v-12.051h-9.529c-0.999,1.818-1.947,3.67-2.868,5.541c-4.364-0.607-7.781,2.261-9.404,6.248
			c-0.65,1.595-1.298,3.26-1.97,4.948c-2.808,0.531-5.405,2.318-6.639,5.685c-2.478,6.767-7.429,12.395-10.433,18.953
			C190.645,275.008,204.63,263.828,204.63,246.09z"/>
		<path d="M204.63,234.039c0,18.271-13.503,35.108-39.504,33.082c-25.999-2.025-39.499-14.812-39.499-33.082
			c0-18.271,11.488-32.405,39.499-33.081C193.139,200.282,204.63,215.767,204.63,234.039z"/>
		<path d="M183.729,237.596c0,8.602-6.359,16.53-18.603,15.577c-12.241-0.954-18.601-6.976-18.601-15.577
			c0-8.605,5.412-15.262,18.601-15.579C178.317,221.699,183.729,228.991,183.729,237.596z"/>
		<path d="M317.203,168.553c0,7.295,6.451,19.499,23.923,19.654c19.071,0.171,29.014-7.411,29.014-19.654v-8.074h-52.937V168.553z"
			/>
		<path d="M370.14,168.553v-8.074h-6.385c-0.67,1.217-1.305,2.459-1.921,3.712c-2.925-0.406-5.212,1.514-6.301,4.187
			c-0.437,1.068-0.872,2.183-1.32,3.314c-1.882,0.355-3.623,1.555-4.449,3.81c-1.659,4.534-4.977,8.304-6.99,12.7
			C360.769,187.929,370.14,180.438,370.14,168.553z"/>
		<path d="M370.14,160.479c0,12.241-9.048,23.522-26.467,22.167c-17.421-1.358-26.47-9.926-26.47-22.167
			c0-12.242,7.699-21.715,26.47-22.168C362.442,137.859,370.14,148.237,370.14,160.479z"/>
		<path d="M356.137,162.86c0,5.765-4.263,11.076-12.464,10.439c-8.203-0.64-12.466-4.675-12.466-10.439s3.627-10.224,12.466-10.438
			C352.51,152.211,356.137,157.095,356.137,162.86z"/>
		<path d="M235.5,192.408c0,18.271,13.504,31.057,39.504,33.082c25.998,2.023,39.5-14.812,39.5-33.082V183.8l-79.004-1.088V192.408z
			"/>
		<path d="M235.5,183.043v9.365c0,14.574,8.602,25.651,25.275,30.567c4.639-3.496,9.269-7.001,14.425-9.706
			c4.311-2.264,5.057-6.392,3.71-9.88c0.933-0.965,1.856-1.94,2.758-2.943c5.349-5.971,0.293-17.416-8.377-14.388
			c-2.892,1.01-5.613,2.246-8.229,3.653c-0.623-0.674-1.364-1.24-2.21-1.669c0.137-1.738-0.202-3.467-0.927-4.966l-26.146-0.361
			C235.685,182.824,235.588,182.931,235.5,183.043z"/>
		<path d="M314.504,183.8c0,18.271-13.502,35.107-39.5,33.081c-26-2.024-39.504-14.811-39.504-33.081
			c0-18.27,11.491-32.408,39.504-33.083C303.014,150.043,314.504,165.53,314.504,183.8z"/>
		<path d="M293.603,183.837c0,8.604-6.356,16.532-18.599,15.577c-12.242-0.953-18.603-6.973-18.603-15.577
			c0-8.603,5.412-15.258,18.603-15.577C288.193,167.942,293.603,175.234,293.603,183.837z"/>
		<path d="M219.347,271.776c0,10.889,9.626,29.104,35.702,29.334c28.464,0.257,43.301-11.063,43.301-29.334v-12.052h-79.003V271.776
			z"/>
		<path d="M298.35,271.776v-12.052h-9.527c-1,1.82-1.948,3.671-2.867,5.542c-4.366-0.606-7.782,2.261-9.405,6.248
			c-0.65,1.596-1.299,3.26-1.97,4.949c-2.81,0.531-5.405,2.319-6.641,5.684c-2.477,6.768-7.428,12.395-10.432,18.954
			C284.367,300.695,298.35,289.515,298.35,271.776z"/>
		<path d="M298.35,259.724c0,18.271-13.501,35.109-39.501,33.083c-26-2.024-39.502-14.812-39.502-33.083
			c0-18.27,11.489-32.404,39.502-33.079C286.861,225.969,298.35,241.455,298.35,259.724z"/>
		<path d="M277.45,263.282c0,8.603-6.359,16.531-18.602,15.579c-12.242-0.954-18.602-6.977-18.602-15.579s5.412-15.26,18.602-15.577
			C272.038,247.386,277.45,254.679,277.45,263.282z"/>
		<path d="M103.856,164.059c0,15.966,11.8,27.138,34.521,28.908c22.716,1.771,34.518-12.942,34.518-28.908v-7.521l-69.038-0.95
			V164.059z"/>
		<path d="M103.856,155.878v8.182c0,12.736,7.518,22.415,22.087,26.713c4.054-3.056,8.1-6.12,12.604-8.484
			c3.768-1.976,4.421-5.583,3.242-8.63c0.815-0.845,1.623-1.697,2.411-2.574c4.674-5.218,0.255-15.218-7.322-12.572
			c-2.527,0.883-4.903,1.961-7.189,3.192c-0.544-0.588-1.192-1.083-1.931-1.46c0.118-1.518-0.176-3.028-0.81-4.338l-22.847-0.313
			C104.017,155.685,103.933,155.78,103.856,155.878z"/>
		<path d="M172.894,156.538c0,15.965-11.802,30.678-34.518,28.907c-22.721-1.769-34.521-12.942-34.521-28.907
			c0-15.967,10.042-28.32,34.521-28.91C162.852,127.039,172.894,140.571,172.894,156.538z"/>
		<path d="M154.629,156.571c0,7.519-5.557,14.444-16.253,13.613c-10.698-0.834-16.256-6.095-16.256-13.613
			s4.73-13.335,16.256-13.611C149.903,142.679,154.629,149.052,154.629,156.571z"/>
		<path opacity="0.3" d="M143.128,205.911c-4.171,1.094-8.528,0.013-10.299-4.371c-0.724-1.789-0.681-4.064,0.052-6.038
			c-0.055-0.511-0.064-1.03-0.028-1.552c-3.201-1.301-5.267-4.377-5.522-7.463c-0.065-0.003-0.13-0.007-0.194-0.009
			c-5.536-0.194-12.425-0.313-18.608,0.499c-4.295,0.563-7.088-1.951-8.113-5.129c-9.131,5.376-13.153,14.22-13.153,24.513v10.937
			c0,3.207,0.928,7.115,2.981,10.938c2.313-1.121,5.141-1.098,7.788,0.985c3.012,2.371,6.492,4.405,9.958,6.177
			c0.104-1.02,0.173-2.042,0.188-3.071c0.087-5.597,6.235-7.599,10.81-6.108c4.355-0.144,8.688,2.948,7.87,8.73
			c-0.338,2.392-0.783,4.76-1.199,7.132c-0.01,0.562-0.04,1.123-0.067,1.686c0.086-0.005,0.175-0.009,0.262-0.015
			c0.175-0.013,0.355-0.018,0.527-0.031c0.521-0.036,1.024-0.08,1.531-0.128c0.203-0.016,0.41-0.032,0.611-0.053
			c0.476-0.046,0.942-0.103,1.411-0.16c0.219-0.024,0.441-0.049,0.658-0.077c0.446-0.06,0.877-0.123,1.313-0.188
			c0.229-0.036,0.46-0.068,0.688-0.104c0.416-0.069,0.823-0.144,1.229-0.22c0.233-0.043,0.469-0.083,0.697-0.129
			c0.395-0.079,0.775-0.163,1.159-0.248c0.233-0.053,0.469-0.102,0.699-0.155c0.37-0.088,0.731-0.182,1.093-0.275
			c0.231-0.062,0.463-0.12,0.691-0.182c0.347-0.098,0.69-0.2,1.029-0.302c0.229-0.07,0.459-0.138,0.685-0.209
			c0.328-0.105,0.653-0.217,0.976-0.329c0.224-0.077,0.445-0.154,0.665-0.233c0.311-0.114,0.616-0.234,0.919-0.354
			c0.221-0.086,0.436-0.172,0.651-0.261c0.293-0.125,0.58-0.249,0.865-0.379c0.213-0.097,0.423-0.191,0.632-0.289
			c0.274-0.131,0.544-0.266,0.813-0.4c0.203-0.105,0.41-0.209,0.61-0.318c0.258-0.138,0.512-0.275,0.763-0.421
			c0.197-0.112,0.395-0.228,0.588-0.345c0.243-0.144,0.482-0.294,0.715-0.443c0.19-0.122,0.379-0.245,0.563-0.371
			c0.225-0.151,0.449-0.309,0.665-0.465c0.185-0.134,0.365-0.266,0.541-0.4c0.209-0.16,0.417-0.32,0.62-0.484
			c0.174-0.142,0.341-0.282,0.511-0.427c0.195-0.165,0.388-0.335,0.572-0.505c0.167-0.149,0.327-0.302,0.484-0.454
			c0.178-0.174,0.356-0.346,0.528-0.523c0.157-0.158,0.308-0.321,0.456-0.484c0.164-0.176,0.327-0.355,0.483-0.538
			c0.146-0.169,0.287-0.34,0.427-0.513c0.149-0.183,0.297-0.367,0.44-0.554c0.133-0.18,0.264-0.36,0.393-0.543
			c0.136-0.188,0.271-0.378,0.399-0.57c0.125-0.188,0.243-0.377,0.359-0.568c0.12-0.195,0.242-0.39,0.356-0.588
			c0.115-0.196,0.221-0.396,0.328-0.597c0.108-0.199,0.215-0.398,0.315-0.602c0.104-0.207,0.197-0.417,0.292-0.63
			c0.097-0.199,0.19-0.403,0.277-0.609c0.091-0.217,0.175-0.439,0.258-0.662c0.08-0.205,0.161-0.409,0.235-0.619
			c0.081-0.229,0.151-0.463,0.224-0.697c0.066-0.209,0.136-0.413,0.194-0.623c0.07-0.242,0.126-0.492,0.187-0.737
			c0.054-0.208,0.11-0.415,0.158-0.624c0.055-0.259,0.103-0.522,0.151-0.785c0.037-0.205,0.083-0.408,0.114-0.617
			c0.045-0.278,0.079-0.564,0.115-0.849c0.025-0.196,0.055-0.39,0.077-0.59c0.032-0.322,0.054-0.656,0.077-0.986
			c0.012-0.163,0.029-0.323,0.037-0.489c0.025-0.498,0.039-1.004,0.039-1.513v-10.937c0-1.579-0.097-3.135-0.289-4.657
			C153.478,203.083,148.318,204.552,143.128,205.911z"/>
		<path d="M85.29,215.779c0,9.514,8.412,25.43,31.198,25.633c24.872,0.222,37.837-9.667,37.837-25.633V205.25H85.29V215.779z"/>
		<path d="M154.325,215.779V205.25h-8.326c-0.873,1.587-1.701,3.205-2.505,4.841c-3.814-0.53-6.8,1.975-8.217,5.459
			c-0.571,1.394-1.138,2.848-1.723,4.323c-2.455,0.466-4.724,2.028-5.801,4.967c-2.165,5.915-6.492,10.833-9.116,16.564
			C142.107,241.049,154.325,231.278,154.325,215.779z"/>
		<path d="M154.325,205.25c0,15.966-11.799,30.678-34.519,28.907c-22.718-1.77-34.517-12.941-34.517-28.907
			s10.04-28.319,34.517-28.91C144.285,175.75,154.325,189.284,154.325,205.25z"/>
		<path d="M136.064,208.356c0,7.516-5.558,14.444-16.257,13.612c-10.695-0.834-16.253-6.097-16.253-13.612
			c0-7.521,4.729-13.336,16.253-13.613C131.333,194.466,136.064,200.836,136.064,208.356z"/>
		<path d="M293.489,230.585c0,9.514,8.411,25.434,31.198,25.634c24.871,0.224,37.836-9.668,37.836-25.634v-10.529h-69.034V230.585z"
			/>
		<path d="M362.523,230.585v-10.529h-8.325c-0.874,1.587-1.702,3.206-2.506,4.841c-3.813-0.53-6.799,1.975-8.217,5.46
			c-0.57,1.395-1.136,2.849-1.722,4.325c-2.455,0.464-4.725,2.024-5.802,4.968c-2.165,5.912-6.492,10.829-9.116,16.562
			C350.304,255.857,362.523,246.086,362.523,230.585z"/>
		<path d="M362.523,220.055c0,15.964-11.798,30.677-34.517,28.908c-22.72-1.77-34.518-12.944-34.518-28.908
			c0-15.966,10.039-28.319,34.518-28.908C352.484,190.557,362.523,204.09,362.523,220.055z"/>
		<path d="M344.261,223.163c0,7.519-5.558,14.444-16.255,13.611s-16.255-6.093-16.255-13.611c0-7.518,4.729-13.334,16.255-13.613
			C339.532,209.271,344.261,215.645,344.261,223.163z"/>
		<path d="M162.887,156.981c0,15.967,11.801,27.138,34.52,28.908c22.717,1.771,34.519-12.941,34.519-28.908v-7.521l-69.038-0.951
			V156.981z"/>
		<path d="M162.887,148.8v8.182c0,12.736,7.517,22.416,22.086,26.714c4.054-3.056,8.1-6.12,12.605-8.484
			c3.768-1.976,4.42-5.582,3.243-8.631c0.814-0.845,1.621-1.697,2.409-2.574c4.674-5.219,0.258-15.218-7.321-12.57
			c-2.525,0.881-4.904,1.959-7.189,3.19c-0.546-0.588-1.192-1.084-1.931-1.458c0.118-1.521-0.177-3.029-0.811-4.34l-22.848-0.314
			C163.049,148.608,162.963,148.702,162.887,148.8z"/>
		<path d="M231.925,149.461c0,15.964-11.802,30.677-34.519,28.907c-22.719-1.77-34.52-12.943-34.52-28.907
			c0-15.968,10.041-28.32,34.52-28.909C221.882,119.962,231.925,133.493,231.925,149.461z"/>
		<path d="M213.66,149.493c0,7.519-5.558,14.445-16.254,13.612c-10.697-0.832-16.255-6.094-16.255-13.612
			s4.729-13.335,16.255-13.611C208.933,135.601,213.66,141.974,213.66,149.493z"/>
		<path opacity="0.3" d="M231.821,293.823c0.933,0.358,1.859,0.73,2.783,1.113c0.136-0.085,0.273-0.169,0.406-0.255
			c0.189-0.121,0.378-0.243,0.563-0.369c0.225-0.153,0.448-0.307,0.665-0.465c0.185-0.131,0.364-0.266,0.539-0.402
			c0.211-0.157,0.419-0.318,0.62-0.483c0.176-0.138,0.342-0.283,0.513-0.425c0.193-0.168,0.388-0.335,0.573-0.508
			c0.165-0.148,0.326-0.299,0.484-0.452c0.178-0.172,0.357-0.346,0.528-0.523c0.156-0.159,0.307-0.319,0.456-0.483
			c0.164-0.178,0.328-0.357,0.481-0.538c0.149-0.17,0.288-0.342,0.427-0.515c0.148-0.184,0.298-0.366,0.441-0.553
			c0.134-0.18,0.265-0.362,0.393-0.544c0.137-0.189,0.269-0.376,0.399-0.57c0.125-0.187,0.242-0.38,0.358-0.57
			c0.122-0.192,0.244-0.388,0.358-0.585c0.114-0.195,0.22-0.399,0.327-0.6c0.11-0.199,0.216-0.396,0.316-0.596
			c0.103-0.21,0.198-0.42,0.294-0.632c0.094-0.203,0.188-0.403,0.275-0.609c0.09-0.219,0.174-0.44,0.258-0.663
			c0.08-0.206,0.16-0.41,0.234-0.62c0.082-0.229,0.151-0.465,0.225-0.698c0.065-0.207,0.136-0.412,0.193-0.621
			c0.071-0.244,0.127-0.492,0.19-0.737c0.052-0.208,0.106-0.415,0.152-0.628c0.06-0.255,0.104-0.519,0.153-0.78
			c0.037-0.206,0.082-0.41,0.115-0.617c0.047-0.281,0.078-0.565,0.114-0.851c0.025-0.197,0.054-0.391,0.076-0.588
			c0.034-0.327,0.055-0.657,0.078-0.988c0.013-0.163,0.031-0.323,0.037-0.489c0.026-0.498,0.04-1.003,0.04-1.513v-10.936
			c0-16.58-10.427-30.635-35.846-30.02c-25.418,0.612-35.846,13.439-35.846,30.02v6.998c0.885-0.094,1.766-0.191,2.635-0.296
			c6.216-0.748,9.302,4.892,8.412,9.64c0.154,0.148,0.31,0.295,0.459,0.46c9.428,10.421,25.417,11.294,38.436,9.696
			C227.238,289.647,230.235,291.226,231.821,293.823z"/>
		<path d="M172.228,272.946c0,9.512,8.413,25.431,31.199,25.634c24.872,0.224,37.839-9.668,37.839-25.634v-10.531h-69.038V272.946z"
			/>
		<path d="M241.266,272.946v-10.531h-8.325c-0.875,1.588-1.704,3.207-2.508,4.842c-3.814-0.529-6.799,1.976-8.218,5.46
			c-0.57,1.394-1.135,2.849-1.722,4.326c-2.452,0.464-4.723,2.024-5.802,4.967c-2.163,5.913-6.49,10.829-9.116,16.563
			C229.046,298.217,241.266,288.445,241.266,272.946z"/>
		<path d="M241.266,262.415c0,15.966-11.799,30.679-34.52,28.909c-22.719-1.769-34.519-12.943-34.519-28.909
			s10.041-28.317,34.519-28.907C231.226,232.919,241.266,246.449,241.266,262.415z"/>
		<path d="M223.002,265.524c0,7.518-5.558,14.444-16.256,13.611c-10.697-0.835-16.255-6.094-16.255-13.611
			c0-7.52,4.731-13.335,16.255-13.613C218.273,251.633,223.002,258.005,223.002,265.524z"/>
		<path d="M116.444,312.288c0,7.666,6.778,20.49,25.137,20.652c20.038,0.181,30.486-7.788,30.486-20.652v-8.484h-55.623V312.288z"/>
		<path d="M172.067,312.288v-8.484h-6.708c-0.704,1.28-1.373,2.585-2.019,3.902c-3.074-0.429-5.48,1.592-6.622,4.398
			c-0.458,1.122-0.915,2.295-1.387,3.481c-1.977,0.376-3.805,1.636-4.673,4.005c-1.745,4.763-5.23,8.725-7.348,13.344
			C162.221,332.648,172.067,324.776,172.067,312.288z"/>
		<path d="M172.067,303.803c0,12.863-9.506,24.718-27.813,23.292c-18.304-1.424-27.811-10.429-27.811-23.292
			c0-12.864,8.091-22.815,27.811-23.29C163.979,280.038,172.067,290.939,172.067,303.803z"/>
		<path d="M157.351,306.308c0,6.057-4.476,11.639-13.097,10.968c-8.617-0.674-13.097-4.911-13.097-10.968
			s3.813-10.743,13.097-10.968C153.541,295.116,157.351,300.252,157.351,306.308z"/>
		<path opacity="0.3" d="M255.662,204.636c0.124-0.154,0.246-0.306,0.368-0.461c0.112-0.151,0.221-0.303,0.329-0.456
			c0.112-0.156,0.225-0.315,0.332-0.477c0.105-0.157,0.204-0.316,0.302-0.478c0.102-0.162,0.202-0.324,0.3-0.488
			c0.095-0.166,0.185-0.334,0.274-0.502c0.091-0.166,0.18-0.332,0.265-0.501c0.086-0.175,0.164-0.352,0.245-0.526
			c0.079-0.17,0.157-0.34,0.229-0.512c0.077-0.182,0.147-0.369,0.218-0.554c0.068-0.173,0.134-0.345,0.195-0.519
			c0.069-0.191,0.127-0.39,0.188-0.585c0.055-0.174,0.113-0.345,0.162-0.521c0.059-0.203,0.104-0.409,0.158-0.615
			c0.042-0.175,0.09-0.349,0.128-0.524c0.048-0.215,0.089-0.436,0.129-0.654c0.032-0.174,0.07-0.342,0.096-0.517
			c0.038-0.234,0.065-0.473,0.097-0.711c0.021-0.166,0.045-0.326,0.064-0.493c0.026-0.272,0.046-0.551,0.066-0.828
			c0.007-0.135,0.021-0.269,0.03-0.407c0.021-0.417,0.03-0.84,0.03-1.266v-9.152c0-13.875-8.724-25.636-29.995-25.122
			c-21.271,0.512-29.996,11.247-29.996,25.122v9.152c0,8.266,7.308,22.098,27.109,22.275c1.193,0.009,2.35-0.011,3.478-0.055
			c0.099-0.003,0.201-0.005,0.3-0.009c0.474-0.019,0.941-0.046,1.404-0.075c0.148-0.011,0.301-0.018,0.444-0.027
			c0.436-0.029,0.858-0.066,1.282-0.106c0.17-0.015,0.343-0.027,0.51-0.044c0.398-0.04,0.789-0.086,1.181-0.135
			c0.183-0.021,0.37-0.04,0.552-0.063c0.373-0.049,0.734-0.105,1.099-0.159c0.19-0.031,0.387-0.059,0.576-0.088
			c0.347-0.056,0.688-0.118,1.026-0.182c0.196-0.038,0.395-0.072,0.584-0.108c0.332-0.065,0.65-0.139,0.97-0.208
			c0.196-0.045,0.393-0.084,0.587-0.131c0.31-0.074,0.611-0.151,0.913-0.23c0.193-0.049,0.388-0.098,0.579-0.15
			c0.291-0.082,0.578-0.169,0.863-0.253c0.191-0.06,0.382-0.116,0.57-0.176c0.275-0.089,0.548-0.182,0.816-0.273
			c0.188-0.067,0.375-0.133,0.558-0.199c0.259-0.093,0.516-0.195,0.769-0.293c0.186-0.074,0.365-0.146,0.543-0.22
			c0.247-0.104,0.487-0.209,0.726-0.316c0.179-0.079,0.354-0.16,0.528-0.243c0.23-0.107,0.456-0.221,0.681-0.335
			c0.171-0.086,0.344-0.176,0.513-0.265c0.216-0.115,0.428-0.233,0.636-0.352c0.166-0.095,0.332-0.194,0.493-0.288
			c0.204-0.124,0.404-0.249,0.598-0.373c0.161-0.102,0.317-0.206,0.473-0.311c0.188-0.129,0.375-0.26,0.557-0.391
			c0.153-0.109,0.305-0.221,0.453-0.333c0.173-0.136,0.348-0.27,0.519-0.405c0.144-0.117,0.286-0.237,0.427-0.358
			c0.163-0.139,0.325-0.279,0.48-0.422c0.137-0.125,0.272-0.252,0.405-0.38c0.149-0.146,0.299-0.29,0.442-0.438
			c0.131-0.132,0.256-0.267,0.381-0.405c0.138-0.147,0.273-0.297,0.404-0.449C255.427,204.926,255.545,204.782,255.662,204.636z"/>
		<path d="M198.228,190.77c0,7.96,7.038,21.28,26.107,21.45c20.814,0.186,31.663-8.089,31.663-21.45v-8.813h-57.771V190.77z"/>
		<path d="M255.998,190.77v-8.813h-6.966c-0.732,1.328-1.427,2.683-2.098,4.052c-3.19-0.443-5.691,1.652-6.877,4.57
			c-0.478,1.166-0.951,2.381-1.441,3.617c-2.053,0.39-3.952,1.696-4.854,4.156c-1.813,4.949-5.433,9.064-7.63,13.86
			C245.774,211.919,255.998,203.741,255.998,190.77z"/>
		<path d="M255.998,181.958c0,13.36-9.874,25.673-28.886,24.191c-19.013-1.479-28.885-10.831-28.885-24.191
			s8.401-23.697,28.885-24.191C247.597,157.272,255.998,168.597,255.998,181.958z"/>
		<path d="M240.717,184.558c0,6.292-4.651,12.09-13.604,11.391c-8.949-0.697-13.603-5.099-13.603-11.391s3.958-11.161,13.603-11.391
			C236.76,172.933,240.717,178.266,240.717,184.558z"/>
	</g>
	<g>
		<g>
			<g>
				<path fill="#D1C3BD" d="M242.444,227.041c-0.191-5.665,1.961-10.191,6.208-13.791c-0.034-0.334-0.062-0.655-0.063-0.687
					c-0.391-4.121,1.053-7.299,3.829-9.308c-1.713-16.757-13.758-30.188-40.188-29.552c-28.085,0.677-39.929,14.585-40.393,32.733
					l-0.021-0.002v9.92c0,0.835,0.036,1.652,0.092,2.461c0.012,0.172,0.021,0.346,0.034,0.514c0.065,0.792,0.153,1.569,0.271,2.337
					c0.018,0.117,0.039,0.229,0.059,0.344c0.119,0.712,0.26,1.414,0.422,2.107c0.026,0.11,0.048,0.222,0.076,0.335
					c0.184,0.748,0.4,1.481,0.639,2.205c0.041,0.129,0.086,0.255,0.13,0.382c0.513,1.482,1.141,2.908,1.879,4.273
					c0.052,0.098,0.104,0.194,0.158,0.292c0.384,0.687,0.792,1.36,1.233,2.019c0.017,0.022,0.033,0.044,0.049,0.066
					c0.449,0.665,0.932,1.317,1.444,1.946c0.023,0.029,0.046,0.059,0.069,0.091c0.52,0.639,1.076,1.259,1.657,1.861
					c0.035,0.036,0.072,0.074,0.109,0.11c1.188,1.218,2.5,2.357,3.938,3.42c0.028,0.018,0.055,0.038,0.078,0.058
					c3.693,2.709,8.203,4.885,13.515,6.45c0.004,0,0.005,0.002,0.005,0.002v0.002c4.327,1.273,9.173,2.15,14.556,2.568
					c17.877,1.395,29.97-5.936,35.983-16.564C245.169,232.842,242.561,230.499,242.444,227.041z"/>
				<path fill="#ED7C32" d="M170.297,211.848c0,18.271,13.502,31.059,39.502,33.082c25.997,2.025,39.502-14.811,39.502-33.082
					v-8.606l-79.004-1.088V211.848z"/>
				<path fill="#F09054" d="M170.297,202.486v9.362c0,14.575,8.6,25.653,25.275,30.57c4.637-3.498,9.268-7.003,14.423-9.708
					c4.312-2.261,5.06-6.39,3.709-9.877c0.937-0.966,1.859-1.944,2.758-2.946c5.353-5.97,0.295-17.416-8.376-14.386
					c-2.89,1.009-5.613,2.245-8.229,3.651c-0.621-0.673-1.363-1.239-2.208-1.668c0.135-1.738-0.203-3.468-0.928-4.966l-26.146-0.361
					C170.481,202.266,170.383,202.375,170.297,202.486z"/>
				<path fill="#EEA82B" d="M249.301,203.242c0,18.271-13.505,35.107-39.502,33.081c-26-2.024-39.502-14.811-39.502-33.081
					c0-18.271,11.49-32.409,39.502-33.083S249.301,184.97,249.301,203.242z"/>
				<path fill="#DC9137" d="M228.399,203.28c0,8.603-6.358,16.53-18.6,15.577c-12.242-0.953-18.603-6.975-18.603-15.577
					s5.413-15.26,18.603-15.577C222.989,187.384,228.399,194.677,228.399,203.28z"/>
			</g>
			<g>
				<path fill="#D1C3BD" d="M163.626,198.321c-4.531,0.108-8.646,0.558-12.362,1.309c-2.261,0.61-4.519,1.233-6.776,1.854
					c-15.297,5.388-21.883,17.103-21.883,31.19v12.516c0,6.311,3.12,14.992,10.585,21.475c12.477,2.971,26.206,2.392,38.367,0.929
					c4.603-0.554,7.485,2.396,8.314,5.892c0.063-0.016,0.127-0.031,0.19-0.047c0.265-0.07,0.53-0.138,0.791-0.209
					c0.399-0.11,0.791-0.228,1.18-0.345c0.263-0.08,0.524-0.157,0.782-0.241c0.376-0.119,0.748-0.245,1.115-0.375
					c0.255-0.088,0.512-0.177,0.763-0.268c0.355-0.133,0.706-0.268,1.053-0.404c0.25-0.1,0.498-0.198,0.742-0.3
					c0.335-0.142,0.665-0.286,0.991-0.433c0.243-0.109,0.484-0.217,0.722-0.331c0.315-0.147,0.626-0.302,0.932-0.458
					c0.234-0.118,0.471-0.239,0.699-0.362c0.295-0.158,0.587-0.317,0.873-0.481c0.226-0.131,0.453-0.262,0.673-0.396
					c0.278-0.167,0.552-0.337,0.817-0.51c0.22-0.138,0.432-0.279,0.647-0.425c0.257-0.172,0.512-0.351,0.76-0.531
					c0.21-0.151,0.416-0.302,0.617-0.458c0.241-0.182,0.478-0.367,0.71-0.553c0.198-0.163,0.391-0.325,0.585-0.49
					c0.223-0.189,0.443-0.382,0.657-0.577c0.188-0.17,0.372-0.344,0.552-0.52c0.205-0.196,0.409-0.396,0.607-0.6
					c0.177-0.181,0.348-0.367,0.519-0.551c0.189-0.204,0.377-0.409,0.555-0.617c0.168-0.194,0.327-0.392,0.487-0.588
					c0.171-0.211,0.341-0.42,0.504-0.634c0.153-0.205,0.303-0.414,0.449-0.621c0.156-0.217,0.31-0.434,0.457-0.651
					c0.143-0.217,0.277-0.434,0.412-0.652c0.139-0.224,0.277-0.444,0.408-0.672c0.131-0.225,0.252-0.455,0.375-0.686
					c0.124-0.228,0.246-0.455,0.362-0.684c0.118-0.24,0.226-0.479,0.334-0.723c0.107-0.232,0.215-0.462,0.315-0.697
					c0.105-0.249,0.201-0.506,0.298-0.759c0.091-0.234,0.182-0.468,0.267-0.707c0.093-0.262,0.175-0.533,0.258-0.8
					c0.076-0.237,0.153-0.473,0.222-0.712c0.079-0.278,0.145-0.563,0.215-0.843c0.061-0.241,0.125-0.477,0.178-0.717
					c0.065-0.296,0.118-0.598,0.173-0.896c0.044-0.238,0.096-0.468,0.134-0.707c0.052-0.321,0.091-0.647,0.131-0.973
					c0.028-0.226,0.063-0.447,0.086-0.675c0.04-0.371,0.063-0.752,0.09-1.13c0.014-0.187,0.035-0.37,0.044-0.559
					c0.028-0.571,0.045-1.149,0.045-1.731v-12.516C204.647,213.7,192.713,197.619,163.626,198.321z"/>
				<path fill="#F59233" d="M120.351,243.451c0,10.889,9.624,29.104,35.701,29.333c28.463,0.257,43.302-11.063,43.302-29.333V231.4
					h-79.003V243.451z"/>
				<path fill="#F06122" d="M199.354,243.451V231.4h-9.529c-0.999,1.818-1.947,3.67-2.868,5.541
					c-4.364-0.607-7.781,2.261-9.404,6.248c-0.65,1.595-1.298,3.26-1.97,4.948c-2.808,0.531-5.405,2.319-6.639,5.685
					c-2.478,6.768-7.429,12.395-10.434,18.953C185.368,272.369,199.354,261.189,199.354,243.451z"/>
				<path fill="#F2B131" d="M199.354,231.4c0,18.271-13.503,35.109-39.504,33.082c-25.999-2.025-39.499-14.812-39.499-33.082
					c0-18.271,11.488-32.405,39.499-33.081C187.863,197.643,199.354,213.129,199.354,231.4z"/>
				<path fill="#EC9F1E" d="M178.452,234.958c0,8.602-6.359,16.53-18.603,15.577c-12.241-0.954-18.601-6.976-18.601-15.577
					c0-8.605,5.412-15.262,18.601-15.579C173.04,219.06,178.452,226.352,178.452,234.958z"/>
			</g>
			<g>
				<path fill="#F59233" d="M311.927,165.915c0,7.295,6.451,19.499,23.923,19.654c19.071,0.171,29.014-7.411,29.014-19.654v-8.074
					h-52.937V165.915z"/>
				<path fill="#F06122" d="M364.864,165.915v-8.074h-6.385c-0.67,1.217-1.305,2.459-1.921,3.712
					c-2.925-0.406-5.212,1.514-6.301,4.187c-0.437,1.068-0.872,2.184-1.321,3.314c-1.881,0.355-3.622,1.555-4.448,3.81
					c-1.659,4.534-4.977,8.304-6.99,12.7C355.492,185.291,364.864,177.8,364.864,165.915z"/>
				<path fill="#F2B131" d="M364.864,157.841c0,12.241-9.048,23.522-26.467,22.167c-17.421-1.358-26.47-9.926-26.47-22.167
					c0-12.242,7.699-21.715,26.47-22.167C357.165,135.22,364.864,145.598,364.864,157.841z"/>
				<path fill="#EC9F1E" d="M350.861,160.221c0,5.765-4.263,11.076-12.464,10.439c-8.203-0.64-12.466-4.675-12.466-10.439
					s3.627-10.224,12.466-10.438C347.234,149.572,350.861,154.457,350.861,160.221z"/>
			</g>
			<g>
				<path fill="#ED7C32" d="M230.224,189.769c0,18.271,13.504,31.057,39.504,33.082c25.997,2.023,39.5-14.812,39.5-33.082v-8.608
					l-79.004-1.088V189.769z"/>
				<path fill="#F09054" d="M230.224,180.404v9.365c0,14.574,8.602,25.651,25.275,30.567c4.639-3.496,9.269-7.001,14.425-9.706
					c4.311-2.264,5.057-6.392,3.71-9.88c0.933-0.965,1.856-1.94,2.757-2.943c5.35-5.971,0.294-17.415-8.376-14.388
					c-2.892,1.01-5.613,2.246-8.228,3.653c-0.624-0.674-1.365-1.24-2.211-1.669c0.137-1.738-0.202-3.467-0.927-4.966l-26.146-0.361
					C230.408,180.185,230.312,180.293,230.224,180.404z"/>
				<path fill="#F2B131" d="M309.228,181.161c0,18.271-13.503,35.107-39.5,33.081c-26-2.024-39.504-14.811-39.504-33.081
					c0-18.27,11.491-32.408,39.504-33.083C297.738,147.404,309.228,162.891,309.228,181.161z"/>
				<path fill="#D78A1A" d="M288.326,181.198c0,8.604-6.357,16.532-18.599,15.577c-12.242-0.953-18.603-6.973-18.603-15.577
					c0-8.603,5.412-15.258,18.603-15.577C282.916,165.303,288.326,172.595,288.326,181.198z"/>
			</g>
			<g>
				<path fill="#F09054" d="M214.071,269.137c0,10.889,9.626,29.104,35.702,29.334c28.464,0.257,43.301-11.063,43.301-29.334
					v-12.052h-79.003V269.137z"/>
				<path fill="#F06122" d="M293.073,269.137v-12.052h-9.527c-0.999,1.82-1.948,3.671-2.867,5.542
					c-4.366-0.606-7.782,2.261-9.405,6.248c-0.65,1.596-1.299,3.26-1.97,4.949c-2.81,0.531-5.405,2.319-6.641,5.684
					c-2.477,6.768-7.428,12.395-10.432,18.954C279.091,298.056,293.073,286.877,293.073,269.137z"/>
				<path fill="#F2B131" d="M293.073,257.086c0,18.271-13.501,35.109-39.501,33.083c-26-2.024-39.502-14.812-39.502-33.083
					c0-18.27,11.489-32.404,39.502-33.079C281.584,223.331,293.073,238.816,293.073,257.086z"/>
				<path fill="#EC9F1E" d="M272.174,260.643c0,8.603-6.359,16.531-18.602,15.579c-12.242-0.954-18.602-6.977-18.602-15.579
					s5.412-15.26,18.602-15.577C266.762,244.748,272.174,252.041,272.174,260.643z"/>
			</g>
			<g>
				<path fill="#ED7C32" d="M98.579,161.421c0,15.966,11.8,27.138,34.521,28.908c22.716,1.771,34.518-12.942,34.518-28.908v-7.521
					l-69.038-0.95V161.421z"/>
				<path fill="#F09054" d="M98.579,153.239v8.182c0,12.736,7.518,22.415,22.087,26.713c4.054-3.056,8.1-6.12,12.604-8.484
					c3.769-1.976,4.422-5.583,3.243-8.629c0.815-0.846,1.623-1.698,2.411-2.575c4.674-5.218,0.255-15.218-7.322-12.572
					c-2.527,0.883-4.903,1.961-7.189,3.192c-0.544-0.588-1.192-1.083-1.931-1.46c0.118-1.518-0.176-3.028-0.81-4.338l-22.847-0.313
					C98.74,153.047,98.656,153.141,98.579,153.239z"/>
				<path fill="#F2B131" d="M167.617,153.899c0,15.965-11.802,30.678-34.518,28.907c-22.721-1.769-34.521-12.942-34.521-28.907
					c0-15.967,10.042-28.319,34.521-28.91C157.575,124.401,167.617,137.932,167.617,153.899z"/>
				<path fill="#D78A1A" d="M149.353,153.932c0,7.519-5.557,14.444-16.253,13.613c-10.698-0.834-16.256-6.095-16.256-13.613
					s4.73-13.335,16.256-13.611C144.626,140.041,149.353,146.414,149.353,153.932z"/>
			</g>
			<g>
				<path opacity="0.3" d="M137.852,203.272c-4.171,1.094-8.528,0.013-10.299-4.371c-0.724-1.789-0.681-4.064,0.052-6.038
					c-0.055-0.511-0.064-1.03-0.028-1.552c-3.201-1.301-5.266-4.377-5.522-7.463c-0.065-0.003-0.13-0.007-0.194-0.009
					c-5.536-0.194-12.426-0.313-18.608,0.499c-4.295,0.563-7.088-1.951-8.113-5.129c-9.131,5.376-13.153,14.22-13.153,24.513v10.937
					c0,3.207,0.928,7.115,2.981,10.938c2.313-1.121,5.141-1.098,7.788,0.985c3.012,2.371,6.492,4.405,9.958,6.177
					c0.104-1.02,0.173-2.042,0.188-3.071c0.087-5.597,6.235-7.599,10.81-6.108c4.355-0.144,8.688,2.948,7.87,8.73
					c-0.338,2.392-0.783,4.76-1.199,7.132c-0.01,0.562-0.039,1.123-0.067,1.686c0.086-0.005,0.175-0.009,0.262-0.015
					c0.175-0.013,0.355-0.018,0.527-0.031c0.521-0.036,1.024-0.08,1.531-0.128c0.203-0.016,0.41-0.032,0.611-0.053
					c0.476-0.046,0.942-0.103,1.411-0.16c0.219-0.024,0.441-0.049,0.658-0.077c0.446-0.06,0.877-0.123,1.313-0.188
					c0.229-0.036,0.46-0.068,0.688-0.104c0.416-0.069,0.823-0.144,1.229-0.22c0.232-0.043,0.468-0.083,0.696-0.129
					c0.395-0.078,0.775-0.163,1.159-0.248c0.233-0.053,0.469-0.102,0.699-0.155c0.37-0.088,0.731-0.182,1.093-0.275
					c0.231-0.062,0.463-0.12,0.691-0.182c0.347-0.098,0.69-0.2,1.029-0.302c0.229-0.07,0.459-0.138,0.685-0.209
					c0.328-0.105,0.654-0.217,0.976-0.329c0.224-0.077,0.445-0.154,0.665-0.233c0.311-0.113,0.616-0.234,0.919-0.354
					c0.221-0.086,0.436-0.172,0.651-0.261c0.293-0.125,0.58-0.249,0.865-0.379c0.213-0.097,0.424-0.191,0.632-0.288
					c0.274-0.132,0.544-0.267,0.813-0.401c0.203-0.105,0.41-0.209,0.61-0.318c0.259-0.138,0.512-0.275,0.763-0.421
					c0.197-0.112,0.395-0.228,0.588-0.345c0.243-0.144,0.482-0.294,0.715-0.443c0.19-0.122,0.379-0.245,0.563-0.371
					c0.225-0.151,0.449-0.309,0.665-0.465c0.185-0.134,0.365-0.266,0.541-0.4c0.209-0.16,0.417-0.32,0.62-0.484
					c0.173-0.142,0.341-0.282,0.511-0.427c0.195-0.165,0.388-0.334,0.572-0.505c0.167-0.149,0.327-0.301,0.484-0.454
					c0.178-0.174,0.356-0.346,0.528-0.523c0.157-0.158,0.308-0.321,0.456-0.484c0.164-0.176,0.327-0.355,0.483-0.538
					c0.146-0.169,0.287-0.34,0.427-0.513c0.149-0.183,0.297-0.367,0.439-0.554c0.134-0.18,0.265-0.36,0.394-0.543
					c0.136-0.188,0.271-0.378,0.399-0.57c0.125-0.188,0.243-0.377,0.359-0.568c0.121-0.195,0.242-0.39,0.357-0.588
					c0.114-0.196,0.22-0.396,0.327-0.596c0.108-0.2,0.215-0.399,0.315-0.603c0.104-0.207,0.197-0.417,0.292-0.63
					c0.097-0.199,0.19-0.403,0.277-0.609c0.091-0.217,0.175-0.439,0.258-0.662c0.08-0.205,0.161-0.409,0.235-0.619
					c0.081-0.229,0.151-0.463,0.225-0.697c0.065-0.209,0.135-0.413,0.193-0.623c0.07-0.242,0.126-0.492,0.188-0.737
					c0.053-0.208,0.109-0.415,0.156-0.624c0.056-0.259,0.104-0.522,0.152-0.785c0.037-0.205,0.083-0.407,0.114-0.617
					c0.045-0.278,0.079-0.564,0.114-0.849c0.026-0.196,0.056-0.39,0.078-0.59c0.032-0.322,0.054-0.656,0.077-0.986
					c0.012-0.163,0.029-0.323,0.037-0.489c0.025-0.498,0.039-1.004,0.039-1.513v-10.937c0-1.579-0.097-3.135-0.289-4.657
					C148.201,200.444,143.041,201.913,137.852,203.272z"/>
				<path fill="#F09054" d="M80.014,213.14c0,9.514,8.412,25.43,31.198,25.634c24.872,0.221,37.837-9.668,37.837-25.634v-10.529
					H80.014V213.14z"/>
				<path fill="#F06122" d="M149.049,213.14v-10.529h-8.326c-0.873,1.587-1.701,3.205-2.504,4.841
					c-3.815-0.53-6.801,1.975-8.218,5.459c-0.571,1.394-1.138,2.848-1.723,4.323c-2.455,0.466-4.724,2.028-5.801,4.967
					c-2.165,5.916-6.492,10.833-9.116,16.564C136.83,238.41,149.049,228.639,149.049,213.14z"/>
				<path fill="#F2B131" d="M149.049,202.611c0,15.966-11.799,30.678-34.519,28.907c-22.718-1.77-34.517-12.941-34.517-28.907
					s10.04-28.319,34.517-28.91C139.009,173.111,149.049,186.645,149.049,202.611z"/>
				<path fill="#EC9F1E" d="M130.787,205.718c0,7.516-5.558,14.444-16.257,13.612c-10.695-0.834-16.253-6.097-16.253-13.612
					c0-7.521,4.729-13.336,16.253-13.613C126.057,191.827,130.787,198.197,130.787,205.718z"/>
			</g>
			<g>
				<path fill="#F09054" d="M288.212,227.946c0,9.514,8.411,25.434,31.198,25.634c24.871,0.224,37.836-9.668,37.836-25.634v-10.529
					h-69.034V227.946z"/>
				<path fill="#F06122" d="M357.246,227.946v-10.529h-8.325c-0.874,1.587-1.702,3.206-2.505,4.841
					c-3.813-0.53-6.799,1.975-8.218,5.46c-0.57,1.395-1.136,2.849-1.722,4.325c-2.455,0.464-4.725,2.024-5.802,4.968
					c-2.165,5.912-6.492,10.829-9.116,16.562C345.028,253.219,357.246,243.447,357.246,227.946z"/>
				<path fill="#F2B131" d="M357.246,217.417c0,15.964-11.798,30.677-34.517,28.908c-22.72-1.77-34.518-12.944-34.518-28.908
					c0-15.966,10.039-28.319,34.518-28.908C347.207,187.919,357.246,201.451,357.246,217.417z"/>
				<path fill="#EC9F1E" d="M338.985,220.524c0,7.519-5.558,14.444-16.255,13.611s-16.255-6.093-16.255-13.611
					c0-7.518,4.729-13.334,16.255-13.613C334.256,206.633,338.985,213.007,338.985,220.524z"/>
			</g>
			<g>
				<path fill="#ED7C32" d="M157.611,154.343c0,15.967,11.801,27.139,34.52,28.908c22.717,1.771,34.519-12.941,34.519-28.908v-7.521
					l-69.038-0.951V154.343z"/>
				<path fill="#F09054" d="M157.611,146.161v8.182c0,12.736,7.517,22.416,22.086,26.714c4.054-3.056,8.1-6.12,12.605-8.484
					c3.768-1.976,4.42-5.582,3.243-8.631c0.814-0.845,1.621-1.697,2.409-2.574c4.674-5.218,0.258-15.218-7.321-12.57
					c-2.525,0.881-4.904,1.959-7.189,3.19c-0.546-0.588-1.192-1.084-1.931-1.458c0.118-1.521-0.177-3.029-0.811-4.34l-22.848-0.314
					C157.773,145.969,157.687,146.063,157.611,146.161z"/>
				<path fill="#EEA82B" d="M226.649,146.822c0,15.964-11.802,30.677-34.519,28.907c-22.719-1.769-34.52-12.943-34.52-28.907
					c0-15.968,10.041-28.32,34.52-28.909C216.606,117.323,226.649,130.854,226.649,146.822z"/>
				<path fill="#DC9137" d="M208.384,146.854c0,7.519-5.558,14.445-16.254,13.613c-10.697-0.833-16.255-6.095-16.255-13.613
					s4.729-13.335,16.255-13.611C203.656,132.963,208.384,139.336,208.384,146.854z"/>
			</g>
			<g>
				<path opacity="0.3" d="M226.544,291.184c0.933,0.358,1.86,0.73,2.783,1.113c0.136-0.085,0.273-0.169,0.406-0.255
					c0.189-0.121,0.378-0.243,0.563-0.369c0.225-0.153,0.448-0.307,0.665-0.465c0.185-0.131,0.364-0.266,0.54-0.402
					c0.21-0.157,0.418-0.318,0.619-0.483c0.176-0.138,0.342-0.283,0.513-0.425c0.193-0.168,0.388-0.335,0.573-0.508
					c0.165-0.148,0.326-0.299,0.484-0.452c0.178-0.172,0.357-0.346,0.528-0.522c0.156-0.16,0.307-0.32,0.456-0.484
					c0.164-0.178,0.328-0.356,0.481-0.538c0.149-0.17,0.288-0.342,0.427-0.515c0.148-0.184,0.298-0.366,0.441-0.553
					c0.134-0.18,0.265-0.362,0.393-0.544c0.137-0.189,0.269-0.376,0.398-0.57c0.126-0.187,0.243-0.38,0.359-0.57
					c0.122-0.192,0.244-0.388,0.358-0.584s0.22-0.4,0.327-0.601c0.11-0.199,0.216-0.396,0.316-0.596
					c0.103-0.21,0.198-0.42,0.294-0.632c0.094-0.203,0.188-0.403,0.274-0.609c0.091-0.219,0.175-0.44,0.259-0.663
					c0.08-0.206,0.16-0.41,0.234-0.62c0.082-0.229,0.151-0.465,0.225-0.698c0.065-0.207,0.136-0.411,0.193-0.621
					c0.071-0.244,0.126-0.492,0.19-0.737c0.052-0.208,0.106-0.415,0.152-0.628c0.059-0.255,0.104-0.519,0.153-0.78
					c0.037-0.206,0.082-0.41,0.115-0.617c0.047-0.281,0.078-0.565,0.114-0.851c0.025-0.197,0.054-0.391,0.076-0.588
					c0.033-0.327,0.055-0.657,0.078-0.988c0.013-0.163,0.031-0.323,0.037-0.489c0.026-0.498,0.04-1.003,0.04-1.513V260.89
					c0-16.58-10.427-30.635-35.846-30.02c-25.418,0.612-35.846,13.439-35.846,30.02v6.998c0.885-0.094,1.766-0.191,2.634-0.296
					c6.217-0.748,9.303,4.892,8.413,9.64c0.154,0.148,0.31,0.295,0.459,0.46c9.428,10.421,25.417,11.294,38.436,9.696
					C221.961,287.009,224.958,288.588,226.544,291.184z"/>
				<path fill="#F59233" d="M166.951,270.307c0,9.512,8.413,25.431,31.199,25.634c24.872,0.224,37.839-9.668,37.839-25.634v-10.531
					h-69.038V270.307z"/>
				<path fill="#F06122" d="M235.99,270.307v-10.531h-8.325c-0.875,1.588-1.704,3.207-2.508,4.842
					c-3.814-0.529-6.799,1.976-8.218,5.461c-0.57,1.393-1.136,2.848-1.722,4.325c-2.452,0.464-4.723,2.024-5.802,4.967
					c-2.163,5.913-6.49,10.83-9.116,16.563C223.77,295.578,235.99,285.806,235.99,270.307z"/>
				<path fill="#F2B131" d="M235.99,259.776c0,15.966-11.8,30.679-34.52,28.909c-22.719-1.769-34.519-12.943-34.519-28.909
					s10.041-28.317,34.519-28.907C225.949,230.28,235.99,243.81,235.99,259.776z"/>
				<path fill="#EC9F1E" d="M217.726,262.885c0,7.518-5.558,14.444-16.256,13.611c-10.697-0.835-16.255-6.094-16.255-13.611
					c0-7.52,4.73-13.335,16.255-13.613C212.996,248.994,217.726,255.366,217.726,262.885z"/>
			</g>
			<g>
				<path fill="#F59233" d="M111.167,309.649c0,7.666,6.778,20.49,25.137,20.652c20.038,0.181,30.486-7.788,30.486-20.652v-8.484
					h-55.623V309.649z"/>
				<path fill="#F06122" d="M166.79,309.649v-8.484h-6.708c-0.704,1.28-1.373,2.585-2.019,3.902
					c-3.074-0.429-5.48,1.592-6.622,4.398c-0.458,1.122-0.915,2.295-1.387,3.481c-1.977,0.376-3.805,1.636-4.673,4.005
					c-1.745,4.763-5.23,8.725-7.348,13.344C156.945,330.01,166.79,322.137,166.79,309.649z"/>
				<path fill="#F2B131" d="M166.79,301.165c0,12.863-9.506,24.718-27.813,23.293c-18.304-1.425-27.811-10.43-27.811-23.293
					c0-12.864,8.091-22.815,27.811-23.29C158.702,277.399,166.79,288.301,166.79,301.165z"/>
				<path fill="#EC9F1E" d="M152.074,303.67c0,6.057-4.476,11.64-13.097,10.968c-8.617-0.674-13.097-4.911-13.097-10.968
					s3.813-10.743,13.097-10.968C148.265,292.477,152.074,297.613,152.074,303.67z"/>
			</g>
			<g>
				<path opacity="0.3" d="M250.386,201.998c0.124-0.154,0.246-0.306,0.368-0.461c0.112-0.151,0.221-0.303,0.329-0.456
					c0.112-0.156,0.226-0.315,0.332-0.477c0.105-0.157,0.204-0.316,0.302-0.478c0.102-0.162,0.202-0.324,0.3-0.488
					c0.095-0.166,0.185-0.334,0.274-0.502c0.091-0.166,0.18-0.332,0.264-0.501c0.087-0.175,0.165-0.352,0.246-0.526
					c0.079-0.17,0.157-0.339,0.229-0.512c0.077-0.182,0.147-0.369,0.218-0.554c0.068-0.173,0.134-0.345,0.195-0.519
					c0.069-0.191,0.127-0.39,0.188-0.585c0.055-0.174,0.113-0.345,0.162-0.521c0.059-0.203,0.104-0.409,0.158-0.614
					c0.042-0.176,0.09-0.35,0.128-0.525c0.048-0.215,0.089-0.436,0.129-0.654c0.032-0.173,0.07-0.342,0.096-0.517
					c0.038-0.233,0.065-0.473,0.097-0.711c0.021-0.166,0.045-0.326,0.064-0.493c0.026-0.272,0.045-0.551,0.066-0.828
					c0.007-0.135,0.021-0.269,0.03-0.407c0.021-0.417,0.03-0.84,0.03-1.266v-9.152c0-13.875-8.724-25.636-29.994-25.122
					c-21.272,0.512-29.997,11.247-29.997,25.122v9.152c0,8.266,7.308,22.098,27.108,22.275c1.194,0.009,2.35-0.011,3.479-0.055
					c0.099-0.003,0.201-0.005,0.3-0.009c0.474-0.019,0.941-0.046,1.404-0.075c0.148-0.011,0.301-0.018,0.444-0.026
					c0.436-0.03,0.858-0.067,1.282-0.107c0.17-0.015,0.343-0.027,0.51-0.044c0.398-0.04,0.789-0.085,1.181-0.135
					c0.183-0.021,0.37-0.04,0.552-0.063c0.373-0.049,0.734-0.105,1.099-0.159c0.19-0.031,0.387-0.059,0.576-0.088
					c0.347-0.056,0.688-0.118,1.027-0.182c0.195-0.038,0.393-0.072,0.583-0.108c0.332-0.065,0.649-0.139,0.97-0.208
					c0.196-0.045,0.393-0.084,0.586-0.131c0.311-0.074,0.612-0.151,0.914-0.23c0.193-0.049,0.388-0.098,0.579-0.15
					c0.291-0.082,0.578-0.169,0.863-0.253c0.191-0.059,0.382-0.116,0.571-0.176c0.275-0.089,0.547-0.182,0.815-0.273
					c0.188-0.067,0.375-0.133,0.558-0.199c0.259-0.093,0.516-0.195,0.769-0.293c0.186-0.074,0.365-0.146,0.543-0.22
					c0.247-0.104,0.487-0.209,0.726-0.315c0.179-0.08,0.354-0.161,0.528-0.244c0.23-0.107,0.456-0.221,0.681-0.335
					c0.171-0.086,0.344-0.176,0.512-0.265c0.217-0.115,0.429-0.233,0.637-0.352c0.166-0.095,0.332-0.194,0.493-0.288
					c0.204-0.124,0.404-0.249,0.598-0.373c0.161-0.102,0.317-0.206,0.473-0.311c0.188-0.129,0.375-0.26,0.558-0.391
					c0.152-0.109,0.304-0.221,0.452-0.333c0.173-0.136,0.349-0.27,0.519-0.405c0.145-0.117,0.286-0.237,0.427-0.358
					c0.163-0.139,0.325-0.279,0.48-0.422c0.137-0.125,0.272-0.252,0.405-0.38c0.149-0.146,0.299-0.29,0.442-0.438
					c0.131-0.132,0.256-0.267,0.381-0.405c0.138-0.147,0.273-0.297,0.404-0.449C250.151,202.287,250.269,202.143,250.386,201.998z"
					/>
				<path fill="#F09054" d="M192.951,188.132c0,7.96,7.038,21.28,26.107,21.451c20.814,0.185,31.663-8.09,31.663-21.451v-8.813
					h-57.771V188.132z"/>
				<path fill="#F06122" d="M250.722,188.132v-8.813h-6.966c-0.732,1.328-1.426,2.683-2.098,4.052
					c-3.19-0.443-5.691,1.652-6.877,4.57c-0.478,1.166-0.951,2.381-1.441,3.617c-2.053,0.39-3.952,1.697-4.854,4.156
					c-1.813,4.949-5.433,9.064-7.63,13.86C240.497,209.28,250.722,201.102,250.722,188.132z"/>
				<path fill="#F2B131" d="M250.722,179.319c0,13.36-9.874,25.673-28.886,24.191c-19.013-1.479-28.885-10.831-28.885-24.191
					s8.401-23.697,28.885-24.191C242.321,154.634,250.722,165.959,250.722,179.319z"/>
				<path fill="#EC9F1E" d="M235.441,181.92c0,6.292-4.651,12.09-13.604,11.391c-8.949-0.697-13.603-5.099-13.603-11.391
					s3.958-11.161,13.603-11.391C231.484,170.295,235.441,175.628,235.441,181.92z"/>
			</g>
		</g>
	</g>
</g>
</svg>
