<?xml version="1.0" encoding="utf-8"?>
<!-- Generator: Adobe Illustrator 16.0.0, SVG Export Plug-In . SVG Version: 6.00 Build 0)  -->
<!DOCTYPE svg PUBLIC "-//W3C//DTD SVG 1.1//EN" "http://www.w3.org/Graphics/SVG/1.1/DTD/svg11.dtd">
<svg version="1.1" id="Ebene_1" xmlns="http://www.w3.org/2000/svg" xmlns:xlink="http://www.w3.org/1999/xlink" x="0px" y="0px"
	 width="450px" height="450px" viewBox="0 0 450 450" enable-background="new 0 0 450 450" xml:space="preserve">
<g>
	<g opacity="0.3">
		<path d="M247.72,229.679c-0.192-5.665,1.96-10.191,6.208-13.791c-0.035-0.334-0.061-0.655-0.063-0.688
			c-0.392-4.121,1.055-7.299,3.829-9.308c-1.713-16.757-13.758-30.188-40.188-29.553c-28.086,0.678-39.929,14.586-40.394,32.733
			l-0.021-0.002v9.92c0,0.835,0.036,1.652,0.092,2.461c0.012,0.172,0.021,0.346,0.034,0.514c0.065,0.793,0.153,1.569,0.271,2.338
			c0.019,0.116,0.039,0.229,0.06,0.344c0.119,0.712,0.26,1.414,0.422,2.106c0.026,0.11,0.048,0.223,0.076,0.335
			c0.184,0.748,0.399,1.481,0.639,2.205c0.041,0.129,0.086,0.255,0.13,0.382c0.514,1.482,1.142,2.908,1.879,4.273
			c0.053,0.098,0.104,0.194,0.158,0.292c0.384,0.688,0.792,1.36,1.233,2.02c0.017,0.021,0.033,0.044,0.049,0.065
			c0.449,0.665,0.932,1.317,1.444,1.946c0.022,0.029,0.046,0.059,0.068,0.091c0.521,0.639,1.076,1.259,1.657,1.861
			c0.035,0.036,0.072,0.073,0.109,0.108c1.188,1.22,2.5,2.358,3.938,3.421c0.028,0.019,0.057,0.038,0.078,0.059
			c3.693,2.709,8.203,4.885,13.515,6.45c0.004,0,0.006,0.002,0.006,0.002v0.002c4.326,1.272,9.173,2.149,14.556,2.567
			c17.877,1.396,29.969-5.936,35.982-16.563C250.446,235.48,247.837,233.137,247.72,229.679z"/>
		<path d="M175.573,214.487c0,18.271,13.503,31.059,39.503,33.082c25.996,2.025,39.502-14.812,39.502-33.082v-8.606l-79.005-1.088
			V214.487z"/>
		<path d="M175.573,205.125v9.362c0,14.575,8.601,25.653,25.275,30.57c4.637-3.498,9.269-7.003,14.423-9.708
			c4.313-2.262,5.061-6.391,3.709-9.877c0.938-0.967,1.859-1.944,2.758-2.946c5.354-5.97,0.296-17.416-8.376-14.387
			c-2.89,1.01-5.612,2.246-8.229,3.651c-0.621-0.673-1.363-1.238-2.208-1.668c0.135-1.737-0.203-3.468-0.928-4.966l-26.146-0.361
			C175.758,204.905,175.659,205.013,175.573,205.125z"/>
		<path d="M254.577,205.881c0,18.271-13.506,35.107-39.502,33.081c-26-2.023-39.503-14.811-39.503-33.081
			s11.49-32.408,39.503-33.083C243.087,172.124,254.577,187.609,254.577,205.881z"/>
		<path d="M233.675,205.919c0,8.604-6.358,16.53-18.6,15.577c-12.242-0.953-18.604-6.975-18.604-15.577
			c0-8.602,5.413-15.26,18.604-15.577C228.265,190.022,233.675,197.316,233.675,205.919z"/>
		<path d="M168.903,200.96c-4.53,0.108-8.646,0.559-12.361,1.31c-2.262,0.609-4.52,1.232-6.776,1.854
			c-15.297,5.389-21.883,17.104-21.883,31.19v12.516c0,6.312,3.12,14.992,10.585,21.476c12.477,2.971,26.206,2.392,38.368,0.929
			c4.602-0.554,7.483,2.396,8.313,5.892c0.063-0.016,0.127-0.03,0.19-0.047c0.265-0.07,0.53-0.138,0.791-0.209
			c0.398-0.11,0.791-0.228,1.18-0.345c0.263-0.08,0.524-0.157,0.782-0.241c0.376-0.119,0.748-0.245,1.115-0.375
			c0.255-0.089,0.512-0.177,0.763-0.268c0.355-0.134,0.706-0.269,1.053-0.404c0.25-0.1,0.498-0.198,0.742-0.3
			c0.335-0.143,0.665-0.286,0.99-0.434c0.244-0.108,0.484-0.217,0.723-0.331c0.314-0.146,0.626-0.302,0.933-0.458
			c0.233-0.117,0.471-0.238,0.698-0.361c0.295-0.159,0.588-0.317,0.873-0.481c0.228-0.131,0.453-0.262,0.673-0.396
			c0.278-0.167,0.553-0.337,0.817-0.511c0.219-0.138,0.432-0.278,0.647-0.425c0.257-0.172,0.512-0.351,0.76-0.531
			c0.21-0.15,0.416-0.302,0.617-0.458c0.24-0.182,0.478-0.366,0.71-0.553c0.197-0.163,0.391-0.325,0.585-0.49
			c0.223-0.188,0.442-0.382,0.657-0.576c0.188-0.17,0.371-0.345,0.552-0.521c0.205-0.196,0.409-0.396,0.606-0.6
			c0.178-0.182,0.349-0.367,0.52-0.551c0.188-0.204,0.377-0.409,0.555-0.617c0.168-0.194,0.327-0.393,0.487-0.588
			c0.171-0.211,0.341-0.421,0.504-0.635c0.153-0.205,0.303-0.414,0.449-0.621c0.156-0.217,0.31-0.434,0.457-0.65
			c0.143-0.217,0.276-0.435,0.412-0.652c0.139-0.224,0.276-0.443,0.407-0.672c0.131-0.225,0.252-0.455,0.375-0.686
			c0.124-0.229,0.246-0.455,0.362-0.685c0.118-0.24,0.226-0.479,0.334-0.723c0.107-0.232,0.215-0.462,0.315-0.697
			c0.104-0.249,0.2-0.506,0.298-0.759c0.091-0.234,0.182-0.468,0.267-0.707c0.093-0.262,0.175-0.533,0.258-0.8
			c0.076-0.237,0.153-0.474,0.223-0.712c0.079-0.278,0.145-0.563,0.215-0.844c0.061-0.24,0.125-0.477,0.178-0.717
			c0.065-0.296,0.118-0.598,0.173-0.896c0.044-0.238,0.098-0.469,0.134-0.707c0.053-0.321,0.092-0.647,0.132-0.974
			c0.027-0.226,0.063-0.446,0.086-0.675c0.04-0.371,0.063-0.752,0.09-1.13c0.014-0.187,0.035-0.37,0.044-0.559
			c0.028-0.571,0.045-1.149,0.045-1.731V235.31C209.923,216.339,197.99,200.258,168.903,200.96z"/>
		<path d="M125.627,246.09c0,10.89,9.625,29.104,35.701,29.333c28.463,0.258,43.302-11.063,43.302-29.333v-12.051h-79.003V246.09
			L125.627,246.09z"/>
		<path d="M204.63,246.09v-12.051h-9.529c-0.999,1.818-1.947,3.67-2.868,5.541c-4.363-0.606-7.78,2.261-9.403,6.248
			c-0.65,1.595-1.299,3.26-1.971,4.948c-2.808,0.531-5.404,2.318-6.639,5.685c-2.478,6.768-7.429,12.396-10.433,18.953
			C190.645,275.008,204.63,263.828,204.63,246.09z"/>
		<path d="M204.63,234.039c0,18.271-13.503,35.108-39.504,33.082c-25.999-2.024-39.499-14.812-39.499-33.082
			s11.488-32.405,39.499-33.081C193.139,200.282,204.63,215.767,204.63,234.039z"/>
		<path d="M183.729,237.596c0,8.602-6.358,16.529-18.603,15.576c-12.241-0.953-18.602-6.976-18.602-15.576
			c0-8.605,5.412-15.263,18.602-15.579C178.317,221.699,183.729,228.991,183.729,237.596z"/>
		<path d="M317.203,168.553c0,7.295,6.45,19.499,23.923,19.653c19.07,0.171,29.014-7.411,29.014-19.653v-8.074h-52.937V168.553z"/>
		<path d="M370.14,168.553v-8.074h-6.385c-0.67,1.217-1.305,2.459-1.921,3.712c-2.925-0.406-5.212,1.514-6.301,4.187
			c-0.438,1.068-0.872,2.184-1.32,3.314c-1.882,0.354-3.623,1.555-4.449,3.81c-1.659,4.534-4.977,8.305-6.99,12.7
			C360.769,187.929,370.14,180.438,370.14,168.553z"/>
		<path d="M370.14,160.479c0,12.241-9.048,23.521-26.467,22.167c-17.421-1.358-26.47-9.926-26.47-22.167
			c0-12.242,7.698-21.715,26.47-22.168C362.442,137.859,370.14,148.237,370.14,160.479z"/>
		<path d="M356.137,162.86c0,5.765-4.263,11.076-12.464,10.438c-8.203-0.64-12.466-4.675-12.466-10.438s3.627-10.224,12.466-10.438
			C352.51,152.211,356.137,157.095,356.137,162.86z"/>
		<path d="M235.5,192.408c0,18.271,13.504,31.057,39.504,33.082c25.998,2.023,39.5-14.812,39.5-33.082V183.8l-79.004-1.088V192.408z
			"/>
		<path d="M235.5,183.043v9.365c0,14.574,8.602,25.651,25.274,30.567c4.64-3.496,9.27-7.001,14.426-9.706
			c4.311-2.265,5.057-6.393,3.71-9.88c0.933-0.966,1.855-1.94,2.758-2.943c5.349-5.971,0.293-17.416-8.377-14.388
			c-2.893,1.01-5.613,2.246-8.229,3.652c-0.623-0.674-1.364-1.239-2.21-1.669c0.137-1.737-0.202-3.467-0.927-4.966l-26.146-0.361
			C235.685,182.824,235.588,182.931,235.5,183.043z"/>
		<path d="M314.504,183.8c0,18.271-13.502,35.107-39.5,33.081c-26-2.023-39.504-14.811-39.504-33.081
			c0-18.27,11.491-32.407,39.504-33.083C303.014,150.043,314.504,165.53,314.504,183.8z"/>
		<path d="M293.603,183.837c0,8.604-6.355,16.532-18.599,15.577c-12.242-0.953-18.604-6.973-18.604-15.577
			c0-8.603,5.412-15.258,18.604-15.576C288.193,167.942,293.603,175.234,293.603,183.837z"/>
		<path d="M219.347,271.776c0,10.889,9.626,29.104,35.702,29.334c28.464,0.257,43.301-11.063,43.301-29.334v-12.052h-79.003V271.776
			L219.347,271.776z"/>
		<path d="M298.35,271.776v-12.052h-9.527c-1,1.819-1.947,3.671-2.866,5.542c-4.366-0.606-7.782,2.261-9.405,6.248
			c-0.65,1.596-1.299,3.26-1.97,4.948c-2.811,0.531-5.405,2.319-6.642,5.685c-2.477,6.768-7.428,12.395-10.432,18.954
			C284.367,300.695,298.35,289.515,298.35,271.776z"/>
		<path d="M298.35,259.724c0,18.271-13.501,35.108-39.501,33.083c-26-2.024-39.502-14.813-39.502-33.083
			s11.489-32.404,39.502-33.079C286.861,225.969,298.35,241.455,298.35,259.724z"/>
		<path d="M277.45,263.282c0,8.604-6.359,16.531-18.603,15.579c-12.242-0.954-18.602-6.977-18.602-15.579
			c0-8.602,5.412-15.26,18.602-15.577C272.038,247.386,277.45,254.679,277.45,263.282z"/>
		<path d="M103.856,164.059c0,15.966,11.8,27.138,34.521,28.907c22.716,1.771,34.518-12.941,34.518-28.907v-7.521l-69.038-0.95
			L103.856,164.059L103.856,164.059z"/>
		<path d="M103.856,155.878v8.183c0,12.735,7.519,22.415,22.087,26.713c4.055-3.057,8.101-6.12,12.604-8.484
			c3.768-1.976,4.421-5.583,3.242-8.63c0.814-0.845,1.623-1.697,2.411-2.574c4.674-5.218,0.255-15.218-7.322-12.571
			c-2.527,0.883-4.903,1.961-7.189,3.191c-0.544-0.588-1.191-1.083-1.931-1.46c0.118-1.518-0.176-3.028-0.811-4.338l-22.847-0.313
			C104.017,155.685,103.933,155.78,103.856,155.878z"/>
		<path d="M172.894,156.538c0,15.965-11.802,30.678-34.518,28.907c-22.722-1.77-34.521-12.942-34.521-28.907
			c0-15.967,10.042-28.32,34.521-28.91C162.852,127.039,172.894,140.571,172.894,156.538z"/>
		<path d="M154.629,156.571c0,7.519-5.558,14.444-16.253,13.613c-10.698-0.834-16.256-6.096-16.256-13.613
			s4.729-13.335,16.256-13.611C149.903,142.679,154.629,149.052,154.629,156.571z"/>
		<path opacity="0.3" enable-background="new    " d="M143.128,205.911c-4.171,1.094-8.528,0.013-10.299-4.371
			c-0.725-1.789-0.682-4.063,0.052-6.038c-0.055-0.511-0.064-1.029-0.028-1.552c-3.201-1.301-5.267-4.377-5.521-7.463
			c-0.065-0.003-0.13-0.007-0.194-0.009c-5.536-0.194-12.425-0.313-18.608,0.499c-4.295,0.563-7.088-1.951-8.112-5.129
			c-9.131,5.376-13.153,14.22-13.153,24.513v10.937c0,3.207,0.928,7.115,2.981,10.938c2.313-1.121,5.141-1.098,7.788,0.985
			c3.012,2.37,6.491,4.404,9.958,6.177c0.104-1.021,0.173-2.042,0.188-3.071c0.087-5.597,6.235-7.599,10.81-6.107
			c4.355-0.145,8.688,2.947,7.87,8.729c-0.338,2.392-0.782,4.76-1.198,7.132c-0.011,0.563-0.04,1.123-0.067,1.687
			c0.086-0.005,0.175-0.01,0.262-0.016c0.175-0.013,0.355-0.018,0.527-0.03c0.521-0.036,1.023-0.08,1.531-0.129
			c0.203-0.016,0.409-0.031,0.61-0.053c0.477-0.046,0.942-0.103,1.411-0.16c0.219-0.023,0.441-0.049,0.658-0.076
			c0.446-0.061,0.877-0.123,1.313-0.188c0.229-0.036,0.461-0.068,0.688-0.104c0.416-0.069,0.823-0.145,1.229-0.221
			c0.233-0.043,0.47-0.083,0.697-0.129c0.396-0.079,0.775-0.163,1.159-0.248c0.233-0.053,0.469-0.102,0.699-0.155
			c0.37-0.088,0.73-0.182,1.093-0.274c0.231-0.063,0.463-0.12,0.691-0.182c0.347-0.099,0.689-0.2,1.028-0.303
			c0.229-0.069,0.459-0.138,0.686-0.209c0.328-0.104,0.652-0.217,0.976-0.329c0.225-0.076,0.445-0.153,0.665-0.232
			c0.312-0.114,0.616-0.234,0.919-0.354c0.222-0.086,0.437-0.172,0.651-0.261c0.293-0.125,0.58-0.249,0.865-0.379
			c0.213-0.097,0.423-0.191,0.632-0.289c0.273-0.131,0.544-0.266,0.813-0.4c0.203-0.104,0.41-0.209,0.61-0.317
			c0.258-0.139,0.512-0.275,0.763-0.421c0.197-0.112,0.396-0.229,0.588-0.346c0.243-0.144,0.482-0.294,0.716-0.442
			c0.189-0.122,0.379-0.245,0.563-0.371c0.225-0.151,0.449-0.31,0.665-0.465c0.185-0.135,0.365-0.267,0.541-0.4
			c0.209-0.16,0.417-0.32,0.62-0.484c0.174-0.142,0.341-0.281,0.511-0.427c0.195-0.165,0.388-0.335,0.572-0.505
			c0.167-0.148,0.327-0.302,0.483-0.454c0.179-0.174,0.356-0.346,0.528-0.522c0.157-0.158,0.309-0.321,0.456-0.484
			c0.164-0.176,0.327-0.354,0.483-0.538c0.146-0.169,0.287-0.34,0.427-0.513c0.148-0.184,0.297-0.367,0.439-0.554
			c0.134-0.181,0.265-0.36,0.394-0.544c0.136-0.188,0.271-0.378,0.398-0.569c0.125-0.188,0.243-0.377,0.359-0.568
			c0.12-0.195,0.242-0.39,0.356-0.588c0.114-0.196,0.221-0.396,0.328-0.597c0.107-0.199,0.215-0.398,0.314-0.603
			c0.104-0.207,0.197-0.417,0.292-0.63c0.097-0.199,0.19-0.403,0.277-0.608c0.091-0.218,0.175-0.439,0.258-0.662
			c0.08-0.205,0.161-0.409,0.235-0.619c0.08-0.229,0.15-0.463,0.224-0.697c0.066-0.209,0.136-0.413,0.194-0.623
			c0.069-0.242,0.126-0.492,0.187-0.737c0.054-0.208,0.11-0.415,0.158-0.624c0.055-0.259,0.103-0.521,0.15-0.784
			c0.037-0.205,0.083-0.408,0.114-0.617c0.045-0.278,0.079-0.564,0.115-0.85c0.025-0.195,0.055-0.39,0.077-0.59
			c0.032-0.321,0.054-0.655,0.077-0.985c0.012-0.163,0.028-0.323,0.037-0.489c0.024-0.498,0.039-1.004,0.039-1.513v-10.938
			c0-1.579-0.098-3.135-0.289-4.657C153.478,203.083,148.318,204.552,143.128,205.911z"/>
		<path d="M85.29,215.779c0,9.514,8.412,25.43,31.197,25.633c24.872,0.222,37.838-9.667,37.838-25.633V205.25H85.29V215.779z"/>
		<path d="M154.325,215.779V205.25h-8.326c-0.873,1.587-1.701,3.205-2.505,4.841c-3.814-0.529-6.801,1.976-8.218,5.459
			c-0.57,1.395-1.138,2.849-1.723,4.323c-2.455,0.466-4.724,2.028-5.801,4.967c-2.165,5.915-6.492,10.833-9.116,16.564
			C142.107,241.049,154.325,231.278,154.325,215.779z"/>
		<path d="M154.325,205.25c0,15.966-11.8,30.679-34.52,28.907c-22.718-1.77-34.517-12.941-34.517-28.907s10.04-28.318,34.517-28.91
			C144.285,175.75,154.325,189.284,154.325,205.25z"/>
		<path d="M136.064,208.356c0,7.516-5.558,14.443-16.257,13.612c-10.695-0.835-16.253-6.098-16.253-13.612
			c0-7.521,4.729-13.336,16.253-13.613C131.333,194.466,136.064,200.836,136.064,208.356z"/>
		<path d="M293.489,230.585c0,9.515,8.411,25.435,31.198,25.635c24.871,0.224,37.836-9.669,37.836-25.635v-10.528h-69.034V230.585z"
			/>
		<path d="M362.523,230.585v-10.528h-8.325c-0.873,1.587-1.701,3.206-2.506,4.841c-3.813-0.53-6.799,1.975-8.217,5.46
			c-0.57,1.395-1.136,2.849-1.722,4.325c-2.455,0.464-4.726,2.023-5.802,4.968c-2.165,5.912-6.492,10.829-9.116,16.562
			C350.304,255.857,362.523,246.086,362.523,230.585z"/>
		<path d="M362.523,220.055c0,15.964-11.798,30.677-34.517,28.907c-22.72-1.77-34.519-12.943-34.519-28.907
			c0-15.967,10.039-28.319,34.519-28.908C352.484,190.557,362.523,204.09,362.523,220.055z"/>
		<path d="M344.261,223.163c0,7.52-5.558,14.444-16.255,13.611s-16.255-6.093-16.255-13.611c0-7.518,4.729-13.334,16.255-13.613
			C339.532,209.271,344.261,215.645,344.261,223.163z"/>
		<path d="M162.887,156.981c0,15.967,11.801,27.138,34.521,28.908c22.717,1.771,34.519-12.941,34.519-28.908v-7.521l-69.038-0.951
			L162.887,156.981L162.887,156.981z"/>
		<path d="M162.887,148.8v8.183c0,12.736,7.517,22.416,22.086,26.714c4.054-3.056,8.1-6.12,12.605-8.484
			c3.768-1.976,4.42-5.582,3.242-8.631c0.814-0.845,1.621-1.696,2.409-2.574c4.674-5.219,0.258-15.218-7.32-12.569
			c-2.525,0.881-4.904,1.959-7.189,3.189c-0.546-0.588-1.192-1.084-1.931-1.458c0.117-1.521-0.178-3.028-0.812-4.34l-22.848-0.313
			C163.049,148.608,162.963,148.702,162.887,148.8z"/>
		<path d="M231.925,149.461c0,15.964-11.802,30.678-34.52,28.907c-22.719-1.77-34.52-12.943-34.52-28.907
			c0-15.968,10.041-28.319,34.52-28.908C221.882,119.962,231.925,133.493,231.925,149.461z"/>
		<path d="M213.66,149.493c0,7.52-5.559,14.445-16.255,13.612c-10.696-0.832-16.255-6.094-16.255-13.612
			c0-7.518,4.729-13.335,16.255-13.611C208.933,135.601,213.66,141.974,213.66,149.493z"/>
		<path opacity="0.3" enable-background="new    " d="M231.821,293.823c0.934,0.358,1.859,0.73,2.783,1.113
			c0.136-0.085,0.273-0.169,0.406-0.255c0.189-0.121,0.378-0.243,0.563-0.369c0.226-0.153,0.448-0.308,0.665-0.465
			c0.186-0.132,0.364-0.267,0.539-0.402c0.211-0.157,0.419-0.318,0.62-0.483c0.176-0.138,0.342-0.282,0.514-0.425
			c0.192-0.168,0.388-0.335,0.572-0.508c0.165-0.148,0.326-0.299,0.484-0.452c0.178-0.172,0.356-0.346,0.528-0.522
			c0.155-0.159,0.307-0.319,0.456-0.483c0.163-0.178,0.327-0.357,0.48-0.538c0.149-0.17,0.288-0.342,0.427-0.515
			c0.148-0.185,0.298-0.366,0.441-0.554c0.134-0.18,0.265-0.361,0.393-0.544c0.138-0.188,0.27-0.376,0.399-0.569
			c0.125-0.188,0.242-0.38,0.358-0.57c0.121-0.192,0.243-0.388,0.357-0.585c0.114-0.195,0.22-0.399,0.327-0.6
			c0.11-0.199,0.216-0.396,0.316-0.597c0.103-0.21,0.197-0.42,0.294-0.632c0.094-0.203,0.188-0.403,0.274-0.609
			c0.09-0.219,0.174-0.439,0.258-0.662c0.08-0.206,0.16-0.41,0.234-0.62c0.082-0.229,0.151-0.465,0.225-0.698
			c0.065-0.207,0.137-0.412,0.193-0.621c0.071-0.244,0.127-0.492,0.19-0.737c0.052-0.208,0.105-0.415,0.151-0.628
			c0.061-0.255,0.104-0.519,0.153-0.779c0.037-0.206,0.082-0.41,0.115-0.617c0.047-0.281,0.078-0.565,0.113-0.852
			c0.025-0.196,0.055-0.391,0.076-0.588c0.034-0.327,0.056-0.657,0.078-0.988c0.013-0.162,0.031-0.322,0.037-0.488
			c0.026-0.498,0.04-1.003,0.04-1.514V263.53c0-16.58-10.427-30.635-35.846-30.021c-25.418,0.612-35.847,13.439-35.847,30.021v6.998
			c0.886-0.094,1.767-0.191,2.636-0.296c6.216-0.748,9.302,4.892,8.411,9.64c0.154,0.148,0.311,0.295,0.459,0.46
			c9.429,10.421,25.417,11.294,38.437,9.696C227.238,289.647,230.235,291.226,231.821,293.823z"/>
		<path d="M172.228,272.946c0,9.512,8.413,25.431,31.199,25.634c24.872,0.225,37.839-9.668,37.839-25.634v-10.531h-69.038V272.946z"
			/>
		<path d="M241.266,272.946v-10.531h-8.325c-0.875,1.588-1.704,3.207-2.508,4.842c-3.813-0.528-6.799,1.977-8.218,5.46
			c-0.57,1.395-1.135,2.85-1.722,4.326c-2.452,0.464-4.724,2.024-5.803,4.968c-2.163,5.912-6.489,10.828-9.115,16.563
			C229.046,298.217,241.266,288.445,241.266,272.946z"/>
		<path d="M241.266,262.415c0,15.966-11.799,30.68-34.52,28.909c-22.72-1.769-34.52-12.943-34.52-28.909s10.041-28.316,34.52-28.907
			C231.226,232.919,241.266,246.449,241.266,262.415z"/>
		<path d="M223.002,265.524c0,7.518-5.559,14.443-16.256,13.61c-10.697-0.835-16.255-6.094-16.255-13.61
			c0-7.521,4.73-13.335,16.255-13.613C218.273,251.633,223.002,258.005,223.002,265.524z"/>
		<path d="M116.444,312.288c0,7.666,6.778,20.49,25.138,20.652c20.038,0.181,30.485-7.788,30.485-20.652v-8.483h-55.623V312.288
			L116.444,312.288z"/>
		<path d="M172.067,312.288v-8.483h-6.708c-0.704,1.279-1.373,2.585-2.019,3.901c-3.074-0.429-5.48,1.593-6.622,4.398
			c-0.458,1.122-0.915,2.295-1.387,3.481c-1.978,0.376-3.806,1.636-4.673,4.005c-1.745,4.763-5.23,8.725-7.349,13.344
			C162.221,332.648,172.067,324.776,172.067,312.288z"/>
		<path d="M172.067,303.803c0,12.862-9.506,24.718-27.813,23.292c-18.304-1.424-27.812-10.43-27.812-23.292
			c0-12.864,8.092-22.815,27.812-23.29C163.979,280.038,172.067,290.939,172.067,303.803z"/>
		<path d="M157.351,306.308c0,6.057-4.476,11.639-13.097,10.968c-8.617-0.674-13.097-4.911-13.097-10.968
			c0-6.058,3.813-10.743,13.097-10.969C153.541,295.116,157.351,300.252,157.351,306.308z"/>
		<path opacity="0.3" enable-background="new    " d="M255.662,204.636c0.124-0.154,0.246-0.307,0.367-0.462
			c0.112-0.15,0.222-0.303,0.329-0.455c0.112-0.156,0.226-0.315,0.332-0.478c0.105-0.157,0.204-0.315,0.303-0.478
			c0.102-0.162,0.201-0.324,0.3-0.488c0.095-0.166,0.185-0.334,0.273-0.502c0.092-0.166,0.181-0.332,0.266-0.501
			c0.086-0.175,0.164-0.353,0.245-0.526c0.078-0.17,0.156-0.34,0.229-0.512c0.077-0.182,0.147-0.369,0.218-0.554
			c0.068-0.174,0.135-0.346,0.195-0.52c0.069-0.19,0.127-0.39,0.188-0.585c0.056-0.174,0.113-0.345,0.162-0.521
			c0.06-0.203,0.104-0.409,0.158-0.615c0.042-0.175,0.09-0.35,0.128-0.524c0.048-0.215,0.089-0.436,0.129-0.653
			c0.032-0.175,0.07-0.343,0.097-0.518c0.038-0.233,0.064-0.473,0.097-0.711c0.021-0.166,0.045-0.326,0.063-0.493
			c0.026-0.271,0.047-0.551,0.066-0.828c0.007-0.135,0.021-0.269,0.03-0.406c0.021-0.417,0.029-0.841,0.029-1.267v-9.151
			c0-13.875-8.724-25.637-29.994-25.122c-21.271,0.512-29.996,11.247-29.996,25.122v9.151c0,8.267,7.308,22.099,27.108,22.275
			c1.193,0.009,2.351-0.011,3.479-0.055c0.099-0.004,0.201-0.006,0.3-0.01c0.474-0.019,0.941-0.046,1.404-0.074
			c0.147-0.012,0.301-0.019,0.443-0.027c0.437-0.029,0.858-0.066,1.282-0.106c0.17-0.015,0.343-0.026,0.51-0.044
			c0.398-0.04,0.789-0.086,1.182-0.135c0.183-0.021,0.37-0.04,0.552-0.063c0.373-0.05,0.734-0.105,1.099-0.159
			c0.19-0.031,0.388-0.06,0.576-0.088c0.347-0.057,0.688-0.118,1.026-0.183c0.195-0.038,0.395-0.072,0.584-0.107
			c0.332-0.065,0.649-0.14,0.97-0.208c0.196-0.045,0.393-0.084,0.587-0.132c0.311-0.073,0.611-0.15,0.913-0.229
			c0.193-0.049,0.388-0.098,0.579-0.15c0.291-0.082,0.578-0.169,0.863-0.253c0.19-0.06,0.382-0.115,0.569-0.176
			c0.275-0.089,0.549-0.182,0.816-0.272c0.188-0.067,0.375-0.134,0.558-0.199c0.26-0.093,0.517-0.195,0.77-0.293
			c0.186-0.074,0.365-0.146,0.543-0.221c0.247-0.104,0.486-0.209,0.726-0.315c0.18-0.079,0.354-0.16,0.528-0.243
			c0.229-0.107,0.456-0.221,0.681-0.335c0.171-0.086,0.344-0.176,0.514-0.265c0.216-0.115,0.428-0.233,0.636-0.353
			c0.166-0.095,0.332-0.193,0.493-0.288c0.204-0.124,0.403-0.249,0.598-0.373c0.161-0.102,0.317-0.206,0.473-0.311
			c0.188-0.129,0.375-0.26,0.558-0.392c0.152-0.108,0.305-0.221,0.453-0.333c0.173-0.136,0.348-0.27,0.519-0.404
			c0.145-0.117,0.286-0.237,0.427-0.358c0.163-0.139,0.325-0.279,0.48-0.422c0.137-0.125,0.271-0.252,0.405-0.38
			c0.148-0.146,0.299-0.29,0.441-0.438c0.131-0.132,0.256-0.267,0.381-0.404c0.139-0.147,0.273-0.297,0.404-0.449
			C255.427,204.926,255.545,204.782,255.662,204.636z"/>
		<path d="M198.228,190.77c0,7.96,7.038,21.279,26.107,21.45c20.813,0.186,31.663-8.09,31.663-21.45v-8.813h-57.771L198.228,190.77
			L198.228,190.77z"/>
		<path d="M255.998,190.77v-8.813h-6.967c-0.731,1.328-1.427,2.684-2.098,4.052c-3.189-0.442-5.69,1.652-6.877,4.57
			c-0.478,1.166-0.951,2.381-1.44,3.617c-2.054,0.39-3.952,1.696-4.854,4.156c-1.813,4.949-5.433,9.063-7.63,13.859
			C245.774,211.919,255.998,203.741,255.998,190.77z"/>
		<path d="M255.998,181.958c0,13.36-9.874,25.673-28.887,24.191c-19.013-1.479-28.885-10.831-28.885-24.191
			c0-13.359,8.401-23.696,28.885-24.19C247.597,157.272,255.998,168.597,255.998,181.958z"/>
		<path d="M240.717,184.558c0,6.292-4.651,12.09-13.604,11.391c-8.948-0.697-13.603-5.099-13.603-11.391s3.958-11.161,13.603-11.392
			C236.76,172.933,240.717,178.266,240.717,184.558z"/>
	</g>
	<g>
		<g>
			<g>
				<path fill="#D1C3BD" d="M242.444,227.041c-0.19-5.665,1.961-10.19,6.208-13.791c-0.033-0.334-0.062-0.654-0.063-0.687
					c-0.392-4.121,1.053-7.299,3.829-9.309c-1.713-16.757-13.758-30.188-40.188-29.552c-28.085,0.677-39.929,14.585-40.393,32.733
					l-0.021-0.002v9.92c0,0.835,0.036,1.651,0.093,2.461c0.012,0.172,0.021,0.346,0.033,0.514c0.065,0.792,0.153,1.569,0.271,2.337
					c0.018,0.117,0.039,0.229,0.059,0.345c0.119,0.712,0.26,1.413,0.422,2.106c0.026,0.11,0.049,0.222,0.076,0.335
					c0.185,0.748,0.4,1.481,0.64,2.205c0.041,0.129,0.086,0.255,0.13,0.382c0.513,1.482,1.141,2.908,1.879,4.273
					c0.052,0.098,0.104,0.193,0.158,0.292c0.384,0.687,0.792,1.359,1.232,2.019c0.018,0.022,0.033,0.044,0.049,0.066
					c0.449,0.665,0.933,1.316,1.444,1.946c0.023,0.028,0.046,0.059,0.069,0.091c0.52,0.639,1.075,1.259,1.656,1.86
					c0.035,0.036,0.072,0.074,0.109,0.11c1.188,1.218,2.5,2.357,3.938,3.42c0.027,0.019,0.055,0.038,0.077,0.058
					c3.693,2.709,8.203,4.886,13.516,6.45c0.004,0,0.005,0.002,0.005,0.002v0.002c4.327,1.273,9.173,2.15,14.556,2.568
					c17.877,1.395,29.971-5.936,35.983-16.564C245.169,232.842,242.561,230.499,242.444,227.041z"/>
				<path fill="#ED7C32" d="M170.297,211.848c0,18.271,13.502,31.059,39.502,33.082c25.997,2.024,39.502-14.812,39.502-33.082
					v-8.606l-79.004-1.088V211.848z"/>
				<path fill="#F09054" d="M170.297,202.486v9.362c0,14.574,8.6,25.652,25.274,30.569c4.638-3.498,9.269-7.003,14.424-9.708
					c4.312-2.261,5.06-6.39,3.709-9.877c0.937-0.966,1.858-1.943,2.758-2.945c5.353-5.971,0.295-17.416-8.376-14.387
					c-2.891,1.01-5.613,2.245-8.229,3.651c-0.621-0.673-1.362-1.239-2.208-1.668c0.136-1.738-0.203-3.468-0.928-4.966l-26.146-0.361
					C170.481,202.266,170.383,202.375,170.297,202.486z"/>
				<path fill="#EEA82B" d="M249.301,203.242c0,18.271-13.505,35.107-39.502,33.081c-26-2.024-39.502-14.811-39.502-33.081
					s11.49-32.409,39.502-33.083S249.301,184.97,249.301,203.242z"/>
				<path fill="#DC9137" d="M228.399,203.28c0,8.603-6.357,16.53-18.6,15.577s-18.604-6.976-18.604-15.577
					s5.413-15.26,18.604-15.577C222.989,187.384,228.399,194.677,228.399,203.28z"/>
			</g>
			<g>
				<linearGradient id="SVGID_1_" gradientUnits="userSpaceOnUse" x1="122.6047" y1="235.8923" x2="204.6467" y2="235.8923">
					<stop  offset="0" style="stop-color:#FFFFFF"/>
					<stop  offset="1" style="stop-color:#000000;stop-opacity:0.4"/>
				</linearGradient>
				<path fill="url(#SVGID_1_)" d="M163.626,198.321c-4.531,0.108-8.646,0.558-12.362,1.309c-2.261,0.61-4.519,1.233-6.776,1.854
					c-15.297,5.388-21.883,17.103-21.883,31.189v12.517c0,6.311,3.12,14.992,10.585,21.475c12.478,2.972,26.206,2.393,38.367,0.93
					c4.604-0.555,7.485,2.396,8.314,5.892c0.063-0.016,0.127-0.031,0.189-0.047c0.266-0.07,0.53-0.139,0.791-0.209
					c0.399-0.11,0.791-0.229,1.181-0.346c0.263-0.079,0.523-0.156,0.781-0.24c0.376-0.119,0.748-0.245,1.115-0.375
					c0.255-0.088,0.512-0.178,0.763-0.269c0.355-0.133,0.706-0.268,1.054-0.403c0.25-0.101,0.498-0.198,0.741-0.301
					c0.335-0.142,0.665-0.285,0.991-0.433c0.243-0.109,0.484-0.217,0.723-0.331c0.314-0.146,0.626-0.302,0.932-0.458
					c0.234-0.118,0.471-0.239,0.699-0.362c0.295-0.157,0.587-0.316,0.873-0.48c0.226-0.131,0.453-0.262,0.673-0.396
					c0.277-0.167,0.552-0.337,0.816-0.51c0.221-0.138,0.433-0.279,0.647-0.425c0.257-0.172,0.512-0.352,0.76-0.531
					c0.21-0.15,0.416-0.302,0.617-0.458c0.241-0.182,0.478-0.367,0.71-0.553c0.198-0.163,0.391-0.325,0.585-0.49
					c0.223-0.188,0.443-0.382,0.657-0.577c0.188-0.17,0.372-0.344,0.552-0.52c0.205-0.196,0.409-0.396,0.607-0.601
					c0.177-0.181,0.348-0.366,0.519-0.551c0.189-0.204,0.377-0.409,0.555-0.617c0.168-0.193,0.327-0.392,0.487-0.588
					c0.171-0.211,0.341-0.42,0.504-0.634c0.153-0.205,0.303-0.414,0.449-0.621c0.156-0.217,0.31-0.434,0.457-0.651
					c0.143-0.217,0.277-0.434,0.412-0.651c0.139-0.225,0.277-0.444,0.408-0.672c0.131-0.226,0.252-0.455,0.375-0.687
					c0.124-0.228,0.246-0.455,0.361-0.684c0.118-0.24,0.227-0.479,0.334-0.724c0.107-0.231,0.216-0.462,0.315-0.696
					c0.104-0.249,0.201-0.506,0.298-0.759c0.091-0.234,0.182-0.469,0.267-0.707c0.094-0.263,0.176-0.533,0.259-0.801
					c0.076-0.236,0.152-0.473,0.222-0.712c0.079-0.277,0.145-0.563,0.215-0.843c0.062-0.241,0.125-0.477,0.178-0.717
					c0.065-0.296,0.118-0.599,0.174-0.896c0.044-0.237,0.096-0.468,0.134-0.707c0.052-0.32,0.091-0.646,0.131-0.973
					c0.028-0.226,0.063-0.447,0.086-0.675c0.04-0.371,0.063-0.752,0.09-1.13c0.015-0.188,0.035-0.37,0.044-0.56
					c0.028-0.57,0.045-1.148,0.045-1.73v-12.517C204.647,213.7,192.713,197.619,163.626,198.321z"/>
				<path fill="#F59233" d="M120.351,243.451c0,10.889,9.624,29.104,35.701,29.333c28.463,0.257,43.302-11.063,43.302-29.333V231.4
					h-79.003V243.451L120.351,243.451z"/>
				<path fill="#F06122" d="M199.354,243.451V231.4h-9.528c-0.999,1.817-1.947,3.67-2.868,5.541
					c-4.364-0.607-7.781,2.261-9.404,6.248c-0.65,1.595-1.298,3.26-1.97,4.948c-2.809,0.53-5.405,2.318-6.64,5.685
					c-2.478,6.768-7.429,12.395-10.434,18.953C185.368,272.369,199.354,261.189,199.354,243.451z"/>
				<path fill="#F2B131" d="M199.354,231.4c0,18.271-13.503,35.108-39.504,33.082c-25.999-2.025-39.499-14.813-39.499-33.082
					c0-18.271,11.488-32.405,39.499-33.081C187.863,197.643,199.354,213.129,199.354,231.4z"/>
				<path fill="#EC9F1E" d="M178.452,234.958c0,8.603-6.359,16.53-18.604,15.577c-12.241-0.954-18.601-6.976-18.601-15.577
					c0-8.604,5.412-15.262,18.601-15.579C173.04,219.06,178.452,226.352,178.452,234.958z"/>
			</g>
			<g>
				<path fill="#F59233" d="M311.927,165.915c0,7.295,6.451,19.499,23.923,19.654c19.071,0.171,29.014-7.411,29.014-19.654v-8.074
					h-52.937V165.915z"/>
				<path fill="#F06122" d="M364.864,165.915v-8.074h-6.385c-0.67,1.218-1.305,2.459-1.921,3.713
					c-2.925-0.406-5.212,1.514-6.301,4.187c-0.438,1.068-0.872,2.184-1.321,3.314c-1.881,0.354-3.622,1.555-4.448,3.81
					c-1.658,4.534-4.977,8.304-6.989,12.7C355.492,185.291,364.864,177.8,364.864,165.915z"/>
				<path fill="#F2B131" d="M364.864,157.841c0,12.241-9.048,23.522-26.467,22.167c-17.421-1.357-26.47-9.926-26.47-22.167
					s7.699-21.715,26.47-22.167C357.165,135.22,364.864,145.598,364.864,157.841z"/>
				<path fill="#EC9F1E" d="M350.861,160.221c0,5.765-4.263,11.075-12.464,10.438c-8.203-0.64-12.466-4.675-12.466-10.438
					c0-5.765,3.627-10.225,12.466-10.438C347.234,149.572,350.861,154.457,350.861,160.221z"/>
			</g>
			<g>
				<path fill="#ED7C32" d="M230.224,189.769c0,18.271,13.504,31.057,39.504,33.082c25.997,2.022,39.5-14.813,39.5-33.082v-8.608
					l-79.004-1.088V189.769z"/>
				<path fill="#F09054" d="M230.224,180.404v9.365c0,14.574,8.603,25.65,25.275,30.566c4.639-3.496,9.269-7.001,14.425-9.706
					c4.311-2.264,5.057-6.392,3.71-9.88c0.933-0.965,1.855-1.939,2.757-2.942c5.35-5.972,0.294-17.415-8.376-14.389
					c-2.892,1.011-5.613,2.246-8.228,3.653c-0.624-0.674-1.365-1.24-2.211-1.669c0.137-1.738-0.202-3.467-0.928-4.966l-26.146-0.361
					C230.408,180.185,230.312,180.293,230.224,180.404z"/>
				<path fill="#F2B131" d="M309.228,181.161c0,18.271-13.503,35.107-39.5,33.081c-26-2.023-39.504-14.811-39.504-33.081
					c0-18.27,11.491-32.408,39.504-33.083C297.738,147.404,309.228,162.891,309.228,181.161z"/>
				<path fill="#D78A1A" d="M288.326,181.198c0,8.604-6.357,16.532-18.6,15.577c-12.242-0.953-18.603-6.973-18.603-15.577
					c0-8.603,5.412-15.258,18.603-15.577C282.916,165.303,288.326,172.595,288.326,181.198z"/>
			</g>
			<g>
				<path fill="#F09054" d="M214.071,269.137c0,10.889,9.626,29.104,35.702,29.334c28.464,0.257,43.302-11.063,43.302-29.334
					v-12.053h-79.004V269.137L214.071,269.137z"/>
				<path fill="#F06122" d="M293.073,269.137v-12.053h-9.526c-0.999,1.82-1.948,3.671-2.867,5.542
					c-4.366-0.605-7.782,2.262-9.405,6.248c-0.649,1.597-1.299,3.26-1.97,4.949c-2.81,0.531-5.405,2.319-6.641,5.684
					c-2.478,6.769-7.429,12.396-10.433,18.954C279.091,298.056,293.073,286.877,293.073,269.137z"/>
				<path fill="#F2B131" d="M293.073,257.086c0,18.271-13.501,35.109-39.501,33.083c-26-2.023-39.502-14.812-39.502-33.083
					c0-18.27,11.489-32.403,39.502-33.079S293.073,238.816,293.073,257.086z"/>
				<path fill="#EC9F1E" d="M272.174,260.643c0,8.603-6.359,16.53-18.603,15.579c-12.241-0.954-18.602-6.978-18.602-15.579
					c0-8.603,5.412-15.261,18.602-15.577C266.762,244.748,272.174,252.041,272.174,260.643z"/>
			</g>
			<g>
				<path fill="#ED7C32" d="M98.579,161.421c0,15.967,11.8,27.139,34.521,28.908c22.716,1.771,34.519-12.941,34.519-28.908V153.9
					l-69.038-0.95L98.579,161.421L98.579,161.421z"/>
				<path fill="#F09054" d="M98.579,153.239v8.182c0,12.736,7.518,22.415,22.087,26.713c4.054-3.056,8.1-6.119,12.604-8.483
					c3.77-1.977,4.422-5.583,3.243-8.629c0.815-0.847,1.623-1.698,2.411-2.575c4.674-5.218,0.255-15.218-7.322-12.572
					c-2.526,0.883-4.902,1.961-7.188,3.192c-0.544-0.588-1.192-1.083-1.932-1.46c0.118-1.519-0.176-3.028-0.81-4.338l-22.847-0.313
					C98.74,153.047,98.656,153.141,98.579,153.239z"/>
				<path fill="#F2B131" d="M167.617,153.899c0,15.965-11.803,30.678-34.519,28.907c-22.721-1.77-34.521-12.942-34.521-28.907
					c0-15.967,10.042-28.319,34.521-28.91C157.575,124.401,167.617,137.932,167.617,153.899z"/>
				<path fill="#D78A1A" d="M149.353,153.932c0,7.519-5.557,14.443-16.253,13.612c-10.698-0.834-16.256-6.095-16.256-13.612
					c0-7.519,4.73-13.335,16.256-13.611C144.626,140.041,149.353,146.414,149.353,153.932z"/>
			</g>
			<g>
				<path opacity="0.3" enable-background="new    " d="M137.852,203.272c-4.171,1.094-8.527,0.013-10.299-4.371
					c-0.724-1.789-0.681-4.064,0.052-6.038c-0.055-0.511-0.063-1.03-0.027-1.552c-3.201-1.301-5.267-4.377-5.522-7.463
					c-0.064-0.003-0.13-0.008-0.194-0.01c-5.535-0.193-12.426-0.313-18.607,0.499c-4.295,0.563-7.088-1.95-8.113-5.129
					c-9.131,5.376-13.153,14.221-13.153,24.514v10.937c0,3.207,0.929,7.115,2.981,10.938c2.313-1.121,5.141-1.099,7.788,0.984
					c3.012,2.371,6.492,4.405,9.958,6.177c0.104-1.02,0.173-2.042,0.188-3.07c0.087-5.598,6.235-7.6,10.811-6.108
					c4.354-0.144,8.688,2.948,7.87,8.73c-0.338,2.392-0.783,4.76-1.199,7.132c-0.01,0.562-0.039,1.123-0.067,1.686
					c0.086-0.005,0.176-0.009,0.263-0.015c0.175-0.013,0.354-0.018,0.526-0.031c0.521-0.036,1.024-0.08,1.531-0.128
					c0.203-0.016,0.41-0.032,0.611-0.053c0.476-0.046,0.941-0.104,1.411-0.16c0.219-0.024,0.44-0.049,0.657-0.077
					c0.446-0.06,0.877-0.123,1.313-0.188c0.229-0.036,0.46-0.068,0.688-0.104c0.416-0.068,0.823-0.144,1.229-0.22
					c0.231-0.043,0.468-0.083,0.696-0.129c0.395-0.078,0.774-0.163,1.158-0.248c0.233-0.053,0.47-0.103,0.699-0.155
					c0.37-0.088,0.731-0.182,1.093-0.274c0.231-0.063,0.464-0.12,0.691-0.183c0.347-0.098,0.69-0.2,1.029-0.302
					c0.229-0.07,0.459-0.138,0.685-0.209c0.328-0.105,0.654-0.217,0.977-0.329c0.224-0.077,0.444-0.154,0.664-0.233
					c0.312-0.112,0.616-0.233,0.92-0.354c0.221-0.086,0.436-0.172,0.65-0.261c0.293-0.125,0.58-0.249,0.865-0.379
					c0.213-0.098,0.424-0.191,0.632-0.288c0.274-0.133,0.544-0.268,0.813-0.401c0.203-0.104,0.409-0.209,0.609-0.318
					c0.259-0.138,0.513-0.274,0.764-0.421c0.196-0.111,0.395-0.228,0.588-0.345c0.243-0.144,0.481-0.294,0.715-0.443
					c0.189-0.122,0.379-0.244,0.563-0.371c0.226-0.15,0.449-0.309,0.665-0.465c0.186-0.134,0.365-0.266,0.541-0.399
					c0.209-0.16,0.417-0.32,0.62-0.484c0.173-0.142,0.341-0.282,0.511-0.427c0.195-0.165,0.389-0.334,0.572-0.505
					c0.167-0.149,0.327-0.301,0.484-0.454c0.178-0.174,0.355-0.346,0.527-0.523c0.157-0.157,0.309-0.32,0.456-0.483
					c0.164-0.177,0.327-0.355,0.483-0.538c0.146-0.169,0.287-0.34,0.427-0.514c0.149-0.183,0.297-0.366,0.439-0.554
					c0.134-0.18,0.265-0.359,0.394-0.543c0.136-0.188,0.271-0.378,0.399-0.57c0.125-0.188,0.243-0.377,0.358-0.567
					c0.121-0.195,0.242-0.391,0.357-0.588c0.114-0.196,0.22-0.396,0.327-0.597c0.107-0.199,0.215-0.398,0.314-0.603
					c0.104-0.207,0.197-0.417,0.292-0.63c0.098-0.199,0.19-0.403,0.277-0.609c0.091-0.217,0.175-0.438,0.258-0.662
					c0.08-0.205,0.161-0.408,0.235-0.619c0.081-0.229,0.15-0.463,0.225-0.696c0.065-0.209,0.136-0.413,0.193-0.623
					c0.07-0.242,0.126-0.492,0.188-0.737c0.054-0.208,0.109-0.415,0.156-0.624c0.057-0.259,0.104-0.521,0.152-0.785
					c0.037-0.205,0.083-0.406,0.114-0.617c0.045-0.277,0.078-0.563,0.113-0.849c0.026-0.196,0.057-0.39,0.078-0.59
					c0.032-0.322,0.054-0.656,0.077-0.986c0.012-0.163,0.029-0.322,0.037-0.488c0.024-0.498,0.039-1.005,0.039-1.514v-10.937
					c0-1.579-0.098-3.135-0.289-4.657C148.201,200.444,143.041,201.913,137.852,203.272z"/>
				<path fill="#F09054" d="M80.014,213.14c0,9.514,8.412,25.43,31.198,25.634c24.872,0.221,37.837-9.668,37.837-25.634v-10.529
					H80.014V213.14z"/>
				<path fill="#F06122" d="M149.049,213.14v-10.529h-8.326c-0.873,1.587-1.701,3.205-2.504,4.841
					c-3.815-0.53-6.801,1.976-8.218,5.459c-0.571,1.395-1.139,2.848-1.724,4.323c-2.455,0.466-4.724,2.028-5.801,4.967
					c-2.165,5.916-6.492,10.833-9.116,16.564C136.83,238.41,149.049,228.639,149.049,213.14z"/>
				<path fill="#F2B131" d="M149.049,202.611c0,15.966-11.799,30.678-34.52,28.907c-22.718-1.771-34.517-12.941-34.517-28.907
					s10.04-28.319,34.517-28.91C139.009,173.111,149.049,186.645,149.049,202.611z"/>
				<path fill="#EC9F1E" d="M130.787,205.719c0,7.516-5.559,14.443-16.258,13.611c-10.694-0.834-16.253-6.097-16.253-13.611
					c0-7.521,4.729-13.337,16.253-13.613C126.057,191.827,130.787,198.197,130.787,205.719z"/>
			</g>
			<g>
				<path fill="#F09054" d="M288.212,227.946c0,9.514,8.411,25.434,31.198,25.634c24.87,0.225,37.836-9.668,37.836-25.634v-10.529
					h-69.034V227.946z"/>
				<path fill="#F06122" d="M357.246,227.946v-10.529h-8.325c-0.874,1.587-1.702,3.206-2.505,4.841
					c-3.813-0.529-6.799,1.976-8.219,5.461c-0.569,1.395-1.136,2.849-1.722,4.324c-2.455,0.464-4.725,2.024-5.802,4.969
					c-2.165,5.911-6.492,10.828-9.116,16.562C345.028,253.219,357.246,243.447,357.246,227.946z"/>
				<path fill="#F2B131" d="M357.246,217.417c0,15.964-11.799,30.678-34.518,28.908c-22.72-1.77-34.518-12.944-34.518-28.908
					c0-15.966,10.039-28.318,34.518-28.908S357.246,201.451,357.246,217.417z"/>
				<path fill="#EC9F1E" d="M338.985,220.524c0,7.519-5.558,14.444-16.255,13.611c-10.696-0.833-16.255-6.094-16.255-13.611
					c0-7.519,4.729-13.334,16.255-13.613C334.256,206.633,338.985,213.007,338.985,220.524z"/>
			</g>
			<g>
				<path fill="#ED7C32" d="M157.611,154.344c0,15.967,11.802,27.139,34.521,28.907c22.717,1.771,34.519-12.94,34.519-28.907v-7.521
					l-69.038-0.951L157.611,154.344L157.611,154.344z"/>
				<path fill="#F09054" d="M157.611,146.161v8.183c0,12.735,7.518,22.415,22.086,26.714c4.055-3.057,8.101-6.12,12.605-8.484
					c3.768-1.976,4.42-5.582,3.243-8.631c0.813-0.845,1.621-1.697,2.409-2.574c4.674-5.218,0.258-15.218-7.321-12.57
					c-2.525,0.882-4.904,1.959-7.189,3.19c-0.546-0.588-1.191-1.084-1.931-1.458c0.118-1.521-0.177-3.029-0.811-4.34l-22.849-0.314
					C157.773,145.969,157.687,146.063,157.611,146.161z"/>
				<path fill="#EEA82B" d="M226.649,146.822c0,15.964-11.802,30.677-34.519,28.907c-22.719-1.77-34.521-12.943-34.521-28.907
					c0-15.968,10.041-28.32,34.521-28.909C216.606,117.323,226.649,130.854,226.649,146.822z"/>
				<path fill="#DC9137" d="M208.384,146.854c0,7.519-5.558,14.444-16.254,13.612c-10.697-0.832-16.255-6.095-16.255-13.612
					c0-7.519,4.729-13.335,16.255-13.611C203.656,132.963,208.384,139.336,208.384,146.854z"/>
			</g>
			<g>
				<path opacity="0.3" enable-background="new    " d="M226.544,291.184c0.933,0.357,1.859,0.729,2.783,1.112
					c0.136-0.085,0.272-0.169,0.405-0.255c0.189-0.121,0.378-0.243,0.563-0.369c0.225-0.152,0.448-0.307,0.665-0.465
					c0.185-0.131,0.364-0.266,0.54-0.401c0.21-0.157,0.418-0.318,0.619-0.483c0.176-0.138,0.342-0.283,0.513-0.425
					c0.193-0.168,0.388-0.335,0.573-0.508c0.165-0.148,0.326-0.3,0.483-0.452c0.179-0.172,0.357-0.347,0.528-0.522
					c0.156-0.16,0.307-0.319,0.456-0.483c0.164-0.179,0.328-0.356,0.48-0.538c0.149-0.17,0.288-0.342,0.428-0.516
					c0.147-0.184,0.298-0.365,0.44-0.553c0.134-0.18,0.266-0.362,0.394-0.544c0.137-0.189,0.269-0.376,0.397-0.57
					c0.126-0.187,0.243-0.38,0.359-0.569c0.122-0.192,0.244-0.389,0.357-0.584c0.114-0.196,0.221-0.4,0.327-0.602
					c0.11-0.199,0.216-0.396,0.316-0.596c0.103-0.21,0.198-0.42,0.294-0.632c0.094-0.203,0.188-0.403,0.274-0.609
					c0.091-0.219,0.175-0.439,0.259-0.663c0.08-0.206,0.16-0.41,0.233-0.62c0.082-0.229,0.151-0.465,0.226-0.697
					c0.064-0.207,0.136-0.411,0.192-0.621c0.071-0.244,0.126-0.492,0.19-0.737c0.052-0.208,0.105-0.415,0.152-0.628
					c0.059-0.255,0.104-0.52,0.152-0.78c0.037-0.206,0.082-0.41,0.115-0.617c0.047-0.28,0.078-0.564,0.114-0.851
					c0.024-0.197,0.054-0.391,0.076-0.588c0.032-0.327,0.055-0.657,0.077-0.988c0.014-0.163,0.031-0.323,0.037-0.489
					c0.026-0.498,0.04-1.003,0.04-1.513V260.89c0-16.58-10.427-30.636-35.846-30.021c-25.418,0.612-35.846,13.439-35.846,30.021
					v6.998c0.885-0.095,1.766-0.191,2.634-0.297c6.217-0.747,9.303,4.893,8.413,9.641c0.154,0.147,0.31,0.295,0.459,0.46
					c9.428,10.421,25.417,11.294,38.436,9.696C221.961,287.009,224.958,288.588,226.544,291.184z"/>
				<path fill="#F59233" d="M166.951,270.307c0,9.512,8.412,25.431,31.198,25.634c24.872,0.224,37.839-9.668,37.839-25.634v-10.531
					h-69.037V270.307L166.951,270.307z"/>
				<path fill="#F06122" d="M235.99,270.307v-10.531h-8.324c-0.875,1.588-1.704,3.207-2.508,4.842
					c-3.814-0.529-6.8,1.977-8.219,5.461c-0.569,1.394-1.136,2.849-1.722,4.325c-2.452,0.464-4.723,2.024-5.802,4.967
					c-2.163,5.913-6.49,10.83-9.116,16.563C223.77,295.578,235.99,285.806,235.99,270.307z"/>
				<path fill="#F2B131" d="M235.99,259.776c0,15.966-11.8,30.679-34.52,28.909c-22.719-1.77-34.519-12.943-34.519-28.909
					s10.041-28.317,34.519-28.907C225.949,230.28,235.99,243.81,235.99,259.776z"/>
				<path fill="#EC9F1E" d="M217.726,262.885c0,7.518-5.558,14.443-16.256,13.61c-10.697-0.835-16.255-6.094-16.255-13.61
					c0-7.521,4.729-13.336,16.255-13.613C212.996,248.994,217.726,255.366,217.726,262.885z"/>
			</g>
			<g>
				<path fill="#F59233" d="M111.167,309.649c0,7.666,6.777,20.49,25.137,20.652c20.038,0.181,30.486-7.788,30.486-20.652v-8.484
					h-55.623V309.649L111.167,309.649z"/>
				<path fill="#F06122" d="M166.79,309.649v-8.484h-6.708c-0.704,1.28-1.373,2.585-2.02,3.902
					c-3.074-0.429-5.479,1.592-6.622,4.398c-0.458,1.122-0.915,2.295-1.387,3.48c-1.977,0.376-3.805,1.636-4.673,4.005
					c-1.745,4.764-5.23,8.726-7.348,13.345C156.945,330.01,166.79,322.137,166.79,309.649z"/>
				<path fill="#F2B131" d="M166.79,301.165c0,12.863-9.506,24.719-27.813,23.294c-18.304-1.426-27.811-10.431-27.811-23.294
					c0-12.864,8.091-22.814,27.811-23.29C158.702,277.399,166.79,288.301,166.79,301.165z"/>
				<path fill="#EC9F1E" d="M152.074,303.67c0,6.058-4.477,11.641-13.098,10.969c-8.617-0.674-13.097-4.911-13.097-10.969
					c0-6.057,3.813-10.742,13.097-10.968C148.265,292.477,152.074,297.613,152.074,303.67z"/>
			</g>
			<g>
				<path opacity="0.3" enable-background="new    " d="M250.386,201.998c0.124-0.153,0.246-0.306,0.368-0.461
					c0.112-0.15,0.221-0.303,0.329-0.456c0.111-0.156,0.226-0.314,0.332-0.477c0.104-0.157,0.204-0.316,0.302-0.479
					c0.102-0.162,0.202-0.323,0.3-0.487c0.095-0.166,0.186-0.334,0.274-0.502c0.091-0.166,0.18-0.332,0.264-0.501
					c0.087-0.176,0.165-0.353,0.246-0.526c0.079-0.17,0.157-0.339,0.229-0.512c0.077-0.183,0.147-0.369,0.219-0.555
					c0.067-0.173,0.134-0.345,0.194-0.519c0.069-0.191,0.127-0.391,0.188-0.585c0.055-0.174,0.113-0.345,0.162-0.521
					c0.059-0.203,0.104-0.409,0.158-0.613c0.042-0.177,0.09-0.351,0.128-0.525c0.048-0.215,0.089-0.436,0.129-0.654
					c0.032-0.173,0.069-0.342,0.096-0.517c0.038-0.233,0.065-0.473,0.097-0.711c0.021-0.166,0.045-0.326,0.064-0.493
					c0.026-0.272,0.045-0.551,0.065-0.828c0.008-0.135,0.021-0.269,0.03-0.407c0.021-0.417,0.03-0.84,0.03-1.266v-9.152
					c0-13.875-8.724-25.636-29.994-25.122c-21.271,0.513-29.997,11.247-29.997,25.122v9.152c0,8.266,7.309,22.098,27.108,22.275
					c1.193,0.009,2.35-0.012,3.479-0.056c0.1-0.003,0.201-0.005,0.3-0.009c0.475-0.019,0.941-0.046,1.404-0.075
					c0.148-0.011,0.301-0.018,0.444-0.025c0.436-0.03,0.857-0.067,1.282-0.107c0.17-0.015,0.343-0.027,0.51-0.044
					c0.397-0.04,0.789-0.085,1.181-0.135c0.184-0.021,0.37-0.04,0.552-0.063c0.373-0.049,0.734-0.104,1.1-0.159
					c0.189-0.03,0.387-0.059,0.576-0.088c0.347-0.056,0.688-0.118,1.026-0.182c0.195-0.038,0.394-0.072,0.583-0.108
					c0.332-0.064,0.649-0.139,0.971-0.208c0.195-0.045,0.393-0.084,0.586-0.131c0.311-0.074,0.611-0.15,0.914-0.229
					c0.192-0.049,0.388-0.099,0.578-0.15c0.291-0.082,0.578-0.169,0.863-0.253c0.191-0.059,0.382-0.116,0.571-0.176
					c0.274-0.089,0.547-0.183,0.814-0.273c0.188-0.066,0.375-0.133,0.559-0.199c0.259-0.093,0.516-0.194,0.769-0.293
					c0.187-0.073,0.365-0.146,0.543-0.22c0.247-0.104,0.487-0.209,0.727-0.314c0.179-0.08,0.354-0.161,0.527-0.244
					c0.23-0.107,0.456-0.222,0.682-0.335c0.171-0.086,0.344-0.177,0.512-0.266c0.217-0.114,0.429-0.232,0.637-0.352
					c0.166-0.095,0.332-0.194,0.493-0.288c0.204-0.124,0.404-0.249,0.598-0.373c0.161-0.102,0.317-0.206,0.474-0.311
					c0.188-0.13,0.375-0.261,0.558-0.392c0.152-0.108,0.304-0.221,0.452-0.333c0.173-0.136,0.349-0.27,0.519-0.405
					c0.146-0.116,0.286-0.236,0.428-0.357c0.163-0.139,0.325-0.279,0.479-0.422c0.138-0.125,0.272-0.252,0.405-0.38
					c0.149-0.146,0.299-0.29,0.442-0.438c0.131-0.132,0.256-0.267,0.381-0.405c0.138-0.146,0.272-0.297,0.403-0.448
					C250.151,202.287,250.269,202.143,250.386,201.998z"/>
				<path fill="#F09054" d="M192.951,188.132c0,7.96,7.037,21.28,26.106,21.451c20.814,0.186,31.663-8.09,31.663-21.451v-8.813
					H192.95L192.951,188.132L192.951,188.132z"/>
				<path fill="#F06122" d="M250.722,188.132v-8.813h-6.966c-0.732,1.328-1.426,2.683-2.098,4.052
					c-3.19-0.442-5.691,1.652-6.878,4.57c-0.478,1.166-0.95,2.381-1.44,3.617c-2.053,0.39-3.952,1.696-4.854,4.155
					c-1.813,4.949-5.433,9.064-7.63,13.86C240.497,209.28,250.722,201.102,250.722,188.132z"/>
				<path fill="#F2B131" d="M250.722,179.319c0,13.36-9.874,25.673-28.886,24.191c-19.014-1.479-28.885-10.831-28.885-24.191
					s8.4-23.697,28.885-24.191S250.722,165.959,250.722,179.319z"/>
				<path fill="#EC9F1E" d="M235.441,181.92c0,6.292-4.65,12.091-13.604,11.392c-8.949-0.697-13.604-5.1-13.604-11.392
					s3.958-11.161,13.604-11.391C231.484,170.295,235.441,175.628,235.441,181.92z"/>
			</g>
		</g>
	</g>
</g>
</svg>
