<?xml version="1.0" encoding="utf-8"?>
<!-- Generator: Adobe Illustrator 16.0.3, SVG Export Plug-In . SVG Version: 6.00 Build 0)  -->
<!DOCTYPE svg PUBLIC "-//W3C//DTD SVG 1.1//EN" "http://www.w3.org/Graphics/SVG/1.1/DTD/svg11.dtd">
<svg version="1.1" id="Ebene_1" xmlns="http://www.w3.org/2000/svg" xmlns:xlink="http://www.w3.org/1999/xlink" x="0px" y="0px"
	 width="450px" height="450px" viewBox="0 0 450 450" enable-background="new 0 0 450 450" xml:space="preserve">
<g id="carrots">
	<g id="Layer_2">
		<g>
			<g>
				<g>
					<path fill="#FBC672" d="M86.519,262.35c-8.646-10.924,38.449-25.606,43.984-28.38c15.744-7.551,33.06-19.733,50.811-22.609
						c13.458-1.824,32.163-9.856,42.146,3.263c5.588,7.488-0.615,10.547-7.34,14.228c-7.063,3.821-13.646,7.84-21.854,8.987
						c-9.355,1.246-16.705,1.634-25.722,5.507c-8.683,3.728-17.938,6.12-26.909,9.182c-15.459,5.447-33.352,13.529-49.963,10.771
						C90.05,263.205,88.285,262.775,86.519,262.35"/>
				</g>
				<g>
					<path fill="#F78532" d="M84.831,258.42c-8.646-10.923,38.449-25.607,43.985-28.382c15.743-7.55,33.058-19.732,50.811-22.61
						c13.457-1.823,32.16-9.853,42.145,3.265c5.587,7.489-0.61,10.547-7.341,14.226c-7.063,3.825-13.645,7.84-21.853,8.989
						c-9.356,1.246-16.704,1.635-25.722,5.506c-8.684,3.729-17.941,6.123-26.91,9.182c-15.458,5.451-33.351,13.529-49.962,10.772
						C88.363,259.275,86.597,258.848,84.831,258.42"/>
				</g>
				<g>
					<path fill="#FBA7A0" d="M201.337,229.118c1.07,1.647,2.344,3.134,3.923,4.313c0.468,0.351,0.237-0.646-0.005-0.826
						c-1.446-1.082-2.636-2.422-3.619-3.935C201.241,228.064,201.076,228.714,201.337,229.118L201.337,229.118z"/>
					<path fill="#FBA7A0" d="M140.524,240.557c-0.353,3.318,3.058,11.34,7.341,10.328c0.394-0.094,0-1.078-0.438-0.979
						c-3.511,0.83-6.473-6.143-6.185-8.848C141.284,240.664,140.589,239.928,140.524,240.557L140.524,240.557z"/>
					<path fill="#FBA7A0" d="M135.974,246.645c0.254,2.39,1.621,4.568,3.848,5.558c0.496,0.221,0.296-0.813-0.074-0.978
						c-1.743-0.772-2.836-2.444-3.035-4.318C136.665,246.445,135.898,245.948,135.974,246.645L135.974,246.645z"/>
					<path fill="#FBA7A0" d="M129.229,251.07c-0.085,2.251,1.037,4.287,3.25,4.976c0.264,0.082,0.006-0.891-0.312-0.989
						c-1.648-0.513-2.404-1.729-2.339-3.427C129.84,251.344,129.252,250.497,129.229,251.07L129.229,251.07z"/>
					<path fill="#FBA7A0" d="M148.748,243.795c0.086,2.066,1.14,4.321,3.226,4.989c0.165,0.054-0.06-0.886-0.341-0.978
						c-1.572-0.507-2.292-1.83-2.36-3.418C149.265,244.165,148.728,243.273,148.748,243.795L148.748,243.795z"/>
					<path fill="#FBA7A0" d="M158.387,241.202c1.129,1.151,2.091,2.472,3.486,3.323c0.355,0.218,0.093-0.781-0.164-0.938
						c-1.332-0.813-2.252-2.106-3.331-3.212c-0.15-0.155-0.301-0.064-0.299,0.137C158.082,240.768,158.213,241.021,158.387,241.202
						L158.387,241.202z"/>
					<path fill="#FBA7A0" d="M163.694,238.921c0.129,2.101,1.635,3.667,3.388,4.651c0.551,0.312,0.432-0.672,0.087-0.867
						c-1.354-0.762-2.668-1.848-2.771-3.508C164.371,238.756,163.649,238.223,163.694,238.921L163.694,238.921z"/>
					<path fill="#FBA7A0" d="M169.656,236.945c-0.078,1.685,0.382,3.449,1.882,4.399c0.524,0.329,0.37-0.661,0.061-0.854
						c-1.085-0.688-1.32-1.807-1.265-3.021C170.351,237.113,169.684,236.336,169.656,236.945L169.656,236.945z"/>
					<path fill="#FBA7A0" d="M177.806,231.466c-0.271,2.795,0.4,5.915,2.645,7.78c0.447,0.372,0.227-0.637-0.004-0.827
						c-1.878-1.562-2.25-4.094-2.026-6.399C178.45,231.717,177.863,230.883,177.806,231.466L177.806,231.466z"/>
					<path fill="#FBA7A0" d="M184.426,231.469c0.211,2.406,0.788,5.066,2.854,6.567c0.513,0.369,0.429-0.642,0.104-0.877
						c-1.692-1.228-2.063-3.474-2.234-5.423C185.111,231.283,184.364,230.77,184.426,231.469L184.426,231.469z"/>
					<path fill="#FBA7A0" d="M189.932,231.277c-0.26,2.166,0.263,4.891,2.274,6.1c0.292,0.174,0-0.786-0.217-0.916
						c-1.535-0.92-1.713-2.786-1.518-4.413C190.502,231.797,189.971,230.954,189.932,231.277L189.932,231.277z"/>
					<g>
						<path fill="#FCADC7" d="M110.81,237.521c-1.977,2.689-1.732,5.574-0.533,8.533c0.233,0.579,0.52,0.445,0.289-0.128
							c-1.077-2.659-0.97-5.169,0.741-7.498C111.462,238.219,110.937,237.352,110.81,237.521L110.81,237.521z"/>
						<path fill="#FCADC7" d="M114.523,235.945c-1.701,3.052-2.098,6.148,0.076,9.021c0.294,0.392-0.001-0.614-0.122-0.772
							c-1.783-2.357-0.702-5.112,0.541-7.338C115.147,236.618,114.601,235.809,114.523,235.945L114.523,235.945z"/>
						<path fill="#FCADC7" d="M120.125,233.631c-1.353,2.866-1.644,5.813-0.487,8.795c0.237,0.617,0.878,0.32,0.641-0.289
							c-1.033-2.662-0.647-5.279,0.547-7.81C121.015,233.932,120.372,233.107,120.125,233.631L120.125,233.631z"/>
						<path fill="#FCADC7" d="M127.123,231.059c-0.813,2.998-2.648,5.711-0.838,8.698c0.368,0.61,0.757-0.049,0.47-0.521
							c-1.446-2.394,0.411-5.104,1.052-7.475C127.914,231.368,127.263,230.539,127.123,231.059L127.123,231.059z"/>
						<path fill="#FCADC7" d="M132.936,227.761c-0.76,3.358-2.018,6.284-1.008,9.729c0.068,0.234,0.635,1.042,0.445,0.393
							c-0.948-3.229,0.348-6.089,1.054-9.212C133.492,228.381,132.951,227.695,132.936,227.761L132.936,227.761z"/>
						<path fill="#FCADC7" d="M134.996,236.166c-0.047,2.232,1.227,3.956,2.097,5.916c0.263,0.587,0.747,0.369,0.486-0.217
							c-0.749-1.684-1.972-3.247-1.932-5.166C135.655,236.369,135.01,235.57,134.996,236.166L134.996,236.166z"/>
						<path fill="#FCADC7" d="M128.884,239.691c0.398,2.634,1.814,5.098,3.679,6.969c0.495,0.494,0.779-0.391,0.399-0.77
							c-1.678-1.683-2.914-3.886-3.271-6.248C129.601,239.039,128.779,239.005,128.884,239.691L128.884,239.691z"/>
						<path fill="#FCADC7" d="M122.175,241.348c0.979,2.395,1.526,5.293,3.734,6.904c0.528,0.385,0.574-0.628,0.187-0.912
							c-1.904-1.39-2.375-4.244-3.219-6.308C122.625,240.418,121.925,240.738,122.175,241.348L122.175,241.348z"/>
						<path fill="#FCADC7" d="M103.885,248.266c0.213,2.973,2.01,6.195,5.05,7c0.151,0.039-0.078-0.901-0.35-0.974
							c-2.392-0.635-4.01-2.8-4.185-5.245C104.384,248.809,103.869,248.018,103.885,248.266L103.885,248.266z"/>
						<path fill="#FCADC7" d="M112.408,247.098c0.251,2.379,1.583,4.692,3.824,5.687c0.374,0.165,0.066-0.813-0.187-0.929
							c-1.721-0.76-2.861-2.306-3.058-4.188C112.956,247.412,112.35,246.559,112.408,247.098L112.408,247.098z"/>
						<path fill="#FCADC7" d="M96.972,247.251c-0.104,2.562,0.84,5.042,2.852,6.683c0.444,0.36,0.197-0.64-0.023-0.818
							c-1.657-1.352-2.316-3.207-2.232-5.303C97.579,247.529,96.994,246.68,96.972,247.251L96.972,247.251z"/>
						<path fill="#FCADC7" d="M93.901,249.684c0.503,2.23,0.656,4.404,2.848,5.646c0.384,0.218,0.126-0.793-0.149-0.947
							c-1.707-0.964-1.7-2.681-2.084-4.385C94.437,249.648,93.75,249.006,93.901,249.684L93.901,249.684z"/>
						<path fill="#FCADC7" d="M90.126,252.973c-0.037,0.924,0.392,1.705,0.98,2.389c0.455,0.525,0.943-0.104,0.551-0.561
							c-0.419-0.484-0.741-0.941-0.714-1.605C90.964,252.663,90.154,252.271,90.126,252.973L90.126,252.973z"/>
						<path fill="#FCADC7" d="M140.569,224.677c-1.323,2.671-2.809,6.503,1.188,7.513c0.564,0.142,0.371-0.881-0.053-0.986
							c-1.581-0.398-2.069-1.281-1.701-2.828c0.249-1.047,0.794-2.043,1.269-3C141.465,224.98,140.827,224.157,140.569,224.677
							L140.569,224.677z"/>
						<path fill="#FCADC7" d="M145.387,221.621c-0.418,2.065-1.163,3.853,0.3,5.664c0.438,0.54,0.405-0.387,0.173-0.671
							c-0.972-1.199-0.138-2.919,0.135-4.252C146.059,222.05,145.475,221.189,145.387,221.621L145.387,221.621z"/>
						<path fill="#FCADC7" d="M150.332,219.859c-0.286,0.945-0.754,1.817-0.969,2.779c-0.211,0.947,0.205,1.88,0.76,2.623
							c0.426,0.569,0.76-0.067,0.43-0.504c-1.051-1.406,0.005-2.744,0.442-4.183C151.105,220.208,150.483,219.362,150.332,219.859
							L150.332,219.859z"/>
						<path fill="#FCADC7" d="M146.169,233.225c0.295,2.94,1.348,5.629,2.491,8.328c0.25,0.592,0.723,0.374,0.475-0.212
							c-1.074-2.532-2.058-5.045-2.336-7.808C146.762,233.152,146.1,232.53,146.169,233.225L146.169,233.225z"/>
						<path fill="#FCADC7" d="M148.683,233.386c-0.05,3.132,1.701,5.886,3.506,8.31c0.413,0.554,0.273-0.389,0.092-0.633
							c-1.564-2.098-3.078-4.386-3.033-7.101C149.252,233.704,148.693,232.834,148.683,233.386L148.683,233.386z"/>
						<path fill="#FCADC7" d="M152.508,232.771c0.351,3.244,2.32,6.889,5.524,8.056c0.105,0.037-0.087-0.874-0.356-0.972
							c-2.693-0.979-4.379-3.699-4.678-6.474C152.978,233.186,152.455,232.279,152.508,232.771L152.508,232.771z"/>
						<path fill="#FCADC7" d="M156.154,231.975c0.97,2.319,1.76,4.668,3.779,6.303c0.224,0.183-0.042-0.758-0.233-0.909
							c-1.767-1.433-2.412-3.499-3.257-5.525C156.203,231.27,155.915,231.402,156.154,231.975L156.154,231.975z"/>
						<path fill="#FCADC7" d="M158.037,219.992c-0.266,2.824,0.404,6.091,2.673,7.986c0.539,0.451,0.706-0.418,0.326-0.737
							c-1.934-1.614-2.468-4.354-2.243-6.761C158.833,220.048,158.097,219.354,158.037,219.992L158.037,219.992z"/>
						<path fill="#FCADC7" d="M165.794,216.698c-0.142,3.027,0.571,6.306,3.42,7.875c0.401,0.221,0.154-0.792-0.135-0.949
							c-2.344-1.294-2.75-3.937-2.636-6.389C166.459,216.904,165.821,216.101,165.794,216.698L165.794,216.698z"/>
						<path fill="#FCADC7" d="M173.818,213.411c0.329,1.695,0.45,3.409,1.394,4.908c0.388,0.614,0.536-0.039,0.284-0.44
							c-0.777-1.235-0.824-2.739-1.099-4.139C174.333,213.41,173.686,212.729,173.818,213.411L173.818,213.411z"/>
						<path fill="#FCADC7" d="M172.521,224.737c0.662,3.481,0.72,7.005,2.593,10.123c0.371,0.619,0.624-0.045,0.364-0.478
							c-1.711-2.845-1.703-6.176-2.306-9.348C173.101,224.655,172.392,224.051,172.521,224.737L172.521,224.737z"/>
						<path fill="#FCADC7" d="M179.314,226.035c0.31,2.316,0.939,4.496,2.375,6.374c0.425,0.557,0.947-0.091,0.579-0.572
							c-1.325-1.731-1.857-3.726-2.142-5.853C180.045,225.377,179.223,225.345,179.314,226.035L179.314,226.035z"/>
						<path fill="#FCADC7" d="M181.076,208.04c-1.284,2.002-0.184,4.994,1.553,6.375c0.497,0.395,0.464-0.624,0.132-0.886
							c-1.224-0.974-1.997-3.217-1.098-4.622C181.9,208.537,181.331,207.643,181.076,208.04L181.076,208.04z"/>
						<path fill="#FCADC7" d="M188.026,208.516c-0.253,1.958-0.107,3.903,1.278,5.422c0.341,0.375,0.034-0.624-0.109-0.78
							c-0.978-1.076-0.818-2.546-0.646-3.866C188.58,209.054,188.066,208.215,188.026,208.516L188.026,208.516z"/>
						<path fill="#FCADC7" d="M177.924,214.5c0.581,2.191,1.214,4.254,2.617,6.071c0.425,0.551,0.421-0.38,0.192-0.676
							c-1.226-1.59-1.725-3.437-2.229-5.344C178.375,214.067,177.741,213.803,177.924,214.5L177.924,214.5z"/>
						<path fill="#FCADC7" d="M185.229,222.375c0.153,2.652,0.815,5.152,1.827,7.602c0.254,0.612,0.939,0.299,0.689-0.312
							c-0.946-2.278-1.56-4.594-1.702-7.062C186.013,222.082,185.188,221.676,185.229,222.375L185.229,222.375z"/>
						<path fill="#FCADC7" d="M189.665,222.396c-0.395,3.312,0.948,6.524,3.061,9.032c0.449,0.533,0.966-0.103,0.574-0.568
							c-1.867-2.217-3.172-5.049-2.822-8C190.538,222.369,189.743,221.743,189.665,222.396L189.665,222.396z"/>
						<path fill="#FCADC7" d="M195.293,223.829c0.289,2.289,1.909,3.901,3.378,5.549c0.466,0.522,0.665-0.378,0.339-0.743
							c-1.184-1.328-2.702-2.709-2.936-4.565C196.013,223.585,195.205,223.135,195.293,223.829L195.293,223.829z"/>
						<path fill="#FCADC7" d="M200.007,220.777c1.143,2.78,1.878,5.737,4.376,7.642c0.512,0.39,0.513-0.627,0.156-0.897
							c-2.235-1.705-2.857-4.564-3.875-7.04C200.411,219.87,199.756,220.168,200.007,220.777L200.007,220.777z"/>
						<path fill="#FCADC7" d="M192.667,209.241c-0.732,2.81,0.559,6.439,3.285,7.69c0.404,0.187,0.12-0.811-0.159-0.94
							c-2.228-1.023-3.125-3.72-2.531-6.008C193.342,209.69,192.778,208.82,192.667,209.241L192.667,209.241z"/>
						<path fill="#FCADC7" d="M198.917,205.67c0.331,3.366,1.433,6.589,2.724,9.695c0.239,0.573,0.51,0.447,0.272-0.123
							c-1.196-2.875-2.189-5.854-2.497-8.968C199.398,206.068,198.867,205.169,198.917,205.67L198.917,205.67z"/>
						<path fill="#FCADC7" d="M160.688,214.876c0.491,0.16,0.914,2.975,1.035,3.446c0.281,1.105,0.543,2.229,0.966,3.29
							c0.242,0.609,0.83,0.336,0.59-0.266c-0.638-1.597-0.931-3.339-1.393-4.996c-0.192-0.688-0.458-2.183-1.278-2.451
							C160.084,213.729,160.305,214.751,160.688,214.876L160.688,214.876z"/>
						<path fill="#FCADC7" d="M166.109,228.197c-0.667,2.664,0.941,5.025,3.068,6.492c0.267,0.186-0.01-0.771-0.218-0.912
							c-1.595-1.103-2.864-2.606-2.344-4.678C166.69,228.8,166.142,228.068,166.109,228.197L166.109,228.197z"/>
						<path fill="#FCADC7" d="M161.394,231.1c1.001,2.438,1.615,5.43,4.069,6.852c0.394,0.227,0.148-0.786-0.136-0.948
							c-2.103-1.221-2.595-4.024-3.455-6.117C161.629,230.288,161.151,230.511,161.394,231.1L161.394,231.1z"/>
						<path fill="#FCADC7" d="M153.608,221.653c0.17,2.366,0.14,5.053,2.455,6.396c0.571,0.328,0.591-0.668,0.174-0.908
							c-1.854-1.074-1.684-3.39-1.816-5.261C154.384,221.364,153.558,220.954,153.608,221.653L153.608,221.653z"/>
						<path fill="#FCADC7" d="M119.756,246.752c1.055,2.622,1.43,5.512,3.59,7.521c0.514,0.479,0.771-0.4,0.383-0.764
							c-1.983-1.844-2.305-4.662-3.275-7.068C120.207,245.82,119.511,246.143,119.756,246.752L119.756,246.752z"/>
						<path fill="#FCADC7" d="M102.144,241.611c0.258,1.557-0.315,3.148-0.324,4.713c-0.003,0.484,0.751,0.953,0.755,0.252
							c0.009-1.684,0.56-3.283,0.28-4.973C102.763,241.041,102.028,240.918,102.144,241.611L102.144,241.611z"/>
						<path fill="#FCADC7" d="M85.459,254.156c0.07,1.693,0.853,3.275,2.46,3.966c0.148,0.063-0.053-0.856-0.335-0.979
							c-1.08-0.468-1.537-1.231-1.587-2.398C85.987,254.511,85.436,253.626,85.459,254.156L85.459,254.156z"/>
						<path fill="#FCADC7" d="M204.734,208.591c-0.458,6.438-2.848,18.028,6.129,19.581c0.441,0.077,0.147-0.939-0.264-1.01
							c-8.06-1.395-5.545-12.307-5.137-18.067C205.491,208.69,204.78,207.964,204.734,208.591L204.734,208.591z"/>
						<path fill="#FCADC7" d="M209.867,212.93c-0.136,3.941,1.291,7.769,3.891,10.722c0.462,0.527,0.643-0.379,0.327-0.738
							c-2.365-2.688-3.569-6.166-3.446-9.736C210.653,212.679,209.892,212.229,209.867,212.93L209.867,212.93z"/>
						<path fill="#FCADC7" d="M216.122,219.704c0.141,1.379,0.808,2.592,1.839,3.511c0.524,0.468,0.666-0.41,0.309-0.73
							c-0.76-0.674-1.293-1.502-1.397-2.525C216.823,219.493,216.047,219.007,216.122,219.704L216.122,219.704z"/>
						<path fill="#FCADC7" d="M170.031,209.755c-0.212,2.368-1.107,4.439,0.077,6.688c0.345,0.652,0.361-0.021,0.171-0.388
							c-0.862-1.639,0.129-3.812,0.282-5.524C170.582,210.286,170.059,209.453,170.031,209.755L170.031,209.755z"/>
					</g>
				</g>
				<g>
					<g>
						<path fill="#6C9F65" d="M231.016,222.361c0.873-0.778,1.51-1.762,1.051-2.817c-0.955-2.201,3.131,1.985,1.744,4.455
							c0.028,0.013,0.06,0.028,0.09,0.041c1.021-1.136,2.088-2.837,1.545-4.498c-1.094-3.366,3.246,2.71,2.658,5.01
							c0.008,0,0.015-0.001,0.021-0.001c0.646-1.09,1.561-2.948,0.912-3.89c-0.844-1.226,1.527,1.289,2.324,3.17
							c0.125-1.04,0.1-2.365-0.676-3.521c-1.322-1.972,1.955,0.98,3.701,2.87c0.065-0.034,0.131-0.069,0.196-0.106
							c-0.579-1.361-1.358-3.269-2.013-3.999c-0.42-0.247-0.6-0.358-0.365-0.28c0.113,0.039,0.238,0.14,0.365,0.28
							c0.785,0.465,2.412,1.413,3.789,2.5c0.414-0.597,0.634-1.291,0.574-2.099c-7.787-1.47-15.86-6.083-23.439-5.483
							C224.184,216.765,227.891,220.216,231.016,222.361z"/>
					</g>
					<g>
						<path fill="#6C9F65" d="M223.222,214.009c0.09-0.009,0.181-0.012,0.27-0.019c-0.089-0.361-0.132-0.716-0.11-1.05
							L223.222,214.009z"/>
					</g>
				</g>
				<g>
					<g>
						<path fill="#6C9F65" d="M236.688,211.985c0.09-0.009,0.18-0.015,0.271-0.02c-0.092-0.364-0.135-0.716-0.111-1.051
							L236.688,211.985z"/>
					</g>
					<g>
						<path fill="#6C9F65" d="M244.266,220.188c0.896-0.786,1.567-1.788,1.101-2.86c-0.97-2.227,3.229,2.086,1.688,4.541
							c0.023,0.014,0.047,0.023,0.072,0.033c1.041-1.133,2.174-2.874,1.623-4.577c-1.111-3.407,3.343,2.85,2.629,5.084
							c0.648-1.079,1.625-3.004,0.962-3.968c-0.847-1.227,1.524,1.287,2.318,3.17c0.128-1.041,0.104-2.364-0.675-3.523
							c-1.367-2.034,2.188,1.19,3.873,3.061c0.043-0.02,0.082-0.046,0.123-0.067c-0.586-1.367-1.418-3.459-2.11-4.226
							c-0.42-0.249-0.599-0.361-0.364-0.284c0.115,0.042,0.236,0.14,0.364,0.284c0.821,0.484,2.569,1.5,3.985,2.655
							c0.396-0.588,0.604-1.272,0.545-2.063c-7.787-1.472-15.861-6.082-23.44-5.482
							C237.634,214.677,241.188,218.033,244.266,220.188z"/>
					</g>
				</g>
				<g>
					<g>
						<path fill="#6C9F65" d="M260.299,217.488c1.053-0.818,1.965-1.933,1.438-3.141c-1.006-2.313,3.557,2.428,1.484,4.815
							c0.012,0.007,0.022,0.01,0.032,0.016c1.097-1.114,2.462-2.997,1.864-4.832c-1.109-3.406,3.345,2.848,2.633,5.084
							c0.646-1.076,1.625-3.005,0.959-3.967c-0.845-1.227,1.525,1.287,2.32,3.169c0.128-1.04,0.103-2.363-0.674-3.523
							c-1.328-1.976,1.978,1.004,3.721,2.893c0.063-0.039,0.124-0.078,0.184-0.116c-0.578-1.362-1.361-3.279-2.021-4.008
							c-0.419-0.25-0.599-0.361-0.363-0.279c0.112,0.036,0.237,0.137,0.363,0.279c0.75,0.442,2.267,1.322,3.6,2.346
							c0.242-0.491,0.357-1.044,0.313-1.665c-7.786-1.475-15.86-6.083-23.44-5.483C253.408,211.867,257.162,215.345,260.299,217.488
							z"/>
					</g>
					<g>
						<path fill="#6C9F65" d="M252.443,209.094c0.09-0.011,0.178-0.015,0.27-0.019c-0.092-0.365-0.133-0.717-0.109-1.053
							L252.443,209.094z"/>
					</g>
				</g>
				<g>
					<g>
						<path fill="#6C9F65" d="M267.131,206.064c0.09-0.008,0.182-0.013,0.271-0.019c-0.092-0.364-0.137-0.717-0.111-1.051
							L267.131,206.064z"/>
					</g>
					<g>
						<path fill="#6C9F65" d="M274.754,214.295c0.883-0.781,1.533-1.772,1.071-2.836c-0.966-2.219,3.188,2.047,1.712,4.507
							c0.025,0.013,0.052,0.026,0.078,0.037c1.031-1.133,2.137-2.861,1.589-4.546c-1.108-3.407,3.346,2.85,2.632,5.082
							c0.646-1.075,1.626-3.002,0.962-3.964c-0.846-1.227,1.526,1.288,2.317,3.17c0.13-1.041,0.105-2.365-0.674-3.524
							c-1.354-2.021,2.134,1.141,3.836,3.021c0.047-0.024,0.094-0.051,0.141-0.077c-0.585-1.367-1.407-3.415-2.09-4.175
							c-0.419-0.247-0.6-0.359-0.365-0.281c0.115,0.04,0.237,0.14,0.365,0.281c0.816,0.481,2.54,1.486,3.949,2.625
							c0.406-0.592,0.621-1.283,0.563-2.087c-7.786-1.472-15.859-6.083-23.439-5.482
							C268.079,208.767,271.666,212.144,274.754,214.295z"/>
					</g>
				</g>
				<path fill="#6C9F65" d="M287.652,203.449c-1.408-1.843,3.179,0.963,2.822,3.616c0.064,0.002,0.127,0.003,0.191,0.003
					c0.643-1.319,1.121-3.06,0.264-4.436c-1.757-2.815,3.123,1.273,3.727,3.749c0.08-0.027,0.156-0.067,0.236-0.099
					c0.31-1.204,0.528-2.781-0.207-3.43c-1.015-0.899,1.314,0.576,2.66,2.084c0.082-0.061,0.168-0.119,0.256-0.182
					c-0.186-0.899-0.563-1.881-1.403-2.639c-1.464-1.33,1.002-0.108,3.104,1.155c0.167-0.167,0.332-0.354,0.496-0.536
					c-0.719-0.942-1.494-1.883-2.063-2.271c-0.47-0.14-0.669-0.206-0.423-0.184c0.121,0.01,0.264,0.076,0.423,0.184
					c0.663,0.199,1.863,0.549,3.108,1.025c0.25-0.33,0.499-0.678,0.745-1.044c0,0-12.323-2.595-17.805,1.279
					c0,0-13.394,1.94-20.487,3.955c-7.094,2.012-20.932,3.107-27.719,4.424c-6.79,1.32-11.55,1.568-13.68,3.307
					c-2.126,1.738,10.915,1.005,15.603-0.07c4.687-1.072,30.699-6.024,38.702-7.593c8.006-1.571,7.188-0.954,7.188-0.954
					s1.521,1.082,3.838,1.756C287.938,205.557,288.376,204.396,287.652,203.449z"/>
				<g>
					<g>
						<path fill="#6C9F65" d="M237.582,203.677c0.083-0.071,0.172-0.151,0.257-0.218c-0.037-0.008-0.071-0.015-0.108-0.025
							C237.68,203.516,237.633,203.597,237.582,203.677z"/>
					</g>
					<g>
						<path fill="#6C9F65" d="M235.316,205.719c0.103-0.893,0.146-1.947,0.188-2.833c-0.092-0.021-0.184-0.047-0.275-0.072
							c-0.996,2.389-2.947,6.099-2.405,3.834c0.327-1.354-0.112-2.604-0.597-3.535c-0.09,2.043-1.436,5.226-1.07,3.782
							c0.287-1.136-1.299-2.601-2.282-3.383c1.444,1.845-0.543,9.261-0.692,5.682c-0.158-3.786-7.481-5.116-3.938-4.059
							c3.543,1.057,0.625,7.885,0.766,5.234c0.082-1.508-1.568-2.246-3.005-2.601c-0.083,1.945,0.734,4.072,1.627,5.959l0.305,0.156
							C227.686,213.058,231.919,208.898,235.316,205.719z"/>
					</g>
				</g>
				<g>
					<g>
						<path fill="#6C9F65" d="M249.463,203.061c0.654-0.603,1.273-1.161,1.844-1.627c-0.203-0.047-0.402-0.092-0.601-0.141
							C250.307,201.919,249.869,202.525,249.463,203.061z"/>
					</g>
					<g>
						<path fill="#6C9F65" d="M248.414,204.041c0.186-0.863,0.254-2.134,0.305-3.245c-0.146-0.038-0.295-0.074-0.437-0.111
							c-1.037,2.371-2.735,5.536-2.226,3.404c0.325-1.353-0.111-2.606-0.595-3.534c-0.09,2.041-1.437,5.224-1.071,3.781
							c0.286-1.133-1.298-2.598-2.281-3.384c1.445,1.847-0.545,9.264-0.695,5.683c-0.104-2.467-3.248-3.892-4.445-4.292
							c-0.019,0.021-0.039,0.037-0.058,0.055c0.144,0.047,0.33,0.109,0.567,0.179c3.543,1.057,0.623,7.885,0.766,5.233
							c0.076-1.416-1.372-2.154-2.74-2.53c-0.256,2.063,0.624,4.385,1.589,6.425l0.304,0.155
							C241.014,211.063,245.083,207.167,248.414,204.041z"/>
					</g>
				</g>
				<g>
					<g>
						<path fill="#6C9F65" d="M264.908,200.453c0.1-0.726,0.148-1.589,0.186-2.389c-0.17-0.042-0.334-0.084-0.501-0.129
							c-1.04,2.35-2.649,5.314-2.151,3.234c0.326-1.353-0.112-2.606-0.596-3.533c-0.089,2.041-1.436,5.225-1.07,3.779
							c0.285-1.133-1.301-2.595-2.282-3.382c1.442,1.848-0.548,9.263-0.697,5.683c-0.155-3.783-7.479-5.115-3.937-4.055
							c3.545,1.056,0.625,7.885,0.769,5.231c0.089-1.627-1.841-2.353-3.344-2.675c-0.327,2.107,0.571,4.5,1.563,6.598l0.305,0.155
							C257.041,208.11,261.455,203.667,264.908,200.453z"/>
					</g>
					<g>
						<path fill="#6C9F65" d="M266.886,198.688c0.058-0.047,0.115-0.101,0.171-0.144c-0.02-0.004-0.043-0.013-0.063-0.016
							C266.956,198.581,266.921,198.634,266.886,198.688z"/>
					</g>
				</g>
				<g>
					<g>
						<path fill="#6C9F65" d="M281.656,195.591c0.027-0.027,0.06-0.055,0.091-0.079c-0.015-0.001-0.024-0.007-0.041-0.009
							C281.691,195.532,281.674,195.561,281.656,195.591z"/>
					</g>
					<g>
						<path fill="#6C9F65" d="M279.17,197.825c0.098-0.944,0.137-2.034,0.176-2.903c-0.062-0.015-0.123-0.031-0.183-0.046
							c-0.955,2.368-3.074,6.434-2.513,4.088c0.326-1.354-0.111-2.608-0.598-3.538c-0.089,2.043-1.433,5.228-1.068,3.782
							c0.285-1.133-1.299-2.598-2.284-3.383c1.448,1.846-0.543,9.265-0.692,5.683c-0.158-3.786-7.479-5.114-3.938-4.055
							c3.545,1.058,0.627,7.885,0.77,5.231c0.077-1.484-1.52-2.219-2.941-2.582c0.004,1.866,0.789,3.882,1.639,5.68l0.305,0.155
							C271.57,205.117,275.782,200.995,279.17,197.825z"/>
					</g>
				</g>
			</g>
			<g>
				<g>
					<path fill="#FBC672" d="M83.135,241.068c-2.828-13.643,45.85-5.637,52.041-5.633c17.46,0.314,38.399-2.804,55.555,2.592
						c12.847,4.408,33.165,5.623,36.203,21.824c1.637,9.2-5.28,9.149-12.941,9.422c-8.025,0.248-15.71,0.886-23.563-1.771
						c-8.922-3.083-15.663-6.032-25.459-6.617c-9.433-0.563-18.779-2.576-28.17-3.865c-16.262-2.064-35.875-2.871-49.485-12.789
						C85.907,243.419,84.519,242.243,83.135,241.068"/>
				</g>
				<g>
					<path fill="#F78532" d="M83.389,236.801c-2.826-13.641,45.851-5.635,52.043-5.63c17.458,0.313,38.399-2.808,55.555,2.589
						c12.844,4.407,33.165,5.623,36.201,21.824c1.636,9.202-5.28,9.15-12.943,9.423c-8.026,0.248-15.711,0.884-23.564-1.771
						c-8.92-3.086-15.66-6.034-25.457-6.619c-9.434-0.565-18.78-2.579-28.171-3.866c-16.261-2.063-35.875-2.872-49.484-12.786
						C86.161,239.15,84.775,237.975,83.389,236.801"/>
				</g>
				<g>
					<path fill="#FBA7A0" d="M200.659,262.88c0.215,1.951,0.687,3.853,1.568,5.615c0.263,0.522,0.502-0.472,0.367-0.742
						c-0.809-1.614-1.271-3.345-1.471-5.138C201.045,261.896,200.605,262.402,200.659,262.88L200.659,262.88z"/>
					<path fill="#FBA7A0" d="M141.176,245.82c-1.802,2.809-2.353,11.507,1.928,12.523c0.394,0.094,0.483-0.964,0.047-1.068
						c-3.511-0.832-3.027-8.396-1.559-10.681C141.808,246.258,141.517,245.29,141.176,245.82L141.176,245.82z"/>
					<path fill="#FBA7A0" d="M134.378,249.221c-0.846,2.252-0.603,4.811,0.946,6.693c0.345,0.419,0.632-0.594,0.374-0.907
						c-1.211-1.475-1.438-3.458-0.773-5.224C135.084,249.354,134.623,248.564,134.378,249.221L134.378,249.221z"/>
					<path fill="#FBA7A0" d="M126.366,250.15c-1.088,1.975-0.999,4.3,0.67,5.904c0.2,0.189,0.406-0.791,0.167-1.024
						c-1.243-1.194-1.372-2.622-0.552-4.11C126.789,250.668,126.642,249.648,126.366,250.15L126.366,250.15z"/>
					<path fill="#FBA7A0" d="M147.074,252.406c-0.854,1.887-0.919,4.371,0.643,5.904c0.125,0.121,0.346-0.818,0.135-1.026
						c-1.179-1.156-1.229-2.662-0.575-4.113C147.369,252.967,147.289,251.93,147.074,252.406L147.074,252.406z"/>
					<path fill="#FBA7A0" d="M156.852,254.412c0.488,1.537,0.759,3.146,1.623,4.536c0.221,0.354,0.434-0.659,0.275-0.915
						c-0.825-1.325-1.07-2.893-1.537-4.361c-0.066-0.207-0.241-0.195-0.328-0.016C156.773,253.889,156.776,254.173,156.852,254.412
						L156.852,254.412z"/>
					<path fill="#FBA7A0" d="M162.615,254.754c-0.825,1.938-0.181,4.012,0.944,5.68c0.354,0.523,0.687-0.41,0.466-0.735
						c-0.869-1.289-1.555-2.849-0.901-4.38C163.297,254.911,162.892,254.109,162.615,254.754L162.615,254.754z"/>
					<path fill="#FBA7A0" d="M168.832,255.663c-0.825,1.472-1.207,3.254-0.292,4.776c0.32,0.529,0.628-0.424,0.439-0.738
						c-0.664-1.102-0.371-2.206,0.224-3.266C169.378,256.126,169.13,255.132,168.832,255.663L168.832,255.663z"/>
					<path fill="#FBA7A0" d="M178.574,254.423c-1.498,2.375-2.296,5.464-1.128,8.142c0.233,0.53,0.485-0.467,0.365-0.741
						c-0.978-2.239-0.173-4.667,1.064-6.628C179.037,254.936,178.886,253.928,178.574,254.423L178.574,254.423z"/>
					<path fill="#FBA7A0" d="M184.49,257.396c-0.892,2.244-1.568,4.879-0.394,7.146c0.291,0.56,0.668-0.378,0.484-0.735
						c-0.96-1.854-0.285-4.029,0.437-5.849C185.184,257.537,184.749,256.743,184.49,257.396L184.49,257.396z"/>
					<path fill="#FBA7A0" d="M189.497,259.696c-1.204,1.814-1.959,4.485-0.705,6.469c0.181,0.288,0.354-0.701,0.217-0.915
						c-0.956-1.514-0.281-3.26,0.624-4.626C189.773,260.413,189.677,259.422,189.497,259.696L189.497,259.696z"/>
					<g>
						<path fill="#FCADC7" d="M115.981,229.78c-2.973,1.517-4.049,4.206-4.302,7.387c-0.049,0.623,0.264,0.629,0.315,0.015
							c0.231-2.859,1.452-5.052,4.026-6.367C116.253,230.693,116.171,229.684,115.981,229.78L115.981,229.78z"/>
						<path fill="#FCADC7" d="M120.006,230.035c-2.887,1.961-4.633,4.553-3.981,8.098c0.089,0.481,0.276-0.551,0.24-0.747
							c-0.536-2.905,1.665-4.885,3.772-6.313C120.264,230.918,120.139,229.947,120.006,230.035L120.006,230.035z"/>
						<path fill="#FCADC7" d="M126.052,230.48c-2.498,1.955-4.079,4.455-4.382,7.641c-0.064,0.659,0.64,0.68,0.702,0.029
							c0.272-2.842,1.791-5.01,3.993-6.731C126.712,231.148,126.508,230.124,126.052,230.48L126.052,230.48z"/>
						<path fill="#FCADC7" d="M133.461,231.318c-2.071,2.314-4.928,3.918-4.651,7.399c0.054,0.712,0.698,0.293,0.656-0.256
							c-0.224-2.787,2.654-4.375,4.293-6.207C134.028,231.952,133.818,230.919,133.461,231.318L133.461,231.318z"/>
						<path fill="#FCADC7" d="M140.135,230.982c-2.187,2.658-4.624,4.707-5.263,8.242c-0.045,0.237,0.098,1.215,0.22,0.549
							c0.601-3.313,3.042-5.285,5.076-7.758C140.354,231.785,140.178,230.932,140.135,230.982L140.135,230.982z"/>
						<path fill="#FCADC7" d="M138.206,239.417c-1.042,1.976-0.678,4.087-0.779,6.229c-0.03,0.642,0.502,0.668,0.532,0.024
							c0.086-1.84-0.304-3.788,0.591-5.483C138.704,239.895,138.486,238.891,138.206,239.417L138.206,239.417z"/>
						<path fill="#FCADC7" d="M131.16,239.828c-0.823,2.529-0.665,5.367,0.166,7.875c0.221,0.666,0.872,0,0.702-0.512
							c-0.747-2.254-0.862-4.778-0.121-7.049C132.095,239.564,131.377,239.164,131.16,239.828L131.16,239.828z"/>
						<path fill="#FCADC7" d="M124.424,238.297c-0.2,2.577-1.009,5.416,0.238,7.846c0.298,0.58,0.795-0.306,0.575-0.73
							c-1.075-2.096-0.217-4.857-0.047-7.081C125.241,237.666,124.474,237.641,124.424,238.297L124.424,238.297z"/>
						<path fill="#FCADC7" d="M104.973,236.271c-1.143,2.754-0.982,6.441,1.375,8.521c0.117,0.104,0.334-0.845,0.125-1.027
							c-1.855-1.638-2.329-4.3-1.388-6.565C105.177,236.982,105.068,236.044,104.973,236.271L104.973,236.271z"/>
						<path fill="#FCADC7" d="M113.112,239.055c-0.841,2.236-0.691,4.902,0.869,6.797c0.259,0.313,0.422-0.699,0.248-0.916
							c-1.196-1.453-1.523-3.343-0.856-5.115C113.464,239.58,113.305,238.546,113.112,239.055L113.112,239.055z"/>
						<path fill="#FCADC7" d="M99.249,232.268c-1.242,2.243-1.511,4.881-0.449,7.25c0.234,0.521,0.462-0.481,0.346-0.74
							c-0.875-1.951-0.634-3.905,0.385-5.743C99.667,232.787,99.526,231.766,99.249,232.268L99.249,232.268z"/>
						<path fill="#FCADC7" d="M95.415,233.061c-0.552,2.221-1.392,4.232,0.013,6.32c0.246,0.367,0.467-0.646,0.292-0.91
							c-1.094-1.631-0.318-3.158,0.104-4.854C95.908,233.271,95.584,232.389,95.415,233.061L95.415,233.061z"/>
						<path fill="#FCADC7" d="M90.565,234.307c-0.447,0.811-0.414,1.7-0.194,2.574c0.17,0.674,0.886,0.329,0.742-0.252
							c-0.157-0.621-0.238-1.175,0.082-1.755C91.454,234.408,90.905,233.693,90.565,234.307L90.565,234.307z"/>
						<path fill="#FCADC7" d="M148.341,231.648c-2.382,1.795-5.427,4.555-2.311,7.248c0.439,0.381,0.727-0.619,0.393-0.906
							c-1.232-1.066-1.274-2.072-0.25-3.292c0.693-0.822,1.627-1.47,2.479-2.111C149.004,232.323,148.804,231.301,148.341,231.648
							L148.341,231.648z"/>
						<path fill="#FCADC7" d="M154.018,231.08c-1.297,1.658-2.769,2.922-2.271,5.193c0.147,0.681,0.534-0.162,0.453-0.521
							c-0.327-1.505,1.19-2.669,2.029-3.738C154.426,231.766,154.29,230.734,154.018,231.08L154.018,231.08z"/>
						<path fill="#FCADC7" d="M159.227,231.727c-0.678,0.713-1.489,1.283-2.113,2.049c-0.614,0.752-0.66,1.771-0.497,2.685
							c0.125,0.7,0.707,0.281,0.611-0.257c-0.31-1.729,1.234-2.449,2.271-3.539C159.763,232.383,159.584,231.35,159.227,231.727
							L159.227,231.727z"/>
						<path fill="#FCADC7" d="M149.512,241.803c-1.056,2.762-1.321,5.635-1.511,8.562c-0.043,0.64,0.479,0.659,0.518,0.022
							c0.177-2.748,0.425-5.433,1.415-8.025C150.072,242.002,149.761,241.148,149.512,241.803L149.512,241.803z"/>
						<path fill="#FCADC7" d="M151.686,243.073c-1.45,2.776-1.12,6.021-0.595,8.997c0.121,0.68,0.419-0.223,0.365-0.522
							c-0.455-2.575-0.784-5.298,0.475-7.707C152.052,243.614,151.94,242.585,151.686,243.073L151.686,243.073z"/>
						<path fill="#FCADC7" d="M155.379,244.241c-1.142,3.057-1.015,7.196,1.323,9.672c0.076,0.082,0.315-0.819,0.119-1.024
							c-1.97-2.084-2.254-5.269-1.278-7.886C155.613,244.82,155.552,243.777,155.379,244.241L155.379,244.241z"/>
						<path fill="#FCADC7" d="M158.994,245.163c-0.174,2.508-0.52,4.96,0.55,7.329c0.118,0.263,0.3-0.695,0.2-0.916
							c-0.938-2.073-0.586-4.212-0.433-6.399C159.355,244.555,159.04,244.546,158.994,245.163L158.994,245.163z"/>
						<path fill="#FCADC7" d="M166.055,235.299c-1.506,2.404-2.373,5.625-1.196,8.337c0.279,0.642,0.817-0.061,0.621-0.512
							c-1.004-2.313-0.254-5,1.03-7.049C166.741,235.708,166.396,234.756,166.055,235.299L166.055,235.299z"/>
						<path fill="#FCADC7" d="M174.465,235.835c-1.486,2.644-2.319,5.894-0.478,8.575c0.26,0.379,0.49-0.639,0.305-0.911
							c-1.513-2.206-0.695-4.751,0.511-6.894C174.965,236.32,174.757,235.314,174.465,235.835L174.465,235.835z"/>
						<path fill="#FCADC7" d="M183.109,236.497c-0.465,1.665-1.127,3.25-0.956,5.013c0.071,0.723,0.497,0.205,0.451-0.266
							c-0.141-1.452,0.492-2.815,0.876-4.189C183.571,236.729,183.298,235.829,183.109,236.497L183.109,236.497z"/>
						<path fill="#FCADC7" d="M176.869,246.039c-0.972,3.408-2.499,6.584-2.224,10.208c0.055,0.719,0.576,0.241,0.54-0.263
							c-0.252-3.309,1.249-6.282,2.133-9.387C177.423,246.225,177.061,245.369,176.869,246.039L176.869,246.039z"/>
						<path fill="#FCADC7" d="M182.359,250.246c-0.764,2.209-1.18,4.439-0.739,6.762c0.132,0.688,0.886,0.346,0.773-0.251
							c-0.407-2.142,0.012-4.162,0.714-6.194C183.307,249.986,182.585,249.59,182.359,250.246L182.359,250.246z"/>
						<path fill="#FCADC7" d="M192.007,234.956c-2.047,1.213-2.406,4.378-1.473,6.394c0.265,0.574,0.695-0.352,0.514-0.732
							c-0.657-1.42-0.34-3.771,1.094-4.624C192.521,235.77,192.414,234.713,192.007,234.956L192.007,234.956z"/>
						<path fill="#FCADC7" d="M198.005,238.496c-1.104,1.638-1.847,3.441-1.291,5.417c0.138,0.489,0.311-0.541,0.254-0.745
							c-0.392-1.398,0.413-2.643,1.157-3.741C198.258,239.227,198.174,238.247,198.005,238.496L198.005,238.496z"/>
						<path fill="#FCADC7" d="M186.292,239.314c-0.465,2.221-0.824,4.346-0.386,6.6c0.132,0.686,0.546-0.148,0.475-0.52
							c-0.384-1.969-0.002-3.848,0.402-5.774C186.888,239.127,186.439,238.607,186.292,239.314L186.292,239.314z"/>
						<path fill="#FCADC7" d="M189.286,249.629c-1.05,2.438-1.583,4.971-1.777,7.614c-0.047,0.662,0.704,0.688,0.754,0.032
							c0.178-2.463,0.668-4.808,1.649-7.078C190.118,249.719,189.564,248.986,189.286,249.629L189.286,249.629z"/>
						<path fill="#FCADC7" d="M193.242,251.639c-1.839,2.781-2.08,6.256-1.317,9.444c0.163,0.678,0.911,0.34,0.768-0.252
							c-0.674-2.815-0.571-5.935,1.069-8.416C194.035,252.004,193.604,251.088,193.242,251.639L193.242,251.639z"/>
						<path fill="#FCADC7" d="M197.629,255.441c-0.768,2.177-0.047,4.345,0.528,6.475c0.182,0.677,0.763-0.039,0.636-0.512
							c-0.462-1.719-1.197-3.635-0.575-5.398C198.38,255.547,197.862,254.781,197.629,255.441L197.629,255.441z"/>
						<path fill="#FCADC7" d="M203.212,254.828c-0.227,2.996-0.898,5.969,0.481,8.793c0.282,0.578,0.738-0.329,0.543-0.732
							c-1.234-2.525-0.506-5.357-0.306-8.027C203.981,254.199,203.26,254.175,203.212,254.828L203.212,254.828z"/>
						<path fill="#FCADC7" d="M201.827,241.229c-1.913,2.18-2.389,6.004-0.512,8.348c0.276,0.347,0.47-0.674,0.278-0.915
							c-1.532-1.911-1.124-4.728,0.434-6.501C202.227,241.932,202.115,240.9,201.827,241.229L201.827,241.229z"/>
						<path fill="#FCADC7" d="M209.012,240.839c-1.211,3.155-1.673,6.533-1.909,9.888c-0.046,0.621,0.253,0.631,0.297,0.014
							c0.22-3.105,0.668-6.213,1.79-9.135C209.266,241.412,209.195,240.368,209.012,240.839L209.012,240.839z"/>
						<path fill="#FCADC7" d="M170.717,231.916c0.366,0.364-0.517,3.068-0.624,3.544c-0.243,1.114-0.513,2.233-0.609,3.374
							c-0.056,0.654,0.591,0.671,0.646,0.027c0.146-1.715,0.667-3.403,0.996-5.09c0.138-0.703,0.57-2.157-0.043-2.764
							C170.692,230.621,170.431,231.634,170.717,231.916L170.717,231.916z"/>
						<path fill="#FCADC7" d="M169.588,246.255c-1.792,2.08-1.416,4.913-0.171,7.181c0.157,0.284,0.336-0.692,0.216-0.916
							c-0.932-1.696-1.39-3.614,0.003-5.23C169.835,247.053,169.673,246.152,169.588,246.255L169.588,246.255z"/>
						<path fill="#FCADC7" d="M164.071,246.732c-0.2,2.629-0.994,5.578,0.564,7.949c0.25,0.379,0.483-0.636,0.303-0.91
							c-1.333-2.033-0.513-4.766-0.343-7.017C164.644,246.113,164.118,246.1,164.071,246.732L164.071,246.732z"/>
						<path fill="#FCADC7" d="M161.35,234.797c-0.911,2.188-2.142,4.579-0.675,6.814c0.362,0.553,0.828-0.327,0.566-0.729
							c-1.177-1.793,0.016-3.784,0.734-5.518C162.174,234.889,161.619,234.148,161.35,234.797L161.35,234.797z"/>
						<path fill="#FCADC7" d="M119.836,242.043c-0.234,2.814-1.196,5.566-0.165,8.332c0.244,0.66,0.869-0.014,0.684-0.51
							c-0.946-2.539,0.032-5.202,0.246-7.791C120.656,241.41,119.892,241.386,119.836,242.043L119.836,242.043z"/>
						<path fill="#FCADC7" d="M106.401,229.546c-0.468,1.507-1.692,2.673-2.403,4.065c-0.22,0.434,0.244,1.191,0.561,0.565
							c0.762-1.502,1.972-2.686,2.482-4.317C107.21,229.313,106.611,228.875,106.401,229.546L106.401,229.546z"/>
						<path fill="#FCADC7" d="M85.864,233.271c-0.699,1.547-0.707,3.309,0.419,4.647c0.104,0.123,0.337-0.791,0.141-1.026
							c-0.757-0.9-0.821-1.791-0.343-2.855C86.175,233.824,86.081,232.788,85.864,233.271L85.864,233.271z"/>
						<path fill="#FCADC7" d="M212.903,246.061c-3.298,5.547-10.633,14.834-3.308,20.25c0.359,0.265,0.555-0.772,0.217-1.022
							c-6.576-4.86,0.564-13.487,3.518-18.452C213.536,246.488,213.224,245.52,212.903,246.061L212.903,246.061z"/>
						<path fill="#FCADC7" d="M215.543,252.238c-1.889,3.462-2.331,7.525-1.333,11.326c0.177,0.678,0.744-0.047,0.624-0.513
							c-0.909-3.464-0.424-7.112,1.288-10.249C216.359,252.369,215.88,251.625,215.543,252.238L215.543,252.238z"/>
						<path fill="#FCADC7" d="M218.094,261.1c-0.49,1.295-0.442,2.681,0.07,3.961c0.258,0.651,0.777-0.066,0.602-0.513
							c-0.373-0.942-0.482-1.923-0.117-2.886C218.816,261.225,218.345,260.443,218.094,261.1L218.094,261.1z"/>
						<path fill="#FCADC7" d="M181.365,231.532c-1.253,2.022-2.982,3.47-2.933,6.01c0.016,0.737,0.335,0.144,0.327-0.271
							c-0.036-1.849,1.824-3.349,2.73-4.81C181.619,232.253,181.525,231.275,181.365,231.532L181.365,231.532z"/>
					</g>
				</g>
				<g>
					<g>
						<path fill="#6C9F65" d="M230.213,270.156c1.129-0.305,2.139-0.898,2.204-2.049c0.134-2.396,1.906,3.18-0.44,4.765
							c0.019,0.024,0.043,0.052,0.062,0.078c1.421-0.56,3.142-1.601,3.399-3.328c0.532-3.497,1.688,3.878,0.129,5.668
							c0.008,0.004,0.015,0.007,0.02,0.009c1.066-0.684,2.719-1.934,2.563-3.063c-0.203-1.479,0.787,1.835,0.656,3.871
							c0.576-0.871,1.147-2.065,0.975-3.447c-0.299-2.355,1.307,1.755,2.021,4.224c0.074,0,0.147-0.003,0.223-0.006
							c0.096-1.476,0.252-3.532-0.006-4.478c-0.264-0.407-0.371-0.59-0.201-0.413c0.084,0.085,0.148,0.23,0.201,0.413
							c0.494,0.769,1.523,2.345,2.269,3.936c0.636-0.346,1.144-0.871,1.454-1.623c-6.301-4.805-11.446-12.551-18.491-15.414
							C226.619,262.091,228.383,266.838,230.213,270.156z"/>
					</g>
					<g>
						<path fill="#6C9F65" d="M226.996,259.196c0.083,0.03,0.166,0.069,0.248,0.104c0.083-0.364,0.203-0.698,0.374-0.989
							L226.996,259.196z"/>
					</g>
				</g>
				<g>
					<g>
						<path fill="#6C9F65" d="M239.939,263.426c0.082,0.035,0.164,0.071,0.248,0.104c0.082-0.366,0.201-0.698,0.371-0.99
							L239.939,263.426z"/>
					</g>
					<g>
						<path fill="#6C9F65" d="M243.031,274.157c1.152-0.298,2.199-0.892,2.263-2.063c0.136-2.423,1.948,3.314-0.526,4.817
							c0.017,0.021,0.029,0.041,0.049,0.062c1.438-0.546,3.235-1.596,3.502-3.363c0.535-3.543,1.712,4.047,0.07,5.724
							c1.063-0.67,2.799-1.955,2.639-3.113c-0.202-1.476,0.787,1.835,0.652,3.874c0.579-0.871,1.151-2.066,0.978-3.449
							c-0.31-2.437,1.42,2.039,2.089,4.473c0.047,0.001,0.097-0.006,0.141-0.008c0.088-1.48,0.283-3.726,0.01-4.725
							c-0.265-0.408-0.373-0.59-0.201-0.416c0.085,0.088,0.15,0.233,0.201,0.416c0.516,0.805,1.625,2.497,2.373,4.162
							c0.615-0.348,1.104-0.867,1.412-1.6c-6.301-4.809-11.445-12.553-18.49-15.416
							C239.574,266.258,241.247,270.854,243.031,274.157z"/>
					</g>
				</g>
				<g>
					<g>
						<path fill="#6C9F65" d="M258.568,278.938c1.31-0.259,2.623-0.847,2.693-2.16c0.141-2.52,2.092,3.768-0.83,4.971
							c0.006,0.01,0.014,0.018,0.021,0.027c1.477-0.51,3.545-1.575,3.835-3.484c0.54-3.544,1.712,4.048,0.073,5.727
							c1.062-0.672,2.799-1.957,2.636-3.115c-0.202-1.475,0.787,1.834,0.653,3.871c0.578-0.869,1.152-2.063,0.978-3.447
							c-0.301-2.363,1.32,1.785,2.029,4.253c0.071-0.006,0.144-0.015,0.216-0.021c0.093-1.477,0.254-3.541-0.007-4.487
							c-0.263-0.409-0.373-0.591-0.2-0.415c0.082,0.084,0.148,0.229,0.2,0.415c0.472,0.731,1.431,2.198,2.163,3.713
							c0.438-0.329,0.789-0.774,1.027-1.353c-6.3-4.81-11.442-12.55-18.488-15.414C254.934,270.821,256.729,275.613,258.568,278.938
							z"/>
					</g>
					<g>
						<path fill="#6C9F65" d="M255.314,267.91c0.084,0.033,0.168,0.068,0.252,0.105c0.082-0.363,0.201-0.699,0.371-0.988
							L255.314,267.91z"/>
					</g>
				</g>
				<g>
					<g>
						<path fill="#6C9F65" d="M269.802,271.792c0.085,0.032,0.167,0.072,0.25,0.106c0.085-0.366,0.202-0.7,0.374-0.991
							L269.802,271.792z"/>
					</g>
					<g>
						<path fill="#6C9F65" d="M272.92,282.568c1.139-0.301,2.166-0.895,2.229-2.053c0.136-2.412,1.937,3.258-0.488,4.795
							c0.017,0.023,0.033,0.047,0.052,0.068c1.433-0.55,3.195-1.598,3.462-3.349c0.536-3.544,1.711,4.047,0.072,5.724
							c1.063-0.671,2.799-1.956,2.641-3.113c-0.207-1.476,0.784,1.834,0.647,3.873c0.582-0.871,1.151-2.065,0.979-3.449
							c-0.308-2.416,1.396,1.974,2.074,4.418c0.051,0,0.104-0.004,0.156-0.006c0.089-1.481,0.275-3.684,0.009-4.668
							c-0.264-0.412-0.375-0.59-0.202-0.418c0.082,0.088,0.149,0.232,0.202,0.418c0.511,0.795,1.603,2.467,2.349,4.117
							c0.631-0.348,1.135-0.869,1.44-1.615c-6.298-4.807-11.444-12.549-18.487-15.414
							C269.436,274.635,271.128,279.26,272.92,282.568z"/>
					</g>
				</g>
				<path fill="#6C9F65" d="M289.316,278.662c-0.432-2.279,2.406,2.283,0.897,4.496c0.056,0.029,0.111,0.059,0.17,0.089
					c1.169-0.89,2.378-2.233,2.229-3.847c-0.307-3.307,2.22,2.539,1.648,5.021c0.08,0.014,0.17,0.014,0.256,0.02
					c0.814-0.938,1.72-2.252,1.352-3.16c-0.503-1.26,0.914,1.104,1.443,3.056c0.104-0.015,0.203-0.028,0.309-0.045
					c0.24-0.888,0.343-1.937-0.064-2.989c-0.715-1.848,0.938,0.354,2.252,2.426c0.226-0.078,0.453-0.17,0.687-0.256
					c-0.223-1.164-0.491-2.354-0.828-2.959c-0.355-0.333-0.508-0.48-0.295-0.354c0.104,0.064,0.202,0.187,0.295,0.354
					c0.504,0.479,1.419,1.33,2.316,2.313c0.373-0.183,0.754-0.38,1.135-0.603c0,0-9.853-7.844-16.483-6.842
					c0,0-12.84-4.275-20.085-5.656c-7.243-1.385-20.1-6.613-26.759-8.481c-6.658-1.872-11.025-3.781-13.707-3.185
					c-2.68,0.599,9.305,5.795,13.979,6.938c4.672,1.142,30.138,8.389,37.996,10.573c7.859,2.189,6.853,2.375,6.853,2.375
					s0.874,1.648,2.644,3.291C288.625,280.673,289.539,279.834,289.316,278.662z"/>
				<g>
					<g>
						<path fill="#6C9F65" d="M244.464,256.402c0.108-0.025,0.224-0.057,0.326-0.077c-0.03-0.025-0.056-0.05-0.085-0.072
							C244.626,256.305,244.543,256.354,244.464,256.402z"/>
					</g>
					<g>
						<path fill="#6C9F65" d="M241.523,257.211c0.494-0.752,1.004-1.674,1.437-2.447c-0.069-0.062-0.142-0.125-0.212-0.185
							c-1.965,1.687-5.369,4.124-3.871,2.344c0.898-1.063,1.068-2.377,1.055-3.426c-0.996,1.785-3.625,4.026-2.654,2.897
							c0.769-0.885,0.009-2.903-0.521-4.047c0.466,2.299-4.644,8.031-3.17,4.768c1.56-3.456-4.39-7.93-1.698-5.395
							c2.694,2.534-2.979,7.328-1.66,5.022c0.75-1.313-0.395-2.711-1.521-3.675c-0.947,1.699-1.172,3.969-1.221,6.057l0.203,0.275
							C231.409,260.348,237.061,258.527,241.523,257.211z"/>
					</g>
				</g>
				<g>
					<g>
						<path fill="#6C9F65" d="M255.357,261.184c0.854-0.246,1.66-0.466,2.375-0.631c-0.159-0.13-0.316-0.263-0.473-0.392
							C256.624,260.541,255.963,260.887,255.357,261.184z"/>
					</g>
					<g>
						<path fill="#6C9F65" d="M253.982,261.587c0.551-0.69,1.184-1.793,1.729-2.763c-0.115-0.102-0.229-0.198-0.342-0.297
							c-1.986,1.654-4.926,3.722-3.516,2.047c0.897-1.066,1.068-2.381,1.054-3.432c-0.995,1.787-3.626,4.026-2.652,2.903
							c0.763-0.887,0.003-2.907-0.522-4.049c0.463,2.298-4.645,8.03-3.172,4.767c1.016-2.25-1.156-4.937-2.049-5.83
							c-0.021,0.01-0.048,0.016-0.074,0.023c0.106,0.109,0.246,0.244,0.424,0.414c2.693,2.534-2.979,7.327-1.66,5.023
							c0.703-1.229-0.264-2.541-1.316-3.492c-1.154,1.729-1.408,4.199-1.462,6.455l0.202,0.274
							C244.218,264.544,249.602,262.887,253.982,261.587z"/>
					</g>
				</g>
				<g>
					<g>
						<path fill="#6C9F65" d="M270.334,265.783c0.414-0.606,0.846-1.355,1.232-2.053c-0.129-0.113-0.26-0.229-0.389-0.34
							c-1.979,1.631-4.75,3.56-3.369,1.926c0.897-1.066,1.068-2.381,1.053-3.426c-0.997,1.784-3.625,4.022-2.654,2.898
							c0.764-0.887,0.005-2.905-0.521-4.05c0.465,2.3-4.643,8.032-3.172,4.767c1.561-3.453-4.39-7.929-1.697-5.391
							c2.695,2.533-2.979,7.326-1.659,5.021c0.809-1.416-0.591-2.93-1.789-3.891c-1.237,1.733-1.507,4.274-1.563,6.597l0.201,0.275
							C259.867,269.098,265.805,267.104,270.334,265.783z"/>
					</g>
					<g>
						<path fill="#6C9F65" d="M272.891,265.092c0.074-0.016,0.151-0.037,0.221-0.052c-0.016-0.017-0.031-0.03-0.049-0.045
							C273.003,265.027,272.947,265.059,272.891,265.092z"/>
					</g>
				</g>
				<g>
					<g>
						<path fill="#6C9F65" d="M287.48,268.948c0.041-0.013,0.078-0.021,0.117-0.028c-0.012-0.007-0.021-0.02-0.033-0.025
							C287.539,268.913,287.511,268.932,287.48,268.948z"/>
					</g>
					<g>
						<path fill="#6C9F65" d="M284.259,269.83c0.509-0.799,1.034-1.754,1.458-2.514c-0.047-0.043-0.096-0.084-0.14-0.125
							c-1.918,1.687-5.636,4.371-4.082,2.529c0.899-1.068,1.071-2.382,1.055-3.43c-0.999,1.786-3.622,4.027-2.653,2.902
							c0.765-0.887,0.004-2.907-0.522-4.051c0.467,2.299-4.642,8.033-3.169,4.769c1.559-3.455-4.393-7.931-1.697-5.394
							c2.691,2.537-2.979,7.327-1.66,5.021c0.735-1.289-0.361-2.665-1.474-3.627c-0.834,1.67-1.038,3.822-1.083,5.813l0.202,0.273
							C274.195,272.938,279.809,271.145,284.259,269.83z"/>
					</g>
				</g>
			</g>
			<g>
				<g>
					<path fill="#FBC672" d="M136.333,289.498c-13.801-1.907,10.042-45.094,12.12-50.923c6.143-16.345,10.216-37.121,21.042-51.481
						c8.454-10.626,16.402-29.365,32.688-26.803c9.216,1.539,6.854,8.04,4.546,15.35c-2.454,7.646-4.428,15.102-9.559,21.609
						c-5.892,7.374-10.931,12.74-14.763,21.775c-3.689,8.7-8.715,16.831-13.075,25.247c-7.391,14.633-14.717,32.846-28.62,42.349
						C139.476,287.672,137.902,288.585,136.333,289.498"/>
				</g>
				<g>
					<path fill="#F78532" d="M132.395,287.829c-13.799-1.908,10.043-45.093,12.122-50.924c6.142-16.345,10.215-37.122,21.042-51.482
						c8.457-10.626,16.404-29.366,32.687-26.802c9.219,1.537,6.857,8.038,4.547,15.35c-2.454,7.646-4.428,15.099-9.56,21.608
						c-5.891,7.374-10.93,12.738-14.762,21.772c-3.691,8.7-8.718,16.833-13.078,25.249c-7.389,14.633-14.716,32.844-28.616,42.347
						C135.538,286.002,133.966,286.916,132.395,287.829"/>
				</g>
				<g>
					<path fill="#FBA7A0" d="M196.239,186.063c1.909,0.45,3.861,0.64,5.815,0.402c0.58-0.073-0.274-0.631-0.574-0.593
						c-1.792,0.22-3.578,0.076-5.333-0.337C195.442,185.368,195.77,185.952,196.239,186.063L196.239,186.063z"/>
					<path fill="#FBA7A0" d="M160.245,236.396c2.042,2.641,10.056,6.072,12.447,2.379c0.221-0.34-0.748-0.778-0.991-0.402
						c-1.961,3.027-8.924,0.042-10.588-2.107C160.869,235.949,159.859,235.898,160.245,236.396L160.245,236.396z"/>
					<path fill="#FBA7A0" d="M161.173,243.941c1.836,1.549,4.331,2.177,6.624,1.352c0.511-0.186-0.349-0.794-0.73-0.656
						c-1.792,0.646-3.738,0.197-5.177-1.019C161.534,243.32,160.636,243.49,161.173,243.941L161.173,243.941z"/>
					<path fill="#FBA7A0" d="M159.367,251.802c1.495,1.689,3.712,2.38,5.789,1.347c0.247-0.125-0.611-0.646-0.911-0.498
						c-1.542,0.768-2.932,0.412-4.056-0.856C159.996,251.577,158.985,251.374,159.367,251.802L159.367,251.802z"/>
					<path fill="#FBA7A0" d="M168.426,233.044c1.492,1.435,3.809,2.331,5.78,1.371c0.155-0.076-0.659-0.599-0.921-0.47
						c-1.485,0.723-2.921,0.267-4.069-0.836C169.053,232.955,168.049,232.684,168.426,233.044L168.426,233.044z"/>
					<path fill="#FBA7A0" d="M173.59,224.503c1.612,0.054,3.216,0.34,4.818-0.009c0.404-0.09-0.476-0.632-0.769-0.568
						c-1.524,0.335-3.086,0.04-4.625-0.012c-0.217-0.009-0.264,0.161-0.124,0.303C173.068,224.402,173.34,224.495,173.59,224.503
						L173.59,224.503z"/>
					<path fill="#FBA7A0" d="M175.843,219.186c1.544,1.428,3.716,1.514,5.666,1.012c0.612-0.157-0.156-0.784-0.539-0.687
						c-1.505,0.389-3.205,0.513-4.427-0.618C176.217,218.598,175.328,218.71,175.843,219.186L175.843,219.186z"/>
					<path fill="#FBA7A0" d="M178.781,213.635c1.109,1.271,2.661,2.226,4.402,1.874c0.607-0.125-0.188-0.732-0.546-0.661
						c-1.258,0.255-2.205-0.39-3.002-1.304C179.399,213.274,178.38,213.175,178.781,213.635L178.781,213.635z"/>
					<path fill="#FBA7A0" d="M180.874,204.038c1.739,2.206,4.381,3.992,7.292,3.787c0.58-0.04-0.275-0.614-0.575-0.593
						c-2.437,0.17-4.454-1.398-5.891-3.22C181.513,203.772,180.511,203.578,180.874,204.038L180.874,204.038z"/>
					<path fill="#FBA7A0" d="M185.655,199.46c1.817,1.593,4.075,3.114,6.603,2.764c0.625-0.083-0.133-0.757-0.53-0.701
						c-2.069,0.284-3.895-1.082-5.366-2.373C186.022,198.853,185.127,198.998,185.655,199.46L185.655,199.46z"/>
					<path fill="#FBA7A0" d="M189.499,195.513c1.312,1.744,3.573,3.347,5.861,2.831c0.332-0.075-0.543-0.566-0.79-0.511
						c-1.748,0.394-3.165-0.828-4.149-2.136C190.269,195.493,189.304,195.251,189.499,195.513L189.499,195.513z"/>
					<g>
						<path fill="#FCADC7" d="M136.693,254.766c0.435,3.31,2.606,5.226,5.52,6.529c0.571,0.256,0.682-0.041,0.119-0.293
							c-2.62-1.173-4.276-3.063-4.652-5.927C137.648,254.814,136.666,254.555,136.693,254.766L136.693,254.766z"/>
						<path fill="#FCADC7" d="M138.284,251.061c0.881,3.377,2.737,5.891,6.295,6.463c0.48,0.078-0.427-0.445-0.625-0.478
							c-2.918-0.47-4.044-3.207-4.688-5.67C139.201,251.111,138.244,250.904,138.284,251.061L138.284,251.061z"/>
						<path fill="#FCADC7" d="M140.726,245.511c1.007,3.009,2.836,5.334,5.731,6.688c0.6,0.279,0.854-0.376,0.264-0.651
							c-2.588-1.209-4.121-3.364-5.007-6.018C141.576,245.111,140.542,244.962,140.726,245.511L140.726,245.511z"/>
						<path fill="#FCADC7" d="M143.997,238.811c1.487,2.729,2.041,5.955,5.417,6.861c0.688,0.188,0.509-0.561-0.022-0.703
							c-2.7-0.724-3.233-3.964-4.411-6.123C144.785,238.489,143.739,238.34,143.997,238.811L143.997,238.811z"/>
						<path fill="#FCADC7" d="M145.915,232.409c1.775,2.948,2.89,5.935,6.005,7.721c0.21,0.12,1.179,0.313,0.591-0.022
							c-2.919-1.674-3.962-4.639-5.611-7.381C146.745,232.473,145.881,232.354,145.915,232.409L145.915,232.409z"/>
						<path fill="#FCADC7" d="M153.216,237.051c1.51,1.646,3.624,2.01,5.609,2.822c0.595,0.242,0.793-0.25,0.202-0.493
							c-1.703-0.698-3.673-0.979-4.968-2.396C153.835,236.743,152.813,236.611,153.216,237.051L153.216,237.051z"/>
						<path fill="#FCADC7" d="M151.245,243.828c2.11,1.626,4.834,2.425,7.476,2.48c0.7,0.017,0.294-0.819-0.245-0.83
							c-2.375-0.055-4.791-0.791-6.684-2.248C151.311,242.859,150.692,243.402,151.245,243.828L151.245,243.828z"/>
						<path fill="#FCADC7" d="M147.546,249.663c2.363,1.05,4.765,2.767,7.473,2.403c0.647-0.088-0.019-0.854-0.496-0.791
							c-2.336,0.314-4.651-1.418-6.689-2.322C147.226,248.682,146.943,249.396,147.546,249.663L147.546,249.663z"/>
						<path fill="#FCADC7" d="M139.126,267.313c2.21,2,5.739,3.082,8.489,1.559c0.138-0.077-0.681-0.598-0.924-0.463
							c-2.165,1.201-4.831,0.759-6.652-0.887C139.862,267.357,138.941,267.146,139.126,267.313L139.126,267.313z"/>
						<path fill="#FCADC7" d="M144.473,260.574c1.827,1.544,4.388,2.293,6.692,1.459c0.384-0.141-0.515-0.637-0.776-0.54
							c-1.771,0.638-3.661,0.313-5.106-0.909C145.084,260.42,144.057,260.225,144.473,260.574L144.473,260.574z"/>
						<path fill="#FCADC7" d="M133.434,271.363c1.699,1.923,4.095,3.06,6.683,2.851c0.57-0.046-0.299-0.598-0.583-0.573
							c-2.13,0.17-3.891-0.711-5.281-2.283C134.063,271.145,133.056,270.938,133.434,271.363L133.434,271.363z"/>
						<path fill="#FCADC7" d="M132.899,275.245c1.907,1.261,3.522,2.726,5.962,2.104c0.426-0.107-0.454-0.658-0.761-0.578
							c-1.9,0.48-3.083-0.762-4.539-1.724C133.263,274.85,132.322,274.861,132.899,275.245L132.899,275.245z"/>
						<path fill="#FCADC7" d="M132.449,280.23c0.612,0.691,1.463,0.959,2.36,1.045c0.695,0.066,0.608-0.729,0.013-0.784
							c-0.639-0.06-1.188-0.171-1.628-0.667C132.843,279.427,131.985,279.705,132.449,280.23L132.449,280.23z"/>
						<path fill="#FCADC7" d="M149.292,224.901c0.891,2.842,2.471,6.64,6.054,4.604c0.507-0.287-0.34-0.894-0.722-0.677
							c-1.417,0.806-2.38,0.509-3.185-0.862c-0.543-0.929-0.838-2.026-1.159-3.047C150.148,224.5,149.118,224.348,149.292,224.901
							L149.292,224.901z"/>
						<path fill="#FCADC7" d="M150.656,219.36c1.128,1.779,1.826,3.586,4.135,3.879c0.692,0.088,0.024-0.557-0.338-0.604
							c-1.532-0.195-2.118-2.015-2.844-3.164C151.438,219.206,150.421,218.989,150.656,219.36L150.656,219.36z"/>
						<path fill="#FCADC7" d="M153.007,214.668c0.447,0.88,0.712,1.832,1.226,2.676c0.502,0.832,1.447,1.217,2.363,1.368
							c0.7,0.116,0.501-0.573-0.039-0.662c-1.732-0.287-1.896-1.983-2.577-3.324C153.808,214.385,152.773,214.204,153.007,214.668
							L153.007,214.668z"/>
						<path fill="#FCADC7" d="M159.249,227.198c2.249,1.917,4.868,3.132,7.561,4.29c0.589,0.253,0.782-0.229,0.196-0.48
							c-2.53-1.09-4.978-2.221-7.089-4.023C159.626,226.734,158.718,226.743,159.249,227.198L159.249,227.198z"/>
						<path fill="#FCADC7" d="M161.176,225.575c2.127,2.293,5.299,3.069,8.279,3.573c0.681,0.111-0.07-0.469-0.371-0.521
							c-2.579-0.435-5.257-1.035-7.103-3.028C161.807,225.411,160.8,225.171,161.176,225.575L161.176,225.575z"/>
						<path fill="#FCADC7" d="M163.514,222.486c2.498,2.1,6.441,3.37,9.559,1.992c0.103-0.045-0.668-0.57-0.928-0.454
							c-2.624,1.156-5.72,0.358-7.858-1.438C164.136,222.458,163.134,222.167,163.514,222.486L163.514,222.486z"/>
						<path fill="#FCADC7" d="M165.592,219.386c2.307,1.009,4.5,2.155,7.091,1.939c0.287-0.024-0.554-0.516-0.795-0.495
							c-2.267,0.188-4.166-0.859-6.174-1.735C165.14,218.844,165.024,219.139,165.592,219.386L165.592,219.386z"/>
						<path fill="#FCADC7" d="M158.663,209.433c1.76,2.223,4.505,4.116,7.457,3.917c0.698-0.047,0.218-0.792-0.276-0.757
							c-2.512,0.171-4.796-1.437-6.296-3.333C159.276,208.922,158.265,208.93,158.663,209.433L158.663,209.433z"/>
						<path fill="#FCADC7" d="M161.984,201.688c1.992,2.285,4.774,4.157,7.919,3.32c0.444-0.116-0.437-0.676-0.757-0.592
							c-2.586,0.688-4.708-0.937-6.322-2.789C162.607,201.376,161.59,201.237,161.984,201.688L161.984,201.688z"/>
						<path fill="#FCADC7" d="M165.502,193.761c1.412,0.997,2.685,2.15,4.402,2.58c0.704,0.173,0.36-0.399-0.1-0.514
							c-1.415-0.355-2.491-1.407-3.654-2.227C165.875,193.404,164.936,193.361,165.502,193.761L165.502,193.761z"/>
						<path fill="#FCADC7" d="M172.403,202.836c2.884,2.057,5.366,4.563,8.873,5.516c0.697,0.189,0.42-0.462-0.066-0.594
							c-3.204-0.871-5.502-3.281-8.132-5.155C172.764,202.376,171.835,202.432,172.403,202.836L172.403,202.836z"/>
						<path fill="#FCADC7" d="M178.207,199.075c1.824,1.457,3.788,2.596,6.124,2.958c0.693,0.109,0.622-0.72,0.023-0.813
							c-2.157-0.334-3.921-1.404-5.599-2.745C178.277,198.092,177.663,198.639,178.207,199.075L178.207,199.075z"/>
						<path fill="#FCADC7" d="M167.026,184.863c0.458,2.335,3.321,3.731,5.534,3.529c0.631-0.059-0.098-0.771-0.521-0.732
							c-1.556,0.144-3.667-0.941-3.989-2.577C167.966,184.651,166.936,184.399,167.026,184.863L167.026,184.863z"/>
						<path fill="#FCADC7" d="M172.373,180.396c1.171,1.589,2.624,2.893,4.673,3.032c0.509,0.035-0.406-0.475-0.616-0.489
							c-1.45-0.099-2.351-1.273-3.142-2.343C173.147,180.402,172.194,180.154,172.373,180.396L172.373,180.396z"/>
						<path fill="#FCADC7" d="M169.221,191.707c1.938,1.182,3.821,2.231,6.092,2.572c0.688,0.106,0.042-0.566-0.33-0.622
							c-1.983-0.296-3.624-1.287-5.307-2.313C169.245,191.082,168.606,191.33,169.221,191.707L169.221,191.707z"/>
						<path fill="#FCADC7" d="M179.943,192.34c1.944,1.807,4.155,3.156,6.578,4.223c0.607,0.268,0.885-0.434,0.283-0.698
							c-2.258-0.995-4.303-2.24-6.117-3.924C180.307,191.586,179.43,191.863,179.943,192.34L179.943,192.34z"/>
						<path fill="#FCADC7" d="M183.16,189.286c2.007,2.661,5.201,4.051,8.46,4.4c0.695,0.076,0.626-0.743,0.021-0.808
							c-2.881-0.308-5.787-1.449-7.574-3.824C183.771,188.66,182.762,188.761,183.16,189.286L183.16,189.286z"/>
						<path fill="#FCADC7" d="M188.215,186.425c1.793,1.453,4.078,1.5,6.28,1.671c0.698,0.055,0.219-0.732-0.27-0.771
							c-1.772-0.14-3.825-0.085-5.279-1.263C188.568,185.753,187.67,185.985,188.215,186.425L188.215,186.425z"/>
						<path fill="#FCADC7" d="M189.506,180.96c2.749,1.219,5.325,2.843,8.448,2.492c0.637-0.074-0.063-0.807-0.511-0.759
							c-2.793,0.316-5.22-1.318-7.667-2.401C189.171,180.026,188.905,180.696,189.506,180.96L189.506,180.96z"/>
						<path fill="#FCADC7" d="M176.227,177.711c1.413,2.531,4.857,4.26,7.692,3.277c0.419-0.143-0.478-0.667-0.765-0.568
							c-2.314,0.801-4.831-0.524-5.982-2.586C177.023,177.568,176.015,177.329,176.227,177.711L176.227,177.711z"/>
						<path fill="#FCADC7" d="M178.266,170.809c2.568,2.199,5.594,3.766,8.675,5.112c0.572,0.25,0.679-0.029,0.111-0.277
							c-2.852-1.249-5.631-2.712-8.004-4.748C178.89,170.763,177.885,170.481,178.266,170.809L178.266,170.809z"/>
						<path fill="#FCADC7" d="M157.036,203.906c0.465-0.227,2.717,1.513,3.13,1.771c0.969,0.604,1.934,1.229,2.973,1.706
							c0.598,0.27,0.832-0.332,0.244-0.602c-1.567-0.714-2.985-1.768-4.462-2.643c-0.615-0.365-1.842-1.257-2.618-0.885
							C155.807,203.495,156.673,204.081,157.036,203.906L157.036,203.906z"/>
						<path fill="#FCADC7" d="M170.168,209.771c1.358,2.385,4.155,2.979,6.707,2.567c0.322-0.053-0.542-0.55-0.791-0.51
							c-1.91,0.31-3.87,0.099-4.928-1.754C171.003,209.805,170.102,209.657,170.168,209.771L170.168,209.771z"/>
						<path fill="#FCADC7" d="M168.771,215.13c2.409,1.068,4.922,2.803,7.679,2.131c0.442-0.109-0.437-0.67-0.755-0.593
							c-2.361,0.575-4.66-1.109-6.725-2.028C168.38,214.382,168.189,214.872,168.771,215.13L168.771,215.13z"/>
						<path fill="#FCADC7" d="M156.614,213.697c1.758,1.589,3.597,3.552,6.195,2.917c0.64-0.155-0.032-0.891-0.5-0.775
							c-2.084,0.508-3.562-1.284-4.952-2.541C156.973,212.951,156.093,213.227,156.614,213.697L156.614,213.697z"/>
						<path fill="#FCADC7" d="M149.539,255.239c2.576,1.163,4.847,2.989,7.797,2.946c0.702-0.011,0.279-0.824-0.251-0.814
							c-2.709,0.039-4.89-1.771-7.258-2.841C149.219,254.255,148.938,254.968,149.539,255.239L149.539,255.239z"/>
						<path fill="#FCADC7" d="M133.266,263.715c1.263,0.947,1.95,2.49,3.027,3.625c0.333,0.352,1.202,0.17,0.72-0.34
							c-1.161-1.223-1.869-2.758-3.239-3.785C133.318,262.873,132.702,263.294,133.266,263.715L133.266,263.715z"/>
						<path fill="#FCADC7" d="M129.898,284.316c1.226,1.17,2.88,1.771,4.52,1.16c0.15-0.058-0.633-0.582-0.919-0.476
							c-1.103,0.412-1.965,0.171-2.807-0.637C130.524,284.206,129.516,283.948,129.898,284.316L129.898,284.316z"/>
						<path fill="#FCADC7" d="M184.49,168.893c4.123,4.964,10.416,14.984,17.971,9.898c0.372-0.252-0.543-0.784-0.89-0.546
							c-6.783,4.568-12.519-5.049-16.209-9.493C185.103,168.441,184.086,168.408,184.49,168.893L184.49,168.893z"/>
						<path fill="#FCADC7" d="M191.195,168.473c2.629,2.939,6.308,4.716,10.227,5.05c0.699,0.06,0.203-0.718-0.273-0.761
							c-3.567-0.302-6.845-1.979-9.226-4.643C191.59,167.749,190.728,167.951,191.195,168.473L191.195,168.473z"/>
						<path fill="#FCADC7" d="M200.399,169.037c1.055,0.897,2.377,1.315,3.756,1.263c0.7-0.025,0.2-0.757-0.282-0.74
							c-1.012,0.037-1.973-0.19-2.756-0.855C200.76,168.4,199.865,168.584,200.399,169.037L200.399,169.037z"/>
						<path fill="#FCADC7" d="M160.239,193.743c1.484,1.857,2.271,3.972,4.681,4.776c0.699,0.233,0.245-0.269-0.145-0.398
							c-1.757-0.586-2.547-2.841-3.619-4.184C161.001,193.745,160.05,193.506,160.239,193.743L160.239,193.743z"/>
					</g>
				</g>
				<g>
					<g>
						<path fill="#6C9F65" d="M212.99,160.651c0.091-1.164-0.13-2.314-1.191-2.761c-2.212-0.927,3.634-0.73,4.342,2.01
							c0.03-0.011,0.061-0.022,0.09-0.033c-0.047-1.525-0.454-3.494-1.995-4.318c-3.121-1.672,4.218-0.289,5.385,1.778
							c0.006-0.006,0.01-0.01,0.016-0.015c-0.289-1.235-0.915-3.21-2.032-3.44c-1.459-0.302,1.992-0.125,3.869,0.683
							c-0.628-0.838-1.565-1.777-2.923-2.075c-2.322-0.507,2.088-0.645,4.657-0.489c0.024-0.071,0.046-0.14,0.068-0.213
							c-1.358-0.581-3.245-1.418-4.22-1.494c-0.473,0.112-0.68,0.154-0.457,0.051c0.109-0.052,0.268-0.064,0.457-0.051
							c0.887-0.206,2.718-0.651,4.466-0.819c-0.112-0.714-0.437-1.367-1.04-1.911c-6.641,4.328-15.66,6.582-20.721,12.261
							C204.188,161.338,209.253,161.264,212.99,160.651z"/>
					</g>
					<g>
						<path fill="#6C9F65" d="M201.586,160.014c0.057-0.071,0.12-0.137,0.18-0.202c-0.317-0.2-0.59-0.426-0.808-0.683
							L201.586,160.014z"/>
					</g>
				</g>
				<g>
					<g>
						<path fill="#6C9F65" d="M209.908,149.233c0.059-0.068,0.122-0.133,0.18-0.2c-0.318-0.199-0.591-0.425-0.808-0.683
							L209.908,149.233z"/>
					</g>
					<g>
						<path fill="#6C9F65" d="M221.054,149.914c0.105-1.185-0.106-2.373-1.187-2.825c-2.24-0.937,3.774-0.727,4.362,2.11
							c0.025-0.008,0.049-0.016,0.076-0.023c-0.035-1.539-0.42-3.584-1.997-4.426c-3.16-1.692,4.385-0.258,5.417,1.851
							c-0.276-1.228-0.906-3.292-2.052-3.529c-1.456-0.301,1.993-0.127,3.868,0.682c-0.625-0.839-1.563-1.777-2.923-2.074
							c-2.398-0.524,2.397-0.654,4.914-0.471c0.016-0.045,0.028-0.09,0.044-0.134c-1.368-0.581-3.416-1.514-4.449-1.592
							c-0.477,0.11-0.684,0.154-0.46,0.05c0.11-0.052,0.269-0.063,0.46-0.05c0.93-0.217,2.895-0.695,4.714-0.841
							c-0.12-0.698-0.446-1.334-1.036-1.867c-6.639,4.327-15.661,6.582-20.719,12.26
							C212.453,150.525,217.341,150.488,221.054,149.914z"/>
					</g>
				</g>
				<g>
					<g>
						<path fill="#6C9F65" d="M230.764,136.873c0.192-1.319,0.077-2.752-1.134-3.263c-2.328-0.976,4.246-0.708,4.403,2.45
							c0.013-0.002,0.021-0.01,0.033-0.013c0.017-1.564-0.297-3.867-2.002-4.779c-3.156-1.692,4.389-0.26,5.418,1.847
							c-0.275-1.226-0.906-3.292-2.053-3.526c-1.455-0.301,1.992-0.125,3.869,0.683c-0.628-0.839-1.561-1.78-2.923-2.075
							c-2.328-0.511,2.121-0.646,4.687-0.487c0.017-0.07,0.035-0.14,0.053-0.211c-1.362-0.58-3.254-1.425-4.234-1.497
							c-0.473,0.11-0.68,0.153-0.454,0.05c0.107-0.052,0.265-0.065,0.454-0.05c0.852-0.198,2.553-0.611,4.225-0.793
							c-0.164-0.523-0.463-1.005-0.926-1.42c-6.643,4.323-15.664,6.581-20.721,12.259
							C221.895,137.582,227.016,137.496,230.764,136.873z"/>
					</g>
					<g>
						<path fill="#6C9F65" d="M219.283,136.248c0.058-0.068,0.12-0.134,0.18-0.201c-0.318-0.202-0.593-0.426-0.808-0.683
							L219.283,136.248z"/>
					</g>
				</g>
				<g>
					<g>
						<path fill="#6C9F65" d="M227.79,123.898c0.06-0.069,0.122-0.135,0.183-0.202c-0.32-0.202-0.595-0.426-0.811-0.683
							L227.79,123.898z"/>
					</g>
					<g>
						<path fill="#6C9F65" d="M238.99,124.569c0.095-1.174-0.121-2.344-1.191-2.791c-2.229-0.934,3.721-0.728,4.355,2.07
							c0.025-0.011,0.053-0.017,0.08-0.028c-0.041-1.535-0.437-3.546-1.998-4.384c-3.159-1.692,4.387-0.258,5.419,1.847
							c-0.278-1.225-0.906-3.291-2.052-3.525c-1.459-0.3,1.992-0.126,3.867,0.683c-0.628-0.842-1.563-1.779-2.924-2.076
							c-2.379-0.521,2.328-0.652,4.859-0.478c0.015-0.047,0.029-0.1,0.046-0.147c-1.366-0.583-3.377-1.496-4.397-1.571
							c-0.473,0.114-0.68,0.155-0.457,0.051c0.107-0.051,0.269-0.063,0.457-0.051c0.924-0.213,2.862-0.685,4.67-0.835
							c-0.113-0.71-0.438-1.357-1.037-1.897c-6.643,4.325-15.662,6.581-20.72,12.259C230.344,125.194,235.271,125.15,238.99,124.569
							z"/>
					</g>
				</g>
				<path fill="#6C9F65" d="M240.796,107.811c-2.289-0.355,2.963-1.501,4.539,0.658c0.048-0.042,0.095-0.084,0.142-0.13
					c-0.449-1.398-1.308-2.987-2.877-3.386c-3.218-0.818,3.137-1.242,5.283,0.129c0.039-0.074,0.069-0.157,0.104-0.233
					c-0.608-1.082-1.545-2.375-2.521-2.336c-1.355,0.053,1.346-0.488,3.36-0.333c0.021-0.104,0.042-0.202,0.062-0.308
					c-0.756-0.522-1.712-0.967-2.841-0.936c-1.979,0.052,0.646-0.767,3.041-1.314c0.004-0.234-0.008-0.484-0.014-0.729
					c-1.169-0.18-2.384-0.327-3.063-0.211c-0.436,0.223-0.627,0.314-0.432,0.16c0.095-0.076,0.24-0.129,0.432-0.16
					c0.616-0.314,1.727-0.893,2.957-1.409c-0.051-0.414-0.109-0.837-0.188-1.272c0,0-10.693,6.654-11.969,13.24
					c0,0-8.328,10.666-12.059,17.03c-3.728,6.361-12.962,16.722-16.952,22.37c-3.989,5.648-7.254,9.122-7.591,11.85
					c-0.332,2.727,8.577-6.826,11.22-10.843c2.641-4.02,17.994-25.592,22.689-32.262c4.692-6.673,4.526-5.663,4.526-5.663
					s1.85-0.271,3.989-1.387C242.46,109.136,241.977,107.994,240.796,107.811z"/>
				<g>
					<g>
						<path fill="#6C9F65" d="M204.803,142.619c0.014-0.109,0.021-0.229,0.035-0.334c-0.033,0.018-0.063,0.038-0.097,0.055
							C204.764,142.434,204.785,142.527,204.803,142.619z"/>
					</g>
					<g>
						<path fill="#6C9F65" d="M204.581,145.66c-0.543-0.716-1.241-1.505-1.823-2.174c-0.083,0.047-0.168,0.092-0.248,0.141
							c0.933,2.416,2.089,6.441,0.915,4.435c-0.701-1.204-1.884-1.804-2.875-2.141c1.351,1.537,2.581,4.765,1.845,3.468
							c-0.579-1.015-2.738-0.977-3.989-0.86c2.322,0.33,6.015,7.063,3.431,4.58c-2.731-2.623-8.941,1.483-5.649-0.203
							c3.288-1.691,5.906,5.26,4.174,3.246c-0.983-1.146-2.685-0.536-3.967,0.204c1.285,1.461,3.344,2.432,5.296,3.177l0.327-0.1
							C204.149,156.239,204.329,150.306,204.581,145.66z"/>
					</g>
				</g>
				<g>
					<g>
						<path fill="#6C9F65" d="M212.955,133.954c0.055-0.886,0.116-1.719,0.202-2.449c-0.176,0.109-0.352,0.21-0.528,0.314
							C212.773,132.546,212.879,133.286,212.955,133.954z"/>
					</g>
					<g>
						<path fill="#6C9F65" d="M212.876,135.385c-0.464-0.749-1.293-1.715-2.028-2.552c-0.132,0.076-0.26,0.148-0.391,0.22
							c0.894,2.427,1.856,5.888,0.75,3.998c-0.701-1.203-1.884-1.803-2.874-2.141c1.35,1.538,2.577,4.766,1.846,3.472
							c-0.579-1.017-2.738-0.979-3.989-0.864c2.321,0.331,6.013,7.066,3.43,4.584c-1.783-1.709-5.038-0.562-6.179-0.024
							c-0.001,0.028-0.003,0.054-0.003,0.077c0.139-0.063,0.314-0.146,0.531-0.261c3.291-1.688,5.908,5.263,4.176,3.248
							c-0.924-1.075-2.481-0.606-3.73,0.07c1.244,1.668,3.487,2.734,5.594,3.539l0.326-0.099
							C212.391,145.578,212.633,139.948,212.876,135.385z"/>
					</g>
				</g>
				<g>
					<g>
						<path fill="#6C9F65" d="M222.306,121.383c-0.434-0.592-0.993-1.248-1.521-1.849c-0.151,0.083-0.302,0.168-0.45,0.254
							c0.877,2.413,1.765,5.669,0.686,3.823c-0.701-1.203-1.885-1.804-2.873-2.142c1.348,1.538,2.577,4.766,1.844,3.471
							c-0.578-1.016-2.739-0.979-3.989-0.862c2.322,0.333,6.014,7.064,3.431,4.583c-2.734-2.625-8.94,1.479-5.65-0.206
							c3.289-1.688,5.91,5.262,4.176,3.247c-1.064-1.237-2.96-0.425-4.268,0.381c1.223,1.748,3.524,2.855,5.695,3.683l0.326-0.101
							C221.923,132.355,222.033,126.094,222.306,121.383z"/>
					</g>
					<g>
						<path fill="#6C9F65" d="M222.512,118.743c0.008-0.073,0.012-0.155,0.018-0.226c-0.016,0.011-0.035,0.022-0.055,0.034
							C222.487,118.616,222.497,118.679,222.512,118.743z"/>
					</g>
				</g>
				<g>
					<g>
						<path fill="#6C9F65" d="M231.027,106.286c0.004-0.038,0.01-0.081,0.014-0.119c-0.012,0.007-0.023,0.015-0.035,0.021
							C231.016,106.221,231.021,106.253,231.027,106.286z"/>
					</g>
					<g>
						<path fill="#6C9F65" d="M230.781,109.62c-0.58-0.747-1.311-1.561-1.881-2.218c-0.053,0.031-0.108,0.063-0.164,0.093
							c0.947,2.371,2.232,6.771,1.017,4.691c-0.704-1.205-1.887-1.805-2.878-2.142c1.352,1.538,2.582,4.765,1.848,3.47
							c-0.578-1.018-2.738-0.979-3.99-0.862c2.322,0.33,6.016,7.064,3.432,4.583c-2.734-2.625-8.942,1.479-5.648-0.205
							c3.288-1.689,5.905,5.262,4.172,3.247c-0.969-1.129-2.629-0.553-3.908,0.169c1.292,1.349,3.253,2.259,5.111,2.969l0.326-0.099
							C230.339,120.141,230.529,114.253,230.781,109.62z"/>
					</g>
				</g>
			</g>
		</g>
	</g>
</g>
</svg>
