<?xml version="1.0" encoding="utf-8"?>
<!-- Generator: Adobe Illustrator 16.0.0, SVG Export Plug-In . SVG Version: 6.00 Build 0)  -->
<!DOCTYPE svg PUBLIC "-//W3C//DTD SVG 1.1//EN" "http://www.w3.org/Graphics/SVG/1.1/DTD/svg11.dtd">
<svg version="1.1" id="Ebene_1" xmlns="http://www.w3.org/2000/svg" xmlns:xlink="http://www.w3.org/1999/xlink" x="0px" y="0px"
	 width="450px" height="450px" viewBox="0 0 450 450" enable-background="new 0 0 450 450" xml:space="preserve">
<g>
	<g opacity="0.3">
		<path d="M225.336,130.848c-0.367,3.081-3.161,5.277-6.244,4.908c-3.076-0.369-5.274-3.165-4.906-6.244s3.167-5.277,6.246-4.906
			C223.508,124.975,225.709,127.77,225.336,130.848z"/>
		<path d="M269.422,125.294c-0.37,3.079-3.163,5.277-6.244,4.908c-3.08-0.369-5.275-3.165-4.905-6.245
			c0.366-3.08,3.162-5.275,6.242-4.906C267.592,119.419,269.793,122.215,269.422,125.294z"/>
		<path d="M259.666,124.125c-0.371,3.079-3.167,5.277-6.248,4.908c-3.074-0.37-5.273-3.166-4.905-6.245
			c0.371-3.079,3.167-5.275,6.246-4.907C257.838,118.251,260.035,121.045,259.666,124.125z"/>
		<circle cx="226.172" cy="120.463" r="5.617"/>
		<path d="M223.488,125.15c-0.295,2.436-2.504,4.175-4.945,3.883c-2.436-0.292-4.176-2.504-3.884-4.943
			c0.293-2.436,2.508-4.177,4.943-3.885C222.041,120.496,223.78,122.711,223.488,125.15z"/>
		<path d="M261.264,114.242c-0.132,1.091-1.122,1.869-2.214,1.737c-1.089-0.129-1.865-1.12-1.737-2.21
			c0.129-1.09,1.121-1.869,2.213-1.737C260.614,112.163,261.392,113.152,261.264,114.242z"/>
		<path d="M222.769,110.511c-0.13,1.09-1.121,1.869-2.21,1.736c-1.093-0.129-1.869-1.119-1.737-2.209
			c0.129-1.091,1.12-1.868,2.21-1.738C222.121,108.43,222.902,109.42,222.769,110.511z"/>
		<path d="M219.073,116.782c-0.202,1.668-1.712,2.859-3.386,2.66c-1.664-0.201-2.856-1.716-2.655-3.384
			c0.2-1.667,1.713-2.856,3.383-2.657C218.08,113.602,219.27,115.116,219.073,116.782z"/>
		<path d="M253.969,118.552c-0.199,1.668-1.712,2.858-3.379,2.658c-1.672-0.199-2.86-1.715-2.662-3.381
			c0.202-1.668,1.716-2.858,3.384-2.658C252.98,115.37,254.168,116.885,253.969,118.552z"/>
		<circle cx="262.937" cy="131.233" r="7.195"/>
		<path d="M249.964,119.544c-0.474,3.947-4.056,6.761-8.002,6.289c-3.943-0.474-6.759-4.057-6.288-8
			c0.477-3.944,4.057-6.76,8.004-6.288C247.623,112.018,250.435,115.6,249.964,119.544z"/>
		<circle cx="232.592" cy="113.575" r="7.195"/>
		<polygon points="217.977,135.74 243.559,151.584 264.698,138.159 263.793,124.09 232.791,112.421 223.089,122.568 		"/>
		<path d="M234.606,224.632c0,0,2.934-5.603,3.911-10.561c0.977-4.956,3.242-7.453,7.771-12.449
			c4.525-4.994,7.715-18.306,7.715-18.306l-5.65-0.868c0,0-2.076,10.289-4.741,12.496c-2.669,2.206-8.731,8.693-9.364,13.595
			C233.615,213.44,234.606,224.632,234.606,224.632z"/>
		<path d="M241.026,182.207c0,0-1.591,13.237,1.216,25.405c1.55,6.72,1.169,15.441,1.169,15.441s7.485-0.128,7.721-10.124
			c0.234-9.999-5.861-11.759-6.081-18.656c-0.224-6.894-0.303-12.133-0.303-12.133L241.026,182.207z"/>
		<path d="M256.57,183.791l7.817-0.014c0,0-3.88,30.388-6.041,47.163c-0.484,3.763-0.882,6.841-1.131,8.735
			c-1.351,10.352-4.141,34.973-4.141,34.973l-38.677,5.02l2.111-22.355c0,0,12.595-25.549,19.937-28.509
			c7.343-2.961,14.231-17.58,15.57-24.726C253.35,196.929,256.57,183.791,256.57,183.791z"/>
		<path d="M210.942,186.343c0.493-0.258,3.086,0.391,3.086,0.391s-0.058,5.164,1.769,8.779c1.826,3.615,5.705,6.725,5.705,6.725
			l-0.557,12c0,0-6.993-8.117-8.479-16.231C210.983,189.891,210.942,186.343,210.942,186.343z"/>
		<path d="M221.638,187.641l13.804-2.579c0,0-0.745,20.738-0.763,29.45c-0.021,8.712,1.36,36.04-5.709,41.802
			c-7.071,5.76-12.664,5.239-12.664,5.239L221.638,187.641z"/>
		<path d="M238.539,284.708c-1.818,0-3.675-0.237-5.095-0.653c-1.357-0.397-2.82-0.59-4.475-0.59c-2.094,0-4.171,0.315-6.002,0.594
			c-1.521,0.231-2.959,0.449-4.155,0.449c0,0,0,0-0.001,0c-1.958,0-3.005-0.586-3.499-1.959c-0.608-1.689-0.669-2.979-0.186-3.94
			c0.84-1.669,3.285-2.405,6.381-3.339c3.942-1.188,8.849-2.666,12.702-6.84c2.842-3.083,6.52-4.851,10.087-4.851
			c2.807,0,5.31,1.104,6.87,3.03c1.647,2.035,2.163,4.785,1.49,7.95C250.709,283.719,242.135,284.708,238.539,284.708z"/>
		<path d="M244.297,264.006c2.677,0,5.06,1.047,6.538,2.873c1.564,1.932,2.05,4.557,1.404,7.592
			c-1.884,8.855-10.208,9.811-13.7,9.811c-1.78,0-3.593-0.232-4.974-0.637c-1.397-0.408-2.9-0.606-4.596-0.606
			c-2.127,0-4.22,0.317-6.066,0.599c-1.505,0.229-2.927,0.445-4.092,0.445c-1.771,0-2.669-0.486-3.098-1.68
			c-0.567-1.572-0.635-2.75-0.207-3.602c0.759-1.506,3.127-2.22,6.124-3.123c3.992-1.202,8.96-2.699,12.894-6.959
			C237.285,265.722,240.848,264.006,244.297,264.006 M244.297,263.152c-3.413,0-7.232,1.552-10.4,4.987
			c-8.522,9.235-22.418,5.032-18.985,14.553c0.623,1.733,2.022,2.243,3.9,2.243c2.689,0,6.362-1.045,10.158-1.045
			c1.45,0,2.917,0.152,4.355,0.573c1.298,0.38,3.151,0.671,5.214,0.671c5.606,0,12.761-2.146,14.535-10.486
			C254.593,267.504,250.014,263.152,244.297,263.152L244.297,263.152z"/>
		<path d="M278.652,181.726c-0.764,2.333-3.274,3.605-5.61,2.841c-2.33-0.762-3.602-3.273-2.842-5.606
			c0.767-2.333,3.275-3.607,5.609-2.842C278.141,176.883,279.416,179.393,278.652,181.726z"/>
		<circle cx="267.835" cy="182.392" r="4.446"/>
		<path d="M257.464,177.96c0.631,3.923-2.038,7.615-5.961,8.248c-3.92,0.63-7.611-2.039-8.244-5.959
			c-0.634-3.923,2.034-7.617,5.958-8.249C253.138,171.368,256.833,174.037,257.464,177.96z"/>
		<circle cx="259.402" cy="182.269" r="7.193"/>
		<path d="M257.607,141.322c0.631,3.922-2.036,7.615-5.961,8.248c-3.921,0.631-7.613-2.036-8.248-5.958
			c-0.632-3.923,2.036-7.616,5.96-8.247C253.281,134.732,256.974,137.399,257.607,141.322z"/>
		<circle cx="290.197" cy="139.939" r="5.616"/>
		<circle cx="300.943" cy="156.75" r="5.617"/>
		<path d="M300.361,172.07c-0.965,2.947-4.139,4.556-7.083,3.59c-2.949-0.964-4.558-4.137-3.592-7.082
			c0.965-2.949,4.137-4.556,7.085-3.593C299.715,165.951,301.325,169.122,300.361,172.07z"/>
		<path d="M285.986,182.137c-0.964,2.947-4.136,4.554-7.082,3.59c-2.948-0.964-4.556-4.136-3.59-7.083
			c0.963-2.949,4.134-4.554,7.08-3.59C285.345,176.018,286.948,179.19,285.986,182.137z"/>
		<path d="M249.573,151.03c0.491,3.062-1.59,5.943-4.653,6.437c-3.06,0.492-5.941-1.59-6.434-4.651
			c-0.497-3.062,1.585-5.944,4.646-6.437C246.195,145.885,249.077,147.968,249.573,151.03z"/>
		<circle cx="242.245" cy="171.762" r="5.614"/>
		<path d="M247.135,158.352c0.389,2.425-1.258,4.707-3.679,5.096c-2.425,0.391-4.706-1.257-5.097-3.681
			c-0.393-2.423,1.257-4.706,3.68-5.095C244.463,154.281,246.744,155.93,247.135,158.352z"/>
		<circle cx="263.195" cy="133.726" r="4.445"/>
		<path d="M292.951,177.586c-0.762,2.333-3.273,3.605-5.604,2.841c-2.336-0.763-3.607-3.274-2.848-5.608
			c0.767-2.332,3.277-3.605,5.61-2.842C292.442,172.741,293.714,175.253,292.951,177.586z"/>
		<path d="M311.551,168.46c-0.762,2.332-3.274,3.607-5.604,2.841c-2.335-0.762-3.607-3.274-2.845-5.607
			c0.763-2.332,3.274-3.604,5.609-2.841C311.044,163.616,312.317,166.128,311.551,168.46z"/>
		<circle cx="257.874" cy="136.006" r="4.446"/>
		<path d="M304.145,150.351c-0.344,1.044-1.467,1.613-2.511,1.271c-1.041-0.341-1.614-1.464-1.269-2.509
			c0.34-1.043,1.462-1.612,2.507-1.27C303.916,148.185,304.485,149.309,304.145,150.351z"/>
		<circle cx="300.733" cy="136.365" r="1.988"/>
		<path d="M312.097,158.744c-0.34,1.043-1.462,1.612-2.506,1.27c-1.043-0.341-1.612-1.464-1.274-2.508
			c0.346-1.044,1.467-1.612,2.513-1.271C311.871,156.577,312.439,157.701,312.097,158.744z"/>
		<circle cx="247.837" cy="165.647" r="7.193"/>
		<path d="M292.498,171.634c-1.235,3.777-5.302,5.836-9.077,4.6c-3.776-1.236-5.834-5.299-4.596-9.075
			c1.234-3.777,5.297-5.835,9.074-4.6C291.671,163.796,293.732,167.858,292.498,171.634z"/>
		<path d="M278.031,138.195c-1.237,3.775-5.298,5.836-9.075,4.598c-3.776-1.234-5.834-5.299-4.602-9.075
			c1.239-3.776,5.301-5.836,9.078-4.6C277.209,130.355,279.268,134.42,278.031,138.195z"/>
		<path d="M288.275,140.542c-1.235,3.776-5.301,5.836-9.075,4.601c-3.775-1.238-5.833-5.302-4.597-9.076
			c1.233-3.776,5.298-5.837,9.073-4.601C287.452,132.702,289.511,136.765,288.275,140.542z"/>
		<path d="M302.421,149.973c-1.233,3.776-5.298,5.836-9.077,4.6c-3.774-1.236-5.834-5.3-4.598-9.077
			c1.235-3.777,5.3-5.836,9.076-4.6C301.599,142.133,303.66,146.197,302.421,149.973z"/>
		<circle cx="295.22" cy="162.387" r="7.195"/>
		<polygon points="250.361,179.103 266.503,181.124 277.758,180.733 291.319,170.019 299.467,156.619 297.338,145.587 
			276.906,135.724 258.806,134.433 250.093,143.6 243.965,156.317 		"/>
		<circle cx="192.332" cy="133.707" r="4.446"/>
		<path d="M179.146,148.214c1.658-0.267,2.785-1.828,2.521-3.487c-0.27-1.658-1.831-2.785-3.488-2.519
			c-1.656,0.268-2.787,1.828-2.517,3.486C175.925,147.353,177.487,148.481,179.146,148.214z"/>
		<circle cx="176.408" cy="177.568" r="1.989"/>
		<circle cx="183.793" cy="186.627" r="2.735"/>
		<path d="M254.739,158.846c-0.629-3.922-4.321-6.589-8.244-5.958c-0.103,0.018-0.192,0.059-0.297,0.078
			c0.011-0.416-0.003-0.837-0.074-1.263c-0.051-0.329-0.153-0.634-0.25-0.945c2.586-1.426,4.141-4.341,3.644-7.422
			c-0.631-3.923-4.326-6.591-8.247-5.958c-0.006,0-0.012,0.003-0.02,0.003c-0.799-2.643-3.434-4.365-6.239-3.914
			c-2.014,0.325-3.583,1.687-4.295,3.447c-1.027-2.238-3.429-3.625-5.977-3.214c-1.446,0.234-2.657,1.008-3.5,2.074
			c-0.295-0.07-0.6-0.104-0.902-0.127c-0.008-0.114-0.001-0.229-0.02-0.345c-0.268-1.658-1.829-2.786-3.487-2.519
			c-0.427,0.068-0.812,0.223-1.15,0.44c-0.013-0.124-0.002-0.246-0.021-0.369c-0.392-2.425-2.675-4.073-5.098-3.683
			c-0.969,0.157-1.809,0.625-2.448,1.277c-0.937-1.413-2.631-2.235-4.416-1.948c-2.425,0.39-4.073,2.671-3.683,5.095
			c0.122,0.738,0.43,1.39,0.851,1.949c-0.523-0.033-1.053-0.02-1.589,0.067c-2.766,0.444-4.877,2.424-5.682,4.919
			c-1.235-1.323-3.083-2.027-5.002-1.718c-3.06,0.492-5.142,3.375-4.65,6.437c0.269,1.666,1.256,3.022,2.582,3.851
			c-0.854,0.311-1.5,0.99-1.8,1.818c-0.079-0.033-0.146-0.083-0.226-0.113c-3.717-1.409-7.87,0.46-9.278,4.175
			c-1.153,3.034-0.092,6.334,2.35,8.22c-1.246,0.604-2.282,1.656-2.811,3.054c-1.104,2.897,0.355,6.142,3.253,7.242
			c0.942,0.357,1.914,0.42,2.84,0.277c-0.863,2.29,0.29,4.852,2.579,5.72c1.012,0.383,2.06,0.356,3.006,0.033
			c-0.362,3.19,1.435,6.344,4.574,7.535c1.35,0.512,2.755,0.582,4.069,0.295c0.843,2.58,3.442,4.247,6.209,3.801
			c0.896-0.145,1.69-0.51,2.379-1.007c0.648,0.894,1.762,1.407,2.931,1.218c1.36-0.218,2.35-1.313,2.518-2.614
			c1.22,1.537,3.195,2.404,5.274,2.071c1.551-0.25,2.845-1.116,3.686-2.305c0.908,1.513,2.666,2.407,4.517,2.109
			c1.362-0.22,2.465-1.05,3.116-2.156c0.774,1.841,2.723,2.992,4.786,2.66c2.05-0.331,3.53-2.018,3.708-3.995
			c1.577,1.717,3.957,2.64,6.438,2.241c3.92-0.631,6.589-4.323,5.956-8.246c-0.113-0.71-0.356-1.361-0.654-1.975
			c3.237-1.125,5.311-4.427,4.751-7.927c-0.269-1.653-1.1-3.063-2.243-4.116c0.11-0.013,0.216-0.003,0.329-0.022
			C252.706,166.462,255.373,162.769,254.739,158.846z"/>
		<path d="M246.494,152.887c-0.103,0.018-0.192,0.059-0.297,0.078c0.011-0.416-0.003-0.837-0.074-1.263
			c-0.051-0.329-0.153-0.634-0.25-0.945c2.586-1.426,4.141-4.341,3.644-7.422c-0.631-3.923-4.326-6.591-8.247-5.958
			c-0.006,0-0.012,0.003-0.02,0.003c-0.799-2.643-3.434-4.365-6.239-3.914c-2.014,0.325-3.583,1.687-4.295,3.447
			c-0.87-1.896-2.732-3.172-4.835-3.269c-5.901,16.254-16.285,44.65-20.985,57.493c0.52,0.23,1.101,0.326,1.703,0.228
			c1.36-0.218,2.35-1.313,2.518-2.614c1.22,1.537,3.195,2.404,5.274,2.071c1.551-0.25,2.845-1.116,3.686-2.305
			c0.908,1.513,2.666,2.407,4.517,2.109c1.362-0.22,2.465-1.05,3.116-2.156c0.774,1.841,2.723,2.992,4.786,2.66
			c2.05-0.331,3.53-2.018,3.708-3.995c1.577,1.717,3.957,2.64,6.438,2.241c3.92-0.631,6.589-4.323,5.956-8.246
			c-0.113-0.71-0.356-1.361-0.654-1.975c3.237-1.125,5.311-4.427,4.751-7.927c-0.269-1.653-1.1-3.063-2.243-4.116
			c0.11-0.013,0.216-0.003,0.329-0.022c3.926-0.631,6.593-4.324,5.958-8.247C254.11,154.924,250.417,152.257,246.494,152.887z"/>
		<path d="M230.531,185.98c-0.105,7.337,2.68,51.911-2.565,60.236c-3.978,6.318-8.742,8.273-11.243,9.054l-0.627,6.432
			c0,0,5.803,0.373,12.874-5.387c7.069-5.762,5.688-33.089,5.709-41.802c0.018-8.712,0.763-29.45,0.763-29.45L230.531,185.98z"/>
		<path d="M261.427,198.662c0,0,5.089-0.704,8.245-6.318c3.16-5.615,4.038-9.476,4.038-9.476h1.405c0,0-0.353,9.652-5.092,15.267
			c-3.449,4.088-9.828,8.248-9.828,8.248L261.427,198.662z"/>
		<path d="M244.448,122.418c0.146,0.895-0.467,1.737-1.36,1.881c-0.896,0.144-1.738-0.464-1.882-1.358
			c-0.146-0.897,0.465-1.739,1.358-1.884C243.46,120.914,244.302,121.521,244.448,122.418z"/>
		<path d="M194.571,160.928c0.388,2.423-1.259,4.704-3.684,5.094c-2.42,0.391-4.703-1.257-5.093-3.681
			c-0.394-2.422,1.257-4.704,3.681-5.093C191.899,156.856,194.179,158.507,194.571,160.928z"/>
		<path d="M298.452,166.543c0.395,2.424-1.256,4.705-3.68,5.095c-2.425,0.39-4.708-1.256-5.095-3.681
			c-0.391-2.422,1.259-4.705,3.68-5.095C295.781,162.471,298.065,164.121,298.452,166.543z"/>
		<path d="M191.883,171.075c0.211,1.327-0.69,2.575-2.019,2.789c-1.325,0.214-2.572-0.688-2.79-2.014
			c-0.213-1.33,0.693-2.579,2.018-2.792C190.42,168.845,191.666,169.747,191.883,171.075z"/>
		<path d="M202.058,167.804c0.274,1.713-0.891,3.324-2.602,3.6c-1.714,0.276-3.328-0.89-3.601-2.602
			c-0.277-1.712,0.889-3.324,2.597-3.599C200.168,164.927,201.781,166.092,202.058,167.804z"/>
		<path d="M288.041,165.698c0.276,1.712-0.889,3.325-2.6,3.601c-1.713,0.273-3.327-0.891-3.604-2.603
			c-0.273-1.712,0.894-3.324,2.602-3.601C286.154,162.821,287.766,163.986,288.041,165.698z"/>
		<circle cx="198.605" cy="178.13" r="1.587"/>
		<path d="M183.823,166.273c0.153,0.945-0.492,1.837-1.44,1.99c-0.941,0.153-1.835-0.492-1.988-1.438
			c-0.149-0.946,0.494-1.838,1.438-1.991C182.778,164.682,183.671,165.326,183.823,166.273z"/>
		<circle cx="198.605" cy="160.582" r="1.737"/>
		<circle cx="293.363" cy="155.669" r="1.736"/>
		<circle cx="284.939" cy="172.515" r="1.736"/>
		<circle cx="277.919" cy="172.515" r="1.737"/>
		<path d="M254.251,124.301c0.268,1.657-0.86,3.22-2.518,3.486c-1.661,0.267-3.222-0.862-3.49-2.52
			c-0.265-1.658,0.862-3.22,2.522-3.486C252.42,121.515,253.985,122.642,254.251,124.301z"/>
		<circle cx="244.58" cy="129.347" r="1.988"/>
		<circle cx="115.372" cy="275.148" r="5.615"/>
		<path d="M129.967,227.43c2.699,1.524,3.653,4.95,2.126,7.652c-1.525,2.699-4.95,3.651-7.651,2.126
			c-2.697-1.525-3.649-4.949-2.125-7.65C123.839,226.857,127.268,225.904,129.967,227.43z"/>
		<circle cx="122.372" cy="240.875" r="5.615"/>
		<path d="M111.633,260.606c2.698,1.524,3.652,4.95,2.125,7.651c-1.524,2.699-4.951,3.651-7.651,2.127
			c-2.7-1.525-3.652-4.951-2.128-7.65C105.503,260.033,108.928,259.081,111.633,260.606z"/>
		<circle cx="109.974" cy="273.646" r="4.446"/>
		<circle cx="115.648" cy="232.442" r="1.989"/>
		<circle cx="97.396" cy="266.537" r="1.988"/>
		<circle cx="101.245" cy="273.281" r="3.04"/>
		<circle cx="116.302" cy="241.748" r="3.042"/>
		<path d="M136.492,229.437c3.458,1.953,4.682,6.344,2.724,9.802c-1.952,3.463-6.344,4.681-9.803,2.728
			c-3.458-1.955-4.681-6.344-2.724-9.804C128.643,228.703,133.031,227.482,136.492,229.437z"/>
		<path d="M117.172,243.18c3.46,1.953,4.684,6.344,2.726,9.803c-1.951,3.46-6.342,4.679-9.802,2.726
			c-3.46-1.954-4.68-6.342-2.725-9.804C109.324,242.445,113.715,241.226,117.172,243.18z"/>
		<circle cx="104.98" cy="256.916" r="7.194"/>
		<polygon points="119.818,278.937 144.281,261.419 140.028,236.74 126.69,232.163 103.99,256.291 109.626,269.148 		"/>
		<path d="M117.705,249.377c0.881,0.213,1.423,1.098,1.211,1.98c-0.208,0.882-1.096,1.426-1.977,1.214
			c-0.883-0.21-1.427-1.099-1.214-1.979C115.936,249.711,116.821,249.166,117.705,249.377z"/>
		<path d="M123.213,241.052c1.633,0.392,2.641,2.033,2.248,3.667c-0.392,1.633-2.03,2.64-3.668,2.249
			c-1.632-0.393-2.641-2.033-2.248-3.668C119.937,241.668,121.578,240.662,123.213,241.052z"/>
		<path d="M124.614,249.986c1.069,0.256,1.725,1.329,1.469,2.396c-0.255,1.068-1.328,1.727-2.395,1.471
			c-1.07-0.255-1.728-1.328-1.472-2.396S123.544,249.731,124.614,249.986z"/>
		<path d="M192.662,295.078c0,0-3.091-3.713-6.302-5.862s-4.309-4.479-6.502-9.146c-2.192-4.662-10.649-10.827-10.649-10.827
			l-2.273,3.731c0,0,6.651,4.49,7.423,7.021c0.774,2.528,3.568,8.717,6.842,10.604C184.472,292.489,192.662,295.078,192.662,295.078
			z"/>
		<path d="M165.946,274.455c0,0,11.603,6.563,23.912,8.65c6.799,1.154,14.703,4.861,14.703,4.861s2.765-6.957-6.377-11.02
			c-9.136-4.064-13.106,0.884-19.558-1.564c-6.447-2.446-11.313-4.389-11.313-4.389L165.946,274.455z"/>
		<path d="M159.68,259.006l7.319-12.205c0,0,26.56,15.273,41.213,23.719c3.284,1.896,5.974,3.445,7.628,4.403
			c9.029,5.231,13.648,7.971,13.648,7.971l-14.265,36.334l-19.825-10.55c0,0,2.322-10.849,2.413-18.766
			c0.093-7.916-15.079-14.917-21.162-18.9C170.565,267.029,159.68,259.006,159.68,259.006z"/>
		<path d="M148.813,297.119c-0.05-0.553,1.547-2.697,1.547-2.697s4.741,2.038,8.782,1.744c4.041-0.295,8.404-2.678,8.404-2.678
			l10.859,5.126c0,0-10.182,3.335-18.243,1.585C152.102,298.447,148.813,297.119,148.813,297.119z"/>
		<path d="M154.122,287.744l2.93-13.732c0,0,12.84,8.596,24.636,9.238c11.896,0.648,16.36-4.587,38.459,5.638l-3.445,31.092
			L154.122,287.744z"/>
		<path d="M217.711,319.508c-3.649,0-6.703-2.553-8.17-6.827c-1.727-5.028-0.987-12.46,4.714-16.897
			c3.809-2.965,5.683-6.494,7.188-9.328c1.351-2.544,2.326-4.382,4.035-4.43l0.306-0.004c2.935,0,5.193,1.261,6.198,3.46
			c1.241,2.718,0.423,6.245-2.14,9.202c-2.225,2.564-3.088,7.131-3.924,11.546c-1.259,6.661-2.45,12.953-7.732,13.265
			C218.027,319.504,217.868,319.508,217.711,319.508C217.711,319.508,217.711,319.508,217.711,319.508z"/>
		<path d="M225.784,282.447c2.801,0,4.864,1.141,5.811,3.211c1.153,2.526,0.339,5.959-2.074,8.746
			c-2.3,2.65-3.175,7.274-4.021,11.746c-1.228,6.492-2.389,12.626-7.339,12.918c-0.151,0.009-0.302,0.014-0.45,0.014
			c-3.458,0-6.36-2.444-7.767-6.539c-1.679-4.889-0.965-12.113,4.571-16.424c3.881-3.021,5.779-6.594,7.304-9.465
			c1.412-2.658,2.278-4.164,3.671-4.203C225.59,282.449,225.688,282.447,225.784,282.447 M225.784,281.594
			c-0.104,0-0.21,0.001-0.318,0.005c-3.999,0.112-4.156,8.151-11.474,13.847c-9.75,7.59-6.012,24.488,3.719,24.488
			c0.166,0,0.331-0.005,0.5-0.015c9.386-0.553,6.604-18.79,11.954-24.957C235.239,289.105,233.22,281.594,225.784,281.594
			L225.784,281.594z"/>
		<path d="M179.687,252.448c0.967,2.257-0.08,4.87-2.341,5.835c-2.254,0.964-4.866-0.084-5.832-2.343
			c-0.965-2.255,0.085-4.868,2.339-5.833C176.11,249.143,178.726,250.189,179.687,252.448z"/>
		<circle cx="171.997" cy="260.081" r="4.446"/>
		<circle cx="156.695" cy="269.136" r="7.194"/>
		<circle cx="165.579" cy="265.551" r="7.194"/>
		<path d="M137.223,235.958c3.062,2.53,3.493,7.067,0.958,10.13c-2.529,3.063-7.066,3.492-10.128,0.96s-3.492-7.066-0.962-10.13
			C129.625,233.856,134.158,233.426,137.223,235.958z"/>
		<path d="M165.968,211.217c1.219,2.852-0.105,6.151-2.955,7.37c-2.851,1.22-6.149-0.104-7.369-2.958
			c-1.218-2.849,0.106-6.149,2.954-7.368C161.449,207.042,164.752,208.365,165.968,211.217z"/>
		<circle cx="179.969" cy="218.972" r="5.615"/>
		<circle cx="184.475" cy="233.079" r="5.615"/>
		<circle cx="180.311" cy="250.125" r="5.616"/>
		<circle cx="134.008" cy="252.882" r="5.615"/>
		<path d="M149.332,264.638c2.388,1.979,2.723,5.517,0.748,7.908c-1.973,2.389-5.514,2.725-7.907,0.748
			c-2.386-1.977-2.724-5.516-0.749-7.906C143.404,263,146.942,262.664,149.332,264.638z"/>
		<path d="M140.585,255.664c1.892,1.565,2.159,4.369,0.593,6.258c-1.565,1.894-4.367,2.16-6.26,0.596
			c-1.89-1.566-2.157-4.369-0.594-6.259C135.891,254.367,138.693,254.101,140.585,255.664z"/>
		<path d="M139.246,223.135c1.892,1.565,2.156,4.368,0.594,6.26c-1.565,1.892-4.369,2.156-6.259,0.593
			c-1.895-1.563-2.156-4.367-0.592-6.258C134.551,221.838,137.354,221.573,139.246,223.135z"/>
		<path d="M187.708,239.904c0.964,2.256-0.084,4.868-2.343,5.832c-2.256,0.967-4.866-0.084-5.834-2.338
			c-0.963-2.26,0.085-4.871,2.341-5.836C184.131,236.597,186.743,237.646,187.708,239.904z"/>
		<circle cx="191.582" cy="222.523" r="4.444"/>
		<circle cx="133.917" cy="231.784" r="4.444"/>
		<path d="M178.158,212.051c0.432,1.009-0.039,2.179-1.047,2.61c-1.011,0.432-2.177-0.038-2.611-1.048
			c-0.429-1.01,0.039-2.177,1.05-2.609C176.558,210.572,177.724,211.041,178.158,212.051z"/>
		<path d="M168.198,203.007c0.432,1.01-0.036,2.178-1.048,2.609c-1.007,0.432-2.177-0.037-2.609-1.049
			c-0.43-1.009,0.04-2.178,1.052-2.608C166.598,201.527,167.769,201.996,168.198,203.007z"/>
		<path d="M189.67,213.113c0.434,1.01-0.035,2.177-1.044,2.609c-1.012,0.431-2.179-0.039-2.609-1.048
			c-0.432-1.008,0.036-2.178,1.048-2.608C188.073,211.634,189.241,212.102,189.67,213.113z"/>
		<circle cx="145.922" cy="260.684" r="7.195"/>
		<path d="M183.441,235.73c1.562,3.653-0.137,7.881-3.787,9.443c-3.657,1.562-7.881-0.137-9.444-3.789
			c-1.563-3.652,0.135-7.881,3.789-9.443C177.652,230.382,181.879,232.075,183.441,235.73z"/>
		<path d="M150.511,220.135c1.562,3.652-0.135,7.88-3.785,9.442c-3.654,1.563-7.884-0.135-9.446-3.789
			c-1.562-3.651,0.135-7.879,3.79-9.443C144.724,214.784,148.952,216.482,150.511,220.135z"/>
		<path d="M159.761,215.144c1.56,3.654-0.135,7.881-3.787,9.444c-3.654,1.56-7.884-0.137-9.445-3.791
			c-1.558-3.652,0.136-7.882,3.791-9.442C153.97,209.794,158.198,211.489,159.761,215.144z"/>
		<path d="M176.615,212.901c1.562,3.654-0.137,7.882-3.788,9.445c-3.655,1.561-7.883-0.136-9.442-3.79
			c-1.562-3.653,0.133-7.881,3.785-9.441C170.826,207.552,175.053,209.248,176.615,212.901z"/>
		<circle cx="179.388" cy="226.983" r="7.194"/>
		<polygon points="156.697,269.133 170.163,260.007 178.363,252.288 181.49,235.293 178.779,219.845 169.899,212.96 
			148.038,219.019 133.581,229.988 133.077,242.624 136.859,256.226 		"/>
		<path d="M193.711,265.195c0,0,1.31-4.968-2.659-10.043c-3.968-5.075-7.192-7.371-7.192-7.371l0.538-1.297
			c0,0,8.774,4.037,12.136,10.57c2.446,4.757,3.832,12.244,3.832,12.244L193.711,265.195z"/>
		<path d="M174.421,217.041c2.387,0.572,3.859,2.972,3.288,5.359c-0.571,2.388-2.973,3.859-5.357,3.287
			c-2.389-0.571-3.859-2.97-3.29-5.357C169.636,217.942,172.033,216.469,174.421,217.041z"/>
		<circle cx="158.681" cy="221.066" r="3.14"/>
		<polyline points="146.321,311.052 156.814,304.904 160.509,300.015 157.299,293.112 155.033,284.561 161.027,275.653 
			165.046,267.539 146.827,262.891 138.35,263.161 128.001,263.664 124.509,267.785 119.942,269.005 111.985,273.593 
			108.399,281.277 113.232,287.969 112.649,297.931 119.615,305.013 122.155,312.48 130.635,317.76 145.214,311.146 		"/>
		<path d="M123.375,264.713c3.015,0.724,4.876,3.756,4.153,6.771c-0.724,3.014-3.756,4.873-6.77,4.152
			c-3.018-0.723-4.876-3.754-4.153-6.771C117.33,265.85,120.359,263.992,123.375,264.713z"/>
		<circle cx="127.418" cy="264.938" r="5.615"/>
		<path d="M114.556,293.999c3.013,0.722,4.874,3.753,4.152,6.769c-0.725,3.016-3.754,4.875-6.771,4.152
			c-3.014-0.723-4.874-3.752-4.152-6.769C108.51,295.135,111.537,293.276,114.556,293.999z"/>
		<circle cx="131.651" cy="317.398" r="5.616"/>
		<path d="M156.92,290.205c3.017,0.723,4.879,3.754,4.154,6.77c-0.723,3.017-3.756,4.873-6.768,4.154
			c-3.018-0.724-4.875-3.756-4.154-6.771C150.874,291.342,153.904,289.483,156.92,290.205z"/>
		<path d="M156.832,299.797c3.018,0.725,4.876,3.754,4.15,6.77c-0.718,3.015-3.752,4.873-6.766,4.152
			c-3.015-0.722-4.875-3.752-4.152-6.768C150.785,300.933,153.816,299.075,156.832,299.797z"/>
		<path d="M112.696,270.877c2.387,0.572,3.861,2.973,3.288,5.359c-0.572,2.387-2.973,3.859-5.358,3.287
			c-2.389-0.57-3.861-2.972-3.287-5.359C107.91,271.779,110.308,270.304,112.696,270.877z"/>
		<path d="M105.549,288.412c2.384,0.572,3.857,2.971,3.285,5.357c-0.57,2.388-2.973,3.86-5.357,3.289
			c-2.387-0.572-3.859-2.973-3.288-5.358C100.76,289.312,103.16,287.84,105.549,288.412z"/>
		<path d="M109.434,276.954c2.389,0.571,3.863,2.972,3.287,5.358c-0.57,2.388-2.971,3.859-5.357,3.287
			c-2.388-0.572-3.857-2.971-3.287-5.357C104.649,277.853,107.05,276.383,109.434,276.954z"/>
		<circle cx="140.122" cy="315.508" r="4.445"/>
		<circle cx="158.912" cy="282.433" r="4.445"/>
		<circle cx="156.989" cy="288.164" r="4.445"/>
		<circle cx="149.84" cy="263.58" r="4.444"/>
		<path d="M135.297,256.88c2.387,0.571,3.861,2.972,3.286,5.358c-0.569,2.387-2.971,3.858-5.356,3.287
			c-2.388-0.57-3.859-2.973-3.287-5.359C130.509,257.781,132.909,256.306,135.297,256.88z"/>
		<circle cx="116.039" cy="270.476" r="3.041"/>
		<path d="M110.581,306.822c1.634,0.391,2.64,2.032,2.249,3.666c-0.392,1.634-2.035,2.641-3.666,2.248
			c-1.635-0.391-2.643-2.031-2.252-3.666C107.307,307.437,108.946,306.427,110.581,306.822z"/>
		<circle cx="138.871" cy="324.306" r="1.988"/>
		<path d="M150.712,318.316c1.469,0.35,2.373,1.826,2.021,3.297c-0.349,1.467-1.827,2.373-3.296,2.021
			c-1.469-0.354-2.374-1.83-2.021-3.297C147.769,318.869,149.244,317.963,150.712,318.316z"/>
		<path d="M120.23,301.193c1.634,0.393,2.641,2.033,2.249,3.666c-0.393,1.635-2.034,2.641-3.668,2.25
			c-1.633-0.393-2.64-2.033-2.246-3.666C116.953,301.808,118.595,300.802,120.23,301.193z"/>
		<path d="M160.973,298.082c1.637,0.392,2.64,2.034,2.25,3.666c-0.39,1.635-2.034,2.641-3.667,2.25
			c-1.635-0.391-2.64-2.033-2.247-3.666C157.699,298.699,159.338,297.69,160.973,298.082z"/>
		<circle cx="115.936" cy="288.735" r="7.195"/>
		<circle cx="122.506" cy="311.488" r="7.194"/>
		<circle cx="148.023" cy="309.535" r="7.194"/>
		<path d="M150.321,261.595c2.732-2.887,7.286-3.014,10.175-0.283c2.886,2.731,3.014,7.283,0.281,10.172
			c-2.729,2.885-7.282,3.013-10.171,0.283C147.721,269.036,147.597,264.484,150.321,261.595z"/>
		<path d="M138.265,257.076c2.73-2.885,7.286-3.014,10.173-0.283c2.884,2.732,3.012,7.284,0.286,10.172
			c-2.733,2.886-7.289,3.015-10.176,0.283S135.536,259.964,138.265,257.076z"/>
		<path d="M163.028,264.668c3.862,0.926,6.244,4.807,5.316,8.673c-0.924,3.862-4.806,6.243-8.67,5.319
			c-3.863-0.926-6.246-4.809-5.323-8.672C155.281,266.123,159.161,263.742,163.028,264.668z"/>
		<circle cx="129.462" cy="305.465" r="4.445"/>
		<path d="M138.833,307.525c1.307,0.313,2.111,1.627,1.796,2.934c-0.309,1.307-1.626,2.113-2.932,1.801
			c-1.307-0.314-2.112-1.628-1.8-2.934C136.211,308.019,137.522,307.213,138.833,307.525z"/>
		<path d="M139.728,296.878c1.688,0.403,2.726,2.097,2.321,3.784c-0.404,1.686-2.102,2.727-3.784,2.322
			c-1.69-0.404-2.731-2.1-2.326-3.785C136.345,297.513,138.039,296.471,139.728,296.878z"/>
		<path d="M148.299,302.492c0.853,0.203,1.38,1.059,1.177,1.913c-0.209,0.851-1.063,1.376-1.914,1.172
			c-0.854-0.202-1.38-1.061-1.174-1.912C146.59,302.812,147.449,302.287,148.299,302.492z"/>
		<path d="M131.3,313.117c0.933,0.224,1.507,1.16,1.281,2.092c-0.221,0.932-1.159,1.509-2.091,1.285
			c-0.935-0.223-1.512-1.16-1.287-2.092C129.427,313.468,130.365,312.894,131.3,313.117z"/>
		<circle cx="131.732" cy="297.286" r="1.736"/>
		<circle cx="164.739" cy="216.873" r="1.736"/>
		<path d="M164.917,221.808c0.935,0.223,1.507,1.16,1.283,2.092c-0.221,0.933-1.157,1.507-2.094,1.285
			c-0.931-0.224-1.506-1.162-1.282-2.092C163.049,222.159,163.985,221.585,164.917,221.808z"/>
		<path d="M162.218,228.287c0.931,0.223,1.506,1.16,1.28,2.092c-0.22,0.935-1.16,1.508-2.09,1.285
			c-0.935-0.224-1.507-1.162-1.285-2.092C160.348,228.638,161.285,228.062,162.218,228.287z"/>
		<path d="M266.771,241.026c0.758-1.273,6.481,7.507,6.481,7.507s-7.959,14.955-7.316,24.808c0.883,13.6,10.404,12.06,8.222,24.302
			c-1.575,8.859-21.977,32.233-21.977,32.233l-18.063,4.185c0,0,12.343-29.625,14.465-43.574
			C251.305,272.616,250.734,267.972,266.771,241.026z"/>
		<path d="M281.213,255.81c-1.801,3.015-4.547,6.025-8.406,7.581c-4.346,1.749-9.992,2.351-11.515,6.873l-2.213,12.767l3.772,0.01
			c0,0,0.417-5.77,3.084-9.7c2.666-3.933,8.604-3.35,12.692-8.691c4.082-5.345,5.284-7.081,5.284-7.081L281.213,255.81z"/>
		<path d="M302.419,263.758l5.41,19.105c0,0-28.733,31.655-33.072,42.723c-4.341,11.068-9.789,21.834-9.789,21.834l-12.787-17.544
			l-6.229-4.663c0,0,12.354-25.352,25.146-32.572C283.991,285.365,288.703,285.494,302.419,263.758z"/>
		<path d="M274.757,325.586c4.339-11.067,33.072-42.723,33.072-42.723l-1.568-5.541l-0.671-1.01c0,0-19.509,15.502-28.179,26.709
			c-8.674,11.205-19.727,33.596-19.727,33.596s6.021,3.323,9.279,8.148C268.626,341.745,270.777,335.734,274.757,325.586z"/>
		<path d="M311.118,289.816l3.47,5.234c0,0-13.727,12.955-19.086,14.529c-5.363,1.575-12.825,1.53-12.825,1.53l7.934-12.035
			c0,0,2.214,2.487,8.751-0.433C305.898,295.724,311.118,289.816,311.118,289.816z"/>
		<path d="M257.735,234.207l2.061,0.646c0,0-1.29,4.117,0.064,7.865c1.354,3.747,3.585,5.03,3.585,5.03s0.695,2.313-0.071,4.819
			c-0.769,2.504-3.113,3.066-3.113,3.066s-4.362-7.906-3.887-12.492C256.854,238.56,257.735,234.207,257.735,234.207z"/>
		<path d="M262.058,348.258c-1.131,0-2.559-0.644-4.629-2.088c-3.513-2.448-7.462-2.562-11.643-2.682
			c-1.212-0.034-2.466-0.07-3.71-0.167c-2.349-0.183-4.564-1.507-6.078-3.633c-1.294-1.816-1.869-3.983-1.467-5.521
			c0.834-3.195,3.311-8.556,10.521-8.556c0.285,0,0.577,0.009,0.875,0.026c3.388,0.197,4.644,1.398,6.546,3.217
			c1.781,1.703,4,3.823,8.812,5.936c3.651,1.604,5.649,3.719,5.938,6.285c0.321,2.861-1.588,5.318-2.509,6.001
			C263.78,347.768,263.041,348.258,262.058,348.258C262.059,348.258,262.059,348.258,262.058,348.258z"/>
		<path d="M245.053,326.039c0.277,0,0.562,0.008,0.85,0.025c3.231,0.188,4.442,1.347,6.276,3.1c1.806,1.727,4.054,3.875,8.935,6.018
			c3.503,1.538,5.416,3.537,5.687,5.942c0.284,2.529-1.384,4.902-2.339,5.61c-0.87,0.643-1.551,1.097-2.403,1.097
			c-1.024,0-2.417-0.639-4.386-2.011c-3.616-2.521-7.627-2.637-11.873-2.758c-1.208-0.035-2.456-0.07-3.688-0.166
			c-2.224-0.173-4.325-1.432-5.765-3.455c-1.224-1.719-1.773-3.745-1.401-5.166C235.747,331.199,238.128,326.039,245.053,326.039
			 M245.053,325.185c-6.22,0-9.647,3.945-10.935,8.875c-0.891,3.404,2.5,9.266,7.926,9.686c5.425,0.424,10.708-0.316,15.141,2.774
			c2.262,1.577,3.721,2.164,4.873,2.164c1.106,0,1.93-0.54,2.91-1.265c2-1.481,6.4-8.668-3.512-13.02
			c-9.916-4.354-8.711-8.791-15.504-9.188C245.647,325.194,245.346,325.185,245.053,325.185L245.053,325.185z"/>
		<circle cx="253.85" cy="185.817" r="1.988"/>
		<path d="M355.13,224.908c-0.954-0.546-2.169-0.218-2.717,0.733c-0.545,0.952-0.22,2.169,0.731,2.716
			c0.954,0.548,2.166,0.221,2.715-0.732C356.408,226.673,356.079,225.458,355.13,224.908z"/>
		<circle cx="263.219" cy="177.506" r="3.041"/>
		<circle cx="325.554" cy="162.28" r="3.041"/>
		<path d="M350.752,233.929c-1.822-1.045-4.146-0.422-5.191,1.4c-1.048,1.819-0.42,4.146,1.398,5.191
			c1.821,1.047,4.147,0.42,5.19-1.4C353.197,237.302,352.569,234.977,350.752,233.929z"/>
		<path d="M347.182,213.387c-0.191-0.11-0.394-0.174-0.587-0.264c0.111-0.136,0.215-0.278,0.31-0.436
			c0.838-1.455,0.335-3.314-1.121-4.152c-0.192-0.112-0.392-0.195-0.594-0.26c0.004-0.003,0.005-0.007,0.007-0.011
			c0.819-1.421,0.748-3.095-0.015-4.421c0.216-0.159,0.406-0.359,0.546-0.605c0.548-0.952,0.217-2.167-0.731-2.715
			c-0.066-0.039-0.141-0.042-0.214-0.071c0.421-1.85-0.362-3.83-2.088-4.829c0.141-0.818,0.137-1.64-0.003-2.446
			c0.62-0.526,1.179-1.145,1.614-1.895c1.978-3.443,0.79-7.841-2.653-9.823c-1.588-0.914-3.374-1.124-5.038-0.781
			c-0.048-0.87-0.383-1.702-0.959-2.376c0.879-2.504-0.11-5.351-2.495-6.72c-2.063-1.187-4.553-0.907-6.308,0.496
			c-0.143-0.456-0.437-0.87-0.887-1.125c-0.684-0.395-1.501-0.32-2.11,0.098c-0.256-0.416-0.603-0.785-1.057-1.045
			c-0.736-0.424-1.574-0.502-2.332-0.292c-0.514-1.688-1.628-3.199-3.283-4.147c-1.198-0.695-2.519-0.977-3.81-0.936
			c0.196-1.212-0.351-2.475-1.479-3.123c-1.455-0.837-3.316-0.335-4.154,1.121c-0.279,0.488-0.4,1.023-0.39,1.551
			c-0.062-0.036-0.106-0.083-0.165-0.116c-2.128-1.225-4.847-0.492-6.071,1.637c-0.051,0.09-0.075,0.187-0.123,0.281
			c-0.224-0.261-0.484-0.495-0.795-0.677c-1.298-0.746-2.912-0.424-3.841,0.684c-0.414-0.65-0.969-1.223-1.687-1.636
			c-2.379-1.369-5.42-0.548-6.788,1.832c-0.163,0.282-0.29,0.574-0.393,0.871c-1.161,0.014-2.279,0.61-2.903,1.69
			c-0.3,0.52-0.43,1.089-0.436,1.649c-1.673-0.016-3.301,0.805-4.25,2.312c-0.317-0.328-0.661-0.628-1.077-0.865
			c-2.378-1.37-5.421-0.551-6.786,1.83c-0.589,1.023-0.753,2.165-0.577,3.246c-0.862,0.147-1.662,0.65-2.135,1.467
			c-0.253,0.438-0.367,0.91-0.39,1.38c-1.688-0.169-3.401,0.633-4.298,2.2c-0.125,0.211-0.213,0.432-0.296,0.653
			c-2.01-0.771-4.333-0.003-5.439,1.921c-0.717,1.249-0.745,2.695-0.23,3.929c-1.507,0.449-2.859,1.444-3.702,2.916
			c-0.672,1.163-0.928,2.446-0.826,3.691c-2.215-0.006-4.37,1.112-5.552,3.169c-1.755,3.05-0.704,6.95,2.348,8.706
			c0.445,0.257,0.912,0.435,1.381,0.574c-0.082,0.559-0.053,1.122,0.073,1.662c-1.396,0.124-2.716,0.898-3.469,2.207
			c-0.475,0.83-0.647,1.748-0.566,2.636c-1.599-0.068-3.184,0.717-4.04,2.205c-1.225,2.126-0.49,4.846,1.637,6.069
			c0.361,0.207,0.738,0.338,1.122,0.436c-1.427,2.664-0.501,5.997,2.137,7.51c0.661,0.381,1.361,0.607,2.074,0.701
			c-0.38,1.744,0.364,3.604,1.998,4.544c1.244,0.718,2.7,0.722,3.91,0.149c0.265,1.07,0.945,2.039,1.977,2.631
			c0.934,0.537,1.978,0.661,2.957,0.457c-0.075,1.609,0.713,3.205,2.204,4.064c0.613,0.352,1.271,0.523,1.932,0.565
			c-0.699,1.981,0.083,4.238,1.971,5.322c1.233,0.71,2.66,0.743,3.885,0.245c-0.343,2.227,0.668,4.534,2.74,5.725
			c1.698,0.977,3.689,0.961,5.32,0.145c0.286,1.566,1.211,3.004,2.696,3.861c1.979,1.137,4.353,0.928,6.09-0.327
			c0.427,1.231,1.261,2.329,2.481,3.03c2.465,1.418,5.541,0.735,7.229-1.46c0.603,1.288,1.589,2.415,2.914,3.179
			c3.146,1.808,7.062,0.955,9.232-1.822c0.247,0.209,0.506,0.405,0.799,0.572c2.494,1.438,5.621,0.719,7.294-1.543
			c0.132,0.492,0.448,0.938,0.927,1.213c0.953,0.548,2.168,0.219,2.717-0.732c0.174-0.305,0.228-0.635,0.237-0.965
			c1.083,0.037,2.156-0.501,2.736-1.51c0.52-0.902,0.521-1.961,0.101-2.834c1.522-0.249,2.922-1.111,3.813-2.494
			c0.058,0.034,0.104,0.082,0.165,0.117c3.442,1.98,7.843,0.795,9.823-2.648c1.217-2.115,1.229-4.588,0.267-6.643
			c0.616-0.375,1.164-0.889,1.548-1.561c0.939-1.633,0.717-3.609-0.396-4.996c0.388-0.161,0.742-0.418,0.969-0.813
			c0.541-0.937,0.226-2.122-0.692-2.683c0.358-0.248,0.675-0.57,0.907-0.975c0.293-0.508,0.413-1.066,0.395-1.613
			c1.205-0.245,2.308-0.971,2.967-2.121c0.48-0.834,0.65-1.758,0.563-2.646c1.571-0.551,2.971-1.617,3.867-3.173
			C351.811,219.767,350.623,215.369,347.182,213.387z M320.107,257.961c-0.067,0.027-0.133,0.063-0.199,0.099
			c0.026-0.132,0.075-0.262,0.089-0.396C320.028,257.765,320.067,257.863,320.107,257.961z"/>
		<path d="M280.182,254.799c0.286,1.566,1.211,3.004,2.696,3.861c1.979,1.137,4.353,0.928,6.09-0.327
			c0.427,1.231,1.261,2.329,2.481,3.03c2.465,1.418,5.541,0.735,7.229-1.46c0.603,1.288,1.589,2.415,2.914,3.179
			c3.146,1.808,7.062,0.955,9.232-1.822c0.247,0.209,0.506,0.405,0.799,0.572c2.494,1.438,5.621,0.719,7.294-1.543
			c0.132,0.492,0.448,0.938,0.927,1.213c0.953,0.548,2.168,0.219,2.717-0.732c0.174-0.305,0.228-0.635,0.237-0.965
			c1.083,0.037,2.156-0.501,2.736-1.51c0.52-0.902,0.521-1.961,0.101-2.834c1.522-0.249,2.922-1.111,3.813-2.494
			c0.058,0.034,0.104,0.082,0.165,0.117c3.442,1.98,7.843,0.795,9.823-2.648c1.217-2.115,1.229-4.588,0.267-6.643
			c0.616-0.375,1.164-0.889,1.548-1.561c0.939-1.633,0.717-3.609-0.396-4.996c0.388-0.161,0.742-0.418,0.969-0.813
			c0.541-0.937,0.226-2.122-0.692-2.683c0.358-0.248,0.675-0.57,0.907-0.975c0.293-0.508,0.413-1.066,0.395-1.613
			c1.205-0.245,2.308-0.971,2.967-2.121c0.48-0.834,0.65-1.758,0.563-2.646c1.571-0.551,2.971-1.617,3.867-3.173
			c1.979-3.444,0.792-7.843-2.649-9.824c-0.191-0.11-0.394-0.174-0.587-0.264c0.111-0.136,0.215-0.278,0.31-0.436
			c0.838-1.455,0.335-3.314-1.121-4.152c-0.192-0.112-0.392-0.195-0.594-0.26c0.004-0.003,0.005-0.007,0.007-0.011
			c0.819-1.421,0.748-3.095-0.015-4.421c0.216-0.159,0.406-0.359,0.546-0.605c0.548-0.952,0.217-2.167-0.731-2.715
			c-0.066-0.039-0.141-0.042-0.214-0.071c0.421-1.85-0.362-3.83-2.088-4.829c0.098-0.564,0.102-1.126,0.063-1.686
			c-25.239,7.209-78.712,22.471-97.59,27.782c0.24,0.217,0.498,0.416,0.787,0.583c0.361,0.207,0.738,0.338,1.122,0.436
			c-1.427,2.664-0.501,5.997,2.137,7.51c0.661,0.381,1.361,0.607,2.074,0.701c-0.38,1.744,0.364,3.604,1.998,4.544
			c1.244,0.718,2.7,0.722,3.91,0.149c0.265,1.07,0.945,2.039,1.977,2.631c0.934,0.537,1.978,0.661,2.957,0.457
			c-0.075,1.609,0.713,3.205,2.204,4.064c0.613,0.352,1.271,0.523,1.932,0.565c-0.699,1.981,0.083,4.238,1.971,5.322
			c1.233,0.71,2.66,0.743,3.885,0.245c-0.343,2.227,0.668,4.534,2.74,5.725C276.56,255.631,278.551,255.615,280.182,254.799z
			 M319.996,257.663c0.031,0.103,0.07,0.2,0.11,0.298c-0.067,0.027-0.133,0.063-0.199,0.099
			C319.934,257.927,319.983,257.798,319.996,257.663z"/>
		<circle cx="263.227" cy="219.146" r="5.617"/>
		<path d="M327.78,238.667c-1.224,2.13-3.938,2.862-6.067,1.638c-2.128-1.225-2.863-3.942-1.639-6.07
			c1.222-2.127,3.941-2.86,6.065-1.637C328.269,233.82,329.004,236.539,327.78,238.667z"/>
		<path d="M293.875,241.298c-1.223,2.13-3.943,2.86-6.069,1.638c-2.128-1.223-2.86-3.942-1.64-6.07
			c1.228-2.127,3.945-2.861,6.072-1.637C294.366,236.452,295.101,239.171,293.875,241.298z"/>
		<path d="M261.582,202.411c-0.547,0.951-1.763,1.278-2.715,0.73c-0.949-0.546-1.279-1.764-0.733-2.714
			c0.549-0.952,1.763-1.28,2.715-0.732S262.13,201.458,261.582,202.411z"/>
		<path d="M327.727,211.306c-0.549,0.951-1.764,1.28-2.712,0.733c-0.953-0.547-1.282-1.764-0.734-2.717
			c0.546-0.95,1.765-1.28,2.713-0.73C327.947,209.139,328.276,210.353,327.727,211.306z"/>
		<path d="M319.558,247.097c-0.548,0.951-1.762,1.279-2.712,0.731c-0.955-0.548-1.28-1.764-0.733-2.714
			c0.548-0.953,1.764-1.282,2.713-0.732C319.78,244.928,320.107,246.144,319.558,247.097z"/>
		<path d="M269.249,232.732c-0.55,0.951-1.767,1.28-2.717,0.73c-0.953-0.547-1.28-1.763-0.733-2.715
			c0.549-0.951,1.765-1.279,2.716-0.73C269.466,230.564,269.793,231.779,269.249,232.732z"/>
		<path d="M313.568,231.234c-0.545,0.951-1.764,1.279-2.717,0.732c-0.953-0.549-1.278-1.764-0.732-2.715
			c0.55-0.954,1.761-1.281,2.716-0.734C313.787,229.066,314.114,230.283,313.568,231.234z"/>
		<circle cx="288.481" cy="248.925" r="3.041"/>
		<path d="M276.365,224.344c-0.838,1.453-2.699,1.955-4.154,1.119c-1.457-0.838-1.959-2.697-1.123-4.154
			c0.84-1.457,2.701-1.957,4.155-1.119C276.701,221.025,277.203,222.885,276.365,224.344z"/>
		<path d="M301.088,246.122c-0.839,1.456-2.696,1.957-4.152,1.12c-1.455-0.836-1.957-2.697-1.119-4.153
			c0.834-1.456,2.695-1.958,4.151-1.12C301.426,242.806,301.926,244.665,301.088,246.122z"/>
		<path d="M265.936,273.341c-0.643-9.853,7.316-24.808,7.316-24.808s-1.251-1.915-2.66-3.827c-0.147,0.297-0.293,0.577-0.445,0.894
			c-9.042,18.89-9.703,36.934-6.53,48.674c1.492,5.551,3.44,10.533,5.083,14.261c2.809-4.256,9.264-10.405,9.231-13.11
			C277.81,284.49,266.819,286.94,265.936,273.341z"/>
		<path d="M295.898,261.018c-1.548,2.687-4.981,3.614-7.668,2.068c-2.688-1.547-3.613-4.979-2.067-7.669
			c1.545-2.688,4.98-3.613,7.664-2.066C296.516,254.897,297.443,258.33,295.898,261.018z"/>
		<path d="M302.564,250.951c-1.545,2.688-4.978,3.615-7.668,2.07c-2.688-1.547-3.613-4.982-2.068-7.671
			c1.548-2.687,4.979-3.612,7.667-2.066C303.184,244.83,304.112,248.264,302.564,250.951z"/>
		<path d="M322.5,251.488c-1.547,2.688-4.981,3.614-7.668,2.066c-2.687-1.545-3.614-4.979-2.067-7.665
			c1.548-2.69,4.978-3.615,7.667-2.07C323.12,245.366,324.044,248.8,322.5,251.488z"/>
		<path d="M334.059,258.138c-1.544,2.688-4.978,3.614-7.664,2.068c-2.691-1.547-3.613-4.979-2.07-7.67
			c1.546-2.688,4.979-3.613,7.67-2.065C334.679,252.016,335.608,255.45,334.059,258.138z"/>
		<circle cx="335.999" cy="258.172" r="5.616"/>
		<path d="M358.43,277.014c-1.545,2.688-4.979,3.614-7.667,2.067c-2.687-1.545-3.616-4.979-2.07-7.668
			c1.548-2.686,4.979-3.613,7.672-2.068C359.053,270.893,359.977,274.326,358.43,277.014z"/>
		<circle cx="354.085" cy="289.496" r="5.616"/>
		<path d="M297.169,265.26c-1.546,2.686-4.979,3.613-7.667,2.066c-2.689-1.545-3.614-4.979-2.069-7.668
			c1.545-2.687,4.978-3.613,7.669-2.067C297.786,259.137,298.717,262.57,297.169,265.26z"/>
		<circle cx="299.538" cy="265.949" r="5.616"/>
		<path d="M344.931,301.776c-1.546,2.688-4.979,3.616-7.667,2.068c-2.688-1.548-3.614-4.981-2.07-7.669
			c1.548-2.689,4.979-3.613,7.672-2.068C345.552,295.654,346.478,299.088,344.931,301.776z"/>
		<circle cx="323.375" cy="252.192" r="4.445"/>
		<path d="M348.481,267.445c-1.226,2.128-3.943,2.861-6.072,1.637c-2.125-1.225-2.859-3.941-1.636-6.071
			c1.22-2.126,3.943-2.86,6.071-1.636C348.969,262.597,349.702,265.316,348.481,267.445z"/>
		<path d="M354.584,269.269c-1.223,2.129-3.938,2.862-6.072,1.635c-2.124-1.222-2.856-3.939-1.637-6.068
			c1.229-2.128,3.945-2.861,6.07-1.637C355.075,264.424,355.811,267.14,354.584,269.269z"/>
		<path d="M362.371,286.705c-1.224,2.127-3.941,2.861-6.071,1.637c-2.124-1.225-2.861-3.94-1.635-6.07
			c1.222-2.127,3.941-2.861,6.069-1.637C362.864,281.86,363.595,284.578,362.371,286.705z"/>
		<circle cx="311.216" cy="288.119" r="4.445"/>
		<path d="M329.778,298.322c-1.225,2.128-3.942,2.861-6.069,1.637c-2.128-1.223-2.86-3.941-1.636-6.07
			c1.221-2.128,3.939-2.859,6.071-1.637C330.27,293.476,330.998,296.194,329.778,298.322z"/>
		<path d="M292.312,254.703c-0.549,0.951-1.768,1.279-2.718,0.734c-0.954-0.551-1.279-1.766-0.732-2.717
			c0.547-0.953,1.762-1.28,2.715-0.732C292.527,252.535,292.855,253.75,292.312,254.703z"/>
		<path d="M293.76,251.354c-0.836,1.456-2.697,1.957-4.15,1.12c-1.456-0.838-1.958-2.697-1.121-4.154
			c0.84-1.455,2.696-1.955,4.153-1.118C294.095,248.039,294.6,249.897,293.76,251.354z"/>
		<circle cx="340.645" cy="262.061" r="3.041"/>
		<path d="M361.067,280.759c-0.838,1.456-2.694,1.957-4.152,1.12c-1.455-0.838-1.958-2.699-1.121-4.152
			c0.84-1.458,2.696-1.958,4.15-1.12C361.403,277.441,361.906,279.302,361.067,280.759z"/>
		<path d="M311.298,284.927c-0.836,1.455-2.695,1.958-4.15,1.12c-1.458-0.838-1.961-2.699-1.122-4.154
			c0.836-1.455,2.697-1.957,4.151-1.121C311.636,281.611,312.137,283.469,311.298,284.927z"/>
		<path d="M334.435,299.381c-0.841,1.457-2.698,1.958-4.155,1.121c-1.455-0.838-1.958-2.699-1.119-4.154
			c0.836-1.457,2.694-1.957,4.153-1.119C334.767,296.064,335.268,297.924,334.435,299.381z"/>
		<path d="M314.379,255.05c-1.981,3.445-6.38,4.631-9.826,2.647c-3.445-1.98-4.629-6.379-2.649-9.824
			c1.984-3.443,6.38-4.631,9.823-2.646C315.174,247.205,316.36,251.605,314.379,255.05z"/>
		<path d="M311.829,279.9c-1.98,3.442-6.38,4.631-9.823,2.648c-3.449-1.98-4.631-6.379-2.653-9.824
			c1.98-3.445,6.383-4.632,9.825-2.648C312.62,272.058,313.809,276.457,311.829,279.9z"/>
		<path d="M357.148,299.896c-1.979,3.445-6.379,4.63-9.824,2.649c-3.443-1.982-4.631-6.382-2.649-9.825
			c1.977-3.442,6.377-4.632,9.825-2.648C357.943,292.052,359.129,296.452,357.148,299.896z"/>
		<path d="M323.531,297.565c-1.979,3.443-6.376,4.631-9.823,2.649c-3.442-1.982-4.628-6.38-2.648-9.826
			c1.98-3.443,6.378-4.63,9.826-2.648C324.324,289.722,325.513,294.121,323.531,297.565z"/>
		<polygon points="349.906,297.35 359.041,283.576 351.508,269.927 330.419,253.209 307.465,248.643 293.751,249.258 
			289.858,256.734 299.538,265.949 305.951,277.329 315.921,292.379 333.279,296.692 343.768,297.463 		"/>
		<path d="M351.606,283.953c-1.546,2.688-4.977,3.614-7.67,2.066c-2.685-1.545-3.616-4.979-2.068-7.666
			c1.551-2.689,4.982-3.614,7.668-2.068C352.225,277.832,353.151,281.265,351.606,283.953z"/>
		<path d="M350.799,295.095c-1.225,2.127-3.946,2.86-6.071,1.637c-2.129-1.226-2.861-3.943-1.637-6.071
			c1.219-2.128,3.938-2.86,6.07-1.636C351.287,290.25,352.018,292.968,350.799,295.095z"/>
		<circle cx="336.991" cy="266.303" r="1.638"/>
		<path d="M338.99,273.39c-0.549,0.951-1.764,1.279-2.717,0.732c-0.952-0.549-1.28-1.764-0.729-2.715
			c0.545-0.954,1.762-1.281,2.712-0.734C339.209,271.222,339.536,272.437,338.99,273.39z"/>
		<circle cx="343.979" cy="270.93" r="1.989"/>
		<path d="M340.499,288.834c-0.836,1.456-2.697,1.959-4.156,1.119c-1.454-0.837-1.956-2.696-1.118-4.152
			c0.836-1.456,2.697-1.957,4.153-1.12C340.832,285.517,341.334,287.377,340.499,288.834z"/>
		<path d="M289.39,260.717l2.25,1.363c-1.33,2.674-4.474,5.303-4.087,8.987c0.879,8.331,2.506,18.175,2.506,18.175l-24.701,19.6
			c0,0,13.039-21.672,16.078-27.598C284.714,274.831,280.473,273.404,289.39,260.717z"/>
	</g>
	<g>
		<g>
			<g>
				<g>
					<path fill="#31A24A" d="M217.467,126.914c-0.367,3.081-3.162,5.277-6.244,4.908c-3.076-0.369-5.274-3.165-4.906-6.244
						s3.167-5.277,6.246-4.906C215.639,121.041,217.839,123.836,217.467,126.914z"/>
					<path fill="#31A24A" d="M261.553,121.36c-0.37,3.079-3.163,5.277-6.244,4.908c-3.08-0.369-5.276-3.165-4.905-6.245
						c0.366-3.08,3.162-5.275,6.242-4.906C259.723,115.485,261.924,118.281,261.553,121.36z"/>
					<path fill="#31A24A" d="M251.797,120.191c-0.371,3.08-3.167,5.277-6.248,4.908c-3.074-0.37-5.273-3.166-4.905-6.245
						c0.371-3.079,3.167-5.275,6.246-4.907C249.969,114.317,252.166,117.111,251.797,120.191z"/>
					<circle fill="#31A24A" cx="218.302" cy="116.529" r="5.617"/>
					<path fill="#31A24A" d="M215.617,121.216c-0.294,2.436-2.503,4.175-4.944,3.883c-2.436-0.292-4.176-2.504-3.884-4.943
						c0.292-2.436,2.508-4.177,4.943-3.885C214.172,116.562,215.91,118.777,215.617,121.216z"/>
					<path fill="#31A24A" d="M253.395,110.308c-0.132,1.091-1.122,1.869-2.214,1.737c-1.09-0.129-1.865-1.12-1.737-2.21
						c0.129-1.09,1.121-1.869,2.213-1.737C252.744,108.229,253.523,109.218,253.395,110.308z"/>
					<path fill="#31A24A" d="M214.899,106.577c-0.129,1.09-1.12,1.869-2.209,1.736c-1.093-0.129-1.869-1.119-1.737-2.209
						c0.129-1.091,1.12-1.868,2.21-1.738C214.252,104.497,215.032,105.486,214.899,106.577z"/>
					<path fill="#31A24A" d="M211.202,112.848c-0.201,1.668-1.711,2.859-3.385,2.66c-1.664-0.201-2.856-1.716-2.655-3.384
						c0.2-1.667,1.713-2.856,3.383-2.657C210.211,109.668,211.401,111.182,211.202,112.848z"/>
					<path fill="#31A24A" d="M246.1,114.617c-0.199,1.668-1.712,2.858-3.379,2.658c-1.672-0.199-2.86-1.715-2.662-3.381
						c0.202-1.668,1.716-2.858,3.384-2.658C245.111,111.436,246.299,112.95,246.1,114.617z"/>
					<circle fill="#31A24A" cx="255.068" cy="127.299" r="7.195"/>
					<path fill="#31A24A" d="M242.095,115.611c-0.474,3.946-4.056,6.761-8.002,6.289c-3.943-0.474-6.759-4.057-6.288-8
						c0.477-3.944,4.056-6.76,8.004-6.288C239.754,108.084,242.566,111.666,242.095,115.611z"/>
					<circle fill="#31A24A" cx="224.723" cy="109.641" r="7.195"/>
					<polygon fill="#31A24A" points="210.108,131.806 235.689,147.65 256.828,134.225 255.924,120.156 224.922,108.487 
						215.22,118.634 					"/>
				</g>
				<g>
					<path fill="#67C34D" d="M226.737,220.698c0,0,2.934-5.604,3.911-10.562c0.977-4.956,3.242-7.453,7.771-12.449
						c4.525-4.994,7.715-18.306,7.715-18.306l-5.65-0.868c0,0-2.076,10.289-4.741,12.496c-2.669,2.206-8.731,8.693-9.364,13.595
						C225.746,209.506,226.737,220.698,226.737,220.698z"/>
				</g>
				<g>
					<path fill="#31A24A" d="M233.156,178.273c0,0-1.591,13.237,1.216,25.405c1.55,6.72,1.169,15.441,1.169,15.441
						s7.485-0.128,7.721-10.124c0.234-9.999-5.861-11.759-6.081-18.656c-0.224-6.894-0.304-12.133-0.304-12.133L233.156,178.273z"/>
				</g>
				<g>
					<path fill="#31A24A" d="M248.7,179.857l7.817-0.014c0,0-3.88,30.388-6.041,47.162c-0.484,3.764-0.882,6.842-1.131,8.736
						c-1.352,10.351-4.141,34.972-4.141,34.972l-38.677,5.02l2.111-22.354c0,0,12.595-25.55,19.937-28.509
						c7.343-2.961,14.231-17.58,15.57-24.726C245.481,192.995,248.7,179.857,248.7,179.857z"/>
				</g>
				<g>
					<path fill="#9BE770" d="M203.073,182.409c0.493-0.258,3.086,0.391,3.086,0.391s-0.058,5.164,1.769,8.779
						c1.826,3.615,5.705,6.725,5.705,6.725l-0.557,12c0,0-6.993-8.117-8.48-16.231C203.114,185.957,203.073,182.409,203.073,182.409
						z"/>
				</g>
				<g>
					<path fill="#9BE770" d="M213.769,183.707l13.804-2.579c0,0-0.745,20.738-0.763,29.45c-0.021,8.712,1.36,36.04-5.709,41.801
						c-7.071,5.76-12.664,5.239-12.664,5.239L213.769,183.707z"/>
				</g>
				<g>
					<path fill="#67C34D" d="M230.67,280.773c-1.818,0-3.675-0.237-5.095-0.652c-1.357-0.398-2.82-0.59-4.475-0.59
						c-2.094,0-4.171,0.314-6.002,0.594c-1.521,0.23-2.959,0.449-4.155,0.449h-0.001c-1.958,0-3.005-0.586-3.499-1.96
						c-0.608-1.689-0.67-2.978-0.187-3.94c0.841-1.668,3.285-2.405,6.382-3.338c3.942-1.188,8.849-2.666,12.702-6.841
						c2.842-3.082,6.52-4.851,10.087-4.851c2.807,0,5.31,1.105,6.87,3.031c1.647,2.035,2.163,4.784,1.49,7.949
						C242.84,279.785,234.266,280.773,230.67,280.773z"/>
					<path fill="#31A24A" d="M236.428,260.072c2.677,0,5.06,1.047,6.538,2.872c1.564,1.932,2.05,4.557,1.404,7.593
						c-1.884,8.854-10.208,9.811-13.7,9.811c-1.78,0-3.593-0.232-4.974-0.637c-1.397-0.408-2.9-0.607-4.596-0.607
						c-2.127,0-4.22,0.318-6.066,0.6c-1.505,0.229-2.927,0.445-4.092,0.445c-1.771,0-2.669-0.487-3.099-1.68
						c-0.566-1.572-0.634-2.75-0.206-3.602c0.759-1.506,3.127-2.221,6.124-3.123c3.992-1.203,8.96-2.699,12.894-6.96
						C229.416,261.789,232.979,260.072,236.428,260.072 M236.428,259.219c-3.413,0-7.232,1.551-10.4,4.986
						c-8.522,9.235-22.418,5.033-18.985,14.553c0.623,1.733,2.022,2.243,3.9,2.243c2.689,0,6.361-1.044,10.158-1.044
						c1.45,0,2.917,0.152,4.355,0.572c1.298,0.381,3.151,0.672,5.214,0.672c5.605,0,12.761-2.146,14.535-10.487
						C246.724,263.569,242.145,259.219,236.428,259.219L236.428,259.219z"/>
				</g>
				<g>
					<path fill="#9BE770" d="M270.782,177.792c-0.764,2.333-3.274,3.605-5.61,2.841c-2.33-0.762-3.602-3.273-2.842-5.606
						c0.767-2.333,3.275-3.607,5.609-2.842C270.272,172.948,271.547,175.459,270.782,177.792z"/>
					<circle fill="#9BE770" cx="259.966" cy="178.458" r="4.446"/>
					<path fill="#9BE770" d="M249.595,174.026c0.631,3.923-2.038,7.615-5.961,8.248c-3.92,0.63-7.611-2.039-8.244-5.959
						c-0.634-3.923,2.034-7.617,5.958-8.249C245.269,167.434,248.964,170.103,249.595,174.026z"/>
					<circle fill="#9BE770" cx="251.533" cy="178.335" r="7.193"/>
					<path fill="#9BE770" d="M249.738,137.387c0.631,3.922-2.037,7.615-5.961,8.248c-3.921,0.631-7.613-2.036-8.249-5.958
						c-0.631-3.923,2.037-7.616,5.961-8.247S249.105,133.465,249.738,137.387z"/>
					<circle fill="#9BE770" cx="282.327" cy="136.005" r="5.616"/>
					<circle fill="#9BE770" cx="293.073" cy="152.816" r="5.617"/>
					<path fill="#9BE770" d="M292.491,168.136c-0.966,2.947-4.139,4.555-7.083,3.59c-2.949-0.964-4.558-4.136-3.592-7.082
						c0.965-2.949,4.137-4.556,7.085-3.593C291.846,162.017,293.456,165.188,292.491,168.136z"/>
					<path fill="#9BE770" d="M278.116,178.203c-0.964,2.947-4.136,4.554-7.082,3.59c-2.948-0.964-4.556-4.136-3.59-7.083
						c0.963-2.949,4.134-4.554,7.08-3.59C277.475,172.084,279.079,175.257,278.116,178.203z"/>
					<path fill="#9BE770" d="M241.703,147.095c0.49,3.062-1.59,5.943-4.653,6.437c-3.06,0.492-5.941-1.59-6.434-4.651
						c-0.497-3.062,1.585-5.944,4.646-6.437C238.325,141.951,241.208,144.033,241.703,147.095z"/>
					<path fill="#9BE770" d="M239.919,166.935c0.495,3.06-1.588,5.942-4.65,6.436c-3.06,0.494-5.944-1.588-6.437-4.65
						c-0.49-3.063,1.591-5.944,4.652-6.438C236.543,161.79,239.428,163.872,239.919,166.935z"/>
					<circle fill="#9BE770" cx="234.878" cy="155.126" r="4.444"/>
					<path fill="#9BE770" d="M259.713,129.086c0.393,2.424-1.259,4.705-3.683,5.096c-2.422,0.39-4.704-1.26-5.094-3.683
						c-0.391-2.422,1.257-4.705,3.683-5.096C257.041,125.013,259.324,126.662,259.713,129.086z"/>
					<path fill="#9BE770" d="M285.082,173.652c-0.762,2.333-3.274,3.605-5.605,2.841c-2.335-0.763-3.606-3.274-2.847-5.608
						c0.767-2.331,3.277-3.605,5.61-2.842C284.573,168.807,285.845,171.319,285.082,173.652z"/>
					<path fill="#9BE770" d="M303.682,164.526c-0.762,2.332-3.274,3.607-5.604,2.841c-2.335-0.762-3.607-3.274-2.845-5.607
						c0.763-2.332,3.274-3.604,5.609-2.841C303.175,159.682,304.448,162.194,303.682,164.526z"/>
					<circle fill="#9BE770" cx="250.005" cy="132.072" r="4.446"/>
					<path fill="#9BE770" d="M296.276,146.417c-0.344,1.044-1.467,1.613-2.511,1.271c-1.041-0.341-1.614-1.464-1.269-2.509
						c0.34-1.043,1.462-1.612,2.507-1.27C296.047,144.251,296.615,145.375,296.276,146.417z"/>
					<circle fill="#9BE770" cx="292.864" cy="132.431" r="1.988"/>
					<path fill="#9BE770" d="M304.227,154.81c-0.339,1.043-1.461,1.612-2.505,1.27c-1.043-0.341-1.612-1.463-1.274-2.508
						c0.346-1.044,1.467-1.612,2.513-1.271C304.002,152.643,304.57,153.767,304.227,154.81z"/>
					<path fill="#9BE770" d="M247.069,160.569c0.634,3.922-2.032,7.614-5.955,8.247c-3.924,0.633-7.617-2.037-8.248-5.958
						c-0.633-3.923,2.037-7.616,5.96-8.25C242.746,153.978,246.44,156.646,247.069,160.569z"/>
					<path fill="#9BE770" d="M284.629,167.7c-1.236,3.777-5.302,5.836-9.077,4.6c-3.776-1.236-5.834-5.299-4.597-9.075
						c1.235-3.777,5.298-5.835,9.075-4.6C283.802,159.862,285.863,163.924,284.629,167.7z"/>
					<path fill="#9BE770" d="M270.162,134.261c-1.238,3.775-5.298,5.836-9.075,4.598c-3.776-1.234-5.834-5.299-4.602-9.075
						c1.239-3.776,5.301-5.836,9.078-4.6C269.34,126.421,271.399,130.486,270.162,134.261z"/>
					<path fill="#9BE770" d="M280.406,136.608c-1.235,3.776-5.301,5.836-9.075,4.601c-3.775-1.238-5.833-5.302-4.597-9.076
						c1.233-3.776,5.298-5.837,9.073-4.601C279.583,128.768,281.642,132.831,280.406,136.608z"/>
					<path fill="#9BE770" d="M294.552,146.039c-1.233,3.776-5.298,5.836-9.077,4.6c-3.774-1.236-5.834-5.3-4.598-9.077
						c1.235-3.777,5.3-5.836,9.076-4.6C293.73,138.198,295.791,142.262,294.552,146.039z"/>
					<circle fill="#9BE770" cx="287.35" cy="158.453" r="7.194"/>
					<polygon fill="#9BE770" points="242.491,175.169 258.634,177.19 269.889,176.799 283.449,166.085 291.598,152.685 
						289.469,141.653 269.037,131.79 250.937,130.499 242.223,139.666 236.096,152.383 					"/>
				</g>
				<g>
					<path fill="#67C34D" d="M185.17,134.162c2.424-0.391,4.071-2.673,3.684-5.097c-0.393-2.423-2.673-4.072-5.1-3.681
						c-2.422,0.39-4.071,2.673-3.679,5.095C180.464,132.904,182.748,134.551,185.17,134.162z"/>
					<path fill="#67C34D" d="M171.277,144.28c1.658-0.267,2.785-1.828,2.521-3.487c-0.27-1.658-1.831-2.785-3.488-2.519
						c-1.656,0.268-2.787,1.828-2.517,3.486C168.056,143.419,169.617,144.547,171.277,144.28z"/>
					<circle fill="#67C34D" cx="168.539" cy="173.634" r="1.988"/>
					<circle fill="#67C34D" cx="175.924" cy="182.694" r="2.735"/>
					<path fill="#67C34D" d="M246.869,154.912c-0.629-3.922-4.321-6.589-8.244-5.958c-0.103,0.018-0.193,0.059-0.297,0.078
						c0.011-0.416-0.003-0.837-0.074-1.263c-0.051-0.329-0.153-0.634-0.25-0.945c2.586-1.426,4.141-4.34,3.644-7.422
						c-0.631-3.923-4.326-6.591-8.247-5.958c-0.006,0-0.012,0.003-0.02,0.003c-0.799-2.643-3.435-4.365-6.239-3.914
						c-2.014,0.325-3.583,1.687-4.295,3.447c-1.027-2.237-3.429-3.625-5.977-3.214c-1.446,0.234-2.657,1.008-3.5,2.074
						c-0.295-0.07-0.6-0.104-0.902-0.127c-0.008-0.114-0.001-0.229-0.02-0.345c-0.268-1.658-1.829-2.786-3.487-2.519
						c-0.428,0.068-0.812,0.223-1.15,0.44c-0.013-0.124-0.002-0.246-0.021-0.369c-0.393-2.425-2.675-4.073-5.098-3.683
						c-0.969,0.157-1.809,0.626-2.448,1.277c-0.937-1.413-2.631-2.235-4.416-1.948c-2.425,0.39-4.073,2.672-3.683,5.095
						c0.122,0.738,0.43,1.391,0.851,1.949c-0.523-0.033-1.053-0.02-1.589,0.067c-2.766,0.444-4.877,2.424-5.682,4.919
						c-1.235-1.323-3.083-2.027-5.002-1.718c-3.06,0.493-5.142,3.375-4.65,6.437c0.268,1.666,1.256,3.022,2.582,3.851
						c-0.854,0.311-1.501,0.99-1.8,1.818c-0.079-0.033-0.146-0.083-0.226-0.113c-3.717-1.409-7.87,0.46-9.278,4.175
						c-1.153,3.034-0.092,6.334,2.35,8.22c-1.246,0.604-2.282,1.656-2.811,3.054c-1.104,2.897,0.355,6.142,3.253,7.242
						c0.942,0.357,1.914,0.42,2.84,0.277c-0.863,2.29,0.29,4.852,2.579,5.72c1.012,0.383,2.06,0.356,3.006,0.033
						c-0.362,3.19,1.435,6.344,4.574,7.535c1.35,0.512,2.755,0.582,4.069,0.295c0.843,2.58,3.442,4.247,6.208,3.801
						c0.897-0.144,1.691-0.51,2.38-1.007c0.648,0.894,1.762,1.407,2.93,1.218c1.361-0.218,2.351-1.313,2.519-2.614
						c1.22,1.537,3.194,2.404,5.274,2.071c1.551-0.25,2.845-1.116,3.686-2.304c0.907,1.513,2.666,2.406,4.516,2.109
						c1.363-0.22,2.466-1.049,3.116-2.156c0.775,1.841,2.724,2.992,4.787,2.66c2.05-0.331,3.53-2.018,3.708-3.995
						c1.577,1.717,3.957,2.64,6.438,2.241c3.92-0.631,6.589-4.323,5.956-8.246c-0.114-0.71-0.356-1.361-0.654-1.975
						c3.237-1.125,5.311-4.427,4.75-7.927c-0.268-1.653-1.099-3.062-2.242-4.116c0.11-0.013,0.216-0.003,0.328-0.022
						C244.837,162.528,247.504,158.835,246.869,154.912z"/>
					<path fill="#31A24A" d="M238.625,148.953c-0.103,0.018-0.193,0.059-0.297,0.078c0.011-0.416-0.003-0.837-0.074-1.263
						c-0.051-0.329-0.153-0.634-0.25-0.945c2.586-1.426,4.141-4.34,3.644-7.422c-0.631-3.923-4.326-6.591-8.247-5.958
						c-0.006,0-0.012,0.003-0.02,0.003c-0.799-2.643-3.435-4.365-6.239-3.914c-2.014,0.325-3.583,1.687-4.295,3.447
						c-0.87-1.896-2.732-3.172-4.835-3.269c-5.901,16.254-16.285,44.65-20.985,57.493c0.52,0.23,1.101,0.326,1.702,0.228
						c1.361-0.218,2.351-1.313,2.519-2.614c1.22,1.537,3.194,2.404,5.274,2.071c1.551-0.25,2.845-1.116,3.686-2.304
						c0.907,1.513,2.666,2.406,4.516,2.109c1.363-0.22,2.466-1.049,3.116-2.156c0.775,1.841,2.724,2.992,4.787,2.66
						c2.05-0.331,3.53-2.018,3.708-3.995c1.577,1.717,3.957,2.64,6.438,2.241c3.92-0.631,6.589-4.323,5.956-8.246
						c-0.114-0.71-0.356-1.361-0.654-1.975c3.237-1.125,5.311-4.427,4.75-7.927c-0.268-1.653-1.099-3.062-2.242-4.116
						c0.11-0.013,0.216-0.003,0.328-0.022c3.927-0.631,6.594-4.324,5.959-8.247C246.24,150.99,242.548,148.323,238.625,148.953z"/>
				</g>
				<path fill="#67C34D" d="M222.662,182.046c-0.105,7.337,2.679,51.911-2.565,60.235c-3.978,6.318-8.742,8.273-11.243,9.055
					l-0.627,6.432c0,0,5.803,0.372,12.874-5.388c7.069-5.762,5.688-33.089,5.709-41.801c0.018-8.712,0.763-29.45,0.763-29.45
					L222.662,182.046z"/>
				<path fill="#31A24A" d="M253.558,194.728c0,0,5.089-0.704,8.245-6.318c3.16-5.615,4.038-9.476,4.038-9.476h1.405
					c0,0-0.354,9.651-5.092,15.266c-3.449,4.088-9.828,8.248-9.828,8.248L253.558,194.728z"/>
				<path fill="#9BE770" d="M236.578,118.484c0.145,0.895-0.467,1.737-1.36,1.881c-0.896,0.144-1.738-0.464-1.882-1.358
					c-0.146-0.897,0.465-1.739,1.358-1.884C235.591,116.98,236.433,117.587,236.578,118.484z"/>
				<path fill="#31A24A" d="M186.701,156.994c0.388,2.423-1.259,4.704-3.684,5.094c-2.42,0.391-4.703-1.257-5.094-3.681
					c-0.393-2.422,1.258-4.703,3.681-5.093C184.03,152.922,186.31,154.573,186.701,156.994z"/>
				<path fill="#31A24A" d="M290.583,162.609c0.395,2.424-1.256,4.705-3.68,5.095c-2.425,0.39-4.708-1.256-5.096-3.681
					c-0.39-2.422,1.26-4.705,3.681-5.095C287.911,158.537,290.196,160.187,290.583,162.609z"/>
				<path fill="#31A24A" d="M184.014,167.141c0.211,1.327-0.69,2.575-2.019,2.789c-1.325,0.214-2.572-0.688-2.79-2.014
					c-0.213-1.33,0.693-2.579,2.018-2.792C182.551,164.911,183.797,165.813,184.014,167.141z"/>
				<path fill="#31A24A" d="M194.189,163.87c0.274,1.714-0.891,3.324-2.603,3.6c-1.713,0.276-3.327-0.89-3.6-2.602
					c-0.277-1.711,0.889-3.324,2.597-3.599C192.299,160.992,193.912,162.157,194.189,163.87z"/>
				<path fill="#31A24A" d="M280.172,161.764c0.276,1.712-0.889,3.325-2.6,3.601c-1.713,0.274-3.327-0.891-3.604-2.603
					c-0.273-1.712,0.894-3.324,2.602-3.601C278.284,158.887,279.897,160.052,280.172,161.764z"/>
				<circle fill="#31A24A" cx="190.736" cy="174.196" r="1.587"/>
				<path fill="#31A24A" d="M175.953,162.339c0.153,0.946-0.492,1.837-1.44,1.99c-0.941,0.153-1.835-0.492-1.988-1.438
					c-0.149-0.946,0.493-1.838,1.438-1.991C174.908,160.748,175.802,161.393,175.953,162.339z"/>
				<circle fill="#31A24A" cx="190.736" cy="156.648" r="1.737"/>
				<circle fill="#31A24A" cx="285.493" cy="151.735" r="1.736"/>
				<circle fill="#31A24A" cx="277.069" cy="168.581" r="1.736"/>
				<circle fill="#31A24A" cx="270.05" cy="168.581" r="1.737"/>
				<path fill="#9BE770" d="M246.381,120.366c0.269,1.657-0.859,3.22-2.517,3.487c-1.661,0.266-3.222-0.862-3.49-2.52
					c-0.265-1.658,0.862-3.22,2.522-3.486C244.551,117.581,246.115,118.708,246.381,120.366z"/>
				<path fill="#9BE770" d="M238.673,125.096c0.175,1.084-0.563,2.103-1.646,2.278c-1.083,0.176-2.104-0.563-2.278-1.646
					c-0.177-1.084,0.563-2.105,1.645-2.281C237.48,123.275,238.501,124.011,238.673,125.096z"/>
			</g>
			<g>
				<g>
					<g>
						<circle fill="#31A24A" cx="107.503" cy="271.215" r="5.615"/>
						<path fill="#31A24A" d="M122.098,223.496c2.699,1.525,3.653,4.951,2.126,7.652c-1.525,2.699-4.95,3.652-7.651,2.127
							c-2.697-1.525-3.649-4.95-2.125-7.65C115.97,222.923,119.399,221.97,122.098,223.496z"/>
						<circle fill="#31A24A" cx="114.502" cy="236.941" r="5.615"/>
						<path fill="#31A24A" d="M103.764,256.672c2.698,1.524,3.652,4.951,2.124,7.651c-1.523,2.7-4.95,3.651-7.65,2.127
							s-3.652-4.951-2.128-7.65C97.634,256.099,101.059,255.146,103.764,256.672z"/>
						<circle fill="#31A24A" cx="102.105" cy="269.712" r="4.446"/>
						<circle fill="#31A24A" cx="107.779" cy="228.509" r="1.989"/>
						<path fill="#31A24A" d="M90.505,260.873c0.956,0.54,1.295,1.754,0.755,2.709c-0.541,0.957-1.756,1.293-2.711,0.752
							c-0.958-0.537-1.293-1.753-0.756-2.707C88.335,260.67,89.549,260.333,90.505,260.873z"/>
						<circle fill="#31A24A" cx="93.376" cy="269.348" r="3.04"/>
						<circle fill="#31A24A" cx="108.433" cy="237.814" r="3.042"/>
						<path fill="#31A24A" d="M128.623,225.504c3.458,1.953,4.682,6.344,2.724,9.801c-1.952,3.463-6.344,4.682-9.803,2.728
							c-3.458-1.954-4.681-6.343-2.724-9.803C120.774,224.768,125.16,223.548,128.623,225.504z"/>
						<path fill="#31A24A" d="M109.303,239.246c3.46,1.953,4.684,6.344,2.726,9.803c-1.951,3.461-6.342,4.68-9.802,2.727
							c-3.46-1.955-4.68-6.343-2.725-9.805C101.455,238.511,105.846,237.292,109.303,239.246z"/>
						<circle fill="#31A24A" cx="97.111" cy="252.982" r="7.194"/>
						<polygon fill="#31A24A" points="111.948,275.003 136.412,257.484 132.158,232.806 118.821,228.229 96.121,252.357 
							101.757,265.215 						"/>
					</g>
					<circle fill="#9BE770" cx="109.453" cy="247.04" r="1.642"/>
					<circle fill="#9BE770" cx="114.634" cy="240.076" r="3.042"/>
					<path fill="#9BE770" d="M116.744,246.052c1.069,0.256,1.725,1.328,1.469,2.396c-0.255,1.068-1.328,1.727-2.395,1.471
						c-1.07-0.255-1.728-1.329-1.472-2.397C114.603,246.455,115.675,245.797,116.744,246.052z"/>
				</g>
				<g>
					<path fill="#67C34D" d="M184.793,291.144c0,0-3.091-3.714-6.302-5.863c-3.211-2.148-4.309-4.479-6.502-9.145
						c-2.192-4.663-10.649-10.828-10.649-10.828l-2.273,3.731c0,0,6.651,4.49,7.423,7.022c0.774,2.527,3.568,8.716,6.842,10.604
						C176.603,288.554,184.793,291.144,184.793,291.144z"/>
				</g>
				<g>
					<path fill="#31A24A" d="M158.076,270.521c0,0,11.603,6.562,23.912,8.65c6.799,1.154,14.703,4.861,14.703,4.861
						s2.765-6.957-6.377-11.021c-9.136-4.063-13.106,0.884-19.558-1.563c-6.447-2.446-11.313-4.389-11.313-4.389L158.076,270.521z"
						/>
				</g>
				<g>
					<path fill="#31A24A" d="M151.811,255.072l7.319-12.205c0,0,26.56,15.272,41.212,23.719c3.285,1.895,5.975,3.444,7.629,4.402
						c9.029,5.232,13.648,7.971,13.648,7.971l-14.265,36.334l-19.825-10.549c0,0,2.322-10.85,2.413-18.766
						c0.093-7.917-15.079-14.918-21.162-18.9C162.696,263.094,151.811,255.072,151.811,255.072z"/>
				</g>
				<g>
					<path fill="#67C34D" d="M140.944,293.185c-0.05-0.554,1.547-2.698,1.547-2.698s4.741,2.038,8.782,1.745
						c4.041-0.295,8.404-2.679,8.404-2.679l10.859,5.126c0,0-10.182,3.336-18.243,1.586
						C144.233,294.513,140.944,293.185,140.944,293.185z"/>
				</g>
				<g>
					<path fill="#67C34D" d="M146.253,283.81l2.93-13.732c0,0,12.84,8.595,24.636,9.238c11.896,0.648,16.359-4.588,38.459,5.637
						l-3.445,31.092L146.253,283.81z"/>
				</g>
				<g>
					<path fill="#9BE770" d="M209.842,315.574c-3.649,0-6.703-2.553-8.17-6.828c-1.727-5.027-0.987-12.459,4.713-16.896
						c3.81-2.965,5.683-6.494,7.189-9.329c1.351-2.543,2.326-4.382,4.035-4.429l0.306-0.005c2.935,0,5.193,1.261,6.198,3.46
						c1.241,2.719,0.423,6.245-2.14,9.202c-2.225,2.564-3.088,7.131-3.924,11.546c-1.26,6.662-2.45,12.953-7.732,13.266
						C210.157,315.569,209.999,315.574,209.842,315.574L209.842,315.574z"/>
					<path fill="#67C34D" d="M217.915,278.513c2.801,0,4.864,1.141,5.811,3.211c1.153,2.525,0.339,5.959-2.074,8.745
						c-2.3,2.651-3.175,7.274-4.021,11.747c-1.228,6.492-2.389,12.625-7.339,12.918c-0.151,0.008-0.302,0.013-0.45,0.013
						c-3.458,0-6.361-2.444-7.767-6.538c-1.679-4.889-0.965-12.114,4.571-16.424c3.881-3.021,5.779-6.594,7.304-9.465
						c1.412-2.658,2.278-4.164,3.671-4.203C217.721,278.515,217.819,278.513,217.915,278.513 M217.915,277.66
						c-0.105,0-0.21,0.002-0.318,0.005c-3.999,0.112-4.157,8.151-11.474,13.848c-9.75,7.589-6.012,24.487,3.719,24.487
						c0.165,0,0.331-0.004,0.5-0.014c9.386-0.554,6.604-18.79,11.954-24.957C227.369,285.171,225.351,277.66,217.915,277.66
						L217.915,277.66z"/>
				</g>
				<g>
					<path fill="#67C34D" d="M171.818,248.513c0.966,2.258-0.08,4.87-2.341,5.835c-2.254,0.964-4.866-0.083-5.832-2.343
						c-0.965-2.255,0.085-4.868,2.339-5.832C168.24,245.21,170.857,246.256,171.818,248.513z"/>
					<circle fill="#67C34D" cx="164.128" cy="256.147" r="4.446"/>
					<path fill="#67C34D" d="M153.408,259.657c3.063,2.53,3.493,7.065,0.964,10.129c-2.532,3.063-7.07,3.491-10.131,0.96
						s-3.492-7.065-0.961-10.129C145.814,257.554,150.349,257.127,153.408,259.657z"/>
					<path fill="#67C34D" d="M162.294,256.072c3.062,2.53,3.49,7.068,0.96,10.127c-2.53,3.064-7.069,3.495-10.129,0.962
						c-3.063-2.53-3.494-7.066-0.961-10.128C154.698,253.97,159.23,253.541,162.294,256.072z"/>
					<path fill="#67C34D" d="M129.354,232.024c3.062,2.529,3.493,7.067,0.958,10.13c-2.529,3.063-7.066,3.491-10.128,0.959
						c-3.062-2.531-3.492-7.066-0.962-10.129C121.756,229.922,126.289,229.492,129.354,232.024z"/>
					<path fill="#67C34D" d="M158.099,207.283c1.219,2.852-0.105,6.151-2.955,7.37c-2.851,1.22-6.15-0.104-7.369-2.958
						c-1.218-2.849,0.106-6.149,2.954-7.368C153.58,203.108,156.883,204.431,158.099,207.283z"/>
					<circle fill="#67C34D" cx="172.1" cy="215.038" r="5.615"/>
					<circle fill="#67C34D" cx="176.606" cy="229.145" r="5.615"/>
					<circle fill="#67C34D" cx="172.442" cy="246.191" r="5.616"/>
					<circle fill="#67C34D" cx="126.138" cy="248.947" r="5.615"/>
					<path fill="#67C34D" d="M141.462,260.705c2.389,1.978,2.724,5.516,0.748,7.907c-1.973,2.39-5.513,2.726-7.906,0.749
						c-2.386-1.977-2.724-5.516-0.749-7.906C135.534,259.065,139.072,258.73,141.462,260.705z"/>
					<circle fill="#67C34D" cx="129.883" cy="255.156" r="4.446"/>
					<path fill="#67C34D" d="M131.377,219.202c1.892,1.564,2.156,4.368,0.594,6.259c-1.565,1.892-4.369,2.156-6.259,0.593
						c-1.895-1.564-2.156-4.368-0.592-6.258C126.682,217.904,129.485,217.639,131.377,219.202z"/>
					<path fill="#67C34D" d="M179.838,235.97c0.965,2.255-0.083,4.867-2.342,5.832c-2.257,0.966-4.867-0.084-5.834-2.338
						c-0.963-2.26,0.085-4.872,2.341-5.836C176.262,232.664,178.874,233.712,179.838,235.97z"/>
					<path fill="#67C34D" d="M187.8,216.843c0.966,2.257-0.081,4.87-2.339,5.833c-2.259,0.967-4.87-0.083-5.836-2.34
						c-0.963-2.257,0.085-4.869,2.342-5.834C184.225,213.537,186.838,214.585,187.8,216.843z"/>
					<path fill="#67C34D" d="M128.878,224.425c1.894,1.564,2.16,4.366,0.598,6.259c-1.566,1.893-4.369,2.158-6.26,0.592
						c-1.893-1.563-2.156-4.365-0.594-6.257C124.185,223.126,126.99,222.861,128.878,224.425z"/>
					<path fill="#67C34D" d="M170.289,208.117c0.432,1.009-0.039,2.178-1.047,2.61c-1.011,0.432-2.177-0.038-2.612-1.048
						c-0.428-1.01,0.04-2.178,1.051-2.609C168.689,206.638,169.855,207.107,170.289,208.117z"/>
					<path fill="#67C34D" d="M160.328,199.073c0.432,1.01-0.036,2.178-1.048,2.61c-1.007,0.431-2.177-0.038-2.609-1.049
						c-0.43-1.009,0.04-2.177,1.052-2.608C158.729,197.593,159.899,198.062,160.328,199.073z"/>
					<path fill="#67C34D" d="M181.801,209.179c0.434,1.01-0.035,2.177-1.044,2.609c-1.012,0.431-2.179-0.039-2.609-1.048
						c-0.432-1.008,0.036-2.178,1.048-2.608C180.203,207.7,181.372,208.168,181.801,209.179z"/>
					<circle fill="#67C34D" cx="138.053" cy="256.75" r="7.195"/>
					<path fill="#67C34D" d="M175.572,231.797c1.562,3.652-0.137,7.881-3.787,9.443c-3.658,1.561-7.882-0.137-9.444-3.79
						c-1.563-3.651,0.135-7.88,3.789-9.442C169.782,226.447,174.01,228.141,175.572,231.797z"/>
					<path fill="#67C34D" d="M142.642,216.201c1.562,3.652-0.135,7.881-3.785,9.442c-3.654,1.563-7.884-0.134-9.446-3.788
						c-1.562-3.652,0.135-7.88,3.79-9.443C136.855,210.85,141.083,212.548,142.642,216.201z"/>
					<path fill="#67C34D" d="M151.892,211.21c1.56,3.654-0.135,7.881-3.787,9.444c-3.654,1.561-7.884-0.137-9.445-3.791
						c-1.558-3.652,0.136-7.882,3.791-9.442C146.101,205.86,150.328,207.555,151.892,211.21z"/>
					<circle fill="#67C34D" cx="162.13" cy="211.794" r="7.194"/>
					<circle fill="#67C34D" cx="171.519" cy="223.049" r="7.195"/>
					<polygon fill="#67C34D" points="148.827,265.199 162.294,256.072 170.493,248.353 173.619,231.359 170.909,215.911 
						162.03,209.026 140.169,215.085 125.712,226.054 125.208,238.69 128.989,252.293 					"/>
				</g>
				<path fill="#31A24A" d="M185.842,261.26c0,0,1.31-4.968-2.66-10.042c-3.968-5.076-7.191-7.372-7.191-7.372l0.538-1.296
					c0,0,8.774,4.037,12.136,10.57c2.446,4.756,3.832,12.243,3.832,12.243L185.842,261.26z"/>
				<circle fill="#31A24A" cx="165.517" cy="217.429" r="4.445"/>
				<circle fill="#31A24A" cx="150.812" cy="217.132" r="3.14"/>
				<g>
					<g>
						<polyline fill="#9BE770" points="138.451,307.118 148.945,300.969 152.64,296.082 149.43,289.177 147.164,280.627 
							153.157,271.719 157.177,263.605 138.958,258.957 130.481,259.227 120.132,259.73 116.639,263.85 112.073,265.07 
							104.115,269.658 100.53,277.343 105.363,284.034 104.78,293.998 111.746,301.08 114.284,308.546 122.766,313.826 
							137.345,307.213 						"/>
						<g>
							<circle fill="#9BE770" cx="114.198" cy="266.24" r="5.616"/>
							<path fill="#9BE770" d="M120.858,255.543c3.017,0.723,4.874,3.754,4.154,6.77c-0.725,3.017-3.757,4.875-6.771,4.151
								c-3.015-0.72-4.873-3.753-4.15-6.768C114.811,256.68,117.844,254.819,120.858,255.543z"/>
							<path fill="#9BE770" d="M106.687,290.064c3.013,0.722,4.874,3.754,4.151,6.77c-0.724,3.016-3.753,4.875-6.771,4.151
								c-3.014-0.723-4.875-3.752-4.152-6.769C100.641,291.2,103.668,289.342,106.687,290.064z"/>
							<circle fill="#9BE770" cx="123.781" cy="313.465" r="5.616"/>
							<path fill="#9BE770" d="M149.051,286.271c3.016,0.723,4.878,3.754,4.154,6.77c-0.723,3.016-3.756,4.873-6.768,4.153
								c-3.018-0.724-4.875-3.755-4.154-6.771C143.005,287.407,146.034,285.549,149.051,286.271z"/>
							<path fill="#9BE770" d="M148.963,295.863c3.018,0.724,4.876,3.754,4.15,6.77c-0.718,3.014-3.752,4.873-6.766,4.152
								c-3.016-0.723-4.875-3.753-4.152-6.769C142.916,297,145.947,295.14,148.963,295.863z"/>
							<circle fill="#9BE770" cx="103.791" cy="271.266" r="4.445"/>
							<path fill="#9BE770" d="M97.68,284.478c2.384,0.572,3.857,2.971,3.285,5.357c-0.57,2.387-2.973,3.859-5.357,3.289
								c-2.387-0.572-3.859-2.973-3.288-5.359S95.291,283.905,97.68,284.478z"/>
							<path fill="#9BE770" d="M101.565,273.019c2.389,0.572,3.863,2.973,3.287,5.359c-0.57,2.387-2.971,3.859-5.357,3.287
								c-2.388-0.572-3.858-2.971-3.287-5.357C96.78,273.92,99.181,272.448,101.565,273.019z"/>
							<circle fill="#9BE770" cx="132.253" cy="311.574" r="4.446"/>
							<circle fill="#9BE770" cx="151.043" cy="278.5" r="4.445"/>
							<circle fill="#9BE770" cx="149.12" cy="284.231" r="4.445"/>
							<path fill="#9BE770" d="M143.005,255.324c2.387,0.568,3.86,2.969,3.288,5.357c-0.572,2.387-2.967,3.857-5.357,3.287
								c-2.387-0.572-3.859-2.973-3.289-5.359C138.22,256.222,140.618,254.752,143.005,255.324z"/>
							<path fill="#9BE770" d="M127.428,252.945c2.387,0.572,3.861,2.973,3.286,5.359c-0.569,2.387-2.971,3.857-5.356,3.287
								c-2.388-0.57-3.859-2.973-3.287-5.359C122.64,253.846,125.04,252.373,127.428,252.945z"/>
							<path fill="#9BE770" d="M108.878,263.584c1.633,0.391,2.642,2.035,2.252,3.666c-0.393,1.635-2.034,2.643-3.669,2.25
								c-1.634-0.392-2.639-2.033-2.249-3.668C105.604,264.201,107.244,263.193,108.878,263.584z"/>
							<path fill="#9BE770" d="M102.712,302.887c1.634,0.392,2.64,2.032,2.249,3.667c-0.392,1.633-2.036,2.641-3.666,2.248
								c-1.635-0.391-2.643-2.032-2.252-3.666C99.438,303.504,101.076,302.494,102.712,302.887z"/>
							<circle fill="#9BE770" cx="131.002" cy="320.373" r="1.988"/>
							<path fill="#9BE770" d="M142.843,314.383c1.469,0.35,2.373,1.826,2.021,3.296c-0.349,1.468-1.827,2.373-3.296,2.021
								c-1.469-0.353-2.374-1.829-2.021-3.296C139.9,314.934,141.375,314.028,142.843,314.383z"/>
							<path fill="#9BE770" d="M112.361,297.26c1.634,0.393,2.641,2.033,2.249,3.666c-0.393,1.634-2.034,2.64-3.669,2.25
								c-1.632-0.394-2.64-2.033-2.245-3.667C109.084,297.875,110.726,296.869,112.361,297.26z"/>
							<path fill="#9BE770" d="M153.104,294.147c1.637,0.392,2.64,2.034,2.25,3.667c-0.391,1.635-2.034,2.641-3.667,2.25
								c-1.635-0.391-2.64-2.033-2.247-3.666C149.829,294.765,151.469,293.757,153.104,294.147z"/>
							<circle fill="#9BE770" cx="108.067" cy="284.801" r="7.195"/>
							<circle fill="#9BE770" cx="114.637" cy="307.553" r="7.194"/>
							<circle fill="#9BE770" cx="140.154" cy="305.601" r="7.194"/>
							<path fill="#9BE770" d="M142.451,257.661c2.732-2.886,7.286-3.013,10.175-0.282c2.886,2.73,3.014,7.283,0.281,10.171
								c-2.729,2.885-7.282,3.013-10.171,0.284C139.852,265.101,139.728,260.55,142.451,257.661z"/>
							<path fill="#9BE770" d="M130.396,253.141c2.73-2.884,7.286-3.013,10.173-0.282c2.884,2.732,3.012,7.283,0.285,10.171
								c-2.732,2.886-7.288,3.015-10.175,0.284C127.792,260.582,127.667,256.03,130.396,253.141z"/>
							<path fill="#9BE770" d="M155.158,260.733c3.862,0.926,6.243,4.807,5.316,8.673c-0.924,3.863-4.806,6.244-8.67,5.319
								c-3.863-0.925-6.246-4.808-5.323-8.671C147.411,262.189,151.292,259.808,155.158,260.733z"/>
						</g>
					</g>
					<circle fill="#31A24A" cx="121.593" cy="301.531" r="4.445"/>
					<path fill="#31A24A" d="M130.964,303.592c1.307,0.313,2.111,1.626,1.796,2.934c-0.309,1.307-1.626,2.113-2.932,1.801
						c-1.307-0.314-2.112-1.629-1.801-2.935C128.342,304.085,129.653,303.279,130.964,303.592z"/>
					<path fill="#31A24A" d="M131.859,292.943c1.688,0.403,2.725,2.098,2.321,3.785c-0.404,1.686-2.102,2.726-3.784,2.322
						c-1.69-0.404-2.731-2.1-2.326-3.785C128.475,293.579,130.17,292.537,131.859,292.943z"/>
					<path fill="#31A24A" d="M140.43,298.557c0.853,0.203,1.38,1.06,1.177,1.913c-0.209,0.852-1.063,1.377-1.914,1.172
						c-0.854-0.202-1.38-1.061-1.174-1.912C138.721,298.879,139.58,298.352,140.43,298.557z"/>
					<path fill="#31A24A" d="M123.431,309.183c0.933,0.223,1.507,1.16,1.281,2.092c-0.221,0.932-1.159,1.508-2.091,1.285
						c-0.935-0.223-1.512-1.161-1.287-2.092C121.558,309.533,122.495,308.96,123.431,309.183z"/>
					<circle fill="#31A24A" cx="123.863" cy="293.352" r="1.736"/>
				</g>
				<circle fill="#31A24A" cx="156.87" cy="212.939" r="1.736"/>
				<path fill="#31A24A" d="M157.048,217.874c0.935,0.223,1.507,1.16,1.283,2.092c-0.221,0.933-1.157,1.507-2.094,1.285
					c-0.931-0.224-1.506-1.161-1.282-2.092C155.18,218.225,156.115,217.651,157.048,217.874z"/>
				<path fill="#31A24A" d="M154.349,224.352c0.931,0.223,1.506,1.16,1.28,2.093c-0.22,0.934-1.16,1.508-2.09,1.284
					c-0.935-0.224-1.507-1.161-1.285-2.092C152.479,224.704,153.415,224.129,154.349,224.352z"/>
			</g>
			<g>
				<g>
					<path fill="#67C34D" d="M258.902,237.092c0.758-1.273,6.481,7.508,6.481,7.508s-7.959,14.955-7.316,24.807
						c0.883,13.6,10.404,12.061,8.222,24.302c-1.575,8.86-21.977,32.233-21.977,32.233l-18.063,4.185
						c0,0,12.343-29.624,14.465-43.573C243.436,268.681,242.865,264.039,258.902,237.092z"/>
				</g>
				<g>
					<path fill="#67C34D" d="M273.344,251.877c-1.801,3.014-4.547,6.025-8.406,7.58c-4.346,1.749-9.992,2.352-11.515,6.873
						l-2.213,12.768l3.772,0.01c0,0,0.417-5.77,3.084-9.701c2.665-3.932,8.604-3.35,12.692-8.691c4.082-5.344,5.284-7.08,5.284-7.08
						L273.344,251.877z"/>
				</g>
				<g>
					<path fill="#31A24A" d="M294.55,259.824l5.41,19.105c0,0-28.734,31.654-33.072,42.723c-4.341,11.067-9.789,21.834-9.789,21.834
						l-12.787-17.545l-6.229-4.663c0,0,12.354-25.352,25.146-32.571C276.122,281.43,280.834,281.56,294.55,259.824z"/>
				</g>
				<path fill="#117F36" d="M266.888,321.652c4.338-11.068,33.072-42.723,33.072-42.723l-1.568-5.542l-0.671-1.009
					c0,0-19.509,15.501-28.179,26.708c-8.674,11.205-19.727,33.596-19.727,33.596s6.021,3.323,9.279,8.148
					C260.757,337.81,262.907,331.801,266.888,321.652z"/>
				<g>
					<path fill="#117F36" d="M303.249,285.882l3.47,5.235c0,0-13.728,12.955-19.086,14.529c-5.363,1.574-12.825,1.529-12.825,1.529
						l7.934-12.035c0,0,2.214,2.488,8.751-0.432C298.029,291.79,303.249,285.882,303.249,285.882z"/>
				</g>
				<path fill="#31A24A" d="M249.865,230.273l2.061,0.646c0,0-1.29,4.117,0.064,7.866c1.354,3.746,3.585,5.029,3.585,5.029
					s0.695,2.314-0.072,4.819s-3.112,3.067-3.112,3.067s-4.362-7.906-3.887-12.492C248.984,234.626,249.865,230.273,249.865,230.273
					z"/>
				<g>
					<path fill="#67C34D" d="M254.189,344.324c-1.131-0.001-2.559-0.645-4.629-2.088c-3.513-2.449-7.462-2.562-11.643-2.682
						c-1.212-0.035-2.466-0.07-3.71-0.168c-2.349-0.182-4.564-1.506-6.078-3.633c-1.294-1.816-1.869-3.982-1.468-5.52
						c0.835-3.195,3.312-8.556,10.522-8.556c0.285,0,0.577,0.009,0.875,0.026c3.387,0.197,4.644,1.398,6.546,3.217
						c1.781,1.703,4,3.822,8.812,5.936c3.651,1.604,5.649,3.718,5.938,6.285c0.321,2.86-1.588,5.318-2.509,6.001
						C255.91,343.834,255.172,344.324,254.189,344.324L254.189,344.324z"/>
					<path fill="#31A24A" d="M237.184,322.105c0.277,0,0.562,0.008,0.85,0.025c3.231,0.188,4.442,1.346,6.276,3.1
						c1.806,1.727,4.054,3.875,8.935,6.018c3.503,1.537,5.416,3.537,5.687,5.941c0.284,2.529-1.384,4.902-2.339,5.61
						c-0.87,0.643-1.551,1.097-2.403,1.097c-1.024,0-2.418-0.639-4.386-2.01c-3.616-2.521-7.627-2.637-11.873-2.758
						c-1.208-0.035-2.456-0.07-3.688-0.167c-2.224-0.173-4.325-1.431-5.765-3.454c-1.224-1.719-1.773-3.746-1.401-5.166
						C227.878,327.265,230.259,322.105,237.184,322.105 M237.184,321.252c-6.22,0-9.647,3.945-10.935,8.874
						c-0.891,3.404,2.5,9.266,7.926,9.687c5.425,0.424,10.708-0.316,15.141,2.773c2.262,1.577,3.721,2.164,4.873,2.164
						c1.106,0,1.93-0.539,2.91-1.264c2-1.482,6.4-8.668-3.512-13.02c-9.916-4.354-8.711-8.791-15.504-9.188
						C237.778,321.26,237.477,321.252,237.184,321.252L237.184,321.252z"/>
				</g>
				<g>
					<circle fill="#31A24A" cx="245.981" cy="181.883" r="1.988"/>
					<path fill="#31A24A" d="M347.261,220.974c-0.954-0.546-2.169-0.218-2.717,0.733c-0.545,0.953-0.22,2.168,0.731,2.716
						c0.954,0.547,2.166,0.22,2.715-0.733C348.539,222.739,348.21,221.524,347.261,220.974z"/>
					<circle fill="#31A24A" cx="255.349" cy="173.572" r="3.041"/>
					<circle fill="#31A24A" cx="317.685" cy="158.346" r="3.041"/>
					<path fill="#31A24A" d="M342.883,229.996c-1.822-1.046-4.146-0.422-5.191,1.4c-1.048,1.818-0.42,4.146,1.397,5.191
						c1.822,1.046,4.148,0.42,5.191-1.4C345.327,233.367,344.699,231.043,342.883,229.996z"/>
					<path fill="#31A24A" d="M339.313,209.453c-0.191-0.11-0.394-0.174-0.587-0.264c0.111-0.136,0.215-0.278,0.31-0.436
						c0.838-1.455,0.335-3.314-1.121-4.152c-0.192-0.111-0.392-0.195-0.594-0.26c0.004-0.003,0.005-0.007,0.007-0.011
						c0.819-1.42,0.748-3.095-0.015-4.421c0.215-0.159,0.406-0.359,0.545-0.605c0.549-0.952,0.218-2.167-0.73-2.715
						c-0.066-0.039-0.141-0.042-0.214-0.07c0.421-1.85-0.362-3.83-2.088-4.829c0.141-0.819,0.136-1.641-0.003-2.447
						c0.62-0.526,1.179-1.145,1.614-1.895c1.978-3.444,0.79-7.842-2.653-9.824c-1.588-0.914-3.374-1.124-5.038-0.781
						c-0.048-0.87-0.383-1.702-0.959-2.376c0.879-2.503-0.11-5.351-2.495-6.72c-2.063-1.187-4.553-0.907-6.308,0.496
						c-0.143-0.456-0.437-0.87-0.887-1.125c-0.685-0.394-1.501-0.32-2.11,0.098c-0.256-0.416-0.603-0.785-1.057-1.045
						c-0.736-0.424-1.574-0.502-2.332-0.292c-0.514-1.688-1.628-3.199-3.283-4.147c-1.198-0.695-2.519-0.977-3.81-0.936
						c0.196-1.212-0.351-2.475-1.479-3.123c-1.455-0.837-3.316-0.335-4.154,1.121c-0.28,0.488-0.4,1.023-0.39,1.551
						c-0.062-0.036-0.106-0.083-0.165-0.116c-2.128-1.225-4.847-0.492-6.071,1.637c-0.051,0.09-0.075,0.187-0.123,0.281
						c-0.224-0.261-0.484-0.495-0.795-0.677c-1.298-0.746-2.912-0.424-3.841,0.684c-0.414-0.65-0.969-1.223-1.687-1.636
						c-2.379-1.369-5.42-0.548-6.789,1.832c-0.162,0.282-0.289,0.574-0.392,0.871c-1.161,0.014-2.279,0.61-2.903,1.69
						c-0.3,0.52-0.43,1.089-0.436,1.649c-1.673-0.016-3.301,0.805-4.25,2.312c-0.317-0.328-0.661-0.628-1.077-0.865
						c-2.378-1.37-5.421-0.551-6.786,1.83c-0.589,1.023-0.753,2.165-0.577,3.246c-0.862,0.147-1.663,0.65-2.135,1.467
						c-0.253,0.439-0.367,0.91-0.39,1.38c-1.688-0.169-3.401,0.633-4.298,2.2c-0.125,0.211-0.213,0.432-0.296,0.653
						c-2.01-0.771-4.333-0.003-5.439,1.921c-0.717,1.249-0.745,2.695-0.23,3.929c-1.507,0.449-2.86,1.444-3.703,2.916
						c-0.671,1.163-0.927,2.446-0.825,3.691c-2.215-0.006-4.37,1.112-5.552,3.169c-1.756,3.05-0.704,6.95,2.348,8.706
						c0.445,0.257,0.912,0.435,1.381,0.574c-0.082,0.56-0.053,1.122,0.073,1.662c-1.396,0.124-2.716,0.898-3.469,2.207
						c-0.476,0.83-0.647,1.748-0.566,2.636c-1.599-0.068-3.184,0.717-4.04,2.205c-1.225,2.126-0.49,4.845,1.637,6.069
						c0.361,0.207,0.738,0.338,1.122,0.436c-1.427,2.664-0.501,5.996,2.137,7.51c0.661,0.381,1.361,0.607,2.073,0.701
						c-0.379,1.744,0.365,3.604,1.999,4.543c1.244,0.718,2.7,0.723,3.91,0.149c0.265,1.071,0.945,2.039,1.977,2.631
						c0.934,0.537,1.978,0.661,2.957,0.458c-0.075,1.608,0.713,3.205,2.204,4.064c0.613,0.352,1.271,0.522,1.932,0.564
						c-0.699,1.982,0.083,4.238,1.971,5.322c1.233,0.711,2.66,0.744,3.885,0.246c-0.343,2.227,0.667,4.533,2.74,5.725
						c1.698,0.977,3.689,0.961,5.32,0.145c0.285,1.566,1.211,3.004,2.696,3.861c1.979,1.137,4.353,0.928,6.09-0.328
						c0.427,1.232,1.261,2.329,2.481,3.031c2.465,1.417,5.541,0.734,7.229-1.461c0.603,1.289,1.589,2.416,2.914,3.18
						c3.146,1.807,7.062,0.954,9.232-1.822c0.247,0.209,0.506,0.404,0.799,0.572c2.494,1.438,5.621,0.718,7.294-1.543
						c0.132,0.492,0.448,0.938,0.927,1.213c0.953,0.547,2.168,0.219,2.716-0.733c0.175-0.305,0.229-0.635,0.238-0.964
						c1.083,0.036,2.156-0.502,2.736-1.51c0.52-0.902,0.521-1.961,0.101-2.835c1.522-0.248,2.922-1.11,3.813-2.494
						c0.058,0.035,0.104,0.082,0.165,0.117c3.441,1.981,7.843,0.796,9.823-2.648c1.217-2.115,1.229-4.587,0.267-6.642
						c0.616-0.376,1.164-0.889,1.548-1.561c0.939-1.634,0.717-3.609-0.396-4.996c0.388-0.162,0.742-0.419,0.969-0.814
						c0.541-0.937,0.226-2.122-0.692-2.682c0.358-0.248,0.675-0.571,0.907-0.975c0.293-0.508,0.413-1.066,0.395-1.613
						c1.205-0.246,2.308-0.971,2.967-2.122c0.479-0.834,0.65-1.757,0.563-2.646c1.571-0.55,2.971-1.617,3.867-3.173
						C343.942,215.833,342.754,211.435,339.313,209.453z M312.238,254.027c-0.067,0.027-0.133,0.063-0.199,0.098
						c0.026-0.131,0.075-0.262,0.089-0.396C312.158,253.832,312.198,253.929,312.238,254.027z"/>
				</g>
				<path fill="#117F36" d="M272.313,250.865c0.285,1.566,1.211,3.004,2.696,3.861c1.979,1.137,4.353,0.928,6.09-0.328
					c0.427,1.232,1.261,2.329,2.481,3.031c2.465,1.417,5.541,0.734,7.229-1.461c0.603,1.289,1.589,2.416,2.914,3.18
					c3.146,1.807,7.062,0.954,9.232-1.822c0.247,0.209,0.506,0.404,0.799,0.572c2.494,1.438,5.621,0.718,7.294-1.543
					c0.132,0.492,0.448,0.938,0.927,1.213c0.953,0.547,2.168,0.219,2.716-0.733c0.175-0.305,0.229-0.635,0.238-0.964
					c1.083,0.036,2.156-0.502,2.736-1.51c0.52-0.902,0.521-1.961,0.101-2.835c1.522-0.248,2.922-1.11,3.813-2.494
					c0.058,0.035,0.104,0.082,0.165,0.117c3.441,1.981,7.843,0.796,9.823-2.648c1.217-2.115,1.229-4.587,0.267-6.642
					c0.616-0.376,1.164-0.889,1.548-1.561c0.939-1.634,0.717-3.609-0.396-4.996c0.388-0.162,0.742-0.419,0.969-0.814
					c0.541-0.937,0.226-2.122-0.692-2.682c0.358-0.248,0.675-0.571,0.907-0.975c0.293-0.508,0.413-1.066,0.395-1.613
					c1.205-0.246,2.308-0.971,2.967-2.122c0.479-0.834,0.65-1.757,0.563-2.646c1.571-0.55,2.971-1.617,3.867-3.173
					c1.979-3.444,0.792-7.843-2.649-9.824c-0.191-0.11-0.394-0.174-0.587-0.264c0.111-0.136,0.215-0.278,0.31-0.436
					c0.838-1.455,0.335-3.314-1.121-4.152c-0.192-0.111-0.392-0.195-0.594-0.26c0.004-0.003,0.005-0.007,0.007-0.011
					c0.819-1.42,0.748-3.095-0.015-4.421c0.215-0.159,0.406-0.359,0.545-0.605c0.549-0.952,0.218-2.167-0.73-2.715
					c-0.066-0.039-0.141-0.042-0.214-0.07c0.421-1.85-0.362-3.83-2.088-4.829c0.098-0.564,0.102-1.126,0.063-1.686
					c-25.239,7.209-78.712,22.471-97.59,27.782c0.24,0.217,0.498,0.416,0.787,0.583c0.361,0.207,0.738,0.338,1.122,0.436
					c-1.427,2.664-0.501,5.996,2.137,7.51c0.661,0.381,1.361,0.607,2.073,0.701c-0.379,1.744,0.365,3.604,1.999,4.543
					c1.244,0.718,2.7,0.723,3.91,0.149c0.265,1.071,0.945,2.039,1.977,2.631c0.934,0.537,1.978,0.661,2.957,0.458
					c-0.075,1.608,0.713,3.205,2.204,4.064c0.613,0.352,1.271,0.522,1.932,0.564c-0.699,1.982,0.083,4.238,1.971,5.322
					c1.233,0.711,2.66,0.744,3.885,0.246c-0.343,2.227,0.667,4.533,2.74,5.725C268.691,251.697,270.682,251.681,272.313,250.865z
					 M312.127,253.728c0.031,0.104,0.07,0.201,0.11,0.299c-0.067,0.027-0.133,0.063-0.199,0.098
					C312.065,253.994,312.114,253.863,312.127,253.728z"/>
				<circle fill="#67C34D" cx="255.358" cy="215.212" r="5.616"/>
				<path fill="#67C34D" d="M319.91,234.732c-1.224,2.13-3.938,2.863-6.067,1.639c-2.128-1.225-2.863-3.943-1.639-6.071
					c1.222-2.127,3.941-2.86,6.065-1.636C320.4,229.886,321.135,232.605,319.91,234.732z"/>
				<path fill="#67C34D" d="M286.006,237.363c-1.223,2.131-3.943,2.861-6.069,1.638c-2.128-1.223-2.86-3.942-1.64-6.069
					c1.228-2.128,3.945-2.862,6.072-1.638C286.497,232.517,287.232,235.236,286.006,237.363z"/>
				<path fill="#67C34D" d="M253.713,198.478c-0.547,0.95-1.763,1.278-2.715,0.73c-0.949-0.546-1.279-1.764-0.733-2.714
					c0.549-0.952,1.763-1.28,2.715-0.732S254.261,197.524,253.713,198.478z"/>
				<path fill="#67C34D" d="M319.858,207.372c-0.549,0.951-1.764,1.28-2.712,0.733c-0.953-0.547-1.282-1.764-0.734-2.717
					c0.546-0.95,1.765-1.28,2.713-0.73C320.077,205.205,320.406,206.42,319.858,207.372z"/>
				<path fill="#67C34D" d="M311.689,243.163c-0.548,0.952-1.762,1.28-2.712,0.731c-0.955-0.547-1.281-1.764-0.733-2.714
					c0.548-0.952,1.764-1.282,2.713-0.732C311.91,240.994,312.238,242.211,311.689,243.163z"/>
				<path fill="#67C34D" d="M261.38,228.799c-0.55,0.951-1.767,1.279-2.717,0.73c-0.953-0.547-1.28-1.764-0.733-2.716
					c0.549-0.95,1.765-1.278,2.715-0.73C261.597,226.63,261.924,227.845,261.38,228.799z"/>
				<path fill="#67C34D" d="M305.698,227.301c-0.545,0.951-1.764,1.279-2.717,0.732c-0.953-0.549-1.278-1.765-0.732-2.716
					c0.55-0.954,1.761-1.28,2.716-0.733C305.918,225.132,306.244,226.348,305.698,227.301z"/>
				<circle fill="#67C34D" cx="280.611" cy="244.99" r="3.04"/>
				<path fill="#67C34D" d="M268.496,220.409c-0.838,1.454-2.699,1.956-4.154,1.119c-1.457-0.838-1.96-2.697-1.124-4.154
					c0.841-1.457,2.702-1.957,4.156-1.119C268.832,217.091,269.334,218.951,268.496,220.409z"/>
				<path fill="#67C34D" d="M293.219,242.188c-0.839,1.456-2.696,1.956-4.152,1.12c-1.455-0.837-1.957-2.697-1.119-4.154
					c0.834-1.456,2.695-1.957,4.151-1.119C293.556,238.873,294.057,240.73,293.219,242.188z"/>
				<path fill="#31A24A" d="M258.067,269.406c-0.643-9.852,7.316-24.807,7.316-24.807s-1.251-1.916-2.66-3.828
					c-0.147,0.297-0.293,0.578-0.445,0.895c-9.042,18.889-9.703,36.934-6.53,48.673c1.492,5.551,3.44,10.534,5.083,14.261
					c2.809-4.256,9.264-10.404,9.23-13.109C269.941,280.555,258.949,283.006,258.067,269.406z"/>
				<g>
					<g>
						<path fill="#67C34D" d="M288.028,257.084c-1.547,2.688-4.98,3.615-7.667,2.068c-2.688-1.547-3.613-4.979-2.067-7.668
							c1.545-2.688,4.98-3.614,7.664-2.067C288.647,250.963,289.573,254.396,288.028,257.084z"/>
						<path fill="#67C34D" d="M294.694,247.017c-1.544,2.688-4.977,3.614-7.667,2.069c-2.688-1.546-3.613-4.981-2.068-7.671
							c1.548-2.686,4.979-3.612,7.667-2.065C295.315,240.896,296.242,244.33,294.694,247.017z"/>
						<path fill="#67C34D" d="M314.631,247.553c-1.547,2.688-4.981,3.614-7.668,2.066c-2.687-1.544-3.614-4.978-2.067-7.665
							c1.548-2.69,4.978-3.615,7.667-2.07C315.251,241.431,316.175,244.865,314.631,247.553z"/>
						<path fill="#67C34D" d="M326.19,254.205c-1.544,2.688-4.979,3.613-7.664,2.068c-2.691-1.547-3.613-4.98-2.07-7.67
							c1.546-2.688,4.979-3.614,7.67-2.066C326.81,248.082,327.739,251.516,326.19,254.205z"/>
						<circle fill="#67C34D" cx="328.13" cy="254.238" r="5.616"/>
						<circle fill="#67C34D" cx="345.692" cy="270.28" r="5.616"/>
						<circle fill="#67C34D" cx="346.216" cy="285.561" r="5.616"/>
						<path fill="#67C34D" d="M289.3,261.326c-1.546,2.686-4.979,3.613-7.668,2.065c-2.688-1.545-3.613-4.978-2.068-7.667
							c1.545-2.688,4.978-3.613,7.669-2.068C289.917,255.203,290.848,258.636,289.3,261.326z"/>
						<circle fill="#67C34D" cx="291.669" cy="262.014" r="5.616"/>
						<path fill="#67C34D" d="M337.062,297.842c-1.546,2.689-4.979,3.617-7.667,2.068c-2.688-1.547-3.615-4.98-2.07-7.669
							c1.548-2.688,4.979-3.612,7.672-2.067C337.682,291.72,338.609,295.154,337.062,297.842z"/>
						<circle fill="#67C34D" cx="315.506" cy="248.259" r="4.445"/>
						<path fill="#67C34D" d="M340.612,263.51c-1.226,2.128-3.943,2.861-6.072,1.637c-2.125-1.224-2.859-3.941-1.636-6.071
							c1.22-2.125,3.942-2.859,6.071-1.635C341.1,258.664,341.832,261.383,340.612,263.51z"/>
						<path fill="#67C34D" d="M346.715,265.336c-1.223,2.128-3.938,2.861-6.072,1.635c-2.125-1.223-2.856-3.94-1.637-6.069
							c1.229-2.128,3.945-2.86,6.07-1.637C347.206,260.489,347.942,263.207,346.715,265.336z"/>
						<path fill="#67C34D" d="M354.502,282.771c-1.224,2.127-3.941,2.861-6.071,1.637c-2.124-1.225-2.861-3.941-1.635-6.07
							c1.222-2.128,3.941-2.861,6.069-1.637C354.994,277.926,355.726,280.643,354.502,282.771z"/>
						<circle fill="#67C34D" cx="303.346" cy="284.185" r="4.445"/>
						<path fill="#67C34D" d="M321.908,294.388c-1.225,2.127-3.942,2.861-6.069,1.637c-2.128-1.223-2.86-3.941-1.636-6.07
							c1.221-2.129,3.939-2.859,6.071-1.638C322.401,289.542,323.129,292.26,321.908,294.388z"/>
						<circle fill="#67C34D" cx="282.717" cy="249.778" r="1.989"/>
						<path fill="#67C34D" d="M285.891,247.421c-0.836,1.456-2.697,1.956-4.15,1.119c-1.457-0.838-1.958-2.697-1.121-4.153
							c0.84-1.456,2.696-1.955,4.153-1.119C286.226,244.104,286.731,245.963,285.891,247.421z"/>
						<circle fill="#67C34D" cx="332.776" cy="258.127" r="3.041"/>
						<path fill="#67C34D" d="M353.198,276.824c-0.838,1.457-2.694,1.958-4.152,1.12c-1.455-0.837-1.958-2.698-1.121-4.151
							c0.84-1.459,2.696-1.959,4.15-1.121C353.533,273.508,354.035,275.367,353.198,276.824z"/>
						<path fill="#67C34D" d="M303.429,280.993c-0.836,1.454-2.695,1.958-4.15,1.119c-1.458-0.838-1.961-2.698-1.122-4.154
							c0.836-1.455,2.696-1.956,4.151-1.12C303.767,277.677,304.268,279.535,303.429,280.993z"/>
						<path fill="#67C34D" d="M326.566,295.447c-0.841,1.456-2.698,1.958-4.155,1.121c-1.455-0.838-1.958-2.699-1.119-4.155
							c0.836-1.456,2.694-1.956,4.153-1.119C326.898,292.131,327.399,293.99,326.566,295.447z"/>
						<path fill="#67C34D" d="M306.51,251.115c-1.982,3.445-6.38,4.631-9.826,2.648c-3.445-1.98-4.629-6.379-2.65-9.824
							c1.985-3.443,6.381-4.631,9.824-2.646C307.305,243.271,308.49,247.672,306.51,251.115z"/>
						<path fill="#67C34D" d="M303.96,275.967c-1.98,3.442-6.38,4.631-9.823,2.648c-3.449-1.98-4.631-6.379-2.653-9.824
							c1.98-3.445,6.383-4.633,9.825-2.648C304.751,268.124,305.94,272.522,303.96,275.967z"/>
						<path fill="#67C34D" d="M349.279,295.962c-1.979,3.446-6.379,4.63-9.824,2.649c-3.443-1.982-4.631-6.381-2.649-9.824
							c1.977-3.443,6.376-4.633,9.825-2.648C350.073,288.118,351.26,292.517,349.279,295.962z"/>
						<path fill="#67C34D" d="M315.661,293.631c-1.979,3.444-6.376,4.631-9.823,2.65c-3.442-1.982-4.628-6.381-2.648-9.826
							c1.98-3.443,6.378-4.631,9.826-2.648C316.455,285.788,317.644,290.186,315.661,293.631z"/>
					</g>
					<polygon fill="#67C34D" points="342.037,293.416 351.172,279.642 343.639,265.994 322.55,249.274 299.596,244.709 
						285.882,245.324 281.989,252.801 291.669,262.015 298.082,273.394 308.052,288.444 325.409,292.758 335.899,293.528 					"/>
					<path fill="#31A24A" d="M343.737,280.019c-1.546,2.688-4.978,3.613-7.67,2.066c-2.685-1.545-3.616-4.979-2.068-7.667
						c1.551-2.689,4.982-3.614,7.668-2.067C344.356,273.897,345.281,277.332,343.737,280.019z"/>
					<path fill="#31A24A" d="M342.93,291.162c-1.225,2.127-3.946,2.859-6.071,1.636c-2.129-1.226-2.861-3.942-1.637-6.071
						c1.219-2.127,3.938-2.859,6.07-1.635C343.418,286.315,344.149,289.034,342.93,291.162z"/>
					<path fill="#31A24A" d="M330.541,263.186c-0.448,0.784-1.451,1.055-2.235,0.603c-0.784-0.453-1.057-1.453-0.604-2.236
						c0.448-0.786,1.452-1.056,2.235-0.605C330.725,261.398,330.994,262.402,330.541,263.186z"/>
					<path fill="#31A24A" d="M331.12,269.456c-0.549,0.952-1.764,1.28-2.717,0.733c-0.952-0.549-1.28-1.764-0.729-2.715
						c0.545-0.955,1.762-1.281,2.712-0.734C331.34,267.288,331.667,268.504,331.12,269.456z"/>
					<circle fill="#31A24A" cx="336.11" cy="266.996" r="1.989"/>
					<circle fill="#31A24A" cx="329.992" cy="283.384" r="3.042"/>
				</g>
				<g>
					<path fill="#31A24A" d="M281.521,256.783l2.25,1.363c-1.33,2.674-4.474,5.303-4.087,8.986
						c0.879,8.332,2.506,18.175,2.506,18.175l-24.701,19.601c0,0,13.039-21.672,16.078-27.598
						C276.844,270.896,272.604,269.47,281.521,256.783z"/>
				</g>
			</g>
		</g>
	</g>
</g>
</svg>
