<?xml version="1.0" encoding="utf-8"?>
<!-- Generator: Adobe Illustrator 16.0.0, SVG Export Plug-In . SVG Version: 6.00 Build 0)  -->
<!DOCTYPE svg PUBLIC "-//W3C//DTD SVG 1.1//EN" "http://www.w3.org/Graphics/SVG/1.1/DTD/svg11.dtd">
<svg version="1.1" id="Ebene_1" xmlns="http://www.w3.org/2000/svg" xmlns:xlink="http://www.w3.org/1999/xlink" x="0px" y="0px"
	 width="450px" height="450px" viewBox="0 0 450 450" enable-background="new 0 0 450 450" xml:space="preserve">
<g>
	<g>
		<g>
			<circle fill="#31A34A" cx="217.884" cy="155.081" r="4.045"/>
			<path fill="#31A34A" d="M253.664,151.561c-0.267,2.218-2.279,3.802-4.499,3.536c-2.219-0.266-3.801-2.28-3.534-4.5
				c0.264-2.219,2.278-3.801,4.498-3.535C252.346,147.328,253.932,149.343,253.664,151.561z"/>
			<path fill="#31A34A" d="M246.635,150.718c-0.267,2.219-2.281,3.802-4.501,3.536c-2.216-0.267-3.8-2.281-3.534-4.5
				c0.267-2.218,2.281-3.801,4.5-3.535C245.318,146.486,246.902,148.499,246.635,150.718z"/>
			<circle fill="#31A34A" cx="222.503" cy="148.08" r="4.047"/>
			<circle fill="#31A34A" cx="217.388" cy="151.075" r="3.204"/>
			<circle fill="#31A34A" cx="246.363" cy="143.427" r="1.434"/>
			<circle fill="#31A34A" cx="218.629" cy="140.74" r="1.432"/>
			<path fill="#31A34A" d="M217.388,145.428c-0.146,1.202-1.233,2.06-2.439,1.917c-1.199-0.145-2.058-1.236-1.913-2.438
				c0.145-1.201,1.234-2.058,2.438-1.914C216.673,143.136,217.531,144.227,217.388,145.428z"/>
			<path fill="#31A34A" d="M242.531,146.703c-0.144,1.202-1.233,2.059-2.435,1.915c-1.204-0.143-2.061-1.235-1.918-2.436
				c0.146-1.202,1.236-2.059,2.438-1.915C241.818,144.411,242.674,145.502,242.531,146.703z"/>
			<circle fill="#31A34A" cx="248.992" cy="155.84" r="5.184"/>
			<circle fill="#31A34A" cx="234.497" cy="146.802" r="5.184"/>
			<circle fill="#31A34A" cx="227.129" cy="143.118" r="5.184"/>
			<polygon fill="#31A34A" points="216.599,159.087 235.03,170.502 250.26,160.83 249.609,150.693 227.273,142.285 220.282,149.597 
							"/>
		</g>
		<g>
			<path fill="#67C44D" d="M228.579,223.133c0,0,2.113-4.037,2.818-7.609c0.703-3.571,2.336-5.37,5.599-8.969
				c3.261-3.598,5.559-13.189,5.559-13.189l-4.07-0.625c0,0-1.496,7.413-3.417,9.003c-1.923,1.589-6.29,6.264-6.746,9.795
				C227.865,215.069,228.579,223.133,228.579,223.133z"/>
		</g>
		<g>
			<path fill="#31A34A" d="M233.205,192.566c0,0-1.146,9.537,0.876,18.304c1.116,4.842,0.842,11.125,0.842,11.125
				s5.394-0.092,5.563-7.294c0.169-7.204-4.223-8.472-4.381-13.441c-0.161-4.967-0.219-8.742-0.219-8.742L233.205,192.566z"/>
		</g>
		<g>
			<path fill="#31A34A" d="M244.404,193.707l5.633-0.01c0,0-2.796,21.895-4.353,33.98c-0.349,2.711-0.636,4.929-0.814,6.294
				c-0.974,7.458-2.983,25.196-2.983,25.196l-27.866,3.617l1.521-16.106c0,0,9.074-18.408,14.363-20.54
				c5.291-2.134,10.254-12.667,11.219-17.815C242.084,203.173,244.404,193.707,244.404,193.707z"/>
		</g>
		<g>
			<path fill="#9CE870" d="M211.53,195.546c0.355-0.186,2.224,0.282,2.224,0.282s-0.042,3.721,1.274,6.326
				c1.315,2.604,4.11,4.845,4.11,4.845l-0.401,8.646c0,0-5.038-5.848-6.109-11.694C211.56,198.102,211.53,195.546,211.53,195.546z"
				/>
		</g>
		<g>
			<path fill="#9CE870" d="M219.237,196.481l9.945-1.858c0,0-0.537,14.942-0.55,21.219c-0.015,6.277,0.98,25.966-4.113,30.117
				c-5.095,4.15-9.124,3.775-9.124,3.775L219.237,196.481z"/>
		</g>
		<g>
			<path fill="#67C44D" d="M231.414,266.416c-1.311,0-2.648-0.171-3.671-0.471c-0.978-0.286-2.031-0.425-3.223-0.425
				c-1.509,0-3.005,0.228-4.325,0.429c-1.097,0.166-2.133,0.324-2.995,0.324l0,0c-1.411,0-2.165-0.423-2.521-1.413
				c-0.438-1.217-0.482-2.145-0.134-2.838c0.605-1.203,2.367-1.733,4.598-2.406c2.841-0.855,6.376-1.921,9.151-4.929
				c2.048-2.22,4.697-3.494,7.269-3.494c2.021,0,3.826,0.796,4.949,2.184c1.188,1.466,1.559,3.446,1.073,5.728
				C240.181,265.704,234.005,266.416,231.414,266.416z"/>
			<path fill="#31A34A" d="M235.563,251.501c1.929,0,3.646,0.755,4.711,2.069c1.126,1.392,1.476,3.283,1.011,5.47
				c-1.356,6.38-7.354,7.069-9.87,7.069c-1.282,0-2.589-0.167-3.584-0.459c-1.007-0.294-2.089-0.438-3.31-0.438
				c-1.532,0-3.041,0.229-4.372,0.432c-1.085,0.165-2.11,0.321-2.948,0.321c-1.276,0-1.923-0.351-2.232-1.209
				c-0.408-1.134-0.457-1.982-0.148-2.597c0.545-1.084,2.251-1.599,4.412-2.249c2.876-0.867,6.456-1.945,9.289-5.015
				C230.51,252.738,233.077,251.501,235.563,251.501 M235.563,250.886c-2.46,0-5.212,1.118-7.494,3.593
				c-6.141,6.653-16.151,3.626-13.679,10.485c0.449,1.248,1.457,1.615,2.811,1.615c1.937,0,4.584-0.752,7.32-0.752
				c1.044,0,2.101,0.109,3.137,0.412c0.935,0.273,2.271,0.483,3.757,0.483c4.038,0,9.193-1.547,10.472-7.556
				C242.981,254.02,239.681,250.886,235.563,250.886L235.563,250.886z"/>
		</g>
		<g>
			<circle fill="#9CE870" cx="257.269" cy="191.223" r="3.203"/>
			<circle fill="#9CE870" cx="252.521" cy="192.699" r="3.203"/>
			<circle fill="#9CE870" cx="239.931" cy="190.331" r="5.183"/>
			<circle fill="#9CE870" cx="246.445" cy="192.61" r="5.183"/>
			<circle fill="#9CE870" cx="240.032" cy="163.933" r="5.185"/>
			<circle fill="#9CE870" cx="268.632" cy="162.112" r="4.046"/>
			<circle fill="#9CE870" cx="276.374" cy="174.224" r="4.047"/>
			<circle fill="#9CE870" cx="272.11" cy="184.004" r="4.046"/>
			<circle fill="#9CE870" cx="261.753" cy="191.257" r="4.045"/>
			<path fill="#9CE870" d="M239.363,170.103c0.354,2.206-1.146,4.282-3.353,4.638c-2.204,0.355-4.28-1.146-4.636-3.351
				c-0.357-2.206,1.143-4.282,3.349-4.638C236.929,166.397,239.006,167.897,239.363,170.103z"/>
			<circle fill="#9CE870" cx="234.084" cy="185.04" r="4.045"/>
			<circle fill="#9CE870" cx="234.445" cy="175.889" r="3.202"/>
			<circle fill="#9CE870" cx="249.177" cy="157.636" r="3.203"/>
			<path fill="#9CE870" d="M270.616,189.236c-0.549,1.681-2.358,2.598-4.038,2.047c-1.683-0.55-2.599-2.359-2.051-4.041
				c0.552-1.68,2.361-2.598,4.042-2.048C270.25,185.746,271.166,187.555,270.616,189.236z"/>
			<circle fill="#9CE870" cx="280.974" cy="181.665" r="3.202"/>
			<circle fill="#9CE870" cx="245.344" cy="159.278" r="3.203"/>
			<circle fill="#9CE870" cx="277.32" cy="169.168" r="1.433"/>
			<circle fill="#9CE870" cx="276.223" cy="159.538" r="1.432"/>
			<path fill="#9CE870" d="M284.41,175.661c-0.244,0.751-1.053,1.162-1.805,0.915c-0.752-0.246-1.162-1.055-0.918-1.807
				c0.249-0.752,1.057-1.162,1.81-0.915C284.248,174.1,284.657,174.91,284.41,175.661z"/>
			<circle fill="#9CE870" cx="238.112" cy="180.635" r="5.183"/>
			<circle fill="#9CE870" cx="265.365" cy="183.336" r="5.183"/>
			<circle fill="#9CE870" cx="254.941" cy="159.243" r="5.184"/>
			<circle fill="#9CE870" cx="262.322" cy="160.935" r="5.182"/>
			<circle fill="#9CE870" cx="272.513" cy="167.729" r="5.183"/>
			<circle fill="#9CE870" cx="272.251" cy="178.286" r="5.184"/>
			<polygon fill="#9CE870" points="239.931,190.329 251.562,191.785 259.67,191.504 269.441,183.784 275.312,174.13 
				273.778,166.181 259.057,159.075 246.015,158.145 239.738,164.75 235.323,173.913 			"/>
		</g>
		<g>
			<circle fill="#67C44D" cx="198.121" cy="157.622" r="3.203"/>
			<circle fill="#67C44D" cx="188.273" cy="165.91" r="2.191"/>
			<circle fill="#67C44D" cx="186.649" cy="189.223" r="1.433"/>
			<circle fill="#67C44D" cx="191.969" cy="195.751" r="1.97"/>
			<path fill="#67C44D" d="M243.085,175.735c-0.453-2.826-3.114-4.748-5.94-4.293c-0.073,0.013-0.139,0.042-0.213,0.056
				c0.007-0.3-0.003-0.603-0.054-0.91c-0.037-0.237-0.11-0.457-0.181-0.681c1.863-1.028,2.983-3.127,2.625-5.348
				c-0.454-2.826-3.116-4.749-5.941-4.292c-0.005,0-0.009,0.002-0.015,0.002c-0.575-1.904-2.474-3.146-4.495-2.82
				c-1.45,0.234-2.581,1.215-3.094,2.483c-0.74-1.612-2.471-2.611-4.307-2.315c-1.042,0.168-1.914,0.727-2.521,1.495
				c-0.213-0.051-0.432-0.075-0.65-0.092c-0.006-0.083-0.001-0.165-0.014-0.249c-0.193-1.195-1.318-2.007-2.513-1.815
				c-0.308,0.049-0.585,0.161-0.829,0.317c-0.009-0.089-0.002-0.177-0.016-0.266c-0.282-1.747-1.927-2.935-3.673-2.654
				c-0.698,0.113-1.303,0.451-1.764,0.92c-0.675-1.018-1.896-1.61-3.182-1.403c-1.747,0.281-2.935,1.925-2.653,3.671
				c0.088,0.532,0.31,1.001,0.612,1.404c-0.376-0.024-0.758-0.014-1.145,0.048c-1.992,0.32-3.514,1.746-4.093,3.544
				c-0.891-0.953-2.222-1.46-3.604-1.238c-2.204,0.355-3.704,2.432-3.351,4.638c0.193,1.201,0.905,2.177,1.86,2.775
				c-0.615,0.224-1.081,0.713-1.297,1.31c-0.057-0.024-0.104-0.06-0.162-0.082c-2.678-1.015-5.671,0.332-6.686,3.008
				c-0.83,2.186-0.065,4.564,1.693,5.922c-0.897,0.435-1.645,1.193-2.025,2.2c-0.795,2.087,0.257,4.425,2.345,5.218
				c0.679,0.257,1.379,0.302,2.045,0.199c-0.621,1.65,0.21,3.496,1.859,4.122c0.729,0.276,1.483,0.257,2.165,0.023
				c-0.261,2.298,1.033,4.571,3.296,5.429c0.973,0.369,1.984,0.419,2.932,0.213c0.607,1.859,2.48,3.06,4.474,2.738
				c0.646-0.104,1.218-0.367,1.714-0.726c0.468,0.644,1.27,1.014,2.111,0.877c0.98-0.158,1.693-0.946,1.814-1.884
				c0.879,1.107,2.302,1.732,3.8,1.492c1.117-0.181,2.05-0.804,2.655-1.661c0.654,1.09,1.921,1.734,3.254,1.52
				c0.982-0.158,1.776-0.756,2.245-1.553c0.559,1.327,1.962,2.156,3.449,1.917c1.477-0.238,2.543-1.454,2.671-2.878
				c1.137,1.238,2.852,1.902,4.639,1.615c2.825-0.455,4.748-3.115,4.292-5.941c-0.082-0.512-0.257-0.981-0.472-1.423
				c2.333-0.81,3.826-3.189,3.423-5.711c-0.193-1.191-0.792-2.206-1.616-2.965c0.079-0.01,0.156-0.002,0.237-0.016
				C241.62,181.222,243.542,178.561,243.085,175.735z"/>
			<path fill="#31A34A" d="M237.145,171.442c-0.073,0.013-0.139,0.042-0.213,0.056c0.007-0.3-0.003-0.603-0.054-0.91
				c-0.037-0.237-0.11-0.457-0.181-0.681c1.863-1.028,2.983-3.127,2.625-5.348c-0.454-2.826-3.116-4.749-5.941-4.292
				c-0.005,0-0.009,0.002-0.015,0.002c-0.575-1.904-2.474-3.146-4.495-2.82c-1.45,0.234-2.581,1.215-3.094,2.483
				c-0.628-1.366-1.97-2.285-3.484-2.354c-4.251,11.711-11.732,32.169-15.119,41.422c0.374,0.166,0.793,0.235,1.227,0.165
				c0.98-0.158,1.693-0.946,1.814-1.884c0.879,1.107,2.302,1.732,3.8,1.492c1.117-0.181,2.05-0.804,2.655-1.661
				c0.654,1.09,1.921,1.734,3.254,1.52c0.982-0.158,1.776-0.756,2.245-1.553c0.559,1.327,1.962,2.156,3.449,1.917
				c1.477-0.238,2.543-1.454,2.671-2.878c1.137,1.238,2.852,1.902,4.639,1.615c2.825-0.455,4.748-3.115,4.292-5.941
				c-0.082-0.512-0.257-0.981-0.472-1.423c2.333-0.81,3.826-3.189,3.423-5.711c-0.193-1.191-0.792-2.206-1.616-2.965
				c0.079-0.01,0.156-0.002,0.237-0.016c2.828-0.455,4.75-3.116,4.293-5.942C242.632,172.908,239.971,170.987,237.145,171.442z"/>
		</g>
		<path fill="#67C44D" d="M225.644,195.284c-0.076,5.286,1.931,37.401-1.848,43.399c-2.866,4.553-6.299,5.961-8.101,6.523
			l-0.452,4.633c0,0,4.181,0.27,9.275-3.881c5.094-4.151,4.099-23.84,4.113-30.117c0.013-6.277,0.55-21.219,0.55-21.219
			L225.644,195.284z"/>
		<path fill="#31A34A" d="M247.904,204.422c0,0,3.667-0.507,5.941-4.552c2.276-4.045,2.909-6.827,2.909-6.827h1.012
			c0,0-0.254,6.954-3.668,10.999c-2.485,2.945-7.081,5.942-7.081,5.942L247.904,204.422z"/>
		<circle fill="#9CE870" cx="234.502" cy="149.677" r="1.183"/>
		<path fill="#31A34A" d="M199.735,177.235c0.279,1.746-0.907,3.389-2.654,3.67c-1.743,0.282-3.389-0.906-3.669-2.652
			c-0.283-1.745,0.905-3.389,2.651-3.669C197.81,174.301,199.452,175.49,199.735,177.235z"/>
		<circle fill="#31A34A" cx="271.419" cy="181.79" r="3.202"/>
		<circle fill="#31A34A" cx="196.066" cy="184.825" r="1.754"/>
		<path fill="#31A34A" d="M205.129,182.189c0.197,1.234-0.642,2.395-1.875,2.593c-1.234,0.199-2.397-0.641-2.594-1.874
			c-0.2-1.233,0.641-2.395,1.871-2.593C203.768,180.115,204.93,180.955,205.129,182.189z"/>
		<circle fill="#31A34A" cx="264.844" cy="181.031" r="2.264"/>
		<circle fill="#31A34A" cx="202.641" cy="189.629" r="1.143"/>
		<path fill="#31A34A" d="M191.99,181.086c0.11,0.681-0.354,1.323-1.037,1.434c-0.679,0.11-1.322-0.354-1.433-1.036
			c-0.108-0.682,0.355-1.325,1.036-1.435C191.239,179.939,191.882,180.404,191.99,181.086z"/>
		<circle fill="#31A34A" cx="202.641" cy="176.985" r="1.252"/>
		<circle fill="#31A34A" cx="270.913" cy="173.446" r="1.251"/>
		<circle fill="#31A34A" cx="264.844" cy="185.583" r="1.251"/>
		<circle fill="#31A34A" cx="259.786" cy="185.583" r="1.251"/>
		<path fill="#9CE870" d="M242.734,150.845c0.193,1.194-0.619,2.32-1.813,2.512c-1.197,0.192-2.321-0.621-2.515-1.815
			c-0.19-1.195,0.621-2.32,1.817-2.512C241.414,148.838,242.542,149.65,242.734,150.845z"/>
		<circle fill="#9CE870" cx="235.766" cy="154.481" r="1.432"/>
	</g>
	<g>
		<g>
			<g>
				<circle fill="#31A34A" cx="142.673" cy="259.529" r="4.045"/>
				<circle fill="#31A34A" cx="151.198" cy="228.671" r="4.046"/>
				<circle fill="#31A34A" cx="147.716" cy="234.836" r="4.045"/>
				<circle fill="#31A34A" cx="137.988" cy="252.574" r="4.046"/>
				<circle fill="#31A34A" cx="138.784" cy="258.447" r="3.203"/>
				<circle fill="#31A34A" cx="142.871" cy="228.76" r="1.433"/>
				<circle fill="#31A34A" cx="129.721" cy="253.325" r="1.432"/>
				<circle fill="#31A34A" cx="132.495" cy="258.184" r="2.191"/>
				<circle fill="#31A34A" cx="143.343" cy="235.465" r="2.192"/>
				<circle fill="#31A34A" cx="155.34" cy="231.108" r="5.184"/>
				<circle fill="#31A34A" cx="141.421" cy="241.01" r="5.184"/>
				<circle fill="#31A34A" cx="135.186" cy="246.392" r="5.184"/>
				<polygon fill="#31A34A" points="145.876,262.259 163.502,249.636 160.437,231.856 150.827,228.558 134.473,245.943 
					138.533,255.206 				"/>
			</g>
			<circle fill="#9CE870" cx="144.078" cy="242.112" r="1.183"/>
			<circle fill="#9CE870" cx="147.811" cy="237.094" r="2.192"/>
			<circle fill="#9CE870" cx="148.998" cy="242.793" r="1.432"/>
		</g>
		<g>
			<path fill="#67C44D" d="M198.36,273.888c0,0-2.227-2.676-4.54-4.225c-2.313-1.548-3.104-3.227-4.685-6.589
				c-1.579-3.359-7.673-7.801-7.673-7.801l-1.638,2.688c0,0,4.792,3.234,5.348,5.059c0.558,1.822,2.571,6.28,4.93,7.641
				C192.459,272.023,198.36,273.888,198.36,273.888z"/>
		</g>
		<g>
			<path fill="#31A34A" d="M179.111,259.029c0,0,8.359,4.729,17.229,6.232c4.898,0.832,10.593,3.503,10.593,3.503
				s1.992-5.013-4.594-7.94c-6.582-2.928-9.443,0.638-14.091-1.126c-4.646-1.763-8.151-3.163-8.151-3.163L179.111,259.029z"/>
		</g>
		<g>
			<path fill="#31A34A" d="M174.596,247.898l5.273-8.793c0,0,19.137,11.004,29.693,17.088c2.367,1.366,4.305,2.482,5.496,3.174
				c6.506,3.769,9.834,5.742,9.834,5.742l-10.278,26.178l-14.283-7.6c0,0,1.673-7.817,1.739-13.521
				c0.066-5.703-10.865-10.748-15.248-13.617C182.439,253.679,174.596,247.898,174.596,247.898z"/>
		</g>
		<g>
			<path fill="#67C44D" d="M166.767,275.358c-0.036-0.398,1.114-1.943,1.114-1.943s3.416,1.469,6.328,1.257
				c2.911-0.213,6.055-1.93,6.055-1.93l7.824,3.693c0,0-7.336,2.403-13.144,1.143C169.137,276.315,166.767,275.358,166.767,275.358z
				"/>
		</g>
		<g>
			<path fill="#67C44D" d="M170.592,268.603l2.111-9.894c0,0,9.251,6.192,17.749,6.656c8.571,0.468,11.787-3.305,27.71,4.062
				l-2.482,22.401L170.592,268.603z"/>
		</g>
		<g>
			<path fill="#9CE870" d="M216.407,291.489c-2.628,0-4.829-1.839-5.886-4.919c-1.244-3.622-0.711-8.977,3.396-12.175
				c2.744-2.136,4.094-4.678,5.179-6.721c0.973-1.832,1.676-3.156,2.907-3.19l0.22-0.004c2.115,0,3.743,0.909,4.466,2.494
				c0.895,1.958,0.304,4.498-1.542,6.629c-1.603,1.848-2.225,5.138-2.827,8.319c-0.908,4.799-1.765,9.332-5.571,9.557
				C216.635,291.486,216.521,291.489,216.407,291.489C216.407,291.489,216.407,291.489,216.407,291.489z"/>
			<path fill="#67C44D" d="M222.223,264.788c2.018,0,3.505,0.821,4.187,2.313c0.831,1.82,0.244,4.293-1.495,6.301
				c-1.657,1.91-2.287,5.241-2.896,8.463c-0.885,4.679-1.721,9.097-5.288,9.308c-0.109,0.006-0.217,0.009-0.325,0.009
				c-2.491,0-4.583-1.761-5.596-4.71c-1.209-3.522-0.694-8.729,3.294-11.833c2.796-2.177,4.164-4.751,5.262-6.819
				c1.017-1.915,1.641-3,2.644-3.028C222.083,264.789,222.154,264.788,222.223,264.788 M222.223,264.174
				c-0.076,0-0.151,0.001-0.229,0.003c-2.881,0.081-2.995,5.873-8.267,9.977c-7.024,5.469-4.332,17.644,2.679,17.644
				c0.12,0,0.239-0.004,0.361-0.011c6.762-0.398,4.758-13.538,8.612-17.981C229.035,269.585,227.58,264.174,222.223,264.174
				L222.223,264.174z"/>
		</g>
		<g>
			<circle fill="#67C44D" cx="186.067" cy="244.431" r="3.201"/>
			<circle fill="#67C44D" cx="183.471" cy="248.674" r="3.203"/>
			<circle fill="#67C44D" cx="172.446" cy="255.197" r="5.183"/>
			<circle fill="#67C44D" cx="178.846" cy="252.614" r="5.184"/>
			<circle fill="#67C44D" cx="155.113" cy="235.288" r="5.184"/>
			<circle fill="#67C44D" cx="175.408" cy="215.056" r="4.045"/>
			<circle fill="#67C44D" cx="189.215" cy="219.055" r="4.045"/>
			<circle fill="#67C44D" cx="192.461" cy="229.219" r="4.046"/>
			<circle fill="#67C44D" cx="189.461" cy="241.5" r="4.047"/>
			<circle fill="#67C44D" cx="156.099" cy="243.486" r="4.045"/>
			<circle fill="#67C44D" cx="164.562" cy="255.075" r="4.046"/>
			<circle fill="#67C44D" cx="158.798" cy="247.959" r="3.203"/>
			<circle fill="#67C44D" cx="157.833" cy="224.523" r="3.203"/>
			<circle fill="#67C44D" cx="191.844" cy="235.394" r="3.203"/>
			<circle fill="#67C44D" cx="197.582" cy="221.613" r="3.202"/>
			<circle fill="#67C44D" cx="156.034" cy="228.286" r="3.202"/>
			<circle fill="#67C44D" cx="186.592" cy="214.631" r="1.433"/>
			<path fill="#67C44D" d="M180.734,207.552c0.311,0.728-0.026,1.569-0.755,1.88c-0.726,0.311-1.568-0.027-1.88-0.756
				c-0.311-0.727,0.028-1.569,0.757-1.879C179.58,206.486,180.424,206.824,180.734,207.552z"/>
			<circle fill="#67C44D" cx="194.888" cy="215.396" r="1.431"/>
			<circle fill="#67C44D" cx="164.684" cy="249.108" r="5.183"/>
			<path fill="#67C44D" d="M191.715,231.129c1.125,2.632-0.098,5.678-2.728,6.804c-2.636,1.125-5.679-0.099-6.805-2.729
				s0.097-5.678,2.729-6.805C187.545,227.275,190.59,228.496,191.715,231.129z"/>
			<circle fill="#67C44D" cx="163.224" cy="221.93" r="5.184"/>
			<circle fill="#67C44D" cx="169.888" cy="218.333" r="5.184"/>
			<circle fill="#67C44D" cx="182.031" cy="216.718" r="5.183"/>
			<circle fill="#67C44D" cx="188.796" cy="224.826" r="5.184"/>
			<polygon fill="#67C44D" points="172.447,255.195 182.15,248.619 188.057,243.058 190.31,230.813 188.357,219.683 
				181.959,214.723 166.209,219.088 155.792,226.992 155.43,236.095 158.154,245.896 			"/>
		</g>
		<path fill="#31A34A" d="M199.115,252.357c0,0,0.943-3.578-1.916-7.235s-5.182-5.312-5.182-5.312l0.388-0.934
			c0,0,6.321,2.908,8.743,7.616c1.763,3.427,2.761,8.821,2.761,8.821L199.115,252.357z"/>
		<circle fill="#31A34A" cx="184.471" cy="220.778" r="3.203"/>
		<circle fill="#31A34A" cx="173.877" cy="220.563" r="2.262"/>
		<g>
			<g>
				<polyline fill="#9CE870" points="164.971,285.396 172.531,280.967 175.194,277.445 172.881,272.471 171.248,266.31 
					175.567,259.892 178.463,254.047 165.336,250.698 159.229,250.892 151.772,251.255 149.256,254.223 145.965,255.102 
					140.233,258.408 137.649,263.944 141.131,268.765 140.711,275.944 145.731,281.047 147.56,286.426 153.67,290.23 
					164.174,285.466 				"/>
				<g>
					<circle fill="#9CE870" cx="147.497" cy="255.946" r="4.046"/>
					<circle fill="#9CE870" cx="151.352" cy="252.172" r="4.045"/>
					<circle fill="#9CE870" cx="141.142" cy="277.044" r="4.046"/>
					<circle fill="#9CE870" cx="154.402" cy="289.969" r="4.046"/>
					<circle fill="#9CE870" cx="171.667" cy="274.312" r="4.046"/>
					<path fill="#9CE870" d="M172.545,277.288c2.174,0.521,3.513,2.704,2.99,4.878c-0.518,2.172-2.704,3.511-4.875,2.99
						c-2.172-0.52-3.513-2.703-2.991-4.875C168.188,278.107,170.371,276.767,172.545,277.288z"/>
					<circle fill="#9CE870" cx="139.999" cy="259.566" r="3.203"/>
					<circle fill="#9CE870" cx="134.849" cy="272.2" r="3.202"/>
					<circle fill="#9CE870" cx="137.649" cy="263.944" r="3.202"/>
					<circle fill="#9CE870" cx="160.505" cy="288.608" r="3.203"/>
					<circle fill="#9CE870" cx="174.043" cy="264.778" r="3.202"/>
					<circle fill="#9CE870" cx="172.658" cy="268.907" r="3.202"/>
					<circle fill="#9CE870" cx="167.507" cy="251.194" r="3.202"/>
					<circle fill="#9CE870" cx="156.283" cy="249.481" r="3.202"/>
					<circle fill="#9CE870" cx="143.154" cy="256.162" r="2.191"/>
					<circle fill="#9CE870" cx="138.711" cy="284.48" r="2.191"/>
					<circle fill="#9CE870" cx="159.604" cy="294.947" r="1.432"/>
					<circle fill="#9CE870" cx="167.676" cy="292.547" r="1.97"/>
					<circle fill="#9CE870" cx="145.662" cy="280.426" r="2.191"/>
					<circle fill="#9CE870" cx="175.017" cy="278.183" r="2.191"/>
					<circle fill="#9CE870" cx="143.08" cy="269.318" r="5.184"/>
					<circle fill="#9CE870" cx="147.813" cy="285.711" r="5.183"/>
					<circle fill="#9CE870" cx="166.198" cy="284.304" r="5.183"/>
					<circle fill="#9CE870" cx="171.62" cy="253.326" r="5.184"/>
					<circle fill="#9CE870" cx="162.935" cy="250.07" r="5.185"/>
					<circle fill="#9CE870" cx="175.8" cy="257.018" r="5.183"/>
				</g>
			</g>
			<circle fill="#31A34A" cx="152.825" cy="281.371" r="3.203"/>
			<path fill="#31A34A" d="M159.576,282.856c0.941,0.226,1.521,1.172,1.294,2.113c-0.223,0.941-1.171,1.522-2.112,1.298
				c-0.941-0.227-1.521-1.174-1.297-2.114C157.688,283.212,158.632,282.631,159.576,282.856z"/>
			<path fill="#31A34A" d="M160.221,275.184c1.216,0.29,1.964,1.511,1.673,2.727c-0.291,1.214-1.515,1.964-2.727,1.674
				c-1.218-0.292-1.968-1.513-1.676-2.728S159.004,274.892,160.221,275.184z"/>
			<path fill="#31A34A" d="M166.397,279.229c0.614,0.146,0.994,0.763,0.848,1.378c-0.15,0.613-0.766,0.992-1.379,0.846
				c-0.615-0.146-0.994-0.765-0.846-1.379C165.165,279.461,165.784,279.082,166.397,279.229z"/>
			<circle fill="#31A34A" cx="153.857" cy="288.101" r="1.251"/>
			<circle fill="#31A34A" cx="154.461" cy="275.478" r="1.251"/>
		</g>
		<circle fill="#31A34A" cx="178.241" cy="217.542" r="1.251"/>
		<circle fill="#31A34A" cx="178.078" cy="222.314" r="1.251"/>
		<path fill="#31A34A" d="M176.425,225.765c0.67,0.16,1.085,0.836,0.923,1.508c-0.158,0.673-0.836,1.086-1.506,0.926
			c-0.674-0.161-1.086-0.838-0.926-1.508C175.077,226.019,175.753,225.604,176.425,225.765z"/>
	</g>
	<g>
		<g>
			<path fill="#67C44D" d="M251.754,234.944c0.546-0.917,4.669,5.409,4.669,5.409s-5.733,10.775-5.271,17.873
				c0.636,9.799,7.496,8.689,5.924,17.509c-1.135,6.384-15.834,23.224-15.834,23.224l-13.014,3.016c0,0,8.893-21.344,10.421-31.395
				C240.611,257.705,240.199,254.359,251.754,234.944z"/>
		</g>
		<g>
			<path fill="#67C44D" d="M262.159,245.595c-1.298,2.172-3.275,4.342-6.057,5.463c-3.131,1.26-7.199,1.693-8.296,4.951
				l-1.595,9.199l2.719,0.007c0,0,0.3-4.157,2.222-6.989c1.92-2.833,6.199-2.413,9.145-6.262c2.941-3.852,3.808-5.102,3.808-5.102
				L262.159,245.595z"/>
		</g>
		<g>
			<path fill="#31A34A" d="M277.438,251.322l3.898,13.766c0,0-20.702,22.807-23.828,30.781c-3.128,7.974-7.053,15.73-7.053,15.73
				l-9.213-12.641l-4.488-3.359c0,0,8.901-18.266,18.117-23.468C264.161,266.889,267.556,266.983,277.438,251.322z"/>
		</g>
		<path fill="#117F36" d="M257.508,295.869c3.126-7.975,23.828-30.781,23.828-30.781l-1.13-3.992l-0.483-0.729
			c0,0-14.056,11.169-20.303,19.244c-6.249,8.072-14.213,24.205-14.213,24.205s4.338,2.395,6.687,5.871
			C253.091,307.511,254.64,303.18,257.508,295.869z"/>
		<g>
			<path fill="#117F36" d="M283.706,270.096l2.5,3.772c0,0-9.891,9.334-13.752,10.467c-3.863,1.135-9.24,1.104-9.24,1.104
				l5.716-8.672c0,0,1.595,1.793,6.306-0.311C279.945,274.353,283.706,270.096,283.706,270.096z"/>
		</g>
		<path fill="#31A34A" d="M245.243,230.031l1.484,0.465c0,0-0.93,2.967,0.047,5.668c0.976,2.699,2.583,3.624,2.583,3.624
			s0.501,1.667-0.052,3.472c-0.554,1.805-2.243,2.21-2.243,2.21s-3.143-5.696-2.8-9
			C244.609,233.168,245.243,230.031,245.243,230.031z"/>
		<g>
			<path fill="#67C44D" d="M248.359,312.203c-0.815,0-1.844-0.464-3.336-1.504c-2.53-1.765-5.376-1.846-8.388-1.932
				c-0.881-0.025-1.774-0.051-2.673-0.121c-1.692-0.131-3.289-1.085-4.38-2.617c-0.932-1.309-1.347-2.87-1.057-3.977
				c0.602-2.303,2.386-6.165,7.582-6.165c0.205,0,0.415,0.006,0.629,0.019c2.44,0.143,3.346,1.008,4.717,2.318
				c1.283,1.227,2.882,2.754,6.348,4.276c2.632,1.155,4.071,2.679,4.279,4.528c0.231,2.061-1.145,3.832-1.808,4.323
				C249.599,311.85,249.067,312.203,248.359,312.203L248.359,312.203z"/>
			<path fill="#31A34A" d="M236.108,296.195c0.199,0,0.403,0.006,0.61,0.018c2.328,0.137,3.201,0.971,4.522,2.233
				c1.302,1.244,2.921,2.792,6.438,4.336c2.523,1.108,3.902,2.549,4.097,4.281c0.205,1.822-0.996,3.532-1.685,4.042
				c-0.627,0.463-1.117,0.79-1.731,0.79c-0.738,0-1.742-0.46-3.16-1.448c-2.605-1.817-5.495-1.899-8.555-1.987
				c-0.87-0.024-1.769-0.051-2.657-0.12c-1.603-0.124-3.116-1.031-4.154-2.488c-0.881-1.238-1.277-2.698-1.009-3.722
				C229.402,299.913,231.117,296.195,236.108,296.195 M236.108,295.58c-4.481,0-6.952,2.843-7.879,6.395
				c-0.643,2.452,1.801,6.676,5.71,6.979c3.908,0.305,7.715-0.229,10.908,1.998c1.63,1.136,2.681,1.56,3.512,1.56
				c0.797,0,1.391-0.389,2.097-0.911c1.44-1.067,4.611-6.244-2.53-9.38c-7.145-3.138-6.276-6.334-11.171-6.62
				C236.534,295.587,236.319,295.58,236.108,295.58L236.108,295.58z"/>
		</g>
		<g>
			<circle fill="#31A34A" cx="242.445" cy="195.167" r="1.433"/>
			<circle fill="#31A34A" cx="314.7" cy="224.574" r="1.433"/>
			<circle fill="#31A34A" cx="249.195" cy="189.179" r="2.191"/>
			<circle fill="#31A34A" cx="294.107" cy="178.209" r="2.191"/>
			<circle fill="#31A34A" cx="310.895" cy="232.206" r="2.739"/>
			<path fill="#31A34A" d="M309.689,215.031c-0.138-0.079-0.283-0.125-0.423-0.19c0.081-0.098,0.155-0.2,0.224-0.314
				c0.604-1.048,0.241-2.388-0.808-2.991c-0.139-0.081-0.282-0.141-0.428-0.188c0.002-0.002,0.003-0.005,0.005-0.008
				c0.59-1.023,0.539-2.23-0.011-3.186c0.155-0.114,0.292-0.258,0.393-0.436c0.396-0.686,0.157-1.562-0.526-1.956
				c-0.048-0.028-0.102-0.03-0.154-0.051c0.304-1.333-0.261-2.759-1.504-3.479c0.102-0.59,0.098-1.182-0.003-1.763
				c0.447-0.379,0.851-0.825,1.163-1.365c1.426-2.481,0.57-5.65-1.911-7.078c-1.144-0.658-2.431-0.81-3.63-0.563
				c-0.034-0.627-0.276-1.227-0.69-1.712c0.633-1.804-0.08-3.855-1.798-4.842c-1.486-0.854-3.28-0.653-4.545,0.358
				c-0.103-0.329-0.314-0.627-0.639-0.811c-0.493-0.284-1.081-0.23-1.521,0.071c-0.185-0.3-0.435-0.565-0.762-0.753
				c-0.53-0.305-1.134-0.362-1.68-0.21c-0.37-1.217-1.173-2.305-2.365-2.988c-0.864-0.5-1.815-0.704-2.745-0.674
				c0.141-0.874-0.253-1.783-1.065-2.25c-1.049-0.604-2.39-0.242-2.993,0.808c-0.201,0.352-0.288,0.737-0.281,1.117
				c-0.044-0.026-0.076-0.059-0.118-0.083c-1.533-0.882-3.492-0.354-4.374,1.179c-0.037,0.065-0.055,0.135-0.089,0.203
				c-0.161-0.188-0.349-0.357-0.573-0.488c-0.935-0.538-2.098-0.306-2.767,0.493c-0.299-0.469-0.698-0.881-1.215-1.179
				c-1.715-0.986-3.905-0.395-4.892,1.32c-0.117,0.203-0.209,0.414-0.282,0.627c-0.837,0.01-1.643,0.439-2.092,1.217
				c-0.216,0.375-0.311,0.785-0.314,1.188c-1.205-0.011-2.378,0.58-3.062,1.666c-0.229-0.236-0.477-0.452-0.776-0.623
				c-1.713-0.987-3.905-0.397-4.89,1.318c-0.424,0.737-0.542,1.56-0.415,2.338c-0.622,0.106-1.198,0.469-1.538,1.058
				c-0.183,0.316-0.265,0.656-0.281,0.995c-1.217-0.122-2.45,0.456-3.097,1.585c-0.09,0.152-0.153,0.311-0.213,0.471
				c-1.448-0.556-3.122-0.002-3.919,1.384c-0.517,0.899-0.537,1.942-0.166,2.831c-1.086,0.324-2.061,1.041-2.668,2.101
				c-0.483,0.838-0.668,1.762-0.595,2.659c-1.596-0.004-3.148,0.802-4,2.284c-1.265,2.198-0.508,5.007,1.691,6.272
				c0.32,0.185,0.657,0.313,0.995,0.414c-0.06,0.403-0.038,0.808,0.053,1.198c-1.006,0.089-1.957,0.647-2.499,1.59
				c-0.343,0.598-0.467,1.259-0.408,1.899c-1.152-0.049-2.294,0.517-2.911,1.588c-0.882,1.532-0.353,3.491,1.18,4.373
				c0.26,0.149,0.531,0.244,0.809,0.314c-1.028,1.919-0.361,4.32,1.539,5.411c0.477,0.274,0.981,0.438,1.494,0.505
				c-0.273,1.257,0.263,2.597,1.439,3.273c0.896,0.518,1.946,0.521,2.817,0.107c0.191,0.771,0.682,1.469,1.424,1.896
				c0.673,0.387,1.426,0.476,2.131,0.329c-0.055,1.159,0.514,2.31,1.588,2.929c0.442,0.253,0.915,0.377,1.392,0.406
				c-0.504,1.428,0.061,3.055,1.42,3.836c0.889,0.511,1.917,0.535,2.8,0.176c-0.248,1.604,0.48,3.267,1.974,4.125
				c1.224,0.703,2.658,0.691,3.833,0.104c0.206,1.129,0.872,2.165,1.943,2.782c1.426,0.819,3.136,0.669,4.387-0.235
				c0.308,0.887,0.908,1.678,1.788,2.184c1.776,1.021,3.992,0.529,5.209-1.053c0.435,0.929,1.145,1.74,2.1,2.291
				c2.268,1.302,5.088,0.688,6.652-1.313c0.178,0.15,0.364,0.292,0.575,0.413c1.797,1.035,4.05,0.517,5.255-1.112
				c0.095,0.354,0.323,0.675,0.668,0.874c0.687,0.395,1.562,0.157,1.957-0.528c0.126-0.22,0.164-0.458,0.171-0.694
				c0.78,0.025,1.554-0.361,1.972-1.088c0.374-0.65,0.375-1.413,0.072-2.043c1.098-0.179,2.105-0.8,2.747-1.797
				c0.041,0.025,0.075,0.06,0.119,0.084c2.479,1.428,5.65,0.574,7.077-1.908c0.877-1.523,0.887-3.305,0.192-4.785
				c0.444-0.271,0.839-0.641,1.115-1.124c0.677-1.177,0.517-2.601-0.285-3.599c0.279-0.117,0.535-0.303,0.698-0.587
				c0.39-0.675,0.162-1.529-0.499-1.933c0.258-0.179,0.486-0.412,0.653-0.702c0.211-0.366,0.298-0.769,0.285-1.163
				c0.867-0.176,1.662-0.699,2.137-1.527c0.346-0.602,0.469-1.267,0.406-1.907c1.132-0.396,2.141-1.165,2.786-2.286
				C313.025,219.628,312.169,216.459,309.689,215.031z M290.182,247.145c-0.049,0.021-0.096,0.046-0.144,0.071
				c0.02-0.096,0.054-0.189,0.063-0.285C290.125,247.006,290.154,247.076,290.182,247.145z"/>
		</g>
		<path fill="#117F36" d="M261.416,244.867c0.206,1.129,0.872,2.165,1.943,2.782c1.426,0.819,3.136,0.669,4.387-0.235
			c0.308,0.887,0.908,1.678,1.788,2.184c1.776,1.021,3.992,0.529,5.209-1.053c0.435,0.929,1.145,1.74,2.1,2.291
			c2.268,1.302,5.088,0.688,6.652-1.313c0.178,0.15,0.364,0.292,0.575,0.413c1.797,1.035,4.05,0.517,5.255-1.112
			c0.095,0.354,0.323,0.675,0.668,0.874c0.687,0.395,1.562,0.157,1.957-0.528c0.126-0.22,0.164-0.458,0.171-0.694
			c0.78,0.025,1.554-0.361,1.972-1.088c0.374-0.65,0.375-1.413,0.072-2.043c1.098-0.179,2.105-0.8,2.747-1.797
			c0.041,0.025,0.075,0.06,0.119,0.084c2.479,1.428,5.65,0.574,7.077-1.908c0.877-1.523,0.887-3.305,0.192-4.785
			c0.444-0.271,0.839-0.641,1.115-1.124c0.677-1.177,0.517-2.601-0.285-3.599c0.279-0.117,0.535-0.303,0.698-0.587
			c0.39-0.675,0.162-1.529-0.499-1.933c0.258-0.179,0.486-0.412,0.653-0.702c0.211-0.366,0.298-0.769,0.285-1.163
			c0.867-0.176,1.662-0.699,2.137-1.527c0.346-0.602,0.469-1.267,0.406-1.907c1.132-0.396,2.141-1.165,2.786-2.286
			c1.427-2.481,0.571-5.65-1.909-7.078c-0.138-0.079-0.283-0.125-0.423-0.19c0.081-0.098,0.155-0.2,0.224-0.314
			c0.604-1.048,0.241-2.388-0.808-2.991c-0.139-0.081-0.282-0.141-0.428-0.188c0.002-0.002,0.003-0.005,0.005-0.008
			c0.59-1.023,0.539-2.23-0.011-3.186c0.155-0.114,0.292-0.258,0.393-0.436c0.396-0.686,0.157-1.562-0.526-1.956
			c-0.048-0.028-0.102-0.03-0.154-0.051c0.304-1.333-0.261-2.759-1.504-3.479c0.07-0.407,0.073-0.812,0.045-1.215
			c-18.184,5.194-56.71,16.19-70.312,20.017c0.173,0.157,0.358,0.3,0.567,0.42c0.26,0.149,0.531,0.244,0.809,0.314
			c-1.028,1.919-0.361,4.32,1.539,5.411c0.477,0.274,0.981,0.438,1.494,0.505c-0.273,1.257,0.263,2.597,1.439,3.273
			c0.896,0.518,1.946,0.521,2.817,0.107c0.191,0.771,0.682,1.469,1.424,1.896c0.673,0.387,1.426,0.476,2.131,0.329
			c-0.055,1.159,0.514,2.31,1.588,2.929c0.442,0.253,0.915,0.377,1.392,0.406c-0.504,1.428,0.061,3.055,1.42,3.836
			c0.889,0.511,1.917,0.535,2.8,0.176c-0.248,1.604,0.48,3.267,1.974,4.125C258.807,245.467,260.241,245.455,261.416,244.867z
			 M290.102,246.931c0.023,0.074,0.052,0.145,0.08,0.214c-0.049,0.021-0.096,0.046-0.144,0.071
			C290.058,247.121,290.092,247.027,290.102,246.931z"/>
		<circle fill="#67C44D" cx="249.2" cy="219.18" r="4.047"/>
		<circle fill="#67C44D" cx="292.934" cy="231.647" r="3.202"/>
		<path fill="#67C44D" d="M271.282,235.14c-0.881,1.533-2.841,2.061-4.373,1.18c-1.533-0.882-2.061-2.841-1.182-4.374
			c0.885-1.532,2.843-2.062,4.375-1.179C271.636,231.648,272.165,233.607,271.282,235.14z"/>
		<circle fill="#67C44D" cx="246.774" cy="206.408" r="1.433"/>
		<circle fill="#67C44D" cx="294.43" cy="212.817" r="1.433"/>
		<circle fill="#67C44D" cx="288.545" cy="238.604" r="1.432"/>
		<circle fill="#67C44D" cx="252.297" cy="228.254" r="1.434"/>
		<circle fill="#67C44D" cx="284.228" cy="227.176" r="1.434"/>
		<circle fill="#67C44D" cx="267.395" cy="240.635" r="2.191"/>
		<circle fill="#67C44D" cx="256.766" cy="221.831" r="2.193"/>
		<circle fill="#67C44D" cx="274.58" cy="237.523" r="2.191"/>
		<path fill="#31A34A" d="M251.153,258.226c-0.463-7.098,5.271-17.873,5.271-17.873s-0.9-1.381-1.916-2.758
			c-0.106,0.214-0.211,0.416-0.32,0.644c-6.515,13.61-6.991,26.61-4.706,35.069c1.076,3.998,2.479,7.59,3.663,10.274
			c2.023-3.066,6.674-7.497,6.65-9.445C259.707,266.26,251.788,268.025,251.153,258.226z"/>
		<g>
			<g>
				<circle fill="#67C44D" cx="269.233" cy="247.331" r="4.046"/>
				<circle fill="#67C44D" cx="274.035" cy="240.078" r="4.046"/>
				<circle fill="#67C44D" cx="288.399" cy="240.465" r="4.046"/>
				<circle fill="#67C44D" cx="296.728" cy="245.256" r="4.046"/>
				<circle fill="#67C44D" cx="301.633" cy="247.298" r="4.046"/>
				<circle fill="#67C44D" cx="314.285" cy="258.856" r="4.046"/>
				<circle fill="#67C44D" cx="314.663" cy="269.866" r="4.046"/>
				<circle fill="#67C44D" cx="270.148" cy="250.386" r="4.046"/>
				<circle fill="#67C44D" cx="275.363" cy="252.901" r="4.046"/>
				<circle fill="#67C44D" cx="304.56" cy="276.696" r="4.047"/>
				<circle fill="#67C44D" cx="292.536" cy="242.99" r="3.202"/>
				<path fill="#67C44D" d="M310.625,253.978c-0.884,1.533-2.841,2.062-4.375,1.18c-1.531-0.883-2.061-2.84-1.179-4.374
					c0.879-1.532,2.841-2.061,4.374-1.179C310.977,250.486,311.505,252.445,310.625,253.978z"/>
				<path fill="#67C44D" d="M315.023,255.293c-0.882,1.533-2.838,2.063-4.375,1.179c-1.531-0.881-2.059-2.839-1.18-4.373
					c0.885-1.532,2.843-2.062,4.374-1.179C315.376,251.802,315.906,253.76,315.023,255.293z"/>
				<circle fill="#67C44D" cx="317.857" cy="266.259" r="3.202"/>
				<circle fill="#67C44D" cx="283.776" cy="268.874" r="3.203"/>
				<circle fill="#67C44D" cx="294.374" cy="274.628" r="3.203"/>
				<circle fill="#67C44D" cx="268.913" cy="244.084" r="1.434"/>
				<circle fill="#67C44D" cx="269.301" cy="241.292" r="2.191"/>
				<circle fill="#67C44D" cx="304.979" cy="250.1" r="2.191"/>
				<circle fill="#67C44D" cx="317.794" cy="262.479" r="2.192"/>
				<circle fill="#67C44D" cx="281.936" cy="265.481" r="2.192"/>
				<circle fill="#67C44D" cx="298.605" cy="275.895" r="2.192"/>
				<circle fill="#67C44D" cx="281.561" cy="242.463" r="5.185"/>
				<circle fill="#67C44D" cx="279.723" cy="260.368" r="5.185"/>
				<circle fill="#67C44D" cx="312.376" cy="274.774" r="5.184"/>
				<path fill="#67C44D" d="M292.649,275.679c-1.427,2.481-4.594,3.337-7.077,1.909c-2.48-1.429-3.335-4.597-1.908-7.079
					c1.427-2.481,4.595-3.336,7.079-1.908C293.221,270.029,294.077,273.198,292.649,275.679z"/>
			</g>
			<polygon fill="#67C44D" points="311.653,275.525 318.234,265.601 312.806,255.767 297.612,243.721 281.073,240.432 
				271.193,240.875 268.388,246.261 275.363,252.9 279.983,261.099 287.166,271.943 299.672,275.051 307.23,275.605 			"/>
			<circle fill="#31A34A" cx="309.368" cy="263.855" r="4.047"/>
			<path fill="#31A34A" d="M312.295,273.9c-0.882,1.533-2.843,2.061-4.374,1.18c-1.534-0.883-2.062-2.841-1.18-4.374
				c0.879-1.533,2.838-2.061,4.374-1.179C312.647,270.409,313.174,272.367,312.295,273.9z"/>
			<circle fill="#31A34A" cx="302.346" cy="253.156" r="1.18"/>
			<circle fill="#31A34A" cx="302.545" cy="257.548" r="1.432"/>
			<circle fill="#31A34A" cx="307.382" cy="256.49" r="1.433"/>
			<circle fill="#31A34A" cx="302.974" cy="268.297" r="2.192"/>
		</g>
		<g>
			<path fill="#31A34A" d="M268.051,249.131l1.621,0.982c-0.959,1.927-3.224,3.82-2.945,6.475
				c0.634,6.003,1.807,13.096,1.807,13.096l-17.798,14.121c0,0,9.395-15.613,11.584-19.884
				C264.682,259.301,261.626,258.272,268.051,249.131z"/>
		</g>
	</g>
</g>
</svg>
