<?xml version="1.0" encoding="utf-8"?>
<!-- Generator: Adobe Illustrator 18.1.1, SVG Export Plug-In . SVG Version: 6.00 Build 0)  -->
<svg version="1.1" id="Layer_2" xmlns="http://www.w3.org/2000/svg" xmlns:xlink="http://www.w3.org/1999/xlink" x="0px" y="0px"
	 width="450px" height="450px" viewBox="-74 76 450 450" enable-background="new -74 76 450 450" xml:space="preserve">
<g>
	<g opacity="0.3">
		<circle cx="216.674" cy="302.373" r="12.033"/>
		<circle cx="204.641" cy="318.413" r="12.033"/>
		<circle cx="234.962" cy="281.404" r="8.028"/>
		<path d="M232.73,314.407c0,4.434-3.595,8.026-8.026,8.026c-4.436,0-8.029-3.593-8.029-8.026c0-4.436,3.594-8.028,8.029-8.028
			C229.135,306.379,232.73,309.971,232.73,314.407z"/>
		<path d="M228.707,314.407c0,4.434-3.592,8.026-8.028,8.026c-4.434,0-8.026-3.593-8.026-8.026c0-4.436,3.593-8.028,8.026-8.028
			C225.116,306.379,228.707,309.971,228.707,314.407z"/>
		<circle cx="77.181" cy="339.608" r="12.034"/>
		<circle cx="84.641" cy="318.934" r="12.034"/>
		<circle cx="72.845" cy="293.796" r="12.035"/>
		<circle cx="123.725" cy="365.658" r="12.033"/>
		<circle cx="166.155" cy="365.658" r="12.033"/>
		<circle cx="82.633" cy="304.762" r="12.033"/>
		<circle cx="90.246" cy="278.739" r="8.028"/>
		<circle cx="142.09" cy="365.658" r="8.028"/>
		<circle cx="168.657" cy="241.946" r="12.034"/>
		<circle cx="216.674" cy="259.619" r="12.033"/>
		<circle cx="202.385" cy="247.587" r="12.033"/>
		<circle cx="184.662" cy="355.309" r="12.033"/>
		<circle cx="232.059" cy="271.29" r="12.033"/>
		<path d="M232.73,271.653c0,4.434-3.595,8.026-8.026,8.026c-4.436,0-8.029-3.593-8.029-8.026c0-4.436,3.594-8.028,8.029-8.028
			C229.135,263.625,232.73,267.217,232.73,271.653z"/>
		<path d="M228.707,271.653c0,4.434-3.592,8.026-8.028,8.026c-4.434,0-8.026-3.593-8.026-8.026c0-4.436,3.593-8.028,8.026-8.028
			C225.116,263.625,228.707,267.217,228.707,271.653z"/>
		<circle cx="112.711" cy="251.572" r="12.034"/>
		<circle cx="131.773" cy="245.177" r="12.034"/>
		<circle cx="90.972" cy="353.624" r="12.034"/>
		<circle cx="82.08" cy="286.315" r="12.033"/>
		<circle cx="200.483" cy="339.608" r="12.033"/>
		<circle cx="90.108" cy="236.154" r="8.029"/>
		<circle cx="140.88" cy="253.879" r="8.027"/>
		<circle cx="86.144" cy="271.633" r="8.028"/>
		<path d="M187.452,355.309l12.303-18.758l8.336-23.44l12.59-15.89l11.379-13.898l-10.071-17.047l-40.911-26.796
			c0,0-37.121,3.917-40.195,4.332c-3.075,0.415-32.664,4.029-32.664,4.029l-23.283,29.958l-4.98,24.771l4.142,24.354l-6.915,12.684
			l19.495,18.021l17.951,8.065l38.288,2.475L187.452,355.309z"/>
		<circle cx="230.856" cy="292.37" r="12.033"/>
		<circle cx="155.728" cy="367.661" r="12.034"/>
		<circle cx="106.598" cy="365.657" r="8.028"/>
		<circle cx="68.213" cy="327.576" r="8.027"/>
		<circle cx="187.72" cy="235.551" r="9.634"/>
		<circle cx="98.176" cy="262.1" r="12.033"/>
		<circle cx="147.776" cy="240.917" r="12.033"/>
		<circle cx="165.114" cy="266.898" r="6.654"/>
		<circle cx="93.071" cy="324.946" r="6.654"/>
		<circle cx="162.631" cy="302.869" r="12.034"/>
		<circle cx="202.5" cy="295.299" r="7.832"/>
		<circle cx="208.606" cy="285.671" r="7.833"/>
		<circle cx="183.828" cy="283.323" r="7.833"/>
		<circle cx="196.576" cy="315.415" r="7.833"/>
		<circle cx="193.339" cy="327.335" r="5.884"/>
		<circle cx="109.017" cy="291.155" r="5.883"/>
		<circle cx="126.086" cy="314.678" r="8.539"/>
		<circle cx="103.352" cy="344.938" r="8.539"/>
		<circle cx="147.092" cy="333.329" r="8.539"/>
		<circle cx="112.348" cy="257.114" r="8.539"/>
		<circle cx="143.807" cy="295.299" r="8.539"/>
		<circle cx="120.383" cy="341.712" r="12.034"/>
		<circle cx="95.121" cy="296.171" r="12.033"/>
		<circle cx="135.741" cy="269.024" r="5.333"/>
		<circle cx="118.405" cy="308.204" r="5.334"/>
		<circle cx="180.106" cy="337.866" r="8.172"/>
		<path d="M203.231,264.706c0,5.157-4.182,9.338-9.34,9.338c-5.156,0-9.338-4.181-9.338-9.338c0-5.16,4.182-9.34,9.338-9.34
			C199.049,255.366,203.231,259.546,203.231,264.706z"/>
		<circle cx="95.675" cy="306.255" r="7.351"/>
		<path d="M96.807,309.866c-3.168,1.592-4.439,0.826-7.355,0.289c1.303,2.071,3.598,3.451,6.224,3.451
			c4.06,0,7.351-3.291,7.351-7.352c0-1.559-0.488-3.004-1.318-4.192C101.44,304.635,101.125,307.698,96.807,309.866z"/>
		<circle cx="93.071" cy="302.952" r="1.685"/>
		<circle cx="157.432" cy="255.238" r="9.53"/>
		<path d="M158.901,259.92c-4.106,2.063-5.757,1.071-9.536,0.375c1.688,2.685,4.664,4.474,8.068,4.474
			c5.264,0,9.529-4.267,9.529-9.53c0-2.022-0.633-3.893-1.708-5.436C164.908,253.137,164.498,257.108,158.901,259.92z"/>
		<circle cx="154.057" cy="250.956" r="2.184"/>
		<circle cx="213.79" cy="262.743" r="9.53"/>
		<path d="M215.258,267.424c-4.106,2.064-5.756,1.071-9.535,0.375c1.688,2.685,4.664,4.475,8.067,4.475
			c5.264,0,9.53-4.268,9.53-9.531c0-2.021-0.633-3.894-1.709-5.435C221.265,260.643,220.856,264.613,215.258,267.424z"/>
		<circle cx="210.414" cy="258.461" r="2.184"/>
		<circle cx="149.197" cy="295.339" r="7.914"/>
		<path d="M150.416,299.226c-3.409,1.714-4.779,0.889-7.918,0.311c1.401,2.229,3.873,3.715,6.699,3.715
			c4.371,0,7.913-3.544,7.913-7.914c0-1.68-0.525-3.234-1.418-4.514C155.405,293.594,155.065,296.891,150.416,299.226z"/>
		<circle cx="146.394" cy="291.782" r="1.813"/>
		<circle cx="154.422" cy="309.063" r="7.914"/>
		<path d="M155.641,312.952c-3.41,1.713-4.779,0.889-7.918,0.31c1.4,2.229,3.873,3.715,6.699,3.715c4.371,0,7.913-3.543,7.913-7.914
			c0-1.678-0.524-3.233-1.418-4.514C160.629,307.319,160.289,310.617,155.641,312.952z"/>
		<circle cx="151.618" cy="305.508" r="1.813"/>
		<circle cx="134.061" cy="308.6" r="7.914"/>
		<path d="M135.281,312.488c-3.409,1.714-4.78,0.89-7.919,0.311c1.402,2.229,3.873,3.715,6.7,3.715c4.37,0,7.913-3.544,7.913-7.914
			c0-1.679-0.525-3.234-1.418-4.514C140.268,306.856,139.928,310.153,135.281,312.488z"/>
		<circle cx="131.258" cy="305.044" r="1.814"/>
		<circle cx="231.349" cy="293.645" r="11.752"/>
		<path d="M233.159,299.419c-5.064,2.545-7.099,1.322-11.76,0.463c2.082,3.31,5.753,5.518,9.951,5.518
			c6.49,0,11.751-5.263,11.751-11.754c0-2.494-0.78-4.802-2.107-6.703C240.568,291.055,240.062,295.952,233.159,299.419z"/>
		<path d="M229.879,288.363c0,1.487-1.205,2.692-2.693,2.692c-1.484,0-2.693-1.205-2.693-2.692c0-1.486,1.209-2.692,2.693-2.692
			C228.674,285.671,229.879,286.877,229.879,288.363z"/>
		<circle cx="189.996" cy="268.956" r="9.333"/>
		<path d="M191.434,273.541c-4.021,2.022-5.639,1.048-9.339,0.367c1.652,2.63,4.567,4.382,7.901,4.382
			c5.154,0,9.333-4.18,9.333-9.334c0-1.979-0.619-3.814-1.673-5.323C197.317,266.898,196.915,270.788,191.434,273.541z"/>
		<circle cx="186.69" cy="264.76" r="2.139"/>
		<circle cx="196.695" cy="350.585" r="7.914"/>
		<path d="M197.914,354.473c-3.41,1.713-4.78,0.889-7.918,0.311c1.4,2.228,3.873,3.715,6.699,3.715c4.371,0,7.913-3.543,7.913-7.914
			c0-1.68-0.524-3.234-1.418-4.514C202.903,348.841,202.563,352.137,197.914,354.473z"/>
		<circle cx="193.892" cy="347.028" r="1.814"/>
		<circle cx="210.414" cy="328.758" r="7.913"/>
		<path d="M211.633,332.645c-3.409,1.715-4.779,0.891-7.918,0.312c1.401,2.229,3.873,3.715,6.699,3.715
			c4.371,0,7.913-3.543,7.913-7.914c0-1.68-0.524-3.234-1.418-4.514C216.621,327.014,216.282,330.311,211.633,332.645z"/>
		<circle cx="207.611" cy="325.202" r="1.813"/>
		<circle cx="215.172" cy="316.796" r="9.602"/>
		<path d="M216.651,321.512c-4.137,2.08-5.8,1.078-9.607,0.379c1.701,2.703,4.7,4.506,8.129,4.506c5.303,0,9.601-4.299,9.601-9.602
			c0-2.037-0.637-3.924-1.721-5.478C222.703,314.678,222.291,318.68,216.651,321.512z"/>
		<path d="M213.971,312.481c0,1.214-0.984,2.197-2.199,2.197c-1.215,0-2.201-0.983-2.201-2.197c0-1.217,0.986-2.202,2.201-2.202
			C212.987,310.279,213.971,311.264,213.971,312.481z"/>
		<circle cx="225.943" cy="306.9" r="7.914"/>
		<path d="M227.162,310.788c-3.41,1.714-4.78,0.889-7.918,0.312c1.4,2.229,3.873,3.715,6.699,3.715c4.371,0,7.913-3.544,7.913-7.914
			c0-1.679-0.525-3.233-1.418-4.514C232.151,305.156,231.811,308.454,227.162,310.788z"/>
		<circle cx="223.14" cy="303.344" r="1.813"/>
		<circle cx="144.891" cy="326.993" r="9.53"/>
		<path d="M146.36,331.674c-4.107,2.062-5.757,1.07-9.535,0.375c1.688,2.684,4.663,4.475,8.067,4.475
			c5.264,0,9.529-4.268,9.529-9.531c0-2.021-0.632-3.895-1.708-5.435C152.367,324.893,151.957,328.862,146.36,331.674z"/>
		<circle cx="141.516" cy="322.71" r="2.184"/>
		<circle cx="119.738" cy="262.658" r="9.53"/>
		<path d="M121.206,267.34c-4.106,2.064-5.757,1.071-9.536,0.375c1.688,2.684,4.664,4.474,8.068,4.474
			c5.264,0,9.529-4.268,9.529-9.53c0-2.022-0.633-3.895-1.708-5.436C127.213,260.557,126.803,264.528,121.206,267.34z"/>
		<circle cx="116.363" cy="258.376" r="2.185"/>
		<circle cx="108.149" cy="347.038" r="9.529"/>
		<path d="M109.618,351.719c-4.107,2.064-5.758,1.07-9.536,0.375c1.688,2.684,4.664,4.475,8.067,4.475
			c5.264,0,9.529-4.268,9.529-9.531c0-2.021-0.632-3.895-1.707-5.435C115.623,344.938,115.214,348.909,109.618,351.719z"/>
		<circle cx="104.773" cy="342.755" r="2.184"/>
		<circle cx="167.762" cy="372.018" r="7.914"/>
		<path d="M168.981,375.905c-3.409,1.715-4.779,0.891-7.918,0.312c1.401,2.228,3.873,3.715,6.699,3.715
			c4.372,0,7.913-3.543,7.913-7.914c0-1.68-0.524-3.232-1.418-4.514C173.969,370.274,173.629,373.571,168.981,375.905z"/>
		<circle cx="164.958" cy="368.462" r="1.814"/>
		<circle cx="175.685" cy="363.147" r="7.913"/>
		<path d="M176.905,367.036c-3.41,1.713-4.78,0.889-7.918,0.311c1.4,2.23,3.873,3.715,6.699,3.715c4.371,0,7.912-3.543,7.912-7.914
			c0-1.678-0.523-3.232-1.418-4.514C181.893,361.403,181.553,364.702,176.905,367.036z"/>
		<circle cx="172.882" cy="359.591" r="1.813"/>
		<circle cx="226.933" cy="260.069" r="7.914"/>
		<path d="M228.153,263.958c-3.409,1.713-4.779,0.889-7.918,0.311c1.401,2.23,3.873,3.715,6.699,3.715
			c4.371,0,7.913-3.542,7.913-7.914c0-1.678-0.524-3.232-1.418-4.514C233.141,258.325,232.801,261.623,228.153,263.958z"/>
		<circle cx="224.13" cy="256.513" r="1.814"/>
		<circle cx="168.987" cy="234.651" r="7.914"/>
		<path d="M170.205,238.538c-3.409,1.714-4.779,0.89-7.918,0.312c1.401,2.229,3.873,3.714,6.699,3.714
			c4.372,0,7.914-3.542,7.914-7.913c0-1.68-0.525-3.234-1.418-4.515C175.194,232.906,174.854,236.204,170.205,238.538z"/>
		<circle cx="166.183" cy="231.094" r="1.814"/>
		<circle cx="134" cy="238.407" r="7.914"/>
		<path d="M135.219,242.296c-3.409,1.713-4.779,0.889-7.918,0.311c1.4,2.23,3.873,3.715,6.699,3.715
			c4.371,0,7.913-3.543,7.913-7.914c0-1.679-0.524-3.233-1.418-4.514C140.207,236.663,139.868,239.961,135.219,242.296z"/>
		<circle cx="131.197" cy="234.85" r="1.814"/>
		<circle cx="145.622" cy="268.956" r="7.913"/>
		<path d="M146.841,272.844c-3.409,1.713-4.78,0.889-7.918,0.311c1.401,2.229,3.873,3.715,6.7,3.715
			c4.369,0,7.912-3.543,7.912-7.914c0-1.679-0.525-3.234-1.418-4.514C151.829,267.212,151.489,270.509,146.841,272.844z"/>
		<circle cx="142.819" cy="265.399" r="1.813"/>
		<circle cx="132.852" cy="367.661" r="7.914"/>
		<path d="M134.072,371.549c-3.409,1.713-4.78,0.889-7.919,0.311c1.402,2.231,3.873,3.715,6.7,3.715
			c4.372,0,7.913-3.541,7.913-7.914c0-1.678-0.525-3.232-1.418-4.514C139.059,365.917,138.719,369.216,134.072,371.549z"/>
		<circle cx="130.049" cy="364.106" r="1.813"/>
		<circle cx="173.288" cy="262.606" r="10.54"/>
		<path d="M175.219,265.841c-4.676,2.748-7.494,2.966-11.172,1.81c1.684,3.076,4.852,5.248,8.609,5.475
			c5.812,0.349,10.804-4.078,11.152-9.889c0.134-2.232-0.442-4.342-1.525-6.115C181.725,261.249,179.896,263.091,175.219,265.841z"
			/>
		<circle cx="169.846" cy="257.653" r="2.415"/>
		<path d="M167.162,239.481c0,5.82-4.719,10.537-10.539,10.537c-5.82,0-10.54-4.717-10.54-10.537c0-5.822,4.72-10.541,10.54-10.541
			C162.444,228.94,167.162,233.659,167.162,239.481z"/>
		<path d="M158.744,242.592c-4.504,3.024-7.303,3.41-11.043,2.478c1.863,2.97,5.157,4.948,8.922,4.948
			c5.82,0,10.539-4.717,10.539-10.537c0-2.237-0.701-4.309-1.888-6.014C164.963,237.622,163.247,239.569,158.744,242.592z"/>
		<circle cx="152.89" cy="234.743" r="2.415"/>
		<circle cx="118.915" cy="324.946" r="9.53"/>
		<path d="M120.383,329.628c-4.106,2.062-5.757,1.07-9.536,0.375c1.688,2.684,4.664,4.473,8.068,4.473
			c5.264,0,9.529-4.266,9.529-9.529c0-2.021-0.633-3.895-1.708-5.436C126.39,322.846,125.981,326.815,120.383,329.628z"/>
		<circle cx="115.539" cy="320.663" r="2.184"/>
		<circle cx="70.871" cy="286.766" r="9.53"/>
		<path d="M72.923,290.778c-3.835,2.269-7.77,1.914-10.12,1.045c1.687,2.682,4.664,4.473,8.067,4.473c5.264,0,9.53-4.266,9.53-9.529
			c0-2.022-0.633-3.893-1.709-5.436C77.809,285.727,76.735,288.522,72.923,290.778z"/>
		<circle cx="67.495" cy="282.483" r="2.185"/>
		<circle cx="71.028" cy="311.358" r="9.53"/>
		<path d="M72.836,315.485c-3.964,2.035-7.871,1.445-10.164,0.437c1.523,2.779,4.388,4.744,7.784,4.948
			c5.255,0.315,9.769-3.688,10.084-8.941c0.121-2.02-0.398-3.925-1.38-5.529C78.016,310.734,76.776,313.462,72.836,315.485z"/>
		<circle cx="67.914" cy="306.88" r="2.184"/>
		<circle cx="109.384" cy="247.585" r="9.53"/>
		<path d="M111.436,251.596c-3.834,2.27-7.769,1.914-10.119,1.044c1.687,2.683,4.664,4.474,8.066,4.474
			c5.264,0,9.531-4.266,9.531-9.529c0-2.023-0.633-3.895-1.709-5.436C116.323,246.546,115.248,249.34,111.436,251.596z"/>
		<circle cx="106.009" cy="243.301" r="2.184"/>
		<circle cx="89.767" cy="275.247" r="9.53"/>
		<path d="M91.575,279.374c-3.963,2.035-7.87,1.445-10.163,0.436c1.522,2.779,4.388,4.745,7.784,4.949
			c5.254,0.316,9.769-3.688,10.084-8.941c0.121-2.02-0.398-3.926-1.381-5.529C96.754,274.623,95.514,277.35,91.575,279.374z"/>
		<circle cx="86.653" cy="270.768" r="2.184"/>
		<circle cx="108.193" cy="304.402" r="9.53"/>
		<path d="M110.245,308.413c-3.835,2.27-7.77,1.915-10.12,1.045c1.687,2.684,4.664,4.474,8.067,4.474c5.264,0,9.53-4.266,9.53-9.529
			c0-2.023-0.633-3.894-1.709-5.436C115.131,303.362,114.057,306.158,110.245,308.413z"/>
		<circle cx="104.818" cy="300.118" r="2.185"/>
		<circle cx="143.808" cy="359.747" r="9.53"/>
		<path d="M145.86,363.758c-3.834,2.27-7.769,1.914-10.119,1.045c1.687,2.684,4.664,4.475,8.066,4.475
			c5.264,0,9.531-4.268,9.531-9.531c0-2.022-0.633-3.893-1.709-5.436C150.746,358.708,149.672,361.504,145.86,363.758z"/>
		<circle cx="140.432" cy="355.464" r="2.184"/>
		<circle cx="192.608" cy="297.038" r="9.53"/>
		<path d="M194.661,301.049c-3.836,2.27-7.77,1.914-10.12,1.045c1.687,2.683,4.664,4.473,8.067,4.473c5.264,0,9.53-4.266,9.53-9.529
			c0-2.022-0.633-3.893-1.708-5.435C199.545,295.999,198.472,298.794,194.661,301.049z"/>
		<circle cx="189.232" cy="292.755" r="2.184"/>
		<circle cx="90.246" cy="236.154" r="8.559"/>
		<path d="M91.085,240.114c-3.857,1.066-7.187-0.164-9.019-1.469c0.832,2.722,2.994,4.973,5.945,5.771
			c4.562,1.232,9.263-1.465,10.497-6.028c0.474-1.753,0.364-3.524-0.207-5.114C96.505,236.88,94.918,239.052,91.085,240.114z"/>
		<circle cx="88.325" cy="231.647" r="1.962"/>
		<circle cx="107.002" cy="268.584" r="9.53"/>
		<path d="M110.108,272.318c-3.859,3.854-7.074,3.028-10.342,2.452c2.062,2.406,5.271,3.739,8.637,3.238
			c5.207-0.773,8.799-5.621,8.025-10.826c-0.299-2.002-1.197-3.76-2.489-5.127C114.19,266.268,113.507,268.923,110.108,272.318z"/>
		<circle cx="103.034" cy="264.842" r="2.184"/>
		<circle cx="121.223" cy="247.586" r="9.53"/>
		<path d="M124.328,251.321c-3.859,3.854-7.074,3.027-10.342,2.453c2.062,2.404,5.271,3.738,8.637,3.238
			c5.207-0.774,8.799-5.622,8.025-10.828c-0.299-2.002-1.197-3.758-2.489-5.127C128.41,245.27,127.728,247.926,124.328,251.321z"/>
		<circle cx="117.254" cy="243.845" r="2.184"/>
		<circle cx="206.226" cy="242.148" r="9.53"/>
		<path d="M209.332,245.883c-3.859,3.854-7.074,3.027-10.342,2.452c2.062,2.405,5.27,3.739,8.637,3.238
			c5.207-0.775,8.799-5.622,8.025-10.827c-0.299-2.002-1.197-3.759-2.489-5.127C213.413,239.833,212.732,242.488,209.332,245.883z"
			/>
		<circle cx="202.258" cy="238.407" r="2.184"/>
		<circle cx="132.853" cy="257.114" r="9.529"/>
		<path d="M135.959,260.848c-3.859,3.855-7.074,3.029-10.342,2.453c2.062,2.406,5.27,3.739,8.637,3.238
			c5.207-0.773,8.799-5.621,8.024-10.826c-0.298-2.002-1.197-3.76-2.489-5.128C140.04,254.798,139.358,257.454,135.959,260.848z"/>
		<circle cx="128.885" cy="253.373" r="2.184"/>
		<circle cx="109.385" cy="280.336" r="9.529"/>
		<path d="M112.491,284.07c-3.858,3.854-7.074,3.028-10.342,2.452c2.063,2.406,5.271,3.739,8.637,3.239
			c5.207-0.775,8.799-5.622,8.025-10.827c-0.298-2.002-1.197-3.76-2.488-5.127C116.573,278.02,115.89,280.675,112.491,284.07z"/>
		<circle cx="105.416" cy="276.594" r="2.184"/>
		<circle cx="156.623" cy="288.631" r="9.529"/>
		<path d="M159.729,292.366c-3.859,3.855-7.074,3.028-10.342,2.453c2.062,2.405,5.271,3.738,8.637,3.238
			c5.207-0.773,8.799-5.621,8.025-10.827c-0.298-2.002-1.197-3.759-2.489-5.128C163.811,286.315,163.128,288.971,159.729,292.366z"
			/>
		<circle cx="152.655" cy="284.89" r="2.184"/>
		<circle cx="158.163" cy="267.027" r="9.529"/>
		<path d="M161.27,270.761c-3.859,3.854-7.074,3.028-10.342,2.453c2.062,2.405,5.27,3.739,8.637,3.238
			c5.207-0.774,8.799-5.622,8.024-10.827c-0.298-2.002-1.197-3.759-2.489-5.127C165.351,264.712,164.668,267.367,161.27,270.761z"/>
		<circle cx="154.196" cy="263.286" r="2.184"/>
		<circle cx="168.129" cy="283.323" r="7.241"/>
		<path d="M170.489,286.159c-2.932,2.93-5.374,2.301-7.857,1.864c1.568,1.827,4.005,2.841,6.562,2.462
			c3.956-0.589,6.686-4.272,6.098-8.227c-0.228-1.521-0.91-2.856-1.892-3.896C173.59,281.563,173.072,283.581,170.489,286.159z"/>
		<circle cx="165.114" cy="280.48" r="1.659"/>
		<circle cx="117.534" cy="340.571" r="7.241"/>
		<path d="M119.893,343.409c-2.932,2.928-5.375,2.301-7.857,1.863c1.567,1.828,4.004,2.84,6.562,2.461
			c3.955-0.588,6.685-4.271,6.098-8.227c-0.228-1.522-0.91-2.857-1.892-3.897C122.994,338.811,122.475,340.829,119.893,343.409z"/>
		<circle cx="114.518" cy="337.728" r="1.659"/>
		<circle cx="126.7" cy="293.798" r="9.53"/>
		<path d="M129.807,297.532c-3.859,3.855-7.074,3.029-10.343,2.453c2.063,2.406,5.271,3.739,8.638,3.238
			c5.206-0.773,8.799-5.621,8.024-10.826c-0.298-2.002-1.198-3.76-2.489-5.128C133.887,291.482,133.205,294.137,129.807,297.532z"/>
		<circle cx="122.733" cy="290.057" r="2.184"/>
		<circle cx="236.482" cy="335.604" r="10.54"/>
		<path d="M239.08,339.995c-4.413,2.764-6.486,1.605-11.52,1.197c1.864,2.971,5.158,4.949,8.922,4.949
			c5.82,0,10.539-4.717,10.539-10.537c0-2.238-0.701-4.309-1.887-6.014C244.627,335.602,242.478,337.866,239.08,339.995z"/>
		<circle cx="232.75" cy="330.866" r="2.415"/>
		<path d="M97.93,292.098c0.51,5.799-3.778,10.912-9.576,11.422c-5.798,0.51-10.912-3.777-11.423-9.574
			c-0.51-5.801,3.778-10.913,9.575-11.423C92.305,282.012,97.419,286.299,97.93,292.098z"/>
		<path d="M90.239,297.776c-2.963,1.827-6.701,2.675-11.207,1.598c2.117,2.793,5.572,4.477,9.322,4.146
			c5.798-0.51,10.086-5.623,9.576-11.422c-0.195-2.228-1.076-4.228-2.41-5.824C94.871,291.958,94.555,295.114,90.239,297.776z"/>
		<circle cx="83.297" cy="288.631" r="2.415"/>
		<circle cx="205.852" cy="320.408" r="6.606"/>
		<path d="M207.612,323.387c-1.856,1.147-4.199,1.678-7.023,1.002c1.326,1.752,3.491,2.807,5.843,2.6
			c3.634-0.318,6.321-3.525,6.002-7.159c-0.122-1.396-0.674-2.65-1.511-3.65C210.516,319.741,210.318,321.719,207.612,323.387z"/>
		<circle cx="203.261" cy="317.656" r="1.514"/>
		<circle cx="189.232" cy="309.402" r="8.24"/>
		<path d="M191.427,313.12c-2.316,1.428-5.237,2.092-8.761,1.248c1.656,2.184,4.355,3.5,7.289,3.242
			c4.533-0.398,7.884-4.395,7.484-8.929c-0.151-1.742-0.84-3.306-1.883-4.553C195.049,308.571,194.803,311.038,191.427,313.12z"/>
		<circle cx="186" cy="305.971" r="1.888"/>
		<circle cx="184.208" cy="329.591" r="8.24"/>
		<path d="M186.403,333.307c-2.314,1.43-5.236,2.092-8.76,1.25c1.655,2.184,4.355,3.5,7.288,3.242
			c4.533-0.398,7.884-4.396,7.485-8.93c-0.152-1.742-0.84-3.305-1.883-4.553C190.026,328.758,189.779,331.227,186.403,333.307z"/>
		<circle cx="180.976" cy="326.159" r="1.888"/>
		<circle cx="156.623" cy="334.172" r="8.24"/>
		<path d="M158.819,337.889c-2.316,1.428-5.238,2.092-8.762,1.248c1.656,2.184,4.355,3.5,7.289,3.242
			c4.533-0.398,7.885-4.396,7.485-8.93c-0.151-1.742-0.841-3.305-1.883-4.553C162.441,333.341,162.194,335.807,158.819,337.889z"/>
		<circle cx="153.391" cy="330.739" r="1.888"/>
		<path d="M180.151,343.174c0.399,4.533-2.951,8.531-7.484,8.928c-4.533,0.398-8.531-2.951-8.932-7.484
			c-0.399-4.535,2.954-8.533,7.486-8.93C175.754,335.29,179.754,338.639,180.151,343.174z"/>
		<path d="M174.138,347.612c-2.315,1.43-5.237,2.092-8.761,1.25c1.656,2.184,4.355,3.498,7.289,3.24
			c4.533-0.397,7.884-4.395,7.484-8.928c-0.151-1.742-0.84-3.307-1.883-4.553C177.76,343.063,177.514,345.532,174.138,347.612z"/>
		<path d="M170.592,340.299c0.091,1.037-0.675,1.955-1.715,2.045c-1.04,0.092-1.955-0.678-2.047-1.717
			c-0.091-1.039,0.677-1.955,1.716-2.047C169.586,338.489,170.5,339.257,170.592,340.299z"/>
		<circle cx="205.57" cy="280.481" r="7.294"/>
		<path d="M207.512,283.771c-2.049,1.265-4.635,1.853-7.756,1.105c1.467,1.933,3.857,3.099,6.453,2.87
			c4.014-0.354,6.98-3.891,6.627-7.904c-0.135-1.542-0.744-2.926-1.668-4.031C210.72,279.744,210.501,281.928,207.512,283.771z"/>
		<circle cx="202.709" cy="277.443" r="1.672"/>
		<circle cx="173.938" cy="297.933" r="7.294"/>
		<path d="M175.88,301.223c-2.05,1.266-4.636,1.853-7.755,1.105c1.466,1.934,3.855,3.099,6.451,2.871
			c4.014-0.353,6.98-3.892,6.627-7.904c-0.135-1.543-0.744-2.927-1.667-4.031C179.088,297.196,178.869,299.382,175.88,301.223z"/>
		<path d="M172.743,294.751c0.08,0.918-0.598,1.728-1.52,1.81c-0.92,0.081-1.73-0.601-1.811-1.52
			c-0.082-0.92,0.598-1.732,1.518-1.812C171.851,293.147,172.661,293.827,172.743,294.751z"/>
		<circle cx="133.459" cy="276.081" r="5.472"/>
		<path d="M134.917,278.549c-1.538,0.948-3.479,1.389-5.818,0.829c1.101,1.45,2.892,2.324,4.841,2.153
			c3.01-0.266,5.236-2.919,4.971-5.93c-0.102-1.156-0.559-2.195-1.251-3.023C137.324,275.528,137.159,277.168,134.917,278.549z"/>
		<circle cx="131.314" cy="273.801" r="1.254"/>
		<circle cx="130.049" cy="335.655" r="8.239"/>
		<path d="M132.244,339.372c-2.315,1.43-5.237,2.092-8.761,1.25c1.656,2.184,4.355,3.498,7.289,3.242
			c4.533-0.398,7.885-4.396,7.484-8.93c-0.151-1.742-0.84-3.307-1.882-4.553C135.867,334.823,135.619,337.292,132.244,339.372z"/>
		<path d="M128.698,332.059c0.092,1.037-0.674,1.955-1.715,2.045c-1.039,0.092-1.955-0.678-2.047-1.717
			c-0.091-1.039,0.677-1.955,1.716-2.047C127.692,330.249,128.606,331.016,128.698,332.059z"/>
		<circle cx="112.036" cy="358.633" r="8.24"/>
		<path d="M114.231,362.35c-2.316,1.43-5.238,2.092-8.762,1.25c1.656,2.184,4.355,3.498,7.289,3.24
			c4.533-0.397,7.885-4.395,7.485-8.928c-0.151-1.742-0.841-3.307-1.883-4.553C117.853,357.801,117.606,360.27,114.231,362.35z"/>
		<path d="M110.684,355.038c0.092,1.037-0.674,1.953-1.714,2.045c-1.04,0.09-1.956-0.678-2.048-1.717
			c-0.09-1.039,0.678-1.955,1.717-2.047C109.678,353.227,110.592,353.995,110.684,355.038z"/>
		<circle cx="118.913" cy="372.018" r="8.24"/>
		<path d="M121.108,375.735c-2.314,1.428-5.236,2.092-8.76,1.248c1.655,2.184,4.355,3.5,7.289,3.242
			c4.532-0.398,7.884-4.395,7.484-8.928c-0.152-1.742-0.84-3.307-1.883-4.553C124.731,371.186,124.484,373.653,121.108,375.735z"/>
		<path d="M117.563,368.422c0.091,1.037-0.675,1.953-1.715,2.045c-1.04,0.09-1.955-0.678-2.047-1.717
			c-0.092-1.039,0.676-1.955,1.715-2.047C116.557,366.612,117.471,367.379,117.563,368.422z"/>
		<path d="M180.346,315.872c0.51,5.799-3.778,10.912-9.576,11.422c-5.798,0.51-10.912-3.777-11.423-9.574
			c-0.51-5.801,3.778-10.913,9.575-11.424C174.721,305.786,179.835,310.072,180.346,315.872z"/>
		<path d="M172.655,321.549c-2.963,1.826-6.701,2.676-11.207,1.598c2.117,2.793,5.572,4.477,9.322,4.147
			c5.798-0.51,10.086-5.623,9.576-11.422c-0.195-2.228-1.076-4.229-2.41-5.824C177.287,315.731,176.971,318.886,172.655,321.549z"/>
		<circle cx="165.713" cy="312.405" r="2.415"/>
		<circle cx="224.702" cy="275.492" r="9.529"/>
		<path d="M226.754,279.503c-3.836,2.27-7.77,1.915-10.12,1.045c1.686,2.684,4.664,4.474,8.067,4.474
			c5.264,0,9.529-4.266,9.529-9.529c0-2.022-0.632-3.893-1.708-5.436C231.639,274.452,230.565,277.248,226.754,279.503z"/>
		<circle cx="221.326" cy="271.208" r="2.184"/>
		<circle cx="192.608" cy="252.156" r="10.54"/>
		<path d="M195.416,256.911c-2.963,1.826-6.701,2.674-11.207,1.598c2.117,2.793,5.571,4.476,9.322,4.147
			c5.798-0.51,10.086-5.624,9.576-11.422c-0.195-2.229-1.076-4.229-2.41-5.824C200.049,251.091,199.733,254.248,195.416,256.911z"/>
		<circle cx="188.475" cy="247.766" r="2.415"/>
		<circle cx="70.871" cy="339.608" r="9.53"/>
		<path d="M72.339,344.29c-4.106,2.062-5.757,1.07-9.536,0.375c1.687,2.684,4.664,4.473,8.068,4.473
			c5.264,0,9.529-4.266,9.529-9.529c0-2.023-0.633-3.895-1.709-5.436C78.346,337.507,77.936,341.477,72.339,344.29z"/>
		<circle cx="67.495" cy="335.325" r="2.185"/>
		<circle cx="89.215" cy="318.933" r="9.53"/>
		<path d="M90.683,323.616c-4.106,2.062-5.757,1.07-9.536,0.375c1.688,2.684,4.664,4.473,8.068,4.473
			c5.264,0,9.529-4.266,9.529-9.53c0-2.022-0.633-3.893-1.708-5.436C96.69,316.833,96.28,320.803,90.683,323.616z"/>
		<circle cx="85.839" cy="314.651" r="2.185"/>
		<circle cx="86.144" cy="349.137" r="9.53"/>
		<path d="M87.613,353.819c-4.106,2.064-5.757,1.072-9.536,0.375c1.688,2.685,4.664,4.475,8.068,4.475
			c5.264,0,9.529-4.268,9.529-9.531c0-2.021-0.633-3.892-1.709-5.435C93.619,347.038,93.209,351.008,87.613,353.819z"/>
		<circle cx="82.768" cy="344.856" r="2.184"/>
		<circle cx="94.114" cy="334.683" r="9.529"/>
		<path d="M97.22,338.419c-3.859,3.855-7.075,3.029-10.343,2.453c2.063,2.404,5.271,3.738,8.637,3.238
			c5.207-0.773,8.799-5.621,8.025-10.828c-0.298-2.002-1.197-3.758-2.488-5.127C101.301,332.368,100.619,335.024,97.22,338.419z"/>
		<circle cx="90.145" cy="330.943" r="2.184"/>
		<circle cx="120.547" cy="303.825" r="7.241"/>
		<path d="M122.908,306.662c-2.933,2.929-5.374,2.301-7.858,1.863c1.568,1.828,4.006,2.842,6.562,2.462
			c3.957-0.588,6.686-4.272,6.098-8.227c-0.227-1.522-0.91-2.857-1.891-3.897C126.008,302.065,125.491,304.083,122.908,306.662z"/>
		<circle cx="117.533" cy="300.982" r="1.66"/>
	</g>
	<g>
		<g>
			<g>
				<circle fill="#116B11" cx="211.005" cy="299.538" r="12.033"/>
				<circle fill="#116B11" cx="198.972" cy="315.578" r="12.033"/>
				<circle fill="#116B11" cx="229.293" cy="278.569" r="8.028"/>
				<path fill="#116B11" d="M227.061,311.572c0,4.434-3.595,8.026-8.026,8.026c-4.436,0-8.029-3.593-8.029-8.026
					c0-4.436,3.594-8.028,8.029-8.028C223.466,303.544,227.061,307.137,227.061,311.572z"/>
				<path fill="#116B11" d="M223.038,311.572c0,4.434-3.592,8.026-8.028,8.026c-4.434,0-8.026-3.593-8.026-8.026
					c0-4.436,3.593-8.028,8.026-8.028C219.446,303.544,223.038,307.137,223.038,311.572z"/>
				<circle fill="#116B11" cx="71.511" cy="336.773" r="12.034"/>
				<circle fill="#116B11" cx="78.972" cy="316.099" r="12.034"/>
				<circle fill="#116B11" cx="67.175" cy="290.961" r="12.035"/>
				<circle fill="#116B11" cx="118.056" cy="362.823" r="12.033"/>
				<circle fill="#116B11" cx="160.486" cy="362.823" r="12.033"/>
				<circle fill="#116B11" cx="76.964" cy="301.927" r="12.033"/>
				<circle fill="#116B11" cx="84.577" cy="275.905" r="8.028"/>
				<circle fill="#116B11" cx="136.42" cy="362.823" r="8.028"/>
				<circle fill="#116B11" cx="162.988" cy="239.111" r="12.034"/>
				<circle fill="#116B11" cx="211.005" cy="256.784" r="12.033"/>
				<circle fill="#116B11" cx="196.716" cy="244.752" r="12.033"/>
				<circle fill="#116B11" cx="178.993" cy="352.475" r="12.033"/>
				<circle fill="#116B11" cx="226.39" cy="268.455" r="12.033"/>
				<path fill="#116B11" d="M227.061,268.818c0,4.434-3.595,8.026-8.026,8.026c-4.436,0-8.029-3.593-8.029-8.026
					c0-4.436,3.594-8.028,8.029-8.028C223.466,260.79,227.061,264.383,227.061,268.818z"/>
				<path fill="#116B11" d="M223.038,268.818c0,4.434-3.592,8.026-8.028,8.026c-4.434,0-8.026-3.593-8.026-8.026
					c0-4.436,3.593-8.028,8.026-8.028C219.446,260.79,223.038,264.383,223.038,268.818z"/>
				<circle fill="#116B11" cx="107.042" cy="248.737" r="12.034"/>
				<circle fill="#116B11" cx="126.104" cy="242.343" r="12.034"/>
				<circle fill="#116B11" cx="85.302" cy="350.789" r="12.034"/>
				<circle fill="#116B11" cx="76.411" cy="283.48" r="12.033"/>
				<circle fill="#116B11" cx="194.813" cy="336.773" r="12.033"/>
				<circle fill="#116B11" cx="84.439" cy="233.319" r="8.029"/>
				<circle fill="#116B11" cx="135.211" cy="251.045" r="8.027"/>
				<circle fill="#116B11" cx="80.475" cy="268.798" r="8.028"/>
				<path fill="#116B11" d="M181.782,352.475l12.303-18.758l8.336-23.44l12.59-15.89l11.379-13.898l-10.071-17.047l-40.911-26.796
					c0,0-37.121,3.917-40.195,4.332c-3.075,0.415-32.664,4.029-32.664,4.029l-23.283,29.958l-4.98,24.771l4.142,24.354
					l-6.915,12.684l19.495,18.021l17.951,8.065l38.288,2.475L181.782,352.475z"/>
				<circle fill="#329B37" cx="225.187" cy="289.535" r="12.033"/>
				<circle fill="#277C27" cx="150.059" cy="364.826" r="12.034"/>
				<circle fill="#277C27" cx="100.929" cy="362.822" r="8.028"/>
				<circle fill="#329B37" cx="62.544" cy="324.741" r="8.027"/>
				<circle fill="#329B37" cx="182.05" cy="232.717" r="9.634"/>
				<circle fill="#277C27" cx="92.507" cy="259.266" r="12.033"/>
				<circle fill="#329B37" cx="142.106" cy="238.082" r="12.033"/>
				<circle fill="#329B37" cx="159.444" cy="264.064" r="6.654"/>
				<circle fill="#329B37" cx="87.401" cy="322.111" r="6.654"/>
				<circle fill="#277C27" cx="156.961" cy="300.034" r="12.034"/>
				<circle fill="#277C27" cx="196.831" cy="292.465" r="7.832"/>
				<circle fill="#277C27" cx="202.937" cy="282.836" r="7.833"/>
				<circle fill="#277C27" cx="178.159" cy="280.488" r="7.833"/>
				<circle fill="#277C27" cx="190.906" cy="312.58" r="7.833"/>
				<circle fill="#277C27" cx="187.67" cy="324.5" r="5.884"/>
				<circle fill="#277C27" cx="103.348" cy="288.32" r="5.883"/>
				<circle fill="#277C27" cx="120.417" cy="311.844" r="8.539"/>
				<circle fill="#277C27" cx="97.683" cy="342.104" r="8.539"/>
				<circle fill="#277C27" cx="141.423" cy="330.494" r="8.539"/>
				<circle fill="#277C27" cx="106.679" cy="254.279" r="8.539"/>
				<circle fill="#277C27" cx="138.138" cy="292.465" r="8.539"/>
				<circle fill="#277C27" cx="114.713" cy="338.877" r="12.034"/>
				<circle fill="#277C27" cx="89.452" cy="293.336" r="12.033"/>
				<circle fill="#277C27" cx="130.072" cy="266.19" r="5.333"/>
				<circle fill="#277C27" cx="112.735" cy="305.369" r="5.334"/>
				<circle fill="#277C27" cx="174.436" cy="335.031" r="8.172"/>
				<path fill="#277C27" d="M197.562,261.871c0,5.157-4.182,9.338-9.34,9.338c-5.156,0-9.338-4.181-9.338-9.338
					c0-5.16,4.182-9.34,9.338-9.34C193.38,252.531,197.562,256.711,197.562,261.871z"/>
			</g>
			<g>
				<circle fill="#329B37" cx="90.006" cy="303.42" r="7.351"/>
				<path fill="#258427" d="M91.138,307.031c-3.168,1.592-4.439,0.826-7.355,0.289c1.303,2.071,3.598,3.451,6.224,3.451
					c4.06,0,7.351-3.291,7.351-7.352c0-1.559-0.488-3.004-1.318-4.192C95.771,301.801,95.456,304.863,91.138,307.031z"/>
				<circle fill="#48B750" cx="87.402" cy="300.117" r="1.685"/>
			</g>
			<g>
				<circle fill="#329B37" cx="151.763" cy="252.403" r="9.53"/>
				<path fill="#258427" d="M153.231,257.085c-4.106,2.063-5.757,1.071-9.536,0.375c1.688,2.685,4.664,4.474,8.068,4.474
					c5.264,0,9.529-4.267,9.529-9.53c0-2.022-0.633-3.894-1.708-5.436C159.238,250.303,158.829,254.273,153.231,257.085z"/>
				<circle fill="#48B750" cx="148.387" cy="248.121" r="2.184"/>
			</g>
			<g>
				<circle fill="#329B37" cx="208.121" cy="259.908" r="9.53"/>
				<path fill="#258427" d="M209.589,264.59c-4.106,2.063-5.756,1.071-9.535,0.375c1.688,2.685,4.664,4.475,8.067,4.475
					c5.264,0,9.53-4.268,9.53-9.531c0-2.022-0.633-3.894-1.709-5.436C215.596,257.809,215.187,261.778,209.589,264.59z"/>
				<circle fill="#48B750" cx="204.745" cy="255.626" r="2.184"/>
			</g>
			<g>
				<circle fill="#329B37" cx="143.528" cy="292.504" r="7.914"/>
				<path fill="#258427" d="M144.747,296.392c-3.409,1.714-4.779,0.889-7.918,0.311c1.401,2.229,3.873,3.715,6.699,3.715
					c4.371,0,7.913-3.544,7.913-7.914c0-1.68-0.525-3.234-1.418-4.514C149.735,290.76,149.396,294.057,144.747,296.392z"/>
				<circle fill="#48B750" cx="140.725" cy="288.947" r="1.813"/>
			</g>
			<g>
				<circle fill="#329B37" cx="148.752" cy="306.229" r="7.914"/>
				<path fill="#258427" d="M149.972,310.117c-3.41,1.713-4.779,0.889-7.918,0.311c1.4,2.229,3.873,3.715,6.699,3.715
					c4.371,0,7.913-3.543,7.913-7.914c0-1.678-0.524-3.233-1.418-4.514C154.96,304.484,154.62,307.782,149.972,310.117z"/>
				<circle fill="#48B750" cx="145.949" cy="302.673" r="1.813"/>
			</g>
			<g>
				<circle fill="#329B37" cx="128.392" cy="305.766" r="7.914"/>
				<path fill="#258427" d="M129.611,309.653c-3.409,1.714-4.78,0.89-7.919,0.312c1.402,2.229,3.873,3.715,6.7,3.715
					c4.37,0,7.913-3.544,7.913-7.914c0-1.679-0.525-3.234-1.418-4.514C134.599,304.022,134.259,307.318,129.611,309.653z"/>
				<circle fill="#48B750" cx="125.589" cy="302.209" r="1.814"/>
			</g>
			<g>
				<circle fill="#329B37" cx="225.68" cy="290.81" r="11.752"/>
				<path fill="#258427" d="M227.489,296.584c-5.064,2.545-7.099,1.322-11.76,0.463c2.082,3.31,5.753,5.518,9.951,5.518
					c6.49,0,11.751-5.263,11.751-11.754c0-2.494-0.78-4.802-2.107-6.703C234.898,288.221,234.393,293.117,227.489,296.584z"/>
				<path fill="#48B750" d="M224.21,285.528c0,1.487-1.205,2.692-2.693,2.692c-1.484,0-2.693-1.205-2.693-2.692
					c0-1.486,1.209-2.692,2.693-2.692C223.005,282.836,224.21,284.042,224.21,285.528z"/>
			</g>
			<g>
				<circle fill="#329B37" cx="184.327" cy="266.121" r="9.333"/>
				<path fill="#258427" d="M185.765,270.706c-4.021,2.022-5.639,1.048-9.339,0.367c1.652,2.63,4.567,4.382,7.901,4.382
					c5.154,0,9.333-4.18,9.333-9.334c0-1.979-0.619-3.814-1.673-5.323C191.647,264.064,191.246,267.953,185.765,270.706z"/>
				<circle fill="#48B750" cx="181.02" cy="261.926" r="2.139"/>
			</g>
			<g>
				<circle fill="#329B37" cx="191.026" cy="347.75" r="7.914"/>
				<path fill="#258427" d="M192.245,351.639c-3.41,1.713-4.78,0.889-7.918,0.31c1.4,2.229,3.873,3.715,6.699,3.715
					c4.371,0,7.913-3.543,7.913-7.914c0-1.68-0.524-3.234-1.418-4.514C197.233,346.006,196.894,349.303,192.245,351.639z"/>
				<circle fill="#48B750" cx="188.223" cy="344.193" r="1.814"/>
			</g>
			<g>
				<circle fill="#329B37" cx="204.745" cy="325.924" r="7.913"/>
				<path fill="#258427" d="M205.964,329.81c-3.409,1.715-4.779,0.891-7.918,0.312c1.401,2.229,3.873,3.715,6.699,3.715
					c4.371,0,7.913-3.543,7.913-7.914c0-1.68-0.525-3.234-1.418-4.514C210.952,324.18,210.612,327.477,205.964,329.81z"/>
				<circle fill="#48B750" cx="201.941" cy="322.367" r="1.813"/>
			</g>
			<g>
				<circle fill="#329B37" cx="209.503" cy="313.961" r="9.602"/>
				<path fill="#258427" d="M210.981,318.678c-4.137,2.08-5.8,1.078-9.607,0.379c1.701,2.703,4.7,4.506,8.129,4.506
					c5.303,0,9.602-4.299,9.602-9.602c0-2.037-0.637-3.924-1.721-5.478C217.034,311.844,216.622,315.846,210.981,318.678z"/>
				<path fill="#48B750" d="M208.302,309.647c0,1.214-0.984,2.197-2.199,2.197c-1.215,0-2.201-0.983-2.201-2.197
					c0-1.217,0.986-2.202,2.201-2.202C207.317,307.444,208.302,308.43,208.302,309.647z"/>
			</g>
			<g>
				<circle fill="#329B37" cx="220.274" cy="304.065" r="7.914"/>
				<path fill="#258427" d="M221.493,307.953c-3.41,1.714-4.78,0.889-7.918,0.311c1.4,2.23,3.873,3.715,6.699,3.715
					c4.371,0,7.913-3.544,7.913-7.914c0-1.679-0.524-3.233-1.418-4.514C226.481,302.321,226.142,305.619,221.493,307.953z"/>
				<circle fill="#48B750" cx="217.471" cy="300.51" r="1.813"/>
			</g>
			<g>
				<circle fill="#329B37" cx="139.222" cy="324.158" r="9.53"/>
				<path fill="#258427" d="M140.69,328.84c-4.106,2.062-5.757,1.07-9.535,0.375c1.688,2.684,4.663,4.475,8.067,4.475
					c5.264,0,9.529-4.268,9.529-9.531c0-2.022-0.632-3.895-1.708-5.436C146.697,322.059,146.288,326.027,140.69,328.84z"/>
				<circle fill="#48B750" cx="135.847" cy="319.875" r="2.184"/>
			</g>
			<g>
				<circle fill="#329B37" cx="114.069" cy="259.823" r="9.53"/>
				<path fill="#258427" d="M115.537,264.505c-4.106,2.063-5.757,1.071-9.536,0.375c1.688,2.684,4.664,4.474,8.068,4.474
					c5.264,0,9.529-4.268,9.529-9.53c0-2.022-0.633-3.895-1.708-5.437C121.544,257.723,121.134,261.693,115.537,264.505z"/>
				<circle fill="#48B750" cx="110.693" cy="255.541" r="2.185"/>
			</g>
			<g>
				<circle fill="#329B37" cx="102.479" cy="344.203" r="9.529"/>
				<path fill="#258427" d="M103.948,348.885c-4.107,2.064-5.758,1.07-9.536,0.375c1.688,2.684,4.664,4.475,8.067,4.475
					c5.264,0,9.529-4.268,9.529-9.531c0-2.021-0.632-3.895-1.707-5.435C109.954,342.103,109.545,346.074,103.948,348.885z"/>
				<circle fill="#48B750" cx="99.104" cy="339.92" r="2.184"/>
			</g>
			<g>
				<circle fill="#329B37" cx="162.092" cy="369.184" r="7.914"/>
				<path fill="#258427" d="M163.312,373.07c-3.409,1.715-4.779,0.891-7.918,0.312c1.401,2.228,3.873,3.715,6.699,3.715
					c4.372,0,7.913-3.543,7.913-7.914c0-1.68-0.524-3.232-1.418-4.514C168.3,367.44,167.96,370.736,163.312,373.07z"/>
				<circle fill="#48B750" cx="159.289" cy="365.627" r="1.814"/>
			</g>
			<g>
				<circle fill="#329B37" cx="170.016" cy="360.312" r="7.913"/>
				<path fill="#258427" d="M171.235,364.201c-3.41,1.713-4.78,0.889-7.918,0.31c1.4,2.23,3.873,3.715,6.699,3.715
					c4.371,0,7.912-3.543,7.912-7.914c0-1.678-0.524-3.232-1.418-4.514C176.224,358.568,175.884,361.867,171.235,364.201z"/>
				<circle fill="#48B750" cx="167.213" cy="356.756" r="1.813"/>
			</g>
			<g>
				<circle fill="#329B37" cx="221.264" cy="257.234" r="7.914"/>
				<path fill="#258427" d="M222.483,261.123c-3.409,1.713-4.779,0.889-7.918,0.311c1.401,2.229,3.873,3.715,6.699,3.715
					c4.371,0,7.913-3.542,7.913-7.914c0-1.678-0.524-3.232-1.418-4.514C227.472,255.49,227.132,258.788,222.483,261.123z"/>
				<circle fill="#48B750" cx="218.461" cy="253.679" r="1.814"/>
			</g>
			<g>
				<circle fill="#329B37" cx="163.318" cy="231.816" r="7.914"/>
				<path fill="#258427" d="M164.536,235.703c-3.409,1.714-4.779,0.89-7.918,0.312c1.401,2.229,3.873,3.714,6.699,3.714
					c4.372,0,7.914-3.542,7.914-7.913c0-1.68-0.525-3.234-1.418-4.515C169.524,230.071,169.185,233.369,164.536,235.703z"/>
				<circle fill="#48B750" cx="160.514" cy="228.26" r="1.814"/>
			</g>
			<g>
				<circle fill="#329B37" cx="128.331" cy="235.572" r="7.914"/>
				<path fill="#258427" d="M129.55,239.461c-3.409,1.713-4.779,0.889-7.918,0.311c1.4,2.23,3.873,3.715,6.699,3.715
					c4.371,0,7.913-3.543,7.913-7.914c0-1.679-0.524-3.232-1.418-4.514C134.538,233.828,134.198,237.126,129.55,239.461z"/>
				<circle fill="#48B750" cx="125.527" cy="232.016" r="1.814"/>
			</g>
			<g>
				<circle fill="#329B37" cx="139.953" cy="266.121" r="7.913"/>
				<path fill="#258427" d="M141.172,270.01c-3.409,1.713-4.78,0.889-7.918,0.311c1.401,2.229,3.873,3.715,6.7,3.715
					c4.369,0,7.912-3.543,7.912-7.914c0-1.679-0.525-3.234-1.418-4.514C146.16,264.377,145.819,267.675,141.172,270.01z"/>
				<circle fill="#48B750" cx="137.149" cy="262.565" r="1.813"/>
			</g>
			<g>
				<circle fill="#329B37" cx="127.183" cy="364.826" r="7.914"/>
				<path fill="#258427" d="M128.402,368.715c-3.409,1.713-4.78,0.889-7.919,0.311c1.402,2.23,3.873,3.715,6.7,3.715
					c4.372,0,7.913-3.541,7.913-7.914c0-1.678-0.525-3.232-1.418-4.514C133.39,363.082,133.05,366.381,128.402,368.715z"/>
				<circle fill="#48B750" cx="124.38" cy="361.271" r="1.813"/>
			</g>
			<g>
				<circle fill="#48B750" cx="167.619" cy="259.771" r="10.54"/>
				<path fill="#329B37" d="M169.55,263.006c-4.676,2.748-7.494,2.966-11.172,1.811c1.684,3.076,4.853,5.248,8.609,5.475
					c5.811,0.349,10.804-4.078,11.152-9.889c0.134-2.232-0.442-4.342-1.525-6.115C176.056,258.414,174.227,260.256,169.55,263.006z"
					/>
				<circle fill="#6FC973" cx="164.177" cy="254.819" r="2.415"/>
			</g>
			<g>
				<path fill="#48B750" d="M161.493,236.646c0,5.82-4.719,10.537-10.539,10.537c-5.82,0-10.54-4.717-10.54-10.537
					c0-5.822,4.72-10.541,10.54-10.541C156.774,226.105,161.493,230.824,161.493,236.646z"/>
				<path fill="#329B37" d="M153.075,239.758c-4.504,3.024-7.303,3.41-11.043,2.478c1.863,2.97,5.157,4.948,8.922,4.948
					c5.82,0,10.539-4.717,10.539-10.537c0-2.237-0.701-4.309-1.888-6.014C159.294,234.787,157.578,236.734,153.075,239.758z"/>
				<circle fill="#6FC973" cx="147.221" cy="231.908" r="2.415"/>
			</g>
			<g>
				<circle fill="#48B750" cx="113.246" cy="322.111" r="9.53"/>
				<path fill="#329B37" d="M114.714,326.793c-4.106,2.062-5.757,1.07-9.536,0.375c1.688,2.684,4.664,4.473,8.068,4.473
					c5.264,0,9.529-4.266,9.529-9.529c0-2.021-0.633-3.895-1.708-5.436C120.721,320.012,120.312,323.98,114.714,326.793z"/>
				<circle fill="#6FC973" cx="109.87" cy="317.828" r="2.184"/>
			</g>
			<g>
				<circle fill="#48B750" cx="65.202" cy="283.932" r="9.53"/>
				<path fill="#329B37" d="M67.254,287.943c-3.835,2.27-7.77,1.914-10.12,1.045c1.687,2.682,4.664,4.473,8.067,4.473
					c5.264,0,9.53-4.266,9.53-9.529c0-2.022-0.633-3.894-1.709-5.437C72.14,282.893,71.065,285.688,67.254,287.943z"/>
				<circle fill="#6FC973" cx="61.826" cy="279.648" r="2.185"/>
			</g>
			<g>
				<circle fill="#48B750" cx="65.358" cy="308.523" r="9.53"/>
				<path fill="#329B37" d="M67.167,312.65c-3.964,2.035-7.871,1.445-10.164,0.437c1.523,2.779,4.388,4.744,7.784,4.948
					c5.255,0.315,9.769-3.688,10.084-8.941c0.121-2.02-0.398-3.925-1.38-5.529C72.347,307.899,71.106,310.627,67.167,312.65z"/>
				<circle fill="#6FC973" cx="62.245" cy="304.045" r="2.184"/>
			</g>
			<g>
				<circle fill="#48B750" cx="103.715" cy="244.75" r="9.53"/>
				<path fill="#329B37" d="M105.767,248.762c-3.834,2.27-7.769,1.914-10.119,1.044c1.686,2.683,4.664,4.474,8.066,4.474
					c5.264,0,9.531-4.266,9.531-9.529c0-2.023-0.633-3.895-1.709-5.436C110.653,243.711,109.579,246.506,105.767,248.762z"/>
				<circle fill="#6FC973" cx="100.339" cy="240.467" r="2.184"/>
			</g>
			<g>
				<circle fill="#48B750" cx="84.098" cy="272.412" r="9.53"/>
				<path fill="#329B37" d="M85.905,276.539c-3.963,2.035-7.87,1.445-10.163,0.436c1.522,2.779,4.388,4.745,7.784,4.949
					c5.254,0.315,9.769-3.688,10.084-8.941c0.121-2.02-0.398-3.926-1.381-5.529C91.085,271.788,89.845,274.516,85.905,276.539z"/>
				<circle fill="#6FC973" cx="80.984" cy="267.934" r="2.184"/>
			</g>
			<g>
				<circle fill="#48B750" cx="102.524" cy="301.567" r="9.53"/>
				<path fill="#329B37" d="M104.576,305.578c-3.835,2.27-7.77,1.915-10.12,1.045c1.687,2.684,4.664,4.474,8.067,4.474
					c5.264,0,9.53-4.266,9.53-9.529c0-2.023-0.633-3.894-1.709-5.437C109.462,300.527,108.388,303.323,104.576,305.578z"/>
				<circle fill="#6FC973" cx="99.148" cy="297.283" r="2.185"/>
			</g>
			<g>
				<circle fill="#48B750" cx="138.139" cy="356.912" r="9.53"/>
				<path fill="#329B37" d="M140.19,360.924c-3.834,2.27-7.769,1.914-10.119,1.045c1.687,2.684,4.664,4.475,8.066,4.475
					c5.264,0,9.531-4.268,9.531-9.531c0-2.022-0.633-3.893-1.709-5.436C145.077,355.873,144.003,358.67,140.19,360.924z"/>
				<circle fill="#6FC973" cx="134.763" cy="352.629" r="2.184"/>
			</g>
			<g>
				<circle fill="#48B750" cx="186.939" cy="294.203" r="9.53"/>
				<path fill="#329B37" d="M188.991,298.215c-3.836,2.27-7.77,1.914-10.12,1.045c1.687,2.683,4.664,4.473,8.067,4.473
					c5.264,0,9.53-4.266,9.53-9.529c0-2.022-0.633-3.893-1.708-5.435C193.876,293.164,192.803,295.959,188.991,298.215z"/>
				<circle fill="#6FC973" cx="183.563" cy="289.92" r="2.184"/>
			</g>
			<g>
				<circle fill="#48B750" cx="84.577" cy="233.319" r="8.559"/>
				<path fill="#329B37" d="M85.416,237.279c-3.858,1.066-7.187-0.164-9.019-1.469c0.832,2.722,2.994,4.973,5.945,5.771
					c4.562,1.232,9.263-1.465,10.497-6.028c0.474-1.753,0.364-3.524-0.207-5.114C90.836,234.045,89.249,236.218,85.416,237.279z"/>
				<circle fill="#6FC973" cx="82.656" cy="228.812" r="1.962"/>
			</g>
			<g>
				<circle fill="#48B750" cx="101.333" cy="265.749" r="9.53"/>
				<path fill="#329B37" d="M104.438,269.483c-3.859,3.854-7.074,3.028-10.342,2.452c2.062,2.406,5.271,3.739,8.637,3.238
					c5.207-0.773,8.799-5.621,8.025-10.826c-0.299-2.002-1.197-3.76-2.489-5.127C108.521,263.434,107.838,266.089,104.438,269.483z"
					/>
				<circle fill="#6FC973" cx="97.364" cy="262.007" r="2.184"/>
			</g>
			<g>
				<circle fill="#48B750" cx="115.553" cy="244.751" r="9.53"/>
				<path fill="#329B37" d="M118.659,248.486c-3.859,3.855-7.074,3.027-10.342,2.453c2.062,2.404,5.271,3.738,8.637,3.238
					c5.207-0.774,8.799-5.622,8.025-10.828c-0.299-2.002-1.197-3.758-2.489-5.127C122.74,242.436,122.059,245.092,118.659,248.486z"
					/>
				<circle fill="#6FC973" cx="111.585" cy="241.011" r="2.184"/>
			</g>
			<g>
				<circle fill="#48B750" cx="200.557" cy="239.313" r="9.53"/>
				<path fill="#329B37" d="M203.663,243.049c-3.859,3.855-7.074,3.027-10.342,2.452c2.062,2.405,5.271,3.739,8.637,3.238
					c5.207-0.775,8.799-5.622,8.025-10.827c-0.299-2.002-1.197-3.759-2.489-5.127C207.744,236.998,207.063,239.653,203.663,243.049z
					"/>
				<circle fill="#6FC973" cx="196.589" cy="235.573" r="2.184"/>
			</g>
			<g>
				<circle fill="#48B750" cx="127.184" cy="254.28" r="9.529"/>
				<path fill="#329B37" d="M130.29,258.014c-3.859,3.855-7.074,3.029-10.342,2.453c2.062,2.406,5.271,3.739,8.637,3.238
					c5.207-0.773,8.799-5.621,8.024-10.826c-0.298-2.002-1.197-3.76-2.489-5.128C134.371,251.964,133.688,254.619,130.29,258.014z"
					/>
				<circle fill="#6FC973" cx="123.216" cy="250.539" r="2.184"/>
			</g>
			<g>
				<circle fill="#48B750" cx="103.716" cy="277.501" r="9.529"/>
				<path fill="#329B37" d="M106.821,281.235c-3.858,3.854-7.074,3.028-10.342,2.452c2.064,2.406,5.272,3.739,8.637,3.239
					c5.207-0.774,8.799-5.622,8.025-10.827c-0.298-2.002-1.197-3.76-2.488-5.127C110.903,275.185,110.221,277.841,106.821,281.235z"
					/>
				<circle fill="#6FC973" cx="99.747" cy="273.759" r="2.184"/>
			</g>
			<g>
				<circle fill="#48B750" cx="150.954" cy="285.796" r="9.529"/>
				<path fill="#329B37" d="M154.06,289.531c-3.859,3.855-7.074,3.028-10.342,2.453c2.062,2.405,5.271,3.738,8.637,3.238
					c5.207-0.773,8.799-5.621,8.025-10.827c-0.298-2.002-1.197-3.759-2.489-5.128C158.142,283.48,157.459,286.137,154.06,289.531z"
					/>
				<circle fill="#6FC973" cx="146.985" cy="282.056" r="2.184"/>
			</g>
			<g>
				<circle fill="#48B750" cx="152.494" cy="264.192" r="9.529"/>
				<path fill="#329B37" d="M155.601,267.927c-3.859,3.855-7.074,3.028-10.342,2.453c2.062,2.405,5.271,3.739,8.637,3.238
					c5.207-0.774,8.799-5.622,8.024-10.827c-0.298-2.002-1.197-3.759-2.489-5.127C159.682,261.877,158.999,264.532,155.601,267.927z
					"/>
				<circle fill="#6FC973" cx="148.526" cy="260.452" r="2.184"/>
			</g>
			<g>
				<circle fill="#48B750" cx="162.46" cy="280.488" r="7.241"/>
				<path fill="#329B37" d="M164.819,283.324c-2.932,2.93-5.374,2.301-7.857,1.864c1.568,1.827,4.005,2.841,6.562,2.462
					c3.956-0.589,6.686-4.272,6.098-8.227c-0.228-1.521-0.91-2.856-1.892-3.896C167.921,278.728,167.402,280.746,164.819,283.324z"
					/>
				<circle fill="#6FC973" cx="159.445" cy="277.645" r="1.659"/>
			</g>
			<g>
				<circle fill="#48B750" cx="111.864" cy="337.736" r="7.241"/>
				<path fill="#329B37" d="M114.224,340.574c-2.932,2.928-5.375,2.301-7.857,1.863c1.567,1.828,4.004,2.84,6.562,2.461
					c3.955-0.588,6.686-4.271,6.098-8.227c-0.228-1.522-0.91-2.857-1.892-3.897C117.325,335.977,116.806,337.994,114.224,340.574z"
					/>
				<circle fill="#6FC973" cx="108.849" cy="334.894" r="1.659"/>
			</g>
			<g>
				<circle fill="#48B750" cx="121.031" cy="290.963" r="9.53"/>
				<path fill="#329B37" d="M124.138,294.697c-3.859,3.855-7.074,3.029-10.343,2.453c2.063,2.406,5.271,3.739,8.638,3.238
					c5.206-0.773,8.799-5.621,8.024-10.826c-0.298-2.002-1.198-3.76-2.489-5.128C128.218,288.647,127.536,291.303,124.138,294.697z"
					/>
				<circle fill="#6FC973" cx="117.064" cy="287.222" r="2.184"/>
			</g>
			<g>
				<circle fill="#48B750" cx="230.813" cy="332.77" r="10.54"/>
				<path fill="#329B37" d="M233.411,337.16c-4.413,2.764-6.486,1.605-11.52,1.197c1.864,2.971,5.158,4.949,8.922,4.949
					c5.82,0,10.539-4.717,10.539-10.537c0-2.238-0.701-4.309-1.887-6.014C238.958,332.768,236.809,335.031,233.411,337.16z"/>
				<circle fill="#6FC973" cx="227.081" cy="328.031" r="2.415"/>
			</g>
			<g>
				<path fill="#48B750" d="M92.261,289.264c0.51,5.799-3.778,10.912-9.576,11.422c-5.798,0.51-10.912-3.777-11.423-9.574
					c-0.51-5.801,3.778-10.913,9.575-11.423C86.636,279.178,91.75,283.465,92.261,289.264z"/>
				<path fill="#329B37" d="M84.569,294.941c-2.963,1.827-6.701,2.675-11.207,1.598c2.117,2.793,5.572,4.477,9.322,4.146
					c5.798-0.51,10.086-5.623,9.576-11.422c-0.195-2.228-1.076-4.229-2.41-5.824C89.202,289.123,88.886,292.279,84.569,294.941z"/>
				<circle fill="#6FC973" cx="77.628" cy="285.797" r="2.415"/>
			</g>
			<g>
				<circle fill="#48B750" cx="200.183" cy="317.574" r="6.606"/>
				<path fill="#329B37" d="M201.942,320.553c-1.856,1.146-4.199,1.678-7.023,1.002c1.326,1.752,3.491,2.807,5.843,2.6
					c3.634-0.318,6.321-3.525,6.002-7.159c-0.122-1.395-0.674-2.65-1.511-3.65C204.847,316.906,204.648,318.885,201.942,320.553z"/>
				<circle fill="#6FC973" cx="197.591" cy="314.822" r="1.514"/>
			</g>
			<g>
				<circle fill="#48B750" cx="183.562" cy="306.568" r="8.24"/>
				<path fill="#329B37" d="M185.758,310.285c-2.315,1.428-5.237,2.092-8.761,1.248c1.656,2.184,4.355,3.5,7.289,3.242
					c4.533-0.398,7.884-4.395,7.484-8.929c-0.151-1.742-0.84-3.306-1.883-4.553C189.38,305.736,189.134,308.203,185.758,310.285z"/>
				<circle fill="#6FC973" cx="180.331" cy="303.136" r="1.888"/>
			</g>
			<g>
				<circle fill="#48B750" cx="178.539" cy="326.757" r="8.24"/>
				<path fill="#329B37" d="M180.733,330.473c-2.314,1.43-5.236,2.092-8.76,1.25c1.655,2.184,4.355,3.5,7.288,3.242
					c4.533-0.398,7.884-4.396,7.485-8.93c-0.152-1.742-0.84-3.305-1.883-4.553C184.356,325.924,184.109,328.393,180.733,330.473z"/>
				<circle fill="#6FC973" cx="175.307" cy="323.324" r="1.888"/>
			</g>
			<g>
				<circle fill="#48B750" cx="150.954" cy="331.337" r="8.24"/>
				<path fill="#329B37" d="M153.149,335.055c-2.316,1.428-5.238,2.092-8.762,1.248c1.656,2.184,4.355,3.5,7.289,3.242
					c4.533-0.398,7.885-4.396,7.485-8.93c-0.151-1.742-0.841-3.305-1.883-4.553C156.771,330.506,156.524,332.973,153.149,335.055z"
					/>
				<circle fill="#6FC973" cx="147.722" cy="327.904" r="1.888"/>
			</g>
			<g>
				<path fill="#48B750" d="M174.481,340.34c0.399,4.533-2.951,8.531-7.484,8.928c-4.533,0.398-8.531-2.951-8.932-7.484
					c-0.398-4.535,2.954-8.533,7.486-8.93C170.085,332.455,174.085,335.805,174.481,340.34z"/>
				<path fill="#329B37" d="M168.469,344.777c-2.315,1.43-5.237,2.092-8.761,1.25c1.656,2.184,4.355,3.498,7.289,3.24
					c4.533-0.397,7.884-4.395,7.484-8.928c-0.151-1.742-0.84-3.307-1.883-4.553C172.091,340.228,171.845,342.697,168.469,344.777z"
					/>
				<path fill="#6FC973" d="M164.923,337.465c0.091,1.037-0.675,1.955-1.715,2.045c-1.04,0.092-1.955-0.678-2.047-1.717
					c-0.091-1.039,0.677-1.955,1.716-2.047C163.917,335.654,164.831,336.422,164.923,337.465z"/>
			</g>
			<g>
				<circle fill="#48B750" cx="199.901" cy="277.646" r="7.294"/>
				<path fill="#329B37" d="M201.843,280.936c-2.049,1.265-4.635,1.853-7.756,1.105c1.467,1.933,3.857,3.099,6.453,2.87
					c4.014-0.354,6.98-3.891,6.627-7.904c-0.135-1.542-0.744-2.926-1.668-4.031C205.051,276.909,204.832,279.094,201.843,280.936z"
					/>
				<circle fill="#6FC973" cx="197.04" cy="274.608" r="1.672"/>
			</g>
			<g>
				<circle fill="#48B750" cx="168.269" cy="295.099" r="7.294"/>
				<path fill="#329B37" d="M170.211,298.389c-2.05,1.266-4.636,1.853-7.755,1.105c1.466,1.934,3.855,3.099,6.451,2.871
					c4.014-0.354,6.98-3.892,6.627-7.904c-0.135-1.543-0.744-2.927-1.667-4.031C173.419,294.361,173.2,296.547,170.211,298.389z"/>
				<path fill="#6FC973" d="M167.073,291.916c0.08,0.918-0.598,1.729-1.52,1.81c-0.92,0.081-1.73-0.601-1.811-1.52
					c-0.082-0.92,0.598-1.731,1.518-1.812C166.182,290.312,166.991,290.992,167.073,291.916z"/>
			</g>
			<g>
				<circle fill="#48B750" cx="127.79" cy="273.246" r="5.472"/>
				<path fill="#329B37" d="M129.248,275.715c-1.538,0.948-3.479,1.389-5.818,0.829c1.101,1.45,2.892,2.324,4.841,2.153
					c3.01-0.266,5.236-2.919,4.971-5.93c-0.102-1.156-0.559-2.195-1.251-3.023C131.654,272.693,131.489,274.333,129.248,275.715z"/>
				<circle fill="#6FC973" cx="125.645" cy="270.967" r="1.254"/>
			</g>
			<g>
				<circle fill="#48B750" cx="124.379" cy="332.82" r="8.239"/>
				<path fill="#329B37" d="M126.574,336.537c-2.315,1.43-5.237,2.092-8.761,1.25c1.656,2.184,4.355,3.498,7.289,3.242
					c4.533-0.398,7.885-4.396,7.484-8.93c-0.151-1.742-0.84-3.307-1.882-4.553C130.197,331.988,129.95,334.457,126.574,336.537z"/>
				<path fill="#6FC973" d="M123.028,329.225c0.092,1.037-0.674,1.955-1.715,2.045c-1.039,0.092-1.955-0.678-2.047-1.717
					c-0.091-1.039,0.677-1.955,1.716-2.047C122.022,327.414,122.937,328.182,123.028,329.225z"/>
			</g>
			<g>
				<circle fill="#48B750" cx="106.366" cy="355.799" r="8.24"/>
				<path fill="#329B37" d="M108.562,359.516c-2.316,1.43-5.238,2.092-8.762,1.25c1.656,2.184,4.355,3.498,7.289,3.24
					c4.533-0.396,7.885-4.395,7.485-8.928c-0.151-1.742-0.841-3.307-1.883-4.553C112.184,354.967,111.937,357.435,108.562,359.516z"
					/>
				<path fill="#6FC973" d="M105.015,352.203c0.092,1.037-0.674,1.953-1.714,2.045c-1.04,0.09-1.956-0.678-2.048-1.717
					c-0.09-1.039,0.678-1.955,1.717-2.047C104.009,350.393,104.923,351.16,105.015,352.203z"/>
			</g>
			<g>
				<circle fill="#48B750" cx="113.244" cy="369.184" r="8.24"/>
				<path fill="#329B37" d="M115.438,372.9c-2.314,1.428-5.236,2.092-8.76,1.248c1.655,2.184,4.355,3.5,7.289,3.242
					c4.532-0.398,7.884-4.395,7.484-8.928c-0.152-1.742-0.84-3.307-1.883-4.553C119.062,368.352,118.814,370.818,115.438,372.9z"/>
				<path fill="#6FC973" d="M111.894,365.588c0.091,1.037-0.675,1.953-1.715,2.045c-1.04,0.09-1.955-0.678-2.047-1.717
					c-0.092-1.039,0.676-1.955,1.715-2.047C110.888,363.777,111.802,364.545,111.894,365.588z"/>
			</g>
			<g>
				<path fill="#48B750" d="M174.677,313.037c0.51,5.799-3.778,10.912-9.576,11.422c-5.798,0.51-10.912-3.777-11.423-9.574
					c-0.51-5.801,3.778-10.913,9.575-11.424C169.052,302.951,174.166,307.237,174.677,313.037z"/>
				<path fill="#329B37" d="M166.985,318.715c-2.963,1.826-6.701,2.676-11.207,1.598c2.117,2.793,5.572,4.477,9.322,4.147
					c5.798-0.51,10.086-5.623,9.576-11.422c-0.195-2.228-1.076-4.229-2.41-5.824C171.618,312.897,171.302,316.052,166.985,318.715z"
					/>
				<circle fill="#6FC973" cx="160.044" cy="309.57" r="2.415"/>
			</g>
			<g>
				<circle fill="#48B750" cx="219.032" cy="272.657" r="9.529"/>
				<path fill="#329B37" d="M221.085,276.668c-3.836,2.27-7.77,1.915-10.12,1.045c1.687,2.684,4.664,4.474,8.067,4.474
					c5.264,0,9.529-4.266,9.529-9.529c0-2.022-0.632-3.893-1.708-5.436C225.97,271.617,224.896,274.413,221.085,276.668z"/>
				<circle fill="#6FC973" cx="215.657" cy="268.373" r="2.184"/>
			</g>
			<g>
				<circle fill="#48B750" cx="186.939" cy="249.322" r="10.54"/>
				<path fill="#329B37" d="M189.747,254.076c-2.963,1.826-6.701,2.674-11.207,1.598c2.117,2.793,5.571,4.476,9.322,4.147
					c5.798-0.51,10.086-5.624,9.576-11.422c-0.195-2.229-1.076-4.229-2.41-5.824C194.38,248.257,194.063,251.413,189.747,254.076z"
					/>
				<circle fill="#6FC973" cx="182.806" cy="244.932" r="2.415"/>
			</g>
			<g>
				<circle fill="#48B750" cx="65.202" cy="336.773" r="9.53"/>
				<path fill="#329B37" d="M66.67,341.455c-4.107,2.062-5.757,1.07-9.536,0.375c1.688,2.684,4.664,4.473,8.068,4.473
					c5.264,0,9.529-4.266,9.529-9.529c0-2.023-0.633-3.895-1.709-5.436C72.677,334.672,72.267,338.643,66.67,341.455z"/>
				<circle fill="#6FC973" cx="61.826" cy="332.49" r="2.185"/>
			</g>
			<g>
				<circle fill="#329B37" cx="83.545" cy="316.099" r="9.53"/>
				<path fill="#258427" d="M85.014,320.781c-4.106,2.062-5.757,1.07-9.536,0.375c1.688,2.684,4.664,4.473,8.068,4.473
					c5.264,0,9.529-4.266,9.529-9.53c0-2.022-0.633-3.893-1.708-5.436C91.021,313.998,90.61,317.969,85.014,320.781z"/>
				<circle fill="#48B750" cx="80.17" cy="311.816" r="2.185"/>
			</g>
			<g>
				<circle fill="#329B37" cx="80.475" cy="346.303" r="9.53"/>
				<path fill="#258427" d="M81.943,350.984c-4.106,2.064-5.757,1.072-9.536,0.375c1.688,2.685,4.664,4.475,8.068,4.475
					c5.264,0,9.529-4.268,9.529-9.531c0-2.021-0.633-3.893-1.709-5.436C87.95,344.203,87.54,348.174,81.943,350.984z"/>
				<circle fill="#48B750" cx="77.099" cy="342.021" r="2.184"/>
			</g>
			<g>
				<circle fill="#48B750" cx="88.444" cy="331.849" r="9.529"/>
				<path fill="#329B37" d="M91.551,335.584c-3.859,3.855-7.075,3.029-10.343,2.453c2.063,2.404,5.271,3.738,8.637,3.238
					c5.207-0.773,8.799-5.621,8.025-10.828c-0.298-2.002-1.197-3.758-2.488-5.127C95.632,329.533,94.95,332.19,91.551,335.584z"/>
				<circle fill="#6FC973" cx="84.476" cy="328.108" r="2.184"/>
			</g>
			<g>
				<circle fill="#48B750" cx="114.878" cy="300.99" r="7.241"/>
				<path fill="#329B37" d="M117.238,303.827c-2.933,2.929-5.374,2.301-7.858,1.863c1.568,1.828,4.006,2.842,6.562,2.462
					c3.957-0.588,6.686-4.272,6.098-8.227c-0.227-1.522-0.91-2.857-1.891-3.897C120.339,299.23,119.821,301.248,117.238,303.827z"/>
				<circle fill="#6FC973" cx="111.863" cy="298.147" r="1.66"/>
			</g>
		</g>
	</g>
</g>
</svg>
