<?xml version="1.0" encoding="utf-8"?>
<!-- Generator: Adobe Illustrator 16.0.3, SVG Export Plug-In . SVG Version: 6.00 Build 0)  -->
<!DOCTYPE svg PUBLIC "-//W3C//DTD SVG 1.1//EN" "http://www.w3.org/Graphics/SVG/1.1/DTD/svg11.dtd">
<svg version="1.1" id="Ebene_1" xmlns="http://www.w3.org/2000/svg" xmlns:xlink="http://www.w3.org/1999/xlink" x="0px" y="0px"
	 width="450px" height="450px" viewBox="0 0 450 450" enable-background="new 0 0 450 450" xml:space="preserve">
<g id="olives">
	<g>
		<g>
			<path fill="#3A5935" d="M233.688,165.053c-0.895,7.038,0.658,16.054,9.131,21.826c9.455,5.758,21.26,4.577,30.021-1.972
				c20.437-15.61-4.678-44.758-25.745-37.516C237.783,150.503,234.327,161.342,233.688,165.053"/>
		</g>
		<g>
			<path fill="#162913" d="M255.616,166.304c-1.541,10.895,9.721,11.83,15.567,7.792c6.346-3.554,4.707-13.382-1.261-16.731
				C262.453,152.561,256.814,159.002,255.616,166.304"/>
		</g>
		<g opacity="0.7">
			<g>
				<path fill="#FFFFFF" d="M232.24,165.124c-1.703,15.974,10.229,27.099,25.994,25.911c12.473-0.939,24.701-11.119,22.229-24.371
					c-2.183-11.7-14.405-20.336-25.771-21.047C242.921,144.88,234.336,154.149,232.24,165.124c-0.182,0.947,1.892,0.654,2.053-0.187
					c2.082-10.903,10.294-19.036,21.861-17.753c9.764,1.082,18.597,8.969,21.752,18.064c4.508,12.994-7.641,22.854-19.461,24.41
					c-15.057,1.981-25.67-10.486-24.152-24.722C234.396,163.956,232.33,164.278,232.24,165.124L232.24,165.124z"/>
			</g>
		</g>
		<g opacity="0.7">
			<g>
				<path fill="#FFFFFF" d="M254.113,166.397c-0.643,5.715,2.162,9.791,7.971,10.414c4.633,0.496,11.271-1.988,12.969-6.677
					c2.389-6.597-2.109-13.208-8.6-14.856C259.619,153.542,255.186,160.768,254.113,166.397c-0.158,0.831,1.898,0.498,2.039-0.236
					c1.193-6.27,5.541-12.338,12.438-8.284c4.041,2.374,5.864,7.37,4.664,11.823c-1.229,4.559-7.182,6.447-11.362,5.763
					c-4.689-0.769-6.216-5.068-5.74-9.302C256.25,165.296,254.195,165.665,254.113,166.397L254.113,166.397z"/>
			</g>
		</g>
		<g>
			<path fill="#3A5935" d="M214.287,224.472c7.682,17.611,31.727,15.709,42.813,0.744c17.379-21.964-19.147-43.963-36.649-25.877
				C216.015,203.921,209.891,210.765,214.287,224.472"/>
		</g>
		<g>
			<path fill="#162913" d="M246.455,213.786c-1.739,2.291,2.764,1.086,3.742,1.554c2.771,1.57,2.166,4.003,2.367,6.425
				c4.356-0.234,0.883-5.186,2.627-7.152c1.108-1.312,3.555-0.059,3.52-2.319c0.125-2.102-2.449-1.413-3.895-0.905
				c-0.342-1.125-0.707-3.705-1.849-4.331c-1.96-1.261-2.098,0.196-2.075,1.487c0.02,1.131,0.698,3.219-0.095,4.041
				c-0.957,0.824-3.233-0.109-4.351,0.717"/>
		</g>
		<g opacity="0.7">
			<g>
				<path fill="#FFFFFF" d="M212.907,224.551c5.91,12.631,19.829,15.363,32.007,10.448c11.564-4.668,21.615-18.146,14.979-30.408
					c-5.656-10.451-19.732-14.631-30.684-11.607c-5.446,1.504-9.594,5.267-13.093,9.535
					C210.838,208.96,210.639,216.841,212.907,224.551c0.228,0.772,2.259,0.216,2.034-0.545c-1.932-6.567-2.154-12.924,1.367-18.964
					c2.895-4.965,7.754-9.158,13.199-10.945c10.091-3.313,22.15,1.809,27.931,10.361c7.1,10.506-1.109,22.563-10.434,28.165
					c-11.391,6.843-26.304,3.689-32.063-8.617C214.588,223.251,212.594,223.88,212.907,224.551L212.907,224.551z"/>
			</g>
		</g>
		<g opacity="0.7">
			<g>
				<path fill="#FFFFFF" d="M245.047,213.591c-0.773,1.231-0.287,2.004,1.18,2.068c1.582,0.07,2.537-0.322,3.847,0.953
					c1.257,1.224,0.911,3.671,1,5.237c0.019,0.343,0.678,0.337,0.883,0.311c1.58-0.203,2.964-0.712,3.405-2.372
					c0.65-2.441-1.564-4.731,1.912-5.664c1.521-0.406,2.498-1.739,1.687-3.28c-0.772-1.466-3.687-0.501-4.767-0.142
					c0.386,0.086,0.771,0.172,1.158,0.258c-0.578-2.144-1.899-6.734-5.138-4.716c-1.005,0.627-0.841,2.053-0.755,3.059
					c0.076,0.497,0.145,0.997,0.203,1.497c0.229,1.806-1.195,1.375-2.102,1.388c-0.734,0.011-1.33,0.208-1.979,0.515
					c-1.276,0.604-0.106,1.312,0.813,0.877c1.227-0.58,4.899,0.456,5.233-1.781c0.231-1.55-0.289-3.047-0.129-4.601
					c-0.022,0.219,1.04,1.535,1.194,1.962c0.273,0.757,0.412,1.569,0.621,2.346c0.114,0.421,0.863,0.354,1.16,0.256
					c0.655-0.217,2.191-0.856,2.668,0.046c0.737,1.397-0.604,1.3-1.168,1.431c-0.779,0.182-1.734,0.469-2.218,1.178
					c-1.007,1.479,0.487,6.32-1.536,6.579c0.295,0.104,0.59,0.207,0.883,0.311c-0.127-2.295,0.054-4.331-1.701-6.04
					c-0.43-0.419-0.973-0.711-1.567-0.766c-0.31-0.029-3.541,0.192-2.89-0.845C247.467,212.829,245.414,213.009,245.047,213.591
					L245.047,213.591z"/>
			</g>
		</g>
		<g>
			<path fill="#3A5935" d="M185.978,217.431c-6.347,0.104-13.058-5.867-14.735-11.395c-1.945-5.787-2.072-13.455,0.75-18.79
				c6.938-12.281,28.884-12.643,35.695-0.587c1.901,3.143,3.566,7.874,3.363,11.582c-0.183,5.028-1.25,8.66-3.941,12.487
				C202.717,216.974,193.947,217.582,185.978,217.431"/>
		</g>
		<g>
			<path fill="#162913" d="M192.977,201.975c0.006,0.409,0.216,0.814,0.428,1.219c1.011-0.63,2.407-2.593,3.529-2.714
				c1.73-0.334,1.885,2.829,3.521,3.005c0.091-0.715-0.635-1.418-0.75-2.132c-0.229-1.426,0.481-1.743,1.488-2.678
				c0.804-0.832,4.852-2.939,3.096-4.238c-1.654-1.3-3.235,1.994-4.867,2.123c-1.02,0.016-2.176-1.904-3.001-2.504
				c-0.724-0.499-1.548-0.895-2.169-1.395c-0.794,1.34,0.16,3.572,0.691,4.789c0.531,1.216,0.633,1.215-0.37,2.252
				c-0.502,0.62-1.102,1.347-1.704,1.867"/>
		</g>
		<g opacity="0.7">
			<g>
				<path fill="#FFFFFF" d="M186.04,216.495c-13.188-0.66-17.471-15.844-14.407-26.6c2.627-9.224,13.702-12.23,22.114-11.036
					c10.272,1.46,16.402,10.977,15.823,20.956c-0.334,5.737-3.031,11.4-8.129,14.295c-4.564,2.593-10.575,2.442-15.664,2.377
					c-1.182-0.014-1.543,1.521-0.168,1.539c12.496,0.158,23.543-2.968,25.859-16.821c2.037-12.183-6.432-22.362-18.143-24.026
					c-9.5-1.35-20.186,3.129-23.646,12.458c-4.284,11.553,2.213,27.708,15.667,28.382
					C186.361,218.069,187.416,216.564,186.04,216.495L186.04,216.495z"/>
			</g>
		</g>
		<g opacity="0.7">
			<g>
				<path fill="#FFFFFF" d="M191.656,202.118c0.051,0.438,0.193,0.842,0.428,1.215c0.287,0.603,1.223,0.458,1.674,0.125
					c0.947-0.699,2.508-3.112,3.484-1.744c0.695,0.975,1.045,1.934,2.286,2.269c0.568,0.153,1.71-0.14,1.619-0.903
					c-0.179-1.506-1.472-2.449,0.083-3.854c0.824-0.746,1.748-1.354,2.611-2.052c0.867-0.699,2.502-2.457,0.905-3.391
					c-1.474-0.861-2.866-0.177-4.071,0.832c-0.371,0.313-0.729,0.636-1.112,0.936c-0.581,0.457-1.517-1.014-1.847-1.383
					c-0.834-0.932-1.975-1.436-2.976-2.156c-0.456-0.328-1.538-0.063-1.757,0.471c-0.57,1.402-0.301,2.646,0.191,4.056
					c0.233,0.667,0.564,1.296,0.805,1.962c0.178,0.494-1.897,2.363-2.253,2.697c-0.905,0.85,1.09,1.039,1.674,0.49
					c0.946-0.887,2.205-2.011,2.647-3.26c0.186-0.522-0.421-1.424-0.609-1.864c-0.516-1.198-1.059-2.626-0.53-3.925
					c-0.586,0.156-1.171,0.313-1.757,0.471c1.069,0.77,2.17,1.332,3.059,2.326c0.464,0.518,1.167,1.416,1.9,1.564
					c1.803,0.365,2.957-0.817,4.25-1.9c0.645-0.54,1.322-0.044,0.656,0.795c-0.344,0.432-0.826,0.759-1.262,1.089
					c-0.581,0.44-1.186,0.837-1.725,1.328c-0.552,0.501-1.449,1.097-1.611,1.897c-0.27,1.328,0.545,2.166,0.693,3.416
					c0.539-0.301,1.079-0.602,1.619-0.903c-1.574-0.426-1.481-2.902-3.342-3.054c-2.174-0.176-3.406,1.858-4.947,2.996
					c0.559,0.042,1.117,0.084,1.674,0.125c-0.232-0.373-0.375-0.777-0.426-1.215C193.5,200.725,191.462,201.253,191.656,202.118
					L191.656,202.118z"/>
			</g>
		</g>
		<g>
			<path fill="#3A5935" d="M201.926,174.059c4.451,13.415,13.551,19.877,25.912,15.708c12.631-3.912,20.205-25.723,14.462-37.266
				c-2.188-4.46-9.146-9.371-13.675-11.412c-6.127-2.543-14.027-0.563-18.184,4.002
				C202.644,153.417,199.613,162.195,201.926,174.059"/>
		</g>
		<g>
			<path fill="#3A5935" d="M179.858,247.417c3.237,3.913,8.561,5.94,13.866,6.912c7.42,0.938,11.894-0.459,17.632-5.313
				c5.482-4.322,7.772-9.914,7.659-16.789c-0.086-5.287-3.126-13.172-7.405-16.012c-3.736-2.054-9.839-3.276-13.805-3.212
				c-6.605,0.374-10.524,3.35-14.949,7.653c-3.641,3.763-6.992,9.105-6.642,14.391C176.268,238.22,178.241,245.592,179.858,247.417"
				/>
		</g>
		<g>
			<path fill="#3A5935" d="M220.559,309.957c-13.208,1.011-25.002-8.58-27.587-20.968c-1.698-6.851-1.015-13.474,3.124-19.095
				c4.399-5.892,8.582-8.869,15.99-8.727c12.7,0.318,19.758,11.313,21.531,22.655C234.232,289.104,235.573,307.071,220.559,309.957"
				/>
		</g>
		<g>
			<path fill="#162913" d="M209.588,302.204c1.818,4.271,6.952,4.646,9.592,4.338c6.862-0.906,13.886-7.897,11.128-14.729
				c-2.765-7.36-10.421-6.705-16.184-3.174C211.506,290.271,206.629,294.877,209.588,302.204"/>
		</g>
		<g>
			<path fill="#162913" d="M197.352,217.509c-7.502,10.173,13.25,17.767,16.559,9.777c1.52-3.992-1.924-9.553-5.078-11.275
				C206.305,214.63,201,214.274,197.352,217.509"/>
		</g>
		<g>
			<path fill="#162913" d="M213.33,148.931c-2.568,3.576-1.892,8.574,0.279,11.977c3.273,6.029,13.833,4.799,17.184-0.547
				c2.578-4.011,3.115-12.688-1.584-15.844C223.062,140.386,216.598,143.851,213.33,148.931"/>
		</g>
		<g opacity="0.7">
			<g>
				<path fill="#FFFFFF" d="M220.582,308.979c-12.439,0.602-23.108-7.51-26.584-19.332c-4.547-15.465,7.564-33.806,24.785-26.517
					c15.42,6.527,21.224,41.406,1.27,45.923c-1.232,0.279-0.967,1.196,0.246,0.922c10.604-2.399,14.249-11.652,14.243-21.711
					c-0.007-12.271-6.513-25.14-19.36-27.656c-13.883-2.721-24.766,10.106-24.338,23.205c0.5,15.291,13.965,26.959,28.926,26.236
					C220.461,310.018,221.947,308.913,220.582,308.979L220.582,308.979z"/>
			</g>
		</g>
		<g opacity="0.7">
			<g>
				<path fill="#FFFFFF" d="M208.219,302.059c6.162,11.873,28.705-0.404,21.73-12.875c-2.781-4.972-9.637-4.427-14.088-2.44
					C209.492,289.583,205.775,295.011,208.219,302.059c0.172,0.493,2.184-0.115,2.034-0.545c-1.486-4.289-0.947-8.195,2.207-11.552
					c3.606-3.837,10.144-5.28,14.295-1.675c10.536,9.148-10.179,25.408-16.502,13.227
					C209.985,300.997,208.045,301.725,208.219,302.059L208.219,302.059z"/>
			</g>
		</g>
		<g opacity="0.7">
			<g>
				<path fill="#FFFFFF" d="M196.078,217.276c-6.123,8.889,7.044,15.82,14.662,13.166c5.652-1.972,4.547-8.188,1.73-12.225
					c-3.697-5.297-11.408-4.982-16.084-1.247c-1.078,0.862,0.61,1.274,1.295,0.728c5.293-4.229,11.422-2.013,14.269,3.613
					c2.176,4.301,0.37,8.463-4.515,8.458c-6.403-0.009-13.982-5.788-9.443-12.376C198.566,216.558,196.498,216.666,196.078,217.276
					L196.078,217.276z"/>
			</g>
		</g>
		<g opacity="0.7">
			<g>
				<path fill="#FFFFFF" d="M178.65,247.563c8.213,8.9,22.363,9.537,31.779,2.496c10.167-7.604,11.707-20.332,5.082-30.938
					c-5.629-9.011-21.81-8.521-29.387-2.636C176.634,223.856,170.678,236.561,178.65,247.563c0.424,0.584,2.391-0.115,1.887-0.812
					c-6.012-8.293-3.591-19.073,2.867-26.094c4.31-4.684,9.838-7.547,16.287-7.104c5.292,0.364,10.732,1.978,13.934,6.377
					c5.75,7.904,5.251,19.554-1.293,26.708c-8.408,9.192-23.267,9.356-31.795,0.111C180.035,246.208,178.096,246.96,178.65,247.563
					L178.65,247.563z"/>
			</g>
		</g>
		<g opacity="0.7">
			<g>
				<path fill="#FFFFFF" d="M212.01,148.894c-3.519,5.572-1.285,13.842,5.068,16.135c4.91,1.773,11.331-0.399,14.261-4.611
					c3.229-4.645,2.89-12.867-1.739-16.396C223.539,139.399,215.743,143.485,212.01,148.894c-0.582,0.842,1.488,0.748,1.917,0.127
					c2.216-3.209,5.307-5.656,9.392-5.623c3.23,0.025,5.973,2.192,7.197,5.027c1.568,3.627,0.867,8.536-1.094,11.865
					c-2.486,4.221-8.954,4.935-12.907,2.689c-4.577-2.6-5.12-9.948-2.588-13.959C214.48,148.143,212.416,148.251,212.01,148.894
					L212.01,148.894z"/>
			</g>
		</g>
		<g opacity="0.7">
			<g>
				<path fill="#FFFFFF" d="M200.578,174.284c4.342,12.377,13.695,20.125,27.02,15.998c11.711-3.627,17.361-18.294,17.211-29.498
					c-0.176-12.948-14.145-23.257-26.556-20.92c-6.614,1.244-11.075,6.724-14.415,12.138
					C199.676,158.749,199.234,166.663,200.578,174.284c0.146,0.832,2.188,0.324,2.035-0.545
					c-2.072-11.75,1.617-26.528,13.521-31.898c7.582-3.421,14.955,1.133,20.563,5.959c4.393,3.78,6.001,8.699,6.076,14.344
					c0.133,9.756-4.84,21.628-13.822,26.253c-12.537,6.456-22.463-3.608-26.338-14.657
					C202.321,172.907,200.298,173.484,200.578,174.284L200.578,174.284z"/>
			</g>
		</g>
	</g>
</g>
</svg>
