<?xml version="1.0" encoding="utf-8"?>
<!-- Generator: Adobe Illustrator 16.0.0, SVG Export Plug-In . SVG Version: 6.00 Build 0)  -->
<!DOCTYPE svg PUBLIC "-//W3C//DTD SVG 1.1//EN" "http://www.w3.org/Graphics/SVG/1.1/DTD/svg11.dtd">
<svg version="1.1" id="Layer_2" xmlns="http://www.w3.org/2000/svg" xmlns:xlink="http://www.w3.org/1999/xlink" x="0px" y="0px"
	 width="450px" height="450px" viewBox="0 0 450 450" enable-background="new 0 0 450 450" xml:space="preserve">
<g>
	<g opacity="0.3">
		<circle cx="290.674" cy="225.47" r="12.033"/>
		<circle cx="278.641" cy="241.51" r="12.033"/>
		<circle cx="308.962" cy="204.502" r="8.028"/>
		<circle cx="298.702" cy="237.505" r="8.028"/>
		<path d="M302.707,237.505c0,4.434-3.592,8.026-8.028,8.026c-4.434,0-8.026-3.593-8.026-8.026c0-4.436,3.593-8.028,8.026-8.028
			C299.115,229.476,302.707,233.069,302.707,237.505z"/>
		<circle cx="151.18" cy="262.706" r="12.034"/>
		<circle cx="158.641" cy="242.031" r="12.034"/>
		<circle cx="146.844" cy="216.894" r="12.035"/>
		<circle cx="197.725" cy="288.756" r="12.033"/>
		<circle cx="240.155" cy="288.756" r="12.033"/>
		<circle cx="156.633" cy="227.86" r="12.033"/>
		<circle cx="164.246" cy="201.837" r="8.028"/>
		<circle cx="216.09" cy="288.756" r="8.028"/>
		<circle cx="242.657" cy="165.044" r="12.034"/>
		<circle cx="290.674" cy="182.717" r="12.033"/>
		<circle cx="276.385" cy="170.684" r="12.033"/>
		<circle cx="258.662" cy="278.407" r="12.033"/>
		<circle cx="306.059" cy="194.387" r="12.033"/>
		<circle cx="298.702" cy="194.751" r="8.028"/>
		<path d="M302.707,194.751c0,4.434-3.592,8.026-8.028,8.026c-4.434,0-8.026-3.593-8.026-8.026c0-4.436,3.593-8.028,8.026-8.028
			C299.115,186.722,302.707,190.315,302.707,194.751z"/>
		<circle cx="186.711" cy="174.67" r="12.034"/>
		<circle cx="205.773" cy="168.275" r="12.034"/>
		<circle cx="164.971" cy="276.721" r="12.034"/>
		<circle cx="156.08" cy="209.413" r="12.033"/>
		<circle cx="274.483" cy="262.706" r="12.033"/>
		<circle cx="164.108" cy="159.252" r="8.029"/>
		<circle cx="214.88" cy="176.977" r="8.027"/>
		<circle cx="160.144" cy="194.73" r="8.028"/>
		<path d="M261.451,278.407l12.303-18.758l8.336-23.44l12.59-15.89l11.379-13.898l-10.071-17.047l-40.911-26.796
			c0,0-37.121,3.917-40.195,4.332c-3.075,0.415-32.664,4.029-32.664,4.029l-23.283,29.958l-4.98,24.771l4.142,24.354l-6.915,12.684
			l19.495,18.021l17.951,8.064l38.288,2.475L261.451,278.407z"/>
		<circle cx="304.856" cy="215.468" r="12.033"/>
		<circle cx="229.728" cy="290.759" r="12.034"/>
		<circle cx="180.598" cy="288.755" r="8.028"/>
		<circle cx="142.213" cy="250.674" r="8.027"/>
		<circle cx="261.719" cy="158.649" r="9.634"/>
		<circle cx="172.176" cy="185.198" r="12.033"/>
		<circle cx="221.776" cy="164.014" r="12.033"/>
		<circle cx="239.114" cy="189.996" r="6.654"/>
		<circle cx="167.071" cy="248.044" r="6.654"/>
		<circle cx="236.631" cy="225.967" r="12.034"/>
		<circle cx="276.5" cy="218.397" r="7.833"/>
		<circle cx="282.606" cy="208.768" r="7.833"/>
		<circle cx="257.828" cy="206.421" r="7.833"/>
		<circle cx="270.575" cy="238.512" r="7.833"/>
		<circle cx="267.339" cy="250.432" r="5.884"/>
		<circle cx="183.017" cy="214.253" r="5.883"/>
		<circle cx="200.086" cy="237.776" r="8.539"/>
		<circle cx="177.352" cy="268.036" r="8.539"/>
		<circle cx="221.092" cy="256.427" r="8.539"/>
		<circle cx="186.348" cy="180.212" r="8.539"/>
		<circle cx="217.807" cy="218.397" r="8.539"/>
		<circle cx="194.383" cy="264.809" r="12.034"/>
		<circle cx="169.121" cy="219.268" r="12.033"/>
		<circle cx="209.741" cy="192.122" r="5.333"/>
		<circle cx="192.405" cy="231.302" r="5.334"/>
		<circle cx="254.106" cy="260.964" r="8.172"/>
		<path d="M277.231,187.803c0,5.157-4.182,9.338-9.34,9.338c-5.156,0-9.338-4.181-9.338-9.338c0-5.16,4.182-9.34,9.338-9.34
			C273.049,178.464,277.231,182.643,277.231,187.803z"/>
		<circle cx="169.675" cy="229.352" r="7.351"/>
		<path d="M170.807,232.964c-3.168,1.592-4.439,0.826-7.355,0.289c1.303,2.071,3.598,3.451,6.224,3.451
			c4.06,0,7.351-3.291,7.351-7.352c0-1.559-0.488-3.004-1.318-4.192C175.44,227.733,175.125,230.796,170.807,232.964z"/>
		<circle cx="167.071" cy="226.05" r="1.685"/>
		<circle cx="231.432" cy="178.336" r="9.53"/>
		<path d="M232.901,183.017c-4.106,2.063-5.757,1.071-9.536,0.375c1.688,2.685,4.664,4.474,8.068,4.474
			c5.264,0,9.529-4.267,9.529-9.53c0-2.022-0.633-3.894-1.708-5.436C238.907,176.235,238.498,180.206,232.901,183.017z"/>
		<circle cx="228.056" cy="174.053" r="2.184"/>
		<circle cx="287.79" cy="185.841" r="9.53"/>
		<path d="M289.258,190.522c-4.106,2.063-5.756,1.071-9.535,0.375c1.688,2.685,4.664,4.475,8.067,4.475
			c5.264,0,9.53-4.268,9.53-9.531c0-2.021-0.633-3.894-1.709-5.436C295.265,183.741,294.856,187.711,289.258,190.522z"/>
		<circle cx="284.414" cy="181.558" r="2.184"/>
		<circle cx="223.197" cy="218.436" r="7.914"/>
		<path d="M224.416,222.324c-3.409,1.714-4.779,0.889-7.918,0.312c1.401,2.229,3.873,3.715,6.699,3.715
			c4.371,0,7.913-3.544,7.913-7.914c0-1.68-0.524-3.234-1.418-4.514C229.405,216.692,229.065,219.989,224.416,222.324z"/>
		<circle cx="220.394" cy="214.88" r="1.813"/>
		<circle cx="228.422" cy="232.161" r="7.914"/>
		<path d="M229.641,236.05c-3.41,1.713-4.779,0.889-7.918,0.311c1.4,2.229,3.873,3.715,6.699,3.715c4.371,0,7.913-3.543,7.913-7.914
			c0-1.678-0.524-3.233-1.418-4.514C234.629,230.417,234.289,233.715,229.641,236.05z"/>
		<circle cx="225.618" cy="228.605" r="1.813"/>
		<circle cx="208.061" cy="231.698" r="7.914"/>
		<path d="M209.281,235.586c-3.409,1.714-4.78,0.89-7.919,0.312c1.402,2.229,3.873,3.715,6.7,3.715c4.37,0,7.913-3.544,7.913-7.914
			c0-1.679-0.525-3.234-1.418-4.514C214.268,229.954,213.928,233.251,209.281,235.586z"/>
		<circle cx="205.258" cy="228.141" r="1.813"/>
		<circle cx="305.349" cy="216.743" r="11.752"/>
		<path d="M307.158,222.516c-5.064,2.545-7.099,1.322-11.76,0.463c2.082,3.311,5.753,5.518,9.951,5.518
			c6.49,0,11.751-5.263,11.751-11.754c0-2.494-0.78-4.802-2.106-6.703C314.568,214.153,314.062,219.05,307.158,222.516z"/>
		<path d="M303.879,211.461c0,1.487-1.205,2.692-2.693,2.692c-1.484,0-2.693-1.205-2.693-2.692c0-1.486,1.209-2.692,2.693-2.692
			C302.674,208.768,303.879,209.974,303.879,211.461z"/>
		<circle cx="263.996" cy="192.053" r="9.333"/>
		<path d="M265.434,196.638c-4.021,2.022-5.639,1.048-9.339,0.367c1.652,2.63,4.567,4.382,7.901,4.382
			c5.154,0,9.333-4.18,9.333-9.334c0-1.979-0.619-3.814-1.673-5.323C271.317,189.996,270.915,193.885,265.434,196.638z"/>
		<circle cx="260.69" cy="187.858" r="2.139"/>
		<circle cx="270.695" cy="273.682" r="7.914"/>
		<path d="M271.914,277.571c-3.41,1.713-4.78,0.889-7.918,0.311c1.4,2.229,3.873,3.715,6.699,3.715c4.371,0,7.913-3.543,7.913-7.914
			c0-1.68-0.524-3.234-1.418-4.514C276.903,271.938,276.563,275.235,271.914,277.571z"/>
		<circle cx="267.892" cy="270.126" r="1.813"/>
		<circle cx="284.414" cy="251.856" r="7.913"/>
		<path d="M285.633,255.743c-3.409,1.715-4.779,0.891-7.918,0.313c1.401,2.229,3.873,3.715,6.699,3.715
			c4.371,0,7.913-3.543,7.913-7.914c0-1.68-0.524-3.234-1.418-4.514C290.621,250.112,290.281,253.409,285.633,255.743z"/>
		<circle cx="281.611" cy="248.3" r="1.813"/>
		<circle cx="289.172" cy="239.893" r="9.602"/>
		<path d="M290.651,244.61c-4.137,2.08-5.8,1.078-9.607,0.379c1.701,2.703,4.7,4.506,8.129,4.506c5.303,0,9.602-4.299,9.602-9.602
			c0-2.037-0.637-3.924-1.721-5.478C296.703,237.776,296.291,241.778,290.651,244.61z"/>
		<path d="M287.971,235.579c0,1.214-0.984,2.197-2.199,2.197s-2.201-0.983-2.201-2.197c0-1.217,0.986-2.202,2.201-2.202
			S287.971,234.362,287.971,235.579z"/>
		<circle cx="299.943" cy="229.998" r="7.914"/>
		<path d="M301.162,233.885c-3.41,1.714-4.78,0.889-7.918,0.312c1.4,2.229,3.873,3.715,6.699,3.715c4.371,0,7.913-3.544,7.913-7.914
			c0-1.679-0.524-3.233-1.418-4.514C306.151,228.254,305.811,231.552,301.162,233.885z"/>
		<circle cx="297.14" cy="226.442" r="1.813"/>
		<circle cx="218.891" cy="250.091" r="9.53"/>
		<path d="M220.36,254.772c-4.106,2.063-5.757,1.07-9.535,0.375c1.688,2.684,4.663,4.475,8.067,4.475
			c5.264,0,9.529-4.268,9.529-9.531c0-2.021-0.632-3.895-1.708-5.436C226.366,247.991,225.957,251.96,220.36,254.772z"/>
		<circle cx="215.516" cy="245.807" r="2.184"/>
		<circle cx="193.738" cy="185.756" r="9.53"/>
		<path d="M195.206,190.437c-4.106,2.063-5.757,1.071-9.536,0.375c1.688,2.684,4.664,4.474,8.068,4.474
			c5.264,0,9.529-4.268,9.529-9.53c0-2.022-0.633-3.895-1.708-5.437C201.213,183.655,200.803,187.626,195.206,190.437z"/>
		<circle cx="190.363" cy="181.473" r="2.185"/>
		<circle cx="182.149" cy="270.135" r="9.529"/>
		<path d="M183.617,274.817c-4.107,2.064-5.758,1.07-9.536,0.375c1.688,2.684,4.664,4.475,8.067,4.475
			c5.264,0,9.529-4.268,9.529-9.531c0-2.021-0.632-3.895-1.707-5.436C189.623,268.036,189.214,272.007,183.617,274.817z"/>
		<circle cx="178.773" cy="265.852" r="2.184"/>
		<circle cx="241.761" cy="295.116" r="7.914"/>
		<path d="M242.981,299.003c-3.409,1.715-4.779,0.891-7.918,0.313c1.401,2.229,3.873,3.715,6.699,3.715
			c4.372,0,7.913-3.543,7.913-7.914c0-1.68-0.524-3.232-1.418-4.514C247.969,293.372,247.629,296.669,242.981,299.003z"/>
		<circle cx="238.958" cy="291.559" r="1.813"/>
		<circle cx="249.685" cy="286.245" r="7.913"/>
		<path d="M250.905,290.134c-3.41,1.713-4.78,0.889-7.918,0.311c1.4,2.23,3.873,3.715,6.699,3.715c4.371,0,7.912-3.543,7.912-7.914
			c0-1.678-0.523-3.232-1.418-4.514C255.893,284.501,255.553,287.8,250.905,290.134z"/>
		<circle cx="246.882" cy="282.688" r="1.813"/>
		<circle cx="300.933" cy="183.167" r="7.914"/>
		<path d="M302.153,187.055c-3.409,1.713-4.779,0.889-7.918,0.311c1.401,2.229,3.873,3.715,6.699,3.715
			c4.371,0,7.913-3.542,7.913-7.914c0-1.678-0.524-3.232-1.418-4.514C307.141,181.423,306.801,184.72,302.153,187.055z"/>
		<circle cx="298.13" cy="179.611" r="1.813"/>
		<circle cx="242.987" cy="157.749" r="7.914"/>
		<path d="M244.205,161.635c-3.409,1.714-4.779,0.89-7.918,0.313c1.401,2.229,3.873,3.714,6.699,3.714
			c4.372,0,7.914-3.542,7.914-7.913c0-1.68-0.525-3.234-1.418-4.515C249.194,156.004,248.854,159.302,244.205,161.635z"/>
		<circle cx="240.183" cy="154.192" r="1.813"/>
		<circle cx="208" cy="161.505" r="7.914"/>
		<path d="M209.219,165.393c-3.409,1.713-4.779,0.889-7.918,0.311c1.4,2.229,3.873,3.715,6.699,3.715
			c4.371,0,7.913-3.543,7.913-7.914c0-1.679-0.524-3.232-1.418-4.514C214.207,159.76,213.867,163.058,209.219,165.393z"/>
		<circle cx="205.197" cy="157.948" r="1.813"/>
		<circle cx="219.622" cy="192.053" r="7.913"/>
		<path d="M220.841,195.942c-3.409,1.713-4.78,0.889-7.918,0.311c1.401,2.229,3.873,3.715,6.7,3.715
			c4.369,0,7.912-3.543,7.912-7.914c0-1.679-0.525-3.234-1.418-4.514C225.829,190.309,225.489,193.607,220.841,195.942z"/>
		<circle cx="216.819" cy="188.497" r="1.813"/>
		<circle cx="206.852" cy="290.759" r="7.914"/>
		<path d="M208.072,294.647c-3.409,1.713-4.78,0.889-7.919,0.311c1.402,2.23,3.873,3.715,6.7,3.715c4.372,0,7.913-3.541,7.913-7.914
			c0-1.678-0.525-3.232-1.418-4.514C213.059,289.014,212.719,292.313,208.072,294.647z"/>
		<circle cx="204.049" cy="287.204" r="1.813"/>
		<circle cx="247.288" cy="185.704" r="10.54"/>
		<path d="M249.219,188.938c-4.676,2.748-7.494,2.966-11.172,1.811c1.684,3.076,4.853,5.248,8.609,5.475
			c5.812,0.349,10.804-4.078,11.152-9.889c0.134-2.232-0.442-4.342-1.525-6.115C255.725,184.346,253.896,186.188,249.219,188.938z"
			/>
		<circle cx="243.846" cy="180.751" r="2.415"/>
		<path d="M241.162,162.579c0,5.82-4.719,10.537-10.539,10.537s-10.54-4.717-10.54-10.537c0-5.822,4.72-10.541,10.54-10.541
			S241.162,156.757,241.162,162.579z"/>
		<path d="M232.744,165.69c-4.504,3.024-7.303,3.41-11.043,2.478c1.863,2.97,5.157,4.948,8.922,4.948
			c5.82,0,10.539-4.717,10.539-10.537c0-2.237-0.701-4.309-1.888-6.014C238.963,160.719,237.247,162.667,232.744,165.69z"/>
		<circle cx="226.89" cy="157.841" r="2.415"/>
		<circle cx="192.915" cy="248.044" r="9.53"/>
		<path d="M194.383,252.725c-4.106,2.063-5.757,1.07-9.536,0.375c1.688,2.684,4.664,4.473,8.068,4.473
			c5.264,0,9.529-4.266,9.529-9.529c0-2.021-0.633-3.895-1.708-5.437C200.39,245.944,199.981,249.913,194.383,252.725z"/>
		<circle cx="189.539" cy="243.76" r="2.184"/>
		<circle cx="144.871" cy="209.864" r="9.53"/>
		<path d="M146.923,213.876c-3.835,2.27-7.77,1.914-10.12,1.045c1.687,2.682,4.664,4.473,8.067,4.473c5.264,0,9.53-4.266,9.53-9.529
			c0-2.022-0.633-3.894-1.709-5.437C151.809,208.825,150.735,211.62,146.923,213.876z"/>
		<circle cx="141.495" cy="205.581" r="2.185"/>
		<circle cx="145.028" cy="234.455" r="9.53"/>
		<path d="M146.836,238.583c-3.964,2.035-7.871,1.445-10.164,0.437c1.523,2.779,4.388,4.744,7.784,4.948
			c5.255,0.315,9.769-3.688,10.084-8.941c0.121-2.02-0.398-3.925-1.38-5.529C152.016,233.832,150.776,236.559,146.836,238.583z"/>
		<circle cx="141.914" cy="229.977" r="2.184"/>
		<circle cx="183.384" cy="170.682" r="9.53"/>
		<path d="M185.436,174.694c-3.834,2.27-7.769,1.914-10.119,1.044c1.687,2.683,4.664,4.474,8.066,4.474
			c5.264,0,9.531-4.266,9.531-9.529c0-2.023-0.633-3.895-1.709-5.437C190.323,169.643,189.248,172.438,185.436,174.694z"/>
		<circle cx="180.009" cy="166.399" r="2.184"/>
		<circle cx="163.767" cy="198.344" r="9.53"/>
		<path d="M165.574,202.471c-3.963,2.035-7.87,1.445-10.163,0.436c1.522,2.779,4.388,4.745,7.784,4.949
			c5.254,0.315,9.769-3.688,10.084-8.941c0.121-2.02-0.398-3.926-1.381-5.529C170.754,197.72,169.514,200.448,165.574,202.471z"/>
		<circle cx="160.653" cy="193.866" r="2.184"/>
		<circle cx="182.193" cy="227.5" r="9.53"/>
		<path d="M184.245,231.51c-3.835,2.27-7.77,1.915-10.12,1.045c1.687,2.684,4.664,4.474,8.067,4.474c5.264,0,9.53-4.266,9.53-9.529
			c0-2.022-0.633-3.894-1.709-5.437C189.131,226.46,188.057,229.256,184.245,231.51z"/>
		<circle cx="178.818" cy="223.216" r="2.185"/>
		<circle cx="217.808" cy="282.844" r="9.53"/>
		<path d="M219.86,286.856c-3.834,2.27-7.769,1.914-10.119,1.045c1.687,2.684,4.664,4.475,8.066,4.475
			c5.264,0,9.531-4.268,9.531-9.531c0-2.021-0.633-3.893-1.709-5.436C224.746,281.805,223.672,284.602,219.86,286.856z"/>
		<circle cx="214.432" cy="278.561" r="2.184"/>
		<circle cx="266.608" cy="220.135" r="9.53"/>
		<path d="M268.66,224.147c-3.836,2.27-7.77,1.914-10.12,1.045c1.687,2.683,4.664,4.473,8.067,4.473c5.264,0,9.53-4.266,9.53-9.529
			c0-2.022-0.633-3.894-1.708-5.436C273.545,219.096,272.472,221.891,268.66,224.147z"/>
		<circle cx="263.232" cy="215.852" r="2.184"/>
		<circle cx="164.246" cy="159.252" r="8.559"/>
		<path d="M165.085,163.212c-3.857,1.066-7.187-0.164-9.019-1.469c0.832,2.722,2.994,4.973,5.945,5.771
			c4.563,1.232,9.263-1.465,10.497-6.028c0.474-1.753,0.364-3.524-0.207-5.114C170.505,159.977,168.918,162.15,165.085,163.212z"/>
		<circle cx="162.325" cy="154.745" r="1.962"/>
		<circle cx="181.002" cy="191.681" r="9.53"/>
		<path d="M184.108,195.416c-3.859,3.854-7.074,3.028-10.342,2.452c2.063,2.406,5.271,3.739,8.637,3.238
			c5.207-0.773,8.799-5.621,8.025-10.826c-0.299-2.002-1.197-3.76-2.489-5.127C188.19,189.366,187.507,192.021,184.108,195.416z"/>
		<circle cx="177.033" cy="187.94" r="2.184"/>
		<circle cx="195.222" cy="170.683" r="9.53"/>
		<path d="M198.328,174.419c-3.859,3.854-7.074,3.027-10.342,2.453c2.063,2.404,5.271,3.738,8.637,3.238
			c5.207-0.774,8.799-5.622,8.025-10.828c-0.299-2.002-1.197-3.758-2.489-5.127C202.409,168.368,201.728,171.024,198.328,174.419z"
			/>
		<circle cx="191.254" cy="166.943" r="2.184"/>
		<circle cx="280.226" cy="165.246" r="9.53"/>
		<path d="M283.332,168.981c-3.859,3.854-7.074,3.027-10.342,2.452c2.063,2.405,5.271,3.739,8.637,3.238
			c5.207-0.774,8.799-5.622,8.025-10.827c-0.299-2.002-1.197-3.759-2.489-5.127C287.413,162.93,286.732,165.586,283.332,168.981z"/>
		<circle cx="276.258" cy="161.505" r="2.184"/>
		<circle cx="206.853" cy="180.212" r="9.529"/>
		<path d="M209.959,183.946c-3.859,3.855-7.074,3.029-10.342,2.453c2.063,2.406,5.271,3.739,8.637,3.238
			c5.207-0.773,8.799-5.621,8.024-10.826c-0.298-2.002-1.197-3.76-2.489-5.128C214.04,177.896,213.358,180.552,209.959,183.946z"/>
		<circle cx="202.885" cy="176.471" r="2.184"/>
		<circle cx="183.385" cy="203.433" r="9.529"/>
		<path d="M186.49,207.168c-3.858,3.854-7.074,3.028-10.342,2.452c2.063,2.406,5.271,3.739,8.637,3.239
			c5.207-0.774,8.799-5.622,8.025-10.827c-0.298-2.002-1.197-3.76-2.488-5.127C190.573,201.118,189.89,203.773,186.49,207.168z"/>
		<circle cx="179.416" cy="199.692" r="2.184"/>
		<circle cx="230.623" cy="211.729" r="9.529"/>
		<path d="M233.729,215.464c-3.859,3.855-7.074,3.028-10.342,2.453c2.063,2.405,5.271,3.738,8.637,3.238
			c5.207-0.773,8.799-5.621,8.025-10.827c-0.298-2.002-1.197-3.759-2.489-5.128C237.811,209.413,237.128,212.069,233.729,215.464z"
			/>
		<circle cx="226.655" cy="207.988" r="2.184"/>
		<circle cx="232.163" cy="190.125" r="9.529"/>
		<path d="M235.27,193.859c-3.859,3.854-7.074,3.028-10.342,2.453c2.063,2.405,5.271,3.739,8.637,3.238
			c5.207-0.774,8.799-5.622,8.024-10.827c-0.298-2.002-1.197-3.759-2.489-5.127C239.351,187.809,238.668,190.465,235.27,193.859z"/>
		<circle cx="228.196" cy="186.384" r="2.184"/>
		<circle cx="242.129" cy="206.421" r="7.241"/>
		<path d="M244.489,209.257c-2.932,2.93-5.374,2.301-7.857,1.864c1.568,1.827,4.005,2.841,6.563,2.462
			c3.956-0.589,6.686-4.272,6.098-8.227c-0.228-1.521-0.91-2.856-1.892-3.896C247.59,204.661,247.072,206.678,244.489,209.257z"/>
		<circle cx="239.114" cy="203.577" r="1.659"/>
		<circle cx="191.533" cy="263.669" r="7.241"/>
		<path d="M193.893,266.507c-2.932,2.928-5.375,2.301-7.857,1.863c1.567,1.828,4.004,2.84,6.563,2.461
			c3.955-0.588,6.686-4.271,6.098-8.227c-0.228-1.521-0.91-2.857-1.892-3.896C196.994,261.909,196.475,263.927,193.893,266.507z"/>
		<circle cx="188.518" cy="260.826" r="1.659"/>
		<circle cx="200.7" cy="216.896" r="9.53"/>
		<path d="M203.807,220.63c-3.859,3.855-7.074,3.029-10.343,2.453c2.063,2.406,5.271,3.739,8.638,3.238
			c5.206-0.773,8.799-5.621,8.024-10.826c-0.298-2.002-1.198-3.76-2.489-5.128C207.887,214.58,207.205,217.235,203.807,220.63z"/>
		<circle cx="196.733" cy="213.155" r="2.184"/>
		<path d="M321.022,258.702c0,5.82-4.719,10.537-10.539,10.537s-10.54-4.717-10.54-10.537c0-5.822,4.72-10.541,10.54-10.541
			S321.022,252.88,321.022,258.702z"/>
		<path d="M313.08,263.093c-4.413,2.764-6.486,1.605-11.52,1.197c1.864,2.971,5.158,4.949,8.922,4.949
			c5.82,0,10.539-4.717,10.539-10.537c0-2.238-0.701-4.309-1.887-6.014C318.627,258.7,316.478,260.964,313.08,263.093z"/>
		<circle cx="306.75" cy="253.964" r="2.415"/>
		<path d="M171.93,215.196c0.51,5.799-3.778,10.912-9.576,11.422s-10.912-3.777-11.423-9.574c-0.51-5.801,3.778-10.913,9.575-11.423
			C166.305,205.11,171.419,209.397,171.93,215.196z"/>
		<path d="M164.239,220.874c-2.963,1.827-6.701,2.675-11.207,1.598c2.117,2.793,5.572,4.477,9.322,4.146
			c5.798-0.51,10.086-5.623,9.576-11.422c-0.195-2.228-1.076-4.229-2.41-5.824C168.871,215.055,168.555,218.212,164.239,220.874z"/>
		<circle cx="157.297" cy="211.729" r="2.415"/>
		<circle cx="279.852" cy="243.506" r="6.606"/>
		<path d="M281.612,246.485c-1.856,1.146-4.199,1.678-7.023,1.002c1.326,1.752,3.491,2.807,5.843,2.6
			c3.634-0.318,6.321-3.525,6.002-7.159c-0.122-1.396-0.674-2.65-1.511-3.65C284.516,242.839,284.318,244.817,281.612,246.485z"/>
		<circle cx="277.26" cy="240.754" r="1.514"/>
		<circle cx="263.232" cy="232.5" r="8.24"/>
		<path d="M265.427,236.218c-2.315,1.428-5.237,2.092-8.761,1.248c1.656,2.184,4.355,3.5,7.289,3.242
			c4.533-0.398,7.884-4.396,7.484-8.929c-0.151-1.742-0.84-3.306-1.883-4.553C269.049,231.669,268.803,234.135,265.427,236.218z"/>
		<circle cx="260" cy="229.069" r="1.888"/>
		<circle cx="258.208" cy="252.689" r="8.24"/>
		<path d="M260.403,256.405c-2.314,1.43-5.236,2.092-8.76,1.25c1.655,2.184,4.355,3.5,7.288,3.242
			c4.533-0.398,7.884-4.396,7.485-8.93c-0.152-1.742-0.84-3.305-1.883-4.553C264.026,251.856,263.779,254.325,260.403,256.405z"/>
		<circle cx="254.976" cy="249.257" r="1.888"/>
		<circle cx="230.623" cy="257.269" r="8.24"/>
		<path d="M232.819,260.987c-2.316,1.428-5.238,2.092-8.762,1.248c1.656,2.184,4.355,3.5,7.289,3.242
			c4.533-0.398,7.885-4.396,7.485-8.93c-0.151-1.742-0.841-3.305-1.883-4.553C236.441,256.438,236.194,258.905,232.819,260.987z"/>
		<circle cx="227.391" cy="253.837" r="1.888"/>
		<path d="M254.151,266.272c0.399,4.533-2.951,8.531-7.484,8.928c-4.533,0.398-8.531-2.951-8.932-7.484
			c-0.398-4.535,2.954-8.533,7.486-8.93C249.754,258.387,253.754,261.737,254.151,266.272z"/>
		<path d="M248.138,270.71c-2.315,1.43-5.237,2.092-8.761,1.25c1.656,2.184,4.355,3.498,7.289,3.24
			c4.533-0.396,7.884-4.395,7.484-8.928c-0.151-1.742-0.84-3.307-1.883-4.553C251.76,266.161,251.514,268.63,248.138,270.71z"/>
		<path d="M244.592,263.397c0.091,1.037-0.675,1.955-1.715,2.045c-1.04,0.092-1.955-0.678-2.047-1.717
			c-0.091-1.039,0.677-1.955,1.716-2.047C243.586,261.587,244.5,262.354,244.592,263.397z"/>
		<circle cx="279.57" cy="203.578" r="7.294"/>
		<path d="M281.512,206.869c-2.049,1.265-4.635,1.853-7.756,1.105c1.467,1.933,3.857,3.099,6.453,2.87
			c4.014-0.354,6.98-3.891,6.627-7.904c-0.135-1.542-0.744-2.926-1.668-4.031C284.72,202.842,284.501,205.026,281.512,206.869z"/>
		<circle cx="276.709" cy="200.541" r="1.672"/>
		<circle cx="247.938" cy="221.031" r="7.294"/>
		<path d="M249.88,224.321c-2.05,1.266-4.636,1.853-7.755,1.105c1.466,1.934,3.855,3.099,6.451,2.871
			c4.014-0.354,6.98-3.892,6.627-7.904c-0.135-1.543-0.744-2.927-1.667-4.031C253.088,220.294,252.869,222.479,249.88,224.321z"/>
		<path d="M246.742,217.848c0.08,0.918-0.598,1.729-1.52,1.81c-0.92,0.081-1.73-0.601-1.811-1.52
			c-0.082-0.92,0.598-1.731,1.518-1.812C245.851,216.245,246.66,216.925,246.742,217.848z"/>
		<circle cx="207.459" cy="199.178" r="5.472"/>
		<path d="M208.917,201.647c-1.538,0.948-3.479,1.389-5.818,0.829c1.101,1.45,2.892,2.324,4.841,2.153
			c3.01-0.266,5.236-2.919,4.971-5.93c-0.102-1.156-0.559-2.195-1.251-3.023C211.323,198.626,211.158,200.265,208.917,201.647z"/>
		<circle cx="205.314" cy="196.899" r="1.254"/>
		<circle cx="204.049" cy="258.753" r="8.239"/>
		<path d="M206.243,262.469c-2.315,1.43-5.237,2.092-8.761,1.25c1.656,2.184,4.355,3.498,7.289,3.242
			c4.533-0.398,7.885-4.396,7.484-8.93c-0.151-1.742-0.84-3.307-1.882-4.553C209.866,257.921,209.619,260.389,206.243,262.469z"/>
		<path d="M202.698,255.157c0.092,1.037-0.674,1.955-1.715,2.045c-1.039,0.092-1.955-0.678-2.047-1.717
			c-0.091-1.039,0.677-1.955,1.716-2.047C201.692,253.346,202.606,254.114,202.698,255.157z"/>
		<circle cx="186.035" cy="281.731" r="8.24"/>
		<path d="M188.231,285.448c-2.316,1.43-5.238,2.092-8.762,1.25c1.656,2.184,4.355,3.498,7.289,3.24
			c4.533-0.396,7.885-4.395,7.485-8.928c-0.151-1.742-0.841-3.307-1.883-4.553C191.853,280.899,191.606,283.368,188.231,285.448z"/>
		<path d="M184.684,278.135c0.092,1.037-0.674,1.953-1.714,2.045c-1.04,0.09-1.956-0.678-2.048-1.717
			c-0.09-1.039,0.678-1.955,1.717-2.047S184.592,277.093,184.684,278.135z"/>
		<circle cx="192.913" cy="295.116" r="8.24"/>
		<path d="M195.108,298.833c-2.314,1.428-5.236,2.092-8.76,1.248c1.655,2.184,4.355,3.5,7.289,3.242
			c4.532-0.398,7.884-4.395,7.484-8.928c-0.152-1.742-0.84-3.307-1.883-4.553C198.731,294.284,198.484,296.751,195.108,298.833z"/>
		<path d="M191.563,291.52c0.091,1.037-0.675,1.953-1.715,2.045c-1.04,0.09-1.955-0.678-2.047-1.717s0.676-1.955,1.715-2.047
			C190.557,289.71,191.471,290.477,191.563,291.52z"/>
		<path d="M254.346,238.969c0.51,5.799-3.778,10.912-9.576,11.422s-10.912-3.777-11.423-9.574
			c-0.51-5.801,3.778-10.913,9.575-11.424C248.721,228.884,253.835,233.17,254.346,238.969z"/>
		<path d="M246.655,244.647c-2.963,1.826-6.701,2.676-11.207,1.598c2.117,2.793,5.572,4.477,9.322,4.146
			c5.798-0.51,10.086-5.623,9.576-11.422c-0.195-2.228-1.076-4.229-2.41-5.824C251.287,238.829,250.971,241.984,246.655,244.647z"/>
		<circle cx="239.713" cy="235.503" r="2.415"/>
		<circle cx="298.701" cy="198.59" r="9.529"/>
		<path d="M300.754,202.6c-3.836,2.27-7.77,1.915-10.12,1.045c1.687,2.684,4.664,4.474,8.067,4.474c5.264,0,9.529-4.266,9.529-9.529
			c0-2.022-0.632-3.894-1.708-5.437C305.639,197.55,304.565,200.345,300.754,202.6z"/>
		<circle cx="295.326" cy="194.305" r="2.184"/>
		<circle cx="266.608" cy="175.254" r="10.54"/>
		<path d="M269.416,180.009c-2.963,1.826-6.701,2.674-11.207,1.598c2.117,2.793,5.571,4.476,9.322,4.146
			c5.798-0.51,10.086-5.624,9.576-11.422c-0.195-2.229-1.076-4.229-2.41-5.824C274.049,174.189,273.733,177.345,269.416,180.009z"/>
		<circle cx="262.475" cy="170.864" r="2.415"/>
		<circle cx="144.871" cy="262.706" r="9.53"/>
		<path d="M146.339,267.387c-4.106,2.063-5.757,1.07-9.536,0.375c1.688,2.684,4.664,4.473,8.068,4.473
			c5.264,0,9.529-4.266,9.529-9.529c0-2.023-0.633-3.895-1.709-5.436C152.346,260.604,151.936,264.575,146.339,267.387z"/>
		<circle cx="141.495" cy="258.423" r="2.185"/>
		<circle cx="163.215" cy="242.031" r="9.53"/>
		<path d="M164.683,246.714c-4.106,2.063-5.757,1.07-9.536,0.375c1.688,2.684,4.664,4.473,8.068,4.473
			c5.264,0,9.529-4.266,9.529-9.53c0-2.022-0.633-3.894-1.708-5.437C170.69,239.93,170.28,243.901,164.683,246.714z"/>
		<circle cx="159.839" cy="237.749" r="2.185"/>
		<circle cx="160.144" cy="272.235" r="9.53"/>
		<path d="M161.613,276.917c-4.106,2.064-5.757,1.072-9.536,0.375c1.688,2.686,4.664,4.475,8.068,4.475
			c5.264,0,9.529-4.268,9.529-9.531c0-2.021-0.633-3.893-1.709-5.436C167.619,270.135,167.209,274.106,161.613,276.917z"/>
		<circle cx="156.768" cy="267.954" r="2.184"/>
		<circle cx="168.114" cy="257.781" r="9.529"/>
		<path d="M171.22,261.516c-3.859,3.855-7.075,3.029-10.343,2.453c2.063,2.404,5.271,3.738,8.637,3.238
			c5.207-0.773,8.799-5.621,8.025-10.828c-0.298-2.002-1.197-3.758-2.488-5.127C175.301,255.466,174.619,258.122,171.22,261.516z"/>
		<circle cx="164.145" cy="254.041" r="2.184"/>
		<circle cx="194.547" cy="226.923" r="7.241"/>
		<path d="M196.907,229.76c-2.933,2.929-5.374,2.301-7.858,1.863c1.568,1.828,4.006,2.842,6.563,2.462
			c3.957-0.588,6.686-4.272,6.098-8.227c-0.227-1.521-0.91-2.856-1.891-3.896C200.008,225.163,199.49,227.18,196.907,229.76z"/>
		<circle cx="191.532" cy="224.079" r="1.66"/>
	</g>
	<g>
		<g>
			<g>
				<circle fill="#116B11" cx="285.005" cy="222.635" r="12.033"/>
				<circle fill="#116B11" cx="272.972" cy="238.676" r="12.033"/>
				<circle fill="#116B11" cx="303.293" cy="201.667" r="8.028"/>
				<circle fill="#116B11" cx="293.033" cy="234.67" r="8.028"/>
				<path fill="#116B11" d="M297.038,234.67c0,4.434-3.592,8.026-8.028,8.026c-4.434,0-8.026-3.593-8.026-8.026
					c0-4.436,3.593-8.028,8.026-8.028C293.447,226.641,297.038,230.234,297.038,234.67z"/>
				<circle fill="#116B11" cx="145.511" cy="259.871" r="12.034"/>
				<circle fill="#116B11" cx="152.972" cy="239.197" r="12.034"/>
				<circle fill="#116B11" cx="141.176" cy="214.059" r="12.035"/>
				<circle fill="#116B11" cx="192.056" cy="285.921" r="12.033"/>
				<circle fill="#116B11" cx="234.486" cy="285.921" r="12.033"/>
				<circle fill="#116B11" cx="150.964" cy="225.025" r="12.033"/>
				<circle fill="#116B11" cx="158.577" cy="199.002" r="8.028"/>
				<circle fill="#116B11" cx="210.421" cy="285.921" r="8.028"/>
				<circle fill="#116B11" cx="236.988" cy="162.209" r="12.034"/>
				<circle fill="#116B11" cx="285.005" cy="179.882" r="12.033"/>
				<circle fill="#116B11" cx="270.716" cy="167.849" r="12.033"/>
				<circle fill="#116B11" cx="252.993" cy="275.572" r="12.033"/>
				<circle fill="#116B11" cx="300.39" cy="191.552" r="12.033"/>
				<circle fill="#116B11" cx="293.033" cy="191.916" r="8.028"/>
				<path fill="#116B11" d="M297.038,191.916c0,4.434-3.592,8.026-8.028,8.026c-4.434,0-8.026-3.593-8.026-8.026
					c0-4.436,3.593-8.028,8.026-8.028C293.447,183.887,297.038,187.48,297.038,191.916z"/>
				<circle fill="#116B11" cx="181.042" cy="171.835" r="12.034"/>
				<circle fill="#116B11" cx="200.104" cy="165.44" r="12.034"/>
				<circle fill="#116B11" cx="159.302" cy="273.886" r="12.034"/>
				<circle fill="#116B11" cx="150.411" cy="206.578" r="12.033"/>
				<circle fill="#116B11" cx="268.814" cy="259.871" r="12.033"/>
				<circle fill="#116B11" cx="158.439" cy="156.417" r="8.029"/>
				<circle fill="#116B11" cx="209.211" cy="174.142" r="8.027"/>
				<circle fill="#116B11" cx="154.475" cy="191.895" r="8.028"/>
				<path fill="#116B11" d="M255.782,275.572l12.303-18.758l8.336-23.44l12.59-15.89l11.379-13.898l-10.071-17.047l-40.911-26.796
					c0,0-37.121,3.917-40.195,4.332c-3.075,0.415-32.664,4.029-32.664,4.029l-23.283,29.958l-4.98,24.771l4.142,24.354
					l-6.915,12.684l19.495,18.021l17.951,8.064l38.288,2.475L255.782,275.572z"/>
				<circle fill="#329A37" cx="299.187" cy="212.633" r="12.033"/>
				<circle fill="#277C27" cx="224.059" cy="287.924" r="12.034"/>
				<circle fill="#277C27" cx="174.929" cy="285.92" r="8.028"/>
				<circle fill="#329A37" cx="136.544" cy="247.839" r="8.027"/>
				<circle fill="#329A37" cx="256.051" cy="155.814" r="9.634"/>
				<circle fill="#277C27" cx="166.507" cy="182.363" r="12.033"/>
				<circle fill="#329A37" cx="216.107" cy="161.179" r="12.033"/>
				<circle fill="#329A37" cx="233.445" cy="187.161" r="6.654"/>
				<circle fill="#329A37" cx="161.402" cy="245.209" r="6.654"/>
				<circle fill="#277C27" cx="230.962" cy="223.132" r="12.034"/>
				<circle fill="#277C27" cx="270.831" cy="215.562" r="7.833"/>
				<circle fill="#277C27" cx="276.937" cy="205.933" r="7.833"/>
				<circle fill="#277C27" cx="252.159" cy="203.586" r="7.833"/>
				<circle fill="#277C27" cx="264.906" cy="235.677" r="7.833"/>
				<circle fill="#277C27" cx="261.67" cy="247.597" r="5.884"/>
				<circle fill="#277C27" cx="177.348" cy="211.418" r="5.883"/>
				<circle fill="#277C27" cx="194.417" cy="234.941" r="8.539"/>
				<circle fill="#277C27" cx="171.683" cy="265.201" r="8.539"/>
				<circle fill="#277C27" cx="215.423" cy="253.592" r="8.539"/>
				<circle fill="#277C27" cx="180.679" cy="177.377" r="8.539"/>
				<circle fill="#277C27" cx="212.138" cy="215.562" r="8.539"/>
				<circle fill="#277C27" cx="188.714" cy="261.974" r="12.034"/>
				<circle fill="#277C27" cx="163.452" cy="216.433" r="12.033"/>
				<circle fill="#277C27" cx="204.072" cy="189.287" r="5.333"/>
				<circle fill="#277C27" cx="186.736" cy="228.467" r="5.334"/>
				<circle fill="#277C27" cx="248.437" cy="258.129" r="8.172"/>
				<path fill="#277C27" d="M271.562,184.969c0,5.157-4.182,9.338-9.34,9.338c-5.156,0-9.338-4.181-9.338-9.338
					c0-5.16,4.182-9.34,9.338-9.34C267.38,175.629,271.562,179.808,271.562,184.969z"/>
			</g>
			<g>
				<circle fill="#329A37" cx="164.006" cy="226.517" r="7.351"/>
				<path fill="#258327" d="M165.138,230.129c-3.168,1.592-4.439,0.826-7.355,0.289c1.303,2.071,3.598,3.451,6.224,3.451
					c4.06,0,7.351-3.291,7.351-7.352c0-1.559-0.488-3.004-1.318-4.192C169.771,224.898,169.456,227.961,165.138,230.129z"/>
				<circle fill="#48B650" cx="161.402" cy="223.215" r="1.685"/>
			</g>
			<g>
				<circle fill="#329A37" cx="225.763" cy="175.501" r="9.53"/>
				<path fill="#258327" d="M227.232,180.182c-4.106,2.063-5.757,1.071-9.536,0.375c1.688,2.685,4.664,4.474,8.068,4.474
					c5.264,0,9.529-4.267,9.529-9.53c0-2.022-0.633-3.894-1.708-5.436C233.239,173.4,232.829,177.371,227.232,180.182z"/>
				<circle fill="#48B650" cx="222.387" cy="171.219" r="2.184"/>
			</g>
			<g>
				<circle fill="#329A37" cx="282.121" cy="183.006" r="9.53"/>
				<path fill="#258327" d="M283.589,187.687c-4.106,2.063-5.756,1.071-9.535,0.375c1.688,2.685,4.664,4.475,8.067,4.475
					c5.264,0,9.53-4.268,9.53-9.531c0-2.021-0.633-3.894-1.709-5.436C289.596,180.906,289.187,184.876,283.589,187.687z"/>
				<circle fill="#48B650" cx="278.745" cy="178.723" r="2.184"/>
			</g>
			<g>
				<circle fill="#329A37" cx="217.528" cy="215.601" r="7.914"/>
				<path fill="#258327" d="M218.747,219.489c-3.409,1.714-4.779,0.889-7.918,0.312c1.401,2.229,3.873,3.715,6.699,3.715
					c4.371,0,7.913-3.544,7.913-7.914c0-1.68-0.524-3.234-1.418-4.514C223.736,213.857,223.396,217.154,218.747,219.489z"/>
				<circle fill="#48B650" cx="214.725" cy="212.045" r="1.813"/>
			</g>
			<g>
				<circle fill="#329A37" cx="222.753" cy="229.326" r="7.914"/>
				<path fill="#258327" d="M223.972,233.215c-3.41,1.713-4.779,0.889-7.918,0.311c1.4,2.229,3.873,3.715,6.699,3.715
					c4.371,0,7.913-3.543,7.913-7.914c0-1.678-0.524-3.233-1.418-4.514C228.96,227.582,228.62,230.88,223.972,233.215z"/>
				<circle fill="#48B650" cx="219.949" cy="225.77" r="1.813"/>
			</g>
			<g>
				<circle fill="#329A37" cx="202.392" cy="228.863" r="7.914"/>
				<path fill="#258327" d="M203.612,232.751c-3.409,1.714-4.78,0.89-7.919,0.312c1.402,2.229,3.873,3.715,6.7,3.715
					c4.37,0,7.913-3.544,7.913-7.914c0-1.679-0.525-3.234-1.418-4.514C208.599,227.119,208.259,230.416,203.612,232.751z"/>
				<circle fill="#48B650" cx="199.589" cy="225.306" r="1.813"/>
			</g>
			<g>
				<circle fill="#329A37" cx="299.68" cy="213.908" r="11.752"/>
				<path fill="#258327" d="M301.49,219.681c-5.064,2.545-7.099,1.322-11.76,0.463c2.082,3.311,5.753,5.518,9.951,5.518
					c6.49,0,11.751-5.263,11.751-11.754c0-2.494-0.78-4.802-2.106-6.703C308.899,211.318,308.393,216.215,301.49,219.681z"/>
				<path fill="#48B650" d="M298.21,208.626c0,1.487-1.205,2.692-2.693,2.692c-1.484,0-2.693-1.205-2.693-2.692
					c0-1.486,1.209-2.692,2.693-2.692C297.005,205.933,298.21,207.139,298.21,208.626z"/>
			</g>
			<g>
				<circle fill="#329A37" cx="258.327" cy="189.219" r="9.333"/>
				<path fill="#258327" d="M259.765,193.803c-4.021,2.022-5.639,1.048-9.339,0.367c1.652,2.63,4.567,4.382,7.901,4.382
					c5.154,0,9.333-4.18,9.333-9.334c0-1.979-0.619-3.814-1.673-5.323C265.648,187.161,265.246,191.051,259.765,193.803z"/>
				<circle fill="#48B650" cx="255.021" cy="185.023" r="2.139"/>
			</g>
			<g>
				<circle fill="#329A37" cx="265.026" cy="270.847" r="7.914"/>
				<path fill="#258327" d="M266.245,274.736c-3.41,1.713-4.78,0.889-7.918,0.311c1.4,2.229,3.873,3.715,6.699,3.715
					c4.371,0,7.913-3.543,7.913-7.914c0-1.68-0.524-3.234-1.418-4.514C271.234,269.103,270.894,272.4,266.245,274.736z"/>
				<circle fill="#48B650" cx="262.223" cy="267.291" r="1.813"/>
			</g>
			<g>
				<circle fill="#329A37" cx="278.745" cy="249.021" r="7.913"/>
				<path fill="#258327" d="M279.964,252.908c-3.409,1.715-4.779,0.891-7.918,0.313c1.401,2.229,3.873,3.715,6.699,3.715
					c4.371,0,7.913-3.543,7.913-7.914c0-1.68-0.524-3.234-1.418-4.514C284.952,247.277,284.613,250.574,279.964,252.908z"/>
				<circle fill="#48B650" cx="275.942" cy="245.465" r="1.813"/>
			</g>
			<g>
				<circle fill="#329A37" cx="283.503" cy="237.058" r="9.602"/>
				<path fill="#258327" d="M284.982,241.775c-4.137,2.08-5.8,1.078-9.607,0.379c1.701,2.703,4.7,4.506,8.129,4.506
					c5.303,0,9.602-4.299,9.602-9.602c0-2.037-0.637-3.924-1.721-5.478C291.034,234.941,290.622,238.943,284.982,241.775z"/>
				<path fill="#48B650" d="M282.302,232.744c0,1.214-0.984,2.197-2.199,2.197s-2.201-0.983-2.201-2.197
					c0-1.217,0.986-2.202,2.201-2.202S282.302,231.527,282.302,232.744z"/>
			</g>
			<g>
				<circle fill="#329A37" cx="294.274" cy="227.163" r="7.914"/>
				<path fill="#258327" d="M295.493,231.051c-3.41,1.714-4.78,0.889-7.918,0.312c1.4,2.229,3.873,3.715,6.699,3.715
					c4.371,0,7.913-3.544,7.913-7.914c0-1.679-0.524-3.233-1.418-4.514C300.482,225.419,300.142,228.717,295.493,231.051z"/>
				<circle fill="#48B650" cx="291.471" cy="223.607" r="1.813"/>
			</g>
			<g>
				<circle fill="#329A37" cx="213.222" cy="247.256" r="9.53"/>
				<path fill="#258327" d="M214.691,251.937c-4.106,2.063-5.757,1.07-9.535,0.375c1.688,2.684,4.663,4.475,8.067,4.475
					c5.264,0,9.529-4.268,9.529-9.531c0-2.021-0.632-3.895-1.708-5.436C220.698,245.156,220.288,249.125,214.691,251.937z"/>
				<circle fill="#48B650" cx="209.847" cy="242.972" r="2.184"/>
			</g>
			<g>
				<circle fill="#329A37" cx="188.069" cy="182.921" r="9.53"/>
				<path fill="#258327" d="M189.537,187.602c-4.106,2.063-5.757,1.071-9.536,0.375c1.688,2.684,4.664,4.474,8.068,4.474
					c5.264,0,9.529-4.268,9.529-9.53c0-2.022-0.633-3.895-1.708-5.437C195.544,180.82,195.134,184.791,189.537,187.602z"/>
				<circle fill="#48B650" cx="184.694" cy="178.638" r="2.185"/>
			</g>
			<g>
				<circle fill="#329A37" cx="176.48" cy="267.301" r="9.529"/>
				<path fill="#258327" d="M177.948,271.982c-4.107,2.064-5.758,1.07-9.536,0.375c1.688,2.684,4.664,4.475,8.067,4.475
					c5.264,0,9.529-4.268,9.529-9.531c0-2.021-0.632-3.895-1.707-5.436C183.954,265.201,183.545,269.172,177.948,271.982z"/>
				<circle fill="#48B650" cx="173.104" cy="263.017" r="2.184"/>
			</g>
			<g>
				<circle fill="#329A37" cx="236.093" cy="292.281" r="7.914"/>
				<path fill="#258327" d="M237.312,296.168c-3.409,1.715-4.779,0.891-7.918,0.313c1.401,2.229,3.873,3.715,6.699,3.715
					c4.372,0,7.913-3.543,7.913-7.914c0-1.68-0.524-3.232-1.418-4.514C242.3,290.537,241.96,293.834,237.312,296.168z"/>
				<circle fill="#48B650" cx="233.289" cy="288.724" r="1.813"/>
			</g>
			<g>
				<circle fill="#329A37" cx="244.016" cy="283.41" r="7.913"/>
				<path fill="#258327" d="M245.236,287.299c-3.41,1.713-4.78,0.889-7.918,0.311c1.4,2.23,3.873,3.715,6.699,3.715
					c4.371,0,7.912-3.543,7.912-7.914c0-1.678-0.523-3.232-1.418-4.514C250.224,281.666,249.884,284.965,245.236,287.299z"/>
				<circle fill="#48B650" cx="241.213" cy="279.853" r="1.813"/>
			</g>
			<g>
				<circle fill="#329A37" cx="295.264" cy="180.332" r="7.914"/>
				<path fill="#258327" d="M296.484,184.22c-3.409,1.713-4.779,0.889-7.918,0.311c1.401,2.229,3.873,3.715,6.699,3.715
					c4.371,0,7.913-3.542,7.913-7.914c0-1.678-0.524-3.232-1.418-4.514C301.472,178.588,301.132,181.885,296.484,184.22z"/>
				<circle fill="#48B650" cx="292.461" cy="176.776" r="1.813"/>
			</g>
			<g>
				<circle fill="#329A37" cx="237.318" cy="154.914" r="7.914"/>
				<path fill="#258327" d="M238.536,158.801c-3.409,1.714-4.779,0.89-7.918,0.313c1.401,2.229,3.873,3.714,6.699,3.714
					c4.372,0,7.914-3.542,7.914-7.913c0-1.68-0.525-3.234-1.418-4.515C243.525,153.169,243.185,156.467,238.536,158.801z"/>
				<circle fill="#48B650" cx="234.514" cy="151.357" r="1.813"/>
			</g>
			<g>
				<circle fill="#329A37" cx="202.331" cy="158.67" r="7.914"/>
				<path fill="#258327" d="M203.55,162.558c-3.409,1.713-4.779,0.889-7.918,0.311c1.4,2.229,3.873,3.715,6.699,3.715
					c4.371,0,7.913-3.543,7.913-7.914c0-1.679-0.524-3.232-1.418-4.514C208.538,156.926,208.198,160.223,203.55,162.558z"/>
				<circle fill="#48B650" cx="199.528" cy="155.113" r="1.813"/>
			</g>
			<g>
				<circle fill="#329A37" cx="213.953" cy="189.219" r="7.913"/>
				<path fill="#258327" d="M215.172,193.107c-3.409,1.713-4.78,0.889-7.918,0.311c1.401,2.229,3.873,3.715,6.7,3.715
					c4.369,0,7.912-3.543,7.912-7.914c0-1.679-0.525-3.234-1.418-4.514C220.16,187.474,219.82,190.772,215.172,193.107z"/>
				<circle fill="#48B650" cx="211.15" cy="185.662" r="1.813"/>
			</g>
			<g>
				<circle fill="#329A37" cx="201.183" cy="287.924" r="7.914"/>
				<path fill="#258327" d="M202.403,291.812c-3.409,1.713-4.78,0.889-7.919,0.311c1.402,2.23,3.873,3.715,6.7,3.715
					c4.372,0,7.913-3.541,7.913-7.914c0-1.678-0.525-3.232-1.418-4.514C207.39,286.179,207.05,289.478,202.403,291.812z"/>
				<circle fill="#48B650" cx="198.38" cy="284.369" r="1.813"/>
			</g>
			<g>
				<circle fill="#48B650" cx="241.619" cy="182.869" r="10.54"/>
				<path fill="#329A37" d="M243.55,186.103c-4.676,2.748-7.494,2.966-11.172,1.811c1.684,3.076,4.853,5.248,8.609,5.475
					c5.812,0.349,10.804-4.078,11.152-9.889c0.134-2.232-0.442-4.342-1.525-6.115C250.056,181.511,248.227,183.353,243.55,186.103z"
					/>
				<circle fill="#6FC873" cx="238.177" cy="177.916" r="2.415"/>
			</g>
			<g>
				<path fill="#48B650" d="M235.493,159.744c0,5.82-4.719,10.537-10.539,10.537s-10.54-4.717-10.54-10.537
					c0-5.822,4.72-10.541,10.54-10.541S235.493,153.922,235.493,159.744z"/>
				<path fill="#329A37" d="M227.075,162.855c-4.504,3.024-7.303,3.41-11.043,2.478c1.863,2.97,5.157,4.948,8.922,4.948
					c5.82,0,10.539-4.717,10.539-10.537c0-2.237-0.701-4.309-1.888-6.014C233.294,157.885,231.578,159.832,227.075,162.855z"/>
				<circle fill="#6FC873" cx="221.221" cy="155.006" r="2.415"/>
			</g>
			<g>
				<circle fill="#48B650" cx="187.246" cy="245.209" r="9.53"/>
				<path fill="#329A37" d="M188.714,249.89c-4.106,2.063-5.757,1.07-9.536,0.375c1.688,2.684,4.664,4.473,8.068,4.473
					c5.264,0,9.529-4.266,9.529-9.529c0-2.021-0.633-3.895-1.708-5.437C194.721,243.109,194.312,247.078,188.714,249.89z"/>
				<circle fill="#6FC873" cx="183.87" cy="240.926" r="2.184"/>
			</g>
			<g>
				<circle fill="#48B650" cx="139.202" cy="207.029" r="9.53"/>
				<path fill="#329A37" d="M141.254,211.041c-3.835,2.27-7.77,1.914-10.12,1.045c1.687,2.682,4.664,4.473,8.067,4.473
					c5.264,0,9.53-4.266,9.53-9.529c0-2.022-0.633-3.894-1.709-5.437C146.14,205.99,145.066,208.785,141.254,211.041z"/>
				<circle fill="#6FC873" cx="135.826" cy="202.746" r="2.185"/>
			</g>
			<g>
				<circle fill="#48B650" cx="139.359" cy="231.62" r="9.53"/>
				<path fill="#329A37" d="M141.167,235.748c-3.964,2.035-7.871,1.445-10.164,0.437c1.523,2.779,4.388,4.744,7.784,4.948
					c5.255,0.315,9.769-3.688,10.084-8.941c0.121-2.02-0.398-3.925-1.38-5.529C146.347,230.997,145.107,233.724,141.167,235.748z"/>
				<circle fill="#6FC873" cx="136.245" cy="227.142" r="2.184"/>
			</g>
			<g>
				<circle fill="#48B650" cx="177.715" cy="167.847" r="9.53"/>
				<path fill="#329A37" d="M179.767,171.859c-3.834,2.27-7.769,1.914-10.119,1.044c1.687,2.683,4.664,4.474,8.066,4.474
					c5.264,0,9.531-4.266,9.531-9.529c0-2.023-0.633-3.895-1.709-5.437C184.654,166.808,183.579,169.603,179.767,171.859z"/>
				<circle fill="#6FC873" cx="174.34" cy="163.564" r="2.184"/>
			</g>
			<g>
				<circle fill="#48B650" cx="158.098" cy="195.51" r="9.53"/>
				<path fill="#329A37" d="M159.906,199.636c-3.963,2.035-7.87,1.445-10.163,0.436c1.522,2.779,4.388,4.745,7.784,4.949
					c5.254,0.315,9.769-3.688,10.084-8.941c0.121-2.02-0.398-3.926-1.381-5.529C165.085,194.885,163.845,197.613,159.906,199.636z"
					/>
				<circle fill="#6FC873" cx="154.984" cy="191.031" r="2.184"/>
			</g>
			<g>
				<circle fill="#48B650" cx="176.524" cy="224.665" r="9.53"/>
				<path fill="#329A37" d="M178.576,228.676c-3.835,2.27-7.77,1.915-10.12,1.045c1.687,2.684,4.664,4.474,8.067,4.474
					c5.264,0,9.53-4.266,9.53-9.529c0-2.022-0.633-3.894-1.709-5.437C183.462,223.625,182.388,226.421,178.576,228.676z"/>
				<circle fill="#6FC873" cx="173.149" cy="220.381" r="2.185"/>
			</g>
			<g>
				<circle fill="#48B650" cx="212.139" cy="280.01" r="9.53"/>
				<path fill="#329A37" d="M214.191,284.021c-3.834,2.27-7.769,1.914-10.119,1.045c1.687,2.684,4.664,4.475,8.066,4.475
					c5.264,0,9.531-4.268,9.531-9.531c0-2.021-0.633-3.893-1.709-5.436C219.077,278.97,218.003,281.767,214.191,284.021z"/>
				<circle fill="#6FC873" cx="208.763" cy="275.726" r="2.184"/>
			</g>
			<g>
				<circle fill="#48B650" cx="260.939" cy="217.301" r="9.53"/>
				<path fill="#329A37" d="M262.991,221.312c-3.836,2.27-7.77,1.914-10.12,1.045c1.687,2.683,4.664,4.473,8.067,4.473
					c5.264,0,9.53-4.266,9.53-9.529c0-2.022-0.633-3.894-1.708-5.436C267.876,216.261,266.803,219.056,262.991,221.312z"/>
				<circle fill="#6FC873" cx="257.563" cy="213.017" r="2.184"/>
			</g>
			<g>
				<circle fill="#48B650" cx="158.577" cy="156.417" r="8.559"/>
				<path fill="#329A37" d="M159.416,160.377c-3.857,1.066-7.187-0.164-9.019-1.469c0.832,2.722,2.994,4.973,5.945,5.771
					c4.563,1.232,9.263-1.465,10.497-6.028c0.474-1.753,0.364-3.524-0.207-5.114C164.836,157.142,163.249,159.315,159.416,160.377z"
					/>
				<circle fill="#6FC873" cx="156.656" cy="151.91" r="1.962"/>
			</g>
			<g>
				<circle fill="#48B650" cx="175.333" cy="188.846" r="9.53"/>
				<path fill="#329A37" d="M178.439,192.581c-3.859,3.854-7.074,3.028-10.342,2.452c2.063,2.406,5.271,3.739,8.637,3.238
					c5.207-0.773,8.799-5.621,8.025-10.826c-0.299-2.002-1.197-3.76-2.489-5.127C182.521,186.531,181.838,189.186,178.439,192.581z"
					/>
				<circle fill="#6FC873" cx="171.365" cy="185.105" r="2.184"/>
			</g>
			<g>
				<circle fill="#48B650" cx="189.553" cy="167.848" r="9.53"/>
				<path fill="#329A37" d="M192.659,171.584c-3.859,3.854-7.074,3.027-10.342,2.453c2.063,2.404,5.271,3.738,8.637,3.238
					c5.207-0.774,8.799-5.622,8.025-10.828c-0.299-2.002-1.197-3.758-2.489-5.127C196.74,165.533,196.059,168.189,192.659,171.584z"
					/>
				<circle fill="#6FC873" cx="185.585" cy="164.108" r="2.184"/>
			</g>
			<g>
				<circle fill="#48B650" cx="274.557" cy="162.411" r="9.53"/>
				<path fill="#329A37" d="M277.663,166.146c-3.859,3.854-7.074,3.027-10.342,2.452c2.063,2.405,5.271,3.739,8.637,3.238
					c5.207-0.774,8.799-5.622,8.025-10.827c-0.299-2.002-1.197-3.759-2.489-5.127C281.744,160.095,281.063,162.751,277.663,166.146z
					"/>
				<circle fill="#6FC873" cx="270.589" cy="158.67" r="2.184"/>
			</g>
			<g>
				<circle fill="#48B650" cx="201.184" cy="177.377" r="9.529"/>
				<path fill="#329A37" d="M204.29,181.111c-3.859,3.855-7.074,3.029-10.342,2.453c2.063,2.406,5.271,3.739,8.637,3.238
					c5.207-0.773,8.799-5.621,8.024-10.826c-0.298-2.002-1.197-3.76-2.489-5.128C208.371,175.061,207.689,177.717,204.29,181.111z"
					/>
				<circle fill="#6FC873" cx="197.216" cy="173.636" r="2.184"/>
			</g>
			<g>
				<circle fill="#48B650" cx="177.716" cy="200.598" r="9.529"/>
				<path fill="#329A37" d="M180.822,204.333c-3.858,3.854-7.074,3.028-10.342,2.452c2.063,2.406,5.271,3.739,8.637,3.239
					c5.207-0.774,8.799-5.622,8.025-10.827c-0.298-2.002-1.197-3.76-2.488-5.127C184.904,198.283,184.221,200.938,180.822,204.333z"
					/>
				<circle fill="#6FC873" cx="173.747" cy="196.857" r="2.184"/>
			</g>
			<g>
				<circle fill="#48B650" cx="224.954" cy="208.894" r="9.529"/>
				<path fill="#329A37" d="M228.06,212.629c-3.859,3.855-7.074,3.028-10.342,2.453c2.063,2.405,5.271,3.738,8.637,3.238
					c5.207-0.773,8.799-5.621,8.025-10.827c-0.298-2.002-1.197-3.759-2.489-5.128C232.142,206.578,231.459,209.234,228.06,212.629z"
					/>
				<circle fill="#6FC873" cx="220.986" cy="205.153" r="2.184"/>
			</g>
			<g>
				<circle fill="#48B650" cx="226.494" cy="187.29" r="9.529"/>
				<path fill="#329A37" d="M229.601,191.024c-3.859,3.854-7.074,3.028-10.342,2.453c2.063,2.405,5.271,3.739,8.637,3.238
					c5.207-0.774,8.799-5.622,8.024-10.827c-0.298-2.002-1.197-3.759-2.489-5.127C233.682,184.974,232.999,187.63,229.601,191.024z"
					/>
				<circle fill="#6FC873" cx="222.527" cy="183.549" r="2.184"/>
			</g>
			<g>
				<circle fill="#48B650" cx="236.46" cy="203.586" r="7.241"/>
				<path fill="#329A37" d="M238.82,206.422c-2.932,2.93-5.374,2.301-7.857,1.864c1.568,1.827,4.005,2.841,6.563,2.462
					c3.956-0.589,6.686-4.272,6.098-8.227c-0.228-1.521-0.91-2.856-1.892-3.896C241.921,201.826,241.403,203.844,238.82,206.422z"/>
				<circle fill="#6FC873" cx="233.445" cy="200.742" r="1.659"/>
			</g>
			<g>
				<circle fill="#48B650" cx="185.865" cy="260.834" r="7.241"/>
				<path fill="#329A37" d="M188.224,263.672c-2.932,2.928-5.375,2.301-7.857,1.863c1.567,1.828,4.004,2.84,6.563,2.461
					c3.955-0.588,6.686-4.271,6.098-8.227c-0.228-1.521-0.91-2.857-1.892-3.896C191.325,259.074,190.806,261.092,188.224,263.672z"
					/>
				<circle fill="#6FC873" cx="182.849" cy="257.991" r="1.659"/>
			</g>
			<g>
				<circle fill="#48B650" cx="195.031" cy="214.061" r="9.53"/>
				<path fill="#329A37" d="M198.138,217.795c-3.859,3.855-7.074,3.029-10.343,2.453c2.063,2.406,5.271,3.739,8.638,3.238
					c5.206-0.773,8.799-5.621,8.024-10.826c-0.298-2.002-1.198-3.76-2.489-5.128C202.218,211.745,201.536,214.4,198.138,217.795z"/>
				<circle fill="#6FC873" cx="191.064" cy="210.32" r="2.184"/>
			</g>
			<g>
				<path fill="#48B650" d="M315.353,255.867c0,5.82-4.719,10.537-10.539,10.537s-10.54-4.717-10.54-10.537
					c0-5.822,4.72-10.541,10.54-10.541S315.353,250.045,315.353,255.867z"/>
				<path fill="#329A37" d="M307.411,260.258c-4.413,2.764-6.486,1.605-11.52,1.197c1.864,2.971,5.158,4.949,8.922,4.949
					c5.82,0,10.539-4.717,10.539-10.537c0-2.238-0.701-4.309-1.887-6.014C312.958,255.865,310.809,258.129,307.411,260.258z"/>
				<circle fill="#6FC873" cx="301.081" cy="251.129" r="2.415"/>
			</g>
			<g>
				<path fill="#48B650" d="M166.261,212.361c0.51,5.799-3.778,10.912-9.576,11.422s-10.912-3.777-11.423-9.574
					c-0.51-5.801,3.778-10.913,9.575-11.423C160.636,202.275,165.75,206.562,166.261,212.361z"/>
				<path fill="#329A37" d="M158.57,218.039c-2.963,1.827-6.701,2.675-11.207,1.598c2.117,2.793,5.572,4.477,9.322,4.146
					c5.798-0.51,10.086-5.623,9.576-11.422c-0.195-2.228-1.076-4.229-2.41-5.824C163.202,212.22,162.886,215.377,158.57,218.039z"/>
				<circle fill="#6FC873" cx="151.628" cy="208.894" r="2.415"/>
			</g>
			<g>
				<circle fill="#48B650" cx="274.183" cy="240.671" r="6.606"/>
				<path fill="#329A37" d="M275.943,243.65c-1.856,1.146-4.199,1.678-7.023,1.002c1.326,1.752,3.491,2.807,5.843,2.6
					c3.634-0.318,6.321-3.525,6.002-7.159c-0.122-1.396-0.674-2.65-1.511-3.65C278.847,240.004,278.649,241.982,275.943,243.65z"/>
				<circle fill="#6FC873" cx="271.592" cy="237.919" r="1.514"/>
			</g>
			<g>
				<circle fill="#48B650" cx="257.563" cy="229.665" r="8.24"/>
				<path fill="#329A37" d="M259.758,233.383c-2.315,1.428-5.237,2.092-8.761,1.248c1.656,2.184,4.355,3.5,7.289,3.242
					c4.533-0.398,7.884-4.396,7.484-8.929c-0.151-1.742-0.84-3.306-1.883-4.553C263.38,228.834,263.134,231.301,259.758,233.383z"/>
				<circle fill="#6FC873" cx="254.331" cy="226.234" r="1.888"/>
			</g>
			<g>
				<circle fill="#48B650" cx="252.539" cy="249.854" r="8.24"/>
				<path fill="#329A37" d="M254.734,253.57c-2.314,1.43-5.236,2.092-8.76,1.25c1.655,2.184,4.355,3.5,7.288,3.242
					c4.533-0.398,7.884-4.396,7.485-8.93c-0.152-1.742-0.84-3.305-1.883-4.553C258.357,249.021,258.11,251.49,254.734,253.57z"/>
				<circle fill="#6FC873" cx="249.307" cy="246.422" r="1.888"/>
			</g>
			<g>
				<circle fill="#48B650" cx="224.954" cy="254.434" r="8.24"/>
				<path fill="#329A37" d="M227.15,258.152c-2.316,1.428-5.238,2.092-8.762,1.248c1.656,2.184,4.355,3.5,7.289,3.242
					c4.533-0.398,7.885-4.396,7.485-8.93c-0.151-1.742-0.841-3.305-1.883-4.553C230.772,253.603,230.525,256.07,227.15,258.152z"/>
				<circle fill="#6FC873" cx="221.722" cy="251.002" r="1.888"/>
			</g>
			<g>
				<path fill="#48B650" d="M248.482,263.437c0.399,4.533-2.951,8.531-7.484,8.928c-4.533,0.398-8.531-2.951-8.932-7.484
					c-0.398-4.535,2.954-8.533,7.486-8.93C244.085,255.552,248.085,258.902,248.482,263.437z"/>
				<path fill="#329A37" d="M242.469,267.875c-2.315,1.43-5.237,2.092-8.761,1.25c1.656,2.184,4.355,3.498,7.289,3.24
					c4.533-0.396,7.884-4.395,7.484-8.928c-0.151-1.742-0.84-3.307-1.883-4.553C246.091,263.326,245.845,265.795,242.469,267.875z"
					/>
				<path fill="#6FC873" d="M238.923,260.562c0.091,1.037-0.675,1.955-1.715,2.045c-1.04,0.092-1.955-0.678-2.047-1.717
					c-0.091-1.039,0.677-1.955,1.716-2.047C237.917,258.752,238.831,259.519,238.923,260.562z"/>
			</g>
			<g>
				<circle fill="#48B650" cx="273.901" cy="200.743" r="7.294"/>
				<path fill="#329A37" d="M275.843,204.034c-2.049,1.265-4.635,1.853-7.756,1.105c1.467,1.933,3.857,3.099,6.453,2.87
					c4.014-0.354,6.98-3.891,6.627-7.904c-0.135-1.542-0.744-2.926-1.668-4.031C279.051,200.007,278.832,202.191,275.843,204.034z"
					/>
				<circle fill="#6FC873" cx="271.04" cy="197.706" r="1.672"/>
			</g>
			<g>
				<circle fill="#48B650" cx="242.269" cy="218.196" r="7.294"/>
				<path fill="#329A37" d="M244.211,221.486c-2.05,1.266-4.636,1.853-7.755,1.105c1.466,1.934,3.855,3.099,6.451,2.871
					c4.014-0.354,6.98-3.892,6.627-7.904c-0.135-1.543-0.744-2.927-1.667-4.031C247.419,217.459,247.2,219.644,244.211,221.486z"/>
				<path fill="#6FC873" d="M241.073,215.013c0.08,0.918-0.598,1.729-1.52,1.81c-0.92,0.081-1.73-0.601-1.811-1.52
					c-0.082-0.92,0.598-1.731,1.518-1.812C240.182,213.41,240.991,214.09,241.073,215.013z"/>
			</g>
			<g>
				<circle fill="#48B650" cx="201.79" cy="196.344" r="5.472"/>
				<path fill="#329A37" d="M203.248,198.812c-1.538,0.948-3.479,1.389-5.818,0.829c1.101,1.45,2.892,2.324,4.841,2.153
					c3.01-0.266,5.236-2.919,4.971-5.93c-0.102-1.156-0.559-2.195-1.251-3.023C205.655,195.791,205.49,197.43,203.248,198.812z"/>
				<circle fill="#6FC873" cx="199.645" cy="194.064" r="1.254"/>
			</g>
			<g>
				<circle fill="#48B650" cx="198.38" cy="255.918" r="8.239"/>
				<path fill="#329A37" d="M200.574,259.635c-2.315,1.43-5.237,2.092-8.761,1.25c1.656,2.184,4.355,3.498,7.289,3.242
					c4.533-0.398,7.885-4.396,7.484-8.93c-0.151-1.742-0.84-3.307-1.882-4.553C204.198,255.086,203.95,257.554,200.574,259.635z"/>
				<path fill="#6FC873" d="M197.029,252.322c0.092,1.037-0.674,1.955-1.715,2.045c-1.039,0.092-1.955-0.678-2.047-1.717
					c-0.091-1.039,0.677-1.955,1.716-2.047C196.023,250.511,196.937,251.279,197.029,252.322z"/>
			</g>
			<g>
				<circle fill="#48B650" cx="180.366" cy="278.896" r="8.24"/>
				<path fill="#329A37" d="M182.562,282.613c-2.316,1.43-5.238,2.092-8.762,1.25c1.656,2.184,4.355,3.498,7.289,3.24
					c4.533-0.396,7.885-4.395,7.485-8.928c-0.151-1.742-0.841-3.307-1.883-4.553C186.184,278.064,185.937,280.533,182.562,282.613z"
					/>
				<path fill="#6FC873" d="M179.015,275.301c0.092,1.037-0.674,1.953-1.714,2.045c-1.04,0.09-1.956-0.678-2.048-1.717
					c-0.09-1.039,0.678-1.955,1.717-2.047S178.923,274.258,179.015,275.301z"/>
			</g>
			<g>
				<circle fill="#48B650" cx="187.244" cy="292.281" r="8.24"/>
				<path fill="#329A37" d="M189.439,295.998c-2.314,1.428-5.236,2.092-8.76,1.248c1.655,2.184,4.355,3.5,7.289,3.242
					c4.532-0.398,7.884-4.395,7.484-8.928c-0.152-1.742-0.84-3.307-1.883-4.553C193.062,291.449,192.815,293.916,189.439,295.998z"
					/>
				<path fill="#6FC873" d="M185.894,288.685c0.091,1.037-0.675,1.953-1.715,2.045c-1.04,0.09-1.955-0.678-2.047-1.717
					s0.676-1.955,1.715-2.047C184.888,286.875,185.802,287.642,185.894,288.685z"/>
			</g>
			<g>
				<path fill="#48B650" d="M248.677,236.135c0.51,5.799-3.778,10.912-9.576,11.422s-10.912-3.777-11.423-9.574
					c-0.51-5.801,3.778-10.913,9.575-11.424C243.052,226.049,248.166,230.335,248.677,236.135z"/>
				<path fill="#329A37" d="M240.986,241.812c-2.963,1.826-6.701,2.676-11.207,1.598c2.117,2.793,5.572,4.477,9.322,4.146
					c5.798-0.51,10.086-5.623,9.576-11.422c-0.195-2.228-1.076-4.229-2.41-5.824C245.618,235.994,245.302,239.149,240.986,241.812z"
					/>
				<circle fill="#6FC873" cx="234.044" cy="232.668" r="2.415"/>
			</g>
			<g>
				<circle fill="#48B650" cx="293.032" cy="195.755" r="9.529"/>
				<path fill="#329A37" d="M295.085,199.765c-3.836,2.27-7.77,1.915-10.12,1.045c1.687,2.684,4.664,4.474,8.067,4.474
					c5.264,0,9.529-4.266,9.529-9.529c0-2.022-0.632-3.894-1.708-5.437C299.97,194.715,298.896,197.51,295.085,199.765z"/>
				<circle fill="#6FC873" cx="289.657" cy="191.47" r="2.184"/>
			</g>
			<g>
				<circle fill="#48B650" cx="260.939" cy="172.419" r="10.54"/>
				<path fill="#329A37" d="M263.747,177.174c-2.963,1.826-6.701,2.674-11.207,1.598c2.117,2.793,5.571,4.476,9.322,4.146
					c5.798-0.51,10.086-5.624,9.576-11.422c-0.195-2.229-1.076-4.229-2.41-5.824C268.38,171.354,268.064,174.51,263.747,177.174z"/>
				<circle fill="#6FC873" cx="256.806" cy="168.029" r="2.415"/>
			</g>
			<g>
				<circle fill="#48B650" cx="139.202" cy="259.871" r="9.53"/>
				<path fill="#329A37" d="M140.67,264.552c-4.106,2.063-5.757,1.07-9.536,0.375c1.688,2.684,4.664,4.473,8.068,4.473
					c5.264,0,9.529-4.266,9.529-9.529c0-2.023-0.633-3.895-1.709-5.436C146.677,257.769,146.267,261.74,140.67,264.552z"/>
				<circle fill="#6FC873" cx="135.826" cy="255.588" r="2.185"/>
			</g>
			<g>
				<circle fill="#329A37" cx="157.546" cy="239.196" r="9.53"/>
				<path fill="#258327" d="M159.014,243.879c-4.106,2.063-5.757,1.07-9.536,0.375c1.688,2.684,4.664,4.473,8.068,4.473
					c5.264,0,9.529-4.266,9.529-9.53c0-2.022-0.633-3.894-1.708-5.437C165.021,237.095,164.611,241.066,159.014,243.879z"/>
				<circle fill="#48B650" cx="154.17" cy="234.914" r="2.185"/>
			</g>
			<g>
				<circle fill="#329A37" cx="154.475" cy="269.4" r="9.53"/>
				<path fill="#258327" d="M155.944,274.082c-4.106,2.064-5.757,1.072-9.536,0.375c1.688,2.686,4.664,4.475,8.068,4.475
					c5.264,0,9.529-4.268,9.529-9.531c0-2.021-0.633-3.893-1.709-5.436C161.95,267.301,161.54,271.271,155.944,274.082z"/>
				<circle fill="#48B650" cx="151.099" cy="265.119" r="2.184"/>
			</g>
			<g>
				<circle fill="#48B650" cx="162.445" cy="254.946" r="9.529"/>
				<path fill="#329A37" d="M165.551,258.681c-3.859,3.855-7.075,3.029-10.343,2.453c2.063,2.404,5.271,3.738,8.637,3.238
					c5.207-0.773,8.799-5.621,8.025-10.828c-0.298-2.002-1.197-3.758-2.488-5.127C169.632,252.631,168.95,255.287,165.551,258.681z"
					/>
				<circle fill="#6FC873" cx="158.476" cy="251.206" r="2.184"/>
			</g>
			<g>
				<circle fill="#48B650" cx="188.878" cy="224.088" r="7.241"/>
				<path fill="#329A37" d="M191.239,226.925c-2.933,2.929-5.374,2.301-7.858,1.863c1.568,1.828,4.006,2.842,6.563,2.462
					c3.957-0.588,6.686-4.272,6.098-8.227c-0.227-1.521-0.91-2.856-1.891-3.896C194.339,222.328,193.822,224.345,191.239,226.925z"
					/>
				<circle fill="#6FC873" cx="185.864" cy="221.244" r="1.66"/>
			</g>
		</g>
	</g>
</g>
</svg>
