<?xml version="1.0" encoding="utf-8"?>
<!-- Generator: Adobe Illustrator 16.0.0, SVG Export Plug-In . SVG Version: 6.00 Build 0)  -->
<!DOCTYPE svg PUBLIC "-//W3C//DTD SVG 1.1//EN" "http://www.w3.org/Graphics/SVG/1.1/DTD/svg11.dtd">
<svg version="1.1" id="Ebene_1" xmlns="http://www.w3.org/2000/svg" xmlns:xlink="http://www.w3.org/1999/xlink" x="0px" y="0px"
	 width="450px" height="450px" viewBox="0 0 450 450" enable-background="new 0 0 450 450" xml:space="preserve">
<g opacity="0.3">
	<path fill="#1D1D1B" d="M439.699,190.1c0,0-6.906-11.814-20.087-12.571c-4.8-0.275-12.979,2.346-20.79,2.362
		c5.324-1.503,11.478-3.288,11.478-3.288s-1.502-2.68-4.638-3.563c-3.134-0.883-6.054-1.694-11.441-0.228
		c-5.39,1.468-14.332-5.872-22.953-3.525c-6.16,1.678-11.705,5.252-17.123,7.908c-0.521-0.007-1.05-0.006-1.569-0.036
		c-6.626-0.379-15.188-2.324-20.66-2.638c-5.473-0.314-9.666,2.272-17.156,1.841c-7.493-0.429-10.544-1.091-20.95-1.665
		c-12.087-0.668-13.799,2.775-21.003,2.361c-1.601-0.091-2.859-0.201-3.967-0.32c-0.532-0.254-1.063-0.487-1.576-0.696
		c-8.035-3.233-25.613-3.961-37.758-5.019c-8.752-0.761-16.789,0.837-23.621,2.046c-4.339-1.148-8.898-2.815-13.604-3.084
		c-6.907-0.396-15.363,0.708-22.089,3.368c-9.828,0.533-30.202,3.583-36.498,3.511c-7.014-0.076-23.521-0.313-34.008-0.611
		c-10.487-0.297-21.085,3.264-30.458,4.395c-10.05,1.21-19.902,0.123-26.235,2.099c-9.114,2.841-14.231,17.055-14.231,17.055
		s4.801-0.231,9.878-0.453l0,0c2.855-0.125,5.791-0.246,8.017-0.319l-0.356,0.403l8.337,3.176c0,0,1.292,1.059,7.722,0.575
		c1.751,0.799,5.119,2.079,8.493,1.93c4.869-0.215,17.578,2.64,25.485,3.053c7.02,0.368,15.675-1.502,20.427-1.706
		c-4.576,2.346-6.691,4.291-10.86,6.96c-0.051,0.034-0.107,0.07-0.164,0.104c-0.19,0.123-0.384,0.245-0.586,0.372
		c-0.07,0.046-0.146,0.089-0.22,0.136c-0.45,0.28-0.921,0.567-1.427,0.863c-0.022,0.015-0.041,0.021-0.062,0.035
		c-1.424-0.054-2.856-0.073-4.307-0.024c-6.215,0.199-12.396,1.549-18.878,2.585v-0.001c-0.837,0.135-1.681,0.262-2.53,0.382
		c-0.096,0.016-0.191,0.027-0.289,0.042c-0.858,0.119-1.722,0.228-2.593,0.325c-0.1,0.013-0.201,0.021-0.3,0.031
		c-0.732,0.082-1.471,0.146-2.215,0.209c-0.221,0.017-0.441,0.032-0.662,0.051c-0.854,0.062-1.714,0.11-2.582,0.138
		c-10.791,0.348-22.476-3.938-29.172-3.722C22.895,215.494,13.6,230.502,13.6,230.502l0.122,3.813c0,0,20.895,6.872,30.101,6.577
		c0.535-0.019,1.085-0.029,1.646-0.048c0.005,0,0.01,0,0.014,0c0.562-0.02,1.137-0.033,1.72-0.044c0.004,0,0.006-0.001,0.009-0.001
		c1.164-0.03,2.363-0.054,3.579-0.079c0.023-0.001,0.046-0.001,0.068-0.003c0.579-0.013,1.162-0.024,1.746-0.032
		c0.067-0.001,0.134-0.001,0.201-0.001c0.519-0.009,1.036-0.02,1.551-0.028c0.233-0.005,0.466-0.009,0.698-0.013
		c0.184-0.004,0.365-0.007,0.548-0.012c6.497-0.099,12.614-0.154,15.021-0.234c1.801-0.058,6.645,0.125,12.322,0.306
		c-13.785,5.669-18.576,20.056-18.576,20.056l1.002,3.684c0,0,21.917,1.849,30.805-0.571c3.84-1.049,8.429-2.51,12.708-3.925
		c0.993,0.653,1.986,1.246,2.959,1.76c-4.225,2.04-7.438,3.962-7.438,3.962s11.608,9.224,17.469,9.319
		c1.913,0.025,4.459-0.219,7.36-0.558c-0.001,0-0.001,0-0.001,0c0.043-0.007,0.092-0.014,0.133-0.02
		c1.771-0.213,3.672-0.457,5.643-0.699c0.357-0.041,0.715-0.089,1.076-0.133c0.328-0.036,0.657-0.077,0.987-0.114
		c0.456-0.054,0.914-0.104,1.375-0.157c0.317-0.035,0.635-0.067,0.954-0.106c0.604-0.063,1.208-0.124,1.813-0.182
		c0.172-0.017,0.344-0.03,0.515-0.048c0.753-0.071,1.505-0.132,2.255-0.186c0.242-0.019,0.481-0.033,0.721-0.044
		c0.563-0.043,1.123-0.068,1.68-0.099c0.24-0.013,0.479-0.022,0.718-0.027c0.766-0.033,1.528-0.054,2.275-0.056
		c9.859-0.039,11.054,4.543,21.405,1.24c4.161-1.331,7.408-3.195,10.328-5.107c8.095-0.118,17.38,1.925,25.255,2.59
		c7.882,0.666,32.581-1.451,39.571-0.896c0.469,0.044,0.989,0.081,1.542,0.124c-5.37,0.464-11.129,0.622-15.088,1.277
		c-5.407,0.893-8.936,4.329-16.339,5.543c-3.306,0.544-5.763,0.852-8.38,1.174c-0.45,0.004-0.898,0.025-1.344,0.013
		c-6.637-0.17-15.251-1.845-20.731-1.987c-5.479-0.146-9.591,2.574-17.092,2.377c-7.501-0.194-10.571-0.761-20.993-1.01
		c-12.098-0.287-13.706,3.208-20.916,3.021c-7.212-0.187-7.769-0.924-16.427-1.149c-8.653-0.224-7.107,1.408-13.884,1.229
		c-2.145-0.055-3.646-0.281-4.973-0.569l0,0c-0.006-0.001-0.013-0.003-0.018-0.004c-0.219-0.052-0.434-0.102-0.645-0.151
		c-0.064-0.017-0.129-0.028-0.191-0.045c-0.543-0.136-1.078-0.278-1.632-0.417c-0.069-0.018-0.139-0.036-0.21-0.055
		c-0.137-0.032-0.272-0.067-0.415-0.102c-0.196-0.047-0.398-0.095-0.605-0.146c-0.102-0.018-0.209-0.042-0.312-0.064
		c-0.154-0.031-0.311-0.064-0.471-0.095c-0.107-0.024-0.214-0.042-0.324-0.063c-0.25-0.045-0.509-0.095-0.78-0.137
		c-0.089-0.017-0.187-0.028-0.278-0.038c-0.218-0.037-0.445-0.063-0.678-0.098c-0.112-0.014-0.221-0.023-0.336-0.037
		c-0.324-0.041-0.662-0.076-1.021-0.105c-0.068-0.005-0.143-0.009-0.213-0.016c-0.316-0.03-0.647-0.049-0.993-0.071
		c-0.123-0.008-0.247-0.015-0.372-0.021c-0.43-0.021-0.875-0.038-1.353-0.054c-8.653-0.223-8.838,1.357-14.897,1.203
		c-6.059-0.158-12.76-3.361-19.682-3.541c-6.924-0.181-15.35,1.188-21.992,4.063c-4.941,2.141-6.049,8.632-6.049,8.632
		s8.649,0.366,12.977,0.481c4.328,0.11,8.896,1.959,16.397,2.155c7.5,0.191,13.693,0.786,18.597,0.912
		c0.36,0.006,0.702,0.025,1.037,0.054c0.095,0.008,0.186,0.014,0.278,0.021c0.249,0.021,0.494,0.05,0.73,0.075
		c0.083,0.012,0.168,0.021,0.249,0.033c0.286,0.035,0.569,0.076,0.849,0.126c0.018,0.002,0.034,0.006,0.051,0.006
		c0.325,0.058,0.648,0.115,0.972,0.18v-0.001c2.793,0.542,5.72,1.354,11.802,1.511c8.941,0.235,9.252-0.26,14.659-0.418
		c3.974-0.115,6.038,0.957,16.422,1.229c4.054,0.104,6.754,0.186,8.89,0.251c-1.966,0.752-3.423,1.449-6.62,1.979
		c-5.979,0.981-13.163-0.91-19.998,0.214c-6.833,1.127-14.852,4.058-20.835,8.126c-4.451,3.033-4.32,9.615-4.32,9.615
		s8.563-1.266,12.835-1.969c4.272-0.701,9.106,0.259,16.512-0.959c7.401-1.22,13.596-1.804,18.437-2.603
		c0.361-0.058,0.703-0.102,1.038-0.142c0.084-0.011,0.168-0.016,0.25-0.024c0.263-0.029,0.521-0.051,0.771-0.065
		c0.071-0.006,0.146-0.012,0.218-0.017c0.301-0.019,0.598-0.03,0.894-0.035c0.007,0,0.014,0,0.02-0.001
		c0.334-0.01,0.664-0.012,0.996-0.011l0.001-0.001c2.845,0.012,5.873,0.261,11.875-0.731c8.829-1.447,9.039-1.997,14.322-3.165
		c3.882-0.857,6.109-0.195,16.358-1.881c10.25-1.687,11.759-1.869,17.526-2.815c5.764-0.948,7.178-1.247,15.007-2.535
		c4.431-0.729,7.941-1.662,11.857-2.61c4.64,0.417,10.445,1.06,15.853,1.195c7.786,0.204,21.887-0.664,24.912-0.583
		c3.032,0.079,13.64,0.07,20.779,0.256c7.138,0.185,23.301-5.24,23.301-5.24l0.079-2.958c0,0-2.157-3.421-6.237-6.602
		c5.201-1.188,9.91-2.325,11.517-2.593c2.989-0.491,13.41-2.492,20.456-3.653c3.19-0.522,7.978-2.523,12.266-4.56
		c1.818-0.067,3.504-0.246,5.004-0.604c9.289-2.211,15.363-16.043,15.363-16.043s-0.052-0.001-0.122-0.003
		c-1.516-0.032-18.438-0.369-21.146-0.604c-2.273-0.199-9.153,0.697-15.194,1.015c-0.142,0.009-0.28,0.017-0.422,0.024
		c-0.306,0.017-0.61,0.025-0.913,0.034c-0.134,0.007-0.266,0.013-0.399,0.018c-0.331,0.012-0.653,0.021-0.974,0.025
		c-0.095,0.002-0.193,0.006-0.289,0.008c-0.414,0.002-0.821,0.002-1.218,0c-6.602-0.095-20.345-0.335-26-1.063
		c-1.244-0.164-2.474-0.343-3.729-0.512l0,0c-0.005-0.001-0.009-0.001-0.012-0.002c-0.938-0.127-1.888-0.248-2.88-0.354
		c-0.024-0.004-0.057-0.006-0.079-0.007c-0.444-0.05-0.9-0.087-1.36-0.125c-0.065-0.003-0.139-0.009-0.209-0.016
		c-1.013-0.079-2.064-0.131-3.178-0.15c-0.014,0-0.026,0-0.04,0c-0.522-0.009-1.07-0.006-1.628,0.006
		c-0.075,0.002-0.156,0.004-0.238,0.006c-0.569,0.016-1.147,0.032-1.757,0.069c-0.01,0-0.016,0.001-0.024,0.001
		c-0.63,0.033-1.283,0.084-1.952,0.148c-0.022,0-0.038,0-0.062,0.001c0,0.001-0.001,0.001-0.001,0.001
		c-0.945,0.091-1.928,0.199-2.969,0.351c-6.412,0.904-19.835,0.359-29.169-0.295c-0.396-0.031-0.777-0.058-1.155-0.086
		c-0.068-0.006-0.137-0.012-0.204-0.018c-0.429-0.028-0.851-0.064-1.253-0.093c-0.033-0.003-0.061-0.006-0.094-0.009
		c-1.338-0.104-2.548-0.216-3.571-0.312c-0.056-0.007-0.099-0.012-0.145-0.017c-0.271-0.025-0.525-0.051-0.767-0.079
		c-0.082-0.007-0.153-0.012-0.231-0.02c-0.211-0.026-0.406-0.048-0.591-0.065c-0.071-0.009-0.138-0.019-0.201-0.026
		c-0.212-0.023-0.405-0.046-0.579-0.072c-0.035-0.005-0.069-0.008-0.104-0.012c-0.148-0.019-0.315-0.043-0.495-0.064
		c6.609-3.324,10.139-5.57,12.717-7.57c6.088,1.041,13.86,2.281,21.297,1.937c12.03-0.566,20.671-1.389,29.517-0.55
		c8.843,0.841,12.212,1.486,27.833,2.564c9.219,0.645,12.493-0.199,15.39-0.776c2.012-0.403,3.844-0.67,7.357-0.228
		c4.655,0.595,6.971,2.077,20.526,2.566c13.555,0.492,16.496-2.109,23.607-3.321c6.171-1.059,11.668-1.538,11.668-1.538
		s1.033-3.226-8.854-4.104s-15.974-5.794-26.406-5.972c-0.414-0.006-0.803-0.007-1.183-0.007c-0.113,0-0.224,0-0.331,0.001
		c-0.303,0.001-0.595,0.005-0.877,0.014c-0.067,0.002-0.143,0.003-0.21,0.005c-0.337,0.01-0.661,0.023-0.972,0.04
		c-0.078,0.003-0.153,0.003-0.229,0.006c-0.255,0.015-0.501,0.03-0.74,0.051c-0.063,0.005-0.124,0.009-0.185,0.009
		c-0.289,0.021-0.571,0.05-0.84,0.072c-0.02,0.002-0.039,0.004-0.056,0.007c-0.261,0.03-0.506,0.053-0.745,0.088
		c-0.033,0.005-0.064,0.009-0.1,0.015c-4.37,0.563-5.785,1.71-11.877,1.61c-8.346-0.142-7.773-1.482-20.238-3.313
		c-11.808-1.729-13.965,1.648-26.375,1.578c4.501-0.754,7.1-1.714,11.223-1.848c6.321-0.205,14.309-1.015,23.979-1.325
		c9.675-0.311,15.556-2.73,21.139-2.908c5.577-0.18,16.733-0.727,16.733-0.727s-1.479-8.36-7.873-11.083
		c-1.972-0.839-4.063-1.57-6.224-2.203c6.687-0.213,12.79-0.105,17.189-1.479c4.305-1.343,7.717-5.219,10.116-8.938
		c4.407-0.194,9.974-0.439,14.285-0.553c7.138-0.183,22.999-6.435,22.999-6.435l-0.02-0.665c7.912-0.865,19.446-4.34,19.446-4.34
		L439.699,190.1z M183.583,247.628c-0.871,0.33-1.749,0.662-2.609,0.985c-3.153,1.18-6.229,2.319-9.136,3.334
		c-4.494-0.394-8.845-0.947-12.665-1.385c-0.038-0.004-0.074-0.005-0.113-0.009c-0.474-0.059-0.942-0.112-1.396-0.16
		c-0.042-0.005-0.088-0.013-0.129-0.018v0.001c-0.468-0.049-0.936-0.099-1.383-0.141c-0.612-0.063-1.255-0.116-1.918-0.165
		c9.479-2.707,19.185-8.103,24.969-9.68c2.193-0.594,5.203-0.821,8.519-0.972c3.076,1.2,6.697,2.325,10.449,2.883
		C193.381,243.949,188.42,245.813,183.583,247.628z M221.817,190.739c0.458,0.022,0.91,0.041,1.353,0.059
		c0.029,0,0.06,0.002,0.088,0.004l0,0c0.469,0.02,0.939,0.037,1.39,0.053c0.161,0.005,0.326,0.006,0.491,0.009
		c-0.206,0.035-0.395,0.06-0.597,0.091c-0.158-0.006-0.318-0.012-0.475-0.021c-0.009,0-0.018-0.001-0.028-0.001
		c-0.685-0.038-1.364-0.081-2.041-0.13c-0.071-0.006-0.143-0.008-0.212-0.013c-0.423-0.032-0.839-0.071-1.254-0.108
		c0.314,0.016,0.614,0.027,0.923,0.044C221.574,190.73,221.695,190.735,221.817,190.739z M50.571,198.948
		c1.742-0.089,4.992-0.635,8.589-1.195c-1.322,0.462-2.896,1.2-4.496,2.396L50.571,198.948z"/>
	<path fill="#1D1D1B" d="M124.568,160.635c7.502,0.004,13.707,0.438,18.612,0.441c0.364,0,0.708,0.01,1.046,0.028
		c0.086,0.003,0.17,0.009,0.256,0.014c0.261,0.018,0.516,0.037,0.764,0.06c0.074,0.008,0.147,0.014,0.221,0.022
		c0.305,0.032,0.605,0.066,0.902,0.11c0.001,0,0.001,0,0.001,0c0.332,0.047,0.658,0.098,0.988,0.153l0.001-0.001
		c2.808,0.475,5.751,1.213,11.835,1.218c8.945,0.008,9.243-0.495,14.646-0.786c3.969-0.214,6.061,0.805,16.448,0.813
		c10.388,0.011,11.903,0.076,17.747,0.083c5.844,0.005,7.283-0.059,15.22-0.054c7.938,0.009,13.134-1.078,22.654-1.071
		c6.924,0.007,8.587,0.584,11.387,0.901l0,0c0.002,0,0.004,0,0.006,0.001c0.248,0.027,0.507,0.054,0.779,0.076
		c0.024,0.002,0.06,0.005,0.085,0.008c0.259,0.021,0.532,0.041,0.815,0.056c0.035,0.002,0.064,0.005,0.101,0.007
		c0.302,0.018,0.621,0.028,0.957,0.038c0.022,0,0.042,0.001,0.06,0.002c0.364,0.011,0.755,0.016,1.176,0.016
		c6.275,0.006,14.935-2.084,19.694-2.079c4.764,0.003,13.421,1.025,21.212,1.032c7.79,0.009,21.859-1.211,24.891-1.208
		c3.028,0.002,13.634-0.274,20.777-0.268c7.14,0.005,23.161-5.823,23.161-5.823l0.002-2.957c0,0-7.563-11.405-20.766-11.416
		c-5.195-0.004-14.146,3.599-22.513,3.592c-0.633,0-1.26-0.019-1.883-0.041c-0.188-0.008-0.379-0.019-0.566-0.025
		c-0.451-0.022-0.896-0.049-1.34-0.081c-0.189-0.012-0.382-0.024-0.571-0.04c-0.563-0.044-1.119-0.093-1.675-0.149
		c-0.151-0.016-0.303-0.032-0.449-0.048c-0.465-0.051-0.926-0.104-1.39-0.157c-0.284-0.035-0.571-0.071-0.853-0.107
		c-0.271-0.034-0.537-0.068-0.805-0.104c-4.742-0.631-9.293-1.433-13.843-1.438c-7.501-0.006-14.429,2.017-21.066,2.009
		c-6.638-0.006-15.29-1.465-20.775-1.469c-5.482-0.005-9.521,2.813-17.025,2.805c-7.504-0.006-10.591-0.494-21.013-0.481
		c-12.101,0.014-13.621,3.548-20.833,3.542c-7.213-0.005-7.79-0.729-16.448-0.736c-8.656-0.008-7.07,1.583-13.851,1.577
		c-2.144-0.002-3.65-0.19-4.985-0.45l0,0c-0.015-0.003-0.03-0.005-0.046-0.009c-0.208-0.039-0.409-0.082-0.609-0.125
		c-0.073-0.015-0.147-0.032-0.221-0.048c-0.2-0.044-0.401-0.088-0.602-0.135c-0.007-0.002-0.016-0.004-0.022-0.005
		c-0.311-0.072-0.623-0.146-0.94-0.219c-0.104-0.023-0.211-0.048-0.319-0.07c-0.118-0.027-0.233-0.055-0.354-0.08
		c-0.206-0.044-0.417-0.088-0.635-0.131c-0.092-0.02-0.188-0.036-0.284-0.055c-0.163-0.03-0.331-0.061-0.502-0.09
		c-0.101-0.017-0.201-0.035-0.306-0.05c-0.255-0.042-0.518-0.082-0.795-0.118c-0.085-0.01-0.177-0.021-0.264-0.031
		c-0.222-0.027-0.452-0.054-0.692-0.078c-0.109-0.011-0.222-0.021-0.336-0.031c-0.326-0.03-0.664-0.057-1.022-0.08
		c-0.068-0.003-0.143-0.007-0.211-0.01c-0.317-0.021-0.651-0.034-0.998-0.047c-0.123-0.003-0.247-0.007-0.375-0.01
		c-0.43-0.012-0.874-0.021-1.352-0.021c-8.655-0.008-8.803,1.58-14.863,1.575c-6.062-0.007-12.841-3.043-19.764-3.05
		c-6.928-0.005-15.314,1.575-21.883,4.617c-4.887,2.264-5.831,8.78-5.831,8.78s8.657,0.147,12.984,0.154
		C112.451,158.892,117.064,160.627,124.568,160.635z"/>
</g>
<g>
	<g>
		<path fill="#77A82F" d="M314.809,249.692c-5.126,0.848-13.366,5.866-21.622,7.222c-8.26,1.355-16.015,0.438-23.418,1.649
			c-7.403,1.22-13.909,4.347-20.457,5.427c-6.547,1.072-15.328,1.048-20.733,1.941c-5.414,0.884-8.942,4.322-16.347,5.542
			c-7.403,1.217-10.524,1.237-20.807,2.955c-11.939,1.986-12.86,5.72-19.979,6.891c-7.118,1.174-7.802,0.552-16.346,1.959
			c-8.542,1.403-6.718,2.716-13.409,3.816c-6.692,1.101-7.425-0.683-15.966,0.723c-8.543,1.406-8.428,2.993-14.407,3.982
			c-5.98,0.982-13.165-0.911-19.997,0.213c-6.836,1.127-14.854,4.055-20.837,8.126c-4.45,3.034-4.318,9.614-4.318,9.614
			s8.563-1.265,12.834-1.966c4.271-0.703,9.106,0.259,16.512-0.962c7.403-1.218,13.596-1.804,18.438-2.599
			c4.841-0.797,7.231,0.423,16.06-1.029c8.827-1.453,9.039-1.999,14.322-3.164c3.879-0.858,6.109-0.197,16.358-1.883
			c10.251-1.688,11.757-1.867,17.524-2.817c5.764-0.947,7.178-1.245,15.009-2.532c7.829-1.291,12.778-3.208,22.176-4.754
			c9.396-1.547,9.144-0.4,15.338-1.421c6.19-1.015,14.396-4.495,19.095-5.262c4.693-0.776,13.402-1.181,21.091-2.443
			c7.688-1.264,21.37-4.764,24.358-5.254c2.989-0.49,13.411-2.492,20.455-3.655c7.046-1.157,21.901-9.521,21.901-9.521l-0.479-2.926
			C337.159,257.566,327.834,247.555,314.809,249.692z"/>
		<path fill="#719E23" d="M133.197,289.51c1.153-0.715,2.319-1.396,3.505-2.046c-2.942-0.077-5.132-0.604-10.976,0.354
			c-8.543,1.406-8.428,2.993-14.407,3.982c-5.98,0.982-13.165-0.911-19.997,0.213c-6.836,1.127-14.854,4.055-20.837,8.126
			c-4.45,3.034-4.318,9.614-4.318,9.614s8.563-1.265,12.834-1.966c4.271-0.703,9.106,0.259,16.512-0.962
			c7.403-1.218,13.596-1.804,18.438-2.599c1.547-0.255,2.845-0.3,4.186-0.299C121.618,297.714,127.092,293.292,133.197,289.51z"/>
		<path fill="#719E23" d="M314.809,249.692c-5.126,0.848-13.366,5.866-21.622,7.222c-5.533,0.905-10.836,0.796-15.959,0.989
			c-1.221,0.964-2.484,1.867-3.771,2.726c-5.857,3.93-11.072,8.69-16.896,12.675c-7.158,4.882-14.68,8.972-22.931,11.691
			c-2.273,0.75-4.555,1.438-6.854,2.08c1.058-0.054,2.271-0.169,3.962-0.448c6.19-1.015,14.396-4.495,19.095-5.262
			c4.693-0.776,13.402-1.181,21.091-2.443c7.688-1.264,21.37-4.764,24.358-5.254c2.989-0.49,13.411-2.493,20.455-3.655
			c7.046-1.157,21.901-9.521,21.901-9.521l-0.479-2.926C337.159,257.566,327.834,247.555,314.809,249.692z"/>
		<path fill="none" stroke="#648E29" stroke-width="0.5747" d="M336.567,258.851c0,0-20.392,2.322-40.73,8.517
			c-20.334,6.189-39.196,10.133-66.583,13.604c-28.802,3.646-46.22,7.6-69.65,10.331c-25.553,2.977-51.879,7.992-69.185,11.381
			c-17.305,3.389-23.412,6.385-23.412,6.385"/>
		<path fill="#8CBC39" d="M273.032,262.122c-5.747-0.254-15.828,6.438-8.203,8.526c7.625,2.093,20.25-2.568,18.03-5.447
			C280.642,262.324,278.61,262.374,273.032,262.122z"/>
		<path fill="#8CBC39" d="M233.895,267.981c-2.402-0.457-6.27,3.736-3,5.562c3.259,1.823,8.285-0.825,7.228-2.939
			C237.061,268.487,236.215,268.425,233.895,267.981z"/>
		<path fill="#8CBC39" d="M194.766,276.219c-2.357-0.217-6.393,2.968-3.235,4.119c3.157,1.156,8.263-0.974,7.313-2.441
			C197.886,276.432,197.056,276.429,194.766,276.219z"/>
		<path fill="#8CBC39" d="M158.983,283.792c-1.975-0.177-5.352,2.485-2.71,3.449s6.916-0.815,6.117-2.047
			C161.593,283.97,160.898,283.964,158.983,283.792z"/>
		<path fill="#8CBC39" d="M130.263,288.517c-2.076-0.189-5.623,2.611-2.849,3.625c2.776,1.016,7.268-0.858,6.43-2.147
			C133.005,288.706,132.273,288.7,130.263,288.517z"/>
	</g>
	<g>
		<path fill="#648E29" d="M91.449,242.621c8.129-1.896,18.554-0.531,26.409,0.757c7.855,1.296,24.564-0.001,34.47,0.997
			c9.904,0.997,25.087,3.557,36.145,1.396c11.06-2.154,29.691,0.093,35.042,0.808c5.353,0.724,28.885,2.401,38.064,1.104
			c9.176-1.306,14.459-0.15,20.117,0.573c5.649,0.734,19.396,0.976,26,1.062c6.602,0.095,16.574-1.37,19.404-1.123
			c2.834,0.246,21.269,0.614,21.269,0.614s-6.075,13.823-15.359,16.043c-6.453,1.535-16.212-0.223-26.317,0.304
			c-9.429,0.485-20.241,3.317-30.687,2.305c-10.442-1.013-26.898-2.374-33.889-2.929c-6.99-0.556-31.69,1.563-39.573,0.896
			c-7.881-0.674-17.175-2.714-25.274-2.595c-8.097,0.119-19.091,2.874-31.137,0.989c-12.05-1.882-29.536-3.806-37.33-7.577
			C101.013,252.473,91.449,242.621,91.449,242.621z"/>
		<path fill="#5D8420" d="M338.483,248.584c-0.424,0.643-0.89,1.271-1.406,1.883c-2.723,3.224-7.256,4.448-11.293,4.605
			c-4.849,0.193-10.142-2.105-13.522-5.876c-1.609,0.093-3.164,0.143-4.563,0.12c-0.91-0.008-1.955-0.022-3.096-0.045
			c-0.325,0.795-0.726,1.569-1.15,2.285c-2.046,3.423-5.159,5.574-8.871,6.817c-3.288,1.104-7.993,0.491-10.771-1.684
			c-1.895-1.477-3.669-3.006-4.636-5.292c-0.624-1.479-0.97-2.538-1.207-3.652c-3.8-0.515-7.856-0.938-13.421-0.42
			c-0.387,0.882-0.881,1.735-1.499,2.548c-3.017,3.958-6.908,6.924-11.819,8.141c-2.93,0.729-5.735,0.691-8.649-0.016
			c-3.616-0.875-6.083-3.327-8.137-6.248c-0.919-1.309-1.48-2.79-1.779-4.354c-4.104-0.283-7.446-0.591-9.104-0.815
			c-2.9,6.989-9.998,13.058-17.919,12.563c-6.037-0.378-10.608-3.898-12.497-9.652c-0.467-1.431-0.605-2.871-0.515-4.308
			c-1.464,0.142-2.863,0.331-4.152,0.584c-1.154,0.228-2.353,0.397-3.587,0.528c-0.098,0.737-0.257,1.462-0.525,2.138
			c-0.813,2.062-1.444,3.527-3.075,5.065c-1.456,1.374-3.148,2.202-5.071,2.721c-1.739,0.464-3.636,0.524-5.44,0.472
			c-5.841-0.163-10.572-5.186-10.403-11.019l0.011-0.381c-2.37-0.277-4.611-0.548-6.672-0.772c-0.364,1.901-1.085,3.759-2.019,5.358
			c-1.22,2.101-2.76,3.31-4.696,4.665c-1.856,1.293-4.188,1.522-6.358,1.639c-2.722,0.133-5.668-1.438-7.486-3.363
			c-1.941-2.057-3-4.829-2.918-7.661c0.011-0.392,0.054-0.777,0.105-1.159c-1.124,0-2.227-0.003-3.294-0.021
			c-1.776,3.733-5.659,6.327-10,6.201c-4.873-0.145-8.965-3.665-10.091-8.217c-5.31-0.443-10.789-0.444-15.502,0.656
			c0,0,9.563,9.854,17.354,13.624c7.794,3.771,25.28,5.695,37.33,7.577c12.046,1.885,23.041-0.87,31.137-0.989
			c8.1-0.119,17.394,1.921,25.274,2.594c7.882,0.665,32.583-1.451,39.573-0.896c6.989,0.555,23.445,1.916,33.889,2.929
			c10.444,1.014,21.258-1.818,30.687-2.305c10.105-0.525,19.864,1.23,26.317-0.304c9.284-2.22,15.359-16.043,15.359-16.043
			S343.566,248.709,338.483,248.584z"/>
	</g>
	<g>
		<path fill="#648E29" d="M126.368,202.417c7.98-2.443,18.476-1.792,26.399-1.041c7.927,0.754,24.509-1.675,34.458-1.357
			c9.949,0.319,25.271,1.835,36.153-1.072c10.89-2.907,29.635-1.936,35.018-1.585c5.388,0.354,28.986,0.424,38.052-1.5
			c9.063-1.919,14.416-1.131,20.108-0.79c5.691,0.342,19.419-0.355,26.014-0.715c6.593-0.36,16.441-2.497,19.284-2.444
			c2.841,0.052,21.258-0.844,21.258-0.844s-5.116,14.213-14.23,17.055c-6.332,1.978-16.187,0.89-26.237,2.101
			c-9.373,1.13-19.968,4.688-30.454,4.392c-10.487-0.295-26.995-0.535-34.01-0.61c-7.016-0.081-31.511,3.72-39.416,3.591
			c-7.914-0.132-17.323-1.533-25.395-0.862c-8.07,0.673-18.853,4.17-30.999,3.114c-12.148-1.059-29.729-1.785-37.759-5.021
			C136.581,211.595,126.368,202.417,126.368,202.417z"/>
		<path fill="#5D8420" d="M373.235,191.521c-0.379,0.671-0.801,1.329-1.277,1.976c-2.493,3.401-6.936,4.932-10.949,5.365
			c-4.823,0.525-10.261-1.41-13.896-4.939c-1.596,0.2-3.142,0.357-4.539,0.434c-0.907,0.051-1.952,0.104-3.091,0.162
			c-0.271,0.817-0.62,1.617-0.995,2.356c-1.806,3.555-4.765,5.919-8.386,7.412c-3.205,1.321-7.938,1.032-10.861-0.946
			c-1.985-1.344-3.866-2.747-4.981-4.964c-0.725-1.436-1.146-2.469-1.455-3.561c-3.828-0.257-7.902-0.4-13.416,0.498
			c-0.325,0.905-0.762,1.79-1.322,2.641c-2.736,4.155-6.424,7.376-11.234,8.931c-2.875,0.925-5.684,1.08-8.636,0.573
			c-3.666-0.628-6.297-2.91-8.546-5.678c-1.003-1.24-1.666-2.683-2.064-4.224c-4.118-0.008-7.477-0.084-9.144-0.194
			c-2.419,7.175-9.086,13.712-17.021,13.757c-6.05,0.036-10.85-3.167-13.127-8.782c-0.565-1.39-0.801-2.821-0.81-4.259
			c-1.452,0.244-2.831,0.527-4.103,0.867c-1.133,0.303-2.318,0.555-3.539,0.769c-0.053,0.743-0.16,1.482-0.379,2.173
			c-0.674,2.109-1.203,3.616-2.726,5.264c-1.357,1.471-2.986,2.411-4.871,3.054c-1.705,0.587-3.593,0.775-5.396,0.848
			c-5.839,0.232-10.902-4.451-11.132-10.288l-0.017-0.379c-2.382-0.115-4.636-0.232-6.706-0.314
			c-0.235,1.918-0.828,3.822-1.649,5.485c-1.074,2.175-2.526,3.489-4.367,4.97c-1.764,1.421-4.075,1.809-6.231,2.068
			c-2.708,0.322-5.753-1.044-7.699-2.84c-2.077-1.922-3.321-4.619-3.435-7.449c-0.015-0.388,0-0.773,0.027-1.161
			c-1.122,0.077-2.22,0.146-3.288,0.202c-1.518,3.85-5.215,6.696-9.556,6.866c-4.872,0.192-9.191-3.041-10.626-7.507
			c-5.327-0.077-10.795,0.294-15.423,1.711c0,0,10.212,9.18,18.244,12.409c8.031,3.235,25.61,3.962,37.759,5.021
			c12.146,1.056,22.929-2.44,30.999-3.114c8.071-0.671,17.479,0.729,25.395,0.862c7.905,0.129,32.4-3.671,39.416-3.591
			c7.015,0.076,23.521,0.315,34.01,0.61c10.486,0.297,21.081-3.262,30.454-4.392c10.053-1.211,19.905-0.123,26.237-2.101
			c9.114-2.841,14.23-17.055,14.23-17.055S378.313,191.299,373.235,191.521z"/>
	</g>
	<g>
		<path fill="#5B7F22" d="M281.681,182.598c-7.977,2.442-18.475,1.792-26.403,1.041c-7.924-0.752-24.508,1.675-34.455,1.355
			c-9.945-0.32-25.269-1.832-36.154,1.074c-10.883,2.908-29.628,1.936-35.019,1.583c-5.386-0.354-28.981-0.422-38.046,1.499
			c-9.063,1.922-14.418,1.134-20.11,0.793c-5.691-0.342-19.421,0.354-26.013,0.714c-6.594,0.358-16.444,2.498-19.285,2.445
			c-2.842-0.056-21.26,0.843-21.26,0.843s5.118-14.213,14.231-17.055c6.333-1.976,16.188-0.889,26.235-2.099
			c9.372-1.131,19.971-4.689,30.458-4.395c10.488,0.298,26.997,0.534,34.008,0.612c7.015,0.078,31.512-3.719,39.421-3.59
			c7.907,0.131,17.318,1.532,25.393,0.861c8.068-0.673,18.851-4.17,30.998-3.112c12.151,1.059,29.723,1.783,37.758,5.019
			C271.467,173.42,281.681,182.598,281.681,182.598z"/>
		<path fill="#6F932F" d="M34.815,193.491c0.382-0.667,0.804-1.326,1.278-1.975c2.493-3.402,6.936-4.933,10.951-5.367
			c4.823-0.521,10.261,1.413,13.895,4.94c1.598-0.198,3.145-0.355,4.543-0.432c0.905-0.05,1.952-0.106,3.088-0.165
			c0.271-0.817,0.62-1.613,0.995-2.354c1.807-3.556,4.766-5.917,8.386-7.41c3.203-1.321,7.938-1.032,10.861,0.942
			c1.988,1.345,3.866,2.749,4.985,4.967c0.721,1.436,1.143,2.469,1.453,3.562c3.826,0.253,7.898,0.399,13.417-0.499
			c0.323-0.905,0.76-1.789,1.32-2.644c2.739-4.154,6.426-7.375,11.238-8.927c2.873-0.928,5.677-1.083,8.634-0.576
			c3.662,0.627,6.292,2.908,8.54,5.679c1.006,1.242,1.668,2.685,2.07,4.222c4.116,0.007,7.474,0.087,9.143,0.194
			c2.416-7.172,9.084-13.709,17.019-13.757c6.05-0.035,10.851,3.168,13.127,8.781c0.563,1.393,0.801,2.823,0.809,4.26
			c1.451-0.241,2.832-0.524,4.102-0.865c1.137-0.304,2.323-0.555,3.542-0.771c0.048-0.743,0.16-1.479,0.379-2.17
			c0.669-2.112,1.199-3.616,2.723-5.267c1.356-1.471,2.989-2.41,4.873-3.055c1.702-0.584,3.592-0.772,5.396-0.848
			c5.837-0.229,10.898,4.453,11.133,10.29l0.011,0.379c2.385,0.113,4.639,0.23,6.711,0.314c0.232-1.92,0.825-3.824,1.648-5.487
			c1.075-2.172,2.524-3.488,4.368-4.971c1.76-1.418,4.068-1.809,6.231-2.065c2.71-0.321,5.754,1.042,7.698,2.84
			c2.074,1.918,3.323,4.619,3.435,7.446c0.015,0.392-0.001,0.776-0.03,1.162c1.12-0.074,2.226-0.144,3.295-0.2
			c1.509-3.849,5.21-6.695,9.554-6.869c4.871-0.19,9.192,3.042,10.626,7.507c5.324,0.08,10.794-0.292,15.42-1.708
			c0,0-10.214-9.179-18.243-12.411c-8.035-3.234-25.605-3.96-37.758-5.019c-12.147-1.058-22.93,2.439-30.998,3.112
			c-8.074,0.671-17.485-0.731-25.393-0.861c-7.909-0.129-32.406,3.668-39.421,3.589c-7.011-0.077-23.521-0.313-34.008-0.611
			c-10.487-0.296-21.085,3.264-30.458,4.395c-10.048,1.21-19.902,0.123-26.235,2.099c-9.113,2.842-14.231,17.055-14.231,17.055
			S29.739,193.714,34.815,193.491z"/>
	</g>
	<path fill="#537033" d="M263.522,220.662c-8.258,5.083-11.082,4.484-18.813,10.538c-7.734,6.053-6.998,8.055-23.129,16.034
		c-16.135,7.973-23.529,6.012-31.54,8.395c-8.014,2.39-12.726,9.005-23.076,12.311c-10.352,3.307-11.545-1.273-21.405-1.239
		c-9.857,0.043-21.644,2.521-27.505,2.425c-5.858-0.091-17.468-9.315-17.468-9.315s15.948-9.539,23.519-8.667
		c7.569,0.87,15.007,1.232,21.061,0.766c6.052-0.471,7.999-0.789,20.375-4.965c12.375-4.166,28.479-11.071,40.84-14.182
		c12.355-3.104,19.771-4.324,26.401-10.203c6.633-5.872,15.424-10.512,23.864-14.029c8.438-3.519,22.155,0.051,22.155,0.051
		S270.365,216.451,263.522,220.662z"/>
	<path fill="#486029" d="M182.216,240.854c-1.809,0.676-3.609,1.353-5.379,2.018c3.403,4.192,5.932,9.37,7.415,13.563
		c0.177,0.497,0.345,1.004,0.507,1.522c1.655-0.947,3.372-1.76,5.28-2.329c3.479-1.032,6.844-1.252,10.857-1.816
		C193.781,251.123,186.327,247.059,182.216,240.854z"/>
	<path fill="#486029" d="M256.644,208.528c-8.44,3.518-17.231,8.157-23.864,14.029c-3.056,2.707-6.284,4.427-10.087,5.797
		c1.979,4.661,3.427,9.375,4.498,14.247c0.831,0.117,1.675,0.216,2.516,0.33c8.063-4.686,8.882-6.937,15.002-11.731
		c7.731-6.054,10.557-5.455,18.813-10.538c6.843-4.211,15.277-12.083,15.277-12.083S265.081,205.01,256.644,208.528z"/>
	<path fill="#486029" d="M145.597,251.871c-0.144,0.009-0.288,0.021-0.436,0.035c-1.485,0.113-3.056,0.178-4.687,0.2
		c-4.14,6.264-8.849,12.319-15.063,16.461c5.987-0.706,13.5-1.84,20.144-1.868c0.255-0.002,0.499,0.003,0.741,0.009
		C145.052,262.025,144.887,256.758,145.597,251.871z"/>
	<g>
		<path fill="#6F9B37" d="M84.277,182.937c6.22,0.357,25.567,4.08,29.292,3.039c3.725-1.04,25.743-2.958,32.475-2.337
			c6.729,0.617,18.795,2.211,29.409,2.009c10.615-0.201,15.771-2.45,25.38-1.456c9.61,0.99,11.553,2.27,20.609,0.794
			c9.06-1.471,16.645-2.197,20.979-2.148c4.335,0.051,14.866,2.333,19.736,2.663c4.869,0.325,19.521-1.946,24.396-2.16
			c4.878-0.216,19.951,7.938,19.951,7.938l-0.042,3.392c0,0-8.697,2.877-16.825,3.599c-8.135,0.72-22.484,0.288-26.551,0.512
			c-4.063,0.226-9.683,3.411-24.08,3.246c-14.406-0.165-15.878-1.264-23.254-1.617c-7.375-0.355-13.344,0.66-19.037,1.136
			c-5.692,0.478-14.605-0.708-21.918-1.062c-7.313-0.354-12.068,3.114-30.821,2.357c-18.756-0.756-25.288-1.913-29.426-2.231
			c-4.135-0.316-14.132,2.115-22.04,1.7c-7.907-0.415-20.617-3.268-25.486-3.052c-4.869,0.217-9.729-2.548-9.729-2.548l-0.478-3.795
			C56.819,192.915,66.689,181.923,84.277,182.937z"/>
		<path fill="#5A7F25" d="M58.535,197.327c5.161-4.772,10.572-9.272,16.042-13.718c-11.473,2.314-17.759,9.305-17.759,9.305
			l0.478,3.795C57.296,196.71,57.757,196.972,58.535,197.327z"/>
		<path fill="#5A7F25" d="M286.555,183.341c-11.598-1.1-19.527,2.485-24.396,2.16c-4.87-0.329-15.401-2.611-19.736-2.663
			c-4.335-0.049-11.92,0.678-20.979,2.148c-9.057,1.475-10.999,0.196-20.609-0.794c-3.892-0.403-7.051-0.271-10.143,0.04
			c-4.611,5.529-9.295,10.997-14.101,16.351c6.934,0.434,14.89,1.399,20.127,0.962c5.693-0.476,11.662-1.492,19.037-1.136
			c7.376,0.354,8.849,1.452,23.254,1.617c14.397,0.165,20.017-3.021,24.08-3.246c4.065-0.224,18.416,0.208,26.551-0.512
			c8.128-0.722,16.825-3.599,16.825-3.599l0.042-3.392C295.511,185.985,298.151,184.441,286.555,183.341z"/>
		<path fill="#587C1E" d="M58.732,191.133c0,0-3.884,0.166-7.892,3.159l-7.143-2.096l-1.223,1.381l8.337,3.179
			c0,0,1.292,1.059,7.724,0.572L58.732,191.133z"/>
		<path fill="#83AA4B" d="M140.406,187.379c1.638,0.114,10.893-0.321,8.233,4.074c-2.658,4.395-11.605,1.328-15.078,0.743
			C130.09,191.608,134.101,186.934,140.406,187.379z"/>
		<path fill="#83AA4B" d="M87.699,188.804c1.114,0.079,7.428-0.219,5.615,2.777s-7.918,0.906-10.284,0.507
			C80.665,191.692,83.399,188.503,87.699,188.804z"/>
	</g>
	<g>
		<path fill="#6F9B37" d="M395.141,178.379c-5.191,0.134-14.04,3.974-22.406,4.188c-8.363,0.214-15.92-1.762-23.42-1.569
			c-7.5,0.193-14.371,2.396-21.008,2.568c-6.637,0.169-15.328-1.059-20.806-0.918c-5.484,0.141-9.448,3.063-16.949,3.257
			s-10.597-0.213-21.018,0.075c-12.095,0.335-13.52,3.909-20.732,4.094s-7.804-0.523-16.464-0.3
			c-8.649,0.221-7.023,1.771-13.803,1.943c-6.78,0.174-7.261-1.692-15.912-1.469c-8.655,0.222-8.761,1.813-14.818,1.968
			s-12.917-2.7-19.838-2.521c-6.924,0.177-15.267,1.979-21.751,5.194c-4.827,2.393-5.598,8.933-5.598,8.933s8.658-0.082,12.985-0.19
			c4.327-0.114,8.985,1.502,16.486,1.31c7.5-0.194,13.715,0.075,18.619-0.05c4.901-0.125,7.107,1.407,16.048,1.181
			c8.943-0.23,9.228-0.742,14.623-1.176c3.961-0.318,6.079,0.645,16.459,0.376c10.386-0.266,11.904-0.238,17.745-0.387
			c5.842-0.151,7.283-0.254,15.216-0.461c7.932-0.2,13.096-1.424,22.617-1.667c9.521-0.244,9.113,0.854,15.391,0.694
			c6.271-0.161,14.872-2.479,19.635-2.601c4.759-0.122,13.44,0.667,21.228,0.47c7.787-0.201,21.82-1.792,24.848-1.87
			c3.032-0.078,13.624-0.634,20.765-0.817c7.143-0.183,23-6.436,23-6.436l-0.077-2.958
			C416.203,189.24,408.341,178.04,395.141,178.379z"/>
		<path fill="#63892E" d="M209.788,192.946c1.244-0.55,2.492-1.064,3.751-1.544c-2.903-0.479-4.999-1.305-10.917-1.152
			c-8.655,0.222-8.761,1.813-14.818,1.969c-6.058,0.154-12.917-2.701-19.838-2.522c-6.924,0.177-15.267,1.979-21.751,5.194
			c-4.827,2.393-5.598,8.933-5.598,8.933s8.658-0.082,12.985-0.19c4.327-0.114,8.985,1.503,16.486,1.31
			c7.5-0.194,13.715,0.075,18.619-0.05c1.567-0.039,2.859,0.09,4.185,0.277C197.198,199.487,203.225,195.856,209.788,192.946z"/>
		<path fill="#63892E" d="M395.141,178.379c-5.191,0.134-14.04,3.974-22.406,4.188c-5.601,0.142-10.841-0.694-15.938-1.206
			c-1.346,0.783-2.723,1.51-4.11,2.187c-6.34,3.086-12.162,7.093-18.476,10.236c-7.756,3.858-15.771,6.88-24.316,8.446
			c-2.353,0.433-4.708,0.799-7.067,1.123c1.056,0.092,2.269,0.141,3.981,0.097c6.271-0.161,14.872-2.479,19.635-2.601
			c4.759-0.122,13.44,0.667,21.228,0.47c7.787-0.201,21.821-1.792,24.848-1.87c3.032-0.078,13.624-0.634,20.766-0.817
			c7.142-0.183,22.999-6.436,22.999-6.436l-0.077-2.958C416.203,189.24,408.341,178.04,395.141,178.379z"/>
		<path fill="none" stroke="#648E29" stroke-width="0.5747" d="M415.442,190.425c0,0-20.516-0.488-41.51,2.861
			c-20.993,3.35-40.222,4.67-67.823,4.357c-29.027-0.328-46.825,1.203-70.403,0.695c-25.725-0.549-52.488,0.813-70.097,1.801
			c-17.603,0.987-24.063,3.118-24.063,3.118"/>
		<path fill="#83AA4B" d="M352.064,184.969c-5.659-1.046-16.564,4.208-9.299,7.32c7.269,3.114,20.415,0.229,18.61-2.926
			C359.568,186.21,357.549,185.981,352.064,184.969z"/>
		<path fill="#83AA4B" d="M312.485,185.41c-2.314-0.78-6.72,2.845-3.729,5.097c2.982,2.255,8.323,0.32,7.563-1.922
			C315.555,186.344,314.729,186.167,312.485,185.41z"/>
		<path fill="#83AA4B" d="M272.601,188.212c-2.31-0.537-6.74,2.066-3.77,3.641c2.969,1.571,8.317,0.163,7.573-1.419
			C275.661,188.852,274.84,188.732,272.601,188.212z"/>
		<path fill="#83AA4B" d="M236.116,190.812c-1.933-0.449-5.646,1.729-3.158,3.046c2.487,1.316,6.964,0.137,6.343-1.188
			C238.679,191.349,237.99,191.247,236.116,190.812z"/>
		<path fill="#83AA4B" d="M207.02,191.564c-2.029-0.473-5.926,1.815-3.317,3.2c2.612,1.382,7.317,0.145,6.664-1.249
			C209.712,192.126,208.987,192.018,207.02,191.564z"/>
	</g>
	<g>
		<path fill="#6F9B37" d="M415.788,171.672c-5.186-0.297-14.324,2.797-22.678,2.316c-8.355-0.478-15.724-3.072-23.215-3.502
			c-7.486-0.43-14.518,1.199-21.143,0.817c-6.627-0.38-15.188-2.323-20.663-2.637c-5.473-0.313-9.668,2.272-17.157,1.841
			c-7.489-0.429-10.542-1.09-20.951-1.667c-12.084-0.668-13.799,2.775-21.003,2.362c-7.202-0.412-7.732-1.166-16.38-1.661
			c-8.641-0.497-7.145,1.181-13.916,0.792c-6.774-0.387-7.1-2.287-15.741-2.781c-8.64-0.496-8.875,1.08-14.927,0.734
			c-6.048-0.347-12.646-3.761-19.561-4.157c-6.915-0.396-15.379,0.709-22.106,3.374c-5.008,1.984-6.318,8.438-6.318,8.438
			s8.636,0.637,12.956,0.887c4.322,0.247,8.832,2.241,16.323,2.671c7.488,0.428,13.661,1.21,18.56,1.49
			c4.896,0.281,6.966,1.995,15.896,2.508c8.937,0.513,9.257,0.024,14.669,0.042c3.97,0.008,6.005,1.143,16.376,1.736
			c10.371,0.596,11.882,0.748,17.712,1.083c5.834,0.334,7.28,0.349,15.201,0.804c7.923,0.455,13.171-0.336,22.679,0.208
			c9.509,0.546,9.014,1.61,15.28,1.967c6.266,0.36,15.024-1.237,19.779-0.965c4.755,0.271,13.34,1.781,21.118,2.229
			c7.777,0.444,21.896,0.021,24.919,0.194c3.022,0.174,13.629,0.497,20.757,0.906c7.131,0.407,23.455-4.508,23.455-4.508l0.17-2.954
			C435.878,184.24,428.969,172.427,415.788,171.672z"/>
		<path fill="#63892E" d="M229.866,170.835c1.278-0.443,2.569-0.854,3.862-1.228c-2.85-0.717-4.872-1.715-10.787-2.055
			c-8.64-0.496-8.875,1.08-14.927,0.734c-6.048-0.347-12.646-3.761-19.561-4.157c-6.915-0.396-15.379,0.709-22.106,3.374
			c-5.008,1.984-6.318,8.438-6.318,8.438s8.636,0.637,12.956,0.887c4.322,0.247,8.832,2.241,16.323,2.671
			c7.488,0.428,13.661,1.21,18.56,1.49c1.565,0.09,2.843,0.328,4.146,0.624C216.777,176.314,223.083,173.192,229.866,170.835z"/>
		<path fill="#63892E" d="M415.788,171.672c-5.186-0.297-14.324,2.797-22.678,2.316c-5.597-0.319-10.746-1.588-15.788-2.521
			c-1.4,0.671-2.836,1.279-4.275,1.839c-6.571,2.551-12.705,6.059-19.257,8.669c-8.05,3.205-16.286,5.55-24.934,6.403
			c-2.383,0.233-4.76,0.407-7.141,0.533c1.046,0.177,2.251,0.328,3.963,0.425c6.266,0.36,15.024-1.237,19.779-0.965
			c4.755,0.271,13.34,1.781,21.118,2.229c7.777,0.444,21.896,0.021,24.919,0.194c3.022,0.174,13.628,0.497,20.757,0.906
			c7.131,0.407,23.454-4.508,23.454-4.508l0.171-2.954C435.878,184.24,428.969,172.427,415.788,171.672z"/>
		<path fill="none" stroke="#648E29" stroke-width="0.5747" d="M435.018,185.359c0,0-20.402-2.188-41.603-0.591
			c-21.2,1.6-40.472,1.324-67.951-1.272c-28.898-2.731-46.76-2.682-70.223-5.139c-25.59-2.68-52.373-3.539-70.001-4.013
			c-17.625-0.476-24.241,1.112-24.241,1.112"/>
		<path fill="#83AA4B" d="M372.31,174.671c-5.553-1.51-16.856,2.821-9.872,6.526c6.985,3.705,20.323,1.918,18.789-1.374
			C379.688,176.531,377.695,176.134,372.31,174.671z"/>
		<path fill="#83AA4B" d="M332.831,171.83c-2.242-0.968-6.935,2.28-4.142,4.772c2.786,2.494,8.267,1.008,7.695-1.287
			C335.816,173.017,335.008,172.771,332.831,171.83z"/>
		<path fill="#83AA4B" d="M292.852,171.322c-2.256-0.725-6.888,1.5-4.059,3.315c2.83,1.813,8.278,0.85,7.669-0.786
			C295.85,172.212,295.04,172.024,292.852,171.322z"/>
		<path fill="#83AA4B" d="M256.276,170.891c-1.883-0.607-5.761,1.255-3.393,2.774c2.365,1.519,6.926,0.712,6.414-0.659
			C258.785,171.636,258.108,171.479,256.276,170.891z"/>
		<path fill="#83AA4B" d="M227.217,169.229c-1.982-0.638-6.057,1.318-3.568,2.914c2.49,1.595,7.28,0.749,6.746-0.69
			C229.854,170.012,229.145,169.846,227.217,169.229z"/>
	</g>
	<g>
		<path fill="#6F9B37" d="M346.422,134.195c-5.195-0.005-14.144,3.6-22.512,3.592s-15.869-2.182-23.373-2.189
			c-7.502-0.007-14.43,2.018-21.067,2.011c-6.637-0.007-15.29-1.464-20.771-1.468c-5.487-0.007-9.528,2.813-17.032,2.804
			c-7.504-0.007-10.584-0.494-21.008-0.482c-12.104,0.015-13.622,3.55-20.837,3.542c-7.214-0.005-7.787-0.728-16.446-0.733
			c-8.657-0.009-7.072,1.582-13.853,1.575c-6.782-0.006-7.214-1.885-15.871-1.89c-8.655-0.009-8.801,1.577-14.862,1.574
			c-6.061-0.005-12.839-3.041-19.766-3.047c-6.925-0.005-15.313,1.574-21.882,4.615c-4.885,2.265-5.83,8.779-5.83,8.779
			s8.656,0.148,12.984,0.154c4.33,0.004,8.941,1.739,16.445,1.747c7.502,0.004,13.709,0.439,18.614,0.442
			c4.906,0.004,7.067,1.599,16.013,1.607c8.947,0.007,9.243-0.495,14.646-0.786c3.968-0.214,6.061,0.805,16.448,0.813
			c10.387,0.009,11.904,0.075,17.747,0.082c5.844,0.005,7.287-0.06,15.222-0.054c7.937,0.009,13.131-1.079,22.652-1.071
			c9.522,0.01,9.09,1.099,15.37,1.104c6.27,0.006,14.933-2.084,19.69-2.08c4.762,0.002,13.421,1.026,21.209,1.032
			c7.789,0.008,21.861-1.211,24.893-1.208c3.027,0.002,13.636-0.272,20.774-0.265c7.144,0.004,23.164-5.824,23.164-5.824
			l0.004-2.957C367.192,145.612,359.627,134.206,346.422,134.195z"/>
		<path fill="#63892E" d="M160.748,143.841c1.257-0.517,2.518-0.999,3.792-1.444c-2.892-0.557-4.963-1.438-10.887-1.442
			c-8.655-0.009-8.801,1.577-14.862,1.574c-6.061-0.005-12.839-3.041-19.766-3.047c-6.925-0.005-15.313,1.574-21.882,4.615
			c-4.885,2.265-5.83,8.779-5.83,8.779s8.656,0.148,12.984,0.154c4.33,0.004,8.941,1.739,16.445,1.747
			c7.502,0.004,13.709,0.438,18.614,0.442c1.568,0.002,2.856,0.167,4.178,0.391C147.988,150.047,154.109,146.574,160.748,143.841z"
			/>
		<path fill="#63892E" d="M346.422,134.195c-5.195-0.005-14.144,3.6-22.512,3.592c-5.602-0.005-10.816-0.979-15.898-1.626
			c-1.368,0.747-2.762,1.437-4.17,2.078c-6.418,2.915-12.343,6.764-18.74,9.74c-7.853,3.653-15.947,6.46-24.526,7.798
			c-2.367,0.369-4.735,0.675-7.104,0.934c1.053,0.121,2.268,0.202,3.984,0.204c6.27,0.006,14.933-2.084,19.69-2.08
			c4.762,0.002,13.421,1.026,21.209,1.032c7.789,0.008,21.861-1.211,24.893-1.208c3.027,0.002,13.636-0.272,20.774-0.265
			c7.144,0.004,23.164-5.824,23.164-5.824l0.004-2.957C367.192,145.612,359.627,134.206,346.422,134.195z"/>
		<path fill="none" stroke="#648E29" stroke-width="0.5747" d="M366.393,146.777c0,0-20.495-1.036-41.568,1.756
			c-21.075,2.792-40.33,3.604-67.917,2.559c-29.011-1.1-46.839-0.041-70.399-1.172c-25.695-1.233-52.489-0.582-70.115-0.06
			c-17.625,0.519-24.14,2.477-24.14,2.477"/>
		<path fill="#83AA4B" d="M303.183,139.641c-5.629-1.195-16.669,3.766-9.486,7.069c7.182,3.308,20.397,0.773,18.68-2.43
			C310.652,141.081,308.642,140.798,303.183,139.641z"/>
		<path fill="#83AA4B" d="M263.607,139.029c-2.291-0.839-6.791,2.667-3.867,4.998c2.925,2.333,8.313,0.541,7.61-1.72
			C266.65,140.046,265.831,139.846,263.607,139.029z"/>
		<path fill="#83AA4B" d="M223.662,140.774c-2.292-0.597-6.791,1.886-3.864,3.538c2.925,1.652,8.312,0.385,7.611-1.217
			C226.707,141.494,225.892,141.353,223.662,140.774z"/>
		<path fill="#83AA4B" d="M187.123,142.405c-1.921-0.499-5.688,1.582-3.238,2.963c2.449,1.382,6.958,0.321,6.371-1.019
			C189.669,143.009,188.983,142.891,187.123,142.405z"/>
		<path fill="#83AA4B" d="M158.016,142.385c-2.017-0.523-5.973,1.658-3.4,3.11c2.573,1.453,7.31,0.337,6.693-1.07
			C160.692,143.018,159.971,142.893,158.016,142.385z"/>
	</g>
	<g>
		<path fill="#6F9B37" d="M269.525,270.928c-5.192-0.138-14.229,3.242-22.593,3.021c-8.364-0.213-15.81-2.578-23.311-2.771
			c-7.499-0.194-14.478,1.648-21.114,1.479c-6.632-0.171-15.249-1.85-20.73-1.988c-5.479-0.145-9.592,2.573-17.093,2.378
			c-7.501-0.193-10.571-0.762-20.991-1.01c-12.1-0.293-13.708,3.205-20.918,3.019c-7.211-0.188-7.766-0.928-16.423-1.147
			c-8.654-0.228-7.11,1.404-13.888,1.227c-6.78-0.175-7.165-2.063-15.818-2.283c-8.653-0.229-8.839,1.354-14.896,1.202
			c-6.059-0.16-12.761-3.366-19.683-3.548c-6.924-0.177-15.35,1.189-21.991,4.066c-4.942,2.145-6.05,8.632-6.05,8.632
			s8.65,0.364,12.977,0.479c4.329,0.115,8.896,1.963,16.397,2.161c7.499,0.19,13.693,0.779,18.597,0.906s7.024,1.775,15.967,2.007
			c8.944,0.232,9.254-0.264,14.662-0.416c3.973-0.115,6.039,0.957,16.421,1.223c10.386,0.27,11.899,0.375,17.742,0.527
			c5.841,0.148,7.284,0.124,15.218,0.33c7.931,0.204,13.153-0.748,22.674-0.503c9.518,0.248,9.056,1.323,15.332,1.486
			c6.273,0.161,14.982-1.711,19.743-1.586c4.76,0.122,13.387,1.361,21.177,1.563c7.784,0.204,21.885-0.66,24.909-0.579
			c3.033,0.073,13.641,0.063,20.781,0.251c7.142,0.186,23.3-5.24,23.3-5.24l0.079-2.954
			C290.001,282.861,282.72,271.265,269.525,270.928z"/>
		<path fill="#63892E" d="M83.667,275.918c1.268-0.486,2.542-0.937,3.825-1.354c-2.875-0.628-4.924-1.562-10.847-1.712
			c-8.653-0.229-8.839,1.354-14.896,1.202c-6.059-0.16-12.761-3.366-19.683-3.548c-6.924-0.177-15.35,1.189-21.991,4.066
			c-4.942,2.144-6.05,8.632-6.05,8.632s8.65,0.364,12.977,0.479c4.329,0.115,8.896,1.963,16.397,2.161
			c7.499,0.19,13.693,0.779,18.597,0.906c1.568,0.043,2.853,0.239,4.167,0.493C70.756,281.802,76.961,278.482,83.667,275.918z"/>
		<path fill="#63892E" d="M269.525,270.928c-5.192-0.138-14.229,3.242-22.593,3.021c-5.601-0.143-10.787-1.252-15.854-2.019
			c-1.386,0.709-2.803,1.364-4.223,1.967c-6.487,2.755-12.509,6.457-18.976,9.271c-7.943,3.452-16.104,6.059-24.719,7.182
			c-2.373,0.309-4.746,0.555-7.121,0.758c1.049,0.142,2.259,0.256,3.973,0.3c6.273,0.161,14.982-1.711,19.743-1.586
			c4.76,0.122,13.387,1.361,21.177,1.562c7.784,0.205,21.885-0.659,24.909-0.578c3.033,0.073,13.641,0.063,20.781,0.251
			c7.142,0.186,23.3-5.24,23.3-5.24l0.079-2.954C290.001,282.861,282.72,271.265,269.525,270.928z"/>
		<path fill="none" stroke="#648E29" stroke-width="0.5747" d="M289.174,284.004c0,0-20.464-1.551-41.6,0.716
			c-21.141,2.263-40.412,2.589-67.958,0.854c-28.974-1.827-46.823-1.21-70.352-2.938c-25.655-1.877-52.456-1.894-70.09-1.813
			c-17.633,0.077-24.195,1.872-24.195,1.872"/>
		<path fill="#83AA4B" d="M226.158,275.287c-5.593-1.338-16.756,3.344-9.658,6.831c7.098,3.484,20.375,1.281,18.732-1.962
			C233.59,276.914,231.587,276.578,226.158,275.287z"/>
		<path fill="#83AA4B" d="M186.615,273.682c-2.272-0.896-6.858,2.498-3.992,4.897c2.864,2.409,8.294,0.748,7.652-1.524
			C189.632,274.774,188.817,274.555,186.615,273.682z"/>
		<path fill="#83AA4B" d="M146.639,274.429c-2.278-0.657-6.838,1.711-3.953,3.437c2.884,1.726,8.299,0.593,7.641-1.025
			C149.665,275.223,148.849,275.059,146.639,274.429z"/>
		<path fill="#83AA4B" d="M110.07,275.14c-1.907-0.544-5.725,1.436-3.31,2.881c2.411,1.443,6.944,0.494,6.391-0.858
			C112.6,275.807,111.917,275.675,110.07,275.14z"/>
		<path fill="#83AA4B" d="M80.974,274.389c-2.004-0.574-6.014,1.51-3.479,3.028c2.536,1.515,7.3,0.519,6.719-0.904
			C83.632,275.09,82.914,274.945,80.974,274.389z"/>
	</g>
	<g>
		<path fill="#6F9B37" d="M36.094,209.088c6.697-0.214,18.38,4.073,29.171,3.727c10.789-0.348,20.374-3.455,30.048-3.768
			c9.673-0.311,18.688,2.019,27.245,1.744c8.558-0.276,19.66-2.504,26.73-2.732c7.067-0.229,12.394,3.24,22.066,2.931
			c9.674-0.311,13.63-1.067,27.073-1.471c15.605-0.47,17.704,4.025,27.009,3.729c9.3-0.298,10.019-1.253,21.176-1.61
			c11.162-0.359,9.182,1.754,17.925,1.473c8.742-0.281,9.229-2.72,20.388-3.077c11.161-0.36,11.413,1.68,19.228,1.429
			c7.813-0.251,16.433-4.438,25.362-4.726c8.93-0.285,19.812,1.414,28.4,5.069c6.395,2.721,7.875,11.083,7.875,11.083
			s-11.156,0.546-16.736,0.725c-5.582,0.183-11.464,2.604-21.139,2.914c-9.672,0.311-17.653,1.12-23.979,1.325
			c-6.327,0.206-9.047,2.343-20.586,2.713c-11.531,0.371-11.938-0.261-18.914-0.422c-5.124-0.111-7.784,1.286-21.173,1.716
			c-13.396,0.429-15.35,0.576-22.883,0.822c-7.534,0.241-9.398,0.211-19.629,0.543c-10.232,0.331-16.975-0.86-29.253-0.473
			c-12.278,0.397-11.676,1.787-19.768,2.05c-8.093,0.259-19.342-2.09-25.48-1.892c-6.14,0.198-17.261,1.863-27.306,2.188
			c-10.047,0.323-28.235-0.683-32.143-0.557s-17.592,0.201-26.801,0.494C30.791,235.33,9.9,228.46,9.9,228.46l-0.123-3.813
			C9.777,224.646,19.072,209.637,36.094,209.088z"/>
		<path fill="#648E29" d="M54.374,234.741c0.768-0.957,1.551-1.914,2.368-2.867c5.416-6.294,11.417-12.166,17.349-17.971
			c0.777-0.761,1.56-1.515,2.345-2.267c-3.608,0.574-7.312,1.055-11.17,1.178c-10.791,0.348-22.474-3.939-29.171-3.727
			c-17.021,0.55-26.317,15.559-26.317,15.559L9.9,228.46c0,0,20.893,6.87,30.102,6.576C44.3,234.897,49.573,234.809,54.374,234.741z
			"/>
		<path fill="#648E29" d="M357.915,211.804c-8.59-3.656-19.472-5.354-28.4-5.069c-8.931,0.288-17.549,4.474-25.362,4.726
			c-7.454,0.24-8.032-1.604-17.767-1.461c-4.43,1.39-9.24,2.043-13.847,1.941c-2.146,0.56-4.353,1.053-8.002,1.168
			c-0.344,0.013-0.668,0.02-0.983,0.022c-1.611,0.605-3.227,1.205-4.888,1.713c-6.839,2.09-14.105,3.153-21.189,3.966
			c-7.613,0.875-15.287,0.926-22.896,1.792c-11.82,2.536-23.25,6.64-34.501,11.026c-0.902,0.357-1.807,0.7-2.711,1.055
			c8.816,0.044,14.906,0.813,23.383,0.54c10.23-0.332,12.095-0.302,19.629-0.543c7.533-0.246,9.485-0.395,22.883-0.822
			c13.389-0.43,16.049-1.827,21.173-1.716c6.977,0.161,7.383,0.793,18.914,0.422c11.539-0.37,14.259-2.507,20.586-2.713
			c6.326-0.205,14.309-1.016,23.979-1.325c9.675-0.312,15.557-2.731,21.139-2.914c5.58-0.179,16.736-0.725,16.736-0.725
			S364.31,214.525,357.915,211.804z"/>
		<path fill="none" stroke="#648E29" stroke-width="0.7414" d="M10.849,226.12c0,0,26.386-2.166,53.674,0.584
			c27.288,2.749,52.147,3.025,87.673,0.563c37.36-2.587,60.395-1.941,90.729-4.348c33.086-2.625,67.656-2.866,90.403-2.906
			c22.747-0.039,31.229,2.221,31.229,2.221"/>
		<path fill="#83AA4B" d="M92.069,214.366c7.208-1.763,21.647,4.187,12.52,8.739c-9.127,4.549-26.274,1.813-24.185-2.381
			C82.494,216.526,85.075,216.077,92.069,214.366z"/>
		<path fill="#83AA4B" d="M143.072,211.985c2.923-1.176,8.868,3.164,5.188,6.288c-3.678,3.124-10.697,1.031-9.884-1.914
			C139.189,213.419,140.236,213.127,143.072,211.985z"/>
		<path fill="#83AA4B" d="M194.646,212.623c2.936-0.859,8.834,2.159,5.129,4.408c-3.707,2.248-10.705,0.829-9.863-1.265
			C190.751,213.673,191.802,213.457,194.646,212.623z"/>
		<path fill="#83AA4B" d="M241.832,213.255c2.451-0.721,7.39,1.807,4.29,3.688c-3.104,1.882-8.959,0.695-8.254-1.056
			C238.573,214.135,239.452,213.952,241.832,213.255z"/>
		<path fill="#83AA4B" d="M279.358,212.052c2.582-0.758,7.772,1.897,4.513,3.873c-3.263,1.979-9.413,0.732-8.674-1.106
			C275.935,212.979,276.857,212.789,279.358,212.052z"/>
	</g>
	<path fill="#97BC50" d="M77.503,217.87c9.803-4.373,12.814-3.311,22.177-8.829c9.365-5.522,8.846-7.824,27.709-14.229
		c18.863-6.406,26.691-3.177,35.83-4.632c9.138-1.453,15.271-8.029,27.107-10.148c11.837-2.121,12.483,3.078,23.305,4.47
		c10.825,1.391,24.118,0.385,30.531,1.337c6.419,0.955,17.813,12.767,17.813,12.767s-18.886,8.146-27.063,6.09
		c-8.18-2.058-16.284-3.536-22.997-3.901c-6.708-0.365-8.89-0.293-23.075,2.48c-14.188,2.772-32.862,8.017-46.874,9.624
		c-14.012,1.612-22.328,1.877-30.457,7.359s-18.444,9.292-28.218,11.928c-9.774,2.627-24.307-3.282-24.307-3.282
		S69.386,221.49,77.503,217.87z"/>
	<path fill="#8EAF46" d="M66.967,223.635c-4.502,2.792-7.981,5.268-7.981,5.268s5.327,2.161,11.697,3.287
		C69.059,229.612,67.862,226.681,66.967,223.635z"/>
	<path fill="#8EAF46" d="M114.597,212.462c-2.025-3.083-3.72-6.603-4.609-10.214c-3.407,2.071-5.618,4.026-10.308,6.792
		c-1.012,0.597-1.939,1.104-2.821,1.563c0.033,0.563,0.056,1.128,0.095,1.692c0.209,3.039,0.489,6.108,0.368,9.153
		c-0.087,2.162-0.287,4.303-0.68,6.381c5.313-2.082,10.417-4.574,14.867-7.573c2.162-1.46,4.339-2.538,6.63-3.382
		C116.859,215.579,115.676,214.108,114.597,212.462z"/>
	<path fill="#8EAF46" d="M177.545,205.713c-5.009-4.442-9.128-9.6-9.521-16.8c-1.536,0.555-3.119,1-4.806,1.269
		c-3.059,0.486-5.974,0.45-9.203,0.425c1.037,2.232,1.824,4.565,2.327,6.821c1.008,4.522,1.117,8.895,0.383,12.974
		C163.593,208.982,170.771,207.261,177.545,205.713z"/>
	<path fill="#8EAF46" d="M242.787,204.575c8.729-1.46,19.188-5.971,19.188-5.971s-7.061-7.316-13.197-10.897
		C248.756,194.033,246.831,200.316,242.787,204.575z"/>
	<path fill="#8EAF46" d="M220.136,196.174c-0.119-3.841,0.789-7.541,2.337-10.998c-3.004-0.112-6.007-0.311-8.842-0.674
		c-5.844-0.752-8.721-2.612-11.997-3.833c0.813,1.884,1.414,3.817,1.759,5.668c0.771,4.136,0.96,8.234-0.54,12.264
		c-0.301,0.81-0.62,1.603-0.932,2.398c3.866-0.479,6.21-0.413,9.993-0.206c2.944,0.159,6.169,0.544,9.541,1.089
		C220.669,200.162,220.2,198.229,220.136,196.174z"/>
	<path fill="#8EAF46" d="M163.862,208.561c-1.411-0.537-2.674-1.226-3.801-2.035c-1.124,1.271-2.233,2.562-3.317,3.87
		c2.517-0.52,5.073-1.081,7.637-1.661C164.206,208.679,164.032,208.627,163.862,208.561z"/>
	<path fill="#8EAF46" d="M244.162,185.839c-6.413-0.952-19.707,0.054-30.531-1.337c-5.776-0.744-8.656-2.569-11.882-3.79
		c-0.056,4.526-0.825,9.056-2.147,12.965c-1.106,3.281-2.787,5.988-4.754,8.456c8.999-1.644,11.442-1.646,17.067-1.339
		c6.712,0.365,14.817,1.844,22.997,3.901c8.178,2.056,27.063-6.09,27.063-6.09S250.581,186.794,244.162,185.839z"/>
	<path fill="#86A040" d="M244.162,185.839c-3.394-0.505-8.719-0.46-14.58-0.513c-3.12,4.425-6.999,8.129-11.668,11.098
		c-3.063,1.41-6.125,2.82-9.188,4.23c0.986,0.024,2.019,0.076,3.188,0.139c6.712,0.365,14.817,1.844,22.997,3.901
		c8.178,2.056,27.063-6.09,27.063-6.09S250.581,186.794,244.162,185.839z"/>
	<g>
		<path fill="#92A541" d="M195.262,221.091c18.158-0.127,22.618,6.003,33.078,6.315c10.467,0.313,11.02-4.726,28.152-4.11
			c17.132,0.621,17.538,5.76,34.06,6.352c14.368,0.521,16.077-3.358,28.538-1.528c12.462,1.821,11.892,3.173,20.238,3.314
			c8.347,0.133,7.905-2.077,18.34-1.91c10.434,0.169,16.521,5.092,26.407,5.972c9.887,0.877,8.854,4.104,8.854,4.104
			s-5.495,0.478-11.668,1.529c-7.112,1.221-10.055,3.814-23.608,3.327c-13.553-0.486-15.869-1.969-20.524-2.565
			c-8.574-1.088-7.124,2.096-22.745,1.007c-15.62-1.085-18.992-1.726-27.838-2.568c-8.84-0.837-17.484-0.019-29.516,0.547
			c-12.021,0.563-24.945-3.029-30.157-3.221c-5.211-0.188-21.862,0.258-32.164-1.157c-10.304-1.418-19.733-7.257-19.733-7.257
			S177.668,221.214,195.262,221.091z"/>
		<path fill="#85932E" d="M384.075,235.495c-9.887-0.88-15.975-5.803-26.407-5.972c-3.727-0.062-6.063,0.184-7.91,0.518
			c-2.343,1.637-4.752,3.193-7.256,4.647c-4.629,2.7-9.357,5.229-14.11,7.702c2.666-0.52,4.445-1.045,8.735-0.501
			c4.654,0.598,6.972,2.078,20.524,2.565c13.554,0.487,16.496-2.106,23.608-3.327c6.173-1.053,11.668-1.529,11.668-1.529
			S393.962,236.372,384.075,235.495z"/>
		<path fill="#85932E" d="M210.975,234.498c4.32-2.389,8.518-4.971,12.642-7.66c-7.556-1.58-13.159-5.855-28.354-5.747
			c-17.594,0.123-20.287,8.149-20.287,8.149s9.43,5.839,19.733,7.257c3.572,0.492,7.907,0.753,12.264,0.904
			C208.219,236.269,209.556,235.289,210.975,234.498z"/>
		<path fill="none" stroke="#597423" stroke-width="0.7414" d="M174.975,229.24c0,0,8.246-1.095,23.626,1.427
			c15.38,2.519,29.975,2.387,53.245,2.811c23.28,0.422,43.284-0.492,63.731,1.682c20.448,2.176,37.097,3.163,51.354,3.469
			c14.258,0.311,25.996,0.973,25.996,0.973"/>
		<path fill="#9DA958" d="M201.154,223.476c2.764,0.97,5.261,5.272,3.06,6.014c-2.205,0.73-11.75-1.669-10.09-4.604
			C195.782,221.946,196.726,221.925,201.154,223.476z"/>
	</g>
	<g>
		<path fill="#5D7F36" d="M82.548,233.677c6.464-1.764,19.214,1.132,29.629-1.704c10.417-2.842,18.631-9.513,27.97-12.055
			c9.339-2.543,19.231-0.219,27.492-2.469c8.263-2.25,17.963-9.133,24.787-10.995c6.825-1.855,13.393,2.434,22.733-0.11
			c9.339-2.545,12.424-6.341,25.41-9.849c15.073-4.069,18.152-0.183,27.138-2.63c8.978-2.444,9.45-3.537,20.229-6.471
			c10.773-2.935,9.532,0.299,17.975-2c8.438-2.297,8.147-5.498,18.921-8.432c10.776-2.935,11.496-1.009,19.039-3.063
			c7.543-2.053,14.957-8.123,23.577-10.471c8.621-2.348,17.563,4.991,22.95,3.523c5.39-1.466,8.309-0.655,11.442,0.229
			c3.136,0.883,4.636,3.562,4.636,3.562s-10.726,3.114-16.113,4.58c-5.388,1.468-10.547,5.188-19.887,7.73
			c-9.34,2.543-17.307,3.747-23.412,5.41c-6.109,1.663-7.869,5.808-19.006,8.84c-11.136,3.031-12.063,1.074-18.892,2.54
			c-5.013,1.074-6.882,4.478-19.813,7.999c-12.932,3.519-15.185,2.687-22.458,4.668c-7.271,1.979-8.697,3.813-18.577,6.503
			c-9.878,2.69-17.297,0.949-29.152,4.179c-11.852,3.228-10.358,6.581-18.17,8.708c-7.813,2.127-19.69,1.021-25.616,2.634
			c-5.928,1.612-15.969,7.242-25.668,9.884c-9.697,2.64-28.015,4.446-31.786,5.469c-3.773,1.031-16.68,5.7-25.569,8.118
			c-8.889,2.426-30.805,0.576-30.805,0.576l-1.002-3.681C60.548,254.903,66.114,238.148,82.548,233.677z"/>
		<path fill="#537033" d="M129.935,245.561c4.893-8.566,12.143-15.059,20.459-20.217c3.002-1.863,5.967-3.675,8.844-5.667
			c0.472-0.403,0.93-0.818,1.395-1.228c-6.56,0.343-13.669-0.388-20.486,1.468c-9.339,2.542-17.553,9.213-27.97,12.055
			c-10.415,2.836-23.165-0.06-29.629,1.703c-16.435,4.472-22,21.227-22,21.227l1.002,3.681c0,0,21.916,1.85,30.805-0.576
			c8.891-2.418,21.796-7.087,25.569-8.118c1.578-0.429,5.701-0.993,10.67-1.699C129.004,247.307,129.444,246.427,129.935,245.561z"
			/>
		<path fill="#537033" d="M401.839,167.184c-3.135-0.885-6.054-1.695-11.442-0.229c-5.388,1.468-14.329-5.871-22.95-3.523
			c-8.62,2.348-16.034,8.417-23.577,10.471c-4.506,1.228-6.576,1.035-9.809,1.305c-1.409,2.352-3.133,4.547-5.189,6.509
			c-8.377,7.973-17.521,14.998-27.072,21.436c2.965-1.531,4.731-2.74,7.367-3.306c6.827-1.465,7.756,0.491,18.892-2.54
			c11.137-3.032,12.896-7.177,19.006-8.84c6.105-1.663,14.072-2.866,23.412-5.41c9.34-2.542,14.499-6.263,19.887-7.73
			c5.389-1.466,16.113-4.58,16.113-4.58S404.975,168.067,401.839,167.184z"/>
		<path fill="none" stroke="#495E06" stroke-width="1.4828" stroke-linecap="round" stroke-linejoin="round" d="M61.931,256.084
			c0,0,25.171-8.212,52.354-11.854c27.182-3.647,49.943-12.232,83.935-22.856c33.989-10.62,56.215-15.544,88.737-22.145
			c32.522-6.604,65.154-18.458,87.275-23.764c22.119-5.307,30.892-5.071,30.892-5.071"/>
		<path fill="#719146" d="M138.221,225.846c6.605-3.39,22.03-0.941,14.203,5.597c-7.825,6.546-25.139,7.857-24.078,3.289
			C129.408,230.164,131.815,229.125,138.221,225.846z"/>
		<path fill="#719146" d="M83.555,239.364c3.343-1.718,11.15-0.482,7.19,2.829c-3.961,3.31-12.726,3.979-12.188,1.666
			C79.095,241.549,80.316,241.022,83.555,239.364z"/>
		<path fill="#719146" d="M187.288,211.719c2.569-1.823,9.358,1.021,6.501,4.915c-2.854,3.89-10.165,3.478-10.058,0.428
			C183.842,214.01,184.793,213.483,187.288,211.719z"/>
		<path fill="#719146" d="M237.606,200.392c2.659-1.515,9.101,0.056,6.013,3.101c-3.09,3.047-10.222,3.287-9.891,1.055
			C234.062,202.319,235.031,201.864,237.606,200.392z"/>
		<path fill="#719146" d="M283.654,190.079c2.225-1.269,7.613,0.046,5.03,2.594c-2.582,2.553-8.551,2.75-8.277,0.887
			C280.688,191.691,281.503,191.312,283.654,190.079z"/>
		<path fill="#719146" d="M319.885,180.221c2.333-1.334,7.998,0.045,5.283,2.725c-2.714,2.678-8.985,2.888-8.695,0.928
			C316.766,181.914,317.623,181.515,319.885,180.221z"/>
		<path fill="#719146" d="M365.498,167.125c2.331-1.334,7.994,0.048,5.282,2.726c-2.714,2.679-8.987,2.889-8.696,0.929
			C362.379,168.818,363.233,168.419,365.498,167.125z"/>
	</g>
	<path fill="#A3C161" d="M120.921,205.41c-3.864,2.149-9.005-2.826-1.56-5.742C126.811,196.751,127.737,201.613,120.921,205.41z"/>
	<path fill="#A3C161" d="M130.424,200.757c2.354-0.848,4.527,3.538,0.14,4.309C126.175,205.833,126.27,202.253,130.424,200.757z"/>
	<path fill="#A3C161" d="M86.575,216.996c4.551-1.216,8.658,4.831,0.191,5.978C78.301,224.116,78.548,219.143,86.575,216.996z"/>
	<path fill="#6C933A" d="M162.974,252.837c4.939-1.927,5.576,4.354,2.346,5.333c-3.23,0.972-5.642,0.386-7.088-1.425
		C156.238,254.25,162.974,252.837,162.974,252.837z"/>
	<path fill="#6C933A" d="M115.266,255.003c6.75-2.103,7.559,4.6,3.146,5.669c-4.413,1.07-7.693,0.457-9.646-1.452
		C106.073,256.577,115.266,255.003,115.266,255.003z"/>
</g>
</svg>
