<?xml version="1.0" encoding="utf-8"?>
<!-- Generator: Adobe Illustrator 16.0.3, SVG Export Plug-In . SVG Version: 6.00 Build 0)  -->
<!DOCTYPE svg PUBLIC "-//W3C//DTD SVG 1.1//EN" "http://www.w3.org/Graphics/SVG/1.1/DTD/svg11.dtd">
<svg version="1.1" id="Ebene_1" xmlns="http://www.w3.org/2000/svg" xmlns:xlink="http://www.w3.org/1999/xlink" x="0px" y="0px"
	 width="450px" height="450px" viewBox="0 0 450 450" enable-background="new 0 0 450 450" xml:space="preserve">
<g id="broccoli">
	<g>
		<g>
			<g>
				<g>
					<path fill="#C1D677" d="M332.947,203.603c-2.894-5.575-10.016-15.21-16.746-7.955c-3.566-5.775-9.522-5.057-14.893-2.837
						c-4.328-10.123-24.303,0.081-18.02,8.584c-2.659-2.417-8.141-0.819-10.664,1.22c-1.956,1.623-2.143,4.214-3.479,5.728
						c-1.336,1.515-3.252,1.526-4.426,3.975c-1.781,4.469-0.439,10.313,4.65,11.983c3.011,0.755,5.695-0.354,8.6-0.221
						c-0.576,5.857,2.695,13.605,9.459,10.184c2.581,5.631,5.605,8.303,9.635,13.037c3.188,3.604,4.121,10.799,3.693,15.672
						c-4.091,0.396,0.342,3.778,1.083,6.209c0.746,2.43-0.938,5.604,2.438,6.614l-0.313,0.056c1.529,3.252,4.092-0.396,6.155-1.396
						c2.996-1.164,6.628-0.518,9.206-2.247c2.89-1.781,2.144-4.214,0.982-7.209c-1.166-2.997-1.182-4.914-1.979-7.655
						c-0.255,0.365-0.201,0.676-0.51,0.73c0.535-4.252-1.574-9.004-1.971-13.094c-0.244-5.075,1.9-9.289,0.724-14.201
						c9.479,6.662,10.456-7.908,9.845-13.237c3.634,0.646,9.182,1.275,10.231-3.705
						C337.353,210.514,334.055,206.289,332.947,203.603z M298.103,240.009l-3.679-7.323l2.524-0.722L298.103,240.009z"/>
				</g>
			</g>
			<path opacity="0.8" fill="#6C9F65" enable-background="new    " d="M284.309,198.634c0,0-3.99-3.076,0.53-6.821
				c4.522-3.746,11.886-5.399,13.513-2.853c6.824-6.248,12.749-3.505,13.468,1.079c4.253-2.656,10.796,1.109,8.672,3.573
				c-1.434,6.739-8.004,2.619-8.905,9.291c-0.898,6.676-5.646,5.265-6.742,4.995c-1.09-0.271-7.563,10.411-12.421,9.902
				c-4.856-0.509-9.532-5.493-9.532-5.493s-1.662,8.339-7.023,8.229c-5.36-0.113-15.628-10.364-7.092-17.462
				C277.314,195.976,281.438,196.186,284.309,198.634z"/>
			<path fill="#049472" d="M284.676,206.468c0,0-4.26-2.687-0.109-6.845c4.148-4.155,11.324-6.49,13.186-4.104
				c6.206-6.864,12.365-4.689,13.512-0.193c3.981-3.042,10.851,0.092,8.965,2.743c-0.791,6.844-7.721,3.36-7.988,10.088
				c-0.271,6.729-5.132,5.771-6.245,5.604c-1.111-0.168-6.554,11.076-11.438,11.025c-4.881-0.05-10.006-4.574-10.006-4.574
				s-0.871,8.46-6.219,8.851c-5.352,0.394-16.533-8.851-8.698-16.719C277.468,204.476,281.59,204.297,284.676,206.468z"/>
			<path fill="#006946" d="M275.271,221.713c0,0-2.828,9.77,5.469,11.212c8.294,1.445,8.996-2.918,9.414-3.868
				c0,0,2.119,4.602,6.795,2.907c4.676-1.692,4.662-3.444,4.662-3.444s3.468,10.651,10.91,2.188c0,0,1.347,2.688,3.171,3.103
				c1.829,0.409,8.678,1.116,10.79-4.371c2.111-5.486,0.838-11.111-0.353-12.073c-1.191-0.961,4.584,1.394,7.146-0.811
				c2.563-2.2,4.428-9.106,0.337-11.608c0,0,1.328-6.374-3.729-7.83c0,0-3.746-9.009-9.888-5.663
				c-6.144,3.344-8.734-1.468-10.774,4.444c-2.037,5.914-1.115,8.675,1.574,10.692c2.691,2.016,0.024-0.442-6.918,2.378
				c-6.942,2.819-12.466,6.361-12.659,8.617c-0.188,2.252-0.423,0.074-0.423,0.074s-0.894,1.589-4.967,0.865
				C281.753,217.802,276.291,215.831,275.271,221.713z"/>
			<g>
				<g>
					<path fill="#006946" d="M311.985,190.786c-0.169-0.501-0.964-1.236-1.453-0.619c-0.414,0.644,0.595,1.278,1.055,0.739"/>
				</g>
				<g>
					<path fill="#006946" d="M309.511,189.087c-0.312-0.114-0.469-0.171-0.688,0.191c0.431,0.51,1.114-0.388,0.384-0.566"/>
				</g>
				<g>
					<path fill="#006946" d="M309.861,191.515c-1.461,0.615,1.538,1.355,0.857,0.314"/>
				</g>
				<g>
					<path fill="#006946" d="M313.004,192.839c-0.156-0.058-0.781-0.285-0.506,0.168c0.404,0.59,1.177,0.167,1.142-0.464"/>
				</g>
				<g>
					<path fill="#006946" d="M307.888,193.532c0.151-0.652-0.745-0.625-0.866-0.051c-0.2,0.546,0.482,0.618,0.65,0.148"/>
				</g>
				<g>
					<path fill="#006946" d="M303.213,192.532c0.364-0.75-0.573-1.093-0.752-0.364c-0.284,0.782,1.482,0.543,0.609-0.218"/>
				</g>
				<g>
					<path fill="#006946" d="M300.243,190.739c-0.211-0.872-1.458-1.329-1.519-0.201c0,0.972,1.59,0.493,1.01-0.34"/>
				</g>
				<g>
					<path fill="#006946" d="M300.729,194.011c0.034-0.34-0.213-0.871-0.567-0.385c-0.49,0.616,0.474,0.883,0.701,0.258"/>
				</g>
				<g>
					<path fill="#006946" d="M297.671,193.424c-0.056-0.815-1.124-1.029-1.36-0.143c-0.129,0.835,1.076,0.923,1.334,0.221"/>
				</g>
				<g>
					<path fill="#006946" d="M298.021,196.824c0.589-0.405-0.161-0.766-0.617-0.492c-0.773,0.426,0.334,1.272,0.851,0.575"/>
				</g>
				<g>
					<path fill="#006946" d="M300.692,197.977c0.136-0.128,0.27-0.254,0.325-0.41c-1.515-1.173-0.426,2.14,0.151,0.318"/>
				</g>
				<g>
					<path fill="#006946" d="M298.391,200.407c0.335-0.676-0.6-1.018-0.955-0.527c-0.492,0.615,0.543,1.172,0.879,0.496"/>
				</g>
				<g>
					<path fill="#006946" d="M293.755,199.064c0.043-0.603-0.766-0.809-0.889-0.234c-0.128,0.837,1.235,0.979,1.235,0.008"/>
				</g>
				<g>
					<path fill="#006946" d="M293.518,195.354c-0.509-0.542-1.879-0.422-1.111,0.387c0.635,0.677,1.695-0.527,0.74-1.055"/>
				</g>
				<g>
					<path fill="#006946" d="M289.736,196.27c-0.385-0.403-1.305-0.299-1.086,0.313c0.269,0.716,1.254,0.194,1.035-0.419"/>
				</g>
				<g>
					<path fill="#006946" d="M290.275,200.357c0.326-0.411,0.223-1.333-0.438-1.219c-0.922,0.103-0.151,1.622,0.325,0.56"/>
				</g>
				<g>
					<path fill="#006946" d="M287.057,199.006c-0.119-0.398-0.852-0.577-0.865-0.052c-0.021,0.787,1.767,0.733,1.029-0.155"/>
				</g>
				<g>
					<path fill="#006946" d="M287.865,194.616c0.398-0.119-0.135-0.847-0.637-0.676c-1.088,0.31,0.393,1.824,0.537,0.462"/>
				</g>
				<g>
					<path fill="#006946" d="M287.249,203.317c0.035-0.341-0.829-0.391-0.583,0.143c0.189,0.689,0.809,0.205,0.796-0.24"/>
				</g>
				<g>
					<path fill="#006946" d="M288.873,207.094c0.072-0.68-1.191-0.61-1.155,0.021c0.119,1.37,2.548,0.048,1.106-0.125"/>
				</g>
				<g>
					<path fill="#006946" d="M292.669,208.57c0.382-0.568-0.354-1.455-0.795-0.733c-0.548,0.773,1.211,0.797,0.787,0.023"/>
				</g>
				<g>
					<path fill="#006946" d="M300.949,206.469c0.313-0.859-0.751-1.336-1.221-0.534c-0.576,0.849,0.644,1.385,0.937,0.341"/>
				</g>
				<g>
					<path fill="#006946" d="M299.019,207.885c0.17-0.468-0.476-0.883-0.752-0.363c-0.307,0.596,0.68,1.043,0.937,0.341"/>
				</g>
				<g>
					<path fill="#006946" d="M296.709,205.008c0.915,0.158,0.662-1.085-0.005-0.71c-0.88,0.474,0.379,2.351,0.841,0.839"/>
				</g>
			</g>
			<g>
				<g>
					<path fill="#A8CA52" d="M326.301,199.813c-0.038-0.447-0.174-0.774-0.621-0.738c-0.902-0.041-0.701,2.525,0.206,1.221"/>
				</g>
				<g>
					<path fill="#A8CA52" d="M326.268,202.425c0.146-0.262,0.54-0.542,0.815-0.229c0.625,0.533-0.815,1.31-0.974,0.325"/>
				</g>
				<g>
					<path fill="#A8CA52" d="M325.734,205.216c-0.082,0.003-0.174-0.071-0.254-0.064c-0.211,0.517-0.158,1.179,0.518,1.293
						c0.839,0.101,0.902-1.236,0.143-1.346"/>
				</g>
				<g>
					<path fill="#A8CA52" d="M323.37,203.733c0.39-0.363,0.42-1.032-0.255-1.146c-0.841-0.101-0.655,1.219,0.152,0.904"/>
				</g>
				<g>
					<path fill="#A8CA52" d="M323.041,205.923c0.485-0.204,0.268-0.854-0.3-0.643c-0.655,0.135-0.405,1.199,0.243,0.98"/>
				</g>
				<g>
					<path fill="#A8CA52" d="M323.463,208.14c-0.756-1.189-1.855,0.728-0.56,0.293"/>
				</g>
				<g>
					<path fill="#A8CA52" d="M325.084,209.68c1.438-0.779,0.072,1.993,0.172,0.068"/>
				</g>
				<g>
					<path fill="#A8CA52" d="M329.211,209.189c0.202-0.599-0.028-1.411-0.773-1.354c-1.076,0.086-0.138,1.428,0.729,0.777"/>
				</g>
				<g>
					<path fill="#A8CA52" d="M329.659,205.325c0.304-0.355,0.324-1.191-0.265-1.23c-0.675-0.113-0.56,1.377,0.326,0.976"/>
				</g>
				<g>
					<path fill="#A8CA52" d="M327.253,212.927c-0.19,0.763-0.955,0.574-0.683-0.198c0.158-0.096,0.173,0.07,0.26,0.146"/>
				</g>
				<g>
					<path fill="#A8CA52" d="M323.865,213.271c0.049-0.419-0.479-0.795-0.866-0.433c-0.466,0.453,0.387,0.719,0.782,0.441"/>
				</g>
				<g>
					<path fill="#A8CA52" d="M320.985,212.665c-0.397-0.803-1.153,0.172-0.229,0.266"/>
				</g>
				<g>
					<path fill="#A8CA52" d="M316.675,215.082c0.638-0.383-0.178-1.236-0.47-0.714c-0.211,0.519,0.316,0.892,0.731,0.859"/>
				</g>
				<g>
					<path fill="#A8CA52" d="M312.957,216.538c0.237-0.186,0.472-0.37,0.044-0.505c-0.776-0.356-0.824,1.146,0.067,0.828"/>
				</g>
				<g>
					<path fill="#A8CA52" d="M315.266,219.439c0.226-0.351,0.185-0.85-0.317-0.892c-1-0.005-0.711,1.554,0.16,0.987"/>
				</g>
				<g>
					<path fill="#A8CA52" d="M315.455,221.841c0.17,0.067,0.426,0.131,0.596,0.202c0.038-1.669-1.762,0.886-0.22,0.35"/>
				</g>
				<g>
					<path fill="#A8CA52" d="M316.157,225.532c0.661-0.052,0.587-1.044-0.071-0.911c-0.814,0.231-0.297,1.521,0.49,0.963"/>
				</g>
				<g>
					<path fill="#A8CA52" d="M310.802,224.119c0.661-0.056,0.29-0.523,0.123-0.512c-0.475,0.287-0.762,0.892,0.149,0.82"/>
				</g>
				<g>
					<path fill="#A8CA52" d="M311.448,221.734c0.075-0.09,0.101-0.841-0.288-0.477c-0.547,0.457-0.087,1.006,0.466,0.629"/>
				</g>
				<g>
					<path fill="#A8CA52" d="M299.006,228.785c0.386-0.363,0.725-1.391-0.043-1.581c-0.758-0.108-0.914,1.071-0.232,1.267"/>
				</g>
				<g>
					<path fill="#A8CA52" d="M299.524,225.829c-0.027-0.333-0.04-0.496-0.46-0.549c-0.288,0.605,0.813,0.853,0.677,0.115"/>
				</g>
				<g>
					<path fill="#A8CA52" d="M297.46,227.154c-1.164-1.074-0.594,1.961,0.073,0.912"/>
				</g>
				<g>
					<path fill="#A8CA52" d="M297.561,230.563c-0.014-0.166-0.065-0.826-0.362-0.389c-0.368,0.61,0.336,1.141,0.896,0.846"/>
				</g>
				<g>
					<path fill="#A8CA52" d="M294.807,226.193c0.654-0.133,0.26-0.935-0.313-0.807c-0.579,0.045-0.361,0.694,0.134,0.655"/>
				</g>
				<g>
					<path fill="#A8CA52" d="M293.773,221.529c0.836,0.018,0.759-0.976,0.02-0.835c-0.827,0.063,0.122,1.575,0.452,0.462"/>
				</g>
				<g>
					<path fill="#A8CA52" d="M294.174,218.082c0.704-0.554,0.604-1.88-0.449-1.462c-0.882,0.401,0.215,1.65,0.729,0.775"/>
				</g>
				<g>
					<path fill="#A8CA52" d="M291.398,219.882c0.322-0.109,0.705-0.556,0.113-0.675c-0.766-0.189-0.605,0.797,0.059,0.743"/>
				</g>
				<g>
					<path fill="#A8CA52" d="M290.663,216.856c0.719-0.388,0.47-1.451-0.435-1.299c-0.815,0.23-0.395,1.363,0.352,1.306"/>
				</g>
				<g>
					<path fill="#A8CA52" d="M287.716,218.587c0.611,0.369,0.632-0.467,0.188-0.765c-0.706-0.526-1.016,0.827-0.172,1.012"/>
				</g>
				<g>
					<path fill="#A8CA52" d="M287.775,221.496c0.172,0.071,0.344,0.138,0.513,0.128c0.435-1.867-2.131,0.497-0.231,0.265"/>
				</g>
				<g>
					<path fill="#A8CA52" d="M284.609,220.409c0.752,0.026,0.676-0.968,0.082-1.088c-0.764-0.189-0.838,0.98-0.09,1.007"/>
				</g>
				<g>
					<path fill="#A8CA52" d="M283.904,215.634c0.564-0.211,0.422-1.033-0.153-0.903c-0.813,0.231-0.383,1.527,0.504,1.13"/>
				</g>
				<g>
					<path fill="#A8CA52" d="M287.184,213.881c0.278-0.69-0.398-1.885-0.816-0.855c-0.35,0.861,1.188,1.327,1.27,0.234"/>
				</g>
				<g>
					<path fill="#A8CA52" d="M284.777,210.818c0.211-0.515-0.266-1.31-0.732-0.857c-0.539,0.541,0.344,1.222,0.811,0.77"/>
				</g>
				<g>
					<path fill="#A8CA52" d="M281.284,213.007c0.511,0.127,1.306-0.353,0.93-0.904c-0.478-0.797-1.542,0.536-0.376,0.528"/>
				</g>
				<g>
					<path fill="#A8CA52" d="M281.18,209.516c0.313-0.272,0.172-1.01-0.312-0.808c-0.726,0.307,0.065,1.91,0.565,0.871"/>
				</g>
				<g>
					<path fill="#A8CA52" d="M285.51,208.432c0.274,0.311,0.715-0.476,0.35-0.862c-0.732-0.858-1.496,1.118-0.197,0.684"/>
				</g>
				<g>
					<path fill="#A8CA52" d="M277.335,211.482c0.325-0.108,0.013-0.919-0.369-0.471c-0.549,0.457,0.147,0.822,0.55,0.624"/>
				</g>
				<g>
					<path fill="#A8CA52" d="M274.573,214.527c0.647-0.214,0.063-1.336-0.496-1.041c-1.198,0.676,1.015,2.335,0.573,0.954"/>
				</g>
				<g>
					<path fill="#A8CA52" d="M274.809,218.591c0.676,0.115,1.176-0.924,0.334-1.025c-0.929-0.177-0.223,1.432,0.309,0.729"/>
				</g>
				<g>
					<path fill="#A8CA52" d="M280.154,225.255c0.912-0.071,0.906-1.237-0.021-1.331c-1.012-0.172-0.989,1.16,0.078,0.993"/>
				</g>
				<g>
					<path fill="#A8CA52" d="M278.066,224.085c0.496-0.039,0.604-0.796,0.019-0.836c-0.669-0.029-0.667,1.053,0.077,0.994"/>
				</g>
				<g>
					<path fill="#A8CA52" d="M279.727,220.789c0.235,0.899,1.26,0.153,0.641-0.298c-0.795-0.604-1.977,1.318-0.409,1.112"/>
				</g>
			</g>
			<g>
				<g>
					<path fill="#12958C" d="M314.207,227.255c0.447,0.05,0.794-0.022,0.844-0.47c0.212-0.88-2.35-1.165-1.236-0.026"/>
				</g>
				<g>
					<path fill="#12958C" d="M311.648,226.732c0.229,0.19,0.432,0.632,0.071,0.842c-0.641,0.514-1.136-1.045-0.137-1.018"/>
				</g>
				<g>
					<path fill="#12958C" d="M309.009,225.684c0.01-0.08,0.103-0.156,0.111-0.239c-0.469-0.302-1.129-0.376-1.366,0.265
						c-0.26,0.808,1.042,1.121,1.291,0.397"/>
				</g>
				<g>
					<path fill="#12958C" d="M310.908,223.641c0.285,0.449,0.934,0.604,1.173-0.035c0.259-0.808-1.07-0.874-0.915-0.021"/>
				</g>
				<g>
					<path fill="#12958C" d="M308.818,222.904c0.11,0.515,0.789,0.423,0.688-0.173c-0.008-0.669-1.102-0.625-1.01,0.057"/>
				</g>
				<g>
					<path fill="#12958C" d="M306.563,222.903c1.312-0.522-0.366-1.965-0.184-0.605"/>
				</g>
				<g>
					<path fill="#12958C" d="M304.747,224.203c0.493,1.561-1.971-0.305-0.103,0.156"/>
				</g>
				<g>
					<path fill="#12958C" d="M304.448,228.35c0.551,0.31,1.394,0.238,1.477-0.506c0.122-1.07-1.373-0.404-0.896,0.566"/>
				</g>
				<g>
					<path fill="#12958C" d="M308.162,229.518c0.293,0.365,1.109,0.541,1.256-0.028c0.238-0.642-1.246-0.808-1.018,0.138"/>
				</g>
				<g>
					<path fill="#12958C" d="M301.15,225.723c-0.715-0.33-0.386-1.046,0.321-0.633c0.064,0.175-0.101,0.157-0.192,0.227"/>
				</g>
				<g>
					<path fill="#12958C" d="M301.446,222.33c0.404,0.127,0.873-0.32,0.588-0.772c-0.357-0.539-0.778,0.251-0.577,0.689"/>
				</g>
				<g>
					<path fill="#12958C" d="M302.588,219.617c0.86-0.241,0.046-1.164-0.222-0.275"/>
				</g>
				<g>
					<path fill="#12958C" d="M301.022,214.93c0.257,0.696,1.246,0.056,0.79-0.329c-0.468-0.305-0.937,0.145-0.984,0.559"/>
				</g>
				<g>
					<path fill="#12958C" d="M300.293,211.002c0.138,0.27,0.275,0.534,0.485,0.141c0.497-0.696-0.972-1.028-0.824-0.093"/>
				</g>
				<g>
					<path fill="#12958C" d="M297.01,212.726c0.305,0.283,0.796,0.34,0.937-0.146c0.191-0.981-1.394-0.992-1.001-0.03"/>
				</g>
				<g>
					<path fill="#12958C" d="M294.618,212.458c-0.104,0.153-0.214,0.394-0.315,0.548c1.633,0.35-0.537-1.897-0.301-0.283"/>
				</g>
				<g>
					<path fill="#12958C" d="M290.857,212.452c-0.074,0.66,0.914,0.771,0.908,0.103c-0.072-0.844-1.439-0.58-1.039,0.301"/>
				</g>
				<g>
					<path fill="#12958C" d="M293.253,207.459c-0.073,0.659,0.46,0.384,0.479,0.219c-0.192-0.52-0.731-0.917-0.834-0.009"/>
				</g>
				<g>
					<path fill="#12958C" d="M295.473,208.541c0.073,0.093,0.809,0.258,0.522-0.191c-0.349-0.624-0.972-0.276-0.707,0.341"/>
				</g>
			</g>
			<g>
				<g>
					<path fill="#12958C" d="M329.827,214.03c0.445,0.047,0.792-0.026,0.843-0.475c0.211-0.875-2.351-1.165-1.238-0.026"/>
				</g>
				<g>
					<path fill="#12958C" d="M327.269,213.505c0.228,0.19,0.43,0.63,0.071,0.843c-0.642,0.513-1.137-1.047-0.136-1.018"/>
				</g>
				<g>
					<path fill="#12958C" d="M324.63,212.456c0.008-0.082,0.101-0.156,0.109-0.24c-0.47-0.303-1.13-0.373-1.366,0.268
						c-0.259,0.806,1.042,1.117,1.29,0.395"/>
				</g>
				<g>
					<path fill="#12958C" d="M326.527,210.411c0.283,0.449,0.935,0.608,1.174-0.035c0.258-0.806-1.072-0.87-0.915-0.018"/>
				</g>
				<g>
					<path fill="#12958C" d="M324.439,209.677c0.106,0.515,0.786,0.425,0.687-0.174c-0.007-0.668-1.101-0.623-1.007,0.055"/>
				</g>
				<g>
					<path fill="#12958C" d="M322.184,209.675c1.313-0.523-0.366-1.962-0.184-0.604"/>
				</g>
				<g>
					<path fill="#12958C" d="M320.365,210.975c0.495,1.559-1.972-0.305-0.099,0.155"/>
				</g>
				<g>
					<path fill="#12958C" d="M320.068,215.118c0.551,0.313,1.393,0.241,1.476-0.501c0.121-1.073-1.373-0.406-0.896,0.567"/>
				</g>
				<g>
					<path fill="#12958C" d="M323.78,216.286c0.294,0.367,1.11,0.544,1.256-0.025c0.24-0.639-1.245-0.807-1.019,0.137"/>
				</g>
				<g>
					<path fill="#12958C" d="M316.77,212.495c-0.713-0.333-0.385-1.047,0.324-0.636c0.063,0.174-0.101,0.158-0.194,0.231"/>
				</g>
				<g>
					<path fill="#12958C" d="M317.065,209.102c0.403,0.13,0.872-0.32,0.589-0.77c-0.357-0.542-0.778,0.247-0.579,0.687"/>
				</g>
				<g>
					<path fill="#12958C" d="M318.206,206.389c0.86-0.238,0.046-1.166-0.22-0.274"/>
				</g>
				<g>
					<path fill="#12958C" d="M316.641,201.702c0.259,0.696,1.248,0.056,0.791-0.33c-0.467-0.303-0.936,0.146-0.979,0.559"/>
				</g>
				<g>
					<path fill="#12958C" d="M315.912,197.778c0.139,0.264,0.278,0.531,0.487,0.135c0.495-0.695-0.974-1.026-0.825-0.092"/>
				</g>
				<g>
					<path fill="#12958C" d="M312.629,199.498c0.305,0.284,0.796,0.338,0.936-0.147c0.193-0.98-1.393-0.991-1-0.028"/>
				</g>
				<g>
					<path fill="#12958C" d="M310.237,199.229c-0.103,0.154-0.214,0.395-0.315,0.55c1.634,0.35-0.537-1.898-0.302-0.284"/>
				</g>
				<g>
					<path fill="#12958C" d="M306.477,199.225c-0.074,0.66,0.915,0.771,0.908,0.101c-0.074-0.841-1.438-0.577-1.036,0.302"/>
				</g>
				<g>
					<path fill="#12958C" d="M308.874,194.229c-0.074,0.66,0.457,0.387,0.477,0.221c-0.191-0.522-0.73-0.918-0.835-0.01"/>
				</g>
				<g>
					<path fill="#12958C" d="M311.093,195.314c0.073,0.092,0.808,0.258,0.523-0.192c-0.35-0.625-0.975-0.276-0.708,0.339"/>
				</g>
			</g>
		</g>
		<g>
			<path fill="#C1D677" d="M234.979,274.881c3.565-0.17,5.615-2.174,5.615-2.174c0.682,1.753,2.743,4.993,8.396,6.035
				c5.651,1.04,10.102-3.106,10.102-3.106c1.981,1.986,9.005,1.357,17.647-2.394c8.639-3.747,7.406-10.063,7.406-10.063
				c4.08,0.106,8.426-3.264,8.739-8.707c0.315-5.442-4.665-7.882-4.665-7.882c7.584-17.948-12.031-12.299-12.031-12.299
				c-6.547-2.312-22.778-20.249-20.924-23.794c1.857-3.546-7.281-5.256-8.777-9.117c-1.494-3.861-3.457-9.968-2.651-13.104
				c0.804-3.139-8.351-10.091-8.351-10.091l-13.771,6.14c0,0,1.202,5.189,2.561,8.699c1.358,3.512,10.027,22.764,10.027,22.764
				c4.318,8.018,2.506,20.025,3.457,22.484c0.952,2.457,0.389,15.595,0.389,15.595s-6.76-4.909-11.385,5.636
				C222.225,269.836,231.409,275.051,234.979,274.881z M266.323,248.03c2.532,0.561,3.905,3.114,3.905,3.114
				C266.229,250.768,263.793,247.468,266.323,248.03z M253.419,225.657c-1.871-5.83,6.175,3.004,9.021,5.373
				c2.847,2.366,12.31,9.884,12.31,9.884c1.914,1.956,2.208,5.697,2.208,5.697s-6.23-4.141-11.29-5.267
				C260.602,240.223,255.291,231.484,253.419,225.657z M247.723,239.813c0,0,2.975,2.703,2.692,3.971
				c-0.281,1.265-1.782,10.324-1.782,10.324l-3.331-0.635C245.302,253.473,247.495,242.213,247.723,239.813z"/>
			<path opacity="0.8" fill="#6C9F65" enable-background="new    " d="M288.412,234.189c4.521,5.744,1.179,7.418,0.09,11.547
				c-0.081,0.299-0.574,0.82-0.283,0.854c8.674,1.013,8.098,17.765-3.385,17.177c2.257,5.006-7.393,19.93-25.744,11.867
				c0,0-13.697,7.996-18.496-2.929c0,0-15.997,3.699-9.943-14.708c2.254-6.859,7.597-7.24,7.597-7.24s8.86-0.92,13.264,5.473
				c4.401,6.39,4.847,11.851,4.847,11.851s8.315,2.562,10.979,3.46c2.66,0.896,10.466-3.521,11.077-7.01
				c1.36-7.736-8.662-9.075-4.931-14.377c3.729-5.301,1.297-9.377,0.129-12.394C272.441,234.745,283.891,228.445,288.412,234.189z"
				/>
			<path fill="#006946" d="M285.564,229.33c4.521,5.744,1.179,7.417,0.09,11.545c-0.079,0.299-0.572,0.82-0.282,0.854
				c8.676,1.014,8.101,17.766-3.386,17.177c2.259,5.007-7.393,19.93-25.741,11.87c0,0-13.699,7.992-18.498-2.934
				c0,0-15.997,3.702-9.942-14.703c2.254-6.861,7.596-7.242,7.596-7.242s8.861-0.918,13.262,5.472
				c4.404,6.39,4.848,11.853,4.848,11.853s8.317,2.563,10.979,3.461c2.66,0.896,10.468-3.523,11.082-7.012
				c1.357-7.736-8.666-9.077-4.934-14.376c3.729-5.301,1.295-9.377,0.129-12.394C269.596,229.883,281.042,223.583,285.564,229.33z"
				/>
			<g>
				<g>
					<path fill="#A8CA52" d="M280.509,231.88c-0.18-0.462-0.43-0.763-0.892-0.583c-0.967,0.241,0.063,2.895,0.607,1.225"/>
				</g>
				<g>
					<path fill="#A8CA52" d="M281.305,234.65c0.071-0.32,0.398-0.744,0.787-0.502c0.829,0.367-0.443,1.646-0.927,0.653"/>
				</g>
				<g>
					<path fill="#A8CA52" d="M281.626,237.77c-0.086,0.032-0.203-0.021-0.289,0.014c-0.06,0.611,0.207,1.297,0.958,1.201
						c0.918-0.158,0.561-1.594-0.273-1.467"/>
				</g>
				<g>
					<path fill="#A8CA52" d="M278.657,236.953c0.295-0.508,0.114-1.225-0.634-1.131c-0.92,0.16-0.308,1.494,0.449,0.908"/>
				</g>
				<g>
					<path fill="#A8CA52" d="M279.006,239.374c0.446-0.369,0.012-0.985-0.521-0.585c-0.649,0.352-0.051,1.395,0.566,0.959"/>
				</g>
				<g>
					<path fill="#A8CA52" d="M280.154,241.581c-1.18-1.017-1.731,1.36-0.498,0.489"/>
				</g>
				<g>
					<path fill="#A8CA52" d="M282.355,242.695c1.271-1.278,0.707,2.082,0.203,0.019"/>
				</g>
				<g>
					<path fill="#A8CA52" d="M286.561,240.871c0.025-0.7-0.477-1.487-1.246-1.189c-1.109,0.432,0.308,1.555,1.016,0.59"/>
				</g>
				<g>
					<path fill="#A8CA52" d="M285.807,236.643c0.211-0.476-0.035-1.361-0.664-1.216c-0.752,0.093-0.156,1.63,0.651,0.925"/>
				</g>
				<g>
					<path fill="#A8CA52" d="M285.678,245.438c0.04,0.869-0.828,0.908-0.783,0.01c0.138-0.152,0.203,0.018,0.321,0.07"/>
				</g>
				<g>
					<path fill="#A8CA52" d="M282.206,246.88c-0.079-0.461-0.757-0.688-1.054-0.183c-0.346,0.623,0.64,0.635,0.968,0.215"/>
				</g>
				<g>
					<path fill="#A8CA52" d="M278.973,247.148c-0.675-0.723-1.164,0.549-0.158,0.355"/>
				</g>
				<g>
					<path fill="#A8CA52" d="M275.184,251.072c0.553-0.605-0.582-1.248-0.726-0.604c-0.06,0.612,0.621,0.841,1.049,0.675"/>
				</g>
				<g>
					<path fill="#A8CA52" d="M271.716,253.791c0.191-0.27,0.382-0.541-0.11-0.546c-0.937-0.13-0.51,1.474,0.33,0.854"/>
				</g>
				<g>
					<path fill="#A8CA52" d="M275.078,256.126c0.122-0.442-0.075-0.955-0.623-0.842c-1.057,0.313-0.257,1.868,0.482,0.991"/>
				</g>
				<g>
					<path fill="#A8CA52" d="M276.036,258.604c0.204,0.019,0.493,0.006,0.698,0.022c-0.491-1.772-1.584,1.499-0.125,0.442"/>
				</g>
				<g>
					<path fill="#A8CA52" d="M277.954,262.282c0.683-0.265,0.285-1.291-0.364-0.939c-0.789,0.501,0.169,1.701,0.821,0.859"/>
				</g>
				<g>
					<path fill="#A8CA52" d="M271.841,262.486c0.685-0.266,0.146-0.646-0.026-0.578c-0.414,0.453-0.522,1.185,0.416,0.82"/>
				</g>
				<g>
					<path fill="#A8CA52" d="M271.77,259.764c0.054-0.117-0.158-0.921-0.455-0.414c-0.433,0.659,0.227,1.092,0.693,0.52"/>
				</g>
				<g>
					<path fill="#A8CA52" d="M260.855,271.163c0.295-0.507,0.324-1.699-0.543-1.657c-0.836,0.127-0.629,1.426,0.154,1.415"/>
				</g>
				<g>
					<path fill="#A8CA52" d="M260.468,267.873c-0.134-0.341-0.2-0.514-0.659-0.432c-0.11,0.729,1.133,0.643,0.75-0.094"/>
				</g>
				<g>
					<path fill="#A8CA52" d="M258.709,269.932c-1.575-0.768-0.008,2.262,0.364,0.938"/>
				</g>
				<g>
					<path fill="#A8CA52" d="M259.896,273.5c-0.069-0.171-0.334-0.854-0.508-0.296c-0.197,0.767,0.719,1.098,1.219,0.61"/>
				</g>
				<g>
					<path fill="#A8CA52" d="M255.598,269.761c0.649-0.351-0.024-1.071-0.589-0.755c-0.598,0.23-0.159,0.85,0.351,0.65"/>
				</g>
				<g>
					<path fill="#A8CA52" d="M253.027,265.155c0.886-0.246,0.488-1.271-0.246-0.89c-0.854,0.332,0.629,1.625,0.627,0.348"/>
				</g>
				<g>
					<path fill="#A8CA52" d="M252.354,261.386c0.569-0.81,0.043-2.176-0.938-1.405c-0.809,0.709,0.749,1.678,1.014,0.593"/>
				</g>
				<g>
					<path fill="#A8CA52" d="M249.992,264.167c0.309-0.216,0.57-0.81-0.096-0.748c-0.867,0.041-0.386,1.034,0.299,0.769"/>
				</g>
				<g>
					<path fill="#A8CA52" d="M248.254,261.205c0.639-0.641,0.036-1.684-0.871-1.234c-0.787,0.504,0.018,1.564,0.786,1.268"/>
				</g>
				<g>
					<path fill="#A8CA52" d="M245.689,263.968c0.763,0.196,0.518-0.692-0.041-0.868c-0.916-0.332-0.813,1.199,0.141,1.125"/>
				</g>
				<g>
					<path fill="#A8CA52" d="M246.676,267.023c0.202,0.021,0.408,0.039,0.578-0.027c-0.128-2.11-2.086,1.203-0.154,0.355"/>
				</g>
				<g>
					<path fill="#A8CA52" d="M242.984,266.882c0.803-0.211,0.406-1.237-0.26-1.177c-0.867,0.04-0.574,1.304,0.229,1.091"/>
				</g>
				<g>
					<path fill="#A8CA52" d="M240.725,262.059c0.531-0.4,0.116-1.225-0.447-0.906c-0.789,0.502,0.082,1.736,0.889,1.031"/>
				</g>
				<g>
					<path fill="#A8CA52" d="M243.632,259.164c0.077-0.816-1.016-1.865-1.133-0.643c-0.097,1.02,1.673,1.021,1.414-0.154"/>
				</g>
				<g>
					<path fill="#A8CA52" d="M240.12,256.689c0.058-0.61-0.699-1.299-1.05-0.674c-0.396,0.744,0.755,1.184,1.103,0.557"/>
				</g>
				<g>
					<path fill="#A8CA52" d="M237.122,260.113c0.578-0.028,1.269-0.787,0.694-1.252c-0.758-0.689-1.459,1.054-0.229,0.677"/>
				</g>
				<g>
					<path fill="#A8CA52" d="M235.902,256.457c0.242-0.389-0.141-1.124-0.586-0.755c-0.672,0.557,0.676,1.999,0.875,0.741"/>
				</g>
				<g>
					<path fill="#A8CA52" d="M240.133,253.936c0.389,0.244,0.605-0.726,0.098-1.019c-1.047-0.677-1.227,1.654,0.008,0.782"/>
				</g>
				<g>
					<path fill="#A8CA52" d="M232.464,259.756c0.308-0.22-0.278-0.975-0.54-0.381c-0.433,0.658,0.415,0.82,0.777,0.484"/>
				</g>
				<g>
					<path fill="#A8CA52" d="M230.512,263.852c0.616-0.434-0.357-1.433-0.857-0.945c-1.049,1.095,1.816,2.146,0.91,0.826"/>
				</g>
				<g>
					<path fill="#A8CA52" d="M232.048,268.071c0.751-0.095,0.951-1.352,0.031-1.191c-1.041,0.106,0.221,1.585,0.555,0.67"/>
				</g>
				<g>
					<path fill="#A8CA52" d="M239.816,273.416c0.938-0.364,0.562-1.594-0.445-1.4c-1.124,0.14-0.68,1.541,0.398,1.024"/>
				</g>
				<g>
					<path fill="#A8CA52" d="M237.236,272.843c0.514-0.2,0.386-1.032-0.246-0.888c-0.717,0.18-0.372,1.322,0.396,1.023"/>
				</g>
				<g>
					<path fill="#A8CA52" d="M237.943,268.834c0.535,0.874,1.382-0.24,0.584-0.521c-1.033-0.386-1.672,2.023-0.082,1.311"/>
				</g>
			</g>
			<g>
				<g>
					<path fill="#12958C" d="M230.249,257.893c-0.493,0.043-0.853,0.197-0.81,0.69c-0.039,0.995,2.793,0.755,1.345-0.238"/>
				</g>
				<g>
					<path fill="#12958C" d="M233.132,257.909c-0.288-0.161-0.603-0.595-0.259-0.899c0.583-0.693,1.455,0.889,0.368,1.072"/>
				</g>
				<g>
					<path fill="#12958C" d="M236.216,258.475c0.009,0.09-0.075,0.189-0.069,0.279c0.572,0.227,1.305,0.164,1.422-0.581
						c0.105-0.928-1.37-0.987-1.482-0.147"/>
				</g>
				<g>
					<path fill="#12958C" d="M234.6,261.093c-0.402-0.426-1.144-0.454-1.264,0.292c-0.104,0.928,1.35,0.713,0.997-0.175"/>
				</g>
				<g>
					<path fill="#12958C" d="M237.02,261.439c-0.229-0.532-0.943-0.289-0.705,0.334c0.151,0.724,1.324,0.439,1.078-0.274"/>
				</g>
				<g>
					<path fill="#12958C" d="M239.461,260.954c-1.309,0.848,0.816,2.047,0.33,0.616"/>
				</g>
				<g>
					<path fill="#12958C" d="M241.146,259.155c-0.869-1.58,2.199-0.095,0.074-0.189"/>
				</g>
				<g>
					<path fill="#12958C" d="M240.577,254.607c-0.663-0.221-1.56,0.041-1.492,0.859c0.104,1.189,1.575,0.145,0.853-0.807"/>
				</g>
				<g>
					<path fill="#12958C" d="M236.307,254.143c-0.396-0.334-1.316-0.348-1.354,0.299c-0.121,0.746,1.521,0.606,1.07-0.364"/>
				</g>
				<g>
					<path fill="#12958C" d="M244.711,256.736c0.846,0.205,0.643,1.048-0.211,0.755c-0.105-0.175,0.075-0.191,0.159-0.289"/>
				</g>
				<g>
					<path fill="#12958C" d="M245.122,260.473c-0.464-0.054-0.873,0.534-0.47,0.961c0.502,0.508,0.789-0.437,0.478-0.869"/>
				</g>
				<g>
					<path fill="#12958C" d="M244.475,263.654c-0.883,0.441,0.198,1.271,0.297,0.25"/>
				</g>
				<g>
					<path fill="#12958C" d="M247.176,268.391c-0.427-0.699-1.361,0.207-0.783,0.525c0.571,0.229,0.981-0.361,0.941-0.814"/>
				</g>
				<g>
					<path fill="#12958C" d="M248.813,272.48c-0.205-0.26-0.412-0.518-0.556-0.045c-0.387,0.859,1.272,0.904,0.912-0.078"/>
				</g>
				<g>
					<path fill="#12958C" d="M251.997,269.911c-0.392-0.243-0.938-0.196-0.981,0.358c0.002,1.104,1.719,0.773,1.086-0.186"/>
				</g>
				<g>
					<path fill="#12958C" d="M254.643,269.684c0.076-0.188,0.145-0.472,0.221-0.66c-1.842-0.026,0.992,1.938,0.388,0.242"/>
				</g>
				<g>
					<path fill="#12958C" d="M258.712,268.879c-0.063-0.729-1.157-0.638-1.004,0.085c0.261,0.897,1.683,0.316,1.058-0.549"/>
				</g>
				<g>
					<path fill="#12958C" d="M257.193,274.801c-0.063-0.73-0.58-0.318-0.563-0.136c0.32,0.524,0.991,0.835,0.907-0.169"/>
				</g>
				<g>
					<path fill="#12958C" d="M254.561,274.105c-0.101-0.084-0.93-0.104-0.524,0.32c0.511,0.6,1.11,0.088,0.692-0.52"/>
				</g>
			</g>
			<g>
				<g>
					<path fill="#12958C" d="M265.717,270.034c0.292,0.51,1.309,1.129,1.706,0.356c0.31-0.787-0.918-1.254-1.303-0.572"/>
				</g>
				<g>
					<path fill="#12958C" d="M268.759,271.34c0.364,0.059,0.544,0.085,0.704-0.354c-0.578-0.461-1.121,0.66-0.293,0.697"/>
				</g>
				<g>
					<path fill="#12958C" d="M267.855,268.79c1.449-0.981-1.957-1.138-0.996-0.155"/>
				</g>
				<g>
					<path fill="#12958C" d="M264.174,268.033c0.18,0.027,0.904,0.141,0.508-0.293c-0.563-0.549-1.311,0.076-1.137,0.753"/>
				</g>
				<g>
					<path fill="#12958C" d="M269.559,266.182c-0.021,0.735,0.94,0.515,0.949-0.134c0.098-0.635-0.656-0.565-0.74-0.021"/>
				</g>
				<g>
					<path fill="#12958C" d="M274.833,266.255c-0.229,0.89,0.854,1.06,0.892,0.229c0.142-0.904-1.721-0.266-0.613,0.369"/>
				</g>
				<g>
					<path fill="#12958C" d="M278.434,267.554c0.416,0.9,1.866,1.124,1.688-0.108c-0.211-1.055-1.828-0.191-1.021,0.582"/>
				</g>
				<g>
					<path fill="#12958C" d="M277.203,264.12c0.033,0.374,0.417,0.896,0.697,0.291c0.396-0.772-0.702-0.853-0.814-0.126"/>
				</g>
				<g>
					<path fill="#12958C" d="M280.639,264.095c0.234,0.871,1.441,0.872,1.504-0.138c-0.039-0.934-1.363-0.77-1.49,0.046"/>
				</g>
				<g>
					<path fill="#12958C" d="M279.525,260.492c-0.549,0.563,0.341,0.794,0.772,0.396c0.747-0.627-0.632-1.302-1.043-0.439"/>
				</g>
				<g>
					<path fill="#12958C" d="M276.389,259.818c-0.121,0.168-0.238,0.334-0.269,0.517c1.896,0.94,0.003-2.409-0.229-0.313"/>
				</g>
				<g>
					<path fill="#12958C" d="M278.354,256.691c-0.217,0.803,0.871,0.97,1.149,0.365c0.397-0.772-0.842-1.15-1.06-0.351"/>
				</g>
				<g>
					<path fill="#12958C" d="M283.661,257.145c0.083,0.662,1.003,0.713,1.011,0.063c-0.042-0.935-1.547-0.794-1.337,0.257"/>
				</g>
				<g>
					<path fill="#12958C" d="M284.716,261.109c0.668,0.475,2.124,0.052,1.122-0.66c-0.836-0.594-1.722,0.938-0.572,1.303"/>
				</g>
				<g>
					<path fill="#12958C" d="M288.611,259.302c0.5,0.354,1.478,0.043,1.109-0.569c-0.445-0.717-1.402,0.062-1.031,0.677"/>
				</g>
				<g>
					<path fill="#12958C" d="M287.146,254.997c-0.265,0.517,0.047,1.489,0.736,1.226c0.977-0.313-0.188-1.789-0.473-0.537"/>
				</g>
				<g>
					<path fill="#12958C" d="M290.923,255.766c0.216,0.405,1.046,0.44,0.946-0.131c-0.146-0.855-2.068-0.412-1.08,0.389"/>
				</g>
				<g>
					<path fill="#12958C" d="M290.994,260.689c-0.405,0.218,0.326,0.886,0.834,0.595c1.107-0.57-0.82-1.89-0.682-0.384"/>
				</g>
				<g>
					<path fill="#12958C" d="M289.783,251.141c0.035,0.375,0.98,0.243,0.6-0.279c-0.354-0.702-0.92-0.049-0.808,0.434"/>
				</g>
				<g>
					<path fill="#12958C" d="M287.209,247.404c0.071,0.751,1.422,0.402,1.249-0.271c-0.424-1.458-2.767,0.498-1.171,0.373"/>
				</g>
				<g>
					<path fill="#12958C" d="M282.788,246.625c-0.294,0.695,0.696,1.498,1.017,0.62c0.426-0.953-1.482-0.601-0.856,0.146"/>
				</g>
				<g>
					<path fill="#12958C" d="M274.277,250.686c-0.153,0.994,1.101,1.281,1.436,0.313c0.439-1.045-0.996-1.36-1.086-0.168"/>
				</g>
				<g>
					<path fill="#12958C" d="M276.063,248.734c-0.084,0.543,0.703,0.852,0.893,0.231c0.204-0.711-0.959-0.983-1.085-0.168"/>
				</g>
				<g>
					<path fill="#12958C" d="M279.184,251.352c-1.024,0.025-0.484,1.315,0.159,0.767c0.851-0.703-0.919-2.46-1.094-0.726"/>
				</g>
			</g>
		</g>
		<g>
			<path fill="#C1D677" d="M179.164,180.495c-3.319-1.317-6.014-0.338-6.014-0.338c0.104-1.878-0.438-5.68-5.155-8.961
				c-4.719-3.28-10.484-1.34-10.484-1.34c-0.983-2.627-7.642-4.953-17.06-5.104s-10.9,6.109-10.9,6.109
				c-3.672-1.78-9.021-0.505-11.555,4.325c-2.534,4.827,0.997,9.104,0.997,9.104c-14.315,13.219,5.884,16.167,5.884,16.167
				c5.01,4.807,12.395,27.845,9.239,30.309c-3.156,2.465,4.465,7.793,4.233,11.928c-0.23,4.135-0.964,10.506-2.991,13.031
				s3.441,12.637,3.441,12.637l15.078,0.091c0,0,1.047-5.224,1.258-8.981c0.212-3.76,0.26-24.873,0.26-24.873
				c-0.624-9.084,5.983-19.273,6.13-21.906c0.147-2.631,6.082-14.365,6.082-14.365s4.132,7.262,12.697-0.436
				C188.698,190.354,182.485,181.813,179.164,180.495z M139.531,192.017c-2.075-1.556-2.271-4.448-2.271-4.448
				C140.748,189.563,141.604,193.573,139.531,192.017z M142.053,217.722c-0.701,6.083-4.385-5.285-6-8.617
				c-1.613-3.33-7.133-14.082-7.133-14.082c-0.936-2.571,0.342-6.102,0.342-6.102s3.965,6.343,8.111,9.456
				C141.521,201.49,142.753,211.64,142.053,217.722z M153.084,207.178c0,0-1.595-3.69-0.814-4.728
				c0.777-1.035,5.885-8.67,5.885-8.67l2.772,1.954C160.927,195.734,154.281,205.084,153.084,207.178z"/>
			<path opacity="0.8" fill="#6C9F65" enable-background="new    " d="M113.699,195.508c-1.748-7.098,1.987-7.242,4.684-10.553
				c0.196-0.239,0.861-0.512,0.61-0.663c-7.483-4.503-0.046-19.521,10.171-14.248c0.012-5.493,14.959-15.104,28.347-0.188
				c0,0,15.778-1.63,15.64,10.301c0,0,16.1,3.233,2.989,17.501c-4.886,5.318-9.907,3.459-9.907,3.459s-8.451-2.817-9.822-10.456
				c-1.373-7.637,0.475-12.795,0.475-12.795s-6.518-5.766-8.572-7.681c-2.053-1.916-10.986-1.112-12.982,1.812
				c-4.432,6.486,4.145,11.842-1.441,15.131c-5.584,3.288-5.051,8.006-5.232,11.236
				C128.476,201.595,115.448,202.607,113.699,195.508z"/>
			<path fill="#006946" d="M114.289,201.11c-1.751-7.099,1.984-7.244,4.68-10.554c0.197-0.238,0.861-0.513,0.611-0.662
				c-7.484-4.502-0.047-19.523,10.172-14.247c0.01-5.493,14.957-15.104,28.346-0.189c0,0,15.778-1.627,15.638,10.305
				c0,0,16.101,3.229,2.991,17.499c-4.887,5.318-9.908,3.46-9.908,3.46s-8.451-2.82-9.822-10.457
				c-1.375-7.638,0.477-12.796,0.477-12.796s-6.521-5.767-8.572-7.682c-2.053-1.915-10.988-1.111-12.985,1.813
				c-4.431,6.487,4.146,11.844-1.441,15.131c-5.583,3.29-5.05,8.006-5.231,11.236C129.062,207.196,116.035,208.21,114.289,201.11z"
				/>
			<g>
				<g>
					<path fill="#A8CA52" d="M119.946,200.873c-0.028,0.495,0.075,0.873,0.568,0.9c0.981,0.179,1.141-2.662-0.047-1.365"/>
				</g>
				<g>
					<path fill="#A8CA52" d="M120.364,198.021c-0.198,0.263-0.673,0.513-0.925,0.132c-0.604-0.677,1.084-1.316,1.113-0.213"/>
				</g>
				<g>
					<path fill="#A8CA52" d="M121.357,195.048c0.092,0.006,0.179,0.103,0.27,0.107c0.306-0.534,0.347-1.267-0.377-1.488
						c-0.902-0.234-1.168,1.219-0.355,1.447"/>
				</g>
				<g>
					<path fill="#A8CA52" d="M123.725,197.017c-0.478,0.34-0.609,1.068,0.111,1.291c0.904,0.233,0.896-1.234-0.035-1.012"/>
				</g>
				<g>
					<path fill="#A8CA52" d="M124.407,194.668c-0.56,0.152-0.418,0.894,0.233,0.749c0.736-0.052,0.621-1.251-0.121-1.108"/>
				</g>
				<g>
					<path fill="#A8CA52" d="M124.271,192.185c0.654,1.412,2.14-0.525,0.655-0.239"/>
				</g>
				<g>
					<path fill="#A8CA52" d="M122.725,190.26c-1.685,0.641,0.219-2.188-0.176-0.101"/>
				</g>
				<g>
					<path fill="#A8CA52" d="M118.143,190.187c-0.311,0.628-0.18,1.553,0.645,1.599c1.189,0.065,0.362-1.542-0.681-0.956"/>
				</g>
				<g>
					<path fill="#A8CA52" d="M117.085,194.352c-0.388,0.345-0.53,1.254,0.104,1.38c0.721,0.226,0.814-1.421-0.213-1.111"/>
				</g>
				<g>
					<path fill="#A8CA52" d="M120.832,186.393c0.321-0.809,1.129-0.487,0.718,0.315c-0.188,0.08-0.179-0.101-0.265-0.199"/>
				</g>
				<g>
					<path fill="#A8CA52" d="M124.588,186.511c-0.117,0.452,0.406,0.939,0.885,0.603c0.574-0.429-0.32-0.845-0.793-0.597"/>
				</g>
				<g>
					<path fill="#A8CA52" d="M127.646,187.601c0.315,0.934,1.286-0.021,0.29-0.26"/>
				</g>
				<g>
					<path fill="#A8CA52" d="M132.717,185.589c-0.754,0.325,0.014,1.379,0.411,0.85c0.306-0.531-0.22-1.021-0.677-1.047"/>
				</g>
				<g>
					<path fill="#A8CA52" d="M136.997,184.545c-0.286,0.168-0.571,0.334-0.123,0.542c0.798,0.506,1.071-1.131,0.05-0.913"/>
				</g>
				<g>
					<path fill="#A8CA52" d="M134.898,181.03c-0.295,0.353-0.326,0.901,0.219,1.021c1.092,0.153,1.006-1.595-0.03-1.103"/>
				</g>
				<g>
					<path fill="#A8CA52" d="M135.047,178.378c-0.178-0.101-0.448-0.208-0.626-0.31c-0.284,1.819,2.06-0.711,0.297-0.351"/>
				</g>
				<g>
					<path fill="#A8CA52" d="M134.818,174.234c-0.73-0.039-0.792,1.06-0.055,1.009c0.924-0.133,0.547-1.621-0.396-1.124"/>
				</g>
				<g>
					<path fill="#A8CA52" d="M140.471,176.572c-0.732-0.042-0.397,0.527-0.213,0.538c0.564-0.244,0.965-0.864-0.041-0.921"/>
				</g>
				<g>
					<path fill="#A8CA52" d="M139.412,179.083c-0.096,0.086-0.234,0.903,0.243,0.564c0.667-0.423,0.245-1.09-0.417-0.76"/>
				</g>
				<g>
					<path fill="#A8CA52" d="M154.058,173.202c-0.478,0.34-0.997,1.412-0.188,1.733c0.813,0.229,1.16-1.037,0.441-1.352"/>
				</g>
				<g>
					<path fill="#A8CA52" d="M153.053,176.359c-0.019,0.364-0.027,0.549,0.424,0.663c0.402-0.617-0.768-1.051-0.723-0.224"/>
				</g>
				<g>
					<path fill="#A8CA52" d="M155.504,175.21c1.119,1.349,0.941-2.058,0.057-1.006"/>
				</g>
				<g>
					<path fill="#A8CA52" d="M155.898,171.47c-0.01,0.184-0.051,0.915,0.338,0.479c0.496-0.615-0.201-1.295-0.856-1.06"/>
				</g>
				<g>
					<path fill="#A8CA52" d="M158.27,176.65c-0.736,0.05-0.42,0.986,0.225,0.93c0.639,0.035,0.496-0.707-0.051-0.737"/>
				</g>
				<g>
					<path fill="#A8CA52" d="M158.709,181.905c-0.908-0.142-0.97,0.956-0.143,0.91c0.914,0.051,0.098-1.737-0.428-0.574"/>
				</g>
				<g>
					<path fill="#A8CA52" d="M157.768,185.616c-0.854,0.502-0.936,1.966,0.272,1.667c1.028-0.311,0.012-1.835-0.679-0.958"/>
				</g>
				<g>
					<path fill="#A8CA52" d="M161.066,184.058c-0.37,0.069-0.854,0.501-0.223,0.721c0.807,0.32,0.777-0.782,0.045-0.823"/>
				</g>
				<g>
					<path fill="#A8CA52" d="M161.428,187.473c-0.846,0.319-0.729,1.519,0.283,1.483c0.925-0.132,0.63-1.433-0.193-1.479"/>
				</g>
				<g>
					<path fill="#A8CA52" d="M164.903,186.015c-0.614-0.493-0.757,0.417-0.321,0.808c0.696,0.682,1.236-0.756,0.336-1.082"/>
				</g>
				<g>
					<path fill="#A8CA52" d="M165.266,182.823c-0.176-0.102-0.354-0.203-0.538-0.213c-0.755,1.976,2.396-0.233,0.288-0.261"/>
				</g>
				<g>
					<path fill="#A8CA52" d="M168.569,184.477c-0.818-0.139-0.88,0.961-0.251,1.179c0.808,0.32,1.063-0.951,0.245-1.087"/>
				</g>
				<g>
					<path fill="#A8CA52" d="M168.638,189.803c-0.649,0.146-0.611,1.067,0.035,1.012c0.925-0.132,0.641-1.615-0.386-1.307"/>
				</g>
				<g>
					<path fill="#A8CA52" d="M164.795,191.24c-0.408,0.712,0.156,2.119,0.766,1.053c0.509-0.89-1.101-1.623-1.352-0.444"/>
				</g>
				<g>
					<path fill="#A8CA52" d="M166.973,194.941c-0.305,0.533,0.102,1.474,0.677,1.046c0.671-0.513-0.197-1.388-0.773-0.96"/>
				</g>
				<g>
					<path fill="#A8CA52" d="M171.116,193.062c-0.539-0.212-1.479,0.192-1.148,0.854c0.404,0.941,1.764-0.359,0.487-0.522"/>
				</g>
				<g>
					<path fill="#A8CA52" d="M170.719,196.895c-0.381,0.254-0.337,1.082,0.222,0.931c0.84-0.229,0.21-2.101-0.491-1.038"/>
				</g>
				<g>
					<path fill="#A8CA52" d="M165.824,197.446c-0.254-0.381-0.851,0.412-0.509,0.888c0.675,1.049,1.8-1,0.316-0.715"/>
				</g>
				<g>
					<path fill="#A8CA52" d="M175.211,195.31c-0.371,0.072-0.146,1.003,0.336,0.569c0.667-0.421-0.04-0.919-0.509-0.763"/>
				</g>
				<g>
					<path fill="#A8CA52" d="M178.68,192.384c-0.741,0.141-0.265,1.454,0.39,1.216c1.41-0.563-0.766-2.704-0.486-1.131"/>
				</g>
				<g>
					<path fill="#A8CA52" d="M179.022,187.906c-0.723-0.223-1.424,0.839-0.52,1.072c0.991,0.332,0.452-1.534-0.229-0.839"/>
				</g>
				<g>
					<path fill="#A8CA52" d="M174.15,179.834c-1.005-0.058-1.168,1.219-0.173,1.457c1.083,0.338,1.256-1.121,0.061-1.098"/>
				</g>
				<g>
					<path fill="#A8CA52" d="M176.265,181.42c-0.55-0.03-0.777,0.782-0.142,0.909c0.727,0.132,0.885-1.052,0.062-1.097"/>
				</g>
				<g>
					<path fill="#A8CA52" d="M173.966,184.779c-0.125-1.018-1.356-0.353-0.746,0.234c0.782,0.776,2.358-1.154,0.614-1.159"/>
				</g>
			</g>
			<g>
				<g>
					<path fill="#12958C" d="M176.46,197.92c0.467,0.165,0.857,0.173,1.021-0.295c0.448-0.89-2.232-1.84-1.323-0.337"/>
				</g>
				<g>
					<path fill="#12958C" d="M173.841,196.716c0.197,0.266,0.304,0.788-0.135,0.927c-0.817,0.391-0.959-1.41,0.107-1.129"/>
				</g>
				<g>
					<path fill="#12958C" d="M171.264,194.93c0.032-0.087,0.148-0.144,0.182-0.229c-0.43-0.441-1.12-0.687-1.537-0.057
						c-0.479,0.801,0.842,1.466,1.291,0.747"/>
				</g>
				<g>
					<path fill="#12958C" d="M173.817,193.208c0.192,0.556,0.854,0.888,1.272,0.258c0.478-0.802-0.935-1.206-0.981-0.252"/>
				</g>
				<g>
					<path fill="#12958C" d="M171.757,191.896c-0.012,0.579,0.74,0.653,0.781-0.014c0.159-0.722-1.025-0.947-1.096-0.193"/>
				</g>
				<g>
					<path fill="#12958C" d="M169.333,191.33c1.54-0.232,0.1-2.201-0.045-0.697"/>
				</g>
				<g>
					<path fill="#12958C" d="M167.056,192.272c0.14,1.799-2.043-0.82-0.147,0.142"/>
				</g>
				<g>
					<path fill="#12958C" d="M165.696,196.651c0.515,0.474,1.438,0.605,1.716-0.168c0.396-1.125-1.378-0.782-1.108,0.384"/>
				</g>
				<g>
					<path fill="#12958C" d="M169.395,198.837c0.223,0.467,1.057,0.859,1.357,0.286c0.418-0.629-1.137-1.181-1.126-0.109"/>
				</g>
				<g>
					<path fill="#12958C" d="M162.809,193.005c-0.684-0.536-0.152-1.22,0.505-0.6c0.025,0.202-0.147,0.143-0.265,0.197"/>
				</g>
				<g>
					<path fill="#12958C" d="M163.979,189.434c0.4,0.239,1.014-0.127,0.823-0.683c-0.248-0.669-0.899,0.073-0.794,0.596"/>
				</g>
				<g>
					<path fill="#12958C" d="M165.882,186.804c0.985-0.041,0.342-1.242-0.169-0.353"/>
				</g>
				<g>
					<path fill="#12958C" d="M165.375,181.372c0.099,0.814,1.325,0.374,0.93-0.154c-0.427-0.445-1.043-0.076-1.194,0.354"/>
				</g>
				<g>
					<path fill="#12958C" d="M165.572,176.972c0.079,0.321,0.162,0.643,0.486,0.271c0.707-0.624-0.785-1.349-0.863-0.306"/>
				</g>
				<g>
					<path fill="#12958C" d="M161.611,177.999c0.254,0.383,0.771,0.565,1.041,0.076c0.454-1.004-1.246-1.413-1.066-0.28"/>
				</g>
				<g>
					<path fill="#12958C" d="M159.107,177.113c-0.147,0.142-0.326,0.37-0.475,0.512c1.668,0.785-0.104-2.176-0.252-0.381"/>
				</g>
				<g>
					<path fill="#12958C" d="M155.068,176.169c-0.244,0.689,0.791,1.057,0.949,0.335c0.133-0.924-1.402-0.981-1.189,0.064"/>
				</g>
				<g>
					<path fill="#12958C" d="M158.895,171.398c-0.245,0.692,0.396,0.531,0.457,0.358c-0.074-0.61-0.559-1.172-0.896-0.222"/>
				</g>
				<g>
					<path fill="#12958C" d="M161.008,173.119c0.055,0.117,0.803,0.479,0.609-0.075c-0.217-0.757-0.976-0.539-0.844,0.188"/>
				</g>
			</g>
			<g>
				<g>
					<path fill="#12958C" d="M149.164,172.226c-0.055-0.586-0.725-1.57-1.407-1.031c-0.604,0.589,0.319,1.522,0.95,1.06"/>
				</g>
				<g>
					<path fill="#12958C" d="M146.932,169.779c-0.307-0.202-0.461-0.302-0.787,0.031c0.337,0.66,1.294-0.139,0.555-0.511"/>
				</g>
				<g>
					<path fill="#12958C" d="M146.7,172.475c-1.724,0.296,1.314,1.844,0.845,0.553"/>
				</g>
				<g>
					<path fill="#12958C" d="M149.744,174.684c-0.153-0.1-0.768-0.502-0.584,0.057c0.287,0.734,1.226,0.473,1.346-0.216"/>
				</g>
				<g>
					<path fill="#12958C" d="M144.074,174.149c0.324-0.662-0.645-0.857-0.919-0.272c-0.351,0.539,0.364,0.785,0.665,0.326"/>
				</g>
				<g>
					<path fill="#12958C" d="M139.301,171.906c0.577-0.717-0.342-1.319-0.717-0.58c-0.502,0.768,1.457,0.952,0.711-0.083"/>
				</g>
				<g>
					<path fill="#12958C" d="M136.559,169.235c-0.01-0.991-1.238-1.794-1.582-0.597c-0.244,1.047,1.585,0.929,1.17-0.11"/>
				</g>
				<g>
					<path fill="#12958C" d="M136.261,172.872c0.124-0.355-0.01-0.989-0.515-0.554c-0.681,0.539,0.288,1.064,0.69,0.451"/>
				</g>
				<g>
					<path fill="#12958C" d="M133.122,171.477c0.144-0.89-0.954-1.391-1.429-0.496c-0.348,0.869,0.926,1.263,1.377,0.573"/>
				</g>
				<g>
					<path fill="#12958C" d="M132.647,175.216c0.733-0.284,0.018-0.863-0.54-0.679c-0.938,0.262,0.038,1.446,0.769,0.83"/>
				</g>
				<g>
					<path fill="#12958C" d="M135.229,177.126c0.179-0.104,0.354-0.205,0.457-0.359c-1.338-1.642-0.997,2.194,0.078,0.379"/>
				</g>
				<g>
					<path fill="#12958C" d="M132.147,179.162c0.528-0.641-0.393-1.241-0.896-0.806c-0.682,0.539,0.291,1.395,0.819,0.754"/>
				</g>
				<g>
					<path fill="#12958C" d="M127.499,176.56c0.199-0.637-0.619-1.063-0.894-0.475c-0.348,0.866,1.081,1.362,1.324,0.318"/>
				</g>
				<g>
					<path fill="#12958C" d="M128.176,172.513c-0.414-0.708-1.914-0.925-1.295,0.139c0.516,0.885,1.955-0.144,1.059-0.95"/>
				</g>
				<g>
					<path fill="#12958C" d="M123.88,172.552c-0.309-0.53-1.326-0.649-1.245,0.063c0.111,0.836,1.302,0.521,1.22-0.191"/>
				</g>
				<g>
					<path fill="#12958C" d="M123.438,177.079c0.454-0.361,0.573-1.379-0.164-1.422c-1.019-0.118-0.57,1.707,0.208,0.685"/>
				</g>
				<g>
					<path fill="#12958C" d="M120.316,174.818c-0.029-0.456-0.771-0.831-0.916-0.271c-0.223,0.841,1.713,1.229,1.145,0.091"/>
				</g>
				<g>
					<path fill="#12958C" d="M122.283,170.304c0.459-0.029,0.068-0.941-0.514-0.886c-1.246,0.063-0.033,2.06,0.461,0.632"/>
				</g>
				<g>
					<path fill="#12958C" d="M119.445,179.503c0.123-0.356-0.794-0.627-0.662,0.006c0.032,0.787,0.817,0.425,0.916-0.06"/>
				</g>
				<g>
					<path fill="#12958C" d="M120.248,183.968c0.246-0.713-1.129-0.953-1.249-0.269c-0.216,1.503,2.725,0.688,1.22,0.145"/>
				</g>
				<g>
					<path fill="#12958C" d="M123.953,186.503c0.556-0.515-0.016-1.653-0.668-0.985c-0.781,0.692,1.102,1.159,0.84,0.222"/>
				</g>
				<g>
					<path fill="#12958C" d="M133.381,186.317c0.551-0.844-0.473-1.622-1.178-0.88c-0.832,0.771,0.346,1.648,0.92,0.601"/>
				</g>
				<g>
					<path fill="#12958C" d="M130.95,187.354c0.301-0.458-0.288-1.063-0.716-0.577c-0.479,0.563,0.469,1.292,0.918,0.6"/>
				</g>
				<g>
					<path fill="#12958C" d="M129.188,183.687c0.944,0.398,0.983-1,0.171-0.766c-1.063,0.291-0.179,2.621,0.697,1.113"/>
				</g>
			</g>
		</g>
		<g>
			<g>
				<g>
					<path fill="#C1D677" d="M215.276,214.364c-5.848-2.291-17.55-4.854-17.84,5.039c-6.488-1.998-10.497,2.463-13.078,7.669
						c-9.922-4.771-18.235,16.063-7.909,18.324c-3.593-0.066-6.666,4.744-7.223,7.94c-0.404,2.509,1.162,4.583,1.152,6.601
						c-0.008,2.021-1.442,3.293-0.715,5.905c1.604,4.534,6.46,8.052,11.394,5.957c2.762-1.414,4.053-4.018,6.325-5.827
						c3.423,4.787,10.988,8.465,13.823,1.438c5.65,2.536,9.687,2.555,15.836,3.468c4.771,0.612,10.215,5.411,13.1,9.361
						c-2.818,2.989,2.746,2.62,4.904,3.959c2.16,1.339,2.98,4.838,6.188,3.375l-0.197,0.245c3.292,1.441,2.818-2.99,3.714-5.103
						c1.49-2.849,4.646-4.753,5.45-7.754c0.998-3.243-1.161-4.582-4.01-6.071c-2.85-1.488-4.121-2.922-6.527-4.459
						c0.048,0.442,0.292,0.642,0.096,0.885c-2.395-3.553-7.109-5.739-10.102-8.559c-3.528-3.658-4.689-8.242-8.81-11.165
						c11.523-1.228,2.666-12.835-1.305-16.444c3.159-1.905,7.751-5.086,5.262-9.524C223.142,216.664,217.88,215.655,215.276,214.364
						z M213.022,264.708l-7.591-3.09l1.425-2.205L213.022,264.708z"/>
				</g>
			</g>
			<path opacity="0.8" fill="#6C9F65" enable-background="new    " d="M175.397,242.65c0,0-5.028,0.313-4.092-5.484
				s5.39-11.89,8.293-11.044c1.021-9.196,7.288-11.033,10.846-8.057c1.452-4.797,8.855-6.271,8.878-3.018
				c3.36,6.014-4.299,7.239-0.584,12.855c3.719,5.615-0.784,7.682-1.784,8.197c-0.999,0.514,1.162,12.815-2.83,15.631
				c-3.989,2.816-10.792,2.145-10.792,2.145s4.24,7.37,0.132,10.816c-4.107,3.445-18.586,2.49-16.833-8.476
				C168.384,245.251,171.623,242.695,175.397,242.65z"/>
			<path fill="#049472" d="M180.832,248.303c0,0-4.976,0.784-4.589-5.078c0.387-5.857,4.251-12.341,7.221-11.772
				c0.152-9.25,6.219-11.667,10.042-9.039c0.994-4.912,8.228-7.075,8.555-3.838c3.91,5.671-3.599,7.608,0.628,12.852
				c4.226,5.242-0.063,7.724-1.009,8.331c-0.948,0.606,2.358,12.65-1.351,15.829c-3.708,3.177-10.544,3.146-10.544,3.146
				s4.915,6.94,1.146,10.757c-3.767,3.817-18.27,4.225-17.554-6.856C174.095,251.55,177.079,248.7,180.832,248.303z"/>
			<path fill="#006946" d="M183.791,265.969c0,0,4.304,9.215,11.499,4.84c7.193-4.373,4.849-8.119,4.538-9.109
				c0,0,4.625,2.068,7.028-2.285c2.404-4.354,1.241-5.664,1.241-5.664s9.624,5.732,9.652-5.536c0,0,2.784,1.138,4.43,0.247
				c1.647-0.895,7.266-4.872,5.244-10.395c-2.024-5.521-6.686-8.916-8.216-8.854c-1.531,0.062,4.367-1.971,4.846-5.315
				c0.479-3.345-2.664-9.77-7.39-8.958c0,0-3.199-5.672-7.964-3.438c0,0-8.75-4.315-11.171,2.247
				c-2.42,6.561-7.54,4.648-5.182,10.439c2.358,5.793,4.872,7.266,8.224,7.01c3.353-0.254-0.272-0.348-3.641,6.347
				c-3.369,6.694-5.191,12.997-3.854,14.819c1.34,1.82-0.271,0.336-0.271,0.336s0.377,1.785-3.167,3.922
				C186.097,258.758,180.686,260.869,183.791,265.969z"/>
			<g>
				<g>
					<path fill="#006946" d="M191.061,218.52c-0.458-0.267-1.539-0.296-1.501,0.492c0.113,0.757,1.289,0.571,1.28-0.14"/>
				</g>
				<g>
					<path fill="#006946" d="M188.08,218.871c-0.311,0.118-0.465,0.179-0.392,0.595c0.662,0.101,0.584-1.024-0.086-0.679"/>
				</g>
				<g>
					<path fill="#006946" d="M189.942,220.466c-0.694,1.424,2.051,0.009,0.854-0.329"/>
				</g>
				<g>
					<path fill="#006946" d="M193.179,219.395c-0.155,0.06-0.775,0.3-0.269,0.46c0.692,0.178,0.995-0.652,0.554-1.104"/>
				</g>
				<g>
					<path fill="#006946" d="M189.785,223.284c-0.316-0.589-0.972,0.021-0.686,0.532c0.209,0.544,0.77,0.147,0.59-0.315"/>
				</g>
				<g>
					<path fill="#006946" d="M185.607,225.609c-0.22-0.804-1.148-0.445-0.803,0.221c0.298,0.775,1.472-0.566,0.313-0.565"/>
				</g>
				<g>
					<path fill="#006946" d="M182.193,226.216c-0.733-0.519-1.974-0.039-1.275,0.849c0.641,0.73,1.521-0.674,0.537-0.92"/>
				</g>
				<g>
					<path fill="#006946" d="M184.714,228.357c-0.198-0.278-0.734-0.518-0.683,0.084c0.038,0.789,0.938,0.352,0.698-0.269"/>
				</g>
				<g>
					<path fill="#006946" d="M182.026,229.93c-0.581-0.578-1.525-0.035-1.121,0.788c0.454,0.718,1.419-0.014,1.15-0.711"/>
				</g>
				<g>
					<path fill="#006946" d="M184.526,232.258c0.178-0.691-0.626-0.471-0.787,0.038c-0.303,0.828,1.087,0.737,1.019-0.128"/>
				</g>
				<g>
					<path fill="#006946" d="M187.297,231.366c0.018-0.187,0.035-0.367-0.024-0.523c-1.914,0.116,1.088,1.894,0.323,0.142"/>
				</g>
				<g>
					<path fill="#006946" d="M187.163,234.711c-0.19-0.727-1.12-0.369-1.064,0.232c0.035,0.787,1.181,0.523,0.987-0.202"/>
				</g>
				<g>
					<path fill="#006946" d="M182.791,236.755c-0.365-0.481-1.109-0.106-0.822,0.406c0.454,0.715,1.575-0.074,0.935-0.806"/>
				</g>
				<g>
					<path fill="#006946" d="M180.17,234.117c-0.738-0.071-1.692,0.92-0.583,1.025c0.926,0.088,0.928-1.516-0.138-1.281"/>
				</g>
				<g>
					<path fill="#006946" d="M177.928,237.296c-0.554-0.051-1.181,0.634-0.613,0.95c0.673,0.361,1.071-0.682,0.505-0.996"/>
				</g>
				<g>
					<path fill="#006946" d="M181.023,240.018c-0.023-0.522-0.71-1.148-1.132-0.629c-0.627,0.686,0.953,1.321,0.612,0.206"/>
				</g>
				<g>
					<path fill="#006946" d="M177.711,241.119c-0.353-0.221-1.02,0.126-0.685,0.531c0.501,0.606,1.812-0.611,0.672-0.795"/>
				</g>
				<g>
					<path fill="#006946" d="M175.429,237.284c0.221-0.354-0.656-0.55-0.923-0.089c-0.613,0.947,1.496,1.111,0.709-0.01"/>
				</g>
				<g>
					<path fill="#006946" d="M180.695,244.238c-0.198-0.278-0.882,0.252-0.345,0.49c0.596,0.395,0.745-0.377,0.44-0.705"/>
				</g>
				<g>
					<path fill="#006946" d="M184.405,246.011c-0.393-0.559-1.298,0.324-0.857,0.777c0.992,0.953,1.948-1.644,0.751-0.824"/>
				</g>
				<g>
					<path fill="#006946" d="M188.232,244.624c-0.085-0.679-1.226-0.862-1.08-0.029c0.096,0.943,1.436-0.198,0.606-0.501"/>
				</g>
				<g>
					<path fill="#006946" d="M193.081,237.589c-0.33-0.853-1.443-0.511-1.269,0.401c0.124,1.019,1.396,0.617,0.929-0.359"/>
				</g>
				<g>
					<path fill="#006946" d="M192.56,239.926c-0.181-0.464-0.938-0.351-0.805,0.223c0.163,0.649,1.199,0.338,0.928-0.358"/>
				</g>
				<g>
					<path fill="#006946" d="M188.93,239.282c0.791-0.485-0.218-1.253-0.474-0.53c-0.351,0.936,1.833,1.518,1.187,0.075"/>
				</g>
			</g>
			<g>
				<g>
					<path fill="#A8CA52" d="M207.778,215.889c-0.32-0.313-0.64-0.47-0.951-0.148c-0.709,0.563,1.133,2.363,0.959,0.782"/>
				</g>
				<g>
					<path fill="#A8CA52" d="M209.474,217.874c-0.061-0.291,0.051-0.763,0.463-0.708c0.822-0.01,0.251,1.523-0.52,0.887"/>
				</g>
				<g>
					<path fill="#A8CA52" d="M210.909,220.326c-0.058,0.059-0.174,0.061-0.232,0.12c0.183,0.527,0.658,0.99,1.242,0.632
						c0.696-0.478-0.136-1.525-0.779-1.106"/>
				</g>
				<g>
					<path fill="#A8CA52" d="M208.155,220.767c0.054-0.528-0.363-1.051-0.947-0.693c-0.699,0.477,0.31,1.348,0.712,0.579"/>
				</g>
				<g>
					<path fill="#A8CA52" d="M209.35,222.634c0.231-0.475-0.361-0.818-0.648-0.288c-0.405,0.534,0.483,1.169,0.829,0.579"/>
				</g>
				<g>
					<path fill="#A8CA52" d="M211.127,224.022c-1.354-0.396-0.919,1.771-0.229,0.591"/>
				</g>
				<g>
					<path fill="#A8CA52" d="M213.36,224.115c0.569-1.533,1.366,1.451,0.174-0.063"/>
				</g>
				<g>
					<path fill="#A8CA52" d="M216.145,221.03c-0.244-0.584-0.951-1.047-1.475-0.513c-0.755,0.773,0.837,1.167,1.058,0.106"/>
				</g>
				<g>
					<path fill="#A8CA52" d="M213.936,217.826c-0.004-0.469-0.54-1.109-1.005-0.754c-0.586,0.359,0.484,1.404,0.886,0.521"/>
				</g>
				<g>
					<path fill="#A8CA52" d="M217.129,225.13c0.359,0.7-0.34,1.062-0.643,0.302c0.057-0.177,0.176-0.062,0.292-0.062"/>
				</g>
				<g>
					<path fill="#A8CA52" d="M214.808,227.62c-0.238-0.349-0.883-0.282-0.938,0.246c-0.05,0.647,0.767,0.284,0.88-0.185"/>
				</g>
				<g>
					<path fill="#A8CA52" d="M212.238,229.061c-0.824-0.344-0.751,0.891,0.006,0.353"/>
				</g>
				<g>
					<path fill="#A8CA52" d="M210.589,233.719c0.226-0.709-0.949-0.813-0.825-0.229c0.182,0.527,0.826,0.462,1.12,0.162"/>
				</g>
				<g>
					<path fill="#A8CA52" d="M208.749,237.261c0.058-0.296,0.11-0.59-0.297-0.407c-0.821,0.244,0.133,1.406,0.593,0.578"/>
				</g>
				<g>
					<path fill="#A8CA52" d="M212.396,237.925c-0.063-0.411-0.421-0.76-0.826-0.461c-0.757,0.656,0.488,1.638,0.77,0.638"/>
				</g>
				<g>
					<path fill="#A8CA52" d="M214.118,239.605c0.176-0.058,0.41-0.18,0.584-0.238c-1.072-1.28-0.742,1.828,0.064,0.408"/>
				</g>
				<g>
					<path fill="#A8CA52" d="M217.081,241.924c0.461-0.474-0.249-1.172-0.654-0.639c-0.461,0.71,0.778,1.342,1.002,0.4"/>
				</g>
				<g>
					<path fill="#A8CA52" d="M212.116,244.386c0.464-0.474-0.125-0.586-0.241-0.467c-0.169,0.531,0.015,1.175,0.653,0.521"/>
				</g>
				<g>
					<path fill="#A8CA52" d="M211.034,242.167c-0.002-0.117-0.477-0.699-0.531-0.17c-0.108,0.704,0.597,0.815,0.767,0.167"/>
				</g>
				<g>
					<path fill="#A8CA52" d="M206.312,255.665c0.051-0.528-0.37-1.522-1.071-1.162c-0.642,0.417,0.016,1.41,0.658,1.108"/>
				</g>
				<g>
					<path fill="#A8CA52" d="M204.756,253.098c-0.238-0.229-0.356-0.347-0.708-0.107c0.185,0.645,1.176,0.104,0.586-0.359"/>
				</g>
				<g>
					<path fill="#A8CA52" d="M204.077,255.456c-1.587-0.042,0.843,1.868,0.651,0.638"/>
				</g>
				<g>
					<path fill="#A8CA52" d="M206.394,257.954c-0.119-0.116-0.594-0.579-0.529-0.054c0.126,0.703,1.006,0.636,1.233,0.047"/>
				</g>
				<g>
					<path fill="#A8CA52" d="M201.446,256.482c0.403-0.532-0.421-0.875-0.769-0.402c-0.407,0.415,0.186,0.76,0.532,0.404"/>
				</g>
				<g>
					<path fill="#A8CA52" d="M197.598,253.646c0.64-0.535-0.072-1.23-0.535-0.64c-0.58,0.595,1.128,1.104,0.645,0.052"/>
				</g>
				<g>
					<path fill="#A8CA52" d="M195.628,250.792c0.165-0.882-0.784-1.812-1.3-0.808c-0.401,0.886,1.245,1.104,1.058,0.105"/>
				</g>
				<g>
					<path fill="#A8CA52" d="M194.725,253.973c0.172-0.295,0.166-0.88-0.361-0.58c-0.7,0.357,0.072,0.996,0.536,0.521"/>
				</g>
				<g>
					<path fill="#A8CA52" d="M192.18,252.184c0.285-0.77-0.603-1.404-1.182-0.694c-0.463,0.711,0.601,1.286,1.123,0.752"/>
				</g>
				<g>
					<path fill="#A8CA52" d="M191.1,255.423c0.702-0.125,0.169-0.766-0.359-0.7c-0.881,0.068-0.222,1.293,0.536,0.875"/>
				</g>
				<g>
					<path fill="#A8CA52" d="M193.06,257.573c0.177-0.062,0.351-0.122,0.47-0.24c-0.901-1.692-1.274,1.774,0.001,0.353"/>
				</g>
				<g>
					<path fill="#A8CA52" d="M189.963,258.839c0.582-0.475-0.13-1.172-0.655-0.871c-0.701,0.359,0.014,1.291,0.596,0.816"/>
				</g>
				<g>
					<path fill="#A8CA52" d="M186.287,255.71c0.288-0.53-0.363-1.053-0.71-0.578c-0.461,0.708,0.719,1.4,1.122,0.517"/>
				</g>
				<g>
					<path fill="#A8CA52" d="M187.601,252.232c-0.244-0.702-1.541-1.157-1.177-0.105c0.303,0.878,1.767,0.217,1.109-0.658"/>
				</g>
				<g>
					<path fill="#A8CA52" d="M183.773,251.51c-0.181-0.525-1.062-0.809-1.116-0.162c-0.05,0.764,1.064,0.692,1.117,0.045"/>
				</g>
				<g>
					<path fill="#A8CA52" d="M182.586,255.457c0.468-0.239,0.75-1.124,0.104-1.292c-0.885-0.284-0.808,1.418,0.066,0.646"/>
				</g>
				<g>
					<path fill="#A8CA52" d="M180.209,252.898c0.055-0.409-0.537-0.873-0.768-0.402c-0.346,0.71,1.308,1.396,1,0.285"/>
				</g>
				<g>
					<path fill="#A8CA52" d="M182.752,249.232c0.412,0.054,0.227-0.826-0.304-0.879c-1.116-0.164-0.391,1.826,0.301,0.644"/>
				</g>
				<g>
					<path fill="#A8CA52" d="M178.609,256.911c0.172-0.296-0.596-0.697-0.587-0.112c-0.111,0.708,0.65,0.521,0.822,0.109"/>
				</g>
				<g>
					<path fill="#A8CA52" d="M178.536,261.021c0.348-0.592-0.832-1.049-1.06-0.457c-0.457,1.297,2.3,1.088,1.059,0.341"/>
				</g>
				<g>
					<path fill="#A8CA52" d="M181.388,263.928c0.584-0.361,0.277-1.473-0.423-0.994c-0.816,0.479,0.777,1.227,0.71,0.346"/>
				</g>
				<g>
					<path fill="#A8CA52" d="M189.8,265.42c0.639-0.652-0.134-1.525-0.892-0.99c-0.875,0.538,0.019,1.526,0.713,0.697"/>
				</g>
				<g>
					<path fill="#A8CA52" d="M187.457,265.914c0.349-0.355-0.069-0.996-0.534-0.641c-0.525,0.418,0.189,1.231,0.711,0.699"/>
				</g>
				<g>
					<path fill="#A8CA52" d="M186.536,262.343c0.771,0.521,1.049-0.715,0.286-0.647c-0.996,0.068-0.62,2.295,0.425,1.109"/>
				</g>
			</g>
			<g>
				<g>
					<path fill="#12958C" d="M216.746,244.504c0.368-0.258,0.581-0.54,0.325-0.908c-0.42-0.8-2.534,0.67-0.947,0.795"/>
				</g>
				<g>
					<path fill="#12958C" d="M214.477,245.795c0.297-0.005,0.739,0.191,0.609,0.587c-0.146,0.81-1.546-0.038-0.772-0.676"/>
				</g>
				<g>
					<path fill="#12958C" d="M211.799,246.744c-0.048-0.067-0.026-0.184-0.074-0.253c-0.551,0.079-1.096,0.46-0.854,1.1
						c0.338,0.777,1.523,0.156,1.233-0.552"/>
				</g>
				<g>
					<path fill="#12958C" d="M211.885,243.957c0.509,0.15,1.1-0.16,0.857-0.801c-0.335-0.777-1.38,0.049-0.701,0.589"/>
				</g>
				<g>
					<path fill="#12958C" d="M209.827,244.777c0.419,0.314,0.872-0.198,0.403-0.582c-0.447-0.498-1.239,0.255-0.724,0.705"/>
				</g>
				<g>
					<path fill="#12958C" d="M208.128,246.262c0.644-1.256-1.569-1.236-0.537-0.334"/>
				</g>
				<g>
					<path fill="#12958C" d="M207.616,248.438c1.398,0.85-1.685,1.067,0.025,0.185"/>
				</g>
				<g>
					<path fill="#12958C" d="M210.119,251.751c0.622-0.128,1.208-0.735,0.78-1.349c-0.613-0.889-1.3,0.6-0.301,1.018"/>
				</g>
				<g>
					<path fill="#12958C" d="M213.685,250.188c0.462,0.084,1.192-0.323,0.929-0.848c-0.243-0.64-1.471,0.213-0.678,0.771"/>
				</g>
				<g>
					<path fill="#12958C" d="M205.909,251.947c-0.755,0.223-0.978-0.533-0.174-0.688c0.164,0.088,0.027,0.184,0.005,0.299"/>
				</g>
				<g>
					<path fill="#12958C" d="M203.899,249.199c0.388-0.169,0.445-0.815-0.066-0.967c-0.623-0.172-0.421,0.699,0.02,0.896"/>
				</g>
				<g>
					<path fill="#12958C" d="M202.971,246.407c0.492-0.747-0.73-0.908-0.347-0.063"/>
				</g>
				<g>
					<path fill="#12958C" d="M198.708,243.908c0.65,0.355,0.975-0.778,0.377-0.768c-0.552,0.077-0.607,0.726-0.371,1.066"/>
				</g>
				<g>
					<path fill="#12958C" d="M195.572,241.434c0.281,0.112,0.56,0.221,0.458-0.215c-0.085-0.852-1.408-0.135-0.681,0.475"/>
				</g>
				<g>
					<path fill="#12958C" d="M194.235,244.893c0.416,0.016,0.823-0.269,0.607-0.727c-0.502-0.866-1.701,0.171-0.771,0.639"/>
				</g>
				<g>
					<path fill="#12958C" d="M192.259,246.268c0.023,0.183,0.099,0.436,0.125,0.618c1.459-0.813-1.654-1.073-0.414-0.015"/>
				</g>
				<g>
					<path fill="#12958C" d="M189.425,248.739c0.379,0.544,1.197-0.023,0.752-0.521c-0.61-0.588-1.465,0.511-0.583,0.909"/>
				</g>
				<g>
					<path fill="#12958C" d="M187.941,243.4c0.378,0.545,0.598-0.014,0.503-0.149c-0.487-0.267-1.154-0.208-0.635,0.543"/>
				</g>
				<g>
					<path fill="#12958C" d="M190.323,242.756c0.117,0.021,0.778-0.339,0.268-0.488c-0.672-0.24-0.914,0.432-0.309,0.721"/>
				</g>
			</g>
			<g>
				<g>
					<path fill="#12958C" d="M219.793,224.266c0.368-0.257,0.58-0.541,0.323-0.909c-0.417-0.8-2.535,0.668-0.947,0.793"/>
				</g>
				<g>
					<path fill="#12958C" d="M217.522,225.555c0.297-0.005,0.739,0.192,0.609,0.588c-0.146,0.81-1.546-0.039-0.772-0.677"/>
				</g>
				<g>
					<path fill="#12958C" d="M214.846,226.503c-0.047-0.065-0.027-0.183-0.075-0.251c-0.551,0.081-1.097,0.46-0.853,1.102
						c0.336,0.775,1.521,0.153,1.231-0.555"/>
				</g>
				<g>
					<path fill="#12958C" d="M214.93,223.716c0.51,0.151,1.103-0.159,0.86-0.801c-0.338-0.774-1.381,0.051-0.703,0.59"/>
				</g>
				<g>
					<path fill="#12958C" d="M212.872,224.537c0.421,0.316,0.873-0.198,0.403-0.581c-0.446-0.499-1.239,0.253-0.723,0.704"/>
				</g>
				<g>
					<path fill="#12958C" d="M211.174,226.021c0.644-1.256-1.568-1.235-0.538-0.334"/>
				</g>
				<g>
					<path fill="#12958C" d="M210.663,228.195c1.397,0.85-1.685,1.07,0.027,0.185"/>
				</g>
				<g>
					<path fill="#12958C" d="M213.167,231.511c0.62-0.126,1.206-0.735,0.781-1.349c-0.616-0.889-1.304,0.599-0.303,1.018"/>
				</g>
				<g>
					<path fill="#12958C" d="M216.73,229.945c0.462,0.085,1.193-0.322,0.928-0.848c-0.241-0.639-1.47,0.213-0.677,0.774"/>
				</g>
				<g>
					<path fill="#12958C" d="M208.956,231.708c-0.756,0.222-0.979-0.533-0.176-0.688c0.163,0.088,0.028,0.184,0.006,0.299"/>
				</g>
				<g>
					<path fill="#12958C" d="M206.945,228.96c0.389-0.17,0.445-0.815-0.066-0.967c-0.624-0.173-0.421,0.698,0.021,0.897"/>
				</g>
				<g>
					<path fill="#12958C" d="M206.016,226.166c0.493-0.745-0.73-0.908-0.345-0.063"/>
				</g>
				<g>
					<path fill="#12958C" d="M201.753,223.668c0.652,0.356,0.977-0.78,0.377-0.767c-0.551,0.079-0.606,0.725-0.369,1.066"/>
				</g>
				<g>
					<path fill="#12958C" d="M198.62,221.194c0.279,0.11,0.558,0.219,0.457-0.218c-0.085-0.849-1.409-0.132-0.683,0.475"/>
				</g>
				<g>
					<path fill="#12958C" d="M197.281,224.652c0.416,0.014,0.822-0.27,0.608-0.727c-0.501-0.866-1.701,0.171-0.771,0.637"/>
				</g>
				<g>
					<path fill="#12958C" d="M195.305,226.025c0.023,0.184,0.099,0.438,0.124,0.619c1.46-0.813-1.654-1.074-0.414-0.015"/>
				</g>
				<g>
					<path fill="#12958C" d="M192.473,228.498c0.377,0.546,1.195-0.021,0.749-0.521c-0.609-0.588-1.465,0.513-0.582,0.909"/>
				</g>
				<g>
					<path fill="#12958C" d="M190.988,223.159c0.377,0.546,0.598-0.01,0.503-0.148c-0.488-0.265-1.156-0.209-0.636,0.543"/>
				</g>
				<g>
					<path fill="#12958C" d="M193.371,222.517c0.116,0.02,0.776-0.338,0.268-0.491c-0.674-0.24-0.914,0.432-0.311,0.722"/>
				</g>
			</g>
		</g>
	</g>
</g>
</svg>
