<?xml version="1.0" encoding="utf-8"?>
<!-- Generator: Adobe Illustrator 16.0.3, SVG Export Plug-In . SVG Version: 6.00 Build 0)  -->
<!DOCTYPE svg PUBLIC "-//W3C//DTD SVG 1.1//EN" "http://www.w3.org/Graphics/SVG/1.1/DTD/svg11.dtd">
<svg version="1.1" id="Ebene_1" xmlns="http://www.w3.org/2000/svg" xmlns:xlink="http://www.w3.org/1999/xlink" x="0px" y="0px"
	 width="450px" height="450px" viewBox="0 0 450 450" enable-background="new 0 0 450 450" xml:space="preserve">
<g id="pole_bean">
	<g>
		<g>
			<g>
				<g>
					<path fill="#A8CA52" d="M319.238,161.073c-12.104-0.376-25.398,13.366-38.258,17.356c-14.801,5.182-29.791,7.134-45.974,5.912
						c-30.287-1.479-68.732-4.648-96.703-18.152c16.555,12.758,22.748,21.297,49.855,26.279c15.748,2.895,31.42,3.577,46.597,4.856
						c27.282,1.656,70.935-9.526,86.489-36.367"/>
				</g>
				<g>
					<path fill="#006946" d="M321.46,160.362c-6.516,4.295-12.236,9.967-19.919,12.549c-7.307,2.918-15.365,5.166-22.631,8.792
						c-7.952,4.021-14.51,7.608-23.299,9.543c-12.336,2.142-23.938-1.458-36.104-2.53c-13.229-1.01-27.147-1.626-40.19-5.495
						c-7.972-2.385-14.188-5.227-21.491-8.363c-5.842-2.509-12.645-3.182-17.84-6.795c9.936-0.578,21.954,4.063,31.719,6.7
						c7.595,2.05,14.856,4.477,22.767,5.797c15.085,2.328,29.969,1.106,44.973,2.014c14.632,0.575,26.925-2.277,40.558-6.628
						c8.726-3.001,14.073-9.007,22.049-12.675c3.443-1.98,7.976-3.668,11.897-3.541c1.772-0.103,3.591,0.505,5.384,0.756
						c0.709-0.041,3.925,0.129,2.15,0.232"/>
				</g>
				<g>
					<g>
						<path fill="#C1D677" d="M320.151,160.624c-6.453,4.601-12.785,9.198-20.009,12.555c-6.254,2.907-12.848,4.896-19.045,7.968
							c-14.477,7.177-29.84,11.385-46.078,9.68c-8.1-0.851-16.157-2.311-24.262-3.217c-8.646-0.966-17.271-2.012-25.783-3.852
							c-7.361-1.591-14.634-4.282-21.771-6.655c-6.761-2.248-13.908-4.01-20.084-7.662c-0.512-0.304-1.819,0.403-1.137,0.807
							c5.493,3.249,11.72,4.978,17.756,6.92c8.104,2.608,16.162,5.279,24.379,7.524c7.826,2.139,16.213,2.794,24.246,3.707
							c9.325,1.061,18.604,2.636,27.928,3.615c14.745,1.549,29.181-2.581,42.465-8.659c7.28-3.33,14.685-6.189,22.017-9.386
							c7.37-3.214,13.824-8.104,20.332-12.741C321.914,160.649,320.703,160.231,320.151,160.624L320.151,160.624z"/>
					</g>
				</g>
			</g>
			<g>
				<g>
					<path fill="#A8CA52" d="M321.144,215.929c-4.367,0.933-10.98-1.741-15.466-2.843c-6.559-1.658-13.092-2.978-19.93-3.601
						c-10.583-0.744-22.145-0.754-32.667-0.483c-25.478,0.462-48.734-1.928-72.688-10.395c-3.807-1.139-7.933-1.919-11.737-3.057
						c-5.201-1.738-9.843-5.548-15.024-6.948c14.563,10.713,28.728,20.432,44.848,28.675c16.438,7.885,33.441,7.916,51.398,6.871
						c12.54-0.727,25.679-2.852,38.672-1.566c13.673,1.246,27.364,2.829,40.006-1.984c-2.81-1.536-5.659-3.753-8.747-4.252"/>
				</g>
				<g>
					<path fill="#006946" d="M327.52,220.316c-3.109-0.84-6.298-3.034-9.427-4.213c-4.204-2.134-9.007-2.875-13.512-4.313
						c-6.596-2.337-13.151-3.995-20.326-4.601c-15.687-0.787-31.116,2.83-46.503,1.345c-13.673-1.246-27.385-3.169-40.817-6.128
						c-7.913-1.579-15.186-3.876-22.759-5.479c-6.896-1.639-14.169-3.936-19.847-8.025c6.436,5.405,16.061,7.226,23.434,11.218
						c9.125,4.91,18.511,8.444,28.854,10.902c18.235,3.701,36.113,7.082,55.128,6.655c12.897-0.408,25.017-2.474,37.714-0.491
						c8.908,1.182,18.834,2.306,26.706,3.207"/>
				</g>
				<g>
					<g>
						<path fill="#C1D677" d="M326.963,219.521c-9.708,1.011-19.053-1.812-28.549-3.348c-8.907-1.44-17.313,0.484-26.18,1.216
							c-9.771,0.807-19.784-0.204-29.549-0.817c-9.098-0.571-17.649-2.126-26.512-4.187c-11.947-2.775-22.969-5.357-34.242-10.104
							c-5.082-2.141-10.118-4.399-15.064-6.837c-1.579-0.778-9.3-3.74-9.377-5.992c-0.023-0.694-1.49-0.409-1.471,0.148
							c0.064,1.924,3.795,3.47,5.127,4.225c5.067,2.872,10.446,5.232,15.775,7.569c4.67,2.048,9.388,3.998,14.156,5.805
							c6.13,2.322,12.646,3.422,19.017,4.903c8.348,1.94,16.674,4.169,25.229,4.956c10.291,0.947,20.796,1.55,31.131,1.512
							c10.633-0.039,20.77-2.955,31.42-1.455c9.723,1.37,18.991,4.375,28.921,3.342
							C327.561,220.376,327.969,219.416,326.963,219.521L326.963,219.521z"/>
					</g>
				</g>
			</g>
			<g>
				<path fill="#A8CA52" d="M144.03,197.557c4.075-7.528,19.425-12.239,27.589-15.144c15.998-5.444,31.653-10.866,48.041-15.638
					c12.986-3.532,25.648-6.698,37.781-12.958c4.377-2.338,12.727-8.031,17.916-8.332c-7.19,7.709-15.559,13.057-23.887,19.094
					c-9.652,7.159-20.056,13.316-31.66,16.769c-11.623,3.105-23.956,5.906-35.154,10.375c-9.834,4.043-19.933,9.49-29.012,14.533
					c-9.061,5.386-18.507,10.101-28.766,12.781c-0.162-2.77,5.153-6.896,7.109-9.093c2.914-3.643,6.682-10.458,10.367-12.753"/>
			</g>
			<g>
				<path fill="#006946" d="M274.257,144.507c-5.108,1.687-10.604,2.7-15.673,5.078c-4.743,2.012-8.348,5.693-13.111,7.359
					c-8.488,3.27-17.484,3.794-26.341,6.737c-22.515,6.863-49.033,10.488-66.832,26.797c-5.275,4.82-9.451,10.617-14.727,15.438
					c-3.97,3.355-6.457,8.359-10.082,11.694c6.902-6.647,16.472-9.288,23.008-16.265c7.863-8.095,15.985-11.691,26.49-16.12
					c9.813-4.39,20.338-8.473,30.902-11.864c8.876-2.6,17.16-3.428,25.993-6.719c7.474-2.863,14.658-4.671,21.724-8.554
					c6.373-3.842,11.912-10.064,17.613-13.521"/>
			</g>
			<g>
				<g>
					<path fill="#C1D677" d="M272.549,144.587c-5.947,5.832-12.283,11.328-19.701,15.214c-7.233,3.79-15.617,3.902-23.229,6.523
						c-15.639,5.383-31.435,10.516-46.974,16.189c-6.479,2.365-13.008,4.863-18.885,8.513c-5.235,3.251-9.718,7.597-13.979,12.005
						c-3.246,3.354-6.82,5.808-10.756,8.319c-2.114,1.351-4.269,2.638-6.449,3.878c-0.973,0.552-4.064,2.774-5.165,2.448
						c-0.39-0.115-1.706,0.485-1.182,0.641c1.748,0.519,4.138-1.122,5.571-1.867c4.369-2.271,8.54-4.982,12.615-7.74
						c4.594-3.108,8.002-7.218,12.055-10.982c6.792-6.312,14.696-10.076,23.246-13.429c9.148-3.587,18.56-6.479,27.897-9.518
						c8.572-2.789,16.98-6.545,25.675-8.862c7.479-1.994,14.914-2.905,21.854-6.542c7.045-3.69,13.111-9.298,18.75-14.827
						C274.273,144.176,272.838,144.304,272.549,144.587L272.549,144.587z"/>
				</g>
			</g>
		</g>
		<g>
			<g>
				<g>
					<path fill="#A8CA52" d="M124.222,245.648c11.498-3.797,28.15,5.602,41.612,5.775c15.663,0.766,30.592-1.619,45.761-7.387
						c28.621-10.021,64.582-23.98,87.563-44.87c-12.248,16.933-15.762,26.879-40.34,39.356
						c-14.274,7.246-29.107,12.352-43.297,17.89c-25.688,9.338-70.718,11.012-93.257-10.308"/>
				</g>
				<g>
					<path fill="#006946" d="M121.89,245.6c7.467,2.269,14.564,6.08,22.665,6.373c7.833,0.726,16.198,0.592,24.195,2.004
						c8.768,1.598,16.073,3.176,25.048,2.531c12.438-1.449,22.538-8.193,33.9-12.678c12.397-4.729,25.569-9.271,36.977-16.686
						c6.964-4.551,12.118-9.043,18.229-14.124c4.891-4.065,11.22-6.64,15.176-11.581c-9.691,2.267-19.896,10.132-28.51,15.431
						c-6.7,4.124-12.976,8.513-20.184,12.027c-13.807,6.515-28.42,9.569-42.55,14.701c-13.866,4.707-26.463,5.465-40.771,5.162
						c-9.216-0.396-16.05-4.638-24.74-5.89c-3.863-0.92-8.688-1.252-12.414-0.015c-1.729,0.406-3.297,1.502-4.946,2.252
						c-0.692,0.164-3.727,1.238-1.996,0.834"/>
				</g>
				<g>
					<g>
						<path fill="#C1D677" d="M122.267,246.257c7.078,2.437,14.053,4.908,21.451,6.204c7.92,1.389,16.027,1.475,23.982,2.771
							c15.021,2.449,30.072,1.968,44.406-3.442c8.014-3.024,15.71-7.151,23.614-10.488c7.815-3.299,15.597-6.647,23.097-10.623
							c7.188-3.811,13.901-8.782,20.563-13.431c5.935-4.141,12.36-7.919,17.331-13.248c0.589-0.631-0.841-0.604-1.174-0.246
							c-4.58,4.91-10.396,8.434-15.887,12.222c-6.149,4.243-12.291,8.47-18.623,12.443c-13.688,8.59-29.659,13.367-44.154,20.399
							c-15.891,7.709-32.877,8.127-50.013,5.33c-6.864-1.119-13.742-1.396-20.633-2.248c-7.875-0.977-15.342-3.791-22.797-6.354
							C122.982,245.393,121.658,246.048,122.267,246.257L122.267,246.257z"/>
					</g>
				</g>
			</g>
			<g>
				<g>
					<path fill="#A8CA52" d="M137.975,298.784c4.453-0.345,10.036-4.787,14.021-7.114c5.816-3.453,11.708-6.576,18.087-9.116
						c9.936-3.717,21.02-7.01,31.188-9.737c24.555-6.793,46.179-15.689,66.741-30.611c3.327-2.172,7.061-4.094,10.387-6.266
						c4.49-3.144,7.858-8.116,12.432-10.929c-10.92,14.408-21.743,27.75-34.855,40.23c-13.522,12.229-29.817,17.088-47.332,21.188
						c-12.23,2.862-25.431,4.558-37.524,9.479c-12.755,5.078-25.435,10.486-38.923,9.46c2.258-2.271,4.36-5.206,7.18-6.562"/>
				</g>
				<g>
					<path fill="#006946" d="M133.108,304.803c2.744-1.686,5.177-4.695,7.842-6.714c3.426-3.241,7.819-5.315,11.73-7.974
						c5.66-4.114,11.475-7.566,18.184-10.184c14.815-5.211,30.639-6.125,44.967-11.92c12.759-5.078,25.36-10.815,37.396-17.469
						c7.14-3.761,13.461-8.027,20.269-11.716c6.146-3.529,12.467-7.8,16.751-13.333c-4.637,7.013-13.348,11.49-19.282,17.413
						c-7.354,7.299-15.353,13.353-24.569,18.647c-16.435,8.728-32.612,17.045-50.969,22.037
						c-12.483,3.272-24.688,4.733-36.299,10.242c-8.206,3.661-17.404,7.559-24.696,10.659"/>
				</g>
				<g>
					<g>
						<path fill="#C1D677" d="M133.532,304.729c7.809-1.433,14.679-5.108,21.633-8.777c4.842-2.555,9.739-4.864,15.068-6.207
							c5.007-1.262,10.299-1.583,15.367-2.641c9.726-2.025,19.164-5.89,28.47-9.291c8.705-3.185,16.503-7.139,24.547-11.703
							c6.598-3.743,13.717-7.03,19.867-11.487c4.111-2.979,8.045-6.212,11.951-9.45c4.621-3.831,9.174-7.768,13.471-11.963
							c1.178-1.148,5.457-4.559,4.919-6.623c-0.14-0.532-1.603-0.143-1.464,0.393c0.563,2.162-5.211,6.539-6.531,7.791
							c-3.977,3.768-8.165,7.313-12.38,10.81c-9.673,8.021-19.718,13.981-30.749,20.069c-17.225,9.504-36.131,17.621-55.573,21.347
							c-7.804,1.496-14.946,2.309-22.245,5.655c-8.688,3.983-16.593,9.482-26.159,11.238
							C133.022,304.018,132.527,304.914,133.532,304.729L133.532,304.729z"/>
					</g>
				</g>
			</g>
			<g>
				<path fill="#A8CA52" d="M302.578,230.87c-6.049-6.062-22.102-6.221-30.755-6.687c-16.888-0.676-33.438-1.428-50.504-1.351
					c-13.455,0.303-26.492,0.863-39.904-1.69c-4.861-1-14.484-4.088-19.545-2.902c9.083,5.349,18.626,8.098,28.325,11.523
					c11.287,4.12,23.011,7.072,35.118,7.086c12.028-0.324,24.649-1.143,36.652-0.037c10.579,1.084,21.807,3.439,31.945,5.693
					c10.215,2.592,20.614,4.432,31.211,4.085c-0.632-2.7-6.898-5.147-9.396-6.696c-3.828-2.664-9.38-8.131-13.563-9.283"/>
			</g>
			<g>
				<path fill="#006946" d="M162.646,216.988c5.377,0.165,10.934-0.422,16.47,0.419c5.119,0.581,9.622,3.087,14.663,3.331
					c9.066,0.725,17.841-1.327,27.168-1.02c23.536,0.187,49.995-3.871,71.692,6.713c6.429,3.123,12.077,7.493,18.504,10.616
					c4.761,2.091,8.565,6.183,12.988,8.353c-8.507-4.416-18.431-4.229-26.681-9.062c-9.839-5.528-18.647-6.671-29.978-7.935
					c-10.656-1.422-21.906-2.348-32.998-2.598c-9.249,0.026-17.429,1.586-26.833,0.938c-7.976-0.623-15.38-0.313-23.256-2.032
					c-7.203-1.873-14.281-6.266-20.73-7.96"/>
			</g>
			<g>
				<g>
					<path fill="#C1D677" d="M162.971,217.017c6.537,3.467,13.254,6.525,20.416,8.458c7.871,2.123,15.854,0.917,23.849,0.455
						c9.858-0.569,20.132,0.992,30.028,1.252c9.586,0.25,19.166,0.471,28.727,1.281c8.521,0.723,16.365,2.322,24.144,5.936
						c5.194,2.414,9.722,5.57,15.181,7.35c4.901,1.598,9.92,2.977,14.981,3.957c1.553,0.301,3.702,0.877,5.16-0.068
						c0.64-0.414-0.84-0.306-1.139-0.111c-0.654,0.425-3.949-0.655-4.574-0.785c-2.409-0.504-4.791-1.146-7.164-1.797
						c-3.675-1.008-7.438-2.043-10.938-3.571c-6.047-2.644-11.327-6.368-17.639-8.573c-6.687-2.335-13.903-2.773-20.907-3.308
						c-16.503-1.255-33.08-0.759-49.576-2.221c-8.019-0.711-15.999,1.318-24.049,0.539c-8.778-0.853-17.464-5.25-25.129-9.313
						C163.941,216.28,162.714,216.881,162.971,217.017L162.971,217.017z"/>
				</g>
			</g>
		</g>
		<g>
			<g>
				<g>
					<path fill="#A8CA52" d="M171.567,150.151c10.363,6.259,14.063,25.021,22.69,35.357c9.608,12.39,21.135,22.176,35.384,29.94
						c26.23,15.214,60.229,33.438,91.049,37.299c-20.829,1.716-30.67,5.521-56.135-5.024c-14.793-6.125-28.32-14.067-41.758-21.238
						c-23.802-13.432-54.374-46.535-52.854-77.522"/>
				</g>
				<g>
					<path fill="#006946" d="M170.088,148.347c3.136,7.146,4.858,15.018,9.905,21.358c4.549,6.42,10.093,12.686,14.226,19.677
						c4.488,7.697,8.045,14.27,14.374,20.669c9.19,8.499,20.886,11.78,31.687,17.491c11.654,6.341,23.676,13.386,36.728,17.222
						c7.986,2.328,14.752,3.32,22.587,4.655c6.268,1.065,12.343,4.199,18.668,3.988c-8.027-5.884-20.639-8.517-30.269-11.609
						c-7.49-2.403-14.905-4.313-22.265-7.501c-13.931-6.242-25.761-15.354-38.853-22.743c-12.592-7.466-21.366-16.538-30.447-27.599
						c-5.694-7.26-6.921-15.207-11.625-22.62c-1.816-3.535-4.7-7.412-8.063-9.438c-1.435-1.049-3.288-1.526-4.929-2.289
						c-0.575-0.422-3.367-2.025-1.934-0.975"/>
				</g>
				<g>
					<g>
						<path fill="#C1D677" d="M169.75,149.468c2.987,7.538,5.881,14.989,10.249,21.865c4.378,6.892,9.317,13.404,13.685,20.324
							c7.444,11.797,16.94,21.94,29.201,28.771c6.655,3.707,13.905,6.453,20.737,9.84c8.09,4.01,16.127,8.102,24.493,11.515
							c8.1,3.304,16.803,5.347,25.255,7.536c6.997,1.812,14.033,4.219,21.307,4.527c0.361,0.016,1.691-0.643,0.929-0.676
							c-7.197-0.306-14.114-2.717-21.047-4.477c-8.482-2.15-17.104-4.329-25.257-7.535c-7.833-3.081-15.347-6.95-22.87-10.706
							c-7.776-3.881-15.967-7.093-23.554-11.319c-12.129-6.756-21.199-17.516-28.511-29.103c-4.121-6.528-8.61-12.684-12.906-19.089
							c-4.511-6.729-7.284-14.386-10.248-21.865C171.047,148.659,169.61,149.114,169.75,149.468L169.75,149.468z"/>
					</g>
				</g>
			</g>
			<g>
				<g>
					<path fill="#A8CA52" d="M140.166,195.167c3.159,3.157,10.165,4.506,14.527,6.017c6.406,2.17,12.612,4.615,18.691,7.807
						c9.285,5.127,18.997,11.397,27.686,17.344c21.135,14.228,41.962,24.86,66.671,30.765c3.813,1.11,7.702,2.695,11.516,3.81
						c5.31,1.366,11.277,0.688,16.39,2.33c-18.049,1.084-35.219,1.546-53.229-0.294c-18.085-2.31-32.376-11.521-46.886-22.153
						c-10.133-7.424-20.007-16.345-31.615-22.327c-12.156-6.383-24.512-12.489-32.508-23.399c3.193,0.235,6.789-0.078,9.653,1.183"
						/>
				</g>
				<g>
					<path fill="#006946" d="M132.429,195.39c3.065,0.983,6.936,0.873,10.203,1.585c4.688,0.491,9.123,2.479,13.686,3.719
						c6.807,1.621,13.213,3.791,19.564,7.184c13.597,7.859,24.584,19.279,38.312,26.392c12.158,6.383,24.712,12.217,37.598,17.03
						c7.502,2.974,14.854,4.995,22.081,7.767c6.68,2.371,14.036,4.394,21.021,4.045c-8.336,1.043-17.406-2.657-25.766-3.313
						c-10.328-0.837-20.128-2.97-30.146-6.521c-17.321-6.803-34.166-13.676-49.898-24.364c-10.604-7.351-19.66-15.667-31.396-20.902
						c-8.119-3.847-17.063-8.298-24.164-11.816"/>
				</g>
				<g>
					<g>
						<path fill="#C1D677" d="M132.453,195.711c7.222,5.849,16.048,8.597,24.489,12.163c9.534,4.028,16.282,11.149,24.498,17.168
							c16.169,11.847,34.604,20.122,53.309,26.921c6.149,2.235,12.226,4.803,18.627,6.215c5.97,1.316,12.007,2.352,18.045,3.293
							c5.438,0.85,10.947,1.654,16.456,1.824c1.43,0.044,4.385,0.297,5.364-1.109c0.1-0.143-1.196-0.092-1.441,0.261
							c-1.177,1.688-11.477-0.46-13.01-0.655c-5.511-0.704-10.993-1.627-16.456-2.63c-12.589-2.312-24.096-7.024-36.145-11.308
							c-8.652-3.073-16.435-7.285-24.405-11.795c-8.358-4.729-16.663-9.461-24.154-15.509c-6.778-5.472-12.598-10.336-20.718-13.767
							c-8.005-3.383-16.229-6.021-23.08-11.568C133.523,194.965,132.241,195.539,132.453,195.711L132.453,195.711z"/>
					</g>
				</g>
			</g>
			<g>
				<path fill="#A8CA52" d="M298.839,275.97c0.669-8.534-9.657-20.827-14.933-27.7c-10.473-13.266-20.672-26.319-31.836-39.229
					c-8.983-10.021-17.895-19.559-24.682-31.403c-2.403-4.341-6.32-13.657-10.513-16.729c1.847,10.378,5.968,19.412,9.681,29.009
					c4.213,11.251,9.602,22.074,17.467,31.276c8.072,8.922,16.906,17.976,23.877,27.81c6.061,8.738,11.58,18.798,16.463,27.961
					c4.681,9.444,10.047,18.538,17.207,26.359c1.639-2.235-0.579-8.59-1.029-11.494c-0.468-4.641,0.071-12.411-1.774-16.34"/>
			</g>
			<g>
				<path fill="#006946" d="M218.331,160.682c3.374,4.189,7.435,8.027,10.397,12.778c2.893,4.265,3.916,9.315,7.013,13.301
					c5.35,7.357,12.618,12.685,18.45,19.968c15.175,17.993,35.47,35.446,41.554,58.81c1.81,6.911,2.166,14.048,3.975,20.959
					c1.511,4.973,0.879,10.525,2.11,15.295c-2.184-9.332-8.78-16.746-10.48-26.154c-2.201-11.068-7.065-18.5-13.479-27.927
					c-5.853-9.017-12.47-18.162-19.498-26.749c-6.038-7.006-12.543-12.2-18.171-19.763c-4.719-6.464-9.77-11.885-13.59-18.981
					c-3.264-6.688-4.534-14.923-7.443-20.922"/>
			</g>
			<g>
				<g>
					<path fill="#C1D677" d="M218.436,161.491c1.627,7.253,3.688,14.382,6.929,21.092c3.207,6.642,8.564,11.547,13.675,16.702
						c6.283,6.342,11.178,14.162,16.769,21.119c5.627,7.004,11.381,13.901,16.828,21.048c4.857,6.37,9.678,12.903,12.822,20.312
						c2.748,6.475,3.089,13.457,5.303,20.018c1.567,4.646,3.791,9.137,5.973,13.518c0.906,1.817,2.607,6.799,4.849,7.46
						c0.324,0.097,1.61-0.431,1.205-0.551c-2.585-0.765-5-8.103-6.022-10.231c-1.807-3.763-3.656-7.633-4.877-11.633
						c-2.09-6.836-2.752-13.754-5.589-20.437c-3.36-7.913-9.176-14.946-14.389-21.699c-5.121-6.635-10.515-13.058-15.763-19.591
						c-4.633-5.767-8.715-12.053-13.612-17.588c-5.162-5.834-11.101-10.593-15-17.479c-3.882-6.856-5.925-14.819-7.636-22.448
						C219.832,160.804,218.362,161.167,218.436,161.491L218.436,161.491z"/>
				</g>
			</g>
		</g>
	</g>
</g>
</svg>
