<?xml version="1.0" encoding="utf-8"?>
<!-- Generator: Adobe Illustrator 16.0.0, SVG Export Plug-In . SVG Version: 6.00 Build 0)  -->
<!DOCTYPE svg PUBLIC "-//W3C//DTD SVG 1.1//EN" "http://www.w3.org/Graphics/SVG/1.1/DTD/svg11.dtd">
<svg version="1.1" id="Layer_2" xmlns="http://www.w3.org/2000/svg" xmlns:xlink="http://www.w3.org/1999/xlink" x="0px" y="0px"
	 width="450px" height="450px" viewBox="0 0 450 450" enable-background="new 0 0 450 450" xml:space="preserve">
<g>
	<g opacity="0.3">
		<path opacity="0.3" d="M167.03,169.328c8.742,19.268,3.481,37.716-1.195,52.098c-1.898,5.831-15.859,21.604-31.678,25.139
			c-11.795,2.637-44.296,3.274-57.281-14.72c-6.04-8.369-7.551-15.606-9.041-33.136c-1.687-19.831,38.798-38.591,50.5-38.167
			C136.447,161.195,160.799,155.591,167.03,169.328z"/>
		<path opacity="0.3" d="M92.202,236.057c1.235-3.097,2.31-6.215,3.352-9.384c1.557-4.754,0.215-8.625-2.475-11.213
			c1.041-5.345,2.521-10.688,3.274-15.677c1.655-10.996,2.787-21.528,0.209-32.476c-14.509,7.146-29.778,19.063-28.729,31.4
			c1.49,17.529,3.001,24.767,9.041,33.136c2.905,4.024,6.788,7.11,11.194,9.457C89.884,239.895,91.375,238.125,92.202,236.057z"/>
		<path opacity="0.3" d="M137.28,160.076c-1.779,6.622-0.885,14.044,2.167,20.937c-4.094-9.246-1.593-5.515-1.741-0.262
			c-0.077,2.748-0.414,5.5-0.656,8.237c-0.524,5.856-0.684,11.746-0.9,17.621c-0.469,12.861-0.745,21.633-5.372,33.369
			c-0.95,2.415-1.357,4.901-1.331,7.373c1.791-0.224,3.387-0.491,4.711-0.787c15.818-3.534,29.779-19.308,31.678-25.139
			c4.677-14.382,9.938-32.83,1.195-52.098C162.839,160.092,150.452,159.604,137.28,160.076z"/>
		<path opacity="0.3" d="M125.697,142.104c18.984,1.27,30.073,11.062,39.189,23.13c9.115,12.07,0.975,49.784-8.048,57.829
			c-9.019,8.047-25.244,20.32-47.268,17.601c-22.023-2.721-32.19-10.993-39.146-27.153c-6.192-14.386-0.54-50.79,7.466-59.338
			C90.279,140.942,110.648,141.098,125.697,142.104z"/>
		<path opacity="0.3" d="M125.253,145.068c17.842,1.193,28.264,10.397,36.83,21.739c8.568,11.344,0.916,46.789-7.563,54.351
			c-8.476,7.561-23.725,19.097-44.425,16.539c-20.697-2.557-30.254-10.331-36.788-25.519c-5.82-13.52-0.507-47.732,7.017-55.766
			C91.965,143.977,111.111,144.124,125.253,145.068z"/>
		<path opacity="0.3" d="M124.621,149.295c16.212,1.082,25.684,9.449,33.469,19.757c7.787,10.306,0.831,42.516-6.872,49.386
			c-7.702,6.873-21.559,17.356-40.369,15.033c-18.809-2.325-27.492-9.391-33.432-23.192c-5.288-12.283-0.46-43.375,6.376-50.674
			C94.37,148.303,111.771,148.436,124.621,149.295z"/>
		<path fill="none" stroke="#000000" stroke-width="2.0114" stroke-linecap="round" d="M105.547,160.828
			c1.677-1.345,9.714,2.273,9.714,6.297"/>
		
			<line fill="none" stroke="#000000" stroke-width="2.0114" stroke-linecap="round" x1="115.261" y1="167.125" x2="113.594" y2="183.622"/>
		<path fill="none" stroke="#000000" stroke-width="2.0114" stroke-linecap="round" d="M115.261,167.125
			c0,0,5.267-10.057,11.406-2.275"/>
		
			<line fill="none" stroke="#000000" stroke-width="2.0114" stroke-linecap="round" x1="118.334" y1="198.709" x2="133.708" y2="205.411"/>
		<path fill="none" stroke="#000000" stroke-width="2.0114" stroke-linecap="round" d="M133.708,205.411
			c3.679,1.273,5.026,12.826-3.353,11.274"/>
		<path fill="none" stroke="#000000" stroke-width="2.0114" stroke-linecap="round" d="M133.708,205.411
			c3.679,1.439,10.997-1.399,7.646-8.104"/>
		<path fill="none" stroke="#000000" stroke-width="2.0114" stroke-linecap="round" d="M111.246,197.031
			c0,0-14.414,6.367-16.761,9.722"/>
		<path fill="none" stroke="#000000" stroke-width="2.0114" stroke-linecap="round" d="M94.486,206.753
			c-4.326,4.121-12.07-0.674-10.059-4.695"/>
		<path fill="none" stroke="#000000" stroke-width="2.0114" stroke-linecap="round" d="M94.486,206.753
			c-2.858,2.277-5.192,11.999,1.562,14.673"/>
		<path fill="none" stroke="#000000" stroke-width="2.0114" stroke-linecap="round" d="M131.023,168.781
			c0.729,2.619-0.13,5.144-1.916,5.638c-1.782,0.494-3.816-1.228-4.543-3.845c-0.727-2.622,0.132-5.146,1.915-5.641
			C128.263,164.438,130.297,166.161,131.023,168.781z"/>
		<path fill="none" stroke="#000000" stroke-width="2.0114" stroke-linecap="round" d="M104.959,166.746
			c-1.539,2.239-4.022,3.204-5.55,2.157c-1.526-1.045-1.515-3.712,0.021-5.95c1.541-2.244,4.023-3.212,5.55-2.162
			C106.508,161.838,106.495,164.504,104.959,166.746z"/>
		<path fill="none" stroke="#000000" stroke-width="2.0114" stroke-linecap="round" d="M83.437,196.013
			c1.045-2.508,3.281-3.965,4.99-3.247c1.708,0.711,2.244,3.322,1.195,5.831c-1.048,2.509-3.282,3.964-4.988,3.25
			C82.926,201.136,82.388,198.522,83.437,196.013z"/>
		<path fill="none" stroke="#000000" stroke-width="2.0114" stroke-linecap="round" d="M99.743,216.754
			c2.592-0.811,5.144-0.034,5.698,1.731c0.552,1.766-1.105,3.855-3.697,4.667c-2.595,0.812-5.146,0.041-5.697-1.727
			C95.492,219.655,97.151,217.565,99.743,216.754z"/>
		<path fill="none" stroke="#000000" stroke-width="2.0114" stroke-linecap="round" d="M125.42,220.163
			c-2.716-0.019-4.908-1.54-4.893-3.393c0.015-1.848,2.229-3.332,4.948-3.309c2.719,0.02,4.91,1.541,4.895,3.392
			C130.356,218.704,128.139,220.187,125.42,220.163z"/>
		<path fill="none" stroke="#000000" stroke-width="2.0114" stroke-linecap="round" d="M135.635,195.086
			c-1.731-2.093-1.973-4.749-0.55-5.93c1.429-1.178,3.988-0.433,5.717,1.661c1.732,2.095,1.982,4.748,0.553,5.928
			C139.928,197.926,137.368,197.18,135.635,195.086z"/>
		<path opacity="0.3" d="M279.899,174.216c8.743,19.27,3.483,37.716-1.195,52.098c-1.896,5.832-15.858,21.606-31.676,25.141
			c-11.796,2.636-44.296,3.273-57.283-14.721c-6.04-8.369-7.55-15.607-9.04-33.137c-1.688-19.831,38.799-38.591,50.501-38.165
			C249.317,166.084,273.669,160.478,279.899,174.216z"/>
		<path opacity="0.3" d="M205.073,240.947c1.236-3.099,2.309-6.217,3.35-9.387c1.559-4.753,0.217-8.622-2.475-11.212
			c1.041-5.346,2.521-10.687,3.273-15.677c1.657-10.996,2.788-21.529,0.211-32.476c-14.509,7.146-29.779,19.064-28.729,31.4
			c1.49,17.529,3,24.768,9.04,33.137c2.905,4.023,6.789,7.111,11.195,9.457C202.754,244.782,204.245,243.011,205.073,240.947z"/>
		<path opacity="0.3" d="M250.149,164.965c-1.777,6.622-0.884,14.045,2.17,20.936c-4.095-9.245-1.596-5.515-1.744-0.26
			c-0.076,2.745-0.412,5.499-0.657,8.237c-0.522,5.854-0.683,11.744-0.897,17.619c-0.469,12.862-0.747,21.634-5.371,33.369
			c-0.952,2.416-1.358,4.901-1.334,7.372c1.793-0.221,3.389-0.488,4.713-0.784c15.817-3.534,29.779-19.309,31.676-25.141
			c4.679-14.382,9.938-32.828,1.195-52.098C275.71,164.978,263.322,164.492,250.149,164.965z"/>
		<path opacity="0.3" d="M238.567,146.992c18.984,1.27,30.071,11.063,39.188,23.131c9.116,12.069,0.974,49.782-8.045,57.829
			c-9.021,8.047-25.246,20.32-47.271,17.602c-22.022-2.722-32.19-10.994-39.146-27.155c-6.19-14.384-0.538-50.788,7.468-59.337
			C203.148,145.831,223.518,145.986,238.567,146.992z"/>
		<path opacity="0.3" d="M238.122,149.958c17.844,1.191,28.264,10.395,36.832,21.739c8.568,11.341,0.914,46.786-7.563,54.349
			c-8.478,7.562-23.724,19.097-44.425,16.541c-20.698-2.559-30.255-10.334-36.788-25.52c-5.822-13.519-0.509-47.733,7.015-55.768
			C204.835,148.867,223.982,149.011,238.122,149.958z"/>
		<path opacity="0.3" d="M237.49,154.183c16.214,1.081,25.684,9.45,33.471,19.758c7.785,10.304,0.831,42.514-6.873,49.384
			c-7.702,6.875-21.56,17.358-40.37,15.032c-18.807-2.323-27.492-9.391-33.43-23.191c-5.29-12.284-0.46-43.373,6.376-50.674
			C207.241,153.191,224.641,153.326,237.49,154.183z"/>
		<path fill="none" stroke="#000000" stroke-width="2.0114" stroke-linecap="round" d="M218.416,165.716
			c1.677-1.344,9.716,2.275,9.716,6.299"/>
		
			<line fill="none" stroke="#000000" stroke-width="2.0114" stroke-linecap="round" x1="228.132" y1="172.014" x2="226.463" y2="188.51"/>
		<path fill="none" stroke="#000000" stroke-width="2.0114" stroke-linecap="round" d="M228.132,172.014
			c0,0,5.265-10.059,11.404-2.278"/>
		
			<line fill="none" stroke="#000000" stroke-width="2.0114" stroke-linecap="round" x1="231.205" y1="203.596" x2="246.578" y2="210.301"/>
		<path fill="none" stroke="#000000" stroke-width="2.0114" stroke-linecap="round" d="M246.578,210.301
			c3.678,1.271,5.026,12.825-3.353,11.274"/>
		<path fill="none" stroke="#000000" stroke-width="2.0114" stroke-linecap="round" d="M246.578,210.301
			c3.678,1.438,10.998-1.399,7.647-8.106"/>
		<path fill="none" stroke="#000000" stroke-width="2.0114" stroke-linecap="round" d="M224.116,201.919
			c0,0-14.414,6.369-16.762,9.724"/>
		<path fill="none" stroke="#000000" stroke-width="2.0114" stroke-linecap="round" d="M207.355,211.642
			c-4.324,4.119-12.068-0.676-10.058-4.697"/>
		<path fill="none" stroke="#000000" stroke-width="2.0114" stroke-linecap="round" d="M207.355,211.642
			c-2.856,2.277-5.19,11.998,1.562,14.671"/>
		
			<ellipse transform="matrix(0.9636 -0.2673 0.2673 0.9636 -37.9048 70.6832)" fill="none" stroke="#000000" stroke-width="2.0114" stroke-linecap="round" cx="240.665" cy="174.565" rx="3.352" ry="4.92"/>
		<path fill="none" stroke="#000000" stroke-width="2.0114" stroke-linecap="round" d="M217.828,171.635
			c-1.537,2.238-4.022,3.205-5.55,2.158c-1.525-1.047-1.513-3.713,0.023-5.953c1.539-2.241,4.022-3.211,5.549-2.159
			C219.379,166.726,219.366,169.393,217.828,171.635z"/>
		<path fill="none" stroke="#000000" stroke-width="2.0114" stroke-linecap="round" d="M196.308,200.901
			c1.045-2.506,3.279-3.963,4.99-3.248c1.706,0.711,2.242,3.323,1.195,5.833c-1.048,2.507-3.282,3.963-4.988,3.251
			C195.794,206.023,195.258,203.409,196.308,200.901z"/>
		<path fill="none" stroke="#000000" stroke-width="2.0114" stroke-linecap="round" d="M212.614,221.641
			c2.594-0.81,5.145-0.034,5.697,1.732c0.553,1.766-1.104,3.856-3.695,4.665c-2.597,0.812-5.146,0.041-5.699-1.726
			C208.364,224.544,210.021,222.455,212.614,221.641z"/>
		
			<ellipse transform="matrix(-0.0083 1 -1 -0.0083 461.9882 -14.7682)" fill="none" stroke="#000000" stroke-width="2.0114" stroke-linecap="round" cx="238.317" cy="221.699" rx="3.351" ry="4.921"/>
		<path fill="none" stroke="#000000" stroke-width="2.0114" stroke-linecap="round" d="M248.504,199.975
			c-1.729-2.093-1.973-4.75-0.55-5.931c1.428-1.179,3.988-0.432,5.719,1.661c1.732,2.095,1.981,4.748,0.553,5.928
			C252.797,202.814,250.238,202.069,248.504,199.975z"/>
		<path opacity="0.3" d="M204.15,207.494c11.794,19.647,16.199,44.804,11.611,60.525c-1.861,6.378-15.982,27.999-32.988,32.349
			c-12.682,3.243-46.588,0.503-52.606-9.991c-5.561-9.696-15.395-24.975-13.593-43.947c2.326-24.493,33.071-42.818,45.753-42.745
			C181.953,203.79,195.157,192.511,204.15,207.494z"/>
		<path opacity="0.3" d="M136.534,286.295c1.237-3.392,2.294-6.802,3.317-10.266c1.528-5.198-0.051-9.346-3.05-12.058
			c0.95-5.818,2.375-11.654,3.025-17.081c1.428-11.958,2.307-23.396-0.844-35.163c-4.775-4.231-13.293-0.597-22.501,19.452
			c-4.8,10.448-2.12,20.225-1.129,33.114c0.689,8.979,12.032,25.423,16.88,27.814C134.152,290.527,135.708,288.562,136.534,286.295z
			"/>
		<path opacity="0.3" d="M182.819,202.552c-1.705,7.229-0.493,15.232,3.041,22.593c-4.735-9.87-1.908-5.916-1.895-0.226
			c0.007,2.979-0.264,5.969-0.439,8.939c-0.372,6.355-0.351,12.74-0.389,19.105c-0.086,13.941-0.094,23.441-4.715,36.302
			c-0.949,2.647-0.832,9.431-0.723,12.108c1.931-0.301,3.65-0.641,5.073-1.006c17.006-4.35,27.677-13.115,29.653-19.459
			c12.061-38.715,5.89-45.258-4.209-65.828C203.376,205.219,197.063,201.604,182.819,202.552z"/>
		<path opacity="0.3" d="M214.22,224.042c8.805,16.864,6.219,31.432,0.665,45.501s-41.989,26.759-53.555,23.25
			c-11.567-3.508-30.495-10.965-39.646-31.183c-9.147-20.219-7.38-33.206,2.792-47.562c9.055-12.776,43.074-26.913,54.54-24.53
			C196.765,193.199,207.239,210.672,214.22,224.042z"/>
		<path opacity="0.3" d="M211.458,225.206c8.276,15.854,5.846,29.541,0.625,42.766c-5.218,13.22-39.463,25.148-50.333,21.85
			c-10.87-3.296-28.661-10.305-37.26-29.307c-8.597-19-6.938-31.208,2.625-44.697c8.508-12.011,40.482-25.295,51.26-23.058
			C195.05,196.22,204.9,212.641,211.458,225.206z"/>
		<path opacity="0.3" d="M207.523,226.869c7.518,14.403,5.311,26.846,0.564,38.859c-4.739,12.016-35.86,22.854-45.737,19.854
			c-9.88-2.993-26.046-9.359-33.856-26.629c-7.813-17.265-6.305-28.36,2.384-40.619c7.731-10.911,36.787-22.984,46.579-20.95
			C192.613,200.53,201.562,215.451,207.523,226.869z"/>
		<path fill="none" stroke="#000000" stroke-width="2.0114" stroke-linecap="round" d="M134.225,232.139
			c-0.394-2.111,6.591-7.488,10.138-5.59"/>
		
			<line fill="none" stroke="#000000" stroke-width="2.0114" stroke-linecap="round" x1="144.363" y1="226.55" x2="158.115" y2="235.809"/>
		<path fill="none" stroke="#000000" stroke-width="2.0114" stroke-linecap="round" d="M144.363,226.55
			c0,0-6.381-9.391,3.377-11.128"/>
		
			<line fill="none" stroke="#000000" stroke-width="2.0114" stroke-linecap="round" x1="173.652" y1="238.754" x2="186.822" y2="228.368"/>
		<path fill="none" stroke="#000000" stroke-width="2.0114" stroke-linecap="round" d="M186.822,228.368
			c2.859-2.641,13.681,1.627,8.354,8.28"/>
		<path fill="none" stroke="#000000" stroke-width="2.0114" stroke-linecap="round" d="M186.822,228.368
			c3.004-2.563,3.959-10.354-3.534-10.568"/>
		<path fill="none" stroke="#000000" stroke-width="2.0114" stroke-linecap="round" d="M168.825,244.211
			c0,0-1.19,15.712,0.656,19.362"/>
		<path fill="none" stroke="#000000" stroke-width="2.0114" stroke-linecap="round" d="M169.482,263.573
			c1.592,5.762-6.292,10.325-8.887,6.652"/>
		<path fill="none" stroke="#000000" stroke-width="2.0114" stroke-linecap="round" d="M169.482,263.573
			c0.659,3.601,8.125,10.247,13.672,5.555"/>
		<path fill="none" stroke="#000000" stroke-width="2.0114" stroke-linecap="round" d="M153.265,213.436
			c2.65,0.597,4.47,2.543,4.063,4.354c-0.404,1.804-2.883,2.784-5.534,2.187c-2.654-0.596-4.475-2.544-4.066-4.352
			C148.131,213.822,150.614,212.843,153.265,213.436z"/>
		<path fill="none" stroke="#000000" stroke-width="2.0114" stroke-linecap="round" d="M139.163,235.456
			c1.246,2.41,0.925,5.057-0.717,5.908c-1.645,0.851-3.99-0.419-5.238-2.832c-1.25-2.414-0.931-5.06,0.714-5.911
			C135.568,231.767,137.911,233.04,139.163,235.456z"/>
		<path fill="none" stroke="#000000" stroke-width="2.0114" stroke-linecap="round" d="M154.799,268.245
			c-1.717-2.106-1.945-4.767-0.508-5.932c1.432-1.172,3.987-0.41,5.705,1.698c1.718,2.107,1.945,4.764,0.512,5.934
			C159.071,271.112,156.516,270.35,154.799,268.245z"/>
		<path fill="none" stroke="#000000" stroke-width="2.0114" stroke-linecap="round" d="M180.78,263.664
			c0.513-2.669,2.397-4.553,4.218-4.204c1.819,0.346,2.877,2.795,2.369,5.463c-0.509,2.669-2.397,4.553-4.213,4.205
			C181.331,268.782,180.272,266.333,180.78,263.664z"/>
		<path fill="none" stroke="#000000" stroke-width="2.0114" stroke-linecap="round" d="M195.911,242.637
			c-1.302,2.388-3.677,3.602-5.299,2.715c-1.626-0.886-1.888-3.541-0.584-5.928c1.303-2.383,3.678-3.6,5.3-2.711
			C196.953,237.6,197.217,240.255,195.911,242.637z"/>
		<path fill="none" stroke="#000000" stroke-width="2.0114" stroke-linecap="round" d="M178.628,221.795
			c-2.662,0.535-5.116-0.501-5.484-2.316c-0.366-1.814,1.503-3.721,4.162-4.257c2.666-0.534,5.121,0.497,5.486,2.314
			C183.159,219.348,181.292,221.257,178.628,221.795z"/>
		<path opacity="0.3" d="M392.999,230.171c-2.282,21.036-16.2,34.237-27.549,44.234c-4.602,4.055-24.648,10.525-40.062,5.516
			c-11.495-3.736-39.794-19.73-41.813-41.828c-0.938-10.28,1.444-17.278,9.085-33.125c8.645-17.928,53.04-13.467,62.896-7.144
			C370.816,207.603,394.63,215.177,392.999,230.171z"/>
		<path opacity="0.3" d="M294.625,249.52c2.642-2.036,5.151-4.175,7.661-6.374c3.76-3.298,4.576-7.31,3.576-10.909
			c3.619-4.07,7.612-7.916,10.799-11.828c7.024-8.621,13.359-17.111,16.713-27.847c-16.125-1.232-35.336,1.251-40.713,12.405
			c-7.641,15.847-10.023,22.845-9.085,33.125c0.452,4.94,2.223,9.576,4.82,13.838C290.677,251.644,292.861,250.877,294.625,249.52z"
			/>
		<path opacity="0.3" d="M372.101,207.064c-4.901,4.796-7.908,11.64-8.79,19.126c1.182-10.043,1.435-5.56-1.366-1.112
			c-1.465,2.326-3.155,4.524-4.76,6.755c-3.432,4.773-6.565,9.764-9.743,14.709c-6.95,10.832-11.652,18.242-21.608,25.988
			c-2.049,1.596-3.664,3.529-4.9,5.668c1.657,0.721,3.165,1.303,4.456,1.723c15.413,5.01,35.46-1.461,40.062-5.516
			c11.349-9.997,25.267-23.198,27.549-44.234C394.095,220.09,383.679,213.363,372.101,207.064z"/>
		<path opacity="0.3" d="M371.281,185.7c15.693,10.756,20.253,24.829,21.956,39.858c1.703,15.028-24.504,43.347-36.363,45.679
			c-11.859,2.335-32.072,4.642-49.645-8.911c-17.571-13.552-22.111-25.849-19.873-43.3c1.993-15.532,25.392-43.99,36.633-47.272
			C341.385,166.671,358.839,177.174,371.281,185.7z"/>
		<path opacity="0.3" d="M369.39,188.026c14.751,10.108,19.035,23.335,20.636,37.46c1.602,14.125-23.029,40.737-34.175,42.93
			c-11.145,2.194-30.142,4.362-46.658-8.375c-16.515-12.737-20.781-24.293-18.676-40.692c1.872-14.599,23.86-41.344,34.427-44.429
			C341.293,170.142,357.698,180.012,369.39,188.026z"/>
		<path opacity="0.3" d="M366.694,191.343c13.405,9.184,17.299,21.206,18.753,34.043c1.456,12.833-20.927,37.017-31.055,39.01
			c-10.128,1.994-27.393,3.966-42.399-7.611c-15.005-11.575-18.885-22.077-16.97-36.979c1.7-13.268,21.683-37.568,31.282-40.372
			C341.161,175.091,356.071,184.063,366.694,191.343z"/>
		<path fill="none" stroke="#000000" stroke-width="2.0114" stroke-linecap="round" d="M344.407,191.559
			c2.125-0.304,7.202,6.902,5.154,10.365"/>
		
			<line fill="none" stroke="#000000" stroke-width="2.0114" stroke-linecap="round" x1="349.562" y1="201.925" x2="339.728" y2="215.275"/>
		<path fill="none" stroke="#000000" stroke-width="2.0114" stroke-linecap="round" d="M349.562,201.925
			c0,0,9.654-5.977,10.977,3.847"/>
		
			<line fill="none" stroke="#000000" stroke-width="2.0114" stroke-linecap="round" x1="336.131" y1="230.674" x2="345.952" y2="244.27"/>
		<path fill="none" stroke="#000000" stroke-width="2.0114" stroke-linecap="round" d="M345.952,244.27
			c2.518,2.967-2.205,13.598-8.626,7.996"/>
		<path fill="none" stroke="#000000" stroke-width="2.0114" stroke-linecap="round" d="M345.952,244.27
			c2.433,3.109,10.177,4.393,10.706-3.085"/>
		<path fill="none" stroke="#000000" stroke-width="2.0114" stroke-linecap="round" d="M330.883,225.623
			c0,0-15.647-1.857-19.376-0.164"/>
		<path fill="none" stroke="#000000" stroke-width="2.0114" stroke-linecap="round" d="M311.507,225.459
			c-5.82,1.347-10.045-6.724-6.267-9.162"/>
		<path fill="none" stroke="#000000" stroke-width="2.0114" stroke-linecap="round" d="M311.507,225.459
			c-3.62,0.506-10.577,7.686-6.125,13.422"/>
		<path fill="none" stroke="#000000" stroke-width="2.0114" stroke-linecap="round" d="M362.286,211.375
			c-0.707,2.623-2.73,4.358-4.519,3.876c-1.785-0.481-2.66-2.999-1.953-5.623c0.708-2.626,2.733-4.361,4.518-3.881
			C362.121,206.229,362.996,208.749,362.286,211.375z"/>
		
			<ellipse transform="matrix(0.4216 0.9068 -0.9068 0.4216 371.6315 -196.0175)" fill="none" stroke="#000000" stroke-width="2.0114" stroke-linecap="round" cx="339.474" cy="193.314" rx="3.353" ry="4.92"/>
		<path fill="none" stroke="#000000" stroke-width="2.0114" stroke-linecap="round" d="M307.466,210.591
			c2.175-1.627,4.84-1.742,5.947-0.256c1.106,1.48,0.238,4.003-1.941,5.627c-2.176,1.627-4.841,1.742-5.946,0.261
			C304.415,214.739,305.284,212.216,307.466,210.591z"/>
		<path fill="none" stroke="#000000" stroke-width="2.0114" stroke-linecap="round" d="M310.943,236.743
			c2.643,0.623,4.444,2.589,4.021,4.391c-0.422,1.801-2.914,2.758-5.556,2.136c-2.647-0.624-4.45-2.586-4.026-4.389
			C305.808,237.078,308.298,236.123,310.943,236.743z"/>
		<path fill="none" stroke="#000000" stroke-width="2.0114" stroke-linecap="round" d="M331.31,252.748
			c-2.33-1.399-3.444-3.823-2.486-5.411c0.953-1.584,3.614-1.731,5.943-0.33c2.33,1.401,3.442,3.827,2.487,5.413
			C336.298,254.004,333.637,254.152,331.31,252.748z"/>
		
			<ellipse transform="matrix(-0.9878 0.1559 -0.1559 -0.9878 744.7594 413.2852)" fill="none" stroke="#000000" stroke-width="2.0114" stroke-linecap="round" cx="356.177" cy="235.842" rx="3.352" ry="4.921"/>
		<path opacity="0.3" d="M279.143,313.463c-2.284,21.036-16.201,34.237-27.55,44.234c-4.601,4.054-24.647,10.524-40.063,5.514
			c-11.495-3.735-39.794-19.729-41.812-41.829c-0.938-10.277,1.445-17.277,9.087-33.124c8.642-17.927,53.039-13.465,62.896-7.144
			C256.957,290.894,280.773,298.469,279.143,313.463z"/>
		<path opacity="0.3" d="M180.768,332.811c2.641-2.036,5.15-4.174,7.662-6.373c3.76-3.298,4.573-7.313,3.577-10.91
			c3.616-4.071,7.609-7.916,10.798-11.827c7.022-8.622,13.358-17.112,16.712-27.847c-16.126-1.233-35.336,1.25-40.711,12.403
			c-7.642,15.847-10.025,22.847-9.087,33.124c0.452,4.943,2.224,9.577,4.821,13.839
			C176.821,334.933,179.004,334.169,180.768,332.811z"/>
		<path opacity="0.3" d="M258.244,290.355c-4.903,4.794-7.91,11.64-8.792,19.125c1.184-10.043,1.437-5.558-1.364-1.111
			c-1.467,2.324-3.156,4.525-4.76,6.755c-3.434,4.774-6.566,9.762-9.743,14.71c-6.952,10.832-11.653,18.241-21.61,25.987
			c-2.049,1.596-3.663,3.528-4.898,5.669c1.655,0.72,3.165,1.302,4.454,1.721c15.415,5.011,35.462-1.46,40.063-5.514
			c11.349-9.997,25.266-23.198,27.55-44.234C280.238,303.382,269.823,296.655,258.244,290.355z"/>
		<path opacity="0.3" d="M257.423,268.99c15.693,10.758,20.253,24.831,21.958,39.858c1.701,15.029-24.504,43.348-36.364,45.68
			c-11.861,2.336-32.073,4.641-49.646-8.91c-17.571-13.554-22.111-25.85-19.872-43.3c1.994-15.534,25.391-43.99,36.632-47.274
			C227.528,249.962,244.982,260.464,257.423,268.99z"/>
		<path opacity="0.3" d="M255.533,271.316c14.749,10.11,19.033,23.335,20.634,37.461c1.603,14.124-23.029,40.738-34.175,42.931
			c-11.145,2.194-30.142,4.362-46.656-8.375c-16.515-12.738-20.782-24.295-18.677-40.694c1.872-14.598,23.861-41.343,34.428-44.428
			C227.435,253.433,243.84,263.304,255.533,271.316z"/>
		<path opacity="0.3" d="M252.836,274.634c13.404,9.183,17.298,21.207,18.752,34.042c1.456,12.833-20.925,37.017-31.054,39.009
			c-10.129,1.996-27.393,3.968-42.398-7.609c-15.006-11.575-18.886-22.077-16.971-36.979c1.7-13.267,21.684-37.569,31.283-40.372
			C227.304,258.382,242.213,267.353,252.836,274.634z"/>
		<path fill="none" stroke="#000000" stroke-width="2.0114" stroke-linecap="round" d="M230.548,274.85
			c2.128-0.303,7.203,6.903,5.155,10.364"/>
		
			<line fill="none" stroke="#000000" stroke-width="2.0114" stroke-linecap="round" x1="235.703" y1="285.215" x2="225.871" y2="298.566"/>
		<path fill="none" stroke="#000000" stroke-width="2.0114" stroke-linecap="round" d="M235.703,285.215
			c0,0,9.654-5.976,10.977,3.848"/>
		
			<line fill="none" stroke="#000000" stroke-width="2.0114" stroke-linecap="round" x1="222.275" y1="313.966" x2="232.094" y2="327.56"/>
		<path fill="none" stroke="#000000" stroke-width="2.0114" stroke-linecap="round" d="M232.094,327.56
			c2.518,2.968-2.202,13.599-8.626,7.998"/>
		<path fill="none" stroke="#000000" stroke-width="2.0114" stroke-linecap="round" d="M232.094,327.56
			c2.433,3.111,10.178,4.394,10.706-3.083"/>
		<path fill="none" stroke="#000000" stroke-width="2.0114" stroke-linecap="round" d="M217.026,308.913
			c0,0-15.648-1.855-19.375-0.163"/>
		<path fill="none" stroke="#000000" stroke-width="2.0114" stroke-linecap="round" d="M197.651,308.75
			c-5.821,1.345-10.047-6.726-6.268-9.163"/>
		<path fill="none" stroke="#000000" stroke-width="2.0114" stroke-linecap="round" d="M197.651,308.75
			c-3.622,0.505-10.579,7.685-6.125,13.423"/>
		
			<ellipse transform="matrix(0.9655 0.2603 -0.2603 0.9655 84.9196 -53.6931)" fill="none" stroke="#000000" stroke-width="2.0114" stroke-linecap="round" cx="245.193" cy="293.791" rx="3.352" ry="4.92"/>
		<path fill="none" stroke="#000000" stroke-width="2.0114" stroke-linecap="round" d="M227.03,279.644
			c-2.463,1.146-5.095,0.711-5.875-0.967c-0.782-1.678,0.588-3.966,3.048-5.113c2.468-1.146,5.097-0.715,5.877,0.965
			C230.863,276.209,229.493,278.499,227.03,279.644z"/>
		<path fill="none" stroke="#000000" stroke-width="2.0114" stroke-linecap="round" d="M193.608,293.882
			c2.175-1.627,4.841-1.743,5.948-0.256c1.105,1.479,0.239,4.001-1.94,5.628c-2.178,1.627-4.843,1.741-5.946,0.258
			C190.559,298.028,191.426,295.506,193.608,293.882z"/>
		
			<ellipse transform="matrix(0.2288 -0.9735 0.9735 0.2288 -163.324 440.423)" fill="none" stroke="#000000" stroke-width="2.0114" stroke-linecap="round" cx="196.318" cy="323.296" rx="3.352" ry="4.922"/>
		
			<ellipse transform="matrix(-0.516 0.8566 -0.8566 -0.516 617.6644 317.3239)" fill="none" stroke="#000000" stroke-width="2.0114" stroke-linecap="round" cx="219.18" cy="333.168" rx="3.35" ry="4.921"/>
		<path fill="none" stroke="#000000" stroke-width="2.0114" stroke-linecap="round" d="M239.008,319.655
			c-0.426-2.683,0.719-5.094,2.544-5.386c1.829-0.288,3.654,1.658,4.078,4.342c0.423,2.682-0.714,5.096-2.543,5.382
			C241.257,324.283,239.434,322.338,239.008,319.655z"/>
		<path opacity="0.3" d="M317.463,226.926c0-0.004,0-0.01,0.001-0.014c-0.015-2.243-0.312-4.142-0.852-5.783
			c-1.625-8.403-5-16.443-11.63-22.482c-8.659-7.888-45.137-13.038-59.435-6.649c-6.415,2.864-11.546,6.247-15.571,10.655
			c-0.011,0.007-0.02,0.014-0.03,0.02c-9.449,6.552-12.118,16.332-17.827,27.929c-3.564,7.24-2.81,23.958-0.49,30.621
			c0.676,10.735,21.901,26.839,35.347,32.911c-0.021,0.034-0.049,0.087-0.067,0.122c1.277,0.507,2.435,0.918,3.522,1.278
			c0.468,0.16,0.924,0.312,1.356,0.437c10.161,2.963,19.141,3.359,25.765,2.24c-0.055-0.156-0.101-0.317-0.155-0.475
			c-0.962-2.406-1.954-4.799-2.976-7.182c-1.09-2.334-2.058-4.741-3.076-7.114c-0.321-0.747-0.55-1.478-0.732-2.196
			c-1.396-2.722-2.657-5.51-3.539-8.484c-3.96-13.334,13.292-25.445,22.384-12.773c0.416,0.578,0.82,1.167,1.23,1.751
			c2.59,0.113,5.12,0.965,7.073,2.696c0.646,0.573,1.307,1.128,1.978,1.67c3.106,1.928,6,4.073,8.87,6.292
			c5.074-6.884,8.524-15.206,9.101-26.113C318.02,240.374,318.178,233.651,317.463,226.926z"/>
		<path opacity="0.3" d="M310.859,220.258c0.149,22.913-8.863,46.81-20.815,58.007c-4.85,4.541-28.008,15.964-44.86,11.051
			c-12.567-3.663-40.356-23.281-40.195-35.377c0.149-11.177-0.536-29.336,10.673-44.746c14.47-19.901,50.261-20.022,61.139-13.504
			C293.64,205.77,310.745,202.784,310.859,220.258z"/>
		<path opacity="0.3" d="M212.546,253.665c2.79-2.289,5.438-4.686,8.082-7.146c3.962-3.697,4.713-8.071,3.512-11.932
			c3.78-4.525,7.979-8.822,11.302-13.161c7.313-9.568,13.895-18.967,17.172-30.697c-1.958-6.072-11.139-7.281-29.271,5.29
			c-9.45,6.549-12.12,16.331-17.828,27.927c-3.977,8.081-2.585,28.01,0.369,32.535C208.341,256.095,210.681,255.197,212.546,253.665
			z"/>
		<path opacity="0.3" d="M295.015,205.145c-5.147,5.353-8.179,12.86-8.884,20.993c0.948-10.907,1.369-6.063-1.515-1.157
			c-1.51,2.567-3.266,5-4.931,7.47c-3.555,5.278-6.786,10.787-10.06,16.247c-7.17,11.956-12.014,20.129-22.536,28.846
			c-2.167,1.796-5.519,7.693-6.787,10.054c1.815,0.724,3.469,1.307,4.88,1.718c16.853,4.913,30.498,2.8,35.428-1.655
			c30.091-27.184,28.108-35.958,29.888-58.803C311.35,217.904,307.757,211.581,295.015,205.145z"/>
		<path opacity="0.3" d="M311.103,239.626c-1.005,18.998-10.647,30.222-22.588,39.503c-11.943,9.282-49.764,1.66-57.934-7.248
			c-8.17-8.907-20.665-24.962-18.25-47.021c2.417-22.062,10.551-32.339,26.612-39.519c14.299-6.387,50.775-1.236,59.435,6.649
			C311.779,204.194,311.9,224.563,311.103,239.626z"/>
		<path opacity="0.3" d="M308.134,239.223c-0.946,17.857-10.007,28.402-21.232,37.127c-11.221,8.724-46.769,1.558-54.446-6.813
			c-7.679-8.372-19.424-23.459-17.151-44.194c2.272-20.729,9.915-30.393,25.013-37.135c13.436-6.006,47.719-1.166,55.855,6.246
			C308.764,205.923,308.884,225.068,308.134,239.223z"/>
		<path opacity="0.3" d="M303.901,238.651c-0.861,16.224-9.095,25.81-19.296,33.736c-10.194,7.929-42.498,1.416-49.477-6.193
			c-6.979-7.604-17.652-21.314-15.585-40.157c2.064-18.836,9.01-27.618,22.729-33.747c12.21-5.457,43.364-1.058,50.758,5.678
			C304.474,208.388,304.58,225.786,303.901,238.651z"/>
		<path fill="none" stroke="#000000" stroke-width="2.0114" stroke-linecap="round" d="M238.125,205.876
			c0.738-2.017,9.484-3.089,11.571,0.35"/>
		
			<line fill="none" stroke="#000000" stroke-width="2.0114" stroke-linecap="round" x1="249.697" y1="206.225" x2="256.822" y2="221.195"/>
		<path fill="none" stroke="#000000" stroke-width="2.0114" stroke-linecap="round" d="M249.697,206.225
			c0,0-0.711-11.333,8.573-7.861"/>
		
			<line fill="none" stroke="#000000" stroke-width="2.0114" stroke-linecap="round" x1="268.695" y1="231.638" x2="285.317" y2="229.404"/>
		<path fill="none" stroke="#000000" stroke-width="2.0114" stroke-linecap="round" d="M285.317,229.404
			c3.807-0.819,10.95,8.363,2.978,11.38"/>
		<path fill="none" stroke="#000000" stroke-width="2.0114" stroke-linecap="round" d="M285.317,229.404
			c3.892-0.679,8.68-6.899,2.338-10.896"/>
		<path fill="none" stroke="#000000" stroke-width="2.0114" stroke-linecap="round" d="M261.765,233.88
			c0,0-9.023,12.917-9.293,16.999"/>
		<path fill="none" stroke="#000000" stroke-width="2.0114" stroke-linecap="round" d="M252.472,250.879
			c-1.563,5.769-10.671,5.683-11.035,1.202"/>
		<path fill="none" stroke="#000000" stroke-width="2.0114" stroke-linecap="round" d="M252.472,250.879
			c-1.265,3.435,1.777,12.956,8.94,11.742"/>
		<path fill="none" stroke="#000000" stroke-width="2.0114" stroke-linecap="round" d="M264.036,199.47
			c1.977,1.861,2.552,4.463,1.281,5.815c-1.267,1.346-3.9,0.928-5.879-0.936c-1.98-1.864-2.556-4.467-1.284-5.815
			C259.421,197.187,262.056,197.607,264.036,199.47z"/>
		<path fill="none" stroke="#000000" stroke-width="2.0114" stroke-linecap="round" d="M240.689,211.242
			c-0.154,2.711-1.777,4.825-3.626,4.724c-1.848-0.104-3.22-2.394-3.066-5.106c0.155-2.711,1.776-4.827,3.624-4.723
			C239.471,206.24,240.841,208.528,240.689,211.242z"/>
		<path fill="none" stroke="#000000" stroke-width="2.0114" stroke-linecap="round" d="M237.458,247.426
			c-0.408-2.687,0.75-5.094,2.58-5.365c1.829-0.277,3.643,1.679,4.046,4.367c0.408,2.688-0.75,5.09-2.579,5.367
			C239.673,252.07,237.863,250.114,237.458,247.426z"/>
		<path fill="none" stroke="#000000" stroke-width="2.0114" stroke-linecap="round" d="M262.15,256.708
			c1.801-2.034,4.382-2.698,5.771-1.473c1.391,1.225,1.055,3.871-0.741,5.909c-1.797,2.038-4.382,2.699-5.768,1.477
			C260.022,261.393,260.355,258.747,262.15,256.708z"/>
		<path fill="none" stroke="#000000" stroke-width="2.0114" stroke-linecap="round" d="M285.877,246.312
			c-2.334,1.393-4.997,1.229-5.943-0.359c-0.946-1.592,0.18-4.009,2.516-5.398c2.335-1.39,4.999-1.228,5.944,0.362
			C289.34,242.507,288.215,244.926,285.877,246.312z"/>
		<path fill="none" stroke="#000000" stroke-width="2.0114" stroke-linecap="round" d="M281.612,219.574
			c-2.564-0.896-4.149-3.036-3.542-4.786c0.61-1.747,3.188-2.438,5.749-1.545c2.569,0.896,4.157,3.036,3.545,4.785
			C286.757,219.776,284.18,220.468,281.612,219.574z"/>
		<path opacity="0.3" d="M205.656,95.046c14.897,12.108,25.547,30.666,26.42,44.36c0.354,5.554-4.599,26.617-16.753,34.896
			c-9.063,6.173-36.554,13.692-44.288,7.142c-7.146-6.05-19.256-15.278-23.249-30.736c-5.159-19.96,13.827-43.166,23.84-46.729
			C187.115,98.461,194.296,85.81,205.656,95.046z"/>
		<path opacity="0.3" d="M174.884,176.413c0.006-3.023-0.133-6.013-0.316-9.032c-0.278-4.532-2.706-7.348-5.843-8.628
			c-0.913-4.856-1.457-9.859-2.49-14.32c-2.29-9.826-4.862-19.088-10.7-27.456c-4.97-1.97-10.644,3.323-12.173,21.744
			c-0.801,9.6,4.102,16.538,8.56,26.408c3.107,6.874,16.733,16.59,21.234,17.091C174.216,180.425,174.88,178.435,174.884,176.413z"
			/>
		<path opacity="0.3" d="M187.443,97.238c0.721,6.182,3.96,12.14,8.843,16.93c-6.547-6.425-3.19-4.115-1.555,0.363
			c0.855,2.344,1.494,4.775,2.205,7.166c1.52,5.112,3.357,10.136,5.145,15.161c3.911,11.005,6.616,18.491,6.646,29.94
			c0.007,2.355,2.036,7.667,2.888,9.742c1.434-0.786,2.691-1.544,3.708-2.238c12.154-8.279,18.059-18.229,17.805-23.789
			c-1.546-33.938-8.277-37.334-22.102-50.655C204.398,93.473,198.393,92.428,187.443,97.238z"/>
		<path opacity="0.3" d="M218.311,105.207c11.749,10.77,13.869,22.984,13.511,35.648c-0.36,12.668-25.438,33.062-35.55,33.6
			c-10.112,0.538-27.151,0.065-40.128-13.248c-12.977-13.315-15.291-24.052-11.376-38.261c3.487-12.648,26.25-33.492,35.961-34.89
			C195.759,85.891,208.995,96.665,218.311,105.207z"/>
		<path opacity="0.3" d="M216.469,106.909c11.043,10.125,13.035,21.603,12.696,33.509c-0.338,11.904-23.908,31.072-33.413,31.577
			c-9.501,0.506-25.515,0.063-37.711-12.454c-12.195-12.512-14.373-22.603-10.69-35.955c3.274-11.889,24.67-31.479,33.798-32.791
			C195.272,88.762,207.715,98.885,216.469,106.909z"/>
		<path opacity="0.3" d="M213.841,109.341c10.035,9.203,11.846,19.633,11.537,30.453c-0.305,10.814-21.725,28.234-30.361,28.691
			c-8.637,0.462-23.188,0.061-34.271-11.315c-11.08-11.368-13.059-20.538-9.711-32.675c2.974-10.801,22.416-28.604,30.71-29.797
			C194.579,92.851,205.887,102.05,213.841,109.341z"/>
		<path fill="none" stroke="#000000" stroke-width="2.0114" stroke-linecap="round" d="M157.609,134.414
			c-0.91-1.55,3.056-7.778,6.392-7.296"/>
		
			<line fill="none" stroke="#000000" stroke-width="2.0114" stroke-linecap="round" x1="164" y1="127.118" x2="177.476" y2="130.485"/>
		<path fill="none" stroke="#000000" stroke-width="2.0114" stroke-linecap="round" d="M164,127.118c0,0-7.706-5.578-0.516-9.73"/>
		
			<line fill="none" stroke="#000000" stroke-width="2.0114" stroke-linecap="round" x1="190.555" y1="128.372" x2="197.963" y2="116.432"/>
		<path fill="none" stroke="#000000" stroke-width="2.0114" stroke-linecap="round" d="M197.963,116.432
			c1.499-2.896,11.242-2.625,8.945,4.139"/>
		<path fill="none" stroke="#000000" stroke-width="2.0114" stroke-linecap="round" d="M197.963,116.432
			c1.635-2.875,0.163-9.287-5.8-7.314"/>
		<path fill="none" stroke="#000000" stroke-width="2.0114" stroke-linecap="round" d="M188.311,134.049
			c0,0,3.546,12.714,6.042,15.064"/>
		<path fill="none" stroke="#000000" stroke-width="2.0114" stroke-linecap="round" d="M194.353,149.113
			c2.897,4.081-2.011,9.927-5.102,7.775"/>
		<path fill="none" stroke="#000000" stroke-width="2.0114" stroke-linecap="round" d="M194.353,149.113
			c1.547,2.647,9.325,5.751,12.354,0.474"/>
		<path fill="none" stroke="#000000" stroke-width="2.0114" stroke-linecap="round" d="M167.272,114.248
			c2.257-0.287,4.247,0.727,4.442,2.269c0.195,1.537-1.477,3.016-3.737,3.303c-2.26,0.287-4.249-0.728-4.442-2.266
			C163.336,116.014,165.013,114.536,167.272,114.248z"/>
		
			<ellipse transform="matrix(0.6787 -0.7344 0.7344 0.6787 -49.5322 162.1278)" fill="none" stroke="#000000" stroke-width="2.0114" stroke-linecap="round" cx="160.539" cy="137.677" rx="2.808" ry="4.125"/>
		<path fill="none" stroke="#000000" stroke-width="2.0114" stroke-linecap="round" d="M184.12,156.981
			c-1.954-1.169-2.894-3.2-2.094-4.528c0.795-1.33,3.025-1.461,4.979-0.288c1.954,1.167,2.893,3.197,2.097,4.527
			C188.304,158.022,186.073,158.15,184.12,156.981z"/>
		<path fill="none" stroke="#000000" stroke-width="2.0114" stroke-linecap="round" d="M203.277,145.958
			c-0.355-2.246,0.59-4.269,2.123-4.514c1.533-0.248,3.065,1.379,3.426,3.627c0.361,2.246-0.589,4.271-2.118,4.516
			C205.173,149.831,203.64,148.208,203.277,145.958z"/>
		<path fill="none" stroke="#000000" stroke-width="2.0114" stroke-linecap="round" d="M209.196,125.079
			c-0.343,2.251-1.866,3.886-3.399,3.649c-1.533-0.234-2.494-2.249-2.151-4.501c0.346-2.251,1.87-3.888,3.402-3.648
			C208.58,120.813,209.545,122.829,209.196,125.079z"/>
		<path fill="none" stroke="#000000" stroke-width="2.0114" stroke-linecap="round" d="M189.634,113.593
			c-1.945,1.182-4.174,1.065-4.98-0.26s0.121-3.357,2.063-4.54c1.947-1.185,4.177-1.07,4.98,0.257
			C192.506,110.374,191.579,112.408,189.634,113.593z"/>
	</g>
	<g>
		<g>
			<g>
				<path fill="#39680C" d="M158.358,164.992c8.742,19.268,3.481,37.716-1.195,52.098c-1.898,5.831-15.859,21.604-31.678,25.139
					c-11.795,2.637-44.296,3.274-57.281-14.72c-6.04-8.369-7.551-15.606-9.041-33.136c-1.687-19.831,38.798-38.591,50.5-38.167
					C127.775,156.859,152.127,151.255,158.358,164.992z"/>
				<path fill="#2B5407" d="M83.531,231.721c1.235-3.097,2.31-6.215,3.352-9.384c1.557-4.754,0.215-8.625-2.475-11.213
					c1.041-5.345,2.521-10.688,3.274-15.677c1.655-10.996,2.787-21.528,0.209-32.476c-14.509,7.146-29.778,19.063-28.729,31.4
					c1.49,17.529,3.001,24.767,9.041,33.136c2.905,4.024,6.788,7.11,11.194,9.457C81.212,235.559,82.703,233.789,83.531,231.721z"/>
				<path fill="#2B5407" d="M128.608,155.74c-1.779,6.622-0.885,14.044,2.167,20.937c-4.094-9.246-1.593-5.515-1.741-0.262
					c-0.077,2.748-0.414,5.5-0.656,8.237c-0.524,5.856-0.684,11.746-0.9,17.621c-0.469,12.861-0.745,21.633-5.372,33.369
					c-0.95,2.415-1.357,4.901-1.331,7.373c1.791-0.224,3.387-0.491,4.711-0.787c15.818-3.534,29.779-19.308,31.678-25.139
					c4.677-14.382,9.938-32.83,1.195-52.098C154.167,155.756,141.781,155.268,128.608,155.74z"/>
				<path fill="#498117" d="M117.025,137.768c18.984,1.27,30.073,11.062,39.189,23.13c9.115,12.07,0.975,49.784-8.048,57.829
					c-9.019,8.047-25.244,20.32-47.268,17.601c-22.023-2.721-32.19-10.993-39.146-27.153c-6.192-14.386-0.54-50.79,7.466-59.338
					C81.607,136.606,101.976,136.762,117.025,137.768z"/>
				<path fill="#DAE790" d="M116.581,140.732c17.842,1.193,28.264,10.397,36.83,21.739c8.568,11.344,0.916,46.789-7.563,54.351
					c-8.476,7.561-23.725,19.097-44.425,16.539c-20.697-2.557-30.254-10.331-36.788-25.519c-5.82-13.52-0.507-47.732,7.017-55.766
					C83.293,139.641,102.439,139.788,116.581,140.732z"/>
				<path fill="#E9F8C1" d="M115.949,144.959c16.212,1.082,25.684,9.449,33.469,19.757c7.787,10.306,0.831,42.516-6.872,49.386
					c-7.702,6.873-21.559,17.356-40.369,15.033c-18.809-2.325-27.492-9.391-33.432-23.192c-5.288-12.283-0.46-43.375,6.376-50.674
					C85.698,143.968,103.099,144.1,115.949,144.959z"/>
				<g>
					<path fill="none" stroke="#C4DC7A" stroke-width="2.0114" stroke-linecap="round" d="M96.875,156.492
						c1.677-1.345,9.714,2.273,9.714,6.297"/>
					
						<line fill="none" stroke="#C4DC7A" stroke-width="2.0114" stroke-linecap="round" x1="106.589" y1="162.789" x2="104.922" y2="179.286"/>
					<path fill="none" stroke="#C4DC7A" stroke-width="2.0114" stroke-linecap="round" d="M106.589,162.789
						c0,0,5.267-10.057,11.406-2.275"/>
					
						<line fill="none" stroke="#C4DC7A" stroke-width="2.0114" stroke-linecap="round" x1="109.662" y1="194.373" x2="125.036" y2="201.075"/>
					<path fill="none" stroke="#C4DC7A" stroke-width="2.0114" stroke-linecap="round" d="M125.036,201.075
						c3.679,1.273,5.026,12.826-3.353,11.274"/>
					<path fill="none" stroke="#C4DC7A" stroke-width="2.0114" stroke-linecap="round" d="M125.036,201.075
						c3.679,1.439,10.997-1.399,7.646-8.104"/>
					<path fill="none" stroke="#C4DC7A" stroke-width="2.0114" stroke-linecap="round" d="M102.574,192.695
						c0,0-14.414,6.367-16.761,9.722"/>
					<path fill="none" stroke="#C4DC7A" stroke-width="2.0114" stroke-linecap="round" d="M85.814,202.417
						c-4.326,4.121-12.07-0.674-10.059-4.695"/>
					<path fill="none" stroke="#C4DC7A" stroke-width="2.0114" stroke-linecap="round" d="M85.814,202.417
						c-2.858,2.277-5.192,11.999,1.562,14.673"/>
					<path fill="none" stroke="#C4DC7A" stroke-width="2.0114" stroke-linecap="round" d="M122.351,164.445
						c0.729,2.619-0.13,5.144-1.916,5.638c-1.782,0.494-3.816-1.228-4.543-3.845c-0.727-2.622,0.132-5.146,1.915-5.641
						C119.591,160.102,121.625,161.825,122.351,164.445z"/>
					<path fill="none" stroke="#C4DC7A" stroke-width="2.0114" stroke-linecap="round" d="M96.287,162.41
						c-1.539,2.239-4.022,3.204-5.55,2.157c-1.526-1.045-1.515-3.712,0.021-5.95c1.541-2.244,4.023-3.212,5.55-2.162
						C97.836,157.502,97.823,160.168,96.287,162.41z"/>
					<path fill="none" stroke="#C4DC7A" stroke-width="2.0114" stroke-linecap="round" d="M74.765,191.677
						c1.045-2.508,3.281-3.965,4.99-3.247c1.708,0.711,2.244,3.322,1.195,5.831c-1.048,2.509-3.282,3.964-4.988,3.25
						C74.254,196.801,73.716,194.186,74.765,191.677z"/>
					<path fill="none" stroke="#C4DC7A" stroke-width="2.0114" stroke-linecap="round" d="M91.072,212.418
						c2.592-0.811,5.144-0.034,5.698,1.731c0.552,1.766-1.105,3.855-3.697,4.667c-2.595,0.812-5.146,0.041-5.697-1.727
						C86.821,215.319,88.479,213.229,91.072,212.418z"/>
					<path fill="none" stroke="#C4DC7A" stroke-width="2.0114" stroke-linecap="round" d="M116.748,215.827
						c-2.716-0.019-4.908-1.54-4.893-3.393c0.015-1.848,2.229-3.332,4.948-3.309c2.719,0.02,4.91,1.541,4.895,3.392
						C121.684,214.368,119.467,215.851,116.748,215.827z"/>
					<path fill="none" stroke="#C4DC7A" stroke-width="2.0114" stroke-linecap="round" d="M126.963,190.75
						c-1.731-2.093-1.973-4.749-0.55-5.93c1.429-1.178,3.988-0.433,5.717,1.661c1.732,2.095,1.982,4.748,0.553,5.928
						C131.256,193.59,128.697,192.844,126.963,190.75z"/>
				</g>
			</g>
			<g>
				<path fill="#39680C" d="M271.227,169.88c8.743,19.27,3.483,37.716-1.195,52.098c-1.896,5.832-15.858,21.606-31.676,25.141
					c-11.796,2.636-44.296,3.273-57.283-14.721c-6.04-8.369-7.55-15.607-9.04-33.137c-1.688-19.831,38.799-38.591,50.501-38.165
					C240.645,161.748,264.997,156.142,271.227,169.88z"/>
				<path fill="#2B5407" d="M196.402,236.611c1.236-3.099,2.309-6.217,3.35-9.387c1.559-4.753,0.217-8.622-2.475-11.212
					c1.041-5.346,2.521-10.687,3.273-15.677c1.657-10.996,2.788-21.529,0.211-32.476c-14.509,7.146-29.779,19.064-28.729,31.4
					c1.49,17.529,3,24.768,9.04,33.137c2.905,4.023,6.789,7.111,11.195,9.457C194.082,240.446,195.573,238.676,196.402,236.611z"/>
				<path fill="#2B5407" d="M241.477,160.629c-1.777,6.622-0.884,14.045,2.17,20.936c-4.095-9.245-1.596-5.515-1.744-0.26
					c-0.076,2.745-0.412,5.499-0.657,8.237c-0.522,5.854-0.683,11.744-0.897,17.619c-0.469,12.862-0.747,21.634-5.371,33.369
					c-0.952,2.416-1.358,4.901-1.334,7.372c1.793-0.221,3.389-0.488,4.713-0.784c15.817-3.534,29.779-19.309,31.676-25.141
					c4.679-14.382,9.938-32.828,1.195-52.098C267.038,160.642,254.65,160.156,241.477,160.629z"/>
				<path fill="#498117" d="M229.895,142.656c18.984,1.27,30.071,11.063,39.188,23.131c9.116,12.069,0.974,49.782-8.045,57.829
					c-9.021,8.047-25.246,20.32-47.271,17.602c-22.022-2.722-32.19-10.994-39.146-27.155c-6.19-14.384-0.538-50.788,7.468-59.337
					C194.476,141.495,214.846,141.65,229.895,142.656z"/>
				<path fill="#DAE790" d="M229.45,145.622c17.844,1.191,28.264,10.395,36.832,21.739c8.568,11.341,0.914,46.786-7.563,54.349
					c-8.478,7.562-23.724,19.097-44.425,16.541c-20.698-2.559-30.255-10.334-36.788-25.52c-5.822-13.519-0.509-47.733,7.015-55.768
					C196.163,144.531,215.31,144.676,229.45,145.622z"/>
				<path fill="#E9F8C1" d="M228.819,149.847c16.214,1.081,25.684,9.45,33.471,19.758c7.785,10.304,0.831,42.514-6.873,49.384
					c-7.702,6.875-21.56,17.358-40.37,15.032c-18.807-2.323-27.492-9.391-33.43-23.191c-5.29-12.284-0.46-43.373,6.376-50.674
					C198.57,148.855,215.969,148.99,228.819,149.847z"/>
				<g>
					<path fill="none" stroke="#C4DC7A" stroke-width="2.0114" stroke-linecap="round" d="M209.744,161.38
						c1.677-1.344,9.716,2.275,9.716,6.299"/>
					
						<line fill="none" stroke="#C4DC7A" stroke-width="2.0114" stroke-linecap="round" x1="219.46" y1="167.678" x2="217.791" y2="184.175"/>
					<path fill="none" stroke="#C4DC7A" stroke-width="2.0114" stroke-linecap="round" d="M219.46,167.678
						c0,0,5.265-10.059,11.404-2.278"/>
					
						<line fill="none" stroke="#C4DC7A" stroke-width="2.0114" stroke-linecap="round" x1="222.533" y1="199.26" x2="237.906" y2="205.965"/>
					<path fill="none" stroke="#C4DC7A" stroke-width="2.0114" stroke-linecap="round" d="M237.906,205.965
						c3.678,1.271,5.026,12.825-3.353,11.274"/>
					<path fill="none" stroke="#C4DC7A" stroke-width="2.0114" stroke-linecap="round" d="M237.906,205.965
						c3.678,1.438,10.998-1.399,7.647-8.106"/>
					<path fill="none" stroke="#C4DC7A" stroke-width="2.0114" stroke-linecap="round" d="M215.445,197.583
						c0,0-14.414,6.369-16.762,9.724"/>
					<path fill="none" stroke="#C4DC7A" stroke-width="2.0114" stroke-linecap="round" d="M198.683,207.306
						c-4.324,4.119-12.068-0.676-10.058-4.697"/>
					<path fill="none" stroke="#C4DC7A" stroke-width="2.0114" stroke-linecap="round" d="M198.683,207.306
						c-2.856,2.277-5.19,11.998,1.562,14.671"/>
					
						<ellipse transform="matrix(0.9636 -0.2673 0.2673 0.9636 -37.0613 68.2074)" fill="none" stroke="#C4DC7A" stroke-width="2.0114" stroke-linecap="round" cx="231.993" cy="170.229" rx="3.352" ry="4.92"/>
					<path fill="none" stroke="#C4DC7A" stroke-width="2.0114" stroke-linecap="round" d="M209.156,167.299
						c-1.537,2.238-4.022,3.205-5.55,2.158c-1.525-1.047-1.513-3.713,0.023-5.953c1.539-2.241,4.022-3.211,5.549-2.159
						C210.707,162.39,210.695,165.057,209.156,167.299z"/>
					<path fill="none" stroke="#C4DC7A" stroke-width="2.0114" stroke-linecap="round" d="M187.636,196.565
						c1.045-2.506,3.279-3.963,4.99-3.248c1.706,0.711,2.242,3.323,1.195,5.833c-1.048,2.507-3.282,3.963-4.988,3.251
						C187.122,201.687,186.586,199.073,187.636,196.565z"/>
					<path fill="none" stroke="#C4DC7A" stroke-width="2.0114" stroke-linecap="round" d="M203.942,217.305
						c2.594-0.81,5.145-0.034,5.697,1.732c0.553,1.766-1.104,3.856-3.695,4.665c-2.597,0.812-5.146,0.041-5.699-1.726
						C199.692,220.208,201.349,218.119,203.942,217.305z"/>
					
						<ellipse transform="matrix(-0.0083 1 -1 -0.0083 448.9085 -10.4686)" fill="none" stroke="#C4DC7A" stroke-width="2.0114" stroke-linecap="round" cx="229.645" cy="217.364" rx="3.351" ry="4.921"/>
					<path fill="none" stroke="#C4DC7A" stroke-width="2.0114" stroke-linecap="round" d="M239.832,195.639
						c-1.729-2.093-1.973-4.75-0.55-5.931c1.428-1.179,3.988-0.432,5.719,1.661c1.732,2.095,1.981,4.748,0.553,5.928
						C244.125,198.478,241.566,197.733,239.832,195.639z"/>
				</g>
			</g>
			<g>
				<path fill="#39680C" d="M195.478,203.158c11.794,19.647,16.199,44.804,11.611,60.525c-1.861,6.378-15.982,27.999-32.988,32.349
					c-12.682,3.243-46.588,0.503-52.606-9.991c-5.561-9.696-15.395-24.975-13.593-43.947c2.326-24.493,33.071-42.818,45.753-42.745
					C173.281,199.454,186.486,188.176,195.478,203.158z"/>
				<path fill="#2B5407" d="M127.863,281.959c1.237-3.392,2.294-6.802,3.317-10.266c1.528-5.198-0.051-9.346-3.05-12.058
					c0.95-5.818,2.375-11.654,3.025-17.081c1.428-11.958,2.307-23.396-0.844-35.163c-4.775-4.231-13.293-0.597-22.501,19.452
					c-4.8,10.448-2.12,20.225-1.129,33.114c0.689,8.979,12.032,25.423,16.88,27.814C125.48,286.191,127.036,284.226,127.863,281.959
					z"/>
				<path fill="#2B5407" d="M174.147,198.216c-1.705,7.229-0.493,15.232,3.041,22.593c-4.735-9.87-1.908-5.916-1.895-0.226
					c0.007,2.979-0.264,5.969-0.439,8.939c-0.372,6.355-0.351,12.74-0.389,19.105c-0.086,13.941-0.094,23.441-4.715,36.302
					c-0.949,2.647-0.832,9.431-0.723,12.108c1.931-0.301,3.65-0.641,5.073-1.006c17.006-4.35,27.677-13.115,29.653-19.459
					c12.061-38.715,5.89-45.258-4.209-65.828C194.704,200.884,188.391,197.268,174.147,198.216z"/>
				<path fill="#498117" d="M205.548,219.706c8.805,16.864,6.219,31.432,0.665,45.501s-41.989,26.759-53.555,23.25
					c-11.567-3.508-30.495-10.965-39.646-31.183c-9.147-20.219-7.38-33.206,2.792-47.562c9.055-12.776,43.074-26.913,54.54-24.53
					C188.093,188.863,198.567,206.336,205.548,219.706z"/>
				<path fill="#DAE790" d="M202.786,220.87c8.276,15.854,5.846,29.541,0.625,42.766c-5.218,13.22-39.463,25.148-50.333,21.85
					c-10.87-3.296-28.661-10.305-37.26-29.307c-8.597-19-6.938-31.208,2.625-44.697c8.508-12.011,40.482-25.295,51.26-23.058
					C186.378,191.885,196.228,208.305,202.786,220.87z"/>
				<path fill="#E9F8C1" d="M198.851,222.533c7.518,14.403,5.311,26.846,0.564,38.859c-4.739,12.016-35.86,22.854-45.737,19.854
					c-9.88-2.993-26.046-9.359-33.856-26.629c-7.813-17.265-6.305-28.36,2.384-40.619c7.731-10.911,36.787-22.984,46.579-20.95
					C183.941,196.194,192.89,211.115,198.851,222.533z"/>
				<g>
					<path fill="none" stroke="#C4DC7A" stroke-width="2.0114" stroke-linecap="round" d="M125.553,227.803
						c-0.394-2.111,6.591-7.488,10.138-5.59"/>
					
						<line fill="none" stroke="#C4DC7A" stroke-width="2.0114" stroke-linecap="round" x1="135.691" y1="222.214" x2="149.444" y2="231.473"/>
					<path fill="none" stroke="#C4DC7A" stroke-width="2.0114" stroke-linecap="round" d="M135.691,222.214
						c0,0-6.381-9.391,3.377-11.128"/>
					
						<line fill="none" stroke="#C4DC7A" stroke-width="2.0114" stroke-linecap="round" x1="164.98" y1="234.418" x2="178.15" y2="224.032"/>
					<path fill="none" stroke="#C4DC7A" stroke-width="2.0114" stroke-linecap="round" d="M178.15,224.032
						c2.859-2.641,13.681,1.627,8.354,8.28"/>
					<path fill="none" stroke="#C4DC7A" stroke-width="2.0114" stroke-linecap="round" d="M178.15,224.032
						c3.004-2.563,3.959-10.354-3.534-10.568"/>
					<path fill="none" stroke="#C4DC7A" stroke-width="2.0114" stroke-linecap="round" d="M160.154,239.875
						c0,0-1.19,15.712,0.656,19.362"/>
					<path fill="none" stroke="#C4DC7A" stroke-width="2.0114" stroke-linecap="round" d="M160.81,259.237
						c1.592,5.762-6.292,10.325-8.887,6.652"/>
					<path fill="none" stroke="#C4DC7A" stroke-width="2.0114" stroke-linecap="round" d="M160.81,259.237
						c0.659,3.601,8.125,10.247,13.672,5.555"/>
					<path fill="none" stroke="#C4DC7A" stroke-width="2.0114" stroke-linecap="round" d="M144.593,209.1
						c2.65,0.597,4.47,2.543,4.063,4.354c-0.404,1.804-2.883,2.784-5.534,2.187c-2.654-0.596-4.475-2.544-4.066-4.352
						C139.459,209.486,141.942,208.507,144.593,209.1z"/>
					<path fill="none" stroke="#C4DC7A" stroke-width="2.0114" stroke-linecap="round" d="M130.491,231.12
						c1.246,2.41,0.925,5.057-0.717,5.908c-1.645,0.851-3.99-0.419-5.238-2.832c-1.25-2.414-0.931-5.06,0.714-5.911
						C126.896,227.431,129.24,228.704,130.491,231.12z"/>
					<path fill="none" stroke="#C4DC7A" stroke-width="2.0114" stroke-linecap="round" d="M146.127,263.909
						c-1.717-2.106-1.945-4.767-0.508-5.932c1.432-1.172,3.987-0.41,5.705,1.698c1.718,2.107,1.945,4.764,0.512,5.934
						C150.399,266.776,147.844,266.014,146.127,263.909z"/>
					<path fill="none" stroke="#C4DC7A" stroke-width="2.0114" stroke-linecap="round" d="M172.108,259.328
						c0.513-2.669,2.397-4.553,4.218-4.204c1.819,0.346,2.877,2.795,2.369,5.463c-0.509,2.669-2.397,4.553-4.213,4.205
						C172.659,264.446,171.6,261.997,172.108,259.328z"/>
					<path fill="none" stroke="#C4DC7A" stroke-width="2.0114" stroke-linecap="round" d="M187.24,238.302
						c-1.302,2.388-3.677,3.602-5.299,2.715c-1.626-0.886-1.888-3.541-0.584-5.928c1.303-2.383,3.678-3.6,5.3-2.711
						C188.281,233.264,188.545,235.919,187.24,238.302z"/>
					<path fill="none" stroke="#C4DC7A" stroke-width="2.0114" stroke-linecap="round" d="M169.956,217.459
						c-2.662,0.535-5.116-0.501-5.484-2.316c-0.366-1.814,1.503-3.721,4.162-4.257c2.666-0.534,5.121,0.497,5.486,2.314
						C174.488,215.012,172.62,216.921,169.956,217.459z"/>
				</g>
			</g>
			<g>
				<path fill="#39680C" d="M384.327,225.835c-2.282,21.036-16.2,34.237-27.549,44.234c-4.602,4.055-24.648,10.525-40.062,5.516
					c-11.495-3.736-39.794-19.73-41.813-41.828c-0.938-10.28,1.444-17.278,9.085-33.125c8.645-17.928,53.04-13.467,62.896-7.144
					C362.144,203.267,385.958,210.841,384.327,225.835z"/>
				<path fill="#2B5407" d="M285.953,245.184c2.642-2.036,5.151-4.175,7.661-6.374c3.76-3.298,4.576-7.31,3.576-10.909
					c3.619-4.07,7.612-7.916,10.799-11.828c7.024-8.621,13.359-17.111,16.713-27.847c-16.125-1.232-35.336,1.251-40.713,12.405
					c-7.641,15.847-10.023,22.845-9.085,33.125c0.452,4.94,2.223,9.576,4.82,13.838
					C282.005,247.308,284.189,246.541,285.953,245.184z"/>
				<path fill="#2B5407" d="M363.429,202.728c-4.901,4.796-7.908,11.64-8.79,19.126c1.182-10.043,1.435-5.56-1.366-1.112
					c-1.465,2.326-3.155,4.524-4.76,6.755c-3.432,4.773-6.565,9.764-9.743,14.709c-6.95,10.832-11.652,18.242-21.608,25.988
					c-2.049,1.596-3.664,3.529-4.9,5.668c1.657,0.721,3.165,1.303,4.456,1.723c15.413,5.01,35.46-1.461,40.062-5.516
					c11.349-9.997,25.267-23.198,27.549-44.234C385.423,215.754,375.007,209.027,363.429,202.728z"/>
				<path fill="#498117" d="M362.61,181.364c15.693,10.756,20.253,24.829,21.956,39.858c1.703,15.028-24.504,43.347-36.363,45.679
					c-11.859,2.335-32.072,4.642-49.645-8.911c-17.571-13.552-22.111-25.849-19.873-43.3c1.993-15.532,25.392-43.99,36.633-47.272
					C332.713,162.335,350.167,172.838,362.61,181.364z"/>
				<path fill="#DAE790" d="M360.718,183.69c14.751,10.108,19.035,23.335,20.636,37.46c1.602,14.125-23.029,40.737-34.175,42.93
					c-11.145,2.194-30.142,4.362-46.658-8.375c-16.515-12.737-20.781-24.293-18.676-40.692c1.872-14.599,23.86-41.344,34.427-44.429
					C332.621,165.806,349.027,175.677,360.718,183.69z"/>
				<path fill="#E9F8C1" d="M358.022,187.007c13.405,9.184,17.299,21.206,18.753,34.043c1.456,12.833-20.927,37.017-31.055,39.01
					c-10.128,1.994-27.393,3.966-42.399-7.611c-15.005-11.575-18.885-22.077-16.97-36.979c1.7-13.268,21.683-37.568,31.282-40.372
					C332.49,170.755,347.399,179.727,358.022,187.007z"/>
				<g>
					<path fill="none" stroke="#C4DC7A" stroke-width="2.0114" stroke-linecap="round" d="M335.736,187.223
						c2.125-0.304,7.202,6.902,5.154,10.365"/>
					
						<line fill="none" stroke="#C4DC7A" stroke-width="2.0114" stroke-linecap="round" x1="340.89" y1="197.589" x2="331.056" y2="210.939"/>
					<path fill="none" stroke="#C4DC7A" stroke-width="2.0114" stroke-linecap="round" d="M340.89,197.589
						c0,0,9.654-5.977,10.977,3.847"/>
					
						<line fill="none" stroke="#C4DC7A" stroke-width="2.0114" stroke-linecap="round" x1="327.459" y1="226.338" x2="337.281" y2="239.934"/>
					<path fill="none" stroke="#C4DC7A" stroke-width="2.0114" stroke-linecap="round" d="M337.281,239.934
						c2.518,2.967-2.205,13.598-8.626,7.996"/>
					<path fill="none" stroke="#C4DC7A" stroke-width="2.0114" stroke-linecap="round" d="M337.281,239.934
						c2.433,3.109,10.177,4.393,10.706-3.085"/>
					<path fill="none" stroke="#C4DC7A" stroke-width="2.0114" stroke-linecap="round" d="M322.211,221.287
						c0,0-15.647-1.857-19.376-0.164"/>
					<path fill="none" stroke="#C4DC7A" stroke-width="2.0114" stroke-linecap="round" d="M302.835,221.123
						c-5.82,1.347-10.045-6.724-6.267-9.162"/>
					<path fill="none" stroke="#C4DC7A" stroke-width="2.0114" stroke-linecap="round" d="M302.835,221.123
						c-3.62,0.506-10.577,7.686-6.125,13.422"/>
					<path fill="none" stroke="#C4DC7A" stroke-width="2.0114" stroke-linecap="round" d="M353.615,207.039
						c-0.707,2.623-2.73,4.358-4.519,3.876c-1.785-0.481-2.66-2.999-1.953-5.623c0.708-2.626,2.733-4.361,4.518-3.881
						C353.449,201.893,354.324,204.413,353.615,207.039z"/>
					
						<ellipse transform="matrix(0.4216 0.9068 -0.9068 0.4216 362.6843 -190.6619)" fill="none" stroke="#C4DC7A" stroke-width="2.0114" stroke-linecap="round" cx="330.802" cy="188.978" rx="3.353" ry="4.92"/>
					<path fill="none" stroke="#C4DC7A" stroke-width="2.0114" stroke-linecap="round" d="M298.794,206.255
						c2.175-1.627,4.84-1.742,5.947-0.256c1.106,1.48,0.238,4.003-1.941,5.627c-2.176,1.627-4.841,1.742-5.946,0.261
						C295.743,210.403,296.613,207.88,298.794,206.255z"/>
					<path fill="none" stroke="#C4DC7A" stroke-width="2.0114" stroke-linecap="round" d="M302.271,232.407
						c2.643,0.623,4.444,2.589,4.021,4.391c-0.422,1.801-2.914,2.758-5.556,2.136c-2.647-0.624-4.45-2.586-4.026-4.389
						C297.136,232.742,299.626,231.787,302.271,232.407z"/>
					<path fill="none" stroke="#C4DC7A" stroke-width="2.0114" stroke-linecap="round" d="M322.638,248.412
						c-2.33-1.399-3.444-3.823-2.486-5.411c0.953-1.584,3.614-1.731,5.943-0.33c2.33,1.401,3.442,3.827,2.487,5.413
						C327.626,249.668,324.965,249.816,322.638,248.412z"/>
					
						<ellipse transform="matrix(-0.9878 0.1559 -0.1559 -0.9878 726.8458 406.0179)" fill="none" stroke="#C4DC7A" stroke-width="2.0114" stroke-linecap="round" cx="347.505" cy="231.506" rx="3.352" ry="4.921"/>
				</g>
			</g>
			<g>
				<path fill="#39680C" d="M270.471,309.127c-2.284,21.036-16.201,34.237-27.55,44.234c-4.601,4.054-24.647,10.524-40.063,5.514
					c-11.495-3.735-39.794-19.729-41.812-41.829c-0.938-10.277,1.445-17.277,9.087-33.124c8.642-17.927,53.039-13.465,62.896-7.144
					C248.285,286.558,272.101,294.133,270.471,309.127z"/>
				<path fill="#2B5407" d="M172.096,328.475c2.641-2.036,5.15-4.174,7.662-6.373c3.76-3.298,4.573-7.313,3.577-10.91
					c3.616-4.071,7.609-7.916,10.798-11.827c7.022-8.622,13.358-17.112,16.712-27.847c-16.126-1.233-35.336,1.25-40.711,12.403
					c-7.642,15.847-10.025,22.847-9.087,33.124c0.452,4.943,2.224,9.577,4.821,13.839
					C168.149,330.597,170.332,329.833,172.096,328.475z"/>
				<path fill="#2B5407" d="M249.573,286.019c-4.903,4.794-7.91,11.64-8.792,19.125c1.184-10.043,1.437-5.558-1.364-1.111
					c-1.467,2.324-3.156,4.525-4.76,6.755c-3.434,4.774-6.566,9.762-9.743,14.71c-6.952,10.832-11.653,18.241-21.61,25.987
					c-2.049,1.596-3.663,3.528-4.898,5.669c1.655,0.72,3.165,1.302,4.454,1.721c15.415,5.011,35.462-1.46,40.063-5.514
					c11.349-9.997,25.266-23.198,27.55-44.234C271.566,299.046,261.152,292.319,249.573,286.019z"/>
				<path fill="#498117" d="M248.751,264.654c15.693,10.758,20.253,24.831,21.958,39.858c1.701,15.029-24.504,43.348-36.364,45.68
					c-11.861,2.336-32.073,4.641-49.646-8.91c-17.571-13.554-22.111-25.85-19.872-43.3c1.994-15.534,25.391-43.99,36.632-47.274
					C218.856,245.626,236.31,256.128,248.751,264.654z"/>
				<path fill="#DAE790" d="M246.862,266.98c14.749,10.11,19.033,23.335,20.634,37.461c1.603,14.124-23.029,40.738-34.175,42.931
					c-11.145,2.194-30.142,4.362-46.656-8.375c-16.515-12.738-20.782-24.295-18.677-40.694
					c1.872-14.598,23.861-41.343,34.428-44.428C218.763,249.097,235.168,258.969,246.862,266.98z"/>
				<path fill="#E9F8C1" d="M244.164,270.298c13.404,9.183,17.298,21.207,18.752,34.042c1.456,12.833-20.925,37.017-31.054,39.009
					c-10.129,1.996-27.393,3.968-42.398-7.609c-15.006-11.575-18.886-22.077-16.971-36.979c1.7-13.267,21.684-37.569,31.283-40.372
					C218.632,254.046,233.541,263.017,244.164,270.298z"/>
				<g>
					<path fill="none" stroke="#C4DC7A" stroke-width="2.0114" stroke-linecap="round" d="M221.876,270.514
						c2.128-0.303,7.203,6.903,5.155,10.364"/>
					
						<line fill="none" stroke="#C4DC7A" stroke-width="2.0114" stroke-linecap="round" x1="227.031" y1="280.879" x2="217.199" y2="294.23"/>
					<path fill="none" stroke="#C4DC7A" stroke-width="2.0114" stroke-linecap="round" d="M227.031,280.879
						c0,0,9.654-5.976,10.977,3.848"/>
					
						<line fill="none" stroke="#C4DC7A" stroke-width="2.0114" stroke-linecap="round" x1="213.603" y1="309.63" x2="223.422" y2="323.224"/>
					<path fill="none" stroke="#C4DC7A" stroke-width="2.0114" stroke-linecap="round" d="M223.422,323.224
						c2.518,2.968-2.202,13.599-8.626,7.998"/>
					<path fill="none" stroke="#C4DC7A" stroke-width="2.0114" stroke-linecap="round" d="M223.422,323.224
						c2.433,3.111,10.178,4.394,10.706-3.083"/>
					<path fill="none" stroke="#C4DC7A" stroke-width="2.0114" stroke-linecap="round" d="M208.354,304.577
						c0,0-15.648-1.855-19.375-0.163"/>
					<path fill="none" stroke="#C4DC7A" stroke-width="2.0114" stroke-linecap="round" d="M188.979,304.414
						c-5.821,1.345-10.047-6.726-6.268-9.163"/>
					<path fill="none" stroke="#C4DC7A" stroke-width="2.0114" stroke-linecap="round" d="M188.979,304.414
						c-3.622,0.505-10.579,7.685-6.125,13.423"/>
					
						<ellipse transform="matrix(0.9655 0.2603 -0.2603 0.9655 83.4922 -51.5854)" fill="none" stroke="#C4DC7A" stroke-width="2.0114" stroke-linecap="round" cx="236.521" cy="289.455" rx="3.352" ry="4.92"/>
					<path fill="none" stroke="#C4DC7A" stroke-width="2.0114" stroke-linecap="round" d="M218.358,275.308
						c-2.463,1.146-5.095,0.711-5.875-0.967c-0.782-1.678,0.588-3.966,3.048-5.113c2.468-1.146,5.097-0.715,5.877,0.965
						C222.191,271.873,220.822,274.163,218.358,275.308z"/>
					<path fill="none" stroke="#C4DC7A" stroke-width="2.0114" stroke-linecap="round" d="M184.936,289.546
						c2.175-1.627,4.841-1.743,5.948-0.256c1.105,1.479,0.239,4.001-1.94,5.628c-2.178,1.627-4.843,1.741-5.946,0.258
						C181.887,293.692,182.754,291.17,184.936,289.546z"/>
					
						<ellipse transform="matrix(0.2288 -0.9735 0.9735 0.2288 -165.7906 428.6375)" fill="none" stroke="#C4DC7A" stroke-width="2.0114" stroke-linecap="round" cx="187.646" cy="318.96" rx="3.352" ry="4.922"/>
					
						<ellipse transform="matrix(-0.516 0.8566 -0.8566 -0.516 600.8038 318.1791)" fill="none" stroke="#C4DC7A" stroke-width="2.0114" stroke-linecap="round" cx="210.508" cy="328.832" rx="3.35" ry="4.921"/>
					<path fill="none" stroke="#C4DC7A" stroke-width="2.0114" stroke-linecap="round" d="M230.336,315.319
						c-0.426-2.683,0.719-5.094,2.544-5.386c1.829-0.288,3.654,1.658,4.078,4.342c0.423,2.682-0.714,5.096-2.543,5.382
						C232.585,319.947,230.762,318.002,230.336,315.319z"/>
				</g>
			</g>
			<path opacity="0.3" d="M308.791,222.59c0-0.004,0-0.01,0.001-0.014c-0.015-2.243-0.312-4.142-0.852-5.783
				c-1.625-8.403-5-16.443-11.63-22.482c-8.659-7.888-45.137-13.038-59.435-6.649c-6.415,2.864-11.546,6.247-15.571,10.655
				c-0.011,0.007-0.02,0.014-0.03,0.02c-9.449,6.552-12.118,16.332-17.827,27.929c-3.564,7.24-2.81,23.958-0.49,30.621
				c0.676,10.735,21.901,26.839,35.347,32.911c-0.021,0.034-0.049,0.087-0.067,0.122c1.277,0.507,2.435,0.918,3.522,1.278
				c0.468,0.16,0.924,0.312,1.356,0.437c10.161,2.963,19.141,3.359,25.765,2.24c-0.055-0.156-0.101-0.317-0.155-0.475
				c-0.962-2.406-1.954-4.799-2.976-7.182c-1.09-2.334-2.058-4.741-3.076-7.114c-0.321-0.747-0.55-1.478-0.732-2.196
				c-1.396-2.722-2.657-5.51-3.539-8.484c-3.96-13.334,13.292-25.445,22.384-12.773c0.416,0.578,0.82,1.167,1.23,1.751
				c2.59,0.113,5.12,0.965,7.073,2.696c0.646,0.573,1.307,1.128,1.978,1.67c3.106,1.928,6,4.073,8.87,6.292
				c5.074-6.884,8.524-15.206,9.101-26.113C309.348,236.038,309.506,229.315,308.791,222.59z"/>
			<g>
				<path fill="#39680C" d="M302.187,215.922c0.149,22.913-8.863,46.81-20.815,58.007c-4.85,4.541-28.008,15.964-44.86,11.051
					c-12.567-3.663-40.356-23.281-40.195-35.377c0.149-11.177-0.536-29.336,10.673-44.746c14.47-19.901,50.261-20.022,61.139-13.504
					C284.968,201.434,302.073,198.448,302.187,215.922z"/>
				<path fill="#2B5407" d="M203.874,249.329c2.79-2.289,5.438-4.686,8.082-7.146c3.962-3.697,4.713-8.071,3.512-11.932
					c3.78-4.525,7.979-8.822,11.302-13.161c7.313-9.568,13.895-18.967,17.172-30.697c-1.958-6.072-11.139-7.281-29.271,5.29
					c-9.45,6.549-12.12,16.331-17.828,27.927c-3.977,8.081-2.585,28.01,0.369,32.535
					C199.669,251.76,202.009,250.861,203.874,249.329z"/>
				<path fill="#2B5407" d="M286.343,200.809c-5.147,5.353-8.179,12.86-8.884,20.993c0.948-10.907,1.369-6.063-1.515-1.157
					c-1.51,2.567-3.266,5-4.931,7.47c-3.555,5.278-6.786,10.787-10.06,16.247c-7.17,11.956-12.014,20.129-22.536,28.846
					c-2.167,1.796-5.519,7.693-6.787,10.054c1.815,0.724,3.469,1.307,4.88,1.718c16.853,4.913,30.498,2.8,35.428-1.655
					c30.091-27.184,28.108-35.958,29.888-58.803C302.678,213.568,299.085,207.245,286.343,200.809z"/>
				<path fill="#498117" d="M302.431,235.29c-1.005,18.998-10.647,30.222-22.588,39.503c-11.943,9.282-49.764,1.66-57.934-7.248
					c-8.17-8.907-20.665-24.962-18.25-47.021c2.417-22.062,10.551-32.339,26.612-39.519c14.299-6.387,50.775-1.236,59.435,6.649
					C303.107,199.858,303.228,220.227,302.431,235.29z"/>
				<path fill="#DAE790" d="M299.462,234.887c-0.946,17.857-10.007,28.402-21.232,37.127c-11.221,8.724-46.769,1.558-54.446-6.813
					c-7.679-8.372-19.424-23.459-17.151-44.194c2.272-20.729,9.915-30.393,25.013-37.135c13.436-6.006,47.719-1.166,55.855,6.246
					C300.092,201.587,300.212,220.732,299.462,234.887z"/>
				<path fill="#E9F8C1" d="M295.229,234.315c-0.861,16.224-9.095,25.81-19.296,33.736c-10.194,7.929-42.498,1.416-49.477-6.193
					c-6.979-7.604-17.652-21.314-15.585-40.157c2.064-18.836,9.01-27.618,22.729-33.747c12.21-5.457,43.364-1.058,50.758,5.678
					C295.802,204.052,295.908,221.45,295.229,234.315z"/>
				<g>
					<path fill="none" stroke="#C4DC7A" stroke-width="2.0114" stroke-linecap="round" d="M229.453,201.54
						c0.738-2.017,9.484-3.089,11.571,0.35"/>
					
						<line fill="none" stroke="#C4DC7A" stroke-width="2.0114" stroke-linecap="round" x1="241.025" y1="201.889" x2="248.15" y2="216.859"/>
					<path fill="none" stroke="#C4DC7A" stroke-width="2.0114" stroke-linecap="round" d="M241.025,201.889
						c0,0-0.711-11.333,8.573-7.861"/>
					
						<line fill="none" stroke="#C4DC7A" stroke-width="2.0114" stroke-linecap="round" x1="260.023" y1="227.302" x2="276.645" y2="225.068"/>
					<path fill="none" stroke="#C4DC7A" stroke-width="2.0114" stroke-linecap="round" d="M276.645,225.068
						c3.807-0.819,10.95,8.363,2.978,11.38"/>
					<path fill="none" stroke="#C4DC7A" stroke-width="2.0114" stroke-linecap="round" d="M276.645,225.068
						c3.892-0.679,8.68-6.899,2.338-10.896"/>
					<path fill="none" stroke="#C4DC7A" stroke-width="2.0114" stroke-linecap="round" d="M253.093,229.544
						c0,0-9.023,12.917-9.293,16.999"/>
					<path fill="none" stroke="#C4DC7A" stroke-width="2.0114" stroke-linecap="round" d="M243.8,246.543
						c-1.563,5.769-10.671,5.683-11.035,1.202"/>
					<path fill="none" stroke="#C4DC7A" stroke-width="2.0114" stroke-linecap="round" d="M243.8,246.543
						c-1.265,3.435,1.777,12.956,8.94,11.742"/>
					<path fill="none" stroke="#C4DC7A" stroke-width="2.0114" stroke-linecap="round" d="M255.365,195.135
						c1.977,1.861,2.552,4.463,1.281,5.815c-1.267,1.346-3.9,0.928-5.879-0.936c-1.98-1.864-2.556-4.467-1.284-5.815
						C250.749,192.851,253.384,193.271,255.365,195.135z"/>
					<path fill="none" stroke="#C4DC7A" stroke-width="2.0114" stroke-linecap="round" d="M232.017,206.906
						c-0.154,2.711-1.777,4.825-3.626,4.724c-1.848-0.104-3.22-2.394-3.066-5.106c0.155-2.711,1.776-4.827,3.624-4.723
						C230.799,201.904,232.169,204.192,232.017,206.906z"/>
					<path fill="none" stroke="#C4DC7A" stroke-width="2.0114" stroke-linecap="round" d="M228.786,243.09
						c-0.408-2.687,0.75-5.094,2.58-5.365c1.829-0.277,3.643,1.679,4.046,4.367c0.408,2.688-0.75,5.09-2.579,5.367
						C231.001,247.734,229.191,245.778,228.786,243.09z"/>
					<path fill="none" stroke="#C4DC7A" stroke-width="2.0114" stroke-linecap="round" d="M253.478,252.372
						c1.801-2.034,4.382-2.698,5.771-1.473c1.391,1.225,1.055,3.871-0.741,5.909c-1.797,2.038-4.382,2.699-5.768,1.477
						C251.35,257.057,251.683,254.411,253.478,252.372z"/>
					<path fill="none" stroke="#C4DC7A" stroke-width="2.0114" stroke-linecap="round" d="M277.205,241.976
						c-2.334,1.393-4.997,1.229-5.943-0.359c-0.946-1.592,0.18-4.009,2.516-5.398c2.335-1.39,4.999-1.228,5.944,0.362
						C280.668,238.171,279.543,240.59,277.205,241.976z"/>
					<path fill="none" stroke="#C4DC7A" stroke-width="2.0114" stroke-linecap="round" d="M272.94,215.238
						c-2.564-0.896-4.149-3.036-3.542-4.786c0.61-1.747,3.188-2.438,5.749-1.545c2.569,0.896,4.157,3.036,3.545,4.785
						C278.085,215.44,275.508,216.132,272.94,215.238z"/>
				</g>
			</g>
			<g>
				<path fill="#39680C" d="M196.984,90.71c14.897,12.108,25.547,30.666,26.42,44.36c0.354,5.554-4.599,26.617-16.753,34.896
					c-9.063,6.173-36.554,13.692-44.288,7.142c-7.146-6.05-19.256-15.278-23.249-30.736c-5.159-19.96,13.827-43.166,23.84-46.729
					C178.444,94.125,185.624,81.474,196.984,90.71z"/>
				<path fill="#2B5407" d="M166.212,172.077c0.006-3.023-0.133-6.013-0.316-9.032c-0.278-4.532-2.706-7.348-5.843-8.628
					c-0.913-4.856-1.457-9.859-2.49-14.32c-2.29-9.826-4.862-19.088-10.7-27.456c-4.97-1.97-10.644,3.323-12.173,21.744
					c-0.801,9.6,4.102,16.538,8.56,26.408c3.107,6.874,16.733,16.59,21.234,17.091C165.544,176.089,166.208,174.099,166.212,172.077
					z"/>
				<path fill="#2B5407" d="M178.771,92.902c0.721,6.182,3.96,12.14,8.843,16.93c-6.547-6.425-3.19-4.115-1.555,0.363
					c0.855,2.344,1.494,4.775,2.205,7.166c1.52,5.112,3.357,10.136,5.145,15.161c3.911,11.005,6.616,18.491,6.646,29.94
					c0.007,2.355,2.036,7.667,2.888,9.742c1.434-0.786,2.691-1.544,3.708-2.238c12.154-8.279,18.059-18.229,17.805-23.789
					c-1.546-33.938-8.277-37.334-22.102-50.655C195.726,89.137,189.721,88.093,178.771,92.902z"/>
				<path fill="#498117" d="M209.639,100.871c11.749,10.77,13.869,22.984,13.511,35.648c-0.36,12.668-25.438,33.062-35.55,33.6
					c-10.112,0.538-27.151,0.065-40.128-13.248c-12.977-13.315-15.291-24.052-11.376-38.261c3.487-12.648,26.25-33.492,35.961-34.89
					C187.087,81.555,200.323,92.329,209.639,100.871z"/>
				<path fill="#DAE790" d="M207.797,102.573c11.043,10.125,13.035,21.603,12.696,33.509c-0.338,11.904-23.908,31.072-33.413,31.577
					c-9.501,0.506-25.515,0.063-37.711-12.454c-12.195-12.512-14.373-22.603-10.69-35.955c3.274-11.889,24.67-31.479,33.798-32.791
					C186.6,84.427,199.043,94.549,207.797,102.573z"/>
				<path fill="#E9F8C1" d="M205.169,105.005c10.035,9.203,11.846,19.633,11.537,30.453c-0.305,10.814-21.725,28.234-30.361,28.691
					c-8.637,0.462-23.188,0.061-34.271-11.315c-11.08-11.368-13.059-20.538-9.711-32.675c2.974-10.801,22.416-28.604,30.71-29.797
					C185.907,88.515,197.215,97.714,205.169,105.005z"/>
				<g>
					<path fill="none" stroke="#C4DC7A" stroke-width="2.0114" stroke-linecap="round" d="M148.937,130.078
						c-0.91-1.55,3.056-7.778,6.392-7.296"/>
					
						<line fill="none" stroke="#C4DC7A" stroke-width="2.0114" stroke-linecap="round" x1="155.328" y1="122.782" x2="168.804" y2="126.149"/>
					<path fill="none" stroke="#C4DC7A" stroke-width="2.0114" stroke-linecap="round" d="M155.328,122.782
						c0,0-7.706-5.578-0.516-9.73"/>
					
						<line fill="none" stroke="#C4DC7A" stroke-width="2.0114" stroke-linecap="round" x1="181.883" y1="124.036" x2="189.291" y2="112.096"/>
					<path fill="none" stroke="#C4DC7A" stroke-width="2.0114" stroke-linecap="round" d="M189.291,112.096
						c1.499-2.896,11.242-2.625,8.945,4.139"/>
					<path fill="none" stroke="#C4DC7A" stroke-width="2.0114" stroke-linecap="round" d="M189.291,112.096
						c1.635-2.875,0.163-9.287-5.8-7.314"/>
					<path fill="none" stroke="#C4DC7A" stroke-width="2.0114" stroke-linecap="round" d="M179.639,129.713
						c0,0,3.546,12.714,6.042,15.064"/>
					<path fill="none" stroke="#C4DC7A" stroke-width="2.0114" stroke-linecap="round" d="M185.681,144.777
						c2.897,4.081-2.011,9.927-5.102,7.775"/>
					<path fill="none" stroke="#C4DC7A" stroke-width="2.0114" stroke-linecap="round" d="M185.681,144.777
						c1.547,2.647,9.325,5.751,12.354,0.474"/>
					<path fill="none" stroke="#C4DC7A" stroke-width="2.0114" stroke-linecap="round" d="M158.6,109.912
						c2.257-0.287,4.247,0.727,4.442,2.269c0.195,1.537-1.477,3.016-3.737,3.303c-2.26,0.287-4.249-0.728-4.442-2.266
						C154.664,111.678,156.341,110.2,158.6,109.912z"/>
					
						<ellipse transform="matrix(0.6787 -0.7344 0.7344 0.6787 -49.1339 154.3664)" fill="none" stroke="#C4DC7A" stroke-width="2.0114" stroke-linecap="round" cx="151.867" cy="133.341" rx="2.808" ry="4.125"/>
					<path fill="none" stroke="#C4DC7A" stroke-width="2.0114" stroke-linecap="round" d="M175.448,152.645
						c-1.954-1.169-2.894-3.2-2.094-4.528c0.795-1.33,3.025-1.461,4.979-0.288c1.954,1.167,2.893,3.197,2.097,4.527
						C179.632,153.686,177.402,153.814,175.448,152.645z"/>
					<path fill="none" stroke="#C4DC7A" stroke-width="2.0114" stroke-linecap="round" d="M194.605,141.622
						c-0.355-2.246,0.59-4.269,2.123-4.514c1.533-0.248,3.065,1.379,3.426,3.627c0.361,2.246-0.589,4.271-2.118,4.516
						C196.501,145.495,194.968,143.872,194.605,141.622z"/>
					<path fill="none" stroke="#C4DC7A" stroke-width="2.0114" stroke-linecap="round" d="M200.524,120.743
						c-0.343,2.251-1.866,3.886-3.399,3.649c-1.533-0.234-2.494-2.249-2.151-4.501c0.346-2.251,1.87-3.888,3.402-3.648
						C199.908,116.477,200.873,118.493,200.524,120.743z"/>
					<path fill="none" stroke="#C4DC7A" stroke-width="2.0114" stroke-linecap="round" d="M180.962,109.257
						c-1.945,1.182-4.174,1.065-4.98-0.26s0.121-3.357,2.063-4.54c1.947-1.185,4.177-1.07,4.98,0.257
						C183.834,106.038,182.907,108.072,180.962,109.257z"/>
				</g>
			</g>
		</g>
	</g>
</g>
</svg>
