<?xml version="1.0" encoding="utf-8"?>
<!-- Generator: Adobe Illustrator 18.1.1, SVG Export Plug-In . SVG Version: 6.00 Build 0)  -->
<svg version="1.1" id="Layer_2" xmlns="http://www.w3.org/2000/svg" xmlns:xlink="http://www.w3.org/1999/xlink" x="0px" y="0px"
	 width="450px" height="450px" viewBox="-74 76 450 450" enable-background="new -74 76 450 450" xml:space="preserve">
<g>
	<g opacity="0.3">
		<path d="M94.03,247.328c8.742,19.268,3.481,37.716-1.195,52.098c-1.898,5.831-15.859,21.604-31.678,25.139
			c-11.795,2.637-44.296,3.274-57.281-14.72c-6.04-8.369-7.551-15.607-9.041-33.136c-1.687-19.831,38.798-38.591,50.5-38.167
			C63.447,239.195,87.799,233.591,94.03,247.328z"/>
		<path d="M19.202,314.058c1.235-3.097,2.31-6.215,3.352-9.384c1.557-4.754,0.215-8.625-2.475-11.213
			c1.041-5.345,2.52-10.688,3.274-15.677c1.655-10.996,2.787-21.528,0.209-32.475c-14.509,7.146-29.778,19.062-28.729,31.4
			c1.49,17.529,3.001,24.767,9.041,33.136c2.905,4.024,6.788,7.11,11.194,9.457C16.884,317.896,18.375,316.125,19.202,314.058z"/>
		<path d="M64.28,238.076c-1.779,6.622-0.885,14.044,2.167,20.937c-4.094-9.246-1.593-5.515-1.741-0.262
			c-0.077,2.748-0.414,5.5-0.656,8.237c-0.524,5.857-0.684,11.746-0.9,17.621c-0.469,12.861-0.745,21.633-5.372,33.369
			c-0.95,2.415-1.357,4.901-1.331,7.373c1.791-0.224,3.387-0.491,4.711-0.787c15.818-3.534,29.779-19.308,31.678-25.139
			c4.677-14.382,9.938-32.83,1.195-52.098C89.839,238.092,77.452,237.605,64.28,238.076z"/>
		<path d="M52.697,220.105c18.984,1.27,30.073,11.061,39.189,23.13c9.115,12.07,0.975,49.784-8.048,57.829
			c-9.019,8.047-25.244,20.32-47.268,17.601c-22.023-2.721-32.19-10.993-39.145-27.153c-6.192-14.386-0.54-50.79,7.466-59.338
			C17.279,218.943,37.648,219.099,52.697,220.105z"/>
		<path d="M52.253,223.068c17.842,1.193,28.264,10.398,36.83,21.739c8.568,11.344,0.916,46.789-7.562,54.351
			c-8.476,7.561-23.725,19.097-44.425,16.539c-20.697-2.557-30.254-10.331-36.788-25.518c-5.82-13.52-0.507-47.732,7.017-55.766
			C18.965,221.978,38.111,222.124,52.253,223.068z"/>
		<path d="M51.621,227.295c16.212,1.082,25.684,9.449,33.469,19.757c7.787,10.306,0.831,42.516-6.872,49.386
			c-7.702,6.873-21.558,17.356-40.369,15.033c-18.809-2.325-27.492-9.391-33.432-23.192c-5.288-12.283-0.46-43.375,6.376-50.674
			C21.37,226.304,38.771,226.437,51.621,227.295z"/>
		<path fill="none" stroke="#000000" stroke-width="2.0114" stroke-linecap="round" d="M32.547,238.828
			c1.677-1.345,9.714,2.273,9.714,6.297"/>
		
			<line fill="none" stroke="#000000" stroke-width="2.0114" stroke-linecap="round" x1="42.261" y1="245.125" x2="40.594" y2="261.622"/>
		<path fill="none" stroke="#000000" stroke-width="2.0114" stroke-linecap="round" d="M42.261,245.125
			c0,0,5.267-10.057,11.406-2.275"/>
		
			<line fill="none" stroke="#000000" stroke-width="2.0114" stroke-linecap="round" x1="45.334" y1="276.709" x2="60.708" y2="283.411"/>
		<path fill="none" stroke="#000000" stroke-width="2.0114" stroke-linecap="round" d="M60.708,283.411
			c3.679,1.273,5.026,12.826-3.353,11.274"/>
		<path fill="none" stroke="#000000" stroke-width="2.0114" stroke-linecap="round" d="M60.708,283.411
			c3.679,1.439,10.997-1.399,7.646-8.103"/>
		<path fill="none" stroke="#000000" stroke-width="2.0114" stroke-linecap="round" d="M38.246,275.031
			c0,0-14.414,6.367-16.761,9.722"/>
		<path fill="none" stroke="#000000" stroke-width="2.0114" stroke-linecap="round" d="M21.486,284.753
			c-4.326,4.121-12.07-0.674-10.059-4.695"/>
		<path fill="none" stroke="#000000" stroke-width="2.0114" stroke-linecap="round" d="M21.486,284.753
			c-2.858,2.277-5.192,11.999,1.562,14.673"/>
		<path fill="none" stroke="#000000" stroke-width="2.0114" stroke-linecap="round" d="M58.023,246.781
			c0.729,2.619-0.13,5.144-1.916,5.638c-1.782,0.494-3.816-1.227-4.543-3.845c-0.727-2.622,0.132-5.146,1.915-5.641
			C55.263,242.439,57.297,244.161,58.023,246.781z"/>
		<path fill="none" stroke="#000000" stroke-width="2.0114" stroke-linecap="round" d="M31.959,244.746
			c-1.539,2.239-4.023,3.204-5.55,2.157c-1.526-1.045-1.515-3.712,0.021-5.95c1.541-2.244,4.023-3.212,5.55-2.162
			C33.508,239.838,33.495,242.504,31.959,244.746z"/>
		<path fill="none" stroke="#000000" stroke-width="2.0114" stroke-linecap="round" d="M10.437,274.014
			c1.045-2.508,3.281-3.965,4.99-3.247c1.708,0.711,2.244,3.322,1.195,5.831c-1.048,2.509-3.282,3.964-4.988,3.25
			C9.926,279.137,9.388,276.523,10.437,274.014z"/>
		<path fill="none" stroke="#000000" stroke-width="2.0114" stroke-linecap="round" d="M26.743,294.754
			c2.592-0.811,5.144-0.034,5.698,1.731c0.552,1.766-1.105,3.855-3.697,4.667c-2.595,0.811-5.147,0.041-5.697-1.727
			C22.492,297.655,24.151,295.566,26.743,294.754z"/>
		<path fill="none" stroke="#000000" stroke-width="2.0114" stroke-linecap="round" d="M52.42,298.163
			c-2.716-0.018-4.908-1.54-4.893-3.393c0.015-1.848,2.229-3.332,4.948-3.309c2.719,0.02,4.91,1.541,4.895,3.392
			C57.356,296.704,55.139,298.188,52.42,298.163z"/>
		<path fill="none" stroke="#000000" stroke-width="2.0114" stroke-linecap="round" d="M62.635,273.086
			c-1.731-2.093-1.973-4.749-0.55-5.93c1.429-1.178,3.988-0.433,5.717,1.661c1.732,2.095,1.982,4.748,0.553,5.928
			C66.928,275.926,64.368,275.181,62.635,273.086z"/>
		<path d="M206.899,252.216c8.743,19.27,3.483,37.716-1.195,52.098c-1.897,5.832-15.858,21.607-31.676,25.141
			c-11.796,2.636-44.296,3.273-57.283-14.721c-6.04-8.369-7.55-15.608-9.04-33.137c-1.688-19.831,38.799-38.591,50.501-38.165
			C176.317,244.084,200.669,238.479,206.899,252.216z"/>
		<path d="M132.073,318.947c1.236-3.099,2.309-6.217,3.35-9.387c1.559-4.753,0.217-8.622-2.475-11.212
			c1.041-5.346,2.52-10.686,3.273-15.677c1.657-10.996,2.788-21.529,0.211-32.475c-14.509,7.146-29.779,19.064-28.728,31.4
			c1.49,17.529,3,24.768,9.04,33.137c2.905,4.023,6.789,7.111,11.195,9.457C129.754,322.782,131.245,321.012,132.073,318.947z"/>
		<path d="M177.149,242.965c-1.777,6.622-0.884,14.045,2.17,20.936c-4.095-9.245-1.596-5.515-1.744-0.26
			c-0.076,2.745-0.412,5.499-0.657,8.237c-0.522,5.853-0.683,11.744-0.897,17.619c-0.469,12.862-0.747,21.634-5.371,33.369
			c-0.952,2.416-1.358,4.901-1.334,7.372c1.793-0.221,3.389-0.488,4.713-0.784c15.817-3.534,29.779-19.309,31.676-25.141
			c4.679-14.382,9.938-32.828,1.195-52.098C202.71,242.979,190.322,242.492,177.149,242.965z"/>
		<path d="M165.567,224.992c18.984,1.27,30.071,11.063,39.189,23.131c9.116,12.069,0.974,49.782-8.045,57.829
			c-9.021,8.047-25.246,20.32-47.271,17.602c-22.022-2.722-32.19-10.994-39.145-27.155c-6.19-14.384-0.538-50.788,7.468-59.337
			C130.148,223.831,150.518,223.986,165.567,224.992z"/>
		<path d="M165.122,227.958c17.844,1.191,28.264,10.395,36.832,21.739c8.568,11.341,0.914,46.786-7.563,54.349
			c-8.478,7.561-23.724,19.097-44.425,16.541c-20.698-2.559-30.255-10.334-36.788-25.52c-5.822-13.518-0.509-47.733,7.015-55.768
			C131.835,226.867,150.982,227.012,165.122,227.958z"/>
		<path d="M164.49,232.184c16.214,1.081,25.684,9.45,33.471,19.758c7.785,10.304,0.831,42.514-6.873,49.384
			c-7.702,6.875-21.56,17.358-40.37,15.032c-18.807-2.323-27.492-9.391-33.43-23.191c-5.29-12.284-0.46-43.373,6.376-50.674
			C134.241,231.192,151.641,231.326,164.49,232.184z"/>
		<path fill="none" stroke="#000000" stroke-width="2.0114" stroke-linecap="round" d="M145.416,243.716
			c1.677-1.344,9.716,2.275,9.716,6.299"/>
		
			<line fill="none" stroke="#000000" stroke-width="2.0114" stroke-linecap="round" x1="155.132" y1="250.015" x2="153.463" y2="266.511"/>
		<path fill="none" stroke="#000000" stroke-width="2.0114" stroke-linecap="round" d="M155.132,250.015
			c0,0,5.265-10.059,11.404-2.278"/>
		
			<line fill="none" stroke="#000000" stroke-width="2.0114" stroke-linecap="round" x1="158.205" y1="281.597" x2="173.578" y2="288.301"/>
		<path fill="none" stroke="#000000" stroke-width="2.0114" stroke-linecap="round" d="M173.578,288.301
			c3.678,1.271,5.026,12.825-3.353,11.275"/>
		<path fill="none" stroke="#000000" stroke-width="2.0114" stroke-linecap="round" d="M173.578,288.301
			c3.678,1.439,10.998-1.399,7.647-8.106"/>
		<path fill="none" stroke="#000000" stroke-width="2.0114" stroke-linecap="round" d="M151.116,279.919
			c0,0-14.414,6.369-16.762,9.724"/>
		<path fill="none" stroke="#000000" stroke-width="2.0114" stroke-linecap="round" d="M134.355,289.643
			c-4.324,4.119-12.068-0.676-10.058-4.697"/>
		<path fill="none" stroke="#000000" stroke-width="2.0114" stroke-linecap="round" d="M134.355,289.643
			c-2.856,2.277-5.19,11.998,1.562,14.671"/>
		
			<ellipse transform="matrix(0.9636 -0.2673 0.2673 0.9636 -61.411 54.0081)" fill="none" stroke="#000000" stroke-width="2.0114" stroke-linecap="round" cx="167.665" cy="252.565" rx="3.352" ry="4.92"/>
		<path fill="none" stroke="#000000" stroke-width="2.0114" stroke-linecap="round" d="M144.828,249.635
			c-1.537,2.238-4.023,3.205-5.55,2.158c-1.525-1.047-1.513-3.713,0.023-5.953c1.539-2.241,4.023-3.211,5.549-2.159
			C146.379,244.727,146.366,247.394,144.828,249.635z"/>
		<path fill="none" stroke="#000000" stroke-width="2.0114" stroke-linecap="round" d="M123.308,278.901
			c1.045-2.506,3.279-3.963,4.99-3.248c1.706,0.711,2.242,3.323,1.195,5.833c-1.048,2.507-3.282,3.963-4.988,3.251
			C122.794,284.024,122.258,281.409,123.308,278.901z"/>
		<path fill="none" stroke="#000000" stroke-width="2.0114" stroke-linecap="round" d="M139.614,299.642
			c2.594-0.81,5.145-0.034,5.697,1.732c0.553,1.766-1.105,3.856-3.695,4.665c-2.597,0.811-5.146,0.041-5.699-1.726
			C135.364,302.544,137.021,300.455,139.614,299.642z"/>
		
			<ellipse transform="matrix(-0.0083 1 -1 -0.0083 466.3805 136.8791)" fill="none" stroke="#000000" stroke-width="2.0114" stroke-linecap="round" cx="165.317" cy="299.7" rx="3.351" ry="4.921"/>
		<path fill="none" stroke="#000000" stroke-width="2.0114" stroke-linecap="round" d="M175.504,277.976
			c-1.729-2.093-1.973-4.75-0.55-5.931c1.428-1.179,3.988-0.432,5.719,1.661c1.732,2.095,1.982,4.748,0.553,5.928
			C179.797,280.815,177.238,280.069,175.504,277.976z"/>
		<path d="M131.15,285.494c11.794,19.648,16.199,44.804,11.611,60.525c-1.861,6.378-15.982,27.999-32.988,32.349
			c-12.682,3.243-46.588,0.503-52.606-9.991c-5.561-9.696-15.395-24.975-13.593-43.947c2.326-24.493,33.071-42.818,45.753-42.745
			C108.953,281.79,122.157,270.512,131.15,285.494z"/>
		<path d="M63.534,364.295c1.237-3.392,2.294-6.802,3.317-10.266c1.528-5.198-0.051-9.346-3.05-12.058
			c0.95-5.818,2.375-11.654,3.025-17.081c1.428-11.958,2.307-23.397-0.844-35.163c-4.775-4.231-13.293-0.597-22.501,19.452
			c-4.8,10.448-2.12,20.225-1.129,33.114c0.689,8.979,12.032,25.423,16.88,27.815C61.152,368.527,62.708,366.563,63.534,364.295z"/>
		<path d="M109.819,280.552c-1.705,7.228-0.493,15.232,3.041,22.593c-4.735-9.87-1.908-5.916-1.895-0.226
			c0.007,2.979-0.264,5.969-0.439,8.94c-0.372,6.355-0.351,12.74-0.389,19.105c-0.086,13.941-0.094,23.441-4.715,36.302
			c-0.949,2.647-0.832,9.431-0.723,12.108c1.931-0.301,3.65-0.641,5.073-1.006c17.006-4.35,27.677-13.115,29.653-19.459
			c12.061-38.715,5.89-45.258-4.209-65.828C130.376,283.22,124.063,279.605,109.819,280.552z"/>
		<path d="M141.22,302.042c8.805,16.864,6.219,31.432,0.665,45.501c-5.554,14.069-41.989,26.759-53.555,23.25
			c-11.567-3.508-30.495-10.965-39.646-31.183c-9.147-20.219-7.38-33.206,2.792-47.561c9.055-12.776,43.074-26.913,54.54-24.53
			C123.765,271.199,134.239,288.672,141.22,302.042z"/>
		<path d="M138.458,303.206c8.276,15.853,5.846,29.541,0.625,42.766c-5.218,13.22-39.463,25.148-50.333,21.85
			c-10.87-3.296-28.661-10.305-37.26-29.307c-8.597-19-6.938-31.208,2.625-44.697c8.508-12.011,40.482-25.295,51.26-23.058
			C122.05,274.221,131.9,290.642,138.458,303.206z"/>
		<path d="M134.523,304.869c7.518,14.403,5.311,26.846,0.564,38.859c-4.739,12.016-35.86,22.854-45.737,19.854
			c-9.88-2.993-26.046-9.359-33.856-26.629c-7.813-17.265-6.305-28.36,2.384-40.619c7.731-10.911,36.787-22.984,46.579-20.95
			C119.613,278.53,128.562,293.451,134.523,304.869z"/>
		<path fill="none" stroke="#000000" stroke-width="2.0114" stroke-linecap="round" d="M61.225,310.14
			c-0.394-2.111,6.591-7.488,10.138-5.59"/>
		
			<line fill="none" stroke="#000000" stroke-width="2.0114" stroke-linecap="round" x1="71.363" y1="304.55" x2="85.115" y2="313.81"/>
		<path fill="none" stroke="#000000" stroke-width="2.0114" stroke-linecap="round" d="M71.363,304.55c0,0-6.381-9.391,3.377-11.128
			"/>
		
			<line fill="none" stroke="#000000" stroke-width="2.0114" stroke-linecap="round" x1="100.652" y1="316.754" x2="113.822" y2="306.368"/>
		<path fill="none" stroke="#000000" stroke-width="2.0114" stroke-linecap="round" d="M113.822,306.368
			c2.859-2.641,13.681,1.627,8.354,8.28"/>
		<path fill="none" stroke="#000000" stroke-width="2.0114" stroke-linecap="round" d="M113.822,306.368
			c3.004-2.563,3.959-10.354-3.534-10.568"/>
		<path fill="none" stroke="#000000" stroke-width="2.0114" stroke-linecap="round" d="M95.825,322.211
			c0,0-1.19,15.712,0.656,19.362"/>
		<path fill="none" stroke="#000000" stroke-width="2.0114" stroke-linecap="round" d="M96.482,341.573
			c1.592,5.762-6.292,10.325-8.887,6.652"/>
		<path fill="none" stroke="#000000" stroke-width="2.0114" stroke-linecap="round" d="M96.482,341.573
			c0.659,3.601,8.125,10.247,13.672,5.555"/>
		<path fill="none" stroke="#000000" stroke-width="2.0114" stroke-linecap="round" d="M80.265,291.437
			c2.65,0.597,4.47,2.543,4.064,4.354c-0.404,1.804-2.883,2.784-5.534,2.186c-2.654-0.596-4.475-2.544-4.066-4.352
			C75.131,291.822,77.614,290.843,80.265,291.437z"/>
		<path fill="none" stroke="#000000" stroke-width="2.0114" stroke-linecap="round" d="M66.163,313.456
			c1.246,2.41,0.925,5.057-0.717,5.908c-1.645,0.851-3.99-0.419-5.238-2.832c-1.25-2.414-0.931-5.06,0.714-5.911
			C62.568,309.768,64.911,311.04,66.163,313.456z"/>
		<path fill="none" stroke="#000000" stroke-width="2.0114" stroke-linecap="round" d="M81.799,346.245
			c-1.717-2.107-1.945-4.767-0.508-5.932c1.432-1.172,3.987-0.41,5.705,1.698c1.718,2.107,1.945,4.764,0.512,5.934
			C86.071,349.112,83.516,348.351,81.799,346.245z"/>
		<path fill="none" stroke="#000000" stroke-width="2.0114" stroke-linecap="round" d="M107.78,341.664
			c0.513-2.669,2.397-4.553,4.218-4.204c1.819,0.346,2.877,2.795,2.369,5.463c-0.509,2.669-2.397,4.553-4.213,4.205
			C108.331,346.782,107.272,344.333,107.78,341.664z"/>
		<path fill="none" stroke="#000000" stroke-width="2.0114" stroke-linecap="round" d="M122.911,320.638
			c-1.302,2.388-3.677,3.602-5.299,2.715c-1.626-0.886-1.888-3.541-0.584-5.928c1.303-2.383,3.678-3.6,5.3-2.711
			C123.953,315.601,124.217,318.255,122.911,320.638z"/>
		<path fill="none" stroke="#000000" stroke-width="2.0114" stroke-linecap="round" d="M105.628,299.795
			c-2.662,0.535-5.116-0.501-5.484-2.316c-0.366-1.814,1.503-3.721,4.162-4.257c2.666-0.534,5.121,0.497,5.486,2.314
			C110.159,297.349,108.292,299.257,105.628,299.795z"/>
		<path d="M319.999,308.171c-2.282,21.036-16.2,34.237-27.549,44.234c-4.602,4.055-24.648,10.525-40.062,5.516
			c-11.495-3.736-39.794-19.73-41.812-41.828c-0.938-10.28,1.444-17.278,9.085-33.125c8.644-17.928,53.04-13.467,62.896-7.143
			C297.816,285.604,321.63,293.177,319.999,308.171z"/>
		<path d="M221.625,327.521c2.642-2.036,5.151-4.175,7.661-6.374c3.76-3.298,4.576-7.31,3.576-10.909
			c3.619-4.07,7.612-7.916,10.799-11.828c7.024-8.621,13.359-17.111,16.713-27.847c-16.125-1.233-35.336,1.251-40.713,12.405
			c-7.641,15.847-10.023,22.845-9.085,33.125c0.452,4.94,2.223,9.576,4.82,13.838C217.677,329.645,219.861,328.877,221.625,327.521z
			"/>
		<path d="M299.101,285.065c-4.901,4.796-7.908,11.64-8.79,19.126c1.182-10.043,1.435-5.56-1.366-1.112
			c-1.465,2.326-3.155,4.524-4.76,6.755c-3.432,4.773-6.565,9.764-9.743,14.709c-6.95,10.832-11.652,18.242-21.608,25.988
			c-2.049,1.596-3.664,3.529-4.9,5.668c1.657,0.721,3.165,1.303,4.456,1.723c15.413,5.01,35.46-1.461,40.062-5.516
			c11.349-9.997,25.267-23.198,27.549-44.234C321.095,298.09,310.679,291.363,299.101,285.065z"/>
		<path d="M298.281,263.7c15.693,10.756,20.253,24.829,21.956,39.858c1.703,15.028-24.504,43.347-36.363,45.679
			c-11.859,2.335-32.072,4.642-49.645-8.911c-17.571-13.552-22.111-25.849-19.873-43.3c1.993-15.532,25.392-43.99,36.633-47.272
			C268.385,244.671,285.839,255.174,298.281,263.7z"/>
		<path d="M296.39,266.026c14.751,10.108,19.035,23.335,20.636,37.46c1.602,14.125-23.029,40.737-34.175,42.93
			c-11.145,2.194-30.142,4.362-46.658-8.375c-16.515-12.737-20.781-24.293-18.676-40.692c1.872-14.599,23.86-41.344,34.427-44.429
			C268.293,248.143,284.698,258.013,296.39,266.026z"/>
		<path d="M293.694,269.343c13.405,9.184,17.299,21.206,18.753,34.043c1.456,12.833-20.927,37.017-31.055,39.01
			c-10.128,1.994-27.393,3.966-42.399-7.611c-15.005-11.575-18.885-22.077-16.97-36.979c1.7-13.268,21.683-37.568,31.282-40.372
			C268.161,253.091,283.071,262.064,293.694,269.343z"/>
		<path fill="none" stroke="#000000" stroke-width="2.0114" stroke-linecap="round" d="M271.407,269.56
			c2.125-0.304,7.202,6.902,5.154,10.365"/>
		
			<line fill="none" stroke="#000000" stroke-width="2.0114" stroke-linecap="round" x1="276.562" y1="279.925" x2="266.728" y2="293.276"/>
		<path fill="none" stroke="#000000" stroke-width="2.0114" stroke-linecap="round" d="M276.562,279.925
			c0,0,9.654-5.977,10.977,3.847"/>
		
			<line fill="none" stroke="#000000" stroke-width="2.0114" stroke-linecap="round" x1="263.131" y1="308.674" x2="272.952" y2="322.271"/>
		<path fill="none" stroke="#000000" stroke-width="2.0114" stroke-linecap="round" d="M272.952,322.271
			c2.518,2.967-2.205,13.598-8.626,7.996"/>
		<path fill="none" stroke="#000000" stroke-width="2.0114" stroke-linecap="round" d="M272.952,322.271
			c2.433,3.109,10.177,4.393,10.706-3.085"/>
		<path fill="none" stroke="#000000" stroke-width="2.0114" stroke-linecap="round" d="M257.883,303.623
			c0,0-15.647-1.857-19.376-0.164"/>
		<path fill="none" stroke="#000000" stroke-width="2.0114" stroke-linecap="round" d="M238.507,303.459
			c-5.82,1.347-10.045-6.724-6.267-9.162"/>
		<path fill="none" stroke="#000000" stroke-width="2.0114" stroke-linecap="round" d="M238.507,303.459
			c-3.62,0.506-10.577,7.686-6.125,13.422"/>
		<path fill="none" stroke="#000000" stroke-width="2.0114" stroke-linecap="round" d="M289.286,289.375
			c-0.707,2.623-2.73,4.358-4.519,3.876c-1.785-0.481-2.66-2.999-1.953-5.623c0.708-2.626,2.733-4.361,4.518-3.881
			C289.121,284.23,289.996,286.749,289.286,289.375z"/>
		
			<ellipse transform="matrix(0.4216 0.9068 -0.9068 0.4216 400.1369 -84.7114)" fill="none" stroke="#000000" stroke-width="2.0114" stroke-linecap="round" cx="266.474" cy="271.315" rx="3.353" ry="4.92"/>
		<path fill="none" stroke="#000000" stroke-width="2.0114" stroke-linecap="round" d="M234.466,288.591
			c2.175-1.627,4.84-1.742,5.947-0.256c1.106,1.48,0.238,4.003-1.941,5.627c-2.176,1.627-4.841,1.742-5.946,0.261
			C231.415,292.739,232.284,290.216,234.466,288.591z"/>
		<path fill="none" stroke="#000000" stroke-width="2.0114" stroke-linecap="round" d="M237.943,314.743
			c2.643,0.623,4.444,2.589,4.021,4.391c-0.422,1.801-2.914,2.758-5.556,2.136c-2.647-0.624-4.45-2.586-4.026-4.389
			C232.808,315.078,235.298,314.123,237.943,314.743z"/>
		<path fill="none" stroke="#000000" stroke-width="2.0114" stroke-linecap="round" d="M258.31,330.748
			c-2.33-1.399-3.444-3.823-2.486-5.411c0.953-1.584,3.614-1.732,5.943-0.33c2.33,1.401,3.442,3.827,2.487,5.413
			C263.298,332.004,260.637,332.152,258.31,330.748z"/>
		
			<ellipse transform="matrix(-0.9878 0.1559 -0.1559 -0.9878 611.8082 579.7121)" fill="none" stroke="#000000" stroke-width="2.0114" stroke-linecap="round" cx="283.177" cy="313.842" rx="3.352" ry="4.921"/>
		<path d="M206.143,391.463c-2.284,21.036-16.201,34.237-27.55,44.234c-4.6,4.054-24.647,10.524-40.062,5.514
			c-11.495-3.735-39.794-19.729-41.812-41.829c-0.938-10.277,1.445-17.277,9.087-33.124c8.642-17.927,53.039-13.465,62.896-7.144
			C183.957,368.895,207.773,376.469,206.143,391.463z"/>
		<path d="M107.768,410.812c2.641-2.036,5.15-4.174,7.662-6.373c3.76-3.298,4.573-7.312,3.577-10.91
			c3.616-4.071,7.609-7.916,10.798-11.827c7.022-8.622,13.358-17.112,16.712-27.847c-16.126-1.233-35.336,1.25-40.711,12.403
			c-7.642,15.847-10.025,22.847-9.087,33.124c0.452,4.943,2.224,9.577,4.821,13.839
			C103.821,412.934,106.004,412.169,107.768,410.812z"/>
		<path d="M185.244,368.356c-4.903,4.794-7.91,11.64-8.792,19.125c1.184-10.043,1.436-5.558-1.364-1.111
			c-1.467,2.324-3.156,4.525-4.76,6.755c-3.434,4.774-6.566,9.762-9.743,14.71c-6.952,10.832-11.653,18.241-21.61,25.987
			c-2.049,1.596-3.663,3.528-4.898,5.669c1.655,0.72,3.165,1.302,4.454,1.721c15.415,5.011,35.462-1.46,40.062-5.514
			c11.349-9.997,25.266-23.198,27.55-44.234C207.238,381.382,196.823,374.655,185.244,368.356z"/>
		<path d="M184.423,346.99c15.693,10.758,20.253,24.831,21.958,39.858c1.701,15.029-24.504,43.348-36.364,45.68
			c-11.861,2.336-32.073,4.641-49.645-8.91c-17.571-13.554-22.111-25.85-19.872-43.3c1.994-15.534,25.391-43.99,36.632-47.274
			C154.528,327.962,171.982,338.464,184.423,346.99z"/>
		<path d="M182.533,349.317c14.749,10.11,19.033,23.335,20.634,37.461c1.603,14.124-23.029,40.738-34.175,42.931
			c-11.145,2.194-30.142,4.362-46.656-8.375c-16.515-12.738-20.782-24.295-18.677-40.694c1.872-14.598,23.861-41.343,34.428-44.428
			C154.435,331.434,170.84,341.305,182.533,349.317z"/>
		<path d="M179.836,352.634c13.404,9.183,17.298,21.207,18.752,34.042c1.456,12.833-20.925,37.017-31.054,39.009
			c-10.129,1.996-27.393,3.968-42.398-7.609c-15.006-11.575-18.886-22.077-16.971-36.98c1.7-13.267,21.684-37.569,31.283-40.372
			C154.304,336.382,169.213,345.354,179.836,352.634z"/>
		<path fill="none" stroke="#000000" stroke-width="2.0114" stroke-linecap="round" d="M157.548,352.851
			c2.128-0.303,7.203,6.903,5.155,10.364"/>
		
			<line fill="none" stroke="#000000" stroke-width="2.0114" stroke-linecap="round" x1="162.703" y1="363.215" x2="152.871" y2="376.567"/>
		<path fill="none" stroke="#000000" stroke-width="2.0114" stroke-linecap="round" d="M162.703,363.215
			c0,0,9.654-5.976,10.977,3.848"/>
		
			<line fill="none" stroke="#000000" stroke-width="2.0114" stroke-linecap="round" x1="149.275" y1="391.966" x2="159.094" y2="405.561"/>
		<path fill="none" stroke="#000000" stroke-width="2.0114" stroke-linecap="round" d="M159.094,405.561
			c2.518,2.968-2.202,13.599-8.626,7.998"/>
		<path fill="none" stroke="#000000" stroke-width="2.0114" stroke-linecap="round" d="M159.094,405.561
			c2.433,3.111,10.178,4.394,10.706-3.083"/>
		<path fill="none" stroke="#000000" stroke-width="2.0114" stroke-linecap="round" d="M144.026,386.913
			c0,0-15.648-1.855-19.375-0.163"/>
		<path fill="none" stroke="#000000" stroke-width="2.0114" stroke-linecap="round" d="M124.651,386.75
			c-5.821,1.345-10.047-6.726-6.268-9.163"/>
		<path fill="none" stroke="#000000" stroke-width="2.0114" stroke-linecap="round" d="M124.651,386.75
			c-3.622,0.505-10.579,7.684-6.125,13.423"/>
		
			<ellipse transform="matrix(0.9655 0.2603 -0.2603 0.9655 102.7035 -32.0037)" fill="none" stroke="#000000" stroke-width="2.0114" stroke-linecap="round" cx="172.193" cy="371.792" rx="3.352" ry="4.92"/>
		<path fill="none" stroke="#000000" stroke-width="2.0114" stroke-linecap="round" d="M154.03,357.645
			c-2.463,1.145-5.095,0.711-5.875-0.967c-0.782-1.678,0.588-3.966,3.048-5.113c2.468-1.146,5.097-0.715,5.877,0.965
			C157.863,354.209,156.493,356.499,154.03,357.645z"/>
		<path fill="none" stroke="#000000" stroke-width="2.0114" stroke-linecap="round" d="M120.608,371.882
			c2.175-1.627,4.841-1.743,5.948-0.256c1.106,1.479,0.239,4.001-1.94,5.628c-2.178,1.627-4.843,1.741-5.946,0.258
			C117.559,376.029,118.426,373.506,120.608,371.882z"/>
		
			<ellipse transform="matrix(0.2288 -0.9735 0.9735 0.2288 -295.5494 429.5151)" fill="none" stroke="#000000" stroke-width="2.0114" stroke-linecap="round" cx="123.318" cy="401.297" rx="3.352" ry="4.922"/>
		
			<ellipse transform="matrix(-0.516 0.8566 -0.8566 -0.516 573.8128 498.1072)" fill="none" stroke="#000000" stroke-width="2.0114" stroke-linecap="round" cx="146.18" cy="411.169" rx="3.35" ry="4.921"/>
		<path fill="none" stroke="#000000" stroke-width="2.0114" stroke-linecap="round" d="M166.008,397.655
			c-0.426-2.683,0.719-5.094,2.544-5.386c1.829-0.288,3.654,1.658,4.078,4.342c0.423,2.682-0.714,5.096-2.543,5.382
			C168.257,402.283,166.434,400.338,166.008,397.655z"/>
		<path d="M244.463,304.926c0-0.004,0-0.01,0.001-0.014c-0.015-2.243-0.311-4.142-0.852-5.783c-1.625-8.403-5-16.443-11.63-22.482
			c-8.659-7.888-45.137-13.038-59.435-6.649c-6.415,2.864-11.546,6.247-15.571,10.655c-0.011,0.007-0.02,0.014-0.03,0.02
			c-9.449,6.552-12.118,16.332-17.827,27.929c-3.564,7.24-2.81,23.958-0.49,30.621c0.676,10.735,21.901,26.839,35.347,32.911
			c-0.02,0.034-0.049,0.087-0.067,0.122c1.277,0.507,2.434,0.918,3.522,1.278c0.468,0.16,0.924,0.312,1.357,0.437
			c10.161,2.963,19.141,3.359,25.765,2.24c-0.055-0.156-0.101-0.317-0.155-0.475c-0.962-2.406-1.954-4.799-2.976-7.182
			c-1.09-2.334-2.058-4.741-3.076-7.114c-0.321-0.747-0.55-1.478-0.732-2.196c-1.395-2.722-2.657-5.51-3.539-8.484
			c-3.96-13.334,13.292-25.445,22.384-12.773c0.416,0.578,0.82,1.167,1.23,1.751c2.59,0.113,5.12,0.965,7.073,2.696
			c0.645,0.573,1.307,1.128,1.978,1.67c3.106,1.928,6,4.073,8.87,6.292c5.074-6.884,8.524-15.206,9.101-26.113
			C245.02,318.374,245.178,311.651,244.463,304.926z"/>
		<path d="M237.859,298.258c0.149,22.913-8.863,46.81-20.816,58.007c-4.85,4.541-28.008,15.964-44.86,11.051
			c-12.567-3.663-40.356-23.281-40.195-35.377c0.149-11.177-0.536-29.336,10.673-44.746c14.47-19.901,50.261-20.022,61.139-13.504
			C220.64,283.771,237.745,280.784,237.859,298.258z"/>
		<path d="M139.546,331.665c2.79-2.289,5.438-4.685,8.082-7.146c3.962-3.697,4.713-8.071,3.512-11.932
			c3.78-4.525,7.979-8.822,11.302-13.161c7.314-9.568,13.895-18.967,17.172-30.697c-1.958-6.072-11.139-7.281-29.271,5.29
			c-9.45,6.549-12.12,16.331-17.828,27.927c-3.976,8.081-2.585,28.01,0.369,32.535C135.341,334.096,137.681,333.197,139.546,331.665
			z"/>
		<path d="M222.015,283.146c-5.147,5.353-8.179,12.86-8.884,20.993c0.948-10.907,1.369-6.062-1.515-1.157
			c-1.51,2.567-3.266,5-4.931,7.47c-3.555,5.278-6.786,10.787-10.06,16.247c-7.17,11.956-12.014,20.129-22.536,28.846
			c-2.167,1.796-5.519,7.693-6.787,10.054c1.815,0.724,3.469,1.307,4.88,1.718c16.853,4.913,30.498,2.8,35.428-1.655
			c30.091-27.184,28.108-35.958,29.888-58.803C238.35,295.905,234.757,289.581,222.015,283.146z"/>
		<path d="M238.103,317.626c-1.005,18.998-10.647,30.222-22.588,39.503c-11.943,9.282-49.764,1.66-57.934-7.248
			c-8.17-8.907-20.665-24.962-18.25-47.021c2.417-22.061,10.551-32.339,26.612-39.518c14.299-6.387,50.775-1.236,59.435,6.649
			C238.779,282.194,238.9,302.564,238.103,317.626z"/>
		<path d="M235.134,317.224c-0.946,17.857-10.007,28.402-21.232,37.127c-11.221,8.724-46.768,1.558-54.446-6.813
			c-7.679-8.372-19.424-23.459-17.151-44.194c2.272-20.729,9.915-30.392,25.013-37.135c13.436-6.006,47.719-1.166,55.855,6.246
			C235.764,283.923,235.884,303.069,235.134,317.224z"/>
		<path d="M230.901,316.651c-0.861,16.224-9.095,25.81-19.296,33.736c-10.194,7.929-42.498,1.416-49.477-6.193
			c-6.979-7.604-17.652-21.314-15.585-40.157c2.064-18.836,9.01-27.618,22.729-33.747c12.21-5.457,43.364-1.058,50.758,5.678
			C231.474,286.389,231.58,303.786,230.901,316.651z"/>
		<path fill="none" stroke="#000000" stroke-width="2.0114" stroke-linecap="round" d="M165.125,283.876
			c0.738-2.017,9.484-3.089,11.571,0.35"/>
		
			<line fill="none" stroke="#000000" stroke-width="2.0114" stroke-linecap="round" x1="176.697" y1="284.226" x2="183.822" y2="299.195"/>
		<path fill="none" stroke="#000000" stroke-width="2.0114" stroke-linecap="round" d="M176.697,284.226
			c0,0-0.711-11.333,8.573-7.861"/>
		
			<line fill="none" stroke="#000000" stroke-width="2.0114" stroke-linecap="round" x1="195.695" y1="309.639" x2="212.317" y2="307.405"/>
		<path fill="none" stroke="#000000" stroke-width="2.0114" stroke-linecap="round" d="M212.317,307.405
			c3.807-0.819,10.95,8.363,2.978,11.38"/>
		<path fill="none" stroke="#000000" stroke-width="2.0114" stroke-linecap="round" d="M212.317,307.405
			c3.892-0.679,8.68-6.9,2.338-10.897"/>
		<path fill="none" stroke="#000000" stroke-width="2.0114" stroke-linecap="round" d="M188.765,311.88
			c0,0-9.023,12.917-9.293,16.999"/>
		<path fill="none" stroke="#000000" stroke-width="2.0114" stroke-linecap="round" d="M179.472,328.879
			c-1.562,5.769-10.671,5.683-11.035,1.202"/>
		<path fill="none" stroke="#000000" stroke-width="2.0114" stroke-linecap="round" d="M179.472,328.879
			c-1.265,3.435,1.777,12.956,8.94,11.742"/>
		<path fill="none" stroke="#000000" stroke-width="2.0114" stroke-linecap="round" d="M191.036,277.471
			c1.977,1.861,2.552,4.463,1.281,5.815c-1.267,1.346-3.9,0.928-5.879-0.936c-1.98-1.864-2.556-4.467-1.284-5.815
			C186.421,275.188,189.056,275.608,191.036,277.471z"/>
		<path fill="none" stroke="#000000" stroke-width="2.0114" stroke-linecap="round" d="M167.689,289.242
			c-0.154,2.711-1.777,4.825-3.626,4.724c-1.848-0.104-3.22-2.394-3.066-5.107c0.155-2.711,1.776-4.827,3.624-4.723
			C166.471,284.24,167.841,286.529,167.689,289.242z"/>
		<path fill="none" stroke="#000000" stroke-width="2.0114" stroke-linecap="round" d="M164.458,325.426
			c-0.408-2.686,0.75-5.094,2.58-5.365c1.829-0.277,3.642,1.679,4.046,4.367c0.408,2.689-0.75,5.09-2.579,5.367
			C166.673,330.07,164.863,328.114,164.458,325.426z"/>
		<path fill="none" stroke="#000000" stroke-width="2.0114" stroke-linecap="round" d="M189.15,334.708
			c1.801-2.034,4.382-2.698,5.771-1.473c1.391,1.225,1.055,3.871-0.741,5.909c-1.797,2.038-4.382,2.699-5.768,1.477
			C187.022,339.394,187.355,336.747,189.15,334.708z"/>
		<path fill="none" stroke="#000000" stroke-width="2.0114" stroke-linecap="round" d="M212.877,324.313
			c-2.334,1.392-4.997,1.229-5.943-0.359c-0.946-1.592,0.18-4.009,2.516-5.398c2.335-1.39,4.999-1.228,5.944,0.362
			C216.34,320.507,215.215,322.926,212.877,324.313z"/>
		<path fill="none" stroke="#000000" stroke-width="2.0114" stroke-linecap="round" d="M208.612,297.574
			c-2.564-0.896-4.149-3.036-3.542-4.786c0.61-1.747,3.188-2.438,5.749-1.545c2.569,0.897,4.157,3.036,3.545,4.785
			C213.757,297.776,211.18,298.468,208.612,297.574z"/>
		<path d="M132.655,173.046c14.898,12.108,25.547,30.666,26.42,44.36c0.354,5.554-4.599,26.617-16.753,34.896
			c-9.063,6.173-36.554,13.692-44.288,7.142c-7.146-6.05-19.256-15.278-23.249-30.736c-5.159-19.96,13.827-43.166,23.84-46.729
			C114.115,176.461,121.296,163.811,132.655,173.046z"/>
		<path d="M101.884,254.413c0.006-3.023-0.133-6.013-0.316-9.032c-0.278-4.532-2.706-7.348-5.843-8.628
			c-0.913-4.856-1.457-9.859-2.49-14.32c-2.29-9.826-4.862-19.088-10.7-27.456c-4.97-1.97-10.644,3.323-12.173,21.744
			c-0.801,9.6,4.102,16.538,8.56,26.408c3.107,6.874,16.733,16.59,21.234,17.091C101.216,258.425,101.88,256.436,101.884,254.413z"
			/>
		<path d="M114.443,175.238c0.721,6.182,3.96,12.14,8.843,16.93c-6.547-6.425-3.19-4.115-1.555,0.363
			c0.855,2.344,1.494,4.775,2.205,7.166c1.52,5.112,3.357,10.136,5.145,15.161c3.911,11.005,6.616,18.491,6.646,29.94
			c0.007,2.355,2.036,7.667,2.888,9.742c1.434-0.786,2.691-1.544,3.708-2.238c12.154-8.279,18.059-18.23,17.805-23.789
			c-1.546-33.938-8.277-37.334-22.102-50.655C131.398,171.474,125.393,170.429,114.443,175.238z"/>
		<path d="M145.311,183.207c11.749,10.77,13.869,22.984,13.511,35.648c-0.36,12.668-25.438,33.062-35.55,33.6
			c-10.112,0.538-27.151,0.066-40.128-13.248c-12.977-13.315-15.291-24.052-11.376-38.261c3.487-12.648,26.25-33.492,35.961-34.89
			C122.759,163.892,135.995,174.665,145.311,183.207z"/>
		<path d="M143.469,184.909c11.043,10.125,13.035,21.603,12.696,33.509c-0.338,11.904-23.908,31.072-33.413,31.577
			c-9.501,0.506-25.515,0.062-37.711-12.454c-12.195-12.512-14.373-22.603-10.69-35.955c3.274-11.889,24.67-31.479,33.798-32.791
			C122.272,166.763,134.715,176.885,143.469,184.909z"/>
		<path d="M140.841,187.341c10.035,9.203,11.846,19.633,11.537,30.453c-0.305,10.814-21.725,28.234-30.361,28.691
			c-8.637,0.462-23.187,0.061-34.27-11.315c-11.08-11.368-13.059-20.538-9.711-32.675c2.974-10.801,22.416-28.605,30.71-29.797
			C121.579,170.852,132.887,180.05,140.841,187.341z"/>
		<path fill="none" stroke="#000000" stroke-width="2.0114" stroke-linecap="round" d="M84.609,212.414
			c-0.91-1.55,3.056-7.778,6.392-7.296"/>
		
			<line fill="none" stroke="#000000" stroke-width="2.0114" stroke-linecap="round" x1="91" y1="205.118" x2="104.476" y2="208.486"/>
		<path fill="none" stroke="#000000" stroke-width="2.0114" stroke-linecap="round" d="M91,205.118c0,0-7.706-5.578-0.516-9.73"/>
		
			<line fill="none" stroke="#000000" stroke-width="2.0114" stroke-linecap="round" x1="117.555" y1="206.372" x2="124.963" y2="194.433"/>
		<path fill="none" stroke="#000000" stroke-width="2.0114" stroke-linecap="round" d="M124.963,194.433
			c1.499-2.896,11.242-2.625,8.945,4.139"/>
		<path fill="none" stroke="#000000" stroke-width="2.0114" stroke-linecap="round" d="M124.963,194.433
			c1.635-2.875,0.163-9.287-5.8-7.314"/>
		<path fill="none" stroke="#000000" stroke-width="2.0114" stroke-linecap="round" d="M115.311,212.049
			c0,0,3.546,12.714,6.042,15.064"/>
		<path fill="none" stroke="#000000" stroke-width="2.0114" stroke-linecap="round" d="M121.353,227.113
			c2.898,4.081-2.011,9.927-5.101,7.775"/>
		<path fill="none" stroke="#000000" stroke-width="2.0114" stroke-linecap="round" d="M121.353,227.113
			c1.547,2.647,9.325,5.751,12.355,0.474"/>
		<path fill="none" stroke="#000000" stroke-width="2.0114" stroke-linecap="round" d="M94.272,192.248
			c2.257-0.287,4.247,0.727,4.442,2.269c0.195,1.537-1.477,3.016-3.737,3.303c-2.26,0.287-4.249-0.728-4.442-2.266
			C90.336,194.015,92.013,192.536,94.272,192.248z"/>
		
			<ellipse transform="matrix(0.6787 -0.7344 0.7344 0.6787 -130.2667 133.5767)" fill="none" stroke="#000000" stroke-width="2.0114" stroke-linecap="round" cx="87.539" cy="215.677" rx="2.808" ry="4.125"/>
		<path fill="none" stroke="#000000" stroke-width="2.0114" stroke-linecap="round" d="M111.12,234.982
			c-1.954-1.169-2.894-3.2-2.094-4.528c0.795-1.33,3.025-1.461,4.979-0.288c1.954,1.167,2.893,3.197,2.097,4.527
			C115.304,236.023,113.073,236.151,111.12,234.982z"/>
		<path fill="none" stroke="#000000" stroke-width="2.0114" stroke-linecap="round" d="M130.277,223.958
			c-0.355-2.246,0.59-4.269,2.123-4.514c1.533-0.248,3.065,1.379,3.426,3.627c0.361,2.246-0.589,4.27-2.118,4.516
			C132.173,227.831,130.64,226.208,130.277,223.958z"/>
		<path fill="none" stroke="#000000" stroke-width="2.0114" stroke-linecap="round" d="M136.196,203.079
			c-0.343,2.251-1.866,3.886-3.399,3.649c-1.533-0.234-2.494-2.249-2.151-4.501c0.346-2.251,1.87-3.888,3.402-3.648
			C135.58,198.814,136.545,200.829,136.196,203.079z"/>
		<path fill="none" stroke="#000000" stroke-width="2.0114" stroke-linecap="round" d="M116.634,191.593
			c-1.945,1.182-4.174,1.066-4.98-0.26c-0.807-1.325,0.121-3.358,2.063-4.54c1.947-1.185,4.177-1.07,4.98,0.257
			C119.506,188.374,118.579,190.408,116.634,191.593z"/>
	</g>
	<g>
		<g>
			<g>
				<path fill="#39680C" d="M85.357,242.992c8.742,19.268,3.481,37.716-1.195,52.098c-1.898,5.831-15.859,21.604-31.678,25.139
					c-11.795,2.637-44.296,3.274-57.281-14.72c-6.04-8.369-7.551-15.606-9.041-33.136c-1.687-19.831,38.798-38.591,50.5-38.167
					C54.774,234.859,79.127,229.255,85.357,242.992z"/>
				<path fill="#2B5407" d="M10.53,309.722c1.235-3.097,2.31-6.215,3.352-9.384c1.557-4.754,0.215-8.625-2.475-11.213
					c1.041-5.345,2.52-10.688,3.274-15.677c1.655-10.996,2.787-21.528,0.209-32.476c-14.509,7.146-29.778,19.062-28.729,31.4
					c1.49,17.529,3.001,24.767,9.041,33.136c2.905,4.024,6.788,7.11,11.194,9.457C8.212,313.56,9.703,311.789,10.53,309.722z"/>
				<path fill="#2B5407" d="M55.607,233.74c-1.779,6.622-0.885,14.044,2.167,20.937c-4.094-9.246-1.593-5.515-1.741-0.262
					c-0.077,2.748-0.414,5.5-0.656,8.237c-0.524,5.856-0.684,11.746-0.9,17.621c-0.469,12.861-0.745,21.633-5.372,33.369
					c-0.95,2.415-1.357,4.901-1.331,7.373c1.791-0.224,3.387-0.491,4.711-0.787c15.818-3.534,29.779-19.308,31.678-25.139
					c4.677-14.382,9.938-32.83,1.195-52.098C81.167,233.756,68.78,233.269,55.607,233.74z"/>
				<path fill="#498217" d="M44.024,215.769c18.984,1.27,30.073,11.061,39.189,23.13c9.115,12.07,0.975,49.784-8.048,57.829
					c-9.019,8.047-25.244,20.32-47.268,17.601c-22.023-2.721-32.19-10.993-39.146-27.153c-6.192-14.386-0.54-50.79,7.466-59.338
					C8.606,214.606,28.975,214.763,44.024,215.769z"/>
				<path fill="#DBE891" d="M43.581,218.732c17.842,1.193,28.264,10.397,36.83,21.739c8.568,11.344,0.916,46.789-7.562,54.351
					c-8.476,7.561-23.725,19.097-44.425,16.539C7.726,308.805-1.83,301.03-8.364,285.843c-5.82-13.52-0.507-47.732,7.017-55.766
					C10.293,217.642,29.438,217.788,43.581,218.732z"/>
				<path fill="#EAF9C2" d="M42.949,222.959c16.212,1.082,25.684,9.449,33.469,19.757c7.787,10.306,0.831,42.516-6.872,49.386
					c-7.702,6.873-21.559,17.356-40.369,15.033c-18.809-2.325-27.492-9.391-33.432-23.192c-5.288-12.283-0.46-43.375,6.376-50.674
					C12.698,221.968,30.099,222.101,42.949,222.959z"/>
				<g>
					<path fill="none" stroke="#C5DD7A" stroke-width="2.0114" stroke-linecap="round" d="M23.875,234.492
						c1.677-1.345,9.714,2.273,9.714,6.297"/>
					
						<line fill="none" stroke="#C5DD7A" stroke-width="2.0114" stroke-linecap="round" x1="33.589" y1="240.789" x2="31.922" y2="257.286"/>
					<path fill="none" stroke="#C5DD7A" stroke-width="2.0114" stroke-linecap="round" d="M33.589,240.789
						c0,0,5.267-10.057,11.406-2.275"/>
					
						<line fill="none" stroke="#C5DD7A" stroke-width="2.0114" stroke-linecap="round" x1="36.662" y1="272.373" x2="52.036" y2="279.075"/>
					<path fill="none" stroke="#C5DD7A" stroke-width="2.0114" stroke-linecap="round" d="M52.036,279.075
						c3.679,1.273,5.026,12.826-3.353,11.274"/>
					<path fill="none" stroke="#C5DD7A" stroke-width="2.0114" stroke-linecap="round" d="M52.036,279.075
						c3.679,1.439,10.997-1.399,7.646-8.103"/>
					<path fill="none" stroke="#C5DD7A" stroke-width="2.0114" stroke-linecap="round" d="M29.574,270.695
						c0,0-14.414,6.367-16.761,9.722"/>
					<path fill="none" stroke="#C5DD7A" stroke-width="2.0114" stroke-linecap="round" d="M12.813,280.417
						c-4.326,4.121-12.07-0.674-10.059-4.695"/>
					<path fill="none" stroke="#C5DD7A" stroke-width="2.0114" stroke-linecap="round" d="M12.813,280.417
						c-2.858,2.277-5.192,11.999,1.562,14.673"/>
					<path fill="none" stroke="#C5DD7A" stroke-width="2.0114" stroke-linecap="round" d="M49.35,242.445
						c0.729,2.619-0.13,5.144-1.916,5.638c-1.782,0.494-3.816-1.227-4.543-3.845c-0.727-2.622,0.132-5.146,1.915-5.641
						C46.591,238.102,48.625,239.825,49.35,242.445z"/>
					<path fill="none" stroke="#C5DD7A" stroke-width="2.0114" stroke-linecap="round" d="M23.287,240.41
						c-1.539,2.239-4.022,3.204-5.55,2.157c-1.526-1.045-1.515-3.712,0.021-5.95c1.541-2.244,4.023-3.212,5.55-2.162
						C24.836,235.502,24.823,238.168,23.287,240.41z"/>
					<path fill="none" stroke="#C5DD7A" stroke-width="2.0114" stroke-linecap="round" d="M1.765,269.678
						c1.045-2.508,3.281-3.965,4.99-3.247c1.708,0.711,2.244,3.322,1.195,5.831c-1.048,2.509-3.282,3.964-4.988,3.25
						C1.254,274.801,0.716,272.186,1.765,269.678z"/>
					<path fill="none" stroke="#C5DD7A" stroke-width="2.0114" stroke-linecap="round" d="M18.071,290.418
						c2.592-0.811,5.144-0.034,5.698,1.731c0.552,1.766-1.105,3.855-3.697,4.667c-2.595,0.811-5.147,0.041-5.697-1.727
						C13.82,293.319,15.478,291.229,18.071,290.418z"/>
					<path fill="none" stroke="#C5DD7A" stroke-width="2.0114" stroke-linecap="round" d="M43.748,293.827
						c-2.716-0.018-4.908-1.54-4.893-3.392c0.015-1.848,2.229-3.332,4.948-3.309c2.719,0.02,4.91,1.541,4.895,3.392
						C48.683,292.368,46.467,293.852,43.748,293.827z"/>
					<path fill="none" stroke="#C5DD7A" stroke-width="2.0114" stroke-linecap="round" d="M53.963,268.75
						c-1.731-2.093-1.973-4.749-0.55-5.93c1.429-1.178,3.988-0.433,5.717,1.661c1.733,2.095,1.983,4.748,0.553,5.928
						C58.256,271.59,55.696,270.845,53.963,268.75z"/>
				</g>
			</g>
			<g>
				<path fill="#39680C" d="M198.226,247.88c8.743,19.27,3.483,37.716-1.195,52.098c-1.897,5.832-15.858,21.607-31.676,25.141
					c-11.796,2.636-44.296,3.273-57.283-14.721c-6.04-8.369-7.55-15.607-9.04-33.137c-1.688-19.831,38.799-38.591,50.501-38.165
					C167.644,239.748,191.997,234.143,198.226,247.88z"/>
				<path fill="#2B5407" d="M123.401,314.611c1.236-3.099,2.309-6.217,3.35-9.387c1.559-4.753,0.217-8.622-2.475-11.212
					c1.041-5.346,2.521-10.686,3.274-15.677c1.657-10.996,2.788-21.529,0.211-32.476c-14.509,7.146-29.779,19.064-28.728,31.4
					c1.49,17.529,3,24.768,9.04,33.137c2.905,4.023,6.789,7.111,11.195,9.457C121.082,318.446,122.573,316.676,123.401,314.611z"/>
				<path fill="#2B5407" d="M168.476,238.629c-1.777,6.622-0.884,14.045,2.17,20.936c-4.095-9.245-1.596-5.515-1.744-0.26
					c-0.076,2.745-0.412,5.499-0.657,8.237c-0.523,5.854-0.683,11.744-0.898,17.619c-0.469,12.862-0.747,21.634-5.371,33.369
					c-0.952,2.416-1.358,4.901-1.334,7.372c1.793-0.221,3.389-0.488,4.713-0.784c15.817-3.534,29.779-19.309,31.676-25.141
					c4.679-14.382,9.938-32.828,1.195-52.098C194.038,238.643,181.649,238.156,168.476,238.629z"/>
				<path fill="#498217" d="M156.894,220.656c18.984,1.27,30.071,11.063,39.188,23.131c9.116,12.069,0.974,49.782-8.045,57.829
					c-9.02,8.047-25.246,20.32-47.27,17.602c-22.022-2.722-32.19-10.994-39.146-27.155c-6.19-14.384-0.538-50.788,7.468-59.337
					C121.475,219.495,141.846,219.65,156.894,220.656z"/>
				<path fill="#DBE891" d="M156.45,223.622c17.844,1.191,28.264,10.395,36.832,21.739c8.568,11.341,0.914,46.786-7.563,54.349
					c-8.478,7.562-23.724,19.097-44.425,16.541c-20.698-2.559-30.255-10.334-36.788-25.52c-5.822-13.519-0.509-47.733,7.015-55.768
					C123.163,222.531,142.309,222.676,156.45,223.622z"/>
				<path fill="#EAF9C2" d="M155.818,227.848c16.214,1.081,25.684,9.45,33.471,19.758c7.785,10.304,0.831,42.514-6.873,49.384
					c-7.702,6.875-21.56,17.358-40.37,15.032c-18.807-2.323-27.492-9.391-33.43-23.191c-5.29-12.284-0.46-43.373,6.376-50.674
					C125.569,226.855,142.969,226.99,155.818,227.848z"/>
				<g>
					<path fill="none" stroke="#C5DD7A" stroke-width="2.0114" stroke-linecap="round" d="M136.744,239.38
						c1.677-1.344,9.716,2.275,9.716,6.299"/>
					
						<line fill="none" stroke="#C5DD7A" stroke-width="2.0114" stroke-linecap="round" x1="146.46" y1="245.679" x2="144.791" y2="262.175"/>
					<path fill="none" stroke="#C5DD7A" stroke-width="2.0114" stroke-linecap="round" d="M146.46,245.679
						c0,0,5.265-10.059,11.404-2.278"/>
					
						<line fill="none" stroke="#C5DD7A" stroke-width="2.0114" stroke-linecap="round" x1="149.533" y1="277.261" x2="164.906" y2="283.965"/>
					<path fill="none" stroke="#C5DD7A" stroke-width="2.0114" stroke-linecap="round" d="M164.906,283.965
						c3.678,1.271,5.026,12.825-3.353,11.274"/>
					<path fill="none" stroke="#C5DD7A" stroke-width="2.0114" stroke-linecap="round" d="M164.906,283.965
						c3.678,1.438,10.998-1.399,7.647-8.106"/>
					<path fill="none" stroke="#C5DD7A" stroke-width="2.0114" stroke-linecap="round" d="M142.444,275.583
						c0,0-14.414,6.369-16.762,9.724"/>
					<path fill="none" stroke="#C5DD7A" stroke-width="2.0114" stroke-linecap="round" d="M125.683,285.307
						c-4.324,4.119-12.068-0.676-10.058-4.697"/>
					<path fill="none" stroke="#C5DD7A" stroke-width="2.0114" stroke-linecap="round" d="M125.683,285.307
						c-2.856,2.277-5.19,11.998,1.562,14.671"/>
					
						<ellipse transform="matrix(0.9636 -0.2673 0.2673 0.9636 -60.5675 51.5321)" fill="none" stroke="#C5DD7A" stroke-width="2.0114" stroke-linecap="round" cx="158.993" cy="248.229" rx="3.352" ry="4.92"/>
					<path fill="none" stroke="#C5DD7A" stroke-width="2.0114" stroke-linecap="round" d="M136.156,245.299
						c-1.537,2.238-4.023,3.205-5.55,2.158c-1.525-1.047-1.513-3.713,0.023-5.953c1.539-2.241,4.022-3.211,5.549-2.159
						C137.707,240.391,137.694,243.058,136.156,245.299z"/>
					<path fill="none" stroke="#C5DD7A" stroke-width="2.0114" stroke-linecap="round" d="M114.636,274.565
						c1.045-2.506,3.279-3.963,4.99-3.248c1.706,0.711,2.242,3.323,1.195,5.833c-1.048,2.507-3.282,3.963-4.988,3.251
						C114.122,279.688,113.586,277.073,114.636,274.565z"/>
					<path fill="none" stroke="#C5DD7A" stroke-width="2.0114" stroke-linecap="round" d="M130.941,295.306
						c2.594-0.81,5.145-0.034,5.697,1.732c0.553,1.766-1.104,3.856-3.695,4.665c-2.597,0.811-5.146,0.041-5.699-1.726
						C126.691,298.208,128.349,296.119,130.941,295.306z"/>
					
						<ellipse transform="matrix(-0.0083 1 -1 -0.0083 453.3003 141.1789)" fill="none" stroke="#C5DD7A" stroke-width="2.0114" stroke-linecap="round" cx="156.645" cy="295.364" rx="3.351" ry="4.921"/>
					<path fill="none" stroke="#C5DD7A" stroke-width="2.0114" stroke-linecap="round" d="M166.832,273.64
						c-1.73-2.093-1.973-4.75-0.55-5.931c1.428-1.179,3.988-0.432,5.719,1.661c1.732,2.095,1.982,4.748,0.553,5.928
						C171.125,276.478,168.565,275.733,166.832,273.64z"/>
				</g>
			</g>
			<g>
				<path fill="#39680C" d="M122.477,281.158c11.794,19.647,16.199,44.804,11.611,60.525c-1.861,6.378-15.982,27.999-32.988,32.349
					c-12.682,3.243-46.588,0.503-52.606-9.991c-5.561-9.696-15.394-24.975-13.593-43.947c2.326-24.493,33.071-42.818,45.753-42.745
					C100.281,277.454,113.485,266.176,122.477,281.158z"/>
				<path fill="#2B5407" d="M54.862,359.959c1.237-3.392,2.294-6.802,3.317-10.266c1.528-5.198-0.051-9.346-3.05-12.058
					c0.95-5.818,2.375-11.654,3.025-17.081c1.428-11.958,2.307-23.396-0.844-35.163c-4.775-4.231-13.293-0.597-22.501,19.452
					c-4.8,10.448-2.12,20.225-1.129,33.114c0.689,8.979,12.032,25.423,16.88,27.814C52.479,364.191,54.036,362.227,54.862,359.959z"
					/>
				<path fill="#2B5407" d="M101.146,276.216c-1.705,7.229-0.493,15.232,3.041,22.593c-4.735-9.87-1.908-5.916-1.895-0.226
					c0.007,2.979-0.264,5.969-0.439,8.939c-0.372,6.355-0.351,12.74-0.389,19.105c-0.086,13.941-0.094,23.441-4.715,36.302
					c-0.949,2.647-0.832,9.431-0.723,12.108c1.931-0.301,3.65-0.641,5.073-1.006c17.006-4.35,27.677-13.115,29.653-19.459
					c12.061-38.715,5.89-45.258-4.209-65.828C121.704,278.884,115.391,275.269,101.146,276.216z"/>
				<path fill="#498217" d="M132.548,297.706c8.805,16.864,6.219,31.432,0.665,45.501c-5.554,14.069-41.989,26.759-53.555,23.25
					c-11.567-3.508-30.495-10.965-39.646-31.183c-9.147-20.219-7.38-33.206,2.792-47.562c9.055-12.776,43.074-26.913,54.54-24.53
					C115.093,266.863,125.566,284.336,132.548,297.706z"/>
				<path fill="#DBE891" d="M129.786,298.87c8.276,15.854,5.846,29.541,0.625,42.766c-5.218,13.22-39.463,25.148-50.333,21.85
					c-10.87-3.296-28.661-10.305-37.26-29.307c-8.597-19-6.938-31.208,2.625-44.697c8.508-12.011,40.482-25.295,51.26-23.058
					C113.378,269.885,123.227,286.306,129.786,298.87z"/>
				<path fill="#EAF9C2" d="M125.85,300.533c7.518,14.403,5.311,26.846,0.564,38.859c-4.739,12.016-35.86,22.853-45.737,19.854
					c-9.88-2.993-26.046-9.359-33.856-26.629c-7.813-17.265-6.305-28.36,2.384-40.619c7.732-10.911,36.787-22.984,46.579-20.95
					C110.94,274.194,119.89,289.115,125.85,300.533z"/>
				<g>
					<path fill="none" stroke="#C5DD7A" stroke-width="2.0114" stroke-linecap="round" d="M52.553,305.804
						c-0.394-2.111,6.591-7.488,10.138-5.59"/>
					
						<line fill="none" stroke="#C5DD7A" stroke-width="2.0114" stroke-linecap="round" x1="62.69" y1="300.214" x2="76.443" y2="309.474"/>
					<path fill="none" stroke="#C5DD7A" stroke-width="2.0114" stroke-linecap="round" d="M62.69,300.214
						c0,0-6.381-9.391,3.377-11.128"/>
					
						<line fill="none" stroke="#C5DD7A" stroke-width="2.0114" stroke-linecap="round" x1="91.979" y1="312.418" x2="105.149" y2="302.032"/>
					<path fill="none" stroke="#C5DD7A" stroke-width="2.0114" stroke-linecap="round" d="M105.149,302.032
						c2.859-2.641,13.681,1.627,8.354,8.28"/>
					<path fill="none" stroke="#C5DD7A" stroke-width="2.0114" stroke-linecap="round" d="M105.149,302.032
						c3.004-2.563,3.959-10.354-3.534-10.568"/>
					<path fill="none" stroke="#C5DD7A" stroke-width="2.0114" stroke-linecap="round" d="M87.153,317.875
						c0,0-1.191,15.712,0.656,19.362"/>
					<path fill="none" stroke="#C5DD7A" stroke-width="2.0114" stroke-linecap="round" d="M87.809,337.237
						c1.592,5.762-6.292,10.325-8.887,6.652"/>
					<path fill="none" stroke="#C5DD7A" stroke-width="2.0114" stroke-linecap="round" d="M87.809,337.237
						c0.659,3.601,8.125,10.247,13.672,5.555"/>
					<path fill="none" stroke="#C5DD7A" stroke-width="2.0114" stroke-linecap="round" d="M71.593,287.101
						c2.65,0.597,4.47,2.543,4.064,4.355c-0.404,1.804-2.883,2.784-5.534,2.186c-2.654-0.596-4.475-2.544-4.066-4.352
						C66.459,287.486,68.941,286.507,71.593,287.101z"/>
					<path fill="none" stroke="#C5DD7A" stroke-width="2.0114" stroke-linecap="round" d="M57.491,309.12
						c1.246,2.41,0.925,5.057-0.717,5.908c-1.645,0.851-3.99-0.419-5.238-2.832c-1.25-2.414-0.931-5.06,0.714-5.911
						C53.895,305.432,56.239,306.704,57.491,309.12z"/>
					<path fill="none" stroke="#C5DD7A" stroke-width="2.0114" stroke-linecap="round" d="M73.127,341.909
						c-1.717-2.107-1.945-4.767-0.508-5.932c1.432-1.172,3.987-0.41,5.705,1.698c1.718,2.107,1.945,4.764,0.512,5.934
						C77.398,344.776,74.844,344.015,73.127,341.909z"/>
					<path fill="none" stroke="#C5DD7A" stroke-width="2.0114" stroke-linecap="round" d="M99.107,337.328
						c0.513-2.669,2.397-4.553,4.218-4.204c1.819,0.346,2.877,2.795,2.369,5.463c-0.509,2.669-2.398,4.553-4.213,4.205
						C99.659,342.446,98.6,339.997,99.107,337.328z"/>
					<path fill="none" stroke="#C5DD7A" stroke-width="2.0114" stroke-linecap="round" d="M114.239,316.302
						c-1.302,2.388-3.677,3.602-5.299,2.715c-1.626-0.886-1.888-3.541-0.584-5.928c1.303-2.383,3.678-3.6,5.3-2.711
						C115.281,311.265,115.545,313.919,114.239,316.302z"/>
					<path fill="none" stroke="#C5DD7A" stroke-width="2.0114" stroke-linecap="round" d="M96.956,295.459
						c-2.662,0.535-5.116-0.501-5.484-2.316c-0.366-1.815,1.503-3.721,4.162-4.257c2.666-0.534,5.121,0.497,5.486,2.314
						C101.487,293.013,99.62,294.921,96.956,295.459z"/>
				</g>
			</g>
			<g>
				<path fill="#39680C" d="M311.327,303.835c-2.282,21.036-16.2,34.237-27.549,44.234c-4.602,4.055-24.648,10.525-40.062,5.516
					c-11.495-3.736-39.794-19.73-41.812-41.828c-0.938-10.28,1.444-17.278,9.085-33.125c8.644-17.928,53.04-13.467,62.896-7.143
					C289.143,281.268,312.958,288.841,311.327,303.835z"/>
				<path fill="#2B5407" d="M212.953,323.185c2.642-2.036,5.151-4.175,7.661-6.374c3.76-3.298,4.576-7.309,3.576-10.909
					c3.619-4.07,7.612-7.916,10.799-11.828c7.024-8.621,13.359-17.111,16.713-27.847c-16.125-1.232-35.336,1.251-40.713,12.405
					c-7.641,15.847-10.023,22.845-9.085,33.125c0.452,4.94,2.223,9.576,4.82,13.838
					C209.005,325.309,211.188,324.541,212.953,323.185z"/>
				<path fill="#2B5407" d="M290.429,280.728c-4.901,4.796-7.908,11.64-8.79,19.126c1.182-10.043,1.435-5.56-1.366-1.112
					c-1.465,2.326-3.155,4.524-4.76,6.755c-3.432,4.773-6.565,9.764-9.743,14.709c-6.95,10.832-11.652,18.242-21.608,25.988
					c-2.049,1.596-3.664,3.529-4.9,5.668c1.657,0.721,3.165,1.303,4.456,1.723c15.413,5.01,35.46-1.461,40.062-5.516
					c11.349-9.997,25.267-23.198,27.549-44.234C312.423,293.754,302.007,287.027,290.429,280.728z"/>
				<path fill="#498217" d="M289.609,259.364c15.693,10.756,20.253,24.829,21.956,39.858c1.703,15.028-24.504,43.347-36.363,45.679
					c-11.859,2.335-32.072,4.642-49.644-8.911c-17.571-13.552-22.111-25.849-19.873-43.3c1.993-15.532,25.392-43.99,36.633-47.272
					C259.713,240.335,277.167,250.838,289.609,259.364z"/>
				<path fill="#DBE891" d="M287.718,261.69c14.751,10.108,19.035,23.335,20.636,37.46c1.602,14.125-23.029,40.737-34.175,42.93
					c-11.145,2.194-30.142,4.362-46.658-8.375c-16.515-12.737-20.781-24.293-18.676-40.692c1.872-14.599,23.86-41.344,34.427-44.429
					C259.621,243.807,276.026,253.677,287.718,261.69z"/>
				<path fill="#EAF9C2" d="M285.021,265.007c13.405,9.184,17.299,21.206,18.753,34.043c1.456,12.833-20.927,37.017-31.055,39.01
					c-10.128,1.994-27.393,3.966-42.399-7.611c-15.005-11.575-18.885-22.077-16.97-36.979c1.7-13.268,21.683-37.568,31.282-40.372
					C259.489,248.755,274.398,257.728,285.021,265.007z"/>
				<g>
					<path fill="none" stroke="#C5DD7A" stroke-width="2.0114" stroke-linecap="round" d="M262.735,265.224
						c2.125-0.304,7.202,6.902,5.154,10.365"/>
					
						<line fill="none" stroke="#C5DD7A" stroke-width="2.0114" stroke-linecap="round" x1="267.89" y1="275.589" x2="258.056" y2="288.94"/>
					<path fill="none" stroke="#C5DD7A" stroke-width="2.0114" stroke-linecap="round" d="M267.89,275.589
						c0,0,9.654-5.977,10.977,3.847"/>
					
						<line fill="none" stroke="#C5DD7A" stroke-width="2.0114" stroke-linecap="round" x1="254.459" y1="304.338" x2="264.28" y2="317.935"/>
					<path fill="none" stroke="#C5DD7A" stroke-width="2.0114" stroke-linecap="round" d="M264.28,317.935
						c2.518,2.967-2.205,13.598-8.626,7.996"/>
					<path fill="none" stroke="#C5DD7A" stroke-width="2.0114" stroke-linecap="round" d="M264.28,317.935
						c2.433,3.109,10.177,4.392,10.706-3.085"/>
					<path fill="none" stroke="#C5DD7A" stroke-width="2.0114" stroke-linecap="round" d="M249.211,299.287
						c0,0-15.647-1.857-19.376-0.164"/>
					<path fill="none" stroke="#C5DD7A" stroke-width="2.0114" stroke-linecap="round" d="M229.835,299.123
						c-5.82,1.347-10.045-6.724-6.267-9.162"/>
					<path fill="none" stroke="#C5DD7A" stroke-width="2.0114" stroke-linecap="round" d="M229.835,299.123
						c-3.62,0.506-10.577,7.686-6.125,13.422"/>
					<path fill="none" stroke="#C5DD7A" stroke-width="2.0114" stroke-linecap="round" d="M280.614,285.039
						c-0.707,2.623-2.731,4.358-4.519,3.876c-1.785-0.481-2.66-2.999-1.953-5.623c0.708-2.626,2.733-4.361,4.518-3.881
						C280.449,279.894,281.324,282.413,280.614,285.039z"/>
					
						<ellipse transform="matrix(0.4216 0.9068 -0.9068 0.4216 391.1894 -79.3556)" fill="none" stroke="#C5DD7A" stroke-width="2.0114" stroke-linecap="round" cx="257.802" cy="266.979" rx="3.353" ry="4.92"/>
					<path fill="none" stroke="#C5DD7A" stroke-width="2.0114" stroke-linecap="round" d="M225.794,284.255
						c2.175-1.627,4.84-1.742,5.947-0.256c1.106,1.48,0.238,4.003-1.941,5.627c-2.176,1.627-4.841,1.742-5.946,0.261
						C222.743,288.403,223.612,285.88,225.794,284.255z"/>
					<path fill="none" stroke="#C5DD7A" stroke-width="2.0114" stroke-linecap="round" d="M229.27,310.407
						c2.643,0.623,4.444,2.589,4.021,4.391c-0.422,1.801-2.914,2.758-5.556,2.136c-2.647-0.624-4.45-2.586-4.026-4.389
						C224.136,310.742,226.626,309.787,229.27,310.407z"/>
					<path fill="none" stroke="#C5DD7A" stroke-width="2.0114" stroke-linecap="round" d="M249.638,326.412
						c-2.33-1.399-3.444-3.823-2.486-5.411c0.953-1.584,3.614-1.732,5.943-0.33c2.33,1.401,3.442,3.827,2.487,5.413
						C254.626,327.668,251.965,327.816,249.638,326.412z"/>
					
						<ellipse transform="matrix(-0.9878 0.1559 -0.1559 -0.9878 593.8939 572.4445)" fill="none" stroke="#C5DD7A" stroke-width="2.0114" stroke-linecap="round" cx="274.504" cy="309.506" rx="3.352" ry="4.921"/>
				</g>
			</g>
			<g>
				<path fill="#39680C" d="M197.471,387.127c-2.284,21.036-16.201,34.237-27.55,44.234c-4.601,4.054-24.647,10.524-40.062,5.514
					c-11.495-3.735-39.794-19.729-41.812-41.829c-0.939-10.277,1.445-17.277,9.087-33.124c8.642-17.927,53.039-13.465,62.896-7.144
					C175.285,364.559,199.1,372.133,197.471,387.127z"/>
				<path fill="#2B5407" d="M99.096,406.476c2.641-2.036,5.15-4.174,7.662-6.373c3.76-3.298,4.573-7.312,3.577-10.91
					c3.616-4.071,7.609-7.916,10.798-11.827c7.022-8.622,13.358-17.112,16.712-27.847c-16.126-1.233-35.336,1.25-40.711,12.403
					c-7.642,15.847-10.025,22.847-9.087,33.124c0.452,4.943,2.224,9.577,4.821,13.839C95.148,408.598,97.332,407.833,99.096,406.476
					z"/>
				<path fill="#2B5407" d="M176.572,364.02c-4.903,4.794-7.91,11.64-8.792,19.125c1.184-10.043,1.436-5.558-1.364-1.111
					c-1.467,2.324-3.156,4.525-4.76,6.755c-3.434,4.774-6.566,9.762-9.743,14.71c-6.952,10.832-11.653,18.241-21.61,25.987
					c-2.049,1.596-3.663,3.528-4.898,5.669c1.655,0.72,3.165,1.302,4.454,1.721c15.415,5.011,35.462-1.46,40.062-5.514
					c11.349-9.997,25.266-23.198,27.55-44.234C198.565,377.046,188.151,370.319,176.572,364.02z"/>
				<path fill="#498217" d="M175.751,342.654c15.693,10.758,20.253,24.831,21.958,39.858c1.701,15.029-24.504,43.348-36.364,45.68
					c-11.861,2.336-32.073,4.641-49.645-8.91c-17.571-13.554-22.111-25.85-19.872-43.3c1.994-15.534,25.391-43.99,36.632-47.274
					C145.855,323.626,163.309,334.128,175.751,342.654z"/>
				<path fill="#DBE891" d="M173.861,344.98c14.749,10.11,19.033,23.335,20.634,37.461c1.602,14.124-23.029,40.738-34.175,42.931
					c-11.145,2.194-30.142,4.362-46.656-8.375c-16.515-12.738-20.782-24.295-18.677-40.694
					c1.872-14.598,23.861-41.343,34.428-44.428C145.763,327.098,162.168,336.969,173.861,344.98z"/>
				<path fill="#EAF9C2" d="M171.164,348.298c13.404,9.183,17.298,21.207,18.752,34.042c1.456,12.833-20.925,37.017-31.054,39.009
					c-10.129,1.996-27.393,3.968-42.399-7.609c-15.006-11.575-18.886-22.077-16.971-36.979c1.7-13.267,21.684-37.569,31.283-40.372
					C145.632,332.046,160.541,341.018,171.164,348.298z"/>
				<g>
					<path fill="none" stroke="#C5DD7A" stroke-width="2.0114" stroke-linecap="round" d="M148.876,348.515
						c2.128-0.303,7.203,6.903,5.155,10.364"/>
					
						<line fill="none" stroke="#C5DD7A" stroke-width="2.0114" stroke-linecap="round" x1="154.031" y1="358.879" x2="144.199" y2="372.23"/>
					<path fill="none" stroke="#C5DD7A" stroke-width="2.0114" stroke-linecap="round" d="M154.031,358.879
						c0,0,9.654-5.976,10.977,3.848"/>
					
						<line fill="none" stroke="#C5DD7A" stroke-width="2.0114" stroke-linecap="round" x1="140.602" y1="387.63" x2="150.422" y2="401.225"/>
					<path fill="none" stroke="#C5DD7A" stroke-width="2.0114" stroke-linecap="round" d="M150.422,401.225
						c2.518,2.968-2.202,13.599-8.626,7.998"/>
					<path fill="none" stroke="#C5DD7A" stroke-width="2.0114" stroke-linecap="round" d="M150.422,401.225
						c2.433,3.111,10.178,4.394,10.706-3.083"/>
					<path fill="none" stroke="#C5DD7A" stroke-width="2.0114" stroke-linecap="round" d="M135.353,382.577
						c0,0-15.648-1.855-19.375-0.163"/>
					<path fill="none" stroke="#C5DD7A" stroke-width="2.0114" stroke-linecap="round" d="M115.978,382.414
						c-5.821,1.345-10.047-6.726-6.268-9.163"/>
					<path fill="none" stroke="#C5DD7A" stroke-width="2.0114" stroke-linecap="round" d="M115.978,382.414
						c-3.622,0.505-10.579,7.685-6.125,13.423"/>
					
						<ellipse transform="matrix(0.9655 0.2603 -0.2603 0.9655 101.276 -29.896)" fill="none" stroke="#C5DD7A" stroke-width="2.0114" stroke-linecap="round" cx="163.521" cy="367.456" rx="3.352" ry="4.92"/>
					<path fill="none" stroke="#C5DD7A" stroke-width="2.0114" stroke-linecap="round" d="M145.357,353.309
						c-2.463,1.146-5.095,0.711-5.875-0.967c-0.782-1.678,0.588-3.966,3.048-5.113c2.468-1.145,5.097-0.715,5.877,0.965
						C149.19,349.873,147.821,352.163,145.357,353.309z"/>
					<path fill="none" stroke="#C5DD7A" stroke-width="2.0114" stroke-linecap="round" d="M111.935,367.546
						c2.175-1.627,4.841-1.743,5.948-0.256c1.106,1.479,0.239,4.001-1.94,5.628c-2.178,1.627-4.843,1.741-5.946,0.258
						C108.887,371.692,109.754,369.17,111.935,367.546z"/>
					
						<ellipse transform="matrix(0.2288 -0.9735 0.9735 0.2288 -298.0161 417.7291)" fill="none" stroke="#C5DD7A" stroke-width="2.0114" stroke-linecap="round" cx="114.646" cy="396.96" rx="3.352" ry="4.922"/>
					
						<ellipse transform="matrix(-0.516 0.8566 -0.8566 -0.516 556.9516 498.9623)" fill="none" stroke="#C5DD7A" stroke-width="2.0114" stroke-linecap="round" cx="137.508" cy="406.832" rx="3.35" ry="4.921"/>
					<path fill="none" stroke="#C5DD7A" stroke-width="2.0114" stroke-linecap="round" d="M157.336,393.319
						c-0.426-2.683,0.719-5.094,2.544-5.386c1.829-0.288,3.654,1.658,4.078,4.342c0.423,2.682-0.714,5.096-2.543,5.382
						C159.585,397.947,157.762,396.002,157.336,393.319z"/>
				</g>
			</g>
			<path fill="#D1C3BD" d="M235.791,300.59c0-0.004,0-0.01,0.001-0.014c-0.015-2.243-0.312-4.142-0.852-5.783
				c-1.625-8.403-5-16.443-11.63-22.483c-8.659-7.888-45.137-13.038-59.435-6.649c-6.415,2.864-11.546,6.247-15.571,10.655
				c-0.011,0.007-0.02,0.014-0.03,0.02c-9.449,6.552-12.118,16.332-17.827,27.929c-3.564,7.24-2.81,23.958-0.49,30.621
				c0.676,10.735,21.901,26.839,35.347,32.911c-0.02,0.034-0.049,0.087-0.067,0.122c1.277,0.507,2.435,0.918,3.522,1.278
				c0.468,0.16,0.924,0.311,1.357,0.436c10.161,2.963,19.141,3.359,25.765,2.24c-0.055-0.156-0.101-0.317-0.155-0.475
				c-0.962-2.406-1.954-4.799-2.976-7.182c-1.09-2.334-2.058-4.741-3.076-7.114c-0.321-0.747-0.55-1.477-0.732-2.196
				c-1.395-2.722-2.657-5.51-3.539-8.484c-3.96-13.334,13.292-25.445,22.384-12.773c0.416,0.578,0.82,1.167,1.23,1.751
				c2.59,0.113,5.12,0.965,7.073,2.696c0.645,0.573,1.307,1.128,1.978,1.67c3.106,1.928,6,4.073,8.87,6.292
				c5.074-6.884,8.524-15.206,9.101-26.113C236.348,314.038,236.506,307.315,235.791,300.59z"/>
			<g>
				<path fill="#39680C" d="M229.186,293.922c0.149,22.913-8.863,46.81-20.815,58.007c-4.85,4.541-28.008,15.964-44.86,11.051
					c-12.567-3.663-40.356-23.281-40.195-35.377c0.149-11.177-0.536-29.336,10.673-44.746c14.47-19.901,50.261-20.022,61.139-13.504
					C211.968,279.435,229.073,276.448,229.186,293.922z"/>
				<path fill="#2B5407" d="M130.874,327.329c2.79-2.289,5.438-4.686,8.082-7.147c3.962-3.697,4.713-8.071,3.512-11.932
					c3.78-4.525,7.979-8.822,11.302-13.161c7.314-9.568,13.895-18.967,17.172-30.697c-1.958-6.072-11.139-7.281-29.271,5.29
					c-9.45,6.549-12.12,16.331-17.828,27.927c-3.976,8.081-2.585,28.01,0.369,32.535
					C126.669,329.76,129.009,328.861,130.874,327.329z"/>
				<path fill="#2B5407" d="M213.343,278.81c-5.147,5.353-8.179,12.86-8.884,20.993c0.948-10.907,1.369-6.062-1.515-1.157
					c-1.51,2.567-3.266,5-4.931,7.47c-3.555,5.278-6.786,10.787-10.059,16.247c-7.17,11.956-12.014,20.129-22.536,28.846
					c-2.167,1.796-5.519,7.693-6.787,10.054c1.815,0.724,3.469,1.307,4.88,1.718c16.853,4.913,30.498,2.8,35.428-1.655
					c30.091-27.184,28.108-35.958,29.888-58.803C229.678,291.568,226.085,285.245,213.343,278.81z"/>
				<path fill="#498217" d="M229.431,313.29c-1.005,18.998-10.647,30.222-22.588,39.503c-11.943,9.282-49.764,1.66-57.934-7.248
					c-8.17-8.907-20.665-24.962-18.25-47.02c2.417-22.062,10.551-32.339,26.612-39.519c14.299-6.387,50.775-1.236,59.435,6.649
					C230.106,277.858,230.227,298.228,229.431,313.29z"/>
				<path fill="#DBE891" d="M226.462,312.888c-0.946,17.857-10.007,28.402-21.232,37.127c-11.221,8.724-46.768,1.558-54.446-6.813
					c-7.679-8.372-19.424-23.459-17.151-44.194c2.272-20.729,9.915-30.393,25.013-37.135c13.436-6.006,47.719-1.166,55.855,6.246
					C227.092,279.587,227.212,298.732,226.462,312.888z"/>
				<path fill="#EAF9C2" d="M222.228,312.315c-0.861,16.224-9.095,25.81-19.296,33.736c-10.194,7.929-42.498,1.416-49.477-6.193
					c-6.978-7.604-17.652-21.314-15.585-40.157c2.064-18.836,9.01-27.618,22.729-33.747c12.21-5.457,43.364-1.058,50.758,5.678
					C222.802,282.053,222.908,299.45,222.228,312.315z"/>
				<g>
					<path fill="none" stroke="#C5DD7A" stroke-width="2.0114" stroke-linecap="round" d="M156.453,279.54
						c0.738-2.017,9.484-3.089,11.571,0.35"/>
					
						<line fill="none" stroke="#C5DD7A" stroke-width="2.0114" stroke-linecap="round" x1="168.024" y1="279.89" x2="175.149" y2="294.859"/>
					<path fill="none" stroke="#C5DD7A" stroke-width="2.0114" stroke-linecap="round" d="M168.024,279.89
						c0,0-0.711-11.333,8.573-7.861"/>
					
						<line fill="none" stroke="#C5DD7A" stroke-width="2.0114" stroke-linecap="round" x1="187.022" y1="305.303" x2="203.644" y2="303.068"/>
					<path fill="none" stroke="#C5DD7A" stroke-width="2.0114" stroke-linecap="round" d="M203.644,303.068
						c3.807-0.819,10.95,8.363,2.977,11.38"/>
					<path fill="none" stroke="#C5DD7A" stroke-width="2.0114" stroke-linecap="round" d="M203.644,303.068
						c3.892-0.679,8.68-6.899,2.338-10.896"/>
					<path fill="none" stroke="#C5DD7A" stroke-width="2.0114" stroke-linecap="round" d="M180.093,307.544
						c0,0-9.023,12.917-9.293,16.999"/>
					<path fill="none" stroke="#C5DD7A" stroke-width="2.0114" stroke-linecap="round" d="M170.8,324.543
						c-1.562,5.768-10.671,5.683-11.035,1.202"/>
					<path fill="none" stroke="#C5DD7A" stroke-width="2.0114" stroke-linecap="round" d="M170.8,324.543
						c-1.265,3.435,1.777,12.956,8.94,11.742"/>
					<path fill="none" stroke="#C5DD7A" stroke-width="2.0114" stroke-linecap="round" d="M182.364,273.135
						c1.977,1.861,2.552,4.463,1.281,5.815c-1.267,1.346-3.9,0.928-5.879-0.936c-1.98-1.864-2.556-4.467-1.284-5.815
						C177.749,270.852,180.384,271.272,182.364,273.135z"/>
					<path fill="none" stroke="#C5DD7A" stroke-width="2.0114" stroke-linecap="round" d="M159.017,284.906
						c-0.154,2.711-1.777,4.825-3.626,4.724c-1.848-0.105-3.22-2.394-3.066-5.107c0.155-2.711,1.776-4.827,3.624-4.723
						C157.799,279.904,159.169,282.192,159.017,284.906z"/>
					<path fill="none" stroke="#C5DD7A" stroke-width="2.0114" stroke-linecap="round" d="M155.786,321.09
						c-0.408-2.687,0.75-5.094,2.58-5.365c1.829-0.277,3.642,1.679,4.046,4.367c0.408,2.689-0.75,5.09-2.579,5.367
						C158.001,325.734,156.19,323.778,155.786,321.09z"/>
					<path fill="none" stroke="#C5DD7A" stroke-width="2.0114" stroke-linecap="round" d="M180.477,330.372
						c1.801-2.034,4.382-2.698,5.771-1.473c1.391,1.225,1.055,3.871-0.741,5.909c-1.797,2.038-4.382,2.699-5.768,1.477
						C178.35,335.058,178.683,332.411,180.477,330.372z"/>
					<path fill="none" stroke="#C5DD7A" stroke-width="2.0114" stroke-linecap="round" d="M204.205,319.977
						c-2.334,1.393-4.997,1.229-5.943-0.359c-0.946-1.592,0.18-4.009,2.516-5.398c2.335-1.39,4.999-1.228,5.944,0.362
						C207.668,316.171,206.543,318.59,204.205,319.977z"/>
					<path fill="none" stroke="#C5DD7A" stroke-width="2.0114" stroke-linecap="round" d="M199.939,293.238
						c-2.564-0.896-4.149-3.036-3.542-4.786c0.61-1.747,3.188-2.438,5.749-1.545c2.569,0.897,4.157,3.036,3.545,4.785
						C205.085,293.44,202.508,294.132,199.939,293.238z"/>
				</g>
			</g>
			<g>
				<path fill="#39680C" d="M123.983,168.71c14.897,12.108,25.547,30.666,26.42,44.36c0.354,5.554-4.599,26.617-16.753,34.896
					c-9.063,6.173-36.554,13.692-44.288,7.142c-7.146-6.05-19.256-15.278-23.249-30.736c-5.159-19.96,13.827-43.166,23.84-46.729
					C105.443,172.125,112.624,159.475,123.983,168.71z"/>
				<path fill="#2B5407" d="M93.212,250.077c0.006-3.023-0.133-6.013-0.316-9.032c-0.278-4.532-2.706-7.348-5.843-8.628
					c-0.913-4.857-1.457-9.859-2.49-14.32c-2.29-9.826-4.862-19.088-10.7-27.456c-4.97-1.97-10.644,3.323-12.173,21.744
					c-0.801,9.6,4.102,16.538,8.56,26.408c3.107,6.874,16.733,16.59,21.234,17.091C92.544,254.089,93.208,252.1,93.212,250.077z"/>
				<path fill="#2B5407" d="M105.77,170.902c0.721,6.182,3.96,12.14,8.843,16.93c-6.547-6.425-3.19-4.115-1.555,0.363
					c0.855,2.344,1.494,4.775,2.205,7.166c1.52,5.112,3.357,10.136,5.145,15.161c3.911,11.005,6.616,18.491,6.646,29.94
					c0.007,2.355,2.036,7.667,2.888,9.742c1.434-0.786,2.691-1.544,3.708-2.238c12.154-8.279,18.059-18.229,17.805-23.789
					c-1.546-33.938-8.277-37.334-22.102-50.655C122.725,167.138,116.721,166.093,105.77,170.902z"/>
				<path fill="#498217" d="M136.639,178.871c11.749,10.77,13.869,22.984,13.511,35.648c-0.36,12.668-25.438,33.062-35.55,33.6
					c-10.112,0.538-27.151,0.066-40.128-13.248c-12.977-13.315-15.291-24.052-11.376-38.261c3.487-12.648,26.25-33.492,35.961-34.89
					C114.087,159.556,127.323,170.329,136.639,178.871z"/>
				<path fill="#DBE891" d="M134.797,180.573c11.043,10.125,13.035,21.603,12.696,33.509c-0.338,11.904-23.908,31.072-33.413,31.577
					c-9.501,0.506-25.515,0.062-37.711-12.454c-12.195-12.512-14.373-22.603-10.69-35.955c3.274-11.889,24.67-31.479,33.798-32.791
					C113.6,162.427,126.043,172.549,134.797,180.573z"/>
				<path fill="#EAF9C2" d="M132.169,183.005c10.035,9.203,11.846,19.633,11.537,30.453c-0.305,10.815-21.725,28.234-30.361,28.691
					c-8.637,0.462-23.187,0.061-34.27-11.315c-11.08-11.368-13.059-20.538-9.711-32.675c2.974-10.801,22.416-28.604,30.71-29.797
					C112.907,166.516,124.215,175.714,132.169,183.005z"/>
				<g>
					<path fill="none" stroke="#C5DD7A" stroke-width="2.0114" stroke-linecap="round" d="M75.936,208.078
						c-0.91-1.55,3.056-7.778,6.392-7.296"/>
					
						<line fill="none" stroke="#C5DD7A" stroke-width="2.0114" stroke-linecap="round" x1="82.328" y1="200.782" x2="95.804" y2="204.149"/>
					<path fill="none" stroke="#C5DD7A" stroke-width="2.0114" stroke-linecap="round" d="M82.328,200.782
						c0,0-7.706-5.578-0.516-9.73"/>
					
						<line fill="none" stroke="#C5DD7A" stroke-width="2.0114" stroke-linecap="round" x1="108.883" y1="202.036" x2="116.291" y2="190.097"/>
					<path fill="none" stroke="#C5DD7A" stroke-width="2.0114" stroke-linecap="round" d="M116.291,190.097
						c1.499-2.896,11.242-2.625,8.945,4.139"/>
					<path fill="none" stroke="#C5DD7A" stroke-width="2.0114" stroke-linecap="round" d="M116.291,190.097
						c1.635-2.875,0.163-9.287-5.8-7.314"/>
					<path fill="none" stroke="#C5DD7A" stroke-width="2.0114" stroke-linecap="round" d="M106.639,207.713
						c0,0,3.546,12.714,6.042,15.064"/>
					<path fill="none" stroke="#C5DD7A" stroke-width="2.0114" stroke-linecap="round" d="M112.681,222.777
						c2.897,4.081-2.011,9.927-5.102,7.775"/>
					<path fill="none" stroke="#C5DD7A" stroke-width="2.0114" stroke-linecap="round" d="M112.681,222.777
						c1.547,2.648,9.325,5.751,12.354,0.474"/>
					<path fill="none" stroke="#C5DD7A" stroke-width="2.0114" stroke-linecap="round" d="M85.6,187.912
						c2.257-0.287,4.247,0.727,4.442,2.269c0.195,1.537-1.477,3.016-3.737,3.303c-2.26,0.287-4.249-0.727-4.442-2.266
						C81.664,189.679,83.341,188.2,85.6,187.912z"/>
					
						<ellipse transform="matrix(0.6787 -0.7344 0.7344 0.6787 -129.8685 125.8149)" fill="none" stroke="#C5DD7A" stroke-width="2.0114" stroke-linecap="round" cx="78.867" cy="211.341" rx="2.808" ry="4.125"/>
					<path fill="none" stroke="#C5DD7A" stroke-width="2.0114" stroke-linecap="round" d="M102.448,230.645
						c-1.954-1.169-2.894-3.2-2.094-4.528c0.795-1.33,3.025-1.461,4.979-0.288c1.954,1.167,2.893,3.197,2.097,4.527
						C106.632,231.686,104.401,231.814,102.448,230.645z"/>
					<path fill="none" stroke="#C5DD7A" stroke-width="2.0114" stroke-linecap="round" d="M121.604,219.622
						c-0.355-2.246,0.59-4.269,2.123-4.514c1.533-0.248,3.065,1.379,3.426,3.627c0.361,2.246-0.589,4.271-2.118,4.516
						C123.501,223.495,121.968,221.872,121.604,219.622z"/>
					<path fill="none" stroke="#C5DD7A" stroke-width="2.0114" stroke-linecap="round" d="M127.523,198.743
						c-0.343,2.251-1.866,3.886-3.399,3.649c-1.533-0.234-2.494-2.249-2.151-4.501c0.346-2.251,1.87-3.888,3.402-3.648
						C126.908,194.477,127.873,196.493,127.523,198.743z"/>
					<path fill="none" stroke="#C5DD7A" stroke-width="2.0114" stroke-linecap="round" d="M107.962,187.257
						c-1.945,1.182-4.174,1.065-4.98-0.26c-0.807-1.325,0.121-3.357,2.063-4.54c1.947-1.184,4.177-1.07,4.98,0.257
						C110.834,184.038,109.907,186.072,107.962,187.257z"/>
				</g>
			</g>
		</g>
	</g>
</g>
</svg>
