<?xml version="1.0" encoding="utf-8"?>
<!-- Generator: Adobe Illustrator 16.0.3, SVG Export Plug-In . SVG Version: 6.00 Build 0)  -->
<!DOCTYPE svg PUBLIC "-//W3C//DTD SVG 1.1//EN" "http://www.w3.org/Graphics/SVG/1.1/DTD/svg11.dtd">
<svg version="1.1" id="Ebene_1" xmlns="http://www.w3.org/2000/svg" xmlns:xlink="http://www.w3.org/1999/xlink" x="0px" y="0px"
	 width="450px" height="450px" viewBox="0 0 450 450" enable-background="new 0 0 450 450" xml:space="preserve">
<g id="spinach">
	<g>
		<g>
			<path fill="#116D28" d="M104.678,248.96c2.968-3.589,3.394-19.142,5.515-25.123c5.938-18.545,18.238-28.714,28.842-41.875
				c11.453-14.356,28.419-23.929,43.266-31.106c17.814-8.973,36.477-14.955,55.563-16.153c16.967-0.597,32.659,1.796,49.627,5.983
				c16.118,3.59,27.146,10.769,38.173,27.519c9.333,14.356,14.848,33.498,18.664,52.641c3.393,19.741-2.121,37.089-13.148,50.85
				c-23.33,29.311-61.08,38.88-91.195,41.274c-22.055,1.195-44.534,4.785-66.167,0c-16.118-3.59-30.963-14.356-45.385-24.527
				c-11.453-8.974-24.602-17.945-23.328-40.079"/>
		</g>
		<g opacity="0.5">
			<g>
				<g>
					<g>
						<path fill="#06280D" d="M156.597,260.302c0.475,1.271-0.216,2.015,1.799,2.226
							C159.297,259.773,158.025,260.248,156.597,260.302"/>
					</g>
					<g>
						<path fill="#06280D" d="M157.081,246.1c0.476,1.271,0.794,2.118,2.383,2.488c0.903-2.755-0.369-2.277-2.065-1.643"/>
					</g>
					<g>
						<path fill="#06280D" d="M163.233,241.859c0.74,0.689,0.635,1.697,2.33,1.063c0.054-2.44-0.795-2.12-2.649-1.909"/>
					</g>
					<g>
						<path fill="#06280D" d="M169.48,252.093c-0.056,2.438,1.639,5.675,3.549,3.024c1.646-2.067-2.067-1.645-2.333-1.063"/>
					</g>
					<g>
						<path fill="#06280D" d="M173.712,265.982c0.582,0.267,0.475,1.272,1.059,1.537c-0.318-0.849-0.477-1.271-0.635-1.694
							c-0.582-0.267-1.273,0.477-0.69,0.741"/>
					</g>
					<g>
						<path fill="#06280D" d="M184.104,260.16c0.424-0.158,1.006,0.105,1.589,0.371c0.372-1.59-0.476-1.271-1.059-1.538"/>
					</g>
					<g>
						<path fill="#06280D" d="M181.358,243.78c0.742,0.688,0.635,1.696,1.905,1.221c0.639-2.172-0.211-1.854-1.376-2.387"/>
					</g>
					<g>
						<path fill="#06280D" d="M176.7,233.919c0.158,0.424,0.051,1.431,1.908,1.22c0.319-3.021-0.371-2.277-1.801-2.227"/>
					</g>
					<g>
						<path fill="#06280D" d="M181.974,276.429c-0.159-0.424-0.426,0.159,0.477,1.273c1.484-2.488,0.902-2.757-1.271-3.394
							c-0.689,0.742-0.107,1.006-0.371,1.588"/>
					</g>
					<g>
						<path fill="#06280D" d="M167.817,281.244c0.902,1.113,1.377,2.386,2.809,2.333c-0.476-1.272-0.476-1.272-1.375-2.386
							c-0.85,0.316-0.109,1.006-0.531,1.166"/>
					</g>
					<g>
						<path fill="#06280D" d="M181.272,292.646c1.75,0.797,2.387-1.375-1.164-0.529"/>
					</g>
					<g>
						<path fill="#06280D" d="M193.421,276.014c0.478,1.271-0.213,2.014,1.378,2.385c0.37-1.59,0.212-2.015-0.847-3.551
							c-0.58-0.267-0.689,0.741-0.689,0.741"/>
					</g>
					<g>
						<path fill="#06280D" d="M192.104,263.451c0.424-0.16,0.316,0.848,1.166,0.529c0.211-2.015-0.9-1.112-1.91-1.221"/>
					</g>
					<g>
						<path fill="#06280D" d="M190.681,251.896c0.742,0.689,0.635,1.696,2.332,1.062
							C192.536,251.684,191.264,252.16,190.681,251.896"/>
					</g>
					<g>
						<path fill="#06280D" d="M156.056,273.072c0.319,0.851-1.643,2.066,1.062,1.539c-1.218-1.963-0.478-1.272-2.332-1.063
							c-0.265,0.584,0.317,0.85,0.317,0.85"/>
					</g>
					<g>
						<path fill="#06280D" d="M159.865,287.122c1.323,0.954,0.792,2.121,2.489,1.483
							C161.296,287.07,161.456,287.494,159.865,287.122c-0.531,1.164,0.052,1.433,0.368,2.28"/>
					</g>
					<g>
						<path fill="#06280D" d="M143.339,270.1c0.424-0.16,0.742,0.688,1.166,0.528c-0.369-2.278-0.9-1.112-1.749-0.795"/>
					</g>
					<g>
						<path fill="#06280D" d="M139.159,257.641c0.583,0.265,0.475,1.272,2.173,0.639l-0.159-0.426l0,0
							c-1.166-0.53-1.431,0.052-2.438-0.056"/>
					</g>
					<g>
						<path fill="#06280D" d="M144.257,244.126c0.21,1.856,0.102,2.863,1.906,1.222c0.426-0.158,0.106-1.007,0.266-0.582
							c-1.592-0.373-2.279,0.368-1.854,0.211"/>
					</g>
					<g>
						<path fill="#06280D" d="M148.98,232.205c-0.266,0.583-1.432,0.052-0.531,1.166l0.425-0.158c0.689-0.743,0,0,0,0"/>
					</g>
					<g>
						<path fill="#06280D" d="M157.307,224.738c0.741,0.689,0.794,2.119,2.439,0.054l0,0c-0.161-0.425-1.008-0.106-1.166-0.53
							c-0.266,0.581,0.315,0.847,0.315,0.847"/>
					</g>
					<g>
						<path fill="#06280D" d="M174.536,217.806c0.16,0.424-1.537,1.06,0.477,1.271l-0.054-1.433
							c-1.429,0.053-1.007-0.105-0.581-0.265"/>
					</g>
				</g>
				<g>
					<g>
						<path fill="#06280D" d="M159.216,226.882c0.477,1.271-0.213,2.013,1.801,2.228
							C161.918,226.354,160.647,226.83,159.216,226.882"/>
					</g>
					<g>
						<path fill="#06280D" d="M159.7,212.676c0.479,1.274,0.797,2.124,2.384,2.495c0.903-2.755-0.368-2.279-2.063-1.645"/>
					</g>
					<g>
						<path fill="#06280D" d="M165.853,208.44c0.742,0.691,0.636,1.696,2.332,1.063c0.055-2.438-0.794-2.119-2.65-1.911"/>
					</g>
					<g>
						<path fill="#06280D" d="M172.1,218.674c-0.054,2.438,1.641,5.673,3.549,3.023c1.646-2.067-2.063-1.645-2.33-1.062"/>
					</g>
					<g>
						<path fill="#06280D" d="M176.331,232.563c0.584,0.268,0.478,1.273,1.059,1.539c-0.316-0.85-0.475-1.271-0.635-1.695
							c-0.581-0.266-1.271,0.477-0.689,0.74"/>
					</g>
					<g>
						<path fill="#06280D" d="M186.723,226.74c0.424-0.159,1.009,0.104,1.592,0.371c0.371-1.59-0.477-1.272-1.06-1.537"/>
					</g>
					<g>
						<path fill="#06280D" d="M183.978,210.362c0.742,0.688,0.635,1.696,1.907,1.219c0.638-2.172-0.21-1.855-1.374-2.387"/>
					</g>
					<g>
						<path fill="#06280D" d="M179.32,200.497c0.159,0.427,0.05,1.434,1.907,1.223c0.32-3.021-0.37-2.279-1.799-2.226"/>
					</g>
					<g>
						<path fill="#06280D" d="M184.594,243.011c-0.159-0.425-0.424,0.156,0.478,1.271c1.483-2.49,0.901-2.757-1.271-3.394
							c-0.69,0.742-0.108,1.008-0.373,1.59"/>
					</g>
					<g>
						<path fill="#06280D" d="M170.438,247.824c0.9,1.113,1.377,2.387,2.809,2.335c-0.475-1.273-0.475-1.273-1.375-2.388
							c-0.854,0.317-0.11,1.008-0.533,1.166"/>
					</g>
					<g>
						<path fill="#06280D" d="M183.893,259.229c1.751,0.795,2.388-1.375-1.163-0.531"/>
					</g>
					<g>
						<path fill="#06280D" d="M196.041,242.595c0.478,1.271-0.214,2.015,1.379,2.384c0.371-1.588,0.21-2.015-0.849-3.551
							c-0.581-0.267-0.688,0.742-0.688,0.742"/>
					</g>
					<g>
						<path fill="#06280D" d="M194.726,230.032c0.424-0.16,0.316,0.846,1.164,0.53c0.215-2.016-0.898-1.115-1.906-1.222"/>
					</g>
					<g>
						<path fill="#06280D" d="M193.3,218.477c0.742,0.69,0.637,1.696,2.333,1.061C195.158,218.265,193.884,218.741,193.3,218.477"/>
					</g>
					<g>
						<path fill="#06280D" d="M158.679,239.655c0.316,0.848-1.646,2.065,1.057,1.538c-1.215-1.963-0.475-1.272-2.33-1.063
							c-0.266,0.583,0.316,0.849,0.316,0.849"/>
					</g>
					<g>
						<path fill="#06280D" d="M162.485,253.702c1.325,0.956,0.794,2.118,2.49,1.485
							C163.917,253.648,164.075,254.075,162.485,253.702c-0.53,1.167,0.052,1.432,0.369,2.276"/>
					</g>
					<g>
						<path fill="#06280D" d="M145.958,236.68c0.426-0.16,0.743,0.688,1.168,0.529c-0.37-2.277-0.902-1.113-1.748-0.796"/>
					</g>
					<g>
						<path fill="#06280D" d="M141.78,224.22c0.584,0.266,0.475,1.274,2.171,0.638l-0.157-0.423l0,0
							c-1.166-0.53-1.43,0.051-2.438-0.056"/>
					</g>
					<g>
						<path fill="#06280D" d="M146.878,210.709c0.21,1.854,0.104,2.861,1.906,1.221c0.424-0.16,0.105-1.008,0.264-0.584
							c-1.587-0.371-2.276,0.369-1.854,0.211"/>
					</g>
					<g>
						<path fill="#06280D" d="M151.601,198.786c-0.266,0.583-1.431,0.052-0.529,1.165l0.424-0.157c0.689-0.743,0,0,0,0"/>
					</g>
					<g>
						<path fill="#06280D" d="M159.927,191.318c0.744,0.689,0.793,2.119,2.439,0.054l0,0c-0.159-0.425-1.008-0.106-1.168-0.53
							c-0.264,0.582,0.319,0.848,0.319,0.848"/>
					</g>
					<g>
						<path fill="#06280D" d="M177.156,184.387c0.159,0.424-1.536,1.059,0.478,1.271l-0.052-1.432
							c-1.432,0.053-1.008-0.105-0.584-0.265"/>
					</g>
				</g>
				<g>
					<g>
						<path fill="#06280D" d="M176.247,209.764c0.478,1.271-0.213,2.013,1.802,2.226
							C178.951,209.233,177.677,209.709,176.247,209.764"/>
					</g>
					<g>
						<path fill="#06280D" d="M176.732,195.559c0.477,1.271,0.794,2.121,2.384,2.491c0.903-2.756-0.367-2.277-2.065-1.644"/>
					</g>
					<g>
						<path fill="#06280D" d="M182.885,191.322c0.741,0.688,0.635,1.695,2.333,1.061c0.051-2.439-0.796-2.121-2.652-1.91"/>
					</g>
					<g>
						<path fill="#06280D" d="M189.13,201.555c-0.053,2.438,1.643,5.673,3.551,3.023c1.645-2.066-2.065-1.645-2.332-1.062"/>
					</g>
					<g>
						<path fill="#06280D" d="M193.364,215.444c0.58,0.265,0.477,1.271,1.059,1.537c-0.317-0.848-0.479-1.272-0.635-1.695
							c-0.584-0.268-1.273,0.476-0.689,0.74"/>
					</g>
					<g>
						<path fill="#06280D" d="M203.755,209.62c0.424-0.158,1.01,0.105,1.59,0.372c0.372-1.589-0.476-1.272-1.059-1.537"/>
					</g>
					<g>
						<path fill="#06280D" d="M201.009,193.241c0.743,0.688,0.636,1.696,1.906,1.22c0.639-2.172-0.209-1.854-1.375-2.387"/>
					</g>
					<g>
						<path fill="#06280D" d="M196.352,183.381c0.159,0.423,0.052,1.43,1.907,1.22c0.32-3.021-0.369-2.28-1.799-2.228"/>
					</g>
					<g>
						<path fill="#06280D" d="M201.624,225.891c-0.156-0.424-0.422,0.158,0.478,1.273c1.484-2.491,0.902-2.757-1.271-3.394
							c-0.688,0.741-0.107,1.006-0.371,1.591"/>
					</g>
					<g>
						<path fill="#06280D" d="M187.471,230.706c0.9,1.112,1.378,2.384,2.808,2.332c-0.475-1.271-0.475-1.271-1.377-2.386
							c-0.85,0.316-0.105,1.007-0.53,1.166"/>
					</g>
					<g>
						<path fill="#06280D" d="M200.924,242.107c1.749,0.798,2.389-1.377-1.163-0.53"/>
					</g>
					<g>
						<path fill="#06280D" d="M213.072,225.474c0.478,1.271-0.212,2.014,1.378,2.385c0.373-1.59,0.212-2.014-0.846-3.55
							c-0.582-0.267-0.691,0.741-0.691,0.741"/>
					</g>
					<g>
						<path fill="#06280D" d="M211.757,212.912c0.425-0.16,0.318,0.848,1.164,0.53c0.215-2.014-0.898-1.114-1.906-1.222"/>
					</g>
					<g>
						<path fill="#06280D" d="M210.331,201.355c0.744,0.691,0.637,1.698,2.334,1.063
							C212.189,201.146,210.915,201.621,210.331,201.355"/>
					</g>
					<g>
						<path fill="#06280D" d="M175.71,222.534c0.316,0.849-1.644,2.065,1.057,1.538c-1.216-1.96-0.475-1.271-2.329-1.063
							c-0.267,0.583,0.317,0.848,0.317,0.848"/>
					</g>
					<g>
						<path fill="#06280D" d="M179.517,236.582c1.326,0.956,0.793,2.121,2.488,1.484
							C180.948,236.529,181.106,236.954,179.517,236.582c-0.53,1.167,0.051,1.432,0.369,2.279"/>
					</g>
					<g>
						<path fill="#06280D" d="M162.989,219.559c0.426-0.158,0.743,0.69,1.168,0.53c-0.369-2.279-0.9-1.113-1.75-0.797"/>
					</g>
					<g>
						<path fill="#06280D" d="M158.81,207.102c0.585,0.263,0.477,1.271,2.174,0.636l-0.158-0.424l0,0
							c-1.166-0.529-1.431,0.051-2.438-0.054"/>
					</g>
					<g>
						<path fill="#06280D" d="M163.909,193.589c0.211,1.854,0.103,2.861,1.906,1.221c0.424-0.159,0.105-1.009,0.266-0.583
							c-1.59-0.373-2.277,0.369-1.855,0.209"/>
					</g>
					<g>
						<path fill="#06280D" d="M168.632,181.666c-0.264,0.584-1.431,0.051-0.529,1.165l0.425-0.158c0.688-0.741,0,0,0,0"/>
					</g>
					<g>
						<path fill="#06280D" d="M176.96,174.197c0.741,0.691,0.793,2.122,2.438,0.057l0,0c-0.158-0.426-1.008-0.107-1.167-0.531
							c-0.266,0.583,0.316,0.848,0.316,0.848"/>
					</g>
					<g>
						<path fill="#06280D" d="M194.188,167.266c0.161,0.424-1.536,1.059,0.478,1.273l-0.052-1.433
							c-1.431,0.052-1.008-0.106-0.585-0.266"/>
					</g>
				</g>
				<g>
					<g>
						<path fill="#06280D" d="M202.069,181.738c-1.334-0.248-1.614-1.221-2.836,0.396
							C201.13,184.329,201.378,182.992,202.069,181.738"/>
					</g>
					<g>
						<path fill="#06280D" d="M213.989,189.483c-1.336-0.247-2.227-0.413-3.367,0.757c1.896,2.194,2.145,0.859,2.475-0.922"/>
					</g>
					<g>
						<path fill="#06280D" d="M214.442,196.939c-0.971,0.279-1.779-0.332-2.112,1.449c2.062,1.306,2.228,0.414,3.003-1.284"/>
					</g>
					<g>
						<path fill="#06280D" d="M202.454,197.011c-2.063-1.304-5.707-1.521-4.422,1.48c0.92,2.474,2.475-0.921,2.113-1.449"/>
					</g>
					<g>
						<path fill="#06280D" d="M188.372,193.471c-0.527,0.361-1.336-0.25-1.861,0.113c0.889,0.166,1.334,0.248,1.779,0.332
							c0.527-0.363,0.248-1.338-0.279-0.973"/>
					</g>
					<g>
						<path fill="#06280D" d="M188.001,205.376c-0.084,0.446-0.612,0.809-1.139,1.17c1.168,1.142,1.334,0.25,1.863-0.113"/>
					</g>
					<g>
						<path fill="#06280D" d="M203.448,211.475c-0.975,0.28-1.781-0.331-2.031,1.005c1.533,1.666,1.699,0.776,2.755,0.052"/>
					</g>
					<g>
						<path fill="#06280D" d="M214.298,212.573c-0.444-0.083-1.252-0.695-2.028,1.005c2.421,1.831,2.144,0.859,2.836-0.394"/>
					</g>
					<g>
						<path fill="#06280D" d="M175.163,195.156c0.443,0.085,0.082-0.444-1.336-0.246c1.365,2.557,1.893,2.194,3.56,0.662
							c-0.279-0.973-0.807-0.611-1.169-1.141"/>
					</g>
					<g>
						<path fill="#06280D" d="M178.341,180.547c-1.42,0.199-2.756-0.049-3.448,1.203c1.335,0.248,1.335,0.248,2.754,0.051
							c0.165-0.889-0.806-0.61-0.726-1.055"/>
					</g>
					<g>
						<path fill="#06280D" d="M161.629,186.191c-1.583,1.088-0.052,2.754,1.057-0.724"/>
					</g>
					<g>
						<path fill="#06280D" d="M169.612,205.18c-1.334-0.249-1.615-1.221-2.756-0.052c1.171,1.139,1.617,1.223,3.479,1.108
							c0.528-0.362-0.279-0.975-0.279-0.975"/>
					</g>
					<g>
						<path fill="#06280D" d="M181.052,210.532c-0.084,0.446-0.889-0.166-1.055,0.726c1.615,1.222,1.418-0.198,2.027-1.005"/>
					</g>
					<g>
						<path fill="#06280D" d="M191.687,215.274c-0.973,0.281-1.781-0.332-2.112,1.449
							C190.909,216.973,191.157,215.638,191.687,215.274"/>
					</g>
					<g>
						<path fill="#06280D" d="M191.406,174.689c-0.89-0.166-0.921-2.475-1.862,0.113c2.308-0.031,1.335,0.25,2.111-1.449
							c-0.363-0.529-0.891-0.166-0.891-0.166"/>
					</g>
					<g>
						<path fill="#06280D" d="M177.41,170.703c-1.502,0.642-2.228-0.414-2.558,1.367
							C176.714,171.956,176.271,171.873,177.41,170.703c-0.728-1.058-1.253-0.694-2.145-0.86"/>
					</g>
					<g>
						<path fill="#06280D" d="M200.519,165.329c-0.084,0.444-0.974,0.278-1.057,0.725c2.144,0.86,1.417-0.196,1.583-1.087"/>
					</g>
					<g>
						<path fill="#06280D" d="M213.346,168.176c-0.528,0.363-1.335-0.248-1.668,1.533l0.446,0.082l0,0
							c1.058-0.725,0.693-1.252,1.305-2.061"/>
					</g>
					<g>
						<path fill="#06280D" d="M222.29,179.514c-1.696-0.777-2.505-1.388-2.027,1.004c-0.083,0.443,0.806,0.611,0.361,0.528
							c1.141-1.17,0.859-2.144,0.777-1.698"/>
					</g>
					<g>
						<path fill="#06280D" d="M230.068,189.71c-0.365-0.525,0.69-1.251-0.728-1.055l-0.081,0.446c0.278,0.973,0,0,0,0"/>
					</g>
					<g>
						<path fill="#06280D" d="M232.17,200.698c-0.977,0.278-2.229-0.415-1.304,2.059l0,0c0.442,0.082,0.608-0.807,1.054-0.724
							c-0.361-0.528-0.891-0.167-0.891-0.167"/>
					</g>
					<g>
						<path fill="#06280D" d="M229.219,219.033c-0.445-0.082-0.113-1.862-1.337-0.248l1.254,0.693
							c0.693-1.254,0.609-0.806,0.528-0.362"/>
					</g>
				</g>
			</g>
			<g>
				<g>
					<g>
						<path fill="#06280D" d="M301.854,232.447c0.255-1.334,1.229-1.608-0.382-2.838
							C299.271,231.498,300.605,231.752,301.854,232.447"/>
					</g>
					<g>
						<path fill="#06280D" d="M294.068,244.337c0.254-1.334,0.42-2.226-0.745-3.367c-2.2,1.886-0.866,2.14,0.913,2.479"/>
					</g>
					<g>
						<path fill="#06280D" d="M286.609,244.766c-0.274-0.976,0.336-1.779-1.44-2.117c-1.313,2.056-0.422,2.225,1.274,3.008"/>
					</g>
					<g>
						<path fill="#06280D" d="M286.582,232.773c1.313-2.055,1.545-5.698-1.464-4.426c-2.478,0.912,0.911,2.479,1.442,2.118"/>
					</g>
					<g>
						<path fill="#06280D" d="M290.175,218.706c-0.358-0.528,0.253-1.333-0.104-1.862c-0.17,0.889-0.254,1.334-0.338,1.778
							c0.357,0.529,1.334,0.253,0.974-0.273"/>
					</g>
					<g>
						<path fill="#06280D" d="M278.27,218.29c-0.442-0.084-0.805-0.612-1.164-1.142c-1.143,1.165-0.254,1.334,0.105,1.863"/>
					</g>
					<g>
						<path fill="#06280D" d="M272.114,233.715c-0.275-0.975,0.339-1.779-0.995-2.033c-1.674,1.528-0.783,1.696-0.063,2.754"/>
					</g>
					<g>
						<path fill="#06280D" d="M270.979,244.563c0.084-0.446,0.696-1.25-0.998-2.035c-1.842,2.42-0.865,2.144,0.384,2.841"/>
					</g>
					<g>
						<path fill="#06280D" d="M288.536,205.488c-0.084,0.446,0.446,0.087,0.254-1.334c-2.562,1.357-2.201,1.888-0.676,3.561
							c0.976-0.276,0.614-0.806,1.145-1.167"/>
					</g>
					<g>
						<path fill="#06280D" d="M303.135,208.723c-0.191-1.42,0.063-2.754-1.188-3.451c-0.254,1.334-0.254,1.334-0.063,2.752
							c0.891,0.171,0.614-0.805,1.06-0.721"/>
					</g>
					<g>
						<path fill="#06280D" d="M297.557,191.99c-1.082-1.589-2.756-0.061,0.719,1.059"/>
					</g>
					<g>
						<path fill="#06280D" d="M278.537,199.904c0.253-1.335,1.225-1.613,0.061-2.756c-1.143,1.166-1.228,1.612-1.121,3.475
							c0.359,0.528,0.977-0.276,0.977-0.276"/>
					</g>
					<g>
						<path fill="#06280D" d="M273.141,211.325c-0.445-0.087,0.168-0.889-0.722-1.06c-1.228,1.61,0.19,1.419,0.999,2.033"/>
					</g>
					<g>
						<path fill="#06280D" d="M268.359,221.939c-0.276-0.974,0.339-1.781-1.442-2.118
							C266.663,221.156,267.998,221.41,268.359,221.939"/>
					</g>
					<g>
						<path fill="#06280D" d="M308.946,221.812c0.169-0.891,2.478-0.914-0.107-1.866c0.021,2.31-0.254,1.337,1.441,2.119
							c0.527-0.362,0.168-0.891,0.168-0.891"/>
					</g>
					<g>
						<path fill="#06280D" d="M312.982,207.826c-0.637-1.504,0.424-2.224-1.355-2.561
							C311.733,207.127,311.817,206.686,312.982,207.826c1.06-0.72,0.699-1.247,0.867-2.139"/>
					</g>
					<g>
						<path fill="#06280D" d="M318.271,230.957c-0.444-0.084-0.275-0.977-0.722-1.061c-0.868,2.142,0.191,1.422,1.081,1.588"/>
					</g>
					<g>
						<path fill="#06280D" d="M315.379,243.773c-0.363-0.527,0.253-1.334-1.528-1.674l-0.084,0.445l0,0
							c0.722,1.061,1.249,0.7,2.056,1.313"/>
					</g>
					<g>
						<path fill="#06280D" d="M304.006,252.678c0.783-1.695,1.398-2.5-0.995-2.033c-0.447-0.084-0.612,0.807-0.529,0.359
							c1.166,1.146,2.138,0.866,1.694,0.784"/>
					</g>
					<g>
						<path fill="#06280D" d="M293.779,260.414c0.529-0.359,1.25,0.7,1.06-0.718l-0.446-0.089c-0.975,0.276,0,0,0,0"/>
					</g>
					<g>
						<path fill="#06280D" d="M282.786,262.477c-0.274-0.976,0.423-2.226-2.056-1.313l0,0c-0.086,0.446,0.805,0.616,0.722,1.062
							c0.528-0.36,0.169-0.891,0.169-0.891"/>
					</g>
					<g>
						<path fill="#06280D" d="M264.462,259.456c0.083-0.442,1.864-0.106,0.255-1.335l-0.699,1.254
							c1.25,0.696,0.807,0.611,0.359,0.529"/>
					</g>
				</g>
				<g>
					<g>
						<path fill="#06280D" d="M282.27,259.65c0.252-1.334,1.227-1.609-0.386-2.84C279.684,258.699,281.02,258.954,282.27,259.65"/>
					</g>
					<g>
						<path fill="#06280D" d="M274.479,271.54c0.254-1.335,0.424-2.226-0.742-3.367c-2.2,1.888-0.866,2.14,0.912,2.478"/>
					</g>
					<g>
						<path fill="#06280D" d="M267.021,271.969c-0.276-0.975,0.338-1.777-1.44-2.119c-1.313,2.058-0.423,2.227,1.272,3.01"/>
					</g>
					<g>
						<path fill="#06280D" d="M266.995,259.979c1.313-2.055,1.542-5.699-1.464-4.428c-2.479,0.913,0.912,2.477,1.441,2.118"/>
					</g>
					<g>
						<path fill="#06280D" d="M270.59,245.911c-0.363-0.529,0.251-1.336-0.107-1.864c-0.17,0.889-0.256,1.335-0.338,1.779
							c0.357,0.529,1.334,0.253,0.976-0.274"/>
					</g>
					<g>
						<path fill="#06280D" d="M258.684,245.494c-0.443-0.084-0.807-0.614-1.166-1.145c-1.145,1.166-0.252,1.336,0.107,1.864"/>
					</g>
					<g>
						<path fill="#06280D" d="M252.525,260.919c-0.275-0.976,0.338-1.778-0.996-2.03c-1.672,1.522-0.783,1.692-0.063,2.752"/>
					</g>
					<g>
						<path fill="#06280D" d="M251.391,271.766c0.084-0.444,0.698-1.25-0.998-2.033c-1.843,2.418-0.867,2.141,0.383,2.838"/>
					</g>
					<g>
						<path fill="#06280D" d="M268.95,232.691c-0.087,0.445,0.442,0.086,0.251-1.334c-2.561,1.357-2.202,1.889-0.676,3.56
							c0.975-0.276,0.617-0.804,1.144-1.165"/>
					</g>
					<g>
						<path fill="#06280D" d="M283.547,235.926c-0.191-1.42,0.061-2.754-1.189-3.453c-0.254,1.336-0.254,1.336-0.062,2.754
							c0.892,0.17,0.616-0.804,1.06-0.721"/>
					</g>
					<g>
						<path fill="#06280D" d="M277.966,219.195c-1.081-1.589-2.754-0.064,0.722,1.058"/>
					</g>
					<g>
						<path fill="#06280D" d="M258.95,227.107c0.251-1.334,1.226-1.611,0.062-2.755c-1.145,1.167-1.229,1.611-1.121,3.475
							c0.358,0.528,0.975-0.276,0.975-0.276"/>
					</g>
					<g>
						<path fill="#06280D" d="M253.551,238.527c-0.443-0.084,0.172-0.891-0.721-1.06c-1.227,1.609,0.191,1.419,0.999,2.033"/>
					</g>
					<g>
						<path fill="#06280D" d="M248.771,249.143c-0.274-0.973,0.336-1.779-1.443-2.117
							C247.075,248.357,248.412,248.613,248.771,249.143"/>
					</g>
					<g>
						<path fill="#06280D" d="M289.357,249.014c0.17-0.89,2.479-0.914-0.105-1.863c0.02,2.31-0.253,1.334,1.439,2.117
							c0.533-0.359,0.17-0.89,0.17-0.89"/>
					</g>
					<g>
						<path fill="#06280D" d="M293.396,235.031c-0.638-1.506,0.422-2.225-1.357-2.563
							C292.145,234.333,292.23,233.887,293.396,235.031c1.06-0.723,0.699-1.252,0.865-2.141"/>
					</g>
					<g>
						<path fill="#06280D" d="M298.685,258.16c-0.443-0.083-0.276-0.975-0.723-1.059c-0.866,2.14,0.192,1.418,1.082,1.588"/>
					</g>
					<g>
						<path fill="#06280D" d="M295.789,270.979c-0.359-0.529,0.254-1.334-1.525-1.672l-0.084,0.442l0,0
							c0.723,1.06,1.25,0.699,2.055,1.313"/>
					</g>
					<g>
						<path fill="#06280D" d="M284.417,279.881c0.785-1.695,1.396-2.5-0.996-2.033c-0.442-0.084-0.612,0.808-0.528,0.362
							c1.166,1.142,2.14,0.864,1.696,0.781"/>
					</g>
					<g>
						<path fill="#06280D" d="M274.191,287.619c0.529-0.361,1.25,0.697,1.059-0.721l-0.445-0.086c-0.973,0.276,0,0,0,0"/>
					</g>
					<g>
						<path fill="#06280D" d="M263.199,289.68c-0.276-0.974,0.423-2.224-2.057-1.313l0,0c-0.084,0.443,0.805,0.613,0.721,1.06
							c0.531-0.36,0.17-0.891,0.17-0.891"/>
					</g>
					<g>
						<path fill="#06280D" d="M244.873,286.661c0.084-0.446,1.865-0.106,0.254-1.335l-0.699,1.252
							c1.252,0.695,0.807,0.611,0.361,0.529"/>
					</g>
				</g>
				<g>
					<g>
						<path fill="#06280D" d="M258.824,265.443c0.251-1.334,1.228-1.61-0.385-2.84C256.241,264.492,257.575,264.747,258.824,265.443
							"/>
					</g>
					<g>
						<path fill="#06280D" d="M251.034,277.331c0.254-1.334,0.424-2.224-0.741-3.366c-2.201,1.887-0.87,2.139,0.911,2.477"/>
					</g>
					<g>
						<path fill="#06280D" d="M243.58,277.761c-0.277-0.977,0.337-1.78-1.443-2.118c-1.31,2.059-0.42,2.226,1.274,3.008"/>
					</g>
					<g>
						<path fill="#06280D" d="M243.552,265.771c1.313-2.058,1.544-5.701-1.465-4.43c-2.479,0.912,0.912,2.479,1.442,2.119"/>
					</g>
					<g>
						<path fill="#06280D" d="M247.145,251.703c-0.358-0.529,0.252-1.335-0.106-1.865c-0.168,0.891-0.252,1.336-0.338,1.781
							c0.36,0.525,1.335,0.251,0.975-0.276"/>
					</g>
					<g>
						<path fill="#06280D" d="M235.239,251.285c-0.445-0.084-0.808-0.612-1.165-1.143c-1.146,1.164-0.254,1.334,0.105,1.863"/>
					</g>
					<g>
						<path fill="#06280D" d="M229.084,266.711c-0.277-0.977,0.337-1.781-0.996-2.034c-1.675,1.526-0.783,1.695-0.063,2.755"/>
					</g>
					<g>
						<path fill="#06280D" d="M227.945,277.557c0.084-0.447,0.697-1.25-0.996-2.033c-1.842,2.416-0.867,2.141,0.381,2.839"/>
					</g>
					<g>
						<path fill="#06280D" d="M245.506,238.484c-0.084,0.443,0.445,0.084,0.252-1.334c-2.56,1.355-2.199,1.887-0.675,3.56
							c0.976-0.276,0.614-0.805,1.144-1.167"/>
					</g>
					<g>
						<path fill="#06280D" d="M260.104,241.719c-0.192-1.419,0.06-2.755-1.188-3.453c-0.254,1.334-0.254,1.334-0.063,2.754
							c0.893,0.17,0.614-0.805,1.059-0.72"/>
					</g>
					<g>
						<path fill="#06280D" d="M254.523,224.985c-1.082-1.587-2.756-0.062,0.72,1.059"/>
					</g>
					<g>
						<path fill="#06280D" d="M235.504,232.898c0.255-1.334,1.229-1.611,0.061-2.754c-1.143,1.164-1.226,1.609-1.119,3.475
							c0.359,0.529,0.978-0.275,0.978-0.275"/>
					</g>
					<g>
						<path fill="#06280D" d="M230.105,244.318c-0.443-0.084,0.17-0.89-0.717-1.059c-1.229,1.609,0.19,1.418,0.993,2.034"/>
					</g>
					<g>
						<path fill="#06280D" d="M225.328,254.936c-0.276-0.975,0.337-1.781-1.442-2.119
							C223.632,254.15,224.967,254.405,225.328,254.936"/>
					</g>
					<g>
						<path fill="#06280D" d="M265.913,254.805c0.17-0.887,2.478-0.91-0.104-1.863c0.021,2.312-0.254,1.336,1.438,2.117
							c0.53-0.358,0.171-0.889,0.171-0.889"/>
					</g>
					<g>
						<path fill="#06280D" d="M269.95,240.822c-0.636-1.506,0.424-2.227-1.354-2.563C268.7,240.124,268.784,239.678,269.95,240.822
							c1.062-0.721,0.7-1.25,0.868-2.139"/>
					</g>
					<g>
						<path fill="#06280D" d="M275.241,263.951c-0.446-0.084-0.277-0.975-0.722-1.059c-0.869,2.14,0.19,1.42,1.08,1.588"/>
					</g>
					<g>
						<path fill="#06280D" d="M272.346,276.77c-0.361-0.528,0.254-1.334-1.525-1.672l-0.084,0.443l0,0
							c0.721,1.059,1.248,0.699,2.056,1.313"/>
					</g>
					<g>
						<path fill="#06280D" d="M260.975,285.673c0.781-1.694,1.398-2.5-0.996-2.032c-0.444-0.084-0.613,0.806-0.528,0.36
							c1.164,1.142,2.138,0.865,1.694,0.78"/>
					</g>
					<g>
						<path fill="#06280D" d="M250.747,293.411c0.53-0.361,1.25,0.696,1.062-0.722l-0.447-0.086c-0.973,0.277,0,0,0,0"/>
					</g>
					<g>
						<path fill="#06280D" d="M239.755,295.471c-0.278-0.974,0.422-2.226-2.057-1.313l0,0c-0.085,0.445,0.806,0.615,0.723,1.059
							c0.527-0.359,0.169-0.889,0.169-0.889"/>
					</g>
					<g>
						<path fill="#06280D" d="M221.43,292.452c0.084-0.445,1.864-0.107,0.255-1.334l-0.7,1.251c1.251,0.695,0.806,0.611,0.36,0.529"
							/>
					</g>
				</g>
				<g>
					<g>
						<path fill="#06280D" d="M222.206,275.99c1.012,0.904,0.747,1.882,2.629,1.137C224.354,274.268,223.449,275.279,222.206,275.99
							"/>
					</g>
					<g>
						<path fill="#06280D" d="M216.04,263.184c1.014,0.907,1.688,1.51,3.27,1.103c-0.48-2.86-1.387-1.849-2.594-0.497"/>
					</g>
					<g>
						<path fill="#06280D" d="M219.521,256.577c0.976,0.265,1.349,1.207,2.558-0.144c-1.084-2.185-1.689-1.509-3.233-0.461"/>
					</g>
					<g>
						<path fill="#06280D" d="M229.807,262.736c1.084,2.188,4.086,4.265,4.549,1.031c0.496-2.595-2.596-0.496-2.561,0.144"/>
					</g>
					<g>
						<path fill="#06280D" d="M240.005,273.072c0.638-0.035,1.013,0.906,1.649,0.871c-0.676-0.604-1.012-0.906-1.348-1.205
							c-0.641,0.033-0.908,1.012-0.271,0.975"/>
					</g>
					<g>
						<path fill="#06280D" d="M246.504,263.09c0.303-0.335,0.939-0.372,1.58-0.408c-0.407-1.578-1.014-0.904-1.65-0.869"/>
					</g>
					<g>
						<path fill="#06280D" d="M236.466,249.859c0.976,0.267,1.349,1.209,2.257,0.195c-0.447-2.22-1.05-1.546-2.326-1.476"/>
					</g>
					<g>
						<path fill="#06280D" d="M227.76,243.289c0.338,0.301,0.713,1.242,2.258,0.195c-1.121-2.823-1.388-1.849-2.629-1.137"/>
					</g>
					<g>
						<path fill="#06280D" d="M252.171,278.49c-0.338-0.303-0.304,0.336,1.011,0.904c0.162-2.896-0.479-2.859-2.697-2.416
							c-0.268,0.979,0.373,0.943,0.408,1.582"/>
					</g>
					<g>
						<path fill="#06280D" d="M241.87,289.326c1.315,0.568,2.327,1.475,3.571,0.764c-1.012-0.906-1.012-0.906-2.328-1.474
							c-0.604,0.675,0.373,0.938,0.072,1.278"/>
					</g>
					<g>
						<path fill="#06280D" d="M259.082,293.178c1.917-0.105,1.475-2.326-1.277,0.072"/>
					</g>
					<g>
						<path fill="#06280D" d="M262.116,272.805c1.014,0.904,0.745,1.883,2.327,1.473c-0.408-1.579-0.748-1.883-2.398-2.75
							c-0.641,0.033-0.266,0.977-0.266,0.977"/>
					</g>
					<g>
						<path fill="#06280D" d="M255.117,262.291c0.303-0.34,0.675,0.604,1.277-0.072c-0.746-1.883-1.313-0.568-2.254-0.193"/>
					</g>
					<g>
						<path fill="#06280D" d="M248.49,252.718c0.979,0.267,1.35,1.208,2.558-0.144C250.035,251.668,249.131,252.682,248.49,252.718"
							/>
					</g>
					<g>
						<path fill="#06280D" d="M227.66,287.552c0.675,0.604-0.497,2.593,1.652,0.872c-1.988-1.174-1.013-0.908-2.558,0.141
							c0.035,0.643,0.675,0.604,0.675,0.604"/>
					</g>
					<g>
						<path fill="#06280D" d="M237.555,298.227c1.617,0.229,1.688,1.51,2.896,0.158
							C238.801,297.514,239.139,297.814,237.555,298.227c0.073,1.278,0.711,1.242,1.389,1.849"/>
					</g>
					<g>
						<path fill="#06280D" d="M215.014,290.82c0.304-0.336,0.977,0.27,1.28-0.069c-1.387-1.849-1.314-0.565-1.92,0.104"/>
					</g>
					<g>
						<path fill="#06280D" d="M205.528,281.729c0.639-0.035,1.012,0.906,2.22-0.443l-0.337-0.303l0,0
							c-1.279,0.072-1.244,0.711-2.186,1.086"/>
					</g>
					<g>
						<path fill="#06280D" d="M203.769,267.396c1.048,1.543,1.421,2.487,2.254,0.194c0.303-0.339-0.373-0.94-0.035-0.64
							c-1.581,0.406-1.848,1.385-1.545,1.047"/>
					</g>
					<g>
						<path fill="#06280D" d="M202.413,254.641c0.038,0.643-1.24,0.713,0.074,1.281l0.301-0.338c0.266-0.977,0,0,0,0"/>
					</g>
					<g>
						<path fill="#06280D" d="M206.32,244.163c0.979,0.267,1.69,1.51,2.186-1.084l0,0c-0.337-0.302-0.94,0.373-1.28,0.071
							c0.036,0.64,0.677,0.604,0.677,0.604"/>
					</g>
					<g>
						<path fill="#06280D" d="M218.36,230.021c0.339,0.304-0.869,1.654,1.015,0.905l-0.712-1.241
							c-1.242,0.709-0.939,0.373-0.639,0.034"/>
					</g>
				</g>
			</g>
		</g>
		<g opacity="0.6">
			<g>
				<path fill="#06280D" d="M120.095,233.893c2.008-2.559,3.078-8.021,3.983-12.104c3.402-10.778,5.719-19.587,11.745-27.262
					c10.126-13.479,23.863-28.63,35.887-32.805c19.248-7.519,37.75-12.33,56.688-13.596c19.362-1.22,78.178,11.139,97.688,27.682
					c6.631,5.622-15.568-25.411-23.329-28.418c-4.894-1.973-12.146-5.32-17.203-5.914c-14.822-1.043-37.388-8.521-52.359-4.691
					c-10.595,2.947-28.179,5.117-38.598,10.181c-12.604,5.503-25.351,10.274-36.92,21.489
					c-11.567,11.215-25.824,23.511-34.509,39.256c-8.18,15.104-19.796,33.998-14.398,53.493c3.419,10.88,12.12,16.792,19.379,20.438
					c5.314,2.022,14.016,7.937,19.719,3.019c-3.16-9.453-11.019-15.267-15.184-23.44c-4.844-9.648-6.418-21.711-10.339-31.949"/>
			</g>
			<g>
				<path fill="#06280D" d="M146.245,273.177c-4.241-6.243-1.271-26.362,0-35.384c1.273-6.938,2.546-15.956,5.516-20.813
					c3.393-5.551,7.211-4.162,10.604-7.63c5.938-4.857,10.179-15.958,15.269-22.895c5.09-6.245,11.453-11.102,17.814-14.57
					c8.908-4.855,24.6-10.036,33.931-7.954c1.697,0.693,11.029,2.584,12.303,4.665c-7.213,9.713-29.267,8.146-37.75,15.083
					c-5.088,3.47-10.178,5.55-15.27,9.021c-5.938,3.468-9.754,9.713-14.42,15.957c-8.483,11.1-19.512,15.264-20.36,34.688
					c-0.849,14.57,1.696,28.445,1.696,41.629c-2.545,0.69-9.756-10.408-9.756-14.57"/>
			</g>
			<g>
				<path fill="#06280D" d="M256.807,176.852c2.588,1.616,11.959,0.418,16.823,0.611c6.067,0.607,18.372,9.206,24.675,2.561
					c-1.645-5.692-12.351-7.148-16.363-8.52c-6.246-1.398-13.068-3.729-19.986-3.158c-2.232-0.029-17.854-0.23-18.439,5.434
					c-0.141,4.352,12.267,3.455,14.498,3.484"/>
			</g>
			<g>
				<path fill="#06280D" d="M280.622,203.002c-3.172,8.427-23.468,19.814-10.688,24.223c6.824,1.973,17.851-4.189,25.377-8.484
					c3.154-1.963,10.723-7.685,12.937-12.796c2.981-7.763-2.139-9.242-5.636-7.375c-4.521,1.569-8.635,6.852-13.113,6.995
					c-3.264-0.225-5.42-3.002-9.6-1.334"/>
			</g>
			<g>
				<path fill="#06280D" d="M216.642,254.512c15.083,0,29.767-4.525,44.449-8.404c5.161-1.295,10.716-3.232,15.876-5.819
					c4.762-2.586,10.715-8.407,15.479-9.056c8.729,0,1.586,9.701-1.986,13.58c-3.967,4.527-7.539,9.055-11.904,12.934
					c-11.906,9.052-24.604,14.229-37.306,14.229c-6.746,0-13.892,0-20.24-2.588c-2.381-1.294-9.921-3.234-10.714-7.113
					c-0.397-4.526,4.762-9.054,7.143-9.054"/>
			</g>
			<g>
				<path fill="#06280D" d="M183.997,237.136c-1.273-4.163,0.847-15.263,2.12-19.425c2.97-12.487,8.907-16.651,16.118-20.121
					l0.424,0.694c-0.848,7.632-10.604,13.876-13.148,22.201c-1.271,3.47-3.817,22.895-5.938,18.732"/>
			</g>
			<g>
				<path fill="#06280D" d="M272.421,195.274c-3.837-1.809-25.035-2.591-28.264,11.227c-2.429,11.128,26.872-7.279,31.421-8.972
					c-1.237-1.352-3.157-2.255-4.692-2.979"/>
			</g>
		</g>
		<g>
			<g>
				<path fill="#6C9F65" d="M226.461,208.751c-5.448,4.535-13.006,10.728-15.042,17.71c-1.39,4.915,9.94,24.99-1.045,20.887
					c-8.613-2.961-9.925-17.142-3.055-27.852c3.222-5.104,9.99-12.421,14.938-14.315
					C224.947,203.98,232.158,204.007,226.461,208.751z"/>
			</g>
			<g>
				<path fill="#6C9F65" d="M190.304,239.997c0,12.575,5.659,26.754,14.871,24.339c-4.83-4.917-7.425-9.249-9.123-14.575
					c-2.119-4.735-2.861-11.179-2.503-16.813C191.852,234.133,190.304,237.037,190.304,239.997z"/>
			</g>
			<g>
				<path fill="#6C9F65" d="M166.706,219.88c-11.804,8.234-13.998,44.394,2.119,53.865c5.939,3.552,5.018-2.306,2.896-7.04
					c-2.121-5.328-5.439-11.311-5.865-16.639c-0.848-10.653,0.099-16.926,5.423-28.604
					C170.007,220.279,167.554,219.288,166.706,219.88z"/>
			</g>
			<g>
				<path fill="#6C9F65" d="M129.358,222.105c-4.703,12.124-10.468,23.538-7.498,38.334c2.969,15.982,8.627,19.16,18.384,21.528
					c-2.546-11.245-9.663-20.87-9.478-32.776c0.225-14.299,3.334-22.791,9.047-33.633
					C137.692,216.741,132.648,213.62,129.358,222.105z"/>
			</g>
			<g>
				<path fill="#6C9F65" d="M268.629,222.255c3.771,3.618,18.663-18.348,8.908-20.125
					C269.479,200.945,261.842,215.744,268.629,222.255z"/>
			</g>
		</g>
		<g>
			<g>
				<path fill="#45862F" d="M143.806,273.534c-5.992-13.207-8.146-25.529-4.924-39.859c2.615-11.633,9.797-20.881,18.134-29.049
					c9.498-9.306,18.945-18.972,29.482-27.103c12.577-9.705,27.72-13.342,43.178-15.651c13.996-2.091,29.305-4.629,43.449-3.089
					c13.266,1.445,25.576,8.896,33.939,19.162c16.488,20.237,16.547,50.305,2.333,71.504c-12.499,18.641-33.708,25.82-54.288,31.583
					c-7.266,2.034-14.572,3.663-22.143,3.846c-8.329,0.2-16.631-3.139-24.31-6.005c-10.259-3.829-22.446-7.271-30.261-15.416
					c-8.119-8.461-7.779-20.512-5.279-31.191c2.795-11.952,9.184-22.511,19.222-29.662c10.991-7.831,25.94-10.536,38.956-13.402
					c13.977-3.079,28.973-5.416,43.191-2.679c6.22,1.197,12.22,4.005,16.248,9.005c4.856,6.027,5.363,14.229,4.664,21.619
					c-2.119,22.382-18.584,42.046-39.953,48.593c-10.622,3.254-24.215,3.513-34.801,0.265
					c-12.402-3.805-18.849-14.583-20.736-26.788c-3.248-20.994,15.061-38.706,33.742-44.5c11.807-3.661,27.604-6.595,38.787,0.151
					c7.362,4.441,9.853,13.192,10.315,21.283c0.259,4.51-0.239,11.839-5.632,13.132c-3.887,0.931-8.443-2.307-10.825-5.009
					c-3.274-3.714-3.979-8.536-1.733-12.943c1.61-3.158-4.625-3.26-5.896-0.768c-5.454,10.697,3.646,21.921,14.543,23.33
					c17.354,2.239,17.495-19.867,13.362-30.961c-6.127-16.447-25.363-17.88-40.266-15.61c-8.486,1.293-16.923,3.488-24.619,7.345
					c-10.337,5.181-18.217,13.884-24.337,23.518c-5.586,8.794-4.783,20.995-1.764,30.491c3.352,10.543,11.182,17.925,21.531,21.564
					c10.229,3.598,22.918,3.067,33.461,1.229c8.981-1.565,17.313-5.391,24.782-10.559c16.619-11.499,28.234-32.681,26.398-53.155
					c-1.274-14.231-10.978-22.599-24.384-25.645c-14.043-3.19-29.308-0.849-43.218,1.907c-12.39,2.454-25.574,5.33-37.089,10.589
					c-20.159,9.207-32.856,31.018-31.789,53.141c1.114,23.091,25.142,30.027,43.265,36.621c6.309,2.296,12.841,4.357,19.548,4.997
					c7.119,0.679,14.351-0.625,21.265-2.197c10.482-2.385,20.99-5.588,30.959-9.617c20.607-8.329,37.146-24.056,43.669-45.672
					c6.507-21.562-0.987-47.563-17.209-62.858c-9.094-8.575-20.641-13.626-33.005-14.973c-13.629-1.485-28.228,1.14-41.721,2.939
					c-15.44,2.06-31.013,5.421-44.307,13.845c-12.761,8.084-23.201,19.76-34.059,30.122c-8.98,8.569-16.833,18.024-20.257,30.199
					c-4.376,15.563-2.365,29.507,4.226,44.031C138.917,277.961,145.013,276.191,143.806,273.534L143.806,273.534z"/>
			</g>
		</g>
	</g>
</g>
</svg>
