<?xml version="1.0" encoding="utf-8"?>
<!-- Generator: Adobe Illustrator 16.0.3, SVG Export Plug-In . SVG Version: 6.00 Build 0)  -->
<!DOCTYPE svg PUBLIC "-//W3C//DTD SVG 1.1//EN" "http://www.w3.org/Graphics/SVG/1.1/DTD/svg11.dtd">
<svg version="1.1" id="Ebene_1" xmlns="http://www.w3.org/2000/svg" xmlns:xlink="http://www.w3.org/1999/xlink" x="0px" y="0px"
	 width="450px" height="450px" viewBox="0 0 450 450" enable-background="new 0 0 450 450" xml:space="preserve">
<g id="zucchini">
	<g>
		<g>
			<g>
				<path fill="#02680B" d="M272.701,152.408c0.188,1.229,0.377,2.457,0.455,3.497c0.732,2.826,1.085,4.897,0.916,7.92
					c-0.045,2.883,0.465,6.25-0.242,9.053c-0.708,2.799-2.098,5.258-2.684,7.92c-0.893,3.861-2.267,8.284-5.354,10.739
					c-3.854,2.772-8.282,4.802-12.612,6.435c-2.166,0.816-4.051,1.873-6.093,2.546c-2.565,0.716-6.008,0.187-8.894,0.138
					c-5.364,0.006-11.11,0.172-15.066-3.723c-5.334-4.84-11.25-8.72-16.323-13.578c-3.257-3.292-5.229-6.942-6.199-11.189
					c-1.11-4.368-3.276-10.621-2.043-15.164c2.023-8.004,8.771-15.834,14.071-21.988c7.232-8.391,15.385-9.652,26.495-8.121
					c3.822,0.371,8.767,1.703,12.545,3.256c3.8,1.813,6.399,3.321,9.015,6.793c2.315,2.969,4.248,6.098,7.186,8.629
					C270.25,147.616,272.191,149.043,272.701,152.408z"/>
				<g>
					<path fill="#204922" d="M270.739,152.933c0.647,4.384,1.218,8.452,1.388,12.894c0.198,5.188-0.781,8.768-2.516,13.6
						c-1.707,4.759-1.969,9.281-6.541,12.406c-4.237,2.898-9.156,4.437-13.797,6.517c-4.428,1.985-10.004,1.146-14.78,1.021
						c-5.972-0.156-9.256-3.125-13.642-6.725c-7.489-6.146-15.718-11.088-18.284-21.006c-1.15-4.442-2.603-8.783-2.306-13.435
						c0.29-4.546,3.476-9.122,5.954-12.776c5.134-7.568,11.606-16.082,21.161-17.604c8.672-1.381,19.092,1.009,26.588,5.376
						c3.82,2.226,6.127,6.253,8.767,9.65C265.46,146.366,269.695,148.35,270.739,152.933c0.354,1.554,4.284,0.536,3.924-1.051
						c-1.089-4.776-5.313-7.072-8.312-10.646c-3.403-4.059-5.813-8.049-10.494-10.775c-8.273-4.82-19.926-6.381-29.313-4.887
						c-9.377,1.492-15.407,8.421-20.961,15.536c-3.527,4.52-6.615,9.177-8.559,14.599c-1.998,5.572,0.185,11.549,1.619,16.98
						c3.115,11.785,14.104,17.459,22.673,25.049c3.376,2.99,7.313,3.848,11.72,4.111c4.681,0.279,9.733,0.693,14.354-0.205
						c2.241-0.436,4.498-1.862,6.604-2.725c2.888-1.184,5.781-2.311,8.508-3.851c4.109-2.322,7.337-4.655,9.033-9.22
						c1.85-4.976,4.259-10.838,4.634-16.132c0.429-6.06-0.629-11.896-1.506-17.836C274.438,150.351,270.498,151.297,270.739,152.933
						z"/>
				</g>
			</g>
			<g>
				<path fill="#E8E6A3" d="M265.493,150.866c-2.831-5.068-8.21-9.002-12.888-12.332c-6.575-4.789-14.099-5.832-22.217-4.758
					c-6.91,0.893-12.539,3.76-16.03,10.05c-1.812,3.53-4.027,6.71-6.441,9.717c-2.328,2.905-4.456,5.985-4.64,9.862
					c-0.051,3.115,1.672,6.003,2.646,8.945c1.215,3.681,3.673,6.325,6.594,8.841c3.221,2.776,5.536,5.997,9.45,7.968
					c4.22,2.232,9.202,4.596,14.071,5.457c2.768,0.454,5.378,0.07,8.104-0.035c2.625-0.195,5.276-0.016,7.772-0.674
					c4.067-1.055,8.226-3.439,10.397-7.18c1.854-2.968,2.715-6.611,3.213-10.041c0.559-3.906,0.006-7.541,0.103-11.316
					c0.063-2.927,1.226-5.086,0.728-7.973c-0.442-2.134-0.088-4.986-0.979-6.807"/>
			</g>
			<g>
				<g>
					<g>
						<path fill="#93CE94" d="M250.034,170.993c2.269,0.656,8.583-0.181,7.219-3.813c-1.356-3.61-7.969-3.656-11.015-3.733
							c-0.698,0.561-1.396,1.121-2.096,1.684c3.012-0.09,6.086,0.082,8.803-1.47c1.563-0.892,4.107-3.257,2.664-5.218
							c-1.524-2.07-8.602-1.563-7.666,1.67c0.283,0.977,4.197-0.109,3.925-1.051c-0.078-0.268-0.132-0.438-0.041-0.708
							c-0.359,1.08-2.271,0.223-0.905,0.659c0.666,0.213,1.064,0.793,1.18,1.449c0.176,0.998-1.064,2.561-1.91,2.828
							c-1.303,0.411-3.016,0.117-4.377,0.158c-0.789,0.023-1.69,0.301-2.35,0.74c-0.609,0.408-0.525,0.924,0.253,0.943
							c1.962,0.05,3.898,0.171,5.81,0.647c0.994,0.247,1.894,0.679,2.727,1.265c0.432,0.325,0.791,0.721,1.076,1.188
							c0.121,0.186,0.542,1.363-0.088,1.182c-0.854-0.248-1.985,0.104-2.748,0.479C250.13,170.071,249.168,170.742,250.034,170.993
							L250.034,170.993z"/>
					</g>
				</g>
				<g>
					<g>
						<path fill="#93CE94" d="M241.979,181.29c-0.041,0.707,0.248,0.703,0.869-0.012c-0.252,0.033-0.627-0.149-0.843-0.258
							c-0.896-0.454-1.172-1.741-1.407-2.617c-0.531-1.98-0.511-4.08-0.847-6.095c-0.287-1.721-4.203-0.731-3.924,1.051
							c0.18,1.144,0.077,2.258-0.3,3.354c-0.146,0.376-0.321,0.735-0.531,1.079c0.605-1.101-1.527,2.384-0.091,0.8
							c1.646-1.817-2.136-2.279-3.255-1.046c-2.709,2.988,1.068,4.134,3.664,3.403c3.595-1.013,4.959-5.309,4.437-8.642
							c-1.308,0.351-2.616,0.7-3.924,1.051c0.528,3.163,0.067,8.292,3.457,10.01c2.521,1.276,7.383,0.589,6.618-3.13
							C245.549,178.515,241.617,179.526,241.979,181.29L241.979,181.29z"/>
					</g>
				</g>
				<g>
					<g>
						<path fill="#93CE94" d="M242.742,150.676c1.367-0.701,1.755-1.706,0.98-3.086c-0.89-1.587-2.861-1.729-4.442-1.305
							c-4.663,1.249-4.036,5.94-4.171,9.784c1.308-0.351,2.615-0.7,3.924-1.051c-1.116-3.808-2.031-10.8-7.686-9.892
							c-1.639,0.264-3.854,1.137-3.967,3.087c-0.128,2.204,1.844,2.103,3.473,1.661c0.405-0.109,1.949-0.572,1.767-1.259
							c-0.185-0.685-1.754-0.317-2.158-0.208c-0.162,0.044-0.325,0.088-0.487,0.133c0.598-0.031,1.194-0.061,1.791-0.092
							c-0.363-0.167-0.526-0.441-0.488-0.822c0.365-0.771,0.106-0.987-0.775-0.651c1.241,0.339,2.215,1.711,2.784,2.752
							c1.044,1.909,1.22,4.276,1.823,6.342c0.32,1.093,3.887,0.034,3.925-1.051c0.06-1.708-0.062-3.401,0.188-5.101
							c0.063-0.362,0.15-0.719,0.266-1.068c0.063-0.162,0.127-0.324,0.189-0.487c0.6-0.768,0.481-0.837-0.354-0.21
							c0.193,0.129,1.156,1.759,1.099,1.788c-0.394,0.201-1.307,0.916-0.435,1.191C240.85,151.405,241.973,151.071,242.742,150.676
							L242.742,150.676z"/>
					</g>
				</g>
				<g>
					<g>
						<path fill="#93CE94" d="M221.745,158.324c-1.459-0.465-3.911-0.56-4.683,1.176c-0.687,1.546,0.001,3.157,0.786,4.534
							c2.605,4.571,9.604,4.318,13.294,1.607c1.971-1.449-0.646-2.752-2.151-1.987c-3.421,1.737-13.175,3.667-10.941,9.611
							c0.748,1.991,3.366,2.8,5.208,1.972c1.426-0.643,3.07-2.527,1.067-3.605c-1.468-0.789-4.933,1.207-3.033,2.229
							c-1.58-0.85,1.471-4.357,2.17-4.957c0.663-0.568,1.536-0.88,2.349-1.154c1.674-0.564,3.317-1.047,4.899-1.851
							c-0.717-0.662-1.435-1.324-2.151-1.987c-1.929,1.418-4.032,0.952-5.897-0.313c-0.646-0.438-1.174-1.116-1.505-1.817
							c-0.137-0.316-0.247-0.643-0.331-0.979c0.021-0.926-0.431-0.888-1.356,0.116C221.105,161.44,224.097,159.073,221.745,158.324
							L221.745,158.324z"/>
					</g>
				</g>
				<g>
					<g>
						<path fill="#93CE94" d="M247.189,163.456c-0.311-4.942-3.459-8.129-8.267-9.021c-4.293-0.798-9.383,1.208-11.085,5.392
							c-1.898,4.662,2.907,10.955,6.791,13.08c2.398,1.314,5.002,0.441,7.129-0.979c1.081-0.723,1.957-1.89,2.643-2.971
							c0.683-1.077,1.271-3.409,2.144-4.219c1.946-1.808-1.149-3.159-2.604-1.807c-1.975,1.833-3.621,9.557-7.313,7.077
							c-2.47-1.658-5.59-5.935-5.194-9.051c0.383-3.035,3.532-3.989,6.139-3.654c3.285,0.422,5.445,3.273,5.645,6.445
							C243.346,165.823,247.3,165.208,247.189,163.456L247.189,163.456z"/>
					</g>
				</g>
			</g>
		</g>
		<g>
			<g>
				<path fill="#02680B" d="M265.757,227.021c-0.771,0.975-1.542,1.946-2.252,2.713c-1.567,2.463-2.848,4.131-5.175,6.065
					c-2.143,1.931-4.26,4.597-6.795,5.984c-2.532,1.389-5.277,2.047-7.627,3.43c-3.438,1.976-7.609,3.981-11.512,3.394
					c-4.652-0.937-9.156-2.793-13.298-4.855c-2.075-1.029-4.13-1.691-6.015-2.727c-2.271-1.394-4.227-4.275-6.156-6.42
					c-3.657-3.927-7.691-8.021-7.534-13.568c-0.089-7.203-1.275-14.178-1.174-21.201c0.195-4.627,1.525-8.557,3.975-12.159
					c2.441-3.786,5.547-9.633,9.714-11.822c7.238-3.969,17.57-4.358,25.686-4.667c11.069-0.418,17.543,4.691,23.988,13.871
					c2.331,3.053,4.723,7.58,6.158,11.404c1.259,4.019,1.925,6.947,1.164,11.227c-0.598,3.717-1.572,7.264-1.426,11.138
					C267.598,221.963,267.873,224.355,265.757,227.021z"/>
				<g>
					<path fill="#204922" d="M264.136,226.52c-2.403,3.004-4.522,6.23-7.427,8.779c-1.8,1.582-3.34,3.385-5.215,4.895
						c-1.913,1.541-4.737,2.259-6.975,3.218c-2.537,1.086-4.717,2.588-7.367,3.498c-3.428,1.176-7.262-0.412-10.443-1.552
						c-4.209-1.506-10.704-3.895-13.998-6.975c-2.837-2.652-5.427-6.023-7.899-9.023c-3.262-3.957-3.283-7.88-3.6-12.754
						c-0.701-10.773-2.521-20.277,3.525-29.837c2.569-4.062,4.879-8.272,9.319-10.525c4.306-2.185,9.413-2.751,14.147-3.214
						c8.388-0.819,16.527-1.233,23.613,3.985c6.686,4.923,12.115,13.851,14.461,21.639c1.531,5.083,0.552,9.655-0.346,14.728
						c-0.808,4.563,0.637,9.434-2.037,13.473c-1.145,1.729,2.855,1.646,3.722,0.338c2.838-4.285,1.582-9.292,2.274-14.167
						c0.896-6.303,1.676-10.891-0.189-17.084c-2.676-8.879-9.896-18.414-17.907-23.107c-8.079-4.735-19.177-3.131-27.964-1.896
						c-4.455,0.626-9.322,1.733-13.198,4.119c-3.976,2.446-6.474,6.337-8.899,10.219c-2.644,4.229-4.66,8.048-5.367,13.039
						c-0.957,6.765,0.674,14.179,0.998,20.945c0.254,5.307,1.337,8.735,4.775,12.907c3.094,3.754,6.439,8.457,10.86,10.656
						c5.266,2.619,10.827,5.086,16.507,6.639c4.883,1.334,9.344-0.146,13.727-2.354c4.709-2.369,9.552-3.979,13.469-7.609
						c4.046-3.748,7.244-7.686,10.677-11.975C268.911,225.607,265.161,225.239,264.136,226.52z"/>
				</g>
			</g>
			<g>
				<path fill="#E8E6A3" d="M261.979,220.69c1.787-5.521,1.004-12.141,0.254-17.832c-0.971-8.078-5.328-14.298-11.644-19.512
					c-5.356-4.453-11.294-6.621-18.276-4.895c-3.816,1.076-7.652,1.622-11.5,1.898c-3.712,0.275-7.419,0.815-10.384,3.32
					c-2.313,2.084-3.256,5.311-4.75,8.027c-1.864,3.395-2.129,6.998-1.983,10.85c0.162,4.249-0.621,8.138,0.603,12.348
					c1.239,4.609,2.9,9.865,5.585,14.021c1.552,2.334,3.61,3.983,5.544,5.908c1.93,1.788,3.605,3.854,5.786,5.233
					c3.542,2.262,8.12,3.683,12.339,2.726c3.435-0.662,6.688-2.515,9.54-4.484c3.239-2.252,5.527-5.131,8.357-7.633
					c2.188-1.944,4.559-2.565,6.333-4.892c1.262-1.779,3.593-3.463,4.317-5.354"/>
			</g>
			<g>
				<g>
					<g>
						<path fill="#93CE94" d="M236.421,224.239c1.402,2.983,5.63,3.368,7.798,0.893c1.211-1.384,0.543-3.723-0.07-5.189
							c-0.914-2.182-2.582-4.086-4.131-5.838c-1.226,0.471-2.451,0.939-3.678,1.41c2.083,2.099,3.789,4.355,6.914,4.729
							c2.15,0.256,5.436-0.412,6.532-2.504c0.679-1.296-0.384-3.158-1.538-3.775c-1.67-0.895-4.282-0.027-5.214,1.563
							c-0.411,0.7,1.419,0.578,1.614,0.547c0.793-0.125,1.84-0.424,2.273-1.166c-1.255,2.141-3.079-0.209-1.831,0.818
							c0.255,0.209,0.437,0.483,0.595,0.766c0.326,0.582,0.53,1.457,0.108,2.041c0.437-0.091,0.444-0.119,0.024-0.083
							c-0.379-0.013-0.742-0.089-1.092-0.228c-0.631-0.201-1.168-0.637-1.675-1.042c-1.12-0.896-2.028-2.06-3.036-3.075
							c-0.771-0.776-4.455,0.529-3.678,1.41c1.725,1.949,3.385,3.98,4.266,6.463c0.373,1.05,0.476,2.242,0.035,3.281
							c1.502-0.086,1.883-0.238,1.146-0.46c-0.198-0.109-0.384-0.238-0.554-0.386c-0.409-0.32-0.67-0.763-0.888-1.225
							C239.82,222.074,236.02,223.383,236.421,224.239L236.421,224.239z"/>
					</g>
				</g>
				<g>
					<g>
						<path fill="#93CE94" d="M223.593,225.272c1.392,0.042,1.762-0.199,1.11-0.722c-0.34-0.369-0.5-0.858-0.651-1.321
							c-0.344-1.055,0.37-2.249,0.901-3.098c1.088-1.738,2.64-3.152,3.888-4.77c0.569-0.738-0.481-1.033-1.03-1.033
							c-0.884,0.002-2.026,0.313-2.599,1.04c-0.744,0.946-2.112,2.3-3.441,1.749c-0.355-0.147-0.63-0.447-0.885-0.721
							c-0.061-0.098-0.121-0.195-0.182-0.292c-0.121-0.663-0.578-0.478-1.368,0.558c0.871-0.004,2.042-0.308,2.598-1.04
							c0.562-0.741-0.475-1.034-1.031-1.032c-1.32,0.004-3.442,0.254-4.081,1.646c-0.472,1.029,0.669,2.062,1.476,2.509
							c3.441,1.906,8.362-0.607,10.544-3.383c-1.21,0.002-2.419,0.004-3.629,0.007c-1.874,2.43-5.772,5.438-5.083,8.911
							c0.712,3.585,5.227,3.537,7.093,0.986C228.216,223.907,224.291,224.317,223.593,225.272L223.593,225.272z"/>
					</g>
				</g>
				<g>
					<g>
						<path fill="#93CE94" d="M244.973,204.125c3.334,1.301,6.369-3.004,4.176-5.748c-1.231-1.543-3.858-1.305-5.459-0.621
							c-2.309,0.986-3.938,2.799-5.795,4.41c1.061,0.375,2.119,0.749,3.179,1.123c1.899-3.189,6.415-8.559,2.653-12.166
							c-2.826-2.711-9.373,1.745-5.72,4.018c1.47,0.913,4.91-1.094,3.022-2.268c-0.86-0.535-0.043,1.611-0.01,1.795
							c0.203,1.062-0.144,2.15-0.549,3.11c-0.767,1.817-2.145,3.371-3.15,5.06c-1.049,1.759,2.316,1.869,3.178,1.123
							c1.124-0.977,2.162-2.041,3.329-2.969c0.481-0.383,1.435-1.256,1.978-0.578c0.11,0.253,0.146,0.517,0.107,0.791
							c-0.067,1.633-1.004-0.635,1.322,0.273C245.568,200.829,242.646,203.218,244.973,204.125L244.973,204.125z"/>
					</g>
				</g>
				<g>
					<g>
						<path fill="#93CE94" d="M226.964,193.257c-1.896-3.833-6.298-0.153-7.169,2.548c-1.403,4.359,2.537,8.445,6.482,9.167
							c0.729,0.133,4.316-1.212,2.834-1.751c-3.075-1.117-5.495-3.227-8.84-3.568c-2.312-0.236-5.08,0.289-6.737,2.008
							c-1.325,1.373-0.718,4.188,1.296,4.412c1.202,0.133,4.702-0.367,4.021-2.266c-0.404-1.124-4.282,0.051-3.924,1.051
							c2.261,0.13,2.936-0.258,2.025-1.165c-0.172-0.462-0.201-0.94-0.088-1.436c0.162-1.56,2.485-0.525,3.339-0.199
							c1.994,0.762,3.702,2.105,5.727,2.842c0.944-0.584,1.889-1.167,2.834-1.751c-2.392-0.437-3.962-2.217-4.804-4.398
							c-0.309-0.799-0.376-1.662-0.398-2.508c-0.001-0.553,0.1-1.084,0.302-1.592c0.17-0.526,1.354-1.518,0.27-1.278
							c-0.598,0.024-1.196,0.05-1.795,0.075c0.234,0.287,0.469,0.574,0.702,0.86C223.602,195.442,227.387,194.114,226.964,193.257
							L226.964,193.257z"/>
					</g>
				</g>
				<g>
					<g>
						<path fill="#93CE94" d="M240.605,214.34c3.535-3.736,3.307-8.633-0.205-12.314c-3.193-3.348-8.237-3.003-11.955-0.801
							c-3.598,2.133-4.609,8.808-3.786,12.522c1.239,5.6,10.993,2.728,14.25,1.185c-0.8,0.183-1.601,0.365-2.4,0.548
							c0.302-0.004,0.603-0.008,0.903-0.012c0.941-0.013,1.962-0.251,2.773-0.743c0.614-0.373,0.543-0.818-0.218-0.809
							c-3.401,0.044-9.276,3.781-11.243-0.768c-1.3-3.002,0.058-7.381,1.385-10.136c1.918-3.976,6.19-0.563,7.851,1.905
							c2.104,3.133,1.657,7.055-0.896,9.753C236.277,215.502,239.979,215.004,240.605,214.34L240.605,214.34z"/>
					</g>
				</g>
			</g>
		</g>
		<g>
			<g>
				<path fill="#02680B" d="M282.416,272.504c-0.421,1.17-0.84,2.338-1.268,3.291c-0.699,2.834-1.379,4.824-2.965,7.402
					c-1.414,2.512-2.57,5.715-4.527,7.842c-1.956,2.125-4.346,3.625-6.133,5.686c-2.625,2.972-5.938,6.205-9.823,6.894
					c-4.707,0.602-9.569,0.276-14.152-0.353c-2.296-0.313-4.454-0.285-6.571-0.664c-2.597-0.594-5.369-2.699-7.884-4.114
					c-4.721-2.552-9.851-5.142-11.475-10.449c-2.386-6.797-5.737-13.027-7.885-19.717c-1.294-4.445-1.289-8.597-0.12-12.791
					c1.104-4.367,2.18-10.9,5.429-14.306c5.591-6.074,15.256-9.744,22.849-12.631c10.355-3.932,18.123-1.158,27.161,5.482
					c3.187,2.146,6.897,5.672,9.48,8.838c2.477,3.404,4.043,5.969,4.688,10.266c0.622,3.713,0.831,7.387,2.209,11.01
					C282.544,267.123,283.568,269.301,282.416,272.504z"/>
				<g>
					<path fill="#204922" d="M280.441,272.705c-1.469,4.02-2.793,7.879-4.799,11.67c-2.361,4.467-4.834,7.371-8.588,10.729
						c-1.549,1.386-2.854,3.06-4.373,4.484c-3.182,2.986-7.285,3.133-11.381,3.057c-4.626-0.086-11.195-0.17-15.427-2.094
						c-3.399-1.545-6.757-3.822-9.956-5.762c-4.356-2.643-5.835-6.084-7.603-10.635c-3.704-9.533-9.264-18.225-6.729-28.826
						c0.969-4.053,1.789-8.117,3.734-11.842c2.143-4.103,7.297-6.781,11.213-8.803c8.031-4.148,17.269-8.269,26.318-5.543
						c8.476,2.553,16.719,9.811,21.557,17.022c2.652,3.953,2.98,8.51,3.672,13.08C278.777,263.855,281.695,267.99,280.441,272.705
						c-0.438,1.652,3.547,1.105,3.947-0.402c1.313-4.938-1.488-9.295-2.386-14.109c-1.037-5.571-1.571-10.069-4.776-14.85
						c-5.591-8.334-16.24-15.857-26.176-17.546c-9.306-1.583-19.473,3.496-27.499,7.64c-4.094,2.115-7.988,4.787-10.949,8.349
						c-2.849,3.424-3.678,8.512-4.661,12.705c-1.496,6.377-1.27,11.485,0.993,17.668c2.188,5.971,4.964,11.717,7.198,17.676
						c1.478,3.942,5.587,6.428,9.045,8.396c4.096,2.33,7.924,5.197,12.672,5.851c10.418,1.432,21.002,3,29.184-4.683
						c3.896-3.655,8.363-7.272,10.939-12.01c2.687-4.938,4.495-9.828,6.416-15.086C284.95,270.768,280.977,271.242,280.441,272.705z
						"/>
				</g>
			</g>
			<g>
				<path fill="#E8E6A3" d="M276.813,267.713c-0.071-5.805-2.929-11.826-5.455-16.979c-3.502-7.346-9.618-11.849-17.269-14.771
					c-6.499-2.508-12.817-2.666-18.883,1.201c-3.272,2.237-6.733,3.981-10.291,5.474c-3.431,1.446-6.77,3.143-8.779,6.463
					c-1.526,2.715-1.389,6.071-1.937,9.125c-0.681,3.813,0.219,7.311,1.588,10.914c1.51,3.975,2.011,7.909,4.515,11.51
					c2.646,3.971,5.9,8.422,9.772,11.5c2.216,1.717,4.693,2.623,7.141,3.828c2.401,1.08,4.648,2.5,7.156,3.108
					c4.078,1.015,8.87,0.897,12.563-1.356c3.043-1.728,5.534-4.521,7.606-7.299c2.353-3.168,3.599-6.63,5.481-9.902
					c1.451-2.541,3.498-3.887,4.438-6.66c0.628-2.088,2.299-4.428,2.382-6.451"/>
			</g>
			<g>
				<g>
					<g>
						<path fill="#93CE94" d="M253.588,278.85c2.053,2.105,6.98,2.191,8.122-0.994c0.612-1.709-0.964-3.735-2.017-4.895
							c-1.574-1.734-3.727-2.947-5.734-4.104c-1.052,0.59-2.104,1.18-3.156,1.77c2.85,1.439,5.578,3.182,8.909,2.324
							c1.706-0.438,5.015-1.584,4.828-3.904c-0.283-3.547-6.751-4.342-7.538-0.811c-0.288,1.291,3.637,0.646,3.904-0.562
							c0.248-1.11-2.563,0.05-1.729,0.363c0.272,0.103,0.484,0.303,0.698,0.489c0.443,0.392,0.777,1,0.729,1.604
							c-0.217,2.679-5.627-0.762-6.645-1.274c-0.98-0.496-4.658,0.903-3.156,1.77c2.045,1.178,4.014,2.463,5.609,4.219
							c0.787,0.867,1.263,1.894,1.438,3.039c-0.015,0.178-0.029,0.354-0.043,0.531c-0.33,0.59-0.051,0.559,0.84-0.09
							c-0.57-0.15-0.998-0.535-1.396-0.945C256.38,276.49,252.682,277.92,253.588,278.85L253.588,278.85z"/>
					</g>
				</g>
				<g>
					<g>
						<path fill="#93CE94" d="M241.686,284.076c-0.404,1.309,2.273,0.361,1.248-0.275c-0.399-0.25-0.738-0.637-1.008-1.012
							c-0.603-0.84-0.459-2.043-0.289-2.986c0.396-2.199,1.568-4.213,2.29-6.311c0.271-0.783-3.515-0.322-3.87,0.682
							c-0.379,1.064-0.91,1.938-1.683,2.77c-0.493,0.531-0.771,0.822-1.454,0.484c-0.113-0.057-0.686-0.686-0.708-0.678
							c0.19-0.066,1.767-0.727,1.164-1.137c-0.644-0.438-1.894-0.014-2.528,0.209c-0.906,0.318-2.645,0.871-2.425,2.123
							c0.19,1.076,2.185,1.348,2.989,1.424c3.615,0.344,7.361-2.627,8.515-5.877c-1.29,0.229-2.581,0.455-3.87,0.682
							c-0.922,2.674-4.056,7.467-1.712,10.131c1.802,2.047,6.29,2.078,7.212-0.91C245.811,282.574,241.995,283.068,241.686,284.076
							L241.686,284.076z"/>
					</g>
				</g>
				<g>
					<g>
						<path fill="#93CE94" d="M255.391,257.318c1.724,0.098,3.498-0.717,3.803-2.588c0.25-1.537-0.387-3.519-2.016-4.062
							c-5.021-1.676-7.453,3.938-9.469,7.358c1.292,0.043,2.585,0.087,3.877,0.13c0.551-2.523,1.771-5.199,1.357-7.832
							c-0.342-2.179-1.52-4.627-3.955-4.964c-3.444-0.477-7.283,4.732-2.646,5.728c2.006,0.429,3.926-2.414,1.326-2.971
							c0.281,0.559,0.479,0.602,0.594,0.127c-0.654,0.088-0.656,0.34-0.01,0.758c0.732,0.97,0.792,2.315,0.732,3.465
							c-0.104,2.017-0.955,3.988-1.383,5.951c-0.465,2.129,3.213,1.254,3.877,0.129c0.774-1.315,1.405-2.705,2.291-3.955
							c0.285-0.403,0.896-1.485,1.306-0.94c0.102,0.217,0.168,0.445,0.198,0.684c0.265,1.248-1.305-0.145,1.442,0.012
							c-0.966-0.055-2.112,0.256-2.548,1.228C253.784,256.434,254.516,257.27,255.391,257.318L255.391,257.318z"/>
					</g>
				</g>
				<g>
					<g>
						<path fill="#93CE94" d="M235.02,253.34c-1.306-1.334-3.016-1.088-4.604-0.295c-1.556,0.775-1.769,2.619-1.739,4.18
							c0.09,4.953,5.747,7.115,9.826,6.535c0.596-0.084,3.557-1.6,1.604-1.65c-3.057-0.079-6.146-1.395-9.219-0.731
							c-2.262,0.488-5.681,1.258-6.402,3.828c-0.608,2.168,1.367,3.465,3.203,3.285c1.16-0.115,4.278-0.916,3.017-2.562
							c-0.614-0.803-4.361,0.496-3.687,1.375c0.576-0.354,1.152-0.711,1.729-1.065c-0.188-0.404-0.31-0.826-0.366-1.271
							c-0.389-1.816,1.958-2.068,3.133-1.992c2.051,0.131,4.002,0.785,6.077,0.84c0.534-0.551,1.068-1.1,1.604-1.649
							c-2.688,0.383-4.979-1.854-6.061-4.047c-0.376-0.763-0.529-1.625-0.544-2.465c0.013-0.496,0.089-0.982,0.229-1.455
							c0.322-1.33-2.688-0.716-1.484,0.518C232.088,255.488,235.725,254.061,235.02,253.34L235.02,253.34z"/>
					</g>
				</g>
				<g>
					<g>
						<path fill="#93CE94" d="M254.848,268.926c4.629-9.955-9.924-16.943-16.412-9.266c-2.617,3.096-1.371,9.828,0.603,12.912
							c1.394,2.176,4.323,2.076,6.567,1.602c1.543-0.328,2.971-0.971,4.342-1.736c0.57-0.319,1.117-0.682,1.664-1.043
							c0.217-0.143,1.396-1.217,1.406-1.221c2.313-0.596,1.926-2.006-0.379-1.41c-3.482,0.896-7.896,6.803-10.367,1.488
							c-1.322-2.84-1.703-6.941-0.729-9.924c1.207-3.701,5.368-1.879,7.464-0.201c2.944,2.357,3.495,6.133,1.959,9.438
							C250.6,270.35,254.354,269.99,254.848,268.926L254.848,268.926z"/>
					</g>
				</g>
			</g>
		</g>
		<g>
			<g>
				<path fill="#02680B" d="M223.472,161.96c0.699,1.032,1.396,2.06,1.913,2.966c1.874,2.237,3.081,3.959,4.229,6.76
					c1.192,2.625,3.1,5.445,3.661,8.28c0.563,2.833,0.363,5.65,0.978,8.306c0.851,3.872,1.509,8.456-0.229,11.998
					c-2.289,4.157-5.418,7.893-8.63,11.224c-1.606,1.667-2.854,3.431-4.411,4.916c-2.01,1.746-5.346,2.745-7.971,3.938
					c-4.846,2.309-9.966,4.924-15.208,3.104c-6.896-2.082-13.904-3.047-20.571-5.262c-4.353-1.574-7.7-4.027-10.4-7.445
					c-2.877-3.469-7.517-8.188-8.354-12.818c-1.605-8.099,1.13-18.068,3.278-25.902c2.929-10.682,9.751-15.317,20.446-18.703
					c3.609-1.305,8.646-2.223,12.727-2.441c4.21,0.006,7.206,0.254,11.058,2.266c3.366,1.688,6.453,3.686,10.194,4.71
					C219.204,158.684,221.567,159.144,223.472,161.96z"/>
				<g>
					<path fill="#204922" d="M221.67,162.803c4.785,7.146,9.539,13.9,10.174,22.74c0.359,5.004,2.281,9.576,0.313,14.543
						c-1.834,4.629-6.248,8.529-9.54,12.148c-3.668,4.033-7.308,5.535-12.08,7.81c-3.789,1.806-7.297,3.249-11.588,2.144
						c-2.31-0.595-4.595-1.25-6.917-1.798c-9.564-2.257-17.702-3.747-24.311-11.563c-2.963-3.505-6.105-6.867-7.284-11.426
						c-1.183-4.576-0.269-9.816,0.554-14.375c1.451-8.049,3.324-17.092,9.806-22.641c6.376-5.457,16.972-8.23,25.168-8.129
						c5.354,0.066,9.546,2.607,14.168,4.938C213.991,159.139,218.869,159.252,221.67,162.803c1.044,1.322,4.794-0.176,3.604-1.686
						c-2.882-3.651-6.897-3.992-11.016-5.613c-5.349-2.105-9.399-5.27-15.273-5.881c-9.058-0.941-20.157,2.201-27.819,7.061
						c-8.145,5.166-10.768,12.75-13.037,21.725c-1.371,5.424-2.58,11.305-2.021,16.926c0.574,5.777,3.333,9.682,7.029,14.032
						c3.337,3.929,6.41,7.153,11.157,9.356c5.311,2.466,11.513,3.268,17.175,4.604c5.569,1.314,9.595,2.718,15.271,1.127
						c2.469-0.691,4.82-1.933,7.12-3.028c2.385-1.137,5.146-1.789,7.299-3.376c4.425-3.262,8.294-8.4,11.603-12.759
						c3.175-4.181,4.537-7.765,4.214-12.979c-0.162-2.631-0.943-5.195-1.205-7.819c-0.336-3.374-0.66-6.172-2.125-9.271
						c-2.414-5.104-5.246-9.438-8.369-14.104C224.343,159.729,220.582,161.178,221.67,162.803z"/>
				</g>
			</g>
			<g>
				<path fill="#E8E6A3" d="M216.301,163.663c-4.731-3.365-11.279-4.609-16.933-5.607c-7.994-1.505-15.238,0.782-22.109,5.235
					c-5.858,3.77-9.711,8.776-10.166,15.956c-0.121,3.963-0.758,7.785-1.649,11.539c-0.856,3.625-1.454,7.318,0.042,10.901
					c1.289,2.835,4.086,4.703,6.228,6.944c2.677,2.802,6.032,4.137,9.749,5.156c4.102,1.124,7.574,3.041,11.955,3.14
					c4.771,0.206,10.285,0.202,15.055-1.108c2.693-0.776,4.887-2.244,7.301-3.508c2.288-1.303,4.761-2.279,6.733-3.944
					c3.222-2.7,5.954-6.636,6.312-10.948c0.401-3.475-0.387-7.135-1.406-10.447c-1.174-3.766-3.23-6.813-4.765-10.268
					c-1.196-2.67-1.075-5.117-2.764-7.51c-1.316-1.738-2.22-4.468-3.805-5.729"/>
			</g>
			<g>
				<g>
					<g>
						<path fill="#93CE94" d="M211.216,187.797c2.002-0.293,8.371-2.617,4.743-5.338c-1.692-1.27-4.521-0.816-6.42-0.484
							c-2.468,0.432-4.846,1.412-7.122,2.424c0.866,0.065,1.732,0.131,2.6,0.195c2.362-1.218,5.003-2.133,6.437-4.527
							c0.859-1.435,1.152-3.939-0.675-4.713c-1.73-0.732-9.082,0.848-6.667,3.522c0.616,0.683,4.214-0.733,3.707-1.295
							c-1.022-1.134,1.123-1.266-0.958-0.985c0.663-0.09,1.169,0.842,1.299,1.401c0.862,3.71-3.639,5.313-6.117,6.591
							c-0.333,0.172-0.754,0.617-0.135,0.724c0.881,0.151,1.939-0.175,2.734-0.528c2.01-0.895,4.112-1.891,6.362-1.522
							c0.895,0.146,1.729,0.64,2.026,1.511c0.129,0.375-0.041,0.766-0.2,1.096c-0.297,0.617-1.192,0.677,0.12,0.484
							c-0.877,0.129-1.927,0.323-2.633,0.909C209.642,187.824,210.919,187.84,211.216,187.797L211.216,187.797z"/>
					</g>
				</g>
				<g>
					<g>
						<path fill="#93CE94" d="M207.852,200.725c0.405,0.552,0.441,0.863-0.268,0.535c-0.855-0.396-1.483-1.27-2.045-1.992
							c-1.14-1.469-1.963-3.161-3.024-4.686c-0.865-1.242-4.64,0.128-3.621,1.619c0.785,1.146,1.201,2.451,1.242,3.842
							c0.021,0.652-0.127,1.352-0.367,1.953c-0.117,0.223-0.28,0.4-0.49,0.534c0.979,0.319,1.504,0.095,1.571-0.678
							c0.488-1.591-3.491-1.069-3.945,0.409c-1.093,3.559,3.419,2.768,5.2,1.469c2.945-2.146,2.214-6.511,0.41-9.148
							c-1.207,0.54-2.414,1.079-3.621,1.619c1.824,2.619,3.533,7.224,7.207,7.627c2.5,0.274,7.776-1.453,5.372-4.721
							C210.568,197.878,206.791,199.285,207.852,200.725L207.852,200.725z"/>
					</g>
				</g>
				<g>
					<g>
						<path fill="#93CE94" d="M196.259,173.34c0.813-1.063,0.268-1.972-0.735-2.683c-1.331-0.944-3.27-0.671-4.69-0.128
							c-4.68,1.792-1.48,7.053-0.157,10.08c1.267-0.409,2.533-0.819,3.8-1.229c-3.029-3.393-6.277-8.314-11.631-6.123
							c-1.835,0.752-3.264,2.089-2.249,4.171c0.901,1.849,3.905,0.688,5.028-0.223c1.633-1.324-2.286-0.931-3.055-0.307
							c-0.146,0.118-0.291,0.236-0.438,0.354c0.619-0.234,1.238-0.469,1.857-0.703c-0.139,0.018-0.277,0.033-0.416,0.05
							c0.503,0.051,1.006,0.101,1.509,0.151c-0.907-0.461-1.017-1.322-0.786-2.24c-0.053,0.21,2.219,1.406,2.623,1.75
							c1.504,1.279,2.57,3.063,3.88,4.527c0.611,0.684,4.208-0.295,3.8-1.23c-0.729-1.668-1.602-3.245-2.124-4.998
							c-0.267-0.891-0.279-1.776-0.002-2.662c-0.734,0.023-0.824,0.164-0.271,0.42c0.307,0.217,0.777,0.775,0.469,1.18
							C191.775,174.668,195.627,174.167,196.259,173.34L196.259,173.34z"/>
					</g>
				</g>
				<g>
					<g>
						<path fill="#93CE94" d="M179.831,189.927c-1.47,0.201-3.793,0.708-3.745,2.566c0.046,1.773,2.818,3.077,4.179,3.483
							c4.3,1.284,9.677-0.791,11.757-4.754c0.517-0.982-3.216-0.344-3.749,0.353c-1.64,2.146-4.184,3.664-5.459,6.076
							c-1.021,1.931-1.945,4.685,0.205,6.151c1.674,1.143,4.284,0.732,5.832-0.432c1.588-1.193,0.944-2.621-0.909-2.577
							c-1.239,0.029-4.245,1.958-1.614,1.896c-0.398-0.258-0.571-0.183-0.52,0.226c0.41-0.141,0.821-0.282,1.232-0.423
							c-0.576-0.161-0.993-0.506-1.252-1.031c-0.587-1.078,0.185-2.809,0.603-3.803c1.048-2.49,3.872-4.083,5.483-6.193
							c-1.249,0.117-2.498,0.234-3.748,0.352c-1.125,2.142-2.938,2.978-5.266,2.282c-0.801-0.239-1.42-0.748-2.012-1.312
							c-0.293-0.285-0.531-0.609-0.719-0.973c-0.047-0.566-0.357-0.594-0.934-0.084
							C180.933,191.494,182.573,189.552,179.831,189.927L179.831,189.927z"/>
					</g>
				</g>
				<g>
					<g>
						<path fill="#93CE94" d="M205.398,183.348c-2.534-4.543-7.231-5.283-11.919-3.926c-4.039,1.17-8.051,4.227-7.451,8.868
							c0.58,4.48,7.622,7.424,11.514,7.589c1.994,0.084,4.592-0.789,5.859-2.387c0.852-1.07,1.402-2.236,1.642-3.592
							c0.342-1.941-0.098-4.359,0.458-6.203c0.189-0.628-3.578-0.188-3.856,0.738c-0.472,1.564-0.162,3.311-0.294,4.963
							c-0.078,0.992-0.314,1.947-0.63,2.887c-0.182,0.477-0.415,0.927-0.702,1.35c-0.899,1.065-1.131,1.295-0.695,0.689
							c-3.154-0.418-7.146-2.872-8.869-5.552c-1.608-2.499-0.058-5.728,1.922-7.419c3.24-2.77,7.391-0.02,9.1,3.045
							C201.97,185.285,205.649,183.797,205.398,183.348L205.398,183.348z"/>
					</g>
				</g>
			</g>
		</g>
		<g>
			<g>
				<path fill="#02680B" d="M201.065,275.189c0.189,1.229,0.376,2.457,0.453,3.496c0.736,2.825,1.088,4.896,0.921,7.92
					c-0.048,2.883,0.464,6.248-0.245,9.053c-0.705,2.799-2.097,5.258-2.683,7.92c-0.893,3.861-2.263,8.285-5.354,10.74
					c-3.852,2.771-8.282,4.801-12.611,6.434c-2.166,0.816-4.051,1.873-6.094,2.547c-2.566,0.715-6.007,0.184-8.891,0.139
					c-5.367,0.006-11.114,0.17-15.068-3.725c-5.335-4.838-11.25-8.719-16.324-13.578c-3.256-3.291-5.229-6.943-6.199-11.188
					c-1.109-4.369-3.275-10.621-2.043-15.166c2.023-8.004,8.771-15.836,14.074-21.988c7.229-8.391,15.383-9.65,26.492-8.121
					c3.824,0.371,8.767,1.703,12.546,3.256c3.8,1.813,6.399,3.322,9.013,6.793c2.316,2.969,4.25,6.098,7.188,8.629
					C198.616,270.398,200.556,271.824,201.065,275.189z"/>
				<g>
					<path fill="#204922" d="M199.104,275.715c0.644,4.365,1.345,8.461,1.388,12.893c0.051,5.183-0.77,8.818-2.503,13.648
						c-1.704,4.748-1.904,9.363-6.512,12.514c-4.238,2.9-9.148,4.451-13.791,6.535c-4.232,1.898-8.783,1.068-13.307,1.043
						c-6.004-0.037-9.314-1.959-13.772-5.742c-7.353-6.239-16.181-11.112-19.315-20.791c-1.259-3.889-2.258-8.047-2.716-12.104
						c-0.572-5.076,2.428-10.099,5.024-14.185c5.101-8.02,12.182-17.516,22.094-19.094c8.686-1.383,19.115,1.092,26.611,5.459
						c3.819,2.226,6.141,6.299,8.777,9.693C193.833,269.125,198.051,271.094,199.104,275.715c0.301,1.32,4.234,0.314,3.922-1.051
						c-1.081-4.746-5.318-7.047-8.296-10.598c-3.394-4.045-5.818-8.017-10.482-10.732c-8.274-4.822-19.914-6.297-29.293-4.803
						c-9.449,1.504-15.291,8.393-20.981,15.451c-3.566,4.424-6.648,9.19-8.572,14.557c-1.996,5.566,0.174,11.508,1.607,16.934
						c3.105,11.767,14.1,17.42,22.66,25c3.362,2.978,7.322,3.74,11.689,4.002c4.51,0.271,9.934,0.955,14.348-0.227
						c5.116-1.371,10.422-4.121,15.119-6.553c4.286-2.221,7.104-4.701,9.063-9.113c0.963-2.164,1.391-4.564,2.02-6.836
						c0.888-3.209,2.374-5.904,2.614-9.295c0.429-6.051-0.619-11.859-1.495-17.787C202.837,273.379,198.894,274.289,199.104,275.715
						z"/>
				</g>
			</g>
			<g>
				<path fill="#E8E6A3" d="M193.856,273.646c-2.827-5.068-8.209-9.002-12.887-12.33c-6.576-4.789-14.098-5.834-22.217-4.758
					c-6.908,0.891-12.539,3.76-16.028,10.049c-1.812,3.528-4.026,6.709-6.442,9.717c-2.326,2.904-4.455,5.986-4.639,9.861
					c-0.051,3.114,1.672,6.004,2.645,8.946c1.214,3.679,3.674,6.324,6.595,8.841c3.222,2.774,5.534,5.995,9.45,7.969
					c4.22,2.231,9.201,4.594,14.072,5.455c2.767,0.455,5.377,0.071,8.102-0.035c2.625-0.195,5.276-0.016,7.772-0.674
					c4.069-1.056,8.228-3.438,10.399-7.181c1.854-2.965,2.714-6.608,3.212-10.041c0.558-3.903,0.005-7.541,0.102-11.315
					c0.065-2.926,1.225-5.086,0.726-7.972c-0.438-2.135-0.086-4.989-0.975-6.805"/>
			</g>
			<g>
				<g>
					<g>
						<path fill="#93CE94" d="M178.796,294.031c2.181,0.633,9.018-0.709,6.684-4.307c-2.288-3.525-7.619-3.65-11.368-3.746
							c-0.513,0.729-1.024,1.455-1.537,2.182c3.14-0.094,6.114,0.066,8.937-1.545c1.563-0.893,3.873-3.529,2.482-5.416
							c-1.645-2.232-8.742-1.953-7.684,1.693c0.391,1.348,4.307,0.271,3.923-1.052c-0.226-0.778-1.392-0.057-0.907,0.099
							c0.648,0.207,1.026,0.643,1.142,1.301c0.175,0.998-1.202,2.293-1.989,2.541c-1.326,0.418-2.99,0.156-4.366,0.197
							c-0.89,0.026-2.04,0.28-2.592,1.063c-0.542,0.768,0.458,1.104,1.055,1.119c1.935,0.051,3.832,0.188,5.716,0.658
							c1.01,0.25,1.951,0.746,2.739,1.416c0.546,0.465,1.604,2.114,0.179,1.701C179.995,291.584,176.597,293.393,178.796,294.031
							L178.796,294.031z"/>
					</g>
				</g>
				<g>
					<g>
						<path fill="#93CE94" d="M170.345,304.07c0.115,0.305,0.123,0.611,0.024,0.922c0.292-1.117,1.882-0.195,0.394-0.779
							c-0.97-0.379-1.357-1.59-1.652-2.484c-0.701-2.121-0.629-4.453-0.994-6.641c-0.174-1.049-4.111-0.148-3.922,1.051
							c0.211,1.346,0.057,2.564-0.383,3.844c-0.229,0.673-0.639,1.238-1.094,1.773c0.267-0.314,0.301-0.502,0.725-0.969
							c0.621-0.688-0.533-0.885-0.988-0.869c-0.877,0.029-1.996,0.32-2.609,0.996c-2.533,2.797,1.872,2.842,3.705,2.326
							c3.532-0.994,5.106-4.721,4.566-8.152c-1.307,0.352-2.615,0.701-3.922,1.051c0.527,3.172,0.029,8.062,3.39,9.764
							c2.153,1.091,7.351,0.359,6.684-2.883C174.046,301.945,170.104,302.906,170.345,304.07L170.345,304.07z"/>
					</g>
				</g>
				<g>
					<g>
						<path fill="#93CE94" d="M170.759,274.029c3.758-1.926,0.595-5.797-2.686-5.449c-4.993,0.529-4.484,6.354-4.607,9.953
							c1.311-0.244,2.621-0.488,3.933-0.734c-1.144-3.898-2.082-10.869-7.784-10.262c-1.982,0.211-3.782,1.525-3.903,3.607
							c-0.124,2.125,2.056,2.321,3.612,1.897c2.376-0.646,1.779-2.887-0.6-2.238c0.864,0.363,1.184,0.183,0.957-0.543
							c-0.412-0.145-0.326-0.065,0.258,0.234c0.936,0.575,1.542,1.637,1.977,2.603c0.809,1.801,1.008,3.868,1.561,5.752
							c0.419,1.43,3.887,0.616,3.933-0.734c0.054-1.586-0.033-3.164,0.123-4.746c0.044-0.375,0.11-0.746,0.198-1.113
							c0.186-0.891,0.806-0.877-0.116-1.252c0.29,0.178,0.524,0.41,0.702,0.699c0.625,0.809-0.336,1.041,0.822,0.447
							C166.731,273.383,168.929,274.969,170.759,274.029L170.759,274.029z"/>
					</g>
				</g>
				<g>
					<g>
						<path fill="#93CE94" d="M150.096,281.047c-1.508-0.48-3.888-0.588-4.679,1.193c-0.69,1.555,0.016,3.213,0.801,4.596
							c2.616,4.6,9.592,4.387,13.309,1.652c1.971-1.449-0.628-2.928-2.191-2.133c-3.472,1.766-13.174,3.684-10.92,9.69
							c0.75,2.002,3.353,2.894,5.229,2.05c1.456-0.656,3.049-2.642,1.035-3.724c-1.555-0.834-4.967,1.26-3.012,2.31
							c-1.619-0.869,1.484-4.332,2.179-4.929c0.658-0.563,1.546-0.873,2.351-1.146c1.673-0.563,3.318-1.051,4.899-1.854
							c-0.73-0.711-1.461-1.422-2.191-2.133c-1.907,1.401-4.034,0.976-5.89-0.283c-0.639-0.432-1.168-1.082-1.494-1.774
							c-0.137-0.318-0.247-0.646-0.332-0.98c0.02-0.916-0.428-0.859-1.341,0.172C149.584,284.305,152.473,281.803,150.096,281.047
							L150.096,281.047z"/>
					</g>
				</g>
				<g>
					<g>
						<path fill="#93CE94" d="M175.529,285.859c-0.621-9.871-15.816-11.648-19.417-2.801c-1.799,4.416,3.281,10.536,6.844,12.489
							c2.287,1.252,5.109,0.252,7.104-1.08c1.092-0.729,1.918-1.815,2.668-2.87c0.897-1.263,1.362-3.566,2.469-4.595
							c1.713-1.59-2.16-1.728-3.182-0.776c-2.313,2.146-3.354,9.973-7.749,6.043c-2.317-2.072-5.072-5.888-4.374-9.144
							c0.664-3.101,3.949-3.767,6.59-3.119c3.252,0.798,4.928,3.763,5.125,6.902C171.695,288.32,175.631,287.469,175.529,285.859
							L175.529,285.859z"/>
					</g>
				</g>
			</g>
		</g>
		<g>
			<g>
				<path fill="#02680B" d="M323.457,168.1c0.188,1.229,0.375,2.455,0.454,3.497c0.732,2.825,1.083,4.896,0.917,7.919
					c-0.046,2.883,0.465,6.248-0.245,9.051c-0.705,2.801-2.095,5.26-2.681,7.922c-0.895,3.861-2.267,8.285-5.354,10.738
					c-3.854,2.772-8.282,4.804-12.613,6.435c-2.165,0.815-4.05,1.874-6.094,2.547c-2.563,0.715-6.007,0.187-8.89,0.138
					c-5.367,0.007-11.112,0.171-15.069-3.721c-5.332-4.841-11.251-8.722-16.323-13.58c-3.257-3.292-5.228-6.941-6.197-11.189
					c-1.11-4.367-3.277-10.621-2.043-15.163c2.022-8.004,8.771-15.836,14.072-21.989c7.23-8.392,15.383-9.652,26.494-8.12
					c3.822,0.37,8.765,1.704,12.544,3.255c3.799,1.813,6.397,3.32,9.015,6.793c2.313,2.967,4.25,6.098,7.186,8.627
					C321.005,163.306,322.944,164.733,323.457,168.1z"/>
				<g>
					<path fill="#204922" d="M321.495,168.625c0.645,4.377,1.341,8.456,1.387,12.893c0.053,5.091-0.748,8.945-2.474,13.756
						c-1.303,3.633-1.776,7.121-3.973,10.416c-3.011,4.518-10.465,6.473-15.195,8.414c-5.067,2.08-10.109,1.58-15.438,1.44
						c-5.6-0.146-8.723-2.478-12.777-5.921c-7.379-6.265-16.203-11.191-19.342-20.898c-1.259-3.891-2.261-8.046-2.719-12.105
						c-0.529-4.699,1.928-9.238,4.227-13.141c5.066-8.602,13.065-19.439,23.629-20.6c8.816-0.969,19.354,1.498,26.706,6.385
						c3.723,2.475,6.009,6.852,8.837,10.223C317.015,162.647,320.518,164.344,321.495,168.625c0.176,0.768,4.115-0.211,3.924-1.051
						c-1.147-5.027-6.114-7.73-9.14-11.624c-3.262-4.196-5.821-7.571-10.627-10.095c-8.217-4.313-19.112-5.474-28.203-4.027
						c-8.946,1.424-14.629,7.48-20.141,14.144c-3.908,4.724-7.408,9.782-9.488,15.585c-1.99,5.551,0.146,11.408,1.578,16.824
						c3.104,11.732,14.101,17.337,22.631,24.895c3.613,3.203,8.039,3.699,12.686,3.821c4.328,0.113,9.029,0.793,13.271-0.345
						c4.678-1.252,9.631-3.643,13.924-5.867c4.695-2.432,8.152-4.58,10.339-9.499c0.962-2.165,1.392-4.564,2.02-6.837
						c0.75-2.711,2.031-5.158,2.537-7.951c1.114-6.15-0.496-12.973-1.387-19.023C325.315,166.876,321.359,167.7,321.495,168.625z"/>
				</g>
			</g>
			<g>
				<path fill="#E8E6A3" d="M316.246,166.557c-2.826-5.07-8.207-9.004-12.887-12.33c-6.575-4.791-14.098-5.834-22.217-4.759
					c-6.908,0.89-12.539,3.761-16.029,10.05c-1.813,3.527-4.025,6.708-6.439,9.716c-2.33,2.905-4.457,5.986-4.641,9.864
					c-0.049,3.113,1.672,6,2.645,8.944c1.217,3.679,3.674,6.323,6.594,8.841c3.223,2.775,5.537,5.994,9.451,7.966
					c4.221,2.234,9.201,4.595,14.072,5.458c2.768,0.454,5.378,0.071,8.102-0.035c2.625-0.195,5.276-0.016,7.772-0.674
					c4.069-1.055,8.229-3.438,10.397-7.181c1.854-2.964,2.715-6.61,3.214-10.039c0.559-3.907,0.006-7.541,0.103-11.318
					c0.064-2.925,1.224-5.085,0.728-7.97c-0.441-2.136-0.089-4.989-0.979-6.808"/>
			</g>
			<g>
				<g>
					<g>
						<path fill="#93CE94" d="M301.204,187.006c2.26,0.656,9.038-0.726,6.658-4.396c-2.296-3.542-7.611-3.707-11.384-3.801
							c-0.498,0.781-0.996,1.563-1.494,2.344c3.154-0.095,6.104,0.072,8.937-1.547c1.599-0.912,3.854-3.623,2.454-5.522
							c-1.687-2.291-8.768-2.049-7.676,1.72c0.424,1.461,4.341,0.39,3.924-1.051c-0.208-0.719-1.529,0.018-0.798,0.189
							c0.534,0.125,1.021,0.645,1.029,1.203c0.038,3.132-4.419,2.605-6.376,2.664c-0.906,0.026-2.051,0.263-2.582,1.096
							c-0.504,0.789,0.424,1.229,1.088,1.248c1.934,0.049,3.832,0.172,5.714,0.641c1.001,0.25,1.941,0.707,2.729,1.375
							c0.631,0.537,1.536,2.012,0.154,1.609C302.255,184.393,298.953,186.352,301.204,187.006L301.204,187.006z"/>
					</g>
				</g>
				<g>
					<g>
						<path fill="#93CE94" d="M292.732,196.981c-0.018,0.664,0.369,0.779,1.162,0.348c-0.388-0.04-0.789-0.23-1.11-0.441
							c-0.874-0.57-1.179-1.853-1.433-2.793c-0.531-1.98-0.511-4.08-0.845-6.095c-0.188-1.14-4.123-0.228-3.924,1.051
							c0.176,1.122,0.092,2.151-0.188,3.249c-0.178,0.69-0.52,1.305-0.918,1.889c-0.596,0.872,0.308-0.398,0.362-0.459
							c0.634-0.701-0.539-0.964-1.01-0.956c-0.907,0.016-1.979,0.328-2.604,1.019c-2.539,2.806,1.864,2.945,3.73,2.421
							c3.537-0.996,5.084-4.798,4.551-8.213c-1.308,0.351-2.615,0.7-3.924,1.051c0.525,3.169,0.033,8.089,3.398,9.794
							c2.199,1.115,7.354,0.389,6.674-2.914C296.418,194.768,292.479,195.737,292.732,196.981L292.732,196.981z"/>
					</g>
				</g>
				<g>
					<g>
						<path fill="#93CE94" d="M293.225,167.225c3.772-1.939,0.504-6.374-2.838-6.02c-4.955,0.525-4.429,6.62-4.553,10.16
							c1.318-0.219,2.636-0.438,3.954-0.656c-1.171-3.998-2.115-10.927-7.861-10.547c-4.565,0.302-5.192,7.457-0.135,6.086
							c2.433-0.66,1.677-3.489-0.758-2.829c0.872,0.646,1.225,0.589,1.057-0.17c-0.586-0.103-0.491,0,0.279,0.307
							c0.903,0.56,1.509,1.505,1.935,2.453c0.809,1.8,1.008,3.867,1.561,5.751c0.505,1.724,3.896,1.03,3.953-0.656
							c0.05-1.391-0.017-2.779,0.067-4.169c0.05-0.8,0.197-1.564,0.489-2.31c0.441-1.129-0.18,0.797,1.076,0.151
							C289.075,165.999,291.202,168.265,293.225,167.225L293.225,167.225z"/>
					</g>
				</g>
				<g>
					<g>
						<path fill="#93CE94" d="M272.936,174.409c-3.627-1.154-7.227,1.585-4.362,5.205c3.364,4.254,9.46,4.146,13.588,1.111
							c1.806-1.328-2.026-1.13-2.752-0.762c-3.153,1.604-12.694,3.427-10.604,8.992c0.731,1.948,3.434,2.316,5.1,1.568
							c1.268-0.57,3.162-1.951,1.232-2.99c-1.039-0.561-4.673,0.984-3.146,1.807c0.397-0.307,0.795-0.613,1.192-0.919
							c-0.908-0.847-0.982-1.788-0.226-2.825c0.739-1.25,2.012-2.008,3.323-2.516c1.863-0.72,3.725-1.197,5.52-2.11
							c-0.918-0.254-1.835-0.507-2.752-0.761c-2.154,1.585-4.796,0.093-6.375-1.52c-0.482-0.493-0.712-1.082-0.951-1.705
							c-0.109-0.314-0.188-0.639-0.236-0.97c0.207-1.09-0.359-1.023-1.696,0.198c0.905,0.289,1.958,0.066,2.771-0.398
							C272.977,175.574,273.852,174.699,272.936,174.409L272.936,174.409z"/>
					</g>
				</g>
				<g>
					<g>
						<path fill="#93CE94" d="M297.918,178.767c-0.313-4.968-3.996-7.928-8.727-8.534c-4.059-0.521-9.398,1.5-10.695,5.715
							c-1.421,4.621,2.992,10.43,6.861,12.548c2.316,1.269,5.08,0.304,7.109-1.054c1.098-0.734,1.906-1.837,2.66-2.896
							c0.902-1.27,1.357-3.543,2.473-4.579c1.738-1.615-2.121-1.896-3.209-0.883c-2.296,2.134-3.371,9.981-7.74,6.075
							c-2.31-2.063-5.062-5.856-4.364-9.102c0.653-3.049,4.009-3.721,6.599-3.086c3.248,0.795,4.912,3.7,5.109,6.847
							C294.09,181.333,298.023,180.458,297.918,178.767L297.918,178.767z"/>
					</g>
				</g>
			</g>
		</g>
		<g>
			<g>
				<path fill="#02680B" d="M225.869,235.328c0.666,1.051,1.331,2.098,1.82,3.02c1.808,2.295,2.959,4.051,4.021,6.885
					c1.115,2.66,2.937,5.537,3.412,8.39c0.476,2.848,0.192,5.655,0.724,8.33c0.736,3.896,1.254,8.496-0.59,11.985
					c-2.416,4.088-5.656,7.726-8.968,10.959c-1.655,1.617-2.955,3.34-4.557,4.779c-2.063,1.684-5.427,2.582-8.088,3.695
					c-4.912,2.162-10.107,4.623-15.293,2.645c-6.829-2.291-13.806-3.471-20.404-5.881c-4.307-1.709-7.576-4.26-10.17-7.76
					c-2.771-3.553-7.266-8.41-7.961-13.066c-1.361-8.143,1.672-18.024,4.059-25.789c3.252-10.59,10.211-15.018,21.002-18.077
					c3.648-1.196,8.711-1.96,12.796-2.058c4.208,0.135,7.194,0.474,10.981,2.604c3.313,1.789,6.342,3.875,10.047,5.014
					C221.7,231.922,224.049,232.453,225.869,235.328z"/>
				<g>
					<path fill="#204922" d="M223.907,235.854c4.185,6.679,9.077,13.563,9.561,21.687c0.251,4.228,1.214,8.381,1.019,12.625
						c-0.247,5.324-5.317,10.099-8.735,13.651c-1.559,1.621-3.113,3.23-4.639,4.886c-2.174,2.356-5.29,3.106-8.144,4.231
						c-3.773,1.486-6.849,3.369-11.276,2.826c-2.259-0.275-4.671-1.43-6.87-2.047c-10.121-2.846-19.113-4.355-25.961-12.967
						c-2.652-3.336-5.291-6.514-6.766-10.563c-1.563-4.287-0.513-9.976,0.279-14.261c1.481-8.018,3.686-17.34,9.629-23.268
						c6.553-6.533,18.523-8.932,27.354-8.313c4.891,0.344,8.857,3.173,13.028,5.435
						C216.308,231.906,221.099,232.064,223.907,235.854c0.708,0.955,4.217-0.653,3.924-1.051c-2.917-3.936-7.558-4.281-11.749-6.354
						c-4.264-2.107-7.948-4.977-12.812-5.537c-9.238-1.062-18.767,1.293-27.188,5.039c-8.406,3.739-12.471,10.379-15.059,18.92
						c-1.646,5.435-2.989,10.924-3.445,16.592c-0.564,7.008,2.168,11.854,6.41,17.164c3.173,3.972,6.083,7.254,10.711,9.574
						c5.174,2.596,11.346,3.536,16.896,5.024c4.717,1.267,8.891,3.033,13.809,1.813c5.167-1.281,10.153-3.547,15.032-5.649
						c4.55-1.964,8.027-6.896,11.281-10.453c3.594-3.929,6.51-7.937,6.762-13.363c0.119-2.592-0.539-5.215-0.906-7.764
						c-0.475-3.296-0.197-6.361-1.338-9.563c-2.002-5.609-5.279-10.453-8.404-15.441
						C227.225,233.836,223.597,235.357,223.907,235.854z"/>
				</g>
			</g>
			<g>
				<path fill="#E8E6A3" d="M218.646,236.813c-4.626-3.508-11.133-4.948-16.754-6.119c-7.943-1.745-15.253,0.318-22.257,4.564
					c-5.969,3.59-9.973,8.48-10.645,15.641c-0.242,3.961-0.994,7.763-1.996,11.484c-0.965,3.596-1.678,7.273-0.289,10.898
					c1.205,2.871,3.94,4.826,6.016,7.129c2.592,2.881,5.904,4.316,9.588,5.449c4.066,1.248,7.479,3.268,11.855,3.5
					c4.76,0.35,10.272,0.514,15.08-0.654c2.716-0.695,4.951-2.092,7.405-3.283c2.327-1.234,4.826-2.135,6.848-3.738
					c3.301-2.602,6.153-6.455,6.64-10.754c0.508-3.461-0.17-7.145-1.09-10.483c-1.059-3.804-3.023-6.908-4.452-10.408
					c-1.115-2.703-0.922-5.147-2.536-7.59c-1.261-1.777-2.083-4.533-3.628-5.843"/>
			</g>
			<g>
				<g>
					<g>
						<path fill="#93CE94" d="M213.386,260.906c2.203-0.254,7.609-2.797,4.32-5.422c-1.496-1.193-4.064-1.099-5.831-0.844
							c-2.542,0.364-4.96,1.19-7.329,2.157c0.619,0.297,1.238,0.595,1.858,0.892c2.297-1.097,5.189-1.963,6.641-4.229
							c0.967-1.51,1.764-4.291-0.333-5.256c-1.841-0.847-9.138,0.649-6.677,3.547c0.69,0.813,4.404-0.539,3.682-1.392
							c-0.802-0.942,0.674-0.885-0.833-0.729c0.723-0.074,1.095,0.76,1.207,1.318c0.711,3.547-3.612,4.908-5.994,6.045
							c-0.25,0.119-1.173,0.666-0.688,1.041c0.617,0.479,1.922,0.104,2.545-0.15c1.926-0.787,3.975-1.676,6.094-1.609
							c0.961,0.029,2.111,0.402,2.611,1.283c0.271,0.478,0.023,1.629-0.598,1.699c-0.663,0.078-1.987,0.43-2.28,1.143
							C211.482,261.133,213.123,260.938,213.386,260.906L213.386,260.906z"/>
					</g>
				</g>
				<g>
					<g>
						<path fill="#93CE94" d="M208.954,273.373c0.201,0.225,0.344,0.48,0.431,0.768c0.243,0.59,0.232,0.551-0.314,0.277
							c-0.778-0.389-1.375-1.15-1.905-1.811c-1.237-1.545-2.026-3.429-3.105-5.08c-0.676-1.035-4.314,0.44-3.923,1.051
							c0.772,1.209,1.151,2.459,1.271,3.885c0.078,0.936-0.172,1.82-0.539,2.664c-0.678,0.619-0.355,0.691,0.965,0.221
							c-0.048-0.354,0.012-0.692,0.178-1.01c0.305-0.898-3.52-0.416-3.881,0.646c-1.088,3.192,3.083,2.11,4.708,1.246
							c3.226-1.717,2.971-5.972,1.222-8.703c-1.308,0.352-2.615,0.701-3.923,1.051c1.807,2.766,3.236,7.184,6.945,7.756
							c1.934,0.301,7.822-1.117,5.796-4.012C212.154,271.287,208.568,272.82,208.954,273.373L208.954,273.373z"/>
					</g>
				</g>
				<g>
					<g>
						<path fill="#93CE94" d="M198.456,245.545c0.859-1.055-0.267-2.088-1.187-2.592c-1.359-0.744-3.394-0.258-4.706,0.338
							c-4.166,1.889-1.199,6.816-0.027,9.744c1.309-0.35,2.615-0.699,3.924-1.051c-3.042-3.625-5.955-8.467-11.512-6.39
							c-1.877,0.701-3.744,2.277-2.089,4.328c1.079,1.336,3.962-0.112,4.964-0.877c0.725-0.553-0.645-0.594-0.907-0.567
							c-0.903,0.09-1.899,0.36-2.63,0.918c-0.149,0.112-0.299,0.227-0.447,0.342c0.876-0.307,1.753-0.613,2.63-0.918
							c-0.29,0.024-0.182-2.172-0.161-2.242c-0.967,0.131-0.808,0.289,0.479,0.475c0.607,0.228,1.135,0.646,1.642,1.035
							c1.677,1.293,2.761,3.342,4.108,4.947c0.572,0.682,4.217-0.318,3.924-1.051c-0.756-1.887-1.704-3.66-2.089-5.676
							c-0.062-0.396-0.079-0.789-0.05-1.188c0.08-0.302,0.159-0.604,0.238-0.906c-1.103-0.121-1.303-0.032-0.602,0.263
							c0.668,0.364,1.166,1.139,0.637,1.787c-0.421,0.518,1.475,0.327,1.553,0.313C196.921,246.434,197.935,246.186,198.456,245.545
							L198.456,245.545z"/>
					</g>
				</g>
				<g>
					<g>
						<path fill="#93CE94" d="M181.321,261.76c-1.357,0.146-3.719,0.678-3.727,2.432c-0.008,1.798,2.158,3.205,3.598,3.813
							c4.246,1.793,9.971-0.123,12.227-4.096c0.994-1.748-2.965-0.938-3.654-0.091c-1.824,2.24-4.37,3.703-5.823,6.261
							c-0.978,1.721-1.872,4.979,0.456,6.104c1.977,0.955,4.267,0.907,5.93-0.675c1.368-1.301,0.423-2.623-1.223-2.637
							c-1.48-0.013-4.177,2.219-1.523,2.239c-0.646-0.108-0.742-0.452-0.283-1.034c-0.637-0.504-0.42-1.513-0.3-2.166
							c0.244-1.336,0.964-2.554,1.872-3.541c1.447-1.572,3.188-2.787,4.549-4.461c-1.218-0.029-2.437-0.062-3.654-0.091
							c-1.174,2.064-2.871,2.878-5.205,2.355c-0.92-0.207-1.625-0.785-2.264-1.432c-0.27-0.281-0.492-0.596-0.668-0.945
							c-0.03-0.688-0.31-0.637-0.838,0.15C182.708,263.744,184.041,261.471,181.321,261.76L181.321,261.76z"/>
					</g>
				</g>
				<g>
					<g>
						<path fill="#93CE94" d="M206.979,255.779c-4.545-8.758-21.25-5.109-19.206,5.371c0.854,4.381,7.809,7.668,11.765,7.955
							c2.266,0.164,4.518-1.052,5.733-2.955c0.786-1.23,1.2-2.506,1.496-3.928c0.339-1.63-0.109-3.675,0.406-5.218
							c0.701-2.098-3.212-1.926-3.73-0.371c-0.621,1.857,0.184,9.945-3.062,9.711c-2.832-0.204-7.328-3.018-8.514-5.657
							c-1.291-2.877,0.875-5.677,3.379-6.824c3.392-1.555,6.592,0.641,8.131,3.604C204.136,258.928,207.896,257.545,206.979,255.779
							L206.979,255.779z"/>
					</g>
				</g>
			</g>
		</g>
		<g>
			<g>
				<path fill="#02680B" d="M199.288,235.516c-0.345,1.195-0.69,2.39-1.055,3.365c-0.519,2.873-1.068,4.9-2.488,7.576
					c-1.252,2.596-2.199,5.865-4.018,8.113c-1.816,2.246-4.109,3.895-5.757,6.065c-2.431,3.132-5.53,6.57-9.366,7.503
					c-4.66,0.901-9.532,0.889-14.147,0.551c-2.308-0.166-4.462,0.004-6.599-0.24c-2.63-0.428-5.533-2.354-8.128-3.605
					c-4.875-2.246-10.162-4.506-12.12-9.697c-2.812-6.633-6.555-12.635-9.125-19.174c-1.574-4.354-1.833-8.496-0.932-12.758
					c0.823-4.431,1.479-11.017,4.504-14.622c5.193-6.418,14.604-10.697,21.998-14.061c10.082-4.584,18.012-2.309,27.457,3.74
					c3.313,1.939,7.243,5.222,10.023,8.217c2.688,3.238,4.415,5.697,5.334,9.947c0.855,3.666,1.299,7.316,2.904,10.845
					C199.073,230.137,200.235,232.246,199.288,235.516z"/>
				<g>
					<path fill="#204922" d="M197.356,235.869c-1.252,4.244-2.327,8.24-4.149,12.287c-2.081,4.619-4.384,7.768-7.951,11.395
						c-1.46,1.484-2.65,3.232-4.077,4.752c-3.24,3.455-7.822,3.766-12.168,3.82c-4.887,0.063-10.934,0.26-15.379-1.826
						c-3.385-1.59-6.844-3.279-10.089-5.139c-4.037-2.314-5.578-5.779-7.445-9.807c-4.315-9.313-10.475-17.722-8.611-28.493
						c0.651-3.763,1.218-7.502,2.506-11.111c1.518-4.253,5.574-7.274,9.167-9.71c3.592-2.435,7.564-4.294,11.488-6.118
						c6.722-3.125,12.574-3.756,19.416-1.09c8.1,3.156,16.283,9.365,20.842,16.778c2.109,3.431,2.469,7.757,3.359,11.603
						C195.286,227.617,198.287,231.172,197.356,235.869c-0.168,0.844,3.68,0.225,3.865-0.707c0.945-4.77-1.813-8.512-3.033-13.002
						c-1.517-5.578-2.108-10.298-5.729-15.013c-5.795-7.551-16.907-15.063-26.637-15.712c-9.336-0.622-17.787,3.862-25.771,8.196
						c-4.392,2.385-8.498,5.324-11.768,9.125c-2.885,3.352-3.539,8.178-4.246,12.384c-1.143,6.797-0.977,12.153,1.857,18.588
						c2.563,5.817,5.699,11.377,8.308,17.182c1.841,4.094,6.654,6.258,10.45,8.029c4.574,2.137,8.027,4.334,13.16,4.438
						c9.529,0.191,19.436,1.648,26.906-5.4c1.918-1.809,3.389-4.053,5.235-5.93c2.026-2.061,3.872-3.811,5.274-6.355
						c2.868-5.207,4.326-10.893,5.99-16.528C201.44,234.418,197.642,234.902,197.356,235.869z"/>
				</g>
			</g>
			<g>
				<path fill="#E8E6A3" d="M193.39,231.092c-0.44-5.789-3.675-11.616-6.525-16.599c-3.961-7.104-10.353-11.209-18.174-13.637
					c-6.645-2.088-12.961-1.846-18.768,2.399c-3.123,2.445-6.467,4.403-9.921,6.12c-3.333,1.662-6.556,3.566-8.349,7.01
					c-1.354,2.806-1.001,6.146-1.35,9.229c-0.439,3.852,0.681,7.281,2.276,10.792c1.761,3.87,2.511,7.766,5.239,11.196
					c2.893,3.797,6.426,8.031,10.486,10.855c2.32,1.572,4.852,2.32,7.369,3.365c2.464,0.924,4.797,2.199,7.34,2.647
					c4.134,0.748,8.908,0.328,12.451-2.155c2.926-1.914,5.234-4.865,7.125-7.769c2.146-3.312,3.169-6.844,4.84-10.229
					c1.287-2.631,3.244-4.105,4.002-6.933c0.494-2.123,2.012-4.565,1.969-6.59"/>
			</g>
			<g>
				<g>
					<g>
						<path fill="#93CE94" d="M170.864,243.539c2.061,1.85,7.047,1.877,8.1-1.193c0.592-1.729-1.154-3.705-2.264-4.781
							c-1.678-1.625-3.895-2.694-5.968-3.719c-1.063,0.553-2.125,1.104-3.188,1.656c2.847,1.219,5.741,2.82,8.933,1.832
							c1.918-0.594,4.848-1.641,4.781-4.086c-0.093-3.475-7.104-3.676-7.619-0.467c-0.188,1.172,3.716,0.455,3.889-0.619
							c0.227-1.41,0.374,0.688-1.963,0.166c0.299,0.066,0.547,0.24,0.792,0.412c0.544,0.381,0.856,0.92,0.979,1.559
							c0.606,3.168-5.66-0.049-6.604-0.453c-0.908-0.389-4.571,0.973-3.188,1.656c2.12,1.047,4.175,2.209,5.884,3.863
							c0.855,0.83,1.414,1.85,1.656,3.01c0.283,1.371-1.002,0.564,1.062,0.637c-0.625-0.021-1.169-0.488-1.604-0.881
							C173.677,241.355,170.082,242.838,170.864,243.539L170.864,243.539z"/>
					</g>
				</g>
				<g>
					<g>
						<path fill="#93CE94" d="M159.345,249.518c-0.277,1.189,2.342,0.498,1.171-0.197c-0.331-0.196-0.603-0.481-0.866-0.756
							c-0.641-0.67-0.64-1.705-0.614-2.563c0.07-2.358,1.322-4.662,1.936-6.906c0.267-0.979-3.587-0.407-3.882,0.646
							c-0.331,1.182-0.867,2.15-1.682,3.074c-0.134,0.131-0.268,0.262-0.401,0.393c-0.86,0.52-0.972,0.639-0.334,0.355
							c-0.199-0.037-1.231-0.756-1.233-0.754c0.229-0.101,1.764-0.748,1.142-1.22c-0.61-0.463-1.933-0.103-2.542,0.162
							c-0.871,0.377-2.811,1.065-2.276,2.354c0.432,1.041,2.46,1.332,3.403,1.229c3.607-0.396,6.8-2.653,7.806-6.239
							c-1.294,0.215-2.588,0.43-3.882,0.645c-0.813,2.979-3.381,7.354-1.123,10.207c1.729,2.188,6.568,1.885,7.262-1.072
							C163.466,247.855,159.591,248.469,159.345,249.518L159.345,249.518z"/>
					</g>
				</g>
				<g>
					<g>
						<path fill="#93CE94" d="M170.66,221.411c1.544,0,3.747-0.398,4.259-2.114c0.457-1.53-0.568-3.063-2.039-3.423
							c-5.131-1.254-7.418,4.375-9.191,7.873c1.293-0.217,2.586-0.436,3.88-0.652c0.391-2.582,1.219-5.074,0.932-7.709
							c-0.204-1.87-1.598-4.01-3.61-4.152c-1.65-0.117-3.629,0.572-4.711,1.842c-1.155,1.356-0.501,2.464,1.052,2.695
							c0.91,0.137,4.544-1.398,2.518-1.701c-0.257-0.154-0.325-0.388-0.204-0.701c0.344-0.559,0.087-0.637-0.77-0.235
							c1.113,0.591,1.553,2.185,1.803,3.304c0.525,2.346-0.538,4.996-0.889,7.311c-0.18,1.188,3.477,0.144,3.88-0.652
							c0.823-1.625,1.431-3.367,2.505-4.855c0.104-0.127,0.207-0.253,0.311-0.379c0.516-0.396,0.427-0.483-0.268-0.262
							c0.367,0.174,0.572,0.554,0.739,0.898c0.151,0.313,0.184,0.674,0.216,1.013c0.061,0.644-0.488,0.829,0.419,0.536
							c0.651-0.112,1.304-0.225,1.955-0.337c-0.089,0-0.179,0-0.268,0c-0.954,0-1.97,0.199-2.774,0.743
							C169.812,220.852,169.866,221.411,170.66,221.411L170.66,221.411z"/>
					</g>
				</g>
				<g>
					<g>
						<path fill="#93CE94" d="M150.786,219.417c-1.314-1.201-3.031-1.541-4.613-0.508c-1.555,1.016-1.67,2.979-1.528,4.66
							c0.438,5.177,6.594,7.183,10.849,6.3c1.971-0.408,2.182-2.379-0.056-2.295c-3.343,0.125-6.335-0.879-9.657,0.063
							c-1.865,0.529-4.944,2.012-4.816,4.363c0.124,2.281,1.715,3.658,3.987,3.289c1.351-0.221,3.7-1.467,2.327-3.033
							c-0.984-1.125-4.738,0.326-3.627,1.596c1.15,1.314,1.538-3.336,1.59-3.395c0.865-0.99,2.641-0.955,3.82-0.879
							c1.994,0.127,3.889,0.467,5.9,0.393c-0.02-0.766-0.037-1.531-0.057-2.297c-2.295,0.477-4.27-1.199-5.492-2.937
							c-0.568-0.809-0.874-1.91-0.881-2.891c0.009-0.346,0.045-0.688,0.109-1.027c0.367-0.938-0.127-0.873-1.482,0.193
							C148.271,222.028,151.969,220.497,150.786,219.417L150.786,219.417z"/>
					</g>
				</g>
				<g>
					<g>
						<path fill="#93CE94" d="M171.578,233.854c3.882-9.958-10.259-16.283-16.71-8.944c-2.75,3.126-1.269,10.028,0.904,13.069
							c1.515,2.117,3.966,2.246,6.371,1.777c1.633-0.316,3.123-1.057,4.525-1.926c0.598-0.369,1.159-0.789,1.723-1.207
							c0.186-0.139,1.52-1.479,1.395-1.438c2.26-0.74,1.869-2.381-0.436-1.627c-1.757,0.573-2.605,1.532-4.041,2.655
							c-1.275,0.998-3.385,2.543-4.988,1.349c-0.721-0.539-1.129-1.441-1.494-2.232c-1.25-2.713-1.939-6.67-0.957-9.548
							c1.238-3.635,5.561-1.897,7.65-0.259c2.804,2.201,3.408,5.707,2.159,8.912C167.273,235.477,171.128,235.012,171.578,233.854
							L171.578,233.854z"/>
					</g>
				</g>
			</g>
		</g>
	</g>
</g>
</svg>
