<?xml version="1.0" encoding="utf-8"?>
<!-- Generator: Adobe Illustrator 18.1.1, SVG Export Plug-In . SVG Version: 6.00 Build 0)  -->
<svg version="1.1" id="Layer_2" xmlns="http://www.w3.org/2000/svg" xmlns:xlink="http://www.w3.org/1999/xlink" x="0px" y="0px"
	 width="450px" height="450px" viewBox="-74 76 450 450" enable-background="new -74 76 450 450" xml:space="preserve">
<g>
	<g>
		<path fill="#486922" d="M240.316,305.733c2.051-3.57,9.314,0.147,7.979,2.508C246.96,310.599,236.031,313.192,240.316,305.733z"/>
		<path fill="#486922" d="M251.859,301.231c-1.146,2.058-1.932-5.733,1.407-5.839C256.607,295.287,253.722,297.886,251.859,301.231z
			"/>
		<path fill="#486922" d="M258.98,291.529c-3.408-0.32,4.099-6.418,5.615-3.932C266.112,290.081,261.747,291.791,258.98,291.529z"/>
		<path fill="#486922" d="M259.503,302.317c1.648,1.984,2.985-4.879,1.054-4.92C258.624,297.355,256.999,299.306,259.503,302.317z"
			/>
		<path fill="#486922" d="M254.195,309.03c-2.54-1.251-1.396,3.781-0.347,6.369C254.897,317.984,256.646,310.237,254.195,309.03z"/>
		<path fill="#486922" d="M266.762,297.502c-4.1,0.109,9.207-9.624,7.174-4.438C271.906,298.251,269.763,297.422,266.762,297.502z"
			/>
		<path fill="#486922" d="M272.381,284.139c1.256,2.227-3.033,4.927-3.87,3.464C267.676,286.145,269.757,279.484,272.381,284.139z"
			/>
		<path fill="#486922" d="M261.199,308.266c-0.736-1.265,3.675,0.786,2.673,2.604C262.868,312.686,262.396,310.323,261.199,308.266z
			"/>
		<path fill="#486922" d="M240.5,294.913c-1.582,0.251,1.659,3.142,2.294,2.123C243.429,296.016,242.903,294.531,240.5,294.913z"/>
		<path fill="#486922" d="M244.859,318.669c1.472-0.959-1.578-1.945-3.293-2.204C239.851,316.205,243.435,319.596,244.859,318.669z"
			/>
		<path fill="#486922" d="M268.242,303.502c1.243-2.223,2.223,7.97,0.095,5.24C266.213,306.013,267.334,305.13,268.242,303.502z"/>
		<path fill="#486922" d="M292.496,248.274c-1.193-2.029,5.922,1.24,4.321,4.172C295.216,255.378,294.438,251.575,292.496,248.274z"
			/>
		<path fill="#486922" d="M302.042,262.559c2.004-2.775,3.458,6.786,0.547,6.835C299.679,269.44,300.416,264.811,302.042,262.559z"
			/>
		<path fill="#486922" d="M282.508,264.426c-2.546,0.416,2.693,5.046,3.709,3.403C287.232,266.181,286.374,263.794,282.508,264.426z
			"/>
		<path fill="#486922" d="M291.247,257.722c2.366-1.555-2.554-3.118-5.316-3.525C283.17,253.793,288.963,259.225,291.247,257.722z"
			/>
		<path fill="#486922" d="M281.11,288.356c1.982-3.589,3.633,12.814,0.19,8.434C277.86,292.412,279.659,290.985,281.11,288.356z"/>
		<path fill="#486922" d="M292.872,280.181c-2.557-0.047-2.712-5.111-1.027-5.092C293.527,275.109,298.214,280.277,292.872,280.181z
			"/>
		<path fill="#486922" d="M277.735,258.316c1.465,0.007-2.539,2.77-3.599,0.985C273.08,257.516,275.358,258.308,277.735,258.316z"/>
		<path fill="#486922" d="M299.737,247.237c0.585-1.491-3.551-0.163-2.993,0.902C297.302,249.202,298.85,249.503,299.737,247.237z"
			/>
		<path fill="#486922" d="M283.194,276.81c1.289,2.197-7.996-2.122-4.565-2.573C282.058,273.789,282.249,275.202,283.194,276.81z"/>
	</g>
	<g>
		<path fill="#668C14" d="M254.871,267.671c-3.395-2.332,0.895-9.273,3.14-7.751C260.255,261.439,261.961,272.542,254.871,267.671z"
			/>
		<path fill="#668C14" d="M251.311,255.804c1.959,1.307-5.87,1.465-5.707-1.872C245.768,250.593,248.126,253.678,251.311,255.804z"
			/>
		<path fill="#668C14" d="M242.213,247.926c-0.593,3.37-6.068-4.602-3.468-5.913C241.342,240.7,242.696,245.189,242.213,247.926z"/>
		<path fill="#668C14" d="M253.007,248.271c2.111-1.483-4.623-3.367-4.82-1.446C247.99,248.749,249.804,250.526,253.007,248.271z"/>
		<path fill="#668C14" d="M259.272,254.102c-1.45,2.432,3.657,1.695,6.321,0.858C268.254,254.121,260.673,251.756,259.272,254.102z"
			/>
		<path fill="#668C14" d="M248.792,240.649c-0.221,4.096-8.853-9.951-3.847-7.507C249.951,235.582,248.953,237.651,248.792,240.649z
			"/>
		<path fill="#668C14" d="M235.924,233.975c2.32-1.074,4.667,3.419,3.142,4.135C237.544,238.825,231.072,236.216,235.924,233.975z"
			/>
		<path fill="#668C14" d="M259.074,247.059c-1.32,0.632,1.079-3.6,2.809-2.455C263.613,245.751,261.219,246.031,259.074,247.059z"/>
		<path fill="#668C14" d="M244.1,266.618c0.123,1.597,3.266-1.401,2.3-2.116C245.435,263.787,243.912,264.192,244.1,266.618z"/>
		<path fill="#668C14" d="M268.13,264.183c-0.838-1.544-2.066,1.417-2.462,3.105C265.271,268.976,268.94,265.677,268.13,264.183z"/>
		<path fill="#668C14" d="M254.891,239.656c-2.116-1.418,8.123-1.575,5.23,0.327C257.23,241.881,256.441,240.692,254.891,239.656z"
			/>
		<path fill="#668C14" d="M201.79,211.043c-2.119,1.025,1.712-5.804,4.506-3.972C209.09,208.902,205.237,209.372,201.79,211.043z"/>
		<path fill="#668C14" d="M216.796,202.675c-2.605-2.22,7.041-2.902,6.857,0.003C223.466,205.584,218.91,204.477,216.796,202.675z"
			/>
		<path fill="#668C14" d="M217.088,222.296c0.211,2.571,5.246-2.278,3.691-3.423C219.217,217.729,216.768,218.392,217.088,222.296z"
			/>
		<path fill="#668C14" d="M211.108,213.047c-1.36-2.483-3.314,2.295-3.941,5.015C206.541,220.782,212.422,215.444,211.108,213.047z"
			/>
		<path fill="#668C14" d="M240.828,225.613c-3.417-2.264,13.065-2.592,8.423,0.488C244.609,229.179,243.332,227.271,240.828,225.613
			z"/>
		<path fill="#668C14" d="M233.625,213.231c-0.252,2.545-5.312,2.293-5.157,0.615C228.621,212.171,234.15,207.915,233.625,213.231z"
			/>
		<path fill="#668C14" d="M210.614,226.563c0.124-1.459,2.557,2.753,0.692,3.665C209.442,231.138,210.414,228.932,210.614,226.563z"
			/>
		<path fill="#668C14" d="M201.339,203.742c-1.44-0.703-0.448,3.526,0.659,3.055C203.102,206.327,203.527,204.808,201.339,203.742z"
			/>
		<path fill="#668C14" d="M229.486,222.607c2.294-1.107-2.758,7.8-2.931,4.345C226.383,223.497,227.807,223.42,229.486,222.607z"/>
	</g>
	<g>
		<g opacity="0.3">
			<path d="M171.387,213.822c50.329,0.026,83.456,14.056,91.661,76.243c8.205,62.188-35.162,112.157-106.849,118.542
				c-71.687,6.385-127.141-20.081-141.293-82.946c-14.149-62.864,5.779-91.328,34.012-105.82
				C101.709,192.744,122.273,213.796,171.387,213.822z"/>
			<path d="M265.421,264.804c8.224,8.986,24.71-1.118,54.114-15.658c29.404-14.539,8.888-42.5-19.998-46.973
				C270.651,197.699,232.693,229.045,265.421,264.804z"/>
			<path d="M280.743,278.027c-9.237,5.211,27.467,22.008,36.964,12.54C327.205,281.098,315.924,258.18,280.743,278.027z"/>
			<path d="M306.414,227.463c-17.148,4.956-27.149,24.443-47.434,29.01c1.738,2.739,3.871,5.521,6.442,8.33
				c8.224,8.986,24.71-1.118,54.114-15.658c13.065-6.46,16.268-15.568,13.268-24.091
				C331.844,225.442,330.812,220.411,306.414,227.463z"/>
			<path d="M291.916,289.686c9.254,3.743,20.993,5.663,25.791,0.88c2.489-2.482,3.537-5.886,3.115-9.204
				C309.795,276.547,301.6,287.083,291.916,289.686z"/>
			<path d="M260.055,241.121c2.481,2.289,12.465,6.477,18.927-0.999c6.6-7.635,0.7-11.014-6.691-12.522
				C265.539,226.221,254.565,236.057,260.055,241.121z"/>
			<path d="M280.047,215.478c-1.847,0.761-6.036,4.315-2.167,7.596c3.952,3.351,7.012,1.338,9.085-1.444
				C288.861,219.086,284.136,213.789,280.047,215.478z"/>
			<path d="M290.785,277.28c-1.162,0.478-3.799,2.715-1.364,4.781c2.488,2.109,4.414,0.842,5.719-0.909
				C296.333,279.551,293.36,276.217,290.785,277.28z"/>
		</g>
		<g>
			<g>
				<path fill="#668C14" d="M165.046,210.652c50.329,0.026,83.456,14.056,91.661,76.243
					c8.205,62.188-35.162,112.157-106.849,118.542c-71.687,6.385-127.141-20.081-141.293-82.946
					c-14.149-62.864,5.779-91.328,34.012-105.82C95.368,189.573,115.932,210.625,165.046,210.652z"/>
				<g>
					<path fill="#668C14" d="M259.081,261.633c8.224,8.986,24.71-1.118,54.114-15.658c29.404-14.539,8.888-42.5-19.998-46.973
						C264.31,194.529,226.353,225.875,259.081,261.633z"/>
					<path fill="#668C14" d="M274.402,274.857c-9.237,5.211,27.467,22.008,36.964,12.54
						C320.864,277.928,309.584,255.009,274.402,274.857z"/>
					<g>
						<path fill="#486922" d="M300.073,224.293c-17.148,4.956-27.149,24.443-47.434,29.01c1.738,2.739,3.871,5.521,6.442,8.33
							c8.224,8.986,24.71-1.118,54.114-15.658c13.065-6.46,16.268-15.568,13.268-24.091
							C325.504,222.272,324.472,217.241,300.073,224.293z"/>
					</g>
					<g>
						<path fill="#486922" d="M285.575,286.516c9.254,3.743,20.993,5.663,25.791,0.88c2.489-2.482,3.537-5.886,3.115-9.204
							C303.454,273.377,295.26,283.913,285.575,286.516z"/>
					</g>
					<path fill="#7DA32B" d="M253.715,237.951c2.481,2.289,12.465,6.477,18.927-0.999c6.6-7.635,0.7-11.014-6.691-12.522
						C259.198,223.05,248.224,232.887,253.715,237.951z"/>
					<path fill="#7DA32B" d="M273.706,212.307c-1.847,0.761-6.036,4.315-2.167,7.596c3.952,3.351,7.012,1.338,9.085-1.444
						C282.52,215.916,277.795,210.619,273.706,212.307z"/>
					<path fill="#7DA32B" d="M284.445,274.11c-1.162,0.478-3.799,2.715-1.364,4.781c2.488,2.109,4.414,0.842,5.719-0.909
						C289.992,276.38,287.019,273.047,284.445,274.11z"/>
				</g>
			</g>
		</g>
	</g>
	<path fill="#577C1D" d="M163.541,214.816c48.022,0.025,79.631,13.411,87.46,72.749c7.829,59.338-33.551,107.018-101.953,113.11
		c-68.401,6.092-121.315-19.162-134.818-79.145c-13.502-59.984,5.513-87.143,32.454-100.972
		C97.056,194.703,116.677,214.791,163.541,214.816z"/>
	<path fill="#486922" d="M246.314,265.187c-6.265,3.502-30.151,5.305-36.502,8.64c-26.725,14.035-44.127,57.012-71.391,69.929
		c-36.342,17.218-53.733-4.392-101.112,23.485c24.58,26.867,64.454,37.646,111.74,33.434
		c68.401-6.092,109.781-53.772,101.953-113.11C249.902,279.23,248.332,271.801,246.314,265.187z"/>
	<path fill="#668C14" d="M67.783,230.169c35.8-12.87,71.234-8.969,86.703,10.682c15.468,19.651-9.527,59.059-65.525,47.759
		C32.962,277.311,30.572,243.546,67.783,230.169z"/>
	<path fill="#7DA32B" d="M64.119,267.805c14.42,11.387,43.33-5.843,46.325-19.022c2.994-13.177-23.513-14.353-37.209-8.783
		C59.538,245.57,51.845,258.113,64.119,267.805z"/>
	<g>
		<path fill="#486922" d="M41.213,293.436c7.407-0.823,9.746,13.758,4.872,14.331C41.213,308.34,25.735,295.155,41.213,293.436z"/>
		<path fill="#486922" d="M60.131,305.474c-4.228,0.529,6.305-8.954,10.032-4.191C73.888,306.048,67.009,304.615,60.131,305.474z"/>
		<path fill="#486922" d="M81.915,305.495c-3.176-5.318,13.757-0.88,11.751,3.992C91.659,314.359,84.493,309.816,81.915,305.495z"/>
		<path fill="#486922" d="M66.722,317.799c-1.132,4.527,10.319-0.86,8.313-3.726C73.028,311.207,68.442,310.92,66.722,317.799z"/>
		<path fill="#486922" d="M51.245,317.226c-0.891-5.049-7.018,2.006-9.671,6.305C38.92,327.831,52.104,322.099,51.245,317.226z"/>
		<path fill="#486922" d="M81.516,323.246c-4.542-5.867,23.902,3.152,14.156,5.732C85.926,331.557,84.845,327.544,81.516,323.246z"
			/>
		<path fill="#486922" d="M107.041,317.159c-1.909,4.217-10.438,0.842-9.199-1.943C99.08,312.433,111.031,308.348,107.041,317.159z"
			/>
		<path fill="#486922" d="M59.85,326.638c1.059-2.426,2.783,6.207-0.944,6.686C55.181,333.803,58.128,330.584,59.85,326.638z"/>
		<path fill="#577C1D" d="M128.033,271.27c3.847-0.01-3.893,7.627-5.859,5.011C120.209,273.664,124.908,271.278,128.033,271.27z"/>
		<path fill="#486922" d="M57.209,282.13c-2.059-2.04-2.813,5.783-0.647,5.62C58.729,287.587,60.337,285.229,57.209,282.13z"/>
		<path fill="#486922" d="M27.179,313.904c2.977,1.125,1.153-4.385-0.301-7.164C25.423,303.96,24.303,312.817,27.179,313.904z"/>
		<path fill="#486922" d="M74.339,331.828c4.574-0.565-9.262,11.766-7.549,5.743C68.502,331.548,70.988,332.243,74.339,331.828z"/>
		<path fill="#577C1D" d="M114.473,367.659c4.55-2.136,9.215,6.664,6.228,8.089C117.717,377.174,104.968,372.125,114.473,367.659z"
			/>
		<path fill="#668C14" d="M129.169,371.228c-2.584,1.257,2.077-7.087,5.492-4.858C138.077,368.601,133.374,369.182,129.169,371.228z
			"/>
		<path fill="#577C1D" d="M143.08,366.502c-3.185-2.704,8.59-3.555,8.37-0.009C151.229,370.041,145.665,368.699,143.08,366.502z"/>
		<path fill="#577C1D" d="M136.058,377.661c0.262,3.137,6.4-2.794,4.497-4.186C138.65,372.081,135.66,372.896,136.058,377.661z"/>
		<path fill="#577C1D" d="M126.053,380.665c-1.667-3.03-4.042,2.806-4.801,6.128C120.493,390.115,127.661,383.587,126.053,380.665z"
			/>
		<path fill="#577C1D" d="M146.689,377.92c-4.178-2.758,15.943-3.189,10.282,0.579C151.312,382.267,149.748,379.94,146.689,377.92z"
			/>
		<path fill="#577C1D" d="M161.657,368.48c-0.302,3.107-6.481,2.809-6.294,0.76C155.548,367.196,162.287,361.988,161.657,368.48z"/>
		<path fill="#577C1D" d="M133.594,384.8c0.149-1.78,3.127,3.357,0.853,4.474C132.172,390.389,133.354,387.693,133.594,384.8z"/>
		<path fill="#577C1D" d="M122.224,356.962c-1.758-0.855-0.538,4.304,0.81,3.728C124.383,360.114,124.896,358.259,122.224,356.962z"
			/>
		<path fill="#668C14" d="M109.969,383.779c2.144,0.071-0.218-3.05-1.753-4.508C106.682,377.812,107.896,383.711,109.969,383.779z"
			/>
		<path fill="#668C14" d="M143.973,384.959c2.797-1.355-3.352,9.527-3.57,5.309C140.187,386.051,141.926,385.954,143.973,384.959z"
			/>
		<path fill="#577C1D" d="M225.295,334.34c-0.464,5.004-10.414,4.568-10.129,1.27C215.448,332.315,226.261,323.882,225.295,334.34z"
			/>
		<path fill="#577C1D" d="M206.869,346.666c0.226-2.865,5.058,5.382,1.406,7.197C204.62,355.676,206.502,351.327,206.869,346.666z"
			/>
		<path fill="#668C14" d="M206.43,367.635c3.945-1.375-1.288,9.207-4.233,7.22C199.251,372.868,203.226,368.751,206.43,367.635z"/>
		<path fill="#577C1D" d="M185.578,355.84c-2.838-1.363-0.834,6.933,1.331,5.998C189.075,360.901,189.887,357.911,185.578,355.84z"
			/>
		<path fill="#668C14" d="M199.008,355.246c3.457,0.098-0.371-4.907-2.851-7.245C193.678,345.665,195.674,355.152,199.008,355.246z"
			/>
		<path fill="#577C1D" d="M167.442,378.806c4.494-2.204-5.328,15.361-5.708,8.572C161.351,380.589,164.151,380.42,167.442,378.806z"
			/>
		<path fill="#577C1D" d="M184.928,378.853c-2.526-1.835,0.862-7.011,2.534-5.812C189.13,374.236,190.205,382.685,184.928,378.853z"
			/>
		<path fill="#668C14" d="M185.076,346.389c1.46,1.031-4.478,0.995-4.289-1.531C180.978,342.332,182.704,344.717,185.076,346.389z"
			/>
		<path fill="#668C14" d="M214.838,350.693c1.628-1.082-3.438-2.645-3.625-1.19C211.027,350.956,212.365,352.339,214.838,350.693z"
			/>
		<path fill="#577C1D" d="M197.927,326.539c-1.147,1.813,2.741,1.358,4.775,0.773C204.737,326.729,199.036,324.786,197.927,326.539z
			"/>
		<path fill="#668C14" d="M177.603,368.711c-0.249,3.099-6.516-7.716-2.769-5.768C178.58,364.893,177.783,366.441,177.603,368.711z"
			/>
		<path fill="#577C1D" d="M139.327,260.916c-2.237,1.571,4.897,3.577,5.109,1.539C144.647,260.417,142.727,258.53,139.327,260.916z"
			/>
		<path fill="#577C1D" d="M108.332,271.426c-2.237,1.571,4.897,3.577,5.109,1.539C113.652,270.927,111.732,269.041,108.332,271.426z
			"/>
		<path fill="#577C1D" d="M132.695,254.727c1.542-2.578-3.877-1.803-6.7-0.919C123.172,254.696,131.207,257.213,132.695,254.727z"/>
		<path fill="#577C1D" d="M132.895,262.194c1.4-0.667-1.148,3.815-2.982,2.598C128.081,263.575,130.62,263.28,132.895,262.194z"/>
		<path fill="#577C1D" d="M137.319,270.048c2.241,1.504-8.612,1.657-5.544-0.353C134.843,267.685,135.677,268.947,137.319,270.048z"
			/>
		<path fill="#577C1D" d="M298.507,225.684c2.646-1.363,0.008,6.626-2.268,5.517C293.962,230.091,296.357,226.79,298.507,225.684z"
			/>
		<path fill="#577C1D" d="M302.638,214.568c-0.987,1.871,4.634,0.737,4.062-0.742C306.126,212.349,304.138,211.726,302.638,214.568z
			"/>
		<path fill="#577C1D" d="M284.99,232.737c-0.987,1.871,4.635,0.737,4.063-0.74C288.478,230.518,286.49,229.896,284.99,232.737z"/>
		<path fill="#577C1D" d="M295.887,212.644c0.153-2.32-3.308,0.124-4.94,1.729C289.315,215.979,295.737,214.881,295.887,212.644z"/>
		<path fill="#577C1D" d="M298.656,217.717c0.73-0.953,0.554,3.033-1.138,2.841C295.826,220.366,297.471,219.267,298.656,217.717z"
			/>
		<path fill="#577C1D" d="M304.474,221.568c2.074,0.246-5.349,4.178-3.944,1.712C301.934,220.814,302.953,221.388,304.474,221.568z"
			/>
	</g>
</g>
</svg>
