<?xml version="1.0" encoding="utf-8"?>
<!-- Generator: Adobe Illustrator 16.0.0, SVG Export Plug-In . SVG Version: 6.00 Build 0)  -->
<!DOCTYPE svg PUBLIC "-//W3C//DTD SVG 1.1//EN" "http://www.w3.org/Graphics/SVG/1.1/DTD/svg11.dtd">
<svg version="1.1" id="Layer_2" xmlns="http://www.w3.org/2000/svg" xmlns:xlink="http://www.w3.org/1999/xlink" x="0px" y="0px"
	 width="450px" height="450px" viewBox="0 0 450 450" enable-background="new 0 0 450 450" xml:space="preserve">
<g>
	<g>
		<path fill="#486922" d="M294.769,228.942c2.076-3.613,9.429,0.149,8.076,2.539C301.494,233.868,290.431,236.492,294.769,228.942z"
			/>
		<path fill="#486922" d="M306.452,224.385c-1.16,2.082-1.955-5.804,1.425-5.91C311.259,218.369,308.338,221,306.452,224.385z"/>
		<path fill="#486922" d="M313.661,214.565c-3.45-0.324,4.148-6.496,5.683-3.98C320.88,213.098,316.461,214.83,313.661,214.565z"/>
		<path fill="#486922" d="M314.19,225.484c1.669,2.01,3.022-4.938,1.068-4.98C313.3,220.462,311.656,222.436,314.19,225.484z"/>
		<path fill="#486922" d="M308.818,232.279c-2.572-1.266-1.413,3.827-0.352,6.446C309.529,241.344,311.298,233.502,308.818,232.279z
			"/>
		<path fill="#486922" d="M321.537,220.611c-4.149,0.11,9.32-9.742,7.262-4.492C326.745,221.369,324.576,220.529,321.537,220.611z"
			/>
		<path fill="#486922" d="M327.226,207.085c1.271,2.254-3.07,4.986-3.917,3.507C322.463,209.114,324.569,202.373,327.226,207.085z"
			/>
		<path fill="#486922" d="M315.906,231.507c-0.744-1.28,3.721,0.796,2.706,2.636C317.596,235.98,317.118,233.588,315.906,231.507z"
			/>
		<path fill="#486922" d="M294.954,217.99c-1.601,0.254,1.681,3.181,2.322,2.148C297.92,219.106,297.387,217.603,294.954,217.99z"/>
		<path fill="#486922" d="M299.367,242.037c1.49-0.971-1.598-1.97-3.334-2.231C294.298,239.543,297.925,242.974,299.367,242.037z"/>
		<path fill="#486922" d="M323.036,226.683c1.258-2.25,2.25,8.068,0.096,5.305C320.982,229.226,322.117,228.332,323.036,226.683z"/>
		<path fill="#486922" d="M347.587,170.78c-1.207-2.054,5.994,1.255,4.373,4.224C350.34,177.971,349.553,174.122,347.587,170.78z"/>
		<path fill="#486922" d="M357.25,185.239c2.028-2.809,3.5,6.87,0.553,6.919C354.858,192.206,355.604,187.519,357.25,185.239z"/>
		<path fill="#486922" d="M337.477,187.131c-2.578,0.421,2.726,5.107,3.755,3.444C342.258,188.907,341.389,186.49,337.477,187.131z"
			/>
		<path fill="#486922" d="M346.323,180.344c2.395-1.573-2.585-3.155-5.381-3.566C338.147,176.367,344.01,181.866,346.323,180.344z"
			/>
		<path fill="#486922" d="M336.062,211.352c2.007-3.633,3.677,12.971,0.192,8.537C332.772,215.458,334.592,214.014,336.062,211.352z
			"/>
		<path fill="#486922" d="M347.967,203.078c-2.588-0.048-2.745-5.174-1.039-5.154C348.631,197.943,353.375,203.176,347.967,203.078z
			"/>
		<path fill="#486922" d="M332.645,180.945c1.483,0.007-2.569,2.805-3.643,0.998C327.934,180.135,330.239,180.937,332.645,180.945z"
			/>
		<path fill="#486922" d="M354.916,169.73c0.592-1.508-3.595-0.164-3.029,0.913C352.451,171.719,354.018,172.025,354.916,169.73z"/>
		<path fill="#486922" d="M338.17,199.666c1.306,2.224-8.093-2.149-4.62-2.605C337.022,196.606,337.214,198.037,338.17,199.666z"/>
	</g>
	<g>
		<path fill="#668B14" d="M309.502,190.415c-3.437-2.36,0.904-9.386,3.178-7.847C314.95,184.106,316.678,195.345,309.502,190.415z"
			/>
		<path fill="#668B14" d="M305.898,178.403c1.983,1.323-5.941,1.482-5.776-1.896C300.286,173.128,302.673,176.25,305.898,178.403z"
			/>
		<path fill="#668B14" d="M296.688,170.427c-0.6,3.413-6.143-4.657-3.51-5.984C295.807,163.114,297.178,167.658,296.688,170.427z"/>
		<path fill="#668B14" d="M307.614,170.778c2.138-1.502-4.68-3.409-4.878-1.464C302.536,171.26,304.373,173.059,307.614,170.778z"/>
		<path fill="#668B14" d="M313.955,176.679c-1.467,2.462,3.702,1.715,6.398,0.868C323.048,176.699,315.374,174.304,313.955,176.679z
			"/>
		<path fill="#668B14" d="M303.349,163.062c-0.225,4.146-8.962-10.073-3.895-7.599C304.522,157.932,303.511,160.027,303.349,163.062
			z"/>
		<path fill="#668B14" d="M290.323,156.305c2.348-1.086,4.724,3.461,3.181,4.187C291.963,161.216,285.411,158.575,290.323,156.305z"
			/>
		<path fill="#668B14" d="M313.756,169.551c-1.336,0.641,1.093-3.644,2.844-2.485C318.35,168.226,315.927,168.51,313.756,169.551z"
			/>
		<path fill="#668B14" d="M298.598,189.348c0.126,1.617,3.307-1.418,2.329-2.142C299.95,186.483,298.408,186.893,298.598,189.348z"
			/>
		<path fill="#668B14" d="M322.924,186.884c-0.85-1.563-2.093,1.435-2.493,3.143C320.03,191.735,323.742,188.396,322.924,186.884z"
			/>
		<path fill="#668B14" d="M309.522,162.057c-2.142-1.435,8.222-1.595,5.294,0.33C311.89,164.309,311.09,163.105,309.522,162.057z"/>
		<path fill="#668B14" d="M255.772,133.094c-2.145,1.038,1.732-5.875,4.562-4.021C263.161,130.927,259.261,131.402,255.772,133.094z
			"/>
		<path fill="#668B14" d="M270.961,124.624c-2.638-2.247,7.127-2.938,6.939,0.003C277.713,127.568,273.101,126.449,270.961,124.624z
			"/>
		<path fill="#668B14" d="M271.256,144.484c0.213,2.603,5.31-2.306,3.735-3.465C273.411,139.862,270.932,140.533,271.256,144.484z"
			/>
		<path fill="#668B14" d="M265.203,135.122c-1.376-2.513-3.354,2.323-3.989,5.078C260.581,142.952,266.533,137.549,265.203,135.122z
			"/>
		<path fill="#668B14" d="M295.286,147.842c-3.46-2.291,13.225-2.624,8.526,0.494C299.114,151.451,297.821,149.52,295.286,147.842z"
			/>
		<path fill="#668B14" d="M287.995,135.309c-0.256,2.576-5.378,2.32-5.22,0.623C282.931,134.235,288.527,129.927,287.995,135.309z"
			/>
		<path fill="#668B14" d="M264.703,148.803c0.126-1.477,2.589,2.788,0.7,3.71C263.517,153.435,264.501,151.202,264.703,148.803z"/>
		<path fill="#668B14" d="M255.315,125.704c-1.457-0.712-0.453,3.569,0.666,3.093C257.099,128.32,257.53,126.783,255.315,125.704z"
			/>
		<path fill="#668B14" d="M283.806,144.8c2.321-1.121-2.792,7.896-2.967,4.397C280.665,145.701,282.108,145.622,283.806,144.8z"/>
	</g>
	<g>
		<g opacity="0.3">
			<path d="M224.996,135.907c50.943,0.027,84.477,14.228,92.781,77.176c8.305,62.949-35.593,113.528-108.155,119.992
				c-72.563,6.463-128.696-20.327-143.021-83.96c-14.322-63.633,5.851-92.445,34.429-107.114
				C154.466,114.571,175.281,135.881,224.996,135.907z"/>
			<path d="M320.181,187.512c8.324,9.096,25.012-1.132,54.775-15.849c29.765-14.718,8.997-43.021-20.243-47.549
				C325.474,119.588,287.052,151.316,320.181,187.512z"/>
			<path d="M335.689,200.897c-9.35,5.275,27.803,22.277,37.417,12.692C382.72,204.007,371.301,180.807,335.689,200.897z"/>
			<path d="M361.674,149.716c-17.357,5.018-27.48,24.743-48.014,29.365c1.759,2.772,3.918,5.588,6.521,8.432
				c8.324,9.096,25.012-1.132,54.775-15.849c13.225-6.539,16.468-15.759,13.43-24.387
				C387.416,147.67,386.371,142.577,361.674,149.716z"/>
			<path d="M346.999,212.699c9.367,3.789,21.249,5.732,26.106,0.891c2.52-2.511,3.58-5.957,3.152-9.315
				C365.097,199.399,356.802,210.065,346.999,212.699z"/>
			<path d="M314.748,163.541c2.512,2.316,12.618,6.556,19.159-1.012c6.68-7.728,0.708-11.148-6.773-12.676
				C320.299,148.458,309.191,158.415,314.748,163.541z"/>
			<path d="M334.985,137.584c-1.869,0.77-6.109,4.367-2.193,7.688c4,3.392,7.098,1.354,9.196-1.462
				C343.906,141.236,339.123,135.874,334.985,137.584z"/>
			<path d="M345.855,200.142c-1.177,0.483-3.845,2.747-1.381,4.838c2.519,2.136,4.468,0.853,5.789-0.92
				C351.47,202.44,348.461,199.066,345.855,200.142z"/>
		</g>
		<g>
			<g>
				<path fill="#668B14" d="M218.578,132.698c50.944,0.026,84.477,14.228,92.781,77.176
					c8.306,62.948-35.592,113.528-108.155,119.992c-72.563,6.463-128.696-20.327-143.021-83.961
					c-14.322-63.633,5.849-92.444,34.428-107.114C148.047,111.362,168.864,132.672,218.578,132.698z"/>
				<g>
					<path fill="#668B14" d="M313.762,184.303c8.325,9.095,25.014-1.132,54.776-15.85c29.764-14.717,8.997-43.02-20.242-47.548
						C319.056,116.378,280.635,148.107,313.762,184.303z"/>
					<path fill="#668B14" d="M329.272,197.688c-9.35,5.274,27.802,22.277,37.416,12.692
						C376.301,200.798,364.884,177.597,329.272,197.688z"/>
					<g>
						<path fill="#486922" d="M355.256,146.507c-17.357,5.017-27.48,24.742-48.015,29.364c1.76,2.773,3.918,5.589,6.521,8.433
							c8.325,9.095,25.014-1.132,54.776-15.85c13.226-6.54,16.468-15.758,13.431-24.386
							C380.998,144.46,379.953,139.368,355.256,146.507z"/>
					</g>
					<g>
						<path fill="#486922" d="M340.581,209.49c9.367,3.789,21.25,5.732,26.106,0.891c2.521-2.512,3.58-5.958,3.153-9.316
							C358.68,196.19,350.385,206.856,340.581,209.49z"/>
					</g>
					<path fill="#7DA22B" d="M308.331,160.331c2.512,2.317,12.617,6.557,19.157-1.011c6.682-7.728,0.709-11.148-6.771-12.676
						C313.882,145.249,302.773,155.204,308.331,160.331z"/>
					<path fill="#7DA22B" d="M328.567,134.375c-1.869,0.77-6.109,4.367-2.192,7.688c3.999,3.392,7.097,1.354,9.196-1.462
						C337.489,138.026,332.706,132.665,328.567,134.375z"/>
					<path fill="#7DA22B" d="M339.437,196.931c-1.176,0.485-3.845,2.749-1.381,4.84c2.519,2.135,4.468,0.853,5.788-0.92
						C345.052,199.23,342.042,195.856,339.437,196.931z"/>
				</g>
			</g>
		</g>
	</g>
	<path fill="#577C1D" d="M217.055,136.914c48.608,0.025,80.605,13.575,88.53,73.639c7.924,60.064-33.962,108.327-103.2,114.494
		S79.586,305.651,65.918,244.933c-13.667-60.718,5.58-88.209,32.851-102.207C149.756,116.554,169.617,136.888,217.055,136.914z"/>
	<path fill="#486922" d="M300.84,187.9c-6.342,3.545-30.521,5.37-36.949,8.746c-27.053,14.207-44.667,57.71-72.264,70.785
		c-36.787,17.428-54.391-4.446-102.35,23.771c24.881,27.195,65.243,38.106,113.107,33.844c69.238-6.167,111.124-54.43,103.2-114.494
		C304.471,202.115,302.883,194.594,300.84,187.9z"/>
	<path fill="#668B14" d="M120.125,152.455c36.237-13.028,72.105-9.08,87.764,10.813c15.656,19.891-9.645,59.78-66.327,48.342
		C84.878,200.173,82.46,165.994,120.125,152.455z"/>
	<path fill="#7DA22B" d="M116.417,190.551c14.597,11.526,43.859-5.914,46.891-19.254c3.03-13.339-23.801-14.528-37.664-8.892
		C111.78,168.044,103.992,180.74,116.417,190.551z"/>
	<g>
		<path fill="#486922" d="M93.23,216.495c7.498-0.834,9.864,13.927,4.933,14.507C93.23,231.581,77.563,218.235,93.23,216.495z"/>
		<path fill="#486922" d="M112.379,228.68c-4.279,0.535,6.383-9.063,10.154-4.241C126.305,229.26,119.342,227.81,112.379,228.68z"/>
		<path fill="#486922" d="M134.43,228.701c-3.216-5.382,13.926-0.891,11.895,4.041C144.293,237.675,137.039,233.075,134.43,228.701z
			"/>
		<path fill="#486922" d="M119.051,241.155c-1.145,4.583,10.446-0.87,8.415-3.771C125.435,234.483,120.793,234.193,119.051,241.155z
			"/>
		<path fill="#486922" d="M103.385,240.577c-0.903-5.111-7.104,2.029-9.79,6.381S104.254,245.508,103.385,240.577z"/>
		<path fill="#486922" d="M134.027,246.669c-4.599-5.938,24.193,3.19,14.329,5.803C138.49,255.082,137.397,251.02,134.027,246.669z"
			/>
		<path fill="#486922" d="M159.864,240.508c-1.933,4.27-10.566,0.853-9.312-1.967C151.805,235.724,163.902,231.59,159.864,240.508z"
			/>
		<path fill="#486922" d="M112.095,250.103c1.073-2.456,2.817,6.283-0.955,6.768C107.369,257.355,110.352,254.097,112.095,250.103z"
			/>
		<path fill="#577C1D" d="M181.112,194.058c3.895-0.011-3.94,7.719-5.931,5.071C173.193,196.48,177.948,194.065,181.112,194.058z"/>
		<path fill="#486922" d="M109.422,205.05c-2.085-2.064-2.849,5.854-0.654,5.689C110.961,210.574,112.588,208.187,109.422,205.05z"
			/>
		<path fill="#486922" d="M79.025,237.213c3.014,1.14,1.167-4.438-0.306-7.25C77.247,227.146,76.114,236.113,79.025,237.213z"/>
		<path fill="#486922" d="M126.761,255.356c4.631-0.571-9.374,11.91-7.642,5.813C120.854,255.073,123.37,255.777,126.761,255.356z"
			/>
		<path fill="#577C1D" d="M167.386,291.626c4.606-2.163,9.328,6.744,6.304,8.188C170.67,301.258,157.765,296.146,167.386,291.626z"
			/>
		<path fill="#668B14" d="M182.262,295.239c-2.616,1.272,2.103-7.175,5.559-4.918C191.278,292.58,186.519,293.168,182.262,295.239z"
			/>
		<path fill="#577C1D" d="M196.343,290.455c-3.224-2.738,8.695-3.599,8.473-0.01C204.591,294.037,198.96,292.678,196.343,290.455z"
			/>
		<path fill="#577C1D" d="M189.236,301.75c0.265,3.176,6.479-2.827,4.551-4.237S188.832,296.927,189.236,301.75z"/>
		<path fill="#577C1D" d="M179.108,304.791c-1.687-3.067-4.092,2.84-4.86,6.203C173.481,314.356,180.737,307.75,179.108,304.791z"/>
		<path fill="#577C1D" d="M199.995,302.012c-4.228-2.792,16.138-3.228,10.409,0.586
			C204.675,306.413,203.092,304.056,199.995,302.012z"/>
		<path fill="#577C1D" d="M215.148,292.457c-0.305,3.146-6.561,2.844-6.372,0.77C208.963,291.156,215.785,285.885,215.148,292.457z"
			/>
		<path fill="#577C1D" d="M186.741,308.976c0.15-1.802,3.165,3.398,0.863,4.528C185.301,314.633,186.498,311.904,186.741,308.976z"
			/>
		<path fill="#577C1D" d="M175.233,280.798c-1.78-0.865-0.546,4.356,0.82,3.773C177.416,283.988,177.936,282.111,175.233,280.798z"
			/>
		<path fill="#668B14" d="M162.827,307.942c2.17,0.072-0.222-3.088-1.774-4.563C159.5,301.902,160.729,307.874,162.827,307.942z"/>
		<path fill="#668B14" d="M197.247,309.137c2.832-1.372-3.394,9.644-3.614,5.374C193.414,310.243,195.174,310.144,197.247,309.137z"
			/>
		<path fill="#577C1D" d="M279.564,257.899c-0.469,5.065-10.542,4.623-10.252,1.286
			C269.597,255.849,280.541,247.313,279.564,257.899z"/>
		<path fill="#577C1D" d="M260.912,270.376c0.229-2.9,5.119,5.447,1.423,7.284C258.636,279.497,260.541,275.094,260.912,270.376z"/>
		<path fill="#668B14" d="M260.467,291.601c3.994-1.392-1.303,9.319-4.284,7.309C253.201,296.897,257.226,292.731,260.467,291.601z"
			/>
		<path fill="#577C1D" d="M239.361,279.662c-2.872-1.379-0.845,7.019,1.348,6.072C242.901,284.785,243.723,281.758,239.361,279.662z
			"/>
		<path fill="#668B14" d="M252.956,279.061c3.498,0.099-0.377-4.968-2.887-7.334C247.561,269.363,249.58,278.966,252.956,279.061z"
			/>
		<path fill="#577C1D" d="M221.002,302.909c4.55-2.231-5.393,15.549-5.777,8.677C214.838,304.714,217.671,304.543,221.002,302.909z"
			/>
		<path fill="#577C1D" d="M238.703,302.956c-2.559-1.857,0.872-7.097,2.564-5.882C242.957,298.283,244.044,306.836,238.703,302.956z
			"/>
		<path fill="#668B14" d="M238.853,270.096c1.479,1.043-4.532,1.006-4.341-1.551C234.705,265.988,236.451,268.403,238.853,270.096z"
			/>
		<path fill="#668B14" d="M268.979,274.452c1.648-1.096-3.48-2.678-3.67-1.206C265.121,274.718,266.476,276.118,268.979,274.452z"/>
		<path fill="#577C1D" d="M251.862,250.003c-1.162,1.835,2.774,1.373,4.833,0.782C258.754,250.195,252.984,248.227,251.862,250.003z
			"/>
		<path fill="#668B14" d="M231.288,292.69c-0.251,3.137-6.595-7.812-2.802-5.839C232.278,288.827,231.471,290.392,231.288,292.69z"
			/>
		<path fill="#577C1D" d="M192.544,183.577c-2.265,1.59,4.958,3.621,5.172,1.558S195.987,181.162,192.544,183.577z"/>
		<path fill="#577C1D" d="M161.169,194.216c-2.264,1.59,4.958,3.621,5.172,1.558C166.555,193.711,164.612,191.801,161.169,194.216z"
			/>
		<path fill="#577C1D" d="M185.831,177.312c1.562-2.608-3.925-1.825-6.781-0.93C176.193,177.281,184.324,179.83,185.831,177.312z"/>
		<path fill="#577C1D" d="M186.033,184.87c1.418-0.675-1.161,3.862-3.018,2.631C181.16,186.269,183.731,185.97,186.033,184.87z"/>
		<path fill="#577C1D" d="M190.511,192.82c2.269,1.522-8.717,1.678-5.611-0.356S188.85,191.706,190.511,192.82z"/>
		<path fill="#577C1D" d="M353.671,147.914c2.679-1.38,0.008,6.708-2.297,5.584C349.071,152.375,351.495,149.033,353.671,147.914z"
			/>
		<path fill="#577C1D" d="M357.852,136.662c-0.999,1.895,4.691,0.747,4.111-0.75C361.383,134.417,359.371,133.785,357.852,136.662z"
			/>
		<path fill="#577C1D" d="M339.989,155.052c-1,1.895,4.691,0.747,4.112-0.749C343.52,152.807,341.508,152.178,339.989,155.052z"/>
		<path fill="#577C1D" d="M351.019,134.714c0.155-2.348-3.349,0.127-5,1.751C344.367,138.091,350.867,136.978,351.019,134.714z"/>
		<path fill="#577C1D" d="M353.823,139.849c0.738-0.965,0.561,3.07-1.152,2.876C350.958,142.53,352.623,141.419,353.823,139.849z"/>
		<path fill="#577C1D" d="M359.71,143.748c2.1,0.249-5.414,4.229-3.991,1.732C357.141,142.984,358.171,143.565,359.71,143.748z"/>
	</g>
</g>
</svg>
