<?xml version="1.0" encoding="utf-8"?>
<!-- Generator: Adobe Illustrator 16.0.3, SVG Export Plug-In . SVG Version: 6.00 Build 0)  -->
<!DOCTYPE svg PUBLIC "-//W3C//DTD SVG 1.1//EN" "http://www.w3.org/Graphics/SVG/1.1/DTD/svg11.dtd">
<svg version="1.1" id="Ebene_1" xmlns="http://www.w3.org/2000/svg" xmlns:xlink="http://www.w3.org/1999/xlink" x="0px" y="0px"
	 width="450px" height="450px" viewBox="0 0 450 450" enable-background="new 0 0 450 450" xml:space="preserve">
<g id="kraut">
	<g opacity="0.6">
		<path fill="#BE2E8C" d="M180.807,324.178c2.014,1.524,2.323,6.145,2.787,9.002c0.979,7.844,2.372,8.271,10.071,7.616
			c12.218-1.829,19.318,5.629,30.994,5.896c5.94,0.315,7.618,4.3,12.397,5.615c1.986,0.461,5.32-0.779,7.103-0.686
			c3.748-0.507,6.741,0.713,10.487,0.204c1.574-0.271,6.252-3.209,7.646-2.781c2.378,0.126,3.462,4.08,4.883,5.572
			c3.253,3.714,7.8,3.6,11.802,5.584c4.211,2.347,3.254,3.713,8.705,0.106c6.228-4.272,6.82-4.242,13.381-2.83
			c9.531,1.568,18.466,11.25,29.986,5.133c5.66-3.237,7.08-9.892,11.138-13.926c3.669-3.703,9.844-1.957,10.465-9.006
			c0.544-2.097-2.065-3.65-1.341-6.445c0.312-3.524,2.271-4.129,4.188-6.858c2.688-3.399,2.351-0.938,2.636-5.526
			c0.337-2.463-1.497-4.685-0.384-7.813c1.859-4.86,8.551-6.271,8.837-10.862c0.699-3.856-5.888-6.334-7.929-8.92
			c-2.632-2.618-4.698-6.269-4.024-11.19c0.646-5.987,7.313-8.466,5.61-13.514c-1.061-2.889-26.536-59.13-28.628-63.845
			c-2.09-4.715-32.517-11.644-36.569-15.753c-3.229-2.65,2.885-50.029-23.572-50.521c2.777-18.617-10.555-19.991-14.35-21.609
			c-4.6-2.014-22.055,3.848-25.336-0.928c-5.525-7.73,12.404-15.809,5.717-22.538c-5.681-5.968-51.178,7.313-57.479,8.395
			c-5.322,0.778-10.333-1.966-16.017,0.212c-4.314,1.541-8.939,6.607-12.221,9.973c-4.056,4.035-6.048,11.719-9.768,13.291
			c-5.477,2.544-11.906-1.693-18.16,1.516c-5.863,2.876-5.736,8.195-9.999,11.864c-5.427,4.669-10.721-1.633-12.866,7.815
			c-2.199,7.318-1.451,13.732-4.836,20.988c-2.456,4.828-10.182,12.563-11.086,16.055c-0.905,3.494,2.063,3.651,2.916,6.177
			c0.671,3.222-1.604,7.351-2.303,11.209c-1.449,5.589-3.776,15.734-1.092,20.48c2.273,4.016,9.377,3.33,12.447,7.743
			c3.279,4.777,0.438,9.938,0.977,15.986c0.332,13.83,2.168,23.715,8.882,31.51c6.919,8.156,11.524,5.816,22.657,8.181
			c9.349,2.266,47.023,0.428,41.852,15.733l-1.26,3.776c2.557-0.573-4.06,0.013-2.613,2.568c1.032,1.823-2.018,6.618,0.229,9.571
			c3.485,5.144,10.899,0.934,13.223,7.078"/>
	</g>
	<g>
		<path fill="#8E386B" d="M352.523,273.157c2.156-10.158,2.694-9.695-0.324-17.435c-2.713-7.94-3.293-15.897-11.902-27.068
			c-7.688-9.973-19.522-19.237-30.716-16.318c-8.832,2.304,15.741-6.144,8.254-20.541c-2.83-5.443-26.754,0.463-32.326-2.881
			c-3.711-2.226-4.682-24.965-3.344-24.297c10.106,5.051,15.157-6.687,7.354-13.598c-3.262-2.89,4.371-5.376-0.223-14.043
			c-5.912-11.158-17.164,5.572-13.152-10.254c2.445-9.643-5.789-13.547-8.022-16.049c-4.297-4.567-7.579,13.597-12.929,9.14
			c-5.803-4.836-12.645,2.718-16.719-2.229c-2.379-2.887-20.685-13.119-16.94-13.821c32.1-6.019,24.381-18.204,20.508-18.278
			c-23.406-0.445-24.075,0.446-57.104,5.472c-9.372,1.427-25.488,13.846-40.278,33.67c-18.564,7.237-21.496,14.114-20.769,27.691
			c1.573,29.266,33.754,5.52,29.895,12.272c-17.308,13.217-8.495,42.48-14.476,28.636c-5.977-13.846-17.307-20.14-28.006-34.3
			c-7.014-9.281-24.514,4.378-22.971,16.363c1.439,11.168-4.732,25.48-1.222,35.504c3.106,8.867,10.935,6.726,13.49,13.272
			c2.635,6.753-0.628,8.776,1.573,14.475c5.346,12.354,8.504,21.813,16.678,31.467c10.199,11.92,36.52-2.935,48.146,7.238
			c7.552,6.606,13.53,15.418,6.292,21.712c-7.221,6.281-0.943,18.566,11.959,18.566c10.703,0-7.867,20.453,22.342,20.768
			c19.716,0.206,41.918,13.916,62.802,15.989c25.653,2.546,28.004-9.791,32.312-7.441c22.324,12.173,42.079,8.938,45.627,4.7
			c8.028-9.596-3.695-12.087,3.883-18.273c3.37-3.176,8.854-25.162-19.104-26.093c-5.15-0.172,3.201-10.251,4.659-11.183
			c4.785-3.191,14.863,1.074,17.551-4.971c3.395-7.264-0.107-7.662-0.156-14.756"/>
	</g>
	<g>
		<g>
			<g>
				<path fill="#7F2D61" d="M235.402,232.2c-3.157-3.33-8.264-3.002-12.492-3.399c-3.517-0.33-6.981-1.742-5.286-5.813
					c1.692-4.063,6.125-9.101,10.508-10.054c3.741-0.813,7.232-2.267,11.104-1.198c3.113,0.858,5.529,3.972,8.381,5.439
					c2.734,1.408,5.77,0.632,8.677,1.153c3.535,0.634,6.552,3.239,9.136,5.558c2.125,1.906,4.028,4.046,6.107,5.998
					c1.051,0.987,2.243,1.836,3.396,2.697c1.573,1.178,2.106,4.213,2.754,5.967c0.621,1.679,1.949,3.027,3.049,4.394
					c0.801,0.994,1.281,1.877,1.604,3.072c0.478,1.766-3.565,0.16-4.547,0.059c-15.76-1.653-29.201-11.135-44.303-15.18
					c-1.402-0.375-6.544,1.855-4.736,2.34c9.853,2.64,18.751,7.299,28.214,11.007c4.459,1.747,9.204,3.288,13.965,3.94
					c4.123,0.565,8.379,1.682,12.504,0.575c1.518-0.405,4.615-1.563,4.676-3.541c0.086-2.764-2.539-4.806-3.979-6.911
					c-1.026-1.503-1.418-3.531-2.057-5.216c-0.748-1.972-2.44-3.065-4.024-4.315c-3.722-2.937-6.658-6.732-10.447-9.627
					c-2.92-2.231-6.308-3.33-9.935-3.588c-2.796-0.198-4.399-0.121-6.751-1.648c-1.805-1.173-3.363-2.653-5.209-3.783
					c-6.175-3.78-16.056-0.015-22.192,1.984c-5,1.63-13.16,10.047-12.195,15.627c0.402,2.326,4.959,3.186,6.688,3.408
					c4.024,0.521,8.925-0.104,11.944,3.078C231.034,235.359,236.421,233.271,235.402,232.2L235.402,232.2z"/>
			</g>
		</g>
		<g>
			<g>
				<path fill="#7F2D61" d="M202.838,282.574c4.035-3.491,8.237-6.637,11.621-10.803c0.88-1.082,2.737-3.031,2.933-4.477
					c0.209-1.539,0.025-1.813,0.029-3.4c0.004-1.572,2.302-3.311,3.386-4.285c2.067-1.862-1.464-2.535-2.774-2.16
					c-5.414,1.547-10.895,0.119-16.236,1.443c-3.924,0.973-7.237,3.369-9.696,6.58c-5.546,7.242-7.696,17.389-5.575,26.272
					c0.439,1.843,3.77,0.765,4.727,0.202c4.488-2.639,9.053-6.922,12.518-10.762c2.341-2.596-3.296-2.703-4.699-1.146
					c-3.131,3.471-7.449,7.585-11.477,9.951c1.575,0.066,3.15,0.135,4.727,0.201c-1.783-7.472-0.254-15.66,3.619-22.233
					c3.029-5.144,6.639-5.972,12.198-5.856c3.667,0.074,7.228-0.475,10.745-1.479c-0.925-0.72-1.85-1.44-2.774-2.16
					c-1.503,1.354-2.82,2.695-3.876,4.42c-1.28,2.091-0.154,4.456-1.674,6.515c-3.534,4.783-7.961,8.174-12.419,12.03
					C195.548,283.67,201.298,283.907,202.838,282.574L202.838,282.574z"/>
			</g>
		</g>
		<g>
			<g>
				<path fill="#7F2D61" d="M205.034,287.282c2.453-7.058,11.759-8.074,17.897-10.326c2.113-0.774,4.549-1.704,5.944-3.56
					c1.484-1.97-3.396-3.234-4.4-3.482c-7.656-1.893-13.271,0.643-19.195,5.314c-2.905,2.291-7.986,4.485-8.544,8.652
					c-0.167,1.248-0.331,3.094,0.911,3.949c0.834,0.575,1.039,0.617,2.033,0.886c0.931,0.25,1.301,0.563,0.258-0.093
					c1.371,0.861,6.148-1.514,5.47-1.939c-0.299-0.188-0.606-0.233-0.96-0.239c-1.681-0.03-1.963-1.63-2.066-2.998
					c-0.285-3.804,4.633-6.163,7.212-8.015c3.232-2.32,4.747-4.27,8.985-3.569c1.65,0.272,6.92,1.73,3.277,3.521
					c-7.332,3.602-19.368,3.859-22.529,12.954C198.986,289.318,204.538,288.712,205.034,287.282L205.034,287.282z"/>
			</g>
		</g>
		<g>
			<g>
				<path fill="#7F2D61" d="M187.852,278.577c-8.286-2.892-15.977-5.742-23.415-10.478c-2.662-1.694-5.617-2.779-8.318-4.38
					c-2.379-1.407,0.605-4.137,1.631-5.12c0.649-0.623,4.118,0.407,4.932,0.467c2.05,0.149,4.227-0.144,6.234,0.369
					c1.523,0.389,3.045,1.92,4.427,2.674c3.21,1.756,6.65,3.427,9.931,5.101c3.199,1.632,6.395,1.892,7.618,5.763
					c0.573,1.813-1.647,2.381-2.888,3.172c-1.293,0.823-2.08,2.422-3.39,3.172c-3.405,1.951-0.315,5.324,2.626,3.64
					c1.824-1.045,3.049-2.644,4.662-3.968c1.414-1.163,3.475-1.645,4.363-3.403c1.768-3.504-0.466-7.608-3.43-9.637
					c-1.573-1.075-3.561-1.579-5.299-2.316c-2.601-1.102-4.873-3.069-7.476-4.265c-2.328-1.068-4.456-2.455-6.763-3.508
					c-3.645-1.66-7.438-0.392-11.145-1.575c-3.866-1.234-6.857-0.333-9.601,2.727c-2.177,2.429-5.313,6.698-1.777,9.464
					c1.677,1.312,3.552,2.144,5.479,3.021c3.333,1.521,6.236,3.813,9.409,5.613c5.902,3.353,12.512,5.313,18.887,7.537
					C187.167,283.559,191.356,279.8,187.852,278.577L187.852,278.577z"/>
			</g>
		</g>
		<g>
			<g>
				<path fill="#7F2D61" d="M153.002,257.9c-1.419,0.772-4.455-0.983-5.798-1.596c-2.814-1.285-6.51-1.438-9.524-1.851
					c-6.005-0.819-12.195-1.663-16.497-6.322c-6.334-6.86-7.587-17.308-12.717-25.027c-1.318-1.984-5.314-0.729-5.588,1.498
					c-1.302,10.601,2.128,20.314,7.386,29.383c4.476,7.719,9.777,16.591,18.563,19.69c8.315,2.935,17.138,0.357,25.021-2.589
					c7.283-2.723,15.28-6.393,19.246-13.451c0.412-0.731,0.063-1.664-0.57-2.128c-7.027-5.157-15.715,4.693-22.895,2.203
					c-2.628-0.911-6.808,2.863-3.299,4.08c3.24,1.124,6.493,0.579,9.752-0.212c2.515-0.61,9.688-4.305,12.008-2.604
					c-0.19-0.709-0.381-1.418-0.57-2.127c-3.287,5.85-11.033,8.682-17.01,10.829c-7.428,2.671-15.477,4.388-22.609-0.073
					c-2.848-1.779-4.711-4.984-6.645-7.644c-2.324-3.196-4.487-6.495-6.469-9.914c-4.578-7.896-7.144-16.682-6.021-25.823
					c-1.863,0.499-3.726,0.999-5.588,1.498c6.07,9.135,7.178,21.723,16.551,28.481c5.463,3.938,13.151,4.222,19.547,5.184
					c5.203,0.782,11.142,5.005,16.356,2.166C159.089,259.674,155.976,256.282,153.002,257.9L153.002,257.9z"/>
			</g>
		</g>
		<g>
			<g>
				<path fill="#7F2D61" d="M335.492,341.202c5.638-2.573,10.98-4.081,13.747-10.103c2.307-5.023,3.912-16.928-2.272-19.802
					c-3.003-1.396-7.5-1.303-10.739-2.085c-4.68-1.131-9.302-2.229-14.104-2.695c-8.547-0.832-19.164,1.166-26.716-3.812
					c-1.268-0.836-5.291-0.44-5.588,1.497c-0.553,3.621-1.519,7.423-0.56,11.047c0.978,3.688,5.781,5.241,8.97,6.279
					c8.572,2.791,16.901,4.238,25.688,5.908c3.175,0.603,6.738,2.033,6.608,5.809c-0.084,2.421-1.666,4.898-2.399,7.17
					c-1.975,6.118,7.71,1.35,9.457,0.207c3.278-2.145-1.8-2.698-3.551-1.553c-0.411,0.269-0.821,0.537-1.231,0.806
					c-1.643,0.688-1.34,0.972,0.908,0.851c-0.227-0.58,0.467-1.898,0.657-2.422c0.704-1.935,1.609-3.787,1.939-5.837
					c0.772-4.796-4.04-6.804-7.787-7.813c-6.854-1.846-13.877-2.08-20.755-4.23c-3.867-1.21-8.521-2.285-11.729-4.904
					c-3.003-2.453-0.911-8.974-0.436-12.093c-1.863,0.499-3.726,0.998-5.588,1.497c5.139,3.387,11.266,3.893,17.271,4.217
					c8.146,0.438,15.829,0.758,23.807,2.703c3.262,0.797,6.477,1.627,9.823,1.941c5.102,0.479,4.404,7.445,4.103,11.072
					c-0.278,3.365-1.051,6.848-3.086,9.596c-1.824,2.465-6.006,3.333-8.678,4.552C329.568,340.688,332.973,342.352,335.492,341.202
					L335.492,341.202z"/>
			</g>
		</g>
		<g>
			<g>
				<path fill="#7F2D61" d="M208.493,169.288c-0.021-3.993-0.567-8.101,1.066-11.864c1.732-3.99,5.887-3.467,8.383-6.246
					c1.666-1.854,1.254-5.24-0.116-7.152c-2.146-2.992-5.685-3.035-8.104-5.508c-3.175-3.246-4.743-6.199-8.85-8.529
					c-3.305-1.875-5.846-5.01-9.632-5.869c-7.242-1.646-13.721,4.756-17.715,9.883c-1.626,2.086,1.113,3.215,2.912,2.672
					c5.783-1.746,8.856,3.291,11.314,7.705c2.594,4.661,5.921,9.77,7.689,14.748c1.812,5.104,1.841,9.566,6.117,13.344
					c2.996,2.646,6.916-0.252,7.281-3.49c0.322-2.869-5.577-2-5.857,0.494c1.023-0.083,2.047-0.166,3.07-0.25
					c-0.611-0.559-1.152-1.18-1.619-1.862c-0.89-1.167-1.27-2.296-1.631-3.704c-0.79-3.072-1.445-6.072-2.715-8.995
					c-1.745-4.017-4.463-7.879-6.49-11.799c-3.855-7.45-9.38-12.618-18.171-9.964c0.971,0.891,1.941,1.781,2.912,2.672
					c2.233-2.867,4.603-5.563,7.909-7.207c3.279-1.63,7.428,3.341,10.13,4.868c5.218,2.949,7.272,8.444,12.825,10.745
					c1.613,0.668,6.125,4.703,2.957,5.906c-2.491,0.945-4.432,2.403-6.293,4.295c-4.054,4.121-3.26,10.372-3.232,15.603
					C202.651,172.725,208.507,171.758,208.493,169.288L208.493,169.288z"/>
			</g>
		</g>
		<g>
			<g>
				<path fill="#7F2D61" d="M291.736,196.897c-4.897-0.733-9.643,0.357-14.375,1.587c-6.313,1.641-12.487,2.888-19.004,3.438
					c-6.305,0.532-14.543,0.597-18.434-5.145c-1.648-2.433-3.297-4.396-2.531-7.435c0.428-1.701,1.742-3.405,2.633-4.896
					c1.121-1.874,1.406-3.915,3.436-2.483c2.646,1.868,4.964,4.227,7.641,6.098c2.508,1.754,5.106,3.174,7.387,5.241
					c3.861,3.502,7.397,5.141,12.682,4.882c5.143-0.251,10.006-2.259,15.123-2.617c1.811-0.127,3.607-0.381,5.422-0.134
					c1.025,0.141,1.957,1.155,0.246,1.175c-1.006,0.012-1.954,0.153-2.928,0.395c-3.499,0.87-2.717,3.7,0.76,2.836
					c1.891-0.471,11.749-1.023,8.55-5.809c-2.188-3.275-8.252-1.654-11.456-1.607c-3.727,0.055-7.548,1.447-11.176,2.16
					c-6.42,1.261-9.439-1.576-13.99-5.416c-3.203-2.702-7.096-4.569-10.363-7.262c-2.479-2.045-4.234-3.885-7.527-4.152
					c-5.729-0.468-10.036,6.85-11.778,11.211c-2.237,5.605,2.562,11.939,7.492,14.429c6.474,3.27,16.177,1.988,23.049,1.154
					c3.763-0.457,7.474-1.116,11.146-2.05c4.628-1.175,9.599-3.223,14.439-2.497C289.971,200.27,295.007,197.388,291.736,196.897
					L291.736,196.897z"/>
			</g>
		</g>
		<g>
			<g>
				<path fill="#7F2D61" d="M292.723,238.452c-2.646-4.033-6.558-7.077-8.99-11.251c-1.098-1.883,10.318-8.963,11.629-9.854
					c6.45-4.391,15.854-8.645,20.063-15.503c2.809-4.573,1.039-10.737-4.78-9.997c-2.763,0.353-5.354,2.005-7.761,3.286
					c-3.774,2.008-7.663,3.791-11.428,5.818c-6.361,3.425-11.765,8.381-14.896,14.973c-2.953,6.215-5.343,14.186-0.584,20.11
					c3.473,4.323,10.801,5.028,15.834,6.19c5.608,1.295,8.793-5.798,2.857-8.133c-1.71-0.673-6.996,1.834-4.622,2.768
					c1.313,0.519,3.37,1.896,1.526,3.418c1.367-0.365,2.731-0.731,4.1-1.099c-6.646-1.149-15.014-2.604-16.48-10.31
					c-2.041-10.721,7.316-21.457,15.844-26.262c4.057-2.286,8.343-4.178,12.455-6.365c2.352-1.251,2.754-1.548,3.212,1.339
					c0.566,3.576-1.809,6.113-4.365,8.141c-9.188,7.282-19.707,12.583-28.321,20.641c-0.272,0.256-0.773,0.777-0.58,1.227
					c2.209,5.123,6.883,8.51,9.899,13.11C288.372,242.284,294.003,240.406,292.723,238.452L292.723,238.452z"/>
			</g>
		</g>
		<g>
			<g>
				<path fill="#7F2D61" d="M352.212,250.465c-3.884-2.598-8.386-3.688-12.709-5.322c-2.15-0.813-4.065-1.938-5.844-3.386
					c-1.315-1.069-0.653-3.567-0.528-4.979c0.602-6.74,1.523-17.851,6.961-22.721c0.243-0.218,0.417-0.503,0.112-0.749
					c-1.306-1.053-2.651-2.047-3.957-3.101c-1.159-0.936-4.426,0.389-5.354,1.212c-7.622,6.769-11.235,23.294-8.071,32.883
					c2.161,6.551,9.841,9.381,15.95,10.532c5.698,1.075,12.008,1.438,13.86-5.187c0.324-1.16-5.311-0.402-5.713,1.035
					c-0.463,1.653-0.817,2.531-2.093,3.813c1.502-0.467,3.003-0.932,4.504-1.396c-10.121-0.218-20.94-4.094-21.586-15.557
					c-0.47-8.339,1.819-20.753,8.389-26.587c-1.784,0.404-3.567,0.808-5.353,1.212c0.244,0.196,3.521,2.842,3.539,2.827
					c-0.462,0.413-0.873,1.026-1.238,1.519c-1.188,1.598-1.87,3.602-2.523,5.457c-1.486,4.223-2.231,8.723-2.853,13.143
					c-0.278,1.979-0.459,3.972-0.578,5.967c-0.134,2.257,1.398,3.01,3.217,4.229c4.987,3.344,11.373,3.754,16.401,7.118
					C348.099,253.329,352.979,250.979,352.212,250.465L352.212,250.465z"/>
			</g>
		</g>
		<g>
			<g>
				<path fill="#7F2D61" d="M333.904,293.969c5.466-1.527,11.326,1.366,16.501-1.66c3.47-2.031,6.91-6.776,4.391-10.889
					c-1.004-1.637-2.356-1.301-3.563-2.436c-1.792-1.687-1.241-3.347-0.976-5.56c0.371-3.073,0.807-6.151,1.54-9.161
					c0.485-1.984,2.641-3.938,1.479-5.906c-0.428-0.721-1.658-0.787-2.367-0.736c-3.49,0.245-6.737,1.234-10.052,2.309
					c-3.658,1.187-7.422,1.598-11.091,2.69c-7.029,2.093-13.895,7.043-20.065,10.918c-3.537,2.221-7.032,4.437-10.865,6.119
					c-4.511,1.979-9.238-0.159-13.837-0.571c-2.906-0.261-5.965-0.383-8.681-1.511c-1.737-0.722-3.297-0.294-4.864,0.618
					c-4.97,2.896,0.44,10.369,2.787,12.781c5.034,5.176,11.004,6.393,17.71,8.254c2.74,0.763,4.962,2.66,7.726,3.397
					c2.821,0.753,5.669-0.267,8.192-1.45c6.815-3.201,15.633-13.107,23.636-7.754c1.966,1.314,7.149-1.425,4.508-3.191
					c-10.48-7.013-21.73,3.016-30.632,7.822c-3.457,1.868-5.717-0.98-8.697-2.042c-2.879-1.024-5.886-1.59-8.826-2.403
					c-3.301-0.914-5.851-2.791-8.289-5.104c-0.922-0.876-6.129-6.886-3.979-8.138c-0.976,0.261-1.948,0.521-2.925,0.783
					c1.73,0.176,3.868,1.088,5.656,1.39c3.416,0.577,6.841,0.776,10.255,1.418c6.93,1.302,12.455-0.661,18.462-4.083
					c6.845-3.898,13.467-8.167,20.347-12.02c3.547-1.985,7.388-2.289,11.244-3.271c3.932-1.003,7.594-2.727,11.688-3.014
					c-0.789-0.246-1.578-0.491-2.367-0.737c-0.102-0.171-1.224,1.517-1.501,2.392c-0.818,2.572-1.271,5.144-1.627,7.813
					c-0.314,2.353-1.62,6.091-0.371,8.36c1.65,3,6.311,4.191,4.722,8.211c-1.393,3.524-6.805,1.971-9.678,1.801
					c-2.269-0.135-4.407,0.289-6.571,0.895C329.389,291.291,330.358,294.961,333.904,293.969L333.904,293.969z"/>
			</g>
		</g>
		<g>
			<g>
				<path fill="#7F2D61" d="M256.516,186.322c3.303-1.773,6.439-2.256,7.961-6.248c0.561-1.47,0.008-3.647-0.121-5.135
					c-0.328-3.773,0.194-7.313,0.688-11.03c0.682-5.132-0.566-7.536-3.479-11.46c-1.231-1.658-1.295-4.126-1.395-6.084
					c-0.072-1.387,0.104-2.746,0.322-4.107c0.234-1.449,1.613-2.004-0.15-2.205c3.125,0.357,4.371,3.002,7.975,2.037
					c3.789-1.016,5.136-4.8,5.432-8.33c0.432-5.145-0.26-10.379,0.047-15.555c0.161-2.719-2.67-2.992-4.361-4.559
					c-1.271-1.176-3.896-0.34-5.017,0.652c-1.358,1.204-1.422,3.081-1.813,4.779c-0.984,4.281-1.707,8.537-3.176,12.695
					c1.559-0.646,3.114-1.295,4.672-1.941c-15.371-1.885-21.656,12.938-22.83,25.877c-0.36,3.973-0.08,7.9,0.74,11.801
					c0.994,4.727,1.398,9.114,1.717,13.914c0.518,7.767,6.424,8.3,12.246,4.873c3.379-1.989-1.718-2.846-3.6-1.738
					c-3.273,1.928-3.109-11.607-3.289-12.865c-0.814-5.739-2.426-10.808-2.02-16.706c0.496-7.179,3.531-23.214,13.49-21.993
					c1.553,0.191,4.063-0.221,4.67-1.941c1.049-2.975,1.783-5.977,2.426-9.063c0.277-1.335,0.484-5.898,1.418-6.725
					c-1.672,0.219-3.344,0.436-5.018,0.654c2.315,2.145,4.117,1.656,3.778,5.015c-0.498,4.954,0.428,9.877,0.013,14.833
					c-0.101,1.051-0.391,2.051-0.869,3c0.258-0.553,2.455,0.926,0.164-0.4c-1.289-0.746-2.474-1.389-3.974-1.561
					c-2.847-0.325-5.447,0.963-7.271,3.074c-1.933,2.234-1.603,6.414-1.463,9.137c0.188,3.689,1.959,5.81,4.084,8.634
					c3.021,4.017-0.363,12.737-0.006,17.561c0.137,1.813,0.475,3.786,0.172,5.584c-0.402,2.396-3.979,2.83-5.765,3.788
					C249.473,186.433,254.618,187.34,256.516,186.322L256.516,186.322z"/>
			</g>
		</g>
		<g>
			<g>
				<path fill="#7F2D61" d="M276.626,188.285c-10.272-1.616-5.438-15.68-6.08-22.824c-0.729-8.118-3.03-16.896,2.31-24.143
					c3.137-4.258,10.362-3.901,10.326,2.24c-0.031,5.408-4.06,9.02-6.633,13.273c-2.764,4.568-1.513,11.584-1.179,16.607
					c0.2,3.021,0.282,6.164,1.08,9.094c0.123,0.452,1.983,7.168,0.508,6.438c-2.164-1.066-7.295,1.881-4.489,3.265
					c4.514,2.226,10.911,0.444,11.11-5.277c0.112-3.257-1.671-6.44-1.956-9.69c-0.501-5.717-1.105-11.535-0.432-17.264
					c0.386-3.263,3.408-5.795,5.076-8.471c1.721-2.762,3.135-6.863,2.748-10.148c-0.748-6.341-7.129-7.959-12.652-6.688
					c-12.018,2.766-14.019,16.733-12.442,27.104c1.043,6.861-0.112,13.386,0.438,20.222c0.504,6.294,4.139,9.376,10.225,10.334
					C277.348,192.795,280.52,188.897,276.626,188.285L276.626,188.285z"/>
			</g>
		</g>
		<g>
			<g>
				<path fill="#7F2D61" d="M243.146,174.547c-3.797-4.855-12.646-3.393-18.104-3.67c-5.145-0.26-9.668-1.152-13.213-5.109
					c-2.392-2.671-4.064-5.893-6.495-8.547c-0.112,0.576-0.224,1.153-0.335,1.73c1.279-1.273,2.407-2.686,3.629-4.013
					c-0.902-0.107-0.717,0.132,0.556,0.717c1.024,0.7,1.859,1.363,3.011,1.843c4.125,1.715,8.285,1.705,12.683,1.418
					c4.421-0.289,11.298-1.973,15.048,1.158c4.963,4.146,2.245,13.088,0.453,18.047c1.334-0.694,2.67-1.388,4.004-2.082
					c-0.461-0.283-0.924-0.567-1.386-0.852c-1.356-1.658-6.924,0.429-5.364,2.334c1.307,1.596,2.541,1.963,4.553,2.02
					c1.484,0.041,3.453-0.553,4.006-2.082c2.295-6.35,3.92-14.096-0.901-19.719c-3.213-3.746-9.629-2.807-13.912-2.715
					c-4.14,0.09-8.182,0.953-12.324,0.287c-3.205-0.516-4.962-3.303-7.936-4.018c-5.09-1.221-7.721,3.453-10.812,6.529
					c-0.446,0.444-0.854,1.162-0.335,1.729c3.975,4.34,6.578,11.072,12.607,13.028c3.895,1.263,7.842,1.672,11.913,1.878
					c3.817,0.193,10.761-0.816,13.292,2.42C239.098,178.563,244.676,176.502,243.146,174.547L243.146,174.547z"/>
			</g>
		</g>
		<g>
			<g>
				<path fill="#7F2D61" d="M232.802,199.049c-2.522-5.812-6.956-8.619-12.979-10.006c-6.656-1.531-13.995-0.943-18.925-6.482
					c-4.589-5.158,6.926-4.398,9.188-4.01c3.356,0.578,6.61,1.688,9.827,2.777c3.33,1.127,7.195,1.498,10.07,3.623
					c4.979,3.682,2.957,12.811-0.664,16.447c1.67-0.225,3.34-0.449,5.01-0.673c-0.957-0.748-1.549-1.742-1.771-2.983
					c-0.643-1.999-6.41-0.362-5.797,1.553c0.485,1.513,1.041,2.532,2.182,3.681c1.146,1.153,4.023,0.319,5.013-0.673
					c4.744-4.762,6.063-11.311,3.086-17.496c-2.308-4.793-9.808-5.344-14.229-6.831c-9.309-3.13-21.973-6.109-29.153,2.737
					c-0.192,0.244-0.26,0.519-0.204,0.82c3.13,5.889,8.269,8.166,14.598,9.295c7.717,1.375,15.396,1.576,18.957,9.773
					C227.87,202.59,233.561,200.793,232.802,199.049L232.802,199.049z"/>
			</g>
		</g>
		<g>
			<g>
				<path fill="#7F2D61" d="M196.503,162.264c-4.441,1.153-11.914,8.973-15.779,4.738c-3.576-3.916-5.085-8.542-9.729-11.58
					c-4.162-2.722-9.703-2.785-14.375-4.073c-1.668-0.46-3.178-1.214-4.521-2.305c-1.41-1.146,1.926-3.138,2.781-3.103
					c2.178,0.091,4.404,0.975,6.569,1.305c1.918,0.291,3.835-0.162,5.669-0.664c1.021-0.279,2.054-0.72,3.041-1.102
					c1.361-0.527,3.186,3.453,3.362,3.826c1.175,2.472,0.942,8.504,4.013,9.596c4.748,1.688,8.803-0.301,13.293-1.674
					c4.141-1.267,2.408,5.623,3.625,8.162c1.072,2.241,6.762,0.467,5.795-1.553c-1.702-3.555,0.735-9.777-4.721-10.598
					c-3.823-0.576-7.43,1.338-10.953,2.5c-4.457,1.471-4.592-6.586-5.921-9.387c-4.099-8.633-10.747-1.723-17.216-3.254
					c-6.748-1.596-12.311-0.638-15.57,6.082c-0.215,0.442-0.326,0.973,0.055,1.377c3.316,3.516,7.813,4.557,12.404,5.45
					c7.02,1.365,11.068,3.928,14.815,10.083c2.11,3.467,4.892,7.051,9.414,6.729c6.101-0.436,9.251-5.732,14.851-7.188
					C200.939,164.715,200.027,161.348,196.503,162.264L196.503,162.264z"/>
			</g>
		</g>
		<g>
			<g>
				<path fill="#7F2D61" d="M160.85,128.859c4.386-1.713,7.448-4.49,10.603-7.947c4.809-5.269,10-8.77,16.869-10.795
					c4.309-1.271,7.926-2.578,12.541-1.912c2.125,0.307,3.664,2.201,5.18,3.535c2.38,2.094,6.023,3.301,8.787,4.828
					c2.926,1.617,5.416,3.891,8.206,5.721c3.56,2.336,6.425,5.052,9.608,7.808c2.051,1.774,4.598,1.739,7,0.604
					c3.211-1.518,2.33-5.645,1.045-8.322c-2.088-4.356-7.472-6.466-11.147-9.157c-8.192-5.999-15.032-13.652-24.583-17.607
					c-8.44-3.496-18.873-3.574-26.84,1.217c-4.471,2.689-8.065,6.259-11.391,10.25c-3.764,4.517-7.582,9.146-11.041,13.902
					c-1.032,1.418-5.682,8.48-1.784,9.605c3.305,0.955,6.88-0.836,9.601-2.559c2.434-1.541-3.4-0.83-4.439-0.173
					c-1.418,0.897-0.14-3.552-0.012-3.871c1.101-2.749,3.199-5.259,5.061-7.503c3.02-3.64,5.851-7.422,8.877-11.053
					c3.387-4.066,7.831-8.629,13.189-9.785c5.029-1.085,11.205,0.918,15.73,2.996c7.146,3.28,12.922,9.092,18.926,14.019
					c5.182,4.253,17.379,8.962,14.922,17.546c3.574-0.229,4.551-0.772,2.932-1.629c-0.407-0.302-0.799-0.623-1.174-0.965
					c-0.908-0.786-1.729-1.674-2.604-2.494c-3.558-3.328-7.886-5.722-11.743-8.689c-3.894-2.996-8.937-4.264-12.628-7.513
					c-2.076-1.827-3.742-2.981-6.589-3.188c-7.927-0.572-15.928,1.935-23.188,5.009c-3.285,1.391-6.222,3.146-9.049,5.314
					c-4.398,3.374-7.571,9.42-12.867,11.488C154.999,129.041,158.651,129.719,160.85,128.859L160.85,128.859z"/>
			</g>
		</g>
		<g>
			<g>
				<path fill="#7F2D61" d="M344.115,343.072c-0.192,3.066-2.143,4.996-4.495,6.767c-4.072,3.062-9.271,1.491-13.653-0.014
					c-5.724-1.966-10.818-5.358-16.501-7.445c-5.045-1.854-10.238-3.2-15.127-5.474c-3.817-1.775-17.223-12.192-7.336-14.041
					c5.274-0.986,11.74,1.336,16.584,3.244c3.169,1.25,5.072,4.064,8.045,5.509c2.626,1.276,5.321,1.786,8.196,2.187
					c3.273,0.454,6.193,0.913,8.866,3.012c2.121,1.666,2.659,4.558,4.815,6.215c1.321,1.016,3.759,1.189,5.35,0.919
					c0.898-0.154,1.752-0.337,2.631-0.585c1.834-0.518,1.79-1.023,2.11,1.003c0.259,1.629,6.09,0.303,5.796-1.554
					c-0.387-2.438-1.834-3.172-4.22-2.933c-1.173,0.118-2.26,0.402-3.382,0.765c-3.363,1.082-4.414-1.328-5.789-3.636
					c-4.648-7.799-15.32-4.161-21.594-9.403c-8.496-7.099-29.313-12.933-37.205-1.666c-1.169,1.67,3.143,6.485,4.225,7.72
					c2.23,2.542,5.242,4.296,8.228,5.801c6.998,3.528,14.899,4.771,21.872,8.401c7.562,3.939,16.13,8.027,24.888,6.156
					c5.431-1.16,13.071-5.66,13.456-11.805C350.002,340.189,344.218,341.432,344.115,343.072L344.115,343.072z"/>
			</g>
		</g>
		<g>
			<g>
				<path fill="#7F2D61" d="M284.534,346.195c-0.923,2.253-2.107,4.953-4.925,4.969c-1.827,0.011-3.692-0.492-5.455-0.928
					c-4.604-1.141-9.278-2.193-13.704-3.893c-4.336-1.664-8.673-2.882-13.06-4.351c-1.488-0.498-3.428-1.148-4.283-2.572
					c-1.391-2.313,1.838-2.239-2.196-2.045c0.896-0.043,1.907,0.313,2.761,0.554c7.396,2.068,13.559,6.941,21.612,5.941
					c3.754-0.467,7.416-1.521,11.137-2.18c2.099-0.371,4.263-0.473,6.289,0.274c1.088,0.401,4.42,3.313,2.981,4.743
					c1.504-0.461,3.007-0.922,4.509-1.384c-0.189-0.034-0.38-0.069-0.569-0.104c-1.279-0.357-6.342,1.723-4.786,2.156
					c2.354,0.658,5.097-0.225,6.785-1.902c0.19-0.125,0.287-0.296,0.286-0.515c-2.839-10.479-17.936-4.031-25-3.153
					c-8.939,1.108-20.373-12.043-29.107-4.479c-4.345,3.76,4.616,6.788,6.674,7.417c6.899,2.11,13.537,4.802,20.564,6.469
					c8.914,2.114,20.78,4.688,25.189-6.089C290.582,344.286,285.116,344.771,284.534,346.195L284.534,346.195z"/>
			</g>
		</g>
	</g>
	<g>
		<g>
			<g>
				<g>
					<path fill="#C872B9" d="M238.713,224.686c-11.361-2.474-19.247,7.082-24.925,15.474c-2.989,4.42-5.531,9.363-9.199,13.271
						c-3.457,3.682-7.546,6.896-9.689,11.594c-1.666,3.654,0.456,7.259,4.16,8.281c4.882,1.346,9.629-2.008,12.92-5.248
						c4.385-4.315,7.682-9.467,11.385-14.345c2.587-3.407,5.256-6.744,7.673-10.278c1.209-1.769,2.326-3.604,3.962-5.023
						c1.326-1.15,3.6-1.527,5.154-2.358c1.228-0.655,2.117-1.676,1.91-3.127c-0.303-2.11-1.066-3.907-0.82-6.087
						c0.425-3.737-6.719-2.872-7.096,0.459c-0.303,2.657,0.559,4.9,0.931,7.499c0.637-1.042,1.272-2.084,1.91-3.127
						c-1.735,0.927-3.931,1.111-5.495,2.363c-1.764,1.411-3.23,2.813-4.611,4.608c-3.984,5.188-7.789,10.584-11.688,15.846
						c-2.403,3.244-4.661,6.527-7.366,9.539c-1.413,1.572-3.018,3.014-4.893,4.005c-2.578,1.364-0.742-3.263-0.365-3.835
						c1.952-2.957,4.785-5.373,7.277-7.857c2.791-2.779,4.825-6.205,6.951-9.497c4.129-6.396,10.334-18.851,19.561-16.842
						C239.941,230.78,243.337,225.691,238.713,224.686L238.713,224.686z"/>
				</g>
			</g>
			<g>
				<g>
					<path fill="#C872B9" d="M222.772,253.527c3.673-0.004,7.33-0.354,11-0.475c2.191-0.072,4.554,0.27,6.617-0.673
						c4.531-2.063,4.135-7.569,3.823-11.815c-0.245-3.346-1.694-6.459-2.454-9.692c-0.877-3.738-0.939-7.69-1.357-11.495
						c-0.428-3.889-1.736-7.54-2.534-11.349c-0.688-3.279,0.108-6.197-1.584-9.187c0.038,0.609,0.075,1.22,0.112,1.829
						c1.806-2.656,6.886-4.972,10.088-4.287c1.822,0.39,1.982,4.379,2.211,5.771c0.483,2.946,0.974,5.646,2.277,8.357
						c1.148,2.392,2.684,4.426,2.766,7.188c0.095,3.088-1.348,6.158-2.494,8.939c-1.86,4.508-3.432,8.967-2.315,13.87
						c0.538,2.369,1.777,4.604,2.833,6.771c1.12,2.3,1.698,4.748,2.936,7.022c0.992,1.828,3.175,1.998,0.777,4.038
						c-1.638,1.396-3.882,2.194-5.906,2.83c-5.115,1.604-10.709-2.461-16.059-2.199c-6.349,0.312-12.79,2.391-19.202,1.605
						c0.552,1.115,1.104,2.23,1.654,3.348c3.072-4.271,6.311-8.412,9.578-12.535c2.729-3.441-3.933-4.209-5.793-1.861
						c-3.268,4.123-6.506,8.264-9.578,12.535c-1.196,1.666-0.334,3.104,1.655,3.349c3.728,0.457,7.331-0.162,11.05-0.443
						c4.603-0.348,10.002-1.853,14.387-0.282c6.08,2.176,11.296,1.97,17.224-0.324c3.805-1.471,9.437-4.584,9.235-9.334
						c-0.053-1.26-0.924-1.989-1.784-2.836c-1.535-1.506-2.025-3.489-2.582-5.496c-1.183-4.264-4.013-7.12-3.742-11.881
						c0.375-6.631,6.631-12.889,5.106-19.775c-0.721-3.262-2.713-5.877-3.851-8.981c-1.325-3.619-1.032-7.583-2.611-11.137
						c-4.07-9.162-20.896-0.211-24.499,5.093c-0.407,0.599-0.203,1.271,0.113,1.829c1.141,2.016,0.729,5.76,1.012,8.057
						c0.34,2.737,1.437,5.418,2.035,8.108c1.194,5.365,0.967,10.936,2.228,16.307c1.133,4.83,3.362,9.586,1.643,14.666
						c1.42-0.692,1.494-0.95,0.223-0.773c-1.367,0.01-2.729,0.012-4.096,0.057c-3.154,0.104-6.287,0.42-9.445,0.424
						C219.575,248.689,218.019,253.532,222.772,253.527L222.772,253.527z"/>
				</g>
			</g>
			<g>
				<g>
					<path fill="#C872B9" d="M273.354,258.193c2.465-2.521,7.627-2.188,10.838-3.325c2.951-1.048,5.096-3.038,7.01-5.461
						c3.293-4.171,7.351-11.459,4.201-16.656c-4.439-7.328-14.67,2.507-19.368,3.289c-1.067,0.178-3.505-0.024-3.536-0.001
						c1.212-0.91,2.879-1.547,4.314-2.005c3.524-1.124,6.313-0.49,9.515-2.896c4.135-3.106,7.628-7.92,11.176-11.686
						c2.707-2.875,5.434-5.636,8.226-8.422c1.156-1.153,3.346-3.646,1.646-5.233c-2.313-2.157-6.447-0.62-9.013,0.141
						c-9.982,2.964-18.354,8.951-26.789,14.786c-4.738,3.278-14.242,6.837-10.739,14.289c0.195-0.629,0.395-1.257,0.591-1.886
						c-3.522,3.743-6.292,8.327-0.483,11.556c2.437,1.354,5.408,1.5,8.088,2.014c4.119,0.787,7.846-0.51,11.846-0.188
						c-0.352-1.312-0.703-2.623-1.055-3.934c-6.549,4.063-16.506,3.048-21.293,10.054c-1.937,2.834-1.563,7.068,2.221,8.333
						c4.039,1.352,7.738-0.244,11.383-2.048c4.292-2.124,0.432-5.608-3.033-3.896c-0.863,0.442-1.738,0.858-2.625,1.25
						c-1.486-2.129-1.272-3.513,0.642-4.146c1.993-1.104,4.295-1.658,6.469-2.283c3.789-1.089,7.446-2.184,10.817-4.275
						c2.08-1.289,1.238-3.748-1.055-3.934c-3.988-0.32-7.794,0.616-11.844,0.188c-1.58-0.166-3.289-0.519-4.814-0.967
						c-4.119-1.209-1.102-4.08,0.541-5.824c0.389-0.411,0.873-1.287,0.592-1.885c-1.809-3.848,1.691-5.517,4.646-7.229
						c2.965-1.719,5.643-3.682,8.434-5.667c3.877-2.76,8.015-5.104,12.293-7.179c2.07-1.004,4.209-1.846,6.392-2.573
						c0.914-0.29,1.838-0.546,2.771-0.769c-3.226,0.83-0.009-3.188-2.428-0.592c-5.01,5.379-10.295,10.545-15.333,15.915
						c-1.313,1.397-2.646,3.672-4.712,3.756c-1.473,0.06-2.858,0.323-4.288,0.675c-2.716,0.666-5.324,2.104-7.675,3.57
						c-4.731,2.95-2.979,6.973,2.028,7.729c7.085,1.066,11.66-2.318,17.792-5.233c2.766-1.313,1.258,4.999,0.94,5.91
						c-0.974,2.793-2.631,5.376-4.557,7.597c-1.994,2.301-5.354,2.334-8.154,2.897c-3.236,0.649-6.104,1.98-8.418,4.346
						C264.506,259.408,271.275,260.316,273.354,258.193L273.354,258.193z"/>
				</g>
			</g>
			<g>
				<g>
					<path fill="#C872B9" d="M227.666,203.646c-6.899,6.162-13.762,12.365-20.505,18.699c-3.651,3.431-7.357,7.308-12.031,9.333
						c-2.135,0.926-5.014,0.297-7.291,0.615c-2.115,0.297-4.17,0.723-6.244,1.225c-4.363,1.057-9.313,4.767-12.967,0.688
						c-2.716-3.031-2.75-7.391-2.893-11.181c-0.107-2.849-0.881-6.128-3.895-7.244c-1.77-0.655-4.139-0.805-5.77-1.696
						c0.758-0.603,1.595-0.744,2.512-0.425c0.914,0.092,1.824,0.206,2.732,0.34c4.176,0.567,7.973,1.998,10.678,5.317
						c1.805,2.213,2.56,5.147,4.273,7.435c3.43,4.582,9.18,4.397,14.143,2.437c7.152-2.828,13.196-7.757,18.896-12.814
						c2.203-1.954,16.515-19.537,17.813-11.354c0.296,1.867,7.327,0.28,6.985-1.871c-1.166-7.35-11.65-3.117-15.688-1.059
						c-3.746,1.91-6.676,4.929-9.449,8.022c-4.139,4.617-8.438,8.684-13.4,12.41c-4.404,3.308-9.377,6.95-13.094,1.155
						c-2.221-3.461-3.328-7.021-6.742-9.589c-5.779-4.348-17.535-5.543-24.008-2.214c-2.043,1.05-4.276,2.609-2.19,4.749
						c1.226,1.258,3.884,1.354,5.441,1.72c3.721,0.877,3.716,4.954,3.829,7.969c0.167,4.412,1.167,8.067,4.152,11.399
						c2.909,3.247,7.662,2.417,11.34,1.388c2.742-0.767,5.285-2.065,8.041-2.818c3.17-0.866,6.2-0.532,9.375-0.963
						c4.698-0.635,8.732-2.492,12.628-5.145c4.794-3.262,8.879-7.744,13.108-11.674c5.17-4.804,10.419-9.522,15.683-14.225
						C235.977,201.733,229.041,202.418,227.666,203.646L227.666,203.646z"/>
				</g>
			</g>
			<g>
				<g>
					<path fill="#C872B9" d="M335.691,267.282c4.641-2.861,11.148-4.165,12.981-9.99c1.128-3.584-0.655-8.06-1.851-11.373
						c-1.807-5.007-4.722-9.606-7.528-14.096c-3.54-5.657-6.968-13.076-13.97-14.891c-4.229-1.096-8.572,0.338-12.866-0.673
						c-4.683-1.103-9.061-1.952-13.786-2.725c-1.566-0.255-4.934,0.512-5.689,2.115c-0.957,2.029-1.996,4.016-2.953,6.045
						c-0.105,0.267-0.047,0.487,0.179,0.664c3.01,1.918,6.528,0.412,9.554,2.278c3.333,2.058,3.426,6.058,4.429,9.481
						c0.876,2.994,2.35,5.631,4.559,7.822c2.766,2.744,6.946,2.742,9.267,6.152c3.717,5.463,4.414,12.32,7.632,17.959
						c2.501,4.383,8.633,1.588,11.488-0.824c1.292-1.092-1.118-1.405-1.71-1.373c-1.669,0.093-3.377,0.646-4.659,1.729
						c2.765-2.333,3.208,0.95,1.409-2.203c-0.664-1.164-1.048-2.523-1.475-3.786c-0.949-2.813-1.875-5.585-3.168-8.267
						c-1.189-2.469-2.236-5.038-4.062-7.107c-1.778-2.018-4.98-2.617-7.188-3.976c-2.797-1.722-4.116-5.039-5.108-7.998
						c-0.813-2.431-0.805-5.69-2.413-7.762c-1.384-1.781-3.461-3.429-5.764-3.767c-1.15-0.169-2.252-0.235-3.413-0.232
						c-3.875,0.009-0.277-4.729,0.313-5.977c-1.897,0.705-3.795,1.41-5.69,2.115c3.807,0.621,7.393,1.015,11.137,2.12
						c3.466,1.022,6.866,1.441,10.468,1.159c8.95-0.701,12.327,7.167,16.498,13.791c4.259,6.762,8.23,13.705,9.555,21.688
						c1.163,7.017-6.981,8.619-11.583,11.457c-1.198,0.738-0.826,1.659,0.473,1.765
						C332.457,268.745,334.256,268.168,335.691,267.282L335.691,267.282z"/>
				</g>
			</g>
			<g>
				<g>
					<path fill="#C872B9" d="M304.099,270.579c1.555,5.989,0.188,11.848-2.719,17.201c-2.652,4.886-6.101,6.013-11.229,6.273
						c-4.653,0.238-8.756,1.128-13.026,3.017c-6.108,2.697-12.49,3.58-18.906,5.337c-6.823,1.868-12.925,2.911-20,1.672
						c-4.585-0.804-12.77-2.288-14.66-7.3c-2.001-5.307,5.042-13.295,8.831-15.938c3.033-2.116,6.612,3.206,8.247,4.888
						c2.483,2.559,5.236,4.854,7.985,7.119c3.04,2.504,6.39,6.035,10.255,7.166c3.914,1.146,8.106-2.441,10.894-4.524
						c4.263-3.188,7.463-5.043,12.612-6.043c3.625-0.703,6.818-1.882,9.728-4.189c2.451-1.946,4.871-6.483,4.461-9.649
						c-0.465-3.582-3.141-4.604-5.948-6.254c-0.624-0.357-1.218-0.758-1.784-1.201c-0.842-0.652-1.716-0.029,0.873,0.082
						c2.191,0.096,4.155-0.237,6.252-0.848c2.486-0.727,5.111-2.433,6.721,0.551c0.47,0.869,0.497,1.89,1.032,2.719
						c1.224,1.894,0.331,0.32,0.397,0.232c-1.939,2.598,5.124,2.088,6.522,0.215c1.561-2.09-1.11-6.086-2.877-7.64
						c-3.376-2.97-9.178-0.921-12.77,0.292c-4.063,1.373-10.599-0.916-13.539,3.538c-1.949,2.953,3.356,5.458,5.327,6.397
						c6.589,3.144,0.404,11.005-4.49,11.955c-5.301,1.027-9.313,2.246-13.786,5.392c-2.187,1.537-5.271,5.392-7.909,3.403
						c-2.811-2.114-5.531-4.367-8.218-6.637c-4.554-3.844-8.235-9.91-14.253-11.408c-10.105-2.514-20.503,10.367-21.669,19.131
						c-1.533,11.524,20.002,13.303,27.432,13.391c6.304,0.074,12.649-2.188,18.661-3.787c3.301-0.877,6.688-1.32,10.012-2.098
						c3.827-0.896,7.149-3.157,10.875-4.35c4.521-1.444,9.518-0.403,14.108-1.916c5.122-1.687,8.646-5.608,11.163-10.246
						c2.928-5.395,3.924-11.869,2.382-17.813C310.429,266.18,303.439,268.036,304.099,270.579L304.099,270.579z"/>
				</g>
			</g>
			<g>
				<g>
					<path fill="#C872B9" d="M272.458,284.58c-6.336-10.512,4.146-19.943,8.317-29.137c0.394-0.866,0.188-1.924-0.657-2.451
						c-4.699-2.928-11.941,0.947-16.252,3.055c-7.214,3.523-9.232,10.294-9.233,17.857c-0.001,7.065,1.924,12,7.661,16.306
						c4.801,3.603,10.926,2.293,11.095-4.366c0.094-3.697-7.002-2.686-7.082,0.514c-0.511,2.023,0.395,2.261,2.715,0.709
						c-0.465-0.286-0.916-0.594-1.353-0.924c-1.485-1.069-2.771-2.384-3.91-3.811c-2.51-3.143-2.103-7.707-2.014-11.466
						c0.103-4.277,1.205-8.546,5.231-10.634c1.346-0.696,2.748-1.282,4.149-1.855c0.786-0.305,1.585-0.572,2.396-0.803
						c0.98-0.301,2.231,0.117,1.221-0.514c-0.219-0.817-0.438-1.636-0.657-2.453c-1.386,3.057-3.616,5.652-5.245,8.591
						c-1.705,3.073-3.172,6.386-4.518,9.629c-2.219,5.346-1.137,10.069,1.744,14.849
						C267.718,290.415,274.368,287.751,272.458,284.58L272.458,284.58z"/>
				</g>
			</g>
			<g>
				<g>
					<path fill="#C872B9" d="M195.249,291.792c-2.586-7.339,0.875-15.25-2.748-22.411c-3.127-6.18-8.287-12.064-14.98-14.279
						c-6.117-2.023-14.354-2.119-20.758-1.531c-4.111,0.379-10.674,3.299-6.912,8.189c1.444,1.877,4.471,2.801,6.566,3.617
						c3.289,1.284,5.299,3.807,7.473,6.482c2.291,2.824,4.949,4.604,8.051,6.422c4.111,2.406,5.187,6.09,6.711,10.326
						c1.664,4.623,5.561,11.1,11.42,10.338c2.01-0.26,4.791-1.146,5.405-3.402c0.703-2.576,0.053-4.629-2.63-5.293
						c-2.158-0.533-8.23,2.747-4.299,3.721c0.4,0.982,0.241,1.946-0.479,2.891c0.931-0.551,1.861-1.1,2.791-1.647
						c0.904-0.188-2.425-3.062-3.045-3.878c-1.555-2.052-2.301-4.907-3.138-7.305c-1.474-4.221-3.352-6.721-7.163-9.076
						c-4.547-2.813-7.15-6.316-10.832-10.044c-2.691-2.726-6.612-3.103-9.66-5.241c-1.959-1.375-1.463-2.331,0.598-2.218
						c2.5,0.138,5.01,0.122,7.512,0.19c6.531,0.179,11.082,2.014,15.496,6.752c3.553,3.812,6.248,8.275,6.744,13.504
						c0.506,5.328-0.936,10.58,0.892,15.766C189.107,296.061,196.037,294.027,195.249,291.792L195.249,291.792z"/>
				</g>
			</g>
			<g>
				<g>
					<path fill="#C872B9" d="M268.063,300.723c-2.412,4.135-4.523,8.943-7.726,12.534c-1.519,1.702-4.696,2.058-6.735,2.679
						c-2.859,0.871-5.689,1.813-8.574,2.597c-9.815,2.668-19.843-1.546-29.84-0.204c-6.07,0.814-12.502,1.486-17.916,4.581
						c-3.445,1.971-9.059,10.044-2.073,11.725c7.658,1.843,14.333-4.073,22.087-2.36c4.637,1.024,9.1,1.886,13.867,1.847
						c5.115-0.043,10.068-2.063,14.796-3.798c18.899-6.934,37.276-19.223,47.78-36.727c1.492-2.484-2.547-2.813-3.918-2.557
						c-7.769,1.453-13.883,6.482-20.9,9.752c-4.355,2.027-0.447,5.426,3.012,3.814c6.385-2.975,12.047-7.777,19.088-9.095
						c-1.306-0.853-2.611-1.704-3.918-2.557c-9.771,16.282-26.768,26.909-44.156,33.552c-4.879,1.863-9.512,3.117-14.771,2.592
						c-4.313-0.431-8.379-1.939-12.725-2.146c-3.446-0.163-6.818,0.704-10.039,1.831c-1.587,0.556-7.604,3.138-6.168-0.691
						c1.543-4.115,10.941-4.4,14.519-4.857c7.899-1.014,15.155,1.262,23.006,1.104c8.328-0.165,17.126-3.104,24.815-6.157
						c6.69-2.656,9.795-11.103,13.127-16.817C276.605,298.089,269.503,298.246,268.063,300.723L268.063,300.723z"/>
				</g>
			</g>
		</g>
		<g>
			<g>
				<g>
					<path fill="#C872B9" d="M202.34,196.275c11.525,1.623,18.97-7.729,24.403-16.502c3.002-4.845,5.405-10.287,9.213-14.57
						c3.101-3.486,7.542-7.24,8.823-11.914c0.979-3.566-1.467-7.064-5.372-7.055c-5.392,0.014-9.315,2.977-12.851,6.813
						c-4.445,4.827-7.664,10.779-11.396,16.136c-2.391,3.43-4.748,6.858-6.92,10.43c-2.309,3.795-4.77,4.5-8.298,6.639
						c-0.77,0.467-1.429,1.37-1.236,2.305c0.422,2.061,1.364,3.863,1.233,6.025c-0.201,3.349,6.871,2.15,7.041-0.671
						c0.158-2.63-0.77-4.692-1.289-7.226c-0.412,0.768-0.824,1.536-1.236,2.305c1.737-1.053,3.744-1.33,5.301-2.711
						c1.674-1.484,2.995-2.994,4.268-4.824c3.746-5.387,7.3-10.971,10.957-16.426c2.361-3.521,4.543-7.066,7.325-10.289
						c0.729-0.848,3.299-4.113,4.598-3.86c2.426,0.473,0.402,3.958-0.192,4.959c-1.849,3.111-4.724,5.671-7.112,8.36
						c-2.509,2.821-4.313,6.258-6.199,9.503c-3.765,6.476-9.375,19.233-18.521,17.946
						C201.739,191.206,197.636,195.613,202.34,196.275L202.34,196.275z"/>
				</g>
			</g>
			<g>
				<g>
					<path fill="#C872B9" d="M218.293,167.736c-4.23,0.302-8.407,1.057-12.635,1.358c-2.597,0.187-4.962,0.374-7.302,1.606
						c-5.855,3.085-1.28,14.099,0.313,18.338c1.508,4.015,1.756,8.536,2.471,12.733c0.824,4.841,3.074,9.222,3.684,14.108
						c0.188,1.508-0.031,3.298,0.855,4.629c0.809,1.213-2.533,3.018-3.4,3.538c-4.275,2.565-6.896,2.062-8.232-2.811
						c-0.949-3.464-1.354-6.804-3.334-9.901c-3.166-4.956-3.422-8.492-1.621-14.068c1.325-4.104,2.811-7.803,2.866-12.173
						c0.058-4.491-3.603-8.075-5.001-12.097c-0.921-2.645-5.314-5.846-3.598-8.338c2.736-3.975,8.674-4.605,12.82-3.727
						c4.395,0.932,7.52,1.373,11.994,0.428c5.283-1.117,11.402-2.67,16.835-2.41c-0.607-0.598-1.216-1.195-1.823-1.793
						c-2.877,4.428-5.924,8.73-9.005,13.018c-1.731,2.41,5.243,1.638,6.453-0.046c3.081-4.286,6.128-8.59,9.006-13.017
						c0.896-1.381-0.763-1.742-1.824-1.793c-4.125-0.197-7.958,1.001-12.042,1.291c-4.748,0.338-8.865,2.418-13.715,1.188
						c-6.328-1.606-11.795-1.117-17.673,1.637c-3.745,1.754-9.186,4.711-8.747,9.535c0.061,0.665,1.396,1.544,1.809,1.889
						c1.668,1.399,2.309,3.393,3,5.381c1.332,3.827,4.093,6.47,4.525,10.727c0.77,7.574-6.025,14.048-3.779,21.827
						c0.873,3.027,3.371,5.537,4.49,8.519c1.191,3.176,0.93,7.065,3.021,9.89c2.569,3.468,8.422,2.137,11.882,1.13
						c4.543-1.321,9.714-3.989,12.257-8.142c0.32-0.524,0.371-0.78,0.03-1.293c-1.437-2.156-1.096-5.534-1.554-8.011
						c-0.494-2.667-1.754-5.231-2.51-7.833c-1.508-5.196-1.579-10.688-3.155-15.886c-1.513-4.992-3.442-8.914-2.601-14.354
						c0.536-1.17,0.117-1.174-1.258-0.01c1.145-0.148,2.309-0.137,3.457-0.255c3.415-0.351,6.809-0.938,10.233-1.183
						c1.582-0.113,3.587-0.492,4.63-1.838C221.1,168.259,219.286,167.666,218.293,167.736L218.293,167.736z"/>
				</g>
			</g>
			<g>
				<g>
					<path fill="#C872B9" d="M165.767,166.045c-2.629,2.966-8.069,3.047-11.637,4.559c-2.691,1.14-4.572,3.454-6.244,5.746
						c-2.903,3.984-6.65,11.651-3.137,16.246c4.768,6.234,14.488-2.215,18.812-4.373c0.937-0.467,3.801,0.059,4.325-0.378
						c-1.326,1.106-2.997,1.83-4.568,2.513c-3.264,1.417-6.189,0.814-9.158,3.295c-4.016,3.354-7.297,8.252-10.697,12.233
						c-2.582,3.022-5.189,5.934-7.86,8.873c-1.222,1.343-3.287,3.771-1.326,5.334c2.184,1.741,6.078,0.179,8.286-0.627
						c10.124-3.693,18.382-10.007,26.813-16.515c4.876-3.764,14.171-7.642,9.963-15.174c-0.115,0.768-0.23,1.537-0.346,2.305
						c3.284-3.81,6.246-9.428-0.597-11.558c-2.487-0.774-5.007-0.89-7.577-1.18c-4.227-0.478-7.92,1.063-11.979,1.028
						c0.326,1.221,0.654,2.442,0.981,3.664c6.251-4.38,16.704-4.22,21.065-11.299c1.741-2.828,1.402-7.01-2.498-7.985
						c-4.53-1.134-8.272,0.856-12.149,3.054c-1.185,0.672-1.866,2.401-0.476,3.239c1.563,0.94,3.543,0.297,4.983-0.52
						c1.854-1.782,2.937-1.14,3.247,1.929c-0.702,0.67-1.482,1.233-2.34,1.689c-1.92,1.072-4.07,1.785-6.136,2.514
						c-3.556,1.252-7.094,2.479-10.205,4.659c-1.823,1.277-1.487,3.644,0.981,3.665c4.058,0.034,7.878-1.158,11.979-1.029
						c1.584,0.051,3.396,0.244,4.952,0.574c3.989,0.848,1.867,3.738,0.021,5.877c-0.65,0.756-0.838,1.423-0.344,2.307
						c2.031,3.638-2.671,5.95-5.184,7.595c-3.107,2.034-5.858,4.446-8.805,6.702c-3.816,2.922-7.904,5.508-12.152,7.752
						c-1.866,0.986-3.805,1.817-5.762,2.603c-2.388,0.249-2.472,0.844-0.252,1.784c0.395-0.489,0.809-0.963,1.241-1.421
						c5.155-5.672,10.167-11.468,15.094-17.351c1.001-1.196,1.771-2.789,3.41-2.97c1.478-0.163,2.883-0.466,4.301-0.909
						c2.704-0.847,5.289-2.314,7.599-3.932c4.715-3.302,2.779-6.523-2.178-7.329c-7.011-1.14-11.987,3.115-17.711,6.245
						c-3.071,1.68-1.752-4.613-1.458-5.712c0.749-2.804,2.379-5.593,4.18-7.844c1.964-2.454,5.069-2.739,7.944-3.513
						c3.162-0.85,6.143-2.212,8.34-4.689C174.376,164.492,167.624,163.951,165.767,166.045L165.767,166.045z"/>
				</g>
			</g>
			<g>
				<g>
					<path fill="#C872B9" d="M215.286,216.188c6.899-6.813,13.752-13.673,20.473-20.664c3.376-3.511,8.062-9.327,13.242-9.839
						c4.013-0.396,7.801-1.039,11.642-2.349c4.125-1.407,8.514-4.946,12.284-1.337c2.935,2.808,3.234,7.109,3.593,10.861
						c0.268,2.809,1.211,5.877,4.258,6.741c1.938,0.551,4.123,0.474,5.975,1.303c-0.389,1.234-1.168,1.654-2.341,1.26
						c-0.929-0.026-1.858-0.072-2.785-0.14c-4.446-0.271-8.771-1.525-11.632-5.112c-1.605-2.016-2.575-4.485-4.278-6.435
						c-3.831-4.384-9.415-3.354-14.345-1.48c-6.866,2.609-12.57,8.061-17.813,13.016c-3.203,3.028-5.74,6.675-8.584,10.024
						c-1.774,2.088-8.34,8.959-9.576,3.384c-0.328-1.479-7.346,0.248-6.986,1.871c1.498,6.751,11.74,2.434,15.493,0.249
						c3.447-2.007,6.215-4.556,8.734-7.655c4-4.919,8.057-9.375,12.854-13.525c2.253-1.948,4.648-3.691,7.195-5.23
						c3.102-1.875,5.092-0.066,6.854,2.281c2.432,3.237,3.759,6.636,7.309,8.891c6.561,4.168,17.469,3.519,24.338,0.644
						c1.998-0.836,4.274-2.541,2.149-4.405c-1.334-1.171-3.957-1.011-5.563-1.263c-3.824-0.599-4.111-4.65-4.4-7.677
						c-0.447-4.69-1.867-8.757-5.814-11.591c-3.221-2.313-8.02-0.707-11.332,0.444c-3.012,1.046-5.75,2.653-8.813,3.603
						c-2.968,0.92-6.078,0.797-9.104,1.413c-4.354,0.886-8.132,3.079-11.627,5.735c-4.969,3.777-9.095,8.828-13.447,13.271
						c-4.706,4.803-9.479,9.541-14.265,14.266C207.513,218.179,214.108,217.351,215.286,216.188L215.286,216.188z"/>
				</g>
			</g>
			<g>
				<g>
					<path fill="#C872B9" d="M102.526,160.258c-4.946,3.419-11.203,5.131-13.087,11.462c-1.087,3.653,1.092,8.286,2.508,11.517
						c1.988,4.535,4.884,8.649,7.771,12.643c4.074,5.636,8.553,13.792,16.054,15.135c4.284,0.767,8.388-0.723,12.676-0.29
						c2.45,0.247,4.898,0.951,7.319,1.414c2.559,0.489,5.072,0.229,7.639,0.454c1.498,0.131,3.918-0.501,4.568-2.067
						c0.856-2.066,1.797-4.094,2.654-6.159c0.336-0.811,0.286-1.748-0.594-2.214c-3.166-1.678-6.771-0.007-9.797-1.559
						c-3.339-1.713-3.647-6.327-4.957-9.515c-1.135-2.763-2.834-4.957-5.094-6.873c-2.574-2.184-6.337-2.01-8.771-4.375
						c-5.66-5.504-8.458-28.488-20.391-17.342c-3.132,2.926,3.704,3.708,5.771,1.777c-1.451,1.355-1.095,0.389-0.077,2.5
						c0.432,0.895,0.781,1.835,1.155,2.754c1.063,2.609,2.182,5.121,3.583,7.57c2.859,4.996,4.94,7.723,10.514,9.496
						c6.821,2.172,6.121,9.333,9.167,14.361c1.191,1.967,3.239,3.682,5.478,4.364c2.346,0.715,6.013-0.372,7.981,0.67
						c-0.198-0.738-0.396-1.476-0.594-2.214c-0.857,2.065-1.798,4.094-2.654,6.159c1.521-0.688,3.045-1.378,4.567-2.067
						c-3.849-0.336-7.397-0.385-11.22-1.199c-3.102-0.661-6.123-0.949-9.291-0.778c-3.631,0.195-6.165,1.27-9.45-0.947
						c-2.931-1.978-5.069-5.559-7.112-8.356c-4.857-6.65-9.79-13.148-12.068-21.193c-2.084-7.355,5.512-8.98,10.293-12.284
						C110.976,160.399,105.155,158.441,102.526,160.258L102.526,160.258z"/>
				</g>
			</g>
			<g>
				<g>
					<path fill="#C872B9" d="M133.851,156.393c-3.072-9.332,0.908-23.137,11.725-24.516c4.377-0.559,8.429-1.268,12.467-3.131
						c2.895-1.335,5.486-3.074,8.572-4.006c3.084-0.932,6.227-1.563,9.291-2.584c6.939-2.316,13.356-4.629,20.802-4.174
						c5.046,0.309,14.765,1.08,17.205,6.425c2.308,5.056-3.821,12.737-7.109,15.927c-2.533,2.457-4.558,1.154-6.847-0.911
						c-2.658-2.399-5.362-4.663-8.244-6.794c-3.813-2.821-7.838-5.857-12.094-7.979c-3.225-1.607-7.375,0.858-9.925,2.6
						c-4.304,2.94-7.39,7.127-12.604,8.513c-3.488,0.927-7.16,1.684-10.162,3.814c-3.207,2.276-4.848,5.347-5.686,9.146
						c-0.853,3.869,2.386,5.816,5.438,6.986c1.015,0.389,4.916,1.98,2.025,2.063c-2.017,0.058-3.921,0.332-5.826,1.017
						c-1.855,0.667-4.639,2.671-6.558,1.234c-0.796-0.595-2.282-4.591-2.597-4.085c1.577-2.533-5.371-1.62-6.439,0.096
						c-0.146,0.234-0.293,0.471-0.439,0.705c-0.209,0.336-0.531,0.939-0.041,1.256c1.234,0.799,1.916,3.426,2.995,4.635
						c0.97,1.086,2.781,1.452,4.147,1.51c2.059,0.086,4.129-0.217,6.082-0.88c3.506-1.192,6.436-1.833,10.11-2.245
						c2.13-0.24,7.954-1.936,6.997-5.066c-1.236-4.047-8.066-2.623-8.974-7.377c-0.556-2.908,2.085-7.123,4.646-8.331
						c1.889-0.892,4.104-1.202,6.111-1.735c5.487-1.459,9.435-4.77,13.748-8.328c1.021-0.842,1.918-2.111,2.694-1.614
						c1.358,0.868,2.698,1.761,4.04,2.657c2.939,1.963,5.82,4,8.625,6.152c4.304,3.302,7.709,8.18,13.634,8.096
						c9.45-0.136,19.564-11.009,19.499-20.372c-0.035-5.182-4.244-7.071-8.652-8.396c-6.414-1.93-13.846-3.113-20.539-2.152
						c-6.756,0.971-13.016,3.382-19.484,5.442c-3.04,0.968-6.236,1.416-9.23,2.537c-4.081,1.528-7.764,4.476-12.06,5.339
						c-9.194,1.851-17.673,2.164-22.333,11.806c-2.826,5.849-4.065,12.309-1.994,18.597
						C127.579,160.433,134.521,158.426,133.851,156.393L133.851,156.393z"/>
				</g>
			</g>
			<g>
				<g>
					<path fill="#C872B9" d="M165.046,139.902c7.117,10.066-2.973,19.949-6.684,29.286c-0.329,0.831-0.264,1.886,0.635,2.365
						c4.801,2.563,11.297-1.224,15.512-3.501c7.334-3.964,9.627-10.251,9.193-18.361c-0.377-7.037-2.475-11.786-8.537-15.625
						c-4.83-3.059-11.246-2.091-11.045,4.658c0.107,3.626,7.161,2.494,7.07-0.559c0.406-1.982-0.554-2.288-2.882-0.918
						c0.509,0.226,0.995,0.492,1.458,0.799c1.548,0.938,2.979,2.127,4.208,3.448c2.776,2.979,2.668,7.668,2.763,11.456
						c0.115,4.594-1.145,8.729-5.296,11.08c-1.292,0.732-2.634,1.371-3.979,1.994c-0.706,0.321-1.424,0.615-2.153,0.879
						c-0.979,0.35-2.12,0.024-0.913,0.668c0.211,0.789,0.422,1.576,0.633,2.365c4.368-10.994,14.693-21.385,6.42-33.086
						C169.653,134.313,162.983,136.986,165.046,139.902L165.046,139.902z"/>
				</g>
			</g>
			<g>
				<g>
					<path fill="#C872B9" d="M242.843,127.297c3.027,7.049-0.047,15.063,4.021,21.857c3.524,5.889,9.077,11.046,15.812,12.709
						c6.225,1.537,14.659,0.902,20.977-0.112c2.389-0.384,11.111-2.817,7.459-6.888c-1.674-1.863-4.1-2.582-6.422-3.317
						c-3.328-1.055-5.521-2.7-7.943-5.228c-2.752-2.869-5.409-4.762-8.987-6.492c-4.05-1.959-5.655-4.83-7.354-8.816
						c-1.986-4.665-5.562-10.909-11.572-10.359c-1.666,0.152-4.703,0.676-5.719,2.195c-1.314,1.97-1.313,4.91,1.454,5.375
						c1.599,0.27,3.437-0.246,4.878-0.912c0.479-0.221,2.474-1.473,0.877-1.74c-2.007-0.338-0.911-3.105-0.326-3.981
						c-1.056,0.552-2.11,1.104-3.166,1.657c-2,0.029-1.963,0.338,0.112,0.924c0.945,0.475,1.714,1.201,2.492,1.895
						c1.918,1.707,2.98,4.526,3.984,6.818c2.178,4.98,4.021,7.493,8.973,9.888c4.447,2.151,7.127,5.631,10.779,8.794
						c2.84,2.461,6.893,2.598,10.067,4.468c1.116,0.658,2.692,3.19,0.597,3.225c-2.208,0.036-4.416,0.185-6.62,0.3
						c-7.204,0.381-12.62-0.803-17.966-5.717c-3.825-3.516-6.848-7.789-7.646-12.961c-0.805-5.197,0.361-10.479-1.773-15.453
						C249.124,123.785,242.333,126.111,242.843,127.297L242.843,127.297z"/>
				</g>
			</g>
			<g>
				<g>
					<path fill="#C872B9" d="M168.524,123.904c2.22-4.26,4.199-8.793,6.92-12.761c1.332-1.94,3.803-2.593,5.895-3.331
						c2.887-1.018,5.719-2.193,8.596-3.242c10.141-3.692,20.836-0.036,31.244-2.279c6.156-1.328,12.355-2.414,17.871-5.641
						c3.216-1.88,8.543-9.682,1.688-10.788c-7.872-1.271-14.315,5.027-22.226,3.897c-4.73-0.676-9.292-1.188-14.072-0.813
						c-5.085,0.398-9.937,2.566-14.554,4.568c-18.604,8.07-36.911,21.115-46.688,39.287c-1.21,2.25,2.494,2.053,3.701,1.746
						c8.086-2.06,14.209-7.531,21.42-11.4c0.957-0.513,2.111-1.979,0.631-2.658c-1.547-0.711-3.545-0.078-4.941,0.672
						c-5.998,3.218-11.326,8.287-18.02,9.992c1.234,0.582,2.467,1.164,3.701,1.746c8.876-16.5,24.737-28.193,41.461-35.949
						c4.662-2.162,9.336-4.221,14.551-4.34c4.887-0.111,9.632,1.365,14.529,1.245c3.543-0.087,7.017-1.147,10.268-2.488
						c1.91-0.788,7.037-3.667,6.446,0.492c-0.655,4.614-10.116,5.731-13.63,6.429c-7.818,1.554-15.231,0.488-23.127,0.628
						c-8.541,0.151-18.045,4.196-25.665,7.753c-6.77,3.16-9.256,10.932-12.489,17.137
						C160.513,126.727,167.498,125.874,168.524,123.904L168.524,123.904z"/>
				</g>
			</g>
		</g>
		<g>
			<g>
				<g>
					<path fill="#C872B9" d="M229.639,330.699c-7.061-8.279-5.646-21.354-7.189-31.475c-0.572-3.738-2.145-9.886-5.871-11.832
						c-4.021-2.103-8.5-1.226-12.411,0.737c-2.635,1.323-6.878,4.704-6.058,8.208c0.569,2.436,2.456,3.37,4.311,4.86
						c2.234,1.796,2.264,6.807,2.729,9.375c2.16,11.924,6.637,22.399,16.879,29.519c1.77,1.23,4.917-0.076,6.031-1.615
						c2.238-3.092,2.961-7.096,0.2-10.105c-1.823-1.987-8.488,0.641-6.454,2.857c1.973,2.149,1.266,4.687-0.313,6.867
						c2.01-0.539,4.021-1.078,6.031-1.617c-7.587-5.273-12.582-13.65-14.504-22.621c-0.91-4.24-1.204-8.648-2.447-12.809
						c-0.461-1.542-1.54-2.58-2.746-3.55c-2.943-2.366-3.537-4.666,0.425-6.654c7.116-3.571,8.181,18.687,8.46,21.771
						c0.664,7.313,1.531,15.145,6.473,20.94C224.927,335.602,231.618,333.021,229.639,330.699L229.639,330.699z"/>
				</g>
			</g>
			<g>
				<g>
					<path fill="#C872B9" d="M143.454,265.818c-8.059-4.629-4.44-15.881-3.53-23.17c0.87-6.963-0.376-13.762-2.801-20.299
						c-2.013-5.428-5.689-9.627-11.587-10.495c-4.188-0.616-11.314,0.806-12.91,5.449c-1.936,5.637,2.336,9.567,3.787,14.592
						c1.023,3.549-0.153,7.764-0.216,11.41c-0.065,3.836,0.881,7.67,2.076,11.282c2.84,8.581,14.886,22.563,24.778,14.614
						c0.285-0.229,0.982-0.93,0.721-1.4c-0.553-0.999-0.757-1.369-1.545-2.169c-1.609-1.634-8.204,0.933-6.51,2.652
						c0.357,0.463,0.713,0.926,1.069,1.388c0.24-0.467,0.48-0.934,0.722-1.4c1.434-0.572,1.449-0.993,0.049-1.262
						c-1.108-0.496-2.152-1.212-3.17-1.863c-1.925-1.229-3.438-2.539-4.893-4.309c-3.738-4.549-5.453-10.882-6.156-16.609
						c-0.708-5.77,1.463-11.308-0.887-16.854c-1.485-3.506-4.916-7.213-2.709-11.302c1.188-2.197,5.295,0.723,6.344,1.622
						c1.962,1.686,3.083,4.192,4.051,6.527c2.134,5.15,3.291,11.044,3.07,16.604c-0.375,9.507-5.838,22.196,4.645,28.218
						C139.682,270.095,146.163,267.376,143.454,265.818L143.454,265.818z"/>
				</g>
			</g>
			<g>
				<g>
					<path fill="#C872B9" d="M299.266,319.614c3.896-5.56,13.057-3.736,19.064-5.23c5.974-1.483,10.688-4.077,13.599-9.674
						c3.107-5.978,3.356-14.042-0.271-19.759c-2.722-4.289-2.426-9.729-8.726-8.553c-4.935,0.922-10.5,3.354-12.545,8.274
						c-1.026,2.474-0.003,5.3,0.752,7.67c1.438,4.521-1.538,9.058-5.627,11.101c-5.02,2.509-9.434,3.244-12.683,8.158
						c-2.355,3.565-4.793,7.7-4.229,11.991c0.17,1.302,4.94-0.379,5.475-0.593c2.635-1.057,4.455-2.561,6.074-4.902
						c0.348-0.502-5.736-0.338-6.871,1.303c-0.674,1.437-1.73,2.408-3.166,2.914c1.824-0.196,3.647-0.396,5.474-0.592
						c-0.466-3.557,1.294-6.572,3.05-9.677c0.852-1.506,1.795-3.132,3.019-4.372c2.099-2.128,6.347-2.809,9.034-4.15
						c4.125-2.063,8.1-6.311,7.86-11.159c-0.095-1.939-1.123-3.868-1.484-5.775c-0.272-1.438,0.051-2.871,0.601-4.192
						c0.41-0.987,2.793-4.127,3.632-2.85c1.21,1.844,1.592,4.264,2.627,6.223c1.506,2.849,2.871,4.845,3.276,8.164
						c0.751,6.154-1.578,15.764-8.031,18.217c-4.744,1.804-10.584,0.914-15.55,2.107c-4.446,1.068-8.533,2.821-11.224,6.659
						C292.052,321.407,298.119,321.25,299.266,319.614L299.266,319.614z"/>
				</g>
			</g>
			<g>
				<g>
					<path fill="#C872B9" d="M216.589,323.623c-2.394-2.219-3.588-5.217-5.233-7.979c-1.628-2.732-4.345-4.648-6.951-6.354
						c-3.179-2.081-6.386-3.664-8.983-6.524c-2.111-2.324-3.982-5.029-7.109-6.065c-4.805-1.593-9.807-0.683-13.473,2.909
						c-3.156,3.095-3.592,10.787,0.854,13.037c2.042,1.035,4.165,1.34,6.408,1.668c3.454,0.504,6.326,2.438,8.897,4.688
						c2.832,2.477,6.068,4.479,8.82,7.018c1.562,1.439,2.366,4.34,3.49,6.159c2.452,3.97,7.294,3.935,10.755,1.271
						c4.764-3.663,0.577-8.871-0.415-13.255c-0.593-2.62-7.595-0.819-6.985,1.871c0.305,1.346,0.85,2.569,1.393,3.834
						c0.321,0.736,0.607,1.488,0.857,2.252c0.1,0.377,0.199,0.752,0.298,1.127c-0.457,1.627,0.106,2.134,1.691,1.521
						c-2.025-1.763-2.88-4.859-4.255-7.115c-0.727-1.191-2.15-2.107-3.278-2.883c-2.456-1.688-4.677-3.541-6.917-5.501
						c-2.877-2.517-6.365-4.313-10.131-4.995c-4.579-0.828-7.366-1.808-6.666-7.313c0.991-7.796,9.559,2.967,11.324,4.671
						c3.172,3.063,7.621,4.613,11.014,7.428c3.707,3.072,4.644,8.114,8.13,11.344C212.045,328.217,218.632,325.516,216.589,323.623
						L216.589,323.623z"/>
				</g>
			</g>
			<g>
				<g>
					<path fill="#C872B9" d="M167.9,253.563c-5.704-7.084-6.412-16.844-12.251-23.896c-2.246-2.714-5.686-6.319-9.535-6.298
						c-4.441,0.025-6.708,2.405-10.219,4.802c-2.811,1.918-6.128,4.069-6.754,7.655c-0.688,3.935,5.162,6.663,7.936,7.78
						c10.057,4.051,14.682,14.177,22.137,21.224c0.975,0.921,2.535,1.047,3.78,0.635c6.614-2.192,7.044-8.315,3.376-13.3
						c-1.659-2.255-8.375,0.286-6.438,2.918c0.576,0.732,1.09,1.507,1.541,2.324c0.346,0.728,0.295,3.904,0.398,3.871
						c1.26,0.211,2.52,0.423,3.78,0.634c-1.815-1.716-3.532-3.921-4.999-5.968c-2.372-3.311-5.438-6.012-8.153-9.045
						c-2.257-2.521-4.914-4.724-7.957-6.205c-3.004-1.461-11.626-3.975-6.526-8.158c1.146-0.939,2.437-1.738,3.659-2.573
						c0.746-0.513,1.461-1.065,2.146-1.657c0.689-0.893,0.951-0.871,0.783,0.061c3.446,1.635,6.222,5.96,7.885,9.24
						c3.167,6.25,4.496,13.316,8.973,18.875C163.228,258.672,169.925,256.075,167.9,253.563L167.9,253.563z"/>
				</g>
			</g>
			<g>
				<g>
					<path fill="#C872B9" d="M91.341,214.241c2.117,4.674,8.172,6.523,12.451,3.085c4.934-3.963,5.117-10.14,4.564-16.011
						c-0.226-2.383-0.536-5.104-1.598-7.265c-2.004-4.08-0.059-7.146,2.107-10.867c2.475-4.254,9.178-12.061,6.169-17.394
						c-2.907-5.153-8.821-2.896-12.474,0.136c-5.272,4.376-8.116,11.07-9.527,17.606c-0.691,3.201-0.992,6.487-1.582,9.708
						c-0.704,3.85-2.211,7.495-3.049,11.316c-1.261,5.745,1.092,10.063,5.93,13.092c2.691,1.685,8.768-1.979,5.364-4.109
						c-7.669-4.8-3.197-12.257-1.466-19.32c2.281-9.313,1.867-19.055,9.979-25.787c0.479,1.154,0.422,2.298-0.174,3.429
						c-0.355,0.896-0.765,1.766-1.227,2.61c-1.114,2.193-2.486,4.291-3.767,6.389c-2.035,3.334-4.976,7.5-4.517,11.637
						c0.316,2.85,2.014,5.422,2.518,8.335c0.322,1.859,0.464,3.728,0.49,5.613c-0.006,0.901-0.066,1.799-0.182,2.692
						c-0.031,0.307-1.674,6.217-3.025,3.233C96.896,209.209,89.971,211.217,91.341,214.241L91.341,214.241z"/>
				</g>
			</g>
		</g>
	</g>
</g>
</svg>
