<?xml version="1.0" encoding="utf-8"?>
<!-- Generator: Adobe Illustrator 16.0.0, SVG Export Plug-In . SVG Version: 6.00 Build 0)  -->
<!DOCTYPE svg PUBLIC "-//W3C//DTD SVG 1.1//EN" "http://www.w3.org/Graphics/SVG/1.1/DTD/svg11.dtd">
<svg version="1.1" id="Layer_2" xmlns="http://www.w3.org/2000/svg" xmlns:xlink="http://www.w3.org/1999/xlink" x="0px" y="0px"
	 width="450px" height="450px" viewBox="0 0 450 450" enable-background="new 0 0 450 450" xml:space="preserve">
<g>
	<g opacity="0.3">
		<path d="M307.03,286.991c-4.054,7.881-9.492,14.997-12.403,23.539c-1.931,5.666-4.216,13.301-10.114,16.203
			c-2.771,1.362-5.964,1.857-9.261,2.078c-7.253,5.051-15.764,8.379-20.449,16.359c-3.603,6.131-5.839,12.629-7.173,19.36
			c1.717,0.251,3.504-0.155,4.556-1.479c0.239-0.303,0.519-0.585,0.771-0.877c0.272-7.52,4.296-14.896,11.225-20.112
			c5.249-3.95,11.298-5.56,17.472-6.703c0.743-0.244,1.463-0.523,2.23-0.729c3.943-1.058,9.009-1.817,12.329-4.361
			c4.45-3.416,3.769-10.408,4.3-15.366c1.044-9.764,6.854-17.921,9.257-27.253C308.908,287.291,307.978,287.099,307.03,286.991z"/>
		<path d="M340.63,278.738c5.396-8.438,8.71-17.864,17.485-23.786c7.676-5.177,13.277-9.799,21.799-11.469
			c-9.434-2.604-18.82,1.742-28.358,5.822c-3.743,1.606-5.71,5.192-8.564,7.876c-5.221,4.92-10.243,10.07-15.503,14.95
			c-1.897-0.521-3.828-0.957-5.796-1.712c-4.255-1.634-8.424-6.011-12.053-8.798c-2.266-1.737-4.877-3.313-7.649-4.597
			c-6.481,0.155-13.209,3.834-18.969,5.953c-5.847,2.149-11.188,4.078-17.434,4.731c-3.333,0.349-6.724-1.211-9.942-3.262
			c-4.603,2.922-8.559,6.345-11.263,10.156c-0.736,1.039-1.303,2.512-0.682,3.773c0.176,0.361,0.351,0.725,0.527,1.088
			c0.498,1.014,1.542,1.76,2.7,1.445c4.568-0.559,9.558-4.091,14.015-5.578c7.668-2.566,15.413-5.387,23.415-6.676
			c7.489-1.209,14.331,3.971,19.556,8.541c3.31,2.894,7.117,5.268,10.813,7.617c3.285,2.089,7.631,1.86,10.991,3.748
			c0.663,0.371,1.469,0.609,2.319,0.73C332.487,288.187,336.735,284.825,340.63,278.738z"/>
		<path d="M232.434,346.559c-9.557-2.032-18.912-7.261-29.416-5.154c-6.318,1.266-12.898,8.489-18.481,11.646
			c-6.492,3.662-14.923-2.929-21.665-6.849c-5.016,2.847-9.881,6.192-13.162,10.627c3.547,1.272,7.047,2.707,10.711,3.97
			c4.886,1.682,9.266,2.312,13.685,2.233c0.823-0.489,1.648-1,2.476-1.442c11.814-6.305,23.352-9.717,36.482-12.188
			c4.232-0.794,9.204,1.222,13.731,3.314C228.67,350.66,230.541,348.597,232.434,346.559z"/>
		<path d="M333.781,321.497c-3.667-1.403-7.222-3.052-10.728-4.813c-7.865-0.162-16.202-4.83-24.423-9.09
			c-9.409-4.864-18.892-4.992-28.357-2.411c-9.672,9.586-12.534,29.829-23.734,38.498c-0.209,0.604-0.527,1.206-0.984,1.788
			c-3.266,4.131-6.953,7.839-10.799,11.397c2.563-0.232,5.126-0.889,7.301-1.617c11.598-3.889,15.967-13.622,21.875-23.559
			c3.604-6.076,8.59-12.31,13.785-12.646c13.194-3.813,11.059-1.203,18.594,2.468c8.185,3.98,16.101,8.425,24.395,12.186
			c1.26,0.571,2.575,1.111,3.936,1.62c4.225-0.323,8.49-1.258,12.826-2.681c4.063-1.334,7.028-4.148,9.614-7.432
			C342.388,324.565,337.725,323.003,333.781,321.497z"/>
		<path d="M127.566,204.374c-2.808,0.931-5.694,1.663-7.975,2.507c-7.25,2.682-12.408,4.953-18.381,10.042
			c-9.521,8.111-10.337,22.4-8.479,33.576c0.403,2.434,3.14,4.19,5.69,4.246c0.471-0.646,0.688-1.489,0.343-2.521
			c-2.775-8.272-0.056-17.455,2.035-25.609c3.383-13.215,14.764-16.357,26.961-18.521
			C127.676,206.855,127.621,205.611,127.566,204.374z"/>
		<path d="M122.438,224.431c-1.114,0.194-2.228,0.391-3.331,0.629c-2.358,0.507-6.157,1.025-9.242,2.216
			c-0.284,1.657-0.532,3.305-0.728,4.9c-0.886,7.254,0.406,14.324-0.866,21.619c-1.302,7.461-8.241,12.1-15.491,15.035
			c-0.604,1.452-1.347,2.822-2.235,4.116c0.046,2.676,0.137,5.354,0.287,8.029c9.338-2.962,16.352-7.698,24.03-15.719
			c8.054-8.415,4.164-23.775,5.715-33.975C120.983,228.61,121.614,226.353,122.438,224.431z"/>
		<path d="M168.132,189.528c-0.669-0.681-1.335-1.37-1.987-2.069c-12.596,6.805-23.441,14.186-38.833,12.061
			c-6.156-0.846-11.746-3.436-16.88-6.808c-0.195-0.133-0.393-0.229-0.59-0.354c0.436,1.813,0.618,3.697,0.425,5.668
			c-0.033,0.359-0.108,0.687-0.196,1.004c3.747,2.884,7.661,5.93,12.146,8.12c7.515,3.665,22.632,4.851,30.201,0.649
			C157.244,205.118,162.634,195.399,168.132,189.528z"/>
		<path d="M187.853,170.294c-0.419,0.242-0.842,0.446-1.267,0.764c-4.3,3.177-9.705,3.311-15.353,2.739
			c-2.389,0.679-4.735,1.296-5.446,1.378c-6.908,0.786-14.232-0.23-21.205-0.131c-0.021,0-0.047,0.003-0.067,0
			c-5.933,2.979-10.607,8.066-13.792,14.033c1.169-0.039,2.333-0.086,3.499-0.143c11.289-5.715,27.69,2.633,39.056-2.52
			c6.323-2.867,14.452-5.413,15.092-13.347C188.456,171.962,188.245,171.052,187.853,170.294z"/>
		<path d="M269.803,326.249c12.894-9.524,26.461-19.484,34.527-33.256c8.863-15.141,10.76-32.268,25.387-43.644
			c6.528-5.078,14.902-10.246,17.002-18.826c1.818-7.433,1.885-15.388,0.459-22.916c-2.427-12.837-4.521-29.656-14.527-38.624
			c-7.235-3.594-9.448-0.376-12.267,3.842c-2.817,4.219-3.928,4.566-10.261,5.076c-4.219,0.344-6.016-4.558-4.461-7.769
			c5.37-11.097,21.596-7.736,24.556-19.767c3.466-14.076,1.838-27.451-7.05-38.317c-0.437-0.278-0.834-0.583-1.294-0.847
			c-17.585-10.012-72.966-21.691-109.516,0c-27.481,16.312-35.089,30.85-35.34,43.18c-0.177,10.222,9.912,12.992,10.62,21.484
			c0.193,2.316-1.728,4.338-3.79,4.982c-15.794,4.908-8.355,28.572-20.352,39.31c-13.186,11.804-32.347,14.126-44.09,27.642
			c-5.69,6.555-10.881,12.747-19.174,15.957c-11.371,4.399-17.468,9.483-19.455,21.896c-1.086,6.787-2.45,13.232-2.823,19.742
			c6.643,25.77,26.154,26.669,33.979,37.746c11.179,15.822,31.369,19.867,52.865,15.255c4.952-2.049,9.359-5.257,14.076-9.511
			c6.092-5.488,11.128-10.146,19.47-11.397c9.666-1.446,19.87,0.514,29.711-0.58c14.089-1.566,27.598-4.752,40.666-10.321
			C269.087,326.428,269.448,326.325,269.803,326.249z"/>
		<path d="M269.803,326.249c12.894-9.524,26.461-19.484,34.527-33.256c8.863-15.141,10.76-32.268,25.387-43.644
			c6.528-5.078,14.902-10.246,17.002-18.826c1.818-7.433,1.885-15.388,0.459-22.916c-2.427-12.837-4.004-28.601-11.25-35.76
			s-15.17-5.774-17.988-1.554c-2.817,4.219-1.483,7.098-7.816,7.607c-4.219,0.344-6.016-4.558-4.461-7.769
			c5.37-11.097,21.596-7.736,24.556-19.767c3.466-14.076,1.838-27.451-7.05-38.317c-0.437-0.278-0.834-0.583-1.294-0.847
			c-17.585-10.012-72.966-21.691-109.516,0c-27.481,16.312-35.089,30.85-35.34,43.18c-0.177,10.222,9.912,12.992,10.62,21.484
			c0.193,2.316-1.728,4.338-3.79,4.982c-15.794,4.908-8.355,28.572-20.352,39.31c-13.186,11.804-32.347,14.126-44.09,27.642
			c-5.69,6.555-10.881,12.747-19.174,15.957c-11.371,4.399-17.468,9.483-19.455,21.896c-1.086,6.787-2.45,13.232-2.823,19.742
			c6.643,25.77,26.154,26.669,33.979,37.746c11.179,15.822,31.369,19.867,52.865,15.255c4.952-2.049,9.359-5.257,14.076-9.511
			c6.092-5.488,11.128-10.146,19.47-11.397c9.666-1.446,19.87,0.514,29.711-0.58c14.089-1.566,27.598-4.752,40.666-10.321
			C269.087,326.428,269.448,326.325,269.803,326.249z"/>
		<path d="M241.794,232.333c7.841-8.832,9.735-21.256,3.211-31.186c-2.147-3.27-5.861-5.849-9.108-7.951
			c-0.412-0.264,4.807-14.271,3.305-12.754c1.939-1.957,1.939-5.186,0-7.139c-0.36-0.361-0.72-0.721-1.079-1.085
			c-2.054-2.063-5.465-2.565-7.976-1.028c-10.664,6.526-20.219,21.76-10.539,33.198c2.01,2.372,4.001,3.6,6.361,5.566
			c3.822,3.181,2.395,9.001-0.471,12.655c-4.239,5.399-10.991,4.38-15.938,1.07c4.63,5.598,14.373,9.332,19.902,2.288
			c2.901-3.703,4.348-9.601,0.479-12.823c-2.395-1.994-4.41-3.238-6.449-5.644c-9.807-11.587-0.126-27.025,10.682-33.641
			c1.268-0.777,2.76-1.036,4.201-0.849c-3.897,5.954-7.692,12.358-7.046,19.262c1.019,10.879,24.179,19.579,6.459,27.503
			c-10.604,4.738-12.51,26.507-25.416,14.604c-3.948-3.642-9.906-5.328-15.496-4.943c-3.172-6.304,3.771-11.311,9.099-8.94
			c-0.238-0.282-0.477-0.563-0.686-0.855c-5.045-6.942-16.218-0.882-11.732,6.855c9.461,16.326,32.833,20.884,46.751,7.311
			C240.741,233.26,241.219,232.753,241.794,232.333z"/>
		<path d="M277.331,204.385c-6.741-6.795-11.005-12.898-12.239-22.656c-1.62-12.822,3.359-28.93-6.602-39.758
			c-9.791-10.646-21.409-9.508-30.995,0.56c-5.577,5.858-11.223,12.534-15.171,19.609c-5.813,10.427-11.006,15.538-22.88,18.553
			c-5.176,1.312-3.806,8.717,1.218,8.983c9.606,0.508,18.806-5.097,24.672-12.508c6.549-8.264,16.062-34.829,29.776-32.939
			c15.385,2.116,5.845,34.545,6.722,44.321c0.399,4.399,1.669,9.099,3.646,13.058c1.243,2.49,8.395,11.163,7.931,12.59
			c-2.068,6.342-4.357,10.039-9.096,14.797c-4.443,4.454-11.076,7.252-14.534,12.639c-2.775,4.319-3.811,8.473-8.266,11.705
			c-8.174,5.936-18.612,0.484-26.541-3.025c-11.105-4.917-21.34-8.877-33.624-6.871c-11.251,1.838-19.322,12.197-28.546,17.698
			c-2.362,1.413-2.286,5.854,0.83,6.349c13.495,2.132,23.053-13.021,37.148-11.703c7.231,0.677,16.484,9.846,22.813,13.492
			c7.322,4.223,14.93,6.934,23.431,6.52c13.304-0.653,24.602-10.807,27.793-23.319c0.645-2.515,4.382-4.479,6.19-5.963
			c3.966-3.261,7.329-7.133,10.565-11.087c4.848-5.916,6.448-12.537,8.57-19.772C281.277,211.796,280.166,207.243,277.331,204.385z"
			/>
		<path d="M310.92,109.136c-6.873-2.087-14.708,0.739-21.187-0.707c-5.754-0.05-11.304-1.145-16.872-2.147
			c1.365,0.591,2.504,1.406,3.217,2.528c1.918,3.004,2.633,3.705,5.496,5.786c4.619,3.352,12.828,2.407,18.058,2.192
			c1.003-0.026,2.002-0.053,3.003-0.077c5.393-1.075,7.725,2.1,6.998,9.523c-4.575,3.949-8.155,6.625-14.181,8.208
			c-6.796,1.78-12.024-0.188-17.936,4.316c-9.615,7.324-7.822,23.846-5.03,33.943c1.395,5.03,6.284,7.211,6.283,12.397
			c0,6.895,7.98,12.487,10.736,18.365c1.854,3.955,7.943,1.115,6.876-2.899c-0.904-3.411-2.026-4.77-4.17-7.813
			c-3.544-5.028-3.854-8.129-5.382-13.684c-0.696-2.531-4.088-4.769-5.538-6.668c-4.767-6.233-3.956-28.006,6.393-29.27
			c13.918-1.701,32.056-6.092,33.899-23.042C322.256,113.891,315.662,110.583,310.92,109.136z"/>
		<path d="M290.857,121.268c0.42-1.374-1.437-2.469-2.421-1.408c-2.569,2.765-3.482,0.416-5.405,1.764
			c-5.448,3.832-10.095,1.301-14.35-2.4c-3.89-3.38-8.581-4.742-13.723-5.145c-16.189-1.266-26.653,5.261-40.014,13.576
			c-7.284,4.531-10.909,10.375-17.054,16.29c-6.564,6.314-2.55-0.303-1.01-2.023c3.3-3.688,4.928-7.751,9.035-10.894
			c15.854-12.117,31.586-19.659,50.876-25.037c1.757-0.488,4.502-0.925,7.403-1.004c-1.011-0.105-2.023-0.2-3.043-0.254
			c-10.76-0.561-21.552,1.438-31.834,4.582c-5.253,1.605-10.398,3.443-15.452,5.476c-10.134,6.579-19.198,14.897-25.724,24.831
			c-7.498,11.415,2.713,20.703,13.639,11.826c8.458-6.876,13.707-15.746,24.01-20.354c5.028-2.247,8.342-6.612,13.879-8.044
			c5.779-1.492,20.091-4.106,24.086,2.497C270.441,136.606,287.009,133.796,290.857,121.268z"/>
		<path d="M303.793,155.948c5.811-0.919,9.041-4.82,14.398-6.039c3.021-0.69,2.404-5.764-0.738-5.46
			c-14.283,1.392-35.588,5.942-32.639,25.056c1.551,10.056,6.487,19.699,15.376,24.822c5.319,3.076,11.482,14.332,3.563,19.67
			c-2.109,1.425-4.852,2.275-7.174,3.274c-3.809,1.646-8.485,3.176-10.711,6.978c-2.257,3.852-1.563,9.779-2.539,13.958
			c-1.838,7.888-10.493,10.553-16.434,14.548c-2.843,1.913-3.891,5.651-5.113,8.676c-3.774,9.314-10.364,15.283-20.02,18.348
			c-6.415,2.039-13.228,3.287-19.762,4.935c-5.964,1.503-17.008-4.378-23.019-5.852c-11.151-2.742-22.298-0.122-30.948,7.113
			c-3.389,2.839,0.337,7.465,3.942,6.773c13.366-2.569,23.681-3.404,36.702,1.326c12.769,4.642,23.501,0.563,36.266-2.76
			c10.067-2.62,20.203-10.651,25.029-19.79c3.266-6.193,3.55-9.259,10.001-14.429c4.396-3.525,7.617-6.307,10.556-11.162
			c1.566-2.584,2.65-6.866,2.746-9.784c0.302-9.057,6.75-8.939,13.34-12.327c6.568-3.377,13.87-10.75,11.445-19.068
			c-1.298-4.44-3.339-8.598-5.459-12.712c-4.008-7.796-11.641-6.596-15.476-16.101C294.08,168.385,292.245,157.771,303.793,155.948z
			"/>
		<path d="M213.133,207.092c-7.119-7.771-24.504-11.236-31.354-0.985c-1.653,2.477-3.188,4.747-3.332,7.838
			c-0.375,8.093-8.302,9.506-14.357,11.847c-9.728,3.77-20.255,6.277-28.813,12.409c-13.367,9.58-22.719,28.014-20.492,44.581
			c1.827,13.564,30.333,9.872,39.174,8.658c4.22-0.584,4.22-7.909,0-8.487c-6.439-0.887-12.788-0.803-19.28-0.809
			c-2.957-0.003-5.87-1.121-8.804-1.402c-2.279-0.217-1.044-2.986-0.941-5.074c1.009-20.69,17.278-30.785,34.563-37.145
			c6.367-2.342,25.962-5.502,27.734-14.224c1.516-7.499,3.498-16.565,13.838-13.721c4.786,1.319,7.927,1.339,11.76-1.122
			C213.667,208.915,213.806,207.822,213.133,207.092z"/>
		<path d="M331.822,184.48c-4.056-0.89-8.146-1.581-12.29-2.042c0.465,1.626,1.102,3.277,1.894,4.947
			c3.865,8.15,8.712,12.137,8.556,21.989c-0.02,1.253-5.199,5.065-6.172,6.398c-2.94,4.028-6.113,8.675-9.203,12.587
			c-4.815,6.095-13.39,5.146-17.065,12.503c-4.71,9.436,0.044,19.065-7.846,28.122c-5.894,6.766-14.691,11.373-22.297,15.869
			c-3.907,2.309-6.432,4.979-9.548,8.348c-5.793,6.264-13.43,7.258-21.293,8.873c-10.438,2.146-21.061,3.896-31.654,5.087
			c-8.264,0.925-17.103-4.986-25.495-5.505c-11.354-0.701-22.166,9.834-12.058,20.205c3.605,3.705-2.347,2.656-4.866,3.141
			c-8.676,1.664-16.393,2.354-22.325-5.616c-5.313-7.142-7.75-14.21-16.956-16.751c-8.912-2.463-17.674-3.259-19.7-13.826
			c-0.322-1.682-0.459-3.348-0.512-5.004c-0.485-0.749-0.788-1.678-0.769-2.816c0.072-4.449-7.793-3.484-10.959-1.438
			c-0.314,1.645-0.563,3.326-0.654,5.093c-0.387,7.595,0.751,18.502,7.753,23.152c6.033,4.009,14.189,6.464,21.183,8.106
			c4.791,1.126,7.834,9.404,10.615,13.123c2.963,3.964,6.774,6.483,11.031,8.906c8.246,4.686,19.249,1.163,27.942,0.366
			c7.18-0.651,12.828-5.989,13.591-13.235c0.315-3.02,0.078-5.439-1.498-8.133c-0.392-0.664-0.81-1.163-1.21-1.557
			c0.545,0.168,1.207,0.338,2.028,0.504c9.669,1.953,18.456,6.323,28.543,4.23c11.098-2.294,22.403-3.488,33.537-5.813
			c5.886-1.231,10.947-2.222,16.106-5.334c5.401-3.259,8.439-9.514,13.935-12.532c15.132-8.315,33.94-20.707,34.888-39.901
			c0.212-4.282-0.868-9.127,3.459-11.45c4.371-2.348,9.047-4.951,12.076-9.014c2.799-3.762,5.407-7.778,8.058-11.632
			c2.591-3.77,7.088-6.852,8.363-11.484c1.948-7.075-0.843-16.066-4.429-22.075C335.713,189.422,333.809,187.119,331.822,184.48z"/>
		<path d="M260.104,188.874c-0.268-1.746-0.224-5.603-0.132-10.467c-4.24-8.483-3.684-17.765-6.657-26.657
			c-4.09-12.222-16.707-11.788-23.445-1.796c-2.694,3.99-4.994,8.102-8.262,11.651c-3.322,3.617-8.333,3.979-12.365,6.262
			c-2.433,3.944-4.904,7.011-7.927,9.438c-0.835,1.661-1.661,3.376-2.691,5.097c-3.096,5.163-8.317,6.482-13.843,6.532
			c0.488,1.881,2.033,3.538,4.373,3.66c9.736,0.516,19.058-5.166,25.005-12.675c6.634-8.374,16.273-35.292,30.171-33.377
			c15.59,2.145,5.923,35.003,6.813,44.911c0.4,4.461,1.688,9.221,3.691,13.232c1.261,2.52,8.509,11.311,8.038,12.758
			c-2.096,6.425-4.418,10.175-9.216,14.992c-4.504,4.514-11.228,7.353-14.731,12.81c-2.811,4.377-3.861,8.585-8.373,11.862
			c-8.285,6.014-18.861,0.488-26.897-3.068c-11.253-4.984-21.624-8.994-34.072-6.96c-11.399,1.86-19.578,12.358-28.927,17.936
			c-1.779,1.061-2.186,3.817-0.984,5.371c6.571-9.077,16.154-18.606,26.896-17.83c4.827,0.347,8.705,1.832,12.695,4.614
			c8.646,6.03,14.578,7.771,25.475,5.975c6.567-1.08,12.759-1.682,19.021,1.311c5.025,2.397,15.441,11.182,20.752,5.368
			c6.988-7.656,7.732-20.503,11.579-29.86c1.553-3.775,3.73-8.176,6.966-10.835c3.791-3.116,12.972-6.245,14.918-10.719
			C282.826,207.27,261.823,200.11,260.104,188.874z"/>
		<path d="M154.754,268.727c3.217-1.591,6.363-3.567,9.603-5.296C160.946,264.019,157.695,266.044,154.754,268.727z"/>
		<path d="M221.559,274.811c-6.026-2.877-11.935-1.742-17.87-0.771c6.985,3.814,14.249,6.219,22.313,5.824
			c1.494-0.073,2.961-0.284,4.399-0.585C227.542,277.972,224.781,276.349,221.559,274.811z"/>
		<path d="M264.685,246.243c2.275-2.313,4.403-4.772,6.462-7.286c1.349-1.649,2.438-3.357,3.369-5.114
			C270.074,236.93,266.826,240.299,264.685,246.243z"/>
		<path d="M292.061,195.714c-3.591-5.095-3.906-8.238-5.455-13.865c-0.705-2.566-4.143-4.833-5.613-6.757
			c-4.826-6.319-4.006-28.381,6.48-29.662c6.902-0.843,14.815-2.354,21.33-5.675c-0.416-1.204-0.317-2.605,0.614-4.039
			c3.408-5.245,13.624-21.913-3.835-22.137c-3.17-0.043-6.465,0.221-9.721,0.218c1.438,1.062,2.307,2.815,1.768,5.034
			c0.681-0.036,1.34-0.073,1.952-0.098c1.015-0.025,2.026-0.051,3.041-0.075c5.464-1.091,7.828,2.126,7.093,9.649
			c-4.637,4.001-8.264,6.715-14.373,8.318c-6.887,1.807-12.184-0.191-18.173,4.372c-9.745,7.423-7.926,24.166-5.095,34.399
			c1.406,5.094,6.367,7.306,6.364,12.563c-0.003,6.985,8.088,12.651,10.88,18.608c1.88,4.01,8.049,1.131,6.969-2.938
			C295.371,200.175,294.231,198.796,292.061,195.714z"/>
		<path d="M211.381,292.903c14.52,3.372,25.926-5.131,39.596-8.415c13.367-3.211,9.852-23.353,23.684-28.37
			c13.406-4.864,12.479-21.455,23.108-30.373c5.448-4.567,16.478-9.565,14.312-18.549c-1.574-6.543-4.024-13.011-7.669-18.715
			c-4.833-7.555-16.245-4.804-17.33-16.255c-0.743-7.829,4.87-12.386,11.373-15.515c7.807-3.754,14.588-4.383,19.747-9.884
			c-0.186-0.025-0.354-0.082-0.563-0.063c-14.477,1.409-36.063,6.022-33.074,25.39c1.57,10.188,6.573,19.959,15.579,25.154
			c5.396,3.114,11.638,14.521,3.613,19.931c-2.141,1.442-4.919,2.306-7.271,3.319c-3.859,1.667-8.596,3.216-10.855,7.07
			c-2.284,3.901-1.58,9.907-2.57,14.144c-1.865,7.993-10.636,10.689-16.655,14.743c-2.88,1.939-3.939,5.727-5.181,8.787
			c-3.823,9.442-10.502,15.489-20.283,18.597c-6.502,2.065-13.407,3.331-20.027,4.998c-6.045,1.522-17.239-4.435-23.324-5.928
			c-11.303-2.775-22.598-0.125-31.362,7.208c-0.097,0.081-0.167,0.167-0.25,0.25C181.203,291.354,196.33,289.41,211.381,292.903z"/>
		<path d="M211.926,210.243c-1.408-1.536-3.218-2.9-5.262-4.035c-0.646,0.309-1.405,0.491-2.289,0.478
			c-5.769-0.075-12.478-0.872-18.025,1.069c-6.242,2.186-4.701,4.424-6.19,9.291c-1.801,5.888-4.109,11.381-9.914,14.129
			c-4.376,2.068-8.962,0.63-13.508,0.018c-4.655,1.628-9.363,3.193-13.868,5.152c-2.294,3.306-3.666,7.629-6.186,11.502
			c-3.437,5.283-9.358,8.524-14.77,11.354c-8.771,4.594-5.252,16-2.479,23.891c3.511,9.982,16.545,14.953,26.193,8.983
			c2.111-1.308,3.789-3.081,5.241-5.072c-6.151-0.749-12.237-0.699-18.447-0.707c-2.995-0.001-5.946-1.134-8.919-1.42
			c-2.31-0.22-1.056-3.026-0.953-5.143c1.02-20.964,17.512-31.193,35.021-37.639c6.453-2.374,26.311-5.575,28.104-14.415
			c1.538-7.599,3.546-16.786,14.023-13.906c4.854,1.338,8.035,1.36,11.918-1.135C212.469,212.09,212.608,210.984,211.926,210.243z"
			/>
		<path d="M335.276,221.014c-0.714-7.792-0.686-17.711-3.063-25.12c-1.764-5.493-4.993-9.176-7.654-14.081
			c-1.125-2.07-1.341-4.049-0.975-5.911c-0.893-0.221-1.802-0.314-2.731-0.239c-0.657,0.444-1.22,0.99-1.71,1.581
			c-0.722,4.045,0.362,8.48,2.52,13.028c3.918,8.262,8.83,12.297,8.67,22.283c-0.02,1.273-5.266,5.137-6.251,6.486
			c-2.981,4.081-6.197,8.789-9.327,12.754c-4.883,6.176-13.569,5.217-17.293,12.671c-0.202,0.405-0.365,0.812-0.533,1.22
			c-0.426,1.498-0.863,3.017-1.348,4.515c-1.475,7.692,0.332,15.413-6.072,22.761c-5.972,6.856-14.887,11.525-22.592,16.08
			c-3.963,2.342-6.519,5.045-9.678,8.461c-5.869,6.346-13.609,7.355-21.577,8.993c-10.577,2.172-21.34,3.945-32.076,5.151
			c-8.374,0.94-17.329-5.053-25.836-5.577c-11.502-0.708-22.458,9.964-12.218,20.475c3.653,3.755-2.377,2.69-4.931,3.183
			c-8.792,1.687-16.612,2.385-22.623-5.693c-5.384-7.234-7.854-14.396-17.183-16.973c-3.063-0.846-6.102-1.506-8.869-2.416
			c-3.075-0.147-6.122-0.455-9.082-1.698c-4.277-1.793-7.986-5.366-10.069-9.524c-1.835-3.668-3.054-7.591-3.601-11.574
			c-0.405,1.641-0.79,3.285-1.21,4.895c-0.005,0.017-0.012,0.028-0.018,0.048c-0.079,0.67-0.144,1.349-0.178,2.038
			c-0.325,6.345,0.41,14.955,4.645,20.43c1.497,0.857,3.182,1.479,5.123,1.76c8.723,1.267,16.287-1.832,24.14,3.305
			c13.594,8.898,10.027,28.222,31.389,26.479c5.318-0.436,14.157-1.714,16.593-7.464c2.432-5.743-1.825-4.21-2.425-8.152
			c-0.582-3.813,0.516-8.716,5.107-9.757c6.464-1.465,14.123,1.021,20.396,2.479c6.88,1.597,13.673,3.213,20.544,4.392
			c13.924-5.929,29.113-8.79,43.48-13.382c3.88-1.243,7.959-2.544,11.969-4.083c1.524-1.566,3.132-3.011,5.044-4.063
			c5.347-2.938,11.136-6.395,16.465-10.455c4.396-6.005,5.276-12.463,6.054-21.103c0.898-9.987,3.635-18.54,12.099-24.709
			c5.298-3.859,14.887-6.574,21.083-11.446c1.191-1.756,2.373-3.517,3.561-5.245c0.55-0.8,1.193-1.567,1.865-2.325
			C335.265,224.125,335.424,222.649,335.276,221.014z"/>
		<path d="M306.631,270.969c1.409-3.296,2.306-6.827,2.496-10.632c0.004-0.074,0.001-0.152,0.004-0.23
			C307.645,263.491,307.034,267.169,306.631,270.969z"/>
		<path d="M236.865,232.268c-3.141,2.222-3.899,6.649-5.457,10.597c3.454-1.562,6.687-3.83,9.463-6.927
			c2.488-2.773,4.391-5.905,5.64-9.205C243.551,228.811,240.091,229.979,236.865,232.268z"/>
		<path d="M207.366,234.382c12.906,11.902,14.812-9.866,25.416-14.604c17.721-7.924-5.442-16.624-6.457-27.503
			c-0.65-6.903,3.147-13.308,7.042-19.262c-1.438-0.188-2.932,0.071-4.201,0.849c-10.806,6.615-20.486,22.054-10.678,33.641
			c2.035,2.405,4.053,3.649,6.448,5.644c3.868,3.223,2.42,9.12-0.479,12.823c-5.764,7.345-16.128,2.977-20.48-3.01
			c-5.008-6.89-15.938-1.131-12.107,6.479C197.46,229.053,203.42,230.74,207.366,234.382z"/>
		<path d="M254.05,231.537c-4.504,4.515-11.228,7.351-14.729,12.81c-2.812,4.379-3.863,8.586-8.376,11.861
			c-8.283,6.014-18.861,0.491-26.896-3.066c-0.743-0.331-1.472-0.638-2.207-0.957c7.612,5.195,16.312,12.143,26.2,9.213
			c9.155-2.71,7.584-10.338,13.261-15.061c5.036-4.192,8.576-9.293,13.792-13.063c3.906-2.823,8.291-9.428,9.13-14.088
			c1.462-8.138-7.88-13.344-10.259-20.374c-1.318-3.886-1.766-7.367-2.447-11.194c-0.054,1.113-0.057,2.11,0.017,2.938
			c0.401,4.462,1.689,9.22,3.691,13.231c1.261,2.52,8.511,11.312,8.038,12.758C261.172,222.969,258.85,226.719,254.05,231.537z"/>
		<path d="M329.89,213.005c-1.526,1.686-4.675,4.122-5.416,5.138c-1.396,1.91-2.847,3.959-4.31,6.005
			C325.379,221.077,329.886,217.396,329.89,213.005z"/>
		<path d="M164.522,323.999c-0.128-0.162-0.246-0.319-0.362-0.465C164.27,323.688,164.403,323.842,164.522,323.999z"/>
		<path d="M282.49,132.268c3.243-1.489,6.059-4.1,7.745-7.706c-0.063,0.106-0.111,0.214-0.2,0.307
			C287.089,128.051,284.832,130.512,282.49,132.268z"/>
		<path d="M204.512,284.278c-2.446-0.92-4.719-1.762-6.528-2.207c-5.573-1.369-11.142-1.405-16.41-0.225
			c4.722,0.9,9.547,1.965,14.642,1.973C198.938,283.825,201.709,284.011,204.512,284.278z"/>
		<path d="M296.937,245.752c-0.832,2.313-1.218,4.634-1.442,6.952c0.74-2.08,1.236-4.212,1.364-6.402
			C296.867,246.118,296.92,245.936,296.937,245.752z"/>
		<path d="M244.724,145.643c-13.896-1.914-23.537,25.005-30.171,33.377c-3.272,4.135-7.573,7.705-12.396,10.003
			c0.393,0.159,0.834,0.223,1.307,0.117c8.218-1.838,12.949-9.589,17.854-15.935c3.923-5.075,6.223-11.871,9.366-17.456
			c8.667-15.394,19.507-3.902,20.658,6.184c0.922,8.08-1.557,16.574-0.053,24.384c0.084,0.445,0.153,0.865,0.231,1.301
			C252.088,175.367,259.014,147.609,244.724,145.643z"/>
		<path d="M206.366,211.366c-0.294-0.866-1.518-1.383-2.207-0.582c-2.964,3.46-15.01-1.581-18.173,5.713
			c-2.091,4.824-1.812,12.376-5.927,13.861c-3.879,1.396-6.248,5.316-10.841,5.451c-3.275,0.094-6.609,1.943-9.562,3.119
			c-6.354,2.527-14.853,5.43-19.843,10.131c-10.871,10.243-22.71,16.761-22.183,33.296c0.395,12.355,22.308,13.1,30.73,12.531
			c2.647-0.178,3.886-2.163,3.722-4.126c-0.462-0.381-1.019-0.66-1.697-0.754c-6.523-0.896-12.958-0.809-19.539-0.818
			c-2.993-0.001-5.945-1.134-8.918-1.42c-2.311-0.219-1.056-3.025-0.954-5.141c1.023-20.965,17.512-31.195,35.022-37.641
			c6.452-2.373,26.312-5.574,28.104-14.414c1.537-7.6,3.547-16.788,14.023-13.906c1.342,0.37,2.549,0.626,3.686,0.771
			C205.166,216.441,207.555,214.893,206.366,211.366z"/>
		<path d="M175.36,312.908c0.381-0.025,0.763-0.014,1.14-0.017c0.191-0.348,0.397-0.69,0.614-1.029
			c-4.722-1.32-8.962-2.197-12.759-1.203c-2.89,3.43-3.619,8.08-0.195,12.875c0.116,0.146,0.234,0.303,0.362,0.465
			c0.423,0.547,0.866,1.096,1.403,1.646c3.653,3.754-2.378,2.691-4.932,3.182c-8.791,1.688-16.61,2.385-22.622-5.692
			c-5.383-7.235-7.854-14.396-17.183-16.973c-9.033-2.495-17.907-3.302-19.961-14.01c-0.679-3.527-0.603-6.988-0.432-10.431
			c-1.212-2.535-2.762-4.936-5.054-7.531c-1.103-1.25-3.16-0.229-3.171,1.313c-0.08,12.915,2.787,30.592,16.147,35.486
			c12.397,4.541,22.335,9.326,32.848,17.493c6.751,5.246,11.946,8.273,20.873,7.574c3.754-0.292,10.304-2.914,10.546-7.366
			c0.127-2.33,0.125-4.438-1.122-6.562C167.312,314.359,167.358,313.463,175.36,312.908z"/>
		<path d="M326.412,176.438c-0.14-0.229-0.237-0.49-0.39-0.707c-0.075-0.035-0.153-0.059-0.231-0.091
			c-3.542,5.257-2.92,12.356-0.835,19.046c3.073,5.189,5.892,9.377,5.771,16.97c-0.006,0.316-0.333,0.793-0.837,1.349
			c-0.004,4.392-4.511,8.072-9.726,11.143c-1.665,2.322-3.353,4.639-5.017,6.749c-4.882,6.176-13.569,5.216-17.292,12.671
			c-0.362,0.725-0.656,1.453-0.919,2.185c-0.017,0.185-0.069,0.366-0.078,0.55c-0.128,2.19-0.624,4.322-1.364,6.402
			c-0.646,6.558-0.136,13.094-5.593,19.358c-2.38,2.731-5.255,5.092-8.309,7.259c-9.55,30.36-43.147,37.459-72.676,34.434
			c-7.095,0.564-13.36,1.612-20.096,0.882c-0.334,0.223-0.655,0.457-0.962,0.702c6.714,2.525,13.46,6.098,20.625,6.28
			c12.479,0.321,23.014-4.858,35.286-5.604c3.085-0.186,6.069-0.107,9.018-0.232c2.459-0.774,4.851-1.76,7.257-3.211
			c5.476-3.302,8.553-9.641,14.12-12.698c1.414-0.776,2.864-1.601,4.323-2.448c1.919-1.929,3.771-3.911,5.166-6.445
			c1.647-2.99,0.971-7.276,3.111-10.024c1.975-2.54,3.75-5.613,5.357-8.419c4.281-7.47,11.572-12.863,12.269-22.062
			c0.89-11.761,13.935-15.862,23.743-21.92c2.183-2.796,4.152-5.708,5.633-8.905C340.998,204.032,327.526,191.507,326.412,176.438z"
			/>
		<path d="M318.032,145.864c-14.476,1.411-36.062,6.024-33.076,25.392c1.571,10.187,6.576,19.961,15.581,25.153
			c5.395,3.115,11.637,14.522,3.612,19.932c-2.14,1.442-4.917,2.305-7.269,3.319c-3.859,1.667-8.596,3.216-10.855,7.071
			c-2.285,3.9-1.582,9.906-2.57,14.143c-1.865,7.992-10.637,10.689-16.657,14.743c-2.879,1.939-3.938,5.727-5.179,8.788
			c-3.63,8.961-9.867,14.83-18.852,18.066c-0.443,0.302-0.915,0.585-1.404,0.855c-5.627,4.309-11.922,5.287-18.434,4.29
			c-0.538,0.131-1.086,0.247-1.621,0.38c-4.245,1.073-11.025-1.546-16.797-3.719c-2.803-0.267-5.574-0.453-8.297-0.459
			c-5.095-0.008-9.92-1.072-14.642-1.973c-4.523,1.014-8.798,2.979-12.682,5.748c22.521-4.413,45.077,6.457,68.3,5.691
			c0.928-0.031,1.716,0.16,2.385,0.484c7.994-0.69,14.43-7.854,18.193-14.269c2.566-4.372,4.43-9.866,7.674-13.716
			c3.899-4.631,11.47-6.09,14.727-11.389c2.713-4.422,4.047-8.843,5.204-13.907c2.026-8.886,5.849-10.933,13.158-14.307
			c9.526-4.396,12.021-13.218,8.958-22.738c-1.726-5.378-5.674-9.507-8.315-14.355c-3.945-7.238-12.929-6.06-12.801-17.302
			c0.177-15.242,21.85-19.253,33.097-23.388c0.474-0.173,0.813-0.489,1.078-0.849C320.179,146.534,319.334,145.739,318.032,145.864z
			"/>
		<path d="M214.54,285.387c-3.353-0.371-6.71-0.794-10.028-1.109c5.771,2.173,12.552,4.792,16.797,3.719
			c0.535-0.133,1.083-0.249,1.621-0.38C220.161,287.194,217.352,286.423,214.54,285.387z"/>
		<path d="M168.892,287.594c3.884-2.77,8.158-4.734,12.682-5.748c-7.825-1.488-15.365-2.518-23.378,2.5
			c-2.784,1.744-2.346,5.084-0.551,6.855C161.395,289.493,165.142,288.329,168.892,287.594z"/>
		<path d="M274.397,129.268c-3.611,0.292-7.286-0.195-11.012-1.609c-5.143-1.949-9.852-3.52-14.529-4.205
			c2.282,0.805,4.554,2.33,6.541,2.949c5.01,1.566,7.863,4.086,13.364,4.728c7.554,0.883,11.571-0.093,15.357-2.924
			C281.056,129.61,277.619,129.986,274.397,129.268z"/>
		<path d="M230.776,125.932c-1.257,0.871-2.554,1.696-3.998,2.34c-10.44,4.666-15.762,13.657-24.331,20.624
			c-8.12,6.599-15.819,3.276-16.367-3.515c-3.703-0.194-5.713,5.847-2.011,7.841c7.506,4.045,17.885,0.571,24.261-4.344
			c3.542-2.728,6.146-5.309,7.766-9.386c2.758-6.942,12.874-7.65,18.659-10.509c3.056-1.509,5.805-3.152,8.578-5.128
			c0.531-0.379,1.079-0.616,1.634-0.758C240.438,122.942,235.825,123.75,230.776,125.932z"/>
		<path d="M290.442,124.022c-0.075,0.178-0.129,0.37-0.207,0.54C290.335,124.389,290.405,124.212,290.442,124.022z"/>
		<path d="M231.473,113.475c-15.737,6.561-32.411,20.96-35.855,25.563c-3.444,4.602-2.745,8.502-3.1,9.296
			c4.387-3.272,7.76-7.364,11.972-11.415c6.791-6.521,14.181-10.379,22.396-14.751c7.011-3.729,13.197-8.257,20.673-11.239
			c6.301-2.514,12.187-1.701,18.124-6.013c0.093-0.069,0.168-0.148,0.231-0.243C254.153,104.146,238.766,110.434,231.473,113.475z"
			/>
		<path d="M298.841,294.794c2.115-1.054,3.804-4.64,4.419-6.75c0.939-3.216,5.705-5.112,9.134-4.675
			c8.48,1.086,17.404,1.932,25.007-2.542c4.065-2.39,9.831-6.268,10.516-11.185c-1.757-0.802-4.15-0.609-5.699,0.767
			c-6.411,5.679-8.371,13.168-18.33,12.531c-6.793-0.436-12.068-4.642-19.113-3.601c-5.683,0.841-9.062,5.442-11.916,9.915
			c-1.879,2.937-2.386,5.679-4.373,7.817C292.022,296.913,295.492,296.456,298.841,294.794z"/>
		<path d="M208.597,230.079c-0.005,0.327,0.008,0.654,0.056,0.977c1.438-0.365,2.861-0.574,4.311-0.616
			c0.77-0.31,1.667-0.345,2.597,0.064c0.097,0.042,0.206,0.066,0.304,0.106c0.439,0.058,0.873,0.097,1.32,0.187
			c0.148,0.03,0.566,0.113,1.146,0.22c1.162-0.42,2.281-0.936,3.328-1.59c3.774-2.359,8.313-6.295,11.674-10.412
			c0.606-1.77,1.56-3.602,2.598-6.004c1.697-3.925-4.514-6.36-6.236-8.964c-1.827-2.762-4.194-6.418-3.894-9.97
			c0.445-5.262,3.209-9.188,6.445-12.972c-0.455-1.238-2.034-1.958-3.34-1.442c-4.77,7.078-9.59,13.515-3.927,22.46
			c3.169,5.005,5.751,10.942,3.506,16.845C225.552,226.673,215.972,227.233,208.597,230.079z"/>
	</g>
	<g>
		<g>
			<g>
				<path fill="#6D1D41" d="M298.297,282.625c-4.054,7.881-9.492,14.997-12.403,23.539c-1.931,5.666-4.216,13.301-10.114,16.203
					c-2.771,1.362-5.964,1.857-9.261,2.078c-7.253,5.051-15.764,8.379-20.449,16.359c-3.603,6.131-5.839,12.629-7.173,19.36
					c1.717,0.251,3.504-0.155,4.556-1.479c0.239-0.303,0.519-0.585,0.771-0.877c0.272-7.52,4.296-14.896,11.225-20.112
					c5.249-3.95,11.298-5.56,17.472-6.703c0.743-0.244,1.463-0.523,2.23-0.729c3.943-1.058,9.009-1.817,12.329-4.361
					c4.45-3.416,3.769-10.408,4.3-15.366c1.044-9.764,6.854-17.921,9.257-27.253C300.176,282.925,299.245,282.733,298.297,282.625z"
					/>
				<g>
					<path fill="#A94D8C" d="M331.898,274.372c5.396-8.438,8.71-17.864,17.485-23.786c7.676-5.177,13.277-9.799,21.799-11.469
						c-9.434-2.604-18.82,1.742-28.358,5.822c-3.743,1.606-5.71,5.192-8.564,7.876c-5.221,4.92-10.243,10.07-15.503,14.95
						c-1.897-0.521-3.828-0.957-5.796-1.712c-4.255-1.634-8.424-6.011-12.053-8.798c-2.266-1.737-4.877-3.313-7.649-4.597
						c-6.481,0.155-13.209,3.834-18.969,5.953c-5.847,2.149-11.188,4.078-17.434,4.731c-3.333,0.349-6.724-1.211-9.942-3.262
						c-4.603,2.922-8.559,6.345-11.263,10.156c-0.736,1.039-1.303,2.512-0.682,3.773c0.176,0.361,0.351,0.725,0.527,1.088
						c0.498,1.014,1.542,1.76,2.7,1.445c4.568-0.559,9.558-4.091,14.015-5.578c7.668-2.566,15.413-5.387,23.415-6.676
						c7.489-1.209,14.331,3.971,19.556,8.541c3.31,2.894,7.117,5.268,10.813,7.617c3.285,2.089,7.631,1.86,10.991,3.748
						c0.663,0.371,1.469,0.609,2.319,0.73C323.754,283.821,328.002,280.459,331.898,274.372z"/>
				</g>
				<path fill="#A94D8C" d="M223.701,342.193c-9.557-2.032-18.912-7.261-29.416-5.154c-6.318,1.266-12.898,8.489-18.481,11.646
					c-6.492,3.662-14.923-2.929-21.665-6.849c-5.016,2.847-9.881,6.192-13.162,10.627c3.547,1.272,7.047,2.707,10.711,3.97
					c4.886,1.682,9.266,2.312,13.685,2.233c0.823-0.489,1.648-1,2.476-1.442c11.814-6.305,23.352-9.717,36.482-12.188
					c4.232-0.794,9.204,1.222,13.731,3.314C219.938,346.294,221.809,344.231,223.701,342.193z"/>
				<path fill="#A94D8C" d="M325.049,317.131c-3.667-1.403-7.222-3.052-10.728-4.813c-7.865-0.162-16.202-4.83-24.423-9.09
					c-9.409-4.864-18.892-4.992-28.357-2.411c-9.672,9.586-12.534,29.829-23.734,38.498c-0.209,0.604-0.527,1.206-0.984,1.788
					c-3.266,4.131-6.953,7.839-10.799,11.397c2.563-0.232,5.126-0.889,7.301-1.617c11.598-3.889,15.967-13.622,21.875-23.559
					c3.604-6.076,8.59-12.31,13.785-12.646c13.194-3.813,11.059-1.203,18.594,2.468c8.185,3.98,16.101,8.425,24.395,12.186
					c1.26,0.571,2.575,1.111,3.936,1.62c4.225-0.323,8.49-1.258,12.826-2.681c4.063-1.334,7.028-4.148,9.614-7.432
					C333.656,320.199,328.992,318.636,325.049,317.131z"/>
				<path fill="#6D1D41" d="M118.833,200.008c-2.808,0.931-5.694,1.663-7.975,2.507c-7.25,2.682-12.408,4.953-18.381,10.042
					c-9.521,8.111-10.337,22.4-8.479,33.576c0.403,2.434,3.14,4.19,5.69,4.246c0.471-0.646,0.688-1.489,0.343-2.521
					c-2.775-8.272-0.056-17.455,2.035-25.609c3.383-13.215,14.764-16.357,26.961-18.521
					C118.944,202.489,118.889,201.245,118.833,200.008z"/>
				<path fill="#A94D8C" d="M113.705,220.065c-1.114,0.194-2.228,0.391-3.331,0.629c-2.358,0.507-6.157,1.025-9.242,2.216
					c-0.284,1.657-0.532,3.305-0.728,4.9c-0.886,7.254,0.406,14.324-0.866,21.619c-1.302,7.461-8.241,12.1-15.491,15.035
					c-0.604,1.452-1.347,2.822-2.235,4.116c0.046,2.676,0.137,5.354,0.287,8.029c9.338-2.962,16.352-7.698,24.03-15.719
					c8.054-8.415,4.164-23.775,5.715-33.975C112.25,224.244,112.881,221.987,113.705,220.065z"/>
				<path fill="#6D1D41" d="M159.4,185.162c-0.669-0.681-1.335-1.37-1.987-2.069c-12.596,6.805-23.441,14.186-38.833,12.061
					c-6.156-0.846-11.746-3.436-16.88-6.808c-0.195-0.133-0.393-0.229-0.59-0.354c0.436,1.813,0.618,3.697,0.425,5.668
					c-0.033,0.359-0.108,0.687-0.196,1.004c3.747,2.884,7.661,5.93,12.146,8.12c7.515,3.665,22.632,4.851,30.201,0.649
					C148.512,200.752,153.902,191.033,159.4,185.162z"/>
				<path fill="#A94D8C" d="M179.12,165.927c-0.419,0.242-0.842,0.446-1.267,0.764c-4.3,3.177-9.705,3.311-15.353,2.739
					c-2.389,0.679-4.735,1.296-5.446,1.378c-6.908,0.786-14.232-0.23-21.205-0.131c-0.021,0-0.047,0.003-0.067,0
					c-5.933,2.979-10.607,8.066-13.792,14.033c1.169-0.039,2.333-0.086,3.499-0.143c11.289-5.715,27.69,2.633,39.056-2.52
					c6.323-2.867,14.452-5.413,15.092-13.347C179.724,167.595,179.513,166.686,179.12,165.927z"/>
				<path fill="#6D1D41" d="M261.071,321.883c12.894-9.524,26.461-19.484,34.527-33.256c8.863-15.141,10.76-32.268,25.387-43.644
					c6.528-5.078,14.902-10.246,17.002-18.826c1.818-7.433,1.885-15.388,0.459-22.916c-2.427-12.837-4.521-29.656-14.527-38.624
					c-7.235-3.594-9.448-0.376-12.267,3.842c-2.817,4.219-3.928,4.566-10.261,5.076c-4.219,0.344-6.016-4.558-4.461-7.769
					c5.37-11.097,21.596-7.736,24.556-19.767c3.466-14.076,1.838-27.451-7.05-38.317c-0.437-0.278-0.834-0.583-1.294-0.847
					c-17.585-10.012-72.966-21.691-109.516,0c-27.481,16.312-35.089,30.85-35.34,43.18c-0.177,10.222,9.912,12.992,10.62,21.484
					c0.193,2.316-1.728,4.338-3.79,4.982c-15.794,4.908-8.355,28.572-20.352,39.31c-13.186,11.804-32.347,14.126-44.09,27.642
					c-5.69,6.555-10.881,12.747-19.174,15.957c-11.371,4.399-17.468,9.483-19.455,21.896c-1.086,6.787-2.45,13.232-2.823,19.742
					c6.643,25.77,26.154,26.669,33.979,37.746c11.179,15.822,31.369,19.867,52.865,15.255c4.952-2.049,9.359-5.257,14.076-9.511
					c6.092-5.488,11.128-10.146,19.47-11.397c9.666-1.446,19.87,0.514,29.711-0.58c14.089-1.566,27.598-4.752,40.666-10.321
					C260.355,322.062,260.716,321.959,261.071,321.883z"/>
				<path fill="#6D1D41" d="M261.071,321.883c12.894-9.524,26.461-19.484,34.527-33.256c8.863-15.141,10.76-32.268,25.387-43.644
					c6.528-5.078,14.902-10.246,17.002-18.826c1.818-7.433,1.885-15.388,0.459-22.916c-2.427-12.837-4.004-28.601-11.25-35.76
					s-15.17-5.774-17.988-1.554c-2.817,4.219-1.483,7.098-7.816,7.607c-4.219,0.344-6.016-4.558-4.461-7.769
					c5.37-11.097,21.596-7.736,24.556-19.767c3.466-14.076,1.838-27.451-7.05-38.317c-0.437-0.278-0.834-0.583-1.294-0.847
					c-17.585-10.012-72.966-21.691-109.516,0c-27.481,16.312-35.089,30.85-35.34,43.18c-0.177,10.222,9.912,12.992,10.62,21.484
					c0.193,2.316-1.728,4.338-3.79,4.982c-15.794,4.908-8.355,28.572-20.352,39.31c-13.186,11.804-32.347,14.126-44.09,27.642
					c-5.69,6.555-10.881,12.747-19.174,15.957c-11.371,4.399-17.468,9.483-19.455,21.896c-1.086,6.787-2.45,13.232-2.823,19.742
					c6.643,25.77,26.154,26.669,33.979,37.746c11.179,15.822,31.369,19.867,52.865,15.255c4.952-2.049,9.359-5.257,14.076-9.511
					c6.092-5.488,11.128-10.146,19.47-11.397c9.666-1.446,19.87,0.514,29.711-0.58c14.089-1.566,27.598-4.752,40.666-10.321
					C260.355,322.062,260.716,321.959,261.071,321.883z"/>
				<g>
					<path fill="#A94D8C" d="M233.062,227.967c7.841-8.832,9.735-21.256,3.211-31.186c-2.147-3.27-5.861-5.849-9.108-7.951
						c-0.412-0.264,4.807-14.271,3.305-12.754c1.939-1.957,1.939-5.186,0-7.139c-0.36-0.361-0.72-0.721-1.079-1.085
						c-2.054-2.063-5.465-2.565-7.976-1.028c-10.664,6.526-20.219,21.76-10.539,33.198c2.01,2.372,4.001,3.6,6.361,5.566
						c3.822,3.181,2.395,9.001-0.471,12.655c-4.239,5.399-10.991,4.38-15.938,1.07c4.63,5.598,14.373,9.332,19.902,2.288
						c2.901-3.703,4.348-9.601,0.479-12.823c-2.395-1.994-4.41-3.238-6.449-5.644c-9.807-11.587-0.126-27.025,10.682-33.641
						c1.268-0.777,2.76-1.036,4.201-0.849c-3.897,5.954-7.692,12.358-7.046,19.262c1.019,10.879,24.179,19.579,6.459,27.503
						c-10.604,4.738-12.51,26.507-25.416,14.604c-3.948-3.642-9.906-5.328-15.496-4.943c-3.172-6.304,3.771-11.311,9.099-8.94
						c-0.238-0.282-0.477-0.563-0.686-0.855c-5.045-6.942-16.218-0.882-11.732,6.855c9.461,16.326,32.833,20.884,46.751,7.311
						C232.009,228.893,232.487,228.386,233.062,227.967z"/>
					<path fill="#A94D8C" d="M268.599,200.019c-6.741-6.795-11.005-12.898-12.239-22.656c-1.62-12.822,3.359-28.93-6.602-39.758
						c-9.791-10.646-21.409-9.508-30.995,0.56c-5.577,5.858-11.223,12.534-15.171,19.609c-5.813,10.427-11.006,15.538-22.88,18.553
						c-5.176,1.312-3.806,8.717,1.218,8.983c9.606,0.508,18.806-5.097,24.672-12.508c6.549-8.264,16.062-34.829,29.776-32.939
						c15.385,2.116,5.845,34.545,6.722,44.321c0.399,4.399,1.669,9.099,3.646,13.058c1.243,2.49,8.395,11.163,7.931,12.59
						c-2.068,6.342-4.357,10.039-9.096,14.797c-4.443,4.454-11.076,7.252-14.534,12.639c-2.775,4.319-3.811,8.473-8.266,11.705
						c-8.174,5.936-18.612,0.484-26.541-3.025c-11.105-4.917-21.34-8.877-33.624-6.871c-11.251,1.838-19.322,12.197-28.546,17.698
						c-2.362,1.413-2.286,5.854,0.83,6.349c13.495,2.132,23.053-13.021,37.148-11.703c7.231,0.677,16.484,9.846,22.813,13.492
						c7.322,4.223,14.93,6.934,23.431,6.52c13.304-0.653,24.602-10.807,27.793-23.319c0.645-2.515,4.382-4.479,6.19-5.963
						c3.966-3.261,7.329-7.133,10.565-11.087c4.848-5.916,6.448-12.537,8.57-19.772
						C272.544,207.429,271.434,202.877,268.599,200.019z"/>
					<path fill="#A94D8C" d="M302.188,104.77c-6.873-2.087-14.708,0.739-21.187-0.707c-5.754-0.05-11.304-1.145-16.872-2.147
						c1.365,0.591,2.504,1.406,3.217,2.528c1.918,3.004,2.633,3.705,5.496,5.786c4.619,3.352,12.828,2.407,18.058,2.192
						c1.003-0.026,2.002-0.053,3.003-0.077c5.393-1.075,7.725,2.1,6.998,9.523c-4.575,3.949-8.155,6.625-14.181,8.208
						c-6.796,1.78-12.024-0.188-17.936,4.316c-9.615,7.324-7.822,23.846-5.03,33.943c1.395,5.03,6.284,7.211,6.283,12.397
						c0,6.895,7.98,12.487,10.736,18.365c1.854,3.955,7.943,1.115,6.876-2.899c-0.904-3.411-2.026-4.77-4.17-7.813
						c-3.544-5.028-3.854-8.129-5.382-13.684c-0.696-2.531-4.088-4.769-5.538-6.668c-4.767-6.233-3.956-28.006,6.393-29.27
						c13.918-1.701,32.056-6.092,33.899-23.042C313.524,109.525,306.93,106.217,302.188,104.77z"/>
					<path fill="#A94D8C" d="M282.124,116.902c0.42-1.374-1.437-2.469-2.421-1.408c-2.569,2.765-3.482,0.416-5.405,1.764
						c-5.448,3.832-10.095,1.301-14.35-2.4c-3.89-3.38-8.581-4.742-13.723-5.145c-16.189-1.266-26.653,5.261-40.014,13.576
						c-7.284,4.531-10.909,10.375-17.054,16.29c-6.564,6.314-2.55-0.303-1.01-2.023c3.3-3.688,4.928-7.751,9.035-10.894
						c15.854-12.117,31.586-19.659,50.876-25.037c1.757-0.488,4.502-0.925,7.403-1.004c-1.011-0.105-2.023-0.2-3.043-0.254
						c-10.76-0.561-21.552,1.438-31.834,4.582c-5.253,1.605-10.398,3.443-15.452,5.476c-10.134,6.579-19.198,14.897-25.724,24.831
						c-7.498,11.415,2.713,20.703,13.639,11.826c8.458-6.876,13.707-15.746,24.01-20.354c5.028-2.247,8.342-6.612,13.879-8.044
						c5.779-1.492,20.091-4.106,24.086,2.497C261.708,132.24,278.277,129.429,282.124,116.902z"/>
					<path fill="#A94D8C" d="M295.061,151.582c5.811-0.919,9.041-4.82,14.398-6.039c3.021-0.69,2.404-5.764-0.738-5.46
						c-14.283,1.392-35.588,5.942-32.639,25.056c1.551,10.056,6.487,19.699,15.376,24.822c5.319,3.076,11.482,14.332,3.563,19.67
						c-2.109,1.425-4.852,2.275-7.174,3.274c-3.809,1.646-8.485,3.176-10.711,6.978c-2.257,3.852-1.563,9.779-2.539,13.958
						c-1.838,7.888-10.493,10.553-16.434,14.548c-2.843,1.913-3.891,5.651-5.113,8.676c-3.774,9.314-10.364,15.283-20.02,18.348
						c-6.415,2.039-13.228,3.287-19.762,4.935c-5.964,1.503-17.008-4.378-23.019-5.852c-11.151-2.742-22.298-0.122-30.948,7.113
						c-3.389,2.839,0.337,7.465,3.942,6.773c13.366-2.569,23.681-3.404,36.702,1.326c12.769,4.642,23.501,0.563,36.266-2.76
						c10.067-2.62,20.203-10.651,25.029-19.79c3.266-6.193,3.55-9.259,10.001-14.429c4.396-3.525,7.617-6.307,10.556-11.162
						c1.566-2.584,2.65-6.866,2.746-9.784c0.302-9.057,6.75-8.939,13.34-12.327c6.568-3.377,13.87-10.75,11.445-19.068
						c-1.298-4.44-3.339-8.598-5.459-12.712c-4.008-7.796-11.641-6.596-15.476-16.101
						C285.348,164.019,283.513,153.405,295.061,151.582z"/>
					<path fill="#A94D8C" d="M204.401,202.725c-7.119-7.771-24.504-11.236-31.354-0.985c-1.653,2.477-3.188,4.747-3.332,7.838
						c-0.375,8.093-8.302,9.506-14.357,11.847c-9.728,3.77-20.255,6.277-28.813,12.409c-13.367,9.58-22.719,28.014-20.492,44.581
						c1.827,13.564,30.333,9.872,39.174,8.658c4.22-0.584,4.22-7.909,0-8.487c-6.439-0.887-12.788-0.803-19.28-0.809
						c-2.957-0.003-5.87-1.121-8.804-1.402c-2.279-0.217-1.044-2.986-0.941-5.074c1.009-20.69,17.278-30.785,34.563-37.145
						c6.367-2.342,25.962-5.502,27.734-14.224c1.516-7.499,3.498-16.565,13.838-13.721c4.786,1.319,7.927,1.339,11.76-1.122
						C204.935,204.549,205.073,203.456,204.401,202.725z"/>
					<path fill="#A94D8C" d="M323.089,180.114c-4.056-0.89-8.146-1.581-12.29-2.042c0.465,1.626,1.102,3.277,1.894,4.947
						c3.865,8.15,8.712,12.137,8.556,21.989c-0.02,1.253-5.199,5.065-6.172,6.398c-2.94,4.028-6.113,8.675-9.203,12.587
						c-4.815,6.095-13.39,5.146-17.065,12.503c-4.71,9.436,0.044,19.065-7.846,28.122c-5.894,6.766-14.691,11.373-22.297,15.869
						c-3.907,2.309-6.432,4.979-9.548,8.348c-5.793,6.264-13.43,7.258-21.293,8.873c-10.438,2.146-21.061,3.896-31.654,5.087
						c-8.264,0.925-17.103-4.986-25.495-5.505c-11.354-0.701-22.166,9.834-12.058,20.205c3.605,3.705-2.347,2.656-4.866,3.141
						c-8.676,1.664-16.393,2.354-22.325-5.616c-5.313-7.142-7.75-14.21-16.956-16.751c-8.912-2.463-17.674-3.259-19.7-13.826
						c-0.322-1.682-0.459-3.348-0.512-5.004c-0.485-0.749-0.788-1.678-0.769-2.816c0.072-4.449-7.793-3.484-10.959-1.438
						c-0.314,1.645-0.563,3.326-0.654,5.093c-0.387,7.595,0.751,18.502,7.753,23.152c6.033,4.009,14.189,6.464,21.183,8.106
						c4.791,1.126,7.834,9.404,10.615,13.123c2.963,3.964,6.774,6.483,11.031,8.906c8.246,4.686,19.249,1.163,27.942,0.366
						c7.18-0.651,12.828-5.989,13.591-13.235c0.315-3.02,0.078-5.439-1.498-8.133c-0.392-0.664-0.81-1.163-1.21-1.557
						c0.545,0.168,1.207,0.338,2.028,0.504c9.669,1.953,18.456,6.323,28.543,4.23c11.098-2.294,22.403-3.488,33.537-5.813
						c5.886-1.231,10.947-2.222,16.106-5.334c5.401-3.259,8.439-9.514,13.935-12.532c15.132-8.315,33.94-20.707,34.888-39.901
						c0.212-4.282-0.868-9.127,3.459-11.45c4.371-2.348,9.047-4.951,12.076-9.014c2.799-3.762,5.407-7.778,8.058-11.632
						c2.591-3.77,7.088-6.852,8.363-11.484c1.948-7.075-0.843-16.066-4.429-22.075C326.981,185.055,325.076,182.753,323.089,180.114
						z"/>
				</g>
				<g>
					<path fill="#7C2448" d="M251.371,184.508c-0.268-1.746-0.224-5.603-0.132-10.467c-4.24-8.483-3.684-17.765-6.657-26.657
						c-4.09-12.222-16.707-11.788-23.445-1.796c-2.694,3.99-4.994,8.102-8.262,11.651c-3.322,3.617-8.333,3.979-12.365,6.262
						c-2.433,3.944-4.904,7.011-7.927,9.438c-0.835,1.661-1.661,3.376-2.691,5.097c-3.096,5.163-8.317,6.482-13.843,6.532
						c0.488,1.881,2.033,3.538,4.373,3.66c9.736,0.516,19.058-5.166,25.005-12.675c6.634-8.374,16.273-35.292,30.171-33.377
						c15.59,2.145,5.923,35.003,6.813,44.911c0.4,4.461,1.688,9.221,3.691,13.232c1.261,2.52,8.509,11.311,8.038,12.758
						c-2.096,6.425-4.418,10.175-9.216,14.992c-4.504,4.514-11.228,7.353-14.731,12.81c-2.811,4.377-3.861,8.585-8.373,11.862
						c-8.285,6.014-18.861,0.488-26.897-3.068c-11.253-4.984-21.624-8.994-34.072-6.96c-11.399,1.86-19.578,12.358-28.927,17.936
						c-1.779,1.061-2.186,3.817-0.984,5.371c6.571-9.077,16.154-18.606,26.896-17.83c4.827,0.347,8.705,1.832,12.695,4.614
						c8.646,6.03,14.578,7.771,25.475,5.975c6.567-1.08,12.759-1.682,19.021,1.311c5.025,2.397,15.441,11.182,20.752,5.368
						c6.988-7.656,7.732-20.503,11.579-29.86c1.553-3.775,3.73-8.176,6.966-10.835c3.791-3.116,12.972-6.245,14.918-10.719
						C274.094,202.904,253.09,195.744,251.371,184.508z"/>
					<path fill="#7C2448" d="M146.022,264.361c3.217-1.591,6.363-3.567,9.603-5.296
						C152.213,259.653,148.962,261.677,146.022,264.361z"/>
					<path fill="#7C2448" d="M212.826,270.445c-6.026-2.877-11.935-1.742-17.87-0.771c6.985,3.814,14.249,6.219,22.313,5.824
						c1.494-0.073,2.961-0.284,4.399-0.585C218.81,273.606,216.049,271.983,212.826,270.445z"/>
					<path fill="#7C2448" d="M255.952,241.877c2.275-2.313,4.403-4.772,6.462-7.286c1.349-1.649,2.438-3.357,3.369-5.114
						C261.342,232.564,258.094,235.932,255.952,241.877z"/>
					<path fill="#7C2448" d="M283.328,191.347c-3.591-5.095-3.906-8.238-5.455-13.865c-0.705-2.566-4.143-4.833-5.613-6.757
						c-4.826-6.319-4.006-28.381,6.48-29.662c6.902-0.843,14.815-2.354,21.33-5.675c-0.416-1.204-0.317-2.605,0.614-4.039
						c3.408-5.245,13.624-21.913-3.835-22.137c-3.17-0.043-6.465,0.221-9.721,0.218c1.438,1.062,2.307,2.815,1.768,5.034
						c0.681-0.036,1.34-0.073,1.952-0.098c1.015-0.025,2.026-0.051,3.041-0.075c5.464-1.091,7.828,2.126,7.093,9.649
						c-4.637,4.001-8.264,6.715-14.373,8.318c-6.887,1.807-12.184-0.191-18.173,4.372c-9.745,7.423-7.926,24.166-5.095,34.399
						c1.406,5.094,6.367,7.306,6.364,12.563c-0.003,6.985,8.088,12.651,10.88,18.608c1.88,4.01,8.049,1.131,6.969-2.938
						C286.639,195.808,285.498,194.429,283.328,191.347z"/>
					<path fill="#7C2448" d="M202.649,288.537c14.52,3.372,25.926-5.131,39.596-8.415c13.367-3.211,9.852-23.353,23.684-28.37
						c13.406-4.864,12.479-21.455,23.108-30.373c5.448-4.567,16.478-9.565,14.312-18.549c-1.574-6.543-4.024-13.011-7.669-18.715
						c-4.833-7.555-16.245-4.804-17.33-16.255c-0.743-7.829,4.87-12.386,11.373-15.515c7.807-3.754,14.588-4.383,19.747-9.884
						c-0.186-0.025-0.354-0.082-0.563-0.063c-14.477,1.409-36.063,6.022-33.074,25.39c1.57,10.188,6.573,19.959,15.579,25.154
						c5.396,3.114,11.638,14.521,3.613,19.931c-2.141,1.442-4.919,2.306-7.271,3.319c-3.859,1.667-8.596,3.216-10.855,7.07
						c-2.284,3.901-1.58,9.907-2.57,14.144c-1.865,7.993-10.636,10.689-16.655,14.743c-2.88,1.939-3.939,5.727-5.181,8.787
						c-3.823,9.442-10.502,15.489-20.283,18.597c-6.502,2.065-13.407,3.331-20.027,4.998c-6.045,1.522-17.239-4.435-23.324-5.928
						c-11.303-2.775-22.598-0.125-31.362,7.208c-0.097,0.081-0.167,0.167-0.25,0.25
						C172.471,286.988,187.598,285.044,202.649,288.537z"/>
					<path fill="#7C2448" d="M203.194,205.877c-1.408-1.536-3.218-2.9-5.262-4.035c-0.646,0.309-1.405,0.491-2.289,0.478
						c-5.769-0.075-12.478-0.872-18.025,1.069c-6.242,2.186-4.701,4.424-6.19,9.291c-1.801,5.888-4.109,11.381-9.914,14.129
						c-4.376,2.068-8.962,0.63-13.508,0.018c-4.655,1.628-9.363,3.193-13.868,5.152c-2.294,3.306-3.666,7.629-6.186,11.502
						c-3.437,5.283-9.358,8.524-14.77,11.354c-8.771,4.594-5.252,16-2.479,23.891c3.511,9.982,16.545,14.953,26.193,8.983
						c2.111-1.308,3.789-3.081,5.241-5.072c-6.151-0.749-12.237-0.699-18.447-0.707c-2.995-0.001-5.946-1.134-8.919-1.42
						c-2.31-0.22-1.056-3.026-0.953-5.143c1.02-20.964,17.512-31.193,35.021-37.639c6.453-2.374,26.311-5.575,28.104-14.415
						c1.538-7.599,3.546-16.786,14.023-13.906c4.854,1.338,8.035,1.36,11.918-1.135
						C203.737,207.723,203.875,206.618,203.194,205.877z"/>
					<path fill="#7C2448" d="M326.543,216.648c-0.714-7.792-0.686-17.711-3.063-25.12c-1.764-5.493-4.993-9.176-7.654-14.081
						c-1.125-2.07-1.341-4.049-0.975-5.911c-0.893-0.221-1.802-0.314-2.731-0.239c-0.657,0.444-1.22,0.99-1.71,1.581
						c-0.722,4.045,0.362,8.48,2.52,13.028c3.918,8.262,8.83,12.297,8.67,22.283c-0.02,1.273-5.266,5.137-6.251,6.486
						c-2.981,4.081-6.197,8.789-9.327,12.754c-4.883,6.176-13.569,5.217-17.293,12.671c-0.202,0.405-0.365,0.812-0.533,1.22
						c-0.426,1.498-0.863,3.017-1.348,4.515c-1.475,7.692,0.332,15.413-6.072,22.761c-5.972,6.856-14.887,11.525-22.592,16.08
						c-3.963,2.342-6.519,5.045-9.678,8.461c-5.869,6.346-13.609,7.355-21.577,8.993c-10.577,2.172-21.34,3.945-32.076,5.151
						c-8.374,0.94-17.329-5.053-25.836-5.577c-11.502-0.708-22.458,9.964-12.218,20.475c3.653,3.755-2.377,2.69-4.931,3.183
						c-8.792,1.687-16.612,2.385-22.623-5.693c-5.384-7.234-7.854-14.396-17.183-16.973c-3.063-0.846-6.102-1.506-8.869-2.416
						c-3.075-0.147-6.122-0.455-9.082-1.698c-4.277-1.793-7.986-5.366-10.069-9.524c-1.835-3.668-3.054-7.591-3.601-11.574
						c-0.405,1.641-0.79,3.285-1.21,4.895c-0.005,0.017-0.012,0.028-0.018,0.048c-0.079,0.67-0.144,1.349-0.178,2.038
						c-0.325,6.345,0.41,14.955,4.645,20.43c1.497,0.857,3.182,1.479,5.123,1.76c8.723,1.267,16.287-1.832,24.14,3.305
						c13.594,8.898,10.027,28.222,31.389,26.479c5.318-0.436,14.157-1.714,16.593-7.464c2.432-5.743-1.825-4.21-2.425-8.152
						c-0.582-3.813,0.516-8.716,5.107-9.757c6.464-1.465,14.123,1.021,20.396,2.479c6.88,1.597,13.673,3.213,20.544,4.392
						c13.924-5.929,29.113-8.79,43.48-13.382c3.88-1.243,7.959-2.544,11.969-4.083c1.524-1.566,3.132-3.011,5.044-4.063
						c5.347-2.938,11.136-6.395,16.465-10.455c4.396-6.005,5.276-12.463,6.054-21.103c0.898-9.987,3.635-18.54,12.099-24.709
						c5.298-3.859,14.887-6.574,21.083-11.446c1.191-1.756,2.373-3.517,3.561-5.245c0.55-0.8,1.193-1.567,1.865-2.325
						C326.532,219.759,326.692,218.283,326.543,216.648z"/>
					<path fill="#7C2448" d="M297.899,266.602c1.409-3.296,2.306-6.827,2.496-10.632c0.004-0.074,0.001-0.152,0.004-0.23
						C298.912,259.125,298.302,262.802,297.899,266.602z"/>
					<g>
						<path fill="#7C2448" d="M228.132,227.902c-3.141,2.222-3.899,6.649-5.457,10.597c3.454-1.562,6.687-3.83,9.463-6.927
							c2.488-2.773,4.391-5.905,5.64-9.205C234.819,224.445,231.359,225.613,228.132,227.902z"/>
						<path fill="#7C2448" d="M198.634,230.015c12.906,11.902,14.812-9.866,25.416-14.604c17.721-7.924-5.442-16.624-6.457-27.503
							c-0.65-6.903,3.147-13.308,7.042-19.262c-1.438-0.188-2.932,0.071-4.201,0.849c-10.806,6.615-20.486,22.054-10.678,33.641
							c2.035,2.405,4.053,3.649,6.448,5.644c3.868,3.223,2.42,9.12-0.479,12.823c-5.764,7.345-16.128,2.977-20.48-3.01
							c-5.008-6.89-15.938-1.131-12.107,6.479C188.728,224.687,194.688,226.374,198.634,230.015z"/>
					</g>
				</g>
				<g>
					<path fill="#BB6D92" d="M245.318,227.171c-4.504,4.515-11.228,7.351-14.729,12.81c-2.812,4.379-3.863,8.586-8.376,11.861
						c-8.283,6.014-18.861,0.491-26.896-3.066c-0.743-0.331-1.472-0.638-2.207-0.957c7.612,5.195,16.312,12.143,26.2,9.213
						c9.155-2.71,7.584-10.338,13.261-15.061c5.036-4.192,8.576-9.293,13.792-13.063c3.906-2.823,8.291-9.428,9.13-14.088
						c1.462-8.138-7.88-13.344-10.259-20.374c-1.318-3.886-1.766-7.367-2.447-11.194c-0.054,1.113-0.057,2.11,0.017,2.938
						c0.401,4.462,1.689,9.22,3.691,13.231c1.261,2.52,8.511,11.312,8.038,12.758C252.44,218.603,250.117,222.353,245.318,227.171z"
						/>
					<path fill="#BB6D92" d="M321.157,208.638c-1.526,1.686-4.675,4.122-5.416,5.138c-1.396,1.91-2.847,3.959-4.31,6.005
						C316.647,216.711,321.154,213.03,321.157,208.638z"/>
					<path fill="#BB6D92" d="M155.789,319.633c-0.128-0.162-0.246-0.319-0.362-0.465
						C155.537,319.322,155.67,319.475,155.789,319.633z"/>
					<path fill="#BB6D92" d="M273.757,127.902c3.243-1.489,6.059-4.1,7.745-7.706c-0.063,0.106-0.111,0.214-0.2,0.307
						C278.357,123.684,276.1,126.146,273.757,127.902z"/>
					<path fill="#BB6D92" d="M195.78,279.912c-2.446-0.92-4.719-1.762-6.528-2.207c-5.573-1.369-11.142-1.405-16.41-0.225
						c4.722,0.9,9.547,1.965,14.642,1.973C190.205,279.459,192.977,279.645,195.78,279.912z"/>
					<path fill="#BB6D92" d="M288.204,241.385c-0.832,2.313-1.218,4.634-1.442,6.952c0.74-2.08,1.236-4.212,1.364-6.402
						C288.135,241.752,288.188,241.57,288.204,241.385z"/>
					<path fill="#BB6D92" d="M235.991,141.277c-13.896-1.914-23.537,25.005-30.171,33.377c-3.272,4.135-7.573,7.705-12.396,10.003
						c0.393,0.159,0.834,0.223,1.307,0.117c8.218-1.838,12.949-9.589,17.854-15.935c3.923-5.075,6.223-11.871,9.366-17.456
						c8.667-15.394,19.507-3.902,20.658,6.184c0.922,8.08-1.557,16.574-0.053,24.384c0.084,0.445,0.153,0.865,0.231,1.301
						C243.356,171.001,250.281,143.243,235.991,141.277z"/>
					<path fill="#BB6D92" d="M197.634,207c-0.294-0.866-1.518-1.383-2.207-0.582c-2.964,3.46-15.01-1.581-18.173,5.713
						c-2.091,4.824-1.812,12.376-5.927,13.861c-3.879,1.396-6.248,5.316-10.841,5.451c-3.275,0.094-6.609,1.943-9.562,3.119
						c-6.354,2.527-14.853,5.43-19.843,10.131c-10.871,10.243-22.71,16.761-22.183,33.296c0.395,12.355,22.308,13.1,30.73,12.531
						c2.647-0.178,3.886-2.163,3.722-4.126c-0.462-0.381-1.019-0.66-1.697-0.754c-6.523-0.896-12.958-0.809-19.539-0.818
						c-2.993-0.001-5.945-1.134-8.918-1.42c-2.311-0.219-1.056-3.025-0.954-5.141c1.023-20.965,17.512-31.195,35.022-37.641
						c6.452-2.373,26.312-5.574,28.104-14.414c1.537-7.6,3.547-16.788,14.023-13.906c1.342,0.37,2.549,0.626,3.686,0.771
						C196.434,212.075,198.823,210.527,197.634,207z"/>
					<path fill="#BB6D92" d="M166.627,308.542c0.381-0.025,0.763-0.014,1.14-0.017c0.191-0.348,0.397-0.69,0.614-1.029
						c-4.722-1.32-8.962-2.197-12.759-1.203c-2.89,3.43-3.619,8.08-0.195,12.875c0.116,0.146,0.234,0.303,0.362,0.465
						c0.423,0.547,0.866,1.096,1.403,1.646c3.653,3.754-2.378,2.691-4.932,3.182c-8.791,1.688-16.61,2.385-22.622-5.692
						c-5.383-7.235-7.854-14.396-17.183-16.973c-9.033-2.495-17.907-3.302-19.961-14.01c-0.679-3.527-0.603-6.988-0.432-10.431
						c-1.212-2.535-2.762-4.936-5.054-7.531c-1.103-1.25-3.16-0.229-3.171,1.313c-0.08,12.915,2.787,30.592,16.147,35.486
						c12.397,4.541,22.335,9.326,32.848,17.493c6.751,5.246,11.946,8.273,20.873,7.574c3.754-0.292,10.304-2.914,10.546-7.366
						c0.127-2.33,0.125-4.438-1.122-6.562C158.579,309.993,158.625,309.096,166.627,308.542z"/>
					<path fill="#BB6D92" d="M317.68,172.072c-0.14-0.229-0.237-0.49-0.39-0.707c-0.075-0.035-0.153-0.059-0.231-0.091
						c-3.542,5.257-2.92,12.356-0.835,19.046c3.073,5.189,5.892,9.377,5.771,16.97c-0.006,0.316-0.333,0.793-0.837,1.349
						c-0.004,4.392-4.511,8.072-9.726,11.143c-1.665,2.322-3.353,4.639-5.017,6.749c-4.882,6.176-13.569,5.216-17.292,12.671
						c-0.362,0.725-0.656,1.453-0.919,2.185c-0.017,0.185-0.069,0.366-0.078,0.55c-0.128,2.19-0.624,4.322-1.364,6.402
						c-0.646,6.558-0.136,13.094-5.593,19.358c-2.38,2.731-5.255,5.092-8.309,7.259c-9.55,30.36-43.147,37.459-72.676,34.434
						c-7.095,0.564-13.36,1.612-20.096,0.882c-0.334,0.223-0.655,0.457-0.962,0.702c6.714,2.525,13.46,6.098,20.625,6.28
						c12.479,0.321,23.014-4.858,35.286-5.604c3.085-0.186,6.069-0.107,9.018-0.232c2.459-0.774,4.851-1.76,7.257-3.211
						c5.476-3.302,8.553-9.641,14.12-12.698c1.414-0.776,2.864-1.601,4.323-2.448c1.919-1.929,3.771-3.911,5.166-6.445
						c1.647-2.99,0.971-7.276,3.111-10.024c1.975-2.54,3.75-5.613,5.357-8.419c4.281-7.47,11.572-12.863,12.269-22.062
						c0.89-11.761,13.935-15.862,23.743-21.92c2.183-2.796,4.152-5.708,5.633-8.905C332.266,199.666,318.793,187.14,317.68,172.072z
						"/>
					<path fill="#BB6D92" d="M309.3,141.498c-14.476,1.411-36.062,6.024-33.076,25.392c1.571,10.187,6.576,19.961,15.581,25.153
						c5.395,3.115,11.637,14.522,3.612,19.932c-2.14,1.442-4.917,2.305-7.269,3.319c-3.859,1.667-8.596,3.216-10.855,7.071
						c-2.285,3.9-1.582,9.906-2.57,14.143c-1.865,7.992-10.637,10.689-16.657,14.743c-2.879,1.939-3.938,5.727-5.179,8.788
						c-3.63,8.961-9.867,14.83-18.852,18.066c-0.443,0.302-0.915,0.585-1.404,0.855c-5.627,4.309-11.922,5.287-18.434,4.29
						c-0.538,0.131-1.086,0.247-1.621,0.38c-4.245,1.073-11.025-1.546-16.797-3.719c-2.803-0.267-5.574-0.453-8.297-0.459
						c-5.095-0.008-9.92-1.072-14.642-1.973c-4.523,1.014-8.798,2.979-12.682,5.748c22.521-4.413,45.077,6.457,68.3,5.691
						c0.928-0.031,1.716,0.16,2.385,0.484c7.994-0.69,14.43-7.854,18.193-14.269c2.566-4.372,4.43-9.866,7.674-13.716
						c3.899-4.631,11.47-6.09,14.727-11.389c2.713-4.422,4.047-8.843,5.204-13.907c2.026-8.886,5.849-10.933,13.158-14.307
						c9.526-4.396,12.021-13.218,8.958-22.738c-1.726-5.378-5.674-9.507-8.315-14.355c-3.945-7.238-12.929-6.06-12.801-17.302
						c0.177-15.242,21.85-19.253,33.097-23.388c0.474-0.173,0.813-0.489,1.078-0.849C311.447,142.168,310.602,141.373,309.3,141.498
						z"/>
					<path fill="#BB6D92" d="M205.808,281.021c-3.353-0.371-6.71-0.794-10.028-1.109c5.771,2.173,12.552,4.792,16.797,3.719
						c0.535-0.133,1.083-0.249,1.621-0.38C211.429,282.828,208.619,282.056,205.808,281.021z"/>
					<path fill="#BB6D92" d="M160.159,283.228c3.884-2.77,8.158-4.734,12.682-5.748c-7.825-1.488-15.365-2.518-23.378,2.5
						c-2.784,1.744-2.346,5.084-0.551,6.855C152.662,285.127,156.409,283.963,160.159,283.228z"/>
					<path fill="#BB6D92" d="M265.664,124.902c-3.611,0.292-7.286-0.195-11.012-1.609c-5.143-1.949-9.852-3.52-14.529-4.205
						c2.282,0.805,4.554,2.33,6.541,2.949c5.01,1.566,7.863,4.086,13.364,4.728c7.554,0.883,11.571-0.093,15.357-2.924
						C272.323,125.244,268.887,125.62,265.664,124.902z"/>
					<path fill="#BB6D92" d="M222.043,121.566c-1.257,0.871-2.554,1.696-3.998,2.34c-10.44,4.666-15.762,13.657-24.331,20.624
						c-8.12,6.599-15.819,3.276-16.367-3.515c-3.703-0.194-5.713,5.847-2.011,7.841c7.506,4.045,17.885,0.571,24.261-4.344
						c3.542-2.728,6.146-5.309,7.766-9.386c2.758-6.942,12.874-7.65,18.659-10.509c3.056-1.509,5.805-3.152,8.578-5.128
						c0.531-0.379,1.079-0.616,1.634-0.758C231.705,118.576,227.093,119.384,222.043,121.566z"/>
					<path fill="#BB6D92" d="M281.709,119.656c-0.075,0.178-0.129,0.37-0.207,0.54C281.603,120.023,281.672,119.845,281.709,119.656
						z"/>
					<path fill="#BB6D92" d="M222.74,109.109c-15.737,6.561-32.411,20.96-35.855,25.563c-3.444,4.602-2.745,8.502-3.1,9.296
						c4.387-3.272,7.76-7.364,11.972-11.415c6.791-6.521,14.181-10.379,22.396-14.751c7.011-3.729,13.197-8.257,20.673-11.239
						c6.301-2.514,12.187-1.701,18.124-6.013c0.093-0.069,0.168-0.148,0.231-0.243C245.42,99.78,230.033,106.068,222.74,109.109z"/>
				</g>
				<path fill="#6D1D41" d="M290.109,290.427c2.115-1.054,3.804-4.64,4.419-6.75c0.939-3.216,5.705-5.112,9.134-4.675
					c8.48,1.086,17.404,1.932,25.007-2.542c4.065-2.39,9.831-6.268,10.516-11.185c-1.757-0.802-4.15-0.609-5.699,0.767
					c-6.411,5.679-8.371,13.168-18.33,12.531c-6.793-0.436-12.068-4.642-19.113-3.601c-5.683,0.841-9.062,5.442-11.916,9.915
					c-1.879,2.937-2.386,5.679-4.373,7.817C283.289,292.547,286.76,292.09,290.109,290.427z"/>
				<path fill="#BB6D92" d="M199.865,225.713c-0.005,0.327,0.008,0.654,0.056,0.977c1.438-0.365,2.861-0.574,4.311-0.616
					c0.77-0.31,1.667-0.345,2.597,0.064c0.097,0.042,0.206,0.066,0.304,0.106c0.439,0.058,0.873,0.097,1.32,0.187
					c0.148,0.03,0.566,0.113,1.146,0.22c1.162-0.42,2.281-0.936,3.328-1.59c3.774-2.359,8.313-6.295,11.674-10.412
					c0.606-1.77,1.56-3.602,2.598-6.004c1.697-3.925-4.514-6.36-6.236-8.964c-1.827-2.762-4.194-6.418-3.894-9.97
					c0.445-5.262,3.209-9.188,6.445-12.972c-0.455-1.238-2.034-1.958-3.34-1.442c-4.77,7.078-9.59,13.515-3.927,22.46
					c3.169,5.005,5.751,10.942,3.506,16.845C216.82,222.306,207.24,222.867,199.865,225.713z"/>
			</g>
		</g>
	</g>
</g>
</svg>
