<?xml version="1.0" encoding="utf-8"?>
<!-- Generator: Adobe Illustrator 18.1.1, SVG Export Plug-In . SVG Version: 6.00 Build 0)  -->
<svg version="1.1" id="Layer_2" xmlns="http://www.w3.org/2000/svg" xmlns:xlink="http://www.w3.org/1999/xlink" x="0px" y="0px"
	 width="450px" height="450px" viewBox="-74 76 450 450" enable-background="new -74 76 450 450" xml:space="preserve">
<g>
	<g opacity="0.3">
		<path d="M264.494,363.246c-4.469,8.689-10.466,16.535-13.675,25.953c-2.129,6.247-4.649,14.666-11.151,17.865
			c-3.055,1.502-6.576,2.048-10.211,2.292c-7.997,5.569-17.381,9.237-22.547,18.037c-3.972,6.76-6.438,13.924-7.909,21.346
			c1.894,0.277,3.864-0.171,5.023-1.63c0.264-0.333,0.572-0.645,0.851-0.967c0.3-8.29,4.737-16.424,12.375-22.175
			c5.788-4.355,12.456-6.13,19.264-7.39c0.819-0.27,1.612-0.577,2.459-0.804c4.347-1.166,9.933-2.003,13.593-4.808
			c4.907-3.766,4.156-11.477,4.741-16.943c1.151-10.765,7.558-19.759,10.206-30.048
			C266.566,363.576,265.539,363.365,264.494,363.246z"/>
		<path d="M301.541,354.146c5.951-9.304,9.604-19.696,19.28-26.225c8.463-5.708,14.639-10.805,24.034-12.646
			c-10.402-2.871-20.75,1.92-31.267,6.42c-4.128,1.771-6.295,5.725-9.443,8.684c-5.756,5.425-11.294,11.103-17.094,16.483
			c-2.091-0.576-4.221-1.055-6.39-1.887c-4.692-1.801-9.287-6.627-13.289-9.7c-2.498-1.915-5.377-3.653-8.433-5.068
			c-7.146,0.171-14.565,4.227-20.915,6.564c-6.446,2.37-12.336,4.496-19.221,5.216c-3.675,0.385-7.413-1.335-10.962-3.596
			c-5.075,3.221-9.436,6.995-12.418,11.198c-0.811,1.146-1.436,2.77-0.751,4.161c0.194,0.398,0.386,0.798,0.582,1.199
			c0.549,1.118,1.7,1.94,2.977,1.594c5.037-0.617,10.538-4.511,15.452-6.151c8.455-2.829,16.994-5.939,25.817-7.36
			c8.257-1.333,15.8,4.378,21.561,9.417c3.649,3.191,7.846,5.808,11.923,8.398c3.622,2.304,8.413,2.051,12.118,4.133
			c0.731,0.41,1.619,0.672,2.557,0.806C292.562,364.565,297.245,360.858,301.541,354.146z"/>
		<path d="M182.247,428.924c-10.536-2.241-20.852-8.005-32.432-5.684c-6.967,1.396-14.221,9.36-20.377,12.841
			c-7.158,4.038-16.453-3.229-23.887-7.551c-5.531,3.139-10.894,6.828-14.513,11.717c3.911,1.403,7.77,2.985,11.81,4.377
			c5.387,1.854,10.216,2.549,15.089,2.463c0.907-0.539,1.818-1.103,2.73-1.591c13.025-6.95,25.746-10.714,40.224-13.437
			c4.667-0.876,10.148,1.347,15.14,3.654C178.098,433.445,180.161,431.171,182.247,428.924z"/>
		<path d="M293.99,401.291c-4.043-1.547-7.962-3.365-11.828-5.307c-8.672-0.179-17.863-5.325-26.928-10.022
			c-10.374-5.363-20.829-5.504-31.265-2.658c-10.664,10.569-13.82,32.889-26.169,42.446c-0.23,0.665-0.582,1.33-1.086,1.972
			c-3.6,4.554-7.665,8.642-11.906,12.566c2.826-0.255,5.652-0.98,8.05-1.783c12.787-4.287,17.604-15.019,24.119-25.975
			c3.974-6.7,9.47-13.573,15.198-13.944c14.548-4.204,12.193-1.327,20.502,2.721c9.024,4.388,17.752,9.289,26.897,13.435
			c1.388,0.63,2.839,1.225,4.339,1.786c4.658-0.356,9.362-1.386,14.141-2.955c4.479-1.471,7.75-4.574,10.601-8.194
			C303.479,404.674,298.338,402.951,293.99,401.291z"/>
		<path d="M66.623,272.154c-3.096,1.026-6.279,1.834-8.793,2.765c-7.994,2.957-13.681,5.461-20.266,11.072
			c-10.498,8.944-11.397,24.698-9.349,37.02c0.445,2.683,3.461,4.62,6.274,4.682c0.519-0.712,0.759-1.642,0.378-2.78
			c-3.06-9.121-0.061-19.246,2.244-28.237c3.73-14.569,16.278-18.036,29.726-20.42C66.745,274.891,66.685,273.519,66.623,272.154z"
			/>
		<path d="M60.97,294.27c-1.229,0.214-2.456,0.431-3.673,0.693c-2.601,0.559-6.788,1.131-10.189,2.443
			c-0.313,1.828-0.587,3.644-0.803,5.403c-0.977,7.999,0.448,15.793-0.955,23.837c-1.435,8.226-9.087,13.34-17.08,16.578
			c-0.665,1.6-1.484,3.111-2.464,4.538c0.051,2.95,0.151,5.904,0.317,8.853c10.296-3.266,18.029-8.488,26.495-17.331
			c8.879-9.277,4.591-26.214,6.301-37.459C59.364,298.877,60.061,296.389,60.97,294.27z"/>
		<path d="M111.35,255.787c-0.738-0.751-1.471-1.511-2.191-2.282c-13.888,7.503-25.845,15.641-42.816,13.297
			c-6.788-0.932-12.951-3.788-18.611-7.506c-0.216-0.146-0.433-0.252-0.65-0.39c0.479,1.998,0.682,4.076,0.468,6.249
			c-0.037,0.396-0.119,0.758-0.216,1.108c4.131,3.179,8.447,6.538,13.392,8.952c8.286,4.042,24.953,5.348,33.298,0.716
			C99.346,272.975,105.289,262.26,111.35,255.787z"/>
		<path d="M133.094,234.579c-0.463,0.267-0.929,0.492-1.396,0.842c-4.742,3.503-10.7,3.65-16.928,3.02
			c-2.634,0.748-5.221,1.43-6.005,1.519c-7.616,0.867-15.692-0.254-23.379-0.144c-0.023,0-0.051,0.003-0.075,0
			c-6.541,3.284-11.695,8.894-15.206,15.473c1.289-0.043,2.572-0.095,3.858-0.158c12.447-6.3,30.53,2.902,43.062-2.778
			c6.972-3.161,15.934-5.969,16.639-14.715C133.759,236.418,133.527,235.416,133.094,234.579z"/>
		<path d="M223.449,406.53c14.216-10.501,29.175-21.482,38.068-36.667c9.773-16.694,11.864-35.577,27.991-48.12
			c7.198-5.599,16.43-11.297,18.745-20.757c2.005-8.194,2.078-16.966,0.506-25.266c-2.675-14.153-4.984-32.698-16.017-42.586
			c-7.977-3.962-10.417-0.415-13.525,4.236c-3.106,4.652-4.33,5.035-11.312,5.597c-4.652,0.378-6.634-5.025-4.919-8.566
			c5.921-12.234,23.81-8.529,27.074-21.794c3.821-15.52,2.027-30.267-7.773-42.247c-0.481-0.307-0.919-0.643-1.426-0.934
			c-19.389-11.039-80.45-23.916-120.748,0c-30.3,17.984-38.688,34.013-38.965,47.609c-0.194,11.269,10.929,14.324,11.71,23.688
			c0.212,2.554-1.906,4.783-4.179,5.493c-17.414,5.411-9.213,31.504-22.439,43.342c-14.538,13.014-35.665,15.574-48.612,30.477
			c-6.274,7.226-11.997,14.054-21.14,17.593c-12.538,4.851-19.259,10.456-21.45,24.142c-1.197,7.483-2.702,14.589-3.113,21.767
			c7.324,28.412,28.837,29.404,37.464,41.617c12.326,17.445,34.587,21.905,58.288,16.82c5.46-2.259,10.319-5.796,15.52-10.486
			c6.717-6.052,12.269-11.186,21.467-12.566c10.657-1.595,21.908,0.566,32.758-0.64c15.535-1.727,30.429-5.239,44.838-11.38
			C222.66,406.729,223.058,406.614,223.449,406.53z"/>
		<path d="M223.449,406.53c14.216-10.501,29.175-21.482,38.068-36.667c9.773-16.694,11.864-35.577,27.991-48.12
			c7.198-5.599,16.43-11.297,18.745-20.757c2.005-8.194,2.078-16.966,0.506-25.266c-2.675-14.153-4.415-31.534-12.404-39.428
			c-7.989-7.893-16.725-6.367-19.833-1.713c-3.106,4.652-1.635,7.826-8.617,8.388c-4.652,0.378-6.634-5.025-4.919-8.566
			c5.921-12.234,23.81-8.529,27.074-21.794c3.821-15.52,2.027-30.267-7.773-42.247c-0.481-0.307-0.919-0.643-1.426-0.934
			c-19.389-11.039-80.45-23.916-120.748,0c-30.3,17.984-38.688,34.013-38.965,47.609c-0.194,11.269,10.929,14.324,11.71,23.688
			c0.212,2.554-1.906,4.783-4.179,5.493c-17.414,5.411-9.213,31.504-22.439,43.342c-14.538,13.014-35.665,15.574-48.612,30.477
			c-6.274,7.226-11.997,14.054-21.14,17.593c-12.538,4.851-19.259,10.456-21.45,24.142c-1.197,7.483-2.702,14.589-3.113,21.767
			c7.324,28.412,28.837,29.404,37.464,41.617c12.326,17.445,34.587,21.905,58.288,16.82c5.46-2.259,10.319-5.796,15.52-10.486
			c6.717-6.052,12.269-11.186,21.467-12.566c10.657-1.595,21.908,0.566,32.758-0.64c15.535-1.727,30.429-5.239,44.838-11.38
			C222.66,406.729,223.058,406.614,223.449,406.53z"/>
		<path d="M192.568,302.982c8.645-9.738,10.733-23.435,3.541-34.385c-2.368-3.604-6.463-6.448-10.043-8.767
			c-0.454-0.29,5.3-15.734,3.644-14.062c2.139-2.158,2.139-5.717,0-7.871c-0.396-0.398-0.793-0.794-1.189-1.196
			c-2.264-2.275-6.025-2.829-8.793-1.134c-11.758,7.196-22.293,23.993-11.621,36.604c2.216,2.615,4.411,3.969,7.014,6.138
			c4.214,3.506,2.64,9.924-0.519,13.952c-4.674,5.954-12.118,4.829-17.571,1.181c5.105,6.171,15.847,10.289,21.943,2.523
			c3.199-4.083,4.795-10.586,0.527-14.138c-2.64-2.199-4.863-3.571-7.11-6.223c-10.813-12.775-0.139-29.797,11.777-37.091
			c1.398-0.857,3.043-1.143,4.632-0.935c-4.297,6.564-8.481,13.626-7.768,21.236c1.123,11.996,26.658,21.588,7.121,30.325
			c-11.692,5.224-13.793,29.225-28.023,16.102c-4.353-4.015-10.922-5.874-17.085-5.45c-3.498-6.951,4.158-12.472,10.032-9.858
			c-0.264-0.312-0.526-0.622-0.756-0.944c-5.562-7.654-17.881-0.972-12.936,7.559c10.432,18.001,36.201,23.026,51.546,8.06
			C191.407,304.003,191.934,303.444,192.568,302.982z"/>
		<path d="M231.75,272.168c-7.433-7.491-12.133-14.221-13.495-24.98c-1.786-14.138,3.703-31.897-7.279-43.836
			c-10.795-11.737-23.605-10.483-34.174,0.617c-6.15,6.46-12.374,13.82-16.727,21.621c-6.41,11.496-12.135,17.132-25.227,20.455
			c-5.707,1.446-4.196,9.611,1.343,9.904c10.591,0.56,20.734-5.619,27.202-13.79c7.221-9.111,17.709-38.401,32.831-36.318
			c16.963,2.333,6.445,38.088,7.412,48.868c0.439,4.851,1.839,10.032,4.018,14.397c1.372,2.745,9.256,12.307,8.745,13.881
			c-2.28,6.992-4.805,11.068-10.029,16.314c-4.899,4.911-12.213,7.995-16.026,13.934c-3.06,4.763-4.201,9.342-9.113,12.906
			c-9.012,6.544-20.522,0.534-29.263-3.335c-12.244-5.421-23.528-9.788-37.073-7.576c-12.405,2.027-21.304,13.448-31.474,19.513
			c-2.604,1.557-2.521,6.455,0.916,7c14.88,2.35,25.417-14.357,40.959-12.904c7.974,0.746,18.175,10.856,25.152,14.876
			c8.073,4.655,16.462,7.646,25.834,7.188c14.669-0.72,27.126-11.914,30.645-25.711c0.71-2.773,4.831-4.939,6.824-6.574
			c4.373-3.596,8.082-7.864,11.649-12.224c5.345-6.523,7.11-13.823,9.45-21.8C236.1,280.339,234.876,275.319,231.75,272.168z"/>
		<path d="M268.783,167.15c-7.577-2.302-16.216,0.814-23.359-0.779c-6.344-0.055-12.463-1.262-18.603-2.368
			c1.506,0.652,2.761,1.551,3.547,2.788c2.114,3.312,2.902,4.085,6.06,6.38c5.093,3.695,14.143,2.654,19.91,2.416
			c1.106-0.028,2.207-0.058,3.31-0.085c5.946-1.186,8.518,2.315,7.717,10.5c-5.045,4.355-8.992,7.305-15.636,9.05
			c-7.493,1.964-13.258-0.207-19.775,4.76c-10.601,8.075-8.624,26.291-5.546,37.424c1.537,5.546,6.929,7.951,6.927,13.669
			c0,7.602,8.8,13.768,11.838,20.25c2.045,4.36,8.758,1.229,7.581-3.197c-0.997-3.761-2.234-5.259-4.597-8.614
			c-3.907-5.544-4.251-8.962-5.934-15.087c-0.768-2.791-4.508-5.257-6.106-7.352c-5.256-6.873-4.362-30.879,7.048-32.272
			c15.346-1.876,35.343-6.717,37.376-25.406C281.283,172.392,274.012,168.744,268.783,167.15z"/>
		<path d="M246.663,180.525c0.463-1.514-1.584-2.722-2.67-1.552c-2.833,3.048-3.839,0.459-5.959,1.945
			c-6.007,4.224-11.13,1.433-15.822-2.647c-4.289-3.726-9.461-5.229-15.13-5.672c-17.85-1.396-29.388,5.8-44.118,14.968
			c-8.032,4.997-12.029,11.44-18.803,17.961c-7.237,6.962-2.811-0.333-1.113-2.23c3.639-4.067,5.433-8.546,9.962-12.011
			c17.48-13.36,34.826-21.676,56.094-27.605c1.937-0.539,4.964-1.02,8.163-1.108c-1.114-0.116-2.231-0.221-3.355-0.28
			c-11.863-0.617-23.762,1.585-35.099,5.053c-5.791,1.77-11.465,3.796-17.037,6.037c-11.173,7.254-21.167,16.425-28.361,27.378
			c-8.267,12.586,2.99,22.827,15.037,13.039c9.325-7.581,15.114-17.361,26.472-22.44c5.544-2.478,9.198-7.291,15.303-8.869
			c6.372-1.645,22.152-4.528,26.557,2.753C224.153,197.436,242.42,194.338,246.663,180.525z"/>
		<path d="M260.925,218.762c6.407-1.013,9.969-5.315,15.876-6.659c3.33-0.761,2.65-6.355-0.814-6.02
			c-15.749,1.534-39.239,6.553-35.987,27.626c1.71,11.087,7.153,21.719,16.953,27.368c5.866,3.392,12.66,15.802,3.929,21.687
			c-2.325,1.571-5.348,2.509-7.909,3.61c-4.199,1.814-9.355,3.501-11.81,7.693c-2.488,4.246-1.723,10.782-2.799,15.389
			c-2.027,8.697-11.569,11.636-18.119,16.04c-3.134,2.11-4.29,6.231-5.639,9.566c-4.161,10.269-11.427,16.85-22.072,20.23
			c-7.073,2.247-14.584,3.624-21.789,5.44c-6.576,1.657-18.752-4.826-25.379-6.451c-12.296-3.023-24.585-0.134-34.122,7.843
			c-3.736,3.129,0.371,8.231,4.347,7.468c14.737-2.833,26.109-3.753,40.466,1.463c14.078,5.118,25.912,0.62,39.985-3.043
			c11.1-2.889,22.276-11.744,27.597-21.82c3.6-6.828,3.914-10.208,11.027-15.908c4.846-3.887,8.399-6.954,11.639-12.307
			c1.726-2.849,2.922-7.571,3.027-10.788c0.333-9.985,7.443-9.856,14.709-13.591c7.242-3.723,15.293-11.853,12.619-21.024
			c-1.431-4.896-3.682-9.48-6.019-14.015c-4.42-8.596-12.835-7.272-17.064-17.752C250.217,232.476,248.194,220.772,260.925,218.762z
			"/>
		<path d="M160.968,275.151c-7.849-8.568-27.018-12.389-34.57-1.086c-1.823,2.731-3.514,5.234-3.673,8.642
			c-0.413,8.922-9.153,10.481-15.83,13.062c-10.725,4.156-22.333,6.921-31.767,13.682c-14.739,10.563-25.049,30.887-22.595,49.153
			c2.015,14.956,33.444,10.884,43.193,9.546c4.652-0.643,4.652-8.72,0-9.357c-7.1-0.979-14.1-0.886-21.258-0.892
			c-3.26-0.003-6.473-1.236-9.707-1.546c-2.513-0.239-1.151-3.294-1.038-5.596c1.113-22.812,19.05-33.942,38.108-40.954
			c7.02-2.582,28.625-6.067,30.578-15.682c1.672-8.269,3.858-18.264,15.258-15.128c5.277,1.454,8.74,1.476,12.966-1.237
			C161.556,277.161,161.709,275.957,160.968,275.151z"/>
		<path d="M291.829,250.221c-4.471-0.982-8.982-1.743-13.551-2.252c0.513,1.793,1.216,3.614,2.088,5.455
			c4.262,8.987,9.606,13.382,9.433,24.245c-0.022,1.382-5.732,5.586-6.805,7.055c-3.242,4.441-6.74,9.564-10.146,13.878
			c-5.31,6.72-14.763,5.673-18.817,13.785c-5.193,10.403,0.048,21.021-8.651,31.006c-6.498,7.46-16.198,12.54-24.583,17.497
			c-4.309,2.546-7.092,5.49-10.528,9.204c-6.387,6.906-14.807,8.002-23.477,9.783c-11.508,2.367-23.22,4.295-34.9,5.609
			c-9.111,1.02-18.857-5.498-28.111-6.07c-12.518-0.773-24.439,10.843-13.294,22.278c3.975,4.085-2.587,2.929-5.365,3.463
			c-9.566,1.834-18.074,2.596-24.615-6.193c-5.858-7.874-8.546-15.667-18.696-18.468c-9.826-2.717-19.487-3.594-21.721-15.245
			c-0.355-1.854-0.506-3.692-0.564-5.518c-0.536-0.826-0.869-1.849-0.848-3.105c0.08-4.906-8.592-3.843-12.083-1.585
			c-0.347,1.813-0.62,3.667-0.721,5.616c-0.426,8.374,0.828,20.399,8.548,25.527c6.652,4.42,15.646,7.126,23.356,8.937
			c5.282,1.242,8.637,10.369,11.704,14.47c3.267,4.37,7.47,7.148,12.163,9.82c9.092,5.166,21.223,1.282,30.809,0.403
			c7.916-0.718,14.143-6.604,14.984-14.593c0.348-3.329,0.086-5.997-1.652-8.967c-0.431-0.731-0.892-1.282-1.333-1.716
			c0.6,0.186,1.33,0.373,2.236,0.555c10.66,2.154,20.349,6.972,31.471,4.665c12.236-2.529,24.701-3.846,36.977-6.41
			c6.49-1.358,12.07-2.45,17.759-5.881c5.955-3.594,9.306-10.49,15.364-13.818c16.684-9.168,37.421-22.83,38.466-43.994
			c0.234-4.722-0.957-10.063,3.814-12.624c4.819-2.589,9.974-5.46,13.314-9.939c3.086-4.148,5.962-8.576,8.884-12.825
			c2.856-4.156,7.814-7.554,9.221-12.662c2.148-7.801-0.929-17.714-4.882-24.339C296.119,255.669,294.02,253.13,291.829,250.221z"/>
		<path d="M212.756,255.066c-0.295-1.925-0.247-6.178-0.146-11.541c-4.675-9.354-4.062-19.586-7.34-29.391
			c-4.509-13.475-18.42-12.997-25.85-1.98c-2.97,4.4-5.506,8.932-9.108,12.846c-3.663,3.988-9.188,4.388-13.634,6.904
			c-2.682,4.348-5.407,7.73-8.74,10.407c-0.92,1.831-1.831,3.722-2.967,5.619c-3.413,5.693-9.171,7.148-15.263,7.203
			c0.539,2.073,2.242,3.901,4.821,4.035c10.735,0.569,21.012-5.695,27.57-13.974c7.314-9.233,17.943-38.912,33.265-36.801
			c17.19,2.365,6.531,38.594,7.513,49.518c0.441,4.919,1.861,10.166,4.07,14.589c1.39,2.778,9.382,12.471,8.863,14.067
			c-2.31,7.083-4.871,11.218-10.161,16.53c-4.965,4.977-12.379,8.106-16.243,14.123c-3.098,4.826-4.257,9.465-9.231,13.079
			c-9.135,6.63-20.797,0.539-29.656-3.383c-12.407-5.495-23.842-9.916-37.567-7.674c-12.569,2.051-21.586,13.626-31.893,19.775
			c-1.962,1.169-2.41,4.209-1.086,5.922c7.246-10.009,17.812-20.515,29.656-19.659c5.322,0.383,9.597,2.02,13.997,5.088
			c9.533,6.649,16.074,8.567,28.088,6.587c7.241-1.191,14.067-1.854,20.973,1.445c5.541,2.643,17.024,12.329,22.88,5.919
			c7.705-8.441,8.526-22.606,12.767-32.923c1.712-4.163,4.113-9.014,7.68-11.946c4.179-3.436,14.302-6.886,16.448-11.818
			C237.808,275.348,214.65,267.454,212.756,255.066z"/>
		<path d="M96.6,343.109c3.547-1.755,7.017-3.934,10.588-5.839C103.426,337.918,99.842,340.151,96.6,343.109z"/>
		<path d="M170.257,349.818c-6.644-3.173-13.158-1.922-19.702-0.851c7.702,4.206,15.71,6.856,24.601,6.422
			c1.648-0.081,3.266-0.314,4.851-0.645C176.854,353.302,173.811,351.513,170.257,349.818z"/>
		<path d="M217.806,318.319c2.509-2.551,4.856-5.262,7.125-8.033c1.488-1.819,2.688-3.702,3.715-5.639
			C223.748,308.051,220.167,311.765,217.806,318.319z"/>
		<path d="M247.989,262.607c-3.959-5.617-4.307-9.083-6.014-15.288c-0.778-2.829-4.567-5.329-6.189-7.45
			c-5.322-6.967-4.416-31.292,7.145-32.705c7.611-0.929,16.336-2.595,23.519-6.257c-0.459-1.327-0.35-2.872,0.677-4.453
			c3.758-5.783,15.022-24.16-4.227-24.407c-3.496-0.047-7.128,0.244-10.718,0.24c1.585,1.171,2.544,3.105,1.949,5.551
			c0.751-0.04,1.478-0.081,2.153-0.108c1.119-0.028,2.234-0.056,3.353-0.083c6.023-1.202,8.63,2.343,7.82,10.639
			c-5.111,4.411-9.112,7.403-15.847,9.171c-7.594,1.992-13.433-0.211-20.037,4.821c-10.745,8.185-8.738,26.645-5.617,37.927
			c1.551,5.617,7.02,8.055,7.017,13.851c-0.003,7.702,8.917,13.949,11.996,20.517c2.073,4.421,8.874,1.247,7.684-3.239
			C251.64,267.526,250.383,266.005,247.989,262.607z"/>
		<path d="M159.036,369.764c16.009,3.718,28.585-5.657,43.657-9.277c14.739-3.541,10.861-25.747,26.112-31.28
			c14.782-5.363,13.76-23.656,25.479-33.489c6.007-5.035,18.168-10.546,15.78-20.45c-1.736-7.214-4.438-14.346-8.456-20.634
			c-5.329-8.33-17.911-5.297-19.107-17.923c-0.819-8.632,5.37-13.656,12.54-17.105c8.607-4.139,16.084-4.833,21.772-10.898
			c-0.204-0.028-0.39-0.091-0.62-0.07c-15.961,1.554-39.761,6.64-36.466,27.995c1.732,11.233,7.247,22.006,17.177,27.734
			c5.949,3.433,12.831,16.011,3.984,21.974c-2.36,1.59-5.423,2.542-8.015,3.66c-4.256,1.838-9.478,3.546-11.969,7.795
			c-2.519,4.302-1.743,10.924-2.834,15.594c-2.057,8.813-11.727,11.787-18.364,16.256c-3.174,2.138-4.343,6.314-5.712,9.689
			c-4.216,10.41-11.579,17.077-22.364,20.503c-7.168,2.277-14.782,3.673-22.081,5.511c-6.665,1.678-19.007-4.889-25.717-6.536
			c-12.462-3.06-24.915-0.138-34.579,7.947c-0.106,0.09-0.184,0.184-0.275,0.275C125.762,368.057,142.441,365.913,159.036,369.764z"
			/>
		<path d="M159.636,278.626c-1.552-1.693-3.547-3.197-5.801-4.448c-0.713,0.34-1.549,0.541-2.524,0.526
			c-6.36-0.083-13.757-0.962-19.873,1.179c-6.883,2.41-5.184,4.877-6.826,10.244c-1.985,6.491-4.531,12.548-10.931,15.578
			c-4.824,2.28-9.881,0.695-14.893,0.02c-5.133,1.794-10.324,3.521-15.291,5.68c-2.529,3.645-4.042,8.412-6.819,12.682
			c-3.79,5.824-10.319,9.398-16.284,12.518c-9.672,5.065-5.791,17.641-2.733,26.341c3.871,11.005,18.241,16.487,28.88,9.904
			c2.327-1.441,4.178-3.396,5.778-5.592c-6.781-0.826-13.491-0.771-20.339-0.78c-3.302-0.002-6.556-1.251-9.833-1.566
			c-2.547-0.242-1.164-3.337-1.051-5.67c1.124-23.114,19.308-34.393,38.614-41.499c7.115-2.617,29.009-6.146,30.986-15.893
			c1.695-8.378,3.909-18.508,15.462-15.332c5.352,1.474,8.859,1.499,13.14-1.252C160.234,280.662,160.387,279.443,159.636,278.626z"
			/>
		<path d="M295.637,290.502c-0.786-8.591-0.755-19.527-3.377-27.696c-1.944-6.057-5.504-10.117-8.438-15.525
			c-1.241-2.284-1.479-4.465-1.075-6.518c-0.985-0.244-1.987-0.347-3.012-0.264c-0.725,0.489-1.345,1.091-1.886,1.743
			c-0.796,4.459,0.4,9.35,2.778,14.364c4.32,9.11,9.735,13.56,9.559,24.57c-0.022,1.403-5.806,5.663-6.893,7.151
			c-3.287,4.499-6.833,9.69-10.284,14.062c-5.383,6.809-14.961,5.751-19.065,13.971c-0.224,0.446-0.403,0.894-0.589,1.345
			c-0.469,1.652-0.952,3.325-1.486,4.977c-1.625,8.481,0.366,16.994-6.695,25.096c-6.584,7.559-16.414,12.707-24.908,17.729
			c-4.37,2.582-7.188,5.562-10.67,9.329c-6.471,6.997-15.006,8.11-23.79,9.916c-11.662,2.395-23.528,4.35-35.366,5.68
			c-9.233,1.037-19.107-5.571-28.485-6.15c-12.682-0.781-24.762,10.986-13.472,22.575c4.028,4.139-2.62,2.967-5.436,3.509
			c-9.694,1.859-18.316,2.629-24.943-6.277c-5.936-7.977-8.66-15.873-18.944-18.714c-3.378-0.932-6.728-1.66-9.78-2.664
			c-3.39-0.163-6.75-0.503-10.014-1.872c-4.715-1.977-8.805-5.917-11.102-10.501c-2.023-4.045-3.367-8.37-3.97-12.762
			c-0.446,1.809-0.871,3.622-1.333,5.397c-0.005,0.018-0.013,0.031-0.02,0.053c-0.086,0.738-0.158,1.486-0.196,2.247
			c-0.358,6.995,0.453,16.488,5.121,22.525c1.65,0.945,3.508,1.63,5.649,1.94c9.617,1.396,17.958-2.02,26.615,3.644
			c14.989,9.811,11.057,31.116,34.608,29.194c5.864-0.479,15.609-1.889,18.294-8.229c2.682-6.332-2.012-4.642-2.673-8.989
			c-0.642-4.204,0.569-9.609,5.632-10.757c7.126-1.615,15.571,1.126,22.487,2.733c7.586,1.761,15.075,3.542,22.651,4.843
			c15.352-6.538,32.099-9.692,47.941-14.755c4.277-1.37,8.775-2.805,13.196-4.501c1.68-1.728,3.453-3.32,5.561-4.479
			c5.896-3.239,12.277-7.05,18.153-11.528c4.848-6.62,5.818-13.74,6.675-23.266c0.99-11.012,4.007-20.442,13.339-27.243
			c5.841-4.255,16.414-7.249,23.246-12.621c1.313-1.935,2.615-3.877,3.925-5.783c0.605-0.882,1.315-1.728,2.056-2.564
			C295.625,293.931,295.801,292.304,295.637,290.502z"/>
		<path d="M264.055,345.58c1.554-3.634,2.542-7.528,2.751-11.722c0.005-0.083,0.002-0.169,0.005-0.255
			C265.173,337.336,264.499,341.391,264.055,345.58z"/>
		<path d="M187.133,302.91c-3.463,2.45-4.3,7.332-6.017,11.684c3.808-1.722,7.372-4.222,10.433-7.637
			c2.743-3.058,4.841-6.511,6.217-10.15C194.505,299.099,190.69,300.386,187.133,302.91z"/>
		<path d="M154.609,305.24c14.229,13.123,16.331-10.878,28.023-16.102c19.538-8.737-6-18.329-7.12-30.325
			c-0.716-7.611,3.471-14.672,7.765-21.236c-1.585-0.207-3.232,0.078-4.632,0.935c-11.914,7.294-22.588,24.316-11.773,37.091
			c2.244,2.652,4.468,4.023,7.11,6.223c4.266,3.552,2.668,10.055-0.529,14.138c-6.355,8.098-17.782,3.282-22.581-3.319
			c-5.521-7.596-17.571-1.247-13.349,7.145C143.687,299.366,150.257,301.225,154.609,305.24z"/>
		<path d="M206.081,302.104c-4.965,4.977-12.379,8.105-16.239,14.123c-3.1,4.828-4.259,9.466-9.234,13.079
			c-9.133,6.63-20.797,0.541-29.655-3.382c-0.819-0.365-1.622-0.703-2.433-1.055c8.393,5.728,17.984,13.387,28.887,10.158
			c10.095-2.989,8.362-11.398,14.621-16.606c5.552-4.622,9.457-10.246,15.206-14.402c4.307-3.113,9.141-10.395,10.067-15.533
			c1.612-8.972-8.689-14.712-11.311-22.464c-1.454-4.284-1.947-8.123-2.698-12.342c-0.06,1.227-0.063,2.327,0.018,3.239
			c0.443,4.919,1.862,10.165,4.07,14.588c1.39,2.778,9.383,12.471,8.863,14.067C213.933,292.658,211.373,296.792,206.081,302.104z"
			/>
		<path d="M289.699,281.671c-1.683,1.859-5.155,4.546-5.972,5.665c-1.539,2.106-3.138,4.365-4.752,6.62
			C284.726,290.571,289.694,286.513,289.699,281.671z"/>
		<path d="M107.37,404.049c-0.141-0.177-0.272-0.352-0.4-0.513C107.091,403.707,107.239,403.876,107.37,404.049z"/>
		<path d="M237.437,192.653c3.575-1.642,6.68-4.519,8.539-8.496c-0.07,0.118-0.123,0.236-0.221,0.338
			C242.508,188.003,240.021,190.718,237.437,192.653z"/>
		<path d="M151.461,360.254c-2.697-1.013-5.203-1.942-7.198-2.433c-6.144-1.509-12.284-1.549-18.094-0.247
			c5.206,0.992,10.526,2.166,16.143,2.174C145.315,359.755,148.372,359.961,151.461,360.254z"/>
		<path d="M253.366,317.776c-0.917,2.551-1.343,5.11-1.591,7.665c0.816-2.294,1.363-4.644,1.504-7.058
			C253.29,318.181,253.348,317.98,253.366,317.776z"/>
		<path d="M195.798,207.4c-15.322-2.11-25.951,27.57-33.265,36.801c-3.609,4.559-8.35,8.494-13.669,11.029
			c0.433,0.176,0.92,0.246,1.441,0.129c9.06-2.027,14.278-10.573,19.684-17.57c4.325-5.596,6.861-13.088,10.327-19.246
			c9.556-16.972,21.508-4.302,22.777,6.818c1.017,8.909-1.716,18.275-0.058,26.885c0.093,0.491,0.169,0.954,0.255,1.435
			C203.918,240.173,211.553,209.568,195.798,207.4z"/>
		<path d="M153.506,279.864c-0.323-0.955-1.673-1.524-2.433-0.642c-3.269,3.814-16.55-1.743-20.037,6.299
			c-2.305,5.319-1.997,13.646-6.534,15.283c-4.277,1.541-6.889,5.863-11.952,6.01c-3.612,0.105-7.287,2.143-10.543,3.44
			c-7.005,2.786-16.376,5.987-21.878,11.17c-11.986,11.294-25.039,18.48-24.457,36.711c0.435,13.622,24.595,14.443,33.882,13.816
			c2.919-0.196,4.284-2.385,4.103-4.549c-0.509-0.42-1.123-0.728-1.871-0.831c-7.193-0.988-14.287-0.892-21.543-0.902
			c-3.3-0.002-6.556-1.25-9.833-1.566c-2.547-0.242-1.164-3.337-1.052-5.669c1.128-23.115,19.308-34.394,38.614-41.501
			c7.115-2.617,29.011-6.146,30.986-15.893c1.695-8.378,3.911-18.51,15.462-15.332c1.479,0.408,2.811,0.69,4.063,0.851
			C152.183,285.46,154.816,283.753,153.506,279.864z"/>
		<path d="M119.319,391.821c0.42-0.028,0.841-0.015,1.257-0.018c0.211-0.383,0.438-0.761,0.677-1.134
			c-5.206-1.456-9.881-2.423-14.067-1.327c-3.186,3.781-3.99,8.909-0.216,14.195c0.128,0.161,0.259,0.335,0.4,0.513
			c0.466,0.604,0.955,1.209,1.547,1.816c4.028,4.139-2.622,2.967-5.438,3.508c-9.692,1.861-18.314,2.63-24.941-6.276
			c-5.936-7.977-8.66-15.873-18.946-18.714c-9.959-2.751-19.744-3.64-22.008-15.447c-0.748-3.889-0.665-7.705-0.476-11.5
			c-1.337-2.796-3.045-5.443-5.572-8.304c-1.216-1.378-3.484-0.252-3.496,1.448c-0.088,14.239,3.073,33.729,17.803,39.126
			c13.669,5.007,24.626,10.282,36.217,19.288c7.443,5.783,13.171,9.121,23.014,8.35c4.138-0.322,11.36-3.212,11.627-8.121
			c0.139-2.569,0.138-4.892-1.237-7.234C110.446,393.422,110.496,392.433,119.319,391.821z"/>
		<path d="M285.865,241.354c-0.154-0.252-0.262-0.541-0.43-0.779c-0.083-0.038-0.169-0.065-0.255-0.099
			c-3.906,5.796-3.219,13.624-0.92,20.999c3.388,5.722,6.496,10.339,6.362,18.711c-0.007,0.348-0.367,0.874-0.922,1.486
			c-0.005,4.843-4.974,8.901-10.724,12.286c-1.836,2.561-3.697,5.115-5.531,7.442c-5.383,6.809-14.961,5.751-19.066,13.971
			c-0.4,0.799-0.723,1.602-1.013,2.408c-0.018,0.204-0.076,0.405-0.086,0.607c-0.141,2.415-0.688,4.765-1.504,7.058
			c-0.711,7.231-0.149,14.437-6.166,21.344c-2.624,3.012-5.795,5.614-9.161,8.004c-10.529,33.474-47.573,41.3-80.129,37.965
			c-7.823,0.622-14.73,1.778-22.157,0.972c-0.368,0.245-0.723,0.504-1.061,0.774c7.403,2.785,14.841,6.723,22.741,6.924
			c13.76,0.355,25.374-5.357,38.906-6.179c3.401-0.204,6.692-0.118,9.942-0.255c2.712-0.854,5.348-1.94,8.002-3.541
			c6.037-3.64,9.43-10.629,15.568-14.001c1.559-0.856,3.158-1.765,4.766-2.7c2.116-2.126,4.158-4.312,5.697-7.107
			c1.816-3.297,1.07-8.022,3.43-11.052c2.178-2.801,4.135-6.189,5.908-9.282c4.72-8.236,12.758-14.183,13.526-24.325
			c0.982-12.967,15.364-17.49,26.178-24.168c2.406-3.083,4.579-6.294,6.211-9.818C301.947,271.778,287.092,257.968,285.865,241.354z
			"/>
		<path d="M276.626,207.644c-15.961,1.556-39.761,6.642-36.469,27.996c1.733,11.231,7.251,22.008,17.18,27.733
			c5.947,3.435,12.83,16.012,3.982,21.976c-2.358,1.59-5.421,2.541-8.014,3.66c-4.255,1.838-9.478,3.546-11.969,7.796
			c-2.519,4.3-1.745,10.922-2.834,15.593c-2.056,8.813-11.727,11.786-18.366,16.256c-3.174,2.138-4.342,6.314-5.71,9.689
			c-4.002,9.881-10.879,16.352-20.785,19.92c-0.488,0.333-1.008,0.645-1.547,0.944c-6.204,4.75-13.145,5.829-20.324,4.73
			c-0.594,0.144-1.197,0.272-1.788,0.419c-4.68,1.182-12.156-1.705-18.52-4.101c-3.09-0.293-6.146-0.499-9.148-0.506
			c-5.617-0.008-10.938-1.182-16.143-2.174c-4.987,1.118-9.7,3.284-13.982,6.337c24.832-4.866,49.7,7.12,75.305,6.276
			c1.023-0.035,1.892,0.176,2.63,0.534c8.813-0.761,15.91-8.66,20.059-15.732c2.829-4.821,4.884-10.878,8.462-15.123
			c4.299-5.105,12.646-6.713,16.236-12.556c2.992-4.876,4.463-9.75,5.738-15.334c2.234-9.797,6.448-12.054,14.508-15.773
			c10.503-4.848,13.253-14.574,9.876-25.071c-1.902-5.929-6.256-10.481-9.168-15.828c-4.35-7.98-14.254-6.68-14.113-19.075
			c0.194-16.807,24.091-21.228,36.491-25.787c0.523-0.191,0.897-0.539,1.189-0.935C278.992,208.382,278.06,207.507,276.626,207.644z
			"/>
		<path d="M162.518,361.478c-3.697-0.41-7.398-0.876-11.057-1.224c6.363,2.396,13.84,5.284,18.52,4.101
			c0.59-0.148,1.194-0.275,1.788-0.419C168.716,363.47,165.618,362.619,162.518,361.478z"/>
		<path d="M112.188,363.911c4.282-3.053,8.995-5.219,13.982-6.337c-8.627-1.642-16.941-2.776-25.776,2.756
			c-3.07,1.922-2.586,5.606-0.607,7.558C103.922,366.004,108.053,364.72,112.188,363.911z"/>
		<path d="M228.514,189.346c-3.982,0.322-8.034-0.216-12.141-1.775c-5.67-2.149-10.861-3.881-16.019-4.637
			c2.516,0.887,5.02,2.569,7.211,3.252c5.524,1.726,8.67,4.504,14.735,5.212c8.329,0.973,12.758-0.103,16.933-3.224
			C235.856,189.723,232.067,190.138,228.514,189.346z"/>
		<path d="M180.42,185.668c-1.387,0.96-2.816,1.871-4.408,2.58c-11.511,5.145-17.379,15.057-26.827,22.739
			c-8.952,7.276-17.442,3.612-18.046-3.876c-4.083-0.214-6.299,6.446-2.217,8.646c8.276,4.459,19.719,0.63,26.749-4.79
			c3.906-3.007,6.776-5.853,8.563-10.349c3.04-7.654,14.195-8.435,20.573-11.586c3.368-1.663,6.4-3.476,9.458-5.654
			c0.585-0.418,1.189-0.68,1.801-0.836C191.072,182.371,185.987,183.262,180.42,185.668z"/>
		<path d="M246.205,183.562c-0.083,0.196-0.143,0.408-0.229,0.595C246.087,183.966,246.163,183.771,246.205,183.562z"/>
		<path d="M181.187,171.933c-17.351,7.234-35.735,23.11-39.532,28.185c-3.798,5.073-3.027,9.373-3.418,10.249
			c4.838-3.609,8.556-8.12,13.199-12.586c7.488-7.189,15.636-11.443,24.693-16.264c7.73-4.111,14.551-9.103,22.794-12.392
			c6.947-2.771,13.437-1.876,19.983-6.629c0.103-0.076,0.186-0.164,0.255-0.269C206.193,161.647,189.229,168.581,181.187,171.933z"
			/>
		<path d="M255.466,371.849c2.332-1.161,4.194-5.115,4.872-7.442c1.035-3.546,6.29-5.637,10.07-5.154
			c9.35,1.197,19.19,2.129,27.572-2.803c4.483-2.635,10.84-6.911,11.594-12.332c-1.937-0.884-4.576-0.672-6.284,0.846
			c-7.068,6.261-9.229,14.518-20.21,13.816c-7.489-0.481-13.306-5.118-21.074-3.97c-6.266,0.927-9.99,6-13.138,10.932
			c-2.071,3.237-2.63,6.261-4.821,8.619C247.946,374.185,251.774,373.681,255.466,371.849z"/>
		<path d="M155.966,300.497c-0.005,0.36,0.008,0.721,0.061,1.076c1.585-0.403,3.154-0.634,4.753-0.68
			c0.847-0.342,1.838-0.38,2.862,0.071c0.106,0.046,0.227,0.073,0.335,0.118c0.484,0.063,0.962,0.106,1.456,0.206
			c0.163,0.033,0.624,0.124,1.262,0.242c1.282-0.463,2.516-1.032,3.67-1.753c4.161-2.602,9.165-6.941,12.871-11.48
			c0.668-1.952,1.72-3.972,2.864-6.62c1.871-4.327-4.977-7.012-6.876-9.883c-2.015-3.045-4.625-7.077-4.294-10.992
			c0.491-5.801,3.539-10.131,7.106-14.302c-0.501-1.365-2.242-2.159-3.682-1.59c-5.259,7.805-10.574,14.901-4.33,24.764
			c3.494,5.518,6.342,12.065,3.866,18.573C174.66,296.741,164.097,297.359,155.966,300.497z"/>
	</g>
	<g>
		<g>
			<g>
				<path fill="#6D1D41" d="M254.866,358.432c-4.469,8.689-10.466,16.535-13.675,25.953c-2.129,6.247-4.649,14.666-11.151,17.865
					c-3.055,1.502-6.576,2.048-10.211,2.292c-7.997,5.569-17.381,9.237-22.547,18.037c-3.972,6.76-6.438,13.924-7.909,21.346
					c1.894,0.277,3.864-0.171,5.023-1.63c0.264-0.333,0.572-0.645,0.851-0.967c0.3-8.291,4.737-16.424,12.375-22.175
					c5.788-4.355,12.456-6.13,19.264-7.39c0.819-0.27,1.612-0.577,2.459-0.804c4.347-1.166,9.933-2.003,13.593-4.808
					c4.907-3.766,4.156-11.477,4.741-16.943c1.151-10.765,7.558-19.759,10.206-30.048
					C256.938,358.762,255.911,358.552,254.866,358.432z"/>
				<g>
					<path fill="#AA4D8D" d="M291.913,349.332c5.951-9.304,9.604-19.696,19.28-26.225c8.463-5.708,14.639-10.805,24.034-12.645
						c-10.402-2.871-20.75,1.92-31.267,6.42c-4.128,1.771-6.295,5.725-9.443,8.684c-5.756,5.425-11.294,11.103-17.094,16.483
						c-2.091-0.576-4.221-1.055-6.39-1.887c-4.692-1.801-9.287-6.627-13.289-9.7c-2.498-1.915-5.377-3.653-8.433-5.068
						c-7.146,0.171-14.565,4.227-20.915,6.564c-6.446,2.37-12.336,4.496-19.221,5.216c-3.675,0.385-7.413-1.335-10.962-3.596
						c-5.075,3.221-9.436,6.995-12.418,11.198c-0.811,1.146-1.436,2.77-0.751,4.161c0.194,0.398,0.386,0.798,0.582,1.199
						c0.549,1.118,1.7,1.94,2.977,1.594c5.037-0.617,10.538-4.511,15.452-6.151c8.455-2.829,16.994-5.939,25.817-7.36
						c8.257-1.333,15.8,4.378,21.561,9.417c3.649,3.191,7.846,5.808,11.923,8.398c3.622,2.304,8.413,2.051,12.118,4.133
						c0.731,0.41,1.619,0.672,2.557,0.806C282.934,359.751,287.617,356.044,291.913,349.332z"/>
				</g>
				<path fill="#AA4D8D" d="M172.619,424.11c-10.536-2.241-20.852-8.005-32.432-5.684c-6.967,1.396-14.221,9.36-20.377,12.841
					c-7.158,4.038-16.453-3.229-23.887-7.551c-5.531,3.139-10.894,6.828-14.513,11.717c3.911,1.403,7.77,2.985,11.81,4.377
					c5.387,1.854,10.216,2.549,15.089,2.463c0.907-0.539,1.818-1.103,2.73-1.591c13.025-6.95,25.746-10.714,40.224-13.437
					c4.667-0.876,10.148,1.347,15.14,3.654C168.47,428.631,170.533,426.357,172.619,424.11z"/>
				<path fill="#AA4D8D" d="M284.362,396.477c-4.043-1.547-7.962-3.365-11.828-5.307c-8.672-0.179-17.863-5.325-26.928-10.022
					c-10.374-5.363-20.829-5.504-31.265-2.658c-10.664,10.569-13.82,32.889-26.169,42.446c-0.23,0.665-0.582,1.33-1.086,1.972
					c-3.6,4.554-7.665,8.642-11.906,12.566c2.826-0.255,5.652-0.98,8.05-1.783c12.787-4.287,17.604-15.019,24.119-25.975
					c3.974-6.7,9.47-13.573,15.198-13.944c14.548-4.204,12.193-1.327,20.502,2.721c9.024,4.388,17.752,9.289,26.897,13.435
					c1.388,0.63,2.839,1.225,4.339,1.786c4.658-0.356,9.362-1.386,14.141-2.955c4.479-1.471,7.75-4.574,10.601-8.194
					C293.851,399.86,288.71,398.137,284.362,396.477z"/>
				<path fill="#6D1D41" d="M56.996,267.341c-3.096,1.026-6.279,1.834-8.793,2.765c-7.994,2.957-13.681,5.461-20.266,11.072
					c-10.498,8.944-11.397,24.698-9.349,37.02c0.445,2.683,3.461,4.62,6.274,4.682c0.519-0.712,0.759-1.642,0.378-2.78
					c-3.06-9.121-0.061-19.246,2.244-28.237c3.73-14.569,16.278-18.036,29.726-20.42C57.117,270.077,57.057,268.705,56.996,267.341z
					"/>
				<path fill="#AA4D8D" d="M51.342,289.456c-1.229,0.214-2.456,0.431-3.673,0.693c-2.601,0.559-6.788,1.131-10.189,2.443
					c-0.313,1.828-0.587,3.644-0.803,5.403c-0.977,7.999,0.448,15.793-0.955,23.837c-1.435,8.226-9.087,13.34-17.08,16.578
					c-0.665,1.6-1.484,3.111-2.464,4.538c0.051,2.95,0.151,5.904,0.317,8.853c10.296-3.266,18.029-8.488,26.495-17.331
					c8.879-9.277,4.591-26.213,6.3-37.459C49.737,294.063,50.433,291.575,51.342,289.456z"/>
				<path fill="#6D1D41" d="M101.722,250.973c-0.738-0.751-1.471-1.511-2.191-2.282c-13.888,7.503-25.845,15.641-42.816,13.297
					c-6.788-0.932-12.951-3.788-18.611-7.506c-0.216-0.146-0.433-0.252-0.65-0.39c0.479,1.998,0.682,4.076,0.468,6.249
					c-0.037,0.396-0.119,0.758-0.216,1.108c4.131,3.179,8.447,6.538,13.392,8.952c8.286,4.042,24.953,5.348,33.298,0.716
					C89.718,268.161,95.661,257.446,101.722,250.973z"/>
				<path fill="#AA4D8D" d="M123.466,229.765c-0.463,0.267-0.929,0.492-1.396,0.843c-4.742,3.503-10.7,3.65-16.928,3.02
					c-2.634,0.748-5.221,1.43-6.005,1.519c-7.616,0.867-15.692-0.254-23.379-0.144c-0.023,0-0.051,0.003-0.075,0
					c-6.541,3.284-11.695,8.894-15.206,15.473c1.289-0.043,2.572-0.095,3.858-0.158c12.447-6.3,30.53,2.902,43.062-2.778
					c6.972-3.161,15.934-5.969,16.639-14.715C124.131,231.604,123.899,230.603,123.466,229.765z"/>
				<path fill="#6D1D41" d="M213.822,401.716c14.216-10.501,29.175-21.482,38.068-36.667c9.773-16.694,11.864-35.577,27.991-48.12
					c7.198-5.599,16.43-11.297,18.745-20.757c2.005-8.194,2.078-16.966,0.506-25.266c-2.675-14.153-4.983-32.698-16.017-42.586
					c-7.977-3.962-10.417-0.415-13.525,4.236c-3.106,4.652-4.33,5.035-11.312,5.597c-4.652,0.378-6.634-5.025-4.919-8.566
					c5.921-12.234,23.81-8.529,27.074-21.794c3.821-15.52,2.027-30.267-7.773-42.247c-0.481-0.307-0.919-0.643-1.426-0.934
					c-19.389-11.039-80.45-23.916-120.748,0c-30.3,17.984-38.688,34.013-38.965,47.609c-0.194,11.269,10.929,14.324,11.71,23.688
					c0.212,2.554-1.906,4.783-4.179,5.493c-17.414,5.411-9.213,31.504-22.439,43.342C82.075,297.758,60.948,300.319,48,315.221
					c-6.274,7.226-11.997,14.054-21.14,17.593c-12.538,4.851-19.259,10.456-21.45,24.142c-1.197,7.483-2.702,14.589-3.113,21.767
					c7.324,28.412,28.837,29.404,37.464,41.617c12.326,17.445,34.587,21.905,58.288,16.82c5.46-2.259,10.319-5.796,15.52-10.486
					c6.717-6.052,12.269-11.186,21.467-12.566c10.657-1.595,21.908,0.566,32.758-0.64c15.535-1.727,30.429-5.239,44.838-11.38
					C213.032,401.915,213.43,401.801,213.822,401.716z"/>
				<path fill="#6D1D41" d="M213.822,401.716c14.216-10.501,29.175-21.482,38.068-36.667c9.773-16.694,11.864-35.577,27.991-48.12
					c7.198-5.599,16.43-11.297,18.745-20.757c2.005-8.194,2.078-16.966,0.506-25.266c-2.675-14.153-4.415-31.534-12.404-39.428
					c-7.989-7.893-16.725-6.367-19.833-1.713c-3.106,4.652-1.635,7.826-8.617,8.388c-4.652,0.378-6.634-5.025-4.919-8.566
					c5.921-12.234,23.81-8.529,27.074-21.794c3.821-15.52,2.027-30.267-7.773-42.247c-0.481-0.307-0.919-0.643-1.426-0.934
					c-19.389-11.039-80.45-23.916-120.748,0c-30.3,17.984-38.688,34.013-38.965,47.609c-0.194,11.269,10.929,14.324,11.71,23.688
					c0.212,2.554-1.906,4.783-4.179,5.493c-17.414,5.411-9.213,31.504-22.439,43.342C82.075,297.758,60.948,300.319,48,315.221
					c-6.274,7.226-11.997,14.054-21.14,17.593c-12.538,4.851-19.259,10.456-21.45,24.142c-1.197,7.483-2.702,14.589-3.113,21.767
					c7.324,28.412,28.837,29.404,37.464,41.617c12.326,17.445,34.587,21.905,58.288,16.82c5.46-2.259,10.319-5.796,15.52-10.486
					c6.717-6.052,12.269-11.186,21.467-12.566c10.657-1.595,21.908,0.566,32.758-0.64c15.535-1.727,30.429-5.239,44.838-11.38
					C213.032,401.915,213.43,401.801,213.822,401.716z"/>
				<g>
					<path fill="#AA4D8D" d="M182.94,298.168c8.645-9.738,10.733-23.435,3.541-34.385c-2.368-3.604-6.463-6.448-10.043-8.767
						c-0.454-0.29,5.3-15.734,3.644-14.062c2.139-2.158,2.139-5.717,0-7.871c-0.396-0.398-0.793-0.794-1.189-1.196
						c-2.264-2.275-6.025-2.829-8.793-1.134c-11.758,7.196-22.293,23.993-11.621,36.604c2.216,2.615,4.411,3.969,7.014,6.138
						c4.214,3.506,2.64,9.924-0.519,13.952c-4.674,5.954-12.118,4.829-17.571,1.181c5.105,6.171,15.847,10.289,21.943,2.523
						c3.199-4.083,4.795-10.586,0.527-14.138c-2.64-2.199-4.863-3.571-7.11-6.223c-10.813-12.775-0.139-29.797,11.777-37.091
						c1.398-0.857,3.043-1.143,4.632-0.935c-4.297,6.564-8.481,13.626-7.768,21.236c1.123,11.996,26.658,21.588,7.121,30.325
						c-11.692,5.224-13.793,29.225-28.023,16.102c-4.353-4.015-10.922-5.874-17.085-5.45c-3.498-6.951,4.158-12.472,10.032-9.858
						c-0.264-0.312-0.526-0.622-0.756-0.944c-5.562-7.654-17.881-0.972-12.936,7.559c10.432,18.001,36.201,23.026,51.546,8.06
						C181.779,299.189,182.306,298.63,182.94,298.168z"/>
					<path fill="#AA4D8D" d="M222.122,267.354c-7.433-7.491-12.133-14.221-13.495-24.98c-1.786-14.138,3.703-31.897-7.279-43.836
						c-10.795-11.737-23.605-10.483-34.174,0.617c-6.15,6.46-12.374,13.82-16.727,21.621c-6.41,11.496-12.135,17.132-25.227,20.455
						c-5.707,1.446-4.196,9.611,1.343,9.904c10.591,0.56,20.734-5.619,27.202-13.79c7.221-9.111,17.709-38.401,32.831-36.318
						c16.963,2.333,6.445,38.088,7.412,48.868c0.439,4.851,1.839,10.032,4.018,14.397c1.372,2.745,9.256,12.307,8.745,13.881
						c-2.28,6.992-4.805,11.068-10.029,16.314c-4.899,4.911-12.213,7.995-16.026,13.934c-3.06,4.763-4.201,9.342-9.113,12.906
						c-9.012,6.544-20.522,0.534-29.263-3.335c-12.244-5.421-23.528-9.788-37.073-7.576c-12.405,2.027-21.304,13.448-31.474,19.513
						c-2.604,1.557-2.521,6.455,0.916,7c14.88,2.35,25.417-14.357,40.959-12.904c7.974,0.746,18.175,10.856,25.152,14.876
						c8.073,4.655,16.462,7.646,25.834,7.188c14.669-0.72,27.126-11.914,30.645-25.711c0.71-2.773,4.831-4.939,6.824-6.574
						c4.373-3.596,8.082-7.864,11.649-12.224c5.345-6.523,7.11-13.823,9.45-21.8C226.472,275.525,225.248,270.505,222.122,267.354z"
						/>
					<path fill="#AA4D8D" d="M259.155,162.336c-7.577-2.302-16.216,0.814-23.359-0.779c-6.344-0.055-12.463-1.262-18.603-2.368
						c1.506,0.652,2.761,1.551,3.547,2.788c2.114,3.312,2.902,4.085,6.06,6.38c5.093,3.695,14.143,2.654,19.91,2.416
						c1.106-0.028,2.207-0.058,3.31-0.085c5.946-1.186,8.518,2.315,7.717,10.5c-5.045,4.355-8.992,7.305-15.636,9.05
						c-7.493,1.964-13.258-0.207-19.775,4.76c-10.601,8.075-8.624,26.291-5.546,37.424c1.537,5.546,6.929,7.951,6.927,13.669
						c0,7.602,8.8,13.768,11.838,20.25c2.045,4.36,8.758,1.229,7.581-3.197c-0.997-3.761-2.234-5.259-4.597-8.614
						c-3.907-5.544-4.251-8.962-5.934-15.087c-0.768-2.791-4.508-5.257-6.106-7.352c-5.256-6.873-4.362-30.879,7.048-32.272
						c15.346-1.876,35.343-6.717,37.376-25.406C271.655,167.578,264.384,163.93,259.155,162.336z"/>
					<path fill="#AA4D8D" d="M237.035,175.711c0.463-1.514-1.584-2.722-2.67-1.552c-2.833,3.048-3.839,0.459-5.959,1.945
						c-6.007,4.224-11.13,1.433-15.822-2.647c-4.289-3.726-9.461-5.229-15.13-5.672c-17.85-1.396-29.388,5.8-44.118,14.968
						c-8.032,4.997-12.029,11.44-18.803,17.961c-7.237,6.962-2.811-0.333-1.113-2.23c3.639-4.067,5.433-8.546,9.962-12.011
						c17.48-13.36,34.826-21.676,56.094-27.605c1.937-0.539,4.964-1.02,8.163-1.108c-1.114-0.116-2.231-0.221-3.355-0.28
						c-11.863-0.617-23.762,1.585-35.099,5.053c-5.791,1.77-11.465,3.796-17.037,6.037c-11.173,7.254-21.167,16.425-28.361,27.378
						c-8.267,12.586,2.99,22.827,15.037,13.039c9.325-7.581,15.114-17.361,26.472-22.44c5.544-2.478,9.198-7.291,15.303-8.869
						c6.372-1.645,22.152-4.528,26.557,2.753C214.525,192.623,232.792,189.525,237.035,175.711z"/>
					<path fill="#AA4D8D" d="M251.297,213.948c6.407-1.013,9.969-5.315,15.876-6.659c3.33-0.761,2.65-6.355-0.814-6.02
						c-15.749,1.534-39.239,6.553-35.987,27.626c1.71,11.087,7.153,21.719,16.953,27.368c5.866,3.392,12.66,15.802,3.929,21.688
						c-2.325,1.571-5.348,2.509-7.909,3.61c-4.199,1.814-9.355,3.501-11.81,7.693c-2.488,4.246-1.723,10.782-2.799,15.389
						c-2.027,8.697-11.569,11.636-18.119,16.04c-3.134,2.11-4.29,6.231-5.639,9.566c-4.161,10.269-11.427,16.85-22.072,20.23
						c-7.073,2.247-14.584,3.624-21.789,5.44c-6.576,1.657-18.752-4.826-25.379-6.451c-12.296-3.023-24.585-0.134-34.122,7.843
						c-3.736,3.129,0.371,8.231,4.347,7.468c14.737-2.832,26.109-3.753,40.466,1.463c14.078,5.118,25.912,0.62,39.985-3.043
						c11.1-2.889,22.276-11.744,27.597-21.82c3.6-6.828,3.914-10.208,11.027-15.908c4.846-3.887,8.399-6.954,11.639-12.307
						c1.726-2.849,2.922-7.571,3.027-10.788c0.333-9.985,7.443-9.856,14.709-13.591c7.243-3.723,15.293-11.853,12.619-21.024
						c-1.431-4.896-3.682-9.48-6.019-14.015c-4.42-8.596-12.835-7.272-17.064-17.752
						C240.589,227.662,238.566,215.959,251.297,213.948z"/>
					<path fill="#AA4D8D" d="M151.34,270.337c-7.849-8.568-27.018-12.389-34.57-1.086c-1.823,2.731-3.514,5.234-3.673,8.642
						c-0.413,8.922-9.153,10.481-15.83,13.062c-10.725,4.156-22.333,6.921-31.767,13.682C50.76,315.2,40.449,335.524,42.904,353.79
						c2.015,14.956,33.444,10.884,43.193,9.546c4.652-0.643,4.652-8.72,0-9.357c-7.1-0.979-14.1-0.886-21.258-0.892
						c-3.26-0.003-6.473-1.236-9.707-1.546c-2.513-0.239-1.151-3.294-1.038-5.596c1.113-22.812,19.05-33.942,38.108-40.954
						c7.02-2.582,28.625-6.067,30.578-15.682c1.672-8.269,3.858-18.264,15.258-15.128c5.277,1.454,8.74,1.476,12.966-1.237
						C151.928,272.347,152.081,271.143,151.34,270.337z"/>
					<path fill="#AA4D8D" d="M282.201,245.408c-4.471-0.982-8.982-1.743-13.551-2.252c0.513,1.793,1.216,3.614,2.088,5.455
						c4.262,8.987,9.606,13.382,9.433,24.245c-0.022,1.382-5.732,5.586-6.805,7.055c-3.242,4.441-6.74,9.564-10.146,13.878
						c-5.31,6.72-14.763,5.674-18.817,13.785c-5.193,10.403,0.048,21.021-8.651,31.006c-6.498,7.46-16.198,12.54-24.583,17.497
						c-4.309,2.546-7.092,5.49-10.528,9.204c-6.387,6.906-14.807,8.002-23.477,9.783c-11.508,2.367-23.22,4.295-34.9,5.609
						c-9.111,1.02-18.856-5.498-28.111-6.07c-12.518-0.773-24.439,10.843-13.294,22.278c3.975,4.085-2.587,2.929-5.365,3.463
						c-9.566,1.834-18.074,2.596-24.615-6.192c-5.858-7.874-8.546-15.667-18.696-18.468c-9.826-2.717-19.487-3.594-21.721-15.245
						c-0.355-1.854-0.506-3.692-0.564-5.518c-0.536-0.826-0.869-1.849-0.848-3.105c0.08-4.906-8.592-3.843-12.083-1.585
						c-0.347,1.813-0.62,3.667-0.721,5.616c-0.426,8.374,0.828,20.399,8.548,25.527c6.652,4.42,15.646,7.126,23.356,8.937
						c5.282,1.242,8.637,10.369,11.704,14.47c3.267,4.37,7.47,7.148,12.163,9.82c9.092,5.166,21.223,1.282,30.809,0.403
						c7.916-0.718,14.143-6.604,14.984-14.593c0.348-3.329,0.086-5.997-1.652-8.967c-0.431-0.731-0.892-1.282-1.333-1.716
						c0.6,0.186,1.33,0.373,2.236,0.556c10.66,2.154,20.349,6.972,31.471,4.665c12.236-2.529,24.701-3.846,36.977-6.41
						c6.49-1.358,12.07-2.45,17.759-5.881c5.955-3.594,9.306-10.49,15.364-13.818c16.684-9.168,37.421-22.83,38.466-43.994
						c0.234-4.722-0.957-10.063,3.814-12.624c4.819-2.589,9.974-5.46,13.314-9.939c3.086-4.148,5.962-8.576,8.884-12.825
						c2.856-4.156,7.814-7.554,9.221-12.662c2.148-7.801-0.929-17.714-4.882-24.339
						C286.491,250.855,284.392,248.316,282.201,245.408z"/>
				</g>
				<g>
					<path fill="#7C2448" d="M203.128,250.252c-0.295-1.925-0.247-6.178-0.146-11.541c-4.675-9.354-4.062-19.586-7.34-29.391
						c-4.509-13.475-18.42-12.997-25.85-1.98c-2.97,4.4-5.506,8.932-9.108,12.846c-3.663,3.989-9.188,4.388-13.634,6.904
						c-2.682,4.348-5.407,7.73-8.74,10.407c-0.92,1.831-1.831,3.722-2.967,5.619c-3.413,5.693-9.171,7.148-15.263,7.203
						c0.539,2.073,2.242,3.901,4.821,4.035c10.735,0.569,21.012-5.695,27.57-13.974c7.314-9.233,17.943-38.912,33.265-36.801
						c17.19,2.365,6.531,38.594,7.513,49.518c0.441,4.919,1.861,10.166,4.07,14.589c1.39,2.778,9.382,12.471,8.863,14.067
						c-2.31,7.083-4.871,11.218-10.161,16.53c-4.965,4.977-12.379,8.106-16.243,14.123c-3.098,4.826-4.257,9.465-9.231,13.079
						c-9.135,6.63-20.797,0.539-29.656-3.383c-12.407-5.495-23.842-9.916-37.567-7.674c-12.569,2.051-21.586,13.626-31.893,19.775
						c-1.962,1.169-2.41,4.209-1.086,5.922c7.246-10.009,17.812-20.515,29.656-19.659c5.322,0.383,9.597,2.02,13.997,5.088
						c9.533,6.649,16.074,8.568,28.087,6.587c7.241-1.191,14.067-1.854,20.973,1.445c5.541,2.643,17.024,12.329,22.88,5.919
						c7.705-8.441,8.526-22.606,12.767-32.923c1.711-4.163,4.113-9.014,7.68-11.946c4.179-3.436,14.302-6.886,16.448-11.818
						C228.18,270.535,205.022,262.641,203.128,250.252z"/>
					<path fill="#7C2448" d="M86.972,338.295c3.547-1.755,7.017-3.934,10.588-5.839C93.798,333.105,90.214,335.337,86.972,338.295z"
						/>
					<path fill="#7C2448" d="M160.629,345.004c-6.644-3.173-13.158-1.922-19.702-0.851c7.702,4.206,15.71,6.856,24.601,6.422
						c1.648-0.081,3.266-0.314,4.851-0.645C167.226,348.488,164.183,346.699,160.629,345.004z"/>
					<path fill="#7C2448" d="M208.178,313.505c2.509-2.551,4.856-5.262,7.125-8.033c1.488-1.819,2.688-3.702,3.715-5.639
						C214.12,303.237,210.539,306.951,208.178,313.505z"/>
					<path fill="#7C2448" d="M238.362,257.793c-3.959-5.617-4.307-9.083-6.014-15.288c-0.778-2.829-4.567-5.329-6.189-7.45
						c-5.322-6.967-4.416-31.292,7.145-32.705c7.611-0.929,16.336-2.595,23.519-6.257c-0.459-1.327-0.35-2.872,0.677-4.453
						c3.758-5.783,15.022-24.16-4.227-24.407c-3.496-0.047-7.128,0.244-10.718,0.24c1.585,1.171,2.544,3.105,1.949,5.551
						c0.751-0.04,1.478-0.081,2.153-0.108c1.119-0.028,2.234-0.056,3.353-0.083c6.023-1.202,8.631,2.343,7.82,10.639
						c-5.111,4.411-9.112,7.403-15.847,9.171c-7.594,1.992-13.433-0.211-20.037,4.821c-10.745,8.185-8.738,26.645-5.617,37.927
						c1.55,5.617,7.02,8.055,7.017,13.851c-0.003,7.702,8.917,13.949,11.996,20.517c2.073,4.421,8.874,1.247,7.684-3.239
						C242.012,262.712,240.755,261.191,238.362,257.793z"/>
					<path fill="#7C2448" d="M149.408,364.95c16.009,3.718,28.585-5.657,43.657-9.277c14.739-3.541,10.861-25.747,26.112-31.28
						c14.782-5.363,13.76-23.656,25.479-33.489c6.007-5.035,18.168-10.546,15.78-20.45c-1.736-7.214-4.438-14.346-8.456-20.634
						c-5.329-8.33-17.911-5.297-19.107-17.923c-0.819-8.632,5.37-13.656,12.54-17.105c8.607-4.139,16.084-4.833,21.772-10.898
						c-0.204-0.028-0.39-0.091-0.62-0.07c-15.961,1.554-39.761,6.64-36.466,27.995c1.732,11.233,7.247,22.006,17.177,27.734
						c5.949,3.433,12.831,16.011,3.984,21.974c-2.36,1.59-5.423,2.542-8.015,3.66c-4.256,1.838-9.478,3.546-11.969,7.795
						c-2.519,4.302-1.743,10.924-2.834,15.594c-2.057,8.813-11.727,11.787-18.364,16.256c-3.174,2.138-4.343,6.314-5.712,9.689
						c-4.216,10.41-11.579,17.077-22.364,20.503c-7.168,2.277-14.782,3.673-22.081,5.511c-6.665,1.678-19.007-4.889-25.717-6.536
						c-12.462-3.06-24.915-0.138-34.579,7.947c-0.106,0.089-0.184,0.184-0.275,0.275
						C116.134,363.243,132.813,361.099,149.408,364.95z"/>
					<path fill="#7C2448" d="M150.008,273.812c-1.552-1.693-3.547-3.197-5.801-4.448c-0.713,0.34-1.549,0.541-2.524,0.526
						c-6.36-0.083-13.757-0.962-19.873,1.179c-6.883,2.41-5.184,4.877-6.826,10.244c-1.985,6.491-4.531,12.548-10.931,15.578
						c-4.824,2.28-9.881,0.695-14.893,0.02c-5.133,1.794-10.324,3.521-15.291,5.68c-2.529,3.645-4.042,8.412-6.819,12.682
						c-3.79,5.824-10.319,9.398-16.284,12.518c-9.672,5.065-5.791,17.641-2.733,26.341c3.871,11.005,18.241,16.487,28.88,9.904
						c2.327-1.441,4.178-3.396,5.778-5.592c-6.781-0.826-13.491-0.771-20.339-0.779c-3.302-0.002-6.556-1.251-9.833-1.566
						c-2.547-0.242-1.164-3.337-1.051-5.67c1.124-23.114,19.308-34.393,38.614-41.499c7.115-2.617,29.009-6.146,30.986-15.893
						c1.695-8.378,3.909-18.508,15.462-15.332c5.352,1.474,8.859,1.499,13.14-1.252
						C150.607,275.848,150.759,274.629,150.008,273.812z"/>
					<path fill="#7C2448" d="M286.009,285.688c-0.786-8.591-0.755-19.527-3.377-27.696c-1.944-6.057-5.504-10.117-8.438-15.525
						c-1.241-2.284-1.479-4.465-1.075-6.518c-0.985-0.244-1.987-0.347-3.012-0.264c-0.725,0.489-1.345,1.091-1.886,1.743
						c-0.796,4.459,0.4,9.35,2.778,14.364c4.32,9.11,9.735,13.559,9.559,24.57c-0.022,1.403-5.806,5.663-6.893,7.151
						c-3.287,4.499-6.833,9.69-10.284,14.062c-5.383,6.809-14.961,5.751-19.065,13.971c-0.224,0.446-0.403,0.894-0.589,1.345
						c-0.469,1.652-0.952,3.325-1.486,4.977c-1.625,8.481,0.366,16.994-6.695,25.096c-6.584,7.559-16.414,12.707-24.908,17.729
						c-4.37,2.582-7.188,5.562-10.67,9.329c-6.471,6.997-15.006,8.11-23.79,9.916c-11.662,2.395-23.528,4.35-35.366,5.68
						c-9.233,1.037-19.107-5.571-28.485-6.15c-12.682-0.781-24.762,10.986-13.472,22.575c4.028,4.139-2.62,2.967-5.436,3.509
						c-9.694,1.859-18.316,2.629-24.943-6.277c-5.936-7.977-8.66-15.873-18.944-18.714c-3.378-0.932-6.728-1.66-9.78-2.664
						c-3.39-0.163-6.75-0.503-10.014-1.872c-4.715-1.977-8.805-5.917-11.102-10.501c-2.023-4.045-3.367-8.37-3.97-12.762
						c-0.446,1.809-0.871,3.622-1.333,5.397c-0.005,0.018-0.013,0.031-0.02,0.053c-0.086,0.738-0.158,1.486-0.196,2.247
						c-0.358,6.995,0.453,16.488,5.121,22.525c1.65,0.945,3.508,1.63,5.649,1.94c9.617,1.396,17.958-2.02,26.615,3.644
						c14.989,9.811,11.057,31.116,34.608,29.194c5.864-0.479,15.609-1.889,18.294-8.229c2.682-6.332-2.012-4.642-2.673-8.989
						c-0.642-4.204,0.569-9.609,5.632-10.757c7.126-1.615,15.571,1.126,22.487,2.733c7.586,1.761,15.075,3.542,22.651,4.843
						c15.352-6.538,32.099-9.692,47.941-14.755c4.277-1.37,8.775-2.805,13.196-4.501c1.68-1.728,3.453-3.32,5.561-4.479
						c5.896-3.239,12.277-7.05,18.153-11.528c4.848-6.62,5.818-13.74,6.675-23.266c0.99-11.012,4.007-20.442,13.339-27.243
						c5.841-4.255,16.414-7.249,23.246-12.621c1.313-1.935,2.615-3.877,3.926-5.783c0.605-0.882,1.315-1.728,2.056-2.564
						C285.997,289.118,286.173,287.491,286.009,285.688z"/>
					<path fill="#7C2448" d="M254.427,340.767c1.554-3.634,2.542-7.528,2.751-11.722c0.005-0.083,0.002-0.169,0.005-0.255
						C255.545,332.522,254.871,336.577,254.427,340.767z"/>
					<g>
						<path fill="#7C2448" d="M177.505,298.096c-3.463,2.45-4.3,7.332-6.017,11.684c3.808-1.721,7.372-4.222,10.433-7.637
							c2.743-3.058,4.841-6.511,6.217-10.15C184.877,294.285,181.062,295.572,177.505,298.096z"/>
						<path fill="#7C2448" d="M144.981,300.427c14.229,13.123,16.331-10.878,28.023-16.102c19.538-8.737-6-18.329-7.12-30.325
							c-0.716-7.611,3.471-14.672,7.765-21.236c-1.585-0.207-3.232,0.078-4.632,0.935c-11.914,7.294-22.588,24.316-11.773,37.091
							c2.244,2.652,4.468,4.023,7.11,6.223c4.266,3.552,2.668,10.055-0.529,14.138c-6.355,8.098-17.782,3.282-22.581-3.319
							c-5.521-7.596-17.571-1.247-13.349,7.145C134.059,294.552,140.629,296.411,144.981,300.427z"/>
					</g>
				</g>
				<g>
					<path fill="#BC6D93" d="M196.453,297.29c-4.965,4.977-12.379,8.105-16.24,14.123c-3.1,4.828-4.259,9.466-9.234,13.079
						c-9.133,6.63-20.797,0.541-29.655-3.382c-0.819-0.365-1.622-0.703-2.433-1.055c8.393,5.728,17.984,13.387,28.887,10.158
						c10.095-2.989,8.362-11.398,14.621-16.606c5.552-4.622,9.457-10.246,15.206-14.402c4.307-3.113,9.141-10.395,10.067-15.533
						c1.612-8.972-8.689-14.712-11.311-22.464c-1.454-4.284-1.947-8.123-2.698-12.342c-0.06,1.227-0.063,2.327,0.018,3.239
						c0.443,4.919,1.862,10.165,4.07,14.588c1.39,2.778,9.383,12.471,8.863,14.067C204.305,287.844,201.745,291.978,196.453,297.29z
						"/>
					<path fill="#BC6D93" d="M280.072,276.857c-1.683,1.859-5.155,4.546-5.972,5.665c-1.539,2.106-3.138,4.365-4.752,6.62
						C275.098,285.758,280.067,281.699,280.072,276.857z"/>
					<path fill="#BC6D93" d="M97.742,399.235c-0.141-0.177-0.272-0.352-0.4-0.513C97.463,398.893,97.611,399.062,97.742,399.235z"/>
					<path fill="#BC6D93" d="M227.809,187.84c3.576-1.642,6.68-4.519,8.539-8.496c-0.07,0.118-0.123,0.236-0.221,0.338
						C232.88,183.189,230.393,185.904,227.809,187.84z"/>
					<path fill="#BC6D93" d="M141.833,355.44c-2.697-1.013-5.203-1.942-7.198-2.433c-6.144-1.509-12.284-1.549-18.094-0.247
						c5.206,0.992,10.526,2.166,16.143,2.174C135.687,354.941,138.744,355.147,141.833,355.44z"/>
					<path fill="#BC6D93" d="M243.738,312.963c-0.917,2.551-1.343,5.11-1.591,7.665c0.816-2.294,1.363-4.644,1.504-7.058
						C243.662,313.367,243.72,313.167,243.738,312.963z"/>
					<path fill="#BC6D93" d="M186.17,202.587c-15.322-2.11-25.951,27.57-33.265,36.801c-3.609,4.559-8.35,8.494-13.669,11.029
						c0.433,0.176,0.92,0.246,1.441,0.129c9.06-2.027,14.278-10.573,19.684-17.57c4.325-5.596,6.861-13.088,10.327-19.246
						c9.556-16.972,21.508-4.302,22.777,6.818c1.017,8.909-1.716,18.275-0.058,26.885c0.093,0.491,0.169,0.954,0.255,1.435
						C194.29,235.359,201.926,204.754,186.17,202.587z"/>
					<path fill="#BC6D93" d="M143.878,275.051c-0.323-0.955-1.673-1.524-2.433-0.642c-3.269,3.814-16.55-1.743-20.037,6.299
						c-2.305,5.319-1.997,13.646-6.534,15.283c-4.277,1.541-6.889,5.863-11.952,6.01c-3.612,0.105-7.287,2.143-10.543,3.44
						c-7.005,2.786-16.376,5.987-21.878,11.17c-11.986,11.294-25.039,18.48-24.457,36.711c0.435,13.622,24.595,14.443,33.882,13.816
						c2.919-0.196,4.284-2.385,4.103-4.549c-0.509-0.42-1.123-0.728-1.871-0.831c-7.193-0.988-14.287-0.892-21.543-0.902
						c-3.3-0.002-6.556-1.25-9.833-1.566c-2.547-0.242-1.164-3.337-1.052-5.669c1.128-23.115,19.308-34.394,38.614-41.501
						c7.115-2.617,29.011-6.146,30.986-15.893c1.695-8.378,3.911-18.51,15.462-15.332c1.479,0.408,2.811,0.69,4.063,0.851
						C142.555,280.646,145.189,278.94,143.878,275.051z"/>
					<path fill="#BC6D93" d="M109.691,387.007c0.42-0.028,0.841-0.015,1.257-0.018c0.211-0.383,0.438-0.761,0.677-1.134
						c-5.206-1.456-9.881-2.423-14.067-1.327c-3.186,3.781-3.99,8.909-0.216,14.195c0.128,0.161,0.259,0.335,0.4,0.513
						c0.466,0.604,0.955,1.209,1.547,1.816c4.028,4.139-2.622,2.967-5.438,3.508c-9.692,1.861-18.314,2.63-24.941-6.276
						c-5.936-7.977-8.66-15.873-18.946-18.714c-9.959-2.751-19.744-3.64-22.008-15.447c-0.748-3.889-0.665-7.705-0.476-11.5
						c-1.337-2.796-3.045-5.443-5.572-8.304c-1.216-1.378-3.484-0.252-3.496,1.448c-0.088,14.239,3.073,33.729,17.803,39.126
						c13.669,5.007,24.626,10.282,36.217,19.288c7.443,5.783,13.171,9.121,23.014,8.35c4.138-0.322,11.36-3.212,11.627-8.121
						c0.139-2.569,0.138-4.892-1.237-7.234C100.818,388.608,100.868,387.619,109.691,387.007z"/>
					<path fill="#BC6D93" d="M276.237,236.54c-0.154-0.252-0.262-0.541-0.43-0.779c-0.083-0.038-0.169-0.065-0.255-0.099
						c-3.906,5.796-3.219,13.624-0.92,20.999c3.388,5.722,6.496,10.339,6.362,18.711c-0.007,0.348-0.367,0.874-0.922,1.486
						c-0.005,4.843-4.974,8.901-10.724,12.286c-1.836,2.561-3.697,5.115-5.531,7.442c-5.383,6.809-14.961,5.751-19.066,13.971
						c-0.4,0.799-0.723,1.602-1.013,2.408c-0.018,0.204-0.076,0.405-0.086,0.607c-0.141,2.415-0.688,4.765-1.504,7.058
						c-0.711,7.231-0.149,14.437-6.166,21.344c-2.624,3.012-5.795,5.614-9.161,8.004c-10.529,33.474-47.573,41.3-80.129,37.965
						c-7.823,0.622-14.73,1.778-22.157,0.972c-0.368,0.245-0.723,0.504-1.061,0.774c7.403,2.785,14.841,6.723,22.741,6.924
						c13.76,0.355,25.374-5.357,38.906-6.179c3.401-0.204,6.692-0.118,9.942-0.255c2.712-0.854,5.348-1.94,8.002-3.541
						c6.037-3.64,9.43-10.629,15.568-14.001c1.559-0.856,3.158-1.765,4.766-2.7c2.116-2.126,4.158-4.312,5.697-7.106
						c1.816-3.297,1.07-8.022,3.43-11.052c2.178-2.801,4.135-6.189,5.908-9.282c4.72-8.236,12.758-14.183,13.526-24.325
						c0.982-12.967,15.364-17.49,26.178-24.168c2.406-3.083,4.579-6.294,6.211-9.818
						C292.319,266.964,277.464,253.154,276.237,236.54z"/>
					<path fill="#BC6D93" d="M266.998,202.83c-15.961,1.556-39.761,6.642-36.469,27.996c1.733,11.231,7.251,22.008,17.18,27.733
						c5.947,3.435,12.83,16.012,3.982,21.976c-2.358,1.59-5.421,2.541-8.014,3.66c-4.255,1.837-9.478,3.546-11.969,7.796
						c-2.519,4.3-1.745,10.922-2.834,15.593c-2.056,8.813-11.727,11.787-18.366,16.256c-3.174,2.138-4.342,6.314-5.71,9.689
						c-4.002,9.881-10.879,16.352-20.785,19.92c-0.488,0.333-1.008,0.645-1.547,0.944c-6.204,4.75-13.145,5.829-20.324,4.73
						c-0.594,0.144-1.197,0.272-1.788,0.419c-4.68,1.182-12.156-1.705-18.52-4.101c-3.09-0.293-6.146-0.499-9.148-0.506
						c-5.617-0.008-10.938-1.182-16.143-2.174c-4.987,1.118-9.7,3.284-13.982,6.337c24.832-4.866,49.7,7.12,75.305,6.276
						c1.023-0.035,1.892,0.176,2.63,0.534c8.813-0.761,15.91-8.66,20.059-15.732c2.829-4.821,4.884-10.878,8.462-15.123
						c4.299-5.105,12.646-6.713,16.236-12.556c2.992-4.876,4.463-9.75,5.738-15.334c2.234-9.797,6.448-12.054,14.508-15.773
						c10.503-4.848,13.253-14.574,9.876-25.071c-1.902-5.929-6.256-10.481-9.168-15.828c-4.35-7.98-14.254-6.68-14.113-19.075
						c0.194-16.807,24.091-21.228,36.491-25.787c0.523-0.191,0.897-0.539,1.189-0.935
						C269.365,203.568,268.433,202.693,266.998,202.83z"/>
					<path fill="#BC6D93" d="M152.89,356.664c-3.697-0.41-7.398-0.876-11.057-1.224c6.364,2.396,13.84,5.284,18.52,4.101
						c0.59-0.148,1.194-0.275,1.788-0.419C159.088,358.656,155.99,357.805,152.89,356.664z"/>
					<path fill="#BC6D93" d="M102.56,359.097c4.282-3.053,8.995-5.219,13.982-6.337c-8.627-1.642-16.941-2.776-25.776,2.756
						c-3.07,1.922-2.586,5.606-0.607,7.558C94.294,361.19,98.425,359.907,102.56,359.097z"/>
					<path fill="#BC6D93" d="M218.887,184.533c-3.982,0.322-8.034-0.215-12.141-1.774c-5.67-2.149-10.861-3.881-16.019-4.637
						c2.516,0.887,5.02,2.569,7.211,3.252c5.524,1.726,8.67,4.504,14.735,5.212c8.329,0.973,12.758-0.103,16.933-3.224
						C226.228,184.909,222.439,185.324,218.887,184.533z"/>
					<path fill="#BC6D93" d="M170.792,180.854c-1.387,0.96-2.816,1.871-4.408,2.58c-11.511,5.145-17.379,15.057-26.827,22.739
						c-8.952,7.276-17.442,3.612-18.046-3.876c-4.083-0.214-6.299,6.446-2.217,8.646c8.276,4.459,19.719,0.63,26.749-4.79
						c3.906-3.007,6.776-5.853,8.563-10.349c3.04-7.654,14.195-8.435,20.573-11.586c3.368-1.663,6.4-3.476,9.458-5.654
						c0.585-0.418,1.189-0.68,1.801-0.836C181.444,177.557,176.359,178.448,170.792,180.854z"/>
					<path fill="#BC6D93" d="M236.577,178.748c-0.083,0.196-0.143,0.408-0.229,0.595
						C236.459,179.153,236.536,178.957,236.577,178.748z"/>
					<path fill="#BC6D93" d="M171.559,167.119c-17.351,7.234-35.735,23.11-39.532,28.185c-3.798,5.073-3.027,9.373-3.418,10.249
						c4.838-3.609,8.556-8.12,13.199-12.586c7.488-7.189,15.636-11.443,24.693-16.264c7.73-4.111,14.551-9.103,22.794-12.392
						c6.947-2.771,13.437-1.876,19.983-6.629c0.103-0.076,0.186-0.164,0.255-0.269C196.565,156.833,179.601,163.767,171.559,167.119
						z"/>
				</g>
				<path fill="#6D1D41" d="M245.838,367.035c2.332-1.161,4.194-5.115,4.872-7.442c1.035-3.546,6.29-5.637,10.07-5.154
					c9.35,1.197,19.19,2.129,27.572-2.803c4.483-2.635,10.84-6.911,11.594-12.332c-1.937-0.884-4.576-0.672-6.284,0.846
					c-7.068,6.261-9.229,14.518-20.21,13.816c-7.489-0.481-13.306-5.118-21.074-3.97c-6.266,0.927-9.99,6-13.138,10.932
					c-2.071,3.237-2.63,6.261-4.821,8.619C238.319,369.371,242.146,368.867,245.838,367.035z"/>
				<path fill="#BC6D93" d="M146.338,295.683c-0.005,0.36,0.008,0.721,0.061,1.076c1.585-0.403,3.154-0.634,4.753-0.68
					c0.847-0.342,1.837-0.38,2.862,0.071c0.106,0.046,0.227,0.073,0.335,0.118c0.484,0.063,0.962,0.106,1.456,0.206
					c0.163,0.033,0.624,0.124,1.262,0.242c1.282-0.463,2.516-1.032,3.67-1.753c4.161-2.602,9.165-6.941,12.871-11.48
					c0.668-1.952,1.72-3.972,2.864-6.62c1.871-4.327-4.977-7.012-6.876-9.883c-2.015-3.045-4.625-7.077-4.294-10.992
					c0.491-5.801,3.539-10.131,7.106-14.302c-0.501-1.365-2.242-2.159-3.682-1.59c-5.259,7.805-10.574,14.901-4.33,24.764
					c3.494,5.518,6.342,12.065,3.866,18.573C165.032,291.927,154.469,292.545,146.338,295.683z"/>
			</g>
		</g>
	</g>
</g>
</svg>
