<?xml version="1.0" encoding="utf-8"?>
<!-- Generator: Adobe Illustrator 16.0.0, SVG Export Plug-In . SVG Version: 6.00 Build 0)  -->
<!DOCTYPE svg PUBLIC "-//W3C//DTD SVG 1.1//EN" "http://www.w3.org/Graphics/SVG/1.1/DTD/svg11.dtd">
<svg version="1.1" id="Ebene_1" xmlns="http://www.w3.org/2000/svg" xmlns:xlink="http://www.w3.org/1999/xlink" x="0px" y="0px"
	 width="450px" height="450px" viewBox="0 0 450 450" enable-background="new 0 0 450 450" xml:space="preserve">
<g>
	<g>
		<path fill="#4FB64F" d="M200.542,154.789c-1.888,0.608-3.822,1.31-5.755,2.103c-0.501-0.131-1.038-0.143-1.568,0.016
			c-0.794,0.234-1.412,0.778-1.767,1.462c-0.566,0.269-1.128,0.543-1.686,0.829c-0.845-0.304-1.785-0.361-2.712-0.088
			c-1.69,0.5-2.841,1.939-3.085,3.592c-2.189,1.551-4.175,3.284-5.832,5.219c-0.186,0.018-0.375,0.051-0.562,0.105
			c-1.521,0.449-2.392,2.027-2.009,3.565c-2.15,3.845-3.027,8.335-1.935,13.553c-0.651,0.74-0.925,1.79-0.624,2.813
			c0.365,1.229,1.446,2.039,2.646,2.122c3.596,4.854,11.348,5.867,21.832,4.562c3.427-10.059,10.167-31.117,13.802-42.519
			C207.464,152.809,203.784,153.742,200.542,154.789z"/>
		<path fill="#259F45" d="M217.432,190.519c0.71,0.495,1.618,0.686,2.507,0.423c0.87-0.258,1.521-0.891,1.854-1.668
			c2.89-0.889,5.425-1.814,7.682-2.771c0.404,0.058,0.826,0.038,1.244-0.086c0.69-0.205,1.24-0.65,1.609-1.212
			c5.308-2.635,8.618-5.529,10.587-8.748c3.035-4.961,4.27-9.427,2.184-14.613c0.236-0.774,0.257-1.626,0.01-2.464
			c-0.37-1.253-1.27-2.193-2.372-2.682c-0.017-0.198-0.054-0.396-0.112-0.597c-0.467-1.578-2.109-2.48-3.671-2.02
			c-0.136,0.04-0.253,0.1-0.376,0.156c-4.198-2.422-9.787-3.327-15.713-3.273c-0.008-0.034,0.002-0.066-0.008-0.101
			c-0.286-0.969-1.299-1.525-2.261-1.241c-0.696,0.207-1.165,0.802-1.265,1.48c-2.689,0.184-5.4,0.544-8.042,1.018
			c-3.635,11.401-10.375,32.46-13.802,42.519c5.573-0.693,11.902-2.03,18.819-3.819C216.694,190.722,217.054,190.62,217.432,190.519
			z"/>
		<path fill="#DAF8C6" d="M186.244,163.41c5.747-3.609,10.006-6.394,18.093-8.597c8.232-2.243,18.066-4.195,25.928-1.936
			c7.862,2.263,9.463,2.554,11.407,6.563c1.941,4.011,1.404,13.722-24.254,21.69c-25.66,7.969-40.276,6.558-41.901-0.221
			C173.894,174.132,180.497,167.019,186.244,163.41z"/>
		<path fill="#BFE9A3" d="M205.092,161.849c1.971-1.315,4.841-2.195,5.397-1.596c0.556,0.601,0.309,2.966-2.077,3.862
			C206.029,165.012,203.035,163.222,205.092,161.849z"/>
		<path fill="#BFE9A3" d="M194.997,176.553c-2.221,0.039-4.947-0.807-5.094-1.639c-0.148-0.833,1.217-2.748,3.563-2.188
			C195.814,173.286,197.316,176.515,194.997,176.553z"/>
		<path fill="#BFE9A3" d="M222.827,168.847c-1.706,1.505-4.479,2.721-5.228,2.23c-0.75-0.491-1.136-2.756,1.124-3.922
			C220.983,165.99,224.613,167.275,222.827,168.847z"/>
		<path fill="#BFE9A3" d="M197.886,175.253c0,0,9.38-0.289,8.671-3.328C205.848,168.887,197.886,175.253,197.886,175.253z"/>
		<path fill="#BFE9A3" d="M196.392,173.401c0,0,8.546-1.188,7.21-4.424C202.267,165.742,196.392,173.401,196.392,173.401z"/>
		<path fill="#BFE9A3" d="M194.653,172.005c0,0,8.116-3.928,5.683-5.117C197.9,165.696,194.653,172.005,194.653,172.005z"/>
		<path fill="#BFE9A3" d="M192.236,172.147c0,0,6.634-4.445,3.68-5.482C192.956,165.628,192.236,172.147,192.236,172.147z"/>
		<path fill="#BFE9A3" d="M215.831,171.284c0,0-6.721,3.516-6.946,1.48C208.663,170.729,215.831,171.284,215.831,171.284z"/>
		<path fill="#BFE9A3" d="M215.782,169.197c0,0-5.467,1.999-5.342-0.14S215.782,169.197,215.782,169.197z"/>
		<path fill="#BFE9A3" d="M216.656,167.029c0,0-4.697-0.522-3.164-1.739C215.024,164.072,216.656,167.029,216.656,167.029z"/>
		<path fill="#BFE9A3" d="M220.781,165.618c0,0-6.209-1.795-3.127-2.896S220.781,165.618,220.781,165.618z"/>
		<path fill="#BFE9A3" d="M203.089,163.398c0,0-6.006,0.818-4.668,2.144C199.76,166.865,203.089,163.398,203.089,163.398z"/>
		<path fill="#BFE9A3" d="M205.177,164.691c0,0-3.677,1.66-1.869,2.653C205.118,168.339,205.177,164.691,205.177,164.691z"/>
		<path fill="#BFE9A3" d="M207.75,165.077c0,0-2.478,3.788-0.459,3.574C209.31,168.436,207.75,165.077,207.75,165.077z"/>
		<path fill="#BFE9A3" d="M210.206,163.777c0,0-0.059,3.647,1.596,2.203C213.458,164.536,210.206,163.777,210.206,163.777z"/>
	</g>
	<g>
		<path fill="#4FB64F" d="M202.762,195.339c-1.941-1.13-4-2.233-6.13-3.262c-0.27-0.519-0.666-0.979-1.201-1.309
			c-0.8-0.491-1.724-0.603-2.567-0.391c-0.653-0.272-1.311-0.539-1.973-0.793c-0.386-0.938-1.052-1.771-1.983-2.345
			c-1.703-1.048-3.783-0.936-5.35,0.095c-2.963-0.679-5.922-1.05-8.797-0.991c-0.156-0.146-0.328-0.278-0.517-0.395
			c-1.53-0.94-3.514-0.493-4.511,0.981c-4.851,1.072-9.281,3.696-12.819,8.522c-1.115,0.006-2.203,0.562-2.83,1.581
			c-0.756,1.227-0.611,2.742,0.229,3.813c-1.335,6.657,3.697,13.933,12.746,21.766c11.025-4.653,33.783-14.755,46.091-20.236
			C209.672,199.676,206.098,197.28,202.762,195.339z"/>
		<path fill="#259F45" d="M185.645,236.287c0.123,0.968,0.653,1.874,1.55,2.425c0.876,0.539,1.896,0.611,2.802,0.311
			c2.938,1.762,5.637,3.201,8.152,4.381c0.257,0.383,0.594,0.721,1.013,0.98c0.698,0.428,1.487,0.556,2.239,0.444
			c6.232,2.489,11.171,3.105,15.362,2.351c6.458-1.164,11.136-3.472,13.896-9.109c0.829-0.381,1.56-1.002,2.073-1.837
			c0.769-1.249,0.874-2.708,0.447-4c0.153-0.162,0.292-0.343,0.415-0.542c0.967-1.572,0.477-3.631-1.096-4.598
			c-0.135-0.082-0.275-0.14-0.415-0.201c-1.157-5.34-4.64-10.717-9.18-15.654c0.022-0.031,0.056-0.049,0.077-0.082
			c0.594-0.967,0.292-2.234-0.676-2.829c-0.7-0.433-1.554-0.38-2.199,0.044c-2.196-2.122-4.554-4.129-6.956-5.994
			c-12.308,5.481-35.065,15.583-46.091,20.236c4.81,4.164,10.73,8.482,17.479,12.957
			C184.916,235.819,185.274,236.045,185.645,236.287z"/>
		<path fill="#DAF8C6" d="M184.691,189.777c7.384,2.128,12.946,3.622,20.931,8.769c8.126,5.24,17.225,12.045,21.296,20.345
			s5.041,9.862,3.157,14.499c-1.887,4.637-10.43,11.457-36.575-4.143c-26.149-15.6-36.057-28.938-31.61-35.381
			C166.335,187.423,177.305,187.65,184.691,189.777z"/>
		<path fill="#BFE9A3" d="M200.299,204.45c2.597,0.671,5.512,2.425,5.432,3.34c-0.082,0.917-2.251,2.48-4.813,1.146
			C198.36,207.603,197.589,203.749,200.299,204.45z"/>
		<path fill="#BFE9A3" d="M180.319,206.976c-1.715-1.837-3.075-4.762-2.489-5.509c0.585-0.748,3.226-1.034,4.537,1.357
			C183.678,205.214,182.112,208.896,180.319,206.976z"/>
		<path fill="#BFE9A3" d="M207.897,224.595c-2.559-0.308-5.681-1.728-5.837-2.724c-0.158-0.996,1.446-3.018,4.137-1.992
			C208.89,220.906,210.567,224.919,207.897,224.595z"/>
		<path fill="#BFE9A3" d="M183.603,208.428c0,0,7.359,7.666,9.368,4.795C194.976,210.352,183.603,208.428,183.603,208.428z"/>
		<path fill="#BFE9A3" d="M184.019,205.787c0,0,7.48,6.292,9.178,2.748C194.896,204.989,184.019,205.787,184.019,205.787z"/>
		<path fill="#BFE9A3" d="M183.871,203.282c0,0,9.447,3.878,8.598,0.94C191.618,201.284,183.871,203.282,183.871,203.282z"/>
		<path fill="#BFE9A3" d="M181.917,201.354c0,0,8.759,2.248,7.384-1.012C187.926,197.081,181.917,201.354,181.917,201.354z"/>
		<path fill="#BFE9A3" d="M200.544,220.539c0,0-8.046-3.017-6.511-4.728C195.571,214.1,200.544,220.539,200.544,220.539z"/>
		<path fill="#BFE9A3" d="M202.256,218.935c0,0-5.823-3.099-3.936-4.595C200.205,212.844,202.256,218.935,202.256,218.935z"/>
		<path fill="#BFE9A3" d="M204.735,218.046c0,0-3.126-4.338-0.945-3.962C205.975,214.462,204.735,218.046,204.735,218.046z"/>
		<path fill="#BFE9A3" d="M209.047,220.458c0,0-3.207-6.563,0.053-4.799C212.362,217.425,209.047,220.458,209.047,220.458z"/>
		<path fill="#BFE9A3" d="M197.481,203.925c0,0-5.241-4.433-5.337-2.316C192.051,203.723,197.481,203.925,197.481,203.925z"/>
		<path fill="#BFE9A3" d="M197.981,206.647c0,0-4.179-1.846-3.638,0.418C194.882,209.329,197.981,206.647,197.981,206.647z"/>
		<path fill="#BFE9A3" d="M199.612,209.098c0,0-5.054,0.756-3.34,2.292C197.983,212.927,199.612,209.098,199.612,209.098z"/>
		<path fill="#BFE9A3" d="M202.564,210.19c0,0-3.099,2.682-0.634,2.991C204.397,213.491,202.564,210.19,202.564,210.19z"/>
	</g>
	<g>
		<path fill="#4FB64F" d="M240.815,252.369c-2.247,0.056-4.576,0.193-6.931,0.434c-0.502-0.302-1.08-0.484-1.708-0.484
			c-0.938,0-1.785,0.389-2.393,1.012c-0.698,0.109-1.399,0.226-2.096,0.357c-0.82-0.597-1.823-0.958-2.918-0.958
			c-2.001,0-3.712,1.185-4.508,2.883c-2.876,0.974-5.592,2.208-8.011,3.765c-0.211-0.041-0.427-0.064-0.646-0.064
			c-1.797,0-3.252,1.42-3.328,3.197c-3.572,3.457-5.969,8.012-6.457,13.977c-0.945,0.59-1.58,1.633-1.58,2.83
			c0,1.439,0.914,2.656,2.191,3.128c2.35,6.37,10.447,9.93,22.26,11.861c6.954-9.74,21.046-30.268,28.657-41.387
			C248.973,252.442,244.674,252.275,240.815,252.369z"/>
		<path fill="#259F45" d="M247.687,296.215c0.612,0.76,1.538,1.255,2.591,1.255c1.027,0,1.937-0.474,2.551-1.205
			c3.424-0.038,6.478-0.226,9.237-0.538c0.42,0.191,0.883,0.304,1.376,0.304c0.818,0,1.561-0.306,2.14-0.794
			c6.614-1.146,11.144-3.208,14.317-6.046c4.891-4.376,7.667-8.792,7.064-15.041c0.506-0.758,0.803-1.669,0.803-2.649
			c0-1.467-0.674-2.765-1.715-3.642c0.047-0.219,0.07-0.445,0.07-0.679c0-1.846-1.496-3.342-3.343-3.342
			c-0.155,0-0.308,0.025-0.458,0.046c-3.783-3.943-9.567-6.698-16.021-8.525c0.002-0.038,0.022-0.07,0.022-0.109
			c0-1.136-0.921-2.057-2.057-2.057c-0.823,0-1.521,0.491-1.852,1.19c-2.98-0.658-6.04-1.133-9.064-1.464
			c-7.611,11.119-21.703,31.646-28.657,41.387c6.277,1.026,13.586,1.603,21.677,1.878
			C246.821,296.198,247.244,296.203,247.687,296.215z"/>
		<path fill="#DAF8C6" d="M222.507,257.1c7.406-2.057,12.927-3.699,22.423-3.497c9.667,0.206,20.981,1.234,28.798,6.171
			c7.815,4.938,9.462,5.76,10.285,10.696c0.822,4.938-2.88,15.223-33.324,15.635c-30.444,0.41-45.872-5.76-45.46-13.577
			C205.64,264.712,215.102,259.157,222.507,257.1z"/>
		<path fill="#BFE9A3" d="M243.49,261.42c2.563-0.789,5.964-0.822,6.377,0c0.411,0.824-0.618,3.292-3.498,3.497
			C243.49,265.123,240.815,262.244,243.49,261.42z"/>
		<path fill="#BFE9A3" d="M227.796,274.039c-2.427-0.665-5.115-2.444-5.008-3.388c0.106-0.943,2.204-2.57,4.575-1.22
			C229.733,270.78,230.328,274.736,227.796,274.039z"/>
		<path fill="#BFE9A3" d="M260.516,274.599c-2.341,1.077-5.744,1.504-6.399,0.738c-0.655-0.767-0.351-3.328,2.481-3.865
			C259.428,270.935,262.958,273.476,260.516,274.599z"/>
		<path fill="#BFE9A3" d="M231.352,273.556c0,0,10.286,2.674,10.492-0.822C242.049,269.237,231.352,273.556,231.352,273.556z"/>
		<path fill="#BFE9A3" d="M230.323,271.089c0,0,9.669,1.439,9.258-2.47C239.17,264.712,230.323,271.089,230.323,271.089z"/>
		<path fill="#BFE9A3" d="M228.884,269.031c0,0,10.079-1.646,7.816-3.702C234.438,263.271,228.884,269.031,228.884,269.031z"/>
		<path fill="#BFE9A3" d="M226.21,268.414c0,0,8.639-2.674,5.76-4.73C229.09,261.626,226.21,268.414,226.21,268.414z"/>
		<path fill="#BFE9A3" d="M252.129,274.997c0,0-8.434,1.646-8.023-0.618C244.518,272.117,252.129,274.997,252.129,274.997z"/>
		<path fill="#BFE9A3" d="M252.745,272.734c0,0-6.582,0.411-5.76-1.852C247.809,268.619,252.745,272.734,252.745,272.734z"/>
		<path fill="#BFE9A3" d="M254.392,270.677c0,0-4.938-2.059-2.88-2.881C253.569,266.974,254.392,270.677,254.392,270.677z"/>
		<path fill="#BFE9A3" d="M259.328,270.47c0,0-6.172-3.908-2.469-4.113S259.328,270.47,259.328,270.47z"/>
		<path fill="#BFE9A3" d="M240.815,262.449c0,0-6.788-1.029-5.76,0.822C236.084,265.123,240.815,262.449,240.815,262.449z"/>
		<path fill="#BFE9A3" d="M242.666,264.506c0,0-4.525,0.617-2.88,2.263C241.433,268.414,242.666,264.506,242.666,264.506z"/>
		<path fill="#BFE9A3" d="M245.34,265.74c0,0-3.907,3.291-1.645,3.703C245.958,269.854,245.34,265.74,245.34,265.74z"/>
		<path fill="#BFE9A3" d="M248.426,265.123c0,0-1.234,3.908,1.027,2.881C251.717,266.974,248.426,265.123,248.426,265.123z"/>
	</g>
	<g>
		<path fill="#4FB64F" d="M180.747,232.905c-2.247,0.056-4.576,0.193-6.931,0.434c-0.502-0.302-1.08-0.484-1.708-0.484
			c-0.938,0-1.785,0.389-2.393,1.012c-0.698,0.109-1.399,0.226-2.096,0.357c-0.82-0.597-1.823-0.958-2.918-0.958
			c-2.001,0-3.712,1.185-4.508,2.883c-2.876,0.974-5.592,2.208-8.011,3.765c-0.211-0.041-0.427-0.064-0.646-0.064
			c-1.797,0-3.252,1.42-3.328,3.197c-3.572,3.457-5.969,8.012-6.457,13.977c-0.945,0.59-1.58,1.633-1.58,2.83
			c0,1.439,0.914,2.656,2.191,3.128c2.35,6.37,10.447,9.93,22.26,11.861c6.954-9.74,21.046-30.268,28.657-41.387
			C188.906,232.978,184.607,232.811,180.747,232.905z"/>
		<path fill="#259F45" d="M187.619,276.751c0.612,0.76,1.538,1.255,2.591,1.255c1.027,0,1.937-0.474,2.551-1.205
			c3.424-0.038,6.478-0.226,9.237-0.538c0.42,0.191,0.883,0.304,1.376,0.304c0.818,0,1.561-0.306,2.14-0.794
			c6.614-1.146,11.144-3.208,14.317-6.046c4.891-4.376,7.667-8.792,7.064-15.041c0.506-0.758,0.803-1.669,0.803-2.649
			c0-1.467-0.674-2.765-1.715-3.642c0.047-0.219,0.07-0.445,0.07-0.679c0-1.846-1.496-3.342-3.343-3.342
			c-0.155,0-0.308,0.025-0.458,0.046c-3.783-3.943-9.567-6.698-16.021-8.525c0.002-0.038,0.022-0.07,0.022-0.109
			c0-1.136-0.921-2.057-2.057-2.057c-0.823,0-1.521,0.491-1.852,1.19c-2.98-0.658-6.04-1.133-9.064-1.464
			c-7.611,11.119-21.703,31.646-28.657,41.387c6.277,1.026,13.586,1.603,21.677,1.878
			C186.753,276.734,187.177,276.739,187.619,276.751z"/>
		<path fill="#DAF8C6" d="M162.44,237.636c7.406-2.057,12.927-3.699,22.423-3.497c9.667,0.206,20.981,1.234,28.798,6.171
			c7.815,4.938,9.462,5.76,10.285,10.696c0.822,4.938-2.88,15.223-33.324,15.635c-30.444,0.41-45.872-5.76-45.46-13.577
			C145.573,245.248,155.034,239.693,162.44,237.636z"/>
		<path fill="#BFE9A3" d="M183.422,241.956c2.563-0.789,5.964-0.822,6.377,0c0.411,0.824-0.618,3.292-3.498,3.497
			C183.422,245.659,180.747,242.78,183.422,241.956z"/>
		<path fill="#BFE9A3" d="M167.729,254.575c-2.427-0.665-5.115-2.444-5.008-3.388c0.106-0.943,2.204-2.57,4.575-1.22
			C169.665,251.316,170.261,255.272,167.729,254.575z"/>
		<path fill="#BFE9A3" d="M200.448,255.135c-2.341,1.077-5.744,1.504-6.399,0.738c-0.655-0.767-0.351-3.328,2.481-3.865
			C199.361,251.471,202.891,254.012,200.448,255.135z"/>
		<path fill="#BFE9A3" d="M171.284,254.093c0,0,10.286,2.674,10.492-0.822C181.982,249.773,171.284,254.093,171.284,254.093z"/>
		<path fill="#BFE9A3" d="M170.256,251.625c0,0,9.669,1.439,9.258-2.47C179.103,245.248,170.256,251.625,170.256,251.625z"/>
		<path fill="#BFE9A3" d="M168.817,249.567c0,0,10.079-1.646,7.816-3.702C174.37,243.807,168.817,249.567,168.817,249.567z"/>
		<path fill="#BFE9A3" d="M166.143,248.95c0,0,8.639-2.674,5.76-4.73C169.023,242.162,166.143,248.95,166.143,248.95z"/>
		<path fill="#BFE9A3" d="M192.062,255.533c0,0-8.434,1.646-8.023-0.618C184.45,252.653,192.062,255.533,192.062,255.533z"/>
		<path fill="#BFE9A3" d="M192.678,253.27c0,0-6.582,0.411-5.76-1.852C187.741,249.155,192.678,253.27,192.678,253.27z"/>
		<path fill="#BFE9A3" d="M194.324,251.214c0,0-4.938-2.059-2.88-2.881C193.501,247.51,194.324,251.214,194.324,251.214z"/>
		<path fill="#BFE9A3" d="M199.261,251.007c0,0-6.172-3.908-2.469-4.113S199.261,251.007,199.261,251.007z"/>
		<path fill="#BFE9A3" d="M180.747,242.985c0,0-6.788-1.029-5.76,0.822C176.017,245.659,180.747,242.985,180.747,242.985z"/>
		<path fill="#BFE9A3" d="M182.599,245.042c0,0-4.525,0.617-2.88,2.263C181.365,248.95,182.599,245.042,182.599,245.042z"/>
		<path fill="#BFE9A3" d="M185.273,246.276c0,0-3.907,3.291-1.645,3.703C185.891,250.39,185.273,246.276,185.273,246.276z"/>
		<path fill="#BFE9A3" d="M188.359,245.659c0,0-1.234,3.908,1.027,2.881C191.65,247.51,188.359,245.659,188.359,245.659z"/>
	</g>
	<g>
		<path fill="#4FB64F" d="M259.375,196.169c-1.94-1.131-3.998-2.234-6.128-3.263c-0.271-0.519-0.67-0.979-1.203-1.308
			c-0.801-0.492-1.723-0.604-2.567-0.391c-0.653-0.273-1.311-0.541-1.973-0.793c-0.387-0.939-1.05-1.772-1.982-2.346
			c-1.704-1.048-3.783-0.936-5.351,0.095c-2.961-0.679-5.92-1.05-8.797-0.991c-0.157-0.145-0.328-0.278-0.516-0.395
			c-1.529-0.941-3.513-0.493-4.512,0.98c-4.854,1.074-9.279,3.697-12.82,8.523c-1.115,0.006-2.201,0.562-2.829,1.582
			c-0.755,1.226-0.612,2.741,0.229,3.813c-1.337,6.656,3.697,13.932,12.748,21.766c11.024-4.654,33.782-14.756,46.091-20.238
			C266.286,200.505,262.712,198.11,259.375,196.169z"/>
		<path fill="#259F45" d="M242.257,237.116c0.126,0.968,0.654,1.874,1.549,2.426c0.878,0.538,1.9,0.61,2.805,0.31
			c2.938,1.761,5.637,3.201,8.151,4.38c0.259,0.384,0.594,0.723,1.015,0.981c0.696,0.429,1.487,0.556,2.238,0.444
			c6.234,2.489,11.17,3.105,15.361,2.351c6.458-1.164,11.136-3.472,13.896-9.109c0.83-0.38,1.559-1.001,2.072-1.837
			c0.771-1.249,0.873-2.708,0.449-4c0.15-0.162,0.291-0.344,0.412-0.541c0.968-1.573,0.479-3.631-1.096-4.599
			c-0.133-0.082-0.273-0.14-0.414-0.2c-1.155-5.341-4.64-10.717-9.18-15.655c0.022-0.031,0.057-0.049,0.077-0.081
			c0.595-0.968,0.293-2.234-0.675-2.83c-0.702-0.432-1.554-0.38-2.2,0.044c-2.194-2.122-4.553-4.13-6.954-5.995
			c-12.309,5.482-35.066,15.584-46.091,20.238c4.808,4.163,10.731,8.481,17.479,12.957
			C241.529,236.648,241.888,236.874,242.257,237.116z"/>
		<path fill="#DAF8C6" d="M241.303,190.606c7.386,2.128,12.948,3.623,20.931,8.77c8.128,5.239,17.226,12.044,21.296,20.344
			c4.072,8.3,5.043,9.863,3.158,14.499c-1.886,4.637-10.428,11.457-36.575-4.143c-26.146-15.6-36.057-28.938-31.608-35.382
			C222.948,188.252,233.918,188.479,241.303,190.606z"/>
		<path fill="#BFE9A3" d="M256.911,205.279c2.598,0.671,5.513,2.425,5.433,3.341s-2.249,2.479-4.812,1.146
			C254.972,208.432,254.204,204.578,256.911,205.279z"/>
		<path fill="#BFE9A3" d="M236.935,207.805c-1.719-1.838-3.077-4.762-2.49-5.509c0.582-0.748,3.223-1.034,4.534,1.357
			C240.29,206.044,238.725,209.725,236.935,207.805z"/>
		<path fill="#BFE9A3" d="M264.51,225.425c-2.557-0.308-5.681-1.728-5.837-2.724c-0.157-0.997,1.444-3.019,4.139-1.991
			C265.501,221.735,267.179,225.748,264.51,225.425z"/>
		<path fill="#BFE9A3" d="M240.216,209.259c0,0,7.36,7.665,9.365,4.795C251.591,211.182,240.216,209.259,240.216,209.259z"/>
		<path fill="#BFE9A3" d="M240.634,206.616c0,0,7.479,6.292,9.176,2.748C251.508,205.819,240.634,206.616,240.634,206.616z"/>
		<path fill="#BFE9A3" d="M240.485,204.11c0,0,9.448,3.879,8.598,0.941C248.233,202.114,240.485,204.11,240.485,204.11z"/>
		<path fill="#BFE9A3" d="M238.531,202.183c0,0,8.761,2.248,7.384-1.013C244.538,197.911,238.531,202.183,238.531,202.183z"/>
		<path fill="#BFE9A3" d="M257.158,221.368c0,0-8.045-3.016-6.511-4.727C252.185,214.929,257.158,221.368,257.158,221.368z"/>
		<path fill="#BFE9A3" d="M258.869,219.764c0,0-5.822-3.098-3.935-4.594C256.821,213.675,258.869,219.764,258.869,219.764z"/>
		<path fill="#BFE9A3" d="M261.35,218.876c0,0-3.128-4.338-0.945-3.963C262.588,215.291,261.35,218.876,261.35,218.876z"/>
		<path fill="#BFE9A3" d="M265.662,221.287c0,0-3.209-6.563,0.052-4.798C268.976,218.254,265.662,221.287,265.662,221.287z"/>
		<path fill="#BFE9A3" d="M254.095,204.753c0,0-5.242-4.432-5.337-2.315C248.664,204.552,254.095,204.753,254.095,204.753z"/>
		<path fill="#BFE9A3" d="M254.595,207.475c0,0-4.179-1.845-3.639,0.418C251.497,210.158,254.595,207.475,254.595,207.475z"/>
		<path fill="#BFE9A3" d="M256.226,209.928c0,0-5.053,0.756-3.342,2.291C254.597,213.756,256.226,209.928,256.226,209.928z"/>
		<path fill="#BFE9A3" d="M259.177,211.019c0,0-3.099,2.683-0.632,2.991C261.012,214.32,259.177,211.019,259.177,211.019z"/>
	</g>
	<g>
		<path fill="#4FB64F" d="M214.913,222.428c-1.956-0.329-3.997-0.6-6.078-0.785c-0.383-0.347-0.855-0.605-1.398-0.711
			c-0.813-0.157-1.611,0.041-2.242,0.484c-0.627-0.023-1.251-0.037-1.876-0.039c-0.611-0.66-1.419-1.144-2.368-1.327
			c-1.732-0.335-3.416,0.411-4.393,1.765c-2.657,0.368-5.219,0.991-7.578,1.946c-0.176-0.07-0.357-0.128-0.549-0.165
			c-1.558-0.303-3.057,0.697-3.427,2.238c-3.679,2.422-6.525,6.002-7.959,11.137c-0.922,0.357-1.647,1.163-1.851,2.209
			c-0.242,1.26,0.345,2.476,1.37,3.103c0.956,5.965,7.369,10.438,17.276,14.108c7.675-7.35,23.358-22.933,31.838-31.378
			C221.968,223.86,218.275,222.993,214.913,222.428z"/>
		<path fill="#259F45" d="M213.44,261.921c0.401,0.768,1.12,1.355,2.031,1.531c0.892,0.174,1.758-0.09,2.413-0.625
			c2.975,0.542,5.651,0.89,8.094,1.08c0.334,0.238,0.717,0.413,1.145,0.497c0.708,0.137,1.4-0.005,1.988-0.335
			c5.924,0.107,10.195-0.936,13.426-2.885c4.979-3.004,8.132-6.4,8.67-11.965c0.568-0.578,0.979-1.324,1.145-2.182
			c0.248-1.283-0.117-2.53-0.869-3.473c0.077-0.183,0.136-0.378,0.176-0.582c0.313-1.615-0.73-3.174-2.329-3.484
			c-0.137-0.025-0.271-0.028-0.404-0.035c-2.61-4.083-7.155-7.463-12.438-10.143c0.01-0.035,0.032-0.059,0.038-0.094
			c0.191-0.991-0.449-1.953-1.436-2.143c-0.713-0.138-1.4,0.174-1.805,0.729c-2.47-1.074-5.04-2.004-7.605-2.801
			c-8.479,8.445-24.163,24.028-31.838,31.378c5.265,1.951,11.498,3.681,18.461,5.281
			C212.691,261.761,213.059,261.837,213.44,261.921z"/>
		<path fill="#DAF8C6" d="M198.251,223.493c6.765-0.556,11.824-1.064,20.018,0.705c8.342,1.803,17.969,4.602,23.904,10.229
			c5.938,5.631,7.223,6.626,7.101,11.08c-0.126,4.455-5.075,12.826-31.521,8.076c-26.445-4.749-38.766-12.736-37.086-19.502
			C182.348,227.317,191.486,224.048,198.251,223.493z"/>
		<path fill="#BFE9A3" d="M215.697,230.792c2.354-0.262,5.309,0.282,5.526,1.069c0.217,0.79-1.095,2.775-3.624,2.472
			S213.24,231.062,215.697,230.792z"/>
		<path fill="#BFE9A3" d="M199.963,239.192c-1.988-0.991-4.019-2.995-3.765-3.803c0.251-0.808,2.347-1.878,4.172-0.3
			C202.192,236.667,202.038,240.225,199.963,239.192z"/>
		<path fill="#BFE9A3" d="M228.215,245.174c-2.208,0.549-5.231,0.351-5.668-0.429c-0.439-0.781,0.26-2.97,2.805-2.963
			C227.894,241.788,230.523,244.6,228.215,245.174z"/>
		<path fill="#BFE9A3" d="M203.125,239.367c0,0,8.46,4.064,9.229,1.04C213.124,237.385,203.125,239.367,203.125,239.367z"/>
		<path fill="#BFE9A3" d="M202.653,237.036c0,0,8.133,2.881,8.438-0.605C211.396,232.944,202.653,237.036,202.653,237.036z"/>
		<path fill="#BFE9A3" d="M201.754,234.995c0,0,9.012,0.253,7.401-1.925C207.542,230.892,201.754,234.995,201.754,234.995z"/>
		<path fill="#BFE9A3" d="M199.542,234.008c0,0,7.938-0.888,5.791-3.17C203.187,228.553,199.542,234.008,199.542,234.008z"/>
		<path fill="#BFE9A3" d="M220.882,244.114c0,0-7.586,0.021-6.846-1.888C214.775,240.317,220.882,244.114,220.882,244.114z"/>
		<path fill="#BFE9A3" d="M221.801,242.239c0,0-5.772-0.745-4.679-2.586C218.221,237.812,221.801,242.239,221.801,242.239z"/>
		<path fill="#BFE9A3" d="M223.573,240.716c0,0-3.928-2.627-2.006-3.001S223.573,240.716,223.573,240.716z"/>
		<path fill="#BFE9A3" d="M227.885,241.365c0,0-4.684-4.454-1.44-4.012C229.687,237.795,227.885,241.365,227.885,241.365z"/>
		<path fill="#BFE9A3" d="M213.204,231.242c0,0-5.705-2.039-5.13-0.247C208.655,232.787,213.204,231.242,213.204,231.242z"/>
		<path fill="#BFE9A3" d="M214.462,233.351c0,0-4.026-0.22-2.881,1.496C212.73,236.563,214.462,233.351,214.462,233.351z"/>
		<path fill="#BFE9A3" d="M216.57,234.88c0,0-3.943,2.222-2.053,2.962C216.406,238.581,216.57,234.88,216.57,234.88z"/>
		<path fill="#BFE9A3" d="M219.347,234.858c0,0-1.73,3.211,0.402,2.689C221.886,237.03,219.347,234.858,219.347,234.858z"/>
	</g>
	<g>
		<g>
			<path fill="#4FB64F" d="M268.275,136.617c-7.348,2.088-8.089,3.978-13.575,2.879c-4.687-0.938-10.606,4.205-18.487,12.387
				c-0.145-0.015-0.287-0.044-0.438-0.044c-2.498,0-4.525,2.026-4.525,4.525c0,0.436,0.082,0.848,0.196,1.246
				c-2.594,3.705-3.929,8.02-4.475,12.355c-0.083-0.004-0.16-0.024-0.247-0.024c-2.497,0-4.525,2.026-4.525,4.524
				c0,2.499,2.028,4.526,4.525,4.526c0.029,0,0.053-0.009,0.08-0.009c0.051,0.707,0.123,1.396,0.197,2.075
				c-1.16,0.819-1.923,2.164-1.923,3.692c0,2.092,1.427,3.834,3.355,4.354c0.685,2.811,1.308,4.561,1.308,4.561
				c2.462,5.23,8.204,10.113,16.739,13.202c6.673-16.392,23.001-56.509,28.319-69.688
				C272.188,136.414,270.668,135.936,268.275,136.617z"/>
			<path fill="#259F45" d="M271.432,210.121c22.489-1.098,36.202-13.714,36.751-23.038c0.07-1.166,0.099-2.32,0.09-3.465
				c0.703-0.798,1.144-1.834,1.144-2.98c0-1.396-0.646-2.63-1.64-3.46c-0.826-5.727-2.705-11.401-5.767-17.522
				c-0.252-0.506-0.507-0.989-0.765-1.473c0.475-0.621,0.765-1.389,0.765-2.23c0-2.043-1.657-3.702-3.702-3.702
				c-0.202,0-0.396,0.028-0.592,0.06c-2.381-3.462-4.82-6.085-7.24-8.033c-0.084-2.425-2.063-4.369-4.511-4.369
				c-0.765,0-1.474,0.207-2.104,0.544c-2.715-0.999-6.046-2.389-9.061-3.272c-5.318,13.18-21.646,53.297-28.319,69.688
				C253.163,209.284,261.555,210.602,271.432,210.121z"/>
		</g>
		<path fill="#1E8D38" d="M260.656,144.266c3.838-0.748,5.428-1.965,6.456-0.562c2.305,3.143-1.122,5.616-4.21,6.177
			c-3.854,0.701-7.754,1.657-7.582-3.369C255.412,143.799,258.63,144.661,260.656,144.266z"/>
		<circle fill="#259F45" cx="258.813" cy="178.169" r="4.114"/>
		<circle fill="#259F45" cx="264.573" cy="168.706" r="4.114"/>
		<circle fill="#4FB64F" cx="248.116" cy="196.27" r="4.113"/>
		<circle fill="#4FB64F" cx="272.389" cy="142.377" r="4.115"/>
		<path fill="#4FB64F" d="M295.839,185.574c0,1.136-0.918,2.057-2.057,2.057c-1.135,0-2.057-0.921-2.057-2.057
			c0-1.137,0.922-2.058,2.057-2.058C294.921,183.516,295.839,184.437,295.839,185.574z"/>
		<circle fill="#4FB64F" cx="274.447" cy="174.878" r="2.057"/>
		<circle fill="#4FB64F" cx="284.321" cy="159.655" r="3.343"/>
	</g>
	<g>
		<path fill="#4FB64F" d="M202.513,269.4c-2.247,0.056-4.576,0.193-6.931,0.434c-0.502-0.302-1.08-0.484-1.708-0.484
			c-0.938,0-1.785,0.389-2.393,1.012c-0.698,0.109-1.399,0.226-2.096,0.357c-0.82-0.597-1.823-0.958-2.918-0.958
			c-2.001,0-3.712,1.185-4.508,2.883c-2.876,0.974-5.592,2.208-8.011,3.765c-0.211-0.041-0.427-0.064-0.646-0.064
			c-1.797,0-3.252,1.42-3.328,3.197c-3.572,3.457-5.969,8.012-6.457,13.977c-0.945,0.59-1.58,1.633-1.58,2.83
			c0,1.439,0.914,2.656,2.191,3.128c2.35,6.37,10.447,9.93,22.26,11.861c6.954-9.74,21.046-30.268,28.657-41.387
			C210.671,269.473,206.372,269.306,202.513,269.4z"/>
		<path fill="#259F45" d="M209.385,313.246c0.612,0.76,1.538,1.255,2.591,1.255c1.027,0,1.937-0.474,2.551-1.205
			c3.424-0.038,6.478-0.226,9.237-0.538c0.42,0.191,0.883,0.304,1.376,0.304c0.818,0,1.561-0.306,2.14-0.794
			c6.614-1.146,11.144-3.208,14.317-6.046c4.891-4.376,7.667-8.792,7.064-15.041c0.506-0.758,0.803-1.669,0.803-2.649
			c0-1.467-0.674-2.765-1.715-3.642c0.047-0.219,0.07-0.445,0.07-0.679c0-1.846-1.496-3.342-3.343-3.342
			c-0.155,0-0.308,0.025-0.458,0.046c-3.783-3.943-9.567-6.698-16.021-8.525c0.002-0.038,0.022-0.07,0.022-0.109
			c0-1.136-0.921-2.057-2.057-2.057c-0.823,0-1.521,0.491-1.852,1.19c-2.98-0.658-6.04-1.133-9.064-1.464
			c-7.611,11.119-21.703,31.646-28.657,41.387c6.277,1.026,13.586,1.603,21.677,1.878
			C208.519,313.229,208.943,313.234,209.385,313.246z"/>
		<path fill="#DAF8C6" d="M184.205,274.132c7.406-2.057,12.927-3.699,22.423-3.497c9.667,0.206,20.981,1.234,28.798,6.171
			c7.815,4.938,9.462,5.76,10.285,10.696c0.822,4.938-2.88,15.223-33.324,15.635c-30.444,0.41-45.872-5.76-45.46-13.577
			C167.338,281.743,176.8,276.188,184.205,274.132z"/>
		<path fill="#BFE9A3" d="M205.188,278.451c2.563-0.789,5.964-0.822,6.377,0c0.411,0.824-0.618,3.292-3.498,3.497
			C205.188,282.154,202.513,279.275,205.188,278.451z"/>
		<path fill="#BFE9A3" d="M189.494,291.07c-2.427-0.665-5.115-2.444-5.008-3.388c0.106-0.943,2.204-2.57,4.575-1.22
			C191.431,287.811,192.027,291.767,189.494,291.07z"/>
		<path fill="#BFE9A3" d="M222.214,291.631c-2.341,1.077-5.744,1.504-6.399,0.738c-0.655-0.767-0.351-3.328,2.481-3.865
			C221.126,287.967,224.656,290.508,222.214,291.631z"/>
		<path fill="#BFE9A3" d="M193.05,290.588c0,0,10.286,2.674,10.492-0.822C203.747,286.268,193.05,290.588,193.05,290.588z"/>
		<path fill="#BFE9A3" d="M192.022,288.12c0,0,9.669,1.439,9.258-2.47C200.868,281.743,192.022,288.12,192.022,288.12z"/>
		<path fill="#BFE9A3" d="M190.582,286.062c0,0,10.079-1.646,7.816-3.702C196.136,280.302,190.582,286.062,190.582,286.062z"/>
		<path fill="#BFE9A3" d="M187.908,285.445c0,0,8.639-2.674,5.76-4.73C190.788,278.657,187.908,285.445,187.908,285.445z"/>
		<path fill="#BFE9A3" d="M213.827,292.028c0,0-8.434,1.646-8.023-0.618C206.216,289.148,213.827,292.028,213.827,292.028z"/>
		<path fill="#BFE9A3" d="M214.444,289.765c0,0-6.582,0.411-5.76-1.852C209.507,285.65,214.444,289.765,214.444,289.765z"/>
		<path fill="#BFE9A3" d="M216.09,287.709c0,0-4.938-2.059-2.88-2.881C215.267,284.006,216.09,287.709,216.09,287.709z"/>
		<path fill="#BFE9A3" d="M221.027,287.502c0,0-6.172-3.908-2.469-4.113S221.027,287.502,221.027,287.502z"/>
		<path fill="#BFE9A3" d="M202.513,279.48c0,0-6.788-1.029-5.76,0.822C197.782,282.154,202.513,279.48,202.513,279.48z"/>
		<path fill="#BFE9A3" d="M204.365,281.537c0,0-4.525,0.617-2.88,2.263C203.131,285.445,204.365,281.537,204.365,281.537z"/>
		<path fill="#BFE9A3" d="M207.038,282.771c0,0-3.907,3.291-1.645,3.703C207.656,286.885,207.038,282.771,207.038,282.771z"/>
		<path fill="#BFE9A3" d="M210.124,282.154c0,0-1.234,3.908,1.027,2.881C213.415,284.006,210.124,282.154,210.124,282.154z"/>
	</g>
</g>
</svg>
