<?xml version="1.0" encoding="utf-8"?>
<!-- Generator: Adobe Illustrator 16.0.0, SVG Export Plug-In . SVG Version: 6.00 Build 0)  -->
<!DOCTYPE svg PUBLIC "-//W3C//DTD SVG 1.1//EN" "http://www.w3.org/Graphics/SVG/1.1/DTD/svg11.dtd">
<svg version="1.1" id="Layer_2" xmlns="http://www.w3.org/2000/svg" xmlns:xlink="http://www.w3.org/1999/xlink" x="0px" y="0px"
	 width="450px" height="450px" viewBox="0 0 450 450" enable-background="new 0 0 450 450" xml:space="preserve">
<g>
	<g opacity="0.3">
		<path d="M283.612,236.209c-10.701-5.502-14.102-24.902-6.729-34.567c7.372-9.667,17.02-16.635,27.722-11.135
			c10.701,5.5,15.146,20.184,11.03,31.051C311.52,232.425,294.313,241.707,283.612,236.209z"/>
		<path d="M276.538,229.033c1.763,3.109,4.14,5.668,7.073,7.176c10.701,5.498,27.908-3.784,32.022-14.651
			c1.868-4.933,1.966-10.65,0.521-15.939C303.324,214.056,290.178,222.01,276.538,229.033z"/>
		<path d="M283.31,232.195c-3.53-1.814-4.922-6.149-3.106-9.681c1.813-3.53,4.808-2.314,8.34-0.5
			c3.53,1.814,4.447,7.074,2.632,10.604C289.361,236.148,286.842,234.01,283.31,232.195z"/>
		<path d="M291.319,232.299c1.607-3.521,0.652-8.524-2.775-10.285c-0.474-0.243-0.937-0.473-1.389-0.685
			C287.405,225.239,289.025,228.955,291.319,232.299z"/>
		<circle cx="300.362" cy="197.868" r="5.229"/>
		<circle cx="289.662" cy="204.667" r="2.555"/>
		<path d="M163.137,261.499c-10.761-5.531-14.181-25.04-6.767-34.76c7.412-9.72,17.114-16.727,27.876-11.197
			c10.761,5.531,15.23,20.295,11.092,31.224C191.2,257.695,173.898,267.029,163.137,261.499z"/>
		<path d="M156.025,254.283c1.772,3.127,4.162,5.699,7.112,7.216c10.761,5.53,28.063-3.804,32.201-14.732
			c1.879-4.96,1.978-10.71,0.523-16.028C182.96,239.223,169.74,247.221,156.025,254.283z"/>
		<path d="M162.834,257.463c-3.551-1.824-4.95-6.184-3.124-9.734c1.823-3.55,4.834-2.328,8.386-0.504
			c3.55,1.825,4.473,7.113,2.647,10.663C168.918,261.439,166.385,259.288,162.834,257.463z"/>
		<path d="M170.888,257.568c1.615-3.54,0.655-8.572-2.792-10.344c-0.477-0.244-0.941-0.476-1.396-0.688
			C166.951,250.469,168.58,254.205,170.888,257.568z"/>
		<path d="M223.718,219.439c0.652-12.049-5.396-33.74-16.832-42.175s-16.14-7.833-19.511-6.627
			c-3.373,1.205,0.947,24.703,12.644,34.945C211.717,215.823,223.718,219.439,223.718,219.439z"/>
		<path d="M221.574,215.959c6.336-5.687,14.139-19.524,12.644-29.438c-1.497-9.913-4.146-11.96-6.429-13.04
			c-2.284-1.081-11.85,12.798-11.125,23.742C217.391,208.168,221.574,215.959,221.574,215.959z"/>
		<path d="M232.351,178.867c-0.013,0.022-0.023,0.044-0.034,0.065c-2.117,4.161-4.033,8.416-6.001,12.649
			c-2.418,5.209-4.966,10.725-7.934,15.818c1.435,5.283,3.192,8.559,3.192,8.559c6.336-5.687,14.139-19.524,12.644-29.438
			C233.709,183.151,233.066,180.691,232.351,178.867z"/>
		<path d="M279.246,215.51c0,12.479-16.282,24.812-28.693,22.594c-12.41-2.218-28.693-10.115-28.693-22.594
			c0-12.478,16.721-21.238,28.693-22.593C262.53,191.562,279.246,203.032,279.246,215.51z"/>
		<path d="M266.38,197.018c-1.695,1.188-0.328,5.534-13.32,15.33c-12.995,9.795-20.484,10.043-26.189,14.417
			c5.789,6.007,15.564,9.89,23.683,11.34c12.411,2.218,28.693-10.115,28.693-22.594C279.246,208.212,273.525,201.261,266.38,197.018
			z"/>
		<path d="M275.69,217.692c0,4.117-3.34,7.455-7.456,7.455c-4.118,0-4.415-3.338-4.415-7.455c0-4.118,4.415-7.456,8.531-7.456
			C276.469,210.236,275.69,213.574,275.69,217.692z"/>
		<path d="M269.125,210.897c-2.908,1.165-5.307,3.762-5.307,6.795c0,1.637,0.06,3.139,0.375,4.369
			C268.045,219.364,269.871,215.231,269.125,210.897z"/>
		<path d="M184.292,234.538c-2.65-12.194,10.644-27.704,23.242-28.172c12.599-0.469,30.188,3.791,32.839,15.985
			c2.647,12.193-11.828,24.304-23.245,28.17C205.716,254.389,186.943,246.731,184.292,234.538z"/>
		<path d="M200.794,249.877c1.403-1.523,6.736-2.924,17.353-15.256c10.616-12.331,10.295-16.718,14.94-22.204
			c-6.934-4.639-17.311-6.358-25.553-6.051c-12.599,0.468-25.893,15.978-23.242,28.172
			C185.842,241.67,192.911,247.246,200.794,249.877z"/>
		<path d="M187.308,231.651c-0.875-4.022,1.679-7.994,5.701-8.87c4.024-0.874,5.024,2.325,5.899,6.349
			c0.873,4.022-2.733,8.223-6.757,9.098C188.128,239.101,188.182,235.675,187.308,231.651z"/>
		<path d="M198.908,229.131c-0.643-2.957-1.363-5.455-3.293-6.23c-0.036,0.01-0.063,0.025-0.098,0.034
			c-3.494,0.858-3.291,10.167-2.625,12.516c0.224,0.792,0.494,1.542,0.788,2.275C197.031,236.266,199.669,232.634,198.908,229.131z"
			/>
		<circle cx="208.519" cy="219.832" r="5.314"/>
		<circle cx="218.479" cy="217.691" r="2.239"/>
		<path d="M221.433,265.576c-4.585-12.459,7.142-30.759,20.349-33.105s32.369-0.445,36.956,12.016
			c4.583,12.459-8.889,27.35-20.351,33.104C246.929,283.344,226.021,278.035,221.433,265.576z"/>
		<path d="M241.08,279.312c1.253-1.811,8.979-5.527,18.354-20.084c9.372-14.556,6.076-17.676,10.165-24.139
			c-7.99-3.869-19.178-4.154-27.817-2.619c-13.207,2.347-24.934,20.646-20.349,33.105C224.115,272.863,232.385,277.7,241.08,279.312
			z"/>
		<path d="M224.187,262.091c-1.514-4.11,0.594-8.671,4.702-10.185c4.112-1.513,5.639,1.711,7.151,5.822
			c1.513,4.11-1.671,9.067-5.782,10.58C226.148,269.821,225.699,266.202,224.187,262.091z"/>
		<path d="M236.04,257.728c-1.111-3.021-2.239-5.547-4.387-6.081c-0.036,0.015-0.063,0.036-0.098,0.051
			c-3.557,1.417-1.972,11.198-0.926,13.574c0.354,0.802,0.748,1.554,1.166,2.281C235.112,265.523,237.358,261.308,236.04,257.728z"
			/>
		<path d="M180.551,188.853c9.289,7.646,8.492,27.326-0.765,35.207c-9.256,7.879-25.114,15.162-34.404,7.516
			c-9.289-7.647-9.585-24.057,0.765-35.207C155.916,185.844,171.261,181.206,180.551,188.853z"/>
		<path d="M166.699,209.938c-11.263,7.335-26.984,10.313-27.111,10.446c-0.173,0.244-0.361,0.473-0.544,0.707
			c0.995,4.156,3.129,7.843,6.338,10.486c9.29,7.646,25.148,0.363,34.404-7.516c8.299-7.065,9.792-23.609,3.319-32.468
			C177.758,195.38,177.961,202.603,166.699,209.938z"/>
		<path d="M179.992,192.838c3.065,2.523,3.505,7.055,0.982,10.12c-2.523,3.065-5.192,1.242-8.258-1.281
			c-3.064-2.523-2.844-7.856-0.32-10.922C174.92,187.69,176.927,190.315,179.992,192.838z"/>
		<path d="M178.407,204.057c0.162-0.37,0.29-0.735,0.405-1.098c-1.125-4.316-3.843-8.02-7.143-11.14
			c-1.801,3.119-1.688,7.605,1.047,9.857c1.985,1.634,3.804,2.965,5.525,2.875C178.28,204.388,178.334,204.224,178.407,204.057z"/>
		<circle cx="152.073" cy="203.096" r="5.314"/>
		<circle cx="161.709" cy="204.627" r="2.904"/>
	</g>
	<g>
		<g>
			<g>
				<g>
					<path fill="#988B10" d="M278.671,233.738c-10.701-5.5-14.101-24.901-6.729-34.567c7.371-9.667,17.019-16.635,27.721-11.135
						s15.146,20.184,11.031,31.051C306.58,229.955,289.372,239.238,278.671,233.738z"/>
				</g>
				<g>
					<path fill="#7C6E08" d="M271.599,226.562c1.762,3.109,4.139,5.668,7.072,7.176c10.701,5.5,27.909-3.783,32.023-14.65
						c1.868-4.934,1.966-10.65,0.52-15.939C298.385,211.586,285.239,219.54,271.599,226.562z"/>
				</g>
				<g>
					<path fill="#605306" d="M278.37,229.724c-3.531-1.813-4.923-6.149-3.107-9.68c1.813-3.531,4.809-2.315,8.34-0.5
						c3.53,1.814,4.447,7.073,2.632,10.604C284.42,233.679,281.902,231.539,278.37,229.724z"/>
				</g>
				<g>
					<path fill="#514607" d="M286.379,229.829c1.607-3.521,0.651-8.524-2.776-10.285c-0.474-0.243-0.937-0.474-1.389-0.686
						C282.464,222.769,284.084,226.484,286.379,229.829z"/>
				</g>
				<circle fill="#AC9D31" cx="295.421" cy="195.398" r="5.229"/>
				<circle fill="#AC9D31" cx="284.723" cy="202.197" r="2.555"/>
			</g>
			<g>
				<g>
					<path fill="#988B10" d="M158.197,259.029c-10.761-5.531-14.18-25.04-6.767-34.76c7.413-9.721,17.114-16.728,27.876-11.197
						c10.761,5.531,15.231,20.296,11.092,31.225C186.26,255.224,168.957,264.558,158.197,259.029z"/>
				</g>
				<g>
					<path fill="#7C6E08" d="M151.085,251.814c1.771,3.126,4.161,5.699,7.111,7.215c10.761,5.529,28.063-3.805,32.201-14.732
						c1.879-4.961,1.978-10.71,0.523-16.028C178.02,236.754,164.801,244.752,151.085,251.814z"/>
				</g>
				<g>
					<path fill="#605306" d="M157.894,254.994c-3.551-1.825-4.949-6.185-3.124-9.735c1.824-3.55,4.835-2.327,8.386-0.503
						s4.473,7.112,2.647,10.662C163.979,258.969,161.446,256.818,157.894,254.994z"/>
				</g>
				<g>
					<path fill="#514607" d="M165.948,255.097c1.615-3.539,0.655-8.571-2.792-10.342c-0.476-0.245-0.941-0.477-1.396-0.689
						C162.011,247.998,163.641,251.734,165.948,255.097z"/>
				</g>
			</g>
			<g>
				<g>
					<path fill="#42572C" d="M218.778,216.969c0.653-12.049-5.396-33.741-16.832-42.175c-11.436-8.434-16.14-7.833-19.511-6.627
						c-3.372,1.205,0.947,24.703,12.645,34.944C206.777,213.353,218.778,216.969,218.778,216.969z"/>
				</g>
				<g>
					<path fill="#5D7F36" d="M216.634,213.489c6.337-5.687,14.14-19.524,12.645-29.438c-1.498-9.913-4.147-11.96-6.43-13.041
						c-2.284-1.081-11.85,12.798-11.124,23.742C212.45,205.698,216.634,213.489,216.634,213.489z"/>
				</g>
				<g>
					<path fill="#42572C" d="M227.41,176.398c-0.012,0.022-0.023,0.043-0.034,0.065c-2.116,4.161-4.033,8.416-6,12.649
						c-2.419,5.209-4.967,10.725-7.935,15.818c1.436,5.282,3.192,8.558,3.192,8.558c6.337-5.687,14.14-19.524,12.645-29.438
						C228.77,180.681,228.126,178.221,227.41,176.398z"/>
				</g>
			</g>
			<g>
				<g>
					<path fill="#988B10" d="M274.307,213.041c0,12.479-16.282,24.812-28.693,22.594c-12.41-2.217-28.693-10.115-28.693-22.594
						s16.721-21.238,28.693-22.593C257.589,189.092,274.307,200.562,274.307,213.041z"/>
				</g>
				<g>
					<path fill="#7C6E08" d="M261.44,194.548c-1.694,1.189-0.328,5.534-13.32,15.33c-12.995,9.795-20.484,10.043-26.189,14.416
						c5.789,6.006,15.564,9.889,23.684,11.34c12.411,2.218,28.693-10.115,28.693-22.594
						C274.307,205.741,268.584,198.792,261.44,194.548z"/>
				</g>
				<g>
					<path fill="#605306" d="M270.75,215.221c0,4.117-3.34,7.455-7.457,7.455s-4.414-3.338-4.414-7.455
						c0-4.118,4.414-7.456,8.531-7.456C271.529,207.766,270.75,211.104,270.75,215.221z"/>
				</g>
				<g>
					<path fill="#4F4203" d="M264.185,208.427c-2.908,1.165-5.306,3.762-5.306,6.795c0,1.637,0.059,3.139,0.375,4.369
						C263.105,216.894,264.932,212.76,264.185,208.427z"/>
				</g>
			</g>
			<g>
				<g>
					<path fill="#887E16" d="M179.352,232.068c-2.65-12.194,10.645-27.704,23.242-28.172c12.599-0.469,30.188,3.792,32.839,15.985
						c2.648,12.193-11.828,24.304-23.244,28.17C200.776,251.92,182.002,244.261,179.352,232.068z"/>
				</g>
				<g>
					<path fill="#A79D26" d="M195.855,247.406c1.403-1.522,6.735-2.924,17.353-15.255c10.615-12.332,10.295-16.718,14.94-22.204
						c-6.935-4.64-17.312-6.359-25.554-6.052c-12.598,0.468-25.893,15.978-23.242,28.172
						C180.902,239.199,187.972,244.776,195.855,247.406z"/>
				</g>
				<g>
					<path fill="#685D0B" d="M182.367,229.181c-0.875-4.023,1.68-7.995,5.701-8.87c4.024-0.874,5.025,2.325,5.9,6.348
						c0.873,4.023-2.734,8.224-6.758,9.098S183.241,233.205,182.367,229.181z"/>
				</g>
				<g>
					<path fill="#514607" d="M193.969,226.66c-0.643-2.957-1.363-5.454-3.294-6.23c-0.035,0.01-0.062,0.025-0.098,0.035
						c-3.494,0.857-3.291,10.167-2.624,12.516c0.224,0.792,0.494,1.543,0.787,2.275C192.091,233.797,194.73,230.164,193.969,226.66z
						"/>
				</g>
				<circle fill="#CBC169" cx="203.579" cy="217.362" r="5.314"/>
				<circle fill="#CBC169" cx="213.538" cy="215.221" r="2.239"/>
			</g>
			<g>
				<g>
					<path fill="#887E16" d="M216.492,263.105c-4.585-12.459,7.143-30.758,20.349-33.104c13.208-2.348,32.37-0.446,36.956,12.014
						c4.584,12.459-8.889,27.351-20.351,33.104C241.989,280.875,221.08,275.565,216.492,263.105z"/>
				</g>
				<g>
					<path fill="#A79D26" d="M236.14,276.843c1.254-1.812,8.979-5.528,18.354-20.084c9.371-14.556,6.076-17.675,10.164-24.14
						c-7.99-3.869-19.177-4.154-27.817-2.617c-13.206,2.346-24.934,20.645-20.349,33.104
						C219.175,270.393,227.446,275.23,236.14,276.843z"/>
				</g>
				<g>
					<path fill="#685D0B" d="M219.246,259.621c-1.514-4.11,0.595-8.672,4.703-10.185c4.112-1.513,5.638,1.71,7.15,5.821
						s-1.67,9.068-5.782,10.581C221.207,267.351,220.76,263.732,219.246,259.621z"/>
				</g>
				<g>
					<path fill="#514607" d="M231.1,255.258c-1.111-3.021-2.238-5.547-4.387-6.08c-0.035,0.016-0.062,0.035-0.098,0.051
						c-3.557,1.418-1.972,11.197-0.925,13.574c0.353,0.803,0.748,1.553,1.166,2.281C230.172,263.053,232.417,258.838,231.1,255.258z
						"/>
				</g>
			</g>
			<g>
				<g>
					<path fill="#A79D26" d="M175.611,186.383c9.29,7.646,8.492,27.327-0.764,35.207c-9.257,7.879-25.115,15.163-34.404,7.515
						c-9.29-7.647-9.586-24.056,0.764-35.207C150.976,183.374,166.322,178.736,175.611,186.383z"/>
				</g>
				<g>
					<path fill="#81740F" d="M161.759,207.468c-11.262,7.334-26.983,10.313-27.111,10.445c-0.173,0.244-0.36,0.473-0.544,0.707
						c0.995,4.155,3.13,7.844,6.339,10.485c9.289,7.647,25.147,0.364,34.404-7.515c8.299-7.065,9.791-23.609,3.318-32.468
						C172.818,192.91,173.022,200.133,161.759,207.468z"/>
				</g>
				<g>
					<path fill="#605306" d="M175.053,190.368c3.064,2.523,3.504,7.055,0.981,10.12c-2.523,3.065-5.191,1.242-8.257-1.281
						c-3.065-2.523-2.844-7.856-0.321-10.921C169.98,185.22,171.988,187.845,175.053,190.368z"/>
				</g>
				<g>
					<path fill="#514607" d="M173.467,201.588c0.162-0.37,0.29-0.735,0.406-1.098c-1.125-4.316-3.844-8.02-7.144-11.14
						c-1.801,3.119-1.688,7.605,1.048,9.857c1.985,1.634,3.803,2.965,5.524,2.875C173.339,201.919,173.394,201.754,173.467,201.588z
						"/>
				</g>
				<g>
					<circle fill="#B9AD45" cx="147.134" cy="200.626" r="5.314"/>
				</g>
				<g>
					<circle fill="#B9AD45" cx="156.769" cy="202.157" r="2.904"/>
				</g>
			</g>
		</g>
	</g>
</g>
</svg>
