<?xml version="1.0" encoding="utf-8"?>
<!-- Generator: Adobe Illustrator 18.1.1, SVG Export Plug-In . SVG Version: 6.00 Build 0)  -->
<svg version="1.1" id="Layer_2" xmlns="http://www.w3.org/2000/svg" xmlns:xlink="http://www.w3.org/1999/xlink" x="0px" y="0px"
	 width="450px" height="450px" viewBox="-74 76 450 450" enable-background="new -74 76 450 450" xml:space="preserve">
<g>
	<g opacity="0.3">
		<path d="M228.281,318.108c-13.877-7.133-18.285-32.291-8.726-44.824c9.559-12.535,22.069-21.57,35.947-14.439
			c13.877,7.132,19.64,26.173,14.304,40.265C264.471,313.201,242.158,325.238,228.281,318.108z"/>
		<path d="M219.11,308.803c2.285,4.032,5.367,7.349,9.171,9.305c13.877,7.131,36.19-4.906,41.525-18.998
			c2.422-6.397,2.549-13.811,0.674-20.669C253.844,289.382,236.797,299.697,219.11,308.803z"/>
		<path d="M227.89,312.903c-4.579-2.353-6.383-7.974-4.029-12.554c2.352-4.578,6.235-3.001,10.815-0.649
			c4.578,2.353,5.767,9.172,3.413,13.75C235.736,318.03,232.47,315.256,227.89,312.903z"/>
		<path d="M238.275,313.038c2.085-4.565,0.845-11.053-3.6-13.337c-0.614-0.315-1.214-0.614-1.801-0.889
			C233.199,303.883,235.3,308.702,238.275,313.038z"/>
		<circle cx="250.001" cy="268.391" r="6.78"/>
		<circle cx="236.128" cy="277.207" r="3.313"/>
		<path d="M72.058,350.902c-13.954-7.173-18.388-32.47-8.774-45.074c9.612-12.605,22.192-21.691,36.147-14.519
			c13.954,7.172,19.751,26.318,14.383,40.489C108.449,345.969,86.012,358.074,72.058,350.902z"/>
		<path d="M62.836,341.546c2.298,4.054,5.396,7.39,9.222,9.356c13.954,7.171,36.391-4.933,41.756-19.104
			c2.437-6.432,2.565-13.887,0.679-20.784C97.764,322.017,80.622,332.389,62.836,341.546z"/>
		<path d="M71.666,345.67c-4.604-2.366-6.418-8.019-4.051-12.623c2.365-4.604,6.269-3.019,10.874-0.653
			c4.604,2.366,5.8,9.224,3.433,13.826C79.556,350.825,76.271,348.036,71.666,345.67z"/>
		<path d="M82.109,345.805c2.094-4.59,0.85-11.115-3.621-13.411c-0.617-0.317-1.221-0.617-1.811-0.893
			C77.004,336.599,79.118,341.444,82.109,345.805z"/>
		<path d="M150.615,296.362c0.846-15.625-6.997-43.752-21.826-54.69c-14.829-10.937-20.929-10.157-25.3-8.594
			c-4.373,1.562,1.228,32.033,16.396,45.314C135.054,291.674,150.615,296.362,150.615,296.362z"/>
		<path d="M147.836,291.849c8.217-7.374,18.335-25.317,16.396-38.173c-1.942-12.854-5.377-15.509-8.337-16.91
			c-2.962-1.402-15.365,16.595-14.425,30.787C142.411,281.747,147.836,291.849,147.836,291.849z"/>
		<path d="M161.81,243.752c-0.015,0.029-0.03,0.057-0.044,0.085c-2.744,5.396-5.23,10.913-7.781,16.402
			c-3.136,6.755-6.44,13.908-10.288,20.512c1.86,6.85,4.139,11.098,4.139,11.098c8.217-7.374,18.335-25.317,16.396-38.173
			C163.572,249.307,162.738,246.117,161.81,243.752z"/>
		<path d="M222.621,291.268c0,16.181-21.114,32.174-37.207,29.298c-16.093-2.875-37.207-13.117-37.207-29.298
			c0-16.181,21.682-27.54,37.207-29.297C200.944,260.213,222.621,275.088,222.621,291.268z"/>
		<path d="M205.937,267.288c-2.198,1.542-0.426,7.176-17.273,19.879c-16.851,12.702-26.563,13.024-33.961,18.694
			c7.507,7.789,20.183,12.824,30.711,14.705c16.094,2.876,37.207-13.117,37.207-29.298
			C222.621,281.804,215.201,272.791,205.937,267.288z"/>
		<path d="M218.009,294.096c0,5.338-4.331,9.667-9.669,9.667c-5.34,0-5.725-4.329-5.725-9.667c0-5.339,5.725-9.668,11.063-9.668
			C219.019,284.428,218.009,288.757,218.009,294.096z"/>
		<path d="M209.496,285.285c-3.771,1.51-6.88,4.879-6.88,8.811c0,2.123,0.077,4.071,0.487,5.665
			C208.095,296.265,210.465,290.905,209.496,285.285z"/>
		<path d="M99.491,315.941c-3.436-15.812,13.803-35.924,30.139-36.531c16.336-0.608,39.146,4.916,42.582,20.728
			c3.434,15.811-15.338,31.516-30.141,36.53C127.272,341.684,102.928,331.753,99.491,315.941z"/>
		<path d="M120.89,335.831c1.82-1.974,8.734-3.792,22.502-19.782c13.765-15.991,13.349-21.679,19.373-28.792
			c-8.992-6.016-22.448-8.245-33.135-7.847c-16.336,0.607-33.576,20.719-30.139,36.531
			C101.5,325.189,110.668,332.421,120.89,335.831z"/>
		<path d="M103.402,312.198c-1.134-5.217,2.177-10.366,7.392-11.501c5.218-1.133,6.516,3.015,7.651,8.232
			c1.132,5.217-3.544,10.663-8.762,11.797C104.465,321.86,104.535,317.415,103.402,312.198z"/>
		<path d="M118.445,308.929c-0.833-3.834-1.768-7.072-4.271-8.079c-0.046,0.013-0.081,0.033-0.127,0.045
			c-4.531,1.112-4.267,13.184-3.403,16.229c0.29,1.027,0.641,2,1.022,2.95C116.01,318.183,119.431,313.472,118.445,308.929z"/>
		<circle cx="130.907" cy="296.872" r="6.891"/>
		<circle cx="143.822" cy="294.096" r="2.904"/>
		<path d="M147.652,356.189c-5.946-16.156,9.261-39.886,26.386-42.928c17.127-3.044,41.974-0.578,47.922,15.579
			c5.944,16.156-11.526,35.466-26.389,42.927C180.714,379.23,153.602,372.345,147.652,356.189z"/>
		<path d="M173.129,374.002c1.626-2.348,11.644-7.168,23.801-26.043c12.152-18.875,7.879-22.921,13.18-31.302
			c-10.361-5.017-24.868-5.387-36.072-3.395c-17.125,3.042-32.332,26.772-26.386,42.928
			C151.131,365.639,161.855,371.911,173.129,374.002z"/>
		<path d="M151.224,351.67c-1.963-5.33,0.77-11.244,6.098-13.206c5.332-1.962,7.311,2.218,9.273,7.549
			c1.961,5.331-2.166,11.758-7.498,13.72C153.766,361.694,153.186,357.001,151.224,351.67z"/>
		<path d="M166.594,346.013c-1.441-3.918-2.903-7.193-5.689-7.885c-0.046,0.02-0.08,0.047-0.127,0.066
			c-4.612,1.838-2.557,14.521-1.199,17.602c0.458,1.041,0.97,2.014,1.512,2.959C165.39,356.121,168.303,350.655,166.594,346.013z"/>
		<path d="M94.64,256.701c12.046,9.916,11.012,35.435-0.991,45.654c-12.003,10.217-32.567,19.661-44.613,9.745
			c-12.046-9.916-12.43-31.195,0.991-45.654C62.695,252.798,82.594,246.785,94.64,256.701z"/>
		<path d="M76.678,284.042c-14.604,9.511-34.99,13.372-35.156,13.545c-0.224,0.316-0.468,0.613-0.705,0.917
			c1.29,5.388,4.058,10.171,8.219,13.596c12.046,9.916,32.61,0.472,44.613-9.745c10.762-9.162,12.697-30.614,4.304-42.102
			C91.018,265.164,91.282,274.531,76.678,284.042z"/>
		<path d="M93.916,261.868c3.975,3.272,4.544,9.148,1.274,13.122c-3.272,3.975-6.733,1.61-10.707-1.661
			c-3.975-3.272-3.688-10.188-0.416-14.163C87.338,255.192,89.941,258.597,93.916,261.868z"/>
		<path d="M91.86,276.417c0.211-0.48,0.376-0.953,0.526-1.424c-1.459-5.597-4.983-10.4-9.263-14.446
			c-2.335,4.044-2.189,9.862,1.358,12.782c2.574,2.119,4.932,3.845,7.164,3.728C91.694,276.846,91.765,276.633,91.86,276.417z"/>
		<circle cx="57.712" cy="275.17" r="6.891"/>
		<circle cx="70.207" cy="277.156" r="3.766"/>
	</g>
	<g>
		<g>
			<g>
				<g>
					<path fill="#998C10" d="M221.875,314.905c-13.877-7.133-18.285-32.291-8.726-44.824c9.559-12.535,22.069-21.57,35.947-14.439
						c13.877,7.132,19.64,26.173,14.304,40.265C258.064,309.998,235.751,322.035,221.875,314.905z"/>
				</g>
				<g>
					<path fill="#7C6E08" d="M212.703,305.6c2.285,4.032,5.368,7.349,9.171,9.305c13.877,7.131,36.19-4.906,41.525-18.998
						c2.422-6.397,2.549-13.811,0.674-20.669C247.437,286.179,230.39,296.493,212.703,305.6z"/>
				</g>
				<g>
					<path fill="#605306" d="M221.484,309.7c-4.579-2.353-6.383-7.974-4.029-12.554c2.352-4.578,6.235-3.001,10.815-0.649
						c4.578,2.353,5.767,9.172,3.413,13.75C229.33,314.827,226.064,312.053,221.484,309.7z"/>
				</g>
				<g>
					<path fill="#514607" d="M231.869,309.835c2.085-4.565,0.845-11.053-3.6-13.337c-0.614-0.315-1.214-0.614-1.801-0.889
						C226.793,300.68,228.894,305.499,231.869,309.835z"/>
				</g>
				<circle fill="#AD9E31" cx="243.595" cy="265.188" r="6.78"/>
				<circle fill="#AD9E31" cx="229.722" cy="274.004" r="3.313"/>
			</g>
			<g>
				<g>
					<path fill="#998C10" d="M65.652,347.699c-13.954-7.173-18.388-32.47-8.774-45.074c9.612-12.605,22.192-21.691,36.147-14.519
						c13.954,7.172,19.751,26.318,14.383,40.489C102.043,342.766,79.606,354.871,65.652,347.699z"/>
				</g>
				<g>
					<path fill="#7C6E08" d="M56.43,338.343c2.298,4.054,5.396,7.39,9.222,9.356c13.954,7.171,36.391-4.933,41.756-19.104
						c2.437-6.432,2.565-13.887,0.679-20.784C91.357,318.814,74.215,329.186,56.43,338.343z"/>
				</g>
				<g>
					<path fill="#605306" d="M65.259,342.466c-4.604-2.366-6.418-8.019-4.051-12.623c2.365-4.604,6.269-3.019,10.874-0.653
						c4.604,2.366,5.8,9.224,3.433,13.826C73.149,347.622,69.864,344.832,65.259,342.466z"/>
				</g>
				<g>
					<path fill="#514607" d="M75.703,342.602c2.094-4.59,0.85-11.115-3.621-13.411c-0.617-0.317-1.221-0.617-1.811-0.893
						C70.598,333.396,72.711,338.241,75.703,342.602z"/>
				</g>
			</g>
			<g>
				<g>
					<path fill="#42572C" d="M144.209,293.159c0.846-15.625-6.997-43.752-21.826-54.69c-14.829-10.937-20.929-10.157-25.3-8.594
						c-4.373,1.562,1.228,32.033,16.396,45.314C128.647,288.471,144.209,293.159,144.209,293.159z"/>
				</g>
				<g>
					<path fill="#5D7F36" d="M141.429,288.646c8.217-7.374,18.335-25.317,16.396-38.173c-1.942-12.854-5.377-15.509-8.337-16.91
						c-2.962-1.402-15.365,16.595-14.425,30.787C136.005,278.544,141.429,288.646,141.429,288.646z"/>
				</g>
				<g>
					<path fill="#42572C" d="M155.403,240.549c-0.015,0.029-0.03,0.057-0.044,0.085c-2.744,5.396-5.23,10.913-7.781,16.402
						c-3.136,6.755-6.44,13.908-10.288,20.512c1.86,6.85,4.139,11.098,4.139,11.098c8.217-7.374,18.335-25.317,16.396-38.173
						C157.166,246.104,156.331,242.914,155.403,240.549z"/>
				</g>
			</g>
			<g>
				<g>
					<path fill="#998C10" d="M216.215,288.065c0,16.181-21.114,32.174-37.207,29.298c-16.093-2.875-37.207-13.117-37.207-29.298
						c0-16.181,21.682-27.54,37.207-29.297C194.537,257.01,216.215,271.885,216.215,288.065z"/>
				</g>
				<g>
					<path fill="#7C6E08" d="M199.531,264.085c-2.198,1.542-0.426,7.176-17.273,19.879c-16.851,12.702-26.563,13.024-33.961,18.694
						c7.507,7.789,20.183,12.824,30.711,14.705c16.094,2.876,37.207-13.117,37.207-29.298
						C216.215,278.601,208.795,269.588,199.531,264.085z"/>
				</g>
				<g>
					<path fill="#605306" d="M211.603,290.893c0,5.338-4.331,9.667-9.669,9.667c-5.34,0-5.725-4.329-5.725-9.667
						c0-5.339,5.725-9.668,11.063-9.668C212.613,281.225,211.603,285.554,211.603,290.893z"/>
				</g>
				<g>
					<path fill="#4F4203" d="M203.089,282.082c-3.771,1.51-6.88,4.879-6.88,8.811c0,2.123,0.077,4.071,0.487,5.665
						C201.689,293.062,204.058,287.702,203.089,282.082z"/>
				</g>
			</g>
			<g>
				<g>
					<path fill="#897E16" d="M93.084,312.738c-3.436-15.812,13.803-35.924,30.139-36.531c16.336-0.608,39.146,4.916,42.582,20.728
						c3.434,15.811-15.338,31.516-30.141,36.53C120.865,338.481,96.522,328.549,93.084,312.738z"/>
				</g>
				<g>
					<path fill="#A89E26" d="M114.484,332.628c1.82-1.974,8.734-3.792,22.502-19.782c13.765-15.991,13.349-21.679,19.373-28.792
						c-8.992-6.016-22.448-8.246-33.135-7.847c-16.336,0.607-33.576,20.719-30.139,36.531
						C95.094,321.986,104.262,329.218,114.484,332.628z"/>
				</g>
				<g>
					<path fill="#685D0B" d="M96.995,308.995c-1.134-5.217,2.177-10.366,7.392-11.501c5.218-1.133,6.516,3.015,7.651,8.232
						c1.132,5.217-3.544,10.663-8.762,11.797C98.059,318.656,98.129,314.212,96.995,308.995z"/>
				</g>
				<g>
					<path fill="#514607" d="M112.038,305.726c-0.833-3.834-1.768-7.072-4.271-8.079c-0.046,0.013-0.081,0.033-0.127,0.045
						c-4.531,1.112-4.267,13.184-3.403,16.229c0.29,1.027,0.641,2,1.022,2.95C109.604,314.98,113.025,310.269,112.038,305.726z"/>
				</g>
				<circle fill="#CCC269" cx="124.501" cy="293.669" r="6.891"/>
				<circle fill="#CCC269" cx="137.415" cy="290.893" r="2.904"/>
			</g>
			<g>
				<g>
					<path fill="#897E16" d="M141.246,352.986c-5.946-16.156,9.261-39.886,26.386-42.928c17.127-3.044,41.974-0.578,47.922,15.579
						c5.944,16.156-11.526,35.466-26.389,42.927C174.307,376.027,147.195,369.142,141.246,352.986z"/>
				</g>
				<g>
					<path fill="#A89E26" d="M166.723,370.799c1.626-2.348,11.644-7.168,23.801-26.043c12.152-18.875,7.879-22.921,13.18-31.302
						c-10.361-5.017-24.868-5.387-36.072-3.395c-17.125,3.042-32.332,26.772-26.386,42.928
						C144.725,362.436,155.448,368.708,166.723,370.799z"/>
				</g>
				<g>
					<path fill="#685D0B" d="M144.817,348.467c-1.963-5.33,0.77-11.244,6.098-13.206c5.332-1.962,7.311,2.217,9.273,7.549
						c1.961,5.331-2.166,11.758-7.498,13.72C147.36,358.491,146.779,353.798,144.817,348.467z"/>
				</g>
				<g>
					<path fill="#514607" d="M160.188,342.81c-1.441-3.918-2.903-7.193-5.689-7.885c-0.046,0.02-0.08,0.047-0.127,0.066
						c-4.612,1.838-2.557,14.521-1.199,17.602c0.458,1.041,0.97,2.014,1.512,2.959C158.984,352.918,161.896,347.452,160.188,342.81z
						"/>
				</g>
			</g>
			<g>
				<g>
					<path fill="#A89E26" d="M88.233,253.498c12.046,9.916,11.012,35.435-0.991,45.654c-12.003,10.217-32.567,19.661-44.613,9.745
						c-12.046-9.916-12.43-31.195,0.991-45.654C56.289,249.595,76.187,243.582,88.233,253.498z"/>
				</g>
				<g>
					<path fill="#82740F" d="M70.271,280.839c-14.604,9.511-34.99,13.372-35.156,13.545c-0.224,0.316-0.468,0.613-0.705,0.917
						c1.29,5.388,4.058,10.171,8.219,13.596c12.046,9.916,32.61,0.472,44.613-9.745c10.762-9.162,12.697-30.614,4.304-42.102
						C84.612,261.961,84.875,271.328,70.271,280.839z"/>
				</g>
				<g>
					<path fill="#605306" d="M87.509,258.665c3.975,3.272,4.544,9.148,1.274,13.122c-3.272,3.975-6.733,1.61-10.707-1.661
						c-3.975-3.272-3.688-10.188-0.416-14.163C80.931,251.989,83.535,255.394,87.509,258.665z"/>
				</g>
				<g>
					<path fill="#514607" d="M85.454,273.214c0.211-0.48,0.376-0.953,0.526-1.424c-1.459-5.597-4.983-10.4-9.263-14.446
						c-2.335,4.044-2.189,9.862,1.358,12.782c2.574,2.119,4.932,3.845,7.164,3.728C85.288,273.643,85.359,273.429,85.454,273.214z"
						/>
				</g>
				<g>
					<circle fill="#BAAE45" cx="51.306" cy="271.967" r="6.891"/>
				</g>
				<g>
					<circle fill="#BAAE45" cx="63.8" cy="273.953" r="3.766"/>
				</g>
			</g>
		</g>
	</g>
</g>
</svg>
