<?xml version="1.0" encoding="utf-8"?>
<!-- Generator: Adobe Illustrator 16.0.3, SVG Export Plug-In . SVG Version: 6.00 Build 0)  -->
<!DOCTYPE svg PUBLIC "-//W3C//DTD SVG 1.1//EN" "http://www.w3.org/Graphics/SVG/1.1/DTD/svg11.dtd">
<svg version="1.1" id="Ebene_1" xmlns="http://www.w3.org/2000/svg" xmlns:xlink="http://www.w3.org/1999/xlink" x="0px" y="0px"
	 width="450px" height="450px" viewBox="0 0 450 450" enable-background="new 0 0 450 450" xml:space="preserve">
<g id="gurke">
	<g>
		<g>
			<g>
				<g>
					<path fill="#C1D677" d="M196.907,278.538c1.387,4.552,5.183,7.739,7.375,12.015c2.184,3.471,3.834,7.217,7.619,9.596
						c2.706,1.853,6.206,2.623,9.443,3.934c6.475,2.62,11.607,5.523,18.84,3.302c6.16-1.675,13.642-5.78,17.894-10.659
						c9.03-10.031,16.377-27.569,11.672-40.955c-1.937-5.354-7.621-9.861-11.688-13.584c-4.074-4.256-9.197-6.084-14.854-7.371
						c-14.272-3.615-30.897-0.49-40.184,11.155c-2.123,2.44-5.055,4.888-6.369,7.587c-1.586,2.703-1.548,6.465-1.785,9.422
						c-0.482,5.646-0.676,12.903,3.127,16.895"/>
					<g>
						<path fill="#006947" d="M193.478,279.457c1.885,5.075,5.645,9.249,8.443,13.839c3.308,5.427,6.462,8.792,12.467,11.125
							c5.195,2.019,10.791,4.925,16.346,5.7c5.781,0.809,11.104-0.738,16.393-2.992c18.273-7.792,33.789-33.998,25.494-53.602
							c-2.041-4.823-6.553-8.435-10.352-11.829c-4.324-3.862-8.396-6.524-13.998-8.222c-10.07-3.052-20.951-3.151-30.959,0.147
							c-9.637,3.177-18.773,10.957-23.898,19.687c-2.354,4.01-2.069,9.615-2.24,14.112c-0.188,4.929,0.432,9.978,3.661,13.88
							c1.765,2.133,8.333-0.434,6.321-2.865c-4.722-5.705-3.473-15.892-2.055-22.688c0.881-4.226,5.799-8.06,8.623-11.124
							c3.221-3.498,7.558-5.855,12.028-7.329c8.484-2.797,17.536-1.706,25.917,0.833c4.658,1.411,7.83,4.249,11.373,7.415
							c3.621,3.235,7.351,6.584,9.276,11.144c3.281,7.754,0.91,17.487-2.116,24.896c-3.459,8.469-9.103,16.193-17.17,20.698
							c-4.441,2.479-9.419,4.292-14.517,3.161c-4.805-1.063-9.416-3.604-14.057-5.229c-5.043-1.767-7.623-5.401-10.218-9.782
							c-2.529-4.271-6.172-8.146-7.905-12.813C199.3,274.827,192.489,276.795,193.478,279.457L193.478,279.457z"/>
					</g>
				</g>
				<g>
					<g>
						<path fill="#88CA6A" d="M243.771,279.561c-1.03-0.757-3.847-1.24-5.121-0.716c-1.783,0.528-3.557,2.337-1.498,3.597
							c2.058,1.002,5.853-3.129,5.853-3.129"/>
						<g>
							<path fill="#F1F6CE" d="M244.63,278.967c-1.649-1.076-4.292-1.432-6.157-0.792c-1.662,0.568-4.345,2.187-2.931,4.233
								c1.185,1.714,3.701,0.703,5.076-0.087c1.219-0.701,2.338-1.716,3.291-2.744c0.922-0.994-1.209-1.179-1.808-0.531
								c-1.023,1.104-2.344,2.397-3.824,2.808c-0.557,0.153-0.957-0.623-0.92-1.069c0.064-0.742,1.138-1.153,1.713-1.351
								c1.113-0.382,2.896,0.101,3.845,0.719C243.641,280.624,245.618,279.611,244.63,278.967L244.63,278.967z"/>
						</g>
					</g>
					<g>
						<path fill="#88CA6A" d="M242.477,277.783c-1.023-0.245-10.509-2.45-5.414-4.292c1.783-0.784,5.146,3.016,5.666,3.778"/>
						<g>
							<path fill="#F1F6CE" d="M243.109,277.046c-2.041-0.487-4.592-0.931-6.258-2.282c-0.235-0.19-0.188-0.203-0.119-0.257
								c0.588-0.461,0.925-0.321,1.559,0.037c1.318,0.745,2.557,1.974,3.432,3.208c0.573,0.811,2.668-0.038,2.012-0.965
								c-1.129-1.596-2.789-3.123-4.574-3.926c-1.362-0.611-4.367-0.019-4.686,1.757c-0.26,1.442,1.995,2.223,2.989,2.61
								c1.416,0.554,2.899,0.938,4.377,1.291c0.548,0.131,1.168,0.032,1.556-0.416C243.702,277.746,243.624,277.168,243.109,277.046
								L243.109,277.046z"/>
						</g>
					</g>
					<g>
						<path fill="#88CA6A" d="M223.564,278.742c1.798,0.75,7.463,4.783,8.972,2.211c2.013-3.346-7.439-2.482-8.713-1.957"/>
						<g>
							<path fill="#F1F6CE" d="M222.528,279.113c2.29,1.02,4.326,2.593,6.841,3.06c1.686,0.312,4.363-0.317,4.546-2.358
								c0.26-2.918-8.979-1.601-10.47-1.059c-1.474,0.536-0.073,0.781,0.755,0.48c1.625-0.592,5.627-0.748,7.208,0.473
								c0.488,0.377,0.285,0.994,0.046,1.439c-0.315,0.588-2.236-0.416-2.626-0.588c-1.455-0.642-2.777-1.545-4.228-2.189
								C224.011,278.107,222.309,279.016,222.528,279.113L222.528,279.113z"/>
						</g>
					</g>
					<g>
						<path fill="#88CA6A" d="M225.091,277.959c1.527-0.525,8.177-0.595,7.124-3.396c-1.046-2.289-6.109,2.621-7.636,3.402"/>
						<g>
							<path fill="#F1F6CE" d="M225.212,278.41c1.87-0.577,9.185-0.635,8.103-4.143c-0.513-1.658-3.258-0.549-4.199-0.1
								c-1.913,0.913-3.358,2.542-5.193,3.555c-1.292,0.713,0.699,0.823,1.316,0.482c1.067-0.588,2.006-1.408,2.981-2.129
								c0.631-0.467,1.272-0.906,1.955-1.29c0.581-0.326,0.792-0.418,1.014,0.297c0.613,1.993-5.057,2.065-6.217,2.424
								C223.694,277.9,223.918,278.811,225.212,278.41L225.212,278.41z"/>
						</g>
					</g>
					<g>
						<path fill="#88CA6A" d="M222.242,274.409c1.786-0.53,7.881-4.427,5.299-6.96c-2.842-2.78-4.55,5.162-5.303,6.705
							c0.241-1.537,1.496-3.853,0.971-5.383c-0.532-1.783-2.853-3.805-4.112-2.002c-1.514,2.062,1.607,7.4,3.148,7.896"/>
						<g>
							<path fill="#F1F6CE" d="M222.419,275.066c2.699-0.891,9.783-5.533,5.543-8.557c-1.68-1.197-3.599,0.396-4.459,1.773
								c-1.114,1.785-1.441,3.902-2.303,5.792c0.715-0.011,1.43-0.021,2.145-0.031c0.492-2.469,1.791-4.495,0.316-6.871
								c-0.996-1.604-3.717-2.682-5.182-0.989c-2.211,2.551,0.263,7.967,3.113,9.154c0.811,0.337,2.561-0.824,1.305-1.348
								c-1.797-0.747-3.059-4.201-3.098-5.959c-0.055-2.445,2.162,0.416,2.406,1.433c0.355,1.474-0.789,3.37-1.074,4.8
								c-0.197,0.989,1.861,0.59,2.145-0.031c0.441-0.971,0.721-2.021,1.072-3.023c0.268-0.764,0.577-1.51,0.936-2.234
								c0.133-0.27,0.289-0.524,0.446-0.779c0.175-0.277,0.664-0.545,0.297-0.613c0.736,0.138,1.074,1.098,1.003,1.729
								c-0.091,0.779-0.759,1.461-1.274,1.989c-0.966,0.99-2.358,2.015-3.69,2.452C220.765,274.182,221.091,275.505,222.419,275.066
								L222.419,275.066z"/>
						</g>
					</g>
					<g>
						<path fill="#88CA6A" d="M229.216,256.186c-1.541-0.496-7.159,0.071-7.646,2.379c-0.739,2.817,6.665,1.721,6.366-2.365
							c0.022,2.042-1.479,5.127-0.439,6.906c3.119,5.08,4.046-4.39,1.725-6.666"/>
						<g>
							<path fill="#F1F6CE" d="M230.116,255.751c-2.007-0.552-4.552-0.103-6.473,0.571c-1.059,0.369-4.385,1.947-2.972,3.591
								c1.077,1.251,3.491,0.596,4.792,0.175c1.896-0.613,3.635-2.055,3.571-4.184c-0.013-0.411-2.179-0.038-2.197,0.588
								c-0.073,2.486-1.682,5.184-0.069,7.458c0.851,1.198,2.33,1.448,3.572,0.575c2.223-1.562,1.531-6.729-0.088-8.465
								c-0.391-0.42-2.429,0.369-2.066,0.756c1.51,1.621,1.537,4.929,0.877,6.904c-0.061,0.182-0.147,0.35-0.24,0.516
								c-0.194,0.347,1.295,0.176,0.593-0.387c-0.642-0.513-1.015-1.305-1.156-2.091c-0.346-1.911,0.72-3.934,0.776-5.854
								c-0.732,0.195-1.465,0.392-2.197,0.588c0.036,1.234-0.587,2.273-1.675,2.863c-0.699,0.382-1.943,0.554-2.438-0.246
								c-0.669-1.078,0.929-2.021,1.715-2.266c1.173-0.361,2.673-0.558,3.876-0.227
								C228.833,256.761,230.777,255.934,230.116,255.751L230.116,255.751z"/>
						</g>
					</g>
					<g>
						<path fill="#88CA6A" d="M245.745,272.381c-2.056-1.002-4.853,0.561-7.163-0.438c-2.055-0.748-3.35-2.524-0.807-3.828
							c2.293-0.791,5.388,1.734,6.937,3.254c-3.592-1.244-5.209-9.407,0.437-7.42c3.85,1.24,2.11,6.373,0.336,7.923"/>
						<g>
							<path fill="#F1F6CE" d="M246.626,271.872c-2.64-1.052-5.408,0.505-7.987-0.817c-0.574-0.294-1.006-0.798-1.16-1.416
								c-0.412-1.643,2.135-0.776,2.744-0.484c1.301,0.621,2.438,1.641,3.467,2.633c0.635-0.309,1.27-0.617,1.903-0.926
								c-2.059-0.811-4.045-4.447-2.631-6.506c0.317-0.461,1.606,0.207,2.022,0.412c0.824,0.405,1.189,1.314,1.336,2.158
								c0.275,1.602-0.545,3.7-1.709,4.799c-0.911,0.858,1.263,0.75,1.744,0.295c1.582-1.491,2.48-3.838,2.105-6
								c-0.404-2.342-3.508-3.396-5.576-2.83c-4.393,1.201-2.367,7.385,0.945,8.688c0.404,0.159,2.535-0.318,1.904-0.926
								c-2.615-2.518-7.016-5.416-10.112-1.947c-1.334,1.493,0.927,2.975,2.079,3.447c2.348,0.965,4.896-0.465,7.162,0.439
								C245.482,273.136,247.491,272.218,246.626,271.872L246.626,271.872z"/>
						</g>
					</g>
					<g>
						<path fill="#88CA6A" d="M233.337,258.954c-0.498,1.54-1.737,5.388,0.572,6.132c3.849,1.238,1.479-5.387-0.065-6.395
							c1.049,2.548,7.706,3.502,6.651,0.189c-0.532-2.04-6.396-0.447-6.396-0.191"/>
						<g>
							<path fill="#F1F6CE" d="M232.236,259.086c-0.524,1.63-1.146,3.547-0.561,5.239c0.555,1.6,2.787,1.849,4.135,1.249
								c2.654-1.184,0.779-6.057-0.949-7.318c-0.432-0.314-2.502-0.08-2.116,0.73c0.806,1.695,2.896,2.477,4.663,2.629
								c1.521,0.131,4.132-0.231,4.3-2.176c0.181-2.09-2.255-2.299-3.771-2.203c-1.164,0.074-4.162,0.215-4.862,1.419
								c-0.535,0.922,1.678,0.714,2.052,0.069c-0.273,0.472-0.479,0.316,0.208,0.131c0.485-0.131,0.979-0.215,1.479-0.283
								c0.959-0.131,2.34-0.299,2.647,0.851c0.335,1.248-0.991,0.962-1.748,0.804c-1.052-0.224-2.289-0.811-2.772-1.828
								c-0.705,0.244-1.412,0.486-2.116,0.73c1.354,0.988,2.235,3.52,2.03,5.145c-0.021,0.175-0.076,0.326-0.164,0.477
								c0.242-0.41,0.554-0.02-0.183-0.314c-0.687-0.275-0.805-1.166-0.851-1.797c-0.094-1.268,0.395-2.627,0.777-3.814
								C234.691,258.025,232.48,258.324,232.236,259.086L232.236,259.086z"/>
						</g>
					</g>
				</g>
				<g>
					<g>
						<path fill="#EEF3C7" d="M214.413,295.859c5.195,1.404,9.336,6.144,14.889,6.32c4.688,0.15,8.892-1.188,13.146-3.063
							c9.819-4.326,16.979-9.672,20.727-20.018c2.707-7.478,5.354-17.121,2.484-24.896c-2.306-6.236-8.281-10.259-14.232-12.532
							c-12.311-4.701-28.111-3.039-39.01,4.412c-16.686,11.408-13.462,37.227,0.75,49.193c0.691,0.582,3.701-0.758,3.236-1.148
							c-12.623-10.63-16.49-31.793-5.092-44.703c8.805-9.973,25.085-10.761,36.876-6.604c5.033,1.772,9.615,4.911,12.568,9.397
							c3.75,5.698,2.76,12.145,1.449,18.432c-1.682,8.049-4.139,15.967-10.414,21.642c-4.834,4.371-15.166,9.319-21.536,8.32
							c-4.674-0.732-8.406-4.8-13.015-6.048C216.472,294.359,213.472,295.604,214.413,295.859L214.413,295.859z"/>
					</g>
				</g>
			</g>
			<g>
				<g>
					<path fill="#C1D677" d="M220.563,250.126c-2.463-4.274-5.985-7.192-7.381-12.551c-1.68-6.699-2.574-15.289-0.762-21.754
						c4.155-14.28,18.489-31.354,34.615-30.711c29.563,1.044,50.313,33.608,32.037,59.317c-6.627,8.933-18.346,18.992-29.889,19.914
						c-5.369,0.324-12.398-3.903-17.52-5.462c-2.426-1.052-4.855-2.102-7.021-3.422c-2.703-1.585-2.729-4.271-5.168-6.396"/>
					<g>
						<path fill="#006947" d="M223.732,248.727c-2.497-4.054-5.677-7.437-7.12-12.069c-1.496-4.8-1.865-10.261-1.682-15.24
							c0.341-9.299,5.911-18.21,12.093-24.818c7.103-7.59,15.607-10.634,25.773-8.436c8.189,1.771,15.4,6.58,20.857,12.826
							c11.092,12.7,11.484,31.065,1.34,44.38c-5.723,7.513-17.328,18.584-27.689,16.545c-4.277-0.842-8.302-3.114-12.367-4.645
							c-2.636-0.992-5.149-2.178-7.593-3.578c-2.069-1.188-3.079-4.316-4.698-6.028c-1.812-1.916-8.345,0.678-6.339,2.799
							c1.682,1.778,2.538,4.407,4.485,5.89c2.473,1.881,5.338,3.063,8.172,4.297c4.93,2.146,10.281,4.521,15.576,5.563
							c11.063,2.178,22.775-6.178,30.354-13.218c16.072-14.929,19.377-37.431,5.101-54.802c-13.16-16.01-37.17-20.163-53.754-7.342
							c-8.434,6.521-15.065,16.39-17.612,26.763c-1.409,5.738-0.597,12.192,0.458,17.907c1.193,6.472,4.971,10.592,8.307,16.008
							C218.728,253.691,225.368,251.383,223.732,248.727L223.732,248.727z"/>
					</g>
				</g>
				<g>
					<g>
						<path fill="#88CA6A" d="M243.814,210.635c2.295-0.533,8.172-1.104,8.461,2.216s-4.557,4.393-6.623,2.625
							c1.035,1.013,3.607,2.521,3.882,4.308c0.545,3.318-1.771,1.808-2.81,0.284c-1.559-2.286-2.625-6.623-3.42-9.172"/>
						<g>
							<path fill="#EEF3C7" d="M244.003,211.339c2.006-0.44,4.713-0.782,6.5,0.441c1.236,0.845,0.66,2.777-0.44,3.406
								c-1.121,0.641-2.562,0.432-3.556-0.32c-0.614-0.466-2.596,0.407-1.86,1.08c1.018,0.935,2.16,1.71,3.086,2.744
								c0.641,0.716,0.834,1.583,0.735,2.521c0.863-0.041,1.031-0.16,0.507-0.357c-0.32-0.184-0.578-0.463-0.826-0.729
								c-2.224-2.375-2.82-6.512-3.742-9.524c-0.293-0.956-2.486-0.354-2.197,0.588c0.771,2.52,1.434,5.073,2.498,7.491
								c0.664,1.511,1.742,3.371,3.484,3.787c1.567,0.374,2.563-0.786,2.52-2.245c-0.074-2.492-2.414-3.721-4.047-5.218
								c-0.621,0.36-1.242,0.72-1.863,1.08c2.801,2.122,8.686,0.753,8.586-3.331c-0.104-4.266-7.143-3.398-9.76-2.823
								C242.255,210.232,242.652,211.636,244.003,211.339L244.003,211.339z"/>
						</g>
					</g>
					<g>
						<path fill="#88CA6A" d="M263.105,221.692c-0.785-1.783-5.168-5.319-7.213-5.043c-4.594,0.813,4.398,4.813,5.685,5.569
							c-1.279,0.011-10.515-2.963-8.941,0.857c1.046,2.29,9.974-0.102,10.474-1.131"/>
						<g>
							<path fill="#EEF3C7" d="M264.206,221.398c-1.442-2.819-7.218-7.481-10.365-4.378c-1.914,1.885,5.728,5.061,6.854,5.697
								c0.44-0.355,0.883-0.711,1.326-1.066c-1.644-0.077-12.168-3.078-10.484,1.719c0.701,1.996,4.959,1.174,6.375,0.932
								c1.729-0.296,5.098-0.767,6.211-2.365c0.535-0.768-1.656-0.515-2.027,0.018c-0.637,0.914-3.291,1.159-4.279,1.328
								c-1.336,0.229-3.862,0.703-4.246-1.076c-0.233-1.084,3.394-0.193,4.089-0.058c1.147,0.223,2.305,0.583,3.479,0.638
								c0.364,0.018,2.178-0.584,1.323-1.066c-2.086-1.179-4.392-2.053-6.205-3.658c-1.813-1.604,1.521-0.04,2.063,0.308
								c1.38,0.883,2.931,2.134,3.689,3.617C262.361,222.679,264.484,221.945,264.206,221.398L264.206,221.398z"/>
						</g>
					</g>
					<g>
						<path fill="#88CA6A" d="M246.132,237.462c2.812-0.541,5.875-0.826,7.64-3.401c-1.808-1.517-5.873,0.826-7.133,2.629
							c1.266-1.291,3.295-2.847,3.788-4.385c0.498-1.541,0.479-3.328-1.555-2.287c-1.524,1.039-1.978,6.926-2.746,6.678"/>
						<g>
							<path fill="#EEF3C7" d="M246.3,238.09c3.232-0.607,6.427-1.165,8.505-3.967c0.18-0.242,0.034-0.488-0.171-0.635
								c-2.805-2.006-7.313,0.861-9.028,3.138c-0.67,0.888,1.502,0.724,1.928,0.3c1.537-1.525,3.459-2.906,4.098-5.07
								c0.477-1.619-0.033-2.98-1.875-2.805c-1.783,0.172-2.57,1.518-3.107,3.031c-0.287,0.811-0.481,1.656-0.69,2.49
								c-0.092,0.369-0.188,0.736-0.289,1.103c-0.043,0.15-0.09,0.3-0.142,0.448c-0.252,0.771-0.399-0.21,1.009-0.12
								c-0.929-0.06-2.31,1.287-0.818,1.383c2.293,0.146,2.427-3.05,2.857-4.614c0.17-0.623,0.37-1.234,0.651-1.817
								c0.506-1.05,0.351,0.368,0.275,0.801c-0.348,2.002-2.408,3.356-3.76,4.699c0.643,0.101,1.287,0.198,1.93,0.3
								c0.977-1.297,3.623-3.275,5.236-2.122c-0.057-0.211-0.113-0.423-0.17-0.635c-1.596,2.151-4.332,2.379-6.773,2.838
								C244.593,237.091,244.966,238.341,246.3,238.09L246.3,238.09z"/>
						</g>
					</g>
					<g>
						<path fill="#88CA6A" d="M241.77,235.715c-2.564-0.997-6.429-3.514-6.459-6.582c-0.306-4.855,3.584,0.475,4.627,2.254
							c-0.793-2.549,0.688-7.678,3.541-3.615c1.299,2.033-1.215,6.148-2.218,8.205c0,0-0.002-0.257-0.01-0.766"/>
						<g>
							<path fill="#EEF3C7" d="M242.407,234.991c-2.888-1.173-6.068-3.327-5.995-6.765c0.006-0.201,0.038-0.398,0.095-0.593
								c-0.297,0.851-1.339-0.049-0.543,0.509c0.421,0.295,0.761,0.715,1.095,1.101c0.7,0.809,1.32,1.704,1.871,2.621
								c0.445,0.745,2.35,0.138,2.104-0.771c-0.277-1.032-0.226-2.058,0.022-3.092c0.06-0.246,0.334-0.881,0.396-0.847
								c0.639,0.357,1.1,1.111,1.25,1.804c0.486,2.213-1.557,5.022-2.491,6.904c0.72,0.008,1.438,0.017,2.159,0.024
								c-0.004-0.256-0.006-0.512-0.01-0.767c-0.019-1.132-2.236-0.774-2.223,0.18c0.004,0.255,0.006,0.511,0.01,0.767
								c0.01,1.104,1.803,0.738,2.158,0.023c1.471-2.962,4.733-8.005,0.582-10.328c-3.523-1.972-4.652,3.685-4.054,5.918
								c0.703-0.257,1.404-0.515,2.106-0.771c-0.821-1.372-4.561-6.938-6.438-3.665c-0.953,1.662-0.037,3.959,1.005,5.327
								c1.374,1.804,3.559,3.03,5.62,3.866C242.029,236.805,243.693,235.514,242.407,234.991L242.407,234.991z"/>
						</g>
					</g>
					<g>
						<path fill="#88CA6A" d="M242.604,217.296c0.273,1.788,1.861,6.885-0.178,7.418c-3.828,0.806-1.348-6.635-0.082-7.926
							c-1.002,2.056-2.756,5.653-4.795,6.44c-2.076-3.046,2.499-5.906,4.531-7.204"/>
						<g>
							<path fill="#EEF3C7" d="M241.507,217.59c0.236,1.399,0.601,2.77,0.777,4.18c0.096,0.758,0.114,1.528-0.099,2.267
								c-0.108,0.379,0.197,0.294-0.125,0.091c-0.209-0.13-0.313-0.363-0.406-0.577c-0.793-1.811,0.435-5.406,1.691-6.815
								c-0.695,0.077-1.393,0.154-2.09,0.231c-0.999,2.047-2.164,5.052-4.354,6.068c0.582-0.033,1.164-0.066,1.746-0.1
								c-1.824-3.068,2.074-5.426,4.285-6.837c0.952-0.61-1.269-0.426-1.705-0.146c-2.357,1.506-6.75,4.251-4.777,7.571
								c0.294,0.495,1.375,0.072,1.744-0.1c2.66-1.234,4.02-4.324,5.236-6.813c0.266-0.542-1.818-0.071-2.091,0.231
								c-1.37,1.535-3.604,7.184-0.841,8.317c1.417,0.58,3.52-0.298,3.938-1.756c0.58-2.007-0.401-4.425-0.735-6.401
								C243.611,216.463,241.4,216.965,241.507,217.59L241.507,217.59z"/>
						</g>
					</g>
					<g>
						<path fill="#88CA6A" d="M262.9,226.807c-1.786,0.019-7.938-1.197-9.207-0.16c-3.551,2.847,6.412,1.724,7.939,1.196
							c-1.527,0.781-4.592,1.07-5.596,2.869c-1,2.312,0.799,3.315,2.84,2.784c2.039-0.787,3.537-4.383,3.779-5.664"/>
						<g>
							<path fill="#EEF3C7" d="M262.997,225.994c-2.563-0.035-5.08-0.667-7.662-0.561c-1.215,0.05-3.996,0.971-3.459,2.711
								c0.433,1.398,3.205,1.185,4.267,1.172c1.852-0.023,3.918-0.155,5.696-0.715c-0.231-0.472-0.463-0.942-0.692-1.414
								c-1.797,0.832-4.119,1.004-5.525,2.551c-1.191,1.312-1.445,3.414,0.311,4.341c3.994,2.108,7.135-3.164,7.84-6.329
								c0.242-1.088-2.008-0.818-2.227,0.164c-0.348,1.559-2.057,5.874-4.24,4.722c-0.686-0.362-0.434-1.463-0.117-1.935
								c0.396-0.592,1.242-0.893,1.875-1.122c1.021-0.373,2.072-0.624,3.062-1.081c1.17-0.541,0.406-1.76-0.69-1.415
								c-2.017,0.632-5.388,1.13-7.396,0.372c0.045,0.018,0.484-0.332,0.773-0.371c0.959-0.13,1.959-0.016,2.918,0.064
								c1.692,0.144,3.379,0.444,5.08,0.469C264.068,227.635,264.482,226.016,262.997,225.994L262.997,225.994z"/>
						</g>
					</g>
				</g>
				<g>
					<g>
						<path fill="#EEF3C7" d="M230.755,251.357c5.25,1.42,9.347,6.146,14.976,6.328c5.119,0.164,9.778-1.498,14.307-3.776
							c9.721-4.892,16.053-10.134,19.559-20.718c2.51-7.584,4.992-16.792,1.73-24.494c-2.523-5.959-8.332-9.783-14.16-12.01
							c-12.605-4.814-28.621-3.054-39.538,4.945c-15.997,11.721-12.37,37.257,1.548,48.979c0.896,0.755,4.076-0.572,3.191-1.318
							c-12.835-10.809-16.799-33.021-4.021-45.463c9.094-8.856,24.689-9.542,36.078-5.529c5.164,1.82,9.902,5.111,12.736,9.863
							c3.559,5.968,2.102,12.626,0.717,18.994c-1.902,8.755-5.08,17.124-12.93,22.162c-5.598,3.593-13.576,7.914-20.314,5.912
							c-4.203-1.248-7.438-4.504-11.76-5.672C231.837,249.28,228.841,250.84,230.755,251.357L230.755,251.357z"/>
					</g>
				</g>
			</g>
			<g>
				<g>
					<path fill="#C1D677" d="M254.368,280.117c2.168,1.591,2.731,4.539,4.366,6.672c2.451,3.2,5.968,5.58,9.211,7.428
						c5.943,3.434,11.076,6.068,17.802,7.074c6.726,0.736,13.957-1.486,20.113-3.698c6.959-2.487,11.756-6.298,14.375-13.041
						c2.094-5.396,5.801-10.807,6.815-16.457c1.283-5.922-0.131-12.895-2.334-18.245c-5.512-13.646-18.197-19.427-32.166-19.285
						c-13.432,0.137-26.279,4.834-33.957,16.195c-3.967,6.221-4.709,12.406-5.172,19.396c-0.225,4.568-1.232,11.027,1.758,14.759"/>
					<g>
						<path fill="#006947" d="M251.198,281.521c1.729,1.611,2.358,3.619,3.629,5.547c1.478,2.244,3.353,4.127,5.519,5.719
							c4.571,3.357,9.694,6.118,14.952,8.234c11.267,4.537,22.398,1.828,33.34-2.312c4.228-1.601,8.074-4.214,11.047-7.606
							c3.392-3.869,4.978-9.196,7.228-13.75c5.43-10.992,4.945-21.963-0.887-32.768c-9.802-18.152-34.986-18.793-52.047-12.585
							c-8.98,3.269-17.57,10.412-21.097,19.438c-2.063,5.283-2.646,10.75-2.981,16.375c-0.303,5.055-0.826,10.09,2.113,14.504
							c1.434,2.153,8.063-0.215,6.338-2.808c-2.447-3.675-1.851-8.259-1.562-12.435c0.28-4.057,0.608-8.043,1.528-12.014
							c2.197-9.49,9.75-16.269,18.486-19.799c15.049-6.078,34.279-2.201,42.881,12.127c5.148,8.576,5.568,19.117,1.492,28.092
							c-3.758,8.271-6.469,16.186-15.369,19.961c-10.018,4.25-19.512,4.869-29.401,0.133c-3.959-1.895-7.955-4.151-11.367-6.922
							c-3.418-2.776-4.399-7.045-7.504-9.941C255.591,276.898,249.111,279.573,251.198,281.521L251.198,281.521z"/>
					</g>
				</g>
				<g>
					<g>
						<path fill="#88CA6A" d="M290.945,279.596c1.791,0.238,8.148-3.406,5.32-4.91c-2.057-1.004-5.074,3.885-5.828,5.172"/>
						<g>
							<path fill="#EEF3C7" d="M290.261,280.146c1.814,0.152,3.677-0.761,5.175-1.691c0.977-0.607,3.213-2.088,2.53-3.532
								c-0.87-1.843-3.646-0.646-4.762,0.187c-1.604,1.191-2.779,3.06-3.781,4.758c-0.487,0.829,1.701,0.541,2.029-0.018
								c0.6-1.018,1.256-1.996,1.987-2.924c0.447-0.566,0.939-1.091,1.5-1.546c0.252-0.204,0.634-0.218,0.302-0.256
								c0.235,0.026,0.487,0.308,0.584,0.508c0.616,1.308-3.175,3.497-4.195,3.412c-0.532-0.045-1.125,0.071-1.553,0.416
								C289.749,279.725,289.798,280.107,290.261,280.146L290.261,280.146z"/>
						</g>
					</g>
					<g>
						<path fill="#88CA6A" d="M289.913,278.585c0.506-0.519,3.526-5.407,2.491-6.419c-2.84-2.785-3.008,5.912-2.745,6.676"/>
						<g>
							<path fill="#EEF3C7" d="M290.936,278.604c1.16-1.295,2.03-3.186,2.573-4.818c0.218-0.651,0.386-1.471-0.084-2.046
								c-0.549-0.677-1.493-0.832-2.295-0.654c-1.735,0.386-2.187,2.146-2.437,3.681c-0.213,1.297-0.493,3.072-0.133,4.371
								c0.211,0.76,2.406,0.165,2.197-0.588c-0.23-0.829-0.088-1.845-0.027-2.686c0.088-1.198,0.203-2.643,0.853-3.688
								c0.336-0.543-0.965-0.09-0.521,0.147c0.283,0.15,0.41,0.363,0.451,0.662c0.096,0.656-0.334,1.49-0.578,2.072
								c-0.502,1.188-1.178,2.539-2.045,3.51c-0.365,0.406,0.307,0.629,0.592,0.635
								C290.023,279.211,290.573,279.008,290.936,278.604L290.936,278.604z"/>
						</g>
					</g>
					<g>
						<path fill="#88CA6A" d="M301.282,265.172c0.021,2.045,1.358,7.912-1.972,7.18c-4.1-0.726,0.441-7.164,1.962-8.201
							c-1.017,0.521-7.361,5.188-8.161,2.127c-0.541-2.805,6.87-3.394,8.156-2.637"/>
						<g>
							<path fill="#EEF3C7" d="M300.169,265.256c0.035,1.211,0.223,2.411,0.275,3.621c0.037,0.863,0.243,3.262-1.179,2.521
								c-2.098-1.09,1.666-5.955,2.734-6.748c1.086-0.809-0.355-1.619-1.215-1.148c-1.08,0.592-5.479,4.025-6.471,2.754
								c-1.297-1.658,5.274-2.39,6.317-1.876c0.904,0.445,2.525-0.862,1.269-1.479c-2.404-1.185-9.777-0.264-9.928,3.227
								c-0.099,2.217,2.653,2.114,4.079,1.689c2.103-0.627,3.813-1.983,5.705-3.02c-0.406-0.383-0.811-0.766-1.215-1.148
								c-1.879,1.397-6.521,7.815-2.504,9.258c1.793,0.644,3.793,0.207,4.396-1.771c0.597-1.951,0.017-4.063-0.041-6.047
								C302.362,263.932,300.142,264.273,300.169,265.256L300.169,265.256z"/>
						</g>
					</g>
					<g>
						<path fill="#88CA6A" d="M286.07,277.854c-1.79,0.021-8.202-1.961-6.188-4.795c1.512-2.315,7.682,0.944,5.414,4.293
							c-0.783-1.524-5.236-12.221-0.09-8.947c2.316,1.51,0.324,6.899,0.076,7.669"/>
						<g>
							<path fill="#EEF3C7" d="M286.788,277.422c-1.953-0.051-5.869-1.201-6.19-3.498c-0.277-1.979,1.858-0.837,2.678-0.261
								c1.342,0.944,1.776,2.473,0.94,3.889c0.728-0.163,1.455-0.329,2.183-0.493c-1.224-2.438-2.474-5.442-2.537-8.196
								c-0.006-0.302,0.045-0.579,0.162-0.854c0.33-0.429-0.012-0.357-1.031,0.217c0.207,0.043,0.4,0.111,0.586,0.211
								c1.039,0.467,1.455,1.281,1.609,2.363c0.262,1.824-0.416,3.764-0.984,5.475c-0.127,0.385,1.984,0.143,2.164-0.398
								c0.691-2.083,1.512-4.557,0.768-6.727c-0.635-1.853-3.008-2.053-4.523-1.39c-1.573,0.69-0.844,3.007-0.522,4.239
								c0.5,1.925,1.222,3.869,2.113,5.648c0.254,0.508,1.961-0.123,2.18-0.494c2.408-4.082-4.008-6.313-6.94-4.521
								c-1.797,1.096-0.885,2.936,0.434,3.88c1.484,1.064,3.66,1.729,5.482,1.776C285.798,278.298,287.857,277.45,286.788,277.422
								L286.788,277.422z"/>
						</g>
					</g>
					<g>
						<path fill="#88CA6A" d="M276.973,263.116c-0.498,1.284-0.955,6.915,1.856,6.631c3.063-0.543-0.062-5.88-1.095-6.894
							c0.775,0.761,6.459,6.325,6.158,2.238c-0.279-2.553-4.627-2.51-5.649-2.5"/>
						<g>
							<path fill="#EEF3C7" d="M275.886,263.297c-0.856,2.438-0.762,7.745,3.048,6.838c1.762-0.419,2.559-1.474,2.186-3.266
								c-0.322-1.545-1.256-3.26-2.352-4.402c-0.688,0.258-1.375,0.516-2.063,0.773c1.694,1.66,5.004,5.25,7.635,3.304
								c1.396-1.03,0.455-2.935-0.774-3.623c-1.428-0.799-3.262-0.825-4.855-0.812c-0.639,0.005-2.396,0.979-0.93,0.967
								c1.137-0.01,2.27,0.093,3.352,0.461c0.676,0.23,1.238,0.675,1.539,1.324c0.115,0.25,0.127,0.533,0.139,0.802
								c0.043,1.043-0.627,0.347,0.836,0.424c-0.985-0.053-2.153-1.207-2.869-1.794c-0.698-0.574-1.36-1.193-2.008-1.826
								c-0.43-0.42-2.469,0.352-2.063,0.773c0.764,0.797,1.297,1.838,1.744,2.836c0.238,0.529,0.41,1.082,0.527,1.648
								c0.053,0.25,0.063,0.502,0.063,0.756c0.006,0.334-0.321,0.68-0.004,0.754c-1.955-0.461-1.433-5.004-0.978-6.299
								C278.232,262.438,276.096,262.7,275.886,263.297L275.886,263.297z"/>
						</g>
					</g>
					<g>
						<path fill="#88CA6A" d="M297.145,260.355c-2.047,0.021-4.828,3.117-6.621,2.625c-4.105-1.237,4.063-2.6,5.856-2.36
							c-1.024-0.246-9.481-1.95-4.896-3.531c1.783-0.528,5.652,2.756,5.406,3.526"/>
						<g>
							<path fill="#EEF3C7" d="M297.614,259.893c-1.408,0.098-2.636,0.686-3.839,1.383c-0.53,0.308-2.965,2.164-3.295,0.699
								c-0.119-0.527,4.646-0.944,5.191-0.888c0.383,0.041,2.336-0.733,1.605-0.905c-1.873-0.439-4.25-0.718-5.795-1.939
								c-0.229-0.182-0.379-0.514-0.062-0.693c0.256-0.104,0.244-0.117-0.03-0.041c0.176,0.027,0.346,0.069,0.514,0.126
								c0.404,0.118,0.775,0.331,1.139,0.536c0.627,0.354,2.877,1.713,2.762,2.633c-0.074,0.592,2.103,0.17,2.17-0.373
								c0.183-1.433-2.613-2.939-3.635-3.421c-1.65-0.776-3.596-0.422-4.99,0.733c-1.858,1.541,5.313,3.126,6.129,3.318
								c0.537-0.304,1.072-0.604,1.607-0.906c-1.502-0.16-3.109,0.135-4.578,0.417c-1.275,0.245-3.104,0.534-4.039,1.536
								c-0.971,1.039,1.793,1.416,2.299,1.369c0.969-0.09,1.887-0.483,2.736-0.937c0.914-0.487,2.121-1.646,3.17-1.719
								c0.482-0.033,1.109-0.183,1.467-0.534C298.503,259.932,297.827,259.877,297.614,259.893L297.614,259.893z"/>
						</g>
					</g>
					<g>
						<path fill="#88CA6A" d="M281.277,259.238c1.035,1.013,6.195,5.816,7.453,3.76c1.761-3.087-5.92-3.775-7.198-4.018
							c2.045-0.021,4.346-0.045,6.643-0.58c-1.049-2.291-6.411-1.98-6.391,0.065"/>
						<g>
							<path fill="#EEF3C7" d="M280.249,259.636c1.444,1.404,3.028,2.813,4.826,3.746c1.327,0.691,3.879,1.151,4.745-0.554
								c1.748-3.443-5.69-4.023-7.594-4.357c-0.383,0.344-0.766,0.688-1.149,1.029c2.438-0.027,4.823-0.156,7.213-0.67
								c0.166-0.036,1.166-0.382,0.981-0.723c-0.858-1.599-2.877-1.896-4.53-1.804c-1.337,0.076-3.916,0.64-4.048,2.332
								c-0.057,0.72,2.134,0.257,2.181-0.34c0.151-1.979,3.599-0.724,4.201,0.397c0.327-0.239,0.655-0.48,0.983-0.723
								c-2,0.43-4.035,0.467-6.072,0.49c-0.43,0.005-2.336,0.821-1.149,1.029c1.894,0.333,6.291,0.391,7.019,2.617
								c0.096,0.289-0.002,0.574-0.104,0.842c-0.297,0.387-0.125,0.398,0.521,0.033c-0.146-0.018-0.289-0.053-0.429-0.104
								c-0.784-0.232-1.489-0.73-2.153-1.191c-1.209-0.838-2.328-1.826-3.383-2.85C281.837,258.385,279.796,259.195,280.249,259.636
								L280.249,259.636z"/>
						</g>
					</g>
				</g>
				<g>
					<g>
						<path fill="#EBF1C0" d="M269.854,293.867c5.367,1.451,9.304,5.473,14.896,6.351c4.336,0.681,9.348-1.222,13.152-3.038
							c9.813-4.688,16.881-9.546,20.703-20.104c2.717-7.505,5.356-17.129,2.475-24.934c-2.234-6.049-7.887-9.992-13.615-12.357
							c-12.426-5.133-28.588-3.436-39.656,4.133c-16.699,11.419-13.401,37.387,0.789,49.337c0.779,0.657,3.889-0.66,3.215-1.228
							c-12.627-10.635-16.453-31.688-5.061-44.59c8.625-9.769,24.613-10.601,36.225-6.836c5.261,1.703,10.136,4.896,13.201,9.555
							c3.742,5.688,2.748,12.117,1.438,18.393c-1.744,8.36-4.347,16.68-11.228,22.244c-4.771,3.857-13.393,8.064-19.455,7.87
							c-5.098-0.164-9.406-4.914-14.293-6.234C271.771,292.191,268.71,293.559,269.854,293.867L269.854,293.867z"/>
					</g>
				</g>
			</g>
		</g>
		<g>
			<g>
				<g>
					<path fill="#C1D677" d="M215.321,218.161c2.166-1.587,5.149-1.242,7.675-2.161c3.788-1.374,7.115-4.016,9.854-6.553
						c5.061-4.638,9.112-8.742,12.094-14.855c2.725-6.193,2.776-13.758,2.518-20.293c-0.283-7.386-2.477-13.107-8.123-17.629
						c-4.514-3.619-8.563-8.779-13.648-11.447c-5.264-3.002-12.337-3.748-18.103-3.256c-14.67,1.158-23.995,11.521-28.058,24.888
						c-3.904,12.852-3.283,26.517,5.246,37.253c4.74,5.652,10.418,8.219,16.944,10.763c4.293,1.586,10.149,4.488,14.606,2.755"/>
					<g>
						<path fill="#006947" d="M217.45,219.183c1.692-0.957,4.113-0.923,6.007-1.463c2.779-0.792,5.341-2.405,7.688-4.039
							c4.371-3.048,8.217-7.047,11.727-11.033c7.738-8.791,8.582-19.612,7.93-30.825c-0.668-11.47-9.799-18.433-17.967-25.285
							c-7.906-6.634-19.201-7.742-29.021-5.855c-20.077,3.858-30.046,23.615-30.011,42.664c0.021,10.647,5.055,21.847,14.125,27.75
							c4.746,3.089,10.004,5.047,15.271,7.059c4.49,1.716,8.905,2.508,13.59,1.19c4.094-1.15,3.19-4.596-0.922-3.439
							c-4.431,1.245-10.338-2.233-14.368-3.884c-4.146-1.697-7.94-3.854-11.282-6.857c-6.578-5.91-9.225-15.105-9.553-23.656
							c-0.629-16.387,8.626-35.838,26.457-37.638c10.65-1.074,18.098,3.909,25.414,10.919c3.162,3.03,6.633,5.434,8.854,9.311
							c2.178,3.801,2.549,8.369,2.697,12.643c0.34,9.76-1.297,18.082-7.602,25.756c-3.09,3.761-7.021,7.346-11.008,10.123
							c-3.686,2.569-8.395,2.322-12.281,4.519C209.157,219.42,215.222,220.442,217.45,219.183L217.45,219.183z"/>
					</g>
				</g>
				<g>
					<g>
						<path fill="#88CA6A" d="M225.813,183.116c0.768-1.638-0.802-8.794-3.088-6.549c-1.572,1.659,2.186,6.007,3.185,7.112"/>
						<g>
							<path fill="#E9EEC3" d="M226.864,183.248c0.849-2.123-0.152-8.394-3.383-7.903c-5.079,0.772-0.141,7.081,1.422,8.822
								c0.678,0.755,2.76-0.139,2.01-0.975c-0.832-0.927-1.605-1.899-2.297-2.936c-0.418-0.628-0.77-1.288-1.014-2.005
								c-0.084-0.248-0.137-0.514-0.144-0.777c-0.011-0.441,0.374-0.51-0.138-0.524c0.642,0.019,1.173,2.296,1.295,2.801
								c0.229,0.944,0.521,2.29,0.145,3.233C224.287,184.17,226.496,184.17,226.864,183.248L226.864,183.248z"/>
						</g>
					</g>
					<g>
						<path fill="#88CA6A" d="M224.536,183.797c-0.34-0.637-4.096-4.987-5.373-4.305c-3.509,1.873,4.736,4.645,5.545,4.623"/>
						<g>
							<path fill="#E9EEC3" d="M225.636,183.503c-0.857-1.468-2.369-2.847-3.725-3.833c-1.393-1.014-3.486-0.828-4.555,0.618
								c-1.43,1.934,5.35,4.222,6.635,4.257c0.516,0.014,1.11-0.15,1.553-0.416c0.358-0.215,0.293-0.432-0.119-0.443
								c0.025,0-0.676-0.166-0.914-0.238c-0.67-0.201-1.322-0.455-1.965-0.729c-1.031-0.438-2.498-1.037-3.053-2.085
								c-0.218-0.411-0.023-0.795,0.338-1.032c-1.021,0.086-1.291,0.193-0.812,0.326c0.168,0.064,0.324,0.161,0.479,0.252
								c0.373,0.219,0.713,0.5,1.044,0.777c1.036,0.866,2.208,1.955,2.896,3.135C223.741,184.612,225.793,183.773,225.636,183.503
								L225.636,183.503z"/>
						</g>
					</g>
					<g>
						<path fill="#88CA6A" d="M215.159,168.922c1.959,0.597,7.957,1.082,6.257,4.04c-1.924,3.692-6.7-2.571-7.235-4.335
							c0.193,1.126,2.736,8.582-0.42,8.421c-2.84-0.327-1.175-7.571-0.068-8.571"/>
						<g>
							<path fill="#E9EEC3" d="M214.513,169.614c1.4,0.396,7.079,0.839,5.862,3.257c-0.917,1.82-4.712-3.429-5.095-4.539
								c-0.318-0.918-2.385-0.365-2.197,0.59c0.223,1.131,0.58,2.235,0.817,3.365c0.167,0.793,0.294,1.604,0.322,2.415
								c0.011,0.306-0.193,1.62-0.097,1.604c-1.648,0.273-0.336-6.707,0.473-7.555c0.939-0.982-1.193-1.198-1.813-0.551
								c-1.783,1.868-3.277,9.65,0.859,9.584c4.752-0.074,2.135-6.906,1.635-9.453c-0.732,0.197-1.465,0.393-2.197,0.59
								c0.997,2.883,5.173,7.752,8.492,5.221c1.539-1.172,1.614-3.084,0.041-4.164c-1.664-1.143-3.921-1.211-5.81-1.748
								C214.947,167.986,213.206,169.243,214.513,169.614L214.513,169.614z"/>
						</g>
					</g>
					<g>
						<path fill="#88CA6A" d="M222.688,187.245c-0.521,1.71-4.336,7.233-6.433,4.457c-1.757-2.136,3.208-7.041,5.719-3.873
							c-1.689,0.29-13.229,1.325-8.56-2.603c2.135-1.754,6.678,1.764,7.337,2.232"/>
						<g>
							<path fill="#E9EEC3" d="M221.593,187.392c-0.375,1.086-2.76,5.278-4.084,4.155c-0.939-0.797-0.406-2.055,0.167-2.872
								c0.901-1.285,2.175-1.655,3.276-0.425c0.394-0.332,0.787-0.665,1.181-0.998c-2.477,0.4-5.313,0.608-7.771,0.041
								c-1.654-0.381-0.646-2.111,0.7-1.889c1.706,0.281,3.3,1.488,4.667,2.476c0.609,0.44,2.608-0.436,2.045-0.843
								c-1.908-1.379-3.927-2.705-6.334-2.891c-1.455-0.112-4.657,1.263-4.189,3.181c0.355,1.453,3.502,1.387,4.558,1.426
								c1.982,0.073,4.047-0.03,6.008-0.347c0.292-0.047,1.661-0.463,1.181-0.998c-1.48-1.652-3.613-1.35-5.424-0.432
								c-1.557,0.79-3.41,2.949-2.574,4.789c0.898,1.979,3.5,1.305,4.895,0.398c1.709-1.113,3.227-3.141,3.892-5.065
								C224.028,186.395,221.837,186.686,221.593,187.392L221.593,187.392z"/>
						</g>
					</g>
					<g>
						<path fill="#88CA6A" d="M205.897,191.492c1.073,0.865,6.308,2.988,6.881,0.222c0.401-3.083-5.626-1.709-6.902-1.028
							c0.957-0.51,7.973-4.256,3.984-5.203c-2.521-0.498-3.783,3.664-4.082,4.641"/>
						<g>
							<path fill="#E9EEC3" d="M204.865,191.88c1.384,1.04,3.354,1.622,5.063,1.69c1.584,0.063,3.821-0.522,3.967-2.391
								c0.266-3.41-7.195-1.412-8.664-0.681c0.43,0.124,0.859,0.249,1.289,0.373c1.015-0.541,6.984-3.577,5.445-5.233
								c-1.17-1.258-3.453-0.617-4.668,0.193c-1.439,0.961-2.123,2.895-2.605,4.473c-0.162,0.527,1.991,0.233,2.174-0.361
								c0.291-0.955,0.646-1.879,1.134-2.751c0.321-0.573,0.743-1.357,1.452-1.11c0.42,0.147,0.598,0.488,0.461,0.896
								c-0.32,0.95-1.619,1.666-2.398,2.182c-0.736,0.488-1.504,0.924-2.283,1.339c-1.303,0.694,0.739,0.647,1.289,0.373
								c1.205-0.601,4.336-1.26,5.078,0.286c0.223,0.465,0.08,1.057-0.238,1.434c-0.166,0.199-1.277-0.15-1.508-0.207
								c-1.01-0.246-2.086-0.65-2.924-1.279C206.412,190.718,204.472,191.584,204.865,191.88L204.865,191.88z"/>
						</g>
					</g>
					<g>
						<path fill="#88CA6A" d="M209.321,171.426c-0.594,1.958,1.525,5.541,0.516,7.104c-2.413,3.542-1.257-4.658-0.492-6.296
							c-0.541,0.904-4.707,8.455-4.838,3.607c0.032-1.861,4.326-4.565,4.987-4.098"/>
						<g>
							<path fill="#E9EEC3" d="M208.222,171.558c-0.355,1.521,0.248,3.11,0.585,4.583c0.169,0.738,0.378,1.647,0.004,2.355
								c-0.089,0.133-0.185,0.262-0.286,0.387c-0.447,0.388-0.061,0.384,1.158-0.012c-0.098-0.085-0.113-0.314-0.137-0.432
								c-0.371-1.859,0.148-4.609,0.898-6.337c0.328-0.755-1.813-0.431-2.125,0.098c-0.931,1.571-1.817,3.308-3.149,4.582
								c-0.449,0.43-0.118-0.216,0.69,0.081c-0.109-0.04-0.16-0.437-0.18-0.521c-0.16-0.702,0.016-1.218,0.418-1.788
								c0.443-0.628,1.116-1.131,1.74-1.563c0.245-0.168,0.504-0.316,0.762-0.463c0.615-0.348,0.604,0.016,0.022-0.242
								c0.674,0.299,2.68-0.669,1.742-1.086c-1.673-0.743-3.933,1.039-5.116,2.021c-1.163,0.966-2.763,3.085-1.367,4.559
								c1.137,1.199,3.062-0.555,3.77-1.374c1.078-1.249,1.883-2.726,2.719-4.139c-0.708,0.032-1.417,0.065-2.125,0.098
								c-0.581,1.337-0.753,2.917-0.895,4.353c-0.082,0.834-0.402,2.755,0.578,3.222c1.361,0.647,2.824-0.868,3.21-2.017
								c0.716-2.132-1.229-4.441-0.717-6.63C210.62,170.443,208.402,170.786,208.222,171.558L208.222,171.558z"/>
						</g>
					</g>
					<g>
						<path fill="#88CA6A" d="M203.491,186.221c1.274-0.682,7.41-4.16,5.824-5.979c-2.416-2.604-5.377,4.513-5.994,5.659
							c0.596-1.953,1.264-4.156,1.443-6.508c-2.5,0.309-3.816,5.522-1.857,6.113"/>
						<g>
							<path fill="#E9EEC3" d="M204.175,186.555c1.671-0.9,9.12-5.021,5.502-7.258c-1.66-1.026-3.672,0.605-4.658,1.805
								c-1.173,1.425-1.875,3.152-2.721,4.771c0.707-0.035,1.415-0.072,2.123-0.107c0.65-2.139,1.238-4.274,1.442-6.509
								c0.044-0.479-0.604-0.546-0.952-0.481c-1.829,0.341-2.979,1.484-3.672,3.176c-0.515,1.254-0.768,3.475,0.795,4.092
								c0.498,0.196,1.108,0.072,1.557-0.203c0.27-0.165,0.691-0.672,0.189-0.869c-0.85-0.336-0.754-1.496-0.64-2.232
								c0.102-0.656,0.654-2.576,1.476-2.729c-0.316-0.161-0.634-0.322-0.951-0.482c-0.203,2.234-0.793,4.369-1.442,6.509
								c-0.251,0.826,1.852,0.413,2.123-0.107c0.556-1.063,1.048-2.151,1.651-3.19c0.365-0.625,0.773-1.222,1.233-1.78
								c0.193-0.235,0.431-0.46,0.681-0.633c0.175-0.087,0.133-0.093-0.127-0.02c0.201,0.03,0.379,0.236,0.512,0.368
								c1.444,1.415-4.551,4.707-5.488,5.213c-0.316,0.17-0.649,0.646-0.189,0.869C203.106,186.994,203.731,186.793,204.175,186.555
								L204.175,186.555z"/>
						</g>
					</g>
				</g>
				<g>
					<g>
						<path fill="#F3F8D0" d="M234.52,205.703c2.894-4.523,7.807-6.972,10.297-11.82c2.555-4.971,1.049-11.64,0.149-16.803
							c-1.961-11.252-7.821-17.846-17.446-23.662c-6.468-3.907-12.706-7.205-20.443-6.031c-6.543,0.994-12.064,5.238-16.09,10.285
							c-8.698,10.907-12.866,30.203-4.285,42.333c10.388,14.682,32.155,16.175,46.654,6.939c1.502-0.957-1.967-0.702-2.668-0.257
							c-14.591,9.294-36.779,3.725-43.246-12.834c-4.599-11.777-0.673-26.553,6.679-36.328c4.08-5.426,9.972-9.471,16.986-8.742
							c7.274,0.758,15.26,6.617,20.777,11.107c7.318,5.955,9.087,13.834,10.4,22.723c0.815,5.514,0.524,10.877-3.201,15.297
							c-2.542,3.015-5.793,4.945-7.963,8.338C230.762,206.81,233.945,206.598,234.52,205.703L234.52,205.703z"/>
					</g>
				</g>
			</g>
			<g>
				<g>
					<path fill="#C1D677" d="M189.208,286.364c4.76,0.044,8.939-2.616,13.675-3.423c3.966-1.043,8.032-1.489,11.44-4.387
						c2.58-2.024,4.367-5.131,6.59-7.824c4.445-5.39,8.755-9.414,8.81-16.978c0.254-6.382-1.416-14.751-4.793-20.269
						c-6.854-11.629-21.375-23.903-35.553-23.438c-5.689,0.238-11.699,4.308-16.47,7.069c-5.282,2.607-8.567,6.943-11.493,11.951
						c-7.738,12.529-9.752,29.324-1.434,41.679c1.688,2.761,3.145,6.291,5.324,8.354c2.102,2.325,5.699,3.418,8.447,4.534
						c5.242,2.155,12.105,4.521,17.055,2.093"/>
					<g>
						<path fill="#006947" d="M188.931,288.979c5.541-0.28,10.754-2.625,16.102-3.948c4.896-1.212,9.644-2.532,13.242-6.316
							c3.611-3.796,6.817-8.237,10.053-12.37c3.336-4.261,4.805-8.844,4.9-14.218c0.39-21.584-19.545-43.42-41.222-44.667
							c-5.424-0.312-10.338,1.729-15.027,4.249c-5.137,2.761-10.143,5.61-14.091,9.96c-7.388,8.139-11.54,19.941-11.765,30.807
							c-0.107,5.254,1.052,10.44,3.172,15.226c1.957,4.419,4.831,10.106,8.379,13.437c3.648,3.424,9.053,5.004,13.695,6.598
							c5.357,1.839,10.681,2.201,15.982,0.121c4.367-1.715,0.514-5.666-3.093-4.25c-4.707,1.847-10.423-1.125-14.772-2.836
							c-4.373-1.72-6.917-3.668-9.258-7.763c-4.5-7.871-7.567-14.733-7.021-24.021c0.514-8.719,4.364-17.049,9.508-23.976
							c2.835-3.818,6.88-5.862,10.884-8.216c5.053-2.971,9.566-4.672,15.479-3.662c8.865,1.513,16.805,8.177,22.55,14.711
							c6.172,7.018,9.421,15.404,9.637,24.748c0.202,8.821-6.098,14.063-10.958,20.625c-3.111,4.202-6.641,5.741-11.593,6.9
							c-4.702,1.1-9.399,3.391-14.23,3.635C185.526,283.951,184.264,289.214,188.931,288.979L188.931,288.979z"/>
					</g>
				</g>
				<g>
					<g>
						<path fill="#88CA6A" d="M204.263,241.971c-1.031,0.758-2.34,3.301-2.223,4.67c-0.03,1.861,1.162,4.096,2.98,2.51
							c1.574-1.659-1.225-6.521-1.225-6.521"/>
						<g>
							<path fill="#ECF1C7" d="M203.381,241.789c-1.572,1.309-2.479,3.484-2.431,5.498c0.049,2.057,1.551,3.46,3.566,2.839
								c3.615-1.114,1.654-5.55,0.377-7.79c-0.424-0.744-2.538-0.011-2.197,0.588c0.875,1.533,1.83,3.502,1.682,5.305
								c-0.064,0.764-0.231,0.907-0.705,0.287c-0.441-0.576-0.518-1.474-0.533-2.168c-0.035-1.462,0.896-3.271,2.004-4.195
								c0.361-0.301,0.232-0.688-0.209-0.779C204.407,241.264,203.79,241.448,203.381,241.789L203.381,241.789z"/>
						</g>
					</g>
					<g>
						<path fill="#88CA6A" d="M202.177,242.675c-0.541,0.904-5.494,9.287-5.719,3.873c-0.213-1.937,4.422-4,5.307-4.267"/>
						<g>
							<path fill="#ECF1C7" d="M201.162,242.682c-0.484,0.811-0.987,1.608-1.521,2.389c-0.654,0.957-1.415,2.205-2.426,2.826
								c0.59-0.362,0.957,0.188,0.616-0.237c-0.144-0.181-0.175-0.515-0.214-0.732c-0.143-0.796,0.014-1.313,0.545-1.911
								c0.875-0.981,2.82-1.947,3.732-2.24c0.273-0.088,1.085-0.348,0.967-0.786c-0.112-0.423-0.958-0.286-1.23-0.198
								c-1.896,0.609-3.933,1.643-5.338,3.072c-0.729,0.742-0.994,1.421-0.9,2.447c0.063,0.68,0.335,1.485,1.111,1.59
								c1.751,0.234,3.08-1.14,4.084-2.373c0.979-1.202,1.81-2.527,2.604-3.856C203.688,241.838,201.498,242.118,201.162,242.682
								L201.162,242.682z"/>
						</g>
					</g>
					<g>
						<path fill="#88CA6A" d="M197.412,261c1.253-1.49,6.804-5.68,4.802-7.895c-2.585-2.922-4.602,6.354-4.484,7.726"/>
						<g>
							<path fill="#ECF1C7" d="M198.411,260.936c1.541-1.759,3.427-3.144,4.707-5.137c1.004-1.563,0.651-3.834-1.57-3.721
								c-2.021,0.104-3.012,1.779-3.676,3.465c-0.654,1.66-1.325,3.768-1.241,5.582c0.021,0.439,2.228,0.063,2.197-0.588
								c-0.056-1.2,0.341-2.491,0.652-3.637c0.21-0.771,0.474-1.529,0.783-2.269c0.14-0.333,0.306-0.653,0.481-0.968
								c0.094-0.163,0.197-0.32,0.31-0.471c0.472-0.631,0.198,0.145-0.371-0.127c3.342,1.589-3.214,6.793-4.271,7.998
								C195.928,261.619,198.05,261.348,198.411,260.936L198.411,260.936z"/>
						</g>
					</g>
					<g>
						<path fill="#88CA6A" d="M197.122,259.311c-0.041-1.615,1.891-7.978-1.098-7.815c-2.5,0.31,0.662,6.614,0.949,8.306"/>
						<g>
							<path fill="#ECF1C7" d="M198.235,259.227c0.025-2.578,2.246-8.477-2.113-8.535c-4.506-0.063-0.621,7.567-0.246,9.402
								c0.209,1.021,2.409,0.451,2.197-0.588c-0.23-1.125-0.715-2.208-1.086-3.29c-0.381-1.106-1.162-2.879-0.702-4.053
								c-0.145,0.369,0.163,0.759,0.259,1.313c0.131,0.763,0.014,1.592-0.07,2.354c-0.13,1.184-0.452,2.37-0.464,3.563
								C195.998,260.547,198.226,260.216,198.235,259.227L198.235,259.227z"/>
						</g>
					</g>
					<g>
						<path fill="#88CA6A" d="M192.882,260.96c0.029-1.858-1.855-8.847-5.046-7.146c-3.509,1.875,3.556,5.891,4.802,7.071
							c-1.395-0.69-3.227-2.583-4.842-2.538c-1.861-0.033-4.488,1.574-3.148,3.317c1.512,2.063,7.543,0.688,8.479-0.632"/>
						<g>
							<path fill="#ECF1C7" d="M193.979,260.666c-0.043-3.377-2.275-9.258-6.572-7.28c-4.823,2.222,2.52,6.41,4.208,7.925
								c0.634-0.313,1.267-0.629,1.899-0.942c-2.217-1.218-3.934-3.166-6.691-2.464c-1.884,0.479-4.577,1.943-3.197,4.187
								c0.982,1.599,3.992,1.298,5.508,1.089c1.686-0.233,3.866-0.768,5.012-2.133c0.607-0.724-1.6-0.548-2.039-0.023
								c-1.082,1.291-4.326,1.354-5.724,0.791c-2.2-0.888-0.162-3.388,1.778-2.664c1.314,0.488,2.373,1.584,3.599,2.258
								c0.466,0.256,2.52-0.387,1.899-0.943c-0.971-0.869-2.106-1.564-3.129-2.372c-0.914-0.721-2.668-1.985-2.547-3.327
								c0.099-1.082,1.119-0.295,1.496,0.084c0.586,0.592,0.951,1.387,1.277,2.139c0.567,1.308,1.008,2.834,1.025,4.269
								C191.792,261.91,193.991,261.494,193.979,260.666L193.979,260.666z"/>
						</g>
					</g>
					<g>
						<path fill="#88CA6A" d="M177.593,248.833c-0.936,1.319-2.082,6.851-0.029,8.007c2.469,1.553,3.645-5.839-0.342-6.783
							c1.956,0.594,4.447,2.954,6.456,2.496c5.782-1.449-2.972-5.179-5.841-3.646"/>
						<g>
							<path fill="#ECF1C7" d="M176.574,248.824c-1.384,2.15-2.555,10.101,2.14,8.685c1.615-0.487,2.225-2.12,2.208-3.687
								c-0.022-2.063-0.981-3.762-3.022-4.344c-0.541-0.154-2.442,0.785-1.556,1.095c2.208,0.77,4.313,2.979,6.817,2.612
								c1.148-0.168,3.768-0.797,3.527-2.431c-0.206-1.396-2.734-2.09-3.799-2.403c-1.727-0.511-3.814-0.658-5.479,0.131
								c-1.385,0.654-0.104,1.303,0.854,0.85c1.626-0.77,4.548,0.341,5.822,1.432c1.181,1.01-0.544,1.34-1.402,1.062
								c-1.629-0.528-2.964-1.722-4.584-2.286c-0.519,0.365-1.037,0.729-1.556,1.095c2.256,0.646,2.82,4.189,1.55,5.927
								c0.384-0.524,0.716,0.119,0.101-0.453c-0.232-0.217-0.34-0.533-0.445-0.822c-0.287-0.789-0.254-1.711-0.195-2.531
								c0.09-1.273,0.355-2.816,1.059-3.91C179.149,248.007,176.946,248.246,176.574,248.824L176.574,248.824z"/>
						</g>
					</g>
					<g>
						<path fill="#88CA6A" d="M198.007,237.936c-1.574,1.657-0.924,4.795-2.569,6.698c-1.329,1.733-3.413,2.438-3.894-0.381
							c-0.065-2.425,3.273-4.619,5.188-5.642c-2.264,3.056-10.54,2.144-6.947-2.643c2.339-3.299,6.714-0.102,7.66,2.061"/>
						<g>
							<path fill="#ECF1C7" d="M196.987,237.921c-1.817,2.201-1.004,5.392-3.238,7.396c-0.787,0.705-1.102-1.348-1.088-1.606
								c0.043-0.882,0.695-1.69,1.267-2.302c0.974-1.042,2.239-1.807,3.48-2.484c-0.565-0.107-1.132-0.217-1.698-0.324
								c-1.175,1.447-4.748,1.854-5.616-0.164c-0.64-1.488,1.194-3.468,2.603-3.166c1.492,0.319,2.988,1.715,3.649,3.056
								c0.366,0.741,2.503,0.03,2.197-0.589c-1.071-2.17-3.663-4.047-6.173-3.771c-2.303,0.252-4.623,2.134-4.568,4.612
								c0.043,1.955,2.844,2.396,4.281,2.413c2.064,0.022,4.342-0.729,5.668-2.363c0.662-0.815-1.428-0.472-1.697-0.323
								c-1.961,1.07-3.961,2.404-5.123,4.364c-0.881,1.486-0.502,3.58,1.291,4.056c1.617,0.428,3.304-0.942,4.236-2.074
								c1.605-1.947,0.988-4.783,2.57-6.699C199.636,237.213,197.427,237.389,196.987,237.921L196.987,237.921z"/>
						</g>
					</g>
					<g>
						<path fill="#88CA6A" d="M181.473,245.734c1.319,0.938,4.618,3.273,6.021,1.296c2.338-3.3-4.691-3.028-6.117-1.857
							c2.744-0.235,5.655-6.3,2.176-6.286c-2.104-0.105-2.346,5.967-2.102,6.041"/>
						<g>
							<path fill="#ECF1C7" d="M180.602,246.277c1.665,1.182,3.517,2.375,5.646,2.113c1.42-0.177,3.176-1.606,2.756-3.193
								c-0.348-1.315-2.539-1.439-3.588-1.471c-1.525-0.043-3.455,0.176-4.727,1.101c-0.742,0.538-0.257,1.096,0.543,0.978
								c1.993-0.298,3.477-1.676,4.4-3.412c0.79-1.487,1.043-3.436-0.848-4.058c-1.907-0.627-3.383,0.825-3.963,2.458
								c-0.319,0.896-1.117,3.706-0.389,4.571c0.506,0.603,2.613-0.187,2.037-0.873c-0.128-0.151,0.065-1.505,0.109-1.886
								c0.121-1.061,0.339-2.209,0.949-3.104c0-0.001,0.414,0.541,0.479,0.782c0.143,0.528-0.08,1.149-0.254,1.644
								c-0.299,0.854-1.236,2.467-2.233,2.614c0.181,0.326,0.362,0.651,0.543,0.978c1.013-0.735,3.513-0.813,4.513-0.033
								c0.79,0.617-0.066,1.759-0.904,1.563c-1.205-0.281-2.335-1.152-3.327-1.855C181.737,244.764,179.711,245.646,180.602,246.277
								L180.602,246.277z"/>
						</g>
					</g>
				</g>
				<g>
					<g>
						<path fill="#ECF1CA" d="M212.493,273.059c2.895-4.523,7.809-6.974,10.3-11.822c2.553-4.969,1.048-11.639,0.149-16.803
							c-1.955-11.25-7.824-17.849-17.447-23.664c-6.467-3.907-12.706-7.205-20.443-6.03c-6.543,0.994-12.065,5.239-16.09,10.286
							c-8.698,10.906-12.867,30.203-4.286,42.332c10.387,14.683,32.157,16.176,46.657,6.941c1.502-0.956-1.968-0.701-2.668-0.256
							c-14.592,9.291-36.783,3.723-43.248-12.837c-4.598-11.776-0.672-26.552,6.68-36.327c4.08-5.426,9.971-9.472,16.985-8.743
							c7.274,0.757,15.261,6.615,20.778,11.106c7.319,5.956,9.088,13.835,10.4,22.724c0.814,5.517,0.525,10.879-3.202,15.3
							c-2.543,3.014-5.793,4.945-7.964,8.338C208.736,274.165,211.921,273.953,212.493,273.059L212.493,273.059z"/>
					</g>
				</g>
			</g>
			<g>
				<g>
					<path fill="#C1D677" d="M177.875,243.621c-4.814,1.066-8.657,3.549-14.188,3.271c-6.896-0.41-15.355-2.14-20.978-5.813
						c-12.372-8.251-24.349-27.053-18.893-42.241c9.878-27.882,47.171-37.889,66.203-12.735
						c6.528,9.003,12.603,23.206,10.015,34.491c-1.305,5.221-7.449,10.651-10.474,15.066c-1.731,2-3.462,4.004-5.372,5.67
						c-2.324,2.102-4.895,1.318-7.653,3.006"/>
					<g>
						<path fill="#006947" d="M177.566,242.47c-5.06,1.279-9.332,3.226-14.711,2.7c-5.888-0.574-11.853-2.201-16.921-5.283
							c-8.117-4.934-14.268-13.697-17.751-22.355c-6.958-17.297,4.567-36.005,21.053-42.465
							c17.473-6.847,33.964,4.532,42.036,19.556c4.385,8.162,8.423,19.962,4.456,28.973c-1.949,4.429-6.009,7.741-8.808,11.61
							c-1.363,1.885-4.293,6.021-6.705,6.633c-2.02,0.514-3.802,1.059-5.678,1.969c-4.096,1.99,2.299,1.885,3.994,1.062
							c2.048-0.995,4.392-1.151,6.471-2.171c2.217-1.088,3.943-3.094,5.586-4.868c3.729-4.024,7.314-8.493,10.488-12.971
							c7.173-10.124,0.939-25.319-4.439-34.776c-10.208-17.942-29.768-23.354-48.744-17.133c-8.5,2.787-16.433,8.423-21.688,15.666
							c-6.859,9.455-8.883,19.646-4.881,30.755c3.651,10.139,12.377,21.067,22.539,25.187c5.64,2.283,11.566,3.364,17.615,3.801
							c5.885,0.426,11.152-2.181,16.704-3.582C182.22,243.752,181.583,241.455,177.566,242.47L177.566,242.47z"/>
					</g>
				</g>
				<g>
					<g>
						<path fill="#88CA6A" d="M147.196,209.58c0.181-2.352,1.399-8.127,4.655-7.405c3.255,0.722,2.819,5.669,0.513,7.103
							c1.275-0.68,3.488-2.68,5.275-2.404c3.327,0.477,1.191,2.234-0.573,2.764c-2.649,0.801-7.105,0.516-9.774,0.506"/>
						<g>
							<path fill="#E9EEC3" d="M148.297,209.453c0.19-2.102,0.638-5.276,2.467-6.611c1.213-0.887,2.212,1.794,2.312,2.504
								c0.172,1.239-0.375,2.836-1.401,3.57c-1.247,0.894,0.661,1.143,1.382,0.723c1.01-0.588,1.934-1.309,2.976-1.845
								c0.289-0.149,3.194-0.263,1.812,0.785c-0.627,0.475-1.436,0.616-2.188,0.74c-2.604,0.429-5.316,0.188-7.943,0.165
								c-0.87-0.008-2.323,1.303-0.836,1.316c2.646,0.023,5.289,0.139,7.93-0.113c1.754-0.169,4.166-0.653,5.305-2.167
								c1.102-1.463-0.762-2.25-2.051-2.306c-2.517-0.107-4.329,1.506-6.384,2.701c0.46,0.241,0.921,0.482,1.382,0.723
								c2.855-2.043,3.313-7.535-0.936-8.146c-4.316-0.621-5.736,5.017-6.025,8.215
								C146.009,210.651,148.226,210.242,148.297,209.453L148.297,209.453z"/>
						</g>
					</g>
					<g>
						<path fill="#88CA6A" d="M163.535,194.502c-1.935,0.213-6.622,3.332-6.976,5.363c-0.602,4.628,5.914-2.748,7.02-3.748
							c-0.371,1.225-5.983,9.139-1.868,8.785c2.499-0.306,2.897-9.539,2.069-10.325"/>
						<g>
							<path fill="#E9EEC3" d="M163.645,193.742c-2.457,0.416-4.646,1.946-6.46,3.586c-0.821,0.742-2.968,3.559-1.244,4.547
								c2.865,1.641,6.826-3.855,8.55-5.466c-0.651-0.132-1.304-0.263-1.954-0.394c-0.779,2.123-6.588,9.824-0.935,9.646
								c2.302-0.072,3.005-3.043,3.344-4.801c0.321-1.668,1.015-5.245-0.155-6.756c-0.578-0.745-2.679,0.091-2.018,0.943
								c0.658,0.852,0.288,2.938,0.219,3.922c-0.116,1.648-0.296,3.9-1.415,5.212c-0.134,0.157-0.118-1.493-0.082-1.638
								c0.229-0.906,0.704-1.775,1.126-2.602c0.631-1.236,1.525-2.418,2.004-3.723c0.438-1.195-1.46-0.857-1.955-0.395
								c-1.666,1.557-3.122,3.339-5.037,4.611c-0.533,0.354-0.002,0.379,0.004-0.31c0.007-0.776,0.539-1.348,1.033-1.886
								c1.119-1.219,3.082-2.697,4.757-2.981C164.585,195.064,165.138,193.489,163.645,193.742L163.645,193.742z"/>
						</g>
					</g>
					<g>
						<path fill="#88CA6A" d="M173.479,215.427c0.328-2.84,0.974-5.849-0.951-8.306c-1.988,1.268-0.975,5.85,0.365,7.596
							c-0.852-1.596-1.727-4-3.045-4.936c-1.319-0.937-3.033-1.455-2.647,0.797c0.533,1.768,6.011,3.967,5.544,4.626"/>
						<g>
							<path fill="#E9EEC3" d="M174.591,215.34c0.367-3.041,0.836-6.051-1.057-8.699c-0.373-0.522-1.303-0.335-1.731-0.01
								c-2.567,1.943-1.513,6.315,0.084,8.566c0.568,0.802,2.534,0.05,2.013-0.961c-0.969-1.878-1.682-4.065-3.514-5.29
								c-1.127-0.753-3.197-1.285-4.065,0.151c-0.937,1.549,0.372,2.864,1.525,3.742c0.757,0.575,1.59,1.056,2.398,1.553
								c0.341,0.21,0.677,0.425,1.007,0.65c0.439,0.3,0.293,0.475,0.445,0.042c-0.418,1.19,1.779,1.144,2.098,0.238
								c0.535-1.521-3.322-3.071-4.252-3.739c-0.434-0.313-0.82-0.658-1.139-1.088c-0.035-0.07-0.069-0.142-0.104-0.213
								c0.162-0.666,0.047-0.815-0.345-0.447c0.382,0.107,0.721,0.357,1.044,0.574c1.476,0.986,2.11,3.281,2.888,4.787
								c0.671-0.32,1.342-0.641,2.013-0.961c-1.002-1.412-2.404-5.292-0.646-6.624c-0.577-0.003-1.155-0.007-1.731-0.011
								c1.707,2.393,1.174,5.184,0.845,7.912C172.233,216.627,174.474,216.316,174.591,215.34L174.591,215.34z"/>
						</g>
					</g>
					<g>
						<path fill="#88CA6A" d="M170.502,219.064c-1.722,2.15-5.285,5.076-8.22,4.185c-4.722-1.167,1.53-3.274,3.541-3.735
							c-2.67-0.009-7.116-2.962-2.385-4.463c2.33-0.631,5.5,3.004,7.158,4.58c0,0-0.244-0.077-0.73-0.225"/>
						<g>
							<path fill="#E9EEC3" d="M169.477,219.031c-1.588,1.918-5.077,5.184-7.692,3.133c-0.662-0.52,3.68-1.959,4.191-2.081
								c0.736-0.177,1.464-1.157,0.27-1.209c-1.019-0.045-1.941-0.432-2.797-0.969c-0.955-0.6-1.529-2.229,0.223-2.285
								c1.162-0.038,2.475,1.223,3.273,1.911c0.924,0.795,1.758,1.688,2.635,2.535c0.563-0.349,1.125-0.697,1.688-1.046
								c-0.244-0.076-0.488-0.15-0.732-0.225c-0.719-0.219-2.586,0.841-1.338,1.221c0.244,0.074,0.488,0.148,0.732,0.225
								c0.396,0.125,2.338-0.418,1.688-1.046c-2.627-2.533-5.818-6.372-9.798-4.117c-3.993,2.263,1.028,4.964,3.581,5.075
								c0.091-0.402,0.181-0.806,0.271-1.209c-1.011,0.242-8.125,2.363-5.747,4.229c1.558,1.221,4.134,1.033,5.851,0.335
								c2.289-0.932,4.188-2.521,5.753-4.411C172.161,218.331,169.94,218.471,169.477,219.031L169.477,219.031z"/>
						</g>
					</g>
					<g>
						<path fill="#88CA6A" d="M153.185,212.734c1.787,0.276,7.126,0.294,7.021,2.399c-0.381,3.894-6.732-0.708-7.586-2.304
							c1.662,1.573,4.564,4.327,4.705,6.508c-3.531,1.065-4.884-4.155-5.512-6.487"/>
						<g>
							<path fill="#E9EEC3" d="M152.284,213.17c1.602,0.223,7.443,0.026,6.721,2.725c-0.174,0.646-0.568,0.272,0.216,0.295
								c-0.292-0.008-0.597-0.128-0.87-0.217c-0.669-0.217-1.289-0.602-1.881-0.973c-0.987-0.621-2.141-1.444-2.75-2.464
								c-0.711,0.225-1.422,0.448-2.133,0.673c1.822,1.729,4.295,3.787,4.641,6.423c0.334-0.218,0.668-0.436,1.002-0.653
								c-2.611,0.645-3.873-4.769-4.318-6.422c-0.141-0.521-2.336,0.068-2.197,0.588c0.941,3.494,2.314,7.636,6.708,6.553
								c0.236-0.059,1.05-0.286,1.003-0.653c-0.352-2.676-2.928-4.847-4.771-6.593c-0.351-0.333-2.356,0.3-2.132,0.673
								c1.527,2.552,5.797,5.069,8.687,3.463c1.521-0.845,1.317-2.545-0.157-3.251c-1.819-0.873-4.012-0.765-5.967-1.037
								c-0.521-0.072-1.065,0.045-1.538,0.274C152.401,212.644,151.763,213.097,152.284,213.17L152.284,213.17z"/>
						</g>
					</g>
					<g>
						<path fill="#88CA6A" d="M168.353,196.232c-0.52,1.712-3.527,7.213-2.92,8.734c1.65,4.241,3.57-5.598,3.527-7.214
							c0.288,1.691-0.358,4.698,1.057,6.202c1.905,1.646,3.402,0.23,3.508-1.877c-0.139-2.179-3.117-4.688-4.267-5.304"/>
						<g>
							<path fill="#E9EEC3" d="M167.3,196.096c-0.797,2.422-2.184,4.617-2.831,7.099c-0.354,1.36-0.194,3.788,1.786,3.649
								c1.793-0.127,2.397-2.343,2.811-3.748c0.502-1.713,1.008-3.621,1.01-5.421c-0.738,0.124-1.476,0.249-2.213,0.372
								c0.238,1.846-0.299,4.029,0.688,5.723c0.884,1.517,2.926,2.283,4.48,1.262c3.936-2.586-0.236-7.344-2.929-8.902
								c-0.856-0.496-2.771,0.664-1.688,1.291c1.856,1.074,4.595,3.455,3.774,5.841c-0.412,1.198-1.444-0.058-1.699-0.66
								c-0.256-0.607-0.289-1.339-0.317-1.984c-0.048-1.056,0.023-2.106-0.112-3.157c-0.127-0.977-2.213-0.53-2.213,0.372
								c-0.003,2.243-0.563,5.585-1.861,7.444c-0.362,0.518,1.093,0.264,0.793-0.119c-0.204-0.261-0.309-0.586-0.308-0.911
								c0.004-0.966,0.468-1.964,0.813-2.847c0.659-1.691,1.555-3.303,2.123-5.029C169.81,195.145,167.614,195.141,167.3,196.096
								L167.3,196.096z"/>
						</g>
					</g>
				</g>
				<g>
					<g>
						<path fill="#EEF3C7" d="M183.272,232.72c2.895-4.522,7.807-6.973,10.298-11.821c2.553-4.97,1.048-11.638,0.149-16.801
							c-1.955-11.251-7.824-17.85-17.447-23.664c-6.467-3.908-12.707-7.205-20.443-6.03c-6.543,0.993-12.065,5.237-16.09,10.284
							c-8.699,10.908-12.865,30.203-4.284,42.333c10.387,14.684,32.155,16.174,46.655,6.94c1.503-0.956-1.967-0.702-2.668-0.256
							c-14.594,9.292-36.781,3.724-43.246-12.837c-4.599-11.776-0.674-26.552,6.678-36.328c4.08-5.426,9.971-9.471,16.985-8.741
							c7.274,0.757,15.261,6.614,20.778,11.106c7.318,5.956,9.088,13.834,10.4,22.723c0.814,5.516,0.524,10.877-3.201,15.298
							c-2.541,3.015-5.793,4.946-7.963,8.339C179.515,233.826,182.7,233.614,183.272,232.72L183.272,232.72z"/>
					</g>
				</g>
			</g>
		</g>
	</g>
</g>
</svg>
