<?xml version="1.0" encoding="utf-8"?>
<!-- Generator: Adobe Illustrator 16.0.3, SVG Export Plug-In . SVG Version: 6.00 Build 0)  -->
<!DOCTYPE svg PUBLIC "-//W3C//DTD SVG 1.1//EN" "http://www.w3.org/Graphics/SVG/1.1/DTD/svg11.dtd">
<svg version="1.1" id="Ebene_1" xmlns="http://www.w3.org/2000/svg" xmlns:xlink="http://www.w3.org/1999/xlink" x="0px" y="0px"
	 width="450px" height="450px" viewBox="0 0 450 450" enable-background="new 0 0 450 450" xml:space="preserve">
<g id="tomatoes">
	<g>
		<g>
			<g opacity="0.9">
				<path fill="#FA2222" d="M208.329,217.573c-8.997,13.735-11.447,24.864-1.534,39.058c10.163,15.557,26.109,18.245,44.277,17.721
					c36.211-0.19,63.699-41.768,41.885-74.85c-12.764-19.011-33.537-25.031-55.271-14.857c-7.039,2.979-12.214,11.519-17.888,17.334
					c-4.688,5.077-8.509,10.275-11.96,15.965"/>
			</g>
			<g>
				<path fill="#F75F5F" d="M208.632,250.963c-18.013-9.447,15.007-49.096,24.103-55.942c10.699-8.055,23.818-19.577,36.504-9.407
					c5.81,5.489,9.479,12.589,14.751,18.477c5.272,5.892,9.104,8.758,9.704,17.347c0.662,17.576-10.51,35.027-24.678,44.048
					c-8.813,4.992-14.927,4.666-24.479,1.996c-8.086-2.948-18.06-2.836-26.151-5.785c-4.901-2.063-9.918-6.499-11.079-11.383"/>
			</g>
			<g>
				<path fill="#FA2222" d="M242.328,202.708c-0.462,8.463,7.396,14.932,14.974,16.489c0.876-6.214-7.811-17.184-14.43-16.9"/>
			</g>
			<g>
				<path fill="#FA2222" d="M230.891,218.151c5.271,7.564,11.144,10.83,20.006,6.72c-4.783-4.085-14.899-13.554-20.756-6.583"/>
			</g>
			<g>
				<path fill="#FA2222" d="M219.866,234.139c3.631,8.797,17.282,10.479,23.961,4.598c-5.604-5.176-18.725-14.093-24.234-4.392"/>
			</g>
			<g>
				<path fill="#FA2222" d="M254.217,239.025c-2.115,8.526,9.746,15.069,16.902,13.949l0,0l0,0
					c-1.711-5.111-8.984-20.441-15.963-14.121"/>
			</g>
			<g>
				<path fill="#FA2222" d="M260.854,230.553c4.713,6.999,11.293,16.475,20.955,15.305l0,0c-2.402-5.403-3.037-12.144-8.98-14.883
					c-2.664-1.324-10.203-1.754-11.352-0.334"/>
			</g>
			<g>
				<path fill="#FA2222" d="M266.958,219.745c7.411,4.74,13.542,6.289,20.978,0.601l0,0c-6.803-1.979-13.76-5.952-20.426-0.723"/>
			</g>
			<g>
				<g>
					<path fill="#FBA955" d="M232.188,226.486c-7.823,3.382-2.396-8.917,0.836-0.403"/>
				</g>
				<g>
					<path fill="#FBA955" d="M236.156,219.732c-8.633,1.537,0.082-6.748,0.555-0.081"/>
				</g>
				<g>
					<path fill="#FBA955" d="M239.838,213.866c-7.234,1.051,0.947-9.403,0.277,0.239"/>
				</g>
				<g>
					<path fill="#FBA955" d="M243.521,207.995c-5.514-3.689,5.636-6.433,0.836-0.401"/>
				</g>
				<g>
					<path fill="#FBA955" d="M234.35,231.225c-1.387-0.08-5.842,0.567-5.317,3.299c1.069,3.217,5.565-0.809,5.862-2.254"/>
				</g>
				<g>
					<path fill="#FBA955" d="M237.334,237.248c-1.689,1.93-3.678,5.309-5.607,4.184c1.42-2.73,3.66-4.182,5.896-5.068"/>
				</g>
				<g>
					<path fill="#FBA955" d="M251.061,204.936C257.785,200.027,248.68,194.894,251.061,204.936"/>
				</g>
				<g>
					<path fill="#FBA955" d="M258.537,206.936c1.966-1.69,2.824-3.78,1.174-5.222c-2.514,1.206-1.441,4.419-1.738,5.868"/>
				</g>
				<g>
					<path fill="#FBA955" d="M255.305,244.461c0.809,1.848,1.902,3.374,3.85,3.371c-0.258-1.93-1.639-2.572-3.301-2.891"/>
				</g>
				<g>
					<path fill="#FBA955" d="M260.359,239.795c1.658,0.883,3.555,4.818,5.521,3.127c3.076-1.848-2.172-4.175-4.693-2.402"/>
				</g>
				<g>
					<path fill="#FBA955" d="M266.559,232.72c7.449,4.25,7.265-3.305-0.283,0.32"/>
				</g>
				<g>
					<path fill="#FBA955" d="M270.813,225.645C277.695,230.538,276.412,222.024,270.813,225.645"/>
				</g>
				<g>
					<path fill="#FBA955" d="M273.105,219.695c6.625,3.529,7.58-6.434-0.559,0.08"/>
				</g>
				<g>
					<path fill="#FBA955" d="M269.84,213.995c2.221,0.238,5.008-0.729,6.152-3.142c2.273-4.259-3.616,0.247-4.754,2.66"/>
				</g>
				<g>
					<path fill="#FBA955" d="M251.951,246.07c0.801,2.408-0.619,5.143-2.857,6.592c-1.367-1.768,0.336-4.82,2.301-6.512"/>
				</g>
			</g>
		</g>
		<path opacity="0.9" fill="#FA2222" enable-background="new    " d="M231.688,250.084c-3.816,3.447-9.016-1.736-10.155-5.021
			c-0.97-2.793-0.814-5.998-0.854-8.906c-0.035-2.518-0.373-5.059-0.325-7.569c0.065-3.429,2.112-6.575,3.983-9.288
			c3.38-4.906,6.466-10.09,10.464-14.524c3.031-3.361,6.845-6.078,11.119-7.58c4.666-1.642,9.884-0.189,14.39,1.21
			c7.674,2.388,1.39,8.743-1.889,11.856c-3.271,3.109-6.156,6.028-8.699,9.798c-4.033,5.976-6.769,12.729-11.459,18.267
			c-2.881,3.399-6.199,7.055-6.666,11.67c-0.082,0.815,1.574,0.575,1.646-0.136c0.447-4.407,3.627-7.836,6.373-11.082
			c2.863-3.383,5.043-7.18,7.219-11.032c2.389-4.229,4.775-8.421,7.893-12.176c1.947-2.345,4.472-4.263,6.646-6.395
			c2.578-2.532,6.297-6.634,3.084-10.049c-1.937-2.059-5.896-2.764-8.479-3.218c-4.213-0.74-7.947-0.633-11.996,0.792
			c-6.412,2.255-11.797,8.319-15.403,13.825c-3.93,6-9.753,12.074-9.897,19.619c-0.106,5.602-0.424,13.758,2.804,18.588
			c2.339,3.498,8.45,4.615,11.56,1.806C233.789,249.863,232.199,249.622,231.688,250.084L231.688,250.084z"/>
		<path opacity="0.9" fill="#FA2222" enable-background="new    " d="M246.051,252.169c8.786-4.997,11.594-15.41,16.033-23.815
			c3.189-6.04,5.245-12.669,8.621-18.585c5.59-9.787,9.127,2.399,9.941,6.333c2.604,12.561,1.063,23.596-7.437,33.686
			c-4.694,5.574-10.229,8.191-17.269,6.878c-1.354-0.252-12.104-2.437-9.36-5.244c0.438-0.448-1.177-0.312-1.5,0.021
			c-3.804,3.894,13.791,7.224,16.504,6.635c15.656-3.4,23.808-22.159,21.612-36.703c-0.896-5.937-3.272-21.878-12.241-13.861
			c-2.373,2.123-3.706,5.914-4.804,8.794c-1.756,4.607-3.971,9.028-6.27,13.379c-4.119,7.799-6.65,17.453-14.814,22.099
			C244.115,252.327,245.578,252.438,246.051,252.169L246.051,252.169z"/>
		<g>
			<g opacity="0.9">
				<path fill="#FA2222" d="M146.824,227.863c-7.735,11.807-9.84,21.371-1.32,33.574c8.736,13.367,22.445,15.68,38.06,15.229
					c31.128-0.164,54.754-35.9,36.004-64.34c-10.973-16.339-28.83-21.512-47.511-12.769c-6.051,2.561-10.5,9.9-15.378,14.902
					c-4.029,4.364-7.314,8.831-10.279,13.725"/>
			</g>
			<g>
				<path fill="#F75F5F" d="M143.04,245.845c2.102,8.339,8.381,14.183,15.905,17.796c9.565,4.662,18.792,7.209,29.274,6.438
					c8.397-0.499,17.192-5.178,22.789-11.333c5.332-5.955,7.746-12.733,8.043-20.937c0.25-6.879-0.801-14.934-3.142-21.37
					c-2.768-7.836-12.689-11.586-19.869-13.083c-3.897-0.735-7.156-1.734-11.019-0.766c-3.969,0.831-8.071,1.761-11.654,3.38
					c-8.306,3.664-15.044,10.247-20.836,16.979c-3.508,3.936-5.046,8.548-7.432,13.146c-0.948,1.794-1.126,3.222-1.6,5.087
					c-0.311,1.529-1.657,3.623-0.622,5"/>
			</g>
			<path opacity="0.9" fill="#FA2222" enable-background="new    " d="M151.295,251.102c4.08,3.85,11.035,9.182,16.829,9.73
				c3.77,0.357,7.414,1.076,11.206,0.9c4.328-0.197,8.281-2.437,12.747-2.566c4.933-0.145,8.94-1.449,12.102-5.348
				c2.959-3.646,7.012-12.135,5.16-16.908c-1.03-2.654-6.341-1.141-8.128-0.68c-1.725,0.445-3.4,1.108-5.054,1.767
				c-6.448,2.558-12.789,3.347-19.625,3.72c-3.702,0.203-29.294,1.52-25.269,9.342c0.144,0.281,1.196-0.108,1.102-0.295
				c-3.816-7.418,25.292-8.668,29.402-8.854c3.959-0.18,7.622-1.169,11.358-2.419c3.947-1.319,10.857-5.355,14.694-2.798
				c3.132,2.087-1.278,10.839-2.39,13.332c-2.367,5.313-6.656,8.344-12.882,8.684c-1.681,0.092-3.622-0.078-5.272,0.398
				c-7.232,2.094-15.464,3.014-22.627-0.063c-4.25-1.82-8.972-5.165-12.316-8.324C152.116,250.518,151.116,250.93,151.295,251.102
				L151.295,251.102z"/>
			<path opacity="0.9" fill="#FA2222" enable-background="new    " d="M155.585,237.732c2.226,0.776,4.083,0.459,6.314-0.229
				c4.656-1.437,8.227-3.989,13.208-4.841c7.87-1.344,15.986-0.646,23.892-1.665c4.989-0.644,9.577-2.636,11.931-7.275
				c1.75-3.45-0.038-6.64-3.409-8.036c-9.533-3.949-22.503-2.709-31.772,1.036c-6.184,2.499-11.838,6.802-16.358,11.667
				c-1.531,1.646-6.98,7.355-3.359,9.262c0.411,0.216,1.384-0.342,0.854-0.623c-3.341-1.758,3.494-8.48,4.944-9.908
				c5.264-5.181,11.626-9.088,18.666-11.304c7.562-2.381,18.08-2.381,25.632,0.282c5.134,1.809,5.196,6.329,1.991,10.203
				c-3.883,4.691-12.117,4.32-17.634,4.505c-5.648,0.189-11.401,0.418-16.975,1.369c-5.394,0.922-11.806,6.744-17.281,4.837
				C155.773,236.852,154.932,237.504,155.585,237.732L155.585,237.732z"/>
			<g>
				<g>
					<path fill="#FBA955" d="M167.048,224.708c-7.792-3.093,4.892-7.194,0.866,0.306"/>
				</g>
				<g>
					<path fill="#FBA955" d="M174.689,223.118c-6.995-4.796,4.994-4.185,0.438,0.32"/>
				</g>
				<g>
					<path fill="#FBA955" d="M181.486,221.89c-5.691-4.166,7.519-5.27,0.013,0.335"/>
				</g>
				<g>
					<path fill="#FBA955" d="M188.282,220.66c-1.049-5.991,8.54-0.277,0.866,0.306"/>
				</g>
				<g>
					<path fill="#FBA955" d="M165.057,229.126c-0.887-0.974-4.39-3.54-6.03-1.476c-1.622,2.731,4.377,3.205,5.637,2.492"/>
				</g>
				<g>
					<path fill="#FBA955" d="M162.684,234.896c-2.563,0.086-6.382,0.881-6.875-1.111c2.966-0.77,5.55-0.184,7.716,0.748"/>
				</g>
				<g>
					<path fill="#FBA955" d="M195.652,223.769C203.818,225.175,201.375,215.879,195.652,223.769"/>
				</g>
				<g>
					<path fill="#FBA955" d="M199.274,230.012c2.573,0.25,4.686-0.488,4.62-2.494c-2.596-0.92-4.214,1.813-5.476,2.523"/>
				</g>
				<g>
					<path fill="#FBA955" d="M169.637,251.414c-0.8,1.697-1.172,3.385,0.155,4.681c1.233-1.38,0.764-2.702-0.135-4.015"/>
				</g>
				<g>
					<path fill="#FBA955" d="M176.488,251.857c0.483,1.658-1.104,5.395,1.468,5.645c3.447,0.891,1.577-4.07-1.435-4.641"/>
				</g>
				<g>
					<path fill="#FBA955" d="M185.879,251.549c1.958,7.641,7.357,2.771-0.428,0.014"/>
				</g>
				<g>
					<path fill="#FBA955" d="M193.948,249.945C195.053,257.613,200.404,251.405,193.948,249.945"/>
				</g>
				<g>
					<path fill="#FBA955" d="M199.856,247.742c1.93,6.634,9.863,1.014-0.436-0.321"/>
				</g>
				<g>
					<path fill="#FBA955" d="M201.804,241.984c1.335,1.632,3.943,2.884,6.481,2.132c4.663-1.159-2.64-2.257-5.179-1.503"/>
				</g>
				<g>
					<path fill="#FBA955" d="M166.176,250.188c-1.214,2.051-4.179,2.816-6.764,2.232c0.363-2.023,3.755-2.805,6.328-2.553"/>
				</g>
			</g>
			<g opacity="0.9">
				<path fill="#FA2222" d="M165.605,244.994c1.202,4.443,10.38,4.313,13.972,4.82c6.613,0.729,12.423-1.506,16.802-6.586
					c-8.101-4.603-23.999-1.553-31.401,1.881"/>
			</g>
			<g opacity="0.9">
				<path fill="#FA2222" d="M168.658,231.993c3.708,1.133,7.181-0.412,10.543-1.159c4.898-1.549,10.201-1.613,14.47-4.473
					c-9.245-6.595-18.301-2.987-24.557,5.287"/>
			</g>
		</g>
	</g>
</g>
</svg>
