<?xml version="1.0" encoding="utf-8"?>
<!-- Generator: Adobe Illustrator 16.0.0, SVG Export Plug-In . SVG Version: 6.00 Build 0)  -->
<!DOCTYPE svg PUBLIC "-//W3C//DTD SVG 1.1//EN" "http://www.w3.org/Graphics/SVG/1.1/DTD/svg11.dtd">
<svg version="1.1" id="Ebene_1" xmlns="http://www.w3.org/2000/svg" xmlns:xlink="http://www.w3.org/1999/xlink" x="0px" y="0px"
	 width="450px" height="450px" viewBox="0 0 450 450" enable-background="new 0 0 450 450" xml:space="preserve">
<g>
	<path opacity="0.3" d="M381.327,254.525c2.242-25.719-5.908-53.507-20.173-74.319c-9.926-14.486-24.553-28.002-40.34-34.79
		c-5.854-2.518-13.119-4.829-19.303-2.197c-6.81-2.193-14.107-2.544-20.889-0.028c-6.125,2.27-10.572,9.715-8.078,16.623
		c4.316,11.952,12.715,20.475,21.098,29.31c4.168,4.396,5.76,6.135,8.707,11.204c0.539,0.927,1.063,1.928,1.574,2.958
		c-0.375,0.743-0.693,1.519-0.949,2.325c-10.053,32.037-22.096,64.861-47.336,86.229c-14.23,12.046-28.473,18.904-46.171,23.157
		c-4.591,1.103-6.492,1.428-10.521,2.086c-4.238,0.692-8.498,1.252-12.752,1.793c-8.881,1.129-17.779,2.095-26.645,3.344
		c-4.385,0.618-7.688,3-9.658,6.143c-0.506-0.325-1.004-0.658-1.502-0.992c-0.098-0.066-0.164-0.11-0.246-0.165
		c-0.131-0.116-0.301-0.265-0.558-0.479c-0.778-0.65-1.499-1.372-2.214-2.097c-0.176-0.201-0.307-0.346-0.413-0.463
		c-0.157-0.232-0.327-0.453-0.474-0.691c-3.861-5.945-11.359-8.07-17.234-4.092c-5.566,3.768-21.99-1.828-18.113,4.134
		c7.4,11.392,33.607,31.302,45.416,35.989c4.166,1.655,8.436,3.056,12.76,4.258c3.875,1.221,7.852,2.146,11.88,2.887
		c8.181,1.923,16.581,2.936,25.187,3.123c8.892,0.194,25.506,1.943,34.377,1.182c7.738,2.371,8.234,1.203,15.66,2.137
		c16.459,2.07,32.365,2.381,47.463-5.705c1.98-1.061,3.873-2.297,5.705-3.644c11.153-5.26,21.385-5.722,30.648-14.548
		c9.766-3.602,19.758-15.983,23.414-25.771c3.965-2.324,7.084-5.958,8.158-11.146c0.906-4.374,0.42-8.526-1.018-12.341
		c4.693-9.967,8.245-20.45,10.434-31.122c2.84-4.046,3.385-8.88,1.959-12.944C381.227,255.422,381.287,254.974,381.327,254.525z"/>
	<path fill="#D7975D" d="M73.805,252.641c0-13.312,4.102-25.868,9.117-37.731c4.996-11.821,13.033-21.739,22.127-31.379
		c8.689-9.211,18.841-16.55,30.482-23.108c11.007-6.2,21.597-14.901,34.573-18.167c12.229-3.078,25.669-2.303,39.087-2.303
		s26.227,1.736,38.454,4.813c12.977,3.266,25.286,7.525,36.294,13.726c11.641,6.558,21.064,15.489,29.753,24.701
		c9.094,9.641,18.126,19.325,23.122,31.147c5.014,11.863,6.607,24.99,6.607,38.302s-3.152,25.78-8.166,37.645
		c-4.997,11.821-10.875,23.669-19.969,33.31c-8.689,9.213-20.205,15.754-31.848,22.313c-11.006,6.2-22.781,11.484-35.758,14.75
		c-12.229,3.077-25.071,3.928-38.49,3.928c-13.418,0-26.434-0.158-38.662-3.235c-12.979-3.267-24.107-10.078-35.115-16.279
		c-11.641-6.559-22.996-12.861-31.686-22.073c-9.092-9.641-16.678-20.438-21.674-32.26
		C77.039,278.875,73.805,265.953,73.805,252.641z"/>
	<g>
		<defs>
			<polygon id="SVGID_1_" points="256.151,322.921 373.959,194.622 329.063,335.198 265.809,365.856 162.981,378.802 
				186.789,378.802 			"/>
		</defs>
		<clipPath id="SVGID_2_">
			<use xlink:href="#SVGID_1_"  overflow="visible"/>
		</clipPath>
		<path clip-path="url(#SVGID_2_)" fill="#B17746" d="M73.805,252.641c0-13.312,4.102-25.868,9.117-37.731
			c4.996-11.821,13.033-21.739,22.127-31.379c8.689-9.211,18.841-16.55,30.482-23.108c11.007-6.2,21.597-14.901,34.573-18.167
			c12.229-3.078,25.669-2.303,39.087-2.303s26.227,1.736,38.454,4.813c12.977,3.266,25.286,7.525,36.294,13.726
			c11.641,6.558,21.064,15.489,29.753,24.701c9.094,9.641,18.126,19.325,23.122,31.147c5.014,11.863,6.607,24.99,6.607,38.302
			s-3.152,25.78-8.166,37.645c-4.997,11.821-10.875,23.669-19.969,33.31c-8.689,9.213-20.205,15.754-31.848,22.313
			c-11.006,6.2-22.781,11.484-35.758,14.75c-12.229,3.077-25.071,3.928-38.49,3.928c-13.418,0-26.434-0.158-38.662-3.235
			c-12.979-3.267-24.107-10.078-35.115-16.279c-11.641-6.559-22.996-12.861-31.686-22.073c-9.092-9.641-16.678-20.438-21.674-32.26
			C77.039,278.875,73.805,265.953,73.805,252.641z"/>
	</g>
	<path fill="#8D5A32" d="M75.35,232.131c0-13.234,3.402-25.567,8.387-37.361c4.969-11.752,11.511-22.797,20.55-32.381
		c8.639-9.158,18.071-18.536,29.646-25.056c10.943-6.165,23.524-10.518,36.426-13.765c12.158-3.06,25.223-4.09,38.563-4.09
		s26.201,1.835,38.357,4.895c12.902,3.247,26.049,6.152,36.992,12.317c11.574,6.52,20.65,16.536,29.287,25.694
		c9.041,9.584,16.457,20.262,21.424,32.015c4.984,11.795,7.023,24.5,7.023,37.733c0,13.234-2.129,25.902-7.113,37.697
		c-4.967,11.752-13.705,21.135-22.744,30.719c-8.639,9.158-17.621,18.166-29.195,24.686c-10.941,6.165-22.244,13.5-35.146,16.746
		c-12.158,3.06-25.545,2.672-38.885,2.672s-26.453-0.7-38.611-3.76c-12.902-3.246-24.391-9.646-35.334-15.811
		c-11.574-6.52-21.441-14.621-30.078-23.779c-9.041-9.585-16.135-20.078-21.104-31.832C78.809,257.675,75.35,245.365,75.35,232.131z
		"/>
	<g>
		<path fill="#6D4A2E" d="M74.948,227.011c0-2.322,1.291-4.557,1.457-6.845c0.166-2.313-2.285-4.928-1.954-7.201
			c0.333-2.291,1.808-4.457,2.302-6.703c0.496-2.259,3.379-3.86,4.033-6.069c0.656-2.214-0.955-5.151-0.146-7.312
			s0.591-4.85,1.548-6.952c0.955-2.097,3.918-3.27,5.015-5.305c1.093-2.026,3.308-3.347,4.538-5.307
			c1.221-1.949,2.705-3.614,4.057-5.494c1.342-1.867,1.379-4.678,2.844-6.472c1.453-1.78,1.773-4.621,3.344-6.325
			c1.557-1.69,5.391-1.175,7.059-2.786c1.65-1.597,2.627-3.866,4.381-5.382c1.738-1.501,4.381-1.809,6.216-3.227
			c1.817-1.404,1.671-5.49,3.577-6.809c1.889-1.306,4.289-1.953,6.262-3.172c1.953-1.207,4.586-1.278,6.618-2.396
			c2.012-1.107,4.243-1.729,6.327-2.745c2.064-1.006,4.012-2.19,6.143-3.105c2.109-0.905,4.121-2.007,6.295-2.819
			c2.148-0.804,4.111-2.164,6.318-2.874c2.186-0.702,4.707-0.24,6.945-0.848c2.215-0.601,4.287-1.699,6.551-2.204
			c2.24-0.5,4.204-2.533,6.488-2.936c2.262-0.398,4.887,1.489,7.188,1.188c2.275-0.298,4.383-2.136,6.695-2.335
			c2.287-0.198,4.602-0.562,6.921-0.662c2.292-0.098,4.63,2.134,6.952,2.134c2.321,0,4.59-0.648,6.881-0.55
			c2.32,0.1,4.783-2.056,7.07-1.858c2.313,0.2,4.746-0.141,7.021,0.157c2.301,0.301,4.359,2.429,6.621,2.828
			c2.285,0.403,4.787-0.169,7.029,0.331c2.264,0.505,4.742,0.402,6.957,1.003c2.24,0.607,4.162,2.465,6.349,3.167
			c2.208,0.709,3.911,2.841,6.062,3.645c2.174,0.812,4.297,1.626,6.407,2.532c2.132,0.915,4.2,1.86,6.265,2.866
			c2.084,1.017,4.711,0.96,6.722,2.067c2.032,1.118,3.293,3.522,5.245,4.729c1.975,1.219,5.42,0.213,7.309,1.52
			c1.907,1.319,3.758,2.86,5.574,4.264c1.834,1.418,1.615,5.344,3.352,6.845c1.756,1.516,4.584,1.793,6.234,3.39
			c1.666,1.611,3.132,3.418,4.689,5.107c1.568,1.704,2.827,3.657,4.281,5.438c1.465,1.793,4.215,2.635,5.557,4.501
			c1.352,1.879,1.563,4.572,2.783,6.521c1.229,1.959,3.061,3.595,4.156,5.621c1.095,2.034,1.975,4.228,2.928,6.325
			c0.958,2.102,1.965,4.232,2.773,6.392s-1.066,5.173-0.412,7.388c0.655,2.208,5.18,3.428,5.677,5.686
			c0.493,2.247,0.655,4.704,0.987,6.995c0.331,2.273-1.04,4.813-0.875,7.126c0.166,2.288-1.619,4.604-1.619,6.926
			c0,2.323,0.83,4.57,0.664,6.859c-0.166,2.313,0.627,4.699,0.295,6.973c-0.332,2.291,0.937,4.948,0.441,7.195
			c-0.495,2.259-1.955,4.378-2.609,6.587c-0.655,2.214-3.412,3.727-4.221,5.887c-0.807,2.16,0.759,5.327-0.199,7.429
			c-0.955,2.097-2.035,4.259-3.13,6.292c-1.094,2.027-3.601,3.301-4.829,5.262c-1.223,1.949-1.029,4.935-2.38,6.814
			c-1.343,1.866-3.188,3.488-4.653,5.281c-1.455,1.779-3.057,3.557-4.627,5.26c-1.557,1.689-5.623,0.918-7.289,2.529
			c-1.65,1.597-2.131,4.393-3.885,5.908c-1.738,1.501-2.57,4.168-4.403,5.586c-1.817,1.404-4.608,1.537-6.515,2.855
			c-1.887,1.307-4.082,2.113-6.053,3.332c-1.953,1.207-4.445,1.375-6.477,2.494c-2.012,1.106-3.451,3.197-5.535,4.213
			c-2.064,1.007-3.482,3.461-5.613,4.375c-2.109,0.905-4.49,1.242-6.664,2.054c-2.15,0.804-4.398,1.396-6.605,2.106
			c-2.186,0.701-3.961,2.988-6.199,3.596c-2.216,0.601-4.48,1.424-6.744,1.928c-2.24,0.5-5.025-1.471-7.311-1.068
			c-2.26,0.398-4.727-0.809-7.027-0.508c-2.275,0.299-4.385,1.678-6.695,1.877c-2.287,0.199-4.443,2.942-6.762,3.042
			c-2.293,0.099-4.676-1.788-6.998-1.788s-4.566-1.316-6.859-1.414c-2.318-0.1-4.816,2.747-7.104,2.549
			c-2.313-0.199-4.359-2.861-6.635-3.159c-2.302-0.301-5.02,2.044-7.279,1.646c-2.285-0.403-3.896-4.17-6.137-4.67
			c-2.264-0.505-5.023,1.119-7.238,0.518c-2.24-0.607-4.254-1.99-6.439-2.693c-2.209-0.709-4.424-1.367-6.575-2.171
			c-2.173-0.812-4.817-0.508-6.927-1.413c-2.131-0.914-2.86-4.831-4.924-5.838c-2.086-1.016-5.908,1.341-7.919,0.234
			c-2.032-1.119-4.03-2.459-5.983-3.666c-1.973-1.219-2.76-4.301-4.646-5.606c-1.908-1.319-2.787-3.921-4.604-5.325
			c-1.835-1.419-5.058-1.055-6.796-2.557c-1.754-1.516-2.596-3.995-4.246-5.592c-1.666-1.611-5.408-1.232-6.965-2.922
			c-1.57-1.704-1.391-4.985-2.846-6.766c-1.465-1.793-2.767-3.682-4.109-5.548c-1.352-1.88-1.49-4.488-2.713-6.437
			c-1.229-1.961-4.047-2.936-5.139-4.962c-1.098-2.034-3.662-3.42-4.616-5.517c-0.958-2.102-0.589-4.845-1.397-7.004
			c-0.809-2.16-2.709-4.043-3.365-6.256c-0.653-2.209-0.244-4.789-0.741-7.047c-0.493-2.246-0.405-4.64-0.737-6.932
			c-0.33-2.272,0.914-4.688,0.748-7.001C76.563,231.547,74.948,229.334,74.948,227.011z"/>
		<path fill="#4C311E" d="M182.084,339.01c2.021-0.256,4.279-1.909,6.238-1.653c2.275,0.298,4.322,2.96,6.635,3.159
			c2.287,0.198,4.785-2.648,7.104-2.549c2.293,0.098,4.537,1.414,6.859,1.414s4.705,1.887,6.998,1.788
			c2.318-0.1,4.475-2.843,6.762-3.042c2.311-0.199,4.42-1.578,6.695-1.877c2.301-0.301,4.768,0.906,7.027,0.508
			c2.285-0.402,5.07,1.568,7.311,1.068c2.264-0.504,4.528-1.327,6.744-1.928c2.238-0.607,4.014-2.895,6.199-3.596
			c2.207-0.711,4.455-1.303,6.605-2.106c2.174-0.812,4.555-1.148,6.664-2.054c2.131-0.914,3.549-3.368,5.613-4.375
			c2.084-1.016,3.523-3.106,5.535-4.213c2.031-1.119,4.523-1.287,6.477-2.494c1.971-1.219,4.166-2.025,6.053-3.332
			c1.906-1.318,4.697-1.451,6.515-2.855c1.833-1.418,2.665-4.085,4.403-5.586c1.754-1.516,2.234-4.312,3.885-5.908
			c1.666-1.611,5.732-0.84,7.289-2.529c1.57-1.703,3.172-3.48,4.627-5.26c1.465-1.793,3.311-3.415,4.653-5.281
			c1.351-1.88,1.157-4.865,2.38-6.814c1.229-1.961,3.735-3.234,4.829-5.262c1.095-2.033,2.175-4.195,3.13-6.292
			c0.958-2.102-0.607-5.269,0.199-7.429c0.809-2.16,3.565-3.673,4.221-5.887c0.654-2.209,2.114-4.328,2.609-6.587
			c0.495-2.247-0.773-4.904-0.441-7.195c0.332-2.273-0.461-4.66-0.295-6.973c0.166-2.289-0.664-4.536-0.664-6.859
			c0-2.322,1.785-4.638,1.619-6.926c-0.165-2.313,1.206-4.853,0.875-7.126c-0.332-2.291-0.494-4.748-0.987-6.995
			c-0.497-2.258-5.021-3.478-5.677-5.686c-0.398-1.356,0.146-3.011,0.446-4.587C294.692,234.29,220.039,303.668,182.084,339.01z"/>
	</g>
	<path fill="#F1CD36" d="M89.971,234.922c7.738,12.552,21.046,34.827,28.365,46.814c6.063,9.926,25.699,46.685,30.277,57.403
		c18.893-21.85,136.342-63.789,156.102-71.084c0,0,5.504-107.848-12.52-117.445"/>
	<path fill="#D5A725" d="M155.168,227.517c7.738,12.553-10.598,5.724-3.277,17.711c6.063,9.926,0,76.403-3.277,93.911
		c18.893-21.85,136.342-63.789,156.102-71.084c0,0,5.504-107.848-12.52-117.445"/>
	<path fill="#D5A725" d="M89.971,234.922c7.738,12.552,67.156-19.896,74.476-7.909c6.062,9.926,108.438,45.059,113.017,55.777
		c7.076-2.995,46.938-23.462,76.858-16.453c0,0-34.138-112.634-52.163-122.231"/>
	<path fill="#DF5A2B" d="M123.916,321.131c0,3.042-2.466,5.509-5.508,5.509l0,0c-3.043,0-5.508-2.467-5.508-5.509v-68.022
		c0-3.042,2.465-5.509,5.508-5.509l0,0c3.042,0,5.508,2.467,5.508,5.509V321.131z"/>
	<path fill="#A43C20" d="M117.332,294.517c2.393,7.747,4.574,15.592,6.584,23.462v-64.871c0-3.042-2.466-5.509-5.508-5.509
		c-3.043,0-5.508,2.467-5.508,5.509v25.891C114.231,284.208,115.744,289.372,117.332,294.517z"/>
	<g>
		<path fill="#DF5A2B" d="M293.733,275.072c-0.15-2.838-1.762-5.5-4.988-6.002c-2.36-0.367-4.689-0.475-6.967-0.332
			c-0.236-0.184-0.48-0.364-0.742-0.527c-0.043-0.027-0.088-0.049-0.133-0.075c-0.463-0.408-0.986-0.788-1.59-1.127
			c-6.141-3.451-13.32-0.865-17.557,4.176c-2.6,2.126-4.753,4.773-6.103,7.601c-0.642,0.065-1.276,0.118-1.937,0.208
			c-1.068,0.146-2.147,0.297-3.232,0.452c-1.406-0.925-3.008-1.562-4.732-1.798c-1.055-0.145-2.074-0.162-3.063-0.088
			c-2.115-4.377-9.203-6.357-12.549-0.891c-0.516,0.843-0.984,1.771-1.402,2.756c-3.348,1.155-6.43,3.072-8.766,5.514
			c-6.998,7.312-4.557,18.324,3.354,23.74c2.168,1.485,4.58,2.213,7.062,2.399c2.181,0.956,4.567,1.288,6.996,1.17
			c1.265,2.082,3.204,3.484,5.45,4.282c0.021,0.048,0.039,0.095,0.059,0.143c1.484,3.292,5.072,5.758,8.734,5.569
			c1.475-0.076,2.758-0.463,3.881-1.074c5.25-0.521,9.156-4.293,11.184-9.207c0.445-0.247,0.869-0.541,1.27-0.874v30.667
			c0,3.042,2.467,5.509,5.51,5.509c3.041,0,5.508-2.467,5.508-5.509v-39.086c0.021-0.004,0.043-0.006,0.064-0.011
			c1.287-0.274,2.576-0.83,3.801-1.582c2.105-0.353,4.107-1.05,5.701-1.969c3.213-1.853,5.353-5.472,5.914-9.249
			c0.244-0.422,0.48-0.851,0.688-1.311C297.379,283.577,296.614,278.283,293.733,275.072z"/>
		<path fill="#A43C20" d="M293.733,275.072c-0.15-2.838-1.762-5.5-4.988-6.002c-2.36-0.367-4.689-0.475-6.967-0.332
			c-0.236-0.184-0.48-0.364-0.742-0.527c-0.043-0.027-0.088-0.049-0.133-0.075c-0.463-0.408-0.986-0.788-1.59-1.127
			c-6.141-3.451-13.32-0.865-17.557,4.176c-2.6,2.126-4.753,4.773-6.103,7.601c-0.642,0.065-1.276,0.118-1.937,0.208
			c-1.068,0.146-2.147,0.297-3.232,0.452c-1.406-0.925-3.008-1.562-4.732-1.798c-1.055-0.145-2.074-0.162-3.063-0.088
			c-2.115-4.377-9.203-6.357-12.549-0.891c-0.516,0.843-0.984,1.771-1.402,2.756c-3.348,1.155-6.43,3.072-8.766,5.514
			c-6.998,7.312-4.557,18.324,3.354,23.74c2.168,1.485,4.58,2.213,7.062,2.399c2.181,0.956,4.567,1.288,6.996,1.17
			c1.265,2.082,3.204,3.484,5.45,4.282c0.021,0.048,0.039,0.095,0.059,0.143c1.484,3.292,5.072,5.758,8.734,5.569
			c1.475-0.076,2.758-0.463,3.881-1.074c5.25-0.521,9.156-4.293,11.184-9.207c0.445-0.247,0.869-0.541,1.27-0.874l11.018,28.688
			v-37.106c0.021-0.004,0.043-0.006,0.064-0.011c1.287-0.274,2.576-0.83,3.801-1.582c2.105-0.353,4.107-1.05,5.701-1.969
			c3.213-1.853,5.353-5.472,5.914-9.249c0.244-0.422,0.48-0.851,0.688-1.311C297.379,283.577,296.614,278.283,293.733,275.072z"/>
	</g>
	<g>
		<path fill="#683D7F" d="M260.787,301.239c-33.154,9.047-66.486-6.068-76.881-34.005c0.27,1.51,0.605,3.018,1.016,4.52
			c8.385,30.731,43.441,47.928,78.301,38.415c34.861-9.512,56.322-42.131,47.938-72.861c-0.41-1.503-0.887-2.972-1.422-4.409
			C314.975,262.243,293.942,292.193,260.787,301.239z"/>
		<path fill="#9159A9" d="M248.42,312.642c1.484-1.73,2.973-3.455,4.473-5.171c1.594-1.824,3.195-3.645,4.803-5.457
			c-32.113,7.321-63.717-7.711-73.789-34.78c0.27,1.51,0.605,3.018,1.016,4.52C192.115,298.115,218.936,314.517,248.42,312.642z"/>
		<path fill="#CFA7E4" d="M260.139,298.867c-40.982,11.183-68.137-12.123-78.533-40.06c0.27,1.509,0.607,3.017,1.018,4.521
			c8.385,30.729,43.439,47.925,78.3,38.412c34.86-9.511,56.323-42.131,47.938-72.859c-0.411-1.504-0.889-2.974-1.422-4.41
			C312.675,253.815,298.994,288.264,260.139,298.867z"/>
	</g>
	<g>
		<path fill="#96C84F" d="M203.959,286.015c-1.582-2.958-4.283-4.249-7.578-3.926c-0.684,0.066-1.368,0.078-2.055,0.067
			c-1.281-2.83-4.475-4.854-7.631-4.1c-1.92,0.458-3.855,0.693-5.798,0.765c-0.515-0.361-1.103-0.648-1.772-0.831
			c-5.805-1.576-11.699-2.775-17.547-4.173c-9.088-6.177-17.445-13.693-28.484-15.384c-0.996-0.916-1.955-1.856-2.857-2.835
			c-2.063-2.982-4.052-5.942-6.141-8.508c-1.148-1.408-2.613-2.132-4.135-2.335c-4.08-5.015-8.188-9.964-11.852-15.207
			c-2.496-4.539-4.893-9.172-7.732-13.455c-0.326-0.74-0.644-1.486-0.943-2.246c-5.652-14.329-3.955-30.244-9.838-44.553
			c-0.048-0.116-0.105-0.221-0.158-0.331c1.305-3.983,3.805-4.872-1.502-4.812c-9.42,0.106-22.033-1.209-27.537,8.727
			c-3.914,7.069-1.914,11.069,0.805,15.991c1.135,2.054,2.449,4.004,3.553,6.075c-0.274,0.519-1.063,2.256-1.297,2.724
			c-2.07,4.148-4.926,8.338-5.32,13.088c-0.43,5.169,3.268,8.923,6.699,12.199c1.992,1.903,3.918,3.384,6.259,4.812
			c0.009,0.006,0.015,0.01,0.022,0.015c-3.299,3.657-4.602,9.772-4.16,14.63c0.338,3.704,2.895,6.336,5.991,8.044
			c2.182,1.203,4.374,2.391,6.575,3.558c0.879,0.466,1.775,0.893,2.67,1.324c0.105,0.57,0.201,1.146,0.297,1.714
			c0.398,2.341,0.801,4.681,1.188,7.022c0.749,4.525,2.668,8.486,7.039,10.456c3.945,1.779,8.983,2.046,13.25,1.877
			c0.342-0.014,0.682-0.03,1.021-0.046c0.369,0.81,0.723,1.646,0.973,2.449c1.186,3.827,0.619,7.871,3.242,11.234
			c3.494,4.479,9.703,5.044,14.979,4.487c2.632-0.276,5.095-1.121,7.546-2.066c1.025,0.919,1.711,2.28,2.191,3.35
			c2.693,6.013,3.689,13.4,10.768,16.084c7.041,2.669,12.49-0.416,17.535-5.168c0.617-0.582,1.156-1.042,1.834-1.424
			c0.238-0.021,0.63,0,0.963,0.312c2.242,2.104,3.828,4.904,5.824,7.231c11.795,13.759,32.492,2.075,31.817-14.443
			c1.427-1.168,2.386-2.942,2.827-4.932C206.076,290.848,205.186,288.31,203.959,286.015z"/>
		<path fill="#83AE3A" d="M286.828,143.774c-0.904,2.368,0.121,4.364,2.674,5.767c0.531,0.291,1.022,0.613,1.5,0.948
			c-1.031,2.154-0.156,4.785,2.594,5.887c1.672,0.67,3.201,1.469,4.624,2.361c0.116,0.443,0.336,0.881,0.687,1.302
			c3.027,3.638,6.375,7.115,9.557,10.676c2.201,7.715,2.969,15.81,9.621,22.019c0.078,0.976,0.114,1.948,0.082,2.911
			c-0.584,2.612-1.201,5.175-1.48,7.572c-0.152,1.316,0.389,2.412,1.328,3.252c-0.547,4.683-1.029,9.344-2.025,13.953
			c-1.342,3.666-2.818,7.334-3.74,11.027c-0.275,0.56-0.563,1.118-0.871,1.673c-5.811,10.507-17.906,18.354-23.541,28.96
			c-0.043,0.086-0.074,0.17-0.113,0.256c-3.65,1.541-5.725,4.971-1.928,7.479c6.736,4.457,17.258,9.953,26.779,5.311
			c4.842-2.361,7.307-6.113,8.752-10.094c0.603-1.662,1.008-3.354,1.645-5.012c0.551-0.148,2.298-0.715,2.781-0.859
			c4.305-1.264,9.194-2.176,12.725-4.572c3.844-2.607,3.797-6.422,3.611-9.848c-0.106-1.991-0.455-3.719-1.134-5.618
			c-0.003-0.006-0.003-0.01-0.007-0.019c4.84-0.408,9.947-3.112,12.959-5.968c2.297-2.178,2.291-4.834,1.27-7.248
			c-0.719-1.698-1.459-3.395-2.217-5.086c-0.305-0.673-0.645-1.334-0.983-1.999c0.315-0.361,0.643-0.718,0.962-1.075
			c1.321-1.464,2.639-2.931,3.969-4.39c2.568-2.822,3.92-5.896,2.178-9.062c-1.572-2.86-4.955-5.418-8.09-7.371
			c-0.252-0.156-0.504-0.31-0.754-0.464c0.293-0.619,0.615-1.242,0.99-1.799c1.779-2.652,4.949-4.58,5.396-7.668
			c0.593-4.112-3.414-7.393-7.526-9.618c-2.053-1.11-4.374-1.831-6.755-2.491c-0.096-0.992,0.35-2.061,0.744-2.873
			c2.21-4.563,6.561-9.06,3.392-13.912c-3.155-4.826-9.122-5.757-15.946-5.588c-0.833,0.021-1.529,0.014-2.271-0.104
			c-0.181-0.102-0.446-0.301-0.468-0.63c-0.146-2.219,0.648-4.503,0.83-6.726c1.074-13.138-21.568-16.697-32.398-7.384
			c-1.81-0.047-3.701,0.459-5.377,1.33C288.639,140.131,287.531,141.937,286.828,143.774z"/>
		<path fill="#6E902A" d="M355.176,225.89c-0.719-1.698-1.459-3.395-2.217-5.086c-0.305-0.673-0.645-1.334-0.983-1.999
			c0.315-0.361,0.643-0.718,0.962-1.075c1.321-1.464,2.639-2.931,3.969-4.39c2.568-2.822,3.92-5.896,2.178-9.062
			c-1.025-1.863-2.819-3.595-4.812-5.118l-39.597,24.809c-0.92,2.487-1.803,4.978-2.428,7.48c-0.275,0.56-0.563,1.118-0.871,1.673
			c-5.811,10.507-17.906,18.354-23.541,28.96c-0.043,0.086-0.074,0.17-0.113,0.256c-3.65,1.541-5.725,4.971-1.928,7.479
			c6.736,4.457,17.258,9.953,26.779,5.311c4.842-2.361,7.307-6.113,8.752-10.094c0.603-1.662,1.008-3.354,1.645-5.012
			c0.551-0.148,2.298-0.715,2.781-0.859c4.305-1.264,9.194-2.176,12.725-4.572c3.844-2.607,3.797-6.422,3.611-9.848
			c-0.106-1.991-0.455-3.719-1.134-5.618c-0.003-0.006-0.003-0.01-0.007-0.019c4.84-0.408,9.947-3.112,12.959-5.968
			C356.203,230.961,356.198,228.304,355.176,225.89z"/>
		<path fill="#6E902A" d="M202.663,298.407c1.427-1.168,2.386-2.942,2.827-4.932c0.586-2.627-0.305-5.165-1.531-7.46
			c-1.582-2.958-4.283-4.249-7.578-3.926c-0.684,0.066-1.368,0.078-2.055,0.067c-1.281-2.83-4.475-4.854-7.631-4.1
			c-1.92,0.458-3.855,0.693-5.798,0.765c-0.515-0.361-1.103-0.648-1.772-0.831c-5.805-1.576-11.699-2.775-17.547-4.173
			c-9.088-6.177-17.445-13.693-28.484-15.384c-0.996-0.916-1.955-1.856-2.857-2.835c-2.063-2.982-4.052-5.942-6.141-8.508
			c-1.148-1.408-2.613-2.132-4.135-2.335c-1.021-1.255-2.043-2.505-3.061-3.758l-33.133,23.557c0.805,4.323,2.736,8.075,6.951,9.975
			c3.945,1.779,8.983,2.046,13.25,1.877c0.342-0.014,0.682-0.03,1.021-0.046c0.369,0.81,0.723,1.646,0.973,2.449
			c1.186,3.827,0.619,7.871,3.242,11.234c3.494,4.479,9.703,5.044,14.979,4.487c2.632-0.276,5.095-1.121,7.546-2.066
			c1.025,0.919,1.711,2.28,2.191,3.35c2.693,6.013,3.689,13.4,10.768,16.084c7.041,2.669,12.49-0.416,17.535-5.168
			c0.617-0.582,1.156-1.042,1.834-1.424c0.238-0.021,0.63,0,0.963,0.312c2.242,2.104,3.828,4.904,5.824,7.231
			C182.641,326.609,203.338,314.926,202.663,298.407z"/>
	</g>
	<g>
		<path fill="#683D7F" d="M201.34,315.857c-40.61-3.018-71.986-31.314-72.707-64.375c-0.289,1.676-0.502,3.377-0.629,5.098
			c-2.617,35.22,29.876,66.339,72.574,69.511c42.699,3.173,79.436-22.802,82.053-58.021c0.127-1.723,0.17-3.435,0.133-5.135
			C277.164,295.525,241.95,318.875,201.34,315.857z"/>
		<path fill="#9159A9" d="M183.059,323.11c2.334-1.248,4.674-2.488,7.02-3.716c2.496-1.306,4.996-2.602,7.502-3.891
			c-38.772-4.426-68.248-31.989-68.947-64.021c-0.289,1.676-0.502,3.377-0.629,5.098
			C125.758,286.792,149.352,313.986,183.059,323.11z"/>
		<path fill="#CFA7E4" d="M201.541,313.138c-50.199-3.729-71.471-38.256-72.191-71.314c-0.289,1.676-0.5,3.376-0.629,5.098
			c-2.616,35.219,29.877,66.337,72.576,69.511c42.699,3.173,79.434-22.802,82.052-58.021c0.128-1.723,0.169-3.436,0.132-5.135
			C277.881,285.867,249.133,316.674,201.541,313.138z"/>
	</g>
	<g>
		<path fill="#F1AD64" d="M343.973,187.396c0,13.638,2.801,27.919-2.337,40.073c-5.119,12.109-14.534,22.905-23.849,32.782
			c-8.9,9.438-21.248,15.311-33.174,22.029c-11.275,6.352-23.123,11.805-36.418,15.15c-12.529,3.154-25.527,3.66-39.275,3.66
			s-26.543-1.314-39.071-4.467c-13.296-3.346-25.839-7.117-37.115-13.469c-11.927-6.721-21.886-15.256-30.787-24.693
			c-9.317-9.877-18.024-19.981-23.144-32.093c-5.137-12.155-6.949-25.335-6.949-38.973s0.338-27.442,5.475-39.596
			c5.119-12.111,13.937-22.881,23.254-32.758c8.9-9.438,21.215-14.925,33.143-21.644c11.275-6.352,21.778-16.05,35.074-19.396
			c12.529-3.153,26.373-0.289,40.121-0.289c13.746,0,27.449-2.302,39.979,0.851c13.295,3.346,26.207,8.456,37.484,14.808
			c11.926,6.719,23.516,14.777,32.418,24.215c9.314,9.877,13.622,23.356,18.742,35.468
			C342.681,161.208,343.973,173.758,343.973,187.396z"/>
		<g>
			<g>
				<defs>
					<path id="SVGID_3_" d="M98.41,285.844L342.976,97.766c0,0,50.111,175.374-41.308,205.649
						c-83.064,27.51-143.676,41.27-143.676,41.27"/>
				</defs>
				<clipPath id="SVGID_4_">
					<use xlink:href="#SVGID_3_"  overflow="visible"/>
				</clipPath>
				<path clip-path="url(#SVGID_4_)" fill="#D7975D" d="M343.973,187.396c0,13.638,2.801,27.919-2.337,40.073
					c-5.119,12.109-14.534,22.905-23.849,32.782c-8.9,9.438-21.248,15.311-33.174,22.029c-11.275,6.352-23.123,11.805-36.418,15.15
					c-12.529,3.154-25.527,3.66-39.275,3.66s-26.543-1.314-39.071-4.467c-13.296-3.346-25.839-7.117-37.115-13.469
					c-11.927-6.721-21.886-15.256-30.787-24.693c-9.317-9.877-18.024-19.981-23.144-32.093c-5.137-12.155-6.949-25.335-6.949-38.973
					s0.338-27.442,5.475-39.596c5.119-12.111,13.937-22.881,23.254-32.758c8.9-9.438,21.215-14.925,33.143-21.644
					c11.275-6.352,21.778-16.05,35.074-19.396c12.529-3.153,26.373-0.289,40.121-0.289c13.746,0,27.449-2.302,39.979,0.851
					c13.295,3.346,26.207,8.456,37.484,14.808c11.926,6.719,23.516,14.777,32.418,24.215c9.314,9.877,13.622,23.356,18.742,35.468
					C342.681,161.208,343.973,173.758,343.973,187.396z"/>
			</g>
		</g>
		<g>
			<path fill="#B47B54" d="M145.723,135.946c2.869-1.046,5.697-0.52,6.318,1.176c0.617,1.697-1.207,3.92-4.08,4.967
				c-2.867,1.046-5.697,0.519-6.314-1.177C141.026,139.215,142.854,136.991,145.723,135.946z"/>
			
				<ellipse transform="matrix(-0.8982 0.4397 -0.4397 -0.8982 294.3524 224.1922)" fill="#B47B54" cx="121.211" cy="146.187" rx="3.271" ry="5.532"/>
			<path fill="#B47B54" d="M164.498,124.069c1.07,2.863,0.564,5.694-1.125,6.325c-1.695,0.632-3.93-1.175-5-4.038
				c-1.069-2.861-0.564-5.693,1.127-6.325C161.19,119.399,163.429,121.207,164.498,124.069z"/>
			
				<ellipse transform="matrix(0.6071 -0.7946 0.7946 0.6071 -26.8086 172.9019)" fill="#B47B54" cx="161.436" cy="113.56" rx="3.269" ry="5.531"/>
			<ellipse fill="#B47B54" cx="178.94" cy="112.121" rx="3.27" ry="5.532"/>
			<path fill="#B47B54" d="M202.324,90.964c1.973,2.335,2.451,5.171,1.07,6.336c-1.375,1.165-4.094,0.217-6.064-2.119
				c-1.971-2.334-2.449-5.17-1.07-6.335C197.641,87.682,200.354,88.631,202.324,90.964z"/>
			<path fill="#B47B54" d="M170.641,135.832c2.488-1.777,5.352-2.024,6.404-0.555c1.049,1.47-0.116,4.1-2.605,5.875
				c-2.484,1.775-5.348,2.023-6.4,0.553C166.99,140.237,168.156,137.607,170.641,135.832z"/>
			<path fill="#B47B54" d="M181.553,126.966c0.439-3.023,2.247-5.262,4.033-5.001c1.785,0.261,2.877,2.922,2.432,5.947
				c-0.439,3.021-2.246,5.261-4.032,5C182.199,132.65,181.109,129.988,181.553,126.966z"/>
			<path fill="#B47B54" d="M138.99,118.675c3.058-0.021,5.541,1.424,5.555,3.229c0.014,1.806-2.449,3.287-5.508,3.308
				c-3.055,0.021-5.543-1.424-5.555-3.229C133.469,120.177,135.936,118.697,138.99,118.675z"/>
			<path fill="#B47B54" d="M135.543,175.331c0.604,2.997-0.34,5.713-2.113,6.068c-1.768,0.357-3.691-1.78-4.295-4.777
				c-0.604-2.994,0.34-5.71,2.113-6.067C133.016,170.198,134.94,172.336,135.543,175.331z"/>
			<path fill="#B47B54" d="M133.102,158.122c2.839-1.141,5.682-0.707,6.354,0.966c0.678,1.676-1.074,3.958-3.907,5.099
				c-2.833,1.14-5.681,0.708-6.353-0.968C128.522,161.546,130.274,159.263,133.102,158.122z"/>
			
				<ellipse transform="matrix(0.0738 -0.9973 0.9973 0.0738 -75.6521 279.9439)" fill="#B47B54" cx="112.886" cy="180.7" rx="3.269" ry="5.532"/>
			<path fill="#B47B54" d="M155.156,197.928c-0.164,3.051-1.752,5.447-3.555,5.352c-1.803-0.094-3.135-2.643-2.977-5.696
				c0.16-3.05,1.752-5.447,3.559-5.351C153.983,192.327,155.317,194.877,155.156,197.928z"/>
			
				<ellipse transform="matrix(-0.9715 -0.2369 0.2369 -0.9715 276.053 397.8263)" fill="#B47B54" cx="161.929" cy="182.327" rx="3.27" ry="5.532"/>
			<path fill="#B47B54" d="M201.799,137.653c2.967,0.74,5.016,2.758,4.58,4.509c-0.439,1.752-3.195,2.573-6.158,1.834
				c-2.963-0.74-5.018-2.758-4.576-4.511C196.08,137.734,198.84,136.914,201.799,137.653z"/>
			
				<ellipse transform="matrix(-0.167 -0.986 0.986 -0.167 93.6725 404.6492)" fill="#B47B54" cx="217.773" cy="162.754" rx="3.269" ry="5.532"/>
			<path fill="#B47B54" d="M184.99,152.302c-0.885-2.927-0.193-5.72,1.535-6.24c1.73-0.52,3.844,1.43,4.723,4.356
				c0.881,2.924,0.195,5.718-1.535,6.238C187.985,157.177,185.87,155.226,184.99,152.302z"/>
			<path fill="#B47B54" d="M218.733,116.86c1.471,2.681,1.376,5.554-0.207,6.422c-1.588,0.867-4.059-0.602-5.525-3.283
				c-1.467-2.679-1.371-5.554,0.211-6.42C214.795,112.71,217.266,114.181,218.733,116.86z"/>
			<path fill="#B47B54" d="M217.348,93.102c-0.721,2.971-2.725,5.033-4.477,4.608c-1.756-0.425-2.598-3.177-1.877-6.146
				c0.717-2.968,2.723-5.031,4.478-4.606S218.069,90.134,217.348,93.102z"/>
			<path fill="#B47B54" d="M164.823,82.362c2.363,1.936,3.352,4.636,2.208,6.033s-3.985,0.961-6.354-0.975
				c-2.363-1.933-3.352-4.635-2.207-6.033C159.612,79.99,162.453,80.427,164.823,82.362z"/>
			
				<ellipse transform="matrix(0.8354 0.5496 -0.5496 0.8354 82.812 -83.1783)" fill="#B47B54" cx="180.289" cy="96.682" rx="3.268" ry="5.532"/>
			<path fill="#B47B54" d="M139.405,98.402c3.023-0.444,5.684,0.642,5.947,2.428c0.264,1.787-1.971,3.596-4.994,4.04
				c-3.023,0.445-5.689-0.641-5.953-2.428C134.143,100.657,136.381,98.847,139.405,98.402z"/>
			<path fill="#B47B54" d="M243.922,112.127c-0.01,3.056-1.475,5.53-3.283,5.525c-1.803-0.004-3.26-2.482-3.256-5.538
				c0.004-3.055,1.475-5.529,3.283-5.525C242.469,106.592,243.926,109.072,243.922,112.127z"/>
			<path fill="#B47B54" d="M237.539,84.188c-0.934-2.91-0.299-5.715,1.422-6.267c1.717-0.551,3.869,1.358,4.801,4.27
				c0.932,2.907,0.297,5.713-1.418,6.265C240.623,89.007,238.469,87.096,237.539,84.188z"/>
			<path fill="#B47B54" d="M259.199,95.793c2.977-0.709,5.725,0.14,6.143,1.896c0.418,1.756-1.652,3.754-4.625,4.463
				c-2.971,0.708-5.719-0.141-6.137-1.898C254.162,98.498,256.233,96.5,259.199,95.793z"/>
			
				<ellipse transform="matrix(0.2686 -0.9633 0.9633 0.2686 62.18 291.8295)" fill="#B47B54" cx="223.255" cy="104.97" rx="3.269" ry="5.532"/>
			<path fill="#B47B54" d="M224.315,80.025c-1.683-2.553-1.816-5.427-0.311-6.418c1.509-0.992,4.093,0.272,5.77,2.826
				c1.678,2.552,1.82,5.425,0.311,6.418C228.574,83.842,225.992,82.577,224.315,80.025z"/>
			<path fill="#B47B54" d="M264.264,109.649c1.85-2.431,4.516-3.512,5.951-2.417c1.438,1.094,1.1,3.951-0.754,6.381
				c-1.852,2.429-4.516,3.511-5.953,2.415C262.073,114.935,262.408,112.077,264.264,109.649z"/>
			
				<ellipse transform="matrix(-0.3319 -0.9433 0.9433 -0.3319 249.227 484.1813)" fill="#B47B54" cx="296.075" cy="153.833" rx="3.269" ry="5.529"/>
			<path fill="#B47B54" d="M258.264,132.922c-1.488,2.67-3.969,4.122-5.547,3.245c-1.578-0.879-1.652-3.754-0.168-6.425
				c1.488-2.667,3.967-4.121,5.547-3.242C259.674,127.378,259.746,130.253,258.264,132.922z"/>
			<path fill="#B47B54" d="M283.297,93.951c2.602-1.604,5.475-1.659,6.422-0.124c0.949,1.537-0.387,4.083-2.988,5.688
				c-2.602,1.604-5.479,1.66-6.422,0.123C279.36,98.103,280.698,95.555,283.297,93.951z"/>
			<path fill="#B47B54" d="M231.311,157.515c0.961-2.902,3.127-4.792,4.839-4.225c1.716,0.567,2.325,3.378,1.367,6.279
				c-0.962,2.899-3.128,4.792-4.845,4.224C230.961,163.225,230.348,160.414,231.311,157.515z"/>
			<path fill="#B47B54" d="M267.102,158.224c2.799-1.233,5.654-0.895,6.383,0.756c0.729,1.653-0.943,3.991-3.744,5.226
				c-2.791,1.233-5.65,0.894-6.379-0.757C262.633,161.797,264.307,159.458,267.102,158.224z"/>
			
				<ellipse transform="matrix(0.7517 -0.6595 0.6595 0.7517 -30.9225 188.6781)" fill="#B47B54" cx="235.125" cy="135.408" rx="3.269" ry="5.533"/>
			
				<ellipse transform="matrix(-0.8831 -0.4692 0.4692 -0.8831 336.1643 382.3723)" fill="#B47B54" cx="215.718" cy="149.307" rx="3.268" ry="5.533"/>
			<path fill="#B47B54" d="M267.403,176.621c2.67,1.491,4.115,3.976,3.236,5.551c-0.881,1.576-3.754,1.646-6.424,0.156
				c-2.664-1.489-4.113-3.976-3.234-5.552C261.862,175.201,264.739,175.132,267.403,176.621z"/>
			<path fill="#B47B54" d="M283.699,135.638c-1.234-2.797-0.895-5.652,0.758-6.38c1.652-0.729,3.99,0.947,5.225,3.743
				c1.229,2.795,0.893,5.651-0.76,6.379C287.266,140.109,284.932,138.432,283.699,135.638z"/>
			<path fill="#B47B54" d="M290.315,232.994c-0.104,3.053-1.652,5.477-3.455,5.416c-1.807-0.063-3.184-2.588-3.08-5.643
				c0.104-3.051,1.652-5.479,3.461-5.416C289.043,227.414,290.418,229.939,290.315,232.994z"/>
			<path fill="#B47B54" d="M223.615,216.153c2.881-1.017,5.701-0.46,6.301,1.242c0.604,1.703-1.246,3.907-4.127,4.924
				c-2.881,1.016-5.702,0.461-6.303-1.242C218.883,219.373,220.735,217.17,223.615,216.153z"/>
			<path fill="#B47B54" d="M197.442,217.906c0.096-3.055,1.635-5.484,3.439-5.428c1.807,0.057,3.191,2.578,3.092,5.633
				c-0.096,3.053-1.635,5.482-3.438,5.426S197.344,220.959,197.442,217.906z"/>
			
				<ellipse transform="matrix(-0.0075 -1 1 -0.0075 25.7026 423.9621)" fill="#B47B54" cx="223.255" cy="199.225" rx="3.269" ry="5.532"/>
			
				<ellipse transform="matrix(-0.3973 -0.9177 0.9177 -0.3973 29.3509 496.7094)" fill="#B47B54" cx="177.783" cy="238.717" rx="3.269" ry="5.532"/>
			<path fill="#B47B54" d="M166.086,212.7c2.756-1.327,5.619-1.083,6.404,0.544c0.781,1.627-0.814,4.02-3.566,5.346
				c-2.752,1.325-5.621,1.082-6.4-0.546C161.739,216.418,163.334,214.026,166.086,212.7z"/>
			<path fill="#B47B54" d="M300.209,194.439c1.885-2.403,4.568-3.447,5.986-2.333c1.42,1.115,1.041,3.967-0.85,6.37
				c-1.885,2.402-4.563,3.447-5.986,2.331C297.942,199.693,298.321,196.842,300.209,194.439z"/>
			<path fill="#B47B54" d="M204.987,250.946c-0.178-3.051,1.135-5.607,2.938-5.715c1.803-0.105,3.412,2.279,3.588,5.33
				c0.182,3.049-1.135,5.607-2.938,5.713C206.772,256.382,205.168,253.993,204.987,250.946z"/>
			<path fill="#B47B54" d="M169.031,154.762c-0.311,3.041-2.023,5.353-3.816,5.169c-1.799-0.186-2.998-2.798-2.688-5.838
				c0.314-3.039,2.021-5.353,3.821-5.167C168.143,149.111,169.346,151.723,169.031,154.762z"/>
			<path fill="#B47B54" d="M130.459,192.524c2.838-1.137,5.68-0.699,6.352,0.977c0.67,1.675-1.082,3.955-3.92,5.092
				c-2.838,1.136-5.68,0.698-6.348-0.977C125.869,195.939,127.625,193.661,130.459,192.524z"/>
			<path fill="#B47B54" d="M231.059,168.971c0.329,3.039-0.857,5.658-2.652,5.853c-1.793,0.195-3.519-2.109-3.846-5.148
				c-0.334-3.037,0.857-5.656,2.652-5.851C229.006,163.63,230.727,165.934,231.059,168.971z"/>
			<path fill="#B47B54" d="M201.76,185.715c3.033,0.381,5.306,2.143,5.08,3.933c-0.229,1.792-2.867,2.935-5.899,2.553
				c-3.028-0.38-5.306-2.143-5.077-3.934C196.088,186.476,198.729,185.333,201.76,185.715z"/>
			<path fill="#B47B54" d="M240.86,229.619c3.049,0.195,5.43,1.814,5.314,3.617c-0.117,1.801-2.684,3.104-5.732,2.906
				c-3.05-0.195-5.426-1.814-5.311-3.617C235.248,230.722,237.815,229.422,240.86,229.619z"/>
			
				<ellipse transform="matrix(0.6836 -0.7299 0.7299 0.6836 -91.2917 206.027)" fill="#B47B54" cx="191.969" cy="208.302" rx="3.269" ry="5.532"/>
			<path fill="#B47B54" d="M245.832,210.367c2.734-1.362,5.604-1.156,6.41,0.459c0.807,1.616-0.76,4.029-3.494,5.393
				c-2.734,1.361-5.603,1.156-6.409-0.459C241.537,214.145,243.098,211.73,245.832,210.367z"/>
			<path fill="#B47B54" d="M249.412,185.18c0.432,3.026-0.668,5.684-2.459,5.937c-1.785,0.254-3.584-1.991-4.016-5.016
				c-0.431-3.024,0.67-5.683,2.459-5.936C247.184,179.91,248.981,182.156,249.412,185.18z"/>
			<path fill="#B47B54" d="M185.68,171.601c-1.303,2.764-3.682,4.38-5.317,3.61c-1.63-0.771-1.897-3.634-0.595-6.398
				c1.303-2.763,3.684-4.379,5.314-3.608C186.715,165.974,186.983,168.838,185.68,171.601z"/>
			<path fill="#B47B54" d="M115.797,202.756c1.782,2.482,2.037,5.349,0.57,6.4c-1.471,1.052-4.102-0.108-5.883-2.592
				c-1.777-2.482-2.031-5.348-0.565-6.4C111.385,199.113,114.022,200.273,115.797,202.756z"/>
		</g>
		<g>
			<path fill="#F3C597" d="M145.723,133.865c2.869-1.047,5.697-0.52,6.318,1.176c0.617,1.697-1.207,3.92-4.08,4.966
				c-2.867,1.046-5.697,0.52-6.314-1.178C141.026,137.134,142.854,134.911,145.723,133.865z"/>
			
				<ellipse transform="matrix(-0.8982 0.4397 -0.4397 -0.8982 293.4374 220.2421)" fill="#F3C597" cx="121.211" cy="144.106" rx="3.271" ry="5.531"/>
			<path fill="#F3C597" d="M164.498,121.988c1.07,2.863,0.564,5.694-1.125,6.326c-1.695,0.632-3.93-1.175-5-4.038
				c-1.069-2.862-0.564-5.693,1.127-6.326C161.19,117.318,163.429,119.127,164.498,121.988z"/>
			
				<ellipse transform="matrix(0.6069 -0.7947 0.7947 0.6069 -25.1443 172.1182)" fill="#F3C597" cx="161.436" cy="111.479" rx="3.269" ry="5.532"/>
			<ellipse fill="#F3C597" cx="178.94" cy="110.041" rx="3.27" ry="5.532"/>
			<path fill="#F3C597" d="M202.324,88.883c1.973,2.335,2.451,5.171,1.07,6.336c-1.375,1.166-4.094,0.217-6.064-2.118
				s-2.449-5.171-1.07-6.336C197.641,85.602,200.354,86.55,202.324,88.883z"/>
			<path fill="#F3C597" d="M170.641,133.751c2.488-1.776,5.352-2.024,6.404-0.555c1.049,1.471-0.116,4.1-2.605,5.875
				c-2.484,1.776-5.348,2.024-6.4,0.554C166.99,138.157,168.156,135.527,170.641,133.751z"/>
			<path fill="#F3C597" d="M181.553,124.885c0.439-3.024,2.247-5.262,4.033-5.002c1.785,0.262,2.877,2.923,2.432,5.947
				c-0.439,3.022-2.246,5.261-4.032,5C182.199,130.57,181.109,127.908,181.553,124.885z"/>
			<path fill="#F3C597" d="M138.99,116.594c3.058-0.021,5.541,1.424,5.555,3.229c0.014,1.806-2.449,3.287-5.508,3.308
				c-3.055,0.021-5.543-1.424-5.555-3.23C133.469,118.096,135.936,116.616,138.99,116.594z"/>
			<path fill="#F3C597" d="M135.543,173.25c0.604,2.996-0.34,5.712-2.113,6.069c-1.768,0.357-3.691-1.781-4.295-4.777
				c-0.604-2.994,0.34-5.711,2.113-6.068C133.016,168.117,134.94,170.256,135.543,173.25z"/>
			<path fill="#F3C597" d="M133.102,156.042c2.839-1.141,5.682-0.708,6.354,0.966c0.678,1.676-1.074,3.958-3.907,5.098
				c-2.833,1.141-5.681,0.708-6.353-0.967C128.522,159.465,130.274,157.182,133.102,156.042z"/>
			
				<ellipse transform="matrix(0.0738 -0.9973 0.9973 0.0738 -73.5777 278.0173)" fill="#F3C597" cx="112.886" cy="178.62" rx="3.269" ry="5.532"/>
			<path fill="#F3C597" d="M155.156,195.846c-0.164,3.052-1.752,5.449-3.555,5.353c-1.803-0.094-3.135-2.643-2.977-5.696
				c0.16-3.05,1.752-5.447,3.559-5.352C153.983,190.246,155.317,192.796,155.156,195.846z"/>
			
				<ellipse transform="matrix(-0.9716 -0.2368 0.2368 -0.9716 276.5768 393.7078)" fill="#F3C597" cx="161.929" cy="180.247" rx="3.27" ry="5.532"/>
			<path fill="#F3C597" d="M201.799,135.573c2.967,0.739,5.016,2.757,4.58,4.509c-0.439,1.752-3.195,2.573-6.158,1.833
				c-2.963-0.739-5.018-2.758-4.576-4.51C196.08,135.654,198.84,134.833,201.799,135.573z"/>
			
				<ellipse transform="matrix(-0.167 -0.986 0.986 -0.167 95.7234 402.2217)" fill="#F3C597" cx="217.773" cy="160.674" rx="3.269" ry="5.532"/>
			<path fill="#F3C597" d="M184.99,150.22c-0.885-2.926-0.193-5.719,1.535-6.239c1.73-0.52,3.844,1.43,4.723,4.356
				c0.881,2.924,0.195,5.718-1.535,6.238C187.985,155.096,185.87,153.146,184.99,150.22z"/>
			<path fill="#F3C597" d="M218.733,114.78c1.471,2.681,1.376,5.554-0.207,6.421c-1.588,0.867-4.059-0.602-5.525-3.282
				c-1.467-2.679-1.371-5.553,0.211-6.421C214.795,110.63,217.266,112.1,218.733,114.78z"/>
			<path fill="#F3C597" d="M217.348,91.022c-0.721,2.97-2.725,5.032-4.477,4.608c-1.756-0.425-2.598-3.177-1.877-6.147
				c0.717-2.967,2.723-5.03,4.478-4.605S218.069,88.053,217.348,91.022z"/>
			<path fill="#F3C597" d="M164.823,80.281c2.363,1.937,3.352,4.637,2.208,6.033c-1.144,1.398-3.985,0.962-6.354-0.974
				c-2.363-1.934-3.352-4.635-2.207-6.033C159.612,77.91,162.453,78.347,164.823,80.281z"/>
			
				<ellipse transform="matrix(0.8353 0.5497 -0.5497 0.8353 81.6907 -83.5331)" fill="#F3C597" cx="180.289" cy="94.602" rx="3.269" ry="5.533"/>
			<path fill="#F3C597" d="M139.405,96.323c3.023-0.446,5.684,0.641,5.947,2.427c0.264,1.787-1.971,3.595-4.994,4.04
				s-5.689-0.642-5.953-2.428C134.143,98.576,136.381,96.768,139.405,96.323z"/>
			<path fill="#F3C597" d="M243.922,110.047c-0.01,3.056-1.475,5.528-3.283,5.524c-1.803-0.003-3.26-2.482-3.256-5.538
				c0.004-3.055,1.475-5.528,3.283-5.525C242.469,104.512,243.926,106.992,243.922,110.047z"/>
			<path fill="#F3C597" d="M237.539,82.107c-0.934-2.911-0.299-5.714,1.422-6.266c1.717-0.551,3.869,1.359,4.801,4.269
				c0.932,2.908,0.297,5.713-1.418,6.265C240.623,86.927,238.469,85.015,237.539,82.107z"/>
			<path fill="#F3C597" d="M259.199,93.712c2.977-0.708,5.725,0.14,6.143,1.897c0.418,1.756-1.652,3.753-4.625,4.463
				c-2.971,0.708-5.719-0.141-6.137-1.898C254.162,96.417,256.233,94.42,259.199,93.712z"/>
			
				<ellipse transform="matrix(0.2686 -0.9633 0.9633 0.2686 64.1846 290.3074)" fill="#F3C597" cx="223.255" cy="102.889" rx="3.269" ry="5.532"/>
			<path fill="#F3C597" d="M224.315,77.945c-1.683-2.554-1.816-5.427-0.311-6.418c1.509-0.993,4.093,0.272,5.77,2.825
				c1.678,2.552,1.82,5.426,0.311,6.418C228.574,81.762,225.992,80.497,224.315,77.945z"/>
			<path fill="#F3C597" d="M264.264,107.568c1.85-2.431,4.516-3.512,5.951-2.418c1.438,1.096,1.1,3.952-0.754,6.383
				c-1.852,2.428-4.516,3.51-5.953,2.415C262.073,112.854,262.408,109.996,264.264,107.568z"/>
			
				<ellipse transform="matrix(-0.3319 -0.9433 0.9433 -0.3319 251.206 481.4125)" fill="#F3C597" cx="296.075" cy="151.752" rx="3.269" ry="5.529"/>
			<path fill="#F3C597" d="M258.264,130.842c-1.488,2.67-3.969,4.123-5.547,3.244c-1.578-0.878-1.652-3.752-0.168-6.424
				c1.488-2.668,3.967-4.121,5.547-3.243C259.674,125.296,259.746,128.172,258.264,130.842z"/>
			<path fill="#F3C597" d="M283.297,91.871c2.602-1.604,5.475-1.66,6.422-0.124c0.949,1.537-0.387,4.082-2.988,5.687
				c-2.602,1.605-5.479,1.661-6.422,0.124C279.36,96.021,280.698,93.475,283.297,91.871z"/>
			<path fill="#F3C597" d="M231.311,155.435c0.961-2.902,3.127-4.793,4.839-4.226c1.716,0.568,2.325,3.378,1.367,6.279
				c-0.962,2.9-3.128,4.792-4.845,4.225C230.961,161.144,230.348,158.333,231.311,155.435z"/>
			<path fill="#F3C597" d="M267.102,156.144c2.799-1.234,5.654-0.895,6.383,0.756c0.729,1.652-0.943,3.991-3.744,5.225
				c-2.791,1.233-5.65,0.895-6.379-0.757C262.633,159.717,264.307,157.378,267.102,156.144z"/>
			
				<ellipse transform="matrix(0.7516 -0.6596 0.6596 0.7516 -29.541 188.2061)" fill="#F3C597" cx="235.125" cy="133.327" rx="3.269" ry="5.534"/>
			
				<ellipse transform="matrix(-0.8831 -0.4692 0.4692 -0.8831 337.1403 378.4553)" fill="#F3C597" cx="215.718" cy="147.227" rx="3.268" ry="5.533"/>
			<path fill="#F3C597" d="M267.403,174.541c2.67,1.49,4.115,3.976,3.236,5.551c-0.881,1.576-3.754,1.646-6.424,0.155
				c-2.664-1.489-4.113-3.975-3.234-5.551C261.862,173.121,264.739,173.051,267.403,174.541z"/>
			<path fill="#F3C597" d="M283.699,133.557c-1.234-2.796-0.895-5.653,0.758-6.38c1.652-0.728,3.99,0.947,5.225,3.744
				c1.229,2.795,0.893,5.651-0.76,6.379C287.266,138.029,284.932,136.352,283.699,133.557z"/>
			<path fill="#F3C597" d="M290.315,230.912c-0.104,3.055-1.652,5.479-3.455,5.416c-1.807-0.061-3.184-2.586-3.08-5.641
				c0.104-3.053,1.652-5.478,3.461-5.416C289.043,225.332,290.418,227.859,290.315,230.912z"/>
			<path fill="#F3C597" d="M223.615,214.073c2.881-1.017,5.701-0.46,6.301,1.242c0.604,1.702-1.246,3.906-4.127,4.923
				s-5.702,0.462-6.303-1.242C218.883,217.293,220.735,215.088,223.615,214.073z"/>
			<path fill="#F3C597" d="M197.442,215.826c0.096-3.055,1.635-5.484,3.439-5.428c1.807,0.057,3.191,2.576,3.092,5.633
				c-0.096,3.053-1.635,5.482-3.438,5.426S197.344,218.879,197.442,215.826z"/>
			
				<ellipse transform="matrix(-0.0075 -1 1 -0.0075 27.7843 421.8652)" fill="#F3C597" cx="223.255" cy="197.144" rx="3.269" ry="5.532"/>
			
				<ellipse transform="matrix(-0.3973 -0.9177 0.9177 -0.3973 31.2597 493.8029)" fill="#F3C597" cx="177.783" cy="236.636" rx="3.269" ry="5.532"/>
			<path fill="#F3C597" d="M166.086,210.619c2.756-1.326,5.619-1.083,6.404,0.545c0.781,1.625-0.814,4.02-3.566,5.345
				s-5.621,1.083-6.4-0.545C161.739,214.338,163.334,211.945,166.086,210.619z"/>
			<path fill="#F3C597" d="M300.209,192.358c1.885-2.404,4.568-3.447,5.986-2.333c1.42,1.116,1.041,3.967-0.85,6.371
				c-1.885,2.403-4.563,3.446-5.986,2.332C297.942,197.613,298.321,194.76,300.209,192.358z"/>
			<path fill="#F3C597" d="M204.987,248.866c-0.178-3.051,1.135-5.608,2.938-5.716c1.803-0.104,3.412,2.28,3.588,5.333
				c0.182,3.047-1.135,5.605-2.938,5.711C206.772,254.302,205.168,251.915,204.987,248.866z"/>
			<path fill="#F3C597" d="M169.031,152.682c-0.311,3.04-2.023,5.353-3.816,5.168c-1.799-0.185-2.998-2.797-2.688-5.837
				c0.314-3.04,2.021-5.353,3.821-5.168C168.143,147.031,169.346,149.643,169.031,152.682z"/>
			<path fill="#F3C597" d="M130.459,190.444c2.838-1.138,5.68-0.7,6.352,0.976c0.67,1.677-1.082,3.956-3.92,5.093
				c-2.838,1.135-5.68,0.699-6.348-0.978C125.869,193.859,127.625,191.579,130.459,190.444z"/>
			<path fill="#F3C597" d="M231.059,166.889c0.329,3.04-0.857,5.659-2.652,5.854c-1.793,0.194-3.519-2.109-3.846-5.148
				c-0.334-3.037,0.857-5.657,2.652-5.852C229.006,161.549,230.727,163.854,231.059,166.889z"/>
			<path fill="#F3C597" d="M201.76,183.634c3.033,0.382,5.306,2.143,5.08,3.934c-0.229,1.792-2.867,2.935-5.899,2.554
				c-3.028-0.382-5.306-2.143-5.077-3.935C196.088,184.395,198.729,183.253,201.76,183.634z"/>
			<path fill="#F3C597" d="M240.86,227.537c3.049,0.197,5.43,1.816,5.314,3.617c-0.117,1.803-2.684,3.104-5.732,2.908
				c-3.05-0.195-5.426-1.816-5.311-3.619C235.248,228.642,237.815,227.342,240.86,227.537z"/>
			
				<ellipse transform="matrix(0.6836 -0.7299 0.7299 0.6836 -89.7735 205.3688)" fill="#F3C597" cx="191.969" cy="206.222" rx="3.269" ry="5.532"/>
			<path fill="#F3C597" d="M245.832,208.287c2.734-1.363,5.604-1.158,6.41,0.459c0.807,1.615-0.76,4.029-3.494,5.393
				c-2.734,1.361-5.603,1.156-6.409-0.459C241.537,212.065,243.098,209.65,245.832,208.287z"/>
			<path fill="#F3C597" d="M249.412,183.1c0.432,3.024-0.668,5.683-2.459,5.937c-1.785,0.254-3.584-1.99-4.016-5.016
				c-0.431-3.025,0.67-5.683,2.459-5.937C247.184,177.829,248.981,180.075,249.412,183.1z"/>
			<path fill="#F3C597" d="M185.68,169.52c-1.303,2.765-3.682,4.38-5.317,3.611c-1.63-0.771-1.897-3.634-0.595-6.398
				c1.303-2.764,3.684-4.379,5.314-3.609C186.715,163.893,186.983,166.758,185.68,169.52z"/>
			<path fill="#F3C597" d="M115.797,200.675c1.782,2.483,2.037,5.349,0.57,6.399c-1.471,1.053-4.102-0.106-5.883-2.59
				c-1.777-2.482-2.031-5.348-0.565-6.4C111.385,197.032,114.022,198.193,115.797,200.675z"/>
		</g>
	</g>
</g>
</svg>
