<?xml version="1.0" encoding="utf-8"?>
<!-- Generator: Adobe Illustrator 16.0.3, SVG Export Plug-In . SVG Version: 6.00 Build 0)  -->
<!DOCTYPE svg PUBLIC "-//W3C//DTD SVG 1.1//EN" "http://www.w3.org/Graphics/SVG/1.1/DTD/svg11.dtd">
<svg version="1.1" id="Ebene_1" xmlns="http://www.w3.org/2000/svg" xmlns:xlink="http://www.w3.org/1999/xlink" x="0px" y="0px"
	 width="450px" height="450px" viewBox="0 0 450 450" enable-background="new 0 0 450 450" xml:space="preserve">
<g id="chicken_wing">
	<g>
		<path fill="#FB9642" d="M277.217,161.765c-12.505,18.854-41.693,14.277-60.122,17.364c-24.864,3.805-56.687,24.807-75.457,38.881
			c-9.39,7.043-24.5,21.234-21.238,34.168c2.316,13.821,21.463,17.17,32.28,23.006c14.478,5.955,20.571,16.229,38.169,10.362
			c14.822-5.036,23.493-18.511,34.829-29.155c15.164-16.023,33.936-30.103,49.16-47.957
			C281.506,200.394,307.633,156.3,277.217,161.765"/>
	</g>
	<g>
		<path fill="#C0632A" d="M279.27,164.59c-12.506,18.859-41.693,14.278-60.124,17.365c-24.866,3.805-56.687,24.807-75.458,38.883
			c-9.385,7.041-24.495,21.234-21.234,34.168c2.316,13.82,21.46,17.17,32.277,23.008c14.477,5.95,20.571,16.229,38.168,10.36
			c14.827-5.036,23.497-18.513,34.83-29.155c15.164-16.025,33.937-30.103,49.158-47.956
			C283.557,203.221,309.688,159.129,279.27,164.59"/>
	</g>
	<g>
		<g>
			<path fill="#FBC672" d="M148.315,234.139c-0.371,0.752-0.996,0.754-0.242,1.752C149.696,235.129,148.948,234.758,148.315,234.139
				"/>
		</g>
		<g>
			<path fill="#FBC672" d="M154.919,228.345c-0.37,0.753-0.618,1.257-0.114,2.13c1.622-0.76,0.869-1.132-0.134-1.627"/>
		</g>
		<g>
			<path fill="#FBC672" d="M159.431,229.324c0.004,0.627-0.496,1.002,0.51,1.496c1.12-1.006,0.621-1.252-0.264-1.998"/>
		</g>
		<g>
			<path fill="#FBC672" d="M157.465,236.467c-1.122,1.008-1.862,3.143,0.14,2.881c1.627-0.134-0.134-1.629-0.509-1.5"/>
		</g>
		<g>
			<path fill="#FBC672" d="M152.998,244.252c0.127,0.373-0.37,0.752-0.245,1.127c0.247-0.501,0.372-0.754,0.495-1.004
				c-0.124-0.373-0.752-0.372-0.626,0.002"/>
		</g>
		<g>
			<path fill="#FBC672" d="M160.018,246.469c0.252,0.124,0.381,0.498,0.507,0.871c0.874-0.503,0.373-0.752,0.244-1.125"/>
		</g>
		<g>
			<path fill="#FBC672" d="M166.234,238.299c0.006,0.629-0.496,1.002,0.259,1.377c1.251-0.632,0.746-0.881,0.493-1.63"/>
		</g>
		<g>
			<path fill="#FBC672" d="M168.706,232.03c-0.121,0.25-0.624,0.629,0.257,1.376c1.497-1.137,0.874-1.133,0.245-1.756"/>
		</g>
		<g>
			<path fill="#FBC672" d="M151.791,252.393c0.121-0.25-0.252-0.123-0.375,0.754c1.749-0.386,1.624-0.762,0.991-2.006
				c-0.626,0.002-0.498,0.377-0.871,0.502"/>
		</g>
		<g>
			<path fill="#FBC672" d="M143.63,248.053c-0.12,0.877-0.488,1.631,0.138,2.254c0.373-0.753,0.373-0.753,0.491-1.631
				c-0.501-0.246-0.498,0.381-0.749,0.254"/>
		</g>
		<g>
			<path fill="#FBC672" d="M144.187,258.938c0.379,1.129,1.628,0.494-0.254-0.746"/>
		</g>
		<g>
			<path fill="#FBC672" d="M156.82,257.375c-0.373,0.752-0.999,0.756-0.493,1.629c0.875-0.505,0.997-0.754,1.242-1.887
				c-0.126-0.371-0.627,0.006-0.627,0.006"/>
		</g>
		<g>
			<path fill="#FBC672" d="M161.924,251.465c0.249,0.123-0.25,0.502,0.251,0.75c0.999-0.756,0.123-0.877-0.259-1.377"/>
		</g>
		<g>
			<path fill="#FBC672" d="M166.524,245.936c0.002,0.621-0.496,1.004,0.51,1.5C167.405,246.682,166.653,246.311,166.524,245.936"/>
		</g>
		<g>
			<path fill="#FBC672" d="M142.334,239.297c-0.247,0.504-1.625,0.137-0.245,1.131c0.371-1.38,0.371-0.757-0.506-1.501
				c-0.375,0.13-0.248,0.501-0.248,0.501"/>
		</g>
		<g>
			<path fill="#FBC672" d="M137.617,246.959c0.13,1-0.62,1.252,0.383,1.748C138.249,247.578,138.123,247.832,137.617,246.959
				c-0.747,0.253-0.627,0.627-0.87,1.127"/>
		</g>
		<g>
			<path fill="#FBC672" d="M138.291,232.309c0.253,0.125,0.006,0.625,0.258,0.75c0.87-1.131,0.117-0.877-0.38-1.125"/>
		</g>
		<g>
			<path fill="#FBC672" d="M142.139,225.156c0.125,0.374-0.373,0.752,0.633,1.25l0.122-0.256l0,0
				c-0.254-0.747-0.629-0.62-1.007-1.117"/>
		</g>
		<g>
			<path fill="#FBC672" d="M150.382,221.736c-0.747,0.877-1.247,1.256,0.256,1.375c0.25,0.121,0.498-0.378,0.373-0.131
				c-0.501-0.869-1.128-0.869-0.877-0.744"/>
		</g>
		<g>
			<path fill="#FBC672" d="M157.75,218.818c-0.376,0.126-0.63-0.624-0.748,0.254l0.25,0.125c0.623-0.006,0,0,0,0"/>
		</g>
		<g>
			<path fill="#FBC672" d="M164.638,219.41c0.003,0.625-0.621,1.254,1.005,1.119l0,0c0.125-0.252-0.375-0.498-0.253-0.749
				c-0.376,0.128-0.248,0.503-0.248,0.503"/>
		</g>
		<g>
			<path fill="#FBC672" d="M175.051,224.238c-0.126,0.25-1.127-0.248-0.369,0.752l0.62-0.628c-0.63-0.622-0.38-0.5-0.125-0.375"/>
		</g>
	</g>
	<g>
		<g>
			<path fill="#FBC672" d="M186.784,234.341c-0.452-0.707-0.131-1.245-1.375-1.11C185.219,235.012,185.928,234.561,186.784,234.341"
				/>
		</g>
		<g>
			<path fill="#FBC672" d="M188.339,242.986c-0.452-0.707-0.759-1.18-1.763-1.197c-0.19,1.783,0.52,1.33,1.46,0.725"/>
		</g>
		<g>
			<path fill="#FBC672" d="M185.17,246.348c-0.536-0.324-0.6-0.943-1.543-0.339c0.284,1.481,0.754,1.175,1.848,0.81"/>
		</g>
		<g>
			<path fill="#FBC672" d="M180.067,240.975c-0.285-1.479-1.727-3.213-2.537-1.365c-0.724,1.464,1.461,0.724,1.546,0.338"/>
		</g>
		<g>
			<path fill="#FBC672" d="M175.705,233.132c-0.389-0.081-0.455-0.702-0.839-0.788c0.303,0.471,0.451,0.707,0.604,0.94
				c0.387,0.083,0.707-0.451,0.321-0.536"/>
		</g>
		<g>
			<path fill="#FBC672" d="M170.182,238.003c-0.235,0.151-0.623,0.065-1.011-0.017c-0.015,1.008,0.459,0.705,0.844,0.791"/>
		</g>
		<g>
			<path fill="#FBC672" d="M173.972,247.543c-0.538-0.318-0.604-0.941-1.312-0.488c-0.1,1.396,0.371,1.094,1.143,1.262"/>
		</g>
		<g>
			<path fill="#FBC672" d="M178.071,252.896c-0.153-0.237-0.221-0.859-1.315-0.491c0.201,1.868,0.52,1.331,1.379,1.112"/>
		</g>
		<g>
			<path fill="#FBC672" d="M169.354,227.896c0.152,0.235,0.234-0.151-0.453-0.707c-0.575,1.699-0.186,1.783,1.208,1.885
				c0.32-0.539-0.064-0.621,0.019-1.01"/>
		</g>
		<g>
			<path fill="#FBC672" d="M177.282,223.148c-0.69-0.559-1.146-1.264-2.002-1.047c0.452,0.709,0.452,0.709,1.144,1.264
				c0.47-0.302-0.068-0.622,0.168-0.775"/>
		</g>
		<g>
			<path fill="#FBC672" d="M167.667,218.004c-1.158-0.249-1.262,1.144,0.773,0.173"/>
		</g>
		<g>
			<path fill="#FBC672" d="M162.493,229.636c-0.455-0.706-0.134-1.243-1.143-1.261c-0.019,1.01,0.134,1.245,0.969,2.035
				c0.387,0.087,0.324-0.539,0.324-0.539"/>
		</g>
		<g>
			<path fill="#FBC672" d="M164.919,237.057c-0.234,0.148-0.299-0.471-0.772-0.171c0.135,1.246,0.69,0.556,1.311,0.488"/>
		</g>
		<g>
			<path fill="#FBC672" d="M167.285,243.854c-0.538-0.32-0.605-0.942-1.55-0.338C166.191,244.221,166.898,243.768,167.285,243.854"
				/>
		</g>
		<g>
			<path fill="#FBC672" d="M185.448,226.551c-0.303-0.466,0.727-1.459-0.84-0.79c0.993,1.028,0.456,0.71,1.546,0.339
				c0.085-0.385-0.303-0.471-0.303-0.471"/>
		</g>
		<g>
			<path fill="#FBC672" d="M181.322,218.56c-0.926-0.401-0.759-1.179-1.7-0.571C180.464,218.777,180.312,218.542,181.322,218.56
				c0.168-0.771-0.216-0.858-0.522-1.329"/>
		</g>
		<g>
			<path fill="#FBC672" d="M193.52,226.699c-0.236,0.15-0.538-0.324-0.773-0.172c0.52,1.33,0.688,0.556,1.161,0.253"/>
		</g>
		<g>
			<path fill="#FBC672" d="M197.664,233.68c-0.385-0.082-0.448-0.705-1.393-0.104l0.148,0.238l0,0
				c0.774,0.168,0.859-0.219,1.479-0.284"/>
		</g>
		<g>
			<path fill="#FBC672" d="M196.344,242.508c-0.37-1.094-0.434-1.717-1.312-0.486c-0.234,0.149,0.064,0.619-0.082,0.384
				c1.005,0.019,1.325-0.521,1.092-0.367"/>
		</g>
		<g>
			<path fill="#FBC672" d="M195.04,250.326c0.084-0.385,0.857-0.217,0.17-0.771l-0.235,0.149c-0.32,0.537,0,0,0,0"/>
		</g>
		<g>
			<path fill="#FBC672" d="M190.979,255.921c-0.537-0.319-0.754-1.179-1.479,0.284l0,0c0.15,0.238,0.621-0.066,0.771,0.17
				c0.085-0.387-0.299-0.471-0.299-0.471"/>
		</g>
		<g>
			<path fill="#FBC672" d="M181.469,262.352c-0.149-0.235,0.792-0.843-0.449-0.707l0.216,0.855c0.856-0.215,0.621-0.064,0.389,0.087
				"/>
		</g>
	</g>
	<g>
		<g>
			<path fill="#FBC672" d="M187.74,205.568c-0.372,0.75-1,0.754-0.241,1.754C189.122,206.561,188.37,206.189,187.74,205.568"/>
		</g>
		<g>
			<path fill="#FBC672" d="M194.345,199.776c-0.373,0.75-0.621,1.257-0.117,2.127c1.623-0.759,0.871-1.13-0.134-1.625"/>
		</g>
		<g>
			<path fill="#FBC672" d="M198.855,200.754c0.004,0.625-0.494,1.004,0.508,1.499c1.122-1.007,0.621-1.253-0.26-1.999"/>
		</g>
		<g>
			<path fill="#FBC672" d="M196.891,207.9c-1.122,1.004-1.861,3.136,0.136,2.879c1.629-0.135-0.13-1.63-0.506-1.5"/>
		</g>
		<g>
			<path fill="#FBC672" d="M192.422,215.684c0.128,0.37-0.373,0.752-0.244,1.129c0.248-0.505,0.373-0.759,0.494-1.006
				c-0.125-0.376-0.751-0.374-0.625,0.003"/>
		</g>
		<g>
			<path fill="#FBC672" d="M199.446,217.9c0.248,0.122,0.376,0.498,0.501,0.871c0.875-0.502,0.373-0.749,0.245-1.126"/>
		</g>
		<g>
			<path fill="#FBC672" d="M205.659,209.732c0.007,0.625-0.494,1.004,0.257,1.377c1.249-0.635,0.748-0.883,0.492-1.633"/>
		</g>
		<g>
			<path fill="#FBC672" d="M208.133,203.461c-0.126,0.252-0.625,0.627,0.259,1.374c1.494-1.133,0.868-1.128,0.238-1.752"/>
		</g>
		<g>
			<path fill="#FBC672" d="M191.212,223.823c0.125-0.251-0.25-0.121-0.37,0.755c1.749-0.385,1.621-0.76,0.99-2.01
				c-0.625,0.006-0.498,0.381-0.873,0.506"/>
		</g>
		<g>
			<path fill="#FBC672" d="M183.052,219.487c-0.115,0.874-0.488,1.628,0.141,2.249c0.37-0.752,0.37-0.752,0.489-1.629
				c-0.498-0.248-0.498,0.378-0.746,0.254"/>
		</g>
		<g>
			<path fill="#FBC672" d="M183.611,230.373c0.379,1.122,1.629,0.49-0.253-0.753"/>
		</g>
		<g>
			<path fill="#FBC672" d="M196.246,228.805c-0.374,0.756-0.998,0.758-0.496,1.631c0.874-0.502,0.996-0.757,1.244-1.885
				c-0.125-0.375-0.627,0.004-0.627,0.004"/>
		</g>
		<g>
			<path fill="#FBC672" d="M201.346,222.896c0.251,0.124-0.249,0.502,0.253,0.75c0.997-0.756,0.12-0.875-0.259-1.375"/>
		</g>
		<g>
			<path fill="#FBC672" d="M205.949,217.368c0.003,0.624-0.494,1.003,0.508,1.498C206.829,218.111,206.078,217.741,205.949,217.368"
				/>
		</g>
		<g>
			<path fill="#FBC672" d="M181.756,210.729c-0.245,0.502-1.624,0.135-0.242,1.129c0.367-1.377,0.37-0.753-0.51-1.498
				c-0.376,0.127-0.251,0.499-0.251,0.499"/>
		</g>
		<g>
			<path fill="#FBC672" d="M177.041,218.39c0.131,1.002-0.62,1.255,0.385,1.747C177.67,219.012,177.548,219.263,177.041,218.39
				c-0.752,0.253-0.624,0.627-0.872,1.13"/>
		</g>
		<g>
			<path fill="#FBC672" d="M177.715,203.742c0.251,0.124,0.004,0.625,0.254,0.748c0.874-1.129,0.122-0.877-0.379-1.124"/>
		</g>
		<g>
			<path fill="#FBC672" d="M181.56,196.586c0.128,0.378-0.373,0.756,0.632,1.25l0.123-0.252l0,0
				c-0.253-0.748-0.627-0.62-1.005-1.121"/>
		</g>
		<g>
			<path fill="#FBC672" d="M189.807,193.165c-0.749,0.882-1.248,1.26,0.256,1.376c0.252,0.124,0.5-0.379,0.376-0.125
				c-0.508-0.877-1.133-0.875-0.883-0.749"/>
		</g>
		<g>
			<path fill="#FBC672" d="M197.175,190.249c-0.375,0.129-0.63-0.624-0.749,0.255l0.25,0.126c0.624-0.007,0,0,0,0"/>
		</g>
		<g>
			<path fill="#FBC672" d="M204.061,190.841c0.004,0.626-0.621,1.253,1.01,1.12l0,0c0.124-0.252-0.381-0.497-0.255-0.748
				c-0.376,0.125-0.247,0.502-0.247,0.502"/>
		</g>
		<g>
			<path fill="#FBC672" d="M214.478,195.67c-0.129,0.25-1.132-0.247-0.374,0.754l0.624-0.631c-0.63-0.623-0.379-0.499-0.131-0.375"
				/>
		</g>
	</g>
	<g>
		<g>
			<g>
				<path fill="#FB9642" d="M198.581,221.574c-0.371,0.752-1,0.758-0.242,1.755C199.962,222.567,199.21,222.197,198.581,221.574"/>
			</g>
			<g>
				<path fill="#FB9642" d="M205.185,215.782c-0.373,0.753-0.617,1.255-0.112,2.13c1.623-0.76,0.87-1.131-0.135-1.628"/>
			</g>
			<g>
				<path fill="#FB9642" d="M209.696,216.762c0.005,0.626-0.495,1.003,0.51,1.497c1.122-1.007,0.618-1.253-0.262-2"/>
			</g>
			<g>
				<path fill="#FB9642" d="M207.728,223.904c-1.118,1.008-1.857,3.141,0.145,2.879c1.625-0.133-0.136-1.627-0.508-1.5"/>
			</g>
			<g>
				<path fill="#FB9642" d="M203.263,231.688c0.128,0.375-0.37,0.754-0.246,1.129c0.248-0.502,0.374-0.754,0.499-1.004
					c-0.127-0.373-0.755-0.371-0.626,0.004"/>
			</g>
			<g>
				<path fill="#FB9642" d="M210.287,233.906c0.25,0.123,0.375,0.498,0.504,0.874c0.874-0.507,0.37-0.755,0.244-1.128"/>
			</g>
			<g>
				<path fill="#FB9642" d="M216.503,225.742c0.001,0.623-0.499,0.999,0.255,1.372c1.248-0.634,0.746-0.88,0.493-1.628"/>
			</g>
			<g>
				<path fill="#FB9642" d="M218.972,219.468c-0.122,0.251-0.619,0.629,0.259,1.376c1.495-1.135,0.869-1.131,0.239-1.751"/>
			</g>
			<g>
				<path fill="#FB9642" d="M202.053,239.832c0.125-0.254-0.251-0.127-0.37,0.75c1.75-0.383,1.622-0.756,0.991-2.008
					c-0.625,0.004-0.499,0.378-0.875,0.506"/>
			</g>
			<g>
				<path fill="#FB9642" d="M193.894,235.49c-0.117,0.877-0.491,1.631,0.136,2.254c0.372-0.752,0.372-0.752,0.496-1.63
					c-0.504-0.249-0.5,0.376-0.749,0.253"/>
			</g>
			<g>
				<path fill="#FB9642" d="M194.451,246.377c0.38,1.125,1.629,0.492-0.253-0.75"/>
			</g>
			<g>
				<path fill="#FB9642" d="M207.083,244.811c-0.37,0.754-0.996,0.758-0.488,1.629c0.874-0.504,0.997-0.756,1.24-1.885
					c-0.125-0.373-0.626,0.006-0.626,0.006"/>
			</g>
			<g>
				<path fill="#FB9642" d="M212.187,238.904c0.254,0.123-0.247,0.502,0.254,0.748c0.999-0.756,0.122-0.879-0.254-1.377"/>
			</g>
			<g>
				<path fill="#FB9642" d="M216.79,233.372c0.002,0.625-0.496,1.003,0.51,1.499C217.67,234.121,216.918,233.746,216.79,233.372"/>
			</g>
			<g>
				<path fill="#FB9642" d="M192.6,226.734c-0.248,0.505-1.627,0.138-0.245,1.129c0.366-1.377,0.373-0.752-0.507-1.502
					c-0.377,0.13-0.248,0.502-0.248,0.502"/>
			</g>
			<g>
				<path fill="#FB9642" d="M187.883,234.396c0.128,1-0.619,1.252,0.382,1.75C188.51,235.02,188.387,235.271,187.883,234.396
					c-0.749,0.252-0.624,0.627-0.871,1.131"/>
			</g>
			<g>
				<path fill="#FB9642" d="M188.559,219.748c0.251,0.122,0.003,0.624,0.253,0.748c0.871-1.129,0.12-0.875-0.381-1.124"/>
			</g>
			<g>
				<path fill="#FB9642" d="M192.401,212.594c0.128,0.373-0.371,0.75,0.633,1.246l0.125-0.248l0,0
					c-0.253-0.753-0.629-0.625-1.008-1.121"/>
			</g>
			<g>
				<path fill="#FB9642" d="M200.646,209.176c-0.744,0.877-1.244,1.255,0.257,1.371c0.251,0.125,0.498-0.377,0.375-0.129
					c-0.508-0.873-1.13-0.867-0.879-0.746"/>
			</g>
			<g>
				<path fill="#FB9642" d="M208.016,206.256c-0.377,0.125-0.626-0.621-0.749,0.254l0.253,0.125c0.625-0.005,0,0,0,0"/>
			</g>
			<g>
				<path fill="#FB9642" d="M214.901,206.846c0.007,0.624-0.617,1.256,1.008,1.121l0,0c0.126-0.25-0.375-0.497-0.253-0.748
					c-0.372,0.127-0.249,0.5-0.249,0.5"/>
			</g>
			<g>
				<path fill="#FB9642" d="M225.313,211.674c-0.118,0.252-1.123-0.242-0.37,0.752l0.624-0.629
					c-0.626-0.621-0.378-0.496-0.125-0.373"/>
			</g>
		</g>
		<g>
			<g>
				<path fill="#FB9642" d="M238.006,193.005c-0.372,0.753-0.996,0.757-0.24,1.753C239.387,193.999,238.637,193.627,238.006,193.005
					"/>
			</g>
			<g>
				<path fill="#FB9642" d="M244.611,187.213c-0.375,0.752-0.621,1.255-0.117,2.13c1.622-0.759,0.871-1.131-0.131-1.627"/>
			</g>
			<g>
				<path fill="#FB9642" d="M249.122,188.191c0,0.626-0.498,1.006,0.507,1.5c1.121-1.005,0.621-1.257-0.264-2"/>
			</g>
			<g>
				<path fill="#FB9642" d="M247.152,195.339c-1.117,1.005-1.86,3.135,0.141,2.876c1.628-0.133-0.13-1.629-0.508-1.5"/>
			</g>
			<g>
				<path fill="#FB9642" d="M242.688,203.119c0.129,0.374-0.371,0.755-0.244,1.128c0.248-0.501,0.373-0.754,0.496-1.003
					c-0.127-0.377-0.752-0.375-0.623,0.002"/>
			</g>
			<g>
				<path fill="#FB9642" d="M249.709,205.336c0.253,0.125,0.379,0.502,0.504,0.875c0.874-0.505,0.373-0.755,0.247-1.126"/>
			</g>
			<g>
				<path fill="#FB9642" d="M255.926,197.172c0.006,0.623-0.496,1.001,0.258,1.371c1.248-0.629,0.748-0.879,0.488-1.628"/>
			</g>
			<g>
				<path fill="#FB9642" d="M258.396,190.899c-0.125,0.253-0.623,0.629,0.256,1.374c1.5-1.13,0.873-1.13,0.244-1.751"/>
			</g>
			<g>
				<path fill="#FB9642" d="M241.477,211.263c0.127-0.253-0.25-0.126-0.367,0.753c1.748-0.388,1.619-0.76,0.988-2.01
					c-0.627,0.002-0.5,0.379-0.873,0.507"/>
			</g>
			<g>
				<path fill="#FB9642" d="M233.318,206.922c-0.12,0.874-0.488,1.629,0.138,2.254c0.372-0.752,0.372-0.752,0.491-1.631
					c-0.5-0.247-0.496,0.376-0.749,0.251"/>
			</g>
			<g>
				<path fill="#FB9642" d="M233.875,217.809c0.38,1.127,1.631,0.491-0.255-0.748"/>
			</g>
			<g>
				<path fill="#FB9642" d="M246.508,216.242c-0.367,0.753-0.994,0.756-0.49,1.63c0.873-0.504,0.998-0.757,1.24-1.882
					c-0.123-0.377-0.623,0.002-0.623,0.002"/>
			</g>
			<g>
				<path fill="#FB9642" d="M251.611,210.332c0.252,0.125-0.248,0.504,0.255,0.749c0.995-0.755,0.118-0.874-0.257-1.374"/>
			</g>
			<g>
				<path fill="#FB9642" d="M256.217,204.803c0.002,0.628-0.5,1.004,0.506,1.499C257.096,205.55,256.344,205.178,256.217,204.803"/>
			</g>
			<g>
				<path fill="#FB9642" d="M232.025,198.165c-0.25,0.505-1.629,0.136-0.248,1.128c0.371-1.375,0.373-0.752-0.508-1.498
					c-0.371,0.126-0.248,0.503-0.248,0.503"/>
			</g>
			<g>
				<path fill="#FB9642" d="M227.307,205.828c0.133,1-0.617,1.252,0.385,1.748C227.936,206.45,227.811,206.699,227.307,205.828
					c-0.748,0.252-0.621,0.627-0.871,1.13"/>
			</g>
			<g>
				<path fill="#FB9642" d="M227.984,191.176c0.246,0.127,0.004,0.626,0.252,0.752c0.869-1.132,0.121-0.877-0.381-1.124"/>
			</g>
			<g>
				<path fill="#FB9642" d="M231.826,184.024c0.129,0.376-0.373,0.753,0.633,1.251l0.122-0.252l0,0
					c-0.253-0.753-0.626-0.623-1.005-1.124"/>
			</g>
			<g>
				<path fill="#FB9642" d="M240.068,180.602c-0.742,0.883-1.243,1.262,0.258,1.375c0.254,0.129,0.501-0.377,0.375-0.125
					c-0.504-0.873-1.131-0.87-0.879-0.746"/>
			</g>
			<g>
				<path fill="#FB9642" d="M247.439,177.686c-0.375,0.129-0.629-0.623-0.75,0.258l0.25,0.121c0.627-0.003,0,0,0,0"/>
			</g>
			<g>
				<path fill="#FB9642" d="M254.326,178.28c0.004,0.623-0.621,1.252,1.01,1.116l0,0c0.121-0.247-0.379-0.493-0.255-0.748
					c-0.376,0.127-0.251,0.502-0.251,0.502"/>
			</g>
			<g>
				<path fill="#FB9642" d="M264.738,183.105c-0.122,0.253-1.123-0.243-0.368,0.754l0.622-0.63
					c-0.629-0.622-0.379-0.499-0.127-0.372"/>
			</g>
		</g>
	</g>
	<g>
		<g>
			<path fill="#FBC672" d="M226.209,205.77c-0.455-0.707-0.131-1.243-1.378-1.108C224.645,206.444,225.35,205.988,226.209,205.77"/>
		</g>
		<g>
			<path fill="#FBC672" d="M227.764,214.42c-0.453-0.711-0.758-1.181-1.766-1.197c-0.186,1.781,0.52,1.328,1.461,0.724"/>
		</g>
		<g>
			<path fill="#FBC672" d="M224.596,217.777c-0.535-0.321-0.603-0.941-1.543-0.34c0.282,1.482,0.755,1.18,1.846,0.811"/>
		</g>
		<g>
			<path fill="#FBC672" d="M219.492,212.406c-0.286-1.48-1.73-3.215-2.541-1.365c-0.723,1.463,1.464,0.725,1.55,0.337"/>
		</g>
		<g>
			<path fill="#FBC672" d="M215.13,204.566c-0.388-0.087-0.455-0.71-0.841-0.794c0.301,0.474,0.454,0.707,0.605,0.942
				c0.386,0.085,0.706-0.451,0.318-0.538"/>
		</g>
		<g>
			<path fill="#FBC672" d="M209.608,209.436c-0.235,0.148-0.625,0.064-1.011-0.021c-0.016,1.013,0.456,0.708,0.843,0.792"/>
		</g>
		<g>
			<path fill="#FBC672" d="M213.397,218.973c-0.541-0.317-0.605-0.941-1.314-0.488c-0.102,1.396,0.37,1.093,1.146,1.264"/>
		</g>
		<g>
			<path fill="#FBC672" d="M217.493,224.327c-0.152-0.234-0.218-0.858-1.312-0.492c0.198,1.867,0.52,1.332,1.378,1.116"/>
		</g>
		<g>
			<path fill="#FBC672" d="M208.78,199.326c0.146,0.236,0.235-0.149-0.455-0.704c-0.571,1.695-0.187,1.782,1.21,1.884
				c0.319-0.538-0.067-0.623,0.019-1.01"/>
		</g>
		<g>
			<path fill="#FBC672" d="M216.703,194.578c-0.689-0.556-1.139-1.262-2-1.045c0.456,0.705,0.456,0.705,1.144,1.264
				c0.47-0.301-0.064-0.623,0.167-0.774"/>
		</g>
		<g>
			<path fill="#FBC672" d="M207.093,189.435c-1.163-0.251-1.262,1.146,0.773,0.173"/>
		</g>
		<g>
			<path fill="#FBC672" d="M201.915,201.07c-0.451-0.711-0.13-1.246-1.143-1.265c-0.018,1.011,0.135,1.245,0.973,2.035
				c0.388,0.085,0.321-0.536,0.321-0.536"/>
		</g>
		<g>
			<path fill="#FBC672" d="M204.345,208.486c-0.235,0.153-0.304-0.471-0.773-0.168c0.132,1.244,0.687,0.555,1.308,0.488"/>
		</g>
		<g>
			<path fill="#FBC672" d="M206.707,215.283c-0.537-0.319-0.604-0.941-1.546-0.338C205.613,215.652,206.321,215.201,206.707,215.283
				"/>
		</g>
		<g>
			<path fill="#FBC672" d="M224.873,197.984c-0.301-0.473,0.725-1.463-0.84-0.79c0.99,1.026,0.452,0.71,1.547,0.336
				c0.082-0.386-0.303-0.47-0.303-0.47"/>
		</g>
		<g>
			<path fill="#FBC672" d="M220.744,189.99c-0.923-0.403-0.754-1.176-1.695-0.57C219.888,190.209,219.735,189.976,220.744,189.99
				c0.171-0.773-0.216-0.855-0.519-1.328"/>
		</g>
		<g>
			<path fill="#FBC672" d="M232.945,198.129c-0.236,0.15-0.537-0.32-0.773-0.168c0.52,1.326,0.688,0.553,1.159,0.254"/>
		</g>
		<g>
			<path fill="#FBC672" d="M237.09,205.113c-0.386-0.085-0.453-0.707-1.396-0.104l0.152,0.239l0,0
				c0.773,0.166,0.858-0.22,1.479-0.286"/>
		</g>
		<g>
			<path fill="#FBC672" d="M235.766,213.939c-0.365-1.094-0.434-1.715-1.311-0.49c-0.232,0.151,0.066,0.621-0.084,0.387
				c1.01,0.018,1.33-0.52,1.092-0.367"/>
		</g>
		<g>
			<path fill="#FBC672" d="M234.463,221.758c0.084-0.387,0.855-0.219,0.168-0.774l-0.234,0.15c-0.32,0.539,0,0,0,0"/>
		</g>
		<g>
			<path fill="#FBC672" d="M230.406,227.354c-0.539-0.321-0.756-1.18-1.48,0.281l0,0c0.149,0.237,0.621-0.066,0.77,0.17
				c0.087-0.385-0.301-0.47-0.301-0.47"/>
		</g>
		<g>
			<path fill="#FBC672" d="M220.896,233.782c-0.153-0.235,0.789-0.841-0.455-0.707l0.217,0.856c0.858-0.217,0.624-0.064,0.387,0.084
				"/>
		</g>
	</g>
	<g opacity="0.5">
		<path fill="#7A6E6C" d="M286.643,166.824c5.551-1.658,8.445-6.152,12.277-11.531c2.832-2.66,5.896-12.646,10.504-13.418
			c10.156-2.432,13.533,6.841,5.092,12.989c10.871,4.008,25.064,19.117,6.636,22.208c-6.437,0.713-11.761-4.951-20.086-2.464
			c-4.607,0.774-8.441,6.151-13.107,8.755"/>
	</g>
	<g>
		<path fill="#E8E8E8" d="M286.891,167.691c5.148-1.785,8.019-5.999,11.787-11.069c2.722-2.554,6.021-11.757,10.267-12.69
			c9.391-2.721,12,5.505,3.981,11.507c9.717,3.078,21.896,16.043,4.928,19.781c-5.911,0.978-10.479-3.887-18.2-1.21
			c-4.24,0.935-8.017,6.006-12.402,8.6"/>
	</g>
</g>
</svg>
