<?xml version="1.0" encoding="utf-8"?>
<!-- Generator: Adobe Illustrator 16.0.0, SVG Export Plug-In . SVG Version: 6.00 Build 0)  -->
<!DOCTYPE svg PUBLIC "-//W3C//DTD SVG 1.1//EN" "http://www.w3.org/Graphics/SVG/1.1/DTD/svg11.dtd">
<svg version="1.1" id="Ebene_1" xmlns="http://www.w3.org/2000/svg" xmlns:xlink="http://www.w3.org/1999/xlink" x="0px" y="0px"
	 width="450px" height="450px" viewBox="0 0 450 450" enable-background="new 0 0 450 450" xml:space="preserve">
<g>
	<g opacity="0.3">
		<path d="M333.902,225.087c-33.51-11.822-74.767-18.314-108.472-20.49c-12.16-0.784-24.305-0.843-36.536-2.123
			c-3.433-0.359-14.017-2.906-16.654-0.767c-3.499,2.838,0.181,11.906,3.771,14.711c5.136,4.006,14.934,4.754,20.846,6.478
			c11.469,3.351,22.291,6.392,33.901,9.104c35.65,8.321,72.792,12.835,108.654,18.915c13.248,2.246,14.412,0.498,13.802-9.588
			c-0.133-2.242,1.883-9.862-0.091-12.052c-2.997-3.318-11.622-3.655-16.074-4.897"/>
		<path d="M336.379,247.647c-21.232-6.455-48.492-6.827-71.195-4.193c-8.191,0.951-16.474,2.581-24.645,3.076
			c-2.293,0.139-9.164-0.785-11.262,1.591c-2.781,3.151-1.527,11.159,0.533,13.295c2.947,3.05,9.533,2.394,13.33,3.192
			c7.363,1.555,14.328,2.91,21.875,3.847c23.18,2.869,47.906,1.954,71.54,2.688c8.731,0.271,9.769-1.532,10.751-10.922
			c0.221-2.087,2.654-9.525,1.611-11.308c-1.586-2.7-7.426-1.82-10.293-2.369"/>
		<path d="M235.936,273.368c-21.232-6.455-48.492-6.827-71.195-4.193c-8.191,0.951-16.475,2.581-24.645,3.076
			c-2.293,0.139-9.166-0.785-11.262,1.591c-2.781,3.151-1.528,11.159,0.533,13.295c2.947,3.05,9.533,2.394,13.33,3.192
			c7.363,1.555,14.328,2.91,21.875,3.847c23.18,2.869,47.906,1.954,71.539,2.688c8.732,0.271,9.77-1.532,10.752-10.922
			c0.221-2.087,2.654-9.525,1.611-11.308c-1.586-2.7-7.426-1.82-10.293-2.369"/>
		<path d="M227.49,172.009c-21.232-6.455-48.492-6.827-71.195-4.193c-8.191,0.951-16.474,2.581-24.645,3.076
			c-2.293,0.139-9.165-0.785-11.262,1.591c-2.781,3.151-1.527,11.159,0.533,13.295c2.948,3.05,9.533,2.394,13.33,3.192
			c7.363,1.555,14.328,2.91,21.875,3.847c23.18,2.869,47.906,1.954,71.541,2.688c8.73,0.271,9.768-1.532,10.751-10.922
			c0.22-2.087,2.653-9.525,1.61-11.308c-1.586-2.7-7.426-1.82-10.293-2.369"/>
		<path d="M348.887,181.019c-5.904-2.244-11.656-4.294-17.871-6.109c-22.422-6.543-46.975-9.599-70.188-14.106
			c-8.574-1.666-9.887-0.052-12.361,9.06c-0.551,2.024-4.144,8.978-3.4,10.904c1.133,2.919,7.039,2.985,9.781,3.986l2.395-0.729
			c19.926,9.771,46.773,14.502,69.605,15.537c8.238,0.373,16.675,0.09,24.82,0.909c1.77,0.178,6.143,1.417,9.168,1.036
			C356.899,194.669,352.49,188.012,348.887,181.019z"/>
		<path d="M111.147,259.05c6.082,1.699,11.996,3.219,18.352,4.463c22.922,4.481,47.65,5.297,71.176,7.681
			c8.692,0.882,9.852-0.845,11.49-10.144c0.365-2.065,3.311-9.316,2.396-11.168c-1.393-2.804-7.281-2.334-10.102-3.082l-2.32,0.944
			c-20.729-7.925-47.895-10.2-70.727-9.159c-8.238,0.376-16.615,1.422-24.801,1.345c-1.779-0.016-6.246-0.854-9.223-0.2
			C101.928,246.182,106.924,252.411,111.147,259.05z"/>
		<path d="M230.849,315.864c6.312,0.23,12.416,0.325,18.886,0.049c23.336-1.002,47.569-5.991,71-9.175
			c8.657-1.176,9.381-3.125,8.8-12.549c-0.128-2.094,1.041-9.833-0.282-11.419c-2.009-2.4-7.624-0.566-10.542-0.634l-2.034,1.459
			c-22.008-2.857-48.953,1.282-70.907,7.633c-7.923,2.292-15.822,5.269-23.8,7.106c-1.734,0.4-6.273,0.631-9.013,1.962
			C218.877,305.51,225.192,310.397,230.849,315.864z"/>
		<path d="M114.151,241.203c7.527,4.679,15.527,8.723,21.732,15.207c1.542,1.61,2.648,3.497,3.341,5.498
			c2.706,0.978,5.429,1.907,8.168,2.79c5.404-1.069,11.026-1.645,16.622-2.191c1.978-0.193,3.955-0.375,5.93-0.598
			c0.45-0.049,0.9-0.104,1.35-0.156c0.061-0.01,0.105-0.016,0.175-0.026c3.398-0.576,6.497-1.612,9.706-2.888
			c1.763-0.7,3.528-1.431,5.295-2.17c3.469-3.629,7.023-7.336,10.841-10.619c-20.003-6.546-44.796-8.427-65.897-7.465
			c-6.273,0.286-12.625,0.958-18.91,1.229C112.756,240.008,115.978,242.339,114.151,241.203z"/>
		<path d="M221.737,126.416c-6.849,0.553-15.139,8.057-20.793,11.486c-16.99,10.312-34.042,21.102-51.484,30.614
			c-22.715,12.389-45.745,26.861-67.149,41.488c-4.978,3.403-5.872,3.6-6.666,8.747c-0.314,2.019-0.158,9.817,1.249,11.301
			c3.336,3.519,14.461-0.402,18.932-1.743c21.848-6.557,45.122-16.597,65.369-28.053c16.924-9.577,32.662-21.698,47.978-33.688
			c7.482-5.857,26.202-19.563,27.447-29.913L221.737,126.416z"/>
		<path d="M231.122,133.827c-29.479,21.489-58.104,44.617-90.518,61.561c-14.716,7.69-31.509,10.816-45.973,18.937
			c-1.562,0.875-5.938,3.089-6.483,3.993c-1.473,2.458-2.419,5.035-3.376,7.721c-0.724,2.03-1.459,4.154-2.331,6.218
			c4.564-0.297,10.286-2.25,13.193-3.122c21.85-6.559,45.125-16.599,65.371-28.054c16.922-9.578,32.662-21.7,47.977-33.688
			c7.482-5.857,26.203-19.563,27.447-29.914L231.122,133.827z"/>
		<path d="M236.618,136.656l-14.882-10.24c-6.849,0.553-15.139,8.057-20.793,11.486c-8.516,5.168-17.047,10.455-25.634,15.644
			c-9.323,18.376-18.976,36.583-28.981,54.593c5.084-2.529,10.062-5.164,14.865-7.882c16.924-9.577,32.662-21.698,47.978-33.688
			C216.654,160.712,235.373,147.007,236.618,136.656z"/>
		<path d="M359.589,134.322c-6.85,0.554-15.139,8.057-20.793,11.487c-16.991,10.31-34.041,21.102-51.485,30.613
			c-22.714,12.389-45.745,26.86-67.15,41.489c-4.976,3.403-5.869,3.599-6.665,8.747c-0.313,2.018-0.157,9.816,1.251,11.301
			c3.334,3.518,14.46-0.402,18.932-1.743c21.847-6.558,45.122-16.598,65.367-28.054c16.923-9.577,32.664-21.698,47.978-33.688
			c7.483-5.857,26.203-19.562,27.446-29.913L359.589,134.322z"/>
		<path d="M368.975,141.734c-29.479,21.489-58.104,44.615-90.519,61.56c-14.714,7.691-31.507,10.817-45.974,18.936
			c-1.559,0.876-5.938,3.09-6.482,3.994c-1.473,2.458-2.42,5.035-3.375,7.721c-0.725,2.029-1.459,4.155-2.332,6.217
			c4.566-0.295,10.286-2.25,13.195-3.12c21.848-6.559,45.123-16.599,65.37-28.056c16.921-9.576,32.662-21.698,47.978-33.687
			c7.482-5.856,26.201-19.562,27.445-29.913L368.975,141.734z"/>
		<path opacity="0.4" d="M355.273,153.475c-1.528-4.797-3.854-9.699-6.104-14.759c-3.787,2.435-7.435,5.311-10.372,7.093
			c-8.517,5.167-17.046,10.455-25.636,15.642c-9.321,18.377-18.975,36.584-28.979,54.595c5.085-2.53,10.063-5.164,14.864-7.883
			c16.923-9.577,32.664-21.698,47.978-33.688c2.721-2.13,6.928-5.3,11.239-8.966C357.44,161.447,356.527,157.414,355.273,153.475z"
			/>
		<path d="M183.094,162.331c28.531,2.1,57.844,3.943,85.731,2.31c12.825-0.75,26.135,0.55,39.138,0.493
			c5.907-0.026,11.814,0.491,17.76,1.074c3.176,0.311,11.595,2.017,14.381,0.696c4.458-2.111,1.853-11.407,1.417-15.469
			c-0.228-2.119-0.35-4.272-0.603-6.39c-0.43-3.591-0.198-4.517-3.804-5.746c-1.978-0.671-5.517-0.271-7.548-0.412
			c-4.78-0.325-9.42-1.08-14.166-1.979c-12.396-2.341-23.75-1.827-36.076-2.841c-24.408-2.005-48.577-1.772-72.771-1.848
			c-8.328-0.028-16.631-0.076-24.939,0.004c-4.551,0.046-9.171,0.128-13.791-0.386c-1.863-0.206-5.813-1.562-7.57-1.209
			c-9.61,1.915-10.899,11.798-12.99,17.771c8.698,6.256,12.588,7.431,24.493,10.621c1.921,0.517,3.728,0.615,5.793,1.205
			C180.097,160.958,180.066,162.134,183.094,162.331"/>
		<path d="M242.947,146.454c-10.778-0.516-21.482-1.82-32.287-1.521c-11.434,0.314-22.849,1.398-34.286,1.447
			c-4.52,0.019-8.801-1.396-13.287-1.634c-2.664-0.141-2.553-0.126-3.985,2.504c-1.153,2.116-2.106,4.35-3.038,6.595
			c4.189,2.04,8.464,3.238,15.692,5.177c1.921,0.517,3.728,0.615,5.793,1.205c2.549,0.731,2.518,1.907,5.546,2.104
			c28.531,2.1,57.844,3.943,85.731,2.31c12.825-0.75,26.135,0.55,39.138,0.493c5.907-0.026,11.814,0.491,17.76,1.074
			c3.176,0.311,11.595,2.017,14.381,0.696c4.458-2.111,1.853-11.407,1.417-15.469c-0.124-1.16-0.221-2.33-0.321-3.499
			C308.586,145.503,275.574,148.015,242.947,146.454z"/>
		<path opacity="0.4" d="M337.115,139.3c-1.978-0.671-5.517-0.271-7.548-0.412c-4.78-0.325-9.42-1.08-14.166-1.979
			c-6.969-1.315-13.607-1.729-20.273-2.021c-19.571,7.111-39.834,12.593-59.074,20.479c-7.305,2.995-14.621,6.025-21.973,8.977
			c18.446,0.961,36.888,1.344,54.745,0.297c12.825-0.75,26.135,0.55,39.138,0.493c5.907-0.026,11.814,0.491,17.76,1.074
			c3.176,0.311,11.595,2.017,14.381,0.696c4.458-2.111,1.853-11.407,1.417-15.469c-0.228-2.119-0.35-4.272-0.603-6.39
			C340.489,141.455,340.72,140.529,337.115,139.3z"/>
		<path d="M102.567,283.458c28.362-3.747,57.436-7.904,84.409-15.177c12.404-3.345,25.699-4.778,38.419-7.479
			c5.779-1.229,11.667-1.923,17.607-2.562c3.172-0.343,11.762-0.385,14.222-2.244c3.936-2.974-0.507-11.546-1.759-15.434
			c-0.655-2.028-1.213-4.111-1.893-6.133c-1.148-3.429-1.111-4.382-4.892-4.854c-2.071-0.253-5.455,0.857-7.472,1.133
			c-4.748,0.653-9.445,0.859-14.275,0.944c-12.61,0.229-23.623,3.041-35.896,4.556c-24.308,3.002-47.926,8.146-71.627,12.994
			c-8.16,1.666-16.299,3.309-24.418,5.077c-4.446,0.971-8.952,1.99-13.581,2.427c-1.867,0.179-6.011-0.344-7.659,0.356
			c-9.02,3.831-8.271,13.769-9.103,20.044c9.788,4.354,13.836,4.714,26.142,5.415c1.986,0.115,3.774-0.156,5.918,0.003
			C99.352,282.722,99.562,283.882,102.567,283.458"/>
		<path d="M157.937,255.738c-10.657,1.688-21.402,2.587-31.921,5.078c-11.131,2.633-22.086,6.018-33.274,8.391
			c-4.421,0.938-8.902,0.425-13.343,1.104c-2.638,0.405-2.523,0.396-3.392,3.263c-0.698,2.306-1.178,4.688-1.634,7.074
			c4.518,1.146,8.945,1.45,16.418,1.876c1.986,0.115,3.774-0.156,5.918,0.003c2.643,0.196,2.853,1.355,5.857,0.932
			c28.362-3.747,57.436-7.904,84.409-15.177c12.404-3.345,25.699-4.778,38.419-7.479c5.779-1.229,11.667-1.923,17.607-2.562
			c3.172-0.343,11.762-0.385,14.222-2.244c3.936-2.974-0.507-11.546-1.759-15.434c-0.358-1.11-0.691-2.237-1.028-3.36
			C222.01,241.454,190.201,250.631,157.937,255.738z"/>
		<path d="M248.681,229.577c-2.071-0.253-5.455,0.857-7.472,1.133c-4.748,0.653-9.445,0.859-14.275,0.944
			c-7.089,0.129-13.673,1.074-20.261,2.145c-17.714,10.945-36.437,20.433-53.671,32.068c-6.543,4.419-13.09,8.874-19.688,13.259
			c18.256-2.812,36.389-6.188,53.661-10.845c12.404-3.345,25.699-4.778,38.419-7.479c5.779-1.229,11.667-1.923,17.607-2.562
			c3.172-0.343,11.762-0.385,14.222-2.244c3.936-2.974-0.507-11.546-1.759-15.434c-0.655-2.028-1.213-4.111-1.893-6.133
			C252.424,231.002,252.461,230.049,248.681,229.577z"/>
		<path d="M207.239,211.237c4.756,3.078,13.372,3.855,19.397,4.879c14.576,2.474,29.091,4.162,43.247,7.746
			c22.647,5.738,47.06,10.4,67.917,19.133c-2.481,5.28-5.901,10.635-9.511,15.63c-15.717-1.401-32.092-1.327-47.869-2.853
			c-26.602-2.566-53.49-7.922-79.063-13.273c-12.416-2.598-25.813-5.215-37.657-7.891c2.958-8.346,6.625-17.057,9.555-25.31
			c10.752-1.433,24.552,0.894,34.839,2.724"/>
		<path d="M280.712,226.517c-18.841,7.368-37.897,14.186-57.116,20.502c18.7,3.658,37.833,6.921,56.824,8.753
			c15.777,1.525,32.152,1.451,47.869,2.853c3.609-4.995,7.029-10.35,9.511-15.63C320.231,235.641,300.147,231.173,280.712,226.517z"
			/>
		<path d="M126.832,191.423c4.498,3.441,13.029,4.896,18.953,6.392c14.336,3.615,28.674,6.442,42.501,11.132
			c22.125,7.507,46.094,14.078,66.198,24.429c-2.891,5.067-6.723,10.137-10.715,14.832c-15.554-2.638-31.885-3.854-47.492-6.618
			c-26.317-4.657-52.699-12.115-77.773-19.466c-12.172-3.569-25.32-7.234-36.918-10.837c3.607-8.086,7.949-16.479,11.521-24.476
			c10.83-0.581,24.406,2.824,34.516,5.461"/>
		<path d="M227.514,226.399c-20.248-3.14-40.389-7.246-60.652-10.192c-27.813-4.044-56.191-3.497-83.747-8.23
			c-0.513,1.104-1.039,2.215-1.528,3.31c11.598,3.603,24.746,7.268,36.918,10.837c25.074,7.351,51.456,14.809,77.773,19.466
			c15.607,2.764,31.938,3.98,47.492,6.618c3.992-4.695,7.824-9.765,10.715-14.832c-1.056-0.542-2.127-1.07-3.205-1.593
			C243.346,229.878,235.451,227.63,227.514,226.399z"/>
		<path d="M198.875,212.446c-19.365,5.86-38.897,11.153-58.557,15.937c18.354,5.12,37.168,9.883,55.959,13.206
			c15.607,2.764,31.938,3.98,47.492,6.618c3.992-4.695,7.824-9.765,10.715-14.832C237.552,224.658,217.88,218.621,198.875,212.446z"
			/>
		<path d="M214.994,173.711c16.854,3.995,33.842,7.455,50.689,11.556c29.996,7.304,58.962,17.705,89.381,23.312
			c7.139,1.313,8.826,0.571,8.511,7.557c-0.334,7.351-2.356,15.231-4.399,22.069c-11.061-7.071-26.244-7.653-38.946-10.283
			c-31.831-6.59-64.03-11.288-95.862-18.198c-9.314-2.02-9.951-2.132-10.977-12.035c-0.293-2.819-1.139-12.176,0.794-13.703"/>
		<path d="M293.122,207.725c-16.469-3.886-32.878-8.012-49.265-12.218c-7.019-1.8-14.008-3.773-21.105-5.237
			c-3.24-0.67-6.525-1.303-9.731-2.169c-0.221,3.381,0.183,7.798,0.37,9.586c1.025,9.903,1.662,10.016,10.977,12.035
			c31.832,6.91,64.031,11.608,95.862,18.198c12.702,2.63,27.886,3.212,38.946,10.283c1.652-5.536,3.278-11.752,4.02-17.819
			C339.684,217.075,316.29,213.191,293.122,207.725z"/>
		<path opacity="0.4" d="M355.065,208.578c-12.082-2.227-23.933-5.216-35.713-8.46c-19.059,6.037-38.139,12.15-57.546,16.934
			c19.501,3.539,39.03,6.854,58.424,10.869c12.702,2.63,27.886,3.212,38.946,10.283c2.043-6.838,4.065-14.719,4.399-22.069
			C363.891,209.149,362.203,209.891,355.065,208.578z"/>
		<path d="M288.19,129.531c-0.379-2.688-3.45-9.347-5.82-10.576c-1.754-0.908-6.135,0.636-7.852,0.936
			c-9.287,1.616-18.58,3.425-27.86,5.14c-35.361,6.542-70.834,11.549-106.095,18.938c-7.047,1.476-16.015,3.856-24.982,5.088
			c-9.242,3.403-18.549,6.628-27.889,9.754c-0.182,3.802,1.206,6.026,5.931,9.787c7.457,5.932,10.286,4.035,19.25,4.089
			c7.968,0.045,15.552,1.517,23.609,0.898c9.22-0.706,18.253-3.825,27.513-4.876c21.997-2.492,44.33-6.889,66.138-11.219
			c9.798-1.943,19.788-5.709,29.46-8.819C267.114,146.252,289.906,141.673,288.19,129.531z"/>
		<path d="M288.19,129.531c-0.379-2.688-3.45-9.347-5.82-10.576c-1.754-0.908-6.135,0.636-7.852,0.936
			c-3.575,0.623-7.151,1.278-10.728,1.939c-0.87,1.058-2.032,1.979-3.53,2.669c-31.266,14.402-65.071,19.577-98.003,28.603
			c-16.534,4.53-33.396,8.405-49.617,13.98c-4.589,1.574-9.078,3.266-13.559,4.88c4.087,1.637,7.365,0.687,13.791,0.725
			c7.968,0.045,15.552,1.517,23.609,0.898c9.22-0.706,18.253-3.825,27.513-4.876c21.997-2.492,44.33-6.889,66.138-11.219
			c9.798-1.943,19.788-5.709,29.46-8.819C267.114,146.252,289.906,141.673,288.19,129.531z"/>
		<path opacity="0.4" d="M288.19,129.531c-0.379-2.688-3.45-9.347-5.82-10.576c-1.754-0.908-6.135,0.636-7.852,0.936
			c-9.287,1.616-18.58,3.425-27.86,5.14c-9.069,1.68-18.147,3.255-27.226,4.797c-17.163,15.104-37.176,26.61-56.426,39.021
			c0.33-0.041,0.657-0.101,0.988-0.139c21.997-2.492,44.33-6.889,66.138-11.219c9.798-1.943,19.788-5.709,29.46-8.819
			C267.114,146.252,289.906,141.673,288.19,129.531z"/>
		<path d="M193.725,102.26c6.045,3.164,11.324,7.746,16.562,12.141c13.78,11.563,28.553,21.957,43.541,31.896
			c18.11,12.013,36.2,23.938,54.81,35.182c8.67,5.238,20.322,9.49,27.866,16.072c4.415,11.872-4.49,12.989-6.914,21.326
			c-4.517-1.927-9.044-2.904-12.939-5.859c-12.721-9.648-28.522-14.859-41.659-24.077c-20.221-14.193-43.253-24.213-61.162-41.377
			c-9.137-8.757-19.703-18.182-26.853-28.374C188.875,114.421,191.871,107.139,193.725,102.26"/>
		<path d="M336.844,207.425c-10.533-2.116-20.691-6.707-30.071-11.585c-13.547-7.046-27.118-14.378-40.265-22.149
			c-26.652-15.759-51.174-34.703-72.43-57.18c-1.982,1.491-3.984,2.924-6.1,4.064c7.112,9.663,17.13,18.63,25.85,26.989
			c17.909,17.164,40.941,27.184,61.162,41.377c13.137,9.218,28.938,14.429,41.659,24.077c3.896,2.955,8.423,3.933,12.939,5.859
			C331.089,213.716,335.074,211.319,336.844,207.425z"/>
		<path opacity="0.4" d="M336.503,197.552c-7.544-6.582-19.196-10.834-27.866-16.072c-9.998-6.04-19.844-12.282-29.627-18.625
			c-8.58-1.692-17.164-3.356-25.776-4.806c-11.173-1.878-22.385-3.534-33.574-5.301c16.907,14.121,37.239,23.494,55.331,36.193
			c13.137,9.218,28.938,14.429,41.659,24.077c3.896,2.955,8.423,3.933,12.939,5.859
			C332.013,210.541,340.918,209.424,336.503,197.552z"/>
		<path d="M293.908,161.067c-35.44,3.011-75.842,15.291-107.594,28.651c-11.456,4.819-30.328,5.02-42.047,9.345
			c-3.289,1.216-19.715,9.722-19.715,9.722s16.801,15.178,21.213,16.492c6.31,1.872,15.587-1.888,21.695-2.803
			c11.85-1.772,22.986-3.568,34.707-6.083c36-7.728,71.841-20.197,107.135-30.41c13.039-3.771,13.404-6.174,8.807-16.619
			c-1.021-2.324-2.229-11.364-4.914-12.773c-4.076-2.14-12.113,1.514-16.691,2.265"/>
		<path d="M316.914,165.071c-5.423,2.249-11.412,3.803-16.524,4.914c-17.782,3.865-35.077,11.419-52.599,16.607
			c-18.918,5.604-37.9,10.863-56.953,15.811c-8.514,2.21-17.123,4.093-25.586,6.549c-5.775,1.676-11.959,3.556-17.025,7.418
			c-1.416,2.682-2.713,5.452-3.959,8.253c0.519,0.282,1.025,0.511,1.498,0.654c6.31,1.872,15.587-1.888,21.695-2.803
			c11.85-1.772,22.986-3.568,34.707-6.083c36-7.728,71.841-20.197,107.135-30.41c13.039-3.771,13.404-6.174,8.807-16.619
			C317.752,168.551,317.371,166.913,316.914,165.071z"/>
		<path d="M264.112,255.844c-32.056-15.332-72.382-26.196-105.66-31.959c-12.006-2.079-24.078-3.434-36.102-6.013
			c-3.375-0.726-13.629-4.391-16.479-2.543c-3.78,2.448-1.092,11.856,2.18,15.029c4.676,4.532,14.339,6.322,20.035,8.668
			c11.043,4.558,21.479,8.736,32.731,12.673c34.56,12.084,71.006,20.541,106.014,30.415c12.931,3.649,14.275,2.036,14.748-8.057
			c0.106-2.245,2.923-9.606,1.195-11.994c-2.628-3.62-11.167-4.876-15.461-6.586"/>
		<path d="M282.377,270.255c-5.671-1.008-11.535-2.818-16.448-4.523c-17.093-5.932-35.335-8.864-52.766-13.679
			c-18.819-5.196-37.549-10.682-56.203-16.436c-8.337-2.571-16.618-5.436-25.014-7.798c-5.733-1.612-11.903-3.276-17.951-2.898
			c-2.376,1.303-4.687,2.729-6.966,4.205c0.329,0.47,0.67,0.892,1.021,1.233c4.676,4.532,14.339,6.322,20.035,8.668
			c11.043,4.558,21.479,8.736,32.731,12.673c34.56,12.084,71.006,20.541,106.014,30.415c12.931,3.649,14.275,2.036,14.748-8.057
			C281.615,273.273,281.987,271.858,282.377,270.255z"/>
		<path d="M281.579,274.058c0.106-2.245,2.923-9.606,1.195-11.994c-2.628-3.62-11.167-4.876-15.461-6.586l-3.202,0.366
			c-11.646-5.569-24.386-10.541-37.482-14.902c-19.144,5.992-38.777,10.03-58.594,13.217c32.391,10.802,66.217,18.768,98.796,27.956
			C279.762,285.764,281.107,284.151,281.579,274.058z"/>
		<path d="M373.885,239.926c-28.141-21.697-65.305-40.751-96.643-53.345c-11.307-4.543-22.826-8.393-34.047-13.429
			c-3.148-1.414-12.408-7.14-15.582-5.931c-4.208,1.604-3.547,11.367-1.012,15.153c3.627,5.409,12.701,9.18,17.779,12.664
			c9.849,6.766,19.18,13.034,29.361,19.237c31.268,19.041,65.143,34.93,97.311,51.906c11.884,6.271,13.535,4.975,16.106-4.797
			c0.574-2.172,4.868-8.781,3.677-11.478c-1.813-4.089-9.898-7.103-13.74-9.673"/>
		<path d="M388.735,257.834c-5.334-2.171-10.689-5.167-15.139-7.862c-15.475-9.374-32.699-16.057-48.738-24.407
			c-17.318-9.017-34.486-18.296-51.526-27.823c-7.615-4.258-15.114-8.79-22.829-12.855c-5.27-2.774-10.955-5.691-16.949-6.586
			c-2.596,0.776-5.154,1.688-7.691,2.656c0.225,0.527,0.47,1.012,0.74,1.419c3.627,5.409,12.701,9.18,17.779,12.664
			c9.849,6.766,19.18,13.034,29.361,19.237c31.268,19.041,65.143,34.93,97.311,51.906c11.884,6.271,13.535,4.975,16.106-4.797
			C387.36,260.628,388.018,259.321,388.735,257.834z"/>
		<path opacity="0.4" d="M387.159,261.385c0.574-2.172,4.868-8.781,3.677-11.478c-1.813-4.089-9.898-7.103-13.74-9.673l-3.211-0.31
			c-10.223-7.884-21.641-15.408-33.535-22.41c-19.975,1.857-40.02,1.7-60.063,0.674c29.416,17.335,60.829,32.196,90.767,47.993
			C382.937,272.454,384.588,271.157,387.159,261.385z"/>
		<path d="M316.541,252.923c-29.032-20.484-66.969-37.953-98.811-49.21c-11.486-4.063-23.162-7.421-34.585-11.979
			c-3.204-1.279-12.698-6.61-15.817-5.267c-4.137,1.778-3.063,11.507-0.369,15.182c3.851,5.25,13.075,8.636,18.297,11.903
			c10.125,6.342,19.715,12.212,30.148,17.979c32.043,17.701,66.559,32.147,99.416,47.747c12.139,5.766,13.732,4.4,15.891-5.471
			c0.48-2.196,4.492-8.981,3.188-11.625c-1.982-4.01-10.191-6.68-14.139-9.084"/>
		<path d="M332.133,270.19c-5.42-1.943-10.898-4.711-15.457-7.215c-15.855-8.713-33.35-14.661-49.727-22.326
			c-17.682-8.277-35.227-16.824-52.656-25.622c-7.785-3.931-15.471-8.143-23.354-11.879c-5.378-2.551-11.185-5.222-17.21-5.866
			c-2.562,0.887-5.077,1.904-7.571,2.98c0.244,0.517,0.51,0.99,0.801,1.386c3.851,5.25,13.075,8.636,18.297,11.903
			c10.125,6.342,19.715,12.212,30.148,17.979c32.043,17.701,66.559,32.147,99.416,47.747c12.139,5.766,13.732,4.4,15.891-5.471
			C330.879,273.04,331.481,271.707,332.133,270.19z"/>
		<path opacity="0.4" d="M330.711,273.807c0.48-2.196,4.492-8.981,3.188-11.625c-1.982-4.01-10.191-6.68-14.139-9.084l-3.219-0.176
			c-10.546-7.442-22.275-14.477-34.453-20.972c-19.879,2.7-39.91,3.39-59.98,3.213c30.123,16.075,62.133,29.596,92.713,44.114
			C326.959,285.044,328.553,283.678,330.711,273.807z"/>
		<path d="M167.307,251.464c16.147-6.275,32.099-13.064,48.3-19.247c28.841-11.006,58.593-18.878,86.823-31.522
			c6.623-2.968,7.594-4.538,11.297,1.395c3.896,6.243,6.701,13.879,8.9,20.669c-13.123,0.453-25.954,8.59-37.906,13.631
			c-29.948,12.635-59.129,27.037-89.26,39.409c-8.816,3.622-9.405,3.892-15.868-3.682c-1.841-2.156-7.849-9.38-7.121-11.734"/>
		<path d="M250.943,235.14c-15.767,6.146-31.62,12.058-47.501,17.895c-6.8,2.501-13.676,4.84-20.35,7.66
			c-3.049,1.288-6.113,2.631-9.246,3.737c1.74,2.91,4.579,6.316,5.747,7.684c6.463,7.573,7.052,7.304,15.868,3.682
			c30.131-12.372,59.312-26.774,89.26-39.409c11.952-5.041,24.783-13.178,37.906-13.631c-1.781-5.497-3.97-11.538-6.802-16.955
			C294.586,216.42,273.122,226.495,250.943,235.14z"/>
		<path opacity="0.4" d="M302.43,200.694c-11.213,5.022-22.666,9.287-34.206,13.298c-12.27,15.787-24.511,31.646-37.776,46.598
			c18.063-8.151,36.027-16.502,54.273-24.201c11.952-5.041,24.783-13.178,37.906-13.631c-2.199-6.79-5.005-14.426-8.9-20.669
			C310.024,196.156,309.053,197.726,302.43,200.694z"/>
		<path d="M163.141,141.465c16.857,3.994,33.842,7.453,50.69,11.555c29.996,7.304,58.962,17.703,89.381,23.311
			c7.138,1.314,8.827,0.572,8.511,7.558c-0.334,7.351-2.356,15.231-4.398,22.069c-11.063-7.071-26.245-7.654-38.947-10.284
			c-31.83-6.589-64.031-11.287-95.863-18.198c-9.313-2.019-9.951-2.131-10.977-12.034c-0.291-2.82-1.139-12.176,0.795-13.703"/>
		<path d="M241.27,175.477c-16.469-3.885-32.878-8.012-49.266-12.217c-7.018-1.8-14.008-3.773-21.104-5.238
			c-3.241-0.67-6.525-1.303-9.732-2.168c-0.223,3.381,0.184,7.797,0.369,9.586c1.025,9.903,1.664,10.016,10.977,12.034
			c31.832,6.911,64.033,11.609,95.863,18.198c12.702,2.63,27.885,3.213,38.947,10.284c1.652-5.536,3.277-11.753,4.02-17.82
			C287.831,184.826,264.438,180.944,241.27,175.477z"/>
		<path d="M199.412,279.25c17.068-2.961,34.047-6.464,51.149-9.322c30.45-5.088,61.172-6.924,91.343-13.738
			c7.08-1.601,8.34-2.948,10.798,3.6c2.585,6.89,3.825,14.929,4.639,22.021c-12.949-2.149-27.138,3.289-39.852,5.87
			c-31.854,6.465-63.306,14.815-95.288,20.988c-9.357,1.808-9.988,1.955-14.826-6.746c-1.379-2.477-5.84-10.746-4.662-12.909"/>
		<path d="M284.623,279.778c-16.669,2.908-33.379,5.571-50.098,8.152c-7.162,1.107-14.365,2.043-21.463,3.488
			c-3.244,0.659-6.512,1.371-9.802,1.835c1.128,3.197,3.239,7.098,4.114,8.668c4.838,8.701,5.469,8.554,14.826,6.746
			c31.982-6.173,63.434-14.523,95.288-20.988c12.714-2.581,26.902-8.02,39.852-5.87c-0.657-5.741-1.61-12.096-3.314-17.965
			C331.108,270.053,308.073,275.687,284.623,279.778z"/>
		<path d="M236.101,293.969c7.507,1.899,14.763,4.489,22.06,7.015c19.77-4.511,39.472-9.273,59.329-13.304
			c3.404-0.691,6.917-1.587,10.479-2.487c-4.513-1.198-9.044-2.317-13.606-3.264c-5.942-1.232-11.84-2.52-17.464-4.451
			c-4.081,0.806-8.17,1.584-12.275,2.301c-16.669,2.908-33.379,5.571-50.098,8.152c-5.005,0.773-10.03,1.473-15.025,2.312
			C225.067,291.457,230.702,292.602,236.101,293.969z"/>
		<path opacity="0.4" d="M341.905,256.189c-11.981,2.707-24.056,4.623-36.161,6.274c-15.147,13.05-30.279,26.178-46.24,38.21
			c19.32-4.419,38.579-9.055,57.986-12.994c12.714-2.581,26.902-8.02,39.852-5.87c-0.813-7.092-2.054-15.131-4.639-22.021
			C350.244,253.241,348.985,254.589,341.905,256.189z"/>
		<path d="M138.331,274.62c4.497,3.442,13.027,4.896,18.952,6.393c14.336,3.615,28.674,6.442,42.5,11.132
			c22.127,7.506,46.096,14.079,66.199,24.429c-2.89,5.066-6.722,10.137-10.713,14.832c-15.557-2.638-31.887-3.854-47.494-6.619
			c-26.316-4.656-52.699-12.115-77.772-19.465c-12.173-3.569-25.321-7.234-36.917-10.838c3.606-8.085,7.948-16.479,11.521-24.475
			c10.83-0.581,24.403,2.824,34.516,5.46"/>
		<path d="M239.012,309.597c-20.248-3.14-40.389-7.246-60.652-10.191c-27.814-4.046-56.191-3.499-83.747-8.232
			c-0.512,1.106-1.038,2.216-1.526,3.31c11.596,3.604,24.744,7.269,36.917,10.838c25.073,7.35,51.456,14.809,77.772,19.465
			c15.607,2.765,31.938,3.981,47.494,6.619c3.991-4.695,7.823-9.766,10.713-14.832c-1.057-0.542-2.127-1.07-3.203-1.594
			C254.845,313.075,246.951,310.829,239.012,309.597z"/>
		<path opacity="0.4" d="M210.372,295.644c-19.363,5.86-38.897,11.152-58.556,15.937c18.354,5.119,37.169,9.882,55.959,13.205
			c15.607,2.765,31.938,3.981,47.494,6.619c3.991-4.695,7.823-9.766,10.713-14.832C249.049,307.855,229.38,301.818,210.372,295.644z
			"/>
		<path d="M362.08,312.106c-16.926-3.688-33.973-6.837-50.893-10.63c-30.125-6.757-59.275-16.628-89.79-21.679
			c-7.163-1.184-8.837-0.41-8.647-7.4c0.197-7.355,2.077-15.271,3.994-22.146c11.188,6.868,26.381,7.173,39.128,9.571
			c31.945,6.009,64.226,10.119,96.179,16.447c9.348,1.851,9.989,1.951,11.193,11.834c0.344,2.813,1.362,12.153-0.543,13.715"/>
		<path d="M283.345,279.521c16.536,3.585,33.018,7.411,49.479,11.318c7.052,1.67,14.074,3.517,21.194,4.851
			c3.254,0.611,6.549,1.185,9.772,1.992c0.159-3.385-0.325-7.794-0.546-9.578c-1.204-9.883-1.846-9.983-11.193-11.834
			c-31.953-6.328-64.233-10.438-96.179-16.447c-12.747-2.398-27.939-2.703-39.128-9.571c-1.55,5.565-3.063,11.81-3.695,17.89
			C236.619,271.022,260.08,274.478,283.345,279.521z"/>
		<path opacity="0.4" d="M360.27,278.796c-9.904,0.545-19.826,0.905-29.749,1.264c-15.06,1.553-30.114,3.077-45.192,4.156
			c-10.727,0.77-21.477,1.595-32.241,2.336c19.382,4.842,38.538,10.537,58.101,14.925c16.92,3.793,33.967,6.942,50.893,10.63
			l0.621-10.287c1.905-1.562,0.887-10.901,0.543-13.715C362.587,282.715,362.096,280.237,360.27,278.796z"/>
		<path d="M283.024,330.968c-27.8-6.58-70.369-15.045-97.499-13.896c-9.79,0.415-19.504,1.406-29.393,1.433
			c-2.775,0.006-2.421,5.683-4.346,7.62c-2.552,2.568,1.163,9.5,4.274,11.437c4.449,2.762,12.346,2.521,17.219,3.394
			c9.457,1.697,18.367,3.199,27.883,4.374c29.213,3.6,59.291,4.026,88.479,5.815c10.782,0.659,11.563-0.838,10.214-8.848
			c-0.301-1.781,0.658-8.046-1.107-9.625c-2.682-2.396-9.604-1.926-13.268-2.539"/>
		<path d="M299.834,339.172c-4.629,0.177-9.543-0.245-13.695-0.748c-14.441-1.743-29.275-0.938-43.791-1.747
			c-15.674-0.873-31.322-1.988-46.963-3.328c-6.988-0.598-13.983-1.435-20.982-1.862c-4.777-0.288-9.91-0.542-14.597,0.788
			c-1.646,1.429-3.216,2.94-4.757,4.492c0.34,0.313,0.678,0.585,1.012,0.794c4.449,2.762,12.346,2.521,17.219,3.394
			c9.457,1.697,18.367,3.199,27.883,4.374c29.213,3.6,59.291,4.026,88.479,5.815c10.782,0.659,11.563-0.838,10.214-8.848
			C299.752,341.674,299.799,340.499,299.834,339.172z"/>
		<path opacity="0.4" d="M165.062,321.311c-0.169,0.074-0.376,0.164-0.625,0.272c-0.769,0.334-1.534,0.674-2.3,1.013
			c1.729-0.724,3.453-1.46,5.174-2.208c-0.564,0.229-1.13,0.457-1.692,0.691C165.399,321.171,165.217,321.247,165.062,321.311z"/>
		<path opacity="0.4" d="M298.748,332.671c-2.682-2.396-9.604-1.926-13.268-2.539l-2.457,0.836
			c-5.572-1.318-11.742-2.713-18.258-4.091c-5.027,2.263-10.193,4.25-15.382,5.966c-16.141,5.335-32.866,8.273-49.39,12.107
			c-0.197,0.045-0.39,0.098-0.584,0.144c0.586,0.076,1.159,0.161,1.752,0.234c29.213,3.6,59.291,4.026,88.479,5.815
			c10.782,0.659,11.563-0.838,10.214-8.848C299.555,340.514,300.514,334.25,298.748,332.671z"/>
	</g>
	<g>
		<g>
			<g>
				<path fill="#C5892A" d="M326.276,221.818c-33.51-11.822-74.767-18.314-108.471-20.49c-12.16-0.784-24.305-0.843-36.537-2.123
					c-3.432-0.359-14.018-2.906-16.654-0.767c-3.498,2.838,0.182,11.906,3.771,14.711c5.135,4.006,14.933,4.754,20.846,6.478
					c11.469,3.351,22.291,6.392,33.9,9.104c35.65,8.321,72.793,12.835,108.654,18.915c13.248,2.246,14.412,0.498,13.803-9.588
					c-0.133-2.242,1.881-9.862-0.092-12.052c-2.998-3.318-11.621-3.655-16.074-4.897"/>
			</g>
			<g>
				<path fill="#C5892A" d="M328.752,244.379c-21.231-6.455-48.491-6.827-71.194-4.193c-8.191,0.951-16.474,2.581-24.646,3.076
					c-2.293,0.139-9.164-0.785-11.262,1.591c-2.78,3.151-1.527,11.159,0.534,13.295c2.948,3.05,9.532,2.394,13.329,3.192
					c7.363,1.555,14.33,2.91,21.876,3.847c23.18,2.869,47.906,1.954,71.54,2.688c8.73,0.271,9.769-1.532,10.752-10.922
					c0.22-2.087,2.654-9.525,1.611-11.308c-1.587-2.7-7.427-1.82-10.293-2.369"/>
			</g>
			<g>
				<path fill="#C5892A" d="M228.31,270.099c-21.233-6.455-48.492-6.827-71.195-4.193c-8.191,0.951-16.474,2.581-24.646,3.076
					c-2.292,0.139-9.164-0.785-11.26,1.591c-2.781,3.151-1.529,11.159,0.531,13.295c2.949,3.05,9.534,2.394,13.33,3.192
					c7.363,1.555,14.328,2.91,21.876,3.847c23.181,2.869,47.906,1.954,71.54,2.688c8.73,0.271,9.769-1.532,10.752-10.922
					c0.221-2.087,2.652-9.525,1.61-11.308c-1.587-2.7-7.426-1.82-10.293-2.369"/>
			</g>
			<g>
				<path fill="#C5892A" d="M219.864,168.74c-21.231-6.455-48.491-6.827-71.195-4.193c-8.19,0.951-16.473,2.581-24.645,3.076
					c-2.293,0.139-9.164-0.785-11.262,1.591c-2.78,3.151-1.527,11.159,0.534,13.295c2.948,3.05,9.532,2.394,13.331,3.192
					c7.362,1.555,14.327,2.91,21.875,3.847c23.179,2.869,47.905,1.954,71.539,2.688c8.731,0.271,9.769-1.532,10.752-10.922
					c0.22-2.087,2.653-9.525,1.609-11.308c-1.585-2.7-7.425-1.82-10.292-2.369"/>
			</g>
			<g>
				<path fill="#C5892A" d="M341.261,177.751c-5.903-2.244-11.655-4.294-17.871-6.109c-22.422-6.543-46.974-9.599-70.187-14.106
					c-8.575-1.666-9.889-0.052-12.362,9.06c-0.551,2.024-4.144,8.978-3.399,10.904c1.133,2.919,7.037,2.985,9.779,3.986l2.395-0.729
					c19.926,9.771,46.774,14.502,69.605,15.537c8.239,0.373,16.676,0.09,24.82,0.909c1.771,0.178,6.145,1.417,9.168,1.036
					C349.274,191.4,344.864,184.744,341.261,177.751z"/>
			</g>
			<g>
				<path fill="#DFAA41" d="M103.52,255.781c6.082,1.699,11.997,3.219,18.353,4.463c22.923,4.481,47.65,5.297,71.176,7.681
					c8.692,0.882,9.851-0.845,11.49-10.144c0.364-2.065,3.312-9.316,2.396-11.168c-1.393-2.804-7.28-2.334-10.102-3.082
					l-2.319,0.944c-20.729-7.925-47.895-10.2-70.726-9.159c-8.239,0.376-16.615,1.422-24.801,1.345
					c-1.78-0.016-6.247-0.854-9.224-0.2C94.301,242.914,99.298,249.142,103.52,255.781z"/>
			</g>
			<g>
				<path fill="#C5892A" d="M223.223,312.595c6.313,0.23,12.416,0.325,18.887,0.049c23.336-1.002,47.568-5.991,70.999-9.175
					c8.657-1.176,9.382-3.125,8.8-12.549c-0.129-2.094,1.041-9.833-0.281-11.419c-2.01-2.4-7.625-0.566-10.543-0.634l-2.035,1.459
					c-22.006-2.857-48.951,1.282-70.906,7.633c-7.922,2.292-15.822,5.269-23.799,7.106c-1.734,0.4-6.273,0.631-9.014,1.962
					C211.252,302.241,217.567,307.129,223.223,312.595z"/>
			</g>
			<g>
				<path fill="#C5892A" d="M106.526,237.934c7.527,4.679,15.526,8.723,21.731,15.207c1.542,1.61,2.649,3.497,3.341,5.498
					c2.706,0.978,5.429,1.907,8.168,2.79c5.404-1.069,11.027-1.645,16.622-2.191c1.978-0.193,3.956-0.375,5.931-0.598
					c0.449-0.049,0.898-0.104,1.35-0.156c0.061-0.01,0.105-0.016,0.174-0.026c3.398-0.576,6.498-1.612,9.707-2.888
					c1.762-0.7,3.527-1.431,5.295-2.17c3.469-3.629,7.023-7.336,10.84-10.619c-20.003-6.546-44.795-8.427-65.896-7.465
					c-6.273,0.286-12.625,0.958-18.91,1.229C105.129,236.739,108.352,239.07,106.526,237.934z"/>
			</g>
			<g>
				<path fill="#FFCD43" d="M214.111,123.147c-6.849,0.553-15.139,8.057-20.792,11.486c-16.991,10.312-34.043,21.102-51.484,30.614
					c-22.715,12.389-45.746,26.861-67.15,41.488c-4.978,3.403-5.871,3.6-6.666,8.747c-0.314,2.019-0.158,9.817,1.248,11.301
					c3.336,3.519,14.463-0.402,18.933-1.743c21.847-6.557,45.122-16.597,65.368-28.053c16.925-9.577,32.664-21.698,47.979-33.688
					c7.482-5.857,26.202-19.563,27.447-29.913L214.111,123.147z"/>
				<path fill="#DFAA41" d="M223.496,130.558c-29.479,21.489-58.104,44.617-90.518,61.561c-14.717,7.69-31.51,10.816-45.973,18.937
					c-1.561,0.875-5.939,3.089-6.483,3.993c-1.474,2.458-2.419,5.035-3.376,7.721c-0.723,2.03-1.459,4.154-2.332,6.218
					c4.565-0.297,10.287-2.25,13.195-3.122c21.849-6.559,45.123-16.599,65.371-28.054c16.92-9.578,32.662-21.7,47.976-33.688
					c7.483-5.857,26.204-19.563,27.447-29.914L223.496,130.558z"/>
				<path fill="#D29A37" d="M228.992,133.387l-14.882-10.24c-6.849,0.553-15.139,8.057-20.792,11.486
					c-8.518,5.168-17.049,10.455-25.635,15.644c-9.322,18.376-18.977,36.583-28.98,54.593c5.084-2.529,10.061-5.164,14.863-7.882
					c16.925-9.577,32.664-21.698,47.979-33.688C209.028,157.443,227.747,143.738,228.992,133.387z"/>
			</g>
			<g>
				<path fill="#FFCD43" d="M351.963,131.053c-6.85,0.554-15.139,8.057-20.793,11.487c-16.992,10.31-34.041,21.102-51.484,30.613
					c-22.715,12.389-45.746,26.86-67.15,41.489c-4.977,3.403-5.869,3.599-6.666,8.747c-0.313,2.018-0.157,9.816,1.25,11.301
					c3.336,3.518,14.461-0.402,18.933-1.743c21.847-6.558,45.122-16.598,65.368-28.054c16.922-9.577,32.662-21.698,47.977-33.688
					c7.483-5.857,26.203-19.562,27.447-29.913L351.963,131.053z"/>
				<path fill="#DFAA41" d="M361.349,138.466c-29.478,21.489-58.103,44.615-90.519,61.56c-14.715,7.691-31.507,10.817-45.973,18.936
					c-1.561,0.876-5.938,3.09-6.482,3.994c-1.473,2.458-2.42,5.035-3.375,7.721c-0.726,2.029-1.461,4.155-2.332,6.217
					c4.565-0.295,10.285-2.25,13.194-3.12c21.849-6.559,45.124-16.599,65.37-28.056c16.922-9.576,32.662-21.698,47.977-33.687
					c7.483-5.856,26.202-19.562,27.445-29.913L361.349,138.466z"/>
				<path opacity="0.4" fill="#DF9F4B" d="M347.647,150.207c-1.527-4.797-3.854-9.699-6.104-14.759
					c-3.787,2.435-7.436,5.311-10.373,7.093c-8.516,5.167-17.047,10.455-25.636,15.642c-9.321,18.377-18.974,36.584-28.979,54.595
					c5.085-2.53,10.063-5.164,14.865-7.883c16.922-9.577,32.662-21.698,47.977-33.688c2.721-2.13,6.928-5.3,11.24-8.966
					C349.815,158.178,348.901,154.145,347.647,150.207z"/>
			</g>
			<g>
				<path fill="#FFCD43" d="M175.469,159.062c28.531,2.1,57.842,3.943,85.73,2.31c12.826-0.75,26.135,0.55,39.137,0.493
					c5.908-0.026,11.814,0.491,17.761,1.074c3.176,0.311,11.595,2.017,14.381,0.696c4.458-2.111,1.853-11.407,1.417-15.469
					c-0.227-2.119-0.35-4.272-0.604-6.39c-0.429-3.591-0.197-4.517-3.803-5.746c-1.977-0.671-5.517-0.271-7.547-0.412
					c-4.781-0.325-9.421-1.08-14.167-1.979c-12.396-2.341-23.749-1.827-36.075-2.841c-24.409-2.005-48.578-1.772-72.773-1.848
					c-8.328-0.028-16.63-0.076-24.939,0.004c-4.549,0.046-9.17,0.128-13.791-0.386c-1.863-0.206-5.813-1.562-7.568-1.209
					c-9.611,1.915-10.9,11.798-12.991,17.771c8.698,6.256,12.589,7.431,24.493,10.621c1.92,0.517,3.729,0.615,5.793,1.205
					C172.471,157.689,172.44,158.865,175.469,159.062"/>
				<path fill="#DFAA41" d="M235.321,143.185c-10.779-0.516-21.482-1.82-32.287-1.521c-11.434,0.314-22.848,1.398-34.286,1.447
					c-4.519,0.019-8.801-1.396-13.288-1.634c-2.663-0.141-2.552-0.126-3.984,2.504c-1.152,2.116-2.107,4.35-3.038,6.595
					c4.19,2.04,8.464,3.238,15.692,5.177c1.92,0.517,3.729,0.615,5.793,1.205c2.549,0.731,2.518,1.907,5.547,2.104
					c28.531,2.1,57.842,3.943,85.73,2.31c12.826-0.75,26.135,0.55,39.137,0.493c5.908-0.026,11.814,0.491,17.761,1.074
					c3.176,0.311,11.595,2.017,14.381,0.696c4.458-2.111,1.853-11.407,1.417-15.469c-0.125-1.16-0.221-2.33-0.322-3.499
					C300.959,142.234,267.948,144.747,235.321,143.185z"/>
				<path opacity="0.4" fill="#DF9F4B" d="M329.489,136.031c-1.977-0.671-5.517-0.271-7.547-0.412
					c-4.781-0.325-9.421-1.08-14.167-1.979c-6.969-1.315-13.606-1.729-20.274-2.021c-19.57,7.111-39.832,12.593-59.072,20.479
					c-7.306,2.995-14.622,6.025-21.973,8.977c18.445,0.961,36.887,1.344,54.744,0.297c12.826-0.75,26.135,0.55,39.137,0.493
					c5.908-0.026,11.814,0.491,17.761,1.074c3.176,0.311,11.595,2.017,14.381,0.696c4.458-2.111,1.853-11.407,1.417-15.469
					c-0.227-2.119-0.35-4.272-0.604-6.39C332.863,138.186,333.094,137.26,329.489,136.031z"/>
			</g>
			<g>
				<path fill="#FFCD43" d="M94.942,280.189c28.361-3.747,57.436-7.904,84.408-15.177c12.404-3.345,25.699-4.778,38.419-7.479
					c5.779-1.229,11.667-1.923,17.606-2.562c3.174-0.343,11.762-0.385,14.223-2.244c3.936-2.974-0.506-11.546-1.759-15.434
					c-0.655-2.028-1.212-4.111-1.892-6.133c-1.15-3.429-1.111-4.382-4.893-4.854c-2.072-0.253-5.455,0.857-7.473,1.133
					c-4.746,0.653-9.445,0.859-14.273,0.944c-12.611,0.229-23.624,3.041-35.897,4.556c-24.308,3.002-47.925,8.146-71.628,12.994
					c-8.158,1.666-16.298,3.309-24.417,5.077c-4.446,0.971-8.952,1.99-13.581,2.427c-1.867,0.179-6.011-0.344-7.658,0.356
					c-9.021,3.831-8.271,13.769-9.104,20.044c9.789,4.354,13.836,4.714,26.143,5.415c1.984,0.115,3.773-0.156,5.916,0.003
					C91.727,279.454,91.936,280.613,94.942,280.189"/>
				<path fill="#DFAA41" d="M150.311,252.469c-10.657,1.688-21.402,2.587-31.921,5.078c-11.13,2.633-22.085,6.018-33.274,8.391
					c-4.42,0.938-8.902,0.425-13.342,1.104c-2.639,0.405-2.525,0.396-3.393,3.263c-0.699,2.306-1.178,4.688-1.634,7.074
					c4.518,1.146,8.945,1.45,16.419,1.876c1.984,0.115,3.773-0.156,5.916,0.003c2.645,0.196,2.854,1.355,5.859,0.932
					c28.361-3.747,57.436-7.904,84.408-15.177c12.404-3.345,25.699-4.778,38.419-7.479c5.779-1.229,11.667-1.923,17.606-2.562
					c3.174-0.343,11.762-0.385,14.223-2.244c3.936-2.974-0.506-11.546-1.759-15.434c-0.358-1.11-0.692-2.237-1.028-3.36
					C214.385,238.185,182.575,247.362,150.311,252.469z"/>
				<path fill="#D29A37" d="M241.055,226.308c-2.072-0.253-5.455,0.857-7.473,1.133c-4.746,0.653-9.445,0.859-14.273,0.944
					c-7.09,0.129-13.674,1.074-20.262,2.145c-17.715,10.945-36.437,20.433-53.67,32.068c-6.545,4.419-13.091,8.874-19.688,13.259
					c18.254-2.812,36.389-6.188,53.66-10.845c12.404-3.345,25.699-4.778,38.419-7.479c5.779-1.229,11.667-1.923,17.606-2.562
					c3.174-0.343,11.762-0.385,14.223-2.244c3.936-2.974-0.506-11.546-1.759-15.434c-0.655-2.028-1.212-4.111-1.892-6.133
					C244.797,227.733,244.836,226.78,241.055,226.308z"/>
			</g>
			<g>
				<path fill="#D29A37" d="M199.612,207.969c4.756,3.078,13.373,3.855,19.398,4.879c14.576,2.474,29.092,4.162,43.247,7.746
					c22.647,5.738,47.06,10.4,67.917,19.133c-2.48,5.28-5.901,10.635-9.511,15.63c-15.716-1.401-32.093-1.327-47.868-2.853
					c-26.602-2.566-53.49-7.922-79.064-13.273c-12.416-2.598-25.813-5.215-37.657-7.891c2.958-8.346,6.625-17.057,9.555-25.31
					c10.752-1.433,24.552,0.894,34.839,2.724"/>
				<path fill="#D29A37" d="M273.086,223.249c-18.842,7.368-37.896,14.186-57.117,20.502c18.701,3.658,37.834,6.921,56.826,8.753
					c15.775,1.525,32.152,1.451,47.868,2.853c3.609-4.995,7.03-10.35,9.511-15.63C312.606,232.373,292.522,227.904,273.086,223.249z
					"/>
			</g>
			<g>
				<path fill="#FFCD43" d="M119.206,188.154c4.497,3.441,13.028,4.896,18.953,6.392c14.336,3.615,28.673,6.442,42.501,11.132
					c22.125,7.507,46.094,14.078,66.198,24.429c-2.89,5.067-6.722,10.137-10.714,14.832c-15.555-2.638-31.886-3.854-47.494-6.618
					c-26.316-4.657-52.699-12.115-77.771-19.466c-12.173-3.569-25.321-7.234-36.918-10.837c3.605-8.086,7.949-16.479,11.521-24.476
					c10.831-0.581,24.406,2.824,34.515,5.461"/>
				<path fill="#DFAA41" d="M219.889,223.131c-20.249-3.14-40.391-7.246-60.654-10.192c-27.813-4.044-56.19-3.497-83.746-8.23
					c-0.512,1.104-1.039,2.215-1.527,3.31c11.597,3.603,24.745,7.268,36.918,10.837c25.072,7.351,51.455,14.809,77.771,19.466
					c15.608,2.764,31.939,3.98,47.494,6.618c3.992-4.695,7.824-9.765,10.714-14.832c-1.056-0.542-2.128-1.07-3.204-1.593
					C235.721,226.609,227.826,224.361,219.889,223.131z"/>
				<path fill="#D29A37" d="M191.248,209.177c-19.363,5.86-38.896,11.153-58.555,15.937c18.354,5.12,37.168,9.883,55.957,13.206
					c15.608,2.764,31.939,3.98,47.494,6.618c3.992-4.695,7.824-9.765,10.714-14.832
					C229.926,221.389,210.254,215.352,191.248,209.177z"/>
			</g>
			<g>
				<path fill="#FFCD43" d="M207.367,170.442c16.855,3.995,33.843,7.455,50.69,11.556c29.995,7.304,58.962,17.705,89.38,23.312
					c7.139,1.313,8.828,0.571,8.512,7.557c-0.334,7.351-2.356,15.231-4.4,22.069c-11.06-7.071-26.243-7.653-38.945-10.283
					c-31.83-6.59-64.031-11.288-95.861-18.198c-9.314-2.02-9.953-2.132-10.978-12.035c-0.292-2.819-1.138-12.176,0.794-13.703"/>
				<path fill="#D29A37" d="M285.496,204.457c-16.469-3.886-32.878-8.012-49.266-12.218c-7.018-1.8-14.007-3.773-21.104-5.237
					c-3.242-0.67-6.525-1.303-9.732-2.169c-0.221,3.381,0.184,7.798,0.37,9.586c1.024,9.903,1.663,10.016,10.978,12.035
					c31.83,6.91,64.031,11.608,95.861,18.198c12.702,2.63,27.886,3.212,38.945,10.283c1.654-5.536,3.279-11.752,4.021-17.819
					C332.058,213.806,308.664,209.923,285.496,204.457z"/>
				<path opacity="0.4" fill="#DF9F4B" d="M347.438,205.309c-12.08-2.227-23.932-5.216-35.712-8.46
					c-19.06,6.037-38.138,12.15-57.546,16.934c19.501,3.539,39.03,6.854,58.424,10.869c12.702,2.63,27.886,3.212,38.945,10.283
					c2.044-6.838,4.066-14.719,4.4-22.069C356.266,205.881,354.576,206.623,347.438,205.309z"/>
			</g>
			<g>
				<path fill="#FFCD43" d="M280.563,126.262c-0.377-2.688-3.449-9.347-5.819-10.576c-1.754-0.908-6.134,0.636-7.853,0.936
					c-9.285,1.616-18.58,3.425-27.859,5.14c-35.361,6.542-70.834,11.549-106.095,18.938c-7.047,1.476-16.015,3.856-24.982,5.088
					c-9.242,3.403-18.548,6.628-27.889,9.754c-0.182,3.802,1.206,6.026,5.931,9.787c7.457,5.932,10.287,4.035,19.25,4.089
					c7.967,0.045,15.551,1.517,23.609,0.898c9.22-0.706,18.254-3.825,27.512-4.876c21.998-2.492,44.332-6.889,66.139-11.219
					c9.798-1.943,19.787-5.709,29.459-8.819C259.487,142.983,282.28,138.404,280.563,126.262z"/>
				<path fill="#DFAA41" d="M280.563,126.262c-0.377-2.688-3.449-9.347-5.819-10.576c-1.754-0.908-6.134,0.636-7.853,0.936
					c-3.574,0.623-7.15,1.278-10.727,1.939c-0.869,1.058-2.031,1.979-3.531,2.669c-31.266,14.402-65.07,19.577-98.002,28.603
					c-16.533,4.53-33.396,8.405-49.617,13.98c-4.589,1.574-9.078,3.266-13.559,4.88c4.088,1.637,7.365,0.687,13.791,0.725
					c7.967,0.045,15.551,1.517,23.609,0.898c9.22-0.706,18.254-3.825,27.512-4.876c21.998-2.492,44.332-6.889,66.139-11.219
					c9.798-1.943,19.787-5.709,29.459-8.819C259.487,142.983,282.28,138.404,280.563,126.262z"/>
				<path opacity="0.4" fill="#DF9F4B" d="M280.563,126.262c-0.377-2.688-3.449-9.347-5.819-10.576
					c-1.754-0.908-6.134,0.636-7.853,0.936c-9.285,1.616-18.58,3.425-27.859,5.14c-9.07,1.68-18.146,3.255-27.226,4.797
					c-17.163,15.104-37.177,26.61-56.425,39.021c0.329-0.041,0.656-0.101,0.986-0.139c21.998-2.492,44.332-6.889,66.139-11.219
					c9.798-1.943,19.787-5.709,29.459-8.819C259.487,142.983,282.28,138.404,280.563,126.262z"/>
			</g>
			<g>
				<path fill="#FFCD43" d="M186.098,98.992c6.047,3.164,11.326,7.746,16.563,12.141c13.781,11.563,28.553,21.957,43.541,31.896
					c18.111,12.013,36.201,23.938,54.811,35.182c8.67,5.238,20.32,9.49,27.865,16.072c4.414,11.872-4.49,12.989-6.914,21.326
					c-4.517-1.927-9.043-2.904-12.939-5.859c-12.721-9.648-28.523-14.859-41.66-24.077c-20.219-14.193-43.252-24.213-61.16-41.377
					c-9.138-8.757-19.705-18.182-26.854-28.374C181.248,111.152,184.244,103.871,186.098,98.992"/>
				<path fill="#DFAA41" d="M329.217,204.156c-10.531-2.116-20.69-6.707-30.07-11.585c-13.547-7.046-27.119-14.378-40.266-22.149
					c-26.651-15.759-51.172-34.703-72.43-57.18c-1.982,1.491-3.982,2.924-6.098,4.064c7.111,9.663,17.129,18.63,25.85,26.989
					c17.908,17.164,40.941,27.184,61.16,41.377c13.137,9.218,28.939,14.429,41.66,24.077c3.896,2.955,8.423,3.933,12.939,5.859
					C323.463,210.447,327.448,208.051,329.217,204.156z"/>
				<path opacity="0.4" fill="#DF9F4B" d="M328.877,194.283c-7.545-6.582-19.195-10.834-27.865-16.072
					c-9.999-6.04-19.846-12.282-29.628-18.625c-8.579-1.692-17.163-3.356-25.776-4.806c-11.174-1.878-22.385-3.534-33.574-5.301
					c16.908,14.121,37.24,23.494,55.33,36.193c13.137,9.218,28.939,14.429,41.66,24.077c3.896,2.955,8.423,3.933,12.939,5.859
					C324.387,207.272,333.291,206.155,328.877,194.283z"/>
			</g>
			<g>
				<path fill="#FFCD43" d="M286.282,157.799c-35.44,3.011-75.843,15.291-107.594,28.651c-11.456,4.819-30.329,5.02-42.047,9.345
					c-3.289,1.216-19.714,9.722-19.714,9.722s16.799,15.178,21.211,16.492c6.311,1.872,15.588-1.888,21.697-2.803
					c11.85-1.772,22.985-3.568,34.707-6.083c36-7.728,71.84-20.197,107.134-30.41c13.04-3.771,13.403-6.174,8.806-16.619
					c-1.02-2.324-2.228-11.364-4.913-12.773c-4.077-2.14-12.113,1.514-16.69,2.265"/>
				<path fill="#DFAA41" d="M309.287,161.802c-5.422,2.249-11.412,3.803-16.523,4.914c-17.782,3.865-35.078,11.419-52.598,16.607
					c-18.919,5.604-37.9,10.863-56.954,15.811c-8.514,2.21-17.123,4.093-25.585,6.549c-5.777,1.676-11.959,3.556-17.026,7.418
					c-1.415,2.682-2.713,5.452-3.959,8.253c0.519,0.282,1.026,0.511,1.497,0.654c6.311,1.872,15.588-1.888,21.697-2.803
					c11.85-1.772,22.985-3.568,34.707-6.083c36-7.728,71.84-20.197,107.134-30.41c13.04-3.771,13.403-6.174,8.806-16.619
					C310.127,165.282,309.746,163.644,309.287,161.802z"/>
			</g>
			<g>
				<path fill="#FFCD43" d="M256.486,252.576c-32.056-15.332-72.382-26.196-105.659-31.959c-12.008-2.079-24.079-3.434-36.104-6.013
					c-3.374-0.726-13.628-4.391-16.478-2.543c-3.78,2.448-1.091,11.856,2.18,15.029c4.677,4.532,14.339,6.322,20.034,8.668
					c11.045,4.558,21.48,8.736,32.732,12.673c34.559,12.084,71.006,20.541,106.014,30.415c12.932,3.649,14.275,2.036,14.748-8.057
					c0.105-2.245,2.922-9.606,1.195-11.994c-2.627-3.62-11.166-4.876-15.461-6.586"/>
				<path fill="#DFAA41" d="M274.75,266.986c-5.67-1.008-11.534-2.818-16.447-4.523c-17.093-5.932-35.334-8.864-52.766-13.679
					c-18.82-5.196-37.549-10.682-56.203-16.436c-8.338-2.571-16.618-5.436-25.014-7.798c-5.732-1.612-11.902-3.276-17.951-2.898
					c-2.375,1.303-4.688,2.729-6.967,4.205c0.33,0.47,0.672,0.892,1.022,1.233c4.677,4.532,14.339,6.322,20.034,8.668
					c11.045,4.558,21.48,8.736,32.732,12.673c34.559,12.084,71.006,20.541,106.014,30.415c12.932,3.649,14.275,2.036,14.748-8.057
					C273.99,270.005,274.36,268.59,274.75,266.986z"/>
				<path fill="#D29A37" d="M273.953,270.79c0.105-2.245,2.922-9.606,1.195-11.994c-2.627-3.62-11.166-4.876-15.461-6.586
					l-3.202,0.366c-11.646-5.569-24.386-10.541-37.481-14.902c-19.145,5.992-38.778,10.03-58.594,13.217
					c32.39,10.802,66.215,18.768,98.795,27.956C272.137,282.496,273.481,280.883,273.953,270.79z"/>
			</g>
			<g>
				<path fill="#FFCD43" d="M366.26,236.657c-28.142-21.697-65.306-40.751-96.645-53.345c-11.306-4.543-22.826-8.393-34.046-13.429
					c-3.149-1.414-12.409-7.14-15.583-5.931c-4.207,1.604-3.545,11.367-1.01,15.153c3.625,5.409,12.7,9.18,17.778,12.664
					c9.849,6.766,19.179,13.034,29.36,19.237c31.269,19.041,65.144,34.93,97.313,51.906c11.883,6.271,13.533,4.975,16.105-4.797
					c0.574-2.172,4.868-8.781,3.677-11.478c-1.812-4.089-9.899-7.103-13.741-9.673"/>
				<path fill="#D29A37" d="M381.109,254.565c-5.334-2.171-10.689-5.167-15.14-7.862c-15.474-9.374-32.699-16.057-48.738-24.407
					c-17.318-9.017-34.484-18.296-51.525-27.823c-7.615-4.258-15.115-8.79-22.83-12.855c-5.269-2.774-10.955-5.691-16.949-6.586
					c-2.595,0.776-5.152,1.688-7.691,2.656c0.225,0.527,0.471,1.012,0.742,1.419c3.625,5.409,12.7,9.18,17.778,12.664
					c9.849,6.766,19.179,13.034,29.36,19.237c31.269,19.041,65.144,34.93,97.313,51.906c11.883,6.271,13.533,4.975,16.105-4.797
					C379.734,257.359,380.392,256.052,381.109,254.565z"/>
				<path opacity="0.4" fill="#DF9F4B" d="M379.533,258.117c0.574-2.172,4.868-8.781,3.677-11.478
					c-1.812-4.089-9.899-7.103-13.741-9.673l-3.209-0.31c-10.225-7.884-21.642-15.408-33.537-22.41
					c-19.973,1.857-40.02,1.7-60.063,0.674c29.416,17.335,60.829,32.196,90.768,47.993
					C375.311,269.185,376.961,267.888,379.533,258.117z"/>
			</g>
			<g>
				<path fill="#FFCD43" d="M308.916,249.654c-29.033-20.484-66.97-37.953-98.811-49.21c-11.487-4.063-23.163-7.421-34.586-11.979
					c-3.205-1.279-12.698-6.61-15.817-5.267c-4.137,1.778-3.063,11.507-0.368,15.182c3.85,5.25,13.074,8.636,18.295,11.903
					c10.126,6.342,19.716,12.212,30.149,17.979c32.043,17.701,66.558,32.147,99.416,47.747c12.14,5.766,13.731,4.4,15.892-5.471
					c0.48-2.196,4.49-8.981,3.187-11.625c-1.982-4.01-10.192-6.68-14.14-9.084"/>
				<path fill="#DFAA41" d="M324.507,266.922c-5.419-1.943-10.899-4.711-15.458-7.215c-15.854-8.713-33.35-14.661-49.726-22.326
					c-17.682-8.277-35.227-16.824-52.655-25.622c-7.787-3.931-15.473-8.143-23.354-11.879c-5.378-2.551-11.185-5.222-17.21-5.866
					c-2.561,0.887-5.077,1.904-7.572,2.98c0.244,0.517,0.512,0.99,0.803,1.386c3.85,5.25,13.074,8.636,18.295,11.903
					c10.126,6.342,19.716,12.212,30.149,17.979c32.043,17.701,66.558,32.147,99.416,47.747c12.14,5.766,13.731,4.4,15.892-5.471
					C323.252,269.771,323.854,268.438,324.507,266.922z"/>
				<path opacity="0.4" fill="#DF9F4B" d="M323.086,270.539c0.48-2.196,4.49-8.981,3.187-11.625
					c-1.982-4.01-10.192-6.68-14.14-9.084l-3.217-0.176c-10.547-7.442-22.275-14.477-34.455-20.972
					c-19.879,2.7-39.909,3.39-59.979,3.213c30.123,16.075,62.133,29.596,92.713,44.114
					C319.334,281.775,320.926,280.41,323.086,270.539z"/>
			</g>
			<g>
				<path fill="#FFCD43" d="M159.682,248.195c16.146-6.275,32.098-13.064,48.299-19.247c28.842-11.006,58.594-18.878,86.824-31.522
					c6.623-2.968,7.593-4.538,11.296,1.395c3.896,6.243,6.7,13.879,8.899,20.669c-13.121,0.453-25.953,8.59-37.906,13.631
					c-29.947,12.635-59.129,27.037-89.258,39.409c-8.818,3.622-9.406,3.892-15.869-3.682c-1.84-2.156-7.848-9.38-7.121-11.734"/>
				<path fill="#DFAA41" d="M243.317,231.872c-15.768,6.146-31.621,12.058-47.502,17.895c-6.799,2.501-13.674,4.84-20.35,7.66
					c-3.047,1.288-6.111,2.631-9.244,3.737c1.738,2.91,4.578,6.316,5.746,7.684c6.463,7.573,7.051,7.304,15.869,3.682
					c30.129-12.372,59.311-26.774,89.258-39.409c11.953-5.041,24.785-13.178,37.906-13.631c-1.779-5.497-3.969-11.538-6.801-16.955
					C286.959,213.151,265.496,223.226,243.317,231.872z"/>
				<path opacity="0.4" fill="#DF9F4B" d="M294.805,197.426c-11.213,5.022-22.668,9.287-34.207,13.298
					c-12.27,15.787-24.51,31.646-37.776,46.598c18.063-8.151,36.027-16.502,54.272-24.201c11.953-5.041,24.785-13.178,37.906-13.631
					c-2.199-6.79-5.004-14.426-8.899-20.669C302.398,192.887,301.428,194.458,294.805,197.426z"/>
			</g>
			<g>
				<path fill="#FFCD43" d="M155.514,138.196c16.858,3.994,33.844,7.453,50.691,11.555c29.996,7.304,58.963,17.703,89.381,23.311
					c7.137,1.314,8.826,0.572,8.511,7.558c-0.335,7.351-2.356,15.231-4.398,22.069c-11.062-7.071-26.245-7.654-38.948-10.284
					c-31.83-6.589-64.029-11.287-95.861-18.198c-9.313-2.019-9.952-2.131-10.978-12.034c-0.292-2.82-1.138-12.176,0.795-13.703"/>
				<path fill="#DFAA41" d="M233.643,172.209c-16.469-3.885-32.877-8.012-49.264-12.217c-7.02-1.8-14.009-3.773-21.104-5.238
					c-3.241-0.67-6.526-1.303-9.731-2.168c-0.225,3.381,0.183,7.797,0.368,9.586c1.025,9.903,1.664,10.016,10.978,12.034
					c31.832,6.911,64.031,11.609,95.861,18.198c12.703,2.63,27.887,3.213,38.948,10.284c1.651-5.536,3.277-11.753,4.019-17.82
					C280.205,181.557,256.811,177.676,233.643,172.209z"/>
			</g>
			<g>
				<path fill="#FFCD43" d="M191.787,275.981c17.066-2.961,34.045-6.464,51.148-9.322c30.449-5.088,61.172-6.924,91.343-13.738
					c7.08-1.601,8.341-2.948,10.798,3.6c2.584,6.89,3.826,14.929,4.639,22.021c-12.949-2.149-27.139,3.289-39.852,5.87
					c-31.854,6.465-63.306,14.815-95.288,20.988c-9.358,1.808-9.988,1.955-14.827-6.746c-1.378-2.477-5.84-10.746-4.661-12.909"/>
				<path fill="#DFAA41" d="M276.996,276.51c-16.668,2.908-33.377,5.571-50.098,8.152c-7.16,1.107-14.363,2.043-21.462,3.488
					c-3.243,0.659-6.512,1.371-9.802,1.835c1.127,3.197,3.238,7.098,4.113,8.668c4.839,8.701,5.469,8.554,14.827,6.746
					c31.982-6.173,63.434-14.523,95.288-20.988c12.713-2.581,26.902-8.02,39.852-5.87c-0.657-5.741-1.609-12.096-3.314-17.965
					C323.482,266.785,300.448,272.419,276.996,276.51z"/>
				<path fill="#D29A37" d="M228.475,290.7c7.507,1.899,14.763,4.489,22.06,7.015c19.771-4.511,39.472-9.273,59.329-13.304
					c3.404-0.691,6.916-1.587,10.48-2.487c-4.514-1.198-9.045-2.317-13.607-3.264c-5.943-1.232-11.84-2.52-17.463-4.451
					c-4.082,0.806-8.172,1.584-12.277,2.301c-16.668,2.908-33.377,5.571-50.098,8.152c-5.004,0.773-10.029,1.473-15.025,2.312
					C217.442,288.188,223.076,289.334,228.475,290.7z"/>
				<path opacity="0.4" fill="#DF9F4B" d="M334.279,252.921c-11.981,2.707-24.056,4.623-36.161,6.274
					c-15.148,13.05-30.279,26.178-46.24,38.21c19.32-4.419,38.579-9.055,57.986-12.994c12.713-2.581,26.902-8.02,39.852-5.87
					c-0.813-7.092-2.055-15.131-4.639-22.021C342.619,249.972,341.359,251.32,334.279,252.921z"/>
			</g>
			<g>
				<path fill="#FFCD43" d="M130.705,271.351c4.497,3.442,13.027,4.896,18.953,6.393c14.336,3.615,28.673,6.442,42.5,11.132
					c22.125,7.506,46.094,14.079,66.198,24.429c-2.89,5.066-6.722,10.137-10.714,14.832c-15.555-2.638-31.886-3.854-47.493-6.619
					c-26.317-4.656-52.699-12.115-77.772-19.465c-12.174-3.569-25.321-7.234-36.917-10.838c3.606-8.085,7.948-16.479,11.521-24.475
					c10.83-0.581,24.404,2.824,34.516,5.46"/>
				<path fill="#DFAA41" d="M231.385,306.329c-20.248-3.14-40.389-7.246-60.651-10.191c-27.813-4.046-56.19-3.499-83.747-8.232
					c-0.512,1.106-1.039,2.216-1.526,3.31c11.596,3.604,24.743,7.269,36.917,10.838c25.073,7.35,51.455,14.809,77.772,19.465
					c15.607,2.765,31.938,3.981,47.493,6.619c3.992-4.695,7.824-9.766,10.714-14.832c-1.056-0.542-2.126-1.07-3.203-1.594
					C247.219,309.806,239.324,307.56,231.385,306.329z"/>
				<path opacity="0.4" fill="#DF9F4B" d="M202.746,292.376c-19.363,5.86-38.896,11.152-58.556,15.937
					c18.354,5.119,37.169,9.882,55.959,13.205c15.607,2.765,31.938,3.981,47.493,6.619c3.992-4.695,7.824-9.766,10.714-14.832
					C241.424,304.587,221.754,298.55,202.746,292.376z"/>
			</g>
			<g>
				<path fill="#DFAA41" d="M354.455,308.838c-16.926-3.688-33.974-6.837-50.894-10.63c-30.125-6.757-59.274-16.628-89.79-21.679
					c-7.162-1.184-8.838-0.41-8.648-7.4c0.199-7.355,2.078-15.271,3.996-22.146c11.188,6.868,26.381,7.173,39.127,9.571
					c31.945,6.009,64.227,10.119,96.179,16.447c9.349,1.851,9.989,1.951,11.194,11.834c0.342,2.813,1.361,12.153-0.544,13.715"/>
				<path fill="#FFCD43" d="M275.719,276.253c16.536,3.585,33.018,7.411,49.479,11.318c7.051,1.67,14.074,3.517,21.195,4.851
					c3.253,0.611,6.549,1.185,9.771,1.992c0.159-3.385-0.324-7.794-0.545-9.578c-1.205-9.883-1.846-9.983-11.194-11.834
					c-31.952-6.328-64.233-10.438-96.179-16.447c-12.746-2.398-27.939-2.703-39.127-9.571c-1.551,5.565-3.063,11.81-3.695,17.89
					C228.994,267.754,252.455,271.21,275.719,276.253z"/>
				<path opacity="0.4" fill="#DF9F4B" d="M352.645,275.527c-9.905,0.545-19.827,0.905-29.75,1.264
					c-15.059,1.553-30.115,3.077-45.191,4.156c-10.727,0.77-21.478,1.595-32.242,2.336c19.383,4.842,38.537,10.537,58.101,14.925
					c16.92,3.793,33.968,6.942,50.894,10.63l0.62-10.287c1.905-1.562,0.886-10.901,0.544-13.715
					C354.961,279.446,354.469,276.969,352.645,275.527z"/>
			</g>
			<g>
				<path fill="#FFCD43" d="M275.399,327.699c-27.801-6.58-70.371-15.045-97.5-13.896c-9.789,0.415-19.504,1.406-29.393,1.433
					c-2.775,0.006-2.42,5.683-4.346,7.62c-2.553,2.568,1.163,9.5,4.273,11.437c4.45,2.762,12.346,2.521,17.22,3.394
					c9.457,1.697,18.367,3.199,27.882,4.374c29.215,3.6,59.292,4.026,88.48,5.815c10.781,0.659,11.563-0.838,10.214-8.848
					c-0.301-1.781,0.658-8.046-1.107-9.625c-2.683-2.396-9.604-1.926-13.269-2.539"/>
				<path fill="#DFAA41" d="M292.207,335.903c-4.628,0.177-9.541-0.245-13.694-0.748c-14.442-1.743-29.275-0.938-43.792-1.747
					c-15.673-0.873-31.322-1.988-46.963-3.328c-6.988-0.598-13.982-1.435-20.98-1.862c-4.779-0.288-9.911-0.542-14.598,0.788
					c-1.646,1.429-3.216,2.94-4.757,4.492c0.339,0.313,0.679,0.585,1.011,0.794c4.45,2.762,12.346,2.521,17.22,3.394
					c9.457,1.697,18.367,3.199,27.882,4.374c29.215,3.6,59.292,4.026,88.48,5.815c10.781,0.659,11.563-0.838,10.214-8.848
					C292.125,338.405,292.173,337.23,292.207,335.903z"/>
				<path opacity="0.4" fill="#DF9F4B" d="M157.436,318.043c-0.17,0.074-0.375,0.164-0.625,0.272
					c-0.768,0.334-1.533,0.674-2.299,1.013c1.729-0.724,3.453-1.46,5.173-2.208c-0.565,0.229-1.13,0.457-1.692,0.691
					C157.774,317.902,157.592,317.978,157.436,318.043z"/>
				<path opacity="0.4" fill="#DF9F4B" d="M291.122,329.402c-2.683-2.396-9.604-1.926-13.269-2.539l-2.455,0.836
					c-5.572-1.318-11.744-2.713-18.26-4.091c-5.027,2.263-10.191,4.25-15.381,5.966c-16.141,5.335-32.865,8.273-49.391,12.107
					c-0.195,0.045-0.389,0.098-0.584,0.144c0.588,0.076,1.16,0.161,1.752,0.234c29.215,3.6,59.292,4.026,88.48,5.815
					c10.781,0.659,11.563-0.838,10.214-8.848C291.929,337.246,292.888,330.981,291.122,329.402z"/>
			</g>
		</g>
	</g>
</g>
</svg>
