<?xml version="1.0" encoding="utf-8"?>
<!-- Generator: Adobe Illustrator 16.0.3, SVG Export Plug-In . SVG Version: 6.00 Build 0)  -->
<!DOCTYPE svg PUBLIC "-//W3C//DTD SVG 1.1//EN" "http://www.w3.org/Graphics/SVG/1.1/DTD/svg11.dtd">
<svg version="1.1" id="Ebene_1" xmlns="http://www.w3.org/2000/svg" xmlns:xlink="http://www.w3.org/1999/xlink" x="0px" y="0px"
	 width="450px" height="450px" viewBox="0 0 450 450" enable-background="new 0 0 450 450" xml:space="preserve">
<g id="fries">
	<g>
		<g>
			<g>
				<path fill="#EDC727" d="M202.94,237.701c-2.29-5.309-12.185-9.719-16.79-12.5c4.65-12.893,22.319-22.637,32.372-31.482
					c12.367-11.371,29.565-19.04,45.266-26.828c10.042-4.924,9.708-8.268,20.41-2.59c8.628,5.215,11.851,6.377,6.864,15.93
					c-6.844,13.924-31.278,14.081-43.756,23.029c-8.313,5.972-17.904,12.74-25.418,19.982c-4.627,5.055-10.548,18.75-18.722,15.383"
					/>
			</g>
			<g>
				<g>
					<path fill="#EDC727" d="M248.105,141.464c0.478-7.159,8.498-19.566,17.144-15.535l0,0c0.95,7.253,7.573,11.436,11.485,17.452
						c3.912,6.011,6.892,13.116,11.392,18.877c9.258,12.128,18.76,24.842,28.607,36.717c5.343,6.112,33.378,29.845,17.493,35.113
						c-18.841,6.506-26.64-18.754-36.239-30.037c-5.097-5.523-11.47-9.109-17.159-14.377c-6.28-5.022-9.008-11.535-13.76-17.895
						c-6.086-7.88-22.006-19.303-18.869-31.751"/>
				</g>
				<g>
					<path fill="#ED9726" d="M252.609,130.876c5.941,4.677,8.779,11.444,12.297,17.938c6.18,10.942,13.82,19.68,21.748,29.1
						c6.964,9.024,13.82,19.682,21.857,27.46c7.073,7.386,18.607,12.109,22.581,21.59l0.682-0.284l0,0
						c7.775-8.037-8.518-20.315-13.669-26.916c-8.496-10.77-14.851-24.028-23.344-34.801c-8.212-10.094-16.424-20.188-22.992-30.172
						c-3.627-4.852-5.33-8.911-10.242-9.242c-4.239-0.614-10.446,3.582-9.311,6.29"/>
				</g>
			</g>
			<g>
				<g>
					<path fill="#EDC727" d="M203.157,153.555c13.737-3.059,27.95-0.613,41.011-6.31c15.146-6.697,32.174-11.535,46.54-19.442
						c6.526,5.353,8.807,17.884,3.454,24.412c-7.859,9.513-28.104,10.957-39.527,13.895c-17.255,3.963-61.332,12.932-70.387-9.572
						c7.563-5.219,14.514-1.852,22.429-3.884"/>
				</g>
				<g>
					<path fill="#ED9726" d="M294.413,145.707c0.655-0.169,0.729-1.236,1.724-0.096l0,0c-9.475-5.602-29.104,5.027-38.521,7.795
						c-14.254,4.354-30.417,5.361-45.345,7.096c-5.656,1.105-11.402,0.484-16.983,0.518c-2.136-0.15-12.563-1.314-8.817-5.772
						c2.115-2.641,15.338-1.491,18.784-1.678c7.958-0.294,14.27-1.567,21.723-3.829c7.7-2.672,16.072-2.726,23.766-5.4
						c9.669-3.18,16.765-9.546,26.432-12.724c3.934-1.009,8.842-3.669,12.697-3.611c4.759-0.52,2.457-1.329,5.188,2.511
						c1.74,2.699,6.924,17.443,0.424,15.265"/>
				</g>
			</g>
			<g>
				<path fill="#ED9726" d="M204.569,239.896c15.123-3.73,27.523-22.833,38.511-32.495c14.896-13.301,39.217-16.625,52.861-30.687
					l0,0c-2.817-26.583-36.534,3.661-45.373,11.19c-16.666,14.811-36.857,28.348-52.649,44.541c1.753,2.776,3.759,6.561,6.271,8.079
					"/>
			</g>
			<g>
				<g>
					<path fill="#EDC727" d="M280.079,210.983c-0.248-0.589-9.472,3.972-12.429,5.212c-11.244,4.712-15.731,7.287-27.588,3.904
						c-17.73-5.787-31.375-16.77-47.829-24.484c2.899-4.693-2.059-16.529-4.292-21.857c7.601-1.789,14.28,5.844,20.652,9.435
						c8.552,5.463,18.132,8.403,27.026,13.025c14.431,7.868,28.903,10.851,44.554,13.334"/>
				</g>
				<g>
					<path fill="#ED9726" d="M278.486,209.987c-1.465,2.206-4.457,2.664-7.168,3.8c-13.937,6.637-20.162,1.281-32.543-5.472
						c-11.426-6.354-21.822-8.37-33.355-13.09c-11.924-3.757-14.368-11.495-16.198-23.464c8.47,1.225,11.985,7.711,18.606,12.105
						c6.616,4.393,14.479,9.855,21.882,12.324c8.651,3.542,18.763,4.875,27.808,7.457c5.48,1.684,16.555,3.412,19.897,7.584"/>
				</g>
			</g>
		</g>
		<g>
			<g>
				<g>
					<path fill="#EDC727" d="M153.055,291.377c-5.316,4.822-19.701,8.182-23.124-0.722l0,0c4.349-5.88,2.486-13.487,3.848-20.533
						c1.358-7.042,4.146-14.224,4.905-21.497c1.756-15.154,3.745-30.902,4.902-46.286c0.396-8.109-3.305-44.651,11.785-37.417
						c18.077,8.398,6.152,31.994,5.23,46.777c-0.167,7.514,1.932,14.52,2.368,22.262c1.033,7.977-1.524,14.553-2.52,22.432
						c-1.092,9.897,2.438,29.17-8.462,35.951"/>
				</g>
				<g>
					<path fill="#ED9726" d="M142.459,295.869c-1.029-7.491,1.629-14.33,3.605-21.445c3.147-12.167,3.717-23.762,4.547-36.045
						c1.254-11.328,3.72-23.76,3.334-34.939c0.037-10.223-4.988-21.633-1.266-31.216l-0.688-0.267l0,0
						c-11.176,0.387-7.975,20.535-8.848,28.861c-1.361,13.652-5.994,27.604-7.36,41.257c-1.096,12.962-2.194,25.931-4.395,37.674
						c-0.759,6.011-2.353,10.116,0.952,13.765c2.629,3.385,10.007,4.674,11.07,1.937"/>
				</g>
			</g>
			<g>
				<path fill="#EDC727" d="M252.37,253.466c-2.035,5.409,2.024,15.455,3.407,20.651c-12.295,6.052-31.777,0.801-45.153,0.188
					c-16.796-0.4-34.498-6.822-51.21-12.113c-10.642-3.432-12.723-0.791-16.484-12.311c-2.588-9.742-4.1-12.816,6.118-16.229
					c14.591-5.271,32.29,11.58,47.479,13.802c10.132,1.475,21.732,3.262,32.168,3.266c6.84-0.427,20.611-6.174,24.154,1.923"/>
			</g>
			<g>
				<g>
					<path fill="#EDC727" d="M193.8,313.878c-12.011-7.333-20.546-18.962-33.899-23.929c-15.55-5.695-31.166-14.033-46.994-18.316
						c-0.982-8.382,6.076-18.984,14.462-19.969c12.263-1.387,27.832,11.625,38.096,17.441c15.169,9.127,53.12,33.271,44.017,55.754
						c-9.067-1.492-11.732-8.741-18.838-12.773"/>
				</g>
				<g>
					<path fill="#ED9726" d="M122.669,256.174c-0.59-0.334-1.384,0.385-1.306-1.128l0,0c2.93,10.61,24.438,16.587,33.138,21.134
						c13.282,6.76,25.614,17.258,37.562,26.371c4.838,3.133,8.545,7.568,12.586,11.422c1.43,1.588,8.128,9.666,2.339,10.275
						c-3.359,0.434-12.076-9.576-14.687-11.836c-5.932-5.311-11.357-8.778-18.293-12.322c-7.398-3.422-13.46-9.197-20.855-12.611
						c-9.166-4.422-18.691-4.77-27.855-9.192c-3.531-2.005-8.91-3.496-11.646-6.22c-3.788-2.926-2.69-0.745-1.991-5.405
						c0.621-3.147,7.127-17.359,10.293-11.281"/>
				</g>
			</g>
			<g>
				<path fill="#ED9726" d="M252.727,250.753c-13.477-7.813-35.661-2.673-50.277-3.347c-19.96-0.771-39.771-15.26-59.351-14.61l0,0
					c-16.428,21.087,28.836,22.726,40.424,23.444c22.279,0.912,46.208,5.186,68.817,4.49c0.665-3.211,1.851-7.33,1.097-10.168"/>
			</g>
			<g>
				<g>
					<path fill="#EDC727" d="M178.303,219.142c-0.229,0.598,9.574,3.72,12.564,4.879c11.363,4.415,16.382,5.677,22.567,16.34
						c8.743,16.479,10.94,33.853,17.427,50.828c-5.348,1.367-9.995,13.328-12.087,18.713c-6.711-3.988-6.22-14.12-8.313-21.129
						c-2.363-9.871-7.217-18.637-10.411-28.137c-4.922-15.686-13.27-27.879-22.811-40.524"/>
				</g>
				<g>
					<path fill="#ED9726" d="M178.759,220.967c2.585-0.57,5.058,1.176,7.798,2.24c14.637,4.898,15.4,13.075,19.623,26.531
						c3.812,12.503,9.897,21.174,14.92,32.576c5.972,10.983,2.362,18.25-4.633,28.137c-5.243-6.762-3.271-13.872-4.986-21.631
						c-1.712-7.754-3.578-17.146-7.191-24.064c-3.77-8.553-10.12-16.533-14.842-24.67c-2.773-5.018-9.543-13.949-9.053-19.272"/>
				</g>
			</g>
		</g>
		<g>
			<g>
				<path fill="#EDC727" d="M196.466,219.891c1.812-5.49-2.659-15.359-4.259-20.496c12.037-6.555,31.72-2.111,45.109-2.053
					c16.801-0.295,34.748,5.389,51.664,9.984c10.776,2.986,12.748,0.262,16.98,11.615c2.99,9.627,4.628,12.636-5.441,16.469
					c-14.36,5.871-32.738-10.234-48.011-11.824c-10.182-1.054-21.849-2.359-32.273-1.932c-6.818,0.709-20.338,7.021-24.213-0.924"/>
			</g>
			<g>
				<g>
					<path fill="#EDC727" d="M294.128,177.9c5.112-5.035,19.345-8.989,23.136-0.235l0,0c-4.104,6.054-1.929,13.579-2.995,20.677
						c-1.064,7.092-3.554,14.383-4.012,21.68c-1.128,15.214-2.463,31.031-2.98,46.449c-0.062,8.117,5.147,44.479-10.229,37.873
						c-18.409-7.643-7.473-31.709-7.159-46.523c-0.147-7.512-2.533-14.424-3.289-22.139c-1.363-7.931,0.922-14.606,1.588-22.519
						c0.682-9.937-3.643-29.043,6.965-36.272"/>
				</g>
				<g>
					<path fill="#ED9726" d="M304.53,172.973c1.337,7.442-1.035,14.389-2.714,21.577c-2.646,12.287-2.73,23.896-3.054,36.202
						c-0.785,11.373-2.731,23.896-1.884,35.047c0.385,10.219,5.876,21.41,2.555,31.139l0.696,0.237l0,0
						c11.152-0.847,7.12-20.849,7.647-29.202c0.796-13.695,4.847-27.83,5.645-41.524c0.562-12.998,1.119-26,2.832-37.825
						c0.51-6.036,1.934-10.203-1.52-13.714c-2.768-3.271-10.191-4.256-11.142-1.475"/>
				</g>
			</g>
			<g>
				<g>
					<path fill="#EDC727" d="M252.488,157.104c12.305,6.833,21.311,18.097,34.859,22.506c15.771,5.048,31.721,12.734,47.711,16.358
						c1.329,8.333-5.284,19.217-13.624,20.547c-12.191,1.896-28.29-10.462-38.782-15.85c-15.534-8.49-54.453-31.043-46.285-53.883
						c9.122,1.115,12.085,8.249,19.351,11.981"/>
				</g>
				<g>
					<path fill="#ED9726" d="M325.944,211.817c0.604,0.309,1.365-0.442,1.354,1.071l0,0c-3.368-10.479-25.104-15.563-33.983-19.744
						c-13.553-6.203-26.308-16.183-38.621-24.794c-4.965-2.931-8.852-7.208-13.047-10.891c-1.496-1.528-8.521-9.323-2.763-10.168
						c3.337-0.573,12.462,9.067,15.163,11.216c6.146,5.063,11.713,8.299,18.787,11.555c7.533,3.113,13.827,8.633,21.357,11.738
						c9.343,4.04,18.875,3.992,28.213,8.031c3.611,1.855,9.048,3.128,11.894,5.729c3.905,2.771,2.72,0.636,2.213,5.321
						c-0.489,3.174-6.402,17.641-9.816,11.697"/>
				</g>
			</g>
			<g>
				<path fill="#ED9726" d="M196.223,222.615c13.789,7.248,35.744,1.196,50.375,1.263c19.973-0.058,40.366,13.601,59.905,12.142l0,0
					c15.541-21.745-29.754-21.514-41.36-21.75c-22.297,0.012-46.384-3.269-68.944-1.643c-0.532,3.239-1.545,7.402-0.674,10.206"/>
			</g>
			<g>
				<g>
					<path fill="#EDC727" d="M271.891,251.119c0.205-0.604-9.72-3.318-12.754-4.354c-11.537-3.942-16.603-4.994-23.225-15.394
						c-9.417-16.101-12.333-33.37-19.515-50.064c5.284-1.587,9.434-13.73,11.302-19.195c6.871,3.707,6.799,13.85,9.18,20.766
						c2.771,9.763,7.982,18.321,11.566,27.682c5.565,15.466,14.41,27.303,24.469,39.55"/>
				</g>
				<g>
					<path fill="#ED9726" d="M271.361,249.316c-2.56,0.678-5.104-0.967-7.885-1.918c-14.826-4.287-15.928-12.426-20.705-25.695
						c-4.324-12.338-10.764-20.745-16.254-31.934c-6.422-10.724-3.117-18.135,3.463-28.303c5.521,6.541,3.844,13.725,5.879,21.408
						c2.029,7.675,4.283,16.982,8.181,23.741c4.12,8.392,10.796,16.104,15.849,24.035c2.979,4.9,10.114,13.547,9.844,18.885"/>
				</g>
			</g>
		</g>
	</g>
</g>
</svg>
