<?xml version="1.0" encoding="utf-8"?>
<!-- Generator: Adobe Illustrator 16.0.0, SVG Export Plug-In . SVG Version: 6.00 Build 0)  -->
<!DOCTYPE svg PUBLIC "-//W3C//DTD SVG 1.1//EN" "http://www.w3.org/Graphics/SVG/1.1/DTD/svg11.dtd">
<svg version="1.1" id="Ebene_1" xmlns="http://www.w3.org/2000/svg" xmlns:xlink="http://www.w3.org/1999/xlink" x="0px" y="0px"
	 width="450px" height="450px" viewBox="0 0 450 450" enable-background="new 0 0 450 450" xml:space="preserve">
<g>
	<g opacity="0.3">
		<path d="M226.99,230.402c0,0,42.764,32.299,63.246,50.505c20.488,18.198,70.095,59.975,76.967,65.097
			c9.18,6.816,23.663,25.018,29.766,17.676c6.104-7.366,5.742-15.434-4.553-21.798c-10.265-6.372-65.646-40.95-79.576-52.339
			c-13.97-11.361-81.306-71.392-85.85-66.863c-4.544,4.527-2.273,6.809-2.273,6.809"/>
		<path d="M445.842,226.945c0,120.877-97.976,218.848-218.852,218.848c-120.858,0-218.832-97.971-218.832-218.848
			c0-120.859,97.974-218.833,218.832-218.833C347.866,8.113,445.842,106.086,445.842,226.945z"/>
		<path d="M386.695,77.341L117.882,416.693c32.116,18.501,69.378,29.1,109.108,29.1c120.876,0,218.852-97.971,218.852-218.848
			C445.842,169.084,423.364,116.474,386.695,77.341z"/>
		<path d="M117.882,396.78c0,3.299-2.663,5.948-5.952,5.948c-3.287,0-5.95-2.649-5.95-5.948c0-3.276,2.663-5.947,5.95-5.947
			C115.219,390.833,117.882,393.504,117.882,396.78z"/>
		<path d="M99.061,385.442c0,1.101-0.9,2.01-2.012,2.01s-2.012-0.909-2.012-2.01c0-1.121,0.9-2.019,2.012-2.019
			S99.061,384.321,99.061,385.442z"/>
		<path d="M88.28,379.898c0,1.021-0.827,1.848-1.847,1.848s-1.842-0.827-1.842-1.848c0-1.008,0.822-1.849,1.842-1.849
			S88.28,378.89,88.28,379.898z"/>
		<path d="M373.462,78.834c0,2.708-2.214,4.912-4.92,4.912s-4.921-2.204-4.921-4.912c0-2.714,2.215-4.912,4.921-4.912
			S373.462,76.119,373.462,78.834z"/>
		<path d="M351.888,58.997c0,1.388-1.108,2.515-2.502,2.515c-1.392,0-2.531-1.127-2.531-2.515c0-1.384,1.14-2.514,2.531-2.514
			C350.78,56.483,351.888,57.613,351.888,58.997z"/>
		<circle cx="205.467" cy="19.824" r="5.257"/>
		<path d="M253.874,15.069c0,1.021-0.844,1.843-1.849,1.843c-1.011,0-1.848-0.822-1.848-1.843c0-1.016,0.837-1.843,1.848-1.843
			C253.031,13.226,253.874,14.053,253.874,15.069z"/>
		<path d="M100.983,67.675c0,3.397-2.756,6.158-6.156,6.158c-3.407,0-6.16-2.761-6.16-6.158c0-3.407,2.753-6.163,6.16-6.163
			C98.227,61.512,100.983,64.267,100.983,67.675z"/>
		<path d="M109.457,58.223c0,0.956-0.78,1.733-1.742,1.733c-0.955,0-1.735-0.778-1.735-1.733c0-0.964,0.781-1.74,1.735-1.74
			C108.677,56.483,109.457,57.259,109.457,58.223z"/>
		<path d="M19.922,205.697c0,2.044-1.647,3.697-3.684,3.697c-2.04,0-3.693-1.653-3.693-3.697c0-2.033,1.653-3.677,3.693-3.677
			C18.275,202.019,19.922,203.663,19.922,205.697z"/>
		<path d="M29.803,187.5c0,1.809-1.459,3.261-3.263,3.261c-1.802,0-3.265-1.452-3.265-3.261c0-1.796,1.462-3.259,3.265-3.259
			C28.344,184.241,29.803,185.703,29.803,187.5z"/>
		<circle cx="43.227" cy="128.075" r="1.508"/>
		<path d="M35.863,298.294c0,3.001-2.445,5.446-5.455,5.446c-3.013,0-5.456-2.445-5.456-5.446c0-3.005,2.443-5.447,5.456-5.447
			C33.418,292.846,35.863,295.289,35.863,298.294z"/>
		<path d="M183.027,425.106c0,2.599-2.118,4.7-4.713,4.7c-2.591,0-4.702-2.102-4.702-4.7c0-2.6,2.111-4.704,4.702-4.704
			C180.909,420.402,183.027,422.507,183.027,425.106z"/>
		<path d="M146.648,414.992c0,1.437-1.165,2.615-2.609,2.615c-1.445,0-2.611-1.179-2.611-2.615c0-1.452,1.166-2.617,2.611-2.617
			C145.483,412.375,146.648,413.54,146.648,414.992z"/>
		<path d="M333.179,407.86c0,2.815-2.293,5.108-5.104,5.108c-2.848,0-5.136-2.293-5.136-5.108c0-2.841,2.288-5.132,5.136-5.132
			C330.886,402.728,333.179,405.019,333.179,407.86z"/>
		<path d="M294.545,422.966c0,1.411-1.165,2.568-2.559,2.568c-1.424,0-2.577-1.157-2.577-2.568c0-1.404,1.153-2.563,2.577-2.563
			C293.38,420.402,294.545,421.561,294.545,422.966z"/>
		<path d="M382.855,362.069c0,1.123-0.898,2.021-2.018,2.021c-1.104,0-2.009-0.897-2.009-2.021c0-1.107,0.904-2.007,2.009-2.007
			C381.956,360.062,382.855,360.962,382.855,362.069z"/>
		<path d="M398.53,351.547c0,1.983-1.589,3.61-3.578,3.61c-1.982,0-3.608-1.627-3.608-3.61c0-1.987,1.626-3.575,3.608-3.575
			C396.941,347.971,398.53,349.559,398.53,351.547z"/>
		<path d="M401.468,338.272c0,0.813-0.667,1.482-1.472,1.482c-0.799,0-1.467-0.669-1.467-1.482c0-0.788,0.668-1.458,1.467-1.458
			C400.801,336.814,401.468,337.484,401.468,338.272z"/>
		<path d="M443.391,219.261c0,4.25-3.447,7.684-7.698,7.684c-4.238,0-7.674-3.435-7.674-7.684c0-4.239,3.436-7.682,7.674-7.682
			C439.944,211.579,443.391,215.022,443.391,219.261z"/>
		<path d="M426.224,162.888c0,1.492-1.202,2.688-2.68,2.688s-2.683-1.196-2.683-2.688c0-1.47,1.205-2.675,2.683-2.675
			S426.224,161.418,426.224,162.888z"/>
		<path d="M437.455,246.479c0,1.254-1.018,2.251-2.271,2.251c-1.236,0-2.252-0.997-2.252-2.251c0-1.255,1.016-2.251,2.252-2.251
			C436.438,244.228,437.455,245.224,437.455,246.479z"/>
		<path d="M404.774,107.007c0,2.716-2.191,4.92-4.915,4.92c-2.723,0-4.907-2.204-4.907-4.92c0-2.716,2.185-4.918,4.907-4.918
			C402.582,102.089,404.774,104.29,404.774,107.007z"/>
		<path d="M384.511,92.156c0,0.935-0.758,1.693-1.695,1.693c-0.929,0-1.687-0.758-1.687-1.693c0-0.938,0.758-1.695,1.687-1.695
			C383.753,90.461,384.511,91.219,384.511,92.156z"/>
		<path d="M106.448,69.568c4.367-3.344,7.954-7.911,12.499-10.84c4.612-2.973,9.105-6.506,13.887-9.047
			c4.839-2.579,11.163-2.287,16.142-4.433c5.033-2.164,9.323-6.476,14.474-8.192c5.189-1.74,11.136-1.185,16.416-2.475
			c5.307-1.298,10.226-5.258,15.587-6.102c5.405-0.855,11.271,1.112,16.695,0.704c5.453-0.403,10.953-2.173,16.401-2.129
			c5.449,0.046,10.969,1.531,16.381,2.021c5.452,0.498,10.793,2.035,16.146,2.969c5.365,0.937,10.043,4.718,15.308,6.093
			c5.257,1.372,11.196,0.274,16.362,2.08c5.122,1.8,8.746,7.072,13.732,9.3c4.975,2.218,9.889,4.002,14.669,6.644
			c4.768,2.617,12.415,0.544,16.971,3.569c4.504,3.004,5.514,10.909,9.807,14.308c4.246,3.362,9.792,5.066,13.804,8.815
			c3.947,3.705,10.27,5.265,13.952,9.34c3.63,4.008,3.366,11.362,6.708,15.733c3.344,4.367,8.208,7.511,11.143,12.062
			c2.969,4.614,5.851,9.271,8.396,14.045c2.576,4.845,6.886,8.953,9.029,13.924c2.149,5.03,2.426,10.896,4.133,16.051
			c1.741,5.188,4.181,10.24,5.471,15.52c1.297,5.308,1.451,10.926,2.297,16.297c0.861,5.394-1.465,11.08-1.061,16.492
			c0.414,5.452,1.896,10.717,1.847,16.152c-0.039,5.445-2.102,10.641-2.592,16.09c-0.492,5.414-0.846,10.655-1.789,16.011
			c-0.938,5.36,1.628,11.438,0.252,16.741c-1.376,5.252-6.738,9.255-8.556,14.399c-1.807,5.122-1.521,10.981-3.755,15.96
			c-2.199,4.982-7.328,8.345-9.954,13.127c-2.618,4.766-2.088,11.328-5.118,15.884c-2.991,4.506-5.693,9.369-9.097,13.662
			c-3.367,4.245-10.249,5.413-13.985,9.401c-3.712,3.948-6.259,8.83-10.336,12.513c-4.009,3.627-4.997,11.089-9.36,14.437
			c-4.358,3.347-10.733,4.039-15.286,6.97c-4.602,2.971-10.182,4.161-14.957,6.721c-4.848,2.574-7.911,8.916-12.889,11.063
			c-5.034,2.171-11.013,2.252-16.155,3.977c-5.192,1.739-11.474-0.705-16.752,0.578c-5.306,1.306-9.347,8.973-14.704,9.832
			c-5.411,0.837-11.159,0.866-16.582,1.266c-5.463,0.408-11.118-2.034-16.567-2.093c-5.452-0.043-11.142,2.136-16.571,1.641
			c-5.435-0.495-10.794-2.744-16.174-3.687c-5.355-0.928-10.442-3.421-15.72-4.801c-5.271-1.373-10.725-2.23-15.886-4.044
			c-5.124-1.809-9.118-6.363-14.104-8.585c-4.961-2.225-12.27,0.119-17.057-2.515c-4.758-2.613-7.905-8.224-12.461-11.255
			c-4.518-2.999-9.235-5.83-13.526-9.225c-4.248-3.37-7.396-8.037-11.4-11.803c-3.949-3.691-11.119-4.449-14.801-8.53
			c-3.628-3.996-1.605-12.794-4.95-17.148c-3.342-4.364-11.197-5.434-14.125-9.995c-2.976-4.608-6.393-9.166-8.937-13.959
			c-2.581-4.833-5.218-9.899-7.357-14.864c-2.164-5.034-2.315-11.009-4.039-16.146c-1.741-5.191-3.604-10.459-4.894-15.722
			c-1.298-5.304-0.085-11.144-0.935-16.523c-0.855-5.375-2.273-10.683-2.68-16.095c-0.404-5.434,2.401-10.873,2.451-16.307
			c0.043-5.45-2.054-10.86-1.563-16.291c0.496-5.433,1.992-10.635,2.934-16.015c0.934-5.357-0.813-11.319,0.565-16.603
			c1.373-5.271,7.124-9.157,8.928-14.303c1.801-5.135,3.616-10.027,5.839-15.019c2.217-4.966,0.364-11.943,2.997-16.729
			c2.624-4.765,4.785-10.064,7.813-14.62c3.005-4.525,8.322-7.568,11.726-11.86c3.361-4.253,4.81-10.4,8.566-14.401
			c3.698-3.952,9.036-6.576,13.112-10.264C97.219,75.714,102.079,72.913,106.448,69.568z"/>
		<path d="M316.93,397.203c-4.679,2.477-9.027,6.103-13.814,8.157c-4.867,2.08-11.663-0.824-16.605,0.832
			c-5.018,1.672-10.355,1.36-15.41,2.586c-5.147,1.24-9.737,3.846-14.904,4.657c-5.208,0.822-10.404-0.305-15.631,0.071
			c-5.24,0.381-10.267,6.959-15.511,6.896c-5.263-0.05-10.243-5.789-15.454-6.276c-5.239-0.479-11.303,4.841-16.462,3.92
			c-5.173-0.921-9.104-7.751-14.171-9.106c-5.078-1.336-11.845,2.586-16.794,0.834c-4.944-1.75-7.767-8.958-12.556-11.119
			c-4.777-2.156-10.698-1.909-15.307-4.457c-4.586-2.528-10.422-3.344-14.795-6.257c-4.359-2.902-8.549-6.458-12.672-9.746
			c-4.101-3.234-4.576-10.706-8.421-14.329c-3.81-3.568-11.156-3.694-14.695-7.628c-3.492-3.869-2.631-11.375-5.829-15.564
			c-3.159-4.159-11.263-4.915-14.109-9.383c-2.801-4.385-0.995-11.57-3.469-16.244c-2.478-4.675-8.078-7.83-10.125-12.595
			c-2.087-4.869-2.263-10.501-3.913-15.439c-1.673-5.009-3.649-9.923-4.883-15.009c-1.246-5.114-3.716-10.065-4.524-15.242
			c-0.82-5.188,1.495-10.8,1.117-15.999c-0.378-5.261,1.712-10.388,1.771-15.639c0.054-5.265-1.642-10.408-1.151-15.629
			c0.487-5.242-3.533-11.171-2.615-16.33c0.918-5.173,7.286-9.214,8.626-14.287c1.34-5.082,2.489-10.068,4.242-15.019
			c1.751-4.948,0.155-11.279,2.311-16.071c2.152-4.787,7.492-8.051,10.037-12.646c2.539-4.587,3.302-10.284,6.215-14.669
			c2.903-4.353,9.707-5.793,12.981-9.915c3.247-4.103,5.296-8.986,8.909-12.828c3.581-3.812,6.639-8.038,10.559-11.57
			c3.877-3.495,7.849-6.822,12.057-10.021c4.151-3.155,9.341-4.637,13.809-7.474c4.39-2.805,7.682-7.357,12.36-9.829
			c4.689-2.479,8.788-6.161,13.575-8.212c4.86-2.081,10.048-3.43,14.992-5.081c5.019-1.672,9.73-4.759,14.794-5.997
			c5.133-1.251,11.094,1.641,16.26,0.832c5.196-0.81,10.083-4.094,15.309-4.474c5.253-0.376,10.586-0.25,15.82-0.19
			c5.254,0.057,10.724-1.209,15.918-0.714c5.245,0.486,10.571,1.572,15.732,2.493c5.173,0.92,9.977,3.965,15.041,5.301
			c5.074,1.346,10.226,2.5,15.194,4.25c4.924,1.752,9.423,4.663,14.21,6.815c4.783,2.159,11.431,0.865,16.03,3.403
			c4.593,2.535,8.996,5.909,13.379,8.822c4.371,2.903,6.145,9.483,10.275,12.759c4.095,3.249,6.671,8.002,10.522,11.612
			c3.808,3.579,11.521,3.317,15.058,7.235c3.495,3.881,3.008,11.092,6.203,15.297c3.165,4.146,8.188,6.926,11.03,11.385
			c2.796,4.39,4.627,9.346,7.103,14.039c2.479,4.676,7.62,8.1,9.683,12.893c2.07,4.864,3.874,9.982,5.528,14.93
			c1.672,5.018,0.847,10.794,2.088,15.861c1.242,5.134,1.727,10.341,2.534,15.51c0.832,5.197,0.878,10.389,1.261,15.616
			c0.373,5.253-0.545,10.367-0.588,15.614c-0.074,5.242-0.332,10.289-0.831,15.518c-0.485,5.245,1.552,10.729,0.632,15.896
			c-0.918,5.172,0.667,11.026-0.688,16.112c-1.335,5.076-8.017,8.555-9.762,13.487c-1.761,4.968,0.067,11.335-2.091,16.122
			c-2.144,4.785-5.811,8.931-8.357,13.543c-2.522,4.574-3.646,10.186-6.566,14.557c-2.898,4.355-9.866,5.773-13.14,9.902
			c-3.247,4.093-6.947,7.546-10.546,11.386c-3.59,3.809-3.965,10.859-7.889,14.397c-3.88,3.492-10.371,3.847-14.594,7.046
			c-4.14,3.171-8.775,5.327-13.247,8.181C323.593,387.77,321.606,394.735,316.93,397.203z"/>
		<path d="M415.054,228.833c0.043-5.247,0.961-10.361,0.588-15.614c-0.383-5.227-0.429-10.419-1.261-15.616
			c-0.808-5.169-1.292-10.376-2.534-15.51c-1.241-5.067-0.416-10.844-2.088-15.861c-1.654-4.947-3.458-10.065-5.528-14.93
			c-2.063-4.793-7.204-8.216-9.683-12.893c-2.476-4.693-4.307-9.649-7.103-14.039c-1.809-2.843-4.506-4.999-7.038-7.262
			c-58.083,75.174-176.705,228.224-223.465,288.544c1.574,1.797,3.236,3.427,5.23,4.122c4.949,1.752,11.717-2.17,16.794-0.834
			c5.067,1.355,8.999,8.186,14.171,9.106c5.159,0.921,11.223-4.399,16.462-3.92c5.21,0.487,10.191,6.227,15.454,6.276
			c5.245,0.063,10.271-6.515,15.511-6.896c5.227-0.376,10.423,0.751,15.631-0.071c5.167-0.812,9.757-3.417,14.904-4.657
			c5.055-1.226,10.393-0.914,15.41-2.586c4.942-1.656,11.738,1.248,16.605-0.832c4.787-2.055,9.136-5.681,13.814-8.157
			c4.676-2.468,6.663-9.433,11.045-12.223c4.472-2.854,9.107-5.01,13.247-8.181c4.223-3.199,10.714-3.554,14.594-7.046
			c3.924-3.538,4.299-10.589,7.889-14.397c3.599-3.84,7.299-7.293,10.546-11.386c3.273-4.129,10.241-5.547,13.14-9.902
			c2.921-4.371,4.044-9.982,6.566-14.557c2.547-4.612,6.214-8.758,8.357-13.543c2.158-4.787,0.33-11.154,2.091-16.122
			c1.745-4.933,8.427-8.411,9.762-13.487c1.355-5.086-0.229-10.94,0.688-16.112c0.92-5.167-1.117-10.651-0.632-15.896
			C414.722,239.122,414.98,234.075,415.054,228.833z"/>
		<path d="M142.282,128.075c0,10.199-8.271,18.46-18.463,18.46c-10.194,0-18.467-8.261-18.467-18.46
			c0-10.199,8.273-18.461,18.467-18.461C134.011,109.614,142.282,117.876,142.282,128.075z"/>
		<path d="M191.24,184.241c0,14.725-11.936,26.652-26.651,26.652c-14.725,0-26.658-11.927-26.658-26.652
			c0-14.724,11.934-26.651,26.658-26.651C179.305,157.59,191.24,169.517,191.24,184.241z"/>
		<path d="M304.398,145.584c0,14.714-11.935,26.655-26.651,26.655c-14.708,0-26.652-11.941-26.652-26.655
			c0-14.719,11.944-26.652,26.652-26.652C292.463,118.932,304.398,130.865,304.398,145.584z"/>
		<path d="M265.637,67.675c0,8.53-6.929,15.444-15.459,15.444c-8.531,0-15.459-6.914-15.459-15.444s6.928-15.45,15.459-15.45
			C258.708,52.225,265.637,59.145,265.637,67.675z"/>
		<path d="M207.08,126.562c0,4.01-3.252,7.258-7.26,7.258c-3.999,0-7.26-3.248-7.26-7.258c0-4.002,3.261-7.25,7.26-7.25
			C203.828,119.313,207.08,122.56,207.08,126.562z"/>
		<path d="M237.183,158.982c0,6.289-5.083,11.393-11.391,11.393c-6.287,0-11.39-5.104-11.39-11.393
			c0-6.301,5.103-11.405,11.39-11.405C232.1,147.577,237.183,152.68,237.183,158.982z"/>
		<path d="M92.714,190.951c0,8.147-6.597,14.745-14.744,14.745c-8.149,0-14.749-6.598-14.749-14.745
			c0-8.143,6.599-14.748,14.749-14.748C86.117,176.204,92.714,182.809,92.714,190.951z"/>
		<path d="M95.985,148.409c0,3.14-2.548,5.699-5.699,5.699c-3.143,0-5.695-2.559-5.695-5.699c0-3.148,2.553-5.705,5.695-5.705
			C93.437,142.704,95.985,145.261,95.985,148.409z"/>
		<path d="M148.456,272.094c0,5.82-4.717,10.527-10.525,10.527c-5.811,0-10.52-4.707-10.52-10.527
			c0-5.815,4.709-10.526,10.52-10.526C143.74,261.567,148.456,266.278,148.456,272.094z"/>
		<path d="M87.264,267.422c0,3.211-2.624,5.839-5.851,5.839c-3.231,0-5.847-2.628-5.847-5.839c0-3.228,2.615-5.854,5.847-5.854
			C84.641,261.567,87.264,264.194,87.264,267.422z"/>
		<path d="M145.882,215.857c0,7.952-6.432,14.393-14.381,14.393c-7.947,0-14.385-6.441-14.385-14.393
			c0-7.948,6.438-14.382,14.385-14.382C139.45,201.475,145.882,207.909,145.882,215.857z"/>
		<path d="M225.418,300.017c0,9.6-7.802,17.386-17.401,17.386c-9.608,0-17.403-7.786-17.403-17.386
			c0-9.602,7.794-17.396,17.403-17.396C217.615,282.621,225.418,290.416,225.418,300.017z"/>
		<path d="M249.426,232.308c0,6.18-5.019,11.197-11.206,11.197c-6.21,0-11.229-5.018-11.229-11.197s5.02-11.219,11.229-11.219
			C244.407,221.09,249.426,226.129,249.426,232.308z"/>
		<path d="M305.745,195.458c0,6.191-5.021,11.217-11.2,11.217c-6.205,0-11.225-5.025-11.225-11.217c0-6.2,5.02-11.217,11.225-11.217
			C300.725,184.241,305.745,189.258,305.745,195.458z"/>
		<path d="M152.562,344.159c0,13.89-11.265,25.155-25.151,25.155c-13.899,0-25.157-11.266-25.157-25.155
			c0-13.899,11.258-25.159,25.157-25.159C141.297,319,152.562,330.26,152.562,344.159z"/>
		<path d="M183.846,344.159c0,4.084-3.322,7.388-7.407,7.388c-4.083,0-7.407-3.304-7.407-7.388c0-4.087,3.324-7.414,7.407-7.414
			C180.524,336.745,183.846,340.072,183.846,344.159z"/>
		<path d="M340.584,102.089c0,4.09-3.323,7.403-7.405,7.403c-4.08,0-7.388-3.313-7.388-7.403c0-4.093,3.308-7.403,7.388-7.403
			C337.261,94.685,340.584,97.995,340.584,102.089z"/>
		<path d="M329.8,150.845c0,4.493-3.64,8.138-8.114,8.138c-4.513,0-8.15-3.646-8.15-8.138c0-4.493,3.638-8.144,8.15-8.144
			C326.16,142.701,329.8,146.352,329.8,150.845z"/>
		<circle cx="164.588" cy="82.326" r="10.898"/>
		<path d="M190.614,247.394c0,2.138-1.727,3.879-3.865,3.879c-2.14,0-3.872-1.741-3.872-3.879c0-2.14,1.731-3.889,3.872-3.889
			C188.887,243.506,190.614,245.255,190.614,247.394z"/>
		<path d="M127.683,172.24c0,2.138-1.727,3.871-3.865,3.871c-2.14,0-3.87-1.732-3.87-3.871c0-2.134,1.729-3.874,3.87-3.874
			C125.956,168.366,127.683,170.106,127.683,172.24z"/>
		<path d="M194.479,59.957c0,2.139-1.725,3.87-3.865,3.87c-2.138,0-3.867-1.731-3.867-3.87c0-2.139,1.729-3.87,3.867-3.87
			C192.754,56.087,194.479,57.818,194.479,59.957z"/>
		<path d="M63.222,237.207c0,2.139-1.736,3.859-3.874,3.859c-2.135,0-3.873-1.721-3.873-3.859s1.737-3.888,3.873-3.888
			C61.486,233.319,63.222,235.068,63.222,237.207z"/>
		<path d="M168.455,379.898c0,2.139-1.729,3.884-3.867,3.884c-2.138,0-3.873-1.745-3.873-3.884s1.735-3.866,3.873-3.866
			C166.726,376.032,168.455,377.76,168.455,379.898z"/>
		<path d="M262.058,373.101c0,9.912-8.025,17.94-17.94,17.94c-9.912,0-17.94-8.028-17.94-17.94c0-9.916,8.028-17.944,17.94-17.944
			C254.032,355.157,262.058,363.185,262.058,373.101z"/>
		<path d="M208.017,391.607c0,4.532-3.666,8.193-8.198,8.193c-4.521,0-8.182-3.661-8.182-8.193c0-4.514,3.662-8.184,8.182-8.184
			C204.351,383.424,208.017,387.094,208.017,391.607z"/>
		<path d="M284.093,384.469c0,2.879-2.31,5.229-5.2,5.229c-2.893,0-5.219-2.35-5.219-5.229s2.326-5.215,5.219-5.215
			C281.783,379.255,284.093,381.591,284.093,384.469z"/>
		<path d="M299.761,260.413c0,2.877-2.336,5.189-5.216,5.189c-2.878,0-5.228-2.313-5.228-5.189c0-2.896,2.35-5.232,5.228-5.232
			C297.425,255.18,299.761,257.517,299.761,260.413z"/>
		<path d="M410.003,184.241c0,2.879-2.349,5.221-5.229,5.221c-2.878,0-5.215-2.342-5.215-5.221c0-2.878,2.337-5.216,5.215-5.216
			C407.655,179.025,410.003,181.363,410.003,184.241z"/>
		<path d="M306.305,300.017c0,10.827-8.801,19.622-19.633,19.622c-10.826,0-19.623-8.795-19.623-19.622
			c0-10.832,8.797-19.642,19.623-19.642C297.504,280.376,306.305,289.185,306.305,300.017z"/>
		<path d="M303.452,355.157c0,4.909-3.989,8.909-8.905,8.909c-4.941,0-8.944-4-8.944-8.909c0-4.938,4.003-8.941,8.944-8.941
			C299.463,346.216,303.452,350.219,303.452,355.157z"/>
		<path d="M342.972,347.971c0,3.99-3.246,7.218-7.236,7.218c-3.986,0-7.213-3.228-7.213-7.218c0-4.001,3.227-7.245,7.213-7.245
			C339.726,340.726,342.972,343.97,342.972,347.971z"/>
		<path d="M352.497,258.74c0,11.387-9.202,20.584-20.584,20.584c-11.367,0-20.576-9.197-20.576-20.584
			c0-11.362,9.209-20.566,20.576-20.566C343.295,238.174,352.497,247.378,352.497,258.74z"/>
		<path d="M397.55,277.412c0,7.205-5.838,13.017-13.039,13.017c-7.191,0-13.015-5.812-13.015-13.017
			c0-7.202,5.823-13.033,13.015-13.033C391.712,264.379,397.55,270.21,397.55,277.412z"/>
		<path d="M398.277,209.394c0,3.825-3.11,6.918-6.934,6.918c-3.817,0-6.904-3.094-6.904-6.918c0-3.825,3.087-6.918,6.904-6.918
			C395.166,202.476,398.277,205.569,398.277,209.394z"/>
		<path d="M396.012,156.995c0,4.739-3.852,8.58-8.599,8.58c-4.746,0-8.585-3.841-8.585-8.58c0-4.747,3.839-8.586,8.585-8.586
			C392.16,148.409,396.012,152.249,396.012,156.995z"/>
		<path d="M178.239,109.397c1.371-1.63,2.204-3.687,2.055-5.874c-0.447-6.716-2.607-12.301-9.456-14.53
			c-2.652-0.862-5.168-0.449-7.426,0.68c-1.182,0.122-2.346,0.331-3.472,0.63c-0.848-0.551-1.79-1.058-2.835-1.486
			c-2.477-1.027-5.131-0.966-7.674-0.227c-13.222-2.901-23.818,10.054-27.712,22.872c-3.711,12.185-4.421,35.576,12.169,38.789
			c9.993,1.948,18.649-4.657,25.462-11.147c6.869-6.54,13.405-14.593,16.977-23.539
			C177.297,113.645,177.947,111.572,178.239,109.397z"/>
		<path d="M118.661,217.537c-0.037-3.855-2.725-7.646-6.202-9.196c-1.936-3.202-5.532-5.473-10.178-4.608
			c-19.003,3.553-26.052,28.889-23.548,45.545c3.04,20.198,24.048,33.524,43.922,28.177
			C149.909,270.106,139.47,229.625,118.661,217.537z"/>
		<path d="M210.661,179.168c-1.576-7.775-6.452-12.243-12.256-13.54c-0.802-2.559-2.819-4.695-6.378-5.421
			c-13.866-2.845-26.483,10.589-31.321,22.148c-4.635,11.055,6.835,25.067,12.937,33.402c3.55,4.865,7.568,10.104,13.35,12.361
			c7.136,2.742,13.407-2.127,16.655-8.114C209.693,208.823,213.185,191.661,210.661,179.168z"/>
		<path d="M303.908,96.731c-0.58-1.954-1.923-3.76-4.245-5.063c-4.624-2.617-9.29-3.7-14.561-3.962
			c-4.709-0.236-9.933,4.465-9.403,9.383c0.301,2.731,0.746,5.211,1.618,7.812c0.046,0.106,0.056,0.193,0.085,0.298
			c-3.448,0.138-7.382-0.674-10.695-0.175c-10.922,1.654-15.923,12.645-13.057,22.673c2.642,9.187,11.558,16.463,19.852,20.413
			c9.435,4.506,19.557,3.628,28.103-2.516c9.068-6.498,14.522-16.995,14.612-28.129C316.286,109.044,311.639,100.065,303.908,96.731
			z"/>
		<path d="M219.806,68.823c-7.992-0.021-17.568,6.898-18.604,15.338c-3.239,6.25-3.859,13.207,1.432,19.505
			c5.159,6.132,15.171,6.593,22.332,4.832c8.379-2.075,15.882-9.229,15.395-18.378C239.823,79.561,230.784,68.857,219.806,68.823z"
			/>
		<path d="M297.358,198.679c-4.282-5.05-12.379-8.992-20.03-9.398c-1.052-4.766-5.321-8.923-11.436-7.394
			c-18.152,4.53-21.976,23.403-17.247,39.307c3.895,13.081,15.659,31.127,31.566,29.245c9.389-1.111,15.758-7.695,19.838-15.899
			C305.99,222.541,306.277,209.189,297.358,198.679z"/>
		<path d="M196.437,312.679c3.064-8.571,4.697-21.517-6.317-25.111c-0.247-0.063-0.5-0.122-0.75-0.189
			c-1.083-1.56-2.798-2.807-5.236-3.379c-15.021-3.581-26.555,7.067-34.868,18.251c-7.375,9.919-15.18,25.491-9.105,37.713
			c6.703,13.511,25.805,12.179,37.449,6.969c5.527-2.496,8.231-8.389,10.334-13.65c1.457-3.608,3.021-7.193,4.556-10.768
			c0.415-0.844,0.77-1.67,1.054-2.536C194.565,317.56,195.544,315.144,196.437,312.679z M156.744,329.894
			c0.476,0.659,1.021,1.275,1.617,1.844h-0.007C156.455,331.693,156.558,331.395,156.744,329.894z"/>
		<path d="M302.581,342.264c-2.281-11.292-7.669-23.507-15.962-31.629c-1.656-1.63-3.475-2.909-5.392-3.901
			c-0.384-3.79-2.894-7.632-6.771-8.224c-18.705-2.726-34.03,12.227-35.781,30.431c-1.253,12.971,12.999,25.236,21.794,33.042
			c7.72,6.816,19.807,15.977,30.777,11.672C303.722,368.773,304.893,353.666,302.581,342.264z"/>
		<path d="M323.601,316.817c5.102,12.23,15.448,16.152,26.017,14.281c7.548,3.781,16.215,4.716,22.258-2.984
			c6.727-8.554,3.775-17.429-0.442-26.122c-3.604-7.458-8.155-18.315-15.807-22.545c-7.291-4.059-15.606-4.188-22.905-0.329
			C320.197,285.704,318.782,305.216,323.601,316.817z"/>
		<path d="M325.109,200.174c1.302,8.926,5.577,17.773,13.148,20.736c1.636,3.357,4.999,5.928,9.681,5.515
			c12.573-1.151,24.632-15.104,27.537-26.68c1.786-7.041,0.592-13.672-4.854-18.595c0.15-0.064,0.295-0.109,0.437-0.158
			c11.914-4.449,18.925-17.141,13.67-29.378c-4.615-10.683-18.515-15.285-29.218-14.925c-15.382,0.527-26.83,9.423-32.469,23.683
			C318.258,172.447,323.328,187.788,325.109,200.174z"/>
		<path d="M238.676,375.45c-0.766-11.71-10.095-19.16-20.649-20.586c-7.064-2.722-13.778-2.162-18.785,4.411
			c-3.81,5.02-5.086,12.521-4.922,18.642c0.174,6.347,3.419,12.415,9.741,14.389c2.065,0.634,4.309,0.782,6.468,0.678
			c0.802-0.029,1.604-0.11,2.423-0.18c0.494-0.028,0.961-0.016,1.345,0.016c1.437,1.245,3.166,2.428,4.997,2.922
			c3.73,1.009,7.033,0.274,10.365-1.537C236.392,390.55,239.164,382.731,238.676,375.45z"/>
		<path d="M244.037,265.469c-1.803-1.806-3.593-3.621-5.347-5.511c-0.635-0.709-1.271-1.445-1.899-2.19
			c-0.035-0.046-0.064-0.089-0.095-0.106c-0.451-0.63-1.16-2.423-0.067,0.321c-1.896-4.731-6.201-8.016-11.548-6.556
			c-0.535,0.152-1.066,0.366-1.566,0.611c-3.403-0.133-6.912,1.465-8.517,4.601c-4.18,8.203-3.166,17.031,4.572,22.64
			c5.557,3.995,14.1,4.468,20.325,1.882c3.15-1.283,5.629-3.077,6.554-6.558C247.359,271.383,246.428,267.859,244.037,265.469z"/>
		<path d="M104.11,157.292c-2.462-1.735-5.507-2.733-8.365-3.704c-0.45-1.416-1.207-2.73-2.254-3.772
			c-3.751-3.753-9.491-3.436-13.277,0c-3.815,3.465-7.518,8.005-8.527,13.207c-1.226,6.331,0.922,11.933,6.139,15.726
			c9.034,6.589,21.723,0.509,28.185-6.717C110.287,167.261,109.209,160.891,104.11,157.292z"/>
		<path d="M111.002,307.156c-3.264-2.198-7.699-2.469-11.392-1.492c-0.632,0.161-1.237,0.39-1.821,0.617
			c-2.989,0.254-5.848,1.855-7.419,4.596c-0.577,1.022-1.049,2.068-1.434,3.132c-0.116,0.154-0.241,0.307-0.354,0.462
			c-1.665,2.248-1.615,5.658-0.578,8.261c0.601,3.894,2.625,7.481,6.197,10.061c6.819,4.943,18.889,1.981,22.511-5.642
			C120.22,319.791,117.737,311.638,111.002,307.156z"/>
		<path d="M398.428,243.099c-0.025-2.377-0.92-4.775-2.706-6.553c-1.429-1.419-2.585-1.879-4.411-2.641
			c-3.006-1.225-6.49-0.033-8.908,2.237c-0.551,0.202-1.117,0.417-1.639,0.729c-1.132,0.667-1.995,1.47-2.692,2.397
			c-1.221,0.123-2.415,0.495-3.569,1.187c-2.655,1.527-4.971,4.888-4.657,8.089c0.063,0.613,0.14,1.218,0.213,1.816
			c-1.292,2.989-1.5,6.284,0.164,9.901c2.593,5.64,10.15,6.354,15.334,4.737c5.406-1.653,10.189-5.501,10.855-11.291
			c0.823-0.985,1.431-2.154,1.723-3.544C398.657,247.617,398.708,245.549,398.428,243.099z"/>
		<path d="M175.563,104.03c1.372-1.625,2.199-3.681,2.056-5.875c-0.448-6.713-2.619-12.292-9.468-14.527
			c-2.643-0.865-5.161-0.447-7.426,0.68c-1.181,0.125-2.345,0.337-3.471,0.633c-0.848-0.554-1.786-1.055-2.835-1.492
			c-2.468-1.02-5.123-0.964-7.675-0.226c-13.214-2.9-23.809,10.052-27.709,22.874c-3.708,12.184-4.419,35.577,12.167,38.796
			c9.998,1.934,18.649-4.655,25.471-11.154c6.865-6.54,13.406-14.587,16.974-23.539C174.611,108.275,175.267,106.21,175.563,104.03z
			"/>
		<path d="M115.979,212.164c-0.038-3.855-2.726-7.626-6.205-9.196c-1.936-3.202-5.526-5.463-10.172-4.595
			c-19.003,3.551-26.053,28.876-23.552,45.532c3.037,20.198,24.049,33.53,43.924,28.176
			C147.236,264.733,136.789,224.252,115.979,212.164z"/>
		<path d="M207.975,173.795c-1.559-7.775-6.443-12.225-12.256-13.521c-0.8-2.57-2.819-4.704-6.367-5.433
			c-13.866-2.848-26.496,10.589-31.333,22.142c-4.629,11.055,6.833,25.067,12.936,33.421c3.553,4.866,7.579,10.105,13.351,12.345
			c7.135,2.774,13.406-2.11,16.654-8.115C207.017,203.469,210.499,186.288,207.975,173.795z"/>
		<path d="M301.241,91.365c-0.58-1.955-1.937-3.757-4.245-5.063c-4.642-2.619-9.29-3.699-14.59-3.964
			c-4.719-0.237-9.912,4.463-9.386,9.389c0.295,2.729,0.719,5.202,1.608,7.806c0.03,0.113,0.063,0.198,0.106,0.294
			c-3.46,0.143-7.417-0.67-10.702-0.166c-10.915,1.653-15.916,12.645-13.05,22.674c2.62,9.174,11.558,16.462,19.836,20.416
			c9.444,4.503,19.552,3.612,28.113-2.524c9.053-6.506,14.526-16.997,14.603-28.137C313.615,103.683,308.933,94.704,301.241,91.365z
			"/>
		<path d="M217.12,63.458c-7.992-0.023-17.558,6.897-18.606,15.337c-3.225,6.249-3.857,13.206,1.434,19.502
			c5.174,6.139,15.171,6.6,22.33,4.834c8.396-2.076,15.903-9.229,15.416-18.378C237.153,74.197,228.117,63.49,217.12,63.458z"/>
		<path d="M294.691,193.319c-4.286-5.063-12.413-9.001-20.062-9.41c-1.058-4.748-5.323-8.916-11.426-7.392
			c-18.131,4.545-21.956,23.4-17.228,39.304c3.871,13.081,15.661,31.127,31.546,29.245c9.411-1.104,15.78-7.669,19.822-15.883
			C303.285,217.186,303.579,203.829,294.691,193.319z"/>
		<path d="M193.751,307.33c3.071-8.595,4.697-21.54-6.311-25.129c-0.254-0.069-0.507-0.128-0.75-0.172
			c-1.085-1.584-2.806-2.831-5.243-3.402c-15.016-3.579-26.555,7.079-34.868,18.25c-7.372,9.92-15.178,25.513-9.094,37.728
			c6.704,13.499,25.8,12.18,37.438,6.957c5.526-2.498,8.231-8.391,10.334-13.648c1.455-3.612,3.033-7.179,4.558-10.771
			c0.413-0.823,0.768-1.67,1.064-2.513C191.879,312.205,192.862,309.783,193.751,307.33z M154.058,324.541
			c0.486,0.639,1.026,1.256,1.625,1.837h-0.009C153.775,326.321,153.872,326.023,154.058,324.541z"/>
		<path d="M299.906,336.902c-2.278-11.289-7.661-23.498-15.98-31.641c-1.668-1.611-3.486-2.908-5.365-3.877
			c-0.417-3.8-2.894-7.657-6.809-8.222c-18.667-2.737-33.991,12.203-35.77,30.405c-1.264,12.995,13.025,25.235,21.819,33.042
			c7.687,6.816,19.804,15.977,30.777,11.683C301.029,363.412,302.201,348.308,299.906,336.902z"/>
		<path d="M320.928,311.456c5.075,12.219,15.419,16.15,26.022,14.294c7.519,3.757,16.189,4.7,22.256-3.01
			c6.715-8.542,3.767-17.403-0.452-26.12c-3.619-7.457-8.174-18.316-15.819-22.546c-7.302-4.058-15.582-4.188-22.881-0.329
			C317.53,280.356,316.079,299.865,320.928,311.456z"/>
		<path d="M322.442,194.801c1.27,8.926,5.561,17.774,13.124,20.736c1.657,3.357,5.018,5.929,9.705,5.516
			c12.548-1.132,24.6-15.096,27.522-26.668c1.775-7.052,0.571-13.68-4.842-18.606c0.141-0.047,0.284-0.101,0.425-0.159
			c11.926-4.437,18.938-17.142,13.657-29.362c-4.592-10.695-18.489-15.29-29.228-14.927c-15.364,0.528-26.822,9.415-32.466,23.685
			C315.592,167.074,320.635,182.433,322.442,194.801z"/>
		<path d="M236,370.092c-0.795-11.713-10.121-19.168-20.66-20.576c-7.064-2.731-13.778-2.188-18.784,4.407
			c-3.812,5.004-5.072,12.515-4.914,18.632c0.166,6.359,3.424,12.403,9.746,14.377c2.058,0.654,4.295,0.792,6.455,0.692
			c0.801-0.024,1.619-0.124,2.422-0.174c0.494-0.047,0.961-0.018,1.345,0.007c1.437,1.246,3.171,2.433,5.013,2.923
			c3.732,1.018,7.008,0.275,10.329-1.535C233.713,385.188,236.497,377.372,236,370.092z"/>
		<path d="M241.37,260.109c-1.803-1.819-3.608-3.634-5.347-5.491c-0.673-0.741-1.309-1.478-1.918-2.224
			c-0.017-0.045-0.046-0.056-0.087-0.105c-0.44-0.631-1.149-2.389-0.064,0.354c-1.888-4.758-6.231-8.049-11.554-6.554
			c-0.533,0.145-1.055,0.331-1.572,0.611c-3.403-0.15-6.912,1.43-8.517,4.574c-4.18,8.225-3.152,17.059,4.572,22.631
			c5.557,4.023,14.119,4.484,20.338,1.896c3.131-1.298,5.596-3.084,6.56-6.552C244.664,266.027,243.721,262.485,241.37,260.109z"/>
		<path d="M101.43,151.92c-2.469-1.734-5.514-2.734-8.37-3.698c-0.447-1.412-1.199-2.721-2.253-3.772
			c-3.745-3.748-9.487-3.431-13.276,0c-3.818,3.465-7.518,8-8.525,13.203c-1.231,6.335,0.925,11.934,6.139,15.735
			c9.033,6.577,21.72,0.505,28.182-6.71C107.605,161.893,106.528,155.523,101.43,151.92z"/>
		<path d="M108.322,301.783c-3.27-2.199-7.696-2.469-11.391-1.467c-0.637,0.16-1.243,0.364-1.821,0.615
			c-2.996,0.23-5.853,1.842-7.424,4.582c-0.574,1.021-1.05,2.059-1.436,3.122c-0.114,0.154-0.24,0.306-0.353,0.462
			c-1.661,2.248-1.609,5.681-0.576,8.284c0.606,3.869,2.626,7.472,6.199,10.056c6.821,4.925,18.884,1.98,22.512-5.639
			C117.538,314.418,115.051,306.274,108.322,301.783z"/>
		<path d="M395.737,237.726c-0.013-2.377-0.918-4.745-2.712-6.553c-1.411-1.381-2.583-1.859-4.397-2.615
			c-2.992-1.251-6.474-0.059-8.9,2.212c-0.573,0.204-1.117,0.417-1.655,0.729c-1.108,0.667-1.991,1.492-2.681,2.406
			c-1.224,0.15-2.404,0.486-3.578,1.188c-2.634,1.554-4.964,4.907-4.648,8.104c0.068,0.609,0.127,1.219,0.225,1.823
			c-1.31,2.955-1.519,6.254,0.158,9.903c2.587,5.635,10.152,6.318,15.341,4.727c5.384-1.673,10.178-5.506,10.849-11.314
			c0.805-0.986,1.413-2.155,1.705-3.545C395.989,242.255,396.029,240.176,395.737,237.726z"/>
		<path d="M175.563,104.03c1.372-1.625,2.199-3.681,2.056-5.875c-0.448-6.713-2.619-12.292-9.468-14.527
			c-2.643-0.865-5.161-0.447-7.426,0.68c-1.181,0.125-2.345,0.337-3.471,0.633c-0.848-0.554-1.786-1.055-2.835-1.492
			c-2.468-1.02-5.123-0.964-7.675-0.226c-13.214-2.9-23.809,10.052-27.709,22.874c-3.708,12.184-4.419,35.577,12.167,38.796
			c9.998,1.934,18.649-4.655,25.471-11.154c6.865-6.54,13.406-14.587,16.974-23.539C174.611,108.275,175.267,106.21,175.563,104.03z
			"/>
		<path d="M115.979,212.164c-0.038-3.855-2.726-7.626-6.205-9.196c-1.936-3.202-5.526-5.463-10.172-4.595
			c-19.003,3.551-26.053,28.876-23.552,45.532c3.037,20.198,24.049,33.53,43.924,28.176
			C147.236,264.733,136.789,224.252,115.979,212.164z"/>
		<path d="M207.975,173.795c-1.559-7.775-6.443-12.225-12.256-13.521c-0.8-2.57-2.819-4.704-6.367-5.433
			c-13.866-2.848-26.496,10.589-31.333,22.142c-4.629,11.055,6.833,25.067,12.936,33.421c3.553,4.866,7.579,10.105,13.351,12.345
			c7.135,2.774,13.406-2.11,16.654-8.115C207.017,203.469,210.499,186.288,207.975,173.795z"/>
		<path d="M301.241,91.365c-0.58-1.955-1.937-3.757-4.245-5.063c-4.642-2.619-9.29-3.699-14.59-3.964
			c-4.719-0.237-9.912,4.463-9.386,9.389c0.295,2.729,0.719,5.202,1.608,7.806c0.03,0.113,0.063,0.198,0.106,0.294
			c-3.46,0.143-7.417-0.67-10.702-0.166c-10.915,1.653-15.916,12.645-13.05,22.674c2.62,9.174,11.558,16.462,19.836,20.416
			c9.444,4.503,19.552,3.612,28.113-2.524c9.053-6.506,14.526-16.997,14.603-28.137C313.615,103.683,308.933,94.704,301.241,91.365z
			"/>
		<path d="M217.12,63.458c-7.992-0.023-17.558,6.897-18.606,15.337c-3.225,6.249-3.857,13.206,1.434,19.502
			c5.174,6.139,15.171,6.6,22.33,4.834c8.396-2.076,15.903-9.229,15.416-18.378C237.153,74.197,228.117,63.49,217.12,63.458z"/>
		<path d="M294.691,193.319c-4.286-5.063-12.413-9.001-20.062-9.41c-1.058-4.748-5.323-8.916-11.426-7.392
			c-18.131,4.545-21.956,23.4-17.228,39.304c3.871,13.081,15.661,31.127,31.546,29.245c9.411-1.104,15.78-7.669,19.822-15.883
			C303.285,217.186,303.579,203.829,294.691,193.319z"/>
		<path d="M193.751,307.33c3.071-8.595,4.697-21.54-6.311-25.129c-0.254-0.069-0.507-0.128-0.75-0.172
			c-1.085-1.584-2.806-2.831-5.243-3.402c-15.016-3.579-26.555,7.079-34.868,18.25c-7.372,9.92-15.178,25.513-9.094,37.728
			c6.704,13.499,25.8,12.18,37.438,6.957c5.526-2.498,8.231-8.391,10.334-13.648c1.455-3.612,3.033-7.179,4.558-10.771
			c0.413-0.823,0.768-1.67,1.064-2.513C191.879,312.205,192.862,309.783,193.751,307.33z M154.058,324.541
			c0.486,0.639,1.026,1.256,1.625,1.837h-0.009C153.775,326.321,153.872,326.023,154.058,324.541z"/>
		<path d="M299.906,336.902c-2.278-11.289-7.661-23.498-15.98-31.641c-1.668-1.611-3.486-2.908-5.365-3.877
			c-0.417-3.8-2.894-7.657-6.809-8.222c-18.667-2.737-33.991,12.203-35.77,30.405c-1.264,12.995,13.025,25.235,21.819,33.042
			c7.687,6.816,19.804,15.977,30.777,11.683C301.029,363.412,302.201,348.308,299.906,336.902z"/>
		<path d="M320.928,311.456c5.075,12.219,15.419,16.15,26.022,14.294c7.519,3.757,16.189,4.7,22.256-3.01
			c6.715-8.542,3.767-17.403-0.452-26.12c-3.619-7.457-8.174-18.316-15.819-22.546c-7.302-4.058-15.582-4.188-22.881-0.329
			C317.53,280.356,316.079,299.865,320.928,311.456z"/>
		<path d="M322.442,194.801c1.27,8.926,5.561,17.774,13.124,20.736c1.657,3.357,5.018,5.929,9.705,5.516
			c12.548-1.132,24.6-15.096,27.522-26.668c1.775-7.052,0.571-13.68-4.842-18.606c0.141-0.047,0.284-0.101,0.425-0.159
			c11.926-4.437,18.938-17.142,13.657-29.362c-4.592-10.695-18.489-15.29-29.228-14.927c-15.364,0.528-26.822,9.415-32.466,23.685
			C315.592,167.074,320.635,182.433,322.442,194.801z"/>
		<path d="M236,370.092c-0.795-11.713-10.121-19.168-20.66-20.576c-7.064-2.731-13.778-2.188-18.784,4.407
			c-3.812,5.004-5.072,12.515-4.914,18.632c0.166,6.359,3.424,12.403,9.746,14.377c2.058,0.654,4.295,0.792,6.455,0.692
			c0.801-0.024,1.619-0.124,2.422-0.174c0.494-0.047,0.961-0.018,1.345,0.007c1.437,1.246,3.171,2.433,5.013,2.923
			c3.732,1.018,7.008,0.275,10.329-1.535C233.713,385.188,236.497,377.372,236,370.092z"/>
		<path d="M241.37,260.109c-1.803-1.819-3.608-3.634-5.347-5.491c-0.673-0.741-1.309-1.478-1.918-2.224
			c-0.017-0.045-0.046-0.056-0.087-0.105c-0.44-0.631-1.149-2.389-0.064,0.354c-1.888-4.758-6.231-8.049-11.554-6.554
			c-0.533,0.145-1.055,0.331-1.572,0.611c-3.403-0.15-6.912,1.43-8.517,4.574c-4.18,8.225-3.152,17.059,4.572,22.631
			c5.557,4.023,14.119,4.484,20.338,1.896c3.131-1.298,5.596-3.084,6.56-6.552C244.664,266.027,243.721,262.485,241.37,260.109z"/>
		<path d="M101.43,151.92c-2.469-1.734-5.514-2.734-8.37-3.698c-0.447-1.412-1.199-2.721-2.253-3.772
			c-3.745-3.748-9.487-3.431-13.276,0c-3.818,3.465-7.518,8-8.525,13.203c-1.231,6.335,0.925,11.934,6.139,15.735
			c9.033,6.577,21.72,0.505,28.182-6.71C107.605,161.893,106.528,155.523,101.43,151.92z"/>
		<path d="M108.322,301.783c-3.27-2.199-7.696-2.469-11.391-1.467c-0.637,0.16-1.243,0.364-1.821,0.615
			c-2.996,0.23-5.853,1.842-7.424,4.582c-0.574,1.021-1.05,2.059-1.436,3.122c-0.114,0.154-0.24,0.306-0.353,0.462
			c-1.661,2.248-1.609,5.681-0.576,8.284c0.606,3.869,2.626,7.472,6.199,10.056c6.821,4.925,18.884,1.98,22.512-5.639
			C117.538,314.418,115.051,306.274,108.322,301.783z"/>
		<path d="M395.737,237.726c-0.013-2.377-0.918-4.745-2.712-6.553c-1.411-1.381-2.583-1.859-4.397-2.615
			c-2.992-1.251-6.474-0.059-8.9,2.212c-0.573,0.204-1.117,0.417-1.655,0.729c-1.108,0.667-1.991,1.492-2.681,2.406
			c-1.224,0.15-2.404,0.486-3.578,1.188c-2.634,1.554-4.964,4.907-4.648,8.104c0.068,0.609,0.127,1.219,0.225,1.823
			c-1.31,2.955-1.519,6.254,0.158,9.903c2.587,5.635,10.152,6.318,15.341,4.727c5.384-1.673,10.178-5.506,10.849-11.314
			c0.805-0.986,1.413-2.155,1.705-3.545C395.989,242.255,396.029,240.176,395.737,237.726z"/>
		<path d="M155.362,328.656c2.542,10.383,10.581,19.085,21.659,21.963c11.099,2.873,22.335-0.816,29.625-8.682L155.362,328.656z"/>
		<path d="M187.29,336.921l-15.144,11.971c1.554,0.688,3.183,1.279,4.875,1.728c11.099,2.873,22.335-0.816,29.625-8.682
			L187.29,336.921z"/>
		<path d="M141.68,124.597c7.345,7.793,18.62,11.398,29.688,8.43c11.057-2.968,19.017-11.729,21.487-22.149L141.68,124.597z"/>
		<path d="M173.53,116.058l-7.262,17.865c1.688-0.154,3.396-0.438,5.101-0.896c11.057-2.968,19.017-11.729,21.487-22.149
			L173.53,116.058z"/>
		<path d="M206.418,196.484c7.34,7.793,18.616,11.407,29.669,8.44c11.083-2.97,19.04-11.731,21.483-22.158L206.418,196.484z"/>
		<path d="M238.264,187.945l-7.262,17.871c1.701-0.155,3.408-0.436,5.085-0.892c11.083-2.97,19.04-11.731,21.483-22.158
			L238.264,187.945z"/>
		<path d="M309.224,216.952c-1,10.652,3.726,21.518,13.248,27.866c9.534,6.348,21.358,6.562,30.816,1.549L309.224,216.952z"/>
		<path d="M336.652,235.269l-18.21,6.291c1.239,1.184,2.567,2.266,4.03,3.258c9.534,6.348,21.358,6.562,30.816,1.549
			L336.652,235.269z"/>
		<path d="M289.368,120.56c-2.771-10.335-10.974-18.867-22.124-21.513c-11.15-2.65-22.321,1.285-29.433,9.279L289.368,120.56z"/>
		<path d="M255.768,112.59l33.601,7.97c-2.707-10.148-10.678-18.535-21.513-21.349L255.768,112.59z"/>
		<path d="M314.015,345.107c-2.771-10.342-10.974-18.873-22.124-21.507c-11.148-2.656-22.29,1.268-29.435,9.279L314.015,345.107z"/>
		<path d="M280.42,337.144l33.595,7.963c-2.706-10.15-10.679-18.545-21.514-21.332L280.42,337.144z"/>
		<path d="M149.334,223.987c-9.161-5.539-20.985-6.004-30.856-0.185c-9.867,5.819-15.196,16.366-14.795,27.071L149.334,223.987z"/>
		<path d="M119.592,241.523l29.742-17.537c-8.985-5.43-20.543-5.962-30.298-0.485L119.592,241.523z"/>
		<path d="M152.676,323.297c2.552,10.387,10.581,19.083,21.671,21.964c11.086,2.882,22.323-0.831,29.614-8.681L152.676,323.297z"/>
		<path d="M184.603,331.559l-15.134,11.959c1.544,0.698,3.173,1.293,4.878,1.742c11.086,2.882,22.323-0.831,29.614-8.681
			L184.603,331.559z"/>
		<path d="M138.999,119.237c7.339,7.781,18.615,11.395,29.683,8.431c11.068-2.966,19.017-11.731,21.488-22.149L138.999,119.237z"/>
		<path d="M170.849,110.698l-7.268,17.858c1.696-0.155,3.394-0.433,5.101-0.888c11.068-2.966,19.017-11.731,21.488-22.149
			L170.849,110.698z"/>
		<path d="M203.738,191.129c7.334,7.778,18.61,11.389,29.678,8.424c11.05-2.963,19.015-11.73,21.487-22.142L203.738,191.129z"/>
		<path d="M235.597,182.59l-7.28,17.852c1.682-0.155,3.393-0.433,5.1-0.888c11.05-2.963,19.015-11.73,21.487-22.142L235.597,182.59z
			"/>
		<path d="M306.549,211.579c-1,10.652,3.723,21.518,13.242,27.866c9.525,6.348,21.372,6.562,30.83,1.549L306.549,211.579z"/>
		<path d="M333.982,229.896l-18.226,6.295c1.23,1.196,2.584,2.287,4.035,3.254c9.525,6.348,21.372,6.562,30.83,1.549
			L333.982,229.896z"/>
		<path d="M286.672,115.199c-2.753-10.346-10.971-18.875-22.102-21.518c-11.144-2.646-22.32,1.285-29.428,9.279L286.672,115.199z"/>
		<path d="M253.101,107.222l33.571,7.977c-2.715-10.149-10.672-18.54-21.492-21.35L253.101,107.222z"/>
		<path d="M311.337,339.755c-2.76-10.341-10.967-18.872-22.113-21.527c-11.15-2.652-22.327,1.288-29.435,9.279L311.337,339.755z"/>
		<path d="M277.746,331.771l33.591,7.983c-2.724-10.163-10.669-18.553-21.503-21.353L277.746,331.771z"/>
		<path d="M146.648,218.632c-9.156-5.557-20.984-6.015-30.856-0.203c-9.862,5.819-15.193,16.391-14.786,27.07L146.648,218.632z"/>
		<path d="M116.908,236.15l29.739-17.519c-8.985-5.445-20.537-5.979-30.295-0.503L116.908,236.15z"/>
	</g>
	<g>
		<path fill="#835330" d="M222.481,225.88c0,0,42.757,32.303,63.246,50.52c20.452,18.179,70.087,59.974,76.947,65.07
			c9.182,6.833,23.67,25.03,29.772,17.675c6.104-7.342,5.73-15.414-4.542-21.796c-10.288-6.375-65.643-40.952-79.6-52.313
			c-13.943-11.369-81.279-71.412-85.824-66.864c-4.561,4.527-2.275,6.798-2.275,6.798"/>
		<g>
			<g>
				<g>
					<path fill="#F2BB6D" d="M441.316,222.436c0,120.854-97.982,218.834-218.835,218.834c-120.866,0-218.849-97.98-218.849-218.834
						c0-120.868,97.982-218.849,218.849-218.849C343.333,3.588,441.316,101.569,441.316,222.436z"/>
					<path fill="#DD9B4D" d="M382.17,72.819L113.354,412.165c32.127,18.521,69.38,29.105,109.127,29.105
						c120.853,0,218.835-97.98,218.835-218.834C441.316,164.56,418.855,111.949,382.17,72.819z"/>
				</g>
				<g>
					<path fill="#BF8241" d="M113.354,392.264c0,3.281-2.663,5.95-5.946,5.95c-3.281,0-5.945-2.669-5.945-5.95
						c0-3.288,2.664-5.952,5.945-5.952C110.691,386.312,113.354,388.976,113.354,392.264z"/>
					<path fill="#BF8241" d="M94.536,380.912c0,1.106-0.901,2.01-2.01,2.01c-1.112,0-2.014-0.903-2.014-2.01
						c0-1.1,0.902-1.998,2.014-1.998C93.635,378.914,94.536,379.812,94.536,380.912z"/>
					<path fill="#BF8241" d="M83.758,375.389c0,1.007-0.827,1.847-1.848,1.847c-1.014,0-1.844-0.84-1.844-1.847
						c0-1.03,0.83-1.849,1.844-1.849C82.931,373.541,83.758,374.359,83.758,375.389z"/>
					<path fill="#BF8241" d="M368.929,74.31c0,2.714-2.189,4.913-4.896,4.913c-2.729,0-4.922-2.199-4.922-4.913
						c0-2.712,2.193-4.912,4.922-4.912C366.74,69.398,368.929,71.598,368.929,74.31z"/>
					<path fill="#BF8241" d="M347.373,54.477c0,1.392-1.132,2.516-2.518,2.516c-1.379,0-2.512-1.125-2.512-2.516
						c0-1.389,1.133-2.515,2.512-2.515C346.241,51.963,347.373,53.089,347.373,54.477z"/>
					<path fill="#BF8241" d="M206.196,15.301c0,2.902-2.352,5.257-5.257,5.257c-2.898,0-5.256-2.355-5.256-5.257
						c0-2.9,2.358-5.256,5.256-5.256C203.844,10.044,206.196,12.4,206.196,15.301z"/>
					<path fill="#BF8241" d="M249.34,10.552c0,1.015-0.818,1.841-1.83,1.841c-1.036,0-1.842-0.826-1.842-1.841
						c0-1.023,0.806-1.846,1.842-1.846C248.522,8.706,249.34,9.529,249.34,10.552z"/>
					<path fill="#BF8241" d="M96.461,63.15c0,3.399-2.759,6.162-6.156,6.162c-3.402,0-6.162-2.762-6.162-6.162
						c0-3.398,2.76-6.157,6.162-6.157C93.701,56.993,96.461,59.752,96.461,63.15z"/>
					<path fill="#BF8241" d="M104.936,53.699c0,0.958-0.781,1.736-1.739,1.736c-0.963,0-1.735-0.778-1.735-1.736
						c0-0.955,0.771-1.736,1.735-1.736C104.156,51.963,104.936,52.744,104.936,53.699z"/>
					<path fill="#BF8241" d="M15.403,201.187c0,2.032-1.653,3.679-3.689,3.679c-2.034,0-3.689-1.647-3.689-3.679
						c0-2.05,1.656-3.695,3.689-3.695C13.75,197.492,15.403,199.137,15.403,201.187z"/>
					<path fill="#BF8241" d="M25.284,182.985c0,1.802-1.466,3.268-3.262,3.268c-1.806,0-3.266-1.466-3.266-3.268
						c0-1.809,1.46-3.27,3.266-3.27C23.818,179.715,25.284,181.176,25.284,182.985z"/>
					<path fill="#BF8241" d="M40.219,123.558c0,0.833-0.677,1.505-1.51,1.505c-0.834,0-1.511-0.672-1.511-1.505
						c0-0.835,0.677-1.51,1.511-1.51C39.542,122.048,40.219,122.722,40.219,123.558z"/>
					<path fill="#BF8241" d="M31.341,293.773c0,3.013-2.445,5.458-5.454,5.458c-3.012,0-5.456-2.445-5.456-5.458
						c0-3.031,2.444-5.473,5.456-5.473C28.896,288.301,31.341,290.742,31.341,293.773z"/>
					<path fill="#BF8241" d="M178.499,420.586c0,2.598-2.1,4.696-4.699,4.696c-2.598,0-4.704-2.099-4.704-4.696
						c0-2.602,2.106-4.7,4.704-4.7C176.399,415.885,178.499,417.984,178.499,420.586z"/>
					<path fill="#BF8241" d="M142.132,410.463c0,1.445-1.17,2.616-2.613,2.616s-2.62-1.171-2.62-2.616
						c0-1.439,1.177-2.603,2.62-2.603S142.132,409.023,142.132,410.463z"/>
					<path fill="#BF8241" d="M328.67,403.33c0,2.837-2.293,5.131-5.132,5.131c-2.821,0-5.114-2.294-5.114-5.131
						c0-2.82,2.293-5.115,5.114-5.115C326.377,398.215,328.67,400.51,328.67,403.33z"/>
					<path fill="#BF8241" d="M290.014,418.443c0,1.425-1.145,2.566-2.57,2.566c-1.392,0-2.557-1.142-2.557-2.566
						c0-1.415,1.165-2.558,2.557-2.558C288.869,415.885,290.014,417.028,290.014,418.443z"/>
					<path fill="#BF8241" d="M378.346,357.561c0,1.105-0.904,2.013-2.021,2.013c-1.122,0-2.02-0.907-2.02-2.013
						c0-1.122,0.897-2.02,2.02-2.02C377.442,355.542,378.346,356.439,378.346,357.561z"/>
					<path fill="#BF8241" d="M394.021,347.039c0,1.982-1.616,3.58-3.602,3.58s-3.588-1.598-3.588-3.58
						c0-1.987,1.603-3.601,3.588-3.601S394.021,345.052,394.021,347.039z"/>
					<path fill="#BF8241" d="M396.943,333.76c0,0.817-0.651,1.462-1.471,1.462c-0.806,0-1.451-0.645-1.451-1.462
						c0-0.814,0.646-1.453,1.451-1.453C396.291,332.306,396.943,332.945,396.943,333.76z"/>
					<path fill="#BF8241" d="M438.861,214.749c0,4.244-3.438,7.687-7.677,7.687c-4.242,0-7.691-3.443-7.691-7.687
						c0-4.255,3.449-7.693,7.691-7.693C435.422,207.056,438.861,210.494,438.861,214.749z"/>
					<path fill="#BF8241" d="M421.701,158.375c0,1.478-1.196,2.68-2.676,2.68c-1.488,0-2.694-1.202-2.694-2.68
						c0-1.484,1.206-2.682,2.694-2.682C420.505,155.693,421.701,156.891,421.701,158.375z"/>
					<path fill="#BF8241" d="M432.926,241.971c0,1.228-1.01,2.251-2.265,2.251c-1.242,0-2.252-1.023-2.252-2.251
						c0-1.255,1.01-2.274,2.252-2.274C431.916,239.697,432.926,240.717,432.926,241.971z"/>
					<path fill="#BF8241" d="M400.264,102.485c0,2.718-2.216,4.921-4.928,4.921s-4.917-2.204-4.917-4.921
						c0-2.716,2.205-4.917,4.917-4.917S400.264,99.769,400.264,102.485z"/>
					<path fill="#BF8241" d="M380.002,87.634c0,0.937-0.757,1.692-1.697,1.692s-1.698-0.756-1.698-1.692
						c0-0.932,0.758-1.688,1.698-1.688S380.002,86.701,380.002,87.634z"/>
				</g>
				<g>
					<path fill="#8D311F" d="M101.924,65.047c4.369-3.347,7.956-7.915,12.495-10.841c4.623-2.973,9.117-6.502,13.893-9.046
						c4.838-2.583,11.16-2.287,16.141-4.432c5.034-2.16,9.33-6.475,14.474-8.197c5.191-1.733,11.149-1.18,16.417-2.47
						c5.318-1.298,10.219-5.258,15.599-6.101c5.394-0.854,11.264,1.104,16.692,0.702c5.436-0.4,10.951-2.172,16.385-2.129
						c5.469,0.051,10.987,1.529,16.399,2.026c5.419,0.492,10.755,2.025,16.136,2.967c5.376,0.935,10.015,4.718,15.317,6.094
						c5.252,1.374,11.181,0.269,16.326,2.077c5.159,1.801,8.782,7.073,13.758,9.298c4.966,2.218,9.876,4.006,14.681,6.643
						c4.753,2.622,12.388,0.54,16.947,3.569c4.526,3.007,5.516,10.907,9.819,14.305c4.242,3.365,9.803,5.068,13.792,8.824
						c3.953,3.699,10.28,5.26,13.975,9.334c3.618,4.003,3.365,11.365,6.707,15.73c3.345,4.37,8.208,7.519,11.141,12.064
						c2.957,4.613,5.835,9.266,8.385,14.051c2.585,4.839,6.873,8.943,9.017,13.925c2.16,5.03,2.427,10.896,4.146,16.038
						c1.751,5.195,4.188,10.253,5.463,15.521c1.315,5.321,1.468,10.936,2.305,16.297c0.853,5.402-1.451,11.08-1.063,16.51
						c0.404,5.434,1.907,10.698,1.852,16.152c-0.049,5.446-2.093,10.642-2.596,16.053c-0.5,5.452-0.845,10.655-1.776,16.035
						c-0.939,5.374,1.617,11.45,0.239,16.717c-1.376,5.289-6.751,9.281-8.557,14.437c-1.805,5.12-1.521,10.981-3.74,15.96
						c-2.225,4.946-7.337,8.321-9.973,13.128c-2.622,4.751-2.075,11.306-5.1,15.871c-3.011,4.519-5.717,9.374-9.106,13.674
						c-3.361,4.245-10.24,5.388-14.001,9.389c-3.687,3.944-6.257,8.83-10.339,12.52c-3.992,3.619-4.978,11.072-9.332,14.418
						c-4.391,3.346-10.747,4.063-15.287,6.975c-4.63,2.979-10.182,4.167-14.972,6.715c-4.833,2.579-7.906,8.942-12.874,11.088
						c-5.033,2.151-11.019,2.241-16.154,3.971c-5.192,1.723-11.491-0.719-16.752,0.585c-5.307,1.289-9.362,8.961-14.736,9.807
						c-5.379,0.861-11.127,0.882-16.579,1.277c-5.434,0.403-11.11-2.046-16.543-2.08c-5.461-0.056-11.156,2.133-16.582,1.634
						c-5.419-0.504-10.797-2.749-16.158-3.693c-5.375-0.934-10.455-3.415-15.74-4.788c-5.268-1.375-10.724-2.252-15.872-4.065
						c-5.137-1.798-9.125-6.347-14.112-8.573c-4.964-2.229-12.27,0.131-17.057-2.518c-4.762-2.624-7.899-8.222-12.459-11.246
						c-4.517-3-9.233-5.845-13.528-9.237c-4.248-3.356-7.397-8.045-11.396-11.788c-3.947-3.712-11.118-4.463-14.804-8.53
						c-3.625-4.02-1.605-12.791-4.949-17.154c-3.345-4.383-11.198-5.458-14.123-10.001c-2.974-4.617-6.395-9.177-8.943-13.944
						c-2.576-4.844-5.214-9.898-7.353-14.889c-2.17-5.032-2.321-10.983-4.039-16.148c-1.74-5.185-3.604-10.432-4.893-15.696
						c-1.299-5.33-0.091-11.141-0.941-16.521c-0.851-5.412-2.273-10.686-2.676-16.096c-0.401-5.468,2.407-10.873,2.448-16.321
						c0.049-5.454-2.055-10.864-1.557-16.295c0.49-5.417,1.991-10.635,2.928-16.003c0.938-5.367-0.807-11.332,0.573-16.603
						c1.374-5.266,7.118-9.154,8.924-14.313c1.802-5.123,3.61-10.026,5.841-15.009c2.219-4.965,0.357-11.952,2.995-16.741
						c2.619-4.753,4.788-10.063,7.813-14.62c3.003-4.514,8.324-7.558,11.723-11.854c3.366-4.248,4.816-10.4,8.565-14.401
						c3.701-3.954,9.043-6.58,13.113-10.259C92.702,71.191,97.561,68.392,101.924,65.047z"/>
					<path fill="#CF4B27" d="M312.405,392.677c-4.697,2.485-9.012,6.106-13.813,8.175c-4.863,2.067-11.648-0.837-16.611,0.808
						c-5.008,1.679-10.345,1.359-15.419,2.593c-5.123,1.246-9.745,3.853-14.905,4.67c-5.21,0.807-10.389-0.305-15.601,0.059
						c-5.271,0.398-10.3,6.962-15.53,6.905c-5.263-0.058-10.225-5.787-15.454-6.282c-5.228-0.488-11.296,4.831-16.462,3.909
						c-5.173-0.917-9.085-7.751-14.171-9.098c-5.071-1.33-11.826,2.586-16.779,0.849c-4.947-1.767-7.769-8.976-12.56-11.119
						c-4.787-2.154-10.707-1.931-15.307-4.462c-4.587-2.534-10.429-3.337-14.801-6.261c-4.36-2.906-8.55-6.471-12.679-9.738
						c-4.093-3.258-4.572-10.729-8.414-14.34c-3.812-3.575-11.161-3.706-14.692-7.627c-3.49-3.869-2.637-11.362-5.835-15.579
						c-3.153-4.133-11.26-4.896-14.103-9.356c-2.805-4.384-0.993-11.57-3.472-16.253c-2.473-4.703-8.078-7.82-10.128-12.623
						c-2.083-4.862-2.256-10.477-3.909-15.407c-1.673-5.023-3.65-9.918-4.882-15.004c-1.25-5.113-3.718-10.094-4.53-15.253
						c-0.811-5.216,1.499-10.788,1.121-16.017c-0.378-5.232,1.715-10.394,1.767-15.61c0.058-5.264-1.635-10.427-1.148-15.643
						c0.494-5.229-3.528-11.167-2.611-16.334c0.918-5.173,7.286-9.214,8.624-14.277c1.344-5.08,2.491-10.077,4.244-15.029
						c1.751-4.944,0.153-11.279,2.309-16.068c2.149-4.783,7.494-8.042,10.037-12.646c2.538-4.59,3.301-10.282,6.219-14.66
						c2.905-4.357,9.701-5.795,12.975-9.921c3.256-4.098,5.303-8.987,8.909-12.834c3.58-3.811,6.643-8.031,10.569-11.564
						c3.874-3.495,7.849-6.819,12.049-10.017c4.153-3.16,9.349-4.635,13.81-7.481c4.389-2.798,7.675-7.352,12.365-9.829
						c4.678-2.474,8.782-6.159,13.575-8.206c4.861-2.083,10.049-3.433,14.996-5.082c5.016-1.673,9.715-4.766,14.786-5.999
						c5.126-1.246,11.095,1.646,16.253,0.833c5.216-0.816,10.1-4.097,15.309-4.478c5.253-0.377,10.586-0.246,15.82-0.185
						c5.262,0.057,10.705-1.21,15.934-0.723c5.25,0.494,10.574,1.578,15.735,2.499c5.173,0.919,9.953,3.964,15.025,5.305
						c5.09,1.337,10.241,2.499,15.188,4.247c4.946,1.753,9.438,4.665,14.22,6.814c4.797,2.155,11.437,0.861,16.044,3.409
						c4.592,2.528,8.997,5.902,13.368,8.818c4.356,2.907,6.155,9.479,10.282,12.754c4.098,3.256,6.675,8.004,10.517,11.615
						c3.81,3.578,11.529,3.312,15.067,7.236c3.495,3.879,3.008,11.087,6.201,15.296c3.15,4.148,8.163,6.925,11.024,11.386
						c2.783,4.391,4.617,9.349,7.104,14.03c2.481,4.688,7.62,8.115,9.665,12.9c2.094,4.859,3.894,9.989,5.538,14.93
						c1.672,5.011,0.848,10.787,2.079,15.867c1.251,5.121,1.737,10.338,2.557,15.498c0.807,5.215,0.866,10.402,1.242,15.616
						c0.38,5.253-0.538,10.382-0.593,15.614c-0.049,5.261-0.322,10.309-0.807,15.536c-0.498,5.21,1.545,10.703,0.631,15.858
						c-0.919,5.174,0.643,11.064-0.704,16.138c-1.329,5.064-8,8.535-9.768,13.5c-1.739,4.941,0.09,11.329-2.072,16.109
						c-2.153,4.798-5.82,8.93-8.354,13.521c-2.546,4.588-3.645,10.195-6.568,14.593c-2.903,4.344-9.864,5.772-13.157,9.901
						c-3.243,4.094-6.927,7.534-10.549,11.386c-3.573,3.81-3.963,10.855-7.89,14.374c-3.856,3.499-10.374,3.857-14.573,7.056
						c-4.159,3.159-8.775,5.324-13.243,8.174C319.084,383.249,317.096,390.203,312.405,392.677z"/>
					<path fill="#AE3B25" d="M410.521,224.305c0.055-5.232,0.973-10.361,0.593-15.614c-0.376-5.214-0.436-10.401-1.242-15.616
						c-0.819-5.159-1.306-10.377-2.557-15.498c-1.231-5.08-0.407-10.856-2.079-15.867c-1.645-4.941-3.444-10.07-5.538-14.93
						c-2.045-4.785-7.184-8.211-9.665-12.9c-2.486-4.681-4.32-9.639-7.104-14.03c-1.823-2.842-4.514-5.002-7.031-7.263
						c-58.094,75.179-176.716,228.235-223.479,288.556c1.584,1.795,3.237,3.403,5.24,4.12c4.953,1.737,11.708-2.179,16.779-0.849
						c5.086,1.347,8.999,8.181,14.171,9.098c5.166,0.922,11.234-4.397,16.462-3.909c5.229,0.495,10.191,6.225,15.454,6.282
						c5.23,0.057,10.258-6.507,15.53-6.905c5.212-0.363,10.391,0.748,15.601-0.059c5.16-0.817,9.782-3.424,14.905-4.67
						c5.074-1.233,10.411-0.914,15.419-2.593c4.963-1.645,11.748,1.26,16.611-0.808c4.802-2.068,9.116-5.689,13.813-8.175
						c4.691-2.474,6.68-9.428,11.062-12.226c4.468-2.85,9.084-5.015,13.243-8.174c4.199-3.198,10.717-3.557,14.573-7.056
						c3.927-3.519,4.316-10.564,7.89-14.374c3.622-3.852,7.306-7.292,10.549-11.386c3.293-4.129,10.254-5.558,13.157-9.901
						c2.924-4.397,4.022-10.005,6.568-14.593c2.534-4.591,6.201-8.723,8.354-13.521c2.162-4.78,0.333-11.168,2.072-16.109
						c1.768-4.965,8.438-8.436,9.768-13.5c1.347-5.073-0.215-10.964,0.704-16.138c0.914-5.155-1.129-10.648-0.631-15.858
						C410.198,234.614,410.472,229.566,410.521,224.305z"/>
					<g>
						<path fill="#AE3B25" d="M137.76,123.558c0,10.195-8.268,18.456-18.468,18.456c-10.195,0-18.46-8.261-18.46-18.456
							c0-10.199,8.265-18.471,18.46-18.471C129.492,105.087,137.76,113.359,137.76,123.558z"/>
						<path fill="#AE3B25" d="M186.712,179.715c0,14.724-11.926,26.656-26.651,26.656c-14.723,0-26.653-11.933-26.653-26.656
							c0-14.711,11.93-26.653,26.653-26.653C174.786,153.062,186.712,165.004,186.712,179.715z"/>
						<path fill="#AE3B25" d="M299.888,141.063c0,14.721-11.944,26.651-26.65,26.651c-14.746,0-26.653-11.93-26.653-26.651
							c0-14.725,11.907-26.651,26.653-26.651C287.944,114.412,299.888,126.338,299.888,141.063z"/>
						<path fill="#AE3B25" d="M261.089,63.15c0,8.53-6.891,15.447-15.421,15.447c-8.529,0-15.459-6.917-15.459-15.447
							s6.93-15.443,15.459-15.443C254.198,47.707,261.089,54.62,261.089,63.15z"/>
						<path fill="#AE3B25" d="M202.552,122.048c0,4.003-3.242,7.249-7.253,7.249c-4.004,0-7.247-3.245-7.247-7.249
							c0-4.015,3.243-7.255,7.247-7.255C199.309,114.792,202.552,118.032,202.552,122.048z"/>
						<path fill="#AE3B25" d="M232.674,154.455c0,6.294-5.118,11.397-11.402,11.397c-6.296,0-11.398-5.103-11.398-11.397
							c0-6.29,5.102-11.393,11.398-11.393C227.556,143.063,232.674,148.166,232.674,154.455z"/>
						<path fill="#AE3B25" d="M88.197,186.424c0,8.147-6.605,14.763-14.752,14.763s-14.748-6.616-14.748-14.763
							c0-8.143,6.6-14.741,14.748-14.741S88.197,178.281,88.197,186.424z"/>
						<path fill="#AE3B25" d="M91.467,143.888c0,3.146-2.556,5.695-5.697,5.695c-3.149,0-5.704-2.549-5.704-5.695
							c0-3.155,2.554-5.7,5.704-5.7C88.911,138.189,91.467,140.734,91.467,143.888z"/>
						<path fill="#AE3B25" d="M143.936,267.574c0,5.794-4.712,10.513-10.527,10.513c-5.814,0-10.526-4.719-10.526-10.513
							c0-5.805,4.711-10.516,10.526-10.516C139.223,257.058,143.936,261.769,143.936,267.574z"/>
						<path fill="#AE3B25" d="M82.739,262.886c0,3.238-2.615,5.865-5.847,5.865c-3.229,0-5.85-2.627-5.85-5.865
							c0-3.232,2.621-5.828,5.85-5.828C80.124,257.058,82.739,259.654,82.739,262.886z"/>
						<path fill="#AE3B25" d="M141.367,211.33c0,7.952-6.445,14.386-14.387,14.386c-7.944,0-14.39-6.434-14.39-14.386
							c0-7.931,6.445-14.382,14.39-14.382C134.922,196.948,141.367,203.399,141.367,211.33z"/>
						<path fill="#AE3B25" d="M220.889,295.479c0,9.611-7.784,17.404-17.396,17.404c-9.613,0-17.407-7.793-17.407-17.404
							c0-9.609,7.793-17.393,17.407-17.393C213.105,278.087,220.889,285.87,220.889,295.479z"/>
						<path fill="#AE3B25" d="M244.916,227.8c0,6.18-5.022,11.198-11.235,11.198c-6.18,0-11.2-5.019-11.2-11.198
							c0-6.198,5.021-11.222,11.2-11.222C239.894,216.577,244.916,221.601,244.916,227.8z"/>
						<path fill="#AE3B25" d="M301.236,190.93c0,6.199-5.02,11.22-11.222,11.22c-6.195,0-11.214-5.021-11.214-11.22
							c0-6.188,5.019-11.215,11.214-11.215C296.216,179.715,301.236,184.741,301.236,190.93z"/>
						<path fill="#AE3B25" d="M148.04,339.629c0,13.882-11.259,25.151-25.157,25.151c-13.887,0-25.149-11.27-25.149-25.151
							c0-13.878,11.262-25.145,25.149-25.145C136.781,314.484,148.04,325.751,148.04,339.629z"/>
						<path fill="#AE3B25" d="M179.317,339.629c0,4.102-3.305,7.41-7.401,7.41c-4.088,0-7.398-3.309-7.398-7.41
							c0-4.099,3.311-7.404,7.398-7.404C176.012,332.224,179.317,335.53,179.317,339.629z"/>
						<path fill="#AE3B25" d="M336.059,97.568c0,4.085-3.307,7.404-7.389,7.404c-4.088,0-7.416-3.319-7.416-7.404
							c0-4.09,3.328-7.407,7.416-7.407C332.752,90.161,336.059,93.478,336.059,97.568z"/>
						<path fill="#AE3B25" d="M325.29,146.325c0,4.493-3.639,8.133-8.145,8.133c-4.48,0-8.119-3.641-8.119-8.133
							c0-4.492,3.639-8.138,8.119-8.138C321.652,138.187,325.29,141.833,325.29,146.325z"/>
						<circle fill="#AE3B25" cx="160.061" cy="77.807" r="10.898"/>
						<path fill="#AE3B25" d="M186.087,242.885c0,2.138-1.727,3.846-3.866,3.846c-2.14,0-3.867-1.708-3.867-3.846
							c0-2.139,1.727-3.888,3.867-3.888C184.36,238.998,186.087,240.747,186.087,242.885z"/>
						<path fill="#AE3B25" d="M123.167,167.718c0,2.139-1.739,3.865-3.875,3.865c-2.137,0-3.869-1.726-3.869-3.865
							c0-2.139,1.732-3.869,3.869-3.869C121.428,163.849,123.167,165.579,123.167,167.718z"/>
						<path fill="#AE3B25" d="M189.964,55.435c0,2.139-1.738,3.869-3.877,3.869c-2.135,0-3.868-1.73-3.868-3.869
							c0-2.139,1.732-3.872,3.868-3.872C188.226,51.564,189.964,53.297,189.964,55.435z"/>
						<path fill="#AE3B25" d="M58.697,232.687c0,2.133-1.73,3.857-3.869,3.857c-2.139,0-3.869-1.725-3.869-3.857
							s1.729-3.877,3.869-3.877C56.967,228.81,58.697,230.554,58.697,232.687z"/>
						<path fill="#AE3B25" d="M163.926,375.389c0,2.14-1.727,3.859-3.866,3.859s-3.867-1.72-3.867-3.859
							c0-2.139,1.728-3.888,3.867-3.888S163.926,373.251,163.926,375.389z"/>
						<path fill="#8D311F" d="M257.549,368.57c0,9.911-8.057,17.963-17.959,17.963c-9.901,0-17.941-8.052-17.941-17.963
							c0-9.905,8.04-17.951,17.941-17.951C249.492,350.619,257.549,358.665,257.549,368.57z"/>
						<path fill="#8D311F" d="M203.491,387.098c0,4.509-3.669,8.179-8.193,8.179c-4.52,0-8.188-3.67-8.188-8.179
							c0-4.521,3.669-8.185,8.188-8.185C199.823,378.914,203.491,382.577,203.491,387.098z"/>
						<path fill="#8D311F" d="M279.583,379.962c0,2.878-2.348,5.211-5.228,5.211s-5.211-2.333-5.211-5.211
							c0-2.88,2.331-5.229,5.211-5.229S279.583,377.082,279.583,379.962z"/>
						<path fill="#8D311F" d="M295.227,255.865c0,2.879-2.32,5.229-5.213,5.229c-2.89,0-5.205-2.35-5.205-5.229
							c0-2.882,2.315-5.201,5.205-5.201C292.906,250.664,295.227,252.983,295.227,255.865z"/>
						<path fill="#8D311F" d="M405.474,179.715c0,2.89-2.329,5.227-5.21,5.227c-2.878,0-5.227-2.336-5.227-5.227
							c0-2.88,2.349-5.211,5.227-5.211C403.145,174.504,405.474,176.835,405.474,179.715z"/>
						<path fill="#8D311F" d="M301.768,295.479c0,10.843-8.773,19.627-19.614,19.627c-10.842,0-19.614-8.784-19.614-19.627
							c0-10.838,8.772-19.614,19.614-19.614C292.994,275.865,301.768,284.641,301.768,295.479z"/>
						<path fill="#8D311F" d="M298.943,350.619c0,4.936-4.001,8.939-8.927,8.939c-4.918,0-8.922-4.004-8.922-8.939
							c0-4.908,4.004-8.912,8.922-8.912C294.942,341.707,298.943,345.711,298.943,350.619z"/>
						<path fill="#8D311F" d="M338.45,343.438c0,3.987-3.232,7.231-7.231,7.231c-4,0-7.231-3.244-7.231-7.231
							c0-3.977,3.231-7.22,7.231-7.22C335.218,336.219,338.45,339.462,338.45,343.438z"/>
						<path fill="#8D311F" d="M347.985,254.224c0,11.369-9.223,20.591-20.593,20.591c-11.354,0-20.592-9.222-20.592-20.591
							c0-11.355,9.237-20.594,20.592-20.594C338.762,233.631,347.985,242.869,347.985,254.224z"/>
						<path fill="#8D311F" d="M393.02,272.903c0,7.17-5.825,13.01-13.018,13.01c-7.205,0-13.039-5.84-13.039-13.01
							c0-7.202,5.834-13.044,13.039-13.044C387.195,259.859,393.02,265.701,393.02,272.903z"/>
						<path fill="#8D311F" d="M393.748,204.866c0,3.825-3.092,6.918-6.919,6.918c-3.826,0-6.926-3.094-6.926-6.918
							s3.1-6.918,6.926-6.918C390.656,197.948,393.748,201.042,393.748,204.866z"/>
						<path fill="#8D311F" d="M391.478,152.468c0,4.746-3.835,8.586-8.574,8.586c-4.746,0-8.598-3.84-8.598-8.586
							c0-4.741,3.852-8.58,8.598-8.58C387.643,143.888,391.478,147.727,391.478,152.468z"/>
					</g>
				</g>
				<g>
					<g>
						<g opacity="0.3">
							<path fill="#231F20" d="M173.723,104.875c1.375-1.628,2.197-3.686,2.056-5.875c-0.446-6.717-2.622-12.293-9.47-14.527
								c-2.637-0.867-5.161-0.451-7.417,0.68c-1.19,0.121-2.354,0.336-3.48,0.634c-0.848-0.555-1.777-1.056-2.835-1.495
								c-2.462-1.018-5.119-0.961-7.673-0.225c-13.211-2.902-23.81,10.051-27.707,22.875c-3.705,12.184-4.421,35.577,12.163,38.795
								c9.999,1.935,18.649-4.656,25.478-11.153c6.866-6.54,13.406-14.588,16.967-23.539
								C172.768,109.118,173.431,107.053,173.723,104.875z"/>
							<path fill="#231F20" d="M114.138,213.01c-0.033-3.855-2.723-7.629-6.2-9.196c-1.937-3.202-5.533-5.463-10.179-4.601
								c-18.997,3.557-26.052,28.901-23.551,45.519c3.04,20.236,24.055,33.53,43.932,28.182
								C145.395,265.594,134.953,225.097,114.138,213.01z"/>
							<path fill="#231F20" d="M206.133,174.64c-1.559-7.775-6.443-12.227-12.256-13.524c-0.79-2.573-2.819-4.707-6.361-5.431
								c-13.87-2.852-26.49,10.589-31.338,22.142c-4.629,11.055,6.835,25.067,12.936,33.417c3.562,4.869,7.583,10.108,13.351,12.34
								c7.135,2.763,13.406-2.103,16.654-8.107C205.177,204.313,208.656,187.134,206.133,174.64z"/>
							<path fill="#231F20" d="M299.399,92.206c-0.579-1.951-1.928-3.752-4.244-5.062c-4.643-2.616-9.29-3.7-14.584-3.963
								c-4.721-0.234-9.912,4.463-9.393,9.391c0.296,2.727,0.719,5.2,1.621,7.807c0.02,0.112,0.051,0.198,0.094,0.294
								c-3.451,0.139-7.404-0.67-10.701-0.169c-10.916,1.655-15.917,12.644-13.05,22.674c2.634,9.178,11.558,16.466,19.851,20.416
								c9.436,4.506,19.537,3.615,28.099-2.521c9.067-6.506,14.527-16.997,14.602-28.137
								C311.777,104.529,307.093,95.55,299.399,92.206z"/>
							<path fill="#231F20" d="M215.278,64.304c-7.992-0.023-17.549,6.896-18.604,15.334c-3.227,6.248-3.859,13.209,1.441,19.502
								c5.168,6.138,15.162,6.603,22.322,4.836c8.393-2.076,15.902-9.229,15.415-18.378
								C235.313,75.042,226.276,64.332,215.278,64.304z"/>
							<path fill="#231F20" d="M292.848,194.164c-4.284-5.063-12.412-9.001-20.049-9.41c-1.059-4.748-5.33-8.921-11.424-7.394
								c-18.145,4.548-21.969,23.403-17.24,39.307c3.869,13.1,15.659,31.107,31.559,29.265c9.397-1.112,15.767-7.707,19.816-15.9
								C301.447,218.025,301.746,204.675,292.848,194.164z"/>
							<path fill="#231F20" d="M191.908,308.171c3.081-8.6,4.697-21.546-6.311-25.11c-0.254-0.093-0.505-0.123-0.74-0.205
								c-1.095-1.569-2.812-2.795-5.249-3.396c-15.013-3.548-26.56,7.1-34.873,18.273c-7.372,9.906-15.169,25.483-9.092,37.724
								c6.704,13.482,25.799,12.167,37.437,6.936c5.536-2.467,8.231-8.385,10.336-13.617c1.455-3.621,3.038-7.195,4.567-10.782
								c0.402-0.83,0.764-1.674,1.06-2.536C190.042,313.052,191.029,310.636,191.908,308.171z M152.216,325.375
								c0.492,0.67,1.033,1.286,1.63,1.854h-0.015C151.938,327.154,152.037,326.852,152.216,325.375z"/>
							<path fill="#231F20" d="M298.072,337.756c-2.28-11.292-7.669-23.524-15.979-31.645c-1.672-1.634-3.494-2.898-5.373-3.896
								c-0.412-3.78-2.895-7.661-6.806-8.216c-18.671-2.724-33.995,12.229-35.772,30.406c-1.254,12.984,13.025,25.262,21.818,33.045
								c7.701,6.84,19.804,15.987,30.778,11.696C299.188,364.265,300.37,349.151,298.072,337.756z"/>
							<path fill="#231F20" d="M319.091,312.309c5.07,12.228,15.423,16.151,26.018,14.268c7.521,3.769,16.192,4.7,22.257-2.972
								c6.728-8.553,3.766-17.441-0.441-26.158c-3.629-7.458-8.185-18.297-15.828-22.546c-7.296-4.021-15.585-4.149-22.885-0.318
								C315.687,281.182,314.244,300.704,319.091,312.309z"/>
							<path fill="#231F20" d="M320.599,195.647c1.272,8.926,5.562,17.775,13.132,20.736c1.652,3.356,5.016,5.928,9.697,5.515
								c12.549-1.132,24.608-15.096,27.523-26.667c1.777-7.053,0.581-13.684-4.843-18.607c0.142-0.047,0.284-0.107,0.425-0.159
								c11.926-4.444,18.938-17.141,13.662-29.366c-4.593-10.69-18.494-15.291-29.224-14.925
								c-15.373,0.528-26.827,9.417-32.466,23.687C313.748,167.919,318.803,183.279,320.599,195.647z"/>
							<path fill="#231F20" d="M234.158,370.939c-0.795-11.708-10.105-19.158-20.656-20.597c-7.068-2.72-13.782-2.174-18.788,4.406
								c-3.81,5.013-5.069,12.537-4.906,18.659c0.16,6.333,3.421,12.39,9.744,14.364c2.065,0.64,4.29,0.781,6.449,0.702
								c0.801-0.043,1.623-0.113,2.422-0.191c0.507-0.04,0.965-0.023,1.346,0.023c1.446,1.25,3.17,2.419,5.015,2.927
								c3.73,0.991,7.013,0.262,10.346-1.538C231.871,386.041,234.656,378.199,234.158,370.939z"/>
							<path fill="#231F20" d="M239.529,260.962c-1.804-1.807-3.595-3.622-5.347-5.517c-0.674-0.703-1.295-1.439-1.904-2.192
								c-0.03-0.039-0.06-0.082-0.099-0.138c-0.442-0.621-1.152-2.387-0.06,0.359c-1.895-4.763-6.238-8.015-11.561-6.558
								c-0.533,0.145-1.053,0.368-1.571,0.613c-3.404-0.132-6.912,1.458-8.518,4.601c-4.18,8.203-3.146,17.029,4.572,22.609
								c5.557,4.022,14.118,4.498,20.339,1.913c3.145-1.309,5.596-3.109,6.559-6.559
								C242.822,266.854,241.88,263.312,239.529,260.962z"/>
							<path fill="#231F20" d="M99.588,152.765c-2.463-1.733-5.509-2.733-8.364-3.697c-0.451-1.418-1.205-2.724-2.251-3.778
								c-3.752-3.742-9.494-3.43-13.282,0c-3.814,3.47-7.512,8.003-8.526,13.208c-1.229,6.335,0.928,11.93,6.139,15.732
								c9.041,6.579,21.723,0.507,28.184-6.713C105.764,162.734,104.686,156.369,99.588,152.765z"/>
							<path fill="#231F20" d="M106.486,302.618c-3.269-2.169-7.699-2.448-11.398-1.476c-0.63,0.172-1.238,0.398-1.821,0.631
								c-2.993,0.229-5.849,1.854-7.417,4.595c-0.579,0.994-1.056,2.039-1.439,3.105c-0.114,0.154-0.235,0.306-0.35,0.459
								c-1.667,2.271-1.615,5.672-0.574,8.279c0.602,3.894,2.62,7.492,6.191,10.071c6.826,4.94,18.884,1.974,22.519-5.651
								C115.703,315.259,113.209,307.131,106.486,302.618z"/>
							<path fill="#231F20" d="M393.899,238.592c-0.006-2.4-0.915-4.783-2.71-6.554c-1.413-1.419-2.588-1.896-4.403-2.652
								c-2.991-1.251-6.474-0.05-8.895,2.235c-0.571,0.181-1.123,0.431-1.658,0.744c-1.109,0.629-1.984,1.47-2.684,2.396
								c-1.222,0.123-2.404,0.495-3.566,1.159c-2.646,1.555-4.976,4.915-4.661,8.116c0.076,0.614,0.128,1.218,0.228,1.813
								c-1.312,2.986-1.509,6.288,0.16,9.903c2.595,5.635,10.148,6.339,15.336,4.739c5.391-1.653,10.178-5.519,10.856-11.328
								c0.799-0.948,1.406-2.153,1.7-3.527C394.146,243.081,394.198,241.041,393.899,238.592z"/>
						</g>
						<g>
							<path fill="#DBC68B" d="M171.037,99.512c1.375-1.629,2.197-3.686,2.055-5.873c-0.441-6.72-2.62-12.298-9.469-14.535
								c-2.638-0.86-5.161-0.45-7.409,0.683c-1.198,0.121-2.351,0.335-3.486,0.632c-0.843-0.554-1.774-1.055-2.825-1.489
								c-2.474-1.023-5.125-0.968-7.685-0.224c-13.206-2.904-23.805,10.051-27.708,22.866c-3.702,12.186-4.42,35.573,12.168,38.798
								c9.994,1.941,18.655-4.661,25.473-11.153c6.872-6.544,13.405-14.588,16.967-23.536
								C170.087,103.757,170.751,101.689,171.037,99.512z"/>
							<path fill="#DBC68B" d="M111.451,207.656c-0.029-3.874-2.721-7.646-6.194-9.205c-1.942-3.2-5.536-5.473-10.183-4.599
								c-18.998,3.545-26.05,28.889-23.543,45.541c3.04,20.202,24.048,33.514,43.925,28.178
								C142.714,260.225,132.267,219.724,111.451,207.656z"/>
							<path fill="#DBC68B" d="M203.448,169.279c-1.561-7.774-6.445-12.236-12.258-13.533c-0.784-2.559-2.819-4.694-6.362-5.429
								c-13.87-2.837-26.483,10.587-31.338,22.153c-4.628,11.052,6.847,25.064,12.941,33.406
								c3.563,4.865,7.577,10.105,13.346,12.346c7.144,2.773,13.406-2.101,16.662-8.115
								C202.49,198.941,205.97,181.77,203.448,169.279z"/>
							<path fill="#DBC68B" d="M296.714,86.843c-0.594-1.952-1.943-3.756-4.253-5.065c-4.616-2.609-9.299-3.697-14.574-3.964
								c-4.709-0.232-9.932,4.471-9.376,9.393c0.296,2.727,0.719,5.206,1.593,7.811c0.047,0.108,0.079,0.194,0.107,0.295
								c-3.472,0.137-7.405-0.674-10.687-0.172c-10.946,1.652-15.955,12.646-13.079,22.669c2.632,9.186,11.578,16.468,19.841,20.415
								c9.437,4.509,19.576,3.625,28.136-2.524c9.036-6.494,14.497-16.992,14.604-28.125
								C309.073,99.162,304.424,90.183,296.714,86.843z"/>
							<path fill="#DBC68B" d="M212.592,58.937c-7.992-0.021-17.549,6.902-18.591,15.335c-3.24,6.25-3.872,13.208,1.438,19.506
								c5.158,6.133,15.168,6.598,22.33,4.828c8.396-2.066,15.882-9.223,15.417-18.368C232.608,69.676,223.589,58.97,212.592,58.937
								z"/>
							<path fill="#DBC68B" d="M290.164,188.791c-4.271-5.047-12.396-9-20.053-9.392c-1.05-4.766-5.32-8.922-11.435-7.394
								c-18.151,4.529-21.977,23.396-17.248,39.307c3.908,13.081,15.682,31.125,31.568,29.246c9.402-1.112,15.796-7.707,19.837-15.9
								C298.775,212.66,299.063,199.301,290.164,188.791z"/>
							<path fill="#DBC68B" d="M189.222,302.797c3.083-8.57,4.705-21.52-6.311-25.109c-0.254-0.066-0.492-0.123-0.739-0.202
								c-1.095-1.548-2.8-2.795-5.237-3.368c-15.018-3.579-26.57,7.068-34.876,18.252c-7.38,9.92-15.175,25.485-9.095,37.713
								c6.704,13.501,25.793,12.168,37.434,6.953c5.543-2.48,8.229-8.38,10.347-13.634c1.452-3.609,3.025-7.195,4.56-10.769
								c0.398-0.844,0.769-1.67,1.053-2.543C187.37,307.679,188.349,305.262,189.222,302.797z M149.53,320.001
								c0.493,0.671,1.039,1.287,1.63,1.855h-0.016C149.252,321.802,149.358,321.498,149.53,320.001z"/>
							<path fill="#DBC68B" d="M295.366,332.383c-2.281-11.292-7.64-23.514-15.961-31.629c-1.657-1.639-3.476-2.908-5.384-3.911
								c-0.393-3.78-2.891-7.64-6.779-8.216c-18.668-2.724-34.03,12.229-35.769,30.428c-1.265,12.975,12.991,25.241,21.818,33.047
								c7.684,6.816,19.804,15.977,30.772,11.673C296.52,358.891,297.677,343.778,295.366,332.383z"/>
							<path fill="#DBC68B" d="M316.387,306.936c5.107,12.229,15.449,16.151,26.031,14.271c7.532,3.788,16.2,4.71,22.254-2.976
								c6.718-8.554,3.783-17.44-0.451-26.135c-3.605-7.463-8.15-18.303-15.81-22.543c-7.291-4.048-15.591-4.176-22.893-0.318
								C313.012,275.81,311.568,295.331,316.387,306.936z"/>
							<path fill="#DBC68B" d="M317.902,190.293c1.301,8.919,5.591,17.756,13.142,20.725c1.644,3.352,4.999,5.939,9.695,5.507
								c12.558-1.131,24.622-15.095,27.545-26.667c1.763-7.034,0.57-13.666-4.853-18.598c0.146-0.056,0.294-0.1,0.436-0.155
								c11.907-4.443,18.917-17.142,13.646-29.375c-4.604-10.686-18.496-15.283-29.216-14.923
								c-15.364,0.525-26.831,9.418-32.47,23.681C311.052,162.564,316.113,177.905,317.902,190.293z"/>
							<path fill="#DBC68B" d="M231.491,365.566c-0.795-11.708-10.125-19.158-20.66-20.589c-7.078-2.728-13.784-2.161-18.803,4.411
								c-3.81,5.013-5.069,12.524-4.903,18.646c0.171,6.345,3.418,12.409,9.741,14.383c2.065,0.634,4.296,0.775,6.449,0.684
								c0.816-0.034,1.622-0.11,2.422-0.182c0.513-0.037,0.981-0.021,1.364,0.014c1.438,1.25,3.153,2.426,4.998,2.927
								c3.729,1.004,7.013,0.263,10.346-1.538C229.204,380.668,231.973,372.839,231.491,365.566z"/>
							<path fill="#DBC68B" d="M236.848,255.588c-1.826-1.806-3.618-3.621-5.334-5.516c-0.673-0.703-1.31-1.439-1.938-2.186
								c-0.035-0.046-0.041-0.089-0.065-0.117c-0.442-0.619-1.189-2.414-0.097,0.332c-1.858-4.748-6.201-8.016-11.542-6.559
								c-0.533,0.146-1.054,0.369-1.554,0.614c-3.421-0.132-6.929,1.465-8.53,4.601c-4.185,8.203-3.152,17.029,4.57,22.639
								c5.562,3.993,14.13,4.469,20.354,1.884c3.117-1.284,5.596-3.097,6.559-6.559
								C240.155,261.482,239.212,257.974,236.848,255.588z"/>
							<path fill="#DBC68B" d="M96.903,147.405c-2.458-1.737-5.502-2.734-8.365-3.709c-0.447-1.405-1.199-2.718-2.249-3.762
								c-3.75-3.752-9.494-3.436-13.28,0c-3.818,3.456-7.515,8.004-8.525,13.199c-1.231,6.327,0.922,11.941,6.138,15.734
								c9.036,6.582,21.718,0.499,28.183-6.716C103.078,157.379,102.003,151.002,96.903,147.405z"/>
							<path fill="#DBC68B" d="M103.801,297.273c-3.264-2.197-7.696-2.468-11.394-1.503c-0.63,0.171-1.235,0.401-1.825,0.629
								c-2.984,0.254-5.847,1.855-7.414,4.596c-0.582,1.008-1.05,2.068-1.434,3.13c-0.119,0.157-0.241,0.305-0.358,0.462
								c-1.661,2.25-1.611,5.65-0.573,8.252c0.602,3.904,2.62,7.492,6.194,10.071c6.823,4.944,18.886,1.974,22.516-5.651
								C113.019,309.91,110.529,301.758,103.801,297.273z"/>
							<path fill="#DBC68B" d="M391.213,233.218c-0.017-2.377-0.92-4.782-2.704-6.553c-1.43-1.405-2.576-1.878-4.392-2.634
								c-3.014-1.25-6.499-0.059-8.927,2.231c-0.552,0.178-1.098,0.416-1.642,0.729c-1.119,0.666-1.995,1.47-2.667,2.396
								c-1.223,0.122-2.421,0.495-3.595,1.166c-2.636,1.548-4.947,4.908-4.633,8.109c0.042,0.614,0.128,1.218,0.199,1.813
								c-1.283,2.993-1.51,6.288,0.155,9.903c2.592,5.635,10.17,6.356,15.352,4.739c5.387-1.653,10.194-5.518,10.847-11.311
								c0.813-0.966,1.421-2.135,1.712-3.523C391.46,237.715,391.501,235.667,391.213,233.218z"/>
						</g>
					</g>
					<defs>
						<filter id="Adobe_OpacityMaskFilter" filterUnits="userSpaceOnUse" x="64.146" y="58.937" width="327.244" height="327.374">
							<feColorMatrix  type="matrix" values="1 0 0 0 0  0 1 0 0 0  0 0 1 0 0  0 0 0 1 0"/>
						</filter>
					</defs>
					<mask maskUnits="userSpaceOnUse" x="64.146" y="58.937" width="327.244" height="327.374" id="SVGID_1_">
						<g filter="url(#Adobe_OpacityMaskFilter)">
							<g>
								<path fill="#FFFFFF" d="M168.351,94.148c1.375-1.634,2.199-3.691,2.054-5.875c-0.443-6.72-2.607-12.295-9.458-14.534
									c-2.647-0.861-5.172-0.446-7.417,0.683c-1.189,0.12-2.346,0.337-3.478,0.637c-0.846-0.559-1.784-1.061-2.829-1.495
									c-2.482-1.018-5.133-0.967-7.681-0.224c-13.217-2.906-23.815,10.051-27.715,22.87c-3.702,12.187-4.418,35.578,12.174,38.796
									c9.989,1.938,18.652-4.657,25.465-11.15c6.872-6.542,13.404-14.591,16.97-23.539C167.41,98.39,168.065,96.32,168.351,94.148
									z"/>
								<path fill="#FFFFFF" d="M108.775,202.281c-0.033-3.855-2.73-7.638-6.198-9.196c-1.944-3.201-5.533-5.463-10.179-4.607
									c-19.002,3.564-26.052,28.889-23.55,45.544c3.037,20.199,24.051,33.531,43.926,28.177
									C140.028,254.851,129.581,214.368,108.775,202.281z"/>
								<path fill="#FFFFFF" d="M200.778,163.912c-1.577-7.773-6.463-12.23-12.261-13.527c-0.796-2.571-2.82-4.707-6.375-5.427
									c-13.869-2.851-26.481,10.589-31.325,22.143c-4.639,11.054,6.84,25.066,12.937,33.405
									c3.556,4.875,7.567,10.119,13.342,12.341c7.147,2.773,13.405-2.093,16.668-8.098
									C199.803,193.576,203.295,176.406,200.778,163.912z"/>
								<path fill="#FFFFFF" d="M294.027,81.477c-0.579-1.952-1.923-3.751-4.244-5.061c-4.634-2.614-9.291-3.702-14.563-3.964
									c-4.709-0.238-9.931,4.466-9.413,9.391c0.297,2.729,0.749,5.202,1.63,7.81c0.033,0.11,0.042,0.191,0.085,0.294
									c-3.45,0.135-7.382-0.672-10.701-0.176c-10.916,1.661-15.918,12.645-13.05,22.678c2.639,9.179,11.556,16.464,19.849,20.416
									c9.436,4.503,19.544,3.618,28.101-2.523c9.07-6.501,14.525-16.993,14.604-28.132
									C306.403,93.799,301.742,84.816,294.027,81.477z"/>
								<path fill="#FFFFFF" d="M209.921,53.576c-7.997-0.027-17.564,6.896-18.602,15.332c-3.244,6.247-3.867,13.208,1.433,19.504
									c5.157,6.139,15.17,6.604,22.33,4.832c8.393-2.069,15.883-9.224,15.396-18.373
									C229.941,64.314,220.901,53.603,209.921,53.576z"/>
								<path fill="#FFFFFF" d="M287.476,183.436c-4.286-5.063-12.392-9-20.032-9.41c-1.049-4.754-5.321-8.922-11.434-7.395
									c-18.151,4.543-21.978,23.404-17.249,39.307c3.876,13.083,15.659,31.128,31.568,29.246
									c9.388-1.111,15.756-7.675,19.829-15.88C296.105,207.287,296.395,193.946,287.476,183.436z"/>
								<path fill="#FFFFFF" d="M186.54,297.436c3.08-8.583,4.712-21.528-6.314-25.123c-0.242-0.063-0.488-0.122-0.74-0.173
									c-1.094-1.577-2.796-2.824-5.235-3.396c-15.02-3.582-26.56,7.067-34.872,18.251c-7.375,9.918-15.174,25.511-9.103,37.721
									c6.705,13.505,25.8,12.173,37.446,6.963c5.532-2.499,8.23-8.392,10.341-13.652c1.455-3.608,3.019-7.183,4.554-10.768
									c0.414-0.832,0.771-1.67,1.056-2.52C184.684,302.313,185.662,299.888,186.54,297.436z M146.854,314.644
									c0.483,0.653,1.029,1.271,1.621,1.844c0,0-0.01,0-0.013,0C146.566,316.439,146.677,316.141,146.854,314.644z"/>
								<path fill="#FFFFFF" d="M292.699,327.01c-2.283-11.288-7.669-23.492-15.961-31.63c-1.658-1.612-3.482-2.908-5.393-3.89
									c-0.385-3.8-2.896-7.644-6.775-8.224c-18.7-2.734-34.025,12.216-35.796,30.42c-1.232,12.987,13.02,25.236,21.811,33.042
									c7.722,6.816,19.806,15.977,30.78,11.672C293.826,353.519,295.009,338.417,292.699,327.01z"/>
								<path fill="#FFFFFF" d="M313.719,301.562c5.086,12.23,15.441,16.151,26.017,14.297c7.549,3.766,16.216,4.709,22.256-3.001
									c6.728-8.553,3.768-17.409-0.442-26.12c-3.603-7.457-8.169-18.317-15.805-22.546c-7.294-4.059-15.606-4.188-22.906-0.329
									C310.313,270.469,308.9,289.971,313.719,301.562z"/>
								<path fill="#FFFFFF" d="M315.227,184.918c1.29,8.926,5.572,17.776,13.149,20.736c1.633,3.358,4.996,5.929,9.68,5.515
									c12.573-1.142,24.616-15.093,27.535-26.667c1.787-7.054,0.379-11.881-6.435-16.924c0.14-0.053,2.993-2.237,3.135-2.284
									c11.925-4.453,17.807-16.7,12.553-28.926c-4.616-10.688-18.515-15.295-29.232-14.923
									c-15.372,0.525-26.818,9.417-32.455,23.681C308.376,157.192,313.445,172.545,315.227,184.918z"/>
								<path fill="#FFFFFF" d="M228.785,360.206c-0.773-11.719-10.103-19.171-20.642-20.583
									c-7.064-2.733-13.778-2.177-18.789,4.412c-3.812,5.01-5.082,12.517-4.916,18.627c0.174,6.359,3.418,12.414,9.738,14.389
									c2.068,0.648,4.311,0.791,6.453,0.688c0.817-0.034,1.62-0.12,2.435-0.183c0.499-0.033,0.967-0.011,1.349,0.016
									c1.438,1.239,3.153,2.425,4.999,2.916c3.729,1.021,7.013,0.273,10.345-1.528
									C226.497,375.302,229.281,367.488,228.785,360.206z"/>
								<path fill="#FFFFFF" d="M234.155,250.214c-1.802-1.805-3.594-3.621-5.346-5.491c-0.644-0.728-1.272-1.464-1.899-2.209
									c-0.035-0.046-0.066-0.074-0.104-0.106c-0.441-0.63-1.152-2.405-0.058,0.337c-1.895-4.74-6.222-8.031-11.563-6.553
									c-0.533,0.154-1.052,0.348-1.553,0.609c-3.406-0.149-6.911,1.447-8.515,4.584c-4.185,8.213-3.166,17.049,4.569,22.64
									c5.559,4.007,14.1,4.469,20.32,1.883c3.157-1.285,5.623-3.071,6.559-6.558C237.457,256.144,236.543,252.603,234.155,250.214
									z"/>
								<path fill="#FFFFFF" d="M94.226,142.037c-2.465-1.734-5.511-2.733-8.372-3.699c-0.45-1.42-1.203-2.724-2.248-3.777
									c-3.753-3.744-9.49-3.435-13.284,0c-3.815,3.47-7.513,8.004-8.525,13.21c-1.229,6.333,0.928,11.929,6.145,15.724
									c9.035,6.586,21.718,0.515,28.182-6.707C100.4,152.006,99.326,145.642,94.226,142.037z"/>
								<path fill="#FFFFFF" d="M101.118,291.9c-3.263-2.197-7.696-2.469-11.39-1.479c-0.635,0.159-1.241,0.376-1.823,0.616
									c-2.993,0.241-5.854,1.844-7.42,4.584c-0.577,1.031-1.053,2.068-1.438,3.131c-0.118,0.155-0.237,0.308-0.353,0.462
									c-1.666,2.249-1.608,5.677-0.572,8.27c0.6,3.886,2.623,7.48,6.195,10.063c6.822,4.932,18.886,1.975,22.513-5.647
									C110.336,304.536,107.849,296.384,101.118,291.9z"/>
								<path fill="#FFFFFF" d="M388.544,227.844c-0.023-2.377-0.918-4.764-2.718-6.543c-1.417-1.408-2.582-1.888-4.402-2.644
									c-3.004-1.241-6.486-0.04-8.905,2.232c-0.557,0.185-1.123,0.415-1.637,0.729c-1.134,0.667-1.995,1.489-2.699,2.416
									c-1.22,0.123-2.41,0.475-3.564,1.159c-2.654,1.552-4.972,4.905-4.664,8.104c0.069,0.611,0.137,1.219,0.222,1.828
									c-1.298,2.971-1.5,6.266,0.163,9.902c2.594,5.637,10.144,6.336,15.332,4.725c5.409-1.66,10.186-5.488,10.857-11.296
									c0.817-0.986,1.423-2.155,1.722-3.546C388.774,232.372,388.826,230.293,388.544,227.844z"/>
							</g>
						</g>
					</mask>
					<g mask="url(#SVGID_1_)">
						<path fill="#FFEFB7" d="M171.037,99.512c1.375-1.629,2.197-3.686,2.055-5.873c-0.441-6.72-2.62-12.298-9.469-14.535
							c-2.638-0.86-5.161-0.45-7.409,0.683c-1.198,0.121-2.351,0.335-3.486,0.632c-0.843-0.554-1.774-1.055-2.825-1.489
							c-2.474-1.023-5.125-0.968-7.685-0.224c-13.206-2.904-23.805,10.051-27.708,22.866c-3.702,12.186-4.42,35.573,12.168,38.798
							c9.994,1.941,18.655-4.661,25.473-11.153c6.872-6.544,13.405-14.588,16.967-23.536
							C170.087,103.757,170.751,101.689,171.037,99.512z"/>
						<path fill="#FFEFB7" d="M111.451,207.656c-0.029-3.874-2.721-7.646-6.194-9.205c-1.942-3.2-5.536-5.473-10.183-4.599
							c-18.998,3.545-26.05,28.889-23.543,45.541c3.04,20.202,24.048,33.514,43.925,28.178
							C142.714,260.225,132.267,219.724,111.451,207.656z"/>
						<path fill="#FFEFB7" d="M203.448,169.279c-1.561-7.774-6.445-12.236-12.258-13.533c-0.784-2.559-2.819-4.694-6.362-5.429
							c-13.87-2.837-26.483,10.587-31.338,22.153c-4.628,11.052,6.847,25.064,12.941,33.406c3.563,4.865,7.577,10.105,13.346,12.346
							c7.144,2.773,13.406-2.101,16.662-8.115C202.49,198.941,205.97,181.77,203.448,169.279z"/>
						<path fill="#FFEFB7" d="M296.714,86.843c-0.594-1.952-1.943-3.756-4.253-5.065c-4.616-2.609-9.299-3.697-14.574-3.964
							c-4.709-0.232-9.932,4.471-9.376,9.393c0.296,2.727,0.719,5.206,1.593,7.811c0.047,0.108,0.079,0.194,0.107,0.295
							c-3.472,0.137-7.405-0.674-10.687-0.172c-10.946,1.652-15.955,12.646-13.079,22.669c2.632,9.186,11.578,16.468,19.841,20.415
							c9.437,4.509,19.576,3.625,28.136-2.524c9.036-6.494,14.497-16.992,14.604-28.125
							C309.073,99.162,304.424,90.183,296.714,86.843z"/>
						<path fill="#FFEFB7" d="M212.592,58.937c-7.992-0.021-17.549,6.902-18.591,15.335c-3.24,6.25-3.872,13.208,1.438,19.506
							c5.158,6.133,15.168,6.598,22.33,4.828c8.396-2.066,15.882-9.223,15.417-18.368C232.608,69.676,223.589,58.97,212.592,58.937z
							"/>
						<path fill="#FFEFB7" d="M290.164,188.791c-4.271-5.047-12.396-9-20.053-9.392c-1.05-4.766-5.32-8.922-11.435-7.394
							c-18.151,4.529-21.977,23.396-17.248,39.307c3.908,13.081,15.682,31.125,31.568,29.246c9.402-1.112,15.796-7.707,19.837-15.9
							C298.775,212.66,299.063,199.301,290.164,188.791z"/>
						<path fill="#FFEFB7" d="M189.222,302.797c3.083-8.57,4.705-21.52-6.311-25.109c-0.254-0.066-0.492-0.123-0.739-0.202
							c-1.095-1.548-2.8-2.795-5.237-3.368c-15.018-3.579-26.57,7.068-34.876,18.252c-7.38,9.92-15.175,25.485-9.095,37.713
							c6.704,13.501,25.793,12.168,37.434,6.953c5.543-2.48,8.229-8.38,10.347-13.634c1.452-3.609,3.025-7.195,4.56-10.769
							c0.398-0.844,0.769-1.67,1.053-2.543C187.37,307.679,188.349,305.262,189.222,302.797z M149.53,320.001
							c0.493,0.671,1.039,1.287,1.63,1.855h-0.016C149.252,321.802,149.358,321.498,149.53,320.001z"/>
						<path fill="#FFEFB7" d="M295.366,332.383c-2.281-11.292-7.64-23.514-15.961-31.629c-1.657-1.639-3.476-2.908-5.384-3.911
							c-0.393-3.78-2.891-7.64-6.779-8.216c-18.668-2.724-34.03,12.229-35.769,30.428c-1.265,12.975,12.991,25.241,21.818,33.047
							c7.684,6.816,19.804,15.977,30.772,11.673C296.52,358.891,297.677,343.778,295.366,332.383z"/>
						<path fill="#FFEFB7" d="M316.387,306.936c5.107,12.229,15.449,16.151,26.031,14.271c7.532,3.788,16.2,4.71,22.254-2.976
							c6.718-8.554,3.783-17.44-0.451-26.135c-3.605-7.463-8.15-18.303-15.81-22.543c-7.291-4.048-15.591-4.176-22.893-0.318
							C313.012,275.81,311.568,295.331,316.387,306.936z"/>
						<path fill="#FFEFB7" d="M317.902,190.293c1.301,8.919,5.591,17.756,13.142,20.725c1.644,3.352,4.999,5.939,9.695,5.507
							c12.558-1.131,24.622-15.095,27.545-26.667c1.763-7.034,0.57-13.666-4.853-18.598c0.146-0.056,0.294-0.1,0.436-0.155
							c11.907-4.443,18.917-17.142,13.646-29.375c-4.604-10.686-18.496-15.283-29.216-14.923
							c-15.364,0.525-26.831,9.418-32.47,23.681C311.052,162.564,316.113,177.905,317.902,190.293z"/>
						<path fill="#FFEFB7" d="M231.491,365.566c-0.795-11.708-10.125-19.158-20.66-20.589c-7.078-2.728-13.784-2.161-18.803,4.411
							c-3.81,5.013-5.069,12.524-4.903,18.646c0.171,6.345,3.418,12.409,9.741,14.383c2.065,0.634,4.296,0.775,6.449,0.684
							c0.816-0.034,1.622-0.11,2.422-0.182c0.513-0.037,0.981-0.021,1.364,0.014c1.438,1.25,3.153,2.426,4.998,2.927
							c3.729,1.004,7.013,0.263,10.346-1.538C229.204,380.668,231.973,372.839,231.491,365.566z"/>
						<path fill="#FFEFB7" d="M236.848,255.588c-1.826-1.806-3.618-3.621-5.334-5.516c-0.673-0.703-1.31-1.439-1.938-2.186
							c-0.035-0.046-0.041-0.089-0.065-0.117c-0.442-0.619-1.189-2.414-0.097,0.332c-1.858-4.748-6.201-8.016-11.542-6.559
							c-0.533,0.146-1.054,0.369-1.554,0.614c-3.421-0.132-6.929,1.465-8.53,4.601c-4.185,8.203-3.152,17.029,4.57,22.639
							c5.562,3.993,14.13,4.469,20.354,1.884c3.117-1.284,5.596-3.097,6.559-6.559C240.155,261.482,239.212,257.974,236.848,255.588
							z"/>
						<path fill="#FFEFB7" d="M96.903,147.405c-2.458-1.737-5.502-2.734-8.365-3.709c-0.447-1.405-1.199-2.718-2.249-3.762
							c-3.75-3.752-9.494-3.436-13.28,0c-3.818,3.456-7.515,8.004-8.525,13.199c-1.231,6.327,0.922,11.941,6.138,15.734
							c9.036,6.582,21.718,0.499,28.183-6.716C103.078,157.379,102.003,151.002,96.903,147.405z"/>
						<path fill="#FFEFB7" d="M103.801,297.273c-3.264-2.197-7.696-2.468-11.394-1.503c-0.63,0.171-1.235,0.401-1.825,0.629
							c-2.984,0.254-5.847,1.855-7.414,4.596c-0.582,1.008-1.05,2.068-1.434,3.13c-0.119,0.157-0.241,0.305-0.358,0.462
							c-1.661,2.25-1.611,5.65-0.573,8.252c0.602,3.904,2.62,7.492,6.194,10.071c6.823,4.944,18.886,1.974,22.516-5.651
							C113.019,309.91,110.529,301.758,103.801,297.273z"/>
						<path fill="#FFEFB7" d="M391.213,233.218c-0.017-2.377-0.92-4.782-2.704-6.553c-1.43-1.405-2.576-1.878-4.392-2.634
							c-3.014-1.25-6.499-0.059-8.927,2.231c-0.552,0.178-1.098,0.416-1.642,0.729c-1.119,0.666-1.995,1.47-2.667,2.396
							c-1.223,0.122-2.421,0.495-3.595,1.166c-2.636,1.548-4.947,4.908-4.633,8.109c0.042,0.614,0.128,1.218,0.199,1.813
							c-1.283,2.993-1.51,6.288,0.155,9.903c2.592,5.635,10.17,6.356,15.352,4.739c5.387-1.653,10.194-5.518,10.847-11.311
							c0.813-0.966,1.421-2.135,1.712-3.523C391.46,237.715,391.501,235.667,391.213,233.218z"/>
					</g>
				</g>
			</g>
			<g>
				<g opacity="0.3">
					<path fill="#231F20" d="M150.834,324.124c2.558,10.403,10.581,19.108,21.678,21.977c11.08,2.869,22.329-0.83,29.607-8.671
						L150.834,324.124z"/>
					<path fill="#231F20" d="M182.761,332.412l-15.127,11.946c1.542,0.713,3.167,1.304,4.877,1.742
						c11.08,2.869,22.329-0.83,29.607-8.671L182.761,332.412z"/>
					<path fill="#231F20" d="M137.163,120.078c7.337,7.785,18.61,11.399,29.676,8.433c11.068-2.968,19.017-11.732,21.488-22.148
						L137.163,120.078z"/>
					<path fill="#231F20" d="M169.014,111.543l-7.275,17.858c1.701-0.155,3.399-0.435,5.101-0.89
						c11.068-2.968,19.017-11.732,21.488-22.148L169.014,111.543z"/>
					<path fill="#231F20" d="M201.898,191.972c7.338,7.777,18.613,11.391,29.676,8.427c11.063-2.963,19.018-11.731,21.488-22.143
						L201.898,191.972z"/>
					<path fill="#231F20" d="M233.754,183.436l-7.266,17.851c1.677-0.154,3.378-0.433,5.085-0.888
						c11.063-2.963,19.018-11.731,21.488-22.143L233.754,183.436z"/>
					<path fill="#231F20" d="M304.707,212.425c-0.994,10.652,3.729,21.499,13.243,27.881c9.533,6.352,21.37,6.549,30.829,1.523
						L304.707,212.425z"/>
					<path fill="#231F20" d="M332.139,230.722l-18.215,6.33c1.225,1.162,2.575,2.266,4.026,3.254
						c9.533,6.352,21.37,6.549,30.829,1.523L332.139,230.722z"/>
					<path fill="#231F20" d="M284.837,116.041c-2.749-10.343-10.972-18.873-22.101-21.515c-11.151-2.646-22.329,1.285-29.435,9.279
						L284.837,116.041z"/>
					<path fill="#231F20" d="M251.258,108.068l33.579,7.974c-2.722-10.146-10.667-18.538-21.491-21.349L251.258,108.068z"/>
					<path fill="#231F20" d="M309.504,340.582c-2.769-10.335-10.973-18.868-22.123-21.515c-11.147-2.632-22.327,1.29-29.435,9.284
						L309.504,340.582z"/>
					<path fill="#231F20" d="M275.905,332.615l33.6,7.967c-2.73-10.134-10.677-18.528-21.512-21.351L275.905,332.615z"/>
					<path fill="#231F20" d="M144.807,219.471c-9.15-5.551-20.979-6.015-30.851-0.196c-9.868,5.819-15.197,16.384-14.791,27.089
						L144.807,219.471z"/>
					<path fill="#231F20" d="M115.073,236.977l29.734-17.506c-8.986-5.438-20.538-5.973-30.296-0.497L115.073,236.977z"/>
				</g>
				<g>
					<g>
						<path fill="#87A342" d="M148.153,318.762c2.554,10.392,10.587,19.097,21.673,21.965c11.082,2.88,22.335-0.806,29.607-8.672
							L148.153,318.762z"/>
						<path fill="#6A7D35" d="M180.075,327.039l-15.128,11.972c1.552,0.687,3.167,1.278,4.878,1.717
							c11.082,2.88,22.335-0.806,29.607-8.672L180.075,327.039z"/>
					</g>
					<g>
						<path fill="#87A342" d="M134.477,114.716c7.345,7.787,18.621,11.389,29.676,8.424c11.068-2.964,19.03-11.731,21.488-22.143
							L134.477,114.716z"/>
						<path fill="#6A7D35" d="M166.334,106.177l-7.281,17.861c1.701-0.153,3.408-0.442,5.101-0.897
							c11.068-2.964,19.03-11.731,21.488-22.143L166.334,106.177z"/>
					</g>
					<g>
						<path fill="#87A342" d="M199.211,186.602c7.353,7.793,18.628,11.391,29.696,8.424c11.049-2.963,19.017-11.729,21.488-22.142
							L199.211,186.602z"/>
						<path fill="#6A7D35" d="M231.059,178.063l-7.271,17.87c1.701-0.155,3.412-0.451,5.119-0.907
							c11.049-2.963,19.017-11.729,21.488-22.142L231.059,178.063z"/>
					</g>
					<g>
						<path fill="#87A342" d="M302.037,207.056c-1.028,10.664,3.698,21.518,13.245,27.88c9.509,6.349,21.349,6.563,30.805,1.549
							L302.037,207.056z"/>
						<path fill="#6A7D35" d="M329.463,225.373l-18.236,6.306c1.239,1.162,2.569,2.265,4.056,3.257
							c9.509,6.349,21.349,6.563,30.805,1.549L329.463,225.373z"/>
					</g>
					<g>
						<path fill="#87A342" d="M282.154,110.678c-2.77-10.341-10.974-18.87-22.124-21.52c-11.145-2.645-22.289,1.291-29.427,9.286
							L282.154,110.678z"/>
						<path fill="#6A7D35" d="M248.577,102.707l33.576,7.971c-2.705-10.149-10.678-18.544-21.513-21.352L248.577,102.707z"/>
					</g>
					<g>
						<path fill="#87A342" d="M306.8,335.221c-2.759-10.348-10.974-18.88-22.114-21.503c-11.125-2.656-22.299,1.266-29.405,9.279
							L306.8,335.221z"/>
						<path fill="#6A7D35" d="M273.238,327.262l33.563,7.959c-2.706-10.146-10.678-18.541-21.505-21.341L273.238,327.262z"/>
					</g>
					<g>
						<path fill="#87A342" d="M142.132,214.105c-9.156-5.539-20.991-6.004-30.856-0.193c-9.873,5.809-15.203,16.375-14.792,27.08
							L142.132,214.105z"/>
						<path fill="#6A7D35" d="M112.387,231.621l29.744-17.516c-8.986-5.446-20.549-5.979-30.304-0.498L112.387,231.621z"/>
					</g>
				</g>
			</g>
		</g>
	</g>
</g>
</svg>
