<?xml version="1.0" encoding="utf-8"?>
<!-- Generator: Adobe Illustrator 16.0.0, SVG Export Plug-In . SVG Version: 6.00 Build 0)  -->
<!DOCTYPE svg PUBLIC "-//W3C//DTD SVG 1.1//EN" "http://www.w3.org/Graphics/SVG/1.1/DTD/svg11.dtd">
<svg version="1.1" id="Ebene_1" xmlns="http://www.w3.org/2000/svg" xmlns:xlink="http://www.w3.org/1999/xlink" x="0px" y="0px"
	 width="450px" height="450px" viewBox="0 0 450 450" enable-background="new 0 0 450 450" xml:space="preserve">
<g>
	<g>
		<g>
			<g>
				<ellipse fill="#F3BC6D" cx="225.923" cy="224.886" rx="217.757" ry="219.132"/>
				<path fill="#DE9C4D" d="M384.824,75.076L117.346,414.874c31.962,18.539,69.037,29.145,108.576,29.145
					c120.264,0,217.758-98.108,217.758-219.132C443.68,166.944,421.321,114.261,384.824,75.076z"/>
			</g>
			<g>
				<ellipse fill="#C08341" cx="111.427" cy="394.946" rx="5.919" ry="5.957"/>
				<ellipse fill="#C08341" cx="96.618" cy="383.583" rx="2.001" ry="2.014"/>
				<ellipse fill="#C08341" cx="86.055" cy="378.043" rx="1.835" ry="1.846"/>
				<ellipse fill="#C08341" cx="366.766" cy="76.572" rx="4.888" ry="4.918"/>
				<ellipse fill="#C08341" cx="347.698" cy="56.711" rx="2.502" ry="2.519"/>
				<ellipse fill="#C08341" cx="204.499" cy="17.485" rx="5.23" ry="5.265"/>
				<ellipse fill="#C08341" cx="250.823" cy="12.725" rx="1.834" ry="1.847"/>
				<ellipse fill="#C08341" cx="94.405" cy="65.398" rx="6.129" ry="6.167"/>
				<ellipse fill="#C08341" cx="107.235" cy="55.933" rx="1.728" ry="1.739"/>
				<ellipse fill="#C08341" cx="16.206" cy="203.611" rx="3.67" ry="3.693"/>
				<ellipse fill="#C08341" cx="26.46" cy="185.387" rx="3.247" ry="3.268"/>
				<ellipse fill="#C08341" cx="43.065" cy="125.88" rx="1.501" ry="1.51"/>
				<ellipse fill="#C08341" cx="30.308" cy="296.319" rx="5.428" ry="5.461"/>
				<ellipse fill="#C08341" cx="177.485" cy="423.307" rx="4.68" ry="4.709"/>
				<ellipse fill="#C08341" cx="143.374" cy="413.172" rx="2.601" ry="2.618"/>
				<ellipse fill="#C08341" cx="326.49" cy="406.028" rx="5.094" ry="5.127"/>
				<path fill="#C08341" d="M293.128,421.165c0,1.416-1.141,2.565-2.548,2.565c-1.41,0-2.551-1.149-2.551-2.565
					c0-1.42,1.141-2.567,2.551-2.567C291.988,418.597,293.128,419.745,293.128,421.165z"/>
				<ellipse fill="#C08341" cx="379.007" cy="360.191" rx="2.002" ry="2.015"/>
				<ellipse fill="#C08341" cx="393.036" cy="349.657" rx="3.573" ry="3.596"/>
				<ellipse fill="#C08341" cx="398.068" cy="336.365" rx="1.458" ry="1.467"/>
				<ellipse fill="#C08341" cx="433.591" cy="217.191" rx="7.647" ry="7.695"/>
				<ellipse fill="#C08341" cx="421.493" cy="160.745" rx="2.67" ry="2.686"/>
				<ellipse fill="#C08341" cx="433.083" cy="244.441" rx="2.247" ry="2.261"/>
				<ellipse fill="#C08341" cx="397.93" cy="104.784" rx="4.894" ry="4.924"/>
				<ellipse fill="#C08341" cx="380.977" cy="89.913" rx="1.685" ry="1.696"/>
			</g>
			<g>
				<path fill="#8E311F" d="M105.97,67.294c4.345-3.35,7.913-7.922,12.436-10.852c4.595-2.978,9.066-6.514,13.818-9.061
					c4.816-2.584,11.109-2.289,16.063-4.435c5.007-2.167,9.282-6.485,14.401-8.208c5.163-1.739,11.088-1.183,16.337-2.474
					c5.285-1.3,10.172-5.265,15.516-6.112c5.37-0.854,11.209,1.11,16.609,0.706c5.417-0.404,10.898-2.177,16.314-2.133
					c5.431,0.047,10.914,1.531,16.314,2.025c5.401,0.496,10.713,2.033,16.058,2.972c5.34,0.939,9.973,4.725,15.226,6.102
					c5.241,1.375,11.143,0.272,16.268,2.083c5.109,1.803,8.721,7.08,13.682,9.313c4.939,2.219,9.833,4.007,14.598,6.649
					c4.733,2.624,12.337,0.543,16.874,3.576c4.494,3.008,5.493,10.92,9.769,14.325c4.226,3.369,9.743,5.073,13.725,8.83
					c3.931,3.706,10.228,5.27,13.896,9.348c3.608,4.014,3.347,11.382,6.674,15.755c3.329,4.374,8.171,7.526,11.083,12.078
					c2.959,4.621,5.82,9.283,8.351,14.068c2.566,4.847,6.846,8.958,8.977,13.942c2.154,5.039,2.417,10.913,4.13,16.065
					c1.729,5.199,4.155,10.262,5.438,15.544c1.291,5.32,1.444,10.942,2.29,16.319c0.847,5.404-1.459,11.088-1.058,16.521
					c0.4,5.45,1.884,10.72,1.838,16.171c-0.045,5.461-2.091,10.661-2.582,16.094c-0.491,5.436-0.845,10.671-1.777,16.048
					c-0.93,5.373,1.62,11.461,0.251,16.747c-1.369,5.274-6.719,9.275-8.517,14.434c-1.794,5.138-1.509,10.993-3.728,15.987
					c-2.205,4.969-7.296,8.344-9.918,13.141c-2.607,4.763-2.068,11.332-5.082,15.896c-2.989,4.524-5.674,9.391-9.061,13.689
					c-3.347,4.255-10.19,5.404-13.923,9.413c-3.682,3.952-6.225,8.843-10.28,12.53c-3.988,3.631-4.963,11.097-9.31,14.446
					c-4.345,3.35-10.677,4.05-15.2,6.978c-4.596,2.98-10.136,4.176-14.889,6.725c-4.817,2.582-7.87,8.943-12.825,11.09
					c-5.008,2.166-10.954,2.253-16.073,3.979c-5.163,1.738-11.421-0.71-16.67,0.584c-5.285,1.299-9.302,8.979-14.646,9.829
					c-5.369,0.853-11.097,0.876-16.497,1.278c-5.417,0.403-11.058-2.046-16.474-2.094c-5.428-0.045-11.094,2.139-16.492,1.645
					c-5.402-0.496-10.744-2.751-16.088-3.69c-5.34-0.937-10.399-3.432-15.652-4.812c-5.242-1.375-10.674-2.242-15.799-4.053
					c-5.108-1.805-9.077-6.363-14.041-8.597c-4.937-2.221-12.208,0.127-16.974-2.513c-4.733-2.623-7.859-8.233-12.396-11.267
					c-4.495-3.008-9.187-5.842-13.46-9.246c-4.228-3.371-7.359-8.051-11.341-11.807c-3.929-3.707-11.063-4.461-14.73-8.542
					c-3.608-4.013-1.597-12.809-4.925-17.182s-11.142-5.451-14.054-10.002c-2.96-4.625-6.362-9.191-8.896-13.977
					c-2.565-4.848-5.19-9.912-7.319-14.897c-2.156-5.039-2.306-11.015-4.019-16.167c-1.729-5.196-3.585-10.453-4.868-15.736
					c-1.292-5.316-0.088-11.154-0.933-16.531c-0.848-5.404-2.263-10.694-2.664-16.127c-0.402-5.45,2.392-10.876,2.437-16.327
					c0.046-5.463-2.045-10.88-1.554-16.314c0.492-5.435,1.984-10.655,2.917-16.033c0.931-5.372-0.806-11.34,0.565-16.625
					c1.366-5.275,7.086-9.168,8.883-14.325c1.792-5.139,3.594-10.043,5.811-15.036c2.207-4.971,0.358-11.962,2.982-16.757
					c2.607-4.764,4.761-10.076,7.774-14.64c2.989-4.525,8.282-7.572,11.667-11.875c3.347-4.252,4.79-10.412,8.523-14.419
					c3.682-3.957,8.995-6.584,13.049-10.273C96.789,73.45,101.627,70.644,105.97,67.294z"/>
				<path fill="#D04B27" d="M315.405,395.368c-4.662,2.479-8.976,6.112-13.738,8.166c-4.841,2.084-11.606-0.823-16.527,0.829
					c-4.987,1.673-10.296,1.354-15.343,2.589c-5.103,1.25-9.691,3.856-14.83,4.668c-5.182,0.814-10.349-0.306-15.54,0.072
					c-5.228,0.381-10.23,6.962-15.439,6.905c-5.235-0.056-10.186-5.795-15.379-6.283c-5.207-0.493-11.241,4.835-16.378,3.914
					c-5.148-0.922-9.05-7.765-14.101-9.108c-5.052-1.34-11.778,2.59-16.704,0.835c-4.92-1.753-7.729-8.977-12.496-11.136
					c-4.758-2.153-10.65-1.915-15.232-4.46c-4.564-2.539-10.373-3.344-14.728-6.267c-4.334-2.906-8.503-6.477-12.609-9.752
					c-4.077-3.259-4.551-10.74-8.375-14.355c-3.792-3.581-11.103-3.712-14.621-7.636c-3.475-3.883-2.62-11.39-5.802-15.6
					c-3.142-4.155-11.207-4.914-14.038-9.378c-2.787-4.396-0.99-11.587-3.454-16.277c-2.462-4.69-8.037-7.827-10.075-12.62
					c-2.074-4.871-2.248-10.498-3.89-15.45c-1.665-5.019-3.631-9.932-4.86-15.013c-1.242-5.134-3.696-10.1-4.504-15.27
					c-0.812-5.215,1.491-10.809,1.115-16.033c-0.377-5.259,1.704-10.403,1.759-15.647c0.057-5.269-1.63-10.428-1.144-15.659
					c0.488-5.24-3.512-11.179-2.599-16.349c0.914-5.181,7.249-9.226,8.581-14.305c1.334-5.086,2.477-10.086,4.222-15.044
					c1.742-4.952,0.153-11.293,2.298-16.09c2.141-4.793,7.457-8.054,9.989-12.663c2.523-4.593,3.282-10.296,6.186-14.682
					c2.889-4.362,9.657-5.802,12.915-9.934c3.234-4.103,5.272-8.998,8.863-12.846c3.563-3.816,6.608-8.045,10.512-11.582
					c3.856-3.501,7.81-6.83,11.994-10.033c4.128-3.162,9.3-4.643,13.74-7.489c4.369-2.804,7.64-7.364,12.302-9.842
					c4.66-2.48,8.742-6.167,13.506-8.219c4.839-2.085,10-3.437,14.921-5.089c4.989-1.673,9.67-4.769,14.716-6.004
					c5.102-1.252,11.036,1.645,16.172,0.834c5.183-0.816,10.043-4.103,15.233-4.483c5.228-0.377,10.534-0.246,15.746-0.188
					c5.234,0.058,10.659-1.209,15.852-0.719c5.21,0.49,10.51,1.579,15.648,2.5c5.148,0.92,9.912,3.969,14.962,5.309
					c5.053,1.344,10.184,2.503,15.109,4.255c4.92,1.755,9.382,4.669,14.152,6.826c4.757,2.157,11.376,0.861,15.954,3.408
					c4.564,2.537,8.95,5.913,13.309,8.833c4.336,2.909,6.112,9.496,10.22,12.775c4.077,3.255,6.644,8.013,10.468,11.629
					c3.789,3.583,11.475,3.318,14.988,7.245c3.479,3.882,3.001,11.103,6.179,15.314c3.145,4.155,8.134,6.936,10.965,11.403
					c2.785,4.394,4.609,9.362,7.074,14.053c2.463,4.69,7.581,8.118,9.623,12.911c2.071,4.869,3.868,10,5.511,14.949
					c1.664,5.021,0.837,10.808,2.067,15.889c1.243,5.135,1.728,10.352,2.532,15.521c0.813,5.215,0.871,10.412,1.246,15.637
					c0.378,5.26-0.533,10.39-0.589,15.635c-0.058,5.267-0.325,10.316-0.813,15.542c-0.487,5.24,1.539,10.738,0.625,15.906
					c-0.913,5.181,0.651,11.06-0.683,16.141c-1.331,5.084-7.976,8.563-9.722,13.521c-1.742,4.955,0.077,11.337-2.068,16.138
					c-2.139,4.79-5.785,8.934-8.317,13.543c-2.522,4.593-3.629,10.204-6.532,14.591c-2.888,4.364-9.822,5.784-13.08,9.915
					c-3.236,4.103-6.909,7.56-10.502,11.408c-3.561,3.814-3.944,10.865-7.846,14.401c-3.857,3.499-10.328,3.864-14.511,7.067
					c-4.13,3.16-8.741,5.333-13.18,8.181C322.042,385.925,320.066,392.886,315.405,395.368z"/>
				<path fill="#AF3B25" d="M413.038,226.766c0.056-5.245,0.967-10.375,0.589-15.635c-0.375-5.225-0.433-10.422-1.246-15.637
					c-0.805-5.17-1.289-10.387-2.532-15.521c-1.23-5.081-0.403-10.867-2.067-15.889c-1.643-4.949-3.439-10.08-5.511-14.949
					c-2.042-4.793-7.16-8.221-9.623-12.911c-2.465-4.691-4.289-9.659-7.074-14.053c-1.804-2.846-4.478-5.007-6.997-7.274
					c-57.796,75.278-175.831,228.53-222.361,288.932c1.571,1.805,3.217,3.418,5.209,4.127c4.926,1.755,11.651-2.175,16.704-0.835
					c5.05,1.344,8.952,8.187,14.101,9.108c5.138,0.921,11.171-4.407,16.378-3.914c5.194,0.488,10.144,6.228,15.379,6.283
					c5.209,0.057,10.212-6.524,15.439-6.905c5.191-0.378,10.358,0.742,15.54-0.072c5.139-0.812,9.728-3.418,14.83-4.668
					c5.047-1.234,10.355-0.916,15.343-2.589c4.921-1.652,11.687,1.255,16.527-0.829c4.763-2.054,9.076-5.687,13.738-8.166
					c4.661-2.481,6.638-9.443,11.005-12.248c4.438-2.848,9.05-5.021,13.18-8.181c4.183-3.203,10.653-3.568,14.511-7.067
					c3.901-3.536,4.285-10.587,7.846-14.401c3.593-3.849,7.266-7.306,10.502-11.408c3.258-4.131,10.192-5.551,13.08-9.915
					c2.903-4.387,4.01-9.998,6.532-14.591c2.532-4.609,6.179-8.753,8.317-13.543c2.146-4.801,0.326-11.183,2.068-16.138
					c1.746-4.958,8.391-8.437,9.722-13.521c1.334-5.081-0.23-10.96,0.683-16.141c0.914-5.168-1.112-10.666-0.625-15.906
					C412.713,237.083,412.981,232.033,413.038,226.766z"/>
				<g>
					<ellipse fill="#AF3B25" cx="123.254" cy="125.88" rx="18.372" ry="18.485"/>
					<ellipse fill="#AF3B25" cx="163.818" cy="182.121" rx="26.521" ry="26.689"/>
					<ellipse fill="#AF3B25" cx="276.421" cy="143.411" rx="26.521" ry="26.688"/>
					<ellipse fill="#AF3B25" cx="248.989" cy="65.398" rx="15.368" ry="15.465"/>
					<path fill="#AF3B25" d="M206.101,124.369c0,4.011-3.233,7.263-7.219,7.263c-3.986,0-7.219-3.252-7.219-7.263
						c0-4.015,3.233-7.266,7.219-7.266C202.868,117.103,206.101,120.355,206.101,124.369z"/>
					<path fill="#AF3B25" d="M236.068,156.823c0,6.304-5.078,11.414-11.342,11.414c-6.263,0-11.34-5.11-11.34-11.414
						c0-6.301,5.077-11.411,11.34-11.411C230.99,145.412,236.068,150.522,236.068,156.823z"/>
					<path fill="#AF3B25" d="M92.308,188.839c0,8.158-6.569,14.771-14.675,14.771c-8.107,0-14.677-6.613-14.677-14.771
						c0-8.155,6.57-14.768,14.677-14.768C85.739,174.071,92.308,180.684,92.308,188.839z"/>
					<ellipse fill="#AF3B25" cx="89.891" cy="146.239" rx="5.671" ry="5.706"/>
					<ellipse fill="#AF3B25" cx="137.297" cy="270.085" rx="10.471" ry="10.537"/>
					<ellipse fill="#AF3B25" cx="81.061" cy="265.405" rx="5.82" ry="5.857"/>
					<path fill="#AF3B25" d="M145.214,213.778c0,7.957-6.409,14.407-14.313,14.407c-7.906,0-14.316-6.45-14.316-14.407
						c0-7.953,6.41-14.403,14.316-14.403C138.805,199.374,145.214,205.824,145.214,213.778z"/>
					<ellipse fill="#AF3B25" cx="207.032" cy="298.043" rx="17.312" ry="17.421"/>
					<ellipse fill="#AF3B25" cx="237.08" cy="230.252" rx="11.158" ry="11.228"/>
					<ellipse fill="#AF3B25" cx="293.129" cy="193.348" rx="11.158" ry="11.23"/>
					<ellipse fill="#AF3B25" cx="126.826" cy="342.244" rx="25.028" ry="25.185"/>
					<ellipse fill="#AF3B25" cx="175.616" cy="342.244" rx="7.366" ry="7.413"/>
					<ellipse fill="#AF3B25" cx="331.584" cy="99.858" rx="7.367" ry="7.414"/>
					<ellipse fill="#AF3B25" cx="320.131" cy="148.678" rx="8.095" ry="8.147"/>
					<ellipse fill="#AF3B25" cx="163.819" cy="80.071" rx="10.843" ry="10.913"/>
					<ellipse fill="#AF3B25" cx="185.869" cy="245.356" rx="3.851" ry="3.874"/>
					<ellipse fill="#AF3B25" cx="123.253" cy="170.102" rx="3.851" ry="3.874"/>
					<ellipse fill="#AF3B25" cx="189.719" cy="57.672" rx="3.851" ry="3.874"/>
					<ellipse fill="#AF3B25" cx="59.105" cy="235.152" rx="3.851" ry="3.874"/>
					<ellipse fill="#AF3B25" cx="163.818" cy="378.043" rx="3.851" ry="3.874"/>
					<ellipse fill="#8E311F" cx="242.952" cy="371.224" rx="17.859" ry="17.972"/>
					<path fill="#8E311F" d="M207.031,389.771c0,4.527-3.648,8.199-8.149,8.199s-8.15-3.672-8.15-8.199
						c0-4.531,3.648-8.203,8.15-8.203S207.031,385.24,207.031,389.771z"/>
					<ellipse fill="#8E311F" cx="277.553" cy="382.62" rx="5.193" ry="5.226"/>
					<ellipse fill="#8E311F" cx="293.129" cy="258.378" rx="5.193" ry="5.226"/>
					<ellipse fill="#8E311F" cx="402.824" cy="182.121" rx="5.192" ry="5.225"/>
					<ellipse fill="#8E311F" cx="285.308" cy="298.043" rx="19.524" ry="19.647"/>
					<ellipse fill="#8E311F" cx="293.13" cy="353.253" rx="8.878" ry="8.935"/>
					<ellipse fill="#8E311F" cx="334.128" cy="346.06" rx="7.191" ry="7.237"/>
					<ellipse fill="#8E311F" cx="330.324" cy="256.727" rx="20.485" ry="20.613"/>
					<ellipse fill="#8E311F" cx="382.661" cy="275.413" rx="12.962" ry="13.044"/>
					<ellipse fill="#8E311F" cx="389.462" cy="207.304" rx="6.888" ry="6.93"/>
					<ellipse fill="#8E311F" cx="385.548" cy="154.835" rx="8.542" ry="8.596"/>
				</g>
			</g>
			<g>
				<g>
					<g opacity="0.3">
						<path fill="#231F20" d="M177.417,107.16c1.367-1.631,2.188-3.691,2.045-5.882c-0.442-6.726-2.601-12.313-9.417-14.55
							c-2.63-0.863-5.139-0.449-7.382,0.682c-1.183,0.123-2.337,0.336-3.461,0.634c-0.841-0.556-1.773-1.059-2.817-1.493
							c-2.459-1.023-5.101-0.967-7.64-0.225c-13.148-2.906-23.693,10.065-27.573,22.9c-3.687,12.201-4.398,35.623,12.107,38.847
							c9.945,1.941,18.56-4.664,25.345-11.167c6.834-6.55,13.338-14.609,16.887-23.57
							C176.474,111.412,177.128,109.339,177.417,107.16z"/>
						<path fill="#231F20" d="M118.131,215.442c-0.033-3.866-2.711-7.649-6.169-9.212c-1.93-3.206-5.505-5.474-10.128-4.606
							c-18.906,3.557-25.922,28.923-23.432,45.592c3.024,20.237,23.931,33.57,43.708,28.215
							C149.232,268.08,138.839,227.535,118.131,215.442z"/>
						<path fill="#231F20" d="M209.674,177.018c-1.559-7.784-6.418-12.248-12.198-13.547c-0.79-2.567-2.805-4.706-6.337-5.435
							c-13.8-2.848-26.355,10.603-31.176,22.176c-4.609,11.067,6.805,25.099,12.875,33.454c3.538,4.874,7.537,10.124,13.28,12.36
							c7.104,2.771,13.339-2.103,16.577-8.118C208.715,206.723,212.182,189.528,209.674,177.018z"/>
						<path fill="#231F20" d="M302.47,94.476c-0.582-1.957-1.925-3.761-4.228-5.07c-4.604-2.618-9.244-3.704-14.502-3.969
							c-4.688-0.236-9.877,4.473-9.344,9.402c0.297,2.733,0.725,5.212,1.602,7.819c0.038,0.111,0.063,0.195,0.098,0.297
							c-3.443,0.139-7.362-0.674-10.642-0.173c-10.872,1.658-15.853,12.662-12.995,22.704c2.617,9.194,11.504,16.487,19.742,20.442
							c9.392,4.512,19.464,3.625,27.977-2.526c9.011-6.508,14.444-17.017,14.535-28.168C314.78,106.811,310.14,97.819,302.47,94.476
							z"/>
						<path fill="#231F20" d="M218.772,66.534c-7.954-0.023-17.471,6.908-18.509,15.356c-3.22,6.257-3.844,13.224,1.428,19.531
							c5.137,6.143,15.094,6.607,22.218,4.837c8.35-2.075,15.812-9.239,15.333-18.399C238.692,77.287,229.709,66.565,218.772,66.534
							z"/>
						<path fill="#231F20" d="M295.951,196.563c-4.26-5.063-12.336-9.01-19.946-9.415c-1.049-4.764-5.297-8.933-11.377-7.402
							c-18.057,4.543-21.859,23.43-17.155,39.358c3.869,13.103,15.588,31.158,31.404,29.285c9.354-1.104,15.696-7.699,19.732-15.91
							C304.521,220.458,304.811,207.088,295.951,196.563z"/>
						<path fill="#231F20" d="M195.515,310.724c3.061-8.604,4.679-21.567-6.281-25.148c-0.248-0.081-0.495-0.128-0.74-0.194
							c-1.084-1.573-2.787-2.816-5.213-3.396c-14.943-3.57-26.429,7.095-34.699,18.28c-7.338,9.93-15.1,25.532-9.053,37.777
							c6.671,13.51,25.672,12.188,37.255,6.957c5.506-2.489,8.189-8.399,10.288-13.651c1.446-3.623,3.011-7.198,4.536-10.792
							c0.406-0.829,0.764-1.673,1.051-2.531C193.662,315.612,194.638,313.188,195.515,310.724z M156.022,327.953
							c0.483,0.659,1.024,1.276,1.616,1.853h-0.012C155.739,329.741,155.843,329.44,156.022,327.953z"/>
						<path fill="#231F20" d="M301.141,340.344c-2.271-11.304-7.621-23.544-15.889-31.684c-1.652-1.626-3.465-2.909-5.354-3.896
							c-0.396-3.79-2.88-7.662-6.754-8.229c-18.589-2.731-33.85,12.237-35.598,30.45c-1.249,13.003,12.945,25.279,21.703,33.089
							c7.662,6.833,19.707,16.001,30.625,11.699C302.271,366.887,303.435,351.76,301.141,340.344z"/>
						<path fill="#231F20" d="M322.057,314.864c5.066,12.237,15.36,16.172,25.895,14.297c7.493,3.772,16.122,4.711,22.144-2.99
							c6.689-8.561,3.756-17.449-0.443-26.172c-3.595-7.469-8.122-18.333-15.735-22.575c-7.259-4.045-15.515-4.179-22.78-0.325
							C318.681,283.706,317.251,303.249,322.057,314.864z"/>
						<path fill="#231F20" d="M323.561,198.056c1.283,8.935,5.548,17.792,13.073,20.759c1.636,3.36,4.979,5.939,9.646,5.517
							c12.495-1.135,24.494-15.112,27.396-26.701c1.767-7.054,0.575-13.693-4.825-18.627c0.144-0.053,0.287-0.103,0.43-0.158
							c11.858-4.449,18.836-17.164,13.591-29.409c-4.583-10.703-18.407-15.308-29.078-14.944
							c-15.292,0.527-26.694,9.43-32.304,23.714C316.742,170.292,321.779,185.662,323.561,198.056z"/>
						<path fill="#231F20" d="M237.561,373.576c-0.784-11.729-10.06-19.19-20.554-20.618c-7.033-2.728-13.711-2.18-18.697,4.415
							c-3.792,5.016-5.051,12.544-4.888,18.67c0.169,6.353,3.403,12.415,9.694,14.393c2.054,0.646,4.28,0.787,6.423,0.695
							c0.805-0.033,1.61-0.117,2.413-0.184c0.499-0.042,0.963-0.019,1.344,0.02c1.432,1.245,3.146,2.425,4.978,2.924
							c3.712,1.007,6.978,0.271,10.297-1.537C235.285,388.693,238.047,380.855,237.561,373.576z"/>
						<path fill="#231F20" d="M242.897,263.45c-1.799-1.813-3.588-3.633-5.317-5.518c-0.657-0.716-1.285-1.458-1.906-2.208
							c-0.027-0.037-0.051-0.071-0.083-0.115c-0.442-0.627-1.158-2.4-0.077,0.349c-1.872-4.761-6.179-8.038-11.492-6.565
							c-0.53,0.146-1.051,0.356-1.554,0.613c-3.391-0.136-6.881,1.449-8.478,4.602c-4.161,8.218-3.142,17.058,4.549,22.65
							c5.53,4.022,14.043,4.494,20.237,1.904c3.119-1.303,5.576-3.101,6.525-6.564C246.185,269.36,245.253,265.822,242.897,263.45z"
							/>
						<path fill="#231F20" d="M103.653,155.117c-2.45-1.739-5.48-2.739-8.326-3.708c-0.446-1.415-1.196-2.726-2.239-3.775
							c-3.732-3.754-9.444-3.439-13.214,0c-3.797,3.468-7.478,8.014-8.483,13.221c-1.223,6.341,0.92,11.951,6.109,15.752
							c8.991,6.59,21.612,0.506,28.043-6.723C109.798,165.101,108.727,158.721,103.653,155.117z"/>
						<path fill="#231F20" d="M110.514,305.172c-3.25-2.188-7.659-2.466-11.337-1.479c-0.629,0.168-1.232,0.383-1.813,0.627
							c-2.976,0.233-5.821,1.852-7.382,4.596c-0.575,1.01-1.046,2.054-1.429,3.119c-0.116,0.154-0.238,0.307-0.352,0.462
							c-1.655,2.259-1.604,5.679-0.572,8.286c0.6,3.891,2.61,7.496,6.165,10.081c6.789,4.937,18.792,1.978,22.402-5.656
							C119.686,317.826,117.209,309.678,110.514,305.172z"/>
						<path fill="#231F20" d="M396.507,241.045c-0.02-2.393-0.914-4.776-2.698-6.561c-1.412-1.411-2.566-1.886-4.374-2.644
							c-2.988-1.246-6.457-0.048-8.867,2.229c-0.558,0.194-1.107,0.425-1.638,0.736c-1.113,0.656-1.982,1.482-2.669,2.408
							c-1.216,0.129-2.399,0.488-3.559,1.174c-2.63,1.549-4.939,4.913-4.628,8.117c0.061,0.614,0.132,1.221,0.21,1.818
							c-1.285,2.977-1.497,6.288,0.162,9.916c2.579,5.643,10.106,6.343,15.268,4.743c5.365-1.661,10.132-5.52,10.795-11.333
							c0.807-0.973,1.411-2.153,1.704-3.541C396.749,245.557,396.791,243.495,396.507,241.045z"/>
					</g>
					<g>
						<g>
							<path fill="#DCC78C" d="M174.739,101.804c1.367-1.631,2.188-3.691,2.045-5.882c-0.442-6.726-2.601-12.313-9.417-14.55
								c-2.63-0.863-5.139-0.449-7.382,0.682c-1.183,0.123-2.337,0.336-3.461,0.634c-0.841-0.556-1.773-1.059-2.817-1.493
								c-2.459-1.023-5.101-0.967-7.64-0.225c-13.148-2.906-23.693,10.065-27.573,22.9c-3.687,12.201-4.398,35.623,12.107,38.847
								c9.945,1.941,18.56-4.664,25.345-11.167c6.834-6.55,13.338-14.609,16.887-23.57
								C173.797,106.057,174.45,103.984,174.739,101.804z"/>
							<path fill="#DCC78C" d="M115.453,210.087c-0.033-3.866-2.711-7.649-6.169-9.212c-1.93-3.206-5.505-5.474-10.128-4.606
								c-18.906,3.557-25.922,28.923-23.432,45.592c3.024,20.237,23.931,33.57,43.708,28.215
								C146.554,262.724,136.161,222.18,115.453,210.087z"/>
							<path fill="#DCC78C" d="M206.996,171.663c-1.559-7.784-6.418-12.248-12.198-13.547c-0.79-2.567-2.805-4.706-6.337-5.435
								c-13.8-2.848-26.355,10.603-31.176,22.176c-4.609,11.067,6.805,25.099,12.875,33.454c3.538,4.874,7.537,10.124,13.28,12.36
								c7.104,2.771,13.339-2.103,16.577-8.118C206.037,201.368,209.505,184.173,206.996,171.663z"/>
							<path fill="#DCC78C" d="M299.792,89.121c-0.582-1.957-1.925-3.761-4.228-5.07c-4.604-2.618-9.244-3.704-14.502-3.969
								c-4.688-0.236-9.877,4.473-9.344,9.402c0.297,2.733,0.725,5.212,1.602,7.819c0.038,0.111,0.063,0.195,0.098,0.297
								c-3.443,0.139-7.362-0.674-10.642-0.173c-10.872,1.658-15.853,12.662-12.995,22.704c2.617,9.194,11.504,16.487,19.742,20.442
								c9.392,4.512,19.464,3.625,27.977-2.526c9.011-6.508,14.444-17.017,14.535-28.168
								C312.102,101.456,307.462,92.463,299.792,89.121z"/>
							<path fill="#DCC78C" d="M216.094,61.178c-7.954-0.023-17.471,6.908-18.509,15.356c-3.22,6.257-3.844,13.224,1.428,19.531
								c5.137,6.143,15.094,6.607,22.218,4.837c8.35-2.075,15.812-9.239,15.333-18.399C236.014,71.931,227.031,61.21,216.094,61.178
								z"/>
							<path fill="#DCC78C" d="M293.274,191.208c-4.26-5.063-12.336-9.01-19.946-9.415c-1.049-4.764-5.297-8.933-11.377-7.402
								c-18.057,4.543-21.859,23.43-17.155,39.358c3.869,13.103,15.588,31.158,31.404,29.285c9.354-1.104,15.696-7.699,19.732-15.91
								C301.843,215.103,302.133,201.732,293.274,191.208z"/>
							<path fill="#DCC78C" d="M192.838,305.369c3.061-8.604,4.679-21.567-6.281-25.148c-0.248-0.081-0.495-0.128-0.74-0.194
								c-1.084-1.573-2.787-2.816-5.213-3.396c-14.943-3.57-26.429,7.095-34.699,18.28c-7.338,9.93-15.1,25.532-9.053,37.777
								c6.671,13.51,25.672,12.188,37.255,6.957c5.506-2.489,8.189-8.399,10.288-13.651c1.446-3.623,3.011-7.198,4.536-10.792
								c0.406-0.829,0.764-1.673,1.051-2.531C190.984,310.257,191.961,307.833,192.838,305.369z M153.344,322.597
								c0.483,0.659,1.024,1.276,1.616,1.853h-0.012C153.061,324.385,153.165,324.085,153.344,322.597z"/>
							<path fill="#DCC78C" d="M298.463,334.988c-2.271-11.304-7.621-23.544-15.889-31.684c-1.652-1.626-3.465-2.909-5.354-3.896
								c-0.396-3.79-2.88-7.662-6.754-8.229c-18.589-2.731-33.85,12.237-35.598,30.45c-1.249,13.003,12.945,25.279,21.703,33.089
								c7.662,6.833,19.707,16.001,30.625,11.699C299.593,361.532,300.757,346.404,298.463,334.988z"/>
							<path fill="#DCC78C" d="M319.379,309.509c5.066,12.237,15.36,16.172,25.895,14.297c7.493,3.772,16.122,4.711,22.144-2.99
								c6.689-8.561,3.756-17.449-0.443-26.172c-3.595-7.469-8.122-18.333-15.735-22.575c-7.259-4.045-15.515-4.179-22.78-0.325
								C316.003,278.35,314.573,297.893,319.379,309.509z"/>
							<path fill="#DCC78C" d="M320.883,192.701c1.283,8.935,5.548,17.792,13.073,20.759c1.636,3.36,4.979,5.939,9.646,5.517
								c12.495-1.135,24.494-15.112,27.396-26.701c1.767-7.054,0.575-13.693-4.825-18.627c0.144-0.053,0.287-0.103,0.43-0.158
								c11.858-4.449,18.836-17.164,13.591-29.409c-4.583-10.703-18.407-15.308-29.078-14.944
								c-15.292,0.527-26.694,9.43-32.304,23.714C314.065,164.936,319.101,180.306,320.883,192.701z"/>
							<path fill="#DCC78C" d="M234.883,368.22c-0.784-11.729-10.06-19.19-20.554-20.618c-7.033-2.728-13.711-2.18-18.697,4.415
								c-3.792,5.016-5.051,12.544-4.888,18.67c0.169,6.353,3.403,12.415,9.694,14.393c2.054,0.646,4.28,0.787,6.423,0.695
								c0.805-0.033,1.61-0.117,2.413-0.184c0.499-0.042,0.963-0.019,1.344,0.02c1.432,1.245,3.146,2.425,4.978,2.924
								c3.712,1.007,6.978,0.271,10.297-1.537C232.608,383.338,235.369,375.5,234.883,368.22z"/>
							<path fill="#DCC78C" d="M240.219,258.094c-1.799-1.813-3.588-3.633-5.317-5.518c-0.657-0.716-1.285-1.458-1.906-2.208
								c-0.027-0.037-0.051-0.071-0.083-0.115c-0.442-0.627-1.158-2.4-0.077,0.349c-1.872-4.761-6.179-8.038-11.492-6.565
								c-0.53,0.146-1.051,0.356-1.554,0.613c-3.391-0.136-6.881,1.449-8.478,4.602c-4.161,8.218-3.142,17.058,4.549,22.65
								c5.53,4.022,14.043,4.494,20.237,1.904c3.119-1.303,5.576-3.101,6.525-6.564
								C243.507,264.005,242.575,260.467,240.219,258.094z"/>
							<path fill="#DCC78C" d="M100.975,149.761c-2.45-1.739-5.48-2.739-8.326-3.708c-0.446-1.415-1.196-2.726-2.239-3.775
								c-3.732-3.754-9.444-3.439-13.214,0c-3.797,3.468-7.478,8.014-8.483,13.221c-1.223,6.341,0.92,11.951,6.109,15.752
								c8.991,6.59,21.612,0.506,28.043-6.723C107.12,159.745,106.049,153.365,100.975,149.761z"/>
							<path fill="#DCC78C" d="M107.836,299.816c-3.25-2.188-7.659-2.466-11.337-1.479c-0.629,0.168-1.232,0.383-1.813,0.627
								c-2.976,0.233-5.821,1.852-7.382,4.596c-0.575,1.01-1.046,2.054-1.429,3.119c-0.116,0.154-0.238,0.307-0.352,0.462
								c-1.655,2.259-1.604,5.679-0.572,8.286c0.6,3.891,2.61,7.496,6.165,10.081c6.789,4.937,18.792,1.978,22.402-5.656
								C117.008,312.47,114.531,304.323,107.836,299.816z"/>
							<path fill="#DCC78C" d="M393.829,235.689c-0.02-2.393-0.914-4.776-2.698-6.561c-1.412-1.411-2.566-1.886-4.374-2.644
								c-2.988-1.246-6.457-0.048-8.867,2.229c-0.558,0.194-1.107,0.425-1.638,0.736c-1.113,0.656-1.982,1.482-2.669,2.408
								c-1.216,0.129-2.399,0.488-3.559,1.174c-2.63,1.549-4.939,4.913-4.628,8.117c0.061,0.614,0.132,1.221,0.21,1.818
								c-1.285,2.977-1.497,6.288,0.162,9.916c2.579,5.643,10.106,6.343,15.268,4.743c5.365-1.661,10.132-5.52,10.795-11.333
								c0.807-0.973,1.411-2.153,1.704-3.541C394.072,240.202,394.114,238.139,393.829,235.689z"/>
						</g>
					</g>
				</g>
				<defs>
					<filter id="Adobe_OpacityMaskFilter" filterUnits="userSpaceOnUse" x="68.378" y="61.178" width="325.625" height="327.811">
						<feColorMatrix  type="matrix" values="1 0 0 0 0  0 1 0 0 0  0 0 1 0 0  0 0 0 1 0"/>
					</filter>
				</defs>
				<mask maskUnits="userSpaceOnUse" x="68.378" y="61.178" width="325.625" height="327.811" id="SVGID_1_">
					<g filter="url(#Adobe_OpacityMaskFilter)">
						<g>
							<path fill="#FFFFFF" d="M172.071,96.432c1.367-1.632,2.188-3.691,2.043-5.881c-0.443-6.726-2.6-12.313-9.418-14.551
								c-2.628-0.862-5.139-0.448-7.38,0.682c-1.184,0.123-2.337,0.336-3.46,0.635c-0.842-0.556-1.774-1.06-2.818-1.493
								c-2.461-1.022-5.102-0.968-7.641-0.225c-13.148-2.907-23.692,10.065-27.573,22.899c-3.687,12.201-4.397,35.624,12.109,38.847
								c9.944,1.942,18.559-4.664,25.344-11.167c6.835-6.55,13.338-14.608,16.886-23.569
								C171.128,100.684,171.782,98.612,172.071,96.432z"/>
							<path fill="#FFFFFF" d="M112.783,204.715c-0.033-3.867-2.711-7.648-6.168-9.213c-1.93-3.205-5.505-5.474-10.128-4.605
								c-18.907,3.557-25.923,28.923-23.432,45.591c3.024,20.238,23.931,33.572,43.708,28.215
								C143.885,257.352,133.492,216.808,112.783,204.715z"/>
							<path fill="#FFFFFF" d="M204.327,166.29c-1.56-7.783-6.419-12.248-12.198-13.546c-0.79-2.568-2.805-4.706-6.337-5.436
								c-13.799-2.849-26.356,10.603-31.175,22.177c-4.609,11.067,6.803,25.098,12.873,33.452
								c3.54,4.875,7.537,10.123,13.282,12.361c7.103,2.77,13.339-2.104,16.577-8.12C203.367,195.995,206.836,178.8,204.327,166.29z
								"/>
							<path fill="#FFFFFF" d="M297.123,83.749c-0.582-1.958-1.925-3.762-4.227-5.071c-4.605-2.618-9.245-3.704-14.504-3.968
								c-4.688-0.237-9.876,4.472-9.343,9.401c0.297,2.733,0.725,5.212,1.602,7.82c0.037,0.109,0.063,0.193,0.098,0.297
								c-3.443,0.139-7.362-0.675-10.642-0.174c-10.871,1.658-15.854,12.662-12.995,22.704c2.616,9.194,11.503,16.486,19.742,20.442
								c9.39,4.512,19.464,3.625,27.977-2.526c9.01-6.508,14.443-17.017,14.534-28.168
								C309.431,96.083,304.792,87.091,297.123,83.749z"/>
							<path fill="#FFFFFF" d="M213.426,55.806c-7.954-0.023-17.471,6.907-18.51,15.357c-3.218,6.256-3.843,13.223,1.43,19.529
								c5.136,6.144,15.092,6.608,22.216,4.836c8.35-2.074,15.812-9.238,15.332-18.399
								C233.346,66.559,224.362,55.838,213.426,55.806z"/>
							<path fill="#FFFFFF" d="M290.605,185.835c-4.26-5.063-12.337-9.01-19.947-9.414c-1.048-4.765-5.298-8.932-11.375-7.404
								c-18.058,4.544-21.861,23.431-17.157,39.359c3.868,13.104,15.589,31.158,31.404,29.285
								c9.354-1.104,15.696-7.699,19.734-15.909C299.174,209.73,299.463,196.36,290.605,185.835z"/>
							<path fill="#FFFFFF" d="M190.169,299.997c3.061-8.604,4.679-21.567-6.282-25.148c-0.248-0.081-0.494-0.129-0.741-0.193
								c-1.084-1.574-2.787-2.818-5.214-3.397c-14.942-3.571-26.428,7.096-34.697,18.281c-7.34,9.928-15.1,25.531-9.054,37.776
								c6.671,13.51,25.673,12.188,37.256,6.957c5.505-2.49,8.189-8.4,10.288-13.651c1.446-3.623,3.009-7.198,4.534-10.792
								c0.408-0.829,0.766-1.674,1.053-2.531C188.316,304.885,189.291,302.46,190.169,299.997z M150.673,317.226
								c0.485,0.658,1.026,1.274,1.618,1.852c0,0-0.008,0-0.013,0C150.393,319.012,150.496,318.714,150.673,317.226z"/>
							<path fill="#FFFFFF" d="M295.794,329.615c-2.271-11.303-7.621-23.542-15.889-31.683c-1.653-1.626-3.464-2.908-5.353-3.896
								c-0.397-3.791-2.882-7.662-6.755-8.229c-18.588-2.73-33.85,12.237-35.6,30.45c-1.247,13.003,12.947,25.279,21.704,33.089
								c7.662,6.833,19.707,16.002,30.626,11.699C296.924,356.159,298.087,341.031,295.794,329.615z"/>
							<path fill="#FFFFFF" d="M316.711,304.136c5.065,12.237,15.359,16.172,25.894,14.296c7.494,3.772,16.122,4.712,22.143-2.991
								c6.689-8.559,3.757-17.448-0.443-26.171c-3.594-7.467-8.122-18.333-15.733-22.575c-7.26-4.045-15.515-4.178-22.782-0.325
								C313.332,272.978,311.905,292.521,316.711,304.136z"/>
							<path fill="#FFFFFF" d="M318.214,187.328c1.283,8.935,5.548,17.793,13.074,20.76c1.634,3.361,4.978,5.939,9.646,5.518
								c12.494-1.136,24.491-15.112,27.396-26.702c1.766-7.054,0.373-11.896-6.416-16.944c0.142-0.052,2.99-2.235,3.133-2.287
								c11.857-4.452,17.722-16.718,12.479-28.963c-4.584-10.703-18.406-15.309-29.077-14.944
								c-15.293,0.527-26.694,9.43-32.307,23.714C311.396,159.564,316.431,174.934,318.214,187.328z"/>
							<path fill="#FFFFFF" d="M232.214,362.849c-0.786-11.729-10.06-19.192-20.555-20.618c-7.033-2.729-13.711-2.181-18.696,4.414
								c-3.792,5.016-5.051,12.544-4.888,18.669c0.168,6.354,3.403,12.415,9.692,14.395c2.055,0.645,4.281,0.786,6.424,0.694
								c0.803-0.034,1.609-0.118,2.412-0.184c0.5-0.042,0.964-0.019,1.344,0.018c1.432,1.247,3.146,2.427,4.98,2.926
								c3.711,1.008,6.977,0.271,10.296-1.537C229.938,377.967,232.699,370.129,232.214,362.849z"/>
							<path fill="#FFFFFF" d="M237.549,252.721c-1.798-1.813-3.588-3.633-5.316-5.516c-0.658-0.717-1.286-1.459-1.906-2.209
								c-0.027-0.036-0.053-0.071-0.083-0.115c-0.442-0.627-1.16-2.4-0.077,0.349c-1.872-4.762-6.18-8.038-11.493-6.566
								c-0.53,0.147-1.049,0.357-1.555,0.613c-3.389-0.136-6.879,1.448-8.476,4.603c-4.163,8.218-3.142,17.059,4.547,22.65
								c5.531,4.021,14.042,4.493,20.238,1.905c3.119-1.305,5.578-3.102,6.524-6.567
								C240.837,258.632,239.906,255.093,237.549,252.721z"/>
							<path fill="#FFFFFF" d="M98.306,144.389c-2.45-1.74-5.482-2.739-8.326-3.709c-0.446-1.414-1.197-2.726-2.239-3.774
								c-3.732-3.754-9.445-3.439-13.214,0c-3.798,3.466-7.479,8.013-8.483,13.221c-1.224,6.34,0.92,11.951,6.109,15.752
								c8.991,6.589,21.612,0.506,28.042-6.724C104.451,154.373,103.38,147.993,98.306,144.389z"/>
							<path fill="#FFFFFF" d="M105.166,294.444c-3.249-2.188-7.658-2.467-11.335-1.479c-0.63,0.167-1.232,0.382-1.813,0.627
								c-2.976,0.232-5.821,1.852-7.382,4.596c-0.575,1.01-1.047,2.054-1.43,3.119c-0.115,0.154-0.237,0.307-0.35,0.461
								c-1.655,2.259-1.604,5.68-0.572,8.287c0.598,3.891,2.608,7.497,6.164,10.08c6.79,4.938,18.793,1.979,22.402-5.654
								C114.338,307.098,111.863,298.951,105.166,294.444z"/>
							<path fill="#FFFFFF" d="M391.159,230.317c-0.019-2.393-0.913-4.777-2.697-6.561c-1.413-1.411-2.565-1.887-4.375-2.645
								c-2.987-1.246-6.456-0.047-8.867,2.23c-0.559,0.193-1.106,0.424-1.637,0.737c-1.114,0.656-1.983,1.482-2.669,2.409
								c-1.217,0.128-2.399,0.487-3.561,1.171c-2.628,1.552-4.938,4.914-4.626,8.12c0.06,0.613,0.132,1.219,0.211,1.817
								c-1.286,2.978-1.497,6.287,0.16,9.916c2.58,5.642,10.106,6.343,15.267,4.743c5.367-1.661,10.133-5.521,10.796-11.332
								c0.808-0.975,1.412-2.154,1.704-3.543C391.404,234.829,391.445,232.767,391.159,230.317z"/>
						</g>
					</g>
				</mask>
				<g mask="url(#SVGID_1_)">
					<path fill="#FFF0B8" d="M174.739,101.804c1.367-1.631,2.188-3.691,2.045-5.882c-0.442-6.726-2.601-12.313-9.417-14.55
						c-2.63-0.863-5.139-0.449-7.382,0.682c-1.183,0.123-2.337,0.336-3.461,0.634c-0.841-0.556-1.773-1.059-2.817-1.493
						c-2.459-1.023-5.101-0.967-7.64-0.225c-13.148-2.906-23.693,10.065-27.573,22.9c-3.687,12.201-4.398,35.623,12.107,38.847
						c9.945,1.941,18.56-4.664,25.345-11.167c6.834-6.55,13.338-14.609,16.887-23.57
						C173.797,106.057,174.45,103.984,174.739,101.804z"/>
					<path fill="#FFF0B8" d="M115.453,210.087c-0.033-3.866-2.711-7.649-6.169-9.212c-1.93-3.206-5.505-5.474-10.128-4.606
						c-18.906,3.557-25.922,28.923-23.432,45.592c3.024,20.237,23.931,33.57,43.708,28.215
						C146.554,262.724,136.161,222.18,115.453,210.087z"/>
					<path fill="#FFF0B8" d="M206.996,171.663c-1.559-7.784-6.418-12.248-12.198-13.547c-0.79-2.567-2.805-4.706-6.337-5.435
						c-13.8-2.848-26.355,10.603-31.176,22.176c-4.609,11.067,6.805,25.099,12.875,33.454c3.538,4.874,7.537,10.124,13.28,12.36
						c7.104,2.771,13.339-2.103,16.577-8.118C206.037,201.368,209.505,184.173,206.996,171.663z"/>
					<path fill="#FFF0B8" d="M299.792,89.121c-0.582-1.957-1.925-3.761-4.228-5.07c-4.604-2.618-9.244-3.704-14.502-3.969
						c-4.688-0.236-9.877,4.473-9.344,9.402c0.297,2.733,0.725,5.212,1.602,7.819c0.038,0.111,0.063,0.195,0.098,0.297
						c-3.443,0.139-7.362-0.674-10.642-0.173c-10.872,1.658-15.853,12.662-12.995,22.704c2.617,9.194,11.504,16.487,19.742,20.442
						c9.392,4.512,19.464,3.625,27.977-2.526c9.011-6.508,14.444-17.017,14.535-28.168
						C312.102,101.456,307.462,92.463,299.792,89.121z"/>
					<path fill="#FFF0B8" d="M216.094,61.178c-7.954-0.023-17.471,6.908-18.509,15.356c-3.22,6.257-3.844,13.224,1.428,19.531
						c5.137,6.143,15.094,6.607,22.218,4.837c8.35-2.075,15.812-9.239,15.333-18.399C236.014,71.931,227.031,61.21,216.094,61.178z"
						/>
					<path fill="#FFF0B8" d="M293.274,191.208c-4.26-5.063-12.336-9.01-19.946-9.415c-1.049-4.764-5.297-8.933-11.377-7.402
						c-18.057,4.543-21.859,23.43-17.155,39.358c3.869,13.103,15.588,31.158,31.404,29.285c9.354-1.104,15.696-7.699,19.732-15.91
						C301.843,215.103,302.133,201.732,293.274,191.208z"/>
					<path fill="#FFF0B8" d="M192.838,305.369c3.061-8.604,4.679-21.567-6.281-25.148c-0.248-0.081-0.495-0.128-0.74-0.194
						c-1.084-1.573-2.787-2.816-5.213-3.396c-14.943-3.57-26.429,7.095-34.699,18.28c-7.338,9.93-15.1,25.532-9.053,37.777
						c6.671,13.51,25.672,12.188,37.255,6.957c5.506-2.489,8.189-8.399,10.288-13.651c1.446-3.623,3.011-7.198,4.536-10.792
						c0.406-0.829,0.764-1.673,1.051-2.531C190.984,310.257,191.961,307.833,192.838,305.369z M153.344,322.597
						c0.483,0.659,1.024,1.276,1.616,1.853h-0.012C153.061,324.385,153.165,324.085,153.344,322.597z"/>
					<path fill="#FFF0B8" d="M298.463,334.988c-2.271-11.304-7.621-23.544-15.889-31.684c-1.652-1.626-3.465-2.909-5.354-3.896
						c-0.396-3.79-2.88-7.662-6.754-8.229c-18.589-2.731-33.85,12.237-35.598,30.45c-1.249,13.003,12.945,25.279,21.703,33.089
						c7.662,6.833,19.707,16.001,30.625,11.699C299.593,361.532,300.757,346.404,298.463,334.988z"/>
					<path fill="#FFF0B8" d="M319.379,309.509c5.066,12.237,15.36,16.172,25.895,14.297c7.493,3.772,16.122,4.711,22.144-2.99
						c6.689-8.561,3.756-17.449-0.443-26.172c-3.595-7.469-8.122-18.333-15.735-22.575c-7.259-4.045-15.515-4.179-22.78-0.325
						C316.003,278.35,314.573,297.893,319.379,309.509z"/>
					<path fill="#FFF0B8" d="M320.883,192.701c1.283,8.935,5.548,17.792,13.073,20.759c1.636,3.36,4.979,5.939,9.646,5.517
						c12.495-1.135,24.494-15.112,27.396-26.701c1.767-7.054,0.575-13.693-4.825-18.627c0.144-0.053,0.287-0.103,0.43-0.158
						c11.858-4.449,18.836-17.164,13.591-29.409c-4.583-10.703-18.407-15.308-29.078-14.944
						c-15.292,0.527-26.694,9.43-32.304,23.714C314.065,164.936,319.101,180.306,320.883,192.701z"/>
					<path fill="#FFF0B8" d="M234.883,368.22c-0.784-11.729-10.06-19.19-20.554-20.618c-7.033-2.728-13.711-2.18-18.697,4.415
						c-3.792,5.016-5.051,12.544-4.888,18.67c0.169,6.353,3.403,12.415,9.694,14.393c2.054,0.646,4.28,0.787,6.423,0.695
						c0.805-0.033,1.61-0.117,2.413-0.184c0.499-0.042,0.963-0.019,1.344,0.02c1.432,1.245,3.146,2.425,4.978,2.924
						c3.712,1.007,6.978,0.271,10.297-1.537C232.608,383.338,235.369,375.5,234.883,368.22z"/>
					<path fill="#FFF0B8" d="M240.219,258.094c-1.799-1.813-3.588-3.633-5.317-5.518c-0.657-0.716-1.285-1.458-1.906-2.208
						c-0.027-0.037-0.051-0.071-0.083-0.115c-0.442-0.627-1.158-2.4-0.077,0.349c-1.872-4.761-6.179-8.038-11.492-6.565
						c-0.53,0.146-1.051,0.356-1.554,0.613c-3.391-0.136-6.881,1.449-8.478,4.602c-4.161,8.218-3.142,17.058,4.549,22.65
						c5.53,4.022,14.043,4.494,20.237,1.904c3.119-1.303,5.576-3.101,6.525-6.564C243.507,264.005,242.575,260.467,240.219,258.094z
						"/>
					<path fill="#FFF0B8" d="M100.975,149.761c-2.45-1.739-5.48-2.739-8.326-3.708c-0.446-1.415-1.196-2.726-2.239-3.775
						c-3.732-3.754-9.444-3.439-13.214,0c-3.797,3.468-7.478,8.014-8.483,13.221c-1.223,6.341,0.92,11.951,6.109,15.752
						c8.991,6.59,21.612,0.506,28.043-6.723C107.12,159.745,106.049,153.365,100.975,149.761z"/>
					<path fill="#FFF0B8" d="M107.836,299.816c-3.25-2.188-7.659-2.466-11.337-1.479c-0.629,0.168-1.232,0.383-1.813,0.627
						c-2.976,0.233-5.821,1.852-7.382,4.596c-0.575,1.01-1.046,2.054-1.429,3.119c-0.116,0.154-0.238,0.307-0.352,0.462
						c-1.655,2.259-1.604,5.679-0.572,8.286c0.6,3.891,2.61,7.496,6.165,10.081c6.789,4.937,18.792,1.978,22.402-5.656
						C117.008,312.47,114.531,304.323,107.836,299.816z"/>
					<path fill="#FFF0B8" d="M393.829,235.689c-0.02-2.393-0.914-4.776-2.698-6.561c-1.412-1.411-2.566-1.886-4.374-2.644
						c-2.988-1.246-6.457-0.048-8.867,2.229c-0.558,0.194-1.107,0.425-1.638,0.736c-1.113,0.656-1.982,1.482-2.669,2.408
						c-1.216,0.129-2.399,0.488-3.559,1.174c-2.63,1.549-4.939,4.913-4.628,8.117c0.061,0.614,0.132,1.221,0.21,1.818
						c-1.285,2.977-1.497,6.288,0.162,9.916c2.579,5.643,10.106,6.343,15.268,4.743c5.365-1.661,10.132-5.52,10.795-11.333
						c0.807-0.973,1.411-2.153,1.704-3.541C394.072,240.202,394.114,238.139,393.829,235.689z"/>
				</g>
			</g>
		</g>
	</g>
	<g>
		<g opacity="0.3">
			<path fill="#231F20" d="M154.648,326.708c2.537,10.408,10.53,19.121,21.561,21.998c11.033,2.878,22.221-0.829,29.465-8.686
				L154.648,326.708z"/>
			<path fill="#231F20" d="M186.415,334.994l-15.059,11.97c1.542,0.703,3.158,1.299,4.853,1.742
				c11.033,2.878,22.221-0.829,29.465-8.686L186.415,334.994z"/>
			<path fill="#231F20" d="M141.037,122.383c7.308,7.798,18.527,11.411,29.535,8.441c11.008-2.969,18.928-11.746,21.38-22.177
				L141.037,122.383z"/>
			<path fill="#231F20" d="M172.733,113.833l-7.236,17.885c1.688-0.154,3.384-0.438,5.076-0.895
				c11.008-2.969,18.928-11.746,21.38-22.177L172.733,113.833z"/>
			<path fill="#231F20" d="M205.452,194.367c7.308,7.799,18.527,11.411,29.536,8.442c11.008-2.969,18.927-11.746,21.379-22.176
				L205.452,194.367z"/>
			<path fill="#231F20" d="M237.149,185.819l-7.236,17.885c1.688-0.155,3.383-0.438,5.076-0.895
				c11.008-2.969,18.927-11.746,21.379-22.176L237.149,185.819z"/>
			<path fill="#231F20" d="M307.757,214.852c-1.003,10.669,3.699,21.539,13.179,27.905s21.256,6.568,30.665,1.546L307.757,214.852z"
				/>
			<path fill="#231F20" d="M335.051,233.186l-18.132,6.321c1.229,1.175,2.559,2.272,4.017,3.25
				c9.479,6.366,21.256,6.568,30.665,1.546L335.051,233.186z"/>
			<path fill="#231F20" d="M287.986,118.34c-2.751-10.354-10.918-18.895-22.007-21.545c-11.09-2.649-22.2,1.288-29.282,9.294
				L287.986,118.34z"/>
			<path fill="#231F20" d="M254.568,110.358l33.418,7.982c-2.699-10.16-10.622-18.564-21.4-21.376L254.568,110.358z"/>
			<path fill="#231F20" d="M312.517,343.187c-2.751-10.354-10.919-18.897-22.008-21.547c-11.088-2.647-22.199,1.287-29.283,9.294
				L312.517,343.187z"/>
			<path fill="#231F20" d="M279.099,335.204l33.418,7.983c-2.7-10.162-10.623-18.564-21.4-21.376L279.099,335.204z"/>
			<path fill="#231F20" d="M148.652,221.906c-9.111-5.55-20.883-6.015-30.702-0.193c-9.82,5.821-15.124,16.405-14.719,27.116
				L148.652,221.906z"/>
			<path fill="#231F20" d="M119.057,239.448l29.595-17.542c-8.941-5.445-20.441-5.98-30.149-0.495L119.057,239.448z"/>
		</g>
		<g>
			<g>
				<g>
					<path fill="#88A442" d="M151.97,321.352c2.537,10.408,10.53,19.121,21.561,21.998c11.033,2.878,22.221-0.829,29.465-8.686
						L151.97,321.352z"/>
					<path fill="#6A7D35" d="M183.737,329.638l-15.059,11.97c1.542,0.703,3.158,1.299,4.853,1.742
						c11.033,2.878,22.221-0.829,29.465-8.686L183.737,329.638z"/>
				</g>
				<g>
					<path fill="#88A442" d="M138.36,117.027c7.308,7.798,18.527,11.411,29.535,8.441c11.008-2.969,18.928-11.746,21.38-22.177
						L138.36,117.027z"/>
					<path fill="#6A7D35" d="M170.055,108.478l-7.236,17.885c1.688-0.154,3.384-0.438,5.076-0.895
						c11.008-2.969,18.928-11.746,21.38-22.177L170.055,108.478z"/>
				</g>
				<g>
					<path fill="#88A442" d="M202.775,189.012c7.308,7.799,18.527,11.411,29.536,8.442c11.008-2.969,18.927-11.746,21.379-22.176
						L202.775,189.012z"/>
					<path fill="#6A7D35" d="M234.471,180.463l-7.236,17.885c1.688-0.155,3.383-0.438,5.076-0.895
						c11.008-2.969,18.927-11.746,21.379-22.176L234.471,180.463z"/>
				</g>
				<g>
					<path fill="#88A442" d="M305.079,209.497c-1.003,10.669,3.699,21.539,13.179,27.905s21.256,6.568,30.665,1.546L305.079,209.497
						z"/>
					<path fill="#6A7D35" d="M332.373,227.831l-18.132,6.321c1.229,1.175,2.559,2.272,4.017,3.25
						c9.479,6.366,21.256,6.568,30.665,1.546L332.373,227.831z"/>
				</g>
				<g>
					<path fill="#88A442" d="M285.308,112.985c-2.751-10.354-10.918-18.895-22.007-21.545c-11.09-2.649-22.2,1.288-29.282,9.294
						L285.308,112.985z"/>
					<path fill="#6A7D35" d="M251.89,105.002l33.418,7.982c-2.699-10.16-10.622-18.564-21.4-21.376L251.89,105.002z"/>
				</g>
				<g>
					<path fill="#88A442" d="M309.839,337.832c-2.751-10.354-10.919-18.897-22.008-21.547c-11.088-2.647-22.199,1.287-29.283,9.294
						L309.839,337.832z"/>
					<path fill="#6A7D35" d="M276.421,329.848l33.418,7.983c-2.7-10.162-10.623-18.564-21.4-21.376L276.421,329.848z"/>
				</g>
				<g>
					<path fill="#88A442" d="M145.974,216.55c-9.111-5.55-20.883-6.015-30.702-0.193c-9.82,5.821-15.124,16.405-14.719,27.116
						L145.974,216.55z"/>
					<path fill="#6A7D35" d="M116.38,234.093l29.595-17.542c-8.941-5.445-20.441-5.98-30.149-0.495L116.38,234.093z"/>
				</g>
			</g>
		</g>
	</g>
</g>
</svg>
