<?xml version="1.0" encoding="utf-8"?>
<!-- Generator: Adobe Illustrator 16.0.0, SVG Export Plug-In . SVG Version: 6.00 Build 0)  -->
<!DOCTYPE svg PUBLIC "-//W3C//DTD SVG 1.1//EN" "http://www.w3.org/Graphics/SVG/1.1/DTD/svg11.dtd">
<svg version="1.1" id="Ebene_1" xmlns="http://www.w3.org/2000/svg" xmlns:xlink="http://www.w3.org/1999/xlink" x="0px" y="0px"
	 width="450px" height="450px" viewBox="0 0 450 450" enable-background="new 0 0 450 450" xml:space="preserve">
<g>
	<path opacity="0.3" d="M302.459,64.188c12.049,12.52,40.998-2.71,54.482-2.383c1.225,8.28-4.98,15.805-4.908,23.301
		c0.053,5.403-0.227,3.455,4.14,7.32c2.226,1.97,6.595,6.111,9.075,7.569c6.061,3.564,14.732,3.26,19.371,10
		c4.461,6.48,1.713,15.315,6.637,22.001c10.133,13.761,24.545,12.877,21.314,33.422c-1.414,9.003-1.395,12.849,4.406,20.915
		c5.191,7.219,11.623,14.137,14.092,22.771c4.57,15.977-3.572,27.189-9.469,40.811c-4.506,10.405-3.353,28.439-8.869,38.54
		c-6.754,12.363-19.823,38.122-28.787,48.998c-21.343,25.9-43.448,43.067-67.371,55.604c-28.555,14.966-64.458,23.965-83.122,23.002
		c-12.534-0.646-23.179-6.292-34.056-12.208"/>
	<g>
		<g>
			<g>
				<defs>
					<polygon id="SVGID_1_" points="221.014,273.814 268.418,273.814 259.893,348.481 230.327,348.481 					"/>
				</defs>
				<clipPath id="SVGID_2_">
					<use xlink:href="#SVGID_1_"  overflow="visible"/>
				</clipPath>
			</g>
		</g>
		<g>
			<polygon fill="#A39791" points="15.278,240.836 36.709,193.646 70.003,229.87 			"/>
			<polygon fill="#8D807D" points="403.364,243.879 376.566,193.646 369.256,246.924 			"/>
			<g>
				<path fill="#87A342" d="M167.434,68.782c1.88-7.517-2.938-16.809-12.182-19.118c-6.391-1.596-12.922,1.146-18.546,3.902
					c-2.602,1.275-4.973,2.689-7.008,4.803c-0.818,0.849-1.536,1.909-2.185,2.95c-0.235-0.092-0.501-0.201-0.834-0.344
					c-6.939-2.981-14.907-2.283-21.064,2.341c-5.356,4.024-6.749,9.44-8.802,15.46c-0.846,2.477-10.683,0.529-13.229,1.032
					c-8.536,1.684-13.938,8.692-16.16,16.738c-0.764,2.758-0.291,5.962-1.491,8.182c-0.753,1.395-4.584,1.741-2.21,1.765
					c-2.416-0.023-4.385-0.231-6.832,0.383c-5.002,1.257-8.839,6.679-10.139,11.408c-0.723,2.628-0.341,5.163,0.076,7.784
					c0.388,1.219,0.854,2.407,1.4,3.566c0.191,0.432,0.309,0.738,0.398,0.993c-0.747,2.93-2.636,4.544-4.904,6.592
					c-3.915,3.539-6.479,7.724-8.29,12.647c-2.05,5.57-0.399,11.978,1.569,17.279c1.25,3.377,5.332,11.515,3.559,14.781
					c-4.999,9.221,7.064,17.522,13.634,11.74c2.976,0.04,6.032-1.367,8.08-4.31c7.228-10.376,7.941-23.165,12.766-34.537
					c5.415-12.771,16.637-23.669,26.561-33.011c9.722-9.151,19.646-16.293,31.615-22.293c11.12-5.574,22.731-10.09,33.805-15.769
					C173.836,80.253,172.255,72.337,167.434,68.782z"/>
				<g>
					<path fill="#6A7D35" d="M167.434,68.782c1.88-7.517-2.938-16.809-12.182-19.118c-6.391-1.596-12.922,1.146-18.546,3.902
						c-2.602,1.275-4.973,2.689-7.008,4.803c-0.818,0.849-1.536,1.909-2.185,2.95c-0.235-0.092-0.501-0.201-0.834-0.344
						c-6.939-2.981-14.907-2.283-21.064,2.341c-5.356,4.024-6.749,9.44-8.802,15.46c-0.846,2.477-10.683,0.529-13.229,1.032
						c-3.15,0.619-5.868,1.969-8.161,3.824c8.104,13.242,16.629,26.233,24.918,39.367c0.42-0.397,0.843-0.798,1.26-1.189
						c9.722-9.151,19.646-16.293,31.615-22.293c11.12-5.574,22.731-10.09,33.805-15.769
						C173.836,80.253,172.255,72.337,167.434,68.782z"/>
				</g>
			</g>
			<g>
				<path fill="#A2632B" d="M357.557,119.196c-0.949-23.208-14.774-44.995-37.466-54.981c-22.696-9.993-48.1-5.474-65.854,9.505
					L357.557,119.196z"/>
				<path fill="#804C24" d="M324.552,104.671l33.005,14.525c-0.949-23.208-14.774-44.995-37.466-54.981
					c-2.018-0.892-4.052-1.657-6.103-2.314C317.163,74.875,321.954,94.386,324.552,104.671z"/>
				<g opacity="0.5">
					<path fill="#CA7E49" d="M354.65,102.721l-86.305-37.983c-1.796,0.83-3.555,1.746-5.269,2.744l93.104,40.983
						C355.765,106.525,355.252,104.612,354.65,102.721z"/>
					<path fill="#CA7E49" d="M289.991,59.069c-2.905,0.227-5.785,0.649-8.614,1.273l67.711,29.804
						c-1.451-2.508-3.079-4.914-4.876-7.212L289.991,59.069z"/>
				</g>
			</g>
			<g>
				<path fill="#A2632B" d="M19.419,128.734c17.182,15.628,42.402,21.094,65.448,11.96c23.056-9.133,37.685-30.389,39.496-53.546
					L19.419,128.734z"/>
				<path fill="#804C24" d="M52.942,115.448l-33.522,13.286c17.182,15.628,42.402,21.094,65.448,11.96
					c2.052-0.812,4.027-1.722,5.938-2.719C79.336,131.124,62.087,120.823,52.942,115.448z"/>
				<g opacity="0.5">
					<path fill="#CA7E49" d="M33.185,138.236l87.66-34.736c0.669-1.862,1.256-3.756,1.748-5.678l-94.572,37.472
						C29.694,136.36,31.42,137.336,33.185,138.236z"/>
					<path fill="#CA7E49" d="M109.673,122.886c1.885-2.229,3.604-4.573,5.145-7.027l-68.774,27.254
						c2.803,0.729,5.659,1.26,8.557,1.596L109.673,122.886z"/>
				</g>
			</g>
			<g>
				<path fill="#A2632B" d="M203.295,83.794c-4.485-22.913-21.552-42.446-45.624-48.901c-24.073-6.458-48.623,1.913-63.973,19.505
					L203.295,83.794z"/>
				<path fill="#804C24" d="M140.171,66.866l25.823-29.109c-2.67-1.13-5.447-2.095-8.323-2.864
					c-24.073-6.458-48.623,1.913-63.973,19.505L140.171,66.866z"/>
				<g opacity="0.5">
					<path fill="#CA7E49" d="M197.84,67.873l-91.544-24.554c-1.654,1.101-3.266,2.275-4.815,3.532l98.762,26.489
						C199.531,71.476,198.723,69.655,197.84,67.873z"/>
					<path fill="#CA7E49" d="M126.934,34.379c-2.854,0.667-5.647,1.531-8.364,2.581l71.824,19.269c-1.824-2.27-3.81-4.42-5.944-6.42
						L126.934,34.379z"/>
				</g>
			</g>
			<g>
				<path fill="#A2632B" d="M249.093,68.572c-5.527-17.889-20.796-32.008-40.537-35.104c-19.742-3.1-38.602,5.665-49.343,21
					L249.093,68.572z"/>
				<path fill="#804C24" d="M197.324,60.448l18.109-25.405c-2.223-0.672-4.516-1.205-6.878-1.575
					c-19.742-3.1-38.602,5.665-49.343,21L197.324,60.448z"/>
				<g opacity="0.5">
					<path fill="#CA7E49" d="M243.388,56.342L168.314,44.56c-1.227,1.019-2.411,2.093-3.538,3.226l80.996,12.712
						C245.044,59.072,244.247,57.688,243.388,56.342z"/>
					<path fill="#CA7E49" d="M184.006,35.676c-2.219,0.775-4.37,1.701-6.448,2.771l58.906,9.244
						c-1.649-1.652-3.417-3.195-5.29-4.613L184.006,35.676z"/>
				</g>
			</g>
			<g>
				<path fill="#A2632B" d="M215.578,48.066c10.284,15.646,28.876,24.959,48.7,22.441c19.826-2.514,35.501-16.18,41.556-33.898
					L215.578,48.066z"/>
				<path fill="#804C24" d="M267.562,41.467l-10.327,29.44c2.322,0.028,4.676-0.099,7.044-0.399
					c19.826-2.514,35.501-16.18,41.556-33.898L267.562,41.467z"/>
				<g opacity="0.5">
					<path fill="#CA7E49" d="M224.46,58.226l75.388-9.569c0.895-1.32,1.732-2.679,2.498-4.082l-81.332,10.324
						C222.107,56.065,223.259,57.173,224.46,58.226z"/>
					<path fill="#CA7E49" d="M287.247,61.558c1.913-1.362,3.726-2.852,5.421-4.456l-59.152,7.506
						c2.045,1.13,4.172,2.119,6.361,2.962L287.247,61.558z"/>
				</g>
			</g>
			<g>
				<path fill="#87A342" d="M370.66,181.979c7.691,0.949,16.326-4.962,17.492-14.418c0.807-6.54-2.711-12.688-6.127-17.936
					c-1.586-2.428-3.278-4.606-5.624-6.37c-0.941-0.708-2.083-1.292-3.195-1.807c0.066-0.248,0.142-0.525,0.241-0.873
					c2.115-7.251,0.45-15.075-4.887-20.624c-4.643-4.823-10.193-5.548-16.419-6.853c-2.563-0.536-1.824-10.537-2.633-13.007
					c-2.709-8.265-10.325-12.772-18.585-14.001c-2.827-0.42-5.951,0.439-8.299-0.482c-1.479-0.579-2.286-4.338-2.021-1.979
					c-0.272-2.4-0.307-4.38-1.211-6.734c-1.858-4.813-7.707-7.958-12.557-8.674c-2.7-0.398-5.168,0.289-7.719,1.022
					c-1.163,0.534-2.286,1.14-3.367,1.823c-0.408,0.244-0.698,0.397-0.939,0.517c-12.983,12.507-12.627,16.936-14.936,14.934
					c-3.987-3.456-9.835-6.231-14.945-7.426c-5.776-1.358-5.852-7.053-10.873-4.454c-3.201,1.655-7.689-3.454-11.148-4.814
					c-9.759-3.84-16.531,9.146-9.99,14.963c0.323,2.959,2.091,5.822,5.263,7.494c11.176,5.911,23.956,5.064,35.832,8.466
					c13.335,3.82,25.518,13.632,36,22.345c10.266,8.534,18.563,17.516,25.974,28.665c6.891,10.358,12.783,21.334,19.77,31.632
					C360.058,189.73,367.72,187.197,370.66,181.979z"/>
				<path fill="#6A7D35" d="M382.026,149.626c-1.586-2.428-3.278-4.606-5.624-6.37c-0.941-0.708-2.083-1.292-3.195-1.807
					c0.066-0.248,0.142-0.525,0.241-0.873c2.115-7.251,0.45-15.075-4.887-20.624c-4.643-4.823-10.193-5.548-16.419-6.853
					c-2.563-0.536-1.824-10.537-2.633-13.007c-1.503-4.578-4.515-7.994-8.306-10.346c-0.174,21.973-1.131,43.932-2.722,65.851
					c5.854,9.203,11.146,18.756,17.274,27.791c4.302,6.342,11.964,3.809,14.904-1.409c7.691,0.949,16.326-4.962,17.492-14.418
					C388.959,161.021,385.442,154.874,382.026,149.626z"/>
			</g>
			<g>
				<path fill="#CF4B27" d="M302.531,155.573c-22.611,27.253-63.029,31.018-90.281,8.406c-27.255-22.609-31.017-63.029-8.406-90.283
					c22.606-27.255,63.026-31.016,90.283-8.404C321.377,87.9,325.141,128.321,302.531,155.573z"/>
				<path fill="#AE3B25" d="M294.127,65.292c-6.973-5.784-14.805-9.83-22.98-12.211l-79.179,80.584
					c3.557,11.469,10.349,22.075,20.282,30.314c27.252,22.611,67.67,18.847,90.281-8.406
					C325.141,128.321,321.377,87.9,294.127,65.292z"/>
				<path fill="#9A3123" d="M301.605,161.461c-21.88,26.369-60.989,30.011-87.358,8.134c-26.369-21.879-30.013-60.99-8.135-87.361
					c21.878-26.367,60.989-30.011,87.362-8.13C319.843,95.979,323.482,135.089,301.605,161.461z"/>
			</g>
			<g>
				<path fill="#CCCC79" d="M192.911,48.705c-41.325-5.759-78.868,15.801-86.74,48.757c0.072-1.741,0.228-3.49,0.474-5.243
					c4.994-35.841,44.264-59.983,87.715-53.928c43.453,6.055,74.629,40.01,69.636,75.852c-0.243,1.752-0.572,3.475-0.976,5.17
					C264.454,85.462,234.237,54.464,192.911,48.705z"/>
				<path fill="#E5ECB4" d="M176.17,37.488c2.067,1.754,4.14,3.502,6.225,5.239c2.217,1.847,4.444,3.686,6.674,5.521
					c-39.79-3.949-75.272,17.28-82.897,49.214c0.072-1.741,0.228-3.49,0.474-5.243C110.926,61.475,140.437,39.34,176.17,37.488z"/>
				<path fill="#D9DEA2" d="M192.525,51.47c-51.083-7.117-79.854,22.864-87.722,55.818c0.074-1.739,0.228-3.488,0.472-5.24
					c4.994-35.84,44.266-59.983,87.717-53.93s74.627,40.012,69.636,75.851c-0.244,1.753-0.575,3.477-0.978,5.171
					C263.087,95.289,240.953,58.219,192.525,51.47z"/>
			</g>
			<g>
				<circle fill="#CF4B27" cx="138.81" cy="114.579" r="64.114"/>
				<path fill="#AE3B25" d="M76.219,100.684c1.962-8.842,5.67-16.842,10.669-23.732l111.957,15.139
					c4.22,11.239,5.354,23.786,2.558,36.384c-7.674,34.567-41.92,56.37-76.486,48.695C90.346,169.497,68.544,135.253,76.219,100.684
					z"/>
				<path fill="#9A3123" d="M129.254,181.254c33.451,7.425,66.584-13.669,74.011-47.118c7.426-33.45-13.671-66.584-47.119-74.014
					C122.695,52.7,89.56,73.795,82.132,107.244C74.71,140.696,95.804,173.828,129.254,181.254z"/>
			</g>
			<g>
				<path fill="#CCCC79" d="M316.299,81.364c-24.447-18.096-56.789-16.315-74.325,3.395c0.707-1.159,1.466-2.294,2.287-3.402
					c16.772-22.661,51.206-25.602,76.909-6.577c25.707,19.025,32.948,52.818,16.175,75.476c-0.818,1.108-1.683,2.167-2.585,3.183
					C348.489,130.91,340.743,99.461,316.299,81.364z"/>
				<path fill="#E5ECB4" d="M309.752,67.991c0.668,1.905,1.346,3.806,2.033,5.701c0.728,2.015,1.465,4.03,2.211,6.041
					c-24.144-16.34-55.032-14.075-72.022,5.025c0.707-1.159,1.466-2.294,2.287-3.402C258.65,61.918,286.031,56.988,309.752,67.991z"
					/>
				<path fill="#D9DEA2" d="M315.002,83.113c-30.22-22.368-60.094-11.851-77.625,7.855c0.707-1.152,1.466-2.29,2.286-3.397
					c16.77-22.659,51.2-25.603,76.901-6.576c25.712,19.023,32.953,52.813,16.182,75.476c-0.82,1.107-1.688,2.165-2.584,3.182
					C343.891,137.124,343.654,104.319,315.002,83.113z"/>
			</g>
			<g>
				<path fill="#F2BB6D" d="M382.02,208.105c0,29.26-13.161,56.828-28.86,80.114c-15.465,22.94-39.11,38.918-65.213,51.901
					c-24.314,12.095-50.86,23.434-80.579,23.434c-29.717,0-56.183-11.497-80.497-23.595c-26.104-12.985-52.665-26.888-68.131-49.828
					c-15.696-23.285-23.32-52.767-23.32-82.026c0-29.259,11.74-55.964,27.439-79.248c15.466-22.941,34.692-46.092,60.795-59.075
					c24.312-12.096,53.997-11.742,83.714-11.742c29.719,0,55.865,6.756,80.181,18.852c26.104,12.985,46.646,30.521,62.112,53.462
					C365.36,153.637,382.02,178.846,382.02,208.105z"/>
				<path fill="#DD9B4D" d="M324.83,101.877L100.607,326.1c8.509,4.934,17.409,9.454,26.264,13.859
					c24.314,12.098,50.78,23.595,80.497,23.595c29.719,0,56.265-11.339,80.579-23.434c26.103-12.983,49.748-28.961,65.213-51.901
					c15.699-23.286,28.86-50.854,28.86-80.114c0-29.259-16.66-54.468-32.359-77.752C342.495,119.724,334.225,110.27,324.83,101.877z
					"/>
				<g>
					<path fill="#DD9B4D" d="M133.929,255.193c0,14.316-11.604,25.921-25.92,25.921c-14.313,0-25.921-11.604-25.921-25.921
						c0-14.313,11.607-25.918,25.921-25.918C122.324,229.275,133.929,240.881,133.929,255.193z"/>
					<path fill="#DD9B4D" d="M139.545,104.859c0,5.965-4.833,10.801-10.801,10.801c-5.965,0-10.799-4.836-10.799-10.801
						c0-5.964,4.834-10.799,10.799-10.799C134.712,94.06,139.545,98.895,139.545,104.859z"/>
					<path fill="#DD9B4D" d="M261.627,121.845c0,8.758-7.097,15.857-15.858,15.857c-8.753,0-15.851-7.1-15.851-15.857
						c0-8.753,7.098-15.854,15.851-15.854C254.531,105.992,261.627,113.093,261.627,121.845z"/>
					<path fill="#DD9B4D" d="M108.009,178.729c0,9.545-7.735,17.282-17.28,17.282c-9.544,0-17.281-7.737-17.281-17.282
						c0-9.54,7.737-17.277,17.281-17.277C100.274,161.452,108.009,169.189,108.009,178.729z"/>
					<circle fill="#DD9B4D" cx="177.556" cy="138.443" r="22.032"/>
					<circle fill="#BF8241" cx="188.154" cy="309.623" r="21.168"/>
					<circle fill="#BF8241" cx="332.216" cy="242.234" r="14.688"/>
					<circle fill="#BF8241" cx="311.481" cy="167.066" r="14.688"/>
					<path fill="#BF8241" d="M290.36,255.192c0,14.274-11.569,25.843-25.838,25.843c-14.27,0-25.841-11.568-25.841-25.843
						c0-14.27,11.571-25.839,25.841-25.839C278.79,229.353,290.36,240.923,290.36,255.192z"/>
					<circle fill="#DD9B4D" cx="182.16" cy="81.494" r="4.602"/>
					<circle fill="#DD9B4D" cx="85.579" cy="128.15" r="5.15"/>
					<circle fill="#DD9B4D" cx="127.104" cy="155.121" r="2.741"/>
					<circle fill="#DD9B4D" cx="287.656" cy="98.581" r="6.278"/>
					<circle fill="#BF8241" cx="331.475" cy="132.93" r="5.307"/>
					<circle fill="#BF8241" cx="355.31" cy="179.177" r="6.222"/>
					<path fill="#DD9B4D" d="M60.242,193.801c0,3.678-2.982,6.658-6.658,6.658c-3.682,0-6.661-2.98-6.661-6.658
						s2.979-6.66,6.661-6.66C57.26,187.14,60.242,190.123,60.242,193.801z"/>
				</g>
			</g>
			<path fill="#F1EDE8" d="M380.22,224.388c-24.773-17.791-46.079-30.61-70.677-48.724c-29.006-21.364-63.345-39.272-92.889-59.806
				c-41.236,27.035-83.691,52.025-126.009,77.166c-24.891,14.785-48.847,30.854-73.252,46.468c-0.701,0.448-1.412,0.894-2.116,1.343
				c5.925,31.09,21.956,48.12,33.952,66.118c27.363,41.055,69.8,65.173,85.602,76.881c15.802,11.707,78.521,37.998,78.521,37.998
				c34.276-10.604,87.639-40.029,109.267-58.324c44.456-37.601,70.53-87.485,80.745-119.63
				C403.364,243.879,387.172,231.141,380.22,224.388z"/>
			<path fill="#E4E0DB" d="M380.22,224.388c-24.314-17.46-45.297-30.146-69.322-47.736L116.42,371.13
				c7.593,5.252,14.027,9.458,18.411,12.705c15.802,11.707,78.521,37.998,78.521,37.998c34.276-10.604,87.639-40.029,109.267-58.324
				c44.456-37.601,70.53-87.485,80.745-119.63C403.364,243.879,387.172,231.141,380.22,224.388z"/>
			
				<path fill="#E98471" stroke="#E98471" stroke-width="8" stroke-linecap="round" stroke-linejoin="round" stroke-miterlimit="10" d="
				M125.15,269.527c12.243-35.06,44.999-60.755,84.346-62.134c42.075-1.475,78.581,25.316,91.248,63.328l35.423-8.996
				c-17.355-53.771-68.727-91.792-127.992-89.713c-54.758,1.92-100.396,37.519-117.705,86.189L125.15,269.527z"/>
			<path fill="#D57767" d="M290.049,197.501l-25.602,25.601c16.791,11.299,29.741,27.95,36.296,47.62l35.423-8.996
				C327.769,235.712,311.411,213.385,290.049,197.501z"/>
			<polygon fill="#D57767" points="221.014,273.814 268.418,273.814 259.893,348.481 230.327,348.481 			"/>
			
				<line fill="none" stroke="#D57767" stroke-width="6" stroke-linecap="round" stroke-miterlimit="10" x1="164.986" y1="360.007" x2="269.752" y2="360.007"/>
			
				<line fill="none" stroke="#D57767" stroke-width="6" stroke-linecap="round" stroke-miterlimit="10" x1="245.772" y1="268.846" x2="245.772" y2="246.924"/>
			<path fill="none" stroke="#D57767" stroke-width="6" stroke-linecap="round" stroke-linejoin="round" stroke-miterlimit="10" d="
				M244.716,340.716c0,0-7.441-20.758-19.464-32.916c-10.235-10.353-37.099-8.402-37.099-8.402s23.475,1.3,26.342-7.973
				c2.31-7.469-1.465-13.992-1.465-13.992c0-15.527,0.287-34.199-3.709-39.069c-3.21-3.91-10.162-1.487-21.168,2.263
				c-24.485,8.341-14.794,19.834-12.149,24.588c2.646,4.754,4.31,8.352,6.709,12.219c-0.369,6.448,0.857,19.244,5.44,21.965
				c-28.491,7.871-18.15,42.551-15.735,47.084c0,0,11.627,4.29,19.294,2c7.665-2.29,15.288-8.582,15.288-8.582"/>
			
				<line fill="none" stroke="#D57767" stroke-width="6" stroke-linecap="round" stroke-linejoin="round" stroke-miterlimit="10" x1="182.713" y1="277.432" x2="213.031" y2="277.432"/>
			<path fill="none" stroke="#D57767" stroke-width="6" stroke-linecap="round" stroke-linejoin="round" stroke-miterlimit="10" d="
				M196.817,326.946c-5.549,1.707-9.443,14.972,4.14,14.972S208.734,323.279,196.817,326.946z"/>
			
				<line fill="none" stroke="#D57767" stroke-width="6" stroke-linecap="round" stroke-linejoin="round" stroke-miterlimit="10" x1="208.419" y1="332.973" x2="283.261" y2="300.697"/>
			<g>
				<defs>
					<polygon id="SVGID_3_" points="221.014,273.814 268.418,273.814 259.893,348.481 230.327,348.481 					"/>
				</defs>
				<clipPath id="SVGID_4_">
					<use xlink:href="#SVGID_3_"  overflow="visible"/>
				</clipPath>
				
					<line clip-path="url(#SVGID_4_)" fill="none" stroke="#E4E0DB" stroke-width="6" stroke-miterlimit="10" x1="208.419" y1="332.973" x2="283.261" y2="300.697"/>
			</g>
			
				<line fill="none" stroke="#D57767" stroke-width="6" stroke-linecap="round" stroke-linejoin="round" stroke-miterlimit="10" x1="178.252" y1="268.846" x2="213.031" y2="261.581"/>
			<path fill="none" stroke="#D57767" stroke-width="6" stroke-linecap="round" stroke-linejoin="round" stroke-miterlimit="10" d="
				M197.871,326.469c0,0-4.227-2.692-11.005-1.39s-8.614,9.114-8.614,9.114"/>
		</g>
		<g>
			<g>
				<defs>
					<polygon id="SVGID_5_" points="221.014,273.814 268.418,273.814 259.893,348.481 230.327,348.481 					"/>
				</defs>
				<clipPath id="SVGID_6_">
					<use xlink:href="#SVGID_5_"  overflow="visible"/>
				</clipPath>
			</g>
		</g>
	</g>
</g>
</svg>
