<?xml version="1.0" encoding="utf-8"?>
<!-- Generator: Adobe Illustrator 16.0.0, SVG Export Plug-In . SVG Version: 6.00 Build 0)  -->
<!DOCTYPE svg PUBLIC "-//W3C//DTD SVG 1.1//EN" "http://www.w3.org/Graphics/SVG/1.1/DTD/svg11.dtd">
<svg version="1.1" id="Ebene_1" xmlns="http://www.w3.org/2000/svg" xmlns:xlink="http://www.w3.org/1999/xlink" x="0px" y="0px"
	 width="450px" height="450px" viewBox="0 0 450 450" enable-background="new 0 0 450 450" xml:space="preserve">
<g>
	<path opacity="0.2" d="M398.767,282.189l0.154-0.148l-0.671-0.607l42.594-53.644l-18.903-99.904L382.536,96.51l-88.598-3.238
		l-42.543,53.583l-39.428-52.388l-69.088-4.837l-19.45,17.341c-4.298-3.588-10.764-6.32-14.112-7.175
		c-9.644-2.457-19.677,3.759-26.988,10.261c-5.075,4.513-16.054,15.037-7.762,21.181c3.458,2.563,9.142-13.378,17.274-8.772
		c7.778,4.407-2.71,14.924-8.858,20.166l8.648-7.307l-23.673,21.106l-3.577,73.201l39.447,52.409l0.003-0.003l0.564,0.533
		L53.257,306.74l-4.604,73.849l45.26,53.027l106.174,11.909l51.129-24.174l0.153,0.148l0.071-0.06l56.476,24.419l97.92-17.309
		l37.579-42.338l2.168-81.893L398.767,282.189z M157.823,232.594l93.487-85.626l-0.011,0.015L157.823,232.594z"/>
	<g>
		<g>
			<path fill="#D2876A" d="M62.467,186.131c0,0,30.234,146.543,86.742,187.947c48.184,35.303,115.218,23.476,144.617-4.109
				c50.599-47.486,78.243-183.834,78.243-183.834L62.467,186.131z"/>
			<path fill="#AC664D" d="M198.529,289.627l16.482,28.765h2.259v77.554l0.014,0.002c30.766,0.339,59.774-10.25,76.541-25.979
				c50.599-47.486,78.243-183.834,78.243-183.834l-99.186-0.002l-0.378,0.082L198.529,289.627z"/>
			<path fill="#CDAF7C" d="M277.076,346.289c-0.012-2.971-0.025-5.955-0.039-8.93c-15.046,9.947-38.157,21.802-61.384,20.45
				c-22.356-1.305-44.588-11.872-59.644-20.774c0.428,6.75,0.936,13.492,1.435,20.24c13.194,8.193,32.627,16.539,57.68,17.226
				c27.39,0.748,48.357-9.22,61.787-18.454C277.016,352.772,277.09,349.51,277.076,346.289z"/>
			<path fill="#A98643" d="M277.076,346.289c-0.012-2.975-0.025-5.963-0.039-8.942c-14.721,9.726-37.15,21.269-59.876,20.502
				c0.11,5.557,0.176,11.109,0.202,16.666c26.286,0.161,46.488-9.511,59.548-18.48C277.016,352.763,277.09,349.507,277.076,346.289z
				"/>
		</g>
		<polygon fill="#E4E4E4" points="371.301,185.635 217.178,58.06 261.925,7.109 354.882,10.181 396.221,39.935 416.055,134.685 		
			"/>
		<polygon fill="#DCDBDA" points="63.127,186.61 217.178,318.225 163.458,341.178 52.063,329.885 4.576,279.595 9.412,209.558 		"/>
		<g>
			<polygon fill="#DCDBDA" points="217.308,57.945 62.464,186.135 21.078,136.429 24.832,67.007 103.438,3.654 175.921,8.241 			"/>
			<path fill="#DCDBDA" d="M40.594,53.92c6.451-4.971,17.456-14.945,9.294-19.124c-8.531-4.368-14.494,10.75-18.122,8.318
				c-8.701-5.826,2.819-15.809,8.145-20.086c7.67-6.165,18.193-12.061,28.313-9.733c3.754,0.869,11.275,3.753,15.732,7.507"/>
		</g>
		<g>
			<polygon fill="#E4E4E4" points="217.27,318.391 371.982,186.214 425.926,209.258 423.649,286.934 384.225,327.08 
				281.493,343.498 			"/>
			<polyline fill="none" stroke="#CBCAC9" stroke-width="3.013" stroke-linecap="round" stroke-miterlimit="10" points="
				347.207,293.851 351.611,297.615 380.863,267.65 376.457,263.89 			"/>
		</g>
		<polygon fill="#A4988D" points="217.27,318.391 62.467,186.131 217.27,57.981 372.069,186.135 		"/>
		<path fill="#DCDBDA" d="M372.069,186.135l43.986-51.45l-19.768-94.424c-35.869,17.873-85.854,42.831-125.146,62.462
			L372.069,186.135z"/>
		<polygon fill="#D2D1D0" points="217.178,318.225 148.518,259.568 5.385,267.884 4.576,279.595 52.063,329.885 163.458,341.178 		
			"/>
		<polygon fill="#7C6F67" points="216.017,317.323 216.017,59.016 62.467,186.131 		"/>
	</g>
	<g>
		<defs>
			<polygon id="SVGID_1_" points="217.27,318.391 62.467,186.131 217.27,57.981 372.069,186.135 			"/>
		</defs>
		<clipPath id="SVGID_2_">
			<use xlink:href="#SVGID_1_"  overflow="visible"/>
		</clipPath>
		<path clip-path="url(#SVGID_2_)" fill="#C0AC5B" d="M346.341,198.732c-5.322-2.384-10.442-4.994-15.352-8.154
			c-6.292-4.055-8.933-10.009-12.284-16.323c-3.896-7.348-10.388-10.016-17.689-10.673c0.473-4.026,0.912-8.08-0.953-11.742
			c-0.454-0.89-0.971-1.633-1.529-2.245c-1.168-1.89-2.823-3.244-4.722-4.091c-0.925-1.37-2.077-2.661-3.554-3.871
			c-2.05-1.683-5.08-2.599-7.619-1.737c-7.957-5.208-18.137-9.04-25.477-12.625c0.267-5.638-3.352-9.471-7.713-15.564
			c-1.397-1.948-2.997-3.466-4.689-4.505c-1.383-3.124-4.393-5.108-9.21-4.133c-2.11,0.427-4.06,0.963-5.925,1.59
			c-6.406-7.785-13.921-12.379-25.279-3.146c-7.227,5.877-9.351,12.102-18.321,15.751c-6.834,2.782-10.655,2.996-17.13-1.298
			c-2.966,2.807-6.871,5.805-9.748,9.281c-3.179,1.569-6.277,3.309-9.272,4.94c-1.958-0.138-3.944,0.41-5.409,1.855
			c-1.523,1.504-2.982,2.979-4.372,4.473c-10.28,4.012-18.935,13.919-20.094,24.779c-0.237,0.24-0.465,0.486-0.685,0.731
			c-9.464,1.715-16.872,4.48-24.914,12.293c-1.73,1.676-2.892,3.389-3.599,5.064c-3.996,2.53-6.068,7.46-6.335,12.515
			c-0.114,0.278-0.222,0.55-0.304,0.83c-0.144,0.511-0.252,1-0.335,1.483c-2.431,2.83-3.444,7.262-2.027,12.378
			c1.504,5.427,6.622,8.807,12.319,11.083c4.339,12.265,15.71,22.333,25.036,30.442c12.947,11.251,27.219,21.203,41.834,30.167
			c0.271,0.165,0.543,0.269,0.818,0.387c2.614,2.276,5.371,4.389,8.194,6.425c0.304,0.574,0.669,1.136,1.18,1.645
			c7.273,7.312,14.584,14.776,23.37,20.127c1.462,1.324,2.937,2.632,4.436,3.912c2.488,7.024,7.468,7.925,13.249,7.104
			c2.179,2.248,5.598,3.362,8.758,1.496c1.743-1.026,3.434-2.092,5.077-3.21c4.432-1.061,9.109-4.296,13.709-8.466
			c15.742-9.697,28.237-23.823,40.222-38.402c7.707-5.507,12.843-13,19.47-19.763c4.919-5.02,9.443-8.833,13.425-13.952
			c5.086-3.846,10.104-7.79,15.037-11.856c0.226-0.191,0.388-0.387,0.586-0.583c1.918-1.182,3.859-2.344,5.786-3.512
			c1.329-0.201,2.676-0.85,3.898-2.073c0.458-0.456,0.915-0.914,1.371-1.372c0.973-0.972,1.541-2.058,1.829-3.173
			c0.198-0.402,0.396-0.799,0.548-1.201C348.969,212.073,353.82,202.077,346.341,198.732z"/>
	</g>
	<g>
		<path fill="#CDBD7A" d="M118.042,208.408c9.021-1.2,12.534-7.19,13.584-15.688c0.544-4.395,1.106-15.152,8.438-12.988
			c1.881,0.556,3.174,4.193,3.794,5.773c1.474,3.746,2.391,7.712,3.384,11.604c0.848,3.317,1.714,6.619,3.076,9.774
			c1.48,3.435,7.81,9.262,3.642,12.374c-4.788,3.573-8.983-4.512-9.162-8.152c-0.173-3.497,1.722-6.72,4.1-9.09
			c5.084-5.078,12.968-7.323,19.347-10.268c6.49-2.988,12.969-7.18,15.59-14.159c2.607-6.929,1.465-15.411,0.073-22.472
			c-1.367-6.908-4.869-16.123-12.833-17.318c-9.436-1.417-13.968,6.709-14.673,14.902c-1.502,17.348,16.671,25.921,28.416,34.671
			c5.79,4.313,11.732,9.982,12.181,17.622c0.195,3.351,0.03,8.035-4.115,7.839c-2.116-0.103-4.38-1.492-6.169-2.476
			c-1.424-0.78-2.706-1.733-3.941-2.775c-0.656-0.555-1.427-2.149-1.577-1.354c0.247-1.31,2.375-2.762,3.278-3.615
			c1.903-1.802,3.805-3.607,5.73-5.386c4.388-4.055,8.64-8.234,12.417-12.88c6.859-8.439,12.256-19.625,9.406-30.71
			c-1.615-6.299-7.626-9.968-11.795-14.446c0,2.281,0,4.562,0,6.842c3.879-4.308,8.452-6.706,14.041-4.044
			c6.298,2.999,11.073,9.039,15.012,14.599c7.954,11.227,14.907,24.604,18.348,37.996c1.539,5.989-0.52,12.285-2.232,18.003
			c-1.751,5.81-2.981,11.761-4.782,17.544c-2.637,8.438-8.802,14.63-17.755,15.773c-2.501,0.321-5.047,0.249-7.557,0.099
			c1.744,0.102-0.556-0.146-1.037-0.262c-2.4-0.548-4.763-1.26-7.127-1.939c-6.451-1.838-12.914-3.622-19.498-4.929
			c-10.838-2.142-27.792-4.535-32.751,8.417c-2.302,6.021,0.177,13.777,3.886,18.624c5.265,6.883,12.784,12.962,20.9,16.102
			c7.594,2.945,15.474,0.843,19.838-6.34c4.271-7.033,0.996-16.123-2.33-22.778c-3.385-6.765-8.336-13.303-13.904-18.444
			c-2.931-2.699-6.064-5.231-8.22-8.634c-1.766-2.778,0.461-3.743,3.147-4.872c9.152-3.844,39.408-8.954,38.251,7.918
			c-0.328,4.788-2.864,9.775-4.29,14.312c-1.663,5.31-2.397,10.569-1.591,16.089c1.534,10.456,13.936,19.613,24.274,18.098
			c10.992-1.62,16.79-12.058,21.162-21.108c4.852-10.037,8.489-21.67,7.42-32.923c-0.996-10.529-7.926-17.71-16.516-23.077
			c-7.971-4.978-17.596-8.097-23.394-15.882c-11.875-15.944,11.097-23.446,23.278-25.706c8.713-1.619,17.772-1.55,25.366,3.508
			c8.156,5.432,12.816,15.859,17.726,23.977c3.208,5.296,5.096,11.214,6.648,17.167c1.319,5.086,1.603,10.382,5.583,14.204
			c0.434,0.419,0.918,0.792,1.365,1.194c-0.006-1.463-0.013-2.932-0.02-4.4c-0.465,0.501-0.986,0.933-1.563,1.297
			c-1.621,1.16-3.178,1.994-5.171,2.236c-4.711,0.563-9.74-0.749-13.989-2.723c-3.326-1.538-6.658-3.641-7.503-7.385
			c-1.075-4.741,1.417-10.854,3.529-14.964c3.435-6.701,10.242-9.528,16.673-12.682c5.72-2.801,12.766-6.041,15.622-12.142
			c3.758-8.039-2.141-15.44-7.692-20.789c-8.711-8.393-20.321-12.632-31.037-17.691c-4.582-2.162-9.17-2.663-14.162-2.526
			c-5.563,0.152-9.569-0.829-13.342-5.053c-6.594-7.408-7.921-18.287-15.142-25.277c-5.604-5.418-14.742-8.802-22.312-5.893
			c-8.577,3.298-12.094,13.859-9.818,22.285c2.132,7.89,10.075,11.747,15.849,16.587c1.563,1.307,2.864,2.734,3.875,4.495
			c0.253-1.952,0.508-3.906,0.756-5.862c-5.982,4.665-19.03,3.089-26.313,1.331c-4.127-0.996-8.399-2.562-11.325-5.757
			c-2.548-2.783-0.105-6.691,2.086-9.574c2.509-3.299-1.665-8.593-5.461-7.105c-9.792,3.84-19.49,8.987-25.297,18.097
			c-2.641,4.141-3.074,8.912-2.73,13.689c0.319,4.447,2.06,10.195-1.426,13.768c-3.402,3.492-11.496,2.571-15.924,3.139
			c-5.331,0.686-10.08,2.772-15.001,4.823c-8.183,3.41-18.25,8.538-19.039,18.581c-0.626,7.983,5.461,14.365,10.073,20.143
			c2.222,2.787,4.351,5.78,5.318,9.241c1.063,3.789-1.021,7.658-1.374,11.398c-0.972,10.31,13.838,14.767,21.628,14.967
			c10.625,0.267,23.673-6.355,30.258,5.421c3.63,6.498,4.396,14.628,11.018,18.989c3.353,2.2,7.659,3.492,11.406,4.827
			c4.542,1.62,7.579,5.037,9.769,9.178c1.798,3.401,3.05,7.057,4.913,10.434c2.369,4.3,5.862,7.589,9.91,10.28
			c6.635,4.409,14.896,6.033,21.518,0.844c5.324-4.167,7.949-10.989,11.078-16.771c1.414-2.607,2.939-5.063,5.181-7.04
			c3.297-2.904,9.715-2.356,13.782-3.032c10.37-1.722,16.015-11.424,13.755-21.317c-1.385-6.042-10.146-17.455-1.875-22.121
			c2.299-1.296,6.068,0.076,8.313,0.763c4.065,1.241,7.905,3.168,11.75,4.921c6.614,3.021,13.697,6.405,20.979,3.646
			c14.963-5.665,21.371-27.23,16.955-41.496c-2.467-7.989-9.769-13.765-18.103-14.498c-7.985-0.708-14.106,4.422-18.683,10.393
			c-4.526,5.906-7.684,13.015-12.983,18.287c-5.545,5.519-15.427,5.187-22.476,3.716c-5.653-1.184-11.675-3.754-14.215-9.262
			c-1.09-2.355-4.532-3.02-6.622-1.735c-8.662,5.351-20.418,2.628-27.937,10.57c-9.141,9.658,0.563,25.649,6.339,34.402
			c3.416,5.182,11.803,0.345,8.352-4.883c-3.294-4.998-13.601-19.343-6.053-24.204c7.1-4.57,16.834-2.99,24.182-7.534
			c-2.199-0.577-4.411-1.155-6.611-1.735c7.276,15.753,32.137,17.951,46.129,11.616c6.87-3.115,11.037-10.458,14.903-16.537
			c3.095-4.863,7.373-13.196,13.99-13.515c8.114-0.391,11.41,7.624,11.486,14.323c0.075,7.532-2.983,15.651-8.483,20.846
			c-5.297,5.002-11.588,1.381-17.174-1.163c-7.088-3.237-14.847-7.429-22.891-6.927c-8.611,0.534-14.171,8.364-14.327,16.587
			c-0.159,8.238,10.414,18.373,3.644,25.575c-2.762,2.924-9.343,2.46-13.002,2.987c-4.462,0.64-8.43,2.717-11.507,5.985
			c-4.772,5.051-7.104,11.907-10.688,17.744c-4.125,6.708-8.833,5.529-14.921,1.479c-6.979-4.636-8.113-14.172-12.793-20.618
			c-2.736-3.769-6.363-6.546-10.572-8.498c-3.96-1.841-8.373-2.791-12.056-5.212c-1.404-0.927-2.444-4.484-3.198-6.354
			c-1.924-4.795-3.787-9.338-6.976-13.439c-6.298-8.1-17.325-7.807-26.41-6.508c-5.729,0.818-11.526,1.788-16.95-0.837
			c-4.284-2.074-4.249-2.332-3.356-6.007c1.892-7.795,0.191-14.444-4.35-20.918c-3.307-4.714-10.396-10.419-10.431-16.62
			c-0.038-6.953,13.266-10.543,18.148-12.529c9.567-3.891,20.673-1.053,29.046-7.953c7.607-6.267,3.808-17.004,4.168-25.244
			c0.399-9.102,13.955-15.055,21.013-17.823c-1.819-2.37-3.64-4.738-5.46-7.107c-20.837,27.402,34.008,38.766,50.744,25.726
			c1.696-1.322,1.743-4.152,0.756-5.862c-4.022-7-11.522-10.053-16.897-15.717c-4.93-5.196-1.384-15.393,6.337-14.005
			c9.612,1.726,12.592,11.479,16.428,19.106c4.419,8.788,10.881,17.139,21.468,17.894c4.863,0.346,9.498-0.386,14.19,1.232
			c5.931,2.048,11.831,5.183,17.363,8.125c5.112,2.722,9.794,5.929,13.907,10.022c1.943,1.927,4.78,5.04,4.001,7.784
			c-0.529,1.89-3.396,3.471-4.983,4.451c-3.229,1.99-6.719,3.547-10.115,5.224c-7.051,3.49-12.989,7.547-16.923,14.567
			c-4.32,7.731-7.614,19.782-2.248,27.764c5.138,7.656,15.576,10.972,24.272,11.863c4.206,0.431,8.435-0.343,12.226-2.192
			c3.532-1.735,8.773-5.637,7.555-10.24c-0.771-2.916-3.849-3.889-4.582-6.638c-1.731-6.475-2.957-12.9-5.483-19.148
			c-3.956-9.781-10.184-19.528-16.778-27.758c-6.445-8.048-15.266-12.458-25.451-13.393c-8.063-0.742-16.758,0.998-24.44,3.289
			c-7.459,2.221-15.248,5.775-20.436,11.755c-5.26,6.064-6.064,14.067-2.672,21.265c4.218,8.965,11.913,14.408,20.384,19.003
			c8.151,4.424,18.309,8.765,20.75,18.636c2.594,10.494-2.678,23.323-7.454,32.454c-2.476,4.75-4.842,9.316-9.569,12.203
			c-5.362,3.278-11.61-1.126-14.767-5.51c-6.081-8.433,2.639-21.33,4.115-30.065c3.314-19.652-17.364-24.339-32.55-23.185
			c-8.601,0.653-19.227,2.165-25.649,8.447c-6.423,6.289-1.372,14.63,3.494,19.876c5.311,5.73,10.841,10.3,15.132,16.987
			c2.977,4.637,8.69,14.056,3.634,19.047c-5.124,5.04-15.017-3.884-18.707-7.19c-4.316-3.877-8.84-9.321-6.972-15.303
			c0.259-0.826,1.453-1.688,2.776-2.147c2.591-0.897,5.373-0.872,8.079-0.786c6.724,0.228,13.398,1.881,19.88,3.551
			c5.464,1.408,10.84,3.132,16.31,4.494c7.428,1.853,15.457,0.692,22.418-2.256c8.376-3.541,13.444-11.763,16.263-20.015
			c1.779-5.23,2.688-10.769,4.315-16.057c1.926-6.221,3.668-12.509,3.521-19.073c-0.148-6.691-3.303-13.536-5.88-19.588
			c-3.137-7.357-6.77-14.496-10.975-21.298c-6.812-11.018-18.1-26.609-32.876-25.521c-5.864,0.429-10.815,3.758-14.66,8.027
			c-1.811,2.013-1.868,4.837,0,6.842c2.727,2.928,6.419,5.308,8.616,8.674c2.871,4.394,0.434,11.403-1.621,15.616
			c-4.971,10.176-14.594,17.897-22.754,25.449c-2.752,2.546-6.025,5.824-6.068,9.861c-0.059,5.209,3.84,8.497,7.665,11.393
			c7.413,5.614,18.464,8.505,24.75,0.035c5.066-6.827,2.77-18.188-1.208-24.874c-4.213-7.084-11.374-12.078-17.991-16.7
			c-6.064-4.239-13.182-8.325-17.25-14.711c-1.495-2.345-2.651-16.167,2.656-13.209c2.381,1.329,3.298,5.772,3.93,8.13
			c1.098,4.11,1.464,8.379,1.462,12.62c-0.002,6.819-3.206,10.346-9.052,13.517c-13.419,7.27-30.426,10.971-31.404,29.273
			c-0.575,10.748,9.681,20.098,20.103,18.033c4.938-0.969,9.367-5.773,9.962-10.698c0.648-5.313-2.725-9.872-5.354-14.167
			c-6.533-10.67-3.699-32.84-20.45-34.415c-7.786-0.735-14.166,5.968-16.015,12.855c-1.041,3.886,0.208,15.284-5.331,16.023
			C111.952,199.542,111.872,209.226,118.042,208.408L118.042,208.408z"/>
	</g>
	<g>
		<path fill="#F59233" d="M215.562,167.288l-3.504-6.385l-9.832,4.824c-3.386,0.667-6.971,1.919-10.234,3.875
			c-2.354,1.414-4.549,2.869-6.506,4.333l-12.328,6.045l4.043,8.162c0,0,0.085-0.03,0.236-0.076
			c3.235,4.033,15.06,2.253,24.263-2.62C212.007,179.988,217.729,170.402,215.562,167.288z"/>
		<path fill="#F2B131" d="M173.157,179.98c1.126,6.122,14.731,4.542,25.042-0.917c10.309-5.456,16.028-15.046,13.859-18.159
			c-2.172-3.11-14.222-3.292-23.567,2.316C179.156,168.829,172.257,175.079,173.157,179.98z"/>
		<path fill="#EC9F1E" d="M184.064,175.548c-0.532-0.968,3.097-5.343,5.505-6.775c2.415-1.433,9.534-4.235,10.433-2.243
			c0.901,1.993-1.532,5.613-4.551,7.114C192.432,175.141,185.122,177.481,184.064,175.548z"/>
	</g>
	<g>
		<path fill="#F09054" d="M248.407,122.63l1.862-6.099l-2.37,0.165c-3.411-0.66-7.243-0.854-11.032-0.264
			c-2.737,0.43-5.346,0.957-7.738,1.579l-13.82,0.969l0.677,9.164c0,0,0.092,0.008,0.255,0.023c0.907,3.051,5.634,5.29,11.553,6.333
			l19.849-9.326L248.407,122.63z"/>
		<path fill="#ED7C32" d="M239.924,134.933c11.712-1.186,20.706-7.975,19.853-11.708l-0.847-7.301l-8.66,0.607l-1.862,6.099
			l-0.764,2.544l-19.849,9.326C231.573,135.168,235.842,135.348,239.924,134.933z"/>
		<path fill="#F2B131" d="M215.309,118.981c-1.271,6.153,12.05,9.843,23.761,8.655c11.709-1.186,20.706-7.976,19.859-11.711
			c-0.852-3.732-12.05-8.485-22.916-6.786C225.155,110.833,216.328,114.057,215.309,118.981z"/>
		<path fill="#EC9F1E" d="M227.189,118.981c-0.126-1.112,4.926-3.818,7.72-4.244c2.804-0.423,10.523-0.339,10.615,1.869
			c0.081,2.208-3.569,4.665-6.962,4.921C235.169,121.781,227.442,121.186,227.189,118.981z"/>
	</g>
	<g>
		<path fill="#F59233" d="M269.403,210.413l2.625-8.988l-13.33-4.56c-3.684-2.468-8.089-4.597-12.823-5.78
			c-3.429-0.858-6.749-1.531-9.864-1.983l-16.705-5.715l-3.75,11.096c0,0,0.105,0.056,0.287,0.149
			c-0.727,6.608,11.64,15.747,24.44,19.686C254.621,218.731,268.552,215.218,269.403,210.413z"/>
		<path fill="#F2B131" d="M219.305,183.388c-4.546,6.594,9.262,17.531,23.601,21.941s28.263,0.9,29.121-3.904
			c0.85-4.806-9.941-15.935-23.539-19.328C234.902,178.705,222.941,178.113,219.305,183.388z"/>
		<path fill="#EC9F1E" d="M233.246,189.279c0.409-1.363,7.678-2.042,11.174-1.152c3.497,0.89,12.523,4.82,11.524,7.451
			c-0.987,2.632-6.495,3.709-10.605,2.328C241.228,196.522,232.46,191.994,233.246,189.279z"/>
	</g>
	<g>
		<path fill="#D7CA94" d="M246.128,100.148c-6.451-8.212-16.605-13.35-26.985-9.782c-7.313,2.513-18.814,13.019-15.662,21.826
			c3.019,8.438,15.797,9.598,22.182,14.543c3.133,2.422,5.87,6.012,7.782,9.437c2.169,3.869,6.484,6.71,7.984,10.942
			c-0.055-0.139-0.243,0.586-0.855,1.196c-0.771,0.767-2.011,1.309-3.01,1.704c-3.698,1.467-7.755,2.076-11.686,2.47
			c-6.186,0.617-14.259,0.831-19.561-0.152c-5.209-0.967-18.305-2.536-18.538-9.786c-0.108-3.336,3.185-5.997,5.374-8.007
			c3.526-3.23,7.591-5.914,11.799-8.158c8.16-4.354,17.113,3.759,23.747,8.082c8.522,5.55,16.109,8.646,26.192,6.312
			c8.222-1.901,20.285-3.384,21.8-13.625c1.337-9.051-6.762-18.459-15.834-18.996c-18.229-1.079-7.934,23.117-4.345,31.59
			c2.982,7.062,6.367,13.954,9.316,21.029c2.477,5.955,3.765,12.659,0.792,18.777c-3.92,8.083-14.408,6.339-21.397,4.421
			c-7.112-1.952-19.053-5.555-22.317-12.977c-0.25,1.952-0.503,3.907-0.756,5.861c5.565-5.303,13.212-4.563,20.188-3.041
			c8.117,1.776,15.896,4.855,24.073,6.467c7.088,1.399,14.992,1.53,21.041-3.017c6.43-4.844,7.352-12.084,7.536-19.695
			c0.175-7.205-0.901-16.651-8.529-19.622c-7.987-3.112-12.035,6.299-12.833,12.236c-0.854,6.407,0.674,12.764,0.6,19.156
			c-0.076,7.359-5.008,14.404-10.694,18.644c-12.865,9.567-32.798,11.006-46.904,3.457c-7.281-3.894-14.526-8.471-20.005-14.732
			c-1.669-1.906-2.703-4.491-0.66-6.514c1.981-1.956,6.812-1.189,9.202-0.967c8.086,0.75,16.64,3.659,24.172,6.47
			c4.622,1.725,9.091,4.184,12.986,7.216c4.667,3.642,8.224,8.416,12.733,12.22c7.587,6.396,16.396,7.088,25.94,7.113
			c8.188,0.015,16.373,0.041,24.554-0.507c13.75-0.919,33.258-3.025,35.325-20.154c0.971-8.069-2.981-16.366-9.578-21.042
			c-5.52-3.91-13.772-6.735-20.287-3.765c-10.996,5.013-9.166,21.814-9.362,31.612c-0.15,7.538-0.548,14.94-2.389,22.289
			c-1.064,4.25-2.731,8.204-5.227,11.816c-0.968,1.412-2.364,2.646-3.768,3.612c-1.046,0.721-1.996,1.616-2.965,2.424
			c-0.293,0.22-0.582,0.429-0.867,0.647c-1.715,0.841-1.041,1.012,2.033,0.512c-1.713-5.991-11.049-3.446-9.329,2.569
			c3.647,12.76,15.43,4.016,21.11-2.152c6.821-7.422,9.052-18.063,10.296-27.729c0.988-7.686,0.694-15.471,0.905-23.201
			c0.089-3.339-0.179-13.526,4.76-13.972c9.002-0.815,17.009,8.778,14.646,17.292c-2.165,7.778-14.276,8.482-20.689,9.17
			c-8.541,0.918-17.175,0.939-25.756,0.908c-9.097-0.035-17.223,0.517-24.366-5.902c-4.113-3.691-7.496-7.961-11.886-11.383
			c-4.265-3.323-8.897-5.915-13.891-7.974c-7.957-3.281-16.553-5.789-25.058-7.222c-6.948-1.175-16.07-1.715-21.056,4.324
			c-6.023,7.292-1.956,15.655,3.801,21.454c11.819,11.912,28.416,19.913,45.244,19.915c16.663,0.003,34.935-7.365,42.975-22.716
			c2.594-4.95,4.009-10.752,3.632-16.338c-0.374-5.519-1.068-11.017-0.499-16.55c0.091-0.924,1.212-2.917,0.502-2.851
			c0.271-0.153,0.101-0.292-0.506-0.408c0.479,0.377,0.524,0.701,0.811,1.236c0.571,1.081,0.715,2.57,0.922,3.755
			c0.785,4.394,0.743,12.201-1.296,15.654c-5.568,9.438-24.751,0.804-31.995-1.297c-12.323-3.574-26.245-5.972-36.432,3.743
			c-1.697,1.62-1.624,3.877-0.756,5.861c3.403,7.745,13.081,11.83,20.373,14.799c8.352,3.396,17.439,5.734,26.399,3.885
			c8.868-1.828,14.719-9.143,16.133-17.807c1.215-7.46-0.218-13.648-3.089-20.417c-3.016-7.125-6.414-14.085-9.399-21.227
			c-2.003-4.787-5.816-13.059-5.213-17.415c0.222-1.564-0.581,0.078-0.321-0.076c-0.941,0.555,0.775,0.141,1.151,0.202
			c1,0.167,1.816,0.622,2.677,1.121c2.803,1.621,5.931,6.651,2.229,8.85c-3.658,2.168-9.082,2.657-13.172,3.654
			c-4.886,1.19-8.032,0.592-12.51-1.708c-9.003-4.63-16.824-12.121-26.977-14.228c-8.491-1.759-16.758,4.365-23.056,9.312
			c-6.273,4.929-13.479,11.932-11.353,20.813c2.061,8.619,10.999,12.578,18.773,14.708c13.344,3.657,30.804,3.81,43.704-1.302
			c6.683-2.649,12.67-8.891,9.073-16.479c-1.885-3.963-5.137-7.008-7.684-10.519c-2.726-3.752-5.083-7.686-8.43-10.96
			c-3.386-3.32-7.728-5.441-11.996-7.383c-2.379-1.083-4.75-2.158-7.066-3.373c-0.677-0.354-1.413-0.743-2.004-1.233
			c-0.352-0.294-0.521,1.623,0.016-0.262c1.345-4.738,7.364-9.462,12.152-9.986c6.02-0.66,10.879,3.764,14.322,8.143
			C243.134,111.892,249.933,104.994,246.128,100.148L246.128,100.148z"/>
	</g>
	<g>
		<path fill="#D7CA94" d="M117.655,155.556c-4.705,2.768-8.77,6.171-12.046,10.553c-3.262,4.363-5.404,9.746-9.003,13.817
			c-2.863,3.239-8.104,3.248-11.973,4.398c-3.745,1.11-6.309,3.693-7.564,7.338c-2.173,6.313,3.613,11.788,8.101,15.096
			c6.182,4.562,13.828,7.442,21.066,9.826c5.64,1.864,12.258,3.946,18.278,3.513c9.818-0.709,15.478-9.22,14.4-18.527
			c-1.156-9.988-7.612-17.777-12.833-25.949c-5.256-8.225-2.618-15.993-1.041-24.854c0.712-3.986,1.27-8.091,2.627-11.925
			c0.979-2.773,6.646-3.582,9.128-3.813c3.717-0.344,7.804,0.004,11.085,1.894c3.761,2.168,5.133,6.831,6.237,10.72
			c1.321,4.667,2.077,9.488,3.17,14.212c1.235,5.343,3.606,9.996,5.917,14.933c4.559,9.716,5.932,20.028,9.262,30.102
			c1.182,3.58,2.812,7.239,3.263,11.011c0.538,4.505-2.76,5.443-6.797,5.759c-9.696,0.763-21.089-7.021-21.529-17.224
			c-0.201-4.613,2.998-8.61,5.768-11.959c3.441-4.163,7.107-8.123,9.999-12.706c2.462-3.9,3.887-8.517,3.546-13.137
			c-0.338-4.655-3.416-8.657-6.289-12.103c-4.984-5.982-14.105-12.436-22.136-7.96c-7.958,4.441-1.478,12.732,2.772,17.053
			c7.235,7.353,12.449,16.642,20.382,23.279c9.043,7.558,21.671,8.231,30.578,16.029c5.216,4.57,10.425,9.424,15.001,14.642
			c0.905,1.03,1.689,3.59,1.392,1.117c-0.14-1.16,0.053-0.254-0.571,0.475c-1.877,2.201-4.308,3.974-6.603,5.71
			c-5.301,4.018-11.168,7.842-14.895,13.486c-3.868,5.862-0.914,12.018,4.6,15.331c3.432,2.061,6.875-0.7,7.277-4.181
			c0.582-5.021-0.908-9.846-2.245-14.636c-1.289-4.603-2.19-10.56,2.398-13.769c3.161-2.211,6.267,5.987,5.207,8.474
			c-1.583,3.727-5.872,5.725-9.491,6.826c-9.387,2.877-18.681-2.532-25.975-7.894c-7.884-5.79-14.909-12.211-24.132-15.856
			c-1.864-0.738-4.621,0.432-5.465,2.22c-6.792,14.412,13.698,29.062,23.147,36.498c6.057,4.772,12.262,9.408,18.594,13.809
			c4.619,3.203,9.157,6.67,13.067,10.716c3.373,3.49,6.003,7.654,9.73,10.804c5.147,4.365,14.743,5.319,20.286,1.133
			c5.458-4.129,6.725-10.987,7.262-17.427c0.536-6.547-0.13-13.124,0.201-19.677c0.146-2.825,1.23-5.221,2.991-8.018
			c2.314-3.685,5.254-3.268,8.567-1.296c4.816,2.879,8.574,7.86,11.985,12.195c1.952-2.528,3.903-5.056,5.856-7.596
			c-4.596-3.175-6.967-9.095-9.372-13.924c-2.8-5.614-5.843-11.419-10.996-15.229c-7.061-5.21-30.103-6.536-23.486,7.939
			c2.086,4.564,6.211,8.275,9.775,11.696c4.254,4.078,7.623,7.728,9.965,13.331c2.366,5.689,3.404,12.456,0.452,18.112
			c-3.24,6.197-10.724,7.964-17.133,8.237c-6.2,0.271-6.26,9.716,0,9.679c15.45-0.106,31.654-2.937,43.833-13.063
			c4.563-3.799,6.675-10.075,8.733-15.421c1.409-3.64,3.438-12.294,8.307-12.803c4.211-0.444,8.089,2.678,12.359,1.207
			c6.491-2.237,5.353-10.51,4.473-15.794c-1.998-11.944-13.756-26.254-26.93-23.497c-6.105,1.28-3.517,10.601,2.568,9.329
			c4.793-1.004,8.921,4.296,11.218,7.75c2.554,3.826,4.837,9.233,4.185,13.962c-0.286,2.081,0.354-0.992,1.721-1.008
			c-0.218,0.004-1.449-0.335-1.955-0.467c-1.986-0.523-3.94-0.901-5.979-1.137c-4.353-0.489-8.724,1.6-11.639,4.707
			c-6.745,7.207-6.46,18.729-13.253,25.75c-8.977,9.282-25.556,10.73-37.641,10.805c0,3.227,0,6.452,0,9.679
			c13.255-0.572,26.138-7.076,28.258-21.317c1.889-12.731-4.489-25.237-13.522-33.763c-3.286-3.102-7.045-6.28-9.199-10.336
			c-0.291-0.54,0.59,0.308-0.772,1.952c-0.582,0.696,1.417,0.174,1.873,0.17c3.073-0.017,6.192,0.456,8.624,2.473
			c4.407,3.65,6.684,9.712,9.19,14.696c2.849,5.664,6.157,10.974,11.46,14.635c4.92,3.393,8.979-3.637,5.868-7.597
			c-5.221-6.639-12.064-15.113-20.985-16.453c-9.273-1.384-16.095,6.883-18.359,15.116c-1.597,5.817-0.729,12.438-0.71,18.385
			c0.016,4.867,0.446,12.351-3.208,16.021c-1.424,1.431-4.297,0.938-6.19,0.515c-4.08-0.921-6.816-5.733-9.357-8.776
			c-6.51-7.789-15.28-13.166-23.36-19.159c-6.402-4.749-12.793-9.482-18.799-14.733c-5.025-4.397-11.995-10.103-13.469-16.984
			c-0.033-0.162,0.086-0.876,0.12-0.945c-1.821,0.745-3.642,1.484-5.464,2.224c12.419,4.908,20.937,16.32,33.182,21.669
			c11.51,5.027,26.252,4.214,34.991-5.735c8.646-9.832,0.936-29.241-13.185-26.433c-6.329,1.258-10.788,9.419-11.16,15.305
			c-0.495,7.832,4.206,14.97,3.31,22.722c2.427-1.392,4.852-2.777,7.276-4.171c-0.679-0.417-1.642-1.222-1.655-1.262
			c0.263,0.811,0.153-0.196,0.532-0.837c1.531-2.618,4.475-4.663,6.801-6.518c5.163-4.102,11.145-7.584,15.001-13.061
			c4.385-6.236-1.733-12.153-5.879-16.412c-5.696-5.842-11.93-12.222-18.932-16.453c-4.75-2.875-10.248-4.499-15.398-6.492
			c-6.069-2.352-10.455-6.003-14.603-10.946c-3.534-4.21-6.604-8.78-10.239-12.921c-2.442-2.78-5.609-5.091-7.432-8.36
			c1.694,3.036-3.03,3.215-0.617,2.951c1.033-0.11,1.967-0.094,2.947,0.214c1.762,0.555,3.444,2.305,4.759,3.52
			c2.961,2.738,6.644,6.646,5.87,10.994c-0.821,4.619-4.475,8.614-7.403,12.062c-3.304,3.903-6.838,7.725-9.254,12.267
			c-5.031,9.458-2.013,19.863,4.862,27.413c7.211,7.926,18.539,11.158,28.875,9.13c9.533-1.859,12.475-10.108,10.722-18.733
			c-0.796-3.916-2.397-7.663-3.603-11.459c-1.663-5.233-2.448-10.736-3.985-16.02c-2.965-10.168-8.819-19.083-11.106-29.443
			c-1.972-8.932-3.088-19.632-10.304-26.116c-6.572-5.906-16.21-6.435-24.487-4.703c-9.068,1.896-12.885,8.016-14.581,16.51
			c-1.468,7.334-3.747,15.159-3.763,22.642c-0.018,8.277,4.448,14.822,8.95,21.342c3.246,4.706,11.133,15.826,6.342,21.692
			c-3.249,3.981-10.209,1.505-14.218,0.457c-6.545-1.702-12.95-4.102-18.926-7.273c-2.474-1.315-4.875-2.8-6.928-4.715
			c-0.651-0.609-1.119-1.166-1.578-1.921c-0.376-0.621-0.151-0.872-0.202-0.657c0.219-0.931,5.077-1.599,6.662-1.967
			c4.373-1.011,8.3-3.141,11.281-6.513c3.043-3.446,5.061-7.96,7.537-11.817c2.743-4.272,6.303-7.465,10.661-10.028
			C127.91,160.747,123.045,152.385,117.655,155.556L117.655,155.556z"/>
	</g>
	<g>
		<path fill="#2D570C" d="M258.216,229.7c0.094,13.547-5.236,27.671-12.306,34.287c-2.864,2.69-16.556,9.442-26.518,6.542
			c-7.433-2.168-23.859-13.768-23.764-20.92c0.088-6.611-0.318-17.343,6.311-26.457c8.553-11.764,29.714-11.838,36.146-7.98
			C248.036,221.132,258.153,219.365,258.216,229.7z"/>
		<path fill="#224409" d="M200.096,249.446c1.647-1.35,3.216-2.77,4.777-4.222c2.345-2.188,2.79-4.774,2.077-7.057
			c2.238-2.671,4.719-5.218,6.68-7.78c4.328-5.66,8.214-11.217,10.156-18.152c-1.159-3.588-6.588-4.302-17.307,3.128
			c-5.585,3.871-7.168,9.659-10.538,16.51c-2.354,4.782-1.529,16.567,0.218,19.237C197.611,250.883,198.991,250.352,200.096,249.446
			z"/>
		<path fill="#224409" d="M248.853,220.76c-3.041,3.167-4.831,7.602-5.255,12.416c0.565-6.454,0.811-3.589-0.896-0.689
			c-0.893,1.517-1.926,2.96-2.917,4.416c-2.099,3.124-4.004,6.376-5.945,9.605c-4.242,7.073-7.099,11.901-13.32,17.055
			c-1.28,1.062-3.263,4.546-4.011,5.943c1.07,0.429,2.052,0.773,2.884,1.023c9.962,2.9,18.03,1.653,20.947-0.984
			c17.786-16.072,16.616-21.252,17.67-34.769C258.514,228.307,256.387,224.565,248.853,220.76z"/>
		<path fill="#3B7213" d="M258.366,241.14c-0.6,11.239-6.296,17.874-13.359,23.36c-7.056,5.487-29.416,0.986-34.249-4.286
			c-4.832-5.263-12.217-14.758-10.786-27.795c1.427-13.043,6.237-19.123,15.728-23.369c8.456-3.773,30.022-0.728,35.142,3.936
			C258.766,220.201,258.832,232.243,258.366,241.14z"/>
		<path fill="#D1E37F" d="M256.608,240.907c-0.554,10.563-5.913,16.797-12.556,21.952c-6.629,5.155-27.646,0.922-32.186-4.032
			c-4.538-4.942-11.484-13.87-10.138-26.121c1.342-12.257,5.863-17.971,14.782-21.958c7.949-3.549,28.214-0.688,33.023,3.689
			C256.987,221.218,257.052,232.539,256.608,240.907z"/>
		<path fill="#E3F8B3" d="M254.105,240.57c-0.507,9.589-5.371,15.258-11.41,19.943c-6.023,4.691-25.12,0.842-29.245-3.662
			c-4.126-4.493-10.437-12.598-9.214-23.74c1.22-11.136,5.325-16.325,13.434-19.953c7.22-3.223,25.637-0.625,30.014,3.359
			C254.443,222.677,254.509,232.962,254.105,240.57z"/>
		<g>
			<path fill="none" stroke="#B7D667" stroke-width="1.1892" stroke-linecap="round" d="M215.216,221.194
				c0.44-1.196,5.61-1.826,6.849,0.206"/>
			
				<line fill="none" stroke="#B7D667" stroke-width="1.1892" stroke-linecap="round" x1="222.065" y1="221.4" x2="226.269" y2="230.252"/>
			<path fill="none" stroke="#B7D667" stroke-width="1.1892" stroke-linecap="round" d="M222.065,221.4c0,0-0.426-6.701,5.068-4.648
				"/>
			
				<line fill="none" stroke="#B7D667" stroke-width="1.1892" stroke-linecap="round" x1="233.292" y1="236.42" x2="243.124" y2="235.102"/>
			<path fill="none" stroke="#B7D667" stroke-width="1.1892" stroke-linecap="round" d="M243.124,235.102
				c2.25-0.485,6.469,4.949,1.754,6.729"/>
			<path fill="none" stroke="#B7D667" stroke-width="1.1892" stroke-linecap="round" d="M243.124,235.102
				c2.294-0.398,5.128-4.077,1.379-6.444"/>
			<path fill="none" stroke="#B7D667" stroke-width="1.1892" stroke-linecap="round" d="M229.196,237.753
				c0,0-5.336,7.638-5.495,10.05"/>
			<path fill="none" stroke="#B7D667" stroke-width="1.1892" stroke-linecap="round" d="M223.7,247.802
				c-0.925,3.402-6.308,3.36-6.522,0.706"/>
			<path fill="none" stroke="#B7D667" stroke-width="1.1892" stroke-linecap="round" d="M223.7,247.802
				c-0.747,2.021,1.05,7.653,5.281,6.937"/>
			<path fill="none" stroke="#B7D667" stroke-width="1.1892" stroke-linecap="round" d="M230.536,217.406
				c1.171,1.1,1.508,2.64,0.758,3.436c-0.75,0.799-2.309,0.551-3.474-0.548c-1.169-1.107-1.511-2.645-0.758-3.441
				C227.809,216.054,229.369,216.305,230.536,217.406z"/>
			<path fill="none" stroke="#B7D667" stroke-width="1.1892" stroke-linecap="round" d="M216.738,224.365
				c-0.092,1.604-1.055,2.854-2.143,2.791c-1.095-0.056-1.904-1.409-1.817-3.018c0.091-1.601,1.052-2.851,2.139-2.79
				C216.013,221.407,216.824,222.761,216.738,224.365z"/>
			<path fill="none" stroke="#B7D667" stroke-width="1.1892" stroke-linecap="round" d="M214.826,245.758
				c-0.243-1.583,0.444-3.009,1.525-3.173c1.079-0.164,2.152,0.989,2.39,2.582c0.242,1.597-0.444,3.008-1.525,3.171
				C216.132,248.503,215.064,247.349,214.826,245.758z"/>
			<path fill="none" stroke="#B7D667" stroke-width="1.1892" stroke-linecap="round" d="M229.422,251.244
				c1.066-1.201,2.59-1.59,3.411-0.868c0.826,0.722,0.626,2.29-0.438,3.493c-1.063,1.206-2.59,1.59-3.414,0.87
				C228.168,254.017,228.356,252.448,229.422,251.244z"/>
			<path fill="none" stroke="#B7D667" stroke-width="1.1892" stroke-linecap="round" d="M243.447,245.097
				c-1.38,0.823-2.949,0.732-3.512-0.207c-0.56-0.946,0.111-2.376,1.493-3.193c1.38-0.824,2.949-0.722,3.514,0.209
				C245.5,242.846,244.831,244.282,243.447,245.097z"/>
			<path fill="none" stroke="#B7D667" stroke-width="1.1892" stroke-linecap="round" d="M240.93,229.29
				c-1.516-0.524-2.454-1.792-2.094-2.825c0.357-1.037,1.88-1.442,3.394-0.913c1.518,0.524,2.461,1.792,2.104,2.822
				C243.971,229.406,242.446,229.822,240.93,229.29z"/>
		</g>
	</g>
	<g>
		<path fill="#2D570C" d="M217.219,121.75c8.811,7.156,15.1,18.127,15.622,26.226c0.213,3.284-2.717,15.736-9.905,20.63
			c-5.359,3.648-21.609,8.097-26.182,4.225c-4.229-3.578-11.388-9.039-13.75-18.177c-3.049-11.799,8.179-25.519,14.096-27.624
			C206.259,123.77,210.506,116.287,217.219,121.75z"/>
		<path fill="#224409" d="M199.028,169.856c0.004-1.791-0.077-3.558-0.189-5.34c-0.161-2.684-1.599-4.346-3.453-5.102
			c-0.538-2.871-0.861-5.832-1.472-8.467c-1.353-5.81-2.874-11.286-6.326-16.235c-2.937-1.163-6.29,1.965-7.194,12.856
			c-0.475,5.678,2.426,9.78,5.059,15.612c1.835,4.066,9.891,9.812,12.552,10.109C198.634,172.228,199.026,171.048,199.028,169.856z"
			/>
		<path fill="#224409" d="M206.454,123.043c0.425,3.656,2.343,7.179,5.227,10.011c-3.87-3.798-1.883-2.433-0.917,0.214
			c0.501,1.387,0.88,2.823,1.302,4.238c0.897,3.024,1.985,5.991,3.041,8.963c2.314,6.503,3.915,10.93,3.929,17.699
			c0.004,1.393,1.207,4.534,1.709,5.762c0.848-0.465,1.59-0.914,2.19-1.325c7.188-4.894,10.677-10.775,10.527-14.063
			c-0.913-20.068-4.896-22.073-13.067-29.947C216.479,120.819,212.929,120.201,206.454,123.043z"/>
		<path fill="#3B7213" d="M224.703,127.757c6.948,6.368,8.202,13.589,7.987,21.076c-0.217,7.489-15.038,19.546-21.018,19.864
			c-5.979,0.32-16.05,0.038-23.726-7.831c-7.671-7.875-9.041-14.221-6.722-22.622c2.062-7.478,15.518-19.8,21.26-20.628
			C211.369,116.336,219.195,122.706,224.703,127.757z"/>
		<path fill="#D1E37F" d="M223.614,128.76c6.533,5.988,7.706,12.776,7.503,19.813c-0.193,7.039-14.132,18.37-19.752,18.668
			c-5.615,0.299-15.085,0.038-22.292-7.36c-7.214-7.398-8.502-13.365-6.322-21.258c1.934-7.029,14.581-18.614,19.98-19.388
			C211.084,118.033,218.439,124.018,223.614,128.76z"/>
		<path fill="#E3F8B3" d="M222.065,130.199c5.929,5.442,7.001,11.608,6.816,18.006c-0.185,6.393-12.84,16.692-17.95,16.961
			c-5.104,0.275-13.707,0.038-20.26-6.688c-6.55-6.723-7.722-12.141-5.743-19.318c1.759-6.385,13.252-16.912,18.159-17.618
			C210.673,120.451,217.355,125.889,222.065,130.199z"/>
		<g>
			<path fill="none" stroke="#B7D667" stroke-width="1.1892" stroke-linecap="round" d="M188.813,145.025
				c-0.538-0.917,1.805-4.602,3.782-4.314"/>
			
				<line fill="none" stroke="#B7D667" stroke-width="1.1892" stroke-linecap="round" x1="192.595" y1="140.711" x2="200.561" y2="142.7"/>
			<path fill="none" stroke="#B7D667" stroke-width="1.1892" stroke-linecap="round" d="M192.595,140.711
				c0,0-4.557-3.297-0.305-5.752"/>
			
				<line fill="none" stroke="#B7D667" stroke-width="1.1892" stroke-linecap="round" x1="208.291" y1="141.453" x2="212.675" y2="134.39"/>
			<path fill="none" stroke="#B7D667" stroke-width="1.1892" stroke-linecap="round" d="M212.675,134.39
				c0.886-1.71,6.647-1.548,5.285,2.449"/>
			<path fill="none" stroke="#B7D667" stroke-width="1.1892" stroke-linecap="round" d="M212.675,134.39
				c0.966-1.698,0.098-5.488-3.43-4.323"/>
			<path fill="none" stroke="#B7D667" stroke-width="1.1892" stroke-linecap="round" d="M206.968,144.807
				c0,0,2.095,7.517,3.572,8.908"/>
			<path fill="none" stroke="#B7D667" stroke-width="1.1892" stroke-linecap="round" d="M210.539,153.716
				c1.711,2.411-1.189,5.87-3.017,4.593"/>
			<path fill="none" stroke="#B7D667" stroke-width="1.1892" stroke-linecap="round" d="M210.539,153.716
				c0.916,1.564,5.514,3.398,7.304,0.278"/>
			<path fill="none" stroke="#B7D667" stroke-width="1.1892" stroke-linecap="round" d="M194.529,133.1
				c1.334-0.167,2.511,0.431,2.627,1.343c0.114,0.909-0.876,1.782-2.208,1.951c-1.34,0.171-2.511-0.428-2.632-1.339
				C192.204,134.146,193.195,133.272,194.529,133.1z"/>
			<path fill="none" stroke="#B7D667" stroke-width="1.1892" stroke-linecap="round" d="M191.676,145.735
				c0.988,0.914,1.286,2.2,0.661,2.875c-0.622,0.672-1.926,0.476-2.917-0.438c-0.988-0.913-1.284-2.2-0.662-2.876
				C189.382,144.627,190.685,144.821,191.676,145.735z"/>
			<path fill="none" stroke="#B7D667" stroke-width="1.1892" stroke-linecap="round" d="M204.488,158.367
				c-1.155-0.691-1.708-1.893-1.234-2.676c0.467-0.791,1.786-0.868,2.943-0.173c1.155,0.691,1.708,1.89,1.241,2.678
				C206.964,158.984,205.644,159.057,204.488,158.367z"/>
			<path fill="none" stroke="#B7D667" stroke-width="1.1892" stroke-linecap="round" d="M215.817,151.848
				c-0.213-1.328,0.347-2.524,1.252-2.669c0.905-0.146,1.812,0.816,2.029,2.146c0.211,1.329-0.351,2.525-1.255,2.669
				C216.937,154.138,216.03,153.18,215.817,151.848z"/>
			<path fill="none" stroke="#B7D667" stroke-width="1.1892" stroke-linecap="round" d="M219.316,139.505
				c-0.206,1.333-1.107,2.299-2.01,2.159c-0.907-0.139-1.479-1.333-1.271-2.66c0.204-1.334,1.104-2.299,2.008-2.16
				C218.949,136.982,219.52,138.176,219.316,139.505z"/>
			<path fill="none" stroke="#B7D667" stroke-width="1.1892" stroke-linecap="round" d="M207.749,132.714
				c-1.151,0.698-2.468,0.63-2.945-0.154c-0.479-0.784,0.071-1.984,1.219-2.683c1.152-0.702,2.473-0.634,2.946,0.151
				C209.445,130.81,208.897,132.013,207.749,132.714z"/>
		</g>
	</g>
	<g>
		<path fill="#2D570C" d="M147.281,176.886c8.811,7.157,15.103,18.127,15.622,26.226c0.209,3.282-2.718,15.739-9.906,20.63
			c-5.355,3.653-21.609,8.099-26.182,4.225c-4.225-3.578-11.383-9.037-13.745-18.177c-3.049-11.799,8.175-25.518,14.096-27.625
			C136.32,178.905,140.57,171.423,147.281,176.886z"/>
		<path fill="#224409" d="M129.09,224.992c0.004-1.791-0.077-3.553-0.188-5.34c-0.161-2.682-1.598-4.345-3.454-5.102
			c-0.538-2.869-0.861-5.828-1.472-8.466c-1.354-5.811-2.875-11.287-6.325-16.236c-2.938-1.162-6.293,1.967-7.197,12.858
			c-0.474,5.674,2.425,9.778,5.06,15.613c1.835,4.062,9.894,9.81,12.554,10.105C128.696,227.365,129.087,226.19,129.09,224.992z"/>
		<path fill="#224409" d="M136.515,178.181c0.425,3.655,2.341,7.177,5.227,10.008c-3.872-3.797-1.885-2.432-0.917,0.215
			c0.505,1.387,0.884,2.823,1.302,4.241c0.896,3.02,1.985,5.988,3.04,8.961c2.316,6.505,3.917,10.929,3.933,17.702
			c0.003,1.389,1.202,4.531,1.707,5.757c0.846-0.464,1.59-0.913,2.189-1.324c7.188-4.891,10.676-10.774,10.528-14.063
			c-0.915-20.068-4.896-22.071-13.066-29.947C146.541,175.957,142.99,175.339,136.515,178.181z"/>
		<path fill="#3B7213" d="M154.763,182.894c6.949,6.366,8.202,13.587,7.988,21.076c-0.212,7.49-15.037,19.545-21.019,19.863
			c-5.976,0.32-16.049,0.041-23.724-7.83c-7.67-7.875-9.04-14.218-6.722-22.622c2.062-7.479,15.518-19.8,21.26-20.627
			C141.43,171.473,149.256,177.842,154.763,182.894z"/>
		<path fill="#D1E37F" d="M153.677,183.896c6.53,5.988,7.704,12.779,7.507,19.813c-0.201,7.039-14.137,18.37-19.758,18.669
			c-5.615,0.298-15.085,0.038-22.294-7.361c-7.209-7.396-8.498-13.366-6.32-21.258c1.938-7.028,14.584-18.614,19.983-19.387
			C141.144,173.169,148.499,179.155,153.677,183.896z"/>
		<path fill="#E3F8B3" d="M152.124,185.338c5.931,5.438,7.003,11.605,6.818,18.002c-0.18,6.394-12.841,16.692-17.951,16.961
			c-5.105,0.276-13.706,0.038-20.259-6.688c-6.55-6.721-7.722-12.14-5.743-19.318c1.759-6.383,13.252-16.912,18.158-17.618
			C140.734,175.589,147.42,181.026,152.124,185.338z"/>
		<g>
			<path fill="none" stroke="#B7D667" stroke-width="1.1892" stroke-linecap="round" d="M118.875,200.161
				c-0.537-0.917,1.808-4.602,3.781-4.313"/>
			
				<line fill="none" stroke="#B7D667" stroke-width="1.1892" stroke-linecap="round" x1="122.656" y1="195.848" x2="130.623" y2="197.837"/>
			<path fill="none" stroke="#B7D667" stroke-width="1.1892" stroke-linecap="round" d="M122.656,195.848
				c0,0-4.553-3.299-0.305-5.754"/>
			
				<line fill="none" stroke="#B7D667" stroke-width="1.1892" stroke-linecap="round" x1="138.356" y1="196.59" x2="142.736" y2="189.53"/>
			<path fill="none" stroke="#B7D667" stroke-width="1.1892" stroke-linecap="round" d="M142.736,189.53
				c0.885-1.711,6.647-1.551,5.288,2.445"/>
			<path fill="none" stroke="#B7D667" stroke-width="1.1892" stroke-linecap="round" d="M142.736,189.53
				c0.966-1.7,0.097-5.491-3.43-4.326"/>
			<path fill="none" stroke="#B7D667" stroke-width="1.1892" stroke-linecap="round" d="M137.029,199.945
				c0,0,2.098,7.515,3.571,8.907"/>
			<path fill="none" stroke="#B7D667" stroke-width="1.1892" stroke-linecap="round" d="M140.6,208.852
				c1.716,2.41-1.187,5.87-3.015,4.593"/>
			<path fill="none" stroke="#B7D667" stroke-width="1.1892" stroke-linecap="round" d="M140.6,208.852
				c0.915,1.563,5.516,3.397,7.305,0.278"/>
			
				<ellipse transform="matrix(-0.1259 -0.992 0.992 -0.1259 -47.8647 337.5931)" fill="none" stroke="#B7D667" stroke-width="1.1892" stroke-linecap="round" cx="124.799" cy="189.884" rx="1.66" ry="2.436"/>
			<path fill="none" stroke="#B7D667" stroke-width="1.1892" stroke-linecap="round" d="M121.738,200.872
				c0.988,0.914,1.285,2.2,0.662,2.874c-0.623,0.673-1.928,0.479-2.919-0.436c-0.988-0.913-1.283-2.202-0.661-2.878
				C119.444,199.762,120.746,199.96,121.738,200.872z"/>
			<path fill="none" stroke="#B7D667" stroke-width="1.1892" stroke-linecap="round" d="M134.553,213.505
				c-1.155-0.694-1.712-1.892-1.238-2.679c0.47-0.79,1.786-0.867,2.942-0.172c1.154,0.691,1.711,1.89,1.241,2.678
				C137.025,214.12,135.705,214.194,134.553,213.505z"/>
			<path fill="none" stroke="#B7D667" stroke-width="1.1892" stroke-linecap="round" d="M145.877,206.984
				c-0.209-1.326,0.348-2.523,1.251-2.669c0.909-0.146,1.815,0.818,2.029,2.146c0.213,1.331-0.349,2.525-1.253,2.67
				C146.998,209.274,146.091,208.316,145.877,206.984z"/>
			<path fill="none" stroke="#B7D667" stroke-width="1.1892" stroke-linecap="round" d="M149.378,194.641
				c-0.205,1.333-1.107,2.297-2.012,2.157c-0.906-0.137-1.474-1.329-1.269-2.66c0.202-1.332,1.104-2.299,2.008-2.16
				C149.013,192.119,149.582,193.313,149.378,194.641z"/>
			<path fill="none" stroke="#B7D667" stroke-width="1.1892" stroke-linecap="round" d="M137.812,187.851
				c-1.151,0.696-2.47,0.628-2.946-0.154c-0.476-0.784,0.072-1.985,1.218-2.683c1.153-0.703,2.472-0.636,2.948,0.151
				C139.508,185.948,138.961,187.151,137.812,187.851z"/>
		</g>
	</g>
	<g>
		<path fill="#2D570C" d="M267.35,148.088c8.806,7.156,15.097,18.13,15.617,26.225c0.213,3.283-2.716,15.74-9.905,20.631
			c-5.361,3.65-21.608,8.096-26.182,4.224c-4.226-3.577-11.381-9.034-13.748-18.172c-3.049-11.801,8.174-25.52,14.1-27.628
			C256.387,150.106,260.636,142.624,267.35,148.088z"/>
		<path fill="#224409" d="M249.154,196.193c0.004-1.789-0.077-3.553-0.19-5.339c-0.165-2.682-1.595-4.345-3.45-5.102
			c-0.543-2.869-0.857-5.829-1.468-8.467c-1.364-5.807-2.886-11.286-6.33-16.235c-2.943-1.162-6.297,1.969-7.2,12.859
			c-0.475,5.674,2.425,9.777,5.063,15.614c1.837,4.061,9.894,9.809,12.559,10.104C248.766,198.566,249.152,197.385,249.154,196.193z
			"/>
		<path fill="#224409" d="M256.576,149.384c0.424,3.656,2.346,7.176,5.23,10.007c-3.875-3.797-1.889-2.432-0.917,0.215
			c0.508,1.387,0.882,2.823,1.298,4.241c0.901,3.021,1.985,5.988,3.039,8.961c2.315,6.506,3.92,10.933,3.94,17.702
			c0.004,1.39,1.201,4.53,1.701,5.757c0.851-0.464,1.595-0.913,2.193-1.324c7.189-4.891,10.677-10.773,10.527-14.063
			c-0.913-20.065-4.895-22.071-13.064-29.947C266.603,147.158,263.055,146.54,256.576,149.384z"/>
		<path fill="#3B7213" d="M274.825,154.095c6.951,6.366,8.205,13.587,7.992,21.076c-0.218,7.49-15.039,19.545-21.019,19.863
			c-5.982,0.32-16.056,0.041-23.725-7.83c-7.672-7.875-9.04-14.219-6.722-22.623c2.055-7.477,15.516-19.799,21.255-20.626
			C261.496,142.674,269.325,149.043,274.825,154.095z"/>
		<path fill="#D1E37F" d="M273.744,155.1c6.528,5.985,7.701,12.776,7.5,19.81c-0.192,7.039-14.133,18.37-19.752,18.668
			c-5.615,0.299-15.085,0.039-22.299-7.36c-7.203-7.397-8.496-13.364-6.315-21.258c1.932-7.029,14.581-18.613,19.983-19.386
			C261.21,144.37,268.567,150.356,273.744,155.1z"/>
		<path fill="#E3F8B3" d="M272.19,156.54c5.932,5.438,7.003,11.605,6.819,18.001c-0.187,6.394-12.847,16.692-17.952,16.965
			c-5.11,0.272-13.708,0.035-20.259-6.691c-6.552-6.72-7.72-12.139-5.741-19.317c1.756-6.383,13.254-16.913,18.151-17.618
			C260.804,146.79,267.488,152.227,272.19,156.54z"/>
		<g>
			<path fill="none" stroke="#B7D667" stroke-width="1.1892" stroke-linecap="round" d="M238.939,171.361
				c-0.532-0.916,1.805-4.6,3.779-4.311"/>
			
				<line fill="none" stroke="#B7D667" stroke-width="1.1892" stroke-linecap="round" x1="242.718" y1="167.051" x2="250.689" y2="169.04"/>
			<path fill="none" stroke="#B7D667" stroke-width="1.1892" stroke-linecap="round" d="M242.718,167.051
				c0,0-4.554-3.299-0.304-5.755"/>
			
				<line fill="none" stroke="#B7D667" stroke-width="1.1892" stroke-linecap="round" x1="258.416" y1="167.791" x2="262.796" y2="160.731"/>
			<path fill="none" stroke="#B7D667" stroke-width="1.1892" stroke-linecap="round" d="M262.796,160.731
				c0.896-1.712,6.653-1.552,5.295,2.446"/>
			<path fill="none" stroke="#B7D667" stroke-width="1.1892" stroke-linecap="round" d="M262.796,160.731
				c0.97-1.7,0.102-5.491-3.425-4.327"/>
			<path fill="none" stroke="#B7D667" stroke-width="1.1892" stroke-linecap="round" d="M257.094,171.146
				c0,0,2.094,7.515,3.566,8.907"/>
			<path fill="none" stroke="#B7D667" stroke-width="1.1892" stroke-linecap="round" d="M260.66,180.053
				c1.716,2.41-1.186,5.87-3.014,4.595"/>
			<path fill="none" stroke="#B7D667" stroke-width="1.1892" stroke-linecap="round" d="M260.66,180.053
				c0.916,1.564,5.517,3.397,7.307,0.277"/>
			<path fill="none" stroke="#B7D667" stroke-width="1.1892" stroke-linecap="round" d="M244.656,159.44
				c1.333-0.169,2.51,0.43,2.621,1.341c0.12,0.908-0.869,1.784-2.203,1.95c-1.335,0.17-2.516-0.427-2.63-1.337
				C242.33,160.484,243.317,159.61,244.656,159.44z"/>
			<path fill="none" stroke="#B7D667" stroke-width="1.1892" stroke-linecap="round" d="M241.799,172.074
				c0.993,0.913,1.288,2.2,0.666,2.873c-0.624,0.672-1.924,0.479-2.92-0.436c-0.983-0.912-1.286-2.199-0.665-2.877
				C239.502,170.964,240.814,171.161,241.799,172.074z"/>
			<path fill="none" stroke="#B7D667" stroke-width="1.1892" stroke-linecap="round" d="M254.614,184.706
				c-1.15-0.693-1.712-1.892-1.236-2.679c0.469-0.79,1.789-0.867,2.946-0.172c1.148,0.691,1.712,1.89,1.241,2.678
				C257.089,185.322,255.774,185.396,254.614,184.706z"/>
			<path fill="none" stroke="#B7D667" stroke-width="1.1892" stroke-linecap="round" d="M265.943,178.185
				c-0.213-1.326,0.347-2.521,1.257-2.668c0.907-0.147,1.813,0.818,2.019,2.145c0.218,1.331-0.341,2.526-1.251,2.669
				C267.057,180.475,266.152,179.517,265.943,178.185z"/>
			<path fill="none" stroke="#B7D667" stroke-width="1.1892" stroke-linecap="round" d="M269.442,165.844
				c-0.206,1.331-1.107,2.295-2.01,2.157c-0.907-0.138-1.474-1.33-1.276-2.661c0.208-1.33,1.109-2.298,2.013-2.159
				C269.074,163.321,269.646,164.513,269.442,165.844z"/>
			<path fill="none" stroke="#B7D667" stroke-width="1.1892" stroke-linecap="round" d="M257.878,159.053
				c-1.158,0.697-2.47,0.627-2.947-0.155c-0.479-0.785,0.075-1.983,1.218-2.683c1.153-0.703,2.474-0.635,2.948,0.151
				C259.577,157.148,259.023,158.352,257.878,159.053z"/>
		</g>
	</g>
	<g>
		<g>
			<g opacity="0.3">
				<path d="M265.97,170.807l5.362-4.908l-2.418-1.211c-2.97-2.637-6.619-5.053-10.691-6.674c-2.934-1.17-5.801-2.169-8.514-2.945
					l-14.142-7.08l-4.655,9.399c0,0,0.081,0.061,0.229,0.167c-0.878,3.527,2.464,8.473,7.679,12.939l24.912,2.373L265.97,170.807z"
					/>
				<path d="M250.471,177.965c12.198,5.638,24.98,4.197,26.324,0.036l3.405-7.665l-8.868-4.437l-5.362,4.908l-2.238,2.06
					l-24.912-2.373C242.145,173.346,246.231,176.002,250.471,177.965z"/>
				<path d="M235.568,147.989c-4.823,5.303,6.12,16.675,18.317,22.313c12.195,5.641,24.979,4.198,26.315,0.034
					c1.334-4.162-6.905-15.34-18.566-19.984C249.982,145.707,239.432,143.746,235.568,147.989z"/>
				<path d="M247.244,154.891c0.514-1.159,7.05-0.889,10.055,0.324c2.994,1.208,10.525,5.778,9.33,7.998
					c-1.198,2.219-6.214,2.512-9.694,0.791C253.455,162.281,246.205,157.209,247.244,154.891z"/>
			</g>
			<g>
				<g>
					<path fill="#F09054" d="M260.142,164.984l5.373-4.913l-2.424-1.208c-2.975-2.634-6.624-5.053-10.687-6.672
						c-2.942-1.173-5.81-2.173-8.513-2.947l-14.152-7.083l-4.655,9.4c0,0,0.086,0.06,0.235,0.17
						c-0.884,3.525,2.458,8.472,7.673,12.938l24.919,2.373L260.142,164.984z"/>
					<path fill="#ED7C32" d="M244.654,172.141c12.19,5.638,24.981,4.197,26.316,0.031l3.403-7.661l-8.858-4.441l-5.373,4.913
						l-2.23,2.059l-24.919-2.373C236.317,167.52,240.402,170.179,244.654,172.141z"/>
					<path fill="#F2B131" d="M229.74,142.161c-4.823,5.308,6.12,16.676,18.316,22.315c12.196,5.638,24.98,4.195,26.317,0.036
						c1.341-4.161-6.905-15.344-18.568-19.988C244.154,139.879,233.603,137.919,229.74,142.161z"/>
					<path fill="#EC9F1E" d="M241.416,149.069c0.513-1.163,7.051-0.893,10.056,0.32c2.992,1.21,10.536,5.78,9.333,8
						c-1.202,2.215-6.217,2.512-9.697,0.789C247.626,156.457,240.387,151.382,241.416,149.069z"/>
				</g>
			</g>
		</g>
	</g>
	<g>
		<g>
			<g opacity="0.3">
				<path d="M187.981,134.852c-3.176-1.027-6.27-1.887-9.174-2.521l-15.405-6.477l-4.174,10.098c0,0,0.093,0.056,0.26,0.161
					c-0.862,4.941,6.243,12.01,15.252,16.942l20.886-14.709C193.272,136.95,190.696,135.737,187.981,134.852z"/>
				<path d="M209.033,154.499l2.989-8.206l-12.29-5.166c-1.274-0.978-2.649-1.916-4.108-2.783l-20.886,14.709
					c2.132,1.172,4.369,2.223,6.639,3.098C194.629,161.249,207.953,158.922,209.033,154.499z"/>
				<path d="M163.401,125.854c-4.666,5.84,7.711,16.991,20.965,22.09c13.252,5.098,26.578,2.773,27.656-1.65
					c1.083-4.426-8.442-15.551-21.049-19.647C178.359,122.552,167.131,121.184,163.401,125.854z"/>
				<path d="M176.199,132.306c0.454-1.248,7.342-1.383,10.588-0.311c3.241,1.072,11.517,5.352,10.431,7.738
					c-1.092,2.39-6.339,3.021-10.13,1.446C183.295,139.611,175.292,134.785,176.199,132.306z"/>
			</g>
			<g>
				<g>
					<g>
						<path fill="#F59233" d="M182.156,129.029c-3.181-1.031-6.268-1.888-9.175-2.522l-15.409-6.478l-4.171,10.097
							c0,0,0.095,0.06,0.262,0.161c-0.866,4.942,6.242,12.015,15.248,16.947l20.886-14.711
							C187.443,131.122,184.873,129.91,182.156,129.029z"/>
						<path fill="#F06122" d="M203.206,148.677l2.994-8.208l-12.296-5.167c-1.271-0.979-2.648-1.914-4.107-2.78l-20.886,14.711
							c2.132,1.168,4.371,2.221,6.639,3.093C188.801,155.421,202.124,153.1,203.206,148.677z"/>
					</g>
					<path fill="#F2B131" d="M157.573,120.028c-4.662,5.838,7.715,16.994,20.967,22.09c13.252,5.098,26.576,2.774,27.66-1.649
						c1.082-4.425-8.442-15.55-21.056-19.647C172.536,116.723,161.302,115.357,157.573,120.028z"/>
					<path fill="#EC9F1E" d="M170.371,126.478c0.454-1.244,7.347-1.382,10.588-0.31c3.247,1.072,11.52,5.353,10.431,7.742
						c-1.087,2.387-6.336,3.019-10.13,1.447C177.468,133.783,169.465,128.959,170.371,126.478z"/>
				</g>
			</g>
		</g>
	</g>
	<g>
		<path fill="#F59233" d="M249.244,278.694l-4.241-7.638l-11.949,5.901c-4.112,0.848-8.473,2.392-12.435,4.776
			c-2.865,1.729-5.539,3.496-7.918,5.275l-14.99,7.407l4.898,9.766c0,0,0.11-0.034,0.292-0.097
			c3.923,4.817,18.294,2.551,29.481-3.411C244.914,293.996,251.883,282.414,249.244,278.694z"/>
		<path fill="#F2B131" d="M197.711,294.417c1.36,7.347,17.895,5.296,30.428-1.377s19.501-18.262,16.864-21.983
			c-2.632-3.719-17.271-3.805-28.633,3.041C205.014,280.941,196.629,288.531,197.711,294.417z"/>
		<path fill="#EC9F1E" d="M210.97,288.969c-0.642-1.161,3.768-6.455,6.699-8.21c2.937-1.745,11.593-5.194,12.681-2.806
			c1.09,2.384-1.863,6.76-5.537,8.596C221.14,288.386,212.249,291.27,210.97,288.969z"/>
	</g>
	<g>
		<path fill="#E1D6A9" d="M216.762,75.613c-9.376,1.603-16.65,6.687-21.276,14.986c-4.184,7.505-5.788,16.139-10.039,23.621
			c-2.3,4.058-7.281,5.105-9.937,9.206c-2.996,4.618-3.528,10.842-2.132,16.047c2.554,9.541,13.819,13.004,22.255,9.824
			c8.324-3.141,15.398-10.804,18.904-18.87c2.812-6.468,1.93-13.598,2.202-20.478c0.16-3.996,0.939-16.075,7.762-14.495
			c2.498,0.578,3.927,5.51,4.623,7.537c1.364,3.938,2.153,8.071,2.92,12.157c1.035,5.511,1.187,10.979,3.572,16.155
			c2.875,6.233,10.608,7.138,16.237,4.324c10.304-5.145,9.085-20.522,1.124-27.262c-1.572,2.696-3.141,5.389-4.706,8.086
			c16.629,2.522,19.861,21.74,18.361,35.729c-0.797,7.407-3.551,14.656-8.847,19.964c-8.466,8.494-21.202,10.67-32.566,12.297
			c-11.105,1.593-23.616,1.158-29.836,12.188c-2.122,3.767-1.903,5.605-6.141,5.383c-4.401-0.232-8.916-2.705-12.643-4.843
			c-6.324-3.626-13.121-8.979-10.946-17.095c2.141-7.983,11.443-13.472,18.646-16.053c7.146-2.554,15.191-2.686,21.166,2.617
			c4.334,3.845,3.501,9.808,2.157,14.841c-3.601,13.49-13.009,25.361-14.014,39.55c-0.604,8.534,5.442,14.644,11.766,19.494
			c8.381,6.422,18.967,5.031,27.289-0.529c8.182-5.464,13.694-13.916,21.742-19.592c3.508-2.474,7.588-4.846,12-4.75
			c3.895,0.082,4.376,5.06,4.455,7.918c0.235,8.363-3.195,16.528-10.117,21.346c-7.377,5.118-16.608,6.877-24.8,10.251
			c-8.469,3.492-15.788,8.754-19.685,17.284c-2.947,6.446-5.014,16.458-11.097,20.785c-5.359,3.819-11.604-7.677-13.848-10.966
			c-1.825-2.673-3.925-5.608-4.801-8.765c-0.39-1.415,4.855-3.916,6.683-4.5c6.481-2.081,15.532-2.469,21.74,0.742
			c4.71,2.435,3.595,8.227,2.583,12.518c-2.18,9.302-9.761,25.595,5.388,27.473c8.727,1.082,17.358-7.785,22.713-13.453
			c6.2-6.563,10.964-13.969,16.163-21.288c1.37-1.925,4.144-1.869,6.395-2.038c5.361-0.428,10.678-0.139,16.027-0.864
			c10.538-1.423,17.752-9.946,23.743-17.972c6.993-9.359,11.688-20.938,13.958-32.381c1.795-9.031-4.137-12.902-12.285-13.906
			c-21.953-2.702-44.239,3.752-65.728,7.339c-12.279,2.048-24.652,3.491-37.111,3.669c-6.056,0.083-12.164-0.215-18.168-1.03
			c-5.417-0.735-10.607-2.414-15.983-3.306c-8.662-1.438-14.192,2.978-20.191,8.638c-6.432,6.068-12.465,13.268-15.517,21.654
			c-2.83,7.783,0.923,15.276,7.948,19.043c7.062,3.796,16.055,3.898,23.773,2.609c6.141-1.019,3.53-10.342-2.57-9.324
			c-4.959,0.823-19.742,1.237-20.438-6.196c-0.385-4.117,2.979-8.464,5.215-11.598c2.775-3.873,6.242-7.344,9.741-10.568
			c3.1-2.865,5.405-5.209,9.792-4.879c5.744,0.438,11.495,2.69,17.245,3.473c13.569,1.847,27.274,1.234,40.848-0.298
			c13.685-1.546,27.229-4.131,40.751-6.688c11.915-2.257,24.44-4.356,36.589-3.221c2.157,0.199,4.296,0.336,6.391,0.9
			c1.44,0.386,0.398-0.297,0.418,0.172c0.198,4.35-2.415,9.985-3.805,13.993c-3.668,10.582-11.442,23.601-21.648,29.001
			c-7.865,4.153-18.061,0.667-26.459,3.185c-7.109,2.127-10.424,10.861-14.55,16.306c-5.216,6.864-12.074,15.972-20.486,18.981
			c-1.195,0.426-2.344,0.44-3.08,0.244c0.148,0.038,0.439,0.259,0.557,0.611c-0.04-0.128-0.107-0.807-0.016-1.975
			c0.029-0.324,0.528-2.441,0.777-3.402c2.995-11.394,8.836-26.175-4.098-33.773c-11.682-6.86-38.066-5.227-42.58,9.896
			c-2.056,6.881,5.055,15.127,8.791,20.176c4.461,6.031,9.502,12.74,17.917,12.166c8.591-0.582,13.322-9.333,16.443-16.265
			c3.598-7.999,5.681-15.729,13.607-20.554c7.653-4.658,16.883-6.45,25.058-9.99c8.142-3.525,15.218-9.538,18.521-17.913
			c3.16-7.982,4.271-17.311,0.816-25.334c-3.964-9.201-15.081-8.333-22.636-5.11c-8.876,3.778-15.516,11.263-22.07,18.021
			c-3.37,3.471-7.26,6.728-11.922,8.244c-5.365,1.742-10.131-1.148-13.949-4.718c-5.237-4.886-5.2-8.745-3.109-15.464
			c2.121-6.787,5.495-13.145,8.271-19.673c5.421-12.753,9.436-27.766-3.508-37.339c-14.547-10.757-35.998-2.571-47.027,9.466
			c-5.756,6.288-8.715,14.972-5.644,23.21c2.97,7.971,10.689,13.201,17.96,16.966c6.256,3.237,17.774,7.748,23.959,1.934
			c2.999-2.816,3.947-6.843,6.452-9.969c3.774-4.702,13.122-4.108,18.48-4.816c20.621-2.719,42.075-8.402,49.967-29.837
			c5.314-14.418,4.419-33.874-4.972-46.462c-4.353-5.837-10.567-9.811-17.804-10.91c-4.232-0.642-8.832,4.59-4.705,8.084
			c2.271,1.925,3.379,4.598,3.482,7.555c0.045,1.118-0.15,2.437-0.881,3.327c-0.56,0.674-3.19,2.122-3.946,1.521
			c-2.558-2.021-2.416-8.098-2.729-11.029c-0.412-3.758-1.328-7.557-2.203-11.229c-1.801-7.542-4.855-16.369-12.791-19.226
			c-7.977-2.874-15.136,4.274-17.849,10.868c-2.871,6.984-2.189,15.352-2.31,22.737c-0.121,7.215-4.347,13.678-10.377,18.135
			c-2.695,1.99-6.729,4.139-10.126,2.652c-5.167-2.259-5.254-9.403-1.753-13.234c1.571-1.721,4.437-2.022,6.039-3.83
			c1.434-1.614,2.566-3.393,3.626-5.264c2.262-3.986,3.82-8.396,5.374-12.689c1.685-4.645,3.361-9.21,6.182-13.309
			c3.105-4.514,8.29-6.367,13.455-7.249C225.475,83.891,222.862,74.57,216.762,75.613L216.762,75.613z"/>
	</g>
	<g>
		<g>
			<g>
				<path fill="#31A24A" d="M144.464,193.323c1.444,0.813,1.955,2.644,1.138,4.082c-0.813,1.442-2.64,1.952-4.085,1.138
					c-1.437-0.813-1.948-2.642-1.135-4.084C141.195,193.019,143.025,192.507,144.464,193.323z"/>
				<path fill="#31A24A" d="M150.782,170.46c1.443,0.81,1.952,2.638,1.137,4.081c-0.814,1.441-2.644,1.953-4.085,1.136
					c-1.441-0.813-1.945-2.641-1.135-4.081C147.513,170.153,149.343,169.642,150.782,170.46z"/>
				<circle fill="#31A24A" cx="146.73" cy="177.635" r="2.997"/>
				<path fill="#31A24A" d="M140.996,188.166c1.441,0.818,1.949,2.648,1.135,4.09c-0.813,1.44-2.642,1.946-4.085,1.135
					c-1.439-0.815-1.951-2.645-1.135-4.087C137.726,187.862,139.553,187.356,140.996,188.166z"/>
				<path fill="#31A24A" d="M141.279,193.062c1.142,0.646,1.544,2.095,0.897,3.237c-0.642,1.143-2.09,1.54-3.231,0.898
					c-1.143-0.647-1.545-2.096-0.901-3.236C138.69,192.819,140.137,192.419,141.279,193.062z"/>
				<path fill="#31A24A" d="M143.663,172.211c0.508,0.286,0.689,0.936,0.402,1.445c-0.29,0.508-0.935,0.691-1.445,0.401
					c-0.512-0.29-0.692-0.934-0.402-1.446C142.502,172.101,143.15,171.923,143.663,172.211z"/>
				<path fill="#31A24A" d="M133.919,190.412c0.51,0.286,0.692,0.936,0.403,1.445c-0.292,0.509-0.938,0.69-1.447,0.402
					c-0.511-0.292-0.688-0.938-0.403-1.446C132.761,190.302,133.408,190.125,133.919,190.412z"/>
				<path fill="#31A24A" d="M136.252,193.522c0.779,0.439,1.052,1.431,0.614,2.211c-0.44,0.782-1.431,1.057-2.21,0.616
					c-0.783-0.44-1.059-1.431-0.621-2.213C134.479,193.355,135.47,193.081,136.252,193.522z"/>
				<path fill="#31A24A" d="M144.289,176.688c0.78,0.44,1.056,1.431,0.614,2.213c-0.443,0.779-1.431,1.055-2.213,0.614
					c-0.778-0.438-1.053-1.431-0.612-2.211C142.518,176.522,143.51,176.247,144.289,176.688z"/>
				<path fill="#31A24A" d="M154.269,171.53c1.845,1.042,2.499,3.384,1.453,5.231c-1.043,1.85-3.385,2.497-5.232,1.457
					c-1.846-1.041-2.5-3.388-1.457-5.231C150.077,171.137,152.421,170.486,154.269,171.53z"/>
				<path fill="#31A24A" d="M143.953,178.865c1.847,1.045,2.499,3.387,1.457,5.236c-1.042,1.847-3.387,2.496-5.232,1.455
					c-1.847-1.045-2.499-3.388-1.455-5.238C139.764,178.473,142.108,177.821,143.953,178.865z"/>
				<path fill="#31A24A" d="M139.335,182.853c1.847,1.043,2.5,3.39,1.455,5.233c-1.046,1.848-3.386,2.502-5.236,1.455
					c-1.847-1.04-2.497-3.382-1.454-5.231C135.145,182.462,137.489,181.811,139.335,182.853z"/>
				<polygon fill="#31A24A" points="145.366,197.956 158.427,188.603 156.156,175.428 149.032,172.987 136.916,185.867 
					139.927,192.728 				"/>
			</g>
			<path fill="#9BE770" d="M144.238,182.174c0.469,0.114,0.759,0.584,0.647,1.056c-0.114,0.471-0.585,0.762-1.055,0.651
				c-0.47-0.115-0.76-0.591-0.65-1.058C143.295,182.354,143.768,182.062,144.238,182.174z"/>
			<path fill="#9BE770" d="M147.18,177.728c0.869,0.213,1.407,1.088,1.2,1.961c-0.209,0.869-1.086,1.406-1.957,1.199
				c-0.874-0.208-1.414-1.086-1.203-1.957C145.432,178.057,146.305,177.52,147.18,177.728z"/>
			<path fill="#9BE770" d="M147.928,182.501c0.568,0.135,0.919,0.708,0.784,1.279c-0.136,0.571-0.708,0.922-1.278,0.786
				c-0.573-0.139-0.922-0.711-0.786-1.281C146.784,182.714,147.355,182.364,147.928,182.501z"/>
		</g>
		<path fill="#67C34D" d="M184.253,206.571c0,0-1.647-1.981-3.365-3.128c-1.71-1.146-2.301-2.393-3.465-4.884
			c-1.175-2.486-5.689-5.778-5.689-5.778l-1.213,1.993c0,0,3.553,2.395,3.962,3.744c0.414,1.354,1.906,4.653,3.654,5.664
			C179.881,205.19,184.253,206.571,184.253,206.571z"/>
		<path fill="#31A24A" d="M169.992,195.559c0,0,6.194,3.503,12.765,4.623c3.628,0.616,7.852,2.595,7.852,2.595
			s1.472-3.719-3.41-5.885c-4.874-2.172-6.994,0.472-10.439-0.834c-3.438-1.306-6.036-2.343-6.036-2.343L169.992,195.559z"/>
		<path fill="#31A24A" d="M166.644,187.314l3.913-6.516c0,0,14.177,8.154,22,12.662c1.751,1.014,3.187,1.841,4.071,2.352
			c4.816,2.79,7.285,4.253,7.285,4.253l-7.616,19.397l-10.58-5.633c0,0,1.237-5.791,1.288-10.017
			c0.047-4.228-8.053-7.962-11.302-10.091C172.458,191.595,166.644,187.314,166.644,187.314z"/>
		<path fill="#67C34D" d="M160.845,207.657c-0.025-0.294,0.826-1.439,0.826-1.439s2.529,1.09,4.688,0.933
			c2.157-0.157,4.484-1.428,4.484-1.428l5.799,2.736c0,0-5.436,1.784-9.738,0.846C162.602,208.369,160.845,207.657,160.845,207.657z
			"/>
		<path fill="#67C34D" d="M163.679,202.654l1.565-7.332c0,0,6.855,4.59,13.154,4.937c6.347,0.344,8.729-2.449,20.526,3.007
			l-1.836,16.598L163.679,202.654z"/>
		<g>
			<path fill="#9BE770" d="M197.626,219.615c-1.947-0.001-3.58-1.368-4.36-3.65c-0.921-2.679-0.525-6.647,2.519-9.018
				c2.031-1.581,3.032-3.468,3.833-4.98c0.722-1.357,1.242-2.336,2.153-2.364l0.165-0.003c1.565,0,2.771,0.672,3.306,1.848
				c0.667,1.451,0.226,3.332-1.144,4.912c-1.185,1.37-1.646,3.808-2.092,6.166c-0.669,3.555-1.306,6.914-4.125,7.082
				C197.795,219.613,197.711,219.615,197.626,219.615L197.626,219.615z"/>
			<path fill="#67C34D" d="M201.936,199.827c1.494,0,2.598,0.609,3.1,1.717c0.616,1.346,0.184,3.179-1.106,4.667
				c-1.227,1.416-1.696,3.884-2.146,6.27c-0.659,3.47-1.273,6.743-3.917,6.899c-0.083,0.004-0.163,0.005-0.242,0.005
				c-1.843,0-3.396-1.304-4.146-3.494c-0.894-2.605-0.513-6.466,2.444-8.767c2.071-1.609,3.081-3.517,3.897-5.05
				c0.753-1.422,1.215-2.222,1.958-2.245L201.936,199.827 M201.936,199.372c-0.055,0-0.115,0.001-0.171,0.003
				c-2.135,0.059-2.218,4.352-6.123,7.391c-5.207,4.054-3.208,13.077,1.984,13.077c0.089,0,0.177-0.002,0.27-0.008
				c5.006-0.297,3.525-10.037,6.377-13.324C206.985,203.384,205.907,199.372,201.936,199.372L201.936,199.372z"/>
		</g>
		<g>
			<circle fill="#67C34D" cx="175.146" cy="184.747" r="2.373"/>
			<circle fill="#67C34D" cx="173.224" cy="187.888" r="2.373"/>
			<path fill="#67C34D" d="M167.5,189.76c1.635,1.354,1.863,3.773,0.513,5.406c-1.351,1.639-3.771,1.868-5.409,0.517
				c-1.631-1.354-1.86-3.775-0.511-5.407C163.445,188.641,165.865,188.412,167.5,189.76z"/>
			<path fill="#67C34D" d="M172.245,187.847c1.632,1.354,1.859,3.771,0.513,5.408c-1.353,1.635-3.776,1.864-5.409,0.515
				c-1.638-1.354-1.869-3.779-0.514-5.409C168.187,186.726,170.606,186.495,172.245,187.847z"/>
			<path fill="#67C34D" d="M154.658,175.011c1.634,1.348,1.863,3.773,0.513,5.407c-1.351,1.637-3.774,1.866-5.407,0.51
				c-1.638-1.349-1.867-3.767-0.514-5.408C150.604,173.889,153.021,173.66,154.658,175.011z"/>
			<path fill="#67C34D" d="M170.006,161.802c0.647,1.523-0.057,3.283-1.579,3.936c-1.521,0.648-3.286-0.057-3.935-1.578
				c-0.651-1.523,0.057-3.286,1.577-3.937C167.593,159.576,169.356,160.279,170.006,161.802z"/>
			<path fill="#67C34D" d="M180.237,164.764c0.647,1.523-0.058,3.284-1.581,3.935c-1.523,0.649-3.282-0.055-3.932-1.578
				c-0.649-1.521,0.051-3.28,1.577-3.938C177.822,162.535,179.582,163.245,180.237,164.764z"/>
			<path fill="#67C34D" d="M182.639,172.297c0.65,1.521-0.055,3.284-1.579,3.933c-1.521,0.651-3.285-0.054-3.936-1.578
				c-0.65-1.521,0.061-3.283,1.582-3.935C180.226,170.066,181.991,170.775,182.639,172.297z"/>
			<path fill="#67C34D" d="M180.414,181.395c0.654,1.521-0.054,3.284-1.576,3.935c-1.525,0.651-3.285-0.059-3.933-1.58
				c-0.653-1.523,0.051-3.284,1.575-3.933C178.004,179.167,179.767,179.871,180.414,181.395z"/>
			<path fill="#67C34D" d="M154.851,181.736c1.274,1.055,1.455,2.943,0.396,4.217c-1.051,1.28-2.943,1.455-4.217,0.401
				c-1.275-1.055-1.455-2.942-0.401-4.219C151.686,180.856,153.577,180.682,154.851,181.736z"/>
			<path fill="#67C34D" d="M161.125,190.322c1.273,1.056,1.452,2.942,0.397,4.224c-1.054,1.273-2.944,1.455-4.221,0.396
				c-1.274-1.056-1.455-2.944-0.4-4.216C157.957,189.446,159.847,189.268,161.125,190.322z"/>
			<circle fill="#67C34D" cx="154.941" cy="187.36" r="2.373"/>
			<circle fill="#67C34D" cx="154.225" cy="169.995" r="2.373"/>
			<path fill="#67C34D" d="M181.61,177.117c0.515,1.205-0.049,2.597-1.25,3.115c-1.206,0.516-2.602-0.048-3.117-1.248
				c-0.51-1.208,0.045-2.604,1.252-3.117C179.701,175.353,181.094,175.909,181.61,177.117z"/>
			<circle fill="#67C34D" cx="183.677" cy="167.838" r="2.374"/>
			<circle fill="#67C34D" cx="152.894" cy="172.781" r="2.372"/>
			<circle fill="#67C34D" cx="175.535" cy="162.666" r="1.063"/>
			<circle fill="#67C34D" cx="170.218" cy="157.835" r="1.061"/>
			<path fill="#67C34D" d="M182.656,162.814c0.232,0.538-0.02,1.164-0.561,1.394c-0.537,0.231-1.159-0.021-1.389-0.562
				c-0.229-0.539,0.016-1.163,0.559-1.391C181.804,162.025,182.427,162.275,182.656,162.814z"/>
			<path fill="#67C34D" d="M161.748,185.252c1.635,1.35,1.869,3.771,0.516,5.409c-1.354,1.63-3.775,1.859-5.407,0.51
				c-1.634-1.351-1.866-3.774-0.514-5.409C157.697,184.127,160.116,183.896,161.748,185.252z"/>
			<path fill="#67C34D" d="M179.332,174.891c0.835,1.946-0.073,4.204-2.023,5.038c-1.952,0.834-4.209-0.073-5.042-2.021
				c-0.834-1.949,0.071-4.208,2.022-5.044C176.242,172.033,178.498,172.935,179.332,174.891z"/>
			<path fill="#67C34D" d="M161.753,166.562c0.834,1.951-0.075,4.209-2.022,5.042c-1.951,0.836-4.209-0.068-5.043-2.024
				c-0.833-1.946,0.072-4.205,2.025-5.038C158.664,163.707,160.918,164.615,161.753,166.562z"/>
			<path fill="#67C34D" d="M166.691,163.899c0.833,1.949-0.073,4.207-2.022,5.044c-1.952,0.832-4.211-0.074-5.043-2.028
				c-0.832-1.95,0.071-4.205,2.026-5.039C163.599,161.043,165.856,161.949,166.691,163.899z"/>
			<path fill="#67C34D" d="M175.686,162.704c0.835,1.948-0.072,4.205-2.021,5.041c-1.951,0.833-4.211-0.073-5.042-2.024
				c-0.834-1.949,0.071-4.208,2.021-5.042C172.598,159.844,174.851,160.748,175.686,162.704z"/>
			<path fill="#67C34D" d="M180.702,168.713c0.833,1.948-0.075,4.204-2.025,5.04c-1.951,0.833-4.209-0.073-5.042-2.024
				c-0.837-1.949,0.072-4.208,2.022-5.042C177.607,165.855,179.867,166.76,180.702,168.713z"/>
			<polygon fill="#67C34D" points="165.052,192.72 172.245,187.847 176.618,183.731 178.286,174.656 176.842,166.407 
				172.103,162.731 160.434,165.967 152.713,171.823 152.446,178.566 154.465,185.829 			"/>
		</g>
		<path fill="#31A24A" d="M184.815,190.618c0,0,0.697-2.65-1.423-5.359c-2.117-2.712-3.835-3.939-3.835-3.939l0.287-0.692
			c0,0,4.681,2.155,6.478,5.642c1.308,2.543,2.044,6.536,2.044,6.536L184.815,190.618z"/>
		<path fill="#31A24A" d="M174.517,164.914c1.272,0.306,2.06,1.585,1.756,2.858c-0.306,1.273-1.586,2.061-2.864,1.756
			c-1.273-0.305-2.059-1.587-1.756-2.859C171.96,165.392,173.242,164.609,174.517,164.914z"/>
		<path fill="#31A24A" d="M166.505,165.431c0.901,0.214,1.454,1.118,1.241,2.018c-0.216,0.903-1.123,1.455-2.024,1.242
			c-0.901-0.216-1.455-1.121-1.239-2.022C164.698,165.768,165.608,165.212,166.505,165.431z"/>
		<g>
			<g>
				<polyline fill="#9BE770" points="159.518,215.099 165.116,211.816 167.086,209.206 165.378,205.522 164.167,200.954 
					167.368,196.202 169.512,191.87 159.785,189.386 155.26,189.531 149.731,189.803 147.872,192.001 145.434,192.653 
					141.184,195.1 139.271,199.203 141.851,202.778 141.54,208.096 145.259,211.876 146.614,215.862 151.143,218.682 
					158.925,215.148 				"/>
				<g>
					<path fill="#9BE770" d="M147.265,190.362c1.61,0.387,2.602,2.003,2.22,3.613c-0.388,1.61-2.006,2.603-3.616,2.218
						c-1.61-0.388-2.604-2.005-2.218-3.616C144.038,190.971,145.656,189.976,147.265,190.362z"/>
					<path fill="#9BE770" d="M150.122,187.565c1.611,0.386,2.603,2.003,2.218,3.616c-0.389,1.61-2.006,2.602-3.614,2.216
						c-1.609-0.383-2.603-2.006-2.215-3.614C146.896,188.172,148.512,187.177,150.122,187.565z"/>
					<path fill="#9BE770" d="M142.557,205.994c1.608,0.387,2.602,2.004,2.214,3.615c-0.385,1.612-2.001,2.603-3.61,2.217
						c-1.61-0.388-2.605-2.004-2.218-3.616C139.332,206.6,140.946,205.606,142.557,205.994z"/>
					<path fill="#9BE770" d="M149.503,216.425c1.137-1.202,3.034-1.252,4.24-0.114c1.204,1.136,1.255,3.034,0.119,4.234
						c-1.138,1.205-3.031,1.257-4.237,0.123C148.42,219.529,148.368,217.634,149.503,216.425z"/>
					<path fill="#9BE770" d="M165.173,203.97c1.61,0.387,2.604,2.005,2.215,3.613c-0.385,1.609-2,2.599-3.608,2.215
						c-1.614-0.385-2.605-2-2.219-3.61C161.948,204.578,163.565,203.585,165.173,203.97z"/>
					<path fill="#9BE770" d="M165.127,209.092c1.612,0.388,2.604,2,2.216,3.614c-0.384,1.609-2.004,2.602-3.614,2.214
						c-1.608-0.384-2.601-2.005-2.214-3.609C161.899,209.7,163.514,208.707,165.127,209.092z"/>
					<path fill="#9BE770" d="M141.566,193.651c1.273,0.302,2.059,1.587,1.753,2.862c-0.305,1.274-1.588,2.061-2.86,1.757
						c-1.276-0.308-2.06-1.588-1.755-2.866C139.01,194.134,140.288,193.344,141.566,193.651z"/>
					<circle fill="#9BE770" cx="137.197" cy="205.321" r="2.373"/>
					<path fill="#9BE770" d="M139.821,196.897c1.278,0.306,2.063,1.586,1.757,2.859c-0.304,1.273-1.586,2.059-2.861,1.752
						c-1.272-0.304-2.056-1.583-1.753-2.856C137.27,197.376,138.551,196.592,139.821,196.897z"/>
					<path fill="#9BE770" d="M154.482,215.847c0.9-0.955,2.401-0.993,3.355-0.093c0.949,0.898,0.995,2.402,0.094,3.353
						c-0.903,0.955-2.405,0.993-3.357,0.094C153.624,218.302,153.583,216.798,154.482,215.847z"/>
					<path fill="#9BE770" d="M166.79,197.515c1.276,0.305,2.058,1.585,1.753,2.857c-0.304,1.273-1.584,2.062-2.859,1.757
						c-1.272-0.306-2.059-1.585-1.754-2.859C164.236,197.991,165.515,197.21,166.79,197.515z"/>
					<path fill="#9BE770" d="M165.765,200.574c1.274,0.305,2.059,1.586,1.753,2.86c-0.302,1.272-1.586,2.062-2.862,1.756
						c-1.272-0.305-2.062-1.587-1.753-2.862C163.207,201.052,164.488,200.268,165.765,200.574z"/>
					<path fill="#9BE770" d="M161.948,187.448c1.271,0.306,2.06,1.587,1.755,2.86c-0.308,1.276-1.586,2.059-2.865,1.754
						c-1.273-0.304-2.059-1.583-1.753-2.856C159.39,187.928,160.671,187.147,161.948,187.448z"/>
					<path fill="#9BE770" d="M153.63,186.178c1.272,0.305,2.062,1.59,1.753,2.861c-0.302,1.272-1.583,2.062-2.857,1.755
						c-1.277-0.304-2.063-1.585-1.754-2.862C151.073,186.658,152.358,185.875,153.63,186.178z"/>
					<path fill="#9BE770" d="M143.729,191.86c0.872,0.207,1.41,1.086,1.199,1.955c-0.207,0.873-1.084,1.413-1.958,1.199
						c-0.87-0.208-1.406-1.08-1.198-1.956C141.978,192.189,142.857,191.652,143.729,191.86z"/>
					<path fill="#9BE770" d="M140.435,212.838c0.875,0.211,1.411,1.087,1.201,1.961c-0.21,0.87-1.087,1.408-1.959,1.198
						c-0.87-0.207-1.407-1.085-1.2-1.954C138.686,213.168,139.564,212.629,140.435,212.838z"/>
					<path fill="#9BE770" d="M155.787,221.14c0.567,0.141,0.92,0.711,0.783,1.285c-0.139,0.568-0.708,0.919-1.279,0.781
						c-0.57-0.136-0.925-0.709-0.786-1.279C154.643,221.357,155.215,221.005,155.787,221.14z"/>
					<path fill="#9BE770" d="M161.858,218.979c0.789,0.181,1.266,0.974,1.083,1.76c-0.19,0.78-0.979,1.265-1.762,1.081
						c-0.786-0.192-1.267-0.984-1.081-1.763C160.289,219.272,161.073,218.786,161.858,218.979z"/>
					<path fill="#9BE770" d="M145.587,209.838c0.87,0.207,1.408,1.087,1.201,1.953c-0.21,0.876-1.087,1.414-1.959,1.203
						c-0.873-0.209-1.408-1.083-1.201-1.958C143.837,210.166,144.713,209.631,145.587,209.838z"/>
					<path fill="#9BE770" d="M167.336,208.177c0.875,0.206,1.411,1.082,1.2,1.955c-0.207,0.875-1.083,1.409-1.954,1.201
						c-0.875-0.209-1.41-1.085-1.2-1.958C165.59,208.503,166.467,207.964,167.336,208.177z"/>
					<path fill="#9BE770" d="M144.189,199.448c2.063,0.497,3.336,2.569,2.84,4.631c-0.496,2.061-2.569,3.337-4.629,2.839
						c-2.061-0.491-3.335-2.565-2.839-4.626C140.051,200.226,142.127,198.957,144.189,199.448z"/>
					<path fill="#9BE770" d="M144.01,212.691c1.458-1.538,3.887-1.607,5.432-0.151c1.539,1.459,1.607,3.89,0.149,5.43
						c-1.457,1.542-3.885,1.61-5.43,0.15C142.622,216.662,142.555,214.233,144.01,212.691z"/>
					<circle fill="#9BE770" cx="160.423" cy="214.289" r="3.84"/>
					<path fill="#9BE770" d="M161.652,188.695c1.458-1.537,3.889-1.606,5.429-0.152c1.541,1.458,1.608,3.89,0.153,5.432
						c-1.459,1.54-3.888,1.61-5.431,0.153C160.26,192.669,160.197,190.238,161.652,188.695z"/>
					<path fill="#9BE770" d="M155.215,186.284c1.457-1.541,3.889-1.609,5.432-0.151c1.54,1.461,1.608,3.89,0.153,5.432
						c-1.46,1.541-3.895,1.61-5.435,0.151C153.825,190.258,153.757,187.826,155.215,186.284z"/>
					<path fill="#9BE770" d="M168.435,190.339c2.06,0.491,3.333,2.561,2.835,4.627c-0.489,2.064-2.564,3.332-4.626,2.841
						c-2.064-0.496-3.333-2.568-2.84-4.629C164.298,191.116,166.369,189.841,168.435,190.339z"/>
				</g>
			</g>
			<path fill="#31A24A" d="M151.071,209.805c1.271,0.307,2.059,1.588,1.753,2.864c-0.305,1.274-1.587,2.062-2.863,1.757
				c-1.272-0.307-2.059-1.591-1.753-2.863C148.512,210.29,149.792,209.502,151.071,209.805z"/>
			<circle fill="#31A24A" cx="155.214" cy="214.479" r="1.298"/>
			<path fill="#31A24A" d="M155.994,207.532c0.901,0.211,1.458,1.118,1.243,2.021c-0.216,0.898-1.125,1.455-2.022,1.236
				c-0.901-0.213-1.46-1.117-1.241-2.018C154.189,207.874,155.096,207.316,155.994,207.532z"/>
			<path fill="#31A24A" d="M160.572,210.531c0.456,0.104,0.734,0.561,0.628,1.018c-0.113,0.453-0.571,0.738-1.024,0.627
				c-0.454-0.106-0.732-0.563-0.628-1.02C159.659,210.7,160.118,210.418,160.572,210.531z"/>
			<path fill="#31A24A" d="M151.494,216.201c0.5,0.122,0.808,0.618,0.688,1.119c-0.118,0.495-0.621,0.802-1.116,0.687
				c-0.503-0.122-0.81-0.621-0.687-1.122C150.497,216.389,150.997,216.082,151.494,216.201z"/>
			<path fill="#31A24A" d="M151.942,206.846c0.499,0.123,0.806,0.621,0.685,1.118c-0.116,0.5-0.62,0.806-1.115,0.686
				c-0.5-0.118-0.807-0.617-0.681-1.118C150.945,207.037,151.447,206.73,151.942,206.846z"/>
		</g>
		<path fill="#31A24A" d="M169.566,163.922c0.495,0.116,0.801,0.62,0.685,1.118c-0.121,0.497-0.62,0.804-1.12,0.683
			c-0.5-0.12-0.804-0.62-0.684-1.114C168.566,164.106,169.063,163.8,169.566,163.922z"/>
		<path fill="#31A24A" d="M169.443,167.453c0.498,0.124,0.806,0.624,0.686,1.122c-0.119,0.497-0.616,0.801-1.119,0.686
			c-0.497-0.122-0.801-0.621-0.684-1.123C168.445,167.644,168.947,167.34,169.443,167.453z"/>
		<path fill="#31A24A" d="M168,170.918c0.496,0.114,0.806,0.618,0.683,1.113c-0.115,0.5-0.615,0.808-1.114,0.687
			c-0.499-0.117-0.803-0.621-0.685-1.116C167.003,171.101,167.504,170.795,168,170.918z"/>
	</g>
	<g>
		<path fill="#67C34D" d="M260.046,183.051c0.477-0.799,4.073,4.711,4.073,4.711s-4.994,9.381-4.594,15.561
			c0.55,8.535,6.527,7.569,5.158,15.249c-0.985,5.561-13.785,20.228-13.785,20.228l-11.334,2.628c0,0,7.74-18.593,9.072-27.343
			C250.344,202.87,249.987,199.96,260.046,183.051z"/>
		<path fill="#67C34D" d="M269.114,192.327c-1.136,1.89-2.851,3.78-5.271,4.752c-2.732,1.1-6.272,1.479-7.229,4.316l-1.394,8.011
			l2.374,0.003c0,0,0.259-3.619,1.932-6.087c1.675-2.463,5.396-2.099,7.968-5.45c2.561-3.355,3.314-4.444,3.314-4.444
			L269.114,192.327z"/>
		<path fill="#31A24A" d="M282.42,197.312l3.388,11.987c0,0-18.02,19.862-20.743,26.807c-2.731,6.944-6.146,13.705-6.146,13.705
			l-8.02-11.012l-3.914-2.929c0,0,7.751-15.907,15.786-20.438C270.858,210.869,273.811,210.949,282.42,197.312z"/>
		<path fill="#117F36" d="M265.065,236.106c2.724-6.945,20.743-26.807,20.743-26.807l-0.98-3.474l-0.419-0.634
			c0,0-12.242,9.723-17.679,16.755c-5.449,7.027-12.382,21.08-12.382,21.08s3.778,2.082,5.829,5.113
			C261.217,246.247,262.563,242.476,265.065,236.106z"/>
		<path fill="#117F36" d="M287.878,213.666l2.175,3.281c0,0-8.615,8.129-11.975,9.108c-3.369,0.997-8.046,0.968-8.046,0.968
			l4.974-7.555c0,0,1.39,1.567,5.491-0.265C284.596,217.37,287.878,213.666,287.878,213.666z"/>
		<path fill="#31A24A" d="M254.383,178.772l1.289,0.402c0,0-0.809,2.586,0.047,4.938c0.841,2.352,2.243,3.152,2.243,3.152
			s0.437,1.454-0.049,3.026c-0.474,1.572-1.951,1.924-1.951,1.924s-2.736-4.963-2.438-7.838
			C253.824,181.502,254.383,178.772,254.383,178.772z"/>
		<g>
			<path fill="#67C34D" d="M257.095,250.33c-0.708,0-1.611-0.399-2.905-1.306c-2.214-1.539-4.687-1.614-7.319-1.684
				c-0.764-0.023-1.538-0.047-2.318-0.11c-1.469-0.113-2.859-0.938-3.812-2.28c-0.808-1.136-1.169-2.494-0.92-3.462
				c0.525-2.006,2.081-5.371,6.604-5.371c0.181,0,0.363,0.006,0.545,0.018c2.124,0.124,2.915,0.886,4.107,2.022
				c1.122,1.067,2.515,2.396,5.531,3.728c2.293,1.004,3.549,2.328,3.73,3.946c0.193,1.793-1.005,3.336-1.58,3.761
				C258.174,250.023,257.711,250.33,257.095,250.33L257.095,250.33z"/>
			<path fill="#31A24A" d="M246.425,236.393c0.174,0,0.354,0.006,0.526,0.017c2.03,0.117,2.791,0.841,3.947,1.943
				c1.127,1.084,2.543,2.43,5.605,3.772c2.191,0.97,3.394,2.218,3.561,3.73c0.18,1.588-0.867,3.073-1.466,3.515
				c-0.54,0.41-0.976,0.693-1.504,0.693c-0.645,0-1.516-0.4-2.753-1.265c-2.273-1.577-4.799-1.654-7.463-1.726
				c-0.753-0.021-1.534-0.046-2.304-0.109c-1.396-0.104-2.71-0.896-3.612-2.171c-0.767-1.071-1.115-2.344-0.878-3.233
				C240.582,239.624,242.073,236.393,246.425,236.393 M246.425,235.853c-3.902,0-6.052,2.478-6.86,5.574
				c-0.556,2.135,1.57,5.805,4.966,6.077c3.41,0.259,6.721-0.202,9.506,1.732c1.423,0.995,2.338,1.358,3.059,1.358
				c0.688,0,1.209-0.331,1.823-0.784c1.261-0.932,4.018-5.445-2.206-8.179c-6.22-2.729-5.466-5.517-9.728-5.762
				C246.792,235.859,246.609,235.853,246.425,235.853L246.425,235.853z"/>
		</g>
		<g>
			<path fill="#31A24A" d="M253.029,149.031c0.335-0.595,0.138-1.358-0.458-1.7c-0.604-0.347-1.365-0.144-1.705,0.457
				c-0.348,0.596-0.136,1.358,0.457,1.703C251.919,149.834,252.683,149.628,253.029,149.031z"/>
			<path fill="#31A24A" d="M315.49,172.935c-0.602-0.34-1.365-0.134-1.703,0.458c-0.344,0.601-0.136,1.361,0.459,1.708
				c0.598,0.341,1.361,0.136,1.703-0.459C316.291,174.046,316.09,173.284,315.49,172.935z"/>
			<path fill="#31A24A" d="M256.867,144.85c0.911,0.522,2.086,0.209,2.607-0.707c0.527-0.913,0.215-2.077-0.699-2.602
				c-0.911-0.527-2.084-0.212-2.609,0.699C255.635,143.156,255.95,144.323,256.867,144.85z"/>
			<path fill="#31A24A" d="M295.985,135.296c0.914,0.525,2.077,0.212,2.604-0.704c0.526-0.912,0.208-2.081-0.705-2.603
				c-0.914-0.524-2.073-0.213-2.606,0.7C294.759,133.605,295.071,134.77,295.985,135.296z"/>
			<path fill="#31A24A" d="M312.744,178.599c-1.146-0.658-2.599-0.267-3.259,0.876c-0.661,1.144-0.259,2.602,0.876,3.258
				c1.146,0.657,2.604,0.26,3.261-0.879C314.277,180.711,313.882,179.253,312.744,178.599z"/>
			<path fill="#31A24A" d="M310.499,165.708c-0.119-0.071-0.242-0.107-0.361-0.167c0.066-0.083,0.135-0.172,0.188-0.27
				c0.528-0.914,0.214-2.082-0.703-2.607c-0.118-0.07-0.239-0.123-0.372-0.166c0.003-0.002,0.003-0.002,0.005-0.004
				c0.514-0.891,0.467-1.941-0.01-2.772c0.142-0.102,0.257-0.225,0.34-0.381c0.348-0.597,0.137-1.357-0.455-1.704
				c-0.039-0.025-0.085-0.025-0.136-0.042c0.265-1.16-0.22-2.406-1.304-3.03c0.083-0.516,0.081-1.031-0.002-1.537
				c0.383-0.331,0.738-0.72,1.007-1.191c1.245-2.158,0.501-4.919-1.662-6.165c-0.993-0.569-2.117-0.701-3.159-0.486
				c-0.033-0.547-0.248-1.069-0.602-1.493c0.549-1.568-0.075-3.359-1.568-4.217c-1.295-0.744-2.854-0.566-3.957,0.314
				c-0.086-0.291-0.27-0.546-0.554-0.706c-0.434-0.25-0.943-0.202-1.331,0.061c-0.162-0.263-0.372-0.492-0.658-0.656
				c-0.46-0.264-0.991-0.314-1.468-0.183c-0.322-1.059-1.018-2.01-2.056-2.605c-0.749-0.435-1.583-0.612-2.392-0.584
				c0.125-0.761-0.218-1.556-0.925-1.96c-0.913-0.527-2.087-0.212-2.608,0.702c-0.174,0.305-0.256,0.641-0.248,0.974
				c-0.03-0.021-0.063-0.053-0.101-0.071c-1.333-0.769-3.041-0.311-3.811,1.024c-0.031,0.057-0.051,0.12-0.076,0.177
				c-0.143-0.162-0.305-0.309-0.499-0.424c-0.814-0.466-1.826-0.263-2.403,0.429c-0.271-0.409-0.609-0.767-1.061-1.027
				c-1.499-0.858-3.403-0.342-4.263,1.152c-0.104,0.176-0.179,0.358-0.248,0.545c-0.726,0.008-1.428,0.384-1.821,1.059
				c-0.19,0.327-0.266,0.684-0.27,1.034c-1.051-0.006-2.076,0.508-2.674,1.451c-0.19-0.205-0.412-0.392-0.67-0.54
				c-1.49-0.861-3.402-0.346-4.257,1.146c-0.374,0.645-0.472,1.361-0.366,2.037c-0.534,0.092-1.042,0.407-1.335,0.923
				c-0.159,0.275-0.234,0.57-0.245,0.863c-1.062-0.103-2.133,0.396-2.699,1.381c-0.077,0.133-0.135,0.27-0.188,0.413
				c-1.254-0.486-2.718-0.004-3.407,1.204c-0.449,0.783-0.471,1.69-0.144,2.464c-0.947,0.284-1.792,0.908-2.325,1.83
				c-0.421,0.732-0.582,1.532-0.522,2.315c-1.381-0.004-2.743,0.701-3.482,1.99c-1.095,1.915-0.442,4.361,1.478,5.46
				c0.278,0.163,0.571,0.275,0.865,0.362c-0.056,0.351-0.034,0.702,0.05,1.043c-0.885,0.08-1.706,0.563-2.182,1.385
				c-0.298,0.522-0.4,1.095-0.36,1.653c-0.998-0.04-1.996,0.452-2.529,1.386c-0.766,1.334-0.306,3.041,1.025,3.809
				c0.231,0.125,0.463,0.209,0.711,0.27c-0.906,1.672-0.315,3.765,1.336,4.711c0.414,0.24,0.853,0.382,1.297,0.445
				c-0.232,1.091,0.234,2.259,1.258,2.847c0.781,0.45,1.694,0.452,2.454,0.094c0.169,0.671,0.593,1.279,1.241,1.652
				c0.584,0.336,1.244,0.415,1.855,0.284c-0.047,1.011,0.449,2.014,1.38,2.551c0.386,0.221,0.793,0.332,1.216,0.352
				c-0.446,1.245,0.046,2.66,1.229,3.342c0.775,0.448,1.669,0.467,2.439,0.152c-0.209,1.399,0.426,2.847,1.72,3.592
				c1.068,0.613,2.319,0.603,3.336,0.091c0.183,0.985,0.762,1.884,1.695,2.423c1.243,0.714,2.729,0.585,3.821-0.203
				c0.266,0.772,0.793,1.462,1.559,1.9c1.547,0.887,3.476,0.461,4.534-0.916c0.382,0.807,0.997,1.514,1.83,1.996
				c1.974,1.134,4.432,0.598,5.791-1.144c0.157,0.127,0.319,0.253,0.506,0.356c1.561,0.901,3.526,0.453,4.574-0.964
				c0.08,0.306,0.282,0.584,0.581,0.76c0.597,0.343,1.358,0.136,1.708-0.461c0.105-0.192,0.142-0.399,0.146-0.604
				c0.676,0.022,1.353-0.316,1.714-0.948c0.324-0.566,0.324-1.231,0.063-1.778c0.962-0.155,1.834-0.696,2.391-1.568
				c0.039,0.023,0.07,0.054,0.109,0.075c2.154,1.246,4.915,0.502,6.158-1.661c0.763-1.327,0.772-2.874,0.17-4.167
				c0.389-0.235,0.729-0.557,0.974-0.978c0.589-1.027,0.451-2.269-0.253-3.134c0.251-0.104,0.466-0.268,0.606-0.513
				c0.342-0.589,0.142-1.333-0.434-1.682c0.229-0.156,0.426-0.363,0.571-0.611c0.181-0.319,0.263-0.674,0.253-1.015
				c0.754-0.152,1.439-0.609,1.86-1.33c0.305-0.525,0.405-1.104,0.347-1.663c0.991-0.343,1.867-1.013,2.427-1.99
				C313.406,169.712,312.662,166.955,310.499,165.708z M293.519,193.677c-0.047,0.018-0.092,0.038-0.124,0.059
				c0.01-0.083,0.04-0.166,0.048-0.245C293.466,193.553,293.491,193.615,293.519,193.677z"/>
		</g>
		<path fill="#117F36" d="M268.46,191.69c0.183,0.985,0.762,1.884,1.695,2.423c1.243,0.714,2.729,0.585,3.821-0.203
			c0.266,0.772,0.793,1.462,1.559,1.9c1.547,0.887,3.476,0.461,4.534-0.916c0.382,0.807,0.997,1.514,1.83,1.996
			c1.974,1.134,4.432,0.598,5.791-1.144c0.157,0.127,0.319,0.253,0.506,0.356c1.561,0.901,3.526,0.453,4.574-0.964
			c0.08,0.306,0.282,0.584,0.581,0.76c0.597,0.343,1.358,0.136,1.708-0.461c0.105-0.192,0.142-0.399,0.146-0.604
			c0.676,0.022,1.353-0.316,1.714-0.948c0.324-0.566,0.324-1.231,0.063-1.778c0.962-0.155,1.834-0.696,2.391-1.568
			c0.039,0.023,0.07,0.054,0.109,0.075c2.154,1.246,4.915,0.502,6.158-1.661c0.763-1.327,0.772-2.874,0.17-4.167
			c0.389-0.235,0.729-0.557,0.974-0.978c0.589-1.027,0.451-2.269-0.253-3.134c0.251-0.104,0.466-0.268,0.606-0.513
			c0.342-0.589,0.142-1.333-0.434-1.682c0.229-0.156,0.426-0.363,0.571-0.611c0.181-0.319,0.263-0.674,0.253-1.015
			c0.754-0.152,1.439-0.609,1.86-1.33c0.305-0.525,0.405-1.104,0.347-1.663c0.991-0.343,1.867-1.013,2.427-1.99
			c1.244-2.16,0.5-4.917-1.663-6.164c-0.119-0.071-0.242-0.107-0.361-0.167c0.066-0.083,0.135-0.172,0.188-0.27
			c0.528-0.914,0.214-2.082-0.703-2.607c-0.118-0.07-0.239-0.123-0.372-0.166c0.003-0.002,0.003-0.002,0.005-0.004
			c0.514-0.891,0.467-1.941-0.01-2.772c0.142-0.102,0.257-0.225,0.34-0.381c0.348-0.597,0.137-1.357-0.455-1.704
			c-0.039-0.025-0.085-0.025-0.136-0.042c0.265-1.16-0.22-2.406-1.304-3.03c0.054-0.357,0.058-0.707,0.034-1.061
			c-15.837,4.524-49.381,14.097-61.236,17.432c0.151,0.135,0.313,0.262,0.499,0.369c0.231,0.125,0.463,0.209,0.711,0.27
			c-0.906,1.672-0.315,3.765,1.336,4.711c0.414,0.24,0.853,0.382,1.297,0.445c-0.232,1.091,0.234,2.259,1.258,2.847
			c0.781,0.45,1.694,0.452,2.454,0.094c0.169,0.671,0.593,1.279,1.241,1.652c0.584,0.336,1.244,0.415,1.855,0.284
			c-0.047,1.011,0.449,2.014,1.38,2.551c0.386,0.221,0.793,0.332,1.216,0.352c-0.446,1.245,0.046,2.66,1.229,3.342
			c0.775,0.448,1.669,0.467,2.439,0.152c-0.209,1.399,0.426,2.847,1.72,3.592C266.193,192.211,267.444,192.201,268.46,191.69z
			 M293.443,193.49c0.023,0.063,0.049,0.125,0.076,0.186c-0.047,0.018-0.092,0.038-0.124,0.059
			C293.405,193.653,293.435,193.57,293.443,193.49z"/>
		<path fill="#67C34D" d="M260.882,171.08c-0.977,1.686-3.125,2.266-4.809,1.297c-1.687-0.973-2.274-3.125-1.304-4.813
			c0.974-1.686,3.132-2.267,4.815-1.297C261.266,167.236,261.856,169.394,260.882,171.08z"/>
		<path fill="#67C34D" d="M298.327,181.571c-0.768,1.335-2.473,1.793-3.807,1.025c-1.333-0.767-1.795-2.473-1.025-3.808
			c0.768-1.336,2.476-1.795,3.805-1.027C298.635,178.528,299.097,180.237,298.327,181.571z"/>
		<path fill="#67C34D" d="M277.057,183.22c-0.767,1.336-2.476,1.796-3.807,1.029c-1.334-0.77-1.791-2.476-1.027-3.811
			c0.769-1.337,2.467-1.796,3.809-1.027C277.367,180.178,277.828,181.889,277.057,183.22z"/>
		<path fill="#67C34D" d="M256.795,158.823c-0.346,0.598-1.107,0.799-1.706,0.457c-0.592-0.342-0.804-1.109-0.458-1.704
			c0.348-0.598,1.109-0.8,1.704-0.458C256.932,157.462,257.141,158.224,256.795,158.823z"/>
		<path fill="#67C34D" d="M298.294,164.399c-0.339,0.6-1.1,0.809-1.7,0.462c-0.598-0.341-0.802-1.105-0.457-1.704
			c0.336-0.594,1.101-0.804,1.695-0.457C298.434,163.041,298.639,163.804,298.294,164.399z"/>
		<path fill="#67C34D" d="M293.171,186.861c-0.346,0.597-1.108,0.802-1.703,0.456c-0.598-0.341-0.805-1.105-0.462-1.701
			c0.346-0.596,1.111-0.807,1.705-0.459C293.309,185.497,293.519,186.26,293.171,186.861z"/>
		<path fill="#67C34D" d="M261.603,177.846c-0.34,0.596-1.104,0.801-1.704,0.46c-0.601-0.347-0.802-1.111-0.462-1.706
			c0.346-0.598,1.107-0.802,1.705-0.458C261.739,176.487,261.947,177.25,261.603,177.846z"/>
		<path fill="#67C34D" d="M289.415,176.906c-0.345,0.596-1.11,0.804-1.707,0.457c-0.598-0.341-0.807-1.103-0.458-1.701
			c0.347-0.599,1.107-0.803,1.704-0.459C289.551,175.543,289.752,176.309,289.415,176.906z"/>
		<path fill="#67C34D" d="M275.323,188.957c-0.521,0.913-1.691,1.229-2.604,0.707c-0.916-0.526-1.23-1.696-0.699-2.609
			c0.521-0.915,1.689-1.229,2.604-0.707C275.541,186.876,275.854,188.042,275.323,188.957z"/>
		<path fill="#67C34D" d="M266.071,172.585c-0.531,0.91-1.694,1.226-2.608,0.699c-0.913-0.524-1.229-1.694-0.701-2.606
			c0.522-0.916,1.696-1.23,2.61-0.704C266.283,170.5,266.596,171.668,266.071,172.585z"/>
		<path fill="#67C34D" d="M281.58,186.247c-0.521,0.913-1.691,1.228-2.606,0.701c-0.913-0.522-1.227-1.688-0.698-2.604
			c0.518-0.914,1.692-1.227,2.605-0.701C281.796,184.167,282.111,185.333,281.58,186.247z"/>
		<path fill="#31A24A" d="M259.526,203.323c-0.4-6.18,4.594-15.561,4.594-15.561s-0.787-1.204-1.669-2.404
			c-0.1,0.188-0.187,0.363-0.278,0.559c-5.674,11.855-6.09,23.177-4.104,30.542c0.936,3.48,2.161,6.609,3.195,8.946
			c1.761-2.668,5.806-6.529,5.789-8.226C266.978,210.321,260.075,211.858,259.526,203.323z"/>
		<g>
			<g>
				<path fill="#67C34D" d="M278.324,195.594c-0.969,1.689-3.124,2.269-4.809,1.299c-1.69-0.97-2.268-3.125-1.295-4.811
					c0.963-1.69,3.12-2.269,4.805-1.299C278.714,191.751,279.293,193.907,278.324,195.594z"/>
				<path fill="#67C34D" d="M282.509,189.279c-0.975,1.687-3.122,2.267-4.807,1.297c-1.69-0.969-2.272-3.125-1.303-4.813
					c0.972-1.684,3.129-2.264,4.815-1.296C282.897,185.436,283.483,187.594,282.509,189.279z"/>
				<path fill="#67C34D" d="M295.019,189.613c-0.974,1.687-3.13,2.271-4.814,1.297c-1.681-0.97-2.269-3.125-1.299-4.808
					c0.976-1.686,3.127-2.27,4.812-1.298C295.401,185.773,295.99,187.928,295.019,189.613z"/>
				<path fill="#67C34D" d="M302.267,193.788c-0.965,1.683-3.119,2.267-4.804,1.296c-1.69-0.972-2.269-3.123-1.304-4.81
					c0.97-1.687,3.126-2.269,4.815-1.297C302.659,189.947,303.242,192.101,302.267,193.788z"/>
				<path fill="#67C34D" d="M306.539,195.564c-0.967,1.686-3.119,2.269-4.809,1.298c-1.688-0.97-2.264-3.125-1.301-4.813
					c0.972-1.685,3.125-2.265,4.814-1.296C306.93,191.726,307.513,193.878,306.539,195.564z"/>
				<path fill="#67C34D" d="M317.563,205.63c-0.975,1.687-3.127,2.267-4.813,1.299c-1.684-0.967-2.269-3.126-1.301-4.813
					c0.977-1.687,3.129-2.266,4.814-1.297C317.949,201.79,318.533,203.945,317.563,205.63z"/>
				<path fill="#67C34D" d="M317.891,215.218c-0.976,1.689-3.128,2.267-4.816,1.299c-1.684-0.968-2.267-3.125-1.292-4.813
					c0.968-1.686,3.117-2.267,4.806-1.299C318.276,211.38,318.858,213.531,317.891,215.218z"/>
				<path fill="#67C34D" d="M279.12,198.257c-0.961,1.685-3.12,2.265-4.806,1.294c-1.688-0.968-2.264-3.122-1.305-4.811
					c0.973-1.686,3.128-2.265,4.818-1.298C279.515,194.413,280.096,196.569,279.12,198.257z"/>
				<path fill="#67C34D" d="M283.661,200.442c-0.962,1.689-3.119,2.267-4.808,1.299c-1.687-0.97-2.264-3.125-1.295-4.812
					c0.969-1.687,3.122-2.268,4.809-1.302C284.054,196.606,284.631,198.756,283.661,200.442z"/>
				<path fill="#67C34D" d="M309.092,221.166c-0.972,1.688-3.124,2.268-4.813,1.297c-1.688-0.97-2.27-3.123-1.296-4.811
					c0.968-1.688,3.12-2.267,4.811-1.299C309.48,217.328,310.06,219.478,309.092,221.166z"/>
				<path fill="#67C34D" d="M297.98,191.446c-0.766,1.339-2.466,1.799-3.808,1.029c-1.331-0.767-1.794-2.479-1.024-3.809
					c0.766-1.339,2.472-1.798,3.808-1.029C298.287,188.405,298.747,190.114,297.98,191.446z"/>
				<path fill="#67C34D" d="M311.32,199.625c-0.77,1.334-2.476,1.796-3.809,1.025c-1.333-0.766-1.793-2.47-1.025-3.808
					c0.766-1.333,2.47-1.791,3.809-1.024C311.624,196.585,312.085,198.29,311.32,199.625z"/>
				<path fill="#67C34D" d="M315.15,200.772c-0.768,1.333-2.474,1.792-3.809,1.024c-1.335-0.766-1.794-2.469-1.028-3.809
					c0.768-1.333,2.472-1.794,3.807-1.024C315.458,197.732,315.92,199.431,315.15,200.772z"/>
				<path fill="#67C34D" d="M320.036,211.709c-0.77,1.337-2.474,1.798-3.807,1.03c-1.341-0.771-1.803-2.477-1.03-3.808
					c0.764-1.338,2.468-1.8,3.806-1.031C320.346,208.67,320.806,210.376,320.036,211.709z"/>
				<path fill="#67C34D" d="M290.356,213.987c-0.766,1.336-2.472,1.797-3.807,1.03c-1.341-0.769-1.8-2.478-1.032-3.809
					c0.768-1.337,2.479-1.798,3.809-1.03C290.661,210.945,291.124,212.653,290.356,213.987z"/>
				<path fill="#67C34D" d="M299.583,219.002c-0.767,1.334-2.476,1.792-3.809,1.024c-1.331-0.77-1.791-2.47-1.025-3.809
					c0.77-1.332,2.47-1.791,3.811-1.024C299.894,215.959,300.351,217.661,299.583,219.002z"/>
				<path fill="#67C34D" d="M276.073,191.633c-0.34,0.594-1.104,0.8-1.705,0.459c-0.6-0.345-0.798-1.111-0.457-1.708
					c0.341-0.593,1.103-0.8,1.7-0.46C276.205,190.273,276.417,191.036,276.073,191.633z"/>
				<path fill="#67C34D" d="M276.981,189.53c-0.519,0.914-1.695,1.228-2.604,0.7c-0.915-0.523-1.229-1.69-0.698-2.604
					c0.529-0.914,1.692-1.224,2.607-0.698C277.195,187.451,277.513,188.615,276.981,189.53z"/>
				<path fill="#67C34D" d="M308.051,197.199c-0.519,0.916-1.689,1.228-2.602,0.704c-0.914-0.527-1.229-1.691-0.702-2.605
					c0.53-0.914,1.693-1.23,2.606-0.707C308.267,195.117,308.583,196.287,308.051,197.199z"/>
				<path fill="#67C34D" d="M319.216,207.977c-0.526,0.913-1.692,1.231-2.607,0.707c-0.915-0.524-1.229-1.695-0.701-2.607
					c0.522-0.914,1.694-1.228,2.606-0.705C319.428,205.899,319.745,207.064,319.216,207.977z"/>
				<path fill="#67C34D" d="M287.989,210.594c-0.526,0.915-1.694,1.231-2.606,0.706c-0.915-0.525-1.231-1.694-0.698-2.608
					c0.52-0.913,1.692-1.226,2.605-0.704C288.204,208.513,288.52,209.679,287.989,210.594z"/>
				<path fill="#67C34D" d="M302.506,219.665c-0.529,0.913-1.691,1.229-2.604,0.703c-0.915-0.525-1.231-1.692-0.708-2.605
					c0.527-0.914,1.688-1.229,2.605-0.704C302.709,217.582,303.026,218.749,302.506,219.665z"/>
				<path fill="#67C34D" d="M289.919,191.849c-1.239,2.165-3.998,2.906-6.161,1.658c-2.164-1.24-2.904-3.998-1.663-6.162
					c1.247-2.16,4-2.906,6.159-1.661C290.419,186.927,291.161,189.685,289.919,191.849z"/>
				<path fill="#67C34D" d="M288.323,207.439c-1.245,2.161-4.007,2.907-6.17,1.664c-2.156-1.243-2.904-4.002-1.659-6.166
					c1.24-2.158,4.007-2.904,6.17-1.66C288.821,202.521,289.569,205.284,288.323,207.439z"/>
				<path fill="#67C34D" d="M316.754,219.99c-1.244,2.157-4.001,2.901-6.159,1.664c-2.163-1.249-2.905-4.01-1.661-6.166
					c1.234-2.164,3.994-2.907,6.157-1.663C317.256,215.065,317.998,217.828,316.754,219.99z"/>
				<path fill="#67C34D" d="M295.667,218.525c-1.243,2.158-4.004,2.909-6.169,1.66c-2.159-1.244-2.905-4.001-1.659-6.164
					c1.244-2.16,4.003-2.905,6.169-1.659C296.159,213.601,296.907,216.364,295.667,218.525z"/>
			</g>
			<polygon fill="#67C34D" points="312.213,218.392 317.944,209.747 313.217,201.183 299.984,190.692 285.585,187.83 
				276.975,188.216 274.531,192.906 280.61,198.686 284.631,205.828 290.887,215.272 301.781,217.975 308.36,218.462 			"/>
			<path fill="#31A24A" d="M313.276,209.986c-0.968,1.686-3.117,2.266-4.805,1.294c-1.687-0.965-2.271-3.121-1.306-4.811
				c0.978-1.687,3.133-2.267,4.817-1.297C313.666,206.142,314.25,208.298,313.276,209.986z"/>
			<path fill="#31A24A" d="M312.772,216.974c-0.769,1.339-2.47,1.798-3.812,1.029c-1.334-0.77-1.795-2.476-1.025-3.812
				c0.766-1.334,2.474-1.796,3.809-1.024C313.074,213.934,313.535,215.641,312.772,216.974z"/>
			<path fill="#31A24A" d="M304.999,199.424c-0.283,0.491-0.913,0.661-1.399,0.377c-0.492-0.285-0.665-0.912-0.383-1.405
				c0.28-0.491,0.912-0.661,1.406-0.38C305.117,198.301,305.285,198.93,304.999,199.424z"/>
			<path fill="#31A24A" d="M305.362,203.357c-0.346,0.593-1.109,0.798-1.706,0.46c-0.593-0.348-0.803-1.11-0.459-1.709
				c0.349-0.596,1.11-0.797,1.703-0.458C305.497,201.998,305.71,202.76,305.362,203.357z"/>
			<path fill="#31A24A" d="M309.573,202.434c-0.338,0.594-1.102,0.805-1.697,0.459c-0.602-0.344-0.802-1.105-0.459-1.707
				c0.337-0.594,1.103-0.799,1.695-0.46C309.712,201.076,309.918,201.837,309.573,202.434z"/>
			<path fill="#31A24A" d="M306.312,213.05c-0.53,0.91-1.692,1.228-2.607,0.7c-0.913-0.528-1.228-1.691-0.703-2.604
				c0.522-0.917,1.689-1.23,2.604-0.708C306.517,210.964,306.83,212.134,306.312,213.05z"/>
		</g>
		<path fill="#31A24A" d="M274.242,195.403l1.411,0.855c-0.833,1.679-2.811,3.327-2.563,5.64c0.547,5.227,1.573,11.402,1.573,11.402
			l-15.504,12.297c0,0,8.188-13.596,10.091-17.315C271.313,204.26,268.648,203.368,274.242,195.403z"/>
	</g>
	<g>
		<path fill="#E1D6A9" d="M298.276,177.411c11.823,3.784,21.912,8.99,31.773,16.518c5.033,3.837,15.889,3.863,16.549,11.375
			c1.159,12.998-16.639,23.322-27.71,23.408c-7.95,0.069-13.808-5.684-16.103-12.94c-3.041-9.616-3.146-18.862-12.03-25.303
			c-6.075-4.402-15.865-3.791-22.8-2.62c-7.256,1.224-15.237,5.794-15.772,13.906c-0.673,10.338,9.994,12.503,15.117,19.326
			c6.22,8.295,2.38,21.411-7.37,24.681c-7.66,2.575-16.701,0.145-23.639-3.417c-8.583-4.42-11.671-12.958-14.949-21.48
			c-3.379-8.776-7.594-17.023-16.203-21.645c-11.396-6.11-24.433-1.686-36.618-1.88c-9.107-0.147-14.814-7.688-22.587-11.326
			c-6.85-3.208-14.498-4.629-22.037-4.58c-14.986,0.092-29.582,8.583-28.692,25.165c0.813,15.154,15.101,28.218,28.351,33.726
			c6.351,2.637,13.458,3.055,18.839-1.803c6.671-6.031,6.343-17.149,1.086-23.708c-2.949-3.684-7.745-6.481-10.163-10.479
			c-2.857-4.717-5.011-9.796-8.141-14.358c-6.639-9.679-17.079-10.29-27.771-8.708c-5.713,0.847-11.435,2.18-17.12,0.513
			c0.962,2.369,1.927,4.738,2.89,7.106c4.345-8.659,14.319-14.793,22.335-19.59c5.158-3.086,10.587-5.75,16.267-7.722
			c3.907-1.358,8.615-2.804,12.786-1.974c6.091,1.213,8.688-8.109,2.573-9.326c-11.81-2.349-24.452,3.911-34.469,9.49
			c-10.074,5.616-22.489,13.565-27.843,24.239c-1.408,2.803-0.247,6.186,2.89,7.107c11.013,3.227,21.709-2.929,32.566-0.668
			c9.806,2.043,11.833,16.738,18.28,23.026c2.875,2.801,8.792,6.605,9.33,10.943c0.343,2.787-0.946,6.651-3.485,8.018
			c-4.579,2.459-13.107-3.974-16.346-6.53c-4.859-3.824-10.758-9.215-12.477-15.396c-1.806-6.5-0.508-12.842,5.486-16.404
			c12.636-7.501,28.977-1.326,39.669,6.4c9.233,6.679,18.83,7.254,29.967,5.953c6.022-0.702,12.712-1.974,18.46,0.608
			c4.507,2.025,7.432,5.259,9.796,9.517c4.501,8.117,6.159,17.443,11.748,25.019c5.374,7.298,13.794,11.406,22.422,13.558
			c8.238,2.068,17.287,1.77,24.817-2.44c8.588-4.804,13.038-15.963,11.785-25.43c-0.669-5.109-2.848-10.347-6.568-13.995
			c-3.365-3.306-8.106-5.461-10.963-9.278c-3.994-5.355,11.051-7.22,13.741-7.25c3.002-0.038,5.945,0.365,8.782,1.363
			c3.929,1.377,5.437,6.501,6.352,10.031c2.327,8.981,3.642,17.391,10.932,23.906c11.484,10.266,28.431,6.608,39.783-1.814
			c10.102-7.5,19.468-21.757,11.512-34.052c-2.196-3.399-5.512-4.658-9.112-6.159c-4.592-1.916-8.483-3.895-12.44-6.917
			c-9.243-7.064-19.906-11.512-30.903-15.034C294.889,166.176,292.352,175.516,298.276,177.411L298.276,177.411z"/>
	</g>
	<g>
		<g>
			<g opacity="0.3">
				<path d="M196.939,236.524c-3.196,0.965-6.222,2.026-8.966,3.173l-16.348,3.489l2.348,10.673c0,0,0.112-0.007,0.306-0.02
					c2.112,4.546,11.988,6.291,22.198,5.189l8.732-24.004C202.479,235.218,199.676,235.693,196.939,236.524z"/>
				<path d="M225.444,240.615l-2.232-8.449l-13.042,2.789c-1.602-0.07-3.267-0.063-4.959,0.07l-8.732,24.004
					c2.419-0.256,4.857-0.677,7.218-1.259C217.484,254.385,227.088,244.862,225.444,240.615z"/>
				<path d="M171.625,243.186c-0.493,7.456,16.042,9.53,29.831,6.146c13.787-3.39,23.393-12.919,21.755-17.166
					c-1.643-4.246-15.817-7.93-28.504-4.088C182.014,231.926,172.019,237.221,171.625,243.186z"/>
				<path d="M185.816,241.164c-0.338-1.276,5.24-5.333,8.512-6.303c3.273-0.978,12.508-2.192,12.981,0.388
					c0.471,2.581-3.475,6.1-7.485,6.974C195.812,243.108,186.492,243.722,185.816,241.164z"/>
			</g>
			<g>
				<g>
					<g>
						<path fill="#F59233" d="M191.116,230.696c-3.196,0.976-6.222,2.037-8.966,3.174l-16.351,3.487l2.347,10.673
							c0,0,0.114-0.006,0.308-0.02c2.115,4.55,11.987,6.293,22.2,5.19l8.729-24.004
							C196.651,229.399,193.849,229.865,191.116,230.696z"/>
						<path fill="#F06122" d="M219.62,234.786l-2.238-8.438l-13.042,2.777c-1.602-0.068-3.266-0.052-4.959,0.071l-8.729,24.004
							c2.417-0.256,4.853-0.668,7.215-1.252C211.656,248.561,221.26,239.034,219.62,234.786z"/>
					</g>
					<path fill="#F2B131" d="M165.799,237.357c-0.487,7.458,16.046,9.542,29.835,6.147c13.786-3.391,23.391-12.909,21.749-17.156
						c-1.638-4.252-15.813-7.941-28.504-4.093C176.192,226.097,166.191,231.392,165.799,237.357z"/>
					<path fill="#EC9F1E" d="M179.99,235.344c-0.341-1.285,5.236-5.331,8.511-6.311c3.272-0.976,12.51-2.192,12.985,0.387
						c0.472,2.583-3.479,6.1-7.49,6.984C189.989,237.281,180.664,237.894,179.99,235.344z"/>
				</g>
			</g>
		</g>
	</g>
	<g>
		<g>
			<g opacity="0.3">
				<path d="M130.45,217.205l6.053-4.049l-5.672-9.374c-0.962-3.309-2.523-6.776-4.759-9.845c-1.616-2.221-3.261-4.284-4.891-6.105
					l-7.106-11.744l-7.771,4.746c0,0,0.034,0.083,0.096,0.229c-3.732,3.578-0.922,15.198,4.745,23.935
					C117.49,214.786,127.544,219.642,130.45,217.205z"/>
				<path d="M114.075,176.088c-6,1.657-3.228,15.074,3.121,24.863c6.342,9.786,16.397,14.642,19.308,12.206
					c2.907-2.438,2.027-14.461-4.381-23.269C125.712,181.079,118.875,174.756,114.075,176.088z"/>
				<path d="M119.449,186.558c0.919-0.612,5.594,2.613,7.236,4.889c1.638,2.275,5.057,9.125,3.153,10.194
					c-1.909,1.076-5.729-1.027-7.489-3.903C120.593,194.859,117.621,187.781,119.449,186.558z"/>
			</g>
			<g>
				<g>
					<path fill="#F59233" d="M124.628,211.383l6.048-4.049l-5.668-9.374c-0.963-3.314-2.527-6.776-4.763-9.851
						c-1.613-2.223-3.261-4.284-4.889-6.105l-7.105-11.744l-7.772,4.745c0,0,0.034,0.085,0.096,0.229
						c-3.732,3.578-0.92,15.203,4.742,23.94C111.664,208.958,121.718,213.821,124.628,211.383z"/>
					<path fill="#F2B131" d="M108.251,170.26c-6.001,1.661-3.23,15.078,3.12,24.863c6.341,9.788,16.396,14.647,19.305,12.21
						c2.907-2.438,2.03-14.462-4.379-23.275C119.886,175.255,113.051,168.932,108.251,170.26z"/>
					<path fill="#EC9F1E" d="M113.623,180.734c0.918-0.614,5.597,2.614,7.234,4.892c1.642,2.274,5.06,9.121,3.157,10.193
						c-1.91,1.076-5.73-1.031-7.492-3.909C114.766,189.033,111.794,181.958,113.623,180.734z"/>
				</g>
			</g>
		</g>
	</g>
</g>
</svg>
