<?xml version="1.0" encoding="utf-8"?>
<!-- Generator: Adobe Illustrator 16.0.0, SVG Export Plug-In . SVG Version: 6.00 Build 0)  -->
<!DOCTYPE svg PUBLIC "-//W3C//DTD SVG 1.1//EN" "http://www.w3.org/Graphics/SVG/1.1/DTD/svg11.dtd">
<svg version="1.1" id="Ebene_1" xmlns="http://www.w3.org/2000/svg" xmlns:xlink="http://www.w3.org/1999/xlink" x="0px" y="0px"
	 width="450px" height="450px" viewBox="0 0 450 450" enable-background="new 0 0 450 450" xml:space="preserve">
<g>
	<g opacity="0.3">
		<g>
			<defs>
				<polygon id="SVGID_1_" points="324.603,185.892 181.666,278.215 126.242,233.929 269.172,141.598 				"/>
			</defs>
			<clipPath id="SVGID_2_">
				<use xlink:href="#SVGID_1_"  overflow="visible"/>
			</clipPath>
		</g>
		<path fill="#1D1D1B" d="M140.834,249.838c-6.819-3.63-19.537,5.813-12.786,13.15c-6.676,1.855-10.082,19.239-3.99,22.618
			c-4.975,6.204-0.906,19.153,5.439,20.155c-0.998,7.546,4.11,16.299,11.306,13.278c-0.155,7.767,5.833,11.104,12.467,10.846
			c1.182,11.931,11.119,5.311,17.315,5.284c7.353-0.021,9.92,5.257,17.498-2.244c1.231,9.912,15.687,0.138,18.297-5.11
			c5.756,5.827,13.799-1.854,15.619-8.63c7.518,3.951,17.932-4.144,21.503-11.923c5.539,2.421,6.659-3.241,10.597-6.058
			c3.198-2.252,6.777-3.112,10.705-5.474c1.999-1.2,2.219-4.649,4.075-5.881c1.484-0.998,3.747,0.616,5.485-0.539
			c4.166-2.783,8.483-4.793,10.452-9.951c5.839,0.048,11.207-4.096,11.979-10.731c9.422,1.335,10.754-6.453,16.787-11.464
			c4.47-3.702,14.973-3.681,13.325-13.973c4.396-2.77,11.789-12.355,4.779-15.588c3.645-5.33,6.578-13.314-2.198-12.682
			c2.548-11.047,1.781-15.383-9.44-15.385c9.003-8.869-8.412-13.178-14.348-11.591c3.349-10.471-10.448-10.741-16.286-9.497
			c1.983-11.585-10.219-5.041-13.996-0.539"/>
		<path fill="#1D1D1B" d="M329.49,214.923c2.548-11.047,1.781-15.383-9.44-15.385c9.003-8.869-8.412-13.178-14.348-11.591
			c3.349-10.471-10.448-10.741-16.286-9.497c1.983-11.585-10.219-5.041-13.996-0.539l-134.585,71.927
			c-6.819-3.63-19.537,5.813-12.786,13.15c-0.802,0.215-1.557,0.677-2.258,1.295c0.527,0.195,1.017,0.397,1.422,0.647
			c4.019,2.361,5.537,5.545,6.766,9.984c2.222-1.038,4.114-0.816,6.35,0.51c2.737,1.618,4.161,6.155,6.52,7.485
			c1.677,0.94,3.271,0.006,5.308,0.958c4.634,2.171,3.444,7.937,6.242,10.843c1.212,1.265,2.815,0.948,4.624,1.814
			c1.571,0.745,3.391,2.284,4.328,3.729c1.078,1.69,0.449,4.106,1.455,5.525c1.869,2.667,2.265,0.729,4.922,0.523
			c3.281-0.262,9.076,1.619,10.809,4.583c1.372-3.214,9.025-11.562,12.234-6.258c-3.213-6.885,11.987-11.526,16.714-10.429
			c1.551-3.886,8.022-7.826,12.009-8.845c1.058-0.273,3.612,0.19,4.461-0.361c1.512-0.989,2.078-4.153,3.307-5.574
			c3.233-3.752,7.557-3.286,11.202-5.659c2.629-1.729,4.271-5.594,6.975-7.737c2.241-1.769,4.841-1.854,6.803-3.378
			c1.182-0.926,1.56-3.048,2.891-4.168c1.491-1.235,3.04-1.243,4.661-2.154c4.791-2.641,9.186-11.665,16.931-9.401
			c1.344-3.132,3.984-6.29,6.692-8.354c3.858-2.995,7.13-1.08,10.886-2.663c2.809-1.16,4.151-5.326,6.778-7.03
			c2.514-1.646,6.016-2.357,8.792-1.577c-0.059-5.557,8.037-7.606,12.263-6.335c1.132-2.356,3.022-4.041,5.026-5.596
			C332.269,214.976,331.082,214.803,329.49,214.923z"/>
		<polygon fill="#1D1D1B" points="324.603,205.598 181.666,297.927 126.242,253.626 126.242,233.929 269.172,161.302 
			324.603,185.892 		"/>
		<polygon fill="#1D1D1B" points="324.603,185.892 181.666,278.215 126.242,233.929 269.172,141.598 		"/>
		<g>
			<defs>
				<polygon id="SVGID_3_" points="324.603,185.892 181.666,278.215 126.242,233.929 269.172,141.598 				"/>
			</defs>
			<clipPath id="SVGID_4_">
				<use xlink:href="#SVGID_3_"  overflow="visible"/>
			</clipPath>
			<polyline clip-path="url(#SVGID_4_)" fill="none" stroke="#1D1D1B" stroke-width="6.2176" stroke-miterlimit="10" points="
				149.266,201.425 143.859,263.774 221.383,262.423 			"/>
			<polyline clip-path="url(#SVGID_4_)" fill="none" stroke="#1D1D1B" stroke-width="6.2176" stroke-miterlimit="10" points="
				173.834,184.689 168.433,247.026 245.942,245.677 			"/>
			<polyline clip-path="url(#SVGID_4_)" fill="none" stroke="#1D1D1B" stroke-width="6.2176" stroke-miterlimit="10" points="
				198.413,167.963 193.002,230.302 270.521,228.951 			"/>
			<polyline clip-path="url(#SVGID_4_)" fill="none" stroke="#1D1D1B" stroke-width="6.2176" stroke-miterlimit="10" points="
				222.982,151.228 217.58,213.565 295.1,212.216 			"/>
			<polyline clip-path="url(#SVGID_4_)" fill="none" stroke="#1D1D1B" stroke-width="6.2176" stroke-miterlimit="10" points="
				247.551,134.494 242.152,196.84 319.657,195.49 			"/>
			<polyline clip-path="url(#SVGID_4_)" fill="none" stroke="#1D1D1B" stroke-width="6.2176" stroke-miterlimit="10" points="
				272.132,117.763 266.73,180.103 344.237,178.755 			"/>
		</g>
		<path fill="#1D1D1B" d="M185.205,193.658c0,0,43.95,34.18,54.23,47.24c10.26,13.07,5.12,71.688,5.12,71.688l35.814-25.157
			c0,0,5.095-58.918-5.541-69.39c-10.636-10.469-56.372-46.457-56.372-46.457L185.205,193.658z"/>
		<path fill="#1D1D1B" d="M270.795,221.677c-8.205,5.832-16.389,11.709-24.401,17.802l-5.045,4.82
			c7.653,17.597,3.206,68.286,3.206,68.286l35.814-25.157c0,0,4.953-57.327-5.136-68.913
			C273.754,219.577,272.278,220.628,270.795,221.677z"/>
		<path fill="none" stroke="#1D1D1B" stroke-width="3.3741" stroke-linecap="round" stroke-miterlimit="10" d="M130.447,289.512
			c4.532,0.284,5.716,5.293,5.62,8.987"/>
		<path fill="none" stroke="#1D1D1B" stroke-width="3.3741" stroke-linecap="round" stroke-miterlimit="10" d="M139.726,310.025
			c-0.297,4.313,2.672,8.889,7.31,9.007"/>
		<path fill="none" stroke="#1D1D1B" stroke-width="3.3741" stroke-linecap="round" stroke-miterlimit="10" d="M149.287,303.003
			c2.033-2.769,7.764,1.123,7.868,3.93"/>
		<path fill="none" stroke="#1D1D1B" stroke-width="3.3741" stroke-linecap="round" stroke-miterlimit="10" d="M159.686,322.128
			c-1.714,3.597,2.988,6.77,6.188,6.466"/>
		<path fill="none" stroke="#1D1D1B" stroke-width="3.3741" stroke-linecap="round" stroke-miterlimit="10" d="M170.09,314.251
			c2.961-1.187,7.605-0.872,7.876,3.097"/>
		<path fill="none" stroke="#1D1D1B" stroke-width="3.3741" stroke-linecap="round" stroke-miterlimit="10" d="M192.309,313.396
			c2.354-1.438,3.893-4.13,7.867-3.926"/>
		<path fill="none" stroke="#1D1D1B" stroke-width="3.3741" stroke-linecap="round" stroke-miterlimit="10" d="M187.806,324.934
			c1.439,2.821,3.846,5.168,7.31,3.937"/>
		<path fill="none" stroke="#1D1D1B" stroke-width="3.3741" stroke-linecap="round" stroke-miterlimit="10" d="M214.241,310.878
			c4.525,2.07-1.212,8.753-3.938,9.841"/>
		<path fill="none" stroke="#1D1D1B" stroke-width="3.3741" stroke-linecap="round" stroke-miterlimit="10" d="M220.421,295.681
			c-0.62,3.353,3.706,5.346,6.468,4.226"/>
		<path fill="none" stroke="#1D1D1B" stroke-width="3.3741" stroke-linecap="round" stroke-miterlimit="10" d="M234.199,302.446
			c1.836,2.851,2.345,7.367-1.125,9.266"/>
		<path fill="none" stroke="#1D1D1B" stroke-width="3.3741" stroke-linecap="round" stroke-miterlimit="10" d="M237.573,285.01
			c1.537-0.424,3.782-1.177,5.058,0"/>
		<path fill="none" stroke="#1D1D1B" stroke-width="3.3741" stroke-linecap="round" stroke-miterlimit="10" d="M286.494,261.381
			c1.612,1.378,4.568,3.597,3.373,5.911"/>
		<path fill="none" stroke="#1D1D1B" stroke-width="3.3741" stroke-linecap="round" stroke-miterlimit="10" d="M295.221,242.553
			c-2.203,1.82-3.976,6.635-1.688,8.988"/>
		<path fill="none" stroke="#1D1D1B" stroke-width="3.3741" stroke-linecap="round" stroke-miterlimit="10" d="M305.062,249.855
			c1.99,1.325,2.24,6.182,0.558,7.875"/>
		<path fill="none" stroke="#1D1D1B" stroke-width="3.3741" stroke-linecap="round" stroke-miterlimit="10" d="M313.496,231.583
			c-2.009,2.445-4.376,6.004-0.279,8.431"/>
		<path fill="none" stroke="#1D1D1B" stroke-width="3.3741" stroke-linecap="round" stroke-miterlimit="10" d="M323.613,229.618
			c1.625,2.258,3.571,5.605,2.533,8.432"/>
		<path fill="none" stroke="#1D1D1B" stroke-width="3.3741" stroke-linecap="round" stroke-miterlimit="10" d="M320.796,244.795
			c-0.784,1.596-1.296,3.412-0.277,5.061"/>
		<path fill="none" stroke="#1D1D1B" stroke-width="3.3741" stroke-linecap="round" stroke-miterlimit="10" d="M137.196,282.191
			c3.326,0.461,6.924-0.321,7.31,4.503"/>
		<g>
			<defs>
				<polygon id="SVGID_5_" points="324.603,185.892 181.666,278.215 126.242,233.929 269.172,141.598 				"/>
			</defs>
			<clipPath id="SVGID_6_">
				<use xlink:href="#SVGID_5_"  overflow="visible"/>
			</clipPath>
		</g>
	</g>
	<g>
		<g>
			<g>
				<g>
					<defs>
						<polygon id="SVGID_7_" points="317.341,177.179 174.405,269.501 118.981,225.216 261.91,132.885 						"/>
					</defs>
					<clipPath id="SVGID_8_">
						<use xlink:href="#SVGID_7_"  overflow="visible"/>
					</clipPath>
				</g>
			</g>
		</g>
		<g>
			<g>
				<path fill="#F1E8E3" d="M133.573,241.124c-6.819-3.63-19.537,5.813-12.786,13.15c-6.676,1.855-10.082,19.239-3.99,22.618
					c-4.975,6.204-0.906,19.153,5.439,20.155c-0.998,7.546,4.11,16.299,11.306,13.278c-0.155,7.767,5.833,11.104,12.467,10.846
					c1.182,11.931,11.119,5.311,17.315,5.284c7.353-0.021,9.92,5.257,17.498-2.244c1.231,9.912,15.687,0.138,18.297-5.11
					c5.756,5.827,13.799-1.854,15.619-8.63c7.518,3.951,17.932-4.144,21.503-11.923c5.539,2.421,6.659-3.241,10.597-6.058
					c3.198-2.252,6.777-3.112,10.705-5.474c1.999-1.2,2.219-4.649,4.075-5.881c1.484-0.998,3.747,0.616,5.485-0.539
					c4.166-2.783,8.483-4.793,10.452-9.951c5.839,0.048,11.207-4.096,11.979-10.731c9.422,1.335,10.754-6.453,16.787-11.464
					c4.47-3.702,14.973-3.681,13.325-13.973c4.396-2.77,11.789-12.355,4.779-15.588c3.645-5.33,6.578-13.314-2.198-12.682
					c2.548-11.047,1.781-15.382-9.44-15.384c9.003-8.87-8.412-13.178-14.348-11.591c3.349-10.47-10.448-10.741-16.286-9.497
					c1.983-11.584-10.219-5.041-13.996-0.539"/>
				<path fill="#CDBDB5" d="M322.228,206.209c2.548-11.047,1.781-15.382-9.44-15.384c9.003-8.87-8.412-13.178-14.348-11.591
					c3.349-10.47-10.448-10.741-16.286-9.497c1.983-11.584-10.219-5.041-13.996-0.539l-134.585,71.927
					c-6.819-3.63-19.537,5.813-12.786,13.15c-0.802,0.215-1.557,0.677-2.258,1.295c0.527,0.195,1.017,0.397,1.422,0.647
					c4.019,2.361,5.537,5.545,6.766,9.984c2.222-1.038,4.114-0.816,6.35,0.51c2.737,1.618,4.161,6.155,6.52,7.485
					c1.677,0.94,3.271,0.006,5.308,0.958c4.634,2.171,3.444,7.937,6.242,10.843c1.212,1.265,2.815,0.948,4.624,1.814
					c1.571,0.745,3.391,2.284,4.328,3.729c1.078,1.69,0.449,4.106,1.455,5.525c1.869,2.667,2.265,0.729,4.922,0.523
					c3.281-0.262,9.076,1.619,10.809,4.583c1.372-3.214,9.025-11.562,12.234-6.258c-3.213-6.885,11.987-11.526,16.714-10.429
					c1.551-3.886,8.022-7.826,12.009-8.845c1.058-0.273,3.611,0.19,4.461-0.361c1.511-0.989,2.078-4.153,3.306-5.574
					c3.233-3.752,7.557-3.286,11.202-5.659c2.629-1.729,4.271-5.594,6.975-7.737c2.241-1.769,4.841-1.854,6.803-3.378
					c1.182-0.926,1.56-3.048,2.891-4.168c1.491-1.235,3.04-1.243,4.661-2.154c4.791-2.641,9.186-11.665,16.931-9.401
					c1.344-3.132,3.984-6.29,6.692-8.354c3.858-2.995,7.13-1.08,10.886-2.663c2.809-1.16,4.151-5.326,6.778-7.03
					c2.514-1.646,6.016-2.357,8.792-1.577c-0.059-5.557,8.037-7.606,12.263-6.335c1.132-2.356,3.022-4.041,5.026-5.596
					C325.007,206.263,323.821,206.09,322.228,206.209z"/>
				<polygon fill="#D35A29" points="317.341,196.885 174.405,289.214 118.981,244.912 118.981,225.216 261.91,152.588 
					317.341,177.179 				"/>
				<polygon fill="#E77249" points="317.341,177.179 174.405,269.501 118.981,225.216 261.91,132.885 				"/>
				<g>
					<defs>
						<polygon id="SVGID_9_" points="317.341,177.179 174.405,269.501 118.981,225.216 261.91,132.885 						"/>
					</defs>
					<clipPath id="SVGID_10_">
						<use xlink:href="#SVGID_9_"  overflow="visible"/>
					</clipPath>
					<polyline clip-path="url(#SVGID_10_)" fill="none" stroke="#EEA18A" stroke-width="6.2176" stroke-miterlimit="10" points="
						142.005,192.711 136.597,255.06 214.122,253.709 					"/>
					<polyline clip-path="url(#SVGID_10_)" fill="none" stroke="#EEA18A" stroke-width="6.2176" stroke-miterlimit="10" points="
						166.573,175.975 161.172,238.312 238.68,236.963 					"/>
					<polyline clip-path="url(#SVGID_10_)" fill="none" stroke="#EEA18A" stroke-width="6.2176" stroke-miterlimit="10" points="
						191.152,159.249 185.74,221.588 263.259,220.237 					"/>
					<polyline clip-path="url(#SVGID_10_)" fill="none" stroke="#EEA18A" stroke-width="6.2176" stroke-miterlimit="10" points="
						215.72,142.514 210.319,204.851 287.838,203.502 					"/>
					<polyline clip-path="url(#SVGID_10_)" fill="none" stroke="#EEA18A" stroke-width="6.2176" stroke-miterlimit="10" points="
						240.289,125.78 234.89,188.126 312.396,186.777 					"/>
					<polyline clip-path="url(#SVGID_10_)" fill="none" stroke="#EEA18A" stroke-width="6.2176" stroke-miterlimit="10" points="
						264.87,109.05 259.468,171.39 336.975,170.041 					"/>
				</g>
			</g>
			<path fill="#39443B" d="M177.944,184.944c0,0,43.949,34.18,54.229,47.24c10.26,13.07,5.12,71.688,5.12,71.688l35.814-25.157
				c0,0,5.095-58.918-5.541-69.39c-10.636-10.468-56.371-46.457-56.371-46.457L177.944,184.944z"/>
			<path fill="#29302A" d="M263.533,212.964c-8.205,5.832-16.389,11.708-24.401,17.801l-5.045,4.82
				c7.653,17.597,3.206,68.286,3.206,68.286l35.814-25.157c0,0,4.953-57.327-5.136-68.913
				C266.492,210.863,265.016,211.914,263.533,212.964z"/>
			<g>
				<path fill="none" stroke="#D8CBC5" stroke-width="3.3741" stroke-linecap="round" stroke-miterlimit="10" d="M123.186,280.799
					c4.532,0.284,5.716,5.293,5.62,8.987"/>
				<path fill="none" stroke="#D8CBC5" stroke-width="3.3741" stroke-linecap="round" stroke-miterlimit="10" d="M132.465,301.311
					c-0.297,4.313,2.672,8.889,7.31,9.007"/>
				<path fill="none" stroke="#D8CBC5" stroke-width="3.3741" stroke-linecap="round" stroke-miterlimit="10" d="M142.026,294.289
					c2.033-2.769,7.764,1.123,7.868,3.93"/>
				<path fill="none" stroke="#D8CBC5" stroke-width="3.3741" stroke-linecap="round" stroke-miterlimit="10" d="M152.425,313.414
					c-1.714,3.597,2.988,6.77,6.188,6.466"/>
				<path fill="none" stroke="#D8CBC5" stroke-width="3.3741" stroke-linecap="round" stroke-miterlimit="10" d="M162.829,305.537
					c2.961-1.187,7.605-0.872,7.876,3.097"/>
				<path fill="none" stroke="#D8CBC5" stroke-width="3.3741" stroke-linecap="round" stroke-miterlimit="10" d="M185.048,304.682
					c2.354-1.438,3.893-4.13,7.867-3.926"/>
				<path fill="none" stroke="#D8CBC5" stroke-width="3.3741" stroke-linecap="round" stroke-miterlimit="10" d="M180.545,316.22
					c1.439,2.821,3.846,5.168,7.31,3.937"/>
				<path fill="none" stroke="#D8CBC5" stroke-width="3.3741" stroke-linecap="round" stroke-miterlimit="10" d="M206.98,302.164
					c4.525,2.07-1.212,8.753-3.938,9.841"/>
				<path fill="none" stroke="#D8CBC5" stroke-width="3.3741" stroke-linecap="round" stroke-miterlimit="10" d="M213.159,286.968
					c-0.62,3.353,3.706,5.346,6.468,4.226"/>
				<path fill="none" stroke="#D8CBC5" stroke-width="3.3741" stroke-linecap="round" stroke-miterlimit="10" d="M226.938,293.732
					c1.836,2.851,2.345,7.367-1.125,9.266"/>
				<path fill="none" stroke="#D8CBC5" stroke-width="3.3741" stroke-linecap="round" stroke-miterlimit="10" d="M230.311,276.296
					c1.537-0.424,3.782-1.177,5.058,0"/>
				<path fill="none" stroke="#D8CBC5" stroke-width="3.3741" stroke-linecap="round" stroke-miterlimit="10" d="M279.233,252.667
					c1.612,1.378,4.568,3.597,3.373,5.911"/>
				<path fill="none" stroke="#D8CBC5" stroke-width="3.3741" stroke-linecap="round" stroke-miterlimit="10" d="M287.959,233.84
					c-2.203,1.82-3.976,6.635-1.688,8.988"/>
				<path fill="none" stroke="#D8CBC5" stroke-width="3.3741" stroke-linecap="round" stroke-miterlimit="10" d="M297.8,241.141
					c1.99,1.325,2.24,6.182,0.558,7.875"/>
				<path fill="none" stroke="#D8CBC5" stroke-width="3.3741" stroke-linecap="round" stroke-miterlimit="10" d="M306.235,222.869
					c-2.009,2.446-4.376,6.004-0.279,8.431"/>
				<path fill="none" stroke="#D8CBC5" stroke-width="3.3741" stroke-linecap="round" stroke-miterlimit="10" d="M316.351,220.905
					c1.625,2.257,3.571,5.605,2.533,8.431"/>
				<path fill="none" stroke="#D8CBC5" stroke-width="3.3741" stroke-linecap="round" stroke-miterlimit="10" d="M313.534,236.081
					c-0.784,1.596-1.296,3.412-0.277,5.061"/>
				<path fill="none" stroke="#D8CBC5" stroke-width="3.3741" stroke-linecap="round" stroke-miterlimit="10" d="M129.935,273.477
					c3.326,0.461,6.924-0.321,7.31,4.503"/>
			</g>
		</g>
		<g>
			<g>
				<g>
					<defs>
						<polygon id="SVGID_11_" points="317.341,177.179 174.405,269.501 118.981,225.216 261.91,132.885 						"/>
					</defs>
					<clipPath id="SVGID_12_">
						<use xlink:href="#SVGID_11_"  overflow="visible"/>
					</clipPath>
				</g>
			</g>
		</g>
	</g>
</g>
</svg>
