<?xml version="1.0" encoding="utf-8"?>
<!-- Generator: Adobe Illustrator 16.0.0, SVG Export Plug-In . SVG Version: 6.00 Build 0)  -->
<!DOCTYPE svg PUBLIC "-//W3C//DTD SVG 1.1//EN" "http://www.w3.org/Graphics/SVG/1.1/DTD/svg11.dtd">
<svg version="1.1" id="Ebene_1" xmlns="http://www.w3.org/2000/svg" xmlns:xlink="http://www.w3.org/1999/xlink" x="0px" y="0px"
	 width="450px" height="450px" viewBox="0 0 450 450" enable-background="new 0 0 450 450" xml:space="preserve">
<g>
	<polygon fill="#A49892" points="31.195,240.686 52.625,193.497 85.92,229.72 	"/>
	<polygon fill="#8E817D" points="419.281,243.729 392.483,193.497 385.173,246.774 	"/>
	<g>
		<path fill="#88A442" d="M183.352,68.633c1.879-7.517-2.938-16.809-12.182-19.118c-6.393-1.596-12.923,1.146-18.547,3.902
			c-2.602,1.275-4.973,2.689-7.008,4.803c-0.818,0.849-1.536,1.909-2.184,2.95c-0.236-0.092-0.502-0.201-0.835-0.344
			c-6.938-2.981-14.907-2.283-21.063,2.341c-5.357,4.024-6.75,9.44-8.803,15.46c-0.846,2.477-10.683,0.529-13.23,1.032
			c-8.535,1.684-13.938,8.692-16.159,16.738c-0.763,2.758-0.29,5.962-1.491,8.182c-0.753,1.395-4.584,1.741-2.209,1.765
			c-2.416-0.023-4.386-0.231-6.832,0.383c-5.003,1.257-8.84,6.679-10.141,11.408c-0.722,2.628-0.34,5.163,0.078,7.784
			c0.387,1.219,0.854,2.407,1.399,3.566c0.192,0.432,0.309,0.738,0.397,0.993c-0.746,2.93-2.635,4.544-4.903,6.592
			c-3.915,3.539-6.479,7.724-8.29,12.647c-2.05,5.57-0.399,11.978,1.568,17.279c1.252,3.377,5.332,11.515,3.56,14.781
			c-4.999,9.221,7.063,17.522,13.634,11.74c2.976,0.04,6.033-1.367,8.08-4.31c7.227-10.376,7.941-23.165,12.766-34.537
			c5.415-12.771,16.637-23.669,26.561-33.011c9.722-9.151,19.646-16.293,31.615-22.293c11.119-5.574,22.732-10.09,33.805-15.769
			C189.754,80.103,188.172,72.187,183.352,68.633z"/>
		<g>
			<path fill="#6A7D35" d="M183.352,68.633c1.879-7.517-2.938-16.809-12.182-19.118c-6.393-1.596-12.923,1.146-18.547,3.902
				c-2.602,1.275-4.973,2.689-7.008,4.803c-0.818,0.849-1.536,1.909-2.184,2.95c-0.236-0.092-0.502-0.201-0.835-0.344
				c-6.938-2.981-14.907-2.283-21.063,2.341c-5.357,4.024-6.75,9.44-8.803,15.46c-0.846,2.477-10.683,0.529-13.23,1.032
				c-3.148,0.619-5.867,1.969-8.16,3.824c8.104,13.242,16.629,26.233,24.918,39.367c0.42-0.397,0.843-0.798,1.26-1.189
				c9.722-9.151,19.646-16.293,31.615-22.293c11.119-5.574,22.732-10.09,33.805-15.769
				C189.754,80.103,188.172,72.187,183.352,68.633z"/>
		</g>
	</g>
	<g>
		<path fill="#A3632B" d="M373.474,119.047c-0.948-23.208-14.774-44.995-37.466-54.981c-22.695-9.993-48.1-5.474-65.854,9.505
			L373.474,119.047z"/>
		<path fill="#804C24" d="M340.469,104.521l33.005,14.525c-0.948-23.208-14.774-44.995-37.466-54.981
			c-2.018-0.892-4.052-1.657-6.103-2.314C333.08,74.725,337.871,94.237,340.469,104.521z"/>
		<g opacity="0.5">
			<path fill="#CB7E49" d="M370.567,102.572l-86.305-37.983c-1.795,0.83-3.555,1.746-5.268,2.744l93.104,40.983
				C371.682,106.376,371.168,104.463,370.567,102.572z"/>
			<path fill="#CB7E49" d="M305.908,58.92c-2.906,0.227-5.785,0.649-8.613,1.273l67.711,29.804c-1.451-2.508-3.08-4.914-4.877-7.212
				L305.908,58.92z"/>
		</g>
	</g>
	<g>
		<path fill="#A3632B" d="M35.336,128.585c17.182,15.628,42.402,21.094,65.449,11.96c23.055-9.133,37.684-30.389,39.496-53.546
			L35.336,128.585z"/>
		<path fill="#804C24" d="M68.859,115.299l-33.522,13.286c17.182,15.628,42.402,21.094,65.449,11.96
			c2.051-0.812,4.027-1.722,5.938-2.719C95.252,130.974,78.004,120.674,68.859,115.299z"/>
		<g opacity="0.5">
			<path fill="#CB7E49" d="M49.102,138.087l87.66-34.736c0.67-1.862,1.256-3.756,1.748-5.678l-94.572,37.472
				C45.611,136.211,47.338,137.186,49.102,138.087z"/>
			<path fill="#CB7E49" d="M125.59,122.737c1.885-2.229,3.604-4.573,5.145-7.027l-68.775,27.254c2.805,0.729,5.66,1.26,8.558,1.596
				L125.59,122.737z"/>
		</g>
	</g>
	<g>
		<path fill="#A3632B" d="M219.212,83.644c-4.485-22.913-21.552-42.446-45.624-48.901c-24.072-6.458-48.623,1.913-63.973,19.505
			L219.212,83.644z"/>
		<path fill="#804C24" d="M156.088,66.717l25.823-29.109c-2.67-1.13-5.447-2.095-8.323-2.864
			c-24.072-6.458-48.623,1.913-63.973,19.505L156.088,66.717z"/>
		<g opacity="0.5">
			<path fill="#CB7E49" d="M213.757,67.723L122.213,43.17c-1.654,1.101-3.266,2.275-4.815,3.532l98.762,26.489
				C215.448,71.327,214.641,69.506,213.757,67.723z"/>
			<path fill="#CB7E49" d="M142.852,34.229c-2.855,0.667-5.648,1.531-8.365,2.581l71.824,19.269c-1.824-2.27-3.811-4.42-5.944-6.42
				L142.852,34.229z"/>
		</g>
	</g>
	<g>
		<path fill="#A3632B" d="M265.01,68.423c-5.527-17.889-20.795-32.008-40.537-35.104c-19.742-3.1-38.602,5.665-49.342,21
			L265.01,68.423z"/>
		<path fill="#804C24" d="M213.242,60.299l18.109-25.405c-2.224-0.672-4.518-1.205-6.879-1.575c-19.742-3.1-38.602,5.665-49.342,21
			L213.242,60.299z"/>
		<g opacity="0.5">
			<path fill="#CB7E49" d="M259.305,56.192l-75.074-11.781c-1.227,1.019-2.41,2.093-3.537,3.226l80.995,12.712
				C260.961,58.923,260.164,57.539,259.305,56.192z"/>
			<path fill="#CB7E49" d="M199.923,35.526c-2.218,0.775-4.37,1.701-6.448,2.771l58.906,9.244c-1.648-1.652-3.417-3.195-5.289-4.613
				L199.923,35.526z"/>
		</g>
	</g>
	<g>
		<path fill="#A3632B" d="M231.495,47.917c10.284,15.646,28.876,24.959,48.7,22.441c19.826-2.514,35.502-16.18,41.555-33.898
			L231.495,47.917z"/>
		<path fill="#804C24" d="M283.479,41.317l-10.326,29.44c2.321,0.028,4.675-0.099,7.043-0.399
			c19.826-2.514,35.502-16.18,41.555-33.898L283.479,41.317z"/>
		<g opacity="0.5">
			<path fill="#CB7E49" d="M240.377,58.077l75.388-9.569c0.895-1.32,1.733-2.679,2.499-4.082L236.932,54.75
				C238.024,55.916,239.176,57.023,240.377,58.077z"/>
			<path fill="#CB7E49" d="M303.164,61.409c1.914-1.362,3.726-2.852,5.422-4.456l-59.153,7.506c2.045,1.13,4.172,2.119,6.362,2.962
				L303.164,61.409z"/>
		</g>
	</g>
	<g>
		<path fill="#88A442" d="M386.578,181.83c7.69,0.949,16.326-4.962,17.491-14.418c0.806-6.54-2.711-12.688-6.127-17.936
			c-1.586-2.428-3.278-4.606-5.624-6.37c-0.941-0.708-2.082-1.292-3.195-1.807c0.066-0.248,0.142-0.525,0.242-0.873
			c2.115-7.251,0.449-15.075-4.888-20.624c-4.644-4.823-10.192-5.548-16.419-6.853c-2.563-0.536-1.824-10.537-2.633-13.007
			c-2.709-8.265-10.325-12.772-18.585-14.001c-2.827-0.42-5.951,0.439-8.3-0.482c-1.477-0.579-2.285-4.338-2.021-1.979
			c-0.272-2.4-0.306-4.38-1.211-6.734c-1.858-4.813-7.706-7.958-12.558-8.674c-2.699-0.398-5.166,0.289-7.718,1.022
			c-1.163,0.534-2.286,1.14-3.368,1.823c-0.406,0.244-0.697,0.397-0.938,0.517c-12.984,12.507-12.628,16.936-14.938,14.934
			c-3.986-3.456-9.834-6.231-14.943-7.426c-5.777-1.358-5.853-7.053-10.874-4.454c-3.2,1.655-7.688-3.454-11.147-4.814
			c-9.76-3.84-16.533,9.146-9.992,14.963c0.324,2.959,2.092,5.822,5.264,7.494c11.176,5.911,23.957,5.064,35.832,8.466
			c13.335,3.82,25.518,13.632,36,22.345c10.266,8.534,18.564,17.516,25.975,28.665c6.889,10.358,12.783,21.334,19.769,31.632
			C375.975,189.581,383.637,187.048,386.578,181.83z"/>
		<path fill="#6A7D35" d="M397.943,149.476c-1.586-2.428-3.278-4.606-5.624-6.37c-0.941-0.708-2.082-1.292-3.195-1.807
			c0.066-0.248,0.142-0.525,0.242-0.873c2.115-7.251,0.449-15.075-4.888-20.624c-4.644-4.823-10.192-5.548-16.419-6.853
			c-2.563-0.536-1.824-10.537-2.633-13.007c-1.503-4.578-4.515-7.994-8.305-10.346c-0.175,21.973-1.132,43.932-2.723,65.851
			c5.854,9.203,11.146,18.756,17.274,27.791c4.302,6.342,11.964,3.809,14.905-1.409c7.69,0.949,16.326-4.962,17.491-14.418
			C404.875,160.872,401.359,154.724,397.943,149.476z"/>
	</g>
	<g>
		<path fill="#D04B27" d="M318.449,155.424c-22.611,27.253-63.03,31.018-90.283,8.406c-27.254-22.609-31.016-63.029-8.405-90.283
			c22.606-27.255,63.026-31.016,90.282-8.404C337.293,87.751,341.058,128.172,318.449,155.424z"/>
		<path fill="#AF3B25" d="M310.043,65.142c-6.971-5.784-14.804-9.83-22.979-12.211l-79.18,80.584
			c3.557,11.469,10.349,22.075,20.281,30.314c27.253,22.611,67.672,18.847,90.283-8.406
			C341.058,128.172,337.293,87.751,310.043,65.142z"/>
		<path fill="#9B3123" d="M317.522,161.311c-21.88,26.369-60.988,30.011-87.358,8.134c-26.37-21.879-30.013-60.99-8.134-87.361
			c21.877-26.367,60.988-30.011,87.361-8.13C335.76,95.83,339.399,134.939,317.522,161.311z"/>
	</g>
	<g>
		<path fill="#CDCD79" d="M208.828,48.555c-41.325-5.759-78.869,15.801-86.74,48.757c0.072-1.741,0.229-3.49,0.474-5.243
			c4.994-35.841,44.265-59.983,87.716-53.928c43.452,6.055,74.628,40.01,69.635,75.852c-0.244,1.752-0.572,3.475-0.976,5.17
			C280.371,85.312,250.154,54.314,208.828,48.555z"/>
		<path fill="#E6EDB5" d="M192.087,37.339c2.067,1.754,4.14,3.502,6.226,5.239c2.217,1.847,4.443,3.686,6.673,5.521
			c-39.79-3.949-75.272,17.28-82.897,49.214c0.072-1.741,0.229-3.49,0.474-5.243C126.844,61.326,156.354,39.19,192.087,37.339z"/>
		<path fill="#DADFA3" d="M208.442,51.321c-51.083-7.117-79.854,22.864-87.722,55.818c0.073-1.739,0.228-3.488,0.472-5.24
			c4.994-35.84,44.266-59.983,87.717-53.93s74.627,40.012,69.636,75.851c-0.244,1.753-0.575,3.477-0.978,5.171
			C279.004,95.139,256.87,58.07,208.442,51.321z"/>
	</g>
	<g>
		<circle fill="#D04B27" cx="154.727" cy="114.429" r="64.115"/>
		<path fill="#AF3B25" d="M92.136,100.535c1.962-8.842,5.67-16.842,10.669-23.732l111.957,15.139
			c4.22,11.239,5.354,23.786,2.559,36.384c-7.675,34.567-41.92,56.37-76.488,48.695C106.264,169.347,84.461,135.103,92.136,100.535z
			"/>
		<path fill="#9B3123" d="M145.171,181.104c33.451,7.425,66.584-13.669,74.011-47.118c7.426-33.45-13.67-66.584-47.119-74.014
			c-33.451-7.422-66.586,13.673-74.014,47.122C90.627,140.547,111.721,173.678,145.171,181.104z"/>
	</g>
	<g>
		<path fill="#CDCD79" d="M332.216,81.215c-24.447-18.096-56.788-16.315-74.325,3.395c0.707-1.159,1.466-2.294,2.287-3.402
			c16.772-22.661,51.206-25.602,76.909-6.577c25.706,19.025,32.948,52.818,16.175,75.476c-0.818,1.108-1.683,2.167-2.585,3.183
			C364.406,130.76,356.66,99.311,332.216,81.215z"/>
		<path fill="#E6EDB5" d="M325.668,67.842c0.67,1.905,1.348,3.806,2.034,5.701c0.728,2.015,1.464,4.03,2.212,6.041
			c-24.145-16.34-55.033-14.075-72.023,5.025c0.707-1.159,1.466-2.294,2.287-3.402C274.567,61.768,301.949,56.839,325.668,67.842z"
			/>
		<path fill="#DADFA3" d="M330.919,82.964c-30.22-22.368-60.093-11.851-77.626,7.855c0.707-1.152,1.467-2.29,2.287-3.397
			c16.77-22.659,51.201-25.603,76.901-6.576c25.712,19.023,32.954,52.813,16.182,75.476c-0.819,1.107-1.687,2.165-2.584,3.182
			C359.808,136.974,359.571,104.17,330.919,82.964z"/>
	</g>
	<g>
		<path fill="#F3BC6D" d="M397.937,207.956c0,29.26-13.161,56.828-28.86,80.114c-15.465,22.94-39.109,38.918-65.213,51.901
			c-24.314,12.095-50.86,23.434-80.578,23.434c-29.717,0-56.184-11.497-80.498-23.595c-26.104-12.985-52.665-26.888-68.131-49.828
			c-15.697-23.285-23.32-52.767-23.32-82.026c0-29.259,11.74-55.964,27.439-79.248c15.467-22.941,34.692-46.092,60.795-59.075
			c24.313-12.096,53.998-11.742,83.715-11.742c29.718,0,55.864,6.756,80.18,18.852c26.104,12.985,46.646,30.521,62.113,53.462
			C381.278,153.488,397.937,178.697,397.937,207.956z"/>
		<path fill="#DE9C4D" d="M340.747,101.727L116.524,325.951c8.51,4.934,17.409,9.454,26.264,13.859
			c24.314,12.098,50.781,23.595,80.498,23.595c29.718,0,56.264-11.339,80.578-23.434c26.104-12.983,49.748-28.961,65.213-51.901
			c15.699-23.286,28.86-50.854,28.86-80.114c0-29.259-16.659-54.468-32.358-77.752C358.412,119.575,350.142,110.121,340.747,101.727
			z"/>
		<g>
			<path fill="#DE9C4D" d="M149.846,255.044c0,14.316-11.604,25.921-25.92,25.921c-14.313,0-25.92-11.604-25.92-25.921
				c0-14.313,11.607-25.918,25.92-25.918C138.241,229.126,149.846,240.731,149.846,255.044z"/>
			<circle fill="#DE9C4D" cx="144.663" cy="104.71" r="10.8"/>
			<path fill="#DE9C4D" d="M277.543,121.696c0,8.758-7.096,15.857-15.857,15.857c-8.753,0-15.852-7.1-15.852-15.857
				c0-8.753,7.099-15.854,15.852-15.854C270.448,105.843,277.543,112.943,277.543,121.696z"/>
			<path fill="#DE9C4D" d="M123.926,178.58c0,9.545-7.735,17.282-17.28,17.282c-9.544,0-17.28-7.737-17.28-17.282
				c0-9.54,7.736-17.277,17.28-17.277C116.191,161.302,123.926,169.04,123.926,178.58z"/>
			<circle fill="#DE9C4D" cx="193.474" cy="138.294" r="22.032"/>
			<circle fill="#C08341" cx="204.071" cy="309.473" r="21.168"/>
			<circle fill="#C08341" cx="348.134" cy="242.085" r="14.688"/>
			<circle fill="#C08341" cx="327.398" cy="166.917" r="14.688"/>
			<path fill="#C08341" d="M306.278,255.043c0,14.274-11.57,25.843-25.838,25.843c-14.271,0-25.842-11.568-25.842-25.843
				c0-14.27,11.57-25.839,25.842-25.839C294.707,229.204,306.278,240.773,306.278,255.043z"/>
			<circle fill="#DE9C4D" cx="198.077" cy="81.344" r="4.603"/>
			<circle fill="#DE9C4D" cx="101.496" cy="128.001" r="5.15"/>
			<circle fill="#DE9C4D" cx="143.022" cy="154.971" r="2.74"/>
			<circle fill="#DE9C4D" cx="303.573" cy="98.431" r="6.278"/>
			<circle fill="#C08341" cx="347.392" cy="132.781" r="5.306"/>
			<circle fill="#C08341" cx="371.228" cy="179.027" r="6.222"/>
			<circle fill="#DE9C4D" cx="69.5" cy="193.651" r="6.66"/>
		</g>
	</g>
	<path fill="#F2EEE9" d="M396.137,224.239c-24.773-17.791-46.079-30.61-70.677-48.724c-29.006-21.364-63.345-39.272-92.888-59.806
		c-41.238,27.035-83.692,52.025-126.01,77.166c-24.891,14.785-48.847,30.854-73.252,46.468c-0.701,0.448-1.412,0.894-2.116,1.343
		c5.925,31.09,21.956,48.12,33.952,66.118c27.363,41.055,69.8,65.173,85.602,76.881c15.803,11.707,78.521,37.998,78.521,37.998
		c34.276-10.604,87.639-40.029,109.267-58.324c44.456-37.601,70.53-87.485,80.746-119.63
		C419.281,243.729,403.09,230.992,396.137,224.239z"/>
	<path fill="#E5E1DC" d="M396.137,224.239c-24.314-17.46-45.297-30.146-69.322-47.736L132.338,370.98
		c7.592,5.252,14.027,9.458,18.41,12.705c15.803,11.707,78.521,37.998,78.521,37.998c34.276-10.604,87.639-40.029,109.267-58.324
		c44.456-37.601,70.53-87.485,80.746-119.63C419.281,243.729,403.09,230.992,396.137,224.239z"/>
	
		<path fill="#EA8571" stroke="#EA8571" stroke-width="8" stroke-linecap="round" stroke-linejoin="round" stroke-miterlimit="10" d="
		M141.067,269.378c12.243-35.06,44.999-60.755,84.346-62.134c42.076-1.475,78.582,25.316,91.248,63.328l35.422-8.996
		c-17.354-53.771-68.725-91.792-127.99-89.713c-54.76,1.92-100.396,37.519-117.705,86.189L141.067,269.378z"/>
	<path fill="#D67767" d="M305.967,197.351l-25.602,25.601c16.791,11.299,29.74,27.95,36.295,47.62l35.422-8.996
		C343.686,235.562,327.328,213.235,305.967,197.351z"/>
	<polygon fill="#D67767" points="236.932,273.665 284.334,273.665 275.81,348.332 246.244,348.332 	"/>
	
		<line fill="none" stroke="#D67767" stroke-width="6" stroke-linecap="round" stroke-miterlimit="10" x1="180.903" y1="359.857" x2="285.668" y2="359.857"/>
	
		<line fill="none" stroke="#D67767" stroke-width="6" stroke-linecap="round" stroke-miterlimit="10" x1="261.689" y1="268.697" x2="261.689" y2="246.774"/>
	<path fill="none" stroke="#D67767" stroke-width="6" stroke-linecap="round" stroke-linejoin="round" stroke-miterlimit="10" d="
		M260.633,340.566c0,0-7.441-20.758-19.463-32.916c-10.236-10.353-37.1-8.402-37.1-8.402s23.475,1.3,26.342-7.973
		c2.311-7.469-1.465-13.992-1.465-13.992c0-15.527,0.287-34.199-3.709-39.069c-3.209-3.91-10.162-1.487-21.168,2.263
		c-24.484,8.341-14.793,19.834-12.148,24.588s4.309,8.352,6.709,12.219c-0.37,6.448,0.857,19.244,5.439,21.965
		c-28.491,7.871-18.15,42.551-15.736,47.084c0,0,11.629,4.29,19.295,2s15.287-8.582,15.287-8.582"/>
	
		<line fill="none" stroke="#D67767" stroke-width="6" stroke-linecap="round" stroke-linejoin="round" stroke-miterlimit="10" x1="198.631" y1="277.283" x2="228.948" y2="277.283"/>
	<path fill="none" stroke="#D67767" stroke-width="6" stroke-linecap="round" stroke-linejoin="round" stroke-miterlimit="10" d="
		M212.734,326.797c-5.549,1.707-9.443,14.972,4.14,14.972S224.651,323.13,212.734,326.797z"/>
	
		<line fill="none" stroke="#D67767" stroke-width="6" stroke-linecap="round" stroke-linejoin="round" stroke-miterlimit="10" x1="224.336" y1="332.824" x2="299.178" y2="300.548"/>
	<g>
		<defs>
			<polygon id="SVGID_1_" points="236.932,273.665 284.334,273.665 275.81,348.332 246.244,348.332 			"/>
		</defs>
		<clipPath id="SVGID_2_">
			<use xlink:href="#SVGID_1_"  overflow="visible"/>
		</clipPath>
		
			<line clip-path="url(#SVGID_2_)" fill="none" stroke="#E5E1DC" stroke-width="6" stroke-miterlimit="10" x1="224.336" y1="332.824" x2="299.178" y2="300.548"/>
	</g>
	
		<line fill="none" stroke="#D67767" stroke-width="6" stroke-linecap="round" stroke-linejoin="round" stroke-miterlimit="10" x1="194.168" y1="268.697" x2="228.948" y2="261.431"/>
	<path fill="none" stroke="#D67767" stroke-width="6" stroke-linecap="round" stroke-linejoin="round" stroke-miterlimit="10" d="
		M213.789,326.319c0,0-4.228-2.692-11.006-1.39c-6.777,1.303-8.615,9.114-8.615,9.114"/>
</g>
</svg>
