<?xml version="1.0" encoding="utf-8"?>
<!-- Generator: Adobe Illustrator 16.0.0, SVG Export Plug-In . SVG Version: 6.00 Build 0)  -->
<!DOCTYPE svg PUBLIC "-//W3C//DTD SVG 1.1//EN" "http://www.w3.org/Graphics/SVG/1.1/DTD/svg11.dtd">
<svg version="1.1" id="Ebene_1" xmlns="http://www.w3.org/2000/svg" xmlns:xlink="http://www.w3.org/1999/xlink" x="0px" y="0px"
	 width="450px" height="450px" viewBox="0 0 450 450" enable-background="new 0 0 450 450" xml:space="preserve">
<g>
	<g opacity="0.3">
		<path d="M203.354,186.608c-16.619,0-30.094-11.043-30.094-26.159c0,0,0,14.547,0,20.796c0,15.115,13.475,27.371,30.094,27.371
			c16.623,0,30.098-12.256,30.098-27.371c0-4.986,0-20.796,0-20.796C233.451,175.565,219.977,186.608,203.354,186.608z"/>
		<path d="M195.858,207.759c2.395,0.56,4.912,0.857,7.496,0.857c16.623,0,30.098-12.256,30.098-27.371c0-4.986,0-20.796,0-20.796
			c0,12.957-9.902,22.913-23.195,25.495L195.858,207.759z"/>
		<path d="M203.354,186.666c-15.957,0-28.943-11.761-28.943-26.217s12.986-26.216,28.943-26.216
			c15.961,0,28.947,11.76,28.947,26.216S219.315,186.666,203.354,186.666z"/>
		<path d="M203.354,135.385c15.328,0,27.791,11.244,27.791,25.063c0,13.821-12.463,25.063-27.791,25.063
			c-15.322,0-27.787-11.242-27.787-25.063C175.567,146.63,188.031,135.385,203.354,135.385 M203.354,133.083
			c-16.619,0-30.094,12.251-30.094,27.366c0,15.116,13.475,27.369,30.094,27.369c16.623,0,30.098-12.253,30.098-27.369
			C233.451,145.334,219.977,133.083,203.354,133.083L203.354,133.083z"/>
		<path stroke="#000000" stroke-width="1.2311" stroke-miterlimit="10" d="M205.401,161.324c0,3.896-3.463,7.054-7.732,7.054
			c-4.268,0-7.727-3.157-7.727-7.054c0-3.895,3.459-7.052,7.727-7.052C201.938,154.272,205.401,157.429,205.401,161.324z"/>
		<ellipse cx="205.398" cy="154.055" rx="7.729" ry="7.054"/>
		<path d="M209.916,156.285c-3.289,2.387-6.523,4.827-9.689,7.316c0.008,0.45,0.061,0.903,0.164,1.354
			c0.889,3.793,4.977,6.08,9.135,5.108c4.158-0.973,6.807-4.835,5.916-8.629C214.823,158.771,212.615,156.854,209.916,156.285z"/>
		<path d="M215.442,161.435c-0.619-2.664-2.826-4.581-5.525-5.15c-0.584,0.424-1.16,0.86-1.74,1.287
			c2.332,0.748,4.189,2.531,4.748,4.935c0.686,2.928-0.742,5.891-3.34,7.539C213.703,169.053,216.326,165.211,215.442,161.435z"/>
		<path fill="none" stroke="#000000" stroke-width="2.1908" stroke-linecap="round" stroke-miterlimit="10" d="M190.53,144.236
			c-2.465,1.618-2.33,4.52-0.412,5.342"/>
		<path fill="none" stroke="#000000" stroke-width="2.1908" stroke-linecap="round" stroke-miterlimit="10" d="M180.535,159.436
			c1.252,0.116,3.738,2.571,2.463,3.696"/>
		<path fill="none" stroke="#000000" stroke-width="2.1908" stroke-linecap="round" stroke-miterlimit="10" d="M186.969,172.855
			c-0.783,1.475,0.154,5.356,2.465,4.518"/>
		<path fill="none" stroke="#000000" stroke-width="2.1908" stroke-linecap="round" stroke-miterlimit="10" d="M201.071,173.539
			c1.297,0.269,2.336,0.465,3.15,1.642"/>
		<path fill="none" stroke="#000000" stroke-width="2.1908" stroke-linecap="round" stroke-miterlimit="10" d="M214.764,175.866
			c0.629,1.168,2.576,1.313,3.559,0.548"/>
		<path fill="none" stroke="#000000" stroke-width="2.1908" stroke-linecap="round" stroke-miterlimit="10" d="M220.924,160.258
			c1.283-1.16,2.996-1.456,4.107,0.136"/>
		<path fill="none" stroke="#000000" stroke-width="2.1908" stroke-linecap="round" stroke-miterlimit="10" d="M223.252,167.514
			c0.301,1.498,1.035,2.139,2.602,2.327"/>
		<path fill="none" stroke="#000000" stroke-width="2.1908" stroke-linecap="round" stroke-miterlimit="10" d="M199.701,140.541
			c0.223,2.2,1.855,2.93,3.834,3.285"/>
		<path fill="none" stroke="#000000" stroke-width="2.1908" stroke-linecap="round" stroke-miterlimit="10" d="M213.256,143.552
			c1.57-0.347,3.867,0.252,3.563,2.328"/>
		<path fill="none" stroke="#000000" stroke-width="2.1908" stroke-linecap="round" stroke-miterlimit="10" d="M216.951,152.591
			c0.465,1.001,1.313,1.21,2.328,1.369"/>
		<path fill="none" stroke="#000000" stroke-width="2.1908" stroke-linecap="round" stroke-miterlimit="10" d="M223.801,148.345
			c0.959,0.159,1.826,0.427,2.326,1.368"/>
		<path fill="none" stroke="#000000" stroke-width="2.1908" stroke-linecap="round" stroke-miterlimit="10" d="M201.483,180.659
			c-0.014,1.024,0.57,1.71,1.641,1.643"/>
		<path fill="none" stroke="#000000" stroke-width="2.1908" stroke-linecap="round" stroke-miterlimit="10" d="M181.766,149.029
			c1.625-0.316,2.311,1.528,2.326,2.875"/>
		<path d="M154.449,221.003c-16.617,0-30.092-11.041-30.092-26.158c0,0,0,14.548,0,20.797c0,15.116,13.475,27.371,30.092,27.371
			c16.625,0,30.098-12.255,30.098-27.371c0-4.986,0-20.797,0-20.797C184.547,209.962,171.074,221.003,154.449,221.003z"/>
		<path d="M146.955,242.153c2.396,0.562,4.906,0.859,7.494,0.859c16.625,0,30.098-12.255,30.098-27.371c0-4.986,0-20.797,0-20.797
			c0,12.958-9.902,22.914-23.195,25.496L146.955,242.153z"/>
		<path d="M154.449,221.062c-15.959,0-28.941-11.762-28.941-26.218c0-14.455,12.982-26.215,28.941-26.215
			c15.963,0,28.947,11.76,28.947,26.215C183.397,209.301,170.412,221.062,154.449,221.062z"/>
		<path d="M154.449,169.782c15.328,0,27.793,11.242,27.793,25.063c0,13.821-12.465,25.065-27.793,25.065
			c-15.322,0-27.791-11.244-27.791-25.065C126.658,181.024,139.127,169.782,154.449,169.782 M154.449,167.477
			c-16.617,0-30.092,12.253-30.092,27.367c0,15.117,13.475,27.369,30.092,27.369c16.625,0,30.098-12.252,30.098-27.369
			C184.547,179.73,171.074,167.477,154.449,167.477L154.449,167.477z"/>
		<path stroke="#000000" stroke-width="1.2311" stroke-miterlimit="10" d="M156.496,195.719c0,3.896-3.463,7.053-7.729,7.053
			c-4.271,0-7.73-3.157-7.73-7.053c0-3.894,3.459-7.051,7.73-7.051C153.033,188.669,156.496,191.826,156.496,195.719z"/>
		<path d="M164.225,188.452c0,3.897-3.461,7.054-7.729,7.054c-4.271,0-7.729-3.156-7.729-7.054c0-3.894,3.457-7.051,7.729-7.051
			C160.764,181.401,164.225,184.558,164.225,188.452z"/>
		<path d="M161.012,190.682c-3.287,2.387-6.521,4.826-9.691,7.316c0.012,0.447,0.063,0.903,0.168,1.354
			c0.887,3.791,4.975,6.08,9.133,5.108c4.156-0.974,6.807-4.834,5.918-8.628C165.918,193.169,163.711,191.251,161.012,190.682z"/>
		<path d="M166.539,195.833c-0.621-2.664-2.828-4.582-5.527-5.15c-0.584,0.424-1.158,0.859-1.738,1.287
			c2.332,0.748,4.186,2.531,4.748,4.934c0.684,2.929-0.744,5.893-3.342,7.539C164.799,203.45,167.42,199.607,166.539,195.833z"/>
		<path fill="none" stroke="#000000" stroke-width="2.1908" stroke-linecap="round" stroke-miterlimit="10" d="M141.623,178.635
			c-2.465,1.614-2.328,4.518-0.408,5.338"/>
		<path fill="none" stroke="#000000" stroke-width="2.1908" stroke-linecap="round" stroke-miterlimit="10" d="M131.627,193.833
			c1.256,0.115,3.742,2.571,2.465,3.696"/>
		<path fill="none" stroke="#000000" stroke-width="2.1908" stroke-linecap="round" stroke-miterlimit="10" d="M138.065,207.25
			c-0.783,1.476,0.154,5.358,2.465,4.52"/>
		<path fill="none" stroke="#000000" stroke-width="2.1908" stroke-linecap="round" stroke-miterlimit="10" d="M152.166,207.933
			c1.297,0.271,2.338,0.468,3.15,1.644"/>
		<path fill="none" stroke="#000000" stroke-width="2.1908" stroke-linecap="round" stroke-miterlimit="10" d="M165.858,210.262
			c0.633,1.169,2.58,1.313,3.563,0.548"/>
		<path fill="none" stroke="#000000" stroke-width="2.1908" stroke-linecap="round" stroke-miterlimit="10" d="M172.022,194.652
			c1.281-1.159,2.994-1.456,4.105,0.138"/>
		<path fill="none" stroke="#000000" stroke-width="2.1908" stroke-linecap="round" stroke-miterlimit="10" d="M174.348,201.912
			c0.301,1.497,1.035,2.138,2.602,2.325"/>
		<path fill="none" stroke="#000000" stroke-width="2.1908" stroke-linecap="round" stroke-miterlimit="10" d="M150.799,174.938
			c0.223,2.197,1.855,2.929,3.836,3.284"/>
		<path fill="none" stroke="#000000" stroke-width="2.1908" stroke-linecap="round" stroke-miterlimit="10" d="M164.354,177.949
			c1.57-0.349,3.867,0.251,3.561,2.327"/>
		<path fill="none" stroke="#000000" stroke-width="2.1908" stroke-linecap="round" stroke-miterlimit="10" d="M168.051,186.985
			c0.461,1.001,1.311,1.212,2.324,1.369"/>
		<path fill="none" stroke="#000000" stroke-width="2.1908" stroke-linecap="round" stroke-miterlimit="10" d="M174.897,182.741
			c0.965,0.162,1.828,0.426,2.326,1.369"/>
		<path fill="none" stroke="#000000" stroke-width="2.1908" stroke-linecap="round" stroke-miterlimit="10" d="M152.58,215.054
			c-0.016,1.026,0.574,1.711,1.643,1.644"/>
		<path fill="none" stroke="#000000" stroke-width="2.1908" stroke-linecap="round" stroke-miterlimit="10" d="M132.862,183.425
			c1.627-0.314,2.311,1.528,2.328,2.876"/>
		<path d="M252.637,225.88c-16.619,0-30.094-11.043-30.094-26.16c0,0,0,14.547,0,20.797c0,15.115,13.475,27.371,30.094,27.371
			c16.623,0,30.098-12.256,30.098-27.371c0-4.986,0-20.797,0-20.797C282.735,214.837,269.26,225.88,252.637,225.88z"/>
		<path d="M245.143,247.03c2.393,0.559,4.91,0.857,7.494,0.857c16.623,0,30.098-12.256,30.098-27.371c0-4.986,0-20.797,0-20.797
			c0,12.957-9.902,22.914-23.195,25.496L245.143,247.03z"/>
		<path d="M252.637,225.936c-15.957,0-28.941-11.76-28.941-26.217c0-14.455,12.984-26.215,28.941-26.215
			c15.963,0,28.947,11.76,28.947,26.215C281.584,214.177,268.6,225.936,252.637,225.936z"/>
		<path d="M252.637,174.657c15.328,0,27.793,11.244,27.793,25.063c0,13.822-12.465,25.064-27.793,25.064
			c-15.322,0-27.787-11.242-27.787-25.064C224.85,185.901,237.315,174.657,252.637,174.657 M252.637,172.354
			c-16.619,0-30.094,12.25-30.094,27.365c0,15.117,13.475,27.369,30.094,27.369c16.623,0,30.098-12.252,30.098-27.369
			C282.735,184.604,269.26,172.354,252.637,172.354L252.637,172.354z"/>
		<ellipse stroke="#000000" stroke-width="1.2311" stroke-miterlimit="10" cx="246.954" cy="200.594" rx="7.729" ry="7.055"/>
		<ellipse cx="254.683" cy="193.327" rx="7.729" ry="7.053"/>
		<path d="M259.201,195.555c-3.289,2.387-6.523,4.828-9.691,7.316c0.008,0.451,0.061,0.904,0.164,1.355
			c0.891,3.793,4.977,6.08,9.135,5.107s6.807-4.834,5.918-8.629C264.106,198.042,261.899,196.126,259.201,195.555z"/>
		<path d="M264.727,200.706c-0.621-2.664-2.828-4.58-5.525-5.15c-0.586,0.424-1.16,0.861-1.74,1.287
			c2.332,0.748,4.188,2.531,4.748,4.936c0.684,2.928-0.744,5.891-3.342,7.539C262.989,208.325,265.61,204.481,264.727,200.706z"/>
		<path fill="none" stroke="#000000" stroke-width="2.1908" stroke-linecap="round" stroke-miterlimit="10" d="M239.813,183.507
			c-2.465,1.619-2.328,4.52-0.412,5.342"/>
		<path fill="none" stroke="#000000" stroke-width="2.1908" stroke-linecap="round" stroke-miterlimit="10" d="M229.819,198.708
			c1.252,0.115,3.74,2.57,2.465,3.695"/>
		<path fill="none" stroke="#000000" stroke-width="2.1908" stroke-linecap="round" stroke-miterlimit="10" d="M236.254,212.126
			c-0.783,1.475,0.152,5.357,2.465,4.518"/>
		<path fill="none" stroke="#000000" stroke-width="2.1908" stroke-linecap="round" stroke-miterlimit="10" d="M250.356,212.809
			c1.295,0.27,2.336,0.465,3.148,1.643"/>
		<path fill="none" stroke="#000000" stroke-width="2.1908" stroke-linecap="round" stroke-miterlimit="10" d="M264.047,215.137
			c0.631,1.168,2.576,1.313,3.561,0.547"/>
		<path fill="none" stroke="#000000" stroke-width="2.1908" stroke-linecap="round" stroke-miterlimit="10" d="M270.209,199.528
			c1.281-1.16,2.994-1.455,4.107,0.137"/>
		<path fill="none" stroke="#000000" stroke-width="2.1908" stroke-linecap="round" stroke-miterlimit="10" d="M272.535,206.786
			c0.301,1.498,1.035,2.139,2.604,2.326"/>
		<path fill="none" stroke="#000000" stroke-width="2.1908" stroke-linecap="round" stroke-miterlimit="10" d="M248.985,179.811
			c0.225,2.201,1.855,2.93,3.836,3.285"/>
		<path fill="none" stroke="#000000" stroke-width="2.1908" stroke-linecap="round" stroke-miterlimit="10" d="M262.541,182.823
			c1.57-0.348,3.867,0.252,3.561,2.328"/>
		<path fill="none" stroke="#000000" stroke-width="2.1908" stroke-linecap="round" stroke-miterlimit="10" d="M266.237,191.862
			c0.463,1,1.311,1.209,2.328,1.369"/>
		<path fill="none" stroke="#000000" stroke-width="2.1908" stroke-linecap="round" stroke-miterlimit="10" d="M273.084,187.616
			c0.961,0.16,1.826,0.428,2.326,1.369"/>
		<path fill="none" stroke="#000000" stroke-width="2.1908" stroke-linecap="round" stroke-miterlimit="10" d="M250.766,219.93
			c-0.012,1.023,0.572,1.709,1.643,1.643"/>
		<path fill="none" stroke="#000000" stroke-width="2.1908" stroke-linecap="round" stroke-miterlimit="10" d="M231.049,188.3
			c1.627-0.316,2.313,1.529,2.326,2.875"/>
		<path d="M301.479,264.488c-16.619,0-30.094-11.041-30.094-26.158c0,0,0,14.548,0,20.797c0,15.116,13.475,27.371,30.094,27.371
			c16.623,0,30.096-12.255,30.096-27.371c0-4.986,0-20.797,0-20.797C331.574,253.447,318.102,264.488,301.479,264.488z"/>
		<path d="M293.983,285.638c2.396,0.562,4.908,0.859,7.496,0.859c16.623,0,30.096-12.255,30.096-27.371c0-4.986,0-20.797,0-20.797
			c0,12.958-9.902,22.914-23.195,25.496L293.983,285.638z"/>
		<path d="M301.479,264.548c-15.959,0-28.943-11.762-28.943-26.218c0-14.455,12.984-26.215,28.943-26.215
			c15.961,0,28.945,11.76,28.945,26.215C330.424,252.786,317.44,264.548,301.479,264.548z"/>
		<path d="M301.479,213.267c15.326,0,27.793,11.242,27.793,25.063c0,13.821-12.467,25.065-27.793,25.065
			c-15.322,0-27.791-11.244-27.791-25.065C273.688,224.51,286.156,213.267,301.479,213.267 M301.479,210.963
			c-16.619,0-30.094,12.253-30.094,27.367c0,15.117,13.475,27.369,30.094,27.369c16.623,0,30.096-12.252,30.096-27.369
			C331.574,223.216,318.102,210.963,301.479,210.963L301.479,210.963z"/>
		<ellipse stroke="#000000" stroke-width="1.2311" stroke-miterlimit="10" cx="295.794" cy="239.205" rx="7.729" ry="7.053"/>
		<ellipse cx="303.524" cy="231.937" rx="7.729" ry="7.054"/>
		<path d="M308.039,234.168c-3.285,2.387-6.521,4.826-9.691,7.316c0.012,0.447,0.063,0.903,0.168,1.354
			c0.889,3.791,4.977,6.08,9.133,5.108c4.158-0.974,6.807-4.834,5.918-8.628C312.946,236.654,310.739,234.736,308.039,234.168z"/>
		<path d="M313.567,239.318c-0.621-2.664-2.828-4.582-5.527-5.15c-0.584,0.424-1.158,0.859-1.738,1.287
			c2.334,0.748,4.186,2.531,4.748,4.934c0.684,2.929-0.742,5.893-3.342,7.539C311.828,246.935,314.449,243.093,313.567,239.318z"/>
		<path fill="none" stroke="#000000" stroke-width="2.1908" stroke-linecap="round" stroke-miterlimit="10" d="M288.653,222.12
			c-2.465,1.614-2.328,4.518-0.41,5.338"/>
		<path fill="none" stroke="#000000" stroke-width="2.1908" stroke-linecap="round" stroke-miterlimit="10" d="M278.656,237.318
			c1.256,0.115,3.74,2.571,2.465,3.696"/>
		<path fill="none" stroke="#000000" stroke-width="2.1908" stroke-linecap="round" stroke-miterlimit="10" d="M285.092,250.735
			c-0.781,1.476,0.154,5.358,2.465,4.52"/>
		<path fill="none" stroke="#000000" stroke-width="2.1908" stroke-linecap="round" stroke-miterlimit="10" d="M299.196,251.419
			c1.295,0.271,2.336,0.468,3.15,1.644"/>
		<path fill="none" stroke="#000000" stroke-width="2.1908" stroke-linecap="round" stroke-miterlimit="10" d="M312.887,253.748
			c0.631,1.169,2.578,1.313,3.563,0.548"/>
		<path fill="none" stroke="#000000" stroke-width="2.1908" stroke-linecap="round" stroke-miterlimit="10" d="M319.049,238.137
			c1.281-1.159,2.994-1.456,4.107,0.138"/>
		<path fill="none" stroke="#000000" stroke-width="2.1908" stroke-linecap="round" stroke-miterlimit="10" d="M321.375,245.397
			c0.303,1.497,1.037,2.138,2.604,2.325"/>
		<path fill="none" stroke="#000000" stroke-width="2.1908" stroke-linecap="round" stroke-miterlimit="10" d="M297.826,218.424
			c0.223,2.197,1.855,2.929,3.836,3.284"/>
		<path fill="none" stroke="#000000" stroke-width="2.1908" stroke-linecap="round" stroke-miterlimit="10" d="M311.381,221.434
			c1.57-0.349,3.867,0.251,3.561,2.327"/>
		<path fill="none" stroke="#000000" stroke-width="2.1908" stroke-linecap="round" stroke-miterlimit="10" d="M315.078,230.47
			c0.463,1.001,1.311,1.212,2.326,1.369"/>
		<path fill="none" stroke="#000000" stroke-width="2.1908" stroke-linecap="round" stroke-miterlimit="10" d="M321.924,226.226
			c0.965,0.162,1.83,0.426,2.326,1.369"/>
		<path fill="none" stroke="#000000" stroke-width="2.1908" stroke-linecap="round" stroke-miterlimit="10" d="M299.608,258.54
			c-0.014,1.026,0.574,1.711,1.643,1.644"/>
		<path fill="none" stroke="#000000" stroke-width="2.1908" stroke-linecap="round" stroke-miterlimit="10" d="M279.889,226.91
			c1.627-0.314,2.313,1.528,2.328,2.876"/>
		<path d="M202.426,261.767c-16.619,0-30.094-11.043-30.094-26.159c0,0,0,14.547,0,20.796c0,15.115,13.475,27.371,30.094,27.371
			c16.623,0,30.098-12.256,30.098-27.371c0-4.986,0-20.796,0-20.796C232.524,250.724,219.049,261.767,202.426,261.767z"/>
		<path d="M194.932,282.918c2.393,0.56,4.91,0.857,7.494,0.857c16.623,0,30.098-12.256,30.098-27.371c0-4.986,0-20.796,0-20.796
			c0,12.957-9.902,22.913-23.195,25.495L194.932,282.918z"/>
		<path d="M202.426,261.825c-15.957,0-28.941-11.761-28.941-26.217s12.984-26.216,28.941-26.216
			c15.963,0,28.947,11.76,28.947,26.216S218.389,261.825,202.426,261.825z"/>
		<path d="M202.426,210.545c15.328,0,27.793,11.244,27.793,25.063c0,13.821-12.465,25.063-27.793,25.063
			c-15.322,0-27.787-11.242-27.787-25.063C174.639,221.789,187.104,210.545,202.426,210.545 M202.426,208.242
			c-16.619,0-30.094,12.251-30.094,27.366c0,15.116,13.475,27.369,30.094,27.369c16.623,0,30.098-12.253,30.098-27.369
			C232.524,220.493,219.049,208.242,202.426,208.242L202.426,208.242z"/>
		<ellipse stroke="#000000" stroke-width="1.2311" stroke-miterlimit="10" cx="196.743" cy="236.483" rx="7.729" ry="7.054"/>
		<ellipse cx="204.472" cy="229.215" rx="7.729" ry="7.054"/>
		<path d="M208.99,231.444c-3.289,2.387-6.523,4.827-9.691,7.316c0.008,0.45,0.061,0.903,0.164,1.354
			c0.891,3.793,4.977,6.08,9.135,5.108c4.158-0.973,6.807-4.835,5.918-8.629C213.895,233.93,211.688,232.013,208.99,231.444z"/>
		<path d="M214.516,236.594c-0.621-2.664-2.828-4.581-5.525-5.15c-0.586,0.424-1.16,0.86-1.74,1.287
			c2.332,0.748,4.188,2.531,4.748,4.935c0.684,2.928-0.744,5.891-3.342,7.539C212.778,244.213,215.399,240.37,214.516,236.594z"/>
		<path fill="none" stroke="#000000" stroke-width="2.1908" stroke-linecap="round" stroke-miterlimit="10" d="M189.602,219.395
			c-2.465,1.618-2.328,4.52-0.412,5.342"/>
		<path fill="none" stroke="#000000" stroke-width="2.1908" stroke-linecap="round" stroke-miterlimit="10" d="M179.608,234.595
			c1.252,0.116,3.74,2.571,2.463,3.696"/>
		<path fill="none" stroke="#000000" stroke-width="2.1908" stroke-linecap="round" stroke-miterlimit="10" d="M186.043,248.014
			c-0.783,1.475,0.152,5.356,2.465,4.518"/>
		<path fill="none" stroke="#000000" stroke-width="2.1908" stroke-linecap="round" stroke-miterlimit="10" d="M200.145,248.698
			c1.295,0.269,2.336,0.465,3.148,1.642"/>
		<path fill="none" stroke="#000000" stroke-width="2.1908" stroke-linecap="round" stroke-miterlimit="10" d="M213.836,251.025
			c0.631,1.168,2.576,1.313,3.561,0.548"/>
		<path fill="none" stroke="#000000" stroke-width="2.1908" stroke-linecap="round" stroke-miterlimit="10" d="M219.998,235.417
			c1.281-1.16,2.994-1.456,4.107,0.136"/>
		<path fill="none" stroke="#000000" stroke-width="2.1908" stroke-linecap="round" stroke-miterlimit="10" d="M222.324,242.674
			c0.301,1.498,1.035,2.139,2.604,2.327"/>
		<path fill="none" stroke="#000000" stroke-width="2.1908" stroke-linecap="round" stroke-miterlimit="10" d="M198.774,215.7
			c0.225,2.2,1.855,2.93,3.836,3.285"/>
		<path fill="none" stroke="#000000" stroke-width="2.1908" stroke-linecap="round" stroke-miterlimit="10" d="M212.33,218.711
			c1.57-0.347,3.867,0.252,3.561,2.328"/>
		<path fill="none" stroke="#000000" stroke-width="2.1908" stroke-linecap="round" stroke-miterlimit="10" d="M216.026,227.75
			c0.463,1.001,1.311,1.21,2.328,1.369"/>
		<path fill="none" stroke="#000000" stroke-width="2.1908" stroke-linecap="round" stroke-miterlimit="10" d="M222.873,223.505
			c0.961,0.159,1.826,0.427,2.326,1.368"/>
		<path fill="none" stroke="#000000" stroke-width="2.1908" stroke-linecap="round" stroke-miterlimit="10" d="M200.555,255.818
			c-0.012,1.024,0.572,1.71,1.643,1.643"/>
		<path fill="none" stroke="#000000" stroke-width="2.1908" stroke-linecap="round" stroke-miterlimit="10" d="M180.838,224.188
			c1.625-0.316,2.311,1.528,2.326,2.875"/>
		<path d="M252.285,300.813c-16.619,0-30.094-11.041-30.094-26.158c0,0,0,14.548,0,20.797c0,15.116,13.475,27.371,30.094,27.371
			c16.623,0,30.096-12.255,30.096-27.371c0-4.986,0-20.797,0-20.797C282.381,289.772,268.908,300.813,252.285,300.813z"/>
		<path d="M244.789,321.964c2.396,0.562,4.908,0.859,7.496,0.859c16.623,0,30.096-12.255,30.096-27.371c0-4.986,0-20.797,0-20.797
			c0,12.958-9.902,22.914-23.195,25.496L244.789,321.964z"/>
		<path d="M252.285,300.873c-15.959,0-28.943-11.762-28.943-26.218c0-14.455,12.984-26.215,28.943-26.215
			c15.961,0,28.945,11.76,28.945,26.215C281.231,289.111,268.246,300.873,252.285,300.873z"/>
		<path d="M252.285,249.593c15.326,0,27.793,11.242,27.793,25.063c0,13.821-12.467,25.065-27.793,25.065
			c-15.322,0-27.791-11.244-27.791-25.065C224.494,260.835,236.963,249.593,252.285,249.593 M252.285,247.288
			c-16.619,0-30.094,12.253-30.094,27.367c0,15.117,13.475,27.369,30.094,27.369c16.623,0,30.096-12.252,30.096-27.369
			C282.381,259.541,268.908,247.288,252.285,247.288L252.285,247.288z"/>
		<ellipse stroke="#000000" stroke-width="1.2311" stroke-miterlimit="10" cx="246.601" cy="275.53" rx="7.729" ry="7.053"/>
		<ellipse cx="254.33" cy="268.262" rx="7.729" ry="7.054"/>
		<path d="M258.846,270.493c-3.285,2.387-6.521,4.826-9.691,7.316c0.012,0.447,0.063,0.903,0.168,1.354
			c0.889,3.791,4.977,6.08,9.133,5.108c4.158-0.974,6.807-4.834,5.918-8.628C263.752,272.979,261.545,271.061,258.846,270.493z"/>
		<path d="M264.373,275.643c-0.621-2.664-2.828-4.582-5.527-5.15c-0.584,0.424-1.158,0.859-1.738,1.287
			c2.334,0.748,4.186,2.531,4.748,4.934c0.684,2.929-0.742,5.893-3.342,7.539C262.635,283.26,265.256,279.418,264.373,275.643z"/>
		<path fill="none" stroke="#000000" stroke-width="2.1908" stroke-linecap="round" stroke-miterlimit="10" d="M239.459,258.445
			c-2.465,1.614-2.328,4.518-0.41,5.338"/>
		<path fill="none" stroke="#000000" stroke-width="2.1908" stroke-linecap="round" stroke-miterlimit="10" d="M229.463,273.643
			c1.256,0.115,3.74,2.571,2.465,3.696"/>
		<path fill="none" stroke="#000000" stroke-width="2.1908" stroke-linecap="round" stroke-miterlimit="10" d="M235.899,287.06
			c-0.781,1.476,0.154,5.358,2.465,4.52"/>
		<path fill="none" stroke="#000000" stroke-width="2.1908" stroke-linecap="round" stroke-miterlimit="10" d="M250.002,287.744
			c1.295,0.271,2.336,0.468,3.15,1.644"/>
		<path fill="none" stroke="#000000" stroke-width="2.1908" stroke-linecap="round" stroke-miterlimit="10" d="M263.694,290.073
			c0.631,1.169,2.578,1.313,3.563,0.548"/>
		<path fill="none" stroke="#000000" stroke-width="2.1908" stroke-linecap="round" stroke-miterlimit="10" d="M269.856,274.463
			c1.281-1.159,2.994-1.456,4.107,0.138"/>
		<path fill="none" stroke="#000000" stroke-width="2.1908" stroke-linecap="round" stroke-miterlimit="10" d="M272.182,281.722
			c0.303,1.497,1.037,2.138,2.604,2.325"/>
		<path fill="none" stroke="#000000" stroke-width="2.1908" stroke-linecap="round" stroke-miterlimit="10" d="M248.633,254.749
			c0.223,2.197,1.855,2.929,3.836,3.284"/>
		<path fill="none" stroke="#000000" stroke-width="2.1908" stroke-linecap="round" stroke-miterlimit="10" d="M262.188,257.76
			c1.57-0.349,3.867,0.251,3.561,2.327"/>
		<path fill="none" stroke="#000000" stroke-width="2.1908" stroke-linecap="round" stroke-miterlimit="10" d="M265.885,266.796
			c0.463,1.001,1.311,1.212,2.326,1.369"/>
		<path fill="none" stroke="#000000" stroke-width="2.1908" stroke-linecap="round" stroke-miterlimit="10" d="M272.731,262.552
			c0.965,0.162,1.83,0.426,2.326,1.369"/>
		<path fill="none" stroke="#000000" stroke-width="2.1908" stroke-linecap="round" stroke-miterlimit="10" d="M250.414,294.865
			c-0.014,1.026,0.574,1.711,1.643,1.644"/>
		<path fill="none" stroke="#000000" stroke-width="2.1908" stroke-linecap="round" stroke-miterlimit="10" d="M230.696,263.235
			c1.627-0.314,2.313,1.528,2.328,2.876"/>
	</g>
	<g>
		<g>
			<g>
				<path fill="#39443B" d="M197.684,180.939c-16.619,0-30.094-11.043-30.094-26.159c0,0,0,14.547,0,20.796
					c0,15.115,13.475,27.371,30.094,27.371c16.623,0,30.098-12.256,30.098-27.371c0-4.986,0-20.796,0-20.796
					C227.781,169.896,214.307,180.939,197.684,180.939z"/>
				<path fill="#29302A" d="M190.189,202.09c2.394,0.56,4.911,0.857,7.495,0.857c16.623,0,30.098-12.256,30.098-27.371
					c0-4.986,0-20.796,0-20.796c0,12.957-9.902,22.913-23.195,25.495L190.189,202.09z"/>
				<g>
					<path fill="#F0E7E2" d="M197.684,180.997c-15.957,0-28.943-11.761-28.943-26.217s12.986-26.216,28.943-26.216
						c15.962,0,28.947,11.76,28.947,26.216S213.646,180.997,197.684,180.997z"/>
					<path fill="#4B564A" d="M197.684,129.717c15.328,0,27.791,11.244,27.791,25.063c0,13.821-12.463,25.063-27.791,25.063
						c-15.322,0-27.787-11.242-27.787-25.063C169.897,140.961,182.362,129.717,197.684,129.717 M197.684,127.414
						c-16.619,0-30.094,12.251-30.094,27.366c0,15.116,13.475,27.369,30.094,27.369c16.623,0,30.098-12.253,30.098-27.369
						C227.781,139.665,214.307,127.414,197.684,127.414L197.684,127.414z"/>
				</g>
			</g>
			<g>
				
					<ellipse fill="#E8DF68" stroke="#B08848" stroke-width="1.2311" stroke-miterlimit="10" cx="192.001" cy="155.655" rx="7.729" ry="7.054"/>
				<ellipse fill="#ED9521" cx="199.73" cy="148.386" rx="7.729" ry="7.054"/>
				<path fill="#B1D9AA" d="M204.247,150.616c-3.288,2.387-6.524,4.827-9.689,7.316c0.007,0.45,0.06,0.903,0.163,1.354
					c0.89,3.793,4.977,6.08,9.135,5.108c4.158-0.973,6.807-4.835,5.917-8.629C209.153,153.102,206.946,151.185,204.247,150.616z"/>
				<path fill="#44944D" d="M209.773,155.766c-0.62-2.664-2.827-4.581-5.525-5.15c-0.585,0.424-1.16,0.86-1.74,1.287
					c2.332,0.748,4.188,2.531,4.748,4.935c0.685,2.928-0.743,5.891-3.341,7.539C208.034,163.385,210.656,159.542,209.773,155.766z"
					/>
			</g>
			<g>
				<path fill="none" stroke="#D7CAC4" stroke-width="2.1908" stroke-linecap="round" stroke-miterlimit="10" d="M184.86,138.567
					c-2.465,1.618-2.329,4.52-0.412,5.342"/>
				<path fill="none" stroke="#D7CAC4" stroke-width="2.1908" stroke-linecap="round" stroke-miterlimit="10" d="M174.865,153.767
					c1.252,0.116,3.739,2.571,2.463,3.696"/>
				<path fill="none" stroke="#D7CAC4" stroke-width="2.1908" stroke-linecap="round" stroke-miterlimit="10" d="M181.3,167.186
					c-0.783,1.475,0.153,5.356,2.465,4.518"/>
				<path fill="none" stroke="#D7CAC4" stroke-width="2.1908" stroke-linecap="round" stroke-miterlimit="10" d="M195.402,167.87
					c1.296,0.269,2.336,0.465,3.149,1.642"/>
				<path fill="none" stroke="#D7CAC4" stroke-width="2.1908" stroke-linecap="round" stroke-miterlimit="10" d="M209.094,170.197
					c0.629,1.168,2.576,1.313,3.56,0.548"/>
				<path fill="none" stroke="#D7CAC4" stroke-width="2.1908" stroke-linecap="round" stroke-miterlimit="10" d="M215.255,154.589
					c1.282-1.16,2.995-1.456,4.107,0.136"/>
				<path fill="none" stroke="#D7CAC4" stroke-width="2.1908" stroke-linecap="round" stroke-miterlimit="10" d="M217.582,161.845
					c0.301,1.498,1.035,2.139,2.603,2.327"/>
				<path fill="none" stroke="#D7CAC4" stroke-width="2.1908" stroke-linecap="round" stroke-miterlimit="10" d="M194.031,134.872
					c0.224,2.2,1.856,2.93,3.835,3.285"/>
				<path fill="none" stroke="#D7CAC4" stroke-width="2.1908" stroke-linecap="round" stroke-miterlimit="10" d="M207.587,137.883
					c1.569-0.347,3.867,0.252,3.562,2.328"/>
				<path fill="none" stroke="#D7CAC4" stroke-width="2.1908" stroke-linecap="round" stroke-miterlimit="10" d="M211.282,146.922
					c0.464,1.001,1.312,1.21,2.328,1.369"/>
				<path fill="none" stroke="#D7CAC4" stroke-width="2.1908" stroke-linecap="round" stroke-miterlimit="10" d="M218.131,142.677
					c0.96,0.159,1.826,0.427,2.326,1.368"/>
				<path fill="none" stroke="#D7CAC4" stroke-width="2.1908" stroke-linecap="round" stroke-miterlimit="10" d="M195.813,174.99
					c-0.013,1.024,0.571,1.71,1.642,1.643"/>
				<path fill="none" stroke="#D7CAC4" stroke-width="2.1908" stroke-linecap="round" stroke-miterlimit="10" d="M176.097,143.36
					c1.624-0.316,2.311,1.528,2.325,2.875"/>
			</g>
		</g>
		<g>
			<g>
				<path fill="#39443B" d="M148.78,215.334c-16.616,0-30.092-11.041-30.092-26.158c0,0,0,14.548,0,20.797
					c0,15.116,13.476,27.371,30.092,27.371c16.625,0,30.098-12.255,30.098-27.371c0-4.986,0-20.797,0-20.797
					C178.877,204.293,165.405,215.334,148.78,215.334z"/>
				<path fill="#29302A" d="M141.286,236.484c2.396,0.562,4.905,0.859,7.493,0.859c16.625,0,30.098-12.255,30.098-27.371
					c0-4.986,0-20.797,0-20.797c0,12.958-9.902,22.914-23.195,25.496L141.286,236.484z"/>
				<g>
					<path fill="#F0E7E2" d="M148.78,215.393c-15.958,0-28.941-11.762-28.941-26.218c0-14.455,12.983-26.215,28.941-26.215
						c15.964,0,28.947,11.76,28.947,26.215C177.727,203.632,164.743,215.393,148.78,215.393z"/>
					<path fill="#4B564A" d="M148.78,164.113c15.328,0,27.793,11.242,27.793,25.063c0,13.821-12.465,25.065-27.793,25.065
						c-15.32,0-27.79-11.244-27.79-25.065C120.99,175.355,133.459,164.113,148.78,164.113 M148.78,161.808
						c-16.616,0-30.092,12.253-30.092,27.367c0,15.117,13.476,27.369,30.092,27.369c16.625,0,30.098-12.252,30.098-27.369
						C178.877,174.061,165.405,161.808,148.78,161.808L148.78,161.808z"/>
				</g>
			</g>
			<g>
				<path fill="#E8DF68" stroke="#B08848" stroke-width="1.2311" stroke-miterlimit="10" d="M150.827,190.051
					c0,3.896-3.464,7.053-7.729,7.053c-4.271,0-7.73-3.157-7.73-7.053c0-3.894,3.46-7.051,7.73-7.051
					C147.364,183,150.827,186.157,150.827,190.051z"/>
				<path fill="#ED9521" d="M158.555,182.783c0,3.897-3.461,7.054-7.728,7.054c-4.271,0-7.729-3.156-7.729-7.054
					c0-3.894,3.458-7.051,7.729-7.051C155.094,175.732,158.555,178.889,158.555,182.783z"/>
				<path fill="#B1D9AA" d="M155.342,185.013c-3.286,2.387-6.521,4.826-9.691,7.316c0.013,0.447,0.063,0.903,0.168,1.354
					c0.888,3.791,4.975,6.08,9.133,5.108c4.157-0.974,6.807-4.834,5.919-8.628C160.248,187.5,158.041,185.582,155.342,185.013z"/>
				<path fill="#44944D" d="M160.87,190.164c-0.622-2.664-2.829-4.582-5.528-5.15c-0.584,0.424-1.158,0.859-1.738,1.287
					c2.333,0.748,4.186,2.531,4.748,4.934c0.684,2.929-0.744,5.893-3.342,7.539C159.129,197.781,161.752,193.938,160.87,190.164z"/>
			</g>
			<g>
				<path fill="none" stroke="#D7CAC4" stroke-width="2.1908" stroke-linecap="round" stroke-miterlimit="10" d="M135.954,172.966
					c-2.465,1.614-2.327,4.518-0.409,5.338"/>
				<path fill="none" stroke="#D7CAC4" stroke-width="2.1908" stroke-linecap="round" stroke-miterlimit="10" d="M125.959,188.164
					c1.254,0.115,3.74,2.571,2.464,3.696"/>
				<path fill="none" stroke="#D7CAC4" stroke-width="2.1908" stroke-linecap="round" stroke-miterlimit="10" d="M132.395,201.581
					c-0.783,1.476,0.154,5.358,2.465,4.52"/>
				<path fill="none" stroke="#D7CAC4" stroke-width="2.1908" stroke-linecap="round" stroke-miterlimit="10" d="M146.496,202.264
					c1.297,0.271,2.338,0.468,3.15,1.644"/>
				<path fill="none" stroke="#D7CAC4" stroke-width="2.1908" stroke-linecap="round" stroke-miterlimit="10" d="M160.189,204.594
					c0.632,1.169,2.579,1.313,3.563,0.548"/>
				<path fill="none" stroke="#D7CAC4" stroke-width="2.1908" stroke-linecap="round" stroke-miterlimit="10" d="M166.352,188.983
					c1.281-1.159,2.994-1.456,4.107,0.138"/>
				<path fill="none" stroke="#D7CAC4" stroke-width="2.1908" stroke-linecap="round" stroke-miterlimit="10" d="M168.678,196.243
					c0.301,1.497,1.035,2.138,2.602,2.325"/>
				<path fill="none" stroke="#D7CAC4" stroke-width="2.1908" stroke-linecap="round" stroke-miterlimit="10" d="M145.129,169.269
					c0.223,2.197,1.855,2.929,3.836,3.284"/>
				<path fill="none" stroke="#D7CAC4" stroke-width="2.1908" stroke-linecap="round" stroke-miterlimit="10" d="M158.684,172.28
					c1.57-0.349,3.867,0.251,3.561,2.327"/>
				<path fill="none" stroke="#D7CAC4" stroke-width="2.1908" stroke-linecap="round" stroke-miterlimit="10" d="M162.381,181.316
					c0.462,1.001,1.311,1.212,2.325,1.369"/>
				<path fill="none" stroke="#D7CAC4" stroke-width="2.1908" stroke-linecap="round" stroke-miterlimit="10" d="M169.227,177.072
					c0.965,0.162,1.829,0.426,2.326,1.369"/>
				<path fill="none" stroke="#D7CAC4" stroke-width="2.1908" stroke-linecap="round" stroke-miterlimit="10" d="M146.911,209.385
					c-0.017,1.026,0.573,1.711,1.642,1.644"/>
				<path fill="none" stroke="#D7CAC4" stroke-width="2.1908" stroke-linecap="round" stroke-miterlimit="10" d="M127.192,177.756
					c1.627-0.314,2.312,1.528,2.328,2.876"/>
			</g>
		</g>
		<g>
			<g>
				<path fill="#39443B" d="M246.968,220.211c-16.619,0-30.093-11.043-30.093-26.16c0,0,0,14.547,0,20.797
					c0,15.115,13.474,27.371,30.093,27.371c16.622,0,30.098-12.256,30.098-27.371c0-4.986,0-20.797,0-20.797
					C277.066,209.168,263.59,220.211,246.968,220.211z"/>
				<path fill="#29302A" d="M239.474,241.361c2.393,0.559,4.91,0.857,7.494,0.857c16.622,0,30.098-12.256,30.098-27.371
					c0-4.986,0-20.797,0-20.797c0,12.957-9.902,22.914-23.195,25.496L239.474,241.361z"/>
				<g>
					<path fill="#F0E7E2" d="M246.968,220.267c-15.958,0-28.941-11.76-28.941-26.217c0-14.455,12.983-26.215,28.941-26.215
						c15.962,0,28.948,11.76,28.948,26.215C275.916,208.508,262.93,220.267,246.968,220.267z"/>
					<path fill="#4B564A" d="M246.968,168.988c15.328,0,27.793,11.244,27.793,25.063c0,13.822-12.465,25.064-27.793,25.064
						c-15.322,0-27.787-11.242-27.787-25.064C219.181,180.232,231.646,168.988,246.968,168.988 M246.968,166.685
						c-16.619,0-30.093,12.25-30.093,27.365c0,15.117,13.474,27.369,30.093,27.369c16.622,0,30.098-12.252,30.098-27.369
						C277.066,178.935,263.59,166.685,246.968,166.685L246.968,166.685z"/>
				</g>
			</g>
			<g>
				
					<ellipse fill="#E8DF68" stroke="#B08848" stroke-width="1.2311" stroke-miterlimit="10" cx="241.285" cy="194.926" rx="7.729" ry="7.055"/>
				<ellipse fill="#ED9521" cx="249.013" cy="187.658" rx="7.73" ry="7.053"/>
				<path fill="#B1D9AA" d="M253.531,189.886c-3.288,2.387-6.522,4.828-9.69,7.316c0.008,0.451,0.061,0.904,0.163,1.355
					c0.891,3.793,4.978,6.08,9.135,5.107c4.158-0.973,6.808-4.834,5.919-8.629C258.437,192.373,256.23,190.457,253.531,189.886z"/>
				<path fill="#44944D" d="M259.058,195.037c-0.621-2.664-2.828-4.58-5.526-5.15c-0.585,0.424-1.16,0.861-1.738,1.287
					c2.332,0.748,4.186,2.531,4.747,4.936c0.684,2.928-0.744,5.891-3.342,7.539C257.319,202.656,259.941,198.812,259.058,195.037z"
					/>
			</g>
			<g>
				<path fill="none" stroke="#D7CAC4" stroke-width="2.1908" stroke-linecap="round" stroke-miterlimit="10" d="M234.145,177.838
					c-2.467,1.619-2.33,4.52-0.414,5.342"/>
				<path fill="none" stroke="#D7CAC4" stroke-width="2.1908" stroke-linecap="round" stroke-miterlimit="10" d="M224.15,193.039
					c1.252,0.115,3.74,2.57,2.464,3.695"/>
				<path fill="none" stroke="#D7CAC4" stroke-width="2.1908" stroke-linecap="round" stroke-miterlimit="10" d="M230.586,206.457
					c-0.785,1.475,0.151,5.357,2.463,4.518"/>
				<path fill="none" stroke="#D7CAC4" stroke-width="2.1908" stroke-linecap="round" stroke-miterlimit="10" d="M244.686,207.14
					c1.296,0.27,2.336,0.465,3.15,1.643"/>
				<path fill="none" stroke="#D7CAC4" stroke-width="2.1908" stroke-linecap="round" stroke-miterlimit="10" d="M258.377,209.469
					c0.632,1.168,2.577,1.313,3.561,0.547"/>
				<path fill="none" stroke="#D7CAC4" stroke-width="2.1908" stroke-linecap="round" stroke-miterlimit="10" d="M264.54,193.859
					c1.281-1.16,2.994-1.455,4.106,0.137"/>
				<path fill="none" stroke="#D7CAC4" stroke-width="2.1908" stroke-linecap="round" stroke-miterlimit="10" d="M266.866,201.117
					c0.302,1.498,1.035,2.139,2.603,2.326"/>
				<path fill="none" stroke="#D7CAC4" stroke-width="2.1908" stroke-linecap="round" stroke-miterlimit="10" d="M243.315,174.142
					c0.226,2.201,1.856,2.93,3.836,3.285"/>
				<path fill="none" stroke="#D7CAC4" stroke-width="2.1908" stroke-linecap="round" stroke-miterlimit="10" d="M256.871,177.154
					c1.571-0.348,3.867,0.252,3.562,2.328"/>
				<path fill="none" stroke="#D7CAC4" stroke-width="2.1908" stroke-linecap="round" stroke-miterlimit="10" d="M260.567,186.193
					c0.464,1,1.311,1.209,2.328,1.369"/>
				<path fill="none" stroke="#D7CAC4" stroke-width="2.1908" stroke-linecap="round" stroke-miterlimit="10" d="M267.416,181.947
					c0.961,0.16,1.825,0.428,2.324,1.369"/>
				<path fill="none" stroke="#D7CAC4" stroke-width="2.1908" stroke-linecap="round" stroke-miterlimit="10" d="M245.097,214.261
					c-0.011,1.023,0.571,1.709,1.642,1.643"/>
				<path fill="none" stroke="#D7CAC4" stroke-width="2.1908" stroke-linecap="round" stroke-miterlimit="10" d="M225.38,182.631
					c1.626-0.316,2.312,1.529,2.326,2.875"/>
			</g>
		</g>
		<g>
			<g>
				<path fill="#39443B" d="M295.81,258.819c-16.619,0-30.094-11.041-30.094-26.158c0,0,0,14.548,0,20.797
					c0,15.116,13.475,27.371,30.094,27.371c16.623,0,30.096-12.255,30.096-27.371c0-4.986,0-20.797,0-20.797
					C325.906,247.778,312.433,258.819,295.81,258.819z"/>
				<path fill="#29302A" d="M288.314,279.969c2.396,0.562,4.907,0.859,7.496,0.859c16.623,0,30.096-12.255,30.096-27.371
					c0-4.986,0-20.797,0-20.797c0,12.958-9.902,22.914-23.195,25.496L288.314,279.969z"/>
				<g>
					<path fill="#F0E7E2" d="M295.81,258.879c-15.96,0-28.943-11.762-28.943-26.218c0-14.455,12.983-26.215,28.943-26.215
						s28.945,11.76,28.945,26.215C324.755,247.117,311.77,258.879,295.81,258.879z"/>
					<path fill="#4B564A" d="M295.81,207.598c15.326,0,27.792,11.242,27.792,25.063c0,13.821-12.466,25.065-27.792,25.065
						c-15.323,0-27.792-11.244-27.792-25.065C268.018,218.841,280.487,207.598,295.81,207.598 M295.81,205.294
						c-16.619,0-30.094,12.253-30.094,27.367c0,15.117,13.475,27.369,30.094,27.369c16.623,0,30.096-12.252,30.096-27.369
						C325.906,217.547,312.433,205.294,295.81,205.294L295.81,205.294z"/>
				</g>
			</g>
			<g>
				<path fill="#E8DF68" stroke="#B08848" stroke-width="1.2311" stroke-miterlimit="10" d="M297.854,233.536
					c0,3.896-3.46,7.053-7.727,7.053c-4.273,0-7.732-3.157-7.732-7.053c0-3.894,3.459-7.051,7.732-7.051
					C294.394,226.485,297.854,229.642,297.854,233.536z"/>
				<path fill="#ED9521" d="M305.584,226.268c0,3.897-3.459,7.054-7.73,7.054c-4.268,0-7.727-3.156-7.727-7.054
					c0-3.894,3.459-7.051,7.727-7.051C302.125,219.218,305.584,222.375,305.584,226.268z"/>
				<path fill="#B1D9AA" d="M302.37,228.499c-3.284,2.387-6.521,4.826-9.692,7.316c0.013,0.447,0.063,0.903,0.168,1.354
					c0.889,3.791,4.978,6.08,9.133,5.108c4.158-0.974,6.808-4.834,5.919-8.628C307.277,230.985,305.07,229.067,302.37,228.499z"/>
				<path fill="#44944D" d="M307.898,233.649c-0.621-2.664-2.828-4.582-5.527-5.15c-0.584,0.424-1.158,0.859-1.738,1.287
					c2.333,0.748,4.186,2.531,4.748,4.934c0.683,2.929-0.743,5.893-3.342,7.539C306.159,241.266,308.78,237.424,307.898,233.649z"/>
			</g>
			<g>
				<path fill="none" stroke="#D7CAC4" stroke-width="2.1908" stroke-linecap="round" stroke-miterlimit="10" d="M282.983,216.451
					c-2.465,1.614-2.328,4.518-0.41,5.338"/>
				<path fill="none" stroke="#D7CAC4" stroke-width="2.1908" stroke-linecap="round" stroke-miterlimit="10" d="M272.987,231.649
					c1.257,0.115,3.74,2.571,2.465,3.696"/>
				<path fill="none" stroke="#D7CAC4" stroke-width="2.1908" stroke-linecap="round" stroke-miterlimit="10" d="M279.423,245.066
					c-0.781,1.476,0.153,5.358,2.465,4.52"/>
				<path fill="none" stroke="#D7CAC4" stroke-width="2.1908" stroke-linecap="round" stroke-miterlimit="10" d="M293.527,245.75
					c1.295,0.271,2.336,0.468,3.15,1.644"/>
				<path fill="none" stroke="#D7CAC4" stroke-width="2.1908" stroke-linecap="round" stroke-miterlimit="10" d="M307.217,248.079
					c0.632,1.169,2.579,1.313,3.563,0.548"/>
				<path fill="none" stroke="#D7CAC4" stroke-width="2.1908" stroke-linecap="round" stroke-miterlimit="10" d="M313.38,232.469
					c1.28-1.159,2.995-1.456,4.106,0.138"/>
				<path fill="none" stroke="#D7CAC4" stroke-width="2.1908" stroke-linecap="round" stroke-miterlimit="10" d="M315.706,239.728
					c0.303,1.497,1.037,2.138,2.604,2.325"/>
				<path fill="none" stroke="#D7CAC4" stroke-width="2.1908" stroke-linecap="round" stroke-miterlimit="10" d="M292.156,212.755
					c0.224,2.197,1.856,2.929,3.837,3.284"/>
				<path fill="none" stroke="#D7CAC4" stroke-width="2.1908" stroke-linecap="round" stroke-miterlimit="10" d="M305.712,215.765
					c1.57-0.349,3.867,0.251,3.561,2.327"/>
				<path fill="none" stroke="#D7CAC4" stroke-width="2.1908" stroke-linecap="round" stroke-miterlimit="10" d="M309.409,224.802
					c0.462,1.001,1.311,1.212,2.325,1.369"/>
				<path fill="none" stroke="#D7CAC4" stroke-width="2.1908" stroke-linecap="round" stroke-miterlimit="10" d="M316.255,220.557
					c0.965,0.162,1.831,0.426,2.325,1.369"/>
				<path fill="none" stroke="#D7CAC4" stroke-width="2.1908" stroke-linecap="round" stroke-miterlimit="10" d="M293.938,252.871
					c-0.013,1.026,0.575,1.711,1.643,1.644"/>
				<path fill="none" stroke="#D7CAC4" stroke-width="2.1908" stroke-linecap="round" stroke-miterlimit="10" d="M274.22,221.241
					c1.626-0.314,2.312,1.528,2.328,2.876"/>
			</g>
		</g>
		<g>
			<g>
				<path fill="#39443B" d="M196.756,256.098c-16.619,0-30.094-11.043-30.094-26.159c0,0,0,14.547,0,20.796
					c0,15.115,13.475,27.371,30.094,27.371c16.623,0,30.098-12.256,30.098-27.371c0-4.986,0-20.796,0-20.796
					C226.854,245.055,213.379,256.098,196.756,256.098z"/>
				<path fill="#29302A" d="M189.262,277.249c2.393,0.56,4.91,0.857,7.494,0.857c16.623,0,30.098-12.256,30.098-27.371
					c0-4.986,0-20.796,0-20.796c0,12.957-9.902,22.913-23.195,25.495L189.262,277.249z"/>
				<g>
					<path fill="#F0E7E2" d="M196.756,256.156c-15.957,0-28.941-11.761-28.941-26.217s12.984-26.216,28.941-26.216
						c15.963,0,28.947,11.76,28.947,26.216S212.719,256.156,196.756,256.156z"/>
					<path fill="#4B564A" d="M196.756,204.876c15.328,0,27.793,11.244,27.793,25.063c0,13.821-12.465,25.063-27.793,25.063
						c-15.322,0-27.787-11.242-27.787-25.063C168.969,216.12,181.434,204.876,196.756,204.876 M196.756,202.573
						c-16.619,0-30.094,12.251-30.094,27.366c0,15.116,13.475,27.369,30.094,27.369c16.623,0,30.098-12.253,30.098-27.369
						C226.854,214.824,213.379,202.573,196.756,202.573L196.756,202.573z"/>
				</g>
			</g>
			<g>
				
					<ellipse fill="#E8DF68" stroke="#B08848" stroke-width="1.2311" stroke-miterlimit="10" cx="191.073" cy="230.814" rx="7.729" ry="7.054"/>
				<ellipse fill="#ED9521" cx="198.802" cy="223.546" rx="7.729" ry="7.054"/>
				<path fill="#B1D9AA" d="M203.321,225.775c-3.289,2.387-6.523,4.827-9.691,7.316c0.008,0.45,0.061,0.903,0.164,1.354
					c0.891,3.793,4.977,6.08,9.135,5.108c4.158-0.973,6.807-4.835,5.918-8.629C208.225,228.261,206.018,226.344,203.321,225.775z"/>
				<path fill="#44944D" d="M208.846,230.926c-0.621-2.664-2.828-4.581-5.525-5.15c-0.586,0.424-1.16,0.86-1.74,1.287
					c2.332,0.748,4.188,2.531,4.748,4.935c0.684,2.928-0.744,5.891-3.342,7.539C207.108,238.544,209.729,234.701,208.846,230.926z"
					/>
			</g>
			<g>
				<path fill="none" stroke="#D7CAC4" stroke-width="2.1908" stroke-linecap="round" stroke-miterlimit="10" d="M183.932,213.726
					c-2.465,1.618-2.328,4.52-0.412,5.342"/>
				<path fill="none" stroke="#D7CAC4" stroke-width="2.1908" stroke-linecap="round" stroke-miterlimit="10" d="M173.938,228.927
					c1.252,0.116,3.74,2.571,2.463,3.696"/>
				<path fill="none" stroke="#D7CAC4" stroke-width="2.1908" stroke-linecap="round" stroke-miterlimit="10" d="M180.373,242.345
					c-0.783,1.475,0.152,5.356,2.465,4.518"/>
				<path fill="none" stroke="#D7CAC4" stroke-width="2.1908" stroke-linecap="round" stroke-miterlimit="10" d="M194.475,243.029
					c1.295,0.269,2.336,0.465,3.148,1.642"/>
				<path fill="none" stroke="#D7CAC4" stroke-width="2.1908" stroke-linecap="round" stroke-miterlimit="10" d="M208.166,245.356
					c0.631,1.168,2.576,1.313,3.561,0.548"/>
				<path fill="none" stroke="#D7CAC4" stroke-width="2.1908" stroke-linecap="round" stroke-miterlimit="10" d="M214.328,229.748
					c1.281-1.16,2.994-1.456,4.107,0.136"/>
				<path fill="none" stroke="#D7CAC4" stroke-width="2.1908" stroke-linecap="round" stroke-miterlimit="10" d="M216.655,237.005
					c0.301,1.498,1.035,2.139,2.604,2.327"/>
				<path fill="none" stroke="#D7CAC4" stroke-width="2.1908" stroke-linecap="round" stroke-miterlimit="10" d="M193.104,210.031
					c0.225,2.2,1.855,2.93,3.836,3.285"/>
				<path fill="none" stroke="#D7CAC4" stroke-width="2.1908" stroke-linecap="round" stroke-miterlimit="10" d="M206.66,213.042
					c1.57-0.347,3.867,0.252,3.561,2.328"/>
				<path fill="none" stroke="#D7CAC4" stroke-width="2.1908" stroke-linecap="round" stroke-miterlimit="10" d="M210.356,222.081
					c0.463,1.001,1.311,1.21,2.328,1.369"/>
				<path fill="none" stroke="#D7CAC4" stroke-width="2.1908" stroke-linecap="round" stroke-miterlimit="10" d="M217.203,217.836
					c0.961,0.159,1.826,0.427,2.326,1.368"/>
				<path fill="none" stroke="#D7CAC4" stroke-width="2.1908" stroke-linecap="round" stroke-miterlimit="10" d="M194.885,250.149
					c-0.012,1.024,0.572,1.71,1.643,1.643"/>
				<path fill="none" stroke="#D7CAC4" stroke-width="2.1908" stroke-linecap="round" stroke-miterlimit="10" d="M175.168,218.519
					c1.625-0.316,2.311,1.528,2.326,2.875"/>
			</g>
		</g>
		<g>
			<g>
				<path fill="#39443B" d="M246.615,295.144c-16.619,0-30.094-11.041-30.094-26.158c0,0,0,14.548,0,20.797
					c0,15.116,13.475,27.371,30.094,27.371c16.623,0,30.097-12.255,30.097-27.371c0-4.986,0-20.797,0-20.797
					C276.712,284.103,263.239,295.144,246.615,295.144z"/>
				<path fill="#29302A" d="M239.119,316.295c2.397,0.562,4.908,0.859,7.496,0.859c16.623,0,30.097-12.255,30.097-27.371
					c0-4.986,0-20.797,0-20.797c0,12.958-9.902,22.914-23.195,25.496L239.119,316.295z"/>
				<g>
					<path fill="#F0E7E2" d="M246.615,295.204c-15.958,0-28.942-11.762-28.942-26.218c0-14.455,12.984-26.215,28.942-26.215
						c15.961,0,28.946,11.76,28.946,26.215C275.562,283.442,262.576,295.204,246.615,295.204z"/>
					<path fill="#4B564A" d="M246.615,243.924c15.327,0,27.794,11.242,27.794,25.063c0,13.821-12.467,25.065-27.794,25.065
						c-15.322,0-27.79-11.244-27.79-25.065C218.825,255.166,231.293,243.924,246.615,243.924 M246.615,241.619
						c-16.619,0-30.094,12.253-30.094,27.367c0,15.117,13.475,27.369,30.094,27.369c16.623,0,30.097-12.252,30.097-27.369
						C276.712,253.872,263.239,241.619,246.615,241.619L246.615,241.619z"/>
				</g>
			</g>
			<g>
				<path fill="#E8DF68" stroke="#B08848" stroke-width="1.2311" stroke-miterlimit="10" d="M248.66,269.861
					c0,3.896-3.461,7.053-7.728,7.053c-4.272,0-7.73-3.157-7.73-7.053c0-3.894,3.458-7.051,7.73-7.051
					C245.199,262.81,248.66,265.968,248.66,269.861z"/>
				<ellipse fill="#ED9521" cx="248.661" cy="262.594" rx="7.729" ry="7.054"/>
				<path fill="#B1D9AA" d="M253.177,264.824c-3.286,2.387-6.522,4.826-9.691,7.316c0.011,0.447,0.063,0.903,0.168,1.354
					c0.89,3.791,4.976,6.08,9.133,5.108c4.157-0.974,6.807-4.834,5.917-8.628C258.084,267.31,255.877,265.392,253.177,264.824z"/>
				<path fill="#44944D" d="M258.703,269.974c-0.619-2.664-2.826-4.582-5.526-5.15c-0.584,0.424-1.159,0.859-1.739,1.287
					c2.335,0.748,4.188,2.531,4.748,4.934c0.685,2.929-0.742,5.893-3.341,7.539C256.965,277.592,259.587,273.749,258.703,269.974z"
					/>
			</g>
			<g>
				<path fill="none" stroke="#D7CAC4" stroke-width="2.1908" stroke-linecap="round" stroke-miterlimit="10" d="M233.79,252.776
					c-2.466,1.614-2.329,4.518-0.41,5.338"/>
				<path fill="none" stroke="#D7CAC4" stroke-width="2.1908" stroke-linecap="round" stroke-miterlimit="10" d="M223.793,267.974
					c1.256,0.115,3.741,2.571,2.466,3.696"/>
				<path fill="none" stroke="#D7CAC4" stroke-width="2.1908" stroke-linecap="round" stroke-miterlimit="10" d="M230.23,281.391
					c-0.782,1.476,0.154,5.358,2.465,4.52"/>
				<path fill="none" stroke="#D7CAC4" stroke-width="2.1908" stroke-linecap="round" stroke-miterlimit="10" d="M244.334,282.075
					c1.294,0.271,2.334,0.468,3.148,1.644"/>
				<path fill="none" stroke="#D7CAC4" stroke-width="2.1908" stroke-linecap="round" stroke-miterlimit="10" d="M258.024,284.404
					c0.631,1.169,2.578,1.313,3.563,0.548"/>
				<path fill="none" stroke="#D7CAC4" stroke-width="2.1908" stroke-linecap="round" stroke-miterlimit="10" d="M264.186,268.794
					c1.282-1.159,2.995-1.456,4.107,0.138"/>
				<path fill="none" stroke="#D7CAC4" stroke-width="2.1908" stroke-linecap="round" stroke-miterlimit="10" d="M266.513,276.053
					c0.302,1.497,1.036,2.138,2.603,2.325"/>
				<path fill="none" stroke="#D7CAC4" stroke-width="2.1908" stroke-linecap="round" stroke-miterlimit="10" d="M242.964,249.08
					c0.222,2.197,1.854,2.929,3.836,3.284"/>
				<path fill="none" stroke="#D7CAC4" stroke-width="2.1908" stroke-linecap="round" stroke-miterlimit="10" d="M256.518,252.091
					c1.57-0.349,3.867,0.251,3.562,2.327"/>
				<path fill="none" stroke="#D7CAC4" stroke-width="2.1908" stroke-linecap="round" stroke-miterlimit="10" d="M260.216,261.127
					c0.462,1.001,1.311,1.212,2.327,1.369"/>
				<path fill="none" stroke="#D7CAC4" stroke-width="2.1908" stroke-linecap="round" stroke-miterlimit="10" d="M267.062,256.883
					c0.965,0.162,1.829,0.426,2.326,1.369"/>
				<path fill="none" stroke="#D7CAC4" stroke-width="2.1908" stroke-linecap="round" stroke-miterlimit="10" d="M244.744,289.196
					c-0.014,1.026,0.574,1.711,1.644,1.644"/>
				<path fill="none" stroke="#D7CAC4" stroke-width="2.1908" stroke-linecap="round" stroke-miterlimit="10" d="M225.027,257.566
					c1.627-0.314,2.313,1.528,2.327,2.876"/>
			</g>
		</g>
	</g>
</g>
</svg>
