<?xml version="1.0" encoding="utf-8"?>
<!-- Generator: Adobe Illustrator 16.0.0, SVG Export Plug-In . SVG Version: 6.00 Build 0)  -->
<!DOCTYPE svg PUBLIC "-//W3C//DTD SVG 1.1//EN" "http://www.w3.org/Graphics/SVG/1.1/DTD/svg11.dtd">
<svg version="1.1" id="Ebene_1" xmlns="http://www.w3.org/2000/svg" xmlns:xlink="http://www.w3.org/1999/xlink" x="0px" y="0px"
	 width="450px" height="450px" viewBox="0 0 450 450" enable-background="new 0 0 450 450" xml:space="preserve">
<g>
	<g opacity="0.3">
		<path fill="#1D1D1B" d="M286.14,212.441c-26.796,0-48.503-17.797-48.503-42.163c0,0,0,23.448,0,33.523
			c0,24.36,21.707,44.106,48.503,44.106c26.797,0,48.504-19.746,48.504-44.106c0-8.043,0-33.523,0-33.523
			C334.644,194.644,312.937,212.441,286.14,212.441z"/>
		<path fill="#1D1D1B" d="M274.061,246.528c3.853,0.913,7.903,1.379,12.079,1.379c26.797,0,48.504-19.746,48.504-44.106
			c0-8.043,0-33.523,0-33.523c0,20.884-15.955,36.93-37.382,41.091L274.061,246.528z"/>
		<path fill="#1D1D1B" d="M286.14,212.536c-25.721,0-46.646-18.957-46.646-42.258c0-23.299,20.926-42.254,46.646-42.254
			c25.722,0,46.647,18.955,46.647,42.254C332.787,193.579,311.862,212.536,286.14,212.536z"/>
		<path fill="#1D1D1B" d="M286.14,129.881c24.697,0,44.79,18.122,44.79,40.397c0,22.277-20.093,40.402-44.79,40.402
			s-44.789-18.125-44.789-40.402C241.351,148.003,261.443,129.881,286.14,129.881 M286.14,126.167
			c-26.796,0-48.503,19.75-48.503,44.111c0,24.366,21.707,44.115,48.503,44.115c26.797,0,48.504-19.75,48.504-44.115
			C334.644,145.918,312.937,126.167,286.14,126.167L286.14,126.167z"/>
		<path fill="#1D1D1B" stroke="#1D1D1B" stroke-width="1.9844" stroke-miterlimit="10" d="M289.441,171.688
			c0,6.281-5.592,11.372-12.467,11.372c-6.879,0-12.451-5.091-12.451-11.372c0-6.277,5.572-11.369,12.451-11.369
			C283.849,160.32,289.441,165.411,289.441,171.688z"/>
		<path fill="#1D1D1B" d="M301.894,159.977c0,6.28-5.572,11.363-12.453,11.363c-6.896,0-12.467-5.083-12.467-11.363
			c0-6.277,5.571-11.369,12.467-11.369C296.322,148.608,301.894,153.699,301.894,159.977z"/>
		<path fill="#1D1D1B" d="M296.709,163.568c-5.292,3.85-10.505,7.78-15.618,11.795c0.01,0.725,0.107,1.453,0.274,2.179
			c1.436,6.114,8.02,9.801,14.724,8.233c6.688-1.562,10.971-7.791,9.541-13.907C304.628,167.575,301.067,164.487,296.709,163.568z"
			/>
		<path fill="#1D1D1B" d="M305.63,171.868c-1.002-4.293-4.563-7.381-8.921-8.301c-0.942,0.684-1.857,1.389-2.793,2.077
			c3.758,1.202,6.745,4.081,7.649,7.952c1.108,4.715-1.195,9.498-5.386,12.148C302.824,184.149,307.04,177.952,305.63,171.868z"/>
		<path fill="none" stroke="#1D1D1B" stroke-width="3.5312" stroke-linecap="round" stroke-miterlimit="10" d="M265.468,144.149
			c-3.974,2.604-3.754,7.28-0.66,8.606"/>
		<path fill="none" stroke="#1D1D1B" stroke-width="3.5312" stroke-linecap="round" stroke-miterlimit="10" d="M249.355,168.647
			c2.021,0.186,6.022,4.148,3.975,5.959"/>
		<path fill="none" stroke="#1D1D1B" stroke-width="3.5312" stroke-linecap="round" stroke-miterlimit="10" d="M259.729,190.273
			c-1.263,2.376,0.247,8.634,3.96,7.283"/>
		<path fill="none" stroke="#1D1D1B" stroke-width="3.5312" stroke-linecap="round" stroke-miterlimit="10" d="M282.458,191.377
			c2.089,0.433,3.762,0.753,5.07,2.645"/>
		<path fill="none" stroke="#1D1D1B" stroke-width="3.5312" stroke-linecap="round" stroke-miterlimit="10" d="M304.531,195.13
			c1.012,1.882,4.153,2.114,5.737,0.878"/>
		<path fill="none" stroke="#1D1D1B" stroke-width="3.5312" stroke-linecap="round" stroke-miterlimit="10" d="M314.462,169.968
			c2.067-1.864,4.83-2.346,6.623,0.221"/>
		<path fill="none" stroke="#1D1D1B" stroke-width="3.5312" stroke-linecap="round" stroke-miterlimit="10" d="M318.215,181.665
			c0.482,2.416,1.666,3.454,4.193,3.753"/>
		<path fill="none" stroke="#1D1D1B" stroke-width="3.5312" stroke-linecap="round" stroke-miterlimit="10" d="M280.254,138.19
			c0.347,3.547,2.989,4.72,6.178,5.292"/>
		<path fill="none" stroke="#1D1D1B" stroke-width="3.5312" stroke-linecap="round" stroke-miterlimit="10" d="M302.105,143.044
			c2.529-0.558,6.226,0.402,5.729,3.755"/>
		<path fill="none" stroke="#1D1D1B" stroke-width="3.5312" stroke-linecap="round" stroke-miterlimit="10" d="M308.053,157.611
			c0.757,1.615,2.119,1.95,3.751,2.205"/>
		<path fill="none" stroke="#1D1D1B" stroke-width="3.5312" stroke-linecap="round" stroke-miterlimit="10" d="M319.094,150.77
			c1.556,0.26,2.949,0.689,3.753,2.207"/>
		<path fill="none" stroke="#1D1D1B" stroke-width="3.5312" stroke-linecap="round" stroke-miterlimit="10" d="M283.116,202.856
			c-0.015,1.649,0.931,2.755,2.654,2.646"/>
		<path fill="none" stroke="#1D1D1B" stroke-width="3.5312" stroke-linecap="round" stroke-miterlimit="10" d="M251.331,151.875
			c2.638-0.514,3.735,2.463,3.754,4.632"/>
		<path fill="#1D1D1B" d="M174.133,235.909c-26.792,0-48.509-17.792-48.509-42.154c0,0,0,23.448,0,33.512
			c0,24.371,21.717,44.117,48.509,44.117c26.796,0,48.515-19.746,48.515-44.117c0-8.033,0-33.512,0-33.512
			C222.648,218.116,200.929,235.909,174.133,235.909z"/>
		<path fill="#1D1D1B" d="M162.051,270.004c3.858,0.911,7.918,1.38,12.082,1.38c26.796,0,48.515-19.746,48.515-44.117
			c0-8.033,0-33.512,0-33.512c0,20.884-15.964,36.93-37.391,41.097L162.051,270.004z"/>
		<path fill="#1D1D1B" d="M174.133,236.003c-25.724,0-46.652-18.953-46.652-42.248c0-23.301,20.928-42.257,46.652-42.257
			c25.727,0,46.658,18.956,46.658,42.257C220.791,217.05,199.86,236.003,174.133,236.003z"/>
		<path fill="#1D1D1B" d="M174.133,153.354c24.704,0,44.801,18.124,44.801,40.4c0,22.271-20.098,40.391-44.801,40.391
			c-24.7,0-44.795-18.119-44.795-40.391C129.338,171.478,149.433,153.354,174.133,153.354 M174.133,149.641
			c-26.792,0-48.509,19.746-48.509,44.114c0,24.362,21.717,44.104,48.509,44.104c26.796,0,48.515-19.743,48.515-44.104
			C222.648,169.387,200.929,149.641,174.133,149.641L174.133,149.641z"/>
		<path fill="#1D1D1B" stroke="#1D1D1B" stroke-width="1.9844" stroke-miterlimit="10" d="M177.431,195.165
			c0,6.277-5.578,11.363-12.461,11.363c-6.88,0-12.458-5.086-12.458-11.363c0-6.281,5.578-11.372,12.458-11.372
			C171.853,183.793,177.431,188.884,177.431,195.165z"/>
		<path fill="#1D1D1B" d="M189.888,183.444c0,6.282-5.574,11.369-12.457,11.369c-6.881,0-12.461-5.087-12.461-11.369
			c0-6.271,5.58-11.362,12.461-11.362C184.314,172.081,189.888,177.172,189.888,183.444z"/>
		<path fill="#1D1D1B" d="M184.714,187.04c-5.303,3.846-10.515,7.776-15.626,11.79c0.018,0.727,0.1,1.462,0.27,2.189
			c1.431,6.11,8.022,9.797,14.718,8.233c6.707-1.573,10.976-7.794,9.539-13.907C192.62,191.049,189.058,187.956,184.714,187.04z"/>
		<path fill="#1D1D1B" d="M193.615,195.345c-0.995-4.296-4.557-7.389-8.901-8.305c-0.943,0.684-1.872,1.383-2.809,2.073
			c3.759,1.209,6.75,4.079,7.655,7.953c1.101,4.719-1.198,9.494-5.387,12.155C190.819,207.625,195.045,201.425,193.615,195.345z"/>
		<path fill="none" stroke="#1D1D1B" stroke-width="3.5312" stroke-linecap="round" stroke-miterlimit="10" d="M153.462,167.618
			c-3.974,2.607-3.753,7.283-0.666,8.613"/>
		<path fill="none" stroke="#1D1D1B" stroke-width="3.5312" stroke-linecap="round" stroke-miterlimit="10" d="M137.352,192.117
			c2.019,0.192,6.029,4.144,3.971,5.958"/>
		<path fill="none" stroke="#1D1D1B" stroke-width="3.5312" stroke-linecap="round" stroke-miterlimit="10" d="M147.725,213.746
			c-1.262,2.38,0.246,8.634,3.97,7.287"/>
		<path fill="none" stroke="#1D1D1B" stroke-width="3.5312" stroke-linecap="round" stroke-miterlimit="10" d="M170.453,214.853
			c2.087,0.433,3.764,0.742,5.081,2.645"/>
		<path fill="none" stroke="#1D1D1B" stroke-width="3.5312" stroke-linecap="round" stroke-miterlimit="10" d="M192.523,218.596
			c1.015,1.892,4.154,2.12,5.741,0.888"/>
		<path fill="none" stroke="#1D1D1B" stroke-width="3.5312" stroke-linecap="round" stroke-miterlimit="10" d="M202.456,193.441
			c2.063-1.869,4.825-2.347,6.619,0.218"/>
		<path fill="none" stroke="#1D1D1B" stroke-width="3.5312" stroke-linecap="round" stroke-miterlimit="10" d="M206.208,205.14
			c0.48,2.416,1.667,3.443,4.195,3.753"/>
		<path fill="none" stroke="#1D1D1B" stroke-width="3.5312" stroke-linecap="round" stroke-miterlimit="10" d="M168.245,161.661
			c0.361,3.551,2.993,4.723,6.181,5.295"/>
		<path fill="none" stroke="#1D1D1B" stroke-width="3.5312" stroke-linecap="round" stroke-miterlimit="10" d="M190.098,166.516
			c2.531-0.561,6.227,0.403,5.736,3.754"/>
		<path fill="none" stroke="#1D1D1B" stroke-width="3.5312" stroke-linecap="round" stroke-miterlimit="10" d="M196.055,181.083
			c0.741,1.617,2.108,1.951,3.748,2.206"/>
		<path fill="none" stroke="#1D1D1B" stroke-width="3.5312" stroke-linecap="round" stroke-miterlimit="10" d="M207.088,174.244
			c1.551,0.257,2.95,0.688,3.752,2.206"/>
		<path fill="none" stroke="#1D1D1B" stroke-width="3.5312" stroke-linecap="round" stroke-miterlimit="10" d="M171.115,226.323
			c-0.018,1.655,0.924,2.765,2.652,2.655"/>
		<path fill="none" stroke="#1D1D1B" stroke-width="3.5312" stroke-linecap="round" stroke-miterlimit="10" d="M139.336,175.342
			c2.618-0.509,3.727,2.465,3.747,4.634"/>
		<path fill="#1D1D1B" d="M249.872,300.46c-26.784,0-48.501-17.805-48.501-42.167c0,0,0,23.453,0,33.524
			c0,24.36,21.717,44.114,48.501,44.114c26.797,0,48.518-19.754,48.518-44.114c0-8.033,0-33.524,0-33.524
			C298.39,282.655,276.669,300.46,249.872,300.46z"/>
		<path fill="#1D1D1B" d="M237.793,334.542c3.853,0.912,7.902,1.39,12.079,1.39c26.797,0,48.518-19.754,48.518-44.114
			c0-8.033,0-33.524,0-33.524c0,20.886-15.961,36.932-37.395,41.103L237.793,334.542z"/>
		<path fill="#1D1D1B" d="M249.872,300.554c-25.72,0-46.644-18.959-46.644-42.262c0-23.301,20.924-42.257,46.644-42.257
			c25.729,0,46.661,18.956,46.661,42.257C296.533,281.595,275.601,300.554,249.872,300.554z"/>
		<path fill="#1D1D1B" d="M249.872,217.892c24.705,0,44.804,18.124,44.804,40.4c0,22.279-20.099,40.404-44.804,40.404
			c-24.696,0-44.788-18.125-44.788-40.404C205.085,236.016,225.177,217.892,249.872,217.892 M249.872,214.179
			c-26.784,0-48.501,19.755-48.501,44.114c0,24.362,21.717,44.118,48.501,44.118c26.797,0,48.518-19.756,48.518-44.118
			C298.39,233.934,276.669,214.179,249.872,214.179L249.872,214.179z"/>
		<path fill="#1D1D1B" stroke="#1D1D1B" stroke-width="1.9844" stroke-miterlimit="10" d="M253.176,259.71
			c0,6.263-5.573,11.365-12.47,11.365c-6.879,0-12.452-5.103-12.452-11.365c0-6.275,5.573-11.377,12.452-11.377
			C247.603,248.333,253.176,253.434,253.176,259.71z"/>
		<path fill="#1D1D1B" d="M265.625,247.98c0,6.283-5.571,11.383-12.449,11.383c-6.876,0-12.47-5.1-12.47-11.383
			c0-6.258,5.594-11.359,12.47-11.359C260.054,236.621,265.625,241.722,265.625,247.98z"/>
		<path fill="#1D1D1B" d="M260.458,251.581c-5.309,3.842-10.521,7.786-15.637,11.788c0.033,0.723,0.114,1.467,0.276,2.2
			c1.437,6.098,8.022,9.787,14.727,8.219c6.704-1.56,10.975-7.779,9.54-13.903C268.359,255.599,264.806,252.504,260.458,251.581z"/>
		<path fill="#1D1D1B" d="M269.365,259.885c-1.006-4.285-4.559-7.381-8.906-8.304c-0.959,0.694-1.867,1.381-2.804,2.08
			c3.759,1.211,6.738,4.07,7.654,7.952c1.098,4.712-1.206,9.487-5.396,12.148C266.558,272.165,270.781,265.965,269.365,259.885z"/>
		<path fill="none" stroke="#1D1D1B" stroke-width="3.5312" stroke-linecap="round" stroke-miterlimit="10" d="M229.201,232.166
			c-3.975,2.596-3.755,7.275-0.659,8.614"/>
		<path fill="none" stroke="#1D1D1B" stroke-width="3.5312" stroke-linecap="round" stroke-miterlimit="10" d="M213.089,256.653
			c2.021,0.194,6.03,4.159,3.972,5.97"/>
		<path fill="none" stroke="#1D1D1B" stroke-width="3.5312" stroke-linecap="round" stroke-miterlimit="10" d="M223.461,278.295
			c-1.262,2.377,0.249,8.625,3.972,7.282"/>
		<path fill="none" stroke="#1D1D1B" stroke-width="3.5312" stroke-linecap="round" stroke-miterlimit="10" d="M246.19,279.391
			c2.09,0.435,3.764,0.744,5.07,2.656"/>
		<path fill="none" stroke="#1D1D1B" stroke-width="3.5312" stroke-linecap="round" stroke-miterlimit="10" d="M268.273,283.146
			c1.014,1.882,4.145,2.11,5.73,0.878"/>
		<path fill="none" stroke="#1D1D1B" stroke-width="3.5312" stroke-linecap="round" stroke-miterlimit="10" d="M278.194,257.989
			c2.073-1.872,4.832-2.357,6.631,0.221"/>
		<path fill="none" stroke="#1D1D1B" stroke-width="3.5312" stroke-linecap="round" stroke-miterlimit="10" d="M281.947,269.691
			c0.492,2.405,1.667,3.433,4.194,3.744"/>
		<path fill="none" stroke="#1D1D1B" stroke-width="3.5312" stroke-linecap="round" stroke-miterlimit="10" d="M243.995,226.206
			c0.359,3.543,2.98,4.726,6.169,5.3"/>
		<path fill="none" stroke="#1D1D1B" stroke-width="3.5312" stroke-linecap="round" stroke-miterlimit="10" d="M265.836,231.056
			c2.531-0.557,6.228,0.413,5.729,3.754"/>
		<path fill="none" stroke="#1D1D1B" stroke-width="3.5312" stroke-linecap="round" stroke-miterlimit="10" d="M271.799,245.632
			c0.746,1.606,2.114,1.953,3.738,2.195"/>
		<path fill="none" stroke="#1D1D1B" stroke-width="3.5312" stroke-linecap="round" stroke-miterlimit="10" d="M282.826,238.784
			c1.563,0.268,2.951,0.697,3.752,2.217"/>
		<path fill="none" stroke="#1D1D1B" stroke-width="3.5312" stroke-linecap="round" stroke-miterlimit="10" d="M246.849,290.872
			c-0.014,1.658,0.931,2.754,2.655,2.637"/>
		<path fill="none" stroke="#1D1D1B" stroke-width="3.5312" stroke-linecap="round" stroke-miterlimit="10" d="M215.074,239.881
			c2.626-0.508,3.726,2.46,3.755,4.632"/>
	</g>
	<g>
		<g>
			<g>
				<g>
					<path fill="#39443B" d="M278.946,203.807c-26.796,0-48.503-17.797-48.503-42.163c0,0,0,23.448,0,33.523
						c0,24.36,21.707,44.106,48.503,44.106c26.797,0,48.504-19.746,48.504-44.106c0-8.043,0-33.523,0-33.523
						C327.449,186.01,305.742,203.807,278.946,203.807z"/>
					<path fill="#29302A" d="M266.866,237.894c3.853,0.913,7.903,1.379,12.079,1.379c26.797,0,48.504-19.746,48.504-44.106
						c0-8.043,0-33.523,0-33.523c0,20.884-15.955,36.93-37.382,41.091L266.866,237.894z"/>
					<g>
						<path fill="#F1E8E3" d="M278.946,203.903c-25.721,0-46.646-18.957-46.646-42.258c0-23.299,20.926-42.254,46.646-42.254
							c25.722,0,46.647,18.955,46.647,42.254C325.593,184.946,304.667,203.903,278.946,203.903z"/>
						<path fill="#4B564A" d="M278.946,121.247c24.697,0,44.79,18.122,44.79,40.397c0,22.277-20.093,40.402-44.79,40.402
							s-44.789-18.125-44.789-40.402C234.156,139.369,254.248,121.247,278.946,121.247 M278.946,117.533
							c-26.796,0-48.503,19.75-48.503,44.111c0,24.366,21.707,44.115,48.503,44.115c26.797,0,48.504-19.75,48.504-44.115
							C327.449,137.284,305.742,117.533,278.946,117.533L278.946,117.533z"/>
					</g>
				</g>
				<g>
					<path fill="#E9E068" stroke="#B18948" stroke-width="1.9844" stroke-miterlimit="10" d="M282.246,163.054
						c0,6.281-5.592,11.372-12.467,11.372c-6.879,0-12.451-5.091-12.451-11.372c0-6.277,5.572-11.369,12.451-11.369
						C276.655,151.686,282.246,156.777,282.246,163.054z"/>
					<path fill="#EE9621" d="M294.699,151.343c0,6.28-5.572,11.363-12.453,11.363c-6.896,0-12.467-5.083-12.467-11.363
						c0-6.277,5.571-11.369,12.467-11.369C289.127,139.974,294.699,145.066,294.699,151.343z"/>
					<path fill="#B2DAAB" d="M289.515,154.934c-5.292,3.85-10.505,7.78-15.618,11.795c0.01,0.725,0.107,1.453,0.274,2.179
						c1.436,6.114,8.02,9.801,14.724,8.233c6.688-1.562,10.971-7.791,9.541-13.907C297.434,158.942,293.872,155.853,289.515,154.934
						z"/>
					<path fill="#44954D" d="M298.436,163.235c-1.002-4.293-4.563-7.381-8.921-8.301c-0.942,0.684-1.857,1.389-2.793,2.077
						c3.758,1.202,6.745,4.081,7.649,7.952c1.108,4.715-1.195,9.498-5.386,12.148C295.63,175.515,299.846,169.319,298.436,163.235z"
						/>
				</g>
				<g>
					<path fill="none" stroke="#D8CBC5" stroke-width="3.5312" stroke-linecap="round" stroke-miterlimit="10" d="M258.274,135.515
						c-3.974,2.604-3.754,7.28-0.66,8.606"/>
					<path fill="none" stroke="#D8CBC5" stroke-width="3.5312" stroke-linecap="round" stroke-miterlimit="10" d="M242.16,160.013
						c2.021,0.186,6.022,4.148,3.975,5.959"/>
					<path fill="none" stroke="#D8CBC5" stroke-width="3.5312" stroke-linecap="round" stroke-miterlimit="10" d="M252.534,181.639
						c-1.263,2.376,0.247,8.634,3.96,7.283"/>
					<path fill="none" stroke="#D8CBC5" stroke-width="3.5312" stroke-linecap="round" stroke-miterlimit="10" d="M275.264,182.743
						c2.089,0.433,3.762,0.753,5.07,2.645"/>
					<path fill="none" stroke="#D8CBC5" stroke-width="3.5312" stroke-linecap="round" stroke-miterlimit="10" d="M297.337,186.496
						c1.012,1.882,4.153,2.114,5.737,0.878"/>
					<path fill="none" stroke="#D8CBC5" stroke-width="3.5312" stroke-linecap="round" stroke-miterlimit="10" d="M307.268,161.334
						c2.067-1.864,4.83-2.346,6.623,0.221"/>
					<path fill="none" stroke="#D8CBC5" stroke-width="3.5312" stroke-linecap="round" stroke-miterlimit="10" d="M311.021,173.031
						c0.482,2.416,1.666,3.454,4.193,3.753"/>
					<path fill="none" stroke="#D8CBC5" stroke-width="3.5312" stroke-linecap="round" stroke-miterlimit="10" d="M273.06,129.556
						c0.347,3.547,2.989,4.72,6.178,5.292"/>
					<path fill="none" stroke="#D8CBC5" stroke-width="3.5312" stroke-linecap="round" stroke-miterlimit="10" d="M294.91,134.41
						c2.529-0.558,6.226,0.402,5.729,3.755"/>
					<path fill="none" stroke="#D8CBC5" stroke-width="3.5312" stroke-linecap="round" stroke-miterlimit="10" d="M300.859,148.977
						c0.757,1.615,2.119,1.95,3.751,2.205"/>
					<path fill="none" stroke="#D8CBC5" stroke-width="3.5312" stroke-linecap="round" stroke-miterlimit="10" d="M311.9,142.136
						c1.556,0.26,2.949,0.689,3.753,2.207"/>
					<path fill="none" stroke="#D8CBC5" stroke-width="3.5312" stroke-linecap="round" stroke-miterlimit="10" d="M275.922,194.222
						c-0.015,1.649,0.931,2.755,2.654,2.646"/>
					<path fill="none" stroke="#D8CBC5" stroke-width="3.5312" stroke-linecap="round" stroke-miterlimit="10" d="M244.137,143.241
						c2.638-0.514,3.735,2.463,3.754,4.632"/>
				</g>
			</g>
			<g>
				<g>
					<path fill="#39443B" d="M166.938,227.275c-26.792,0-48.509-17.792-48.509-42.154c0,0,0,23.448,0,33.512
						c0,24.371,21.717,44.117,48.509,44.117c26.796,0,48.515-19.746,48.515-44.117c0-8.033,0-33.512,0-33.512
						C215.453,209.483,193.735,227.275,166.938,227.275z"/>
					<path fill="#29302A" d="M154.856,261.37c3.858,0.911,7.918,1.38,12.082,1.38c26.796,0,48.515-19.746,48.515-44.117
						c0-8.033,0-33.512,0-33.512c0,20.884-15.964,36.93-37.391,41.097L154.856,261.37z"/>
					<g>
						<path fill="#F1E8E3" d="M166.938,227.369c-25.724,0-46.652-18.953-46.652-42.248c0-23.301,20.928-42.257,46.652-42.257
							c25.727,0,46.658,18.956,46.658,42.257C213.596,208.416,192.665,227.369,166.938,227.369z"/>
						<path fill="#4B564A" d="M166.938,144.72c24.704,0,44.801,18.124,44.801,40.4c0,22.271-20.098,40.391-44.801,40.391
							c-24.7,0-44.795-18.119-44.795-40.391C122.143,162.844,142.238,144.72,166.938,144.72 M166.938,141.007
							c-26.792,0-48.509,19.746-48.509,44.114c0,24.362,21.717,44.104,48.509,44.104c26.796,0,48.515-19.743,48.515-44.104
							C215.453,160.753,193.735,141.007,166.938,141.007L166.938,141.007z"/>
					</g>
				</g>
				<g>
					<path fill="#E9E068" stroke="#B18948" stroke-width="1.9844" stroke-miterlimit="10" d="M170.236,186.531
						c0,6.277-5.578,11.363-12.461,11.363c-6.88,0-12.458-5.086-12.458-11.363c0-6.281,5.578-11.372,12.458-11.372
						C164.658,175.159,170.236,180.25,170.236,186.531z"/>
					<path fill="#EE9621" d="M182.693,174.81c0,6.282-5.574,11.369-12.457,11.369c-6.881,0-12.461-5.087-12.461-11.369
						c0-6.271,5.58-11.362,12.461-11.362C177.119,163.448,182.693,168.538,182.693,174.81z"/>
					<path fill="#B2DAAB" d="M177.519,178.406c-5.303,3.846-10.515,7.776-15.626,11.79c0.018,0.727,0.1,1.462,0.27,2.189
						c1.431,6.11,8.022,9.797,14.718,8.233c6.707-1.573,10.976-7.794,9.539-13.907C185.425,182.415,181.864,179.323,177.519,178.406
						z"/>
					<path fill="#44954D" d="M186.42,186.711c-0.995-4.296-4.557-7.389-8.901-8.305c-0.943,0.684-1.872,1.383-2.809,2.073
						c3.759,1.209,6.75,4.079,7.655,7.953c1.101,4.719-1.198,9.494-5.387,12.155C183.624,198.991,187.85,192.791,186.42,186.711z"/>
				</g>
				<g>
					<path fill="none" stroke="#D8CBC5" stroke-width="3.5312" stroke-linecap="round" stroke-miterlimit="10" d="M146.267,158.985
						c-3.974,2.607-3.753,7.283-0.666,8.613"/>
					<path fill="none" stroke="#D8CBC5" stroke-width="3.5312" stroke-linecap="round" stroke-miterlimit="10" d="M130.157,183.484
						c2.019,0.192,6.029,4.144,3.971,5.958"/>
					<path fill="none" stroke="#D8CBC5" stroke-width="3.5312" stroke-linecap="round" stroke-miterlimit="10" d="M140.531,205.112
						c-1.262,2.38,0.246,8.634,3.97,7.287"/>
					<path fill="none" stroke="#D8CBC5" stroke-width="3.5312" stroke-linecap="round" stroke-miterlimit="10" d="M163.259,206.219
						c2.087,0.433,3.764,0.742,5.081,2.645"/>
					<path fill="none" stroke="#D8CBC5" stroke-width="3.5312" stroke-linecap="round" stroke-miterlimit="10" d="M185.328,209.963
						c1.015,1.892,4.154,2.12,5.741,0.888"/>
					<path fill="none" stroke="#D8CBC5" stroke-width="3.5312" stroke-linecap="round" stroke-miterlimit="10" d="M195.261,184.807
						c2.063-1.869,4.825-2.347,6.619,0.218"/>
					<path fill="none" stroke="#D8CBC5" stroke-width="3.5312" stroke-linecap="round" stroke-miterlimit="10" d="M199.013,196.507
						c0.48,2.416,1.667,3.443,4.195,3.753"/>
					<path fill="none" stroke="#D8CBC5" stroke-width="3.5312" stroke-linecap="round" stroke-miterlimit="10" d="M161.05,153.027
						c0.361,3.551,2.993,4.723,6.181,5.295"/>
					<path fill="none" stroke="#D8CBC5" stroke-width="3.5312" stroke-linecap="round" stroke-miterlimit="10" d="M182.904,157.883
						c2.531-0.561,6.227,0.403,5.736,3.754"/>
					<path fill="none" stroke="#D8CBC5" stroke-width="3.5312" stroke-linecap="round" stroke-miterlimit="10" d="M188.861,172.449
						c0.741,1.617,2.108,1.951,3.748,2.206"/>
					<path fill="none" stroke="#D8CBC5" stroke-width="3.5312" stroke-linecap="round" stroke-miterlimit="10" d="M199.893,165.611
						c1.551,0.257,2.95,0.688,3.752,2.206"/>
					<path fill="none" stroke="#D8CBC5" stroke-width="3.5312" stroke-linecap="round" stroke-miterlimit="10" d="M163.92,217.69
						c-0.018,1.655,0.924,2.765,2.652,2.655"/>
					<path fill="none" stroke="#D8CBC5" stroke-width="3.5312" stroke-linecap="round" stroke-miterlimit="10" d="M132.141,166.708
						c2.618-0.509,3.727,2.465,3.747,4.634"/>
				</g>
			</g>
			<g>
				<g>
					<path fill="#39443B" d="M242.678,291.826c-26.784,0-48.501-17.805-48.501-42.167c0,0,0,23.453,0,33.524
						c0,24.36,21.717,44.114,48.501,44.114c26.797,0,48.518-19.754,48.518-44.114c0-8.033,0-33.524,0-33.524
						C291.196,274.021,269.475,291.826,242.678,291.826z"/>
					<path fill="#29302A" d="M230.599,325.908c3.853,0.912,7.902,1.39,12.079,1.39c26.797,0,48.518-19.754,48.518-44.114
						c0-8.033,0-33.524,0-33.524c0,20.886-15.961,36.932-37.395,41.103L230.599,325.908z"/>
					<g>
						<path fill="#F1E8E3" d="M242.678,291.921c-25.72,0-46.645-18.959-46.645-42.262c0-23.301,20.924-42.257,46.645-42.257
							c25.729,0,46.661,18.956,46.661,42.257C289.339,272.962,268.406,291.921,242.678,291.921z"/>
						<path fill="#4B564A" d="M242.678,209.259c24.705,0,44.804,18.124,44.804,40.4c0,22.279-20.099,40.404-44.804,40.404
							c-24.696,0-44.788-18.125-44.788-40.404C197.89,227.383,217.982,209.259,242.678,209.259 M242.678,205.545
							c-26.784,0-48.501,19.755-48.501,44.114c0,24.362,21.717,44.118,48.501,44.118c26.797,0,48.518-19.756,48.518-44.118
							C291.196,225.301,269.475,205.545,242.678,205.545L242.678,205.545z"/>
					</g>
				</g>
				<g>
					<path fill="#E9E068" stroke="#B18948" stroke-width="1.9844" stroke-miterlimit="10" d="M245.982,251.076
						c0,6.263-5.573,11.365-12.47,11.365c-6.879,0-12.452-5.103-12.452-11.365c0-6.275,5.573-11.377,12.452-11.377
						C240.408,239.699,245.982,244.801,245.982,251.076z"/>
					<path fill="#EE9621" d="M258.431,239.346c0,6.283-5.571,11.383-12.449,11.383c-6.876,0-12.47-5.1-12.47-11.383
						c0-6.258,5.594-11.359,12.47-11.359C252.86,227.987,258.431,233.089,258.431,239.346z"/>
					<path fill="#B2DAAB" d="M253.264,242.947c-5.309,3.842-10.521,7.786-15.637,11.788c0.033,0.723,0.114,1.467,0.276,2.2
						c1.437,6.098,8.022,9.787,14.727,8.219c6.704-1.56,10.975-7.779,9.54-13.903C261.164,246.966,257.612,243.87,253.264,242.947z"
						/>
					<path fill="#44954D" d="M262.17,251.251c-1.006-4.285-4.559-7.381-8.906-8.304c-0.959,0.694-1.867,1.381-2.804,2.08
						c3.759,1.211,6.738,4.07,7.654,7.952c1.098,4.712-1.206,9.487-5.396,12.148C259.364,263.531,263.587,257.331,262.17,251.251z"
						/>
				</g>
				<g>
					<path fill="none" stroke="#D8CBC5" stroke-width="3.5312" stroke-linecap="round" stroke-miterlimit="10" d="M222.007,223.532
						c-3.975,2.596-3.755,7.275-0.659,8.614"/>
					<path fill="none" stroke="#D8CBC5" stroke-width="3.5312" stroke-linecap="round" stroke-miterlimit="10" d="M205.894,248.019
						c2.021,0.194,6.03,4.159,3.972,5.97"/>
					<path fill="none" stroke="#D8CBC5" stroke-width="3.5312" stroke-linecap="round" stroke-miterlimit="10" d="M216.266,269.661
						c-1.262,2.377,0.249,8.625,3.972,7.282"/>
					<path fill="none" stroke="#D8CBC5" stroke-width="3.5312" stroke-linecap="round" stroke-miterlimit="10" d="M238.995,270.758
						c2.09,0.435,3.764,0.744,5.07,2.656"/>
					<path fill="none" stroke="#D8CBC5" stroke-width="3.5312" stroke-linecap="round" stroke-miterlimit="10" d="M261.078,274.512
						c1.014,1.882,4.145,2.11,5.73,0.878"/>
					<path fill="none" stroke="#D8CBC5" stroke-width="3.5312" stroke-linecap="round" stroke-miterlimit="10" d="M270.999,249.355
						c2.073-1.872,4.832-2.357,6.631,0.221"/>
					<path fill="none" stroke="#D8CBC5" stroke-width="3.5312" stroke-linecap="round" stroke-miterlimit="10" d="M274.752,261.057
						c0.492,2.405,1.667,3.433,4.194,3.744"/>
					<path fill="none" stroke="#D8CBC5" stroke-width="3.5312" stroke-linecap="round" stroke-miterlimit="10" d="M236.801,217.573
						c0.359,3.543,2.98,4.725,6.169,5.299"/>
					<path fill="none" stroke="#D8CBC5" stroke-width="3.5312" stroke-linecap="round" stroke-miterlimit="10" d="M258.642,222.423
						c2.531-0.556,6.228,0.413,5.729,3.754"/>
					<path fill="none" stroke="#D8CBC5" stroke-width="3.5312" stroke-linecap="round" stroke-miterlimit="10" d="M264.605,236.998
						c0.746,1.606,2.114,1.953,3.738,2.195"/>
					<path fill="none" stroke="#D8CBC5" stroke-width="3.5312" stroke-linecap="round" stroke-miterlimit="10" d="M275.632,230.15
						c1.563,0.268,2.951,0.697,3.752,2.217"/>
					<path fill="none" stroke="#D8CBC5" stroke-width="3.5312" stroke-linecap="round" stroke-miterlimit="10" d="M239.655,282.238
						c-0.014,1.658,0.931,2.754,2.655,2.637"/>
					<path fill="none" stroke="#D8CBC5" stroke-width="3.5312" stroke-linecap="round" stroke-miterlimit="10" d="M207.879,231.247
						c2.626-0.508,3.726,2.46,3.755,4.632"/>
				</g>
			</g>
		</g>
	</g>
</g>
</svg>
