<?xml version="1.0" encoding="utf-8"?>
<!-- Generator: Adobe Illustrator 16.0.0, SVG Export Plug-In . SVG Version: 6.00 Build 0)  -->
<!DOCTYPE svg PUBLIC "-//W3C//DTD SVG 1.1//EN" "http://www.w3.org/Graphics/SVG/1.1/DTD/svg11.dtd">
<svg version="1.1" id="Ebene_1" xmlns="http://www.w3.org/2000/svg" xmlns:xlink="http://www.w3.org/1999/xlink" x="0px" y="0px"
	 width="450px" height="450px" viewBox="0 0 450 450" enable-background="new 0 0 450 450" xml:space="preserve">
<g>
	<g>
		<g>
			<g opacity="0.3">
				<path d="M195.051,277.657c0,0,8.168,10.206,17.205,13.705c17.377,6.728,66.484-6.707,72.605-17.495
					c5.918-10.426,6.414-18.518,6.414-18.518L195.051,277.657z"/>
				<path d="M236.164,224.296l-72.605,18.37c0,0,4.518,28.72,23.182,38.054c10.303,5.149,45.465,5.787,73.086-2.598l24.209-74.45
					C265.875,208.521,236.164,224.296,236.164,224.296z"/>
				<path d="M297.401,204.177c-1.426-2.612-6.6-2.312-13.365-0.505l-24.209,74.45c9.91-3.009,18.857-7.168,25.326-12.712
					C309.647,244.414,302.647,213.799,297.401,204.177z"/>
				<path d="M166.473,250.831c8.547,19.942,79.316,26.826,114.307-1.167s20.994-72.314-26.828-71.148
					C206.131,179.681,145.479,201.843,166.473,250.831z"/>
				<path d="M291.276,217.298c-0.873-8.748-2.625-20.121-21.869-27.118c-19.244-6.998-69.107,4.375-80.48,13.121
					c-11.371,8.748-21.867,25.368-19.244,34.99c2.625,9.625,10.936,17.496,10.936,17.496L291.276,217.298z"/>
				<path d="M183.678,218.172c-18.369,11.373-11.729,27.969-3.936,37.178c1.732,2.045,6.809,3.352,13.281,4.109l33.449-52.701
					C214.215,208.927,198.953,208.716,183.678,218.172z"/>
				<path d="M230.041,259.287c14.871-1.749,34.115-6.561,45.928-15.309c14.551-10.779,15.307-26.681,15.307-26.681
					c0-22.743-27.992-35.866-35.867-30.618c-7.871,5.25-8.746,13.998-21.867,18.371c-2.211,0.737-4.582,1.267-7.068,1.707
					l-33.449,52.701C204.549,260.806,220.522,260.408,230.041,259.287z"/>
				<path d="M228.731,199.365c5.664,3.967,16.182-8.313,17.494-13.997c1.313-5.687-0.875-8.311-6.559-10.06
					c-5.688-1.75-7.875,8.747-10.936,13.996C225.668,194.554,224.356,196.302,228.731,199.365z"/>
				<path d="M249.723,182.743c1.313,3.063,4.813,2.187,5.686-2.187C256.285,176.183,248.412,179.681,249.723,182.743z"/>
				<path d="M246.662,175.308c-0.873,7.435,12.412-0.93,13.998-8.311C262.244,159.617,247.537,167.872,246.662,175.308z"/>
				<path d="M259.467,185.551c2.879,0.068,5.611,0.887,8.035,3.561c2.127,2.344,4.172,5.4,5.48,8.272
					c0.846,1.859,1.146,3.767,1.104,5.803c-0.002,0.551-0.043,1.099-0.105,1.643c6.033,3.363,8.381,8.785,7.006,15.965
					c-1.121,5.85-3.875,10.667-9.092,13.824c-0.635,0.384-1.275,0.756-1.922,1.121c-1.844,2.633-3.584,5.403-6.186,7.419
					c-5.004,3.878-11.473,5.552-17.547,6.934c-4.975,3.501-10.311,6.388-16.381,7.813c-2.779,0.652-5.547,1.36-8.311,2.087
					c3.135-0.175,6.031-0.414,8.492-0.704c14.871-1.749,34.115-6.561,45.928-15.309c14.551-10.779,15.307-26.681,15.307-26.681
					C291.276,197.552,270.182,185.066,259.467,185.551z"/>
				<path d="M259.467,185.551c1.945,0.046,3.818,0.451,5.58,1.522c10.721,3.872,23.518,14.845,23.518,30.225
					c0,0-0.756,15.901-15.309,26.681c-11.811,8.748-31.057,13.56-45.928,15.309c-1.463,0.173-3.096,0.324-4.828,0.458
					c-0.316,0.083-0.635,0.163-0.951,0.246c3.135-0.175,6.031-0.414,8.492-0.704c14.871-1.749,34.115-6.561,45.928-15.309
					c14.551-10.779,15.307-26.681,15.307-26.681C291.276,197.552,270.182,185.066,259.467,185.551z"/>
			</g>
			<g>
				<g>
					<g>
						<path fill="#ACAAA2" d="M183.712,269.153c0,0,8.168,10.206,17.206,13.705c17.377,6.728,66.483-6.707,72.605-17.495
							c5.918-10.426,6.414-18.518,6.414-18.518L183.712,269.153z"/>
						<g>
							<path fill="#D9D8D4" d="M224.825,215.792l-72.605,18.37c0,0,4.519,28.72,23.182,38.054
								c10.304,5.149,45.465,5.787,73.085-2.598l24.209-74.45C254.535,200.017,224.825,215.792,224.825,215.792z"/>
							<path fill="#CFCDC4" d="M286.062,195.673c-1.425-2.612-6.601-2.312-13.366-0.505l-24.209,74.45
								c9.912-3.009,18.859-7.168,25.327-12.712C298.307,235.91,291.307,205.295,286.062,195.673z"/>
						</g>
						<path fill="#ECEAEB" d="M155.135,242.327c8.547,19.942,79.315,26.826,114.307-1.167c34.99-27.993,20.992-72.314-26.83-71.148
							C194.793,171.177,134.141,193.339,155.135,242.327z"/>
						<path fill="#D9D8D4" d="M279.938,208.794c-0.875-8.748-2.625-20.121-21.871-27.118c-19.244-6.998-69.105,4.375-80.479,13.121
							c-11.371,8.748-21.867,25.368-19.246,34.99c2.626,9.625,10.937,17.496,10.937,17.496L279.938,208.794z"/>
						<path fill="#CFCDC4" d="M169.279,247.283l1.522-0.53c2.459-5.576,4.945-11.14,7.445-16.698
							c5.232-13.011,10.377-26.059,15.957-38.914c0.469-1.38,0.946-2.757,1.424-4.134c-8.137,2.474-14.727,5.242-18.039,7.79
							c-11.371,8.748-21.867,25.368-19.246,34.99C160.968,239.412,169.279,247.283,169.279,247.283z"/>
						<g>
							<path fill="#F06223" d="M172.339,209.668c-18.37,11.373-11.729,27.969-3.937,37.178c1.733,2.045,6.81,3.352,13.282,4.109
								l33.45-52.701C202.877,200.424,187.615,200.212,172.339,209.668z"/>
							<path fill="#D05027" d="M218.702,250.783c14.87-1.749,34.116-6.561,45.927-15.309c14.553-10.779,15.309-26.681,15.309-26.681
								c0-22.743-27.994-35.866-35.867-30.618c-7.872,5.25-8.746,13.998-21.867,18.371c-2.213,0.737-4.584,1.267-7.068,1.707
								l-33.45,52.701C193.211,252.302,209.184,251.904,218.702,250.783z"/>
							<path fill="#F06223" d="M217.392,190.861c5.665,3.967,16.181-8.313,17.493-13.997c1.313-5.687-0.873-8.311-6.558-10.06
								c-5.688-1.75-7.876,8.747-10.936,13.996C214.328,186.051,213.017,187.799,217.392,190.861z"/>
							<path fill="#EBF1F3" d="M238.385,174.239c1.313,3.063,4.811,2.187,5.686-2.187
								C244.947,167.679,237.073,171.177,238.385,174.239z"/>
							<path fill="#F06223" d="M235.324,166.804c-0.874,7.435,12.41-0.93,13.997-8.311
								C250.906,151.113,236.198,159.368,235.324,166.804z"/>
							<path fill="#B93F1E" d="M248.129,177.047c2.879,0.068,5.611,0.887,8.035,3.561c2.127,2.344,4.172,5.4,5.479,8.272
								c0.848,1.859,1.148,3.767,1.105,5.803c-0.002,0.551-0.043,1.099-0.105,1.643c6.033,3.363,8.381,8.785,7.006,15.965
								c-1.121,5.85-3.875,10.667-9.092,13.824c-0.635,0.384-1.275,0.756-1.922,1.121c-1.844,2.633-3.584,5.403-6.186,7.419
								c-5.004,3.878-11.473,5.552-17.547,6.934c-4.975,3.501-10.311,6.388-16.381,7.813c-2.781,0.652-5.547,1.36-8.311,2.087
								c3.135-0.175,6.031-0.414,8.491-0.704c14.87-1.749,34.116-6.561,45.927-15.309c14.553-10.779,15.309-26.681,15.309-26.681
								C279.938,189.048,258.844,176.562,248.129,177.047z"/>
							<path fill="#902614" d="M248.129,177.047c1.944,0.046,3.818,0.451,5.578,1.522c10.723,3.872,23.519,14.845,23.519,30.225
								c0,0-0.757,15.901-15.308,26.681c-11.812,8.748-31.057,13.56-45.928,15.309c-1.464,0.173-3.096,0.324-4.828,0.458
								c-0.316,0.083-0.635,0.163-0.951,0.246c3.135-0.175,6.031-0.414,8.491-0.704c14.87-1.749,34.116-6.561,45.927-15.309
								c14.553-10.779,15.309-26.681,15.309-26.681C279.938,189.048,258.844,176.562,248.129,177.047z"/>
						</g>
					</g>
				</g>
			</g>
		</g>
	</g>
	<path fill="#B93F1E" d="M228.327,166.804c-0.65-0.2-1.253-0.233-1.818-0.14c0.318,0.131,0.636,0.271,0.951,0.434
		c4.007,2.058,6.122,7.333,3.897,11.455c-1.597,2.958-4.474,4.592-6.439,6.608c-0.816,0.837-0.212,2.085-1.197,2.726
		c-0.261,0.17-2.753,1.664-2.872,1.741c-0.604,1.303-0.376,0.795-1.347,1.892c-0.027,0.029-0.055,0.053-0.08,0.08
		c5.84,0.594,14.295-9.678,15.463-14.736C236.198,171.177,234.012,168.553,228.327,166.804z"/>
	<path fill="#B93F1E" d="M240.49,173.887c1.313,3.063,2.705,2.538,3.58-1.835C244.947,167.679,239.18,170.826,240.49,173.887z"/>
	<path fill="#B93F1E" d="M242.987,157.25c0.139,1.235,0.113,2.474-0.256,3.718c-0.41,1.386-0.928,3.067-2.031,4.096
		c-1.494,1.395-1.518,1.444-3.35,2.283c-0.637,0.291-1.359,0.319-2.045,0.441c0.447,5.611,12.51-2.28,14.017-9.294
		C250.133,154.716,246.672,155.04,242.987,157.25z"/>
	
		<ellipse transform="matrix(-0.7909 -0.6119 0.6119 -0.7909 299.8292 494.7664)" fill="#B93F1E" cx="234.44" cy="196.161" rx="5.45" ry="10.598"/>
	<ellipse fill="#B93F1E" cx="246.323" cy="181.701" rx="2.163" ry="2.17"/>
</g>
</svg>
