<?xml version="1.0" encoding="utf-8"?>
<!-- Generator: Adobe Illustrator 16.0.0, SVG Export Plug-In . SVG Version: 6.00 Build 0)  -->
<!DOCTYPE svg PUBLIC "-//W3C//DTD SVG 1.1//EN" "http://www.w3.org/Graphics/SVG/1.1/DTD/svg11.dtd">
<svg version="1.1" id="Ebene_1" xmlns="http://www.w3.org/2000/svg" xmlns:xlink="http://www.w3.org/1999/xlink" x="0px" y="0px"
	 width="450px" height="450px" viewBox="0 0 450 450" enable-background="new 0 0 450 450" xml:space="preserve">
<g>
	<g>
		<g>
			<g opacity="0.3">
				<path fill="#1D1D1B" d="M185.848,294.073c0,0,10.6,13.249,22.335,17.79c22.556,8.734,86.306-8.701,94.26-22.71
					c7.677-13.535,8.325-24.044,8.325-24.044L185.848,294.073z"/>
				<path fill="#1D1D1B" d="M239.221,224.799l-94.258,23.854c0,0,5.863,37.284,30.095,49.401
					c13.376,6.678,59.018,7.512,94.878-3.374l31.431-96.652C277.793,204.318,239.221,224.799,239.221,224.799z"/>
				<path fill="#1D1D1B" d="M318.717,198.68c-1.85-3.39-8.564-3.003-17.351-0.653l-31.431,96.652
					c12.865-3.912,24.482-9.304,32.887-16.502C334.62,250.921,325.531,211.171,318.717,198.68z"/>
				<path fill="#1D1D1B" d="M148.746,259.248c11.094,25.893,102.969,34.825,148.392-1.52c45.431-36.339,27.256-93.876-34.83-92.362
					C200.229,166.879,121.49,195.648,148.746,259.248z"/>
				<path fill="#1D1D1B" d="M310.769,215.716c-1.138-11.361-3.409-26.125-28.396-35.209c-24.983-9.083-89.714,5.682-104.479,17.036
					c-14.762,11.355-28.388,32.93-24.982,45.42c3.409,12.494,14.198,22.724,14.198,22.724L310.769,215.716z"/>
				<path fill="#1D1D1B" d="M171.083,216.851c-23.849,14.765-15.227,36.308-5.11,48.258c2.25,2.658,8.838,4.355,17.24,5.339
					l43.42-68.417C210.729,204.845,190.911,204.572,171.083,216.851z"/>
				<path fill="#1D1D1B" d="M231.275,270.22c19.307-2.266,44.291-8.512,59.623-19.874c18.889-13.987,19.871-34.63,19.871-34.63
					c0-29.527-36.345-46.564-46.565-39.752c-10.217,6.816-11.36,18.172-28.383,23.852c-2.875,0.957-5.952,1.641-9.188,2.216
					l-43.42,68.417C198.179,272.192,218.915,271.68,231.275,270.22z"/>
				<path fill="#1D1D1B" d="M229.569,192.434c7.36,5.147,21.013-10.793,22.709-18.173c1.709-7.382-1.129-10.79-8.509-13.058
					c-7.383-2.272-10.221,11.356-14.2,18.167C225.588,186.189,223.894,188.459,229.569,192.434z"/>
				<path fill="#1D1D1B" d="M256.822,170.853c1.708,3.979,6.254,2.84,7.382-2.838C265.347,162.338,255.115,166.879,256.822,170.853z
					"/>
				<path fill="#1D1D1B" d="M252.843,161.203c-1.128,9.65,16.114-1.209,18.181-10.789
					C273.074,140.83,253.987,151.549,252.843,161.203z"/>
				<path fill="#1D1D1B" d="M269.477,174.5c3.729,0.089,7.279,1.148,10.424,4.621c2.763,3.043,5.416,7.011,7.12,10.738
					c1.1,2.417,1.485,4.89,1.429,7.534c-0.002,0.714-0.058,1.428-0.134,2.132c7.828,4.365,10.882,11.405,9.098,20.726
					c-1.461,7.602-5.034,13.847-11.806,17.951c-0.822,0.497-1.657,0.981-2.5,1.446c-2.391,3.424-4.646,7.017-8.024,9.638
					c-6.501,5.036-14.893,7.205-22.775,8.997c-6.459,4.547-13.392,8.295-21.271,10.145c-3.613,0.85-7.201,1.77-10.791,2.708
					c4.067-0.219,7.833-0.532,11.028-0.915c19.307-2.266,44.291-8.512,59.623-19.874c18.889-13.987,19.871-34.63,19.871-34.63
					C310.769,190.077,283.386,173.868,269.477,174.5z"/>
				<path fill="#1D1D1B" d="M269.477,174.5c2.525,0.06,4.949,0.585,7.237,1.975c13.925,5.027,30.538,19.274,30.538,39.241
					c0,0-0.982,20.643-19.874,34.63c-15.341,11.362-40.327,17.608-59.636,19.874c-1.887,0.229-4.014,0.423-6.262,0.599
					c-0.409,0.111-0.826,0.218-1.234,0.316c4.067-0.219,7.833-0.532,11.028-0.915c19.307-2.266,44.291-8.512,59.623-19.874
					c18.889-13.987,19.871-34.63,19.871-34.63C310.769,190.077,283.386,173.868,269.477,174.5z"/>
			</g>
			<g>
				<g>
					<g>
						<path fill="#ADABA3" d="M171.124,283.038c0,0,10.606,13.246,22.336,17.791c22.564,8.733,86.312-8.714,94.257-22.712
							c7.685-13.534,8.334-24.041,8.334-24.041L171.124,283.038z"/>
						<g>
							<path fill="#DAD9D5" d="M224.498,213.758l-94.257,23.846c0,0,5.867,37.284,30.094,49.402
								c13.377,6.689,59.023,7.513,94.883-3.373l31.432-96.647C263.076,193.278,224.498,213.758,224.498,213.758z"/>
							<path fill="#D0CEC5" d="M304,187.639c-1.849-3.39-8.566-3.002-17.351-0.653l-31.432,96.647
								c12.866-3.901,24.484-9.304,32.875-16.501C319.893,239.876,310.811,200.131,304,187.639z"/>
						</g>
						<path fill="#EDEBEC" d="M134.025,248.203c11.098,25.89,102.973,34.835,148.395-1.509
							c45.43-36.345,27.254-93.881-34.828-92.369C185.511,155.839,106.771,184.611,134.025,248.203z"/>
						<path fill="#DAD9D5" d="M296.051,204.676c-1.141-11.357-3.414-26.122-28.397-35.208
							c-24.982-9.084-89.712,5.681-104.477,17.035c-14.763,11.355-28.39,32.936-24.987,45.427
							c3.408,12.494,14.198,22.711,14.198,22.711L296.051,204.676z"/>
						<path fill="#D0CEC5" d="M152.387,254.64l1.977-0.686c3.192-7.244,6.42-14.461,9.666-21.674
							c6.792-16.896,13.47-33.838,20.716-50.523c0.61-1.793,1.229-3.583,1.848-5.37c-10.561,3.214-19.118,6.808-23.417,10.114
							c-14.763,11.355-28.39,32.936-24.987,45.427C141.598,244.424,152.387,254.64,152.387,254.64z"/>
						<g>
							<path fill="#F16223" d="M156.361,205.811c-23.847,14.765-15.227,36.312-5.109,48.265c2.249,2.652,8.837,4.354,17.243,5.336
								l43.423-68.421C196.006,193.808,176.194,193.534,156.361,205.811z"/>
							<path fill="#D15027" d="M216.552,259.186c19.302-2.272,44.285-8.522,59.629-19.874c18.891-13.994,19.87-34.637,19.87-34.637
								c0-29.527-36.344-46.565-46.563-39.75c-10.218,6.813-11.36,18.17-28.389,23.85c-2.877,0.956-5.955,1.642-9.181,2.216
								l-43.423,68.421C183.457,261.158,204.192,260.646,216.552,259.186z"/>
							<path fill="#F16223" d="M214.852,181.393c7.354,5.147,21.001-10.792,22.709-18.172c1.708-7.382-1.129-10.789-8.51-13.058
								c-7.39-2.272-10.228,11.355-14.2,18.167C210.871,175.149,209.17,177.419,214.852,181.393z"/>
							<path fill="#ECF2F4" d="M242.106,159.813c1.695,3.978,6.239,2.84,7.382-2.838
								C250.618,151.299,240.399,155.839,242.106,159.813z"/>
							<path fill="#F16223" d="M238.127,150.163c-1.129,9.65,16.114-1.208,18.18-10.79
								C258.359,129.791,239.27,140.508,238.127,150.163z"/>
							<path fill="#BA3F1E" d="M254.747,163.459c3.741,0.089,7.293,1.149,10.438,4.621c2.764,3.043,5.415,7.012,7.118,10.739
								c1.092,2.417,1.487,4.89,1.431,7.534c-0.002,0.716-0.057,1.429-0.134,2.135c7.828,4.365,10.879,11.402,9.094,20.723
								c-1.457,7.595-5.03,13.853-11.802,17.944c-0.832,0.497-1.657,0.982-2.501,1.46c-2.395,3.425-4.658,7.015-8.023,9.638
								c-6.501,5.023-14.906,7.205-22.789,8.997c-6.459,4.547-13.378,8.296-21.264,10.145c-3.608,0.847-7.2,1.757-10.784,2.709
								c4.067-0.231,7.826-0.541,11.021-0.916c19.302-2.272,44.285-8.522,59.629-19.874c18.891-13.994,19.87-34.637,19.87-34.637
								C296.051,179.037,268.66,162.83,254.747,163.459z"/>
							<path fill="#912614" d="M254.747,163.459c2.524,0.06,4.963,0.585,7.246,1.975c13.917,5.029,30.529,19.274,30.529,39.241
								c0,0-0.978,20.643-19.872,34.637c-15.332,11.352-40.314,17.602-59.622,19.874c-1.896,0.228-4.016,0.423-6.264,0.599
								c-0.415,0.098-0.826,0.206-1.234,0.317c4.067-0.231,7.826-0.541,11.021-0.916c19.302-2.272,44.285-8.522,59.629-19.874
								c18.891-13.994,19.87-34.637,19.87-34.637C296.051,179.037,268.66,162.83,254.747,163.459z"/>
						</g>
					</g>
				</g>
			</g>
		</g>
	</g>
	<path fill="#BA3F1E" d="M229.052,150.163c-0.848-0.261-1.634-0.303-2.369-0.182c0.417,0.168,0.834,0.352,1.234,0.562
		c5.208,2.672,7.945,9.521,5.056,14.871c-2.063,3.839-5.802,5.96-8.354,8.579c-1.056,1.089-0.275,2.706-1.551,3.538
		c-0.338,0.224-3.573,2.164-3.727,2.263c-0.787,1.691-0.489,1.031-1.75,2.457c-0.033,0.036-0.074,0.067-0.107,0.101
		c7.586,0.771,18.557-12.562,20.079-19.131C239.27,155.839,236.433,152.432,229.052,150.163z"/>
	<path fill="#BA3F1E" d="M244.833,159.358c1.709,3.978,3.512,3.295,4.654-2.383C250.618,151.299,243.141,155.383,244.833,159.358z"
		/>
	<path fill="#BA3F1E" d="M248.078,137.758c0.182,1.605,0.142,3.211-0.327,4.826c-0.536,1.8-1.21,3.983-2.639,5.318
		c-1.945,1.811-1.969,1.875-4.353,2.964c-0.82,0.379-1.769,0.416-2.652,0.573c0.574,7.286,16.24-2.959,18.199-12.065
		C257.359,134.468,252.866,134.888,248.078,137.758z"/>
	<path fill="#BA3F1E" d="M231.391,183.945c-4.655,6.008-5.925,12.822-2.825,15.208c3.087,2.394,9.36-0.539,14.004-6.552
		c4.657-6.008,5.928-12.818,2.827-15.209C242.31,175,236.034,177.932,231.391,183.945z"/>
	<path fill="#BA3F1E" d="M255.218,169.5c0,1.558-1.251,2.819-2.813,2.819c-1.548,0-2.799-1.261-2.799-2.819
		c0-1.553,1.251-2.814,2.799-2.814C253.967,166.685,255.218,167.947,255.218,169.5z"/>
</g>
</svg>
