<svg xmlns="http://www.w3.org/2000/svg" xmlns:xlink="http://www.w3.org/1999/xlink" version="1.1" id="Ebene_1" x="0" y="0" width="450" height="450" viewBox="0 0 450 450" enable-background="new 0 0 450 450" xml:space="preserve">
  <g opacity="0.3">
    <path d="M343.64 224.6c-0.02 0-0.03-0.01-0.04-0.01 -4.65 0.04-88.14 32.63-103.73 38.72 -0.78 0.16-1.61 0.46-2.49 0.98 -12.02 6.99-27.91 37.56-9.18 32.9 0.07-0.01 0.16-0.04 0.24-0.06 0.32-0.08 0.65-0.17 0.99-0.27 0.05-0.02 0.1-0.02 0.15-0.04 0.29-0.1 0.6-0.21 0.93-0.32 0.23-0.08 0.44-0.14 0.68-0.23 0.05-0.02 0.1-0.04 0.15-0.06 18.82-6.61 91.35-34.61 100.05-38.62C357.1 248.08 357.78 219.64 343.64 224.6z"/>
    <path d="M297.33 257.29c-0.01-0.01-0.02-0.02-0.04-0.03 -4.07-2.24-92.84-14.62-109.42-16.92 -0.76-0.24-1.63-0.38-2.65-0.37 -13.91 0.23-42.71 19.12-24.09 24.22 0.07 0.02 0.16 0.04 0.24 0.06 0.32 0.09 0.65 0.17 1 0.25 0.06 0.01 0.1 0.03 0.15 0.04 0.3 0.06 0.63 0.11 0.97 0.18 0.24 0.04 0.45 0.1 0.71 0.13 0.05 0.01 0.1 0.01 0.16 0.02 19.65 3.43 96.61 14.45 106.17 15.21C297.6 284.35 312.1 259.87 297.33 257.29z"/>
    <path d="M213.18 269.88c0.02 0 0.03 0 0.04 0 4.61-0.58 83.76-42.64 98.53-50.51 0.76-0.25 1.55-0.65 2.36-1.26 11.13-8.34 23.36-40.54 5.29-33.74 -0.07 0.02-0.15 0.06-0.23 0.09 -0.31 0.12-0.62 0.24-0.95 0.39 -0.05 0.02-0.09 0.03-0.14 0.06 -0.27 0.13-0.57 0.27-0.89 0.42 -0.22 0.11-0.42 0.19-0.65 0.31 -0.05 0.02-0.09 0.05-0.14 0.08 -17.92 8.75-86.71 44.99-94.89 49.98C197.09 248.12 199.71 276.45 213.18 269.88z"/>
    <path d="M255.38 232.03c0.02 0.01 0.02 0.02 0.04 0.03 4.31 1.75 93.91 3.74 110.65 4.09 0.78 0.15 1.67 0.19 2.68 0.06 13.79-1.84 40.2-23.95 21.11-26.85 -0.07-0.02-0.17-0.02-0.24-0.04 -0.33-0.05-0.66-0.09-1.02-0.13 -0.06 0-0.1-0.01-0.16-0.02 -0.3-0.02-0.63-0.04-0.98-0.06 -0.24-0.02-0.46-0.04-0.71-0.05 -0.05 0-0.1 0-0.16 0 -19.91-1.13-97.63-3.13-107.21-2.77C251.98 205.18 240.42 231.18 255.38 232.03z"/>
    <path d="M269.4 237.56c-0.01-0.01-0.02-0.02-0.04-0.03 -4.2-1.98-93.57-8.89-110.25-10.16 -0.77-0.2-1.65-0.28-2.67-0.2 -13.86 1.08-41.45 21.71-22.55 25.65 0.08 0.02 0.16 0.03 0.24 0.05 0.33 0.06 0.66 0.13 1.01 0.18 0.06 0.01 0.1 0.02 0.15 0.03 0.3 0.04 0.63 0.07 0.98 0.12 0.24 0.03 0.46 0.07 0.71 0.09 0.05 0.01 0.1 0.01 0.16 0.01 19.82 2.22 97.32 8.48 106.9 8.66C271.32 264.55 284.29 239.23 269.4 237.56z"/>
    <path d="M213.49 246.9c-0.01-0.01-0.01-0.03-0.02-0.04 -2.7-3.78-77.28-53.48-91.22-62.75 -0.58-0.55-1.31-1.06-2.23-1.48 -12.62-5.84-46.77-1.32-32.21 11.36 0.06 0.05 0.13 0.11 0.18 0.16 0.26 0.22 0.51 0.43 0.79 0.66 0.05 0.03 0.08 0.06 0.12 0.1 0.24 0.18 0.52 0.37 0.8 0.58 0.2 0.14 0.37 0.28 0.58 0.43 0.04 0.03 0.09 0.05 0.13 0.08 16.21 11.62 80.75 54.97 89.03 59.8C201.97 271.39 225.66 255.64 213.49 246.9z"/>
    <path d="M132.22 221.7c0.02 0 0.02 0.02 0.04 0.02 4.41 1.48 93.97-2.04 110.69-2.71 0.79 0.11 1.68 0.09 2.68-0.11 13.65-2.68 38.65-26.38 19.42-28.1 -0.08-0.01-0.17-0.01-0.24-0.02 -0.33-0.03-0.67-0.05-1.03-0.06 -0.05 0-0.1-0.01-0.15-0.01 -0.3 0-0.64 0-0.98 0 -0.24 0-0.46-0.01-0.72-0.01 -0.05 0-0.1 0.01-0.16 0.01 -19.94 0.1-97.64 2.88-107.18 3.82C127.17 195.11 117.23 221.77 132.22 221.7z"/>
    <path d="M205.87 203.63c0.01 0.01 0.01 0.03 0.02 0.04 3.12 3.44 82.97 44.15 97.89 51.73 0.64 0.48 1.42 0.9 2.39 1.21 13.22 4.33 46.61-4.12 30.68-15.02 -0.06-0.05-0.14-0.09-0.2-0.14 -0.28-0.19-0.56-0.37-0.86-0.56 -0.05-0.03-0.08-0.05-0.13-0.08 -0.26-0.15-0.56-0.31-0.86-0.48 -0.21-0.12-0.39-0.24-0.62-0.36 -0.04-0.02-0.09-0.04-0.14-0.07 -17.45-9.66-86.59-45.21-95.37-49.05C214.46 177.97 192.76 196.36 205.87 203.63z"/>
    <path d="M70.1 268.94c0.02 0 0.03-0.01 0.05-0.01 4.65 0.04 88.14 32.63 103.73 38.72 0.78 0.16 1.61 0.46 2.49 0.98 12.02 6.99 27.91 37.56 9.18 32.9 -0.07-0.01-0.16-0.04-0.24-0.06 -0.32-0.08-0.65-0.17-0.99-0.27 -0.05-0.02-0.1-0.02-0.15-0.04 -0.29-0.1-0.6-0.21-0.93-0.32 -0.23-0.08-0.44-0.14-0.68-0.23 -0.05-0.02-0.1-0.04-0.15-0.06 -18.82-6.61-91.35-34.61-100.05-38.62C56.65 292.42 55.96 263.98 70.1 268.94z"/>
    <path d="M223.33 160.36c0.01 0 0.03-0.01 0.04-0.02 4.59-0.74 92.37 17.35 108.76 20.74 0.8 0.02 1.67 0.19 2.62 0.54 13.03 4.87 33.83 32.33 14.57 30.89 -0.07 0-0.16-0.02-0.24-0.02 -0.33-0.03-0.67-0.06-1.02-0.1 -0.06-0.01-0.1-0.01-0.16-0.02 -0.3-0.05-0.63-0.1-0.97-0.16 -0.24-0.04-0.46-0.06-0.71-0.11 -0.05-0.01-0.1-0.03-0.15-0.04 -19.66-3.35-95.86-18.77-105.12-21.26C214.01 185.77 208.55 157.84 223.33 160.36z"/>
    <path d="M210.43 369.58c0.01-0.02 0-0.03 0-0.04 0.9-4.56 48.39-80.58 57.27-94.76 0.3-0.74 0.76-1.5 1.42-2.27 9.1-10.52 42.08-20.47 34.03-2.92 -0.03 0.07-0.07 0.15-0.1 0.22 -0.14 0.3-0.29 0.61-0.45 0.92 -0.03 0.05-0.04 0.09-0.07 0.14 -0.15 0.26-0.31 0.55-0.49 0.85 -0.12 0.21-0.22 0.41-0.35 0.63 -0.03 0.05-0.06 0.09-0.08 0.13 -9.98 17.27-50.94 83.35-56.48 91.17C231.01 387.15 202.93 382.56 210.43 369.58z"/>
    <path d="M265.16 229.62c0.01 0.01 0.01 0.03 0.02 0.04 2.78 3.73 78.41 51.83 92.54 60.8 0.59 0.54 1.33 1.03 2.26 1.44 12.74 5.57 46.79 0.32 31.97-12.04 -0.06-0.05-0.13-0.1-0.19-0.16 -0.26-0.21-0.52-0.42-0.81-0.64 -0.04-0.03-0.08-0.06-0.12-0.1 -0.25-0.17-0.52-0.36-0.81-0.56 -0.2-0.14-0.37-0.27-0.59-0.41 -0.04-0.03-0.09-0.05-0.13-0.08 -16.45-11.28-81.9-53.23-90.28-57.89C276.15 204.89 252.8 221.15 265.16 229.62z"/>
    <path d="M100.16 208.72c0.01-0.01 0.01-0.03 0.02-0.04 3.14-3.42 83.27-43.59 98.24-51.07 0.64-0.48 1.43-0.89 2.4-1.2 13.24-4.24 46.58 4.44 30.58 15.23 -0.06 0.05-0.14 0.09-0.2 0.14 -0.28 0.18-0.56 0.37-0.87 0.55 -0.05 0.03-0.08 0.06-0.13 0.09 -0.26 0.15-0.56 0.31-0.86 0.48 -0.21 0.12-0.4 0.23-0.62 0.35 -0.05 0.03-0.09 0.04-0.14 0.07 -17.51 9.55-86.89 44.63-95.7 48.41C108.58 234.44 87 215.89 100.16 208.72z"/>
    <path d="M121.68 292.19c0.01 0.01 0.02 0.02 0.04 0.03 4.09 2.22 92.92 14.15 109.51 16.37 0.76 0.24 1.64 0.38 2.66 0.35 13.9-0.29 42.61-19.34 23.96-24.34 -0.07-0.02-0.16-0.04-0.23-0.06 -0.32-0.08-0.65-0.16-1-0.24 -0.06-0.01-0.1-0.02-0.15-0.04 -0.3-0.05-0.62-0.11-0.97-0.17 -0.24-0.04-0.45-0.09-0.7-0.13 -0.05-0.01-0.1-0.01-0.16-0.02 -19.67-3.33-96.68-13.96-106.24-14.67C121.28 265.14 106.91 289.69 121.68 292.19z"/>
    <path d="M76.17 295.96c0.02 0 0.03 0 0.04 0 4.59-0.72 82.44-45.14 96.97-53.44 0.75-0.27 1.53-0.69 2.33-1.33 10.87-8.67 22.13-41.23 4.28-33.89 -0.07 0.03-0.15 0.06-0.23 0.09 -0.31 0.13-0.62 0.26-0.94 0.42 -0.05 0.02-0.09 0.04-0.14 0.06 -0.27 0.14-0.56 0.29-0.87 0.45 -0.21 0.11-0.41 0.2-0.64 0.32 -0.05 0.03-0.09 0.06-0.14 0.08 -17.65 9.28-85.32 47.58-93.35 52.81C59.43 274.7 62.91 302.94 76.17 295.96z"/>
    <path d="M274.52 298.09c-0.01 0.01-0.01 0.03-0.02 0.04 -3.12 3.44-82.97 44.14-97.89 51.73 -0.64 0.48-1.42 0.9-2.39 1.21 -13.22 4.33-46.61-4.12-30.68-15.02 0.06-0.05 0.14-0.09 0.2-0.14 0.28-0.19 0.56-0.37 0.87-0.56 0.05-0.03 0.08-0.05 0.13-0.08 0.26-0.15 0.56-0.31 0.86-0.48 0.21-0.12 0.4-0.24 0.62-0.36 0.05-0.02 0.1-0.04 0.14-0.07 17.45-9.66 86.59-45.21 95.37-49.05C265.92 272.43 287.63 290.82 274.52 298.09z"/>
    <path d="M258.07 266.83c0.02 0 0.03 0 0.04 0 4.61-0.58 83.76-42.64 98.53-50.51 0.76-0.25 1.55-0.65 2.36-1.26 11.13-8.34 23.36-40.54 5.29-33.74 -0.07 0.02-0.15 0.06-0.23 0.09 -0.31 0.12-0.62 0.24-0.95 0.39 -0.05 0.02-0.09 0.03-0.14 0.06 -0.27 0.13-0.57 0.27-0.89 0.43 -0.22 0.11-0.42 0.19-0.65 0.31 -0.05 0.02-0.09 0.05-0.14 0.08 -17.92 8.75-86.71 44.99-94.89 49.98C241.98 245.07 244.6 273.4 258.07 266.83z"/>
    <path d="M47.34 305.77c0.01 0 0.02 0.01 0.04 0.02 4.53 1.02 93.27-11.59 109.84-13.96 0.8 0.03 1.68-0.08 2.65-0.38 13.31-4.06 35.77-30.17 16.46-29.93 -0.08 0-0.17 0-0.24 0 -0.33 0.01-0.67 0.02-1.03 0.04 -0.06 0.01-0.1 0-0.16 0.01 -0.3 0.03-0.63 0.06-0.98 0.1 -0.24 0.03-0.46 0.04-0.71 0.07 -0.05 0.01-0.1 0.02-0.15 0.03 -19.83 2.13-96.84 12.79-106.23 14.7C39.61 279.84 32.44 307.37 47.34 305.77z"/>
    <path d="M181.6 212.3c-0.01-0.01-0.02-0.02-0.04-0.03 -4.2-1.98-93.57-8.89-110.25-10.16 -0.77-0.2-1.65-0.28-2.67-0.2 -13.86 1.08-41.45 21.71-22.55 25.65 0.08 0.02 0.16 0.03 0.24 0.05 0.33 0.06 0.66 0.13 1.01 0.18 0.06 0.01 0.1 0.02 0.15 0.03 0.3 0.04 0.63 0.08 0.98 0.12 0.24 0.03 0.46 0.07 0.71 0.09 0.05 0.01 0.1 0.01 0.16 0.01 19.82 2.22 97.32 8.49 106.9 8.66C183.52 239.29 196.49 213.97 181.6 212.3z"/>
    <path d="M289.37 265.35c-0.01-0.01-0.01-0.03-0.02-0.04 -2.7-3.78-77.29-53.48-91.22-62.75 -0.58-0.55-1.31-1.06-2.23-1.48 -12.62-5.84-46.77-1.32-32.22 11.36 0.06 0.05 0.13 0.11 0.19 0.16 0.26 0.22 0.51 0.43 0.79 0.66 0.05 0.03 0.07 0.06 0.12 0.1 0.24 0.18 0.52 0.37 0.8 0.58 0.2 0.14 0.37 0.28 0.58 0.43 0.04 0.03 0.09 0.06 0.13 0.08 16.21 11.62 80.75 54.97 89.03 59.8C277.85 289.84 301.54 274.09 289.37 265.35z"/>
    <path d="M208.1 240.15c0.01 0 0.02 0.02 0.04 0.02 4.41 1.48 93.97-2.04 110.69-2.71 0.79 0.11 1.68 0.09 2.68-0.11 13.65-2.68 38.65-26.38 19.42-28.1 -0.08-0.01-0.17-0.01-0.24-0.02 -0.33-0.03-0.67-0.05-1.03-0.07 -0.06 0-0.1-0.01-0.15-0.01 -0.3 0-0.64 0-0.98 0 -0.24 0-0.46-0.01-0.72-0.01 -0.05 0-0.1 0.01-0.16 0.01 -19.94 0.1-97.64 2.88-107.18 3.82C203.05 213.56 193.11 240.22 208.1 240.15z"/>
    <path d="M235.44 345.27c0.02 0 0.03 0.01 0.05 0.01 4.64 0.28 90.19-26.44 106.16-31.44 0.79-0.1 1.64-0.35 2.56-0.8 12.48-6.14 30.45-35.53 11.44-32.19 -0.08 0.01-0.17 0.03-0.24 0.04 -0.33 0.06-0.66 0.13-1.01 0.21 -0.05 0.01-0.1 0.02-0.15 0.03 -0.29 0.08-0.61 0.17-0.95 0.25 -0.23 0.06-0.45 0.11-0.69 0.18 -0.05 0.02-0.1 0.04-0.15 0.05 -19.23 5.29-93.52 28.2-102.49 31.6C223.65 320.91 220.99 349.24 235.44 345.27z"/>
    <path d="M72.35 207.54c0.01-0.02 0-0.03 0-0.04 0.9-4.56 48.39-80.58 57.27-94.76 0.3-0.74 0.76-1.5 1.42-2.27 9.1-10.52 42.08-20.47 34.03-2.92 -0.03 0.07-0.07 0.15-0.1 0.22 -0.14 0.3-0.29 0.61-0.45 0.93 -0.02 0.05-0.04 0.09-0.07 0.14 -0.15 0.26-0.31 0.55-0.48 0.86 -0.12 0.21-0.22 0.41-0.35 0.63 -0.03 0.05-0.06 0.09-0.09 0.13 -9.98 17.27-50.94 83.35-56.48 91.17C92.93 225.11 64.85 220.51 72.35 207.54z"/>
    <path d="M242.55 278.34c0.01 0.01 0.02 0.02 0.04 0.03 4.09 2.22 92.92 14.15 109.51 16.37 0.76 0.24 1.64 0.38 2.66 0.35 13.9-0.29 42.61-19.34 23.96-24.34 -0.07-0.02-0.16-0.04-0.23-0.06 -0.32-0.08-0.65-0.17-1-0.24 -0.06-0.01-0.1-0.02-0.15-0.04 -0.3-0.05-0.63-0.11-0.97-0.17 -0.24-0.04-0.45-0.09-0.71-0.13 -0.05-0.01-0.1-0.01-0.15-0.02 -19.67-3.33-96.68-13.96-106.24-14.67C242.15 251.29 227.77 275.84 242.55 278.34z"/>
    <path d="M229.59 310.84c-0.01 0.01-0.01 0.03-0.02 0.04 -3.06 3.5-82.15 45.65-96.93 53.51 -0.63 0.49-1.4 0.92-2.37 1.26 -13.13 4.57-46.68-3.27-30.95-14.46 0.06-0.05 0.14-0.09 0.2-0.14 0.28-0.19 0.55-0.38 0.86-0.58 0.05-0.03 0.08-0.06 0.13-0.09 0.26-0.15 0.55-0.32 0.85-0.5 0.21-0.12 0.39-0.24 0.62-0.37 0.05-0.03 0.09-0.04 0.14-0.07 17.27-9.98 85.75-46.79 94.46-50.79C220.53 285.34 242.57 303.34 229.59 310.84z"/>
    <path d="M229.16 145.87c0.01 0.01 0.01 0.03 0.02 0.04 2.78 3.73 78.41 51.83 92.54 60.8 0.59 0.54 1.33 1.03 2.26 1.44 12.74 5.57 46.79 0.32 31.97-12.04 -0.06-0.05-0.13-0.1-0.19-0.16 -0.26-0.21-0.52-0.42-0.81-0.64 -0.05-0.03-0.08-0.06-0.12-0.1 -0.25-0.17-0.52-0.36-0.81-0.56 -0.2-0.14-0.37-0.27-0.58-0.41 -0.04-0.03-0.09-0.05-0.13-0.08 -16.45-11.28-81.9-53.23-90.28-57.89C240.15 121.15 216.8 137.4 229.16 145.87z"/>
    <path d="M187.27 237.22c-0.01-0.01-0.02-0.02-0.03-0.03 -4.07-2.23-92.84-14.62-109.42-16.92 -0.76-0.24-1.63-0.38-2.65-0.37 -13.91 0.22-42.71 19.12-24.09 24.22 0.07 0.02 0.16 0.04 0.24 0.07 0.32 0.09 0.65 0.17 1 0.25 0.06 0.01 0.1 0.03 0.15 0.04 0.3 0.06 0.63 0.11 0.97 0.18 0.24 0.04 0.45 0.1 0.71 0.13 0.05 0.01 0.1 0.01 0.16 0.02 19.65 3.43 96.61 14.45 106.17 15.21C187.53 264.27 202.03 239.8 187.27 237.22z"/>
    <path d="M413.59 236.27c-0.02 0-0.03-0.01-0.04-0.01 -4.65 0.04-88.14 32.63-103.73 38.72 -0.78 0.16-1.61 0.46-2.49 0.98 -12.02 6.99-27.91 37.56-9.18 32.9 0.08-0.01 0.16-0.04 0.24-0.06 0.32-0.08 0.65-0.17 0.99-0.27 0.05-0.02 0.1-0.02 0.15-0.04 0.29-0.1 0.6-0.21 0.93-0.32 0.23-0.08 0.44-0.14 0.68-0.23 0.05-0.02 0.1-0.04 0.15-0.06 18.82-6.61 91.35-34.61 100.05-38.62C427.05 259.75 427.73 231.3 413.59 236.27z"/>
    <rect x="145.71" y="217.21" transform="matrix(0.2095 0.9778 -0.9778 0.2095 381.2043 49.3167)" width="28.78" height="86.43"/>
    <path d="M175.84 262.72c-4.07-0.56-8.17-1.07-12.28-1.25 -1.74-0.08-3.49-0.15-5.23-0.13 -0.57 0.01-4.28 0.27-3.37 0.12 -12.69 1.51-24.88 4.73-37.01 8.43l2.93 13.66 78.24-16.76C191.36 265.39 183.64 263.8 175.84 262.72z"/>
    <path d="M92.8 275.54c-0.97-4.12 7.79-16.7 21.47-20.02 13.68-3.32 27.47 5.5 28.06 8.01 0.59 2.5-7.79 16.7-21.47 20.02C107.18 286.87 93.77 279.66 92.8 275.54z"/>
    <path d="M96.58 274.63c-0.73-3.09 6.92-12.81 18.51-15.62 11.59-2.81 23.02 3.56 23.46 5.44 0.44 1.89-6.92 12.81-18.51 15.63S97.31 277.72 96.58 274.63z"/>
    <path d="M106.66 275.29c2-1.11 3.99-2.24 5.92-3.47 0.58-0.37 4.35-2.95 4.01-2.66 2.62-1.92 5.22-3.87 7.77-5.88 1.63-1.28 3.26-2.57 4.89-3.85 -4.09-1.13-9.11-1.65-14.16-0.42 -11.59 2.81-19.24 12.53-18.51 15.62 0.26 1.11 1.85 2.47 4.3 3.64C102.83 277.33 104.77 276.34 106.66 275.29z"/>
    <path d="M177.87 257.32c-0.97-4.12 7.79-16.7 21.47-20.02 13.68-3.32 27.47 5.5 28.06 8.01 0.59 2.51-7.79 16.7-21.47 20.02C192.25 268.64 178.84 261.44 177.87 257.32z"/>
    <path d="M193.78 269.59c-0.09-3.62 11.11-12.6 25.18-12.93 14.07-0.34 25.17 7.78 25.76 11.72 0.59 3.94-11.11 12.6-25.18 12.93C205.47 281.64 193.86 273.21 193.78 269.59z"/>
    <polygon points="231.04 258.43 131.8 229.85 112.8 252.02 210.92 280.45 "/>
    <path d="M195.9 276.1c-1.08-0.86-2.15-1.72-3.24-2.56 -0.88-0.69-1.77-1.37-2.67-2.04 -0.13-0.09-0.24-0.18-0.39-0.28 -1.51-1.07-3.01-2.15-4.55-3.18 -3.1-2.08-6.23-4.13-9.45-6.02 -14.15-8.27-28.88-15.84-43.73-22.78 -1.94-0.9-3.88-1.8-5.83-2.67l-13.25 15.46L195.9 276.1z"/>
    <path d="M131.8 229.85l-4.39 5.12c5.79 1.76 11.49 3.96 17.23 6.27 2.91 1.17 5.8 2.37 8.72 3.53 0.4 0.16 1.52 0.57 2.28 0.85 0.4 0.14 0.79 0.29 1.19 0.42 5.84 1.95 11.84 3.19 17.9 4.25 11.87 2.08 23.69 3.96 35.05 7.81h0c1.24 0.42 2.47 0.87 3.69 1.34 0.24 0.09 0.48 0.19 0.72 0.28 1.22 0.48 9.06 3.66 14.2 5.83 5.14 2.16 15.41 1.74 15.99 1.84 -1.33-2.75-6.36-6.67-13.35-8.94l0.01-0.01 -0.4-0.11c-0.41-0.13-0.83-0.24-1.26-0.36L131.8 229.85z"/>
    <path d="M97.12 241.52c-0.09-3.62 11.11-12.6 25.18-12.93 14.07-0.33 25.96 7.7 25.76 11.72 -0.2 4.02-11.11 12.6-25.18 12.93C108.81 253.57 97.2 245.14 97.12 241.52z"/>
    <path d="M101 241.43c-0.07-2.72 9.45-9.5 21.37-9.78 11.92-0.29 21.68 4.27 21.81 8.75 0.13 4.48-9.44 9.49-21.37 9.78C110.89 250.46 101.06 244.15 101 241.43z"/>
    <path d="M110.16 234.23c2.61 1.3 5.25 2.53 7.94 3.64 0.74 0.26 3.81 1.39 4.64 1.67 2.06 0.69 4.12 1.36 6.19 1.98 3.61 1.07 7.25 2.08 10.91 2.98 0.5 0.12 1 0.23 1.49 0.36 1.83-1.42 2.88-2.96 2.84-4.45 -0.13-4.48-9.89-9.04-21.81-8.75C117.81 231.76 113.61 232.82 110.16 234.23z"/>
    <path d="M351.28 356.66c-0.09-3.62 11.11-12.6 25.18-12.93 14.07-0.34 25.17 7.78 25.76 11.72 0.59 3.94-11.11 12.6-25.18 12.93C362.98 368.71 351.37 360.28 351.28 356.66z"/>
    <polygon points="388.55 345.5 289.31 316.91 270.3 339.09 368.43 367.51 "/>
    <path d="M353.41 363.16c-1.08-0.86-2.15-1.72-3.24-2.56 -0.88-0.69-1.77-1.37-2.67-2.04 -0.13-0.09-0.24-0.18-0.39-0.28 -1.51-1.07-3.01-2.15-4.55-3.18 -3.1-2.08-6.23-4.13-9.45-6.02 -14.15-8.27-28.88-15.84-43.73-22.78 -1.94-0.9-3.88-1.8-5.83-2.68l-13.25 15.46L353.41 363.16z"/>
    <path d="M289.31 316.91l-4.39 5.12c5.79 1.76 11.49 3.96 17.23 6.27 2.91 1.17 5.8 2.37 8.72 3.53 0.4 0.16 1.52 0.57 2.28 0.85 0.4 0.14 0.79 0.29 1.19 0.42 5.84 1.95 11.84 3.19 17.9 4.25 11.87 2.08 23.69 3.96 35.05 7.81h0c1.24 0.42 2.47 0.87 3.69 1.33 0.24 0.09 0.48 0.19 0.72 0.28 1.22 0.48 9.06 3.66 14.2 5.83 5.14 2.16 15.41 1.74 15.99 1.84 -1.33-2.75-6.36-6.67-13.35-8.94l0.01-0.01 -0.4-0.11c-0.41-0.13-0.83-0.25-1.26-0.36L289.31 316.91z"/>
    <path d="M254.62 328.59c-0.09-3.62 11.11-12.6 25.18-12.93s25.96 7.7 25.76 11.72c-0.2 4.02-11.11 12.6-25.18 12.93C266.32 340.64 254.71 332.21 254.62 328.59z"/>
    <path d="M258.5 328.5c-0.07-2.72 9.45-9.5 21.37-9.78 11.92-0.28 21.68 4.27 21.81 8.75 0.13 4.48-9.44 9.49-21.37 9.78C268.39 337.53 258.57 331.22 258.5 328.5z"/>
    <path d="M267.67 321.3c2.61 1.3 5.25 2.53 7.94 3.64 0.74 0.26 3.81 1.39 4.64 1.67 2.06 0.69 4.12 1.36 6.19 1.98 3.61 1.08 7.25 2.08 10.91 2.98 0.5 0.12 1 0.23 1.49 0.36 1.83-1.42 2.88-2.96 2.84-4.45 -0.13-4.48-9.89-9.04-21.81-8.75C275.32 318.83 271.12 319.88 267.67 321.3z"/>
    <rect x="126.21" y="108.42" transform="matrix(-0.4825 0.8759 -0.8759 -0.4825 341.2534 101.6449)" width="28.78" height="86.43"/>
    <path d="M150.98 163.69c-2.71-3.1-5.47-6.16-8.46-8.99 -1.27-1.2-2.53-2.4-3.87-3.53 -0.43-0.37-3.41-2.6-2.62-2.12 -10.57-7.18-21.89-12.73-33.48-17.89l-6.74 12.24 70.09 38.6C160.95 175.87 156.16 169.61 150.98 163.69z"/>
    <path d="M79.86 118.96c1.97-3.74 16.83-7.51 29.34-1.05 12.51 6.45 17.15 22.15 15.95 24.43 -1.2 2.28-16.83 7.51-29.33 1.05C83.3 136.94 77.89 122.71 79.86 118.96z"/>
    <path d="M83.31 120.74c1.48-2.81 13.63-5.14 24.22 0.33 10.6 5.47 15.06 17.77 14.16 19.49 -0.9 1.72-13.62 5.15-24.22-0.33C86.87 134.76 81.83 123.56 83.31 120.74z"/>
    <path d="M90.49 127.85c2.24 0.47 4.48 0.92 6.75 1.26 0.67 0.1 5.22 0.62 4.77 0.62 3.24 0.27 6.48 0.49 9.73 0.65 2.07 0.1 4.14 0.2 6.21 0.3 -2.35-3.54-5.8-7.22-10.42-9.6 -10.6-5.47-22.74-3.14-24.22-0.33 -0.53 1-0.22 3.07 0.86 5.57C86.26 126.88 88.37 127.4 90.49 127.85z"/>
    <path d="M156.06 160.94c1.97-3.74 16.83-7.51 29.34-1.05 12.51 6.46 17.14 22.15 15.95 24.43 -1.2 2.28-16.83 7.51-29.33 1.05C159.5 178.91 154.09 164.68 156.06 160.94z"/>
    <path d="M201.49 183.77c0.47-3.56-4.33-17.81-16.09-23.89l-75.71-41.7 -1.24 2.25C140.63 139.75 170.26 162.95 201.49 183.77z"/>
    <polygon points="297.92 160.81 191.82 122.94 199.82 157.85 303.8 194.99 "/>
    <path d="M264.16 180.84c-2.41-4.46-6.57-5.03-17.06-19.28 -10.49-14.25-8.55-19.08-13.6-23.74l-41.68-14.88 8.01 34.92L264.16 180.84z"/>
    <path d="M214.42 160.35c-2.75 2.36-16.78-0.63-25.95-11.3 -9.17-10.68-8.91-25.93-7.24-27.36s16.78 0.63 25.95 11.31C216.35 143.67 217.17 157.99 214.42 160.35z"/>
    <path d="M211.89 157.41c-2.06 1.77-13.33-1.3-21.1-10.35 -7.77-9.05-8.29-21.35-7.03-22.42 1.26-1.08 13.33 1.3 21.1 10.35C212.63 144.03 213.96 155.63 211.89 157.41z"/>
    <path d="M193.55 126.71c0.75 3.49 8.46 18.85 5.41 27.26 5.9 3.61 11.53 4.64 12.93 3.44 2.07-1.77 0.74-13.37-7.03-22.42C201.49 131.06 197.31 128.39 193.55 126.71z"/>
    <path d="M316.37 196.55c-2.75 2.36-16.78-0.63-25.95-11.31 -9.17-10.68-8.91-25.92-7.24-27.36 1.67-1.43 16.79 0.63 25.95 11.31C318.3 179.86 319.12 194.19 316.37 196.55z"/>
    <path d="M297.92 160.81c-2.53-1.2-5.01-2.03-7.19-2.57l-47.11-16.82c0.07 0.09 0.15 0.17 0.23 0.27 2.12 2.52 4.28 5.01 6.6 7.35 2.72 2.75 5.52 5.42 8.57 7.79 0.1 0.07 0.18 0.14 0.25 0.18 1.14 0.78 2.27 1.57 3.43 2.33 11.02 7.26 22.66 13.73 34.87 18.75 0.8 0.33 1.6 0.65 2.4 0.98 1.41 0.5 2.82 1.01 4.25 1.46 2.88 0.92 5.77 1.8 8.71 2.51 1.27 0.31 2.56 0.6 3.84 0.87 -1.22-4.74-3.63-10.09-7.62-14.73C305.86 165.37 301.83 162.66 297.92 160.81L297.92 160.81z"/>
    <path opacity="0.3" d="M428.88 248.46c-0.01-0.01-0.02-0.01-0.03-0.02 -0.09-0.06-0.2-0.11-0.31-0.17 -0.03-0.01-0.05-0.03-0.08-0.04 -0.1-0.05-0.22-0.1-0.33-0.15 -0.04-0.02-0.08-0.04-0.12-0.05 -0.11-0.05-0.23-0.1-0.36-0.14 -0.05-0.02-0.11-0.04-0.16-0.06 -0.12-0.04-0.25-0.09-0.38-0.13 -0.06-0.02-0.13-0.04-0.2-0.07 -0.13-0.04-0.27-0.08-0.41-0.13 -0.08-0.02-0.15-0.04-0.23-0.07 -0.14-0.04-0.28-0.08-0.43-0.12 -0.09-0.02-0.18-0.05-0.27-0.07 -0.14-0.04-0.29-0.07-0.44-0.1 -0.1-0.02-0.21-0.05-0.31-0.07 -0.15-0.03-0.3-0.06-0.45-0.09 -0.11-0.02-0.23-0.04-0.35-0.07 -0.15-0.03-0.3-0.06-0.46-0.08 -0.13-0.02-0.26-0.04-0.39-0.06 -0.15-0.02-0.31-0.05-0.47-0.07 -0.05-0.01-0.11-0.02-0.16-0.02 1.29-7.34-2.07-12.81-8.93-10.4 -0.02 0-0.03-0.01-0.04-0.01 -2.61 0.02-30.15 10.34-56.54 20.44 -2.03-1.31-4.09-2.64-6.16-3.98l0.07-12.39c0.68-1.53 1.18-3.04 1.5-4.49 6.07 0.14 10.87 0.25 13.65 0.31 0.78 0.15 1.67 0.19 2.68 0.06 13.79-1.84 40.2-23.95 21.11-26.85 -0.07-0.02-0.17-0.02-0.24-0.04 -0.33-0.05-0.66-0.09-1.02-0.13 -0.06 0-0.1-0.01-0.16-0.02 -0.3-0.02-0.63-0.04-0.98-0.06 -0.24-0.02-0.46-0.04-0.71-0.05 -0.05 0-0.1 0-0.16 0 -4.34-0.25-11.42-0.53-19.94-0.83 4.44-5.59 6.16-12.55 6.51-18.15 0.53-2.94 0.48-5.49-0.35-7.23 -0.27-1.37-0.64-2.31-1.03-2.65 -1.53-1.33-12-1.05-20.86 4.35 -1.02-6.4-4.26-12.02-7.48-15.93l5.7-10.55 9.2-16.82c1.94-2.45 3.65-5.36 4.77-8.67 3.91-11.62-1.08-24.02-4.48-25.26 -2.54-0.93-9.5 2.43-14.49 9.02l0 0 -0.01 0.01c-1.57 2.07-2.93 4.47-3.91 7.15l-24.99 45.73c-1.75-1.13-3.51-2.26-5.26-3.39l13.52-40.28 0 0 3.46-10.32c0.57-1.41 1.08-2.91 1.51-4.48l0.01-0.03 0 0c0.71-2.67 1.17-5.56 1.22-8.57 0.26-14.07-7.9-26.12-11.86-25.7 -2.73 0.3-7.63 5.47-10.51 13.25l0 0.01c-0.27 0.72-0.51 1.46-0.74 2.22l-17.75 53.15 -1.85-11.91c-0.59-6.34-2.72-11.07-4.64-11.8 -1.91-0.73-6.63 1.37-11.28 5.69 -0.47 0.44-0.93 0.89-1.4 1.37 -0.18 0.19-0.35 0.39-0.53 0.58 -0.3 0.32-0.6 0.65-0.89 0.99 -0.19 0.22-0.38 0.46-0.57 0.69 -0.28 0.34-0.55 0.67-0.82 1.02 -0.19 0.25-0.37 0.5-0.56 0.75 -0.26 0.36-0.52 0.73-0.78 1.11 -0.17 0.26-0.35 0.52-0.52 0.79 -0.25 0.4-0.5 0.81-0.74 1.23 -0.15 0.27-0.31 0.53-0.46 0.8 -0.04 0.08-0.09 0.15-0.13 0.23 -0.03-0.02-0.05-0.02-0.07-0.04 -3.12-2.08-8.96-4.54-8.96-4.54s-1.16 5.54-1.56 7.42c-3.34 15.86-6.25 29.7-10.09 47.93s-22.93 25.96-29.15 35.48 -4.12 18.81-1.03 24.36 2.91 16.66 0.73 25.9c-1.91 8.1-28.66 62.54-35.26 75.91 7.26-3.69 23.39-11.92 40.43-20.73l8.73 5.41c-0.72 2.58-0.83 4.97-0.39 6.94 -9.14 15.08-16.22 27.16-16.57 28.89 0 0.02 0 0.03 0 0.04 -7.5 12.98 20.58 17.57 34.69-5.93 1.29-1.81 4.49-6.77 8.76-13.53l15.47 9.68c2.3 1.97 5.04 3.78 8.17 5.13 10.97 4.72 22.78 1.75 24-1.07 0.33-0.76 0.12-2.09-0.55-3.71 2.48-1.83 5.41-5.37 7.58-9.98l44.86 13 0 0 10.42 3.02c1.45 0.52 2.98 0.97 4.59 1.33l0.01 0h0c2.7 0.6 5.6 0.93 8.61 0.86 14.07-0.33 25.77-8.99 25.18-12.93 -0.41-2.71-5.78-7.39-13.67-9.94l0 0 -0.1-0.03c-0.69-0.22-1.4-0.43-2.13-0.61l-62.34-17.96c5.64 0.12 12.62-1.25 18.7-5.31l67.7-42.65h0l4.67-2.94c0.42-0.25 0.83-0.51 1.24-0.78 11.7-7.82 14.69-24.03 13.28-26.18C429.44 248.85 429.2 248.66 428.88 248.46zM240.57 317.34l-0.38-0.24c0.34-0.18 0.68-0.35 1.01-0.53 0.08 0.08 0.17 0.16 0.25 0.24C241.15 316.98 240.86 317.16 240.57 317.34zM279.7 341.81l4.13 1.2c0.14 0.57 0.3 1.13 0.47 1.68L279.7 341.81zM311.77 323.39l0-0.26c0.46-0.14 0.92-0.28 1.38-0.43 0.1 0.4 0.24 0.75 0.42 1.02 0.05 0.08 0.12 0.16 0.19 0.24L311.77 323.39z"/>
    <polygon points="192.08 311.47 270.62 360.6 293.13 350.21 215.39 301.6 "/>
    <path d="M243.03 320.2c1.52 2.06 3.06 4.09 4.64 6.1 0.36 0.43 1.66 2.02 1.84 2.23 0.96 1.13 1.92 2.27 2.91 3.38 4.24 4.77 8.71 9.31 13.57 13.44 0.01 0.01 0.01 0.01 0.02 0.02 5.7 3.11 11.38 6.26 16.99 9.53l10.14-4.68 -51.86-32.43C241.85 318.59 242.43 319.4 243.03 320.2z"/>
    <path d="M301.51 363.86c-1.22 2.82-13.03 5.79-24 1.07 -10.97-4.72-17.31-15.12-15.73-18.16 1.57-3.03 13.03-5.79 24-1.07C296.75 350.42 302.73 361.04 301.51 363.86z"/>
    <path d="M224.78 316.04c-1.21 2.83-13.03 5.79-24 1.07 -10.97-4.72-16.67-14.9-15.73-18.15 0.94-3.25 13.03-5.79 24-1.07C220.02 302.61 226 313.22 224.78 316.04z"/>
    <path d="M193.61 312.77l59.96 37.15c-4.43-9.99-35.56-29.64-38.15-48.31l-0.02-0.02 0 0c-1.87-1.42-3.99-2.7-6.34-3.71 -10.97-4.72-23.06-2.18-24 1.07C184.35 301.4 187.39 307.76 193.61 312.77z"/>
    <path d="M298.49 362.56c-0.91 2.12-10.65 3.98-19.94-0.01 -9.3-4-15.22-10.97-13.73-14.47 1.49-3.5 10.65-3.98 19.95 0.02C294.05 352.09 299.4 360.43 298.49 362.56z"/>
    <path d="M289.36 357.4c0.64 2.49 1.22 4.98 1.85 7.46 3.93-0.18 6.8-1.2 7.27-2.3 0.86-2.01-3.87-9.57-12.24-13.77C287.5 351.61 288.61 354.47 289.36 357.4z"/>
    <rect x="311.58" y="188.54" transform="matrix(0.7412 0.6713 -0.6713 0.7412 239.9258 -158.8409)" width="28.78" height="86.43"/>
    <path d="M340.09 224.43c-3.64 1.92-7.26 3.9-10.7 6.16 -1.46 0.96-2.92 1.91-4.32 2.95 -0.46 0.34-3.32 2.72-2.67 2.07 -9.42 8.63-17.43 18.37-25.12 28.47l10.35 9.38 53.71-59.31C354.25 217.53 347.05 220.75 340.09 224.43z"/>
    <path d="M280.19 283.34c-3.19-2.77-3.43-18.11 5.73-28.79 9.16-10.68 25.51-11.58 27.45-9.89 1.94 1.69 3.43 18.11-5.73 28.79C298.47 284.13 283.38 286.12 280.19 283.34z"/>
    <path d="M282.71 280.39c-2.4-2.09-1.87-14.44 5.9-23.49 7.77-9.06 20.77-10.56 22.23-9.29 1.46 1.27 1.87 14.44-5.9 23.5C297.17 280.16 285.12 282.48 282.71 280.39z"/>
    <path d="M291.28 275.04c0.98-2.07 1.93-4.15 2.78-6.28 0.25-0.63 1.8-4.93 1.7-4.5 1.01-3.09 1.97-6.19 2.87-9.31 0.57-1.99 1.15-3.98 1.72-5.98 -3.98 1.47-8.36 3.98-11.74 7.93 -7.76 9.05-8.3 21.41-5.9 23.49 0.86 0.75 2.94 0.93 5.62 0.44C289.37 278.93 290.36 277 291.28 275.04z"/>
    <path d="M338.59 218.85c-3.19-2.78-3.43-18.11 5.73-28.79 9.16-10.68 25.51-11.58 27.45-9.89 1.94 1.69 3.43 18.11-5.73 28.79C356.87 219.65 341.78 221.63 338.59 218.85z"/>
    <rect x="245.71" y="206.57" transform="matrix(-0.0974 0.9952 -0.9952 -0.0974 534.0204 15.2409)" width="28.78" height="86.43"/>
    <path d="M274.4 256.75c-3.71-1.77-7.46-3.5-11.32-4.92 -1.64-0.6-3.28-1.21-4.95-1.71 -0.55-0.16-4.16-1.04-3.25-0.91 -12.55-2.42-25.14-3.05-37.83-3.21l-1.36 13.9 79.64 7.79C288.37 264.01 281.5 260.15 274.4 256.75z"/>
    <path d="M191.39 243.75c0.33-4.22 12.5-13.55 26.53-12.55 14.04 0.99 24.5 13.58 24.3 16.15 -0.2 2.57-12.5 13.55-26.53 12.55S191.06 247.97 191.39 243.75z"/>
    <path d="M195.26 244.02c0.25-3.17 10.49-10.1 22.38-9.26 11.9 0.84 20.85 10.38 20.7 12.31 -0.15 1.93-10.49 10.11-22.38 9.27C204.07 255.49 195.02 247.19 195.26 244.02z"/>
    <path d="M204.67 247.71c2.24-0.45 4.48-0.92 6.7-1.51 0.66-0.17 5.04-1.49 4.63-1.31 3.08-1.03 6.15-2.1 9.19-3.24 1.94-0.73 3.88-1.46 5.82-2.18 -3.56-2.32-8.18-4.34-13.37-4.7 -11.9-0.84-22.14 6.1-22.38 9.26 -0.09 1.13 1.01 2.91 2.99 4.78C200.4 248.49 202.55 248.14 204.67 247.71z"/>
    <path d="M277.98 252.22c0.33-4.22 12.5-13.55 26.54-12.55 14.04 0.99 24.5 13.58 24.3 16.15 -0.2 2.57-12.5 13.55-26.53 12.55C288.24 267.38 277.65 256.44 277.98 252.22z"/>
    <rect x="56.7" y="94.17" transform="matrix(1 0.0059 -0.0059 1 0.8169 -0.4197)" width="28.78" height="86.43"/>
    <path d="M76.73 122.51c-1.43 3.86-2.81 7.75-3.86 11.73 -0.45 1.69-0.9 3.37-1.25 5.08 -0.11 0.56-0.66 4.24-0.61 3.32 -1.26 12.72-0.74 25.31 0.27 37.96l13.97 0.08 0.48-80.01C82.68 107.93 79.46 115.13 76.73 122.51z"/>
    <path d="M71.37 206.36c-4.23 0.06-14.63-11.21-14.93-25.27 -0.3-14.07 11.29-25.64 13.86-25.67 2.57-0.04 14.63 11.21 14.93 25.28C85.53 194.76 75.6 206.3 71.37 206.36z"/>
    <path d="M71.29 202.48c-3.18 0.05-11.02-9.52-11.27-21.44 -0.25-11.93 8.43-21.72 10.37-21.74 1.94-0.03 11.02 9.52 11.27 21.44C81.91 192.66 74.47 202.43 71.29 202.48z"/>
    <path d="M74.1 192.77c-0.65-2.19-1.33-4.38-2.11-6.53 -0.23-0.64-1.95-4.88-1.73-4.49 -1.31-2.97-2.66-5.93-4.07-8.86 -0.9-1.87-1.8-3.73-2.7-5.6 -1.99 3.76-3.57 8.54-3.46 13.74 0.25 11.92 8.09 21.49 11.27 21.44 1.14-0.02 2.81-1.27 4.48-3.41C75.27 196.95 74.72 194.85 74.1 192.77z"/>
    <path d="M71.89 119.36c-4.23 0.06-14.63-11.21-14.93-25.28 -0.29-14.07 11.29-25.64 13.86-25.67 2.57-0.04 14.63 11.21 14.93 25.28C86.04 107.76 76.12 119.3 71.89 119.36z"/>
    <rect x="192.26" y="237.31" transform="matrix(0.2095 0.9778 -0.9778 0.2095 437.6577 19.6923)" width="28.78" height="86.43"/>
    <path d="M222.39 282.82c-4.07-0.56-8.17-1.07-12.28-1.25 -1.74-0.07-3.49-0.15-5.23-0.13 -0.57 0.01-4.28 0.27-3.37 0.12 -12.69 1.51-24.88 4.73-37.01 8.43l2.93 13.66 78.24-16.76C237.9 285.49 230.18 283.9 222.39 282.82z"/>
    <path d="M139.35 295.64c-0.97-4.12 7.79-16.7 21.47-20.02 13.68-3.32 27.47 5.5 28.06 8.01 0.59 2.5-7.79 16.7-21.47 20.02C153.73 306.97 140.32 299.76 139.35 295.64z"/>
    <path d="M143.13 294.73c-0.73-3.09 6.92-12.81 18.51-15.62 11.59-2.81 23.02 3.56 23.46 5.44 0.44 1.88-6.92 12.81-18.51 15.63C155 302.98 143.85 297.83 143.13 294.73z"/>
    <path d="M153.21 295.39c2-1.11 3.99-2.24 5.92-3.47 0.58-0.37 4.35-2.95 4.01-2.66 2.62-1.92 5.22-3.87 7.77-5.88 1.63-1.28 3.26-2.57 4.89-3.85 -4.09-1.13-9.11-1.65-14.16-0.42 -11.59 2.81-19.24 12.53-18.51 15.62 0.26 1.11 1.85 2.47 4.3 3.64C149.38 297.43 151.32 296.44 153.21 295.39z"/>
    <path d="M224.42 277.42c-0.97-4.12 7.79-16.7 21.47-20.02 13.68-3.32 27.47 5.5 28.06 8.01 0.59 2.51-7.79 16.7-21.47 20.02C238.8 288.74 225.39 281.54 224.42 277.42z"/>
    <polygon points="107.39 271.35 45.21 177.39 30.67 210.13 91.58 302.22 "/>
    <path d="M40.85 220.89c-3.61 0.24-13.05-10.57-13.98-24.61 -0.93-14.04 8.42-26.09 10.63-26.23 2.2-0.15 13.05 10.57 13.98 24.61C52.4 208.7 44.47 220.65 40.85 220.89z"/>
    <path d="M40.6 217.01c-2.72 0.18-9.88-9.04-10.67-20.94 -0.79-11.9 6.17-22.05 7.83-22.16 1.65-0.11 9.88 9.04 10.67 20.94C49.21 206.76 43.31 216.84 40.6 217.01z"/>
    <path d="M48.15 192.41c-1.63-10.68-8.85-18.6-10.39-18.5 -1.49 0.1-7.3 8.37-7.84 18.72C35.99 192.38 42.07 192.28 48.15 192.41z"/>
    <path d="M100.71 311.01c-3.61 0.24-13.05-10.57-13.98-24.61 -0.93-14.04 8.42-26.09 10.62-26.23 2.2-0.15 13.05 10.57 13.98 24.61C112.26 298.82 104.32 310.77 100.71 311.01z"/>
    <path d="M111.33 284.78c-0.33-5.02-1.93-9.6-3.95-13.43v0l0 0c-1.31-2.48-2.79-4.63-4.21-6.37l-25.11-37.95c1.84 12.59 0.91 24.55 1.04 37.19 0.02 1.77 0.05 3.53 0.22 5.29 0.1 0.9 0.15 1.45 0.16 1.65 0.26 1.76 0.52 3.51 0.78 5.27 0.53 3.61 1.05 7.22 1.43 10.84l9.9 14.96c3.18 5.52 7.09 8.92 9.13 8.79C104.32 310.77 112.26 298.82 111.33 284.78z"/>
    <polygon points="134.51 100.25 156.75 201.1 185.3 207.22 163.45 107.43 "/>
    <path d="M166.8 122.7c-0.24 1.35-0.48 2.71-0.7 4.06 -0.18 1.11-0.35 2.21-0.52 3.32 -0.02 0.15-0.04 0.3-0.06 0.48 -0.22 1.84-0.45 3.67-0.62 5.51 -0.35 3.72-0.66 7.44-0.77 11.18 -0.51 16.38-0.14 32.94 0.85 49.3 0.13 2.13 0.27 4.27 0.43 6.4l19.91 4.26L166.8 122.7z"/>
    <path d="M183.56 226.01c-3.14 1.8-16.37-3.75-23.38-15.95 -7.01-12.2-5.62-26.49-2-28.23 3.63-1.75 16.37 3.75 23.38 15.95C188.57 209.98 186.7 224.21 183.56 226.01z"/>
    <path d="M162.09 127.68c-3.14 1.81-16.37-3.75-23.38-15.95 -7.01-12.2-5.18-25.83-2-28.23s16.37 3.75 23.38 15.95C167.1 111.64 165.24 125.87 162.09 127.68z"/>
    <path d="M181.62 222.64c-2.36 1.36-12.85-3.77-18.79-14.11 -5.94-10.34-6.59-21.09-2.72-23.34 3.88-2.25 12.85 3.77 18.79 14.11C184.85 209.64 183.99 221.29 181.62 222.64z"/>
    <path d="M170.93 218.03c-0.1-2.91-0.29-5.82-0.59-8.72 -0.13-0.77-0.59-4.01-0.75-4.87 -0.38-2.13-0.77-4.26-1.22-6.38 -0.78-3.69-1.63-7.36-2.59-11.01 -0.13-0.49-0.27-0.99-0.4-1.48 -2.12-0.94-3.98-1.12-5.27-0.37 -3.88 2.25-3.22 13 2.72 23.34C165.1 212.49 168.04 215.67 170.93 218.03z"/>
    <polygon points="145.78 151.45 95.04 241.4 112.23 265.01 162.55 176.11 "/>
    <path d="M154.85 189.72c-1.08 0.85-2.17 1.69-3.23 2.56 -0.87 0.7-1.74 1.41-2.6 2.13 -0.12 0.1-0.23 0.19-0.36 0.31 -1.39 1.22-2.79 2.43-4.14 3.69 -2.74 2.53-5.46 5.11-8.04 7.81 -11.31 11.86-22.09 24.44-32.27 37.28 -1.33 1.68-2.64 3.36-3.95 5.05l11.98 16.46L154.85 189.72z"/>
    <path d="M98.39 277.84c-3.54-0.75-9.69-13.72-6.77-27.48 2.92-13.76 13.49-23.48 17.35-22.36s9.69 13.72 6.77 27.48C112.82 269.25 101.93 278.6 98.39 277.84z"/>
    <path d="M148.02 190.28c-3.54-0.75-9.69-13.72-6.77-27.48 2.92-13.76 13.38-22.69 17.35-22.36s9.69 13.72 6.77 27.48C162.45 181.68 151.57 191.04 148.02 190.28z"/>
    <path d="M99.2 274.05c-2.66-0.56-7.06-11.38-4.58-23.05 2.48-11.67 9.16-20.11 13.55-19.2 4.39 0.91 7.06 11.38 4.58 23.05C110.27 266.51 101.86 274.61 99.2 274.05z"/>
    <path d="M94.31 263.47c1.87-2.24 3.67-4.53 5.38-6.89 0.42-0.66 2.23-3.38 2.7-4.13 1.14-1.84 2.27-3.69 3.35-5.57 1.88-3.27 3.7-6.57 5.42-9.92 0.23-0.45 0.46-0.91 0.69-1.37 -0.95-2.11-2.21-3.49-3.67-3.79 -4.39-0.91-11.08 7.53-13.55 19.2C93.67 255.45 93.73 259.78 94.31 263.47z"/>
    <rect x="167.57" y="263.52" transform="matrix(0.9065 0.4222 -0.4222 0.9065 146.5093 -48.1463)" width="28.79" height="86.43"/>
    <path d="M193.28 295.56c-2.9 2.91-5.78 5.88-8.4 9.05 -1.11 1.35-2.23 2.69-3.26 4.1 -0.34 0.46-2.37 3.58-1.94 2.76 -6.45 11.03-11.22 22.7-15.58 34.62l12.67 5.9 33.78-72.54C204.77 284.79 198.84 289.99 193.28 295.56z"/>
    <path d="M153.47 369.55c-3.87-1.71-8.63-16.29-3.03-29.2 5.6-12.91 20.94-18.6 23.3-17.56 2.36 1.04 8.63 16.29 3.04 29.2C171.17 364.9 157.34 371.26 153.47 369.55z"/>
    <path d="M155.01 365.99c-2.91-1.28-6.05-13.25-1.31-24.19 4.74-10.94 16.72-16.23 18.49-15.44 1.77 0.78 6.05 13.25 1.31 24.19C168.76 361.49 157.92 367.27 155.01 365.99z"/>
    <path d="M161.61 358.34c0.32-2.27 0.62-4.54 0.8-6.82 0.06-0.68 0.26-5.25 0.3-4.8 0.05-3.25 0.06-6.5-0.01-9.75 -0.04-2.07-0.08-4.14-0.13-6.22 -3.37 2.59-6.81 6.28-8.87 11.05 -4.74 10.94-1.6 22.9 1.31 24.19 1.04 0.46 3.08 0.02 5.5-1.24C160.94 362.62 161.31 360.48 161.61 358.34z"/>
    <path d="M190.2 290.68c-3.87-1.71-8.63-16.29-3.03-29.2 5.6-12.91 20.94-18.6 23.3-17.56 2.36 1.04 8.63 16.29 3.04 29.2C207.9 286.03 194.07 292.39 190.2 290.68z"/>
    <rect x="219.99" y="114.92" transform="matrix(0.9786 0.2059 -0.2059 0.9786 37.5822 -44.8717)" width="28.79" height="86.43"/>
    <path d="M242.88 144.69c-2.17 3.49-4.3 7.03-6.13 10.72 -0.78 1.56-1.56 3.13-2.24 4.73 -0.23 0.52-1.5 4.02-1.26 3.13 -3.78 12.21-5.79 24.65-7.34 37.25l13.67 2.88 16.48-78.3C251.62 131.6 247.03 138 242.88 144.69z"/>
    <path d="M220.85 225.77c-4.15-0.79-12.09-13.91-9.57-27.75 2.53-13.84 16.19-22.86 18.72-22.38 2.53 0.48 12.09 13.91 9.57 27.75C237.04 217.23 225.01 226.56 220.85 225.77z"/>
    <path d="M221.55 221.95c-3.12-0.59-8.9-11.53-6.75-23.26 2.14-11.73 12.61-19.59 14.51-19.23 1.9 0.36 8.9 11.53 6.75 23.27C233.92 214.46 224.67 222.54 221.55 221.95z"/>
    <path d="M226.25 213c-0.2-2.28-0.43-4.56-0.76-6.82 -0.1-0.68-0.93-5.17-0.8-4.75 -0.68-3.18-1.42-6.34-2.21-9.49 -0.51-2.01-1.02-4.02-1.53-6.03 -2.7 3.28-5.21 7.66-6.14 12.77 -2.14 11.73 3.63 22.67 6.75 23.26 1.12 0.21 3.01-0.68 5.08-2.45C226.56 217.33 226.44 215.16 226.25 213z"/>
    <path d="M238.77 140.63c-4.15-0.79-12.09-13.91-9.56-27.75 2.53-13.84 16.19-22.86 18.72-22.38 2.53 0.48 12.09 13.91 9.57 27.75C254.96 132.1 242.92 141.42 238.77 140.63z"/>
    <rect x="95" y="196.89" transform="matrix(1 0.0059 -0.0059 1 1.4275 -0.6452)" width="28.78" height="86.43"/>
    <path d="M115.02 225.23c-1.43 3.86-2.81 7.75-3.86 11.73 -0.45 1.69-0.9 3.37-1.25 5.08 -0.11 0.56-0.66 4.24-0.61 3.32 -1.26 12.72-0.74 25.31 0.27 37.96l13.97 0.08 0.48-80.01C120.97 210.65 117.75 217.85 115.02 225.23z"/>
    <path d="M109.66 309.08c-4.23 0.06-14.63-11.21-14.93-25.27 -0.3-14.07 11.29-25.64 13.86-25.67 2.57-0.04 14.63 11.21 14.93 25.28C123.82 297.48 113.89 309.02 109.66 309.08z"/>
    <path d="M109.58 305.2c-3.18 0.05-11.02-9.52-11.27-21.44 -0.25-11.93 8.43-21.72 10.37-21.74 1.94-0.03 11.02 9.52 11.27 21.44C120.2 295.38 112.76 305.15 109.58 305.2z"/>
    <path d="M112.4 295.49c-0.65-2.19-1.33-4.38-2.11-6.53 -0.23-0.64-1.95-4.88-1.73-4.49 -1.31-2.97-2.66-5.93-4.07-8.86 -0.9-1.87-1.8-3.73-2.7-5.6 -1.99 3.76-3.57 8.54-3.46 13.74 0.25 11.92 8.09 21.49 11.27 21.44 1.14-0.02 2.81-1.27 4.48-3.41C113.56 299.67 113.01 297.57 112.4 295.49z"/>
    <path d="M110.18 222.08c-4.23 0.06-14.63-11.21-14.93-25.28 -0.29-14.07 11.29-25.64 13.86-25.67 2.57-0.04 14.63 11.21 14.93 25.28C124.34 210.48 114.41 222.02 110.18 222.08z"/>
    <path d="M108.56 171.26c-3.36 1.29-13.59 12.31-13.31 25.54l-0.51 86.43 2.56 0.02C98.93 245.75 105.17 208.64 108.56 171.26z"/>
    <rect x="357.18" y="243.16" transform="matrix(0.533 0.8461 -0.8461 0.533 415.8445 -180.6498)" width="28.78" height="86.43"/>
    <path d="M387.14 283.12c-4.02 0.87-8.04 1.8-11.97 3.05 -1.66 0.53-3.33 1.06-4.96 1.68 -0.53 0.2-3.93 1.73-3.13 1.27 -11.4 5.78-21.74 12.99-31.86 20.65l7.45 11.82 67.7-42.65C402.62 280.3 394.83 281.46 387.14 283.12z"/>
    <path d="M313.58 323.72c-2.33-3.53 1.57-18.36 13.28-26.18 11.7-7.82 27.68-4.28 29.1-2.13 1.41 2.15-1.57 18.36-13.28 26.18C330.97 329.41 315.9 327.25 313.58 323.72z"/>
    <path d="M316.8 321.56c-1.75-2.65 2.09-14.41 12.01-21.04 9.92-6.63 22.84-4.57 23.9-2.96 1.06 1.62-2.09 14.41-12.01 21.04C330.79 325.23 318.55 324.22 316.8 321.56z"/>
    <path d="M326.5 318.71c1.5-1.73 2.98-3.48 4.37-5.3 0.42-0.54 3.07-4.27 2.85-3.87 1.81-2.7 3.57-5.43 5.28-8.19 1.09-1.76 2.18-3.53 3.27-5.29 -4.23 0.35-9.12 1.59-13.44 4.47 -9.92 6.62-13.76 18.38-12.01 21.04 0.62 0.95 2.58 1.68 5.29 1.94C323.61 321.94 325.08 320.35 326.5 318.71z"/>
    <path d="M387.19 277.35c-2.32-3.53 1.58-18.36 13.28-26.18 11.7-7.82 27.68-4.28 29.1-2.13 1.42 2.15-1.57 18.36-13.28 26.18C404.58 283.04 389.51 280.88 387.19 277.35z"/>
    <path d="M429.16 248.64c-2.89-2.14-17.68-4.83-28.69 2.52l-73.13 46.07 1.37 2.17C361.18 280.59 395.83 265.9 429.16 248.64z"/>
    <rect x="322.19" y="188.55" transform="matrix(1 0.006 -0.006 1 1.3899 -2.0057)" width="28.78" height="86.43"/>
    <path d="M342.21 216.89c-1.43 3.86-2.81 7.75-3.86 11.73 -0.45 1.69-0.9 3.37-1.25 5.08 -0.11 0.56-0.66 4.24-0.61 3.32 -1.26 12.72-0.74 25.31 0.27 37.96l13.97 0.08 0.48-80.01C348.16 202.31 344.94 209.51 342.21 216.89z"/>
    <path d="M336.86 300.74c-4.23 0.06-14.63-11.21-14.93-25.27 -0.3-14.07 11.29-25.64 13.86-25.67 2.57-0.04 14.63 11.21 14.93 25.28C351.01 289.13 341.08 300.68 336.86 300.74z"/>
    <path d="M336.77 296.85c-3.18 0.05-11.02-9.52-11.27-21.44 -0.25-11.93 8.43-21.72 10.37-21.74 1.94-0.03 11.02 9.52 11.27 21.44C347.39 287.04 339.95 296.81 336.77 296.85z"/>
    <path d="M339.59 287.15c-0.65-2.19-1.33-4.38-2.11-6.53 -0.23-0.64-1.95-4.88-1.73-4.49 -1.31-2.98-2.66-5.93-4.07-8.86 -0.9-1.87-1.8-3.73-2.7-5.6 -1.99 3.76-3.57 8.55-3.46 13.74 0.25 11.92 8.09 21.49 11.27 21.44 1.14-0.02 2.81-1.27 4.48-3.41C340.75 291.33 340.2 289.22 339.59 287.15z"/>
    <path d="M337.37 213.74c-4.23 0.06-14.63-11.21-14.93-25.27 -0.29-14.07 11.29-25.64 13.86-25.67 2.57-0.04 14.63 11.21 14.93 25.28C351.53 202.14 341.6 213.68 337.37 213.74z"/>
    <path d="M335.75 162.92c-3.36 1.29-13.59 12.31-13.31 25.54l-0.51 86.43 2.56 0.02C326.12 237.41 332.37 200.3 335.75 162.92z"/>
    <rect x="283.17" y="249.33" transform="matrix(1 0.006 -0.006 1 1.7522 -1.7716)" width="28.78" height="86.43"/>
    <path d="M303.2 277.67c-1.43 3.86-2.81 7.75-3.86 11.73 -0.45 1.69-0.9 3.37-1.25 5.08 -0.11 0.56-0.66 4.24-0.61 3.32 -1.26 12.72-0.74 25.31 0.27 37.96l13.97 0.08 0.48-80.01C309.15 263.09 305.93 270.29 303.2 277.67z"/>
    <path d="M297.84 361.52c-4.23 0.06-14.63-11.21-14.93-25.27 -0.3-14.07 11.29-25.64 13.86-25.67 2.57-0.04 14.63 11.21 14.93 25.28C311.99 349.91 302.07 361.46 297.84 361.52z"/>
    <path d="M297.76 357.64c-3.18 0.05-11.02-9.52-11.27-21.44 -0.25-11.93 8.43-21.72 10.37-21.74 1.94-0.03 11.02 9.52 11.27 21.44C308.38 347.82 300.94 357.59 297.76 357.64z"/>
    <path d="M300.57 347.93c-0.65-2.19-1.33-4.38-2.11-6.53 -0.23-0.64-1.95-4.88-1.73-4.49 -1.31-2.98-2.66-5.93-4.07-8.86 -0.9-1.87-1.8-3.73-2.7-5.6 -1.99 3.76-3.57 8.55-3.46 13.74 0.25 11.92 8.09 21.49 11.27 21.44 1.14-0.02 2.81-1.27 4.48-3.41C301.74 352.11 301.19 350.01 300.57 347.93z"/>
    <path d="M298.36 274.52c-4.23 0.06-14.63-11.21-14.93-25.27 -0.29-14.07 11.29-25.64 13.86-25.67 2.57-0.04 14.63 11.21 14.93 25.28C312.51 262.92 302.59 274.46 298.36 274.52z"/>
    <path d="M296.74 223.7c-3.36 1.29-13.59 12.31-13.31 25.54l-0.51 86.43 2.56 0.02C287.1 298.19 293.35 261.08 296.74 223.7z"/>
    <path d="M236.54 225.91c-3.14 1.81-16.37-3.75-23.38-15.95 -7.01-12.2-5.18-25.83-2-28.23 3.18-2.4 16.37 3.75 23.38 15.95C241.55 209.88 239.69 224.11 236.54 225.91z"/>
    <polygon points="208.95 198.49 231.2 299.34 259.75 305.46 237.9 205.66 "/>
    <path d="M241.25 220.94c-0.24 1.35-0.48 2.71-0.7 4.06 -0.18 1.11-0.35 2.21-0.52 3.32 -0.02 0.15-0.04 0.3-0.06 0.48 -0.22 1.84-0.45 3.67-0.62 5.51 -0.35 3.72-0.66 7.44-0.77 11.18 -0.51 16.38-0.14 32.94 0.85 49.3 0.13 2.13 0.27 4.27 0.43 6.4l19.91 4.26L241.25 220.94z"/>
    <path d="M231.2 299.34l6.6 1.41c-1.22-5.93-2.01-11.98-2.71-18.13 -0.36-3.11-0.69-6.23-1.06-9.35 -0.05-0.42-0.22-1.61-0.34-2.41 -0.07-0.42-0.13-0.83-0.2-1.25 -1.07-6.06-2.85-11.93-4.81-17.76 -3.84-11.42-7.82-22.71-9.86-34.53l0 0c-0.22-1.29-0.41-2.58-0.59-3.88 -0.03-0.26-0.06-0.51-0.1-0.77 -0.16-1.29-1.1-9.71-1.66-15.26s-5.83-14.37-6.02-14.93c-1.78 2.48-2.83 8.77-1.48 16l-0.02 0 0.09 0.4c0.08 0.42 0.18 0.85 0.28 1.28L231.2 299.34z"/>
    <path d="M258.01 324.25c-3.14 1.81-16.37-3.75-23.38-15.95 -7.01-12.2-5.62-26.49-2-28.23 3.63-1.75 16.37 3.75 23.38 15.95C263.02 308.22 261.15 322.45 258.01 324.25z"/>
    <path d="M256.07 320.88c-2.36 1.36-12.85-3.77-18.79-14.11 -5.94-10.34-6.59-21.09-2.72-23.34 3.88-2.25 12.85 3.77 18.79 14.11C259.29 307.89 258.44 319.53 256.07 320.88z"/>
    <path d="M245.38 316.27c-0.1-2.91-0.29-5.82-0.59-8.72 -0.13-0.77-0.59-4.01-0.75-4.87 -0.38-2.13-0.77-4.27-1.22-6.38 -0.78-3.69-1.63-7.36-2.59-11.01 -0.13-0.49-0.27-0.99-0.4-1.48 -2.12-0.94-3.98-1.12-5.27-0.37 -3.88 2.25-3.22 13 2.72 23.34C239.55 310.72 242.49 313.91 245.38 316.27z"/>
    <path d="M315.6 129.67c-3.62-0.06-12.12-11.63-11.86-25.69 0.25-14.07 8.82-24.82 12.79-25.25 3.96-0.43 12.12 11.63 11.86 25.7C328.14 118.48 319.23 129.73 315.6 129.67z"/>
    <polygon points="306.02 91.97 273.3 189.92 294.66 209.83 327.17 112.99 "/>
    <path d="M322.2 127.82c-0.9 1.04-1.8 2.07-2.69 3.13 -0.72 0.86-1.44 1.72-2.15 2.58 -0.1 0.12-0.19 0.23-0.3 0.38 -1.14 1.46-2.27 2.92-3.37 4.41 -2.21 3.01-4.39 6.05-6.41 9.19 -8.85 13.79-17.04 28.19-24.59 42.74 -0.99 1.9-1.96 3.8-2.92 5.71l14.89 13.88L322.2 127.82z"/>
    <path d="M273.3 189.92l4.93 4.6c2-5.71 4.43-11.31 6.98-16.95 1.29-2.86 2.61-5.7 3.89-8.56 0.17-0.39 0.64-1.49 0.95-2.24 0.16-0.39 0.32-0.78 0.47-1.17 2.19-5.75 3.68-11.7 4.99-17.71 2.58-11.77 4.95-23.5 9.27-34.69v0c0.47-1.22 0.97-2.43 1.49-3.63 0.1-0.24 0.21-0.47 0.31-0.71 0.53-1.19 4.04-8.9 6.42-13.94 2.38-5.05 2.38-15.32 2.51-15.9 -2.81 1.22-6.94 6.07-9.49 12.97l-0.01-0.01 -0.13 0.39c-0.14 0.41-0.28 0.82-0.41 1.24L273.3 189.92z"/>
    <path d="M283.51 225.06c-3.62-0.06-12.12-11.63-11.86-25.7 0.25-14.07 8.78-25.61 12.79-25.25 4.01 0.36 12.12 11.63 11.86 25.7C296.04 213.88 287.13 225.13 283.51 225.06z"/>
    <path d="M283.58 221.18c-2.72-0.05-9.09-9.84-8.88-21.76 0.21-11.92 5.18-21.48 9.66-21.42 4.48 0.06 9.09 9.84 8.87 21.76C293.02 211.68 286.31 221.23 283.58 221.18z"/>
    <path d="M276.78 211.72c1.41-2.55 2.74-5.14 3.97-7.78 0.29-0.73 1.55-3.74 1.86-4.56 0.77-2.02 1.53-4.06 2.23-6.1 1.23-3.57 2.38-7.15 3.44-10.77 0.14-0.49 0.28-0.98 0.42-1.48 -1.34-1.89-2.84-3-4.33-3.02 -4.48-0.06-9.44 9.5-9.66 21.42C274.62 203.98 275.51 208.22 276.78 211.72z"/>
    <polygon points="259.69 154.63 277.05 265.95 303.91 242.25 286.93 133.15 "/>
    <path d="M293.4 174.74c-2.77 4.25-1.29 8.18-8.8 24.2 -7.52 16.02-12.69 16.62-14.37 23.28l6.82 43.73 26.87-23.7L293.4 174.74z"/>
    <path d="M299.14 228.23c3.39 1.29 7.46 15.05 2.45 28.2 -5.01 13.15-18.53 20.2-20.59 19.42 -2.06-0.78-7.46-15.05-2.45-28.2S295.75 226.94 299.14 228.23z"/>
    <path d="M297.76 231.86c2.54 0.97 5.22 12.34 0.97 23.48 -4.25 11.15-14.8 17.47-16.35 16.88 -1.55-0.59-5.22-12.33-0.97-23.48C285.65 237.59 295.21 230.89 297.76 231.86z"/>
    <path d="M279.54 262.62c2.71-2.33 12.53-16.43 21.37-17.76 0.35-6.9-1.42-12.35-3.15-13 -2.54-0.97-12.1 5.73-16.35 16.88C279.57 253.57 279.22 258.52 279.54 262.62z"/>
    <path d="M282.29 121.36c3.39 1.29 7.46 15.05 2.45 28.2 -5.01 13.15-18.53 20.2-20.59 19.42s-7.46-15.05-2.45-28.2C266.71 127.63 278.91 120.07 282.29 121.36z"/>
    <path d="M259.69 154.63c0.16 2.8 0.6 5.37 1.18 7.55l7.71 49.42c0.04-0.1 0.08-0.21 0.13-0.33 1.2-3.06 2.36-6.15 3.32-9.31 1.12-3.7 2.13-7.44 2.76-11.25 0.02-0.12 0.03-0.23 0.04-0.31 0.14-1.37 0.29-2.74 0.41-4.12 1.12-13.14 1.25-26.46-0.16-39.59 -0.09-0.86-0.19-1.72-0.29-2.57 -0.23-1.48-0.46-2.96-0.74-4.43 -0.56-2.96-1.17-5.93-1.95-8.85 -0.34-1.27-0.69-2.53-1.06-3.79 -3.59 3.34-7.13 8-9.31 13.73C259.91 145.47 259.45 150.31 259.69 154.63L259.69 154.63z"/>
    <polygon points="207.09 215.65 213.79 106.71 190.38 89.25 183.76 197.06 "/>
    <path d="M187.48 158c1.27-2.73 2.52-5.47 3.71-8.23 0.24-0.61 1.16-2.86 1.27-3.15 0.64-1.63 1.27-3.26 1.87-4.91 2.55-7.07 4.75-14.25 6.29-21.61 0-0.01 0-0.02 0.01-0.03 0.02-7.65 0.08-15.3 0.31-22.94l-10.55-7.87 -4.42 71.93C186.47 160.12 186.99 159.06 187.48 158z"/>
    <path d="M199.8 72.89c3.61-0.33 13.32 10.23 14.6 24.25 1.29 14.01-5.93 26.42-9.95 26.5 -4.02 0.08-13.32-10.23-14.6-24.24C188.57 85.38 196.19 73.22 199.8 72.89z"/>
    <path d="M193.44 179.22c3.61-0.33 13.32 10.23 14.6 24.25 1.29 14.01-6.06 25.64-9.95 26.5 -3.89 0.86-13.32-10.23-14.6-24.25C182.2 191.7 189.83 179.55 193.44 179.22z"/>
    <path d="M207.58 213.34l4.75-82.97c-7.86 10.21-10.69 53.48-28.57 66.67l-0.01 0.03 0 0c-0.42 2.73-0.55 5.65-0.28 8.65 1.28 14.01 10.71 25.1 14.6 24.25C201.01 229.31 205.89 222.59 207.58 213.34z"/>
    <path d="M200.16 76.76c2.71-0.25 10.11 8.78 11.2 20.66 1.09 11.88-2.8 21.92-7.26 22.35 -4.46 0.43-10.11-8.78-11.2-20.66S197.44 77.01 200.16 76.76z"/>
    <path d="M199.95 89.1c2.22-2.06 4.48-4.06 6.68-6.11 -2.39-3.97-5.07-6.36-6.47-6.23 -2.56 0.23-7.74 9.39-7.37 20.42C194.99 94.29 197.34 91.53 199.95 89.1z"/>
    <polygon points="285.77 278.34 292.48 169.4 269.07 151.94 262.45 259.76 "/>
    <path d="M266.17 220.69c1.27-2.73 2.52-5.47 3.71-8.23 0.24-0.61 1.16-2.86 1.27-3.15 0.64-1.63 1.27-3.27 1.87-4.91 2.55-7.07 4.75-14.25 6.29-21.61 0-0.01 0-0.02 0.01-0.03 0.02-7.65 0.08-15.3 0.31-22.94l-10.55-7.87 -4.42 71.93C265.16 222.81 265.68 221.76 266.17 220.69z"/>
    <path d="M278.49 135.59c3.61-0.33 13.32 10.23 14.6 24.25 1.29 14.01-5.93 26.42-9.95 26.5 -4.02 0.08-13.32-10.23-14.6-24.24C267.26 148.07 274.88 135.92 278.49 135.59z"/>
    <path d="M272.13 241.91c3.61-0.33 13.32 10.23 14.6 24.25 1.29 14.01-6.06 25.64-9.95 26.5 -3.89 0.86-13.32-10.23-14.6-24.25C260.89 254.4 268.52 242.24 272.13 241.91z"/>
    <path d="M286.27 276.03l4.75-82.97c-7.86 10.21-10.69 53.48-28.57 66.67l-0.01 0.03 0 0c-0.42 2.73-0.55 5.65-0.28 8.65 1.28 14.01 10.71 25.1 14.6 24.25C279.7 292.01 284.58 285.28 286.27 276.03z"/>
    <path d="M278.85 139.45c2.71-0.25 10.11 8.78 11.2 20.66 1.09 11.88-2.8 21.92-7.26 22.35s-10.11-8.78-11.2-20.66C270.5 149.93 276.13 139.7 278.85 139.45z"/>
    <path d="M278.64 151.8c2.22-2.06 4.48-4.06 6.68-6.11 -2.39-3.97-5.07-6.36-6.47-6.23 -2.56 0.24-7.74 9.39-7.37 20.42C273.68 156.98 276.02 154.22 278.64 151.8z"/>
    <polygon points="134.19 187.38 179.78 103.99 164.83 80.43 119.72 162.96 "/>
    <path d="M137.27 133.6c2.15-1.63 4.27-3.28 6.36-4.97 0.44-0.38 2.09-1.78 2.3-1.96 1.17-1.03 2.34-2.05 3.48-3.11 4.89-4.53 9.48-9.29 13.55-14.48 0.01-0.01 0.01-0.01 0.02-0.02 2.79-6.04 5.62-12.07 8.6-18.02l-6.74-10.62 -30.09 55.06C135.58 134.86 136.43 134.24 137.27 133.6z"/>
    <path d="M179.32 71.41c3.4 1.24 8.4 13.65 4.48 25.26 -3.91 11.62-14.97 18.43-18.65 16.81s-8.4-13.64-4.48-25.26C164.58 76.61 175.92 70.17 179.32 71.41z"/>
    <path d="M134.99 152.87c3.4 1.24 8.4 13.65 4.48 25.26 -3.91 11.62-14.8 17.76-18.65 16.81 -3.85-0.94-8.4-13.64-4.48-25.26C120.25 158.07 131.59 151.63 134.99 152.87z"/>
    <path d="M135.48 185.76l34.4-63.66c-10.84 4.8-29.11 37.86-50.14 40.84l-0.02 0.02 0 0c-1.37 1.99-2.55 4.24-3.39 6.73 -3.91 11.62 0.63 24.32 4.48 25.26C123.71 195.66 130.58 192.37 135.48 185.76z"/>
    <path d="M178.24 74.62c2.55 0.93 6.01 11.16 2.69 21.01 -3.31 9.85-10.49 16.17-14.7 14.66 -4.21-1.52-6.01-11.16-2.69-21.01C166.86 79.43 175.69 73.68 178.24 74.62z"/>
    <path d="M173.58 84.3c2.76-0.7 5.54-1.35 8.29-2.05 -0.74-4.14-2.3-7.14-3.62-7.63 -2.42-0.88-10.44 4.2-14.11 13.08C167.19 86.33 170.32 85.13 173.58 84.3z"/>
    <polygon points="313.46 223.26 359.06 139.87 344.11 116.31 299 198.84 "/>
    <path d="M316.55 169.48c2.15-1.63 4.27-3.28 6.36-4.97 0.44-0.38 2.09-1.78 2.3-1.96 1.17-1.03 2.34-2.05 3.48-3.11 4.89-4.53 9.48-9.29 13.55-14.48 0.01-0.01 0.01-0.01 0.02-0.02 2.79-6.04 5.62-12.07 8.6-18.02l-6.74-10.62 -30.09 55.06C314.86 170.74 315.71 170.12 316.55 169.48z"/>
    <path d="M358.6 107.29c3.4 1.24 8.4 13.65 4.48 25.26 -3.91 11.62-14.97 18.43-18.65 16.81s-8.4-13.64-4.48-25.26C343.86 112.49 355.2 106.05 358.6 107.29z"/>
    <path d="M314.26 188.75c3.4 1.24 8.4 13.65 4.48 25.26 -3.91 11.62-14.8 17.76-18.65 16.81 -3.85-0.94-8.4-13.64-4.48-25.26C299.53 193.95 310.87 187.51 314.26 188.75z"/>
    <path d="M314.76 221.64l34.4-63.66c-10.84 4.8-29.11 37.86-50.14 40.84L299 198.84l0 0c-1.37 1.99-2.55 4.24-3.39 6.73 -3.91 11.62 0.63 24.32 4.48 25.26C302.99 231.54 309.86 228.25 314.76 221.64z"/>
    <path d="M357.52 110.5c2.55 0.93 6.01 11.16 2.69 21.01 -3.31 9.85-10.49 16.17-14.7 14.66 -4.21-1.52-6.01-11.16-2.69-21.01C346.14 115.31 354.96 109.57 357.52 110.5z"/>
    <path d="M352.85 120.18c2.76-0.7 5.54-1.35 8.29-2.05 -0.74-4.14-2.3-7.14-3.62-7.63 -2.42-0.88-10.44 4.2-14.11 13.08C346.47 122.21 349.6 121.01 352.85 120.18z"/>
  </g>
  <path fill="#FFDC7B" d="M337.97 218.93c-0.02 0-0.03-0.01-0.04-0.01 -4.65 0.04-88.14 32.63-103.73 38.72 -0.78 0.16-1.61 0.46-2.49 0.98 -12.02 6.99-27.91 37.56-9.18 32.9 0.07-0.01 0.16-0.04 0.24-0.06 0.32-0.08 0.65-0.17 0.99-0.27 0.05-0.02 0.1-0.02 0.15-0.04 0.29-0.1 0.6-0.21 0.93-0.32 0.23-0.08 0.44-0.14 0.68-0.23 0.05-0.02 0.1-0.04 0.15-0.06 18.82-6.61 91.35-34.61 100.05-38.62C351.43 242.41 352.11 213.97 337.97 218.93z"/>
  <path fill="#FFDC7B" d="M291.67 251.62c-0.01-0.01-0.02-0.02-0.04-0.03 -4.07-2.24-92.84-14.62-109.42-16.92 -0.76-0.24-1.63-0.38-2.65-0.37 -13.91 0.23-42.71 19.12-24.09 24.22 0.07 0.02 0.16 0.04 0.24 0.06 0.32 0.09 0.65 0.17 1 0.25 0.06 0.01 0.1 0.03 0.15 0.04 0.3 0.06 0.63 0.11 0.97 0.18 0.24 0.04 0.45 0.1 0.71 0.13 0.05 0.01 0.1 0.01 0.16 0.02 19.65 3.43 96.61 14.45 106.17 15.21C291.93 278.68 306.43 254.2 291.67 251.62z"/>
  <path fill="#FFDC7B" d="M207.51 264.21c0.02 0 0.03 0 0.04 0 4.61-0.58 83.76-42.64 98.53-50.51 0.76-0.25 1.55-0.65 2.36-1.26 11.13-8.34 23.36-40.54 5.29-33.74 -0.07 0.02-0.15 0.06-0.23 0.09 -0.31 0.12-0.62 0.24-0.95 0.39 -0.05 0.02-0.09 0.03-0.14 0.06 -0.27 0.13-0.57 0.27-0.89 0.42 -0.22 0.11-0.42 0.19-0.65 0.31 -0.05 0.02-0.09 0.05-0.14 0.08 -17.92 8.75-86.71 44.99-94.89 49.98C191.42 242.45 194.04 270.78 207.51 264.21z"/>
  <path fill="#FFDC7B" d="M249.71 226.36c0.02 0.01 0.02 0.02 0.04 0.03 4.31 1.75 93.91 3.74 110.65 4.09 0.78 0.15 1.67 0.19 2.68 0.06 13.79-1.84 40.2-23.95 21.11-26.85 -0.07-0.02-0.17-0.02-0.24-0.04 -0.33-0.05-0.66-0.09-1.02-0.13 -0.06 0-0.1-0.01-0.16-0.02 -0.3-0.02-0.63-0.04-0.98-0.06 -0.24-0.02-0.46-0.04-0.71-0.05 -0.05 0-0.1 0-0.16 0 -19.91-1.13-97.63-3.13-107.21-2.77C246.31 199.51 234.75 225.51 249.71 226.36z"/>
  <path fill="#FFDC7B" d="M263.73 231.89c-0.01-0.01-0.02-0.02-0.04-0.03 -4.2-1.98-93.57-8.89-110.25-10.16 -0.77-0.2-1.65-0.28-2.67-0.2 -13.86 1.08-41.45 21.71-22.55 25.65 0.08 0.02 0.16 0.03 0.24 0.05 0.33 0.06 0.66 0.13 1.01 0.18 0.06 0.01 0.1 0.02 0.15 0.03 0.3 0.04 0.63 0.07 0.98 0.12 0.24 0.03 0.46 0.07 0.71 0.09 0.05 0.01 0.1 0.01 0.16 0.01 19.82 2.22 97.32 8.48 106.9 8.66C265.65 258.89 278.62 233.56 263.73 231.89z"/>
  <path fill="#FFDC7B" d="M207.82 241.23c-0.01-0.01-0.01-0.03-0.02-0.04 -2.7-3.78-77.28-53.48-91.22-62.75 -0.58-0.55-1.31-1.06-2.23-1.48 -12.62-5.84-46.77-1.32-32.21 11.36 0.06 0.05 0.13 0.11 0.18 0.16 0.26 0.22 0.51 0.43 0.79 0.66 0.05 0.03 0.08 0.06 0.12 0.1 0.24 0.18 0.52 0.37 0.8 0.58 0.2 0.14 0.37 0.28 0.58 0.43 0.04 0.03 0.09 0.05 0.13 0.08 16.21 11.62 80.75 54.97 89.03 59.8C196.3 265.72 219.99 249.97 207.82 241.23z"/>
  <path fill="#FFDC7B" d="M126.55 216.03c0.02 0 0.02 0.02 0.04 0.02 4.41 1.48 93.97-2.04 110.69-2.71 0.79 0.11 1.68 0.09 2.68-0.11 13.65-2.68 38.65-26.38 19.42-28.1 -0.08-0.01-0.17-0.01-0.24-0.02 -0.33-0.03-0.67-0.05-1.03-0.06 -0.05 0-0.1-0.01-0.15-0.01 -0.3 0-0.64 0-0.98 0 -0.24 0-0.46-0.01-0.72-0.01 -0.05 0-0.1 0.01-0.16 0.01 -19.94 0.1-97.64 2.88-107.18 3.82C121.5 189.44 111.56 216.1 126.55 216.03z"/>
  <path fill="#FFDC7B" d="M200.2 197.96c0.01 0.01 0.01 0.03 0.02 0.04 3.12 3.44 82.97 44.15 97.89 51.73 0.64 0.48 1.42 0.9 2.39 1.21 13.22 4.33 46.61-4.12 30.68-15.02 -0.06-0.05-0.14-0.09-0.2-0.14 -0.28-0.19-0.56-0.37-0.86-0.56 -0.05-0.03-0.08-0.05-0.13-0.08 -0.26-0.15-0.56-0.31-0.86-0.48 -0.21-0.12-0.39-0.24-0.62-0.36 -0.04-0.02-0.09-0.04-0.14-0.07 -17.45-9.66-86.59-45.21-95.37-49.05C208.79 172.3 187.09 190.69 200.2 197.96z"/>
  <path fill="#FFDC7B" d="M64.44 263.27c0.02 0 0.03-0.01 0.05-0.01 4.65 0.04 88.14 32.63 103.73 38.72 0.78 0.16 1.61 0.46 2.49 0.98 12.02 6.99 27.91 37.56 9.18 32.9 -0.07-0.01-0.16-0.04-0.24-0.06 -0.32-0.08-0.65-0.17-0.99-0.27 -0.05-0.02-0.1-0.02-0.15-0.04 -0.29-0.1-0.6-0.21-0.93-0.32 -0.23-0.08-0.44-0.14-0.68-0.23 -0.05-0.02-0.1-0.04-0.15-0.06 -18.82-6.61-91.35-34.61-100.05-38.62C50.98 286.75 50.29 258.31 64.44 263.27z"/>
  <path fill="#FFDC7B" d="M217.66 154.69c0.01 0 0.03-0.01 0.04-0.02 4.59-0.74 92.37 17.35 108.76 20.74 0.8 0.02 1.67 0.19 2.62 0.54 13.03 4.87 33.83 32.33 14.57 30.89 -0.07 0-0.16-0.02-0.24-0.02 -0.33-0.03-0.67-0.06-1.02-0.1 -0.06-0.01-0.1-0.01-0.16-0.02 -0.3-0.05-0.63-0.1-0.97-0.16 -0.24-0.04-0.46-0.06-0.71-0.11 -0.05-0.01-0.1-0.03-0.15-0.04 -19.66-3.35-95.86-18.77-105.12-21.26C208.34 180.1 202.88 152.17 217.66 154.69z"/>
  <path fill="#FFDC7B" d="M204.76 363.91c0.01-0.02 0-0.03 0-0.04 0.9-4.56 48.39-80.58 57.27-94.76 0.3-0.74 0.76-1.5 1.42-2.27 9.1-10.52 42.08-20.47 34.03-2.92 -0.03 0.07-0.07 0.15-0.1 0.22 -0.14 0.3-0.29 0.61-0.45 0.92 -0.03 0.05-0.04 0.09-0.07 0.14 -0.15 0.26-0.31 0.55-0.49 0.85 -0.12 0.21-0.22 0.41-0.35 0.63 -0.03 0.05-0.06 0.09-0.08 0.13 -9.98 17.27-50.94 83.35-56.48 91.17C225.34 381.49 197.26 376.89 204.76 363.91z"/>
  <path fill="#FFDC7B" d="M259.49 223.95c0.01 0.01 0.01 0.03 0.02 0.04 2.78 3.73 78.41 51.83 92.54 60.8 0.59 0.54 1.33 1.03 2.26 1.44 12.74 5.57 46.79 0.32 31.97-12.04 -0.06-0.05-0.13-0.1-0.19-0.16 -0.26-0.21-0.52-0.42-0.81-0.64 -0.04-0.03-0.08-0.06-0.12-0.1 -0.25-0.17-0.52-0.36-0.81-0.56 -0.2-0.14-0.37-0.27-0.59-0.41 -0.04-0.03-0.09-0.05-0.13-0.08 -16.45-11.28-81.9-53.23-90.28-57.89C270.48 199.23 247.13 215.48 259.49 223.95z"/>
  <path fill="#FFDC7B" d="M94.49 203.05c0.01-0.01 0.01-0.03 0.02-0.04 3.14-3.42 83.27-43.59 98.24-51.07 0.64-0.48 1.43-0.89 2.4-1.2 13.24-4.24 46.58 4.44 30.58 15.23 -0.06 0.05-0.14 0.09-0.2 0.14 -0.28 0.18-0.56 0.37-0.87 0.55 -0.05 0.03-0.08 0.06-0.13 0.09 -0.26 0.15-0.56 0.31-0.86 0.48 -0.21 0.12-0.4 0.23-0.62 0.35 -0.05 0.03-0.09 0.04-0.14 0.07 -17.51 9.55-86.89 44.63-95.7 48.41C102.91 228.77 81.33 210.22 94.49 203.05z"/>
  <path fill="#FFDC7B" d="M116.01 286.52c0.01 0.01 0.02 0.02 0.04 0.03 4.09 2.22 92.92 14.15 109.51 16.37 0.76 0.24 1.64 0.38 2.66 0.35 13.9-0.29 42.61-19.34 23.96-24.34 -0.07-0.02-0.16-0.04-0.23-0.06 -0.32-0.08-0.65-0.16-1-0.24 -0.06-0.01-0.1-0.02-0.15-0.04 -0.3-0.05-0.62-0.11-0.97-0.17 -0.24-0.04-0.45-0.09-0.7-0.13 -0.05-0.01-0.1-0.01-0.16-0.02 -19.67-3.33-96.68-13.96-106.24-14.67C115.61 259.47 101.24 284.02 116.01 286.52z"/>
  <path fill="#FFDC7B" d="M70.5 290.3c0.02 0 0.03 0 0.04 0 4.59-0.72 82.44-45.14 96.97-53.44 0.75-0.27 1.53-0.69 2.33-1.33 10.87-8.67 22.13-41.23 4.28-33.89 -0.07 0.03-0.15 0.06-0.23 0.09 -0.31 0.13-0.62 0.26-0.94 0.42 -0.05 0.02-0.09 0.04-0.14 0.06 -0.27 0.14-0.56 0.29-0.87 0.45 -0.21 0.11-0.41 0.2-0.64 0.32 -0.05 0.03-0.09 0.06-0.14 0.08 -17.65 9.28-85.32 47.58-93.35 52.81C53.77 269.03 57.24 297.27 70.5 290.3z"/>
  <path fill="#FFDC7B" d="M268.85 292.42c-0.01 0.01-0.01 0.03-0.02 0.04 -3.12 3.44-82.97 44.14-97.89 51.73 -0.64 0.48-1.42 0.9-2.39 1.21 -13.22 4.33-46.61-4.12-30.68-15.02 0.06-0.05 0.14-0.09 0.2-0.14 0.28-0.19 0.56-0.37 0.87-0.56 0.05-0.03 0.08-0.05 0.13-0.08 0.26-0.15 0.56-0.31 0.86-0.48 0.21-0.12 0.4-0.24 0.62-0.36 0.05-0.02 0.1-0.04 0.14-0.07 17.45-9.66 86.59-45.21 95.37-49.05C260.25 266.76 281.96 285.15 268.85 292.42z"/>
  <path fill="#EFB541" d="M252.4 261.16c0.02 0 0.03 0 0.04 0 4.61-0.58 83.76-42.64 98.53-50.51 0.76-0.25 1.55-0.65 2.36-1.26 11.13-8.34 23.36-40.54 5.29-33.74 -0.07 0.02-0.15 0.06-0.23 0.09 -0.31 0.12-0.62 0.24-0.95 0.39 -0.05 0.02-0.09 0.03-0.14 0.06 -0.27 0.13-0.57 0.27-0.89 0.43 -0.22 0.11-0.42 0.19-0.65 0.31 -0.05 0.02-0.09 0.05-0.14 0.08 -17.92 8.75-86.71 44.99-94.89 49.98C236.31 239.4 238.93 267.73 252.4 261.16z"/>
  <path fill="#EFB541" d="M41.67 300.1c0.01 0 0.02 0.01 0.04 0.02 4.53 1.02 93.27-11.59 109.84-13.96 0.8 0.03 1.68-0.08 2.65-0.38 13.31-4.06 35.77-30.17 16.46-29.93 -0.08 0-0.17 0-0.24 0 -0.33 0.01-0.67 0.02-1.03 0.04 -0.06 0.01-0.1 0-0.16 0.01 -0.3 0.03-0.63 0.06-0.98 0.1 -0.24 0.03-0.46 0.04-0.71 0.07 -0.05 0.01-0.1 0.02-0.15 0.03 -19.83 2.13-96.84 12.79-106.23 14.7C33.95 274.17 26.77 301.7 41.67 300.1z"/>
  <path fill="#EFB541" d="M175.93 206.63c-0.01-0.01-0.02-0.02-0.04-0.03 -4.2-1.98-93.57-8.89-110.25-10.16 -0.77-0.2-1.65-0.28-2.67-0.2 -13.86 1.08-41.45 21.71-22.55 25.65 0.08 0.02 0.16 0.03 0.24 0.05 0.33 0.06 0.66 0.13 1.01 0.18 0.06 0.01 0.1 0.02 0.15 0.03 0.3 0.04 0.63 0.08 0.98 0.12 0.24 0.03 0.46 0.07 0.71 0.09 0.05 0.01 0.1 0.01 0.16 0.01 19.82 2.22 97.32 8.49 106.9 8.66C177.85 233.62 190.82 208.3 175.93 206.63z"/>
  <path fill="#EFB541" d="M283.7 259.68c-0.01-0.01-0.01-0.03-0.02-0.04 -2.7-3.78-77.29-53.48-91.22-62.75 -0.58-0.55-1.31-1.06-2.23-1.48 -12.62-5.84-46.77-1.32-32.22 11.36 0.06 0.05 0.13 0.11 0.19 0.16 0.26 0.22 0.51 0.43 0.79 0.66 0.05 0.03 0.07 0.06 0.12 0.1 0.24 0.18 0.52 0.37 0.8 0.58 0.2 0.14 0.37 0.28 0.58 0.43 0.04 0.03 0.09 0.06 0.13 0.08 16.21 11.62 80.75 54.97 89.03 59.8C272.18 284.17 295.87 268.42 283.7 259.68z"/>
  <path fill="#EFB541" d="M202.43 234.48c0.01 0 0.02 0.02 0.04 0.02 4.41 1.48 93.97-2.04 110.69-2.71 0.79 0.11 1.68 0.09 2.68-0.11 13.65-2.68 38.65-26.38 19.42-28.1 -0.08-0.01-0.17-0.01-0.24-0.02 -0.33-0.03-0.67-0.05-1.03-0.07 -0.06 0-0.1-0.01-0.15-0.01 -0.3 0-0.64 0-0.98 0 -0.24 0-0.46-0.01-0.72-0.01 -0.05 0-0.1 0.01-0.16 0.01 -19.94 0.1-97.64 2.88-107.18 3.82C197.38 207.89 187.44 234.55 202.43 234.48z"/>
  <path fill="#EFB541" d="M229.77 339.6c0.02 0 0.03 0.01 0.05 0.01 4.64 0.28 90.19-26.44 106.16-31.44 0.79-0.1 1.64-0.35 2.56-0.8 12.48-6.14 30.45-35.53 11.44-32.19 -0.08 0.01-0.17 0.03-0.24 0.04 -0.33 0.06-0.66 0.13-1.01 0.21 -0.05 0.01-0.1 0.02-0.15 0.03 -0.29 0.08-0.61 0.17-0.95 0.25 -0.23 0.06-0.45 0.11-0.69 0.18 -0.05 0.02-0.1 0.04-0.15 0.05 -19.23 5.29-93.52 28.2-102.49 31.6C217.98 315.24 215.32 343.57 229.77 339.6z"/>
  <path fill="#EFB541" d="M66.68 201.87c0.01-0.02 0-0.03 0-0.04 0.9-4.56 48.39-80.58 57.27-94.76 0.3-0.74 0.76-1.5 1.42-2.27 9.1-10.52 42.08-20.47 34.03-2.92 -0.03 0.07-0.07 0.15-0.1 0.22 -0.14 0.3-0.29 0.61-0.45 0.93 -0.02 0.05-0.04 0.09-0.07 0.14 -0.15 0.26-0.31 0.55-0.48 0.86 -0.12 0.21-0.22 0.41-0.35 0.63 -0.03 0.05-0.06 0.09-0.09 0.13 -9.98 17.27-50.94 83.35-56.48 91.17C87.26 219.44 59.18 214.85 66.68 201.87z"/>
  <path fill="#EFB541" d="M236.88 272.68c0.01 0.01 0.02 0.02 0.04 0.03 4.09 2.22 92.92 14.15 109.51 16.37 0.76 0.24 1.64 0.38 2.66 0.35 13.9-0.29 42.61-19.34 23.96-24.34 -0.07-0.02-0.16-0.04-0.23-0.06 -0.32-0.08-0.65-0.17-1-0.24 -0.06-0.01-0.1-0.02-0.15-0.04 -0.3-0.05-0.63-0.11-0.97-0.17 -0.24-0.04-0.45-0.09-0.71-0.13 -0.05-0.01-0.1-0.01-0.15-0.02 -19.67-3.33-96.68-13.96-106.24-14.67C236.48 245.62 222.1 270.17 236.88 272.68z"/>
  <path fill="#EFB541" d="M223.92 305.17c-0.01 0.01-0.01 0.03-0.02 0.04 -3.06 3.5-82.15 45.65-96.93 53.51 -0.63 0.49-1.4 0.92-2.37 1.26 -13.13 4.57-46.68-3.27-30.95-14.46 0.06-0.05 0.14-0.09 0.2-0.14 0.28-0.19 0.55-0.38 0.86-0.58 0.05-0.03 0.08-0.06 0.13-0.09 0.26-0.15 0.55-0.32 0.85-0.5 0.21-0.12 0.39-0.24 0.62-0.37 0.05-0.03 0.09-0.04 0.14-0.07 17.27-9.98 85.75-46.79 94.46-50.79C214.86 279.67 236.9 297.67 223.92 305.17z"/>
  <path fill="#EFB541" d="M223.49 140.21c0.01 0.01 0.01 0.03 0.02 0.04 2.78 3.73 78.41 51.83 92.54 60.8 0.59 0.54 1.33 1.03 2.26 1.44 12.74 5.57 46.79 0.32 31.97-12.04 -0.06-0.05-0.13-0.1-0.19-0.16 -0.26-0.21-0.52-0.42-0.81-0.64 -0.05-0.03-0.08-0.06-0.12-0.1 -0.25-0.17-0.52-0.36-0.81-0.56 -0.2-0.14-0.37-0.27-0.58-0.41 -0.04-0.03-0.09-0.05-0.13-0.08 -16.45-11.28-81.9-53.23-90.28-57.89C234.48 115.48 211.13 131.73 223.49 140.21z"/>
  <path fill="#EFB541" d="M181.6 231.55c-0.01-0.01-0.02-0.02-0.03-0.03 -4.07-2.23-92.84-14.62-109.42-16.92 -0.76-0.24-1.63-0.38-2.65-0.37 -13.91 0.22-42.71 19.12-24.09 24.22 0.07 0.02 0.16 0.04 0.24 0.07 0.32 0.09 0.65 0.17 1 0.25 0.06 0.01 0.1 0.03 0.15 0.04 0.3 0.06 0.63 0.11 0.97 0.18 0.24 0.04 0.45 0.1 0.71 0.13 0.05 0.01 0.1 0.01 0.16 0.02 19.65 3.43 96.61 14.45 106.17 15.21C181.86 258.61 196.36 234.13 181.6 231.55z"/>
  <path fill="#EFB541" d="M407.92 230.6c-0.02 0-0.03-0.01-0.04-0.01 -4.65 0.04-88.14 32.63-103.73 38.72 -0.78 0.16-1.61 0.46-2.49 0.98 -12.02 6.99-27.91 37.56-9.18 32.9 0.08-0.01 0.16-0.04 0.24-0.06 0.32-0.08 0.65-0.17 0.99-0.27 0.05-0.02 0.1-0.02 0.15-0.04 0.29-0.1 0.6-0.21 0.93-0.32 0.23-0.08 0.44-0.14 0.68-0.23 0.05-0.02 0.1-0.04 0.15-0.06 18.82-6.61 91.35-34.61 100.05-38.62C421.38 254.08 422.07 225.63 407.92 230.6z"/>
  <rect x="140.04" y="211.54" transform="matrix(0.2095 0.9778 -0.9778 0.2095 371.1799 50.3785)" fill="#FFDC7B" width="28.78" height="86.43"/>
  <path fill="#F9CA55" d="M170.17 257.05c-4.07-0.56-8.17-1.07-12.28-1.25 -1.74-0.08-3.49-0.15-5.23-0.13 -0.57 0.01-4.28 0.27-3.37 0.12 -12.69 1.51-24.88 4.73-37.01 8.43l2.93 13.66 78.24-16.76C185.69 259.72 177.97 258.13 170.17 257.05z"/>
  <path fill="#FFEEA6" d="M87.14 269.87c-0.97-4.12 7.79-16.7 21.47-20.02 13.68-3.32 27.47 5.5 28.06 8.01 0.59 2.5-7.79 16.7-21.47 20.02C101.51 281.2 88.1 273.99 87.14 269.87z"/>
  <path fill="#FFDC7B" d="M90.91 268.96c-0.73-3.09 6.92-12.81 18.51-15.62 11.59-2.81 23.02 3.56 23.46 5.44 0.44 1.89-6.92 12.81-18.51 15.63S91.64 272.06 90.91 268.96z"/>
  <path fill="#F9CA55" d="M100.99 269.62c2-1.11 3.99-2.24 5.92-3.47 0.58-0.37 4.35-2.95 4.01-2.66 2.62-1.92 5.22-3.87 7.77-5.88 1.63-1.28 3.26-2.57 4.89-3.85 -4.09-1.13-9.11-1.65-14.16-0.42 -11.59 2.81-19.24 12.53-18.51 15.62 0.26 1.11 1.85 2.47 4.3 3.64C97.16 271.66 99.1 270.67 100.99 269.62z"/>
  <path fill="#FFDC7B" d="M172.2 251.65c-0.97-4.12 7.79-16.7 21.47-20.02 13.68-3.32 27.47 5.5 28.06 8.01 0.59 2.51-7.79 16.7-21.47 20.02C186.58 262.97 173.17 255.77 172.2 251.65z"/>
  <path fill="#FFDC7B" d="M188.11 263.92c-0.09-3.62 11.11-12.6 25.18-12.93 14.07-0.34 25.17 7.78 25.76 11.72 0.59 3.94-11.11 12.6-25.18 12.93C199.8 275.98 188.19 267.54 188.11 263.92z"/>
  <polygon fill="#FFDC7B" points="225.37 252.76 126.13 224.18 107.13 246.35 205.25 274.78 "/>
  <path fill="#F9CA55" d="M190.23 270.43c-1.08-0.86-2.15-1.72-3.24-2.56 -0.88-0.69-1.77-1.37-2.67-2.04 -0.13-0.09-0.24-0.18-0.39-0.28 -1.51-1.07-3.01-2.15-4.55-3.18 -3.1-2.08-6.23-4.13-9.45-6.02 -14.15-8.27-28.88-15.84-43.73-22.78 -1.94-0.9-3.88-1.8-5.83-2.67l-13.25 15.46L190.23 270.43z"/>
  <path fill="#FFEEA4" d="M126.13 224.18l-4.39 5.12c5.79 1.76 11.49 3.96 17.23 6.27 2.91 1.17 5.8 2.37 8.72 3.53 0.4 0.16 1.52 0.57 2.28 0.85 0.4 0.14 0.79 0.29 1.19 0.42 5.84 1.95 11.84 3.19 17.9 4.25 11.87 2.08 23.69 3.96 35.05 7.81h0c1.24 0.42 2.47 0.87 3.69 1.34 0.24 0.09 0.48 0.19 0.72 0.28 1.22 0.48 9.06 3.66 14.2 5.83 5.14 2.16 15.41 1.74 15.99 1.84 -1.33-2.75-6.36-6.67-13.35-8.94l0.01-0.01 -0.4-0.11c-0.41-0.13-0.83-0.24-1.26-0.36L126.13 224.18z"/>
  <path fill="#FFEEA6" d="M91.45 235.85c-0.09-3.62 11.11-12.6 25.18-12.93 14.07-0.33 25.96 7.7 25.76 11.72 -0.2 4.02-11.11 12.6-25.18 12.93C103.15 247.91 91.53 239.47 91.45 235.85z"/>
  <path fill="#FFDC7B" d="M95.33 235.76c-0.07-2.72 9.45-9.5 21.37-9.78 11.92-0.29 21.68 4.27 21.81 8.75 0.13 4.48-9.44 9.49-21.37 9.78C105.22 244.79 95.4 238.48 95.33 235.76z"/>
  <path fill="#F9CA55" d="M104.49 228.56c2.61 1.3 5.25 2.53 7.94 3.64 0.74 0.26 3.81 1.39 4.64 1.67 2.06 0.69 4.12 1.36 6.19 1.98 3.61 1.07 7.25 2.08 10.91 2.98 0.5 0.12 1 0.23 1.49 0.36 1.83-1.42 2.88-2.96 2.84-4.45 -0.13-4.48-9.89-9.04-21.81-8.75C112.14 226.09 107.95 227.15 104.49 228.56z"/>
  <path fill="#FFDC7B" d="M345.61 350.99c-0.09-3.62 11.11-12.6 25.18-12.93 14.07-0.34 25.17 7.78 25.76 11.72 0.59 3.94-11.11 12.6-25.18 12.93C357.31 363.04 345.7 354.61 345.61 350.99z"/>
  <polygon fill="#FFDC7B" points="382.88 339.83 283.64 311.24 264.63 333.42 362.76 361.85 "/>
  <path fill="#F9CA55" d="M347.74 357.5c-1.08-0.86-2.15-1.72-3.24-2.56 -0.88-0.69-1.77-1.37-2.67-2.04 -0.13-0.09-0.24-0.18-0.39-0.28 -1.51-1.07-3.01-2.15-4.55-3.18 -3.1-2.08-6.23-4.13-9.45-6.02 -14.15-8.27-28.88-15.84-43.73-22.78 -1.94-0.9-3.88-1.8-5.83-2.68l-13.25 15.46L347.74 357.5z"/>
  <path fill="#FFEEA4" d="M283.64 311.24l-4.39 5.12c5.79 1.76 11.49 3.96 17.23 6.27 2.91 1.17 5.8 2.37 8.72 3.53 0.4 0.16 1.52 0.57 2.28 0.85 0.4 0.14 0.79 0.29 1.19 0.42 5.84 1.95 11.84 3.19 17.9 4.25 11.87 2.08 23.69 3.96 35.05 7.81h0c1.24 0.42 2.47 0.87 3.69 1.33 0.24 0.09 0.48 0.19 0.72 0.28 1.22 0.48 9.06 3.66 14.2 5.83 5.14 2.16 15.41 1.74 15.99 1.84 -1.33-2.75-6.36-6.67-13.35-8.94l0.01-0.01 -0.4-0.11c-0.41-0.13-0.83-0.25-1.26-0.36L283.64 311.24z"/>
  <path fill="#FFEEA6" d="M248.95 322.92c-0.09-3.62 11.11-12.6 25.18-12.93s25.96 7.7 25.76 11.72c-0.2 4.02-11.11 12.6-25.18 12.93C260.65 334.97 249.04 326.54 248.95 322.92z"/>
  <path fill="#FFDC7B" d="M252.83 322.83c-0.07-2.72 9.45-9.5 21.37-9.78 11.92-0.28 21.68 4.27 21.81 8.75 0.13 4.48-9.44 9.49-21.37 9.78C262.72 331.86 252.9 325.55 252.83 322.83z"/>
  <path fill="#F9CA55" d="M262 315.63c2.61 1.3 5.25 2.53 7.94 3.64 0.74 0.26 3.81 1.39 4.64 1.67 2.06 0.69 4.12 1.36 6.19 1.98 3.61 1.08 7.25 2.08 10.91 2.98 0.5 0.12 1 0.23 1.49 0.36 1.83-1.42 2.88-2.96 2.84-4.45 -0.13-4.48-9.89-9.04-21.81-8.75C269.65 313.16 265.45 314.21 262 315.63z"/>
  <rect x="120.54" y="102.75" transform="matrix(-0.4825 0.8759 -0.8759 -0.4825 327.8839 98.2064)" fill="#FFDC7B" width="28.78" height="86.43"/>
  <path fill="#F9CA55" d="M145.31 158.02c-2.71-3.1-5.47-6.16-8.46-8.99 -1.27-1.2-2.53-2.4-3.87-3.53 -0.43-0.37-3.41-2.6-2.62-2.12 -10.57-7.18-21.89-12.73-33.48-17.89l-6.74 12.24 70.09 38.6C155.28 170.2 150.5 163.94 145.31 158.02z"/>
  <path fill="#FFEEA6" d="M74.19 113.3c1.97-3.74 16.83-7.51 29.34-1.05 12.51 6.45 17.15 22.15 15.95 24.43 -1.2 2.28-16.83 7.51-29.33 1.05C77.63 131.27 72.22 117.04 74.19 113.3z"/>
  <path fill="#FFDC7B" d="M77.64 115.08c1.48-2.81 13.63-5.14 24.22 0.33 10.6 5.47 15.06 17.77 14.16 19.49 -0.9 1.72-13.62 5.15-24.22-0.33C81.2 129.09 76.16 117.89 77.64 115.08z"/>
  <path fill="#F9CA55" d="M84.82 122.18c2.24 0.47 4.48 0.92 6.75 1.26 0.67 0.1 5.22 0.62 4.77 0.62 3.24 0.27 6.48 0.49 9.73 0.65 2.07 0.1 4.14 0.2 6.21 0.3 -2.35-3.54-5.8-7.22-10.42-9.6 -10.6-5.47-22.74-3.14-24.22-0.33 -0.53 1-0.22 3.07 0.86 5.57C80.59 121.21 82.7 121.73 84.82 122.18z"/>
  <path fill="#FFDC7B" d="M150.39 155.27c1.97-3.74 16.83-7.51 29.34-1.05 12.51 6.46 17.14 22.15 15.95 24.43 -1.2 2.28-16.83 7.51-29.33 1.05C153.83 173.25 148.42 159.01 150.39 155.27z"/>
  <path fill="#FFE79C" d="M195.82 178.1c0.47-3.56-4.33-17.81-16.09-23.89l-75.71-41.7 -1.24 2.25C134.96 134.08 164.59 157.28 195.82 178.1z"/>
  <polygon fill="#FFDC7B" points="292.25 155.14 186.15 117.27 194.15 152.19 298.13 189.33 "/>
  <path fill="#F9CA55" d="M258.49 175.17c-2.41-4.46-6.57-5.03-17.06-19.28 -10.49-14.25-8.55-19.08-13.6-23.74l-41.68-14.88 8.01 34.92L258.49 175.17z"/>
  <path fill="#FFEEA6" d="M208.75 154.68c-2.75 2.36-16.78-0.63-25.95-11.3 -9.17-10.68-8.91-25.93-7.24-27.36s16.78 0.63 25.95 11.31C210.68 138 211.5 152.32 208.75 154.68z"/>
  <path fill="#FFDC7B" d="M206.22 151.74c-2.06 1.77-13.33-1.3-21.1-10.35 -7.77-9.05-8.29-21.35-7.03-22.42 1.26-1.08 13.33 1.3 21.1 10.35C206.96 138.36 208.29 149.96 206.22 151.74z"/>
  <path fill="#F9CA55" d="M187.88 121.04c0.75 3.49 8.46 18.85 5.41 27.26 5.9 3.61 11.53 4.64 12.93 3.44 2.07-1.77 0.74-13.37-7.03-22.42C195.82 125.39 191.64 122.72 187.88 121.04z"/>
  <path fill="#FFDC7B" d="M310.71 190.88c-2.75 2.36-16.78-0.63-25.95-11.31 -9.17-10.68-8.91-25.92-7.24-27.36 1.67-1.43 16.79 0.63 25.95 11.31C312.63 174.19 313.45 188.52 310.71 190.88z"/>
  <path fill="#FFE79C" d="M292.25 155.14c-2.53-1.2-5.01-2.03-7.19-2.57l-47.11-16.82c0.07 0.09 0.15 0.17 0.23 0.27 2.12 2.52 4.28 5.01 6.6 7.35 2.72 2.75 5.52 5.42 8.57 7.79 0.1 0.07 0.18 0.14 0.25 0.18 1.14 0.78 2.27 1.57 3.43 2.33 11.02 7.26 22.66 13.73 34.87 18.75 0.8 0.33 1.6 0.65 2.4 0.98 1.41 0.5 2.82 1.01 4.25 1.46 2.88 0.92 5.77 1.8 8.71 2.51 1.27 0.31 2.56 0.6 3.84 0.87 -1.22-4.74-3.63-10.09-7.62-14.73C300.19 159.7 296.16 156.99 292.25 155.14L292.25 155.14z"/>
  <path opacity="0.3" fill="#B76B18" d="M423.21 242.79c-0.01-0.01-0.02-0.01-0.03-0.02 -0.09-0.06-0.2-0.11-0.31-0.17 -0.03-0.01-0.05-0.03-0.08-0.04 -0.1-0.05-0.22-0.1-0.33-0.15 -0.04-0.02-0.08-0.04-0.12-0.05 -0.11-0.05-0.23-0.1-0.36-0.14 -0.05-0.02-0.11-0.04-0.16-0.06 -0.12-0.04-0.25-0.09-0.38-0.13 -0.06-0.02-0.13-0.04-0.2-0.07 -0.13-0.04-0.27-0.08-0.41-0.13 -0.08-0.02-0.15-0.04-0.23-0.07 -0.14-0.04-0.28-0.08-0.43-0.12 -0.09-0.02-0.18-0.05-0.27-0.07 -0.14-0.04-0.29-0.07-0.44-0.1 -0.1-0.02-0.21-0.05-0.31-0.07 -0.15-0.03-0.3-0.06-0.45-0.09 -0.11-0.02-0.23-0.04-0.35-0.07 -0.15-0.03-0.3-0.06-0.46-0.08 -0.13-0.02-0.26-0.04-0.39-0.06 -0.15-0.02-0.31-0.05-0.47-0.07 -0.05-0.01-0.11-0.02-0.16-0.02 1.29-7.34-2.07-12.81-8.93-10.4 -0.02 0-0.03-0.01-0.04-0.01 -2.61 0.02-30.15 10.34-56.54 20.44 -2.03-1.31-4.09-2.64-6.16-3.98l0.07-12.39c0.68-1.53 1.18-3.04 1.5-4.49 6.07 0.14 10.87 0.25 13.65 0.31 0.78 0.15 1.67 0.19 2.68 0.06 13.79-1.84 40.2-23.95 21.11-26.85 -0.07-0.02-0.17-0.02-0.24-0.04 -0.33-0.05-0.66-0.09-1.02-0.13 -0.06 0-0.1-0.01-0.16-0.02 -0.3-0.02-0.63-0.04-0.98-0.06 -0.24-0.02-0.46-0.04-0.71-0.05 -0.05 0-0.1 0-0.16 0 -4.34-0.25-11.42-0.53-19.94-0.83 4.44-5.59 6.16-12.55 6.51-18.15 0.53-2.94 0.48-5.49-0.35-7.23 -0.27-1.37-0.64-2.31-1.03-2.65 -1.53-1.33-12-1.05-20.86 4.35 -1.02-6.4-4.26-12.02-7.48-15.93l5.7-10.55 9.2-16.82c1.94-2.45 3.65-5.36 4.77-8.67 3.91-11.62-1.08-24.02-4.48-25.26 -2.54-0.93-9.5 2.43-14.49 9.02l0 0 -0.01 0.01c-1.57 2.07-2.93 4.47-3.91 7.15L309.53 163.53c-1.75-1.13-3.51-2.26-5.26-3.39l13.52-40.28 0 0 3.46-10.32c0.57-1.41 1.08-2.91 1.51-4.48l0.01-0.03 0 0c0.71-2.67 1.17-5.56 1.22-8.57 0.26-14.07-7.9-26.12-11.86-25.7 -2.73 0.3-7.63 5.47-10.51 13.25l0 0.01c-0.27 0.72-0.51 1.46-0.74 2.22l-17.75 53.15 -1.85-11.91c-0.59-6.34-2.72-11.07-4.64-11.8 -1.91-0.73-6.63 1.37-11.28 5.69 -0.47 0.44-0.93 0.89-1.4 1.37 -0.18 0.19-0.35 0.39-0.53 0.58 -0.3 0.32-0.6 0.65-0.89 0.99 -0.19 0.22-0.38 0.46-0.57 0.69 -0.28 0.34-0.55 0.67-0.82 1.02 -0.19 0.25-0.37 0.5-0.56 0.75 -0.26 0.36-0.52 0.73-0.78 1.11 -0.17 0.26-0.35 0.52-0.52 0.79 -0.25 0.4-0.5 0.81-0.74 1.23 -0.15 0.27-0.31 0.53-0.46 0.8 -0.04 0.08-0.09 0.15-0.13 0.23 -0.03-0.02-0.05-0.02-0.07-0.04 -3.12-2.08-8.96-4.54-8.96-4.54s-1.16 5.54-1.56 7.42c-3.34 15.86-6.25 29.7-10.09 47.93s-22.93 25.96-29.15 35.48 -4.12 18.81-1.03 24.36 2.91 16.66 0.73 25.9c-1.91 8.1-28.66 62.54-35.26 75.91 7.26-3.69 23.39-11.92 40.43-20.73l8.73 5.41c-0.72 2.58-0.83 4.97-0.39 6.94 -9.14 15.08-16.22 27.16-16.57 28.89 0 0.02 0 0.03 0 0.04 -7.5 12.98 20.58 17.57 34.69-5.93 1.29-1.81 4.49-6.77 8.76-13.53l15.47 9.68c2.3 1.97 5.04 3.78 8.17 5.13 10.97 4.72 22.78 1.75 24-1.07 0.33-0.76 0.12-2.09-0.55-3.71 2.48-1.83 5.41-5.37 7.58-9.98l44.86 13 0 0 10.42 3.02c1.45 0.52 2.98 0.97 4.59 1.33l0.01 0h0c2.7 0.6 5.6 0.93 8.61 0.86 14.07-0.33 25.77-8.99 25.18-12.93 -0.41-2.71-5.78-7.39-13.67-9.94l0 0 -0.1-0.03c-0.69-0.22-1.4-0.43-2.13-0.61l-62.34-17.96c5.64 0.12 12.62-1.25 18.7-5.31l67.7-42.65h0l4.67-2.94c0.42-0.25 0.83-0.51 1.24-0.78 11.7-7.82 14.69-24.03 13.28-26.18C423.77 243.18 423.53 242.99 423.21 242.79zM234.9 311.67l-0.38-0.24c0.34-0.18 0.68-0.35 1.01-0.53 0.08 0.08 0.17 0.16 0.25 0.24C235.48 311.31 235.19 311.49 234.9 311.67zM274.03 336.14l4.13 1.2c0.14 0.57 0.3 1.13 0.47 1.68L274.03 336.14zM306.11 317.72l0-0.26c0.46-0.14 0.92-0.28 1.38-0.43 0.1 0.4 0.24 0.75 0.42 1.02 0.05 0.08 0.12 0.16 0.19 0.24L306.11 317.72z"/>
  <polygon fill="#FFDC7B" points="186.42 305.8 264.95 354.93 287.46 344.54 209.73 295.93 "/>
  <path fill="#FFE79C" d="M237.36 314.53c1.52 2.06 3.06 4.09 4.64 6.1 0.36 0.43 1.66 2.02 1.84 2.23 0.96 1.13 1.92 2.27 2.91 3.38 4.24 4.77 8.71 9.31 13.57 13.44 0.01 0.01 0.01 0.01 0.02 0.02 5.7 3.11 11.38 6.26 16.99 9.53l10.14-4.68 -51.86-32.43C236.18 312.92 236.76 313.73 237.36 314.53z"/>
  <path fill="#FFEEA6" d="M295.84 358.19c-1.22 2.82-13.03 5.79-24 1.07 -10.97-4.72-17.31-15.12-15.73-18.16 1.57-3.03 13.03-5.79 24-1.07C291.08 344.75 297.06 355.37 295.84 358.19z"/>
  <path fill="#FFDC7B" d="M219.11 310.37c-1.21 2.83-13.03 5.79-24 1.07 -10.97-4.72-16.67-14.9-15.73-18.15 0.94-3.25 13.03-5.79 24-1.07C214.35 296.94 220.33 307.55 219.11 310.37z"/>
  <path fill="#F9CA55" d="M187.94 307.1l59.96 37.15c-4.43-9.99-35.56-29.64-38.15-48.31l-0.02-0.02 0 0c-1.87-1.42-3.99-2.7-6.34-3.71 -10.97-4.72-23.06-2.18-24 1.07C178.68 295.73 181.72 302.09 187.94 307.1z"/>
  <path fill="#FFDC7B" d="M292.82 356.89c-0.91 2.12-10.65 3.98-19.94-0.01 -9.3-4-15.22-10.97-13.73-14.47 1.49-3.5 10.65-3.98 19.95 0.02C288.39 346.42 293.73 354.76 292.82 356.89z"/>
  <path fill="#F9CA55" d="M283.7 351.73c0.64 2.49 1.22 4.98 1.85 7.46 3.93-0.18 6.8-1.2 7.27-2.3 0.86-2.01-3.87-9.57-12.24-13.77C281.83 345.94 282.94 348.8 283.7 351.73z"/>
  <rect x="305.92" y="182.87" transform="matrix(0.7412 0.6713 -0.6713 0.7412 234.6534 -156.5026)" fill="#FFDC7B" width="28.78" height="86.43"/>
  <path fill="#F9CA55" d="M334.42 218.76c-3.64 1.92-7.26 3.9-10.7 6.16 -1.46 0.96-2.92 1.91-4.32 2.95 -0.46 0.34-3.32 2.72-2.67 2.07 -9.42 8.63-17.43 18.37-25.12 28.47l10.35 9.38 53.71-59.31C348.58 211.86 341.38 215.08 334.42 218.76z"/>
  <path fill="#FFEEA6" d="M274.52 277.67c-3.19-2.77-3.43-18.11 5.73-28.79 9.16-10.68 25.51-11.58 27.45-9.89 1.94 1.69 3.43 18.11-5.73 28.79C292.8 278.46 277.71 280.45 274.52 277.67z"/>
  <path fill="#FFDC7B" d="M277.05 274.72c-2.4-2.09-1.87-14.44 5.9-23.49 7.77-9.06 20.77-10.56 22.23-9.29 1.46 1.27 1.87 14.44-5.9 23.5C291.5 274.49 279.45 276.81 277.05 274.72z"/>
  <path fill="#F9CA55" d="M285.61 269.37c0.98-2.07 1.93-4.15 2.78-6.28 0.25-0.63 1.8-4.93 1.7-4.5 1.01-3.09 1.97-6.19 2.87-9.31 0.57-1.99 1.15-3.98 1.72-5.98 -3.98 1.47-8.36 3.98-11.74 7.93 -7.76 9.05-8.3 21.41-5.9 23.49 0.86 0.75 2.94 0.93 5.62 0.44C283.7 273.26 284.69 271.33 285.61 269.37z"/>
  <path fill="#FFDC7B" d="M332.92 213.18c-3.19-2.78-3.43-18.11 5.73-28.79 9.16-10.68 25.51-11.58 27.45-9.89 1.94 1.69 3.43 18.11-5.73 28.79C351.2 213.98 336.11 215.96 332.92 213.18z"/>
  <rect x="240.04" y="200.9" transform="matrix(-0.0974 0.9952 -0.9952 -0.0974 522.1575 14.662)" fill="#FFDC7B" width="28.78" height="86.43"/>
  <path fill="#F9CA55" d="M268.73 251.08c-3.71-1.77-7.46-3.5-11.32-4.92 -1.64-0.6-3.28-1.21-4.95-1.71 -0.55-0.16-4.16-1.04-3.25-0.91 -12.55-2.42-25.14-3.05-37.83-3.21l-1.36 13.9 79.64 7.79C282.7 258.34 275.83 254.48 268.73 251.08z"/>
  <path fill="#FFEEA6" d="M185.72 238.08c0.33-4.22 12.5-13.55 26.53-12.55 14.04 0.99 24.5 13.58 24.3 16.15 -0.2 2.57-12.5 13.55-26.53 12.55S185.39 242.3 185.72 238.08z"/>
  <path fill="#FFDC7B" d="M189.59 238.35c0.25-3.17 10.49-10.1 22.38-9.26 11.9 0.84 20.85 10.38 20.7 12.31 -0.15 1.93-10.49 10.11-22.38 9.27C198.4 249.83 189.35 241.53 189.59 238.35z"/>
  <path fill="#F9CA55" d="M199 242.04c2.24-0.45 4.48-0.92 6.7-1.51 0.66-0.17 5.04-1.49 4.63-1.31 3.08-1.03 6.15-2.1 9.19-3.24 1.94-0.73 3.88-1.46 5.82-2.18 -3.56-2.32-8.18-4.34-13.37-4.7 -11.9-0.84-22.14 6.1-22.38 9.26 -0.09 1.13 1.01 2.91 2.99 4.78C194.74 242.82 196.88 242.47 199 242.04z"/>
  <path fill="#FFDC7B" d="M272.31 246.55c0.33-4.22 12.5-13.55 26.54-12.55 14.04 0.99 24.5 13.58 24.3 16.15 -0.2 2.57-12.5 13.55-26.53 12.55C282.57 261.71 271.98 250.77 272.31 246.55z"/>
  <rect x="51.03" y="88.5" transform="matrix(1 0.0059 -0.0059 1 0.7832 -0.3861)" fill="#FFDC7B" width="28.78" height="86.43"/>
  <path fill="#F9CA55" d="M71.06 116.84c-1.43 3.86-2.81 7.75-3.86 11.73 -0.45 1.69-0.9 3.37-1.25 5.08 -0.11 0.56-0.66 4.24-0.61 3.32 -1.26 12.72-0.74 25.31 0.27 37.96l13.97 0.08 0.48-80.01C77.01 102.26 73.79 109.46 71.06 116.84z"/>
  <path fill="#FFEEA6" d="M65.7 200.69c-4.23 0.06-14.63-11.21-14.93-25.27 -0.3-14.07 11.29-25.64 13.86-25.67 2.57-0.04 14.63 11.21 14.93 25.28C79.86 189.09 69.93 200.63 65.7 200.69z"/>
  <path fill="#FFDC7B" d="M65.62 196.81c-3.18 0.05-11.02-9.52-11.27-21.44 -0.25-11.93 8.43-21.72 10.37-21.74 1.94-0.03 11.02 9.52 11.27 21.44C76.24 186.99 68.8 196.76 65.62 196.81z"/>
  <path fill="#F9CA55" d="M68.43 187.1c-0.65-2.19-1.33-4.38-2.11-6.53 -0.23-0.64-1.95-4.88-1.73-4.49 -1.31-2.97-2.66-5.93-4.07-8.86 -0.9-1.87-1.8-3.73-2.7-5.6 -1.99 3.76-3.57 8.54-3.46 13.74 0.25 11.92 8.09 21.49 11.27 21.44 1.14-0.02 2.81-1.27 4.48-3.41C69.6 191.28 69.05 189.18 68.43 187.1z"/>
  <path fill="#FFDC7B" d="M66.22 113.69c-4.23 0.06-14.63-11.21-14.93-25.28 -0.29-14.07 11.29-25.64 13.86-25.67 2.57-0.04 14.63 11.21 14.93 25.28C80.37 102.09 70.45 113.63 66.22 113.69z"/>
  <rect x="186.59" y="231.64" transform="matrix(0.2095 0.9778 -0.9778 0.2095 427.6332 20.7542)" fill="#FFDC7B" width="28.78" height="86.43"/>
  <path fill="#F9CA55" d="M216.72 277.15c-4.07-0.56-8.17-1.07-12.28-1.25 -1.74-0.07-3.49-0.15-5.23-0.13 -0.57 0.01-4.28 0.27-3.37 0.12 -12.69 1.51-24.88 4.73-37.01 8.43l2.93 13.66 78.24-16.76C232.24 279.83 224.52 278.23 216.72 277.15z"/>
  <path fill="#FFEEA6" d="M133.68 289.98c-0.97-4.12 7.79-16.7 21.47-20.02 13.68-3.32 27.47 5.5 28.06 8.01 0.59 2.5-7.79 16.7-21.47 20.02C148.06 301.3 134.65 294.09 133.68 289.98z"/>
  <path fill="#FFDC7B" d="M137.46 289.06c-0.73-3.09 6.92-12.81 18.51-15.62 11.59-2.81 23.02 3.56 23.46 5.44 0.44 1.88-6.92 12.81-18.51 15.63C149.33 297.32 138.19 292.16 137.46 289.06z"/>
  <path fill="#F9CA55" d="M147.54 289.72c2-1.11 3.99-2.24 5.92-3.47 0.58-0.37 4.35-2.95 4.01-2.66 2.62-1.92 5.22-3.87 7.77-5.88 1.63-1.28 3.26-2.57 4.89-3.85 -4.09-1.13-9.11-1.65-14.16-0.42 -11.59 2.81-19.24 12.53-18.51 15.62 0.26 1.11 1.85 2.47 4.3 3.64C143.71 291.76 145.65 290.77 147.54 289.72z"/>
  <path fill="#FFDC7B" d="M218.75 271.75c-0.97-4.12 7.79-16.7 21.47-20.02 13.68-3.32 27.47 5.5 28.06 8.01 0.59 2.51-7.79 16.7-21.47 20.02C233.13 283.07 219.72 275.87 218.75 271.75z"/>
  <polygon fill="#FFDC7B" points="101.72 265.68 39.54 171.72 25 204.47 85.91 296.55 "/>
  <path fill="#FFEEA6" d="M35.18 215.22c-3.61 0.24-13.05-10.57-13.98-24.61 -0.93-14.04 8.42-26.09 10.63-26.23 2.2-0.15 13.05 10.57 13.98 24.61C46.73 203.03 38.8 214.98 35.18 215.22z"/>
  <path fill="#FFDC7B" d="M34.93 211.34c-2.72 0.18-9.88-9.04-10.67-20.94 -0.79-11.9 6.17-22.05 7.83-22.16 1.65-0.11 9.88 9.04 10.67 20.94C43.54 201.09 37.64 211.17 34.93 211.34z"/>
  <path fill="#F9CA55" d="M42.48 186.75c-1.63-10.68-8.85-18.6-10.39-18.5 -1.49 0.1-7.3 8.37-7.84 18.72C30.32 186.71 36.4 186.61 42.48 186.75z"/>
  <path fill="#FFDC7B" d="M95.04 305.34c-3.61 0.24-13.05-10.57-13.98-24.61 -0.93-14.04 8.42-26.09 10.62-26.23 2.2-0.15 13.05 10.57 13.98 24.61C106.59 293.15 98.66 305.1 95.04 305.34z"/>
  <path fill="#F9CA55" d="M105.66 279.11c-0.33-5.02-1.93-9.6-3.95-13.43v0l0 0c-1.31-2.48-2.79-4.63-4.21-6.37l-25.11-37.95c1.84 12.59 0.91 24.55 1.04 37.19 0.02 1.77 0.05 3.53 0.22 5.29 0.1 0.9 0.15 1.45 0.16 1.65 0.26 1.76 0.52 3.51 0.78 5.27 0.53 3.61 1.05 7.22 1.43 10.84l9.9 14.96c3.18 5.52 7.09 8.92 9.13 8.79C98.66 305.1 106.59 293.15 105.66 279.11z"/>
  <polygon fill="#FFDC7B" points="128.84 94.58 151.08 195.43 179.63 201.55 157.78 101.76 "/>
  <path fill="#F9CA55" d="M161.13 117.03c-0.24 1.35-0.48 2.71-0.7 4.06 -0.18 1.11-0.35 2.21-0.52 3.32 -0.02 0.15-0.04 0.3-0.06 0.48 -0.22 1.84-0.45 3.67-0.62 5.51 -0.35 3.72-0.66 7.44-0.77 11.18 -0.51 16.38-0.14 32.94 0.85 49.3 0.13 2.13 0.27 4.27 0.43 6.4l19.91 4.26L161.13 117.03z"/>
  <path fill="#FFEEA6" d="M177.89 220.34c-3.14 1.8-16.37-3.75-23.38-15.95 -7.01-12.2-5.62-26.49-2-28.23 3.63-1.75 16.37 3.75 23.38 15.95C182.9 204.31 181.03 218.54 177.89 220.34z"/>
  <path fill="#FFDC7B" d="M156.42 122.01c-3.14 1.81-16.37-3.75-23.38-15.95 -7.01-12.2-5.18-25.83-2-28.23s16.37 3.75 23.38 15.95C161.44 105.98 159.57 120.2 156.42 122.01z"/>
  <path fill="#FFDC7B" d="M175.96 216.98c-2.36 1.36-12.85-3.77-18.79-14.11 -5.94-10.34-6.59-21.09-2.72-23.34 3.88-2.25 12.85 3.77 18.79 14.11C179.18 203.98 178.32 215.62 175.96 216.98z"/>
  <path fill="#F9CA55" d="M165.26 212.36c-0.1-2.91-0.29-5.82-0.59-8.72 -0.13-0.77-0.59-4.01-0.75-4.87 -0.38-2.13-0.77-4.26-1.22-6.38 -0.78-3.69-1.63-7.36-2.59-11.01 -0.13-0.49-0.27-0.99-0.4-1.48 -2.12-0.94-3.98-1.12-5.27-0.37 -3.88 2.25-3.22 13 2.72 23.34C159.43 206.82 162.37 210 165.26 212.36z"/>
  <polygon fill="#FFDC7B" points="140.11 145.78 89.37 235.73 106.56 259.34 156.88 170.44 "/>
  <path fill="#F9CA55" d="M149.18 184.05c-1.08 0.85-2.17 1.69-3.23 2.56 -0.87 0.7-1.74 1.41-2.6 2.13 -0.12 0.1-0.23 0.19-0.36 0.31 -1.39 1.22-2.79 2.43-4.14 3.69 -2.74 2.53-5.46 5.11-8.04 7.81 -11.31 11.86-22.09 24.44-32.27 37.28 -1.33 1.68-2.64 3.36-3.95 5.05l11.98 16.46L149.18 184.05z"/>
  <path fill="#FFEEA6" d="M92.72 272.17c-3.54-0.75-9.69-13.72-6.77-27.48 2.92-13.76 13.49-23.48 17.35-22.36s9.69 13.72 6.77 27.48C107.15 263.58 96.26 272.93 92.72 272.17z"/>
  <path fill="#FFDC7B" d="M142.35 184.61c-3.54-0.75-9.69-13.72-6.77-27.48 2.92-13.76 13.38-22.69 17.35-22.36s9.69 13.72 6.77 27.48C156.78 176.02 145.9 185.37 142.35 184.61z"/>
  <path fill="#FFDC7B" d="M93.53 268.38c-2.66-0.56-7.06-11.38-4.58-23.05 2.48-11.67 9.16-20.11 13.55-19.2 4.39 0.91 7.06 11.38 4.58 23.05C104.6 260.84 96.19 268.94 93.53 268.38z"/>
  <path fill="#F9CA55" d="M88.64 257.8c1.87-2.24 3.67-4.53 5.38-6.89 0.42-0.66 2.23-3.38 2.7-4.13 1.14-1.84 2.27-3.69 3.35-5.57 1.88-3.27 3.7-6.57 5.42-9.92 0.23-0.45 0.46-0.91 0.69-1.37 -0.95-2.11-2.21-3.49-3.67-3.79 -4.39-0.91-11.08 7.53-13.55 19.2C88 249.78 88.06 254.11 88.64 257.8z"/>
  <rect x="161.91" y="257.85" transform="matrix(0.9065 0.4222 -0.4222 0.9065 143.586 -46.2829)" fill="#FFDC7B" width="28.79" height="86.43"/>
  <path fill="#F9CA55" d="M187.62 289.89c-2.9 2.91-5.78 5.88-8.4 9.05 -1.11 1.35-2.23 2.69-3.26 4.1 -0.34 0.46-2.37 3.58-1.94 2.76 -6.45 11.03-11.22 22.7-15.58 34.62l12.67 5.9 33.78-72.54C199.1 279.12 193.17 284.32 187.62 289.89z"/>
  <path fill="#FFEEA6" d="M147.8 363.88c-3.87-1.71-8.63-16.29-3.03-29.2 5.6-12.91 20.94-18.6 23.3-17.56 2.36 1.04 8.63 16.29 3.04 29.2C165.5 359.23 151.67 365.59 147.8 363.88z"/>
  <path fill="#FFDC7B" d="M149.34 360.32c-2.91-1.28-6.05-13.25-1.31-24.19 4.74-10.94 16.72-16.23 18.49-15.44 1.77 0.78 6.05 13.25 1.31 24.19C163.09 355.82 152.25 361.6 149.34 360.32z"/>
  <path fill="#F9CA55" d="M155.95 352.67c0.32-2.27 0.62-4.54 0.8-6.82 0.06-0.68 0.26-5.25 0.3-4.8 0.05-3.25 0.06-6.5-0.01-9.75 -0.04-2.07-0.08-4.14-0.13-6.22 -3.37 2.59-6.81 6.28-8.87 11.05 -4.74 10.94-1.6 22.9 1.31 24.19 1.04 0.46 3.08 0.02 5.5-1.24C155.27 356.95 155.64 354.81 155.95 352.67z"/>
  <path fill="#FFDC7B" d="M184.53 285.01c-3.87-1.71-8.63-16.29-3.03-29.2 5.6-12.91 20.94-18.6 23.3-17.56 2.36 1.04 8.63 16.29 3.04 29.2C202.23 280.36 188.4 286.72 184.53 285.01z"/>
  <rect x="214.33" y="109.25" transform="matrix(0.9786 0.2059 -0.2059 0.9786 36.2934 -43.8259)" fill="#FFDC7B" width="28.79" height="86.43"/>
  <path fill="#F9CA55" d="M237.21 139.02c-2.17 3.49-4.3 7.03-6.13 10.72 -0.78 1.56-1.56 3.13-2.24 4.73 -0.23 0.52-1.5 4.02-1.26 3.13 -3.78 12.21-5.79 24.65-7.34 37.25l13.67 2.88 16.48-78.3C245.96 125.93 241.36 132.34 237.21 139.02z"/>
  <path fill="#FFEEA6" d="M215.18 220.1c-4.15-0.79-12.09-13.91-9.57-27.75 2.53-13.84 16.19-22.86 18.72-22.38 2.53 0.48 12.09 13.91 9.57 27.75C231.37 211.56 219.34 220.89 215.18 220.1z"/>
  <path fill="#FFDC7B" d="M215.88 216.28c-3.12-0.59-8.9-11.53-6.75-23.26 2.14-11.73 12.61-19.59 14.51-19.23 1.9 0.36 8.9 11.53 6.75 23.27C228.25 208.79 219.01 216.87 215.88 216.28z"/>
  <path fill="#F9CA55" d="M220.58 207.33c-0.2-2.28-0.43-4.56-0.76-6.82 -0.1-0.68-0.93-5.17-0.8-4.75 -0.68-3.18-1.42-6.34-2.21-9.49 -0.51-2.01-1.02-4.02-1.53-6.03 -2.7 3.28-5.21 7.66-6.14 12.77 -2.14 11.73 3.63 22.67 6.75 23.26 1.12 0.21 3.01-0.68 5.08-2.45C220.89 211.66 220.77 209.49 220.58 207.33z"/>
  <path fill="#FFDC7B" d="M233.1 134.96c-4.15-0.79-12.09-13.91-9.56-27.75 2.53-13.84 16.19-22.86 18.72-22.38 2.53 0.48 12.09 13.91 9.57 27.75C249.29 126.43 237.26 135.76 233.1 134.96z"/>
  <rect x="89.33" y="191.22" transform="matrix(1 0.0059 -0.0059 1 1.3938 -0.6117)" fill="#FFDC7B" width="28.78" height="86.43"/>
  <path fill="#F9CA55" d="M109.35 219.56c-1.43 3.86-2.81 7.75-3.86 11.73 -0.45 1.69-0.9 3.37-1.25 5.08 -0.11 0.56-0.66 4.24-0.61 3.32 -1.26 12.72-0.74 25.31 0.27 37.96l13.97 0.08 0.48-80.01C115.3 204.99 112.08 212.18 109.35 219.56z"/>
  <path fill="#FFEEA6" d="M104 303.41c-4.23 0.06-14.63-11.21-14.93-25.27 -0.3-14.07 11.29-25.64 13.86-25.67 2.57-0.04 14.63 11.21 14.93 25.28C118.15 291.81 108.23 303.35 104 303.41z"/>
  <path fill="#FFDC7B" d="M103.91 299.53c-3.18 0.05-11.02-9.52-11.27-21.44 -0.25-11.93 8.43-21.72 10.37-21.74 1.94-0.03 11.02 9.52 11.27 21.44C114.53 289.71 107.1 299.48 103.91 299.53z"/>
  <path fill="#F9CA55" d="M106.73 289.82c-0.65-2.19-1.33-4.38-2.11-6.53 -0.23-0.64-1.95-4.88-1.73-4.49 -1.31-2.97-2.66-5.93-4.07-8.86 -0.9-1.87-1.8-3.73-2.7-5.6 -1.99 3.76-3.57 8.54-3.46 13.74 0.25 11.92 8.09 21.49 11.27 21.44 1.14-0.02 2.81-1.27 4.48-3.41C107.9 294 107.35 291.9 106.73 289.82z"/>
  <path fill="#FFDC7B" d="M104.51 216.41c-4.23 0.06-14.63-11.21-14.93-25.28 -0.29-14.07 11.29-25.64 13.86-25.67 2.57-0.04 14.63 11.21 14.93 25.28C118.67 204.81 108.74 216.35 104.51 216.41z"/>
  <path fill="#FFE79C" d="M102.9 165.59c-3.36 1.29-13.59 12.31-13.31 25.54l-0.51 86.43 2.56 0.02C93.26 240.08 99.51 202.97 102.9 165.59z"/>
  <rect x="351.51" y="237.49" transform="matrix(0.533 0.8461 -0.8461 0.533 408.4003 -178.5006)" fill="#FFDC7B" width="28.78" height="86.43"/>
  <path fill="#F9CA55" d="M381.47 277.45c-4.02 0.87-8.04 1.8-11.97 3.05 -1.66 0.53-3.33 1.06-4.96 1.68 -0.53 0.2-3.93 1.73-3.13 1.27 -11.4 5.78-21.74 12.99-31.86 20.65l7.45 11.82 67.7-42.65C396.96 274.63 389.16 275.79 381.47 277.45z"/>
  <path fill="#FFEEA6" d="M307.91 318.05c-2.33-3.53 1.57-18.36 13.28-26.18 11.7-7.82 27.68-4.28 29.1-2.13 1.41 2.15-1.57 18.36-13.28 26.18C325.3 323.74 310.23 321.58 307.91 318.05z"/>
  <path fill="#FFDC7B" d="M311.13 315.89c-1.75-2.65 2.09-14.41 12.01-21.04 9.92-6.63 22.84-4.57 23.9-2.96 1.06 1.62-2.09 14.41-12.01 21.04C325.12 319.56 312.88 318.55 311.13 315.89z"/>
  <path fill="#F9CA55" d="M320.83 313.04c1.5-1.73 2.98-3.48 4.37-5.3 0.42-0.54 3.07-4.27 2.85-3.87 1.81-2.7 3.57-5.43 5.28-8.19 1.09-1.76 2.18-3.53 3.27-5.29 -4.23 0.35-9.12 1.59-13.44 4.47 -9.92 6.62-13.76 18.38-12.01 21.04 0.62 0.95 2.58 1.68 5.29 1.94C317.94 316.27 319.41 314.68 320.83 313.04z"/>
  <path fill="#FFDC7B" d="M381.52 271.68c-2.32-3.53 1.58-18.36 13.28-26.18 11.7-7.82 27.68-4.28 29.1-2.13 1.42 2.15-1.57 18.36-13.28 26.18C398.92 277.37 383.84 275.21 381.52 271.68z"/>
  <path fill="#FFE79C" d="M423.49 242.98c-2.89-2.14-17.68-4.83-28.69 2.52l-73.13 46.07 1.37 2.17C355.51 274.93 390.16 260.23 423.49 242.98z"/>
  <rect x="316.52" y="182.88" transform="matrix(1 0.006 -0.006 1 1.356 -1.9719)" fill="#FFDC7B" width="28.78" height="86.43"/>
  <path fill="#F9CA55" d="M336.54 211.22c-1.43 3.86-2.81 7.75-3.86 11.73 -0.45 1.69-0.9 3.37-1.25 5.08 -0.11 0.56-0.66 4.24-0.61 3.32 -1.26 12.72-0.74 25.31 0.27 37.96l13.97 0.08 0.48-80.01C342.49 196.64 339.27 203.84 336.54 211.22z"/>
  <path fill="#FFEEA6" d="M331.19 295.07c-4.23 0.06-14.63-11.21-14.93-25.27 -0.3-14.07 11.29-25.64 13.86-25.67 2.57-0.04 14.63 11.21 14.93 25.28C345.34 283.46 335.42 295.01 331.19 295.07z"/>
  <path fill="#FFDC7B" d="M331.1 291.19c-3.18 0.05-11.02-9.52-11.27-21.44 -0.25-11.93 8.43-21.72 10.37-21.74 1.94-0.03 11.02 9.52 11.27 21.44C341.72 281.37 334.29 291.14 331.1 291.19z"/>
  <path fill="#F9CA55" d="M333.92 281.48c-0.65-2.19-1.33-4.38-2.11-6.53 -0.23-0.64-1.95-4.88-1.73-4.49 -1.31-2.98-2.66-5.93-4.07-8.86 -0.9-1.87-1.8-3.73-2.7-5.6 -1.99 3.76-3.57 8.55-3.46 13.74 0.25 11.92 8.09 21.49 11.27 21.44 1.14-0.02 2.81-1.27 4.48-3.41C335.09 285.66 334.54 283.56 333.92 281.48z"/>
  <path fill="#FFDC7B" d="M331.7 208.07c-4.23 0.06-14.63-11.21-14.93-25.27 -0.29-14.07 11.29-25.64 13.86-25.67 2.57-0.04 14.63 11.21 14.93 25.28C345.86 196.47 335.93 208.01 331.7 208.07z"/>
  <path fill="#FFE79C" d="M330.09 157.25c-3.36 1.29-13.59 12.31-13.31 25.54l-0.51 86.43 2.56 0.02C320.45 231.74 326.7 194.63 330.09 157.25z"/>
  <rect x="277.5" y="243.66" transform="matrix(1 0.006 -0.006 1 1.7182 -1.7379)" fill="#FFDC7B" width="28.78" height="86.43"/>
  <path fill="#F9CA55" d="M297.53 272c-1.43 3.86-2.81 7.75-3.86 11.73 -0.45 1.69-0.9 3.37-1.25 5.08 -0.11 0.56-0.66 4.24-0.61 3.32 -1.26 12.72-0.74 25.31 0.27 37.96l13.97 0.08 0.48-80.01C303.48 257.43 300.26 264.62 297.53 272z"/>
  <path fill="#FFEEA6" d="M292.17 355.85c-4.23 0.06-14.63-11.21-14.93-25.27 -0.3-14.07 11.29-25.64 13.86-25.67 2.57-0.04 14.63 11.21 14.93 25.28C306.33 344.25 296.4 355.79 292.17 355.85z"/>
  <path fill="#FFDC7B" d="M292.09 351.97c-3.18 0.05-11.02-9.52-11.27-21.44 -0.25-11.93 8.43-21.72 10.37-21.74 1.94-0.03 11.02 9.52 11.27 21.44C302.71 342.15 295.27 351.92 292.09 351.97z"/>
  <path fill="#F9CA55" d="M294.9 342.26c-0.65-2.19-1.33-4.38-2.11-6.53 -0.23-0.64-1.95-4.88-1.73-4.49 -1.31-2.98-2.66-5.93-4.07-8.86 -0.9-1.87-1.8-3.73-2.7-5.6 -1.99 3.76-3.57 8.55-3.46 13.74 0.25 11.92 8.09 21.49 11.27 21.44 1.14-0.02 2.81-1.27 4.48-3.41C296.07 346.44 295.52 344.34 294.9 342.26z"/>
  <path fill="#FFDC7B" d="M292.69 268.85c-4.23 0.06-14.63-11.21-14.93-25.27 -0.29-14.07 11.29-25.64 13.86-25.67 2.57-0.04 14.63 11.21 14.93 25.28C306.84 257.25 296.92 268.79 292.69 268.85z"/>
  <path fill="#FFE79C" d="M291.07 218.03c-3.36 1.29-13.59 12.31-13.31 25.54l-0.51 86.43 2.56 0.02C281.43 292.52 287.68 255.41 291.07 218.03z"/>
  <path fill="#FFDC7B" d="M230.87 220.25c-3.14 1.81-16.37-3.75-23.38-15.95 -7.01-12.2-5.18-25.83-2-28.23 3.18-2.4 16.37 3.75 23.38 15.95C235.88 204.21 234.02 218.44 230.87 220.25z"/>
  <polygon fill="#FFDC7B" points="203.29 192.82 225.53 293.67 254.08 299.79 232.23 200 "/>
  <path fill="#F9CA55" d="M235.58 215.27c-0.24 1.35-0.48 2.71-0.7 4.06 -0.18 1.11-0.35 2.21-0.52 3.32 -0.02 0.15-0.04 0.3-0.06 0.48 -0.22 1.84-0.45 3.67-0.62 5.51 -0.35 3.72-0.66 7.44-0.77 11.18 -0.51 16.38-0.14 32.94 0.85 49.3 0.13 2.13 0.27 4.27 0.43 6.4l19.91 4.26L235.58 215.27z"/>
  <path fill="#FFEEA4" d="M225.53 293.67l6.6 1.41c-1.22-5.93-2.01-11.98-2.71-18.13 -0.36-3.11-0.69-6.23-1.06-9.35 -0.05-0.42-0.22-1.61-0.34-2.41 -0.07-0.42-0.13-0.83-0.2-1.25 -1.07-6.06-2.85-11.93-4.81-17.76 -3.84-11.42-7.82-22.71-9.86-34.53l0 0c-0.22-1.29-0.41-2.58-0.59-3.88 -0.03-0.26-0.06-0.51-0.1-0.77 -0.16-1.29-1.1-9.71-1.66-15.26s-5.83-14.37-6.02-14.93c-1.78 2.48-2.83 8.77-1.48 16l-0.02 0 0.09 0.4c0.08 0.42 0.18 0.85 0.28 1.28L225.53 293.67z"/>
  <path fill="#FFEEA6" d="M252.34 318.58c-3.14 1.81-16.37-3.75-23.38-15.95 -7.01-12.2-5.62-26.49-2-28.23 3.63-1.75 16.37 3.75 23.38 15.95C257.35 302.55 255.48 316.78 252.34 318.58z"/>
  <path fill="#FFDC7B" d="M250.41 315.21c-2.36 1.36-12.85-3.77-18.79-14.11 -5.94-10.34-6.59-21.09-2.72-23.34 3.88-2.25 12.85 3.77 18.79 14.11C253.63 302.22 252.77 313.86 250.41 315.21z"/>
  <path fill="#F9CA55" d="M239.71 310.6c-0.1-2.91-0.29-5.82-0.59-8.72 -0.13-0.77-0.59-4.01-0.75-4.87 -0.38-2.13-0.77-4.27-1.22-6.38 -0.78-3.69-1.63-7.36-2.59-11.01 -0.13-0.49-0.27-0.99-0.4-1.48 -2.12-0.94-3.98-1.12-5.27-0.37 -3.88 2.25-3.22 13 2.72 23.34C233.88 305.06 236.82 308.24 239.71 310.6z"/>
  <path fill="#FFDC7B" d="M309.93 124c-3.62-0.06-12.12-11.63-11.86-25.69 0.25-14.07 8.82-24.82 12.79-25.25 3.96-0.43 12.12 11.63 11.86 25.7C322.47 112.81 313.56 124.06 309.93 124z"/>
  <polygon fill="#FFDC7B" points="300.35 86.3 267.63 184.25 288.99 204.17 321.5 107.32 "/>
  <path fill="#F9CA55" d="M316.53 122.15c-0.9 1.04-1.8 2.07-2.69 3.13 -0.72 0.86-1.44 1.72-2.15 2.58 -0.1 0.12-0.19 0.23-0.3 0.38 -1.14 1.46-2.27 2.92-3.37 4.41 -2.21 3.01-4.39 6.05-6.41 9.19 -8.85 13.79-17.04 28.19-24.59 42.74 -0.99 1.9-1.96 3.8-2.92 5.71l14.89 13.88L316.53 122.15z"/>
  <path fill="#FFEEA4" d="M267.63 184.25l4.93 4.6c2-5.71 4.43-11.31 6.98-16.95 1.29-2.86 2.61-5.7 3.89-8.56 0.17-0.39 0.64-1.49 0.95-2.24 0.16-0.39 0.32-0.78 0.47-1.17 2.19-5.75 3.68-11.7 4.99-17.71 2.58-11.77 4.95-23.5 9.27-34.69v0c0.47-1.22 0.97-2.43 1.49-3.63 0.1-0.24 0.21-0.47 0.31-0.71 0.53-1.19 4.04-8.9 6.42-13.94 2.38-5.05 2.38-15.32 2.51-15.9 -2.81 1.22-6.94 6.07-9.49 12.97l-0.01-0.01 -0.13 0.39c-0.14 0.41-0.28 0.82-0.41 1.24L267.63 184.25z"/>
  <path fill="#FFEEA6" d="M277.84 219.39c-3.62-0.06-12.12-11.63-11.86-25.7 0.25-14.07 8.78-25.61 12.79-25.25 4.01 0.36 12.12 11.63 11.86 25.7C290.38 208.21 281.46 219.46 277.84 219.39z"/>
  <path fill="#FFDC7B" d="M277.91 215.51c-2.72-0.05-9.09-9.84-8.88-21.76 0.21-11.92 5.18-21.48 9.66-21.42 4.48 0.06 9.09 9.84 8.87 21.76C287.35 206.01 280.64 215.56 277.91 215.51z"/>
  <path fill="#F9CA55" d="M271.11 206.06c1.41-2.55 2.74-5.14 3.97-7.78 0.29-0.73 1.55-3.74 1.86-4.56 0.77-2.02 1.53-4.06 2.23-6.1 1.23-3.57 2.38-7.15 3.44-10.77 0.14-0.49 0.28-0.98 0.42-1.48 -1.34-1.89-2.84-3-4.33-3.02 -4.48-0.06-9.44 9.5-9.66 21.42C268.96 198.31 269.84 202.55 271.11 206.06z"/>
  <polygon fill="#FFDC7B" points="254.02 148.96 271.38 260.28 298.24 236.58 281.26 127.48 "/>
  <path fill="#F9CA55" d="M287.73 169.07c-2.77 4.25-1.29 8.18-8.8 24.2 -7.52 16.02-12.69 16.62-14.37 23.28l6.82 43.73 26.87-23.7L287.73 169.07z"/>
  <path fill="#FFEEA6" d="M293.47 222.56c3.39 1.29 7.46 15.05 2.45 28.2 -5.01 13.15-18.53 20.2-20.59 19.42 -2.06-0.78-7.46-15.05-2.45-28.2S290.08 221.27 293.47 222.56z"/>
  <path fill="#FFDC7B" d="M292.09 226.19c2.54 0.97 5.22 12.34 0.97 23.48 -4.25 11.15-14.8 17.47-16.35 16.88 -1.55-0.59-5.22-12.33-0.97-23.48C279.99 231.92 289.54 225.22 292.09 226.19z"/>
  <path fill="#F9CA55" d="M273.87 256.95c2.71-2.33 12.53-16.43 21.37-17.76 0.35-6.9-1.42-12.35-3.15-13 -2.54-0.97-12.1 5.73-16.35 16.88C273.9 247.9 273.55 252.85 273.87 256.95z"/>
  <path fill="#FFDC7B" d="M276.62 115.69c3.39 1.29 7.46 15.05 2.45 28.2 -5.01 13.15-18.53 20.2-20.59 19.42s-7.46-15.05-2.45-28.2C261.04 121.96 273.24 114.4 276.62 115.69z"/>
  <path fill="#FFE79C" d="M254.02 148.96c0.16 2.8 0.6 5.37 1.18 7.55l7.71 49.42c0.04-0.1 0.08-0.21 0.13-0.33 1.2-3.06 2.36-6.15 3.32-9.31 1.12-3.7 2.13-7.44 2.76-11.25 0.02-0.12 0.03-0.23 0.04-0.31 0.14-1.37 0.29-2.74 0.41-4.12 1.12-13.14 1.25-26.46-0.16-39.59 -0.09-0.86-0.19-1.72-0.29-2.57 -0.23-1.48-0.46-2.96-0.74-4.43 -0.56-2.96-1.17-5.93-1.95-8.85 -0.34-1.27-0.69-2.53-1.06-3.79 -3.59 3.34-7.13 8-9.31 13.73C254.24 139.81 253.78 144.64 254.02 148.96L254.02 148.96z"/>
  <polygon fill="#FFDC7B" points="201.42 209.98 208.12 101.04 184.71 83.58 178.09 191.39 "/>
  <path fill="#FFE79C" d="M181.81 152.33c1.27-2.73 2.52-5.47 3.71-8.23 0.24-0.61 1.16-2.86 1.27-3.15 0.64-1.63 1.27-3.26 1.87-4.91 2.55-7.07 4.75-14.25 6.29-21.61 0-0.01 0-0.02 0.01-0.03 0.02-7.65 0.08-15.3 0.31-22.94l-10.55-7.87 -4.42 71.93C180.81 154.45 181.32 153.39 181.81 152.33z"/>
  <path fill="#FFEEA6" d="M194.13 67.22c3.61-0.33 13.32 10.23 14.6 24.25 1.29 14.01-5.93 26.42-9.95 26.5 -4.02 0.08-13.32-10.23-14.6-24.24C182.9 79.71 190.52 67.55 194.13 67.22z"/>
  <path fill="#FFDC7B" d="M187.77 173.55c3.61-0.33 13.32 10.23 14.6 24.25 1.29 14.01-6.06 25.64-9.95 26.5 -3.89 0.86-13.32-10.23-14.6-24.25C176.53 186.03 184.16 173.88 187.77 173.55z"/>
  <path fill="#F9CA55" d="M201.91 207.67l4.75-82.97c-7.86 10.21-10.69 53.48-28.57 66.67l-0.01 0.03 0 0c-0.42 2.73-0.55 5.65-0.28 8.65 1.28 14.01 10.71 25.1 14.6 24.25C195.35 223.65 200.22 216.92 201.91 207.67z"/>
  <path fill="#FFDC7B" d="M194.49 71.09c2.71-0.25 10.11 8.78 11.2 20.66 1.09 11.88-2.8 21.92-7.26 22.35 -4.46 0.43-10.11-8.78-11.2-20.66S191.77 71.34 194.49 71.09z"/>
  <path fill="#F9CA55" d="M194.28 83.43c2.22-2.06 4.48-4.06 6.68-6.11 -2.39-3.97-5.07-6.36-6.47-6.23 -2.56 0.23-7.74 9.39-7.37 20.42C189.32 88.62 191.67 85.86 194.28 83.43z"/>
  <polygon fill="#FFDC7B" points="280.11 272.67 286.81 163.73 263.4 146.27 256.78 254.09 "/>
  <path fill="#FFE79C" d="M260.5 215.02c1.27-2.73 2.52-5.47 3.71-8.23 0.24-0.61 1.16-2.86 1.27-3.15 0.64-1.63 1.27-3.27 1.87-4.91 2.55-7.07 4.75-14.25 6.29-21.61 0-0.01 0-0.02 0.01-0.03 0.02-7.65 0.08-15.3 0.31-22.94l-10.55-7.87 -4.42 71.93C259.49 217.14 260.01 216.09 260.5 215.02z"/>
  <path fill="#FFEEA6" d="M272.82 129.92c3.61-0.33 13.32 10.23 14.6 24.25 1.29 14.01-5.93 26.42-9.95 26.5 -4.02 0.08-13.32-10.23-14.6-24.24C261.59 142.4 269.21 130.25 272.82 129.92z"/>
  <path fill="#FFDC7B" d="M266.46 236.25c3.61-0.33 13.32 10.23 14.6 24.25 1.29 14.01-6.06 25.64-9.95 26.5 -3.89 0.86-13.32-10.23-14.6-24.25C255.22 248.73 262.85 236.57 266.46 236.25z"/>
  <path fill="#F9CA55" d="M280.6 270.36l4.75-82.97c-7.86 10.21-10.69 53.48-28.57 66.67l-0.01 0.03 0 0c-0.42 2.73-0.55 5.65-0.28 8.65 1.28 14.01 10.71 25.1 14.6 24.25C274.03 286.34 278.91 279.61 280.6 270.36z"/>
  <path fill="#FFDC7B" d="M273.18 133.78c2.71-0.25 10.11 8.78 11.2 20.66 1.09 11.88-2.8 21.92-7.26 22.35s-10.11-8.78-11.2-20.66C264.83 144.26 270.46 134.03 273.18 133.78z"/>
  <path fill="#F9CA55" d="M272.97 146.13c2.22-2.06 4.48-4.06 6.68-6.11 -2.39-3.97-5.07-6.36-6.47-6.23 -2.56 0.24-7.74 9.39-7.37 20.42C268.01 151.31 270.36 148.55 272.97 146.13z"/>
  <polygon fill="#FFDC7B" points="128.52 181.71 174.11 98.32 159.16 74.76 114.06 157.29 "/>
  <path fill="#FFE79C" d="M131.6 127.93c2.15-1.63 4.27-3.28 6.36-4.97 0.44-0.38 2.09-1.78 2.3-1.96 1.17-1.03 2.34-2.05 3.48-3.11 4.89-4.53 9.48-9.29 13.55-14.48 0.01-0.01 0.01-0.01 0.02-0.02 2.79-6.04 5.62-12.07 8.6-18.02l-6.74-10.62 -30.09 55.06C129.91 129.19 130.76 128.57 131.6 127.93z"/>
  <path fill="#FFEEA6" d="M173.65 65.74c3.4 1.24 8.4 13.65 4.48 25.26 -3.91 11.62-14.97 18.43-18.65 16.81s-8.4-13.64-4.48-25.26C158.91 70.94 170.25 64.5 173.65 65.74z"/>
  <path fill="#FFDC7B" d="M129.32 147.2c3.4 1.24 8.4 13.65 4.48 25.26 -3.91 11.62-14.8 17.76-18.65 16.81 -3.85-0.94-8.4-13.64-4.48-25.26C114.58 152.4 125.92 145.96 129.32 147.2z"/>
  <path fill="#F9CA55" d="M129.81 180.09l34.4-63.66c-10.84 4.8-29.11 37.86-50.14 40.84l-0.02 0.02 0 0c-1.37 1.99-2.55 4.24-3.39 6.73 -3.91 11.62 0.63 24.32 4.48 25.26C118.05 189.99 124.91 186.7 129.81 180.09z"/>
  <path fill="#FFDC7B" d="M172.57 68.95c2.55 0.93 6.01 11.16 2.69 21.01 -3.31 9.85-10.49 16.17-14.7 14.66 -4.21-1.52-6.01-11.16-2.69-21.01C161.19 73.76 170.02 68.02 172.57 68.95z"/>
  <path fill="#F9CA55" d="M167.91 78.63c2.76-0.7 5.54-1.35 8.29-2.05 -0.74-4.14-2.3-7.14-3.62-7.63 -2.42-0.88-10.44 4.2-14.11 13.08C161.53 80.66 164.66 79.46 167.91 78.63z"/>
  <polygon fill="#FFDC7B" points="307.8 217.59 353.39 134.2 338.44 110.64 293.33 193.17 "/>
  <path fill="#FFE79C" d="M310.88 163.81c2.15-1.63 4.27-3.28 6.36-4.97 0.44-0.38 2.09-1.78 2.3-1.96 1.17-1.03 2.34-2.05 3.48-3.11 4.89-4.53 9.48-9.29 13.55-14.48 0.01-0.01 0.01-0.01 0.02-0.02 2.79-6.04 5.62-12.07 8.6-18.02l-6.74-10.62L308.35 165.7C309.19 165.07 310.04 164.45 310.88 163.81z"/>
  <path fill="#FFEEA6" d="M352.93 101.62c3.4 1.24 8.4 13.65 4.48 25.26 -3.91 11.62-14.97 18.43-18.65 16.81s-8.4-13.64-4.48-25.26C338.19 106.82 349.53 100.38 352.93 101.62z"/>
  <path fill="#FFDC7B" d="M308.6 183.09c3.4 1.24 8.4 13.65 4.48 25.26 -3.91 11.62-14.8 17.76-18.65 16.81 -3.85-0.94-8.4-13.64-4.48-25.26C293.86 188.28 305.2 181.84 308.6 183.09z"/>
  <path fill="#F9CA55" d="M309.09 215.97l34.4-63.66c-10.84 4.8-29.11 37.86-50.14 40.84l-0.02 0.02 0 0c-1.37 1.99-2.55 4.24-3.39 6.73 -3.91 11.62 0.63 24.32 4.48 25.26C297.32 225.87 304.19 222.58 309.09 215.97z"/>
  <path fill="#FFDC7B" d="M351.85 104.83c2.55 0.93 6.01 11.16 2.69 21.01 -3.31 9.85-10.49 16.17-14.7 14.66 -4.21-1.52-6.01-11.16-2.69-21.01C340.47 109.64 349.29 103.9 351.85 104.83z"/>
  <path fill="#F9CA55" d="M347.19 114.51c2.76-0.7 5.54-1.35 8.29-2.05 -0.74-4.14-2.3-7.14-3.62-7.63 -2.42-0.88-10.44 4.2-14.11 13.08C340.8 116.54 343.93 115.34 347.19 114.51z"/>
</svg>