<?xml version="1.0" encoding="utf-8"?>
<!-- Generator: Adobe Illustrator 16.0.3, SVG Export Plug-In . SVG Version: 6.00 Build 0)  -->
<!DOCTYPE svg PUBLIC "-//W3C//DTD SVG 1.1//EN" "http://www.w3.org/Graphics/SVG/1.1/DTD/svg11.dtd">
<svg version="1.1" id="Ebene_1" xmlns="http://www.w3.org/2000/svg" xmlns:xlink="http://www.w3.org/1999/xlink" x="0px" y="0px"
	 width="450px" height="450px" viewBox="0 0 450 450" enable-background="new 0 0 450 450" xml:space="preserve">
<g id="fussili">
	<g>
		<g>
			<path fill="#F5CD2C" d="M449.21,272.955c-1.054-24.204-12.627-31.572-34.729-39.992c12.628-11.577,24.207-23.157,21.05-42.095
				c-3.159-14.732-19.996-36.835-29.471-47.359c37.889,1.053,8.421-66.303-28.411-48.411c-7.37-19.995-42.101-32.625-54.729-12.63
				c-3.154-13.683-4.206-22.098-21.045-24.205c-11.578-1.054-27.365,2.107-37.887,6.315c-6.316-21.049-11.578-36.835-35.781-39.99
				c-16.842-2.105-35.784,1.053-45.258,15.785V39.32c-19.994-4.207-41.039-5.262-42.094,19.997
				c-21.047-14.733-37.887,18.943-28.413,35.78c-12.63,0-34.73,5.262-41.042,17.892c-6.316,13.684,1.049,26.309,4.208,38.938
				c-1.641-0.347-3.223-0.692-4.757-1.03l0.548-0.023c-3.734-0.935-8.038-1.812-12.625-2.484c-4.023-0.703-7.855-1.147-11.749-1.131
				c-13.044-0.565-26.419,1.356-34.566,8.879c-17.891,14.731-16.84,42.094,5.266,49.462c-2.107,17.89-4.215,36.833-2.107,55.778
				c3.157,26.311,13.681,25.26,31.571,39.989c6.317,3.157-1.054,38.938,5.258,50.517c12.633,22.102,43.154,26.313,64.202,11.576
				c13.682,21.051,18.943,43.148,44.198,55.78c19.997,8.418,53.676,10.521,73.67,4.209c24.203-7.367,32.627-33.681,63.144-31.572
				c18.942,1.052,56.829,12.628,64.199-14.733c3.157-11.578-3.154-18.942-13.681-14.733c1.055-5.263,3.154-10.524,5.259-15.785
				c17.892,6.313,30.522,18.942,48.413,3.155c12.627-12.627,12.627-27.361,13.682-44.199c10.522,0,22.101,2.105,30.519-6.314
				C452.369,291.898,449.21,281.373,449.21,272.955z M61.778,278.615l-19.27-19.283c-13.184-19.283,4.058-44.717,4.058-44.717
				l20.282,33.531L61.778,278.615z M44.031,176.115c-5.578-0.947-20.79-1.97-22.816,6.656c0,0,4.265-18.755,16.33-18.755
				c12.063,0,24.235,5.069,24.235,5.069l5.068,13.688C66.847,182.771,49.608,177.061,44.031,176.115z M73.948,349.68
				c-3.042-8.189,0-28.479,0-28.479L99.3,351.645C99.3,351.645,76.989,357.869,73.948,349.68z M110.455,116.351
				c0,0-7.099,1.125-11.155,9.185c-4.056,8.059-1.352,28.34-13.354,14.145c0,0-1.857-12.171,13.354-23.327
				C114.514,105.194,110.455,116.351,110.455,116.351z M213.901,401.291c-6.087,3.007-31.438,7.131-44.625,3.209
				c-13.185-3.924-17.239-29.518-17.239-29.518l12.168,2.043c0,0,12.17,16.187,15.211,17.158c3.047,0.971,24.343-6.848,24.343-6.848
				S219.984,398.281,213.901,401.291z M222.52,52.008c-1.522-1.577-22.818-3.606-22.818-3.606s23.325-20.281,38.536,0l7.1,16.226
				C245.338,64.629,224.041,53.586,222.52,52.008z M405.572,120.407c4.055,11.157-6.728,9.126-12.491,12.168
				c-5.766,3.044-12.489-25.354-12.489-25.354S401.516,109.25,405.572,120.407z M393.526,338.445
				c-4.944,4.056-27.505-9.178-27.505-9.178c8.112-0.049,27.505-22.275,27.505-22.275l12.937,6.068
				C406.463,313.063,398.471,334.391,393.526,338.445z M406.463,186.275c-1.136-7.148-5.962-22.26-5.962-22.26
				s13.184,13.184,17.239,21.404c4.059,8.226-11.277,36.467-11.277,36.467v-8.198C406.463,213.686,407.599,193.425,406.463,186.275z
				 M418.424,288.755c-3.374-6.087-11.838-17.239-7.563-18.267c4.271-1.023,0.795-17.228,7.563-15.16
				c6.769,2.068,13.514,8.072,15.578,15.16C436.063,277.575,418.424,288.755,418.424,288.755z"/>
		</g>
		<g>
			<g>
				<path fill="#FBE99F" d="M176.253,60.553c-15.686,20.354-4.593,49.256,14.29,63.325c9.968,7.425,22.528,9.429,33.013,15.816
					c6.606,4.027,11.221,10.812,12.622,18.381c1.828,9.879-5.248,18.699-12.895,23.838c-1.369,0.92,0.748,1.219,1.508,0.707
					c10.991-7.392,17.453-19.239,11.621-32.117c-5.559-12.271-19.078-15.933-30.493-20.508
					c-25.52-10.232-46.832-44.188-27.398-69.405C179.183,59.732,176.729,59.935,176.253,60.553L176.253,60.553z"/>
				<path fill="#FBE99F" d="M192.803,63.045c-21.723,16.989,1.396,38.903,17.217,49.702c5.979,4.081,12.095,7.35,17.626,12.15
					c6.799,5.894,12.605,12.952,17.656,20.375c4.822,7.091,9.532,14.14,8.813,23.096c-0.284,3.558-2.336,6.144-4.506,8.763
					c-0.61,0.739-5.848,6.183-6.199,5.611c-0.592-0.949-2.911-0.016-2.229,1.08c3.113,5.014,13.31-9.479,14.446-11.549
					c3.396-6.17-0.058-14.829-3.073-20.322c-4.225-7.688-9.886-14.902-15.773-21.367c-10.43-11.452-24.281-17.635-35.8-27.668
					c-11.931-10.392-22.182-26.517-6.555-38.737C195.731,63.159,193.769,62.292,192.803,63.045L192.803,63.045z"/>
				<path fill="#FBE99F" d="M196.878,73.671c-0.306-5.367,10.229-6.005,13.875-6.093c6.75-0.159,12.082,1.045,17.286,5.451
					c8.26,6.993,13.492,16.928,21.936,23.895c7.258,5.991,16.596,9.268,25.996,9.261c4.92-0.003,9.668-0.599,14.535-1.251
					c4.994-0.668,12.252-1.96,15.58,2.834c0.654,0.943,2.968-0.02,2.225-1.088c-5.51-7.94-19.528-2.959-27.246-2.437
					c-16.715,1.131-29.065-6.766-39.479-19.135c-7.688-9.13-13.719-18.637-26.661-19.441c-5.112-0.316-20.969,0.167-20.517,8.173
					C194.48,75.152,196.941,74.794,196.878,73.671L196.878,73.671z"/>
				<path fill="#FBE99F" d="M195.734,83.813c7.223-6.895,15.376-9.927,24.063-4.441c4.646,2.932,8.311,7.445,11.723,11.666
					c7.771,9.617,14.657,19.422,24.104,27.567c9.613,8.287,20.63,13.587,33.207,15.256c11.873,1.583,24.826-0.051,32.36,11.213
					c0.411,0.616,2.644-0.344,2.438-0.655c-7.938-11.863-21.938-10.069-34.452-11.733c-17.063-2.271-30.976-13.146-42.138-25.632
					c-8.833-9.883-15.358-23.288-27.312-29.92c-9.434-5.236-19.272,0.234-26.205,6.848
					C192.991,84.492,195.305,84.221,195.734,83.813L195.734,83.813z"/>
				<path fill="#FBE99F" d="M189.076,141.231c-8.975,0.448-16.603,7.029-22.157,13.562c-3.987,4.687-7.475,9.722-10.093,15.303
					c-3.125,6.664-2.095,14.808-0.536,21.731c3.633,16.165,11.031,29.94,9.405,47.045c-1.467,15.463-8.534,29.803-10.822,45.138
					c-0.035,0.25,2.329,0.07,2.437-0.654c1.92-12.866,6.873-24.965,9.62-37.643c2.839-13.097,1.094-25.563-3.011-38.181
					c-4.033-12.39-10.137-26.271-4.134-39.064c4.745-10.118,15.993-25.682,28.227-26.294
					C188.628,142.142,190.682,141.15,189.076,141.231L189.076,141.231z"/>
				<path fill="#FBE99F" d="M131.497,299.264c8.459-5.547,12.082-19.785,15.345-28.688c2.317-6.325,4.963-12.688,6.145-19.333
					c1.295-7.286-0.615-14.418-3.404-21.107c-3.358-8.051-7.087-15.22-8.838-23.866c-1.863-9.19-1.882-18.743-0.226-27.956
					c1.637-9.109,5.919-17.656,12.454-24.196c6.121-6.127,14.033-10.215,21.115-15.087c1.36-0.938-0.741-1.269-1.516-0.736
					c-11.858,8.163-24.419,14.697-30.653,28.433c-6.94,15.298-6.182,33.254-1.38,49.058c2.385,7.849,7.101,14.749,9.325,22.704
					c2.375,8.492,0.239,16.625-2.68,24.639c-2.104,5.782-4.134,11.584-6.443,17.29c-2.324,5.747-5.258,14.505-10.762,18.114
					C128.6,299.434,130.714,299.777,131.497,299.264L131.497,299.264z"/>
				<path fill="#FBE99F" d="M169.071,179.553c2.109,10.099,5.57,19.657,13.021,27.041c7.28,7.215,17.438,11.148,26.788,14.833
					c5.584,2.202,11.464,3.8,17.409,4.604c7.102,0.953,13.771-0.887,20.763-1.646c14.673-1.594,27.093-0.507,38.396,9.796
					c19.315,17.613,25.139,49.625,21.783,74.471c-1.207,8.931-8.045,25.267-18.082,14.255c-5.764-6.318-7.017-17.134-1.242-23.765
					c0.969-1.112-1.396-1.17-1.98-0.496c-7.643,8.781-3.484,31.977,11.277,29.603c8.364-1.347,11.408-13.046,12.473-19.867
					c2.092-13.418,0.57-27.477-2.842-40.534c-6.203-23.744-22.484-46.655-49.242-45.693c-7.492,0.269-14.671,1.8-22.098,2.516
					c-9.551,0.921-19.057-2.219-27.797-5.719c-10.619-4.254-21.173-9.322-28.042-18.824c-4.479-6.197-6.606-13.849-8.147-21.226
					C171.313,177.97,168.869,178.589,169.071,179.553L169.071,179.553z"/>
				<path fill="#FBE99F" d="M271.945,307.604c-6.514,4.533-1.646,13.527,1.475,18.695c4.516,7.487,11.625,15.977,20.398,18.346
					c20.683,5.59,33.244-10.793,35.791-29.489c1.642-12.075-0.601-24.279-5.393-35.388c-3.318-7.696-7.313-14.879-9.693-22.963
					c-2.604-8.824-4.173-17.808-8.134-26.186c-11.133-23.533-38.756-18.331-59.833-16.893c-13.525,0.924-26.54-2.115-36.604-11.668
					c-5.499-5.221-9.834-22.962-1.644-27.339c1.478-0.79,0.119-1.724-0.998-1.128c-8.508,4.548-5.959,16.116-3.04,23.454
					c4.234,10.654,17.18,16.384,27.901,17.886c24.615,3.445,56.967-11.78,71.78,16.344c3.919,7.444,5.438,16.037,7.556,24.101
					c2.329,8.863,6.519,16.748,10.271,25.043c5.336,11.786,7.026,24.799,5.008,37.56c-1.742,11.006-7.346,22.744-18.969,25.735
					c-12.994,3.347-22.836-5.522-29.928-15.103c-3.06-4.131-10.807-15.715-4.404-20.168
					C274.846,307.494,272.775,307.027,271.945,307.604L271.945,307.604z"/>
				<path fill="#FBE99F" d="M185.687,182.046c4.535-10.542,17.012-20.215,27.028-10.067c6.305,6.389,6.824,16.648,10.641,24.395
					c3.16,6.415,11.4,9.358,18.143,9.7c15.146,0.763,29.867-2.848,44.881-4.069c0.609-0.05,2.67-1.067,1.068-0.936
					c-17.212,1.398-36.509,8.007-53.326,1.853c-9.564-3.5-10.513-14.051-13.773-22.339c-3.411-8.668-9.158-15.353-19.091-13.819
					c-8.336,1.284-14.792,8.339-17.97,15.724C183.13,182.853,185.426,182.655,185.687,182.046L185.687,182.046z"/>
				<path fill="#FBE99F" d="M176.577,173.829c-3.275-15.75,20.032-21.784,31.237-18.114c11.396,3.733,16.753,16.365,20.604,26.616
					c3.917,10.43,10.711,14.968,21.581,16.997c11.521,2.15,23.843-0.738,34.994-3.488c1.433-0.354,1.218-1.129-0.208-0.777
					c-15.125,3.729-39.727,9.124-50.481-6.164c-3.173-4.508-4.448-10.327-6.644-15.328c-2.352-5.358-5.84-10.308-10.156-14.251
					c-7.449-6.812-17.901-7.093-27.044-4.213c-8.35,2.629-18.39,9.425-16.318,19.376
					C174.252,175.022,176.703,174.432,176.577,173.829L176.577,173.829z"/>
				<path fill="#FBE99F" d="M202.698,270.932c-23.946-13.543-40.372,19.992-36.777,39.715c3.103,17.015,21.1,19.158,35.15,22.151
					c11.205,2.384,19.671,8.14,25.002,18.423c1.198,2.305,1.883,4.812,2.594,7.293c0.565,1.975,2.164,5.397,1.786,7.486
					c0.781-0.211,1.564-0.418,2.349-0.629c-0.21-0.26-0.358-0.555-0.446-0.881c-0.354-0.836-2.75-0.086-2.437,0.654
					c0.146,0.344,0.299,0.91,0.617,1.172c0.534,0.438,2.207,0.162,2.349-0.631c0.559-3.082-1.779-7.926-2.671-10.834
					c-1.924-6.275-5.879-11.836-10.825-16.082c-12.621-10.84-31.755-6.371-44.669-16.852c-18.74-15.205,0.803-64.091,26.033-49.818
					C201.431,272.479,203.683,271.488,202.698,270.932L202.698,270.932z"/>
				<path fill="#FBE99F" d="M241.484,367.712c3.553-11.782,2.229-26.728-4.539-37.139c-6.744-10.374-21.36-11.345-31.943-15.185
					c-10.783-3.914-20.42-12.733-14.656-24.779c4.267-8.916,16.578-14.963,23.436-5.428c0.5,0.694,2.854-0.138,2.259-0.968
					c-11.272-15.67-34.88,4.517-28.829,19.955c5.003,12.769,23.817,14.293,34.834,18.263c17.849,6.432,21.981,29.047,16.999,45.572
					C238.773,368.9,241.229,368.557,241.484,367.712L241.484,367.712z"/>
				<path fill="#FBE99F" d="M76.93,241.218c9.297-7.511,15.198-21.626,16.472-33.239c1.572-14.361-11.381-23.377-19.334-33.259
					c-0.454-0.563-2.789,0.26-2.275,0.901c8.083,10.047,20.052,18.359,19.187,32.719c-0.671,11.14-7.252,25.584-15.964,32.622
					C73.976,241.799,76.415,241.639,76.93,241.218L76.93,241.218z"/>
				<path fill="#FBE99F" d="M84.899,164.339c1.64,8.974,9.939,13.646,13.843,21.471c4.753,9.526,8.562,21.378,8.13,32.079
					c-0.444,11.026-6.309,19.893-14.42,26.813c-3.575,3.048-11.84,7.592-12.624,12.776c-0.14,0.908,2.312,0.467,2.429-0.326
					c0.454-2.995,4.151-5.409,6.298-7.245c3.079-2.628,6.252-5.138,9.257-7.854c6.988-6.326,10.612-15.197,11.491-24.491
					c0.972-10.26-3.372-21.419-7.334-30.686c-3.68-8.605-12.917-13.783-14.637-23.188C87.189,162.896,84.741,163.485,84.899,164.339
					L84.899,164.339z"/>
				<path fill="#FBE99F" d="M74.753,291.109c0.597,10.553,8.53,18.266,16.132,24.722c9.229,7.837,19.941,14.794,26.561,25.163
					c0.546,0.854,2.887-0.026,2.241-1.037c-5.549-8.691-14.125-15.032-22.03-21.448c-8.906-7.228-19.764-15.616-20.466-28.054
					C77.135,289.446,74.691,290.002,74.753,291.109L74.753,291.109z"/>
				<path fill="#FBE99F" d="M113.058,344.343c19.889,0.624,37.687-17.214,42.06-35.581c3.296-13.85,3.54-47.5,24.875-44.537
					c1.12,0.155,2.517-1.423,0.875-1.65c-17.8-2.473-22.537,16.66-25.177,30.369c-1.674,8.688-2.559,17.736-6.338,25.845
					c-5.811,12.455-21.362,24.346-35.418,23.903C112.838,342.656,111.407,344.29,113.058,344.343L113.058,344.343z"/>
				<path fill="#FBE99F" d="M123.5,356.09c1.842,1.729,7.335-2.498,8.55-3.288c7.016-4.563,13.548-9.506,20.858-13.622
					c8.173-4.6,14.323-10.218,17.564-19.215c2.27-6.302,3.647-13.697,4.076-20.384c0.018-0.276-2.392-0.022-2.437,0.653
					c-0.821,12.818-4.106,26.721-14.675,34.879c-5.166,3.988-11.314,6.488-16.65,10.236c-1.595,1.123-13.876,10.976-14.985,9.937
					C125.359,354.868,123.191,355.798,123.5,356.09L123.5,356.09z"/>
				<path fill="#FBE99F" d="M152.136,367.322c-2.763-3.98-2.549-8.736-2.93-13.367c-0.333-4.016-1.233-7.455-3.154-10.975
					c-0.521-0.955-2.843-0.054-2.232,1.071c4.146,7.595,1.149,17.229,6.085,24.343C150.534,369.3,152.858,368.359,152.136,367.322
					L152.136,367.322z"/>
				<path fill="#FBE99F" d="M143.004,331.813c-7.802-14.15-17.903-26.24-14.521-43.482c2.909-14.828,18.848-21.789,29.439-30.42
					c1.285-1.045-0.655-1.987-1.636-1.189c-10.701,8.721-26.136,15.592-29.871,30.184c-4.634,18.095,6.151,31.117,14.364,46.006
					C141.336,333.92,143.646,332.977,143.004,331.813L143.004,331.813z"/>
				<path fill="#FBE99F" d="M148.785,249.443c-15.537,4.604-31.747,14.084-36.189,30.723c-5.676,21.266,11.265,41.378,16.924,60.637
					c0.311,1.055,2.744,0.393,2.438-0.654c-4.956-16.862-15.861-31.284-17.512-49.176c-1.978-21.447,16.25-34.496,34.753-39.981
					C150.675,250.553,150.274,249,148.785,249.443L148.785,249.443z"/>
				<path fill="#FBE99F" d="M221.81,395.404c-0.015,0.287-0.069,0.562-0.212,0.813c-0.081,0.14-0.187,0.269-0.306,0.378
					c-0.162,0.15-0.131,0.047,0.191,0.029c-0.551,0.029-1.255,0.174-1.615,0.646c-0.341,0.449,0.288,0.655,0.641,0.638
					c1.579-0.086,3.629-1.019,3.727-2.839C224.289,394.146,221.851,394.662,221.81,395.404L221.81,395.404z"/>
				<path fill="#FBE99F" d="M217.729,400.793c10.98-7.744,24.669-7.804,36.936-12.288c8.021-2.935,18.199-6.881,23.169-14.339
					c5.459-8.191,4.559-18.632,1.178-27.466c-4.26-11.149-13.039-19.931-10.134-32.709c0.249-1.097-2.229-0.759-2.457,0.229
					c-2.207,9.707,2.065,17.555,6.608,25.84c5.425,9.893,9.269,22.383,3.181,32.889c-5.336,9.203-19.573,13.691-29.146,16.176
					c-10.67,2.771-21.693,4.196-30.913,10.7C214.795,400.777,216.828,401.43,217.729,400.793L217.729,400.793z"/>
				<path fill="#FBE99F" d="M249.188,325.589c2.401,5.374,3.058,11.239,5.258,16.675c1.729,4.27,5.076,7.817,7.809,11.436
					c7.346,9.711,1.997,22.464-8.835,26.687c-14.106,5.497-30.478-2.403-44.313,4.423c-1.462,0.724,0.76,0.932,1.474,0.578
					c14.837-7.32,33.785,3.274,48.33-6.4c6.738-4.482,11.424-13.209,8.566-21.221c-1.771-4.973-6.295-8.839-9.047-13.25
					c-3.711-5.955-3.974-13.244-6.806-19.58C251.286,324.176,248.904,324.956,249.188,325.589L249.188,325.589z"/>
				<path fill="#FBE99F" d="M191.809,369.4c-9.809,8.062-23.94-29.863-28.513-35.526c-0.632-0.783-2.966,0.134-2.244,1.03
					c5.646,6.99,18.369,46.938,32.333,35.468C194.666,369.318,192.675,368.691,191.809,369.4L191.809,369.4z"/>
				<path fill="#FBE99F" d="M191.382,371.462c11.048-7.512,24.174-12.567,37.622-12.846c1.395-0.029,1.869-1.834,0.212-1.8
					c-14.1,0.289-27.879,5.647-39.456,13.517C188.394,371.266,190.39,372.139,191.382,371.462L191.382,371.462z"/>
				<path fill="#FBE99F" d="M185.406,367.775c7.908,0.156,10.473-8.362,11.826-14.711c2.046-9.584,0.515-20.398,3.638-29.67
					c0.463-1.369-1.975-1.406-2.341-0.322c-2.165,6.423-1.758,13.927-2.406,20.607c-0.617,6.338-1.427,22.407-10.522,22.229
					C184.173,365.881,183.76,367.744,185.406,367.775L185.406,367.775z"/>
				<path fill="#FBE99F" d="M203.892,316.223c4.671-9.73,11.357-16.096,21.715-19.406c6.276-2.01,11.363-3.5,16.543-7.875
					c8.908-7.53,19.631-22.614,6.166-31.26c-0.787-0.508-2.992,0.598-1.906,1.297c15.395,9.883-2.514,28.424-12.992,33.81
					c-5.787,2.974-12.376,3.545-18.136,6.889c-6.359,3.692-10.576,9.894-13.688,16.376
					C201.029,317.223,203.485,317.068,203.892,316.223L203.892,316.223z"/>
				<path fill="#FBE99F" d="M259.418,255.768c21.846,25.024-18.277,56.346-40.616,61.774c-1.476,0.36-1.132,1.599,0.333,1.243
					c23.131-5.623,65.309-37.899,42.545-63.979C261.115,254.16,258.783,255.039,259.418,255.768L259.418,255.768z"/>
				<path fill="#FBE99F" d="M207.608,341.814c0.997,6.903,0.385,14.963-3.03,21.164c-0.251,0.455,2.052,0.267,2.413-0.39
					c3.432-6.229,4.056-14.485,3.052-21.429C209.958,340.559,207.502,341.093,207.608,341.814L207.608,341.814z"/>
				<path fill="#FBE99F" d="M113.522,111.796c10.086,3.155,20.832,3.788,29.856,9.724c6.208,4.08,10.523,10.296,15.625,15.552
					c0.495,0.51,2.774-0.371,2.282-0.877c-5.583-5.751-10.258-12.023-17.048-16.487c-8.458-5.562-19.286-5.989-28.745-8.945
					C114.876,110.569,112.682,111.534,113.522,111.796L113.522,111.796z"/>
				<path fill="#FBE99F" d="M117.79,97.621c20.704,0.218,57.905,11.92,51.293,39.211c-0.156,0.637,2.252,0.26,2.411-0.399
					c6.732-27.785-31.024-39.668-52.148-39.892C118.783,96.537,116.549,97.606,117.79,97.621L117.79,97.621z"/>
				<path fill="#FBE99F" d="M319.91,87.487c-4.555,2.221-8.156,12.163-9.359,16.737c-2.785,10.59,0.285,20.549,6.269,29.369
					c6.6,9.729,14.727,17.364,17.537,29.22c1.577,6.653,1.26,13.772,0.1,20.457c-0.648,3.726-4.951,12.024-4.742,13.882
					c-0.084-0.76-2.535-0.224-2.434,0.655c0.1,0.895,0.004,0.75,0.441,1.332c0.181,0.24,0.714,0.219,0.958,0.173
					c5.861-1.079,7.782-13.937,8.543-18.31c1.925-11.062-0.131-22.39-5.869-31.986c-6.134-10.265-15.533-17.893-18.655-29.868
					c-1.506-5.775-1.037-12.798,1.266-18.303c1.088-2.602,4.015-11.024,6.892-12.423C322.379,87.677,320.967,86.973,319.91,87.487
					L319.91,87.487z"/>
				<path fill="#FBE99F" d="M345.871,202.641c7.012-17.155,8.249-39.752,1.033-57.067c-6.305-15.126-28.295-37.503-12.399-53.662
					c6.378-6.48,17.265,0.121,22.843,4.37c6.199,4.72,10.974,11.244,13.534,18.581c2.624,7.503,3.303,15.555,5.657,23.146
					c1.887,6.086,6.568,14.786,13.525,16.128c-0.925-0.179-2.89,1.223-1.443,1.502c0.912,0.176,1.408,0.242,2.313,0.197
					c0.537-0.026,1.218-0.357,1.361-0.919c0.099-0.387,0.199-0.774,0.299-1.161c0.054-0.201-0.092-0.452-0.274-0.535
					c-18.271-8.37-13.506-31.557-22.422-46.437c-6.067-10.125-20.307-22.49-33.064-18.127c-6.461,2.208-9.328,9.524-10.056,15.737
					c-1.119,9.542,4.802,18.997,9.429,26.841c6.048,10.256,10.803,19.469,12.247,31.424c1.591,13.173,0.148,27.483-4.89,39.803
					C343.066,203.685,345.51,203.522,345.871,202.641L345.871,202.641z"/>
				<path fill="#FBE99F" d="M364.3,108.076c-10.383,4.392-11.946,16.848-10.737,26.815c1.919,15.8,9.4,30.075,9.203,46.34
					c0.813-0.218,1.623-0.436,2.438-0.653c-0.272-1-0.45-1.797-1.009-2.692c-0.377-0.604-2.636,0.335-2.438,0.652
					c0.56,0.899,0.738,1.691,1.01,2.693c0.146,0.548,2.427-0.058,2.438-0.653c0.171-14.249-4.847-27.563-8.108-41.231
					c-2.431-10.192-2.985-26.044,8.613-30.951C367.184,107.772,364.877,107.831,364.3,108.076L364.3,108.076z"/>
				<path fill="#FBE99F" d="M363.074,97.166c-13.412,0.782-17.291,19.822-19.037,30.277c-3.594,21.523,10.168,39.888,10.604,60.995
					c0.025,1.321,2.498,0.98,2.473-0.166c-0.378-18.396-11.144-34.535-11.366-52.914c-0.125-10.235,3.936-35.564,17.129-36.333
					C364.282,98.944,364.732,97.069,363.074,97.166L363.074,97.166z"/>
				<path fill="#FBE99F" d="M400.359,225.781c-5.894,10.801-15.408,17.158-27.844,13.877c-11.312-2.98-20.747-11.825-27.999-20.591
					c-14.422-17.433-28.084-48.42-11.979-68.949c0.938-1.194-1.39-1.392-2.007-0.602c-31.242,39.828,43.679,128.617,72.135,76.46
					C403.292,224.829,400.822,224.93,400.359,225.781L400.359,225.781z"/>
				<path fill="#FBE99F" d="M317.219,148.77c-15.951,24.991-6.764,62.559,12.998,82.645c12.357,12.555,28.132,22.711,46.229,22.826
					c14.613,0.094,24.483-9.328,34.161-19.025c1.014-1.018-1.383-1-1.96-0.421c-4.667,4.68-9.248,9.465-14.771,13.151
					c-7.67,5.12-17.001,5.651-25.838,4.028c-15.849-2.908-30.089-14.729-40.333-26.62c-16.497-19.148-22.136-54.709-8.216-76.521
					C320.109,147.864,317.654,148.085,317.219,148.77L317.219,148.77z"/>
				<path fill="#FBE99F" d="M360.443,326.732c-10.478,0.713-20.658-4.924-29.943-9.08c-0.581-0.258-2.816,0.647-1.98,1.021
					c9.666,4.33,19.988,9.913,30.904,9.174C360.137,327.797,362.063,326.625,360.443,326.732L360.443,326.732z"/>
				<path fill="#FBE99F" d="M308.727,307.48c-9.874,0.447-16.104-20.793-17.817-27.951c-3.05-12.723,2.077-25.27,7.354-36.611
					c0.227-0.484-2.104-0.26-2.411,0.4c-6.16,13.236-10.552,26.188-6.363,40.707c2.182,7.563,8.049,25,18.212,24.539
					C308.404,308.531,310.35,307.406,308.727,307.48L308.727,307.48z"/>
				<path fill="#FBE99F" d="M284.686,233.141c-6.58,28.416-20.988,82.928,20.744,90.727c0.726,0.134,2.869-1.012,1.507-1.266
					c-40.907-7.645-26.23-62.104-19.82-89.787C287.313,231.961,284.869,232.354,284.686,233.141L284.686,233.141z"/>
				<path fill="#FBE99F" d="M325.938,338.938c7.18-0.713,19.543,0.131,24.733,6.008c0.406,0.455,2.674-0.403,2.295-0.832
					c-5.461-6.186-18.394-6.91-25.973-6.159C326.365,338.02,324.338,339.098,325.938,338.938L325.938,338.938z"/>
				<path fill="#FBE99F" d="M184.285,209.978c3.593,7.138,4.249,12.875,1.538,20.413c-2.292,6.377-4.087,12.586-3.731,19.428
					c0.721,13.91,10.849,26.615,23.708,31.307c9.27,3.382,20.785,2.628,28.917-3.027c13.123-9.123,14.928-29.23,34.169-28.38
					c0.538,0.023,2.8-0.976,1.573-1.03c-9.891-0.437-16.623,2.873-22.637,10.707c-4.006,5.217-7.354,11.012-11.844,15.83
					c-7.156,7.68-16.936,7.401-26.407,5.357c-14.725-3.182-24.39-18.768-25.129-33.021c-0.367-7.064,2.469-13.604,4.674-20.138
					c2.167-6.421,0.574-12.195-2.399-18.099C186.404,208.698,184.069,209.552,184.285,209.978L184.285,209.978z"/>
				<path fill="#FBE99F" d="M202.538,221.133c2.196,7.309-0.907,14.021-3.458,20.785c-2.363,6.259-3.391,12.162-1.745,18.718
					c2.625,10.476,13.025,15.21,22.817,11.935c10.915-3.651,15.065-14.844,20.663-23.737c4.347-6.904,10.853-10.237,18.906-10.449
					c4.832-0.127,15.187,0.703,15.838,7.091c0.084,0.808,2.531,0.271,2.437-0.652c-0.82-8.049-14.687-8.051-20.386-7.676
					c-10.625,0.701-17.018,7.687-21.9,16.469c-3.287,5.912-6.414,11.662-12.067,15.68c-9.307,6.613-19.415,1.752-23.364-7.781
					c-5.97-14.404,8.963-26.85,4.698-41.032C204.716,219.624,202.288,220.298,202.538,221.133L202.538,221.133z"/>
				<path fill="#FBE99F" d="M330.404,303.422c14.705,14.016,40.989,15.695,55.206-0.195c6.32-7.066,8.872-19.914,3.689-28.182
					c-5.328-8.502-17.428-10.529-18.009-22.113c-0.038-0.758-2.483-0.267-2.436,0.654c0.361,7.234,5.431,11.367,10.816,15.48
					c7.995,6.104,11.252,12.619,9.116,22.926c-5.37,25.912-40.208,25.652-56.125,10.488
					C332.058,301.898,329.766,302.816,330.404,303.422L330.404,303.422z"/>
				<path fill="#FBE99F" d="M373.32,236.705c-3.312-8.135,2.584-13.276,8.145-18.365c4.93-4.513,8.812-9.223,8.842-16.231
					c0.057-12.722-16.532-18.147-25.346-23.473c-0.684-0.413-2.934,0.579-1.938,1.18c10.521,6.362,28.316,12.289,24.092,27.957
					c-3.054,11.312-21.863,15.734-16.228,29.586C371.233,238.215,373.634,237.479,373.32,236.705L373.32,236.705z"/>
				<path fill="#FBE99F" d="M368.51,171.546c13.181-5.36,23.87,6.152,28.742,17.134c4.555,10.265,5.213,19.539-1.469,29.089
					c-3.867,5.528-24.453,19.139-15.688,26.82c0.599,0.522,2.855-0.401,2.271-0.919c-6.938-6.083,6.447-16.186,10.467-20.035
					c6.188-5.929,10.578-13.107,10.688-21.85c0.124-10.096-6.611-21.419-14.051-27.855c-6.296-5.448-14.361-6.313-21.885-3.252
					C365.996,171.325,367.465,171.972,368.51,171.546L368.51,171.546z"/>
				<path fill="#FBE99F" d="M334.348,201.971c6.729-1.127,13.182-3.612,20.084-3.496c6.291,0.105,9.468,4.796,11.459,10.065
					c2.649,7.007,4.639,21.079-1.985,26.563c-0.506,0.418,1.76,0.164,2.201-0.199c7.793-6.451,4.522-22.719,0.776-30.367
					c-6.055-12.364-22.102-5.104-32.073-3.437C333.848,201.265,332.631,202.26,334.348,201.971L334.348,201.971z"/>
				<path fill="#FBE99F" d="M339.518,209.054c3.718,3.088,8.365,4.283,12.464,6.712c5.987,3.548,5.146,10.556,3.71,16.406
					c-0.137,0.557,2.251,0.196,2.404-0.422c1.378-5.604,2.275-11.951-2.658-16.02c-4.024-3.318-9.555-4.132-13.623-7.511
					C341.293,207.789,339.133,208.734,339.518,209.054L339.518,209.054z"/>
				<path fill="#FBE99F" d="M351.615,247.5c2.824,8.281-1.231,12.404-6.971,17.691c-4.184,3.854-6.537,7.822-6.557,13.598
					c-0.028,8.75,6.028,24.191,16.333,24.979c1.101,0.082,2.533-1.508,0.881-1.635c-11.37-0.867-17.313-21.728-13.483-30.521
					c2.087-4.793,7.612-7.816,10.857-11.766c3.196-3.889,2.917-8.486,1.375-13C353.703,245.824,351.277,246.507,351.615,247.5
					L351.615,247.5z"/>
				<path fill="#FBE99F" d="M372.796,304.125c-12.099-4.41-24.579-16.662-19.235-30.402c3.623-9.32,13.132-16.104,13.692-26.627
					c0.071-1.32-2.411-1.006-2.474,0.16c-0.683,12.775-14.572,20.441-15.213,33.467c-0.574,11.706,12.038,21.541,21.841,25.112
					C372.506,306.232,374.266,304.658,372.796,304.125L372.796,304.125z"/>
				<path fill="#FBE99F" d="M294.823,134.93c1.063,11.5-4.388,21.938-8.33,32.396c-4.154,11.01-5.525,23.53-4.597,35.24
					c0.387,4.898,8.881,34.641,17.954,27.765c1.316-0.997-0.738-1.396-1.532-0.796c-2.844,2.156-10.129-13.438-10.82-15.062
					c-3.671-8.627-3.723-17.934-2.855-27.121c0.916-9.711,3.379-18.184,6.998-27.218c3.342-8.351,6.467-16.725,5.625-25.858
					C297.182,133.41,294.734,133.953,294.823,134.93L294.823,134.93z"/>
				<path fill="#FBE99F" d="M312.473,224.537c-16.91-28.499,2.34-59.003-2.028-89.246c-0.098-0.672-2.547-0.128-2.437,0.655
					c4.373,30.282-14.926,60.672,2.029,89.245C310.465,225.912,312.773,225.042,312.473,224.537L312.473,224.537z"/>
				<path fill="#FBE99F" d="M304.342,99.906c5.542-10.232,6.69-23.149-4.358-30.012c-9.466-5.879-22.505,2.867-31.425,5.519
					c-0.279,0.086-1.125,0.284-1.117,0.697c0.148,8.782,1.125,20.854,6.086,28.397c0.393,0.597,2.625-0.366,2.438-0.654
					c-4.96-7.541-5.938-19.611-6.085-28.396c-0.375,0.231-0.747,0.462-1.118,0.695c10.313-3.07,21.84-11.334,31.83-3.377
					c8.567,6.823,5.841,19.27,1.35,27.564C301.762,100.662,304.01,100.517,304.342,99.906L304.342,99.906z"/>
				<path fill="#FBE99F" d="M246.145,66.982c2.463,5.616,2.246,12.583,2.865,18.587c0.322,3.128,0.225,9.718,3.727,11.281
					c0.957,0.426,2.826-0.945,1.425-1.57c-3.113-1.389-2.854-11.661-3.111-14.366c-0.454-4.776-0.512-10.125-2.467-14.584
					C248.129,65.3,245.721,66.014,246.145,66.982L246.145,66.982z"/>
				<path fill="#FBE99F" d="M269.879,78.5c-2.527-5.447-2.952-11.637-5.07-17.243c-0.315-0.83-2.725-0.106-2.438,0.654
					c2.12,5.603,2.545,11.793,5.068,17.242C267.824,79.979,270.204,79.206,269.879,78.5L269.879,78.5z"/>
				<path fill="#FBE99F" d="M138.636,61.696c0.008,9.554,0.342,18.65,4.068,27.598c1.498,3.597,5.24,6.851,7.822,9.688
					c3.494,3.841,6.553,7.708,8.404,12.623c0.388,1.032,2.81,0.338,2.436-0.653c-2.745-7.281-8.287-12.387-13.204-18.214
					c-7.252-8.596-7.059-20.64-7.067-31.265C141.094,60.264,138.634,60.69,138.636,61.696L138.636,61.696z"/>
				<path fill="#FBE99F" d="M171.278,53.973c-17.432-5.33-19.482,27.343-14.53,37.279c4.055,8.134,35.713,46.9,19.181,53.14
					c-1.615,0.61-0.1,1.083,0.885,0.711c16.487-6.223-4.488-33.755-9.602-41.637c-4.042-6.227-8.946-12.171-9.849-19.735
					c-0.798-6.691-0.281-32.466,11.935-28.728C169.916,55.192,172.104,54.226,171.278,53.973L171.278,53.973z"/>
				<path fill="#FBE99F" d="M139.986,127.046c-13.334-16.549-26.887,14.418-28.533,24.693c-1.458,9.093,13.101,50.164-6.327,46.14
					c-0.703-0.147-2.862,0.958-1.513,1.238c18.36,3.804,14.116-20.716,12.286-31.379c-1.349-7.87-2.966-14.389-0.627-22.226
					c2.489-8.347,12.326-30.104,22.446-17.543C138.198,128.566,140.538,127.729,139.986,127.046L139.986,127.046z"/>
			</g>
			<path fill="#FBE99F" d="M280.213,132.24c-13.249,0.01-14.566,15.284-15.023,25.453c-0.323,7.271-0.028,14.384-2.902,21.25
				c-3.395,8.111-12.38,11.696-19.889,14.931c-1.569,0.677-0.114,1.319,0.927,0.871c12.311-5.304,21.889-11.089,23.795-25.481
				c1.217-9.185-2.5-35.75,12.114-35.758C280.066,133.504,281.854,132.24,280.213,132.24L280.213,132.24z"/>
			<path fill="#FBE99F" d="M261.078,198.217c12.604-2.037,15.996-12.315,16.811-23.824c0.836-11.809-2.94-36.376,14.286-37.576
				c0.685-0.048,2.651-1.173,1.036-1.061c-33.244,2.317-2.178,56.695-31.705,61.47C260.494,197.391,259.369,198.494,261.078,198.217
				L261.078,198.217z"/>
			<path fill="#FBE99F" d="M82.196,257.828c4.554,4.199,7.52,9.457,12.345,13.467c5.44,4.525,12.205,7.66,18.612,10.551
				c1.059,0.479,2.818-1.049,1.393-1.69c-6.372-2.873-12.554-6.066-18.138-10.298c-5.006-3.795-7.798-9.276-12.345-13.469
				C83.235,255.624,81.14,256.854,82.196,257.828L82.196,257.828z"/>
			<path fill="#FBE99F" d="M92.393,246.75c6.336,3.322,11.889,7.678,17.413,12.179c3.502,2.853,8.881,9.048,13.424,9.831
				c0.434,0.073,2.457-0.314,1.89-1.092c-0.351-0.545-0.773-1.035-1.265-1.466c-0.559-0.579-2.862,0.313-2.267,0.927
				c0.489,0.432,0.908,0.92,1.262,1.467c0.63-0.365,1.26-0.727,1.89-1.092c-2.632-0.453-6.019-4.152-8.064-5.77
				c-2.581-2.039-5.106-4.152-7.668-6.221c-4.614-3.726-9.404-7.136-14.661-9.893C93.69,245.277,91.435,246.25,92.393,246.75
				L92.393,246.75z"/>
			<path fill="#FBE99F" d="M108.628,253.828c26.332,3.861,1.63-60.798,29.755-49.88c0.931,0.362,2.852-0.979,1.437-1.527
				c-32.687-12.688-8.732,52.944-30.312,49.778C108.406,252.035,106.989,253.585,108.628,253.828L108.628,253.828z"/>
			<path fill="#FBE99F" d="M142.998,219.579c-25.938-2.315-5.334,35.208-19.661,44.016c-1.405,0.862,0.742,1.145,1.5,0.681
				c13.453-8.27-3.308-45.188,17.202-43.355C142.94,220.999,144.64,219.727,142.998,219.579L142.998,219.579z"/>
			<path fill="#FBE99F" d="M97.28,272.879c-10.758,0.428-14.25,11.271-14.934,20.451c-0.485,6.511,0.086,23.85,9.58,24.445
				c0.658,0.041,2.837-1.114,1.526-1.194c-7.167-0.45-8.372-13.126-8.703-18.308c-0.493-7.744,1.015-23.752,11.538-24.172
				C97.085,274.073,98.914,272.813,97.28,272.879L97.28,272.879z"/>
			<path fill="#FBE99F" d="M98.606,317.416c-7.251-10.48-2.81-39.172,13.792-37.205c0.633,0.074,2.843-0.998,1.538-1.154
				c-18.762-2.221-26.625,26.221-17.609,39.248C96.712,318.861,99.07,318.09,98.606,317.416L98.606,317.416z"/>
			<path fill="#FBE99F" d="M93.167,172.591c1.683-4.72,3.93-9.299,4.302-14.356c0.375-5.117-1.076-10.079-0.136-15.221
				c0.218-1.188-2.272-0.858-2.464,0.201c-0.822,4.495-0.159,8.822,0.119,13.339c0.344,5.583-2.313,10.657-4.145,15.787
				C90.378,173.648,92.813,173.575,93.167,172.591L93.167,172.591z"/>
			<path fill="#FBE99F" d="M221.945,227.219c4.577,0.824,5.841,11.119,5.891,14.688c0.132,9.005-9.651,9.68-16.313,10.165
				c-3.221,0.231-17.381,2.738-12.104,8.283c0.709,0.748,3.025-0.209,2.242-1.033c-4.22-4.438,12.735-5.803,15.06-6.034
				c4.496-0.446,8.664-1.841,11.515-5.479c4.08-5.203,2.096-20.896-5.417-22.244C221.694,225.36,220.317,226.927,221.945,227.219
				L221.945,227.219z"/>
			<path fill="#FBE99F" d="M207.647,267.501c8.58-7.866,21.319-4.835,29.105-14.28c6.616-8.024,8.145-23.324,2.466-32.067
				c-0.397-0.615-2.768,0.156-2.271,0.917c6.098,9.389,3.238,24.274-3.578,32.54c-4.277,5.187-11.52,5.455-17.538,6.998
				c-3.86,0.992-7.189,2.906-10.112,5.584C204.703,268.125,207.12,267.982,207.647,267.501L207.647,267.501z"/>
			<path fill="#FBE99F" d="M120.536,145.725c-0.092-4.75,9.491,1.72,11.131,2.833c5.391,3.657,9.404,10.551,10.998,16.722
				c0.261,1.015,2.7,0.368,2.436-0.652c-2.128-8.257-7.896-15.734-15.283-19.981c-2.823-1.623-11.854-4.765-11.734,1.313
				C118.104,147.143,120.555,146.691,120.536,145.725L120.536,145.725z"/>
			<path fill="#FBE99F" d="M122.64,129.369c6.483,0.885,13.033,2.079,18.485,5.917c5.75,4.051,7.931,11.111,9.05,17.71
				c0.118,0.69,2.568,0.122,2.438-0.655c-1.188-6.983-3.507-13.455-9.21-17.955c-5.318-4.195-12.729-5.31-19.23-6.197
				C123.516,128.102,121.319,129.189,122.64,129.369L122.64,129.369z"/>
			<path fill="#FBE99F" d="M234.846,89.909c-12.622,2.085-16.465,16.501-14.363,27.591c0.15,0.796,2.6,0.201,2.438-0.653
				c-1.71-9.016,0.532-23.827,11.575-25.651C235.629,91.01,236.533,89.63,234.846,89.909L234.846,89.909z"/>
			<path fill="#FBE99F" d="M213.734,134.685c2.482,3.419,1.46,8.726,0.7,12.533c-0.688,3.45-2.339,10.527-6.154,11.889
				c-1.623,0.582-0.111,1.141,0.901,0.779c4.275-1.53,5.975-6.901,7.127-10.818c1.296-4.415,2.644-11.224-0.294-15.275
				C215.606,133.233,213.254,134.023,213.734,134.685L213.734,134.685z"/>
			<path fill="#FBE99F" d="M242.729,105.067c-9.143,1.978-9.848,12.179-11.313,19.797c-0.149,0.776,2.28,0.354,2.421-0.363
				c1.175-6.108,1.588-16.792,9.161-18.429C244.467,105.754,244.171,104.756,242.729,105.067L242.729,105.067z"/>
			<path fill="#FBE99F" d="M229.355,148.899c4.26,5.867-4.592,15.967-8.751,19.578c-0.482,0.42,1.772,0.148,2.195-0.22
				c4.305-3.739,13.378-13.97,8.993-20.01C231.38,147.681,229.203,148.69,229.355,148.899L229.355,148.899z"/>
			<path fill="#FBE99F" d="M290.826,279.541c6.721-0.251,13.461-4.777,16.043-11.012c0.25-0.607-2.127-0.336-2.42,0.367
				c-2.035,4.91-7.168,9.264-12.623,9.469C291.061,278.393,289.193,279.602,290.826,279.541L290.826,279.541z"/>
			<path fill="#FBE99F" d="M319.158,252.141c2.263-7.414,5.556-18.563,13.164-22.099c1.473-0.685-0.788-0.776-1.444-0.472
				c-8.214,3.813-11.702,14.984-14.138,22.953C316.547,253.165,318.947,252.828,319.158,252.141L319.158,252.141z"/>
			<path fill="#FBE99F" d="M342.334,240.025c-7.432,2.084-11.729,7.828-14.293,14.877c-2.885,7.932-3.547,18.936-9.724,25.149
				c-1.042,1.05,1.343,1.179,1.986,0.529c10.597-10.658,5.231-34.34,22.402-39.156C344.18,241.014,343.811,239.609,342.334,240.025
				L342.334,240.025z"/>
			<path fill="#FBE99F" d="M307.979,289.986c-3.808,3.703-8.172,6.377-13.328,7.746c-1.411,0.375-1.232,1.035,0.181,0.66
				c5.854-1.558,10.99-4.408,15.343-8.636C310.64,289.303,308.375,289.604,307.979,289.986L307.979,289.986z"/>
			<path fill="#FBE99F" d="M280.703,305.705c-8.088-3.805-16.406,7.664-20.6,12.814c-7.578,9.307-17.5,22.379-13,35.16
				c0.27,0.77,2.684,0.053,2.436-0.652c-3.495-9.93,2.518-21.271,8.354-29.037c3.543-4.717,13.889-20.459,20.85-17.184
				C279.391,307.111,281.635,306.145,280.703,305.705L280.703,305.705z"/>
			<path fill="#FBE99F" d="M239.984,327.771c-2.941-8.967,2.813-17.955,8.41-24.527c6.612-7.766,17.709-16.756,28.504-16.235
				c0.582,0.028,2.813-1.036,1.555-1.096c-10.23-0.493-19.75,5.776-27.125,12.228c-7.947,6.953-17.484,18.992-13.783,30.284
				C237.766,329.086,240.184,328.382,239.984,327.771L239.984,327.771z"/>
			<path fill="#FBE99F" d="M341.396,362.236c-7.813,11.234-26.209,7.303-37.441,5.141c-5.144-0.988-10.348-2.111-15.584-2.47
				c-2.368-0.16-5.643-0.498-7.564,1.26c-1.02,0.933,1.398,0.802,1.93,0.315c2.72-2.482,13.742,1.008,16.965,1.608
				c5.544,1.037,11.086,2.328,16.706,2.876c8.752,0.854,21.843-0.978,27.242-8.742C344.246,361.364,341.811,361.639,341.396,362.236
				L341.396,362.236z"/>
			<path fill="#FBE99F" d="M329.163,338.456c-5.909-2.101-9.144,3.886-11.438,8.38c-2.678,5.24-5.102,10.283-9.598,14.241
				c-6.197,5.452-12.869,3.51-20.154,3.94c-0.522,0.028-2.629,0.889-1.242,1.276c0.244,0.166,0.488,0.329,0.734,0.496
				c0.57,0.571,2.869-0.328,2.268-0.931c-0.598-0.598-0.684-0.592-1.492-0.82c-0.411,0.426-0.825,0.854-1.239,1.277
				c7.935-0.467,15.047,1.276,21.963-4.059c3.84-2.962,6.502-6.67,8.748-10.947c1.442-2.748,4.995-13.326,9.502-11.725
				C327.907,339.834,330.122,338.797,329.163,338.456L329.163,338.456z"/>
			<path fill="#FBE99F" d="M314.393,368.454c7.616-1.101,14.031-4.8,19.565-10.058c5.177-4.918,4.625-14.957,11.798-18.104
				c1.547-0.679,0.15-1.688-1.01-1.18c-4.514,1.979-6.526,6.453-8.48,10.718c-4.221,9.21-11.076,15.576-21.588,17.096
				C313.438,367.105,312.721,368.695,314.393,368.454L314.393,368.454z"/>
			<path fill="#FBE99F" d="M362.844,295.318c10.515-5.116,12.826-18.31,14.358-28.76c0.171-1.177-2.311-0.815-2.462,0.215
				c-1.394,9.522-3.299,22.521-12.948,27.215C360.288,294.72,361.643,295.9,362.844,295.318L362.844,295.318z"/>
			<path fill="#FBE99F" d="M384.412,275.395c8.388,12.235-9.301,25.438-19.781,27.586c-6.822,1.397-19.34,1.613-23.273,8.597
				c-0.677,1.194,1.804,1.213,2.328,0.28c2.798-4.961,12.429-5.519,17.412-6.45c4.834-0.9,9.865-1.563,14.039-4.363
				c8.036-5.385,18.303-16.805,11.502-26.726C386.017,273.406,383.693,274.346,384.412,275.395L384.412,275.395z"/>
			<path fill="#FBE99F" d="M163.827,202.146c5.152,9.27,19.875,7.955,23.209,18.431c0.186,0.585,2.607-0.119,2.436-0.653
				c-3.367-10.585-18.053-9.155-23.21-18.429C165.917,200.872,163.614,201.767,163.827,202.146L163.827,202.146z"/>
			<path fill="#FBE99F" d="M168.268,224.246c6.573-1.069,11.404,3.781,13.988,9.295c0.351,0.752,2.722-0.045,2.434-0.65
				c-3.032-6.479-8.63-11.023-16.042-9.816C167.559,223.251,166.571,224.523,168.268,224.246L168.268,224.246z"/>
			<path fill="#FBE99F" d="M119.493,175.805c4.555-0.123,9.371,6.699,13.13,8.812c3.777,2.121,7.447,2.491,11.309,0.415
				c1.439-0.775-0.768-0.934-1.468-0.558c-8.682,4.667-14.007-10.1-21.98-9.885C119.692,174.609,117.858,175.848,119.493,175.805
				L119.493,175.805z"/>
			<path fill="#FBE99F" d="M115.167,198.437c6.745,2.244,18.479,6.779,24.246,0.221c0.979-1.112-1.384-1.183-1.979-0.506
				c-4.595,5.225-15.337,0.674-20.803-1.145C115.774,196.723,113.764,197.968,115.167,198.437L115.167,198.437z"/>
			<path fill="#FBE99F" d="M247.493,140.229c1.634-8.841,10.864-15.872,19.878-13.52c0.779,0.204,2.873-0.967,1.493-1.327
				c-10.229-2.666-21.888,4.778-23.81,15.151C244.883,141.478,247.34,141.064,247.493,140.229L247.493,140.229z"/>
			<path fill="#FBE99F" d="M254.318,155.755c-2.877-10.812,12.123-16.297,19.74-19.657c1.555-0.688,0.125-1.471-0.961-0.993
				c-8.144,3.593-24.311,9.673-21.219,21.303C252.107,157.257,254.543,156.604,254.318,155.755L254.318,155.755z"/>
			<path fill="#FBE99F" d="M270.141,80.436c4.096,1.095,8.389,1.341,12.4,2.729c3.682,1.275,5.982,4.096,8.207,7.064
				c1.9,2.529,3.6,5.21,5.22,7.925c0.837,1.406,1.605,2.852,2.304,4.334c0.212,0.466,0.404,0.942,0.576,1.425
				c0.631,1.672-0.198,0.535,1.096,0.789c-1.176-0.23-2.476,1.417-0.853,1.736c6.085,1.188-1.419-10.232-2.116-11.371
				c-2.166-3.524-4.567-7.471-7.672-10.263c-5.018-4.521-11.588-4.333-17.75-5.982C270.533,78.551,268.67,80.041,270.141,80.436
				L270.141,80.436z"/>
			<path fill="#FBE99F" d="M272.377,93.127c7.325-0.412,11.568,6.424,12.955,12.769c0.126,0.587,2.572-0.015,2.434-0.653
				c-1.563-7.183-6.406-13.616-14.354-13.17C272.729,92.11,270.758,93.218,272.377,93.127L272.377,93.127z"/>
			<path fill="#FBE99F" d="M205.465,75.18c4.061,10.383-4.643,15.875-9.536,23.792c-0.127,0.209,2.038,0.125,2.396-0.458
				c4.957-8.02,13.659-13.545,9.577-23.99C207.695,74.002,205.31,74.783,205.465,75.18L205.465,75.18z"/>
			<path fill="#FBE99F" d="M204.588,104.246c11.521,2.69,17.288-18.028,18.339-26.11c0.141-1.084-2.327-0.673-2.449,0.259
				c-0.764,5.867-5.979,26.375-14.432,24.401C205.167,102.591,203.16,103.912,204.588,104.246L204.588,104.246z"/>
			<path fill="#FBE99F" d="M197.552,130.844c-0.12-0.104,0.172,2.416,0.223,3.062c0.226,2.783,0.34,5.576,0.464,8.365
				c0.167,3.721,0.349,7.452,0.384,11.177c0.013,1.274,2.48,0.896,2.469-0.188c-0.043-4.351-0.27-8.708-0.472-13.052
				c-0.098-2.151,0.63-9.172-1.188-10.762C198.625,128.738,196.493,129.917,197.552,130.844L197.552,130.844z"/>
			<path fill="#FBE99F" d="M187.774,124.557c-2.805,5.876-1.479,14.054-0.548,20.235c0.458,3.031,1.52,12.726,6.374,12.157
				c1.332-0.156,1.893-1.929,0.23-1.733c-2.938,0.346-4.297-11.879-4.529-13.633c-0.665-5.044-1.494-11.977,0.795-16.772
				C190.686,123.572,188.223,123.617,187.774,124.557L187.774,124.557z"/>
		</g>
	</g>
</g>
</svg>
