<?xml version="1.0" encoding="utf-8"?>
<!-- Generator: Adobe Illustrator 16.0.0, SVG Export Plug-In . SVG Version: 6.00 Build 0)  -->
<!DOCTYPE svg PUBLIC "-//W3C//DTD SVG 1.1//EN" "http://www.w3.org/Graphics/SVG/1.1/DTD/svg11.dtd">
<svg version="1.1" id="Ebene_1" xmlns="http://www.w3.org/2000/svg" xmlns:xlink="http://www.w3.org/1999/xlink" x="0px" y="0px"
	 width="450px" height="450px" viewBox="0 0 450 450" enable-background="new 0 0 450 450" xml:space="preserve">
<g>
	<g opacity="0.3">
		<path opacity="0.3" d="M322.859,254.052c23.25,6.326,66.994,9.135,64.592,50.325c-2.402,41.191-54.093,54.113-82.36,41.191
			c-28.269-12.923-55.729-35.537-55.729-55.729C249.362,269.649,256.63,236.034,322.859,254.052z"/>
		<path opacity="0.3" d="M363.302,265.444c-1.064,2.627-2.24,5.209-3.5,7.713c-2.283,4.536-5.496,8.127-8.652,12.205
			c-6.173,7.973-15.844,12.91-25.183,16.042c-19.915,6.679-44.153-0.987-57.387-17.112c-5.035-6.136-9.516-12.98-12.856-20.307
			c-5.259,8.093-6.362,17.992-6.362,25.854c0,20.192,27.46,42.807,55.729,55.729c28.268,12.922,79.958,0,82.36-41.191
			C388.695,283.044,377.558,272.007,363.302,265.444z"/>
		<path opacity="0.3" d="M362.811,307.499c-11.829,9.734-23.155,16.98-37.805,21.88c-11.063,3.699-23.07,4.864-34.68,4.274
			c-2.478-0.125-4.968-0.274-7.459-0.458c6.999,4.672,14.578,8.879,22.223,12.374c28.268,12.922,79.958,0,82.36-41.191
			c0.484-8.309-0.915-15.049-3.639-20.579C377.908,292.677,370.962,300.79,362.811,307.499z"/>
		<path opacity="0.3" d="M282.867,260.765c8.191,1.706,6.056,11.26-5.108,13.077c-11.163,1.816-11.445-1.379-12.941-4.003
			C260.707,262.63,263.811,256.795,282.867,260.765z"/>
		<path opacity="0.3" d="M73.083,105.455c32.852-9.086,55.728-2.424,72.688,7.269c16.962,9.692,20.999,46.844,17.77,62.997
			c-3.231,16.153-43.614,47.651-69.459,49.267c-25.845,1.616-76.728-22.434-69.459-61.695
			C31.893,124.031,35.124,115.954,73.083,105.455z"/>
		<path opacity="0.3" d="M145.772,112.723c-9.655-5.518-21.233-10.049-35.474-11.256c0.703,5.365,7.247,21.556,7.206,35.628
			c-0.062,21.306-5.541,65.102-11.536,85.478c24.796-7.938,54.807-33.02,57.573-46.853
			C166.771,159.567,162.734,122.416,145.772,112.723z"/>
		<path opacity="0.3" d="M117.504,137.095c-42.141,16.105-50.611,42.164-89.069,51.961c12.169,23.663,46.08,37.153,65.647,35.931
			c25.845-1.615,66.228-33.113,69.459-49.267c1.82-9.099,1.332-24.861-2.472-38.625C158.979,137.492,139.445,128.71,117.504,137.095
			z"/>
		<path opacity="0.3" d="M161.07,137.095c-2.08,0.395-21.424-8.288-43.225-0.123c-0.871,11.489-2.09,22.935-3.631,34.4
			c0.005-0.03,0.009-0.062,0.012-0.092c0.287-2.133,0.575-4.267,0.861-6.4c-0.282,2.145-0.563,4.277-0.861,6.4
			c-0.166,1.234-0.33,2.469-0.496,3.703c0.169-1.205,0.323-2.408,0.484-3.611c-1.174,8.412-2.589,16.68-5.256,24.833
			c-3.173,9.696-7.215,19.147-11.472,28.409c25.839-3.92,62.963-33.435,66.055-48.895
			C165.362,166.622,164.873,150.859,161.07,137.095z"/>
		<path opacity="0.3" d="M42.931,129.953c1.852-10.415,16.112-8.156,18.824,5.884c2.713,14.039,4.29,10.891-4.575,16.503
			S38.624,154.183,42.931,129.953z"/>
		<path opacity="0.3" d="M66.893,127.8c0.204-4.103,13.694-1.077,19.364,2.153c5.672,3.231-0.1,15.616-6.1,15.616
			C74.159,145.569,66.086,143.953,66.893,127.8z"/>
		<path fill="none" stroke="#000000" stroke-width="2.423" stroke-linecap="round" d="M100.874,186.05
			c0,0-10.972,1.546-13.266,0.615"/>
		<path fill="none" stroke="#000000" stroke-width="2.423" stroke-linecap="round" d="M85.15,201.226c0,0-12.229,0.968-14.885,3.85"
			/>
		<path fill="none" stroke="#000000" stroke-width="2.423" stroke-linecap="round" d="M62.031,186.963c0,0-7.568,1.066-9.151,0.423"
			/>
		<path opacity="0.3" d="M211.984,106.202c35.186,0.14,81.573,16.153,96.111,58.152c14.538,41.998-12.114,79.15-48.056,85.61
			c-35.941,6.462-55.325,1.615-81.169-32.306c-25.846-33.922-41.998-42.806-21-75.111
			C178.87,110.24,188.336,106.108,211.984,106.202z"/>
		<path opacity="0.3" d="M286.363,132.211c-0.918,0.334-1.836,0.663-2.75,1.015c-13.508,6.206-8.632,29.333-23.977,55.568
			c-15.346,26.233-37.961,30.788-79.885,30.001c25.406,32.875,44.759,37.558,80.288,31.17c35.941-6.46,62.594-43.612,48.056-85.61
			C303.538,151.189,295.852,140.581,286.363,132.211z"/>
		<path fill="none" stroke="#000000" stroke-width="2.423" stroke-linecap="round" d="M253.736,237.745
			c0,0,10.06-4.644,12.523-4.413"/>
		<path fill="none" stroke="#000000" stroke-width="2.423" stroke-linecap="round" d="M268.953,206.034
			c0,0,9.902-5.774,13.144-7.979"/>
		<path fill="none" stroke="#000000" stroke-width="2.423" stroke-linecap="round" d="M275.525,190.318c0,0,6.94-3.203,8.642-3.045"
			/>
		<path fill="none" stroke="#000000" stroke-width="2.423" stroke-linecap="round" d="M224.139,190.019c0,0,7.069-3.681,9.066-5.504
			"/>
		<path fill="none" stroke="#000000" stroke-width="2.423" stroke-linecap="round" d="M196.68,191.538c0,0,7.859-1.321,10.321-2.439
			"/>
		<path fill="none" stroke="#000000" stroke-width="2.423" stroke-linecap="round" d="M212.209,203.765
			c0,0,13.67-1.694,18.004-3.442"/>
		<path opacity="0.3" d="M175.116,140.124c9.945-0.537,11.426,48.863-0.689,45.835c-8.592-2.148-19.631-11.056-12.757-28.335
			C165.591,147.769,169.898,140.405,175.116,140.124z"/>
		<path opacity="0.3" d="M101.115,196.808c19.821-19.853,92.88-20.218,104.995,33.087c12.114,53.306,2.423,80.766-48.46,83.188
			c-50.883,2.424-108.226-12.113-104.996-50.074C55.885,225.05,83.345,214.604,101.115,196.808z"/>
		<path opacity="0.3" d="M137.274,313.136c6.062-5.339-1.679-11.745,25.222-23.739c12.075-5.384,19.293-13.707,23.424-23.197
			c-0.482,0.072-0.966,0.149-1.449,0.22c-8.383,5.491-17.618,9.847-27.311,13.005c-26.33,8.581-52.698,3.52-79.237-0.415
			c-7.722-0.813-15.403-0.997-23.158-1.206c10.417,25.888,55.459,36.505,97.67,35.467C147.4,313.392,142.325,313.35,137.274,313.136
			z"/>
		<path opacity="0.3" d="M210.618,259.016c-0.509-8.659-2.064-18.364-4.509-29.121c-3.147-13.846-10.411-24.062-19.78-31.266
			c-0.455,8.312,10.661,42.143-0.41,67.57c6.25-0.957,12.407-2.244,18.38-4.561C206.482,260.793,208.579,259.922,210.618,259.016z"
			/>
		<path opacity="0.3" d="M201.729,296.311c0.407-0.502,0.796-1.014,1.173-1.539c0.064-0.087,0.129-0.175,0.191-0.264
			c0.393-0.556,0.77-1.126,1.129-1.708c0.064-0.103,0.125-0.206,0.188-0.311c0.352-0.578,0.69-1.166,1.011-1.768
			c0.015-0.026,0.028-0.052,0.042-0.077c0.33-0.624,0.639-1.263,0.937-1.912c0.056-0.12,0.11-0.242,0.165-0.364
			c0.29-0.649,0.567-1.311,0.826-1.987c0.02-0.052,0.039-0.106,0.059-0.158c0.246-0.648,0.475-1.311,0.692-1.982
			c0.034-0.108,0.071-0.215,0.105-0.323c0.222-0.702,0.428-1.418,0.62-2.146c0.03-0.117,0.059-0.235,0.09-0.354
			c0.184-0.721,0.355-1.451,0.512-2.197c0.008-0.034,0.016-0.065,0.023-0.102c0.159-0.771,0.3-1.559,0.43-2.355
			c0.022-0.14,0.045-0.279,0.066-0.422c0.125-0.801,0.239-1.612,0.334-2.439c0.006-0.041,0.008-0.084,0.013-0.125
			c0.092-0.805,0.167-1.623,0.231-2.453c0.01-0.126,0.021-0.251,0.029-0.378c0.063-0.852,0.109-1.714,0.143-2.59
			c0.006-0.128,0.009-0.259,0.013-0.388c0.029-0.862,0.047-1.736,0.05-2.626c0-0.044,0.002-0.087,0.002-0.133
			c0.002-0.92-0.013-1.857-0.039-2.803c-0.004-0.159-0.01-0.317-0.015-0.476c-0.03-0.954-0.071-1.92-0.128-2.9
			c-0.002-0.005-0.002-0.011-0.002-0.016c-2.039,0.905-4.137,1.776-6.319,2.623c-5.973,2.316-12.13,3.604-18.38,4.561
			c-4.131,9.49-11.349,17.813-23.424,23.197c-26.9,11.994-19.16,18.4-25.222,23.739c5.052,0.214,10.126,0.256,15.16,0.134
			c0.098-0.002,0.197-0.006,0.296-0.008c1.646-0.041,3.285-0.1,4.92-0.18c1.133-0.054,2.236-0.124,3.329-0.202
			c0.235-0.017,0.473-0.034,0.706-0.052c1.057-0.082,2.098-0.176,3.117-0.279c0.168-0.02,0.332-0.039,0.5-0.057
			c0.929-0.101,1.842-0.211,2.739-0.332c0.167-0.022,0.337-0.044,0.504-0.066c0.972-0.136,1.925-0.284,2.859-0.443
			c0.202-0.035,0.401-0.07,0.601-0.105c0.935-0.166,1.855-0.34,2.753-0.53c0.019-0.004,0.038-0.006,0.057-0.011
			c0.908-0.193,1.794-0.402,2.665-0.62c0.186-0.048,0.373-0.093,0.557-0.142c0.848-0.219,1.682-0.448,2.493-0.692
			c0.119-0.035,0.236-0.074,0.356-0.11c0.744-0.229,1.473-0.468,2.188-0.716c0.132-0.046,0.266-0.09,0.396-0.137
			c0.768-0.272,1.515-0.56,2.247-0.856c0.15-0.062,0.298-0.124,0.446-0.186c0.723-0.302,1.434-0.611,2.123-0.938
			c0.021-0.01,0.043-0.021,0.064-0.03c0.703-0.335,1.385-0.686,2.053-1.044c0.137-0.074,0.275-0.148,0.41-0.224
			c0.652-0.36,1.289-0.73,1.906-1.114c0.078-0.048,0.152-0.1,0.23-0.148c0.571-0.36,1.126-0.732,1.669-1.116
			c0.096-0.066,0.195-0.134,0.292-0.203c0.574-0.413,1.13-0.84,1.67-1.277c0.104-0.085,0.205-0.17,0.309-0.256
			c0.529-0.438,1.047-0.886,1.544-1.348c0.019-0.018,0.038-0.035,0.059-0.052c0.51-0.479,0.999-0.973,1.476-1.476
			c0.094-0.101,0.188-0.198,0.279-0.298c0.465-0.504,0.918-1.017,1.351-1.545C201.643,296.423,201.685,296.367,201.729,296.311z"/>
		<path opacity="0.3" d="M86.37,231.267c6.217,1.762,6.328,6.365,9.021,19.365c2.691,13,0.958,15.147-11.642,14.885
			c-13.109-0.274-14.742-5.653-12.59-22.346C73.314,226.48,79.889,229.429,86.37,231.267z"/>
		<path opacity="0.3" d="M186.163,307.546c-0.148,0.062-0.296,0.124-0.446,0.186C185.867,307.67,186.015,307.607,186.163,307.546z"
			/>
		<path opacity="0.3" d="M188.351,306.578c-0.021,0.01-0.044,0.021-0.064,0.03C188.307,306.598,188.329,306.59,188.351,306.578z"/>
		<path opacity="0.3" d="M190.814,305.31c-0.135,0.075-0.273,0.149-0.41,0.224C190.54,305.46,190.679,305.385,190.814,305.31z"/>
		<path opacity="0.3" d="M183.47,308.588c-0.131,0.047-0.265,0.091-0.396,0.137C183.205,308.678,183.339,308.635,183.47,308.588z"/>
		<path opacity="0.3" d="M165.302,312.493c-0.168,0.018-0.332,0.037-0.5,0.057C164.97,312.53,165.134,312.51,165.302,312.493z"/>
		<path opacity="0.3" d="M178.036,310.243c-0.184,0.049-0.371,0.094-0.557,0.142C177.665,310.337,177.853,310.292,178.036,310.243z"
			/>
		<path opacity="0.3" d="M168.545,312.094c-0.167,0.022-0.337,0.044-0.504,0.066C168.208,312.138,168.378,312.117,168.545,312.094z"
			/>
		<path opacity="0.3" d="M172.005,311.546c-0.199,0.035-0.398,0.07-0.601,0.105C171.607,311.616,171.806,311.581,172.005,311.546z"
			/>
		<path opacity="0.3" d="M161.685,312.829c-0.233,0.018-0.471,0.035-0.706,0.052C161.214,312.864,161.451,312.846,161.685,312.829z"
			/>
		<path opacity="0.3" d="M180.886,309.44c-0.12,0.036-0.237,0.075-0.356,0.11C180.649,309.515,180.766,309.476,180.886,309.44z"/>
		<path opacity="0.3" d="M157.65,313.083c-1.635,0.08-3.274,0.139-4.92,0.18C154.375,313.219,156.015,313.163,157.65,313.083z"/>
		<path opacity="0.3" d="M196.89,301.195c-0.104,0.086-0.205,0.171-0.309,0.256C196.685,301.366,196.786,301.281,196.89,301.195z"/>
		<path opacity="0.3" d="M198.492,299.796c-0.021,0.017-0.04,0.034-0.059,0.052C198.452,299.83,198.472,299.812,198.492,299.796z"/>
		<path opacity="0.3" d="M194.911,302.728c-0.097,0.069-0.196,0.137-0.292,0.203C194.715,302.865,194.815,302.798,194.911,302.728z"
			/>
		<path opacity="0.3" d="M174.815,311.005c-0.019,0.005-0.038,0.007-0.057,0.011C174.777,311.011,174.796,311.01,174.815,311.005z"
			/>
		<path opacity="0.3" d="M192.95,304.048c-0.078,0.049-0.152,0.101-0.23,0.148C192.798,304.148,192.872,304.096,192.95,304.048z"/>
		<path opacity="0.3" d="M199.968,298.32c-0.477,0.503-0.966,0.997-1.476,1.476C199.002,299.317,199.491,298.823,199.968,298.32z"/>
		<path opacity="0.3" d="M177.48,310.385c-0.871,0.218-1.757,0.427-2.665,0.62C175.723,310.811,176.609,310.602,177.48,310.385z"/>
		<path opacity="0.3" d="M192.72,304.196c-0.617,0.384-1.254,0.754-1.906,1.114C191.466,304.95,192.103,304.58,192.72,304.196z"/>
		<path opacity="0.3" d="M185.717,307.731c-0.732,0.297-1.479,0.584-2.247,0.856C184.238,308.315,184.985,308.028,185.717,307.731z"
			/>
		<path opacity="0.3" d="M190.404,305.534c-0.668,0.358-1.35,0.709-2.053,1.044C189.054,306.243,189.736,305.892,190.404,305.534z"
			/>
		<path opacity="0.3" d="M183.073,308.724c-0.715,0.248-1.443,0.487-2.188,0.716C181.63,309.212,182.359,308.972,183.073,308.724z"
			/>
		<path opacity="0.3" d="M198.434,299.847c-0.497,0.462-1.015,0.91-1.544,1.348C197.419,300.758,197.937,300.309,198.434,299.847z"
			/>
		<path opacity="0.3" d="M194.619,302.931c-0.543,0.384-1.098,0.756-1.669,1.116C193.522,303.687,194.076,303.315,194.619,302.931z"
			/>
		<path opacity="0.3" d="M196.581,301.451c-0.54,0.438-1.096,0.864-1.67,1.277C195.486,302.315,196.041,301.888,196.581,301.451z"/>
		<path opacity="0.3" d="M180.53,309.551c-0.812,0.244-1.646,0.474-2.493,0.692C178.884,310.024,179.718,309.795,180.53,309.551z"/>
		<path opacity="0.3" d="M188.286,306.608c-0.689,0.326-1.4,0.636-2.123,0.938C186.886,307.244,187.597,306.934,188.286,306.608z"/>
		<path opacity="0.3" d="M171.405,311.651c-0.935,0.159-1.888,0.308-2.859,0.443C169.517,311.959,170.47,311.81,171.405,311.651z"/>
		<path opacity="0.3" d="M174.758,311.015c-0.897,0.19-1.818,0.364-2.753,0.53C172.94,311.38,173.861,311.206,174.758,311.015z"/>
		<path opacity="0.3" d="M160.979,312.881c-1.093,0.078-2.196,0.148-3.329,0.202C158.782,313.029,159.886,312.959,160.979,312.881z"
			/>
		<path opacity="0.3" d="M164.802,312.55c-1.02,0.104-2.061,0.197-3.117,0.279C162.741,312.747,163.782,312.653,164.802,312.55z"/>
		<path opacity="0.3" d="M168.041,312.161c-0.897,0.121-1.811,0.231-2.739,0.332C166.231,312.392,167.144,312.282,168.041,312.161z"
			/>
		<path opacity="0.3" d="M152.73,313.262c-0.099,0.002-0.198,0.006-0.296,0.008C152.531,313.268,152.631,313.264,152.73,313.262z"/>
		<path fill="none" stroke="#000000" stroke-width="2.423" stroke-linecap="round" d="M147.54,245.478
			c0,0,10.973,1.534,12.922,3.062"/>
		<path fill="none" stroke="#000000" stroke-width="2.423" stroke-linecap="round" d="M130.946,227.201
			c0,0,12.021,2.434,15.371,0.396"/>
		<path fill="none" stroke="#000000" stroke-width="2.423" stroke-linecap="round" d="M164.101,237.871c0,0,7.568,1.058,8.915,2.111
			"/>
		<path fill="none" stroke="#000000" stroke-width="2.423" stroke-linecap="round" d="M120.342,216.288
			c0,0,8.294,1.679,10.604,0.273"/>
		<path fill="none" stroke="#000000" stroke-width="2.423" stroke-linecap="round" d="M315.119,297.681c0,0,5.192-5.122,6.667-6.97"
			/>
		<path fill="none" stroke="#000000" stroke-width="2.423" stroke-linecap="round" d="M301.122,294.167c0,0,3.651-3.604,4.69-4.903"
			/>
		<path fill="none" stroke="#000000" stroke-width="2.423" stroke-linecap="round" d="M316.109,280.383c0,0,3.652-3.604,4.689-4.902
			"/>
		<path fill="none" stroke="#000000" stroke-width="2.423" stroke-linecap="round" d="M270.717,317.044c0,0,5.519-2.873,7.078-4.297
			"/>
		<path fill="none" stroke="#000000" stroke-width="2.423" stroke-linecap="round" d="M271.986,304.578c0,0,5.519-2.874,7.078-4.299
			"/>
		<path fill="none" stroke="#000000" stroke-width="2.423" stroke-linecap="round" d="M291.987,321.426
			c0,0,12.42-5.957,15.972-8.993"/>
		<path opacity="0.3" d="M332.95,153.341c26.82-17.448,74.025-25.618,84.52,5.319c10.493,30.936,22.361,60.255-0.33,78.312
			c-22.69,18.056-99.904,25.145-106.684-26.789C303.678,158.25,315.989,164.375,332.95,153.341z"/>
		<path opacity="0.3" d="M397.71,180.845c-6.734,6.414-14.6,11.756-22.43,16.699c-14.707,9.284-31.154,15.636-47.695,20.812
			c-4.588,1.436-9.254,2.688-13.976,3.725c16.27,38.752,82.753,31.424,103.53,14.891c22.691-18.057,10.823-47.376,0.33-78.312
			c-0.427-1.258-0.92-2.444-1.465-3.574C411.323,164.826,405.906,173.036,397.71,180.845z"/>
		<path fill="none" stroke="#000000" stroke-width="2.423" stroke-linecap="round" d="M399.723,224.302c0,0,4.473-5.734,5.98-6.341"
			/>
		<path fill="none" stroke="#000000" stroke-width="2.423" stroke-linecap="round" d="M399.064,201.221c0,0,4.043-6.348,5.271-8.608
			"/>
		<path fill="none" stroke="#000000" stroke-width="2.423" stroke-linecap="round" d="M372.611,224.272c0,0,6.926-2.943,9.218-4.109
			"/>
		<path opacity="0.3" d="M348.796,167.138c2.488,5.961-1.046,8.914-9.546,19.111c-8.501,10.198-11.26,10.177-18.896,0.15
			c-7.942-10.432-4.749-15.057,9.656-23.759C344.417,153.938,346.2,160.921,348.796,167.138z"/>
		<line fill="none" stroke="#000000" stroke-width="2.423" x1="147.62" y1="178.742" x2="158.112" y2="178.742"/>
		<line fill="none" stroke="#000000" stroke-width="2.423" x1="173.065" y1="176.549" x2="166.211" y2="188.401"/>
		<line fill="none" stroke="#000000" stroke-width="2.423" x1="150.516" y1="164.026" x2="180.579" y2="222.272"/>
		<line fill="none" stroke="#000000" stroke-width="2.423" x1="175.2" y1="211.849" x2="156.806" y2="203.909"/>
		<line fill="none" stroke="#000000" stroke-width="2.423" x1="166.211" y1="178.742" x2="166.211" y2="194.436"/>
		<line fill="none" stroke="#000000" stroke-width="2.423" x1="91.284" y1="224.981" x2="108.426" y2="222.44"/>
		<line fill="none" stroke="#000000" stroke-width="2.423" x1="97.123" y1="230.197" x2="101.117" y2="223.524"/>
		<line fill="none" stroke="#000000" stroke-width="2.423" x1="108.426" y1="222.44" x2="118.081" y2="249.199"/>
		<line fill="none" stroke="#000000" stroke-width="2.423" x1="106.522" y1="208.075" x2="108.426" y2="222.44"/>
		<line fill="none" stroke="#000000" stroke-width="2.423" x1="130.266" y1="188.986" x2="130.007" y2="217.7"/>
		<line fill="none" stroke="#000000" stroke-width="2.423" x1="144.552" y1="184.024" x2="130.266" y2="209.439"/>
		<line fill="none" stroke="#000000" stroke-width="2.423" x1="136.805" y1="175.946" x2="137.409" y2="196.731"/>
		<line fill="none" stroke="#000000" stroke-width="2.423" x1="178.341" y1="165.578" x2="178.034" y2="176.176"/>
		<line fill="none" stroke="#000000" stroke-width="2.423" x1="171.162" y1="171.8" x2="185.517" y2="180.552"/>
		<line fill="none" stroke="#000000" stroke-width="2.423" x1="184.257" y1="156.022" x2="207.962" y2="167.652"/>
		<line fill="none" stroke="#000000" stroke-width="2.423" x1="198.554" y1="150.392" x2="205.107" y2="166.251"/>
		<line fill="none" stroke="#000000" stroke-width="2.423" x1="118.081" y1="148.687" x2="122.835" y2="169.617"/>
		<line fill="none" stroke="#000000" stroke-width="2.423" x1="127.029" y1="159.355" x2="139.456" y2="159.355"/>
		<line fill="none" stroke="#000000" stroke-width="2.423" x1="136.805" y1="135.428" x2="120.156" y2="176.176"/>
		<line fill="none" stroke="#000000" stroke-width="2.423" x1="205.022" y1="210.05" x2="207.284" y2="204.994"/>
		<line fill="none" stroke="#000000" stroke-width="2.423" x1="209.452" y1="197.312" x2="213.688" y2="203.172"/>
		<line fill="none" stroke="#000000" stroke-width="2.423" x1="198.554" y1="205.478" x2="233.112" y2="203.552"/>
		<line fill="none" stroke="#000000" stroke-width="2.423" x1="226.927" y1="203.897" x2="219.132" y2="211.051"/>
		<line fill="none" stroke="#000000" stroke-width="2.423" x1="209.032" y1="201.089" x2="216.595" y2="204.473"/>
		<line fill="none" stroke="#000000" stroke-width="2.423" x1="126.148" y1="237.851" x2="128.62" y2="229.04"/>
		<line fill="none" stroke="#000000" stroke-width="2.423" x1="129.919" y1="236.162" x2="127.566" y2="232.796"/>
		<line fill="none" stroke="#000000" stroke-width="2.423" x1="128.62" y1="229.04" x2="143.599" y2="230.158"/>
		<line fill="none" stroke="#000000" stroke-width="2.423" x1="121.285" y1="226.859" x2="128.62" y2="229.04"/>
		<line fill="none" stroke="#000000" stroke-width="2.423" x1="96.663" y1="126.632" x2="110.448" y2="132.952"/>
		<line fill="none" stroke="#000000" stroke-width="2.423" x1="97.352" y1="118.677" x2="106.521" y2="131.044"/>
		<line fill="none" stroke="#000000" stroke-width="2.423" x1="91.789" y1="120.668" x2="101.937" y2="124.86"/>
		<line fill="none" stroke="#000000" stroke-width="2.423" x1="158.834" y1="220.155" x2="163.878" y2="222.588"/>
		<line fill="none" stroke="#000000" stroke-width="2.423" x1="160.286" y1="224.956" x2="167.6" y2="219.926"/>
		<line fill="none" stroke="#000000" stroke-width="2.423" x1="85.924" y1="178.533" x2="96.644" y2="169.617"/>
		<line fill="none" stroke="#000000" stroke-width="2.423" x1="86.294" y1="170.428" x2="95.352" y2="170.691"/>
		<line fill="none" stroke="#000000" stroke-width="2.423" x1="110.391" y1="215.655" x2="121.503" y2="217.877"/>
		<line fill="none" stroke="#000000" stroke-width="2.423" x1="117.462" y1="213.643" x2="120.143" y2="207.653"/>
		<line fill="none" stroke="#000000" stroke-width="2.423" x1="108.039" y1="203.769" x2="124.087" y2="220.585"/>
		<line fill="none" stroke="#000000" stroke-width="2.423" x1="275.317" y1="140.418" x2="270.554" y2="143.296"/>
		<line fill="none" stroke="#000000" stroke-width="2.423" x1="264.366" y1="148.393" x2="264.226" y2="141.132"/>
		<line fill="none" stroke="#000000" stroke-width="2.423" x1="278.04" y1="147.892" x2="248.409" y2="129.696"/>
		<line fill="none" stroke="#000000" stroke-width="2.423" x1="253.712" y1="132.954" x2="264.241" y2="131.511"/>
		<line fill="none" stroke="#000000" stroke-width="2.423" x1="266.877" y1="145.517" x2="262.572" y2="138.392"/>
		<line fill="none" stroke="#000000" stroke-width="2.423" x1="329.464" y1="269.343" x2="316.109" y2="280.383"/>
		<line fill="none" stroke="#000000" stroke-width="2.423" x1="321.77" y1="267.898" x2="321.803" y2="275.676"/>
		<line fill="none" stroke="#000000" stroke-width="2.423" x1="316.109" y1="280.383" x2="295.537" y2="267.898"/>
		<line fill="none" stroke="#000000" stroke-width="2.423" x1="325.167" y1="291.692" x2="316.109" y2="280.383"/>
		<line fill="none" stroke="#000000" stroke-width="2.423" x1="288.837" y1="274.426" x2="274.208" y2="249.717"/>
		<line fill="none" stroke="#000000" stroke-width="2.423" x1="279.176" y1="286.061" x2="278.258" y2="256.92"/>
		<line fill="none" stroke="#000000" stroke-width="2.423" x1="289.986" y1="288.968" x2="278.717" y2="271.491"/>
		<line fill="none" stroke="#000000" stroke-width="2.423" x1="343.964" y1="182.587" x2="338.745" y2="173.358"/>
		<line fill="none" stroke="#000000" stroke-width="2.423" x1="346.89" y1="173.551" x2="330.078" y2="173.483"/>
		<line fill="none" stroke="#000000" stroke-width="2.423" x1="292.997" y1="152.45" x2="266.694" y2="154.758"/>
		<line fill="none" stroke="#000000" stroke-width="2.423" x1="283.673" y1="164.663" x2="269.863" y2="154.479"/>
		<line fill="none" stroke="#000000" stroke-width="2.423" x1="370.166" y1="185.521" x2="355.274" y2="170.068"/>
		<line fill="none" stroke="#000000" stroke-width="2.423" x1="356.992" y1="181.019" x2="346.355" y2="187.448"/>
		<line fill="none" stroke="#000000" stroke-width="2.423" x1="358.126" y1="187.448" x2="354.174" y2="163.07"/>
		<line fill="none" stroke="#000000" stroke-width="2.423" x1="233.317" y1="155.533" x2="233.995" y2="161.03"/>
		<line fill="none" stroke="#000000" stroke-width="2.423" x1="241.216" y1="156.098" x2="226.927" y2="165.578"/>
		<line fill="none" stroke="#000000" stroke-width="2.423" x1="244.112" y1="164.663" x2="237.962" y2="158.321"/>
		<line fill="none" stroke="#000000" stroke-width="2.423" x1="241.549" y1="162.021" x2="239.468" y2="168.692"/>
		<line fill="none" stroke="#000000" stroke-width="2.423" x1="314.165" y1="244.61" x2="316.607" y2="253.428"/>
		<line fill="none" stroke="#000000" stroke-width="2.423" x1="311.81" y1="248.008" x2="315.566" y2="249.671"/>
		<line fill="none" stroke="#000000" stroke-width="2.423" x1="316.607" y1="253.428" x2="303.208" y2="260.219"/>
		<line fill="none" stroke="#000000" stroke-width="2.423" x1="324.011" y1="251.503" x2="316.607" y2="253.428"/>
		<line fill="none" stroke="#000000" stroke-width="2.423" x1="346.017" y1="193.15" x2="330.951" y2="194.871"/>
		<line fill="none" stroke="#000000" stroke-width="2.423" x1="349.542" y1="200.314" x2="335.299" y2="194.471"/>
		<line fill="none" stroke="#000000" stroke-width="2.423" x1="353.273" y1="195.731" x2="342.42" y2="197.392"/>
		<line fill="none" stroke="#000000" stroke-width="2.423" x1="298.323" y1="145.434" x2="292.749" y2="145.962"/>
		<line fill="none" stroke="#000000" stroke-width="2.423" x1="294.599" y1="142.077" x2="290.941" y2="150.165"/>
		<line fill="none" stroke="#000000" stroke-width="2.423" x1="382.251" y1="143.347" x2="377.691" y2="156.522"/>
		<line fill="none" stroke="#000000" stroke-width="2.423" x1="386.126" y1="150.475" x2="378.24" y2="154.934"/>
		<line fill="none" stroke="#000000" stroke-width="2.423" x1="380.276" y1="163.025" x2="369.615" y2="166.871"/>
		<line fill="none" stroke="#000000" stroke-width="2.423" x1="375.263" y1="168.404" x2="376.068" y2="174.917"/>
		<line fill="none" stroke="#000000" stroke-width="2.423" x1="388.435" y1="171.98" x2="366.003" y2="165.889"/>
	</g>
	<g>
		<path fill="#FFE85E" d="M317.19,248.384c23.25,6.326,66.994,9.135,64.592,50.325c-2.402,41.191-54.093,54.113-82.36,41.191
			c-28.269-12.923-55.729-35.537-55.729-55.729C243.693,263.98,250.961,230.365,317.19,248.384z"/>
		<path fill="#FCD24C" d="M357.633,259.775c-1.064,2.627-2.24,5.209-3.5,7.713c-2.283,4.536-5.496,8.127-8.652,12.205
			c-6.173,7.973-15.844,12.91-25.183,16.042c-19.915,6.679-44.153-0.987-57.387-17.112c-5.035-6.136-9.516-12.98-12.856-20.307
			c-5.259,8.093-6.362,17.992-6.362,25.854c0,20.192,27.46,42.807,55.729,55.729c28.268,12.922,79.958,0,82.36-41.191
			C383.026,277.375,371.889,266.338,357.633,259.775z"/>
		<path fill="#EFC13F" d="M357.142,301.83c-11.829,9.734-23.155,16.98-37.805,21.88c-11.063,3.699-23.07,4.864-34.68,4.274
			c-2.478-0.125-4.968-0.274-7.459-0.458c6.999,4.672,14.578,8.879,22.223,12.374c28.268,12.922,79.958,0,82.36-41.191
			c0.484-8.309-0.915-15.049-3.639-20.579C372.24,287.008,365.293,295.121,357.142,301.83z"/>
		<path fill="#FFEFAE" d="M277.198,255.096c8.191,1.706,6.056,11.26-5.108,13.077c-11.163,1.816-11.445-1.379-12.941-4.003
			C255.038,256.961,258.142,251.126,277.198,255.096z"/>
		<g>
			<g>
				<path fill="#FFE85E" d="M67.414,99.786c32.852-9.086,55.728-2.424,72.688,7.269c16.962,9.692,20.999,46.844,17.77,62.997
					c-3.231,16.153-43.614,47.651-69.459,49.267c-25.845,1.616-76.728-22.434-69.459-61.695
					C26.224,118.362,29.455,110.285,67.414,99.786z"/>
				<path fill="#EFC13F" d="M140.103,107.054c-9.655-5.518-21.233-10.049-35.474-11.256c0.703,5.365,7.247,21.556,7.206,35.628
					c-0.062,21.306-5.541,65.102-11.536,85.478c24.796-7.938,54.807-33.02,57.573-46.853
					C161.102,153.898,157.065,116.747,140.103,107.054z"/>
				<path fill="#FCD24C" d="M111.835,131.427c-42.141,16.105-50.611,42.164-89.069,51.961c12.169,23.663,46.08,37.153,65.647,35.931
					c25.845-1.615,66.228-33.113,69.459-49.267c1.82-9.099,1.332-24.861-2.472-38.625
					C153.31,131.823,133.776,123.041,111.835,131.427z"/>
				<path fill="#EFC13F" d="M155.401,131.427c-2.08,0.395-21.424-8.288-43.225-0.123c-0.871,11.489-2.09,22.935-3.631,34.4
					c0.005-0.03,0.009-0.062,0.012-0.092c0.287-2.133,0.575-4.267,0.861-6.4c-0.282,2.145-0.563,4.277-0.861,6.4
					c-0.166,1.234-0.33,2.469-0.496,3.703c0.169-1.205,0.323-2.408,0.484-3.611c-1.174,8.412-2.589,16.68-5.256,24.833
					c-3.173,9.696-7.215,19.147-11.472,28.409c25.839-3.92,62.963-33.435,66.055-48.895
					C159.693,160.953,159.204,145.19,155.401,131.427z"/>
				<path fill="#FFF3B5" d="M37.262,124.284c1.852-10.415,16.112-8.156,18.824,5.884c2.713,14.039,4.29,10.891-4.575,16.503
					S32.955,148.514,37.262,124.284z"/>
				<path fill="#FFF3B5" d="M61.224,122.131c0.204-4.103,13.694-1.077,19.364,2.153c5.672,3.231-0.1,15.616-6.1,15.616
					C68.49,139.9,60.417,138.284,61.224,122.131z"/>
			</g>
			<path fill="none" stroke="#F4BD51" stroke-width="2.423" stroke-linecap="round" d="M95.205,180.381
				c0,0-10.972,1.546-13.266,0.615"/>
			<path fill="none" stroke="#F4BD51" stroke-width="2.423" stroke-linecap="round" d="M79.481,195.557
				c0,0-12.229,0.968-14.885,3.85"/>
			<path fill="none" stroke="#F4BD51" stroke-width="2.423" stroke-linecap="round" d="M56.363,181.294c0,0-7.568,1.066-9.151,0.423
				"/>
		</g>
		<g>
			<path fill="#FFE045" d="M206.315,100.533c35.186,0.14,81.573,16.153,96.111,58.152c14.538,41.998-12.114,79.15-48.056,85.61
				c-35.941,6.462-55.325,1.615-81.169-32.306c-25.846-33.922-41.998-42.806-21-75.111
				C173.201,104.571,182.667,100.439,206.315,100.533z"/>
			<path fill="#FCD24C" d="M280.694,126.542c-0.918,0.334-1.836,0.663-2.75,1.015c-13.508,6.206-8.632,29.333-23.977,55.568
				c-15.346,26.233-37.961,30.788-79.885,30.001c25.406,32.875,44.759,37.558,80.288,31.17c35.941-6.46,62.594-43.612,48.056-85.61
				C297.869,145.52,290.183,134.912,280.694,126.542z"/>
			<path fill="none" stroke="#F4BD51" stroke-width="2.423" stroke-linecap="round" d="M248.067,232.076
				c0,0,10.06-4.644,12.523-4.413"/>
			<path fill="none" stroke="#F4BD51" stroke-width="2.423" stroke-linecap="round" d="M263.284,200.365
				c0,0,9.902-5.774,13.144-7.979"/>
			<path fill="none" stroke="#F4BD51" stroke-width="2.423" stroke-linecap="round" d="M269.856,184.649c0,0,6.94-3.203,8.642-3.045
				"/>
			<path fill="none" stroke="#F4BD51" stroke-width="2.423" stroke-linecap="round" d="M218.47,184.35c0,0,7.069-3.681,9.066-5.504"
				/>
			<path fill="none" stroke="#F4BD51" stroke-width="2.423" stroke-linecap="round" d="M191.011,185.869
				c0,0,7.859-1.321,10.321-2.439"/>
			<path fill="none" stroke="#F4BD51" stroke-width="2.423" stroke-linecap="round" d="M206.54,198.096
				c0,0,13.67-1.694,18.004-3.442"/>
			<path fill="#FCE586" d="M169.448,134.455c9.945-0.537,11.426,48.863-0.689,45.835c-8.592-2.148-19.631-11.056-12.757-28.335
				C159.922,142.1,164.229,134.736,169.448,134.455z"/>
		</g>
		<g>
			<g>
				<path fill="#FFE045" d="M95.446,191.139c19.821-19.853,92.88-20.218,104.995,33.087c12.114,53.306,2.423,80.766-48.46,83.188
					c-50.883,2.424-108.226-12.113-104.996-50.074C50.216,219.381,77.676,208.935,95.446,191.139z"/>
				<path fill="#FCD24C" d="M131.605,307.468c6.062-5.339-1.679-11.745,25.222-23.739c12.075-5.384,19.293-13.707,23.424-23.197
					c-0.482,0.072-0.966,0.149-1.449,0.22c-8.383,5.491-17.618,9.847-27.311,13.005c-26.33,8.581-52.698,3.52-79.237-0.415
					c-7.722-0.813-15.403-0.997-23.158-1.206c10.417,25.888,55.459,36.505,97.67,35.467
					C141.731,307.723,136.656,307.681,131.605,307.468z"/>
				<path fill="#EFC13F" d="M204.949,253.347c-0.509-8.659-2.064-18.364-4.509-29.121c-3.147-13.846-10.411-24.062-19.78-31.266
					c-0.455,8.312,10.661,42.143-0.41,67.57c6.25-0.957,12.407-2.244,18.38-4.561C200.813,255.124,202.91,254.253,204.949,253.347z"
					/>
				<path fill="#EFC13F" d="M196.06,290.642c0.407-0.502,0.796-1.014,1.173-1.539c0.064-0.087,0.129-0.175,0.191-0.264
					c0.393-0.556,0.77-1.126,1.129-1.708c0.064-0.103,0.125-0.206,0.188-0.311c0.352-0.578,0.69-1.166,1.011-1.768
					c0.015-0.026,0.028-0.052,0.042-0.077c0.33-0.624,0.639-1.263,0.937-1.912c0.056-0.12,0.11-0.242,0.165-0.364
					c0.29-0.649,0.567-1.311,0.826-1.987c0.02-0.052,0.039-0.106,0.059-0.158c0.246-0.648,0.475-1.311,0.692-1.982
					c0.034-0.108,0.071-0.215,0.105-0.323c0.222-0.702,0.428-1.418,0.62-2.146c0.03-0.117,0.059-0.235,0.09-0.354
					c0.184-0.721,0.355-1.451,0.512-2.197c0.008-0.034,0.016-0.065,0.023-0.102c0.159-0.771,0.3-1.559,0.43-2.355
					c0.022-0.14,0.045-0.279,0.066-0.422c0.125-0.801,0.239-1.612,0.334-2.439c0.006-0.041,0.008-0.084,0.013-0.125
					c0.092-0.805,0.167-1.623,0.231-2.453c0.01-0.126,0.021-0.251,0.029-0.378c0.063-0.852,0.109-1.714,0.143-2.59
					c0.006-0.128,0.009-0.259,0.013-0.388c0.029-0.862,0.047-1.736,0.05-2.626c0-0.044,0.002-0.087,0.002-0.133
					c0.002-0.92-0.013-1.857-0.039-2.803c-0.004-0.159-0.01-0.317-0.015-0.476c-0.03-0.954-0.071-1.92-0.128-2.9
					c-0.002-0.005-0.002-0.011-0.002-0.016c-2.039,0.905-4.137,1.776-6.319,2.623c-5.973,2.316-12.13,3.604-18.38,4.561
					c-4.131,9.49-11.349,17.813-23.424,23.197c-26.9,11.994-19.16,18.4-25.222,23.739c5.052,0.214,10.126,0.256,15.16,0.134
					c0.098-0.002,0.197-0.006,0.296-0.008c1.646-0.041,3.285-0.1,4.92-0.18c1.133-0.054,2.236-0.124,3.329-0.202
					c0.235-0.017,0.473-0.034,0.706-0.052c1.057-0.082,2.098-0.176,3.117-0.279c0.168-0.02,0.332-0.039,0.5-0.057
					c0.929-0.101,1.842-0.211,2.739-0.332c0.167-0.022,0.337-0.044,0.504-0.066c0.972-0.136,1.925-0.284,2.859-0.443
					c0.202-0.035,0.401-0.07,0.601-0.105c0.935-0.166,1.855-0.34,2.753-0.53c0.019-0.004,0.038-0.006,0.057-0.011
					c0.908-0.193,1.794-0.402,2.665-0.62c0.186-0.048,0.373-0.093,0.557-0.142c0.848-0.219,1.682-0.448,2.493-0.692
					c0.119-0.035,0.236-0.074,0.356-0.11c0.744-0.229,1.473-0.468,2.188-0.716c0.132-0.046,0.266-0.09,0.396-0.137
					c0.768-0.272,1.515-0.56,2.247-0.856c0.15-0.062,0.298-0.124,0.446-0.186c0.723-0.302,1.434-0.611,2.123-0.938
					c0.021-0.01,0.043-0.021,0.064-0.03c0.703-0.335,1.385-0.686,2.053-1.044c0.137-0.074,0.275-0.148,0.41-0.224
					c0.652-0.36,1.289-0.73,1.906-1.114c0.078-0.048,0.152-0.1,0.23-0.148c0.571-0.36,1.126-0.732,1.669-1.116
					c0.096-0.066,0.195-0.134,0.292-0.203c0.574-0.413,1.13-0.84,1.67-1.277c0.104-0.085,0.205-0.17,0.309-0.256
					c0.529-0.438,1.047-0.886,1.544-1.348c0.019-0.018,0.038-0.035,0.059-0.052c0.51-0.479,0.999-0.973,1.476-1.476
					c0.094-0.101,0.188-0.198,0.279-0.298c0.465-0.504,0.918-1.017,1.351-1.545C195.974,290.754,196.016,290.698,196.06,290.642z"/>
				<path fill="#FCE586" d="M80.701,225.598c6.217,1.762,6.328,6.365,9.021,19.365c2.691,13,0.958,15.147-11.642,14.885
					c-13.109-0.274-14.742-5.653-12.59-22.346C67.645,220.811,74.22,223.76,80.701,225.598z"/>
			</g>
			<path fill="#FCD24C" d="M180.494,301.877c-0.148,0.062-0.296,0.124-0.446,0.186C180.198,302.001,180.346,301.938,180.494,301.877
				z"/>
			<path fill="#FCD24C" d="M182.682,300.909c-0.021,0.01-0.044,0.021-0.064,0.03C182.638,300.929,182.66,300.921,182.682,300.909z"
				/>
			<path fill="#FCD24C" d="M185.145,299.641c-0.135,0.075-0.273,0.149-0.41,0.224C184.871,299.791,185.01,299.717,185.145,299.641z"
				/>
			<path fill="#FCD24C" d="M177.801,302.919c-0.131,0.047-0.265,0.091-0.396,0.137C177.536,303.01,177.67,302.966,177.801,302.919z"
				/>
			<path fill="#FCD24C" d="M159.633,306.824c-0.168,0.018-0.332,0.037-0.5,0.057C159.301,306.861,159.465,306.842,159.633,306.824z"
				/>
			<path fill="#FCD24C" d="M172.367,304.574c-0.184,0.049-0.371,0.094-0.557,0.142C171.996,304.668,172.184,304.623,172.367,304.574
				z"/>
			<path fill="#FCD24C" d="M162.876,306.426c-0.167,0.022-0.337,0.044-0.504,0.066C162.539,306.469,162.709,306.448,162.876,306.426
				z"/>
			<path fill="#FCD24C" d="M166.336,305.877c-0.199,0.035-0.398,0.07-0.601,0.105C165.938,305.947,166.137,305.912,166.336,305.877z
				"/>
			<path fill="#FCD24C" d="M156.016,307.16c-0.233,0.018-0.471,0.035-0.706,0.052C155.545,307.195,155.782,307.177,156.016,307.16z"
				/>
			<path fill="#FCD24C" d="M175.217,303.771c-0.12,0.036-0.237,0.075-0.356,0.11C174.98,303.846,175.097,303.807,175.217,303.771z"
				/>
			<path fill="#FCD24C" d="M151.981,307.414c-1.635,0.08-3.274,0.139-4.92,0.18C148.706,307.551,150.346,307.494,151.981,307.414z"
				/>
			<path fill="#FCD24C" d="M191.221,295.526c-0.104,0.086-0.205,0.171-0.309,0.256C191.016,295.697,191.117,295.612,191.221,295.526
				z"/>
			<path fill="#FCD24C" d="M192.823,294.127c-0.021,0.017-0.04,0.034-0.059,0.052C192.783,294.161,192.803,294.143,192.823,294.127z
				"/>
			<path fill="#FCD24C" d="M189.242,297.059c-0.097,0.069-0.196,0.137-0.292,0.203C189.046,297.196,189.146,297.129,189.242,297.059
				z"/>
			<path fill="#FCD24C" d="M169.146,305.336c-0.019,0.005-0.038,0.007-0.057,0.011C169.108,305.343,169.127,305.341,169.146,305.336
				z"/>
			<path fill="#FCD24C" d="M187.281,298.379c-0.078,0.049-0.152,0.101-0.23,0.148C187.129,298.479,187.203,298.427,187.281,298.379z
				"/>
			<path fill="#EFC13F" d="M194.299,292.651c-0.477,0.503-0.966,0.997-1.476,1.476C193.333,293.648,193.823,293.154,194.299,292.651
				z"/>
			<path fill="#EFC13F" d="M171.811,304.716c-0.871,0.218-1.757,0.427-2.665,0.62C170.054,305.142,170.94,304.933,171.811,304.716z"
				/>
			<path fill="#EFC13F" d="M187.051,298.527c-0.617,0.384-1.254,0.754-1.906,1.114C185.797,299.281,186.434,298.911,187.051,298.527
				z"/>
			<path fill="#EFC13F" d="M180.048,302.062c-0.732,0.297-1.479,0.584-2.247,0.856C178.569,302.646,179.316,302.359,180.048,302.062
				z"/>
			<path fill="#EFC13F" d="M184.735,299.865c-0.668,0.358-1.35,0.709-2.053,1.044C183.385,300.574,184.067,300.223,184.735,299.865z
				"/>
			<path fill="#EFC13F" d="M177.405,303.055c-0.715,0.248-1.443,0.487-2.188,0.716C175.961,303.543,176.69,303.303,177.405,303.055z
				"/>
			<path fill="#EFC13F" d="M192.765,294.178c-0.497,0.462-1.015,0.91-1.544,1.348C191.75,295.089,192.268,294.64,192.765,294.178z"
				/>
			<path fill="#EFC13F" d="M188.95,297.262c-0.543,0.384-1.098,0.756-1.669,1.116C187.853,298.018,188.407,297.646,188.95,297.262z"
				/>
			<path fill="#EFC13F" d="M190.912,295.782c-0.54,0.438-1.096,0.864-1.67,1.277C189.817,296.646,190.372,296.219,190.912,295.782z"
				/>
			<path fill="#EFC13F" d="M174.861,303.882c-0.812,0.244-1.646,0.474-2.493,0.692C173.215,304.355,174.049,304.126,174.861,303.882
				z"/>
			<path fill="#EFC13F" d="M182.617,300.939c-0.689,0.326-1.4,0.636-2.123,0.938C181.217,301.575,181.928,301.265,182.617,300.939z"
				/>
			<path fill="#EFC13F" d="M165.736,305.982c-0.935,0.159-1.888,0.308-2.859,0.443C163.848,306.29,164.801,306.141,165.736,305.982z
				"/>
			<path fill="#EFC13F" d="M169.089,305.346c-0.897,0.19-1.818,0.364-2.753,0.53C167.271,305.711,168.192,305.537,169.089,305.346z"
				/>
			<path fill="#EFC13F" d="M155.31,307.212c-1.093,0.078-2.196,0.148-3.329,0.202C153.114,307.36,154.217,307.29,155.31,307.212z"/>
			<path fill="#EFC13F" d="M159.133,306.881c-1.02,0.104-2.061,0.197-3.117,0.279C157.073,307.078,158.114,306.984,159.133,306.881z
				"/>
			<path fill="#EFC13F" d="M162.372,306.492c-0.897,0.121-1.811,0.231-2.739,0.332C160.562,306.723,161.475,306.613,162.372,306.492
				z"/>
			<path fill="#EFC13F" d="M147.061,307.594c-0.099,0.002-0.198,0.006-0.296,0.008C146.863,307.599,146.962,307.595,147.061,307.594
				z"/>
			<path fill="none" stroke="#F9D438" stroke-width="2.423" stroke-linecap="round" d="M141.871,239.809
				c0,0,10.973,1.534,12.922,3.062"/>
			<path fill="none" stroke="#F9D438" stroke-width="2.423" stroke-linecap="round" d="M125.277,221.532
				c0,0,12.021,2.434,15.371,0.396"/>
			<path fill="none" stroke="#F9D438" stroke-width="2.423" stroke-linecap="round" d="M158.432,232.202
				c0,0,7.568,1.058,8.915,2.111"/>
			<path fill="none" stroke="#F9D438" stroke-width="2.423" stroke-linecap="round" d="M114.673,210.619
				c0,0,8.294,1.679,10.604,0.273"/>
		</g>
		<path fill="none" stroke="#F9D438" stroke-width="2.423" stroke-linecap="round" d="M309.45,292.012c0,0,5.192-5.122,6.667-6.97"
			/>
		<path fill="none" stroke="#F9D438" stroke-width="2.423" stroke-linecap="round" d="M295.453,288.498c0,0,3.651-3.604,4.69-4.903"
			/>
		<path fill="none" stroke="#F9D438" stroke-width="2.423" stroke-linecap="round" d="M310.44,274.714c0,0,3.652-3.604,4.689-4.902"
			/>
		<path fill="none" stroke="#F4BD51" stroke-width="2.423" stroke-linecap="round" d="M265.048,311.375c0,0,5.519-2.873,7.078-4.297
			"/>
		<path fill="none" stroke="#F4BD51" stroke-width="2.423" stroke-linecap="round" d="M266.317,298.909c0,0,5.519-2.874,7.078-4.299
			"/>
		<path fill="none" stroke="#F4BD51" stroke-width="2.423" stroke-linecap="round" d="M286.318,315.757
			c0,0,12.42-5.957,15.972-8.993"/>
		<g>
			<path fill="#FFE85E" d="M327.281,147.672c26.82-17.448,74.025-25.618,84.52,5.319c10.493,30.936,22.361,60.255-0.33,78.312
				c-22.69,18.056-99.904,25.145-106.684-26.789C298.009,152.581,310.32,158.706,327.281,147.672z"/>
			<path fill="#F4D65B" d="M392.041,175.177c-6.734,6.414-14.6,11.756-22.43,16.699c-14.707,9.284-31.154,15.636-47.695,20.812
				c-4.588,1.436-9.254,2.688-13.976,3.725c16.27,38.752,82.753,31.424,103.53,14.891c22.691-18.057,10.823-47.376,0.33-78.312
				c-0.427-1.258-0.92-2.444-1.465-3.574C405.654,159.157,400.238,167.367,392.041,175.177z"/>
			<path fill="none" stroke="#DBBF49" stroke-width="2.423" stroke-linecap="round" d="M394.054,218.634c0,0,4.473-5.734,5.98-6.341
				"/>
			<path fill="none" stroke="#DBBF49" stroke-width="2.423" stroke-linecap="round" d="M393.395,195.552
				c0,0,4.043-6.348,5.271-8.608"/>
			<path fill="none" stroke="#DBBF49" stroke-width="2.423" stroke-linecap="round" d="M366.942,218.603
				c0,0,6.926-2.943,9.218-4.109"/>
			<path fill="#FFEFAE" d="M343.127,161.469c2.488,5.961-1.046,8.914-9.546,19.111c-8.501,10.198-11.26,10.177-18.896,0.15
				c-7.942-10.432-4.749-15.057,9.656-23.759C338.748,148.269,340.531,155.252,343.127,161.469z"/>
		</g>
		<g>
			<line fill="none" stroke="#799902" stroke-width="2.423" x1="141.951" y1="173.073" x2="152.443" y2="173.073"/>
			<line fill="none" stroke="#799902" stroke-width="2.423" x1="167.396" y1="170.88" x2="160.542" y2="182.732"/>
			<line fill="none" stroke="#799902" stroke-width="2.423" x1="144.847" y1="158.357" x2="174.91" y2="216.603"/>
			<line fill="none" stroke="#799902" stroke-width="2.423" x1="169.531" y1="206.18" x2="151.137" y2="198.24"/>
			<line fill="none" stroke="#799902" stroke-width="2.423" x1="160.542" y1="173.073" x2="160.542" y2="188.767"/>
		</g>
		<g>
			<line fill="none" stroke="#799902" stroke-width="2.423" x1="85.615" y1="219.312" x2="102.757" y2="216.771"/>
			<line fill="none" stroke="#799902" stroke-width="2.423" x1="91.454" y1="224.528" x2="95.448" y2="217.855"/>
			<line fill="none" stroke="#799902" stroke-width="2.423" x1="102.757" y1="216.771" x2="112.412" y2="243.53"/>
			<line fill="none" stroke="#799902" stroke-width="2.423" x1="100.853" y1="202.406" x2="102.757" y2="216.771"/>
		</g>
		<g>
			<line fill="none" stroke="#799902" stroke-width="2.423" x1="124.597" y1="183.317" x2="124.338" y2="212.031"/>
			<line fill="none" stroke="#799902" stroke-width="2.423" x1="138.883" y1="178.355" x2="124.597" y2="203.77"/>
			<line fill="none" stroke="#799902" stroke-width="2.423" x1="131.136" y1="170.277" x2="131.74" y2="191.062"/>
		</g>
		<g>
			<line fill="none" stroke="#799902" stroke-width="2.423" x1="172.672" y1="159.909" x2="172.365" y2="170.507"/>
			<line fill="none" stroke="#799902" stroke-width="2.423" x1="165.493" y1="166.131" x2="179.848" y2="174.883"/>
		</g>
		<g>
			<line fill="none" stroke="#799902" stroke-width="2.423" x1="178.588" y1="150.353" x2="202.293" y2="161.983"/>
			<line fill="none" stroke="#799902" stroke-width="2.423" x1="192.885" y1="144.723" x2="199.438" y2="160.582"/>
		</g>
		<g>
			<line fill="none" stroke="#799902" stroke-width="2.423" x1="112.412" y1="143.018" x2="117.166" y2="163.948"/>
			<line fill="none" stroke="#799902" stroke-width="2.423" x1="121.36" y1="153.686" x2="133.787" y2="153.686"/>
			<line fill="none" stroke="#799902" stroke-width="2.423" x1="131.136" y1="129.76" x2="114.487" y2="170.507"/>
		</g>
		<g>
			<line fill="none" stroke="#799902" stroke-width="2.423" x1="199.353" y1="204.381" x2="201.615" y2="199.325"/>
			<line fill="none" stroke="#799902" stroke-width="2.423" x1="203.783" y1="191.643" x2="208.019" y2="197.503"/>
			<line fill="none" stroke="#799902" stroke-width="2.423" x1="192.885" y1="199.809" x2="227.443" y2="197.883"/>
			<line fill="none" stroke="#799902" stroke-width="2.423" x1="221.258" y1="198.228" x2="213.463" y2="205.382"/>
			<line fill="none" stroke="#799902" stroke-width="2.423" x1="203.364" y1="195.42" x2="210.926" y2="198.804"/>
		</g>
		<g>
			<line fill="none" stroke="#799902" stroke-width="2.423" x1="120.479" y1="232.182" x2="122.951" y2="223.371"/>
			<line fill="none" stroke="#799902" stroke-width="2.423" x1="124.25" y1="230.493" x2="121.897" y2="227.127"/>
			<line fill="none" stroke="#799902" stroke-width="2.423" x1="122.951" y1="223.371" x2="137.93" y2="224.489"/>
			<line fill="none" stroke="#799902" stroke-width="2.423" x1="115.616" y1="221.19" x2="122.951" y2="223.371"/>
		</g>
		<g>
			<line fill="none" stroke="#799902" stroke-width="2.423" x1="90.994" y1="120.963" x2="104.779" y2="127.283"/>
			<line fill="none" stroke="#799902" stroke-width="2.423" x1="91.683" y1="113.008" x2="100.852" y2="125.375"/>
			<line fill="none" stroke="#799902" stroke-width="2.423" x1="86.12" y1="114.999" x2="96.268" y2="119.191"/>
		</g>
		<g>
			<line fill="none" stroke="#799902" stroke-width="2.423" x1="153.165" y1="214.486" x2="158.209" y2="216.919"/>
			<line fill="none" stroke="#799902" stroke-width="2.423" x1="154.617" y1="219.287" x2="161.931" y2="214.257"/>
		</g>
		<g>
			<line fill="none" stroke="#799902" stroke-width="2.423" x1="80.255" y1="172.864" x2="90.975" y2="163.948"/>
			<line fill="none" stroke="#799902" stroke-width="2.423" x1="80.625" y1="164.76" x2="89.683" y2="165.022"/>
		</g>
		<g>
			<line fill="none" stroke="#799902" stroke-width="2.423" x1="104.722" y1="209.986" x2="115.834" y2="212.208"/>
			<line fill="none" stroke="#799902" stroke-width="2.423" x1="111.793" y1="207.974" x2="114.474" y2="201.984"/>
			<line fill="none" stroke="#799902" stroke-width="2.423" x1="102.37" y1="198.1" x2="118.418" y2="214.916"/>
		</g>
		<g>
			<line fill="none" stroke="#799902" stroke-width="2.423" x1="269.648" y1="134.749" x2="264.885" y2="137.627"/>
			<line fill="none" stroke="#799902" stroke-width="2.423" x1="258.698" y1="142.724" x2="258.557" y2="135.463"/>
			<line fill="none" stroke="#799902" stroke-width="2.423" x1="272.371" y1="142.223" x2="242.74" y2="124.027"/>
			<line fill="none" stroke="#799902" stroke-width="2.423" x1="248.043" y1="127.285" x2="258.573" y2="125.843"/>
			<line fill="none" stroke="#799902" stroke-width="2.423" x1="261.208" y1="139.848" x2="256.903" y2="132.723"/>
		</g>
		<g>
			<line fill="none" stroke="#799902" stroke-width="2.423" x1="323.795" y1="263.674" x2="310.44" y2="274.714"/>
			<line fill="none" stroke="#799902" stroke-width="2.423" x1="316.101" y1="262.229" x2="316.134" y2="270.007"/>
			<line fill="none" stroke="#799902" stroke-width="2.423" x1="310.44" y1="274.714" x2="289.868" y2="262.229"/>
			<line fill="none" stroke="#799902" stroke-width="2.423" x1="319.498" y1="286.023" x2="310.44" y2="274.714"/>
		</g>
		<g>
			<line fill="none" stroke="#799902" stroke-width="2.423" x1="283.168" y1="268.757" x2="268.539" y2="244.048"/>
			<line fill="none" stroke="#799902" stroke-width="2.423" x1="273.507" y1="280.392" x2="272.589" y2="251.251"/>
			<line fill="none" stroke="#799902" stroke-width="2.423" x1="284.317" y1="283.299" x2="273.048" y2="265.822"/>
		</g>
		<g>
			<line fill="none" stroke="#799902" stroke-width="2.423" x1="338.295" y1="176.918" x2="333.076" y2="167.689"/>
			<line fill="none" stroke="#799902" stroke-width="2.423" x1="341.221" y1="167.882" x2="324.409" y2="167.814"/>
		</g>
		<g>
			<line fill="none" stroke="#799902" stroke-width="2.423" x1="287.328" y1="146.781" x2="261.025" y2="149.089"/>
			<line fill="none" stroke="#799902" stroke-width="2.423" x1="278.004" y1="158.994" x2="264.194" y2="148.81"/>
		</g>
		<g>
			<line fill="none" stroke="#799902" stroke-width="2.423" x1="364.497" y1="179.852" x2="349.605" y2="164.399"/>
			<line fill="none" stroke="#799902" stroke-width="2.423" x1="351.323" y1="175.35" x2="340.686" y2="181.779"/>
			<line fill="none" stroke="#799902" stroke-width="2.423" x1="352.457" y1="181.779" x2="348.505" y2="157.401"/>
		</g>
		<g>
			<line fill="none" stroke="#799902" stroke-width="2.423" x1="227.648" y1="149.864" x2="228.326" y2="155.361"/>
			<line fill="none" stroke="#799902" stroke-width="2.423" x1="235.547" y1="150.429" x2="221.258" y2="159.909"/>
			<line fill="none" stroke="#799902" stroke-width="2.423" x1="238.443" y1="158.994" x2="232.293" y2="152.652"/>
			<line fill="none" stroke="#799902" stroke-width="2.423" x1="235.88" y1="156.352" x2="233.799" y2="163.023"/>
		</g>
		<g>
			<line fill="none" stroke="#799902" stroke-width="2.423" x1="308.496" y1="238.941" x2="310.938" y2="247.76"/>
			<line fill="none" stroke="#799902" stroke-width="2.423" x1="306.141" y1="242.339" x2="309.897" y2="244.002"/>
			<line fill="none" stroke="#799902" stroke-width="2.423" x1="310.938" y1="247.76" x2="297.539" y2="254.551"/>
			<line fill="none" stroke="#799902" stroke-width="2.423" x1="318.342" y1="245.834" x2="310.938" y2="247.76"/>
		</g>
		<g>
			<line fill="none" stroke="#799902" stroke-width="2.423" x1="340.348" y1="187.481" x2="325.282" y2="189.202"/>
			<line fill="none" stroke="#799902" stroke-width="2.423" x1="343.873" y1="194.645" x2="329.63" y2="188.802"/>
			<line fill="none" stroke="#799902" stroke-width="2.423" x1="347.604" y1="190.062" x2="336.751" y2="191.723"/>
		</g>
		<g>
			<line fill="none" stroke="#799902" stroke-width="2.423" x1="292.655" y1="139.765" x2="287.08" y2="140.293"/>
			<line fill="none" stroke="#799902" stroke-width="2.423" x1="288.93" y1="136.408" x2="285.272" y2="144.496"/>
		</g>
		<g>
			<line fill="none" stroke="#799902" stroke-width="2.423" x1="376.582" y1="137.678" x2="372.022" y2="150.853"/>
			<line fill="none" stroke="#799902" stroke-width="2.423" x1="380.457" y1="144.806" x2="372.571" y2="149.265"/>
		</g>
		<g>
			<line fill="none" stroke="#799902" stroke-width="2.423" x1="374.607" y1="157.356" x2="363.946" y2="161.202"/>
			<line fill="none" stroke="#799902" stroke-width="2.423" x1="369.594" y1="162.735" x2="370.399" y2="169.248"/>
			<line fill="none" stroke="#799902" stroke-width="2.423" x1="382.766" y1="166.311" x2="360.334" y2="160.22"/>
		</g>
	</g>
</g>
</svg>
