<?xml version="1.0" encoding="utf-8"?>
<!-- Generator: Adobe Illustrator 16.0.0, SVG Export Plug-In . SVG Version: 6.00 Build 0)  -->
<!DOCTYPE svg PUBLIC "-//W3C//DTD SVG 1.1//EN" "http://www.w3.org/Graphics/SVG/1.1/DTD/svg11.dtd">
<svg version="1.1" id="Layer_2" xmlns="http://www.w3.org/2000/svg" xmlns:xlink="http://www.w3.org/1999/xlink" x="0px" y="0px"
	 width="450px" height="450px" viewBox="0 0 450 450" enable-background="new 0 0 450 450" xml:space="preserve">
<g>
	<g>
		<g opacity="0.3">
			<path opacity="0.3" d="M419.482,222.768c9.547-6.811,5.128-23.304-5.813-24.438c8.767-11.756-0.957-15.435-11.511-18.428
				c6.853-4.058,8.139-19.241-2.028-21.218c1.939-7.988,0.202-15.554-8.166-16.98c2.087-7.066-6.889-21.816-13.813-15.039
				c2.258-9.583-7.607-20.074-15.997-16.894c1.562-13.703-9.315-18.172-19.179-9.978c-3.426-10.487-18.443-7.944-21.482,2.281
				c-4.57-5.977-16.187-11.471-21.912,0.916c-2.927-7.51-13.879-9.27-16.088,0.577c-0.102-8.227-8.181-15.869-16.859-5.952
				c2.599-14.167-8.141-16.206-14.047-6.796c-0.307-4.138-5.758-6.406-9.175-5.804c-4.136,0.726-11.08,2.571-6.652,11.113
				c-8.509-9.4-16.438,2.526-13.067,10.454c-5.368-5.801-15.379-0.231-14.154,10.193c-6.207-3.848-14.356,2.517-15.464,9.964
				c-2.593-1.927-6.333-2.035-9.699,1.202c3.752-8.805-11.546-16.021-14.466-4.121c-6.895-9.301-23.047-5.041-23.68,3.981
				c-7.119-2.062-12.696-5-19.033,1.529c-3.925,4.041-5.479,10.523-2.214,15.386c-6.433-2.991-18.398-0.18-14.748,11
				c-6.25-9.3-20.825-2.516-15.485,8.741c-9.814-5.341-23.669-1.011-19.817,14.803c-13.369-7.949-25.244,14.869-16.805,25.403
				c-14.927,2.804-12.817,19.393-2.144,26.827c-7.008,11.249-3.034,25.002,9.396,25.07c-8.708,8.629-0.248,23.86,11.745,22.72
				c-6.755,13.308,4.507,14.907,16.504,15.666c-6.438,5.381-4.394,20.504,6.96,20.348c-0.279,8.217,3.29,15.263,12.589,14.938
				c-0.646,7.345,12.31,19.934,18.21,11.878c-0.262,9.842,12.688,18.079,20.971,13.242c1.415,13.73,14.092,15.867,22.827,5.819
				c6.04,9.56,21.578,3.982,22.533-6.649c6.251,4.909,19.952,7.896,23.302-5.403c4.833,6.748,16.98,6.218,17.131-3.872
				c1.963,8.029,12.354,13.847,19.43,2.356c0.406,14.399,12.387,14.186,16.603,3.763c1.261,3.986,7.622,5.085,11.151,3.793
				c4.273-1.561,11.309-4.794,4.632-12.243c7.313,4.843,12.326,0.914,13.458-4.369c6.208,3.941,15.558,1.712,17.406-4.939
				c5.931,3.354,10.305,7.276,17.304,2.074c4.335-3.218,7.056-9.271,5.142-14.642c5.126,4.134,16.386,3.627,15.426-7.998
				c3.667,10.273,18.073,6.368,15.621-5.649c7.662,7.068,20.92,5.429,20.734-10.77c10.299,10.287,25.592-9.815,20.225-21.707
				c13.901,0.055,15.43-16.574,7.432-25.853C431.282,239.371,430.564,225.167,419.482,222.768z"/>
			<path opacity="0.3" d="M419.482,222.768c9.547-6.811,5.128-23.304-5.813-24.438c8.767-11.756-0.957-15.435-11.511-18.428
				c6.853-4.058,8.139-19.241-2.028-21.218c1.939-7.988,0.202-15.554-8.166-16.98c1.271-4.303-1.563-11.445-5.533-14.852
				c-2.65,2.419-5.406,4.938-8.243,7.531c-3.584-3.435-7.594-6.508-11.702-9.54c-4.816-3.555-12.412-1.836-16.359,2.111
				c-2.408,2.408-3.715,5.563-3.888,8.797c-7.209,1.559-13.249,8.036-10.251,16.338c0.092,0.253,0.18,0.584,0.252,0.874
				c-0.004,0.554-0.031,1.107-0.063,1.657c-0.092,0.476-0.188,0.95-0.299,1.422c-1.553,0.151-3.077,0.437-4.461,0.773
				c-4.966,1.208-7.933,4.592-9.061,8.609c-3.155,0.079-6.191,0.91-8.975,2.288c-8.222,2.886-15.943,8.163-21.401,13.896
				c-1.756,0.4-3.441,0.93-4.981,1.532c-8.862,3.468-16.155,9.882-22.055,17.486c-9.517-3.722-18.897-1.625-28.089,2.463
				c-11.508,5.119-22.104,16.386-24.893,28.932c-0.565,2.06-0.942,4.15-1.115,6.239c-8.563,8.155-13.804,19.631-11.147,30.348
				c0.734,2.963,2.396,5.698,4.587,7.973c-0.302,0.304-0.586,0.624-0.898,0.917c-1.272,1.052-1.545,1.318-0.817,0.801
				c-7.306,5.479-14.96,5.415-24.231,4.701c-7.673-0.591-13.07,6.604-13.5,13.5c-0.163,2.612-0.403,5.214-0.699,7.813
				c-0.009-0.205-0.5,3.175-0.574,3.596c-0.303,1.706-0.687,3.396-1.089,5.081c-0.06,0.247-0.134,0.49-0.197,0.736
				c-6.175,5.666-11.321,12.677-10.774,21.441c0.139,2.229,0.823,4.371,1.897,6.273c-4.995,4.618-9.746,9.009-14.191,13.119
				c4.144,2.422,9.18,3.11,13.147,0.793c1.415,13.73,14.092,15.867,22.827,5.819c6.04,9.56,21.578,3.982,22.533-6.649
				c6.251,4.909,19.952,7.896,23.302-5.403c4.833,6.748,16.98,6.218,17.131-3.872c1.963,8.029,12.354,13.847,19.43,2.356
				c0.406,14.399,12.387,14.186,16.603,3.763c1.261,3.986,7.622,5.085,11.151,3.793c4.273-1.561,11.309-4.794,4.632-12.243
				c7.313,4.843,12.326,0.914,13.458-4.369c6.208,3.941,15.558,1.712,17.406-4.939c5.931,3.354,10.305,7.276,17.304,2.074
				c4.335-3.218,7.056-9.271,5.142-14.642c5.126,4.134,16.386,3.627,15.426-7.998c3.667,10.273,18.073,6.368,15.621-5.649
				c7.662,7.068,20.92,5.429,20.734-10.77c10.299,10.287,25.592-9.815,20.225-21.707c13.901,0.055,15.43-16.574,7.432-25.853
				C431.282,239.371,430.564,225.167,419.482,222.768z"/>
			<path opacity="0.3" d="M44.495,264.549c-11.642,0-19.604,18.677,0.611,19.618C59.23,284.822,56.135,264.549,44.495,264.549z"/>
			<path opacity="0.3" d="M46.652,264.484c-12.721-0.767-15.436,19.599-0.688,19.521C61.098,283.925,63.359,265.491,46.652,264.484z
				"/>
			<g>
				<defs>
					<path id="SVGID_1_" d="M301.631,330c7.066,4.573,16.552-2.936,12.887-12.885c9.091,3.004,17.871-9.146,12.971-17.466
						c13.214,2.087,14.886-12.192,9.474-18.695c7.845,2.252,21.407-9.088,12.426-18.119c10.657,2.739,14.86-12.021,5.667-16.664
						c9.327-2.821-1.359-17.287-8.784-15.191c2.971-7.217-4.113-18.607-14.918-8.742c7.066-12.805-2.495-24.259-13.301-17.347
						c0.83-12.868-11.225-14.117-17.813-7.186c0.133-0.924-17.511,19.002-17.487,18.198c0,0-32.186-24.844-41.73,0
						c-9.71,25.273-71.485,42.519-70.49,52.371c1.604,15.885,16.584,37.432-14.546,31.916c-29.138-5.159-61.358,13.38-61.358,13.38
						c1.576,1.102,3.56,1.758,5.963,1.726c-0.279,8.217,3.29,15.263,12.589,14.938c-0.646,7.345,12.31,19.934,18.21,11.878
						c-0.262,9.842,12.688,18.079,20.971,13.242c1.415,13.73,14.092,15.867,22.827,5.819c6.04,9.56,21.578,3.982,22.533-6.649
						c6.251,4.909,19.952,7.896,23.302-5.403c4.833,6.748,16.98,6.218,17.131-3.872c1.963,8.029,12.354,13.847,19.43,2.356
						c0.406,14.399,12.387,14.186,16.603,3.763c1.261,3.986,7.622,5.085,11.151,3.793c4.273-1.561,11.309-4.794,4.632-12.243
						C301.215,350.367,307.033,337.065,301.631,330z"/>
				</defs>
				<clipPath id="SVGID_2_">
					<use xlink:href="#SVGID_1_"  overflow="visible"/>
				</clipPath>
			</g>
		</g>
		<g>
			<g>
				<g>
					<g>
						<g>
							<defs>
								<path id="SVGID_3_" d="M295.962,327.165c7.066,4.573,16.552-2.936,12.887-12.885c9.091,3.004,17.871-9.146,12.971-17.466
									c13.214,2.087,14.886-12.192,9.474-18.695c7.845,2.252,21.407-9.088,12.426-18.119c10.657,2.739,14.86-12.021,5.667-16.664
									c9.327-2.821-1.359-17.287-8.784-15.191c2.971-7.217-4.113-18.607-14.918-8.742c7.066-12.805-2.495-24.259-13.301-17.347
									c0.83-12.868-11.225-14.117-17.813-7.186c0.133-0.924-17.511,19.002-17.487,18.198c0,0-32.186-24.844-41.73,0
									c-9.71,25.273-71.485,42.519-70.49,52.371c1.604,15.885,16.584,37.432-14.546,31.916
									c-29.138-5.159-61.358,13.38-61.358,13.38c1.576,1.102,3.56,1.758,5.963,1.726c-0.279,8.217,3.29,15.263,12.589,14.938
									c-0.646,7.345,12.31,19.934,18.21,11.878c-0.262,9.842,12.688,18.079,20.971,13.242c1.415,13.73,14.092,15.867,22.827,5.819
									c6.04,9.56,21.578,3.982,22.533-6.649c6.251,4.909,19.952,7.896,23.302-5.403c4.833,6.748,16.98,6.218,17.131-3.872
									c1.963,8.029,12.354,13.847,19.43,2.356c0.406,14.399,12.387,14.186,16.603,3.763c1.261,3.986,7.622,5.085,11.151,3.793
									c4.273-1.561,11.309-4.794,4.632-12.243C295.546,347.532,301.365,334.23,295.962,327.165z"/>
							</defs>
							<clipPath id="SVGID_4_">
								<use xlink:href="#SVGID_3_"  overflow="visible"/>
							</clipPath>
						</g>
					</g>
					<g>
						<g>
							<defs>
								<path id="SVGID_5_" d="M295.962,327.165c7.066,4.573,16.552-2.936,12.887-12.885c9.091,3.004,17.871-9.146,12.971-17.466
									c13.214,2.087,14.886-12.192,9.474-18.695c7.845,2.252,21.407-9.088,12.426-18.119c10.657,2.739,14.86-12.021,5.667-16.664
									c9.327-2.821-1.359-17.287-8.784-15.191c2.971-7.217-4.113-18.607-14.918-8.742c7.066-12.805-2.495-24.259-13.301-17.347
									c0.83-12.868-11.225-14.117-17.813-7.186c0.133-0.924-17.511,19.002-17.487,18.198c0,0-32.186-24.844-41.73,0
									c-9.71,25.273-71.485,42.519-70.49,52.371c1.604,15.885,16.584,37.432-14.546,31.916
									c-29.138-5.159-61.358,13.38-61.358,13.38c1.576,1.102,3.56,1.758,5.963,1.726c-0.279,8.217,3.29,15.263,12.589,14.938
									c-0.646,7.345,12.31,19.934,18.21,11.878c-0.262,9.842,12.688,18.079,20.971,13.242c1.415,13.73,14.092,15.867,22.827,5.819
									c6.04,9.56,21.578,3.982,22.533-6.649c6.251,4.909,19.952,7.896,23.302-5.403c4.833,6.748,16.98,6.218,17.131-3.872
									c1.963,8.029,12.354,13.847,19.43,2.356c0.406,14.399,12.387,14.186,16.603,3.763c1.261,3.986,7.622,5.085,11.151,3.793
									c4.273-1.561,11.309-4.794,4.632-12.243C295.546,347.532,301.365,334.23,295.962,327.165z"/>
							</defs>
							<clipPath id="SVGID_6_">
								<use xlink:href="#SVGID_5_"  overflow="visible"/>
							</clipPath>
						</g>
					</g>
				</g>
			</g>
			<g>
				<g>
					<g>
						<g>
							<defs>
								<path id="SVGID_7_" d="M295.962,327.165c7.066,4.573,16.552-2.936,12.887-12.885c9.091,3.004,17.871-9.146,12.971-17.466
									c13.214,2.087,14.886-12.192,9.474-18.695c7.845,2.252,21.407-9.088,12.426-18.119c10.657,2.739,14.86-12.021,5.667-16.664
									c9.327-2.821-1.359-17.287-8.784-15.191c2.971-7.217-4.113-18.607-14.918-8.742c7.066-12.805-2.495-24.259-13.301-17.347
									c0.83-12.868-11.225-14.117-17.813-7.186c0.133-0.924-17.511,19.002-17.487,18.198c0,0-32.186-24.844-41.73,0
									c-9.71,25.273-71.485,42.519-70.49,52.371c1.604,15.885,16.584,37.432-14.546,31.916
									c-29.138-5.159-61.358,13.38-61.358,13.38c1.576,1.102,3.56,1.758,5.963,1.726c-0.279,8.217,3.29,15.263,12.589,14.938
									c-0.646,7.345,12.31,19.934,18.21,11.878c-0.262,9.842,12.688,18.079,20.971,13.242c1.415,13.73,14.092,15.867,22.827,5.819
									c6.04,9.56,21.578,3.982,22.533-6.649c6.251,4.909,19.952,7.896,23.302-5.403c4.833,6.748,16.98,6.218,17.131-3.872
									c1.963,8.029,12.354,13.847,19.43,2.356c0.406,14.399,12.387,14.186,16.603,3.763c1.261,3.986,7.622,5.085,11.151,3.793
									c4.273-1.561,11.309-4.794,4.632-12.243C295.546,347.532,301.365,334.23,295.962,327.165z"/>
							</defs>
							<clipPath id="SVGID_8_">
								<use xlink:href="#SVGID_7_"  overflow="visible"/>
							</clipPath>
						</g>
					</g>
					<g>
						<path fill="#7C5F2D" d="M413.813,219.933c9.547-6.811,5.128-23.304-5.813-24.438c8.767-11.756-0.957-15.435-11.511-18.428
							c6.853-4.058,8.139-19.241-2.028-21.218c1.939-7.988,0.202-15.554-8.166-16.98c2.087-7.066-6.889-21.816-13.813-15.039
							c2.258-9.583-7.607-20.073-15.997-16.894c1.562-13.702-9.315-18.171-19.179-9.978c-3.426-10.487-18.443-7.944-21.482,2.281
							c-4.57-5.977-16.187-11.471-21.912,0.916c-2.927-7.51-13.879-9.27-16.088,0.577c-0.102-8.227-8.181-15.869-16.859-5.952
							c2.599-14.167-8.141-16.206-14.047-6.796c-0.307-4.138-5.758-6.406-9.175-5.804c-4.136,0.726-11.08,2.571-6.652,11.113
							c-8.509-9.4-16.438,2.526-13.067,10.454c-5.368-5.801-15.379-0.231-14.154,10.192c-6.207-3.848-14.356,2.517-15.464,9.964
							c-2.593-1.927-6.333-2.035-9.699,1.202c3.752-8.805-11.546-16.021-14.466-4.121c-6.895-9.301-23.047-5.041-23.68,3.981
							c-7.119-2.062-12.696-5-19.033,1.529c-3.925,4.041-5.479,10.523-2.214,15.386c-6.433-2.991-18.398-0.18-14.748,11
							c-6.25-9.3-20.825-2.516-15.485,8.741c-9.814-5.341-23.669-1.011-19.817,14.803c-13.369-7.949-25.244,14.869-16.805,25.403
							c-14.927,2.804-12.817,19.393-2.144,26.827c-7.008,11.249-3.034,25.002,9.396,25.07c-8.708,8.629-0.248,23.86,11.745,22.72
							c-6.755,13.308,4.507,14.907,16.504,15.666c-6.438,5.381-4.394,20.504,6.96,20.348c-0.279,8.217,3.29,15.263,12.589,14.938
							c-0.646,7.345,12.31,19.934,18.21,11.878c-0.262,9.842,12.688,18.079,20.971,13.242c1.415,13.73,14.092,15.867,22.827,5.819
							c6.04,9.56,21.578,3.982,22.533-6.649c6.251,4.909,19.952,7.896,23.302-5.403c4.833,6.748,16.98,6.218,17.131-3.872
							c1.963,8.029,12.354,13.847,19.43,2.356c0.406,14.399,12.387,14.186,16.603,3.763c1.261,3.986,7.622,5.085,11.151,3.793
							c4.273-1.561,11.309-4.794,4.632-12.243c7.313,4.843,12.326,0.914,13.458-4.369c6.208,3.941,15.558,1.712,17.406-4.939
							c5.931,3.354,10.305,7.276,17.304,2.074c4.335-3.218,7.056-9.271,5.142-14.642c5.126,4.134,16.386,3.627,15.426-7.998
							c3.667,10.273,18.073,6.368,15.621-5.649c7.662,7.068,20.92,5.429,20.734-10.77c10.299,10.287,25.592-9.815,20.225-21.707
							c13.901,0.055,15.43-16.574,7.432-25.853C425.614,236.536,424.895,222.332,413.813,219.933z"/>
						<path fill="#705226" d="M413.813,219.933c9.547-6.811,5.128-23.304-5.813-24.438c8.767-11.756-0.957-15.435-11.511-18.428
							c6.853-4.058,8.139-19.241-2.028-21.218c1.939-7.988,0.202-15.554-8.166-16.98c1.271-4.303-1.563-11.445-5.533-14.852
							c-2.65,2.419-5.406,4.938-8.243,7.531c-3.584-3.435-7.594-6.508-11.702-9.54c-4.816-3.555-12.412-1.836-16.359,2.111
							c-2.408,2.408-3.715,5.563-3.888,8.797c-7.209,1.559-13.249,8.036-10.251,16.338c0.092,0.253,0.18,0.584,0.252,0.874
							c-0.004,0.554-0.031,1.107-0.063,1.657c-0.092,0.476-0.188,0.95-0.299,1.422c-1.553,0.151-3.077,0.437-4.461,0.773
							c-4.966,1.208-7.933,4.592-9.061,8.609c-3.155,0.079-6.191,0.91-8.975,2.288c-8.222,2.886-15.943,8.163-21.401,13.896
							c-1.756,0.4-3.441,0.93-4.981,1.532c-8.862,3.468-16.155,9.882-22.055,17.486c-9.517-3.722-18.897-1.625-28.089,2.463
							c-11.508,5.119-22.104,16.386-24.893,28.932c-0.565,2.06-0.942,4.15-1.115,6.239c-8.563,8.155-13.804,19.631-11.147,30.348
							c0.734,2.963,2.396,5.698,4.587,7.973c-0.302,0.304-0.586,0.624-0.898,0.917c-1.272,1.052-1.545,1.318-0.817,0.801
							c-7.306,5.479-14.96,5.415-24.231,4.701c-7.673-0.591-13.07,6.604-13.5,13.5c-0.163,2.612-0.403,5.214-0.699,7.813
							c-0.009-0.205-0.5,3.175-0.574,3.596c-0.303,1.706-0.687,3.396-1.089,5.081c-0.06,0.247-0.134,0.49-0.197,0.736
							c-6.175,5.666-11.321,12.677-10.774,21.441c0.139,2.229,0.823,4.371,1.897,6.273c-4.995,4.618-9.746,9.009-14.191,13.119
							c4.144,2.422,9.18,3.11,13.147,0.793c1.415,13.73,14.092,15.867,22.827,5.819c6.04,9.56,21.578,3.982,22.533-6.649
							c6.251,4.909,19.952,7.896,23.302-5.403c4.833,6.748,16.98,6.218,17.131-3.872c1.963,8.029,12.354,13.847,19.43,2.356
							c0.406,14.399,12.387,14.186,16.603,3.763c1.261,3.986,7.622,5.085,11.151,3.793c4.273-1.561,11.309-4.794,4.632-12.243
							c7.313,4.843,12.326,0.914,13.458-4.369c6.208,3.941,15.558,1.712,17.406-4.939c5.931,3.354,10.305,7.276,17.304,2.074
							c4.335-3.218,7.056-9.271,5.142-14.642c5.126,4.134,16.386,3.627,15.426-7.998c3.667,10.273,18.073,6.368,15.621-5.649
							c7.662,7.068,20.92,5.429,20.734-10.77c10.299,10.287,25.592-9.815,20.225-21.707c13.901,0.055,15.43-16.574,7.432-25.853
							C425.614,236.536,424.895,222.332,413.813,219.933z"/>
						<g>
							<g>
								<path fill="#817230" d="M291.506,305.4c10.357,4.402,24.51-9.206,6.876-17.688
									C286.065,281.783,281.147,300.995,291.506,305.4z"/>
								<path fill="#817230" d="M144.094,180.142c10.359,4.405,24.512-9.202,6.877-17.688
									C138.651,156.527,133.734,175.739,144.094,180.142z"/>
								<path fill="#817230" d="M252.337,264.584c10.358,4.402,24.512-9.207,6.877-17.689
									C246.895,240.968,241.979,260.18,252.337,264.584z"/>
								<path fill="#817230" d="M367.115,238.202c10.358,4.402,24.512-9.207,6.877-17.689
									C361.672,214.586,356.756,233.799,367.115,238.202z"/>
								<path fill="#817230" d="M321.382,241.679c10.357,4.402,24.509-9.204,6.876-17.688
									C315.938,218.064,311.022,237.276,321.382,241.679z"/>
								<path fill="#817230" d="M110.167,246.498c10.36,4.403,24.512-9.204,6.878-17.688
									C104.725,222.882,99.811,242.095,110.167,246.498z"/>
								<path fill="#817230" d="M145.767,241.193c13.26,2.978,20.294-15.915,4.913-19.831
									C136.941,217.866,133.889,238.523,145.767,241.193z"/>
								<path fill="#817230" d="M315.344,163.896c13.26,2.978,20.294-15.915,4.913-19.831
									C306.518,140.569,303.466,161.226,315.344,163.896z"/>
								<path fill="#817230" d="M67.025,203.674c13.262,2.979,20.296-15.917,4.914-19.831
									C58.198,180.345,55.15,201.003,67.025,203.674z"/>
								<path fill="#817230" d="M107.53,169.195c13.261,2.979,20.295-15.916,4.914-19.831
									C98.703,145.868,95.652,166.525,107.53,169.195z"/>
								<path fill="#817230" d="M108.059,201.155c13.259,2.98,20.296-15.916,4.915-19.831
									C99.234,177.827,96.184,198.485,108.059,201.155z"/>
								<path fill="#817230" d="M132.836,294.344c13.262,2.979,20.296-15.916,4.914-19.832
									C124.009,271.015,120.961,291.676,132.836,294.344z"/>
								<path fill="#817230" d="M194.978,237.201c13.265,2.979,20.298-15.915,4.918-19.83
									C186.156,213.874,183.104,234.532,194.978,237.201z"/>
								<path fill="#817230" d="M326.174,129.174c13.265,2.979,20.298-15.915,4.918-19.83
									C317.353,105.846,314.3,126.505,326.174,129.174z"/>
								<path fill="#817230" d="M281.652,139.446c13.265,2.979,20.298-15.915,4.918-19.83
									C272.83,116.119,269.778,136.777,281.652,139.446z"/>
								<path fill="#817230" d="M176.635,278.53c13.26,2.979,20.295-15.916,4.913-19.831
									C167.809,255.202,164.76,275.862,176.635,278.53z"/>
								<path fill="#817230" d="M379.302,275.856c13.26,2.979,20.295-15.916,4.913-19.831
									C370.476,252.528,367.427,273.188,379.302,275.856z"/>
								<path fill="#817230" d="M243.578,225.747c13.262,2.979,20.295-15.916,4.916-19.832
									C234.754,202.418,231.705,223.076,243.578,225.747z"/>
								<path fill="#817230" d="M214.076,332.957c13.26,2.98,20.296-15.913,4.914-19.828
									C205.249,309.63,202.202,330.29,214.076,332.957z"/>
								<path fill="#817230" d="M332.712,303.048c13.26,2.98,20.296-15.913,4.914-19.828
									C323.885,279.72,320.838,300.381,332.712,303.048z"/>
								<path fill="#817230" d="M275.315,205.278c13.264,2.98,20.297-15.916,4.917-19.83
									C266.489,181.951,263.44,202.61,275.315,205.278z"/>
								<path fill="#817230" d="M375.577,153.799c13.264,2.98,20.297-15.916,4.917-19.83
									C366.751,130.471,363.702,151.131,375.577,153.799z"/>
								<path fill="#817230" d="M69.951,254.939c13.263,2.979,20.296-15.914,4.916-19.83
									C61.128,231.613,58.077,252.271,69.951,254.939z"/>
								<path fill="#817230" d="M225.593,284.297c17.124-2.604,8.991-25.656-3.586-22.071
									C209.641,265.747,214.988,285.907,225.593,284.297z"/>
								<path fill="#817230" d="M207.887,195.109c17.127-2.604,8.996-25.656-3.586-22.072
									C191.938,176.559,197.284,196.718,207.887,195.109z"/>
								<path fill="#817230" d="M235.328,130.899c17.127-2.604,8.996-25.656-3.586-22.072
									C219.379,112.349,224.726,132.508,235.328,130.899z"/>
								<path fill="#817230" d="M178.332,321.088c17.904-2.722,9.403-26.822-3.75-23.074
									C161.654,301.694,167.246,322.772,178.332,321.088z"/>
								<path fill="#817230" d="M266.619,317.96c5.275-3.632,7.443-8.285,2.689-13.997c-3.545-4.259-8.879-6.408-13.817-3.262
									C243.44,308.373,256.633,324.828,266.619,317.96z"/>
								<path fill="#817230" d="M109.772,294.781c5.276-3.633,7.443-8.284,2.687-13.997c-3.544-4.259-8.876-6.407-13.814-3.263
									C86.591,285.193,99.786,301.649,109.772,294.781z"/>
								<path fill="#817230" d="M249.416,189.559c5.276-3.632,7.445-8.286,2.689-13.997c-3.545-4.258-8.877-6.406-13.817-3.262
									C226.237,179.972,239.432,196.427,249.416,189.559z"/>
								<path fill="#817230" d="M344.423,205.396c5.276-3.632,7.445-8.286,2.689-13.997c-3.545-4.258-8.877-6.406-13.817-3.262
									C321.243,195.809,334.439,212.264,344.423,205.396z"/>
								<path fill="#817230" d="M377.232,190.74c5.276-3.632,7.445-8.286,2.689-13.997c-3.545-4.258-8.877-6.406-13.817-3.262
									C354.052,181.153,367.247,197.608,377.232,190.74z"/>
								<path fill="#817230" d="M292.905,259.078c11.029,5.494,21.152-11.604,7.998-17.113
									C287.404,236.312,278.418,251.859,292.905,259.078z"/>
								<path fill="#817230" d="M178.553,156.645c11.027,5.493,21.151-11.603,7.997-17.112
									C173.052,133.881,164.066,149.427,178.553,156.645z"/>
								<path fill="#817230" d="M143.375,337.568c11.027,5.493,21.151-11.604,7.996-17.113
									C137.874,314.802,128.889,330.351,143.375,337.568z"/>
								<path fill="#817230" d="M167.739,209.525c11.031,5.493,21.152-11.604,7.997-17.114
									C162.237,186.759,153.251,202.305,167.739,209.525z"/>
								<path fill="#817230" d="M126.849,206.213c-1.474,2.768-2.371,18.511,2.211,15.296
									C131.92,219.501,129.778,202.394,126.849,206.213"/>
								<path fill="#817230" d="M388.044,200.834c-1.474,2.768-2.371,18.511,2.211,15.296
									C393.115,214.122,390.973,197.015,388.044,200.834"/>
								<path fill="#817230" d="M134.149,183.541c0.982,4.753,1.198,7.434,6.149,8.933c2.794,0.845,8.677,1.984,8.377-2.409
									C148.382,185.755,134.959,178.445,134.149,183.541"/>
								<path fill="#817230" d="M214.846,207.75c-2.933-7.367-21.479-3.472-8.837,3.18c3.013,1.584,7.454,3.333,10.386,1.058
									c4.226-3.278-0.222-6.444-4.237-6.542"/>
								<path fill="#817230" d="M307.129,114.072c-2.933-7.367-21.479-3.472-8.837,3.18c3.013,1.584,7.454,3.333,10.386,1.058
									c4.226-3.278-0.222-6.444-4.237-6.542"/>
								<path fill="#817230" d="M317.963,193.666c-2.933-7.367-21.479-3.472-8.837,3.18c3.013,1.584,7.454,3.333,10.386,1.058
									c4.226-3.278-0.222-6.444-4.237-6.542"/>
								<path fill="#817230" d="M101.486,263.086c-4.754,3.138,13.729,9.666,15.868,3.928
									C119.259,261.898,104.139,260.647,101.486,263.086"/>
								<path fill="#817230" d="M63.059,209.287c-2.563-1.094-7.188-1.414-10.001-0.769c-4.545,1.044-3.459,3.506,0.47,4.695
									c2.683,0.813,11.5,2.135,13.775-0.074c3.928-3.812-5.518-5.087-8.088-4.236"/>
								<path fill="#817230" d="M402.198,236.983c-2.563-1.094-7.188-1.414-10.001-0.769c-4.545,1.044-3.459,3.506,0.47,4.695
									c2.683,0.813,11.5,2.135,13.775-0.074c3.928-3.812-5.518-5.087-8.088-4.236"/>
								<path fill="#817230" d="M139.53,139.348c-4.801-0.023-12.402,9.709-11.471,14.546c3.672,0.565,7.422-4.191,9.635-6.563
									c1.145-1.228,4.875-4.259,4.938-6.062C142.711,139.009,141.022,137.95,139.53,139.348"/>
								<path fill="#817230" d="M358.666,157.273c-4.801-0.023-12.402,9.709-11.471,14.546c3.672,0.565,7.422-4.191,9.635-6.563
									c1.145-1.228,4.875-4.259,4.938-6.062C361.848,156.933,360.158,155.875,358.666,157.273"/>
								<path fill="#817230" d="M218.305,145.498c-2.187,0.967-14.215,8.897-7.299,10.383c3.824,0.821,13.774-7.33,14.551-10.71
									C225.248,143.456,222.508,143.239,218.305,145.498"/>
								<path fill="#817230" d="M266.314,110.349c-2.187,0.967-14.215,8.897-7.299,10.383c3.824,0.821,13.774-7.33,14.551-10.71
									C273.257,108.307,270.517,108.091,266.314,110.349"/>
								<path fill="#817230" d="M202.166,253.095c-1.543,2.233-6.052,18.304-0.3,16.164c3.813-1.418,4.107-18.396,1.452-18.087"/>
								<path fill="#817230" d="M347.24,126.355c-1.543,2.233-6.052,18.304-0.3,16.164c3.813-1.418,4.107-18.396,1.452-18.087"/>
								<path fill="#817230" d="M318.456,270.849c-1.543,2.233-6.052,18.304-0.3,16.164c3.813-1.418,4.107-18.396,1.452-18.087"/>
								<path fill="#817230" d="M152.595,248.867c-2.345,4.197,4.561,18.193,7.321,13.471
									C162.083,258.629,157.099,248.305,152.595,248.867"/>
								<path fill="#817230" d="M350.761,248.423c-2.345,4.197,4.561,18.193,7.321,13.471
									C360.249,258.184,355.265,247.861,350.761,248.423"/>
								<path fill="#817230" d="M315.115,304.471c-2.345,4.197,4.561,18.193,7.321,13.471
									C324.603,314.233,319.618,303.91,315.115,304.471"/>
							</g>
							<g>
								<g>
									<g opacity="0.3">
										<path d="M69.59,216.941c-11.642,0-19.605,18.675,0.613,19.615C84.323,237.214,81.23,216.941,69.59,216.941z"/>
									</g>
									<g>
										<path fill="#986B28" d="M66.322,213.673c-11.642,0-19.604,18.675,0.613,19.615
											C81.056,233.946,77.962,213.673,66.322,213.673z"/>
									</g>
								</g>
								<g>
									<g opacity="0.3">
										<path d="M258.48,276.989c-11.64,0-19.604,18.676,0.613,19.617C273.215,297.262,270.121,276.989,258.48,276.989z"/>
									</g>
									<g>
										<path fill="#986B28" d="M255.213,273.72c-11.641,0-19.604,18.676,0.612,19.617
											C269.948,293.994,266.854,273.72,255.213,273.72z"/>
									</g>
								</g>
								<g>
									<g opacity="0.3">
										<path d="M409.907,210.423c-11.64,0-19.604,18.676,0.613,19.617C424.643,230.696,421.549,210.423,409.907,210.423z"/>
									</g>
									<g>
										<path fill="#986B28" d="M406.641,207.154c-11.641,0-19.604,18.676,0.612,19.617
											C421.375,227.427,418.281,207.154,406.641,207.154z"/>
									</g>
								</g>
								<g>
									<g opacity="0.3">
										<path d="M133.569,248.856c-11.641,0-19.604,18.676,0.613,19.617C148.304,269.129,145.211,248.856,133.569,248.856z"/>
									</g>
									<g>
										<path fill="#986B28" d="M130.301,245.588c-11.641,0-19.604,18.676,0.613,19.617
											C145.035,265.861,141.943,245.588,130.301,245.588z"/>
									</g>
								</g>
								<path fill="#7C5F2D" d="M38.826,261.714c-11.642,0-19.604,18.677,0.611,19.618
									C53.561,281.987,50.466,261.714,38.826,261.714z"/>
								<g>
									<g opacity="0.3">
										<path d="M278.039,317.406c-11.639,0-19.604,18.674,0.613,19.616C292.775,337.68,289.682,317.406,278.039,317.406z"/>
									</g>
									<g>
										<path fill="#986B28" d="M274.773,314.137c-11.641,0-19.604,18.674,0.612,19.616
											C289.507,334.412,286.413,314.137,274.773,314.137z"/>
									</g>
								</g>
								<g>
									<g opacity="0.3">
										<path d="M279.674,215.207c-11.64,0-19.604,18.677,0.613,19.617C294.409,235.48,291.316,215.207,279.674,215.207z"/>
									</g>
									<g>
										<path fill="#986B28" d="M276.406,211.939c-11.639,0-19.604,18.676,0.612,19.616
											C291.141,232.213,288.047,211.939,276.406,211.939z"/>
									</g>
								</g>
								<g>
									<g opacity="0.3">
										<path d="M224.223,118.072c-11.64,0-19.604,18.677,0.613,19.617C238.958,138.345,235.865,118.072,224.223,118.072z"/>
									</g>
									<g>
										<path fill="#986B28" d="M220.955,114.804c-11.639,0-19.604,18.676,0.612,19.616
											C235.69,135.078,232.596,114.804,220.955,114.804z"/>
									</g>
								</g>
								<g>
									<g opacity="0.3">
										<path d="M105.862,210.049c-13.828,2.529-12.879,23.356,3.343,20.862C123.698,228.678,118.243,207.784,105.862,210.049z"/>
									</g>
									<g>
										<path fill="#986B28" d="M102.593,206.78c-13.827,2.529-12.878,23.356,3.344,20.862
											C120.43,225.41,114.975,204.515,102.593,206.78z"/>
									</g>
								</g>
								<g>
									<g opacity="0.3">
										<path d="M226.51,198.593c-13.826,2.53-12.879,23.359,3.345,20.862C244.347,217.225,238.892,196.329,226.51,198.593z"/>
									</g>
									<g>
										<path fill="#986B28" d="M223.241,195.324c-13.826,2.531-12.877,23.359,3.345,20.862
											C241.078,213.957,235.623,193.06,223.241,195.324z"/>
									</g>
								</g>
								<g>
									<g opacity="0.3">
										<path d="M310.91,199.193c-13.826,2.529-12.879,23.358,3.348,20.861C328.749,217.824,323.294,196.928,310.91,199.193z"/>
									</g>
									<g>
										<path fill="#986B28" d="M307.642,195.925c-13.825,2.529-12.877,23.358,3.348,20.862
											C325.481,214.556,320.026,193.66,307.642,195.925z"/>
									</g>
								</g>
								<g>
									<g opacity="0.3">
										<path d="M383.005,170.381c-13.826,2.529-12.879,23.358,3.348,20.861C400.844,189.011,395.389,168.116,383.005,170.381z"/>
									</g>
									<g>
										<path fill="#986B28" d="M379.737,167.112c-13.825,2.529-12.877,23.358,3.348,20.862
											C397.575,185.744,392.12,164.847,379.737,167.112z"/>
									</g>
								</g>
								<g>
									<g opacity="0.3">
										<path d="M297.709,272.618c-13.824,2.529-12.877,23.357,3.347,20.862C315.548,291.249,310.09,270.351,297.709,272.618z"/>
									</g>
									<g>
										<path fill="#986B28" d="M294.442,269.349c-13.825,2.529-12.877,23.357,3.346,20.862
											C312.28,287.98,306.823,267.084,294.442,269.349z"/>
									</g>
								</g>
								<g>
									<g opacity="0.3">
										<path d="M331.399,249.028c-13.826,2.529-12.878,23.357,3.346,20.862C349.237,267.658,343.781,246.763,331.399,249.028z"/>
									</g>
									<g>
										<path fill="#986B28" d="M328.131,245.76c-13.826,2.529-12.878,23.357,3.345,20.862
											C345.968,264.389,340.512,243.495,328.131,245.76z"/>
									</g>
								</g>
								<g>
									<g opacity="0.3">
										<path d="M194.862,146.26c-13.826,2.528-12.878,23.359,3.346,20.862C212.699,164.892,207.243,143.997,194.862,146.26z"/>
									</g>
									<g>
										<path fill="#986B28" d="M191.594,142.992c-13.826,2.529-12.879,23.359,3.345,20.862
											C209.431,161.624,203.975,140.729,191.594,142.992z"/>
									</g>
								</g>
								<g>
									<g opacity="0.3">
										<path d="M336.299,161.782c-13.826,2.528-12.878,23.359,3.346,20.862C354.137,180.414,348.681,159.518,336.299,161.782z"/>
									</g>
									<g>
										<path fill="#986B28" d="M333.031,158.513c-13.826,2.529-12.879,23.359,3.345,20.862
											C350.868,177.145,345.412,156.251,333.031,158.513z"/>
									</g>
								</g>
								<g>
									<g opacity="0.3">
										<path d="M174.153,235.28c-13.826,2.528-12.878,23.357,3.344,20.862C191.99,253.911,186.534,233.015,174.153,235.28z"/>
									</g>
									<g>
										<path fill="#986B28" d="M170.885,232.011c-13.826,2.528-12.878,23.358,3.344,20.862
											C188.722,250.642,183.266,229.747,170.885,232.011z"/>
									</g>
								</g>
								<g>
									<g opacity="0.3">
										<path d="M184.987,187.972c-13.826,2.529-12.878,23.357,3.346,20.862C202.824,206.605,197.368,185.71,184.987,187.972z"/>
									</g>
									<g>
										<path fill="#986B28" d="M181.719,184.704c-13.826,2.529-12.878,23.357,3.345,20.862
											C199.556,203.337,194.1,182.441,181.719,184.704z"/>
									</g>
								</g>
								<g>
									<g opacity="0.3">
										<path d="M156.428,266.072c-13.829,2.529-12.879,23.357,3.345,20.862C174.262,284.704,168.81,263.808,156.428,266.072z"/>
									</g>
									<g>
										<path fill="#986B28" d="M153.159,262.803c-13.827,2.53-12.878,23.358,3.345,20.862
											C170.995,281.435,165.541,260.54,153.159,262.803z"/>
									</g>
								</g>
								<g>
									<g opacity="0.3">
										<path d="M315.092,117.44c-13.829,2.529-12.879,23.357,3.345,20.862C332.926,136.072,327.474,115.177,315.092,117.44z"/>
									</g>
									<g>
										<path fill="#986B28" d="M311.823,114.172c-13.827,2.53-12.878,23.358,3.345,20.862
											C329.659,132.803,324.205,111.908,311.823,114.172z"/>
									</g>
								</g>
								<g>
									<g opacity="0.3">
										<path d="M241.554,224.21c-13.827,2.529-12.879,23.357,3.345,20.862C259.391,242.842,253.936,221.946,241.554,224.21z"/>
									</g>
									<g>
										<path fill="#986B28" d="M238.286,220.941c-13.826,2.529-12.878,23.358,3.345,20.862
											C256.123,239.573,250.668,218.677,238.286,220.941z"/>
									</g>
								</g>
								<g>
									<g opacity="0.3">
										<path d="M127.989,156.881c-13.826,2.53-12.878,23.359,3.348,20.863C145.826,175.512,140.37,154.618,127.989,156.881z"/>
									</g>
									<g>
										<path fill="#986B28" d="M124.722,153.612c-13.827,2.53-12.879,23.359,3.346,20.863
											C142.558,172.245,137.104,151.349,124.722,153.612z"/>
									</g>
								</g>
								<g>
									<g opacity="0.3">
										<path d="M123.425,306.152c-13.827,2.531-12.879,23.359,3.345,20.862C141.26,324.784,135.807,303.889,123.425,306.152z"/>
									</g>
									<g>
										<path fill="#986B28" d="M120.157,302.885c-13.827,2.53-12.878,23.358,3.345,20.862
											C137.992,321.515,132.539,300.621,120.157,302.885z"/>
									</g>
								</g>
								<path fill="#7C5F2D" d="M259.441,148.764c-13.826,2.53-12.878,23.359,3.345,20.864
									C277.277,167.396,271.823,146.502,259.441,148.764z"/>
								<g>
									<g opacity="0.3">
										<path d="M141.498,198.778c-15.245,9.405,1.821,28.057,12.342,19.555C164.184,209.978,150.94,192.956,141.498,198.778z"/>
									</g>
									<g>
										<path fill="#986B28" d="M138.231,195.51c-15.245,9.405,1.82,28.057,12.342,19.555
											C160.916,206.71,147.671,189.687,138.231,195.51z"/>
									</g>
								</g>
								<g>
									<g opacity="0.3">
										<path d="M193.17,283.422c-15.247,9.404,1.818,28.055,12.34,19.555C215.854,294.623,202.608,277.598,193.17,283.422z"/>
									</g>
									<g>
										<path fill="#986B28" d="M189.902,280.154c-15.246,9.404,1.819,28.054,12.341,19.554
											C212.585,291.354,199.34,274.331,189.902,280.154z"/>
									</g>
								</g>
								<g>
									<g opacity="0.3">
										<path d="M247.292,88.368c-15.247,9.404,1.818,28.055,12.34,19.555C269.976,99.569,256.73,82.545,247.292,88.368z"/>
									</g>
									<g>
										<path fill="#986B28" d="M244.024,85.1c-15.246,9.404,1.819,28.054,12.341,19.554
											C266.707,96.301,253.462,79.277,244.024,85.1z"/>
									</g>
								</g>
								<g>
									<g opacity="0.3">
										<path d="M364.811,273.31c-15.247,9.404,1.818,28.055,12.34,19.555C387.494,284.511,374.248,267.487,364.811,273.31z"/>
									</g>
									<g>
										<path fill="#986B28" d="M361.542,270.043c-15.246,9.404,1.819,28.054,12.341,19.554
											C384.226,281.243,370.981,264.219,361.542,270.043z"/>
									</g>
								</g>
								<g>
									<g opacity="0.3">
										<path d="M152.86,134.003c-15.939,9.834,1.902,29.332,12.902,20.445C176.576,145.713,162.731,127.915,152.86,134.003z"/>
									</g>
									<g>
										<path fill="#986B28" d="M149.591,130.734c-15.938,9.834,1.902,29.332,12.903,20.445
											C173.309,142.444,159.462,124.646,149.591,130.734z"/>
									</g>
								</g>
								<g>
									<g opacity="0.3">
										<path d="M85.221,177.466c-3.554,5.591-3.735,10.896,3.104,14.409c5.096,2.617,11.04,2.506,14.468-2.485
											C111.159,177.212,91.946,166.886,85.221,177.466z"/>
									</g>
									<g>
										<path fill="#986B28" d="M81.953,174.197c-3.555,5.591-3.734,10.896,3.103,14.409c5.097,2.618,11.041,2.506,14.468-2.485
											C107.892,173.943,88.677,163.618,81.953,174.197z"/>
									</g>
								</g>
								<g>
									<g opacity="0.3">
										<path d="M260.014,187.714c-3.553,5.593-3.734,10.898,3.104,14.41c5.095,2.618,11.04,2.505,14.468-2.484
											C285.953,187.461,266.738,177.137,260.014,187.714z"/>
									</g>
									<g>
										<path fill="#986B28" d="M256.746,184.445c-3.553,5.593-3.734,10.898,3.104,14.41c5.096,2.618,11.04,2.506,14.47-2.484
											C282.686,184.193,263.47,173.869,256.746,184.445z"/>
									</g>
								</g>
								<g>
									<g opacity="0.3">
										<path d="M355.636,135.541c-3.553,5.593-3.734,10.898,3.104,14.41c5.095,2.618,11.04,2.505,14.468-2.484
											C381.575,135.288,362.36,124.965,355.636,135.541z"/>
									</g>
									<g>
										<path fill="#986B28" d="M352.368,132.272c-3.553,5.593-3.734,10.898,3.104,14.41c5.096,2.618,11.04,2.506,14.47-2.484
											C378.308,132.02,359.092,121.696,352.368,132.272z"/>
									</g>
								</g>
								<g>
									<g opacity="0.3">
										<path d="M169.863,331.658c-3.553,5.593-3.735,10.898,3.102,14.412c5.099,2.617,11.044,2.504,14.47-2.487
											C195.803,331.407,176.587,321.082,169.863,331.658z"/>
									</g>
									<g>
										<path fill="#986B28" d="M166.595,328.389c-3.554,5.594-3.734,10.898,3.103,14.412c5.098,2.617,11.043,2.505,14.47-2.486
											C192.535,328.138,173.319,317.814,166.595,328.389z"/>
									</g>
								</g>
								<g>
									<g opacity="0.3">
										<path d="M88.57,257c-12.721-0.767-15.436,19.6-0.688,19.521C103.014,276.439,105.278,258.008,88.57,257z"/>
									</g>
									<g>
										<path fill="#986B28" d="M85.301,253.731c-12.72-0.767-15.436,19.6-0.688,19.521
											C99.746,273.172,102.01,254.739,85.301,253.731z"/>
									</g>
								</g>
								<g>
									<g opacity="0.3">
										<path d="M40.983,261.649c-12.721-0.767-15.436,19.599-0.688,19.521C55.429,281.09,57.69,262.656,40.983,261.649z"/>
									</g>
									<g>
										<path fill="#986B28" d="M37.715,258.381c-12.721-0.767-15.436,19.6-0.688,19.521
											C52.16,277.821,54.423,259.387,37.715,258.381z"/>
									</g>
								</g>
								<path fill="#7C5F2D" d="M300.453,187.696c10.163-6.402,5.99-28.435-12.216-18.208
									C275.521,176.632,290.292,194.095,300.453,187.696z"/>
								<g>
									<g opacity="0.3">
										<path d="M292.828,162.724c10.891,4.63,19.607-12.341,6.679-16.865C286.241,141.22,278.527,156.64,292.828,162.724z"/>
									</g>
									<g>
										<path fill="#986B28" d="M289.56,159.456c10.891,4.63,19.609-12.341,6.68-16.864
											C282.974,137.952,275.259,153.373,289.56,159.456z"/>
									</g>
								</g>
								<g>
									<g opacity="0.3">
										<path d="M235.192,313.293c-12.721-0.766-15.438,19.6-0.688,19.521C249.638,332.735,251.897,314.302,235.192,313.293z"/>
									</g>
									<g>
										<path fill="#986B28" d="M231.924,310.024c-12.721-0.766-15.437,19.6-0.688,19.521
											C246.369,329.467,248.63,311.033,231.924,310.024z"/>
									</g>
								</g>
								<g>
									<g opacity="0.3">
										<path d="M231.112,158.93c-12.719-0.767-15.436,19.602-0.688,19.522C245.558,178.372,247.819,159.939,231.112,158.93z"/>
									</g>
									<g>
										<path fill="#986B28" d="M227.843,155.662c-12.719-0.766-15.436,19.602-0.687,19.522
											C242.289,175.103,244.552,156.672,227.843,155.662z"/>
									</g>
								</g>
								<g>
									<g opacity="0.3">
										<path d="M132.212,123.01c-12.722-0.767-15.438,19.6-0.69,19.521C146.656,142.451,148.919,124.018,132.212,123.01z"/>
									</g>
									<g>
										<path fill="#986B28" d="M128.944,119.741c-12.72-0.767-15.438,19.6-0.689,19.521
											C143.389,139.182,145.651,120.75,128.944,119.741z"/>
									</g>
								</g>
								<g>
									<g opacity="0.3">
										<path d="M219.96,244.575c-12.719-0.767-15.436,19.601-0.688,19.521C234.406,264.016,236.667,245.583,219.96,244.575z"/>
									</g>
									<g>
										<path fill="#986B28" d="M216.692,241.306c-12.719-0.766-15.434,19.601-0.688,19.521
											C231.139,260.748,233.399,242.314,216.692,241.306z"/>
									</g>
								</g>
								<g>
									<g opacity="0.3">
										<path d="M362.145,209.113c-12.719-0.767-15.436,19.601-0.688,19.521C376.591,228.554,378.852,210.121,362.145,209.113z"/>
									</g>
									<g>
										<path fill="#986B28" d="M358.876,205.844c-12.719-0.766-15.434,19.601-0.688,19.521
											C373.323,225.286,375.583,206.852,358.876,205.844z"/>
									</g>
								</g>
								<g>
									<g opacity="0.3">
										<path d="M177.382,171.438c-1.938,3.604-11.112,4.488-10.702,11.47c3.48,0.383,8.988-3.824,11.95-5.611
											C183.338,174.46,184.094,169.783,177.382,171.438"/>
									</g>
									<g>
										<path fill="#986B28" d="M174.114,168.17c-1.936,3.604-11.111,4.488-10.701,11.47c3.479,0.383,8.987-3.824,11.95-5.61
											C180.071,171.191,180.825,166.514,174.114,168.17"/>
									</g>
								</g>
								<g>
									<g opacity="0.3">
										<path d="M372.737,241.635c-1.938,3.604-11.112,4.488-10.702,11.47c3.48,0.383,8.988-3.824,11.95-5.611
											C378.693,244.656,379.448,239.979,372.737,241.635"/>
									</g>
									<g>
										<path fill="#986B28" d="M369.468,238.366c-1.936,3.604-11.111,4.488-10.701,11.47c3.479,0.383,8.987-3.824,11.95-5.61
											C375.425,241.387,376.18,236.711,369.468,238.366"/>
									</g>
								</g>
								<g>
									<g opacity="0.3">
										<path d="M96.685,244.835c2.642,4.538,5.508,9.399,9.223,13.044c4.47,4.385,6.282,2.731,4.323-2.66
											c-1.201-3.307-3.528-6.692-5.573-9.519S95.75,238.554,96.685,244.835"/>
									</g>
									<g>
										<path fill="#986B28" d="M93.416,241.566c2.644,4.538,5.508,9.4,9.224,13.044c4.471,4.385,6.283,2.731,4.323-2.66
											c-1.202-3.307-3.529-6.692-5.574-9.519C99.346,239.605,92.482,235.287,93.416,241.566"/>
									</g>
								</g>
								<g>
									<g opacity="0.3">
										<path d="M333.626,112.741c2.642,4.538,5.508,9.399,9.223,13.044c4.47,4.385,6.282,2.731,4.323-2.66
											c-1.201-3.307-3.528-6.692-5.573-9.519S332.692,106.461,333.626,112.741"/>
									</g>
									<g>
										<path fill="#986B28" d="M330.358,109.472c2.644,4.538,5.508,9.4,9.224,13.044c4.471,4.385,6.283,2.731,4.323-2.66
											c-1.202-3.307-3.529-6.692-5.574-9.519C336.287,107.511,329.423,103.193,330.358,109.472"/>
									</g>
								</g>
								<g>
									<g opacity="0.3">
										<path d="M196.211,246.371c-1.465,3.361-0.615,7.206,0.479,11.146c0.846,3.035,2.544,6.991,4.048,1.921
											C201.517,256.811,199.752,243.341,196.211,246.371"/>
									</g>
									<g>
										<path fill="#986B28" d="M192.944,243.103c-1.466,3.361-0.616,7.205,0.479,11.145c0.844,3.035,2.542,6.992,4.046,1.921
											C198.248,253.543,196.485,240.072,192.944,243.103"/>
									</g>
								</g>
								<g>
									<g opacity="0.3">
										<path d="M265.785,123.595c-1.465,3.361-0.615,7.206,0.479,11.146c0.846,3.035,2.544,6.991,4.048,1.921
											C271.091,134.036,269.326,120.565,265.785,123.595"/>
									</g>
									<g>
										<path fill="#986B28" d="M262.518,120.328c-1.466,3.361-0.616,7.205,0.479,11.145c0.844,3.035,2.542,6.992,4.046,1.921
											C267.823,130.767,266.059,117.297,262.518,120.328"/>
									</g>
								</g>
								<g>
									<g opacity="0.3">
										<path d="M174.692,218.703c-1.67,0.104-8.235-0.23-9.249,1.231c-2.354,3.396,3.649,3.319,5.407,3.38
											c2.172,0.075,7.463,0.825,9.231-0.354C184.817,219.8,176.765,219.65,174.692,218.703"/>
									</g>
									<g>
										<path fill="#986B28" d="M171.424,215.434c-1.67,0.104-8.236-0.23-9.25,1.231c-2.354,3.396,3.65,3.32,5.407,3.38
											c2.172,0.076,7.463,0.825,9.231-0.354C181.548,216.531,173.496,216.382,171.424,215.434"/>
									</g>
								</g>
								<g>
									<g opacity="0.3">
										<path d="M230.788,292.299c-1.67,0.104-8.235-0.23-9.249,1.231c-2.354,3.396,3.649,3.319,5.407,3.38
											c2.172,0.075,7.463,0.825,9.231-0.354C240.913,293.395,232.862,293.246,230.788,292.299"/>
									</g>
									<g>
										<path fill="#986B28" d="M227.521,289.03c-1.67,0.104-8.236-0.23-9.25,1.231c-2.354,3.396,3.65,3.32,5.407,3.38
											c2.172,0.076,7.463,0.825,9.231-0.354C237.645,290.127,229.593,289.977,227.521,289.03"/>
									</g>
								</g>
								<g>
									<g opacity="0.3">
										<path d="M285.22,259.677c-1.67,0.104-8.235-0.23-9.249,1.231c-2.354,3.396,3.649,3.319,5.407,3.38
											c2.172,0.075,7.463,0.825,9.231-0.354C295.345,260.774,287.293,260.625,285.22,259.677"/>
									</g>
									<g>
										<path fill="#986B28" d="M281.952,256.409c-1.67,0.104-8.236-0.23-9.25,1.231c-2.354,3.396,3.65,3.32,5.407,3.38
											c2.172,0.076,7.463,0.825,9.231-0.354C292.076,257.506,284.025,257.356,281.952,256.409"/>
									</g>
								</g>
								<g>
									<g opacity="0.3">
										<path d="M343.848,200.075c-1.67,0.104-8.235-0.23-9.249,1.231c-2.354,3.396,3.649,3.319,5.407,3.38
											c2.172,0.075,7.463,0.825,9.231-0.354C353.973,201.172,345.921,201.022,343.848,200.075"/>
									</g>
									<g>
										<path fill="#986B28" d="M340.58,196.806c-1.67,0.104-8.236-0.23-9.25,1.231c-2.354,3.396,3.65,3.32,5.407,3.38
											c2.172,0.076,7.463,0.825,9.231-0.354C350.704,197.903,342.653,197.754,340.58,196.806"/>
									</g>
								</g>
								<g>
									<g opacity="0.3">
										<path d="M92.073,201.027c-3.643,1.824-9.462,7.4-9.155,12.229c3.787,2.254,11.407-9.149,11.019-12.555
											C93.141,200.435,92.736,200.748,92.073,201.027"/>
									</g>
									<g>
										<path fill="#986B28" d="M88.805,197.759c-3.643,1.825-9.463,7.4-9.156,12.229c3.787,2.254,11.408-9.149,11.02-12.555
											C89.872,197.167,89.467,197.479,88.805,197.759"/>
									</g>
								</g>
								<g>
									<g opacity="0.3">
										<path d="M221.191,186.041c2.71,4.09,11.215,7.499,15.685,5.697c0.016-3.812-5.488-5.289-8.384-6.081
											C226.99,185.248,216.961,183.802,221.191,186.041"/>
									</g>
									<g>
										<path fill="#986B28" d="M217.922,182.772c2.711,4.09,11.215,7.5,15.687,5.698c0.015-3.813-5.489-5.29-8.386-6.082
											C223.721,181.979,213.693,180.535,217.922,182.772"/>
									</g>
								</g>
								<g>
									<g opacity="0.3">
										<path d="M123.199,276.344c-0.922,3.159-3.533,6.565-3.457,10.001c0.086,3.907,2.012,4.442,4.707,2.017
											c2.456-2.214,2.988-6.309,3.445-9.326C128.477,275.192,126.535,271.551,123.199,276.344"/>
									</g>
									<g>
										<path fill="#986B28" d="M119.931,273.076c-0.921,3.159-3.533,6.565-3.456,10.001c0.085,3.908,2.012,4.443,4.706,2.017
											c2.456-2.214,2.988-6.309,3.445-9.326C125.209,271.924,123.268,268.282,119.931,273.076"/>
									</g>
								</g>
								<g>
									<g opacity="0.3">
										<path d="M162.344,308.544c-0.922,3.159-3.533,6.565-3.457,10.001c0.086,3.907,2.012,4.442,4.707,2.017
											c2.456-2.214,2.988-6.309,3.445-9.326C167.621,307.391,165.68,303.75,162.344,308.544"/>
									</g>
									<g>
										<path fill="#986B28" d="M159.075,305.275c-0.921,3.159-3.533,6.565-3.456,10.001c0.085,3.908,2.012,4.443,4.706,2.017
											c2.456-2.214,2.988-6.309,3.445-9.326C164.354,304.123,162.412,300.481,159.075,305.275"/>
									</g>
								</g>
								<g>
									<g opacity="0.3">
										<path d="M308.928,303.888c-0.922,3.159-3.533,6.565-3.457,10.001c0.086,3.907,2.012,4.442,4.707,2.017
											c2.456-2.214,2.988-6.309,3.445-9.326C314.205,302.736,312.264,299.094,308.928,303.888"/>
									</g>
									<g>
										<path fill="#986B28" d="M305.659,300.62c-0.921,3.159-3.533,6.565-3.456,10.001c0.085,3.908,2.012,4.443,4.706,2.017
											c2.456-2.214,2.988-6.309,3.445-9.326C310.938,299.468,308.996,295.826,305.659,300.62"/>
									</g>
								</g>
							</g>
							<path fill="#817230" d="M256.444,164.493c13.264,2.979,20.297-15.916,4.917-19.832
								C247.619,141.165,244.569,161.823,256.444,164.493z"/>
						</g>
					</g>
					<g>
						<g>
							<defs>
								<path id="SVGID_9_" d="M295.962,327.165c7.066,4.573,16.552-2.936,12.887-12.885c9.091,3.004,17.871-9.146,12.971-17.466
									c13.214,2.087,14.886-12.192,9.474-18.695c7.845,2.252,21.407-9.088,12.426-18.119c10.657,2.739,14.86-12.021,5.667-16.664
									c9.327-2.821-1.359-17.287-8.784-15.191c2.971-7.217-4.113-18.607-14.918-8.742c7.066-12.805-2.495-24.259-13.301-17.347
									c0.83-12.868-11.225-14.117-17.813-7.186c0.133-0.924-17.511,19.002-17.487,18.198c0,0-32.186-24.844-41.73,0
									c-9.71,25.273-71.485,42.519-70.49,52.371c1.604,15.885,16.584,37.432-14.546,31.916
									c-29.138-5.159-61.358,13.38-61.358,13.38c1.576,1.102,3.56,1.758,5.963,1.726c-0.279,8.217,3.29,15.263,12.589,14.938
									c-0.646,7.345,12.31,19.934,18.21,11.878c-0.262,9.842,12.688,18.079,20.971,13.242c1.415,13.73,14.092,15.867,22.827,5.819
									c6.04,9.56,21.578,3.982,22.533-6.649c6.251,4.909,19.952,7.896,23.302-5.403c4.833,6.748,16.98,6.218,17.131-3.872
									c1.963,8.029,12.354,13.847,19.43,2.356c0.406,14.399,12.387,14.186,16.603,3.763c1.261,3.986,7.622,5.085,11.151,3.793
									c4.273-1.561,11.309-4.794,4.632-12.243C295.546,347.532,301.365,334.23,295.962,327.165z"/>
							</defs>
							<clipPath id="SVGID_10_">
								<use xlink:href="#SVGID_9_"  overflow="visible"/>
							</clipPath>
						</g>
					</g>
				</g>
			</g>
			<g>
				<g>
					<g>
						<g>
							<defs>
								<path id="SVGID_11_" d="M295.962,327.165c7.066,4.573,16.552-2.936,12.887-12.885c9.091,3.004,17.871-9.146,12.971-17.466
									c13.214,2.087,14.886-12.192,9.474-18.695c7.845,2.252,21.407-9.088,12.426-18.119c10.657,2.739,14.86-12.021,5.667-16.664
									c9.327-2.821-1.359-17.287-8.784-15.191c2.971-7.217-4.113-18.607-14.918-8.742c7.066-12.805-2.495-24.259-13.301-17.347
									c0.83-12.868-11.225-14.117-17.813-7.186c0.133-0.924-17.511,19.002-17.487,18.198c0,0-32.186-24.844-41.73,0
									c-9.71,25.273-71.485,42.519-70.49,52.371c1.604,15.885,16.584,37.432-14.546,31.916
									c-29.138-5.159-61.358,13.38-61.358,13.38c1.576,1.102,3.56,1.758,5.963,1.726c-0.279,8.217,3.29,15.263,12.589,14.938
									c-0.646,7.345,12.31,19.934,18.21,11.878c-0.262,9.842,12.688,18.079,20.971,13.242c1.415,13.73,14.092,15.867,22.827,5.819
									c6.04,9.56,21.578,3.982,22.533-6.649c6.251,4.909,19.952,7.896,23.302-5.403c4.833,6.748,16.98,6.218,17.131-3.872
									c1.963,8.029,12.354,13.847,19.43,2.356c0.406,14.399,12.387,14.186,16.603,3.763c1.261,3.986,7.622,5.085,11.151,3.793
									c4.273-1.561,11.309-4.794,4.632-12.243C295.546,347.532,301.365,334.23,295.962,327.165z"/>
							</defs>
							<clipPath id="SVGID_12_">
								<use xlink:href="#SVGID_11_"  overflow="visible"/>
							</clipPath>
						</g>
					</g>
					<g>
						<g>
							<defs>
								<path id="SVGID_13_" d="M295.962,327.165c7.066,4.573,16.552-2.936,12.887-12.885c9.091,3.004,17.871-9.146,12.971-17.466
									c13.214,2.087,14.886-12.192,9.474-18.695c7.845,2.252,21.407-9.088,12.426-18.119c10.657,2.739,14.86-12.021,5.667-16.664
									c9.327-2.821-1.359-17.287-8.784-15.191c2.971-7.217-4.113-18.607-14.918-8.742c7.066-12.805-2.495-24.259-13.301-17.347
									c0.83-12.868-11.225-14.117-17.813-7.186c0.133-0.924-17.511,19.002-17.487,18.198c0,0-32.186-24.844-41.73,0
									c-9.71,25.273-71.485,42.519-70.49,52.371c1.604,15.885,16.584,37.432-14.546,31.916
									c-29.138-5.159-61.358,13.38-61.358,13.38c1.576,1.102,3.56,1.758,5.963,1.726c-0.279,8.217,3.29,15.263,12.589,14.938
									c-0.646,7.345,12.31,19.934,18.21,11.878c-0.262,9.842,12.688,18.079,20.971,13.242c1.415,13.73,14.092,15.867,22.827,5.819
									c6.04,9.56,21.578,3.982,22.533-6.649c6.251,4.909,19.952,7.896,23.302-5.403c4.833,6.748,16.98,6.218,17.131-3.872
									c1.963,8.029,12.354,13.847,19.43,2.356c0.406,14.399,12.387,14.186,16.603,3.763c1.261,3.986,7.622,5.085,11.151,3.793
									c4.273-1.561,11.309-4.794,4.632-12.243C295.546,347.532,301.365,334.23,295.962,327.165z"/>
							</defs>
							<clipPath id="SVGID_14_">
								<use xlink:href="#SVGID_13_"  overflow="visible"/>
							</clipPath>
						</g>
					</g>
				</g>
			</g>
		</g>
	</g>
</g>
</svg>
