<?xml version="1.0" encoding="utf-8"?>
<!-- Generator: Adobe Illustrator 18.1.1, SVG Export Plug-In . SVG Version: 6.00 Build 0)  -->
<svg version="1.1" id="Layer_2" xmlns="http://www.w3.org/2000/svg" xmlns:xlink="http://www.w3.org/1999/xlink" x="0px" y="0px"
	 width="450px" height="450px" viewBox="-74 76 450 450" enable-background="new -74 76 450 450" xml:space="preserve">
<g>
	<g opacity="0.3">
		<g>
			<defs>
				<path id="SVGID_1_" d="M251.802,384.916c6.305,4.08,14.767-2.619,11.498-11.496c8.11,2.681,15.944-8.159,11.572-15.583
					c11.789,1.862,13.281-10.878,8.452-16.68c6.999,2.01,19.1-8.108,11.087-16.166c9.508,2.444,13.258-10.726,5.056-14.867
					c8.321-2.518-1.213-15.424-7.838-13.554c2.651-6.439-3.669-16.602-13.31-7.8c6.305-11.425-2.225-21.644-11.867-15.477
					c0.741-11.482-10.014-12.596-15.893-6.411c0.118-0.824-15.623,16.953-15.603,16.236c0,0-28.716-22.166-37.231,0
					c-8.663,22.549-63.779,37.935-62.892,46.726c1.431,14.172,14.797,33.396-12.978,28.476
					c-25.997-4.604-54.744,11.938-54.744,11.938c1.406,0.982,3.176,1.568,5.32,1.539c-0.249,7.331,2.936,13.617,11.231,13.328
					c-0.576,6.553,10.982,17.785,16.247,10.598c-0.233,8.781,11.319,16.13,18.71,11.814c1.263,12.251,12.573,14.157,20.366,5.192
					c5.389,8.529,19.252,3.553,20.104-5.933c5.577,4.38,17.801,7.045,20.79-4.821c4.312,6.02,15.149,5.548,15.284-3.454
					c1.751,7.163,11.023,12.353,17.335,2.103c0.362,12.847,11.052,12.656,14.812,3.356c1.125,3.557,6.801,4.537,9.949,3.385
					c3.812-1.393,10.09-4.277,4.133-10.924C251.431,403.088,256.622,391.22,251.802,384.916z"/>
			</defs>
			<clipPath id="SVGID_2_">
				<use xlink:href="#SVGID_1_"  overflow="visible"/>
			</clipPath>
		</g>
		<path d="M113.153,204.516c-6.353-1.839-11.328-4.461-16.981,1.364c-3.502,3.605-4.888,9.39-1.976,13.728
			c-5.739-2.669-16.415-0.16-13.158,9.814c-5.576-8.298-18.58-2.245-13.815,7.799c-8.757-4.766-21.118-0.902-17.682,13.207
			c-11.928-7.093-22.522,13.266-14.993,22.665c-13.317,2.501-11.436,17.302-1.912,23.935c-6.253,10.036-2.707,22.307,8.384,22.368
			c-7.77,7.698-0.222,21.288,10.479,20.271c-6.026,11.873,4.021,13.3,14.725,13.977c-5.743,4.801-3.92,18.294,6.21,18.154
			c-0.249,7.331,2.936,13.617,11.231,13.328c-0.576,6.553,10.982,17.785,16.247,10.598c-0.233,8.781,11.319,16.13,18.71,11.814
			c1.263,12.251,12.573,14.157,20.366,5.192c5.389,8.529,19.252,3.553,20.104-5.933c5.577,4.38,17.801,7.045,20.79-4.821
			c4.312,6.02,15.149,5.548,15.284-3.454c1.751,7.163,11.023,12.353,17.335,2.103c0.362,12.847,11.052,12.656,14.812,3.356
			c1.125,3.557,6.801,4.537,9.949,3.385c3.812-1.393,10.09-4.277,4.133-10.924c10.035,6.646,15.227-5.222,10.406-11.525
			c6.305,4.08,14.767-2.619,11.498-11.496c8.11,2.681,15.944-8.159,11.572-15.583c11.789,1.862,13.281-10.878,8.452-16.68
			c6.999,2.01,19.1-8.108,11.087-16.166c9.508,2.444,13.258-10.726,5.056-14.867c8.321-2.518-1.213-15.424-7.838-13.554
			c2.651-6.439-3.669-16.602-13.31-7.8c6.305-11.425-2.225-21.644-11.867-15.477c0.741-11.482-10.014-12.596-15.893-6.411
			c1.43-9.976-4.502-12.132-11.959-6.185c5.601-7.059-2.187-16.329-10.716-11.509c5.62-10.816-4.82-14.834-11.796-10.498
			c3.023-8.521-5.008-18.436-13.31-11.215c9.378-4.126-12.635-20.691-15.637-6.925c-1.069-9.216-14.847-7.027-16.393-0.33
			c-0.185-7.324-7.061-10.772-13.57-5.457c5.072-8.193-3.298-16.564-9.993-10.124c3.348-7.855-10.302-14.294-12.906-3.677
			C128.129,192.665,113.718,196.466,113.153,204.516z"/>
		<path d="M251.802,384.916c6.305,4.08,14.767-2.619,11.498-11.496c8.11,2.681,15.944-8.159,11.572-15.583
			c11.789,1.862,13.281-10.878,8.452-16.68c6.999,2.01,19.1-8.108,11.087-16.166c9.508,2.444,13.258-10.726,5.056-14.867
			c8.321-2.518-1.213-15.424-7.838-13.554c2.651-6.439-3.669-16.602-13.31-7.8c6.305-11.425-2.225-21.644-11.867-15.477
			c0.741-11.482-10.014-12.596-15.893-6.411c0.118-0.824,0.168-1.575,0.19-2.291c0,0-44.775,25.763-55.032,31.666
			c-10.259,5.902-35.578,20.472-53.93,31.032c-18.354,10.561-74.676,42.968-74.676,42.968c1.406,0.982,3.176,1.568,5.32,1.539
			c-0.249,7.331,2.936,13.617,11.231,13.328c-0.576,6.553,10.982,17.785,16.247,10.598c-0.233,8.781,11.319,16.13,18.71,11.814
			c1.263,12.251,12.573,14.157,20.366,5.192c5.389,8.529,19.252,3.553,20.104-5.933c5.577,4.38,17.801,7.045,20.79-4.821
			c4.312,6.02,15.149,5.548,15.284-3.454c1.751,7.163,11.023,12.353,17.335,2.103c0.362,12.847,11.052,12.656,14.812,3.356
			c1.125,3.557,6.801,4.537,9.949,3.385c3.812-1.393,10.09-4.277,4.133-10.924C251.431,403.088,256.622,391.22,251.802,384.916z"/>
		<path d="M247.826,365.498c9.241,3.928,21.868-8.214,6.135-15.782C242.972,344.427,238.584,361.568,247.826,365.498z"/>
		<path d="M116.306,253.743c9.242,3.93,21.869-8.211,6.135-15.782C111.449,232.673,107.062,249.815,116.306,253.743z"/>
		<path d="M212.88,329.081c9.242,3.928,21.869-8.214,6.136-15.782C208.025,308.011,203.638,325.152,212.88,329.081z"/>
		<path d="M274.482,308.647c9.241,3.928,21.867-8.212,6.135-15.782C269.624,287.576,265.238,304.718,274.482,308.647z"/>
		<path d="M86.036,312.945c9.243,3.929,21.869-8.212,6.136-15.782C81.181,291.875,76.796,309.018,86.036,312.945z"/>
		<path d="M117.798,308.212c11.83,2.657,18.106-14.199,4.384-17.693C109.923,287.4,107.2,305.83,117.798,308.212z"/>
		<path d="M47.544,274.737c11.832,2.658,18.108-14.201,4.385-17.693C39.669,253.924,36.949,272.355,47.544,274.737z"/>
		<path d="M83.683,243.976c11.831,2.657,18.107-14.2,4.384-17.693C75.808,223.163,73.085,241.594,83.683,243.976z"/>
		<path d="M84.154,272.49c11.83,2.659,18.108-14.2,4.386-17.693C76.281,251.677,73.56,270.108,84.154,272.49z"/>
		<path d="M106.261,355.634c11.832,2.657,18.108-14.2,4.385-17.694C98.386,334.819,95.666,353.253,106.261,355.634z"/>
		<path d="M161.704,304.651c11.834,2.657,18.109-14.199,4.388-17.692C153.833,283.838,151.111,302.27,161.704,304.651z"/>
		<path d="M145.338,341.525c11.831,2.658,18.107-14.2,4.384-17.693C137.464,320.711,134.743,339.144,145.338,341.525z"/>
		<path d="M205.066,294.431c11.832,2.658,18.107-14.2,4.386-17.693C197.193,273.617,194.472,292.048,205.066,294.431z"/>
		<path d="M178.743,390.084c11.831,2.659,18.108-14.198,4.385-17.691C170.868,369.272,168.15,387.704,178.743,390.084z"/>
		<path d="M233.381,276.169c11.833,2.659,18.108-14.2,4.387-17.692C225.506,255.357,222.785,273.788,233.381,276.169z"/>
		<path d="M50.155,320.477c11.833,2.658,18.108-14.198,4.386-17.692C42.283,299.665,39.562,318.096,50.155,320.477z"/>
		<path d="M189.019,346.669c15.278-2.322,8.022-22.891-3.199-19.691C174.786,330.119,179.557,348.106,189.019,346.669z"/>
		<path d="M173.222,267.096c15.28-2.322,8.026-22.89-3.199-19.692C158.991,250.546,163.762,268.531,173.222,267.096z"/>
		<path d="M146.853,379.494c15.975-2.429,8.39-23.931-3.346-20.587C131.972,362.192,136.962,380.997,146.853,379.494z"/>
		<path d="M225.622,376.703c4.707-3.24,6.642-7.392,2.399-12.488c-3.162-3.8-7.921-5.717-12.327-2.91
			C204.942,368.15,216.713,382.831,225.622,376.703z"/>
		<path d="M85.683,356.024c4.708-3.241,6.642-7.392,2.397-12.488c-3.162-3.8-7.919-5.717-12.325-2.911
			C65.001,347.469,76.775,362.151,85.683,356.024z"/>
		<path d="M210.274,262.145c4.708-3.24,6.643-7.393,2.399-12.488c-3.162-3.799-7.92-5.716-12.327-2.91
			C189.593,253.591,201.365,268.273,210.274,262.145z"/>
		<path d="M249.074,324.169c9.84,4.902,18.872-10.353,7.136-15.269C244.166,303.858,236.15,317.729,249.074,324.169z"/>
		<path d="M147.05,232.779c9.839,4.901,18.871-10.352,7.135-15.268C142.142,212.468,134.124,226.339,147.05,232.779z"/>
		<path d="M115.664,394.198c9.839,4.9,18.871-10.353,7.134-15.269C110.756,373.887,102.739,387.759,115.664,394.198z"/>
		<path d="M137.402,279.958c9.842,4.901,18.872-10.354,7.135-15.27C132.492,259.646,124.476,273.517,137.402,279.958z"/>
		<path d="M100.919,277.003c-1.314,2.469-2.115,16.515,1.973,13.646C105.444,288.858,103.532,273.596,100.919,277.003"/>
		<path d="M107.433,256.775c0.876,4.241,1.068,6.633,5.486,7.97c2.492,0.754,7.741,1.771,7.474-2.149
			C120.131,258.75,108.155,252.229,107.433,256.775"/>
		<path d="M179.431,278.374c-2.617-6.573-19.163-3.098-7.885,2.837c2.688,1.413,6.65,2.974,9.267,0.943
			c3.77-2.925-0.198-5.749-3.781-5.837"/>
		<path d="M78.29,327.745c-4.241,2.799,12.25,8.624,14.158,3.504C94.148,326.686,80.657,325.569,78.29,327.745"/>
		<path d="M44.006,279.745c-2.287-0.976-6.413-1.262-8.923-0.686c-4.055,0.932-3.086,3.128,0.419,4.19
			c2.394,0.725,10.261,1.904,12.29-0.066c3.505-3.4-4.922-4.538-7.216-3.779"/>
		<path d="M112.233,217.347c-4.282-0.021-11.064,8.662-10.233,12.978c3.275,0.505,6.621-3.739,8.596-5.855
			c1.021-1.095,4.35-3.799,4.405-5.407C115.071,217.043,113.565,216.099,112.233,217.347"/>
		<path d="M182.517,222.833c-1.951,0.862-12.683,7.938-6.513,9.264c3.412,0.732,12.29-6.54,12.982-9.556
			C188.711,221.011,186.267,220.818,182.517,222.833"/>
		<path d="M168.117,318.831c-1.377,1.993-5.399,16.331-0.268,14.422c3.402-1.265,3.665-16.413,1.296-16.137"/>
		<path d="M123.89,315.059c-2.092,3.745,4.069,16.233,6.532,12.019C132.356,323.769,127.908,314.558,123.89,315.059"/>
		<path d="M49.833,286.574c-10.387,0-17.491,16.662,0.547,17.501C62.978,304.662,60.218,286.574,49.833,286.574z"/>
		<path d="M46.917,283.658c-10.387,0-17.491,16.662,0.547,17.501C60.063,301.746,57.303,283.658,46.917,283.658z"/>
		<path d="M218.361,340.149c-10.386,0-17.49,16.662,0.547,17.502C231.508,358.237,228.747,340.149,218.361,340.149z"/>
		<path d="M215.445,337.233c-10.386,0-17.49,16.662,0.547,17.502C228.592,355.321,225.831,337.233,215.445,337.233z"/>
		<path d="M106.915,315.049c-10.386,0-17.49,16.663,0.548,17.503C120.061,333.136,117.302,315.049,106.915,315.049z"/>
		<path d="M103.999,312.133c-10.386,0-17.49,16.663,0.548,17.503C117.146,330.221,114.386,312.133,103.999,312.133z"/>
		<path d="M22.386,326.521c-10.387,0-17.491,16.663,0.546,17.503C35.531,344.608,32.771,326.521,22.386,326.521z"/>
		<path d="M235.812,376.209c-10.386,0-17.49,16.661,0.547,17.502C248.959,394.298,246.198,376.209,235.812,376.209z"/>
		<path d="M232.897,373.293c-10.386,0-17.49,16.661,0.547,17.502C246.043,391.382,243.282,373.293,232.897,373.293z"/>
		<path d="M229.992,297.532c-10.385,0-17.49,16.663,0.546,17.502C243.137,315.62,240.378,297.532,229.992,297.532z"/>
		<path d="M227.076,294.616c-10.385,0-17.49,16.663,0.546,17.502C240.222,312.704,237.462,294.616,227.076,294.616z"/>
		<path d="M82.194,280.424c-12.337,2.257-11.49,20.839,2.983,18.613C98.108,297.047,93.241,278.404,82.194,280.424z"/>
		<path d="M79.278,277.509c-12.337,2.257-11.49,20.839,2.983,18.613C95.193,294.131,90.325,275.488,79.278,277.509z"/>
		<path d="M189.837,270.204c-12.336,2.258-11.489,20.841,2.984,18.613C205.751,286.828,200.884,268.184,189.837,270.204z"/>
		<path d="M186.921,267.288c-12.336,2.258-11.489,20.841,2.984,18.613C202.835,283.912,197.968,265.269,186.921,267.288z"/>
		<path d="M261.042,283.584c-12.335,2.257-11.489,20.841,2.986,18.613C276.958,300.207,272.091,281.563,261.042,283.584z"/>
		<path d="M258.126,280.668c-12.335,2.257-11.489,20.841,2.986,18.613C274.042,297.291,269.175,278.648,258.126,280.668z"/>
		<path d="M253.361,336.249c-12.335,2.257-11.489,20.84,2.985,18.613C269.276,352.872,264.408,334.227,253.361,336.249z"/>
		<path d="M250.445,333.333c-12.335,2.257-11.489,20.84,2.985,18.613C266.361,349.956,261.492,331.312,250.445,333.333z"/>
		<path d="M283.419,315.202c-12.336,2.257-11.489,20.84,2.984,18.613C299.333,331.824,294.466,313.181,283.419,315.202z"/>
		<path d="M280.503,312.286c-12.336,2.257-11.489,20.84,2.984,18.613C296.417,328.908,291.55,310.266,280.503,312.286z"/>
		<path d="M161.6,223.513c-12.336,2.256-11.49,20.841,2.984,18.613C177.514,240.136,172.647,221.494,161.6,223.513z"/>
		<path d="M158.685,220.598c-12.336,2.256-11.49,20.841,2.984,18.613C174.599,237.221,169.732,218.578,158.685,220.598z"/>
		<path d="M143.124,302.936c-12.336,2.256-11.489,20.84,2.983,18.613C159.038,319.558,154.171,300.916,143.124,302.936z"/>
		<path d="M140.208,300.021c-12.336,2.256-11.489,20.84,2.983,18.613C156.122,316.643,151.255,298,140.208,300.021z"/>
		<path d="M152.79,260.728c-12.336,2.257-11.489,20.84,2.984,18.613C168.704,277.352,163.837,258.71,152.79,260.728z"/>
		<path d="M149.874,257.813c-12.336,2.257-11.489,20.84,2.984,18.613C165.788,274.437,160.921,255.794,149.874,257.813z"/>
		<path d="M127.309,330.409c-12.337,2.257-11.49,20.84,2.984,18.613C143.222,347.032,138.356,328.389,127.309,330.409z"/>
		<path d="M124.394,327.493c-12.337,2.257-11.49,20.84,2.984,18.613C140.307,344.116,135.441,325.474,124.394,327.493z"/>
		<path d="M203.26,293.059c-12.336,2.257-11.49,20.84,2.984,18.613C219.174,309.682,214.306,291.04,203.26,293.059z"/>
		<path d="M200.344,290.144c-12.336,2.257-11.49,20.84,2.984,18.613C216.258,306.767,211.391,288.124,200.344,290.144z"/>
		<path d="M101.937,232.988c-12.336,2.258-11.49,20.842,2.985,18.614C117.85,249.612,112.984,230.969,101.937,232.988z"/>
		<path d="M99.022,230.072c-12.336,2.258-11.49,20.842,2.985,18.614C114.935,246.696,110.069,228.054,99.022,230.072z"/>
		<path d="M97.865,366.169c-12.337,2.258-11.49,20.841,2.984,18.613C113.777,382.792,108.912,364.149,97.865,366.169z"/>
		<path d="M94.949,363.253c-12.337,2.258-11.49,20.841,2.984,18.613C110.861,379.876,105.996,361.233,94.949,363.253z"/>
		<path d="M219.218,225.747c-12.336,2.258-11.49,20.842,2.983,18.615C235.131,242.371,230.265,223.729,219.218,225.747z"/>
		<path d="M113.99,270.369c-13.602,8.392,1.624,25.032,11.011,17.447C134.23,280.362,122.413,265.174,113.99,270.369z"/>
		<path d="M111.074,267.453c-13.602,8.392,1.624,25.032,11.011,17.447C131.315,277.446,119.497,262.259,111.074,267.453z"/>
		<path d="M160.091,345.888c-13.602,8.391,1.623,25.03,11.011,17.446C180.329,355.882,168.511,340.693,160.091,345.888z"/>
		<path d="M157.175,342.973c-13.603,8.391,1.623,25.03,11.011,17.446C177.413,352.966,165.596,337.777,157.175,342.973z"/>
		<path d="M124.126,212.577c-14.221,8.773,1.697,26.17,11.513,18.241C145.287,223.024,132.932,207.145,124.126,212.577z"/>
		<path d="M121.21,209.661c-14.221,8.773,1.697,26.17,11.513,18.241C142.371,220.109,130.017,204.23,121.21,209.661z"/>
		<path d="M63.779,251.354c-3.171,4.988-3.332,9.722,2.769,12.855c4.547,2.336,9.851,2.236,12.908-2.217
			C86.922,251.128,69.778,241.916,63.779,251.354z"/>
		<path d="M60.863,248.439c-3.171,4.988-3.332,9.722,2.769,12.855c4.547,2.336,9.851,2.236,12.908-2.217
			C84.006,248.212,66.862,239,60.863,248.439z"/>
		<path d="M219.729,260.498c-3.17,4.989-3.332,9.724,2.77,12.856c4.546,2.336,9.85,2.235,12.909-2.217
			C242.873,260.272,225.728,251.061,219.729,260.498z"/>
		<path d="M216.814,257.582c-3.17,4.989-3.332,9.724,2.769,12.856c4.546,2.336,9.85,2.235,12.909-2.217
			C239.957,257.357,222.813,248.146,216.814,257.582z"/>
		<path d="M139.297,388.924c-3.171,4.99-3.332,9.724,2.768,12.858c4.549,2.335,9.853,2.234,12.91-2.219
			C162.44,388.701,145.296,379.489,139.297,388.924z"/>
		<path d="M136.381,386.009c-3.171,4.99-3.332,9.724,2.768,12.858c4.549,2.335,9.853,2.234,12.91-2.219
			C159.525,385.785,142.38,376.573,136.381,386.009z"/>
		<path d="M66.766,322.314c-11.349-0.684-13.771,17.487-0.613,17.417C79.654,339.659,81.674,323.214,66.766,322.314z"/>
		<path d="M63.851,319.399c-11.349-0.684-13.771,17.487-0.613,17.417C76.738,336.743,78.758,320.298,63.851,319.399z"/>
		<path d="M24.31,326.463c-11.35-0.684-13.772,17.486-0.614,17.417C37.198,343.807,39.217,327.361,24.31,326.463z"/>
		<path d="M21.395,323.547c-11.35-0.684-13.772,17.486-0.614,17.417C34.282,340.892,36.301,324.445,21.395,323.547z"/>
		<path d="M254.743,254.643c9.067-5.712,5.345-25.369-10.898-16.245C232.498,244.772,245.678,260.353,254.743,254.643z"/>
		<path d="M249.604,254.854c9.717,4.131,17.495-11.011,5.96-15.047C243.728,235.669,236.844,249.426,249.604,254.854z"/>
		<path d="M246.689,251.939c9.717,4.131,17.495-11.011,5.96-15.047C240.813,232.753,233.929,246.511,246.689,251.939z"/>
		<path d="M197.583,372.539c-11.349-0.683-13.772,17.487-0.613,17.417C210.471,389.885,212.488,373.439,197.583,372.539z"/>
		<path d="M194.667,369.623c-11.349-0.683-13.773,17.487-0.613,17.417C207.556,386.97,209.572,370.524,194.667,369.623z"/>
		<path d="M193.942,234.817c-11.348-0.684-13.771,17.488-0.613,17.418C206.831,252.163,208.849,235.717,193.942,234.817z"/>
		<path d="M191.027,231.902c-11.348-0.684-13.771,17.488-0.613,17.418C203.915,249.247,205.934,232.802,191.027,231.902z"/>
		<path d="M105.704,202.768c-11.349-0.684-13.773,17.487-0.615,17.417C118.592,220.114,120.61,203.669,105.704,202.768z"/>
		<path d="M102.788,199.853c-11.349-0.684-13.773,17.487-0.615,17.417C115.676,217.198,117.694,200.753,102.788,199.853z"/>
		<path d="M183.993,311.229c-11.348-0.684-13.771,17.487-0.613,17.417C196.883,328.575,198.899,312.129,183.993,311.229z"/>
		<path d="M181.077,308.314c-11.348-0.684-13.771,17.487-0.613,17.417C193.967,325.659,195.984,309.213,181.077,308.314z"/>
		<path d="M146.005,245.976c-1.728,3.216-9.914,4.005-9.548,10.233c3.104,0.342,8.019-3.412,10.662-5.006
			C151.319,248.673,151.993,244.5,146.005,245.976"/>
		<path d="M143.089,243.061c-1.728,3.216-9.914,4.005-9.548,10.233c3.104,0.342,8.019-3.412,10.662-5.006
			C148.403,245.757,149.077,241.584,143.089,243.061"/>
		<path d="M74.007,311.461c2.358,4.049,4.914,8.387,8.229,11.638c3.988,3.912,5.605,2.438,3.856-2.373
			c-1.072-2.95-3.148-5.971-4.973-8.492C79.297,309.712,73.173,305.858,74.007,311.461"/>
		<path d="M71.091,308.545c2.358,4.049,4.914,8.387,8.229,11.638c3.988,3.912,5.605,2.438,3.857-2.373
			c-1.072-2.95-3.149-5.971-4.973-8.492C76.381,306.796,70.257,302.943,71.091,308.545"/>
		<path d="M162.804,312.832c-1.308,2.999-0.55,6.429,0.428,9.943c0.753,2.708,2.269,6.238,3.61,1.714
			C167.538,322.146,165.964,310.128,162.804,312.832"/>
		<path d="M159.889,309.916c-1.308,2.999-0.55,6.429,0.428,9.943c0.753,2.708,2.269,6.238,3.61,1.714
			C164.622,319.231,163.048,307.212,159.889,309.916"/>
		<path d="M143.605,288.146c-1.49,0.093-7.349-0.206-8.253,1.099c-2.1,3.029,3.257,2.962,4.824,3.016
			c1.938,0.067,6.658,0.736,8.236-0.316C152.637,289.125,145.454,288.991,143.605,288.146"/>
		<path d="M140.69,285.231c-1.49,0.093-7.349-0.206-8.253,1.099c-2.1,3.029,3.257,2.962,4.824,3.016
			c1.938,0.067,6.658,0.736,8.236-0.316C149.722,286.209,142.538,286.075,140.69,285.231"/>
		<path d="M69.892,272.376c-3.25,1.628-8.442,6.603-8.169,10.911c3.379,2.011,10.178-8.163,9.831-11.201
			C70.844,271.847,70.483,272.127,69.892,272.376"/>
		<path d="M66.977,269.46c-3.25,1.628-8.442,6.602-8.169,10.911c3.379,2.011,10.178-8.163,9.831-11.201
			C67.929,268.932,67.568,269.211,66.977,269.46"/>
		<path d="M185.091,259.005c2.419,3.649,10.006,6.691,13.995,5.084c0.014-3.401-4.897-4.72-7.481-5.426
			C190.264,258.298,181.317,257.009,185.091,259.005"/>
		<path d="M182.175,256.089c2.419,3.649,10.006,6.691,13.995,5.084c0.014-3.401-4.897-4.72-7.481-5.426
			C187.349,255.382,178.402,254.093,182.175,256.089"/>
		<path d="M97.663,339.574c-0.821,2.818-3.152,5.857-3.084,8.923c0.076,3.486,1.795,3.964,4.199,1.799
			c2.191-1.975,2.666-5.628,3.074-8.32C102.372,338.546,100.64,335.297,97.663,339.574"/>
		<path d="M94.747,336.658c-0.821,2.818-3.152,5.858-3.084,8.923c0.076,3.486,1.795,3.964,4.199,1.799
			c2.191-1.975,2.666-5.628,3.074-8.32C99.456,335.63,97.725,332.381,94.747,336.658"/>
		<path d="M216.544,239.78c11.833,2.658,18.108-14.2,4.387-17.694C208.671,218.967,205.949,237.399,216.544,239.78z"/>
		<g>
			<defs>
				<path id="SVGID_3_" d="M251.802,384.916c6.305,4.08,14.767-2.619,11.498-11.496c8.11,2.681,15.944-8.159,11.572-15.583
					c11.789,1.862,13.281-10.878,8.452-16.68c6.999,2.01,19.1-8.108,11.087-16.166c9.508,2.444,13.258-10.726,5.056-14.867
					c8.321-2.518-1.213-15.424-7.838-13.554c2.651-6.439-3.669-16.602-13.31-7.8c6.305-11.425-2.225-21.644-11.867-15.477
					c0.741-11.482-10.014-12.596-15.893-6.411c0.118-0.824-15.623,16.953-15.603,16.236c0,0-28.716-22.166-37.231,0
					c-8.663,22.549-63.779,37.935-62.892,46.726c1.431,14.172,14.797,33.396-12.978,28.476
					c-25.997-4.604-54.744,11.938-54.744,11.938c1.406,0.982,3.176,1.568,5.32,1.539c-0.249,7.331,2.936,13.617,11.231,13.328
					c-0.576,6.553,10.982,17.785,16.247,10.598c-0.233,8.781,11.319,16.13,18.71,11.814c1.263,12.251,12.573,14.157,20.366,5.192
					c5.389,8.529,19.252,3.553,20.104-5.933c5.577,4.38,17.801,7.045,20.79-4.821c4.312,6.02,15.149,5.548,15.284-3.454
					c1.751,7.163,11.023,12.353,17.335,2.103c0.362,12.847,11.052,12.656,14.812,3.356c1.125,3.557,6.801,4.537,9.949,3.385
					c3.812-1.393,10.09-4.277,4.133-10.924C251.431,403.088,256.622,391.22,251.802,384.916z"/>
			</defs>
			<clipPath id="SVGID_4_">
				<use xlink:href="#SVGID_3_"  overflow="visible"/>
			</clipPath>
			<path clip-path="url(#SVGID_4_)" d="M247.826,365.498c9.241,3.928,21.868-8.214,6.135-15.782
				C242.972,344.427,238.584,361.568,247.826,365.498z"/>
			<path clip-path="url(#SVGID_4_)" d="M116.306,253.743c9.242,3.93,21.869-8.211,6.135-15.782
				C111.449,232.673,107.062,249.815,116.306,253.743z"/>
			<path clip-path="url(#SVGID_4_)" d="M212.88,329.081c9.242,3.928,21.869-8.214,6.136-15.782
				C208.025,308.011,203.638,325.152,212.88,329.081z"/>
			<path clip-path="url(#SVGID_4_)" d="M274.482,308.647c9.241,3.928,21.867-8.212,6.135-15.782
				C269.624,287.576,265.238,304.718,274.482,308.647z"/>
			<path clip-path="url(#SVGID_4_)" d="M86.036,312.945c9.243,3.929,21.869-8.212,6.136-15.782
				C81.181,291.875,76.796,309.018,86.036,312.945z"/>
			<path clip-path="url(#SVGID_4_)" d="M117.798,308.212c11.83,2.657,18.106-14.199,4.384-17.693
				C109.923,287.4,107.2,305.83,117.798,308.212z"/>
			<path clip-path="url(#SVGID_4_)" d="M47.544,274.737c11.832,2.658,18.108-14.201,4.385-17.693
				C39.669,253.924,36.949,272.355,47.544,274.737z"/>
			<path clip-path="url(#SVGID_4_)" d="M83.683,243.976c11.831,2.657,18.107-14.2,4.384-17.693
				C75.808,223.163,73.085,241.594,83.683,243.976z"/>
			<path clip-path="url(#SVGID_4_)" d="M84.154,272.49c11.83,2.659,18.108-14.2,4.386-17.693
				C76.281,251.677,73.56,270.108,84.154,272.49z"/>
			<path clip-path="url(#SVGID_4_)" d="M108.49,348.17c11.832,2.658,18.108-14.199,4.384-17.692
				C100.615,327.358,97.896,345.79,108.49,348.17z"/>
			<path clip-path="url(#SVGID_4_)" d="M161.704,304.651c11.834,2.657,18.109-14.199,4.388-17.692
				C153.833,283.838,151.111,302.27,161.704,304.651z"/>
			<path clip-path="url(#SVGID_4_)" d="M145.338,341.525c11.831,2.658,18.107-14.2,4.384-17.693
				C137.464,320.711,134.743,339.144,145.338,341.525z"/>
			<path clip-path="url(#SVGID_4_)" d="M205.066,294.431c11.832,2.658,18.107-14.2,4.386-17.693
				C197.193,273.617,194.472,292.048,205.066,294.431z"/>
			<path clip-path="url(#SVGID_4_)" d="M178.743,390.084c11.831,2.659,18.108-14.198,4.385-17.691
				C170.868,369.272,168.15,387.704,178.743,390.084z"/>
			<path clip-path="url(#SVGID_4_)" d="M233.381,276.169c11.833,2.659,18.108-14.2,4.387-17.692
				C225.506,255.357,222.785,273.788,233.381,276.169z"/>
			<path clip-path="url(#SVGID_4_)" d="M50.155,320.477c11.833,2.658,18.108-14.198,4.386-17.692
				C42.283,299.665,39.562,318.096,50.155,320.477z"/>
			<path clip-path="url(#SVGID_4_)" d="M189.019,346.669c15.278-2.322,8.022-22.891-3.199-19.691
				C174.786,330.119,179.557,348.106,189.019,346.669z"/>
			<path clip-path="url(#SVGID_4_)" d="M173.222,267.096c15.28-2.322,8.026-22.89-3.199-19.692
				C158.991,250.546,163.762,268.531,173.222,267.096z"/>
			<path clip-path="url(#SVGID_4_)" d="M146.853,379.494c15.975-2.429,8.39-23.931-3.346-20.587
				C131.972,362.192,136.962,380.997,146.853,379.494z"/>
			<path clip-path="url(#SVGID_4_)" d="M225.622,376.703c4.707-3.24,6.642-7.392,2.399-12.488c-3.162-3.8-7.921-5.717-12.327-2.91
				C204.942,368.15,216.713,382.831,225.622,376.703z"/>
			<path clip-path="url(#SVGID_4_)" d="M85.683,356.024c4.708-3.241,6.642-7.392,2.397-12.488c-3.162-3.8-7.919-5.717-12.325-2.911
				C65.001,347.469,76.775,362.151,85.683,356.024z"/>
			<path clip-path="url(#SVGID_4_)" d="M210.274,262.145c4.708-3.24,6.643-7.393,2.399-12.488c-3.162-3.799-7.92-5.716-12.327-2.91
				C189.593,253.591,201.365,268.273,210.274,262.145z"/>
			<path clip-path="url(#SVGID_4_)" d="M249.074,324.169c9.84,4.902,18.872-10.353,7.136-15.269
				C244.166,303.858,236.15,317.729,249.074,324.169z"/>
			<path clip-path="url(#SVGID_4_)" d="M147.05,232.779c9.839,4.901,18.871-10.352,7.135-15.268
				C142.142,212.468,134.124,226.339,147.05,232.779z"/>
			<path clip-path="url(#SVGID_4_)" d="M115.664,394.198c9.839,4.9,18.871-10.353,7.134-15.269
				C110.756,373.887,102.739,387.759,115.664,394.198z"/>
			<path clip-path="url(#SVGID_4_)" d="M137.402,279.958c9.842,4.901,18.872-10.354,7.135-15.27
				C132.492,259.646,124.476,273.517,137.402,279.958z"/>
			<path clip-path="url(#SVGID_4_)" d="M46.922,283.634c-10.386,0-17.491,16.663,0.547,17.502
				C60.068,301.722,57.308,283.634,46.922,283.634z"/>
			<path clip-path="url(#SVGID_4_)" d="M215.45,337.209c-10.386,0-17.49,16.663,0.547,17.503
				C228.597,355.297,225.837,337.209,215.45,337.209z"/>
			<path clip-path="url(#SVGID_4_)" d="M104.004,312.108c-10.386,0-17.49,16.663,0.548,17.503
				C117.151,330.197,114.39,312.108,104.004,312.108z"/>
			<path clip-path="url(#SVGID_4_)" d="M232.902,373.269c-10.386,0-17.49,16.662,0.547,17.503
				C246.048,391.358,243.288,373.269,232.902,373.269z"/>
			<path clip-path="url(#SVGID_4_)" d="M227.081,294.593c-10.385,0-17.49,16.662,0.547,17.501
				C240.228,312.681,237.467,294.593,227.081,294.593z"/>
			<path clip-path="url(#SVGID_4_)" d="M79.282,277.484c-12.336,2.257-11.489,20.84,2.984,18.613
				C95.197,294.108,90.329,275.465,79.282,277.484z"/>
			<path clip-path="url(#SVGID_4_)" d="M186.927,267.265c-12.337,2.257-11.49,20.84,2.983,18.613
				C202.84,283.888,197.974,265.244,186.927,267.265z"/>
			<path clip-path="url(#SVGID_4_)" d="M258.132,280.644c-12.336,2.257-11.49,20.841,2.986,18.613
				C274.047,297.268,269.18,278.624,258.132,280.644z"/>
			<path clip-path="url(#SVGID_4_)" d="M250.45,333.309c-12.334,2.257-11.488,20.841,2.985,18.613
				C266.365,349.933,261.497,331.288,250.45,333.309z"/>
			<path clip-path="url(#SVGID_4_)" d="M280.508,312.262c-12.336,2.257-11.489,20.84,2.983,18.613
				C296.422,328.884,291.555,310.241,280.508,312.262z"/>
			<path clip-path="url(#SVGID_4_)" d="M158.69,220.573c-12.336,2.257-11.49,20.841,2.984,18.613
				C174.604,237.196,169.736,218.554,158.69,220.573z"/>
			<path clip-path="url(#SVGID_4_)" d="M140.212,299.996c-12.335,2.256-11.488,20.841,2.984,18.613
				C156.127,316.619,151.26,297.977,140.212,299.996z"/>
			<path clip-path="url(#SVGID_4_)" d="M149.88,257.788c-12.337,2.257-11.49,20.841,2.983,18.613
				C165.793,274.412,160.927,255.77,149.88,257.788z"/>
			<path clip-path="url(#SVGID_4_)" d="M120.881,336.645c-12.337,2.257-11.489,20.84,2.984,18.613
				C136.796,353.269,131.928,334.624,120.881,336.645z"/>
			<path clip-path="url(#SVGID_4_)" d="M99.027,230.049c-12.336,2.257-11.49,20.841,2.985,18.613
				C114.94,246.672,110.073,228.029,99.027,230.049z"/>
			<path clip-path="url(#SVGID_4_)" d="M94.954,363.23c-12.337,2.257-11.49,20.84,2.984,18.613
				C110.866,379.852,106.001,361.209,94.954,363.23z"/>
			<path clip-path="url(#SVGID_4_)" d="M111.079,267.429c-13.602,8.392,1.623,25.032,11.012,17.447
				C131.319,277.422,119.502,262.236,111.079,267.429z"/>
			<path clip-path="url(#SVGID_4_)" d="M157.18,342.948c-13.603,8.392,1.623,25.031,11.011,17.446
				C177.418,352.942,165.601,337.753,157.18,342.948z"/>
			<path clip-path="url(#SVGID_4_)" d="M121.216,209.638c-14.222,8.772,1.696,26.169,11.512,18.24
				C142.376,220.085,130.022,204.205,121.216,209.638z"/>
			<path clip-path="url(#SVGID_4_)" d="M60.868,248.414c-3.171,4.989-3.332,9.722,2.769,12.856
				c4.547,2.337,9.851,2.236,12.909-2.217C84.011,248.188,66.866,238.977,60.868,248.414z"/>
			<path clip-path="url(#SVGID_4_)" d="M216.819,257.559c-3.17,4.989-3.331,9.723,2.77,12.856c4.546,2.337,9.85,2.236,12.909-2.217
				C239.962,257.332,222.818,248.122,216.819,257.559z"/>
			<path clip-path="url(#SVGID_4_)" d="M136.386,385.986c-3.17,4.989-3.332,9.723,2.768,12.857c4.549,2.335,9.852,2.235,12.91-2.219
				C159.529,385.761,142.385,376.549,136.386,385.986z"/>
			<path clip-path="url(#SVGID_4_)" d="M63.856,319.374c-11.349-0.683-13.772,17.487-0.614,17.417
				C76.743,336.719,78.763,320.275,63.856,319.374z"/>
			<path clip-path="url(#SVGID_4_)" d="M194.672,369.6c-11.349-0.684-13.773,17.487-0.613,17.417
				C207.561,386.945,209.577,370.499,194.672,369.6z"/>
			<path clip-path="url(#SVGID_4_)" d="M191.032,231.431c-11.348-0.684-13.77,17.486-0.613,17.417
				C203.922,248.777,205.939,232.331,191.032,231.431z"/>
			<path clip-path="url(#SVGID_4_)" d="M181.083,308.289c-11.349-0.684-13.771,17.487-0.614,17.417
				C193.972,325.635,195.988,309.189,181.083,308.289z"/>
			<path clip-path="url(#SVGID_4_)" d="M127.319,360.316c-3.159,0.627-7.075,4.776-9.274,7.122
				c-2.629,2.808-1.838,4.988,2.436,3.773c3.059-0.869,6.769-4.369,8.913-6.703C132.482,361.147,132.038,360.356,127.319,360.316"/>
			<path clip-path="url(#SVGID_4_)" d="M179.089,352.773c-5.037-0.642,4.787,17.923,7.474,10.629
				C188.151,359.089,183.388,352.987,179.089,352.773"/>
			<path clip-path="url(#SVGID_4_)" d="M200.689,314.374c-2.705,1.868-5.235,5.824-5.51,9.256c-0.242,3.019,1.267,4.602,4.138,2.767
				c2.518-1.609,4.991-7.475,5.485-10.325C205.367,312.809,203.814,311.513,200.689,314.374"/>
			<path clip-path="url(#SVGID_4_)" d="M232.232,325.688c-2.32,2.998-0.149,16.525,3.702,14.432
				C239.678,338.083,235.006,323.546,232.232,325.688"/>
			<path clip-path="url(#SVGID_4_)" d="M222.974,277.003c-2.572,3.512,10.418,15.031,11.654,10.301
				C235.456,284.139,225.528,276.233,222.974,277.003"/>
			<path clip-path="url(#SVGID_4_)" d="M268.231,336.317c-2.786,3.58,0.54,16.716,4.062,12.684
				C274.374,346.62,272.117,336.126,268.231,336.317"/>
			<path clip-path="url(#SVGID_4_)" d="M212.345,386.715c-4.348-0.388-10.746,2.648-11.664,7.207
				c3.238,1.843,11.043,0.037,14.09-1.979C219.554,388.776,216.352,387.04,212.345,386.715"/>
			<path clip-path="url(#SVGID_4_)" d="M125.946,399.401c-3.836,0.979,0.059,6.826,3.428,8.914c2.393,1.482,3.693,2.733,4.876-0.267
				C135.829,404.038,129.853,398.959,125.946,399.401"/>
			<path clip-path="url(#SVGID_4_)" d="M198.974,348.658c-1.993,2.797-4.529,6.557-4.465,9.951c0.07,3.683,1.677,2.837,3.521,0.335
				c1.434-1.943,2.661-4.904,3.352-7.2C202.083,349.417,201.553,344.208,198.974,348.658"/>
			<path clip-path="url(#SVGID_4_)" d="M168.46,369.23c-4.244,1.583-9.517,2.764-11.279,7.549
				c3.509,1.132,12.167-3.647,13.653-7.154C171.031,368.48,169.427,368.862,168.46,369.23"/>
			<path clip-path="url(#SVGID_4_)" d="M163.66,392.2c-0.73,4.565,2.153,9.552,5.76,10.594c1.395-2.47,0.811-5.713-0.18-8.193
				C168.405,392.51,165.414,387.802,163.66,392.2"/>
			<path clip-path="url(#SVGID_4_)" d="M100.576,358.602c2.763-2.4,16.654,0.868,12.607,4.712
				C110.89,365.492,100.123,360.515,100.576,358.602"/>
			<path clip-path="url(#SVGID_4_)" d="M267.887,322.603c-3.675,1.469-7.84,4.464-8.518,8.521c2.679,0.533,5.621-1.472,7.565-3.035
				c1.276-1.026,5.647-7.253,1.296-5.485"/>
			<path clip-path="url(#SVGID_4_)" d="M241.487,288.317c-1.672,3.086-0.213,15.104,4.731,15.728
				C248.099,301.185,245.657,286.3,241.487,288.317"/>
			<path clip-path="url(#SVGID_4_)" d="M239.087,350.373c-4.672,1.007-11.087,3.474-11.261,8.52
				c3.683,0.465,15.217-3.52,13.952-8.467C241.011,350.368,239.843,350.176,239.087,350.373"/>
		</g>
		<g>
			<defs>
				<path id="SVGID_5_" d="M251.802,384.916c6.305,4.08,14.767-2.619,11.498-11.496c8.11,2.681,15.944-8.159,11.572-15.583
					c11.789,1.862,13.281-10.878,8.452-16.68c6.999,2.01,19.1-8.108,11.087-16.166c9.508,2.444,13.258-10.726,5.056-14.867
					c8.321-2.518-1.213-15.424-7.838-13.554c2.651-6.439-3.669-16.602-13.31-7.8c6.305-11.425-2.225-21.644-11.867-15.477
					c0.741-11.482-10.014-12.596-15.893-6.411c0.118-0.824-15.623,16.953-15.603,16.236c0,0-28.716-22.166-37.231,0
					c-8.663,22.549-63.779,37.935-62.892,46.726c1.431,14.172,14.797,33.396-12.978,28.476
					c-25.997-4.604-54.744,11.938-54.744,11.938c1.406,0.982,3.176,1.568,5.32,1.539c-0.249,7.331,2.936,13.617,11.231,13.328
					c-0.576,6.553,10.982,17.785,16.247,10.598c-0.233,8.781,11.319,16.13,18.71,11.814c1.263,12.251,12.573,14.157,20.366,5.192
					c5.389,8.529,19.252,3.553,20.104-5.933c5.577,4.38,17.801,7.045,20.79-4.821c4.312,6.02,15.149,5.548,15.284-3.454
					c1.751,7.163,11.023,12.353,17.335,2.103c0.362,12.847,11.052,12.656,14.812,3.356c1.125,3.557,6.801,4.537,9.949,3.385
					c3.812-1.393,10.09-4.277,4.133-10.924C251.431,403.088,256.622,391.22,251.802,384.916z"/>
			</defs>
			<clipPath id="SVGID_6_">
				<use xlink:href="#SVGID_5_"  overflow="visible"/>
			</clipPath>
		</g>
	</g>
	<g>
		<g>
			<g>
				<defs>
					<path id="SVGID_7_" d="M245.971,379.085c6.305,4.08,14.768-2.619,11.498-11.496c8.11,2.681,15.944-8.159,11.572-15.583
						c11.789,1.862,13.281-10.878,8.452-16.68c6.999,2.01,19.1-8.108,11.087-16.166c9.508,2.444,13.258-10.726,5.056-14.867
						c8.321-2.518-1.213-15.424-7.838-13.554c2.651-6.439-3.669-16.602-13.31-7.8c6.305-11.425-2.226-21.644-11.867-15.477
						c0.741-11.481-10.014-12.596-15.893-6.411c0.118-0.824-15.623,16.953-15.603,16.236c0,0-28.716-22.166-37.231,0
						c-8.663,22.549-63.779,37.935-62.892,46.726c1.431,14.172,14.797,33.396-12.978,28.476
						c-25.997-4.604-54.744,11.938-54.744,11.938c1.406,0.982,3.176,1.568,5.32,1.539c-0.249,7.331,2.936,13.617,11.231,13.328
						c-0.576,6.553,10.982,17.785,16.247,10.598c-0.233,8.781,11.319,16.13,18.71,11.814c1.263,12.251,12.573,14.157,20.366,5.192
						c5.389,8.529,19.252,3.553,20.105-5.933c5.577,4.38,17.801,7.045,20.79-4.821c4.312,6.021,15.15,5.548,15.284-3.454
						c1.751,7.163,11.023,12.354,17.335,2.103c0.362,12.847,11.052,12.656,14.812,3.356c1.125,3.557,6.801,4.537,9.949,3.385
						c3.812-1.393,10.09-4.277,4.133-10.924C245.6,397.257,250.791,385.389,245.971,379.085z"/>
				</defs>
				<clipPath id="SVGID_8_">
					<use xlink:href="#SVGID_7_"  overflow="visible"/>
				</clipPath>
			</g>
		</g>
		<g>
			<path fill="#7C5F2D" d="M107.322,198.685c-6.353-1.839-11.328-4.461-16.981,1.364c-3.502,3.605-4.888,9.39-1.976,13.728
				c-5.739-2.669-16.415-0.16-13.158,9.814c-5.576-8.298-18.58-2.245-13.815,7.799c-8.757-4.766-21.118-0.902-17.682,13.207
				c-11.928-7.093-22.522,13.266-14.993,22.665c-13.317,2.501-11.436,17.302-1.912,23.935c-6.253,10.036-2.707,22.307,8.384,22.368
				c-7.77,7.698-0.222,21.288,10.479,20.27c-6.026,11.873,4.021,13.3,14.725,13.977c-5.743,4.801-3.92,18.294,6.21,18.154
				c-0.249,7.331,2.936,13.617,11.231,13.328c-0.576,6.553,10.982,17.785,16.247,10.598c-0.233,8.781,11.319,16.13,18.71,11.814
				c1.263,12.251,12.573,14.157,20.366,5.192c5.389,8.529,19.252,3.553,20.105-5.933c5.577,4.38,17.801,7.045,20.79-4.821
				c4.312,6.021,15.15,5.548,15.284-3.454c1.751,7.163,11.023,12.354,17.335,2.103c0.362,12.847,11.052,12.656,14.812,3.356
				c1.125,3.557,6.801,4.537,9.949,3.385c3.812-1.393,10.09-4.277,4.133-10.924c10.035,6.646,15.227-5.222,10.406-11.525
				c6.305,4.08,14.768-2.619,11.498-11.496c8.11,2.681,15.944-8.159,11.572-15.583c11.789,1.862,13.281-10.878,8.452-16.68
				c6.999,2.01,19.1-8.108,11.087-16.166c9.508,2.444,13.258-10.726,5.056-14.867c8.321-2.518-1.213-15.424-7.838-13.554
				c2.651-6.439-3.669-16.602-13.31-7.8c6.305-11.425-2.226-21.644-11.867-15.477c0.741-11.481-10.014-12.596-15.893-6.411
				c1.43-9.976-4.502-12.132-11.959-6.185c5.601-7.059-2.186-16.329-10.716-11.509c5.62-10.816-4.82-14.834-11.796-10.498
				c3.023-8.521-5.008-18.436-13.31-11.215c9.378-4.126-12.635-20.691-15.637-6.925c-1.069-9.216-14.847-7.027-16.393-0.33
				c-0.185-7.324-7.06-10.772-13.57-5.457c5.072-8.193-3.298-16.563-9.993-10.124c3.348-7.855-10.302-14.294-12.906-3.677
				C122.298,186.834,107.887,190.635,107.322,198.685z"/>
			<path fill="#705226" d="M245.971,379.085c6.305,4.08,14.768-2.619,11.498-11.496c8.11,2.681,15.944-8.159,11.572-15.583
				c11.789,1.862,13.281-10.878,8.452-16.68c6.999,2.01,19.1-8.108,11.087-16.166c9.508,2.444,13.258-10.726,5.056-14.867
				c8.321-2.518-1.213-15.424-7.838-13.554c2.651-6.439-3.669-16.602-13.31-7.8c6.305-11.425-2.226-21.644-11.867-15.477
				c0.741-11.481-10.014-12.596-15.893-6.411c0.118-0.824,0.168-1.575,0.19-2.291c0,0-44.775,25.763-55.032,31.666
				c-10.259,5.902-35.578,20.472-53.93,31.032c-18.353,10.56-74.676,42.968-74.676,42.968c1.406,0.982,3.176,1.568,5.32,1.539
				c-0.249,7.331,2.936,13.617,11.231,13.328c-0.576,6.553,10.982,17.785,16.247,10.598c-0.233,8.781,11.319,16.13,18.71,11.814
				c1.263,12.251,12.573,14.157,20.366,5.192c5.389,8.529,19.252,3.553,20.105-5.933c5.577,4.38,17.801,7.045,20.79-4.821
				c4.312,6.021,15.15,5.548,15.284-3.454c1.751,7.163,11.023,12.354,17.335,2.103c0.362,12.847,11.052,12.656,14.812,3.356
				c1.125,3.557,6.801,4.537,9.949,3.385c3.812-1.393,10.09-4.277,4.133-10.924C245.6,397.257,250.791,385.389,245.971,379.085z"/>
			<g>
				<g>
					<path fill="#827230" d="M241.995,359.667c9.241,3.928,21.868-8.214,6.135-15.782
						C237.141,338.596,232.753,355.736,241.995,359.667z"/>
					<path fill="#827230" d="M110.475,247.912c9.242,3.93,21.869-8.211,6.135-15.782
						C105.618,226.842,101.23,243.983,110.475,247.912z"/>
					<path fill="#827230" d="M207.049,323.25c9.242,3.928,21.869-8.214,6.136-15.782C202.193,302.18,197.807,319.321,207.049,323.25
						z"/>
					<path fill="#827230" d="M268.65,302.815c9.241,3.928,21.867-8.212,6.135-15.782
						C263.793,281.745,259.407,298.887,268.65,302.815z"/>
					<path fill="#827230" d="M80.205,307.114c9.243,3.929,21.869-8.212,6.136-15.782C75.35,286.044,70.965,303.186,80.205,307.114z"
						/>
					<path fill="#827230" d="M111.967,302.381c11.83,2.657,18.106-14.199,4.384-17.693
						C104.092,281.568,101.369,299.999,111.967,302.381z"/>
					<path fill="#827230" d="M41.713,268.906c11.832,2.658,18.108-14.201,4.385-17.693
						C33.838,248.093,31.118,266.523,41.713,268.906z"/>
					<path fill="#827230" d="M77.852,238.145c11.831,2.657,18.107-14.2,4.384-17.693C69.977,217.332,67.254,235.763,77.852,238.145z
						"/>
					<path fill="#827230" d="M78.323,266.659c11.83,2.659,18.108-14.2,4.386-17.693C70.45,245.846,67.729,264.277,78.323,266.659z"
						/>
					<path fill="#827230" d="M100.43,349.803c11.832,2.657,18.108-14.2,4.385-17.694C92.555,328.988,89.835,347.422,100.43,349.803z
						"/>
					<path fill="#827230" d="M155.873,298.819c11.834,2.657,18.109-14.199,4.388-17.692
						C148.002,278.007,145.279,296.439,155.873,298.819z"/>
					<path fill="#827230" d="M139.507,335.693c11.831,2.658,18.107-14.2,4.384-17.693
						C131.633,314.88,128.912,333.312,139.507,335.693z"/>
					<path fill="#827230" d="M199.234,288.6c11.832,2.658,18.107-14.2,4.386-17.693C191.361,267.786,188.641,286.217,199.234,288.6z
						"/>
					<path fill="#827230" d="M172.912,384.253c11.831,2.659,18.108-14.198,4.385-17.691
						C165.037,363.44,162.318,381.873,172.912,384.253z"/>
					<path fill="#827230" d="M227.55,270.338c11.833,2.659,18.108-14.2,4.387-17.692
						C219.675,249.525,216.954,267.957,227.55,270.338z"/>
					<path fill="#827230" d="M44.324,314.646c11.833,2.658,18.108-14.198,4.386-17.692C36.452,293.834,33.73,312.265,44.324,314.646
						z"/>
					<path fill="#827230" d="M183.188,340.838c15.278-2.322,8.022-22.891-3.199-19.691
						C168.955,324.288,173.726,342.274,183.188,340.838z"/>
					<path fill="#827230" d="M167.391,261.265c15.28-2.322,8.026-22.89-3.199-19.692C153.16,244.715,157.931,262.7,167.391,261.265z
						"/>
					<path fill="#827230" d="M141.021,373.663c15.975-2.429,8.39-23.931-3.346-20.587
						C126.141,356.36,131.131,375.166,141.021,373.663z"/>
					<path fill="#827230" d="M219.791,370.872c4.707-3.24,6.642-7.392,2.399-12.488c-3.162-3.8-7.921-5.717-12.327-2.91
						C199.11,362.318,210.882,377,219.791,370.872z"/>
					<path fill="#827230" d="M79.852,350.192c4.708-3.241,6.642-7.392,2.397-12.488c-3.162-3.8-7.919-5.717-12.325-2.911
						C59.17,341.638,70.943,356.32,79.852,350.192z"/>
					<path fill="#827230" d="M204.442,256.314c4.708-3.24,6.643-7.393,2.4-12.488c-3.162-3.799-7.92-5.716-12.327-2.91
						C183.762,247.76,195.534,262.441,204.442,256.314z"/>
					<path fill="#827230" d="M243.243,318.338c9.84,4.902,18.872-10.352,7.136-15.269
						C238.335,298.026,230.318,311.897,243.243,318.338z"/>
					<path fill="#827230" d="M141.219,226.947c9.839,4.901,18.871-10.352,7.135-15.268
						C136.311,206.637,128.293,220.508,141.219,226.947z"/>
					<path fill="#827230" d="M109.833,388.367c9.839,4.9,18.871-10.353,7.134-15.269
						C104.925,368.056,96.908,381.928,109.833,388.367z"/>
					<path fill="#827230" d="M131.57,274.127c9.842,4.901,18.872-10.354,7.135-15.27
						C126.661,253.814,118.645,267.685,131.57,274.127z"/>
					<path fill="#827230" d="M95.088,271.172c-1.314,2.469-2.115,16.515,1.973,13.646C99.612,283.027,97.701,267.765,95.088,271.172
						"/>
					<path fill="#827230" d="M101.602,250.943c0.876,4.241,1.068,6.633,5.486,7.97c2.492,0.754,7.741,1.771,7.474-2.149
						C114.3,252.919,102.324,246.398,101.602,250.943"/>
					<path fill="#827230" d="M173.6,272.543c-2.617-6.573-19.163-3.098-7.885,2.837c2.688,1.413,6.65,2.974,9.267,0.943
						c3.77-2.925-0.198-5.749-3.781-5.837"/>
					<path fill="#827230" d="M72.459,321.914c-4.241,2.799,12.25,8.624,14.158,3.504C88.316,320.854,74.826,319.738,72.459,321.914"
						/>
					<path fill="#827230" d="M38.175,273.914c-2.287-0.976-6.413-1.262-8.923-0.686c-4.055,0.932-3.086,3.128,0.419,4.19
						c2.394,0.725,10.261,1.904,12.29-0.066c3.505-3.4-4.922-4.538-7.216-3.779"/>
					<path fill="#827230" d="M106.401,211.516c-4.282-0.021-11.064,8.662-10.233,12.978c3.275,0.505,6.621-3.739,8.596-5.855
						c1.022-1.095,4.35-3.799,4.405-5.407C109.24,211.212,107.733,210.268,106.401,211.516"/>
					<path fill="#827230" d="M176.686,217.002c-1.951,0.862-12.683,7.938-6.513,9.264c3.412,0.732,12.29-6.54,12.982-9.556
						C182.88,215.18,180.436,214.986,176.686,217.002"/>
					<path fill="#827230" d="M162.286,313c-1.377,1.993-5.399,16.331-0.268,14.422c3.402-1.265,3.665-16.413,1.296-16.137"/>
					<path fill="#827230" d="M118.059,309.228c-2.092,3.745,4.069,16.232,6.532,12.019
						C126.524,317.938,122.077,308.727,118.059,309.228"/>
				</g>
				<g>
					<g>
						<g opacity="0.3">
							<path d="M44.002,280.743c-10.387,0-17.491,16.662,0.547,17.501C57.147,298.831,54.387,280.743,44.002,280.743z"/>
						</g>
						<g>
							<path fill="#996B28" d="M41.086,277.827c-10.387,0-17.491,16.662,0.547,17.501C54.231,295.915,51.472,277.827,41.086,277.827
								z"/>
						</g>
					</g>
					<g>
						<g opacity="0.3">
							<path d="M212.53,334.318c-10.386,0-17.49,16.662,0.547,17.502C225.676,352.406,222.916,334.318,212.53,334.318z"/>
						</g>
						<g>
							<path fill="#996B28" d="M209.614,331.402c-10.386,0-17.49,16.662,0.547,17.502C222.761,349.49,220,331.402,209.614,331.402z"
								/>
						</g>
					</g>
					<g>
						<g opacity="0.3">
							<path d="M101.084,309.217c-10.386,0-17.49,16.663,0.548,17.503C114.23,327.305,111.47,309.217,101.084,309.217z"/>
						</g>
						<g>
							<path fill="#996B28" d="M98.168,306.302c-10.386,0-17.49,16.663,0.548,17.503C111.314,324.39,108.555,306.302,98.168,306.302
								z"/>
						</g>
					</g>
					<path fill="#7C5F2D" d="M16.555,320.69c-10.387,0-17.491,16.663,0.546,17.503C29.7,338.777,26.939,320.69,16.555,320.69z"/>
					<g>
						<g opacity="0.3">
							<path d="M229.981,370.378c-10.386,0-17.49,16.661,0.547,17.502C243.128,388.466,240.367,370.378,229.981,370.378z"/>
						</g>
						<g>
							<path fill="#996B28" d="M227.065,367.462c-10.386,0-17.49,16.661,0.547,17.502
								C240.212,385.551,237.451,367.462,227.065,367.462z"/>
						</g>
					</g>
					<g>
						<g opacity="0.3">
							<path d="M224.161,291.701c-10.385,0-17.49,16.663,0.546,17.502C237.306,309.789,234.546,291.701,224.161,291.701z"/>
						</g>
						<g>
							<path fill="#996B28" d="M221.245,288.785c-10.385,0-17.49,16.663,0.546,17.502
								C234.391,306.873,231.631,288.785,221.245,288.785z"/>
						</g>
					</g>
					<g>
						<g opacity="0.3">
							<path d="M76.363,274.593c-12.337,2.257-11.49,20.839,2.983,18.613C92.277,291.215,87.41,272.573,76.363,274.593z"/>
						</g>
						<g>
							<path fill="#996B28" d="M73.447,271.678c-12.337,2.257-11.49,20.839,2.983,18.613
								C89.361,288.3,84.494,269.657,73.447,271.678z"/>
						</g>
					</g>
					<g>
						<g opacity="0.3">
							<path d="M184.005,264.373c-12.336,2.258-11.489,20.841,2.984,18.613C199.92,280.997,195.052,262.353,184.005,264.373z"/>
						</g>
						<g>
							<path fill="#996B28" d="M181.09,261.457c-12.336,2.258-11.489,20.841,2.984,18.613
								C197.004,278.081,192.137,259.438,181.09,261.457z"/>
						</g>
					</g>
					<g>
						<g opacity="0.3">
							<path d="M255.211,277.753c-12.335,2.257-11.489,20.841,2.986,18.613C271.127,294.376,266.259,275.732,255.211,277.753z"/>
						</g>
						<g>
							<path fill="#996B28" d="M252.295,274.837c-12.335,2.257-11.489,20.841,2.986,18.613
								C268.211,291.46,263.344,272.816,252.295,274.837z"/>
						</g>
					</g>
					<g>
						<g opacity="0.3">
							<path d="M247.53,330.418c-12.335,2.257-11.489,20.84,2.985,18.613C263.445,347.041,258.577,328.396,247.53,330.418z"/>
						</g>
						<g>
							<path fill="#996B28" d="M244.614,327.502c-12.335,2.257-11.489,20.84,2.985,18.613
								C260.529,344.125,255.661,325.48,244.614,327.502z"/>
						</g>
					</g>
					<g>
						<g opacity="0.3">
							<path d="M277.587,309.371c-12.336,2.257-11.489,20.84,2.984,18.613C293.502,325.993,288.634,307.35,277.587,309.371z"/>
						</g>
						<g>
							<path fill="#996B28" d="M274.672,306.455c-12.336,2.257-11.489,20.84,2.984,18.613
								C290.586,323.077,285.719,304.435,274.672,306.455z"/>
						</g>
					</g>
					<g>
						<g opacity="0.3">
							<path d="M155.769,217.682c-12.336,2.256-11.49,20.841,2.984,18.613C171.683,234.305,166.816,215.663,155.769,217.682z"/>
						</g>
						<g>
							<path fill="#996B28" d="M152.854,214.767c-12.336,2.256-11.49,20.841,2.984,18.613
								C168.768,231.39,163.9,212.747,152.854,214.767z"/>
						</g>
					</g>
					<g>
						<g opacity="0.3">
							<path d="M137.293,297.105c-12.336,2.256-11.489,20.84,2.983,18.613C153.207,313.727,148.339,295.085,137.293,297.105z"/>
						</g>
						<g>
							<path fill="#996B28" d="M134.377,294.19c-12.336,2.256-11.489,20.84,2.983,18.613
								C150.291,310.811,145.424,292.169,134.377,294.19z"/>
						</g>
					</g>
					<g>
						<g opacity="0.3">
							<path d="M146.959,254.897c-12.336,2.257-11.489,20.84,2.984,18.613C162.873,271.521,158.005,252.878,146.959,254.897z"/>
						</g>
						<g>
							<path fill="#996B28" d="M144.043,251.981c-12.336,2.257-11.489,20.84,2.984,18.613
								C159.957,268.605,155.09,249.963,144.043,251.981z"/>
						</g>
					</g>
					<g>
						<g opacity="0.3">
							<path d="M121.478,324.578c-12.337,2.257-11.49,20.84,2.984,18.613C137.391,341.201,132.525,322.558,121.478,324.578z"/>
						</g>
						<g>
							<path fill="#996B28" d="M118.563,321.662c-12.337,2.257-11.49,20.84,2.984,18.613
								C134.476,338.285,129.609,319.643,118.563,321.662z"/>
						</g>
					</g>
					<g>
						<g opacity="0.3">
							<path d="M197.428,287.228c-12.336,2.257-11.49,20.84,2.984,18.613C213.342,303.851,208.475,285.209,197.428,287.228z"/>
						</g>
						<g>
							<path fill="#996B28" d="M194.513,284.312c-12.336,2.257-11.49,20.84,2.984,18.613
								C210.427,300.935,205.56,282.293,194.513,284.312z"/>
						</g>
					</g>
					<g>
						<g opacity="0.3">
							<path d="M96.106,227.157c-12.336,2.258-11.49,20.842,2.985,18.614C112.019,243.781,107.153,225.138,96.106,227.157z"/>
						</g>
						<g>
							<path fill="#996B28" d="M93.19,224.241c-12.336,2.258-11.49,20.842,2.985,18.614
								C109.104,240.865,104.237,222.223,93.19,224.241z"/>
						</g>
					</g>
					<g>
						<g opacity="0.3">
							<path d="M92.034,360.337c-12.337,2.258-11.49,20.841,2.984,18.613C107.946,376.961,103.081,358.318,92.034,360.337z"/>
						</g>
						<g>
							<path fill="#996B28" d="M89.118,357.422c-12.337,2.258-11.49,20.841,2.984,18.613
								C105.03,374.045,100.165,355.402,89.118,357.422z"/>
						</g>
					</g>
					<path fill="#7C5F2D" d="M213.387,219.916c-12.336,2.258-11.49,20.842,2.983,18.615
						C229.3,236.54,224.434,217.898,213.387,219.916z"/>
					<g>
						<g opacity="0.3">
							<path d="M108.159,264.538c-13.602,8.392,1.624,25.032,11.011,17.447C128.399,274.531,116.582,259.343,108.159,264.538z"/>
						</g>
						<g>
							<path fill="#996B28" d="M105.243,261.622c-13.602,8.392,1.624,25.032,11.011,17.447
								C125.483,271.615,113.666,256.428,105.243,261.622z"/>
						</g>
					</g>
					<g>
						<g opacity="0.3">
							<path d="M154.259,340.057c-13.602,8.391,1.623,25.03,11.011,17.446C174.498,350.05,162.68,334.862,154.259,340.057z"/>
						</g>
						<g>
							<path fill="#996B28" d="M151.344,337.142c-13.602,8.391,1.623,25.03,11.011,17.446
								C171.582,347.135,159.765,331.946,151.344,337.142z"/>
						</g>
					</g>
					<g>
						<g opacity="0.3">
							<path d="M118.295,206.746c-14.221,8.773,1.697,26.17,11.513,18.241C139.456,217.193,127.101,201.314,118.295,206.746z"/>
						</g>
						<g>
							<path fill="#996B28" d="M115.379,203.83c-14.221,8.773,1.697,26.17,11.513,18.241
								C136.54,214.277,124.186,198.398,115.379,203.83z"/>
						</g>
					</g>
					<g>
						<g opacity="0.3">
							<path d="M57.948,245.523c-3.171,4.988-3.332,9.722,2.769,12.856c4.547,2.336,9.851,2.236,12.908-2.217
								C81.09,245.296,63.947,236.085,57.948,245.523z"/>
						</g>
						<g>
							<path fill="#996B28" d="M55.032,242.607c-3.171,4.988-3.332,9.722,2.769,12.855c4.547,2.336,9.851,2.236,12.908-2.217
								C78.175,242.381,61.031,233.169,55.032,242.607z"/>
						</g>
					</g>
					<g>
						<g opacity="0.3">
							<path d="M213.898,254.667c-3.17,4.989-3.332,9.724,2.77,12.856c4.546,2.336,9.85,2.235,12.909-2.217
								C237.042,254.441,219.897,245.23,213.898,254.667z"/>
						</g>
						<g>
							<path fill="#996B28" d="M210.982,251.751c-3.17,4.989-3.332,9.724,2.77,12.856c4.546,2.336,9.85,2.235,12.909-2.217
								C234.126,251.525,216.981,242.314,210.982,251.751z"/>
						</g>
					</g>
					<g>
						<g opacity="0.3">
							<path d="M133.465,383.093c-3.171,4.99-3.332,9.724,2.768,12.858c4.549,2.335,9.853,2.234,12.91-2.219
								C156.609,382.87,139.464,373.658,133.465,383.093z"/>
						</g>
						<g>
							<path fill="#996B28" d="M130.55,380.178c-3.171,4.99-3.332,9.724,2.768,12.858c4.549,2.335,9.853,2.234,12.91-2.219
								C153.693,379.954,136.549,370.742,130.55,380.178z"/>
						</g>
					</g>
					<g>
						<g opacity="0.3">
							<path d="M60.935,316.483c-11.349-0.684-13.771,17.487-0.613,17.417C73.823,333.828,75.842,317.382,60.935,316.483z"/>
						</g>
						<g>
							<path fill="#996B28" d="M58.02,313.567c-11.349-0.684-13.771,17.487-0.613,17.417
								C70.907,330.912,72.927,314.467,58.02,313.567z"/>
						</g>
					</g>
					<g>
						<g opacity="0.3">
							<path d="M18.479,320.631c-11.35-0.684-13.772,17.486-0.614,17.417C31.367,337.976,33.385,321.53,18.479,320.631z"/>
						</g>
						<g>
							<path fill="#996B28" d="M15.563,317.716c-11.35-0.684-13.772,17.486-0.614,17.417
								C28.451,335.06,30.47,318.614,15.563,317.716z"/>
						</g>
					</g>
					<path fill="#7C5F2D" d="M248.912,248.811c9.067-5.712,5.345-25.369-10.898-16.245
						C226.667,238.94,239.847,254.521,248.912,248.811z"/>
					<g>
						<g opacity="0.3">
							<path d="M243.773,249.023c9.717,4.131,17.495-11.011,5.96-15.047C237.897,229.837,231.013,243.595,243.773,249.023z"/>
						</g>
						<g>
							<path fill="#996B28" d="M240.857,246.107c9.717,4.131,17.495-11.011,5.96-15.047
								C234.981,226.922,228.098,240.68,240.857,246.107z"/>
						</g>
					</g>
					<g>
						<g opacity="0.3">
							<path d="M191.752,366.708c-11.349-0.683-13.773,17.487-0.613,17.417C204.64,384.054,206.657,367.608,191.752,366.708z"/>
						</g>
						<g>
							<path fill="#996B28" d="M188.836,363.792c-11.349-0.683-13.773,17.487-0.613,17.417
								C201.725,381.139,203.741,364.692,188.836,363.792z"/>
						</g>
					</g>
					<g>
						<g opacity="0.3">
							<path d="M188.111,228.986c-11.348-0.684-13.771,17.488-0.613,17.418C201,246.332,203.018,229.886,188.111,228.986z"/>
						</g>
						<g>
							<path fill="#996B28" d="M185.195,226.07c-11.348-0.684-13.771,17.488-0.613,17.418
								C198.084,243.416,200.103,226.971,185.195,226.07z"/>
						</g>
					</g>
					<g>
						<g opacity="0.3">
							<path d="M99.873,196.937c-11.349-0.684-13.773,17.487-0.615,17.417C112.76,214.283,114.779,197.837,99.873,196.937z"/>
						</g>
						<g>
							<path fill="#996B28" d="M96.957,194.021c-11.349-0.684-13.773,17.487-0.615,17.417
								C109.845,211.367,111.863,194.922,96.957,194.021z"/>
						</g>
					</g>
					<g>
						<g opacity="0.3">
							<path d="M178.162,305.398c-11.348-0.684-13.771,17.487-0.613,17.417C191.051,322.744,193.068,306.297,178.162,305.398z"/>
						</g>
						<g>
							<path fill="#996B28" d="M175.246,302.482c-11.348-0.684-13.771,17.487-0.613,17.417
								C188.136,319.828,190.152,303.382,175.246,302.482z"/>
						</g>
					</g>
					<g>
						<g opacity="0.3">
							<path d="M140.173,240.145c-1.728,3.216-9.914,4.005-9.548,10.233c3.105,0.342,8.019-3.412,10.662-5.006
								C145.488,242.841,146.162,238.669,140.173,240.145"/>
						</g>
						<g>
							<path fill="#996B28" d="M137.258,237.23c-1.728,3.216-9.914,4.005-9.548,10.233c3.104,0.342,8.019-3.412,10.662-5.006
								C142.572,239.926,143.246,235.753,137.258,237.23"/>
						</g>
					</g>
					<g>
						<g opacity="0.3">
							<path d="M68.175,305.629c2.358,4.049,4.914,8.387,8.229,11.638c3.988,3.912,5.605,2.438,3.856-2.373
								c-1.072-2.95-3.148-5.971-4.973-8.492C73.465,303.88,67.341,300.027,68.175,305.629"/>
						</g>
						<g>
							<path fill="#996B28" d="M65.26,302.714c2.358,4.049,4.914,8.387,8.229,11.638c3.988,3.912,5.605,2.438,3.857-2.373
								c-1.072-2.95-3.149-5.971-4.973-8.492C70.55,300.965,64.426,297.111,65.26,302.714"/>
						</g>
					</g>
					<g>
						<g opacity="0.3">
							<path d="M156.973,307.001c-1.308,2.999-0.55,6.429,0.428,9.943c0.753,2.708,2.269,6.238,3.61,1.714
								C161.707,316.315,160.132,304.297,156.973,307.001"/>
						</g>
						<g>
							<path fill="#996B28" d="M154.058,304.085c-1.308,2.999-0.55,6.429,0.428,9.943c0.753,2.708,2.269,6.238,3.61,1.714
								C158.791,313.399,157.217,301.381,154.058,304.085"/>
						</g>
					</g>
					<g>
						<g opacity="0.3">
							<path d="M137.774,282.315c-1.49,0.093-7.349-0.206-8.253,1.099c-2.1,3.029,3.257,2.962,4.824,3.016
								c1.938,0.067,6.658,0.736,8.236-0.316C146.806,283.293,139.623,283.16,137.774,282.315"/>
						</g>
						<g>
							<path fill="#996B28" d="M134.858,279.399c-1.49,0.093-7.349-0.206-8.253,1.099c-2.1,3.029,3.257,2.962,4.824,3.016
								c1.938,0.067,6.658,0.736,8.236-0.316C143.891,280.378,136.707,280.244,134.858,279.399"/>
						</g>
					</g>
					<g>
						<g opacity="0.3">
							<path d="M64.061,266.544c-3.25,1.628-8.442,6.603-8.169,10.911c3.379,2.011,10.178-8.163,9.831-11.201
								C65.013,266.016,64.652,266.296,64.061,266.544"/>
						</g>
						<g>
							<path fill="#996B28" d="M61.146,263.629c-3.25,1.628-8.442,6.603-8.169,10.911c3.379,2.011,10.178-8.163,9.831-11.201
								C62.098,263.101,61.736,263.38,61.146,263.629"/>
						</g>
					</g>
					<g>
						<g opacity="0.3">
							<path d="M179.259,253.173c2.419,3.649,10.006,6.691,13.995,5.084c0.014-3.401-4.897-4.72-7.481-5.426
								C184.433,252.466,175.486,251.177,179.259,253.173"/>
						</g>
						<g>
							<path fill="#996B28" d="M176.344,250.258c2.419,3.649,10.006,6.691,13.995,5.084c0.014-3.401-4.897-4.72-7.481-5.426
								C181.518,249.551,172.57,248.262,176.344,250.258"/>
						</g>
					</g>
					<g>
						<g opacity="0.3">
							<path d="M91.832,333.743c-0.821,2.818-3.152,5.857-3.084,8.923c0.076,3.486,1.795,3.964,4.199,1.799
								c2.191-1.975,2.666-5.628,3.074-8.32C96.541,332.714,94.809,329.465,91.832,333.743"/>
						</g>
						<g>
							<path fill="#996B28" d="M88.916,330.827c-0.821,2.818-3.152,5.858-3.084,8.923c0.076,3.486,1.795,3.964,4.199,1.799
								c2.191-1.975,2.666-5.628,3.074-8.32C93.625,329.799,91.894,326.55,88.916,330.827"/>
						</g>
					</g>
				</g>
				<path fill="#827230" d="M210.713,233.949c11.833,2.658,18.108-14.2,4.387-17.694
					C202.84,213.136,200.118,231.567,210.713,233.949z"/>
			</g>
			<g>
				<defs>
					<path id="SVGID_9_" d="M245.971,379.085c6.305,4.08,14.768-2.619,11.498-11.496c8.11,2.681,15.944-8.159,11.572-15.583
						c11.789,1.862,13.281-10.878,8.452-16.68c6.999,2.01,19.1-8.108,11.087-16.166c9.508,2.444,13.258-10.726,5.056-14.867
						c8.321-2.518-1.213-15.424-7.838-13.554c2.651-6.439-3.669-16.602-13.31-7.8c6.305-11.425-2.226-21.644-11.867-15.477
						c0.741-11.481-10.014-12.596-15.893-6.411c0.118-0.824-15.623,16.953-15.603,16.236c0,0-28.716-22.166-37.231,0
						c-8.663,22.549-63.779,37.935-62.892,46.726c1.431,14.172,14.797,33.396-12.978,28.476
						c-25.997-4.604-54.744,11.938-54.744,11.938c1.406,0.982,3.176,1.568,5.32,1.539c-0.249,7.331,2.936,13.617,11.231,13.328
						c-0.576,6.553,10.982,17.785,16.247,10.598c-0.233,8.781,11.319,16.13,18.71,11.814c1.263,12.251,12.573,14.157,20.366,5.192
						c5.389,8.529,19.252,3.553,20.105-5.933c5.577,4.38,17.801,7.045,20.79-4.821c4.312,6.021,15.15,5.548,15.284-3.454
						c1.751,7.163,11.023,12.354,17.335,2.103c0.362,12.847,11.052,12.656,14.812,3.356c1.125,3.557,6.801,4.537,9.949,3.385
						c3.812-1.393,10.09-4.277,4.133-10.924C245.6,397.257,250.791,385.389,245.971,379.085z"/>
				</defs>
				<clipPath id="SVGID_10_">
					<use xlink:href="#SVGID_9_"  overflow="visible"/>
				</clipPath>
				<g clip-path="url(#SVGID_10_)">
					<g>
						<path fill="#726428" d="M241.995,359.667c9.241,3.928,21.868-8.214,6.135-15.782
							C237.141,338.596,232.753,355.736,241.995,359.667z"/>
						<path fill="#726428" d="M110.475,247.912c9.242,3.93,21.869-8.211,6.135-15.782
							C105.618,226.842,101.23,243.983,110.475,247.912z"/>
						<path fill="#726428" d="M207.049,323.25c9.242,3.928,21.869-8.214,6.136-15.782
							C202.193,302.18,197.807,319.321,207.049,323.25z"/>
						<path fill="#726428" d="M268.65,302.815c9.241,3.928,21.867-8.212,6.135-15.782
							C263.793,281.745,259.407,298.887,268.65,302.815z"/>
						<path fill="#726428" d="M80.205,307.114c9.243,3.929,21.869-8.212,6.136-15.782C75.35,286.044,70.965,303.186,80.205,307.114z
							"/>
						<path fill="#726428" d="M111.967,302.381c11.83,2.657,18.106-14.199,4.384-17.693
							C104.092,281.568,101.369,299.999,111.967,302.381z"/>
						<path fill="#726428" d="M41.713,268.906c11.832,2.658,18.108-14.201,4.385-17.693
							C33.838,248.093,31.118,266.523,41.713,268.906z"/>
						<path fill="#726428" d="M77.852,238.145c11.831,2.657,18.107-14.2,4.384-17.693C69.977,217.332,67.254,235.763,77.852,238.145
							z"/>
						<path fill="#726428" d="M78.323,266.659c11.83,2.659,18.108-14.2,4.386-17.693C70.45,245.846,67.729,264.277,78.323,266.659z"
							/>
						<path fill="#726428" d="M102.659,342.339c11.832,2.658,18.108-14.199,4.384-17.692
							C94.784,321.526,92.064,339.959,102.659,342.339z"/>
						<path fill="#726428" d="M155.873,298.819c11.834,2.657,18.109-14.199,4.388-17.692
							C148.002,278.007,145.279,296.439,155.873,298.819z"/>
						<path fill="#726428" d="M139.507,335.693c11.831,2.658,18.107-14.2,4.384-17.693
							C131.633,314.88,128.912,333.312,139.507,335.693z"/>
						<path fill="#726428" d="M199.234,288.6c11.832,2.658,18.107-14.2,4.386-17.693C191.361,267.786,188.641,286.217,199.234,288.6
							z"/>
						<path fill="#726428" d="M172.912,384.253c11.831,2.659,18.108-14.198,4.385-17.691
							C165.037,363.44,162.318,381.873,172.912,384.253z"/>
						<path fill="#726428" d="M227.55,270.338c11.833,2.659,18.108-14.2,4.387-17.692
							C219.675,249.525,216.954,267.957,227.55,270.338z"/>
						<path fill="#726428" d="M44.324,314.646c11.833,2.658,18.108-14.198,4.386-17.692
							C36.452,293.834,33.73,312.265,44.324,314.646z"/>
						<path fill="#726428" d="M183.188,340.838c15.278-2.322,8.022-22.891-3.199-19.691
							C168.955,324.288,173.726,342.274,183.188,340.838z"/>
						<path fill="#726428" d="M167.391,261.265c15.28-2.322,8.026-22.89-3.199-19.692C153.16,244.715,157.931,262.7,167.391,261.265
							z"/>
						<path fill="#726428" d="M141.021,373.663c15.975-2.429,8.39-23.931-3.346-20.587
							C126.141,356.36,131.131,375.166,141.021,373.663z"/>
						<path fill="#726428" d="M219.791,370.872c4.707-3.24,6.642-7.392,2.399-12.488c-3.162-3.8-7.921-5.717-12.327-2.91
							C199.11,362.318,210.882,377,219.791,370.872z"/>
						<path fill="#726428" d="M79.852,350.192c4.708-3.241,6.642-7.392,2.397-12.488c-3.162-3.8-7.919-5.717-12.325-2.911
							C59.17,341.638,70.943,356.32,79.852,350.192z"/>
						<path fill="#726428" d="M204.442,256.314c4.708-3.24,6.643-7.393,2.4-12.488c-3.162-3.799-7.92-5.716-12.327-2.91
							C183.762,247.76,195.534,262.441,204.442,256.314z"/>
						<path fill="#726428" d="M243.243,318.338c9.84,4.902,18.872-10.352,7.136-15.269
							C238.335,298.026,230.318,311.897,243.243,318.338z"/>
						<path fill="#726428" d="M141.219,226.947c9.839,4.901,18.871-10.352,7.135-15.268
							C136.311,206.637,128.293,220.508,141.219,226.947z"/>
						<path fill="#726428" d="M109.833,388.367c9.839,4.9,18.871-10.353,7.134-15.269
							C104.925,368.056,96.908,381.928,109.833,388.367z"/>
						<path fill="#726428" d="M131.57,274.127c9.842,4.901,18.872-10.354,7.135-15.27
							C126.661,253.814,118.645,267.685,131.57,274.127z"/>
					</g>
					<g>
						<path fill="#825825" d="M41.091,277.803c-10.386,0-17.491,16.663,0.547,17.502C54.236,295.891,51.477,277.803,41.091,277.803z
							"/>
						<path fill="#825825" d="M209.619,331.378c-10.386,0-17.49,16.663,0.547,17.503
							C222.766,349.466,220.006,331.378,209.619,331.378z"/>
						<path fill="#825825" d="M98.173,306.277c-10.386,0-17.49,16.663,0.548,17.503C111.319,324.366,108.559,306.277,98.173,306.277
							z"/>
						<path fill="#825825" d="M227.07,367.438c-10.386,0-17.49,16.662,0.547,17.503C240.217,385.526,237.457,367.438,227.07,367.438
							z"/>
						<path fill="#825825" d="M221.25,288.762c-10.385,0-17.49,16.662,0.547,17.501C234.396,306.85,231.636,288.762,221.25,288.762z
							"/>
						<path fill="#825825" d="M73.451,271.653c-12.336,2.257-11.489,20.84,2.984,18.613
							C89.366,288.276,84.498,269.634,73.451,271.653z"/>
						<path fill="#825825" d="M181.096,261.434c-12.337,2.257-11.49,20.84,2.983,18.613
							C197.009,278.057,192.143,259.413,181.096,261.434z"/>
						<path fill="#825825" d="M252.301,274.812c-12.336,2.257-11.49,20.841,2.986,18.613
							C268.216,291.436,263.349,272.793,252.301,274.812z"/>
						<path fill="#825825" d="M244.619,327.478c-12.334,2.257-11.488,20.841,2.985,18.613
							C260.534,344.102,255.666,325.457,244.619,327.478z"/>
						<path fill="#825825" d="M274.677,306.431c-12.336,2.257-11.489,20.84,2.983,18.613
							C290.591,323.053,285.724,304.41,274.677,306.431z"/>
						<path fill="#825825" d="M152.858,214.742c-12.336,2.257-11.49,20.841,2.984,18.613
							C168.772,231.365,163.905,212.723,152.858,214.742z"/>
						<path fill="#825825" d="M134.381,294.165c-12.335,2.256-11.488,20.841,2.984,18.613
							C150.296,310.788,145.429,292.146,134.381,294.165z"/>
						<path fill="#825825" d="M144.049,251.957c-12.337,2.257-11.49,20.841,2.983,18.613
							C159.962,268.581,155.096,249.939,144.049,251.957z"/>
						<path fill="#825825" d="M115.05,330.814c-12.337,2.257-11.489,20.84,2.984,18.613
							C130.965,347.438,126.097,328.793,115.05,330.814z"/>
						<path fill="#825825" d="M93.195,224.218c-12.336,2.257-11.49,20.841,2.985,18.613
							C109.108,240.841,104.242,222.198,93.195,224.218z"/>
						<path fill="#825825" d="M89.123,357.398c-12.337,2.257-11.49,20.84,2.984,18.613
							C105.035,374.021,100.17,355.378,89.123,357.398z"/>
						<path fill="#825825" d="M105.248,261.598c-13.602,8.392,1.623,25.032,11.012,17.447
							C125.488,271.591,113.671,256.404,105.248,261.598z"/>
						<path fill="#825825" d="M151.349,337.117c-13.602,8.392,1.623,25.031,11.011,17.446
							C171.587,347.11,159.77,331.922,151.349,337.117z"/>
						<path fill="#825825" d="M115.385,203.807c-14.222,8.773,1.696,26.169,11.512,18.24
							C136.545,214.254,124.19,198.374,115.385,203.807z"/>
						<path fill="#825825" d="M55.037,242.583c-3.171,4.989-3.332,9.722,2.769,12.856c4.547,2.337,9.851,2.236,12.909-2.217
							C78.18,242.356,61.035,233.145,55.037,242.583z"/>
						<path fill="#825825" d="M210.987,251.727c-3.17,4.989-3.331,9.723,2.77,12.856c4.546,2.337,9.85,2.236,12.909-2.217
							C234.131,251.501,216.986,242.291,210.987,251.727z"/>
						<path fill="#825825" d="M130.555,380.154c-3.17,4.989-3.332,9.723,2.768,12.857c4.549,2.335,9.852,2.235,12.91-2.219
							C153.698,379.93,136.554,370.718,130.555,380.154z"/>
						<path fill="#825825" d="M58.024,313.543c-11.349-0.683-13.772,17.487-0.614,17.417
							C70.912,330.888,72.932,314.443,58.024,313.543z"/>
						<path fill="#825825" d="M188.841,363.769c-11.349-0.684-13.772,17.487-0.613,17.417
							C201.73,381.114,203.746,364.668,188.841,363.769z"/>
						<path fill="#825825" d="M185.201,225.6c-11.348-0.684-13.771,17.486-0.613,17.417
							C198.091,242.945,200.107,226.5,185.201,225.6z"/>
						<path fill="#825825" d="M175.252,302.458c-11.349-0.684-13.771,17.487-0.614,17.417
							C188.141,319.804,190.157,303.357,175.252,302.458z"/>
					</g>
					<path fill="#726428" d="M121.487,354.484c-3.159,0.627-7.075,4.776-9.274,7.122c-2.629,2.808-1.838,4.988,2.436,3.772
						c3.059-0.869,6.769-4.369,8.913-6.703C126.65,355.315,126.207,354.524,121.487,354.484"/>
					<path fill="#726428" d="M173.258,346.941c-5.037-0.642,4.787,17.923,7.474,10.629
						C182.319,353.258,177.557,347.156,173.258,346.941"/>
					<path fill="#726428" d="M194.857,308.543c-2.705,1.868-5.235,5.824-5.51,9.256c-0.242,3.019,1.267,4.602,4.138,2.767
						c2.518-1.609,4.991-7.475,5.485-10.325C199.536,306.978,197.982,305.682,194.857,308.543"/>
					<path fill="#726428" d="M226.4,319.856c-2.32,2.998-0.148,16.524,3.702,14.432C233.847,332.252,229.175,317.715,226.4,319.856"
						/>
					<path fill="#726428" d="M217.143,271.172c-2.572,3.512,10.418,15.031,11.654,10.301
						C229.625,278.308,219.697,270.401,217.143,271.172"/>
					<path fill="#726428" d="M262.399,330.485c-2.786,3.58,0.54,16.716,4.062,12.684
						C268.543,340.789,266.286,330.295,262.399,330.485"/>
					<path fill="#726428" d="M206.514,380.884c-4.348-0.388-10.746,2.648-11.664,7.207c3.238,1.843,11.043,0.037,14.09-1.979
						C213.723,382.945,210.521,381.209,206.514,380.884"/>
					<path fill="#726428" d="M120.115,393.569c-3.836,0.979,0.059,6.826,3.428,8.914c2.393,1.482,3.693,2.733,4.876-0.267
						C129.998,398.207,124.021,393.128,120.115,393.569"/>
					<path fill="#825825" d="M193.143,342.827c-1.993,2.797-4.529,6.557-4.465,9.951c0.07,3.683,1.677,2.837,3.521,0.335
						c1.434-1.943,2.661-4.904,3.352-7.2C196.252,343.586,195.722,338.377,193.143,342.827"/>
					<path fill="#825825" d="M162.629,363.398c-4.244,1.583-9.517,2.764-11.279,7.549c3.509,1.132,12.167-3.646,13.653-7.154
						C165.2,362.648,163.596,363.03,162.629,363.398"/>
					<path fill="#825825" d="M157.829,386.369c-0.729,4.564,2.153,9.552,5.76,10.594c1.396-2.47,0.811-5.713-0.18-8.193
						C162.574,386.679,159.583,381.971,157.829,386.369"/>
					<path fill="#825825" d="M94.745,352.771c2.763-2.4,16.654,0.868,12.607,4.712C105.059,359.661,94.292,354.684,94.745,352.771"
						/>
					<path fill="#825825" d="M262.056,316.772c-3.675,1.469-7.84,4.464-8.518,8.52c2.679,0.533,5.621-1.472,7.566-3.035
						c1.276-1.026,5.646-7.253,1.296-5.485"/>
					<path fill="#825825" d="M235.656,282.485c-1.672,3.086-0.213,15.104,4.732,15.727
						C242.268,295.353,239.826,280.469,235.656,282.485"/>
					<path fill="#825825" d="M233.256,344.542c-4.672,1.007-11.087,3.474-11.261,8.52c3.683,0.465,15.217-3.52,13.952-8.467
						C235.18,344.537,234.012,344.345,233.256,344.542"/>
				</g>
			</g>
		</g>
		<g>
			<g>
				<defs>
					<path id="SVGID_11_" d="M245.971,379.085c6.305,4.08,14.768-2.619,11.498-11.496c8.11,2.681,15.944-8.159,11.572-15.583
						c11.789,1.862,13.281-10.878,8.452-16.68c6.999,2.01,19.1-8.108,11.087-16.166c9.508,2.444,13.258-10.726,5.056-14.867
						c8.321-2.518-1.213-15.424-7.838-13.554c2.651-6.439-3.669-16.602-13.31-7.8c6.305-11.425-2.226-21.644-11.867-15.477
						c0.741-11.481-10.014-12.596-15.893-6.411c0.118-0.824-15.623,16.953-15.603,16.236c0,0-28.716-22.166-37.231,0
						c-8.663,22.549-63.779,37.935-62.892,46.726c1.431,14.172,14.797,33.396-12.978,28.476
						c-25.997-4.604-54.744,11.938-54.744,11.938c1.406,0.982,3.176,1.568,5.32,1.539c-0.249,7.331,2.936,13.617,11.231,13.328
						c-0.576,6.553,10.982,17.785,16.247,10.598c-0.233,8.781,11.319,16.13,18.71,11.814c1.263,12.251,12.573,14.157,20.366,5.192
						c5.389,8.529,19.252,3.553,20.105-5.933c5.577,4.38,17.801,7.045,20.79-4.821c4.312,6.021,15.15,5.548,15.284-3.454
						c1.751,7.163,11.023,12.354,17.335,2.103c0.362,12.847,11.052,12.656,14.812,3.356c1.125,3.557,6.801,4.537,9.949,3.385
						c3.812-1.393,10.09-4.277,4.133-10.924C245.6,397.257,250.791,385.389,245.971,379.085z"/>
				</defs>
				<clipPath id="SVGID_12_">
					<use xlink:href="#SVGID_11_"  overflow="visible"/>
				</clipPath>
			</g>
		</g>
	</g>
</g>
</svg>
