<?xml version="1.0" encoding="utf-8"?>
<!-- Generator: Adobe Illustrator 18.1.1, SVG Export Plug-In . SVG Version: 6.00 Build 0)  -->
<svg version="1.1" id="Layer_2" xmlns="http://www.w3.org/2000/svg" xmlns:xlink="http://www.w3.org/1999/xlink" x="0px" y="0px"
	 width="450px" height="450px" viewBox="-74 76 450 450" enable-background="new -74 76 450 450" xml:space="preserve">
<g>
	<g opacity="0.3">
		<path d="M208.951,225.941c-6.841-1.583-15.262-1.554-22.182-2.863c-8.115-1.535-16.881-2.69-25.142-2.419
			c-19.454,0.642-41.205,3.784-59.802,9.338c-31.692,9.467-73.893,36.69-92.262,64.213c-10.707,16.04-18.538,29.245-16.043,57.223
			c1.786,20.03,28.321,32.907,46.895,33.818c11.379,0.556,23.522-4.499,34.579-6.979c11.204-2.511,22.459-5.616,33.191-9.655
			c13.321-5.014,26.871-9.439,40.396-13.876c15.341-5.036,31.397-14.215,51.685-20.969c12.558-4.181,22.441-9.516,33.958-15.343
			c8.718-4.413,19.389-8.967,27.198-15.474c10.436-8.695,9.162-39.09,4.169-45.941c-4.883-6.7-26.118-17.533-33.373-21.397
			C223.989,231.233,220.911,228.711,208.951,225.941z"/>
		<path d="M234.225,318.43c8.718-4.413,19.389-8.967,27.198-15.474c10.436-8.695,9.162-39.09,4.169-45.941
			c-3.737-5.127-17.046-12.672-26.343-17.666L40.24,385.239c0.058,0.002,0.118,0.009,0.175,0.011
			c11.379,0.556,23.522-4.499,34.579-6.979c11.204-2.511,22.459-5.616,33.191-9.655c13.321-5.014,26.871-9.439,40.396-13.876
			c15.341-5.036,31.397-14.215,51.685-20.969C212.825,329.591,222.708,324.257,234.225,318.43z"/>
		<path d="M31.55,313.64c-0.032-0.835-0.799-2.209-0.704-2.915c0.365-2.727,5.275-5.49,7.3-7.011
			c11.232-8.433,22.536-16.926,33.959-25.097c16.592-11.87,37.047-19.157,56.165-25.811c13.574-4.723,26.995-8.1,41.063-10.877
			c13.629-2.69,33.253-6.936,43.565-17.626c2.903-3.005,1.896-3.638-0.767-5.783c-2.84-2.284-3.969-4.221-7.596-4.333
			c-3.572-0.11-4.122-0.414-7.438-1.891c-3.129-1.394-6.275-0.641-9.485-1.637c-1.335-0.413-2.864-2.036-3.993-2.288
			c-1.599-0.357-2.194,0.353-3.942,0.826c-3.233,0.875-7.281,0.581-10.643,0.726c-3.245,0.14-6.501,0.475-9.633,0.002
			c-3.073-0.465-5.664-1.657-8.761-0.253c-2.47,1.12-4.355,5.112-7.525,3.786c-1.626-0.682-1.352-2.498-2.946-3.141
			c-1.298-0.522-2.741,0.49-3.912,0.833c-4.222,1.245-5.368-0.052-9.173-0.262c-3.252-0.178-6.063,1.952-9.489,1.661
			c-3.133-0.265-4.554-1.084-7.526,0.973c-2.556,1.771-3.779,4.367-6.869,5.254c-2.794,0.799-5.122,0.594-7.844,1.7
			c-5.584,2.265-11.196,2.741-16.694,5.798c-5.098,2.835-9.889,6.851-15.05,9.414c-3.553,1.764-5.451,2.321-8.49,4.999
			c-2.808,2.475-5.807,4.362-8.849,6.615c-5.45,4.034-10.47,7.773-13.988,13.661c-1.811,3.028-3.906,4.946-6.234,7.526
			c-2.152,2.384-3.251,5.5-5.216,7.939c-2.102,2.611-5.14,1.899-7.281,3.823c-1.913,1.722-2.766,6.144-4.015,8.522
			c-2.659,5.06-5.733,9.44-7.755,14.722c-1.176,3.074-3.341,4.294-3.935,7.526c-0.505,2.746-1.082,5.087-1.715,7.779
			c-0.932,3.951-0.702,8.126-1.283,12.135c-0.382,2.639-1.124,5.212-0.827,7.899c0.717,6.53,5.299,13.107,9.674,17.764
			c10.114,10.771,25.245,16.391,39.931,14.584c11.31-1.389,21.16-3.036,32.219-5.516c11.204-2.512,22.459-5.616,33.191-9.653
			c13.32-5.017,33.143-11.655,46.667-16.093c17.675-5.799,27.203-10.928,44.965-16.842c12.557-4.182,22.665-10.471,34.182-16.299
			c8.718-4.412,18.284-8.101,24.356-16.25c12.411-16.645,10.997-32.398-2.407-46.799c-5.647-6.069-16.925-14.945-24.179-18.808
			c-8.231-4.385-11.307-6.907-23.269-9.675c-6.84-1.582-15.261-1.554-22.18-2.864c-8.118-1.536-16.882-2.689-25.143-2.418
			c-19.454,0.641-41.205,3.783-59.802,9.337c-31.691,9.467-66.971,35.106-85.339,62.628C6.183,297.972-8.825,315.87-6.637,335.537
			c0.025,0.244,0.055,0.485,0.09,0.729"/>
		<path d="M207.252,218.102c-1.709-0.39-3.612,0.031-5.473-0.204c-1.78-0.224-3.528-0.991-5.357-1.158
			c-1.824-0.166-3.564-1.141-5.348-1.333c-1.863-0.201-3.801,0.521-5.523,0.201c-1.995-0.372-3.968-1.078-6.025-1.387
			c-2.025-0.305-4.144,0.061-6.195-0.152c-2.053-0.213-4.055-0.953-6.1-1.044c-2.076-0.092-4.146-0.129-6.178-0.063
			c-1.948,0.063-3.867,1.122-5.856,1.236c-1.953,0.112-3.928-0.076-5.91,0.084c-1.956,0.158-3.996-0.493-5.97-0.288
			c-1.956,0.203-3.801,1.406-5.764,1.656c-1.956,0.248-4.121-0.976-6.074-0.682c-1.954,0.294-3.875,0.889-5.817,1.229
			c-1.951,0.341-3.918,0.642-5.846,1.029c-1.946,0.391-3.858,0.966-5.77,1.404c-1.939,0.444-3.742,1.41-5.635,1.901
			c-1.931,0.501-4.006,0.435-5.877,0.986c-1.832,0.539-3.814,0.818-5.667,1.464c-1.807,0.63-3.28,2.272-5.099,2.997
			c-1.781,0.71-3.275,2.102-5.059,2.899c-1.753,0.783-3.935,0.667-5.685,1.529c-1.725,0.85-3.165,2.278-4.88,3.201
			c-1.697,0.912-3.663,1.358-5.344,2.336c-1.668,0.971-3.75,1.306-5.396,2.338c-1.637,1.027-2.423,3.384-4.033,4.466
			c-1.606,1.08-3.293,2.02-4.865,3.151c-1.573,1.133-3.828,1.358-5.361,2.538c-1.538,1.184-2.858,2.668-4.349,3.895
			c-1.501,1.235-2.387,3.182-3.835,4.457c-1.461,1.287-2.914,2.545-4.314,3.868c-1.417,1.339-2.455,3.012-3.803,4.383
			c-1.369,1.392-3.294,2.212-4.585,3.633c-1.315,1.448-3.233,2.368-4.46,3.841c-1.254,1.505-2.141,3.307-3.295,4.832
			c-1.184,1.565-2.624,2.95-3.694,4.531c-1.087,1.606-1.299,3.885-2.457,5.576c-1.109,1.618-3.147,2.657-4.278,4.343
			c-1.102,1.643-1.798,3.593-2.881,5.291c-1.071,1.679-2.404,3.226-3.419,4.951c-1.017,1.727-1.455,3.786-2.378,5.55
			c-0.933,1.784-2.107,3.445-2.905,5.259c-0.813,1.85-1.859,3.628-2.49,5.499c-0.647,1.918-1.067,3.934-1.478,5.864
			c-0.42,1.975-0.685,4.014-0.811,5.991c-0.127,1.999,0.242,4.024,0.467,6.013c0.217,1.925,0.709,3.768,1.3,5.557
			c0.599,1.814,1.501,3.476,2.451,5.131c0.941,1.64,1.176,3.895,2.428,5.359c1.221,1.427,3.602,1.787,5.087,3.028
			c1.437,1.201,2.685,2.674,4.342,3.684c1.598,0.974,2.909,2.723,4.686,3.504c1.713,0.753,4.022,0.087,5.879,0.647
			c1.794,0.541,3.442,1.816,5.349,2.164c1.844,0.337,3.761,0.778,5.692,0.924c1.871,0.142,3.833,0.134,5.769,0.087
			c1.876-0.046,3.847-0.023,5.77-0.255c2.17-0.263,4.247-0.928,6.367-1.107c2.165-0.183,4.347,0.193,6.48,0.033
			c2.154-0.161,4.24-1.072,6.384-1.276c2.134-0.203,4.17-1.123,6.316-1.435c2.104-0.306,4.194-0.557,6.33-1.029
			c1.825-0.403,3.83-0.035,5.655-0.472c1.82-0.435,3.683-0.735,5.499-1.206c1.813-0.471,3.31-2.097,5.113-2.606
			c1.804-0.51,4.053,0.484,5.842-0.068c1.793-0.554,3.264-2.12,5.036-2.719c1.779-0.601,3.45-1.465,5.203-2.115
			c1.782-0.661,3.599-1.593,5.587-2.336c1.824-0.681,3.902-0.909,5.847-1.636c1.854-0.693,3.681-1.594,5.602-2.307
			c1.879-0.698,3.657-1.74,5.558-2.439c1.902-0.7,3.775-1.494,5.66-2.177c1.929-0.699,4.037-0.844,5.905-1.506
			c1.96-0.695,4.022-0.942,5.866-1.573c2.007-0.688,3.725-1.962,5.534-2.547c1.943-0.628,4.065-0.406,5.829-1.02
			c1.917-0.667,3.914-0.887,5.676-1.542c1.882-0.7,3.528-1.854,5.303-2.546c1.838-0.717,3.562-1.631,5.363-2.346
			c1.798-0.714,3.591-1.441,5.43-2.161c1.769-0.692,3.434-1.764,5.314-2.467c1.758-0.658,3.453-1.7,5.368-2.374
			c1.761-0.619,3.594-1.311,5.533-1.947c1.985-0.651,4.175-0.56,6.05-1.307c1.927-0.768,3.886-1.415,5.733-2.262
			c1.874-0.859,4.024-1.161,5.85-2.078c1.831-0.919,2.809-3.494,4.628-4.447c1.806-0.946,4.267-0.658,6.098-1.614
			c1.799-0.939,3.719-1.654,5.577-2.58c1.686-0.841,2.983-2.483,4.701-3.244c1.728-0.766,3.816-0.742,5.509-1.538
			c1.714-0.806,3.197-2.109,4.807-3.06c1.62-0.958,2.67-2.649,4.114-3.871c1.406-1.189,3.604-1.676,4.776-3.226
			c1.31-1.732,1.731-3.972,2.749-5.683c1.111-1.868,1.632-3.846,2.393-5.688c0.826-1.997,2.03-3.717,2.445-5.682
			c0.44-2.083,1.559-4.136,1.535-6.18c-0.025-2.078-0.239-4.338-0.744-6.374c-0.488-1.969-2.888-3.301-3.826-5.228
			c-0.875-1.797-1.183-3.932-2.45-5.691c-1.163-1.615-2.24-3.434-3.734-5.015c-1.211-1.282-2.962-2.419-4.678-3.806
			c-1.483-1.199-2.619-3.103-4.312-4.299c-1.626-1.149-4.195-0.97-5.873-2.048c-1.743-1.12-2.7-3.438-4.346-4.408
			c-1.903-1.121-4.443-0.753-5.993-1.566c-2.063-1.084-3.687-2.272-5.319-3.154c-1.855-1.002-3.522-1.893-5.461-2.728
			c-1.694-0.73-3.199-2.34-5.444-3.015C211.595,218.807,209.54,218.623,207.252,218.102z"/>
		<path d="M205.183,221.474c-2.158-0.475-4.766,0.538-7.149,0.288c-2.288-0.24-4.818,1.616-7.113,1.401
			c-2.382-0.223-4.742-1.355-6.916-1.746c-2.533-0.457-4.98-1.583-7.608-1.929c-2.592-0.341-5.233,0.305-7.84,0.139
			c-2.644-0.169-5.198-2.218-7.777-2.137c-2.32,0.073-4.754-0.86-7.133-0.715c-2.327,0.142-4.697,0.582-7.061,0.794
			c-2.332,0.209-4.422,2.925-6.77,3.201c-2.334,0.274-4.512,1.443-6.843,1.782c-2.334,0.34-4.802-0.436-7.115-0.031
			c-2.332,0.409-4.944-0.713-7.234-0.237c-2.326,0.483-4.448,1.828-6.712,2.379c-2.317,0.564-4.105,2.87-6.335,3.506
			c-2.223,0.633-4.579,0.674-6.832,1.464c-2.188,0.768-5-0.058-7.202,0.849c-2.15,0.885-4.983,0.445-7.131,1.452
			c-2.111,0.99-4.317,2.049-6.413,3.149c-2.07,1.086-1.983,6.103-4.026,7.288c-2.027,1.176-6.137-1.078-8.125,0.186
			c-1.982,1.261-2.419,4.879-4.349,6.22c-1.934,1.344-5.79,0.079-7.66,1.494c-1.882,1.425-0.875,6.491-2.679,7.981
			c-1.825,1.506-4.268,2.155-6,3.719c-1.761,1.589-3.021,3.576-4.673,5.216c-1.688,1.676-6.255,0.58-7.815,2.299
			c-1.603,1.767-3.023,3.812-4.475,5.613c-1.502,1.863-2.453,4.231-3.776,6.12c-1.317,1.881-2.278,4.183-3.701,6.259
			c-1.328,1.938-3.561,3.408-4.901,5.481c-1.295,2.004-0.242,5.524-1.475,7.622c-1.224,2.081-1.781,4.455-2.877,6.599
			c-1.11,2.173-3.607,3.622-4.514,5.827c-0.936,2.276-1.837,4.54-2.479,6.816c-0.671,2.381,1.169,5.036,0.908,7.378
			c-0.273,2.449-2.668,4.641-2.392,7.004c0.292,2.505,0.373,5.189,1.367,7.39c1.005,2.224,4.748,2.516,6.379,4.395
			c1.568,1.807,2.565,3.732,4.628,5.188c1.944,1.371,2.755,4.904,5.067,5.936c2.174,0.97,4.96,0.841,7.402,1.489
			c2.309,0.613,4.854,0.303,7.353,0.608c2.38,0.291,4.768,0.05,7.278,0.045c2.405-0.005,5.008,2.015,7.494,1.724
			c2.603-0.305,4.82-3.575,7.351-3.858c2.583-0.289,5.492,2.422,8.039,2.1c2.554-0.323,4.966-1.777,7.525-2.19
			c2.516-0.406,4.555-3.196,7.116-3.744c2.09-0.446,4.23-0.508,6.319-0.999c2.083-0.49,4.42,0.149,6.494-0.391
			c2.074-0.539,4.498,0.192,6.555-0.401c2.062-0.594,4.533,0.022,6.568-0.632c2.045-0.657,2.925-4.751,4.936-5.472
			c1.933-0.693,4.091-1.216,6.273-2.005c1.989-0.719,4.401-0.537,6.526-1.303c2.028-0.732,4.55-0.229,6.641-0.978
			c2.063-0.739,3.027-4.622,5.093-5.351c2.097-0.741,4.878,0.496,6.92-0.209c2.137-0.738,3.75-2.891,5.759-3.56
			c2.199-0.733,4.364-1.325,6.324-1.938c2.508-0.785,5.559,0.676,7.769-0.086c2.456-0.846,5.135-0.724,7.363-1.553
			c2.369-0.882,4.835-1.328,7.118-2.206c2.279-0.876,4.083-2.971,6.454-3.858c2.221-0.831,3.876-3.461,6.328-4.313
			c2.207-0.768,4.434-1.967,6.94-2.762c2.277-0.723,5.707,1.884,7.837,1.036c2.199-0.875,3.423-4.058,5.524-5.03
			c2.128-0.984,4.185-2.059,6.272-3.104c2.079-1.041,5.176-0.08,7.274-1.143c2.058-1.044,3.111-4.136,5.245-5.165
			c2.007-0.968,5.055,0.439,7.097-0.435c2.062-0.882,3.33-3.61,5.303-4.596c2.007-1.002,4.213-1.768,5.997-3.087
			c1.76-1.3,1.93-4.127,3.346-5.938c1.433-1.832,2.265-3.684,3.331-5.491c1.183-2.004,4.455-2.796,5.186-4.767
			c0.802-2.16,0.413-4.605,0.671-6.724c0.271-2.226,1.626-4.6,1.295-6.777c-0.326-2.139-1.071-4.549-1.98-6.637
			c-0.843-1.937-1.185-4.696-2.531-6.586c-1.217-1.708-5.103-1.483-6.731-3.151c-1.418-1.454-2.11-4.378-4.218-5.959
			c-1.813-1.361-3.421-3.438-5.45-4.756c-2.024-1.315-4.371-2.26-6.338-3.406c-2.271-1.323-4.189-3.107-5.996-4.024
			c-2.721-1.382-5.573-1.112-7.669-2.161c-2.199-1.101-4.881-0.695-7.709-1.617C210.045,225.075,208.229,222.146,205.183,221.474z"
			/>
		<circle cx="146.489" cy="307.638" r="4.682"/>
		<circle cx="33.021" cy="324.273" r="3.108"/>
		<circle cx="130.847" cy="251.313" r="2.781"/>
		<circle cx="77.353" cy="260.638" r="1.963"/>
		<circle cx="219.511" cy="245.423" r="3.108"/>
		<circle cx="236.36" cy="280.922" r="1.309"/>
		<circle cx="77.353" cy="339.487" r="1.963"/>
		<path d="M57.722,288.12c-0.094,3.145,0.162,4.537,3.59,4.914c2.029,0.223,5.28-0.398,5.194-2.903
			c-0.315-0.08-0.63,0.029-0.931-0.048"/>
		<path d="M120.868,275.032c0.829,3.149,0.067,7.246-2.29,9.487"/>
		<path d="M99.274,251.476c0.258,1.825,1.487,3.168,3.271,3.599"/>
		<path d="M168.962,234.79c1.88,1.676,5.005,5.351,2.945,7.852"/>
		<path d="M169.944,276.015c-1.609,4.1,1.129,11.121,5.89,11.777"/>
		<path d="M205.279,280.594c-1.385,2.402-1.276,9.968,2.29,10.141"/>
		<path d="M195.136,256.711c-0.923,2.02,0.69,3.964,2.618,4.58"/>
		<path d="M222.619,261.618c-0.295,2.589,1.832,4.517,4.254,4.908"/>
		<path d="M241.924,259.002c0.919,1.651,3.846,4.743,1.962,6.217"/>
		<path d="M200.7,227.266c1.349,0.345,11.326,1.003,8.506,4.58"/>
		<path d="M94.695,319.856c-2.267,5.033,3.1,6.883,7.197,5.235"/>
		<path d="M44.963,344.72c0.117,1.971,1.884,3.624,3.925,3.599"/>
		<path d="M48.234,318.875c0.11,2.602,2.422,5.12,4.907,5.562"/>
		<path d="M29.913,294.338c-0.936,1.426-1.623,2.956-2.059,4.586c0.903,1.085,2.008,2.168,3.367,2.609"/>
		<path d="M13.554,322.8c-0.435,2.567-1.572,5.853,0.329,8.18"/>
		<path d="M57.068,261.947c-2.602,1.398-3.188,6.283-2.944,9.158"/>
		<path d="M107.453,233.482c1.94-0.686,11.283-1.881,10.47,0.981"/>
		<path d="M150.314,224.32c2.315,0.139,8.102-0.473,7.852,3.272"/>
		<path d="M150.641,272.743c-1.595,2.53-0.602,7.931,3.271,7.525"/>
		<path d="M123.157,324.764c0.297,3.004,7.164,3.977,8.18,1.308"/>
		<path d="M85.86,286.484c-0.579,4.187,3.615,7.261,6.87,9.162"/>
		<path d="M179.759,303.17c1.94,1.018,3.886,5.866,0.654,6.215"/>
		<path d="M157.511,248.204c3.113-1.337,7.187,0.981,6.543,4.582"/>
		<path opacity="0.1" d="M200.673,323.077c12.557-4.182,22.665-10.471,34.182-16.299c8.718-4.412,18.284-8.101,24.356-16.25
			c12.411-16.645,10.997-32.398-2.407-46.799c-5.647-6.069-16.925-14.945-24.179-18.808c-8.231-4.385-11.307-6.907-23.269-9.675
			c-0.588-0.136-1.202-0.246-1.812-0.361c-0.823-0.406-1.768-0.66-3.007-0.698c-3.572-0.11-4.122-0.414-7.438-1.891
			c-3.129-1.394-6.275-0.641-9.485-1.637c-1.1-0.341-2.328-1.493-3.36-2.033l-74.975,147.296
			c13.319-5.005,32.983-11.591,46.429-16.004C173.382,334.121,182.91,328.991,200.673,323.077z"/>
		<path opacity="0.2" d="M237.102,269.65c-15.696-3.538-31.557-6.235-47.423-8.932c-4.813-0.817-9.63-1.61-14.45-2.366
			c-10.233-1.071-20.467-2.138-30.7-3.212c-11.423-0.132-22.841,0.212-34.238,1.132c-6.802,1.192-13.613,2.319-20.454,3.233
			c-4.421,2.471-8.848,4.893-13.161,7.347c-7.004,3.983-14.033,7.987-21.29,11.497c-4.642,2.246-9.497,4.448-13.962,2.572
			c-2.217,3.005-3.934,6.383-3.142,10.237c0.609,2.958,1.74,6.625,0.988,9.651c-0.476,1.914-1.225,3.682-1.915,5.477
			c0.361,0.773,0.85,1.561,1.056,2.316c0.581,2.121,0.845,4.207,1.129,6.376c0.349,2.655,1.168,4.075,2.595,6.483
			c3.107,5.24,5.528,12.49,10.313,16.516c2.567,2.161,5.985,3.464,8.345,5.79c2.375,2.345,4.265,4.727,7.311,6.173
			c6.691,3.176,11.781,7.798,16.04,13.75c-0.546,12.53-11.082,17.508,26.109,4.155c13.397-4.81,31.93-23.488,45.454-27.927
			c17.675-5.799,27.203-10.928,44.965-16.842c12.557-4.182,22.665-10.471,34.182-16.299c8.718-4.412,18.284-8.101,24.356-16.25
			c3.751-5.031,6.23-9.978,7.506-14.832C256.792,273.965,246.926,271.863,237.102,269.65z"/>
	</g>
	<g>
		<g>
			<path fill="#824A25" d="M204.349,221.34c-6.841-1.583-15.262-1.554-22.182-2.863c-8.115-1.535-16.881-2.69-25.142-2.419
				c-19.454,0.642-41.205,3.784-59.802,9.338c-31.692,9.467-73.893,36.69-92.262,64.213c-10.707,16.04-18.538,29.245-16.043,57.223
				c1.786,20.03,28.321,32.907,46.895,33.818c11.379,0.556,23.522-4.499,34.579-6.979c11.204-2.511,22.459-5.616,33.191-9.655
				c13.321-5.014,26.871-9.439,40.396-13.876c15.341-5.036,31.397-14.215,51.685-20.969c12.558-4.181,22.441-9.516,33.958-15.343
				c8.718-4.413,19.389-8.967,27.198-15.474c10.436-8.695,9.162-39.09,4.169-45.941c-4.883-6.7-26.118-17.533-33.373-21.397
				C219.387,226.631,216.309,224.109,204.349,221.34z"/>
			<path fill="#663D21" d="M229.624,313.828c8.718-4.413,19.389-8.967,27.198-15.474c10.436-8.695,9.162-39.09,4.169-45.941
				c-3.737-5.127-17.046-12.672-26.343-17.666L35.639,380.638c0.058,0.002,0.118,0.009,0.175,0.011
				c11.379,0.556,23.522-4.499,34.579-6.979c11.204-2.511,22.459-5.616,33.191-9.655c13.321-5.014,26.871-9.439,40.396-13.876
				c15.341-5.036,31.397-14.215,51.685-20.969C208.223,324.99,218.106,319.655,229.624,313.828z"/>
			<path fill="#A36634" d="M26.948,309.038c-0.032-0.835-0.799-2.209-0.704-2.915c0.365-2.727,5.275-5.49,7.3-7.011
				c11.232-8.433,22.536-16.926,33.959-25.097c16.592-11.87,37.047-19.157,56.165-25.811c13.574-4.723,26.995-8.1,41.063-10.877
				c13.629-2.69,33.253-6.936,43.565-17.626c2.903-3.005,1.896-3.638-0.767-5.783c-2.84-2.284-3.969-4.221-7.596-4.333
				c-3.572-0.11-4.122-0.414-7.438-1.891c-3.129-1.394-6.275-0.641-9.485-1.637c-1.335-0.413-2.864-2.036-3.993-2.288
				c-1.599-0.357-2.194,0.353-3.942,0.826c-3.233,0.875-7.281,0.581-10.643,0.726c-3.245,0.14-6.501,0.475-9.633,0.002
				c-3.073-0.465-5.664-1.657-8.761-0.253c-2.47,1.12-4.355,5.112-7.525,3.786c-1.626-0.682-1.352-2.498-2.946-3.14
				c-1.298-0.522-2.741,0.49-3.912,0.833c-4.222,1.245-5.368-0.052-9.173-0.262c-3.252-0.178-6.063,1.952-9.489,1.661
				c-3.133-0.265-4.554-1.084-7.526,0.973c-2.556,1.771-3.779,4.367-6.869,5.254c-2.794,0.799-5.122,0.594-7.844,1.7
				c-5.584,2.265-11.196,2.741-16.694,5.798c-5.098,2.835-9.889,6.851-15.05,9.414c-3.553,1.764-5.451,2.321-8.49,4.999
				c-2.808,2.475-5.807,4.362-8.849,6.615c-5.45,4.034-10.47,7.773-13.988,13.661c-1.811,3.028-3.906,4.946-6.234,7.526
				c-2.152,2.384-3.251,5.5-5.216,7.939c-2.102,2.611-5.14,1.899-7.281,3.823c-1.913,1.722-2.766,6.144-4.015,8.522
				c-2.659,5.06-5.733,9.44-7.755,14.722c-1.176,3.074-3.341,4.294-3.935,7.526c-0.505,2.746-1.082,5.087-1.715,7.779
				c-0.932,3.951-0.702,8.126-1.283,12.135c-0.382,2.639-1.124,5.212-0.827,7.899c0.717,6.53,5.299,13.107,9.674,17.764
				c10.114,10.771,25.245,16.391,39.931,14.584c11.31-1.389,21.16-3.036,32.219-5.516c11.204-2.512,22.459-5.616,33.191-9.653
				c13.32-5.017,33.143-11.655,46.667-16.093c17.675-5.799,27.203-10.928,44.965-16.842c12.557-4.182,22.665-10.471,34.182-16.299
				c8.718-4.412,18.284-8.101,24.356-16.25c12.411-16.645,10.997-32.398-2.407-46.799c-5.647-6.069-16.925-14.945-24.179-18.808
				c-8.231-4.385-11.307-6.907-23.269-9.675c-6.84-1.582-15.261-1.554-22.18-2.864c-8.118-1.536-16.882-2.689-25.143-2.418
				c-19.454,0.641-41.205,3.783-59.802,9.337c-31.691,9.467-66.971,35.106-85.339,62.628
				c-10.707,16.043-25.715,33.941-23.527,53.608c0.025,0.244,0.055,0.485,0.09,0.729"/>
			<g>
				<path fill="#C9A681" d="M202.651,213.5c-1.709-0.39-3.612,0.031-5.473-0.204c-1.78-0.224-3.528-0.991-5.357-1.158
					c-1.824-0.166-3.564-1.141-5.348-1.333c-1.863-0.201-3.801,0.521-5.523,0.201c-1.995-0.372-3.968-1.078-6.025-1.387
					c-2.025-0.305-4.144,0.061-6.195-0.152c-2.053-0.213-4.055-0.953-6.1-1.044c-2.076-0.092-4.146-0.129-6.178-0.063
					c-1.948,0.063-3.867,1.122-5.856,1.236c-1.953,0.112-3.928-0.076-5.91,0.084c-1.956,0.158-3.996-0.493-5.97-0.288
					c-1.956,0.203-3.801,1.406-5.764,1.656c-1.956,0.248-4.121-0.976-6.074-0.682c-1.954,0.294-3.875,0.889-5.817,1.229
					c-1.951,0.341-3.918,0.642-5.846,1.029c-1.946,0.391-3.858,0.966-5.77,1.404c-1.939,0.444-3.742,1.41-5.635,1.901
					c-1.931,0.501-4.006,0.435-5.877,0.986c-1.832,0.539-3.814,0.818-5.667,1.464c-1.807,0.63-3.28,2.272-5.099,2.997
					c-1.781,0.71-3.275,2.102-5.059,2.899c-1.753,0.783-3.935,0.667-5.685,1.529c-1.725,0.85-3.165,2.278-4.88,3.201
					c-1.697,0.912-3.663,1.358-5.344,2.336c-1.668,0.971-3.75,1.306-5.396,2.338c-1.637,1.027-2.423,3.384-4.033,4.466
					c-1.606,1.08-3.293,2.02-4.865,3.151c-1.573,1.133-3.828,1.358-5.361,2.538c-1.538,1.184-2.858,2.668-4.349,3.895
					c-1.501,1.235-2.387,3.182-3.835,4.457c-1.461,1.287-2.914,2.545-4.314,3.868c-1.417,1.339-2.455,3.012-3.803,4.383
					c-1.369,1.392-3.294,2.212-4.585,3.633c-1.315,1.448-3.233,2.368-4.46,3.841c-1.254,1.505-2.141,3.307-3.295,4.832
					c-1.184,1.565-2.624,2.95-3.694,4.531c-1.087,1.606-1.299,3.885-2.457,5.576c-1.109,1.618-3.147,2.657-4.278,4.343
					c-1.102,1.643-1.798,3.593-2.881,5.291c-1.071,1.679-2.404,3.226-3.419,4.951c-1.017,1.727-1.455,3.786-2.378,5.55
					c-0.933,1.784-2.107,3.445-2.905,5.259c-0.813,1.85-1.859,3.628-2.49,5.499c-0.647,1.918-1.067,3.934-1.478,5.864
					c-0.42,1.975-0.685,4.014-0.811,5.991c-0.127,1.999,0.242,4.024,0.467,6.013c0.217,1.925,0.709,3.768,1.3,5.557
					c0.599,1.814,1.501,3.476,2.451,5.131c0.941,1.64,1.176,3.895,2.428,5.359c1.221,1.427,3.602,1.787,5.087,3.028
					c1.437,1.201,2.685,2.674,4.342,3.684c1.598,0.974,2.909,2.723,4.686,3.504c1.713,0.753,4.022,0.087,5.879,0.647
					c1.794,0.541,3.442,1.816,5.349,2.164c1.844,0.337,3.761,0.778,5.692,0.924c1.871,0.142,3.833,0.134,5.769,0.087
					c1.876-0.046,3.847-0.023,5.77-0.255c2.17-0.263,4.247-0.928,6.367-1.107c2.165-0.183,4.347,0.193,6.48,0.033
					c2.154-0.161,4.24-1.072,6.384-1.276c2.134-0.203,4.17-1.123,6.316-1.435c2.104-0.306,4.194-0.557,6.33-1.029
					c1.825-0.403,3.83-0.035,5.655-0.472c1.82-0.435,3.683-0.735,5.499-1.206c1.813-0.471,3.31-2.096,5.113-2.606
					c1.804-0.51,4.053,0.484,5.842-0.068c1.793-0.554,3.264-2.12,5.036-2.719c1.779-0.601,3.45-1.465,5.203-2.115
					c1.782-0.661,3.599-1.593,5.587-2.336c1.824-0.681,3.902-0.909,5.847-1.636c1.854-0.693,3.681-1.594,5.602-2.307
					c1.879-0.698,3.657-1.74,5.558-2.439c1.902-0.7,3.775-1.494,5.66-2.177c1.929-0.699,4.037-0.844,5.905-1.506
					c1.96-0.695,4.022-0.942,5.866-1.573c2.007-0.688,3.725-1.962,5.534-2.547c1.943-0.628,4.066-0.406,5.829-1.02
					c1.917-0.667,3.914-0.887,5.676-1.542c1.882-0.7,3.528-1.854,5.303-2.546c1.838-0.717,3.562-1.631,5.363-2.346
					c1.798-0.714,3.591-1.441,5.43-2.161c1.769-0.692,3.434-1.764,5.314-2.467c1.758-0.658,3.453-1.7,5.368-2.374
					c1.761-0.619,3.594-1.311,5.533-1.947c1.985-0.651,4.175-0.56,6.05-1.307c1.927-0.768,3.887-1.415,5.733-2.262
					c1.874-0.859,4.024-1.161,5.85-2.078c1.831-0.919,2.809-3.494,4.628-4.447c1.806-0.946,4.267-0.658,6.098-1.614
					c1.799-0.939,3.719-1.654,5.577-2.58c1.686-0.841,2.983-2.483,4.701-3.244c1.728-0.766,3.816-0.742,5.509-1.538
					c1.714-0.806,3.197-2.109,4.807-3.06c1.62-0.958,2.67-2.649,4.114-3.871c1.406-1.189,3.604-1.676,4.776-3.226
					c1.31-1.732,1.731-3.972,2.749-5.683c1.111-1.868,1.632-3.846,2.393-5.688c0.826-1.998,2.03-3.717,2.445-5.682
					c0.44-2.083,1.559-4.136,1.535-6.18c-0.025-2.078-0.239-4.338-0.744-6.374c-0.488-1.969-2.888-3.301-3.826-5.228
					c-0.875-1.797-1.183-3.932-2.45-5.691c-1.163-1.614-2.24-3.434-3.734-5.015c-1.211-1.282-2.962-2.419-4.678-3.806
					c-1.483-1.199-2.619-3.103-4.312-4.299c-1.626-1.149-4.195-0.97-5.873-2.048c-1.743-1.12-2.7-3.438-4.346-4.408
					c-1.903-1.121-4.443-0.753-5.993-1.566c-2.063-1.084-3.687-2.272-5.319-3.154c-1.855-1.002-3.522-1.893-5.461-2.728
					c-1.694-0.73-3.199-2.34-5.444-3.015C206.994,214.206,204.938,214.022,202.651,213.5z"/>
			</g>
			<g>
				<path fill="#D8BA95" d="M200.581,216.872c-2.158-0.475-4.766,0.538-7.149,0.288c-2.288-0.24-4.818,1.616-7.113,1.401
					c-2.382-0.223-4.742-1.355-6.916-1.746c-2.533-0.457-4.98-1.583-7.608-1.929c-2.592-0.341-5.233,0.305-7.84,0.139
					c-2.644-0.169-5.198-2.218-7.777-2.137c-2.32,0.073-4.754-0.86-7.133-0.715c-2.327,0.142-4.697,0.582-7.061,0.794
					c-2.332,0.209-4.422,2.925-6.77,3.201c-2.334,0.274-4.512,1.443-6.843,1.782c-2.334,0.34-4.802-0.436-7.115-0.031
					c-2.332,0.409-4.944-0.713-7.234-0.237c-2.326,0.483-4.448,1.828-6.712,2.379c-2.317,0.564-4.105,2.87-6.335,3.506
					c-2.223,0.633-4.579,0.674-6.832,1.464c-2.188,0.768-5-0.058-7.202,0.849c-2.15,0.885-4.983,0.444-7.131,1.452
					c-2.111,0.99-4.317,2.049-6.413,3.149c-2.07,1.086-1.983,6.103-4.026,7.288c-2.027,1.176-6.137-1.078-8.125,0.186
					c-1.982,1.261-2.419,4.879-4.349,6.22c-1.934,1.344-5.79,0.079-7.66,1.494c-1.882,1.425-0.875,6.491-2.679,7.981
					c-1.825,1.506-4.268,2.155-6,3.719c-1.761,1.59-3.021,3.576-4.673,5.216c-1.688,1.676-6.255,0.58-7.815,2.299
					c-1.603,1.767-3.023,3.812-4.475,5.613c-1.502,1.863-2.453,4.231-3.776,6.12c-1.317,1.881-2.278,4.183-3.701,6.259
					c-1.328,1.938-3.561,3.408-4.901,5.481c-1.295,2.004-0.242,5.524-1.475,7.622c-1.224,2.081-1.781,4.455-2.877,6.599
					c-1.11,2.173-3.607,3.622-4.514,5.827c-0.936,2.276-1.837,4.54-2.479,6.816c-0.671,2.381,1.169,5.036,0.908,7.378
					c-0.273,2.449-2.668,4.641-2.392,7.004c0.292,2.505,0.373,5.189,1.367,7.39c1.005,2.224,4.748,2.516,6.379,4.395
					c1.568,1.807,2.565,3.732,4.628,5.188c1.944,1.371,2.755,4.904,5.067,5.936c2.174,0.971,4.96,0.841,7.402,1.489
					c2.309,0.613,4.854,0.303,7.353,0.608c2.38,0.291,4.768,0.05,7.278,0.045c2.405-0.005,5.008,2.015,7.494,1.724
					c2.603-0.305,4.82-3.575,7.351-3.858c2.583-0.289,5.492,2.422,8.039,2.1c2.554-0.323,4.966-1.777,7.525-2.19
					c2.516-0.406,4.555-3.196,7.116-3.744c2.09-0.446,4.23-0.508,6.319-0.999c2.083-0.49,4.42,0.149,6.494-0.39
					c2.074-0.539,4.498,0.192,6.555-0.401c2.062-0.594,4.533,0.022,6.568-0.632c2.045-0.657,2.925-4.751,4.936-5.472
					c1.933-0.693,4.091-1.216,6.273-2.005c1.989-0.719,4.401-0.537,6.526-1.303c2.028-0.732,4.55-0.229,6.641-0.978
					c2.063-0.739,3.027-4.622,5.093-5.351c2.097-0.741,4.878,0.496,6.92-0.209c2.137-0.738,3.75-2.891,5.759-3.56
					c2.199-0.733,4.364-1.325,6.324-1.938c2.508-0.785,5.559,0.676,7.769-0.086c2.456-0.846,5.135-0.724,7.363-1.553
					c2.369-0.882,4.835-1.328,7.118-2.206c2.279-0.876,4.083-2.971,6.454-3.858c2.221-0.831,3.876-3.461,6.328-4.313
					c2.207-0.768,4.434-1.967,6.94-2.762c2.277-0.723,5.707,1.884,7.837,1.036c2.199-0.875,3.423-4.058,5.523-5.03
					c2.128-0.984,4.185-2.059,6.272-3.104c2.079-1.041,5.176-0.08,7.274-1.143c2.058-1.044,3.111-4.136,5.245-5.165
					c2.007-0.968,5.055,0.439,7.097-0.435c2.062-0.882,3.33-3.61,5.303-4.596c2.007-1.002,4.213-1.768,5.997-3.087
					c1.76-1.3,1.93-4.127,3.346-5.938c1.433-1.832,2.265-3.684,3.331-5.491c1.183-2.004,4.455-2.796,5.186-4.767
					c0.802-2.16,0.413-4.605,0.671-6.724c0.271-2.226,1.626-4.6,1.295-6.777c-0.326-2.139-1.071-4.549-1.98-6.637
					c-0.843-1.937-1.185-4.696-2.531-6.586c-1.217-1.708-5.103-1.483-6.731-3.151c-1.418-1.454-2.11-4.378-4.218-5.959
					c-1.813-1.361-3.421-3.438-5.45-4.756c-2.024-1.315-4.371-2.26-6.338-3.406c-2.271-1.323-4.189-3.107-5.996-4.024
					c-2.721-1.382-5.573-1.112-7.67-2.161c-2.199-1.101-4.881-0.695-7.709-1.617C205.444,220.473,203.627,217.544,200.581,216.872z"
					/>
			</g>
			<g>
				<circle fill="#AF855F" cx="141.887" cy="303.036" r="4.682"/>
				<circle fill="#AF855F" cx="28.42" cy="319.671" r="3.108"/>
				<circle fill="#AF855F" cx="126.245" cy="246.711" r="2.781"/>
				<circle fill="#AF855F" cx="72.751" cy="256.037" r="1.963"/>
				<circle fill="#AF855F" cx="214.909" cy="240.822" r="3.108"/>
				<circle fill="#AF855F" cx="231.759" cy="276.32" r="1.309"/>
				<circle fill="#AF855F" cx="72.751" cy="334.885" r="1.963"/>
				<path fill="#AF855F" d="M53.121,283.518c-0.094,3.145,0.162,4.537,3.59,4.915c2.029,0.223,5.28-0.398,5.194-2.903
					c-0.316-0.08-0.63,0.029-0.931-0.048"/>
				<path fill="#AF855F" d="M116.266,270.431c0.829,3.149,0.067,7.246-2.29,9.487"/>
				<path fill="#AF855F" d="M94.672,246.874c0.258,1.825,1.487,3.168,3.271,3.599"/>
				<path fill="#AF855F" d="M164.361,230.188c1.88,1.676,5.005,5.351,2.945,7.852"/>
				<path fill="#AF855F" d="M165.343,271.414c-1.609,4.1,1.129,11.121,5.89,11.777"/>
				<path fill="#AF855F" d="M200.677,275.993c-1.385,2.402-1.276,9.968,2.29,10.141"/>
				<path fill="#AF855F" d="M190.534,252.109c-0.923,2.02,0.69,3.964,2.618,4.58"/>
				<path fill="#AF855F" d="M218.017,257.016c-0.295,2.589,1.832,4.517,4.254,4.908"/>
				<path fill="#AF855F" d="M237.322,254.4c0.919,1.651,3.846,4.743,1.962,6.217"/>
				<path fill="#AF855F" d="M196.098,222.664c1.349,0.345,11.326,1.003,8.506,4.58"/>
				<path fill="#AF855F" d="M90.093,315.254c-2.267,5.033,3.1,6.883,7.197,5.235"/>
				<path fill="#AF855F" d="M40.361,340.118c0.117,1.971,1.884,3.624,3.925,3.599"/>
				<path fill="#AF855F" d="M43.633,314.273c0.11,2.602,2.422,5.12,4.907,5.562"/>
				<path fill="#AF855F" d="M25.311,289.736c-0.936,1.426-1.623,2.956-2.059,4.586c0.903,1.085,2.008,2.168,3.367,2.609"/>
				<path fill="#AF855F" d="M8.952,318.198c-0.435,2.567-1.572,5.853,0.329,8.18"/>
				<path fill="#AF855F" d="M52.466,257.345c-2.602,1.398-3.188,6.283-2.944,9.158"/>
				<path fill="#AF855F" d="M102.852,228.88c1.94-0.686,11.283-1.881,10.47,0.981"/>
				<path fill="#AF855F" d="M145.712,219.719c2.315,0.139,8.102-0.473,7.852,3.272"/>
				<path fill="#AF855F" d="M146.039,268.142c-1.595,2.53-0.602,7.931,3.271,7.525"/>
				<path fill="#AF855F" d="M118.555,320.162c0.297,3.004,7.164,3.977,8.18,1.308"/>
				<path fill="#AF855F" d="M81.259,281.882c-0.579,4.187,3.615,7.261,6.87,9.162"/>
				<path fill="#AF855F" d="M175.157,298.569c1.94,1.018,3.886,5.866,0.654,6.215"/>
				<path fill="#AF855F" d="M152.91,243.602c3.113-1.337,7.187,0.981,6.543,4.582"/>
			</g>
			<path opacity="0.1" fill="#936848" d="M196.071,318.476c12.557-4.182,22.665-10.471,34.182-16.299
				c8.718-4.412,18.284-8.101,24.356-16.25c12.411-16.645,10.997-32.398-2.407-46.799c-5.647-6.069-16.925-14.945-24.179-18.808
				c-8.231-4.385-11.307-6.907-23.269-9.675c-0.588-0.136-1.202-0.246-1.812-0.361c-0.823-0.406-1.768-0.66-3.007-0.698
				c-3.572-0.11-4.122-0.414-7.438-1.891c-3.129-1.394-6.275-0.641-9.485-1.637c-1.1-0.341-2.328-1.493-3.36-2.033l-74.975,147.296
				c13.319-5.005,32.983-11.591,46.429-16.004C168.781,329.519,178.308,324.39,196.071,318.476z"/>
			<path opacity="0.2" fill="#936848" d="M232.5,265.048c-15.696-3.538-31.557-6.235-47.423-8.932
				c-4.813-0.817-9.63-1.61-14.45-2.366c-10.233-1.071-20.467-2.138-30.7-3.212c-11.423-0.132-22.841,0.212-34.238,1.132
				c-6.802,1.192-13.613,2.319-20.454,3.233c-4.421,2.471-8.848,4.893-13.161,7.347c-7.004,3.983-14.033,7.987-21.29,11.497
				c-4.642,2.246-9.497,4.448-13.962,2.572c-2.217,3.005-3.934,6.383-3.142,10.237c0.609,2.958,1.74,6.625,0.988,9.651
				c-0.476,1.914-1.225,3.682-1.915,5.477c0.361,0.773,0.85,1.561,1.056,2.316c0.581,2.121,0.845,4.207,1.129,6.376
				c0.349,2.655,1.168,4.075,2.595,6.483c3.107,5.24,5.528,12.49,10.313,16.516c2.567,2.161,5.985,3.464,8.345,5.79
				c2.375,2.345,4.265,4.727,7.311,6.173c6.691,3.176,11.781,7.798,16.04,13.75c-0.546,12.53-11.082,17.508,26.109,4.155
				c13.397-4.81,31.93-23.488,45.454-27.927c17.675-5.799,27.203-10.928,44.965-16.842c12.557-4.182,22.665-10.471,34.182-16.299
				c8.718-4.412,18.284-8.101,24.356-16.25c3.751-5.031,6.23-9.978,7.506-14.832C252.19,269.363,242.324,267.262,232.5,265.048z"/>
		</g>
	</g>
</g>
<g>
	<g opacity="0.3">
		<path d="M306.048,280.281c-9.413-4.862-25.723-1.632-36.656-4.085c-11.075-2.484-22.551-4.543-34.129-5.693
			c-14.373-1.428-28.591-3.389-42.795-5.328c-16.109-2.2-35.286-1.563-56.656-4.399c-13.222-1.756-24.839-1.599-38.149-1.711
			c-10.071-0.084-21.902-0.822-32.435,1.029c-14.079,2.47-24.363,2.876-25.784,10.382c-7.616,40.249,7.036,45.972,10.962,51.712
			c4.457,6.516,5.599,9.616,14.202,16.371c4.922,3.862,12.148,7.128,17.298,10.816c2.706,1.937,4.973,4.043,7.301,6.051
			c4.254-1.256,8.588,0.22,10.198,3.386c0.651,1.282,1.239,2.59,1.701,3.92c9.054,3.653,19.798,7.189,30.683,10.139
			c0.536,0.009,1.063,0.052,1.572,0.143c4.2-1.547,9.365-0.216,10.94,2.972c5.137,1.163,10.163,2.15,14.9,2.911
			c3.135,0.501,6.399,0.922,9.763,1.26c1.929-0.39,3.854-0.201,5.497,0.472c4.834,0.35,9.839,0.543,14.952,0.571
			c0.615-0.479,1.225-0.965,1.82-1.47c4.013-3.403,10.036-1.879,12.554,1.102c0.017,0.006,0.043,0.013,0.067,0.02
			c8.521-0.45,17.159-1.337,25.613-2.67c1.921-0.356,3.843-0.729,5.755-1.148c0.468-0.612,0.976-1.216,1.562-1.803
			c1.911-1.912,5.206-3.71,8.183-3.314c1.91,0.256,4.154,0.488,6.578,0.644c1.466-0.494,2.921-1.011,4.365-1.556
			c2.028-0.761,3.981-0.907,5.75-0.566c1.452-0.495,2.88-1.015,4.286-1.545c0.459-0.237,0.919-0.459,1.39-0.657
			c5.447-5.578,14.215-10.241,22.22-10.262c11.917-6.685,14.298-14.346,24.685-28.515
			C320.843,320.447,321.413,288.217,306.048,280.281z"/>
		<path d="M189.413,381.2c0.615-0.479,1.225-0.965,1.82-1.47c4.013-3.403,10.036-1.879,12.554,1.102
			c0.017,0.006,0.043,0.013,0.067,0.02c8.521-0.45,17.159-1.337,25.613-2.67c1.921-0.356,3.843-0.729,5.755-1.148
			c0.468-0.612,0.976-1.216,1.562-1.803c1.911-1.912,5.206-3.71,8.183-3.314c1.91,0.256,4.154,0.488,6.578,0.644
			c1.466-0.494,2.921-1.011,4.365-1.556c2.028-0.761,3.981-0.907,5.75-0.566c1.452-0.495,2.88-1.015,4.286-1.545
			c0.459-0.237,0.919-0.459,1.39-0.657c5.447-5.578,14.215-10.241,22.22-10.262c11.917-6.685,20.023-12.836,30.411-27.004
			c6.604-9.013,8.42-44.776-13.918-50.691c-0.663-0.177-1.248-0.593-1.912-0.843L176.076,380.731
			C180.409,381.012,184.863,381.177,189.413,381.2z"/>
		<path d="M272.924,320.468c-0.468,0.642-0.624,1.977-1.123,2.471c-1.924,1.91-7.76,2.071-10.399,2.425
			c-14.602,1.963-29.304,3.945-43.916,5.635c-21.227,2.454-43.051-0.048-63.357-2.505c-14.412-1.745-27.9-4.444-41.589-7.849
			c-13.264-3.295-32.576-7.762-47.727-3.743c-4.261,1.13-3.774,2-2.762,4.655c1.078,2.83,0.9,4.727,3.941,6.23
			c2.991,1.477,3.282,1.919,5.249,4.326c1.854,2.271,4.994,2.934,7.153,4.936c0.9,0.831,1.246,2.651,2.063,3.282
			c1.161,0.893,2.092,0.593,3.866,0.918c3.284,0.604,6.577,2.405,9.541,3.609c2.861,1.162,5.847,2.181,8.249,3.762
			c2.357,1.548,3.872,3.458,7.353,3.612c2.779,0.119,6.751-2.148,8.684,0.085c0.986,1.149-0.327,2.409,0.663,3.517
			c0.801,0.9,2.636,0.701,3.84,0.898c4.353,0.713,4.568,2.134,7.701,3.78c2.678,1.405,6.345,0.897,9.108,2.456
			c2.522,1.421,3.257,2.593,7.017,2.205c3.237-0.338,5.818-1.81,8.99-1.272c2.864,0.488,4.736,1.552,7.72,1.782
			c6.122,0.474,11.211,2.312,17.726,2.154c6.042-0.144,12.52-1.295,18.456-1.209c4.083,0.058,6.04,0.383,10.224-0.447
			c3.867-0.768,7.552-1.017,11.49-1.528c7.05-0.908,13.559-1.762,20.055-4.817c3.343-1.574,6.269-2.199,9.789-3.231
			c3.253-0.954,6.034-2.872,9.162-3.941c3.343-1.143,5.524,0.577,8.493-0.036c2.658-0.546,6.003-3.543,8.479-4.846
			c5.269-2.772,10.49-4.867,15.345-8.056c2.824-1.853,5.4-1.925,7.82-4.128c2.057-1.868,3.935-3.407,6.072-5.186
			c3.134-2.609,5.404-5.842,8.272-8.633c1.888-1.836,4.048-3.485,5.379-5.622c3.248-5.197,3.214-11.937,2.223-17.152
			c-2.288-12.059-11.921-22.195-25.563-26.571c-10.507-3.37-19.916-5.975-30.85-8.427c-11.077-2.484-22.552-4.544-34.13-5.693
			c-14.371-1.43-35.271-4.171-49.475-6.113c-18.562-2.533-29.754-2.394-48.462-4.877c-13.223-1.755-25.597-0.97-38.905-1.079
			c-10.074-0.082-20.446-1.039-30.464,2.723c-20.471,7.681-28.575,20.093-25.615,36.167c1.246,6.774,5.653,17.859,9.579,23.601
			c4.456,6.514,5.598,9.615,14.203,16.369c4.92,3.864,12.148,7.128,17.297,10.817c6.043,4.324,12.864,8.616,20.097,11.641
			c17.037,7.113,37.517,13.241,56.728,16.323c32.733,5.249,78.101-0.276,110.107-13.822c18.654-7.893,42.088-15.508,51.85-31.167
			c0.117-0.196,0.235-0.387,0.351-0.583"/>
		<path d="M66.49,323.134c1.245,0.97,1.851,3.015,3.321,3.926c1.385,0.858,3.303,0.925,4.762,1.759
			c1.452,0.831,3.012,1.498,4.416,2.334c1.481,0.881,3.159,1.483,4.447,2.401c1.514,1.078,2.478,3.006,4.085,4.06
			c1.567,1.027,2.906,2.505,4.551,3.472c1.626,0.956,3.608,1.334,5.298,2.194c1.689,0.86,3.223,2.114,4.966,2.843
			c1.748,0.731,4.003,0.28,5.819,0.987c1.771,0.69,3.069,2.702,4.894,3.366c1.792,0.652,4.136-0.222,5.972,0.4
			c1.81,0.613,3.162,2.663,5.005,3.244c1.827,0.576,4.04-0.087,5.891,0.453c1.844,0.538,3.39,2.148,5.249,2.646
			c1.859,0.498,3.683,1.19,5.548,1.646c1.874,0.457,3.84,0.556,5.712,0.966c1.888,0.414,3.785,0.792,5.662,1.153
			c1.903,0.366,3.911,0.073,5.793,0.382c1.76,0.288,3.583,0.246,5.413,0.472c1.774,0.219,3.461,1.515,5.294,1.676
			c1.785,0.157,3.634-0.099,5.467,0.003c1.793,0.1,3.639-0.87,5.472-0.821c1.799,0.048,3.591,1.133,5.421,1.132
			c1.802-0.001,3.605-0.656,5.431-0.704c1.804-0.047,3.585-0.552,5.407-0.644c1.805-0.092,3.68,0.927,5.497,0.792
			c1.805-0.134,3.589-0.602,5.4-0.779c1.804-0.176,3.724,0.59,5.528,0.372c1.802-0.218,3.573-0.8,5.37-1.059
			c1.799-0.259,3.391-1.819,5.179-2.119c1.794-0.301,3.707,0.124,5.485-0.216c1.789-0.343,3.667-0.255,5.434-0.638
			c1.783-0.387,3.536-0.913,5.291-1.34c1.776-0.432,3.241-2.006,4.982-2.479c1.765-0.48,3.64-0.471,5.363-0.992
			c1.754-0.531,3.507-0.987,5.211-1.56c1.739-0.585,3.59-0.799,5.27-1.427c1.722-0.644,3.533-1.036,5.185-1.724
			c1.675-0.698,3.157-2,4.922-2.727c1.691-0.696,3.125-2.102,4.869-2.831c1.701-0.711,3.58-1.041,5.303-1.789
			c1.703-0.739,3.647-0.957,5.345-1.738c1.696-0.78,3.35-1.658,5.014-2.486c1.68-0.836,3.176-1.998,4.797-2.889
			c1.652-0.908,3.52-1.412,5.082-2.383c1.609-1.001,3.355-1.799,4.838-2.874c1.54-1.117,2.364-3.078,3.733-4.283
			c1.432-1.261,3.548-1.794,4.752-3.16c1.259-1.428,1.465-3.605,2.429-5.158c1.018-1.638,2.844-2.831,3.405-4.519
			c0.598-1.797,0.723-3.784,0.827-5.597c0.106-1.845,0.436-3.884,0.056-5.704c-0.37-1.773-2.002-3.255-2.809-4.965
			c-0.765-1.621-1.898-3.019-3.036-4.549c-1.066-1.434-2.251-2.75-3.627-4.075c-1.287-1.24-2.59-2.469-4.134-3.59
			c-1.448-1.052-2.843-2.248-4.506-3.177c-1.566-0.875-3.431-1.178-5.179-1.927c-1.653-0.709-3.034-2.241-4.84-2.824
			c-1.678-0.542-3.413-0.805-5.023-1.378c-1.651-0.588-3.499-0.584-5.112-1.182c-1.632-0.605-3.237-1.239-4.863-1.831
			c-1.623-0.591-3.221-1.21-4.873-1.762c-1.626-0.544-3.285-0.935-4.973-1.419c-1.637-0.47-3.284-0.835-5.009-1.227
			c-1.819-0.413-3.556-1.198-5.396-1.585c-1.828-0.385-3.448-1.845-5.293-2.2c-1.836-0.354-3.845,0.183-5.696-0.137
			c-1.844-0.319-3.591-1.274-5.446-1.556c-1.851-0.281-3.753-0.276-5.613-0.515c-1.858-0.239-3.773,0.003-5.637-0.19
			c-1.711-0.177-3.467-0.94-5.361-1.132c-1.747-0.178-3.56-0.373-5.42-0.562c-1.77-0.18-3.65,0.3-5.487,0.112
			c-1.789-0.183-3.564-0.726-5.383-0.916c-1.806-0.188-3.601-0.544-5.406-0.737c-1.821-0.196-3.708,0.291-5.496,0.091
			c-1.839-0.205-3.691-0.097-5.459-0.305c-1.858-0.219-3.611-0.946-5.351-1.166c-1.889-0.239-3.752-0.119-5.452-0.358
			c-1.81-0.254-3.374-1.796-5.054-2.003c-1.806-0.222-3.705,0.981-5.396,0.8c-1.797-0.191-3.452-1.189-5.161-1.348
			c-1.778-0.165-3.568,0.24-5.3,0.093c-1.752-0.149-3.483-0.391-5.238-0.539c-1.726-0.146-3.487-0.1-5.264-0.263
			c-1.705-0.156-3.335-1.448-5.131-1.635c-1.69-0.176-3.558,0.775-5.364,0.559c-1.68-0.201-3.44-0.337-5.25-0.584
			c-1.809-0.247-3.473-1.512-5.253-1.671c-1.811-0.162-3.64,0.03-5.432-0.06c-1.809-0.091-3.613-0.156-5.413-0.194
			c-1.804-0.038-3.607-0.263-5.413-0.268c-1.798-0.005-3.603-0.49-5.413-0.482c-1.794,0.008-3.593,1.686-5.409,1.688
			c-1.79,0.001-3.586-1.462-5.407-1.486c-1.961-0.026-3.936,0.804-5.877,0.705c-1.955-0.1-3.861-1.325-5.805-1.385
			c-1.953-0.061-3.942,0.349-5.891,0.443c-1.935,0.093-3.864,0.581-5.805,0.939c-1.874,0.346-3.735,0.918-5.621,1.614
			c-1.704,0.629-3.094,1.802-4.633,2.493c-1.663,0.747-3.472,0.993-4.941,1.812c-1.595,0.89-2.542,2.572-3.907,3.547
			c-1.487,1.062-2.991,1.824-4.204,2.985c-1.313,1.257-2.499,2.424-3.49,3.797c-1.048,1.452-1.74,2.945-2.426,4.526
			c-0.696,1.604-1.806,3.035-2.128,4.771c-0.312,1.68,0.004,3.429,0.044,5.232c0.038,1.685-0.154,3.434,0.193,5.225
			c0.28,1.448,1.375,2.86,2.031,4.587c0.565,1.488,1.24,2.992,1.987,4.559c0.715,1.501,0.653,3.429,1.453,4.895
			c0.828,1.518,2.333,2.608,3.166,3.975c0.958,1.572,2.127,2.808,2.966,4.015c1.152,1.658,1.143,3.732,2.037,5.057
			c1.008,1.493,2.682,2.307,3.877,3.714c1.016,1.196,1.647,2.934,3.163,4.306C62.909,321.564,64.889,321.887,66.49,323.134z"/>
		<path d="M71.7,319.934c1.576,1.209,3.053,2.553,4.959,3.679c1.805,1.066,2.559,4.039,4.384,5.089
			c1.909,1.098,5.16,0.054,6.791,1.2c1.928,1.354,4.062,2.351,6.141,3.655c2.024,1.27,3.547,3.263,5.687,4.406
			c2.129,1.136,4.297,1.971,6.514,2.902c2.075,0.87,4.14,1.792,6.312,2.629c2.11,0.813,3.673,3.176,5.857,3.95
			c2.141,0.759,4.059,2.325,6.254,3.039c2.169,0.705,4.717,0.312,6.922,0.966c2.194,0.651,4.938-0.696,7.152-0.103
			c2.219,0.594,4.281,1.625,6.504,2.154c2.242,0.534,4.069,2.84,6.298,3.3c2.265,0.468,4.292,2.332,6.527,2.716
			c2.065,0.355,4.358,0.041,6.522,0.309c2.088,0.258,4.534-2.695,6.7-2.518c2.103,0.172,4.156,0.707,6.32,0.804
			c2.114,0.095,4.199,0.965,6.36,0.99c2.122,0.024,4.23-0.785,6.385-0.828c2.127-0.043,4.31,1.555,6.459,1.448
			c2.129-0.106,4.158-1.741,6.298-1.909c2.13-0.168,4.297,0.272,6.427,0.044c2.129-0.228,4.013-2.147,6.132-2.435
			c2.126-0.289,4.777,3.007,6.882,2.659c2.121-0.351,4.259-0.801,6.349-1.211c2.114-0.415,4.25-0.87,6.321-1.345
			c2.105-0.482,4.419-0.284,6.469-0.826c2.093-0.554,3.379-3.951,5.403-4.567c2.076-0.631,4.713,0.529,6.704-0.166
			c2.054-0.718,4.495-0.524,6.444-1.309c1.953-0.786,3.471-2.95,5.586-3.816c1.985-0.813,2.897-4.323,4.964-5.21
			c1.997-0.857,4.183-1.257,6.203-2.186c1.996-0.918,4.664-0.399,6.63-1.389c1.98-0.997,3.559-2.686,5.458-3.76
			c1.949-1.102,3.4-2.818,5.208-4.003c1.89-1.239,4.518-1.254,6.19-2.587c1.785-1.423,2.185-4.082,3.646-5.616
			c1.584-1.663,3.593-2.578,4.7-4.377c1.211-1.966,1.438-3.864,1.893-5.876c0.488-2.157,1.63-4.031,1.312-6.171
			c-0.31-2.089-2.838-3.168-3.854-5.173c-0.936-1.848,0.136-4.92-1.349-6.643c-1.351-1.567-2.817-3.319-4.585-4.741
			c-1.621-1.304-3.403-2.736-5.345-3.887c-1.8-1.066-3.775-2.206-5.828-3.116c-1.923-0.852-4.446-0.425-6.572-1.12
			c-1.935-0.632-3.316-2.833-5.198-3.459c-1.916-0.637-4.249,0.042-6.146-0.575c-1.906-0.62-4.254,0.23-6.176-0.357
			c-1.903-0.581-3.42-2.433-5.372-2.967c-1.905-0.521-3.311-3.247-5.297-3.711c-2.073-0.485-4.754,1.637-6.853,1.187
			c-2.085-0.447-4.361,0.125-6.467-0.281c-2.096-0.404-3.601-4.116-5.714-4.472c-2.107-0.355-4.321-0.307-6.44-0.608
			c-2.117-0.301-4.352,0.073-6.477-0.167c-2.062-0.232-4.337-0.01-6.668-0.267c-2.125-0.235-4.27-1.122-6.539-1.374
			c-2.166-0.24-4.729,2.612-6.959,2.359c-2.201-0.249-4.237-2.112-6.436-2.369c-2.234-0.261-4.293-1.835-6.459-2.102
			c-2.27-0.279-4.796,1.847-6.916,1.566c-2.326-0.308-4.329-2.212-6.378-2.517c-2.231-0.332-4.232-1.495-6.262-1.753
			c-2.222-0.282-4.287-1.178-6.344-1.399c-2.189-0.235-4.671,3.203-6.766,3.004c-2.14-0.204-4.247-0.482-6.391-0.685
			c-2.09-0.198-4.209-0.614-6.399-0.846c-2.052-0.217-4.192-0.561-6.412-0.838c-2.029-0.252-3.916-2.382-6.149-2.707
			c-2.002-0.29-3.856-1.882-5.821-2.062c-2.004-0.184-4.098,0.663-6.079,0.565c-1.999-0.1-3.975-1.36-5.967-1.403
			c-1.99-0.043-4.017,1.882-6.017,1.866c-1.984-0.016-3.979,0.214-5.988,0.195c-1.976-0.018-4.011,1.338-6.027,1.29
			c-2.316-0.056-4.44-4.296-6.73-4.437c-2.311-0.142-4.721-0.095-7.017-0.119c-2.302-0.024-4.712,1.283-7.011,1.585
			c-2.236,0.294-5.068-0.445-7.311,0.352c-2.07,0.734-3.735,2.561-5.541,3.395c-2.007,0.927-4.22,1.556-5.901,2.605
			c-1.88,1.174-3.775,2.566-5.243,3.892c-1.633,1.474-2.603,3.75-3.724,5.41c-1.196,1.772-3.567,3.417-4.177,5.399
			c-0.603,1.958,2.712,4.672,2.684,6.834c-0.025,1.99-0.124,3.777,0.341,5.938c0.357,1.661-1.342,4.345-0.464,6.376
			c0.752,1.738,1.688,3.65,2.649,5.439c0.955,1.776,4.052,2.33,5.056,3.956c1.152,1.866,2.172,3.548,3.167,4.934
			c1.545,2.148,2.497,4.007,3.7,5.646c1.234,1.682,0.787,4.882,2.686,6.69C65.84,319.283,69.55,318.285,71.7,319.934z"/>
		<path d="M166.95,278.273c1.531-1.945,4.564-2.701,6.779-1.693c2.213,1.01,2.766,3.405,1.239,5.354
			c-1.53,1.944-4.566,2.705-6.777,1.694C165.977,282.618,165.421,280.223,166.95,278.273z"/>
		<path d="M275.289,310.675c1.015-1.29,3.03-1.793,4.502-1.123c1.468,0.67,1.834,2.261,0.821,3.551
			c-1.015,1.294-3.03,1.796-4.498,1.129C274.643,313.561,274.274,311.968,275.289,310.675z"/>
		<path d="M148.661,327.527c0.907-1.155,2.71-1.608,4.024-1.008c1.317,0.598,1.646,2.023,0.735,3.18
			c-0.905,1.157-2.709,1.606-4.024,1.006C148.084,330.107,147.752,328.682,148.661,327.527z"/>
		<path d="M200.677,341.717c0.643-0.816,1.915-1.134,2.842-0.713c0.93,0.424,1.162,1.43,0.519,2.245
			c-0.64,0.817-1.911,1.135-2.842,0.71C200.269,343.539,200.036,342.532,200.677,341.717z"/>
		<path d="M68.981,297.21c1.016-1.29,3.03-1.798,4.502-1.126c1.466,0.671,1.834,2.262,0.82,3.553
			c-1.014,1.292-3.03,1.798-4.499,1.128C68.335,300.095,67.966,298.502,68.981,297.21z"/>
		<path d="M77.088,264.611c0.428-0.545,1.274-0.757,1.894-0.476c0.621,0.284,0.772,0.954,0.348,1.497
			c-0.427,0.545-1.277,0.758-1.898,0.476C76.815,265.823,76.662,265.155,77.088,264.611z"/>
		<path d="M247.308,282.361c0.641-0.816,1.914-1.135,2.843-0.71c0.928,0.422,1.162,1.425,0.518,2.242
			c-0.639,0.816-1.911,1.134-2.84,0.712C246.903,284.181,246.669,283.175,247.308,282.361z"/>
		<path d="M235.42,329.46c1.941-2.33,2.545-3.478-0.168-5.102c-1.604-0.958-4.755-1.764-6.163,0.158
			c0.223,0.183,0.556,0.224,0.767,0.4"/>
		<path d="M173.613,314.654c1.152-2.693,4.231-5.481,7.574-6.249"/>
		<path d="M178.171,340.817c0.86-1.471,0.602-2.961-0.673-3.985"/>
		<path d="M108.634,326.168c-0.621-1.997-1.121-5.983,2.123-7.063"/>
		<path d="M132.173,294.751c3.807-2.459,5.612-8.815,1.924-11.168"/>
		<path d="M104.628,277.505c2.605-1.266,6.986-7.004,4.039-8.528"/>
		<path d="M99.187,299.446c1.988-1.158,1.754-3.252,0.468-4.471"/>
		<path d="M78.561,285.018c1.782-1.83,1.099-4.114-0.743-5.353"/>
		<path d="M60.482,279.451c0.19-1.602-0.489-5.075,1.998-5.447"/>
		<path d="M77.013,319.44c-0.954-0.789-9.106-5.182-4.578-6.772"/>
		<path d="M222.534,291.133c4.915-2.903,1.414-6.392-3.066-6.752"/>
		<path d="M279.82,291.834c1.065-1.527,0.527-3.462-1.234-4.241"/>
		<path d="M261.731,310.013c1.446-2.001,0.954-4.8-0.912-6.104"/>
		<path d="M262.907,335.641c1.647-0.71,3.138-1.596,4.475-2.655c-0.132-1.166-0.437-2.414-1.339-3.278"/>
		<path d="M293.747,320.6c1.893-1.762,4.808-3.789,4.558-6.284"/>
		<path d="M220.5,349.418c3.058-0.039,6.447-3.487,7.939-5.745"/>
		<path d="M160.526,351.17c-2.063-0.241-10.773-2.99-8.382-4.827"/>
		<path d="M118.409,341.331c-1.901-1.008-7.216-2.808-4.786-5.529"/>
		<path d="M146.768,304.752c2.86-1.284,5.206-5.736,1.649-6.942"/>
		<path d="M201.063,276.324c1.524-2.38-3.78-5.792-6.23-4.181"/>
		<path d="M210.36,319.704c2.974-2.927,1.199-6.876-0.462-9.579"/>
		<path d="M139.829,270.476c-1.057-1.523,0.143-5.935,3.118-4.935"/>
		<path d="M126.37,320.54c-3.455-0.208-5.573-3.545-2.892-6.003"/>
		<path opacity="0.1" d="M250.93,356.605c2.886-0.847,5.406-2.449,8.118-3.546c0.434-0.158,0.87-0.31,1.3-0.471
			c3.198-0.971,5.346,0.638,8.237,0.04c2.658-0.546,6.003-3.543,8.479-4.846c5.269-2.772,10.49-4.867,15.345-8.056
			c2.824-1.853,5.4-1.925,7.82-4.128c0.592-0.537,1.171-1.045,1.745-1.545c6.883-4.157,12.786-9.041,16.598-15.157
			c0.117-0.196,0.235-0.387,0.351-0.583l-0.721,0.032c0.659-0.686,1.261-1.403,1.75-2.188c3.248-5.197,3.214-11.937,2.223-17.152
			c-2.288-12.059-11.921-22.195-25.563-26.571c-10.507-3.37-19.916-5.975-30.85-8.427c-9.262-2.078-18.8-3.848-28.443-5.047
			l-133.8,90.668c1.676,1.265,3.202,2.481,5.948,2.603c0.61,0.026,1.279-0.065,1.971-0.197c2.302,0.828,4.637,1.63,7.006,2.41
			c-0.051,0.477-0.024,0.945,0.372,1.389c0.801,0.9,2.636,0.701,3.84,0.898c4.353,0.713,4.568,2.134,7.701,3.78
			c2.678,1.405,6.345,0.897,9.108,2.456c2.522,1.421,3.257,2.593,7.017,2.205c3.237-0.338,5.818-1.81,8.99-1.272
			c2.864,0.488,4.736,1.552,7.72,1.782c6.122,0.474,11.211,2.312,17.726,2.154c6.042-0.144,12.52-1.295,18.456-1.209
			c4.083,0.058,6.04,0.383,10.224-0.447c3.867-0.768,7.552-1.017,11.49-1.528c7.05-0.908,13.559-1.762,20.055-4.817
			C244.484,358.262,247.41,357.637,250.93,356.605z"/>
	</g>
	<g>
		<g>
			<path fill="#824A25" d="M301.447,275.679c-9.413-4.862-25.723-1.632-36.656-4.085c-11.075-2.484-22.551-4.543-34.129-5.693
				c-14.373-1.428-28.591-3.389-42.795-5.328c-16.109-2.2-35.286-1.563-56.656-4.399c-13.222-1.756-24.839-1.599-38.149-1.711
				c-10.071-0.084-21.902-0.822-32.435,1.029c-14.079,2.47-24.363,2.876-25.784,10.382c-7.616,40.249,7.036,45.972,10.962,51.712
				c4.457,6.516,5.599,9.616,14.202,16.371c4.922,3.862,12.148,7.128,17.298,10.816c2.706,1.937,4.973,4.043,7.301,6.051
				c4.254-1.256,8.588,0.22,10.198,3.386c0.651,1.282,1.239,2.59,1.701,3.92c9.054,3.653,19.798,7.189,30.683,10.139
				c0.536,0.009,1.063,0.052,1.572,0.143c4.2-1.547,9.365-0.216,10.94,2.972c5.137,1.163,10.163,2.15,14.9,2.911
				c3.135,0.501,6.399,0.922,9.763,1.26c1.929-0.39,3.854-0.201,5.497,0.472c4.834,0.35,9.839,0.543,14.952,0.571
				c0.615-0.479,1.225-0.965,1.82-1.47c4.013-3.403,10.036-1.879,12.554,1.102c0.017,0.006,0.043,0.013,0.067,0.02
				c8.521-0.45,17.159-1.337,25.613-2.67c1.921-0.356,3.843-0.729,5.755-1.148c0.468-0.612,0.976-1.216,1.562-1.803
				c1.911-1.912,5.206-3.71,8.183-3.314c1.91,0.256,4.154,0.488,6.578,0.644c1.466-0.494,2.921-1.011,4.365-1.556
				c2.028-0.761,3.981-0.907,5.75-0.566c1.452-0.495,2.88-1.015,4.286-1.545c0.459-0.237,0.919-0.459,1.39-0.657
				c5.447-5.578,14.215-10.241,22.22-10.262c11.917-6.685,14.298-14.346,24.685-28.515
				C316.242,315.845,316.812,283.615,301.447,275.679z"/>
			<path fill="#663D21" d="M184.811,376.598c0.615-0.479,1.225-0.965,1.82-1.47c4.013-3.403,10.036-1.879,12.554,1.102
				c0.017,0.006,0.043,0.013,0.067,0.02c8.521-0.45,17.159-1.337,25.613-2.67c1.921-0.356,3.843-0.729,5.755-1.148
				c0.468-0.612,0.976-1.216,1.562-1.803c1.911-1.912,5.206-3.71,8.183-3.314c1.91,0.256,4.154,0.488,6.578,0.644
				c1.466-0.494,2.921-1.011,4.365-1.556c2.028-0.761,3.981-0.907,5.75-0.566c1.452-0.495,2.88-1.015,4.286-1.545
				c0.459-0.237,0.919-0.459,1.39-0.657c5.447-5.578,14.215-10.241,22.22-10.262c11.917-6.685,20.023-12.836,30.411-27.004
				c6.604-9.013,8.42-44.776-13.918-50.691c-0.663-0.177-1.248-0.593-1.912-0.843L171.474,376.129
				C175.807,376.41,180.261,376.575,184.811,376.598z"/>
			<path fill="#A36634" d="M268.322,315.866c-0.468,0.642-0.624,1.977-1.123,2.471c-1.924,1.91-7.76,2.071-10.399,2.425
				c-14.602,1.963-29.304,3.945-43.916,5.635c-21.227,2.454-43.051-0.048-63.357-2.505c-14.412-1.745-27.9-4.444-41.589-7.849
				c-13.264-3.295-32.576-7.762-47.727-3.743c-4.261,1.13-3.774,2-2.762,4.655c1.078,2.83,0.9,4.727,3.941,6.23
				c2.991,1.477,3.282,1.919,5.249,4.326c1.854,2.271,4.994,2.934,7.153,4.936c0.9,0.831,1.246,2.651,2.063,3.282
				c1.161,0.893,2.092,0.593,3.866,0.918c3.284,0.604,6.577,2.405,9.541,3.609c2.861,1.162,5.847,2.181,8.249,3.762
				c2.357,1.548,3.872,3.458,7.353,3.612c2.779,0.119,6.751-2.148,8.684,0.085c0.986,1.149-0.327,2.409,0.663,3.517
				c0.801,0.9,2.636,0.701,3.84,0.898c4.353,0.713,4.568,2.134,7.701,3.78c2.678,1.405,6.345,0.897,9.108,2.456
				c2.522,1.421,3.257,2.593,7.017,2.205c3.237-0.338,5.818-1.81,8.99-1.272c2.864,0.488,4.736,1.552,7.72,1.782
				c6.122,0.474,11.211,2.312,17.726,2.154c6.042-0.144,12.52-1.295,18.456-1.209c4.083,0.058,6.04,0.383,10.224-0.447
				c3.867-0.768,7.552-1.017,11.49-1.528c7.05-0.908,13.559-1.762,20.055-4.817c3.343-1.574,6.269-2.199,9.789-3.231
				c3.253-0.954,6.034-2.872,9.162-3.941c3.343-1.143,5.524,0.577,8.493-0.036c2.658-0.546,6.003-3.543,8.479-4.846
				c5.269-2.772,10.49-4.867,15.345-8.056c2.824-1.853,5.4-1.925,7.82-4.128c2.057-1.868,3.935-3.407,6.072-5.186
				c3.134-2.609,5.404-5.842,8.272-8.633c1.888-1.836,4.048-3.485,5.379-5.622c3.248-5.197,3.214-11.937,2.223-17.152
				c-2.288-12.059-11.921-22.195-25.563-26.571c-10.507-3.37-19.916-5.975-30.85-8.427c-11.077-2.484-22.552-4.544-34.13-5.693
				c-14.371-1.43-35.271-4.171-49.475-6.113c-18.562-2.533-29.754-2.394-48.462-4.877c-13.223-1.755-25.597-0.97-38.905-1.079
				c-10.074-0.082-20.446-1.039-30.464,2.723c-20.471,7.681-28.575,20.093-25.615,36.167c1.246,6.774,5.653,17.859,9.579,23.601
				c4.456,6.514,5.598,9.615,14.203,16.369c4.92,3.864,12.148,7.128,17.297,10.817c6.043,4.324,12.864,8.616,20.097,11.641
				c17.037,7.113,37.517,13.241,56.728,16.323c32.733,5.249,78.101-0.276,110.107-13.822c18.655-7.893,42.088-15.508,51.85-31.167
				c0.117-0.196,0.235-0.387,0.351-0.583"/>
			<g>
				<path fill="#C9A681" d="M61.888,318.533c1.245,0.97,1.851,3.015,3.321,3.926c1.385,0.858,3.303,0.925,4.762,1.759
					c1.452,0.831,3.012,1.498,4.416,2.334c1.481,0.881,3.159,1.483,4.447,2.401c1.514,1.078,2.478,3.006,4.085,4.06
					c1.567,1.027,2.906,2.505,4.551,3.472c1.626,0.956,3.608,1.333,5.298,2.194c1.689,0.86,3.223,2.114,4.966,2.843
					c1.748,0.731,4.003,0.28,5.819,0.987c1.771,0.69,3.069,2.702,4.894,3.366c1.792,0.651,4.136-0.222,5.972,0.4
					c1.81,0.613,3.162,2.663,5.005,3.244c1.827,0.576,4.04-0.087,5.891,0.453c1.844,0.538,3.39,2.148,5.249,2.647
					c1.859,0.498,3.683,1.19,5.548,1.646c1.874,0.457,3.84,0.556,5.712,0.966c1.888,0.414,3.785,0.792,5.662,1.153
					c1.903,0.366,3.911,0.073,5.793,0.382c1.76,0.288,3.583,0.246,5.413,0.472c1.774,0.219,3.461,1.515,5.294,1.676
					c1.785,0.157,3.634-0.099,5.467,0.003c1.793,0.1,3.639-0.87,5.472-0.821c1.799,0.048,3.591,1.133,5.421,1.132
					c1.802-0.001,3.605-0.656,5.431-0.704c1.804-0.047,3.585-0.552,5.407-0.644c1.805-0.092,3.68,0.927,5.497,0.792
					c1.805-0.134,3.589-0.602,5.4-0.779c1.804-0.176,3.724,0.59,5.528,0.372c1.802-0.218,3.573-0.8,5.37-1.058
					c1.799-0.259,3.391-1.819,5.179-2.119c1.794-0.301,3.707,0.124,5.485-0.216c1.789-0.343,3.667-0.255,5.434-0.638
					c1.783-0.387,3.536-0.913,5.291-1.34c1.776-0.432,3.241-2.006,4.982-2.479c1.765-0.48,3.64-0.471,5.363-0.992
					c1.754-0.531,3.507-0.987,5.211-1.56c1.739-0.585,3.59-0.799,5.27-1.427c1.722-0.644,3.533-1.036,5.185-1.725
					c1.675-0.698,3.157-2,4.922-2.727c1.691-0.696,3.125-2.102,4.869-2.831c1.701-0.711,3.58-1.041,5.303-1.789
					c1.703-0.739,3.647-0.957,5.345-1.738c1.696-0.78,3.35-1.658,5.014-2.486c1.68-0.836,3.176-1.998,4.797-2.889
					c1.652-0.908,3.52-1.412,5.082-2.383c1.609-1.001,3.355-1.799,4.838-2.874c1.54-1.117,2.364-3.078,3.733-4.283
					c1.432-1.261,3.548-1.794,4.752-3.16c1.259-1.428,1.465-3.605,2.429-5.158c1.018-1.638,2.844-2.831,3.405-4.519
					c0.598-1.797,0.723-3.784,0.827-5.597c0.106-1.845,0.436-3.884,0.056-5.704c-0.37-1.773-2.002-3.255-2.809-4.965
					c-0.765-1.621-1.898-3.019-3.036-4.549c-1.066-1.434-2.251-2.75-3.627-4.075c-1.287-1.24-2.59-2.468-4.134-3.59
					c-1.448-1.052-2.843-2.248-4.506-3.177c-1.566-0.875-3.431-1.178-5.179-1.927c-1.653-0.709-3.034-2.241-4.84-2.824
					c-1.678-0.542-3.413-0.805-5.023-1.378c-1.651-0.588-3.499-0.584-5.112-1.182c-1.632-0.605-3.237-1.239-4.863-1.831
					c-1.623-0.591-3.221-1.21-4.873-1.762c-1.626-0.544-3.285-0.935-4.973-1.419c-1.637-0.47-3.284-0.835-5.009-1.227
					c-1.819-0.413-3.556-1.198-5.396-1.585c-1.828-0.385-3.448-1.845-5.293-2.2c-1.836-0.354-3.845,0.183-5.696-0.137
					c-1.844-0.319-3.591-1.274-5.446-1.556c-1.851-0.281-3.753-0.276-5.613-0.515c-1.858-0.239-3.773,0.003-5.638-0.19
					c-1.711-0.177-3.467-0.94-5.361-1.132c-1.747-0.178-3.56-0.373-5.42-0.562c-1.77-0.18-3.65,0.3-5.487,0.112
					c-1.788-0.183-3.564-0.726-5.383-0.916c-1.806-0.188-3.601-0.544-5.406-0.737c-1.821-0.196-3.708,0.291-5.496,0.091
					c-1.839-0.205-3.691-0.097-5.459-0.305c-1.858-0.219-3.611-0.946-5.351-1.166c-1.889-0.239-3.752-0.119-5.452-0.358
					c-1.81-0.254-3.374-1.796-5.054-2.003c-1.806-0.222-3.705,0.981-5.396,0.8c-1.797-0.191-3.452-1.189-5.161-1.348
					c-1.778-0.165-3.568,0.24-5.3,0.093c-1.752-0.149-3.483-0.391-5.238-0.539c-1.726-0.146-3.487-0.1-5.264-0.263
					c-1.705-0.156-3.335-1.448-5.131-1.635c-1.69-0.176-3.558,0.775-5.364,0.559c-1.68-0.201-3.44-0.337-5.25-0.584
					c-1.809-0.247-3.473-1.512-5.253-1.671c-1.811-0.162-3.64,0.03-5.432-0.06c-1.809-0.091-3.613-0.156-5.413-0.194
					c-1.804-0.038-3.607-0.263-5.413-0.268c-1.798-0.005-3.603-0.49-5.413-0.482c-1.794,0.008-3.593,1.686-5.409,1.688
					c-1.79,0.001-3.586-1.462-5.407-1.486c-1.961-0.026-3.936,0.804-5.877,0.705c-1.955-0.1-3.861-1.325-5.805-1.385
					c-1.953-0.061-3.942,0.349-5.891,0.443c-1.935,0.093-3.864,0.581-5.805,0.939c-1.874,0.346-3.735,0.918-5.621,1.614
					c-1.704,0.629-3.094,1.802-4.633,2.493c-1.663,0.747-3.472,0.993-4.941,1.812c-1.595,0.89-2.542,2.572-3.907,3.547
					c-1.487,1.062-2.991,1.824-4.204,2.985c-1.313,1.257-2.499,2.424-3.49,3.797c-1.048,1.452-1.74,2.945-2.426,4.526
					c-0.696,1.604-1.806,3.035-2.128,4.771c-0.312,1.68,0.004,3.429,0.044,5.232c0.038,1.685-0.154,3.434,0.193,5.225
					c0.28,1.448,1.375,2.86,2.031,4.587c0.565,1.488,1.24,2.992,1.987,4.559c0.715,1.501,0.653,3.429,1.453,4.895
					c0.828,1.518,2.333,2.608,3.166,3.975c0.958,1.572,2.127,2.808,2.966,4.015c1.152,1.658,1.143,3.732,2.037,5.057
					c1.008,1.493,2.682,2.307,3.877,3.714c1.016,1.196,1.647,2.934,3.163,4.306C58.307,316.962,60.287,317.285,61.888,318.533z"/>
			</g>
			<g>
				<path fill="#D8BA95" d="M67.099,315.332c1.576,1.209,3.053,2.553,4.959,3.679c1.805,1.066,2.559,4.039,4.384,5.089
					c1.909,1.098,5.16,0.054,6.791,1.2c1.928,1.354,4.062,2.35,6.141,3.655c2.024,1.27,3.547,3.263,5.687,4.406
					c2.129,1.136,4.297,1.971,6.514,2.902c2.075,0.87,4.14,1.792,6.312,2.629c2.11,0.813,3.673,3.176,5.857,3.95
					c2.141,0.759,4.059,2.325,6.254,3.039c2.169,0.705,4.717,0.312,6.922,0.966c2.194,0.651,4.938-0.696,7.152-0.103
					c2.219,0.594,4.281,1.625,6.504,2.154c2.242,0.534,4.069,2.84,6.298,3.3c2.265,0.468,4.292,2.332,6.527,2.716
					c2.065,0.355,4.358,0.041,6.522,0.309c2.088,0.258,4.534-2.695,6.7-2.518c2.103,0.172,4.156,0.707,6.32,0.804
					c2.114,0.095,4.199,0.965,6.36,0.99c2.122,0.024,4.23-0.785,6.385-0.828c2.127-0.043,4.31,1.555,6.459,1.448
					c2.129-0.106,4.158-1.741,6.298-1.909c2.13-0.168,4.297,0.272,6.427,0.044c2.129-0.228,4.013-2.147,6.132-2.435
					c2.126-0.289,4.777,3.007,6.882,2.659c2.121-0.351,4.258-0.801,6.349-1.211c2.114-0.415,4.25-0.87,6.321-1.345
					c2.105-0.482,4.419-0.284,6.469-0.826c2.093-0.554,3.379-3.951,5.403-4.567c2.076-0.631,4.713,0.529,6.704-0.166
					c2.054-0.718,4.495-0.524,6.444-1.309c1.953-0.786,3.471-2.95,5.586-3.816c1.985-0.813,2.897-4.323,4.964-5.21
					c1.997-0.857,4.183-1.257,6.203-2.186c1.996-0.918,4.664-0.399,6.63-1.389c1.98-0.997,3.559-2.686,5.458-3.76
					c1.949-1.102,3.4-2.818,5.208-4.003c1.89-1.239,4.518-1.254,6.19-2.587c1.785-1.423,2.184-4.082,3.646-5.616
					c1.584-1.663,3.593-2.578,4.7-4.377c1.211-1.966,1.438-3.864,1.893-5.876c0.488-2.157,1.63-4.031,1.312-6.171
					c-0.31-2.089-2.838-3.168-3.854-5.173c-0.936-1.848,0.136-4.92-1.349-6.643c-1.351-1.567-2.817-3.319-4.585-4.741
					c-1.621-1.304-3.403-2.736-5.345-3.887c-1.8-1.066-3.775-2.206-5.828-3.116c-1.923-0.852-4.446-0.425-6.572-1.12
					c-1.935-0.632-3.316-2.833-5.198-3.459c-1.916-0.637-4.249,0.042-6.146-0.575c-1.906-0.62-4.254,0.23-6.176-0.357
					c-1.903-0.581-3.42-2.433-5.372-2.967c-1.905-0.521-3.311-3.247-5.297-3.711c-2.073-0.484-4.754,1.637-6.853,1.187
					c-2.085-0.447-4.361,0.125-6.467-0.281c-2.096-0.404-3.601-4.116-5.714-4.472c-2.107-0.355-4.321-0.307-6.44-0.607
					c-2.117-0.301-4.352,0.073-6.477-0.167c-2.062-0.232-4.337-0.01-6.668-0.267c-2.125-0.235-4.27-1.122-6.539-1.374
					c-2.166-0.24-4.729,2.612-6.959,2.359c-2.201-0.249-4.237-2.112-6.436-2.369c-2.234-0.261-4.293-1.835-6.459-2.102
					c-2.27-0.279-4.796,1.847-6.916,1.566c-2.326-0.308-4.329-2.212-6.378-2.517c-2.231-0.332-4.232-1.495-6.262-1.753
					c-2.222-0.282-4.287-1.178-6.344-1.399c-2.189-0.235-4.671,3.203-6.766,3.004c-2.14-0.204-4.247-0.482-6.391-0.685
					c-2.09-0.198-4.209-0.614-6.399-0.846c-2.052-0.217-4.192-0.561-6.412-0.838c-2.029-0.252-3.916-2.382-6.149-2.707
					c-2.002-0.29-3.856-1.882-5.821-2.062c-2.004-0.184-4.098,0.663-6.079,0.565c-1.999-0.1-3.975-1.36-5.967-1.403
					c-1.99-0.043-4.017,1.882-6.017,1.866c-1.984-0.016-3.979,0.214-5.988,0.195c-1.976-0.018-4.011,1.338-6.027,1.29
					c-2.316-0.056-4.44-4.296-6.73-4.437c-2.311-0.142-4.721-0.095-7.017-0.119c-2.302-0.024-4.712,1.283-7.011,1.585
					c-2.236,0.294-5.068-0.445-7.311,0.352c-2.07,0.734-3.735,2.561-5.541,3.395c-2.007,0.927-4.22,1.556-5.901,2.605
					c-1.88,1.174-3.775,2.566-5.243,3.892c-1.633,1.474-2.603,3.75-3.724,5.41c-1.196,1.772-3.567,3.417-4.177,5.399
					c-0.603,1.958,2.712,4.672,2.684,6.834c-0.025,1.99-0.124,3.777,0.341,5.938c0.357,1.661-1.342,4.345-0.464,6.376
					c0.752,1.738,1.688,3.65,2.649,5.439c0.955,1.776,4.052,2.33,5.056,3.956c1.152,1.866,2.172,3.548,3.167,4.934
					c1.545,2.148,2.497,4.007,3.7,5.646c1.234,1.682,0.787,4.882,2.686,6.69C61.238,314.681,64.949,313.684,67.099,315.332z"/>
			</g>
			<g>
				<path fill="#AF855F" d="M162.349,273.671c1.531-1.945,4.564-2.701,6.779-1.693c2.213,1.01,2.766,3.405,1.239,5.354
					c-1.53,1.944-4.566,2.705-6.777,1.694C161.375,278.016,160.819,275.621,162.349,273.671z"/>
				<path fill="#AF855F" d="M270.688,306.074c1.015-1.29,3.03-1.793,4.502-1.123c1.468,0.67,1.834,2.261,0.821,3.551
					c-1.015,1.294-3.03,1.796-4.498,1.129C270.041,308.96,269.672,307.366,270.688,306.074z"/>
				<path fill="#AF855F" d="M144.059,322.926c0.907-1.155,2.71-1.608,4.024-1.008c1.317,0.598,1.646,2.023,0.735,3.18
					c-0.905,1.157-2.709,1.606-4.024,1.006C143.482,325.506,143.151,324.08,144.059,322.926z"/>
				<path fill="#AF855F" d="M196.076,337.115c0.643-0.816,1.915-1.134,2.842-0.713c0.93,0.424,1.162,1.43,0.519,2.245
					c-0.64,0.817-1.911,1.135-2.842,0.71C195.668,338.937,195.435,337.931,196.076,337.115z"/>
				<path fill="#AF855F" d="M64.38,292.609c1.016-1.29,3.03-1.798,4.502-1.126c1.466,0.671,1.834,2.262,0.82,3.553
					c-1.014,1.292-3.03,1.798-4.499,1.128C63.734,295.493,63.364,293.901,64.38,292.609z"/>
				<path fill="#AF855F" d="M72.486,260.01c0.428-0.545,1.274-0.757,1.894-0.476c0.621,0.284,0.772,0.954,0.348,1.497
					c-0.427,0.545-1.277,0.758-1.898,0.476C72.213,261.222,72.06,260.553,72.486,260.01z"/>
				<path fill="#AF855F" d="M242.706,277.759c0.641-0.816,1.914-1.135,2.843-0.71c0.928,0.422,1.162,1.425,0.518,2.242
					c-0.639,0.816-1.911,1.134-2.84,0.712C242.301,279.58,242.068,278.574,242.706,277.759z"/>
				<path fill="#AF855F" d="M230.818,324.858c1.941-2.33,2.545-3.478-0.168-5.102c-1.604-0.958-4.755-1.764-6.163,0.158
					c0.223,0.183,0.556,0.224,0.767,0.4"/>
				<path fill="#AF855F" d="M169.011,310.053c1.152-2.693,4.23-5.481,7.574-6.249"/>
				<path fill="#AF855F" d="M173.569,336.215c0.86-1.471,0.602-2.961-0.673-3.985"/>
				<path fill="#AF855F" d="M104.033,321.566c-0.621-1.997-1.121-5.983,2.123-7.063"/>
				<path fill="#AF855F" d="M127.571,290.15c3.807-2.459,5.612-8.815,1.924-11.168"/>
				<path fill="#AF855F" d="M100.027,272.903c2.605-1.266,6.986-7.004,4.039-8.528"/>
				<path fill="#AF855F" d="M94.585,294.844c1.988-1.158,1.754-3.252,0.468-4.471"/>
				<path fill="#AF855F" d="M73.959,280.416c1.782-1.83,1.099-4.114-0.743-5.353"/>
				<path fill="#AF855F" d="M55.88,274.85c0.19-1.602-0.489-5.075,1.998-5.447"/>
				<path fill="#AF855F" d="M72.411,314.839c-0.954-0.789-9.106-5.182-4.578-6.772"/>
				<path fill="#AF855F" d="M217.933,286.531c4.915-2.903,1.414-6.392-3.066-6.752"/>
				<path fill="#AF855F" d="M275.218,287.233c1.065-1.527,0.527-3.462-1.234-4.241"/>
				<path fill="#AF855F" d="M257.129,305.411c1.446-2.001,0.954-4.8-0.912-6.104"/>
				<path fill="#AF855F" d="M258.305,331.039c1.647-0.71,3.138-1.596,4.475-2.655c-0.132-1.166-0.437-2.414-1.339-3.278"/>
				<path fill="#AF855F" d="M289.145,315.999c1.893-1.762,4.808-3.789,4.558-6.284"/>
				<path fill="#AF855F" d="M215.898,344.816c3.058-0.039,6.447-3.487,7.939-5.745"/>
				<path fill="#AF855F" d="M155.924,346.568c-2.063-0.241-10.773-2.99-8.382-4.827"/>
				<path fill="#AF855F" d="M113.807,336.73c-1.901-1.008-7.216-2.808-4.786-5.529"/>
				<path fill="#AF855F" d="M142.166,300.151c2.86-1.284,5.206-5.736,1.649-6.942"/>
				<path fill="#AF855F" d="M196.461,271.723c1.524-2.38-3.78-5.792-6.23-4.181"/>
				<path fill="#AF855F" d="M205.758,315.102c2.974-2.927,1.199-6.876-0.462-9.579"/>
				<path fill="#AF855F" d="M135.227,265.874c-1.057-1.523,0.143-5.935,3.118-4.935"/>
				<path fill="#AF855F" d="M121.768,315.938c-3.455-0.208-5.573-3.545-2.892-6.003"/>
			</g>
			<path opacity="0.1" fill="#936848" d="M246.328,352.004c2.886-0.847,5.406-2.449,8.118-3.546c0.434-0.158,0.87-0.31,1.3-0.471
				c3.198-0.971,5.346,0.638,8.237,0.04c2.658-0.546,6.003-3.543,8.479-4.846c5.269-2.772,10.49-4.867,15.345-8.056
				c2.824-1.853,5.4-1.925,7.82-4.128c0.592-0.537,1.171-1.045,1.745-1.545c6.883-4.157,12.786-9.041,16.598-15.157
				c0.117-0.196,0.235-0.387,0.351-0.583l-0.721,0.032c0.659-0.686,1.261-1.403,1.75-2.188c3.248-5.197,3.214-11.937,2.223-17.152
				c-2.288-12.059-11.921-22.195-25.563-26.571c-10.507-3.37-19.916-5.975-30.85-8.427c-9.261-2.078-18.8-3.848-28.443-5.047
				l-133.8,90.668c1.676,1.265,3.202,2.481,5.948,2.603c0.61,0.026,1.279-0.065,1.971-0.197c2.302,0.828,4.637,1.631,7.006,2.41
				c-0.051,0.477-0.024,0.945,0.372,1.389c0.801,0.9,2.636,0.701,3.84,0.898c4.353,0.713,4.568,2.134,7.701,3.78
				c2.678,1.405,6.345,0.897,9.108,2.456c2.522,1.421,3.257,2.593,7.017,2.205c3.237-0.338,5.818-1.81,8.99-1.272
				c2.864,0.488,4.736,1.552,7.72,1.782c6.122,0.474,11.211,2.312,17.726,2.154c6.042-0.144,12.52-1.295,18.456-1.209
				c4.083,0.058,6.04,0.383,10.224-0.447c3.867-0.768,7.552-1.017,11.49-1.528c7.05-0.908,13.559-1.762,20.055-4.817
				C239.882,353.66,242.808,353.036,246.328,352.004z"/>
		</g>
	</g>
</g>
</svg>
