<?xml version="1.0" encoding="utf-8"?>
<!-- Generator: Adobe Illustrator 16.0.0, SVG Export Plug-In . SVG Version: 6.00 Build 0)  -->
<!DOCTYPE svg PUBLIC "-//W3C//DTD SVG 1.1//EN" "http://www.w3.org/Graphics/SVG/1.1/DTD/svg11.dtd">
<svg version="1.1" id="Layer_2" xmlns="http://www.w3.org/2000/svg" xmlns:xlink="http://www.w3.org/1999/xlink" x="0px" y="0px"
	 width="450px" height="450px" viewBox="0 0 450 450" enable-background="new 0 0 450 450" xml:space="preserve">
<g>
	<g>
		<g opacity="0.3">
			<path d="M281.888,149.717c-7.523-1.741-16.786-1.709-24.397-3.149c-8.925-1.688-18.566-2.958-27.652-2.66
				c-21.396,0.706-45.318,4.162-65.772,10.27c-34.857,10.412-81.272,40.354-101.476,70.625
				c-11.776,17.643-20.389,32.166-17.645,62.938c1.965,22.03,31.149,36.193,51.578,37.195c12.515,0.611,25.871-4.948,38.031-7.676
				c12.323-2.762,24.702-6.177,36.506-10.618c14.652-5.515,29.555-10.382,44.43-15.262c16.873-5.539,34.532-15.634,56.847-23.063
				c13.813-4.6,24.683-10.467,37.35-16.875c9.588-4.854,21.324-9.863,29.913-17.02c11.479-9.563,10.078-42.994,4.586-50.529
				c-5.37-7.368-28.726-19.283-36.705-23.533C298.428,155.537,295.043,152.762,281.888,149.717z"/>
			<path d="M309.687,251.441c9.588-4.854,21.324-9.863,29.913-17.02c11.479-9.563,10.078-42.994,4.586-50.529
				c-4.109-5.639-18.748-13.938-28.973-19.43L96.33,324.922c0.064,0.003,0.13,0.01,0.193,0.013
				c12.515,0.611,25.871-4.948,38.031-7.676c12.323-2.762,24.702-6.177,36.506-10.618c14.652-5.515,29.555-10.382,44.43-15.262
				c16.873-5.539,34.532-15.634,56.847-23.063C286.15,263.717,297.02,257.849,309.687,251.441z"/>
			<circle cx="213.189" cy="239.571" r="5.149"/>
			<circle cx="88.39" cy="257.867" r="3.418"/>
			<circle cx="312.035" cy="210.187" r="1.44"/>
			<circle cx="137.15" cy="274.6" r="2.159"/>
			<path d="M115.559,218.104c-0.104,3.46,0.178,4.99,3.948,5.405c2.231,0.245,5.808-0.438,5.712-3.192
				c-0.347-0.088-0.693,0.031-1.023-0.054"/>
			<path d="M185.009,203.71c0.912,3.464,0.073,7.97-2.519,10.435"/>
			<path d="M238.987,204.791c-1.77,4.51,1.242,12.231,6.478,12.953"/>
			<path d="M277.85,209.827c-1.523,2.642-1.404,10.964,2.519,11.154"/>
			<path d="M296.922,188.956c-0.325,2.848,2.014,4.969,4.679,5.398"/>
			<path d="M318.154,186.078c1.012,1.816,4.23,5.217,2.158,6.838"/>
			<path d="M156.223,253.01c-2.494,5.535,3.409,7.57,7.916,5.757"/>
			<path d="M101.525,280.356c0.129,2.167,2.072,3.986,4.317,3.959"/>
			<path d="M105.123,251.929c0.121,2.861,2.664,5.632,5.396,6.118"/>
			<path d="M84.972,224.943c-1.03,1.568-1.785,3.251-2.265,5.044c0.993,1.193,2.209,2.385,3.703,2.87"/>
			<path d="M66.979,256.247c-0.479,2.823-1.729,6.438,0.362,8.997"/>
			<path d="M217.755,201.192c-1.754,2.782-0.661,8.723,3.599,8.276"/>
			<path d="M187.527,258.408c0.327,3.304,7.88,4.373,8.997,1.438"/>
			<path d="M146.506,216.304c-0.637,4.605,3.977,7.986,7.557,10.077"/>
			<path d="M249.781,234.658c2.133,1.119,4.274,6.451,0.719,6.836"/>
			<path opacity="0.2" d="M312.851,197.79c-17.265-3.892-34.708-6.857-52.158-9.824c-5.294-0.898-10.592-1.771-15.894-2.603
				c-11.255-1.178-22.512-2.352-33.766-3.532c-12.563-0.146-25.122,0.233-37.657,1.245c-7.481,1.311-14.973,2.551-22.496,3.556
				c-4.862,2.718-9.731,5.382-14.476,8.081c-7.703,4.381-15.435,8.784-23.416,12.645c-5.105,2.47-10.445,4.892-15.356,2.829
				c-2.438,3.306-4.327,7.021-3.456,11.26c0.67,3.254,1.914,7.286,1.088,10.614c-0.523,2.104-1.349,4.05-2.107,6.024
				c0.397,0.85,0.936,1.717,1.162,2.548c0.639,2.332,0.93,4.626,1.241,7.013c0.384,2.92,1.285,4.481,2.854,7.13
				c3.418,5.763,6.08,13.737,11.342,18.166c2.824,2.376,6.582,3.81,9.179,6.368c2.612,2.579,4.69,5.199,8.041,6.79
				c7.358,3.493,12.958,8.576,17.642,15.123c-0.601,13.781-12.188,19.257,28.717,4.57c14.734-5.29,35.119-25.834,49.994-30.716
				c19.439-6.378,29.919-12.021,49.455-18.524c13.811-4.6,24.928-11.517,37.596-17.927c9.588-4.853,20.109-8.909,26.788-17.872
				c4.126-5.533,6.853-10.975,8.255-16.313C334.506,202.535,323.656,200.224,312.851,197.79z"/>
		</g>
		<g>
			<path fill="#814A25" d="M276.827,144.656c-7.524-1.741-16.786-1.709-24.397-3.149c-8.926-1.688-18.566-2.958-27.652-2.661
				c-21.396,0.706-45.319,4.162-65.773,10.271c-34.856,10.412-81.271,40.354-101.475,70.625
				c-11.776,17.642-20.389,32.165-17.645,62.937c1.964,22.03,31.148,36.194,51.577,37.195c12.515,0.611,25.871-4.948,38.032-7.675
				c12.323-2.763,24.702-6.177,36.506-10.619c14.651-5.514,29.555-10.382,44.43-15.261c16.873-5.539,34.532-15.635,56.847-23.063
				c13.812-4.599,24.682-10.466,37.349-16.875c9.589-4.854,21.325-9.862,29.914-17.02c11.479-9.563,10.078-42.993,4.586-50.528
				c-5.37-7.369-28.727-19.284-36.705-23.534C293.367,150.476,289.982,147.702,276.827,144.656z"/>
			<path fill="#663D21" d="M304.625,246.38c9.589-4.854,21.325-9.862,29.914-17.02c11.479-9.563,10.078-42.993,4.586-50.528
				c-4.109-5.639-18.748-13.938-28.973-19.431L91.27,319.861c0.063,0.003,0.13,0.01,0.192,0.012
				c12.515,0.611,25.871-4.948,38.032-7.675c12.323-2.763,24.702-6.177,36.506-10.619c14.651-5.514,29.555-10.382,44.43-15.261
				c16.873-5.539,34.532-15.635,56.847-23.063C281.088,258.656,291.958,252.789,304.625,246.38z"/>
			<path fill="#A26634" d="M81.711,241.111c-0.035-0.918-0.879-2.43-0.774-3.205c0.401-2.999,5.802-6.038,8.029-7.711
				c12.354-9.275,24.787-18.616,37.351-27.604c18.249-13.056,40.746-21.07,61.773-28.389c14.929-5.194,29.69-8.909,45.164-11.963
				c14.989-2.958,36.573-7.628,47.914-19.386c3.193-3.305,2.086-4.002-0.843-6.36c-3.124-2.512-4.365-4.643-8.354-4.766
				c-3.928-0.121-4.533-0.455-8.18-2.079c-3.441-1.534-6.902-0.704-10.433-1.801c-1.468-0.454-3.149-2.238-4.392-2.517
				c-1.758-0.393-2.413,0.388-4.335,0.908c-3.557,0.963-8.009,0.639-11.706,0.799c-3.569,0.153-7.15,0.522-10.596,0.002
				c-3.38-0.512-6.229-1.822-9.636-0.278c-2.717,1.231-4.79,5.622-8.276,4.164c-1.788-0.75-1.486-2.748-3.239-3.454
				c-1.429-0.575-3.015,0.538-4.303,0.916c-4.644,1.369-5.903-0.058-10.089-0.288c-3.578-0.196-6.669,2.147-10.438,1.827
				c-3.445-0.292-5.008-1.192-8.277,1.07c-2.811,1.947-4.156,4.803-7.556,5.778c-3.073,0.879-5.634,0.653-8.627,1.87
				c-6.142,2.491-12.314,3.015-18.361,6.376c-5.606,3.119-10.877,7.535-16.554,10.354c-3.907,1.941-5.995,2.553-9.338,5.499
				c-3.088,2.723-6.387,4.798-9.732,7.275c-5.995,4.437-11.516,8.549-15.385,15.024c-1.992,3.331-4.297,5.44-6.857,8.277
				c-2.367,2.621-3.575,6.05-5.736,8.732c-2.313,2.871-5.654,2.089-8.008,4.204c-2.104,1.895-3.042,6.758-4.416,9.373
				c-2.925,5.565-6.305,10.383-8.529,16.192c-1.293,3.381-3.674,4.723-4.327,8.277c-0.556,3.02-1.19,5.595-1.887,8.556
				c-1.025,4.346-0.772,8.938-1.411,13.347c-0.42,2.902-1.236,5.733-0.91,8.688c0.789,7.183,5.828,14.417,10.641,19.537
				c11.125,11.848,27.766,18.028,43.919,16.041c12.439-1.527,23.273-3.339,35.437-6.066c12.322-2.764,24.702-6.178,36.506-10.617
				c14.65-5.518,36.453-12.818,51.327-17.701c19.44-6.378,29.919-12.02,49.456-18.523c13.811-4.601,24.928-11.518,37.596-17.927
				c9.588-4.853,20.108-8.91,26.787-17.872c13.65-18.308,12.096-35.633-2.647-51.473c-6.21-6.674-18.614-16.437-26.594-20.686
				c-9.053-4.823-12.437-7.598-25.593-10.642c-7.523-1.74-16.785-1.709-24.396-3.15c-8.928-1.689-18.567-2.958-27.653-2.659
				c-21.396,0.705-45.32,4.16-65.774,10.269c-34.856,10.412-73.659,38.612-93.86,68.882c-11.777,17.646-28.283,37.331-25.877,58.961
				c0.027,0.269,0.061,0.534,0.1,0.803"/>
			<g>
				<path fill="#C8A580" d="M274.773,136.852c-1.88-0.43-3.749-1.081-5.796-1.34c-1.957-0.245-3.817-1.889-5.828-2.073
					c-2.007-0.182-4.108,0.658-6.07,0.447c-2.049-0.221-4.067-0.383-5.961-0.735c-2.194-0.41-4.457-0.604-6.719-0.944
					c-2.229-0.336-4.533,0.015-6.789-0.22c-2.258-0.234-4.45-0.732-6.699-0.833c-2.284-0.101-4.51-0.275-6.746-0.203
					c-2.143,0.069-4.338-0.458-6.527-0.332c-2.147,0.122-4.274,0.807-6.454,0.983c-2.151,0.174-4.396-0.494-6.566-0.269
					c-2.151,0.225-4.28,0.781-6.441,1.056c-2.149,0.273-4.341,0.337-6.489,0.66c-2.147,0.323-4.08,1.938-6.215,2.311
					c-2.146,0.376-4.604-0.943-6.725-0.518c-2.14,0.43-4.024,2.041-6.127,2.522c-2.133,0.488-4.524-0.109-6.606,0.431
					c-2.124,0.552-4.047,1.809-6.104,2.414c-2.015,0.593-3.819,1.911-5.856,2.621c-1.988,0.693-4.27,0.661-6.27,1.458
					c-1.958,0.781-3.454,2.686-5.417,3.563c-1.929,0.861-4.668,0.047-6.594,0.996c-1.897,0.936-3.646,2.255-5.533,3.27
					c-1.868,1.004-3.01,3.319-4.858,4.396c-1.834,1.067-4.556,0.686-6.366,1.821c-1.801,1.129-2.811,3.498-4.58,4.689
					c-1.767,1.188-3.241,2.757-4.971,4.001c-1.73,1.246-3.404,2.516-5.09,3.813c-1.691,1.302-3.631,2.248-5.271,3.599
					c-1.65,1.358-3.243,2.748-4.835,4.15c-1.607,1.416-3.168,2.839-4.708,4.294c-1.559,1.473-3.561,2.464-5.043,3.972
					c-1.505,1.532-2.848,3.198-4.268,4.761c-1.446,1.593-3.065,3.017-4.417,4.637c-1.379,1.654-2.096,3.798-3.365,5.475
					c-1.302,1.721-2.505,3.448-3.682,5.187c-1.196,1.767-2.932,3.252-4.206,5.111c-1.22,1.778-3.012,3.231-4.255,5.085
					c-1.212,1.807-2.153,3.839-3.345,5.707c-1.179,1.846-1.329,4.329-2.445,6.227c-1.118,1.898-3.465,3.11-4.48,5.051
					c-1.024,1.963-1.04,4.407-1.918,6.402c-0.895,2.035-1.15,4.231-1.844,6.29c-0.712,2.109-2.688,3.821-3.139,5.944
					c-0.463,2.173,0.372,4.492,0.234,6.666c-0.14,2.199,0.13,4.249,0.375,6.438c0.239,2.117,0.533,4.02,1.183,5.987
					c0.659,1.995,0.558,4.277,1.604,6.098c1.034,1.804,3.253,2.717,4.63,4.326c1.343,1.569,1.381,4.517,3.016,5.882
					c1.581,1.32,3.484,2.514,5.309,3.625c1.758,1.071,3.752,2.039,5.705,2.897c1.885,0.828,4.321,0.362,6.363,0.978
					c1.973,0.596,3.751,2.249,5.848,2.633c2.029,0.37,4.275-0.517,6.4-0.355c2.059,0.155,4.104-0.244,6.232-0.296
					c2.063-0.051,4.095-0.01,6.209-0.266c2.387-0.289,4.865,0.661,7.197,0.464c2.381-0.2,4.675-1.148,7.021-1.324
					c2.368-0.178,4.843,0.935,7.2,0.711c2.347-0.225,4.692-0.868,7.053-1.211c2.313-0.337,4.503-1.59,6.853-2.109
					c2.008-0.444,4.238,0.033,6.246-0.447c2.001-0.479,3.916-1.362,5.913-1.88c1.993-0.519,3.936-1.259,5.919-1.819
					c1.984-0.562,3.905-1.337,5.872-1.944c1.972-0.608,4.268-0.251,6.218-0.91c1.956-0.662,3.689-1.997,5.618-2.712
					c1.96-0.727,3.585-2.755,5.771-3.572c2.009-0.75,4.206-1.242,6.347-2.042c2.04-0.762,4.097-1.626,6.209-2.41
					c2.066-0.768,4.091-1.726,6.184-2.494c2.092-0.77,4.43-0.875,6.502-1.626c2.123-0.769,4.066-1.969,6.12-2.697
					c2.155-0.764,4.664-0.349,6.692-1.043c2.207-0.756,4.245-1.68,6.234-2.322c2.137-0.691,4.17-1.367,6.111-2.043
					c2.107-0.733,3.975-1.852,5.911-2.572c2.071-0.77,3.992-1.705,5.945-2.467c2.021-0.788,3.786-2.11,5.767-2.897
					c1.977-0.785,4.504-0.181,6.528-0.973c1.946-0.762,3.943-1.479,6.011-2.254c1.934-0.724,4.014-1.206,6.118-1.946
					c1.937-0.682,4.012-1.152,6.145-1.852c2.183-0.716,4.126-2.103,6.188-2.926c2.121-0.844,4.247-1.66,6.277-2.592
					c2.061-0.945,4.274-1.596,6.283-2.604c2.014-1.012,3.176-3.674,5.177-4.722c1.987-1.041,4.259-1.556,6.272-2.607
					c1.979-1.032,4.096-1.844,6.139-2.861c1.854-0.925,3.525-2.275,5.415-3.113c1.9-0.843,4.27-0.643,6.133-1.52
					c1.885-0.887,3.698-1.979,5.468-3.024c1.782-1.054,3.367-2.461,4.954-3.804c1.547-1.309,2.999-2.804,4.288-4.508
					c1.441-1.904,2.045-4.214,3.164-6.096c1.222-2.054,2.001-4.092,2.839-6.117c0.909-2.197,1.94-4.133,2.396-6.294
					c0.484-2.292,0.912-4.456,0.887-6.705c-0.027-2.285,0.401-4.658-0.154-6.897c-0.536-2.165-2.603-3.787-3.635-5.907
					c-0.961-1.978-1.762-4.006-3.156-5.941c-1.278-1.775-2.713-3.45-4.355-5.189c-1.332-1.411-2.79-3.05-4.677-4.575
					c-1.632-1.319-3.479-2.535-5.341-3.852c-1.787-1.263-3.004-3.455-4.849-4.64c-1.917-1.231-3.754-2.57-5.565-3.638
					c-2.093-1.232-4.24-2.071-5.945-2.966c-2.27-1.192-3.909-2.731-5.703-3.701c-2.041-1.103-4.55-0.908-6.683-1.827
					c-1.862-0.803-3.545-2.646-6.016-3.388C279.87,136.362,277.289,137.426,274.773,136.852z"/>
			</g>
			<g>
				<path fill="#D7B994" d="M272.141,142.2c-2.373-0.523-4.581-2.995-7.202-3.27c-2.516-0.264-5.006-1.504-7.528-1.739
					c-2.621-0.245-5.287,1.02-7.678,0.589c-2.786-0.503-5.861,0.475-8.752,0.095c-2.852-0.376-5.478-3.695-8.346-3.878
					c-2.907-0.186-5.893,3.216-8.729,3.304c-2.553,0.08-5.114-0.022-7.731,0.138c-2.56,0.156-5.376-2.606-7.976-2.374
					c-2.564,0.229-4.888,3.104-7.47,3.406c-2.566,0.301-4.948,1.787-7.512,2.161c-2.566,0.374-5.813-3.462-8.355-3.017
					c-2.565,0.449-4.348,4.975-6.867,5.497c-2.558,0.532-5.338-0.18-7.828,0.426c-2.548,0.621-4.803,2.098-7.257,2.797
					c-2.445,0.696-5.701-1.011-8.181-0.142c-2.407,0.845-4.368,3.058-6.788,4.055c-2.367,0.974-4.129,3.301-6.492,4.409
					c-2.321,1.09-6.422-1.301-8.729-0.091c-2.277,1.195-2.953,5.396-5.199,6.699c-2.23,1.293-4.678,2.199-6.864,3.59
					c-2.181,1.388-4.478,2.59-6.601,4.064c-2.127,1.479-5.52,1.276-7.576,2.834c-2.071,1.567-4.069,3.348-6.054,4.985
					c-2.007,1.657-4.088,3.337-5.993,5.056c-1.938,1.748-3.435,4.047-5.252,5.85c-1.856,1.844-0.929,6.273-2.645,8.164
					c-1.764,1.943-5.791,1.841-7.388,3.821c-1.652,2.05-0.753,5.897-2.208,7.975c-1.447,2.068-4.51,3.181-6.074,5.464
					c-1.461,2.131-3.407,4.036-4.881,6.316c-1.424,2.203-2.842,4.47-4.198,6.776c-1.347,2.289-3.355,4.264-4.561,6.621
					c-1.221,2.39,0.502,6.061-0.495,8.485c-1.029,2.503-5.32,3.795-6.025,6.299c-0.739,2.618,1.281,5.746,0.994,8.322
					c-0.3,2.694-3.156,5.412-2.853,8.011c0.321,2.755,2.077,5.439,3.171,7.86c1.105,2.446,2.645,4.913,4.439,6.979
					c1.725,1.988,5.702,1.316,7.971,2.919c2.138,1.508,2.673,5.765,5.217,6.9c2.392,1.067,5.281,1.337,7.968,2.05
					c2.538,0.673,5.396-0.101,8.145,0.234c2.618,0.32,5.198,0.672,7.958,0.666c2.645-0.005,5.635,3.085,8.368,2.765
					c2.863-0.335,5.108-5.603,7.892-5.914c2.841-0.316,5.642-0.428,8.443-0.781c2.81-0.355,6.001,2.179,8.815,1.725
					c2.767-0.447,5.268-2.433,8.083-3.035c2.299-0.491,4.247-2.428,6.545-2.969c2.291-0.539,4.629-0.701,6.91-1.295
					c2.281-0.593,5.191,1.176,7.453,0.523c2.268-0.654,4.493-1.487,6.732-2.205c2.249-0.724,4.111-2.55,6.322-3.343
					c2.127-0.763,4.914-0.202,7.313-1.068c2.188-0.792,4.752-0.836,7.09-1.679c2.232-0.807,3.951-3.188,6.253-4.013
					c2.268-0.813,4.224-2.558,6.495-3.36c2.308-0.814,5.417,0.728,7.661-0.047c2.351-0.813,3.75-4.243,5.959-4.98
					c2.419-0.807,5.899,2.096,8.055,1.421c2.759-0.862,4.389-4.639,6.82-5.477c2.699-0.93,4.866-2.788,7.315-3.7
					c2.605-0.971,6.057,0.561,8.568-0.406c2.506-0.963,5.01-1.918,7.617-2.894c2.443-0.914,5.301-0.825,7.998-1.765
					c2.428-0.844,3.496-6.213,6.252-7.088c2.504-0.795,6.026,1.643,8.369,0.71c2.417-0.962,4.777-2.073,7.086-3.142
					c2.342-1.083,5.29-0.968,7.586-2.118c2.286-1.146,4.696-2.084,7.004-3.255c2.264-1.148,2.75-5.926,5.099-7.058
					c2.206-1.064,5.878,1.088,8.124,0.127c2.268-0.97,3.598-4.031,5.768-5.114c2.208-1.103,4.564-1.86,6.527-3.311
					c1.936-1.43,1.771-4.615,3.329-6.607c1.575-2.016,5.532-2.123,6.705-4.11c1.301-2.204,2.985-4.3,3.789-6.468
					c0.882-2.376-0.776-5.323-0.492-7.652c0.299-2.448,3.616-5.119,3.252-7.514c-0.358-2.353-5.595-3.371-6.596-5.668
					c-0.928-2.129-1.319-4.214-2.801-6.292c-1.338-1.878-0.642-5.586-2.433-7.42c-1.561-1.6-3.546-3.739-5.865-5.479
					c-1.994-1.497-6.225-0.063-8.456-1.514c-2.225-1.445-3.257-4.762-5.419-6.021c-2.5-1.456-3.924-4.626-5.912-5.636
					c-2.993-1.521-6.87,0.253-9.176-0.901c-2.42-1.211-4.977-1.3-8.089-2.315C277.795,144.42,275.49,142.939,272.141,142.2z"/>
			</g>
			<g>
				<circle fill="#AE845F" cx="208.128" cy="234.51" r="5.149"/>
				<circle fill="#AE845F" cx="83.329" cy="252.806" r="3.419"/>
				<circle fill="#AE845F" cx="190.924" cy="172.56" r="3.059"/>
				<circle fill="#AE845F" cx="132.089" cy="182.817" r="2.159"/>
				<circle fill="#AE845F" cx="288.442" cy="166.083" r="3.418"/>
				<circle fill="#AE845F" cx="306.974" cy="205.127" r="1.44"/>
				<circle fill="#AE845F" cx="132.089" cy="269.54" r="2.159"/>
				<path fill="#AE845F" d="M110.497,213.044c-0.104,3.459,0.179,4.99,3.948,5.405c2.232,0.245,5.808-0.438,5.713-3.193
					c-0.348-0.088-0.693,0.032-1.023-0.053"/>
				<path fill="#AE845F" d="M179.948,198.649c0.911,3.464,0.073,7.97-2.519,10.435"/>
				<path fill="#AE845F" d="M156.198,172.74c0.284,2.008,1.637,3.484,3.599,3.958"/>
				<path fill="#AE845F" d="M232.846,154.387c2.067,1.843,5.504,5.886,3.238,8.637"/>
				<path fill="#AE845F" d="M233.926,199.73c-1.77,4.51,1.241,12.231,6.478,12.953"/>
				<path fill="#AE845F" d="M272.789,204.766c-1.523,2.642-1.404,10.963,2.518,11.154"/>
				<path fill="#AE845F" d="M261.633,178.498c-1.015,2.222,0.759,4.359,2.88,5.037"/>
				<path fill="#AE845F" d="M291.861,183.895c-0.324,2.847,2.015,4.969,4.679,5.398"/>
				<path fill="#AE845F" d="M313.093,181.017c1.011,1.816,4.229,5.217,2.157,6.838"/>
				<path fill="#AE845F" d="M267.752,146.112c1.484,0.38,12.457,1.104,9.355,5.038"/>
				<path fill="#AE845F" d="M151.161,247.948c-2.493,5.535,3.41,7.571,7.917,5.758"/>
				<path fill="#AE845F" d="M96.464,275.296c0.129,2.167,2.072,3.985,4.317,3.959"/>
				<path fill="#AE845F" d="M100.062,246.869c0.121,2.861,2.665,5.631,5.397,6.117"/>
				<path fill="#AE845F" d="M79.91,219.882c-1.029,1.568-1.784,3.251-2.264,5.045c0.993,1.193,2.208,2.384,3.703,2.87"/>
				<path fill="#AE845F" d="M61.918,251.186c-0.479,2.823-1.729,6.438,0.361,8.997"/>
				<path fill="#AE845F" d="M109.778,184.257c-2.861,1.538-3.507,6.91-3.238,10.073"/>
				<path fill="#AE845F" d="M165.195,152.949c2.134-0.754,12.409-2.068,11.516,1.079"/>
				<path fill="#AE845F" d="M212.335,142.873c2.546,0.152,8.911-0.521,8.636,3.599"/>
				<path fill="#AE845F" d="M212.695,196.131c-1.754,2.783-0.662,8.723,3.598,8.276"/>
				<path fill="#AE845F" d="M182.466,253.346c0.327,3.305,7.88,4.374,8.997,1.438"/>
				<path fill="#AE845F" d="M141.446,211.244c-0.637,4.605,3.977,7.986,7.556,10.076"/>
				<path fill="#AE845F" d="M244.721,229.596c2.133,1.12,4.274,6.452,0.719,6.836"/>
				<path fill="#AE845F" d="M220.251,169.141c3.424-1.471,7.905,1.078,7.197,5.039"/>
			</g>
			<path opacity="0.3" fill="#BB9369" d="M267.723,251.492c13.811-4.601,24.928-11.518,37.596-17.927
				c9.588-4.853,20.108-8.91,26.787-17.872c13.65-18.308,12.096-35.633-2.647-51.473c-6.21-6.674-18.614-16.437-26.594-20.686
				c-9.053-4.823-12.437-7.598-25.593-10.642c-0.646-0.149-1.322-0.271-1.993-0.397c-0.905-0.446-1.944-0.726-3.308-0.768
				c-3.928-0.121-4.533-0.455-8.18-2.079c-3.441-1.534-6.902-0.704-10.433-1.801c-1.21-0.375-2.561-1.643-3.695-2.236
				l-82.462,162.006c14.648-5.505,36.277-12.749,51.065-17.603C237.707,263.637,248.186,257.996,267.723,251.492z"/>
			<path opacity="0.2" fill="#16100E" d="M307.789,192.729c-17.264-3.892-34.707-6.857-52.158-9.824
				c-5.293-0.899-10.592-1.771-15.893-2.603c-11.256-1.178-22.512-2.352-33.766-3.533c-12.564-0.146-25.123,0.234-37.657,1.245
				c-7.481,1.312-14.973,2.552-22.497,3.557c-4.861,2.718-9.73,5.382-14.475,8.081c-7.704,4.381-15.436,8.784-23.416,12.645
				c-5.105,2.47-10.445,4.892-15.356,2.829c-2.438,3.305-4.327,7.021-3.456,11.26c0.67,3.253,1.914,7.286,1.087,10.614
				c-0.522,2.104-1.348,4.049-2.106,6.023c0.396,0.851,0.935,1.717,1.162,2.548c0.639,2.333,0.929,4.627,1.24,7.013
				c0.385,2.921,1.285,4.482,2.855,7.131c3.417,5.763,6.08,13.737,11.342,18.165c2.824,2.377,6.582,3.81,9.179,6.369
				c2.612,2.578,4.69,5.199,8.04,6.789c7.359,3.493,12.959,8.577,17.643,15.124c-0.601,13.78-12.189,19.256,28.717,4.569
				c14.734-5.29,35.119-25.833,49.993-30.716c19.44-6.378,29.919-12.02,49.456-18.523c13.811-4.601,24.928-11.518,37.596-17.927
				c9.588-4.853,20.108-8.91,26.787-17.872c4.126-5.533,6.854-10.975,8.256-16.313C329.446,197.474,318.595,195.164,307.789,192.729
				z"/>
		</g>
	</g>
	<g>
		<g opacity="0.3">
			<path d="M388.682,209.482c-10.353-5.348-28.292-1.795-40.316-4.492c-12.181-2.732-24.803-4.997-37.537-6.262
				c-15.808-1.571-31.446-3.728-47.068-5.859c-17.718-2.42-38.81-1.72-62.313-4.839c-14.543-1.932-27.319-1.759-41.959-1.882
				c-11.076-0.093-24.089-0.904-35.674,1.131c-15.484,2.717-26.796,3.163-28.359,11.42c-8.376,44.268,7.738,50.563,12.057,56.876
				c4.901,7.166,6.157,10.576,15.62,18.006c5.413,4.247,13.361,7.839,19.025,11.896c2.977,2.131,5.47,4.447,8.03,6.655
				c4.679-1.382,9.445,0.242,11.216,3.725c0.716,1.41,1.363,2.849,1.871,4.312c9.958,4.018,21.774,7.906,33.747,11.151
				c0.59,0.01,1.169,0.058,1.729,0.157c4.619-1.702,10.3-0.238,12.032,3.269c5.65,1.279,11.178,2.365,16.388,3.202
				c3.448,0.551,7.038,1.014,10.738,1.385c2.121-0.429,4.238-0.222,6.046,0.52c5.317,0.386,10.821,0.598,16.445,0.628
				c0.677-0.526,1.347-1.062,2.001-1.616c4.414-3.743,11.039-2.066,13.809,1.212c0.018,0.007,0.047,0.015,0.073,0.021
				c9.372-0.495,18.872-1.471,28.17-2.938c2.113-0.392,4.227-0.802,6.329-1.262c0.515-0.674,1.073-1.338,1.719-1.983
				c2.102-2.103,5.726-4.08,9-3.645c2.101,0.281,4.568,0.537,7.234,0.708c1.612-0.543,3.213-1.111,4.802-1.712
				c2.23-0.837,4.378-0.997,6.324-0.622c1.597-0.545,3.168-1.117,4.714-1.699c0.504-0.261,1.01-0.505,1.529-0.723
				c5.99-6.135,15.634-11.264,24.438-11.286c13.106-7.353,15.726-15.779,27.149-31.363
				C404.954,253.66,405.581,218.211,388.682,209.482z"/>
			<path d="M260.4,320.479c0.677-0.526,1.347-1.062,2.001-1.616c4.414-3.743,11.039-2.066,13.809,1.212
				c0.018,0.007,0.047,0.015,0.073,0.021c9.372-0.495,18.872-1.471,28.17-2.938c2.113-0.392,4.227-0.802,6.329-1.262
				c0.515-0.674,1.073-1.338,1.719-1.983c2.102-2.103,5.726-4.08,9-3.645c2.101,0.281,4.568,0.537,7.234,0.708
				c1.612-0.543,3.213-1.111,4.802-1.712c2.23-0.837,4.378-0.997,6.324-0.622c1.597-0.545,3.168-1.117,4.714-1.699
				c0.504-0.261,1.01-0.505,1.529-0.723c5.99-6.135,15.634-11.264,24.438-11.286c13.106-7.353,22.022-14.119,33.447-29.7
				c7.264-9.914,9.261-49.247-15.308-55.753c-0.729-0.194-1.372-0.652-2.103-0.927L245.731,319.963
				C250.496,320.272,255.395,320.454,260.4,320.479z"/>
			<path d="M215.577,261.447c0.997-1.271,2.981-1.77,4.427-1.109c1.447,0.657,1.811,2.225,0.808,3.498
				c-0.995,1.272-2.979,1.766-4.425,1.106C214.943,264.285,214.578,262.717,215.577,261.447z"/>
			<path d="M272.789,277.053c0.707-0.897,2.105-1.248,3.125-0.784c1.022,0.467,1.278,1.572,0.571,2.469
				c-0.705,0.899-2.103,1.249-3.127,0.781C272.34,279.057,272.083,277.95,272.789,277.053z"/>
			<path d="M127.942,228.102c1.117-1.419,3.332-1.978,4.951-1.239c1.613,0.738,2.018,2.488,0.901,3.908
				c-1.115,1.421-3.333,1.977-4.948,1.24S126.824,229.523,127.942,228.102z"/>
			<path d="M136.858,192.248c0.471-0.6,1.401-0.832,2.084-0.523c0.683,0.312,0.849,1.049,0.383,1.646
				c-0.471,0.6-1.404,0.834-2.088,0.523C136.557,193.581,136.389,192.846,136.858,192.248z"/>
			<path d="M311,263.572c2.135-2.563,2.8-3.825-0.185-5.611c-1.764-1.054-5.229-1.939-6.778,0.174
				c0.245,0.201,0.611,0.246,0.844,0.439"/>
			<path d="M248.034,276.063c0.946-1.618,0.661-3.257-0.74-4.382"/>
			<path d="M171.555,259.952c-0.684-2.196-1.233-6.581,2.334-7.769"/>
			<path d="M197.443,225.398c4.188-2.705,6.173-9.695,2.116-12.283"/>
			<path d="M167.149,206.429c2.865-1.393,7.683-7.704,4.441-9.381"/>
			<path d="M161.163,230.56c2.187-1.273,1.929-3.576,0.515-4.916"/>
			<path d="M138.478,214.692c1.96-2.013,1.208-4.524-0.817-5.888"/>
			<path d="M118.593,208.57c0.21-1.762-0.538-5.582,2.198-5.991"/>
			<path d="M136.775,252.552c-1.048-0.868-10.015-5.7-5.035-7.449"/>
			<path d="M341.233,270.371c1.812-0.781,3.451-1.756,4.922-2.92c-0.146-1.282-0.48-2.654-1.473-3.605"/>
			<path d="M375.153,253.828c2.082-1.938,5.287-4.167,5.013-6.912"/>
			<path d="M294.59,285.523c3.363-0.042,7.091-3.835,8.731-6.318"/>
			<path d="M228.627,287.45c-2.269-0.265-11.848-3.288-9.219-5.308"/>
			<path d="M182.305,276.63c-2.091-1.109-7.937-3.089-5.264-6.081"/>
			<path d="M213.496,236.398c3.145-1.413,5.726-6.31,1.813-7.636"/>
			<path d="M205.864,198.699c-1.162-1.676,0.157-6.527,3.43-5.429"/>
			<path d="M191.061,253.761c-3.8-0.229-6.129-3.898-3.181-6.603"/>
		</g>
		<g>
			<path fill="#814A25" d="M383.621,204.422c-10.354-5.348-28.293-1.796-40.316-4.493c-12.182-2.732-24.803-4.996-37.537-6.261
				c-15.808-1.571-31.446-3.729-47.068-5.859c-17.718-2.42-38.811-1.72-62.314-4.839c-14.543-1.933-27.318-1.759-41.959-1.883
				c-11.076-0.092-24.088-0.903-35.674,1.132c-15.484,2.717-26.795,3.163-28.359,11.419c-8.376,44.269,7.738,50.563,12.057,56.877
				c4.902,7.166,6.158,10.575,15.621,18.005c5.412,4.248,13.361,7.84,19.025,11.896c2.977,2.131,5.47,4.447,8.03,6.655
				c4.679-1.382,9.445,0.241,11.216,3.725c0.716,1.409,1.363,2.848,1.871,4.312c9.957,4.017,21.774,7.906,33.747,11.15
				c0.589,0.01,1.169,0.058,1.729,0.157c4.62-1.702,10.301-0.237,12.033,3.27c5.649,1.279,11.177,2.365,16.388,3.201
				c3.447,0.551,7.038,1.014,10.738,1.386c2.121-0.43,4.238-0.222,6.046,0.52c5.317,0.385,10.82,0.597,16.444,0.627
				c0.677-0.526,1.348-1.062,2.002-1.616c4.414-3.742,11.038-2.065,13.808,1.212c0.019,0.007,0.048,0.016,0.073,0.022
				c9.372-0.495,18.873-1.472,28.17-2.938c2.113-0.392,4.227-0.802,6.33-1.263c0.514-0.673,1.073-1.337,1.719-1.982
				c2.102-2.103,5.726-4.08,8.999-3.645c2.102,0.281,4.568,0.537,7.235,0.707c1.612-0.543,3.213-1.111,4.801-1.711
				c2.231-0.837,4.379-0.997,6.324-0.622c1.598-0.545,3.168-1.117,4.714-1.699c0.505-0.261,1.011-0.505,1.529-0.723
				c5.991-6.136,15.635-11.265,24.438-11.287c13.107-7.352,15.727-15.778,27.15-31.362
				C399.894,248.598,400.52,213.15,383.621,204.422z"/>
			<path fill="#663D21" d="M255.338,315.418c0.677-0.526,1.348-1.062,2.002-1.616c4.414-3.742,11.038-2.065,13.808,1.212
				c0.019,0.007,0.048,0.016,0.073,0.022c9.372-0.495,18.873-1.472,28.17-2.938c2.113-0.392,4.227-0.802,6.33-1.263
				c0.514-0.673,1.073-1.337,1.719-1.982c2.102-2.103,5.726-4.08,8.999-3.645c2.102,0.281,4.568,0.537,7.235,0.707
				c1.612-0.543,3.213-1.111,4.801-1.711c2.231-0.837,4.379-0.997,6.324-0.622c1.598-0.545,3.168-1.117,4.714-1.699
				c0.505-0.261,1.011-0.505,1.529-0.723c5.991-6.136,15.635-11.265,24.438-11.287c13.107-7.352,22.023-14.118,33.447-29.7
				c7.265-9.913,9.262-49.247-15.307-55.752c-0.73-0.195-1.373-0.652-2.104-0.928L240.669,314.902
				C245.436,315.212,250.334,315.393,255.338,315.418z"/>
			<path fill="#A26634" d="M347.189,248.621c-0.515,0.707-0.687,2.175-1.235,2.719c-2.116,2.102-8.535,2.278-11.438,2.667
				c-16.06,2.159-32.23,4.339-48.301,6.198c-23.347,2.698-47.351-0.053-69.685-2.756c-15.852-1.918-30.687-4.888-45.741-8.633
				c-14.588-3.624-35.83-8.536-52.493-4.116c-4.687,1.243-4.151,2.199-3.038,5.119c1.186,3.112,0.99,5.2,4.335,6.852
				c3.29,1.624,3.609,2.11,5.773,4.759c2.039,2.498,5.492,3.228,7.867,5.429c0.989,0.914,1.37,2.916,2.27,3.609
				c1.276,0.982,2.301,0.652,4.252,1.01c3.612,0.664,7.233,2.645,10.493,3.969c3.146,1.278,6.432,2.399,9.074,4.138
				c2.592,1.703,4.258,3.803,8.086,3.973c3.057,0.131,7.426-2.362,9.552,0.094c1.085,1.264-0.358,2.649,0.729,3.868
				c0.881,0.989,2.9,0.771,4.225,0.987c4.788,0.784,5.023,2.348,8.471,4.158c2.945,1.545,6.978,0.987,10.017,2.702
				c2.774,1.563,3.583,2.852,7.719,2.425c3.56-0.371,6.399-1.991,9.887-1.399c3.15,0.537,5.21,1.707,8.491,1.96
				c6.732,0.521,12.33,2.543,19.495,2.37c6.646-0.159,13.771-1.425,20.299-1.33c4.49,0.063,6.644,0.421,11.244-0.491
				c4.253-0.845,8.307-1.119,12.638-1.682c7.754-0.998,14.913-1.938,22.058-5.298c3.677-1.731,6.896-2.418,10.767-3.553
				c3.578-1.05,6.637-3.159,10.077-4.335c3.677-1.258,6.076,0.635,9.341-0.04c2.924-0.601,6.603-3.897,9.326-5.329
				c5.795-3.049,11.537-5.354,16.877-8.861c3.106-2.038,5.939-2.117,8.601-4.54c2.263-2.055,4.328-3.747,6.679-5.703
				c3.447-2.869,5.943-6.426,9.098-9.495c2.077-2.02,4.453-3.833,5.916-6.184c3.573-5.717,3.535-13.13,2.445-18.865
				c-2.518-13.263-13.111-24.412-28.116-29.225c-11.556-3.706-21.904-6.571-33.931-9.268c-12.184-2.732-24.804-4.998-37.537-6.262
				c-15.807-1.573-38.794-4.588-54.416-6.724c-20.415-2.786-32.725-2.633-53.301-5.364c-14.544-1.93-28.152-1.067-42.791-1.187
				c-11.08-0.091-22.487-1.143-33.506,2.995c-22.516,8.447-31.428,22.1-28.173,39.778c1.37,7.45,6.217,19.643,10.535,25.958
				c4.901,7.164,6.156,10.575,15.621,18.003c5.411,4.25,13.361,7.841,19.024,11.897c6.645,4.756,14.148,9.477,22.104,12.804
				c18.738,7.823,41.263,14.563,62.393,17.952c36.002,5.773,85.9-0.303,121.103-15.202c20.518-8.681,46.291-17.057,57.028-34.279
				c0.129-0.215,0.258-0.425,0.387-0.642"/>
			<g>
				<path fill="#C8A580" d="M119.381,252.531c1.369,1.066,2.972,2.055,4.589,3.057c1.522,0.943,3.692,0.89,5.297,1.807
					c1.599,0.915,3.272,1.732,4.815,2.651c1.63,0.969,3.041,2.295,4.459,3.304c1.665,1.186,3.249,2.535,5.018,3.693
					c1.723,1.13,3.495,2.198,5.303,3.262c1.788,1.051,3.484,2.264,5.344,3.21c1.857,0.945,3.787,1.705,5.703,2.507
					c1.922,0.804,3.754,1.913,5.75,2.691c1.948,0.759,3.728,2.061,5.736,2.791c1.971,0.717,4.33,0.395,6.348,1.079
					c1.991,0.675,3.76,2.074,5.788,2.714c2.009,0.633,3.992,1.421,6.028,2.016c2.027,0.591,4.461-0.267,6.506,0.282
					c2.045,0.548,4.084,1.028,6.136,1.529c2.062,0.503,3.674,2.923,5.733,3.374c2.076,0.455,4.543-1.02,6.607-0.622
					c2.092,0.402,3.885,2.387,5.954,2.726c1.937,0.318,4.088-0.595,6.103-0.347c1.951,0.241,3.875,0.958,5.891,1.135
					c1.963,0.173,3.975-0.042,5.99,0.07c1.974,0.11,3.942,0.785,5.958,0.839c1.978,0.052,3.981-0.605,5.993-0.607
					c1.982,0,3.96-0.283,5.969-0.337c1.984-0.053,4.023,1.06,6.027,0.957c1.985-0.101,3.893-1.55,5.891-1.698
					c1.984-0.148,4.008,0.229,6,0.035c1.984-0.193,4.071,0.486,6.055,0.246c1.982-0.239,3.842-1.436,5.817-1.722
					c1.978-0.284,3.965-0.463,5.932-0.792c1.974-0.331,4.034-0.17,5.989-0.545c1.968-0.378,3.929-0.795,5.873-1.217
					c1.961-0.425,4.014-0.473,5.943-0.943c1.952-0.475,3.826-1.267,5.739-1.786c1.942-0.528,4.013-0.623,5.907-1.196
					c1.93-0.583,3.424-2.493,5.299-3.123c1.912-0.644,3.803-1.242,5.65-1.933c1.895-0.709,3.646-1.655,5.463-2.412
					c1.844-0.769,3.979-0.985,5.92-1.783c1.862-0.767,4.109-0.716,6.029-1.519c1.871-0.781,3.541-2.119,5.438-2.941
					c1.871-0.813,3.273-2.694,5.142-3.553c1.864-0.857,3.978-1.162,5.808-2.072c1.848-0.92,3.738-1.726,5.521-2.706
					c1.816-0.999,3.651-1.93,5.369-2.999c1.77-1.101,3.638-2.025,5.268-3.209c1.695-1.229,3.625-2.185,5.13-3.511
					c1.575-1.387,2.242-3.655,3.565-5.158c1.385-1.571,2.52-3.196,3.579-4.904c1.12-1.802,2.545-3.342,3.162-5.198
					c0.657-1.976,1.198-4.011,1.313-6.006c0.116-2.029-1.273-3.889-1.691-5.892c-0.406-1.95-0.827-3.751-1.715-5.632
					c-0.842-1.783-0.949-4.046-2.201-5.729c-1.172-1.577-2.15-3.567-3.663-5.025c-1.416-1.363-4.108-1.327-5.808-2.562
					c-1.592-1.156-2.332-3.795-4.162-4.816c-1.723-0.963-4.112-0.807-6.034-1.631c-1.818-0.779-3.794-1.214-5.781-1.854
					c-1.846-0.596-3.308-2.208-5.078-2.84c-1.817-0.646-3.812-0.718-5.585-1.375c-1.794-0.667-3.632-1.179-5.421-1.83
					c-1.785-0.649-3.522-1.431-5.341-2.038c-1.789-0.599-3.548-1.353-5.403-1.886c-1.802-0.517-3.573-1.326-5.471-1.757
					c-2.001-0.455-4.321,0.525-6.343,0.099c-2.011-0.423-3.84-1.736-5.869-2.127c-2.019-0.39-4.031-0.845-6.067-1.197
					c-2.028-0.351-3.964-1.332-6.004-1.642c-2.037-0.31-4.226,0.434-6.271,0.17c-2.044-0.262-3.999-1.319-6.05-1.532
					c-1.882-0.195-3.849-0.701-5.932-0.913c-1.921-0.195-4.093,1.348-6.14,1.141c-1.947-0.198-3.798-1.802-5.819-2.01
					c-1.967-0.2-4.097,0.92-6.097,0.712c-1.986-0.208-3.791-2.211-5.775-2.426c-2.001-0.214-4.061,0.189-6.026-0.03
					c-2.021-0.226-4.116,0.411-6.062,0.183c-2.043-0.24-4.086-0.106-6-0.35c-2.079-0.263-3.862-2.079-5.732-2.341
					c-1.99-0.28-4.03,0.432-5.877,0.204c-1.986-0.244-3.758-1.737-5.617-1.936c-1.977-0.21-4.028,0.933-5.908,0.757
					c-1.956-0.181-3.858-0.465-5.762-0.627c-1.927-0.164-3.748-1.421-5.678-1.584c-1.899-0.16-3.824-0.144-5.78-0.322
					c-1.877-0.172-3.891,0.691-5.866,0.485c-1.857-0.193-3.778-0.399-5.765-0.638c-1.848-0.223-3.641-1.388-5.632-1.659
					c-1.988-0.272-4.019-0.071-5.978-0.247c-1.99-0.178-3.985-0.027-5.955-0.126c-1.99-0.102-3.977,0.433-5.956,0.391
					c-1.984-0.042-3.951-0.139-5.937-0.145c-1.978-0.005-3.957-0.841-5.949-0.832c-1.972,0.009-3.954,0.605-5.952,0.607
					c-1.969,0.002-3.966,0.44-5.969,0.414c-2.157-0.028-4.327-0.282-6.464-0.391c-2.149-0.109-4.24-1.437-6.378-1.503
					c-2.146-0.066-4.282,0.756-6.427,0.859c-2.127,0.103-4.132,0.682-6.268,1.075c-2.061,0.381-4.369-0.125-6.443,0.642
					c-1.875,0.692-3.207,2.47-4.899,3.23c-1.829,0.822-4.338,0.118-5.953,1.02c-1.755,0.979-3.367,2.198-4.868,3.271
					c-1.636,1.168-2.584,3.101-3.918,4.378c-1.443,1.382-2.279,3.102-3.369,4.611c-1.152,1.598-3.292,2.591-4.047,4.33
					c-0.766,1.765-0.059,3.993-0.413,5.903c-0.342,1.849-0.372,3.629-0.326,5.612c0.041,1.854-0.75,3.829-0.368,5.8
					c0.307,1.592,1.178,3.314,1.898,5.215c0.622,1.637,0.606,3.705,1.427,5.43c0.786,1.651,2.114,3.102,2.995,4.714
					c0.91,1.67,1.502,3.513,2.417,5.016c1.054,1.729,2.958,2.743,3.882,4.07c1.268,1.823,2.58,3.204,3.563,4.662
					c1.109,1.643,1.269,3.799,2.583,5.348c1.118,1.315,2.967,2.139,4.635,3.647C116.626,249.358,117.619,251.158,119.381,252.531z"
					/>
			</g>
			<g>
				<path fill="#D7B994" d="M126.092,247.747c1.732,1.329,2.496,4.181,4.592,5.419c1.984,1.171,3.612,3.084,5.619,4.239
					c2.101,1.207,3.135,3.726,4.929,4.985c2.12,1.489,6.085,0.416,8.372,1.853c2.226,1.396,4.56,2.569,6.912,3.826
					c2.342,1.25,4.428,2.934,6.865,3.957c2.282,0.957,5.053,0.765,7.441,1.687c2.321,0.894,4.847,1.195,7.248,2.047
					c2.355,0.834,4.77,1.393,7.185,2.178c2.386,0.775,3.376,6.092,5.802,6.812c2.413,0.715,5.118,0.622,7.553,1.274
					c2.441,0.653,4.981,1.074,7.424,1.655c2.468,0.587,5.23-0.11,7.682,0.396c2.492,0.514,5.15-0.036,7.608,0.387
					c2.272,0.391,4.608,0.345,6.989,0.638c2.295,0.285,4.556,0.875,6.938,1.07c2.313,0.189,4.482,3.591,6.861,3.698
					c2.326,0.104,4.795-3.068,7.172-3.041c2.332,0.026,4.724,3.255,7.096,3.207c2.339-0.046,4.733-0.708,7.097-0.826
					c2.342-0.117,4.433-4.204,6.787-4.389c2.343-0.185,4.647-0.204,6.99-0.455c2.341-0.251,4.853,1.155,7.183,0.839
					c2.339-0.318,4.68-0.55,6.996-0.932c2.332-0.387,4.379-2.163,6.678-2.615c2.325-0.455,4.455-1.484,6.734-2.006
					c2.313-0.53,4.609-0.785,6.863-1.381c2.303-0.608,5.76,2.89,7.985,2.213c2.283-0.694,3.581-4.424,5.771-5.188
					c2.258-0.79,4.476-1.504,6.62-2.367c2.147-0.864,5.225,0.238,7.551-0.716c2.183-0.895,4.232-2.351,6.507-3.326
					c2.196-0.942,3.983-2.937,6.204-3.957c2.195-1.01,5.131-0.579,7.294-1.668c2.178-1.098,2.805-5.082,4.894-6.263
					c2.143-1.211,4.861-1.301,6.85-2.604c2.078-1.362,5.131-1.382,6.971-2.848c1.963-1.566,3.563-3.666,5.17-5.354
					c1.742-1.829,1.878-4.814,3.095-6.794c1.332-2.163,3.7-3.776,4.2-5.989c0.537-2.373-2.344-4.617-2.693-6.971
					c-0.342-2.299,2.95-5.842,1.834-8.048c-1.03-2.033-2.809-4.308-4.443-6.202c-1.486-1.725-5.231-1.425-7.178-2.989
					c-1.782-1.435-3.182-3.5-5.318-4.765c-1.979-1.173-3.516-3.597-5.772-4.597c-2.114-0.937-4.764-0.991-7.102-1.755
					c-2.128-0.694-4.11-1.706-6.181-2.395c-2.107-0.7-4.038-1.896-6.124-2.575c-2.096-0.682-4.55-0.265-6.663-0.909
					c-2.093-0.64-4.06-1.817-6.206-2.404c-2.096-0.574-4.8,1.191-6.983,0.681c-2.28-0.533-4.524-1.15-6.833-1.645
					c-2.293-0.491-4.364-2.033-6.68-2.479c-2.306-0.443-4.534-1.339-6.857-1.73c-2.317-0.391-4.627-0.894-6.958-1.225
					c-2.329-0.331-4.725-0.169-7.063-0.433c-2.269-0.256-4.888,1.083-7.451,0.8c-2.34-0.259-4.791-0.41-7.288-0.688
					c-2.385-0.265-4.362-4.634-6.816-4.911c-2.42-0.274-4.87-0.36-7.287-0.643c-2.454-0.287-5.138,1.539-7.517,1.246
					c-2.496-0.307-4.729-2.157-7.061-2.467c-2.56-0.34-5.078,0.058-7.332-0.278c-2.454-0.364-4.614-2.115-6.846-2.398
					c-2.443-0.311-5.229,3.28-7.489,3.038c-2.408-0.258-4.59-1.817-6.896-2.036c-2.355-0.225-4.863,1.454-7.222,1.229
					c-2.3-0.217-4.512-1.789-6.921-2.044c-2.257-0.239-4.573-0.736-7.016-1.041c-2.232-0.277-4.663,0.022-7.118-0.334
					c-2.202-0.319-4.31-0.563-6.47-0.76c-2.204-0.203-4.15-4.075-6.328-4.184c-2.199-0.109-4.535,3.425-6.725,3.377
					c-2.189-0.047-4.344-2.227-6.544-2.243c-2.183-0.018-4.396,2.712-6.606,2.691c-2.174-0.019-4.371-0.918-6.588-0.971
					c-2.548-0.062-4.926-3.288-7.444-3.442c-2.542-0.157-5.225,3.842-7.751,3.814c-2.531-0.027-4.994-1.604-7.521-1.271
					c-2.461,0.323-4.525,1.778-6.992,2.654c-2.277,0.808-5.651-1.305-7.639-0.387c-2.206,1.019-2.499,5.334-4.346,6.486
					c-2.07,1.292-3.681,2.462-5.295,3.92c-1.797,1.622-3.482,2.729-4.717,4.556c-1.316,1.949-4.396,3.008-5.067,5.188
					c-0.663,2.153,1.812,4.778,1.782,7.156c-0.027,2.188-0.77,4.29-0.258,6.667c0.394,1.827-1.18,4.788-0.213,7.021
					c0.826,1.912,5.04,2.339,6.098,4.306c1.049,1.953,1.945,3.883,3.049,5.671c1.268,2.053,0.756,5.044,1.852,6.568
					c1.699,2.363,4.997,2.775,6.32,4.578c1.357,1.851,0.92,5.01,3.009,6.997C120.436,246.256,123.727,245.933,126.092,247.747z"/>
			</g>
			<g>
				<path fill="#AE845F" d="M230.633,202.213c1.685-2.14,5.02-2.971,7.455-1.862c2.435,1.111,3.043,3.745,1.363,5.89
					c-1.683,2.139-5.021,2.976-7.453,1.863C229.563,206.992,228.95,204.357,230.633,202.213z"/>
				<path fill="#AE845F" d="M349.79,237.851c1.116-1.419,3.332-1.973,4.951-1.235c1.614,0.736,2.017,2.486,0.903,3.905
					c-1.116,1.423-3.332,1.976-4.947,1.241C349.079,241.025,348.673,239.273,349.79,237.851z"/>
				<path fill="#AE845F" d="M210.517,256.385c0.997-1.27,2.98-1.769,4.426-1.108c1.448,0.657,1.812,2.225,0.809,3.497
					c-0.995,1.273-2.979,1.767-4.426,1.106C209.882,259.223,209.518,257.656,210.517,256.385z"/>
				<path fill="#AE845F" d="M267.728,271.992c0.707-0.896,2.106-1.247,3.126-0.783c1.022,0.466,1.277,1.572,0.57,2.469
					c-0.704,0.898-2.102,1.248-3.126,0.781C267.279,273.997,267.023,272.889,267.728,271.992z"/>
				<path fill="#AE845F" d="M122.881,223.042c1.117-1.42,3.332-1.978,4.951-1.239c1.612,0.737,2.018,2.488,0.9,3.907
					c-1.114,1.421-3.332,1.978-4.947,1.241C122.17,226.214,121.764,224.463,122.881,223.042z"/>
				<path fill="#AE845F" d="M131.797,187.187c0.471-0.6,1.4-0.833,2.084-0.524c0.682,0.313,0.849,1.05,0.383,1.646
					c-0.471,0.6-1.405,0.833-2.088,0.522C131.496,188.52,131.328,187.785,131.797,187.187z"/>
				<path fill="#AE845F" d="M319.015,206.709c0.706-0.898,2.105-1.248,3.128-0.781c1.021,0.465,1.277,1.567,0.568,2.467
					c-0.702,0.896-2.102,1.247-3.123,0.782C318.57,208.712,318.313,207.605,319.015,206.709z"/>
				<path fill="#AE845F" d="M305.94,258.511c2.135-2.563,2.799-3.826-0.185-5.611c-1.764-1.054-5.23-1.939-6.778,0.174
					c0.244,0.201,0.611,0.246,0.844,0.439"/>
				<path fill="#AE845F" d="M237.961,242.227c1.266-2.962,4.652-6.028,8.33-6.872"/>
				<path fill="#AE845F" d="M242.974,271.003c0.945-1.618,0.661-3.257-0.74-4.383"/>
				<path fill="#AE845F" d="M166.493,254.89c-0.684-2.196-1.232-6.58,2.335-7.768"/>
				<path fill="#AE845F" d="M192.382,220.337c4.188-2.704,6.173-9.695,2.116-12.282"/>
				<path fill="#AE845F" d="M162.087,201.368c2.866-1.392,7.684-7.703,4.442-9.38"/>
				<path fill="#AE845F" d="M156.102,225.5c2.188-1.273,1.93-3.576,0.516-4.917"/>
				<path fill="#AE845F" d="M133.416,209.631c1.961-2.013,1.209-4.524-0.816-5.887"/>
				<path fill="#AE845F" d="M113.532,203.51c0.209-1.762-0.538-5.582,2.198-5.991"/>
				<path fill="#AE845F" d="M131.714,247.492c-1.049-0.869-10.016-5.7-5.036-7.449"/>
				<path fill="#AE845F" d="M291.768,216.357c5.404-3.193,1.555-7.03-3.373-7.426"/>
				<path fill="#AE845F" d="M354.774,217.129c1.172-1.68,0.58-3.807-1.357-4.664"/>
				<path fill="#AE845F" d="M334.878,237.122c1.59-2.2,1.05-5.279-1.003-6.714"/>
				<path fill="#AE845F" d="M336.172,265.309c1.811-0.78,3.451-1.756,4.922-2.919c-0.146-1.283-0.48-2.655-1.473-3.605"/>
				<path fill="#AE845F" d="M370.091,248.767c2.082-1.938,5.288-4.168,5.013-6.912"/>
				<path fill="#AE845F" d="M289.53,280.463c3.363-0.043,7.09-3.835,8.731-6.318"/>
				<path fill="#AE845F" d="M223.567,282.389c-2.27-0.265-11.849-3.288-9.219-5.309"/>
				<path fill="#AE845F" d="M177.244,271.568c-2.092-1.108-7.937-3.089-5.265-6.08"/>
				<path fill="#AE845F" d="M208.435,231.337c3.146-1.412,5.726-6.31,1.813-7.636"/>
				<path fill="#AE845F" d="M268.152,200.07c1.676-2.617-4.157-6.37-6.852-4.599"/>
				<path fill="#AE845F" d="M278.377,247.781c3.271-3.219,1.318-7.563-0.508-10.535"/>
				<path fill="#AE845F" d="M200.803,193.637c-1.162-1.676,0.156-6.527,3.43-5.428"/>
				<path fill="#AE845F" d="M186,248.701c-3.801-0.229-6.13-3.898-3.182-6.603"/>
			</g>
			<path opacity="0.3" fill="#BB9369" d="M322.998,288.368c3.174-0.932,5.946-2.693,8.93-3.901c0.478-0.173,0.957-0.341,1.43-0.518
				c3.517-1.068,5.879,0.702,9.059,0.044c2.924-0.601,6.603-3.897,9.326-5.329c5.795-3.049,11.537-5.354,16.877-8.861
				c3.106-2.038,5.939-2.117,8.601-4.54c0.651-0.59,1.288-1.149,1.919-1.699c7.571-4.571,14.063-9.943,18.256-16.67
				c0.129-0.215,0.258-0.425,0.387-0.642l-0.794,0.035c0.726-0.754,1.388-1.543,1.925-2.406c3.573-5.717,3.535-13.13,2.445-18.865
				c-2.518-13.263-13.111-24.412-28.116-29.225c-11.556-3.706-21.904-6.571-33.931-9.268c-10.186-2.286-20.677-4.233-31.283-5.551
				l-147.161,99.722c1.845,1.392,3.522,2.729,6.542,2.862c0.671,0.029,1.407-0.071,2.168-0.216c2.531,0.911,5.1,1.793,7.705,2.65
				c-0.057,0.524-0.026,1.039,0.408,1.527c0.881,0.989,2.9,0.771,4.225,0.987c4.788,0.784,5.023,2.348,8.471,4.158
				c2.945,1.545,6.978,0.987,10.017,2.702c2.774,1.563,3.583,2.852,7.719,2.425c3.56-0.371,6.399-1.991,9.887-1.399
				c3.15,0.537,5.21,1.707,8.491,1.96c6.732,0.521,12.33,2.543,19.495,2.37c6.646-0.159,13.771-1.425,20.299-1.33
				c4.49,0.063,6.644,0.421,11.244-0.491c4.253-0.845,8.307-1.119,12.638-1.682c7.754-0.998,14.913-1.938,22.058-5.298
				C315.908,290.189,319.127,289.503,322.998,288.368z"/>
		</g>
	</g>
</g>
</svg>
