<?xml version="1.0" encoding="utf-8"?>
<!-- Generator: Adobe Illustrator 16.0.0, SVG Export Plug-In . SVG Version: 6.00 Build 0)  -->
<!DOCTYPE svg PUBLIC "-//W3C//DTD SVG 1.1//EN" "http://www.w3.org/Graphics/SVG/1.1/DTD/svg11.dtd">
<svg version="1.1" id="Ebene_1" xmlns="http://www.w3.org/2000/svg" xmlns:xlink="http://www.w3.org/1999/xlink" x="0px" y="0px"
	 width="450px" height="450px" viewBox="0 0 450 450" enable-background="new 0 0 450 450" xml:space="preserve">
<g>
	<g>
		<g opacity="0.3">
			<path d="M348.412,232.244c0,21-5.387,42.242-15.197,59.201c-10.123,17.494-28.725,28.23-46.219,38.353
				c-16.958,9.812-35.317,15.538-56.318,15.538c-21,0-41.373-2.246-58.33-12.057c-17.495-10.123-29.621-26.922-39.743-44.416
				c-9.812-16.959-18.617-35.619-18.617-56.619c0-21,8.56-39.804,18.37-56.761c10.121-17.496,23.404-32.579,40.899-42.701
				c16.958-9.812,36.421-14.545,57.421-14.545c21.001,0,39.277,6.786,56.234,16.597c17.495,10.122,32.439,22.878,42.563,40.374
				C339.285,192.166,348.412,211.243,348.412,232.244z"/>
		</g>
		<g>
			<path fill="#FFD275" d="M340.506,224.338c0,21-5.387,42.242-15.197,59.201c-10.123,17.495-28.725,28.23-46.219,38.354
				c-16.958,9.811-35.317,15.538-56.318,15.538c-21,0-41.373-2.246-58.33-12.058c-17.495-10.122-29.621-26.921-39.743-44.416
				c-9.812-16.959-18.617-35.618-18.617-56.619s8.56-39.804,18.37-56.761c10.121-17.496,23.404-32.579,40.899-42.701
				c16.958-9.812,36.421-14.545,57.421-14.545c21.001,0,39.277,6.786,56.234,16.597c17.495,10.122,32.439,22.878,42.563,40.374
				C331.379,184.26,340.506,203.338,340.506,224.338z"/>
		</g>
	</g>
	<path fill="#F3BF64" d="M321.569,167.302c-10.123-17.496-25.067-30.252-42.563-40.374c-5.333-3.086-10.797-5.871-16.434-8.241
		c4.301,3.236,8.268,6.888,11.788,10.865c1.06,0.089,2.095,0.409,3.03,1.017c20.873,13.591,28.23,39.828,31.264,63.181
		c1.553,11.945,2.58,24.652,1.199,36.834c-0.037,4.925-0.261,9.818-0.638,14.574c-0.997,12.59-6.485,26.62-14.935,36.153
		c-7.162,8.082-17.166,12.9-27.535,15.448c-10.425,2.562-21.301,4.007-31.928,5.487c-13.033,1.814-25.871,1.98-38.813-0.699
		c-23.59-4.885-45.94-15.089-62.816-32.65c-14.271-14.85-22.729-32.4-26.755-51.875c-0.225,2.409-0.353,4.846-0.353,7.315
		c0,21,8.806,39.66,18.617,56.619c10.122,17.495,22.248,34.294,39.743,44.416c16.957,9.812,37.33,12.058,58.33,12.058
		c21.001,0,39.36-5.728,56.318-15.538c17.494-10.123,36.096-20.858,46.219-38.354c9.811-16.959,15.197-38.2,15.197-59.201
		S331.379,184.26,321.569,167.302z"/>
	<defs>
		<filter id="Adobe_OpacityMaskFilter" filterUnits="userSpaceOnUse" x="104.121" y="105.909" width="229.827" height="234.152">
			<feColorMatrix  type="matrix" values="1 0 0 0 0  0 1 0 0 0  0 0 1 0 0  0 0 0 1 0"/>
		</filter>
	</defs>
	<mask maskUnits="userSpaceOnUse" x="104.121" y="105.909" width="229.827" height="234.152" id="SVGID_1_">
		<g filter="url(#Adobe_OpacityMaskFilter)">
			<path fill="#FFFFFF" d="M340.533,222.619c0.295,20.998-4.791,42.314-14.363,59.408c-9.875,17.637-28.322,28.633-45.672,39
				c-16.819,10.05-35.096,16.035-56.094,16.33c-20.998,0.297-41.401-1.662-58.495-11.233c-17.637-9.876-29.997-26.501-40.365-43.853
				c-10.05-16.818-19.116-35.354-19.412-56.352c-0.297-20.998,7.997-39.92,17.568-57.014c9.874-17.637,22.943-32.905,40.294-43.272
				c16.818-10.05,36.213-15.057,57.211-15.353c20.998-0.295,39.369,6.231,56.463,15.804c17.635,9.874,32.758,22.419,43.126,39.771
				C330.843,182.673,340.237,201.62,340.533,222.619z"/>
		</g>
	</mask>
	<g mask="url(#SVGID_1_)">
		<path fill="#FFE1A9" d="M272.605,298.312c-39.088-3.709-49.076-30.447-49.741-77.692c0,0-13.67,25.852,1.311,63.452
			c11.746,29.482,51.168,36.545,72.836,26.719c11.665-7.766,22.414-16.714,29.16-28.764c3.063-5.469,5.662-11.375,7.777-17.561
			C323.957,278.935,303.36,301.23,272.605,298.312z"/>
		<path fill="#FFE1A9" d="M311.52,198.387c-15.605,36.029-43.519,36.2-88.656,22.233c0,0,19.761,22.055,60.148,19.425
			c31.668-2.06,50.567-37.37,47.918-61.013c-3.782-13.494-8.97-26.483-18.344-36.622c-4.256-4.603-9.07-8.901-14.299-12.823
			C308.961,143.56,323.801,170.038,311.52,198.387z"/>
		<path fill="#FFE1A9" d="M228.511,130.497c29.444,25.975,21.584,51.511-5.647,90.124c0,0,26.479-10.914,36.459-50.137
			c7.826-30.755-19.916-59.64-43.222-64.428c-14.001-0.573-27.958,0.348-40.497,6.129c-5.693,2.625-11.268,5.876-16.614,9.638
			C175.577,115.988,205.344,110.057,228.511,130.497z"/>
		<path fill="#FFE1A9" d="M138.293,188.464c33.801-19.975,56.263-5.675,84.57,32.157c0,0-2.801-27.49-37.021-49.102
			c-26.831-16.948-62.875,0.51-74.631,21.195c-4.87,13.139-8.309,26.697-6.684,40.409c0.736,6.227,2.105,12.531,4.031,18.781
			C108.137,234.323,111.696,204.18,138.293,188.464z"/>
		<path fill="#FFE1A9" d="M165.544,292.179c-8.552-38.32,12.592-56.328,57.319-71.559c0,0-27.613-4.767-58.742,21.1
			c-24.41,20.279-18.944,59.955-2.904,77.527c10.991,8.692,22.822,16.152,36.367,18.845c6.148,1.222,12.567,1.869,19.105,1.969
			C199.84,335.03,172.272,322.332,165.544,292.179z"/>
	</g>
	<g>
		<path fill="#F3BF64" d="M208.711,201.929c-2.898-2.235-5.117-3.885-6.987-5.188c-0.029,0.127-0.056,0.256-0.085,0.383
			c0.211,0.986,0.172,2.025,0.019,3.125c-1.551,11.124-11.075,19.125-26.962,26.1c4.348,0.526,32.341-5.16,36.617-5.588
			c4.164-0.417,6.521-1.145,11.635,0.017C219.201,214.643,214.45,206.357,208.711,201.929z"/>
		<path fill="#F3BF64" d="M240.277,160.409c-0.771,6.963-3.015,25.242-22.894,28.69c-1.014,0.222-4.213,0.358-5.662,0.022
			c4.533,10.076,9.84,24.528,11.119,31.705c5.914-7.873,14.391-19.899,16.951-29.67C240.94,186.777,243.243,164.017,240.277,160.409
			z"/>
	</g>
	<defs>
		<filter id="Adobe_OpacityMaskFilter_1_" filterUnits="userSpaceOnUse" x="103.677" y="109.507" width="236.43" height="231.952">
			<feColorMatrix  type="matrix" values="1 0 0 0 0  0 1 0 0 0  0 0 1 0 0  0 0 0 1 0"/>
		</filter>
	</defs>
	<mask maskUnits="userSpaceOnUse" x="103.677" y="109.507" width="236.43" height="231.952" id="SVGID_2_">
		<g filter="url(#Adobe_OpacityMaskFilter_1_)">
			<path fill="#FFFFFF" d="M340.506,224.338c0,21-5.387,42.242-15.197,59.201c-10.123,17.495-28.725,28.23-46.219,38.354
				c-16.958,9.811-35.317,15.538-56.318,15.538c-21,0-41.373-2.246-58.33-12.058c-17.495-10.122-29.621-26.921-39.743-44.416
				c-9.812-16.959-18.617-35.618-18.617-56.619s8.56-39.804,18.37-56.761c10.121-17.496,23.404-32.579,40.899-42.701
				c16.958-9.812,36.421-14.545,57.421-14.545c21.001,0,39.277,6.786,56.234,16.597c17.495,10.122,32.439,22.878,42.563,40.374
				C331.379,184.26,340.506,203.338,340.506,224.338z"/>
		</g>
	</mask>
	<g mask="url(#SVGID_2_)">
		<path fill="#F3BF64" d="M287.299,290.81c-39.264,0-61.738-21.848-64.408-70.175c0,0-8.521,27.321,14.063,60.908
			c17.707,26.336,57.732,24.912,76.835,10.732c9.761-10.057,18.38-21.072,22.429-34.274c1.838-5.993,3.13-12.314,3.891-18.808
			C333.401,255.447,320.854,290.81,287.299,290.81z"/>
		<path fill="#F3BF64" d="M309.808,179.342c-7.644,38.512-38.228,47.32-86.917,41.293c0,0,24.281,17.478,63.203,6.376
			c30.519-8.703,40.604-48.137,33.02-70.688c-6.547-12.39-14.361-23.991-25.665-31.92c-5.132-3.601-10.745-6.784-16.687-9.513
			C290.57,126.651,315.403,151.158,309.808,179.342z"/>
		<path fill="#F3BF64" d="M212.544,127.989c34.265,19.17,30.287,55.24,10.418,92.908c0,0,24.053-23.257,24.424-57.542
			c0.345-31.733-32.062-54.089-55.854-53.845c-13.806,2.398-27.254,6.246-38.289,14.545c-5.011,3.768-9.771,8.122-14.204,12.929
			C154.022,127.777,185.583,112.904,212.544,127.989z"/>
		<path fill="#FFD793" d="M125.156,202.956c33.004-32.074,60.895-22.313,97.735,17.679c0,0-9.164-27.114-47.178-41.01
			c-29.806-10.898-61.35,13.779-68.47,36.48c-1.985,13.871-2.482,27.85,2.003,40.908c2.035,5.932,4.704,11.805,7.905,17.506
			C113.026,257.426,103.001,224.486,125.156,202.956z"/>
		<path fill="#FFD793" d="M174.894,305.22c-16.453-35.649,3.254-68.797,47.997-84.585c0,0-28.617,0.337-53.58,32.195
			c-19.576,24.979-5.854,62.605,13.536,76.393c12.579,6.174,25.719,10.967,39.526,10.737c6.268-0.104,12.678-0.827,19.091-2.11
			C223.932,336.492,187.838,333.27,174.894,305.22z"/>
		<path fill="#F3BF64" d="M144.117,170.375c36.461-14.564,61.989,11.226,78.76,50.372c0,0-2.938-33.329-29.35-55.193
			c-24.444-20.237-62.212-9.122-76.995,9.521c-6.824,12.238-12.298,25.11-12.793,38.91c-0.224,6.266,0.163,12.705,1.109,19.175
			C107.122,215.722,115.427,181.834,144.117,170.375z"/>
		<path fill="#F3BF64" d="M149.681,280.565c-2.856-33.905,30.83-55.979,73.242-59.832c0,0-32.605-7.505-61.562,10.856
			c-26.801,16.995-29.491,61.694-16.329,81.514c9.53,10.273,15.849,16.648,28.819,21.383c5.891,2.15,25.164,5.873,31.609,6.973
			C189.58,333.909,154.265,334.98,149.681,280.565z"/>
	</g>
</g>
</svg>
