<?xml version="1.0" encoding="utf-8"?>
<!-- Generator: Adobe Illustrator 16.0.0, SVG Export Plug-In . SVG Version: 6.00 Build 0)  -->
<!DOCTYPE svg PUBLIC "-//W3C//DTD SVG 1.1//EN" "http://www.w3.org/Graphics/SVG/1.1/DTD/svg11.dtd">
<svg version="1.1" id="Ebene_1" xmlns="http://www.w3.org/2000/svg" xmlns:xlink="http://www.w3.org/1999/xlink" x="0px" y="0px"
	 width="450px" height="450px" viewBox="0 0 450 450" enable-background="new 0 0 450 450" xml:space="preserve">
<g>
	<g opacity="0.3">
		<path d="M399.724,267.48l-39.915-42.76c3.295-4.156,3.37-5.046,7.569-10.118c4.717-5.698,5.566-4.995,10.281-10.694
			c0.991-1.204-0.005-4.096,0.092-5.651c0.688-10.533,0.862-10.521,1.552-21.055c0.062-0.994-0.396-1.758-0.991-1.87
			c-0.25-0.581-0.89-1.056-1.724-1.281c-7.136-1.977-6.859-2.971-13.993-4.952c-7.135-1.981-7.378-1.104-14.512-3.086
			c-7.13-1.979-7.031-2.332-14.161-4.313c-7.131-1.98-7.222-1.656-14.353-3.637c-7.13-1.98-7.137-1.956-14.266-3.936
			c-7.131-1.98-6.825-3.08-13.956-5.062c-1.116-0.31-2.047-0.555-2.873-0.764l-11.269-12.071l-13.597,5.011
			c-0.247-0.07-0.484-0.139-0.75-0.213c-7.13-1.98-7.13-1.979-14.259-3.959c-7.131-1.98-7.139-1.954-14.27-3.934
			c-7.129-1.98-7.485-0.698-14.615-2.679c-7.128-1.979-6.936-2.671-14.064-4.65c-7.129-1.98-7.17-1.831-14.299-3.811
			c-7.129-1.98-7.121-2.009-14.252-3.984c-1.505-0.407-2.955,1.001-4.015,2.146c-5.163,5.575-5.322,5.428-10.485,11.004
			c-5.163,5.575-6.111,4.696-11.274,10.272c-5.159,5.571-5.28,5.459-10.439,11.031c-5.161,5.573-5.023,5.701-10.185,11.274
			c-5.159,5.571-4.07,6.579-9.229,12.15c-5.158,5.57-5.229,5.505-10.386,11.075c-0.421,0.454-0.729,0.907-0.867,1.322
			c-1.091,1.043-1.975,2.289-1.936,3.036c0.291,5.515,0.984,5.464,1.412,10.976c0.427,5.506,0.137,5.533,0.429,11.049
			c0.082,1.557,0.782,4.161,2.262,4.652c2.865,0.969,4.602,1.394,6.139,1.723c-0.072,0.71-0.199,1.479-0.153,2.844
			c0.101,2.979-0.055,2.983,0.047,5.962c0.101,2.976-0.655,3.112,0.2,5.964c0.78,2.603,1.456,2.311,2.933,4.592
			c0.727,1.122,1.134,1.667,1.537,2.202c-1.956-0.138-3.163-1.125-4.214,0.834c-0.072,0.028-0.139,0.05-0.218,0.089
			c-2.518,1.238-0.636,2.561,0.133,5.601c0.688,2.72-0.206,2.837-0.206,5.642c0,2.803,0.183,2.803,0.183,5.605
			c0,2.801-0.859,2.905-0.059,5.59c0.822,2.758,1.598,2.38,3.154,4.801s1.557,2.421,3.113,4.843
			c1.557,2.419,1.496,2.458,3.051,4.878c1.555,2.417,1.418,2.505,2.973,4.923c1.555,2.417,0.377,5.153,3.227,4.778
			c0.013-0.002,0.021-0.005,0.033-0.007c2.172,1.688,2.634-0.9,5.263-1.831c2.64-0.936,2.614-1.005,5.254-1.94
			c2.639-0.935,2.632-0.952,5.271-1.887c2.142-0.759,2.548-0.886,4.04-1.409c-0.205,1.308-0.574,1.937,0.278,3.795
			c0.416,0.906,0.794,1.398,1.202,1.751c-0.162,0.064-0.32,0.126-0.513,0.205c-2.192,0.898-2.18,0.929-4.372,1.827
			c-2.189,0.897-2.148,0.997-4.339,1.895s-2.172,0.943-4.361,1.841c-2.191,0.897-4.072-0.662-4.547,1.657
			c-0.017,0.081-0.024,0.152-0.036,0.227c-1.789,1.007-0.443,2.123,0.27,4.504c0.673,2.244,0.158,2.314,0.262,4.654
			c0.103,2.338,0.21,2.333,0.313,4.671c0.104,2.336-0.825,2.543,0.151,4.668c0.959,2.09,1.631,1.614,3.318,3.177
			s1.785,1.457,3.473,3.02c1.685,1.561,1.608,1.643,3.293,3.203c1.684,1.56,1.688,1.555,3.371,3.114
			c1.685,1.56,1.314,4.096,3.373,3.08c0.021-0.011,0.035-0.021,0.056-0.031c2.001,1.246,2.152-0.845,4.344-1.742
			c2.193-0.898,2.177-0.939,4.37-1.838c2.191-0.897,2.226-0.815,4.418-1.714c2.19-0.896,2.17-0.947,4.359-1.844
			c2.19-0.898,2.216-0.836,4.405-1.733c2.19-0.897,3.145,0.184,4.427-1.807c1.27-1.968-0.207-2.382-0.31-4.722
			s-0.015-2.344-0.118-4.683c-0.103-2.339-0.224-2.333-0.326-4.672c-0.062-1.382,0.596-2.337,0.736-3.146
			c0.932-0.357,1.539-0.571,3.232-1.265c2.605-1.067,2.611-1.051,5.216-2.118c2.603-1.065,2.614-1.035,5.217-2.102
			s2.607-1.056,5.211-2.122c2.603-1.066,3.662,0.162,5.205-2.189c1.594-2.429,0.073-2.926,0.076-5.831
			c0.003-2.904-0.188-2.905-0.187-5.81c0.003-2.903,0.012-2.903,0.015-5.806c0.003-2.9,2.513-4.214,0.083-5.796
			c-0.395-0.257-0.73-0.413-1.035-0.501c-0.625-0.961-2.409-0.946-3.885-2.313c-2.005-1.856-2.176-1.672-4.182-3.529
			c-2.001-1.854-1.893-1.97-3.895-3.823c-2.001-1.854-1.947-1.911-3.949-3.765c-2-1.854-1.389-3.176-4.077-3.634
			c-2.776-0.474-2.587,1.131-5.192,2.199c-2.607,1.067-2.596,1.095-5.202,2.163c-2.604,1.066-2.625,1.016-5.229,2.082
			c-1.65,0.677-2.254,0.927-3.137,1.292c-0.003-0.239-0.005-0.503-0.005-0.806c0-2.518,2.257-3.887,0.067-5.131
			c-0.029-0.017-0.055-0.027-0.083-0.043c0.268-0.174,0.542-0.425,0.838-0.799c1.876-2.374,0.059-3.025,0.059-6.051
			s-0.006-3.025-0.006-6.051c0-1.676-0.022-2.423-0.043-3.271c0.517,0.188,1.063,0.382,1.685,0.592
			c6.987,2.367,7.501,0.85,14.488,3.216c3.711,1.257,5.299,2.302,7.016,3.36l88.106,93.836l39.719-14.636
			c0.139,0.096,0.282,0.187,0.42,0.266c0.462,0.268,0.916,0.313,1.213,0.149c0.264-0.145,0.345-0.413,0.095-1.052l80.286-29.583
			V267.48z M154.534,314.597c0.02,0.152,0.035,0.312,0.043,0.483c0.046,1.043,0.073,1.617,0.099,2.145
			c-0.05-0.528-0.1-1.102-0.146-2.149C154.523,314.898,154.531,314.753,154.534,314.597z M173.884,293.02
			c-0.052-1.175-0.063-1.853-0.068-2.455c0.065,0.604,0.129,1.28,0.181,2.465c0.004,0.094,0.008,0.177,0.012,0.265
			c-0.044-0.041-0.076-0.069-0.117-0.107C173.889,293.131,173.887,293.08,173.884,293.02z M133.344,239.123
			c0-0.451,0.024-0.834,0.061-1.176c0.005,0.596,0.015,1.019,0.025,1.407c-0.029,0.004-0.058,0.008-0.086,0.011
			C133.344,239.284,133.344,239.209,133.344,239.123z M134.131,278.368c0-2.266,0.049-2.574,0.062-4.312
			c0.024,0.664,0.047,1.404,0.047,2.706c0,2.673,0.021,2.986,0.026,5.111C134.217,280.774,134.131,280.233,134.131,278.368z
			 M173.421,281.836c0.034,0.006,0.063,0.008,0.096,0.013c-0.022,0.033-0.044,0.061-0.066,0.095
			c-0.029,0.045-0.05,0.084-0.077,0.128c-0.018-0.04-0.031-0.076-0.051-0.117c-0.025-0.056-0.05-0.102-0.075-0.154
			C173.307,281.811,173.359,281.825,173.421,281.836z M169.482,278.127c0.184,0.17,0.338,0.335,0.48,0.498
			c-0.168-0.137-0.343-0.285-0.531-0.46c-0.748-0.692-1.212-1.132-1.604-1.508C168.244,277.009,168.728,277.428,169.482,278.127z
			 M144.251,301.071c-1.407-1.303-1.58-1.603-2.576-2.571c1.171,0.759,1.245,1.198,2.66,2.508c1.249,1.157,1.552,1.481,2.312,2.207
			C145.854,302.505,145.508,302.235,144.251,301.071z M148.909,305.328c0.617,0.578,0.994,0.937,2.113,1.973
			c0.146,0.135,0.27,0.267,0.385,0.396c-0.137-0.108-0.278-0.226-0.428-0.364C149.865,306.301,149.507,305.917,148.909,305.328z
			 M163.174,306.823c-0.789,0.323-1.294,0.518-1.725,0.679c0.416-0.202,0.912-0.431,1.709-0.757
			c0.943-0.387,1.489-0.575,1.983-0.738C164.659,306.21,164.126,306.433,163.174,306.823z"/>
		<path d="M110.9,237.44c-0.054-0.023-0.1-0.037-0.151-0.058c-0.697-2.616-2.581-1.21-5.093-2.621
			c-2.569-1.443-2.564-1.452-5.135-2.896c-2.567-1.443-2.463-1.63-5.03-3.072c-2.566-1.441-2.674-1.25-5.24-2.691
			s-2.452-1.645-5.019-3.086c-2.567-1.441-2.258-2.982-5.195-2.795c-2.674,0.172-2.03,1.765-4.07,3.502s-2.023,1.756-4.063,3.493
			c-2.039,1.736-2.11,1.652-4.149,3.388c-2.036,1.734-1.934,1.854-3.971,3.589c-2.035,1.734-3.931,0.735-4.076,3.406
			c-0.015,0.007-0.026,0.01-0.041,0.017c-2.723,1.318-0.856,2.775-0.034,6.037c0.739,2.935,0.093,3.02,0.093,6.046
			c0,3.023-0.099,3.023-0.099,6.047c0,3.021-1.175,3.271,0.099,6.011c1.128,2.429,2.045,1.678,4.192,3.279
			c2.147,1.601,2.259,1.453,4.405,3.055c2.146,1.6,2.013,1.779,4.158,3.379c2.145,1.599,2.272,1.428,4.416,3.026
			s2.052,1.721,4.195,3.319c2.145,1.599,1.848,4.218,4.337,3.237c0.012-0.005,0.02-0.01,0.031-0.015
			c2.109,1.407,2.039-1.74,4.139-3.328c2.123-1.605,2.111-1.621,4.234-3.226c2.121-1.604,2.212-1.483,4.333-3.087
			c2.12-1.603,2.121-1.602,4.24-3.204s2.139-1.577,4.258-3.18c2.12-1.603,3.088-0.854,4.195-3.271
			c1.26-2.751-0.088-3.028-0.088-6.054c0-3.026,0.143-3.026,0.143-6.052c0-3.023-0.094-3.023-0.094-6.047
			C110.82,240.569,113.66,238.669,110.9,237.44z M65.123,242.633c-0.223-0.214-0.491-0.467-0.797-0.753
			C64.665,242.15,64.912,242.391,65.123,242.633z M104.596,244.008c0.59-0.637,0.915-1.033,1.455-1.625
			C105.5,243.194,105.076,243.612,104.596,244.008z"/>
	</g>
	<g>
		<g>
			<polygon fill="#F6EED7" points="149.805,175.419 271.537,130.562 394.055,261.811 272.323,306.67 			"/>
			<polygon fill="#ECE0C6" points="149.805,175.419 272.323,306.67 272.323,331.471 149.805,200.986 			"/>
			<g>
				<polygon fill="#DDCFB4" points="394.055,261.811 394.055,286.616 272.323,331.471 272.323,306.67 				"/>
			</g>
		</g>
		<g>
			<g>
				<path fill="#DDCFB4" d="M280.155,279.636c-1.434-0.701-1.461-1.266-0.689-1.501c0.535-0.162,1.453-0.053,2.373,0.108
					c0.744,0.13,1.437,0.55,2.106,0.94c0.689,0.403,1.349,0.814,1.646,1.541c0.497,1.222,0.357,1.773-0.154,1.771
					c-0.414-0.002-1.182-0.197-1.955-0.608c-0.541-0.287-1.108-0.694-1.713-1.037C281.178,280.516,280.721,279.914,280.155,279.636z
					"/>
			</g>
			<g>
				<path fill="#DDCFB4" d="M295.751,219.787c-0.488,0.082-1.135-0.255-1.779-0.737c-0.471-0.352-0.94-0.827-1.394-1.333
					c-0.433-0.483-0.756-1.063-1.098-1.579c-0.406-0.614-0.738-1.182-0.901-1.676c-0.273-0.835-0.122-1.59,0.785-1.386
					c0.665,0.148,1.384,0.667,2.043,1.166c0.596,0.451,1.266,0.953,1.747,1.529c0.536,0.645,0.683,1.516,0.937,2.115
					C296.499,218.849,296.566,219.65,295.751,219.787z"/>
			</g>
			<g>
				<path fill="#DDCFB4" d="M310.573,243.51c-0.422-0.052-1.047,0.052-1.575-0.249c-0.432-0.245-0.627-0.909-1.043-1.255
					c-0.414-0.344-0.799-0.667-1.119-1.053c-0.379-0.457-0.783-0.809-0.911-1.235c-0.168-0.561,0.026-0.843,0.55-1.158
					c0.352-0.212,0.814-0.488,1.436-0.271c0.439,0.154,0.863,0.538,1.344,0.832c0.434,0.265,0.76,0.704,1.168,1.035
					c0.422,0.342,1.084,0.419,1.416,0.78c0.408,0.446,0.369,1.113,0.535,1.504c0.247,0.585,0.42,1.139-0.207,1.333
					C311.821,243.88,311.277,243.595,310.573,243.51z"/>
			</g>
			<g>
				<path fill="#DDCFB4" d="M267.389,197.547c-0.394-0.098-0.812-0.139-1.169-0.271c-0.386-0.143-0.686-0.474-1.015-0.657
					c-0.364-0.202-0.748-0.367-1.021-0.619c-0.305-0.279-0.547-0.626-0.713-0.968c-0.169-0.348-0.14-0.756-0.133-1.169
					c0.01-0.631,0.285-0.91,0.738-0.972c0.405-0.056,0.934-0.002,1.384,0.197c0.497,0.22,0.896,0.605,1.068,0.894
					c0.126,0.209,0.496,0.482,0.76,0.887c0.205,0.313,0.349,0.709,0.53,1.04c0.22,0.4,0.298,0.813,0.337,1.101
					C268.209,197.402,268.038,197.708,267.389,197.547z"/>
			</g>
			<g>
				<path fill="#DDCFB4" d="M276.527,261.223c-0.34-0.194-0.555-0.573-0.861-0.821c-0.314-0.256-0.76-0.359-1.02-0.636
					c-0.297-0.314-0.6-0.613-0.796-0.903c-0.312-0.46-0.417-0.936-0.385-1.155c0.039-0.257,0.449-0.368,1.121,0.016
					c0.377,0.215,0.668,0.569,0.977,0.849c0.334,0.301,0.692,0.575,0.931,0.893c0.301,0.4,0.323,0.889,0.44,1.203
					C277.153,261.254,277.126,261.567,276.527,261.223z"/>
			</g>
			<g>
				<path fill="#DDCFB4" d="M159.577,213.846c0.284,0.691,0.226,1.014-0.048,1.164c-0.299,0.163-0.767,0.048-1.228-0.219
					c-0.391-0.226-0.808-0.509-0.972-0.895c-0.209-0.492-0.007-0.941,0.328-1.164c0.316-0.211,0.82-0.288,1.254,0.008
					C159.196,212.935,159.371,213.344,159.577,213.846z"/>
			</g>
			<g>
				<path fill="#DDCFB4" d="M307.033,241.679c-0.454,0.108-0.867-0.038-1.24-0.152c-0.405-0.123-0.701-0.348-0.965-0.694
					c-0.235-0.309-0.353-0.664-0.438-1.118c-0.071-0.378-0.308-0.788-0.253-1.248c0.064-0.569,0.554-0.784,0.985-0.6
					c0.294,0.125,0.569,0.517,0.896,0.833c0.277,0.269,0.538,0.589,0.766,0.91c0.254,0.358,0.584,0.679,0.689,1.001
					C307.631,241.095,307.471,241.575,307.033,241.679z"/>
			</g>
			<g>
				<path fill="#DDCFB4" d="M158.84,193.189c0.155-0.527,0.534-0.792,0.996-0.636c0.336,0.114,0.769,0.406,1.106,0.782
					c0.269,0.3,0.366,0.783,0.558,1.2c0.176,0.382,0.207,0.799,0.263,1.243c0.062,0.499,0.104,0.93-0.177,1.174
					c-0.295,0.256-0.799,0.438-1.236,0.382c-0.383-0.048-0.73-0.389-1.053-0.695c-0.268-0.255-0.505-0.578-0.632-1.026
					c-0.099-0.348-0.06-0.746-0.024-1.217C158.668,194.03,158.709,193.635,158.84,193.189z"/>
			</g>
			<g>
				<path fill="#DDCFB4" d="M331.117,274.966c-0.323-0.04-0.712-0.355-1.118-0.586c-0.331-0.188-0.547-0.588-0.866-0.854
					c-0.317-0.265-0.71-0.438-0.956-0.734c-0.291-0.352-0.537-0.696-0.636-1.024c-0.128-0.431,0.016-0.734,0.42-0.977
					c0.27-0.163,0.568-0.007,1.045,0.16c0.338,0.119,0.743,0.158,1.113,0.385c0.333,0.204,0.6,0.513,0.912,0.768
					c0.324,0.263,0.826,0.326,1.082,0.604c0.314,0.343,0.344,0.822,0.471,1.123c0.189,0.449,0.272,0.883-0.21,1.032
					C332.109,274.945,331.657,275.032,331.117,274.966z"/>
			</g>
			<g>
				<path fill="#DDCFB4" d="M260.365,278.328c0.221,0.382,0.211,0.852,0.383,1.183c0.21,0.403,0.567,0.687,0.698,1.019
					c0.178,0.454,0.043,0.888,0.054,1.221c0.015,0.451,0.117,0.947-0.217,1.211c-0.408,0.314-0.996-0.018-1.276-0.526
					c-0.184-0.333-0.236-0.837-0.356-1.308c-0.109-0.435-0.15-0.899-0.201-1.313c-0.047-0.385-0.101-0.774-0.116-1.12
					c-0.025-0.566,0.079-0.829,0.245-0.897C259.717,277.736,260,277.697,260.365,278.328z"/>
			</g>
			<g>
				<path fill="#DDCFB4" d="M235.816,230.179c-0.433-0.107-0.802-0.363-1.196-0.509c-0.424-0.156-0.781-0.364-1.143-0.565
					c-0.4-0.223-0.886-0.271-1.188-0.548c-0.335-0.308-0.754-0.599-0.938-0.975c-0.186-0.383-0.138-0.896-0.13-1.35
					c0.008-0.51,0.172-0.978,0.476-1.129c0.303-0.151,0.788,0.028,1.208,0.12c0.367,0.079,0.793,0.134,1.121,0.316
					c0.396,0.222,0.751,0.526,0.899,0.773c0.138,0.23,0.304,0.683,0.595,1.128c0.225,0.344,0.429,0.737,0.63,1.101
					c0.242,0.44,0.521,0.822,0.566,1.138C236.776,230.114,236.531,230.357,235.816,230.179z"/>
			</g>
			<g>
				<path fill="#DDCFB4" d="M226.706,201.623c-0.992-0.486-0.979-1.021-0.446-1.185c0.369-0.113,0.992,0.17,1.629,0.281
					c0.516,0.091,1.122,0.05,1.585,0.321c0.478,0.279,0.994,0.668,1.199,1.172c0.345,0.846,0.089,1.381-0.266,1.379
					c-0.286-0.002-0.67-0.497-1.203-0.78c-0.374-0.199-0.921-0.191-1.341-0.43C227.453,202.15,227.099,201.814,226.706,201.623z"/>
			</g>
			<g>
				<path fill="#DDCFB4" d="M250.198,218.512c-0.408-0.232-0.959-0.284-1.325-0.581c-0.378-0.307-0.665-0.726-0.976-1.057
					c-0.355-0.377-0.688-0.745-0.925-1.093c-0.373-0.551-0.638-1.09-0.598-1.354c0.046-0.306,0.569-0.347,1.374,0.113
					c0.449,0.257,0.878,0.563,1.247,0.898c0.398,0.36,0.71,0.789,0.995,1.169c0.36,0.479,0.49,0.993,0.631,1.37
					C250.886,218.68,250.917,218.924,250.198,218.512z"/>
			</g>
			<g>
				<path fill="#DDCFB4" d="M194.79,233.12c0.289,0.209,0.675,0.617,0.929,1.084c0.209,0.386,0.27,0.903,0.398,1.338
					c0.143,0.481,0.264,0.978,0.238,1.37c-0.035,0.54-0.358,0.848-0.869,0.867c-0.321,0.012-0.659-0.201-0.998-0.621
					c-0.239-0.296-0.463-0.666-0.666-1.066c-0.191-0.375-0.223-0.816-0.351-1.207c-0.146-0.445-0.263-0.832-0.288-1.193
					c-0.037-0.574-0.03-1.056,0.389-1.062C193.835,232.627,194.288,232.757,194.79,233.12z"/>
			</g>
			<g>
				<path fill="#DDCFB4" d="M280.509,232.202c-0.465-0.115-0.952-0.095-1.337-0.28c-0.448-0.216-0.717-0.6-0.99-0.911
					c-0.309-0.352-0.565-0.685-0.558-1.161c0.011-0.643,0.465-0.632,0.992-0.517c0.51,0.109,1.16,0.261,1.331,0.545
					c0.11,0.182,0.29,0.558,0.523,0.929c0.202,0.32,0.438,0.654,0.542,0.936C281.169,232.169,281.087,232.346,280.509,232.202z"/>
			</g>
			<g>
				<path fill="#DDCFB4" d="M198.241,192.989c0.063,0.726-0.229,0.797-0.67,0.597c-0.315-0.144-0.636-0.453-0.938-0.841
					c-0.273-0.349-0.494-0.719-0.582-1.118c-0.141-0.642,0.185-0.786,0.684-0.606c0.342,0.121,0.705,0.425,1.008,0.8
					C198.008,192.149,198.203,192.54,198.241,192.989z"/>
			</g>
			<g>
				<path fill="#DDCFB4" d="M216.827,180.659c-0.292,0.049-0.673-0.215-1.058-0.602c-0.303-0.304-0.64-0.638-0.836-0.977
					c-0.332-0.572-0.369-1.144,0.146-1.027c0.347,0.077,0.724,0.36,1.052,0.655c0.313,0.281,0.513,0.678,0.698,0.994
					C217.125,180.208,217.227,180.592,216.827,180.659z"/>
			</g>
			<g>
				<path fill="#DDCFB4" d="M243.642,286.765c0.316,0.771-0.079,0.937-0.544,0.829c-0.404-0.094-0.9-0.363-1.076-0.77
					c-0.217-0.514,0.165-0.952,0.634-0.918C242.982,285.931,243.399,286.173,243.642,286.765z"/>
			</g>
			<g>
				<path fill="#DDCFB4" d="M173.793,210.722c0.426,0.118,0.814,0.359,1.006,0.666c0.194,0.313,0.151,0.754,0.072,1.176
					c-0.063,0.34-0.14,0.747-0.397,1.106c-0.34,0.478-0.815,0.106-1.05-0.492c-0.156-0.396-0.266-0.925-0.283-1.368
					C173.115,211.176,173.356,210.601,173.793,210.722z"/>
			</g>
			<g>
				<path fill="#DDCFB4" d="M232.19,181.718c-0.348-0.042-0.791-0.395-1.226-0.719c-0.384-0.285-0.707-0.659-0.946-1.007
					c-0.338-0.49-0.527-1.018-0.102-1.274c0.244-0.147,0.736-0.041,1.191,0.176c0.324,0.152,0.688,0.369,1.008,0.616
					c0.324,0.249,0.538,0.62,0.766,0.89c0.345,0.409,0.579,0.778,0.434,1.017C233.196,181.609,232.83,181.796,232.19,181.718z"/>
			</g>
			<g>
				<path fill="#DDCFB4" d="M326.735,237.959c-0.359-0.216-0.699-0.393-0.97-0.582c-0.372-0.26-0.609-0.572-0.805-0.802
					c-0.299-0.352-0.457-0.723-0.309-1.07c0.188-0.442,0.782-0.243,1.266,0.187c0.326,0.29,0.597,0.74,0.854,1.094
					c0.252,0.35,0.497,0.714,0.624,0.984C327.584,238.178,327.487,238.41,326.735,237.959z"/>
			</g>
			<g>
				<path fill="#DDCFB4" d="M260.233,309.206c0.242,0.207,0.403,0.661,0.655,1.054c0.211,0.331,0.52,0.651,0.682,1.019
					c0.183,0.409,0.231,0.854,0.284,1.193c0.085,0.537-0.053,1-0.524,0.961c-0.432-0.035-0.837-0.21-1.104-0.454
					c-0.278-0.254-0.525-0.619-0.689-0.97c-0.17-0.365-0.246-0.776-0.365-1.099c-0.153-0.414-0.148-0.985-0.058-1.373
					C259.224,309.061,259.653,308.709,260.233,309.206z"/>
			</g>
			<g>
				<path fill="#DDCFB4" d="M185.228,222.73c0.285,0.265,0.487,0.607,0.713,0.888c0.249,0.31,0.355,0.682,0.51,0.999
					c0.177,0.36,0.367,0.682,0.388,1.033c0.021,0.374-0.207,0.649-0.404,0.991c-0.238,0.417-0.361,0.429-0.687,0.305
					c-0.291-0.112-0.501-0.339-0.728-0.637c-0.25-0.33-0.434-0.606-0.441-0.861c-0.008-0.233-0.004-0.694-0.031-1.175
					c-0.024-0.416-0.23-0.845-0.181-1.171C184.442,222.609,184.748,222.285,185.228,222.73z"/>
			</g>
			<g>
				<path fill="#ECE0C6" d="M265.897,174.903c0.117-0.574,0.209-1.023,0.471-1.067c0.285-0.048,0.548,0.417,0.865,0.789
					c0.219,0.256,0.533,0.497,0.709,0.863c0.159,0.334,0.29,0.699,0.377,1.067c0.09,0.38,0.059,0.76,0.034,1.119
					c-0.04,0.575-0.21,0.675-0.532,0.675c-0.288,0-0.537-0.154-0.87-0.479c-0.246-0.24-0.515-0.482-0.704-0.838
					c-0.174-0.323-0.346-0.652-0.416-1.03C265.762,175.637,265.821,175.282,265.897,174.903z"/>
			</g>
			<g>
				<path fill="#ECE0C6" d="M209.919,226.688c0.285,0.151,0.715,0.239,1.048,0.53c0.275,0.241,0.595,0.502,0.867,0.801
					c0.262,0.287,0.34,0.74,0.568,1.049c0.245,0.33,0.531,0.612,0.703,0.929c0.22,0.402,0.485,0.764,0.523,1.075
					c0.055,0.444-0.232,0.744-0.724,0.813c-0.456,0.063-0.833-0.027-1.196-0.164c-0.389-0.147-0.658-0.424-0.963-0.714
					c-0.297-0.285-0.663-0.513-0.898-0.85c-0.252-0.359-0.449-0.739-0.652-1.056c-0.227-0.35-0.295-0.807-0.391-1.229
					c-0.116-0.512-0.241-0.979-0.05-1.255S209.293,226.354,209.919,226.688z"/>
			</g>
			<g>
				<path fill="#ECE0C6" d="M240.343,264.377c0.512,0.734,0.481,1.238,0.2,1.484c-0.307,0.268-0.921,0.181-1.53-0.011
					c-0.515-0.163-1.053-0.383-1.345-0.791c-0.372-0.52-0.235-1.036,0.099-1.383c0.315-0.327,0.823-0.544,1.405-0.31
					C239.553,263.519,239.972,263.844,240.343,264.377z"/>
			</g>
			<g>
				<path fill="#ECE0C6" d="M248.666,223.883c0.144-0.713,0.557-0.645,0.924-0.328c0.262,0.227,0.574,0.56,0.755,1.016
					c0.164,0.412,0.363,0.867,0.334,1.274c-0.046,0.656-0.566,0.704-0.995,0.393c-0.292-0.213-0.586-0.603-0.771-1.048
					C248.751,224.799,248.577,224.324,248.666,223.883z"/>
			</g>
			<g>
				<path fill="#ECE0C6" d="M259.053,239.605c0.316,0.328,0.566,0.707,0.783,1.093c0.26,0.458,0.623,0.845,0.703,1.193
					c0.141,0.619-0.128,0.915-0.737,0.28c-0.279-0.291-0.598-0.571-0.774-0.905c-0.207-0.394-0.34-0.813-0.405-1.135
					C258.496,239.51,258.655,239.189,259.053,239.605z"/>
			</g>
			<g>
				<path fill="#ECE0C6" d="M254.99,261.045c0.293,0.035,0.583,0.477,0.843,0.955c0.205,0.379,0.382,0.809,0.476,1.189
					c0.154,0.641,0.16,1.026-0.303,0.77c-0.309-0.172-0.668-0.396-0.898-0.772c-0.223-0.358-0.418-0.763-0.504-1.118
					C254.465,261.502,254.588,260.996,254.99,261.045z"/>
			</g>
			<g>
				<path fill="#ECE0C6" d="M259.819,202.253c0.477,0.684,0.139,1.038-0.337,1.034c-0.415-0.002-0.93-0.294-1.188-0.652
					c-0.324-0.455-0.067-0.876,0.397-0.944C259.016,201.642,259.451,201.727,259.819,202.253z"/>
			</g>
			<g>
				<path fill="#ECE0C6" d="M279.922,229.929c0.033-0.484,0.389-0.642,0.863-0.473c0.316,0.113,0.669,0.381,0.975,0.711
					c0.259,0.279,0.393,0.666,0.533,1.061c0.179,0.505,0.028,0.861-0.345,1.049c-0.345,0.172-0.761,0.092-1.171-0.155
					c-0.309-0.187-0.63-0.426-0.783-0.924C279.89,230.857,279.889,230.441,279.922,229.929z"/>
			</g>
			<g>
				<path fill="#DDCFB4" d="M226.513,268.213c0.285,0.309,0.692,0.454,0.898,0.713c0.284,0.354,0.297,0.783,0.419,1.059
					c0.188,0.422,0.246,0.69,0.004,0.982c-0.305,0.37-0.684,0.072-1.026-0.477c-0.23-0.369-0.539-0.806-0.685-1.218
					c-0.144-0.407-0.095-0.883-0.14-1.179C225.917,267.648,225.919,267.567,226.513,268.213z"/>
			</g>
			<g>
				<path fill="#ECE0C6" d="M272.816,164.748c0.281,0.149,0.645,0.346,0.976,0.673c0.279,0.277,0.535,0.603,0.773,0.925
					c0.268,0.359,0.511,0.701,0.637,1.021c0.199,0.506,0.166,0.785-0.305,0.85c-0.428,0.061-0.845,0.186-1.158,0.006
					c-0.327-0.187-0.471-0.634-0.707-0.939c-0.246-0.32-0.398-0.691-0.584-0.979c-0.24-0.372-0.582-0.815-0.578-1.214
					C271.873,164.599,272.141,164.388,272.816,164.748z"/>
			</g>
		</g>
		<g>
			<path fill="#ECE0C6" d="M313.748,316.135c0.285,0.691,0.199,0.966-0.074,1.115c-0.297,0.164-0.751,0.118-1.213-0.149
				c-0.391-0.226-0.848-0.507-1.012-0.893c-0.211-0.491,0.094-0.895,0.428-1.117c0.316-0.21,0.745-0.315,1.179-0.02
				C313.339,315.266,313.543,315.634,313.748,316.135z"/>
		</g>
		<g>
			<path fill="#ECE0C6" d="M298.68,312.066c0.155-0.527,0.683-0.634,1.145-0.478c0.337,0.114,0.762,0.341,1.098,0.716
				c0.27,0.301,0.538,0.687,0.729,1.104c0.176,0.382,0.307,0.83,0.361,1.274c0.062,0.499-0.17,0.901-0.451,1.146
				c-0.294,0.256-0.725,0.29-1.163,0.235c-0.381-0.048-0.898-0.035-1.22-0.342c-0.269-0.255-0.49-0.693-0.617-1.141
				c-0.1-0.348-0.008-0.789,0.026-1.259C298.615,312.955,298.549,312.511,298.68,312.066z"/>
		</g>
		<g>
			<path fill="#ECE0C6" d="M343.595,290.298c0.264,0.191,0.533,0.512,0.777,0.911c0.199,0.325,0.465,0.665,0.615,1.053
				c0.15,0.385,0.078,0.835,0.149,1.214c0.085,0.45,0.118,0.827,0.045,1.162c-0.097,0.438-0.249,0.759-0.718,0.775
				c-0.315,0.012-0.668-0.222-1.005-0.6c-0.238-0.267-0.369-0.667-0.583-1.042c-0.193-0.34-0.448-0.663-0.601-1.037
				c-0.156-0.387-0.348-0.76-0.437-1.126c-0.109-0.453-0.074-0.875-0.039-1.199c0.051-0.486,0.269-0.888,0.763-0.785
				C342.834,289.679,343.155,289.978,343.595,290.298z"/>
		</g>
		<g>
			<path fill="#ECE0C6" d="M280.168,318.131c0.289,0.21,0.713,0.514,0.967,0.979c0.21,0.387,0.437,0.842,0.564,1.276
				c0.142,0.48,0.003,0.998-0.021,1.391c-0.034,0.54-0.207,0.813-0.719,0.833c-0.32,0.012-0.701-0.122-1.04-0.542
				c-0.239-0.297-0.262-0.781-0.465-1.182c-0.191-0.376-0.681-0.639-0.81-1.029c-0.146-0.444-0.06-0.925-0.083-1.286
				c-0.037-0.574,0.068-0.97,0.487-0.975C279.313,317.593,279.666,317.767,280.168,318.131z"/>
		</g>
		<g>
			<g>
				<path fill="#F6EED7" d="M105.436,184.08c-1.482-0.483-1.078-1.639-0.018-2.783c5.157-5.57,5.228-5.505,10.386-11.075
					c5.159-5.571,4.07-6.579,9.229-12.15c5.161-5.573,5.023-5.701,10.185-11.274c5.159-5.572,5.28-5.46,10.439-11.031
					c5.163-5.576,6.111-4.697,11.274-10.272c5.163-5.576,5.322-5.429,10.485-11.004c1.06-1.145,2.51-2.553,4.015-2.146
					c7.131,1.976,7.123,2.004,14.252,3.984c7.129,1.979,7.17,1.83,14.299,3.811c7.129,1.979,6.937,2.671,14.064,4.65
					c7.13,1.98,7.486,0.698,14.615,2.679c7.131,1.979,7.139,1.953,14.27,3.934c7.129,1.98,7.129,1.979,14.259,3.959
					c7.13,1.979,6.969,2.561,14.1,4.541c7.13,1.979,7.259,1.517,14.389,3.496c7.131,1.981,6.825,3.081,13.956,5.062
					c7.129,1.979,7.136,1.955,14.266,3.936c7.131,1.98,7.222,1.656,14.353,3.637c7.13,1.98,7.031,2.333,14.161,4.313
					c7.134,1.981,7.377,1.104,14.512,3.086c7.134,1.981,6.857,2.976,13.993,4.952c1.505,0.407,2.425,1.611,1.44,2.819
					c-4.457,5.549-4.403,5.592-8.855,11.144c-4.453,5.553-5.519,4.698-9.971,10.25c-4.454,5.554-3.738,6.128-8.191,11.682
					c-4.456,5.556-4.648,5.401-9.104,10.957c-4.455,5.554-4.281,5.692-8.735,11.247c-4.457,5.558-4.521,5.506-8.979,11.064
					c-4.457,5.558-4.841,5.249-9.302,10.803c-0.985,1.208-2.307,1.204-3.789,0.722c-6.651-2.205-7.178-0.618-13.828-2.827
					c-6.651-2.21-6.544-2.535-13.195-4.745c-6.65-2.21-6.404-2.949-13.055-5.159c-6.65-2.209-6.715-2.013-13.365-4.223
					c-6.652-2.21-6.849-1.618-13.5-3.828c-6.652-2.21-6.612-2.33-13.265-4.54c-6.651-2.21-6.653-2.203-13.305-4.413
					s-6.854-1.604-13.505-3.813c-6.652-2.21-6.641-2.244-13.293-4.455c-6.65-2.209-6.526-2.58-13.177-4.789
					c-6.651-2.21-6.728-1.979-13.379-4.189c-6.655-2.211-6.286-3.32-12.94-5.532c-6.652-2.21-6.783-1.815-13.435-4.025
					c-6.656-2.212-6.812-1.708-13.511-3.787C111.979,186.662,112.093,186.288,105.436,184.08z"/>
			</g>
			<g>
				<path fill="#ECE0C6" d="M102.615,185.655c-0.082-1.558,3.835-5.291,5.317-4.808c6.672,2.22,6.349,3.191,13.019,5.416
					c6.672,2.226,6.571,2.527,13.243,4.753c6.67,2.225,7.069,1.029,13.739,3.254c6.671,2.225,6.227,3.558,12.897,5.782
					s6.952,1.382,13.623,3.606c6.673,2.226,6.319,3.286,12.991,5.512c6.672,2.225,6.699,2.141,13.371,4.365
					c6.672,2.226,6.695,2.153,13.367,4.378c6.672,2.226,6.649,2.294,13.321,4.52c6.67,2.225,6.778,1.9,13.448,4.125
					c6.671,2.225,6.581,2.494,13.252,4.72c6.675,2.226,6.713,2.111,13.388,4.337c6.671,2.226,6.788,1.874,13.46,4.1
					c6.676,2.227,6.854,1.695,13.529,3.922c6.678,2.227,6.663,2.27,13.342,4.491c1.482,0.482-0.651,3.966-0.788,5.52
					c-0.485,5.519,0.554,5.61,0.069,11.128c-0.484,5.52-1.82,5.401-2.305,10.92c-0.137,1.554-0.719,2.487-2.198,1.996
					c-6.988-2.362-6.758-3.044-13.745-5.411c-6.986-2.366-6.955-2.46-13.941-4.827c-6.986-2.365-7.023-2.257-14.01-4.623
					c-6.986-2.367-7.157-1.864-14.145-4.23c-6.988-2.367-6.92-2.568-13.908-4.936c-6.987-2.367-6.947-2.484-13.936-4.852
					c-6.988-2.366-7.281-1.501-14.27-3.867c-6.988-2.367-7.129-1.952-14.117-4.319c-6.989-2.367-6.441-3.983-13.431-6.351
					c-6.987-2.366-7.501-0.849-14.488-3.216c-6.989-2.367-6.725-3.149-13.714-5.518c-6.988-2.366-6.866-2.726-13.854-5.093
					c-6.992-2.368-7.157-1.88-14.148-4.248c-6.992-2.368-7.284-1.505-14.278-3.869c-1.479-0.491-2.18-3.096-2.262-4.652
					c-0.292-5.516-0.002-5.543-0.429-11.049C103.6,191.119,102.906,191.17,102.615,185.655z"/>
			</g>
			<g>
				<path fill="#DDCFB4" d="M371.571,170.175c0.984-1.208,2.16-0.198,2.063,1.358c-0.689,10.533-0.863,10.521-1.552,21.055
					c-0.097,1.556,0.899,4.447-0.092,5.651c-4.715,5.699-5.564,4.996-10.281,10.694c-4.715,5.695-4.219,6.105-8.934,11.802
					c-4.716,5.697-5.467,5.075-10.184,10.773c-4.717,5.699-3.835,6.429-8.553,12.129c-4.717,5.697-5.963,4.665-10.68,10.363
					c-4.72,5.701-3.75,6.504-8.469,12.205c-4.72,5.701-4.561,5.834-9.278,11.536c-0.991,1.204-1.535,0.628-1.398-0.926
					c0.984-10.149-0.045-10.249,0.939-20.399c0.137-1.554,2.238-6.368,3.224-7.577c4.514-5.617,3.968-6.056,8.477-11.677
					c4.508-5.619,5.235-5.035,9.743-10.655c4.509-5.621,3.158-6.704,7.667-12.325c4.51-5.623,5.912-4.498,10.423-10.121
					c4.509-5.621,3.867-6.136,8.376-11.757c4.512-5.625,3.949-6.096,8.657-11.557C366.439,175.275,367.055,175.797,371.571,170.175z
					"/>
			</g>
			<g>
				<g>
					<path fill="#DDCFB4" d="M288.286,199.746c-1.595,0.079-1.683-0.366-1.12-0.945c0.389-0.401,1.133-0.653,2.016-0.957
						c0.713-0.245,1.422-0.702,2.197-0.684c0.799,0.02,1.616,0.186,2.228,0.679c1.025,0.829,0.965,1.146,0.515,1.392
						c-0.363,0.198-0.971,0.673-1.846,0.687c-0.611,0.01-1.306,0.048-2.001,0.04C289.596,199.949,288.916,199.715,288.286,199.746z"
						/>
				</g>
				<g>
					<path fill="#DDCFB4" d="M188.211,136.731c-0.387,0.308-1.197,0.478-1.994,0.368c-0.58-0.081-1.234-0.367-1.875-0.592
						c-0.611-0.214-1.229-0.506-1.776-0.792c-0.654-0.341-1.196-0.779-1.577-1.133c-0.645-0.599-0.737-1.181,0.155-1.44
						c0.653-0.19,1.47-0.334,2.288-0.216c0.74,0.107,1.561,0.255,2.26,0.528c0.781,0.305,1.595,0.654,2.106,1.057
						C188.621,135.158,188.858,136.219,188.211,136.731z"/>
				</g>
				<g>
					<path fill="#DDCFB4" d="M212.719,150.564c-0.395,0.158-1.006,0.021-1.613,0.013c-0.498-0.006-1.085,0.24-1.616,0.139
						c-0.529-0.102-0.958-0.619-1.424-0.802c-0.554-0.218-1.158-0.289-1.477-0.602c-0.418-0.409-0.56-1.027-0.255-1.557
						c0.205-0.355,0.819-0.32,1.469-0.43c0.459-0.078,0.952-0.13,1.515-0.105c0.509,0.022,1.079-0.271,1.596-0.178
						c0.534,0.096,1.009,0.439,1.474,0.597c0.574,0.192,0.937,0.57,1.271,0.833c0.5,0.392,0.927,0.794,0.472,1.267
						C213.879,150,213.376,150.3,212.719,150.564z"/>
				</g>
				<g>
					<path fill="#DDCFB4" d="M161.576,175.472c-0.392,0.104-0.744,0.414-1.122,0.471c-0.406,0.062-0.835-0.085-1.211-0.086
						c-0.417-0.001-0.812-0.086-1.173-0.174c-0.402-0.098-0.758-0.26-1.068-0.479c-0.315-0.224-0.688-0.448-0.882-0.813
						c-0.296-0.558-0.114-1.125,0.254-1.398c0.328-0.245,0.907-0.228,1.397-0.271c0.543-0.048,1.063-0.012,1.354,0.157
						c0.211,0.123,0.579,0.346,1.006,0.573c0.331,0.175,0.75,0.263,1.069,0.464c0.387,0.245,0.601,0.618,0.773,0.851
						C162.21,175.086,162.224,175.3,161.576,175.472z"/>
				</g>
				<g>
					<path fill="#DDCFB4" d="M313.743,190.291c-0.392-0.006-0.804-0.127-1.192-0.195c-0.398-0.071-0.815-0.129-1.176-0.245
						c-0.412-0.133-0.706-0.498-1.019-0.657c-0.494-0.252-0.868-0.444-0.946-0.653c-0.09-0.242,0.172-0.541,0.945-0.529
						c0.433,0.006,0.835,0.294,1.24,0.39c0.438,0.103,0.842,0.216,1.203,0.379c0.457,0.205,0.768,0.488,1.021,0.707
						C314.296,189.892,314.435,190.302,313.743,190.291z"/>
				</g>
				<g>
					<path fill="#DDCFB4" d="M168.271,224.072c0.582,0.469,0.692,0.795,0.526,1.059c-0.182,0.287-0.661,0.501-1.194,0.49
						c-0.451-0.009-0.947-0.155-1.278-0.413c-0.42-0.329-0.491-0.834-0.306-1.19c0.175-0.337,0.613-0.673,1.135-0.622
						C167.494,223.427,167.849,223.732,168.271,224.072z"/>
				</g>
				<g>
					<path fill="#DDCFB4" d="M208.484,150.237c-0.345,0.313-0.624,0.627-1.005,0.707c-0.416,0.088-0.832,0.002-1.23-0.174
						c-0.354-0.157-0.71-0.385-1.004-0.741c-0.246-0.297-0.451-0.669-0.626-1.098c-0.219-0.53,0.039-0.688,0.506-0.735
						c0.318-0.032,0.685,0.097,1.124,0.217c0.373,0.101,0.857-0.018,1.211,0.154c0.396,0.191,0.742,0.477,0.988,0.709
						C208.821,149.624,208.816,149.934,208.484,150.237z"/>
				</g>
				<g>
					<path fill="#DDCFB4" d="M157.522,206.378c-0.119-0.537,0.197-0.994,0.677-1.08c0.35-0.063,0.81,0.181,1.286,0.347
						c0.381,0.133,0.765,0.325,1.135,0.598c0.338,0.249,0.689,0.512,0.952,0.874c0.295,0.407,0.279,0.803,0.15,1.152
						c-0.134,0.367-0.365,0.78-0.775,0.944c-0.357,0.142-0.8,0.015-1.229-0.099c-0.359-0.094-0.799-0.163-1.128-0.495
						c-0.253-0.257-0.514-0.611-0.711-1.039C157.725,207.246,157.622,206.83,157.522,206.378z"/>
				</g>
				<g>
					<path fill="#DDCFB4" d="M347.957,194.639c-0.303,0.121-0.773,0.23-1.24,0.225c-0.381-0.006-0.819-0.093-1.228-0.172
						c-0.406-0.078-0.715-0.491-1.072-0.633c-0.426-0.167-0.694-0.373-0.938-0.613c-0.32-0.315-0.631-0.542-0.396-0.948
						c0.158-0.273,0.569-0.456,1.069-0.54c0.353-0.06,0.773-0.114,1.206-0.096c0.391,0.018,0.777,0.238,1.175,0.309
						c0.41,0.074,0.898-0.139,1.257-0.019c0.441,0.148,0.89,0.359,1.146,0.561c0.383,0.302,0.52,0.992,0.17,1.356
						C348.913,194.269,348.463,194.436,347.957,194.639z"/>
				</g>
				<g>
					<path fill="#DDCFB4" d="M287.641,231.865c0.379,0.227,0.732,0.437,1.043,0.642c0.379,0.252,0.644,0.585,0.919,0.812
						c0.375,0.311,0.791,0.52,0.962,0.807c0.231,0.388,0.207,0.879,0.041,1.271c-0.203,0.475-0.704,0.392-1.195,0.081
						c-0.321-0.202-0.61-0.57-0.942-0.925c-0.307-0.327-0.718-0.59-0.962-0.928c-0.227-0.313-0.275-0.752-0.457-1.047
						c-0.295-0.483-0.472-0.719-0.361-0.858C286.781,231.599,287.018,231.488,287.641,231.865z"/>
				</g>
				<g>
					<path fill="#DDCFB4" d="M253.244,158.652c-0.43,0.115-0.916-0.017-1.331,0.047c-0.446,0.067-0.882,0.277-1.296,0.276
						c-0.459-0.001-0.955,0.031-1.354-0.065c-0.441-0.107-0.668-0.688-1.01-0.929c-0.348-0.245-0.969-0.291-1.182-0.692
						c-0.24-0.45-0.135-1.035,0.057-1.314c0.193-0.279,0.66-0.497,1.072-0.62c0.359-0.107,0.798,0.169,1.174,0.171
						c0.454,0.002,0.927-0.223,1.177-0.078c0.232,0.135,0.592,0.455,1.062,0.704c0.363,0.193,0.788,0.354,1.139,0.576
						c0.425,0.269,0.931,0.466,1.121,0.722C254.134,157.8,253.956,158.463,253.244,158.652z"/>
				</g>
				<g>
					<path fill="#DDCFB4" d="M221.131,181.013c-1.104,0.055-1.328-0.471-0.939-0.871c0.269-0.277,0.852-0.57,1.463-0.781
						c0.494-0.17,1.082-0.365,1.619-0.352c0.553,0.014,1.034,0.381,1.457,0.723c0.71,0.573,0.889,0.948,0.576,1.118
						c-0.251,0.138-0.811,0.092-1.414,0.102c-0.424,0.007-0.902,0.116-1.386,0.11C222.037,181.056,221.568,180.992,221.131,181.013z
						"/>
				</g>
				<g>
					<path fill="#DDCFB4" d="M230.759,206.486c-0.47-0.008-0.95,0.061-1.415-0.021c-0.479-0.086-1.012-0.003-1.443-0.143
						c-0.492-0.158-0.845-0.612-1.218-0.803c-0.594-0.302-0.935-0.596-1.028-0.847c-0.107-0.29,0.115-0.683,1.042-0.67
						c0.518,0.007,1.022,0.33,1.508,0.444c0.523,0.122,0.977,0.369,1.409,0.563c0.549,0.246,1.105,0.359,1.411,0.621
						C231.594,206.12,231.587,206.498,230.759,206.486z"/>
				</g>
				<g>
					<path fill="#DDCFB4" d="M208.372,224.227c0.354,0.044,0.747,0.201,1.195,0.486c0.37,0.237,0.791,0.444,1.113,0.763
						c0.356,0.352,0.609,0.737,0.777,1.092c0.234,0.492,0.237,0.824-0.202,1.089c-0.276,0.165-0.697,0.256-1.198,0.052
						c-0.353-0.144-0.794-0.295-1.165-0.548c-0.35-0.236-0.488-0.76-0.79-1.04c-0.343-0.318-0.865-0.453-1.061-0.758
						c-0.31-0.484-0.249-0.967,0.114-1.174C207.385,224.058,207.757,224.152,208.372,224.227z"/>
				</g>
				<g>
					<path fill="#DDCFB4" d="M180.841,154.993c-0.463,0.123-0.904,0.296-1.331,0.319c-0.497,0.027-0.976-0.029-1.366-0.169
						c-0.44-0.158-0.712-0.516-0.937-0.936c-0.299-0.567-0.02-0.973,0.498-1.128c0.5-0.15,1.1,0.08,1.387,0.247
						c0.185,0.106,0.621,0.18,1.005,0.392c0.332,0.183,0.591,0.479,0.818,0.675C181.259,154.691,181.416,154.84,180.841,154.993z"/>
				</g>
				<g>
					<path fill="#DDCFB4" d="M191.979,187.176c0.405,0.604,0.24,0.746-0.243,0.784c-0.346,0.026-0.772-0.072-1.224-0.265
						c-0.408-0.174-0.798-0.372-1.067-0.68c-0.434-0.494-0.188-0.693,0.335-0.778c0.357-0.058,0.791-0.024,1.238,0.159
						C191.408,186.556,191.727,186.802,191.979,187.176z"/>
				</g>
				<g>
					<path fill="#DDCFB4" d="M202.356,167.37c-0.231,0.184-0.692,0.101-1.216-0.052c-0.412-0.12-0.909-0.166-1.245-0.368
						c-0.566-0.34-0.793-0.721-0.287-0.868c0.34-0.1,0.759-0.184,1.188-0.084c0.411,0.095,0.753,0.382,1.066,0.57
						C202.364,166.868,202.673,167.118,202.356,167.37z"/>
				</g>
				<g>
					<path fill="#DDCFB4" d="M277.1,247.298c0.649,0.521,0.39,0.882-0.068,1.012c-0.399,0.114-0.991,0.118-1.34-0.153
						c-0.438-0.346-0.319-0.986,0.108-1.183C276.097,246.837,276.6,246.896,277.1,247.298z"/>
				</g>
				<g>
					<path fill="#DDCFB4" d="M179.229,214.59c0.43-0.102,0.785-0.062,1.1,0.114c0.322,0.18,0.528,0.47,0.663,0.878
						c0.109,0.327,0.205,0.697,0.152,1.137c-0.067,0.582-0.516,0.413-1.01,0.002c-0.328-0.271-0.608-0.681-0.838-1.06
						C178.966,215.116,178.786,214.695,179.229,214.59z"/>
				</g>
				<g>
					<path fill="#DDCFB4" d="M216.322,160.89c-0.325,0.131-0.907,0.09-1.444,0.017c-0.473-0.064-1.018-0.135-1.396-0.323
						c-0.532-0.266-0.721-0.737-0.472-1.169c0.142-0.246,0.487-0.379,0.989-0.41c0.356-0.022,0.767-0.055,1.166,0.007
						c0.404,0.062,0.818,0.136,1.148,0.262c0.501,0.19,0.89,0.502,0.878,0.78C217.182,160.281,216.921,160.649,216.322,160.89z"/>
				</g>
				<g>
					<path fill="#DDCFB4" d="M224.075,137.399c-0.42-0.015-0.81,0.214-1.14,0.179c-0.451-0.048-0.753-0.369-1.034-0.477
						c-0.432-0.163-0.689-0.276-0.729-0.652c-0.049-0.477,0.446-0.557,1.076-0.415c0.426,0.097,0.89,0.33,1.288,0.517
						c0.389,0.185,0.809,0.35,1.051,0.525C224.951,137.341,224.951,137.431,224.075,137.399z"/>
				</g>
				<g>
					<path fill="#DDCFB4" d="M302.427,259.14c0.312,0.064,0.777,0.057,1.187,0.279c0.345,0.187,0.555,0.635,0.873,0.877
						c0.357,0.27,0.806,0.403,1.016,0.674c0.335,0.43,0.401,0.929-0.03,1.122c-0.395,0.178-0.784,0.02-1.138-0.064
						c-0.365-0.088-0.774-0.128-1.088-0.354c-0.326-0.236-0.502-0.658-0.762-0.883c-0.334-0.289-0.71-0.654-0.818-1.038
						C301.534,259.282,301.678,258.986,302.427,259.14z"/>
				</g>
				<g>
					<path fill="#DDCFB4" d="M195.024,219.431c0.378,0.095,0.702,0.356,1.035,0.493c0.369,0.15,0.707,0.321,0.995,0.523
						c0.328,0.23,0.551,0.523,0.738,0.821c0.199,0.316,0.235,0.642,0.229,1.035c-0.009,0.48-0.146,0.702-0.492,0.75
						c-0.309,0.043-0.684-0.072-1.026-0.225c-0.379-0.168-0.842-0.317-0.975-0.537c-0.119-0.2-0.242-0.66-0.498-1.067
						c-0.223-0.353-0.527-0.692-0.642-1.001C194.217,219.756,194.389,219.273,195.024,219.431z"/>
				</g>
				<g>
					<path fill="#ECE0C6" d="M149.301,156.489c-0.175-0.56-0.157-0.887,0.052-1.051c0.227-0.179,0.626-0.147,1.083,0.024
						c0.316,0.119,0.707,0.237,1.039,0.474c0.301,0.215,0.511,0.567,0.766,0.848c0.262,0.289,0.615,0.528,0.767,0.854
						c0.243,0.523,0.099,0.984-0.184,1.14c-0.253,0.139-0.741,0.185-1.19,0.062c-0.332-0.092-0.573-0.502-0.911-0.721
						c-0.308-0.201-0.702-0.313-0.946-0.609C149.539,157.222,149.417,156.858,149.301,156.489z"/>
				</g>
				<g>
					<path fill="#ECE0C6" d="M291.874,168.896c0.322-0.005,0.661,0.104,1.093,0.198c0.359,0.079,0.862-0.264,1.245-0.133
						c0.369,0.125,0.706,0.394,1.057,0.554c0.373,0.17,0.632,0.523,0.935,0.717c0.387,0.246,0.862,0.333,1.047,0.587
						c0.263,0.361,0.131,0.755-0.266,1.05c-0.369,0.277-0.744,0.303-1.128,0.359c-0.411,0.059-0.856,0.378-1.263,0.271
						c-0.398-0.105-0.816-0.308-1.186-0.488c-0.395-0.193-0.582-0.758-0.913-0.937c-0.366-0.197-0.683-0.443-0.971-0.767
						c-0.35-0.393-0.535-0.669-0.5-1.004C291.06,168.97,291.165,168.907,291.874,168.896z"/>
				</g>
				<g>
					<path fill="#ECE0C6" d="M263.393,229.288c0.804,0.396,0.967,0.834,0.839,1.186c-0.14,0.383-0.642,0.743-1.267,0.869
						c-0.529,0.106-1.18,0.158-1.633-0.059c-0.576-0.275-0.688-0.906-0.563-1.371c0.117-0.439,0.477-0.94,1.1-1.018
						C262.278,228.844,262.811,229.001,263.393,229.288z"/>
				</g>
				<g>
					<path fill="#ECE0C6" d="M251.154,189.802c-0.218-0.694,0.163-0.953,0.638-0.854c0.338,0.071,0.784,0.297,1.163,0.608
						c0.343,0.282,0.632,0.664,0.804,1.035c0.277,0.596-0.082,0.782-0.607,0.716c-0.359-0.045-0.863-0.105-1.24-0.406
						C251.579,190.636,251.289,190.231,251.154,189.802z"/>
				</g>
				<g>
					<path fill="#ECE0C6" d="M267.793,198.598c0.435,0.134,0.861,0.286,1.236,0.519c0.449,0.276,0.79,0.598,1.028,0.864
						c0.423,0.474,0.489,0.698-0.353,0.438c-0.385-0.12-0.728-0.307-1.042-0.514c-0.371-0.243-0.644-0.528-0.856-0.778
						C267.395,198.642,267.241,198.426,267.793,198.598z"/>
				</g>
				<g>
					<path fill="#ECE0C6" d="M274.635,219.369c0.275-0.111,0.754-0.005,1.213,0.289c0.361,0.231,0.771,0.506,1.038,0.794
						c0.447,0.486,0.548,1.008,0.02,1.007c-0.354-0.001-0.716-0.236-1.101-0.453c-0.367-0.206-0.785-0.366-1.034-0.635
						C274.375,219.942,274.258,219.519,274.635,219.369z"/>
				</g>
				<g>
					<path fill="#ECE0C6" d="M157.269,183.32c0.747,0.369,0.591,0.857,0.173,1.084c-0.364,0.197-0.955,0.239-1.355,0.05
						c-0.502-0.241-0.518-0.829-0.145-1.113C156.202,183.142,156.695,183.037,157.269,183.32z"/>
				</g>
				<g>
					<path fill="#ECE0C6" d="M179.143,153.223c-0.205-0.439,0.109-0.668,0.606-0.748c0.332-0.055,0.746-0.078,1.174,0.063
						c0.36,0.119,0.671,0.373,0.983,0.65c0.4,0.355,0.436,0.734,0.199,1.079c-0.219,0.318-0.62,0.577-1.099,0.56
						c-0.361-0.014-0.816-0.128-1.191-0.49C179.559,154.09,179.36,153.688,179.143,153.223z"/>
				</g>
				<g>
					<path fill="#ECE0C6" d="M260.444,252.294c0.398,0.133,0.697,0.403,1.004,0.528c0.42,0.173,0.756,0.31,0.996,0.491
						c0.368,0.278,0.626,0.573,0.557,0.944c-0.088,0.472-0.651,0.304-1.217-0.011c-0.381-0.212-0.749-0.547-1.076-0.838
						c-0.321-0.287-0.784-0.461-0.967-0.697C259.466,252.354,259.614,252.014,260.444,252.294z"/>
				</g>
				<g>
					<path fill="#ECE0C6" d="M150.504,144.288c0.32-0.005,0.776-0.216,1.225-0.089c0.378,0.107,0.77,0.311,1.135,0.478
						c0.406,0.186,0.701,0.521,0.965,0.74c0.42,0.347,0.625,0.664,0.246,0.948c-0.348,0.259-0.718,0.295-1.079,0.289
						c-0.377-0.006-0.726-0.137-1.081-0.29c-0.369-0.161-0.804-0.189-1.105-0.352c-0.39-0.209-0.765-0.672-0.954-1.023
						C149.622,144.558,149.74,144.3,150.504,144.288z"/>
				</g>
			</g>
			<g>
				<path fill="#ECE0C6" d="M370.787,189.726c0.582,0.468,0.676,0.747,0.51,1.01c-0.182,0.287-0.623,0.403-1.156,0.393
					c-0.449-0.009-0.889-0.111-1.219-0.369c-0.421-0.329-0.547-0.753-0.363-1.109c0.176-0.337,0.596-0.545,1.117-0.496
					C370.018,189.187,370.364,189.386,370.787,189.726z"/>
			</g>
			<g>
				<path fill="#ECE0C6" d="M328.613,237.661c-0.087-0.395,0.187-0.594,0.606-0.569c0.279,0.016,0.593,0.185,0.915,0.377
					c0.271,0.162,0.618,0.302,0.823,0.584c0.262,0.361,0.137,0.799-0.118,1.037c-0.234,0.219-0.63,0.272-1.016,0.171
					c-0.292-0.076-0.605-0.236-0.845-0.599C328.815,238.414,328.705,238.078,328.613,237.661z"/>
			</g>
			<g>
				<path fill="#ECE0C6" d="M313.368,250.867c0.354,0.043,0.738,0.287,1.187,0.573c0.37,0.236,0.912,0.323,1.235,0.642
					c0.355,0.352,0.397,0.905,0.565,1.26c0.232,0.491,0.336,0.803-0.104,1.067c-0.275,0.165-0.644,0.07-1.144-0.134
					c-0.352-0.144-0.734-0.316-1.106-0.569c-0.349-0.236-0.852-0.318-1.152-0.599c-0.344-0.318-0.642-0.701-0.837-1.006
					c-0.31-0.484-0.33-1.143,0.034-1.35C312.277,250.622,312.754,250.792,313.368,250.867z"/>
			</g>
			<g>
				<path fill="#ECE0C6" d="M344.904,226.129c0.078,0.396-0.163,0.59-0.581,0.558c-0.279-0.021-0.604-0.182-0.921-0.379
					c-0.27-0.168-0.541-0.377-0.74-0.663c-0.255-0.366-0.171-0.751,0.087-0.983c0.24-0.214,0.615-0.225,0.998-0.116
					c0.29,0.082,0.571,0.23,0.804,0.597C344.708,225.392,344.819,225.711,344.904,226.129z"/>
			</g>
			<g>
				<path fill="#ECE0C6" d="M351.581,213.98c-0.179,0.264-0.378,0.695-0.794,0.892c-0.347,0.164-0.78,0.279-1.169,0.35
					c-0.428,0.078-0.897,0.086-1.235-0.003c-0.414-0.109-0.607-0.48-0.639-0.935c-0.024-0.357,0.158-0.789,0.612-1.101
					c0.334-0.229,0.754-0.487,1.186-0.639c0.438-0.153,0.941-0.051,1.34-0.077c0.572-0.038,0.888,0.059,1.019,0.402
					C352.002,213.134,351.96,213.42,351.581,213.98z"/>
			</g>
		</g>
		<g>
			<g>
				<path fill="#F6EED7" d="M113.114,236.619c1.312-2.688,2.843-0.51,5.776-1.086c2.932-0.576,2.892-0.782,5.823-1.357
					c2.934-0.577,2.973-0.379,5.907-0.956c2.937-0.576,2.891-0.809,5.827-1.386c2.936-0.576,3.042-1.938,5.909-1.082
					c2.949,0.881,2.198,2.187,4.429,4.307c2.233,2.122,2.342,2.009,4.574,4.131c2.234,2.123,2.166,2.196,4.4,4.32
					c2.234,2.123,4.838,1.209,4.436,4.265c-0.364,2.773-2.636,0.9-5.272,1.834c-2.638,0.935-2.669,0.843-5.307,1.777
					c-2.636,0.934-2.626,0.96-5.263,1.894c-2.638,0.935-2.629,0.961-5.267,1.896c-2.64,0.936-2.571,1.129-5.211,2.063
					c-2.64,0.936-2.623,2.505-5.298,1.673c-2.604-0.811-1.535-2.192-3.089-4.433c-1.555-2.24-1.483-2.29-3.038-4.531
					c-1.555-2.242-1.689-2.149-3.245-4.393c-1.557-2.245-1.08-2.656-3.126-4.467C113.859,239.123,111.916,239.074,113.114,236.619z"
					/>
			</g>
			<g>
				<path fill="#ECE0C6" d="M112.989,236.541c2.302-1.132,1.521,2.095,3.075,4.136c1.555,2.041,1.684,1.942,3.237,3.983
					c1.555,2.042,1.368,2.186,2.923,4.227c1.558,2.045,1.766,1.887,3.323,3.933c1.557,2.044,2.213,1.727,3.027,4.164
					c0.829,2.483-0.066,2.625-0.066,5.243c0,2.617,0.019,2.617,0.019,5.234c0,2.619-0.064,2.619-0.064,5.238
					c0,2.621,0.169,2.621,0.169,5.241c0,2.621,2.524,4.92-0.074,5.261c-2.85,0.375-1.672-2.361-3.227-4.778
					c-1.555-2.418-1.418-2.506-2.973-4.923c-1.555-2.42-1.494-2.459-3.051-4.878c-1.557-2.422-1.557-2.422-3.113-4.843
					s-2.332-2.043-3.154-4.801c-0.801-2.685,0.059-2.789,0.059-5.59c0-2.803-0.183-2.803-0.183-5.605
					c0-2.805,0.894-2.922,0.206-5.642C112.353,239.101,110.471,237.779,112.989,236.541z"/>
			</g>
			<g>
				<path fill="#DDCFB4" d="M160.263,246.681c2.189,1.244-0.067,2.613-0.067,5.131s0.108,2.518,0.108,5.034
					c0,2.519,0.007,2.519,0.007,5.038c0,2.521-0.13,2.521-0.13,5.041c0,2.521,1.487,2.984-0.042,4.988
					c-1.697,2.224-2.6,0.894-5.236,1.827c-2.637,0.935-2.608,1.016-5.246,1.949c-2.636,0.935-2.644,0.912-5.279,1.846
					c-2.639,0.935-2.632,0.952-5.271,1.887c-2.64,0.936-2.614,1.005-5.254,1.94c-2.641,0.936-3.094,3.547-5.292,1.811
					c-2.371-1.872,0.037-3.012,0.037-6.033c0-3.023-0.027-3.023-0.027-6.047c0-3.025-0.119-3.025-0.119-6.052
					s-1.503-3.486,0.15-6.021c1.543-2.367,2.594-1.034,5.23-2.052s2.635-1.023,5.271-2.041c2.637-1.017,2.667-0.937,5.304-1.954
					c2.638-1.018,2.604-1.105,5.241-2.124c2.641-1.019,2.933-0.457,5.27-2.052C157.485,247.047,157.802,245.284,160.263,246.681z"/>
			</g>
		</g>
		<g>
			<g>
				<path fill="#F6EED7" d="M54.037,231.93c0.146-2.671,2.041-1.672,4.076-3.406c2.037-1.734,1.935-1.854,3.971-3.589
					c2.039-1.735,2.11-1.651,4.149-3.388c2.04-1.737,2.023-1.756,4.063-3.493s1.396-3.33,4.07-3.502
					c2.938-0.188,2.628,1.354,5.195,2.795c2.566,1.441,2.452,1.645,5.019,3.086s2.674,1.25,5.24,2.691
					c2.567,1.442,2.463,1.629,5.03,3.072c2.57,1.443,2.565,1.452,5.135,2.896c2.57,1.444,4.486-0.074,5.144,2.799
					c0.578,2.527-1.808,1.794-3.625,3.643s-1.713,1.951-3.53,3.8c-1.817,1.848-1.856,1.81-3.673,3.658
					c-1.816,1.848-1.919,1.747-3.735,3.596c-1.817,1.85-1.688,1.978-3.504,3.826c-1.82,1.852-1.905,1.769-3.726,3.62
					s-1.007,3.887-3.604,3.892c-2.604,0.005-1.797-2.038-3.635-3.884c-1.838-1.845-1.881-1.804-3.719-3.648
					s-1.931-1.753-3.769-3.598s-1.786-1.896-3.624-3.741c-1.838-1.846-1.75-1.934-3.588-3.779c-1.842-1.849-1.484-2.318-3.68-3.728
					C55.375,234.044,53.896,234.536,54.037,231.93z"/>
			</g>
			<g>
				<path fill="#ECE0C6" d="M53.996,231.947c2.63-1.274,2.157,1.942,4.302,3.929c2.144,1.985,2.082,2.052,4.226,4.037
					c2.145,1.986,2.105,2.028,4.249,4.014c2.146,1.987,2.224,1.903,4.37,3.892c2.147,1.988,2.105,2.033,4.254,4.022
					c2.146,1.988,3.156,1.252,4.433,3.886c1.065,2.195,0.006,2.487,0.006,4.928c0,2.442-0.157,2.442-0.157,4.885
					c0,2.444,0.033,2.444,0.033,4.889s2.322,4.06,0.048,4.956c-2.489,0.98-2.192-1.639-4.337-3.237
					c-2.144-1.599-2.052-1.721-4.195-3.319s-2.271-1.428-4.416-3.026c-2.146-1.6-2.012-1.779-4.158-3.379
					c-2.146-1.602-2.258-1.454-4.405-3.055c-2.147-1.602-3.064-0.851-4.192-3.279c-1.273-2.74-0.099-2.99-0.099-6.011
					c0-3.023,0.099-3.023,0.099-6.047c0-3.026,0.646-3.111-0.093-6.046C53.14,234.722,51.274,233.265,53.996,231.947z"/>
			</g>
			<g>
				<path fill="#DDCFB4" d="M105.231,231.771c2.761,1.229-0.08,3.129-0.08,6.15c0,3.023,0.094,3.023,0.094,6.047
					c0,3.025-0.143,3.025-0.143,6.052c0,3.025,1.348,3.303,0.088,6.054c-1.107,2.416-2.075,1.668-4.195,3.271
					c-2.119,1.603-2.139,1.577-4.258,3.18s-2.12,1.602-4.24,3.204c-2.121,1.604-2.212,1.482-4.333,3.087
					c-2.123,1.604-2.111,1.62-4.234,3.226s-2.024,4.813-4.205,3.288c-2.532-1.769-0.061-3.102-0.061-6.19
					c0-3.092-0.043-3.092-0.043-6.183s-1.141-3.355,0.033-6.215c1.126-2.743,2.229-2.011,4.349-4.084
					c2.119-2.072,2.045-2.148,4.164-4.222s2.191-1.999,4.311-4.072c2.121-2.075,2.125-2.07,4.246-4.146
					c2.123-2.076,2.592-1.697,4.13-4.237C102.612,233.077,102.519,230.564,105.231,231.771z"/>
			</g>
		</g>
		<g>
			<g>
				<path fill="#F6EED7" d="M147.739,257.704c0.563-2.756,2.601-1.008,5.203-2.074c2.604-1.067,2.592-1.097,5.195-2.164
					c2.602-1.066,2.599-1.073,5.2-2.14c2.604-1.066,2.624-1.016,5.229-2.082c2.606-1.068,2.595-1.096,5.202-2.163
					c2.605-1.068,2.416-2.673,5.192-2.199c2.688,0.458,2.077,1.78,4.077,3.634c2.002,1.854,1.948,1.911,3.949,3.765
					c2.002,1.854,1.894,1.97,3.895,3.823c2.006,1.857,2.177,1.673,4.182,3.529c2.005,1.857,4.59,1.155,4.043,3.833
					c-0.563,2.756-2.771,0.923-5.374,1.989s-2.541,1.219-5.144,2.285c-2.602,1.066-2.6,1.07-5.201,2.137
					c-2.605,1.067-2.615,1.043-5.22,2.11c-2.605,1.067-2.63,1.009-5.235,2.077c-2.606,1.067-2.404,2.576-5.18,2.103
					c-2.688-0.458-1.939-1.855-3.939-3.709c-2.002-1.854-2.099-1.749-4.1-3.602c-2.002-1.854-2.033-1.821-4.035-3.675
					c-2.004-1.856-1.598-2.391-3.986-3.717C149.071,260.009,147.192,260.382,147.739,257.704z"/>
			</g>
			<g>
				<path fill="#ECE0C6" d="M147.747,257.774c2.446-1.207,1.897,1.849,3.898,3.701c2.002,1.854,2.036,1.816,4.037,3.67
					c2.002,1.854,2.104,1.744,4.105,3.598c2.005,1.856,1.969,1.896,3.974,3.753c2.005,1.857,2.752,1.306,3.892,3.789
					c1.159,2.524,0.298,2.732,0.419,5.508c0.123,2.777,0.021,2.781,0.143,5.559c0.122,2.78,0.047,2.783,0.168,5.563
					c0.123,2.779,2.778,4.225,0.283,5.456c-2.446,1.206-1.956-1.749-3.957-3.602c-2.001-1.854-1.986-1.869-3.988-3.722
					c-2-1.854-2.03-1.822-4.031-3.675c-2.005-1.857-1.998-1.864-4.004-3.721c-2.004-1.857-2.85-1.247-3.99-3.73
					c-1.159-2.524-0.061-2.775-0.183-5.551c-0.122-2.778-0.292-2.771-0.415-5.548c-0.123-2.78,0.758-2.93-0.043-5.596
					C147.169,260.28,145.252,259.005,147.747,257.774z"/>
			</g>
			<g>
				<path fill="#DDCFB4" d="M199.983,262.446c2.43,1.582-0.08,2.896-0.083,5.796c-0.003,2.902-0.012,2.902-0.015,5.806
					c-0.002,2.904,0.189,2.905,0.187,5.81c-0.003,2.905,1.518,3.402-0.076,5.831c-1.543,2.352-2.603,1.123-5.205,2.189
					c-2.604,1.066-2.608,1.056-5.211,2.122s-2.614,1.036-5.217,2.102c-2.604,1.067-2.61,1.051-5.216,2.118s-2.635,0.996-5.24,2.064
					c-2.606,1.067-2.813,3.696-5.201,2.202c-2.354-1.475-0.068-2.793-0.19-5.568c-0.122-2.777-0.065-2.779-0.188-5.557
					c-0.122-2.78-0.308-2.772-0.429-5.552c-0.123-2.78-1.637-3.205-0.117-5.535c1.597-2.447,2.616-1.239,5.302-2.39
					c2.688-1.149,2.742-1.021,5.43-2.17c2.685-1.149,2.697-1.12,5.383-2.27c2.688-1.15,2.665-1.202,5.353-2.353
					c2.689-1.151,2.998-0.621,5.343-2.371C197.157,262.806,197.531,260.849,199.983,262.446z"/>
			</g>
		</g>
		<g>
			<g>
				<path fill="#F6EED7" d="M131.766,289.097c0.475-2.319,2.355-0.76,4.547-1.657c2.189-0.897,2.171-0.943,4.361-1.841
					s2.149-0.997,4.339-1.895c2.192-0.898,2.18-0.929,4.372-1.827c2.193-0.898,2.249-0.762,4.442-1.661
					c2.193-0.898,2.032-2.337,4.369-1.938c2.263,0.386,1.591,1.715,3.275,3.274c1.684,1.56,1.79,1.445,3.474,3.004
					c1.686,1.561,1.722,1.521,3.406,3.081c1.688,1.563,1.693,1.557,3.381,3.119c1.687,1.563,3.646,0.921,3.187,3.174
					c-0.475,2.319-2.031,1.017-4.222,1.915c-2.189,0.896-2.189,0.899-4.379,1.797c-2.19,0.897-2.189,0.899-4.38,1.797
					c-2.192,0.898-2.257,0.738-4.449,1.637c-2.194,0.898-2.128,1.06-4.322,1.958c-2.193,0.899-2.104,2.172-4.44,1.774
					c-2.264-0.386-1.689-1.617-3.373-3.177c-1.685-1.56-1.674-1.571-3.357-3.131c-1.686-1.56-1.646-1.602-3.33-3.162
					c-1.688-1.563-1.448-1.88-3.464-2.986C132.934,291.107,131.306,291.35,131.766,289.097z"/>
			</g>
			<g>
				<path fill="#ECE0C6" d="M131.93,289.214c2.059-1.016,1.7,1.401,3.384,2.961c1.685,1.56,1.584,1.668,3.269,3.228
					s1.729,1.512,3.414,3.072c1.688,1.563,1.627,1.627,3.314,3.189c1.688,1.563,2.506,0.961,3.466,3.051
					c0.976,2.124-0.019,2.356,0.085,4.692c0.103,2.338,0.223,2.332,0.326,4.67c0.103,2.34,0.041,2.343,0.144,4.683
					s2.321,3.619,0.222,4.655c-2.059,1.016-1.688-1.521-3.373-3.08c-1.684-1.56-1.688-1.555-3.371-3.114
					c-1.685-1.561-1.608-1.643-3.293-3.203c-1.688-1.563-1.785-1.457-3.473-3.02s-2.359-1.087-3.318-3.177
					c-0.977-2.125-0.048-2.332-0.151-4.668c-0.103-2.338-0.21-2.333-0.313-4.671c-0.104-2.34,0.411-2.41-0.262-4.654
					C131.26,291.36,129.83,290.25,131.93,289.214z"/>
			</g>
			<g>
				<path fill="#DDCFB4" d="M175.054,293.931c1.982,1.24,0.021,2.362,0.124,4.698c0.103,2.339,0.224,2.333,0.326,4.672
					c0.104,2.339,0.016,2.343,0.118,4.683s1.579,2.754,0.31,4.722c-1.282,1.99-2.236,0.909-4.427,1.807
					c-2.189,0.897-2.215,0.835-4.405,1.733c-2.189,0.896-2.169,0.947-4.359,1.844c-2.192,0.898-2.227,0.816-4.418,1.714
					c-2.193,0.898-2.177,0.939-4.37,1.838c-2.194,0.898-2.343,2.995-4.353,1.737c-1.982-1.239-0.204-2.274-0.307-4.61
					c-0.104-2.338-0.065-2.34-0.169-4.678c-0.103-2.34-0.113-2.339-0.216-4.679c-0.104-2.34-1.44-2.715-0.172-4.683
					c1.283-1.989,2.165-0.965,4.355-1.862c2.189-0.897,2.224-0.815,4.413-1.713c2.19-0.897,2.182-0.92,4.372-1.817
					c2.191-0.897,2.215-0.841,4.407-1.738c2.194-0.899,2.435-0.474,4.358-1.858C172.752,294.223,173.045,292.674,175.054,293.931z"
					/>
			</g>
		</g>
		<g>
			<g>
				<path fill="#F6EED7" d="M112.237,205.003c1.146-2.568,2.707-0.599,5.479-1.079s2.813-0.243,5.584-0.723
					c2.771-0.48,2.752-0.595,5.522-1.075c2.773-0.48,2.756-0.579,5.529-1.059c2.774-0.481,2.792-0.383,5.566-0.863
					c2.775-0.48,2.897-1.948,5.507-0.888c2.525,1.027,1.496,2.211,3.05,4.452c1.555,2.241,1.622,2.194,3.177,4.436
					c1.556,2.243,1.645,2.181,3.2,4.425c1.558,2.244,1.487,2.293,3.044,4.538c1.557,2.244,4.313,2.022,3.2,4.517
					c-1.146,2.569-2.843,0.481-5.614,0.962c-2.771,0.479-2.783,0.408-5.555,0.888c-2.771,0.48-2.777,0.44-5.549,0.92
					c-2.772,0.48-2.76,0.556-5.532,1.036c-2.775,0.48-2.758,0.578-5.533,1.059c-2.774,0.48-2.999,2.027-5.608,0.967
					c-2.526-1.027-1.6-2.283-3.154-4.524s-1.561-2.237-3.114-4.479c-1.556-2.243-1.491-2.287-3.048-4.531s-1.104-2.624-3.148-4.437
					C113.003,207.562,111.124,207.498,112.237,205.003z"/>
			</g>
			<g>
				<path fill="#ECE0C6" d="M112.214,205.03c2.431-1.237,1.434,2.26,2.987,4.501c1.555,2.24,1.672,2.159,3.226,4.4
					c1.556,2.244,1.487,2.292,3.043,4.535c1.558,2.245,1.671,2.166,3.228,4.41c1.558,2.245,2.372,1.887,3.146,4.506
					c0.856,2.897-0.169,3.051-0.169,6.071c0,3.023-0.055,3.023-0.055,6.047c0,3.026,0.164,3.026,0.164,6.052
					s2.637,4.639-0.061,6.008c-2.419,1.229-1.479-2.217-2.951-4.494c-1.474-2.278-1.352-2.357-2.825-4.636
					c-1.475-2.279-1.477-2.277-2.951-4.557c-1.476-2.281-1.637-2.177-3.113-4.458s-2.152-1.989-2.933-4.592
					c-0.855-2.852-0.1-2.988-0.2-5.964c-0.102-2.979,0.054-2.983-0.047-5.962c-0.102-2.979,0.629-3.124-0.198-5.988
					C111.588,207.733,109.557,206.383,112.214,205.03z"/>
			</g>
			<g>
				<path fill="#DDCFB4" d="M160.95,221.72c2.195,2.075,0.046,2.949,0.046,5.971c0,3.023,0.074,3.023,0.074,6.047
					c0,3.025,0.006,3.025,0.006,6.051s1.817,3.677-0.059,6.051c-1.745,2.206-2.786,0.395-5.558,0.875
					c-2.772,0.479-2.759,0.556-5.531,1.035c-2.771,0.48-2.768,0.497-5.538,0.978c-2.772,0.48-2.779,0.441-5.553,0.922
					s-2.778,0.454-5.553,0.935c-2.775,0.481-3.3,2.727-5.57,1.06c-2.029-1.49-0.027-2.558-0.027-5.076
					c0-2.517,0.115-2.517,0.115-5.034c0-2.52,0.002-2.52,0.002-5.038c0-2.521-0.072-2.521-0.072-5.041s-1.735-3.226,0.001-5.053
					c1.928-2.03,2.795-0.301,5.565-0.697c2.772-0.396,2.773-0.393,5.545-0.79c2.771-0.396,2.758-0.486,5.528-0.883
					c2.772-0.396,2.761-0.479,5.534-0.876c2.774-0.397,2.957,0.326,5.575-0.677C158.281,221.407,158.914,219.795,160.95,221.72z"/>
			</g>
		</g>
		<g>
			<path fill="#ECE0C6" d="M169.936,308.39c0.621,0.886,0.489,1.016-0.046,0.902c-0.371-0.079-0.835-0.341-1.327-0.737
				c-0.398-0.321-0.926-0.586-1.194-1.038c-0.277-0.465-0.22-1.004-0.157-1.532c0.105-0.888,0.107-0.99,0.412-0.819
				c0.244,0.137,0.626,0.382,0.949,0.877c0.227,0.349,0.584,0.677,0.831,1.079C169.644,307.515,169.69,308.04,169.936,308.39z"/>
		</g>
		<g>
			<path fill="#DDCFB4" d="M154.631,271.71c0.234,0.169,0.613,0.384,0.828,0.734c0.176,0.287,0.244,0.688,0.377,1.03
				c0.133,0.34,0.323,0.69,0.386,1.024c0.075,0.396-0.013,0.809-0.079,1.104c-0.084,0.386-0.354,0.744-0.767,0.76
				c-0.313,0.012-0.727-0.316-1.059-0.728c-0.234-0.29-0.382-0.709-0.581-1.102c-0.187-0.367-0.461-0.72-0.588-1.102
				c-0.143-0.436-0.109-0.89-0.132-1.243c-0.037-0.562,0.076-0.767,0.487-0.771C153.762,271.415,154.141,271.354,154.631,271.71z"/>
		</g>
		<g>
			<path fill="#ECE0C6" d="M92.129,258.319c0.344,0.319,0.7,0.604,0.941,0.945c0.281,0.396,0.554,0.795,0.64,1.192
				c0.099,0.447-0.073,0.884-0.306,1.288c-0.313,0.545-0.813,0.497-1.211,0.148c-0.385-0.337-0.609-0.94-0.621-1.266
				c-0.008-0.208-0.048-0.614-0.072-1.042c-0.021-0.369-0.076-0.757-0.032-1.048C91.535,258.099,91.702,257.923,92.129,258.319z"/>
		</g>
		<g>
			<path fill="#ECE0C6" d="M93.102,252c0.232,0.381,0.484,0.794,0.609,1.208c0.15,0.493,0.23,0.996,0.232,1.346
				c0.004,0.623-0.307,0.845-0.754,0.109c-0.205-0.337-0.278-0.717-0.376-1.073c-0.114-0.418-0.374-0.797-0.368-1.118
				C92.457,251.848,92.809,251.518,93.102,252z"/>
		</g>
		<g>
			<path fill="#DDCFB4" d="M89.857,255.127c0.206,0.355,0.312,0.717,0.454,1.007c0.195,0.398,0.356,0.725,0.415,1.013
				c0.09,0.442-0.052,0.689-0.343,0.918c-0.371,0.288-0.705-0.008-0.915-0.604c-0.143-0.402-0.042-0.939-0.094-1.363
				c-0.051-0.42-0.141-0.836-0.121-1.127C89.282,254.529,89.426,254.384,89.857,255.127z"/>
		</g>
		<g>
			<path fill="#DDCFB4" d="M178.687,284.023c0.279,0.259,0.333,0.711,0.554,0.984c0.245,0.304,0.496,0.553,0.648,0.862
				c0.172,0.354,0.206,0.679,0.225,1.023c0.021,0.365,0.209,0.782,0.017,1.116c-0.234,0.408-0.623,0.273-0.941,0.15
				c-0.285-0.109-0.637-0.226-0.858-0.518c-0.245-0.322-0.555-0.694-0.564-0.944c-0.01-0.229,0.133-0.682,0.105-1.152
				c-0.023-0.406-0.115-0.838-0.066-1.157C177.879,283.905,178.218,283.587,178.687,284.023z"/>
		</g>
		<g>
			<path fill="#ECE0C6" d="M101.422,250.579c0.369,0.343,0.716,0.661,0.898,1.033c0.224,0.457,0.217,0.879-0.019,1.286
				c-0.218,0.379-0.499,0.329-0.774,0.088c-0.266-0.232-0.566-0.609-0.574-0.834c-0.01-0.204,0.115-0.685,0.117-1.093
				C101.073,250.552,101.026,250.209,101.422,250.579z"/>
		</g>
		<g>
			<path fill="#ECE0C6" d="M133.994,266.984c0.371,0.343,0.634,0.758,0.815,1.13c0.225,0.457,0.302,0.943,0.065,1.352
				c-0.217,0.378-0.654,0.338-0.93,0.097c-0.266-0.232-0.481-0.677-0.489-0.901c-0.008-0.204-0.071-0.683-0.07-1.091
				C133.388,267.062,133.598,266.615,133.994,266.984z"/>
		</g>
		<g>
			<path fill="#ECE0C6" d="M161.215,307.782c0.214,0.522-0.041,0.655-0.355,0.582c-0.274-0.063-0.58-0.286-0.698-0.562
				c-0.147-0.349,0.085-0.597,0.403-0.572C160.785,307.247,161.05,307.381,161.215,307.782z"/>
		</g>
		<g>
			<path fill="#ECE0C6" d="M140.748,273.385c0.441,0.123,0.75,0.35,0.807,0.737c0.049,0.33-0.076,0.723-0.355,1.112
				c-0.309,0.431-0.613-0.14-0.742-0.771C140.332,273.859,140.348,273.274,140.748,273.385z"/>
		</g>
		<g>
			<path fill="#ECE0C6" d="M158.934,307.751c0.231,0.398,0.482,0.699,0.594,0.982c0.197,0.501,0.098,0.784-0.176,0.999
				c-0.257,0.2-0.453,0.004-0.599-0.408c-0.098-0.279-0.157-0.63-0.192-0.925C158.471,307.671,158.442,306.897,158.934,307.751z"/>
		</g>
		<g>
			<path fill="#ECE0C6" d="M146.438,267.499c-0.238,0.608-0.495,1.095-0.712,1.469c-0.383,0.664-0.817,1.004-1.299,0.888
				c-0.448-0.108-0.31-0.663,0.021-1.19c0.223-0.355,0.571-0.702,0.867-1.002C146.047,266.92,146.949,266.193,146.438,267.499z"/>
		</g>
		<g>
			<path fill="#ECE0C6" d="M139.225,260.494c0.262,0.243,0.443,0.521,0.627,0.782c0.215,0.302,0.424,0.558,0.49,0.86
				c0.075,0.34,0.126,0.702-0.051,1.01c-0.238,0.415-0.712,0.334-1.015,0.068c-0.293-0.257-0.454-0.722-0.464-0.97
				c-0.008-0.223-0.012-0.746-0.01-1.194C138.805,260.493,138.788,260.089,139.225,260.494z"/>
		</g>
		<g>
			<g>
				<path fill="#ECE0C6" d="M79.047,233.348c-0.541-0.463-0.375-0.946,0.072-1.109c0.318-0.116,0.807,0.063,1.283,0.125
					c0.43,0.056,0.847,0.124,1.183,0.343c0.539,0.35,0.376,0.619-0.097,0.838c-0.322,0.149-0.742,0.154-1.212,0.101
					C79.865,233.597,79.383,233.635,79.047,233.348z"/>
			</g>
			<g>
				<path fill="#ECE0C6" d="M162.636,260.667c0.262-0.17,0.777-0.077,1.216-0.204c0.369-0.107,0.744-0.278,1.133-0.33
					c0.436-0.058,0.83,0.055,1.162,0.099c0.527,0.069,0.798,0.118,0.63,0.551c-0.152,0.396-0.286,0.779-0.589,0.962
					c-0.316,0.191-0.725,0.313-1.098,0.37c-0.391,0.059-0.793,0.085-1.128,0.107c-0.432,0.029-0.994-0.148-1.332-0.341
					C162.214,261.644,162.007,261.073,162.636,260.667z"/>
			</g>
			<g>
				<path fill="#ECE0C6" d="M132.688,220.812c0.604-0.062,0.881,0.048,0.935,0.296c0.057,0.271-0.161,0.639-0.475,0.937
					c-0.265,0.252-0.603,0.48-0.94,0.52c-0.431,0.049-0.703-0.216-0.799-0.527c-0.092-0.295-0.064-0.695,0.267-0.964
					C131.891,220.898,132.249,220.857,132.688,220.812z"/>
			</g>
			<g>
				<path fill="#ECE0C6" d="M123.83,210.732c-0.521-0.444-0.119-0.666,0.471-0.696c0.415-0.021,0.878,0.098,1.229,0.326
					c0.509,0.33,0.139,0.562-0.459,0.639C124.668,211.052,124.186,211.036,123.83,210.732z"/>
			</g>
			<g>
				<path fill="#ECE0C6" d="M143.012,251.796c-0.52-0.444-0.13-0.761,0.46-0.792c0.414-0.021,0.971,0.063,1.32,0.291
					c0.509,0.33,0.065,0.803-0.532,0.88C143.858,252.225,143.367,252.099,143.012,251.796z"/>
			</g>
			<g>
				<path fill="#ECE0C6" d="M160.241,291.692c0.604-0.062,0.813,0.048,0.865,0.296c0.058,0.27-0.084,0.634-0.397,0.932
					c-0.266,0.252-0.606,0.53-0.944,0.569c-0.431,0.049-0.758-0.26-0.853-0.572c-0.09-0.294,0.072-0.602,0.402-0.87
					C159.531,291.871,159.804,291.737,160.241,291.692z"/>
			</g>
			<g>
				<path fill="#ECE0C6" d="M148.718,292.691c-0.521-0.444-0.143-0.71,0.447-0.741c0.415-0.021,0.911,0.116,1.262,0.345
					c0.51,0.33,0.106,0.584-0.491,0.661C149.533,293.008,149.074,292.995,148.718,292.691z"/>
			</g>
			<g>
				<path fill="#ECE0C6" d="M134.121,206.608c0.461-0.123,0.962-0.281,1.373-0.236c0.735,0.081,1.152,0.463,0.399,0.661
					c-0.409,0.109-0.834-0.004-1.189-0.058C134.038,206.876,133.639,206.734,134.121,206.608z"/>
			</g>
			<g>
				<path fill="#ECE0C6" d="M145.565,216.11c0.162-0.226,0.689-0.383,1.209-0.313c0.646,0.088,1.242,0.481,0.846,0.728
					c-0.299,0.187-0.814,0.157-1.242,0.115C145.788,216.581,145.351,216.405,145.565,216.11z"/>
			</g>
			<g>
				<path fill="#ECE0C6" d="M133.961,253.151c0.164-0.226,0.774-0.15,1.293-0.081c0.647,0.088,1.254,0.31,0.858,0.556
					c-0.299,0.187-0.805,0.166-1.232,0.123C134.292,253.69,133.748,253.446,133.961,253.151z"/>
			</g>
			<g>
				<path fill="#ECE0C6" d="M93.35,245.846c0.563-0.057,0.595,0.213,0.437,0.493c-0.138,0.245-0.412,0.512-0.71,0.547
					c-0.376,0.043-0.594-0.289-0.481-0.587C92.674,246.092,92.918,245.89,93.35,245.846z"/>
			</g>
			<g>
				<path fill="#ECE0C6" d="M76.206,242.157c-0.376-0.242-0.142-0.713,0.365-0.954c0.327-0.155,0.771-0.109,1.206-0.037
					c0.476,0.08,0.602,0.43,0.44,0.801c-0.133,0.303-0.444,0.546-0.927,0.539C76.99,242.502,76.622,242.427,76.206,242.157z"/>
			</g>
			<g>
				<path fill="#ECE0C6" d="M94.342,233.564c0.447-0.108,0.822-0.213,1.125-0.239c0.537-0.046,0.913,0.087,1.04,0.411
					c0.119,0.303-0.261,0.44-0.698,0.463c-0.295,0.016-0.658,0.088-0.951,0.039C94.135,234.115,93.381,233.796,94.342,233.564z"/>
			</g>
			<g>
				<path fill="#ECE0C6" d="M75.338,225.7c0.232-0.15,0.631-0.267,1.039-0.362c0.367-0.087,0.761-0.152,1.089-0.15
					c0.521,0.006,0.938,0.197,0.795,0.564c-0.161,0.417-0.55,0.564-0.913,0.678c-0.383,0.119-0.796,0.21-1.138,0.233
					c-0.301,0.02-0.606-0.199-0.842-0.334C75.083,226.165,74.905,225.981,75.338,225.7z"/>
			</g>
			<g>
				<path fill="#ECE0C6" d="M154.841,259.406c-0.54-0.463-0.354-0.928,0.091-1.092c0.318-0.117,0.82-0.141,1.297-0.079
					c0.43,0.057,0.926,0.145,1.262,0.363c0.539,0.35,0.263,0.75-0.208,0.969c-0.322,0.148-0.735,0.202-1.204,0.148
					C155.667,259.669,155.177,259.692,154.841,259.406z"/>
			</g>
			<g>
				<path fill="#ECE0C6" d="M180.119,261.579c0.563-0.058,0.639,0.231,0.48,0.512c-0.139,0.245-0.457,0.484-0.756,0.52
					c-0.375,0.043-0.604-0.29-0.492-0.588C179.43,261.814,179.689,261.622,180.119,261.579z"/>
			</g>
			<g>
				<path fill="#ECE0C6" d="M167.726,268.139c-0.377-0.242-0.159-0.6,0.348-0.841c0.327-0.155,0.749-0.17,1.183-0.098
					c0.477,0.08,0.642,0.459,0.479,0.83c-0.132,0.304-0.484,0.479-0.965,0.474C168.469,268.501,168.142,268.409,167.726,268.139z"/>
			</g>
			<g>
				<path fill="#ECE0C6" d="M185.826,259.642c0.447-0.108,0.82-0.171,1.124-0.197c0.536-0.047,0.903,0.013,1.031,0.337
					c0.119,0.302-0.263,0.36-0.698,0.384c-0.297,0.016-0.627,0.004-0.92-0.045C185.64,259.999,184.865,259.875,185.826,259.642z"/>
			</g>
			<g>
				<path fill="#ECE0C6" d="M172.124,252.588c0.232-0.15,0.538-0.425,0.944-0.521c0.367-0.087,0.767-0.081,1.094-0.078
					c0.521,0.005,0.924,0.141,0.78,0.509c-0.161,0.418-0.546,0.539-0.909,0.651c-0.383,0.118-0.787,0.228-1.128,0.251
					c-0.3,0.02-0.628-0.146-0.862-0.281C171.758,252.955,171.691,252.868,172.124,252.588z"/>
			</g>
			<g>
				<path fill="#ECE0C6" d="M130.614,214.904c-0.53-0.455-0.316-0.76,0.12-0.921c0.313-0.114,0.755-0.258,1.224-0.197
					c0.422,0.055,0.806,0.287,1.136,0.502c0.529,0.344,0.39,0.638-0.073,0.852c-0.316,0.146-0.766,0.276-1.225,0.224
					C131.391,215.316,130.943,215.185,130.614,214.904z"/>
			</g>
			<g>
				<path fill="#ECE0C6" d="M150.687,299.85c-0.374-0.242-0.123-0.741,0.384-0.981c0.327-0.156,0.789-0.218,1.223-0.146
					c0.477,0.08,0.626,0.556,0.464,0.926c-0.133,0.304-0.485,0.532-0.967,0.525C151.489,300.171,151.103,300.12,150.687,299.85z"/>
			</g>
			<g>
				<path fill="#ECE0C6" d="M144.102,288.836c0.232-0.15,0.658-0.27,1.066-0.365c0.367-0.086,0.777-0.048,1.105-0.045
					c0.521,0.005,0.93,0.158,0.787,0.526c-0.162,0.417-0.524,0.625-0.888,0.737c-0.383,0.118-0.81,0.217-1.151,0.239
					c-0.299,0.021-0.703-0.094-0.938-0.228C143.795,289.538,143.668,289.118,144.102,288.836z"/>
			</g>
		</g>
		<g>
			<g>
				<path fill="#ECE0C6" d="M178.469,276.005c0.206,0.339,0.202,0.793,0.338,1.166c0.145,0.397,0.192,0.788,0.259,1.15
					c0.09,0.497,0.376,0.923,0.319,1.19c-0.088,0.411-0.396,0.377-0.82-0.319c-0.184-0.299-0.413-0.571-0.522-0.891
					c-0.119-0.345-0.226-0.689-0.271-1.008c-0.057-0.402,0.057-0.761,0.098-1.03C177.944,275.762,178.178,275.526,178.469,276.005z"
					/>
			</g>
			<g>
				<path fill="#ECE0C6" d="M187.095,283.941c0.276-0.623,0.597-0.316,0.793,0.241c0.138,0.391,0.295,0.917,0.176,1.317
					c-0.172,0.58-0.667,0.252-0.909-0.299C186.991,284.83,186.905,284.368,187.095,283.941z"/>
			</g>
		</g>
	</g>
</g>
</svg>
