<?xml version="1.0" encoding="utf-8"?>
<!-- Generator: Adobe Illustrator 16.0.3, SVG Export Plug-In . SVG Version: 6.00 Build 0)  -->
<!DOCTYPE svg PUBLIC "-//W3C//DTD SVG 1.1//EN" "http://www.w3.org/Graphics/SVG/1.1/DTD/svg11.dtd">
<svg version="1.1" id="Ebene_1" xmlns="http://www.w3.org/2000/svg" xmlns:xlink="http://www.w3.org/1999/xlink" x="0px" y="0px"
	 width="450px" height="450px" viewBox="0 0 450 450" enable-background="new 0 0 450 450" xml:space="preserve">
<g id="tofu">
	<g>
		<g>
			<path fill="#E48C84" d="M173.93,180.062c-2.367,3.473-7.286,5.871-10.039,8.76c-1.268,1.328-1.255,1.876-1.255,1.876
				c1.775,12.571,2.984,25.643,1.656,37.793c-0.839,6.21,0.267,12.05-0.22,17.991c-0.239,4.08-1.953,12.067,1.086,15.326
				c5.538,5.81,19.605,5.275,27.327,6.64c14.821,2.64,30.986,3.411,45.89,5.43c9.045,0.904,17.584,0.931,26.365,1.485
				c6.564,0.572,29.307,3.275,33.805,0.408c6.532-3.86,5.258-6.357,11.977-9.248l0.894,0.44c5.185-5.62-2.198-21.167-4.195-27.444
				c-1.544-4.951-3.791-9.367-4.627-14.854c-0.67-6.733,1.06-12.503,1.629-19.067c0.571-6.563-1.224-9.65-7.7-10.844
				c-8.692-1.176-16.935-1.027-25.461-3.447c-13.492-3.088-28.918-3.596-43.285-4.909c-10.021-0.725-19.958-2.071-29.81-4.033
				c-7.72-1.363-17.724,0.127-23.764-1.952"/>
		</g>
		<g>
			<path fill="#FFDFA4" d="M177.428,177.398c-2.368,3.474-7.288,5.873-10.038,8.758c-1.268,1.331-1.258,1.878-1.258,1.878
				c1.777,12.573,2.986,25.643,1.658,37.798c-0.842,6.208,0.265,12.049-0.223,17.991c-0.237,4.077-1.95,12.065,1.088,15.325
				c5.537,5.807,19.606,5.276,27.328,6.642c14.819,2.637,30.983,3.409,45.89,5.426c9.044,0.907,17.586,0.931,26.365,1.486
				c6.561,0.569,29.307,3.276,33.807,0.407c6.531-3.86,5.261-6.358,11.973-9.248l0.89,0.439c5.19-5.619-2.193-21.164-4.188-27.441
				c-1.544-4.953-3.793-9.365-4.631-14.856c-0.67-6.731,1.063-12.503,1.634-19.066c0.569-6.563-1.228-9.649-7.703-10.845
				c-8.692-1.176-16.935-1.027-25.46-3.445c-13.494-3.091-28.918-3.598-43.287-4.909c-10.02-0.725-19.958-2.07-29.807-4.036
				c-7.721-1.361-17.726,0.131-23.768-1.951"/>
		</g>
		<g opacity="0.4">
			<path fill="#BF7069" d="M170.804,182.125c20.458-1.657,42.75,4.207,62.452,8.135c7.1,1.28,14.637,1.667,22.002,3.295
				c7.016,1.901,13.596,4.686,21.047,5.696c8.074,1.094,16.029-1.625,23.853,1.329c3.539,11.231-1.519,22.876,0.967,34.914
				c2.296,11.06,2.646,22.492,5.297,33.285c-9.416-2.855-23.866-3.547-33.703-3.297c-12.321-0.086-24.204-1.063-36.521-1.15
				c-11.079,0.083-22.71-2.756-33.536-4.537c-9.667-0.992-19.802-5.527-29.454-4.303c-3.721-23.901-0.362-48.744-2.486-72.747
				c0,0-0.44,0.891-0.168,1.246"/>
		</g>
		<g>
			<g>
				<path fill="#B45C56" d="M284.45,191.263c-5.466,1.67-11.661-0.781-17.046-1.858c-7.016-1.404-14.236-1.718-21.299-3.029
					c-14.439-2.68-29.686-4.619-44.392-4.682c-6.856-0.03-13.501-0.048-20.333-0.512c-4.447-0.302-8.897,0.693-12.934,2.512
					c-9.49,4.274-11.6,13.735-9.384,23.109c1.518,6.424,4.585,12.396,6.292,18.775c2.126,7.951,1.439,16.521,1.781,24.667
					c0.16,3.813-0.17,11.221,3.571,13.712c3.724,2.479,9.469,1.841,13.719,2.027c16.279,0.718,32.354,1.125,48.588,2.865
					c14.178,1.519,28.293,3.455,42.451,5.063c8.686,0.984,17.789,0.861,25.43-3.842c3.307-2.035,6.278-4.334,8.408-7.604
					c2.735-4.198,1.583-10.703,1.143-15.385c-0.576-6.099-1.993-12.181-1.823-18.331c0.122-4.391,0.606-8.767,0.74-13.159
					c0.229-7.555-0.378-15.909-6.319-21.264c-1.456-1.313-5.533,0.842-3.582,2.601c8.032,7.238,5.06,21.689,4.532,31.188
					c-0.341,6.147,0.865,12.315,1.626,18.395c0.51,4.074,0.688,8.125,0.373,12.22c-0.313,4.061-3.91,6.521-6.973,8.584
					c-10.646,7.172-25.197,2.756-36.951,1.293c-16.278-2.026-32.68-3.818-49.043-4.991c-7.279-0.521-14.544-0.751-21.839-0.782
					c-3.813-0.016-7.593-0.277-11.397-0.445c-3.473-0.154-5.856-0.219-6.946-4.063c-2.08-7.333-1.083-15.688-1.453-23.234
					c-0.348-7.112-2.049-13.533-4.54-20.166c-2.295-6.111-4.896-12.529-3.865-19.173c0.982-6.328,6.896-10.101,12.766-11.092
					c5.386-0.91,11.156,0.607,16.621,0.504c8.319-0.157,16.353,0.073,24.628,1.005c6.743,0.76,13.49,1.036,20.197,2.128
					c6.714,1.093,13.343,2.566,20.109,3.333c5.219,0.591,10.153,1.526,15.312,2.529c4.212,0.819,8.47,1.415,12.646,0.138
					C288.061,193.442,287.277,190.398,284.45,191.263L284.45,191.263z"/>
			</g>
		</g>
		<g>
			<path fill="#AD8080" d="M217.188,244.164c-1.104,1.042-1.669,2.1-0.632,3.207c2.153-0.471,3.263-1.78,0.61-2.398"/>
			<path fill="#AD8080" d="M217.819,240.957c-1.049-0.568-2.119-0.602-2.093-1.405c0.531,0.015,2.669,0.081,1.067,0.033"/>
			<path fill="#AD8080" d="M227.223,230.764c0.514,0.555,1.037,1.107,1.561,1.394c3.773-0.961,1.686-2.636-1.544-1.931"/>
			<path fill="#AD8080" d="M225.323,222.91c0.016-0.536,0.034-1.073,0.042-1.342c-0.026,0.807,0.5,1.092,1.023,1.376
				c2.163-0.74,0.572-1.059-1.016-1.643"/>
			<path fill="#AD8080" d="M224.501,214.823c-0.007,0.268-0.55,0.521-0.56,0.791c3.757-0.424,0.6-2.131-2.614-1.961"/>
			<path fill="#AD8080" d="M208.989,214.888c-0.548,0.519-1.1,1.04-1.123,1.847c3.748-0.154,2.719-1.53,0.04-1.345"/>
			<path fill="#AD8080" d="M193.85,220.34c-1.626,0.753-2.734,2.063-2.224,2.888c2.701-0.996,2.194-1.815,0.591-1.863"/>
			<path fill="#AD8080" d="M183.629,222.447c0.517,0.551-0.562,0.785,0.492,1.354c0.565-1.056-1.036-1.103-1.036-1.103"/>
			<path fill="#AD8080" d="M209.254,206.292c-0.544,0.254-1.597-0.313-1.631,0.759c0.546-0.252,1.631-0.759,2.167-0.741
				c-0.536-0.018-2.656-0.617-1.602-0.048"/>
			<path fill="#AD8080" d="M223.729,205.126c-0.018,0.538-1.102,1.039,1.026,1.374l0.018-0.537
				c-1.062-0.299-0.526-0.285-0.533-0.018"/>
			<path fill="#AD8080" d="M235.109,200.096c0,0-0.56,0.791,1.576,0.854c-1.566-1.122-2.66-0.347-2.66-0.347"/>
			<path fill="#AD8080" d="M265.825,209.903c0.507,0.822,0.481,1.631,2.071,2.215c0.564-1.059,0.039-1.342-0.467-2.166
				c-0.546,0.254-0.018,0.538-0.562,0.79"/>
			<path fill="#AD8080" d="M257.958,204.826c1.013,1.915,4.233,1.474,3.214-0.169c-0.542,0.251-1.084,0.505-1.625,0.756"/>
			<path fill="#AD8080" d="M277.611,226.658c-0.526-0.283,3.725,0.65,4.256,0.67c0.576-1.327-1.518-2.734-3.146-1.979"/>
			<path fill="#AD8080" d="M291.971,229.249c0.51,0.821,0.494,1.358,2.08,1.944C295.159,229.886,294.135,228.509,291.971,229.249"/>
			<path fill="#AD8080" d="M240.527,250.254c1.563,1.393,4.744,2.293,5.851,0.984c-2.106-0.87-3.72-0.648-5.354,0.373"/>
			<path fill="#AD8080" d="M235.436,259.506c-0.567,1.057,2.078,1.943,4.769,1.489c-1.577-0.854-3.188-0.636-4.818,0.122"/>
			<path fill="#AD8080" d="M222.574,260.455c1.056,0.301,0.518,0.557,1.584,0.588C223.639,260.488,223.099,260.741,222.574,260.455"
				/>
			<path fill="#AD8080" d="M205.042,256.695c0.51,0.82,1.017,1.643,3.155,1.707c0.038-1.342-1.544-1.928-4.235-1.471
				c0.528,0.284,1.063,0.301,1.59,0.584"/>
			<path fill="#AD8080" d="M267.402,245.7c-0.024,0.806-0.049,1.608-0.064,2.147c1.055,0.567,0.535,0.018,1.604,0.047"/>
			<path fill="#AD8080" d="M279.863,240.436c1.044,0.84,1.546,1.929,0.979,2.988c-4.268-0.4-5.288-2.044-1.512-3.002"/>
			<path fill="#AD8080" d="M276.787,236.041c-1.602-0.047-2.676,0.186-4.28,0.139c-0.534-0.018-0.54,0.25-0.54,0.25
				c2.117,0.603,2.663,0.354,4.799,0.418c0.031-1.072-1.033-1.105-3.166-1.442"/>
			<path fill="#AD8080" d="M252.232,234.754c-0.024,0.805-0.033,1.074,1.02,1.645c2.695-0.725,3.279-2.319,0.073-2.416"/>
			<path fill="#AD8080" d="M187.952,238.434c0.518,0.553,0.511,0.821,1.036,1.107c0.575-1.326-0.477-1.896-3.156-1.711"/>
			<path fill="#AD8080" d="M175.411,246.383c0.51,0.824,1.553,1.659,3.682,1.994c1.109-1.309,0.049-1.611-2.632-1.424"/>
			<path fill="#AD8080" d="M189.227,249.227c0.517,0.553-0.025,0.804,1.042,0.836c1.095-0.771,0.035-1.076,0.052-1.608"/>
			<path fill="#AD8080" d="M200.75,239.631c0.524,0.284,0.507,0.824,2.111,0.871c1.118-1.577-0.995-2.447-3.698-1.457"/>
			<path fill="#AD8080" d="M200.566,228.068c-1.091,0.771-1.126,1.848-1.151,2.651c2.157-0.472,2.188-1.546,0.618-2.666
				c-1.059-0.305-0.543,0.248-1.078,0.233"/>
			<path fill="#AD8080" d="M222.879,197.844c2.129,0.333,3.193,0.633,3.766-0.693c-2.117-0.604-1.61,0.218-2.688,0.458"/>
			<path fill="#AD8080" d="M239.531,195.394c1.035,1.108,4.24,1.206,6.404,0.463c-2.129-0.333-4.27-0.397-6.422,0.074"/>
		</g>
	</g>
	<g>
		<g>
			<path fill="#E48C84" d="M156.281,215.522c-2.903,3.041-8.15,4.598-11.339,6.997c-1.468,1.103-1.545,1.646-1.545,1.646
				c-0.309,12.692-1.26,25.785-4.563,37.553c-1.845,5.988-1.713,11.931-3.166,17.712c-0.903,3.986-3.903,11.586-1.439,15.299
				c4.51,6.639,18.473,8.416,25.868,11.026c14.186,5.033,30.008,8.447,44.379,12.879c8.775,2.378,17.196,3.8,25.766,5.787
				c6.381,1.64,28.371,8.037,33.279,5.942c7.076-2.735,6.229-5.407,13.328-7.157l0.809,0.58c6.035-4.693,1.302-21.24,0.361-27.761
				c-0.709-5.139-2.205-9.86-2.129-15.414c0.44-6.75,3.092-12.158,4.732-18.541c1.641-6.381,0.374-9.719-5.821-11.961
				c-8.381-2.584-16.534-3.789-24.55-7.569c-12.807-5.261-27.939-8.289-41.897-11.94c-9.766-2.354-19.349-5.313-28.742-8.864
				c-7.392-2.61-17.504-2.779-23.124-5.822"/>
		</g>
		<g>
			<path fill="#FFDFA4" d="M160.168,213.468c-2.906,3.039-8.15,4.599-11.34,6.995c-1.465,1.105-1.546,1.646-1.546,1.646
				c-0.306,12.693-1.257,25.786-4.56,37.558c-1.849,5.985-1.714,11.931-3.169,17.713c-0.901,3.981-3.901,11.582-1.438,15.297
				c4.51,6.636,18.477,8.421,25.868,11.028c14.188,5.032,30.005,8.443,44.381,12.876c8.773,2.377,17.197,3.799,25.764,5.787
				c6.38,1.644,28.373,8.036,33.281,5.944c7.075-2.739,6.231-5.407,13.329-7.16l0.805,0.578c6.039-4.69,1.307-21.233,0.365-27.756
				c-0.71-5.143-2.205-9.86-2.131-15.414c0.44-6.75,3.094-12.16,4.733-18.541s0.373-9.721-5.819-11.961
				c-8.385-2.586-16.535-3.789-24.553-7.572c-12.804-5.26-27.938-8.29-41.896-11.938c-9.768-2.359-19.348-5.316-28.743-8.869
				c-7.392-2.607-17.507-2.775-23.125-5.819"/>
		</g>
		<g opacity="0.3">
			<path fill="#BF7069" d="M152.858,217.048c20.454,1.715,41.481,11.155,60.273,18.261c6.793,2.426,14.167,4.045,21.166,6.858
				c6.607,3.022,12.643,6.851,19.829,9.065c7.784,2.404,16.079,1.025,23.312,5.222c1.649,11.659-5.246,22.319-4.77,34.6
				c0.451,11.287-1.078,22.621-0.23,33.701c-8.819-4.356-22.965-7.407-32.707-8.774c-12.141-2.105-23.703-5.017-35.839-7.119
				c-10.941-1.736-21.952-6.443-32.339-9.976c-9.371-2.563-18.628-8.696-28.35-9.071c0.247-24.189,7.634-48.143,9.472-72.169
				c0,0-0.579,0.807-0.369,1.199"/>
		</g>
		<g>
			<g>
				<path fill="#944C47" d="M263.908,244.867c-5.922,0.785-12.031-2.938-17.406-4.973c-6.161-2.334-12.725-3.646-18.951-5.894
					c-13.895-5.019-28.634-9.591-43.222-12.078c-6.569-1.12-13.019-1.832-19.443-3.678c-4.255-1.223-8.795-1.035-13.082-0.147
					c-9.054,1.874-14.921,9.53-14.65,18.692c0.207,6.987,2.13,13.715,3.075,20.612c1.131,8.255-0.796,16.726-1.913,24.877
					c-0.628,4.585-2.022,11.343,0.872,15.419c2.247,3.163,9.733,3.47,13.037,4.17c15.617,3.307,31.097,6.252,46.511,10.524
					c13.76,3.814,27.407,7.947,41.102,11.965c7.859,2.306,17.385,4.31,25.301,1.093c3.618-1.47,7.125-3.074,10.082-5.668
					c3.817-3.349,4.111-9.324,4.551-13.984c0.562-5.971,0.354-11.981,0.963-17.953c0.433-4.225,1.76-8.389,2.686-12.523
					c1.771-7.907,3.484-17.634-1.952-24.507c-1.065-1.347-5.512,0.307-4.276,1.867c7.104,8.979,1.44,23.069-0.662,32.945
					c-1.434,6.727-0.912,13.859-1.396,20.691c-0.258,3.646-0.649,7.701-2.391,10.97c-1.769,3.321-6.793,5.17-10.164,6.252
					c-6.324,2.028-13.804-0.129-19.951-1.851c-6.399-1.789-12.675-3.975-19.083-5.75c-15.317-4.244-30.537-8.828-46.039-12.371
					c-7.459-1.707-14.986-2.901-22.492-4.367c-2.767-0.54-5.511-1.227-8.269-1.815c-4.52-0.968-4.509-4.436-4.441-8.413
					c0.125-7.328,1.909-14.587,2.607-21.869c0.7-7.291-0.504-14.141-1.9-21.271c-1.294-6.61-2.39-13.824,1.331-19.841
					c3.432-5.55,10.803-6.438,16.641-5.344c6.298,1.181,12.392,2.721,18.782,3.649c7.822,1.136,15.314,3.607,22.937,5.607
					c12.025,3.154,23.5,7.941,35.514,11.06c8.13,2.109,16.451,7.823,25.119,6.673C265.648,247.33,267.096,244.443,263.908,244.867
					L263.908,244.867z"/>
			</g>
		</g>
		<g>
			<path fill="#AD8080" d="M188.445,285.848c-1.26,0.848-1.991,1.799-1.148,3.063c2.199-0.113,3.51-1.228,0.995-2.271"/>
			<path fill="#AD8080" d="M189.593,282.789c-0.94-0.732-1.991-0.939-1.834-1.729c0.525,0.102,2.62,0.518,1.048,0.207"/>
			<path fill="#AD8080" d="M200.54,274.275c0.418,0.627,0.843,1.26,1.313,1.629c3.879-0.329,2.095-2.324-1.207-2.156"/>
			<path fill="#AD8080" d="M199.955,266.217c0.103-0.525,0.21-1.055,0.26-1.318c-0.157,0.793,0.317,1.16,0.787,1.525
				c2.256-0.376,0.739-0.951-0.734-1.789"/>
			<path fill="#AD8080" d="M200.469,258.104c-0.049,0.264-0.628,0.422-0.681,0.688c3.774,0.196,0.939-2.004-2.259-2.363"/>
			<path fill="#AD8080" d="M185.158,255.626c-0.626,0.423-1.256,0.845-1.41,1.638c3.719,0.461,2.933-1.063,0.258-1.317"/>
			<path fill="#AD8080" d="M169.329,258.521c-1.727,0.479-3.036,1.586-2.669,2.483c2.83-0.539,2.464-1.431,0.891-1.741"/>
			<path fill="#AD8080" d="M158.901,258.923c0.421,0.63-0.683,0.687,0.264,1.421c0.729-0.951-0.842-1.26-0.842-1.26"/>
			<path fill="#AD8080" d="M186.827,247.189c-0.577,0.16-1.523-0.571-1.732,0.48c0.58-0.161,1.732-0.48,2.258-0.376
				c-0.526-0.104-2.516-1.044-1.573-0.312"/>
			<path fill="#AD8080" d="M201.296,248.408c-0.104,0.531-1.258,0.848,0.789,1.527l0.104-0.527
				c-0.998-0.469-0.472-0.367-0.523-0.107"/>
			<path fill="#AD8080" d="M213.349,245.314c0,0-0.68,0.688,1.416,1.102c-1.364-1.365-2.568-0.779-2.568-0.779"/>
			<path fill="#AD8080" d="M242.041,260.023c0.365,0.894,0.209,1.688,1.68,2.525c0.733-0.951,0.262-1.318-0.105-2.213
				c-0.577,0.159-0.104,0.525-0.682,0.688"/>
			<path fill="#AD8080" d="M235.114,253.727c0.681,2.054,3.931,2.147,3.194,0.356c-0.574,0.162-1.15,0.321-1.725,0.483"/>
			<path fill="#AD8080" d="M250.923,278.484c-0.474-0.365,3.567,1.252,4.089,1.356c0.784-1.215-1.05-2.944-2.781-2.467"/>
			<path fill="#AD8080" d="M264.662,283.395c0.369,0.894,0.264,1.42,1.732,2.258C267.703,284.543,266.918,283.018,264.662,283.395"
				/>
			<path fill="#AD8080" d="M210.474,295.684c1.312,1.625,4.301,3.039,5.609,1.928c-1.938-1.201-3.564-1.25-5.345-0.508"/>
			<path fill="#AD8080" d="M203.932,303.975c-0.734,0.948,1.732,2.258,4.459,2.25c-1.417-1.102-3.041-1.151-4.773-0.67"/>
			<path fill="#AD8080" d="M191.089,302.803c0.994,0.469,0.42,0.631,1.466,0.84C192.135,303.008,191.56,303.17,191.089,302.803"/>
			<path fill="#AD8080" d="M174.41,296.22c0.368,0.895,0.735,1.788,2.833,2.203c0.254-1.319-1.208-2.155-3.937-2.147
				c0.475,0.369,0.999,0.474,1.471,0.839"/>
			<path fill="#AD8080" d="M237.729,295.598c-0.153,0.789-0.31,1.576-0.414,2.106c0.943,0.733,0.524,0.103,1.576,0.31"/>
			<path fill="#AD8080" d="M250.884,292.443c0.896,1.002,1.21,2.156,0.479,3.109c-4.143-1.095-4.883-2.886-1-3.211"/>
			<path fill="#AD8080" d="M248.572,287.605c-1.572-0.31-2.672-0.254-4.246-0.564c-0.524-0.105-0.575,0.16-0.575,0.16
				c1.992,0.938,2.571,0.783,4.667,1.193c0.207-1.053-0.839-1.259-2.885-1.939"/>
			<path fill="#AD8080" d="M224.561,282.311c-0.161,0.791-0.209,1.054,0.735,1.791c2.777-0.274,3.615-1.752,0.47-2.375"/>
			<path fill="#AD8080" d="M160.546,275.404c0.418,0.63,0.368,0.895,0.839,1.262c0.784-1.213-0.157-1.947-2.833-2.204"/>
			<path fill="#AD8080" d="M146.87,281.189c0.367,0.896,1.26,1.891,3.306,2.569c1.308-1.108,0.312-1.582-2.364-1.836"/>
			<path fill="#AD8080" d="M160.034,286.258c0.42,0.631-0.154,0.789,0.893,0.998c1.205-0.584,0.208-1.056,0.313-1.582"/>
			<path fill="#AD8080" d="M172.975,278.684c0.47,0.365,0.365,0.896,1.939,1.205c1.362-1.373-0.582-2.578-3.41-2.045"/>
			<path fill="#AD8080" d="M174.689,267.245c-1.205,0.583-1.417,1.639-1.571,2.43c2.203-0.112,2.412-1.167,1.045-2.53
				c-0.995-0.471-0.576,0.157-1.101,0.055"/>
			<path fill="#AD8080" d="M201.653,241.088c2.047,0.678,3.044,1.148,3.827-0.064c-1.991-0.942-1.625-0.049-2.724,0.009"/>
			<path fill="#AD8080" d="M218.482,241.4c0.838,1.264,3.985,1.885,6.241,1.507c-2.044-0.677-4.146-1.093-6.347-0.979"/>
		</g>
	</g>
	<g>
		<g>
			<path fill="#E48C84" d="M300.873,185.831c-0.57-4.164,1.479-9.24,1.587-13.23c0.053-1.836-0.324-2.232-0.324-2.232
				c-9.737-8.149-19.389-17.048-26.536-26.961c-3.535-5.175-8.268-8.773-11.885-13.511c-2.556-3.19-6.633-10.269-11.07-10.653
				c-8.002-0.607-18.095,9.206-24.74,13.366c-12.776,7.965-25.296,18.214-37.72,26.697c-7.324,5.383-13.683,11.086-20.573,16.554
				c-5.259,3.967-23.962,17.188-25.382,22.33c-2.264,7.242,0.354,8.245-2.7,14.887l-0.957,0.272
				c-0.087,7.648,15.806,14.248,21.493,17.572c4.458,2.646,9.085,4.416,13.384,7.934c5.005,4.552,7.583,9.994,11.555,15.254
				c3.97,5.257,7.371,6.35,12.98,2.898c7.244-4.949,13.268-10.58,21.218-14.49c12.088-6.742,23.886-16.693,35.435-25.338
				c7.928-6.173,16.206-11.828,24.84-16.964c6.646-4.159,13.076-11.964,18.959-14.464"/>
		</g>
		<g>
			<path fill="#FFDFA4" d="M300.058,190.152c-0.567-4.166,1.479-9.242,1.59-13.227c0.053-1.838-0.324-2.236-0.324-2.236
				c-9.737-8.148-19.386-17.047-26.539-26.963c-3.532-5.173-8.265-8.771-11.884-13.509c-2.555-3.189-6.635-10.271-11.071-10.653
				c-8-0.605-18.093,9.207-24.737,13.364c-12.776,7.966-25.297,18.216-37.72,26.7c-7.324,5.382-13.683,11.087-20.574,16.554
				c-5.257,3.968-23.962,17.187-25.381,22.332c-2.268,7.239,0.351,8.246-2.7,14.886l-0.957,0.268
				c-0.091,7.651,15.802,14.251,21.49,17.576c4.462,2.646,9.086,4.418,13.385,7.936c5.006,4.549,7.584,9.996,11.553,15.254
				c3.973,5.256,7.373,6.347,12.982,2.896c7.246-4.948,13.268-10.577,21.219-14.489c12.089-6.741,23.884-16.69,35.436-25.341
				c7.925-6.172,16.207-11.826,24.84-16.963c6.647-4.158,13.075-11.968,18.958-14.467"/>
		</g>
		<g opacity="0.3">
			<path fill="#BF7069" d="M301.529,179.148c-14.086,14.932-34.565,25.503-51.83,35.778c-6.127,3.804-11.988,8.566-18.549,12.283
				c-6.481,3.29-13.234,5.627-19.444,9.866c-6.73,4.597-10.816,11.938-18.607,14.985c-10.145-5.974-14.19-18.006-24.095-25.285
				c-9.11-6.672-17.026-14.931-26.22-21.171c8.903-4.185,20.099-13.349,27.237-20.123c9.208-8.183,18.69-15.417,27.895-23.603
				c8.171-7.477,18.712-13.157,27.945-19.08c7.844-5.74,18.41-9.159,24.758-16.53c18.768,15.259,32.906,35.958,50.555,52.359
				c0,0-0.271-0.953-0.707-1.033"/>
		</g>
		<g>
			<path fill="#AD8080" d="M225.818,167.187c0.123-1.51-0.164-2.68-1.677-2.804c-1.282,1.793-1.231,3.51,1.156,2.188"/>
			<path fill="#AD8080" d="M227.498,169.992c1.162-0.283,1.977-0.973,2.498-0.357c-0.406,0.346-2.039,1.727-0.816,0.69"/>
			<path fill="#AD8080" d="M227.34,183.858c-0.756-0.065-1.511-0.127-2.09,0.013c-2.158,3.24,0.514,3.086,2.438,0.399"/>
			<path fill="#AD8080" d="M234.01,188.419c0.348,0.41,0.693,0.82,0.869,1.029c-0.521-0.619-1.104-0.479-1.686-0.339
				c-1.111,2,0.287,1.17,1.858,0.54"/>
			<path fill="#AD8080" d="M240.035,193.877c-0.178-0.205,0.061-0.757-0.112-0.963c-2.508,2.833,0.981,1.986,3.255-0.294"/>
			<path fill="#AD8080" d="M251.512,183.442c0.061-0.754,0.121-1.509-0.4-2.123c-2.68,2.622-0.993,2.957,0.869,1.023"/>
			<path fill="#AD8080" d="M259.105,169.255c0.701-1.648,0.647-3.361-0.28-3.635c-1.341,2.55-0.415,2.821,0.806,1.78"/>
			<path fill="#AD8080" d="M265.288,160.848c-0.757-0.065-0.114-0.961-1.276-0.681c0.287,1.165,1.51,0.128,1.51,0.128"/>
			<path fill="#AD8080" d="M257.07,190.001c0.236-0.552,1.396-0.834,0.705-1.651c-0.237,0.55-0.705,1.651-1.115,1.996
				c0.41-0.344,2.387-1.315,1.227-1.035"/>
			<path fill="#AD8080" d="M247.104,200.563c-0.348-0.412,0.123-1.513-1.684-0.333l0.346,0.409c0.99-0.487,0.584-0.142,0.411-0.343"
				/>
			<path fill="#AD8080" d="M242.02,211.916c0,0-0.117-0.96-1.744,0.421c1.918-0.214,2.209-1.522,2.209-1.522"/>
			<path fill="#AD8080" d="M212.638,225.2c-0.929-0.269-1.451-0.883-3.022-0.254c0.289,1.164,0.87,1.025,1.798,1.291
				c0.232-0.547-0.349-0.405-0.114-0.959"/>
			<path fill="#AD8080" d="M221.881,223.707c-2.034-0.747-4.13,1.737-2.271,2.275c0.232-0.548,0.465-1.101,0.699-1.649"/>
			<path fill="#AD8080" d="M192.667,220.65c0.577-0.14-3.205,2.012-3.611,2.354c0.462,1.372,2.96,1.014,3.662-0.641"/>
			<path fill="#AD8080" d="M180.267,228.342c-0.931-0.267-1.278-0.677-2.847-0.05C177.472,230.002,179.155,230.342,180.267,228.342"
				/>
			<path fill="#AD8080" d="M204.408,178.295c-2.092,0.012-5.063,1.471-5.006,3.188c2.149-0.769,3.199-2.011,3.73-3.866"/>
			<path fill="#AD8080" d="M201.996,168.014c-0.288-1.167-2.847-0.052-4.538,2.083c1.743-0.418,2.794-1.661,3.495-3.315"/>
			<path fill="#AD8080" d="M210.911,158.695c-0.987,0.484-0.757-0.066-1.571,0.624C210.097,159.386,210.33,158.834,210.911,158.695"
				/>
			<path fill="#AD8080" d="M226.449,149.748c-0.93-0.27-1.857-0.539-3.487,0.843c0.871,1.024,2.44,0.4,4.131-1.741
				c-0.583,0.143-0.989,0.489-1.573,0.628"/>
			<path fill="#AD8080" d="M187.497,199.672c-0.525-0.613-1.042-1.229-1.389-1.639c-1.166,0.283-0.411,0.346-1.225,1.039"/>
			<path fill="#AD8080" d="M181.766,211.926c-1.339,0.073-2.439-0.396-2.728-1.563c3.439-2.56,5.297-2.022,3.133,1.217"/>
			<path fill="#AD8080" d="M186.992,213.131c1.226-1.039,1.865-1.933,3.089-2.97c0.405-0.344,0.234-0.548,0.234-0.548
				c-1.977,0.971-2.213,1.522-3.843,2.902c0.693,0.82,1.506,0.13,3.315-1.048"/>
			<path fill="#AD8080" d="M206.093,197.645c-0.521-0.616-0.694-0.818-1.857-0.539c-1.517,2.341-0.884,3.917,1.565,1.845"/>
			<path fill="#AD8080" d="M251.371,151.867c-0.756-0.063-0.932-0.268-1.512-0.127c0.459,1.372,1.625,1.086,3.488-0.847"/>
			<path fill="#AD8080" d="M255.361,137.566c-0.932-0.27-2.266-0.192-4.068,0.987c0.051,1.712,1.043,1.229,2.906-0.708"/>
			<path fill="#AD8080" d="M243.199,144.708c-0.76-0.068-0.521-0.615-1.338,0.075c-0.293,1.307,0.697,0.82,1.043,1.229"/>
			<path fill="#AD8080" d="M241.064,159.547c-0.58,0.14-0.931-0.27-2.154,0.767c0.229,1.92,2.379,1.151,3.724-1.391"/>
			<path fill="#AD8080" d="M248.941,168.014c0.295-1.306-0.398-2.129-0.922-2.743c-1.285,1.793-0.59,2.612,1.326,2.396
				c0.991-0.487,0.234-0.549,0.647-0.897"/>
			<path fill="#AD8080" d="M252.609,205.402c-1.805,1.178-2.795,1.665-2.332,3.035c1.979-0.97,1.049-1.243,1.688-2.137"/>
			<path fill="#AD8080" d="M241.882,218.369c-1.511-0.125-3.956,1.948-5.065,3.946c1.805-1.179,3.437-2.561,4.72-4.355"/>
		</g>
		<g>
			<g>
				<path fill="#E48C84" d="M212.243,250.236c2.888-4.848,8.63-7.321,13.366-9.996c5.779-3.264,10.858-7.637,16.5-11.15
					c12.263-7.636,24.183-15.914,35.416-25.019c5.752-4.662,10.457-10.538,16.703-14.585c4.459-2.889,7.773-7.335,9.504-12.318
					c4.371-12.599-8.064-19.893-17.391-24.711c-5.509-2.847-10.42-5.929-15.02-10.112c-5.24-4.768-9.658-10.365-14.883-15.158
					c-3.281-3.011-6.475-5.339-10.988-4.13c-4.828,1.294-8.953,5.785-12.637,8.905c-22.236,18.841-45.466,35.931-69.466,52.471
					c-6.635,4.573-13.438,9.863-16.77,17.423c-1.759,3.991-2.689,9.135-1.779,13.41c1.016,4.775,7.018,9.284,10.439,12.3
					c4.15,3.66,8.707,6.998,12.312,11.23c2.665,3.129,5.079,6.469,7.712,9.625c4.899,5.871,10.968,11.982,19.109,11.997
					c0.903,0.002,5.244-1.776,3.026-1.78c-11.313-0.021-18.916-13.423-25.225-21.08c-3.603-4.373-8.3-7.843-12.568-11.525
					c-6.337-5.47-11.828-10.577-10.048-19.487c2.477-12.398,12.949-19.257,22.837-25.81c11.503-7.624,22.607-15.967,33.729-24.135
					c12.172-8.939,23.179-19.1,34.985-28.449c3.186-2.521,4.83-4.271,8.537-1.471c2.559,1.932,4.822,4.259,7.051,6.551
					c4.896,5.038,9.443,10.334,14.988,14.696c9.385,7.383,25.894,9.952,28.121,23.715c1.007,6.216-2.9,12.328-7.234,16.341
					c-2.248,2.082-5.051,3.627-7.4,5.618c-3.146,2.666-5.975,5.71-9.033,8.475c-12.259,11.076-26.617,20.045-40.518,28.854
					c-5.387,3.416-10.242,7.449-15.817,10.57c-4.437,2.484-9.425,5.084-12.109,9.59
					C207.425,251.543,211.577,251.355,212.243,250.236L212.243,250.236z"/>
			</g>
		</g>
	</g>
</g>
</svg>
