<?xml version="1.0" encoding="utf-8"?>
<!-- Generator: Adobe Illustrator 16.0.3, SVG Export Plug-In . SVG Version: 6.00 Build 0)  -->
<!DOCTYPE svg PUBLIC "-//W3C//DTD SVG 1.1//EN" "http://www.w3.org/Graphics/SVG/1.1/DTD/svg11.dtd">
<svg version="1.1" id="Ebene_1" xmlns="http://www.w3.org/2000/svg" xmlns:xlink="http://www.w3.org/1999/xlink" x="0px" y="0px"
	 width="450px" height="450px" viewBox="0 0 450 450" enable-background="new 0 0 450 450" xml:space="preserve">
<g id="falafel">
	<g>
		<g>
			<path fill="#CA7B44" d="M230.827,174.777c-1.479,9.922-3.7,19.843-2.222,30.528c2.222,16.79,18.465,28.487,34.75,30.777
				c39.234,5.344,69.863-43.491,38.771-73.255c-9.623-9.16-27.875-14.425-41.941-11.371c-8.883,1.526-27.877,15.688-29.358,24.846"
				/>
		</g>
		<g>
			<g>
				<path fill="#863D1D" d="M299.188,165.303c-9.33-8.95-26.558-17.154-40.193-14.172c-8.613,1.492-26.671,14.037-30.049,24.196
					c-3.377,10.159-3.688,18.32-2.252,28.763c2.154,16.41,18.662,29.836,34.453,32.074
					C299.188,241.385,329.333,194.393,299.188,165.303z M257.504,167.395c-0.227,1.174-0.902,1.408-1.579,0.938
					C256.376,167.63,256.376,166.926,257.504,167.395z M257.277,194.369c-0.901,0.234-2.03-0.469-1.805-1.174v0.236
					C256.602,192.962,257.277,193.195,257.277,194.369z M255.698,179.826h0.227c1.579,0.471,0.677,2.58-0.452,3.285
					C254.796,182.173,254.796,180.765,255.698,179.826z M237.643,185.221c-0.314-0.489-0.297-1.09-0.107-1.648
					c-0.041,0.004-0.074-0.002-0.119,0.008l0.451-0.703c-0.137,0.213-0.25,0.451-0.332,0.695
					C238.529,183.451,238.507,184.545,237.643,185.221z M241.703,181c-0.45-0.938,0-0.703,0.451-1.174h-0.451
					c0.227,0,0.451-0.469,0.904,0C242.154,180.765,242.382,180.529,241.703,181z M244.499,175.173
					c-0.03-0.012-0.058-0.024-0.088-0.036l0.228-0.235C244.584,174.997,244.539,175.087,244.499,175.173
					C247.157,176.299,243.355,177.593,244.499,175.173z M245.992,203.518c-0.45-0.469-0.45-0.469-0.45-1.172
					c0.676-0.471,1.578-0.705,2.256-0.471l-2.032,0.471C246.896,202.346,247.12,202.814,245.992,203.518z M248.023,209.381
					c-0.227-0.703-0.227-1.875-0.227-2.814l0.227,1.406c0.226-0.467,0.226-0.702,0.451-1.172
					C249.152,207.506,248.927,208.443,248.023,209.381z M250.957,185.455c-1.127-0.234-0.678-2.578-0.45-3.282l0.226,0.468
					C252.989,182.406,251.859,185.69,250.957,185.455z M251.859,174.901c-0.225,0.235-0.225,0.703-0.448,0.938l-0.454-0.235
					c0-0.12,0.061-0.3,0.116-0.479c-0.021,0.013-0.032,0.023-0.05,0.035l-0.066,0.208c-0.068-0.071-0.023-0.143,0.066-0.208
					l0.158-0.493c0,0.113-0.055,0.285-0.108,0.458C251.3,174.997,251.716,174.901,251.859,174.901z M250.279,167.865
					c-0.223-0.939,0.228-1.408,0.678-1.408v0.234C253.668,165.754,251.411,170.443,250.279,167.865z M254.343,205.394
					c0.197-1.017,0.902-2.382,1.97-2.881c-0.209-0.104-0.483-0.167-0.84-0.167h1.354c-0.181,0.031-0.353,0.09-0.517,0.167
					C257.7,203.201,256.107,205.801,254.343,205.394z M255.247,199.061c0.678-1.174,1.805-0.703,2.709,0.234
					C257.277,199.998,256.15,199.765,255.247,199.061z M259.764,188.037c-0.228,0-0.228,0.703-0.453,0.234
					c0-0.938,0-1.643,0.453-2.346c0,0.233,0,0.938,0,1.407c0-0.167,0.108-0.335,0.174-0.584l0.049-0.354
					c0,0.138-0.021,0.25-0.049,0.354L259.764,188.037z M261.566,209.616l0.451-0.47c-0.227,0.234,0.226,0,0.902,0
					C262.471,210.32,262.243,209.851,261.566,209.616z M263.372,175.604c-1.354-0.235-1.354-1.642-0.901-2.815h0.225
					C263.823,173.258,263.823,174.432,263.372,175.604z M265.18,218.998c0-0.469-0.226-0.704-0.226-1.172l-0.228-0.235
					C265.854,217.826,266.081,217.826,265.18,218.998z M264.729,215.949l0.451-0.469c0.45-0.235,0.45-0.471,0.901-0.471
					c0.226,0.235,0.226,0.235,0.226,0.235C266.081,215.949,265.402,215.949,264.729,215.949z M268.79,167.395l0.226,0.705
					C272.4,167.865,268.111,171.383,268.79,167.395z M267.284,207.408c0.002-0.002,0-0.002,0-0.002
					c-0.019-0.052-0.04-0.1-0.074-0.136l0.13,0.135c0.119,0.017,0.411,0.101,0.549,0.101
					C267.314,208.1,267.386,207.69,267.284,207.408z M267.436,199.998l-0.226,0.234C267.436,196.48,270.37,200.469,267.436,199.998z
					 M270.145,191.789c-0.679,0.47-0.679,0.703-1.58,0.703c0.188-0.584,0.576-0.998,1.057-1.275
					c-0.053-0.038-0.102-0.078-0.154-0.131l0.51-0.049c0.607-0.244,1.316-0.3,1.976-0.188l-1.976,0.188
					c-0.125,0.051-0.239,0.113-0.354,0.18C269.794,191.344,269.968,191.426,270.145,191.789z M271.95,176.777l0.45,0.235
					C275.563,177.013,271.046,181.234,271.95,176.777z M272.4,188.037v-0.471c0.451-0.233,0.451-0.703,1.129-0.233
					C273.077,188.74,272.854,188.037,272.4,188.037z M273.98,196.95c-0.434-0.9-0.237-1.368,0.375-1.819c-0.004,0-0.006,0-0.008,0
					l-1.271,0.881c0.457-0.475,0.813-0.833,1.271-0.881l0.084-0.058c-0.029,0.02-0.049,0.038-0.076,0.058
					c0.222-0.02,0.461,0.025,0.754,0.178C275.109,196.246,274.884,196.715,273.98,196.95z M276.915,205.863
					c-0.451-0.47-0.676-1.174-0.901-1.877l0.227,0.469C276.689,204.925,277.143,204.925,276.915,205.863z M277.366,192.727
					c0-0.549,0.006-1.1,0.11-1.648c-0.039,0.006-0.067-0.002-0.11,0.008l0.227-0.471c-0.049,0.154-0.084,0.309-0.114,0.463
					C278.482,190.951,278.452,192.051,277.366,192.727z M279.173,209.381l0.226-0.234c0-0.469-0.449-0.938,1.131-0.938
					C280.302,208.912,279.852,209.146,279.173,209.381z M280.527,203.986c-0.452,0-0.452-0.469-0.678-0.469v-0.234
					c0,0,0.451-0.234,0.678,0C280.527,203.518,280.753,203.518,280.527,203.986z M280.302,180.297L281.43,181
					c0-0.471,0-0.938,1.129-0.471C282.559,182.406,279.852,182.173,280.302,180.297z M282.559,190.615
					c0.903-0.938,2.03-0.938,2.936-0.233c-0.904,0.468-1.129,0.704-2.031,0.468c0.053-0.082,0.107-0.152,0.16-0.212l-0.611,0.212
					C282.782,190.85,282.559,191.32,282.559,190.615z M283.688,201.172c-0.676-0.47-0.451-1.174-0.451-1.407h-0.225
					C284.141,199.295,284.814,200.232,283.688,201.172z M285.042,204.689c0.319-0.498,0.754-1.111,1.219-1.68
					c-0.026-0.064-0.051-0.129-0.092-0.195l-0.676,0.469c0.227-0.234,0.227-0.469,0.676-0.469l0,0l0.681-0.469
					c-0.199,0.205-0.396,0.432-0.589,0.664C286.779,204.087,286.316,204.911,285.042,204.689z M291.134,216.184
					c0-0.938,0.453-1.174,1.13-1.642h-0.677c0.228-0.234,0.228-0.47,0.677-0.47C292.941,215.01,292.491,215.949,291.134,216.184z"/>
			</g>
		</g>
		<g>
			<g>
				<path fill="#492613" d="M261.282,214.664c1.608,0.357,3.127-0.572,3.688-1.927c-1.51-0.758-4.385-0.342-3.84,1.681"/>
			</g>
			<g>
				<path fill="#492613" d="M249.198,211.971c1.563-0.283,3.079-1.213,2.434-2.836c-1.565,0.285-2.825,1.06-2.584,2.592"/>
			</g>
			<g>
				<path fill="#492613" d="M250.021,228.635c0.301,0.49,1.105,0.67,1.967-0.195c2.031-2.929-4.525-2.274-1.713,0.041"/>
			</g>
			<g>
				<path fill="#492613" d="M267.261,218.741c0.908-0.22,3.736-1.282,3.238-2.659c-0.347-1.133-4.638-0.188-2.886,2.104"/>
			</g>
			<g>
				<path fill="#492613" d="M284.802,198.563c1.152,1.313,3.521,1.207,4.937,0.677c-0.844-2.513-5.832-2.146-4.033,0.79"/>
			</g>
			<g>
				<path fill="#492613" d="M247.195,199.063c5.404-1.967-2.146-4.07-0.047-0.646"/>
			</g>
			<g>
				<path fill="#492613" d="M239.186,208.686c4.746-1.9-1.896-4.225,0.606-0.709"/>
			</g>
			<g>
				<path fill="#492613" d="M275.227,188.613c-1.441-3.492-3.793,2.324,0.401,0.089"/>
			</g>
			<g>
				<path fill="#492613" d="M265.268,184.281c0.955,0.424,1.61,0.36,2.322-0.75c-0.854-0.822-1.509-0.758-2.521-0.138
					c0.097,1.289,0.9,1.468,2.109,1.737"/>
			</g>
			<g>
				<path fill="#492613" d="M275.843,206.074c0.91-0.221,0.918-1.907,0.064-2.732c-1.265,0.775-1.066,1.664,0.188,2.576"/>
			</g>
			<g>
				<path fill="#492613" d="M282.314,202.445c0.158-1.444-0.34-2.824-1.549-3.091C280.354,200.951,280.602,202.486,282.314,202.445"
					/>
			</g>
			<g>
				<path fill="#492613" d="M290.298,208.659c0.195,0.889,1.05,1.713,2.004,2.137c0.761-0.466,0.761-0.466,0.966-1.265
					c-1.511-0.758-1.863-0.203-1.113,1.021"/>
			</g>
			<g>
				<path fill="#492613" d="M276.417,231.979c1.06,0.023,2.222-0.352,2.681-1.307c-1.361-0.514-2.623,0.262-1.621,1.33"/>
			</g>
			<g>
				<path fill="#492613" d="M270.279,229.344c0.808,0.18,0.854,0.823,1.564-0.285c-0.955-0.424-0.553-0.334-1.863-0.205
					c-0.207,0.801,0.449,0.735,0.601,0.979"/>
			</g>
			<g>
				<path fill="#492613" d="M252.909,176.037c0.702,0.578,0.748,1.223,1.809,1.249c-0.348-1.135-0.752-1.226-1.854-1.894
					c-0.16,1.443,0.592,2.668,2.201,3.025c0.76-0.465,0.104-0.399-0.047-0.645"/>
			</g>
			<g>
				<path fill="#492613" d="M296.091,179.525c0.505-0.311,0.607-0.709,1.113-1.02c-1.863-0.203-1.713,0.041-1.218,1.42"/>
			</g>
			<g>
				<path fill="#492613" d="M294.218,181.012c-0.448-0.735-0.897-1.47-1.809-1.251c0,0,0,0-0.103,0.401
					c0.299,0.488,0.553,0.335,1.104,0.668"/>
			</g>
			<g>
				<path fill="#492613" d="M289.491,188.621c-0.197-0.89,0.159-1.445-1.406-1.16c0.451,0.734,1.004,1.069,0.603,0.98"/>
			</g>
			<g>
				<path fill="#492613" d="M283.212,184.053c0.104-0.397,1.013-0.619-0.194-0.889c0.147,0.244,0.346,1.134,0.301,0.49"/>
			</g>
			<g>
				<path fill="#492613" d="M273.825,176.68c0.606-0.709,1.215-1.418,1.422-2.217c-1.162,0.375-0.86,0.864-1.067,1.663"/>
			</g>
			<g>
				<path fill="#492613" d="M277.538,169.689c-0.701-0.578-1.254-0.912-2.162-0.693c1.049,1.715,1.256,0.914,1.761,0.605"/>
			</g>
			<g>
				<path fill="#492613" d="M265.512,205.676c0.508-0.31,0.908-0.221,1.159-0.375c-0.504,0.311-1.262,0.773-1.517,0.93
					c1.06,0.024,1.818-0.441,2.828-1.061c0.355-0.557-0.401-0.09-0.551-0.334"/>
			</g>
			<g>
				<path fill="#492613" d="M295.354,205.559c1.013-0.618,2.275-1.395,2.882-2.104c-1.609-0.358-2.771,0.017-3.08,1.215
					c0.655-0.064,0.909-0.219,1.565-0.285"/>
			</g>
			<g>
				<path fill="#492613" d="M248.745,222.014c0.056-1.045-0.647-1.624-2.063-1.095C246.927,222.453,247.688,221.988,248.745,222.014
					"/>
			</g>
			<g>
				<path fill="#492613" d="M258.723,222.967c0.25-0.154,0.905-0.221,1.159-0.376l-0.047-0.644c-0.403-0.09-0.908,0.221-1.313,0.131
					c0.15,0.244,1.002,1.068,1.105,0.668"/>
			</g>
			<g>
				<path fill="#492613" d="M263.32,229.907c4.085-0.147-0.282-3.866,0.404,0.089"/>
			</g>
			<g>
				<path fill="#492613" d="M258.364,183.801c0.907-0.22,1.668-0.685,2.426-1.148c-1.511-0.76-2.772,0.015-1.771,1.082"/>
			</g>
			<g>
				<path fill="#492613" d="M259.032,191.133c-0.3-0.487,0.31-1.197-1.509-0.758c-0.056,1.045,0.449,0.734,1.002,1.068"/>
			</g>
			<g>
				<path fill="#492613" d="M262.367,189.764c0.646,1.623,2.199,3.025,4.017,2.586c-0.596-0.979-0.851-0.824-1.806-1.25
					c-0.355,0.555-0.206,0.801-0.311,1.199"/>
			</g>
			<g>
				<path fill="#492613" d="M245.439,187.686c2.322-0.752,0.775-3.843-1.248-2.603c0.244,1.532,0.75,1.224,1.254,0.913"/>
			</g>
			<g>
				<path fill="#492613" d="M272.898,157.03c0.955,0.424,1.509,0.759,2.521,0.14c-1.151-1.314-2.463-1.184-3.024,0.17
					c0.301,0.49,0.553,0.335,0.957,0.424"/>
			</g>
			<g>
				<path fill="#492613" d="M264.855,166.021c1.207,0.269,2.67,0.383,3.728,0.407c-0.646-1.622-1.957-1.492-2.772,0.017
					c0.301,0.489,0.553,0.337,0.957,0.425"/>
			</g>
			<g>
				<path fill="#492613" d="M264.475,171.64c0.254-0.154,1.161-0.375,1.217-1.417c-1.76-0.605-2.321,0.749-1.064,1.662"/>
			</g>
			<g>
				<path fill="#492613" d="M270.77,172.83c-0.15-0.244,0.354-0.555,0.055-1.044c-0.654,0.066-0.504,0.31-0.758,0.465
					c-0.103,0.401,0.453,0.735,0.453,0.735"/>
			</g>
		</g>
		<g>
			<g>
				<path fill="#D7B584" d="M245.596,186.6c-0.613,1.167-0.199,2.501,0.743,3.183c0.904-1.013,1.175-3.29-0.521-3.251"/>
			</g>
			<g>
				<path fill="#D7B584" d="M250.197,177.86c-0.102,1.251,0.313,2.584,1.718,2.394c0.101-1.25-0.246-2.363-1.496-2.462"/>
			</g>
			<g>
				<path fill="#D7B584" d="M236.996,175.375c-0.445,0.139-0.752,0.72-0.253,1.542c1.868,2.1,2.715-3.036,0.321-1.317"/>
			</g>
			<g>
				<path fill="#D7B584" d="M241.171,190.411c-0.017,0.735,0.229,3.095,1.41,2.974c0.958-0.054,1.104-3.51-1.049-2.6"/>
			</g>
			<g>
				<path fill="#D7B584" d="M253.329,207.601c-1.267,0.636-1.673,2.468-1.55,3.648c2.14-0.175,2.882-4.063,0.216-3.235"/>
			</g>
			<g>
				<path fill="#D7B584" d="M260.707,178.744c0.423,4.5,3.628-0.88,0.514,0.085"/>
			</g>
			<g>
				<path fill="#D7B584" d="M254.835,170.816c0.508,3.986,3.697-0.658,0.433,0.599"/>
			</g>
			<g>
				<path fill="#D7B584" d="M263.089,202.135c3.028-0.451-1.037-3.336-0.153,0.292"/>
			</g>
			<g>
				<path fill="#D7B584" d="M268.533,195.328c-0.53,0.652-0.614,1.164,0.105,1.918c0.82-0.498,0.906-1.014,0.629-1.902
					c-1.026-0.169-1.334,0.414-1.793,1.288"/>
			</g>
			<g>
				<path fill="#D7B584" d="M249.305,199.344c-0.017,0.734,1.303,1.057,2.122,0.557c-0.343-1.109-1.079-1.125-2.053-0.336"/>
			</g>
			<g>
				<path fill="#D7B584" d="M250.807,204.971c1.098,0.391,2.276,0.269,2.735-0.606C252.378,203.752,251.128,203.649,250.807,204.971
					"/>
			</g>
			<g>
				<path fill="#D7B584" d="M244.296,209.914c-0.733-0.016-1.555,0.483-2.084,1.134c0.206,0.667,0.206,0.667,0.788,0.974
					c0.904-1.012,0.546-1.387-0.566-1.041"/>
			</g>
			<g>
				<path fill="#D7B584" d="M228.927,194.939c-0.235,0.806-0.183,1.763,0.468,2.292c0.684-0.942,0.338-2.054-0.703-1.486"/>
			</g>
			<g>
				<path fill="#D7B584" d="M232.256,190.738c-0.308,0.582-0.818,0.5-0.102,1.248c0.529-0.649,0.377-0.359,0.547-1.387
					c-0.583-0.307-0.667,0.208-0.891,0.277"/>
			</g>
			<g>
				<path fill="#D7B584" d="M277.534,187.418c-0.599,0.429-1.113,0.345-1.351,1.149c0.959-0.054,1.111-0.345,1.863-1.065
					c-1.096-0.391-2.209-0.046-2.822,1.119c0.207,0.668,0.293,0.153,0.517,0.084"/>
			</g>
			<g>
				<path fill="#D7B584" d="M265.884,219.791c0.138,0.444,0.431,0.599,0.567,1.043c0.545-1.389,0.322-1.318-0.858-1.196"/>
			</g>
			<g>
				<path fill="#D7B584" d="M265.107,218.082c0.668-0.207,1.334-0.414,1.353-1.149c0,0,0,0-0.293-0.154
					c-0.442,0.137-0.375,0.36-0.751,0.722"/>
			</g>
			<g>
				<path fill="#D7B584" d="M260.136,213.045c0.735,0.014,1.097,0.391,1.194-0.859c-0.666,0.207-1.042,0.566-0.891,0.275"/>
			</g>
			<g>
				<path fill="#D7B584" d="M265.004,209.096c0.291,0.154,0.275,0.891,0.734,0.018c-0.221,0.067-0.956,0.052-0.443,0.137"/>
			</g>
			<g>
				<path fill="#D7B584" d="M272.71,203.295c0.429,0.598,0.856,1.195,1.438,1.502c-0.053-0.959-0.498-0.82-1.08-1.128"/>
			</g>
			<g>
				<path fill="#D7B584" d="M277.409,207.442c0.598-0.429,0.973-0.788,0.989-1.525c-1.559,0.483-0.977,0.79-0.838,1.233"/>
			</g>
			<g>
				<path fill="#D7B584" d="M251.753,191.516c0.138,0.445-0.019,0.736,0.054,0.958c-0.14-0.444-0.348-1.111-0.414-1.334
					c-0.238,0.806-0.031,1.472,0.243,2.362c0.36,0.375,0.154-0.293,0.375-0.361"/>
			</g>
			<g>
				<path fill="#D7B584" d="M245.676,214.361c0.277,0.891,0.62,2,1.053,2.598c0.61-1.164,0.558-2.122-0.316-2.582
					c-0.084,0.513-0.016,0.736-0.098,1.25"/>
			</g>
			<g>
				<path fill="#D7B584" d="M242.438,175.637c0.806,0.238,1.403-0.191,1.281-1.371C242.471,174.164,242.677,174.832,242.438,175.637
					"/>
			</g>
			<g>
				<path fill="#D7B584" d="M239.632,183.088c0.069,0.223-0.016,0.736,0.054,0.959l0.515,0.085c0.153-0.292,0.016-0.736,0.169-1.028
					c-0.223,0.068-1.043,0.567-0.752,0.721"/>
			</g>
			<g>
				<path fill="#D7B584" d="M233.254,185.311c-0.73,3.15,3.082,0.506-0.152,0.291"/>
			</g>
			<g>
				<path fill="#D7B584" d="M270.335,190.139c-0.017,0.736,0.19,1.402,0.397,2.07c0.906-1.012,0.562-2.123-0.481-1.557"/>
			</g>
			<g>
				<path fill="#D7B584" d="M264.462,189.278c0.445-0.138,0.875,0.46,0.905-1.013c-0.805-0.236-0.667,0.208-1.043,0.569"/>
			</g>
			<g>
				<path fill="#D7B584" d="M264.846,192.084c-1.402,0.193-2.82,1.118-2.854,2.592c0.891-0.275,0.821-0.498,1.352-1.149
					c-0.36-0.375-0.582-0.308-0.874-0.46"/>
			</g>
			<g>
				<path fill="#D7B584" d="M269.968,179.527c0.109,1.918,2.845,1.311,2.293-0.467c-1.25-0.1-1.11,0.345-0.975,0.789"/>
			</g>
			<g>
				<path fill="#D7B584" d="M291.82,208.334c-0.528,0.652-0.903,1.013-0.629,1.9c1.267-0.635,1.435-1.662,0.49-2.346
					c-0.445,0.139-0.375,0.361-0.527,0.652"/>
			</g>
			<g>
				<path fill="#D7B584" d="M282.898,198.427c-0.461,0.875-0.852,1.972-1.09,2.776c1.402-0.192,1.574-1.219,0.563-2.125
					c-0.447,0.139-0.377,0.361-0.529,0.652"/>
			</g>
			<g>
				<path fill="#D7B584" d="M278.583,197.086c0.067,0.221,0.054,0.957,0.856,1.195c0.838-1.234-0.104-1.917-1.08-1.127"/>
			</g>
			<g>
				<path fill="#D7B584" d="M276.352,201.678c0.223-0.069,0.36,0.375,0.807,0.237c0.082-0.514-0.139-0.444-0.207-0.667
					c-0.291-0.153-0.668,0.207-0.668,0.207"/>
			</g>
		</g>
	</g>
	<g>
		<g>
			<g>
				<path fill="#83471F" d="M227.477,290.207c10.717,7.232,29.086,12.393,42.02,7.135c8.232-2.936,23.895-18.363,25.496-28.951
					c1.604-10.586,0.521-18.681-2.67-28.729c-4.91-15.804-23.461-26.229-39.402-25.75
					C214.544,215.232,192.823,266.664,227.477,290.207z M268.195,281.063c0.025-1.195,0.65-1.543,1.398-1.193
					C269.27,280.639,269.389,281.331,268.195,281.063z M263.835,254.439c0.851-0.383,2.082,0.117,1.978,0.852l-0.037-0.232
					C264.741,255.713,264.034,255.598,263.835,254.439z M267.863,268.504l-0.223,0.037c-1.637-0.193-1.106-2.428-0.113-3.313
					C268.354,266.038,268.593,267.424,267.863,268.504z M281.456,264.969c0.604,0.85,0.119,0.692-0.248,1.233l0.444-0.079
					c-0.223,0.039-0.362,0.541-0.891,0.154C281.048,265.275,280.868,265.547,281.456,264.969z M273.402,243.509
					c0.521,0.384,0.521,0.384,0.644,1.077c-0.588,0.578-1.438,0.962-2.146,0.848l1.925-0.809
					C272.71,244.816,272.407,244.393,273.402,243.509z M270.4,238.072c0.345,0.656,0.543,1.813,0.703,2.738l-0.463-1.351
					c-0.143,0.501-0.104,0.731-0.246,1.231C269.607,240.116,269.673,239.152,270.4,238.072z M271.577,262.15
					c1.151,0.039,1.104,2.427,1.004,3.158l-0.306-0.424C270.093,265.5,270.646,262.072,271.577,262.15z M272.48,272.705
					c0.185-0.27,0.103-0.73,0.285-1.002l0.486,0.154c0.02,0.117-0.008,0.307-0.033,0.489c0.016-0.012,0.027-0.026,0.041-0.04
					l0.031-0.218c0.08,0.06,0.049,0.138-0.031,0.218l-0.07,0.514c-0.02-0.113,0.004-0.291,0.029-0.473
					C273.018,272.516,272.624,272.68,272.48,272.705z M264.854,243.078c-0.021,1.035-0.484,2.5-1.449,3.174
					c0.224,0.066,0.504,0.083,0.854,0.021l-1.336,0.23c0.175-0.063,0.332-0.148,0.479-0.253
					C261.918,245.809,263.043,242.979,264.854,243.078z M265.038,249.473c-0.468,1.271-1.658,1-2.707,0.229
					C262.878,248.893,264.029,248.934,265.038,249.473z M262.464,261.104c0.224-0.037,0.104-0.73,0.406-0.309
					c0.157,0.925,0.276,1.619-0.047,2.389c-0.039-0.229-0.16-0.924-0.239-1.387c0.027,0.164-0.052,0.35-0.075,0.605l0.013,0.357
					c-0.023-0.138-0.021-0.253-0.013-0.357L262.464,261.104z M257.018,240.145l-0.365,0.539c0.184-0.27-0.223,0.039-0.889,0.153
					C256.007,239.604,256.311,240.027,257.018,240.145z M261.018,273.969c1.375,0.002,1.612,1.387,1.368,2.619l-0.223,0.039
					C260.973,276.355,260.771,275.201,261.018,273.969z M251.861,231.514c0.082,0.461,0.344,0.655,0.425,1.117l0.261,0.192
					C251.396,232.783,251.174,232.82,251.861,231.514z M252.827,234.439l-0.367,0.541c-0.403,0.308-0.365,0.537-0.808,0.613
					c-0.264-0.191-0.264-0.191-0.264-0.191C251.493,234.671,252.159,234.557,252.827,234.439z M257.076,282.979l-0.344-0.654
					C253.436,283.131,257.064,278.936,257.076,282.979z M251.757,243.293C251.756,243.294,251.757,243.294,251.757,243.293
					c0.027,0.051,0.058,0.093,0.101,0.122l-0.151-0.11c-0.122,0.004-0.424-0.027-0.56-0.006
					C251.609,242.615,251.609,243.031,251.757,243.293z M252.869,250.619l0.182-0.27
					C253.468,254.088,249.896,250.655,252.869,250.619z M251.596,259.17c0.586-0.577,0.547-0.809,1.438-0.962
					c-0.088,0.606-0.398,1.081-0.824,1.438c0.057,0.026,0.113,0.061,0.173,0.103l-0.493,0.135c-0.557,0.345-1.246,0.519-1.914,0.519
					l1.914-0.519c0.113-0.069,0.219-0.153,0.32-0.237C252.014,259.55,251.828,259.498,251.596,259.17z M252.367,274.271
					l-0.485-0.156C248.77,274.652,252.499,269.725,252.367,274.271z M250.007,263.252l0.08,0.463
					c-0.403,0.307-0.323,0.77-1.071,0.422C249.223,262.674,249.564,263.328,250.007,263.252z M246.936,254.736
					c0.582,0.813,0.469,1.309-0.062,1.854c0.004-0.002,0.006-0.002,0.01-0.002l1.103-1.082c-0.369,0.545-0.659,0.96-1.103,1.082
					l-0.073,0.072c0.022-0.023,0.043-0.046,0.063-0.07c-0.213,0.06-0.459,0.054-0.771-0.045
					C245.941,255.621,246.085,255.121,246.936,254.736z M242.529,246.451c0.523,0.387,0.867,1.041,1.207,1.697l-0.301-0.424
					C242.912,247.338,242.466,247.414,242.529,246.451z M244.316,259.473c0.093,0.541,0.183,1.086,0.17,1.646
					c0.039-0.013,0.068-0.011,0.109-0.027l-0.143,0.502c0.021-0.159,0.031-0.317,0.033-0.475
					C243.52,261.413,243.361,260.324,244.316,259.473z M239.706,243.369l-0.181,0.268c0.078,0.463,0.604,0.85-0.955,1.117
					C238.673,244.023,239.079,243.715,239.706,243.369z M239.288,248.914c0.446-0.076,0.524,0.387,0.749,0.348l0.04,0.232
					c0,0-0.406,0.307-0.669,0.115C239.368,249.378,239.146,249.414,239.288,248.914z M243.538,272.223l-1.231-0.502
					c0.08,0.463,0.16,0.926-1.033,0.655C240.954,270.525,243.665,270.297,243.538,272.223z M239.559,262.436
					c-0.729,1.078-1.841,1.271-2.851,0.729c0.812-0.614,0.993-0.885,1.921-0.808c-0.036,0.095-0.079,0.17-0.122,0.238l0.566-0.315
					C239.297,262.242,239.439,261.742,239.559,262.436z M236.654,252.227c0.746,0.347,0.643,1.078,0.683,1.31l0.222-0.037
					C236.527,254.152,235.7,253.342,236.654,252.227z M234.721,248.988c-0.229,0.547-0.556,1.225-0.916,1.863
					c0.04,0.059,0.073,0.118,0.125,0.176l0.586-0.574c-0.185,0.268-0.144,0.499-0.586,0.574l0,0l-0.589,0.58
					c0.159-0.236,0.313-0.494,0.464-0.756C233.109,249.879,233.427,248.988,234.721,248.988z M226.764,238.699
					c0.159,0.923-0.246,1.232-0.834,1.809l0.668-0.115c-0.185,0.271-0.144,0.5-0.589,0.58
					C225.183,240.161,225.468,239.16,226.764,238.699z"/>
			</g>
		</g>
		<g>
			<path fill="#6C9F65" d="M231.313,222.266c-12.853,7.744-18.463,15.123-18.706,35.559c0.298,32.973,33.752,44.858,56.708,34.516
				c12.662-5.641,22.557-25.666,22.521-40.524C292.07,239.273,269.216,199.426,231.313,222.266z"/>
			<g>
				<path fill="#83471F" d="M228.594,222.182c-7.323,4.478-13.644,9.764-16.81,17.96c-3.691,9.553-3.734,21.614-0.757,31.31
					c5.374,17.493,23.754,26.784,41.196,25.885c8.346-0.431,17.625-2.552,24.414-7.664c8.973-6.759,14.527-17.343,17.334-28.034
					c3.881-14.785-2.666-28.119-13.633-38.111C265.396,209.912,244.915,212.625,228.594,222.182
					c-1.185,0.693-0.914,1.474,0.405,1.514c1.709,0.053,3.563-0.488,5.028-1.347c10.145-5.939,20.81-7.399,31.5-2.05
					c7.324,3.666,13.146,10.004,17.357,16.916c3.086,5.059,5.469,10.809,5.375,16.803c-0.189,11.824-6.074,24.504-14.209,32.929
					c-14.219,14.722-40.664,6.823-51.364-8.154c-6.429-9-7.163-20.249-5.977-30.89c1.137-10.188,5.897-17.95,14.333-23.669
					c0.975-0.66,1.98-1.271,2.984-1.884C237.011,220.525,229.852,221.414,228.594,222.182z"/>
			</g>
		</g>
		<g>
			<g opacity="0.5">
				<path fill="#C1D677" d="M236.261,261.973c-1.079,0.383-1.985,0.986-2.375,2.26c1.062,0.478,2.324-0.11,1.826-1.639"/>
			</g>
			<g opacity="0.5">
				<path fill="#C1D677" d="M238.636,259.713c0.022-0.857-0.321-1.303,0.228-1.925c0.174,0.224,0.865,1.114,0.346,0.446"/>
			</g>
			<g opacity="0.5">
				<path fill="#C1D677" d="M248.736,255.434c-0.194,0.638-0.389,1.273-0.399,1.703c1.945,0.73,2.354-1.4,0.769-2.115"/>
			</g>
			<g opacity="0.5">
				<path fill="#C1D677" d="M253.366,248.547c0.366-0.414,0.733-0.827,0.918-1.033c-0.552,0.619-0.562,1.049-0.572,1.479
					c1.244,0.271,0.908-0.604,0.756-1.686"/>
			</g>
			<g opacity="0.5">
				<path fill="#C1D677" d="M258.525,241.896c-0.184,0.207-0.539,0.19-0.723,0.397c1.578,1.146,1.641-1.433,0.42-2.562"/>
			</g>
			<g opacity="0.5">
				<path fill="#C1D677" d="M253.145,235.854c-0.541,0.19-1.08,0.381-1.633,1.002c1.396,1.354,1.967-0.129,0.918-1.032"/>
			</g>
			<g opacity="0.5">
				<path fill="#C1D677" d="M244.261,234.166c-1.069-0.045-2.333,0.544-2.71,1.387c1.6,0.286,1.977-0.558,1.458-1.226"/>
			</g>
			<g opacity="0.5">
				<path fill="#C1D677" d="M239.323,231.798c-0.195,0.636-0.726,0.397-0.746,1.257c0.907-0.604,0.388-1.271,0.388-1.271"/>
			</g>
			<g opacity="0.5">
				<path fill="#C1D677" d="M259.018,229.236c-0.356-0.017-0.336-0.875-1.069-0.049c0.356,0.017,1.069,0.049,1.243,0.271
					c-0.174-0.224-0.498-1.524-0.521-0.67"/>
			</g>
			<g opacity="0.5">
				<path fill="#C1D677" d="M264.788,234.008c-0.366,0.412-1.078,0.383-0.572,1.479l0.367-0.412
					c-0.161-0.653,0.013-0.43-0.172-0.223"/>
			</g>
			<g opacity="0.5">
				<path fill="#C1D677" d="M272.093,234.547c0,0-0.725,0.398-0.03,1.29c0.213-1.497-0.683-1.319-0.683-1.319"/>
			</g>
			<g opacity="0.5">
				<path fill="#C1D677" d="M276.068,254.287c-0.377,0.844-0.93,1.463-0.774,2.545c0.906-0.604,0.916-1.035,1.295-1.877
					c-0.356-0.016-0.366,0.412-0.725,0.398"/>
			</g>
			<g opacity="0.5">
				<path fill="#C1D677" d="M276.777,247.225c-0.938,1.894,0.468,2.814,1.224,1.129c-0.356-0.016-0.715-0.03-1.069-0.047"/>
			</g>
			<g opacity="0.5">
				<path fill="#C1D677" d="M268.854,272.023c0.01-0.432,0.844,1.973,1.018,2.193c1.088-0.813,1.314-2.734,0.244-2.783"/>
			</g>
			<g opacity="0.5">
				<path fill="#C1D677" d="M240.203,275.906c-0.398,1.701,0.089,3.66,1.352,3.068c-0.142-1.51-0.844-1.972-2.097-1.813"/>
			</g>
			<g opacity="0.5">
				<path fill="#C1D677" d="M232.223,281.141c-0.906,0.604-0.594,2.338,0.639,3.037c0.033-1.287-0.67-1.748-1.739-1.797"/>
			</g>
			<g opacity="0.5">
				<path fill="#C1D677" d="M227.152,276.832c0.162,0.65-0.195,0.635,0.15,1.08C227.499,277.275,227.143,277.26,227.152,276.832"/>
			</g>
			<g opacity="0.5">
				<path fill="#C1D677" d="M223.647,267.002c-0.379,0.842-0.758,1.686-0.064,2.577c0.918-1.036,0.767-2.118-0.466-2.817
					c-0.013,0.43,0.162,0.652,0.151,1.082"/>
			</g>
			<g opacity="0.5">
				<path fill="#C1D677" d="M252.521,282.904c-0.549,0.621-1.1,1.24-1.467,1.654c-0.021,0.857,0.172,0.223,0.521,0.668"/>
			</g>
			<g opacity="0.5">
				<path fill="#C1D677" d="M260.355,283.682c-0.205,1.068-0.764,2.117-1.674,2.721c-1.199-1.985-0.442-3.672,1.5-2.94"/>
			</g>
			<g opacity="0.5">
				<path fill="#C1D677" d="M254.664,268.382c-0.55,0.622-0.732,0.827-0.755,1.685c1.416,0.494,2.688-0.523,1.651-1.858"/>
			</g>
			<g opacity="0.5">
				<path fill="#C1D677" d="M230.052,246.002c-0.196,0.639-0.379,0.844-0.389,1.273c1.09-0.811,1.11-1.67,0.063-2.576"/>
			</g>
			<g opacity="0.5">
				<path fill="#C1D677" d="M220.383,247.292c-0.379,0.841-0.583,1.909-0.075,3.007c1.266-0.589,1.102-1.24,0.055-2.146"/>
			</g>
			<g opacity="0.5">
				<path fill="#C1D677" d="M223.228,254.943c-0.193,0.637-0.551,0.621-0.204,1.064c0.897-0.175,0.733-0.826,1.101-1.24"/>
			</g>
			<g opacity="0.5">
				<path fill="#C1D677" d="M233.65,251.969c-0.01,0.428-0.377,0.844,0.144,1.512c1.447-0.797,1.306-2.309-0.294-2.594"/>
			</g>
			<g opacity="0.5">
				<path fill="#C1D677" d="M241.37,242.854c-0.896,0.174-1.629,1.002-2.183,1.623c1.062,0.476,1.795-0.351,2.008-1.848
					c-0.159-0.65-0.354-0.014-0.526-0.236"/>
			</g>
			<g opacity="0.5">
				<path fill="#C1D677" d="M269.398,227.979c0.509,1.099,0.67,1.75,1.761,0.938c-0.324-1.302-0.703-0.461-1.232-0.698"/>
			</g>
			<g opacity="0.5">
				<path fill="#C1D677" d="M276.779,232.605c-0.389,1.272,0.65,2.608,1.894,2.879c-0.51-1.096-1.2-1.986-2.26-2.465"/>
			</g>
		</g>
		<g>
			<g>
				<path fill="#6C9F65" d="M259.611,240.197c-1.211-0.123-2.045,0.875-2.105,2.135c1.233,0.49,3.139-0.217,2.27-1.938"/>
			</g>
			<g>
				<path fill="#6C9F65" d="M268.686,241.136c-1.021,0.438-1.854,1.438-1.011,2.792c1.021-0.438,1.716-1.271,1.175-2.594"/>
			</g>
			<g>
				<path fill="#6C9F65" d="M264.081,226.545c-0.328-0.396-0.933-0.457-1.322,0.406c-0.708,2.822,3.703,1.469,1.185-0.24"/>
			</g>
			<g>
				<path fill="#6C9F65" d="M254.458,237.313c-0.58,0.304-2.295,1.572-1.615,2.729c0.517,0.958,3.277-0.386,1.501-2.198"/>
			</g>
			<g>
				<path fill="#6C9F65" d="M247.109,257.182c-1.12-1.021-2.746-0.646-3.604-0.012c1.195,2.113,4.587,1.199,2.622-1.176"/>
			</g>
			<g>
				<path fill="#6C9F65" d="M273.202,252.279c-3.289,2.375,2.479,3.332,0.188,0.563"/>
			</g>
			<g>
				<path fill="#6C9F65" d="M276.46,242.844c-2.851,2.24,2.345,3.5-0.252,0.697"/>
			</g>
			<g>
				<path fill="#6C9F65" d="M256.191,264.814c1.851,2.905,2.082-2.498-0.301-0.029"/>
			</g>
			<g>
				<path fill="#6C9F65" d="M264.182,267.452c-0.77-0.263-1.209-0.126-1.438,0.937c0.795,0.625,1.236,0.489,1.791-0.178
					c-0.378-1.125-0.982-1.188-1.891-1.281"/>
			</g>
			<g>
				<path fill="#6C9F65" d="M251.538,249.496c-0.578,0.302-0.179,1.792,0.616,2.415c0.693-0.833,0.342-1.593-0.754-2.247"/>
			</g>
			<g>
				<path fill="#6C9F65" d="M247.904,253.463c0.24,1.293,0.921,2.448,1.826,2.541C249.632,254.547,249.091,253.225,247.904,253.463"
					/>
			</g>
			<g>
				<path fill="#6C9F65" d="M240.839,248.934c-0.353-0.762-1.146-1.387-1.916-1.646c-0.416,0.5-0.416,0.5-0.364,1.229
					c1.235,0.488,1.35-0.043,0.53-1.033"/>
			</g>
			<g>
				<path fill="#6C9F65" d="M244.874,226.73c-0.744,0.104-1.462,0.574-1.551,1.469c1.069,0.291,1.765-0.541,0.807-1.363"/>
			</g>
			<g>
				<path fill="#6C9F65" d="M249.788,228.324c-0.604-0.063-0.792-0.623-1.021,0.438c0.769,0.262,0.467,0.229,1.35-0.039
					c-0.053-0.729-0.491-0.596-0.656-0.795"/>
			</g>
			<g>
				<path fill="#6C9F65" d="M274.788,273.252c-0.627-0.426-0.815-0.988-1.562-0.885c0.517,0.959,0.818,0.99,1.75,1.447
					c-0.238-1.291-1.057-2.279-2.266-2.406c-0.418,0.501,0.023,0.363,0.188,0.563"/>
			</g>
			<g>
				<path fill="#6C9F65" d="M243.85,275.301c-0.279,0.334-0.254,0.697-0.533,1.032c1.35-0.044,1.186-0.24,0.507-1.397"/>
			</g>
			<g>
				<path fill="#6C9F65" d="M244.794,273.771c0.49,0.595,0.979,1.187,1.562,0.886c0,0,0,0-0.024-0.366
					c-0.327-0.395-0.466-0.229-0.933-0.458"/>
			</g>
			<g>
				<path fill="#6C9F65" d="M246.247,266.502c0.353,0.76,0.237,1.291,1.26,0.854c-0.491-0.595-0.956-0.822-0.653-0.793"/>
			</g>
			<g>
				<path fill="#6C9F65" d="M251.729,269.782c0.024,0.364-0.556,0.667,0.354,0.761c-0.164-0.197-0.518-0.959-0.328-0.396"/>
			</g>
			<g>
				<path fill="#6C9F65" d="M260.057,275.168c-0.254,0.696-0.506,1.395-0.457,2.123c0.721-0.469,0.393-0.865,0.342-1.594"/>
			</g>
			<g>
				<path fill="#6C9F65" d="M259.157,281.77c0.629,0.426,1.094,0.656,1.676,0.354c-1.147-1.386-1.099-0.656-1.375-0.322"/>
			</g>
			<g>
				<path fill="#6C9F65" d="M258.837,248.623c-0.278,0.332-0.58,0.301-0.718,0.469c0.275-0.334,0.693-0.832,0.832-1.001
					c-0.744,0.104-1.161,0.603-1.717,1.271c-0.112,0.531,0.304,0.033,0.468,0.23"/>
			</g>
			<g>
				<path fill="#6C9F65" d="M238.063,252.266c-0.555,0.666-1.248,1.498-1.5,2.196c1.209,0.124,1.929-0.343,1.853-1.438
					c-0.438,0.138-0.58,0.305-1.021,0.438"/>
			</g>
			<g>
				<path fill="#6C9F65" d="M266.573,232.23c0.213,0.928,0.844,1.354,1.7,0.72C267.732,231.627,267.316,232.129,266.573,232.23"/>
			</g>
			<g>
				<path fill="#6C9F65" d="M259.391,232.574c-0.14,0.166-0.58,0.303-0.72,0.47l0.188,0.562c0.302,0.033,0.578-0.301,0.882-0.271
					c-0.164-0.198-0.957-0.823-0.933-0.458"/>
			</g>
			<g>
				<path fill="#6C9F65" d="M254.502,227.002c-2.813,0.615,1.132,3.375-0.302-0.029"/>
			</g>
			<g>
				<path fill="#6C9F65" d="M269.107,267.055c-0.578,0.303-0.993,0.803-1.412,1.303c1.236,0.49,1.931-0.344,0.974-1.166"/>
			</g>
			<g>
				<path fill="#6C9F65" d="M266.87,260.672c0.328,0.396,0.073,1.094,1.233,0.489c-0.213-0.927-0.49-0.593-0.955-0.821"/>
			</g>
			<g>
				<path fill="#6C9F65" d="M264.879,262.275c-0.845-1.354-2.268-2.406-3.428-1.803c0.652,0.79,0.794,0.625,1.563,0.885
					c0.112-0.529-0.051-0.728-0.074-1.092"/>
			</g>
			<g>
				<path fill="#6C9F65" d="M277.18,262.102c-1.438,0.936,0.389,3.479,1.5,2.146c-0.544-1.324-0.82-0.99-1.099-0.658"/>
			</g>
			<g>
				<path fill="#6C9F65" d="M268.884,283.499c-0.905-0.093-1.952-0.021-2.694,0.083c0.842,1.354,1.725,1.084,1.927-0.343
					c-0.327-0.397-0.466-0.229-0.769-0.261"/>
			</g>
			<g>
				<path fill="#6C9F65" d="M267.792,278.501c-0.14,0.167-0.719,0.468-0.506,1.396c1.374,0.321,1.438-0.938,0.341-1.594"/>
			</g>
			<g>
				<path fill="#6C9F65" d="M263.116,278.198c0.163,0.198-0.113,0.53,0.214,0.927c0.441-0.136,0.275-0.333,0.414-0.499
					c-0.023-0.366-0.489-0.595-0.489-0.595"/>
			</g>
		</g>
		<g>
			<g>
				<path fill="#006946" d="M251.682,235.174c-1.097-0.005-1.945,0.975-2.115,2.124c1.088,0.337,2.892-0.475,2.248-1.958"/>
			</g>
			<g>
				<path fill="#006946" d="M259.898,235.227c-0.973,0.486-1.821,1.469-1.17,2.623c0.974-0.486,1.683-1.307,1.304-2.459"/>
			</g>
			<g>
				<path fill="#006946" d="M256.979,222.378c-0.265-0.332-0.813-0.333-1.248,0.485c-0.896,2.627,3.261,1.007,1.104-0.321"/>
			</g>
			<g>
				<path fill="#006946" d="M247.223,233.008c-0.559,0.326-2.238,1.631-1.719,2.621c0.387,0.826,3.031-0.639,1.566-2.127"/>
			</g>
			<g>
				<path fill="#006946" d="M238.745,251.707c-0.937-0.83-2.457-0.346-3.297,0.309c0.907,1.814,4.091,0.683,2.504-1.301"/>
			</g>
			<g>
				<path fill="#006946" d="M263.05,244.949c-3.223,2.447,1.976,2.809,0.122,0.494"/>
			</g>
			<g>
				<path fill="#006946" d="M266.863,236.09c-2.807,2.286,1.832,2.973-0.295,0.656"/>
			</g>
			<g>
				<path fill="#006946" d="M246.381,257.839c1.438,2.476,2.124-2.453-0.273-0.001"/>
			</g>
			<g>
				<path fill="#006946" d="M253.456,259.527c-0.681-0.168-1.097-0.008-1.397,0.979c0.672,0.498,1.086,0.337,1.653-0.318
					c-0.247-0.987-0.795-0.991-1.616-0.996"/>
			</g>
			<g>
				<path fill="#006946" d="M243.477,244.334c-0.558,0.326-0.32,1.643,0.351,2.141c0.708-0.817,0.452-1.477-0.491-1.977"/>
			</g>
			<g>
				<path fill="#006946" d="M239.802,248.26c0.105,1.152,0.625,2.141,1.447,2.146C241.286,249.092,240.906,247.938,239.802,248.26"
					/>
			</g>
			<g>
				<path fill="#006946" d="M233.734,244.766c-0.254-0.658-0.924-1.154-1.604-1.324c-0.425,0.49-0.425,0.49-0.442,1.148
					c1.084,0.335,1.235-0.158,0.574-0.982"/>
			</g>
			<g>
				<path fill="#006946" d="M239.389,224.243c-0.689,0.161-1.388,0.649-1.55,1.47c0.955,0.171,1.663-0.647,0.859-1.309"/>
			</g>
			<g>
				<path fill="#006946" d="M243.743,225.258c-0.548-0.005-0.67-0.498-0.974,0.486c0.681,0.168,0.406,0.166,1.237-0.158
					c0.019-0.658-0.396-0.496-0.53-0.66"/>
			</g>
			<g>
				<path fill="#006946" d="M261.032,262.864"/>
			</g>
			<g>
				<path fill="#006946" d="M260.912,262.369"/>
			</g>
			<g>
				<path fill="#006946" d="M262.648,263.861"/>
			</g>
			<g>
				<path fill="#006946" d="M234.159,268.453c-0.282,0.328-0.293,0.656-0.576,0.984c1.237-0.157,1.104-0.322,0.586-1.313"/>
			</g>
			<g>
				<path fill="#006946" d="M235.16,266.98c0.396,0.496,0.794,0.992,1.352,0.666c0,0,0,0,0.01-0.33
					c-0.265-0.33-0.404-0.166-0.813-0.332"/>
			</g>
			<g>
				<path fill="#006946" d="M237.132,260.249c0.257,0.66,0.104,1.151,1.078,0.665c-0.396-0.496-0.804-0.664-0.526-0.662"/>
			</g>
			<g>
				<path fill="#006946" d="M241.857,262.745c-0.012,0.329-0.567,0.653,0.254,0.66c-0.133-0.165-0.387-0.824-0.266-0.331"/>
			</g>
			<g>
				<path fill="#006946" d="M248.999,266.9c-0.291,0.656-0.584,1.313-0.603,1.971c0.697-0.489,0.433-0.82,0.451-1.477"/>
			</g>
			<g>
				<path fill="#006946" d="M247.596,272.979c0.537,0.332,0.944,0.5,1.502,0.176c-0.928-1.158-0.945-0.5-1.229-0.174"/>
			</g>
			<g>
				<path fill="#006946" d="M250.229,242.896c-0.283,0.326-0.557,0.323-0.697,0.488c0.281-0.326,0.708-0.818,0.85-0.982
					c-0.689,0.162-1.113,0.65-1.681,1.307c-0.151,0.492,0.272,0,0.403,0.166"/>
			</g>
			<g>
				<path fill="#006946" d="M230.904,248.039c-0.567,0.654-1.276,1.472-1.568,2.128c1.096,0.008,1.794-0.481,1.823-1.47
					c-0.416,0.162-0.558,0.326-0.974,0.488"/>
			</g>
			<g>
				<path fill="#006946" d="M258.755,227.322c0.113,0.824,0.651,1.156,1.492,0.504C259.869,226.672,259.443,227.163,258.755,227.322
					"/>
			</g>
			<g>
				<path fill="#006946" d="M252.15,228.27c-0.141,0.164-0.557,0.325-0.696,0.488l0.121,0.496c0.274,0,0.559-0.327,0.831-0.326
					c-0.131-0.166-0.803-0.662-0.813-0.332"/>
			</g>
			<g>
				<path fill="#006946" d="M248.173,223.64c-2.626,0.806,0.738,2.965-0.274-0.003"/>
			</g>
			<g>
				<path fill="#006946" d="M257.999,258.732c-0.558,0.326-0.981,0.816-1.406,1.309c1.089,0.336,1.796-0.482,0.99-1.145"/>
			</g>
			<g>
				<path fill="#006946" d="M256.516,253.133c0.265,0.33-0.027,0.986,1.086,0.335c-0.112-0.823-0.396-0.495-0.804-0.663"/>
			</g>
			<g>
				<path fill="#006946" d="M254.552,254.764c-0.653-1.154-1.862-1.983-2.977-1.332c0.528,0.66,0.67,0.495,1.35,0.664
					c0.151-0.492,0.021-0.656,0.029-0.986"/>
			</g>
			<g>
				<path fill="#006946" d="M252.15,286.165c-0.68-0.169-1.086-0.336-1.651,0.317c0.937,0.83,1.769,0.506,1.938-0.646
					c-0.269-0.332-0.408-0.168-0.684-0.169"/>
			</g>
			<g>
				<path fill="#006946" d="M251.532,269.385c0.133,0.164-0.152,0.492,0.112,0.824c0.416-0.164,0.285-0.328,0.426-0.492
					c0.011-0.328-0.396-0.494-0.396-0.494"/>
			</g>
		</g>
		<g>
			<g>
				<path fill="#006946" d="M263.116,244.55c-0.788-0.995-2.25-1.003-3.363-0.263c0.498,1.238,2.502,2.24,3.315,0.51"/>
			</g>
			<g>
				<path fill="#006946" d="M269.02,252.009c-1.125-0.501-2.586-0.507-3.109,0.978c1.123,0.502,2.342,0.507,3.063-0.729"/>
			</g>
			<g>
				<path fill="#006946" d="M277.979,239.411c0.094-0.496-0.302-0.992-1.322-0.749c-2.91,1.225,1.49,3.724,1.08,0.748"/>
			</g>
			<g>
				<path fill="#006946" d="M261.757,238.845c-0.687-0.251-3.024-0.757-3.504,0.479c-0.43,0.988,2.745,2.242,2.97-0.234"/>
			</g>
			<g>
				<path fill="#006946" d="M239.507,245.686c0.034-1.486-1.481-2.485-2.651-2.738c-0.907,2.226,2.369,4.223,2.932,1.254"/>
			</g>
			<g>
				<path fill="#006946" d="M262.916,262.389c-4.439-1.012-0.991,3.961-0.339,0.495"/>
			</g>
			<g>
				<path fill="#006946" d="M273.309,258.967c-3.998-0.763-1.232,3.959-0.775,0.243"/>
			</g>
			<g>
				<path fill="#006946" d="M239.745,257.33c-1.097,3.217,3.651,0.016-0.199-0.248"/>
			</g>
			<g>
				<path fill="#006946" d="M243.408,265.029c-0.348-0.746-0.786-0.996-1.854-0.504c0.055,0.99,0.494,1.24,1.469,1.244
					c0.675-0.988,0.281-1.484-0.309-2.231"/>
			</g>
			<g>
				<path fill="#006946" d="M249.282,244.241c-0.685-0.251-1.646,0.983-1.593,1.974c1.22,0.006,1.603-0.736,1.351-1.976"/>
			</g>
			<g>
				<path fill="#006946" d="M243.243,243.966c-0.92,0.987-1.396,2.224-0.806,2.97C243.6,245.949,244.318,244.715,243.243,243.966"/>
			</g>
			<g>
				<path fill="#006946" d="M241.861,235.781c0.385-0.741,0.328-1.732-0.02-2.479c-0.73-0.002-0.73-0.002-1.313,0.491
					c0.5,1.24,1.031,0.994,1.266-0.242"/>
			</g>
			<g>
				<path fill="#006946" d="M263.643,224.977c-0.638-0.5-1.563-0.75-2.388-0.259c0.543,0.993,1.761,1,1.75-0.241"/>
			</g>
			<g>
				<path fill="#006946" d="M265.92,229.693c-0.395-0.496-0.056-0.99-1.122-0.498c0.347,0.742,0.147,0.494,1.028,0.994
					c0.581-0.494,0.14-0.744,0.188-0.991"/>
			</g>
			<g>
				<path fill="#006946" d="M246.325,276.688c-0.104-0.744,0.233-1.237-0.402-1.735c-0.432,0.987-0.235,1.239,0.063,2.229
					c0.918-0.985,1.152-2.227,0.363-3.219c-0.729-0.004-0.289,0.246-0.336,0.494"/>
			</g>
			<g>
				<path fill="#006946" d="M221.751,254.527c-0.484-0.004-0.777,0.242-1.264,0.24c1.032,0.996,1.078,0.748,1.555-0.488"/>
			</g>
			<g>
				<path fill="#006946" d="M223.746,254.285c-0.14,0.744-0.281,1.486,0.403,1.736c0,0,0,0,0.291-0.246
					c0.094-0.494-0.15-0.495-0.299-0.991"/>
			</g>
			<g>
				<path fill="#006946" d="M230.977,250.85c-0.385,0.742-0.918,0.987,0.207,1.489c0.141-0.743-0.012-1.241,0.188-0.991"/>
			</g>
			<g>
				<path fill="#006946" d="M232.241,257.05c-0.289,0.245-0.974-0.004-0.384,0.741c0.047-0.246,0.431-0.989,0.095-0.496"/>
			</g>
			<g>
				<path fill="#006946" d="M233.827,266.721c-0.777,0.244-1.556,0.489-2.134,0.982c0.927,0.251,1.02-0.244,1.601-0.737"/>
			</g>
			<g>
				<path fill="#006946" d="M227.573,270.162c0.103,0.744,0.252,1.24,0.937,1.49c0.328-1.732-0.253-1.24-0.738-1.242"/>
			</g>
			<g>
				<path fill="#006946" d="M255.409,249.223c-0.486-0.003-0.685-0.25-0.929-0.252c0.488,0.002,1.22,0.006,1.463,0.008
					c-0.639-0.5-1.367-0.504-2.344-0.508c-0.533,0.246,0.197,0.25,0.151,0.498"/>
			</g>
			<g>
				<path fill="#006946" d="M236.992,235.761c-0.975-0.005-2.19-0.01-2.971,0.235c0.789,0.994,1.715,1.245,2.588,0.508
					c-0.441-0.251-0.686-0.251-1.125-0.501"/>
			</g>
			<g>
				<path fill="#006946" d="M275.001,244.85c-0.627,0.739-0.522,1.482,0.646,1.736C276.368,245.352,275.639,245.348,275.001,244.85"
					/>
			</g>
			<g>
				<path fill="#006946" d="M269.407,239.62c-0.242,0-0.685-0.249-0.929-0.251l-0.336,0.494c0.197,0.248,0.684,0.251,0.881,0.5
					c0.045-0.247-0.01-1.239-0.301-0.992"/>
			</g>
			<g>
				<path fill="#006946" d="M270.521,232.439c-2.597-1.746-2.023,2.965-0.199-0.248"/>
			</g>
			<g>
				<path fill="#006946" d="M247.38,268.514c-0.685-0.25-1.414-0.254-2.146-0.256c0.496,1.24,1.716,1.245,1.705,0.008"/>
			</g>
			<g>
				<path fill="#006946" d="M251.134,262.833c-0.093,0.494-0.87,0.739,0.497,1.24c0.628-0.739,0.141-0.743-0.011-1.239"/>
			</g>
			<g>
				<path fill="#006946" d="M248.307,262.325c0.522-1.485,0.362-3.222-1.005-3.722c-0.186,0.989,0.058,0.989,0.403,1.735
					c0.533-0.246,0.581-0.491,0.872-0.739"/>
			</g>
			<g>
				<path fill="#006946" d="M257.534,271.532c-1.854-0.503-2.66,2.468-0.711,2.477c0.72-1.237,0.233-1.239-0.255-1.241"/>
			</g>
			<g>
				<path fill="#006946" d="M233.288,278.613c-0.59-0.748-1.424-1.494-2.062-1.994c-0.522,1.486,0.356,1.984,1.715,1.248
					c0.093-0.496-0.15-0.498-0.348-0.745"/>
			</g>
			<g>
				<path fill="#006946" d="M236.716,274.662c-0.243,0-0.928-0.252-1.555,0.49c0.739,1.242,1.854,0.502,1.601-0.738"/>
			</g>
			<g>
				<path fill="#006946" d="M233.521,270.932c-0.047,0.248-0.535,0.246-0.627,0.741c0.438,0.249,0.485,0.003,0.729,0.003
					c0.289-0.246,0.14-0.742,0.14-0.742"/>
			</g>
		</g>
		<g opacity="0.5">
			<g>
				<path fill="#C1D677" d="M233.15,256.284c-0.069,1.522,0.828,2.632,1.933,2.782c0.388-1.533-0.293-3.98-1.767-2.979"/>
			</g>
			<g>
				<path fill="#C1D677" d="M233.678,244.861c0.415,1.315,1.314,2.426,2.471,1.434c-0.414-1.314-1.164-2.24-2.303-1.63"/>
			</g>
			<g>
				<path fill="#C1D677" d="M221.086,249.867c-0.335,0.391-0.369,1.152,0.397,1.697c2.486,1.052,1.164-4.604-0.247-1.515"/>
			</g>
			<g>
				<path fill="#C1D677" d="M230.796,262.639c0.283,0.75,1.447,2.991,2.437,2.194c0.819-0.597-0.441-4.167-1.969-2.021"/>
			</g>
			<g>
				<path fill="#C1D677" d="M248.382,273.044c-0.854,1.358-0.478,3.438,0.104,4.558c1.81-1.395,0.899-5.733-1.11-3.381"/>
			</g>
			<g>
				<path fill="#C1D677" d="M243.264,239.771c2.178,4.295,2.829-2.951,0.484-0.209"/>
			</g>
			<g>
				<path fill="#C1D677" d="M234.921,235.123c2.047,3.729,2.979-2.766,0.617,0.359"/>
			</g>
			<g>
				<path fill="#C1D677" d="M254.755,261.986c2.479-2.18-2.249-2.773-0.017,0.379"/>
			</g>
			<g>
				<path fill="#C1D677" d="M256.8,252.029c-0.202,0.957-0.069,1.522,0.865,1.869c0.519-0.969,0.387-1.533-0.212-2.271
					c-0.973,0.413-1.006,1.176-1.061,2.316"/>
			</g>
			<g>
				<path fill="#C1D677" d="M241.529,267.012c0.281,0.752,1.568,0.326,2.089-0.642c-0.748-0.925-1.401-0.522-1.938,0.827"/>
			</g>
			<g>
				<path fill="#C1D677" d="M245.107,271.828c1.121-0.229,2.107-1.023,2.162-2.166C245.999,269.706,244.861,270.314,245.107,271.828
					"/>
			</g>
			<g>
				<path fill="#C1D677" d="M241.38,280.516c-0.651,0.4-1.172,1.369-1.374,2.326c0.45,0.555,0.45,0.555,1.085,0.531
					c0.388-1.533-0.079-1.706-0.918-0.727"/>
			</g>
			<g>
				<path fill="#C1D677" d="M221.866,274.168c0.115,0.947,0.548,1.881,1.331,2.045c0.222-1.339-0.529-2.264-1.216-1.098"/>
			</g>
			<g>
				<path fill="#C1D677" d="M223.101,268.042c-0.035,0.763-0.52,0.97,0.414,1.315c0.201-0.957,0.186-0.576-0.078-1.707
					c-0.637,0.021-0.505,0.588-0.673,0.783"/>
			</g>
			<g>
				<path fill="#C1D677" d="M261.523,238.938c-0.353,0.773-0.836,0.979-0.723,1.926c0.82-0.598,0.838-0.98,1.208-2.133
					c-1.12,0.229-1.958,1.209-2.026,2.732c0.449,0.555,0.314-0.013,0.482-0.208"/>
			</g>
			<g>
				<path fill="#C1D677" d="M264.307,278.184c0.301,0.369,0.618,0.36,0.92,0.729c-0.082-1.708-0.248-1.512-1.236-0.715"/>
			</g>
			<g>
				<path fill="#C1D677" d="M262.939,276.902c0.502-0.588,1.006-1.176,0.724-1.926c0,0,0,0-0.317,0.01
					c-0.335,0.393-0.185,0.578-0.369,1.152"/>
			</g>
			<g>
				<path fill="#C1D677" d="M256.548,274.657c0.652-0.405,1.119-0.229,0.703-1.546c-0.502,0.587-0.688,1.164-0.67,0.783"/>
			</g>
			<g>
				<path fill="#C1D677" d="M259.234,267.909c0.316-0.011,0.601,0.739,0.654-0.404c-0.17,0.198-0.82,0.601-0.338,0.394"/>
			</g>
			<g>
				<path fill="#C1D677" d="M263.669,257.68c0.619,0.358,1.235,0.717,1.869,0.693c-0.431-0.936-0.769-0.541-1.402-0.52"/>
			</g>
			<g>
				<path fill="#C1D677" d="M269.464,259.186c0.354-0.772,0.537-1.35,0.257-2.1c-1.175,1.371-0.539,1.348-0.238,1.719"/>
			</g>
			<g>
				<path fill="#C1D677" d="M240.529,257.736c0.301,0.369,0.283,0.748,0.434,0.932c-0.3-0.369-0.749-0.922-0.898-1.107
					c0.115,0.945,0.563,1.502,1.164,2.24c0.469,0.174,0.02-0.381,0.186-0.576"/>
			</g>
			<g>
				<path fill="#C1D677" d="M244.379,284.209c0.602,0.738,1.35,1.664,1.967,2.021c0.071-1.523-0.361-2.457-1.313-2.426
					c0.134,0.565,0.284,0.75,0.415,1.317"/>
			</g>
			<g>
				<path fill="#C1D677" d="M225.973,247.033c0.803-0.219,1.153-0.99,0.572-2.111C225.407,245.533,225.855,246.087,225.973,247.033"
					/>
			</g>
			<g>
				<path fill="#C1D677" d="M226.501,256.139c0.149,0.186,0.283,0.748,0.433,0.936l0.485-0.206c0.019-0.384-0.283-0.752-0.267-1.132
					c-0.166,0.195-0.687,1.164-0.368,1.15"/>
			</g>
			<g>
				<path fill="#C1D677" d="M221.795,262.006c0.624,3.589,2.909-1.242-0.019,0.38"/>
			</g>
			<g>
				<path fill="#C1D677" d="M256.296,245.775c0.282,0.75,0.731,1.305,1.183,1.857c0.389-1.535-0.361-2.458-1.051-1.292"/>
			</g>
			<g>
				<path fill="#C1D677" d="M250.794,248.25c0.335-0.393,0.953-0.035,0.388-1.535c-0.804,0.219-0.502,0.588-0.688,1.164"/>
			</g>
			<g>
				<path fill="#C1D677" d="M252.258,250.859c-1.154,0.99-2.025,2.731-1.462,4.231c0.669-0.784,0.521-0.97,0.724-1.926
					c-0.468-0.173-0.637,0.021-0.953,0.034"/>
			</g>
			<g>
				<path fill="#C1D677" d="M251.708,235.293c0.865,1.869,3.026-0.298,1.826-1.775c-1.14,0.61-0.839,0.98-0.538,1.349"/>
			</g>
			<g>
				<path fill="#C1D677" d="M282.479,251.885c-0.203,0.957-0.39,1.535,0.211,2.273c0.854-1.361,0.59-2.492-0.51-2.643
					c-0.337,0.393-0.187,0.576-0.203,0.955"/>
			</g>
			<g>
				<path fill="#C1D677" d="M270.659,246.979c-0.052,1.143,0.047,2.471,0.159,3.416c1.154-0.99,0.892-2.121-0.36-2.459
					c-0.336,0.395-0.187,0.578-0.203,0.957"/>
			</g>
			<g>
				<path fill="#C1D677" d="M266.331,248.082c0.149,0.186,0.435,0.936,1.233,0.717c0.24-1.72-0.862-1.871-1.4-0.521"/>
			</g>
			<g>
				<path fill="#C1D677" d="M266.218,253.979c0.168-0.194,0.468,0.174,0.804-0.219c-0.133-0.566-0.301-0.369-0.451-0.555
					c-0.316,0.012-0.502,0.588-0.502,0.588"/>
			</g>
		</g>
		<g>
			<g opacity="0.5">
				<path fill="#C1D677" d="M244.591,263.962c-0.655,0.845-1.004,1.673-0.424,2.44c1.254-0.48,1.92-1.525,0.396-1.834"/>
			</g>
			<g opacity="0.5">
				<path fill="#C1D677" d="M245.018,261.521c-0.599-0.364-1.216-0.328-1.187-0.935c0.31-0.021,1.545-0.094,0.617-0.037"/>
			</g>
			<g opacity="0.5">
				<path fill="#C1D677" d="M250.643,253.33c0.291,0.385,0.58,0.77,0.881,0.951c2.197-0.939,1.021-2.074-0.861-1.355"/>
			</g>
			<g opacity="0.5">
				<path fill="#C1D677" d="M249.689,247.555c0.02-0.404,0.039-0.809,0.05-1.01c-0.03,0.605,0.27,0.789,0.567,0.971
					c1.264-0.682,0.35-0.826-0.559-1.174"/>
			</g>
			<g opacity="0.5">
				<path fill="#C1D677" d="M249.364,241.537c-0.013,0.201-0.328,0.424-0.339,0.624c2.181-0.536,0.387-1.634-1.474-1.317"/>
			</g>
			<g opacity="0.5">
				<path fill="#C1D677" d="M240.395,242.489c-0.328,0.423-0.656,0.847-0.687,1.45c2.17-0.334,1.603-1.306,0.049-1.008"/>
			</g>
			<g opacity="0.5">
				<path fill="#C1D677" d="M231.536,247.459c-0.954,0.662-1.62,1.709-1.341,2.296c1.582-0.901,1.304-1.487,0.378-1.433"/>
			</g>
			<g opacity="0.5">
				<path fill="#C1D677" d="M225.585,249.635c0.289,0.387-0.336,0.624,0.261,0.992c0.348-0.827-0.579-0.77-0.579-0.77"/>
			</g>
			<g opacity="0.5">
				<path fill="#C1D677" d="M240.703,236.033c-0.314,0.221-0.915-0.145-0.954,0.66c0.317-0.219,0.954-0.66,1.263-0.68
					c-0.309,0.02-1.521-0.312-0.926,0.059"/>
			</g>
			<g opacity="0.5">
				<path fill="#C1D677" d="M249.098,234.311c-0.021,0.404-0.656,0.847,0.567,0.973l0.019-0.403
					c-0.605-0.164-0.298-0.185-0.308,0.021"/>
			</g>
			<g opacity="0.5">
				<path fill="#C1D677" d="M255.771,229.877c0,0-0.336,0.624,0.897,0.549c-0.89-0.752-1.534-0.105-1.534-0.105"/>
			</g>
			<g opacity="0.5">
				<path fill="#C1D677" d="M273.354,235.438c0.279,0.586,0.252,1.191,1.156,1.539c0.348-0.824,0.051-1.01-0.23-1.597
					c-0.317,0.222-0.02,0.403-0.338,0.626"/>
			</g>
			<g opacity="0.5">
				<path fill="#C1D677" d="M268.898,232.09c0.547,1.377,2.422,0.857,1.863-0.314c-0.32,0.222-0.639,0.441-0.957,0.66"/>
			</g>
			<g opacity="0.5">
				<path fill="#C1D677" d="M279.861,247.313c-0.301-0.184,2.142,0.272,2.449,0.252c0.357-1.027-0.83-1.961-1.785-1.299"/>
			</g>
			<g opacity="0.5">
				<path fill="#C1D677" d="M288.118,248.416c0.278,0.586,0.26,0.99,1.166,1.338C289.95,248.706,289.384,247.734,288.118,248.416"/>
			</g>
			<g opacity="0.5">
				<path fill="#C1D677" d="M257.979,267.166c0.879,0.951,2.699,1.443,3.365,0.395c-1.205-0.526-2.141-0.27-3.105,0.596"/>
			</g>
			<g opacity="0.5">
				<path fill="#C1D677" d="M254.861,274.396c-0.348,0.828,1.166,1.338,2.729,0.84c-0.896-0.547-1.833-0.289-2.785,0.371"/>
			</g>
			<g opacity="0.5">
				<path fill="#C1D677" d="M273.605,262.184c-0.028,0.604-0.059,1.211-0.078,1.612c0.599,0.367,0.312-0.019,0.927-0.056"/>
			</g>
			<g opacity="0.5">
				<path fill="#C1D677" d="M280.909,257.511c0.588,0.566,0.858,1.355,0.512,2.181c-2.461-0.049-3.019-1.223-0.817-2.162"/>
			</g>
			<g opacity="0.5">
				<path fill="#C1D677" d="M279.214,254.395c-0.928,0.058-1.555,0.297-2.479,0.354c-0.31,0.021-0.316,0.221-0.316,0.221
					c1.213,0.329,1.533,0.107,2.77,0.03c0.037-0.806-0.58-0.769-1.805-0.896"/>
			</g>
			<g opacity="0.5">
				<path fill="#C1D677" d="M265.035,254.861c-0.03,0.604-0.038,0.808,0.558,1.173c1.572-0.699,1.939-1.929,0.089-1.815"/>
			</g>
			<g opacity="0.5">
				<path fill="#C1D677" d="M227.792,261.371c0.287,0.383,0.276,0.586,0.577,0.77c0.357-1.029-0.241-1.395-1.794-1.098"/>
			</g>
			<g opacity="0.5">
				<path fill="#C1D677" d="M220.389,268.061c0.279,0.59,0.868,1.156,2.094,1.281c0.665-1.047,0.058-1.211-1.495-0.914"/>
			</g>
			<g opacity="0.5">
				<path fill="#C1D677" d="M228.975,268.742"/>
			</g>
			<g opacity="0.5">
				<path fill="#C1D677" d="M228.327,269.387"/>
			</g>
			<g opacity="0.5">
				<path fill="#C1D677" d="M235.169,261.521c0.297,0.184,0.279,0.588,1.205,0.529c0.676-1.248-0.53-1.777-2.11-0.876"/>
			</g>
			<g opacity="0.5">
				<path fill="#C1D677" d="M235.275,252.863c-0.645,0.643-0.684,1.451-0.713,2.056c1.254-0.479,1.293-1.286,0.406-2.036
					c-0.607-0.164-0.318,0.221-0.627,0.239"/>
			</g>
			<g opacity="0.5">
				<path fill="#C1D677" d="M248.74,228.898c1.226,0.127,1.833,0.291,2.189-0.735c-1.213-0.329-0.936,0.257-1.563,0.497"/>
			</g>
			<g opacity="0.5">
				<path fill="#C1D677" d="M258.417,226.094c0.577,0.771,2.431,0.655,3.692-0.025c-1.223-0.127-2.457-0.049-3.713,0.431"/>
			</g>
		</g>
	</g>
	<g>
		<g>
			<path fill="#FB9642" d="M140.043,186.699c-1.48,9.92-3.701,19.844-2.22,30.526c2.22,16.792,18.463,28.489,34.75,30.778
				c39.233,5.345,69.862-43.49,38.772-73.254c-9.625-9.16-27.876-14.426-41.942-11.373c-8.882,1.527-27.879,15.688-29.359,24.848"/>
		</g>
		<g>
			<g>
				<path fill="#83471F" d="M208.403,177.225c-9.331-8.951-26.559-17.156-40.195-14.172c-8.614,1.492-26.669,14.035-30.047,24.195
					c-3.378,10.159-3.688,18.32-2.252,28.762c2.154,16.41,18.662,29.838,34.453,32.074
					C208.403,253.305,238.55,206.313,208.403,177.225z M166.719,179.316c-0.226,1.172-0.902,1.407-1.58,0.938
					C165.591,179.551,165.591,178.848,166.719,179.316z M166.493,206.291c-0.902,0.234-2.031-0.469-1.804-1.174v0.235
					C165.817,204.883,166.493,205.117,166.493,206.291z M164.914,191.748h0.226c1.58,0.47,0.678,2.578-0.45,3.282
					C164.011,194.094,164.011,192.686,164.914,191.748z M146.857,197.143c-0.315-0.49-0.297-1.091-0.107-1.651
					c-0.042,0.007-0.073,0-0.119,0.009l0.451-0.702c-0.136,0.213-0.25,0.45-0.332,0.693
					C147.747,195.371,147.723,196.467,146.857,197.143z M150.918,192.921c-0.451-0.938,0-0.703,0.454-1.173h-0.454
					c0.226,0,0.454-0.47,0.905,0C151.372,192.686,151.595,192.451,150.918,192.921z M153.713,187.094
					c-0.028-0.012-0.055-0.023-0.086-0.037l0.227-0.234C153.799,186.918,153.753,187.009,153.713,187.094
					C156.374,188.22,152.571,189.515,153.713,187.094z M155.208,215.438c-0.451-0.469-0.451-0.469-0.451-1.171
					c0.676-0.47,1.579-0.704,2.257-0.47l-2.033,0.47C156.111,214.267,156.336,214.735,155.208,215.438z M157.239,221.303
					c-0.225-0.704-0.225-1.876-0.225-2.816l0.225,1.409c0.226-0.469,0.226-0.704,0.452-1.173
					C158.369,219.427,158.142,220.364,157.239,221.303z M160.173,197.378c-1.129-0.235-0.676-2.58-0.451-3.284l0.225,0.469
					C162.205,194.326,161.076,197.611,160.173,197.378z M161.076,186.822c-0.225,0.234-0.225,0.701-0.45,0.938l-0.452-0.238
					c0-0.117,0.059-0.297,0.116-0.476c-0.02,0.011-0.032,0.022-0.048,0.034l-0.067,0.208c-0.07-0.072-0.024-0.143,0.067-0.208
					l0.158-0.494c0,0.115-0.055,0.287-0.109,0.46C160.516,186.918,160.932,186.822,161.076,186.822z M159.497,179.787
					c-0.225-0.939,0.226-1.41,0.676-1.41v0.235C162.882,177.674,160.625,182.365,159.497,179.787z M163.558,217.314
					c0.196-1.017,0.903-2.381,1.969-2.881c-0.209-0.104-0.482-0.167-0.838-0.167h1.354c-0.18,0.031-0.352,0.089-0.516,0.167
					C166.916,215.123,165.324,217.723,163.558,217.314z M164.462,210.982c0.677-1.174,1.805-0.705,2.708,0.233
					C166.493,211.92,165.366,211.686,164.462,210.982z M168.976,199.959c-0.225,0-0.225,0.703-0.451,0.232
					c0-0.938,0-1.641,0.451-2.346c0,0.235,0,0.939,0,1.408c0-0.166,0.111-0.336,0.176-0.586l0.05-0.353
					c0,0.139-0.021,0.251-0.05,0.353L168.976,199.959z M170.781,221.537l0.453-0.469c-0.226,0.234,0.226,0,0.903,0
					C171.685,222.24,171.459,221.771,170.781,221.537z M172.588,187.523c-1.354-0.233-1.354-1.639-0.903-2.813h0.226
					C173.04,185.182,173.04,186.354,172.588,187.523z M174.394,230.919c0-0.47-0.226-0.704-0.226-1.171l-0.226-0.236
					C175.07,229.748,175.297,229.748,174.394,230.919z M173.943,227.87l0.451-0.47c0.452-0.234,0.452-0.469,0.903-0.469
					c0.224,0.233,0.224,0.233,0.224,0.233C175.297,227.87,174.618,227.87,173.943,227.87z M178.004,179.316l0.227,0.704
					C181.618,179.787,177.328,183.303,178.004,179.316z M176.5,219.33c0.001-0.002,0-0.002,0-0.004
					c-0.019-0.051-0.04-0.1-0.076-0.135l0.13,0.135c0.12,0.018,0.412,0.101,0.548,0.101
					C176.529,220.021,176.601,219.612,176.5,219.33z M176.651,211.92l-0.226,0.234C176.651,208.4,179.585,212.389,176.651,211.92z
					 M179.359,203.71c-0.676,0.47-0.676,0.704-1.581,0.704c0.188-0.586,0.577-0.998,1.057-1.276
					c-0.051-0.038-0.102-0.078-0.152-0.131l0.508-0.048c0.608-0.244,1.317-0.301,1.973-0.188l-1.973,0.188
					c-0.125,0.05-0.242,0.113-0.356,0.179C179.01,203.265,179.185,203.348,179.359,203.71z M181.165,188.698l0.453,0.235
					C184.776,188.934,180.261,193.155,181.165,188.698z M181.618,199.959v-0.471c0.451-0.234,0.451-0.703,1.127-0.234
					C182.294,200.662,182.068,199.959,181.618,199.959z M183.196,208.871c-0.433-0.9-0.238-1.367,0.376-1.819
					c-0.004,0-0.006,0.002-0.008,0.002l-1.271,0.88c0.457-0.476,0.813-0.835,1.271-0.88l0.083-0.059
					c-0.027,0.019-0.049,0.037-0.075,0.057c0.221-0.021,0.461,0.026,0.753,0.178C184.325,208.168,184.099,208.636,183.196,208.871z
					 M186.13,217.783c-0.45-0.469-0.677-1.172-0.901-1.875l0.225,0.469C185.904,216.846,186.356,216.846,186.13,217.783z
					 M186.583,204.648c0-0.55,0.003-1.1,0.111-1.648c-0.04,0.003-0.069-0.002-0.111,0.007l0.225-0.47
					c-0.049,0.153-0.084,0.309-0.114,0.463C187.698,202.872,187.669,203.972,186.583,204.648z M188.389,221.303l0.226-0.234
					c0-0.47-0.453-0.938,1.129-0.938C189.517,220.834,189.064,221.068,188.389,221.303z M189.743,215.908
					c-0.453,0-0.453-0.471-0.679-0.471v-0.233c0,0,0.453-0.235,0.679,0C189.743,215.438,189.968,215.438,189.743,215.908z
					 M189.517,192.218l1.128,0.703c0-0.47,0-0.938,1.129-0.47C191.774,194.326,189.064,194.094,189.517,192.218z M191.774,202.537
					c0.903-0.938,2.03-0.938,2.934-0.233c-0.903,0.468-1.128,0.703-2.031,0.468c0.054-0.083,0.109-0.153,0.161-0.213l-0.612,0.213
					C191.999,202.771,191.774,203.24,191.774,202.537z M192.902,213.092c-0.676-0.468-0.451-1.172-0.451-1.406h-0.225
					C193.354,211.216,194.031,212.154,192.902,213.092z M194.255,216.611c0.322-0.499,0.757-1.112,1.222-1.68
					c-0.031-0.065-0.054-0.129-0.093-0.196l-0.677,0.469c0.228-0.235,0.228-0.469,0.677-0.469l0,0l0.678-0.469
					c-0.197,0.204-0.393,0.433-0.585,0.665C195.994,216.008,195.533,216.831,194.255,216.611z M200.35,228.105
					c0-0.939,0.453-1.174,1.129-1.644h-0.677c0.226-0.233,0.226-0.469,0.677-0.469C202.157,226.932,201.706,227.87,200.35,228.105z"
					/>
			</g>
		</g>
		<g>
			<g>
				<path fill="#492613" d="M170.497,226.584c1.611,0.359,3.129-0.572,3.69-1.926c-1.509-0.757-4.383-0.342-3.84,1.682"/>
			</g>
			<g>
				<path fill="#492613" d="M158.413,223.893c1.565-0.284,3.082-1.213,2.435-2.836c-1.565,0.285-2.827,1.06-2.584,2.592"/>
			</g>
			<g>
				<path fill="#492613" d="M159.235,240.555c0.301,0.491,1.107,0.67,1.967-0.193c2.031-2.93-4.525-2.274-1.713,0.039"/>
			</g>
			<g>
				<path fill="#492613" d="M176.476,230.662c0.909-0.221,3.736-1.281,3.24-2.659c-0.347-1.133-4.638-0.188-2.885,2.104"/>
			</g>
			<g>
				<path fill="#492613" d="M194.019,210.482c1.151,1.313,3.522,1.209,4.935,0.678c-0.843-2.512-5.835-2.146-4.034,0.791"/>
			</g>
			<g>
				<path fill="#492613" d="M156.413,210.983c5.404-1.967-2.147-4.069-0.048-0.646"/>
			</g>
			<g>
				<path fill="#492613" d="M148.399,220.606c4.748-1.899-1.893-4.224,0.608-0.711"/>
			</g>
			<g>
				<path fill="#492613" d="M184.44,200.535c-1.442-3.492-3.793,2.324,0.405,0.088"/>
			</g>
			<g>
				<path fill="#492613" d="M174.482,196.202c0.955,0.425,1.612,0.36,2.322-0.749c-0.852-0.822-1.507-0.758-2.521-0.139
					c0.095,1.289,0.902,1.468,2.109,1.736"/>
			</g>
			<g>
				<path fill="#492613" d="M185.06,217.994c0.908-0.219,0.917-1.908,0.064-2.73c-1.266,0.774-1.067,1.664,0.188,2.576"/>
			</g>
			<g>
				<path fill="#492613" d="M191.529,214.365c0.158-1.443-0.338-2.822-1.547-3.09C189.571,212.874,189.815,214.408,191.529,214.365"
					/>
			</g>
			<g>
				<path fill="#492613" d="M199.513,220.579c0.195,0.89,1.049,1.714,2.005,2.138c0.759-0.465,0.759-0.465,0.965-1.265
					c-1.509-0.758-1.865-0.202-1.114,1.02"/>
			</g>
			<g>
				<path fill="#492613" d="M185.632,243.898c1.058,0.024,2.22-0.351,2.678-1.306c-1.358-0.514-2.623,0.263-1.62,1.33"/>
			</g>
			<g>
				<path fill="#492613" d="M179.497,241.264c0.805,0.183,0.852,0.824,1.563-0.283c-0.955-0.426-0.552-0.334-1.864-0.205
					c-0.205,0.8,0.449,0.734,0.601,0.979"/>
			</g>
			<g>
				<path fill="#492613" d="M162.125,187.959c0.702,0.578,0.748,1.223,1.807,1.248c-0.347-1.135-0.75-1.225-1.854-1.895
					c-0.161,1.443,0.592,2.668,2.201,3.027c0.759-0.465,0.104-0.398-0.046-0.645"/>
			</g>
			<g>
				<path fill="#492613" d="M205.306,191.447c0.506-0.312,0.608-0.71,1.114-1.021c-1.864-0.203-1.714,0.041-1.218,1.419"/>
			</g>
			<g>
				<path fill="#492613" d="M203.433,192.932c-0.449-0.734-0.899-1.469-1.808-1.25c0,0,0,0-0.103,0.401
					c0.299,0.489,0.553,0.335,1.105,0.669"/>
			</g>
			<g>
				<path fill="#492613" d="M198.706,200.541c-0.196-0.889,0.16-1.444-1.405-1.158c0.451,0.733,1.002,1.068,0.6,0.979"/>
			</g>
			<g>
				<path fill="#492613" d="M192.428,195.973c0.104-0.397,1.011-0.619-0.197-0.887c0.15,0.244,0.348,1.133,0.301,0.489"/>
			</g>
			<g>
				<path fill="#492613" d="M183.04,188.602c0.609-0.709,1.218-1.419,1.424-2.219c-1.164,0.376-0.863,0.865-1.069,1.666"/>
			</g>
			<g>
				<path fill="#492613" d="M186.755,181.611c-0.702-0.58-1.255-0.912-2.164-0.693c1.05,1.713,1.257,0.914,1.762,0.604"/>
			</g>
			<g>
				<path fill="#492613" d="M174.727,217.598c0.506-0.31,0.909-0.222,1.162-0.376c-0.505,0.31-1.264,0.774-1.518,0.929
					c1.059,0.025,1.817-0.439,2.83-1.06c0.355-0.556-0.405-0.09-0.552-0.335"/>
			</g>
			<g>
				<path fill="#492613" d="M204.569,217.48c1.012-0.619,2.275-1.395,2.883-2.104c-1.611-0.359-2.771,0.017-3.081,1.215
					c0.656-0.064,0.909-0.219,1.566-0.284"/>
			</g>
			<g>
				<path fill="#492613" d="M157.96,233.934c0.055-1.043-0.648-1.623-2.062-1.093C156.143,234.374,156.901,233.908,157.96,233.934"
					/>
			</g>
			<g>
				<path fill="#492613" d="M167.936,234.889c0.251-0.156,0.908-0.221,1.161-0.377l-0.046-0.644c-0.405-0.091-0.909,0.22-1.313,0.13
					c0.151,0.244,1.002,1.068,1.106,0.67"/>
			</g>
			<g>
				<path fill="#492613" d="M172.537,241.828c4.084-0.146-0.283-3.867,0.403,0.09"/>
			</g>
			<g>
				<path fill="#492613" d="M167.58,195.722c0.908-0.22,1.667-0.685,2.425-1.149c-1.509-0.76-2.774,0.016-1.771,1.086"/>
			</g>
			<g>
				<path fill="#492613" d="M168.248,203.055c-0.299-0.488,0.309-1.199-1.508-0.759c-0.056,1.044,0.45,0.733,1.002,1.067"/>
			</g>
			<g>
				<path fill="#492613" d="M171.582,201.685c0.648,1.624,2.202,3.025,4.018,2.585c-0.598-0.979-0.851-0.824-1.805-1.248
					c-0.357,0.557-0.208,0.799-0.311,1.199"/>
			</g>
			<g>
				<path fill="#492613" d="M154.656,199.607c2.321-0.754,0.774-3.844-1.249-2.604c0.245,1.533,0.75,1.223,1.256,0.914"/>
			</g>
			<g>
				<path fill="#492613" d="M182.115,168.951c0.955,0.426,1.508,0.759,2.519,0.14c-1.151-1.313-2.462-1.183-3.024,0.17
					c0.299,0.49,0.552,0.337,0.956,0.425"/>
			</g>
			<g>
				<path fill="#492613" d="M174.072,177.942c1.208,0.269,2.67,0.382,3.728,0.407c-0.647-1.623-1.959-1.492-2.773,0.016
					c0.301,0.49,0.553,0.336,0.956,0.424"/>
			</g>
			<g>
				<path fill="#492613" d="M173.689,183.561c0.253-0.154,1.162-0.374,1.217-1.418c-1.761-0.604-2.322,0.75-1.066,1.662"/>
			</g>
			<g>
				<path fill="#492613" d="M179.985,184.75c-0.151-0.244,0.355-0.553,0.056-1.042c-0.657,0.065-0.505,0.311-0.758,0.465
					c-0.104,0.4,0.45,0.733,0.45,0.733"/>
			</g>
		</g>
		<g>
			<g>
				<path fill="#D7B584" d="M154.811,198.521c-0.613,1.164-0.2,2.5,0.744,3.182c0.904-1.013,1.173-3.289-0.521-3.252"/>
			</g>
			<g>
				<path fill="#D7B584" d="M159.413,189.783c-0.1,1.248,0.314,2.583,1.716,2.391c0.102-1.248-0.244-2.361-1.494-2.461"/>
			</g>
			<g>
				<path fill="#D7B584" d="M146.211,187.295c-0.444,0.141-0.751,0.721-0.253,1.543c1.871,2.1,2.714-3.037,0.322-1.318"/>
			</g>
			<g>
				<path fill="#D7B584" d="M150.387,202.33c-0.016,0.736,0.23,3.098,1.41,2.976c0.959-0.054,1.105-3.513-1.048-2.6"/>
			</g>
			<g>
				<path fill="#D7B584" d="M162.544,219.521c-1.265,0.635-1.672,2.467-1.549,3.648c2.138-0.176,2.883-4.064,0.215-3.235"/>
			</g>
			<g>
				<path fill="#D7B584" d="M169.923,190.666c0.421,4.5,3.626-0.881,0.513,0.084"/>
			</g>
			<g>
				<path fill="#D7B584" d="M164.052,182.738c0.505,3.986,3.695-0.659,0.43,0.598"/>
			</g>
			<g>
				<path fill="#D7B584" d="M172.303,214.055c3.029-0.45-1.034-3.334-0.153,0.293"/>
			</g>
			<g>
				<path fill="#D7B584" d="M177.749,207.249c-0.53,0.652-0.614,1.165,0.106,1.917c0.821-0.498,0.905-1.012,0.629-1.9
					c-1.027-0.169-1.334,0.412-1.794,1.287"/>
			</g>
			<g>
				<path fill="#D7B584" d="M158.521,211.264c-0.017,0.735,1.303,1.059,2.122,0.559c-0.343-1.111-1.08-1.126-2.053-0.336"/>
			</g>
			<g>
				<path fill="#D7B584" d="M160.022,216.891c1.097,0.393,2.276,0.27,2.736-0.605C161.594,215.672,160.343,215.57,160.022,216.891"
					/>
			</g>
			<g>
				<path fill="#D7B584" d="M153.511,221.834c-0.735-0.014-1.556,0.482-2.085,1.137c0.207,0.665,0.207,0.665,0.789,0.972
					c0.906-1.013,0.546-1.388-0.566-1.044"/>
			</g>
			<g>
				<path fill="#D7B584" d="M138.143,206.861c-0.238,0.805-0.184,1.762,0.466,2.291c0.684-0.943,0.34-2.055-0.704-1.486"/>
			</g>
			<g>
				<path fill="#D7B584" d="M141.472,202.66c-0.307,0.58-0.821,0.497-0.101,1.248c0.53-0.65,0.375-0.359,0.546-1.387
					c-0.583-0.307-0.667,0.206-0.89,0.276"/>
			</g>
			<g>
				<path fill="#D7B584" d="M186.75,199.339c-0.598,0.429-1.112,0.345-1.35,1.15c0.958-0.055,1.112-0.346,1.864-1.065
					c-1.097-0.393-2.209-0.047-2.821,1.119c0.207,0.666,0.291,0.152,0.513,0.084"/>
			</g>
			<g>
				<path fill="#D7B584" d="M175.099,231.713c0.138,0.443,0.43,0.598,0.568,1.043c0.544-1.389,0.321-1.318-0.859-1.197"/>
			</g>
			<g>
				<path fill="#D7B584" d="M174.325,230.004c0.668-0.207,1.334-0.414,1.349-1.15c0,0,0,0-0.291-0.153
					c-0.444,0.139-0.375,0.36-0.751,0.721"/>
			</g>
			<g>
				<path fill="#D7B584" d="M169.352,224.965c0.734,0.016,1.094,0.392,1.194-0.859c-0.668,0.207-1.042,0.568-0.89,0.278"/>
			</g>
			<g>
				<path fill="#D7B584" d="M174.22,221.018c0.29,0.154,0.275,0.889,0.735,0.016c-0.222,0.068-0.958,0.053-0.445,0.139"/>
			</g>
			<g>
				<path fill="#D7B584" d="M181.925,215.215c0.43,0.6,0.859,1.196,1.441,1.504c-0.054-0.96-0.499-0.822-1.082-1.128"/>
			</g>
			<g>
				<path fill="#D7B584" d="M186.625,219.363c0.597-0.43,0.973-0.789,0.99-1.525c-1.559,0.482-0.975,0.79-0.838,1.234"/>
			</g>
			<g>
				<path fill="#D7B584" d="M160.967,203.438c0.138,0.442-0.016,0.734,0.053,0.958c-0.138-0.445-0.344-1.112-0.413-1.335
					c-0.239,0.806-0.032,1.473,0.244,2.361c0.361,0.375,0.154-0.293,0.376-0.359"/>
			</g>
			<g>
				<path fill="#D7B584" d="M154.891,226.281c0.276,0.891,0.621,2.002,1.051,2.6c0.612-1.166,0.559-2.123-0.314-2.583
					c-0.084,0.513-0.016,0.735-0.1,1.249"/>
			</g>
			<g>
				<path fill="#D7B584" d="M151.653,187.557c0.805,0.24,1.404-0.189,1.283-1.371C151.686,186.086,151.893,186.754,151.653,187.557"
					/>
			</g>
			<g>
				<path fill="#D7B584" d="M148.847,195.009c0.07,0.223-0.015,0.736,0.054,0.96l0.514,0.084c0.153-0.292,0.016-0.736,0.167-1.029
					c-0.221,0.07-1.041,0.568-0.75,0.722"/>
			</g>
			<g>
				<path fill="#D7B584" d="M142.468,197.231c-0.728,3.151,3.083,0.507-0.153,0.292"/>
			</g>
			<g>
				<path fill="#D7B584" d="M179.549,202.059c-0.014,0.738,0.192,1.404,0.399,2.071c0.905-1.012,0.561-2.125-0.481-1.558"/>
			</g>
			<g>
				<path fill="#D7B584" d="M173.677,201.199c0.446-0.138,0.875,0.461,0.905-1.013c-0.805-0.237-0.667,0.208-1.042,0.569"/>
			</g>
			<g>
				<path fill="#D7B584" d="M174.062,204.005c-1.404,0.193-2.822,1.12-2.853,2.591c0.888-0.275,0.82-0.497,1.35-1.148
					c-0.361-0.377-0.583-0.306-0.875-0.46"/>
			</g>
			<g>
				<path fill="#D7B584" d="M179.183,191.449c0.108,1.916,2.844,1.312,2.294-0.469c-1.25-0.099-1.113,0.346-0.975,0.79"/>
			</g>
			<g>
				<path fill="#D7B584" d="M201.037,220.255c-0.53,0.653-0.907,1.013-0.629,1.901c1.265-0.636,1.434-1.664,0.491-2.346
					c-0.445,0.138-0.376,0.36-0.529,0.652"/>
			</g>
			<g>
				<path fill="#D7B584" d="M192.116,210.348c-0.462,0.876-0.852,1.972-1.09,2.777c1.402-0.193,1.573-1.221,0.56-2.125
					c-0.445,0.139-0.376,0.359-0.529,0.652"/>
			</g>
			<g>
				<path fill="#D7B584" d="M187.798,209.007c0.069,0.222,0.053,0.956,0.859,1.196c0.834-1.234-0.107-1.918-1.082-1.127"/>
			</g>
			<g>
				<path fill="#D7B584" d="M185.566,213.599c0.224-0.069,0.362,0.374,0.807,0.237c0.083-0.514-0.139-0.446-0.208-0.666
					c-0.292-0.154-0.668,0.207-0.668,0.207"/>
			</g>
		</g>
	</g>
</g>
</svg>
