<?xml version="1.0" encoding="utf-8"?>
<!-- Generator: Adobe Illustrator 18.1.1, SVG Export Plug-In . SVG Version: 6.00 Build 0)  -->
<svg version="1.1" id="Layer_2" xmlns="http://www.w3.org/2000/svg" xmlns:xlink="http://www.w3.org/1999/xlink" x="0px" y="0px"
	 width="400px" height="400px" viewBox="-99 101 400 400" enable-background="new -99 101 400 400" xml:space="preserve">
<g>
	<g opacity="0.2">
		<path d="M148.9,457.3c-25.9-22.2-32.9-38.8-22.9-45c23.2-14.4,35.4-5.9,43.8-28.1c15.3-40.5-14.1-61.9-55.1-70.8
			c-32.5-8.8-160.9-13.4-187.8,8.1c-26.9,22.8-29.7,78.5,11.3,87.4c18.4,3.8,124.8,6.5,140.3,11.6
			C96.9,426.8,117.8,454.8,148.9,457.3z"/>
	</g>
	<g>
		<path fill="#FFFFF0" d="M143.9,452.3c-25.9-22.2-32.9-38.8-22.9-45c23.2-14.4,35.4-5.9,43.8-28.1c15.3-40.5-14.1-61.9-55.1-70.8
			c-32.5-8.8-160.9-13.4-187.8,8.1c-26.9,22.8-29.7,78.5,11.3,87.4c18.4,3.8,124.8,6.5,140.3,11.6
			C91.9,421.8,112.8,449.8,143.9,452.3z"/>
	</g>
</g>
<polygon fill="none" points="173.7,407.3 -93,407.3 -98,324.9 168.7,324.9 "/>
<text transform="matrix(1 0 0 1 -60.2069 341.8503)" fill="#333333" font-family="'CooperBT-Medium'" font-size="23">Zieh die Zutaten</text>
<text transform="matrix(1 0 0 1 -68.8069 369.4503)" fill="#333333" font-family="'CooperBT-Medium'" font-size="23">einfach auf deinen</text>
<text transform="matrix(1 0 0 1 2.2931 397.0503)" fill="#333333" font-family="'CooperBT-Medium'" font-size="23">Teller!</text>
<g>
	<g>
		<g opacity="0.2">
			<path d="M183.2,146.6c-1.6-11.7-1.6-21.6-13.4-27.5c-7.1-4.2-26.1-10.7-34-11.2c-35.6-2.4-63.4,0.3-98.7,2.8
				c-33.8,2.5-59.3,3.6-93.6,8.2c-7.8,1-25.9,10.2-32.2,16.9c-6.3,6.7-3.9,18.3-3.9,27.5c0,0,2.2,15.7,5.5,20.8
				c13.1,20.4,25.3,25.2,47.9,28.3c18.4,2.5,28.2,1.2,42.9,3.5c10.8,1.7,12.6,7.9,11.6,18c0.6,8.2-12.2,22.9-9.6,30.4
				c2.4,6.9,21.6-40.9,28.5-48.6c2.1-2.3,4.4-2.9,5.9-3.4c11.1-3.3,99.8-4.7,110.7-4.1c11.8,0,19.6,2.5,28.3-8.3
				C187.9,186.5,184.8,162.4,183.2,146.6z"/>
		</g>
		<g>
			<path fill="#FFFFF0" d="M178.2,141.6c-1.6-11.7-1.6-21.6-13.4-27.5c-7.1-4.2-26.1-10.7-34-11.2c-35.6-2.4-63.4,0.3-98.7,2.8
				c-33.8,2.5-59.3,3.6-93.6,8.2c-7.8,1-25.9,10.2-32.2,16.9c-6.3,6.7-3.9,18.3-3.9,27.5c0,0,2.2,15.7,5.5,20.8
				c13.1,20.4,25.3,25.2,47.9,28.3c18.4,2.5,28.2,1.2,42.9,3.5c10.8,1.7,12.6,7.9,11.6,18c0.6,8.2-12.2,22.9-9.6,30.4
				c2.4,6.9,21.6-40.9,28.5-48.6c2.1-2.3,4.4-2.9,5.9-3.4c11.1-3.3,99.8-4.7,110.7-4.1c11.8,0,19.6,2.5,28.3-8.3
				C182.9,181.5,179.8,157.4,178.2,141.6z"/>
		</g>
	</g>
	<rect x="-83.5" y="134.4" fill="none" width="252.1" height="65.2"/>
	<text transform="matrix(1 0 0 1 -70.4564 151.4644)" fill="#333333" font-family="'CooperBT-Medium'" font-size="23">Was hast du zuletzt </text>
	<text transform="matrix(1 0 0 1 -72.8564 179.0644)" fill="#333333" font-family="'CooperBT-Medium'" font-size="23">zu mittag gegessen?</text>
</g>
</svg>
