<?xml version="1.0" encoding="utf-8"?>
<!-- Generator: Adobe Illustrator 18.1.1, SVG Export Plug-In . SVG Version: 6.00 Build 0)  -->
<svg version="1.1" id="Layer_2" xmlns="http://www.w3.org/2000/svg" xmlns:xlink="http://www.w3.org/1999/xlink" x="0px" y="0px"
	 width="500px" height="600px" viewBox="-99 501 500 600" enable-background="new -99 501 500 600" xml:space="preserve">
<g>
	<g opacity="0.2">
		<path d="M212.9,995.2c-32.2-27.6-40.9-48.2-28.5-55.9c28.8-17.9,44-7.3,54.4-34.9c19-50.3-17.5-76.9-68.5-88
			C130,805.4-29.6,799.7-63,826.4C-96.5,854.8-100,924-49,935.1c22.9,4.7,155.1,8.1,174.4,14.4C148.3,957.3,174.3,992.1,212.9,995.2
			z"/>
	</g>
	<g>
		<path fill="#FFFFF0" d="M206.7,989c-32.2-27.6-40.9-48.2-28.5-55.9c28.8-17.9,44-7.3,54.4-34.9c19-50.3-17.5-76.9-68.5-88
			c-40.4-10.9-200-16.7-233.5,10.1c-33.4,28.3-36.9,97.6,14,108.6c22.9,4.7,155.1,8.1,174.4,14.4C142.1,951.1,168.1,985.9,206.7,989
			z"/>
	</g>
</g>
<polygon fill="none" points="243.8,933.1 -87.8,933.1 -94,830.6 237.6,830.6 "/>
<g>
	<g opacity="0.2">
		<path d="M228,557.1c-1.8-13.4-1.8-24.7-15.3-31.5c-8.1-4.8-29.9-12.2-38.9-12.8c-40.8-2.7-72.6,0.3-113,3.2
			c-38.7,2.9-67.9,4.1-107.2,9.4c-8.9,1.1-29.7,11.7-36.9,19.3c-7.2,7.7-4.5,21-4.5,31.5c0,0,2.5,18,6.3,23.8
			c15,23.4,29,28.8,54.8,32.4c21.1,2.9,32.3,1.4,49.1,4c12.4,1.9,14.4,9,13.3,20.6c0.7,9.4-14,26.2-11,34.8
			c2.7,7.9,24.7-46.8,32.6-55.6c2.4-2.6,5-3.3,6.8-3.9c12.7-3.8,114.3-5.4,126.7-4.7c13.5,0,22.4,2.9,32.4-9.5
			C233.4,602.8,229.8,575.2,228,557.1z"/>
	</g>
	<g>
		<path fill="#FFFFF0" d="M222.3,551.4c-1.8-13.4-1.8-24.7-15.3-31.5c-8.1-4.8-29.9-12.2-38.9-12.8c-40.8-2.7-72.6,0.3-113,3.2
			c-38.7,2.9-67.9,4.1-107.2,9.4c-8.9,1.1-29.7,11.7-36.9,19.3c-7.2,7.7-4.5,21-4.5,31.5c0,0,2.5,18,6.3,23.8
			c15,23.4,29,28.8,54.8,32.4c21.1,2.9,32.3,1.4,49.1,4c12.4,1.9,14.4,9,13.3,20.6c0.7,9.4-14,26.2-11,34.8
			c2.7,7.9,24.7-46.8,32.6-55.6c2.4-2.6,5-3.3,6.8-3.9c12.7-3.8,114.3-5.4,126.7-4.7c13.5,0,22.4,2.9,32.4-9.5
			C227.6,597.1,224.1,569.5,222.3,551.4z"/>
	</g>
</g>
<rect x="-77.3" y="543.1" fill="none" width="288.6" height="74.6"/>
</svg>
