<?xml version="1.0" encoding="utf-8"?>
<!-- Generator: Adobe Illustrator 18.1.1, SVG Export Plug-In . SVG Version: 6.00 Build 0)  -->
<svg version="1.1" xmlns="http://www.w3.org/2000/svg" xmlns:xlink="http://www.w3.org/1999/xlink" x="0px" y="0px" width="500px"
	 height="600px" viewBox="-49 0 500 600" enable-background="new -49 0 500 600" xml:space="preserve">
<g id="bg">
	<rect x="-49" fill="#933131" width="500" height="600"/>
</g>
<g id="old" display="none">
	<g display="inline">
		<g opacity="0.2">
			<path d="M263,494.2c-32.2-27.6-40.9-48.2-28.5-55.9c28.8-17.9,44-7.3,54.4-34.9c19-50.3-17.5-76.9-68.5-88
				c-40.3-11-199.9-16.7-233.3,10c-33.5,28.4-37,97.6,14,108.7c22.9,4.7,155.1,8.1,174.4,14.4C198.4,456.3,224.4,491.1,263,494.2z"
				/>
		</g>
		<g>
			<path fill="#FFFFF0" d="M256.8,488c-32.2-27.6-40.9-48.2-28.5-55.9c28.8-17.9,44-7.3,54.4-34.9c19-50.3-17.5-76.9-68.5-88
				c-40.4-10.9-200-16.7-233.5,10.1c-33.4,28.3-36.9,97.6,14,108.6c22.9,4.7,155.1,8.1,174.4,14.4
				C192.2,450.1,218.2,484.9,256.8,488z"/>
		</g>
	</g>
	<polygon display="inline" fill="none" points="293.9,432.1 -37.7,432.1 -43.9,329.6 287.7,329.6 	"/>
	<g display="inline" opacity="0.2">
		<path d="M278.1,56.1c-1.8-13.4-1.8-24.7-15.3-31.5c-8.1-4.8-29.9-12.2-38.9-12.8c-40.8-2.7-72.6,0.3-113,3.2
			C72.2,17.9,43,19.1,3.7,24.4C-5.2,25.5-26,36.1-33.2,43.7c-7.2,7.7-4.5,21-4.5,31.5c0,0,2.5,18,6.3,23.8
			c15,23.4,29,28.8,54.8,32.4c21.1,2.9,32.3,1.4,49.1,4c12.4,1.9,14.4,9,13.3,20.6c0.7,9.4-14,26.2-11,34.8
			c2.7,7.9,24.7-46.8,32.6-55.6c2.4-2.6,5-3.3,6.8-3.9c12.7-3.8,114.3-5.4,126.7-4.7c13.5,0,22.4,2.9,32.4-9.5
			C283.5,101.8,279.9,74.2,278.1,56.1z"/>
	</g>
	<g display="inline">
		<path fill="#FFFFF0" d="M272.4,50.4c-1.8-13.4-1.8-24.7-15.3-31.5c-8.1-4.8-29.9-12.2-38.9-12.8c-40.8-2.7-72.6,0.3-113,3.2
			C66.5,12.2,37.3,13.4-2,18.7c-8.9,1.1-29.7,11.7-36.9,19.3c-7.2,7.7-4.5,21-4.5,31.5c0,0,2.5,18,6.3,23.8
			c15,23.4,29,28.8,54.8,32.4c21.1,2.9,32.3,1.4,49.1,4c12.4,1.9,14.4,9,13.3,20.6c0.7,9.4-14,26.2-11,34.8
			c2.7,7.9,24.7-46.8,32.6-55.6c2.4-2.6,5-3.3,6.8-3.9c12.7-3.8,114.3-5.4,126.7-4.7c13.5,0,22.4,2.9,32.4-9.5
			C277.7,96.1,274.2,68.5,272.4,50.4z"/>
	</g>
	<rect x="-27.2" y="42.1" display="inline" fill="none" width="288.6" height="74.6"/>
</g>
<g id="new">
	<path fill="#FFFFFF" d="M88.9,303.2v28.6c0,0,28.5-28.6,53.9-28.6H88.9z"/>
	<g>
		<polygon fill="#FFFFFF" points="222.1,189.5 354.3,226.7 354.3,304.2 222.1,304.2 		"/>
		<polygon fill="#FFFFFF" points="222.1,189.5 95.1,226.5 95.1,304.2 222.1,304.2 		"/>
		<circle fill="#FFFFFF" cx="95.1" cy="226.5" r="77.7"/>
		<circle fill="#FFFFFF" cx="222.1" cy="189.5" r="94"/>
		<circle fill="#FFFFFF" cx="354.3" cy="226.7" r="77.5"/>
		<path fill="#FFFFFF" d="M95.1,148.7c38.6,0,57.3-53.3,127-53.3v94l-127,37V148.7z"/>
		<path fill="#FFFFFF" d="M222.1,95.4c69.5,0,94,53.8,132.2,53.8v77.5l-132.2-37.3V95.4z"/>
	</g>
</g>
</svg>
