<?xml version="1.0" encoding="utf-8"?>
<!-- Generator: Adobe Illustrator 18.1.1, SVG Export Plug-In . SVG Version: 6.00 Build 0)  -->
<svg version="1.1" xmlns="http://www.w3.org/2000/svg" xmlns:xlink="http://www.w3.org/1999/xlink" x="0px" y="0px" width="1000px"
	 height="1000px" viewBox="-49 0 1000 1000" enable-background="new -49 0 1000 1000" xml:space="preserve">
<g id="bg" display="none">
	<rect x="-49" display="inline" fill="#933131" width="1000" height="1000"/>
</g>
<g id="old" display="none">
	<g display="inline">
		<g opacity="0.2">
			<path d="M263,494.2c-32.2-27.6-40.9-48.2-28.5-55.9c28.8-17.9,44-7.3,54.4-34.9c19-50.3-17.5-76.9-68.5-88
				c-40.3-11-199.9-16.7-233.3,10c-33.5,28.4-37,97.6,14,108.7c22.9,4.7,155.1,8.1,174.4,14.4C198.4,456.3,224.4,491.1,263,494.2z"
				/>
		</g>
		<g>
			<path fill="#FFFFF0" d="M256.8,488c-32.2-27.6-40.9-48.2-28.5-55.9c28.8-17.9,44-7.3,54.4-34.9c19-50.3-17.5-76.9-68.5-88
				c-40.4-10.9-200-16.7-233.5,10.1c-33.4,28.3-36.9,97.6,14,108.6c22.9,4.7,155.1,8.1,174.4,14.4
				C192.2,450.1,218.2,484.9,256.8,488z"/>
		</g>
	</g>
	<polygon display="inline" fill="none" points="293.9,432.1 -37.7,432.1 -43.9,329.6 287.7,329.6 	"/>
	<g display="inline" opacity="0.2">
		<path d="M278.1,56.1c-1.8-13.4-1.8-24.7-15.3-31.5c-8.1-4.8-29.9-12.2-38.9-12.8c-40.8-2.7-72.6,0.3-113,3.2
			C72.2,17.9,43,19.1,3.7,24.4C-5.2,25.5-26,36.1-33.2,43.7c-7.2,7.7-4.5,21-4.5,31.5c0,0,2.5,18,6.3,23.8
			c15,23.4,29,28.8,54.8,32.4c21.1,2.9,32.3,1.4,49.1,4c12.4,1.9,14.4,9,13.3,20.6c0.7,9.4-14,26.2-11,34.8
			c2.7,7.9,24.7-46.8,32.6-55.6c2.4-2.6,5-3.3,6.8-3.9c12.7-3.8,114.3-5.4,126.7-4.7c13.5,0,22.4,2.9,32.4-9.5
			C283.5,101.8,279.9,74.2,278.1,56.1z"/>
	</g>
	<g display="inline">
		<path fill="#FFFFF0" d="M272.4,50.4c-1.8-13.4-1.8-24.7-15.3-31.5c-8.1-4.8-29.9-12.2-38.9-12.8c-40.8-2.7-72.6,0.3-113,3.2
			C66.5,12.2,37.3,13.4-2,18.7c-8.9,1.1-29.7,11.7-36.9,19.3c-7.2,7.7-4.5,21-4.5,31.5c0,0,2.5,18,6.3,23.8
			c15,23.4,29,28.8,54.8,32.4c21.1,2.9,32.3,1.4,49.1,4c12.4,1.9,14.4,9,13.3,20.6c0.7,9.4-14,26.2-11,34.8
			c2.7,7.9,24.7-46.8,32.6-55.6c2.4-2.6,5-3.3,6.8-3.9c12.7-3.8,114.3-5.4,126.7-4.7c13.5,0,22.4,2.9,32.4-9.5
			C277.7,96.1,274.2,68.5,272.4,50.4z"/>
	</g>
	<rect x="-27.2" y="42.1" display="inline" fill="none" width="288.6" height="74.6"/>
</g>
<g id="new">
	<g opacity="0.3">
		<path d="M14,154.9V175c0,0,22-20.1,41.7-20.1H14z"/>
		<g>
			<polygon points="117,75 219.2,101.2 219.2,155.6 117,155.6 			"/>
			<polygon points="117,75 18.8,101 18.8,155.6 117,155.6 			"/>
			<ellipse cx="18.8" cy="101" rx="60.1" ry="54.6"/>
			<ellipse cx="117" cy="75" rx="72.7" ry="66.1"/>
			<ellipse cx="219.2" cy="101.2" rx="59.9" ry="54.5"/>
			<path d="M18.8,46.3c29.9,0,44.3-37.5,98.2-37.5V75l-98.2,26V46.3z"/>
			<path d="M117,8.9c53.7,0,72.7,37.8,102.2,37.8v54.5L117,75V8.9z"/>
		</g>
	</g>
	<g>
		<path fill="#FFFFFF" d="M6.3,146v20.1c0,0,22-20.1,41.7-20.1H6.3z"/>
		<g>
			<polygon fill="#FFFFFF" points="109.3,66.1 211.4,92.3 211.4,146.8 109.3,146.8 			"/>
			<polygon fill="#FFFFFF" points="109.3,66.1 11.1,92.1 11.1,146.8 109.3,146.8 			"/>
			<ellipse fill="#FFFFFF" cx="11.1" cy="92.1" rx="60.1" ry="54.6"/>
			<ellipse fill="#FFFFFF" cx="109.3" cy="66.1" rx="72.7" ry="66.1"/>
			<ellipse fill="#FFFFFF" cx="211.4" cy="92.3" rx="59.9" ry="54.5"/>
			<path fill="#FFFFFF" d="M11.1,37.5C41,37.5,55.4,0,109.3,0v66.1l-98.2,26V37.5z"/>
			<path fill="#FFFFFF" d="M109.3,0c53.7,0,72.7,37.8,102.2,37.8v54.5L109.3,66.1V0z"/>
		</g>
	</g>
	<g opacity="0.3">
		<path d="M722.3,154.9V175c0,0-22-20.1-41.7-20.1H722.3z"/>
		<g>
			<polygon points="619.3,75 517.2,101.2 517.2,155.6 619.3,155.6 			"/>
			<polygon points="619.3,75 717.5,101 717.5,155.6 619.3,155.6 			"/>
			<ellipse cx="717.5" cy="101" rx="60.1" ry="54.6"/>
			<ellipse cx="619.3" cy="75" rx="72.7" ry="66.1"/>
			<ellipse cx="517.2" cy="101.2" rx="59.9" ry="54.5"/>
			<path d="M717.5,46.3c-29.9,0-44.3-37.5-98.2-37.5V75l98.2,26V46.3z"/>
			<path d="M619.3,8.9c-53.7,0-72.7,37.8-102.2,37.8v54.5L619.3,75V8.9z"/>
		</g>
	</g>
	<g>
		<path fill="#FFFFFF" d="M716.1,146v20.1c0,0-22-20.1-41.7-20.1H716.1z"/>
		<g>
			<polygon fill="#FFFFFF" points="613.1,66.1 510.9,92.3 510.9,146.8 613.1,146.8 			"/>
			<polygon fill="#FFFFFF" points="613.1,66.1 711.2,92.1 711.2,146.8 613.1,146.8 			"/>
			<ellipse fill="#FFFFFF" cx="711.2" cy="92.1" rx="60.1" ry="54.6"/>
			<ellipse fill="#FFFFFF" cx="613.1" cy="66.1" rx="72.7" ry="66.1"/>
			<ellipse fill="#FFFFFF" cx="510.9" cy="92.3" rx="59.9" ry="54.5"/>
			<path fill="#FFFFFF" d="M711.2,37.5C681.4,37.5,667,0,613.1,0v66.1l98.2,26V37.5z"/>
			<path fill="#FFFFFF" d="M613.1,0c-53.7,0-72.7,37.8-102.2,37.8v54.5l102.2-26.2V0z"/>
		</g>
	</g>
	<g opacity="0.3">
		<path d="M14.4,481.5V505c0,0,22.1-23.5,41.9-23.5H14.4z"/>
		<g>
			<polygon points="118,387.8 220.8,418.5 220.8,482.3 118,482.3 			"/>
			<polygon points="118,387.8 19.2,418.3 19.2,482.3 118,482.3 			"/>
			<ellipse cx="19.2" cy="418.3" rx="60.4" ry="64"/>
			<ellipse cx="118" cy="387.8" rx="73.1" ry="77.4"/>
			<ellipse cx="220.8" cy="418.5" rx="60.2" ry="63.8"/>
			<path d="M19.2,354.3c30,0,44.5-43.9,98.7-43.9v77.4l-98.7,30.5V354.3z"/>
			<path d="M118,310.4c54,0,73.1,44.3,102.8,44.3v63.8L118,387.8V310.4z"/>
		</g>
	</g>
	<g>
		<path fill="#FFFFFF" d="M6.6,471.1v23.5c0,0,22.1-23.5,41.9-23.5H6.6z"/>
		<g>
			<polygon fill="#FFFFFF" points="110.2,377.4 213,408.1 213,471.9 110.2,471.9 			"/>
			<polygon fill="#FFFFFF" points="110.2,377.4 11.4,407.9 11.4,471.9 110.2,471.9 			"/>
			<ellipse fill="#FFFFFF" cx="11.4" cy="407.9" rx="60.4" ry="64"/>
			<ellipse fill="#FFFFFF" cx="110.2" cy="377.4" rx="73.1" ry="77.4"/>
			<ellipse fill="#FFFFFF" cx="213" cy="408.1" rx="60.2" ry="63.8"/>
			<path fill="#FFFFFF" d="M11.4,343.9c30,0,44.5-43.9,98.7-43.9v77.4l-98.7,30.5V343.9z"/>
			<path fill="#FFFFFF" d="M110.2,300c54,0,73.1,44.3,102.8,44.3v63.8l-102.8-30.7V300z"/>
		</g>
	</g>
	<g opacity="0.3">
		<path d="M725.2,481.5V505c0,0-22.2-23.5-42.1-23.5H725.2z"/>
		<g>
			<polygon points="621.1,387.8 517.8,418.5 517.8,482.3 621.1,482.3 			"/>
			<polygon points="621.1,387.8 720.3,418.3 720.3,482.3 621.1,482.3 			"/>
			<ellipse cx="720.3" cy="418.3" rx="60.7" ry="64"/>
			<ellipse cx="621.1" cy="387.8" rx="73.5" ry="77.4"/>
			<ellipse cx="517.8" cy="418.5" rx="60.5" ry="63.8"/>
			<path d="M720.3,354.3c-30.2,0-44.7-43.9-99.2-43.9v77.4l99.2,30.5V354.3z"/>
			<path d="M621.1,310.4c-54.2,0-73.5,44.3-103.3,44.3v63.8l103.3-30.7V310.4z"/>
		</g>
	</g>
	<g>
		<path fill="#FFFFFF" d="M718.8,471.1v23.5c0,0-22.2-23.5-42.1-23.5H718.8z"/>
		<g>
			<polygon fill="#FFFFFF" points="614.8,377.4 511.5,408.1 511.5,471.9 614.8,471.9 			"/>
			<polygon fill="#FFFFFF" points="614.8,377.4 713.9,407.9 713.9,471.9 614.8,471.9 			"/>
			<ellipse fill="#FFFFFF" cx="713.9" cy="407.9" rx="60.7" ry="64"/>
			<ellipse fill="#FFFFFF" cx="614.8" cy="377.4" rx="73.5" ry="77.4"/>
			<ellipse fill="#FFFFFF" cx="511.5" cy="408.1" rx="60.5" ry="63.8"/>
			<path fill="#FFFFFF" d="M713.9,343.9c-30.2,0-44.7-43.9-99.2-43.9v77.4l99.2,30.5V343.9z"/>
			<path fill="#FFFFFF" d="M614.8,300c-54.2,0-73.5,44.3-103.3,44.3v63.8l103.3-30.7V300z"/>
		</g>
	</g>
	<g opacity="0.3">
		<path d="M14.4,808v27c0,0,22.1-27,41.9-27H14.4z"/>
		<g>
			<polygon points="118,700.7 220.8,735.8 220.8,809 118,809 			"/>
			<polygon points="118,700.7 19.2,735.6 19.2,809 118,809 			"/>
			<ellipse cx="19.2" cy="735.6" rx="60.4" ry="73.4"/>
			<ellipse cx="118" cy="700.7" rx="73.1" ry="88.8"/>
			<ellipse cx="220.8" cy="735.8" rx="60.2" ry="73.1"/>
			<path d="M19.2,662.2c30,0,44.5-50.3,98.7-50.3v88.8l-98.7,34.9V662.2z"/>
			<path d="M118,611.9c54,0,73.1,50.8,102.8,50.8v73.1L118,700.7V611.9z"/>
		</g>
	</g>
	<g>
		<path fill="#FFFFFF" d="M6.6,796.1v27c0,0,22.1-27,41.9-27H6.6z"/>
		<g>
			<polygon fill="#FFFFFF" points="110.2,688.8 213,723.9 213,797.1 110.2,797.1 			"/>
			<polygon fill="#FFFFFF" points="110.2,688.8 11.4,723.7 11.4,797.1 110.2,797.1 			"/>
			<ellipse fill="#FFFFFF" cx="11.4" cy="723.7" rx="60.4" ry="73.4"/>
			<ellipse fill="#FFFFFF" cx="110.2" cy="688.8" rx="73.1" ry="88.8"/>
			<ellipse fill="#FFFFFF" cx="213" cy="723.9" rx="60.2" ry="73.1"/>
			<path fill="#FFFFFF" d="M11.4,650.3c30,0,44.5-50.3,98.7-50.3v88.8l-98.7,34.9V650.3z"/>
			<path fill="#FFFFFF" d="M110.2,600c54,0,73.1,50.8,102.8,50.8v73.1l-102.8-35.2V600z"/>
		</g>
	</g>
	<g opacity="0.3">
		<path d="M725.2,808v27c0,0-22.2-27-42.1-27H725.2z"/>
		<g>
			<polygon points="621.1,700.7 517.8,735.8 517.8,809 621.1,809 			"/>
			<polygon points="621.1,700.7 720.3,735.6 720.3,809 621.1,809 			"/>
			<ellipse cx="720.3" cy="735.6" rx="60.7" ry="73.4"/>
			<ellipse cx="621.1" cy="700.7" rx="73.5" ry="88.8"/>
			<ellipse cx="517.8" cy="735.8" rx="60.5" ry="73.1"/>
			<path d="M720.3,662.2c-30.2,0-44.7-50.3-99.2-50.3v88.8l99.2,34.9V662.2z"/>
			<path d="M621.1,611.9c-54.2,0-73.5,50.8-103.3,50.8v73.1l103.3-35.2V611.9z"/>
		</g>
	</g>
	<g>
		<path fill="#FFFFFF" d="M718.8,796.1v27c0,0-22.2-27-42.1-27H718.8z"/>
		<g>
			<polygon fill="#FFFFFF" points="614.8,688.8 511.5,723.9 511.5,797.1 614.8,797.1 			"/>
			<polygon fill="#FFFFFF" points="614.8,688.8 713.9,723.7 713.9,797.1 614.8,797.1 			"/>
			<ellipse fill="#FFFFFF" cx="713.9" cy="723.7" rx="60.7" ry="73.4"/>
			<ellipse fill="#FFFFFF" cx="614.8" cy="688.8" rx="73.5" ry="88.8"/>
			<ellipse fill="#FFFFFF" cx="511.5" cy="723.9" rx="60.5" ry="73.1"/>
			<path fill="#FFFFFF" d="M713.9,650.3c-30.2,0-44.7-50.3-99.2-50.3v88.8l99.2,34.9V650.3z"/>
			<path fill="#FFFFFF" d="M614.8,600c-54.2,0-73.5,50.8-103.3,50.8v73.1l103.3-35.2V600z"/>
		</g>
	</g>
</g>
</svg>
