<?xml version="1.0" encoding="utf-8"?>
<!-- Generator: Adobe Illustrator 18.1.1, SVG Export Plug-In . SVG Version: 6.00 Build 0)  -->
<svg version="1.1" id="Layer_1" xmlns="http://www.w3.org/2000/svg" xmlns:xlink="http://www.w3.org/1999/xlink" x="0px" y="0px"
	 width="450px" height="1000px" viewBox="90 -415 450 1000" enable-background="new 90 -415 450 1000" xml:space="preserve">
<g>
	<path fill="#F95F5F" d="M232.4,281.9c10.9,0.1,27.8-3.4,39.4-3.5c19.2-0.8,32-0.4,43.4-7.9c8.9-4.8,12.7-10.6,13.9-16.4
		c2.4-10,3.6-23.6-3-33.5c-3.9-7.8-9.1-10.9-28.3-12.7c-20.5-1.8-44.7-9.7-65.2-10.5c-32-2.2-78.3,3.2-98.1,13.4
		c-6.3,3.2-14.5,17.1-18.3,22.9c-3.8,6.3-6.2,12.6-4.9,18.9c2.7,14.6,25.1,22.7,58.4,24.4c19.2,1.3,27.8,4,34.3,11.2
		c0,0,23.7,42.6,41,46.1c0,0-23-32.2-22.5-39.5C222.9,290.5,224.6,281.9,232.4,281.9z"/>
</g>
<g>
	<path fill="#43B1D8" d="M343.4-365.8c-1.4-10.1-1.4-18.7-11.5-23.7c-6.1-3.6-22.6-9.2-29.3-9.7c-30.8-2.1-54.7,0.2-85.2,2.4
		c-29.2,2.2-51.2,3.1-80.8,7.1c-6.7,0.9-22.4,8.8-27.8,14.6c-5.4,5.8-3.4,15.8-3.4,23.7c0,0,1.9,13.5,4.7,18
		c11.3,17.6,21.7,23.7,41.4,24.4c36.7,1.3,70.1,1.7,106.8,1.5c9,0.9,10.9,6.9,10.1,15.5c0.5,7.1-10.6,19.8-8.3,26.3
		c2.1,6,18.6-35.3,24.6-42c1.8-2,3.8-2.5,5.1-2.9c9.6-2.8,16.5-2.5,25.9-2c10.2,0,17,2.2,24.4-7.2
		C347.5-331.3,344.7-352.2,343.4-365.8z"/>
</g>
<path fill="#9C85AB" d="M318.9-218.6c0-2.6-2.9-4.6-6.5-4.6c0,0-27-1-35.8-1.5c-29.6-1.6-102.8,3.4-137.2,2.2
	c-6.4-0.2-10.2,5.1-10.2,7.7c0,0-3.9,11-3.9,17.6c0,7.5-0.8,8.4-2.1,14c-1.1,4.7-1.4,16.9-1.4,16.9c0,2.6,2.9,4.7,6.5,4.6
	c10.2-0.3,67,4.3,77.7,4.3c17.4,0,46.1,5.5,59.5,1.5c0.8-0.2,2-0.5,3.4-0.9c0.4,3.2,2.2,22.2-5.9,35.1c-8.9,14.1,3.2,1.1,3.2,1.1
	s13.4-21,13.7-38.1c0.4,0,0.8,0,1.1,0c2.9,0.2,7.2-1,9.5-1c6.2,0,15.8-1.7,22-2c3.6-0.2,6.5-2.1,6.5-4.6c0,0,2.6-8.6,2.9-11.5
	C322.7-188,318.9-218.6,318.9-218.6z"/>
<g>
	<path fill="#FD9843" d="M245.7,489.6c-18.2-31.1-17.6-52.2-9-57.8c20.3-13.2,146.7,5.9,155.4-20.9c13.6-37.2-12.4-56.9-48.2-65.1
		c-28.4-8.1-140.6-12.3-164.1,7.5c-23.5,20.9-25.9,63.9,9.9,72.1c16.1,3.5,7.9,0,21.5,4.7C227.3,435.8,224.4,471.7,245.7,489.6z"/>
</g>
<path fill="#33C4E5" d="M325.5,87.1c0-2.4-3.4-4.4-7.5-4.4c0,0-31.1-0.9-41.2-1.4c-34-1.6-118.2,3.2-157.7,2.1
	c-7.4-0.2-11.7,4.8-11.7,7.3c0,0-4.5,10.4-4.5,16.6c0,7.1-0.9,8-2.4,13.3c-1.2,4.4-1.6,16-1.6,16c0,2.4,3.4,4.5,7.5,4.4
	c11.8-0.3,77,4.1,89.3,4.1c20,0,53,5.2,68.4,1.5c0.9-0.2,2.3-0.5,3.9-0.8c0.4,3,5,21-4.3,33.2c-10.2,13.3,3.7,1,3.7,1
	s12.9-19.9,13.2-36.1c0.5,0,0.9,0,1.2,0c3.4,0.1,8.3-0.9,10.9-0.9c7.1,0,18.1-1.6,25.3-1.9c4.1-0.2,7.5-2,7.5-4.4
	c0,0,3-8.1,3.3-10.9C329.9,116,325.5,87.1,325.5,87.1z"/>
<path fill="#AACC52" d="M110.7-30c0.4-2.2,1.4-7,1.4-8.8c0-7.1-1.4-27-1.4-27c0-2.8,3.3-5,7.5-5c0,0,136.2-3.4,170.1-1.6
	c10.1,0.5,41.1,1.6,41.1,1.6c4.1,0,7.5,2.2,7.5,5c0,0,4.3,33,3.3,44c-0.3,3.1-3.3,12.4-3.3,12.4c0,2.8-3.4,4.8-7.5,5
	c-7.2,0.4-21.4,2.3-28.5,2.3c-2.6,0-5.6-0.1-9-0.3c0.1,3.4-0.8,8.6-3.8,11.9c-7.8,8.4-12.9,23.3-27.2,25.8c0,0-2.6,0,1.4-1.7
	c4-1.7,8.8-9,17-26.4c0.8-1.7,2.6-6.9,0.3-10.4c-16.2-1.1-49.5-4.2-69.4-4.2c-12.3,0-80.3,2.6-92,2.9c-4.1,0.1-7.5-2.2-7.5-5
	C110.7-9.5,109.8-25,110.7-30z"/>
<g>
	<rect x="121.2" y="-366.5" fill="none" width="219.1" height="27.5"/>
	<text transform="matrix(1 0 0 1 127.5844 -351.728)" font-family="'CooperBT-Medium'" font-size="20">Some Text 1 (Gabel)</text>
</g>
<g>
	<rect x="121.2" y="-197.6" fill="none" width="219.1" height="27.5"/>
	<text transform="matrix(1 0 0 1 128.83 -182.7361)" font-family="'CooperBT-Medium'" font-size="20">Some Text 2 (Löffel)</text>
</g>
<g>
	<rect x="121.2" y="-46.5" fill="none" width="219.1" height="27.5"/>
	<text transform="matrix(1 0 0 1 128.83 -31.6692)" font-family="'CooperBT-Medium'" font-size="20">Some Text 3 (Löffel)</text>
</g>
<g>
	<rect x="117.2" y="234.1" fill="none" width="219.1" height="27.5"/>
	<text transform="matrix(1 0 0 1 124.83 248.9656)" font-family="'CooperBT-Medium'" font-size="20">Some Text 5 (Löffel)</text>
</g>
<g>
	<rect x="169.6" y="374.6" fill="none" width="219.1" height="27.5"/>
	<text transform="matrix(1 0 0 1 177.2098 389.4587)" font-family="'CooperBT-Medium'" font-size="20">Some Text 6 (Löffel)</text>
</g>
<g>
	<rect x="121.2" y="100.5" fill="none" width="219.1" height="27.5"/>
	<text transform="matrix(1 0 0 1 127.5844 115.3308)" font-family="'CooperBT-Medium'" font-size="20">Some Text 4 (Gabel)</text>
</g>
</svg>
