<?xml version="1.0" encoding="utf-8"?>
<!-- Generator: Adobe Illustrator 16.0.3, SVG Export Plug-In . SVG Version: 6.00 Build 0)  -->
<!DOCTYPE svg PUBLIC "-//W3C//DTD SVG 1.1//EN" "http://www.w3.org/Graphics/SVG/1.1/DTD/svg11.dtd">
<svg version="1.1" id="Ebene_1" xmlns="http://www.w3.org/2000/svg" xmlns:xlink="http://www.w3.org/1999/xlink" x="0px" y="0px"
	 width="450px" height="450px" viewBox="0 0 450 450" enable-background="new 0 0 450 450" xml:space="preserve">
<g id="egg">
	<g>
		<path fill="#FDD323" d="M273.934,278.959c12.301-0.641,27.858-10.219,34.92-20.846c16.066-25.33-1.136-49.021-15.235-68.724
			c-15.165-22.718-31.104-33.311-58.009-36.632c-28.493-2.078-40.773,10.063-60.833,26.991
			c-15.288,13.206-33.133,29.692-35.756,50.929c-3.59,23.277-11.7,42.4,11.418,58.91c22.498,15.718,40.441,4.274,64.317-2.84
			c19.283-4.812,40.076-4.397,60.598-7.615"/>
	</g>
	<g>
		<path fill="#FAF7EB" d="M269.188,273.67c11.623-0.818,26.481-10.057,33.337-20.121c15.625-23.973-0.188-45.813-13.146-63.987
			c-13.907-20.968-28.767-30.587-54.104-33.21c-26.863-1.431-38.674,10.141-57.916,26.332
			c-14.668,12.625-31.813,28.36-34.671,48.264c-3.808,21.829-11.808,39.856,9.721,54.881c20.959,14.291,38.103,3.271,60.771-3.813
			c18.291-4.845,37.914-4.832,57.345-8.209"/>
	</g>
	<g>
		<path fill="#FDD323" d="M240.076,238.842c9.895-10.279,1.904-27.078-3.949-37.863c-14.374-23.333-31.888-21.187-53.631-8.057
			c-17.149,10.818-24.098,37.992-8.854,54.25c16.657,16.432,39.918,8.52,57.686-1.506
			C234.334,244.602,236.896,241.322,240.076,238.842"/>
	</g>
	<g opacity="0.4">
		<path fill="#FBE99F" d="M232.16,242.105c9.257-9.617,1.781-25.333-3.697-35.425c-13.447-21.833-29.834-19.823-50.177-7.539
			c-16.047,10.124-22.547,35.548-8.286,50.759c15.589,15.375,37.35,7.973,53.974-1.405
			C226.787,247.495,229.188,244.43,232.16,242.105"/>
	</g>
</g>
</svg>
