<?xml version="1.0" encoding="utf-8"?>
<!-- Generator: Adobe Illustrator 16.0.3, SVG Export Plug-In . SVG Version: 6.00 Build 0)  -->
<!DOCTYPE svg PUBLIC "-//W3C//DTD SVG 1.1//EN" "http://www.w3.org/Graphics/SVG/1.1/DTD/svg11.dtd">
<svg version="1.1" id="Ebene_1" xmlns="http://www.w3.org/2000/svg" xmlns:xlink="http://www.w3.org/1999/xlink" x="0px" y="0px"
	 width="450px" height="450px" viewBox="0 0 450 450" enable-background="new 0 0 450 450" xml:space="preserve">
<g id="beef">
	<g>
		<path fill="#FB9642" d="M109.326,255.525c19.423-27.367,34.43-57.383,60.032-79.453c19.422-17.657,43.258-27.368,67.094-36.196
			c20.305-7.063,43.259-10.594,64.447-11.479c9.711,0,26.484,4.416,35.312,0c12.359-5.295,9.877-21.287,4.416-30.014
			c-10.36-16.553-50.462-23.118-79.595-16.939c-26.485,6.181-52.604,13.925-80.453,25.527c-41.759,17.4-65.956,52.326-90.675,87.639
			c-10.593,16.774-23.836,39.727-19.42,60.033C74.014,267,81.96,274.945,94.319,269.65c10.594-4.414,12.226-11.674,16.639-16.086"/>
	</g>
	<g>
		<path fill="#FBAE71" d="M107.163,252.496c19.423-27.367,34.431-57.38,60.032-79.454c19.422-17.657,43.258-27.368,67.096-36.195
			c20.305-7.063,43.259-10.594,64.444-11.477c9.712,0,26.484,4.414,35.313,0c12.359-5.298,9.878-21.289,4.414-30.016
			c-10.358-16.552-50.461-23.119-79.595-16.939c-26.485,6.18-52.603,13.926-80.45,25.528c-41.76,17.4-65.958,52.326-90.676,87.64
			c-10.594,16.772-23.835,39.724-19.423,60.031c3.531,12.358,11.478,20.305,23.836,15.009c10.594-4.414,12.225-11.672,16.641-16.087
			"/>
	</g>
	<g>
		<g>
			<path fill="#FBC672" d="M95.192,233.669c0.941-11.268,8.034-22.638,13.595-32.24c5.963-10.298,13.744-19.423,21.885-28.047
				c7.711-8.169,15.536-16.3,23.975-23.725c9.187-8.082,19.706-14.349,30.239-20.492c21.832-12.734,45.507-23.12,69.974-29.592
				c12.015-3.178,24.673-5.08,37.035-6.234c2.948-0.275,5.965-0.028,8.926,0.075c1.702,0.059,3.403,0.135,5.104,0.222
				c0.712,0.037,3.562,0.713,2.494-0.026c2.789,1.933,12.88-2.755,10.998-4.06c-1.697-1.176-4.964-0.841-6.912-0.941
				c-3.61-0.186-7.227-0.289-10.841-0.362c-12.368-0.252-25.175,2.728-37.271,5.018c-27.515,5.21-54.647,16.723-79.142,30.062
				c-12.145,6.614-24.378,13.601-35.282,22.144c-9.985,7.824-18.739,17.024-27.519,26.14c-9.025,9.37-17.452,19.228-24.323,30.307
				c-6.346,10.233-13.612,22.701-14.63,34.885C83.344,238.652,94.888,237.313,95.192,233.669L95.192,233.669z"/>
		</g>
	</g>
	<g>
		<path fill="#FB9642" d="M77.23,258.168c1.731,5.191-5.191,3.896-6.057,6.491c-0.867,3.461,3.46,3.895,5.192,2.164
			c2.162,4.325,4.76,7.354,4.76,0c0-2.164-1.3-5.192-0.434-6.492"/>
	</g>
	<g>
		<path fill="#FB9642" d="M342.033,109.763c2.066,1.793,5.293,0.788,8.024,0.981c-0.664,1.601-1.563,2.634-3.256,3.336
			c1.27,1.462,1.806,3.555,1.541,5.322c-4.024,0.675-5.401-5.047-9.264-4.771"/>
	</g>
</g>
</svg>
