<?xml version="1.0" encoding="utf-8"?>
<!-- Generator: Adobe Illustrator 16.0.3, SVG Export Plug-In . SVG Version: 6.00 Build 0)  -->
<!DOCTYPE svg PUBLIC "-//W3C//DTD SVG 1.1//EN" "http://www.w3.org/Graphics/SVG/1.1/DTD/svg11.dtd">
<svg version="1.1" id="Ebene_1" xmlns="http://www.w3.org/2000/svg" xmlns:xlink="http://www.w3.org/1999/xlink" x="0px" y="0px"
	 width="450px" height="450px" viewBox="0 0 450 450" enable-background="new 0 0 450 450" xml:space="preserve">
<g id="butter">
	<g>
		<path fill="#8CB8CA" d="M192.516,190.914c-3.828,3.407-17.353,18.56-19.355,22.683c-5.003,9.623-1.667,23.711,3.671,32.305
			c7.008,10.654,18.687,18.215,30.699,21.994c10.01,3.094,24.691,5.5,35.035,4.469s21.688-7.904,28.029-16.152
			c6.674-9.623,8.342-19.246,8.676-30.931c0.332-14.435-2.002-28.181-14.016-37.117c-9.009-6.529-21.688-8.936-32.365-10.31
			C217.54,176.137,203.147,178.922,192.516,190.914z"/>
	</g>
	<g>
		<path fill="#F5F5E9" d="M193.971,194.737c-3.601,3.111-16.325,16.953-18.21,20.721c-4.709,8.789-1.569,21.661,3.452,29.511
			c6.593,9.73,17.582,16.639,28.884,20.092c9.419,2.824,23.231,5.021,32.963,4.08c9.733-0.94,20.406-7.221,26.371-14.756
			c6.278-8.791,7.85-17.58,8.162-28.254c0.314-13.186-1.884-25.743-13.185-33.905c-8.478-5.965-20.407-8.163-30.454-9.418
			C217.516,181.237,203.974,183.784,193.971,194.737z"/>
	</g>
	<g opacity="0.5">
		<g>
			<g>
				<path fill="#7C98A8" d="M213.113,185.991c3.513,0.148,6.86-0.948,10.041-2.35c0.147-0.065,0.413-0.234,0.413-0.427
					c0-0.083,0-0.167,0-0.25c0-0.249-0.209-0.392-0.452-0.392c-0.083,0-0.167,0-0.25,0c-0.303,0-0.784,0.086-0.924,0.41
					c-1.326,3.085,1.145,7.834,3.512,9.832c0.436,0.367,1.759-0.201,1.299-0.589c-2.111-1.781-4.688-6.327-3.479-9.141
					c-0.308,0.137-0.616,0.273-0.924,0.41c0.083,0,0.167,0,0.25,0c-0.15-0.13-0.302-0.261-0.452-0.392
					c0,0.329-2.751,1.056-3.229,1.209c-1.715,0.548-3.488,0.833-5.289,0.757C213.014,185.043,212.157,185.95,213.113,185.991
					L213.113,185.991z"/>
			</g>
		</g>
		<g>
			<g>
				<path fill="#7C98A8" d="M218.357,201.47c4.861,0.271,8.509,1.871,13.36,0.73c2.876-0.676,2.909,1.767,4.252,3.815
					c1.19,1.814,3.01,3.2,4.809,4.355c0.465,0.298,1.736-0.35,1.103-0.757c-3.282-2.109-5.757-4.914-6.585-8.797
					c-0.07-0.33-0.588-0.296-0.818-0.238c-3.34,0.834-6.127,1.695-9.679,0.918c-2.005-0.438-3.872-0.841-5.927-0.955
					C218.25,200.508,217.401,201.417,218.357,201.47L218.357,201.47z"/>
			</g>
		</g>
		<g>
			<g>
				<path fill="#7C98A8" d="M188.5,220.994c3.123,4.485-0.682,10.293,1.805,15.211c2.546,5.037,6.487,6.449,5.178,12.91
					c-0.804,3.963,5.114,6.469,7.795,7.92c4.269,2.311,9.333,7.771,14.399,8.234c0.403,0.037,1.649-0.648,0.875-0.72
					c-5.021-0.459-9.797-5.764-14.145-8.164c-2.817-1.557-5.835-2.928-7.425-5.895c-0.816-1.521,0.543-4.472,0.336-6.275
					c-0.457-3.985-5.208-6.76-6.502-10.514c-1.54-4.472,1.945-9.01-1.002-13.243C189.564,220.102,188.198,220.56,188.5,220.994
					L188.5,220.994z"/>
			</g>
		</g>
		<g>
			<g>
				<path fill="#7C98A8" d="M212.916,237.141c1.239,5.99,6.305,6.885,11.462,8.327c3.183,0.89,5.494,3.358,8.649,4.19
					c3.647,0.965,7.209,0.842,10.938,0.5c7.012-0.643,13.254,0.92,19.524-2.627c6.225-3.521,10.144-10.955,11.731-17.697
					c0.067-0.285-1.309-0.082-1.389,0.256c-1.318,5.594-4.229,11.139-8.318,15.193c-5.572,5.52-15.214,3.807-22.506,4.475
					c-4.71,0.432-9.014-0.152-12.998-2.807c-1.402-0.936-2.873-1.518-4.472-2.016c-5.032-1.57-9.975-2.181-11.214-8.174
					C214.268,236.48,212.85,236.818,212.916,237.141L212.916,237.141z"/>
			</g>
		</g>
		<g>
			<g>
				<path fill="#7C98A8" d="M243.425,192.563c1.476,1.758,3.617,2.761,5.884,3.095c2,0.295,5.754-0.794,6.515,0.896
					c2.063,4.585,1.155,9.996,3.05,14.673c0.486,1.203,1.479,2.292,2.255,3.314c2.144,2.825,1.949,5.873,1.959,9.254
					c0.002,0.668,1.42,0.402,1.418-0.143c-0.012-4.268-0.214-7.241-2.851-10.717c-3.957-5.219-2.512-12.515-5.141-18.358
					c-0.171-0.378-0.693-0.284-1-0.163c-3.477,1.365-8.347,0.473-10.787-2.438C244.364,191.546,243.014,192.072,243.425,192.563
					L243.425,192.563z"/>
			</g>
		</g>
		<g>
			<g>
				<path fill="#7C98A8" d="M203.679,207.935c1.11,3.922,4.986,4.531,8.279,6.042c3.768,1.729,6.632,5.035,10.817,5.773
					c0.33,0.058,1.543-0.474,1.16-0.542c-4.184-0.737-6.83-4.14-10.649-5.709c-3.223-1.325-7.133-2.18-8.197-5.942
					C205,207.243,203.593,207.629,203.679,207.935L203.679,207.935z"/>
			</g>
		</g>
	</g>
	<g>
		<path fill="#209440" d="M206.31,217.467c-1.344,3.14-2.246,4.493,1.248,4.992c3.496,0.5,3.995-2.247,4.742-5.242
			C210.553,216.718,207.558,217.216,206.31,217.467"/>
		<g>
			<path fill="#08C782" d="M205.975,217.434c-0.486,1.129-1.331,2.487-1.19,3.769c0.124,1.142,1.789,1.365,2.648,1.5
				c3.638,0.573,4.521-2.682,5.224-5.517c0.022-0.092-0.07-0.177-0.15-0.197c-2.031-0.505-4.236-0.146-6.257,0.25
				c-0.443,0.087-0.313,0.541,0.121,0.455c1.62-0.318,3.293-0.543,4.944-0.395c0.957,0.086,0.267,1.412,0.086,2.031
				c-0.232,0.795-0.557,1.569-1.104,2.199c-0.954,1.096-3.786,1.04-4.68-0.162c-0.683-0.917,0.669-3.033,1.028-3.868
				C206.801,217.138,206.091,217.163,205.975,217.434L205.975,217.434z"/>
		</g>
	</g>
	<g>
		<path fill="#209440" d="M225.73,220.644c0.75,2.247,0.75,4.993,2,6.991c1.496,2.496,4.492,2.996,5.24-0.251
			c0.249-1.248-0.5-5.493-1.25-6.49c-0.998-0.998-5.24-1.497-5.74,0"/>
		<g>
			<path fill="#08C782" d="M225.379,220.738c0.928,2.996,0.77,7.658,4.292,8.975c2,0.747,3.731-1.125,3.702-3.051
				c-0.032-2.013-0.161-5.639-2.354-6.484c-1.403-0.541-4.588-0.984-5.392,0.76c-0.099,0.214,0.601,0.137,0.705-0.089
				c0.647-1.408,4.583-0.741,5.229,0.469c0.771,1.44,0.969,3.384,1.086,4.987c0.078,1.049-0.154,2.07-0.938,2.829
				c-1.168,1.13-2.812-0.474-3.45-1.323c-1.521-2.022-1.453-4.922-2.177-7.261C226.008,220.303,225.306,220.5,225.379,220.738
				L225.379,220.738z"/>
		</g>
	</g>
	<g>
		<path fill="#209440" d="M216.057,231.605c0.91-1.094,2.733-3.646,4.19-3.826c1.641-0.182,3.462,2.188,3.462,3.645
			c0,0.91-2.004,3.826-3.279,3.826c-1.093,0-3.098-2.551-4.01-3.279"/>
		<g>
			<path fill="#08C782" d="M216.443,231.992c0.877-1.07,1.71-2.166,2.757-3.078c1.025-0.895,1.974-0.559,2.871,0.313
				c0.562,0.543,1.25,1.611,1.039,2.424c-0.261,1.005-1.91,3.507-3.103,2.888c-1.262-0.654-2.134-2.04-3.201-2.953
				c-0.532-0.457-1.311,0.313-0.773,0.772c1.202,1.029,2.784,3.634,4.615,3.414c1.647-0.196,3.191-2.576,3.57-4.031
				c0.492-1.895-1.799-4.191-3.496-4.491c-2.124-0.375-3.943,2.615-5.053,3.971C215.227,231.76,215.996,232.538,216.443,231.992
				L216.443,231.992z"/>
		</g>
	</g>
	<g>
		<path fill="#209440" d="M227.9,227.598c-0.547-1.641,1.457-2.551,3.098-2.004c4.738,1.457-2.553,6.012-3.098,1.639"/>
		<g>
			<path fill="#08C782" d="M228.43,227.451c-0.48-1.659,1.949-1.584,2.891-1.157c0.621,0.282,0.947,0.708,0.508,1.263
				c-0.446,0.563-1.2,0.93-1.912,0.978c-0.936,0.063-1.365-0.593-1.486-1.445c-0.099-0.696-1.152-0.399-1.055,0.291
				c0.195,1.377,1.203,2.338,2.625,2.243c1.134-0.075,2.393-0.738,2.928-1.771c0.699-1.346-0.479-2.332-1.65-2.743
				c-1.791-0.627-4.576,0.305-3.901,2.634C227.568,228.42,228.626,228.131,228.43,227.451L228.43,227.451z"/>
		</g>
	</g>
	<g>
		<path fill="#209440" d="M190.363,227.779c-3.28-0.364-3.28,3.462,0,3.098c2.732-0.363,1.821-2.367-0.183-2.916"/>
		<g>
			<path fill="#08C782" d="M190.363,227.23c-1.212-0.11-2.492,0.301-2.924,1.537c-0.393,1.123,0.448,2.146,1.447,2.521
				c1.18,0.442,3.229,0.11,3.682-1.226c0.449-1.324-1.228-2.332-2.242-2.631c-0.679-0.199-0.967,0.857-0.291,1.057
				c0.462,0.136,1.629,0.611,1.478,1.283c-0.076,0.34-0.662,0.449-0.929,0.515c-0.465,0.108-0.954,0.09-1.406-0.054
				c-0.511-0.162-0.83-0.653-0.683-1.176c0.212-0.752,1.253-0.789,1.868-0.731C191.066,228.391,191.06,227.296,190.363,227.23
				L190.363,227.23z"/>
		</g>
	</g>
	<g>
		<path fill="#209440" d="M205.517,221.514c-0.91-1.457,0.882-2.298,2.521-1.753C212.411,221.219,208.958,223.883,205.517,221.514"
			/>
		<g>
			<path fill="#08C782" d="M205.989,221.238c-0.546-0.942,0.635-1.137,1.345-1.081c0.534,0.042,1.086,0.305,1.546,0.563
				c0.258,0.144,0.579,0.357,0.663,0.65c0.003,0.009,0.009,0.036-0.021,0.13c0.005-0.016-0.071,0.085-0.119,0.122
				c-0.228,0.168-0.521,0.245-0.798,0.274c-1.01,0.109-1.99-0.304-2.812-0.854c-0.589-0.394-1.136,0.555-0.553,0.945
				c1.154,0.773,2.601,1.245,3.986,0.901c0.996-0.248,1.709-1.123,1.245-2.132c-0.233-0.509-0.8-0.861-1.274-1.108
				c-0.739-0.385-1.566-0.638-2.405-0.593c-0.668,0.036-1.39,0.292-1.79,0.854c-0.419,0.588-0.301,1.29,0.042,1.882
				C205.397,222.401,206.344,221.85,205.989,221.238L205.989,221.238z"/>
		</g>
	</g>
	<g>
		<path fill="#209440" d="M194.007,202.085c0.182-2.551,6.378-4.191,7.472-1.093c0.727,1.64-0.364,3.098-2.551,3.098
			C197.287,204.09,195.281,202.997,194.007,202.085"/>
		<g>
			<path fill="#08C782" d="M194.534,202.231c0.299-2.146,3.828-2.833,5.488-2.087c1.687,0.757,1.293,2.882-0.372,3.333
				c-1.822,0.493-3.949-0.881-5.367-1.864c-0.582-0.403-1.128,0.546-0.553,0.945c1.822,1.263,4.825,2.956,7.063,1.677
				c1.567-0.896,1.955-2.937,0.686-4.325c-1.987-2.173-7.556-1.168-7.999,2.029C193.384,202.63,194.438,202.927,194.534,202.231
				L194.534,202.231z"/>
		</g>
	</g>
	<g>
		<path fill="#209440" d="M197.571,203.797c-1.24-0.725,0.101-3.326,2.769-3.395C203.192,200.332,201.043,205.35,197.571,203.797"/>
		<g>
			<path fill="#08C782" d="M197.848,203.325c-0.675-0.44,0.346-1.521,0.71-1.789c0.498-0.367,2.071-1.056,2.507-0.286
				c0.29,0.513-0.271,1.293-0.601,1.632C199.772,203.595,198.738,203.701,197.848,203.325c-0.643-0.271-1.201,0.671-0.553,0.945
				c1.417,0.598,2.923,0.437,4.022-0.696c0.802-0.826,1.262-2.209,0.473-3.185c-0.979-1.209-3.193-0.288-4.131,0.468
				c-1.001,0.807-1.666,2.563-0.364,3.413C197.888,204.657,198.437,203.708,197.848,203.325L197.848,203.325z"/>
		</g>
	</g>
	<g>
		<path fill="#209440" d="M201.843,190.605c3.462,0.729,2.187,5.649,6.742,4.374c0-1.822-5.648-9.111-6.561-4.374
			c1.094,0.546,2.188-0.546,2.734-1.458"/>
		<g>
			<path fill="#08C782" d="M201.697,191.133c1.742,0.436,2.125,2.097,3.096,3.375c0.987,1.299,2.454,1.375,3.938,0.999
				c0.226-0.057,0.415-0.291,0.401-0.528c-0.151-2.729-6.463-9.792-7.635-4.52c-0.068,0.305,0.089,0.573,0.382,0.673
				c1.472,0.501,2.588-0.542,3.353-1.71c0.388-0.593-0.561-1.141-0.945-0.553c-0.466,0.712-1.102,1.553-2.116,1.207
				c0.127,0.225,0.255,0.449,0.382,0.673c0.471-2.114,2.094-0.669,3.058,0.319c0.896,0.917,2.352,2.541,2.429,3.91
				c0.134-0.176,0.268-0.352,0.401-0.528c-1.966,0.498-2.698-0.351-3.589-1.939c-0.663-1.184-1.509-2.096-2.862-2.435
				C201.304,189.906,201.013,190.962,201.697,191.133L201.697,191.133z"/>
		</g>
	</g>
	<g>
		<path fill="#209440" d="M214.839,194.048c-1.716,5.553,5.045,3.663,7.049,2.753l0,0c0.182-0.728,0.911-3.098-0.729-3.098"/>
		<g>
			<path fill="#08C782" d="M214.312,193.903c-0.374,1.313-0.569,3.077,0.769,3.934c1.25,0.801,2.862,0.612,4.246,0.343
				c1.008-0.195,2.886-0.447,3.178-1.576c0.362-1.405,0.511-3.271-1.345-3.449c-0.703-0.067-0.696,1.028,0,1.095
				c0.764,0.073,0.478,1.186,0.395,1.614c-0.119,0.613,0.001,0.497-0.418,0.657c-0.83,0.317-1.697,0.538-2.572,0.689
				c-0.832,0.144-1.815,0.206-2.609-0.133c-1.161-0.496-0.859-1.93-0.588-2.885C215.561,193.514,214.504,193.225,214.312,193.903
				L214.312,193.903z"/>
		</g>
	</g>
	<g>
		<path fill="#209440" d="M214.839,194.048c2.004,0.182,4.483,0.063,6.32-0.345"/>
		<g>
			<path fill="#08C782" d="M214.839,194.596c2.16,0.172,4.342,0.074,6.466-0.365c0.69-0.143,0.397-1.198-0.291-1.056
				c-2.028,0.419-4.114,0.49-6.175,0.326C214.135,193.445,214.141,194.54,214.839,194.596L214.839,194.596z"/>
		</g>
	</g>
	<g>
		<path fill="#209440" d="M223.892,214.842c-0.183-1.641-1.275-5.285-0.91-6.744c0.547-1.823,3.097-2.187,4.736-1.457l0,0
			c-0.183,2.369,0.365,4.737,0.548,7.107c-1.457-0.365-2.916,0.364-4.19,0.91"/>
		<g>
			<path fill="#08C782" d="M224.438,214.842c-0.227-1.719-0.71-3.391-0.928-5.112c-0.322-2.545,1.905-3.395,4.063-2.561
				c-0.135-0.176-0.268-0.352-0.401-0.528c-0.126,2.392,0.337,4.733,0.547,7.107c0.23-0.176,0.462-0.352,0.692-0.528
				c-1.689-0.271-3.083,0.303-4.612,0.965c-0.646,0.28-0.088,1.223,0.553,0.945c1.224-0.53,2.399-1.076,3.769-0.855
				c0.319,0.051,0.728-0.141,0.692-0.528c-0.211-2.374-0.672-4.715-0.547-7.107c0.014-0.259-0.182-0.442-0.401-0.528
				c-1.707-0.66-4.489-0.51-5.274,1.494c-0.854,2.181,0.465,5.036,0.756,7.234C223.436,215.532,224.531,215.541,224.438,214.842
				L224.438,214.842z"/>
		</g>
	</g>
	<g>
		<path fill="#209440" d="M235.771,193.357c1.459-2.186,3.625-1.387,5.266-0.11l0,0c-0.546,2.55-0.911,5.465-0.911,8.017
			c-0.048,0.422-0.183,2.685-3.53,1.866C232.936,202.233,235.589,196.091,235.771,193.357z"/>
		<g>
			<path fill="#08C782" d="M236.159,193.745c1.394-1.788,3.06-1.154,4.602-0.025c-0.084-0.206-0.168-0.412-0.251-0.618
				c-0.467,2.268-0.775,4.548-0.9,6.86c-0.108,2.017-0.334,3.15-2.868,2.641c-3.212-0.645-0.611-7.211-0.421-9.245
				c0.065-0.703-1.028-0.696-1.094,0c-0.279,2.967-3.043,8.959,1.224,10.3c1.466,0.46,3.5,0.201,4.039-1.463
				c0.235-0.729,0.188-1.472,0.215-2.233c0.073-2.209,0.417-4.407,0.86-6.569c0.056-0.263-0.039-0.463-0.25-0.618
				c-1.996-1.46-4.256-1.951-5.929,0.196C234.957,193.52,235.727,194.301,236.159,193.745z"/>
		</g>
	</g>
	<g>
		<path fill="#209440" d="M232.456,190.97c0.981,0,2.916-1.458,3.463-2.369c1.458-2.188-0.183-2.733-1.642-2.368
			c-1.094,0.181-4.189,0.545-4.555,1.639C229.18,189.147,231.361,190.97,232.456,190.97z"/>
		<g>
			<path fill="#08C782" d="M232.456,191.518c1.951-0.177,3.853-2,4.491-3.78c0.272-0.762-0.063-1.52-0.729-1.914
				c-0.741-0.44-1.685-0.18-2.47-0.058c-1.523,0.236-4.084,0.414-4.62,2.178C228.613,189.637,231.027,191.395,232.456,191.518
				c0.703,0.061,0.696-1.035,0-1.095c-0.883-0.076-2.666-1.414-2.187-2.433c0.383-0.815,2.532-0.968,3.295-1.094
				c0.994-0.165,2.946-0.644,2.106,1.06c-0.521,1.059-2.002,2.357-3.216,2.467C231.759,190.486,231.753,191.581,232.456,191.518z"/>
		</g>
	</g>
	<g>
		<path fill="#209440" d="M183.803,246.549c0.729,1.275,2.003,3.461,3.28,4.373c1.639,1.275,2.368-0.182,4.009-1.275
			c-0.365-1.094-2.37-4.373-3.464-4.736c-1.273-0.549-3.096,1.093-3.644,1.82"/>
		<g>
			<path fill="#08C782" d="M183.33,246.824c0.91,1.586,1.917,3.521,3.477,4.57c1.886,1.27,3.029-0.187,4.562-1.276
				c0.188-0.134,0.342-0.376,0.251-0.618c-0.634-1.707-1.809-3.646-3.251-4.786c-1.604-1.268-3.742,0.36-4.771,1.63
				c-0.44,0.543,0.329,1.322,0.773,0.773c0.968-1.193,2.513-2.43,3.821-1.081c0.977,1.007,1.881,2.435,2.372,3.755
				c0.083-0.206,0.167-0.412,0.251-0.618c-0.59,0.421-1.133,0.894-1.708,1.333c-0.964,0.738-1.804-0.042-2.453-0.711
				c-0.978-1.008-1.685-2.313-2.379-3.523C183.924,245.66,182.979,246.211,183.33,246.824L183.33,246.824z"/>
		</g>
	</g>
	<g>
		<path fill="#209440" d="M223.345,249.463c-0.182,1.277,0.729,2.917,1.822,3.646c2.368,2.004,3.278,0,4.374-2.006
			c0.547-1.275,1.563-2.396,1.016-3.486c-0.183-0.729-2.654-2.344-3.385-2.344C226.262,245.273,223.163,248.553,223.345,249.463"/>
		<g>
			<path fill="#08C782" d="M222.798,249.463c-0.132,2.279,2.203,5.576,4.763,4.912c1.224-0.318,1.924-2.02,2.453-2.994
				c0.68-1.254,1.611-2.622,1.006-4.066c-0.49-1.168-3.109-3.097-4.422-2.438C225.229,245.564,222.736,247.759,222.798,249.463
				c0.024,0.704,1.119,0.707,1.094,0c-0.034-0.973,1.432-2.169,2.069-2.773c0.355-0.336,0.917-0.959,1.439-0.809
				c0.703,0.201,1.41,0.748,1.973,1.191c1.619,1.279-0.163,3.543-0.952,4.927c-0.797,1.396-1.668,1.642-2.978,0.638
				c-0.996-0.764-1.624-1.906-1.552-3.174C223.933,248.758,222.838,248.762,222.798,249.463L222.798,249.463z"/>
		</g>
	</g>
	<g>
		<path fill="#209440" d="M226.859,245.432c-2.241,1.775,3.168,5.209,3.715,2.838"/>
		<g>
			<path fill="#08C782" d="M226.473,245.045c-2.907,2.463,3.737,6.652,4.629,3.371c0.187-0.684-0.869-0.973-1.055-0.291
				c-0.346,1.27-4.404-0.947-2.801-2.307C227.786,245.361,227.008,244.592,226.473,245.045L226.473,245.045z"/>
		</g>
	</g>
	<g>
		<path fill="#209440" d="M229.927,256.363c1.093-0.184,2.552-2.371,3.099-3.463c4.373,0.182-0.183,4.738-1.094,5.649"/>
		<g>
			<path fill="#08C782" d="M230.072,256.891c1.592-0.416,2.721-2.356,3.426-3.713c-0.157,0.09-0.314,0.18-0.473,0.271
				c0.519,0.033,1.315,0.072,1.317,0.742c0.001,0.564-0.448,1.166-0.747,1.609c-0.58,0.865-1.318,1.629-2.053,2.363
				c-0.5,0.498,0.273,1.273,0.773,0.773c1.094-1.095,2.305-2.32,2.887-3.781c0.706-1.769-0.493-2.689-2.18-2.803
				c-0.182-0.013-0.39,0.11-0.473,0.271c-0.563,1.084-1.494,2.877-2.771,3.211C229.1,256.014,229.389,257.068,230.072,256.891
				L230.072,256.891z"/>
		</g>
	</g>
	<g>
		<path fill="#209440" d="M240.109,256.752c0.363,1.459,1.459,3.281,2.369,4.375c1.274,1.459,4.008,2.732,3.646-0.365
			c0-0.91-2.551-5.465-3.464-5.832C241.204,254.203,240.109,256.025,240.109,256.752"/>
		<g>
			<path fill="#08C782" d="M239.583,256.898c0.644,2.291,2.215,5.242,4.608,6.119c1.949,0.713,2.854-0.984,2.396-2.748
				c-0.49-1.881-1.816-3.996-3.13-5.408c-1.5-1.615-3.731,0.094-3.896,1.891c-0.063,0.703,1.031,0.697,1.095,0
				c0.065-0.734,0.797-1.551,1.571-1.408c0.51,0.096,0.901,0.816,1.166,1.193c0.799,1.141,1.523,2.408,2.03,3.705
				c0.206,0.529,0.308,1.221,0.038,1.74c-0.261,0.506-1.386-0.23-1.648-0.398c-1.582-1.018-2.688-3.232-3.178-4.977
				C240.447,255.928,239.393,256.217,239.583,256.898L239.583,256.898z"/>
		</g>
	</g>
	<g>
		<path fill="#209440" d="M243.391,261.674c-1.459-1.275,3.098-3.279,2.186,0.547C244.848,262.586,243.938,262.402,243.391,261.674"
			/>
		<g>
			<path fill="#08C782" d="M243.775,261.287c-0.08-0.074-0.068-0.057-0.104-0.107c-0.009-0.014-0.031-0.115-0.025-0.039
				c-0.006-0.086-0.028,0.068,0.011-0.078c0.009-0.032,0.001-0.016,0.073-0.123c-0.059,0.084,0.067-0.065,0.086-0.084
				c0.091-0.086,0.043-0.045,0.151-0.112c0.173-0.109,0.241-0.132,0.454-0.181c0.225-0.053,0.432-0.02,0.585,0.146
				c0.243,0.258,0.129,0.974,0.04,1.367c0.084-0.109,0.167-0.218,0.251-0.326C244.713,262.014,244.156,261.754,243.775,261.287
				c-0.444-0.549-1.215,0.23-0.772,0.773c0.479,0.59,1.175,0.914,1.937,0.885c0.316-0.012,0.789-0.104,1.022-0.338
				c0.243-0.242,0.244-0.754,0.272-1.076c0.08-0.873-0.289-1.803-1.202-2.033c-1.356-0.34-3.415,1.285-2.029,2.563
				C243.521,262.537,244.297,261.766,243.775,261.287L243.775,261.287z"/>
		</g>
	</g>
	<g>
		<path fill="#209440" d="M246.984,219.151c0.261-0.573,1.578-3.498,3.513-7.044l0,0c-2.007-0.181-3.28,0.365-4.922,1.458l0,0
			c-0.91,1.823-4.921,6.56,0,6.014c3.464-0.364-0.363-3.28-2.187-1.276"/>
		<g>
			<path fill="#08C782" d="M247.457,219.428c1.086-2.39,2.262-4.736,3.514-7.044c0.204-0.379-0.057-0.798-0.474-0.824
				c-1.615-0.1-2.994,0.247-4.401,1.033c-1.021,0.569-1.355,1.342-1.959,2.305c-0.732,1.172-2.428,3.603-0.925,4.828
				c0.876,0.714,4.911,0.681,4.281-1.18c-0.632-1.865-3.283-1.781-4.49-0.629c-0.512,0.488,0.265,1.261,0.772,0.774
				c0.523-0.499,1.094-0.615,1.781-0.459c1.213,0.274,0.493,0.76-0.383,0.835c-1.775,0.151-1.535-0.965-0.938-2.163
				c0.438-0.88,1.006-1.694,1.516-2.534c0.896-1.479,3.172-1.813,4.744-1.715c-0.157-0.274-0.314-0.549-0.473-0.824
				c-1.25,2.308-2.426,4.654-3.514,7.044C246.223,219.513,247.165,220.069,247.457,219.428L247.457,219.428z"/>
		</g>
	</g>
	<g>
		<path fill="#209440" d="M266.896,210.285c0.549,1.822,0.549,3.828,0.912,5.832c0.545,2.916,3.644,3.644,4.371,0.183
			c0.184-1.458-0.181-6.015-1.275-6.925c-1.092-0.912-3.278,0.183-3.825,1.458"/>
		<g>
			<path fill="#08C782" d="M266.37,210.431c0.712,2.594,0.041,6.509,2.44,8.317c1.803,1.356,3.734-0.67,3.916-2.448
				c0.219-2.13-0.018-4.824-1-6.751c-1.127-2.212-4.283-0.594-5.121,1.008c-0.326,0.625,0.619,1.178,0.945,0.553
				c0.489-0.936,1.59-1.679,2.68-1.48c0.707,0.129,0.893,1.318,1.027,1.868c0.352,1.422,0.463,2.953,0.407,4.415
				c-0.073,1.903-1.865,2.921-2.97,1.112c-0.586-0.958-0.553-2.324-0.672-3.399c-0.131-1.177-0.285-2.341-0.601-3.485
				C267.238,209.46,266.184,209.749,266.37,210.431L266.37,210.431z"/>
		</g>
	</g>
	<g>
		<path fill="#209440" d="M270.904,217.756c1.096-0.181,1.096-1.457,0.184-2.186c-3.462-2.552-3.279,4.19-0.363,2.186"/>
		<g>
			<path fill="#08C782" d="M271.05,218.284c0.784-0.166,1.302-0.811,1.239-1.619c-0.066-0.87-0.715-1.499-1.441-1.895
				c-0.914-0.499-2.048-0.446-2.596,0.539c-0.427,0.768-0.371,1.833,0.084,2.574c0.611,0.997,1.782,0.934,2.664,0.346
				c0.584-0.39,0.036-1.338-0.553-0.945c-0.266,0.178-0.521,0.308-0.787,0.302c-0.043,0-0.143-0.038-0.174-0.055
				c-0.096-0.051-0.094-0.057-0.198-0.182c-0.215-0.254-0.276-0.859-0.175-1.26c0.109-0.44,0.35-0.629,0.785-0.528
				c0.408,0.094,0.806,0.36,1.08,0.668c0.348,0.386,0.304,0.889-0.221,0.999C270.068,217.375,270.361,218.429,271.05,218.284
				L271.05,218.284z"/>
		</g>
	</g>
	<g>
		<path fill="#209440" d="M248.857,229.602c1.457,2.004,4.19,2.551,6.193,3.463l0,0c1.276-2.188,0.912-2.551-0.729-3.828
			c-0.909-0.727-2.732-2.186-4.008-2.186c-3.828,0.182-0.729,5.648,0.183,0.364"/>
		<g>
			<path fill="#08C782" d="M248.471,229.988c1.577,2.014,4.072,2.564,6.305,3.549c0.271,0.118,0.591,0.084,0.75-0.197
				c0.479-0.847,1.018-1.767,0.757-2.768c-0.234-0.898-1.31-1.519-1.981-2.047c-1.447-1.146-3.799-2.93-5.636-1.492
				c-0.892,0.695-1.062,2.162-0.166,2.939c1.481,1.288,2.349-1.479,2.526-2.412c0.133-0.689-0.922-0.984-1.056-0.291
				c-0.06,0.311-0.487,2.41-0.896,1.683c-0.474-0.841,0.61-1.302,1.241-1.354c1.229-0.104,2.74,1.322,3.621,2.025
				c0.45,0.359,0.957,0.695,1.268,1.193c0.345,0.552-0.369,1.523-0.623,1.971c0.25-0.064,0.499-0.131,0.749-0.195
				c-2.138-0.941-4.575-1.451-6.084-3.379C248.811,228.658,248.041,229.439,248.471,229.988L248.471,229.988z"/>
		</g>
	</g>
	<g>
		<path fill="#209440" d="M240.109,233.064c-1.262,2.301,0.184,4.189,3.828,2.732C249.402,233.611,241.75,229.055,240.109,233.064"
			/>
		<g>
			<path fill="#08C782" d="M239.639,232.787c-0.871,1.664-0.587,3.814,1.61,4.043c1.66,0.172,4.854-0.696,5.147-2.709
				c0.227-1.559-1.35-2.635-2.65-3.027C242.123,230.605,240.341,231.177,239.639,232.787c-0.279,0.641,0.662,1.199,0.944,0.553
				c0.459-1.051,1.403-1.469,2.517-1.273c0.861,0.15,1.967,0.683,2.213,1.601c0.35,1.31-2.398,1.967-3.178,2.069
				c-0.589,0.078-1.377,0.051-1.751-0.489c-0.393-0.565-0.082-1.369,0.199-1.906C240.91,232.716,239.965,232.162,239.639,232.787
				L239.639,232.787z"/>
		</g>
	</g>
	<g>
		<path fill="#209440" d="M239.34,236.832c2.102-0.059,4.01-0.729,6.014-0.729c0,1.092,0.547,2.551,0.91,3.461
			c-1.092,0.729-4.736,0.729-6.195,0.729C240.25,239.018,239.704,237.925,239.34,236.832"/>
		<g>
			<path fill="#08C782" d="M239.34,237.379c2.024-0.104,3.987-0.675,6.014-0.729c-0.183-0.184-0.364-0.365-0.547-0.547
				c0.064,1.262,0.471,2.438,0.93,3.604c0.084-0.205,0.168-0.412,0.252-0.617c-1.608,0.927-4.121,0.654-5.92,0.655
				c0.184,0.183,0.365,0.363,0.548,0.548c0.099-1.294-0.327-2.403-0.748-3.608c-0.229-0.66-1.288-0.377-1.056,0.291
				c0.389,1.109,0.801,2.115,0.709,3.317c-0.022,0.297,0.267,0.547,0.547,0.547c2.012-0.001,4.662,0.236,6.473-0.805
				c0.195-0.113,0.34-0.396,0.251-0.619c-0.42-1.067-0.831-2.157-0.892-3.313c-0.015-0.293-0.236-0.558-0.547-0.549
				c-2.028,0.055-3.988,0.627-6.014,0.729C238.639,236.32,238.634,237.416,239.34,237.379L239.34,237.379z"/>
		</g>
	</g>
	<g>
		<g>
			<path fill="#08C782" d="M235.009,200.725c1.298-1.828,4.921-1.495,4.612,1.191c-0.027,0.244,0.678,0.105,0.701-0.103
				c0.398-3.483-4.528-3.099-5.963-1.077C234.191,200.974,234.893,200.889,235.009,200.725L235.009,200.725z"/>
		</g>
	</g>
	<g>
		<g>
			<path fill="#08C782" d="M221.23,193.46c-1.851-0.074-1.195,4.199,0.417,3.594c0.418-0.157,0.29-0.682-0.139-0.521
				c-0.523,0.197-1.014-2.548-0.331-2.521C221.595,194.028,221.704,193.479,221.23,193.46L221.23,193.46z"/>
		</g>
	</g>
	<g>
		<path fill="#209440" d="M231.052,256.205c-0.909,0-1.511,0.367-1.147,1.277c1.459,4.01,3.994-2.814,0.164-0.992"/>
		<g>
			<path fill="#08C782" d="M231.052,255.658c-0.743,0.014-1.618,0.252-1.776,1.096c-0.127,0.674,0.287,1.51,0.713,2.023
				c0.633,0.764,1.574,0.629,2.145-0.115c0.475-0.619,0.674-1.574,0.331-2.297c-0.508-1.07-1.829-0.738-2.671-0.348
				c-0.641,0.297-0.083,1.239,0.553,0.944c0.309-0.144,0.622-0.254,0.949-0.237c0.014,0,0.089,0.022,0.146,0.059
				c-0.027-0.016-0.004-0.02,0.06,0.096c-0.067-0.127,0.048,0.258,0.033,0.121c0.013,0.115,0.006,0.232-0.007,0.35
				c0.009-0.076-0.049,0.195-0.067,0.263c-0.05,0.161-0.028,0.104-0.108,0.252c-0.058,0.106-0.134,0.202-0.138,0.209
				c-0.116,0.133-0.075,0.086-0.159,0.135c-0.046,0.027,0.041,0.015-0.066,0.013c0.063,0.002,0.031,0.02-0.09-0.062
				c0.09,0.062-0.049-0.058-0.053-0.062c-0.047-0.047-0.072-0.084-0.117-0.153c-0.104-0.158-0.188-0.332-0.256-0.507
				c-0.057-0.139-0.209-0.414-0.082-0.549c0.139-0.147,0.482-0.133,0.664-0.137C231.757,256.736,231.758,255.643,231.052,255.658
				L231.052,255.658z"/>
		</g>
	</g>
</g>
</svg>
