<?xml version="1.0" encoding="utf-8"?>
<!-- Generator: Adobe Illustrator 16.0.0, SVG Export Plug-In . SVG Version: 6.00 Build 0)  -->
<!DOCTYPE svg PUBLIC "-//W3C//DTD SVG 1.1//EN" "http://www.w3.org/Graphics/SVG/1.1/DTD/svg11.dtd">
<svg version="1.1" id="Ebene_1" xmlns="http://www.w3.org/2000/svg" xmlns:xlink="http://www.w3.org/1999/xlink" x="0px" y="0px"
	 width="450px" height="450px" viewBox="0 0 450 450" enable-background="new 0 0 450 450" xml:space="preserve">
<g>
	<g opacity="0.3">
		<path d="M198.45,152.612c-42.57,9.083-64.363,51.425-48.608,100.073c13.343,41.213,46.215,57.935,89.497,55.604
			c32.081-1.727,54.005-13.317,68.655-49.942c19.984-49.959-3.535-85.008-27.635-99.221
			C261.88,148.228,228.2,146.264,198.45,152.612z"/>
		<path d="M315.481,219.666c-0.005-0.108-0.01-0.213-0.013-0.318c-0.036-1.071-0.089-2.133-0.168-3.182
			c-0.001-0.021-0.001-0.043-0.003-0.065c-0.079-1.053-0.183-2.091-0.301-3.121c-0.015-0.117-0.028-0.236-0.041-0.354
			c-0.12-0.985-0.259-1.958-0.413-2.921c-0.023-0.148-0.048-0.295-0.071-0.441c-0.159-0.95-0.334-1.89-0.525-2.818
			c-0.028-0.141-0.062-0.281-0.09-0.42c-0.201-0.941-0.416-1.873-0.65-2.791c-0.024-0.097-0.05-0.193-0.074-0.289
			c-0.508-1.957-1.087-3.862-1.733-5.716c-0.015-0.041-0.029-0.084-0.044-0.128c-0.319-0.902-0.653-1.794-1.003-2.674
			c-0.033-0.085-0.066-0.172-0.1-0.257c-0.346-0.861-0.706-1.709-1.081-2.545c-0.039-0.09-0.078-0.178-0.119-0.265
			c-0.379-0.843-0.771-1.672-1.178-2.488c-0.03-0.063-0.062-0.123-0.094-0.183c-1.305-2.599-2.742-5.072-4.289-7.411
			c-0.009-0.015-0.018-0.027-0.026-0.039c-0.511-0.773-1.033-1.532-1.567-2.275c-0.021-0.029-0.041-0.059-0.062-0.086
			c-0.536-0.743-1.084-1.473-1.639-2.187c-0.012-0.014-0.022-0.027-0.032-0.042c-3.994-5.119-8.497-9.486-13.184-13.057
			c4.103,6.576,8.585,12.96,11.439,20.176c1.694,4.286,2.703,8.721,3.028,13.184c2.628,12.777,0.998,26.719-5.631,37.262
			c-5.62,8.939-12.931,18.097-22.409,23.156c-10.698,5.712-23.315,6.843-35.316,6.002c-2.088,0.09-4.194,0.02-6.316-0.21
			c-0.181,0.005-0.36,0.012-0.542,0.019c-5.486,0.926-11.398-0.103-17.033-1.375c-10.261-0.893-20.217-6.309-28.714-11.73
			c-15.089-9.631-30.113-27.606-32.941-46.464c-1.387-4.007-2.141-8.085-1.939-12.092c-2.467,5.832-4.199,12.127-5.111,18.795
			c0.001,0.015,0.004,0.027,0.007,0.043c-0.037,0.267-0.056,0.541-0.091,0.81c-0.03,0.158-0.045,0.318-0.055,0.481
			c-0.66,5.446-0.788,11.129-0.347,16.987c0.011,0.136,0.021,0.271,0.031,0.406c0.063,0.791,0.136,1.586,0.22,2.385
			c0.094,0.884,0.196,1.771,0.317,2.661c0.079,0.59,0.17,1.185,0.261,1.776c0.121,0.796,0.252,1.595,0.395,2.396
			c0.092,0.521,0.185,1.041,0.284,1.562c0.206,1.056,0.43,2.115,0.671,3.179c0.08,0.357,0.16,0.715,0.244,1.074
			c0.297,1.243,0.613,2.492,0.959,3.744c0.073,0.271,0.152,0.542,0.228,0.813c0.383,1.347,0.782,2.696,1.224,4.055
			c13.343,41.213,46.215,57.935,89.497,55.604c32.081-1.727,54.005-13.317,68.655-49.942c0.526-1.318,1.018-2.623,1.484-3.92
			c0.052-0.146,0.109-0.293,0.161-0.439c0.438-1.229,0.845-2.448,1.231-3.66c0.061-0.197,0.126-0.396,0.188-0.593
			c0.368-1.185,0.715-2.361,1.035-3.527c0.056-0.204,0.111-0.407,0.166-0.611c0.313-1.171,0.606-2.332,0.872-3.484
			c0.04-0.169,0.076-0.337,0.114-0.505c0.27-1.19,0.517-2.372,0.735-3.541c0.015-0.074,0.026-0.148,0.04-0.222
			c0.216-1.172,0.406-2.333,0.575-3.483c0.013-0.091,0.029-0.185,0.043-0.276c0.16-1.138,0.295-2.264,0.412-3.381
			c0.016-0.166,0.036-0.333,0.053-0.499c0.105-1.08,0.189-2.15,0.252-3.211c0.012-0.186,0.022-0.371,0.034-0.557
			c0.056-1.055,0.094-2.099,0.11-3.134c0.003-0.167,0.003-0.333,0.004-0.5C315.516,221.747,315.51,220.699,315.481,219.666z"/>
		<path d="M269.746,192.602c-0.676,3.344-1.735,6.611-4.278,9.013c-2.312,2.186-5.635,3.321-9.046,4.529
			c-3.021,1.07-6.268,1.8-9.834,1.966c-3.244,0.15-6.585-0.067-10.046-0.768c-3.463-0.7-6.868-1.291-9.798-2.689
			c-3.221-1.539-5.848-3.809-8.215-5.969c-2.67-2.439-4.403-5.271-5.686-8.182c-1.409-3.2-2.648-6.467-1.972-9.811
			c0.675-3.345,2.857-6.114,5.401-8.516c2.312-2.185,5.285-3.75,8.696-4.958c3.021-1.07,6.288-1.998,9.854-2.164
			c3.241-0.151,6.727-0.276,10.188,0.424c3.462,0.701,6.416,2.601,9.346,4c3.222,1.539,6.437,2.842,8.804,5.003
			c2.672,2.438,4.55,5.382,5.831,8.292C270.401,185.975,270.424,189.259,269.746,192.602z"/>
		<path opacity="0.3" d="M267.143,191.079c-5.362,7.61-14.939,15.329-28.025,12.638c-9.399-1.932-13.552-12.121-15.475-20.169
			c-0.126-0.234-0.138-0.232-0.031,0.008c10.727,13.386,26.606,12.069,42.129,8.743"/>
		<path d="M245.209,200.247c1.59-5.894,2.803-11.825,2.683-17.971c0.752-0.46,1.331-1.097,1.588-1.891
			c0.521-1.6-0.341-2.931-1.697-3.741c-0.558-0.52-1.369-0.829-2.128-0.771c-0.191-0.031-0.379-0.054-0.566-0.069
			c-0.88-0.481-2.021-0.577-2.987,0.119c-0.35,0.255-0.664,0.551-0.945,0.868c-0.583,0.377-1.112,0.847-1.563,1.39
			c-0.832,1.007-0.098,2.54,0.951,3.183c0.033,0.021,0.066,0.038,0.099,0.057c0.081,0.105,0.176,0.206,0.275,0.308
			c0.026,0.29,0.087,0.589,0.173,0.884c0.462,1.549,0.958,2.779,0.94,4.405c-0.019,2.157-1.015,9.683-1.171,10.261
			c-0.329,1.227-0.455,4.1-2.383,6.351c0,0,2.351,0.761,5.287,0.646C244.233,204.025,245.037,200.883,245.209,200.247z"/>
		<path d="M247.545,179.804c0.208-0.225,0.374-0.481,0.468-0.772c0.341-1.048-0.221-1.918-1.108-2.449
			c-0.367-0.341-0.897-0.542-1.396-0.505c-0.124-0.021-0.246-0.034-0.369-0.046c-0.576-0.313-1.325-0.377-1.955,0.077
			c-0.229,0.168-0.436,0.363-0.618,0.57c-0.382,0.247-0.729,0.555-1.026,0.909c-0.545,0.659-0.063,1.664,0.626,2.086
			c0.02,0.011,0.041,0.023,0.063,0.036c0.053,0.068,0.113,0.135,0.178,0.201c0.006,0.051,0.023,0.102,0.031,0.154
			c0.066,0.035,0.125,0.071,0.199,0.106C244.066,180.883,246.132,180.704,247.545,179.804z"/>
		<path d="M240.86,197.278c-0.329,1.227-0.455,4.1-2.383,6.351c0,0,2.351,0.761,5.287,0.646c0.469-0.25,1.273-3.393,1.445-4.028
			c1.199-4.445,2.182-8.913,2.544-13.478l-6.84,10.242C240.89,197.134,240.873,197.232,240.86,197.278z"/>
		<path opacity="0.4" d="M314.906,212.215L161.67,276.771c16.791,23.659,44.094,33.326,77.669,31.518
			c32.081-1.727,54.005-13.317,68.655-49.942C314.889,241.114,316.604,225.656,314.906,212.215z"/>
		<path d="M165.177,243.679c-1.619-7.232-1.003-14.694-0.963-22.044c0.007-1.287-1.991-1.287-1.998,0
			c-0.042,7.54-0.626,15.156,1.033,22.574C163.531,245.468,165.458,244.933,165.177,243.679z"/>
		<path d="M172.91,251.229c-3.397-4.378-2.993-12.694-2.702-17.939c0.069-1.288-1.929-1.281-1.999,0
			c-0.323,5.855-0.506,14.463,3.289,19.352C172.287,253.658,173.692,252.234,172.91,251.229z"/>
		<path d="M170.402,259.423c-1.547-2.68-1.655-5.844-2.562-8.751c-0.382-1.227-2.31-0.702-1.926,0.53
			c0.962,3.09,1.114,6.377,2.764,9.229C169.323,261.545,171.048,260.54,170.402,259.423z"/>
		<path d="M163.18,251.338c-0.398-1.22-2.329-0.697-1.929,0.53c0.604,1.854,1.009,3.74,1.334,5.66
			c0.212,1.268,2.138,0.729,1.925-0.531C164.185,255.077,163.782,253.191,163.18,251.338z"/>
		<path d="M161.181,243.012c-0.305-1.331-0.297-2.703-0.297-4.063c-0.001-1.288-2-1.288-1.998,0
			c0.001,1.539,0.023,3.087,0.368,4.594C159.543,244.799,161.47,244.266,161.181,243.012z"/>
		<path d="M177.496,238.018c-0.192-1.271-2.116-0.729-1.927,0.531c0.567,3.78,0.317,7.583,0.297,11.388
			c-0.005,1.289,1.992,1.288,1.999,0C177.887,245.941,178.092,241.987,177.496,238.018z"/>
		<path d="M179.161,262.325c-0.622-1.628-0.94-3.32-0.964-5.063c-0.018-1.287-2.017-1.288-1.999,0
			c0.026,1.908,0.354,3.809,1.035,5.594C177.689,264.047,179.621,263.53,179.161,262.325z"/>
		<path d="M175.167,261.327c-0.195-1.271-2.12-0.729-1.929,0.53c0.343,2.24,0.94,4.427,1.332,6.658
			c0.223,1.267,2.147,0.729,1.926-0.531C176.104,265.754,175.507,263.566,175.167,261.327z"/>
		<path d="M173.905,224.367c-0.653,2.835-0.699,5.709-0.37,8.59c0.146,1.265,2.146,1.278,1.999,0
			c-0.311-2.702-0.315-5.397,0.298-8.059C176.118,223.645,174.194,223.112,173.905,224.367z"/>
		<path d="M168.876,218.306c-0.067,2.529-0.899,4.913-1.298,7.393c-0.202,1.261,1.724,1.802,1.926,0.531
			c0.428-2.659,1.3-5.211,1.369-7.924C170.906,217.017,168.908,217.021,168.876,218.306z"/>
		<path d="M159.922,213.38c-1.005,2.42-1.653,4.963-1.701,7.591c-0.023,1.289,1.975,1.286,1.997,0
			c0.046-2.454,0.692-4.803,1.629-7.06C162.341,212.721,160.406,212.207,159.922,213.38z"/>
		<path d="M154.225,221.635c0,4.888-0.031,9.771-0.333,14.65c-0.079,1.288,1.919,1.28,1.997,0c0.303-4.88,0.334-9.763,0.334-14.65
			C156.223,220.348,154.225,220.348,154.225,221.635z"/>
		<path d="M280.748,246.941c-0.019,3.653-0.011,7.886-1.861,11.149c-0.636,1.123,1.09,2.129,1.725,1.009
			c2.027-3.579,2.114-8.15,2.135-12.158C282.751,245.653,280.754,245.653,280.748,246.941z"/>
		<path d="M286.408,243.278c-0.131-1.268-2.131-1.28-1.998,0c0.306,2.972,0.262,5.849-0.629,8.725
			c-0.384,1.233,1.545,1.758,1.927,0.531C286.649,249.497,286.732,246.424,286.408,243.278z"/>
		<path d="M291.698,231.36c-0.363-1.233-2.291-0.707-1.925,0.53c1.208,4.087,0.675,8.322,0,12.455c-0.206,1.26,1.719,1.8,1.925,0.53
			C292.433,240.39,293.012,235.795,291.698,231.36z"/>
		<path d="M288.406,251.935c-0.084,3.505-1.28,6.742-2.296,10.057c-0.378,1.234,1.551,1.759,1.928,0.53
			c1.067-3.492,2.278-6.897,2.366-10.587C290.433,250.647,288.435,250.649,288.406,251.935z"/>
		<path d="M293.734,246.941c-0.357,3.768-1.332,7.357-2.86,10.815c-0.516,1.167,1.205,2.185,1.724,1.009
			c1.682-3.8,2.741-7.687,3.135-11.824C295.854,245.658,293.854,245.67,293.734,246.941z"/>
		<path d="M297.36,233.024c-0.442-1.197-2.374-0.681-1.927,0.53c0.573,1.553,0.632,3.177,0.335,4.798
			c-0.233,1.26,1.693,1.797,1.926,0.53C298.052,236.922,298.057,234.915,297.36,233.024z"/>
		<path d="M301.725,230.293c-0.118,6.801-1.619,13.408-2.961,20.046c-0.256,1.258,1.669,1.793,1.926,0.53
			c1.378-6.813,2.911-13.595,3.032-20.576C303.744,229.005,301.746,229.007,301.725,230.293z"/>
		<path d="M305.72,237.952c-0.065,4.033-0.957,7.93-2.295,11.721c-0.432,1.217,1.5,1.737,1.924,0.53
			c1.4-3.956,2.3-8.046,2.367-12.251C307.739,236.663,305.74,236.665,305.72,237.952z"/>
		<path d="M303.585,214.14c-0.568-1.157-2.288-0.145-1.725,1.009c1.63,3.325,2.855,6.776,3.563,10.414
			c0.244,1.265,2.169,0.729,1.925-0.529C306.611,221.226,305.289,217.617,303.585,214.14z"/>
		<path d="M299.256,220.799c-1.109-2.561-2.39-5.016-4.15-7.193c-0.811-1.002-2.215,0.421-1.413,1.412
			c1.643,2.031,2.806,4.406,3.838,6.79C298.043,222.987,299.764,221.969,299.256,220.799z"/>
		<path d="M306.426,204.615c-1.668-1.948-3.742-3.403-5.861-4.817c-1.077-0.717-2.076,1.015-1.01,1.725
			c1.984,1.324,3.895,2.682,5.458,4.506C305.854,207.008,307.26,205.588,306.426,204.615z"/>
		<path d="M304.76,211.274c-2.252-2.641-3.909-5.849-6.862-7.813c-1.073-0.717-2.074,1.015-1.007,1.724
			c2.761,1.839,4.343,5.025,6.458,7.503C304.185,213.668,305.592,212.248,304.76,211.274z"/>
		<path d="M308.756,214.271c-0.956-0.858-2.372,0.55-1.412,1.413c1.872,1.683,2.34,4.202,2.371,6.618
			c0.017,1.286,2.015,1.288,1.998,0C311.674,219.381,311.013,216.301,308.756,214.271z"/>
		<path d="M294.363,225.034c-0.762-3.04-2.678-5.49-4.096-8.23c-0.593-1.145-2.317-0.134-1.725,1.008
			c1.335,2.582,3.176,4.892,3.896,7.752C292.749,226.813,294.677,226.283,294.363,225.034z"/>
		<path d="M280.713,229.028c-0.781-2.559-2.232-4.718-3.92-6.766c-0.819-0.995-2.226,0.426-1.413,1.412
			c1.464,1.777,2.729,3.667,3.406,5.885C279.161,230.789,281.09,230.263,280.713,229.028z"/>
		<path d="M273.055,240.349c-0.654-1.634-1.295-3.269-1.666-4.994c-0.271-1.259-2.195-0.726-1.926,0.53
			c0.37,1.727,1.012,3.361,1.664,4.995C271.6,242.061,273.532,241.547,273.055,240.349z"/>
		<path d="M281.116,268.983c-1.013,3.801-2.804,7.254-4.561,10.749c-0.577,1.147,1.145,2.159,1.724,1.009
			c1.834-3.647,3.706-7.263,4.764-11.227C283.376,268.268,281.447,267.74,281.116,268.983z"/>
		<path d="M285.446,271.979c-1.09,2.869-2.415,5.602-4.229,8.087c-0.758,1.042,0.976,2.037,1.727,1.008
			c1.915-2.624,3.278-5.536,4.428-8.563C287.829,271.304,285.897,270.788,285.446,271.979z"/>
		<path d="M293.769,264.323c-0.705,2.413-1.581,4.771-2.563,7.086c-0.497,1.171,1.224,2.19,1.725,1.008
			c1.051-2.474,2.009-4.982,2.765-7.563C296.059,263.615,294.131,263.089,293.769,264.323z"/>
		<path d="M302.426,257.664c-0.44,2.869-1.916,5.407-3.563,7.751c-0.741,1.058,0.992,2.055,1.726,1.009
			c1.733-2.468,3.302-5.21,3.762-8.229C304.544,256.935,302.618,256.393,302.426,257.664z"/>
		<path d="M172.734,276.07c-1.673-3.014-3.21-6.009-3.895-9.417c-0.254-1.264-2.179-0.727-1.927,0.531
			c0.717,3.57,2.343,6.734,4.098,9.895C171.634,278.206,173.36,277.198,172.734,276.07z"/>
		<path d="M161.746,264.749c-1.966-3.709-3.213-7.612-3.896-11.747c-0.208-1.27-2.135-0.729-1.925,0.53
			c0.708,4.304,2.053,8.373,4.096,12.226C160.626,266.895,162.349,265.886,161.746,264.749z"/>
		<path d="M195.475,269.317c-0.801-3.678-0.314-7.655-0.297-11.389c0.006-1.289-1.993-1.287-1.998,0
			c-0.018,3.93-0.475,8.046,0.368,11.92C193.823,271.106,195.748,270.573,195.475,269.317z"/>
		<path d="M200.172,255.598c-0.01-1.287-2.007-1.288-1.998,0c0.024,3,0.308,5.989,0.334,8.989c0.009,1.288,2.008,1.289,1.998,0
			C200.481,261.588,200.198,258.598,200.172,255.598z"/>
		<path d="M195.144,242.68c-0.33-1.244-2.256-0.717-1.928,0.53c0.638,2.416,0.675,4.924,0.963,7.394
			c0.147,1.264,2.147,1.277,1.998,0C195.868,247.958,195.824,245.268,195.144,242.68z"/>
		<path d="M191.181,244.278c-0.089-1.278-2.087-1.288-1.996,0c0.283,3.995,0.024,7.986,0,11.985c-0.008,1.288,1.989,1.288,1.996,0
			C191.205,252.264,191.466,248.273,191.181,244.278z"/>
		<path d="M201.504,239.283v4.662c0,1.288,1.997,1.288,1.997,0v-4.662C203.501,237.995,201.504,237.995,201.504,239.283z"/>
		<path d="M201.504,272.246c-0.156-1.262-2.156-1.277-1.997,0c0.342,2.765,0.642,5.534,0.665,8.324c0.013,1.288,2.009,1.289,1.998,0
			C202.147,277.78,201.847,275.01,201.504,272.246z"/>
		<path d="M195.708,284.393c-1.248-2.75-1.422-5.941-2.563-8.751c-0.479-1.177-2.412-0.663-1.928,0.531
			c1.211,2.977,1.44,6.306,2.766,9.229C194.516,286.573,196.237,285.557,195.708,284.393z"/>
		<path d="M190.149,271.315c-0.861-2.759-0.962-5.525-0.964-8.393c0-1.289-1.998-1.289-1.997,0c0.002,3.041,0.121,6,1.033,8.923
			C188.605,273.071,190.533,272.548,190.149,271.315z"/>
		<path d="M190.814,288.961c-0.998-3.33-1.997-6.659-2.996-9.989c-0.369-1.23-2.299-0.705-1.926,0.531
			c0.999,3.33,1.997,6.659,2.997,9.988C189.258,290.722,191.185,290.198,190.814,288.961z"/>
		<path d="M184.822,284.966c-1.054-2.836-1.951-5.709-2.296-8.725c-0.146-1.266-2.143-1.278-1.998,0
			c0.367,3.206,1.246,6.238,2.367,9.255C183.34,286.692,185.272,286.175,184.822,284.966z"/>
		<path d="M185.821,269.982c-0.669-2.415-1.072-4.892-1.664-7.324c-0.308-1.251-2.232-0.722-1.928,0.53
			c0.595,2.434,0.996,4.91,1.666,7.325C184.238,271.753,186.164,271.226,185.821,269.982z"/>
		<path d="M203.365,295.714c-0.907-1.542-1.611-3.207-2.663-4.661c-0.748-1.032-2.482-0.036-1.725,1.01
			c1.053,1.453,1.755,3.118,2.663,4.661C202.293,297.832,204.019,296.827,203.365,295.714z"/>
		<path d="M207.028,292.718c-1.043-2.089-2.069-4.183-2.997-6.326c-0.508-1.179-2.23-0.16-1.724,1.009
			c0.927,2.143,1.953,4.237,2.997,6.326C205.879,294.878,207.601,293.866,207.028,292.718z"/>
		<path d="M242.458,257.928c-0.012-1.287-2.008-1.289-1.999,0c0.022,3.111,0.31,6.212,0.334,9.322c0.009,1.288,2.007,1.289,1.999,0
			C242.768,264.14,242.481,261.04,242.458,257.928z"/>
		<path d="M244.789,258.927v7.991c0,1.288,1.997,1.288,1.997,0v-7.991C246.786,257.638,244.789,257.638,244.789,258.927z"/>
		<path d="M244.751,248.008c-0.232-1.267-2.157-0.729-1.924,0.53c0.289,1.563,0.297,3.145,0.297,4.729c0,1.289,1.998,1.289,1.998,0
			C245.122,251.5,245.075,249.751,244.751,248.008z"/>
		<path d="M240.424,250.005c-0.287-1.209-0.377-2.451-0.666-3.662c-0.297-1.253-2.224-0.721-1.925,0.531
			c0.285,1.21,0.378,2.453,0.665,3.662C238.795,251.79,240.723,251.258,240.424,250.005z"/>
		<path d="M235.43,249.34c-0.189-1.271-2.116-0.729-1.926,0.53c0.579,3.867,0.373,7.793,0.999,11.653
			c0.205,1.269,2.129,0.729,1.925-0.53C235.804,257.136,236.009,253.205,235.43,249.34z"/>
		<path d="M250.781,249.605v7.991c0,1.288,1.998,1.288,1.998,0v-7.991C252.78,248.317,250.781,248.317,250.781,249.605z"/>
		<path d="M238.13,266.919c-0.169-1.258-2.169-1.274-1.998,0c0.296,2.213,0.332,4.43,0.332,6.659c0,1.289,1.999,1.289,1.997,0
			C238.461,271.348,238.426,269.132,238.13,266.919z"/>
		<path d="M246.417,273.312c-0.29-1.255-2.217-0.723-1.927,0.531c0.27,1.163,0.27,2.301,0,3.464
			c-0.29,1.254,1.637,1.787,1.927,0.531C246.768,276.322,246.768,274.829,246.417,273.312z"/>
		<path d="M252.115,265.587c0,1.257-0.014,2.5-0.298,3.73c-0.29,1.253,1.638,1.786,1.926,0.531c0.325-1.405,0.369-2.826,0.369-4.262
			C254.112,264.299,252.115,264.299,252.115,265.587z"/>
		<path d="M228.771,259.661c-0.329-1.245-2.255-0.716-1.925,0.531c0.61,2.313,0.629,4.683,0.629,7.059
			c0.001,1.289,1.998,1.289,1.997,0C229.472,264.699,229.428,262.143,228.771,259.661z"/>
		<path d="M235.464,279.571c-0.021,1.561-0.306,3.102-0.332,4.661c-0.021,1.288,1.978,1.286,1.999,0
			c0.025-1.56,0.311-3.101,0.332-4.661C237.481,278.282,235.482,278.283,235.464,279.571z"/>
		<path d="M246.156,285.964c-0.331,1.665-0.665,3.33-0.999,4.995c-0.25,1.258,1.674,1.794,1.929,0.53
			c0.332-1.664,0.664-3.329,0.998-4.994C248.335,285.237,246.408,284.701,246.156,285.964z"/>
		<path d="M173.828,177.313c-3.053,2.535-6.941,3.803-10.119,6.17c-1.02,0.76-0.026,2.496,1.007,1.725
			c3.318-2.473,7.33-3.828,10.524-6.481C176.233,177.902,174.813,176.496,173.828,177.313z"/>
		<path d="M172.698,184.481c-3.274,1.931-6.752,3.488-9.524,6.149c-0.932,0.894,0.484,2.306,1.413,1.413
			c2.642-2.536,6.001-3.997,9.121-5.837C174.817,185.552,173.812,183.826,172.698,184.481z"/>
		<path d="M172.366,191.141c-2.319,1.04-4.339,2.621-6.658,3.662c-1.175,0.526-0.16,2.247,1.007,1.724
			c2.321-1.039,4.34-2.622,6.661-3.662C174.548,192.341,173.531,190.618,172.366,191.141z"/>
		<path d="M181.022,184.481c-1.25,0.887-2.643,1.176-4.156,1.195c-1.285,0.018-1.288,2.016,0,1.998
			c1.838-0.023,3.646-0.391,5.165-1.468C183.073,185.468,182.075,183.735,181.022,184.481z"/>
		<path d="M180.528,179.683h-3.662c-1.288,0-1.288,1.998,0,1.998h3.662C181.817,181.681,181.817,179.683,180.528,179.683z"/>
		<path d="M182.594,173.059c-1.45,0.356-2.899,0.61-4.396,0.631c-1.287,0.019-1.289,2.017,0,1.998
			c1.668-0.023,3.311-0.304,4.927-0.701C184.376,174.681,183.846,172.754,182.594,173.059z"/>
		<path d="M180.264,169.398c-3.614,0.541-6.689,2.835-10.323,3.329c-1.271,0.173-0.728,2.098,0.532,1.927
			c3.633-0.495,6.711-2.788,10.32-3.33C182.065,171.134,181.522,169.21,180.264,169.398z"/>
		<path d="M182.021,191.473c-4.369,2.095-8.124,5.096-11.854,8.147c-1,0.816,0.423,2.222,1.411,1.412
			c3.604-2.946,7.232-5.813,11.451-7.834C184.192,192.641,183.178,190.92,182.021,191.473z"/>
		<path d="M183.687,198.134c-1.909,0.955-3.822,1.908-5.661,2.996c-1.106,0.655-0.104,2.382,1.009,1.725
			c1.838-1.089,3.75-2.041,5.661-2.997C185.846,199.283,184.835,197.559,183.687,198.134z"/>
		<path d="M292.905,176.491c-3.182-2.051-6.727-3.369-10.227-4.763c-1.199-0.477-1.714,1.457-0.531,1.927
			c3.346,1.331,6.711,2.602,9.75,4.561C292.982,178.916,293.985,177.186,292.905,176.491z"/>
		<path d="M292.24,180.486c-2.091-1.359-4.374-2.349-6.659-3.329c-1.17-0.502-2.189,1.219-1.008,1.725
			c2.286,0.981,4.567,1.971,6.657,3.329C292.316,182.916,293.314,181.185,292.24,180.486z"/>
		<path d="M298.898,174.825c-2.279-1.628-4.563-3.253-6.991-4.66c-1.117-0.647-2.124,1.079-1.009,1.725
			c2.427,1.408,4.712,3.032,6.992,4.661C298.942,177.302,299.935,175.567,298.898,174.825z"/>
		<path d="M302.431,184.637c-1.558-1.918-3.409-3.722-5.769-4.586c-1.213-0.442-1.73,1.489-0.531,1.928
			c2.003,0.733,3.572,2.455,4.886,4.07C301.83,187.05,303.234,185.628,302.431,184.637z"/>
		<path d="M301.432,190.964c-1.567-1.549-3.277-2.949-4.994-4.328c-0.994-0.798-2.419,0.605-1.412,1.412
			c1.717,1.379,3.425,2.78,4.993,4.328C300.937,193.282,302.349,191.871,301.432,190.964z"/>
		<path d="M256.245,298.378c-1.739,2.351-4.138,4.138-5.66,6.66c-0.668,1.105,1.06,2.109,1.725,1.009
			c1.511-2.504,3.927-4.318,5.661-6.66C258.739,298.349,257.001,297.354,256.245,298.378z"/>
		<path d="M263.238,296.38c-1.62,2.55-3.561,4.807-5.837,6.791c-0.973,0.848,0.445,2.254,1.413,1.412
			c2.401-2.093,4.442-4.508,6.149-7.193C265.656,296.299,263.926,295.296,263.238,296.38z"/>
		<path d="M270.795,293.29c-0.734,2.311-2.547,4.072-4.072,5.885c-0.825,0.979,0.582,2.4,1.411,1.413
			c1.763-2.095,3.742-4.101,4.587-6.768C273.114,292.59,271.184,292.067,270.795,293.29z"/>
		<path d="M267.763,287.229c-0.038,1.547-0.631,2.915-1.529,4.156c-0.757,1.047,0.978,2.042,1.726,1.009
			c1.102-1.522,1.755-3.28,1.802-5.165C269.793,285.94,267.795,285.942,267.763,287.229z"/>
		<path d="M261.805,287.962c-0.342,1.836-1.107,3.53-2.407,4.887c-0.889,0.932,0.521,2.346,1.413,1.413
			c1.524-1.595,2.518-3.604,2.921-5.769C263.967,287.234,262.042,286.696,261.805,287.962z"/>
		<path d="M267.799,274.643c-0.741,2.699-2.313,5.065-3.331,7.659c-0.472,1.201,1.462,1.716,1.927,0.53
			c1.021-2.6,2.584-4.946,3.33-7.658C270.066,273.93,268.14,273.403,267.799,274.643z"/>
		<path d="M282.548,285.392c-1.05,2.36-2.532,4.471-4.171,6.458c-0.814,0.985,0.591,2.407,1.412,1.412
			c1.745-2.117,3.362-4.345,4.484-6.861C284.793,285.235,283.073,284.218,282.548,285.392z"/>
		<path d="M245.453,302.212c-0.027,1.082-0.64,1.879-1.37,2.624c-0.903,0.919,0.507,2.333,1.412,1.412
			c1.113-1.134,1.913-2.409,1.955-4.036C247.487,300.923,245.489,300.926,245.453,302.212z"/>
		<path d="M236.096,301.281c-0.233-1.267-2.158-0.729-1.926,0.53c0.274,1.487,0.274,2.977,0,4.464
			c-0.232,1.259,1.692,1.797,1.926,0.53C236.438,304.948,236.44,303.138,236.096,301.281z"/>
		<path d="M227.338,306.036c-0.701-1.426-1.295-2.902-1.998-4.329c-0.568-1.155-2.292-0.143-1.726,1.009
			c0.703,1.427,1.298,2.902,1.999,4.33C226.181,308.201,227.905,307.188,227.338,306.036z"/>
		<path d="M222.678,306.702c-2.265-3.592-4.201-7.269-5.229-11.414c-0.308-1.251-2.235-0.721-1.924,0.53
			c1.063,4.308,3.071,8.157,5.427,11.892C221.637,308.797,223.366,307.795,222.678,306.702z"/>
		<path d="M215.862,305.501c-1.189-1.508-2.187-3.147-3.173-4.793c-0.662-1.103-2.389-0.1-1.726,1.01
			c1.077,1.794,2.188,3.55,3.486,5.196C215.247,307.925,216.65,306.501,215.862,305.501z"/>
		<path d="M216.784,290.294c-0.306-1.228-0.606-2.459-1-3.663c-0.396-1.22-2.325-0.697-1.924,0.53
			c0.391,1.204,0.69,2.436,0.999,3.663C215.171,292.074,217.099,291.543,216.784,290.294z"/>
	</g>
	<g>
		<g>
			<g>
				<path fill="#CC422F" d="M192.787,146.949c-42.57,9.083-64.363,51.425-48.608,100.073c13.343,41.213,46.215,57.935,89.497,55.604
					c32.081-1.727,54.005-13.317,68.655-49.942c19.984-49.959-3.535-85.008-27.635-99.221
					C256.217,142.565,222.537,140.601,192.787,146.949z"/>
				<path fill="#B22F22" d="M309.818,214.003c-0.005-0.108-0.01-0.213-0.013-0.318c-0.036-1.071-0.089-2.133-0.168-3.182
					c-0.001-0.021-0.001-0.043-0.003-0.065c-0.079-1.053-0.183-2.091-0.301-3.121c-0.015-0.117-0.028-0.236-0.041-0.354
					c-0.12-0.985-0.259-1.958-0.413-2.921c-0.023-0.148-0.048-0.295-0.071-0.441c-0.159-0.95-0.334-1.89-0.525-2.818
					c-0.028-0.141-0.062-0.281-0.09-0.42c-0.201-0.941-0.416-1.873-0.65-2.791c-0.024-0.097-0.05-0.193-0.074-0.289
					c-0.508-1.957-1.087-3.862-1.733-5.716c-0.015-0.041-0.029-0.084-0.044-0.128c-0.319-0.902-0.653-1.794-1.003-2.674
					c-0.033-0.085-0.066-0.172-0.1-0.257c-0.346-0.861-0.706-1.709-1.081-2.545c-0.039-0.09-0.078-0.178-0.119-0.265
					c-0.379-0.843-0.771-1.672-1.178-2.488c-0.03-0.063-0.062-0.123-0.094-0.183c-1.305-2.599-2.742-5.072-4.289-7.411
					c-0.009-0.015-0.018-0.027-0.026-0.039c-0.511-0.773-1.033-1.532-1.567-2.275c-0.021-0.029-0.041-0.059-0.062-0.086
					c-0.536-0.743-1.084-1.473-1.639-2.187c-0.012-0.014-0.022-0.027-0.032-0.042c-3.994-5.119-8.497-9.486-13.184-13.057
					c4.103,6.576,8.585,12.96,11.439,20.176c1.694,4.286,2.703,8.721,3.028,13.184c2.628,12.777,0.998,26.719-5.631,37.262
					c-5.62,8.939-12.931,18.097-22.409,23.156c-10.698,5.712-23.315,6.843-35.316,6.002c-2.088,0.09-4.194,0.02-6.316-0.21
					c-0.181,0.005-0.36,0.012-0.542,0.019c-5.486,0.926-11.398-0.103-17.033-1.375c-10.261-0.893-20.217-6.309-28.714-11.73
					c-15.089-9.631-30.113-27.606-32.941-46.464c-1.387-4.007-2.141-8.085-1.939-12.092c-2.467,5.832-4.199,12.127-5.111,18.795
					c0.001,0.015,0.004,0.027,0.007,0.043c-0.037,0.267-0.056,0.541-0.091,0.81c-0.03,0.158-0.045,0.318-0.055,0.481
					c-0.66,5.446-0.788,11.129-0.347,16.987c0.011,0.136,0.021,0.271,0.031,0.406c0.063,0.791,0.136,1.586,0.22,2.385
					c0.094,0.884,0.196,1.771,0.317,2.661c0.079,0.59,0.17,1.185,0.261,1.776c0.121,0.796,0.252,1.595,0.395,2.396
					c0.092,0.521,0.185,1.041,0.284,1.562c0.206,1.056,0.43,2.115,0.671,3.179c0.08,0.357,0.16,0.715,0.244,1.074
					c0.297,1.243,0.613,2.492,0.959,3.744c0.073,0.271,0.152,0.542,0.228,0.813c0.383,1.347,0.782,2.696,1.224,4.055
					c13.343,41.213,46.215,57.935,89.497,55.604c32.081-1.727,54.005-13.317,68.655-49.942c0.526-1.318,1.018-2.623,1.484-3.92
					c0.052-0.146,0.109-0.293,0.161-0.439c0.438-1.229,0.845-2.448,1.231-3.66c0.061-0.197,0.126-0.396,0.188-0.593
					c0.368-1.185,0.715-2.361,1.035-3.527c0.056-0.204,0.111-0.407,0.166-0.611c0.313-1.171,0.606-2.332,0.872-3.484
					c0.04-0.169,0.076-0.337,0.114-0.505c0.27-1.19,0.517-2.372,0.735-3.541c0.015-0.074,0.026-0.148,0.04-0.222
					c0.216-1.172,0.406-2.333,0.575-3.483c0.013-0.091,0.029-0.185,0.043-0.276c0.16-1.138,0.295-2.264,0.412-3.381
					c0.016-0.166,0.036-0.333,0.053-0.499c0.105-1.08,0.189-2.15,0.252-3.211c0.012-0.186,0.022-0.371,0.034-0.557
					c0.056-1.055,0.094-2.099,0.11-3.134c0.003-0.167,0.003-0.333,0.004-0.5C309.853,216.084,309.847,215.036,309.818,214.003z"/>
				<path fill="#B22F22" d="M264.083,186.939c-0.676,3.344-1.735,6.611-4.278,9.013c-2.312,2.186-5.635,3.321-9.046,4.529
					c-3.021,1.07-6.268,1.8-9.834,1.966c-3.244,0.15-6.585-0.067-10.046-0.768c-3.463-0.7-6.868-1.291-9.798-2.689
					c-3.221-1.539-5.848-3.809-8.215-5.969c-2.67-2.439-4.403-5.271-5.686-8.182c-1.409-3.2-2.648-6.467-1.972-9.811
					c0.675-3.345,2.857-6.114,5.401-8.516c2.312-2.185,5.285-3.75,8.696-4.958c3.021-1.07,6.288-1.998,9.854-2.164
					c3.241-0.151,6.727-0.276,10.188,0.424c3.462,0.701,6.416,2.601,9.346,4c3.222,1.539,6.437,2.842,8.804,5.003
					c2.672,2.438,4.55,5.382,5.831,8.292C264.738,180.312,264.761,183.595,264.083,186.939z"/>
				<g>
					<path opacity="0.3" fill="#8C560E" d="M261.48,185.416c-5.362,7.61-14.939,15.329-28.025,12.638
						c-9.399-1.932-13.552-12.121-15.475-20.169c-0.126-0.234-0.138-0.232-0.031,0.008c10.727,13.386,26.606,12.069,42.129,8.743"/>
					<path fill="#4C3A2D" d="M239.546,194.584c1.59-5.894,2.803-11.825,2.683-17.971c0.752-0.46,1.331-1.097,1.588-1.891
						c0.521-1.6-0.341-2.931-1.697-3.741c-0.558-0.52-1.369-0.829-2.128-0.771c-0.191-0.031-0.379-0.054-0.566-0.069
						c-0.88-0.481-2.021-0.577-2.987,0.119c-0.35,0.255-0.664,0.551-0.945,0.868c-0.583,0.377-1.112,0.847-1.563,1.39
						c-0.832,1.007-0.098,2.54,0.951,3.183c0.033,0.021,0.066,0.038,0.099,0.057c0.081,0.105,0.176,0.206,0.275,0.308
						c0.026,0.29,0.087,0.589,0.173,0.884c0.462,1.549,0.958,2.779,0.94,4.405c-0.019,2.157-1.015,9.683-1.171,10.261
						c-0.329,1.227-0.455,4.1-2.383,6.351c0,0,2.351,0.761,5.287,0.646C238.57,198.362,239.374,195.219,239.546,194.584z"/>
					<path fill="#7F654E" d="M241.882,174.141c0.208-0.225,0.374-0.481,0.468-0.772c0.341-1.048-0.221-1.918-1.108-2.449
						c-0.367-0.341-0.897-0.542-1.396-0.505c-0.124-0.021-0.246-0.034-0.369-0.046c-0.576-0.313-1.325-0.377-1.955,0.077
						c-0.229,0.168-0.436,0.363-0.618,0.57c-0.382,0.247-0.729,0.555-1.026,0.909c-0.545,0.659-0.063,1.664,0.626,2.086
						c0.02,0.011,0.041,0.023,0.063,0.036c0.053,0.068,0.113,0.135,0.178,0.201c0.006,0.051,0.023,0.102,0.031,0.154
						c0.066,0.035,0.125,0.071,0.199,0.106C238.403,175.219,240.469,175.041,241.882,174.141z"/>
					<path fill="#30251D" d="M235.197,191.615c-0.329,1.227-0.455,4.1-2.383,6.351c0,0,2.351,0.761,5.287,0.646
						c0.469-0.25,1.273-3.393,1.445-4.028c1.199-4.445,2.182-8.913,2.544-13.478l-6.84,10.242
						C235.227,191.47,235.21,191.569,235.197,191.615z"/>
				</g>
				<path opacity="0.4" fill="#A82D3D" d="M309.242,206.552l-153.235,64.557c16.791,23.659,44.094,33.326,77.669,31.518
					c32.081-1.727,54.005-13.317,68.655-49.942C309.226,235.451,310.941,219.993,309.242,206.552z"/>
			</g>
			<g opacity="0.4">
				<path fill="#AA6100" d="M159.514,238.016c-1.619-7.232-1.003-14.694-0.963-22.044c0.007-1.287-1.991-1.287-1.998,0
					c-0.042,7.54-0.626,15.156,1.033,22.574C157.867,239.804,159.795,239.27,159.514,238.016z"/>
				<path fill="#AA6100" d="M167.247,245.566c-3.397-4.378-2.993-12.694-2.702-17.939c0.069-1.288-1.929-1.281-1.999,0
					c-0.323,5.855-0.506,14.463,3.289,19.352C166.624,247.995,168.029,246.571,167.247,245.566z"/>
				<path fill="#AA6100" d="M164.739,253.76c-1.547-2.68-1.655-5.844-2.562-8.751c-0.382-1.227-2.31-0.702-1.926,0.53
					c0.962,3.09,1.114,6.377,2.764,9.229C163.659,255.882,165.385,254.877,164.739,253.76z"/>
				<path fill="#AA6100" d="M157.517,245.675c-0.398-1.22-2.329-0.697-1.929,0.53c0.604,1.854,1.009,3.74,1.334,5.66
					c0.212,1.268,2.138,0.729,1.925-0.531C158.522,249.414,158.119,247.528,157.517,245.675z"/>
				<path fill="#AA6100" d="M155.518,237.349c-0.305-1.331-0.297-2.703-0.297-4.063c-0.001-1.288-2-1.288-1.998,0
					c0.001,1.539,0.023,3.087,0.368,4.594C153.88,239.135,155.807,238.603,155.518,237.349z"/>
				<path fill="#AA6100" d="M171.833,232.355c-0.192-1.271-2.116-0.729-1.927,0.531c0.567,3.78,0.317,7.583,0.297,11.388
					c-0.005,1.289,1.992,1.288,1.999,0C172.224,240.278,172.429,236.324,171.833,232.355z"/>
				<path fill="#AA6100" d="M173.498,256.662c-0.622-1.628-0.94-3.32-0.964-5.063c-0.018-1.287-2.017-1.288-1.999,0
					c0.026,1.908,0.354,3.809,1.035,5.594C172.026,258.384,173.958,257.867,173.498,256.662z"/>
				<path fill="#AA6100" d="M169.504,255.664c-0.195-1.271-2.12-0.729-1.929,0.53c0.343,2.24,0.94,4.427,1.332,6.658
					c0.223,1.267,2.147,0.729,1.926-0.531C170.441,260.091,169.844,257.903,169.504,255.664z"/>
				<path fill="#AA6100" d="M168.241,218.704c-0.653,2.835-0.699,5.709-0.37,8.59c0.146,1.265,2.146,1.278,1.999,0
					c-0.311-2.702-0.315-5.397,0.298-8.059C170.455,217.982,168.531,217.449,168.241,218.704z"/>
				<path fill="#AA6100" d="M163.213,212.643c-0.067,2.529-0.899,4.913-1.298,7.393c-0.202,1.261,1.724,1.802,1.926,0.531
					c0.428-2.659,1.3-5.211,1.369-7.924C165.243,211.354,163.245,211.358,163.213,212.643z"/>
				<path fill="#AA6100" d="M154.259,207.717c-1.005,2.42-1.653,4.963-1.701,7.591c-0.023,1.289,1.975,1.286,1.997,0
					c0.046-2.454,0.692-4.803,1.629-7.06C156.678,207.058,154.743,206.544,154.259,207.717z"/>
				<path fill="#AA6100" d="M148.562,215.972c0,4.888-0.031,9.771-0.333,14.65c-0.079,1.288,1.919,1.28,1.997,0
					c0.303-4.88,0.334-9.763,0.334-14.65C150.56,214.685,148.562,214.685,148.562,215.972z"/>
				<path fill="#A82D3D" d="M275.085,241.278c-0.019,3.653-0.011,7.886-1.861,11.149c-0.636,1.123,1.09,2.129,1.725,1.009
					c2.027-3.579,2.114-8.15,2.135-12.158C277.088,239.99,275.091,239.99,275.085,241.278z"/>
				<path fill="#A82D3D" d="M280.745,237.615c-0.131-1.268-2.131-1.28-1.998,0c0.306,2.972,0.262,5.849-0.629,8.725
					c-0.384,1.233,1.545,1.758,1.927,0.531C280.986,243.834,281.069,240.76,280.745,237.615z"/>
				<path fill="#A82D3D" d="M286.035,225.697c-0.363-1.233-2.291-0.707-1.925,0.53c1.208,4.087,0.675,8.322,0,12.455
					c-0.206,1.26,1.719,1.8,1.925,0.53C286.77,234.727,287.349,230.132,286.035,225.697z"/>
				<path fill="#A82D3D" d="M282.743,246.272c-0.084,3.505-1.28,6.742-2.296,10.057c-0.378,1.234,1.551,1.759,1.928,0.53
					c1.067-3.492,2.278-6.897,2.366-10.587C284.77,244.984,282.772,244.986,282.743,246.272z"/>
				<path fill="#A82D3D" d="M288.071,241.278c-0.357,3.768-1.332,7.357-2.86,10.815c-0.516,1.167,1.205,2.185,1.724,1.009
					c1.682-3.8,2.741-7.687,3.135-11.824C290.191,239.995,288.191,240.007,288.071,241.278z"/>
				<path fill="#A82D3D" d="M291.697,227.361c-0.442-1.197-2.374-0.681-1.927,0.53c0.573,1.553,0.632,3.177,0.335,4.798
					c-0.233,1.26,1.693,1.797,1.926,0.53C292.389,231.259,292.394,229.252,291.697,227.361z"/>
				<path fill="#A82D3D" d="M296.062,224.63c-0.118,6.801-1.619,13.408-2.961,20.046c-0.256,1.258,1.669,1.793,1.926,0.53
					c1.378-6.813,2.911-13.595,3.032-20.576C298.081,223.342,296.083,223.344,296.062,224.63z"/>
				<path fill="#A82D3D" d="M300.057,232.289c-0.065,4.033-0.957,7.93-2.295,11.721c-0.432,1.217,1.5,1.737,1.924,0.53
					c1.4-3.956,2.3-8.046,2.367-12.251C302.075,231,300.077,231.002,300.057,232.289z"/>
				<path fill="#A82D3D" d="M297.922,208.477c-0.568-1.157-2.288-0.145-1.725,1.009c1.63,3.325,2.855,6.776,3.563,10.414
					c0.244,1.265,2.169,0.729,1.925-0.529C300.948,215.563,299.626,211.954,297.922,208.477z"/>
				<path fill="#A82D3D" d="M293.593,215.135c-1.109-2.561-2.39-5.016-4.15-7.193c-0.811-1.002-2.215,0.421-1.413,1.412
					c1.643,2.031,2.806,4.406,3.838,6.79C292.38,217.324,294.101,216.305,293.593,215.135z"/>
				<path fill="#A82D3D" d="M300.763,198.952c-1.668-1.948-3.742-3.403-5.861-4.817c-1.077-0.717-2.076,1.015-1.01,1.725
					c1.984,1.324,3.895,2.682,5.458,4.506C300.191,201.344,301.597,199.925,300.763,198.952z"/>
				<path fill="#A82D3D" d="M299.097,205.611c-2.252-2.641-3.909-5.849-6.862-7.813c-1.073-0.717-2.074,1.015-1.007,1.724
					c2.761,1.839,4.343,5.025,6.458,7.503C298.522,208.005,299.929,206.585,299.097,205.611z"/>
				<path fill="#A82D3D" d="M303.093,208.608c-0.956-0.858-2.372,0.55-1.412,1.413c1.872,1.683,2.34,4.202,2.371,6.618
					c0.017,1.286,2.015,1.288,1.998,0C306.011,213.718,305.35,210.637,303.093,208.608z"/>
				<path fill="#A82D3D" d="M288.699,219.371c-0.762-3.04-2.678-5.49-4.096-8.23c-0.593-1.145-2.317-0.134-1.725,1.008
					c1.335,2.582,3.176,4.892,3.896,7.752C287.086,221.15,289.014,220.62,288.699,219.371z"/>
				<path fill="#A82D3D" d="M275.05,223.365c-0.781-2.559-2.232-4.718-3.92-6.766c-0.819-0.995-2.226,0.426-1.413,1.412
					c1.464,1.777,2.729,3.667,3.406,5.885C273.498,225.126,275.427,224.6,275.05,223.365z"/>
				<path fill="#A82D3D" d="M267.392,234.686c-0.654-1.634-1.295-3.269-1.666-4.994c-0.271-1.259-2.195-0.726-1.926,0.53
					c0.37,1.727,1.012,3.361,1.664,4.995C265.937,236.398,267.869,235.884,267.392,234.686z"/>
				<path fill="#A82D3D" d="M275.453,263.32c-1.013,3.801-2.804,7.254-4.561,10.749c-0.577,1.147,1.145,2.159,1.724,1.009
					c1.834-3.647,3.706-7.263,4.764-11.227C277.713,262.605,275.783,262.077,275.453,263.32z"/>
				<path fill="#A82D3D" d="M279.782,266.316c-1.09,2.869-2.415,5.602-4.229,8.087c-0.758,1.042,0.976,2.037,1.727,1.008
					c1.915-2.624,3.278-5.536,4.428-8.563C282.166,265.641,280.234,265.125,279.782,266.316z"/>
				<path fill="#A82D3D" d="M288.106,258.66c-0.705,2.413-1.581,4.771-2.563,7.086c-0.497,1.171,1.224,2.19,1.725,1.008
					c1.051-2.474,2.009-4.982,2.765-7.563C290.396,257.952,288.468,257.426,288.106,258.66z"/>
				<path fill="#A82D3D" d="M296.763,252.001c-0.44,2.869-1.916,5.407-3.563,7.751c-0.741,1.058,0.992,2.055,1.726,1.009
					c1.733-2.468,3.302-5.21,3.762-8.229C298.881,251.272,296.955,250.73,296.763,252.001z"/>
				<path fill="#AA6100" d="M167.071,270.407c-1.673-3.014-3.21-6.009-3.895-9.417c-0.254-1.264-2.179-0.727-1.927,0.531
					c0.717,3.57,2.343,6.734,4.098,9.895C165.971,272.543,167.697,271.535,167.071,270.407z"/>
				<path fill="#AA6100" d="M156.083,259.086c-1.966-3.709-3.213-7.612-3.896-11.747c-0.208-1.27-2.135-0.729-1.925,0.53
					c0.708,4.304,2.053,8.373,4.096,12.226C154.963,261.232,156.686,260.223,156.083,259.086z"/>
				<path fill="#AA6100" d="M189.812,263.654c-0.801-3.678-0.314-7.655-0.297-11.389c0.006-1.289-1.993-1.287-1.998,0
					c-0.018,3.93-0.475,8.046,0.368,11.92C188.159,265.443,190.085,264.91,189.812,263.654z"/>
				<path fill="#AA6100" d="M194.509,249.935c-0.01-1.287-2.007-1.288-1.998,0c0.024,3,0.308,5.989,0.334,8.989
					c0.009,1.288,2.008,1.289,1.998,0C194.818,255.925,194.534,252.935,194.509,249.935z"/>
				<path fill="#AA6100" d="M189.481,237.017c-0.33-1.244-2.256-0.717-1.928,0.53c0.638,2.416,0.675,4.924,0.963,7.394
					c0.147,1.264,2.147,1.277,1.998,0C190.205,242.295,190.161,239.605,189.481,237.017z"/>
				<path fill="#AA6100" d="M185.518,238.615c-0.089-1.278-2.087-1.288-1.996,0c0.283,3.995,0.024,7.986,0,11.985
					c-0.008,1.288,1.989,1.288,1.996,0C185.542,246.601,185.803,242.61,185.518,238.615z"/>
				<path fill="#AA6100" d="M195.841,233.62v4.662c0,1.288,1.997,1.288,1.997,0v-4.662
					C197.838,232.332,195.841,232.332,195.841,233.62z"/>
				<path fill="#AA6100" d="M195.841,266.583c-0.156-1.262-2.156-1.277-1.997,0c0.342,2.765,0.642,5.534,0.665,8.324
					c0.013,1.288,2.009,1.289,1.998,0C196.484,272.117,196.184,269.347,195.841,266.583z"/>
				<path fill="#AA6100" d="M190.045,278.73c-1.248-2.75-1.422-5.941-2.563-8.751c-0.479-1.177-2.412-0.663-1.928,0.531
					c1.211,2.977,1.44,6.306,2.766,9.229C188.853,280.91,190.573,279.894,190.045,278.73z"/>
				<path fill="#AA6100" d="M184.486,265.652c-0.861-2.759-0.962-5.525-0.964-8.393c0-1.289-1.998-1.289-1.997,0
					c0.002,3.041,0.121,6,1.033,8.923C182.942,267.408,184.87,266.885,184.486,265.652z"/>
				<path fill="#AA6100" d="M185.151,283.298c-0.998-3.33-1.997-6.659-2.996-9.989c-0.369-1.23-2.299-0.705-1.926,0.531
					c0.999,3.33,1.997,6.659,2.997,9.988C183.595,285.059,185.522,284.535,185.151,283.298z"/>
				<path fill="#AA6100" d="M179.158,279.302c-1.054-2.836-1.951-5.709-2.296-8.725c-0.146-1.266-2.143-1.278-1.998,0
					c0.367,3.206,1.246,6.238,2.367,9.255C177.677,281.029,179.609,280.511,179.158,279.302z"/>
				<path fill="#AA6100" d="M180.157,264.319c-0.669-2.415-1.072-4.892-1.664-7.324c-0.308-1.251-2.232-0.722-1.928,0.53
					c0.595,2.434,0.996,4.91,1.666,7.325C178.574,266.09,180.501,265.563,180.157,264.319z"/>
				<path fill="#AA6100" d="M197.702,290.051c-0.907-1.542-1.611-3.207-2.663-4.661c-0.748-1.032-2.482-0.036-1.725,1.01
					c1.053,1.453,1.755,3.118,2.663,4.661C196.63,292.169,198.356,291.164,197.702,290.051z"/>
				<path fill="#AA6100" d="M201.365,287.054c-1.043-2.089-2.069-4.183-2.997-6.326c-0.508-1.179-2.23-0.16-1.724,1.009
					c0.927,2.143,1.953,4.237,2.997,6.326C200.216,289.215,201.938,288.203,201.365,287.054z"/>
				<path fill="#A82D3D" d="M236.795,252.265c-0.012-1.287-2.008-1.289-1.999,0c0.022,3.111,0.31,6.212,0.334,9.322
					c0.009,1.288,2.007,1.289,1.999,0C237.105,258.477,236.818,255.377,236.795,252.265z"/>
				<path fill="#A82D3D" d="M239.126,253.264v7.991c0,1.288,1.997,1.288,1.997,0v-7.991
					C241.123,251.975,239.126,251.975,239.126,253.264z"/>
				<path fill="#A82D3D" d="M239.088,242.344c-0.232-1.267-2.157-0.729-1.924,0.53c0.289,1.563,0.297,3.145,0.297,4.729
					c0,1.289,1.998,1.289,1.998,0C239.459,245.837,239.412,244.088,239.088,242.344z"/>
				<path fill="#A82D3D" d="M234.761,244.342c-0.287-1.209-0.377-2.451-0.666-3.662c-0.297-1.253-2.224-0.721-1.925,0.531
					c0.285,1.21,0.378,2.453,0.665,3.662C233.132,246.127,235.06,245.594,234.761,244.342z"/>
				<path fill="#A82D3D" d="M229.767,243.677c-0.189-1.271-2.116-0.729-1.926,0.53c0.579,3.867,0.373,7.793,0.999,11.653
					c0.205,1.269,2.129,0.729,1.925-0.53C230.141,251.473,230.346,247.542,229.767,243.677z"/>
				<path fill="#A82D3D" d="M245.118,243.942v7.991c0,1.288,1.998,1.288,1.998,0v-7.991
					C247.116,242.654,245.118,242.654,245.118,243.942z"/>
				<path fill="#A82D3D" d="M232.467,261.256c-0.169-1.258-2.169-1.274-1.998,0c0.296,2.213,0.332,4.43,0.332,6.659
					c0,1.289,1.999,1.289,1.997,0C232.798,265.685,232.763,263.469,232.467,261.256z"/>
				<path fill="#A82D3D" d="M240.754,267.649c-0.29-1.255-2.217-0.723-1.927,0.531c0.27,1.163,0.27,2.301,0,3.464
					c-0.29,1.254,1.637,1.787,1.927,0.531C241.105,270.659,241.105,269.166,240.754,267.649z"/>
				<path fill="#A82D3D" d="M246.451,259.924c0,1.257-0.014,2.5-0.298,3.73c-0.29,1.253,1.638,1.786,1.926,0.531
					c0.325-1.405,0.369-2.826,0.369-4.262C248.448,258.635,246.451,258.635,246.451,259.924z"/>
				<path fill="#A82D3D" d="M223.108,253.998c-0.329-1.245-2.255-0.716-1.925,0.531c0.61,2.313,0.629,4.683,0.629,7.059
					c0.001,1.289,1.998,1.289,1.997,0C223.809,259.036,223.765,256.48,223.108,253.998z"/>
				<path fill="#A82D3D" d="M229.801,273.908c-0.021,1.561-0.306,3.102-0.332,4.661c-0.021,1.288,1.978,1.286,1.999,0
					c0.025-1.56,0.311-3.101,0.332-4.661C231.818,272.619,229.819,272.62,229.801,273.908z"/>
				<path fill="#A82D3D" d="M240.492,280.301c-0.331,1.665-0.665,3.33-0.999,4.995c-0.25,1.258,1.674,1.794,1.929,0.53
					c0.332-1.664,0.664-3.329,0.998-4.994C242.672,279.574,240.745,279.038,240.492,280.301z"/>
				<path fill="#AA6100" d="M168.165,171.65c-3.053,2.535-6.941,3.803-10.119,6.17c-1.02,0.76-0.026,2.496,1.007,1.725
					c3.318-2.473,7.33-3.828,10.524-6.481C170.57,172.239,169.15,170.833,168.165,171.65z"/>
				<path fill="#AA6100" d="M167.035,178.818c-3.274,1.931-6.752,3.488-9.524,6.149c-0.932,0.894,0.484,2.306,1.413,1.413
					c2.642-2.536,6.001-3.997,9.121-5.837C169.154,179.889,168.149,178.163,167.035,178.818z"/>
				<path fill="#AA6100" d="M166.703,185.478c-2.319,1.04-4.339,2.621-6.658,3.662c-1.175,0.526-0.16,2.247,1.007,1.724
					c2.321-1.039,4.34-2.622,6.661-3.662C168.885,186.677,167.867,184.955,166.703,185.478z"/>
				<path fill="#AA6100" d="M175.359,178.818c-1.25,0.887-2.643,1.176-4.156,1.195c-1.285,0.018-1.288,2.016,0,1.998
					c1.838-0.023,3.646-0.391,5.165-1.468C177.409,179.804,176.412,178.072,175.359,178.818z"/>
				<path fill="#AA6100" d="M174.865,174.02h-3.662c-1.288,0-1.288,1.998,0,1.998h3.662
					C176.154,176.018,176.154,174.02,174.865,174.02z"/>
				<path fill="#AA6100" d="M176.931,167.396c-1.45,0.356-2.899,0.61-4.396,0.631c-1.287,0.019-1.289,2.017,0,1.998
					c1.668-0.023,3.311-0.304,4.927-0.701C178.713,169.018,178.183,167.091,176.931,167.396z"/>
				<path fill="#AA6100" d="M174.601,163.735c-3.614,0.541-6.689,2.835-10.323,3.329c-1.271,0.173-0.728,2.098,0.532,1.927
					c3.633-0.495,6.711-2.788,10.32-3.33C176.402,165.47,175.859,163.547,174.601,163.735z"/>
				<path fill="#AA6100" d="M176.358,185.81c-4.369,2.095-8.124,5.096-11.854,8.147c-1,0.816,0.423,2.222,1.411,1.412
					c3.604-2.946,7.232-5.813,11.451-7.834C178.529,186.978,177.515,185.257,176.358,185.81z"/>
				<path fill="#AA6100" d="M178.024,192.47c-1.909,0.955-3.822,1.908-5.661,2.996c-1.106,0.655-0.104,2.382,1.009,1.725
					c1.838-1.089,3.75-2.041,5.661-2.997C180.183,193.62,179.172,191.896,178.024,192.47z"/>
				<path fill="#A82D3D" d="M287.241,170.828c-3.182-2.051-6.727-3.369-10.227-4.763c-1.199-0.477-1.714,1.457-0.531,1.927
					c3.346,1.331,6.711,2.602,9.75,4.561C287.319,173.253,288.322,171.523,287.241,170.828z"/>
				<path fill="#A82D3D" d="M286.576,174.823c-2.091-1.359-4.374-2.349-6.659-3.329c-1.17-0.502-2.189,1.219-1.008,1.725
					c2.286,0.981,4.567,1.971,6.657,3.329C286.653,177.253,287.651,175.522,286.576,174.823z"/>
				<path fill="#A82D3D" d="M293.235,169.162c-2.279-1.628-4.563-3.253-6.991-4.66c-1.117-0.647-2.124,1.079-1.009,1.725
					c2.427,1.408,4.712,3.032,6.992,4.661C293.279,171.638,294.272,169.904,293.235,169.162z"/>
				<path fill="#A82D3D" d="M296.768,178.974c-1.558-1.918-3.409-3.722-5.769-4.586c-1.213-0.442-1.73,1.489-0.531,1.928
					c2.003,0.733,3.572,2.455,4.886,4.07C296.167,181.386,297.571,179.965,296.768,178.974z"/>
				<path fill="#A82D3D" d="M295.769,185.301c-1.567-1.549-3.277-2.949-4.994-4.328c-0.994-0.798-2.419,0.605-1.412,1.412
					c1.717,1.379,3.425,2.78,4.993,4.328C295.274,187.619,296.686,186.208,295.769,185.301z"/>
				<path fill="#A82D3D" d="M250.582,292.715c-1.739,2.351-4.138,4.138-5.66,6.66c-0.668,1.105,1.06,2.109,1.725,1.009
					c1.511-2.504,3.927-4.318,5.661-6.66C253.075,292.686,251.338,291.691,250.582,292.715z"/>
				<path fill="#A82D3D" d="M257.574,290.717c-1.62,2.55-3.561,4.807-5.837,6.791c-0.973,0.848,0.445,2.254,1.413,1.412
					c2.401-2.093,4.442-4.508,6.149-7.193C259.993,290.635,258.263,289.633,257.574,290.717z"/>
				<path fill="#A82D3D" d="M265.132,287.627c-0.734,2.311-2.547,4.072-4.072,5.885c-0.825,0.979,0.582,2.4,1.411,1.413
					c1.763-2.095,3.742-4.101,4.587-6.768C267.45,286.927,265.521,286.404,265.132,287.627z"/>
				<path fill="#A82D3D" d="M262.1,281.566c-0.038,1.547-0.631,2.915-1.529,4.156c-0.757,1.047,0.978,2.042,1.726,1.009
					c1.102-1.522,1.755-3.28,1.802-5.165C264.13,280.277,262.132,280.279,262.1,281.566z"/>
				<path fill="#A82D3D" d="M256.142,282.299c-0.342,1.836-1.107,3.53-2.407,4.887c-0.889,0.932,0.521,2.346,1.413,1.413
					c1.524-1.595,2.518-3.604,2.921-5.769C258.304,281.571,256.379,281.033,256.142,282.299z"/>
				<path fill="#A82D3D" d="M262.136,268.98c-0.741,2.699-2.313,5.065-3.331,7.659c-0.472,1.201,1.462,1.716,1.927,0.53
					c1.021-2.6,2.584-4.946,3.33-7.658C264.403,268.267,262.477,267.74,262.136,268.98z"/>
				<path fill="#A82D3D" d="M276.885,279.729c-1.05,2.36-2.532,4.471-4.171,6.458c-0.814,0.985,0.591,2.407,1.412,1.412
					c1.745-2.117,3.362-4.345,4.484-6.861C279.13,279.572,277.409,278.554,276.885,279.729z"/>
				<path fill="#A82D3D" d="M239.79,296.549c-0.027,1.082-0.64,1.879-1.37,2.624c-0.903,0.919,0.507,2.333,1.412,1.412
					c1.113-1.134,1.913-2.409,1.955-4.036C241.823,295.26,239.825,295.262,239.79,296.549z"/>
				<path fill="#A82D3D" d="M230.433,295.618c-0.233-1.267-2.158-0.729-1.926,0.53c0.274,1.487,0.274,2.977,0,4.464
					c-0.232,1.259,1.692,1.797,1.926,0.53C230.775,299.285,230.777,297.475,230.433,295.618z"/>
				<path fill="#A82D3D" d="M221.675,300.373c-0.701-1.426-1.295-2.902-1.998-4.329c-0.568-1.155-2.292-0.143-1.726,1.009
					c0.703,1.427,1.298,2.902,1.999,4.33C220.518,302.538,222.241,301.525,221.675,300.373z"/>
				<path fill="#AA6100" d="M217.015,301.039c-2.265-3.592-4.201-7.269-5.229-11.414c-0.308-1.251-2.235-0.721-1.924,0.53
					c1.063,4.308,3.071,8.157,5.427,11.892C215.974,303.134,217.703,302.132,217.015,301.039z"/>
				<path fill="#AA6100" d="M210.198,299.838c-1.189-1.508-2.187-3.147-3.173-4.793c-0.662-1.103-2.389-0.1-1.726,1.01
					c1.077,1.794,2.188,3.55,3.486,5.196C209.584,302.261,210.987,300.838,210.198,299.838z"/>
				<path fill="#AA6100" d="M211.121,284.631c-0.306-1.228-0.606-2.459-1-3.663c-0.396-1.22-2.325-0.697-1.924,0.53
					c0.391,1.204,0.69,2.436,0.999,3.663C209.508,286.411,211.436,285.88,211.121,284.631z"/>
			</g>
		</g>
	</g>
</g>
</svg>
