<?xml version="1.0" encoding="utf-8"?>
<!-- Generator: Adobe Illustrator 16.0.0, SVG Export Plug-In . SVG Version: 6.00 Build 0)  -->
<!DOCTYPE svg PUBLIC "-//W3C//DTD SVG 1.1//EN" "http://www.w3.org/Graphics/SVG/1.1/DTD/svg11.dtd">
<svg version="1.1" id="Ebene_1" xmlns="http://www.w3.org/2000/svg" xmlns:xlink="http://www.w3.org/1999/xlink" x="0px" y="0px"
	 width="450px" height="450px" viewBox="0 0 450 450" enable-background="new 0 0 450 450" xml:space="preserve">
<g>
	<g opacity="0.3">
		<path d="M341.354,149.369c6.179-4.855,12.063-9.995,16.997-16.214c1.02,0.028,2.028-0.23,2.892-0.855
			c1.754-1.26,2.114-3.152,1.632-4.844c-0.045-0.886-0.479-1.721-1.172-2.156c-0.137-0.156-0.274-0.303-0.417-0.443
			c-0.353-1.054-1.243-1.895-2.628-1.828c-0.504,0.027-1.018,0.119-1.51,0.253c-0.807-0.003-1.641,0.118-2.466,0.37
			c-1.528,0.464-2.165,2.475-1.806,3.8c0.009,0.043,0.031,0.08,0.041,0.123c-0.021,0.156-0.021,0.319-0.017,0.486
			c-0.216,0.31-0.414,0.639-0.581,0.995c-0.885,1.85-1.465,3.401-2.816,5.021c-1.783,2.139-8.795,9.011-9.402,9.491
			c-1.282,1.008-3.744,3.795-7.221,4.791c0,0,1.363,2.291,3.947,4.092C337.43,152.504,340.686,149.89,341.354,149.369z"/>
		<path d="M360.079,130.457c0.366-0.089,0.717-0.236,1.033-0.466c1.145-0.824,1.387-2.063,1.067-3.171
			c-0.029-0.58-0.313-1.128-0.768-1.413c-0.085-0.103-0.175-0.198-0.274-0.288c-0.229-0.688-0.811-1.24-1.715-1.198
			c-0.334,0.019-0.666,0.08-0.994,0.166c-0.525,0-1.066,0.08-1.613,0.24c-1.003,0.306-1.415,1.623-1.179,2.493
			c0.011,0.022,0.016,0.046,0.027,0.077c-0.017,0.104-0.017,0.208-0.017,0.319c-0.035,0.052-0.066,0.114-0.1,0.17
			c0.025,0.082,0.047,0.156,0.08,0.239C356.255,129.269,358.155,130.437,360.079,130.457z"/>
		<path d="M340.101,143.568c-1.282,1.008-3.744,3.795-7.221,4.791c0,0,1.363,2.291,3.947,4.092c0.603,0.054,3.858-2.561,4.526-3.081
			c4.653-3.659,9.153-7.487,13.194-11.813l-14.182,5.779C340.248,143.441,340.155,143.528,340.101,143.568z"/>
		<path d="M335.58,143.505c-18.066-28.202-67.069-5.588-99.818,1.499c-31.365,6.784-98.274-23.098-124.912,61.844
			c-17.61,56.146,48.488,139.695,100.103,130.726c68.901-11.976,82.333-64.052,92-101.055
			C310.369,208.154,364.886,189.257,335.58,143.505z"/>
		<path d="M335.58,143.505c-2.164-3.377-4.79-6.095-7.771-8.276c4.767,8.419,5.023,15.094,2.467,21.114
			c-1.826,8.773-7.317,16.729-13.715,22.881c-13.557,13.035-25.544,26.181-35.709,42.124c-7.941,12.454-14.649,25.51-21.981,38.294
			c-11.606,23.792-26.938,42.001-53.873,42.576c-2.053,0.308-4.105,0.556-6.151,0.71c-14.197,1.073-25.044-1.627-40.461-9.478
			c-11.693-6.545-22.067-15.853-29.105-24.917c-10.66-13.73-17.497-29.479-21.235-46.064
			c-3.437,55.309,55.878,123.276,102.907,115.104c68.901-11.976,82.333-64.052,92-101.055
			C310.369,208.154,364.886,189.257,335.58,143.505z"/>
		<path d="M126.687,227.955c3.158-1.29,6.559-2.142,10.434-0.944c3.524,1.087,7.006,3.846,10.621,6.648
			c3.197,2.483,6.308,5.402,9.22,8.983c2.651,3.263,5.082,6.842,7.234,10.832c2.147,3.991,4.343,7.858,5.53,11.715
			c1.303,4.244,1.563,8.302,1.707,12.03c0.165,4.208-0.709,7.681-2.002,10.735c-1.421,3.36-3.02,6.585-6.182,7.87
			c-3.158,1.292-7.045,0.684-10.918-0.509c-3.521-1.089-7.074-3.227-10.685-6.029c-3.199-2.487-6.48-5.306-9.392-8.89
			c-2.648-3.258-5.465-6.782-7.615-10.773c-2.15-3.992-2.96-8.174-4.147-12.03c-1.302-4.24-2.78-8.333-2.928-12.063
			c-0.165-4.207,0.688-7.897,1.978-10.949C120.964,231.218,123.53,229.243,126.687,227.955z"/>
		<path opacity="0.3" d="M130.698,253.409c9.081-1.376,21.114,0.177,28.13,11.334c5.036,8.014,0.613,17.922-3.803,24.785
			c-0.086,0.25-0.074,0.259,0.024,0.02c2.212-16.775-9.564-27.188-22.526-35.974"/>
		<path d="M159.988,267.012c0.662,0.396-0.309,2.138-0.507,3.017c-0.356,1.554-3.133,3.598-2.53,0.917
			c-0.458,1.009-0.943,3.287-2.485,3.438c-1.667,0.164-1.489-1.328-1.427-2.516c-0.452,1.274-1.268,3.407-2.894,3.183
			c-2.109-0.292-1.029-2.294-0.559-3.533c-0.6,0.92-2.099,2.551-3.38,1.554c-1.17-0.912,0.188-2.834,0.356-3.878
			c-0.811,0.419-2.606,1.751-3.414,0.646c-0.752-1.026,1.084-3.575,1.689-4.258c-0.939,0.75-3.209,1.821-3.702,0.368
			c-0.427-1.251,1.75-3.246,2.463-4.039c-0.842,0.493-1.625-0.044-1.435-1.011c0.199-1.03,2.555-2.104,3.424-2.577
			c-1.672,0.402-1.997-0.341-0.813-1.383c1.06-0.932,3.312-1.141,4.468-1.123c0,0,3.522,1.325,6.275,4.704
			C158.276,263.902,159.988,267.012,159.988,267.012z"/>
		<path d="M160.014,268.671c0.272-0.754,0.491-1.52,0.081-1.764c0,0-1.715-3.11-4.471-6.491c-0.939-1.155-1.965-2.055-2.914-2.758
			c-0.16-0.026-0.314-0.06-0.475-0.082l-0.35-0.495c-1.438-0.942-2.536-1.371-2.536-1.371c-0.083,0-0.185,0.002-0.279,0.003
			c-1.597,0.408-3.271,0.899-3.685,2.559c0.102-0.018,0.195-0.026,0.311-0.054c-0.102,0.054-0.223,0.116-0.355,0.188
			c-0.004,0.008-0.01,0.017-0.012,0.027c1.433,0.779,3.182,0.571,4.634-0.116c-0.655,0.434-3.122,1.884-2.524,3.033
			c0.678,1.314,3.132-0.293,3.95-0.618c-1.89,2.143-0.854,3.09,1.48,1.863c-1.866,1.935-0.321,3.771,1.282,2.629
			c-1.151,1.876,0.873,3.991,2.533,1.902c-0.982,1.748,0.066,2.896,1.731,0.786C157.873,269.804,159.085,269.471,160.014,268.671z"
			/>
		<path d="M147.804,263.197c-2.256-1.969-4.435,2.956-2.176,2.195c-1.639-0.004-0.846,2.122,0.539,2.153
			c-0.564,1.212,0.595,2.312,1.789,2.02c-0.244,2.219,1.673,2.103,2.72,1.361c0.674-0.479,0.93-0.154,1.098-1.389
			c0.108-0.803,0.073-1.606-0.534-1.137c2.114-1.159-0.699-3.83-1.066-2.167c1.569-0.759-0.419-3.285-1.829-1.957"/>
		<path opacity="0.4" d="M302.952,236.519c6.816-26.066,53.398-44.14,38.164-82.402L127.352,285.869
			c20.702,32.338,54.459,56.769,83.601,51.705C279.854,325.598,293.285,273.522,302.952,236.519z"/>
		<circle cx="146.424" cy="181.016" r="1.924"/>
		<circle cx="157.799" cy="170.776" r="2.417"/>
		<circle cx="165.863" cy="190.719" r="2.544"/>
		<circle cx="153.68" cy="196.193" r="1.661"/>
		<circle cx="157.799" cy="183.435" r="2.417"/>
		<circle cx="171.073" cy="179.782" r="2.667"/>
		<circle cx="174.981" cy="169.598" r="1.241"/>
		<circle cx="167.135" cy="163.18" r="1.272"/>
		<circle cx="156.591" cy="159.643" r="1.208"/>
		<circle cx="140.09" cy="171.675" r="2.075"/>
		<circle cx="134.356" cy="198.835" r="3.658"/>
		<circle cx="150.184" cy="208.156" r="1.835"/>
		<circle cx="169.787" cy="209.536" r="1.38"/>
		<circle cx="185.897" cy="196.007" r="3.721"/>
		<path d="M142.018,216.732c0,1.106-0.896,2.005-2.004,2.005c-1.104,0-2-0.898-2-2.005c0-1.104,0.896-2,2-2
			C141.123,214.732,142.018,215.628,142.018,216.732z"/>
		<circle cx="154.511" cy="223.599" r="0.83"/>
		<ellipse cx="189.618" cy="168.98" rx="0" ry="0.618"/>
		<circle cx="200.812" cy="161.412" r="1.769"/>
		<circle cx="210.706" cy="160.172" r="1.737"/>
		<circle cx="201.932" cy="177.607" r="1.119"/>
		<circle cx="191.85" cy="171.831" r="2.232"/>
		<circle cx="210.241" cy="290.729" r="3.722"/>
		<circle cx="260.573" cy="240.853" r="2.116"/>
		<circle cx="211.202" cy="275.885" r="2.232"/>
		<circle cx="219.017" cy="267.329" r="1.859"/>
		<circle cx="238.25" cy="276.146" r="2.495"/>
		<circle cx="237.868" cy="265.975" r="2.113"/>
		<circle cx="235.754" cy="252.816" r="3.468"/>
		<circle cx="207.232" cy="256.404" r="1.737"/>
		<circle cx="277.42" cy="243.172" r="2.791"/>
		<circle cx="271.371" cy="218" r="2.114"/>
		<circle cx="289.587" cy="226.272" r="1.226"/>
		<circle cx="296.052" cy="213.792" r="3.232"/>
		<circle cx="252.858" cy="255.531" r="1.714"/>
		<circle cx="191.85" cy="283.186" r="2.232"/>
		<circle cx="268.397" cy="266.724" r="2.863"/>
		<circle cx="263.054" cy="282.916" r="2.48"/>
		<circle cx="234.402" cy="287.479" r="2.594"/>
		<circle cx="284.875" cy="264.177" r="2.232"/>
		<circle cx="275.567" cy="277.065" r="1.854"/>
		<circle cx="253.834" cy="275.017" r="0.974"/>
		<circle cx="258.458" cy="298.26" r="1.805"/>
		<circle cx="230.55" cy="305.042" r="1.735"/>
		<circle cx="243.074" cy="312.758" r="2.115"/>
		<circle cx="245.189" cy="296.077" r="2.116"/>
		<circle cx="210.241" cy="308.05" r="1.272"/>
		<circle cx="221.091" cy="319.332" r="2.083"/>
	</g>
	<g>
		<g>
			<g>
				<path fill="#5F4B3B" d="M335.685,143.7c6.179-4.855,12.063-9.995,16.997-16.214c1.02,0.028,2.028-0.23,2.892-0.855
					c1.754-1.26,2.114-3.152,1.632-4.844c-0.045-0.886-0.479-1.721-1.172-2.156c-0.137-0.156-0.274-0.303-0.417-0.443
					c-0.353-1.054-1.243-1.895-2.628-1.828c-0.504,0.027-1.018,0.119-1.51,0.253c-0.807-0.003-1.641,0.118-2.466,0.37
					c-1.528,0.464-2.165,2.475-1.806,3.8c0.009,0.043,0.031,0.08,0.041,0.123c-0.021,0.156-0.021,0.319-0.017,0.486
					c-0.216,0.31-0.414,0.639-0.581,0.995c-0.885,1.85-1.465,3.401-2.816,5.021c-1.783,2.139-8.795,9.011-9.402,9.491
					c-1.282,1.008-3.744,3.795-7.221,4.791c0,0,1.363,2.291,3.947,4.092C331.761,146.835,335.017,144.22,335.685,143.7z"/>
				<path fill="#917860" d="M354.41,124.788c0.366-0.089,0.717-0.236,1.033-0.466c1.145-0.824,1.387-2.063,1.067-3.171
					c-0.029-0.58-0.313-1.128-0.768-1.413c-0.085-0.103-0.175-0.198-0.274-0.288c-0.229-0.688-0.811-1.24-1.715-1.198
					c-0.334,0.019-0.666,0.08-0.994,0.166c-0.525,0-1.066,0.08-1.613,0.24c-1.003,0.306-1.415,1.623-1.179,2.493
					c0.011,0.022,0.016,0.046,0.027,0.077c-0.017,0.104-0.017,0.208-0.017,0.319c-0.035,0.052-0.066,0.114-0.1,0.17
					c0.025,0.082,0.047,0.156,0.08,0.239C350.586,123.599,352.486,124.767,354.41,124.788z"/>
				<path fill="#3F3127" d="M334.432,137.898c-1.282,1.008-3.744,3.795-7.221,4.791c0,0,1.363,2.291,3.947,4.092
					c0.603,0.054,3.858-2.561,4.526-3.081c4.653-3.659,9.153-7.487,13.194-11.813l-14.182,5.779
					C334.579,137.771,334.486,137.858,334.432,137.898z"/>
			</g>
			<path fill="#C3BD3B" d="M329.911,137.836c-18.066-28.202-67.069-5.588-99.818,1.499c-31.365,6.784-98.274-23.098-124.912,61.844
				c-17.61,56.146,48.488,139.695,100.103,130.727c68.901-11.976,82.333-64.052,92-101.055
				C304.7,202.484,359.217,183.588,329.911,137.836z"/>
			<path fill="#C1B13E" d="M329.911,137.836c-2.164-3.377-4.79-6.095-7.771-8.276c4.767,8.419,5.023,15.094,2.467,21.114
				c-1.826,8.773-7.317,16.729-13.715,22.881c-13.557,13.035-25.544,26.181-35.709,42.124
				c-7.941,12.454-14.649,25.511-21.981,38.295c-11.606,23.792-26.938,42.001-53.873,42.576c-2.053,0.308-4.105,0.556-6.151,0.71
				c-14.197,1.073-25.044-1.627-40.461-9.478c-11.693-6.545-22.067-15.853-29.105-24.917c-10.66-13.73-17.497-29.479-21.235-46.064
				c-3.437,55.31,55.878,123.276,102.907,115.104c68.901-11.976,82.333-64.052,92-101.055
				C304.7,202.484,359.217,183.588,329.911,137.836z"/>
			<path fill="#C1B13E" d="M121.018,222.286c3.158-1.29,6.559-2.142,10.434-0.944c3.524,1.087,7.006,3.846,10.621,6.648
				c3.197,2.483,6.308,5.402,9.22,8.983c2.651,3.263,5.082,6.842,7.234,10.832c2.147,3.991,4.343,7.858,5.53,11.715
				c1.303,4.244,1.563,8.302,1.707,12.03c0.165,4.208-0.709,7.681-2.002,10.735c-1.421,3.36-3.02,6.585-6.182,7.87
				c-3.158,1.292-7.045,0.684-10.918-0.509c-3.521-1.089-7.074-3.227-10.685-6.029c-3.199-2.487-6.48-5.306-9.392-8.89
				c-2.648-3.258-5.465-6.782-7.615-10.773c-2.15-3.992-2.96-8.174-4.147-12.03c-1.302-4.24-2.78-8.333-2.928-12.063
				c-0.165-4.207,0.688-7.897,1.978-10.949C115.294,225.549,117.861,223.574,121.018,222.286z"/>
			<g>
				<path opacity="0.3" fill="#9E690F" d="M125.029,247.74c9.081-1.376,21.114,0.177,28.13,11.334
					c5.036,8.014,0.613,17.922-3.803,24.785c-0.086,0.25-0.074,0.259,0.024,0.02c2.212-16.775-9.564-27.188-22.526-35.974"/>
				<path fill="#5F4B3B" d="M154.319,261.344c0.662,0.396-0.309,2.138-0.507,3.017c-0.356,1.554-3.133,3.598-2.53,0.917
					c-0.458,1.009-0.943,3.287-2.485,3.438c-1.667,0.164-1.489-1.328-1.427-2.516c-0.452,1.274-1.268,3.407-2.894,3.183
					c-2.109-0.292-1.029-2.294-0.559-3.533c-0.6,0.92-2.099,2.551-3.38,1.554c-1.17-0.912,0.188-2.834,0.356-3.878
					c-0.811,0.419-2.606,1.751-3.414,0.646c-0.752-1.026,1.084-3.575,1.689-4.258c-0.939,0.75-3.209,1.821-3.702,0.368
					c-0.427-1.251,1.75-3.246,2.463-4.039c-0.842,0.493-1.625-0.044-1.435-1.011c0.199-1.03,2.555-2.104,3.424-2.577
					c-1.672,0.402-1.997-0.341-0.813-1.383c1.06-0.932,3.312-1.141,4.468-1.123c0,0,3.522,1.325,6.275,4.704
					C152.607,258.233,154.319,261.344,154.319,261.344z"/>
				<path fill="#3F3127" d="M154.345,263.002c0.272-0.754,0.491-1.52,0.081-1.764c0,0-1.715-3.11-4.471-6.491
					c-0.939-1.155-1.965-2.055-2.914-2.758c-0.16-0.026-0.314-0.06-0.475-0.082l-0.35-0.495c-1.438-0.942-2.536-1.371-2.536-1.371
					c-0.083,0-0.185,0.002-0.279,0.003c-1.597,0.408-3.271,0.899-3.685,2.559c0.102-0.018,0.195-0.026,0.311-0.054
					c-0.102,0.054-0.223,0.116-0.355,0.188c-0.004,0.008-0.01,0.017-0.012,0.027c1.433,0.779,3.182,0.571,4.634-0.116
					c-0.655,0.434-3.122,1.884-2.524,3.033c0.678,1.314,3.132-0.293,3.95-0.618c-1.89,2.143-0.854,3.09,1.48,1.863
					c-1.866,1.935-0.321,3.771,1.282,2.629c-1.151,1.876,0.873,3.991,2.533,1.902c-0.982,1.748,0.066,2.896,1.731,0.786
					C152.203,264.135,153.415,263.802,154.345,263.002z"/>
				<path fill="#917860" d="M142.135,257.528c-2.256-1.969-4.435,2.956-2.176,2.195c-1.639-0.004-0.846,2.122,0.539,2.153
					c-0.564,1.212,0.595,2.312,1.789,2.02c-0.244,2.219,1.673,2.103,2.72,1.361c0.674-0.479,0.93-0.154,1.098-1.389
					c0.108-0.803,0.073-1.606-0.534-1.137c2.114-1.159-0.699-3.83-1.066-2.167c1.569-0.759-0.419-3.285-1.829-1.957"/>
			</g>
			<path opacity="0.4" fill="#DFCD62" d="M297.283,230.85c6.816-26.066,53.398-44.141,38.164-82.402L121.683,280.2
				c20.702,32.338,54.459,56.769,83.601,51.705C274.185,319.929,287.616,267.853,297.283,230.85z"/>
			<g>
				<circle fill="#D6CE56" cx="140.755" cy="175.346" r="1.924"/>
				<circle fill="#D6CE56" cx="152.13" cy="165.106" r="2.417"/>
				<circle fill="#D6CE56" cx="160.194" cy="185.05" r="2.544"/>
				<circle fill="#D6CE56" cx="148.011" cy="190.523" r="1.661"/>
				<circle fill="#D6CE56" cx="152.13" cy="177.765" r="2.417"/>
				<circle fill="#D6CE56" cx="165.404" cy="174.113" r="2.667"/>
				<circle fill="#D6CE56" cx="169.311" cy="163.928" r="1.241"/>
				<circle fill="#D6CE56" cx="161.466" cy="157.51" r="1.272"/>
				<circle fill="#D6CE56" cx="150.921" cy="153.973" r="1.208"/>
				<circle fill="#D6CE56" cx="134.42" cy="166.006" r="2.075"/>
				<circle fill="#D6CE56" cx="128.687" cy="193.166" r="3.658"/>
				<circle fill="#D6CE56" cx="144.514" cy="202.486" r="1.835"/>
				<circle fill="#D6CE56" cx="164.118" cy="203.867" r="1.38"/>
				<circle fill="#D6CE56" cx="180.227" cy="190.338" r="3.721"/>
				<path fill="#D6CE56" d="M136.349,211.062c0,1.106-0.896,2.005-2.004,2.005c-1.104,0-2-0.898-2-2.005c0-1.104,0.896-2,2-2
					C135.453,209.062,136.349,209.959,136.349,211.062z"/>
				<circle fill="#D6CE56" cx="148.842" cy="217.929" r="0.83"/>
				<ellipse fill="#D6CE56" cx="183.948" cy="163.31" rx="0" ry="0.618"/>
				<circle fill="#D6CE56" cx="195.143" cy="155.743" r="1.769"/>
				<circle fill="#D6CE56" cx="205.037" cy="154.503" r="1.737"/>
				<circle fill="#D6CE56" cx="196.263" cy="171.937" r="1.119"/>
				<circle fill="#D6CE56" cx="186.181" cy="166.162" r="2.232"/>
			</g>
			<g opacity="0.5">
				<circle fill="#DFCD62" cx="204.572" cy="285.06" r="3.722"/>
				<circle fill="#DFCD62" cx="254.904" cy="235.184" r="2.116"/>
				<circle fill="#DFCD62" cx="205.532" cy="270.216" r="2.232"/>
				<circle fill="#DFCD62" cx="213.348" cy="261.66" r="1.859"/>
				<circle fill="#DFCD62" cx="232.581" cy="270.477" r="2.495"/>
				<circle fill="#DFCD62" cx="232.199" cy="260.306" r="2.113"/>
				<circle fill="#DFCD62" cx="230.085" cy="247.147" r="3.468"/>
				<circle fill="#DFCD62" cx="201.563" cy="250.735" r="1.737"/>
				<circle fill="#DFCD62" cx="271.751" cy="237.503" r="2.791"/>
				<circle fill="#DFCD62" cx="265.702" cy="212.331" r="2.114"/>
				<circle fill="#DFCD62" cx="283.918" cy="220.603" r="1.226"/>
				<circle fill="#DFCD62" cx="290.383" cy="208.123" r="3.232"/>
				<circle fill="#DFCD62" cx="247.189" cy="249.862" r="1.714"/>
				<circle fill="#DFCD62" cx="186.181" cy="277.517" r="2.232"/>
				<circle fill="#DFCD62" cx="262.728" cy="261.055" r="2.863"/>
				<circle fill="#DFCD62" cx="257.385" cy="277.247" r="2.48"/>
				<circle fill="#DFCD62" cx="228.733" cy="281.81" r="2.594"/>
				<circle fill="#DFCD62" cx="279.206" cy="258.508" r="2.232"/>
				<circle fill="#DFCD62" cx="269.898" cy="271.396" r="1.854"/>
				<circle fill="#DFCD62" cx="248.165" cy="269.348" r="0.974"/>
				<circle fill="#DFCD62" cx="252.789" cy="292.591" r="1.805"/>
				<circle fill="#DFCD62" cx="224.881" cy="299.373" r="1.735"/>
				<circle fill="#DFCD62" cx="237.406" cy="307.089" r="2.115"/>
				<circle fill="#DFCD62" cx="239.52" cy="290.408" r="2.116"/>
				<circle fill="#DFCD62" cx="204.572" cy="302.381" r="1.272"/>
				<circle fill="#DFCD62" cx="215.421" cy="313.663" r="2.083"/>
			</g>
		</g>
	</g>
</g>
</svg>
