<?xml version="1.0" encoding="utf-8"?>
<!-- Generator: Adobe Illustrator 16.0.0, SVG Export Plug-In . SVG Version: 6.00 Build 0)  -->
<!DOCTYPE svg PUBLIC "-//W3C//DTD SVG 1.1//EN" "http://www.w3.org/Graphics/SVG/1.1/DTD/svg11.dtd">
<svg version="1.1" id="Ebene_1" xmlns="http://www.w3.org/2000/svg" xmlns:xlink="http://www.w3.org/1999/xlink" x="0px" y="0px"
	 width="450px" height="450px" viewBox="0 0 450 450" enable-background="new 0 0 450 450" xml:space="preserve">
<g>
	<g opacity="0.3">
		<path d="M333.621,151.226c5.799-4.555,11.318-9.376,15.945-15.21c0.957,0.027,1.902-0.216,2.713-0.802
			c1.645-1.182,1.984-2.957,1.531-4.544c-0.042-0.831-0.449-1.614-1.1-2.022c-0.127-0.146-0.258-0.284-0.393-0.416
			c-0.328-0.988-1.164-1.777-2.463-1.715c-0.473,0.025-0.955,0.111-1.416,0.237c-0.758-0.003-1.539,0.11-2.314,0.347
			c-1.433,0.436-2.03,2.321-1.693,3.564c0.008,0.04,0.029,0.075,0.039,0.115c-0.021,0.146-0.021,0.3-0.017,0.457
			c-0.202,0.29-0.389,0.599-0.544,0.933c-0.83,1.735-1.375,3.191-2.643,4.71c-1.672,2.006-8.25,8.453-8.82,8.903
			c-1.203,0.945-3.512,3.56-6.773,4.494c0,0,1.279,2.149,3.703,3.839C329.942,154.167,332.996,151.715,333.621,151.226z"/>
		<path d="M351.19,133.486c0.342-0.084,0.672-0.223,0.969-0.438c1.074-0.773,1.301-1.935,1-2.975
			c-0.027-0.544-0.293-1.058-0.721-1.325c-0.078-0.097-0.162-0.187-0.256-0.271c-0.214-0.646-0.76-1.163-1.608-1.124
			c-0.313,0.018-0.624,0.075-0.933,0.156c-0.492,0-1,0.074-1.514,0.225c-0.941,0.287-1.328,1.522-1.105,2.339
			c0.01,0.021,0.014,0.043,0.025,0.072c-0.016,0.098-0.016,0.195-0.016,0.3c-0.032,0.049-0.063,0.107-0.094,0.159
			c0.025,0.077,0.045,0.146,0.076,0.225C347.602,132.371,349.383,133.467,351.19,133.486z"/>
		<path d="M332.448,145.784c-1.203,0.945-3.512,3.56-6.773,4.494c0,0,1.279,2.149,3.703,3.839c0.564,0.05,3.619-2.402,4.244-2.891
			c4.367-3.433,8.588-7.023,12.379-11.082l-13.303,5.422C332.586,145.665,332.497,145.747,332.448,145.784z"/>
		<path d="M328.207,145.725c-16.948-26.455-62.915-5.242-93.637,1.406c-29.423,6.364-92.188-21.667-117.176,58.014
			c-16.519,52.669,45.485,131.043,93.904,122.63c64.633-11.234,77.232-60.085,86.301-94.796
			C304.557,206.37,355.698,188.643,328.207,145.725z"/>
		<path d="M132.252,224.945c2.963-1.21,6.152-2.009,9.787-0.886c3.305,1.02,6.572,3.607,9.963,6.236c3,2.33,5.916,5.068,8.648,8.427
			c2.488,3.062,4.768,6.419,6.786,10.162c2.015,3.744,4.075,7.371,5.188,10.989c1.223,3.98,1.466,7.787,1.602,11.285
			c0.154,3.947-0.666,7.204-1.879,10.07c-1.333,3.152-2.832,6.177-5.798,7.383c-2.962,1.212-6.608,0.641-10.242-0.478
			c-3.304-1.021-6.636-3.027-10.024-5.656c-3-2.333-6.078-4.977-8.809-8.339c-2.484-3.056-5.126-6.362-7.143-10.106
			c-2.018-3.744-2.777-7.667-3.893-11.285c-1.22-3.978-2.606-7.816-2.746-11.316c-0.154-3.946,0.645-7.408,1.856-10.271
			C126.881,228.006,129.289,226.153,132.252,224.945z"/>
		<path d="M298.082,231.377c0.096-0.287,0.189-0.574,0.293-0.859c0.045-0.118,0.094-0.234,0.138-0.352
			c0.11-0.288,0.22-0.577,0.341-0.863c0.049-0.119,0.105-0.238,0.157-0.356c0.123-0.282,0.243-0.565,0.376-0.847
			c0.055-0.119,0.117-0.237,0.174-0.356c0.136-0.28,0.27-0.561,0.412-0.839c0.057-0.108,0.117-0.216,0.174-0.322
			c0.152-0.289,0.305-0.578,0.466-0.864c0.054-0.098,0.114-0.193,0.169-0.29c0.168-0.297,0.338-0.595,0.518-0.89
			c0.049-0.08,0.1-0.16,0.148-0.239c0.191-0.312,0.385-0.624,0.585-0.934c0.042-0.066,0.086-0.131,0.128-0.196
			c0.213-0.325,0.428-0.649,0.646-0.973c0.031-0.044,0.063-0.087,0.092-0.13c0.238-0.346,0.479-0.691,0.728-1.034
			c0.013-0.02,0.028-0.039,0.042-0.058c14.857-20.588,47.063-38.714,25.189-74.197c-0.217-0.35-0.424-0.698-0.65-1.052
			c-2.276-3.553-5.08-6.238-8.295-8.223c5.762,12.775-8.265,22.124-15.775,24.496c-9.911,3.131-28.021,16.254-33.106,25.63
			c-6.42,11.839-9.165,16.375-13.476,28.669c-13.356,38.088-37.556,52.979-69.762,52.979c-22.284,0-32.494-10.169-44.916-15.959
			c-5.004-2.333-12.787-8.471-16.809-12.381c-2.459-2.391-5.977-4.87-9.6-14.47c-0.617-2.175-1.184-4.366-1.682-6.574
			c-2.865,51.313,52.445,115.54,96.512,107.883c64.633-11.234,77.232-60.085,86.301-94.796c0.109-0.414,0.228-0.825,0.355-1.235
			C297.996,231.621,298.042,231.499,298.082,231.377z"/>
		<path opacity="0.3" d="M136.014,248.823c8.52-1.291,19.807,0.165,26.388,10.632c4.724,7.518,0.575,16.812-3.567,23.25
			c-0.08,0.234-0.069,0.243,0.022,0.019c2.075-15.736-8.972-25.504-21.13-33.746"/>
		<path d="M163.49,261.584c0.621,0.371-0.29,2.005-0.477,2.83c-0.334,1.457-2.939,3.375-2.373,0.859
			c-0.43,0.947-0.885,3.084-2.332,3.225c-1.563,0.154-1.396-1.245-1.338-2.359c-0.425,1.195-1.188,3.196-2.715,2.985
			c-1.979-0.273-0.966-2.151-0.523-3.314c-0.563,0.863-1.969,2.394-3.17,1.458c-1.098-0.855,0.176-2.658,0.333-3.638
			c-0.761,0.393-2.444,1.643-3.202,0.606c-0.705-0.963,1.017-3.354,1.584-3.994c-0.881,0.703-3.01,1.708-3.471,0.345
			c-0.402-1.173,1.641-3.045,2.31-3.788c-0.79,0.462-1.524-0.042-1.347-0.948c0.188-0.967,2.396-1.975,3.212-2.418
			c-1.568,0.378-1.872-0.319-0.763-1.297c0.995-0.874,3.107-1.07,4.192-1.054c0,0,3.304,1.243,5.887,4.413
			C161.883,258.666,163.49,261.584,163.49,261.584z"/>
		<path d="M163.514,263.139c0.256-0.707,0.462-1.426,0.077-1.654c0,0-1.608-2.918-4.194-6.09c-0.881-1.083-1.844-1.927-2.733-2.587
			c-0.149-0.024-0.296-0.056-0.444-0.076l-0.328-0.465c-1.351-0.884-2.381-1.286-2.381-1.286c-0.076,0-0.172,0.002-0.262,0.003
			c-1.496,0.383-3.068,0.844-3.455,2.399c0.096-0.017,0.184-0.024,0.291-0.05c-0.096,0.05-0.209,0.108-0.334,0.176
			c-0.003,0.007-0.009,0.016-0.01,0.025c1.342,0.731,2.984,0.536,4.346-0.109c-0.615,0.407-2.928,1.768-2.367,2.846
			c0.635,1.233,2.936-0.274,3.703-0.58c-1.771,2.01-0.801,2.898,1.39,1.748c-1.749,1.814-0.3,3.538,1.204,2.466
			c-1.082,1.761,0.818,3.744,2.376,1.785c-0.921,1.64,0.063,2.717,1.624,0.737C161.506,264.203,162.642,263.89,163.514,263.139z"/>
		<path d="M152.061,258.005c-2.115-1.847-4.16,2.772-2.041,2.06c-1.537-0.004-0.793,1.99,0.506,2.02
			c-0.529,1.137,0.557,2.168,1.678,1.895c-0.229,2.081,1.568,1.973,2.551,1.277c0.633-0.45,0.873-0.145,1.029-1.303
			c0.104-0.753,0.07-1.507-0.5-1.066c1.982-1.088-0.654-3.593-1-2.033c1.471-0.711-0.395-3.081-1.717-1.836"/>
		<path opacity="0.3" d="M297.6,232.979c6.395-24.452,50.092-41.407,35.801-77.299c0,0-61.953,48.138-99.518,71.292
			c-37.566,23.154-101.008,52.3-101.008,52.3c19.42,30.335,51.086,53.253,78.424,48.503
			C275.932,316.541,288.531,267.69,297.6,232.979z"/>
		<circle cx="150.766" cy="180.913" r="1.805"/>
		<circle cx="161.437" cy="171.306" r="2.267"/>
		<circle cx="169" cy="190.015" r="2.387"/>
		<circle cx="157.573" cy="195.15" r="1.558"/>
		<path d="M163.703,183.182c0,1.25-1.016,2.265-2.268,2.265c-1.253,0-2.266-1.015-2.266-2.265c0-1.254,1.013-2.27,2.266-2.27
			C162.688,180.913,163.703,181.928,163.703,183.182z"/>
		<circle cx="173.889" cy="179.756" r="2.502"/>
		<path d="M178.717,170.202c0,0.645-0.52,1.165-1.165,1.165c-0.642,0-1.161-0.521-1.161-1.165c0-0.642,0.52-1.162,1.161-1.162
			C178.198,169.04,178.717,169.56,178.717,170.202z"/>
		<circle cx="170.194" cy="164.181" r="1.193"/>
		<path d="M161.436,160.863c0,0.629-0.511,1.136-1.135,1.136c-0.625,0-1.131-0.507-1.131-1.136c0-0.625,0.506-1.132,1.131-1.132
			C160.925,159.731,161.436,160.238,161.436,160.863z"/>
		<circle cx="144.823" cy="172.15" r="1.946"/>
		<circle cx="139.446" cy="197.629" r="3.432"/>
		<circle cx="154.293" cy="206.372" r="1.722"/>
		<circle cx="172.682" cy="207.667" r="1.295"/>
		<circle cx="187.793" cy="194.975" r="3.49"/>
		<path d="M146.633,214.417c0,1.038-0.84,1.881-1.881,1.881c-1.035,0-1.875-0.843-1.875-1.881c0-1.035,0.84-1.876,1.875-1.876
			C145.793,212.541,146.633,213.382,146.633,214.417z"/>
		<circle cx="158.353" cy="220.858" r="0.778"/>
		<ellipse cx="191.283" cy="169.622" rx="0" ry="0.58"/>
		<circle cx="201.785" cy="162.523" r="1.659"/>
		<circle cx="211.067" cy="161.36" r="1.63"/>
		<circle cx="202.835" cy="177.715" r="1.05"/>
		<circle cx="193.378" cy="172.297" r="2.095"/>
		<circle cx="210.63" cy="283.832" r="3.491"/>
		<circle cx="257.845" cy="237.045" r="1.985"/>
		<circle cx="211.531" cy="269.906" r="2.094"/>
		<circle cx="218.864" cy="261.881" r="1.744"/>
		<circle cx="236.905" cy="270.152" r="2.34"/>
		<circle cx="236.547" cy="260.611" r="1.982"/>
		<circle cx="234.563" cy="248.266" r="3.254"/>
		<circle cx="207.807" cy="251.633" r="1.629"/>
		<circle cx="273.649" cy="239.219" r="2.618"/>
		<circle cx="267.976" cy="215.606" r="1.983"/>
		<circle cx="285.062" cy="223.367" r="1.149"/>
		<circle cx="291.127" cy="211.659" r="3.032"/>
		<circle cx="250.608" cy="250.813" r="1.608"/>
		<circle cx="193.378" cy="276.756" r="2.095"/>
		<circle cx="265.185" cy="261.313" r="2.685"/>
		<circle cx="260.173" cy="276.502" r="2.327"/>
		<circle cx="233.295" cy="280.783" r="2.434"/>
		<circle cx="280.642" cy="258.924" r="2.095"/>
		<circle cx="271.911" cy="271.013" r="1.739"/>
		<path d="M252.438,269.093c0,0.506-0.408,0.915-0.916,0.915c-0.504,0-0.912-0.409-0.912-0.915c0-0.505,0.408-0.913,0.912-0.913
			C252.03,268.179,252.438,268.588,252.438,269.093z"/>
		<circle cx="255.861" cy="290.895" r="1.694"/>
		<circle cx="229.681" cy="297.258" r="1.628"/>
		<circle cx="241.43" cy="304.496" r="1.984"/>
		<circle cx="243.414" cy="288.848" r="1.984"/>
		<circle cx="210.631" cy="300.079" r="1.194"/>
		<circle cx="220.808" cy="310.663" r="1.954"/>
	</g>
	<g>
		<g>
			<g>
				<path fill="#5F4B3B" d="M328.305,145.909c5.796-4.555,11.316-9.376,15.943-15.21c0.957,0.026,1.902-0.216,2.713-0.803
					c1.645-1.182,1.984-2.957,1.531-4.544c-0.043-0.83-0.449-1.614-1.1-2.022c-0.128-0.146-0.258-0.284-0.391-0.416
					c-0.33-0.988-1.166-1.777-2.465-1.715c-0.473,0.025-0.955,0.112-1.418,0.237c-0.756-0.003-1.538,0.111-2.313,0.348
					c-1.434,0.435-2.031,2.321-1.693,3.564c0.008,0.04,0.029,0.075,0.039,0.115c-0.02,0.146-0.02,0.3-0.016,0.456
					c-0.203,0.29-0.389,0.6-0.545,0.934c-0.83,1.735-1.375,3.19-2.643,4.71c-1.673,2.006-8.25,8.452-8.82,8.903
					c-1.203,0.945-3.512,3.56-6.773,4.494c0,0,1.279,2.148,3.703,3.838C324.623,148.849,327.678,146.397,328.305,145.909z"/>
				<path fill="#907860" d="M345.87,128.168c0.344-0.083,0.673-0.222,0.97-0.437c1.073-0.773,1.301-1.936,1.001-2.975
					c-0.027-0.544-0.294-1.059-0.72-1.326c-0.08-0.096-0.164-0.186-0.258-0.27c-0.215-0.646-0.76-1.164-1.609-1.124
					c-0.313,0.017-0.624,0.074-0.932,0.155c-0.493,0-1,0.075-1.514,0.226c-0.941,0.286-1.327,1.522-1.105,2.339
					c0.01,0.021,0.014,0.043,0.025,0.072c-0.016,0.097-0.016,0.195-0.016,0.3c-0.033,0.048-0.063,0.106-0.094,0.159
					c0.024,0.077,0.045,0.146,0.076,0.225C342.283,127.052,344.065,128.148,345.87,128.168z"/>
				<path fill="#3F3127" d="M327.129,140.467c-1.203,0.945-3.512,3.56-6.773,4.494c0,0,1.279,2.148,3.703,3.838
					c0.564,0.051,3.619-2.401,4.246-2.89c4.365-3.433,8.586-7.024,12.377-11.082l-13.303,5.421
					C327.268,140.347,327.18,140.428,327.129,140.467z"/>
			</g>
			<path fill="#C2BC3B" d="M322.889,140.408c-16.947-26.456-62.916-5.242-93.637,1.406c-29.422,6.363-92.188-21.668-117.176,58.013
				c-16.52,52.669,45.486,131.044,93.903,122.63c64.634-11.233,77.233-60.084,86.302-94.796
				C299.239,201.052,350.379,183.326,322.889,140.408z"/>
			<path fill="#C0AC36" d="M126.933,219.628c2.963-1.211,6.153-2.01,9.788-0.886c3.306,1.02,6.571,3.607,9.963,6.236
				c2.999,2.329,5.917,5.067,8.648,8.427c2.486,3.061,4.768,6.418,6.787,10.161c2.014,3.744,4.073,7.372,5.188,10.989
				c1.222,3.981,1.465,7.788,1.602,11.285c0.154,3.947-0.666,7.205-1.879,10.07c-1.332,3.152-2.832,6.178-5.799,7.383
				c-2.963,1.212-6.609,0.642-10.242-0.478c-3.303-1.021-6.635-3.026-10.021-5.655c-3.002-2.333-6.08-4.978-8.811-8.339
				c-2.484-3.057-5.127-6.362-7.144-10.106c-2.017-3.745-2.776-7.668-3.892-11.285c-1.221-3.978-2.607-7.817-2.745-11.316
				c-0.155-3.946,0.645-7.408,1.854-10.271C121.564,222.688,123.971,220.836,126.933,219.628z"/>
			<path fill="#C0AC36" d="M292.764,226.059c0.095-0.288,0.188-0.574,0.293-0.859c0.044-0.118,0.094-0.234,0.139-0.352
				c0.109-0.289,0.219-0.577,0.34-0.863c0.049-0.12,0.105-0.238,0.157-0.357c0.122-0.282,0.243-0.565,0.376-0.847
				c0.055-0.119,0.117-0.237,0.174-0.355c0.135-0.281,0.27-0.562,0.412-0.84c0.057-0.107,0.117-0.215,0.174-0.322
				c0.152-0.289,0.305-0.577,0.465-0.864c0.055-0.097,0.114-0.192,0.17-0.29c0.168-0.297,0.338-0.595,0.518-0.89
				c0.048-0.079,0.1-0.159,0.148-0.239c0.189-0.312,0.385-0.623,0.584-0.934c0.043-0.065,0.086-0.131,0.13-0.195
				c0.212-0.325,0.426-0.649,0.646-0.973c0.031-0.045,0.063-0.088,0.093-0.131c0.237-0.345,0.478-0.69,0.727-1.034
				c0.013-0.019,0.027-0.038,0.042-0.058c14.857-20.587,47.063-38.713,25.188-74.197c-0.215-0.35-0.422-0.697-0.648-1.051
				c-2.276-3.553-5.08-6.239-8.295-8.223c5.762,12.775-8.266,22.124-15.775,24.495c-9.912,3.132-28.02,16.255-33.105,25.63
				c-6.42,11.839-9.166,16.375-13.477,28.669c-13.357,38.088-37.555,52.979-69.762,52.979c-22.284,0-32.495-10.168-44.916-15.959
				c-5.004-2.332-12.787-8.471-16.809-12.38c-2.459-2.392-5.977-4.87-9.6-14.47c-0.617-2.175-1.183-4.366-1.682-6.575
				c-2.865,51.313,52.445,115.541,96.511,107.883c64.634-11.233,77.233-60.084,86.302-94.796c0.107-0.414,0.228-0.825,0.355-1.235
				C292.678,226.302,292.723,226.181,292.764,226.059z"/>
			<g>
				<path opacity="0.3" fill="#9D690F" d="M130.696,243.505c8.519-1.29,19.807,0.166,26.388,10.632
					c4.724,7.518,0.575,16.813-3.567,23.25c-0.08,0.235-0.07,0.243,0.023,0.019c2.074-15.736-8.973-25.503-21.132-33.745"/>
				<path fill="#5F4B3B" d="M158.172,256.265c0.621,0.371-0.29,2.006-0.477,2.83c-0.334,1.458-2.938,3.375-2.373,0.86
					c-0.43,0.946-0.885,3.083-2.332,3.225c-1.563,0.154-1.396-1.246-1.338-2.36c-0.424,1.196-1.189,3.197-2.715,2.986
					c-1.979-0.274-0.965-2.152-0.523-3.314c-0.563,0.863-1.969,2.393-3.17,1.457c-1.098-0.855,0.176-2.658,0.334-3.638
					c-0.761,0.394-2.445,1.643-3.203,0.606c-0.705-0.963,1.018-3.354,1.585-3.994c-0.882,0.704-3.011,1.709-3.474,0.346
					c-0.398-1.174,1.643-3.045,2.311-3.789c-0.789,0.463-1.523-0.041-1.346-0.948c0.188-0.966,2.396-1.974,3.213-2.417
					c-1.568,0.377-1.874-0.32-0.763-1.298c0.994-0.874,3.106-1.069,4.19-1.054c0,0,3.305,1.244,5.887,4.413
					C156.566,253.348,158.172,256.265,158.172,256.265z"/>
				<path fill="#3F3127" d="M158.196,257.821c0.256-0.707,0.461-1.425,0.076-1.654c0,0-1.608-2.917-4.193-6.089
					c-0.881-1.084-1.844-1.928-2.733-2.587c-0.15-0.024-0.296-0.056-0.445-0.077l-0.329-0.465c-1.348-0.884-2.378-1.286-2.378-1.286
					c-0.078,0-0.173,0.002-0.263,0.003c-1.497,0.383-3.068,0.844-3.455,2.4c0.095-0.017,0.183-0.025,0.291-0.051
					c-0.096,0.051-0.209,0.109-0.334,0.176c-0.004,0.008-0.01,0.016-0.01,0.026c1.343,0.73,2.982,0.535,4.346-0.109
					c-0.615,0.407-2.93,1.767-2.368,2.846c0.636,1.232,2.938-0.275,3.706-0.58c-1.773,2.01-0.802,2.898,1.389,1.748
					c-1.751,1.814-0.302,3.538,1.203,2.466c-1.08,1.76,0.818,3.744,2.375,1.784c-0.922,1.64,0.063,2.718,1.625,0.737
					C156.188,258.885,157.324,258.572,158.196,257.821z"/>
				<path fill="#907860" d="M146.742,252.687c-2.116-1.848-4.16,2.772-2.041,2.059c-1.537-0.004-0.793,1.991,0.506,2.021
					c-0.529,1.137,0.558,2.168,1.678,1.895c-0.229,2.081,1.569,1.972,2.552,1.276c0.632-0.449,0.872-0.145,1.029-1.303
					c0.103-0.753,0.069-1.507-0.501-1.066c1.983-1.087-0.656-3.593-1-2.032c1.472-0.712-0.393-3.082-1.717-1.836"/>
			</g>
			<path opacity="0.3" fill="#927F2A" d="M292.281,227.661c6.395-24.451,50.092-41.406,35.801-77.298
				c0,0-61.953,48.138-99.518,71.291c-37.565,23.154-101.008,52.301-101.008,52.301c19.42,30.335,51.086,53.252,78.423,48.502
				C270.614,311.223,283.213,262.373,292.281,227.661z"/>
			<g>
				<circle fill="#D5CD56" cx="145.448" cy="175.595" r="1.805"/>
				<circle fill="#D5CD56" cx="156.118" cy="165.989" r="2.267"/>
				<circle fill="#D5CD56" cx="163.682" cy="184.697" r="2.386"/>
				<circle fill="#D5CD56" cx="152.254" cy="189.832" r="1.559"/>
				<circle fill="#D5CD56" cx="156.118" cy="177.864" r="2.267"/>
				<circle fill="#D5CD56" cx="168.57" cy="174.438" r="2.501"/>
				<circle fill="#D5CD56" cx="172.235" cy="164.885" r="1.164"/>
				<circle fill="#D5CD56" cx="164.875" cy="158.864" r="1.193"/>
				<circle fill="#D5CD56" cx="154.985" cy="155.546" r="1.133"/>
				<circle fill="#D5CD56" cx="139.505" cy="166.833" r="1.946"/>
				<circle fill="#D5CD56" cx="134.127" cy="192.31" r="3.432"/>
				<circle fill="#D5CD56" cx="148.974" cy="201.053" r="1.722"/>
				<circle fill="#D5CD56" cx="167.364" cy="202.349" r="1.295"/>
				<circle fill="#D5CD56" cx="182.475" cy="189.658" r="3.491"/>
				<path fill="#D5CD56" d="M141.315,209.099c0,1.037-0.84,1.88-1.881,1.88c-1.035,0-1.875-0.843-1.875-1.88
					c0-1.036,0.84-1.877,1.875-1.877C140.475,207.222,141.315,208.063,141.315,209.099z"/>
				<circle fill="#D5CD56" cx="153.033" cy="215.541" r="0.779"/>
				<ellipse fill="#D5CD56" cx="185.966" cy="164.304" rx="0" ry="0.58"/>
				<circle fill="#D5CD56" cx="196.468" cy="157.206" r="1.659"/>
				<path fill="#D5CD56" d="M207.377,156.043c0,0.899-0.729,1.628-1.631,1.628c-0.896,0-1.627-0.729-1.627-1.628
					s0.73-1.629,1.627-1.629C206.648,154.414,207.377,155.143,207.377,156.043z"/>
				<circle fill="#D5CD56" cx="197.517" cy="172.397" r="1.049"/>
				<circle fill="#D5CD56" cx="188.06" cy="166.979" r="2.094"/>
			</g>
			<g opacity="0.5">
				<circle fill="#DECC62" cx="205.312" cy="278.513" r="3.491"/>
				<circle fill="#DECC62" cx="252.527" cy="231.726" r="1.985"/>
				<circle fill="#DECC62" cx="206.213" cy="264.589" r="2.094"/>
				<circle fill="#DECC62" cx="213.545" cy="256.562" r="1.744"/>
				<circle fill="#DECC62" cx="231.586" cy="264.834" r="2.34"/>
				<circle fill="#DECC62" cx="231.229" cy="255.293" r="1.982"/>
				<circle fill="#DECC62" cx="229.245" cy="242.949" r="3.253"/>
				<circle fill="#DECC62" cx="202.49" cy="246.314" r="1.63"/>
				<circle fill="#DECC62" cx="268.331" cy="233.902" r="2.618"/>
				<circle fill="#DECC62" cx="262.656" cy="210.289" r="1.983"/>
				<circle fill="#DECC62" cx="279.744" cy="218.049" r="1.15"/>
				<circle fill="#DECC62" cx="285.808" cy="206.342" r="3.032"/>
				<circle fill="#DECC62" cx="245.289" cy="245.496" r="1.607"/>
				<circle fill="#DECC62" cx="188.06" cy="271.438" r="2.094"/>
				<circle fill="#DECC62" cx="259.867" cy="255.996" r="2.685"/>
				<circle fill="#DECC62" cx="254.855" cy="271.184" r="2.327"/>
				<circle fill="#DECC62" cx="227.977" cy="275.465" r="2.434"/>
				<circle fill="#DECC62" cx="275.324" cy="253.605" r="2.093"/>
				<circle fill="#DECC62" cx="266.592" cy="265.696" r="1.74"/>
				<circle fill="#DECC62" cx="246.205" cy="263.775" r="0.914"/>
				<circle fill="#DECC62" cx="250.543" cy="285.578" r="1.693"/>
				<circle fill="#DECC62" cx="224.363" cy="291.94" r="1.628"/>
				<circle fill="#DECC62" cx="236.113" cy="299.177" r="1.983"/>
				<circle fill="#DECC62" cx="238.096" cy="283.53" r="1.984"/>
				<path fill="#DECC62" d="M206.506,294.761c0,0.657-0.535,1.192-1.195,1.192c-0.656,0-1.191-0.535-1.191-1.192
					c0-0.66,0.535-1.193,1.191-1.193C205.971,293.568,206.506,294.101,206.506,294.761z"/>
				<circle fill="#DECC62" cx="215.49" cy="305.344" r="1.954"/>
			</g>
		</g>
	</g>
</g>
</svg>
