<?xml version="1.0" encoding="utf-8"?>
<!-- Generator: Adobe Illustrator 16.0.0, SVG Export Plug-In . SVG Version: 6.00 Build 0)  -->
<!DOCTYPE svg PUBLIC "-//W3C//DTD SVG 1.1//EN" "http://www.w3.org/Graphics/SVG/1.1/DTD/svg11.dtd">
<svg version="1.1" id="Ebene_1" xmlns="http://www.w3.org/2000/svg" xmlns:xlink="http://www.w3.org/1999/xlink" x="0px" y="0px"
	 width="450px" height="450px" viewBox="0 0 450 450" enable-background="new 0 0 450 450" xml:space="preserve">
<g>
	<g>
		<g opacity="0.3">
			<path d="M403.401,121.78c1.078-3.997,1.724-7.967,0.506-11.442c-1.987-5.667-7.903-6.345-13.872-6.139
				c-8.032,6.469-19.867,25.249-41.717,44.292c-38.39,33.466-84.227,59.589-118.911,73.879
				c-64.303,26.503-163.841,25.499-163.841,25.499s-11.771,5.727-12.741,13.538c-0.974,7.813,77.46,90.66,206.028,43.434
				c135.803-49.881,106.826-144.469,106.826-144.469L403.401,121.78z"/>
			<path d="M234.001,220.399c-1.553,0.688-3.087,1.352-4.595,1.972c-64.303,26.503-163.841,25.499-163.841,25.499
				s-11.771,5.727-12.741,13.538c-0.597,4.781,28.538,37.639,80.685,51.622L234.001,220.399z"/>
			<path d="M358.174,159.599c-0.116,3.856,9.369,46.413-102.214,96.736c-114.015,51.42-172.837,9.595-196.956-4.181
				c-2.884,2.371-5.725,5.586-6.179,9.252c-0.974,7.813,77.46,90.66,206.028,43.434c126.986-46.645,109.892-132.373,107.14-143.308
				C363.382,160.926,360.779,160.278,358.174,159.599z"/>
			<path opacity="0.5" d="M92.381,247.208c-16.338,0.76-26.815,0.661-26.815,0.661s-11.771,5.727-12.741,13.538
				c-0.364,2.916,10.358,16.291,30.611,29.452C86.388,276.298,89.223,261.715,92.381,247.208z"/>
			<path opacity="0.5" d="M275.571,246.96l-28.196,61.798c3.78-1.196,7.609-2.492,11.479-3.917
				c126.986-46.645,109.892-132.373,107.14-143.308c-2.61-0.607-5.214-1.255-7.818-1.934
				C358.067,163.213,366.391,200.824,275.571,246.96z"/>
			<path opacity="0.3" fill="none" stroke="#000000" stroke-width="3.1421" stroke-linecap="round" stroke-miterlimit="10" d="
				M105.227,267.13c0,0,60.891,19.79,151.53-19.154c96.718-41.547,94.766-88.595,94.766-88.595"/>
			<path opacity="0.5" fill="none" stroke="#000000" stroke-width="3.1421" stroke-linecap="round" stroke-miterlimit="10" d="
				M63.988,259.959c0,0,63.988,62.529,200.737,0.822c97.887-44.168,91.829-91.629,91.829-91.629"/>
			<path d="M71.76,251.092c-0.341-0.779-0.786-1.417-1.294-1.951c-0.175-0.237-0.356-0.467-0.563-0.681
				c-0.963-1.545-2.652-2.716-4.603-2.053c-0.088,0.027-0.172,0.068-0.26,0.094c-2.89,0.085-5.594,2-7.619,3.941
				c-1.753,1.687-3.631,3.79-3.904,6.247c-0.625,1.522-0.977,3.091-0.897,4.611c0.039,0.766,0.256,1.516,0.607,2.181
				c0.328,1.37,1.368,2.612,2.692,3.042c1.024,0.688,2.35,0.985,3.503,0.711c0.047-0.014,0.083-0.035,0.131-0.049
				c3.263,1.458,7.134-0.314,9.443-3.088C72.043,260.447,73.768,255.655,71.76,251.092z"/>
			<path d="M65.442,249.392c-0.685-1.635-3.086-2.664-4.748-2.116c-5.073,1.69-8.012,6.023-8.298,11.309
				c-0.158,2.938,3.605,5.819,6.29,3.887c0.012-0.005,0.021-0.013,0.034-0.022c0.183-0.016,0.363-0.031,0.549-0.061
				c2.557-0.445,4.967-2.063,6.164-4.394C66.895,255.154,66.644,252.273,65.442,249.392z"/>
			<path d="M399.187,105.35l-41.013,54.249l7.886,2.201c-0.124-0.485-0.381-1.429-0.381-1.429l37.722-38.591
				c1.078-3.997,1.724-7.967,0.506-11.442C403.013,107.786,401.316,106.252,399.187,105.35z"/>
			<path opacity="0.5" d="M403.906,110.338c-1.987-5.667-7.903-6.345-13.872-6.139c-2.094,1.688-4.455,4.217-7.179,7.371
				l0.269,30.955l20.276-20.745C404.479,117.783,405.124,113.813,403.906,110.338z"/>
			<circle cx="244.591" cy="282.085" r="2.935"/>
			<circle cx="226.869" cy="297.498" r="2.242"/>
			<path d="M231.167,287.205c0,1.201-0.972,2.181-2.173,2.181c-1.209,0-2.183-0.979-2.183-2.181c0-1.205,0.974-2.184,2.183-2.184
				C230.196,285.021,231.167,286,231.167,287.205z"/>
			<path d="M241.656,296.69c0,0.797-0.637,1.435-1.434,1.435c-0.796,0-1.433-0.638-1.433-1.435c0-0.795,0.637-1.435,1.433-1.435
				C241.02,295.256,241.656,295.895,241.656,296.69z"/>
			<path d="M204.541,306.428c0,1.284-1.043,2.329-2.33,2.329c-1.283,0-2.326-1.045-2.326-2.329c0-1.289,1.043-2.331,2.326-2.331
				C203.497,304.097,204.541,305.139,204.541,306.428z"/>
			<circle cx="205.951" cy="290.791" r="1.41"/>
			<circle cx="331.314" cy="174.332" r="3.218"/>
			<circle cx="339.983" cy="167.376" r="1.776"/>
			<path d="M343.197,175.939c0,0.889-0.714,1.607-1.608,1.607c-0.883,0-1.606-0.718-1.606-1.607c0-0.888,0.724-1.606,1.606-1.606
				C342.483,174.332,343.197,175.051,343.197,175.939z"/>
		</g>
		<g>
			<g>
				<path fill="#ECBD06" d="M397.117,116.543c1.08-3.995,1.718-7.967,0.503-11.442c-1.982-5.666-7.902-6.344-13.868-6.14
					c-8.036,6.47-19.873,25.251-41.717,44.295c-38.395,33.464-84.234,59.587-118.911,73.878
					c-64.304,26.502-163.842,25.499-163.842,25.499s-11.773,5.724-12.741,13.538c-0.973,7.813,77.461,90.66,206.023,43.433
					c135.807-49.88,106.831-144.47,106.831-144.47L397.117,116.543z"/>
				<path fill="#F6CB47" d="M227.715,215.161c-1.553,0.687-3.088,1.353-4.591,1.973c-64.304,26.502-163.842,25.499-163.842,25.499
					s-11.773,5.724-12.741,13.538c-0.597,4.781,28.537,37.639,80.684,51.622L227.715,215.161z"/>
				<path fill="#DAA70A" d="M351.894,154.36c-0.122,3.855,9.362,46.416-102.215,96.739c-114.019,51.415-172.843,9.592-196.961-4.181
					c-2.882,2.371-5.723,5.584-6.176,9.252c-0.973,7.813,77.461,90.66,206.023,43.433c126.988-46.644,109.9-132.372,107.145-143.307
					C357.095,155.69,354.492,155.041,351.894,154.36z"/>
				<path opacity="0.5" fill="#C88C16" d="M86.097,241.971c-16.339,0.76-26.815,0.661-26.815,0.661s-11.773,5.724-12.741,13.538
					c-0.365,2.915,10.357,16.29,30.613,29.447C80.104,271.059,82.939,256.477,86.097,241.971z"/>
				<path opacity="0.5" fill="#C88C16" d="M269.282,241.72l-28.188,61.796c3.78-1.191,7.6-2.488,11.47-3.913
					c126.988-46.644,109.9-132.372,107.145-143.307c-2.614-0.606-5.217-1.255-7.815-1.936
					C351.78,157.976,360.104,195.588,269.282,241.72z"/>
				<path opacity="0.3" fill="none" stroke="#FFFFFF" stroke-width="3.1421" stroke-linecap="round" stroke-miterlimit="10" d="
					M98.942,261.893c0,0,60.894,19.786,151.527-19.154c96.726-41.55,94.768-88.596,94.768-88.596"/>
				<path opacity="0.5" fill="none" stroke="#E6BD40" stroke-width="3.1421" stroke-linecap="round" stroke-miterlimit="10" d="
					M57.704,254.722c0,0,63.987,62.527,200.734,0.822c97.886-44.172,91.837-91.629,91.837-91.629"/>
				<path fill="#997032" d="M65.476,245.855c-0.339-0.779-0.785-1.417-1.293-1.952c-0.175-0.236-0.358-0.466-0.563-0.678
					c-0.964-1.546-2.654-2.718-4.604-2.055c-0.088,0.027-0.172,0.068-0.26,0.093c-2.889,0.086-5.591,1.995-7.619,3.942
					c-1.753,1.682-3.63,3.792-3.904,6.247c-0.625,1.521-0.977,3.091-0.898,4.608c0.04,0.769,0.258,1.519,0.608,2.184
					c0.327,1.366,1.368,2.608,2.692,3.042c1.025,0.688,2.35,0.985,3.504,0.713c0.045-0.016,0.083-0.037,0.129-0.051
					c3.264,1.458,7.134-0.314,9.443-3.088C65.758,255.211,67.484,250.419,65.476,245.855z"/>
				<path fill="#68491F" d="M59.159,244.156c-0.688-1.635-3.086-2.671-4.75-2.116c-5.072,1.69-8.01,6.023-8.297,11.309
					c-0.158,2.938,3.605,5.819,6.29,3.884c0.011-0.009,0.02-0.012,0.034-0.02c0.182-0.016,0.364-0.029,0.549-0.064
					c2.557-0.441,4.967-2.059,6.164-4.393C60.613,249.918,60.359,247.035,59.159,244.156z"/>
				<path fill="#DAA70A" d="M392.9,100.112l-41.006,54.248l7.882,2.204c-0.128-0.485-0.38-1.431-0.38-1.431l37.722-38.59
					c1.08-3.995,1.718-7.967,0.503-11.442C396.732,102.548,395.036,101.016,392.9,100.112z"/>
				<path opacity="0.5" fill="#C88C16" d="M397.62,105.1c-1.982-5.666-7.902-6.344-13.868-6.14c-2.1,1.69-4.453,4.221-7.179,7.371
					l0.266,30.957l20.278-20.746C398.198,112.548,398.835,108.576,397.62,105.1z"/>
				<circle fill="#C88C16" cx="238.312" cy="276.848" r="2.935"/>
				<circle fill="#C88C16" cx="220.585" cy="292.257" r="2.242"/>
				<path fill="#C88C16" d="M224.889,281.969c0,1.201-0.978,2.178-2.183,2.178s-2.179-0.977-2.179-2.178
					c0-1.209,0.974-2.186,2.179-2.186S224.889,280.76,224.889,281.969z"/>
				<path fill="#C88C16" d="M235.375,291.454c0,0.796-0.645,1.435-1.436,1.435c-0.792,0-1.438-0.639-1.438-1.435
					c0-0.795,0.646-1.439,1.438-1.439C234.731,290.014,235.375,290.659,235.375,291.454z"/>
				<path fill="#C88C16" d="M198.256,301.192c0,1.284-1.042,2.324-2.329,2.324c-1.283,0-2.327-1.04-2.327-2.324
					c0-1.289,1.044-2.329,2.327-2.329C197.213,298.863,198.256,299.903,198.256,301.192z"/>
				<path fill="#C88C16" d="M201.078,285.554c0,0.779-0.635,1.411-1.414,1.411c-0.775,0-1.409-0.632-1.409-1.411
					s0.634-1.408,1.409-1.408C200.444,284.146,201.078,284.775,201.078,285.554z"/>
				<path fill="#F6CB47" d="M328.244,169.092c0,1.776-1.437,3.218-3.215,3.218c-1.777,0-3.213-1.441-3.213-3.218
					s1.436-3.215,3.213-3.215C326.808,165.877,328.244,167.316,328.244,169.092z"/>
				<path fill="#F6CB47" d="M335.475,162.139c0,0.979-0.794,1.776-1.774,1.776c-0.983,0-1.775-0.797-1.775-1.776
					c0-0.982,0.792-1.775,1.775-1.775C334.681,160.364,335.475,161.157,335.475,162.139z"/>
				<circle fill="#F6CB47" cx="335.309" cy="170.703" r="1.608"/>
				<path opacity="0.5" fill="#A87316" d="M361.171,164.782c-0.538,3.358-1.315,6.643-2.326,9.848
					c-3.188,13.303-9.618,26.017-17.198,37.05c-6.263,9.112-13.5,17.805-21.635,25.506c-0.46,0.594-0.924,1.193-1.386,1.788
					c-1.681,10.08-3.264,19.532-4.668,27.916c48.941-38.049,49.719-82.867,47.288-102.144
					C361.222,164.76,361.197,164.77,361.171,164.782z"/>
			</g>
			<path fill="#997032" d="M401.906,110.972c0.144-4.716-0.382-4.701-1.318-6.806c-1.646-3.677-4.738-6.554-7.918-8.011
				c-3.605-1.653-9.008-0.679-11.297,2.774c-0.936,1.412-3.196,4.801-4.855,7.167c0.386-0.179,0.799-0.282,1.237-0.313
				c0.42-0.201,0.879-0.335,1.357-0.401c0.627-0.425,1.344-0.734,2.179-0.847c3.586-0.488,6.163,2.029,6.523,4.999
				c2.89-0.933,5.975,2.568,3.329,5.105c-0.268,0.256-0.552,0.5-0.824,0.749c0.108,0.178,0.204,0.363,0.285,0.556
				c0.42,0.377,0.723,0.866,0.808,1.447c0.211,1.432,0.011,3.442-0.527,5.482c0.243-0.179,0.486-0.357,0.747-0.527
				c2.552-1.658,6.978-5.383,9.211-7.427C402.939,113.005,401.823,113.744,401.906,110.972z"/>
			<path fill="#68491F" d="M401.906,110.972c0.144-4.716-0.382-4.701-1.318-6.806c-1.646-3.677-4.738-6.554-7.918-8.011
				c-3.605-1.653-9.008-0.679-11.297,2.774c-0.296,0.443-0.722,1.083-1.217,1.821c0.134,0.017,0.26,0.04,0.386,0.075
				c0.145,0.04,0.294,0.09,0.438,0.136c0.426-1.604,1.862-2.881,3.738-2.116c0.256,0.105,0.507,0.215,0.758,0.321v0
				c0,0,0.001,0.001,0.001,0.002c3.617,1.527,7.018,3.425,8.723,7.168c1.322,2.901,1.596,6.241,2.003,9.452
				c0.287,0.907,0.458,1.811,0.503,2.704c1.58-1.302,3.102-2.62,4.138-3.571C402.939,113.005,401.823,113.744,401.906,110.972z"/>
		</g>
	</g>
</g>
</svg>
