<?xml version="1.0" encoding="utf-8"?>
<!-- Generator: Adobe Illustrator 16.0.0, SVG Export Plug-In . SVG Version: 6.00 Build 0)  -->
<!DOCTYPE svg PUBLIC "-//W3C//DTD SVG 1.1//EN" "http://www.w3.org/Graphics/SVG/1.1/DTD/svg11.dtd">
<svg version="1.1" id="Ebene_1" xmlns="http://www.w3.org/2000/svg" xmlns:xlink="http://www.w3.org/1999/xlink" x="0px" y="0px"
	 width="450px" height="450px" viewBox="0 0 450 450" enable-background="new 0 0 450 450" xml:space="preserve">
<g>
	<g>
		<g opacity="0.3">
			<path opacity="0.3" d="M422.29,112.703c1.193-4.418,1.904-8.811,0.558-12.655c-2.195-6.268-8.74-7.019-15.342-6.791
				c-8.887,7.155-21.977,27.928-46.143,48.993c-42.465,37.014-93.164,65.907-131.523,81.716
				c-71.125,29.311-181.223,28.2-181.223,28.2s-13.02,6.338-14.093,14.979c-1.076,8.641,85.677,100.277,227.88,48.041
				c150.213-55.176,118.162-159.796,118.162-159.796L422.29,112.703z"/>
			<path opacity="0.3" d="M234.918,221.784c-1.717,0.76-3.414,1.496-5.078,2.182c-71.125,29.311-181.223,28.2-181.223,28.2
				s-13.02,6.338-14.093,14.979c-0.659,5.289,31.565,41.633,89.245,57.098L234.918,221.784z"/>
			<path opacity="0.3" d="M372.268,154.534c-0.133,4.265,10.359,51.339-113.059,106.999
				c-126.111,56.875-191.172,10.609-217.85-4.623c-3.189,2.625-6.332,6.176-6.835,10.234c-1.076,8.641,85.677,100.277,227.88,48.041
				c140.459-51.596,121.555-146.417,118.509-158.51C378.025,156.003,375.144,155.285,372.268,154.534z"/>
			<path opacity="0.3" d="M78.278,251.439c-18.072,0.842-29.66,0.727-29.66,0.727s-13.02,6.338-14.093,14.979
				c-0.401,3.227,11.458,18.018,33.86,32.572C71.649,283.615,74.785,267.484,78.278,251.439z"/>
			<path opacity="0.3" d="M280.899,251.164l-31.184,68.35c4.182-1.32,8.411-2.756,12.689-4.328
				c140.459-51.596,121.555-146.417,118.509-158.51c-2.889-0.672-5.77-1.391-8.646-2.142
				C372.144,158.531,381.353,200.133,280.899,251.164z"/>
			<path opacity="0.3" fill="none" stroke="#000000" stroke-width="3.4754" stroke-linecap="round" stroke-miterlimit="10" d="
				M92.487,273.472c0,0,67.35,21.887,167.602-21.184c106.981-45.958,104.818-97.996,104.818-97.996"/>
			<path opacity="0.5" fill="none" stroke="#000000" stroke-width="3.4754" stroke-linecap="round" stroke-miterlimit="10" d="
				M46.873,265.541c0,0,70.773,69.16,222.026,0.912c108.272-48.858,101.576-101.352,101.576-101.352"/>
			<path opacity="0.3" d="M55.469,255.732c-0.377-0.861-0.867-1.564-1.432-2.156c-0.193-0.262-0.394-0.516-0.622-0.754
				c-1.065-1.709-2.935-3.002-5.091-2.273c-0.098,0.035-0.191,0.076-0.287,0.109c-3.197,0.094-6.188,2.207-8.428,4.359
				c-1.939,1.861-4.017,4.191-4.318,6.91c-0.691,1.678-1.08,3.418-0.992,5.094c0.043,0.848,0.283,1.68,0.672,2.418
				c0.361,1.51,1.512,2.887,2.978,3.361c1.133,0.762,2.599,1.092,3.874,0.785c0.053-0.014,0.092-0.035,0.146-0.049
				c3.607,1.613,7.891-0.348,10.443-3.416C55.781,266.078,57.69,260.779,55.469,255.732z"/>
			<path opacity="0.3" d="M48.481,253.853c-0.758-1.807-3.414-2.949-5.252-2.338c-5.61,1.871-8.861,6.662-9.179,12.504
				c-0.175,3.25,3.989,6.441,6.957,4.301c0.014-0.01,0.024-0.018,0.038-0.027c0.203-0.016,0.402-0.031,0.607-0.066
				c2.829-0.488,5.494-2.277,6.818-4.855C50.088,260.228,49.81,257.037,48.481,253.853z"/>
			<path opacity="0.3" d="M417.626,94.531l-45.358,60.003l8.721,2.437c-0.141-0.538-0.422-1.582-0.422-1.582l41.724-42.686
				c1.193-4.418,1.904-8.811,0.558-12.655C421.862,97.226,419.985,95.531,417.626,94.531z"/>
			<path opacity="0.3" d="M422.848,100.049c-2.195-6.268-8.74-7.019-15.342-6.791c-2.318,1.866-4.928,4.666-7.939,8.153
				l0.295,34.239l22.429-22.946C423.484,108.285,424.195,103.893,422.848,100.049z"/>
			<circle opacity="0.3" cx="246.637" cy="290.015" r="3.246"/>
			<circle opacity="0.3" cx="227.032" cy="307.06" r="2.479"/>
			<circle opacity="0.3" cx="229.378" cy="295.676" r="2.411"/>
			<circle opacity="0.3" cx="241.802" cy="306.168" r="1.588"/>
			<circle opacity="0.3" cx="199.76" cy="316.937" r="2.575"/>
			<circle opacity="0.3" cx="203.894" cy="299.646" r="1.559"/>
			<circle opacity="0.3" cx="342.555" cy="170.829" r="3.558"/>
			<circle opacity="0.3" cx="352.145" cy="163.136" r="1.965"/>
			<circle opacity="0.3" cx="353.923" cy="172.608" r="1.779"/>
		</g>
		<g>
			<g>
				<path fill="#EBBC06" d="M415.338,106.91c1.195-4.417,1.904-8.811,0.559-12.655c-2.195-6.267-8.74-7.018-15.342-6.791
					c-8.887,7.154-21.977,27.928-46.143,48.993c-42.464,37.013-93.166,65.906-131.521,81.715
					c-71.126,29.309-181.223,28.2-181.223,28.2s-13.022,6.338-14.094,14.979c-1.076,8.641,85.678,100.277,227.879,48.041
					c150.212-55.176,118.163-159.796,118.163-159.796L415.338,106.91z"/>
				<path fill="#F5CA47" d="M227.969,215.991c-1.717,0.761-3.416,1.496-5.078,2.182c-71.126,29.309-181.223,28.2-181.223,28.2
					s-13.022,6.338-14.094,14.979c-0.659,5.289,31.564,41.633,89.244,57.098L227.969,215.991z"/>
				<path fill="#D9A60A" d="M365.317,148.741c-0.131,4.265,10.359,51.339-113.058,106.999
					c-126.112,56.873-191.175,10.609-217.853-4.623c-3.187,2.625-6.33,6.174-6.832,10.234
					c-1.076,8.641,85.678,100.277,227.879,48.041c140.461-51.596,121.556-146.417,118.511-158.51
					C371.074,150.21,368.194,149.491,365.317,148.741z"/>
				<path opacity="0.5" fill="#C78B16" d="M71.328,245.646c-18.074,0.842-29.66,0.727-29.66,0.727s-13.022,6.338-14.094,14.979
					c-0.402,3.227,11.457,18.018,33.861,32.572C64.698,277.82,67.834,261.691,71.328,245.646z"/>
				<path opacity="0.5" fill="#C78B16" d="M273.948,245.371l-31.183,68.35c4.181-1.32,8.409-2.756,12.688-4.328
					c140.461-51.596,121.556-146.417,118.511-158.51c-2.89-0.672-5.771-1.391-8.647-2.141
					C365.194,152.739,374.402,194.34,273.948,245.371z"/>
				<path opacity="0.3" fill="none" stroke="#FFFFFF" stroke-width="3.4754" stroke-linecap="round" stroke-miterlimit="10" d="
					M85.535,267.679c0,0,67.352,21.887,167.602-21.184C360.118,200.538,357.955,148.5,357.955,148.5"/>
				<path opacity="0.5" fill="none" stroke="#E5BC40" stroke-width="3.4754" stroke-linecap="round" stroke-miterlimit="10" d="
					M39.922,259.748c0,0,70.773,69.16,222.026,0.912c108.272-48.858,101.577-101.353,101.577-101.353"/>
				<path fill="#987032" d="M48.518,249.939c-0.375-0.861-0.867-1.564-1.43-2.156c-0.194-0.262-0.396-0.516-0.623-0.752
					c-1.066-1.709-2.936-3.004-5.092-2.275c-0.098,0.035-0.191,0.076-0.288,0.109c-3.196,0.094-6.185,2.207-8.427,4.359
					c-1.939,1.861-4.016,4.193-4.318,6.91c-0.691,1.678-1.08,3.418-0.993,5.094c0.044,0.848,0.286,1.68,0.674,2.418
					c0.36,1.51,1.512,2.887,2.977,3.361c1.134,0.762,2.599,1.092,3.876,0.787c0.051-0.016,0.092-0.037,0.145-0.051
					c3.608,1.613,7.891-0.348,10.443-3.416C48.83,260.285,50.739,254.986,48.518,249.939z"/>
				<path fill="#68491F" d="M41.531,248.06c-0.76-1.807-3.414-2.949-5.254-2.338c-5.609,1.871-8.859,6.662-9.178,12.504
					c-0.175,3.25,3.988,6.441,6.957,4.301c0.014-0.01,0.023-0.018,0.038-0.027c0.202-0.016,0.403-0.029,0.607-0.064
					c2.829-0.49,5.494-2.279,6.817-4.859C43.139,254.435,42.859,251.244,41.531,248.06z"/>
				<path fill="#D9A60A" d="M410.676,88.738l-45.359,60.003l8.719,2.437c-0.139-0.538-0.419-1.583-0.419-1.583l41.722-42.686
					c1.195-4.417,1.904-8.811,0.559-12.655C414.91,91.433,413.035,89.738,410.676,88.738z"/>
				<path opacity="0.5" fill="#C78B16" d="M415.897,94.256c-2.195-6.267-8.74-7.018-15.342-6.791
					c-2.32,1.867-4.926,4.667-7.939,8.152l0.297,34.239l22.426-22.946C416.533,102.493,417.242,98.1,415.897,94.256z"/>
				<circle fill="#C78B16" cx="239.688" cy="284.222" r="3.246"/>
				<circle fill="#C78B16" cx="220.081" cy="301.267" r="2.479"/>
				<circle fill="#C78B16" cx="222.428" cy="289.883" r="2.412"/>
				<circle fill="#C78B16" cx="234.851" cy="300.375" r="1.588"/>
				<path fill="#C78B16" d="M195.383,311.144c0,1.424-1.153,2.576-2.574,2.576c-1.422,0-2.576-1.152-2.576-2.576
					c0-1.42,1.154-2.574,2.576-2.574C194.23,308.57,195.383,309.724,195.383,311.144z"/>
				<circle fill="#C78B16" cx="196.944" cy="293.853" r="1.561"/>
				<circle fill="#F5CA47" cx="335.605" cy="165.036" r="3.558"/>
				<circle fill="#F5CA47" cx="345.194" cy="157.343" r="1.965"/>
				<circle fill="#F5CA47" cx="346.973" cy="166.816" r="1.779"/>
				<path opacity="0.5" fill="#A77316" d="M375.582,160.268c-0.596,3.714-1.457,7.346-2.578,10.892
					c-3.524,14.715-10.633,28.779-19.021,40.981c-6.928,10.079-14.93,19.692-23.928,28.212c-0.51,0.659-1.022,1.316-1.533,1.977
					c-1.861,11.152-3.607,21.604-5.16,30.879c54.131-42.084,54.99-91.657,52.301-112.98
					C375.635,160.241,375.61,160.255,375.582,160.268z"/>
			</g>
			<path fill="#987032" d="M420.636,100.75c0.157-5.215-0.421-5.2-1.46-7.527c-1.818-4.069-5.238-7.25-8.754-8.861
				c-3.989-1.829-9.965-0.752-12.5,3.069c-1.033,1.56-3.531,5.309-5.371,7.929c0.428-0.199,0.889-0.314,1.371-0.347
				c0.467-0.224,0.975-0.37,1.502-0.444c0.692-0.47,1.485-0.812,2.408-0.937c3.971-0.539,6.818,2.246,7.219,5.53
				c3.193-1.031,6.605,2.839,3.682,5.646c-0.297,0.285-0.609,0.553-0.914,0.829c0.123,0.196,0.229,0.401,0.317,0.615
				c0.463,0.418,0.797,0.958,0.892,1.601c0.233,1.585,0.016,3.809-0.58,6.064c0.27-0.198,0.537-0.397,0.822-0.583
				c2.822-1.834,7.723-5.956,10.193-8.216C421.78,102.999,420.543,103.817,420.636,100.75z"/>
			<path fill="#68491F" d="M420.636,100.75c0.157-5.215-0.421-5.2-1.46-7.527c-1.818-4.069-5.238-7.25-8.754-8.861
				c-3.989-1.829-9.965-0.752-12.5,3.069c-0.323,0.489-0.795,1.197-1.341,2.014c0.144,0.018,0.286,0.044,0.426,0.083
				c0.157,0.044,0.321,0.099,0.481,0.15c0.475-1.774,2.059-3.187,4.139-2.339c0.28,0.114,0.557,0.236,0.836,0.354v0
				c0,0,0.002,0.001,0.003,0.002c3.998,1.69,7.76,3.79,9.647,7.929c1.463,3.208,1.762,6.904,2.215,10.455
				c0.314,1.001,0.506,2.003,0.555,2.991c1.75-1.441,3.43-2.898,4.58-3.951C421.78,102.999,420.543,103.817,420.636,100.75z"/>
		</g>
	</g>
</g>
</svg>
