<?xml version="1.0" encoding="utf-8"?>
<!-- Generator: Adobe Illustrator 16.0.0, SVG Export Plug-In . SVG Version: 6.00 Build 0)  -->
<!DOCTYPE svg PUBLIC "-//W3C//DTD SVG 1.1//EN" "http://www.w3.org/Graphics/SVG/1.1/DTD/svg11.dtd">
<svg version="1.1" id="Ebene_1" xmlns="http://www.w3.org/2000/svg" xmlns:xlink="http://www.w3.org/1999/xlink" x="0px" y="0px"
	 width="450px" height="450px" viewBox="0 0 450 450" enable-background="new 0 0 450 450" xml:space="preserve">
<g>
	<path opacity="0.3" d="M372.248,209.817l-19.695-17.36l-34.736-30.617l0,0l-24.545-21.634l-16.715,18.963v-0.001l-0.837,0.949
		l-15.63-7.316l-54.607-25.564l-10.717,22.892v-0.001l-7.535,16.097l-10.207,21.803l-9.975-14.609l-20.875,14.253v-0.001
		l-46.773,31.937l0,0l-18.689,12.761c0.094,0.124,0.191,0.249,0.281,0.378l1.314,15.236c0.094,0.124,0.193,0.247,0.281,0.378
		c2.408,3.531,4.398,7.245,7.244,10.491c2.813,3.206,5.814,6.131,9.039,9.014c3.176,2.835,5.141,7.326,8.699,9.805
		c3.482,2.42,7.998,3.421,11.838,5.463c2.877,1.529,6.119,2.052,9.228,2.861c0.005,0.001,0.011,0.002,0.015,0.004
		c0.44,0.114,0.875,0.239,1.309,0.369c0.103,0.031,0.207,0.061,0.31,0.093c0.48,0.149,0.957,0.311,1.425,0.491
		c4.047,1.563,7.658,3.923,11.783,4.964c4.191,1.061,8.275,2.384,12.506,2.921c4.133,0.52,8.271,0.244,12.393,0.239l1.76,13.174
		c0.131,0.086,0.268,0.169,0.393,0.26c3.457,2.516,6.582,5.341,10.354,7.438c3.729,2.072,7.543,3.813,11.549,5.438
		c3.943,1.6,7.309,5.17,11.494,6.301c4.094,1.11,8.686,0.53,12.984,1.16c3.209,0.466,6.42-0.127,9.604-0.414
		c0.035-0.003,0.071-0.006,0.107-0.009c0.426-0.038,0.85-0.064,1.275-0.087c0.125-0.007,0.25-0.016,0.375-0.021
		c0.499-0.021,0.997-0.029,1.494-0.017c4.334,0.107,8.531,1.112,12.768,0.703c4.303-0.413,8.596-0.544,12.758-1.466
		c4.215-0.932,8.143-2.679,12.174-4.103c4.059-1.433,8.873-1.217,12.709-3.12c3.854-1.908,7.877-3.911,11.465-6.264
		c3.59-2.355,5.727-6.794,9.008-9.563c3.273-2.766,6.168-5.843,9.102-8.989c2.791-2.998,2.26-3.265,4.631-6.625l0.189-19.663
		l-4.408-3.201l0,0l-7.048-5.118c3.155,0.049,6.287,0.095,9.39-0.289c4.283-0.533,8.363-1.9,12.506-2.938
		c4.178-1.044,8.949-0.376,12.947-1.908c4.016-1.536,8.211-3.151,12.002-5.157c3.797-2.006,6.344-6.225,9.871-8.67
		c3.523-2.443,6.693-5.234,9.91-8.09c3.061-2.723,2.555-3.037,5.234-6.158L372.248,209.817z"/>
	<g>
		<g>
			<path fill="#A37326" d="M75.323,227.075l1.313,15.236c0.094,0.124,0.193,0.247,0.282,0.378c2.407,3.531,4.398,7.245,7.243,10.491
				c2.813,3.206,5.814,6.131,9.04,9.014c3.175,2.835,5.14,7.326,8.698,9.805c3.482,2.42,7.998,3.421,11.838,5.463
				c3.84,2.041,8.328,2.288,12.285,3.818c4.047,1.563,7.658,3.923,11.783,4.964c4.191,1.061,8.276,2.384,12.506,2.921
				c4.283,0.539,8.572,0.221,12.844,0.237c4.307,0.019,8.766,1.844,13.018,1.345c4.27-0.499,8.734-1.028,12.904-2.037
				c4.174-1.007,7.682-4.467,11.704-5.967c4.019-1.499,7.778-3.421,11.599-5.396c3.637-1.883,3.226-2.313,6.592-4.677l1.769-17.979
				L75.323,227.075z"/>
			<path fill="#8C6125" d="M126.024,281.28c4.047,1.563,7.658,3.923,11.783,4.964c4.191,1.061,8.276,2.384,12.506,2.921
				c4.283,0.539,8.572,0.221,12.844,0.237c4.307,0.019,8.766,1.844,13.018,1.345c4.27-0.499,8.734-1.028,12.904-2.037
				c4.174-1.007,7.682-4.467,11.704-5.967c4.019-1.499,7.778-3.421,11.599-5.396c3.637-1.883,3.226-2.313,6.592-4.677l1.769-17.979
				l-24.349-4.623l-80.342,28.389C119.311,279.634,122.838,280.047,126.024,281.28z"/>
			<path fill="#EDCF36" d="M161.379,167.748l-86.338,58.949c0.094,0.124,0.191,0.249,0.282,0.378
				c2.407,3.531,4.397,7.248,7.243,10.491c2.811,3.206,5.815,6.131,9.039,9.014c3.174,2.834,5.14,7.328,8.699,9.804
				c3.481,2.424,7.998,3.422,11.836,5.466c3.842,2.039,8.332,2.286,12.289,3.816c4.043,1.563,7.654,3.923,11.78,4.967
				c4.192,1.057,8.278,2.382,12.507,2.918c4.281,0.541,8.57,0.22,12.844,0.237c4.307,0.019,8.764,1.844,13.016,1.345
				c4.271-0.499,8.736-1.026,12.906-2.034c4.172-1.008,7.682-4.468,11.703-5.97c4.018-1.496,7.777-3.419,11.598-5.394
				c3.639-1.885,6.592-4.679,9.958-7.044L161.379,167.748z"/>
			<path fill="#EBD53B" d="M131,261.191c1.473,1.66,8.023,1.689,9.941-0.088c2.98-2.759-0.951-3.515-0.418-6.297
				c1.629-0.245,8.002,0.304,9.109,1.728c2.004,2.575-1.149,2.837-2.939,4.325c2.431,3.071,5.933,5.873,9.361,7.532"/>
			<path fill="#E3AB3C" d="M212.285,253.765c-3.82,1.975-7.58,3.896-11.598,5.395c-4.021,1.502-7.531,4.962-11.703,5.969
				c-4.17,1.007-8.635,1.535-12.906,2.036c-4.252,0.497-8.709-1.328-13.014-1.345c-4.275-0.019-8.563,0.302-12.844-0.24
				c-4.23-0.534-8.316-1.86-12.51-2.918c-4.123-1.043-7.736-3.402-11.781-4.967c-3.955-1.53-8.444-1.777-12.287-3.816
				c-3.838-2.041-8.355-3.041-11.836-5.465c-3.559-2.476-5.525-6.97-8.698-9.805c-3.224-2.882-6.229-5.805-9.04-9.013
				c-1.668-1.905-3.045-3.974-4.383-6.068l-4.645,3.169c0.094,0.124,0.191,0.249,0.282,0.378c2.407,3.531,4.397,7.248,7.243,10.491
				c2.811,3.206,5.815,6.131,9.039,9.014c3.174,2.834,5.14,7.328,8.699,9.804c3.481,2.424,7.998,3.422,11.836,5.466
				c3.842,2.039,8.332,2.286,12.289,3.816c4.043,1.563,7.654,3.923,11.78,4.967c4.192,1.057,8.278,2.382,12.507,2.918
				c4.281,0.541,8.57,0.22,12.844,0.237c4.307,0.019,8.764,1.844,13.016,1.345c4.271-0.499,8.736-1.026,12.906-2.034
				c4.172-1.008,7.682-4.468,11.703-5.97c4.018-1.496,7.777-3.419,11.598-5.394c3.639-1.885,6.592-4.679,9.958-7.044l-3.073-4.5
				C215.957,251.506,214.217,252.765,212.285,253.765z"/>
			<path fill="#F5E175" d="M179.828,194.768c-0.216,0.025-0.447,0.04-0.709,0.03c-1.492-0.045-3.469-2.719-4.828-3.432
				c-1.363,1.196-2.378,2.626-2.957,4.349c-3.672-0.427-10.69-0.496-13.871-2.212c-5.26-2.835-4.059-9.47-10.516-2.327
				c0.049-1.463,1.11-4.88-0.463-5.947c-1.752-1.187-3.854,1.635-5.689-0.244c-0.48-0.492-0.4-1.759-0.291-2.985l-46.773,31.937
				c-0.645,4.774-0.162,2.503,4.462,4.725c3.245,1.559,2.434,4.253,4.564,6.285c2.681,2.549,4.72,0.73,6.368,4.031
				c1.016,2.038-0.091,3.54,2.137,5.421c1.732,1.462,4.225,1.686,6.393,1.908c1.732,0.179,4.02-0.66,5.629,0.354
				c2.176,1.366,2.107,5.159,3.982,6.975c3.906,3.782,7.789-0.028,11.736,1.269c1.64,0.539,2.061,2.74,4.508,3.011
				c2.482,0.273,4.521-2.227,6.936-1.663c4.441,1.038,4.506,6.34,9.67,3.436c1.549-0.871,1.361-2.509,3.24-2.654
				c1.859-0.145,4.753,3.372,6.781,3.745c4.222,0.782,5.418-3.146,9.232-3.091c1.137,0.014,2.697,1.777,4.523,1.651
				c3.348-0.233,3.879-3.248,6.586-4.128c2.873-0.934,4.117,1.547,7.557-0.244c1.857-0.968,2.699-3.275,4.504-4.186
				c1.076-0.544,2.139,0.951,2.773,0.557c1.506-0.937,2.49-2.724,3.098-4.706L179.828,194.768z"/>
			<path fill="#E2C236" d="M108.694,233.068c-3.617-8.925,7.275-13.568,12.561-17.616c-1.34,2.605-10.063,8.342-7.998,11.989
				c2.797,4.945,9.643-6.555,10.832-8.105c-1.566,2.153-9.695,22.771-15.042,14.438"/>
			<path fill="#E2C236" d="M132.336,254.24c4.635-5.501,4.977-15.566,10.531-20.076c-3.223,7.671-4.459,16.236-10.885,21.842"/>
			<path fill="#E2C236" d="M147.155,185.433c-0.477,2.68-4.529,5.884-6.094,8.193c-1.832,2.706-3.928,5.707-5.229,8.627
				c2.281-2.778,4.873-5.167,7.09-8.078c1.814-2.384,6.158-6.044,6.35-9.096"/>
			<path fill="#E2C236" d="M156.683,215.779c0.954,6.887-3.257,14.563-2.761,21.847c1.723-1.314,2.112-6.509,2.683-8.773
				c1.11-4.415,1.198-9.093,2.195-13.426"/>
			<path fill="#E2C236" d="M139.393,209.781c-0.225,2.664-3.801,5.824-5.3,8.117c-1.626,2.482-3.071,4.909-3.854,7.753
				c5.594-1.938,8.354-12.366,10.537-17.189c-0.385,0.289-0.689,0.629-1.029,0.965"/>
			<path fill="#E2C236" d="M89.286,222.836c5.683-3.321,10.437-8.872,16.562-11.534c-1.246,6.67-12.189,9.256-17.268,11.887"/>
			<path fill="#E2C236" d="M172.561,259.886c2.389-6.646-3.9-15.731-1.057-22.232c2.502,5.824,1.748,14.13,1.764,20.469"/>
			<path fill="#E2C236" d="M167.269,188.608c1.31,3.581-1.874,14.341,2.063,15.868c0.215-4.193,1.641-12.126-1.006-15.516"/>
			<path fill="#E2C236" d="M181.384,216.133c-0.31,5.733,4.653,13.254,7.441,18.04c1.168-2.271-0.75-5.209-1.702-7.425
				c-1.885-4.379-2.969-10.501-6.092-14.145"/>
			<path fill="#E2C236" d="M188.793,248.594c1.773,3.523,1.915,9.196,5.239,11.632c0.62-3.463-2.001-11.196-4.888-13.043"/>
			<path fill="#E2C236" d="M107.987,248.243c1.672-2.711,4.314-6.699,7.717-7.011c0.094,3.37-5.047,7.322-7.717,8.774"/>
		</g>
		<g>
			<path fill="#A37326" d="M218.842,213.26l5.032,14.441c0.121,0.098,0.247,0.191,0.366,0.297c3.205,2.827,6.05,5.936,9.607,8.38
				c3.518,2.413,7.148,4.507,10.984,6.505c3.777,1.964,6.787,5.832,10.849,7.355c3.972,1.486,8.595,1.342,12.819,2.373
				s8.637,0.164,12.848,0.67c4.309,0.518,8.39,1.912,12.644,1.904c4.324-0.008,8.608,0.268,12.84-0.256
				c4.283-0.533,8.362-1.9,12.507-2.938c4.177-1.044,8.948-0.376,12.945-1.908c4.016-1.536,8.211-3.151,12.002-5.157
				c3.798-2.006,6.344-6.225,9.871-8.67c3.524-2.443,6.693-5.234,9.91-8.09c3.061-2.723,2.555-3.037,5.234-6.158l-2.723-17.86
				L218.842,213.26z"/>
			<path fill="#8C6125" d="M281.348,253.282c4.309,0.518,8.39,1.912,12.644,1.904c4.324-0.008,8.608,0.268,12.84-0.256
				c4.283-0.533,8.362-1.9,12.507-2.938c4.177-1.044,8.948-0.376,12.945-1.908c4.016-1.536,8.211-3.151,12.002-5.157
				c3.798-2.006,6.344-6.225,9.871-8.67c3.524-2.443,6.693-5.234,9.91-8.09c3.061-2.723,2.555-3.037,5.234-6.158l-2.723-17.86
				l-24.736,1.526l-70.855,47.332C274.437,253.343,277.957,252.872,281.348,253.282z"/>
			<path fill="#EDCF36" d="M287.602,134.537l-69.126,78.427c0.121,0.097,0.247,0.194,0.366,0.297
				c3.204,2.828,6.051,5.939,9.608,8.38c3.515,2.413,7.147,4.507,10.982,6.505c3.774,1.963,6.788,5.834,10.851,7.355
				c3.971,1.489,8.594,1.342,12.817,2.377c4.226,1.027,8.638,0.159,12.851,0.666c4.305,0.518,8.387,1.914,12.643,1.907
				c4.322-0.011,8.609,0.266,12.84-0.257c4.281-0.533,8.359-1.902,12.504-2.939c4.179-1.045,8.947-0.375,12.945-1.908
				c4.017-1.537,8.214-3.149,12.006-5.154c3.796-2.007,6.343-6.226,9.869-8.674c3.523-2.439,6.692-5.232,9.908-8.088
				c3.062-2.724,5.234-6.16,7.912-9.282L287.602,134.537z"/>
			<path fill="#EBD53B" d="M281.215,232.587c1.837,1.245,8.192-0.342,9.611-2.538c2.207-3.408-1.789-3.171-1.959-5.999
				c1.52-0.64,7.83-1.68,9.256-0.573c2.578,2.001-0.415,3.032-1.782,4.916c3.112,2.377,7.198,4.229,10.929,4.991"/>
			<path fill="#E3AB3C" d="M358.156,205.337c-3.216,2.855-6.387,5.646-9.908,8.09c-3.527,2.447-6.076,6.666-9.871,8.671
				c-3.791,2.005-7.988,3.617-12.004,5.156c-3.998,1.532-8.768,0.862-12.943,1.909c-4.147,1.035-8.225,2.404-12.508,2.935
				c-4.229,0.526-8.516,0.249-12.842,0.259c-4.252,0.007-8.336-1.389-12.643-1.907c-4.209-0.507-8.621,0.36-12.848-0.667
				c-4.224-1.031-8.848-0.885-12.818-2.376c-4.059-1.521-7.073-5.391-10.85-7.355c-3.834-1.998-7.468-4.089-10.982-6.505
				c-2.087-1.434-3.933-3.099-5.745-4.799l-3.719,4.217c0.121,0.097,0.247,0.194,0.366,0.297c3.204,2.828,6.051,5.939,9.608,8.38
				c3.515,2.413,7.147,4.507,10.982,6.505c3.774,1.963,6.788,5.834,10.851,7.355c3.971,1.489,8.594,1.342,12.817,2.377
				c4.226,1.027,8.638,0.159,12.851,0.666c4.305,0.518,8.387,1.914,12.643,1.907c4.322-0.011,8.609,0.266,12.84-0.257
				c4.281-0.533,8.359-1.902,12.504-2.939c4.179-1.045,8.947-0.375,12.945-1.908c4.017-1.537,8.214-3.149,12.006-5.154
				c3.796-2.007,6.343-6.226,9.869-8.674c3.523-2.439,6.692-5.232,9.908-8.088c3.062-2.724,5.234-6.16,7.912-9.282l-4.088-3.603
				C361.156,202.241,359.781,203.891,358.156,205.337z"/>
			<path fill="#F5E175" d="M312.147,156.171c-0.203,0.078-0.423,0.149-0.68,0.204c-1.457,0.325-4.033-1.778-5.525-2.135
				c-1.025,1.495-1.656,3.132-1.793,4.943c-3.664,0.493-10.482,2.158-13.988,1.279c-5.796-1.449-6.27-8.176-10.765,0.339
				c-0.313-1.43-0.127-5.004-1.915-5.648c-1.99-0.719-3.331,2.534-5.574,1.166c-0.586-0.357-0.822-1.605-1.019-2.82l-37.45,42.488
				c0.555,4.786,0.461,2.465,5.49,3.477c3.531,0.711,3.408,3.522,5.975,4.966c3.227,1.809,4.754-0.456,7.164,2.335
				c1.488,1.725,0.787,3.454,3.41,4.727c2.039,0.988,4.51,0.592,6.666,0.272c1.723-0.254,3.73-1.632,5.543-1.045
				c2.445,0.787,3.314,4.479,5.58,5.776c4.717,2.701,7.539-1.949,11.686-1.666c1.723,0.117,2.674,2.146,5.111,1.805
				c2.473-0.347,3.832-3.273,6.311-3.322c4.561-0.09,5.932,5.033,10.219,0.944c1.287-1.227,0.7-2.768,2.485-3.372
				c1.765-0.599,5.438,2.096,7.496,1.957c4.284-0.283,4.475-4.386,8.185-5.273c1.104-0.268,3.052,1.057,4.79,0.484
				c3.187-1.053,2.958-4.105,5.364-5.625c2.555-1.613,4.371,0.482,7.264-2.101c1.561-1.397,1.808-3.841,3.332-5.167
				c0.908-0.793,2.307,0.394,2.824-0.146c1.229-1.279,1.74-3.255,1.842-5.324L312.147,156.171z"/>
			<path fill="#E2C236" d="M252.659,210.837c-5.708-7.758,3.702-14.945,7.826-20.172c-0.656,2.856-7.694,10.566-4.793,13.592
				c3.931,4.104,7.728-8.73,8.497-10.527c-0.986,2.474-3.777,24.46-11.014,17.703"/>
			<path fill="#E2C236" d="M280.795,225.52c3.134-6.474,0.982-16.313,5.252-22.054c-1.23,8.229-0.314,16.835-5.16,23.852"/>
			<path fill="#E2C236" d="M278.18,155.185c0.199,2.714-2.938,6.819-3.885,9.442c-1.107,3.075-2.398,6.501-2.938,9.651
				c1.525-3.256,3.447-6.21,4.877-9.577c1.17-2.758,4.477-7.377,3.91-10.382"/>
			<path fill="#E2C236" d="M294.9,182.242c2.624,6.438,0.437,14.917,2.714,21.854c1.346-1.7,0.441-6.83,0.437-9.165
				c-0.013-4.553-1.083-9.107-1.185-13.552"/>
			<path fill="#E2C236" d="M276.664,180.694c0.439,2.638-2.246,6.582-3.133,9.174c-0.963,2.809-1.764,5.516-1.822,8.465
				c4.941-3.259,5.045-14.045,5.971-19.258c-0.303,0.375-0.514,0.779-0.76,1.189"/>
			<path fill="#E2C236" d="M231.327,205.707c4.688-4.62,7.927-11.171,13.204-15.263c0.438,6.771-9.529,11.977-13.801,15.779"/>
			<path fill="#E2C236" d="M321.17,221.069c0.674-7.03-7.662-14.283-6.51-21.285c3.861,5.027,5.18,13.262,6.758,19.401"/>
			<path fill="#E2C236" d="M298.455,153.3c2.153,3.147,1.722,14.359,5.916,14.868c-0.826-4.116-1.402-12.155-4.805-14.788"/>
			<path fill="#E2C236" d="M318.926,176.491c1.113,5.633,7.777,11.696,11.662,15.646c0.57-2.49-2.014-4.862-3.482-6.775
				c-2.906-3.778-5.467-9.445-9.393-12.205"/>
			<path fill="#E2C236" d="M334.114,206.121c2.588,2.978,4.125,8.44,7.947,9.98c-0.253-3.509-4.701-10.356-7.955-11.435"/>
			<path fill="#E2C236" d="M255.719,225.716c0.949-3.039,2.527-7.557,5.748-8.697c0.922,3.242-3.085,8.341-5.313,10.407"/>
		</g>
		<path opacity="0.3" fill="#74541F" d="M218.59,258.499c0.252-0.043,34.021-11.796-47.455-31.424l-17.996,12.487l8.566,11.713
			c0.143,0.062,4.16,1.934,4.303,2c3.869,1.818,6.607-0.379,10.707,0.968c4.051,1.326,8.126,2.316,12.369,3.157
			c4.174,0.825-1.064,0.35,3.258,0.669c4.23,0.315,8.629-1.122,12.971-1.319C209.656,256.552,214.406,259.195,218.59,258.499z"/>
		<path opacity="0.3" fill="#74541F" d="M291.281,180.323c1.563,3.981,1.454,9.12,2.935,13.495c1.36,4.023,2.172,7.356,1.235,11.869
			c-1.737,8.371-5.326,17.34-7.849,25.816c-0.969,3.262-1.664,7.848-3.264,10.641c-4.63,8.08-18.531,2.132-24.681-2.377
			c-9.417-6.904-17.646-17.899-16.423-29.719c0.708-6.845,6.711-13.253,11.93-18.195c2.287-2.166,5.682-3.431,7.284-5.967"/>
		<g>
			<path fill="#A37326" d="M155.489,216.248l-2.35,17.711c0.143,0.061,0.291,0.117,0.435,0.184c3.866,1.815,7.47,4.002,11.575,5.344
				c4.051,1.331,8.123,2.316,12.365,3.158c4.176,0.824,8.156,3.693,12.479,4.014c4.231,0.312,8.627-1.124,12.971-1.318
				c4.344-0.2,8.334-2.272,12.518-2.968c4.279-0.711,8.589-0.521,12.669-1.724c4.149-1.222,8.341-2.158,12.255-3.85
				c3.961-1.716,7.486-4.17,11.178-6.33c3.715-2.174,8.48-2.873,11.889-5.466c3.422-2.602,6.998-5.331,10.074-8.321
				c3.078-2.989,4.338-7.754,7.037-11.093c2.695-3.334,4.953-6.901,7.238-10.546c2.172-3.474,1.602-3.636,3.293-7.381l4.045-21.458
				L155.489,216.248z"/>
			<path fill="#8C6125" d="M215.481,242.372c4.279-0.711,8.589-0.521,12.669-1.724c4.149-1.222,8.341-2.158,12.255-3.85
				c3.961-1.716,7.486-4.17,11.178-6.33c3.715-2.174,8.48-2.873,11.889-5.466c3.422-2.602,6.998-5.331,10.074-8.321
				c3.078-2.989,4.338-7.754,7.037-11.093c2.695-3.334,4.953-6.901,7.238-10.546c2.172-3.474,1.602-3.636,3.293-7.381l4.045-21.458
				l-34.984,13.491l-54.713,65.321C208.866,244.369,212.113,242.934,215.481,242.372z"/>
			<path fill="#EDCF36" d="M199.813,121.567l-44.324,94.681c0.143,0.061,0.293,0.115,0.436,0.182
				c3.868,1.817,7.473,4.001,11.572,5.347c4.051,1.329,8.127,2.318,12.369,3.157c4.174,0.828,8.154,3.693,12.477,4.012
				c4.23,0.317,8.629-1.122,12.971-1.319c4.344-0.196,8.338-2.269,12.521-2.964c4.276-0.711,8.589-0.519,12.667-1.721
				c4.15-1.223,8.342-2.161,12.252-3.853c3.963-1.711,7.49-4.171,11.18-6.33c3.715-2.175,8.483-2.875,11.889-5.466
				c3.42-2.604,6.996-5.332,10.074-8.318c3.078-2.992,4.339-7.76,7.037-11.095c2.695-3.337,4.952-6.903,7.236-10.547
				c2.176-3.473,3.295-7.383,4.99-11.129L199.813,121.567z"/>
			<path fill="#EBD53B" d="M221.215,217.468c2.111,0.678,7.764-2.632,8.513-5.135c1.159-3.895-2.608-2.542-3.565-5.211
				c1.277-1.038,7.041-3.809,8.719-3.147c3.041,1.199,0.454,3.026-0.326,5.217c3.654,1.409,8.095,2.039,11.89,1.724"/>
			<path fill="#E3AB3C" d="M287.407,169.708c-2.284,3.643-4.542,7.212-7.237,10.546c-2.699,3.338-3.957,8.103-7.038,11.095
				c-3.077,2.987-6.651,5.715-10.073,8.319c-3.406,2.591-8.174,3.288-11.891,5.465c-3.686,2.16-7.215,4.62-11.176,6.329
				c-3.914,1.693-8.105,2.635-12.254,3.854c-4.08,1.199-8.391,1.01-12.668,1.722c-4.184,0.696-8.176,2.767-12.521,2.967
				c-4.343,0.195-8.739,1.633-12.972,1.316c-4.322-0.318-8.301-3.185-12.475-4.01c-4.242-0.841-8.316-1.829-12.369-3.16
				c-2.408-0.788-4.643-1.869-6.863-2.993l-2.383,5.091c0.143,0.061,0.293,0.115,0.436,0.182c3.868,1.817,7.473,4.001,11.572,5.347
				c4.051,1.329,8.127,2.318,12.369,3.157c4.174,0.828,8.154,3.693,12.477,4.012c4.23,0.317,8.629-1.122,12.971-1.319
				c4.344-0.196,8.338-2.269,12.521-2.964c4.276-0.711,8.589-0.519,12.667-1.721c4.15-1.223,8.342-2.161,12.252-3.853
				c3.963-1.711,7.49-4.171,11.18-6.33c3.715-2.175,8.483-2.875,11.889-5.466c3.42-2.604,6.996-5.332,10.074-8.318
				c3.078-2.992,4.339-7.76,7.037-11.095c2.695-3.337,4.952-6.903,7.236-10.547c2.176-3.473,3.295-7.383,4.99-11.129l-4.938-2.311
				C289.418,165.893,288.563,167.863,287.407,169.708z"/>
			<path fill="#F5E175" d="M229.442,135.44c-0.17,0.131-0.361,0.259-0.592,0.385c-1.305,0.72-4.367-0.575-5.902-0.496
				c-0.564,1.721-0.71,3.469-0.332,5.249c-3.379,1.499-9.453,5.013-13.068,5.153c-5.969,0.235-8.313-6.085-10.234,3.349
				c-0.705-1.286-1.529-4.769-3.426-4.886c-2.112-0.13-2.484,3.37-5.021,2.686c-0.662-0.179-1.239-1.31-1.77-2.422l-24.012,51.296
				c1.875,4.439,1.131,2.239,6.244,1.794c3.586-0.308,4.26,2.424,7.127,3.087c3.604,0.832,4.436-1.773,7.535,0.23
				c1.912,1.238,1.721,3.094,4.596,3.581c2.236,0.378,4.497-0.698,6.474-1.611c1.585-0.728,3.126-2.613,5.028-2.562
				c2.568,0.073,4.438,3.371,6.979,3.98c5.287,1.267,6.689-3.989,10.746-4.884c1.688-0.366,3.168,1.314,5.414,0.3
				c2.275-1.028,2.759-4.218,5.123-4.962c4.349-1.363,7.107,3.168,10.072-1.963c0.89-1.539-0.104-2.853,1.438-3.933
				c1.527-1.068,5.811,0.483,7.745-0.226c4.032-1.478,3.063-5.465,6.372-7.361c0.988-0.565,3.229,0.159,4.734-0.881
				c2.766-1.901,1.689-4.77,3.572-6.903c2-2.267,4.329-0.764,6.379-4.056c1.111-1.778,0.659-4.192,1.746-5.896
				c0.65-1.013,2.325-0.266,2.672-0.931c0.82-1.571,0.758-3.612,0.273-5.628L229.442,135.44z"/>
			<path fill="#E2C236" d="M263.953,181.551c-6.729,4.628-20.949-8.273-20.043-15.771c1.744,2.947,5.4,9.545,9.811,8.361
				c5.605-1.507-2.551-8.245-4.834-9.923c4.463,3.586,9.713,5.076,13.645,9.293C263.605,174.663,266.323,177.324,263.953,181.551"/>
			<path fill="#E2C236" d="M203.262,141.325c-0.01,5.116,1.843,10.789,3.811,15.435c0.623-4.337-1.079-14.059-3.811-17.199"/>
			<path fill="#E2C236" d="M188.793,185.786c-0.441,8.606-4.172,17.286-2.126,26c1.694-4.258,5.479-22.201,2.126-24.941"/>
			<path fill="#E2C236" d="M200.791,170.613c1.434,5.097-0.216,13.452,2.752,17.65c0.377-6.343-0.938-12.93-2.399-19.063"/>
			<path fill="#E2C236" d="M226.198,185.08c1.313,3.732,6.486,18.102,10.184,18.658c-0.404-3.274-3.445-6.881-4.803-9.97
				c-1.021-2.329-2.539-10.905-5.732-10.806"/>
			<path fill="#E2C236" d="M230.078,149.441c3.518,4.901,7.598,7.594,12.271,11.215c-3.252-4.705-7.91-8.966-12.271-12.627"/>
			<path fill="#E2C236" d="M223.727,160.732c1.523,3.191,3.457,8.474,7.061,9.458c-0.637-3.462-4.672-7.5-7.061-10.163"/>
			<path fill="#E2C236" d="M247.369,183.669c0.18,3.699,5.684,7.993,8.436,10.155c0.027-2.861-5.092-9.566-8.084-9.803"/>
			<path fill="#E2C236" d="M266.777,159.673c2.817,4.257,8.297,7.343,13.05,8.802c-1.658-4.569-9.279-7.882-13.756-8.096"/>
			<path fill="#E2C236" d="M186.324,158.615c-1.23,3.899-2.614,7.852-2.768,12.007c2.932-2.776,4.848-10.797,2.768-14.478"/>
		</g>
		<path opacity="0.3" fill="#74541F" d="M245.059,235.618c0.002-0.002,0.004-0.007,0.008-0.01c3.374-2.354,7.084-4.123,10.855-5.776
			c3.443-2.215,6.893-4.421,10.336-6.635c-15.162-9.844-19.813-15.191-26.336-19.324l-15.773,4.98l-26.42,38.149
			C212.739,241.654,229.656,240.3,245.059,235.618z"/>
		<g>
			<path fill="#A37326" d="M162.287,286.272l2.178,16.306c0.131,0.086,0.268,0.169,0.393,0.26c3.458,2.516,6.583,5.341,10.354,7.438
				c3.729,2.072,7.543,3.813,11.549,5.438c3.943,1.6,7.309,5.17,11.494,6.301c4.094,1.11,8.686,0.53,12.984,1.16
				c4.305,0.625,8.615-0.656,12.855-0.547c4.334,0.107,8.532,1.112,12.768,0.703c4.303-0.413,8.596-0.544,12.758-1.466
				c4.215-0.932,8.143-2.679,12.174-4.103c4.059-1.433,8.873-1.217,12.711-3.12c3.852-1.908,7.875-3.911,11.463-6.264
				c3.59-2.355,5.727-6.794,9.008-9.563c3.274-2.766,6.168-5.843,9.102-8.989c2.791-2.998,2.26-3.265,4.631-6.625l0.189-19.663
				L162.287,286.272z"/>
			<path fill="#8C6125" d="M224.094,322.628c4.334,0.107,8.532,1.112,12.768,0.703c4.303-0.413,8.596-0.544,12.758-1.466
				c4.215-0.932,8.143-2.679,12.174-4.103c4.059-1.433,8.873-1.217,12.711-3.12c3.852-1.908,7.875-3.911,11.463-6.264
				c3.59-2.355,5.727-6.794,9.008-9.563c3.274-2.766,6.168-5.843,9.102-8.989c2.791-2.998,2.26-3.265,4.631-6.625l0.189-19.663
				l-29.063,5.993l-66.079,53.799C217.221,323.339,220.68,322.54,224.094,322.628z"/>
			<path fill="#EDCF36" d="M223.711,201.68l-61.424,84.592c0.128,0.086,0.263,0.171,0.391,0.262
				c3.459,2.514,6.584,5.341,10.355,7.438c3.729,2.072,7.541,3.811,11.547,5.439c3.944,1.601,7.308,5.168,11.492,6.301
				c4.096,1.108,8.686,0.528,12.986,1.156c4.305,0.627,8.615-0.651,12.855-0.545c4.334,0.109,8.531,1.112,12.766,0.706
				c4.306-0.416,8.598-0.547,12.762-1.469c4.211-0.934,8.139-2.678,12.171-4.102c4.062-1.433,8.874-1.216,12.709-3.117
				c3.853-1.911,7.88-3.914,11.464-6.267c3.59-2.354,5.727-6.796,9.01-9.563c3.277-2.763,6.168-5.841,9.102-8.989
				c2.789-2.998,4.629-6.625,7-9.984L223.711,201.68z"/>
			<path fill="#EBD53B" d="M226.596,299.895c1.945,1.067,8.121-1.114,9.332-3.432c1.873-3.602-2.082-2.989-2.52-5.791
				c1.452-0.776,7.637-2.406,9.16-1.441c2.757,1.751-0.127,3.061-1.309,5.063c3.32,2.072,7.563,3.534,11.352,3.938"/>
			<path fill="#E3AB3C" d="M300.627,265.515c-2.937,3.146-5.826,6.225-9.103,8.987c-3.284,2.769-5.419,7.208-9.011,9.562
				c-3.586,2.355-7.611,4.356-11.463,6.264c-3.834,1.902-8.65,1.688-12.709,3.121c-4.029,1.426-7.96,3.17-12.172,4.104
				c-4.163,0.919-8.457,1.05-12.76,1.467c-4.234,0.408-8.432-0.598-12.766-0.706c-4.24-0.107-8.551,1.171-12.857,0.546
				c-4.301-0.63-8.889-0.048-12.982-1.157c-4.188-1.133-7.551-4.7-11.492-6.301c-4.01-1.626-7.826-3.368-11.551-5.44
				c-2.215-1.231-4.207-2.714-6.17-4.238l-3.305,4.55c0.128,0.086,0.263,0.171,0.391,0.262c3.459,2.514,6.584,5.341,10.355,7.438
				c3.729,2.072,7.541,3.811,11.547,5.439c3.944,1.601,7.308,5.168,11.492,6.301c4.096,1.108,8.686,0.528,12.986,1.156
				c4.305,0.627,8.615-0.651,12.855-0.545c4.334,0.109,8.531,1.112,12.766,0.706c4.306-0.416,8.598-0.547,12.762-1.469
				c4.211-0.934,8.139-2.678,12.171-4.102c4.062-1.433,8.874-1.216,12.709-3.117c3.853-1.911,7.88-3.914,11.464-6.267
				c3.59-2.354,5.727-6.796,9.01-9.563c3.277-2.763,6.168-5.841,9.102-8.989c2.789-2.998,4.629-6.625,7-9.984l-4.408-3.201
				C303.321,262.151,302.106,263.922,300.627,265.515z"/>
			<path fill="#F5E175" d="M250.186,220.904c-0.192,0.098-0.404,0.188-0.654,0.269c-1.42,0.46-4.18-1.393-5.703-1.604
				c-0.881,1.583-1.357,3.272-1.316,5.09c-3.604,0.834-10.234,3.137-13.809,2.592c-5.908-0.896-7.01-7.548-10.684,1.353
				c-0.447-1.395-0.6-4.971-2.441-5.444c-2.047-0.526-3.076,2.837-5.439,1.688c-0.617-0.304-0.969-1.523-1.278-2.714l-33.277,45.828
				c0.999,4.712,0.688,2.412,5.79,2.947c3.582,0.373,3.727,3.184,6.418,4.376c3.381,1.5,4.688-0.899,7.352,1.652
				c1.645,1.575,1.111,3.362,3.84,4.384c2.123,0.791,4.547,0.164,6.66-0.356c1.695-0.415,3.563-1.978,5.422-1.563
				c2.51,0.554,3.721,4.146,6.1,5.223c4.952,2.246,7.322-2.649,11.478-2.759c1.725-0.042,2.862,1.887,5.259,1.316
				c2.428-0.579,3.506-3.621,5.971-3.903c4.529-0.519,6.379,4.453,10.258-0.021c1.166-1.343,0.439-2.823,2.157-3.591
				c1.702-0.763,5.614,1.571,7.647,1.24c4.24-0.685,4.043-4.786,7.652-6.021c1.075-0.37,3.139,0.763,4.814,0.031
				c3.072-1.35,2.557-4.365,4.811-6.105c2.391-1.848,4.396,0.069,7.031-2.776c1.425-1.535,1.441-3.993,2.831-5.459
				c0.829-0.874,2.333,0.176,2.8-0.409c1.104-1.39,1.426-3.402,1.33-5.475L250.186,220.904z"/>
			<path fill="#E2C236" d="M265.08,276.708c-10.372-3.452-13.098-20.231-13.783-29.443c1.059,2.235,6.129,15.175,9.187,13.968
				c2.757-1.09-2.448-12.724-3.603-14.8c2.557,5.725,19.824,21.852,12.809,28.783"/>
			<path fill="#E2C236" d="M198.674,269.767c-1.902,5.911-4.445,12.083-7.029,17.646c4.178-4.146,6.523-12.358,7.734-17.998"/>
			<path fill="#E2C236" d="M223.022,275.061c1.115,3.949-1.895,14.485,2.127,16.648c3.285-3.489,0.551-14.112-1.068-18.06"/>
			<path fill="#E2C236" d="M213.494,245.42c-1.04,5.489-4.521,10.917-2.857,16.634c4.348-2.745,4.668-15.067,4.975-19.811"/>
			<path fill="#E2C236" d="M235.018,235.539c1.498,5.095,0.434,15.482,5.961,18.356c0.297-2.776-1.016-5.553-1.807-8.172
				c-1.148-3.815-1.461-9.604-4.154-12.655"/>
			<path fill="#E2C236" d="M243.134,272.944c0.766,3.75,1.778,10.317,5.606,11.922c0.248-4.948-4.256-11.323-5.606-16.157"/>
			<path fill="#E2C236" d="M199.379,243.303c-2.66,3.179-4.58,6.886-6.328,10.586c2.979-2.606,6.876-7.764,6.682-11.998"/>
			<path fill="#E2C236" d="M279.832,258.475c2.699,4.329,6.226,8.414,10.264,11.521c-1.49-5.034-6.934-10.58-11.321-13.284"/>
			<path fill="#E2C236" d="M253.014,231.304c2.327,3.781,5.701,7.218,9.426,9.505c-3.154-3.378-5.861-7.266-9.072-10.563"/>
		</g>
	</g>
</g>
</svg>
