<?xml version="1.0" encoding="utf-8"?>
<!-- Generator: Adobe Illustrator 16.0.0, SVG Export Plug-In . SVG Version: 6.00 Build 0)  -->
<!DOCTYPE svg PUBLIC "-//W3C//DTD SVG 1.1//EN" "http://www.w3.org/Graphics/SVG/1.1/DTD/svg11.dtd">
<svg version="1.1" id="Ebene_1" xmlns="http://www.w3.org/2000/svg" xmlns:xlink="http://www.w3.org/1999/xlink" x="0px" y="0px"
	 width="450px" height="450px" viewBox="0 0 450 450" enable-background="new 0 0 450 450" xml:space="preserve">
<g>
	<g opacity="0.3">
		<path d="M294.184,166.26c0,0.003,0,0.005,0,0.008c0.002-0.003,0.004-0.006,0.006-0.008
			C294.184,166.227,294.184,166.227,294.184,166.26z"/>
		<path d="M113.905,196.687l0.005,0.001c-0.001-0.001-0.002-0.003-0.003-0.004C113.887,196.658,113.887,196.664,113.905,196.687z"/>
		<path d="M213.752,152.264c0.002,0.002,0.004,0.004,0.006,0.006c0-0.003,0-0.006,0-0.009
			C213.733,152.24,213.729,152.24,213.752,152.264z"/>
		<path d="M346.185,268.797c0.089-0.227,0.169-0.459,0.245-0.695c0.037-0.114,0.074-0.227,0.107-0.343
			c0.02-0.065,0.043-0.127,0.061-0.192c0.003-0.011,0.006-0.021,0.008-0.031c0.073-0.272,0.135-0.554,0.191-0.837
			c0.008-0.04,0.02-0.078,0.027-0.119c0.023-0.118,0.038-0.241,0.059-0.362c0.02-0.124,0.039-0.249,0.059-0.375
			c0.023-0.166,0.047-0.332,0.065-0.501c0.015-0.131,0.024-0.266,0.035-0.398c0.013-0.14,0.028-0.277,0.038-0.42
			c0.004-0.072,0.008-0.146,0.012-0.22c0.004-0.09,0.004-0.184,0.008-0.274c0.006-0.161,0.012-0.322,0.014-0.485
			c0.002-0.184,0.001-0.369-0.002-0.555c-0.002-0.169-0.006-0.338-0.011-0.508c-0.013-0.329-0.036-0.666-0.063-1.003
			c-0.018-0.229-0.029-0.455-0.053-0.688c-0.041-0.396-0.1-0.803-0.16-1.21c-0.025-0.181-0.043-0.356-0.074-0.539
			c-0.096-0.575-0.209-1.16-0.339-1.751c-0.056-0.25-0.122-0.505-0.184-0.758c-0.087-0.361-0.173-0.722-0.272-1.087
			c-0.078-0.289-0.166-0.582-0.252-0.874c-0.099-0.334-0.197-0.667-0.305-1.004c-0.1-0.31-0.205-0.621-0.311-0.933
			c-0.111-0.324-0.225-0.648-0.344-0.975c-0.118-0.323-0.24-0.646-0.365-0.97c-0.123-0.318-0.25-0.637-0.382-0.955
			c-0.136-0.333-0.272-0.666-0.416-1c-0.134-0.311-0.274-0.621-0.415-0.932c-0.154-0.344-0.308-0.688-0.471-1.031
			c-0.135-0.287-0.279-0.574-0.421-0.861c-6.292-12.811-17.778-25.604-28.839-28.54c-2.952-0.784-5.633-1.252-8.09-1.438
			c0.028-0.044,0.057-0.089,0.086-0.134c0.068-0.104,0.139-0.211,0.205-0.315c0.363-0.577,0.701-1.147,1.02-1.712
			c0.064-0.115,0.123-0.229,0.187-0.345c0.255-0.466,0.495-0.928,0.721-1.385c0.065-0.132,0.132-0.264,0.193-0.395
			c0.264-0.553,0.511-1.102,0.731-1.643c0.012-0.027,0.021-0.054,0.031-0.081c0.207-0.51,0.391-1.014,0.561-1.514
			c0.045-0.135,0.09-0.268,0.133-0.401c0-0.001,0-0.003,0-0.004c0.26,0.144,0.513,0.304,0.779,0.429
			c-0.216-0.281-0.424-0.583-0.626-0.895c0.089-0.294,0.165-0.585,0.241-0.875c0.02-0.074,0.043-0.149,0.063-0.224
			c0.128-0.508,0.234-1.01,0.326-1.506c0.023-0.12,0.041-0.239,0.061-0.359c0.066-0.393,0.121-0.782,0.164-1.168
			c0.014-0.124,0.031-0.249,0.043-0.373c0.045-0.474,0.076-0.944,0.089-1.407c0.003-0.085-0.001-0.167,0.001-0.251
			c0.006-0.385,0-0.765-0.016-1.142c-0.006-0.144-0.014-0.286-0.023-0.428c-0.023-0.371-0.057-0.737-0.101-1.101
			c-0.011-0.085-0.016-0.171-0.028-0.255c-0.056-0.423-0.129-0.84-0.211-1.253c-0.03-0.149-0.064-0.296-0.098-0.443
			c-0.064-0.292-0.137-0.581-0.215-0.868c-0.039-0.144-0.076-0.289-0.117-0.432c-0.114-0.385-0.237-0.765-0.373-1.14
			c-0.053-0.147-0.111-0.292-0.168-0.438c-0.098-0.252-0.197-0.503-0.304-0.751c-0.071-0.169-0.146-0.338-0.222-0.505
			c-0.115-0.251-0.236-0.498-0.36-0.745c-0.005-0.009-0.009-0.017-0.013-0.025c0.854,0.499,1.686,0.942,2.422,1.272
			c2.414,1.077,6.107,3.279,8.824,3.133c-2.73-3.077-6.293-5.551-9.4-8.254c-2.65-2.302-5.4-4.439-8.141-6.618
			c1.324,0.594,9.057,0.847,10.748,0.29c-0.791-0.697-7.67-2.395-9.639-2.673c-0.826-0.118-1.576-0.217-2.275-0.354
			c1.107-0.926,2.184-2.063,2.602-2.731c-0.82,0.033-4.57,0.375-5.23,0.514c0.396-0.769,0.707-1.494,0.9-1.922
			c0.619-1.376,1.363-2.968,1.584-4.658c0.176-1.333,0.027-1.535-1.223-2.948c-2.934-3.319-1.479,1.999-1.811,3.688
			c-0.15,0.74-0.662,1.617-1.529,2.57c-0.182-0.89-0.248-1.645-0.527-2.51c-0.452-1.408-1.183-2.902-1.227-4.382
			c-1.063,1.405-1.914,2.93-2.305,4.663c-0.176,0.78-0.25,1.112-0.119,1.555c-0.006,0.014-0.012,0.027-0.018,0.041
			c-0.08-0.121-0.166-0.235-0.242-0.361c-1.98-3.262-3.445-6.808-4.727-10.43c-1.566,1.513-1.541,6.869-0.523,8.174
			c-1.441-0.655-1.107-0.657-9-4.473c-6.371-2.949-12.369-7.099-12.369-7.099c1.094,2.115,2.029,3.888,3.461,5.218
			c2.145,1.996,3.891,3.804,6.121,5.321c0.002,0.002,0.005,0.003,0.006,0.005c-5.182-0.424-10.453,1.143-16.424,5.685
			c-0.039,0.029-0.077,0.056-0.115,0.085c-0.223,0.17-0.449,0.355-0.674,0.534c-0.627,0.5-1.261,1.021-1.904,1.587
			c-0.391,0.344-0.771,0.711-1.146,1.094c-0.122-0.379-0.25-0.751-0.385-1.113c-0.051-0.136-0.101-0.271-0.152-0.404
			c0.305-0.056,0.607-0.12,0.906-0.194c-0.361-0.086-0.73-0.195-1.104-0.314c-0.117-0.285-0.241-0.56-0.365-0.835
			c-0.041-0.09-0.079-0.184-0.12-0.272c-0.228-0.488-0.468-0.958-0.716-1.414c-0.071-0.132-0.146-0.258-0.219-0.386
			c-0.193-0.339-0.393-0.669-0.598-0.989c-0.082-0.131-0.164-0.262-0.25-0.39c-0.268-0.401-0.544-0.792-0.83-1.166
			c-0.077-0.1-0.157-0.192-0.234-0.29c-0.225-0.282-0.455-0.557-0.689-0.823c-0.117-0.133-0.235-0.264-0.355-0.393
			c-0.23-0.249-0.467-0.489-0.706-0.723c-0.104-0.102-0.206-0.207-0.311-0.306c-0.304-0.284-0.614-0.555-0.932-0.817
			c-0.149-0.124-0.302-0.242-0.454-0.362c-0.209-0.163-0.42-0.321-0.633-0.476c-0.16-0.116-0.32-0.234-0.482-0.346
			c-0.326-0.222-0.654-0.436-0.99-0.639c-0.186-0.112-0.375-0.216-0.564-0.323c-0.192-0.109-0.387-0.218-0.582-0.321
			c-0.207-0.109-0.416-0.217-0.626-0.32c-0.185-0.091-0.373-0.177-0.562-0.263c-0.066-0.031-0.133-0.063-0.199-0.094
			c1.024-0.158,1.996-0.35,2.814-0.569c2.678-0.718,7.148-1.374,9.262-3.291c-4.26-0.699-8.801-0.354-13.127-0.497
			c-3.682-0.119-7.34-0.041-11.014,0c1.471-0.395,7.938-5.311,8.949-6.882c-1.109-0.047-7.836,3.127-9.625,4.204
			c-0.752,0.45-1.428,0.867-2.09,1.222c0.289-1.487,0.414-3.129,0.313-3.95c-0.648,0.57-3.475,3.335-3.924,3.883
			c-0.188-0.886-0.414-1.685-0.537-2.16c-0.408-1.533-0.854-3.323-1.795-4.847c-0.74-1.202-0.994-1.267-2.953-1.593
			c-4.588-0.759,0.119,2.607,0.967,4.207c0.371,0.702,0.535,1.756,0.461,3.107c-0.738-0.607-1.291-1.178-2.092-1.699
			c-1.301-0.843-2.888-1.58-3.904-2.757c0.068,1.85,0.381,3.657,1.213,5.328c0.374,0.754,0.531,1.074,0.934,1.347
			c0.004,0.015,0.008,0.029,0.012,0.044c-0.146-0.047-0.293-0.082-0.438-0.133c-3.775-1.35-7.316-3.266-10.76-5.369
			c-0.275,2.273,3.295,6.618,4.988,7.009c-1.611,0.418-1.34,0.197-10.297,2.317c-7.141,1.817-14.779,2.412-14.779,2.412
			c2.289,1,4.229,1.823,6.275,1.959c3.07,0.202,5.689,0.521,8.514,0.279c0.002,0,0.004,0,0.006-0.001
			c-5.168,3.545-8.693,9.3-10.348,19.096c-0.077,0.459-0.127,0.932-0.176,1.404c-1.495,0.473-3.059,1.06-4.701,1.771
			c-0.277,0.12-0.551,0.268-0.826,0.401c-0.782-0.685-1.588-1.351-2.404-2.006c-0.002-0.002-0.005-0.005-0.008-0.007
			c-9.178-7.363-20.367-12.73-29.422-12.284c-10.104,0.5-16.345,3.376-20.548,8.176c0.001-0.001,0.001-0.003,0.001-0.004
			c0.578-2.83,0.574-5.516,0.734-8.645c0.109-2.087-0.49-4.144-1.227-6.579c0,0-1.518,7.653-4.209,14.657
			c-3.217,8.806-2.961,8.557-3.576,10.136c-0.191-1.76-4.16-5.892-6.488-5.885c1.713,3.735,3.229,7.546,4.137,11.524
			c0.035,0.154,0.053,0.307,0.084,0.459c-0.014-0.006-0.027-0.011-0.041-0.017c-0.229-0.439-0.533-0.639-1.252-1.108
			c-1.59-1.039-3.382-1.574-5.247-1.864c1.073,1.17,1.626,2.861,2.323,4.278c0.436,0.873,0.945,1.502,1.47,2.32
			c-1.376-0.086-2.422-0.377-3.087-0.837c-1.518-1.047-4.359-6.211-4.139-1.48c0.094,2.019,0.131,2.282,1.258,3.178
			c1.426,1.131,3.184,1.799,4.682,2.393c0.471,0.185,1.25,0.509,2.123,0.806c-0.607,0.384-3.742,2.914-4.396,3.501
			c0.818,0.202,2.496,0.273,4.035,0.155c-0.438,0.629-0.943,1.262-1.488,1.968c-1.303,1.683-5.316,8.104-5.404,9.229
			c1.713-0.831,7.457-6.783,8.033-8.225c-0.484,3.712-0.998,7.399-1.318,11.141c-0.375,4.389-1.268,8.941-1.07,13.334
			c2.193-1.91,3.389-6.35,4.439-8.975c0.32-0.801,0.629-1.761,0.911-2.778c0.015,0.045,0.03,0.089,0.044,0.134
			c0.075,0.234,0.15,0.469,0.232,0.7c0.074,0.21,0.152,0.419,0.232,0.626c0.09,0.231,0.184,0.462,0.281,0.69
			c0.078,0.187,0.154,0.374,0.238,0.559c0.168,0.37,0.348,0.736,0.537,1.098c0.088,0.171,0.186,0.339,0.279,0.508
			c0.134,0.241,0.273,0.48,0.417,0.717c0.101,0.165,0.2,0.33,0.306,0.493c0.23,0.356,0.471,0.709,0.725,1.055
			c0.084,0.113,0.176,0.224,0.262,0.335c0.208,0.271,0.424,0.54,0.648,0.805c0.116,0.137,0.234,0.272,0.355,0.407
			c0.239,0.267,0.488,0.529,0.744,0.788c0.092,0.093,0.179,0.188,0.273,0.279c0.342,0.334,0.701,0.658,1.074,0.977
			c0.121,0.104,0.248,0.204,0.371,0.306c0.252,0.206,0.51,0.408,0.775,0.607c0.502,0.941,1.709,1.896,3.039,2.638
			c0.021,0.136,0.051,0.275,0.066,0.409c0.039-0.103,0.07-0.208,0.105-0.312c1.6,0.863,3.334,1.402,4.205,1.221
			c-1.309,1.071-1.154,0.751-8.508,6.521c-5.809,4.715-12.596,8.518-12.596,8.518c2.537-0.056,4.672-0.121,6.617-0.868
			c2.918-1.12,5.469-1.944,7.967-3.367c0.003-0.002,0.006-0.003,0.008-0.005c-3.254,5.469-4.055,12.274-1.406,22.009
			c2.911,10.694,15.096,21.742,27.533,28.045l-0.002,0.003c0.031,0.016,0.063,0.03,0.094,0.046c0.128,0.064,0.256,0.123,0.383,0.187
			c0.528,0.263,1.057,0.519,1.584,0.764c0.219,0.102,0.438,0.196,0.657,0.295c0.437,0.195,0.872,0.389,1.307,0.571
			c0.247,0.104,0.494,0.204,0.741,0.304c0.408,0.165,0.814,0.326,1.22,0.479c0.255,0.096,0.508,0.188,0.761,0.28
			c0.399,0.144,0.796,0.28,1.191,0.412c0.25,0.083,0.5,0.166,0.749,0.244c0.404,0.128,0.805,0.244,1.204,0.357
			c0.232,0.066,0.465,0.136,0.695,0.196c0.445,0.119,0.884,0.223,1.321,0.323c0.178,0.04,0.358,0.088,0.534,0.126
			c0.607,0.13,1.209,0.244,1.8,0.338c0.112,0.018,0.22,0.026,0.331,0.043c0.477,0.07,0.949,0.132,1.412,0.178
			c0.205,0.02,0.404,0.028,0.607,0.043c0.24,0.018,0.485,0.042,0.723,0.053l0,0c0.002,0,0.004,0,0.004,0
			c0.119,0.005,0.233,0.005,0.35,0.009c0.158,0.004,0.314,0.006,0.472,0.008c0.19,0.001,0.38,0.001,0.566-0.002
			c0.167-0.003,0.332-0.01,0.497-0.018c0.096-0.004,0.193-0.004,0.289-0.01c0.063-0.004,0.127-0.008,0.189-0.012
			c0.139-0.01,0.273-0.026,0.41-0.039c0.139-0.013,0.28-0.023,0.418-0.04c0.166-0.019,0.327-0.044,0.49-0.067
			c0.127-0.02,0.254-0.039,0.379-0.062c0.117-0.02,0.236-0.035,0.352-0.058c0.055-0.011,0.105-0.026,0.159-0.038
			c0.268-0.056,0.532-0.115,0.79-0.186c0.019-0.005,0.037-0.01,0.056-0.016c0.058-0.016,0.11-0.037,0.169-0.054
			c0.121-0.035,0.238-0.075,0.357-0.114c0.23-0.075,0.458-0.156,0.68-0.244c0.078-0.031,0.158-0.059,0.234-0.092
			c0.067-0.028,0.133-0.059,0.199-0.089c0.349-0.155,0.688-0.322,1.01-0.512c4.043-2.379,7.24-7.409,9.52-13.643
			c0.06,0.118,0.126,0.225,0.187,0.341c0.183,0.348,0.367,0.691,0.56,1.021c0.08,0.136,0.161,0.268,0.242,0.4
			c0.09,0.146,0.18,0.292,0.271,0.435c0.107,0.164,0.217,0.324,0.326,0.482c0.035,0.052,0.07,0.105,0.105,0.156
			c0.055,0.078,0.109,0.155,0.166,0.231c0.063,0.087,0.128,0.168,0.191,0.252c0.101,0.133,0.199,0.267,0.302,0.395
			c0.098,0.122,0.198,0.238,0.298,0.355c0.087,0.103,0.175,0.203,0.264,0.302c0.074,0.084,0.146,0.174,0.223,0.255
			c0.05,0.053,0.102,0.1,0.152,0.151c0.18,0.186,0.359,0.37,0.545,0.541c0.015,0.014,0.029,0.027,0.045,0.041
			c0.043,0.039,0.088,0.072,0.131,0.111c0.097,0.086,0.195,0.167,0.293,0.249c0.186,0.155,0.374,0.304,0.566,0.445
			c0.066,0.049,0.131,0.102,0.199,0.148c0.06,0.042,0.121,0.082,0.182,0.123c0.316,0.213,0.637,0.412,0.969,0.585
			c6.377,3.325,16.986,1.665,27.26-2.447c0.432,0.936,0.807,1.636,1.041,1.844c0.09-0.452,0.084-1.274,0.016-2.274
			c1.786-0.746,3.555-1.565,5.287-2.442c0.39,0.363,0.776,0.729,1.172,1.088c3.313,2.997,6.439,6.513,10.107,9.051
			c-0.197-2.94-3.045-6.634-4.52-9.095c-0.449-0.749-1.035-1.587-1.682-2.44c0.021,0.008,0.041,0.014,0.061,0.021
			c0.268,0.096,0.535,0.189,0.806,0.275c0.198,0.063,0.397,0.123,0.597,0.182c0.268,0.078,0.537,0.149,0.808,0.219
			c0.177,0.045,0.353,0.093,0.53,0.134c0.414,0.095,0.832,0.177,1.252,0.248c0.173,0.029,0.348,0.052,0.521,0.077
			c0.303,0.044,0.607,0.081,0.913,0.112c0.175,0.019,0.35,0.037,0.526,0.051c0.445,0.034,0.896,0.059,1.35,0.064
			c0.113,0.002,0.227-0.004,0.34-0.004c0.374-0.001,0.75-0.012,1.129-0.032c0.168-0.009,0.336-0.021,0.504-0.034
			c0.385-0.03,0.771-0.071,1.158-0.123c0.113-0.015,0.225-0.024,0.338-0.042c0.486-0.072,0.979-0.165,1.473-0.272
			c0.146-0.032,0.295-0.069,0.441-0.104c0.391-0.093,0.781-0.197,1.176-0.313c0.143-0.042,0.284-0.081,0.428-0.126
			c0.512-0.16,1.028-0.337,1.547-0.537c0.098-0.037,0.197-0.081,0.294-0.12c0.288-0.114,0.573-0.227,0.864-0.354
			c0.361,0.178,0.714,0.361,1.045,0.558c-0.17-0.27-0.348-0.534-0.534-0.795c0.137-0.063,0.273-0.128,0.411-0.194
			c0.49-0.236,0.982-0.486,1.48-0.76c0.051-0.028,0.102-0.053,0.152-0.081c0.545-0.303,1.094-0.635,1.646-0.983
			c0.146-0.093,0.292-0.189,0.438-0.285c0.447-0.292,0.896-0.6,1.349-0.922c0.128-0.092,0.255-0.179,0.384-0.272
			c0.561-0.411,1.123-0.844,1.69-1.304c0.114-0.093,0.231-0.194,0.347-0.289c0.467-0.387,0.938-0.791,1.411-1.212
			c0.158-0.141,0.315-0.281,0.475-0.427c0.581-0.529,1.163-1.076,1.751-1.659c3.127-3.104,5.959-7.942,8.239-13.57
			c0.003,0.003,0.005,0.006,0.007,0.009c0.092,0.128,0.182,0.257,0.278,0.385c0.315,0.418,0.646,0.834,0.999,1.246
			c0.072,0.085,0.151,0.167,0.225,0.251c0.198,0.226,0.395,0.45,0.604,0.674c-0.046,0.395-0.101,0.782-0.174,1.154
			c0.195-0.246,0.361-0.521,0.541-0.78c0.111,0.114,0.225,0.229,0.34,0.343c0.38,0.376,0.773,0.748,1.188,1.117
			c0.045,0.04,0.084,0.08,0.129,0.119c0.463,0.406,0.953,0.807,1.46,1.205c0.132,0.104,0.269,0.206,0.404,0.31
			c0.421,0.321,0.858,0.64,1.312,0.955c0.124,0.086,0.244,0.174,0.371,0.26c0.568,0.387,1.158,0.769,1.775,1.146
			c0.12,0.073,0.246,0.145,0.368,0.217c0.519,0.311,1.056,0.617,1.607,0.92c0.181,0.1,0.361,0.198,0.546,0.297
			c0.685,0.365,1.386,0.727,2.123,1.08c14.477,6.947,49.564,2.436,57.15-10.643c0.188-0.325,0.354-0.667,0.509-1.018
			c0.028-0.065,0.058-0.131,0.087-0.197C346.127,268.954,346.155,268.874,346.185,268.797z M243.752,220.979
			c0.02,0.119,0.043,0.235,0.063,0.354c-0.128,0.028-0.257,0.055-0.386,0.084C243.537,221.271,243.645,221.126,243.752,220.979z"/>
	</g>
	<g>
		<g>
			<g>
				<g>
					<g>
						<g>
							<g>
								<path fill="#9F251C" d="M230.061,227.398c-14.581-7.24-25.49-9.905-38.929,4.604c-13.437,14.516-12.192,54.68,1.177,61.65
									c13.367,6.971,45.334-7.938,53.822-21.51C261.576,247.457,244.643,234.64,230.061,227.398z"/>
								<path fill="#9F251C" d="M242.533,235.299l-2.248,10.146l-53.636,42.229c1.538,2.729,3.429,4.815,5.659,5.979
									c13.367,6.971,45.334-7.938,53.822-21.51C257.083,254.644,251.754,243.11,242.533,235.299z"/>
								<g>
									<path fill="#EAA00B" d="M197.37,235.684c-2.337-1.159-1.991,4.004-1.991,4.004S199.698,236.84,197.37,235.684z"/>
									<path fill="#EAA00B" d="M198.085,249.568c-2.335-1.159-1.988,4.003-1.988,4.003S200.418,250.73,198.085,249.568z"/>
									<path fill="#EAA00B" d="M197.199,263.112c-2.326-1.159-1.983,4.006-1.983,4.006S199.535,264.268,197.199,263.112z"/>
									<path fill="#E37B00" d="M199.896,277.061c-2.335-1.159-1.991,4.003-1.991,4.003S202.225,278.218,199.896,277.061z"/>
									<path fill="#E37B00" d="M196.996,288.332c-2.334-1.157-1.99,4.006-1.99,4.006S199.328,289.489,196.996,288.332z"/>
									<path fill="#EAA00B" d="M189.88,280.019c-2.333-1.158-1.989,4.006-1.989,4.006S192.215,281.179,189.88,280.019z"/>
									<path fill="#E37B00" d="M210.346,282.073c-2.335-1.157-1.992,4.004-1.992,4.004S212.68,283.227,210.346,282.073z"/>
									<path fill="#E37B00" d="M208.616,268.698c-2.333-1.155-1.987,4.01-1.987,4.01S210.948,269.859,208.616,268.698z"/>
									<path fill="#EAA00B" d="M208.221,256.594c-2.332-1.155-1.988,4.008-1.988,4.008S210.553,257.754,208.221,256.594z"/>
									<path fill="#EAA00B" d="M207.793,243.393c-2.329-1.156-1.984,4.008-1.984,4.008S210.127,244.55,207.793,243.393z"/>
									<path fill="#EAA00B" d="M220.308,250.392c-2.333-1.156-1.987,4.007-1.987,4.007S222.641,251.553,220.308,250.392z"/>
									<path fill="#E37B00" d="M220.42,263.141c-2.33-1.158-1.984,4.003-1.984,4.003S222.752,264.3,220.42,263.141z"/>
									<path fill="#E37B00" d="M220.854,274.851c-2.332-1.155-1.991,4.01-1.991,4.01S223.19,276.013,220.854,274.851z"/>
									<path fill="#E37B00" d="M232.157,267.317c-2.335-1.155-1.993,4.01-1.993,4.01S234.489,268.478,232.157,267.317z"/>
									<path fill="#E37B00" d="M231.545,254.667c-2.331-1.157-1.988,4.011-1.988,4.011S233.879,255.827,231.545,254.667z"/>
									<path fill="#E37B00" d="M242.586,249.446c-2.339-1.155-1.991,4.011-1.991,4.011S244.916,250.608,242.586,249.446z"/>
									<path fill="#E37B00" d="M249.715,255.116c-2.332-1.16-1.988,4.005-1.988,4.005S252.047,256.273,249.715,255.116z"/>
									<path fill="#E37B00" d="M241.44,260.228c-2.334-1.155-1.996,4.01-1.996,4.01S243.77,261.386,241.44,260.228z"/>
									<path fill="#E37B00" d="M241.653,270.65c-2.334-1.162-1.987,4.002-1.987,4.002S243.981,271.808,241.653,270.65z"/>
									<path fill="#E37B00" d="M231.1,279.537c-2.332-1.158-1.99,4.006-1.99,4.006S233.433,280.695,231.1,279.537z"/>
									<path fill="#E37B00" d="M219.899,285.675c-2.334-1.162-1.986,4.005-1.986,4.005S222.229,286.83,219.899,285.675z"/>
									<path fill="#EAA00B" d="M188.34,269.469c-2.332-1.162-1.987,4.005-1.987,4.005S190.674,270.625,188.34,269.469z"/>
									<path fill="#EAA00B" d="M187.259,257.909c-2.335-1.162-1.991,4.004-1.991,4.004S189.588,259.064,187.259,257.909z"/>
									<path fill="#EAA00B" d="M189.098,244.289c-2.33-1.158-1.986,4.008-1.986,4.008S191.434,245.452,189.098,244.289z"/>
									<path fill="#EAA00B" d="M218.805,239.776c-2.334-1.158-1.99,4.007-1.99,4.007S221.139,240.936,218.805,239.776z"/>
									<path fill="#EAA00B" d="M206.896,230.394c-2.333-1.156-1.991,4.008-1.991,4.008S209.224,231.551,206.896,230.394z"/>
								</g>
								<path opacity="0.3" d="M246.131,272.143c0.721-1.147,1.344-2.26,1.926-3.354l-66.135,1.425
									c0.973,10.893,4.508,20.373,10.387,23.438C205.676,300.624,237.643,285.716,246.131,272.143z"/>
							</g>
							<path fill="#808A22" d="M246.646,250.482c-1.978-3.226-3.081-8.208-4.071-11.837c2.281,1.773,6.172,3.774,8.869,4.658
								c2.675,0.879,6.834,2.81,9.698,2.359c-3.229-2.968-7.28-5.2-10.874-7.728c-3.063-2.149-6.213-4.117-9.357-6.125
								c1.472,0.479,9.699-0.098,11.432-0.872c-0.916-0.653-8.396-1.698-10.514-1.783c-0.888-0.032-1.695-0.055-2.457-0.12
								c1.076-1.104,2.096-2.43,2.467-3.183c-1.57,0.225-2.625,0.776-3.937,1.023c-0.497,0.09-1.022,0.097-1.558,0.092
								c0.335-0.856,0.586-1.661,0.744-2.135c0.506-1.528,1.125-3.297,1.172-5.115c0.04-1.434-0.142-1.628-1.621-2.995
								c-3.475-3.197-1.349,2.284-1.516,4.111c-0.104,1.069-0.86,2.458-2.271,4.029c-0.01-0.009,0.365-1.4-0.01-0.009
								c-0.324-2.713-1.205-4.024-1.389-6.764c-0.716,1.487-1.615,3.477-2.189,5.427c-0.099-0.121-0.203-0.232-0.297-0.357
								c-2.459-3.244-4.397-6.846-6.153-10.546c-1.499,1.78-0.885,7.454,0.337,8.729c-1.6-0.541-1.246-0.581-10.035-3.764
								c-7.076-2.429-13.896-6.172-13.896-6.172c1.393,2.123,2.578,3.899,4.242,5.154c2.494,1.882,4.543,3.608,7.076,4.975
								c4.193,2.259,9.406,5.283,11.43,5.669c-4.525,1.271-4.965,1.368-9.591,1.819c-2.372,0.23-4.767,0.533-7.138,0.659
								c-1.65,0.088-3.375-0.277-4.992-0.051c4.817,3.896,12.168,3.993,18.131,4.667c3.975,0.448,7.127,0.159,11.041-1.809
								c-1.697,1.573-1.682,2.228-2.765,3.683c-1.83,2.463-2.507,4.919-3.604,8.163c-0.877,2.602-1.589,5.871-2.223,8.53
								c1.981-3.3,7.55-6.995,10.314-9.936c2.24-2.391,3.045-3.746,5.138-6.225c-0.696,1.466,1.073,5.864,1.628,7.099
								c1.252,2.784,1.615,2.984,3.289,5.712c2.555,4.166,6.639,8.434,11.352,10.081C250.276,257.197,248.43,253.39,246.646,250.482
								z"/>
							<path fill="#68791B" d="M229.418,232.492c-1.697,1.573-1.682,2.228-2.765,3.683c-1.83,2.463-2.507,4.919-3.604,8.163
								c-0.877,2.602-1.589,5.871-2.223,8.53c1.981-3.3,7.55-6.995,10.314-9.936c2.24-2.391,3.045-3.746,5.138-6.225
								c-0.696,1.466,1.073,5.864,1.628,7.099c1.252,2.784,1.615,2.984,3.289,5.712c2.555,4.166,6.639,8.434,11.352,10.081
								c-2.271-2.402-4.117-6.209-5.901-9.117c-1.978-3.226-3.081-8.208-4.071-11.837c2.281,1.773,6.172,3.774,8.869,4.658
								c2.675,0.879,6.834,2.81,9.698,2.359c-3.229-2.968-7.28-5.2-10.874-7.728c-3.063-2.149-6.213-4.117-9.357-6.125
								c1.472,0.479,9.699-0.098,11.432-0.872c-0.916-0.653-8.396-1.698-10.514-1.783c-0.888-0.032-1.695-0.055-2.457-0.12
								c1.076-1.104,2.096-2.43,2.467-3.183c-0.869,0.123-4.809,0.897-5.494,1.115"/>
							<path fill="#68791B" d="M233.781,223.73c-0.167,0.329-1.801,2.334-2.155,2.379c-0.469,0.059-1.631-1.461-1.909-1.865
								c-0.668-1.001-0.633-1.185-0.484-2.437c0.225-1.883,0.967-3.595,1.941-5.205c-0.008-0.032-0.01-0.035-0.008,0
								c0.207,1.566,1.147,3.077,1.785,4.521C233.341,222.01,233.494,222.802,233.781,223.73"/>
						</g>
					</g>
				</g>
				<path opacity="0.3" d="M230.061,227.398c-14.581-7.24-25.49-9.905-38.929,4.604c-13.437,14.516-12.192,54.68,1.177,61.65
					c0.018,0.01,0.039,0.018,0.059,0.026c0.932-3.442,1.857-6.905,2.618-10.379c0.273-2.614,0.489-5.23,0.575-7.848
					c0.195-6-0.281-11.814,0.583-17.786c0.866-5.987,9.899-6.369,12.495-1.662c8.24,2.69,14.033,9.861,19.859,16.302
					c3.215,3.554,5.306,7.174,5.971,10.995c5.104-3.488,9.297-7.375,11.662-11.158C261.576,247.457,244.643,234.64,230.061,227.398z
					"/>
			</g>
			<g>
				<g>
					<g>
						<g>
							<g>
								<path fill="#BB321E" d="M286.196,170.308c-12.908-8.158-22.828-11.698-36.763,0.545
									c-13.935,12.248-16.64,49.836-4.835,57.625c11.796,7.792,43.052-3.038,52.282-14.882
									C313.662,192.053,299.102,178.464,286.196,170.308z"/>
								<path fill="#9F251C" d="M297.067,178.877l-3.072,9.25l-54.102,34.229c1.174,2.699,2.738,4.826,4.705,6.122
									c11.796,7.792,43.052-3.038,52.282-14.882C308.78,198.326,304.92,187.052,297.067,178.877z"/>
								<g>
									<path fill="#EAA00B" d="M254.899,174.886c-2.068-1.304-2.242,3.546-2.242,3.546S256.961,176.191,254.899,174.886z"/>
									<path fill="#EAA00B" d="M254.229,187.909c-2.064-1.306-2.242,3.545-2.242,3.545S256.293,189.218,254.229,187.909z"/>
									<path fill="#EAA00B" d="M252.102,200.461c-2.061-1.307-2.238,3.545-2.238,3.545S254.165,201.764,252.102,200.461z"/>
									<path fill="#E37B00" d="M253.272,213.731c-2.064-1.305-2.24,3.546-2.24,3.546S255.332,215.037,253.272,213.731z"/>
									<path fill="#E37B00" d="M249.48,223.97c-2.063-1.305-2.239,3.542-2.239,3.542S251.545,225.273,249.48,223.97z"/>
									<path fill="#EAA00B" d="M243.643,215.531c-2.064-1.307-2.242,3.543-2.242,3.543S245.711,216.836,243.643,215.531z"/>
									<path fill="#E37B00" d="M262.537,219.413c-2.066-1.304-2.242,3.545-2.242,3.545S264.602,220.716,262.537,219.413z"/>
									<path fill="#E37B00" d="M262.213,206.772c-2.065-1.304-2.242,3.547-2.242,3.547S264.277,208.079,262.213,206.772z"/>
									<path fill="#EAA00B" d="M263.01,195.442c-2.064-1.304-2.244,3.546-2.244,3.546S265.073,196.749,263.01,195.442z"/>
									<path fill="#EAA00B" d="M263.881,183.085c-2.063-1.304-2.238,3.546-2.238,3.546S265.948,184.387,263.881,183.085z"/>
									<path fill="#EAA00B" d="M274.883,190.821c-2.064-1.304-2.239,3.546-2.239,3.546S276.948,192.127,274.883,190.821z"/>
									<path fill="#E37B00" d="M273.759,202.721c-2.063-1.304-2.239,3.546-2.239,3.546S275.823,204.029,273.759,202.721z"/>
									<path fill="#E37B00" d="M273.035,213.688c-2.063-1.299-2.24,3.548-2.24,3.548S275.104,214.998,273.035,213.688z"/>
									<path fill="#E37B00" d="M284.305,207.75c-2.064-1.305-2.242,3.548-2.242,3.548S286.369,209.055,284.305,207.75z"/>
									<path fill="#E37B00" d="M284.954,195.89c-2.063-1.305-2.241,3.547-2.241,3.547S287.021,197.196,284.954,195.89z"/>
									<path fill="#E37B00" d="M295.756,192.081c-2.07-1.304-2.241,3.55-2.241,3.55S297.821,193.389,295.756,192.081z"/>
									<path fill="#E37B00" d="M301.863,198.054c-2.063-1.306-2.244,3.546-2.244,3.546S303.922,199.359,301.863,198.054z"/>
									<path fill="#E37B00" d="M293.647,202.031c-2.066-1.305-2.242,3.549-2.242,3.549S295.711,203.336,293.647,202.031z"/>
									<path fill="#E37B00" d="M292.845,211.774c-2.065-1.31-2.239,3.542-2.239,3.542S294.906,213.075,292.845,211.774z"/>
									<path fill="#E37B00" d="M282.143,219.046c-2.064-1.305-2.24,3.546-2.24,3.546S284.207,220.349,282.143,219.046z"/>
									<path fill="#E37B00" d="M271.102,223.692c-2.064-1.307-2.237,3.546-2.237,3.546S273.166,224.997,271.102,223.692z"/>
									<path fill="#EAA00B" d="M243.221,205.537c-2.063-1.306-2.24,3.546-2.24,3.546S245.287,206.842,243.221,205.537z"/>
									<path fill="#EAA00B" d="M243.326,194.647c-2.066-1.307-2.241,3.545-2.241,3.545S245.389,195.951,243.326,194.647z"/>
									<path fill="#EAA00B" d="M246.356,182.12c-2.064-1.305-2.24,3.548-2.24,3.548S248.42,183.427,246.356,182.12z"/>
									<path fill="#EAA00B" d="M274.502,180.77c-2.065-1.306-2.242,3.547-2.242,3.547S276.567,182.079,274.502,180.77z"/>
									<path fill="#EAA00B" d="M264.293,170.871c-2.065-1.306-2.238,3.546-2.238,3.546S266.359,172.176,264.293,170.871z"/>
								</g>
								<path opacity="0.3" d="M296.88,213.596c0.78-1.001,1.468-1.978,2.118-2.944l-61.834-5.038
									c-0.141,10.257,2.245,19.44,7.434,22.864C256.394,236.27,287.65,225.44,296.88,213.596z"/>
							</g>
							<path fill="#808A22" d="M299.444,193.437c-1.533-3.197-2.084-7.954-2.657-11.43c1.956,1.868,5.394,4.109,7.823,5.196
								c2.414,1.077,6.107,3.279,8.823,3.133c-2.73-3.077-6.292-5.551-9.399-8.254c-2.651-2.302-5.4-4.439-8.141-6.618
								c1.324,0.594,9.056,0.847,10.748,0.29c-0.791-0.697-7.67-2.395-9.639-2.673c-0.826-0.118-1.576-0.217-2.276-0.354
								c1.107-0.926,2.185-2.063,2.603-2.731c-1.484,0.058-2.521,0.472-3.771,0.576c-0.469,0.038-0.961-0.009-1.459-0.063
								c0.396-0.769,0.707-1.494,0.9-1.922c0.619-1.376,1.363-2.968,1.584-4.658c0.176-1.333,0.026-1.535-1.224-2.948
								c-2.933-3.319-1.478,1.999-1.811,3.688c-0.198,0.985-1.038,2.211-2.506,3.539c-0.011-0.007,0.474-1.271-0.011-0.007
								c-0.04-2.563-0.735-3.872-0.644-6.442c-0.81,1.317-1.843,3.083-2.563,4.848c-0.08-0.121-0.167-0.235-0.243-0.361
								c-1.979-3.262-3.444-6.808-4.726-10.43c-1.566,1.513-1.541,6.869-0.523,8.174c-1.441-0.655-1.107-0.657-9-4.473
								c-6.371-2.949-12.369-7.099-12.369-7.099c1.092,2.115,2.029,3.888,3.459,5.218c2.146,1.996,3.892,3.804,6.123,5.321
								c3.693,2.512,8.266,5.836,10.117,6.388c-4.344,0.749-4.766,0.801-9.123,0.775c-2.234-0.014-4.5,0.038-6.723-0.072
								c-1.547-0.076-3.123-0.583-4.654-0.528c4.121,4.099,10.969,4.9,16.469,6.101c3.662,0.8,6.631,0.834,10.475-0.626
								c-1.736,1.305-1.787,1.916-2.934,3.17c-1.945,2.123-2.814,4.349-4.15,7.271c-1.067,2.341-2.047,5.322-2.896,7.742
								c2.167-2.888,7.72-5.8,10.579-8.276c2.319-2.015,3.203-3.2,5.395-5.311c-0.791,1.304,0.434,5.573,0.834,6.779
								c0.898,2.717,1.219,2.938,2.518,5.645c1.982,4.131,5.381,8.51,9.622,10.5C302.184,200.053,300.83,196.322,299.444,193.437z"
								/>
							<path fill="#68791B" d="M285.106,174.995c-1.736,1.305-1.787,1.916-2.934,3.17c-1.945,2.123-2.814,4.349-4.15,7.271
								c-1.067,2.341-2.047,5.322-2.896,7.742c2.167-2.888,7.72-5.8,10.579-8.276c2.319-2.015,3.203-3.2,5.395-5.311
								c-0.791,1.304,0.434,5.573,0.834,6.779c0.898,2.717,1.219,2.938,2.518,5.645c1.982,4.131,5.381,8.51,9.622,10.5
								c-1.89-2.461-3.243-6.192-4.63-9.077c-1.533-3.197-2.084-7.954-2.657-11.43c1.956,1.868,5.394,4.109,7.823,5.196
								c2.414,1.077,6.107,3.279,8.823,3.133c-2.73-3.077-6.292-5.551-9.399-8.254c-2.651-2.302-5.4-4.439-8.141-6.618
								c1.324,0.594,9.056,0.847,10.748,0.29c-0.791-0.697-7.67-2.395-9.639-2.673c-0.826-0.118-1.576-0.217-2.276-0.354
								c1.107-0.926,2.185-2.063,2.603-2.731c-0.82,0.033-4.57,0.375-5.23,0.514"/>
							<path fill="#68791B" d="M290.018,167.242c-0.187,0.291-1.904,2.005-2.238,2.011c-0.443,0.012-1.386-1.518-1.598-1.92
								c-0.532-1-0.479-1.17-0.221-2.321c0.389-1.736,1.246-3.264,2.311-4.671c-0.006-0.032-0.006-0.032-0.006,0
								c0.041,1.482,0.771,2.979,1.227,4.39C289.772,165.596,289.838,166.351,290.018,167.242"/>
						</g>
					</g>
				</g>
				<path opacity="0.3" d="M250.953,214.127c2.914-6.697,3.922-14.459,4.361-21.691c0.495-8.078,0.723-16.371-0.621-24.376
					c-0.061-0.365-0.121-0.73-0.183-1.096c-1.638,1.063-3.327,2.351-5.078,3.89c-13.253,11.649-16.339,46.202-6.451,56.256
					C246.014,223.007,248.936,218.767,250.953,214.127z"/>
			</g>
			<g>
				<g>
					<g>
						<g>
							<g>
								<path fill="#BB321E" d="M117.002,196.874c3.83-15.874,8.809-25.976,28.621-26.955c19.814-0.978,49.881,25.857,46.625,40.625
									c-3.252,14.765-35.309,29.731-51.213,27.513C112.112,234.019,113.172,212.745,117.002,196.874z"/>
								<path fill="#9F251C" d="M115.037,211.549l9.246,4.81l67.014-14.015c1.111,2.942,1.492,5.74,0.951,8.2
									c-3.252,14.765-35.309,29.731-51.213,27.513C120.533,235.197,115.102,223.668,115.037,211.549z"/>
								<g>
									<path fill="#EAA00B" d="M144.436,177.085c0.613-2.545,4.359,1.05,4.359,1.05S143.822,179.62,144.436,177.085z"/>
									<path fill="#EAA00B" d="M154.643,186.58c0.615-2.54,4.357,1.052,4.357,1.052S154.033,189.119,154.643,186.58z"/>
									<path fill="#EAA00B" d="M165.624,194.627c0.608-2.536,4.355,1.054,4.355,1.054S165.008,197.167,165.624,194.627z"/>
									<path fill="#E37B00" d="M174.608,205.684c0.616-2.539,4.361,1.049,4.361,1.049S173.996,208.22,174.608,205.684z"/>
									<path fill="#E37B00" d="M185.141,210.719c0.61-2.538,4.357,1.053,4.357,1.053S184.528,213.256,185.141,210.719z"/>
									<path fill="#EAA00B" d="M183.335,199.894c0.614-2.54,4.361,1.052,4.361,1.052S182.723,202.436,183.335,199.894z"/>
									<path fill="#E37B00" d="M171.729,216.945c0.611-2.54,4.359,1.05,4.359,1.05S171.115,219.486,171.729,216.945z"/>
									<path fill="#E37B00" d="M162.562,207.002c0.616-2.538,4.36,1.054,4.36,1.054S161.951,209.541,162.562,207.002z"/>
									<path fill="#EAA00B" d="M153.516,198.898c0.613-2.536,4.358,1.052,4.358,1.052S152.905,201.436,153.516,198.898z"/>
									<path fill="#EAA00B" d="M143.642,190.066c0.614-2.537,4.359,1.053,4.359,1.053S143.029,192.605,143.642,190.066z"/>
									<path fill="#EAA00B" d="M140.957,204.194c0.615-2.538,4.361,1.053,4.361,1.053S140.347,206.732,140.957,204.194z"/>
									<path fill="#E37B00" d="M150.686,212.491c0.609-2.537,4.357,1.053,4.357,1.053S150.076,215.031,150.686,212.491z"/>
									<path fill="#E37B00" d="M159.403,220.373c0.619-2.536,4.367,1.052,4.367,1.052S158.795,222.914,159.403,220.373z"/>
									<path fill="#E37B00" d="M146.334,224.204c0.613-2.538,4.363,1.052,4.363,1.052S145.723,226.744,146.334,224.204z"/>
									<path fill="#E37B00" d="M137.004,215.584c0.613-2.536,4.363,1.054,4.363,1.054S136.393,218.124,137.004,215.584z"/>
									<path fill="#E37B00" d="M125.881,220.707c0.616-2.543,4.363,1.053,4.363,1.053S125.27,223.245,125.881,220.707z"/>
									<path fill="#E37B00" d="M125.641,229.839c0.611-2.542,4.363,1.049,4.363,1.049S125.03,232.375,125.641,229.839z"/>
									<path fill="#E37B00" d="M134.906,226.773c0.613-2.542,4.365,1.05,4.365,1.05S134.291,229.312,134.906,226.773z"/>
									<path fill="#E37B00" d="M142.779,233.65c0.61-2.544,4.353,1.053,4.353,1.053S142.164,236.185,142.779,233.65z"/>
									<path fill="#E37B00" d="M156.405,231.26c0.613-2.536,4.363,1.056,4.363,1.056S155.792,233.802,156.405,231.26z"/>
									<path fill="#E37B00" d="M168.338,226.608c0.613-2.542,4.361,1.055,4.361,1.055S167.727,229.145,168.338,226.608z"/>
									<path fill="#EAA00B" d="M176.219,191.912c0.611-2.539,4.359,1.051,4.359,1.051S175.604,194.45,176.219,191.912z"/>
									<path fill="#EAA00B" d="M168.03,183.632c0.609-2.541,4.359,1.051,4.359,1.051S167.414,186.168,168.03,183.632z"/>
									<path fill="#EAA00B" d="M156.375,176.272c0.609-2.539,4.361,1.054,4.361,1.054S155.76,178.814,156.375,176.272z"/>
									<path fill="#EAA00B" d="M133.768,196.197c0.613-2.541,4.361,1.052,4.361,1.052S133.155,198.742,133.768,196.197z"/>
									<path fill="#EAA00B" d="M134.231,180.995c0.613-2.536,4.361,1.055,4.361,1.055S133.618,183.535,134.231,180.995z"/>
								</g>
							</g>
							<path fill="#808A22" d="M124.057,224.493c-1.205-3.595-4.322-7.658-6.475-10.755c-0.107,2.895-1.074,7.175-2.131,9.816
								c-1.051,2.625-2.246,7.064-4.44,8.975c-0.196-4.393,0.696-8.945,1.071-13.334c0.319-3.741,0.834-7.429,1.317-11.141
								c-0.575,1.441-6.319,7.394-8.032,8.225c0.088-1.125,4.102-7.546,5.404-9.229c0.545-0.706,1.05-1.339,1.488-1.968
								c-1.539,0.118-3.218,0.047-4.035-0.155c1.184-1.06,2.287-1.517,3.326-2.368c0.387-0.319,0.729-0.723,1.07-1.133
								c-0.874-0.297-1.652-0.621-2.123-0.806c-1.498-0.594-3.256-1.262-4.682-2.393c-1.127-0.896-1.164-1.159-1.258-3.178
								c-0.221-4.73,2.621,0.434,4.139,1.48c0.885,0.612,2.441,0.925,4.557,0.854c0-0.013-1.311-0.623,0-0.013
								c-1.875-1.996-2.318-3.521-4.303-5.423c1.604,0.404,3.713,0.993,5.579,1.81c-0.03-0.152-0.049-0.305-0.083-0.459
								c-0.91-3.979-2.424-7.789-4.137-11.524c2.328-0.007,6.297,4.125,6.488,5.885c0.615-1.579,0.359-1.33,3.576-10.136
								c2.691-7.004,4.209-14.657,4.209-14.657c0.734,2.436,1.335,4.492,1.227,6.579c-0.16,3.129-0.156,5.814-0.734,8.645
								c-0.966,4.678-2,10.633-3.008,12.437c3.889-2.659,4.25-2.935,7.576-6.197c1.709-1.677,3.484-3.322,5.109-5.064
								c1.131-1.209,1.959-2.772,3.175-3.869c-0.11,6.215-4.767,11.927-8.097,16.944c-2.215,3.343-4.466,5.58-8.503,7.318
								c2.306-0.292,2.798,0.142,4.615,0.251c3.071,0.177,5.392,1.242,8.593,2.488c2.566,1.002,5.539,2.562,7.987,3.788
								c-3.812-0.605-10.239,1.293-14.281,1.524c-3.277,0.182-4.839-0.073-8.093-0.061c1.578,0.412,3.817,4.603,4.408,5.824
								c1.334,2.756,1.252,3.162,2.27,6.209c1.557,4.646,2.209,10.537,0.435,15.223
								C126.881,231.611,125.145,227.737,124.057,224.493z"/>
							<path fill="#68791B" d="M121.329,199.659c2.306-0.292,2.798,0.142,4.615,0.251c3.071,0.177,5.392,1.242,8.593,2.488
								c2.566,1.002,5.539,2.562,7.987,3.788c-3.812-0.605-10.239,1.293-14.281,1.524c-3.277,0.182-4.839-0.073-8.093-0.061
								c1.578,0.412,3.817,4.603,4.408,5.824c1.334,2.756,1.252,3.162,2.27,6.209c1.557,4.646,2.209,10.537,0.435,15.223
								c-0.382-3.295-2.118-7.169-3.206-10.413c-1.205-3.595-4.322-7.658-6.475-10.755c-0.107,2.895-1.074,7.175-2.131,9.816
								c-1.051,2.625-2.246,7.064-4.44,8.975c-0.196-4.393,0.696-8.945,1.071-13.334c0.319-3.741,0.834-7.429,1.317-11.141
								c-0.575,1.441-6.319,7.394-8.032,8.225c0.088-1.125,4.102-7.546,5.404-9.229c0.545-0.706,1.05-1.339,1.488-1.968
								c-1.539,0.118-3.218,0.047-4.035-0.155c0.654-0.587,3.789-3.117,4.396-3.501"/>
							<path fill="#68791B" d="M111.785,197.369c0.36,0.084,2.952,0.121,3.215-0.123c0.349-0.325-0.066-2.198-0.201-2.664
								c-0.336-1.164-0.502-1.256-1.561-1.948c-1.592-1.04-3.385-1.575-5.252-1.865c-0.018-0.023-0.019-0.029,0.002-0.003
								c1.076,1.17,1.629,2.864,2.326,4.282C110.749,195.921,111.259,196.551,111.785,197.369"/>
						</g>
					</g>
				</g>
			</g>
			<path opacity="0.3" d="M171.582,179.591c-16.771,15.262-28.936,35.894-32.006,58.225c0.487,0.08,0.955,0.171,1.459,0.241
				c15.904,2.219,47.961-12.748,51.213-27.513C194.201,201.696,184.186,188.522,171.582,179.591z"/>
			<g>
				<g>
					<g>
						<g>
							<g>
								<path fill="#BB321E" d="M215.092,195.101c-10.238-12.284-18.984-19.004-36.81-11.287
									c-17.827,7.721-32.618,44.305-23.364,55.866c9.25,11.56,43.881,10.827,56.889,1.994
									C235.463,225.611,225.328,207.382,215.092,195.101z"/>
								<path fill="#9F251C" d="M223.166,207.138l-6.039,8.228l-64.926,16.698c0.303,3.07,1.178,5.69,2.717,7.616
									c9.25,11.56,43.881,10.827,56.889,1.994C228.578,230.289,228.36,217.81,223.166,207.138z"/>
								<g>
									<path fill="#EAA00B" d="M182.432,189.593c-1.642-1.967-3.375,2.811-3.375,2.811S184.069,191.558,182.432,189.593z"/>
									<path fill="#EAA00B" d="M177.571,202.352c-1.635-1.965-3.371,2.812-3.371,2.812S179.207,204.32,177.571,202.352z"/>
									<path fill="#EAA00B" d="M171.415,214.175c-1.636-1.965-3.374,2.813-3.374,2.813S173.051,216.138,171.415,214.175z"/>
									<path fill="#E37B00" d="M168.31,227.776c-1.64-1.966-3.374,2.812-3.374,2.812S169.944,229.74,168.31,227.776z"/>
									<path fill="#E37B00" d="M161.239,236.759c-1.637-1.965-3.375,2.809-3.375,2.809S162.873,238.721,161.239,236.759z"/>
									<path fill="#EAA00B" d="M158.135,226.469c-1.637-1.963-3.375,2.811-3.375,2.811S159.777,228.435,158.135,226.469z"/>
									<path fill="#E37B00" d="M175.713,236.42c-1.637-1.964-3.375,2.812-3.375,2.812S177.35,238.383,175.713,236.42z"/>
									<path fill="#E37B00" d="M179.459,223.719c-1.638-1.965-3.375,2.812-3.375,2.812S181.096,225.685,179.459,223.719z"/>
									<path fill="#EAA00B" d="M183.9,212.685c-1.638-1.964-3.378,2.812-3.378,2.812S185.533,214.651,183.9,212.685z"/>
									<path fill="#EAA00B" d="M188.742,200.651c-1.635-1.962-3.371,2.813-3.371,2.813S190.384,202.616,188.742,200.651z"/>
									<path fill="#EAA00B" d="M197.215,211.901c-1.636-1.965-3.369,2.812-3.369,2.812S198.853,213.865,197.215,211.901z"/>
									<path fill="#E37B00" d="M192.267,223.397c-1.634-1.963-3.37,2.813-3.37,2.813S193.903,225.366,192.267,223.397z"/>
									<path fill="#E37B00" d="M188.018,234.094c-1.639-1.958-3.375,2.813-3.375,2.813S189.656,236.064,188.018,234.094z"/>
									<path fill="#E37B00" d="M201.156,231.802c-1.635-1.965-3.375,2.814-3.375,2.814S202.795,233.769,201.156,231.802z"/>
									<path fill="#E37B00" d="M205.624,220.194c-1.641-1.964-3.378,2.813-3.378,2.813S207.26,222.158,205.624,220.194z"/>
									<path fill="#E37B00" d="M217.611,219.876c-1.644-1.966-3.377,2.813-3.377,2.813S219.244,221.843,217.611,219.876z"/>
									<path fill="#E37B00" d="M221.776,227.792c-1.639-1.965-3.378,2.813-3.378,2.813S223.407,229.755,221.776,227.792z"/>
									<path fill="#E37B00" d="M212.307,229.109c-1.639-1.961-3.377,2.814-3.377,2.814S213.946,231.075,212.307,229.109z"/>
									<path fill="#E37B00" d="M208.369,238.561c-1.637-1.97-3.365,2.809-3.365,2.809S210.008,240.522,208.369,238.561z"/>
									<path fill="#E37B00" d="M195.369,242.363c-1.64-1.966-3.377,2.81-3.377,2.81S197.006,244.328,195.369,242.363z"/>
									<path fill="#E37B00" d="M182.871,243.438c-1.639-1.966-3.371,2.813-3.371,2.813S184.51,245.404,182.871,243.438z"/>
									<path fill="#EAA00B" d="M160.93,216.376c-1.635-1.965-3.371,2.811-3.371,2.811S162.571,218.34,160.93,216.376z"/>
									<path fill="#EAA00B" d="M164.541,205.56c-1.637-1.969-3.376,2.809-3.376,2.809S166.177,207.522,164.541,205.56z"/>
									<path fill="#EAA00B" d="M171.59,194.05c-1.637-1.965-3.373,2.814-3.373,2.814S173.229,196.017,171.59,194.05z"/>
									<path fill="#EAA00B" d="M200.073,201.762c-1.639-1.963-3.376,2.814-3.376,2.814S201.709,203.732,200.073,201.762z"/>
									<path fill="#EAA00B" d="M193.086,188.614c-1.641-1.966-3.373,2.812-3.373,2.812S194.723,190.579,193.086,188.614z"/>
								</g>
							</g>
							<path fill="#808A22" d="M220.848,222.413c-0.496-3.681,0.484-8.598,1.031-12.247c1.347,2.493,4.051,5.833,6.122,7.697
								c2.058,1.852,5.033,5.234,7.782,5.962c-1.729-3.944-4.482-7.557-6.71-11.251c-1.897-3.146-3.949-6.162-5.978-9.214
								c1.127,1.02,8.75,3.759,10.614,3.75c-0.565-0.95-6.872-4.856-8.743-5.766c-0.785-0.386-1.5-0.724-2.155-1.086
								c1.401-0.564,2.841-1.354,3.474-1.884c-1.498-0.421-2.666-0.343-3.944-0.64c-0.478-0.113-0.954-0.317-1.434-0.534
								c0.642-0.637,1.185-1.26,1.515-1.623c1.061-1.171,2.313-2.519,3.079-4.131c0.604-1.274,0.519-1.521-0.271-3.333
								c-1.855-4.252-2.117,1.515-2.994,3.092c-0.514,0.919-1.744,1.869-3.633,2.722c-0.008-0.013,0.879-1.115-0.008-0.013
								c0.783-2.564,0.514-4.095,1.431-6.625c-1.231,1.051-2.828,2.479-4.114,4.005c-0.039-0.146-0.09-0.289-0.127-0.438
								c-0.922-3.889-1.242-7.895-1.35-11.914c-2.051,1.004-3.75,6.349-3.154,7.977c-1.227-1.117-0.893-1.013-7.53-7.354
								c-5.397-4.989-10.04-11.054-10.04-11.054c0.407,2.46,0.771,4.526,1.768,6.313c1.497,2.678,2.655,5.043,4.389,7.272
								c2.873,3.691,6.358,8.473,8.025,9.622c-4.568-0.652-5.004-0.736-9.338-2.167c-2.225-0.731-4.497-1.407-6.679-2.233
								c-1.515-0.574-2.923-1.587-4.464-2.024c2.786,5.411,9.354,8.414,14.445,11.381c3.393,1.975,6.338,2.962,10.637,2.743
								c-2.15,0.744-2.394,1.338-3.943,2.216c-2.622,1.49-4.199,3.428-6.473,5.91c-1.82,1.989-3.752,4.646-5.375,6.782
								c3.086-2.179,9.557-3.293,13.203-4.842c2.958-1.26,4.219-2.159,7.082-3.555c-1.205,1.045-1.359,5.692-1.352,7.021
								c0.023,2.998,0.271,3.321,0.695,6.435c0.646,4.756,2.625,10.213,6.211,13.561
								C221.449,229.887,221.301,225.732,220.848,222.413z"/>
							<path fill="#68791B" d="M212.494,199.419c-2.15,0.744-2.394,1.338-3.943,2.216c-2.622,1.49-4.199,3.428-6.473,5.91
								c-1.82,1.989-3.752,4.646-5.375,6.782c3.086-2.179,9.557-3.293,13.203-4.842c2.958-1.26,4.219-2.159,7.082-3.555
								c-1.205,1.045-1.359,5.692-1.352,7.021c0.023,2.998,0.271,3.321,0.695,6.435c0.646,4.756,2.625,10.213,6.211,13.561
								c-1.094-3.06-1.242-7.215-1.695-10.534c-0.496-3.681,0.484-8.598,1.031-12.247c1.347,2.493,4.051,5.833,6.122,7.697
								c2.058,1.852,5.033,5.234,7.782,5.962c-1.729-3.944-4.482-7.557-6.71-11.251c-1.897-3.146-3.949-6.162-5.978-9.214
								c1.127,1.02,8.75,3.759,10.614,3.75c-0.565-0.95-6.872-4.856-8.743-5.766c-0.785-0.386-1.5-0.724-2.155-1.086
								c1.401-0.564,2.841-1.354,3.474-1.884c-0.83-0.232-4.677-1.098-5.378-1.174"/>
							<path fill="#68791B" d="M219.885,193.277c-0.278,0.229-2.543,1.384-2.876,1.282c-0.446-0.132-0.894-1.957-0.979-2.427
								c-0.203-1.17-0.096-1.32,0.533-2.384c0.945-1.604,2.291-2.851,3.805-3.912c0.004-0.033,0.004-0.033-0.004-0.001
								c-0.438,1.49-0.191,3.218-0.189,4.77C220.172,191.558,219.992,192.331,219.885,193.277"/>
						</g>
					</g>
				</g>
			</g>
			<path opacity="0.3" d="M215.092,195.101c-10.238-12.284-18.984-19.004-36.81-11.287c-0.083,0.037-0.164,0.085-0.247,0.121
				c0.254,9.774,0.948,19.503,5.566,28.227c6.266,11.84,16.363,20.371,26.57,28.744c0.418,0.344,0.752,0.732,1.036,1.145
				c0.2-0.125,0.409-0.246,0.599-0.376C235.463,225.611,225.328,207.382,215.092,195.101z"/>
			<g>
				<g>
					<g>
						<g>
							<g>
								<path fill="#BB321E" d="M212.752,155.84c-15.924,1.903-26.35,5.593-29.592,24.8c-3.236,19.209,19.459,51.628,34.236,50.156
									c14.775-1.467,33.068-31.001,32.742-46.766C249.537,155.358,228.672,153.932,212.752,155.84z"/>
								<path fill="#9F251C" d="M227.287,155.617l3.625,9.572l-21.404,63.734c2.744,1.42,5.428,2.117,7.889,1.872
									c14.775-1.467,33.068-31.001,32.742-46.766C249.715,163.705,239.1,157.078,227.287,155.617z"/>
								<g>
									<path fill="#EAA00B" d="M190.283,180.306c-2.549,0.304,0.524,4.372,0.524,4.372S192.828,180.003,190.283,180.306z"/>
									<path fill="#EAA00B" d="M198.367,191.359c-2.549,0.304,0.523,4.371,0.523,4.371S200.915,191.056,198.367,191.359z"/>
									<path fill="#EAA00B" d="M204.948,202.994c-2.546,0.303,0.526,4.372,0.526,4.372S207.494,202.688,204.948,202.994z"/>
									<path fill="#E37B00" d="M214.696,213.032c-2.547,0.306,0.521,4.373,0.521,4.373S217.239,212.729,214.696,213.032z"/>
									<path fill="#E37B00" d="M218.391,223.885c-2.549,0.305,0.521,4.373,0.521,4.373S220.934,223.578,218.391,223.885z"/>
									<path fill="#EAA00B" d="M208.042,220.876c-2.55,0.304,0.521,4.373,0.521,4.373S210.59,220.571,208.042,220.876z"/>
									<path fill="#E37B00" d="M226.008,211.524c-2.548,0.305,0.521,4.372,0.521,4.372S228.555,211.218,226.008,211.524z"/>
									<path fill="#E37B00" d="M217.369,201.437c-2.547,0.306,0.524,4.375,0.524,4.375S219.916,201.135,217.369,201.437z"/>
									<path fill="#EAA00B" d="M210.513,191.679c-2.547,0.305,0.522,4.374,0.522,4.374S213.057,191.377,210.513,191.679z"/>
									<path fill="#EAA00B" d="M203.035,181.033c-2.543,0.304,0.524,4.373,0.524,4.373S205.582,180.726,203.035,181.033z"/>
									<path fill="#EAA00B" d="M217.123,180.048c-2.545,0.306,0.525,4.372,0.525,4.372S219.67,179.743,217.123,180.048z"/>
									<path fill="#E37B00" d="M224.092,190.489c-2.545,0.303,0.526,4.372,0.526,4.372S226.639,190.186,224.092,190.489z"/>
									<path fill="#E37B00" d="M230.772,199.902c-2.543,0.309,0.521,4.377,0.521,4.377S233.321,199.599,230.772,199.902z"/>
									<path fill="#E37B00" d="M236.016,187.596c-2.545,0.306,0.524,4.378,0.524,4.378S238.565,187.294,236.016,187.596z"/>
									<path fill="#E37B00" d="M228.688,177.506c-2.544,0.304,0.526,4.375,0.526,4.375S231.237,177.201,228.688,177.506z"/>
									<path fill="#E37B00" d="M234.969,167.247c-2.553,0.308,0.521,4.376,0.521,4.376S237.513,166.945,234.969,167.247z"/>
									<path fill="#E37B00" d="M243.901,168.067c-2.549,0.304,0.521,4.376,0.521,4.376S246.446,167.764,243.901,168.067z"/>
									<path fill="#E37B00" d="M239.84,176.75c-2.547,0.306,0.522,4.377,0.522,4.377S242.389,176.444,239.84,176.75z"/>
									<path fill="#E37B00" d="M245.641,185.219c-2.549,0.303,0.523,4.37,0.523,4.37S248.183,184.914,245.641,185.219z"/>
									<path fill="#E37B00" d="M241.74,198.233c-2.549,0.306,0.522,4.375,0.522,4.375S244.286,197.929,241.74,198.233z"/>
									<path fill="#E37B00" d="M235.822,209.334c-2.548,0.306,0.526,4.373,0.526,4.373S238.367,209.029,235.822,209.334z"/>
									<path fill="#EAA00B" d="M201.076,213.013c-2.548,0.303,0.523,4.374,0.523,4.374S203.623,212.707,201.076,213.013z"/>
									<path fill="#EAA00B" d="M193.949,204.07c-2.551,0.306,0.52,4.374,0.52,4.374S196.492,203.766,193.949,204.07z"/>
									<path fill="#EAA00B" d="M188.116,191.857c-2.547,0.306,0.524,4.374,0.524,4.374S190.667,191.553,188.116,191.857z"/>
									<path fill="#EAA00B" d="M210.156,172.109c-2.549,0.307,0.521,4.376,0.521,4.376S212.707,171.806,210.156,172.109z"/>
									<path fill="#EAA00B" d="M195.278,170.808c-2.545,0.304,0.525,4.374,0.525,4.374S197.824,170.503,195.278,170.808z"/>
								</g>
								<path opacity="0.3" d="M250.139,184.03c-0.031-1.331-0.115-2.584-0.226-3.802l-53.72,36.861
									c6.68,8.449,14.709,14.354,21.203,13.706C232.172,229.329,250.465,199.795,250.139,184.03z"/>
							</g>
							<path fill="#808A22" d="M238.871,165.908c-3.369-1.592-6.97-5.103-9.74-7.556c2.833,0.23,7.117-0.222,9.818-0.948
								c2.678-0.718,7.148-1.374,9.262-3.291c-4.26-0.699-8.802-0.354-13.127-0.497c-3.682-0.119-7.34-0.041-11.014,0
								c1.47-0.395,7.938-5.311,8.949-6.882c-1.109-0.047-7.836,3.127-9.626,4.204c-0.751,0.45-1.427,0.867-2.089,1.222
								c0.289-1.487,0.414-3.129,0.313-3.95c-1.171,1.03-1.742,2.055-2.691,2.968c-0.357,0.341-0.789,0.63-1.232,0.915
								c-0.188-0.886-0.414-1.685-0.539-2.16c-0.406-1.533-0.852-3.323-1.793-4.847c-0.742-1.202-0.995-1.267-2.953-1.593
								c-4.588-0.759,0.119,2.607,0.967,4.207c0.494,0.935,0.62,2.488,0.307,4.543c-0.014,0-0.457-1.349-0.014,0
								c-1.73-2.062-3.166-2.667-4.793-4.822c0.213,1.61,0.543,3.733,1.123,5.649c-0.148-0.047-0.293-0.082-0.438-0.133
								c-3.777-1.35-7.316-3.266-10.76-5.369c-0.275,2.273,3.295,6.618,4.986,7.009c-1.609,0.418-1.339,0.197-10.296,2.317
								c-7.142,1.817-14.778,2.412-14.778,2.412c2.289,1,4.228,1.823,6.275,1.959c3.07,0.202,5.689,0.521,8.513,0.279
								c4.673-0.402,10.601-0.723,12.477-1.499c-3.044,3.487-3.353,3.808-6.92,6.675c-1.832,1.471-3.641,3.013-5.528,4.396
								c-1.309,0.962-2.928,1.593-4.138,2.651c6.071,0.609,12.179-3.275,17.457-5.939c3.515-1.773,5.956-3.712,8.118-7.448
								c-0.549,2.214-0.184,2.744-0.287,4.528c-0.182,3.017,0.587,5.404,1.434,8.671c0.68,2.615,1.859,5.693,2.773,8.224
								c-0.15-3.787,2.443-9.835,3.134-13.75c0.557-3.178,0.486-4.729,0.876-7.901c0.219,1.587,4.049,4.254,5.172,4.972
								c2.532,1.619,2.939,1.586,5.791,2.93c4.351,2.054,10.021,3.37,14.797,2.182C245.486,169.481,241.908,167.34,238.871,165.908z
								"/>
							<path fill="#68791B" d="M214.967,160.381c-0.549,2.214-0.184,2.744-0.287,4.528c-0.182,3.017,0.587,5.404,1.434,8.671
								c0.68,2.615,1.859,5.693,2.773,8.224c-0.15-3.787,2.443-9.835,3.134-13.75c0.557-3.178,0.486-4.729,0.876-7.901
								c0.219,1.587,4.049,4.254,5.172,4.972c2.532,1.619,2.939,1.586,5.791,2.93c4.351,2.054,10.021,3.37,14.797,2.182
								c-3.171-0.754-6.748-2.896-9.785-4.327c-3.369-1.592-6.97-5.103-9.74-7.556c2.833,0.23,7.117-0.222,9.818-0.948
								c2.678-0.718,7.148-1.374,9.262-3.291c-4.26-0.699-8.802-0.354-13.127-0.497c-3.682-0.119-7.34-0.041-11.014,0
								c1.47-0.395,7.938-5.311,8.949-6.882c-1.109-0.047-7.836,3.127-9.626,4.204c-0.751,0.45-1.427,0.867-2.089,1.222
								c0.289-1.487,0.414-3.129,0.313-3.95c-0.648,0.57-3.475,3.335-3.924,3.883"/>
							<path fill="#68791B" d="M213.835,150.808c0.04,0.361-0.224,2.896-0.491,3.122c-0.355,0.301-2.133-0.319-2.574-0.506
								c-1.098-0.463-1.166-0.635-1.718-1.745c-0.833-1.674-1.146-3.484-1.212-5.337c-0.025-0.021-0.029-0.021-0.007,0.003
								c1.017,1.181,2.608,1.918,3.911,2.763C212.545,149.63,213.098,150.201,213.835,150.808"/>
						</g>
					</g>
				</g>
			</g>
			<g>
				<g>
					<g>
						<g>
							<g>
								<path fill="#BB321E" d="M140.369,233.161c-13.863,8.535-21.904,16.376-16.713,35.461
									c5.195,19.085,39.921,39.303,52.914,31.653c12.992-7.645,17.279-42.655,10.264-57.047
									C174.074,217.053,154.235,224.628,140.369,233.161z"/>
								<path fill="#9F251C" d="M153.675,226.767l7.417,7.279l7.41,67.862c3.131,0.142,5.902-0.358,8.068-1.634
									c12.992-7.645,17.279-42.655,10.264-57.047C177.791,224.673,165.185,223.084,153.675,226.767z"/>
								<g>
									<path fill="#EAA00B" d="M130.082,265.28c-2.223,1.367,2.342,3.809,2.342,3.809S132.295,263.916,130.082,265.28z"/>
									<path fill="#EAA00B" d="M142.237,272.027c-2.219,1.365,2.344,3.806,2.344,3.806S144.457,270.663,142.237,272.027z"/>
									<path fill="#EAA00B" d="M153.257,279.949c-2.216,1.364,2.348,3.807,2.348,3.807S155.475,278.584,153.257,279.949z"/>
									<path fill="#E37B00" d="M166.516,285.052c-2.218,1.365,2.342,3.809,2.342,3.809S168.731,283.689,166.516,285.052z"/>
									<path fill="#E37B00" d="M174.541,293.48c-2.217,1.367,2.344,3.811,2.344,3.811S176.757,292.117,174.541,293.48z"/>
									<path fill="#EAA00B" d="M163.721,295.114c-2.217,1.366,2.343,3.811,2.343,3.811S165.943,293.748,163.721,295.114z"/>
									<path fill="#E37B00" d="M176.301,278.844c-2.217,1.366,2.342,3.81,2.342,3.81S178.518,277.475,176.301,278.844z"/>
									<path fill="#E37B00" d="M164.042,273.226c-2.216,1.364,2.347,3.81,2.347,3.81S166.262,271.863,164.042,273.226z"/>
									<path fill="#EAA00B" d="M153.567,267.15c-2.215,1.367,2.344,3.811,2.344,3.811S155.785,265.787,153.567,267.15z"/>
									<path fill="#EAA00B" d="M142.143,260.522c-2.214,1.362,2.346,3.806,2.346,3.806S144.36,259.154,142.143,260.522z"/>
									<path fill="#EAA00B" d="M154.707,253.613c-2.214,1.366,2.346,3.807,2.346,3.807S156.927,252.25,154.707,253.613z"/>
									<path fill="#E37B00" d="M165.58,260.271c-2.217,1.362,2.344,3.805,2.344,3.805S167.797,258.907,165.58,260.271z"/>
									<path fill="#E37B00" d="M175.742,266.105c-2.213,1.364,2.346,3.812,2.346,3.812S177.967,264.74,175.742,266.105z"/>
									<path fill="#E37B00" d="M175.338,252.527c-2.217,1.367,2.346,3.814,2.346,3.814S177.559,251.164,175.338,252.527z"/>
									<path fill="#E37B00" d="M164.285,246.345c-2.217,1.365,2.348,3.811,2.348,3.811S166.504,244.982,164.285,246.345z"/>
									<path fill="#E37B00" d="M165.705,234.215c-2.22,1.373,2.348,3.814,2.348,3.814S167.924,232.856,165.705,234.215z"/>
									<path fill="#E37B00" d="M174.29,231.171c-2.221,1.363,2.343,3.81,2.343,3.81S176.508,229.806,174.29,231.171z"/>
									<path fill="#E37B00" d="M174.243,240.901c-2.217,1.366,2.345,3.813,2.345,3.813S176.461,239.534,174.243,240.901z"/>
									<path fill="#E37B00" d="M183.196,246.238c-2.221,1.365,2.342,3.806,2.342,3.806S185.41,244.874,183.196,246.238z"/>
									<path fill="#E37B00" d="M185.141,259.895c-2.216,1.366,2.346,3.81,2.346,3.81S187.36,258.53,185.141,259.895z"/>
									<path fill="#E37B00" d="M184.416,272.648c-2.221,1.363,2.346,3.806,2.346,3.806S186.632,271.283,184.416,272.648z"/>
									<path fill="#EAA00B" d="M153.955,290.834c-2.221,1.363,2.345,3.808,2.345,3.808S156.174,289.467,153.955,290.834z"/>
									<path fill="#EAA00B" d="M143.578,285.625c-2.223,1.367,2.34,3.811,2.34,3.811S145.792,284.263,143.578,285.625z"/>
									<path fill="#EAA00B" d="M132.998,276.852c-2.217,1.364,2.35,3.808,2.35,3.808S135.221,275.486,132.998,276.852z"/>
									<path fill="#EAA00B" d="M144.906,249.264c-2.219,1.367,2.345,3.811,2.345,3.811S147.127,247.9,144.906,249.264z"/>
									<path fill="#EAA00B" d="M130.639,254.399c-2.217,1.364,2.348,3.81,2.348,3.81S132.856,253.035,130.639,254.399z"/>
								</g>
								<path opacity="0.3" d="M186.834,243.228c-0.593-1.217-1.205-2.335-1.825-3.407l-33.821,56.849
									c9.758,4.945,19.671,6.968,25.383,3.605C189.563,292.631,193.85,257.62,186.834,243.228z"/>
							</g>
							<path fill="#808A22" d="M168.734,231.32c-3.784-0.032-8.595-1.735-12.194-2.815c2.708-0.996,6.467-3.235,8.646-5.056
								c2.165-1.805,6.003-4.31,7.137-6.978c-4.226,1.169-8.265,3.422-12.313,5.13c-3.444,1.46-6.782,3.089-10.152,4.692
								c1.187-0.99,5.056-8.276,5.315-10.155c-1.039,0.429-5.889,6.219-7.079,7.973c-0.499,0.736-0.944,1.408-1.405,2.019
								c-0.366-1.496-0.949-3.062-1.395-3.776c-0.64,1.449-0.729,2.638-1.215,3.881c-0.188,0.469-0.461,0.919-0.747,1.369
								c-0.55-0.736-1.097-1.376-1.417-1.762c-1.027-1.239-2.201-2.7-3.717-3.703c-1.195-0.793-1.457-0.743-3.4-0.212
								c-4.553,1.255,1.223,2.353,2.684,3.466c0.854,0.651,1.631,2.031,2.217,4.059c-0.014,0.005-0.996-1.049-0.014,0.005
								c-2.473-1.162-4.053-1.109-6.473-2.403c0.883,1.393,2.092,3.211,3.443,4.729c-0.156,0.02-0.307,0.049-0.46,0.063
								c-4.056,0.365-8.134,0.105-12.204-0.366c0.713,2.214,5.854,4.698,7.583,4.337c-1.308,1.071-1.153,0.751-8.508,6.521
								c-5.808,4.715-12.595,8.518-12.595,8.518c2.537-0.056,4.672-0.121,6.617-0.868c2.918-1.12,5.469-1.944,7.967-3.367
								c4.139-2.36,9.463-5.18,10.863-6.694c-1.32,4.511-1.469,4.937-3.537,9.1c-1.061,2.137-2.072,4.326-3.223,6.406
								c-0.797,1.444-2.021,2.714-2.685,4.205c5.856-2.022,9.831-8.205,13.562-12.908c2.485-3.133,3.91-5.959,4.313-10.322
								c0.436,2.275,0.998,2.606,1.66,4.297c1.119,2.856,2.846,4.729,5.016,7.38c1.742,2.123,4.137,4.458,6.057,6.402
								c-1.748-3.427-1.932-10.109-2.964-14.011c-0.841-3.165-1.563-4.565-2.558-7.654c0.875,1.368,5.541,2.197,6.883,2.38
								c3.025,0.413,3.387,0.21,6.586,0.235c4.888,0.04,10.672-1.163,14.566-4.29C176.352,231.799,172.143,231.347,168.734,231.32z"
								/>
							<path fill="#68791B" d="M144.348,236.404c0.436,2.275,0.998,2.606,1.66,4.297c1.119,2.856,2.846,4.729,5.016,7.38
								c1.742,2.123,4.137,4.458,6.057,6.402c-1.748-3.427-1.932-10.109-2.964-14.011c-0.841-3.165-1.563-4.565-2.558-7.654
								c0.875,1.368,5.541,2.197,6.883,2.38c3.025,0.413,3.387,0.21,6.586,0.235c4.888,0.04,10.672-1.163,14.566-4.29
								c-3.242,0.655-7.451,0.204-10.86,0.177c-3.784-0.032-8.595-1.735-12.194-2.815c2.708-0.996,6.467-3.235,8.646-5.056
								c2.165-1.805,6.003-4.31,7.137-6.978c-4.226,1.169-8.265,3.422-12.313,5.13c-3.444,1.46-6.782,3.089-10.152,4.692
								c1.187-0.99,5.056-8.276,5.315-10.155c-1.039,0.429-5.889,6.219-7.079,7.973c-0.499,0.736-0.944,1.408-1.405,2.019
								c-0.366-1.496-0.949-3.062-1.395-3.776c-0.355,0.802-1.783,4.555-1.962,5.25"/>
							<path fill="#68791B" d="M139.228,228.062c0.191,0.316,1.026,2.763,0.876,3.088c-0.199,0.43-2.104,0.613-2.589,0.631
								c-1.206,0.039-1.343-0.09-2.327-0.877c-1.477-1.189-2.538-2.726-3.387-4.404c-0.033-0.011-0.036-0.01-0.006,0.005
								c1.439,0.655,3.218,0.657,4.781,0.882C137.535,227.526,138.289,227.815,139.228,228.062"/>
						</g>
					</g>
				</g>
			</g>
			<g>
				<g>
					<g>
						<g>
							<g>
								<path fill="#BB321E" d="M212.091,271.744c-10.46-12.842-15.556-23.065-4.181-39.658
									c11.381-16.592,51.504-24.38,61.423-12.683c9.921,11.694,2.313,46.755-9.243,58.229
									C239.071,298.499,222.549,284.581,212.091,271.744z"/>
								<path fill="#9F251C" d="M222.729,282.34l9.561-4.51l29.838-62.696c3.061,0.913,5.555,2.322,7.206,4.27
									c9.921,11.694,2.313,46.755-9.243,58.229C245.188,292.427,232.548,289.73,222.729,282.34z"/>
								<g>
									<path fill="#EAA00B" d="M212.963,237.447c-1.674-2.057,3.527-2.874,3.527-2.874S214.635,239.501,212.963,237.447z"/>
									<path fill="#EAA00B" d="M226.896,235.038c-1.672-2.054,3.528-2.873,3.528-2.873S228.574,237.092,226.896,235.038z"/>
									<path fill="#EAA00B" d="M240.133,231.119c-1.668-2.052,3.531-2.869,3.531-2.869S241.809,233.174,240.133,231.119z"/>
									<path fill="#E37B00" d="M254.579,230.658c-1.672-2.055,3.525-2.874,3.525-2.874S256.251,232.709,254.579,230.658z"/>
									<path fill="#E37B00" d="M265.111,225.249c-1.673-2.054,3.525-2.872,3.525-2.872S266.781,227.301,265.111,225.249z"/>
									<path fill="#EAA00B" d="M255.268,220.057c-1.676-2.055,3.523-2.875,3.523-2.875S256.941,222.114,255.268,220.057z"/>
									<path fill="#E37B00" d="M261.899,239.896c-1.672-2.054,3.525-2.874,3.525-2.874S263.569,241.952,261.899,239.896z"/>
									<path fill="#E37B00" d="M248.242,241.189c-1.67-2.053,3.529-2.874,3.529-2.874S249.918,243.24,248.242,241.189z"/>
									<path fill="#EAA00B" d="M236.149,243.517c-1.672-2.057,3.525-2.875,3.525-2.875S237.821,245.566,236.149,243.517z"/>
									<path fill="#EAA00B" d="M222.955,246.057c-1.67-2.05,3.529-2.871,3.529-2.871S224.625,248.115,222.955,246.057z"/>
									<path fill="#EAA00B" d="M232.713,256.901c-1.674-2.055,3.527-2.873,3.527-2.873S234.385,258.954,232.713,256.901z"/>
									<path fill="#E37B00" d="M245.379,254.146c-1.672-2.052,3.529-2.871,3.529-2.871S247.055,256.2,245.379,254.146z"/>
									<path fill="#E37B00" d="M257.096,251.946c-1.666-2.054,3.529-2.876,3.529-2.876S258.774,254.002,257.096,251.946z"/>
									<path fill="#E37B00" d="M252.163,264.849c-1.675-2.054,3.528-2.871,3.528-2.871S253.836,266.903,252.163,264.849z"/>
									<path fill="#E37B00" d="M239.475,267.089c-1.668-2.057,3.531-2.873,3.531-2.873S241.151,269.141,239.475,267.089z"/>
									<path fill="#E37B00" d="M236.778,279.213c-1.676-2.059,3.529-2.876,3.529-2.876S238.453,281.262,236.778,279.213z"/>
									<path fill="#E37B00" d="M244.001,285.014c-1.675-2.054,3.527-2.878,3.527-2.878S245.672,287.064,244.001,285.014z"/>
									<path fill="#E37B00" d="M247.217,275.65c-1.672-2.055,3.531-2.876,3.531-2.876S248.889,277.706,247.217,275.65z"/>
									<path fill="#E37B00" d="M257.604,273.523c-1.679-2.055,3.521-2.871,3.521-2.871S259.274,275.574,257.604,273.523z"/>
									<path fill="#E37B00" d="M264.045,261.056c-1.671-2.054,3.529-2.872,3.529-2.872S265.716,263.111,264.045,261.056z"/>
									<path fill="#E37B00" d="M267.616,248.564c-1.674-2.053,3.53-2.87,3.53-2.87S269.289,250.619,267.616,248.564z"/>
									<path fill="#EAA00B" d="M244.449,220.898c-1.673-2.053,3.529-2.871,3.529-2.871S246.119,222.954,244.449,220.898z"/>
									<path fill="#EAA00B" d="M232.739,222.426c-1.675-2.057,3.525-2.875,3.525-2.875S234.412,224.476,232.739,222.426z"/>
									<path fill="#EAA00B" d="M219.643,227.311c-1.674-2.052,3.532-2.871,3.532-2.871S221.319,229.367,219.643,227.311z"/>
									<path fill="#EAA00B" d="M221.84,257.796c-1.672-2.059,3.529-2.877,3.529-2.877S223.516,259.85,221.84,257.796z"/>
									<path fill="#EAA00B" d="M209.858,248.084c-1.674-2.052,3.525-2.873,3.525-2.873S211.528,250.138,209.858,248.084z"/>
								</g>
								<path opacity="0.3" d="M260.09,277.633c-0.979,0.97-1.939,1.839-2.894,2.662l-13.448-65.93
									c11.025-1.479,21.225-0.103,25.585,5.038C279.254,231.097,271.646,266.158,260.09,277.633z"/>
							</g>
							<path fill="#808A22" d="M238.716,283.008c-3.642-1.234-8.836-1.211-12.655-1.378c2.27,1.862,5.129,5.274,6.611,7.747
								c1.475,2.461,4.322,6.154,4.519,9.095c-3.669-2.538-6.794-6.054-10.106-9.051c-2.82-2.556-5.482-5.236-8.18-7.904
								c0.807,1.348,2.084,9.642,1.705,11.533c-0.854-0.761-3.575-7.947-4.131-10.029c-0.234-0.874-0.438-1.67-0.674-2.407
								c-0.854,1.314-1.939,2.62-2.605,3.158c-0.129-1.606,0.182-2.777,0.131-4.137c-0.02-0.511-0.131-1.033-0.257-1.563
								c-0.774,0.525-1.516,0.955-1.949,1.218c-1.401,0.847-3.021,1.854-4.812,2.31c-1.414,0.363-1.648,0.229-3.332-0.935
								c-3.953-2.727,1.957-1.851,3.735-2.428c1.036-0.341,2.245-1.406,3.487-3.155c-0.013-0.012-1.31,0.673-0.013-0.012
								c-2.763,0.289-4.266-0.291-7.022,0.144c1.318-1.045,3.086-2.387,4.89-3.391c-0.142-0.07-0.275-0.148-0.419-0.216
								c-3.77-1.707-7.777-2.825-11.844-3.734c1.426-1.885,7.197-2.551,8.732-1.627c-0.893-1.463-0.85-1.106-5.984-9.11
								c-3.998-6.473-9.246-12.397-9.246-12.397c2.418,0.902,4.451,1.68,6.066,3.05c2.428,2.053,4.601,3.697,6.524,5.901
								c3.183,3.652,7.354,8.145,8.19,10.065c0.244-4.773,0.244-5.233-0.351-9.922c-0.302-2.407-0.542-4.851-0.948-7.232
								c-0.281-1.654-1.033-3.285-1.174-4.941c4.949,3.907,6.699,11.178,8.706,16.941c1.339,3.843,1.759,7.032,0.685,11.358
								c1.182-2.036,1.832-2.17,3.035-3.569c2.03-2.37,4.314-3.591,7.291-5.412c2.381-1.451,5.464-2.894,7.958-4.119
								c-2.825,2.706-5.243,9.062-7.542,12.463c-1.865,2.76-3.03,3.862-5.018,6.496c1.305-1.021,6.059-0.253,7.411,0.02
								c3.043,0.616,3.319,0.933,6.402,1.981c4.704,1.597,9.86,4.689,12.556,8.998C246.194,285.102,242,284.125,238.716,283.008z"/>
							<path fill="#68791B" d="M216.996,269.959c1.182-2.036,1.832-2.17,3.035-3.569c2.03-2.37,4.314-3.591,7.291-5.412
								c2.381-1.451,5.464-2.894,7.958-4.119c-2.825,2.706-5.243,9.062-7.542,12.463c-1.865,2.76-3.03,3.862-5.018,6.496
								c1.305-1.021,6.059-0.253,7.411,0.02c3.043,0.616,3.319,0.933,6.402,1.981c4.704,1.597,9.86,4.689,12.556,8.998
								c-2.896-1.714-7.09-2.691-10.374-3.809c-3.642-1.234-8.836-1.211-12.655-1.378c2.27,1.862,5.129,5.274,6.611,7.747
								c1.475,2.461,4.322,6.154,4.519,9.095c-3.669-2.538-6.794-6.054-10.106-9.051c-2.82-2.556-5.482-5.236-8.18-7.904
								c0.807,1.348,2.084,9.642,1.705,11.533c-0.854-0.761-3.575-7.947-4.131-10.029c-0.234-0.874-0.438-1.67-0.674-2.407
								c-0.854,1.314-1.939,2.62-2.605,3.158c-0.068-0.89-0.188-4.971-0.126-5.699"/>
							<path fill="#68791B" d="M209.285,276.256c0.289-0.239,1.91-2.309,1.875-2.673c-0.047-0.479-1.813-1.292-2.273-1.472
								c-1.148-0.441-1.324-0.363-2.527,0.065c-1.819,0.646-3.352,1.767-4.73,3.094c-0.034-0.003-0.037-0.005,0-0.008
								c1.603-0.146,3.309,0.444,4.887,0.755C207.483,276.205,208.305,276.177,209.285,276.256"/>
						</g>
					</g>
				</g>
			</g>
			<g>
				<g>
					<g>
						<g>
							<g>
								<path fill="#BB321E" d="M272.053,228.429c8.477-13.959,16.29-22.069,35.465-16.979
									c19.174,5.091,39.659,39.797,32.064,52.875c-7.586,13.078-42.675,17.59-57.151,10.643
									C256.102,262.328,263.581,242.383,272.053,228.429z"/>
								<path fill="#9F251C" d="M265.719,241.81l7.348,7.395l68.105,7.02c0.162,3.141-0.325,5.922-1.59,8.102
									c-7.586,13.078-42.675,17.59-57.151,10.643C263.767,266.01,262.099,253.377,265.719,241.81z"/>
								<g>
									<path fill="#EAA00B" d="M304.205,217.915c1.357-2.237,3.832,2.326,3.832,2.326S302.85,220.144,304.205,217.915z"/>
									<path fill="#EAA00B" d="M311.043,230.063c1.357-2.231,3.831,2.328,3.831,2.328S309.69,232.298,311.043,230.063z"/>
									<path fill="#EAA00B" d="M319.061,241.069c1.346-2.232,3.826,2.326,3.826,2.326S317.7,243.301,319.061,241.069z"/>
									<path fill="#E37B00" d="M324.254,254.335c1.358-2.232,3.837,2.325,3.837,2.325S322.901,256.564,324.254,254.335z"/>
									<path fill="#E37B00" d="M332.76,262.332c1.352-2.232,3.832,2.327,3.832,2.327S331.403,264.563,332.76,262.332z"/>
									<path fill="#EAA00B" d="M334.33,251.472c1.355-2.234,3.833,2.326,3.833,2.326S332.973,253.706,334.33,251.472z"/>
									<path fill="#E37B00" d="M318.088,264.186c1.357-2.234,3.837,2.326,3.837,2.326S316.731,266.421,318.088,264.186z"/>
									<path fill="#E37B00" d="M312.381,251.927c1.355-2.23,3.832,2.331,3.832,2.331S311.026,254.162,312.381,251.927z"/>
									<path fill="#EAA00B" d="M306.224,241.455c1.354-2.227,3.831,2.329,3.831,2.329S304.869,243.688,306.224,241.455z"/>
									<path fill="#EAA00B" d="M299.504,230.04c1.354-2.229,3.832,2.33,3.832,2.33S298.147,232.274,299.504,230.04z"/>
									<path fill="#EAA00B" d="M292.651,242.683c1.356-2.229,3.834,2.33,3.834,2.33S291.297,244.917,292.651,242.683z"/>
									<path fill="#E37B00" d="M299.399,253.546c1.349-2.23,3.828,2.326,3.828,2.326S298.042,255.781,299.399,253.546z"/>
									<path fill="#E37B00" d="M305.305,263.707c1.36-2.229,3.842,2.326,3.842,2.326S303.953,265.941,305.305,263.707z"/>
									<path fill="#E37B00" d="M291.69,263.382c1.357-2.231,3.836,2.329,3.836,2.329S290.335,265.616,291.69,263.382z"/>
									<path fill="#E37B00" d="M285.422,252.333c1.355-2.229,3.838,2.331,3.838,2.331S284.065,254.567,285.422,252.333z"/>
									<path fill="#E37B00" d="M273.267,253.833c1.362-2.236,3.835,2.329,3.835,2.329S271.916,256.064,273.267,253.833z"/>
									<path fill="#E37B00" d="M270.261,262.458c1.356-2.234,3.84,2.327,3.84,2.327S268.909,264.689,270.261,262.458z"/>
									<path fill="#E37B00" d="M280.022,262.356c1.355-2.235,3.838,2.326,3.838,2.326S278.664,264.587,280.022,262.356z"/>
									<path fill="#E37B00" d="M285.432,271.301c1.355-2.238,3.826,2.326,3.826,2.326S284.073,273.53,285.432,271.301z"/>
									<path fill="#E37B00" d="M299.137,273.166c1.358-2.229,3.838,2.332,3.838,2.332S297.783,275.401,299.137,273.166z"/>
									<path fill="#E37B00" d="M311.92,272.362c1.357-2.235,3.836,2.33,3.836,2.33S310.569,274.592,311.92,272.362z"/>
									<path fill="#EAA00B" d="M329.977,241.703c1.354-2.232,3.832,2.326,3.832,2.326S328.619,243.932,329.977,241.703z"/>
									<path fill="#EAA00B" d="M324.692,231.326c1.354-2.237,3.834,2.326,3.834,2.326S323.334,233.555,324.692,231.326z"/>
									<path fill="#EAA00B" d="M315.826,220.771c1.354-2.232,3.836,2.329,3.836,2.329S314.469,223.006,315.826,220.771z"/>
									<path fill="#EAA00B" d="M288.232,232.88c1.356-2.233,3.835,2.327,3.835,2.327S286.875,235.118,288.232,232.88z"/>
									<path fill="#EAA00B" d="M293.293,218.538c1.355-2.229,3.836,2.331,3.836,2.331S291.94,220.772,293.293,218.538z"/>
								</g>
								<path opacity="0.3" d="M282.431,274.969c-1.222-0.589-2.349-1.196-3.427-1.811l56.809-34.266
									c5.02,9.755,7.107,19.685,3.77,25.434C331.996,277.404,296.907,281.916,282.431,274.969z"/>
							</g>
							<path fill="#808A22" d="M270.381,256.885c-0.057-3.79-1.793-8.611-2.9-12.215c-0.983,2.725-3.204,6.509-5.017,8.702
								c-1.796,2.184-4.286,6.049-6.957,7.202c1.147-4.244,3.384-8.311,5.075-12.377c1.439-3.466,3.053-6.823,4.642-10.212
								c-0.985,1.197-8.269,5.122-10.153,5.393c0.426-1.046,6.203-5.944,7.956-7.15c0.732-0.506,1.405-0.954,2.015-1.421
								c-1.502-0.354-3.078-0.933-3.797-1.375c1.45-0.649,2.64-0.75,3.888-1.245c0.468-0.187,0.917-0.466,1.365-0.755
								c-0.743-0.548-1.387-1.094-1.778-1.411c-1.246-1.021-2.718-2.192-3.733-3.705c-0.8-1.194-0.755-1.457-0.233-3.407
								c1.23-4.573,2.366,1.21,3.496,2.669c0.656,0.852,2.042,1.623,4.08,2.197c0.004-0.012-1.06-0.991,0.004-0.012
								c-1.182-2.473-1.139-4.061-2.451-6.475c1.404,0.874,3.235,2.075,4.766,3.42c0.018-0.153,0.047-0.305,0.061-0.463
								c0.343-4.065,0.059-8.156-0.438-12.234c2.221,0.7,4.744,5.843,4.393,7.577c1.067-1.317,0.746-1.157,6.486-8.569
								c4.695-5.854,8.467-12.683,8.467-12.683c-0.04,2.543-0.094,4.685-0.832,6.642c-1.104,2.931-1.917,5.49-3.326,8.01
								c-2.34,4.164-5.14,9.522-6.646,10.936c4.512-1.353,4.94-1.505,9.1-3.603c2.141-1.079,4.328-2.105,6.408-3.272
								c1.446-0.807,2.711-2.044,4.199-2.72c-1.991,5.889-8.166,9.913-12.863,13.681c-3.123,2.513-5.951,3.961-10.326,4.388
								c2.287,0.424,2.623,0.987,4.322,1.642c2.871,1.102,4.76,2.824,7.432,4.985c2.139,1.733,4.496,4.122,6.455,6.036
								c-3.447-1.737-10.146-1.882-14.068-2.891c-3.179-0.823-4.588-1.54-7.689-2.518c1.377,0.871,2.235,5.545,2.428,6.889
								c0.434,3.032,0.23,3.392,0.274,6.604c0.069,4.9-1.101,10.71-4.214,14.636C270.906,264.524,270.428,260.306,270.381,256.885z"
								/>
							<path fill="#68791B" d="M275.328,232.397c2.287,0.424,2.623,0.987,4.322,1.642c2.871,1.102,4.76,2.824,7.432,4.985
								c2.139,1.733,4.496,4.122,6.455,6.036c-3.447-1.737-10.146-1.882-14.068-2.891c-3.179-0.823-4.588-1.54-7.689-2.518
								c1.377,0.871,2.235,5.545,2.428,6.889c0.434,3.032,0.23,3.392,0.274,6.604c0.069,4.9-1.101,10.71-4.214,14.636
								c0.639-3.257,0.16-7.475,0.113-10.896c-0.057-3.79-1.793-8.611-2.9-12.215c-0.983,2.725-3.204,6.509-5.017,8.702
								c-1.796,2.184-4.286,6.049-6.957,7.202c1.147-4.244,3.384-8.311,5.075-12.377c1.439-3.466,3.053-6.823,4.642-10.212
								c-0.985,1.197-8.269,5.122-10.153,5.393c0.426-1.046,6.203-5.944,7.956-7.15c0.732-0.506,1.405-0.954,2.015-1.421
								c-1.502-0.354-3.078-0.933-3.797-1.375c0.802-0.36,4.557-1.817,5.253-2"/>
							<path fill="#68791B" d="M266.934,227.314c0.318,0.19,2.777,1.014,3.1,0.86c0.432-0.205,0.605-2.114,0.617-2.599
								c0.033-1.214-0.096-1.35-0.893-2.331c-1.201-1.474-2.748-2.529-4.438-3.374c-0.009-0.026-0.008-0.033,0.004,0
								c0.669,1.44,0.682,3.222,0.914,4.785C266.385,225.62,266.681,226.373,266.934,227.314"/>
						</g>
					</g>
				</g>
			</g>
		</g>
	</g>
</g>
</svg>
