<?xml version="1.0" encoding="utf-8"?>
<!-- Generator: Adobe Illustrator 16.0.0, SVG Export Plug-In . SVG Version: 6.00 Build 0)  -->
<!DOCTYPE svg PUBLIC "-//W3C//DTD SVG 1.1//EN" "http://www.w3.org/Graphics/SVG/1.1/DTD/svg11.dtd">
<svg version="1.1" id="Ebene_1" xmlns="http://www.w3.org/2000/svg" xmlns:xlink="http://www.w3.org/1999/xlink" x="0px" y="0px"
	 width="450px" height="450px" viewBox="0 0 450 450" enable-background="new 0 0 450 450" xml:space="preserve">
<g>
	<g opacity="0.3">
		<path d="M202.533,206.683c-6.809-11.231-13.09-17.76-28.514-13.678c-15.424,4.084-31.924,31.985-25.824,42.509
			c6.094,10.524,34.313,14.174,45.961,8.595C215.342,233.963,209.342,217.914,202.533,206.683z"/>
		<path d="M207.618,217.45l-60.697,11.546c-0.131,2.527,0.255,4.765,1.274,6.518c6.094,10.524,34.313,14.174,45.961,8.595
			C209.176,236.916,210.525,226.757,207.618,217.45z"/>
		<path d="M176.681,198.205c-1.092-1.797-3.085,1.87-3.085,1.87S177.768,200.001,176.681,198.205z"/>
		<path d="M171.172,207.975c-1.09-1.797-3.085,1.869-3.085,1.869S172.259,209.773,171.172,207.975z"/>
		<path d="M164.72,216.821c-1.088-1.796-3.086,1.872-3.086,1.872S165.808,218.617,164.72,216.821z"/>
		<path d="M160.531,227.488c-1.091-1.798-3.086,1.869-3.086,1.869S161.618,229.283,160.531,227.488z"/>
		<path d="M153.685,233.915c-1.089-1.796-3.086,1.869-3.086,1.869S154.773,235.71,153.685,233.915z"/>
		<path d="M152.427,225.18c-1.088-1.797-3.085,1.869-3.085,1.869S153.517,226.977,152.427,225.18z"/>
		<path d="M165.482,235.414c-1.088-1.796-3.085,1.871-3.085,1.871S166.574,237.212,165.482,235.414z"/>
		<path d="M170.083,225.558c-1.089-1.794-3.085,1.871-3.085,1.871S171.172,227.356,170.083,225.558z"/>
		<path d="M175.042,217.144c-1.089-1.798-3.085,1.869-3.085,1.869S176.129,218.938,175.042,217.144z"/>
		<path d="M180.454,207.963c-1.089-1.795-3.085,1.87-3.085,1.87S181.543,209.761,180.454,207.963z"/>
		<path d="M185.957,218.138c-1.09-1.796-3.085,1.871-3.085,1.871S187.043,219.935,185.957,218.138z"/>
		<path d="M180.527,226.87c-1.09-1.795-3.086,1.87-3.086,1.87S181.615,228.667,180.527,226.87z"/>
		<path d="M175.763,235.036c-1.09-1.793-3.088,1.872-3.088,1.872S176.852,236.836,175.763,235.036z"/>
		<path d="M186.719,234.785c-1.092-1.799-3.088,1.87-3.088,1.87S187.804,236.582,186.719,234.785z"/>
		<path d="M191.765,225.902c-1.09-1.793-3.088,1.872-3.088,1.872S192.855,227.701,191.765,225.902z"/>
		<path d="M201.542,227.115c-1.091-1.796-3.087,1.87-3.087,1.87S202.629,228.913,201.542,227.115z"/>
		<path d="M203.953,234.055c-1.089-1.798-3.087,1.869-3.087,1.869S205.041,235.852,203.953,234.055z"/>
		<path d="M196.103,233.965c-1.09-1.797-3.088,1.872-3.088,1.872S197.193,235.761,196.103,233.965z"/>
		<path d="M191.748,241.158c-1.09-1.8-3.083,1.869-3.083,1.869S192.838,242.952,191.748,241.158z"/>
		<path d="M180.719,242.651c-1.087-1.796-3.084,1.872-3.084,1.872S181.81,244.448,180.719,242.651z"/>
		<path d="M170.438,241.995c-1.089-1.798-3.085,1.871-3.085,1.871S171.527,243.792,170.438,241.995z"/>
		<path d="M155.935,217.324c-1.089-1.798-3.085,1.869-3.085,1.869S157.025,219.119,155.935,217.324z"/>
		<path d="M160.193,208.98c-1.089-1.797-3.086,1.87-3.086,1.87S161.281,210.776,160.193,208.98z"/>
		<path d="M167.33,200.498c-1.09-1.797-3.086,1.872-3.086,1.872S168.42,202.296,167.33,200.498z"/>
		<path d="M189.518,210.255c-1.091-1.797-3.087,1.87-3.087,1.87S190.607,212.052,189.518,210.255z"/>
		<path d="M185.455,198.717c-1.09-1.798-3.086,1.87-3.086,1.87S186.543,200.513,185.455,198.717z"/>
		<path fill="none" stroke="#000000" stroke-width="0.6755" stroke-linecap="round" stroke-miterlimit="10" d="M169.562,217.376
			c-0.123,1.259,0.389,2.432,1.434,3.177c1.635,1.169,3.768,0.681,5.256-0.614"/>
		<path fill="none" stroke="#000000" stroke-width="0.6755" stroke-linecap="round" stroke-miterlimit="10" d="M166.015,207.778
			c-0.127,1.259,0.385,2.429,1.432,3.178c1.635,1.169,3.77,0.678,5.254-0.617"/>
		<path fill="none" stroke="#000000" stroke-width="0.6755" stroke-linecap="round" stroke-miterlimit="10" d="M159.625,216.782
			c-0.123,1.264,0.387,2.433,1.434,3.182c1.633,1.167,3.77,0.678,5.255-0.618"/>
		<path fill="none" stroke="#000000" stroke-width="0.6755" stroke-linecap="round" stroke-miterlimit="10" d="M175.429,207.993
			c-0.125,1.261,0.387,2.432,1.434,3.18c1.631,1.168,3.768,0.678,5.253-0.616"/>
		<path fill="none" stroke="#000000" stroke-width="0.6755" stroke-linecap="round" stroke-miterlimit="10" d="M180.992,218.149
			c-0.127,1.264,0.389,2.431,1.432,3.181c1.635,1.167,3.771,0.676,5.256-0.617"/>
		<path fill="none" stroke="#000000" stroke-width="0.6755" stroke-linecap="round" stroke-miterlimit="10" d="M164.816,227.462
			c-0.127,1.26,0.389,2.431,1.433,3.181c1.634,1.168,3.768,0.675,5.253-0.618"/>
		<path opacity="0.2" d="M194.156,244.109c0.984-0.471,1.891-0.958,2.76-1.454l-45.674-27.594
			c-4.043,7.843-5.729,15.827-3.047,20.454C154.289,246.039,182.508,249.688,194.156,244.109z"/>
		<path opacity="0.2" d="M202.533,206.683c-4.774-7.877-9.295-13.436-16.889-14.647c-1.479,2.24-2.734,5.034-3.762,8.527
			c-3.688,12.527,5.896,33.938,16.166,41.433C214.531,231.835,208.885,217.162,202.533,206.683z"/>
		<path d="M294.495,184.816c-9.879-8.655-17.84-12.985-31.313-4.437c-13.473,8.546-20.785,40.126-11.797,48.318
			c8.988,8.194,36.993,3.162,46.416-5.671C314.937,206.96,304.374,193.469,294.495,184.816z"/>
		<path d="M302.591,193.548l-54.385,29.322c0.641,2.448,1.683,4.462,3.18,5.827c8.988,8.194,36.993,3.162,46.416-5.671
			C309.95,211.636,308.173,201.544,302.591,193.548z"/>
		<path d="M267.29,184.532c-1.582-1.385-2.379,2.715-2.379,2.715S268.87,185.916,267.29,184.532z"/>
		<path d="M264.984,195.508c-1.58-1.384-2.377,2.715-2.377,2.715S266.564,196.893,264.984,195.508z"/>
		<path d="M261.503,205.89c-1.58-1.385-2.378,2.715-2.378,2.715S263.084,207.275,261.503,205.89z"/>
		<path d="M260.726,217.323c-1.578-1.385-2.377,2.715-2.377,2.715S262.308,218.706,260.726,217.323z"/>
		<path d="M256.14,225.517c-1.58-1.384-2.377,2.714-2.377,2.714S257.719,226.9,256.14,225.517z"/>
		<path d="M252.306,217.569c-1.582-1.385-2.379,2.714-2.379,2.714S253.887,218.951,252.306,217.569z"/>
		<path d="M267.843,223.387c-1.584-1.385-2.379,2.714-2.379,2.714S269.421,224.771,267.843,223.387z"/>
		<path d="M269.253,212.604c-1.582-1.384-2.379,2.715-2.379,2.715S270.833,213.99,269.253,212.604z"/>
		<path d="M271.443,203.082c-1.582-1.384-2.38,2.715-2.38,2.715S273.02,204.467,271.443,203.082z"/>
		<path d="M273.831,192.698c-1.581-1.384-2.379,2.714-2.379,2.714S275.411,194.082,273.831,192.698z"/>
		<path d="M282.148,200.739c-1.582-1.385-2.379,2.714-2.379,2.714S283.728,202.123,282.148,200.739z"/>
		<path d="M279.604,210.701c-1.581-1.385-2.377,2.716-2.377,2.716S281.184,212.086,279.604,210.701z"/>
		<path d="M277.529,219.926c-1.58-1.385-2.379,2.715-2.379,2.715S279.109,221.311,277.529,219.926z"/>
		<path d="M287.894,216.379c-1.58-1.385-2.376,2.715-2.376,2.715S289.475,217.763,287.894,216.379z"/>
		<path d="M290.029,206.39c-1.58-1.384-2.376,2.714-2.376,2.714S291.611,207.775,290.029,206.39z"/>
		<path d="M299.714,204.595c-1.58-1.383-2.378,2.715-2.378,2.715S301.294,205.981,299.714,204.595z"/>
		<path d="M304.107,210.484c-1.58-1.384-2.377,2.715-2.377,2.715S305.689,211.869,304.107,210.484z"/>
		<path d="M296.595,212.766c-1.58-1.383-2.377,2.716-2.377,2.716S298.175,214.151,296.595,212.766z"/>
		<path d="M294.615,220.936c-1.581-1.385-2.378,2.715-2.378,2.715S296.195,222.32,294.615,220.936z"/>
		<path d="M284.55,225.688c-1.58-1.382-2.377,2.716-2.377,2.716S286.132,227.074,284.55,225.688z"/>
		<path d="M274.55,228.166c-1.581-1.386-2.378,2.715-2.378,2.715S276.131,229.549,274.55,228.166z"/>
		<path d="M253.28,209.02c-1.58-1.385-2.377,2.714-2.377,2.714S254.861,210.404,253.28,209.02z"/>
		<path d="M254.822,199.78c-1.58-1.385-2.377,2.715-2.377,2.715S256.402,201.163,254.822,199.78z"/>
		<path d="M259.068,189.541c-1.58-1.385-2.379,2.715-2.379,2.715S260.648,190.925,259.068,189.541z"/>
		<path d="M283.164,192.149c-1.582-1.385-2.379,2.715-2.379,2.715S284.743,193.531,283.164,192.149z"/>
		<path d="M275.808,182.373c-1.58-1.384-2.377,2.715-2.377,2.715S277.389,183.758,275.808,182.373z"/>
		<path opacity="0.3" d="M294.495,184.816c-7.816-6.847-14.434-10.98-23.527-8.178c0.211,0.403,0.45,0.803,0.742,1.196
			c2.574,3.473,6.154,5.725,10.369,6.296l-2.336,2.668c-0.76,2.051-5.537,3.666-7.521,4.13c2.182,1.667,7.828,1.878,10.488,1.135
			c0.447,1.926,0.184,3.771,0.803,5.726c0.514,1.622,1.496,2.904,2.218,4.365c0.854-2.169,2.056-4.253,3.581-6.013
			c1.471,2.869,1.926,7.798,4.947,9.753c-0.229-2.298,0.98-4.563,2.131-6.383c1.828,3.651,4.311,6.91,8.074,8.568
			c0.69,0.305,1.426,0.509,2.168,0.608C308.351,198.944,301.265,190.743,294.495,184.816z"/>
		<path d="M300.171,177.567c-0.943,0.685-2.295,2.643-3.12,2.323c-1.804-0.697-4.589-5.77-5.216-7.759
			c-1.529,1.565-1.594,4.323-0.284,6.109c-2.22-0.405-4.194-1.62-5.912-3.176c-1.747-1.582-2.884-3.605-4.265-5.517
			c-2.177,2.416,0.453,7.081,2.387,8.733c-4.234-0.659-9.273-3.6-11.033-6.996c0.375,7.399,7.225,12.41,13.387,11.431
			c-5.18-0.143-9.78,3.644-15.468,0.542c1.452,2.639,4.493,4.562,7.32,5.327c3.399,0.919,5.807,1.257,8.876,0.563
			c-1.629,4.522-0.994,7.528,0.836,11.698c1.082-2.436,5.377-4.274,6.4-7.575c0.016,1.026-0.801,3.847-0.209,8.098
			c0.352,2.518,2.844,7.273,6.162,7.614c-1.521-1.541-2.697-4.113-1.886-7.836c0.726-3.332,1.298-3.877,1.265-5.307
			c0.354,3.459,1.336,5.414,3.773,7.972c1.889,1.982,4.939,2.51,7.543,2.478c-4.033-1.969-5.79-5.163-6.977-9.438
			c0.596,2.665,7.416,3.151,9.086,1.501c-2.318,0.277-5.775-2.271-7.357-3.848c-1.684-1.677-1.841-2.885-2.748-4.818
			c2.068,0.844,5.197,0.938,7.07-0.572c-3.377-0.009-7.555-3.087-9.607-5.888c-0.958-1.305,0.744-2.848,1.514-4.391
			c0.274-0.553,0.701-0.785-0.051-1.447C301.019,176.825,300.62,176.964,300.171,177.567"/>
		<path d="M291.493,178.207c0.355,0.168,2.916,0.363,5.359,1.582c-1.803-0.966-4.412-5.74-5.018-7.658
			C290.565,173.432,289.855,175.731,291.493,178.207z"/>
		<path d="M280.89,170.298c-1.135,2.419,0.813,6.125,2.813,7.983c1.585,0.596,3.085,0.889,4.764,1.178
			C285.1,177.227,282.39,174.041,280.89,170.298z"/>
		<path d="M283.968,182.861c1.379-0.264,3.196-0.733,4.399-0.961c-2.542-0.522-6.089-0.842-8.718-2.586
			c-3.087-2.048-5.121-4.192-6.826-7.071C273.558,177.926,277.766,182.314,283.968,182.861z"/>
		<path d="M289.423,186.003c-4.756,1.378-9.89,1.869-14.659,1.229c1.032,0.6,2.132,1.063,3.203,1.354
			c3.37,0.912,5.767,1.247,8.8,0.576C287.133,188.556,287.93,187.365,289.423,186.003z"/>
		<path d="M302.059,187.11c0.485,0.856,0.731,1.801,1.056,2.719c2.055,0.708,4.926,0.706,6.688-0.714
			c-3.377-0.009-7.555-3.087-9.607-5.888c-0.066-0.091-0.104-0.184-0.146-0.274C299.896,184.358,301.458,186.058,302.059,187.11z"/>
		<path d="M304.513,196.556c0.42,0.738,0.854,1.459,1.305,2.163c2.166,0.827,5.408,0.771,6.756-0.164
			c-3.135,0.367-6.012-0.475-8.342-2.495C304.323,196.225,304.42,196.393,304.513,196.556z"/>
		<path d="M300.443,199.251c-0.005,0.223-0.014,0.454-0.02,0.688c0.599,1.328,1.473,2.517,2.762,3.872
			c1.461,1.534,3.619,2.195,5.725,2.401c-2.77-2.066-4.914-4.97-6.654-8.169c-0.592-1.086-1.189-2.18-1.772-3.286
			C300.503,196.251,300.466,197.75,300.443,199.251z"/>
		<path d="M295.374,188.747c0.174-0.797,0.3-1.614,0.474-2.417c-0.026-0.234-0.058-0.469-0.099-0.7
			c-1.703,1.418-3.283,2.975-4.566,4.871c-1.484,2.19-3.164,6.015-2.566,8.991c1.16-1.275,2.932-2.487,4.189-3.996
			C293.741,193.291,294.868,191.047,295.374,188.747z"/>
		<path d="M298.101,207.25c-0.446-0.92-0.842-1.863-1.117-2.886c-0.539-1.996-0.498-4.12-0.557-6.169
			c-0.042-1.374-0.081-2.754-0.156-4.133c-0.377,0.922-0.758,1.843-1.115,2.771c-0.498,1.284-0.965,2.58-1.365,3.891
			c0.025,0.212,0.049,0.425,0.08,0.645c0.29,2.094,2.068,5.729,4.567,7.091C298.304,208.064,298.193,207.661,298.101,207.25z"/>
		<path fill="none" stroke="#000000" stroke-width="0.6755" stroke-linecap="round" stroke-miterlimit="10" d="M266.287,204.957
			c0.263,1.24,1.104,2.201,2.325,2.599c1.91,0.621,3.799-0.49,4.824-2.175"/>
		<path fill="none" stroke="#000000" stroke-width="0.6755" stroke-linecap="round" stroke-miterlimit="10" d="M260.009,196.877
			c0.26,1.238,1.102,2.2,2.326,2.597c1.908,0.62,3.795-0.489,4.822-2.174"/>
		<path fill="none" stroke="#000000" stroke-width="0.6755" stroke-linecap="round" stroke-miterlimit="10" d="M256.634,207.391
			c0.262,1.239,1.104,2.201,2.326,2.6c1.91,0.62,3.799-0.49,4.823-2.174"/>
		<path fill="none" stroke="#000000" stroke-width="0.6755" stroke-linecap="round" stroke-miterlimit="10" d="M269.049,194.242
			c0.261,1.24,1.103,2.202,2.325,2.599c1.909,0.621,3.798-0.489,4.824-2.174"/>
		<path fill="none" stroke="#000000" stroke-width="0.6755" stroke-linecap="round" stroke-miterlimit="10" d="M277.417,202.247
			c0.263,1.238,1.104,2.199,2.326,2.599c1.911,0.62,3.799-0.491,4.824-2.174"/>
		<path opacity="0.2" d="M297.802,223.026c0.795-0.746,1.512-1.484,2.189-2.218l-51.869-12.53
			c-1.487,8.697-0.688,16.818,3.264,20.419C260.374,236.891,288.379,231.859,297.802,223.026z"/>
		<path d="M310.728,206.289c-4.033-1.969-5.79-5.163-6.977-9.438c0.596,2.665,7.416,3.151,9.086,1.501
			c-2.318,0.277-5.775-2.271-7.357-3.848c-1.684-1.677-1.841-2.885-2.748-4.818c2.068,0.844,5.197,0.938,7.07-0.572
			c-3.377-0.009-7.555-3.087-9.607-5.888c-0.958-1.305,0.744-2.848,1.514-4.391c0.243-0.49,0.602-0.729,0.161-1.235
			c-2.911,3.368-8.011,9.331-10.19,12.282c-2.252,3.049-3.611,7.958-4.201,10.49c0.064,0.156,0.131,0.312,0.201,0.473
			c1.082-2.436,5.377-4.274,6.4-7.575c0.016,1.026-0.801,3.847-0.209,8.098c0.352,2.518,2.844,7.273,6.162,7.614
			c-1.521-1.541-2.697-4.113-1.886-7.836c0.726-3.332,1.298-3.877,1.265-5.307c0.354,3.459,1.336,5.414,3.773,7.972
			C305.073,205.794,308.124,206.322,310.728,206.289z"/>
		<path opacity="0.2" d="M275.083,206.4c1.508-15.3-5.184-21.95-13.67-24.721c-12.322,10.047-18.611,39.193-10.027,47.018
			c2.074,1.892,5.17,3.07,8.809,3.669C267.868,224.795,274.335,213.971,275.083,206.4z"/>
		<path d="M214.609,179.409c-13.135,0-21.977,1.987-26.479,17.294c-4.504,15.307,10.804,43.878,22.963,44.121
			s29.911-21.996,31.177-34.849C244.575,182.599,227.741,179.409,214.609,179.409z"/>
		<path d="M226.45,180.645l-21.589,57.889c2.095,1.421,4.207,2.251,6.232,2.29c12.159,0.242,29.911-21.996,31.177-34.849
			C243.904,189.403,235.919,182.982,226.45,180.645z"/>
		<path d="M193.957,197.122c-2.102,0,0,3.608,0,3.608S196.056,197.122,193.957,197.122z"/>
		<path d="M199.455,206.899c-2.102,0,0,3.607,0,3.607S201.556,206.899,199.455,206.899z"/>
		<path d="M203.676,217.001c-2.102,0,0,3.608,0,3.608S205.777,217.001,203.676,217.001z"/>
		<path d="M210.625,226.113c-2.102,0,0,3.607,0,3.607S212.724,226.113,210.625,226.113z"/>
		<path d="M212.574,235.299c-2.102,0,0,3.609,0,3.609S214.674,235.299,212.574,235.299z"/>
		<path d="M204.451,231.844c-2.1,0,0,3.608,0,3.608S206.552,231.844,204.451,231.844z"/>
		<path d="M219.971,225.986c-2.101,0,0,3.608,0,3.608S222.074,225.986,219.971,225.986z"/>
		<path d="M213.929,216.946c-2.102,0,0,3.607,0,3.607S216.031,216.946,213.929,216.946z"/>
		<path d="M209.302,208.342c-2.101,0,0,3.607,0,3.607S211.402,208.342,209.302,208.342z"/>
		<path d="M204.258,198.955c-2.101,0,0,3.608,0,3.608S206.358,198.955,204.258,198.955z"/>
		<path d="M215.81,199.526c-2.1,0,0,3.606,0,3.606S217.912,199.526,215.81,199.526z"/>
		<path d="M220.463,208.695c-2.102,0,0,3.607,0,3.607S222.563,208.695,220.463,208.695z"/>
		<path d="M224.978,217.001c-2.101,0,0,3.608,0,3.608S227.079,217.001,224.978,217.001z"/>
		<path d="M230.441,207.502c-2.104,0,0,3.609,0,3.609S232.54,207.502,230.441,207.502z"/>
		<path d="M225.463,198.581c-2.1,0,0,3.609,0,3.609S227.565,198.581,225.463,198.581z"/>
		<path d="M231.566,190.851c-2.101,0,0,3.609,0,3.609S233.667,190.851,231.566,190.851z"/>
		<path d="M238.751,192.385c-2.1,0,0,3.609,0,3.609S240.853,192.385,238.751,192.385z"/>
		<path d="M234.605,199.052c-2.102,0,0,3.608,0,3.608S236.705,199.052,234.605,199.052z"/>
		<path d="M238.497,206.503c-2.102,0,0,3.607,0,3.607S240.598,206.503,238.497,206.503z"/>
		<path d="M234.059,216.709c-2.101,0,0,3.608,0,3.608S236.159,216.709,234.059,216.709z"/>
		<path d="M228.167,225.161c-2.102,0,0,3.608,0,3.608S230.269,225.161,228.167,225.161z"/>
		<path d="M199.552,224.774c-2.101,0,0,3.608,0,3.608S201.652,224.774,199.552,224.774z"/>
		<path d="M194.623,216.807c-2.102,0,0,3.608,0,3.608S196.724,216.807,194.623,216.807z"/>
		<path d="M191.071,206.307c-2.101,0,0,3.609,0,3.609S193.174,206.307,191.071,206.307z"/>
		<path d="M210.916,192.393c-2.102,0,0,3.607,0,3.607S213.016,192.393,210.916,192.393z"/>
		<path d="M198.943,189.885c-2.104,0,0,3.609,0,3.609S201.043,189.885,198.943,189.885z"/>
		<path opacity="0.3" d="M214.609,179.409c-10.393,0-18.093,1.251-23.088,9.352c0.427,0.162,0.867,0.307,1.347,0.41
			c4.224,0.916,8.402,0.251,11.948-2.096v3.546c0.781,2.043-1.748,6.406-2.936,8.063c2.739-0.185,7.127-3.746,8.638-6.059
			c1.604,1.153,2.625,2.716,4.376,3.779c1.455,0.882,3.041,1.2,4.545,1.822c-0.789-2.194-1.256-4.553-1.268-6.883
			c2.996,1.189,6.586,4.6,10.146,4.077c-1.686-1.577-2.269-4.08-2.603-6.203c3.782,1.539,7.796,2.355,11.72,1.124
			c0.721-0.228,1.407-0.557,2.031-0.972C234.339,180.91,223.606,179.409,214.609,179.409z"/>
		<path d="M214.102,170.218c-0.259,1.135,0.015,3.499-0.816,3.803c-1.817,0.665-7.253-1.317-9.036-2.4
			c-0.118,2.186,1.649,4.302,3.813,4.782c-1.938,1.158-4.223,1.546-6.543,1.508c-2.354-0.038-4.543-0.813-6.842-1.341
			c-0.044,3.252,5.008,5.028,7.551,4.998c-3.62,2.295-9.348,3.403-12.908,2.007c5.156,5.319,13.61,4.574,17.6-0.223
			c-3.989,3.306-4.953,9.186-11.279,10.6c2.832,1.028,6.387,0.472,9.018-0.815c3.164-1.549,5.195-2.881,7.048-5.426
			c1.755,4.476,4.212,6.317,8.337,8.249c-0.789-2.545,1.229-6.758-0.176-9.916c0.688,0.763,1.931,3.423,5.178,6.23
			c1.921,1.662,6.931,3.598,9.652,1.667c-2.16-0.156-4.739-1.316-6.581-4.651c-1.649-2.985-1.58-3.772-2.544-4.825
			c2.544,2.368,4.57,3.191,8.09,3.51c2.727,0.247,5.369-1.366,7.305-3.104c-4.33,1.175-7.756-0.07-11.463-2.506
			c2.203,1.613,7.652-2.514,7.822-4.856c-1.562,1.734-5.84,2.098-8.07,1.954c-2.371-0.153-3.286-0.958-5.241-1.815
			c2.11-0.728,4.526-2.718,4.941-5.09c-2.548,2.221-7.717,2.657-11.106,1.903c-1.58-0.352-1.317-2.634-1.756-4.3
			c-0.157-0.598,0.012-1.055-0.99-1.057C214.252,169.101,214.042,169.469,214.102,170.218"/>
		<path d="M207.996,176.417c0.378-0.108,2.432-1.647,5.072-2.342c-1.99,0.463-7.099-1.412-8.818-2.455
			C204.152,173.438,205.131,175.634,207.996,176.417z"/>
		<path d="M194.808,177.452c0.738,2.568,4.647,4.072,7.377,4.154c1.584-0.597,2.905-1.365,4.359-2.254
			C202.541,179.891,198.404,179.281,194.808,177.452z"/>
		<path d="M205.402,184.875c0.863-1.108,1.92-2.658,2.674-3.621c-2.255,1.281-5.133,3.378-8.26,3.798
			c-3.672,0.495-6.615,0.222-9.795-0.821C194.32,188.021,200.375,188.551,205.402,184.875z"/>
		<path d="M211.573,183.645c-2.667,4.171-6.206,7.924-10.216,10.584c1.174-0.229,2.305-0.605,3.301-1.093
			c3.137-1.536,5.16-2.862,7-5.365C211.535,187.074,211.349,185.654,211.573,183.645z"/>
		<path d="M221.808,176.154c0.931,0.322,1.738,0.872,2.588,1.35c2.009-0.822,4.169-2.716,4.559-4.946
			c-2.548,2.221-7.717,2.657-11.106,1.903c-0.107-0.024-0.199-0.069-0.29-0.112C218.37,175.508,220.665,175.756,221.808,176.154z"/>
		<path d="M229.88,181.642c0.8,0.278,1.602,0.536,2.406,0.767c2.174-0.805,4.574-2.982,4.973-4.575
			c-2.116,2.342-4.832,3.604-7.92,3.62C229.519,181.516,229.7,181.579,229.88,181.642z"/>
		<path d="M228.591,186.351c0.146,0.17,0.293,0.349,0.441,0.53c1.324,0.605,2.766,0.923,4.629,1.093
			c2.109,0.191,4.168-0.732,5.889-1.965c-3.445,0.272-6.971-0.502-10.389-1.761c-1.162-0.429-2.332-0.857-3.498-1.305
			C226.661,184.055,227.62,185.206,228.591,186.351z"/>
		<path d="M217.859,181.788c-0.393-0.714-0.838-1.412-1.234-2.13c-0.175-0.16-0.354-0.313-0.537-0.461
			c-0.346,2.188-0.508,4.399-0.227,6.672c0.328,2.625,1.584,6.609,3.994,8.455c0.033-1.725,0.568-3.805,0.52-5.767
			C219.625,186.282,218.996,183.852,217.859,181.788z"/>
		<path d="M232.103,193.91c-0.941-0.397-1.862-0.848-2.742-1.435c-1.721-1.147-3.088-2.771-4.484-4.272
			c-0.936-1.008-1.875-2.021-2.839-3.007c0.323,0.941,0.644,1.884,0.985,2.819c0.471,1.293,0.973,2.575,1.537,3.824
			c0.158,0.145,0.316,0.288,0.484,0.434c1.598,1.383,5.33,2.945,8.107,2.324C232.79,194.389,232.443,194.16,232.103,193.91z"/>
		<path fill="none" stroke="#000000" stroke-width="0.6755" stroke-linecap="round" stroke-miterlimit="10" d="M206.66,213.148
			c1.014,0.76,2.28,0.929,3.463,0.422c1.845-0.791,2.533-2.871,2.196-4.813"/>
		<path fill="none" stroke="#000000" stroke-width="0.6755" stroke-linecap="round" stroke-miterlimit="10" d="M196.611,211.205
			c1.014,0.76,2.281,0.93,3.463,0.422c1.846-0.791,2.533-2.871,2.196-4.813"/>
		<path fill="none" stroke="#000000" stroke-width="0.6755" stroke-linecap="round" stroke-miterlimit="10" d="M201.002,221.338
			c1.016,0.761,2.281,0.93,3.463,0.423c1.846-0.791,2.533-2.871,2.195-4.813"/>
		<path fill="none" stroke="#000000" stroke-width="0.6755" stroke-linecap="round" stroke-miterlimit="10" d="M201.677,203.267
			c1.014,0.761,2.281,0.931,3.463,0.423c1.846-0.791,2.533-2.871,2.195-4.813"/>
		<path fill="none" stroke="#000000" stroke-width="0.6755" stroke-linecap="round" stroke-miterlimit="10" d="M213.247,203.775
			c1.013,0.761,2.28,0.929,3.462,0.423c1.846-0.792,2.533-2.872,2.196-4.813"/>
		<path fill="none" stroke="#000000" stroke-width="0.6755" stroke-linecap="round" stroke-miterlimit="10" d="M212.826,222.436
			c1.012,0.761,2.279,0.929,3.461,0.423c1.846-0.792,2.533-2.872,2.195-4.813"/>
		<path opacity="0.2" d="M242.271,205.975c0.107-1.086,0.16-2.113,0.187-3.112l-47.272,24.75
			c4.609,7.522,10.563,13.104,15.908,13.211C223.253,241.066,241.004,218.828,242.271,205.975z"/>
		<path d="M240.966,184.87c-4.33,1.175-7.756-0.07-11.463-2.506c2.203,1.613,7.652-2.514,7.822-4.856
			c-1.562,1.734-5.84,2.098-8.07,1.954c-2.371-0.153-3.286-0.958-5.241-1.815c2.11-0.728,4.526-2.718,4.941-5.09
			c-2.548,2.221-7.717,2.657-11.106,1.903c-1.58-0.352-1.317-2.634-1.756-4.3c-0.139-0.529-0.027-0.945-0.691-1.037
			c0.027,4.453,0.121,12.298,0.426,15.955c0.314,3.777,2.527,8.366,3.75,10.659c0.154,0.073,0.307,0.147,0.465,0.222
			c-0.789-2.545,1.229-6.758-0.176-9.916c0.688,0.763,1.931,3.423,5.178,6.23c1.921,1.662,6.931,3.598,9.652,1.667
			c-2.16-0.156-4.739-1.316-6.581-4.651c-1.649-2.985-1.58-3.772-2.544-4.825c2.544,2.368,4.57,3.191,8.09,3.51
			C236.388,188.221,239.031,186.608,240.966,184.87z"/>
		<path d="M213.219,262.158c-6.27-11.542-8.744-20.258,2.559-31.521c11.298-11.265,43.712-11.453,49.73-0.883
			c6.018,10.569-5.051,36.782-15.739,44.03C230.325,286.969,219.488,273.699,213.219,262.158z"/>
		<path d="M219.957,271.976l40.562-46.605c2.25,1.161,3.986,2.623,4.988,4.383c6.018,10.569-5.051,36.782-15.739,44.03
			C235.984,283.132,226.529,279.178,219.957,271.976z"/>
		<path d="M218.926,235.556c-1.003-1.848,3.17-1.723,3.17-1.723S219.929,237.401,218.926,235.556z"/>
		<path d="M230.14,235.72c-1.002-1.847,3.17-1.722,3.17-1.722S231.144,237.567,230.14,235.72z"/>
		<path d="M241.032,234.609c-1.006-1.848,3.17-1.724,3.17-1.724S242.034,236.454,241.032,234.609z"/>
		<path d="M252.357,236.364c-1.004-1.847,3.17-1.724,3.17-1.724S253.361,238.21,252.357,236.364z"/>
		<path d="M261.358,233.691c-1.001-1.847,3.172-1.723,3.172-1.723S262.359,235.537,261.358,233.691z"/>
		<path d="M254.447,228.203c-1.004-1.846,3.17-1.723,3.17-1.723S255.45,230.05,254.447,228.203z"/>
		<path d="M256.706,244.636c-1-1.845,3.172-1.722,3.172-1.722S257.71,246.485,256.706,244.636z"/>
		<path d="M245.877,243.643c-1.003-1.846,3.171-1.722,3.171-1.722S246.88,245.489,245.877,243.643z"/>
		<path d="M236.111,243.684c-1.004-1.847,3.168-1.723,3.168-1.723S237.111,245.529,236.111,243.684z"/>
		<path d="M225.453,243.733c-1.002-1.845,3.171-1.723,3.171-1.723S226.455,245.579,225.453,243.733z"/>
		<path d="M231.467,253.614c-1.002-1.847,3.171-1.723,3.171-1.723S232.472,255.459,231.467,253.614z"/>
		<path d="M241.746,253.323c-1.005-1.845,3.17-1.722,3.17-1.722S242.749,255.169,241.746,253.323z"/>
		<path d="M251.2,253.327c-1.002-1.847,3.172-1.724,3.172-1.724S252.204,255.174,251.2,253.327z"/>
		<path d="M245.46,262.661c-1.004-1.849,3.172-1.725,3.172-1.725S246.464,264.506,245.46,262.661z"/>
		<path d="M235.246,262.544c-1.001-1.844,3.171-1.721,3.171-1.721S236.249,264.392,235.246,262.544z"/>
		<path d="M231.366,271.597c-1.004-1.846,3.172-1.723,3.172-1.723S232.37,273.446,231.366,271.597z"/>
		<path d="M236.146,277.179c-1.004-1.848,3.17-1.726,3.17-1.726S237.148,279.026,236.146,277.179z"/>
		<path d="M240.023,270.353c-1.002-1.846,3.172-1.722,3.172-1.722S241.027,272.2,240.023,270.353z"/>
		<path d="M248.43,270.219c-1.005-1.849,3.169-1.722,3.169-1.722S249.432,272.064,248.43,270.219z"/>
		<path d="M255.281,261.445c-1.006-1.846,3.17-1.723,3.17-1.723S256.282,263.292,255.281,261.445z"/>
		<path d="M259.894,252.234c-1.004-1.848,3.172-1.723,3.172-1.723S260.896,254.081,259.894,252.234z"/>
		<path d="M245.894,227.273c-1.003-1.845,3.17-1.723,3.17-1.723S246.896,229.119,245.894,227.273z"/>
		<path d="M236.54,226.746c-1.002-1.846,3.172-1.722,3.172-1.722S237.542,228.591,236.54,226.746z"/>
		<path d="M225.619,228.636c-1.002-1.846,3.17-1.723,3.17-1.723S226.622,230.482,225.619,228.636z"/>
		<path d="M222.865,252.718c-1.004-1.847,3.169-1.724,3.169-1.724S223.867,254.561,222.865,252.718z"/>
		<path d="M214.945,243.391c-1.002-1.847,3.172-1.722,3.172-1.722S215.947,245.239,214.945,243.391z"/>
		<path fill="none" stroke="#000000" stroke-width="0.6755" stroke-linecap="round" stroke-miterlimit="10" d="M239.072,239.069
			c1.149,0.527,1.904,1.562,2.021,2.841c0.188,1.999-1.311,3.596-3.18,4.229"/>
		<path fill="none" stroke="#000000" stroke-width="0.6755" stroke-linecap="round" stroke-miterlimit="10" d="M232.568,231.168
			c1.152,0.527,1.904,1.559,2.023,2.839c0.186,2-1.314,3.597-3.182,4.228"/>
		<path fill="none" stroke="#000000" stroke-width="0.6755" stroke-linecap="round" stroke-miterlimit="10" d="M243.568,230.188
			c1.152,0.528,1.904,1.56,2.022,2.842c0.187,1.998-1.313,3.596-3.179,4.227"/>
		<path fill="none" stroke="#000000" stroke-width="0.6755" stroke-linecap="round" stroke-miterlimit="10" d="M228.01,239.408
			c1.153,0.527,1.905,1.56,2.023,2.841c0.187,1.997-1.313,3.597-3.181,4.227"/>
		<path fill="none" stroke="#000000" stroke-width="0.6755" stroke-linecap="round" stroke-miterlimit="10" d="M233.978,249.332
			c1.152,0.527,1.904,1.56,2.024,2.839c0.187,2.001-1.315,3.597-3.181,4.228"/>
		<path fill="none" stroke="#000000" stroke-width="0.6755" stroke-linecap="round" stroke-miterlimit="10" d="M250.175,240.052
			c1.15,0.527,1.904,1.56,2.024,2.84c0.186,2.001-1.315,3.596-3.181,4.227"/>
		<path opacity="0.2" d="M249.768,273.785c-0.905,0.612-1.782,1.149-2.647,1.649l-0.816-53.355
			c8.813,0.462,16.559,3.028,19.203,7.675C271.525,240.324,260.456,266.537,249.768,273.785z"/>
		<path opacity="0.3" d="M213.795,263.791c-5.584-8.761-8.668-15.93-4.521-24.493c0.365,0.271,0.726,0.566,1.069,0.914
			c3.043,3.07,4.727,6.949,4.654,11.202l2.992-1.906c2.141-0.439,4.463-4.916,5.221-6.809c1.316,2.41,0.67,8.025-0.467,10.541
			c1.834,0.734,3.701,0.753,5.538,1.659c1.524,0.753,2.646,1.918,3.978,2.852c-2.273,0.517-4.512,1.389-6.482,2.631
			c2.611,1.889,7.416,3.082,8.889,6.366c-2.236-0.572-4.659,0.278-6.629,1.139c3.33,2.363,6.178,5.31,7.248,9.281
			c0.193,0.729,0.285,1.484,0.271,2.232C225.665,279.626,218.633,271.38,213.795,263.791z"/>
		<path d="M205.773,268.304c0.817-0.827,2.959-1.869,2.77-2.733c-0.418-1.89-5.012-5.406-6.882-6.328
			c1.778-1.275,4.515-0.922,6.081,0.643c-0.064-2.256-0.965-4.389-2.244-6.325c-1.3-1.967-3.127-3.394-4.809-5.051
			c2.721-1.785,6.932,1.521,8.274,3.683c-0.012-4.288-2.155-9.714-5.245-11.965c7.257,1.491,11.172,9.019,9.271,14.96
			c0.644-5.139,5.083-9.112,2.879-15.206c2.388,1.835,3.829,5.133,4.156,8.042c0.395,3.499,0.364,5.931-0.788,8.859
			c4.719-0.926,7.593,0.157,11.436,2.6c-2.569,0.7-5.038,4.665-8.455,5.179c1.014,0.172,3.924-0.212,8.036,1.019
			c2.436,0.727,6.76,3.912,6.594,7.244c-1.293-1.738-3.658-3.29-7.461-3.051c-3.4,0.213-4.031,0.696-5.433,0.447
			c3.363,0.871,5.144,2.14,7.304,4.938c1.676,2.167,1.732,5.262,1.309,7.828c-1.334-4.285-4.227-6.503-8.273-8.321
			c2.544,0.992,1.992,7.805,0.107,9.208c0.627-2.251-1.367-6.056-2.688-7.856c-1.404-1.917-2.574-2.257-4.349-3.445
			c0.522,2.172,0.142,5.279-1.634,6.902c0.503-3.34-1.908-7.935-4.367-10.39c-1.145-1.143-2.928,0.306-4.568,0.831
			c-0.588,0.188-0.883,0.577-1.424-0.268C204.912,269.031,205.109,268.658,205.773,268.304"/>
		<path d="M207.72,259.821c0.11,0.379-0.084,2.938,0.749,5.539c-0.68-1.928-5.005-5.229-6.809-6.117
			C203.14,258.183,205.519,257.828,207.72,259.821z"/>
		<path d="M201.504,248.144c2.563-0.755,5.932,1.731,7.469,3.99c0.347,1.656,0.41,3.183,0.443,4.887
			C207.719,253.357,204.978,250.194,201.504,248.144z"/>
		<path d="M213.457,253.089c-0.471,1.325-1.206,3.051-1.615,4.201c-0.131-2.589,0.09-6.144-1.236-9.006
			c-1.556-3.362-3.369-5.697-5.957-7.818C210.154,242.053,213.855,246.876,213.457,253.089z"/>
		<path d="M215.736,258.957c2.084-4.491,3.346-9.492,3.434-14.305c0.438,1.112,0.73,2.269,0.854,3.371
			c0.392,3.471,0.36,5.891-0.763,8.787C218.608,257.081,217.31,257.688,215.736,258.957z"/>
		<path d="M214.921,271.615c0.772,0.608,1.667,0.995,2.527,1.455c0.388,2.138-0.048,4.977-1.718,6.503
			c0.503-3.34-1.908-7.935-4.367-10.39c-0.078-0.078-0.164-0.129-0.248-0.184C212.527,269.058,213.97,270.861,214.921,271.615z"/>
		<path d="M223.886,275.469c0.665,0.527,1.313,1.064,1.939,1.618c0.49,2.267-0.055,5.461-1.183,6.653
			c0.836-3.044,0.439-6.013-1.205-8.624C223.586,275.236,223.738,275.355,223.886,275.469z"/>
		<path d="M227.165,271.853c0.221,0.032,0.449,0.06,0.683,0.088c1.224,0.789,2.266,1.836,3.409,3.316
			c1.297,1.677,1.624,3.907,1.51,6.02c-1.623-3.052-4.17-5.607-7.07-7.813c-0.983-0.75-1.974-1.505-2.978-2.25
			C224.193,271.46,225.679,271.651,227.165,271.853z"/>
		<path d="M217.551,265.256c-0.814,0.053-1.644,0.053-2.461,0.102c-0.229-0.062-0.454-0.127-0.676-0.203
			c1.659-1.47,3.436-2.794,5.503-3.777c2.391-1.135,6.424-2.216,9.276-1.176c-1.436,0.954-2.902,2.523-4.582,3.538
			C222.289,264.328,219.902,265.103,217.551,265.256z"/>
		<path d="M235.427,270.752c-0.842-0.579-1.717-1.115-2.684-1.542c-1.895-0.833-3.996-1.114-6.014-1.484
			c-1.351-0.247-2.708-0.497-4.06-0.778c0.966-0.232,1.934-0.472,2.904-0.684c1.346-0.3,2.697-0.563,4.053-0.762
			c0.207,0.058,0.412,0.113,0.627,0.178c2.026,0.604,5.35,2.912,6.317,5.588C236.2,271.075,235.819,270.904,235.427,270.752z"/>
		<path d="M232.566,283.086c-1.334-4.285-4.227-6.503-8.273-8.321c2.544,0.992,1.992,7.805,0.107,9.208
			c0.627-2.251-1.367-6.056-2.688-7.856c-1.404-1.917-2.574-2.257-4.349-3.445c0.522,2.172,0.142,5.279-1.634,6.902
			c0.503-3.34-1.908-7.935-4.367-10.39c-1.145-1.143-2.928,0.306-4.568,0.831c-0.521,0.169-0.811,0.486-1.246-0.025
			c3.771-2.368,10.436-6.507,13.684-8.215c3.354-1.765,8.412-2.365,11.003-2.565c0.146,0.089,0.289,0.178,0.437,0.273
			c-2.569,0.7-5.038,4.665-8.455,5.179c1.014,0.172,3.924-0.212,8.036,1.019c2.436,0.727,6.76,3.912,6.594,7.244
			c-1.293-1.738-3.658-3.29-7.461-3.051c-3.4,0.213-4.031,0.696-5.433,0.447c3.363,0.871,5.144,2.14,7.304,4.938
			C232.933,277.425,232.99,280.519,232.566,283.086z"/>
	</g>
	<g>
		<g>
			<g>
				<path fill="#BC321E" d="M198.76,202.91c-6.809-11.231-13.09-17.76-28.514-13.678c-15.424,4.084-31.924,31.985-25.824,42.51
					c6.094,10.524,34.313,14.174,45.961,8.595C211.569,230.19,205.569,214.141,198.76,202.91z"/>
				<path fill="#A0251C" d="M203.845,213.677l-60.697,11.547c-0.131,2.527,0.255,4.765,1.274,6.518
					c6.094,10.524,34.313,14.174,45.961,8.595C205.403,233.143,206.752,222.984,203.845,213.677z"/>
				<g>
					<path fill="#EBA10B" d="M172.908,194.432c-1.092-1.797-3.085,1.87-3.085,1.87S173.995,196.228,172.908,194.432z"/>
					<path fill="#EBA10B" d="M167.399,204.202c-1.09-1.797-3.085,1.869-3.085,1.869S168.486,206,167.399,204.202z"/>
					<path fill="#EBA10B" d="M160.948,213.048c-1.088-1.796-3.086,1.872-3.086,1.872S162.035,214.844,160.948,213.048z"/>
					<path fill="#E47B00" d="M156.758,223.716c-1.091-1.798-3.086,1.869-3.086,1.869S157.845,225.51,156.758,223.716z"/>
					<path fill="#E47B00" d="M149.912,230.142c-1.089-1.796-3.086,1.869-3.086,1.869S151,231.937,149.912,230.142z"/>
					<path fill="#EBA10B" d="M148.655,221.407c-1.088-1.797-3.085,1.869-3.085,1.869S149.744,223.205,148.655,221.407z"/>
					<path fill="#E47B00" d="M161.709,231.641c-1.088-1.796-3.085,1.871-3.085,1.871S162.801,233.439,161.709,231.641z"/>
					<path fill="#E47B00" d="M166.31,221.786c-1.089-1.795-3.085,1.871-3.085,1.871S167.399,223.584,166.31,221.786z"/>
					<path fill="#EBA10B" d="M171.269,213.371c-1.089-1.798-3.085,1.869-3.085,1.869S172.356,215.165,171.269,213.371z"/>
					<path fill="#EBA10B" d="M176.681,204.19c-1.089-1.795-3.085,1.87-3.085,1.87S177.77,205.988,176.681,204.19z"/>
					<path fill="#EBA10B" d="M182.184,214.365c-1.09-1.796-3.085,1.871-3.085,1.871S183.27,216.162,182.184,214.365z"/>
					<path fill="#E47B00" d="M176.754,223.097c-1.09-1.796-3.086,1.87-3.086,1.87S177.842,224.894,176.754,223.097z"/>
					<path fill="#E47B00" d="M171.99,231.263c-1.09-1.793-3.088,1.872-3.088,1.872S173.079,233.063,171.99,231.263z"/>
					<path fill="#E47B00" d="M182.946,231.012c-1.092-1.799-3.088,1.87-3.088,1.87S184.031,232.809,182.946,231.012z"/>
					<path fill="#E47B00" d="M187.992,222.13c-1.09-1.794-3.088,1.872-3.088,1.872S189.082,223.928,187.992,222.13z"/>
					<path fill="#E47B00" d="M197.769,223.343c-1.091-1.797-3.087,1.87-3.087,1.87S198.856,225.14,197.769,223.343z"/>
					<path fill="#E47B00" d="M200.18,230.283c-1.089-1.798-3.087,1.869-3.087,1.869S201.268,232.08,200.18,230.283z"/>
					<path fill="#E47B00" d="M192.33,230.192c-1.09-1.797-3.088,1.872-3.088,1.872S193.42,231.989,192.33,230.192z"/>
					<path fill="#E47B00" d="M187.975,237.385c-1.09-1.8-3.083,1.869-3.083,1.869S189.065,239.179,187.975,237.385z"/>
					<path fill="#E47B00" d="M176.946,238.879c-1.087-1.796-3.084,1.872-3.084,1.872S178.037,240.676,176.946,238.879z"/>
					<path fill="#E47B00" d="M166.665,238.222c-1.089-1.798-3.085,1.871-3.085,1.871S167.754,240.019,166.665,238.222z"/>
					<path fill="#EBA10B" d="M152.162,213.552c-1.089-1.798-3.085,1.869-3.085,1.869S153.252,215.346,152.162,213.552z"/>
					<path fill="#EBA10B" d="M156.42,205.207c-1.089-1.797-3.086,1.87-3.086,1.87S157.508,207.003,156.42,205.207z"/>
					<path fill="#EBA10B" d="M163.557,196.725c-1.09-1.797-3.086,1.872-3.086,1.872S164.647,198.523,163.557,196.725z"/>
					<path fill="#EBA10B" d="M185.745,206.482c-1.091-1.797-3.087,1.87-3.087,1.87S186.834,208.279,185.745,206.482z"/>
					<path fill="#EBA10B" d="M181.682,194.944c-1.09-1.798-3.086,1.87-3.086,1.87S182.77,196.74,181.682,194.944z"/>
				</g>
				<g opacity="0.3">
					<path fill="none" stroke="#FFFFFF" stroke-width="0.6755" stroke-linecap="round" stroke-miterlimit="10" d="M165.789,213.603
						c-0.123,1.259,0.389,2.432,1.434,3.177c1.635,1.169,3.768,0.681,5.256-0.614"/>
					<path fill="none" stroke="#FFFFFF" stroke-width="0.6755" stroke-linecap="round" stroke-miterlimit="10" d="M162.242,204.005
						c-0.127,1.259,0.385,2.429,1.432,3.178c1.635,1.169,3.77,0.678,5.254-0.617"/>
					<path fill="none" stroke="#FFFFFF" stroke-width="0.6755" stroke-linecap="round" stroke-miterlimit="10" d="M155.852,213.01
						c-0.123,1.264,0.387,2.433,1.434,3.182c1.633,1.167,3.77,0.678,5.255-0.618"/>
					<path fill="none" stroke="#FFFFFF" stroke-width="0.6755" stroke-linecap="round" stroke-miterlimit="10" d="M171.656,204.22
						c-0.125,1.261,0.387,2.432,1.434,3.18c1.631,1.168,3.768,0.678,5.253-0.616"/>
					<path fill="none" stroke="#FFFFFF" stroke-width="0.6755" stroke-linecap="round" stroke-miterlimit="10" d="M177.219,214.376
						c-0.127,1.264,0.389,2.431,1.432,3.181c1.635,1.167,3.771,0.676,5.256-0.617"/>
					<path fill="none" stroke="#FFFFFF" stroke-width="0.6755" stroke-linecap="round" stroke-miterlimit="10" d="M161.043,223.689
						c-0.127,1.26,0.389,2.431,1.433,3.181c1.634,1.168,3.768,0.675,5.253-0.618"/>
				</g>
				<path opacity="0.2" d="M190.383,240.337c0.984-0.471,1.891-0.958,2.76-1.454l-45.674-27.595
					c-4.043,7.843-5.729,15.827-3.047,20.454C150.516,242.266,178.735,245.916,190.383,240.337z"/>
			</g>
			<path opacity="0.2" d="M198.76,202.91c-4.774-7.877-9.295-13.436-16.889-14.647c-1.479,2.24-2.734,5.034-3.762,8.527
				c-3.688,12.527,5.896,33.938,16.166,41.434C210.758,228.062,205.113,213.389,198.76,202.91z"/>
			<g>
				<path fill="#BC321E" d="M290.723,181.043c-9.879-8.655-17.84-12.985-31.313-4.437c-13.473,8.546-20.785,40.126-11.797,48.318
					c8.988,8.194,36.993,3.162,46.416-5.672C311.164,203.187,300.602,189.696,290.723,181.043z"/>
				<path fill="#A0251C" d="M298.819,189.775l-54.385,29.322c0.641,2.448,1.683,4.463,3.18,5.827
					c8.988,8.194,36.993,3.162,46.416-5.672C306.178,207.863,304.401,197.771,298.819,189.775z"/>
				<g>
					<path fill="#EBA10B" d="M263.518,180.76c-1.582-1.385-2.379,2.715-2.379,2.715S265.098,182.143,263.518,180.76z"/>
					<path fill="#EBA10B" d="M261.211,191.735c-1.58-1.384-2.377,2.715-2.377,2.715S262.791,193.12,261.211,191.735z"/>
					<path fill="#EBA10B" d="M257.731,202.117c-1.58-1.385-2.378,2.715-2.378,2.715S259.312,203.502,257.731,202.117z"/>
					<path fill="#E47B00" d="M256.953,213.55c-1.578-1.385-2.377,2.715-2.377,2.715S258.535,214.933,256.953,213.55z"/>
					<path fill="#E47B00" d="M252.367,221.745c-1.58-1.385-2.377,2.714-2.377,2.714S253.947,223.128,252.367,221.745z"/>
					<path fill="#EBA10B" d="M248.533,213.796c-1.582-1.385-2.379,2.714-2.379,2.714S250.115,215.178,248.533,213.796z"/>
					<path fill="#E47B00" d="M264.071,219.614c-1.584-1.385-2.379,2.715-2.379,2.715S265.649,220.998,264.071,219.614z"/>
					<path fill="#E47B00" d="M265.481,208.831c-1.582-1.384-2.379,2.715-2.379,2.715S267.061,210.217,265.481,208.831z"/>
					<path fill="#EBA10B" d="M267.67,199.309c-1.582-1.384-2.38,2.715-2.38,2.715S269.247,200.694,267.67,199.309z"/>
					<path fill="#EBA10B" d="M270.059,188.926c-1.581-1.384-2.379,2.714-2.379,2.714S271.639,190.309,270.059,188.926z"/>
					<path fill="#EBA10B" d="M278.375,196.966c-1.582-1.385-2.379,2.714-2.379,2.714S279.955,198.35,278.375,196.966z"/>
					<path fill="#E47B00" d="M275.831,206.928c-1.581-1.385-2.377,2.716-2.377,2.716S277.411,208.313,275.831,206.928z"/>
					<path fill="#E47B00" d="M273.756,216.153c-1.58-1.385-2.379,2.715-2.379,2.715S275.336,217.538,273.756,216.153z"/>
					<path fill="#E47B00" d="M284.121,212.606c-1.58-1.385-2.376,2.715-2.376,2.715S285.702,213.99,284.121,212.606z"/>
					<path fill="#E47B00" d="M286.256,202.617c-1.58-1.384-2.376,2.714-2.376,2.714S287.838,204.002,286.256,202.617z"/>
					<path fill="#E47B00" d="M295.942,200.822c-1.58-1.383-2.378,2.715-2.378,2.715S297.522,202.208,295.942,200.822z"/>
					<path fill="#E47B00" d="M300.334,206.711c-1.58-1.384-2.377,2.715-2.377,2.715S301.916,208.096,300.334,206.711z"/>
					<path fill="#E47B00" d="M292.823,208.993c-1.58-1.383-2.377,2.716-2.377,2.716S294.403,210.378,292.823,208.993z"/>
					<path fill="#E47B00" d="M290.843,217.163c-1.581-1.385-2.378,2.715-2.378,2.715S292.422,218.547,290.843,217.163z"/>
					<path fill="#E47B00" d="M280.778,221.916c-1.58-1.383-2.377,2.716-2.377,2.716S282.36,223.302,280.778,221.916z"/>
					<path fill="#E47B00" d="M270.778,224.393c-1.581-1.386-2.378,2.715-2.378,2.715S272.359,225.776,270.778,224.393z"/>
					<path fill="#EBA10B" d="M249.507,205.247c-1.58-1.385-2.377,2.714-2.377,2.714S251.088,206.631,249.507,205.247z"/>
					<path fill="#EBA10B" d="M251.049,196.007c-1.58-1.385-2.377,2.715-2.377,2.715S252.629,197.39,251.049,196.007z"/>
					<path fill="#EBA10B" d="M255.295,185.768c-1.58-1.385-2.379,2.715-2.379,2.715S256.875,187.152,255.295,185.768z"/>
					<path fill="#EBA10B" d="M279.392,188.376c-1.582-1.385-2.379,2.715-2.379,2.715S280.971,189.759,279.392,188.376z"/>
					<path fill="#EBA10B" d="M272.035,178.6c-1.58-1.384-2.377,2.715-2.377,2.715S273.616,179.985,272.035,178.6z"/>
				</g>
				<path opacity="0.3" d="M290.723,181.043c-7.816-6.847-14.434-10.98-23.527-8.178c0.211,0.403,0.45,0.803,0.742,1.196
					c2.574,3.473,6.154,5.725,10.369,6.296l-2.336,2.668c-0.76,2.051-5.537,3.666-7.521,4.13c2.182,1.667,7.828,1.878,10.488,1.135
					c0.447,1.926,0.184,3.771,0.803,5.726c0.514,1.622,1.496,2.904,2.218,4.365c0.854-2.169,2.056-4.253,3.581-6.013
					c1.471,2.869,1.926,7.798,4.947,9.753c-0.229-2.298,0.98-4.563,2.131-6.383c1.828,3.651,4.311,6.91,8.074,8.568
					c0.69,0.305,1.426,0.509,2.168,0.608C304.578,195.171,297.492,186.97,290.723,181.043z"/>
				<path fill="#808B22" d="M296.399,173.794c-0.943,0.685-2.295,2.643-3.12,2.323c-1.804-0.697-4.589-5.77-5.216-7.759
					c-1.529,1.565-1.594,4.323-0.284,6.109c-2.22-0.405-4.194-1.62-5.912-3.176c-1.747-1.582-2.884-3.605-4.265-5.517
					c-2.177,2.416,0.453,7.081,2.387,8.733c-4.234-0.659-9.273-3.6-11.033-6.996c0.375,7.399,7.225,12.41,13.387,11.431
					c-5.18-0.143-9.78,3.644-15.468,0.542c1.452,2.639,4.493,4.562,7.32,5.327c3.399,0.919,5.807,1.257,8.876,0.563
					c-1.629,4.522-0.994,7.528,0.836,11.698c1.082-2.436,5.377-4.274,6.4-7.575c0.016,1.026-0.801,3.847-0.209,8.098
					c0.352,2.518,2.844,7.273,6.162,7.614c-1.521-1.541-2.697-4.113-1.886-7.836c0.726-3.332,1.298-3.877,1.265-5.307
					c0.354,3.459,1.336,5.414,3.773,7.972c1.889,1.982,4.939,2.51,7.543,2.478c-4.033-1.969-5.79-5.163-6.977-9.438
					c0.596,2.665,7.416,3.151,9.086,1.501c-2.318,0.277-5.775-2.271-7.357-3.848c-1.684-1.677-1.841-2.885-2.748-4.818
					c2.068,0.844,5.197,0.938,7.07-0.572c-3.377-0.009-7.555-3.087-9.607-5.888c-0.958-1.305,0.744-2.848,1.514-4.391
					c0.274-0.553,0.701-0.785-0.051-1.447C297.246,173.052,296.848,173.191,296.399,173.794"/>
				<g>
					<path fill="#68791B" d="M287.721,174.434c0.355,0.168,2.916,0.363,5.359,1.582c-1.803-0.966-4.412-5.74-5.018-7.658
						C286.792,169.659,286.082,171.958,287.721,174.434z"/>
					<path fill="#68791B" d="M277.117,166.525c-1.135,2.419,0.813,6.125,2.813,7.983c1.585,0.596,3.085,0.889,4.764,1.178
						C281.327,173.454,278.617,170.268,277.117,166.525z"/>
					<path fill="#68791B" d="M280.196,179.088c1.379-0.264,3.196-0.733,4.399-0.961c-2.542-0.522-6.089-0.842-8.718-2.586
						c-3.087-2.048-5.121-4.192-6.826-7.071C269.785,174.153,273.993,178.541,280.196,179.088z"/>
					<path fill="#68791B" d="M285.651,182.23c-4.756,1.378-9.89,1.869-14.659,1.229c1.032,0.6,2.132,1.063,3.203,1.354
						c3.37,0.912,5.767,1.247,8.8,0.576C283.361,184.783,284.157,183.592,285.651,182.23z"/>
					<path fill="#808B22" d="M298.286,183.337c0.485,0.856,0.731,1.801,1.056,2.719c2.055,0.708,4.926,0.706,6.688-0.714
						c-3.377-0.009-7.555-3.087-9.607-5.888c-0.066-0.091-0.104-0.184-0.146-0.274C296.123,180.585,297.686,182.285,298.286,183.337
						z"/>
					<path fill="#68791B" d="M300.74,192.783c0.42,0.738,0.854,1.459,1.305,2.163c2.166,0.827,5.408,0.771,6.756-0.164
						c-3.135,0.367-6.012-0.475-8.342-2.495C300.551,192.452,300.648,192.62,300.74,192.783z"/>
					<path fill="#68791B" d="M296.67,195.478c-0.005,0.223-0.014,0.454-0.02,0.688c0.599,1.328,1.473,2.517,2.762,3.872
						c1.461,1.534,3.619,2.195,5.725,2.401c-2.77-2.066-4.914-4.97-6.654-8.169c-0.592-1.086-1.189-2.18-1.772-3.286
						C296.731,192.478,296.694,193.977,296.67,195.478z"/>
					<path fill="#68791B" d="M291.602,184.974c0.174-0.797,0.3-1.614,0.474-2.417c-0.026-0.234-0.058-0.469-0.099-0.7
						c-1.703,1.418-3.283,2.975-4.566,4.871c-1.484,2.19-3.164,6.015-2.566,8.991c1.16-1.275,2.932-2.487,4.189-3.996
						C289.969,189.518,291.096,187.274,291.602,184.974z"/>
					<path fill="#68791B" d="M294.328,203.477c-0.446-0.92-0.842-1.863-1.117-2.886c-0.539-1.996-0.498-4.12-0.557-6.169
						c-0.042-1.374-0.081-2.754-0.156-4.133c-0.377,0.922-0.758,1.843-1.115,2.771c-0.498,1.284-0.965,2.58-1.365,3.891
						c0.025,0.212,0.049,0.425,0.08,0.645c0.29,2.094,2.068,5.729,4.567,7.091C294.531,204.291,294.42,203.888,294.328,203.477z"/>
				</g>
				<g opacity="0.3">
					<path fill="none" stroke="#FFFFFF" stroke-width="0.6755" stroke-linecap="round" stroke-miterlimit="10" d="M262.515,201.184
						c0.263,1.24,1.104,2.201,2.325,2.599c1.91,0.621,3.799-0.49,4.824-2.175"/>
					<path fill="none" stroke="#FFFFFF" stroke-width="0.6755" stroke-linecap="round" stroke-miterlimit="10" d="M256.237,193.104
						c0.26,1.238,1.102,2.2,2.326,2.597c1.908,0.62,3.795-0.489,4.822-2.174"/>
					<path fill="none" stroke="#FFFFFF" stroke-width="0.6755" stroke-linecap="round" stroke-miterlimit="10" d="M252.862,203.618
						c0.262,1.239,1.104,2.201,2.326,2.6c1.91,0.62,3.799-0.49,4.823-2.174"/>
					<path fill="none" stroke="#FFFFFF" stroke-width="0.6755" stroke-linecap="round" stroke-miterlimit="10" d="M265.277,190.469
						c0.261,1.24,1.103,2.202,2.325,2.599c1.909,0.621,3.798-0.489,4.824-2.174"/>
					<path fill="none" stroke="#FFFFFF" stroke-width="0.6755" stroke-linecap="round" stroke-miterlimit="10" d="M273.645,198.474
						c0.263,1.238,1.104,2.199,2.326,2.599c1.911,0.62,3.799-0.491,4.824-2.174"/>
				</g>
				<path opacity="0.2" d="M294.03,219.253c0.795-0.746,1.512-1.484,2.189-2.218l-51.869-12.53
					c-1.487,8.697-0.688,16.818,3.264,20.42C256.602,233.119,284.607,228.087,294.03,219.253z"/>
				<path fill="#68791B" d="M306.955,202.516c-4.033-1.969-5.79-5.163-6.977-9.438c0.596,2.665,7.416,3.151,9.086,1.501
					c-2.318,0.277-5.775-2.271-7.357-3.848c-1.684-1.677-1.841-2.885-2.748-4.818c2.068,0.844,5.197,0.938,7.07-0.572
					c-3.377-0.009-7.555-3.087-9.607-5.888c-0.958-1.305,0.744-2.848,1.514-4.391c0.243-0.49,0.602-0.729,0.161-1.235
					c-2.911,3.368-8.011,9.331-10.19,12.282c-2.252,3.049-3.611,7.958-4.201,10.49c0.064,0.156,0.131,0.312,0.201,0.473
					c1.082-2.436,5.377-4.274,6.4-7.575c0.016,1.026-0.801,3.847-0.209,8.098c0.352,2.518,2.844,7.273,6.162,7.614
					c-1.521-1.541-2.697-4.113-1.886-7.836c0.726-3.332,1.298-3.877,1.265-5.307c0.354,3.459,1.336,5.414,3.773,7.972
					C301.301,202.021,304.352,202.549,306.955,202.516z"/>
			</g>
			<path opacity="0.2" d="M271.311,202.627c1.508-15.3-5.184-21.95-13.67-24.721c-12.322,10.047-18.611,39.193-10.027,47.019
				c2.074,1.892,5.17,3.07,8.809,3.669C264.096,221.022,270.563,210.198,271.311,202.627z"/>
			<g>
				<path fill="#BC321E" d="M210.836,175.636c-13.135,0-21.977,1.987-26.479,17.294c-4.504,15.307,10.804,43.879,22.963,44.121
					s29.911-21.996,31.178-34.85C240.803,178.826,223.969,175.636,210.836,175.636z"/>
				<path fill="#A0251C" d="M222.678,176.872l-21.59,57.89c2.095,1.421,4.207,2.251,6.232,2.29
					c12.159,0.242,29.911-21.996,31.178-34.85C240.131,185.63,232.147,179.209,222.678,176.872z"/>
				<g>
					<path fill="#EBA10B" d="M190.184,193.349c-2.102,0,0,3.608,0,3.608S192.283,193.349,190.184,193.349z"/>
					<path fill="#EBA10B" d="M195.682,203.126c-2.102,0,0,3.607,0,3.607S197.783,203.126,195.682,203.126z"/>
					<path fill="#EBA10B" d="M199.903,213.228c-2.102,0,0,3.608,0,3.608S202.004,213.228,199.903,213.228z"/>
					<path fill="#E47B00" d="M206.852,222.341c-2.102,0,0,3.607,0,3.607S208.951,222.341,206.852,222.341z"/>
					<path fill="#E47B00" d="M208.801,231.526c-2.102,0,0,3.609,0,3.609S210.901,231.526,208.801,231.526z"/>
					<path fill="#EBA10B" d="M200.678,228.072c-2.1,0,0,3.608,0,3.608S202.78,228.072,200.678,228.072z"/>
					<path fill="#E47B00" d="M216.198,222.214c-2.101,0,0,3.608,0,3.608S218.301,222.214,216.198,222.214z"/>
					<path fill="#E47B00" d="M210.156,213.173c-2.102,0,0,3.607,0,3.607S212.258,213.173,210.156,213.173z"/>
					<path fill="#EBA10B" d="M205.529,204.569c-2.101,0,0,3.607,0,3.607S207.629,204.569,205.529,204.569z"/>
					<path fill="#EBA10B" d="M200.485,195.182c-2.101,0,0,3.608,0,3.608S202.585,195.182,200.485,195.182z"/>
					<path fill="#EBA10B" d="M212.037,195.753c-2.1,0,0,3.606,0,3.606S214.139,195.753,212.037,195.753z"/>
					<path fill="#E47B00" d="M216.69,204.922c-2.102,0,0,3.607,0,3.607S218.79,204.922,216.69,204.922z"/>
					<path fill="#E47B00" d="M221.205,213.228c-2.101,0,0,3.608,0,3.608S223.307,213.228,221.205,213.228z"/>
					<path fill="#E47B00" d="M226.668,203.729c-2.104,0,0,3.609,0,3.609S228.768,203.729,226.668,203.729z"/>
					<path fill="#E47B00" d="M221.69,194.808c-2.1,0,0,3.609,0,3.609S223.792,194.808,221.69,194.808z"/>
					<path fill="#E47B00" d="M227.793,187.078c-2.101,0,0,3.609,0,3.609S229.895,187.078,227.793,187.078z"/>
					<path fill="#E47B00" d="M234.979,188.612c-2.1,0,0,3.609,0,3.609S237.08,188.612,234.979,188.612z"/>
					<path fill="#E47B00" d="M230.832,195.279c-2.102,0,0,3.608,0,3.608S232.933,195.279,230.832,195.279z"/>
					<path fill="#E47B00" d="M234.725,202.73c-2.102,0,0,3.607,0,3.607S236.825,202.73,234.725,202.73z"/>
					<path fill="#E47B00" d="M230.286,212.936c-2.101,0,0,3.608,0,3.608S232.387,212.936,230.286,212.936z"/>
					<path fill="#E47B00" d="M224.395,221.388c-2.102,0,0,3.608,0,3.608S226.496,221.388,224.395,221.388z"/>
					<path fill="#EBA10B" d="M195.779,221.001c-2.101,0,0,3.608,0,3.608S197.879,221.001,195.779,221.001z"/>
					<path fill="#EBA10B" d="M190.85,213.034c-2.102,0,0,3.608,0,3.608S192.951,213.034,190.85,213.034z"/>
					<path fill="#EBA10B" d="M187.298,202.534c-2.101,0,0,3.609,0,3.609S189.401,202.534,187.298,202.534z"/>
					<path fill="#EBA10B" d="M207.143,188.62c-2.102,0,0,3.607,0,3.607S209.243,188.62,207.143,188.62z"/>
					<path fill="#EBA10B" d="M195.17,186.112c-2.104,0,0,3.609,0,3.609S197.27,186.112,195.17,186.112z"/>
				</g>
				<path opacity="0.3" d="M210.836,175.636c-10.393,0-18.093,1.251-23.088,9.352c0.427,0.162,0.867,0.307,1.347,0.41
					c4.224,0.916,8.402,0.251,11.948-2.096v3.546c0.781,2.043-1.748,6.406-2.936,8.063c2.739-0.185,7.127-3.746,8.638-6.059
					c1.604,1.153,2.625,2.716,4.376,3.779c1.455,0.882,3.041,1.2,4.545,1.822c-0.789-2.194-1.256-4.553-1.268-6.883
					c2.996,1.189,6.586,4.6,10.146,4.077c-1.686-1.577-2.269-4.08-2.603-6.203c3.782,1.539,7.796,2.355,11.72,1.124
					c0.721-0.228,1.407-0.557,2.031-0.972C230.567,177.137,219.833,175.636,210.836,175.636z"/>
				<path fill="#808B22" d="M210.329,166.445c-0.259,1.135,0.015,3.499-0.816,3.803c-1.817,0.665-7.253-1.317-9.036-2.4
					c-0.118,2.186,1.649,4.302,3.813,4.782c-1.938,1.158-4.223,1.546-6.543,1.508c-2.354-0.038-4.543-0.813-6.842-1.341
					c-0.044,3.252,5.008,5.028,7.551,4.998c-3.62,2.295-9.348,3.403-12.908,2.007c5.156,5.319,13.61,4.574,17.6-0.223
					c-3.989,3.306-4.953,9.186-11.279,10.6c2.832,1.028,6.387,0.472,9.018-0.815c3.164-1.549,5.195-2.881,7.048-5.426
					c1.755,4.476,4.212,6.317,8.337,8.249c-0.789-2.545,1.229-6.758-0.176-9.916c0.688,0.763,1.931,3.423,5.178,6.23
					c1.922,1.662,6.932,3.598,9.652,1.667c-2.16-0.156-4.739-1.316-6.581-4.651c-1.649-2.985-1.58-3.772-2.544-4.825
					c2.544,2.368,4.57,3.191,8.09,3.51c2.727,0.247,5.369-1.366,7.305-3.104c-4.33,1.175-7.756-0.07-11.463-2.506
					c2.203,1.613,7.652-2.514,7.822-4.856c-1.562,1.734-5.84,2.098-8.07,1.954c-2.371-0.153-3.286-0.958-5.241-1.815
					c2.11-0.728,4.526-2.718,4.941-5.09c-2.548,2.221-7.718,2.657-11.106,1.903c-1.58-0.352-1.317-2.634-1.756-4.3
					c-0.157-0.598,0.012-1.055-0.99-1.057C210.479,165.328,210.269,165.696,210.329,166.445"/>
				<g>
					<path fill="#68791B" d="M204.223,172.644c0.378-0.108,2.432-1.647,5.072-2.342c-1.99,0.463-7.099-1.412-8.818-2.455
						C200.379,169.665,201.358,171.861,204.223,172.644z"/>
					<path fill="#68791B" d="M191.035,173.679c0.738,2.568,4.647,4.072,7.377,4.154c1.584-0.597,2.905-1.365,4.359-2.254
						C198.768,176.118,194.631,175.508,191.035,173.679z"/>
					<path fill="#68791B" d="M201.629,181.102c0.863-1.108,1.92-2.658,2.674-3.621c-2.255,1.281-5.133,3.378-8.26,3.798
						c-3.672,0.495-6.615,0.222-9.795-0.821C190.547,184.248,196.602,184.778,201.629,181.102z"/>
					<path fill="#68791B" d="M207.8,179.872c-2.667,4.171-6.206,7.924-10.216,10.584c1.174-0.229,2.305-0.605,3.301-1.093
						c3.137-1.536,5.16-2.862,7-5.365C207.762,183.302,207.576,181.881,207.8,179.872z"/>
					<path fill="#808B22" d="M218.035,172.381c0.931,0.322,1.738,0.872,2.588,1.35c2.01-0.822,4.17-2.716,4.56-4.946
						c-2.548,2.221-7.718,2.657-11.106,1.903c-0.107-0.024-0.199-0.069-0.29-0.112C214.597,171.735,216.892,171.983,218.035,172.381
						z"/>
					<path fill="#68791B" d="M226.108,177.869c0.8,0.278,1.602,0.536,2.406,0.767c2.174-0.805,4.574-2.982,4.973-4.575
						c-2.116,2.342-4.832,3.604-7.92,3.62C225.746,177.743,225.928,177.806,226.108,177.869z"/>
					<path fill="#68791B" d="M224.819,182.578c0.146,0.17,0.293,0.349,0.441,0.53c1.324,0.605,2.766,0.923,4.629,1.093
						c2.109,0.191,4.168-0.732,5.889-1.965c-3.445,0.272-6.971-0.502-10.389-1.761c-1.162-0.429-2.332-0.857-3.498-1.305
						C222.889,180.282,223.848,181.433,224.819,182.578z"/>
					<path fill="#68791B" d="M214.086,178.015c-0.393-0.714-0.838-1.412-1.234-2.13c-0.175-0.16-0.354-0.313-0.537-0.461
						c-0.346,2.188-0.508,4.399-0.227,6.672c0.328,2.625,1.584,6.609,3.994,8.455c0.033-1.725,0.568-3.805,0.52-5.767
						C215.852,182.51,215.223,180.079,214.086,178.015z"/>
					<path fill="#68791B" d="M228.33,190.137c-0.941-0.397-1.862-0.848-2.742-1.435c-1.721-1.147-3.088-2.771-4.484-4.272
						c-0.936-1.008-1.875-2.021-2.839-3.007c0.323,0.941,0.644,1.884,0.985,2.819c0.471,1.293,0.973,2.575,1.537,3.824
						c0.158,0.145,0.316,0.288,0.484,0.434c1.599,1.383,5.33,2.945,8.107,2.324C229.018,190.616,228.67,190.387,228.33,190.137z"/>
				</g>
				<g opacity="0.3">
					<path fill="none" stroke="#FFFFFF" stroke-width="0.6755" stroke-linecap="round" stroke-miterlimit="10" d="M202.887,209.375
						c1.014,0.76,2.28,0.929,3.463,0.422c1.845-0.791,2.533-2.871,2.196-4.813"/>
					<path fill="none" stroke="#FFFFFF" stroke-width="0.6755" stroke-linecap="round" stroke-miterlimit="10" d="M192.838,207.432
						c1.014,0.76,2.281,0.93,3.463,0.422c1.846-0.791,2.533-2.871,2.196-4.813"/>
					<path fill="none" stroke="#FFFFFF" stroke-width="0.6755" stroke-linecap="round" stroke-miterlimit="10" d="M197.229,217.565
						c1.016,0.761,2.281,0.93,3.463,0.423c1.846-0.791,2.533-2.871,2.195-4.813"/>
					<path fill="none" stroke="#FFFFFF" stroke-width="0.6755" stroke-linecap="round" stroke-miterlimit="10" d="M197.905,199.494
						c1.014,0.761,2.281,0.931,3.463,0.423c1.846-0.791,2.533-2.871,2.195-4.813"/>
					<path fill="none" stroke="#FFFFFF" stroke-width="0.6755" stroke-linecap="round" stroke-miterlimit="10" d="M209.474,200.002
						c1.013,0.761,2.28,0.929,3.462,0.423c1.846-0.792,2.533-2.872,2.196-4.813"/>
					<path fill="none" stroke="#FFFFFF" stroke-width="0.6755" stroke-linecap="round" stroke-miterlimit="10" d="M209.053,218.663
						c1.012,0.761,2.279,0.929,3.461,0.423c1.846-0.792,2.533-2.872,2.195-4.813"/>
				</g>
				<path opacity="0.2" d="M238.498,202.202c0.107-1.086,0.16-2.113,0.187-3.112l-47.272,24.751
					c4.609,7.522,10.563,13.104,15.908,13.211C219.48,237.294,237.232,215.055,238.498,202.202z"/>
				<path fill="#68791B" d="M237.194,181.097c-4.33,1.175-7.756-0.07-11.463-2.506c2.203,1.613,7.652-2.514,7.822-4.856
					c-1.562,1.734-5.84,2.098-8.07,1.954c-2.371-0.153-3.286-0.958-5.241-1.815c2.11-0.728,4.526-2.718,4.941-5.09
					c-2.548,2.221-7.718,2.657-11.106,1.903c-1.58-0.352-1.317-2.634-1.756-4.3c-0.139-0.529-0.027-0.945-0.691-1.037
					c0.027,4.453,0.121,12.298,0.426,15.955c0.314,3.777,2.527,8.366,3.75,10.659c0.154,0.073,0.307,0.147,0.465,0.222
					c-0.789-2.545,1.229-6.758-0.176-9.916c0.688,0.763,1.931,3.423,5.178,6.23c1.922,1.662,6.932,3.598,9.652,1.667
					c-2.16-0.156-4.739-1.316-6.581-4.651c-1.649-2.985-1.58-3.772-2.544-4.825c2.544,2.368,4.57,3.191,8.09,3.51
					C232.615,184.448,235.258,182.835,237.194,181.097z"/>
			</g>
			<g>
				<path fill="#BC321E" d="M209.446,258.385c-6.27-11.542-8.744-20.258,2.559-31.521c11.299-11.266,43.713-11.453,49.73-0.883
					c6.018,10.569-5.051,36.782-15.739,44.03C226.553,283.196,215.715,269.927,209.446,258.385z"/>
				<path fill="#A0251C" d="M216.184,268.204l40.563-46.605c2.25,1.161,3.986,2.623,4.988,4.384
					c6.018,10.569-5.051,36.782-15.739,44.03C232.211,279.359,222.756,275.406,216.184,268.204z"/>
				<g>
					<path fill="#EBA10B" d="M215.153,231.784c-1.003-1.848,3.17-1.723,3.17-1.723S216.156,233.629,215.153,231.784z"/>
					<path fill="#EBA10B" d="M226.367,231.948c-1.002-1.847,3.17-1.722,3.17-1.722S227.371,233.795,226.367,231.948z"/>
					<path fill="#EBA10B" d="M237.26,230.837c-1.006-1.848,3.17-1.724,3.17-1.724S238.262,232.681,237.26,230.837z"/>
					<path fill="#E47B00" d="M248.584,232.592c-1.004-1.847,3.17-1.724,3.17-1.724S249.588,234.437,248.584,232.592z"/>
					<path fill="#E47B00" d="M257.585,229.919c-1.001-1.847,3.172-1.723,3.172-1.723S258.586,231.764,257.585,229.919z"/>
					<path fill="#EBA10B" d="M250.674,224.43c-1.004-1.846,3.17-1.723,3.17-1.723S251.678,226.277,250.674,224.43z"/>
					<path fill="#E47B00" d="M252.934,240.864c-1-1.845,3.172-1.722,3.172-1.722S253.938,242.713,252.934,240.864z"/>
					<path fill="#E47B00" d="M242.105,239.871c-1.003-1.846,3.171-1.722,3.171-1.722S243.108,241.717,242.105,239.871z"/>
					<path fill="#EBA10B" d="M232.338,239.912c-1.004-1.847,3.168-1.723,3.168-1.723S233.338,241.757,232.338,239.912z"/>
					<path fill="#EBA10B" d="M221.68,239.961c-1.002-1.845,3.172-1.723,3.172-1.723S222.683,241.806,221.68,239.961z"/>
					<path fill="#EBA10B" d="M227.695,249.842c-1.002-1.847,3.171-1.723,3.171-1.723S228.699,251.686,227.695,249.842z"/>
					<path fill="#E47B00" d="M237.974,249.551c-1.005-1.845,3.17-1.722,3.17-1.722S238.977,251.396,237.974,249.551z"/>
					<path fill="#E47B00" d="M247.428,249.554c-1.002-1.847,3.172-1.724,3.172-1.724S248.432,251.401,247.428,249.554z"/>
					<path fill="#E47B00" d="M241.688,258.888c-1.004-1.849,3.172-1.725,3.172-1.725S242.692,260.733,241.688,258.888z"/>
					<path fill="#E47B00" d="M231.474,258.771c-1.001-1.844,3.171-1.721,3.171-1.721S232.477,260.62,231.474,258.771z"/>
					<path fill="#E47B00" d="M227.594,267.825c-1.004-1.846,3.172-1.723,3.172-1.723S228.598,269.674,227.594,267.825z"/>
					<path fill="#E47B00" d="M232.373,273.407c-1.004-1.848,3.17-1.726,3.17-1.726S233.375,275.254,232.373,273.407z"/>
					<path fill="#E47B00" d="M236.25,266.581c-1.002-1.846,3.172-1.722,3.172-1.722S237.254,268.427,236.25,266.581z"/>
					<path fill="#E47B00" d="M244.657,266.446c-1.005-1.849,3.169-1.722,3.169-1.722S245.659,268.292,244.657,266.446z"/>
					<path fill="#E47B00" d="M251.508,257.673c-1.006-1.846,3.17-1.723,3.17-1.723S252.51,259.519,251.508,257.673z"/>
					<path fill="#E47B00" d="M256.121,248.462c-1.004-1.848,3.172-1.723,3.172-1.723S257.123,250.308,256.121,248.462z"/>
					<path fill="#EBA10B" d="M242.121,223.501c-1.003-1.846,3.17-1.723,3.17-1.723S243.123,225.346,242.121,223.501z"/>
					<path fill="#EBA10B" d="M232.768,222.973c-1.002-1.847,3.172-1.723,3.172-1.723S233.77,224.818,232.768,222.973z"/>
					<path fill="#EBA10B" d="M221.847,224.864c-1.003-1.846,3.17-1.723,3.17-1.723S222.85,226.71,221.847,224.864z"/>
					<path fill="#EBA10B" d="M219.092,248.945c-1.004-1.847,3.17-1.724,3.17-1.724S220.094,250.789,219.092,248.945z"/>
					<path fill="#EBA10B" d="M211.172,239.619c-1.002-1.847,3.172-1.722,3.172-1.722S212.174,241.467,211.172,239.619z"/>
				</g>
				<g opacity="0.3">
					<path fill="none" stroke="#FFFFFF" stroke-width="0.6755" stroke-linecap="round" stroke-miterlimit="10" d="M235.299,235.297
						c1.149,0.527,1.904,1.562,2.021,2.841c0.188,1.999-1.311,3.596-3.18,4.229"/>
					<path fill="none" stroke="#FFFFFF" stroke-width="0.6755" stroke-linecap="round" stroke-miterlimit="10" d="M228.795,227.395
						c1.152,0.527,1.904,1.559,2.023,2.839c0.186,2-1.314,3.597-3.182,4.228"/>
					<path fill="none" stroke="#FFFFFF" stroke-width="0.6755" stroke-linecap="round" stroke-miterlimit="10" d="M239.795,226.416
						c1.152,0.528,1.904,1.56,2.022,2.842c0.187,1.998-1.313,3.596-3.179,4.227"/>
					<path fill="none" stroke="#FFFFFF" stroke-width="0.6755" stroke-linecap="round" stroke-miterlimit="10" d="M224.238,235.635
						c1.153,0.527,1.905,1.56,2.023,2.841c0.187,1.997-1.313,3.597-3.181,4.227"/>
					<path fill="none" stroke="#FFFFFF" stroke-width="0.6755" stroke-linecap="round" stroke-miterlimit="10" d="M230.205,245.559
						c1.152,0.527,1.904,1.56,2.024,2.839c0.187,2.001-1.315,3.597-3.181,4.228"/>
					<path fill="none" stroke="#FFFFFF" stroke-width="0.6755" stroke-linecap="round" stroke-miterlimit="10" d="M246.403,236.28
						c1.15,0.527,1.904,1.56,2.024,2.84c0.186,2.001-1.315,3.596-3.181,4.227"/>
				</g>
				<path opacity="0.2" d="M245.995,270.012c-0.905,0.612-1.782,1.149-2.647,1.649l-0.816-53.355
					c8.813,0.462,16.559,3.028,19.203,7.676C267.752,236.552,256.684,262.764,245.995,270.012z"/>
				<g>
					<path opacity="0.3" d="M210.022,260.018c-5.584-8.761-8.668-15.93-4.521-24.493c0.365,0.271,0.726,0.566,1.069,0.914
						c3.043,3.07,4.727,6.949,4.654,11.202l2.992-1.906c2.141-0.439,4.463-4.916,5.221-6.809c1.316,2.41,0.67,8.025-0.467,10.541
						c1.834,0.734,3.701,0.753,5.538,1.659c1.524,0.753,2.646,1.918,3.978,2.852c-2.273,0.517-4.512,1.389-6.482,2.631
						c2.611,1.889,7.416,3.082,8.889,6.366c-2.236-0.572-4.659,0.278-6.629,1.139c3.33,2.363,6.178,5.31,7.248,9.281
						c0.193,0.729,0.285,1.484,0.271,2.232C221.893,275.853,214.86,267.607,210.022,260.018z"/>
					<path fill="#808B22" d="M202,264.532c0.817-0.827,2.959-1.869,2.77-2.733c-0.418-1.89-5.012-5.406-6.882-6.328
						c1.778-1.275,4.515-0.922,6.081,0.643c-0.064-2.256-0.965-4.389-2.244-6.325c-1.3-1.967-3.127-3.394-4.809-5.051
						c2.721-1.785,6.932,1.521,8.274,3.683c-0.012-4.288-2.155-9.714-5.245-11.965c7.257,1.491,11.172,9.019,9.271,14.96
						c0.644-5.139,5.083-9.112,2.879-15.206c2.388,1.835,3.829,5.133,4.156,8.042c0.395,3.499,0.364,5.931-0.788,8.859
						c4.719-0.926,7.594,0.157,11.437,2.6c-2.569,0.7-5.038,4.665-8.455,5.179c1.014,0.172,3.925-0.212,8.036,1.019
						c2.436,0.727,6.76,3.912,6.594,7.244c-1.293-1.738-3.658-3.29-7.461-3.051c-3.4,0.213-4.031,0.696-5.434,0.447
						c3.363,0.871,5.145,2.14,7.305,4.938c1.676,2.167,1.732,5.262,1.309,7.828c-1.334-4.285-4.227-6.503-8.273-8.321
						c2.545,0.992,1.992,7.805,0.107,9.208c0.627-2.251-1.367-6.056-2.688-7.856c-1.404-1.917-2.574-2.257-4.349-3.445
						c0.522,2.172,0.142,5.279-1.634,6.902c0.503-3.34-1.908-7.935-4.367-10.39c-1.145-1.143-2.928,0.306-4.568,0.831
						c-0.588,0.188-0.883,0.577-1.424-0.268C201.139,265.259,201.336,264.885,202,264.532"/>
					<g>
						<path fill="#68791B" d="M203.948,256.049c0.11,0.379-0.084,2.938,0.749,5.539c-0.68-1.928-5.005-5.229-6.809-6.117
							C199.367,254.411,201.746,254.055,203.948,256.049z"/>
						<path fill="#68791B" d="M197.731,244.372c2.563-0.755,5.932,1.731,7.469,3.99c0.347,1.656,0.41,3.183,0.443,4.887
							C203.946,249.585,201.205,246.422,197.731,244.372z"/>
						<path fill="#68791B" d="M209.684,249.316c-0.471,1.325-1.206,3.051-1.615,4.201c-0.131-2.589,0.09-6.144-1.236-9.006
							c-1.556-3.362-3.369-5.697-5.957-7.818C206.381,238.281,210.082,243.103,209.684,249.316z"/>
						<path fill="#68791B" d="M211.963,255.184c2.084-4.491,3.346-9.492,3.434-14.305c0.438,1.112,0.73,2.269,0.854,3.371
							c0.392,3.471,0.36,5.891-0.763,8.787C214.835,253.308,213.537,253.916,211.963,255.184z"/>
						<path fill="#808B22" d="M211.148,267.843c0.772,0.608,1.667,0.995,2.527,1.455c0.388,2.138-0.048,4.977-1.718,6.503
							c0.503-3.34-1.908-7.935-4.367-10.39c-0.078-0.078-0.164-0.129-0.248-0.184C208.754,265.286,210.198,267.089,211.148,267.843z
							"/>
						<path fill="#68791B" d="M220.114,271.697c0.665,0.527,1.313,1.064,1.939,1.618c0.49,2.267-0.055,5.461-1.184,6.653
							c0.836-3.044,0.439-6.013-1.205-8.624C219.813,271.464,219.965,271.583,220.114,271.697z"/>
						<path fill="#68791B" d="M223.393,268.081c0.221,0.032,0.449,0.06,0.683,0.088c1.224,0.789,2.266,1.836,3.409,3.316
							c1.297,1.677,1.624,3.907,1.51,6.02c-1.623-3.052-4.17-5.607-7.07-7.813c-0.983-0.75-1.975-1.505-2.979-2.25
							C220.42,267.687,221.906,267.879,223.393,268.081z"/>
						<path fill="#68791B" d="M213.778,261.483c-0.814,0.053-1.644,0.053-2.461,0.102c-0.229-0.062-0.454-0.127-0.676-0.203
							c1.659-1.47,3.436-2.794,5.503-3.777c2.391-1.135,6.425-2.216,9.276-1.176c-1.436,0.954-2.902,2.523-4.582,3.538
							C218.516,260.555,216.129,261.331,213.778,261.483z"/>
						<path fill="#68791B" d="M231.655,266.979c-0.842-0.579-1.717-1.115-2.684-1.542c-1.895-0.833-3.996-1.114-6.014-1.484
							c-1.352-0.247-2.709-0.497-4.061-0.778c0.966-0.232,1.934-0.472,2.904-0.684c1.346-0.3,2.697-0.563,4.053-0.762
							c0.207,0.058,0.412,0.113,0.627,0.178c2.026,0.604,5.35,2.912,6.317,5.588C232.428,267.302,232.046,267.132,231.655,266.979z"
							/>
					</g>
					<path fill="#68791B" d="M228.793,279.313c-1.334-4.285-4.227-6.503-8.273-8.321c2.545,0.992,1.992,7.805,0.107,9.208
						c0.627-2.251-1.367-6.056-2.688-7.856c-1.404-1.917-2.574-2.257-4.349-3.445c0.522,2.172,0.142,5.279-1.634,6.902
						c0.503-3.34-1.908-7.935-4.367-10.39c-1.145-1.143-2.928,0.306-4.568,0.831c-0.521,0.169-0.811,0.486-1.246-0.025
						c3.771-2.368,10.436-6.507,13.684-8.215c3.354-1.765,8.412-2.365,11.004-2.565c0.146,0.089,0.289,0.178,0.437,0.273
						c-2.569,0.7-5.038,4.665-8.455,5.179c1.014,0.172,3.925-0.212,8.036,1.019c2.436,0.727,6.76,3.912,6.594,7.244
						c-1.293-1.738-3.658-3.29-7.461-3.051c-3.4,0.213-4.031,0.696-5.434,0.447c3.363,0.871,5.145,2.14,7.305,4.938
						C229.16,273.652,229.217,276.747,228.793,279.313z"/>
				</g>
			</g>
		</g>
	</g>
</g>
</svg>
