<?xml version="1.0" encoding="utf-8"?>
<!-- Generator: Adobe Illustrator 16.0.0, SVG Export Plug-In . SVG Version: 6.00 Build 0)  -->
<!DOCTYPE svg PUBLIC "-//W3C//DTD SVG 1.1//EN" "http://www.w3.org/Graphics/SVG/1.1/DTD/svg11.dtd">
<svg version="1.1" id="Ebene_1" xmlns="http://www.w3.org/2000/svg" xmlns:xlink="http://www.w3.org/1999/xlink" x="0px" y="0px"
	 width="450px" height="450px" viewBox="0 0 450 450" enable-background="new 0 0 450 450" xml:space="preserve">
<g>
	<path opacity="0.3" d="M321.445,203.407c0.103-0.42,0.196-0.84,0.276-1.259c0.049-0.262,0.096-0.523,0.138-0.785
		c0.056-0.355,0.099-0.711,0.138-1.064c0.033-0.296,0.072-0.592,0.094-0.886c0.018-0.245,0.02-0.487,0.029-0.731
		c0.033-0.766,0.027-1.524-0.018-2.275c-0.006-0.115-0.008-0.232-0.017-0.347c-0.034-0.45-0.087-0.896-0.148-1.339
		c-0.015-0.107-0.03-0.215-0.048-0.321c-0.07-0.464-0.154-0.923-0.256-1.376c-0.001-0.006-0.002-0.013-0.003-0.019h-0.001
		c-1.41-6.261-5.682-11.549-12.656-14.038c-8.201-2.927-16.453-0.685-21.961,4.888c-0.525-0.258-1.076-0.489-1.639-0.71
		c2.473-2.415,4.449-5.512,5.732-9.105c0.223-0.627,0.412-1.255,0.584-1.883c0.066-0.238,0.119-0.476,0.177-0.714
		c0.093-0.384,0.179-0.767,0.253-1.149c0.057-0.295,0.108-0.589,0.154-0.883c0.047-0.307,0.084-0.612,0.119-0.918
		c0.04-0.341,0.083-0.682,0.107-1.021c0.007-0.092,0.006-0.183,0.012-0.274c0.059-0.973,0.055-1.934-0.01-2.883
		c-0.003-0.038-0.003-0.075-0.006-0.113c-0.036-0.493-0.094-0.98-0.162-1.466c-0.008-0.055-0.016-0.109-0.024-0.163
		c-1.038-6.897-5.417-12.826-12.93-15.509c-7.792-2.779-15.626-0.892-21.113,4.081c-0.01-0.026-0.015-0.053-0.025-0.08
		c-0.118-0.312-0.267-0.62-0.427-0.928c-0.031-0.062-0.063-0.124-0.096-0.186c-0.164-0.302-0.342-0.603-0.534-0.902
		c-0.017-0.026-0.035-0.053-0.052-0.079c-0.2-0.308-0.412-0.613-0.631-0.919c-0.01-0.013-0.019-0.026-0.028-0.04
		c-0.487-0.677-1.008-1.349-1.509-2.019v0.001c-0.725-0.969-1.406-1.934-1.874-2.904c-1.7-3.522,0.166-3.639-0.131-7.279
		c-0.259-3.137-2.743-6.333-3.42-9.638c-1.618-7.903-4.608-16.504-4.97-24.463c-0.385-0.245-0.753-0.515-1.074-0.839
		c-0.701-0.304-1.406-0.581-2.117-0.816c-1.137,0.531-2.236,1.152-3.307,1.823c0.06,0.505,0.125,1.001,0.19,1.5
		c-0.001-0.003-0.002-0.005-0.003-0.008c0.007,0.051,0.014,0.101,0.021,0.151c0.047,0.36,0.096,0.717,0.147,1.071
		c0.086,0.608,0.175,1.211,0.278,1.793c-0.186,0.095-0.351,0.194-0.506,0.294c-0.039,0.025-0.077,0.052-0.115,0.077
		c-0.135,0.093-0.258,0.187-0.367,0.282c-0.012,0.01-0.025,0.02-0.035,0.029c-0.119,0.106-0.221,0.216-0.313,0.327
		c-0.021,0.025-0.04,0.051-0.06,0.076c-0.075,0.099-0.142,0.198-0.197,0.3c-0.009,0.017-0.019,0.031-0.026,0.048
		c-0.062,0.117-0.109,0.236-0.146,0.358c-0.008,0.022-0.012,0.045-0.018,0.068c-0.029,0.105-0.049,0.214-0.062,0.322
		c-0.003,0.021-0.006,0.041-0.009,0.063c-0.01,0.127-0.011,0.255-0.002,0.386c0.001,0.017,0.004,0.034,0.006,0.052
		c0.01,0.117,0.027,0.235,0.051,0.355c0.006,0.023,0.01,0.046,0.014,0.069c0.031,0.136,0.068,0.272,0.113,0.411
		c0.002,0.008,0.006,0.014,0.008,0.021c0.045,0.132,0.096,0.266,0.154,0.4c0.01,0.024,0.02,0.048,0.029,0.072
		c0.125,0.287,0.274,0.579,0.441,0.875c0.011,0.02,0.021,0.039,0.032,0.058c0.892,1.568,2.233,3.249,2.788,4.886
		c1.438,4.234,3.692,9.159,3.598,13.794c-0.055,2.695-1.34,5.087-2.895,7.21c0-0.001,0-0.001,0-0.001
		c-0.008,0.009-0.015,0.021-0.021,0.031c-1.051,1.431-3.341,2.923-4.459,4.214c-1.967-1.896-4.416-3.438-7.345-4.482
		c-6.067-2.165-12.163-1.5-17.153,1.247c-1.479-6.132-5.721-11.296-12.587-13.745c-11.505-4.108-23.112,1.953-27.099,13.119
		c-1.086,3.046-1.471,6.151-1.256,9.148c-11.27-3.618-22.488,2.414-26.391,13.354c-2.43,6.808-1.447,13.931,2.285,19.392
		c0.001,0.002,0.002,0.004,0.003,0.006c0.384,0.561,0.796,1.104,1.237,1.627c0.021,0.025,0.041,0.053,0.063,0.078
		c0.165,0.194,0.334,0.385,0.507,0.574c-0.354,0.734-0.677,1.493-0.958,2.28c-0.54,1.514-0.898,3.043-1.109,4.567
		c-3.746,2.514-6.732,6.274-8.392,10.925c-2.425,6.803-1.444,13.919,2.279,19.379c0.005,0.008,0.011,0.017,0.016,0.024
		c0.374,0.547,0.776,1.076,1.206,1.588c0.034,0.04,0.064,0.082,0.099,0.122c0.401,0.471,0.83,0.921,1.277,1.358
		c0.071,0.07,0.138,0.145,0.21,0.214c0.418,0.397,0.864,0.771,1.32,1.137c0.115,0.092,0.222,0.191,0.339,0.281
		c0.434,0.332,0.894,0.638,1.36,0.939c0.156,0.102,0.302,0.214,0.462,0.312c0.47,0.287,0.968,0.545,1.468,0.8
		c0.172,0.088,0.332,0.188,0.51,0.272c0.683,0.326,1.391,0.623,2.127,0.886c2.401,0.856,4.765,1.25,7.039,1.243
		c-3.98,2.509-7.158,6.398-8.891,11.255c-2.424,6.798-1.446,13.909,2.27,19.366c0.01,0.014,0.018,0.027,0.027,0.041
		c0.373,0.547,0.776,1.075,1.205,1.586c0.033,0.039,0.063,0.08,0.096,0.119c0.404,0.476,0.836,0.931,1.289,1.371
		c0.066,0.065,0.128,0.135,0.195,0.199c0.427,0.405,0.881,0.787,1.347,1.158c0.106,0.085,0.202,0.177,0.312,0.26
		c0.445,0.342,0.918,0.657,1.398,0.967c0.143,0.092,0.277,0.195,0.424,0.285c0.482,0.295,0.992,0.561,1.507,0.821
		c0.159,0.081,0.308,0.175,0.472,0.253c0.684,0.325,1.393,0.623,2.129,0.886c1.234,0.44,2.457,0.753,3.664,0.959
		c0.006,4.249,1.248,8.327,3.584,11.755c0.007,0.011,0.014,0.021,0.02,0.031c0.375,0.548,0.779,1.077,1.209,1.59
		c0.032,0.038,0.062,0.079,0.094,0.117c0.405,0.476,0.838,0.93,1.289,1.37c0.066,0.065,0.129,0.136,0.197,0.201
		c0.427,0.404,0.88,0.786,1.346,1.157c0.106,0.085,0.204,0.178,0.313,0.261c0.447,0.342,0.92,0.657,1.4,0.968
		c0.144,0.092,0.275,0.194,0.422,0.283c0.486,0.297,1,0.565,1.52,0.828c0.156,0.079,0.301,0.17,0.459,0.246
		c0.685,0.326,1.394,0.623,2.131,0.887c0.013,0.004,0.025,0.008,0.037,0.013c-1.31,1.759-2.389,3.749-3.17,5.938
		c-2.424,6.799-1.446,13.91,2.271,19.368c0.008,0.013,0.017,0.026,0.025,0.04c0.374,0.546,0.775,1.073,1.205,1.584
		c0.033,0.04,0.063,0.082,0.096,0.121c0.405,0.476,0.838,0.93,1.289,1.37c0.066,0.065,0.129,0.136,0.196,0.2
		c0.174,0.165,0.354,0.323,0.536,0.482c-1.928,2.123-3.48,4.674-4.516,7.572c-1.909,5.356-1.697,10.904,0.287,15.69l-0.002,0.001
		c0.004,0.01,0.01,0.02,0.015,0.03c0.256,0.614,0.542,1.215,0.856,1.802c0.018,0.033,0.033,0.067,0.051,0.101
		c0.311,0.571,0.65,1.127,1.016,1.668c0.031,0.047,0.06,0.096,0.092,0.144c0.353,0.513,0.732,1.008,1.134,1.49
		c0.057,0.068,0.108,0.14,0.165,0.207c0.383,0.448,0.792,0.875,1.216,1.292c0.091,0.09,0.175,0.185,0.267,0.272
		c0.403,0.382,0.832,0.74,1.27,1.092c0.131,0.105,0.253,0.219,0.387,0.322c0.421,0.321,0.867,0.617,1.318,0.91
		c0.17,0.11,0.328,0.231,0.502,0.338c0.456,0.278,0.939,0.528,1.426,0.777c0.186,0.095,0.359,0.203,0.549,0.294
		c0.682,0.325,1.391,0.621,2.125,0.884c11.508,4.104,22.167-2.294,26.151-13.461c0.228-0.638,0.421-1.276,0.595-1.915
		c0.055-0.198,0.098-0.396,0.146-0.593c0.107-0.437,0.205-0.873,0.287-1.309c0.048-0.247,0.092-0.493,0.131-0.74
		c0.06-0.378,0.106-0.755,0.146-1.132c0.031-0.274,0.066-0.55,0.088-0.823c0.023-0.316,0.027-0.63,0.038-0.944
		c0-0.011,0.001-0.021,0.001-0.032c0.207,0.081,0.4,0.178,0.611,0.253c11.507,4.104,22.168-2.294,26.152-13.46
		c0.225-0.631,0.416-1.264,0.588-1.896c0.061-0.222,0.11-0.441,0.164-0.662c0.1-0.407,0.191-0.814,0.268-1.221
		c0.053-0.272,0.101-0.543,0.144-0.815c0.054-0.344,0.095-0.687,0.134-1.029c0.035-0.305,0.073-0.609,0.096-0.913
		c0.016-0.229,0.018-0.457,0.027-0.686c0.035-0.771,0.03-1.535-0.014-2.292c-0.008-0.125-0.01-0.251-0.02-0.376
		c-0.033-0.441-0.084-0.878-0.145-1.313c-0.017-0.12-0.033-0.24-0.053-0.359c-0.07-0.452-0.15-0.9-0.25-1.343
		c-0.002-0.011-0.004-0.022-0.006-0.033l-0.002,0.001c-0.029-0.13-0.063-0.258-0.095-0.387c7.966-0.657,14.638-6.325,17.606-14.642
		c0.226-0.632,0.416-1.266,0.59-1.899c0.06-0.218,0.107-0.436,0.16-0.653c0.102-0.411,0.193-0.821,0.271-1.231
		c0.052-0.269,0.1-0.537,0.142-0.805c0.054-0.348,0.097-0.693,0.136-1.04c0.033-0.303,0.072-0.605,0.095-0.907
		c0.017-0.229,0.019-0.454,0.028-0.681c0.014-0.331,0.039-0.663,0.039-0.99c2.441-0.895,4.682-2.292,6.631-4.104
		c0.008,0.006,0.016,0.012,0.023,0.02c0.436,0.414,0.9,0.807,1.379,1.186c0.096,0.076,0.183,0.159,0.279,0.233
		c0.456,0.349,0.939,0.673,1.431,0.988c0.134,0.086,0.257,0.182,0.394,0.266c0.489,0.299,1.006,0.568,1.527,0.833
		c0.154,0.077,0.297,0.168,0.454,0.242c0.685,0.326,1.394,0.624,2.13,0.887c11.507,4.104,22.168-2.295,26.152-13.46
		c0.225-0.63,0.416-1.263,0.588-1.895c0.062-0.225,0.111-0.448,0.166-0.673c0.098-0.401,0.188-0.802,0.264-1.202
		c0.054-0.279,0.104-0.558,0.146-0.836c0.052-0.332,0.092-0.662,0.129-0.993c0.037-0.316,0.076-0.634,0.101-0.949
		c0.013-0.187,0.013-0.37,0.022-0.557c0.041-0.823,0.037-1.639-0.012-2.446c-0.006-0.11-0.008-0.223-0.016-0.333
		c-0.034-0.443-0.086-0.882-0.146-1.318c-0.017-0.122-0.033-0.243-0.053-0.364c-0.069-0.446-0.148-0.888-0.246-1.325
		c-0.004-0.016-0.006-0.031-0.009-0.046l-0.003,0.001c-0.932-4.141-3.123-7.846-6.518-10.604c1.618-2.036,2.943-4.412,3.888-7.062
		c0.224-0.629,0.415-1.259,0.587-1.889c0.063-0.231,0.113-0.462,0.171-0.693c0.095-0.392,0.183-0.782,0.258-1.174
		c0.056-0.287,0.106-0.574,0.151-0.86c0.05-0.32,0.088-0.639,0.125-0.957c0.037-0.328,0.078-0.655,0.104-0.981
		c0.01-0.15,0.01-0.299,0.018-0.449c0.047-0.866,0.043-1.724-0.008-2.572c-0.006-0.099-0.008-0.199-0.016-0.297
		c-0.033-0.451-0.086-0.896-0.146-1.339c-0.016-0.113-0.031-0.226-0.05-0.339c-0.07-0.454-0.151-0.904-0.251-1.35
		c-0.002-0.011-0.004-0.022-0.006-0.033l-0.002,0.001c-0.309-1.373-0.76-2.694-1.344-3.954c8.075-0.561,14.855-6.262,17.855-14.662
		c0.227-0.634,0.418-1.27,0.592-1.905C321.346,203.827,321.393,203.617,321.445,203.407z M248.436,145.757
		c0.848,1.835,1.791,3.813,2.838,5.769c0.044,0.083,0.09,0.165,0.135,0.248c0.302,0.56,0.613,1.114,0.935,1.665
		c0.149,0.257,0.298,0.511,0.452,0.764c0.141,0.233,0.283,0.465,0.428,0.694c0.248,0.394,0.502,0.781,0.76,1.162
		c0.045,0.065,0.086,0.134,0.131,0.199c-0.525,0.892-0.992,1.832-1.4,2.815c-3.961-0.096-7.742,0.944-11.01,2.902
		c0.051-0.189,0.09-0.379,0.135-0.568c0.102-0.411,0.193-0.821,0.271-1.231c0.052-0.27,0.1-0.538,0.143-0.808
		c0.053-0.346,0.096-0.689,0.133-1.034c0.035-0.305,0.074-0.609,0.098-0.914c0.016-0.215,0.016-0.429,0.025-0.644
		c0.029-0.646,0.033-1.284,0.01-1.919c0.006-0.01,0.012-0.02,0.018-0.03c0.112-0.174,0.223-0.351,0.334-0.526
		c0.146-0.236,0.292-0.473,0.436-0.712c0.064-0.106,0.129-0.213,0.193-0.319c0.896-1.499,1.74-3.017,2.535-4.322l0,0
		C246.889,147.541,247.688,146.38,248.436,145.757z"/>
	<g>
		<g>
			<path fill="#768512" d="M211.604,149.884c-5.961-1.422-10.949-4.601-16.449-7.159c-3.446-1.608-8.226-4.911-12.316-4.375
				c-4.227,0.554-8.763,4.587-12.556,6.472c-4.763,2.37-7.114,3.799-9.072,8.938c-1.952,5.121-1.245,10.643-2.421,15.923
				c-1.044,4.686-3.617,8.544-5.004,13.137c-1.908,6.316-0.409,11.784,1.445,17.749c4.475,14.4,11.934,27.306,16.686,41.659
				c3.41,10.289,5.059,20.313,9.477,30.224c2.188,4.906,2.67,10.295,4.832,15.229c1.567,3.582,2.498,9.011,4.344,12.231
				c2.25,3.918,6.85,2.563,11.496,3.94c5.258,1.556,7.607,5.143,13.705,3.077c7.447-2.523,13.633-9.09,19.204-14.267
				c3.602-3.35,8.372-5.27,12.44-8.034c9.762-6.637,20.031-15.663,24.314-27.362c3.457-9.461,0.934-18.537,0.08-28.084
				c-0.787-8.826,4.904-19.661,0.826-27.831c-2.342-4.69-6.481-8.98-9.281-13.507c-2.309-3.744-4.603-7.438-7.466-10.731
				c-3.63-4.174-7.491-5.335-12.386-7.092c-10.049-3.606-16.143-15.94-28.865-17.143"/>
			<g>
				<path fill="#81734A" d="M252.274,146.269c-1.049-2.747-3.879-5.341-5.15-7.976c-1.701-3.522,0.166-3.639-0.131-7.279
					c-0.26-3.136-2.742-6.334-3.42-9.638c-1.618-7.902-4.607-16.505-4.969-24.463c-0.385-0.246-0.754-0.516-1.076-0.839
					c-0.7-0.304-1.406-0.582-2.117-0.816c-1.136,0.531-2.235,1.152-3.307,1.822c0.182,1.546,0.383,3.073,0.637,4.509
					c-4.57,2.338,0.547,6.197,1.779,9.831c1.439,4.234,3.693,9.159,3.6,13.793c-0.055,2.709-1.353,5.11-2.917,7.241
					c-1.208,1.645-4.058,3.372-4.878,4.781c-1.113,1.91,0.014,4.887-0.037,7.616c-0.072,3.599-0.994,7.169-1.383,10.74
					c5.867,1.633,10.225-11.85,13.563-14.63c2.082,4.501,4.701,9.876,8.131,13.615C251.264,151.322,253.348,149.079,252.274,146.269
					z"/>
				<path fill="#644E35" d="M232.933,108.452c0.636-0.83,1.454-1.525,2.565-1.972c-0.727-2.284-1.913-4.564-2.241-5.319
					c-0.365-0.847-0.678-1.712-0.964-2.587c0.137,1.03,0.275,2.046,0.447,3.016C229.408,103.296,231.227,105.807,232.933,108.452z"
					/>
				<path fill="#644E35" d="M239.176,142.552c-1.352-3.661-2.441-6.998-3.951-10.129c-0.009,0.01-0.016,0.02-0.022,0.031
					c-1.208,1.645-4.058,3.372-4.878,4.781c-1.113,1.91,0.014,4.887-0.037,7.616c-0.072,3.599-0.994,7.169-1.383,10.74
					c4.555,1.268,8.197-6.567,11.161-11.44C239.713,143.719,239.408,143.188,239.176,142.552z"/>
				<path fill="#644E35" d="M252.274,146.269c-0.662-1.735-2.032-3.41-3.275-5.072c-0.032,0.105-0.054,0.211-0.084,0.316
					c-0.617,2.072-2.352,3.56-4.223,4.044c1.658,3.238,3.596,6.5,5.906,9.021C251.264,151.322,253.348,149.079,252.274,146.269z"/>
			</g>
			<g>
				<g>
					<path fill="#95A22C" d="M171.375,208.611c-3.986,11.166-14.646,17.564-26.154,13.461
						c-11.504-4.104-16.654-16.146-12.672-27.313c3.986-11.166,15.597-17.229,27.104-13.123
						C171.155,185.744,175.362,197.445,171.375,208.611z"/>
					<path fill="#809621" d="M145.221,222.072c11.508,4.104,22.168-2.295,26.154-13.461c1.568-4.398,1.852-8.872,0.932-12.938
						l-39.467,14.775C134.989,215.644,139.235,219.934,145.221,222.072z"/>
				</g>
				<path fill="#DAE391" d="M150.25,189.615c1.006,1.851,0.209,4.229-1.785,5.313c-1.994,1.087-4.43,0.466-5.437-1.384
					c-1.003-1.853-0.206-4.232,1.788-5.316C146.809,187.142,149.244,187.763,150.25,189.615z"/>
			</g>
			<g>
				<g>
					<path fill="#B0C34B" d="M180.87,193.119c-3.981,11.166-14.642,17.566-26.149,13.462c-11.504-4.106-16.656-16.146-12.672-27.313
						c3.986-11.168,15.59-17.229,27.102-13.124C180.656,170.252,184.856,181.955,180.87,193.119z"/>
					<path fill="#A4AC38" d="M154.721,206.581c11.508,4.104,22.168-2.296,26.149-13.462c1.571-4.396,1.853-8.874,0.937-12.938
						l-39.471,14.776C144.487,200.151,148.735,204.443,154.721,206.581z"/>
				</g>
				
					<ellipse transform="matrix(0.8783 -0.478 0.478 0.8783 -65.1779 96.0589)" fill="#DAE391" cx="156.14" cy="176.086" rx="4.11" ry="3.814"/>
			</g>
			<g>
				<g>
					<path fill="#B0C34B" d="M177.737,169.163c-3.984,11.166-14.646,17.564-26.152,13.461
						c-11.504-4.105-16.656-16.148-12.671-27.313c3.985-11.168,15.594-17.229,27.099-13.122
						C177.52,146.293,181.721,157.996,177.737,169.163z"/>
					<path fill="#A4AC38" d="M151.584,182.624c11.506,4.104,22.168-2.295,26.152-13.461c1.567-4.398,1.852-8.873,0.934-12.939
						l-39.473,14.777C141.352,176.193,145.596,180.486,151.584,182.624z"/>
				</g>
				<path fill="#DAE391" d="M156.614,150.164c1.006,1.851,0.207,4.231-1.788,5.316c-1.993,1.086-4.425,0.465-5.437-1.386
					c-1.002-1.852-0.205-4.233,1.789-5.316C153.172,147.694,155.607,148.315,156.614,150.164z"/>
			</g>
			<g>
				<g>
					<path fill="#B0C34B" d="M205.383,146.664c-3.982,11.164-14.646,17.562-26.152,13.459c-11.503-4.105-16.654-16.146-12.67-27.315
						c3.984-11.166,15.594-17.228,27.098-13.12C205.165,123.793,209.367,135.496,205.383,146.664z"/>
					<path fill="#A4AC38" d="M179.231,160.123c11.506,4.103,22.17-2.295,26.152-13.459c1.57-4.399,1.854-8.874,0.936-12.939
						l-39.471,14.776C168.998,153.694,173.245,157.984,179.231,160.123z"/>
				</g>
				<path fill="#DAE391" d="M184.26,127.664c1.01,1.852,0.209,4.23-1.789,5.315c-1.991,1.087-4.428,0.468-5.432-1.384
					c-1.006-1.852-0.209-4.233,1.787-5.318C180.823,125.191,183.254,125.814,184.26,127.664z"/>
			</g>
			<g>
				<g>
					<path fill="#95A22C" d="M263.541,227.596c-2.93,11.487-12.95,18.853-24.787,15.833c-11.836-3.017-18.084-14.525-15.156-26.014
						c2.932-11.491,13.924-18.606,25.764-15.588C261.198,204.845,266.467,216.107,263.541,227.596z"/>
					<path fill="#809621" d="M238.754,243.429c11.837,3.02,21.857-4.346,24.787-15.833c1.151-4.525,1.02-9.006-0.272-12.966
						l-37.929,18.38C227.969,237.982,232.596,241.859,238.754,243.429z"/>
				</g>
			</g>
			<g>
				<g>
					<path fill="#B0C34B" d="M182.195,248.422c-3.984,11.167-14.646,17.567-26.153,13.461c-11.502-4.104-16.652-16.146-12.67-27.313
						c3.985-11.167,15.594-17.229,27.1-13.121C181.977,225.552,186.178,237.256,182.195,248.422z"/>
					<path fill="#A4AC38" d="M156.041,261.883c11.508,4.106,22.169-2.294,26.153-13.461c1.567-4.398,1.852-8.873,0.933-12.938
						l-39.471,14.775C145.81,255.455,150.055,259.747,156.041,261.883z"/>
				</g>
				<path fill="#DAE391" d="M161.071,229.425c1.009,1.85,0.207,4.231-1.789,5.317c-1.99,1.084-4.426,0.464-5.432-1.39
					c-1.005-1.851-0.207-4.229,1.787-5.314C157.631,226.952,160.067,227.575,161.071,229.425z"/>
			</g>
			<g>
				<g>
					<path fill="#B0C34B" d="M285.137,169.245c-3.984,11.167-14.646,17.566-26.152,13.462c-11.503-4.104-16.655-16.147-12.67-27.315
						c3.984-11.164,15.593-17.227,27.098-13.122C284.916,146.375,289.121,158.079,285.137,169.245z"/>
					<path fill="#A4AC38" d="M258.985,182.707c11.506,4.104,22.168-2.295,26.152-13.462c1.568-4.397,1.85-8.872,0.932-12.936
						l-39.47,14.775C248.752,176.279,252.996,180.569,258.985,182.707z"/>
				</g>
				<path fill="#DAE391" d="M264.013,150.249c1.009,1.851,0.208,4.229-1.788,5.315c-1.992,1.086-4.428,0.465-5.433-1.387
					s-0.208-4.231,1.786-5.313C260.574,147.776,263.006,148.399,264.013,150.249z"/>
			</g>
			<g>
				<g>
					<path fill="#B0C34B" d="M235.121,159.166c-3.984,11.164-14.646,17.563-26.152,13.458
						c-11.504-4.105-16.655-16.146-12.674-27.313c3.988-11.168,15.596-17.23,27.104-13.123
						C234.905,136.293,239.106,147.997,235.121,159.166z"/>
					<path fill="#A4AC38" d="M208.969,172.624c11.506,4.104,22.168-2.294,26.152-13.458c1.568-4.4,1.85-8.875,0.934-12.938
						l-39.471,14.775C198.735,166.195,202.985,170.486,208.969,172.624z"/>
				</g>
				<path fill="#DAE391" d="M213.998,140.166c1.008,1.852,0.209,4.229-1.789,5.315c-1.992,1.087-4.426,0.465-5.431-1.387
					c-1.007-1.852-0.208-4.231,1.784-5.314C210.561,137.693,212.99,138.314,213.998,140.166z"/>
			</g>
			<g>
				<g>
					<path fill="#B0C34B" d="M199.838,269.076c-3.985,11.166-14.646,17.565-26.15,13.46s-16.656-16.147-12.672-27.313
						c3.983-11.166,15.593-17.229,27.1-13.122C199.619,246.205,203.824,257.909,199.838,269.076z"/>
					<path fill="#A4AC38" d="M173.688,282.536c11.504,4.105,22.165-2.294,26.15-13.46c1.568-4.398,1.853-8.873,0.936-12.938
						l-39.471,14.773C163.453,276.108,167.7,280.398,173.688,282.536z"/>
				</g>
				<path fill="#DAE391" d="M178.717,250.078c1.006,1.851,0.207,4.23-1.791,5.315c-1.992,1.088-4.426,0.465-5.43-1.387
					c-1.008-1.852-0.213-4.229,1.785-5.313C175.276,247.606,177.709,248.228,178.717,250.078z"/>
			</g>
			<g>
				<g>
					<path fill="#B0C34B" d="M314.731,201.15c-3.986,11.162-14.649,17.563-26.157,13.459c-11.503-4.104-16.651-16.146-12.671-27.313
						c3.988-11.168,15.597-17.229,27.102-13.123C314.51,178.279,318.71,189.983,314.731,201.15z"/>
					<path fill="#A4AC38" d="M288.573,214.609c11.508,4.104,22.171-2.297,26.157-13.459c1.568-4.4,1.849-8.873,0.932-12.938
						l-39.471,14.775C278.342,208.18,282.59,212.472,288.573,214.609z"/>
				</g>
				<path fill="#DAE391" d="M293.605,182.151c1.009,1.852,0.208,4.229-1.788,5.314c-1.994,1.088-4.428,0.466-5.434-1.385
					c-1.006-1.852-0.207-4.232,1.787-5.314C290.165,179.678,292.598,180.301,293.605,182.151z"/>
			</g>
			<g>
				<g>
					<path fill="#95A22C" d="M257.119,284.418c-3.984,11.167-14.643,17.563-26.152,13.459
						c-11.502-4.104-16.652-16.146-12.672-27.313c3.986-11.165,15.598-17.227,27.102-13.124
						C256.903,261.548,261.104,273.251,257.119,284.418z"/>
					<path fill="#809621" d="M230.967,297.877c11.51,4.104,22.168-2.292,26.152-13.459c1.571-4.398,1.854-8.873,0.936-12.938
						l-39.471,14.775C220.735,291.45,224.981,295.741,230.967,297.877z"/>
				</g>
				<path fill="#DAE391" d="M235.996,265.419c1.008,1.852,0.209,4.231-1.786,5.316c-1.993,1.087-4.427,0.464-5.437-1.385
					c-1.004-1.853-0.203-4.234,1.787-5.317C232.558,262.947,234.987,263.571,235.996,265.419z"/>
			</g>
			<g>
				<g>
					<path fill="#95A22C" d="M238.676,312.384c-3.984,11.167-14.644,17.563-26.151,13.46c-11.503-4.105-16.654-16.144-12.672-27.314
						c3.987-11.164,15.595-17.228,27.102-13.121C238.455,289.514,242.66,301.215,238.676,312.384z"/>
					<path fill="#809621" d="M212.525,325.844c11.508,4.103,22.167-2.293,26.151-13.46c1.57-4.398,1.85-8.874,0.933-12.938
						l-39.468,14.775C202.291,319.415,206.537,323.706,212.525,325.844z"/>
				</g>
			</g>
			<g>
				<g>
					<path fill="#B0C34B" d="M209.376,302.34c-3.982,11.164-14.644,17.565-26.152,13.462c-11.5-4.108-16.651-16.146-12.671-27.315
						c3.986-11.165,15.597-17.228,27.1-13.122C209.16,279.471,213.362,291.173,209.376,302.34z"/>
					<path fill="#A4AC38" d="M183.224,315.802c11.509,4.104,22.17-2.298,26.152-13.462c1.569-4.396,1.854-8.873,0.937-12.937
						l-39.471,14.774C172.993,309.373,177.24,313.662,183.224,315.802z"/>
				</g>
				<path fill="#DAE391" d="M188.254,283.343c1.008,1.852,0.209,4.229-1.787,5.315c-1.996,1.084-4.43,0.463-5.433-1.386
					c-1.009-1.852-0.208-4.231,1.784-5.315C184.813,280.87,187.248,281.492,188.254,283.343z"/>
			</g>
			<g>
				<g>
					<path fill="#95A22C" d="M298.982,263.3c-3.983,11.165-14.646,17.566-26.152,13.461c-11.504-4.105-16.654-16.146-12.673-27.315
						c3.986-11.165,15.596-17.226,27.1-13.121C298.762,240.43,302.964,252.133,298.982,263.3z"/>
					<path fill="#809621" d="M272.829,276.76c11.507,4.105,22.169-2.296,26.152-13.461c1.569-4.397,1.849-8.872,0.935-12.937
						l-39.474,14.774C262.6,270.331,266.844,274.624,272.829,276.76z"/>
				</g>
			</g>
			<g>
				<g>
					<path fill="#B0C34B" d="M210.481,333.079c-3.984,11.167-14.646,17.564-26.152,13.46c-11.502-4.105-16.652-16.146-12.672-27.313
						c3.986-11.165,15.596-17.228,27.101-13.121C210.263,310.21,214.465,321.913,210.481,333.079z"/>
					<path fill="#A4AC38" d="M184.328,346.539c11.507,4.104,22.168-2.293,26.152-13.46c1.572-4.396,1.852-8.872,0.937-12.937
						l-39.474,14.774C174.096,340.113,178.344,344.404,184.328,346.539z"/>
				</g>
				<path fill="#DAE391" d="M189.359,314.08c1.007,1.853,0.208,4.23-1.789,5.317c-1.993,1.087-4.427,0.464-5.431-1.386
					c-1.01-1.852-0.211-4.232,1.787-5.316C185.917,311.608,188.354,312.231,189.359,314.08z"/>
			</g>
			<g>
				<g>
					<path fill="#B0C34B" d="M198.828,230.029c-3.987,11.165-14.65,17.566-26.154,13.459c-11.504-4.104-16.654-16.146-12.672-27.311
						c3.984-11.168,15.596-17.229,27.1-13.123C198.608,207.158,202.809,218.863,198.828,230.029z"/>
					<path fill="#A4AC38" d="M172.674,243.488c11.504,4.107,22.167-2.294,26.154-13.459c1.566-4.397,1.848-8.872,0.932-12.938
						l-39.473,14.776C162.442,237.063,166.686,241.351,172.674,243.488z"/>
				</g>
				<path fill="#DAE391" d="M177.702,211.031c1.009,1.852,0.208,4.231-1.788,5.316c-1.992,1.088-4.424,0.464-5.431-1.387
					c-1.009-1.852-0.209-4.232,1.784-5.316C174.264,208.559,176.696,209.18,177.702,211.031z"/>
			</g>
			<g>
				<g>
					<path fill="#B0C34B" d="M234.782,249.142c-3.983,11.166-14.646,17.566-26.149,13.462
						c-11.504-4.107-16.656-16.146-12.674-27.315c3.986-11.165,15.594-17.227,27.1-13.121
						C234.567,226.273,238.768,237.976,234.782,249.142z"/>
					<path fill="#A4AC38" d="M208.633,262.604c11.504,4.104,22.166-2.296,26.149-13.462c1.567-4.398,1.853-8.872,0.937-12.936
						l-39.474,14.774C198.401,256.176,202.645,260.466,208.633,262.604z"/>
				</g>
				<path fill="#DAE391" d="M213.66,230.144c1.007,1.852,0.209,4.231-1.789,5.316c-1.99,1.087-4.426,0.465-5.432-1.386
					c-1.007-1.853-0.207-4.229,1.785-5.316C210.22,227.674,212.655,228.295,213.66,230.144z"/>
			</g>
			<g>
				<g>
					<path fill="#B0C34B" d="M297.283,232.699c-3.984,11.167-14.648,17.567-26.15,13.462c-11.506-4.106-16.654-16.146-12.676-27.314
						c3.989-11.166,15.596-17.229,27.104-13.121C297.066,209.83,301.269,221.534,297.283,232.699z"/>
					<path fill="#A4AC38" d="M271.133,246.161c11.502,4.105,22.166-2.295,26.15-13.462c1.568-4.396,1.85-8.871,0.934-12.935
						l-39.471,14.773C260.901,239.732,265.146,244.023,271.133,246.161z"/>
				</g>
				<path fill="#DAE391" d="M276.158,213.704c1.008,1.85,0.209,4.229-1.787,5.313c-1.995,1.088-4.428,0.464-5.432-1.384
					c-1.008-1.853-0.207-4.235,1.786-5.316C272.719,211.23,275.153,211.853,276.158,213.704z"/>
			</g>
			<g>
				<g>
					<path fill="#B0C34B" d="M265.267,182.531c-3.983,11.164-14.646,17.564-26.152,13.459c-11.5-4.104-16.656-16.145-12.671-27.313
						c3.986-11.168,15.596-17.229,27.102-13.121C265.049,159.662,269.252,171.364,265.267,182.531z"/>
					<path fill="#A4AC38" d="M239.115,195.99c11.507,4.105,22.169-2.295,26.152-13.459c1.567-4.398,1.853-8.873,0.935-12.939
						l-39.471,14.776C228.883,189.563,233.129,193.853,239.115,195.99z"/>
				</g>
				<path fill="#DAE391" d="M244.144,163.534c1.006,1.849,0.21,4.229-1.788,5.313c-1.992,1.087-4.426,0.467-5.434-1.387
					c-1.004-1.85-0.205-4.229,1.785-5.313C240.702,161.061,243.137,161.683,244.144,163.534z"/>
			</g>
			<g>
				<g>
					<path fill="#B0C34B" d="M290.438,205.037c-3.986,11.167-14.646,17.565-26.154,13.46c-11.504-4.104-16.652-16.146-12.67-27.313
						c3.984-11.166,15.595-17.227,27.098-13.12C290.217,182.167,294.422,193.871,290.438,205.037z"/>
					<path fill="#A4AC38" d="M264.283,218.497c11.508,4.105,22.168-2.293,26.154-13.46c1.566-4.396,1.85-8.872,0.934-12.938
						l-39.473,14.776C254.051,212.07,258.298,216.361,264.283,218.497z"/>
				</g>
				<path fill="#DAE391" d="M269.315,186.04c1.006,1.85,0.207,4.231-1.789,5.314c-1.993,1.085-4.425,0.466-5.434-1.386
					c-1.004-1.852-0.209-4.231,1.789-5.316C265.873,183.568,268.307,184.191,269.315,186.04z"/>
			</g>
			<g>
				<g>
					<path fill="#B0C34B" d="M232.866,213.822c-3.983,11.164-14.649,17.565-26.153,13.46c-11.503-4.103-16.654-16.145-12.67-27.313
						c3.984-11.166,15.592-17.229,27.098-13.122C232.648,190.954,236.852,202.655,232.866,213.822z"/>
					<path fill="#A4AC38" d="M206.713,227.282c11.504,4.105,22.17-2.296,26.153-13.46c1.567-4.396,1.851-8.873,0.934-12.936
						l-39.47,14.774C196.481,220.853,200.727,225.144,206.713,227.282z"/>
				</g>
			</g>
			<g>
				<g>
					<path fill="#B0C34B" d="M235.658,283.945c-3.984,11.165-14.645,17.561-26.15,13.457c-11.504-4.103-16.656-16.145-12.672-27.311
						c3.985-11.168,15.594-17.229,27.098-13.123C235.442,261.074,239.643,272.777,235.658,283.945z"/>
					<path fill="#A4AC38" d="M209.508,297.402c11.506,4.104,22.166-2.292,26.15-13.457c1.57-4.399,1.851-8.873,0.936-12.939
						l-39.473,14.773C199.278,290.975,203.521,295.266,209.508,297.402z"/>
				</g>
				
					<ellipse transform="matrix(0.8783 -0.4781 0.4781 0.8783 -101.9431 133.3288)" fill="#DAE391" cx="210.925" cy="266.91" rx="4.111" ry="3.814"/>
			</g>
			<g>
				<g>
					<path fill="#B0C34B" d="M218.484,185.795c-3.982,11.166-14.646,17.566-26.153,13.459
						c-11.503-4.104-16.654-16.144-12.668-27.313c3.984-11.164,15.595-17.229,27.099-13.121
						C218.266,162.926,222.469,174.629,218.484,185.795z"/>
					<path fill="#A4AC38" d="M192.33,199.254c11.508,4.107,22.171-2.293,26.153-13.459c1.571-4.398,1.851-8.872,0.935-12.938
						l-39.472,14.774C182.102,192.827,186.344,197.118,192.33,199.254z"/>
				</g>
				<path fill="#DAE391" d="M197.363,166.798c1.005,1.851,0.208,4.229-1.788,5.315c-1.994,1.086-4.43,0.465-5.434-1.389
					c-1.007-1.851-0.207-4.23,1.785-5.312C193.922,164.325,196.354,164.947,197.363,166.798z"/>
			</g>
			<g>
				<g>
					<path fill="#B0C34B" d="M271.319,262.638c-3.982,11.168-14.646,17.567-26.15,13.461s-16.656-16.146-12.674-27.313
						c3.985-11.165,15.594-17.228,27.101-13.122C271.101,239.769,275.303,251.472,271.319,262.638z"/>
					<path fill="#A4AC38" d="M245.168,276.099c11.504,4.106,22.168-2.293,26.15-13.461c1.568-4.397,1.852-8.869,0.936-12.937
						l-39.475,14.777C234.934,269.673,239.18,273.964,245.168,276.099z"/>
				</g>
				<path fill="#DAE391" d="M250.197,243.643c1.007,1.851,0.206,4.229-1.788,5.314c-1.994,1.087-4.427,0.465-5.434-1.388
					c-1.008-1.85-0.211-4.229,1.786-5.314S249.188,241.792,250.197,243.643z"/>
			</g>
		</g>
	</g>
</g>
</svg>
