<?xml version="1.0" encoding="utf-8"?>
<!-- Generator: Adobe Illustrator 16.0.3, SVG Export Plug-In . SVG Version: 6.00 Build 0)  -->
<!DOCTYPE svg PUBLIC "-//W3C//DTD SVG 1.1//EN" "http://www.w3.org/Graphics/SVG/1.1/DTD/svg11.dtd">
<svg version="1.1" id="Ebene_1" xmlns="http://www.w3.org/2000/svg" xmlns:xlink="http://www.w3.org/1999/xlink" x="0px" y="0px"
	 width="450px" height="450px" viewBox="0 0 450 450" enable-background="new 0 0 450 450" xml:space="preserve">
<g id="potatoes">
	<g>
		<g>
			<g>
				<path fill="#FBC672" d="M302.479,276.9c18.941-34.201,13.353-67.642-16.018-92.53c-20.816-17.828-47.211-31.94-74.34-33.414
					c-22.672-1.107-39.758,21.94-41.979,43.122c-1.846,22.296,20.086,49.047,34.956,63.902
					c26.398,27.123,69.888,51.629,99.607,16.313"/>
			</g>
			<g opacity="0.3">
				<path fill="#7A6E6C" d="M304.262,273.328c18.076-32.467,11.878-64.692-17.691-89.175c-20.969-17.536-47.379-31.61-74.27-33.565
					c-22.468-1.51-38.929,20.285-40.707,40.585c-1.391,21.376,20.86,47.5,35.88,62.062c26.674,26.566,70.217,50.964,98.943,17.643"
					/>
			</g>
			<g>
				<g>
					<path fill="#7A6E6C" d="M230.7,177.427c-1.368-0.143-1.729-1.103-2.837,0.623C229.954,180.119,230.102,178.75,230.7,177.427"/>
				</g>
				<g>
					<path fill="#7A6E6C" d="M243.354,184.301c-1.367-0.144-2.28-0.24-3.336,1.031c2.092,2.063,2.231,0.696,2.426-1.13"/>
				</g>
				<g>
					<path fill="#7A6E6C" d="M244.411,191.794c-0.963,0.36-1.824-0.191-2.017,1.636c2.182,1.154,2.278,0.237,2.929-1.539"/>
				</g>
				<g>
					<path fill="#7A6E6C" d="M232.305,192.825c-2.185-1.155-5.885-1.084-4.344,1.844c1.126,2.428,2.423-1.125,2.016-1.631"/>
				</g>
				<g>
					<path fill="#7A6E6C" d="M217.798,190.373c-0.503,0.405-1.367-0.146-1.874,0.257c0.915,0.1,1.37,0.148,1.826,0.195
						c0.506-0.405,0.146-1.369-0.358-0.959"/>
				</g>
				<g>
					<path fill="#7A6E6C" d="M218.372,202.428c-0.047,0.455-0.55,0.863-1.058,1.272c1.272,1.058,1.368,0.145,1.871-0.262"/>
				</g>
				<g>
					<path fill="#7A6E6C" d="M234.462,207.353c-0.958,0.363-1.821-0.19-1.967,1.177c1.682,1.562,1.774,0.65,2.787-0.171"/>
				</g>
				<g>
					<path fill="#7A6E6C" d="M245.509,207.597c-0.454-0.048-1.317-0.6-1.967,1.177c2.592,1.658,2.235,0.692,2.833-0.624"/>
				</g>
				<g>
					<path fill="#7A6E6C" d="M204.59,193.127c0.456,0.05,0.048-0.452-1.371-0.139c1.587,2.472,2.089,2.065,3.65,0.386
						c-0.359-0.964-0.862-0.555-1.269-1.063"/>
				</g>
				<g>
					<path fill="#7A6E6C" d="M206.631,178.119c-1.414,0.314-2.785,0.167-3.386,1.491c1.369,0.141,1.369,0.141,2.787-0.173
						c0.098-0.911-0.862-0.552-0.815-1.004"/>
				</g>
				<g>
					<path fill="#7A6E6C" d="M190.202,185.152c-1.512,1.225,0.17,2.783,1.012-0.816"/>
				</g>
				<g>
					<path fill="#7A6E6C" d="M199.781,203.695c-1.366-0.143-1.728-1.103-2.787,0.168c1.275,1.055,1.731,1.104,3.604,0.845
						c0.505-0.409-0.363-0.964-0.363-0.964"/>
				</g>
				<g>
					<path fill="#7A6E6C" d="M211.767,208.191c-0.048,0.456-0.915-0.096-1.01,0.816c1.729,1.106,1.416-0.315,1.973-1.176"/>
				</g>
				<g>
					<path fill="#7A6E6C" d="M222.888,212.127c-0.961,0.363-1.827-0.189-2.018,1.635
						C222.237,213.91,222.379,212.539,222.888,212.127"/>
				</g>
				<g>
					<path fill="#7A6E6C" d="M219.363,171.157c-0.909-0.098-1.127-2.422-1.873,0.265c2.333-0.218,1.369,0.143,2.022-1.638
						c-0.411-0.503-0.914-0.093-0.914-0.093"/>
				</g>
				<g>
					<path fill="#7A6E6C" d="M204.907,168.246c-1.468,0.768-2.282-0.239-2.474,1.587
						C204.305,169.57,203.847,169.521,204.907,168.246c-0.815-1.004-1.319-0.6-2.231-0.697"/>
				</g>
				<g>
					<path fill="#7A6E6C" d="M227.82,160.973c-0.047,0.457-0.959,0.364-1.004,0.82c2.23,0.699,1.414-0.312,1.51-1.225"/>
				</g>
				<g>
					<path fill="#7A6E6C" d="M241.008,162.829c-0.503,0.407-1.367-0.146-1.564,1.68l0.459,0.048l0,0
						c1.009-0.814,0.604-1.321,1.152-2.185"/>
				</g>
				<g>
					<path fill="#7A6E6C" d="M250.948,173.566c-1.778-0.646-2.642-1.203-1.97,1.176c-0.051,0.458,0.861,0.553,0.408,0.507
						c1.055-1.274,0.694-2.235,0.649-1.78"/>
				</g>
				<g>
					<path fill="#7A6E6C" d="M259.617,183.247c-0.407-0.505,0.602-1.323-0.816-1.007l-0.051,0.457c0.363,0.959,0,0,0,0"/>
				</g>
				<g>
					<path fill="#7A6E6C" d="M262.616,194.17c-0.964,0.365-2.279-0.237-1.155,2.19l0,0c0.455,0.049,0.553-0.864,1.012-0.819
						c-0.408-0.503-0.914-0.092-0.914-0.092"/>
				</g>
				<g>
					<path fill="#7A6E6C" d="M261.1,212.93c-0.457-0.049-0.263-1.872-1.369-0.146l1.318,0.604c0.604-1.319,0.557-0.863,0.508-0.409"
						/>
				</g>
			</g>
			<g>
				<g>
					<path fill="#FCDD65" d="M259.807,194.934c-1.367-0.145-1.727-1.104-2.834,0.625
						C259.063,197.624,259.205,196.254,259.807,194.934"/>
				</g>
				<g>
					<path fill="#FCDD65" d="M272.463,201.809c-1.367-0.145-2.279-0.242-3.337,1.028c2.085,2.066,2.231,0.697,2.423-1.127"/>
				</g>
				<g>
					<path fill="#FCDD65" d="M273.52,209.302c-0.961,0.359-1.826-0.195-2.019,1.63c2.188,1.153,2.284,0.243,2.931-1.533"/>
				</g>
				<g>
					<path fill="#FCDD65" d="M261.414,210.332c-2.189-1.154-5.887-1.086-4.346,1.847c1.121,2.427,2.425-1.129,2.014-1.635"/>
				</g>
				<g>
					<path fill="#FCDD65" d="M246.904,207.878c-0.504,0.408-1.365-0.145-1.872,0.264c0.913,0.096,1.37,0.144,1.827,0.19
						c0.502-0.404,0.145-1.368-0.36-0.962"/>
				</g>
				<g>
					<path fill="#FCDD65" d="M247.48,219.936c-0.049,0.454-0.554,0.863-1.06,1.271c1.274,1.057,1.37,0.144,1.871-0.264"/>
				</g>
				<g>
					<path fill="#FCDD65" d="M263.57,224.862c-0.965,0.363-1.826-0.196-1.969,1.176c1.682,1.562,1.776,0.647,2.787-0.168"/>
				</g>
				<g>
					<path fill="#FCDD65" d="M274.619,225.105c-0.457-0.046-1.319-0.6-1.969,1.177c2.595,1.655,2.234,0.692,2.832-0.627"/>
				</g>
				<g>
					<path fill="#FCDD65" d="M233.695,210.635c0.457,0.049,0.051-0.455-1.365-0.143c1.582,2.474,2.085,2.064,3.65,0.388
						c-0.363-0.964-0.867-0.555-1.276-1.061"/>
				</g>
				<g>
					<path fill="#FCDD65" d="M235.739,195.625c-1.413,0.309-2.784,0.168-3.384,1.489c1.365,0.147,1.365,0.147,2.783-0.168
						c0.101-0.912-0.861-0.552-0.813-1.011"/>
				</g>
				<g>
					<path fill="#FCDD65" d="M219.313,202.656c-1.515,1.231,0.166,2.788,1.007-0.809"/>
				</g>
				<g>
					<path fill="#FCDD65" d="M228.893,221.203c-1.373-0.146-1.729-1.105-2.787,0.167c1.271,1.056,1.727,1.103,3.6,0.842
						c0.508-0.404-0.357-0.964-0.357-0.964"/>
				</g>
				<g>
					<path fill="#FCDD65" d="M240.873,225.698c-0.049,0.457-0.911-0.101-1.008,0.813c1.727,1.107,1.414-0.31,1.97-1.177"/>
				</g>
				<g>
					<path fill="#FCDD65" d="M251.993,229.639c-0.959,0.36-1.826-0.19-2.019,1.633C251.343,231.415,251.488,230.045,251.993,229.639
						"/>
				</g>
				<g>
					<path fill="#FCDD65" d="M248.477,188.664c-0.914-0.096-1.131-2.425-1.877,0.262c2.325-0.213,1.369,0.146,2.017-1.629
						c-0.409-0.507-0.911-0.099-0.911-0.099"/>
				</g>
				<g>
					<path fill="#FCDD65" d="M234.011,185.756c-1.461,0.767-2.278-0.241-2.471,1.582
						C233.413,187.078,232.955,187.029,234.011,185.756c-0.813-1.01-1.317-0.603-2.231-0.701"/>
				</g>
				<g>
					<path fill="#FCDD65" d="M256.932,178.481c-0.051,0.46-0.963,0.36-1.014,0.821c2.234,0.696,1.419-0.313,1.52-1.225"/>
				</g>
				<g>
					<path fill="#FCDD65" d="M270.111,180.334c-0.502,0.41-1.364-0.146-1.56,1.683l0.457,0.048l0,0
						c1.009-0.82,0.601-1.322,1.151-2.189"/>
				</g>
				<g>
					<path fill="#FCDD65" d="M280.057,191.073c-1.779-0.65-2.643-1.203-1.97,1.175c-0.051,0.456,0.863,0.552,0.408,0.505
						c1.056-1.272,0.694-2.231,0.651-1.782"/>
				</g>
				<g>
					<path fill="#FCDD65" d="M288.725,200.753c-0.41-0.504,0.596-1.319-0.817-1.008l-0.046,0.46c0.357,0.957,0,0,0,0"/>
				</g>
				<g>
					<path fill="#FCDD65" d="M291.723,211.681c-0.965,0.363-2.279-0.24-1.152,2.188l0,0c0.457,0.053,0.553-0.866,1.012-0.815
						c-0.411-0.507-0.914-0.096-0.914-0.096"/>
				</g>
				<g>
					<path fill="#FCDD65" d="M290.208,230.438c-0.459-0.043-0.269-1.869-1.369-0.141l1.321,0.6c0.602-1.317,0.551-0.862,0.505-0.41"
						/>
				</g>
			</g>
			<g>
				<g>
					<path fill="#FCDD65" d="M267.616,218.124c-1.371-0.142-1.729-1.104-2.834,0.625
						C266.872,220.813,267.018,219.445,267.616,218.124"/>
				</g>
				<g>
					<path fill="#FCDD65" d="M280.27,224.995c-1.367-0.141-2.275-0.241-3.336,1.032c2.09,2.063,2.232,0.695,2.426-1.131"/>
				</g>
				<g>
					<path fill="#FCDD65" d="M281.328,232.492c-0.967,0.357-1.828-0.197-2.018,1.63c2.184,1.155,2.278,0.243,2.93-1.538"/>
				</g>
				<g>
					<path fill="#FCDD65" d="M269.223,233.518c-2.187-1.149-5.885-1.08-4.349,1.851c1.127,2.424,2.428-1.127,2.019-1.632"/>
				</g>
				<g>
					<path fill="#FCDD65" d="M254.715,231.068c-0.502,0.406-1.372-0.146-1.873,0.26c0.909,0.097,1.371,0.146,1.827,0.191
						c0.501-0.403,0.142-1.365-0.362-0.959"/>
				</g>
				<g>
					<path fill="#FCDD65" d="M255.285,243.125c-0.045,0.455-0.549,0.865-1.055,1.268c1.271,1.063,1.365,0.15,1.869-0.261"/>
				</g>
				<g>
					<path fill="#FCDD65" d="M271.379,248.055c-0.962,0.357-1.829-0.197-1.968,1.174c1.677,1.561,1.774,0.648,2.787-0.17"/>
				</g>
				<g>
					<path fill="#FCDD65" d="M282.428,248.294c-0.455-0.046-1.32-0.601-1.973,1.179c2.593,1.658,2.236,0.692,2.835-0.625"/>
				</g>
				<g>
					<path fill="#FCDD65" d="M241.503,233.827c0.457,0.048,0.049-0.457-1.369-0.146c1.587,2.473,2.091,2.063,3.651,0.383
						c-0.359-0.959-0.865-0.554-1.271-1.059"/>
				</g>
				<g>
					<path fill="#FCDD65" d="M243.547,218.817c-1.416,0.311-2.783,0.163-3.386,1.487c1.37,0.145,1.37,0.145,2.786-0.169
						c0.098-0.91-0.864-0.551-0.816-1.007"/>
				</g>
				<g>
					<path fill="#FCDD65" d="M227.119,225.85c-1.514,1.226,0.166,2.784,1.008-0.814"/>
				</g>
				<g>
					<path fill="#FCDD65" d="M236.695,244.393c-1.364-0.146-1.729-1.105-2.783,0.168c1.271,1.059,1.727,1.103,3.602,0.836
						c0.506-0.402-0.361-0.955-0.361-0.955"/>
				</g>
				<g>
					<path fill="#FCDD65" d="M248.684,248.886c-0.051,0.457-0.914-0.097-1.008,0.815c1.727,1.105,1.414-0.313,1.965-1.176"/>
				</g>
				<g>
					<path fill="#FCDD65" d="M259.802,252.826c-0.964,0.363-1.827-0.191-2.021,1.636
						C259.15,254.605,259.296,253.234,259.802,252.826"/>
				</g>
				<g>
					<path fill="#FCDD65" d="M256.279,211.853c-0.915-0.094-1.129-2.423-1.875,0.265c2.332-0.212,1.373,0.149,2.019-1.631
						c-0.411-0.505-0.907-0.094-0.907-0.094"/>
				</g>
				<g>
					<path fill="#FCDD65" d="M241.823,208.948c-1.468,0.767-2.282-0.243-2.476,1.581
						C241.221,210.268,240.766,210.218,241.823,208.948c-0.817-1.015-1.322-0.602-2.237-0.703"/>
				</g>
				<g>
					<path fill="#FCDD65" d="M264.736,201.671c-0.049,0.457-0.965,0.361-1.008,0.819c2.232,0.694,1.416-0.314,1.512-1.223"/>
				</g>
				<g>
					<path fill="#FCDD65" d="M277.921,203.525c-0.503,0.409-1.368-0.143-1.556,1.68l0.451,0.05l0,0
						c1.011-0.82,0.602-1.321,1.152-2.186"/>
				</g>
				<g>
					<path fill="#FCDD65" d="M287.866,214.264c-1.782-0.648-2.644-1.199-1.976,1.177c-0.045,0.454,0.865,0.551,0.406,0.499
						c1.061-1.267,0.702-2.228,0.654-1.772"/>
				</g>
				<g>
					<path fill="#FCDD65" d="M296.532,223.945c-0.406-0.507,0.599-1.322-0.817-1.009l-0.046,0.457c0.36,0.959,0,0,0,0"/>
				</g>
				<g>
					<path fill="#FCDD65" d="M299.528,234.872c-0.96,0.36-2.277-0.24-1.153,2.19l0,0c0.461,0.045,0.554-0.867,1.013-0.821
						c-0.411-0.503-0.916-0.099-0.916-0.099"/>
				</g>
				<g>
					<path fill="#FCDD65" d="M298.015,253.63c-0.458-0.051-0.264-1.873-1.37-0.146l1.322,0.601c0.603-1.317,0.551-0.864,0.501-0.407
						"/>
				</g>
			</g>
			<g>
				<g>
					<path fill="#7A6E6C" d="M281.326,254.216c0.824-1.096,1.839-0.905,0.926-2.745C279.4,252.191,280.501,253.023,281.326,254.216"
						/>
				</g>
				<g>
					<path fill="#7A6E6C" d="M268.907,261.516c0.831-1.099,1.385-1.828,0.839-3.392c-2.85,0.722-1.751,1.556-0.286,2.656"/>
				</g>
				<g>
					<path fill="#7A6E6C" d="M261.943,258.553c0.188-1.009,1.105-1.466-0.358-2.568c-2.112,1.273-1.382,1.83-0.192,3.302"/>
				</g>
				<g>
					<path fill="#7A6E6C" d="M267.307,247.652c2.112-1.277,3.963-4.484,0.662-4.68c-2.666-0.283-0.285,2.661,0.355,2.57"/>
				</g>
				<g>
					<path fill="#7A6E6C" d="M276.893,236.493c-0.088-0.646,0.83-1.103,0.737-1.74c-0.548,0.729-0.825,1.097-1.099,1.462
						c0.087,0.645,1.092,0.829,1,0.189"/>
				</g>
				<g>
					<path fill="#7A6E6C" d="M266.27,230.766c-0.367-0.279-0.455-0.918-0.549-1.565c-1.563,0.55-0.826,1.096-0.738,1.741"/>
				</g>
				<g>
					<path fill="#7A6E6C" d="M253.746,242.006c0.188-1.007,1.105-1.464,0.007-2.296c-2.201,0.635-1.472,1.187-1.295,2.476"/>
				</g>
				<g>
					<path fill="#7A6E6C" d="M247.839,251.346c0.274-0.365,1.196-0.82,0.007-2.299c-2.76,1.369-1.752,1.557-0.925,2.753"/>
				</g>
				<g>
					<path fill="#7A6E6C" d="M281.343,223.753c-0.274,0.366,0.365,0.276,0.829-1.102c-2.934,0.084-2.845,0.725-2.211,2.931
						c1.01,0.188,0.92-0.457,1.561-0.545"/>
				</g>
				<g>
					<path fill="#7A6E6C" d="M293.148,233.249c0.461-1.375,1.291-2.474,0.471-3.671c-0.826,1.102-0.826,1.102-1.291,2.477
						c0.73,0.551,0.919-0.457,1.283-0.181"/>
				</g>
				<g>
					<path fill="#7A6E6C" d="M295.604,215.547c-0.271-1.93-2.477-1.295,0.179,1.284"/>
				</g>
				<g>
					<path fill="#7A6E6C" d="M274.773,214.184c0.83-1.096,1.836-0.91,1.291-2.473c-1.561,0.544-1.84,0.914-2.578,2.652
						c0.088,0.646,1.01,0.188,1.01,0.188"/>
				</g>
				<g>
					<path fill="#7A6E6C" d="M264.739,222.134c-0.362-0.281,0.556-0.734-0.181-1.285c-1.84,0.912-0.465,1.374-0.008,2.292"/>
				</g>
				<g>
					<path fill="#7A6E6C" d="M255.628,229.621c0.188-1.008,1.104-1.462-0.362-2.566C254.438,228.15,255.537,228.98,255.628,229.621"
						/>
				</g>
				<g>
					<path fill="#7A6E6C" d="M292.542,247.748c0.556-0.734,2.662,0.284,0.741-1.743c-1.018,2.106-0.83,1.097,0.359,2.568
						c0.646-0.089,0.555-0.729,0.555-0.729"/>
				</g>
				<g>
					<path fill="#7A6E6C" d="M302.494,236.863c0.099-1.651,1.384-1.834-0.082-2.934
						C301.675,235.663,301.949,235.301,302.494,236.863c1.287-0.178,1.196-0.822,1.754-1.553"/>
				</g>
				<g>
					<path fill="#7A6E6C" d="M296.9,260.242c-0.364-0.276,0.19-1.006-0.178-1.284c-1.75,1.552-0.464,1.378,0.269,1.926"/>
				</g>
				<g>
					<path fill="#7A6E6C" d="M288.516,270.581c-0.09-0.64,0.826-1.093-0.636-2.204l-0.274,0.364l0,0
						c0.177,1.289,0.82,1.2,1.275,2.116"/>
				</g>
				<g>
					<path fill="#7A6E6C" d="M274.184,273.557c1.476-1.19,2.395-1.646,0.01-2.291c-0.361-0.281-0.916,0.453-0.641,0.086
						c0.543,1.563,1.553,1.75,1.189,1.477"/>
				</g>
				<g>
					<path fill="#7A6E6C" d="M261.42,275.988c0.643-0.09,0.82,1.193,1.288-0.178l-0.367-0.278c-1.009-0.188,0,0,0,0"/>
				</g>
				<g>
					<path fill="#7A6E6C" d="M250.508,272.919c0.19-1.008,1.387-1.832-1.273-2.114l0,0c-0.276,0.363,0.453,0.916,0.178,1.287
						c0.641-0.089,0.556-0.732,0.556-0.732"/>
				</g>
				<g>
					<path fill="#7A6E6C" d="M235.225,261.939c0.274-0.362,1.741,0.74,0.83-1.097l-1.197,0.822c0.822,1.196,0.457,0.918,0.09,0.642"
						/>
				</g>
			</g>
		</g>
		<g>
			<g>
				<path fill="#FBC672" d="M212.498,273.521c-3.506,1.182-6.435,6.977-10.236,10.184c-7.305,4.381-16.071,7.33-24.252,9.124
					c-17.238,3.88-43.822,8.979-57.829-3.628c-39.68-33.801,10.905-77.775,44.217-88.989c27.175-9.147,40.312-2.021,50.793,23.324
					c8.741,20.155,11.627,46.127-12.046,56.981"/>
			</g>
			<g opacity="0.3">
				<path fill="#7A6E6C" d="M204.477,279.012c-3.376,1.133-2.303,1.368-5.919,4.567c-6.988,4.333-12.855,6.057-20.747,7.724
					c-16.618,3.614-42.274,8.283-56.101-4.906c-39.144-35.403,8.535-74.47,40.58-85.257c26.14-8.8,39.01-1.234,49.693,24.913
					c8.882,20.806,10.142,45.187-12.57,55.802"/>
			</g>
			<g>
				<path fill="#FCDD65" d="M214.842,269.191c7.379-19.029,5.124-43.195-8.699-59.679c-13.265-14.837-27.591-9.897-43.542-2.69
					c-16.778,7.486-36.566,22.417-35.127,43.07c2.821,22.025,23.043,29.334,42.052,31.207
					C179.447,283.27,204.666,279.918,214.842,269.191"/>
			</g>
			<g opacity="0.5">
				<g>
					<path fill="#7A6E6C" d="M132.076,280.079C133.438,274.657,126.76,279.033,132.076,280.079"/>
				</g>
				<g>
					<path fill="#7A6E6C" d="M143.035,285.254c-0.425-0.213-0.852-0.421-1.595-0.527c0.213,0.638-0.106,0.746-0.102,1.807
						C142.716,286.424,142.501,285.787,143.035,285.254"/>
				</g>
				<g>
					<path fill="#7A6E6C" d="M134.232,290.699c-0.425-0.215-0.64-0.846-1.275-0.635c-0.214,0.429-0.109,0.746-0.212,1.487
						l0.958-0.321"/>
				</g>
				<g>
					<path fill="#7A6E6C" d="M162.39,291.148c-0.532-0.53-0.431-1.275-1.812-1.164c-0.1,0.74-0.1,0.74,0.221,1.699
						c0.316-0.108,0.955-0.326,1.272-0.432"/>
				</g>
				<g>
					<path fill="#7A6E6C" d="M185.438,287.994c0,0,1.269-1.49-0.746-1.166c-1.7,0.219,0.225,4.888,1.493,1.271"/>
				</g>
				<g>
					<path fill="#7A6E6C" d="M117.697,267.902c-0.54-2.656-2.026-1.801-1.274,0.429c0.634-0.212,0.42-0.853,0.739-0.957"/>
				</g>
				<g>
					<path fill="#7A6E6C" d="M115.712,279.916c0.74-0.96,1.162-1.813-0.751-2.229c-0.208,1.487,0.431,1.271,0.853,1.485"/>
				</g>
				<g>
					<path fill="#7A6E6C" d="M125.361,273.832c0.105-0.745,0.634-1.279-0.644-1.911c-0.21,0.425-0.421,0.849-0.634,1.276
						c0.534,0.529,0.639-0.217,1.062-0.002"/>
				</g>
				<g>
					<path fill="#7A6E6C" d="M154.296,285.006c-0.321-0.951-0.964-1.799-2.13-2.115c0.002,1.061,0.11,1.379,0.325,2.018
						c0.852,0.423,0.636-0.217,1.165-0.748"/>
				</g>
				<g>
					<path fill="#7A6E6C" d="M117.075,237.624c-0.426-0.213-0.532-0.529-0.958-0.741c-0.317,1.172,0.11,1.381,0.431,2.338
						c0.64-0.217,0.21-0.429,0.424-0.854"/>
				</g>
				<g>
					<path fill="#7A6E6C" d="M111.06,251.35c-0.537-0.529-0.113-1.382-1.492-0.207c0.325,0.951,1.171,0.312,1.597,0.525"/>
				</g>
				<g>
					<path fill="#7A6E6C" d="M112.177,270.469c-0.641-0.848-0.429-1.271-1.811-1.162c0.22,1.698,0.958,0.739,1.704,0.844"/>
				</g>
				<g>
					<path fill="#7A6E6C" d="M112.512,275.674c-0.321-0.954-0.108-1.38-1.491-1.269c0,1.062,0.428,1.271,0.642,1.905
						c0.532-0.528,0.315-1.168,0.315-1.168"/>
				</g>
				<g>
					<path fill="#7A6E6C" d="M122.216,287.652c-2.029-3.926-2.968,2.771,0.106,0.32"/>
				</g>
				<g>
					<path fill="#7A6E6C" d="M129.465,295.493c0.106-0.739,0.634-1.276-0.962-1.804c-0.524,1.598,0.536,1.596,1.917,1.486"/>
				</g>
				<g>
					<path fill="#7A6E6C" d="M195.313,285.736c0.105,0.316,0.211-0.426-0.213-0.641c-0.109-0.316-0.429-0.209-0.746-0.103
						c0,0,0,0,0.105,0.321c0.217,0.638,0.854,0.422,1.277,0.633"/>
				</g>
				<g>
					<path fill="#7A6E6C" d="M152.414,294.148c-0.337-5.203-3.287,2.879-0.007-1.061"/>
				</g>
			</g>
			<g>
				<g>
					<path fill="#A8CA52" d="M186.329,221.306c0.113,0,0.602-0.218,0.341-0.218C186.558,221.087,186.068,221.306,186.329,221.306
						L186.329,221.306z"/>
				</g>
			</g>
			<g>
				<g>
					<path fill="#A8CA52" d="M214.287,178.879c1.633,6.22,3.169-4.817,1.467-7.917c0.63,0.723,2.097,1.224,2.726,1.945
						c0.089-1.352,1.224-2.093,1.725-3.554c0.436,1.658,1.483,2.271,2.224,3.405c0.719-0.632,1.854-1.374,2.57-2.005
						c-0.609,1.048-0.176,2.704-0.371,3.644c1.136-0.742,2.792-1.176,3.927-1.92c-0.615,1.047-0.595,2.816-1.095,4.277
						c1.44-1.263,2.376-1.068,3.729-0.976c-2.881,2.524-8.182,2.585-8.23,7.469c1.443-1.261,3.102-1.698,5.085-0.886
						c-0.198,0.935,0.021,1.766-0.178,2.703c1.438-1.262,3.204-1.284,4.886,0.047c-0.829,0.217-1.439,1.265-2.161,1.895
						c2.183-0.127,4.146-1.087,5.589-2.349c0.213,0.83,0.959,1.965,1.172,2.795c0.832-0.218,1.875,0.392,2.4,0.697
						c-1.855,1.372-2.141,3.665-0.354,5.41c-1.465-0.503-3.118-0.069-4.885-0.047c1.176,2.792,3.196,7.137-0.943,8.22
						c-1.375-1.855-1.264-1.439-3.144-1.833c0.326,1.241,0.455,3.425,1.196,4.56c-1.264-1.444-2.529-2.88-4.51-3.689
						c0.543,2.07,0.148,3.942-1.186,5.623c-0.955-1.961-1.611-4.45-2.262-6.936c-0.393,1.873-1.833,3.138-3.489,3.571
						c0.719-0.63,1.418-3.031,2.138-3.657c-1.459-0.506-3.442-1.313-4.903-1.816c6.286-4.75-1.979-9.231-5.344-3.474
						c0.897-3.334-1.48-2.271-2.329-3.817c-0.219-0.831,0.067-3.12-0.151-3.95c-1.285-3.207-3.807-6.09-4.265-9.511
						c1.46,0.502,2.398,0.698,3.662,2.142c-1.373-1.855-1.502-4.039-0.168-5.716c0.739,1.136,1.677,1.331,2.115,2.989
						c-0.546-2.074,0.065-3.115,1.089-4.271c1.591,2.682,1.111,5.908,2.7,8.593"/>
				</g>
				<g>
					<path fill="#A8CA52" d="M211.15,211.767c6.355,2.521,9.247-7.774,8.22-12.089c6.214-1.668,9.489-12.092,7.315-17.293
						c3.053,1.514,6.099,1.76,5.478,6.207c2.41-0.385,5.205-0.902,4.437-3.187c0.896,2.663,2.053,7.358-0.609,9.524
						c1.523-0.51,3.172-1.91,4.06-3.06c1.909,3.168,1.039,8.123-2.896,9.029l0,0c2.539-0.008,4.818-0.777,7.234-1.166
						c-1.518,3.05-3.916,7.25-7.727,7.26l0,0c2.283-0.768,5.076-0.014,7.749,0.361c-1.138,2.923-4.05,5.6-7.224,4.975
						c2.801,3.292-0.371,3.937-3.547,3.313c0.893,2.66,1.664,4.946,0.784,7.363c-0.891-0.129-2.036,0.26-3.178-0.627
						c1.401,2.917,0.924,11.555-3.537,7.125c-2.416-2.154-0.913-9.016-4.859-11.927c-5.22-4.174-10.161,0.029-15.375-1.606
						c-4.321-1.509,3.167-3.188,5.45-3.951"/>
				</g>
				<g>
					<path fill="#A8CA52" d="M196.652,198.709c3.412,5.447,1.58-5.545-0.969-7.993c0.822,0.499,2.363,0.54,3.183,1.036
						c-0.318-1.312,0.544-2.358,0.585-3.903c0.909,1.451,2.09,1.723,3.138,2.584c0.498-0.818,1.358-1.864,1.859-2.682
						c-0.271,1.181,0.64,2.632,0.729,3.589c0.864-1.047,2.318-1.958,3.176-3.002c-0.271,1.18,0.277,2.86,0.231,4.408
						c1.001-1.639,1.955-1.731,3.27-2.049c-1.995,3.271-7.033,4.913-5.619,9.588c0.998-1.634,2.45-2.545,4.582-2.367
						c0.093,0.955,0.55,1.679,0.64,2.633c1.001-1.635,2.68-2.184,4.678-1.412c-0.727,0.456-1,1.635-1.495,2.457
						c2.043-0.775,3.629-2.277,4.625-3.915c0.457,0.726,1.5,1.587,1.957,2.311c0.727-0.452,1.907-0.183,2.503-0.046
						c-1.364,1.865-0.952,4.132,1.274,5.266c-1.546-0.042-2.998,0.867-4.675,1.415c1.954,2.314,5.183,5.853,1.552,8.128
						c-1.864-1.36-1.638-0.998-3.544-0.813c0.683,1.094,1.459,3.134,2.508,3.995c-1.638-1-3.275-1.994-5.413-2.171
						c1.14,1.812,1.323,3.72,0.553,5.72c-1.501-1.588-2.866-3.765-4.232-5.942c0.188,1.904-0.815,3.542-2.262,4.451
						c0.498-0.816,0.446-3.317,0.946-4.131c-1.545-0.046-3.681-0.222-5.226-0.271c4.581-6.409-4.644-8.214-6.134-1.718
						c-0.142-3.452-2.094-1.724-3.361-2.947c-0.457-0.727-0.87-2.999-1.327-3.726c-2.182-2.675-5.455-4.669-6.913-7.8
						c1.545,0.043,2.499-0.049,4.134,0.948c-1.863-1.36-2.639-3.404-1.868-5.404c1.046,0.86,2,0.768,2.908,2.218
						c-1.136-1.812-0.866-2.992-0.229-4.402c2.315,2.087,2.821,5.313,5.14,7.397"/>
				</g>
				<g opacity="0.4">
					<path fill="#006946" d="M210.899,210.894c1.012,0.695,1.635,1.78,2.565,2.245c0.152-1.088-0.161-2.019-0.475-2.947
						c1.319,0.076,3.265,1.23,4.274,1.927c-0.233-0.7-0.233-1.473-0.705-2.096c0.934,0.464,1.861,0.928,2.952,1.079
						c-0.467-0.618-0.779-1.547-1.48-2.092l0,0c0.928-0.308,1.392-1.244,2.243-1.784c0.075-1.324,0.849-2.878,0.611-4.347
						c-0.926,1.086-4.792,7.303-5.807,3.508c-0.155,1.084-0.618,2.017-1.471,2.563c-0.933-1.235-1.248-2.943-1.718-4.338
						c-1.007,0.856-1.154,2.717-2.007,4.039c-0.464-0.617-1.321-0.851-1.787-1.467c0.156,0.464,0.466,0.617,0.624,1.083
						c-1.008,0.082-1.862-0.147-2.643-0.922c2.097,0.072,3.267,2.005,3.113,3.871l0,0c0.546-0.701,1.246-0.161,1.631-0.55"/>
				</g>
				<g opacity="0.4">
					<path fill="#006946" d="M224.01,210.623c1.94,0.38,3.114,2.318,4.508,3.399c-0.468-1.391-0.781-3.099-1.947-4.26
						c1.16-0.39,2.4-0.549,3.563-0.94c-0.623-0.309-1.554-0.773-2.561-0.69c1.702-1.094,3.87-1.565,4.565-3.353
						c-0.932,0.313-2.248,1.015-3.492,1.172l0,0l0,0c0.922-2.637,1.465-4.891,1.221-7.913c0.007,2.325-0.913,6.519-3.393,7.611
						c-0.236-0.697-0.703-1.316-0.705-2.091l0,0c0.779,2.322-1.223,6.366-2.771,7.145"/>
				</g>
				<g opacity="0.4">
					<path fill="#006946" d="M226.818,190.521c1.33,3.954-2.146,8.228-5.554,9.636c2.175,0.303,5.349-1.023,5.884-3.276
						c0.699,0.542,0.855,0.23,1.709,0.459c-0.388-0.387-0.623-1.086-0.855-1.782c1.393-0.468,2.786-0.94,4.34-1.719
						c-1.322-0.072-2.33,0.007-3.648-0.07c1.313-1.474,3.096-2.336,4.021-4.196c-0.622,0.463-1.165,0.388-1.781,0.854
						c1.313-1.478,2.396-2.879,3.399-4.51c-1.241,0.16-2.246,1.02-2.707,1.949c-0.396-1.164-0.862-2.557-1.487-3.642
						c0.232,0.701-0.229,1.632-0.226,2.406c-1.479-0.538-2.644-1.699-4.353-2.16c0.077,1.012,0.317,2.481,0.164,3.569
						c-0.854-0.229-1.551,0.003-2.405-0.227c0.39,0.39,0.47,1.396,0.861,1.783c-3.188-1.776-10.013-0.514-12.486,2.13
						C215.419,192.028,224.188,192.699,226.818,190.521"/>
				</g>
			</g>
		</g>
	</g>
</g>
</svg>
