<?xml version="1.0" encoding="utf-8"?>
<!-- Generator: Adobe Illustrator 16.0.0, SVG Export Plug-In . SVG Version: 6.00 Build 0)  -->
<!DOCTYPE svg PUBLIC "-//W3C//DTD SVG 1.1//EN" "http://www.w3.org/Graphics/SVG/1.1/DTD/svg11.dtd">
<svg version="1.1" id="Ebene_1" xmlns="http://www.w3.org/2000/svg" xmlns:xlink="http://www.w3.org/1999/xlink" x="0px" y="0px"
	 width="450px" height="450px" viewBox="0 0 450 450" enable-background="new 0 0 450 450" xml:space="preserve">
<g>
	<g opacity="0.3">
		<path d="M222.541,152.502c-6.045-2.157-10.877-6.033-16.313-9.322c-3.407-2.065-8.009-6.047-12.329-5.952
			c-4.464,0.097-9.645,3.781-13.807,5.313c-5.229,1.927-7.84,3.147-10.461,8.277c-2.614,5.11-2.506,10.939-4.328,16.304
			c-1.619,4.761-4.735,8.486-6.701,13.11c-2.703,6.36-1.764,12.224-0.51,18.645c3.025,15.502,9.327,29.786,12.645,45.269
			c2.384,11.102,2.963,21.726,6.438,32.546c1.721,5.356,1.612,11.021,3.303,16.404c1.227,3.907,1.578,9.666,3.136,13.229
			c1.897,4.334,6.841,3.446,11.522,5.407c5.297,2.217,7.336,6.219,13.92,4.76c8.041-1.782,15.227-7.917,21.615-12.676
			c4.131-3.078,9.314-4.535,13.864-6.952c10.919-5.803,22.636-14.035,28.423-25.731c4.674-9.458,3.076-19.194,3.271-29.232
			c0.182-9.279,7.338-19.915,4.02-28.883c-1.906-5.15-5.731-10.087-8.133-15.116c-1.979-4.161-3.947-8.267-6.555-12.021
			c-3.307-4.759-7.195-6.405-12.092-8.79c-10.055-4.896-14.998-18.43-28.109-21.126"/>
		<path d="M265.296,153.354c-0.779-2.979-3.432-6.001-4.457-8.889c-1.371-3.86,0.587-3.77,0.69-7.594
			c0.085-3.295-2.137-6.906-2.468-10.423c-0.787-8.412-2.924-17.708-2.396-26.035c-0.373-0.3-0.727-0.622-1.025-0.996
			c-0.695-0.396-1.398-0.765-2.111-1.09c-1.244,0.424-2.459,0.946-3.65,1.522c0.014,1.63,0.051,3.243,0.151,4.766
			c-5.024,1.917-0.134,6.516,0.737,10.438c1.018,4.573,2.805,9.956,2.182,14.771c-0.364,2.814-1.988,5.168-3.859,7.209
			c-1.445,1.574-4.607,3.051-5.621,4.424c-1.377,1.863-0.539,5.09-0.902,7.927c-0.483,3.738-1.849,7.351-2.66,11.026
			c5.924,2.365,11.991-11.178,15.783-13.694c1.656,4.923,3.773,10.816,6.92,15.099C263.671,158.501,266.097,156.403,265.296,153.354
			z"/>
		<path d="M249.451,111.782c0.755-0.792,1.687-1.423,2.895-1.761c-0.497-2.461-1.474-4.971-1.729-5.793
			c-0.285-0.924-0.512-1.859-0.711-2.803c0.025,1.088,0.055,2.161,0.124,3.189C246.366,106.014,247.974,108.836,249.451,111.782z"/>
		<path d="M252.081,147.997c-0.992-3.965-1.747-7.563-2.964-10.994c-0.011,0.009-0.02,0.02-0.028,0.03
			c-1.445,1.574-4.607,3.051-5.621,4.424c-1.377,1.863-0.539,5.09-0.902,7.927c-0.483,3.738-1.849,7.351-2.66,11.026
			c4.6,1.836,9.281-5.908,12.92-10.646C252.507,149.272,252.251,148.687,252.081,147.997z"/>
		<path d="M265.296,153.354c-0.491-1.882-1.729-3.78-2.835-5.652c-0.044,0.105-0.079,0.213-0.122,0.32
			c-0.878,2.087-2.853,3.438-4.856,3.731c1.358,3.56,3.007,7.175,5.126,10.062C263.671,158.501,266.097,156.403,265.296,153.354z"/>
		<path d="M173.988,209.084c-5.416,11.174-17.242,16.626-28.758,11.047c-11.512-5.579-15.509-18.701-10.096-29.876
			c5.419-11.174,18.194-16.169,29.71-10.588C176.355,185.249,179.406,197.91,173.988,209.084z"/>
		<path d="M145.23,220.131c11.516,5.58,23.342,0.127,28.758-11.047c2.133-4.401,2.936-9.027,2.439-13.364l-42.771,10.904
			C135.305,212.278,139.24,217.227,145.23,220.131z"/>
		<path d="M154.15,186.908c0.836,2.04-0.264,4.427-2.463,5.329c-2.199,0.905-4.664-0.018-5.503-2.059
			c-0.835-2.042,0.266-4.43,2.465-5.332C150.847,183.943,153.312,184.865,154.15,186.908z"/>
		<path d="M185.635,194.031c-5.414,11.174-17.24,16.628-28.756,11.049c-11.512-5.582-15.51-18.703-10.094-29.878
			c5.418-11.175,18.188-16.169,29.707-10.589C188.006,170.197,191.051,182.86,185.635,194.031z"/>
		<path d="M156.879,205.08c11.516,5.579,23.342,0.125,28.756-11.049c2.134-4.4,2.936-9.029,2.443-13.364l-42.775,10.905
			C146.953,197.224,150.888,202.175,156.879,205.08z"/>
		<ellipse transform="matrix(0.925 -0.38 0.38 0.925 -53.785 74.4995)" cx="161.817" cy="173.489" rx="4.305" ry="3.996"/>
		<path d="M185.09,168.732c-5.416,11.175-17.243,16.626-28.758,11.048c-11.512-5.58-15.51-18.704-10.093-29.877
			c5.416-11.177,18.191-16.17,29.705-10.588C187.459,144.895,190.506,157.557,185.09,168.732z"/>
		<path d="M156.332,179.78c11.515,5.578,23.342,0.127,28.758-11.048c2.131-4.401,2.936-9.028,2.44-13.366l-42.776,10.906
			C146.408,171.922,150.34,176.873,156.332,179.78z"/>
		<path d="M165.253,146.552c0.837,2.042-0.265,4.431-2.466,5.333c-2.198,0.904-4.66-0.018-5.502-2.06
			c-0.834-2.042,0.267-4.431,2.465-5.333C161.951,143.59,164.414,144.514,165.253,146.552z"/>
		<path d="M216.429,148.444c-5.414,11.172-17.244,16.623-28.758,11.045c-11.512-5.58-15.509-18.701-10.093-29.879
			c5.417-11.174,18.192-16.168,29.704-10.585C218.799,124.605,221.845,137.268,216.429,148.444z"/>
		<path d="M187.672,159.489c11.514,5.578,23.344,0.127,28.758-11.045c2.134-4.402,2.936-9.029,2.441-13.366l-42.773,10.905
			C177.747,151.634,181.682,156.583,187.672,159.489z"/>
		<path d="M196.592,126.263c0.841,2.042-0.263,4.429-2.467,5.331c-2.195,0.906-4.662-0.016-5.497-2.058
			c-0.837-2.042,0.263-4.431,2.464-5.334C193.293,123.298,195.754,124.223,196.592,126.263z"/>
		<path d="M267.799,239.311c-4.354,11.629-15.624,18.16-27.605,13.674c-11.981-4.485-17.182-17.178-12.83-28.806
			c4.356-11.633,16.61-17.793,28.595-13.307C267.941,215.359,272.15,227.681,267.799,239.311z"/>
		<path d="M240.194,252.985c11.981,4.486,23.251-2.045,27.605-13.674c1.712-4.58,2.083-9.261,1.188-13.531l-41.579,14.833
			C229.581,246.088,233.958,250.651,240.194,252.985z"/>
		<path d="M180.736,251.763c-5.416,11.175-17.243,16.629-28.759,11.047c-11.511-5.579-15.507-18.701-10.093-29.876
			c5.417-11.174,18.192-16.168,29.705-10.586C183.105,227.927,186.151,240.589,180.736,251.763z"/>
		<path d="M151.977,262.81c11.516,5.582,23.343,0.128,28.759-11.047c2.131-4.401,2.935-9.029,2.439-13.365l-42.773,10.905
			C142.053,254.957,145.988,259.907,151.977,262.81z"/>
		<path d="M160.897,229.586c0.841,2.04-0.265,4.43-2.466,5.333c-2.195,0.903-4.661-0.019-5.498-2.063
			c-0.836-2.041,0.265-4.429,2.463-5.331C157.596,226.621,160.062,227.546,160.897,229.586z"/>
		<path d="M296.907,181.007c-5.417,11.175-17.244,16.627-28.759,11.048c-11.511-5.578-15.509-18.703-10.093-29.879
			c5.417-11.172,18.191-16.167,29.705-10.588C299.274,157.17,302.323,169.832,296.907,181.007z"/>
		<path d="M268.149,192.055c11.515,5.579,23.342,0.127,28.759-11.048c2.131-4.4,2.934-9.027,2.438-13.363l-42.773,10.904
			C258.224,184.2,262.156,189.151,268.149,192.055z"/>
		<path d="M277.068,158.829c0.842,2.042-0.262,4.429-2.465,5.332c-2.197,0.905-4.662-0.018-5.498-2.06s0.262-4.43,2.463-5.33
			C273.768,155.865,276.23,156.79,277.068,158.829z"/>
		<path d="M245.974,164.836c-5.416,11.172-17.244,16.623-28.757,11.044c-11.512-5.58-15.51-18.701-10.097-29.877
			c5.421-11.176,18.194-16.171,29.709-10.589C248.343,140.995,251.389,153.658,245.974,164.836z"/>
		<path d="M217.217,175.88c11.513,5.579,23.341,0.128,28.757-11.044c2.133-4.404,2.934-9.031,2.44-13.366l-42.774,10.904
			C207.291,168.025,211.228,172.975,217.217,175.88z"/>
		<path d="M226.136,142.655c0.84,2.043-0.262,4.427-2.464,5.332c-2.197,0.906-4.66-0.018-5.498-2.06
			c-0.838-2.043,0.265-4.431,2.461-5.332C222.838,139.691,225.299,140.613,226.136,142.655z"/>
		<path d="M196.763,275.271c-5.418,11.174-17.244,16.627-28.758,11.047c-11.512-5.581-15.509-18.703-10.094-29.877
			c5.416-11.174,18.191-16.169,29.706-10.587C199.131,251.432,202.179,264.096,196.763,275.271z"/>
		<path d="M168.006,286.318c11.514,5.58,23.34,0.127,28.758-11.047c2.133-4.401,2.935-9.029,2.44-13.365l-42.773,10.903
			C158.08,278.464,162.015,283.413,168.006,286.318z"/>
		<path d="M176.927,253.093c0.839,2.041-0.265,4.428-2.467,5.331c-2.198,0.907-4.661-0.018-5.497-2.06
			c-0.838-2.042,0.26-4.427,2.461-5.329C173.625,250.129,176.088,251.052,176.927,253.093z"/>
		<path d="M324.099,217.585c-5.417,11.17-17.246,16.624-28.762,11.045c-11.51-5.579-15.506-18.702-10.094-29.877
			c5.42-11.175,18.195-16.169,29.709-10.588C326.466,193.747,329.511,206.409,324.099,217.585z"/>
		<path d="M295.337,228.631c11.516,5.578,23.345,0.125,28.762-11.045c2.133-4.403,2.933-9.028,2.439-13.366l-42.775,10.905
			C285.413,220.776,289.349,225.725,295.337,228.631z"/>
		<ellipse transform="matrix(0.925 -0.38 0.38 0.925 -52.3538 128.8999)" cx="300.277" cy="197.042" rx="4.305" ry="3.994"/>
		<path d="M254.663,297.746c-5.416,11.175-17.24,16.626-28.758,11.047c-11.509-5.58-15.505-18.702-10.093-29.879
			c5.418-11.172,18.195-16.166,29.707-10.588C257.032,273.909,260.079,286.572,254.663,297.746z"/>
		<path d="M225.906,308.793c11.518,5.579,23.342,0.128,28.758-11.047c2.135-4.401,2.936-9.028,2.441-13.365l-42.773,10.905
			C215.982,300.939,219.916,305.889,225.906,308.793z"/>
		<path d="M234.825,275.567c0.839,2.042-0.262,4.43-2.463,5.333c-2.199,0.904-4.662-0.02-5.502-2.06
			c-0.836-2.043,0.268-4.432,2.463-5.334C231.527,272.603,233.986,273.529,234.825,275.567z"/>
		<path d="M232.286,324.771c-5.416,11.175-17.242,16.625-28.757,11.047c-11.512-5.58-15.508-18.699-10.094-29.878
			c5.418-11.173,18.192-16.168,29.707-10.587C234.653,300.935,237.701,313.594,232.286,324.771z"/>
		<path d="M203.529,335.818c11.516,5.578,23.341,0.128,28.757-11.047c2.134-4.401,2.934-9.029,2.439-13.365l-42.771,10.905
			C193.603,327.964,197.537,332.913,203.529,335.818z"/>
		<path d="M202.919,310.988c-5.413,11.173-17.24,16.627-28.759,11.049c-11.508-5.583-15.505-18.702-10.092-29.879
			c5.418-11.173,18.193-16.168,29.705-10.588C205.289,287.152,208.336,299.813,202.919,310.988z"/>
		<path d="M174.16,322.037c11.519,5.578,23.346,0.124,28.759-11.049c2.134-4.398,2.937-9.027,2.444-13.363l-42.775,10.903
			C164.238,314.182,168.174,319.131,174.16,322.037z"/>
		<path d="M183.083,288.811c0.839,2.042-0.263,4.427-2.466,5.331c-2.199,0.903-4.664-0.02-5.498-2.059
			c-0.84-2.043,0.264-4.43,2.461-5.332C179.78,285.845,182.245,286.769,183.083,288.811z"/>
		<path d="M300.648,280.51c-5.416,11.173-17.242,16.627-28.758,11.047c-11.512-5.58-15.508-18.701-10.095-29.879
			c5.417-11.173,18.192-16.166,29.705-10.587C303.016,256.672,306.062,269.334,300.648,280.51z"/>
		<path d="M271.89,291.556c11.516,5.58,23.342,0.126,28.758-11.047c2.133-4.401,2.933-9.029,2.441-13.364l-42.777,10.903
			C261.967,283.701,265.901,288.652,271.89,291.556z"/>
		<path d="M200.581,343.12c-5.417,11.175-17.243,16.627-28.759,11.047c-11.51-5.58-15.506-18.701-10.094-29.878
			c5.418-11.172,18.193-16.167,29.707-10.586S205.996,331.946,200.581,343.12z"/>
		<path d="M171.822,354.167c11.516,5.58,23.342,0.128,28.759-11.047c2.136-4.399,2.935-9.027,2.442-13.363l-42.777,10.903
			C161.896,346.314,165.834,351.264,171.822,354.167z"/>
		<path d="M180.744,320.941c0.838,2.043-0.264,4.428-2.467,5.333c-2.198,0.906-4.661-0.02-5.498-2.059
			c-0.84-2.043,0.262-4.432,2.465-5.333C177.441,317.976,179.907,318.902,180.744,320.941z"/>
		<path d="M200.142,234.501c-5.418,11.172-17.246,16.628-28.76,11.046c-11.512-5.58-15.508-18.702-10.094-29.875
			c5.416-11.175,18.193-16.169,29.705-10.588C202.51,210.662,205.554,223.326,200.142,234.501z"/>
		<path d="M171.383,245.547c11.514,5.582,23.342,0.126,28.76-11.046c2.131-4.401,2.932-9.028,2.439-13.365l-42.777,10.905
			C161.457,237.695,165.392,242.641,171.383,245.547z"/>
		<path d="M180.302,212.323c0.84,2.041-0.264,4.429-2.466,5.331c-2.198,0.907-4.658-0.018-5.497-2.06
			c-0.84-2.041,0.264-4.43,2.461-5.333C177.003,209.359,179.465,210.281,180.302,212.323z"/>
		<path d="M235.409,258.482c-5.414,11.174-17.242,16.628-28.755,11.049c-11.512-5.582-15.51-18.702-10.096-29.879
			c5.418-11.174,18.192-16.167,29.706-10.587C237.781,234.645,240.825,247.308,235.409,258.482z"/>
		<path d="M206.654,269.531c11.514,5.579,23.341,0.125,28.755-11.049c2.133-4.402,2.936-9.028,2.442-13.363l-42.776,10.903
			C196.73,261.676,200.663,266.625,206.654,269.531z"/>
		<path d="M215.574,236.303c0.838,2.042-0.264,4.43-2.467,5.333c-2.197,0.905-4.662-0.019-5.498-2.06
			c-0.838-2.043,0.264-4.428,2.462-5.333C212.271,233.341,214.736,234.263,215.574,236.303z"/>
		<path d="M302.353,248.454c-5.416,11.176-17.246,16.629-28.757,11.049c-11.513-5.581-15.509-18.7-10.097-29.878
			c5.42-11.173,18.193-16.168,29.709-10.586C304.721,224.618,307.769,237.281,302.353,248.454z"/>
		<path d="M273.596,259.503c11.511,5.58,23.341,0.127,28.757-11.049c2.132-4.398,2.934-9.026,2.441-13.361l-42.775,10.902
			C263.671,251.648,267.605,256.597,273.596,259.503z"/>
		<path d="M282.513,226.278c0.839,2.041-0.264,4.429-2.465,5.33c-2.199,0.906-4.662-0.019-5.498-2.058
			c-0.838-2.043,0.265-4.432,2.464-5.332C279.212,223.313,281.675,224.239,282.513,226.278z"/>
		<path d="M274.71,192.585c-5.414,11.173-17.242,16.627-28.758,11.046c-11.509-5.579-15.51-18.701-10.093-29.876
			c5.417-11.176,18.193-16.169,29.705-10.587C277.079,168.748,280.128,181.41,274.71,192.585z"/>
		<path d="M245.952,203.631c11.516,5.581,23.344,0.127,28.758-11.046c2.131-4.402,2.937-9.028,2.441-13.366l-42.774,10.905
			C236.029,195.778,239.962,200.727,245.952,203.631z"/>
		<path d="M254.872,170.407c0.838,2.04-0.262,4.428-2.465,5.33c-2.197,0.906-4.66-0.017-5.5-2.061
			c-0.836-2.04,0.266-4.428,2.463-5.329C251.57,167.443,254.034,168.366,254.872,170.407z"/>
		<path d="M298.364,218.876c-5.417,11.174-17.243,16.625-28.759,11.045c-11.514-5.578-15.508-18.701-10.092-29.876
			c5.415-11.174,18.191-16.167,29.703-10.586C300.731,195.037,303.78,207.701,298.364,218.876z"/>
		<path d="M269.605,229.922c11.516,5.58,23.342,0.129,28.759-11.045c2.131-4.401,2.935-9.028,2.44-13.366l-42.775,10.905
			C259.68,222.069,263.615,227.018,269.605,229.922z"/>
		<ellipse transform="matrix(0.9251 -0.3798 0.3798 0.9251 -54.7521 119.1197)" cx="274.543" cy="198.334" rx="4.306" ry="3.994"/>
		<path d="M237.423,221.489c-5.416,11.172-17.246,16.626-28.759,11.046c-11.511-5.577-15.508-18.7-10.092-29.876
			c5.416-11.175,18.19-16.17,29.704-10.588C239.79,197.653,242.839,210.314,237.423,221.489z"/>
		<path d="M208.664,232.535c11.514,5.58,23.343,0.126,28.759-11.046c2.131-4.398,2.934-9.028,2.439-13.363L197.09,219.03
			C198.74,224.68,202.674,229.631,208.664,232.535z"/>
		<path d="M232.372,294.818c-5.416,11.173-17.243,16.623-28.757,11.045c-11.512-5.578-15.509-18.701-10.094-29.876
			c5.418-11.175,18.191-16.169,29.705-10.588C234.741,270.98,237.787,283.642,232.372,294.818z"/>
		<path d="M203.615,305.863c11.515,5.578,23.341,0.128,28.757-11.045c2.133-4.402,2.934-9.028,2.441-13.366l-42.775,10.903
			C193.693,298.01,197.625,302.959,203.615,305.863z"/>
		<ellipse transform="matrix(0.925 -0.38 0.38 0.925 -88.587 99.836)" cx="208.552" cy="274.275" rx="4.305" ry="3.994"/>
		<path d="M225.628,190.674c-5.414,11.174-17.242,16.628-28.758,11.045c-11.511-5.578-15.509-18.698-10.091-29.875
			c5.416-11.173,18.193-16.169,29.705-10.587C227.997,166.838,231.045,179.5,225.628,190.674z"/>
		<path d="M196.87,201.719c11.517,5.583,23.345,0.129,28.758-11.045c2.135-4.401,2.934-9.027,2.442-13.365l-42.776,10.903
			C186.949,193.866,190.88,198.817,196.87,201.719z"/>
		<path d="M205.793,168.496c0.838,2.041-0.263,4.428-2.465,5.331c-2.199,0.905-4.664-0.018-5.5-2.062
			c-0.838-2.041,0.264-4.428,2.461-5.328C202.491,165.531,204.953,166.455,205.793,168.496z"/>
		<path d="M271.92,276.681c-5.415,11.176-17.244,16.629-28.758,11.048c-11.512-5.581-15.509-18.702-10.095-29.878
			c5.416-11.173,18.191-16.168,29.707-10.587C274.288,252.844,277.335,265.507,271.92,276.681z"/>
		<path d="M243.162,287.729c11.514,5.581,23.343,0.128,28.758-11.048c2.132-4.401,2.934-9.025,2.44-13.364l-42.776,10.906
			C233.238,279.876,237.171,284.825,243.162,287.729z"/>
		<path d="M252.082,254.506c0.839,2.041-0.265,4.426-2.465,5.33c-2.198,0.906-4.661-0.019-5.5-2.061
			c-0.838-2.041,0.261-4.428,2.464-5.331C248.782,251.54,251.242,252.463,252.082,254.506z"/>
	</g>
	<g>
		<g>
			<path fill="#768612" d="M216.871,146.833c-6.045-2.157-10.877-6.033-16.313-9.322c-3.407-2.065-8.009-6.047-12.329-5.952
				c-4.464,0.097-9.645,3.781-13.807,5.313c-5.229,1.927-7.84,3.147-10.461,8.277c-2.614,5.11-2.506,10.939-4.328,16.304
				c-1.619,4.761-4.735,8.486-6.701,13.11c-2.703,6.36-1.764,12.224-0.51,18.645c3.025,15.502,9.327,29.786,12.645,45.27
				c2.384,11.102,2.963,21.726,6.438,32.546c1.721,5.356,1.612,11.021,3.303,16.404c1.227,3.907,1.578,9.666,3.136,13.229
				c1.897,4.334,6.841,3.446,11.522,5.407c5.297,2.217,7.336,6.219,13.92,4.76c8.041-1.782,15.227-7.917,21.615-12.676
				c4.131-3.078,9.314-4.535,13.864-6.952c10.919-5.803,22.636-14.035,28.423-25.731c4.674-9.458,3.076-19.194,3.271-29.232
				c0.182-9.279,7.338-19.915,4.02-28.884c-1.906-5.15-5.731-10.087-8.133-15.116c-1.979-4.161-3.947-8.267-6.555-12.021
				c-3.307-4.759-7.195-6.405-12.092-8.79c-10.055-4.896-14.998-18.43-28.109-21.126"/>
			<g>
				<path fill="#82734A" d="M259.627,147.684c-0.779-2.979-3.432-6.001-4.457-8.889c-1.371-3.86,0.587-3.77,0.69-7.594
					c0.085-3.295-2.137-6.906-2.468-10.423c-0.787-8.412-2.924-17.708-2.396-26.035c-0.373-0.3-0.727-0.622-1.025-0.996
					c-0.695-0.396-1.398-0.765-2.111-1.09c-1.244,0.424-2.459,0.946-3.65,1.522c0.014,1.63,0.051,3.243,0.151,4.766
					c-5.024,1.917-0.134,6.516,0.737,10.438c1.018,4.573,2.805,9.956,2.182,14.771c-0.364,2.814-1.988,5.168-3.859,7.209
					c-1.445,1.574-4.607,3.051-5.621,4.424c-1.377,1.863-0.539,5.09-0.902,7.927c-0.483,3.738-1.849,7.351-2.66,11.026
					c5.924,2.365,11.991-11.178,15.783-13.694c1.656,4.923,3.773,10.816,6.92,15.099
					C258.002,152.832,260.428,150.733,259.627,147.684z"/>
				<path fill="#644E35" d="M243.782,106.113c0.755-0.792,1.687-1.423,2.895-1.761c-0.497-2.461-1.474-4.971-1.729-5.793
					c-0.285-0.924-0.512-1.859-0.711-2.803c0.025,1.088,0.055,2.161,0.124,3.189C240.698,100.344,242.305,103.167,243.782,106.113z"
					/>
				<path fill="#644E35" d="M246.412,142.328c-0.992-3.965-1.747-7.563-2.964-10.994c-0.011,0.009-0.02,0.02-0.028,0.03
					c-1.445,1.574-4.607,3.051-5.621,4.424c-1.377,1.863-0.539,5.09-0.902,7.927c-0.483,3.738-1.849,7.351-2.66,11.026
					c4.6,1.836,9.281-5.908,12.92-10.646C246.838,143.602,246.582,143.017,246.412,142.328z"/>
				<path fill="#644E35" d="M259.627,147.684c-0.491-1.882-1.729-3.78-2.835-5.652c-0.044,0.105-0.079,0.213-0.122,0.32
					c-0.878,2.087-2.853,3.438-4.856,3.731c1.358,3.56,3.007,7.175,5.126,10.062C258.002,152.832,260.428,150.733,259.627,147.684z"
					/>
			</g>
			<g>
				<g>
					<path fill="#96A32C" d="M168.319,203.415c-5.416,11.174-17.242,16.627-28.758,11.047
						c-11.512-5.579-15.509-18.701-10.096-29.876c5.419-11.174,18.194-16.169,29.71-10.588
						C170.686,179.58,173.737,192.241,168.319,203.415z"/>
					<path fill="#809721" d="M139.561,214.462c11.516,5.58,23.342,0.127,28.758-11.047c2.133-4.401,2.936-9.027,2.439-13.364
						l-42.771,10.904C129.636,206.608,133.571,211.557,139.561,214.462z"/>
				</g>
				<path fill="#DBE492" d="M148.481,181.239c0.836,2.04-0.264,4.427-2.463,5.329c-2.199,0.905-4.664-0.018-5.503-2.059
					c-0.835-2.042,0.266-4.43,2.465-5.332C145.178,178.273,147.643,179.196,148.481,181.239z"/>
			</g>
			<g>
				<g>
					<path fill="#B1C44B" d="M179.965,188.362c-5.414,11.174-17.24,16.628-28.756,11.049c-11.512-5.582-15.51-18.703-10.094-29.878
						c5.418-11.175,18.188-16.169,29.707-10.589C182.336,164.527,185.381,177.19,179.965,188.362z"/>
					<path fill="#AAA822" d="M151.209,199.411c11.516,5.579,23.342,0.125,28.756-11.049c2.134-4.4,2.936-9.029,2.443-13.364
						l-42.775,10.905C141.283,191.554,145.219,196.506,151.209,199.411z"/>
				</g>
				
					<ellipse transform="matrix(0.925 -0.38 0.38 0.925 -52.056 71.92)" fill="#DBE492" cx="156.147" cy="167.819" rx="4.305" ry="3.996"/>
			</g>
			<g>
				<g>
					<path fill="#B1C44B" d="M179.42,163.062c-5.416,11.175-17.243,16.626-28.758,11.048c-11.512-5.58-15.51-18.704-10.093-29.877
						c5.416-11.177,18.191-16.17,29.705-10.588C181.789,139.225,184.836,151.887,179.42,163.062z"/>
					<path fill="#AAA822" d="M150.662,174.11c11.515,5.578,23.342,0.127,28.758-11.048c2.131-4.401,2.936-9.028,2.44-13.366
						l-42.776,10.906C140.739,166.253,144.67,171.204,150.662,174.11z"/>
				</g>
				<path fill="#DBE492" d="M159.583,140.883c0.837,2.042-0.265,4.431-2.466,5.333c-2.198,0.904-4.66-0.018-5.502-2.06
					c-0.834-2.042,0.267-4.431,2.465-5.333C156.281,137.921,158.744,138.844,159.583,140.883z"/>
			</g>
			<g>
				<g>
					<path fill="#B1C44B" d="M210.76,142.774c-5.414,11.172-17.244,16.623-28.758,11.045c-11.512-5.58-15.509-18.701-10.093-29.879
						c5.417-11.174,18.192-16.168,29.704-10.585C213.129,118.935,216.176,131.598,210.76,142.774z"/>
					<path fill="#AAA822" d="M182.002,153.819c11.514,5.578,23.344,0.127,28.758-11.045c2.134-4.402,2.936-9.029,2.441-13.366
						l-42.773,10.905C172.077,145.965,176.013,150.914,182.002,153.819z"/>
				</g>
				<path fill="#DBE492" d="M190.922,120.594c0.841,2.042-0.263,4.429-2.467,5.331c-2.195,0.906-4.662-0.016-5.497-2.058
					c-0.837-2.042,0.263-4.431,2.464-5.334C187.623,117.629,190.084,118.553,190.922,120.594z"/>
			</g>
			<g>
				<g>
					<path fill="#96A32C" d="M262.13,233.642c-4.354,11.629-15.624,18.16-27.605,13.674c-11.981-4.485-17.183-17.178-12.83-28.807
						c4.356-11.633,16.61-17.793,28.595-13.307C262.272,209.689,266.481,222.012,262.13,233.642z"/>
					<path fill="#809721" d="M234.525,247.316c11.981,4.486,23.251-2.045,27.605-13.674c1.712-4.58,2.083-9.261,1.188-13.531
						l-41.579,14.833C223.912,240.419,228.289,244.982,234.525,247.316z"/>
				</g>
			</g>
			<g>
				<g>
					<path fill="#B1C44B" d="M175.067,246.094c-5.416,11.175-17.243,16.629-28.759,11.047
						c-11.511-5.579-15.507-18.701-10.093-29.876c5.417-11.175,18.192-16.169,29.705-10.587
						C177.436,222.258,180.482,234.92,175.067,246.094z"/>
					<path fill="#AAA822" d="M146.308,257.141c11.516,5.582,23.343,0.128,28.759-11.047c2.131-4.401,2.935-9.029,2.439-13.365
						l-42.773,10.905C136.384,249.288,140.319,254.238,146.308,257.141z"/>
				</g>
				<path fill="#DBE492" d="M155.228,223.917c0.841,2.04-0.265,4.43-2.466,5.333c-2.195,0.903-4.661-0.019-5.498-2.063
					c-0.836-2.041,0.265-4.429,2.463-5.331C151.927,220.952,154.393,221.877,155.228,223.917z"/>
			</g>
			<g>
				<g>
					<path fill="#B1C44B" d="M291.239,175.338c-5.417,11.175-17.244,16.627-28.759,11.048
						c-11.511-5.578-15.509-18.703-10.093-29.879c5.417-11.172,18.191-16.167,29.705-10.588
						C293.605,151.501,296.655,164.163,291.239,175.338z"/>
					<path fill="#AAA822" d="M262.48,186.385c11.515,5.579,23.342,0.127,28.759-11.048c2.131-4.4,2.934-9.027,2.438-13.363
						l-42.773,10.904C252.555,178.531,256.487,183.481,262.48,186.385z"/>
				</g>
				<path fill="#DBE492" d="M271.399,153.16c0.842,2.042-0.262,4.429-2.465,5.332c-2.197,0.905-4.662-0.018-5.498-2.06
					s0.262-4.43,2.463-5.33C268.099,150.196,270.561,151.121,271.399,153.16z"/>
			</g>
			<g>
				<g>
					<path fill="#B1C44B" d="M240.305,159.167c-5.416,11.172-17.244,16.623-28.758,11.044c-11.512-5.58-15.51-18.701-10.097-29.877
						c5.421-11.176,18.194-16.171,29.71-10.589C242.674,135.326,245.72,147.989,240.305,159.167z"/>
					<path fill="#AAA822" d="M211.547,170.211c11.514,5.579,23.342,0.128,28.758-11.044c2.133-4.404,2.934-9.031,2.44-13.366
						l-42.774,10.904C201.621,162.355,205.559,167.305,211.547,170.211z"/>
				</g>
				<path fill="#DBE492" d="M220.467,136.985c0.84,2.043-0.262,4.427-2.465,5.332c-2.197,0.906-4.66-0.018-5.498-2.06
					c-0.838-2.043,0.265-4.431,2.461-5.332C217.168,134.021,219.629,134.943,220.467,136.985z"/>
			</g>
			<g>
				<g>
					<path fill="#B1C44B" d="M191.094,269.602c-5.418,11.174-17.244,16.627-28.758,11.047
						c-11.512-5.581-15.509-18.703-10.094-29.877c5.416-11.174,18.191-16.169,29.706-10.587
						C193.461,245.763,196.51,258.427,191.094,269.602z"/>
					<path fill="#AAA822" d="M162.336,280.649c11.514,5.58,23.34,0.127,28.758-11.047c2.133-4.401,2.935-9.029,2.44-13.365
						l-42.773,10.903C152.41,272.795,156.346,277.744,162.336,280.649z"/>
				</g>
				<path fill="#DBE492" d="M171.257,247.424c0.839,2.041-0.265,4.428-2.467,5.331c-2.198,0.907-4.661-0.018-5.497-2.06
					c-0.838-2.042,0.26-4.427,2.461-5.329C167.955,244.46,170.418,245.384,171.257,247.424z"/>
			</g>
			<g>
				<g>
					<path fill="#B1C44B" d="M318.43,211.916c-5.417,11.171-17.246,16.624-28.762,11.046c-11.51-5.579-15.506-18.702-10.094-29.878
						c5.42-11.175,18.195-16.169,29.709-10.588C320.797,188.078,323.842,200.74,318.43,211.916z"/>
					<path fill="#AAA822" d="M289.668,222.962c11.516,5.578,23.345,0.125,28.762-11.046c2.133-4.403,2.933-9.028,2.439-13.366
						l-42.775,10.905C279.744,215.106,283.68,220.056,289.668,222.962z"/>
				</g>
				
					<ellipse transform="matrix(0.925 -0.38 0.38 0.925 -50.6245 126.3201)" fill="#DBE492" cx="294.608" cy="191.372" rx="4.305" ry="3.994"/>
			</g>
			<g>
				<g>
					<path fill="#96A32C" d="M248.994,292.077c-5.416,11.175-17.24,16.626-28.758,11.047c-11.51-5.58-15.506-18.702-10.094-29.879
						c5.418-11.172,18.195-16.166,29.707-10.588C251.364,268.24,254.41,280.903,248.994,292.077z"/>
					<path fill="#809721" d="M220.237,303.124c11.518,5.579,23.342,0.128,28.758-11.047c2.135-4.401,2.936-9.028,2.441-13.365
						l-42.773,10.905C210.313,295.27,214.246,300.22,220.237,303.124z"/>
				</g>
				<path fill="#DBE492" d="M229.156,269.898c0.839,2.042-0.262,4.43-2.463,5.333c-2.199,0.904-4.662-0.02-5.502-2.06
					c-0.836-2.043,0.268-4.432,2.463-5.334C225.858,266.934,228.317,267.86,229.156,269.898z"/>
			</g>
			<g>
				<g>
					<path fill="#96A32C" d="M226.617,319.102c-5.416,11.175-17.242,16.625-28.758,11.047c-11.512-5.58-15.508-18.699-10.094-29.878
						c5.418-11.173,18.192-16.168,29.707-10.587C228.984,295.266,232.032,307.926,226.617,319.102z"/>
					<path fill="#809721" d="M197.86,330.149c11.516,5.578,23.342,0.128,28.758-11.047c2.134-4.401,2.934-9.029,2.439-13.365
						l-42.771,10.905C187.934,322.295,191.867,327.244,197.86,330.149z"/>
				</g>
			</g>
			<g>
				<g>
					<path fill="#B1C44B" d="M197.249,305.319c-5.413,11.173-17.24,16.627-28.759,11.049c-11.508-5.583-15.505-18.702-10.092-29.879
						c5.418-11.173,18.193-16.168,29.705-10.588C199.619,281.483,202.666,294.144,197.249,305.319z"/>
					<path fill="#AAA822" d="M168.49,316.368c11.519,5.578,23.346,0.124,28.759-11.049c2.134-4.398,2.937-9.027,2.444-13.363
						l-42.775,10.903C158.569,308.513,162.504,313.462,168.49,316.368z"/>
				</g>
				<path fill="#DBE492" d="M177.413,283.142c0.839,2.042-0.263,4.427-2.466,5.331c-2.199,0.903-4.664-0.02-5.498-2.059
					c-0.84-2.043,0.264-4.43,2.461-5.332C174.111,280.177,176.575,281.1,177.413,283.142z"/>
			</g>
			<g>
				<g>
					<path fill="#96A32C" d="M294.979,274.841c-5.416,11.173-17.242,16.627-28.758,11.047c-11.512-5.58-15.508-18.701-10.095-29.879
						c5.417-11.173,18.192-16.166,29.705-10.587C297.347,251.003,300.393,263.665,294.979,274.841z"/>
					<path fill="#809721" d="M266.221,285.887c11.516,5.58,23.342,0.126,28.758-11.047c2.133-4.401,2.933-9.029,2.441-13.364
						l-42.777,10.903C256.298,278.032,260.232,282.983,266.221,285.887z"/>
				</g>
			</g>
			<g>
				<g>
					<path fill="#B1C44B" d="M194.911,337.451c-5.417,11.175-17.243,16.627-28.759,11.047c-11.51-5.58-15.506-18.701-10.094-29.878
						c5.418-11.172,18.193-16.167,29.707-10.586S200.326,326.277,194.911,337.451z"/>
					<path fill="#AAA822" d="M166.153,348.498c11.516,5.58,23.342,0.128,28.759-11.047c2.136-4.399,2.935-9.027,2.442-13.363
						l-42.777,10.903C156.227,340.645,160.164,345.595,166.153,348.498z"/>
				</g>
				<path fill="#DBE492" d="M175.074,315.272c0.838,2.043-0.264,4.428-2.467,5.333c-2.198,0.906-4.661-0.02-5.498-2.059
					c-0.84-2.043,0.262-4.432,2.465-5.333C171.772,312.307,174.238,313.233,175.074,315.272z"/>
			</g>
			<g>
				<g>
					<path fill="#B1C44B" d="M194.473,228.832c-5.418,11.172-17.246,16.628-28.76,11.046c-11.512-5.58-15.508-18.702-10.094-29.876
						c5.416-11.175,18.193-16.169,29.705-10.588C196.84,204.993,199.885,217.657,194.473,228.832z"/>
					<path fill="#AAA822" d="M165.713,239.878c11.514,5.582,23.342,0.126,28.76-11.046c2.131-4.401,2.932-9.028,2.439-13.365
						l-42.777,10.905C155.787,232.026,159.723,236.972,165.713,239.878z"/>
				</g>
				<path fill="#DBE492" d="M174.633,206.653c0.84,2.041-0.264,4.429-2.466,5.331c-2.198,0.907-4.658-0.018-5.497-2.06
					c-0.84-2.041,0.264-4.43,2.461-5.333C171.333,203.689,173.795,204.612,174.633,206.653z"/>
			</g>
			<g>
				<g>
					<path fill="#B1C44B" d="M229.74,252.813c-5.414,11.174-17.242,16.628-28.756,11.049c-11.512-5.582-15.51-18.702-10.096-29.879
						c5.418-11.174,18.192-16.168,29.706-10.587C232.112,228.976,235.156,241.639,229.74,252.813z"/>
					<path fill="#AAA822" d="M200.985,263.862c11.514,5.579,23.342,0.125,28.756-11.049c2.133-4.402,2.936-9.028,2.442-13.363
						l-42.776,10.903C191.061,256.007,194.993,260.956,200.985,263.862z"/>
				</g>
				<path fill="#DBE492" d="M209.905,230.635c0.838,2.042-0.264,4.43-2.467,5.333c-2.197,0.905-4.662-0.019-5.498-2.06
					c-0.838-2.043,0.264-4.428,2.462-5.333C206.602,227.672,209.067,228.594,209.905,230.635z"/>
			</g>
			<g>
				<g>
					<path fill="#B1C44B" d="M296.684,242.785c-5.416,11.176-17.246,16.629-28.757,11.049c-11.513-5.581-15.509-18.7-10.097-29.878
						c5.42-11.174,18.193-16.169,29.709-10.587C299.052,218.949,302.1,231.612,296.684,242.785z"/>
					<path fill="#AAA822" d="M267.927,253.834c11.511,5.58,23.341,0.127,28.757-11.049c2.132-4.398,2.934-9.026,2.441-13.361
						l-42.775,10.902C258.002,245.979,261.936,250.928,267.927,253.834z"/>
				</g>
				<path fill="#DBE492" d="M276.844,220.609c0.839,2.041-0.264,4.429-2.465,5.33c-2.199,0.906-4.662-0.019-5.498-2.058
					c-0.838-2.043,0.265-4.433,2.464-5.332C273.543,217.643,276.006,218.569,276.844,220.609z"/>
			</g>
			<g>
				<g>
					<path fill="#B1C44B" d="M269.041,186.916c-5.414,11.173-17.242,16.627-28.758,11.046c-11.509-5.579-15.51-18.701-10.093-29.876
						c5.417-11.176,18.193-16.169,29.705-10.587C271.41,163.079,274.459,175.741,269.041,186.916z"/>
					<path fill="#AAA822" d="M240.283,197.962c11.516,5.581,23.344,0.127,28.758-11.046c2.131-4.402,2.937-9.028,2.441-13.366
						l-42.774,10.905C230.36,190.108,234.293,195.057,240.283,197.962z"/>
				</g>
				<path fill="#DBE492" d="M249.203,164.738c0.838,2.04-0.262,4.428-2.465,5.33c-2.197,0.906-4.66-0.017-5.5-2.061
					c-0.836-2.04,0.266-4.428,2.463-5.329C245.901,161.773,248.365,162.697,249.203,164.738z"/>
			</g>
			<g>
				<g>
					<path fill="#B1C44B" d="M292.695,213.207c-5.417,11.175-17.243,16.626-28.759,11.046
						c-11.514-5.578-15.508-18.701-10.092-29.877c5.415-11.174,18.191-16.167,29.703-10.586
						C295.062,189.368,298.111,202.032,292.695,213.207z"/>
					<path fill="#AAA822" d="M263.936,224.253c11.516,5.58,23.342,0.129,28.759-11.046c2.131-4.401,2.935-9.028,2.44-13.366
						l-42.775,10.905C254.011,216.399,257.946,221.349,263.936,224.253z"/>
				</g>
				
					<ellipse transform="matrix(0.9251 -0.3798 0.3798 0.9251 -53.0237 116.5421)" fill="#DBE492" cx="268.874" cy="192.664" rx="4.306" ry="3.994"/>
			</g>
			<g>
				<g>
					<path fill="#B1C44B" d="M231.754,215.819c-5.416,11.173-17.246,16.627-28.76,11.047c-11.511-5.577-15.508-18.7-10.092-29.877
						c5.416-11.175,18.19-16.17,29.704-10.588C234.121,191.983,237.17,204.644,231.754,215.819z"/>
					<path fill="#AAA822" d="M202.994,226.866c11.514,5.58,23.344,0.126,28.76-11.047c2.131-4.398,2.934-9.028,2.439-13.363
						L191.42,213.36C193.071,219.01,197.004,223.962,202.994,226.866z"/>
				</g>
			</g>
			<g>
				<g>
					<path fill="#B1C44B" d="M226.703,289.149c-5.416,11.173-17.243,16.623-28.758,11.045
						c-11.512-5.578-15.509-18.701-10.094-29.876c5.418-11.175,18.191-16.169,29.705-10.588
						C229.073,265.311,232.118,277.973,226.703,289.149z"/>
					<path fill="#AAA822" d="M197.946,300.194c11.515,5.578,23.342,0.128,28.758-11.045c2.133-4.402,2.934-9.028,2.441-13.366
						l-42.775,10.903C188.024,292.341,191.955,297.29,197.946,300.194z"/>
				</g>
				
					<ellipse transform="matrix(0.925 -0.38 0.38 0.925 -86.858 97.2561)" fill="#DBE492" cx="202.883" cy="268.606" rx="4.305" ry="3.994"/>
			</g>
			<g>
				<g>
					<path fill="#B1C44B" d="M219.959,185.005c-5.414,11.174-17.242,16.628-28.759,11.045
						c-11.511-5.578-15.509-18.698-10.091-29.875c5.416-11.173,18.193-16.169,29.705-10.587
						C222.328,161.169,225.376,173.831,219.959,185.005z"/>
					<path fill="#AAA822" d="M191.2,196.05c11.517,5.583,23.345,0.129,28.759-11.045c2.135-4.401,2.934-9.027,2.442-13.365
						l-42.776,10.903C181.28,188.197,185.21,193.147,191.2,196.05z"/>
				</g>
				<path fill="#DBE492" d="M200.123,162.827c0.838,2.041-0.263,4.428-2.465,5.331c-2.199,0.905-4.664-0.018-5.5-2.062
					c-0.838-2.041,0.264-4.428,2.461-5.328C196.822,159.862,199.283,160.786,200.123,162.827z"/>
			</g>
			<g>
				<g>
					<path fill="#B1C44B" d="M266.251,271.012c-5.415,11.176-17.244,16.629-28.758,11.048
						c-11.512-5.581-15.509-18.702-10.095-29.878c5.416-11.173,18.191-16.168,29.707-10.587
						C268.619,247.176,271.666,259.838,266.251,271.012z"/>
					<path fill="#AAA822" d="M237.493,282.06c11.514,5.581,23.343,0.128,28.758-11.048c2.132-4.401,2.934-9.025,2.44-13.364
						l-42.776,10.906C227.569,274.207,231.502,279.156,237.493,282.06z"/>
				</g>
				<path fill="#DBE492" d="M246.413,248.837c0.839,2.041-0.265,4.426-2.465,5.33c-2.198,0.906-4.661-0.019-5.5-2.061
					c-0.838-2.041,0.261-4.428,2.464-5.331C243.114,245.871,245.573,246.794,246.413,248.837z"/>
			</g>
		</g>
	</g>
</g>
</svg>
